<?xml version="1.0" encoding="UTF-8"?>
<svg width="262px" height="360px" viewBox="0 0 262 360" version="1.1" xmlns="http://www.w3.org/2000/svg" xmlns:xlink="http://www.w3.org/1999/xlink">
    <title>Diarrhea 4</title>
    <g id="Diarrhea-4" stroke="none" stroke-width="1" fill="none" fill-rule="evenodd">
        <g id="Group" transform="translate(9.000000, 9.000000)" fill="#FFFFFF" stroke="#000000" stroke-width="3">
            <g id="Rectangle">
                <rect x="1.5" y="1.5" width="239" height="337" rx="8"></rect>
            </g>
        </g>
        <path d="M216.124,30 L216.124,29.712 C215.964,29.712 215.82,29.668 215.692,29.58 C215.564,29.492 215.5,29.312 215.5,29.04 L215.5,29.04 L215.5,18.048 C215.5,17.888 215.564,17.768 215.692,17.688 C215.82,17.608 215.98,17.552 216.172,17.52 L216.172,17.52 L216.172,17.232 L212.284,17.232 L212.284,17.52 C212.46,17.552 212.6,17.6 212.704,17.664 C212.808,17.728 212.86,17.872 212.86,18.096 C212.86,18.336 212.768,18.54 212.584,18.708 C212.4,18.876 212.172,18.96 211.9,18.96 C211.772,18.96 211.636,18.932 211.492,18.876 C211.348,18.82 211.276,18.72 211.276,18.576 L211.276,18.576 L210.988,18.576 L210.988,21.6 L211.276,21.6 C211.324,21.472 211.408,21.372 211.528,21.3 C211.648,21.228 211.78,21.172 211.924,21.132 C212.068,21.092 212.216,21.064 212.368,21.048 C212.52,21.032 212.652,21.024 212.764,21.024 L212.764,21.024 L212.764,29.04 C212.764,29.312 212.704,29.492 212.584,29.58 C212.464,29.668 212.324,29.712 212.164,29.712 L212.164,29.712 L212.164,30 L216.124,30 Z" id="1" fill="#000000" fill-rule="nonzero"></path>
        <g id="Face" transform="translate(225.000000, 15.000000)">
            <circle id="Oval" stroke="#000000" fill="#FFFFFF" cx="9.5" cy="9.5" r="9"></circle>
            <circle id="Oval" fill="#000000" cx="5" cy="8" r="1"></circle>
            <circle id="Oval-Copy" fill="#000000" cx="12" cy="8" r="1"></circle>
            <line x1="12.0789474" y1="13.9090909" x2="14.5" y2="11.5" id="Line-4" stroke="#000000" stroke-linecap="round"></line>
            <path d="M3,5.89285714 C3.41025641,5.96428571 3.76923077,6 4.07692308,6 C4.38461538,6 5.35897436,5.33333333 7,4" id="Line-2" stroke="#000000"></path>
            <path d="M6,15 C6.96078431,14.3333333 8.07598039,14 9.34558824,14 C10.6151961,14 11.8333333,14.3333333 13,15" id="Line" stroke="#000000" stroke-linecap="round" stroke-linejoin="round"></path>
            <path d="M11.3197366,4.68245322 C11.585843,4.80663622 11.7912611,4.92388646 11.9359908,5.03420394 C12.548667,5.50120471 13.1333088,5.70898724 13.3155349,5.80010028 C13.5440857,5.91437569 13.8101922,6.00751295 14.1138542,6.07951204" id="Line-3" stroke="#000000" stroke-linecap="square" transform="translate(12.716795, 5.380983) rotate(-3.000000) translate(-12.716795, -5.380983) "></path>
            <path d="M2.999,9.347 L3.01687864,9.39698204 C3.09438102,9.62639002 3.1880913,9.89570266 3.30282211,10.2112791 C3.48139895,10.7024692 3.54804655,11.0169045 3.47980817,11.2204078 C3.41244402,11.421304 3.17143148,11.4011566 3.01518318,11.4416373 L3.01518318,11.4416373 L2.86575433,11.4813457 C2.78836954,11.5029149 2.70310591,11.5126925 2.63007237,11.4810832 C2.58941161,11.463485 2.56030088,11.4264037 2.54036126,11.376794 C2.4446463,11.1386559 2.49784548,10.759559 2.69717789,10.2112791 C2.8119087,9.89570266 2.90561898,9.62639002 2.98312136,9.39698204 L2.999,9.347 Z" id="Oval" stroke="#000000"></path>
            <path d="M16,6.347 L16.0168786,6.39698204 C16.094381,6.62639002 16.1880913,6.89570266 16.3028221,7.21127907 C16.481399,7.70246915 16.5480465,8.01690453 16.4798082,8.22040783 C16.412444,8.42130397 16.1714315,8.40115659 16.0151832,8.44163726 L16.0151832,8.44163726 L15.8657543,8.48134574 C15.7883695,8.50291486 15.7031059,8.51269255 15.6300724,8.48108319 C15.5894116,8.46348497 15.5603009,8.42640366 15.5403613,8.37679403 C15.4446463,8.13865595 15.4978455,7.75955902 15.6971779,7.21127907 C15.8119087,6.89570266 15.905619,6.62639002 15.9831214,6.39698204 L16,6.347 Z" id="Oval-Copy-2" stroke="#000000"></path>
        </g>
        <rect id="Rectangle" stroke="#000000" stroke-width="3" x="17.5" y="258.5" width="225" height="83" rx="8"></rect>
        <path d="M62.6,57 C63.92,57 65.15,56.808 66.29,56.424 C67.43,56.04 68.42,55.458 69.26,54.678 C70.1,53.898 70.76,52.914 71.24,51.726 C71.72,50.538 71.96,49.14 71.96,47.532 C71.96,45.924 71.72,44.526 71.24,43.338 C70.76,42.15 70.1,41.166 69.26,40.386 C68.42,39.606 67.43,39.024 66.29,38.64 C65.15,38.256 63.92,38.064 62.6,38.064 L62.6,38.064 L50.648,38.064 L50.648,38.712 C51.2,38.712 51.476,38.928 51.476,39.36 L51.476,39.36 L51.476,55.704 C51.476,56.136 51.2,56.352 50.648,56.352 L50.648,56.352 L50.648,57 L62.6,57 Z M61.16,53.904 L55.58,53.904 L55.58,41.16 L61.16,41.16 C62.288,41.16 63.272,41.256 64.112,41.448 C64.952,41.64 65.648,41.982 66.2,42.474 C66.752,42.966 67.166,43.62 67.442,44.436 C67.718,45.252 67.856,46.284 67.856,47.532 C67.856,48.78 67.718,49.812 67.442,50.628 C67.166,51.444 66.752,52.098 66.2,52.59 C65.648,53.082 64.952,53.424 64.112,53.616 C63.272,53.808 62.288,53.904 61.16,53.904 L61.16,53.904 Z M82.688,57 L82.688,56.352 C82.016,56.352 81.68,56.172 81.68,55.812 L81.68,55.812 L81.68,42.348 C81.68,41.988 82.016,41.808 82.688,41.808 L82.688,41.808 L82.688,41.16 L77.216,41.16 L77.216,41.808 C77.6,41.808 77.864,41.85 78.008,41.934 C78.152,42.018 78.224,42.156 78.224,42.348 L78.224,42.348 L78.224,55.812 C78.224,56.004 78.152,56.142 78.008,56.226 C77.864,56.31 77.6,56.352 77.216,56.352 L77.216,56.352 L77.216,57 L82.688,57 Z M91.328,57 L91.328,56.352 C91.112,56.352 90.944,56.328 90.824,56.28 C90.704,56.232 90.644,56.112 90.644,55.92 C90.644,55.8 90.674,55.662 90.734,55.506 C90.794,55.35 90.872,55.176 90.968,54.984 L90.968,54.984 L91.976,53.04 L99.68,53.04 L100.652,55.092 C100.724,55.284 100.784,55.44 100.832,55.56 C100.88,55.68 100.904,55.812 100.904,55.956 C100.904,56.148 100.838,56.28 100.706,56.352 C100.574,56.424 100.448,56.46 100.328,56.46 L100.328,56.46 L100.328,57 L105.44,57 L105.44,56.352 C105.272,56.304 105.116,56.232 104.972,56.136 C104.828,56.04 104.696,55.884 104.576,55.668 L104.576,55.668 L98.744,43.428 C98.624,43.164 98.51,42.93 98.402,42.726 C98.294,42.522 98.24,42.348 98.24,42.204 C98.24,42.036 98.282,41.94 98.366,41.916 C98.45,41.892 98.528,41.856 98.6,41.808 L98.6,41.808 L98.6,41.16 L93.164,41.16 L93.164,41.808 C93.236,41.856 93.302,41.898 93.362,41.934 C93.422,41.97 93.452,42.06 93.452,42.204 C93.452,42.396 93.41,42.594 93.326,42.798 C93.242,43.002 93.128,43.272 92.984,43.608 L92.984,43.608 L87.62,55.308 C87.524,55.5 87.386,55.71 87.206,55.938 C87.026,56.166 86.792,56.304 86.504,56.352 L86.504,56.352 L86.504,57 L91.328,57 Z M98.528,50.376 L93.056,50.376 L95.612,44.328 L98.528,50.376 Z M113.576,57 L113.576,56.352 C113.432,56.352 113.282,56.31 113.126,56.226 C112.97,56.142 112.892,56.004 112.892,55.812 L112.892,55.812 L112.892,50.664 L117.896,50.664 L120.74,54.912 C121.1,55.416 121.28,55.788 121.28,56.028 C121.28,56.244 121.124,56.352 120.812,56.352 L120.812,56.352 L120.812,57 L126.32,57 L126.32,56.352 C126.056,56.28 125.81,56.178 125.582,56.046 C125.354,55.914 125.144,55.716 124.952,55.452 L124.952,55.452 L121.424,50.304 C121.928,50.184 122.42,50.01 122.9,49.782 C123.38,49.554 123.818,49.254 124.214,48.882 C124.61,48.51 124.928,48.072 125.168,47.568 C125.408,47.064 125.528,46.488 125.528,45.84 C125.528,44.136 124.928,42.93 123.728,42.222 C122.528,41.514 120.86,41.16 118.724,41.16 L118.724,41.16 L108.788,41.16 L108.788,41.808 C109.22,41.808 109.436,41.988 109.436,42.348 L109.436,42.348 L109.436,55.812 C109.436,56.172 109.22,56.352 108.788,56.352 L108.788,56.352 L108.788,57 L113.576,57 Z M118.652,48 L112.964,48 L112.964,43.824 L118.652,43.824 C119.876,43.824 120.77,43.998 121.334,44.346 C121.898,44.694 122.18,45.168 122.18,45.768 C122.18,47.256 121.004,48 118.652,48 L118.652,48 Z M135.572,57 L135.572,56.352 C135.428,56.352 135.278,56.31 135.122,56.226 C134.966,56.142 134.888,56.004 134.888,55.812 L134.888,55.812 L134.888,50.664 L139.892,50.664 L142.736,54.912 C143.096,55.416 143.276,55.788 143.276,56.028 C143.276,56.244 143.12,56.352 142.808,56.352 L142.808,56.352 L142.808,57 L148.316,57 L148.316,56.352 C148.052,56.28 147.806,56.178 147.578,56.046 C147.35,55.914 147.14,55.716 146.948,55.452 L146.948,55.452 L143.42,50.304 C143.924,50.184 144.416,50.01 144.896,49.782 C145.376,49.554 145.814,49.254 146.21,48.882 C146.606,48.51 146.924,48.072 147.164,47.568 C147.404,47.064 147.524,46.488 147.524,45.84 C147.524,44.136 146.924,42.93 145.724,42.222 C144.524,41.514 142.856,41.16 140.72,41.16 L140.72,41.16 L130.784,41.16 L130.784,41.808 C131.216,41.808 131.432,41.988 131.432,42.348 L131.432,42.348 L131.432,55.812 C131.432,56.172 131.216,56.352 130.784,56.352 L130.784,56.352 L130.784,57 L135.572,57 Z M140.648,48 L134.96,48 L134.96,43.824 L140.648,43.824 C141.872,43.824 142.766,43.998 143.33,44.346 C143.894,44.694 144.176,45.168 144.176,45.768 C144.176,47.256 143,48 140.648,48 L140.648,48 Z M157.676,57 L157.676,56.352 C157.532,56.352 157.406,56.31 157.298,56.226 C157.19,56.142 157.136,56.004 157.136,55.812 L157.136,55.812 L157.136,50.376 L166.784,50.376 L166.784,55.812 C166.784,56.004 166.73,56.142 166.622,56.226 C166.514,56.31 166.388,56.352 166.244,56.352 L166.244,56.352 L166.244,57 L170.78,57 L170.78,56.352 C170.636,56.352 170.51,56.31 170.402,56.226 C170.294,56.142 170.24,56.004 170.24,55.812 L170.24,55.812 L170.24,42.348 C170.24,42.156 170.294,42.018 170.402,41.934 C170.51,41.85 170.636,41.808 170.78,41.808 L170.78,41.808 L170.78,41.16 L166.244,41.16 L166.244,41.808 C166.388,41.808 166.514,41.85 166.622,41.934 C166.73,42.018 166.784,42.156 166.784,42.348 L166.784,42.348 L166.784,47.424 L157.136,47.424 L157.136,42.348 C157.136,42.156 157.19,42.018 157.298,41.934 C157.406,41.85 157.532,41.808 157.676,41.808 L157.676,41.808 L157.676,41.16 L153.14,41.16 L153.14,41.808 C153.284,41.808 153.41,41.85 153.518,41.934 C153.626,42.018 153.68,42.156 153.68,42.348 L153.68,42.348 L153.68,55.812 C153.68,56.004 153.626,56.142 153.518,56.226 C153.41,56.31 153.284,56.352 153.14,56.352 L153.14,56.352 L153.14,57 L157.676,57 Z M191.804,57.396 L191.804,53.616 L191.156,53.616 C191.156,53.832 191.06,54.006 190.868,54.138 C190.676,54.27 190.436,54.336 190.148,54.336 L190.148,54.336 L180.932,54.336 L180.932,50.088 L186.188,50.088 C186.668,50.088 187.04,50.118 187.304,50.178 C187.568,50.238 187.664,50.4 187.592,50.664 L187.592,50.664 L188.312,50.664 L188.312,46.848 L187.664,46.848 C187.664,47.112 187.568,47.274 187.376,47.334 C187.184,47.394 186.884,47.424 186.476,47.424 L186.476,47.424 L180.932,47.424 L180.932,43.824 L189.716,43.824 C190.46,43.824 190.832,44.052 190.832,44.508 L190.832,44.508 L191.48,44.508 L191.48,40.512 L190.832,40.512 C190.832,40.944 190.46,41.16 189.716,41.16 L189.716,41.16 L176.936,41.16 L176.936,41.808 C177.056,41.808 177.176,41.85 177.296,41.934 C177.416,42.018 177.476,42.156 177.476,42.348 L177.476,42.348 L177.476,55.812 C177.476,56.004 177.416,56.142 177.296,56.226 C177.176,56.31 177.056,56.352 176.936,56.352 L176.936,56.352 L176.936,57 L190.148,57 C190.436,57 190.676,57.012 190.868,57.036 C191.06,57.06 191.156,57.18 191.156,57.396 L191.156,57.396 L191.804,57.396 Z M199.364,57 L199.364,56.352 C199.148,56.352 198.98,56.328 198.86,56.28 C198.74,56.232 198.68,56.112 198.68,55.92 C198.68,55.8 198.71,55.662 198.77,55.506 C198.83,55.35 198.908,55.176 199.004,54.984 L199.004,54.984 L200.012,53.04 L207.716,53.04 L208.688,55.092 C208.76,55.284 208.82,55.44 208.868,55.56 C208.916,55.68 208.94,55.812 208.94,55.956 C208.94,56.148 208.874,56.28 208.742,56.352 C208.61,56.424 208.484,56.46 208.364,56.46 L208.364,56.46 L208.364,57 L213.476,57 L213.476,56.352 C213.308,56.304 213.152,56.232 213.008,56.136 C212.864,56.04 212.732,55.884 212.612,55.668 L212.612,55.668 L206.78,43.428 C206.66,43.164 206.546,42.93 206.438,42.726 C206.33,42.522 206.276,42.348 206.276,42.204 C206.276,42.036 206.318,41.94 206.402,41.916 C206.486,41.892 206.564,41.856 206.636,41.808 L206.636,41.808 L206.636,41.16 L201.2,41.16 L201.2,41.808 C201.272,41.856 201.338,41.898 201.398,41.934 C201.458,41.97 201.488,42.06 201.488,42.204 C201.488,42.396 201.446,42.594 201.362,42.798 C201.278,43.002 201.164,43.272 201.02,43.608 L201.02,43.608 L195.656,55.308 C195.56,55.5 195.422,55.71 195.242,55.938 C195.062,56.166 194.828,56.304 194.54,56.352 L194.54,56.352 L194.54,57 L199.364,57 Z M206.564,50.376 L201.092,50.376 L203.648,44.328 L206.564,50.376 Z" id="Diarrhea" fill="#000000" fill-rule="nonzero"></path>
        <path d="M80.402,278 L80.402,277.676 C80.138,277.676 80.006,277.568 80.006,277.352 L80.006,277.352 L80.006,270.188 L82.976,270.188 C83.084,270.188 83.189,270.218 83.291,270.278 C83.393,270.338 83.444,270.452 83.444,270.62 L83.444,270.62 L83.768,270.62 L83.768,268.1 L83.444,268.1 C83.444,268.268 83.393,268.382 83.291,268.442 C83.189,268.502 83.084,268.532 82.976,268.532 L82.976,268.532 L74.984,268.532 C74.876,268.532 74.771,268.502 74.669,268.442 C74.567,268.382 74.516,268.268 74.516,268.1 L74.516,268.1 L74.192,268.1 L74.192,270.62 L74.516,270.62 C74.516,270.452 74.567,270.338 74.669,270.278 C74.771,270.218 74.876,270.188 74.984,270.188 L74.984,270.188 L77.954,270.188 L77.954,277.352 C77.954,277.46 77.921,277.541 77.855,277.595 C77.789,277.649 77.714,277.676 77.63,277.676 L77.63,277.676 L77.63,278 L80.402,278 Z M87.17,278 L87.17,277.676 C87.062,277.676 86.978,277.664 86.918,277.64 C86.858,277.616 86.828,277.556 86.828,277.46 C86.828,277.4 86.843,277.331 86.873,277.253 C86.903,277.175 86.942,277.088 86.99,276.992 L86.99,276.992 L87.494,276.02 L91.346,276.02 L91.832,277.046 C91.868,277.142 91.898,277.22 91.922,277.28 C91.946,277.34 91.958,277.406 91.958,277.478 C91.958,277.574 91.925,277.64 91.859,277.676 C91.793,277.712 91.73,277.73 91.67,277.73 L91.67,277.73 L91.67,278 L94.226,278 L94.226,277.676 C94.142,277.652 94.064,277.616 93.992,277.568 C93.92,277.52 93.854,277.442 93.794,277.334 L93.794,277.334 L90.878,271.214 C90.818,271.082 90.761,270.965 90.707,270.863 C90.653,270.761 90.626,270.674 90.626,270.602 C90.626,270.518 90.647,270.47 90.689,270.458 C90.731,270.446 90.77,270.428 90.806,270.404 L90.806,270.404 L90.806,270.08 L88.088,270.08 L88.088,270.404 C88.124,270.428 88.157,270.449 88.187,270.467 C88.217,270.485 88.232,270.53 88.232,270.602 C88.232,270.698 88.211,270.797 88.169,270.899 C88.127,271.001 88.07,271.136 87.998,271.304 L87.998,271.304 L85.316,277.154 C85.268,277.25 85.199,277.355 85.109,277.469 C85.019,277.583 84.902,277.652 84.758,277.676 L84.758,277.676 L84.758,278 L87.17,278 Z M90.77,274.688 L88.034,274.688 L89.312,271.664 L90.77,274.688 Z M103.748,278.18 L103.748,276.29 L103.424,276.29 C103.424,276.41 103.376,276.503 103.28,276.569 C103.184,276.635 103.064,276.668 102.92,276.668 L102.92,276.668 L98.06,276.668 L98.06,270.674 C98.06,270.494 98.198,270.404 98.474,270.404 L98.474,270.404 L98.474,270.08 L95.864,270.08 L95.864,270.404 C96.176,270.404 96.332,270.494 96.332,270.674 L96.332,270.674 L96.332,277.406 C96.332,277.586 96.176,277.676 95.864,277.676 L95.864,277.676 L95.864,278 L102.92,278 C103.064,278 103.184,278.006 103.28,278.018 C103.376,278.03 103.424,278.084 103.424,278.18 L103.424,278.18 L103.748,278.18 Z M108.194,278 L108.194,277.676 C107.966,277.676 107.852,277.586 107.852,277.406 L107.852,277.406 L107.852,275.39 L109.256,274.274 L111.47,276.974 C111.626,277.154 111.731,277.286 111.785,277.37 C111.839,277.454 111.866,277.52 111.866,277.568 C111.866,277.64 111.8,277.676 111.668,277.676 L111.668,277.676 L111.668,278 L114.332,278 L114.332,277.676 C114.164,277.628 113.996,277.511 113.828,277.325 C113.66,277.139 113.504,276.956 113.36,276.776 L113.36,276.776 L110.516,273.248 L113.522,270.818 C113.81,270.59 114.026,270.452 114.17,270.404 L114.17,270.404 L114.17,270.08 L111.2,270.08 L111.2,270.35 C111.26,270.35 111.323,270.368 111.389,270.404 C111.455,270.44 111.488,270.488 111.488,270.548 C111.488,270.596 111.374,270.719 111.146,270.917 C110.918,271.115 110.63,271.358 110.282,271.646 C109.934,271.934 109.544,272.249 109.112,272.591 C108.68,272.933 108.26,273.272 107.852,273.608 L107.852,273.608 L107.852,270.674 C107.852,270.494 107.966,270.404 108.194,270.404 L108.194,270.404 L108.194,270.08 L105.836,270.08 L105.836,270.404 C106.028,270.404 106.124,270.494 106.124,270.674 L106.124,270.674 L106.124,277.406 C106.124,277.586 106.028,277.676 105.836,277.676 L105.836,277.676 L105.836,278 L108.194,278 Z M122.684,278 L122.684,277.676 C122.576,277.676 122.492,277.664 122.432,277.64 C122.372,277.616 122.342,277.556 122.342,277.46 C122.342,277.4 122.357,277.331 122.387,277.253 C122.417,277.175 122.456,277.088 122.504,276.992 L122.504,276.992 L123.008,276.02 L126.86,276.02 L127.346,277.046 C127.382,277.142 127.412,277.22 127.436,277.28 C127.46,277.34 127.472,277.406 127.472,277.478 C127.472,277.574 127.439,277.64 127.373,277.676 C127.307,277.712 127.244,277.73 127.184,277.73 L127.184,277.73 L127.184,278 L129.74,278 L129.74,277.676 C129.656,277.652 129.578,277.616 129.506,277.568 C129.434,277.52 129.368,277.442 129.308,277.334 L129.308,277.334 L126.392,271.214 C126.332,271.082 126.275,270.965 126.221,270.863 C126.167,270.761 126.14,270.674 126.14,270.602 C126.14,270.518 126.161,270.47 126.203,270.458 C126.245,270.446 126.284,270.428 126.32,270.404 L126.32,270.404 L126.32,270.08 L123.602,270.08 L123.602,270.404 C123.638,270.428 123.671,270.449 123.701,270.467 C123.731,270.485 123.746,270.53 123.746,270.602 C123.746,270.698 123.725,270.797 123.683,270.899 C123.641,271.001 123.584,271.136 123.512,271.304 L123.512,271.304 L120.83,277.154 C120.782,277.25 120.713,277.355 120.623,277.469 C120.533,277.583 120.416,277.652 120.272,277.676 L120.272,277.676 L120.272,278 L122.684,278 Z M126.284,274.688 L123.548,274.688 L124.826,271.664 L126.284,274.688 Z M136.796,278 C137.324,278 137.777,277.943 138.155,277.829 C138.533,277.715 138.839,277.562 139.073,277.37 C139.307,277.178 139.478,276.956 139.586,276.704 C139.694,276.452 139.748,276.182 139.748,275.894 C139.748,275.642 139.706,275.408 139.622,275.192 C139.538,274.976 139.43,274.784 139.298,274.616 C139.166,274.448 139.016,274.304 138.848,274.184 C138.68,274.064 138.512,273.968 138.344,273.896 L138.344,273.896 L138.344,273.878 C138.488,273.806 138.629,273.71 138.767,273.59 C138.905,273.47 139.031,273.335 139.145,273.185 C139.259,273.035 139.352,272.867 139.424,272.681 C139.496,272.495 139.532,272.294 139.532,272.078 C139.532,271.814 139.478,271.562 139.37,271.322 C139.262,271.082 139.097,270.869 138.875,270.683 C138.653,270.497 138.377,270.35 138.047,270.242 C137.717,270.134 137.324,270.08 136.868,270.08 L136.868,270.08 L131.27,270.08 L131.27,270.404 C131.366,270.404 131.459,270.425 131.549,270.467 C131.639,270.509 131.684,270.578 131.684,270.674 L131.684,270.674 L131.684,277.406 C131.684,277.502 131.639,277.571 131.549,277.613 C131.459,277.655 131.366,277.676 131.27,277.676 L131.27,277.676 L131.27,278 L136.796,278 Z M136.616,273.212 L133.412,273.212 L133.412,271.412 L136.616,271.412 C136.76,271.412 136.904,271.421 137.048,271.439 C137.192,271.457 137.318,271.499 137.426,271.565 C137.534,271.631 137.624,271.721 137.696,271.835 C137.768,271.949 137.804,272.102 137.804,272.294 C137.804,272.666 137.678,272.912 137.426,273.032 C137.174,273.152 136.904,273.212 136.616,273.212 L136.616,273.212 Z M136.58,276.668 L133.412,276.668 L133.412,274.544 L136.292,274.544 C136.916,274.544 137.36,274.634 137.624,274.814 C137.888,274.994 138.02,275.27 138.02,275.642 C138.02,275.966 137.918,276.218 137.714,276.398 C137.51,276.578 137.132,276.668 136.58,276.668 L136.58,276.668 Z M146.498,278.054 C147.158,278.054 147.779,277.979 148.361,277.829 C148.943,277.679 149.45,277.436 149.882,277.1 C150.314,276.764 150.656,276.341 150.908,275.831 C151.16,275.321 151.286,274.724 151.286,274.04 C151.286,273.356 151.16,272.759 150.908,272.249 C150.656,271.739 150.314,271.316 149.882,270.98 C149.45,270.644 148.943,270.392 148.361,270.224 C147.779,270.056 147.158,269.972 146.498,269.972 C145.838,269.972 145.217,270.056 144.635,270.224 C144.053,270.392 143.546,270.644 143.114,270.98 C142.682,271.316 142.34,271.739 142.088,272.249 C141.836,272.759 141.71,273.356 141.71,274.04 C141.71,274.724 141.836,275.321 142.088,275.831 C142.34,276.341 142.682,276.764 143.114,277.1 C143.546,277.436 144.053,277.679 144.635,277.829 C145.217,277.979 145.838,278.054 146.498,278.054 Z M146.498,276.776 C146.114,276.776 145.739,276.713 145.373,276.587 C145.007,276.461 144.68,276.281 144.392,276.047 C144.104,275.813 143.873,275.528 143.699,275.192 C143.525,274.856 143.438,274.472 143.438,274.04 C143.438,273.608 143.525,273.224 143.699,272.888 C143.873,272.552 144.104,272.267 144.392,272.033 C144.68,271.799 145.007,271.619 145.373,271.493 C145.739,271.367 146.114,271.304 146.498,271.304 C146.882,271.304 147.257,271.367 147.623,271.493 C147.989,271.619 148.316,271.799 148.604,272.033 C148.892,272.267 149.123,272.552 149.297,272.888 C149.471,273.224 149.558,273.608 149.558,274.04 C149.558,274.472 149.471,274.856 149.297,275.192 C149.123,275.528 148.892,275.813 148.604,276.047 C148.316,276.281 147.989,276.461 147.623,276.587 C147.257,276.713 146.882,276.776 146.498,276.776 Z M158.072,278.054 C158.792,278.054 159.419,277.979 159.953,277.829 C160.487,277.679 160.925,277.472 161.267,277.208 C161.609,276.944 161.864,276.641 162.032,276.299 C162.2,275.957 162.284,275.6 162.284,275.228 L162.284,275.228 L162.284,270.674 C162.284,270.494 162.416,270.404 162.68,270.404 L162.68,270.404 L162.68,270.08 L160.178,270.08 L160.178,270.404 C160.478,270.404 160.628,270.494 160.628,270.674 L160.628,270.674 L160.628,274.796 C160.628,275.372 160.418,275.834 159.998,276.182 C159.578,276.53 158.936,276.704 158.072,276.704 C157.208,276.704 156.566,276.53 156.146,276.182 C155.726,275.834 155.516,275.372 155.516,274.796 L155.516,274.796 L155.516,270.674 C155.516,270.494 155.648,270.404 155.912,270.404 L155.912,270.404 L155.912,270.08 L153.338,270.08 L153.338,270.404 C153.542,270.404 153.68,270.425 153.752,270.467 C153.824,270.509 153.86,270.578 153.86,270.674 L153.86,270.674 L153.86,275.228 C153.86,275.6 153.944,275.957 154.112,276.299 C154.28,276.641 154.535,276.944 154.877,277.208 C155.219,277.472 155.657,277.679 156.191,277.829 C156.725,277.979 157.352,278.054 158.072,278.054 Z M169.7,278 L169.7,277.676 C169.484,277.676 169.376,277.586 169.376,277.406 L169.376,277.406 L169.376,271.412 L171.716,271.412 C171.812,271.412 171.902,271.436 171.986,271.484 C172.07,271.532 172.112,271.61 172.112,271.718 L172.112,271.718 L172.436,271.718 L172.436,269.648 L172.112,269.648 C172.112,269.816 172.07,269.93 171.986,269.99 C171.902,270.05 171.812,270.08 171.716,270.08 L171.716,270.08 L165.308,270.08 C165.212,270.08 165.122,270.05 165.038,269.99 C164.954,269.93 164.912,269.816 164.912,269.648 L164.912,269.648 L164.588,269.648 L164.588,271.718 L164.912,271.718 C164.912,271.61 164.954,271.532 165.038,271.484 C165.122,271.436 165.212,271.412 165.308,271.412 L165.308,271.412 L167.648,271.412 L167.648,277.406 C167.648,277.502 167.618,277.571 167.558,277.613 C167.498,277.655 167.438,277.676 167.378,277.676 L167.378,277.676 L167.378,278 L169.7,278 Z M181.184,278 L181.184,277.676 C181.076,277.676 180.992,277.664 180.932,277.64 C180.872,277.616 180.842,277.556 180.842,277.46 C180.842,277.4 180.857,277.331 180.887,277.253 C180.917,277.175 180.956,277.088 181.004,276.992 L181.004,276.992 L181.508,276.02 L185.36,276.02 L185.846,277.046 C185.882,277.142 185.912,277.22 185.936,277.28 C185.96,277.34 185.972,277.406 185.972,277.478 C185.972,277.574 185.939,277.64 185.873,277.676 C185.807,277.712 185.744,277.73 185.684,277.73 L185.684,277.73 L185.684,278 L188.24,278 L188.24,277.676 C188.156,277.652 188.078,277.616 188.006,277.568 C187.934,277.52 187.868,277.442 187.808,277.334 L187.808,277.334 L184.892,271.214 C184.832,271.082 184.775,270.965 184.721,270.863 C184.667,270.761 184.64,270.674 184.64,270.602 C184.64,270.518 184.661,270.47 184.703,270.458 C184.745,270.446 184.784,270.428 184.82,270.404 L184.82,270.404 L184.82,270.08 L182.102,270.08 L182.102,270.404 C182.138,270.428 182.171,270.449 182.201,270.467 C182.231,270.485 182.246,270.53 182.246,270.602 C182.246,270.698 182.225,270.797 182.183,270.899 C182.141,271.001 182.084,271.136 182.012,271.304 L182.012,271.304 L179.33,277.154 C179.282,277.25 179.213,277.355 179.123,277.469 C179.033,277.583 178.916,277.652 178.772,277.676 L178.772,277.676 L178.772,278 L181.184,278 Z M184.784,274.688 L182.048,274.688 L183.326,271.664 L184.784,274.688 Z M87.809,296.054 C88.349,296.054 88.838,296.006 89.276,295.91 C89.714,295.814 90.098,295.697 90.428,295.559 C90.758,295.421 91.031,295.298 91.247,295.19 C91.463,295.082 91.619,295.028 91.715,295.028 C91.775,295.028 91.877,295.058 92.021,295.118 L92.021,295.118 L92.201,295.028 L90.869,293.12 L90.671,293.3 C90.683,293.348 90.689,293.408 90.689,293.48 L90.689,293.48 L90.689,293.624 C90.689,293.732 90.602,293.852 90.428,293.984 C90.254,294.116 90.029,294.239 89.753,294.353 C89.477,294.467 89.171,294.566 88.835,294.65 C88.499,294.734 88.169,294.776 87.845,294.776 C87.497,294.776 87.155,294.713 86.819,294.587 C86.483,294.461 86.183,294.275 85.919,294.029 C85.655,293.783 85.442,293.489 85.28,293.147 C85.118,292.805 85.037,292.418 85.037,291.986 C85.037,291.554 85.109,291.17 85.253,290.834 C85.397,290.498 85.601,290.216 85.865,289.988 C86.129,289.76 86.438,289.589 86.792,289.475 C87.146,289.361 87.539,289.304 87.971,289.304 C88.331,289.304 88.661,289.337 88.961,289.403 C89.261,289.469 89.522,289.55 89.744,289.646 C89.966,289.742 90.137,289.841 90.257,289.943 C90.377,290.045 90.437,290.126 90.437,290.186 C90.437,290.222 90.44,290.252 90.446,290.276 C90.452,290.3 90.455,290.324 90.455,290.348 L90.455,290.348 L90.653,290.492 L91.841,288.782 L91.625,288.656 C91.577,288.68 91.532,288.71 91.49,288.746 C91.448,288.782 91.397,288.8 91.337,288.8 C91.253,288.8 91.115,288.758 90.923,288.674 C90.731,288.59 90.491,288.494 90.203,288.386 C89.915,288.278 89.582,288.182 89.204,288.098 C88.826,288.014 88.409,287.972 87.953,287.972 C87.365,287.972 86.792,288.056 86.234,288.224 C85.676,288.392 85.181,288.647 84.749,288.989 C84.317,289.331 83.969,289.754 83.705,290.258 C83.441,290.762 83.309,291.35 83.309,292.022 C83.309,292.694 83.441,293.285 83.705,293.795 C83.969,294.305 84.311,294.731 84.731,295.073 C85.151,295.415 85.631,295.664 86.171,295.82 C86.711,295.976 87.257,296.054 87.809,296.054 Z M101.993,296.18 L101.993,294.29 L101.669,294.29 C101.669,294.41 101.621,294.503 101.525,294.569 C101.429,294.635 101.309,294.668 101.165,294.668 L101.165,294.668 L96.305,294.668 L96.305,288.674 C96.305,288.494 96.443,288.404 96.719,288.404 L96.719,288.404 L96.719,288.08 L94.109,288.08 L94.109,288.404 C94.421,288.404 94.577,288.494 94.577,288.674 L94.577,288.674 L94.577,295.406 C94.577,295.586 94.421,295.676 94.109,295.676 L94.109,295.676 L94.109,296 L101.165,296 C101.309,296 101.429,296.006 101.525,296.018 C101.621,296.03 101.669,296.084 101.669,296.18 L101.669,296.18 L101.993,296.18 Z M111.659,296.198 L111.659,294.308 L111.335,294.308 C111.335,294.416 111.287,294.503 111.191,294.569 C111.095,294.635 110.975,294.668 110.831,294.668 L110.831,294.668 L106.223,294.668 L106.223,292.544 L108.851,292.544 C109.091,292.544 109.277,292.559 109.409,292.589 C109.541,292.619 109.589,292.7 109.553,292.832 L109.553,292.832 L109.913,292.832 L109.913,290.924 L109.589,290.924 C109.589,291.056 109.541,291.137 109.445,291.167 C109.349,291.197 109.199,291.212 108.995,291.212 L108.995,291.212 L106.223,291.212 L106.223,289.412 L110.615,289.412 C110.987,289.412 111.173,289.526 111.173,289.754 L111.173,289.754 L111.497,289.754 L111.497,287.756 L111.173,287.756 C111.173,287.972 110.987,288.08 110.615,288.08 L110.615,288.08 L104.225,288.08 L104.225,288.404 C104.285,288.404 104.345,288.425 104.405,288.467 C104.465,288.509 104.495,288.578 104.495,288.674 L104.495,288.674 L104.495,295.406 C104.495,295.502 104.465,295.571 104.405,295.613 C104.345,295.655 104.285,295.676 104.225,295.676 L104.225,295.676 L104.225,296 L110.831,296 C110.975,296 111.095,296.006 111.191,296.018 C111.287,296.03 111.335,296.09 111.335,296.198 L111.335,296.198 L111.659,296.198 Z M115.439,296 L115.439,295.676 C115.331,295.676 115.247,295.664 115.187,295.64 C115.127,295.616 115.097,295.556 115.097,295.46 C115.097,295.4 115.112,295.331 115.142,295.253 C115.172,295.175 115.211,295.088 115.259,294.992 L115.259,294.992 L115.763,294.02 L119.615,294.02 L120.101,295.046 C120.137,295.142 120.167,295.22 120.191,295.28 C120.215,295.34 120.227,295.406 120.227,295.478 C120.227,295.574 120.194,295.64 120.128,295.676 C120.062,295.712 119.999,295.73 119.939,295.73 L119.939,295.73 L119.939,296 L122.495,296 L122.495,295.676 C122.411,295.652 122.333,295.616 122.261,295.568 C122.189,295.52 122.123,295.442 122.063,295.334 L122.063,295.334 L119.147,289.214 C119.087,289.082 119.03,288.965 118.976,288.863 C118.922,288.761 118.895,288.674 118.895,288.602 C118.895,288.518 118.916,288.47 118.958,288.458 C119,288.446 119.039,288.428 119.075,288.404 L119.075,288.404 L119.075,288.08 L116.357,288.08 L116.357,288.404 C116.393,288.428 116.426,288.449 116.456,288.467 C116.486,288.485 116.501,288.53 116.501,288.602 C116.501,288.698 116.48,288.797 116.438,288.899 C116.396,289.001 116.339,289.136 116.267,289.304 L116.267,289.304 L113.585,295.154 C113.537,295.25 113.468,295.355 113.378,295.469 C113.288,295.583 113.171,295.652 113.027,295.676 L113.027,295.676 L113.027,296 L115.439,296 Z M119.039,292.688 L116.303,292.688 L117.581,289.664 L119.039,292.688 Z M126.437,296 L126.437,295.676 C126.185,295.676 126.059,295.586 126.059,295.406 L126.059,295.406 L126.059,290.168 L130.523,294.92 C130.667,295.076 130.796,295.214 130.91,295.334 C131.024,295.454 131.081,295.538 131.081,295.586 C131.081,295.646 131.039,295.676 130.955,295.676 L130.955,295.676 L130.955,296 L133.295,296 L133.295,295.676 C133.079,295.676 132.971,295.586 132.971,295.406 L132.971,295.406 L132.971,288.674 C132.971,288.494 133.079,288.404 133.295,288.404 L133.295,288.404 L133.295,288.08 L131.099,288.08 L131.099,288.404 C131.339,288.404 131.459,288.494 131.459,288.674 L131.459,288.674 L131.459,293.552 L127.139,288.98 C126.875,288.716 126.743,288.554 126.743,288.494 C126.743,288.446 126.785,288.416 126.869,288.404 L126.869,288.404 L126.869,288.08 L124.223,288.08 L124.223,288.404 C124.439,288.404 124.547,288.494 124.547,288.674 L124.547,288.674 L124.547,295.406 C124.547,295.586 124.439,295.676 124.223,295.676 L124.223,295.676 L124.223,296 L126.437,296 Z M139.631,296.054 C140.039,296.054 140.474,296.024 140.936,295.964 C141.398,295.904 141.821,295.778 142.205,295.586 C142.589,295.394 142.91,295.13 143.168,294.794 C143.426,294.458 143.555,294.026 143.555,293.498 C143.555,292.97 143.408,292.556 143.114,292.256 C142.82,291.956 142.451,291.728 142.007,291.572 C141.563,291.416 141.083,291.305 140.567,291.239 C140.051,291.173 139.571,291.107 139.127,291.041 C138.683,290.975 138.314,290.885 138.02,290.771 C137.726,290.657 137.579,290.468 137.579,290.204 C137.579,290.036 137.627,289.895 137.723,289.781 C137.819,289.667 137.951,289.574 138.119,289.502 C138.287,289.43 138.479,289.379 138.695,289.349 C138.911,289.319 139.139,289.304 139.379,289.304 C140.003,289.304 140.567,289.376 141.071,289.52 C141.575,289.664 141.947,289.838 142.187,290.042 C142.283,290.114 142.337,290.186 142.349,290.258 C142.361,290.33 142.373,290.402 142.385,290.474 L142.385,290.474 L142.709,290.582 L143.609,288.89 L143.411,288.692 C143.339,288.728 143.279,288.761 143.231,288.791 C143.183,288.821 143.111,288.836 143.015,288.836 C142.931,288.836 142.802,288.791 142.628,288.701 C142.454,288.611 142.229,288.512 141.953,288.404 C141.677,288.296 141.338,288.197 140.936,288.107 C140.534,288.017 140.051,287.972 139.487,287.972 C138.335,287.972 137.441,288.2 136.805,288.656 C136.169,289.112 135.851,289.724 135.851,290.492 C135.851,291.008 135.998,291.407 136.292,291.689 C136.586,291.971 136.955,292.187 137.399,292.337 C137.843,292.487 138.323,292.595 138.839,292.661 C139.355,292.727 139.835,292.793 140.279,292.859 C140.723,292.925 141.092,293.018 141.386,293.138 C141.68,293.258 141.827,293.45 141.827,293.714 C141.827,293.942 141.743,294.125 141.575,294.263 C141.407,294.401 141.203,294.509 140.963,294.587 C140.723,294.665 140.48,294.716 140.234,294.74 C139.988,294.764 139.781,294.776 139.613,294.776 C139.433,294.776 139.184,294.746 138.866,294.686 C138.548,294.626 138.23,294.545 137.912,294.443 C137.594,294.341 137.321,294.215 137.093,294.065 C136.865,293.915 136.751,293.75 136.751,293.57 C136.751,293.51 136.754,293.453 136.76,293.399 C136.766,293.345 136.769,293.294 136.769,293.246 L136.769,293.246 L136.427,293.156 L135.599,295.172 L135.851,295.352 C135.911,295.28 135.983,295.244 136.067,295.244 C136.115,295.244 136.253,295.289 136.481,295.379 C136.709,295.469 136.988,295.565 137.318,295.667 C137.648,295.769 138.014,295.859 138.416,295.937 C138.818,296.015 139.223,296.054 139.631,296.054 Z M149.135,296 L149.135,295.676 C148.799,295.676 148.631,295.586 148.631,295.406 L148.631,295.406 L148.631,288.674 C148.631,288.494 148.799,288.404 149.135,288.404 L149.135,288.404 L149.135,288.08 L146.399,288.08 L146.399,288.404 C146.591,288.404 146.723,288.425 146.795,288.467 C146.867,288.509 146.903,288.578 146.903,288.674 L146.903,288.674 L146.903,295.406 C146.903,295.502 146.867,295.571 146.795,295.613 C146.723,295.655 146.591,295.676 146.399,295.676 L146.399,295.676 L146.399,296 L149.135,296 Z M154.445,296 L154.445,295.676 C154.193,295.676 154.067,295.586 154.067,295.406 L154.067,295.406 L154.067,290.168 L158.531,294.92 C158.675,295.076 158.804,295.214 158.918,295.334 C159.032,295.454 159.089,295.538 159.089,295.586 C159.089,295.646 159.047,295.676 158.963,295.676 L158.963,295.676 L158.963,296 L161.303,296 L161.303,295.676 C161.087,295.676 160.979,295.586 160.979,295.406 L160.979,295.406 L160.979,288.674 C160.979,288.494 161.087,288.404 161.303,288.404 L161.303,288.404 L161.303,288.08 L159.107,288.08 L159.107,288.404 C159.347,288.404 159.467,288.494 159.467,288.674 L159.467,288.674 L159.467,293.552 L155.147,288.98 C154.883,288.716 154.751,288.554 154.751,288.494 C154.751,288.446 154.793,288.416 154.877,288.404 L154.877,288.404 L154.877,288.08 L152.231,288.08 L152.231,288.404 C152.447,288.404 152.555,288.494 152.555,288.674 L152.555,288.674 L152.555,295.406 C152.555,295.586 152.447,295.676 152.231,295.676 L152.231,295.676 L152.231,296 L154.445,296 Z M168.467,296.054 C169.043,296.054 169.565,296.015 170.033,295.937 C170.501,295.859 170.912,295.76 171.266,295.64 C171.62,295.52 171.914,295.397 172.148,295.271 C172.382,295.145 172.553,295.046 172.661,294.974 L172.661,294.974 L172.661,294.758 C172.541,294.71 172.466,294.665 172.436,294.623 C172.406,294.581 172.391,294.506 172.391,294.398 L172.391,294.398 L172.391,292.688 C172.391,292.568 172.409,292.478 172.445,292.418 C172.481,292.358 172.553,292.304 172.661,292.256 L172.661,292.256 L172.661,291.932 L169.133,291.932 C169.001,291.932 168.887,291.914 168.791,291.878 C168.695,291.842 168.635,291.764 168.611,291.644 L168.611,291.644 L168.287,291.644 L168.287,293.498 L168.611,293.498 C168.635,293.354 168.695,293.255 168.791,293.201 C168.887,293.147 169.001,293.12 169.133,293.12 L169.133,293.12 L170.987,293.12 L170.987,294.254 C170.603,294.458 170.18,294.596 169.718,294.668 C169.256,294.74 168.767,294.776 168.251,294.776 C167.903,294.776 167.543,294.728 167.171,294.632 C166.799,294.536 166.46,294.383 166.154,294.173 C165.848,293.963 165.599,293.687 165.407,293.345 C165.215,293.003 165.119,292.58 165.119,292.076 C165.119,291.572 165.209,291.146 165.389,290.798 C165.569,290.45 165.809,290.165 166.109,289.943 C166.409,289.721 166.757,289.559 167.153,289.457 C167.549,289.355 167.969,289.304 168.413,289.304 C168.737,289.304 169.058,289.337 169.376,289.403 C169.694,289.469 169.979,289.556 170.231,289.664 C170.483,289.772 170.687,289.889 170.843,290.015 C170.999,290.141 171.077,290.258 171.077,290.366 C171.077,290.378 171.065,290.444 171.041,290.564 L171.041,290.564 L171.257,290.69 L172.301,288.728 L172.085,288.62 C172.013,288.68 171.953,288.719 171.905,288.737 C171.857,288.755 171.785,288.764 171.689,288.764 C171.605,288.764 171.479,288.722 171.311,288.638 C171.143,288.554 170.921,288.464 170.645,288.368 C170.381,288.272 170.069,288.182 169.709,288.098 C169.349,288.014 168.935,287.972 168.467,287.972 C167.687,287.972 166.982,288.065 166.352,288.251 C165.722,288.437 165.188,288.707 164.75,289.061 C164.312,289.415 163.976,289.841 163.742,290.339 C163.508,290.837 163.391,291.404 163.391,292.04 C163.391,292.676 163.508,293.243 163.742,293.741 C163.976,294.239 164.312,294.662 164.75,295.01 C165.188,295.358 165.722,295.619 166.352,295.793 C166.982,295.967 167.687,296.054 168.467,296.054 Z M176.513,296.054 C176.861,296.054 177.161,295.937 177.413,295.703 C177.665,295.469 177.791,295.178 177.791,294.83 C177.791,294.482 177.665,294.182 177.413,293.93 C177.161,293.678 176.861,293.552 176.513,293.552 C176.165,293.552 175.865,293.678 175.613,293.93 C175.361,294.182 175.235,294.482 175.235,294.83 C175.235,295.178 175.361,295.469 175.613,295.703 C175.865,295.937 176.165,296.054 176.513,296.054 Z M58.19,314 L58.19,313.676 C57.962,313.676 57.848,313.61 57.848,313.478 C57.848,313.37 57.908,313.19 58.028,312.938 L58.028,312.938 L58.676,311.66 L63.068,311.66 L63.752,312.992 C63.848,313.184 63.896,313.34 63.896,313.46 C63.896,313.532 63.86,313.586 63.788,313.622 C63.716,313.658 63.656,313.676 63.608,313.676 L63.608,313.676 L63.608,314 L66.776,314 L66.776,313.676 C66.644,313.616 66.527,313.556 66.425,313.496 C66.323,313.436 66.242,313.34 66.182,313.208 L66.182,313.208 L62.438,305.882 C62.354,305.726 62.291,305.6 62.249,305.504 C62.207,305.408 62.186,305.312 62.186,305.216 C62.186,305.084 62.228,304.997 62.312,304.955 C62.396,304.913 62.48,304.88 62.564,304.856 L62.564,304.856 L62.564,304.532 L59.522,304.532 L59.522,304.856 C59.618,304.88 59.708,304.916 59.792,304.964 C59.876,305.012 59.918,305.096 59.918,305.216 C59.918,305.312 59.885,305.426 59.819,305.558 C59.753,305.69 59.678,305.834 59.594,305.99 L59.594,305.99 L56.264,312.992 C56.18,313.16 56.093,313.31 56.003,313.442 C55.913,313.574 55.79,313.652 55.634,313.676 L55.634,313.676 L55.634,314 L58.19,314 Z M62.42,310.328 L59.216,310.328 L60.908,306.98 L62.42,310.328 Z M73.544,314 C74.252,314 74.852,313.886 75.344,313.658 C75.836,313.43 76.238,313.133 76.55,312.767 C76.862,312.401 77.09,311.981 77.234,311.507 C77.378,311.033 77.45,310.544 77.45,310.04 C77.45,309.536 77.375,309.047 77.225,308.573 C77.075,308.099 76.841,307.679 76.523,307.313 C76.205,306.947 75.794,306.65 75.29,306.422 C74.786,306.194 74.18,306.08 73.472,306.08 L73.472,306.08 L68.468,306.08 L68.468,306.404 C68.744,306.404 68.882,306.494 68.882,306.674 L68.882,306.674 L68.882,313.406 C68.882,313.586 68.744,313.676 68.468,313.676 L68.468,313.676 L68.468,314 L73.544,314 Z M72.95,312.668 L70.61,312.668 L70.61,307.412 L72.95,307.412 C73.322,307.412 73.676,307.433 74.012,307.475 C74.348,307.517 74.642,307.625 74.894,307.799 C75.146,307.973 75.347,308.231 75.497,308.573 C75.647,308.915 75.722,309.386 75.722,309.986 C75.722,310.586 75.647,311.063 75.497,311.417 C75.347,311.771 75.146,312.041 74.894,312.227 C74.642,312.413 74.348,312.533 74.012,312.587 C73.676,312.641 73.322,312.668 72.95,312.668 L72.95,312.668 Z M84.542,314 C85.25,314 85.85,313.886 86.342,313.658 C86.834,313.43 87.236,313.133 87.548,312.767 C87.86,312.401 88.088,311.981 88.232,311.507 C88.376,311.033 88.448,310.544 88.448,310.04 C88.448,309.536 88.373,309.047 88.223,308.573 C88.073,308.099 87.839,307.679 87.521,307.313 C87.203,306.947 86.792,306.65 86.288,306.422 C85.784,306.194 85.178,306.08 84.47,306.08 L84.47,306.08 L79.466,306.08 L79.466,306.404 C79.742,306.404 79.88,306.494 79.88,306.674 L79.88,306.674 L79.88,313.406 C79.88,313.586 79.742,313.676 79.466,313.676 L79.466,313.676 L79.466,314 L84.542,314 Z M83.948,312.668 L81.608,312.668 L81.608,307.412 L83.948,307.412 C84.32,307.412 84.674,307.433 85.01,307.475 C85.346,307.517 85.64,307.625 85.892,307.799 C86.144,307.973 86.345,308.231 86.495,308.573 C86.645,308.915 86.72,309.386 86.72,309.986 C86.72,310.586 86.645,311.063 86.495,311.417 C86.345,311.771 86.144,312.041 85.892,312.227 C85.64,312.413 85.346,312.533 85.01,312.587 C84.674,312.641 84.32,312.668 83.948,312.668 L83.948,312.668 Z M100.436,314 L100.436,313.676 C100.22,313.676 100.112,313.586 100.112,313.406 L100.112,313.406 L100.112,307.412 L102.452,307.412 C102.548,307.412 102.638,307.436 102.722,307.484 C102.806,307.532 102.848,307.61 102.848,307.718 L102.848,307.718 L103.172,307.718 L103.172,305.648 L102.848,305.648 C102.848,305.816 102.806,305.93 102.722,305.99 C102.638,306.05 102.548,306.08 102.452,306.08 L102.452,306.08 L96.044,306.08 C95.948,306.08 95.858,306.05 95.774,305.99 C95.69,305.93 95.648,305.816 95.648,305.648 L95.648,305.648 L95.324,305.648 L95.324,307.718 L95.648,307.718 C95.648,307.61 95.69,307.532 95.774,307.484 C95.858,307.436 95.948,307.412 96.044,307.412 L96.044,307.412 L98.384,307.412 L98.384,313.406 C98.384,313.502 98.354,313.571 98.294,313.613 C98.234,313.655 98.174,313.676 98.114,313.676 L98.114,313.676 L98.114,314 L100.436,314 Z M107.6,314 L107.6,313.676 C107.528,313.676 107.465,313.655 107.411,313.613 C107.357,313.571 107.33,313.502 107.33,313.406 L107.33,313.406 L107.33,310.688 L112.154,310.688 L112.154,313.406 C112.154,313.502 112.127,313.571 112.073,313.613 C112.019,313.655 111.956,313.676 111.884,313.676 L111.884,313.676 L111.884,314 L114.152,314 L114.152,313.676 C114.08,313.676 114.017,313.655 113.963,313.613 C113.909,313.571 113.882,313.502 113.882,313.406 L113.882,313.406 L113.882,306.674 C113.882,306.578 113.909,306.509 113.963,306.467 C114.017,306.425 114.08,306.404 114.152,306.404 L114.152,306.404 L114.152,306.08 L111.884,306.08 L111.884,306.404 C111.956,306.404 112.019,306.425 112.073,306.467 C112.127,306.509 112.154,306.578 112.154,306.674 L112.154,306.674 L112.154,309.212 L107.33,309.212 L107.33,306.674 C107.33,306.578 107.357,306.509 107.411,306.467 C107.465,306.425 107.528,306.404 107.6,306.404 L107.6,306.404 L107.6,306.08 L105.332,306.08 L105.332,306.404 C105.404,306.404 105.467,306.425 105.521,306.467 C105.575,306.509 105.602,306.578 105.602,306.674 L105.602,306.674 L105.602,313.406 C105.602,313.502 105.575,313.571 105.521,313.613 C105.467,313.655 105.404,313.676 105.332,313.676 L105.332,313.676 L105.332,314 L107.6,314 Z M120.11,314 L120.11,313.676 C119.774,313.676 119.606,313.586 119.606,313.406 L119.606,313.406 L119.606,306.674 C119.606,306.494 119.774,306.404 120.11,306.404 L120.11,306.404 L120.11,306.08 L117.374,306.08 L117.374,306.404 C117.566,306.404 117.698,306.425 117.77,306.467 C117.842,306.509 117.878,306.578 117.878,306.674 L117.878,306.674 L117.878,313.406 C117.878,313.502 117.842,313.571 117.77,313.613 C117.698,313.655 117.566,313.676 117.374,313.676 L117.374,313.676 L117.374,314 L120.11,314 Z M126.608,314.054 C127.016,314.054 127.451,314.024 127.913,313.964 C128.375,313.904 128.798,313.778 129.182,313.586 C129.566,313.394 129.887,313.13 130.145,312.794 C130.403,312.458 130.532,312.026 130.532,311.498 C130.532,310.97 130.385,310.556 130.091,310.256 C129.797,309.956 129.428,309.728 128.984,309.572 C128.54,309.416 128.06,309.305 127.544,309.239 C127.028,309.173 126.548,309.107 126.104,309.041 C125.66,308.975 125.291,308.885 124.997,308.771 C124.703,308.657 124.556,308.468 124.556,308.204 C124.556,308.036 124.604,307.895 124.7,307.781 C124.796,307.667 124.928,307.574 125.096,307.502 C125.264,307.43 125.456,307.379 125.672,307.349 C125.888,307.319 126.116,307.304 126.356,307.304 C126.98,307.304 127.544,307.376 128.048,307.52 C128.552,307.664 128.924,307.838 129.164,308.042 C129.26,308.114 129.314,308.186 129.326,308.258 L129.326,308.258 L129.362,308.474 L129.686,308.582 L130.586,306.89 L130.388,306.692 C130.316,306.728 130.256,306.761 130.208,306.791 C130.16,306.821 130.088,306.836 129.992,306.836 C129.908,306.836 129.779,306.791 129.605,306.701 C129.431,306.611 129.206,306.512 128.93,306.404 C128.654,306.296 128.315,306.197 127.913,306.107 C127.511,306.017 127.028,305.972 126.464,305.972 C125.312,305.972 124.418,306.2 123.782,306.656 C123.146,307.112 122.828,307.724 122.828,308.492 C122.828,309.008 122.975,309.407 123.269,309.689 C123.563,309.971 123.932,310.187 124.376,310.337 C124.82,310.487 125.3,310.595 125.816,310.661 C126.332,310.727 126.812,310.793 127.256,310.859 C127.7,310.925 128.069,311.018 128.363,311.138 C128.657,311.258 128.804,311.45 128.804,311.714 C128.804,311.942 128.72,312.125 128.552,312.263 C128.384,312.401 128.18,312.509 127.94,312.587 C127.7,312.665 127.457,312.716 127.211,312.74 C126.965,312.764 126.758,312.776 126.59,312.776 C126.41,312.776 126.161,312.746 125.843,312.686 C125.525,312.626 125.207,312.545 124.889,312.443 C124.571,312.341 124.298,312.215 124.07,312.065 C123.842,311.915 123.728,311.75 123.728,311.57 C123.728,311.51 123.731,311.453 123.737,311.399 C123.743,311.345 123.746,311.294 123.746,311.246 L123.746,311.246 L123.404,311.156 L122.576,313.172 L122.828,313.352 C122.888,313.28 122.96,313.244 123.044,313.244 C123.092,313.244 123.23,313.289 123.458,313.379 C123.686,313.469 123.965,313.565 124.295,313.667 C124.625,313.769 124.991,313.859 125.393,313.937 C125.795,314.015 126.2,314.054 126.608,314.054 Z M142.934,314 L142.934,313.676 C142.718,313.676 142.61,313.586 142.61,313.406 L142.61,313.406 L142.61,307.412 L144.95,307.412 C145.046,307.412 145.136,307.436 145.22,307.484 C145.304,307.532 145.346,307.61 145.346,307.718 L145.346,307.718 L145.67,307.718 L145.67,305.648 L145.346,305.648 C145.346,305.816 145.304,305.93 145.22,305.99 C145.136,306.05 145.046,306.08 144.95,306.08 L144.95,306.08 L138.542,306.08 C138.446,306.08 138.356,306.05 138.272,305.99 C138.188,305.93 138.146,305.816 138.146,305.648 L138.146,305.648 L137.822,305.648 L137.822,307.718 L138.146,307.718 C138.146,307.61 138.188,307.532 138.272,307.484 C138.356,307.436 138.446,307.412 138.542,307.412 L138.542,307.412 L140.882,307.412 L140.882,313.406 C140.882,313.502 140.852,313.571 140.792,313.613 C140.732,313.655 140.672,313.676 140.612,313.676 L140.612,313.676 L140.612,314 L142.934,314 Z M151.736,314.054 C152.396,314.054 153.017,313.979 153.599,313.829 C154.181,313.679 154.688,313.436 155.12,313.1 C155.552,312.764 155.894,312.341 156.146,311.831 C156.398,311.321 156.524,310.724 156.524,310.04 C156.524,309.356 156.398,308.759 156.146,308.249 C155.894,307.739 155.552,307.316 155.12,306.98 C154.688,306.644 154.181,306.392 153.599,306.224 C153.017,306.056 152.396,305.972 151.736,305.972 C151.076,305.972 150.455,306.056 149.873,306.224 C149.291,306.392 148.784,306.644 148.352,306.98 C147.92,307.316 147.578,307.739 147.326,308.249 C147.074,308.759 146.948,309.356 146.948,310.04 C146.948,310.724 147.074,311.321 147.326,311.831 C147.578,312.341 147.92,312.764 148.352,313.1 C148.784,313.436 149.291,313.679 149.873,313.829 C150.455,313.979 151.076,314.054 151.736,314.054 Z M151.736,312.776 C151.352,312.776 150.977,312.713 150.611,312.587 C150.245,312.461 149.918,312.281 149.63,312.047 C149.342,311.813 149.111,311.528 148.937,311.192 C148.763,310.856 148.676,310.472 148.676,310.04 C148.676,309.608 148.763,309.224 148.937,308.888 C149.111,308.552 149.342,308.267 149.63,308.033 C149.918,307.799 150.245,307.619 150.611,307.493 C150.977,307.367 151.352,307.304 151.736,307.304 C152.12,307.304 152.495,307.367 152.861,307.493 C153.227,307.619 153.554,307.799 153.842,308.033 C154.13,308.267 154.361,308.552 154.535,308.888 C154.709,309.224 154.796,309.608 154.796,310.04 C154.796,310.472 154.709,310.856 154.535,311.192 C154.361,311.528 154.13,311.813 153.842,312.047 C153.554,312.281 153.227,312.461 152.861,312.587 C152.495,312.713 152.12,312.776 151.736,312.776 Z M168.944,314 L168.944,313.676 C168.716,313.676 168.602,313.586 168.602,313.406 L168.602,313.406 L168.602,310.706 L171.356,307.142 C171.488,306.974 171.641,306.809 171.815,306.647 C171.989,306.485 172.148,306.404 172.292,306.404 L172.292,306.404 L172.292,306.08 L169.538,306.08 L169.538,306.404 C169.598,306.404 169.658,306.416 169.718,306.44 C169.778,306.464 169.808,306.524 169.808,306.62 C169.808,306.692 169.781,306.767 169.727,306.845 C169.673,306.923 169.592,307.04 169.484,307.196 L169.484,307.196 L167.882,309.428 L166.064,307.052 C166.004,306.968 165.95,306.896 165.902,306.836 C165.854,306.776 165.83,306.71 165.83,306.638 C165.83,306.566 165.866,306.509 165.938,306.467 C166.01,306.425 166.076,306.404 166.136,306.404 L166.136,306.404 L166.136,306.08 L163.166,306.08 L163.166,306.404 C163.274,306.404 163.388,306.428 163.508,306.476 C163.628,306.524 163.73,306.602 163.814,306.71 L163.814,306.71 L166.874,310.634 L166.874,313.406 C166.874,313.586 166.766,313.676 166.55,313.676 L166.55,313.676 L166.55,314 L168.944,314 Z M178.232,314.054 C178.892,314.054 179.513,313.979 180.095,313.829 C180.677,313.679 181.184,313.436 181.616,313.1 C182.048,312.764 182.39,312.341 182.642,311.831 C182.894,311.321 183.02,310.724 183.02,310.04 C183.02,309.356 182.894,308.759 182.642,308.249 C182.39,307.739 182.048,307.316 181.616,306.98 C181.184,306.644 180.677,306.392 180.095,306.224 C179.513,306.056 178.892,305.972 178.232,305.972 C177.572,305.972 176.951,306.056 176.369,306.224 C175.787,306.392 175.28,306.644 174.848,306.98 C174.416,307.316 174.074,307.739 173.822,308.249 C173.57,308.759 173.444,309.356 173.444,310.04 C173.444,310.724 173.57,311.321 173.822,311.831 C174.074,312.341 174.416,312.764 174.848,313.1 C175.28,313.436 175.787,313.679 176.369,313.829 C176.951,313.979 177.572,314.054 178.232,314.054 Z M178.232,312.776 C177.848,312.776 177.473,312.713 177.107,312.587 C176.741,312.461 176.414,312.281 176.126,312.047 C175.838,311.813 175.607,311.528 175.433,311.192 C175.259,310.856 175.172,310.472 175.172,310.04 C175.172,309.608 175.259,309.224 175.433,308.888 C175.607,308.552 175.838,308.267 176.126,308.033 C176.414,307.799 176.741,307.619 177.107,307.493 C177.473,307.367 177.848,307.304 178.232,307.304 C178.616,307.304 178.991,307.367 179.357,307.493 C179.723,307.619 180.05,307.799 180.338,308.033 C180.626,308.267 180.857,308.552 181.031,308.888 C181.205,309.224 181.292,309.608 181.292,310.04 C181.292,310.472 181.205,310.856 181.031,311.192 C180.857,311.528 180.626,311.813 180.338,312.047 C180.05,312.281 179.723,312.461 179.357,312.587 C178.991,312.713 178.616,312.776 178.232,312.776 Z M189.806,314.054 C190.526,314.054 191.153,313.979 191.687,313.829 C192.221,313.679 192.659,313.472 193.001,313.208 C193.343,312.944 193.598,312.641 193.766,312.299 C193.934,311.957 194.018,311.6 194.018,311.228 L194.018,311.228 L194.018,306.674 C194.018,306.494 194.15,306.404 194.414,306.404 L194.414,306.404 L194.414,306.08 L191.912,306.08 L191.912,306.404 C192.212,306.404 192.362,306.494 192.362,306.674 L192.362,306.674 L192.362,310.796 C192.362,311.372 192.152,311.834 191.732,312.182 C191.312,312.53 190.67,312.704 189.806,312.704 C188.942,312.704 188.3,312.53 187.88,312.182 C187.46,311.834 187.25,311.372 187.25,310.796 L187.25,310.796 L187.25,306.674 C187.25,306.494 187.382,306.404 187.646,306.404 L187.646,306.404 L187.646,306.08 L185.072,306.08 L185.072,306.404 C185.276,306.404 185.414,306.425 185.486,306.467 C185.558,306.509 185.594,306.578 185.594,306.674 L185.594,306.674 L185.594,311.228 C185.594,311.6 185.678,311.957 185.846,312.299 C186.014,312.641 186.269,312.944 186.611,313.208 C186.953,313.472 187.391,313.679 187.925,313.829 C188.459,313.979 189.086,314.054 189.806,314.054 Z M199.544,314 L199.544,313.676 C199.472,313.676 199.397,313.655 199.319,313.613 C199.241,313.571 199.202,313.502 199.202,313.406 L199.202,313.406 L199.202,310.832 L201.704,310.832 L203.126,312.956 C203.306,313.208 203.396,313.394 203.396,313.514 C203.396,313.622 203.318,313.676 203.162,313.676 L203.162,313.676 L203.162,314 L205.916,314 L205.916,313.676 C205.784,313.64 205.661,313.589 205.547,313.523 C205.433,313.457 205.328,313.358 205.232,313.226 L205.232,313.226 L203.468,310.652 C203.72,310.592 203.966,310.505 204.206,310.391 C204.446,310.277 204.665,310.127 204.863,309.941 C205.061,309.755 205.22,309.536 205.34,309.284 C205.46,309.032 205.52,308.744 205.52,308.42 C205.52,307.568 205.22,306.965 204.62,306.611 C204.02,306.257 203.186,306.08 202.118,306.08 L202.118,306.08 L197.15,306.08 L197.15,306.404 C197.366,306.404 197.474,306.494 197.474,306.674 L197.474,306.674 L197.474,313.406 C197.474,313.586 197.366,313.676 197.15,313.676 L197.15,313.676 L197.15,314 L199.544,314 Z M202.082,309.5 L199.238,309.5 L199.238,307.412 L202.082,307.412 C202.694,307.412 203.141,307.499 203.423,307.673 C203.705,307.847 203.846,308.084 203.846,308.384 C203.846,309.128 203.258,309.5 202.082,309.5 L202.082,309.5 Z M74.354,332.054 C74.762,332.054 75.197,332.024 75.659,331.964 C76.121,331.904 76.544,331.778 76.928,331.586 C77.312,331.394 77.633,331.13 77.891,330.794 C78.149,330.458 78.278,330.026 78.278,329.498 C78.278,328.97 78.131,328.556 77.837,328.256 C77.543,327.956 77.174,327.728 76.73,327.572 C76.286,327.416 75.806,327.305 75.29,327.239 C74.774,327.173 74.294,327.107 73.85,327.041 C73.406,326.975 73.037,326.885 72.743,326.771 C72.449,326.657 72.302,326.468 72.302,326.204 C72.302,326.036 72.35,325.895 72.446,325.781 C72.542,325.667 72.674,325.574 72.842,325.502 C73.01,325.43 73.202,325.379 73.418,325.349 C73.634,325.319 73.862,325.304 74.102,325.304 C74.726,325.304 75.29,325.376 75.794,325.52 C76.298,325.664 76.67,325.838 76.91,326.042 C77.006,326.114 77.06,326.186 77.072,326.258 L77.072,326.258 L77.108,326.474 L77.432,326.582 L78.332,324.89 L78.134,324.692 C78.062,324.728 78.002,324.761 77.954,324.791 C77.906,324.821 77.834,324.836 77.738,324.836 C77.654,324.836 77.525,324.791 77.351,324.701 C77.177,324.611 76.952,324.512 76.676,324.404 C76.4,324.296 76.061,324.197 75.659,324.107 C75.257,324.017 74.774,323.972 74.21,323.972 C73.058,323.972 72.164,324.2 71.528,324.656 C70.892,325.112 70.574,325.724 70.574,326.492 C70.574,327.008 70.721,327.407 71.015,327.689 C71.309,327.971 71.678,328.187 72.122,328.337 C72.566,328.487 73.046,328.595 73.562,328.661 C74.078,328.727 74.558,328.793 75.002,328.859 C75.446,328.925 75.815,329.018 76.109,329.138 C76.403,329.258 76.55,329.45 76.55,329.714 C76.55,329.942 76.466,330.125 76.298,330.263 C76.13,330.401 75.926,330.509 75.686,330.587 C75.446,330.665 75.203,330.716 74.957,330.74 C74.711,330.764 74.504,330.776 74.336,330.776 C74.156,330.776 73.907,330.746 73.589,330.686 C73.271,330.626 72.953,330.545 72.635,330.443 C72.317,330.341 72.044,330.215 71.816,330.065 C71.588,329.915 71.474,329.75 71.474,329.57 C71.474,329.51 71.477,329.453 71.483,329.399 C71.489,329.345 71.492,329.294 71.492,329.246 L71.492,329.246 L71.15,329.156 L70.322,331.172 L70.574,331.352 C70.634,331.28 70.706,331.244 70.79,331.244 C70.838,331.244 70.976,331.289 71.204,331.379 C71.432,331.469 71.711,331.565 72.041,331.667 C72.371,331.769 72.737,331.859 73.139,331.937 C73.541,332.015 73.946,332.054 74.354,332.054 Z M85.712,332 L85.712,331.676 C85.484,331.676 85.37,331.586 85.37,331.406 L85.37,331.406 L85.37,328.706 L88.124,325.142 C88.256,324.974 88.409,324.809 88.583,324.647 C88.757,324.485 88.916,324.404 89.06,324.404 L89.06,324.404 L89.06,324.08 L86.306,324.08 L86.306,324.404 C86.366,324.404 86.426,324.416 86.486,324.44 C86.546,324.464 86.576,324.524 86.576,324.62 C86.576,324.692 86.549,324.767 86.495,324.845 C86.441,324.923 86.36,325.04 86.252,325.196 L86.252,325.196 L84.65,327.428 L82.832,325.052 C82.772,324.968 82.718,324.896 82.67,324.836 C82.622,324.776 82.598,324.71 82.598,324.638 C82.598,324.566 82.634,324.509 82.706,324.467 C82.778,324.425 82.844,324.404 82.904,324.404 L82.904,324.404 L82.904,324.08 L79.934,324.08 L79.934,324.404 C80.042,324.404 80.156,324.428 80.276,324.476 C80.396,324.524 80.498,324.602 80.582,324.71 L80.582,324.71 L83.642,328.634 L83.642,331.406 C83.642,331.586 83.534,331.676 83.318,331.676 L83.318,331.676 L83.318,332 L85.712,332 Z M93.218,332 L93.218,331.676 C93.014,331.676 92.912,331.586 92.912,331.406 L92.912,331.406 L92.912,326.348 L92.93,326.348 L95.828,332 L95.972,332 L99.032,326.348 L99.068,326.348 L99.068,331.406 C99.104,331.586 98.996,331.676 98.744,331.676 L98.744,331.676 L98.744,332 L100.832,332 L100.832,331.676 C100.772,331.676 100.715,331.655 100.661,331.613 C100.607,331.571 100.58,331.502 100.58,331.406 L100.58,331.406 L100.58,324.638 C100.58,324.542 100.607,324.479 100.661,324.449 C100.715,324.419 100.772,324.404 100.832,324.404 L100.832,324.404 L100.832,324.08 L98.294,324.08 L98.294,324.404 C98.39,324.404 98.438,324.458 98.438,324.566 C98.438,324.602 98.414,324.665 98.366,324.755 C98.318,324.845 98.252,324.962 98.168,325.106 L98.168,325.106 L95.954,329.138 L93.758,325.088 C93.674,324.944 93.611,324.833 93.569,324.755 C93.527,324.677 93.506,324.614 93.506,324.566 C93.506,324.458 93.566,324.404 93.686,324.404 L93.686,324.404 L93.686,324.08 L91.184,324.08 L91.184,324.404 C91.268,324.404 91.325,324.422 91.355,324.458 C91.385,324.494 91.4,324.596 91.4,324.764 L91.4,324.764 L91.4,331.352 C91.4,331.484 91.379,331.568 91.337,331.604 C91.295,331.64 91.244,331.664 91.184,331.676 L91.184,331.676 L91.184,332 L93.218,332 Z M106.268,332 L106.268,331.676 C106.016,331.676 105.89,331.586 105.89,331.406 L105.89,331.406 L105.89,328.706 L108.95,328.706 C109.922,328.706 110.651,328.541 111.137,328.211 C111.623,327.881 111.866,327.284 111.866,326.42 C111.866,325.556 111.623,324.95 111.137,324.602 C110.651,324.254 109.922,324.08 108.95,324.08 L108.95,324.08 L103.712,324.08 L103.712,324.404 C104.012,324.404 104.162,324.494 104.162,324.674 L104.162,324.674 L104.162,331.406 C104.162,331.586 104.012,331.676 103.712,331.676 L103.712,331.676 L103.712,332 L106.268,332 Z M108.914,327.374 L105.89,327.374 L105.89,325.412 L108.914,325.412 C109.262,325.412 109.553,325.487 109.787,325.637 C110.021,325.787 110.138,326.048 110.138,326.42 C110.138,326.804 110.021,327.059 109.787,327.185 C109.553,327.311 109.262,327.374 108.914,327.374 L108.914,327.374 Z M118.202,332 L118.202,331.676 C117.986,331.676 117.878,331.586 117.878,331.406 L117.878,331.406 L117.878,325.412 L120.218,325.412 C120.314,325.412 120.404,325.436 120.488,325.484 C120.572,325.532 120.614,325.61 120.614,325.718 L120.614,325.718 L120.938,325.718 L120.938,323.648 L120.614,323.648 C120.614,323.816 120.572,323.93 120.488,323.99 C120.404,324.05 120.314,324.08 120.218,324.08 L120.218,324.08 L113.81,324.08 C113.714,324.08 113.624,324.05 113.54,323.99 C113.456,323.93 113.414,323.816 113.414,323.648 L113.414,323.648 L113.09,323.648 L113.09,325.718 L113.414,325.718 C113.414,325.61 113.456,325.532 113.54,325.484 C113.624,325.436 113.714,325.412 113.81,325.412 L113.81,325.412 L116.15,325.412 L116.15,331.406 C116.15,331.502 116.12,331.571 116.06,331.613 C116,331.655 115.94,331.676 115.88,331.676 L115.88,331.676 L115.88,332 L118.202,332 Z M127.004,332.054 C127.664,332.054 128.285,331.979 128.867,331.829 C129.449,331.679 129.956,331.436 130.388,331.1 C130.82,330.764 131.162,330.341 131.414,329.831 C131.666,329.321 131.792,328.724 131.792,328.04 C131.792,327.356 131.666,326.759 131.414,326.249 C131.162,325.739 130.82,325.316 130.388,324.98 C129.956,324.644 129.449,324.392 128.867,324.224 C128.285,324.056 127.664,323.972 127.004,323.972 C126.344,323.972 125.723,324.056 125.141,324.224 C124.559,324.392 124.052,324.644 123.62,324.98 C123.188,325.316 122.846,325.739 122.594,326.249 C122.342,326.759 122.216,327.356 122.216,328.04 C122.216,328.724 122.342,329.321 122.594,329.831 C122.846,330.341 123.188,330.764 123.62,331.1 C124.052,331.436 124.559,331.679 125.141,331.829 C125.723,331.979 126.344,332.054 127.004,332.054 Z M127.004,330.776 C126.62,330.776 126.245,330.713 125.879,330.587 C125.513,330.461 125.186,330.281 124.898,330.047 C124.61,329.813 124.379,329.528 124.205,329.192 C124.031,328.856 123.944,328.472 123.944,328.04 C123.944,327.608 124.031,327.224 124.205,326.888 C124.379,326.552 124.61,326.267 124.898,326.033 C125.186,325.799 125.513,325.619 125.879,325.493 C126.245,325.367 126.62,325.304 127.004,325.304 C127.388,325.304 127.763,325.367 128.129,325.493 C128.495,325.619 128.822,325.799 129.11,326.033 C129.398,326.267 129.629,326.552 129.803,326.888 C129.977,327.224 130.064,327.608 130.064,328.04 C130.064,328.472 129.977,328.856 129.803,329.192 C129.629,329.528 129.398,329.813 129.11,330.047 C128.822,330.281 128.495,330.461 128.129,330.587 C127.763,330.713 127.388,330.776 127.004,330.776 Z M136.22,332 L136.22,331.676 C136.016,331.676 135.914,331.586 135.914,331.406 L135.914,331.406 L135.914,326.348 L135.932,326.348 L138.83,332 L138.974,332 L142.034,326.348 L142.07,326.348 L142.07,331.406 C142.106,331.586 141.998,331.676 141.746,331.676 L141.746,331.676 L141.746,332 L143.834,332 L143.834,331.676 C143.774,331.676 143.717,331.655 143.663,331.613 C143.609,331.571 143.582,331.502 143.582,331.406 L143.582,331.406 L143.582,324.638 C143.582,324.542 143.609,324.479 143.663,324.449 C143.717,324.419 143.774,324.404 143.834,324.404 L143.834,324.404 L143.834,324.08 L141.296,324.08 L141.296,324.404 C141.392,324.404 141.44,324.458 141.44,324.566 C141.44,324.602 141.416,324.665 141.368,324.755 C141.32,324.845 141.254,324.962 141.17,325.106 L141.17,325.106 L138.956,329.138 L136.76,325.088 C136.676,324.944 136.613,324.833 136.571,324.755 C136.529,324.677 136.508,324.614 136.508,324.566 C136.508,324.458 136.568,324.404 136.688,324.404 L136.688,324.404 L136.688,324.08 L134.186,324.08 L134.186,324.404 C134.27,324.404 134.327,324.422 134.357,324.458 C134.387,324.494 134.402,324.596 134.402,324.764 L134.402,324.764 L134.402,331.352 C134.402,331.484 134.381,331.568 134.339,331.604 C134.297,331.64 134.246,331.664 134.186,331.676 L134.186,331.676 L134.186,332 L136.22,332 Z M154.76,332 L154.76,331.676 C154.508,331.676 154.382,331.586 154.382,331.406 L154.382,331.406 L154.382,328.706 L157.442,328.706 C158.414,328.706 159.143,328.541 159.629,328.211 C160.115,327.881 160.358,327.284 160.358,326.42 C160.358,325.556 160.115,324.95 159.629,324.602 C159.143,324.254 158.414,324.08 157.442,324.08 L157.442,324.08 L152.204,324.08 L152.204,324.404 C152.504,324.404 152.654,324.494 152.654,324.674 L152.654,324.674 L152.654,331.406 C152.654,331.586 152.504,331.676 152.204,331.676 L152.204,331.676 L152.204,332 L154.76,332 Z M157.406,327.374 L154.382,327.374 L154.382,325.412 L157.406,325.412 C157.754,325.412 158.045,325.487 158.279,325.637 C158.513,325.787 158.63,326.048 158.63,326.42 C158.63,326.804 158.513,327.059 158.279,327.185 C158.045,327.311 157.754,327.374 157.406,327.374 L157.406,327.374 Z M165.362,332 L165.362,331.676 C165.026,331.676 164.858,331.586 164.858,331.406 L164.858,331.406 L164.858,324.674 C164.858,324.494 165.026,324.404 165.362,324.404 L165.362,324.404 L165.362,324.08 L162.626,324.08 L162.626,324.404 C162.818,324.404 162.95,324.425 163.022,324.467 C163.094,324.509 163.13,324.578 163.13,324.674 L163.13,324.674 L163.13,331.406 C163.13,331.502 163.094,331.571 163.022,331.613 C162.95,331.655 162.818,331.676 162.626,331.676 L162.626,331.676 L162.626,332 L165.362,332 Z M176.252,332.18 L176.252,330.29 L175.928,330.29 C175.928,330.41 175.88,330.503 175.784,330.569 C175.688,330.635 175.568,330.668 175.424,330.668 L175.424,330.668 L170.564,330.668 L170.564,324.674 C170.564,324.494 170.702,324.404 170.978,324.404 L170.978,324.404 L170.978,324.08 L168.368,324.08 L168.368,324.404 C168.68,324.404 168.836,324.494 168.836,324.674 L168.836,324.674 L168.836,331.406 C168.836,331.586 168.68,331.676 168.368,331.676 L168.368,331.676 L168.368,332 L175.424,332 C175.568,332 175.688,332.006 175.784,332.018 C175.88,332.03 175.928,332.084 175.928,332.18 L175.928,332.18 L176.252,332.18 Z M185.918,332.198 L185.918,330.308 L185.594,330.308 C185.594,330.416 185.546,330.503 185.45,330.569 C185.354,330.635 185.234,330.668 185.09,330.668 L185.09,330.668 L180.482,330.668 L180.482,328.544 L183.11,328.544 C183.35,328.544 183.536,328.559 183.668,328.589 C183.8,328.619 183.848,328.7 183.812,328.832 L183.812,328.832 L184.172,328.832 L184.172,326.924 L183.848,326.924 C183.848,327.056 183.8,327.137 183.704,327.167 C183.608,327.197 183.458,327.212 183.254,327.212 L183.254,327.212 L180.482,327.212 L180.482,325.412 L184.874,325.412 C185.246,325.412 185.432,325.526 185.432,325.754 L185.432,325.754 L185.756,325.754 L185.756,323.756 L185.432,323.756 C185.432,323.972 185.246,324.08 184.874,324.08 L184.874,324.08 L178.484,324.08 L178.484,324.404 C178.544,324.404 178.604,324.425 178.664,324.467 C178.724,324.509 178.754,324.578 178.754,324.674 L178.754,324.674 L178.754,331.406 C178.754,331.502 178.724,331.571 178.664,331.613 C178.604,331.655 178.544,331.676 178.484,331.676 L178.484,331.676 L178.484,332 L185.09,332 C185.234,332 185.354,332.006 185.45,332.018 C185.546,332.03 185.594,332.09 185.594,332.198 L185.594,332.198 L185.918,332.198 Z M189.752,332.054 C190.1,332.054 190.4,331.937 190.652,331.703 C190.904,331.469 191.03,331.178 191.03,330.83 C191.03,330.482 190.904,330.182 190.652,329.93 C190.4,329.678 190.1,329.552 189.752,329.552 C189.404,329.552 189.104,329.678 188.852,329.93 C188.6,330.182 188.474,330.482 188.474,330.83 C188.474,331.178 188.6,331.469 188.852,331.703 C189.104,331.937 189.404,332.054 189.752,332.054 Z" id="Talkaboutacleansing.Addthistoyoursymptompile." fill="#000000" fill-rule="nonzero"></path>
    </g>
</svg>