<?xml version="1.0" encoding="UTF-8"?>
<svg width="262px" height="360px" viewBox="0 0 262 360" version="1.1" xmlns="http://www.w3.org/2000/svg" xmlns:xlink="http://www.w3.org/1999/xlink">
    <title>Soap</title>
    <g id="Soap" stroke="none" stroke-width="1" fill="none" fill-rule="evenodd">
        <g id="Group" transform="translate(9.000000, 9.000000)" fill="#FFFFFF" stroke="#000000" stroke-width="3">
            <g id="Rectangle">
                <rect x="1.5" y="1.5" width="239" height="337" rx="8"></rect>
            </g>
        </g>
        <path d="M53.904,279 L53.904,278.712 C53.6053333,278.712 53.456,278.616 53.456,278.424 L53.456,278.424 L53.456,273.096 L53.488,273.096 L56.64,279 L56.688,279 L59.904,273.112 L59.936,273.112 L59.936,278.424 C59.936,278.616 59.792,278.712 59.504,278.712 L59.504,278.712 L59.504,279 L62.016,279 L62.016,278.712 C61.9306667,278.712 61.856,278.688 61.792,278.64 C61.728,278.592 61.696,278.52 61.696,278.424 L61.696,278.424 L61.696,271.128 C61.696,271.032 61.728,270.965333 61.792,270.928 C61.856,270.890667 61.9306667,270.872 62.016,270.872 L62.016,270.872 L62.016,270.584 L59.056,270.584 L59.056,270.872 C59.1946667,270.872 59.264,270.930667 59.264,271.048 C59.264,271.112 59.2453333,271.184 59.208,271.264 C59.1706667,271.344 59.1146667,271.453333 59.04,271.592 L59.04,271.592 L56.736,275.704 L54.448,271.544 C54.3946667,271.448 54.3466667,271.357333 54.304,271.272 C54.2613333,271.186667 54.24,271.117333 54.24,271.064 C54.24,271 54.2693333,270.952 54.328,270.92 C54.3866667,270.888 54.4426667,270.872 54.496,270.872 L54.496,270.872 L54.496,270.584 L51.504,270.584 L51.504,270.872 C51.5893333,270.872 51.664,270.890667 51.728,270.928 C51.792,270.965333 51.824,271.032 51.824,271.128 L51.824,271.128 L51.824,278.424 C51.824,278.52 51.792,278.592 51.728,278.64 C51.664,278.688 51.5893333,278.712 51.504,278.712 L51.504,278.712 L51.504,279 L53.904,279 Z M68.304,279.048 C68.8906667,279.048 69.4426667,278.981333 69.96,278.848 C70.4773333,278.714667 70.928,278.498667 71.312,278.2 C71.696,277.901333 72,277.525333 72.224,277.072 C72.448,276.618667 72.56,276.088 72.56,275.48 C72.56,274.872 72.448,274.341333 72.224,273.888 C72,273.434667 71.696,273.058667 71.312,272.76 C70.928,272.461333 70.4773333,272.237333 69.96,272.088 C69.4426667,271.938667 68.8906667,271.864 68.304,271.864 C67.7173333,271.864 67.1653333,271.938667 66.648,272.088 C66.1306667,272.237333 65.68,272.461333 65.296,272.76 C64.912,273.058667 64.608,273.434667 64.384,273.888 C64.16,274.341333 64.048,274.872 64.048,275.48 C64.048,276.088 64.16,276.618667 64.384,277.072 C64.608,277.525333 64.912,277.901333 65.296,278.2 C65.68,278.498667 66.1306667,278.714667 66.648,278.848 C67.1653333,278.981333 67.7173333,279.048 68.304,279.048 Z M68.304,277.912 C67.9626667,277.912 67.6293333,277.856 67.304,277.744 C66.9786667,277.632 66.688,277.472 66.432,277.264 C66.176,277.056 65.9706667,276.802667 65.816,276.504 C65.6613333,276.205333 65.584,275.864 65.584,275.48 C65.584,275.096 65.6613333,274.754667 65.816,274.456 C65.9706667,274.157333 66.176,273.904 66.432,273.696 C66.688,273.488 66.9786667,273.328 67.304,273.216 C67.6293333,273.104 67.9626667,273.048 68.304,273.048 C68.6453333,273.048 68.9786667,273.104 69.304,273.216 C69.6293333,273.328 69.92,273.488 70.176,273.696 C70.432,273.904 70.6373333,274.157333 70.792,274.456 C70.9466667,274.754667 71.024,275.096 71.024,275.48 C71.024,275.864 70.9466667,276.205333 70.792,276.504 C70.6373333,276.802667 70.432,277.056 70.176,277.264 C69.92,277.472 69.6293333,277.632 69.304,277.744 C68.9786667,277.856 68.6453333,277.912 68.304,277.912 Z M77.52,279.048 C77.8826667,279.048 78.2693333,279.021333 78.68,278.968 C79.0906667,278.914667 79.4666667,278.802667 79.808,278.632 C80.1493333,278.461333 80.4346667,278.226667 80.664,277.928 C80.8933333,277.629333 81.008,277.245333 81.008,276.776 C81.008,276.306667 80.8773333,275.938667 80.616,275.672 C80.3546667,275.405333 80.0266667,275.202667 79.632,275.064 C79.2373333,274.925333 78.8106667,274.826667 78.352,274.768 C77.8933333,274.709333 77.4666667,274.650667 77.072,274.592 C76.6773333,274.533333 76.3493333,274.453333 76.088,274.352 C75.8266667,274.250667 75.696,274.082667 75.696,273.848 C75.696,273.698667 75.7386667,273.573333 75.824,273.472 C75.9093333,273.370667 76.0266667,273.288 76.176,273.224 C76.3253333,273.16 76.496,273.114667 76.688,273.088 C76.88,273.061333 77.0826667,273.048 77.296,273.048 C77.8506667,273.048 78.352,273.112 78.8,273.24 C79.248,273.368 79.5786667,273.522667 79.792,273.704 C79.8773333,273.768 79.9253333,273.832 79.936,273.896 L79.936,273.896 L79.968,274.088 L80.256,274.184 L81.056,272.68 L80.88,272.504 C80.816,272.536 80.7626667,272.565333 80.72,272.592 C80.6773333,272.618667 80.6133333,272.632 80.528,272.632 C80.4533333,272.632 80.3386667,272.592 80.184,272.512 C80.0293333,272.432 79.8293333,272.344 79.584,272.248 C79.3386667,272.152 79.0373333,272.064 78.68,271.984 C78.3226667,271.904 77.8933333,271.864 77.392,271.864 C76.368,271.864 75.5733333,272.066667 75.008,272.472 C74.4426667,272.877333 74.16,273.421333 74.16,274.104 C74.16,274.562667 74.2906667,274.917333 74.552,275.168 C74.8133333,275.418667 75.1413333,275.610667 75.536,275.744 C75.9306667,275.877333 76.3573333,275.973333 76.816,276.032 C77.2746667,276.090667 77.7013333,276.149333 78.096,276.208 C78.4906667,276.266667 78.8186667,276.349333 79.08,276.456 C79.3413333,276.562667 79.472,276.733333 79.472,276.968 C79.472,277.170667 79.3973333,277.333333 79.248,277.456 C79.0986667,277.578667 78.9173333,277.674667 78.704,277.744 C78.4906667,277.813333 78.2746667,277.858667 78.056,277.88 C77.8373333,277.901333 77.6533333,277.912 77.504,277.912 C77.344,277.912 77.1226667,277.885333 76.84,277.832 C76.5573333,277.778667 76.2746667,277.706667 75.992,277.616 C75.7093333,277.525333 75.4666667,277.413333 75.264,277.28 C75.0613333,277.146667 74.96,277 74.96,276.84 C74.96,276.786667 74.9626667,276.736 74.968,276.688 C74.9733333,276.64 74.976,276.594667 74.976,276.552 L74.976,276.552 L74.672,276.472 L73.936,278.264 L74.16,278.424 C74.2133333,278.36 74.2773333,278.328 74.352,278.328 C74.3946667,278.328 74.5173333,278.368 74.72,278.448 C74.9226667,278.528 75.1706667,278.613333 75.464,278.704 C75.7573333,278.794667 76.0826667,278.874667 76.44,278.944 C76.7973333,279.013333 77.1573333,279.048 77.52,279.048 Z M87.152,279 L87.152,278.712 C86.96,278.712 86.864,278.632 86.864,278.472 L86.864,278.472 L86.864,273.144 L88.944,273.144 C89.0293333,273.144 89.1093333,273.165333 89.184,273.208 C89.2586667,273.250667 89.296,273.32 89.296,273.416 L89.296,273.416 L89.584,273.416 L89.584,271.576 L89.296,271.576 C89.296,271.725333 89.2586667,271.826667 89.184,271.88 C89.1093333,271.933333 89.0293333,271.96 88.944,271.96 L88.944,271.96 L83.248,271.96 C83.1626667,271.96 83.0826667,271.933333 83.008,271.88 C82.9333333,271.826667 82.896,271.725333 82.896,271.576 L82.896,271.576 L82.608,271.576 L82.608,273.416 L82.896,273.416 C82.896,273.32 82.9333333,273.250667 83.008,273.208 C83.0826667,273.165333 83.1626667,273.144 83.248,273.144 L83.248,273.144 L85.328,273.144 L85.328,278.472 C85.328,278.557333 85.3013333,278.618667 85.248,278.656 C85.1946667,278.693333 85.1413333,278.712 85.088,278.712 L85.088,278.712 L85.088,279 L87.152,279 Z M102.896,279.176 L102.896,277.496 L102.608,277.496 C102.608,277.592 102.565333,277.669333 102.48,277.728 C102.394667,277.786667 102.288,277.816 102.16,277.816 L102.16,277.816 L98.064,277.816 L98.064,275.928 L100.4,275.928 C100.613333,275.928 100.778667,275.941333 100.896,275.968 C101.013333,275.994667 101.056,276.066667 101.024,276.184 L101.024,276.184 L101.344,276.184 L101.344,274.488 L101.056,274.488 C101.056,274.605333 101.013333,274.677333 100.928,274.704 C100.842667,274.730667 100.709333,274.744 100.528,274.744 L100.528,274.744 L98.064,274.744 L98.064,273.144 L101.968,273.144 C102.298667,273.144 102.464,273.245333 102.464,273.448 L102.464,273.448 L102.752,273.448 L102.752,271.672 L102.464,271.672 C102.464,271.864 102.298667,271.96 101.968,271.96 L101.968,271.96 L96.288,271.96 L96.288,272.248 C96.3413333,272.248 96.3946667,272.266667 96.448,272.304 C96.5013333,272.341333 96.528,272.402667 96.528,272.488 L96.528,272.488 L96.528,278.472 C96.528,278.557333 96.5013333,278.618667 96.448,278.656 C96.3946667,278.693333 96.3413333,278.712 96.288,278.712 L96.288,278.712 L96.288,279 L102.16,279 C102.288,279 102.394667,279.005333 102.48,279.016 C102.565333,279.026667 102.608,279.08 102.608,279.176 L102.608,279.176 L102.896,279.176 Z M107.312,279 L107.312,278.712 C107.216,278.712 107.130667,278.693333 107.056,278.656 C106.981333,278.618667 106.944,278.557333 106.944,278.472 L106.944,278.472 L106.944,276.024 L109.76,276.024 C109.941333,276.024 110.053333,276.045333 110.096,276.088 C110.138667,276.130667 110.165333,276.194667 110.176,276.28 L110.176,276.28 L110.464,276.28 L110.464,274.6 L110.176,274.6 C110.165333,274.685333 110.138667,274.746667 110.096,274.784 C110.053333,274.821333 109.941333,274.84 109.76,274.84 L109.76,274.84 L106.944,274.84 L106.944,273.144 L111.28,273.144 C111.461333,273.144 111.589333,273.168 111.664,273.216 C111.738667,273.264 111.776,273.314667 111.776,273.368 L111.776,273.368 L112.064,273.368 L112.064,271.672 L111.776,271.672 C111.776,271.757333 111.738667,271.826667 111.664,271.88 C111.589333,271.933333 111.461333,271.96 111.28,271.96 L111.28,271.96 L105.072,271.96 L105.072,272.248 C105.296,272.248 105.408,272.328 105.408,272.488 L105.408,272.488 L105.408,278.472 C105.408,278.632 105.306667,278.712 105.104,278.712 L105.104,278.712 L105.104,279 L107.312,279 Z M116.208,279 L116.208,278.712 C116.112,278.712 116.026667,278.693333 115.952,278.656 C115.877333,278.618667 115.84,278.557333 115.84,278.472 L115.84,278.472 L115.84,276.024 L118.656,276.024 C118.837333,276.024 118.949333,276.045333 118.992,276.088 C119.034667,276.130667 119.061333,276.194667 119.072,276.28 L119.072,276.28 L119.36,276.28 L119.36,274.6 L119.072,274.6 C119.061333,274.685333 119.034667,274.746667 118.992,274.784 C118.949333,274.821333 118.837333,274.84 118.656,274.84 L118.656,274.84 L115.84,274.84 L115.84,273.144 L120.176,273.144 C120.357333,273.144 120.485333,273.168 120.56,273.216 C120.634667,273.264 120.672,273.314667 120.672,273.368 L120.672,273.368 L120.96,273.368 L120.96,271.672 L120.672,271.672 C120.672,271.757333 120.634667,271.826667 120.56,271.88 C120.485333,271.933333 120.357333,271.96 120.176,271.96 L120.176,271.96 L113.968,271.96 L113.968,272.248 C114.192,272.248 114.304,272.328 114.304,272.488 L114.304,272.488 L114.304,278.472 C114.304,278.632 114.202667,278.712 114,278.712 L114,278.712 L114,279 L116.208,279 Z M129.584,279.176 L129.584,277.496 L129.296,277.496 C129.296,277.592 129.253333,277.669333 129.168,277.728 C129.082667,277.786667 128.976,277.816 128.848,277.816 L128.848,277.816 L124.752,277.816 L124.752,275.928 L127.088,275.928 C127.301333,275.928 127.466667,275.941333 127.584,275.968 C127.701333,275.994667 127.744,276.066667 127.712,276.184 L127.712,276.184 L128.032,276.184 L128.032,274.488 L127.744,274.488 C127.744,274.605333 127.701333,274.677333 127.616,274.704 C127.530667,274.730667 127.397333,274.744 127.216,274.744 L127.216,274.744 L124.752,274.744 L124.752,273.144 L128.656,273.144 C128.986667,273.144 129.152,273.245333 129.152,273.448 L129.152,273.448 L129.44,273.448 L129.44,271.672 L129.152,271.672 C129.152,271.864 128.986667,271.96 128.656,271.96 L128.656,271.96 L122.976,271.96 L122.976,272.248 C123.029333,272.248 123.082667,272.266667 123.136,272.304 C123.189333,272.341333 123.216,272.402667 123.216,272.488 L123.216,272.488 L123.216,278.472 C123.216,278.557333 123.189333,278.618667 123.136,278.656 C123.082667,278.693333 123.029333,278.712 122.976,278.712 L122.976,278.712 L122.976,279 L128.848,279 C128.976,279 129.082667,279.005333 129.168,279.016 C129.253333,279.026667 129.296,279.08 129.296,279.176 L129.296,279.176 L129.584,279.176 Z M135.072,279.048 C135.552,279.048 135.986667,279.005333 136.376,278.92 C136.765333,278.834667 137.106667,278.730667 137.4,278.608 C137.693333,278.485333 137.936,278.376 138.128,278.28 C138.32,278.184 138.458667,278.136 138.544,278.136 C138.597333,278.136 138.688,278.162667 138.816,278.216 L138.816,278.216 L138.976,278.136 L137.792,276.44 L137.616,276.6 C137.626667,276.642667 137.632,276.696 137.632,276.76 L137.632,276.76 L137.632,276.888 C137.632,276.984 137.554667,277.090667 137.4,277.208 C137.245333,277.325333 137.045333,277.434667 136.8,277.536 C136.554667,277.637333 136.282667,277.725333 135.984,277.8 C135.685333,277.874667 135.392,277.912 135.104,277.912 C134.794667,277.912 134.490667,277.856 134.192,277.744 C133.893333,277.632 133.626667,277.466667 133.392,277.248 C133.157333,277.029333 132.968,276.768 132.824,276.464 C132.68,276.16 132.608,275.816 132.608,275.432 C132.608,275.048 132.672,274.706667 132.8,274.408 C132.928,274.109333 133.109333,273.858667 133.344,273.656 C133.578667,273.453333 133.853333,273.301333 134.168,273.2 C134.482667,273.098667 134.832,273.048 135.216,273.048 C135.536,273.048 135.829333,273.077333 136.096,273.136 C136.362667,273.194667 136.594667,273.266667 136.792,273.352 C136.989333,273.437333 137.141333,273.525333 137.248,273.616 C137.354667,273.706667 137.408,273.778667 137.408,273.832 C137.408,273.864 137.410667,273.890667 137.416,273.912 C137.421333,273.933333 137.424,273.954667 137.424,273.976 L137.424,273.976 L137.6,274.104 L138.656,272.584 L138.464,272.472 C138.421333,272.493333 138.381333,272.52 138.344,272.552 C138.306667,272.584 138.261333,272.6 138.208,272.6 C138.133333,272.6 138.010667,272.562667 137.84,272.488 C137.669333,272.413333 137.456,272.328 137.2,272.232 C136.944,272.136 136.648,272.050667 136.312,271.976 C135.976,271.901333 135.605333,271.864 135.2,271.864 C134.677333,271.864 134.168,271.938667 133.672,272.088 C133.176,272.237333 132.736,272.464 132.352,272.768 C131.968,273.072 131.658667,273.448 131.424,273.896 C131.189333,274.344 131.072,274.866667 131.072,275.464 C131.072,276.061333 131.189333,276.586667 131.424,277.04 C131.658667,277.493333 131.962667,277.872 132.336,278.176 C132.709333,278.48 133.136,278.701333 133.616,278.84 C134.096,278.978667 134.581333,279.048 135.072,279.048 Z M144.512,279 L144.512,278.712 C144.32,278.712 144.224,278.632 144.224,278.472 L144.224,278.472 L144.224,273.144 L146.304,273.144 C146.389333,273.144 146.469333,273.165333 146.544,273.208 C146.618667,273.250667 146.656,273.32 146.656,273.416 L146.656,273.416 L146.944,273.416 L146.944,271.576 L146.656,271.576 C146.656,271.725333 146.618667,271.826667 146.544,271.88 C146.469333,271.933333 146.389333,271.96 146.304,271.96 L146.304,271.96 L140.608,271.96 C140.522667,271.96 140.442667,271.933333 140.368,271.88 C140.293333,271.826667 140.256,271.725333 140.256,271.576 L140.256,271.576 L139.968,271.576 L139.968,273.416 L140.256,273.416 C140.256,273.32 140.293333,273.250667 140.368,273.208 C140.442667,273.165333 140.522667,273.144 140.608,273.144 L140.608,273.144 L142.688,273.144 L142.688,278.472 C142.688,278.557333 142.661333,278.618667 142.608,278.656 C142.554667,278.693333 142.501333,278.712 142.448,278.712 L142.448,278.712 L142.448,279 L144.512,279 Z M151.328,279 L151.328,278.712 C151.029333,278.712 150.88,278.632 150.88,278.472 L150.88,278.472 L150.88,272.488 C150.88,272.328 151.029333,272.248 151.328,272.248 L151.328,272.248 L151.328,271.96 L148.896,271.96 L148.896,272.248 C149.066667,272.248 149.184,272.266667 149.248,272.304 C149.312,272.341333 149.344,272.402667 149.344,272.488 L149.344,272.488 L149.344,278.472 C149.344,278.557333 149.312,278.618667 149.248,278.656 C149.184,278.693333 149.066667,278.712 148.896,278.712 L148.896,278.712 L148.896,279 L151.328,279 Z M158.496,279 L158.496,278.712 C158.304,278.68 158.208,278.632 158.208,278.568 C158.208,278.514667 158.237333,278.44 158.296,278.344 C158.354667,278.248 158.442667,278.061333 158.56,277.784 L158.56,277.784 L160.896,272.616 C161.013333,272.370667 161.146667,272.248 161.296,272.248 L161.296,272.248 L161.296,271.96 L159.2,271.96 L159.2,272.248 C159.349333,272.248 159.429333,272.312 159.44,272.44 C159.450667,272.514667 159.424,272.616 159.36,272.744 C159.296,272.872 159.205333,273.064 159.088,273.32 L159.088,273.32 L157.344,277.192 L155.504,273.208 C155.429333,273.048 155.362667,272.901333 155.304,272.768 C155.245333,272.634667 155.216,272.530667 155.216,272.456 C155.216,272.317333 155.28,272.248 155.408,272.248 L155.408,272.248 L155.408,271.96 L153.152,271.96 L153.152,272.248 C153.216,272.248 153.282667,272.274667 153.352,272.328 C153.421333,272.381333 153.477333,272.456 153.52,272.552 L153.52,272.552 L155.952,277.784 C156.048,277.986667 156.130667,278.146667 156.2,278.264 C156.269333,278.381333 156.304,278.466667 156.304,278.52 C156.304,278.573333 156.28,278.613333 156.232,278.64 C156.184,278.666667 156.133333,278.690667 156.08,278.712 L156.08,278.712 L156.08,279 L158.496,279 Z M169.6,279.176 L169.6,277.496 L169.312,277.496 C169.312,277.592 169.269333,277.669333 169.184,277.728 C169.098667,277.786667 168.992,277.816 168.864,277.816 L168.864,277.816 L164.768,277.816 L164.768,275.928 L167.104,275.928 C167.317333,275.928 167.482667,275.941333 167.6,275.968 C167.717333,275.994667 167.76,276.066667 167.728,276.184 L167.728,276.184 L168.048,276.184 L168.048,274.488 L167.76,274.488 C167.76,274.605333 167.717333,274.677333 167.632,274.704 C167.546667,274.730667 167.413333,274.744 167.232,274.744 L167.232,274.744 L164.768,274.744 L164.768,273.144 L168.672,273.144 C169.002667,273.144 169.168,273.245333 169.168,273.448 L169.168,273.448 L169.456,273.448 L169.456,271.672 L169.168,271.672 C169.168,271.864 169.002667,271.96 168.672,271.96 L168.672,271.96 L162.992,271.96 L162.992,272.248 C163.045333,272.248 163.098667,272.266667 163.152,272.304 C163.205333,272.341333 163.232,272.402667 163.232,272.488 L163.232,272.488 L163.232,278.472 C163.232,278.557333 163.205333,278.618667 163.152,278.656 C163.098667,278.693333 163.045333,278.712 162.992,278.712 L162.992,278.712 L162.992,279 L168.864,279 C168.992,279 169.098667,279.005333 169.184,279.016 C169.269333,279.026667 169.312,279.08 169.312,279.176 L169.312,279.176 L169.6,279.176 Z M180.112,279 L180.112,278.712 C180.016,278.712 179.952,278.696 179.92,278.664 C179.888,278.632 179.872,278.573333 179.872,278.488 C179.872,278.456 179.912,278.336 179.992,278.128 C180.072,277.92 180.173333,277.664 180.296,277.36 C180.418667,277.056 180.552,276.725333 180.696,276.368 C180.84,276.010667 180.976,275.669333 181.104,275.344 C181.232,275.018667 181.344,274.730667 181.44,274.48 C181.536,274.229333 181.594667,274.056 181.616,273.96 L181.616,273.96 L181.648,273.96 C181.818667,274.493333 181.994667,275.021333 182.176,275.544 C182.357333,276.066667 182.525333,276.538667 182.68,276.96 C182.834667,277.381333 182.96,277.730667 183.056,278.008 C183.152,278.285333 183.2,278.445333 183.2,278.488 C183.2,278.573333 183.189333,278.629333 183.168,278.656 C183.146667,278.682667 183.093333,278.701333 183.008,278.712 L183.008,278.712 L183.008,279 L185.248,279 L185.248,278.712 C185.098667,278.712 185.024,278.642667 185.024,278.504 C185.024,278.450667 185.056,278.352 185.12,278.208 C185.184,278.064 185.248,277.901333 185.312,277.72 L185.312,277.72 L187.152,272.84 C187.290667,272.445333 187.450667,272.248 187.632,272.248 L187.632,272.248 L187.632,271.96 L185.6,271.96 L185.6,272.248 C185.770667,272.248 185.856,272.322667 185.856,272.472 C185.856,272.546667 185.837333,272.64 185.8,272.752 C185.762667,272.864 185.717333,272.994667 185.664,273.144 L185.664,273.144 L184.176,277.032 L182.768,273.176 C182.714667,273.048 182.661333,272.912 182.608,272.768 C182.554667,272.624 182.528,272.514667 182.528,272.44 C182.528,272.312 182.624,272.248 182.816,272.248 L182.816,272.248 L182.816,271.96 L180.528,271.96 L180.528,272.248 C180.698667,272.248 180.784,272.322667 180.784,272.472 C180.784,272.557333 180.76,272.666667 180.712,272.8 C180.664,272.933333 180.613333,273.074667 180.56,273.224 L180.56,273.224 L179.2,277.032 L179.168,277.032 L177.76,273.144 C177.696,272.973333 177.642667,272.832 177.6,272.72 C177.557333,272.608 177.536,272.525333 177.536,272.472 C177.536,272.322667 177.605333,272.248 177.744,272.248 L177.744,272.248 L177.744,271.96 L175.712,271.96 L175.712,272.248 C175.872,272.28 175.984,272.381333 176.048,272.552 L176.048,272.552 L178.16,278.104 C178.181333,278.157333 178.210667,278.234667 178.248,278.336 C178.285333,278.437333 178.304,278.52 178.304,278.584 C178.304,278.648 178.288,278.685333 178.256,278.696 C178.224,278.706667 178.186667,278.712 178.144,278.712 L178.144,278.712 L178.144,279 L180.112,279 Z M191.776,279 L191.776,278.712 C191.477333,278.712 191.328,278.632 191.328,278.472 L191.328,278.472 L191.328,272.488 C191.328,272.328 191.477333,272.248 191.776,272.248 L191.776,272.248 L191.776,271.96 L189.344,271.96 L189.344,272.248 C189.514667,272.248 189.632,272.266667 189.696,272.304 C189.76,272.341333 189.792,272.402667 189.792,272.488 L189.792,272.488 L189.792,278.472 C189.792,278.557333 189.76,278.618667 189.696,278.656 C189.632,278.693333 189.514667,278.712 189.344,278.712 L189.344,278.712 L189.344,279 L191.776,279 Z M198.288,279 L198.288,278.712 C198.096,278.712 198,278.632 198,278.472 L198,278.472 L198,273.144 L200.08,273.144 C200.165333,273.144 200.245333,273.165333 200.32,273.208 C200.394667,273.250667 200.432,273.32 200.432,273.416 L200.432,273.416 L200.72,273.416 L200.72,271.576 L200.432,271.576 C200.432,271.725333 200.394667,271.826667 200.32,271.88 C200.245333,271.933333 200.165333,271.96 200.08,271.96 L200.08,271.96 L194.384,271.96 C194.298667,271.96 194.218667,271.933333 194.144,271.88 C194.069333,271.826667 194.032,271.725333 194.032,271.576 L194.032,271.576 L193.744,271.576 L193.744,273.416 L194.032,273.416 C194.032,273.32 194.069333,273.250667 194.144,273.208 C194.218667,273.165333 194.298667,273.144 194.384,273.144 L194.384,273.144 L196.464,273.144 L196.464,278.472 C196.464,278.557333 196.437333,278.618667 196.384,278.656 C196.330667,278.693333 196.277333,278.712 196.224,278.712 L196.224,278.712 L196.224,279 L198.288,279 Z M204.656,279 L204.656,278.712 C204.592,278.712 204.536,278.693333 204.488,278.656 C204.44,278.618667 204.416,278.557333 204.416,278.472 L204.416,278.472 L204.416,276.056 L208.704,276.056 L208.704,278.472 C208.704,278.557333 208.68,278.618667 208.632,278.656 C208.584,278.693333 208.528,278.712 208.464,278.712 L208.464,278.712 L208.464,279 L210.48,279 L210.48,278.712 C210.416,278.712 210.36,278.693333 210.312,278.656 C210.264,278.618667 210.24,278.557333 210.24,278.472 L210.24,278.472 L210.24,272.488 C210.24,272.402667 210.264,272.341333 210.312,272.304 C210.36,272.266667 210.416,272.248 210.48,272.248 L210.48,272.248 L210.48,271.96 L208.464,271.96 L208.464,272.248 C208.528,272.248 208.584,272.266667 208.632,272.304 C208.68,272.341333 208.704,272.402667 208.704,272.488 L208.704,272.488 L208.704,274.744 L204.416,274.744 L204.416,272.488 C204.416,272.402667 204.44,272.341333 204.488,272.304 C204.536,272.266667 204.592,272.248 204.656,272.248 L204.656,272.248 L204.656,271.96 L202.64,271.96 L202.64,272.248 C202.704,272.248 202.76,272.266667 202.808,272.304 C202.856,272.341333 202.88,272.402667 202.88,272.488 L202.88,272.488 L202.88,278.472 C202.88,278.557333 202.856,278.618667 202.808,278.656 C202.76,278.693333 202.704,278.712 202.64,278.712 L202.64,278.712 L202.64,279 L204.656,279 Z M109.208,295 L109.208,294.712 C109.112,294.712 109.048,294.696 109.016,294.664 C108.984,294.632 108.968,294.573333 108.968,294.488 C108.968,294.456 109.008,294.336 109.088,294.128 C109.168,293.92 109.269333,293.664 109.392,293.36 C109.514667,293.056 109.648,292.725333 109.792,292.368 C109.936,292.010667 110.072,291.669333 110.2,291.344 C110.328,291.018667 110.44,290.730667 110.536,290.48 C110.632,290.229333 110.690667,290.056 110.712,289.96 L110.712,289.96 L110.744,289.96 C110.914667,290.493333 111.090667,291.021333 111.272,291.544 C111.453333,292.066667 111.621333,292.538667 111.776,292.96 C111.930667,293.381333 112.056,293.730667 112.152,294.008 C112.248,294.285333 112.296,294.445333 112.296,294.488 C112.296,294.573333 112.285333,294.629333 112.264,294.656 C112.242667,294.682667 112.189333,294.701333 112.104,294.712 L112.104,294.712 L112.104,295 L114.344,295 L114.344,294.712 C114.194667,294.712 114.12,294.642667 114.12,294.504 C114.12,294.450667 114.152,294.352 114.216,294.208 C114.28,294.064 114.344,293.901333 114.408,293.72 L114.408,293.72 L116.248,288.84 C116.386667,288.445333 116.546667,288.248 116.728,288.248 L116.728,288.248 L116.728,287.96 L114.696,287.96 L114.696,288.248 C114.866667,288.248 114.952,288.322667 114.952,288.472 C114.952,288.546667 114.933333,288.64 114.896,288.752 C114.858667,288.864 114.813333,288.994667 114.76,289.144 L114.76,289.144 L113.272,293.032 L111.864,289.176 C111.810667,289.048 111.757333,288.912 111.704,288.768 C111.650667,288.624 111.624,288.514667 111.624,288.44 C111.624,288.312 111.72,288.248 111.912,288.248 L111.912,288.248 L111.912,287.96 L109.624,287.96 L109.624,288.248 C109.794667,288.248 109.88,288.322667 109.88,288.472 C109.88,288.557333 109.856,288.666667 109.808,288.8 C109.76,288.933333 109.709333,289.074667 109.656,289.224 L109.656,289.224 L108.296,293.032 L108.264,293.032 L106.856,289.144 C106.792,288.973333 106.738667,288.832 106.696,288.72 C106.653333,288.608 106.632,288.525333 106.632,288.472 C106.632,288.322667 106.701333,288.248 106.84,288.248 L106.84,288.248 L106.84,287.96 L104.808,287.96 L104.808,288.248 C104.968,288.28 105.08,288.381333 105.144,288.552 L105.144,288.552 L107.256,294.104 C107.277333,294.157333 107.306667,294.234667 107.344,294.336 C107.381333,294.437333 107.4,294.52 107.4,294.584 C107.4,294.648 107.384,294.685333 107.352,294.696 C107.32,294.706667 107.282667,294.712 107.24,294.712 L107.24,294.712 L107.24,295 L109.208,295 Z M119.384,295 L119.384,294.712 C119.288,294.712 119.213333,294.701333 119.16,294.68 C119.106667,294.658667 119.08,294.605333 119.08,294.52 C119.08,294.466667 119.093333,294.405333 119.12,294.336 C119.146667,294.266667 119.181333,294.189333 119.224,294.104 L119.224,294.104 L119.672,293.24 L123.096,293.24 L123.528,294.152 C123.56,294.237333 123.586667,294.306667 123.608,294.36 C123.629333,294.413333 123.64,294.472 123.64,294.536 C123.64,294.621333 123.610667,294.68 123.552,294.712 C123.493333,294.744 123.437333,294.76 123.384,294.76 L123.384,294.76 L123.384,295 L125.656,295 L125.656,294.712 C125.581333,294.690667 125.512,294.658667 125.448,294.616 C125.384,294.573333 125.325333,294.504 125.272,294.408 L125.272,294.408 L122.68,288.968 C122.626667,288.850667 122.576,288.746667 122.528,288.656 C122.48,288.565333 122.456,288.488 122.456,288.424 C122.456,288.349333 122.474667,288.306667 122.512,288.296 C122.549333,288.285333 122.584,288.269333 122.616,288.248 L122.616,288.248 L122.616,287.96 L120.2,287.96 L120.2,288.248 C120.232,288.269333 120.261333,288.288 120.288,288.304 C120.314667,288.32 120.328,288.36 120.328,288.424 C120.328,288.509333 120.309333,288.597333 120.272,288.688 C120.234667,288.778667 120.184,288.898667 120.12,289.048 L120.12,289.048 L117.736,294.248 C117.693333,294.333333 117.632,294.426667 117.552,294.528 C117.472,294.629333 117.368,294.690667 117.24,294.712 L117.24,294.712 L117.24,295 L119.384,295 Z M122.584,292.056 L120.152,292.056 L121.288,289.368 L122.584,292.056 Z M130.952,295 L130.952,294.712 C130.76,294.712 130.664,294.632 130.664,294.472 L130.664,294.472 L130.664,289.144 L132.744,289.144 C132.829333,289.144 132.909333,289.165333 132.984,289.208 C133.058667,289.250667 133.096,289.32 133.096,289.416 L133.096,289.416 L133.384,289.416 L133.384,287.576 L133.096,287.576 C133.096,287.725333 133.058667,287.826667 132.984,287.88 C132.909333,287.933333 132.829333,287.96 132.744,287.96 L132.744,287.96 L127.048,287.96 C126.962667,287.96 126.882667,287.933333 126.808,287.88 C126.733333,287.826667 126.696,287.725333 126.696,287.576 L126.696,287.576 L126.408,287.576 L126.408,289.416 L126.696,289.416 C126.696,289.32 126.733333,289.250667 126.808,289.208 C126.882667,289.165333 126.962667,289.144 127.048,289.144 L127.048,289.144 L129.128,289.144 L129.128,294.472 C129.128,294.557333 129.101333,294.618667 129.048,294.656 C128.994667,294.693333 128.941333,294.712 128.888,294.712 L128.888,294.712 L128.888,295 L130.952,295 Z M141.816,295.176 L141.816,293.496 L141.528,293.496 C141.528,293.592 141.485333,293.669333 141.4,293.728 C141.314667,293.786667 141.208,293.816 141.08,293.816 L141.08,293.816 L136.984,293.816 L136.984,291.928 L139.32,291.928 C139.533333,291.928 139.698667,291.941333 139.816,291.968 C139.933333,291.994667 139.976,292.066667 139.944,292.184 L139.944,292.184 L140.264,292.184 L140.264,290.488 L139.976,290.488 C139.976,290.605333 139.933333,290.677333 139.848,290.704 C139.762667,290.730667 139.629333,290.744 139.448,290.744 L139.448,290.744 L136.984,290.744 L136.984,289.144 L140.888,289.144 C141.218667,289.144 141.384,289.245333 141.384,289.448 L141.384,289.448 L141.672,289.448 L141.672,287.672 L141.384,287.672 C141.384,287.864 141.218667,287.96 140.888,287.96 L140.888,287.96 L135.208,287.96 L135.208,288.248 C135.261333,288.248 135.314667,288.266667 135.368,288.304 C135.421333,288.341333 135.448,288.402667 135.448,288.488 L135.448,288.488 L135.448,294.472 C135.448,294.557333 135.421333,294.618667 135.368,294.656 C135.314667,294.693333 135.261333,294.712 135.208,294.712 L135.208,294.712 L135.208,295 L141.08,295 C141.208,295 141.314667,295.005333 141.4,295.016 C141.485333,295.026667 141.528,295.08 141.528,295.176 L141.528,295.176 L141.816,295.176 Z M146.168,295 L146.168,294.712 C146.104,294.712 146.037333,294.693333 145.968,294.656 C145.898667,294.618667 145.864,294.557333 145.864,294.472 L145.864,294.472 L145.864,292.184 L148.088,292.184 L149.352,294.072 C149.512,294.296 149.592,294.461333 149.592,294.568 C149.592,294.664 149.522667,294.712 149.384,294.712 L149.384,294.712 L149.384,295 L151.832,295 L151.832,294.712 C151.714667,294.68 151.605333,294.634667 151.504,294.576 C151.402667,294.517333 151.309333,294.429333 151.224,294.312 L151.224,294.312 L149.656,292.024 C149.88,291.970667 150.098667,291.893333 150.312,291.792 C150.525333,291.690667 150.72,291.557333 150.896,291.392 C151.072,291.226667 151.213333,291.032 151.32,290.808 C151.426667,290.584 151.48,290.328 151.48,290.04 C151.48,289.282667 151.213333,288.746667 150.68,288.432 C150.146667,288.117333 149.405333,287.96 148.456,287.96 L148.456,287.96 L144.04,287.96 L144.04,288.248 C144.232,288.248 144.328,288.328 144.328,288.488 L144.328,288.488 L144.328,294.472 C144.328,294.632 144.232,294.712 144.04,294.712 L144.04,294.712 L144.04,295 L146.168,295 Z M148.424,291 L145.896,291 L145.896,289.144 L148.424,289.144 C148.968,289.144 149.365333,289.221333 149.616,289.376 C149.866667,289.530667 149.992,289.741333 149.992,290.008 C149.992,290.669333 149.469333,291 148.424,291 L148.424,291 Z M155,295.048 C155.309333,295.048 155.576,294.944 155.8,294.736 C156.024,294.528 156.136,294.269333 156.136,293.96 C156.136,293.650667 156.024,293.384 155.8,293.16 C155.576,292.936 155.309333,292.824 155,292.824 C154.690667,292.824 154.424,292.936 154.2,293.16 C153.976,293.384 153.864,293.650667 153.864,293.96 C153.864,294.269333 153.976,294.528 154.2,294.736 C154.424,294.944 154.690667,295.048 155,295.048 Z M39.328,311 L39.328,310.712 C39.2426667,310.712 39.168,310.688 39.104,310.64 C39.04,310.592 39.008,310.52 39.008,310.424 L39.008,310.424 L39.008,308.136 L40.352,307.096 L43.088,310.248 C43.2373333,310.429333 43.312,310.546667 43.312,310.6 C43.312,310.674667 43.2426667,310.712 43.104,310.712 L43.104,310.712 L43.104,311 L46.064,311 L46.064,310.712 C45.8826667,310.658667 45.6986667,310.554667 45.512,310.4 C45.3253333,310.245333 45.1626667,310.088 45.024,309.928 L45.024,309.928 L41.664,306.04 L45.344,303.112 C45.536,302.952 45.728,302.872 45.92,302.872 L45.92,302.872 L45.92,302.584 L42.56,302.584 L42.56,302.872 C42.624,302.872 42.68,302.888 42.728,302.92 C42.776,302.952 42.8,303.005333 42.8,303.08 C42.8,303.133333 42.7573333,303.2 42.672,303.28 C42.5866667,303.36 42.4693333,303.464 42.32,303.592 L42.32,303.592 L39.008,306.2 L39.008,303.16 C39.008,303.064 39.04,302.992 39.104,302.944 C39.168,302.896 39.2426667,302.872 39.328,302.872 L39.328,302.872 L39.328,302.584 L36.832,302.584 L36.832,302.872 C37.0666667,302.872 37.184,302.968 37.184,303.16 L37.184,303.16 L37.184,310.424 C37.184,310.616 37.0666667,310.712 36.832,310.712 L36.832,310.712 L36.832,311 L39.328,311 Z M54.256,311.176 L54.256,309.496 L53.968,309.496 C53.968,309.592 53.9253333,309.669333 53.84,309.728 C53.7546667,309.786667 53.648,309.816 53.52,309.816 L53.52,309.816 L49.424,309.816 L49.424,307.928 L51.76,307.928 C51.9733333,307.928 52.1386667,307.941333 52.256,307.968 C52.3733333,307.994667 52.416,308.066667 52.384,308.184 L52.384,308.184 L52.704,308.184 L52.704,306.488 L52.416,306.488 C52.416,306.605333 52.3733333,306.677333 52.288,306.704 C52.2026667,306.730667 52.0693333,306.744 51.888,306.744 L51.888,306.744 L49.424,306.744 L49.424,305.144 L53.328,305.144 C53.6586667,305.144 53.824,305.245333 53.824,305.448 L53.824,305.448 L54.112,305.448 L54.112,303.672 L53.824,303.672 C53.824,303.864 53.6586667,303.96 53.328,303.96 L53.328,303.96 L47.648,303.96 L47.648,304.248 C47.7013333,304.248 47.7546667,304.266667 47.808,304.304 C47.8613333,304.341333 47.888,304.402667 47.888,304.488 L47.888,304.488 L47.888,310.472 C47.888,310.557333 47.8613333,310.618667 47.808,310.656 C47.7546667,310.693333 47.7013333,310.712 47.648,310.712 L47.648,310.712 L47.648,311 L53.52,311 C53.648,311 53.7546667,311.005333 53.84,311.016 C53.9253333,311.026667 53.968,311.08 53.968,311.176 L53.968,311.176 L54.256,311.176 Z M63.152,311.176 L63.152,309.496 L62.864,309.496 C62.864,309.592 62.8213333,309.669333 62.736,309.728 C62.6506667,309.786667 62.544,309.816 62.416,309.816 L62.416,309.816 L58.32,309.816 L58.32,307.928 L60.656,307.928 C60.8693333,307.928 61.0346667,307.941333 61.152,307.968 C61.2693333,307.994667 61.312,308.066667 61.28,308.184 L61.28,308.184 L61.6,308.184 L61.6,306.488 L61.312,306.488 C61.312,306.605333 61.2693333,306.677333 61.184,306.704 C61.0986667,306.730667 60.9653333,306.744 60.784,306.744 L60.784,306.744 L58.32,306.744 L58.32,305.144 L62.224,305.144 C62.5546667,305.144 62.72,305.245333 62.72,305.448 L62.72,305.448 L63.008,305.448 L63.008,303.672 L62.72,303.672 C62.72,303.864 62.5546667,303.96 62.224,303.96 L62.224,303.96 L56.544,303.96 L56.544,304.248 C56.5973333,304.248 56.6506667,304.266667 56.704,304.304 C56.7573333,304.341333 56.784,304.402667 56.784,304.488 L56.784,304.488 L56.784,310.472 C56.784,310.557333 56.7573333,310.618667 56.704,310.656 C56.6506667,310.693333 56.5973333,310.712 56.544,310.712 L56.544,310.712 L56.544,311 L62.416,311 C62.544,311 62.6506667,311.005333 62.736,311.016 C62.8213333,311.026667 62.864,311.08 62.864,311.176 L62.864,311.176 L63.152,311.176 Z M67.472,311 L67.472,310.712 C67.248,310.712 67.136,310.632 67.136,310.472 L67.136,310.472 L67.136,308.072 L69.856,308.072 C70.72,308.072 71.368,307.925333 71.8,307.632 C72.232,307.338667 72.448,306.808 72.448,306.04 C72.448,305.272 72.232,304.733333 71.8,304.424 C71.368,304.114667 70.72,303.96 69.856,303.96 L69.856,303.96 L65.2,303.96 L65.2,304.248 C65.4666667,304.248 65.6,304.328 65.6,304.488 L65.6,304.488 L65.6,310.472 C65.6,310.632 65.4666667,310.712 65.2,310.712 L65.2,310.712 L65.2,311 L67.472,311 Z M69.824,306.888 L67.136,306.888 L67.136,305.144 L69.824,305.144 C70.1333333,305.144 70.392,305.210667 70.6,305.344 C70.808,305.477333 70.912,305.709333 70.912,306.04 C70.912,306.381333 70.808,306.608 70.6,306.72 C70.392,306.832 70.1333333,306.888 69.824,306.888 L69.824,306.888 Z M81.776,311 L81.776,310.712 C81.4773333,310.712 81.328,310.632 81.328,310.472 L81.328,310.472 L81.328,304.488 C81.328,304.328 81.4773333,304.248 81.776,304.248 L81.776,304.248 L81.776,303.96 L79.344,303.96 L79.344,304.248 C79.5146667,304.248 79.632,304.266667 79.696,304.304 C79.76,304.341333 79.792,304.402667 79.792,304.488 L79.792,304.488 L79.792,310.472 C79.792,310.557333 79.76,310.618667 79.696,310.656 C79.632,310.693333 79.5146667,310.712 79.344,310.712 L79.344,310.712 L79.344,311 L81.776,311 Z M86.496,311 L86.496,310.712 C86.272,310.712 86.16,310.632 86.16,310.472 L86.16,310.472 L86.16,305.816 L90.128,310.04 C90.256,310.178667 90.3706667,310.301333 90.472,310.408 C90.5733333,310.514667 90.624,310.589333 90.624,310.632 C90.624,310.685333 90.5866667,310.712 90.512,310.712 L90.512,310.712 L90.512,311 L92.592,311 L92.592,310.712 C92.4,310.712 92.304,310.632 92.304,310.472 L92.304,310.472 L92.304,304.488 C92.304,304.328 92.4,304.248 92.592,304.248 L92.592,304.248 L92.592,303.96 L90.64,303.96 L90.64,304.248 C90.8533333,304.248 90.96,304.328 90.96,304.488 L90.96,304.488 L90.96,308.824 L87.12,304.76 C86.8853333,304.525333 86.768,304.381333 86.768,304.328 C86.768,304.285333 86.8053333,304.258667 86.88,304.248 L86.88,304.248 L86.88,303.96 L84.528,303.96 L84.528,304.248 C84.72,304.248 84.816,304.328 84.816,304.488 L84.816,304.488 L84.816,310.472 C84.816,310.632 84.72,310.712 84.528,310.712 L84.528,310.712 L84.528,311 L86.496,311 Z M102.224,311 L102.224,310.712 C102.128,310.712 102.042667,310.693333 101.968,310.656 C101.893333,310.618667 101.856,310.557333 101.856,310.472 L101.856,310.472 L101.856,308.024 L104.672,308.024 C104.853333,308.024 104.965333,308.045333 105.008,308.088 C105.050667,308.130667 105.077333,308.194667 105.088,308.28 L105.088,308.28 L105.376,308.28 L105.376,306.6 L105.088,306.6 C105.077333,306.685333 105.050667,306.746667 105.008,306.784 C104.965333,306.821333 104.853333,306.84 104.672,306.84 L104.672,306.84 L101.856,306.84 L101.856,305.144 L106.192,305.144 C106.373333,305.144 106.501333,305.168 106.576,305.216 C106.650667,305.264 106.688,305.314667 106.688,305.368 L106.688,305.368 L106.976,305.368 L106.976,303.672 L106.688,303.672 C106.688,303.757333 106.650667,303.826667 106.576,303.88 C106.501333,303.933333 106.373333,303.96 106.192,303.96 L106.192,303.96 L99.984,303.96 L99.984,304.248 C100.208,304.248 100.32,304.328 100.32,304.488 L100.32,304.488 L100.32,310.472 C100.32,310.632 100.218667,310.712 100.016,310.712 L100.016,310.712 L100.016,311 L102.224,311 Z M111.056,311 L111.056,310.712 C110.992,310.712 110.925333,310.693333 110.856,310.656 C110.786667,310.618667 110.752,310.557333 110.752,310.472 L110.752,310.472 L110.752,308.184 L112.976,308.184 L114.24,310.072 C114.4,310.296 114.48,310.461333 114.48,310.568 C114.48,310.664 114.410667,310.712 114.272,310.712 L114.272,310.712 L114.272,311 L116.72,311 L116.72,310.712 C116.602667,310.68 116.493333,310.634667 116.392,310.576 C116.290667,310.517333 116.197333,310.429333 116.112,310.312 L116.112,310.312 L114.544,308.024 C114.768,307.970667 114.986667,307.893333 115.2,307.792 C115.413333,307.690667 115.608,307.557333 115.784,307.392 C115.96,307.226667 116.101333,307.032 116.208,306.808 C116.314667,306.584 116.368,306.328 116.368,306.04 C116.368,305.282667 116.101333,304.746667 115.568,304.432 C115.034667,304.117333 114.293333,303.96 113.344,303.96 L113.344,303.96 L108.928,303.96 L108.928,304.248 C109.12,304.248 109.216,304.328 109.216,304.488 L109.216,304.488 L109.216,310.472 C109.216,310.632 109.12,310.712 108.928,310.712 L108.928,310.712 L108.928,311 L111.056,311 Z M113.312,307 L110.784,307 L110.784,305.144 L113.312,305.144 C113.856,305.144 114.253333,305.221333 114.504,305.376 C114.754667,305.530667 114.88,305.741333 114.88,306.008 C114.88,306.669333 114.357333,307 113.312,307 L113.312,307 Z M122.336,311.048 C122.922667,311.048 123.474667,310.981333 123.992,310.848 C124.509333,310.714667 124.96,310.498667 125.344,310.2 C125.728,309.901333 126.032,309.525333 126.256,309.072 C126.48,308.618667 126.592,308.088 126.592,307.48 C126.592,306.872 126.48,306.341333 126.256,305.888 C126.032,305.434667 125.728,305.058667 125.344,304.76 C124.96,304.461333 124.509333,304.237333 123.992,304.088 C123.474667,303.938667 122.922667,303.864 122.336,303.864 C121.749333,303.864 121.197333,303.938667 120.68,304.088 C120.162667,304.237333 119.712,304.461333 119.328,304.76 C118.944,305.058667 118.64,305.434667 118.416,305.888 C118.192,306.341333 118.08,306.872 118.08,307.48 C118.08,308.088 118.192,308.618667 118.416,309.072 C118.64,309.525333 118.944,309.901333 119.328,310.2 C119.712,310.498667 120.162667,310.714667 120.68,310.848 C121.197333,310.981333 121.749333,311.048 122.336,311.048 Z M122.336,309.912 C121.994667,309.912 121.661333,309.856 121.336,309.744 C121.010667,309.632 120.72,309.472 120.464,309.264 C120.208,309.056 120.002667,308.802667 119.848,308.504 C119.693333,308.205333 119.616,307.864 119.616,307.48 C119.616,307.096 119.693333,306.754667 119.848,306.456 C120.002667,306.157333 120.208,305.904 120.464,305.696 C120.72,305.488 121.010667,305.328 121.336,305.216 C121.661333,305.104 121.994667,305.048 122.336,305.048 C122.677333,305.048 123.010667,305.104 123.336,305.216 C123.661333,305.328 123.952,305.488 124.208,305.696 C124.464,305.904 124.669333,306.157333 124.824,306.456 C124.978667,306.754667 125.056,307.096 125.056,307.48 C125.056,307.864 124.978667,308.205333 124.824,308.504 C124.669333,308.802667 124.464,309.056 124.208,309.264 C123.952,309.472 123.661333,309.632 123.336,309.744 C123.010667,309.856 122.677333,309.912 122.336,309.912 Z M130.496,311 L130.496,310.712 C130.272,310.712 130.16,310.632 130.16,310.472 L130.16,310.472 L130.16,305.816 L134.128,310.04 C134.256,310.178667 134.370667,310.301333 134.472,310.408 C134.573333,310.514667 134.624,310.589333 134.624,310.632 C134.624,310.685333 134.586667,310.712 134.512,310.712 L134.512,310.712 L134.512,311 L136.592,311 L136.592,310.712 C136.4,310.712 136.304,310.632 136.304,310.472 L136.304,310.472 L136.304,304.488 C136.304,304.328 136.4,304.248 136.592,304.248 L136.592,304.248 L136.592,303.96 L134.64,303.96 L134.64,304.248 C134.853333,304.248 134.96,304.328 134.96,304.488 L134.96,304.488 L134.96,308.824 L131.12,304.76 C130.885333,304.525333 130.768,304.381333 130.768,304.328 C130.768,304.285333 130.805333,304.258667 130.88,304.248 L130.88,304.248 L130.88,303.96 L128.528,303.96 L128.528,304.248 C128.72,304.248 128.816,304.328 128.816,304.488 L128.816,304.488 L128.816,310.472 C128.816,310.632 128.72,310.712 128.528,310.712 L128.528,310.712 L128.528,311 L130.496,311 Z M142.96,311 L142.96,310.712 C142.768,310.712 142.672,310.632 142.672,310.472 L142.672,310.472 L142.672,305.144 L144.752,305.144 C144.837333,305.144 144.917333,305.165333 144.992,305.208 C145.066667,305.250667 145.104,305.32 145.104,305.416 L145.104,305.416 L145.392,305.416 L145.392,303.576 L145.104,303.576 C145.104,303.725333 145.066667,303.826667 144.992,303.88 C144.917333,303.933333 144.837333,303.96 144.752,303.96 L144.752,303.96 L139.056,303.96 C138.970667,303.96 138.890667,303.933333 138.816,303.88 C138.741333,303.826667 138.704,303.725333 138.704,303.576 L138.704,303.576 L138.416,303.576 L138.416,305.416 L138.704,305.416 C138.704,305.32 138.741333,305.250667 138.816,305.208 C138.890667,305.165333 138.970667,305.144 139.056,305.144 L139.056,305.144 L141.136,305.144 L141.136,310.472 C141.136,310.557333 141.109333,310.618667 141.056,310.656 C141.002667,310.693333 140.949333,310.712 140.896,310.712 L140.896,310.712 L140.896,311 L142.96,311 Z M155.664,311.048 C156.250667,311.048 156.802667,310.981333 157.32,310.848 C157.837333,310.714667 158.288,310.498667 158.672,310.2 C159.056,309.901333 159.36,309.525333 159.584,309.072 C159.808,308.618667 159.92,308.088 159.92,307.48 C159.92,306.872 159.808,306.341333 159.584,305.888 C159.36,305.434667 159.056,305.058667 158.672,304.76 C158.288,304.461333 157.837333,304.237333 157.32,304.088 C156.802667,303.938667 156.250667,303.864 155.664,303.864 C155.077333,303.864 154.525333,303.938667 154.008,304.088 C153.490667,304.237333 153.04,304.461333 152.656,304.76 C152.272,305.058667 151.968,305.434667 151.744,305.888 C151.52,306.341333 151.408,306.872 151.408,307.48 C151.408,308.088 151.52,308.618667 151.744,309.072 C151.968,309.525333 152.272,309.901333 152.656,310.2 C153.04,310.498667 153.490667,310.714667 154.008,310.848 C154.525333,310.981333 155.077333,311.048 155.664,311.048 Z M155.664,309.912 C155.322667,309.912 154.989333,309.856 154.664,309.744 C154.338667,309.632 154.048,309.472 153.792,309.264 C153.536,309.056 153.330667,308.802667 153.176,308.504 C153.021333,308.205333 152.944,307.864 152.944,307.48 C152.944,307.096 153.021333,306.754667 153.176,306.456 C153.330667,306.157333 153.536,305.904 153.792,305.696 C154.048,305.488 154.338667,305.328 154.664,305.216 C154.989333,305.104 155.322667,305.048 155.664,305.048 C156.005333,305.048 156.338667,305.104 156.664,305.216 C156.989333,305.328 157.28,305.488 157.536,305.696 C157.792,305.904 157.997333,306.157333 158.152,306.456 C158.306667,306.754667 158.384,307.096 158.384,307.48 C158.384,307.864 158.306667,308.205333 158.152,308.504 C157.997333,308.802667 157.792,309.056 157.536,309.264 C157.28,309.472 156.989333,309.632 156.664,309.744 C156.338667,309.856 156.005333,309.912 155.664,309.912 Z M164,311 L164,310.712 C163.904,310.712 163.818667,310.693333 163.744,310.656 C163.669333,310.618667 163.632,310.557333 163.632,310.472 L163.632,310.472 L163.632,308.024 L166.448,308.024 C166.629333,308.024 166.741333,308.045333 166.784,308.088 C166.826667,308.130667 166.853333,308.194667 166.864,308.28 L166.864,308.28 L167.152,308.28 L167.152,306.6 L166.864,306.6 C166.853333,306.685333 166.826667,306.746667 166.784,306.784 C166.741333,306.821333 166.629333,306.84 166.448,306.84 L166.448,306.84 L163.632,306.84 L163.632,305.144 L167.968,305.144 C168.149333,305.144 168.277333,305.168 168.352,305.216 C168.426667,305.264 168.464,305.314667 168.464,305.368 L168.464,305.368 L168.752,305.368 L168.752,303.672 L168.464,303.672 C168.464,303.757333 168.426667,303.826667 168.352,303.88 C168.277333,303.933333 168.149333,303.96 167.968,303.96 L167.968,303.96 L161.76,303.96 L161.76,304.248 C161.984,304.248 162.096,304.328 162.096,304.488 L162.096,304.488 L162.096,310.472 C162.096,310.632 161.994667,310.712 161.792,310.712 L161.792,310.712 L161.792,311 L164,311 Z M179.856,311 L179.856,310.712 C179.653333,310.712 179.552,310.632 179.552,310.472 L179.552,310.472 L179.552,308.072 L182,304.904 C182.117333,304.754667 182.253333,304.608 182.408,304.464 C182.562667,304.32 182.704,304.248 182.832,304.248 L182.832,304.248 L182.832,303.96 L180.384,303.96 L180.384,304.248 C180.437333,304.248 180.490667,304.258667 180.544,304.28 C180.597333,304.301333 180.624,304.354667 180.624,304.44 C180.624,304.504 180.6,304.570667 180.552,304.64 C180.504,304.709333 180.432,304.813333 180.336,304.952 L180.336,304.952 L178.912,306.936 L177.296,304.824 C177.242667,304.749333 177.194667,304.685333 177.152,304.632 C177.109333,304.578667 177.088,304.52 177.088,304.456 C177.088,304.392 177.12,304.341333 177.184,304.304 C177.248,304.266667 177.306667,304.248 177.36,304.248 L177.36,304.248 L177.36,303.96 L174.72,303.96 L174.72,304.248 C174.816,304.248 174.917333,304.269333 175.024,304.312 C175.130667,304.354667 175.221333,304.424 175.296,304.52 L175.296,304.52 L178.016,308.008 L178.016,310.472 C178.016,310.632 177.92,310.712 177.728,310.712 L177.728,310.712 L177.728,311 L179.856,311 Z M188.112,311.048 C188.698667,311.048 189.250667,310.981333 189.768,310.848 C190.285333,310.714667 190.736,310.498667 191.12,310.2 C191.504,309.901333 191.808,309.525333 192.032,309.072 C192.256,308.618667 192.368,308.088 192.368,307.48 C192.368,306.872 192.256,306.341333 192.032,305.888 C191.808,305.434667 191.504,305.058667 191.12,304.76 C190.736,304.461333 190.285333,304.237333 189.768,304.088 C189.250667,303.938667 188.698667,303.864 188.112,303.864 C187.525333,303.864 186.973333,303.938667 186.456,304.088 C185.938667,304.237333 185.488,304.461333 185.104,304.76 C184.72,305.058667 184.416,305.434667 184.192,305.888 C183.968,306.341333 183.856,306.872 183.856,307.48 C183.856,308.088 183.968,308.618667 184.192,309.072 C184.416,309.525333 184.72,309.901333 185.104,310.2 C185.488,310.498667 185.938667,310.714667 186.456,310.848 C186.973333,310.981333 187.525333,311.048 188.112,311.048 Z M188.112,309.912 C187.770667,309.912 187.437333,309.856 187.112,309.744 C186.786667,309.632 186.496,309.472 186.24,309.264 C185.984,309.056 185.778667,308.802667 185.624,308.504 C185.469333,308.205333 185.392,307.864 185.392,307.48 C185.392,307.096 185.469333,306.754667 185.624,306.456 C185.778667,306.157333 185.984,305.904 186.24,305.696 C186.496,305.488 186.786667,305.328 187.112,305.216 C187.437333,305.104 187.770667,305.048 188.112,305.048 C188.453333,305.048 188.786667,305.104 189.112,305.216 C189.437333,305.328 189.728,305.488 189.984,305.696 C190.24,305.904 190.445333,306.157333 190.6,306.456 C190.754667,306.754667 190.832,307.096 190.832,307.48 C190.832,307.864 190.754667,308.205333 190.6,308.504 C190.445333,308.802667 190.24,309.056 189.984,309.264 C189.728,309.472 189.437333,309.632 189.112,309.744 C188.786667,309.856 188.453333,309.912 188.112,309.912 Z M198.4,311.048 C199.04,311.048 199.597333,310.981333 200.072,310.848 C200.546667,310.714667 200.936,310.530667 201.24,310.296 C201.544,310.061333 201.770667,309.792 201.92,309.488 C202.069333,309.184 202.144,308.866667 202.144,308.536 L202.144,308.536 L202.144,304.488 C202.144,304.328 202.261333,304.248 202.496,304.248 L202.496,304.248 L202.496,303.96 L200.272,303.96 L200.272,304.248 C200.538667,304.248 200.672,304.328 200.672,304.488 L200.672,304.488 L200.672,308.152 C200.672,308.664 200.485333,309.074667 200.112,309.384 C199.738667,309.693333 199.168,309.848 198.4,309.848 C197.632,309.848 197.061333,309.693333 196.688,309.384 C196.314667,309.074667 196.128,308.664 196.128,308.152 L196.128,308.152 L196.128,304.488 C196.128,304.328 196.245333,304.248 196.48,304.248 L196.48,304.248 L196.48,303.96 L194.192,303.96 L194.192,304.248 C194.373333,304.248 194.496,304.266667 194.56,304.304 C194.624,304.341333 194.656,304.402667 194.656,304.488 L194.656,304.488 L194.656,308.536 C194.656,308.866667 194.730667,309.184 194.88,309.488 C195.029333,309.792 195.256,310.061333 195.56,310.296 C195.864,310.530667 196.253333,310.714667 196.728,310.848 C197.202667,310.981333 197.76,311.048 198.4,311.048 Z M213.616,311 L213.616,310.712 C213.424,310.712 213.328,310.632 213.328,310.472 L213.328,310.472 L213.328,305.144 L215.408,305.144 C215.493333,305.144 215.573333,305.165333 215.648,305.208 C215.722667,305.250667 215.76,305.32 215.76,305.416 L215.76,305.416 L216.048,305.416 L216.048,303.576 L215.76,303.576 C215.76,303.725333 215.722667,303.826667 215.648,303.88 C215.573333,303.933333 215.493333,303.96 215.408,303.96 L215.408,303.96 L209.712,303.96 C209.626667,303.96 209.546667,303.933333 209.472,303.88 C209.397333,303.826667 209.36,303.725333 209.36,303.576 L209.36,303.576 L209.072,303.576 L209.072,305.416 L209.36,305.416 C209.36,305.32 209.397333,305.250667 209.472,305.208 C209.546667,305.165333 209.626667,305.144 209.712,305.144 L209.712,305.144 L211.792,305.144 L211.792,310.472 C211.792,310.557333 211.765333,310.618667 211.712,310.656 C211.658667,310.693333 211.605333,310.712 211.552,310.712 L211.552,310.712 L211.552,311 L213.616,311 Z M221.44,311.048 C222.026667,311.048 222.578667,310.981333 223.096,310.848 C223.613333,310.714667 224.064,310.498667 224.448,310.2 C224.832,309.901333 225.136,309.525333 225.36,309.072 C225.584,308.618667 225.696,308.088 225.696,307.48 C225.696,306.872 225.584,306.341333 225.36,305.888 C225.136,305.434667 224.832,305.058667 224.448,304.76 C224.064,304.461333 223.613333,304.237333 223.096,304.088 C222.578667,303.938667 222.026667,303.864 221.44,303.864 C220.853333,303.864 220.301333,303.938667 219.784,304.088 C219.266667,304.237333 218.816,304.461333 218.432,304.76 C218.048,305.058667 217.744,305.434667 217.52,305.888 C217.296,306.341333 217.184,306.872 217.184,307.48 C217.184,308.088 217.296,308.618667 217.52,309.072 C217.744,309.525333 218.048,309.901333 218.432,310.2 C218.816,310.498667 219.266667,310.714667 219.784,310.848 C220.301333,310.981333 220.853333,311.048 221.44,311.048 Z M221.44,309.912 C221.098667,309.912 220.765333,309.856 220.44,309.744 C220.114667,309.632 219.824,309.472 219.568,309.264 C219.312,309.056 219.106667,308.802667 218.952,308.504 C218.797333,308.205333 218.72,307.864 218.72,307.48 C218.72,307.096 218.797333,306.754667 218.952,306.456 C219.106667,306.157333 219.312,305.904 219.568,305.696 C219.824,305.488 220.114667,305.328 220.44,305.216 C220.765333,305.104 221.098667,305.048 221.44,305.048 C221.781333,305.048 222.114667,305.104 222.44,305.216 C222.765333,305.328 223.056,305.488 223.312,305.696 C223.568,305.904 223.773333,306.157333 223.928,306.456 C224.082667,306.754667 224.16,307.096 224.16,307.48 C224.16,307.864 224.082667,308.205333 223.928,308.504 C223.773333,308.802667 223.568,309.056 223.312,309.264 C223.056,309.472 222.765333,309.632 222.44,309.744 C222.114667,309.856 221.781333,309.912 221.44,309.912 Z M37.664,327 L37.664,326.712 C37.44,326.712 37.328,326.632 37.328,326.472 L37.328,326.472 L37.328,324.072 L40.048,324.072 C40.912,324.072 41.56,323.925333 41.992,323.632 C42.424,323.338667 42.64,322.808 42.64,322.04 C42.64,321.272 42.424,320.733333 41.992,320.424 C41.56,320.114667 40.912,319.96 40.048,319.96 L40.048,319.96 L35.392,319.96 L35.392,320.248 C35.6586667,320.248 35.792,320.328 35.792,320.488 L35.792,320.488 L35.792,326.472 C35.792,326.632 35.6586667,326.712 35.392,326.712 L35.392,326.712 L35.392,327 L37.664,327 Z M40.016,322.888 L37.328,322.888 L37.328,321.144 L40.016,321.144 C40.3253333,321.144 40.584,321.210667 40.792,321.344 C41,321.477333 41.104,321.709333 41.104,322.04 C41.104,322.381333 41,322.608 40.792,322.72 C40.584,322.832 40.3253333,322.888 40.016,322.888 L40.016,322.888 Z M46.592,327 L46.592,326.712 C46.528,326.712 46.4613333,326.693333 46.392,326.656 C46.3226667,326.618667 46.288,326.557333 46.288,326.472 L46.288,326.472 L46.288,324.184 L48.512,324.184 L49.776,326.072 C49.936,326.296 50.016,326.461333 50.016,326.568 C50.016,326.664 49.9466667,326.712 49.808,326.712 L49.808,326.712 L49.808,327 L52.256,327 L52.256,326.712 C52.1386667,326.68 52.0293333,326.634667 51.928,326.576 C51.8266667,326.517333 51.7333333,326.429333 51.648,326.312 L51.648,326.312 L50.08,324.024 C50.304,323.970667 50.5226667,323.893333 50.736,323.792 C50.9493333,323.690667 51.144,323.557333 51.32,323.392 C51.496,323.226667 51.6373333,323.032 51.744,322.808 C51.8506667,322.584 51.904,322.328 51.904,322.04 C51.904,321.282667 51.6373333,320.746667 51.104,320.432 C50.5706667,320.117333 49.8293333,319.96 48.88,319.96 L48.88,319.96 L44.464,319.96 L44.464,320.248 C44.656,320.248 44.752,320.328 44.752,320.488 L44.752,320.488 L44.752,326.472 C44.752,326.632 44.656,326.712 44.464,326.712 L44.464,326.712 L44.464,327 L46.592,327 Z M48.848,323 L46.32,323 L46.32,321.144 L48.848,321.144 C49.392,321.144 49.7893333,321.221333 50.04,321.376 C50.2906667,321.530667 50.416,321.741333 50.416,322.008 C50.416,322.669333 49.8933333,323 48.848,323 L48.848,323 Z M57.872,327.048 C58.4586667,327.048 59.0106667,326.981333 59.528,326.848 C60.0453333,326.714667 60.496,326.498667 60.88,326.2 C61.264,325.901333 61.568,325.525333 61.792,325.072 C62.016,324.618667 62.128,324.088 62.128,323.48 C62.128,322.872 62.016,322.341333 61.792,321.888 C61.568,321.434667 61.264,321.058667 60.88,320.76 C60.496,320.461333 60.0453333,320.237333 59.528,320.088 C59.0106667,319.938667 58.4586667,319.864 57.872,319.864 C57.2853333,319.864 56.7333333,319.938667 56.216,320.088 C55.6986667,320.237333 55.248,320.461333 54.864,320.76 C54.48,321.058667 54.176,321.434667 53.952,321.888 C53.728,322.341333 53.616,322.872 53.616,323.48 C53.616,324.088 53.728,324.618667 53.952,325.072 C54.176,325.525333 54.48,325.901333 54.864,326.2 C55.248,326.498667 55.6986667,326.714667 56.216,326.848 C56.7333333,326.981333 57.2853333,327.048 57.872,327.048 Z M57.872,325.912 C57.5306667,325.912 57.1973333,325.856 56.872,325.744 C56.5466667,325.632 56.256,325.472 56,325.264 C55.744,325.056 55.5386667,324.802667 55.384,324.504 C55.2293333,324.205333 55.152,323.864 55.152,323.48 C55.152,323.096 55.2293333,322.754667 55.384,322.456 C55.5386667,322.157333 55.744,321.904 56,321.696 C56.256,321.488 56.5466667,321.328 56.872,321.216 C57.1973333,321.104 57.5306667,321.048 57.872,321.048 C58.2133333,321.048 58.5466667,321.104 58.872,321.216 C59.1973333,321.328 59.488,321.488 59.744,321.696 C60,321.904 60.2053333,322.157333 60.36,322.456 C60.5146667,322.754667 60.592,323.096 60.592,323.48 C60.592,323.864 60.5146667,324.205333 60.36,324.504 C60.2053333,324.802667 60,325.056 59.744,325.264 C59.488,325.472 59.1973333,325.632 58.872,325.744 C58.5466667,325.856 58.2133333,325.912 57.872,325.912 Z M67.824,327 L67.824,326.712 C67.632,326.712 67.536,326.632 67.536,326.472 L67.536,326.472 L67.536,321.144 L69.616,321.144 C69.7013333,321.144 69.7813333,321.165333 69.856,321.208 C69.9306667,321.250667 69.968,321.32 69.968,321.416 L69.968,321.416 L70.256,321.416 L70.256,319.576 L69.968,319.576 C69.968,319.725333 69.9306667,319.826667 69.856,319.88 C69.7813333,319.933333 69.7013333,319.96 69.616,319.96 L69.616,319.96 L63.92,319.96 C63.8346667,319.96 63.7546667,319.933333 63.68,319.88 C63.6053333,319.826667 63.568,319.725333 63.568,319.576 L63.568,319.576 L63.28,319.576 L63.28,321.416 L63.568,321.416 C63.568,321.32 63.6053333,321.250667 63.68,321.208 C63.7546667,321.165333 63.8346667,321.144 63.92,321.144 L63.92,321.144 L66,321.144 L66,326.472 C66,326.557333 65.9733333,326.618667 65.92,326.656 C65.8666667,326.693333 65.8133333,326.712 65.76,326.712 L65.76,326.712 L65.76,327 L67.824,327 Z M78.688,327.176 L78.688,325.496 L78.4,325.496 C78.4,325.592 78.3573333,325.669333 78.272,325.728 C78.1866667,325.786667 78.08,325.816 77.952,325.816 L77.952,325.816 L73.856,325.816 L73.856,323.928 L76.192,323.928 C76.4053333,323.928 76.5706667,323.941333 76.688,323.968 C76.8053333,323.994667 76.848,324.066667 76.816,324.184 L76.816,324.184 L77.136,324.184 L77.136,322.488 L76.848,322.488 C76.848,322.605333 76.8053333,322.677333 76.72,322.704 C76.6346667,322.730667 76.5013333,322.744 76.32,322.744 L76.32,322.744 L73.856,322.744 L73.856,321.144 L77.76,321.144 C78.0906667,321.144 78.256,321.245333 78.256,321.448 L78.256,321.448 L78.544,321.448 L78.544,319.672 L78.256,319.672 C78.256,319.864 78.0906667,319.96 77.76,319.96 L77.76,319.96 L72.08,319.96 L72.08,320.248 C72.1333333,320.248 72.1866667,320.266667 72.24,320.304 C72.2933333,320.341333 72.32,320.402667 72.32,320.488 L72.32,320.488 L72.32,326.472 C72.32,326.557333 72.2933333,326.618667 72.24,326.656 C72.1866667,326.693333 72.1333333,326.712 72.08,326.712 L72.08,326.712 L72.08,327 L77.952,327 C78.08,327 78.1866667,327.005333 78.272,327.016 C78.3573333,327.026667 78.4,327.08 78.4,327.176 L78.4,327.176 L78.688,327.176 Z M84.176,327.048 C84.656,327.048 85.0906667,327.005333 85.48,326.92 C85.8693333,326.834667 86.2106667,326.730667 86.504,326.608 C86.7973333,326.485333 87.04,326.376 87.232,326.28 C87.424,326.184 87.5626667,326.136 87.648,326.136 C87.7013333,326.136 87.792,326.162667 87.92,326.216 L87.92,326.216 L88.08,326.136 L86.896,324.44 L86.72,324.6 C86.7306667,324.642667 86.736,324.696 86.736,324.76 L86.736,324.76 L86.736,324.888 C86.736,324.984 86.6586667,325.090667 86.504,325.208 C86.3493333,325.325333 86.1493333,325.434667 85.904,325.536 C85.6586667,325.637333 85.3866667,325.725333 85.088,325.8 C84.7893333,325.874667 84.496,325.912 84.208,325.912 C83.8986667,325.912 83.5946667,325.856 83.296,325.744 C82.9973333,325.632 82.7306667,325.466667 82.496,325.248 C82.2613333,325.029333 82.072,324.768 81.928,324.464 C81.784,324.16 81.712,323.816 81.712,323.432 C81.712,323.048 81.776,322.706667 81.904,322.408 C82.032,322.109333 82.2133333,321.858667 82.448,321.656 C82.6826667,321.453333 82.9573333,321.301333 83.272,321.2 C83.5866667,321.098667 83.936,321.048 84.32,321.048 C84.64,321.048 84.9333333,321.077333 85.2,321.136 C85.4666667,321.194667 85.6986667,321.266667 85.896,321.352 C86.0933333,321.437333 86.2453333,321.525333 86.352,321.616 C86.4586667,321.706667 86.512,321.778667 86.512,321.832 C86.512,321.864 86.5146667,321.890667 86.52,321.912 C86.5253333,321.933333 86.528,321.954667 86.528,321.976 L86.528,321.976 L86.704,322.104 L87.76,320.584 L87.568,320.472 C87.5253333,320.493333 87.4853333,320.52 87.448,320.552 C87.4106667,320.584 87.3653333,320.6 87.312,320.6 C87.2373333,320.6 87.1146667,320.562667 86.944,320.488 C86.7733333,320.413333 86.56,320.328 86.304,320.232 C86.048,320.136 85.752,320.050667 85.416,319.976 C85.08,319.901333 84.7093333,319.864 84.304,319.864 C83.7813333,319.864 83.272,319.938667 82.776,320.088 C82.28,320.237333 81.84,320.464 81.456,320.768 C81.072,321.072 80.7626667,321.448 80.528,321.896 C80.2933333,322.344 80.176,322.866667 80.176,323.464 C80.176,324.061333 80.2933333,324.586667 80.528,325.04 C80.7626667,325.493333 81.0666667,325.872 81.44,326.176 C81.8133333,326.48 82.24,326.701333 82.72,326.84 C83.2,326.978667 83.6853333,327.048 84.176,327.048 Z M93.616,327 L93.616,326.712 C93.424,326.712 93.328,326.632 93.328,326.472 L93.328,326.472 L93.328,321.144 L95.408,321.144 C95.4933333,321.144 95.5733333,321.165333 95.648,321.208 C95.7226667,321.250667 95.76,321.32 95.76,321.416 L95.76,321.416 L96.048,321.416 L96.048,319.576 L95.76,319.576 C95.76,319.725333 95.7226667,319.826667 95.648,319.88 C95.5733333,319.933333 95.4933333,319.96 95.408,319.96 L95.408,319.96 L89.712,319.96 C89.6266667,319.96 89.5466667,319.933333 89.472,319.88 C89.3973333,319.826667 89.36,319.725333 89.36,319.576 L89.36,319.576 L89.072,319.576 L89.072,321.416 L89.36,321.416 C89.36,321.32 89.3973333,321.250667 89.472,321.208 C89.5466667,321.165333 89.6266667,321.144 89.712,321.144 L89.712,321.144 L91.792,321.144 L91.792,326.472 C91.792,326.557333 91.7653333,326.618667 91.712,326.656 C91.6586667,326.693333 91.6053333,326.712 91.552,326.712 L91.552,326.712 L91.552,327 L93.616,327 Z M104.88,327 L104.88,326.712 C104.784,326.712 104.698667,326.693333 104.624,326.656 C104.549333,326.618667 104.512,326.557333 104.512,326.472 L104.512,326.472 L104.512,324.024 L107.328,324.024 C107.509333,324.024 107.621333,324.045333 107.664,324.088 C107.706667,324.130667 107.733333,324.194667 107.744,324.28 L107.744,324.28 L108.032,324.28 L108.032,322.6 L107.744,322.6 C107.733333,322.685333 107.706667,322.746667 107.664,322.784 C107.621333,322.821333 107.509333,322.84 107.328,322.84 L107.328,322.84 L104.512,322.84 L104.512,321.144 L108.848,321.144 C109.029333,321.144 109.157333,321.168 109.232,321.216 C109.306667,321.264 109.344,321.314667 109.344,321.368 L109.344,321.368 L109.632,321.368 L109.632,319.672 L109.344,319.672 C109.344,319.757333 109.306667,319.826667 109.232,319.88 C109.157333,319.933333 109.029333,319.96 108.848,319.96 L108.848,319.96 L102.64,319.96 L102.64,320.248 C102.864,320.248 102.976,320.328 102.976,320.488 L102.976,320.488 L102.976,326.472 C102.976,326.632 102.874667,326.712 102.672,326.712 L102.672,326.712 L102.672,327 L104.88,327 Z M113.712,327 L113.712,326.712 C113.648,326.712 113.581333,326.693333 113.512,326.656 C113.442667,326.618667 113.408,326.557333 113.408,326.472 L113.408,326.472 L113.408,324.184 L115.632,324.184 L116.896,326.072 C117.056,326.296 117.136,326.461333 117.136,326.568 C117.136,326.664 117.066667,326.712 116.928,326.712 L116.928,326.712 L116.928,327 L119.376,327 L119.376,326.712 C119.258667,326.68 119.149333,326.634667 119.048,326.576 C118.946667,326.517333 118.853333,326.429333 118.768,326.312 L118.768,326.312 L117.2,324.024 C117.424,323.970667 117.642667,323.893333 117.856,323.792 C118.069333,323.690667 118.264,323.557333 118.44,323.392 C118.616,323.226667 118.757333,323.032 118.864,322.808 C118.970667,322.584 119.024,322.328 119.024,322.04 C119.024,321.282667 118.757333,320.746667 118.224,320.432 C117.690667,320.117333 116.949333,319.96 116,319.96 L116,319.96 L111.584,319.96 L111.584,320.248 C111.776,320.248 111.872,320.328 111.872,320.488 L111.872,320.488 L111.872,326.472 C111.872,326.632 111.776,326.712 111.584,326.712 L111.584,326.712 L111.584,327 L113.712,327 Z M115.968,323 L113.44,323 L113.44,321.144 L115.968,321.144 C116.512,321.144 116.909333,321.221333 117.16,321.376 C117.410667,321.530667 117.536,321.741333 117.536,322.008 C117.536,322.669333 117.013333,323 115.968,323 L115.968,323 Z M124.992,327.048 C125.578667,327.048 126.130667,326.981333 126.648,326.848 C127.165333,326.714667 127.616,326.498667 128,326.2 C128.384,325.901333 128.688,325.525333 128.912,325.072 C129.136,324.618667 129.248,324.088 129.248,323.48 C129.248,322.872 129.136,322.341333 128.912,321.888 C128.688,321.434667 128.384,321.058667 128,320.76 C127.616,320.461333 127.165333,320.237333 126.648,320.088 C126.130667,319.938667 125.578667,319.864 124.992,319.864 C124.405333,319.864 123.853333,319.938667 123.336,320.088 C122.818667,320.237333 122.368,320.461333 121.984,320.76 C121.6,321.058667 121.296,321.434667 121.072,321.888 C120.848,322.341333 120.736,322.872 120.736,323.48 C120.736,324.088 120.848,324.618667 121.072,325.072 C121.296,325.525333 121.6,325.901333 121.984,326.2 C122.368,326.498667 122.818667,326.714667 123.336,326.848 C123.853333,326.981333 124.405333,327.048 124.992,327.048 Z M124.992,325.912 C124.650667,325.912 124.317333,325.856 123.992,325.744 C123.666667,325.632 123.376,325.472 123.12,325.264 C122.864,325.056 122.658667,324.802667 122.504,324.504 C122.349333,324.205333 122.272,323.864 122.272,323.48 C122.272,323.096 122.349333,322.754667 122.504,322.456 C122.658667,322.157333 122.864,321.904 123.12,321.696 C123.376,321.488 123.666667,321.328 123.992,321.216 C124.317333,321.104 124.650667,321.048 124.992,321.048 C125.333333,321.048 125.666667,321.104 125.992,321.216 C126.317333,321.328 126.608,321.488 126.864,321.696 C127.12,321.904 127.325333,322.157333 127.48,322.456 C127.634667,322.754667 127.712,323.096 127.712,323.48 C127.712,323.864 127.634667,324.205333 127.48,324.504 C127.325333,324.802667 127.12,325.056 126.864,325.264 C126.608,325.472 126.317333,325.632 125.992,325.744 C125.666667,325.856 125.333333,325.912 124.992,325.912 Z M133.184,327 L133.184,326.712 C133.002667,326.712 132.912,326.632 132.912,326.472 L132.912,326.472 L132.912,321.976 L132.928,321.976 L135.504,327 L135.632,327 L138.352,321.976 L138.384,321.976 L138.384,326.472 C138.416,326.632 138.32,326.712 138.096,326.712 L138.096,326.712 L138.096,327 L139.952,327 L139.952,326.712 C139.898667,326.712 139.848,326.693333 139.8,326.656 C139.752,326.618667 139.728,326.557333 139.728,326.472 L139.728,326.472 L139.728,320.456 C139.728,320.370667 139.752,320.314667 139.8,320.288 C139.848,320.261333 139.898667,320.248 139.952,320.248 L139.952,320.248 L139.952,319.96 L137.696,319.96 L137.696,320.248 C137.781333,320.248 137.824,320.296 137.824,320.392 C137.824,320.424 137.802667,320.48 137.76,320.56 C137.717333,320.64 137.658667,320.744 137.584,320.872 L137.584,320.872 L135.616,324.456 L133.664,320.856 C133.589333,320.728 133.533333,320.629333 133.496,320.56 C133.458667,320.490667 133.44,320.434667 133.44,320.392 C133.44,320.296 133.493333,320.248 133.6,320.248 L133.6,320.248 L133.6,319.96 L131.376,319.96 L131.376,320.248 C131.450667,320.248 131.501333,320.264 131.528,320.296 C131.554667,320.328 131.568,320.418667 131.568,320.568 L131.568,320.568 L131.568,326.424 C131.568,326.541333 131.549333,326.616 131.512,326.648 C131.474667,326.68 131.429333,326.701333 131.376,326.712 L131.376,326.712 L131.376,327 L133.184,327 Z M155.984,327.304 L155.984,325.112 L155.696,325.112 C155.696,325.24 155.645333,325.341333 155.544,325.416 C155.442667,325.490667 155.312,325.528 155.152,325.528 L155.152,325.528 L149.808,325.528 L149.808,323.32 L152.944,323.32 C153.157333,323.32 153.322667,323.354667 153.44,323.424 C153.557333,323.493333 153.616,323.650667 153.616,323.896 L153.616,323.896 L153.904,323.896 L153.904,321.4 L153.616,321.4 C153.616,321.645333 153.557333,321.797333 153.44,321.856 C153.322667,321.914667 153.157333,321.944 152.944,321.944 L152.944,321.944 L149.808,321.944 L149.808,319.96 L154.992,319.96 C155.216,319.96 155.373333,319.989333 155.464,320.048 C155.554667,320.106667 155.6,320.194667 155.6,320.312 L155.6,320.312 L155.888,320.312 L155.888,318.2 L155.6,318.2 C155.6,318.317333 155.554667,318.410667 155.464,318.48 C155.373333,318.549333 155.216,318.584 154.992,318.584 L154.992,318.584 L147.696,318.584 L147.696,318.872 C147.770667,318.872 147.837333,318.896 147.896,318.944 C147.954667,318.992 147.984,319.064 147.984,319.16 L147.984,319.16 L147.984,326.424 C147.984,326.52 147.954667,326.592 147.896,326.64 C147.837333,326.688 147.770667,326.712 147.696,326.712 L147.696,326.712 L147.696,327 L155.152,327 C155.312,327 155.442667,327.010667 155.544,327.032 C155.645333,327.053333 155.696,327.144 155.696,327.304 L155.696,327.304 L155.984,327.304 Z M159.936,327 L159.936,326.712 C159.84,326.712 159.792,326.674667 159.792,326.6 C159.792,326.525333 159.866667,326.397333 160.016,326.216 L160.016,326.216 L161.376,324.552 L162.768,326.264 C162.885333,326.445333 162.944,326.552 162.944,326.584 C162.944,326.658667 162.906667,326.701333 162.832,326.712 L162.832,326.712 L162.832,327 L165.28,327 L165.28,326.712 C165.12,326.712 164.981333,326.637333 164.864,326.488 C164.746667,326.338667 164.645333,326.216 164.56,326.12 L164.56,326.12 L162.336,323.32 L164.752,320.408 C164.858667,320.301333 164.997333,320.248 165.168,320.248 L165.168,320.248 L165.168,319.96 L162.72,319.96 L162.72,320.248 C162.858667,320.248 162.928,320.290667 162.928,320.376 C162.928,320.461333 162.842667,320.605333 162.672,320.808 L162.672,320.808 L161.456,322.296 L160.336,320.936 C160.24,320.818667 160.16,320.717333 160.096,320.632 C160.032,320.546667 160,320.477333 160,320.424 C160,320.306667 160.064,320.248 160.192,320.248 L160.192,320.248 L160.192,319.96 L157.68,319.96 L157.68,320.248 C157.754667,320.248 157.84,320.282667 157.936,320.352 C158.032,320.421333 158.154667,320.546667 158.304,320.728 L158.304,320.728 L160.512,323.48 L158.08,326.472 C158.005333,326.568 157.922667,326.632 157.832,326.664 C157.741333,326.696 157.664,326.712 157.6,326.712 L157.6,326.712 L157.6,327 L159.936,327 Z M169.232,327 L169.232,326.712 C169.008,326.712 168.896,326.632 168.896,326.472 L168.896,326.472 L168.896,324.072 L171.616,324.072 C172.48,324.072 173.128,323.925333 173.56,323.632 C173.992,323.338667 174.208,322.808 174.208,322.04 C174.208,321.272 173.992,320.733333 173.56,320.424 C173.128,320.114667 172.48,319.96 171.616,319.96 L171.616,319.96 L166.96,319.96 L166.96,320.248 C167.226667,320.248 167.36,320.328 167.36,320.488 L167.36,320.488 L167.36,326.472 C167.36,326.632 167.226667,326.712 166.96,326.712 L166.96,326.712 L166.96,327 L169.232,327 Z M171.584,322.888 L168.896,322.888 L168.896,321.144 L171.584,321.144 C171.893333,321.144 172.152,321.210667 172.36,321.344 C172.568,321.477333 172.672,321.709333 172.672,322.04 C172.672,322.381333 172.568,322.608 172.36,322.72 C172.152,322.832 171.893333,322.888 171.584,322.888 L171.584,322.888 Z M179.664,327.048 C180.250667,327.048 180.802667,326.981333 181.32,326.848 C181.837333,326.714667 182.288,326.498667 182.672,326.2 C183.056,325.901333 183.36,325.525333 183.584,325.072 C183.808,324.618667 183.92,324.088 183.92,323.48 C183.92,322.872 183.808,322.341333 183.584,321.888 C183.36,321.434667 183.056,321.058667 182.672,320.76 C182.288,320.461333 181.837333,320.237333 181.32,320.088 C180.802667,319.938667 180.250667,319.864 179.664,319.864 C179.077333,319.864 178.525333,319.938667 178.008,320.088 C177.490667,320.237333 177.04,320.461333 176.656,320.76 C176.272,321.058667 175.968,321.434667 175.744,321.888 C175.52,322.341333 175.408,322.872 175.408,323.48 C175.408,324.088 175.52,324.618667 175.744,325.072 C175.968,325.525333 176.272,325.901333 176.656,326.2 C177.04,326.498667 177.490667,326.714667 178.008,326.848 C178.525333,326.981333 179.077333,327.048 179.664,327.048 Z M179.664,325.912 C179.322667,325.912 178.989333,325.856 178.664,325.744 C178.338667,325.632 178.048,325.472 177.792,325.264 C177.536,325.056 177.330667,324.802667 177.176,324.504 C177.021333,324.205333 176.944,323.864 176.944,323.48 C176.944,323.096 177.021333,322.754667 177.176,322.456 C177.330667,322.157333 177.536,321.904 177.792,321.696 C178.048,321.488 178.338667,321.328 178.664,321.216 C178.989333,321.104 179.322667,321.048 179.664,321.048 C180.005333,321.048 180.338667,321.104 180.664,321.216 C180.989333,321.328 181.28,321.488 181.536,321.696 C181.792,321.904 181.997333,322.157333 182.152,322.456 C182.306667,322.754667 182.384,323.096 182.384,323.48 C182.384,323.864 182.306667,324.205333 182.152,324.504 C181.997333,324.802667 181.792,325.056 181.536,325.264 C181.28,325.472 180.989333,325.632 180.664,325.744 C180.338667,325.856 180.005333,325.912 179.664,325.912 Z M188.88,327.048 C189.242667,327.048 189.629333,327.021333 190.04,326.968 C190.450667,326.914667 190.826667,326.802667 191.168,326.632 C191.509333,326.461333 191.794667,326.226667 192.024,325.928 C192.253333,325.629333 192.368,325.245333 192.368,324.776 C192.368,324.306667 192.237333,323.938667 191.976,323.672 C191.714667,323.405333 191.386667,323.202667 190.992,323.064 C190.597333,322.925333 190.170667,322.826667 189.712,322.768 C189.253333,322.709333 188.826667,322.650667 188.432,322.592 C188.037333,322.533333 187.709333,322.453333 187.448,322.352 C187.186667,322.250667 187.056,322.082667 187.056,321.848 C187.056,321.698667 187.098667,321.573333 187.184,321.472 C187.269333,321.370667 187.386667,321.288 187.536,321.224 C187.685333,321.16 187.856,321.114667 188.048,321.088 C188.24,321.061333 188.442667,321.048 188.656,321.048 C189.210667,321.048 189.712,321.112 190.16,321.24 C190.608,321.368 190.938667,321.522667 191.152,321.704 C191.237333,321.768 191.285333,321.832 191.296,321.896 C191.306667,321.96 191.317333,322.024 191.328,322.088 L191.328,322.088 L191.616,322.184 L192.416,320.68 L192.24,320.504 C192.176,320.536 192.122667,320.565333 192.08,320.592 C192.037333,320.618667 191.973333,320.632 191.888,320.632 C191.813333,320.632 191.698667,320.592 191.544,320.512 C191.389333,320.432 191.189333,320.344 190.944,320.248 C190.698667,320.152 190.397333,320.064 190.04,319.984 C189.682667,319.904 189.253333,319.864 188.752,319.864 C187.728,319.864 186.933333,320.066667 186.368,320.472 C185.802667,320.877333 185.52,321.421333 185.52,322.104 C185.52,322.562667 185.650667,322.917333 185.912,323.168 C186.173333,323.418667 186.501333,323.610667 186.896,323.744 C187.290667,323.877333 187.717333,323.973333 188.176,324.032 C188.634667,324.090667 189.061333,324.149333 189.456,324.208 C189.850667,324.266667 190.178667,324.349333 190.44,324.456 C190.701333,324.562667 190.832,324.733333 190.832,324.968 C190.832,325.170667 190.757333,325.333333 190.608,325.456 C190.458667,325.578667 190.277333,325.674667 190.064,325.744 C189.850667,325.813333 189.634667,325.858667 189.416,325.88 C189.197333,325.901333 189.013333,325.912 188.864,325.912 C188.704,325.912 188.482667,325.885333 188.2,325.832 C187.917333,325.778667 187.634667,325.706667 187.352,325.616 C187.069333,325.525333 186.826667,325.413333 186.624,325.28 C186.421333,325.146667 186.32,325 186.32,324.84 C186.32,324.786667 186.322667,324.736 186.328,324.688 C186.333333,324.64 186.336,324.594667 186.336,324.552 L186.336,324.552 L186.032,324.472 L185.296,326.264 L185.52,326.424 C185.573333,326.36 185.637333,326.328 185.712,326.328 C185.754667,326.328 185.877333,326.368 186.08,326.448 C186.282667,326.528 186.530667,326.613333 186.824,326.704 C187.117333,326.794667 187.442667,326.874667 187.8,326.944 C188.157333,327.013333 188.517333,327.048 188.88,327.048 Z M198.848,327.048 C199.488,327.048 200.045333,326.981333 200.52,326.848 C200.994667,326.714667 201.384,326.530667 201.688,326.296 C201.992,326.061333 202.218667,325.792 202.368,325.488 C202.517333,325.184 202.592,324.866667 202.592,324.536 L202.592,324.536 L202.592,320.488 C202.592,320.328 202.709333,320.248 202.944,320.248 L202.944,320.248 L202.944,319.96 L200.72,319.96 L200.72,320.248 C200.986667,320.248 201.12,320.328 201.12,320.488 L201.12,320.488 L201.12,324.152 C201.12,324.664 200.933333,325.074667 200.56,325.384 C200.186667,325.693333 199.616,325.848 198.848,325.848 C198.08,325.848 197.509333,325.693333 197.136,325.384 C196.762667,325.074667 196.576,324.664 196.576,324.152 L196.576,324.152 L196.576,320.488 C196.576,320.328 196.693333,320.248 196.928,320.248 L196.928,320.248 L196.928,319.96 L194.64,319.96 L194.64,320.248 C194.821333,320.248 194.944,320.266667 195.008,320.304 C195.072,320.341333 195.104,320.402667 195.104,320.488 L195.104,320.488 L195.104,324.536 C195.104,324.866667 195.178667,325.184 195.328,325.488 C195.477333,325.792 195.704,326.061333 196.008,326.296 C196.312,326.530667 196.701333,326.714667 197.176,326.848 C197.650667,326.981333 198.208,327.048 198.848,327.048 Z M207.504,327 L207.504,326.712 C207.44,326.712 207.373333,326.693333 207.304,326.656 C207.234667,326.618667 207.2,326.557333 207.2,326.472 L207.2,326.472 L207.2,324.184 L209.424,324.184 L210.688,326.072 C210.848,326.296 210.928,326.461333 210.928,326.568 C210.928,326.664 210.858667,326.712 210.72,326.712 L210.72,326.712 L210.72,327 L213.168,327 L213.168,326.712 C213.050667,326.68 212.941333,326.634667 212.84,326.576 C212.738667,326.517333 212.645333,326.429333 212.56,326.312 L212.56,326.312 L210.992,324.024 C211.216,323.970667 211.434667,323.893333 211.648,323.792 C211.861333,323.690667 212.056,323.557333 212.232,323.392 C212.408,323.226667 212.549333,323.032 212.656,322.808 C212.762667,322.584 212.816,322.328 212.816,322.04 C212.816,321.282667 212.549333,320.746667 212.016,320.432 C211.482667,320.117333 210.741333,319.96 209.792,319.96 L209.792,319.96 L205.376,319.96 L205.376,320.248 C205.568,320.248 205.664,320.328 205.664,320.488 L205.664,320.488 L205.664,326.472 C205.664,326.632 205.568,326.712 205.376,326.712 L205.376,326.712 L205.376,327 L207.504,327 Z M209.76,323 L207.232,323 L207.232,321.144 L209.76,321.144 C210.304,321.144 210.701333,321.221333 210.952,321.376 C211.202667,321.530667 211.328,321.741333 211.328,322.008 C211.328,322.669333 210.805333,323 209.76,323 L209.76,323 Z M221.824,327.176 L221.824,325.496 L221.536,325.496 C221.536,325.592 221.493333,325.669333 221.408,325.728 C221.322667,325.786667 221.216,325.816 221.088,325.816 L221.088,325.816 L216.992,325.816 L216.992,323.928 L219.328,323.928 C219.541333,323.928 219.706667,323.941333 219.824,323.968 C219.941333,323.994667 219.984,324.066667 219.952,324.184 L219.952,324.184 L220.272,324.184 L220.272,322.488 L219.984,322.488 C219.984,322.605333 219.941333,322.677333 219.856,322.704 C219.770667,322.730667 219.637333,322.744 219.456,322.744 L219.456,322.744 L216.992,322.744 L216.992,321.144 L220.896,321.144 C221.226667,321.144 221.392,321.245333 221.392,321.448 L221.392,321.448 L221.68,321.448 L221.68,319.672 L221.392,319.672 C221.392,319.864 221.226667,319.96 220.896,319.96 L220.896,319.96 L215.216,319.96 L215.216,320.248 C215.269333,320.248 215.322667,320.266667 215.376,320.304 C215.429333,320.341333 215.456,320.402667 215.456,320.488 L215.456,320.488 L215.456,326.472 C215.456,326.557333 215.429333,326.618667 215.376,326.656 C215.322667,326.693333 215.269333,326.712 215.216,326.712 L215.216,326.712 L215.216,327 L221.088,327 C221.216,327 221.322667,327.005333 221.408,327.016 C221.493333,327.026667 221.536,327.08 221.536,327.176 L221.536,327.176 L221.824,327.176 Z M225.232,327.048 C225.541333,327.048 225.808,326.944 226.032,326.736 C226.256,326.528 226.368,326.269333 226.368,325.96 C226.368,325.650667 226.256,325.384 226.032,325.16 C225.808,324.936 225.541333,324.824 225.232,324.824 C224.922667,324.824 224.656,324.936 224.432,325.16 C224.208,325.384 224.096,325.650667 224.096,325.96 C224.096,326.269333 224.208,326.528 224.432,326.736 C224.656,326.944 224.922667,327.048 225.232,327.048 Z" id="Mosteffectivewithwater.KeepinfrontofyoutoprotectfromExposure." fill="#000000" fill-rule="nonzero"></path>
        <path d="M109.072,52.072 C109.728,52.072 110.436,52.02 111.196,51.916 C111.956,51.812 112.664,51.608 113.32,51.304 C113.976,51 114.524,50.584 114.964,50.056 C115.404,49.528 115.624,48.848 115.624,48.016 C115.624,47.296 115.484,46.712 115.204,46.264 C114.924,45.816 114.556,45.46 114.1,45.196 C113.644,44.932 113.124,44.74 112.54,44.62 C111.956,44.5 111.36,44.416 110.752,44.368 C110.144,44.32 109.548,44.28 108.964,44.248 C108.38,44.216 107.86,44.152 107.404,44.056 C106.948,43.96 106.58,43.816 106.3,43.624 C106.02,43.432 105.88,43.144 105.88,42.76 C105.88,42.488 105.98,42.26 106.18,42.076 C106.38,41.892 106.632,41.744 106.936,41.632 C107.24,41.52 107.58,41.436 107.956,41.38 C108.332,41.324 108.696,41.296 109.048,41.296 C109.512,41.296 109.976,41.34 110.44,41.428 C110.904,41.516 111.336,41.632 111.736,41.776 C112.136,41.92 112.484,42.084 112.78,42.268 C113.076,42.452 113.288,42.64 113.416,42.832 C113.512,42.976 113.576,43.16 113.608,43.384 L113.608,43.384 L113.848,43.48 L115.504,40.48 L115.216,40.288 C115.12,40.384 114.96,40.432 114.736,40.432 C114.528,40.432 114.268,40.368 113.956,40.24 C113.644,40.112 113.26,39.976 112.804,39.832 C112.348,39.688 111.808,39.552 111.184,39.424 C110.56,39.296 109.824,39.232 108.976,39.232 C107.984,39.232 107.12,39.348 106.384,39.58 C105.648,39.812 105.04,40.112 104.56,40.48 C104.08,40.848 103.724,41.272 103.492,41.752 C103.26,42.232 103.144,42.72 103.144,43.216 C103.144,43.952 103.284,44.548 103.564,45.004 C103.844,45.46 104.212,45.82 104.668,46.084 C105.124,46.348 105.644,46.536 106.228,46.648 C106.812,46.76 107.408,46.84 108.016,46.888 C108.624,46.936 109.22,46.972 109.804,46.996 C110.388,47.02 110.908,47.072 111.364,47.152 C111.82,47.232 112.188,47.36 112.468,47.536 C112.748,47.712 112.888,47.984 112.888,48.352 C112.888,48.72 112.736,49.016 112.432,49.24 C112.128,49.464 111.768,49.64 111.352,49.768 C110.936,49.896 110.512,49.98 110.08,50.02 C109.648,50.06 109.296,50.08 109.024,50.08 C108.656,50.08 108.24,50.036 107.776,49.948 C107.312,49.86 106.868,49.744 106.444,49.6 C106.02,49.456 105.644,49.292 105.316,49.108 C104.988,48.924 104.768,48.736 104.656,48.544 C104.592,48.432 104.56,48.304 104.56,48.16 L104.56,48.16 L104.32,48.04 L103,50.944 L103.336,51.136 C103.432,51.008 103.536,50.944 103.648,50.944 C103.824,50.944 104.032,51.004 104.272,51.124 C104.512,51.244 104.836,51.38 105.244,51.532 C105.652,51.684 106.164,51.812 106.78,51.916 C107.396,52.02 108.16,52.072 109.072,52.072 Z M124.648,52.072 C125.528,52.072 126.356,51.972 127.132,51.772 C127.908,51.572 128.584,51.248 129.16,50.8 C129.736,50.352 130.192,49.788 130.528,49.108 C130.864,48.428 131.032,47.632 131.032,46.72 C131.032,45.808 130.864,45.012 130.528,44.332 C130.192,43.652 129.736,43.088 129.16,42.64 C128.584,42.192 127.908,41.856 127.132,41.632 C126.356,41.408 125.528,41.296 124.648,41.296 C123.768,41.296 122.94,41.408 122.164,41.632 C121.388,41.856 120.712,42.192 120.136,42.64 C119.56,43.088 119.104,43.652 118.768,44.332 C118.432,45.012 118.264,45.808 118.264,46.72 C118.264,47.632 118.432,48.428 118.768,49.108 C119.104,49.788 119.56,50.352 120.136,50.8 C120.712,51.248 121.388,51.572 122.164,51.772 C122.94,51.972 123.768,52.072 124.648,52.072 Z M124.648,50.368 C124.136,50.368 123.636,50.284 123.148,50.116 C122.66,49.948 122.224,49.708 121.84,49.396 C121.456,49.084 121.148,48.704 120.916,48.256 C120.684,47.808 120.568,47.296 120.568,46.72 C120.568,46.144 120.684,45.632 120.916,45.184 C121.148,44.736 121.456,44.356 121.84,44.044 C122.224,43.732 122.66,43.492 123.148,43.324 C123.636,43.156 124.136,43.072 124.648,43.072 C125.16,43.072 125.66,43.156 126.148,43.324 C126.636,43.492 127.072,43.732 127.456,44.044 C127.84,44.356 128.148,44.736 128.38,45.184 C128.612,45.632 128.728,46.144 128.728,46.72 C128.728,47.296 128.612,47.808 128.38,48.256 C128.148,48.704 127.84,49.084 127.456,49.396 C127.072,49.708 126.636,49.948 126.148,50.116 C125.66,50.284 125.16,50.368 124.648,50.368 Z M135.568,52 L135.568,51.568 C135.424,51.568 135.312,51.552 135.232,51.52 C135.152,51.488 135.112,51.408 135.112,51.28 C135.112,51.2 135.132,51.108 135.172,51.004 C135.212,50.9 135.264,50.784 135.328,50.656 L135.328,50.656 L136,49.36 L141.136,49.36 L141.784,50.728 C141.832,50.856 141.872,50.96 141.904,51.04 C141.936,51.12 141.952,51.208 141.952,51.304 C141.952,51.432 141.908,51.52 141.82,51.568 C141.732,51.616 141.648,51.64 141.568,51.64 L141.568,51.64 L141.568,52 L144.976,52 L144.976,51.568 C144.864,51.536 144.76,51.488 144.664,51.424 C144.568,51.36 144.48,51.256 144.4,51.112 L144.4,51.112 L140.512,42.952 C140.432,42.776 140.356,42.62 140.284,42.484 C140.212,42.348 140.176,42.232 140.176,42.136 C140.176,42.024 140.204,41.96 140.26,41.944 C140.316,41.928 140.368,41.904 140.416,41.872 L140.416,41.872 L140.416,41.44 L136.792,41.44 L136.792,41.872 C136.84,41.904 136.884,41.932 136.924,41.956 C136.964,41.98 136.984,42.04 136.984,42.136 C136.984,42.264 136.956,42.396 136.9,42.532 C136.844,42.668 136.768,42.848 136.672,43.072 L136.672,43.072 L133.096,50.872 C133.032,51 132.94,51.14 132.82,51.292 C132.7,51.444 132.544,51.536 132.352,51.568 L132.352,51.568 L132.352,52 L135.568,52 Z M140.368,47.584 L136.72,47.584 L138.424,43.552 L140.368,47.584 Z M150.352,52 L150.352,51.568 C150.016,51.568 149.848,51.448 149.848,51.208 L149.848,51.208 L149.848,47.608 L153.928,47.608 C155.224,47.608 156.196,47.388 156.844,46.948 C157.492,46.508 157.816,45.712 157.816,44.56 C157.816,43.408 157.492,42.6 156.844,42.136 C156.196,41.672 155.224,41.44 153.928,41.44 L153.928,41.44 L146.944,41.44 L146.944,41.872 C147.344,41.872 147.544,41.992 147.544,42.232 L147.544,42.232 L147.544,51.208 C147.544,51.448 147.344,51.568 146.944,51.568 L146.944,51.568 L146.944,52 L150.352,52 Z M153.88,45.832 L149.848,45.832 L149.848,43.216 L153.88,43.216 C154.344,43.216 154.732,43.316 155.044,43.516 C155.356,43.716 155.512,44.064 155.512,44.56 C155.512,45.072 155.356,45.412 155.044,45.58 C154.732,45.748 154.344,45.832 153.88,45.832 L153.88,45.832 Z" fill="#000000" fill-rule="nonzero"></path>
        <path d="M221.32,30.312 L221.32,27.12 L221.032,27.12 C221.032,27.44 220.956,27.632 220.804,27.696 C220.652,27.76 220.488,27.792 220.312,27.792 L220.312,27.792 L212.392,27.792 L212.392,27.552 C212.824,27.152 213.324,26.824 213.892,26.568 C214.46,26.312 215.052,26.068 215.668,25.836 C216.284,25.604 216.888,25.368 217.48,25.128 C218.072,24.888 218.604,24.596 219.076,24.252 C219.548,23.908 219.928,23.488 220.216,22.992 C220.504,22.496 220.648,21.872 220.648,21.12 C220.648,20.416 220.508,19.82 220.228,19.332 C219.948,18.844 219.58,18.444 219.124,18.132 C218.668,17.82 218.148,17.592 217.564,17.448 C216.98,17.304 216.384,17.232 215.776,17.232 C214.848,17.232 214.048,17.352 213.376,17.592 C212.704,17.832 212.144,18.096 211.696,18.384 C211.248,18.672 210.896,18.936 210.64,19.176 C210.384,19.416 210.208,19.536 210.112,19.536 C210.032,19.536 209.96,19.52 209.896,19.488 L209.896,19.488 L209.704,19.392 L209.464,19.56 L211.936,22.2 L212.176,22.032 C212.112,21.984 212.06,21.896 212.02,21.768 C211.98,21.64 211.96,21.536 211.96,21.456 C211.96,21.12 212.092,20.82 212.356,20.556 C212.62,20.292 212.936,20.064 213.304,19.872 C213.672,19.68 214.056,19.536 214.456,19.44 C214.856,19.344 215.192,19.296 215.464,19.296 C215.736,19.296 216.016,19.32 216.304,19.368 C216.592,19.416 216.856,19.508 217.096,19.644 C217.336,19.78 217.532,19.956 217.684,20.172 C217.836,20.388 217.912,20.664 217.912,21 C217.912,21.496 217.7,21.928 217.276,22.296 C216.852,22.664 216.32,23.02 215.68,23.364 C215.04,23.708 214.352,24.056 213.616,24.408 C212.88,24.76 212.192,25.168 211.552,25.632 C210.912,26.096 210.38,26.632 209.956,27.24 C209.532,27.848 209.32,28.576 209.32,29.424 L209.32,29.424 L209.32,30.288 L209.608,30.288 C209.608,30.144 209.664,30.06 209.776,30.036 C209.888,30.012 210.032,30 210.208,30 L210.208,30 L220.312,30 C220.488,30 220.652,30.008 220.804,30.024 C220.956,30.04 221.032,30.136 221.032,30.312 L221.032,30.312 L221.32,30.312 Z" id="2" fill="#000000" fill-rule="nonzero"></path>
        <rect id="Rectangle" stroke="#000000" stroke-width="3" x="17.5" y="258.5" width="225" height="83" rx="8"></rect>
        <g id="Shield" transform="translate(228.000000, 14.000000)">
            <path d="M8.49995999,0.602112563 C12.0897673,3.01641898 14.3691227,5.26828283 15.2949432,7.38765451 C16.2117539,9.48640089 16.5982137,12.4858222 16.4790644,16.3788474 C14.3118398,16.4138174 12.5519303,16.6869111 11.1969506,17.1872006 C9.99244943,17.63193 9.09798447,18.2570837 8.49839684,19.0475319 C7.89890333,18.2569851 7.00448445,17.6318949 5.80007824,17.1872006 C4.44518737,16.6869438 2.68541961,16.4138532 0.518468664,16.3785506 C0.406586815,12.4686409 0.792651083,9.46951569 1.70208563,7.38765451 C2.62063669,5.28492398 4.90094203,3.03287984 8.49995999,0.602112563 Z" id="Triangle" stroke="#000000" transform="translate(8.500000, 10.000000) scale(1, -1) translate(-8.500000, -10.000000) "></path>
            <path d="M8.49896481,3 C11.1890912,4.79034724 12.8741761,6.46743058 13.5542196,8.03125 C14.2342631,9.59506942 14.5151106,11.8554861 14.3967621,14.8125 C11.167016,14.8125 9.20108353,15.5416667 8.49896481,17 C7.79684609,15.5416667 5.83091366,14.8125 2.60116754,14.8125 C2.48836139,11.8427409 2.76920888,9.58232426 3.44371001,8.03125 C4.11821113,6.48017574 5.80329607,4.80309241 8.49896481,3 Z" id="Triangle-Copy" fill="#000000" transform="translate(8.500000, 10.000000) scale(1, -1) translate(-8.500000, -10.000000) "></path>
        </g>
    </g>
</svg>