<?xml version="1.0" encoding="UTF-8"?>
<svg width="262px" height="360px" viewBox="0 0 262 360" version="1.1" xmlns="http://www.w3.org/2000/svg" xmlns:xlink="http://www.w3.org/1999/xlink">
    <title>Headache 1</title>
    <g id="Headache-1" stroke="none" stroke-width="1" fill="none" fill-rule="evenodd">
        <g id="Group" transform="translate(9.000000, 9.000000)" fill="#FFFFFF" stroke="#000000" stroke-width="3">
            <g id="Rectangle">
                <rect x="1.5" y="1.5" width="239" height="337" rx="8"></rect>
            </g>
        </g>
        <path d="M216.124,30 L216.124,29.712 C215.964,29.712 215.82,29.668 215.692,29.58 C215.564,29.492 215.5,29.312 215.5,29.04 L215.5,29.04 L215.5,18.048 C215.5,17.888 215.564,17.768 215.692,17.688 C215.82,17.608 215.98,17.552 216.172,17.52 L216.172,17.52 L216.172,17.232 L212.284,17.232 L212.284,17.52 C212.46,17.552 212.6,17.6 212.704,17.664 C212.808,17.728 212.86,17.872 212.86,18.096 C212.86,18.336 212.768,18.54 212.584,18.708 C212.4,18.876 212.172,18.96 211.9,18.96 C211.772,18.96 211.636,18.932 211.492,18.876 C211.348,18.82 211.276,18.72 211.276,18.576 L211.276,18.576 L210.988,18.576 L210.988,21.6 L211.276,21.6 C211.324,21.472 211.408,21.372 211.528,21.3 C211.648,21.228 211.78,21.172 211.924,21.132 C212.068,21.092 212.216,21.064 212.368,21.048 C212.52,21.032 212.652,21.024 212.764,21.024 L212.764,21.024 L212.764,29.04 C212.764,29.312 212.704,29.492 212.584,29.58 C212.464,29.668 212.324,29.712 212.164,29.712 L212.164,29.712 L212.164,30 L216.124,30 Z" id="1" fill="#000000" fill-rule="nonzero"></path>
        <g id="Face" transform="translate(225.000000, 15.000000)">
            <circle id="Oval" stroke="#000000" fill="#FFFFFF" cx="9.5" cy="9.5" r="9"></circle>
            <circle id="Oval" fill="#000000" cx="5" cy="8" r="1"></circle>
            <circle id="Oval-Copy" fill="#000000" cx="12" cy="8" r="1"></circle>
            <line x1="12.0789474" y1="13.9090909" x2="14.5" y2="11.5" id="Line-4" stroke="#000000" stroke-linecap="round"></line>
            <path d="M3,5.89285714 C3.41025641,5.96428571 3.76923077,6 4.07692308,6 C4.38461538,6 5.35897436,5.33333333 7,4" id="Line-2" stroke="#000000"></path>
            <path d="M6,15 C6.96078431,14.3333333 8.07598039,14 9.34558824,14 C10.6151961,14 11.8333333,14.3333333 13,15" id="Line" stroke="#000000" stroke-linecap="round" stroke-linejoin="round"></path>
            <path d="M11.3197366,4.68245322 C11.585843,4.80663622 11.7912611,4.92388646 11.9359908,5.03420394 C12.548667,5.50120471 13.1333088,5.70898724 13.3155349,5.80010028 C13.5440857,5.91437569 13.8101922,6.00751295 14.1138542,6.07951204" id="Line-3" stroke="#000000" stroke-linecap="square" transform="translate(12.716795, 5.380983) rotate(-3.000000) translate(-12.716795, -5.380983) "></path>
            <path d="M2.999,9.347 L3.01687864,9.39698204 C3.09438102,9.62639002 3.1880913,9.89570266 3.30282211,10.2112791 C3.48139895,10.7024692 3.54804655,11.0169045 3.47980817,11.2204078 C3.41244402,11.421304 3.17143148,11.4011566 3.01518318,11.4416373 L3.01518318,11.4416373 L2.86575433,11.4813457 C2.78836954,11.5029149 2.70310591,11.5126925 2.63007237,11.4810832 C2.58941161,11.463485 2.56030088,11.4264037 2.54036126,11.376794 C2.4446463,11.1386559 2.49784548,10.759559 2.69717789,10.2112791 C2.8119087,9.89570266 2.90561898,9.62639002 2.98312136,9.39698204 L2.999,9.347 Z" id="Oval" stroke="#000000"></path>
            <path d="M16,6.347 L16.0168786,6.39698204 C16.094381,6.62639002 16.1880913,6.89570266 16.3028221,7.21127907 C16.481399,7.70246915 16.5480465,8.01690453 16.4798082,8.22040783 C16.412444,8.42130397 16.1714315,8.40115659 16.0151832,8.44163726 L16.0151832,8.44163726 L15.8657543,8.48134574 C15.7883695,8.50291486 15.7031059,8.51269255 15.6300724,8.48108319 C15.5894116,8.46348497 15.5603009,8.42640366 15.5403613,8.37679403 C15.4446463,8.13865595 15.4978455,7.75955902 15.6971779,7.21127907 C15.8119087,6.89570266 15.905619,6.62639002 15.9831214,6.39698204 L16,6.347 Z" id="Oval-Copy-2" stroke="#000000"></path>
        </g>
        <rect id="Rectangle" stroke="#000000" stroke-width="3" x="17.5" y="259.5" width="225" height="82" rx="8"></rect>
        <path d="M52.808,57 L52.808,56.352 C52.64,56.352 52.49,56.298 52.358,56.19 C52.226,56.082 52.16,55.92 52.16,55.704 L52.16,55.704 L52.16,48.936 L63.752,48.936 L63.752,55.704 C63.752,56.136 63.488,56.352 62.96,56.352 L62.96,56.352 L62.96,57 L68.504,57 L68.504,56.352 C68.336,56.352 68.186,56.298 68.054,56.19 C67.922,56.082 67.856,55.92 67.856,55.704 L67.856,55.704 L67.856,39.36 C67.856,39.144 67.922,38.982 68.054,38.874 C68.186,38.766 68.336,38.712 68.504,38.712 L68.504,38.712 L68.504,38.064 L62.96,38.064 L62.96,38.712 C63.488,38.712 63.752,38.928 63.752,39.36 L63.752,39.36 L63.752,45.48 L52.16,45.48 L52.16,39.36 C52.16,39.144 52.226,38.982 52.358,38.874 C52.49,38.766 52.64,38.712 52.808,38.712 L52.808,38.712 L52.808,38.064 L47.372,38.064 L47.372,38.712 C47.828,38.712 48.056,38.928 48.056,39.36 L48.056,39.36 L48.056,55.704 C48.056,56.136 47.828,56.352 47.372,56.352 L47.372,56.352 L47.372,57 L52.808,57 Z M89.78,57.396 L89.78,53.616 L89.132,53.616 C89.132,53.832 89.036,54.006 88.844,54.138 C88.652,54.27 88.412,54.336 88.124,54.336 L88.124,54.336 L78.908,54.336 L78.908,50.088 L84.164,50.088 C84.644,50.088 85.016,50.118 85.28,50.178 C85.544,50.238 85.64,50.4 85.568,50.664 L85.568,50.664 L86.288,50.664 L86.288,46.848 L85.64,46.848 C85.64,47.112 85.544,47.274 85.352,47.334 C85.16,47.394 84.86,47.424 84.452,47.424 L84.452,47.424 L78.908,47.424 L78.908,43.824 L87.692,43.824 C88.436,43.824 88.808,44.052 88.808,44.508 L88.808,44.508 L89.456,44.508 L89.456,40.512 L88.808,40.512 C88.808,40.944 88.436,41.16 87.692,41.16 L87.692,41.16 L74.912,41.16 L74.912,41.808 C75.032,41.808 75.152,41.85 75.272,41.934 C75.392,42.018 75.452,42.156 75.452,42.348 L75.452,42.348 L75.452,55.812 C75.452,56.004 75.392,56.142 75.272,56.226 C75.152,56.31 75.032,56.352 74.912,56.352 L74.912,56.352 L74.912,57 L88.124,57 C88.412,57 88.652,57.012 88.844,57.036 C89.036,57.06 89.132,57.18 89.132,57.396 L89.132,57.396 L89.78,57.396 Z M97.34,57 L97.34,56.352 C97.124,56.352 96.956,56.328 96.836,56.28 C96.716,56.232 96.656,56.112 96.656,55.92 C96.656,55.8 96.686,55.662 96.746,55.506 C96.806,55.35 96.884,55.176 96.98,54.984 L96.98,54.984 L97.988,53.04 L105.692,53.04 L106.664,55.092 C106.736,55.284 106.796,55.44 106.844,55.56 C106.892,55.68 106.916,55.812 106.916,55.956 C106.916,56.148 106.85,56.28 106.718,56.352 C106.586,56.424 106.46,56.46 106.34,56.46 L106.34,56.46 L106.34,57 L111.452,57 L111.452,56.352 C111.284,56.304 111.128,56.232 110.984,56.136 C110.84,56.04 110.708,55.884 110.588,55.668 L110.588,55.668 L104.756,43.428 C104.636,43.164 104.522,42.93 104.414,42.726 C104.306,42.522 104.252,42.348 104.252,42.204 C104.252,42.036 104.294,41.94 104.378,41.916 C104.462,41.892 104.54,41.856 104.612,41.808 L104.612,41.808 L104.612,41.16 L99.176,41.16 L99.176,41.808 C99.248,41.856 99.314,41.898 99.374,41.934 C99.434,41.97 99.464,42.06 99.464,42.204 C99.464,42.396 99.422,42.594 99.338,42.798 C99.254,43.002 99.14,43.272 98.996,43.608 L98.996,43.608 L93.632,55.308 C93.536,55.5 93.398,55.71 93.218,55.938 C93.038,56.166 92.804,56.304 92.516,56.352 L92.516,56.352 L92.516,57 L97.34,57 Z M104.54,50.376 L99.068,50.376 L101.624,44.328 L104.54,50.376 Z M124.556,57 C125.972,57 127.172,56.772 128.156,56.316 C129.14,55.86 129.944,55.266 130.568,54.534 C131.192,53.802 131.648,52.962 131.936,52.014 C132.224,51.066 132.368,50.088 132.368,49.08 C132.368,48.072 132.218,47.094 131.918,46.146 C131.618,45.198 131.15,44.358 130.514,43.626 C129.878,42.894 129.056,42.3 128.048,41.844 C127.04,41.388 125.828,41.16 124.412,41.16 L124.412,41.16 L114.404,41.16 L114.404,41.808 C114.956,41.808 115.232,41.988 115.232,42.348 L115.232,42.348 L115.232,55.812 C115.232,56.172 114.956,56.352 114.404,56.352 L114.404,56.352 L114.404,57 L124.556,57 Z M123.368,54.336 L118.688,54.336 L118.688,43.824 L123.368,43.824 C124.112,43.824 124.82,43.866 125.492,43.95 C126.164,44.034 126.752,44.25 127.256,44.598 C127.76,44.946 128.162,45.462 128.462,46.146 C128.762,46.83 128.912,47.772 128.912,48.972 C128.912,50.172 128.762,51.126 128.462,51.834 C128.162,52.542 127.76,53.082 127.256,53.454 C126.752,53.826 126.164,54.066 125.492,54.174 C124.82,54.282 124.112,54.336 123.368,54.336 L123.368,54.336 Z M139.352,57 L139.352,56.352 C139.136,56.352 138.968,56.328 138.848,56.28 C138.728,56.232 138.668,56.112 138.668,55.92 C138.668,55.8 138.698,55.662 138.758,55.506 C138.818,55.35 138.896,55.176 138.992,54.984 L138.992,54.984 L140,53.04 L147.704,53.04 L148.676,55.092 C148.748,55.284 148.808,55.44 148.856,55.56 C148.904,55.68 148.928,55.812 148.928,55.956 C148.928,56.148 148.862,56.28 148.73,56.352 C148.598,56.424 148.472,56.46 148.352,56.46 L148.352,56.46 L148.352,57 L153.464,57 L153.464,56.352 C153.296,56.304 153.14,56.232 152.996,56.136 C152.852,56.04 152.72,55.884 152.6,55.668 L152.6,55.668 L146.768,43.428 C146.648,43.164 146.534,42.93 146.426,42.726 C146.318,42.522 146.264,42.348 146.264,42.204 C146.264,42.036 146.306,41.94 146.39,41.916 C146.474,41.892 146.552,41.856 146.624,41.808 L146.624,41.808 L146.624,41.16 L141.188,41.16 L141.188,41.808 C141.26,41.856 141.326,41.898 141.386,41.934 C141.446,41.97 141.476,42.06 141.476,42.204 C141.476,42.396 141.434,42.594 141.35,42.798 C141.266,43.002 141.152,43.272 141.008,43.608 L141.008,43.608 L135.644,55.308 C135.548,55.5 135.41,55.71 135.23,55.938 C135.05,56.166 134.816,56.304 134.528,56.352 L134.528,56.352 L134.528,57 L139.352,57 Z M146.552,50.376 L141.08,50.376 L143.636,44.328 L146.552,50.376 Z M164.156,57.108 C165.236,57.108 166.214,57.012 167.09,56.82 C167.966,56.628 168.734,56.394 169.394,56.118 C170.054,55.842 170.6,55.596 171.032,55.38 C171.464,55.164 171.776,55.056 171.968,55.056 C172.088,55.056 172.292,55.116 172.58,55.236 L172.58,55.236 L172.94,55.056 L170.276,51.24 L169.88,51.6 C169.904,51.696 169.916,51.816 169.916,51.96 L169.916,51.96 L169.916,52.248 C169.916,52.464 169.742,52.704 169.394,52.968 C169.046,53.232 168.596,53.478 168.044,53.706 C167.492,53.934 166.88,54.132 166.208,54.3 C165.536,54.468 164.876,54.552 164.228,54.552 C163.532,54.552 162.848,54.426 162.176,54.174 C161.504,53.922 160.904,53.55 160.376,53.058 C159.848,52.566 159.422,51.978 159.098,51.294 C158.774,50.61 158.612,49.836 158.612,48.972 C158.612,48.108 158.756,47.34 159.044,46.668 C159.332,45.996 159.74,45.432 160.268,44.976 C160.796,44.52 161.414,44.178 162.122,43.95 C162.83,43.722 163.616,43.608 164.48,43.608 C165.2,43.608 165.86,43.674 166.46,43.806 C167.06,43.938 167.582,44.1 168.026,44.292 C168.47,44.484 168.812,44.682 169.052,44.886 C169.292,45.09 169.412,45.252 169.412,45.372 C169.412,45.444 169.418,45.504 169.43,45.552 C169.442,45.6 169.448,45.648 169.448,45.696 L169.448,45.696 L169.844,45.984 L172.22,42.564 L171.788,42.312 C171.692,42.36 171.602,42.42 171.518,42.492 C171.434,42.564 171.332,42.6 171.212,42.6 C171.044,42.6 170.768,42.516 170.384,42.348 C170,42.18 169.52,41.988 168.944,41.772 C168.368,41.556 167.702,41.364 166.946,41.196 C166.19,41.028 165.356,40.944 164.444,40.944 C163.268,40.944 162.122,41.112 161.006,41.448 C159.89,41.784 158.9,42.294 158.036,42.978 C157.172,43.662 156.476,44.508 155.948,45.516 C155.42,46.524 155.156,47.7 155.156,49.044 C155.156,50.388 155.42,51.57 155.948,52.59 C156.476,53.61 157.16,54.462 158,55.146 C158.84,55.83 159.8,56.328 160.88,56.64 C161.96,56.952 163.052,57.108 164.156,57.108 Z M181.724,57 L181.724,56.352 C181.58,56.352 181.454,56.31 181.346,56.226 C181.238,56.142 181.184,56.004 181.184,55.812 L181.184,55.812 L181.184,50.376 L190.832,50.376 L190.832,55.812 C190.832,56.004 190.778,56.142 190.67,56.226 C190.562,56.31 190.436,56.352 190.292,56.352 L190.292,56.352 L190.292,57 L194.828,57 L194.828,56.352 C194.684,56.352 194.558,56.31 194.45,56.226 C194.342,56.142 194.288,56.004 194.288,55.812 L194.288,55.812 L194.288,42.348 C194.288,42.156 194.342,42.018 194.45,41.934 C194.558,41.85 194.684,41.808 194.828,41.808 L194.828,41.808 L194.828,41.16 L190.292,41.16 L190.292,41.808 C190.436,41.808 190.562,41.85 190.67,41.934 C190.778,42.018 190.832,42.156 190.832,42.348 L190.832,42.348 L190.832,47.424 L181.184,47.424 L181.184,42.348 C181.184,42.156 181.238,42.018 181.346,41.934 C181.454,41.85 181.58,41.808 181.724,41.808 L181.724,41.808 L181.724,41.16 L177.188,41.16 L177.188,41.808 C177.332,41.808 177.458,41.85 177.566,41.934 C177.674,42.018 177.728,42.156 177.728,42.348 L177.728,42.348 L177.728,55.812 C177.728,56.004 177.674,56.142 177.566,56.226 C177.458,56.31 177.332,56.352 177.188,56.352 L177.188,56.352 L177.188,57 L181.724,57 Z M215.852,57.396 L215.852,53.616 L215.204,53.616 C215.204,53.832 215.108,54.006 214.916,54.138 C214.724,54.27 214.484,54.336 214.196,54.336 L214.196,54.336 L204.98,54.336 L204.98,50.088 L210.236,50.088 C210.716,50.088 211.088,50.118 211.352,50.178 C211.616,50.238 211.712,50.4 211.64,50.664 L211.64,50.664 L212.36,50.664 L212.36,46.848 L211.712,46.848 C211.712,47.112 211.616,47.274 211.424,47.334 C211.232,47.394 210.932,47.424 210.524,47.424 L210.524,47.424 L204.98,47.424 L204.98,43.824 L213.764,43.824 C214.508,43.824 214.88,44.052 214.88,44.508 L214.88,44.508 L215.528,44.508 L215.528,40.512 L214.88,40.512 C214.88,40.944 214.508,41.16 213.764,41.16 L213.764,41.16 L200.984,41.16 L200.984,41.808 C201.104,41.808 201.224,41.85 201.344,41.934 C201.464,42.018 201.524,42.156 201.524,42.348 L201.524,42.348 L201.524,55.812 C201.524,56.004 201.464,56.142 201.344,56.226 C201.224,56.31 201.104,56.352 200.984,56.352 L200.984,56.352 L200.984,57 L214.196,57 C214.484,57 214.724,57.012 214.916,57.036 C215.108,57.06 215.204,57.18 215.204,57.396 L215.204,57.396 L215.852,57.396 Z" id="Headache" fill="#000000" fill-rule="nonzero"></path>
        <path d="M53.483,278 L53.483,277.676 C53.171,277.676 53.015,277.568 53.015,277.352 L53.015,277.352 L53.015,269.18 C53.015,268.964 53.171,268.856 53.483,268.856 L53.483,268.856 L53.483,268.532 L50.495,268.532 L50.495,268.856 C50.807,268.856 50.963,268.964 50.963,269.18 L50.963,269.18 L50.963,277.352 C50.963,277.568 50.807,277.676 50.495,277.676 L50.495,277.676 L50.495,278 L53.483,278 Z M64.193,278 L64.193,277.676 C63.989,277.676 63.887,277.586 63.887,277.406 L63.887,277.406 L63.887,272.348 L63.905,272.348 L66.803,278 L66.947,278 L70.007,272.348 L70.043,272.348 L70.043,277.406 C70.079,277.586 69.971,277.676 69.719,277.676 L69.719,277.676 L69.719,278 L71.807,278 L71.807,277.676 C71.747,277.676 71.69,277.655 71.636,277.613 C71.582,277.571 71.555,277.502 71.555,277.406 L71.555,277.406 L71.555,270.638 C71.555,270.542 71.582,270.479 71.636,270.449 C71.69,270.419 71.747,270.404 71.807,270.404 L71.807,270.404 L71.807,270.08 L69.269,270.08 L69.269,270.404 C69.365,270.404 69.413,270.458 69.413,270.566 C69.413,270.602 69.389,270.665 69.341,270.755 C69.293,270.845 69.227,270.962 69.143,271.106 L69.143,271.106 L66.929,275.138 L64.733,271.088 C64.649,270.944 64.586,270.833 64.544,270.755 C64.502,270.677 64.481,270.614 64.481,270.566 C64.481,270.458 64.541,270.404 64.661,270.404 L64.661,270.404 L64.661,270.08 L62.159,270.08 L62.159,270.404 C62.243,270.404 62.3,270.422 62.33,270.458 C62.36,270.494 62.375,270.596 62.375,270.764 L62.375,270.764 L62.375,277.352 C62.375,277.484 62.354,277.568 62.312,277.604 C62.27,277.64 62.219,277.664 62.159,277.676 L62.159,277.676 L62.159,278 L64.193,278 Z M79.547,278.054 C80.267,278.054 80.894,277.979 81.428,277.829 C81.962,277.679 82.4,277.472 82.742,277.208 C83.084,276.944 83.339,276.641 83.507,276.299 C83.675,275.957 83.759,275.6 83.759,275.228 L83.759,275.228 L83.759,270.674 C83.759,270.494 83.891,270.404 84.155,270.404 L84.155,270.404 L84.155,270.08 L81.653,270.08 L81.653,270.404 C81.953,270.404 82.103,270.494 82.103,270.674 L82.103,270.674 L82.103,274.796 C82.103,275.372 81.893,275.834 81.473,276.182 C81.053,276.53 80.411,276.704 79.547,276.704 C78.683,276.704 78.041,276.53 77.621,276.182 C77.201,275.834 76.991,275.372 76.991,274.796 L76.991,274.796 L76.991,270.674 C76.991,270.494 77.123,270.404 77.387,270.404 L77.387,270.404 L77.387,270.08 L74.813,270.08 L74.813,270.404 C75.017,270.404 75.155,270.425 75.227,270.467 C75.299,270.509 75.335,270.578 75.335,270.674 L75.335,270.674 L75.335,275.228 C75.335,275.6 75.419,275.957 75.587,276.299 C75.755,276.641 76.01,276.944 76.352,277.208 C76.694,277.472 77.132,277.679 77.666,277.829 C78.2,277.979 78.827,278.054 79.547,278.054 Z M90.347,278.054 C90.755,278.054 91.19,278.024 91.652,277.964 C92.114,277.904 92.537,277.778 92.921,277.586 C93.305,277.394 93.626,277.13 93.884,276.794 C94.142,276.458 94.271,276.026 94.271,275.498 C94.271,274.97 94.124,274.556 93.83,274.256 C93.536,273.956 93.167,273.728 92.723,273.572 C92.279,273.416 91.799,273.305 91.283,273.239 C90.767,273.173 90.287,273.107 89.843,273.041 C89.399,272.975 89.03,272.885 88.736,272.771 C88.442,272.657 88.295,272.468 88.295,272.204 C88.295,272.036 88.343,271.895 88.439,271.781 C88.535,271.667 88.667,271.574 88.835,271.502 C89.003,271.43 89.195,271.379 89.411,271.349 C89.627,271.319 89.855,271.304 90.095,271.304 C90.719,271.304 91.283,271.376 91.787,271.52 C92.291,271.664 92.663,271.838 92.903,272.042 C92.999,272.114 93.053,272.186 93.065,272.258 L93.065,272.258 L93.101,272.474 L93.425,272.582 L94.325,270.89 L94.127,270.692 C94.055,270.728 93.995,270.761 93.947,270.791 C93.899,270.821 93.827,270.836 93.731,270.836 C93.647,270.836 93.518,270.791 93.344,270.701 C93.17,270.611 92.945,270.512 92.669,270.404 C92.393,270.296 92.054,270.197 91.652,270.107 C91.25,270.017 90.767,269.972 90.203,269.972 C89.051,269.972 88.157,270.2 87.521,270.656 C86.885,271.112 86.567,271.724 86.567,272.492 C86.567,273.008 86.714,273.407 87.008,273.689 C87.302,273.971 87.671,274.187 88.115,274.337 C88.559,274.487 89.039,274.595 89.555,274.661 C90.071,274.727 90.551,274.793 90.995,274.859 C91.439,274.925 91.808,275.018 92.102,275.138 C92.396,275.258 92.543,275.45 92.543,275.714 C92.543,275.942 92.459,276.125 92.291,276.263 C92.123,276.401 91.919,276.509 91.679,276.587 C91.439,276.665 91.196,276.716 90.95,276.74 C90.704,276.764 90.497,276.776 90.329,276.776 C90.149,276.776 89.9,276.746 89.582,276.686 C89.264,276.626 88.946,276.545 88.628,276.443 C88.31,276.341 88.037,276.215 87.809,276.065 C87.581,275.915 87.467,275.75 87.467,275.57 C87.467,275.51 87.47,275.453 87.476,275.399 C87.482,275.345 87.485,275.294 87.485,275.246 L87.485,275.246 L87.143,275.156 L86.315,277.172 L86.567,277.352 C86.627,277.28 86.699,277.244 86.783,277.244 C86.831,277.244 86.969,277.289 87.197,277.379 C87.425,277.469 87.704,277.565 88.034,277.667 C88.364,277.769 88.73,277.859 89.132,277.937 C89.534,278.015 89.939,278.054 90.347,278.054 Z M101.183,278 L101.183,277.676 C100.967,277.676 100.859,277.586 100.859,277.406 L100.859,277.406 L100.859,271.412 L103.199,271.412 C103.295,271.412 103.385,271.436 103.469,271.484 C103.553,271.532 103.595,271.61 103.595,271.718 L103.595,271.718 L103.919,271.718 L103.919,269.648 L103.595,269.648 C103.595,269.816 103.553,269.93 103.469,269.99 C103.385,270.05 103.295,270.08 103.199,270.08 L103.199,270.08 L96.791,270.08 C96.695,270.08 96.605,270.05 96.521,269.99 C96.437,269.93 96.395,269.816 96.395,269.648 L96.395,269.648 L96.071,269.648 L96.071,271.718 L96.395,271.718 C96.395,271.61 96.437,271.532 96.521,271.484 C96.605,271.436 96.695,271.412 96.791,271.412 L96.791,271.412 L99.131,271.412 L99.131,277.406 C99.131,277.502 99.101,277.571 99.041,277.613 C98.981,277.655 98.921,277.676 98.861,277.676 L98.861,277.676 L98.861,278 L101.183,278 Z M113.837,278 L113.837,277.676 C113.765,277.676 113.702,277.655 113.648,277.613 C113.594,277.571 113.567,277.502 113.567,277.406 L113.567,277.406 L113.567,274.688 L118.391,274.688 L118.391,277.406 C118.391,277.502 118.364,277.571 118.31,277.613 C118.256,277.655 118.193,277.676 118.121,277.676 L118.121,277.676 L118.121,278 L120.389,278 L120.389,277.676 C120.317,277.676 120.254,277.655 120.2,277.613 C120.146,277.571 120.119,277.502 120.119,277.406 L120.119,277.406 L120.119,270.674 C120.119,270.578 120.146,270.509 120.2,270.467 C120.254,270.425 120.317,270.404 120.389,270.404 L120.389,270.404 L120.389,270.08 L118.121,270.08 L118.121,270.404 C118.193,270.404 118.256,270.425 118.31,270.467 C118.364,270.509 118.391,270.578 118.391,270.674 L118.391,270.674 L118.391,273.212 L113.567,273.212 L113.567,270.674 C113.567,270.578 113.594,270.509 113.648,270.467 C113.702,270.425 113.765,270.404 113.837,270.404 L113.837,270.404 L113.837,270.08 L111.569,270.08 L111.569,270.404 C111.641,270.404 111.704,270.425 111.758,270.467 C111.812,270.509 111.839,270.578 111.839,270.674 L111.839,270.674 L111.839,277.406 C111.839,277.502 111.812,277.571 111.758,277.613 C111.704,277.655 111.641,277.676 111.569,277.676 L111.569,277.676 L111.569,278 L113.837,278 Z M124.673,278 L124.673,277.676 C124.565,277.676 124.481,277.664 124.421,277.64 C124.361,277.616 124.331,277.556 124.331,277.46 C124.331,277.4 124.346,277.331 124.376,277.253 C124.406,277.175 124.445,277.088 124.493,276.992 L124.493,276.992 L124.997,276.02 L128.849,276.02 L129.335,277.046 C129.371,277.142 129.401,277.22 129.425,277.28 C129.449,277.34 129.461,277.406 129.461,277.478 C129.461,277.574 129.428,277.64 129.362,277.676 C129.296,277.712 129.233,277.73 129.173,277.73 L129.173,277.73 L129.173,278 L131.729,278 L131.729,277.676 C131.645,277.652 131.567,277.616 131.495,277.568 C131.423,277.52 131.357,277.442 131.297,277.334 L131.297,277.334 L128.381,271.214 C128.321,271.082 128.264,270.965 128.21,270.863 C128.156,270.761 128.129,270.674 128.129,270.602 C128.129,270.518 128.15,270.47 128.192,270.458 C128.234,270.446 128.273,270.428 128.309,270.404 L128.309,270.404 L128.309,270.08 L125.591,270.08 L125.591,270.404 C125.627,270.428 125.66,270.449 125.69,270.467 C125.72,270.485 125.735,270.53 125.735,270.602 C125.735,270.698 125.714,270.797 125.672,270.899 C125.63,271.001 125.573,271.136 125.501,271.304 L125.501,271.304 L122.819,277.154 C122.771,277.25 122.702,277.355 122.612,277.469 C122.522,277.583 122.405,277.652 122.261,277.676 L122.261,277.676 L122.261,278 L124.673,278 Z M128.273,274.688 L125.537,274.688 L126.815,271.664 L128.273,274.688 Z M138.425,278 L138.425,277.676 C138.209,277.64 138.101,277.586 138.101,277.514 C138.101,277.454 138.134,277.37 138.2,277.262 C138.266,277.154 138.365,276.944 138.497,276.632 L138.497,276.632 L141.125,270.818 C141.257,270.542 141.407,270.404 141.575,270.404 L141.575,270.404 L141.575,270.08 L139.217,270.08 L139.217,270.404 C139.385,270.404 139.475,270.476 139.487,270.62 C139.499,270.704 139.469,270.818 139.397,270.962 C139.325,271.106 139.223,271.322 139.091,271.61 L139.091,271.61 L137.129,275.966 L135.059,271.484 C134.975,271.304 134.9,271.139 134.834,270.989 C134.768,270.839 134.735,270.722 134.735,270.638 C134.735,270.482 134.807,270.404 134.951,270.404 L134.951,270.404 L134.951,270.08 L132.413,270.08 L132.413,270.404 C132.485,270.404 132.56,270.434 132.638,270.494 C132.716,270.554 132.779,270.638 132.827,270.746 L132.827,270.746 L135.563,276.632 C135.671,276.86 135.764,277.04 135.842,277.172 C135.92,277.304 135.959,277.4 135.959,277.46 C135.959,277.52 135.932,277.565 135.878,277.595 C135.824,277.625 135.767,277.652 135.707,277.676 L135.707,277.676 L135.707,278 L138.425,278 Z M150.917,278.198 L150.917,276.308 L150.593,276.308 C150.593,276.416 150.545,276.503 150.449,276.569 C150.353,276.635 150.233,276.668 150.089,276.668 L150.089,276.668 L145.481,276.668 L145.481,274.544 L148.109,274.544 C148.349,274.544 148.535,274.559 148.667,274.589 C148.799,274.619 148.847,274.7 148.811,274.832 L148.811,274.832 L149.171,274.832 L149.171,272.924 L148.847,272.924 C148.847,273.056 148.799,273.137 148.703,273.167 C148.607,273.197 148.457,273.212 148.253,273.212 L148.253,273.212 L145.481,273.212 L145.481,271.412 L149.873,271.412 C150.245,271.412 150.431,271.526 150.431,271.754 L150.431,271.754 L150.755,271.754 L150.755,269.756 L150.431,269.756 C150.431,269.972 150.245,270.08 149.873,270.08 L149.873,270.08 L143.483,270.08 L143.483,270.404 C143.543,270.404 143.603,270.425 143.663,270.467 C143.723,270.509 143.753,270.578 143.753,270.674 L143.753,270.674 L143.753,277.406 C143.753,277.502 143.723,277.571 143.663,277.613 C143.603,277.655 143.543,277.676 143.483,277.676 L143.483,277.676 L143.483,278 L150.089,278 C150.233,278 150.353,278.006 150.449,278.018 C150.545,278.03 150.593,278.09 150.593,278.198 L150.593,278.198 L150.917,278.198 Z M161.357,278 L161.357,277.676 C161.285,277.676 161.222,277.655 161.168,277.613 C161.114,277.571 161.087,277.502 161.087,277.406 L161.087,277.406 L161.087,274.688 L165.911,274.688 L165.911,277.406 C165.911,277.502 165.884,277.571 165.83,277.613 C165.776,277.655 165.713,277.676 165.641,277.676 L165.641,277.676 L165.641,278 L167.909,278 L167.909,277.676 C167.837,277.676 167.774,277.655 167.72,277.613 C167.666,277.571 167.639,277.502 167.639,277.406 L167.639,277.406 L167.639,270.674 C167.639,270.578 167.666,270.509 167.72,270.467 C167.774,270.425 167.837,270.404 167.909,270.404 L167.909,270.404 L167.909,270.08 L165.641,270.08 L165.641,270.404 C165.713,270.404 165.776,270.425 165.83,270.467 C165.884,270.509 165.911,270.578 165.911,270.674 L165.911,270.674 L165.911,273.212 L161.087,273.212 L161.087,270.674 C161.087,270.578 161.114,270.509 161.168,270.467 C161.222,270.425 161.285,270.404 161.357,270.404 L161.357,270.404 L161.357,270.08 L159.089,270.08 L159.089,270.404 C159.161,270.404 159.224,270.425 159.278,270.467 C159.332,270.509 159.359,270.578 159.359,270.674 L159.359,270.674 L159.359,277.406 C159.359,277.502 159.332,277.571 159.278,277.613 C159.224,277.655 159.161,277.676 159.089,277.676 L159.089,277.676 L159.089,278 L161.357,278 Z M173.867,278 L173.867,277.676 C173.531,277.676 173.363,277.586 173.363,277.406 L173.363,277.406 L173.363,270.674 C173.363,270.494 173.531,270.404 173.867,270.404 L173.867,270.404 L173.867,270.08 L171.131,270.08 L171.131,270.404 C171.323,270.404 171.455,270.425 171.527,270.467 C171.599,270.509 171.635,270.578 171.635,270.674 L171.635,270.674 L171.635,277.406 C171.635,277.502 171.599,277.571 171.527,277.613 C171.455,277.655 171.323,277.676 171.131,277.676 L171.131,277.676 L171.131,278 L173.867,278 Z M181.193,278 L181.193,277.676 C180.977,277.676 180.869,277.586 180.869,277.406 L180.869,277.406 L180.869,271.412 L183.209,271.412 C183.305,271.412 183.395,271.436 183.479,271.484 C183.563,271.532 183.605,271.61 183.605,271.718 L183.605,271.718 L183.929,271.718 L183.929,269.648 L183.605,269.648 C183.605,269.816 183.563,269.93 183.479,269.99 C183.395,270.05 183.305,270.08 183.209,270.08 L183.209,270.08 L176.801,270.08 C176.705,270.08 176.615,270.05 176.531,269.99 C176.447,269.93 176.405,269.816 176.405,269.648 L176.405,269.648 L176.081,269.648 L176.081,271.718 L176.405,271.718 C176.405,271.61 176.447,271.532 176.531,271.484 C176.615,271.436 176.705,271.412 176.801,271.412 L176.801,271.412 L179.141,271.412 L179.141,277.406 C179.141,277.502 179.111,277.571 179.051,277.613 C178.991,277.655 178.931,277.676 178.871,277.676 L178.871,277.676 L178.871,278 L181.193,278 Z M193.703,278 L193.703,277.676 C193.499,277.676 193.397,277.586 193.397,277.406 L193.397,277.406 L193.397,272.348 L193.415,272.348 L196.313,278 L196.457,278 L199.517,272.348 L199.553,272.348 L199.553,277.406 C199.589,277.586 199.481,277.676 199.229,277.676 L199.229,277.676 L199.229,278 L201.317,278 L201.317,277.676 C201.257,277.676 201.2,277.655 201.146,277.613 C201.092,277.571 201.065,277.502 201.065,277.406 L201.065,277.406 L201.065,270.638 C201.065,270.542 201.092,270.479 201.146,270.449 C201.2,270.419 201.257,270.404 201.317,270.404 L201.317,270.404 L201.317,270.08 L198.779,270.08 L198.779,270.404 C198.875,270.404 198.923,270.458 198.923,270.566 C198.923,270.602 198.899,270.665 198.851,270.755 C198.803,270.845 198.737,270.962 198.653,271.106 L198.653,271.106 L196.439,275.138 L194.243,271.088 C194.159,270.944 194.096,270.833 194.054,270.755 C194.012,270.677 193.991,270.614 193.991,270.566 C193.991,270.458 194.051,270.404 194.171,270.404 L194.171,270.404 L194.171,270.08 L191.669,270.08 L191.669,270.404 C191.753,270.404 191.81,270.422 191.84,270.458 C191.87,270.494 191.885,270.596 191.885,270.764 L191.885,270.764 L191.885,277.352 C191.885,277.484 191.864,277.568 191.822,277.604 C191.78,277.64 191.729,277.664 191.669,277.676 L191.669,277.676 L191.669,278 L193.703,278 Z M209.201,278 L209.201,277.676 C208.973,277.676 208.859,277.586 208.859,277.406 L208.859,277.406 L208.859,274.706 L211.613,271.142 C211.745,270.974 211.898,270.809 212.072,270.647 C212.246,270.485 212.405,270.404 212.549,270.404 L212.549,270.404 L212.549,270.08 L209.795,270.08 L209.795,270.404 C209.855,270.404 209.915,270.416 209.975,270.44 C210.035,270.464 210.065,270.524 210.065,270.62 C210.065,270.692 210.038,270.767 209.984,270.845 C209.93,270.923 209.849,271.04 209.741,271.196 L209.741,271.196 L208.139,273.428 L206.321,271.052 C206.261,270.968 206.207,270.896 206.159,270.836 C206.111,270.776 206.087,270.71 206.087,270.638 C206.087,270.566 206.123,270.509 206.195,270.467 C206.267,270.425 206.333,270.404 206.393,270.404 L206.393,270.404 L206.393,270.08 L203.423,270.08 L203.423,270.404 C203.531,270.404 203.645,270.428 203.765,270.476 C203.885,270.524 203.987,270.602 204.071,270.71 L204.071,270.71 L207.131,274.634 L207.131,277.406 C207.131,277.586 207.023,277.676 206.807,277.676 L206.807,277.676 L206.807,278 L209.201,278 Z M110.597,296 L110.597,295.676 C110.525,295.676 110.462,295.655 110.408,295.613 C110.354,295.571 110.327,295.502 110.327,295.406 L110.327,295.406 L110.327,292.688 L115.151,292.688 L115.151,295.406 C115.151,295.502 115.124,295.571 115.07,295.613 C115.016,295.655 114.953,295.676 114.881,295.676 L114.881,295.676 L114.881,296 L117.149,296 L117.149,295.676 C117.077,295.676 117.014,295.655 116.96,295.613 C116.906,295.571 116.879,295.502 116.879,295.406 L116.879,295.406 L116.879,288.674 C116.879,288.578 116.906,288.509 116.96,288.467 C117.014,288.425 117.077,288.404 117.149,288.404 L117.149,288.404 L117.149,288.08 L114.881,288.08 L114.881,288.404 C114.953,288.404 115.016,288.425 115.07,288.467 C115.124,288.509 115.151,288.578 115.151,288.674 L115.151,288.674 L115.151,291.212 L110.327,291.212 L110.327,288.674 C110.327,288.578 110.354,288.509 110.408,288.467 C110.462,288.425 110.525,288.404 110.597,288.404 L110.597,288.404 L110.597,288.08 L108.329,288.08 L108.329,288.404 C108.401,288.404 108.464,288.425 108.518,288.467 C108.572,288.509 108.599,288.578 108.599,288.674 L108.599,288.674 L108.599,295.406 C108.599,295.502 108.572,295.571 108.518,295.613 C108.464,295.655 108.401,295.676 108.329,295.676 L108.329,295.676 L108.329,296 L110.597,296 Z M127.661,296.198 L127.661,294.308 L127.337,294.308 C127.337,294.416 127.289,294.503 127.193,294.569 C127.097,294.635 126.977,294.668 126.833,294.668 L126.833,294.668 L122.225,294.668 L122.225,292.544 L124.853,292.544 C125.093,292.544 125.279,292.559 125.411,292.589 C125.543,292.619 125.591,292.7 125.555,292.832 L125.555,292.832 L125.915,292.832 L125.915,290.924 L125.591,290.924 C125.591,291.056 125.543,291.137 125.447,291.167 C125.351,291.197 125.201,291.212 124.997,291.212 L124.997,291.212 L122.225,291.212 L122.225,289.412 L126.617,289.412 C126.989,289.412 127.175,289.526 127.175,289.754 L127.175,289.754 L127.499,289.754 L127.499,287.756 L127.175,287.756 C127.175,287.972 126.989,288.08 126.617,288.08 L126.617,288.08 L120.227,288.08 L120.227,288.404 C120.287,288.404 120.347,288.425 120.407,288.467 C120.467,288.509 120.497,288.578 120.497,288.674 L120.497,288.674 L120.497,295.406 C120.497,295.502 120.467,295.571 120.407,295.613 C120.347,295.655 120.287,295.676 120.227,295.676 L120.227,295.676 L120.227,296 L126.833,296 C126.977,296 127.097,296.006 127.193,296.018 C127.289,296.03 127.337,296.09 127.337,296.198 L127.337,296.198 L127.661,296.198 Z M131.441,296 L131.441,295.676 C131.333,295.676 131.249,295.664 131.189,295.64 C131.129,295.616 131.099,295.556 131.099,295.46 C131.099,295.4 131.114,295.331 131.144,295.253 C131.174,295.175 131.213,295.088 131.261,294.992 L131.261,294.992 L131.765,294.02 L135.617,294.02 L136.103,295.046 C136.139,295.142 136.169,295.22 136.193,295.28 C136.217,295.34 136.229,295.406 136.229,295.478 C136.229,295.574 136.196,295.64 136.13,295.676 C136.064,295.712 136.001,295.73 135.941,295.73 L135.941,295.73 L135.941,296 L138.497,296 L138.497,295.676 C138.413,295.652 138.335,295.616 138.263,295.568 C138.191,295.52 138.125,295.442 138.065,295.334 L138.065,295.334 L135.149,289.214 C135.089,289.082 135.032,288.965 134.978,288.863 C134.924,288.761 134.897,288.674 134.897,288.602 C134.897,288.518 134.918,288.47 134.96,288.458 C135.002,288.446 135.041,288.428 135.077,288.404 L135.077,288.404 L135.077,288.08 L132.359,288.08 L132.359,288.404 C132.395,288.428 132.428,288.449 132.458,288.467 C132.488,288.485 132.503,288.53 132.503,288.602 C132.503,288.698 132.482,288.797 132.44,288.899 C132.398,289.001 132.341,289.136 132.269,289.304 L132.269,289.304 L129.587,295.154 C129.539,295.25 129.47,295.355 129.38,295.469 C129.29,295.583 129.173,295.652 129.029,295.676 L129.029,295.676 L129.029,296 L131.441,296 Z M135.041,292.688 L132.305,292.688 L133.583,289.664 L135.041,292.688 Z M145.049,296 C145.757,296 146.357,295.886 146.849,295.658 C147.341,295.43 147.743,295.133 148.055,294.767 C148.367,294.401 148.595,293.981 148.739,293.507 C148.883,293.033 148.955,292.544 148.955,292.04 C148.955,291.536 148.88,291.047 148.73,290.573 C148.58,290.099 148.346,289.679 148.028,289.313 C147.71,288.947 147.299,288.65 146.795,288.422 C146.291,288.194 145.685,288.08 144.977,288.08 L144.977,288.08 L139.973,288.08 L139.973,288.404 C140.249,288.404 140.387,288.494 140.387,288.674 L140.387,288.674 L140.387,295.406 C140.387,295.586 140.249,295.676 139.973,295.676 L139.973,295.676 L139.973,296 L145.049,296 Z M144.455,294.668 L142.115,294.668 L142.115,289.412 L144.455,289.412 C144.827,289.412 145.181,289.433 145.517,289.475 C145.853,289.517 146.147,289.625 146.399,289.799 C146.651,289.973 146.852,290.231 147.002,290.573 C147.152,290.915 147.227,291.386 147.227,291.986 C147.227,292.586 147.152,293.063 147.002,293.417 C146.852,293.771 146.651,294.041 146.399,294.227 C146.147,294.413 145.853,294.533 145.517,294.587 C145.181,294.641 144.827,294.668 144.455,294.668 L144.455,294.668 Z M152.501,296.054 C152.849,296.054 153.149,295.937 153.401,295.703 C153.653,295.469 153.779,295.178 153.779,294.83 C153.779,294.482 153.653,294.182 153.401,293.93 C153.149,293.678 152.849,293.552 152.501,293.552 C152.153,293.552 151.853,293.678 151.601,293.93 C151.349,294.182 151.223,294.482 151.223,294.83 C151.223,295.178 151.349,295.469 151.601,295.703 C151.853,295.937 152.153,296.054 152.501,296.054 Z M58.19,314 L58.19,313.676 C57.962,313.676 57.848,313.61 57.848,313.478 C57.848,313.37 57.908,313.19 58.028,312.938 L58.028,312.938 L58.676,311.66 L63.068,311.66 L63.752,312.992 C63.848,313.184 63.896,313.34 63.896,313.46 C63.896,313.532 63.86,313.586 63.788,313.622 C63.716,313.658 63.656,313.676 63.608,313.676 L63.608,313.676 L63.608,314 L66.776,314 L66.776,313.676 C66.644,313.616 66.527,313.556 66.425,313.496 C66.323,313.436 66.242,313.34 66.182,313.208 L66.182,313.208 L62.438,305.882 C62.354,305.726 62.291,305.6 62.249,305.504 C62.207,305.408 62.186,305.312 62.186,305.216 C62.186,305.084 62.228,304.997 62.312,304.955 C62.396,304.913 62.48,304.88 62.564,304.856 L62.564,304.856 L62.564,304.532 L59.522,304.532 L59.522,304.856 C59.618,304.88 59.708,304.916 59.792,304.964 C59.876,305.012 59.918,305.096 59.918,305.216 C59.918,305.312 59.885,305.426 59.819,305.558 C59.753,305.69 59.678,305.834 59.594,305.99 L59.594,305.99 L56.264,312.992 C56.18,313.16 56.093,313.31 56.003,313.442 C55.913,313.574 55.79,313.652 55.634,313.676 L55.634,313.676 L55.634,314 L58.19,314 Z M62.42,310.328 L59.216,310.328 L60.908,306.98 L62.42,310.328 Z M73.544,314 C74.252,314 74.852,313.886 75.344,313.658 C75.836,313.43 76.238,313.133 76.55,312.767 C76.862,312.401 77.09,311.981 77.234,311.507 C77.378,311.033 77.45,310.544 77.45,310.04 C77.45,309.536 77.375,309.047 77.225,308.573 C77.075,308.099 76.841,307.679 76.523,307.313 C76.205,306.947 75.794,306.65 75.29,306.422 C74.786,306.194 74.18,306.08 73.472,306.08 L73.472,306.08 L68.468,306.08 L68.468,306.404 C68.744,306.404 68.882,306.494 68.882,306.674 L68.882,306.674 L68.882,313.406 C68.882,313.586 68.744,313.676 68.468,313.676 L68.468,313.676 L68.468,314 L73.544,314 Z M72.95,312.668 L70.61,312.668 L70.61,307.412 L72.95,307.412 C73.322,307.412 73.676,307.433 74.012,307.475 C74.348,307.517 74.642,307.625 74.894,307.799 C75.146,307.973 75.347,308.231 75.497,308.573 C75.647,308.915 75.722,309.386 75.722,309.986 C75.722,310.586 75.647,311.063 75.497,311.417 C75.347,311.771 75.146,312.041 74.894,312.227 C74.642,312.413 74.348,312.533 74.012,312.587 C73.676,312.641 73.322,312.668 72.95,312.668 L72.95,312.668 Z M84.542,314 C85.25,314 85.85,313.886 86.342,313.658 C86.834,313.43 87.236,313.133 87.548,312.767 C87.86,312.401 88.088,311.981 88.232,311.507 C88.376,311.033 88.448,310.544 88.448,310.04 C88.448,309.536 88.373,309.047 88.223,308.573 C88.073,308.099 87.839,307.679 87.521,307.313 C87.203,306.947 86.792,306.65 86.288,306.422 C85.784,306.194 85.178,306.08 84.47,306.08 L84.47,306.08 L79.466,306.08 L79.466,306.404 C79.742,306.404 79.88,306.494 79.88,306.674 L79.88,306.674 L79.88,313.406 C79.88,313.586 79.742,313.676 79.466,313.676 L79.466,313.676 L79.466,314 L84.542,314 Z M83.948,312.668 L81.608,312.668 L81.608,307.412 L83.948,307.412 C84.32,307.412 84.674,307.433 85.01,307.475 C85.346,307.517 85.64,307.625 85.892,307.799 C86.144,307.973 86.345,308.231 86.495,308.573 C86.645,308.915 86.72,309.386 86.72,309.986 C86.72,310.586 86.645,311.063 86.495,311.417 C86.345,311.771 86.144,312.041 85.892,312.227 C85.64,312.413 85.346,312.533 85.01,312.587 C84.674,312.641 84.32,312.668 83.948,312.668 L83.948,312.668 Z M100.436,314 L100.436,313.676 C100.22,313.676 100.112,313.586 100.112,313.406 L100.112,313.406 L100.112,307.412 L102.452,307.412 C102.548,307.412 102.638,307.436 102.722,307.484 C102.806,307.532 102.848,307.61 102.848,307.718 L102.848,307.718 L103.172,307.718 L103.172,305.648 L102.848,305.648 C102.848,305.816 102.806,305.93 102.722,305.99 C102.638,306.05 102.548,306.08 102.452,306.08 L102.452,306.08 L96.044,306.08 C95.948,306.08 95.858,306.05 95.774,305.99 C95.69,305.93 95.648,305.816 95.648,305.648 L95.648,305.648 L95.324,305.648 L95.324,307.718 L95.648,307.718 C95.648,307.61 95.69,307.532 95.774,307.484 C95.858,307.436 95.948,307.412 96.044,307.412 L96.044,307.412 L98.384,307.412 L98.384,313.406 C98.384,313.502 98.354,313.571 98.294,313.613 C98.234,313.655 98.174,313.676 98.114,313.676 L98.114,313.676 L98.114,314 L100.436,314 Z M107.6,314 L107.6,313.676 C107.528,313.676 107.465,313.655 107.411,313.613 C107.357,313.571 107.33,313.502 107.33,313.406 L107.33,313.406 L107.33,310.688 L112.154,310.688 L112.154,313.406 C112.154,313.502 112.127,313.571 112.073,313.613 C112.019,313.655 111.956,313.676 111.884,313.676 L111.884,313.676 L111.884,314 L114.152,314 L114.152,313.676 C114.08,313.676 114.017,313.655 113.963,313.613 C113.909,313.571 113.882,313.502 113.882,313.406 L113.882,313.406 L113.882,306.674 C113.882,306.578 113.909,306.509 113.963,306.467 C114.017,306.425 114.08,306.404 114.152,306.404 L114.152,306.404 L114.152,306.08 L111.884,306.08 L111.884,306.404 C111.956,306.404 112.019,306.425 112.073,306.467 C112.127,306.509 112.154,306.578 112.154,306.674 L112.154,306.674 L112.154,309.212 L107.33,309.212 L107.33,306.674 C107.33,306.578 107.357,306.509 107.411,306.467 C107.465,306.425 107.528,306.404 107.6,306.404 L107.6,306.404 L107.6,306.08 L105.332,306.08 L105.332,306.404 C105.404,306.404 105.467,306.425 105.521,306.467 C105.575,306.509 105.602,306.578 105.602,306.674 L105.602,306.674 L105.602,313.406 C105.602,313.502 105.575,313.571 105.521,313.613 C105.467,313.655 105.404,313.676 105.332,313.676 L105.332,313.676 L105.332,314 L107.6,314 Z M120.11,314 L120.11,313.676 C119.774,313.676 119.606,313.586 119.606,313.406 L119.606,313.406 L119.606,306.674 C119.606,306.494 119.774,306.404 120.11,306.404 L120.11,306.404 L120.11,306.08 L117.374,306.08 L117.374,306.404 C117.566,306.404 117.698,306.425 117.77,306.467 C117.842,306.509 117.878,306.578 117.878,306.674 L117.878,306.674 L117.878,313.406 C117.878,313.502 117.842,313.571 117.77,313.613 C117.698,313.655 117.566,313.676 117.374,313.676 L117.374,313.676 L117.374,314 L120.11,314 Z M126.608,314.054 C127.016,314.054 127.451,314.024 127.913,313.964 C128.375,313.904 128.798,313.778 129.182,313.586 C129.566,313.394 129.887,313.13 130.145,312.794 C130.403,312.458 130.532,312.026 130.532,311.498 C130.532,310.97 130.385,310.556 130.091,310.256 C129.797,309.956 129.428,309.728 128.984,309.572 C128.54,309.416 128.06,309.305 127.544,309.239 C127.028,309.173 126.548,309.107 126.104,309.041 C125.66,308.975 125.291,308.885 124.997,308.771 C124.703,308.657 124.556,308.468 124.556,308.204 C124.556,308.036 124.604,307.895 124.7,307.781 C124.796,307.667 124.928,307.574 125.096,307.502 C125.264,307.43 125.456,307.379 125.672,307.349 C125.888,307.319 126.116,307.304 126.356,307.304 C126.98,307.304 127.544,307.376 128.048,307.52 C128.552,307.664 128.924,307.838 129.164,308.042 C129.26,308.114 129.314,308.186 129.326,308.258 L129.326,308.258 L129.362,308.474 L129.686,308.582 L130.586,306.89 L130.388,306.692 C130.316,306.728 130.256,306.761 130.208,306.791 C130.16,306.821 130.088,306.836 129.992,306.836 C129.908,306.836 129.779,306.791 129.605,306.701 C129.431,306.611 129.206,306.512 128.93,306.404 C128.654,306.296 128.315,306.197 127.913,306.107 C127.511,306.017 127.028,305.972 126.464,305.972 C125.312,305.972 124.418,306.2 123.782,306.656 C123.146,307.112 122.828,307.724 122.828,308.492 C122.828,309.008 122.975,309.407 123.269,309.689 C123.563,309.971 123.932,310.187 124.376,310.337 C124.82,310.487 125.3,310.595 125.816,310.661 C126.332,310.727 126.812,310.793 127.256,310.859 C127.7,310.925 128.069,311.018 128.363,311.138 C128.657,311.258 128.804,311.45 128.804,311.714 C128.804,311.942 128.72,312.125 128.552,312.263 C128.384,312.401 128.18,312.509 127.94,312.587 C127.7,312.665 127.457,312.716 127.211,312.74 C126.965,312.764 126.758,312.776 126.59,312.776 C126.41,312.776 126.161,312.746 125.843,312.686 C125.525,312.626 125.207,312.545 124.889,312.443 C124.571,312.341 124.298,312.215 124.07,312.065 C123.842,311.915 123.728,311.75 123.728,311.57 C123.728,311.51 123.731,311.453 123.737,311.399 C123.743,311.345 123.746,311.294 123.746,311.246 L123.746,311.246 L123.404,311.156 L122.576,313.172 L122.828,313.352 C122.888,313.28 122.96,313.244 123.044,313.244 C123.092,313.244 123.23,313.289 123.458,313.379 C123.686,313.469 123.965,313.565 124.295,313.667 C124.625,313.769 124.991,313.859 125.393,313.937 C125.795,314.015 126.2,314.054 126.608,314.054 Z M142.934,314 L142.934,313.676 C142.718,313.676 142.61,313.586 142.61,313.406 L142.61,313.406 L142.61,307.412 L144.95,307.412 C145.046,307.412 145.136,307.436 145.22,307.484 C145.304,307.532 145.346,307.61 145.346,307.718 L145.346,307.718 L145.67,307.718 L145.67,305.648 L145.346,305.648 C145.346,305.816 145.304,305.93 145.22,305.99 C145.136,306.05 145.046,306.08 144.95,306.08 L144.95,306.08 L138.542,306.08 C138.446,306.08 138.356,306.05 138.272,305.99 C138.188,305.93 138.146,305.816 138.146,305.648 L138.146,305.648 L137.822,305.648 L137.822,307.718 L138.146,307.718 C138.146,307.61 138.188,307.532 138.272,307.484 C138.356,307.436 138.446,307.412 138.542,307.412 L138.542,307.412 L140.882,307.412 L140.882,313.406 C140.882,313.502 140.852,313.571 140.792,313.613 C140.732,313.655 140.672,313.676 140.612,313.676 L140.612,313.676 L140.612,314 L142.934,314 Z M151.736,314.054 C152.396,314.054 153.017,313.979 153.599,313.829 C154.181,313.679 154.688,313.436 155.12,313.1 C155.552,312.764 155.894,312.341 156.146,311.831 C156.398,311.321 156.524,310.724 156.524,310.04 C156.524,309.356 156.398,308.759 156.146,308.249 C155.894,307.739 155.552,307.316 155.12,306.98 C154.688,306.644 154.181,306.392 153.599,306.224 C153.017,306.056 152.396,305.972 151.736,305.972 C151.076,305.972 150.455,306.056 149.873,306.224 C149.291,306.392 148.784,306.644 148.352,306.98 C147.92,307.316 147.578,307.739 147.326,308.249 C147.074,308.759 146.948,309.356 146.948,310.04 C146.948,310.724 147.074,311.321 147.326,311.831 C147.578,312.341 147.92,312.764 148.352,313.1 C148.784,313.436 149.291,313.679 149.873,313.829 C150.455,313.979 151.076,314.054 151.736,314.054 Z M151.736,312.776 C151.352,312.776 150.977,312.713 150.611,312.587 C150.245,312.461 149.918,312.281 149.63,312.047 C149.342,311.813 149.111,311.528 148.937,311.192 C148.763,310.856 148.676,310.472 148.676,310.04 C148.676,309.608 148.763,309.224 148.937,308.888 C149.111,308.552 149.342,308.267 149.63,308.033 C149.918,307.799 150.245,307.619 150.611,307.493 C150.977,307.367 151.352,307.304 151.736,307.304 C152.12,307.304 152.495,307.367 152.861,307.493 C153.227,307.619 153.554,307.799 153.842,308.033 C154.13,308.267 154.361,308.552 154.535,308.888 C154.709,309.224 154.796,309.608 154.796,310.04 C154.796,310.472 154.709,310.856 154.535,311.192 C154.361,311.528 154.13,311.813 153.842,312.047 C153.554,312.281 153.227,312.461 152.861,312.587 C152.495,312.713 152.12,312.776 151.736,312.776 Z M168.944,314 L168.944,313.676 C168.716,313.676 168.602,313.586 168.602,313.406 L168.602,313.406 L168.602,310.706 L171.356,307.142 C171.488,306.974 171.641,306.809 171.815,306.647 C171.989,306.485 172.148,306.404 172.292,306.404 L172.292,306.404 L172.292,306.08 L169.538,306.08 L169.538,306.404 C169.598,306.404 169.658,306.416 169.718,306.44 C169.778,306.464 169.808,306.524 169.808,306.62 C169.808,306.692 169.781,306.767 169.727,306.845 C169.673,306.923 169.592,307.04 169.484,307.196 L169.484,307.196 L167.882,309.428 L166.064,307.052 C166.004,306.968 165.95,306.896 165.902,306.836 C165.854,306.776 165.83,306.71 165.83,306.638 C165.83,306.566 165.866,306.509 165.938,306.467 C166.01,306.425 166.076,306.404 166.136,306.404 L166.136,306.404 L166.136,306.08 L163.166,306.08 L163.166,306.404 C163.274,306.404 163.388,306.428 163.508,306.476 C163.628,306.524 163.73,306.602 163.814,306.71 L163.814,306.71 L166.874,310.634 L166.874,313.406 C166.874,313.586 166.766,313.676 166.55,313.676 L166.55,313.676 L166.55,314 L168.944,314 Z M178.232,314.054 C178.892,314.054 179.513,313.979 180.095,313.829 C180.677,313.679 181.184,313.436 181.616,313.1 C182.048,312.764 182.39,312.341 182.642,311.831 C182.894,311.321 183.02,310.724 183.02,310.04 C183.02,309.356 182.894,308.759 182.642,308.249 C182.39,307.739 182.048,307.316 181.616,306.98 C181.184,306.644 180.677,306.392 180.095,306.224 C179.513,306.056 178.892,305.972 178.232,305.972 C177.572,305.972 176.951,306.056 176.369,306.224 C175.787,306.392 175.28,306.644 174.848,306.98 C174.416,307.316 174.074,307.739 173.822,308.249 C173.57,308.759 173.444,309.356 173.444,310.04 C173.444,310.724 173.57,311.321 173.822,311.831 C174.074,312.341 174.416,312.764 174.848,313.1 C175.28,313.436 175.787,313.679 176.369,313.829 C176.951,313.979 177.572,314.054 178.232,314.054 Z M178.232,312.776 C177.848,312.776 177.473,312.713 177.107,312.587 C176.741,312.461 176.414,312.281 176.126,312.047 C175.838,311.813 175.607,311.528 175.433,311.192 C175.259,310.856 175.172,310.472 175.172,310.04 C175.172,309.608 175.259,309.224 175.433,308.888 C175.607,308.552 175.838,308.267 176.126,308.033 C176.414,307.799 176.741,307.619 177.107,307.493 C177.473,307.367 177.848,307.304 178.232,307.304 C178.616,307.304 178.991,307.367 179.357,307.493 C179.723,307.619 180.05,307.799 180.338,308.033 C180.626,308.267 180.857,308.552 181.031,308.888 C181.205,309.224 181.292,309.608 181.292,310.04 C181.292,310.472 181.205,310.856 181.031,311.192 C180.857,311.528 180.626,311.813 180.338,312.047 C180.05,312.281 179.723,312.461 179.357,312.587 C178.991,312.713 178.616,312.776 178.232,312.776 Z M189.806,314.054 C190.526,314.054 191.153,313.979 191.687,313.829 C192.221,313.679 192.659,313.472 193.001,313.208 C193.343,312.944 193.598,312.641 193.766,312.299 C193.934,311.957 194.018,311.6 194.018,311.228 L194.018,311.228 L194.018,306.674 C194.018,306.494 194.15,306.404 194.414,306.404 L194.414,306.404 L194.414,306.08 L191.912,306.08 L191.912,306.404 C192.212,306.404 192.362,306.494 192.362,306.674 L192.362,306.674 L192.362,310.796 C192.362,311.372 192.152,311.834 191.732,312.182 C191.312,312.53 190.67,312.704 189.806,312.704 C188.942,312.704 188.3,312.53 187.88,312.182 C187.46,311.834 187.25,311.372 187.25,310.796 L187.25,310.796 L187.25,306.674 C187.25,306.494 187.382,306.404 187.646,306.404 L187.646,306.404 L187.646,306.08 L185.072,306.08 L185.072,306.404 C185.276,306.404 185.414,306.425 185.486,306.467 C185.558,306.509 185.594,306.578 185.594,306.674 L185.594,306.674 L185.594,311.228 C185.594,311.6 185.678,311.957 185.846,312.299 C186.014,312.641 186.269,312.944 186.611,313.208 C186.953,313.472 187.391,313.679 187.925,313.829 C188.459,313.979 189.086,314.054 189.806,314.054 Z M199.544,314 L199.544,313.676 C199.472,313.676 199.397,313.655 199.319,313.613 C199.241,313.571 199.202,313.502 199.202,313.406 L199.202,313.406 L199.202,310.832 L201.704,310.832 L203.126,312.956 C203.306,313.208 203.396,313.394 203.396,313.514 C203.396,313.622 203.318,313.676 203.162,313.676 L203.162,313.676 L203.162,314 L205.916,314 L205.916,313.676 C205.784,313.64 205.661,313.589 205.547,313.523 C205.433,313.457 205.328,313.358 205.232,313.226 L205.232,313.226 L203.468,310.652 C203.72,310.592 203.966,310.505 204.206,310.391 C204.446,310.277 204.665,310.127 204.863,309.941 C205.061,309.755 205.22,309.536 205.34,309.284 C205.46,309.032 205.52,308.744 205.52,308.42 C205.52,307.568 205.22,306.965 204.62,306.611 C204.02,306.257 203.186,306.08 202.118,306.08 L202.118,306.08 L197.15,306.08 L197.15,306.404 C197.366,306.404 197.474,306.494 197.474,306.674 L197.474,306.674 L197.474,313.406 C197.474,313.586 197.366,313.676 197.15,313.676 L197.15,313.676 L197.15,314 L199.544,314 Z M202.082,309.5 L199.238,309.5 L199.238,307.412 L202.082,307.412 C202.694,307.412 203.141,307.499 203.423,307.673 C203.705,307.847 203.846,308.084 203.846,308.384 C203.846,309.128 203.258,309.5 202.082,309.5 L202.082,309.5 Z M74.354,332.054 C74.762,332.054 75.197,332.024 75.659,331.964 C76.121,331.904 76.544,331.778 76.928,331.586 C77.312,331.394 77.633,331.13 77.891,330.794 C78.149,330.458 78.278,330.026 78.278,329.498 C78.278,328.97 78.131,328.556 77.837,328.256 C77.543,327.956 77.174,327.728 76.73,327.572 C76.286,327.416 75.806,327.305 75.29,327.239 C74.774,327.173 74.294,327.107 73.85,327.041 C73.406,326.975 73.037,326.885 72.743,326.771 C72.449,326.657 72.302,326.468 72.302,326.204 C72.302,326.036 72.35,325.895 72.446,325.781 C72.542,325.667 72.674,325.574 72.842,325.502 C73.01,325.43 73.202,325.379 73.418,325.349 C73.634,325.319 73.862,325.304 74.102,325.304 C74.726,325.304 75.29,325.376 75.794,325.52 C76.298,325.664 76.67,325.838 76.91,326.042 C77.006,326.114 77.06,326.186 77.072,326.258 L77.072,326.258 L77.108,326.474 L77.432,326.582 L78.332,324.89 L78.134,324.692 C78.062,324.728 78.002,324.761 77.954,324.791 C77.906,324.821 77.834,324.836 77.738,324.836 C77.654,324.836 77.525,324.791 77.351,324.701 C77.177,324.611 76.952,324.512 76.676,324.404 C76.4,324.296 76.061,324.197 75.659,324.107 C75.257,324.017 74.774,323.972 74.21,323.972 C73.058,323.972 72.164,324.2 71.528,324.656 C70.892,325.112 70.574,325.724 70.574,326.492 C70.574,327.008 70.721,327.407 71.015,327.689 C71.309,327.971 71.678,328.187 72.122,328.337 C72.566,328.487 73.046,328.595 73.562,328.661 C74.078,328.727 74.558,328.793 75.002,328.859 C75.446,328.925 75.815,329.018 76.109,329.138 C76.403,329.258 76.55,329.45 76.55,329.714 C76.55,329.942 76.466,330.125 76.298,330.263 C76.13,330.401 75.926,330.509 75.686,330.587 C75.446,330.665 75.203,330.716 74.957,330.74 C74.711,330.764 74.504,330.776 74.336,330.776 C74.156,330.776 73.907,330.746 73.589,330.686 C73.271,330.626 72.953,330.545 72.635,330.443 C72.317,330.341 72.044,330.215 71.816,330.065 C71.588,329.915 71.474,329.75 71.474,329.57 C71.474,329.51 71.477,329.453 71.483,329.399 C71.489,329.345 71.492,329.294 71.492,329.246 L71.492,329.246 L71.15,329.156 L70.322,331.172 L70.574,331.352 C70.634,331.28 70.706,331.244 70.79,331.244 C70.838,331.244 70.976,331.289 71.204,331.379 C71.432,331.469 71.711,331.565 72.041,331.667 C72.371,331.769 72.737,331.859 73.139,331.937 C73.541,332.015 73.946,332.054 74.354,332.054 Z M85.712,332 L85.712,331.676 C85.484,331.676 85.37,331.586 85.37,331.406 L85.37,331.406 L85.37,328.706 L88.124,325.142 C88.256,324.974 88.409,324.809 88.583,324.647 C88.757,324.485 88.916,324.404 89.06,324.404 L89.06,324.404 L89.06,324.08 L86.306,324.08 L86.306,324.404 C86.366,324.404 86.426,324.416 86.486,324.44 C86.546,324.464 86.576,324.524 86.576,324.62 C86.576,324.692 86.549,324.767 86.495,324.845 C86.441,324.923 86.36,325.04 86.252,325.196 L86.252,325.196 L84.65,327.428 L82.832,325.052 C82.772,324.968 82.718,324.896 82.67,324.836 C82.622,324.776 82.598,324.71 82.598,324.638 C82.598,324.566 82.634,324.509 82.706,324.467 C82.778,324.425 82.844,324.404 82.904,324.404 L82.904,324.404 L82.904,324.08 L79.934,324.08 L79.934,324.404 C80.042,324.404 80.156,324.428 80.276,324.476 C80.396,324.524 80.498,324.602 80.582,324.71 L80.582,324.71 L83.642,328.634 L83.642,331.406 C83.642,331.586 83.534,331.676 83.318,331.676 L83.318,331.676 L83.318,332 L85.712,332 Z M93.218,332 L93.218,331.676 C93.014,331.676 92.912,331.586 92.912,331.406 L92.912,331.406 L92.912,326.348 L92.93,326.348 L95.828,332 L95.972,332 L99.032,326.348 L99.068,326.348 L99.068,331.406 C99.104,331.586 98.996,331.676 98.744,331.676 L98.744,331.676 L98.744,332 L100.832,332 L100.832,331.676 C100.772,331.676 100.715,331.655 100.661,331.613 C100.607,331.571 100.58,331.502 100.58,331.406 L100.58,331.406 L100.58,324.638 C100.58,324.542 100.607,324.479 100.661,324.449 C100.715,324.419 100.772,324.404 100.832,324.404 L100.832,324.404 L100.832,324.08 L98.294,324.08 L98.294,324.404 C98.39,324.404 98.438,324.458 98.438,324.566 C98.438,324.602 98.414,324.665 98.366,324.755 C98.318,324.845 98.252,324.962 98.168,325.106 L98.168,325.106 L95.954,329.138 L93.758,325.088 C93.674,324.944 93.611,324.833 93.569,324.755 C93.527,324.677 93.506,324.614 93.506,324.566 C93.506,324.458 93.566,324.404 93.686,324.404 L93.686,324.404 L93.686,324.08 L91.184,324.08 L91.184,324.404 C91.268,324.404 91.325,324.422 91.355,324.458 C91.385,324.494 91.4,324.596 91.4,324.764 L91.4,324.764 L91.4,331.352 C91.4,331.484 91.379,331.568 91.337,331.604 C91.295,331.64 91.244,331.664 91.184,331.676 L91.184,331.676 L91.184,332 L93.218,332 Z M106.268,332 L106.268,331.676 C106.016,331.676 105.89,331.586 105.89,331.406 L105.89,331.406 L105.89,328.706 L108.95,328.706 C109.922,328.706 110.651,328.541 111.137,328.211 C111.623,327.881 111.866,327.284 111.866,326.42 C111.866,325.556 111.623,324.95 111.137,324.602 C110.651,324.254 109.922,324.08 108.95,324.08 L108.95,324.08 L103.712,324.08 L103.712,324.404 C104.012,324.404 104.162,324.494 104.162,324.674 L104.162,324.674 L104.162,331.406 C104.162,331.586 104.012,331.676 103.712,331.676 L103.712,331.676 L103.712,332 L106.268,332 Z M108.914,327.374 L105.89,327.374 L105.89,325.412 L108.914,325.412 C109.262,325.412 109.553,325.487 109.787,325.637 C110.021,325.787 110.138,326.048 110.138,326.42 C110.138,326.804 110.021,327.059 109.787,327.185 C109.553,327.311 109.262,327.374 108.914,327.374 L108.914,327.374 Z M118.202,332 L118.202,331.676 C117.986,331.676 117.878,331.586 117.878,331.406 L117.878,331.406 L117.878,325.412 L120.218,325.412 C120.314,325.412 120.404,325.436 120.488,325.484 C120.572,325.532 120.614,325.61 120.614,325.718 L120.614,325.718 L120.938,325.718 L120.938,323.648 L120.614,323.648 C120.614,323.816 120.572,323.93 120.488,323.99 C120.404,324.05 120.314,324.08 120.218,324.08 L120.218,324.08 L113.81,324.08 C113.714,324.08 113.624,324.05 113.54,323.99 C113.456,323.93 113.414,323.816 113.414,323.648 L113.414,323.648 L113.09,323.648 L113.09,325.718 L113.414,325.718 C113.414,325.61 113.456,325.532 113.54,325.484 C113.624,325.436 113.714,325.412 113.81,325.412 L113.81,325.412 L116.15,325.412 L116.15,331.406 C116.15,331.502 116.12,331.571 116.06,331.613 C116,331.655 115.94,331.676 115.88,331.676 L115.88,331.676 L115.88,332 L118.202,332 Z M127.004,332.054 C127.664,332.054 128.285,331.979 128.867,331.829 C129.449,331.679 129.956,331.436 130.388,331.1 C130.82,330.764 131.162,330.341 131.414,329.831 C131.666,329.321 131.792,328.724 131.792,328.04 C131.792,327.356 131.666,326.759 131.414,326.249 C131.162,325.739 130.82,325.316 130.388,324.98 C129.956,324.644 129.449,324.392 128.867,324.224 C128.285,324.056 127.664,323.972 127.004,323.972 C126.344,323.972 125.723,324.056 125.141,324.224 C124.559,324.392 124.052,324.644 123.62,324.98 C123.188,325.316 122.846,325.739 122.594,326.249 C122.342,326.759 122.216,327.356 122.216,328.04 C122.216,328.724 122.342,329.321 122.594,329.831 C122.846,330.341 123.188,330.764 123.62,331.1 C124.052,331.436 124.559,331.679 125.141,331.829 C125.723,331.979 126.344,332.054 127.004,332.054 Z M127.004,330.776 C126.62,330.776 126.245,330.713 125.879,330.587 C125.513,330.461 125.186,330.281 124.898,330.047 C124.61,329.813 124.379,329.528 124.205,329.192 C124.031,328.856 123.944,328.472 123.944,328.04 C123.944,327.608 124.031,327.224 124.205,326.888 C124.379,326.552 124.61,326.267 124.898,326.033 C125.186,325.799 125.513,325.619 125.879,325.493 C126.245,325.367 126.62,325.304 127.004,325.304 C127.388,325.304 127.763,325.367 128.129,325.493 C128.495,325.619 128.822,325.799 129.11,326.033 C129.398,326.267 129.629,326.552 129.803,326.888 C129.977,327.224 130.064,327.608 130.064,328.04 C130.064,328.472 129.977,328.856 129.803,329.192 C129.629,329.528 129.398,329.813 129.11,330.047 C128.822,330.281 128.495,330.461 128.129,330.587 C127.763,330.713 127.388,330.776 127.004,330.776 Z M136.22,332 L136.22,331.676 C136.016,331.676 135.914,331.586 135.914,331.406 L135.914,331.406 L135.914,326.348 L135.932,326.348 L138.83,332 L138.974,332 L142.034,326.348 L142.07,326.348 L142.07,331.406 C142.106,331.586 141.998,331.676 141.746,331.676 L141.746,331.676 L141.746,332 L143.834,332 L143.834,331.676 C143.774,331.676 143.717,331.655 143.663,331.613 C143.609,331.571 143.582,331.502 143.582,331.406 L143.582,331.406 L143.582,324.638 C143.582,324.542 143.609,324.479 143.663,324.449 C143.717,324.419 143.774,324.404 143.834,324.404 L143.834,324.404 L143.834,324.08 L141.296,324.08 L141.296,324.404 C141.392,324.404 141.44,324.458 141.44,324.566 C141.44,324.602 141.416,324.665 141.368,324.755 C141.32,324.845 141.254,324.962 141.17,325.106 L141.17,325.106 L138.956,329.138 L136.76,325.088 C136.676,324.944 136.613,324.833 136.571,324.755 C136.529,324.677 136.508,324.614 136.508,324.566 C136.508,324.458 136.568,324.404 136.688,324.404 L136.688,324.404 L136.688,324.08 L134.186,324.08 L134.186,324.404 C134.27,324.404 134.327,324.422 134.357,324.458 C134.387,324.494 134.402,324.596 134.402,324.764 L134.402,324.764 L134.402,331.352 C134.402,331.484 134.381,331.568 134.339,331.604 C134.297,331.64 134.246,331.664 134.186,331.676 L134.186,331.676 L134.186,332 L136.22,332 Z M154.76,332 L154.76,331.676 C154.508,331.676 154.382,331.586 154.382,331.406 L154.382,331.406 L154.382,328.706 L157.442,328.706 C158.414,328.706 159.143,328.541 159.629,328.211 C160.115,327.881 160.358,327.284 160.358,326.42 C160.358,325.556 160.115,324.95 159.629,324.602 C159.143,324.254 158.414,324.08 157.442,324.08 L157.442,324.08 L152.204,324.08 L152.204,324.404 C152.504,324.404 152.654,324.494 152.654,324.674 L152.654,324.674 L152.654,331.406 C152.654,331.586 152.504,331.676 152.204,331.676 L152.204,331.676 L152.204,332 L154.76,332 Z M157.406,327.374 L154.382,327.374 L154.382,325.412 L157.406,325.412 C157.754,325.412 158.045,325.487 158.279,325.637 C158.513,325.787 158.63,326.048 158.63,326.42 C158.63,326.804 158.513,327.059 158.279,327.185 C158.045,327.311 157.754,327.374 157.406,327.374 L157.406,327.374 Z M165.362,332 L165.362,331.676 C165.026,331.676 164.858,331.586 164.858,331.406 L164.858,331.406 L164.858,324.674 C164.858,324.494 165.026,324.404 165.362,324.404 L165.362,324.404 L165.362,324.08 L162.626,324.08 L162.626,324.404 C162.818,324.404 162.95,324.425 163.022,324.467 C163.094,324.509 163.13,324.578 163.13,324.674 L163.13,324.674 L163.13,331.406 C163.13,331.502 163.094,331.571 163.022,331.613 C162.95,331.655 162.818,331.676 162.626,331.676 L162.626,331.676 L162.626,332 L165.362,332 Z M176.252,332.18 L176.252,330.29 L175.928,330.29 C175.928,330.41 175.88,330.503 175.784,330.569 C175.688,330.635 175.568,330.668 175.424,330.668 L175.424,330.668 L170.564,330.668 L170.564,324.674 C170.564,324.494 170.702,324.404 170.978,324.404 L170.978,324.404 L170.978,324.08 L168.368,324.08 L168.368,324.404 C168.68,324.404 168.836,324.494 168.836,324.674 L168.836,324.674 L168.836,331.406 C168.836,331.586 168.68,331.676 168.368,331.676 L168.368,331.676 L168.368,332 L175.424,332 C175.568,332 175.688,332.006 175.784,332.018 C175.88,332.03 175.928,332.084 175.928,332.18 L175.928,332.18 L176.252,332.18 Z M185.918,332.198 L185.918,330.308 L185.594,330.308 C185.594,330.416 185.546,330.503 185.45,330.569 C185.354,330.635 185.234,330.668 185.09,330.668 L185.09,330.668 L180.482,330.668 L180.482,328.544 L183.11,328.544 C183.35,328.544 183.536,328.559 183.668,328.589 C183.8,328.619 183.848,328.7 183.812,328.832 L183.812,328.832 L184.172,328.832 L184.172,326.924 L183.848,326.924 C183.848,327.056 183.8,327.137 183.704,327.167 C183.608,327.197 183.458,327.212 183.254,327.212 L183.254,327.212 L180.482,327.212 L180.482,325.412 L184.874,325.412 C185.246,325.412 185.432,325.526 185.432,325.754 L185.432,325.754 L185.756,325.754 L185.756,323.756 L185.432,323.756 C185.432,323.972 185.246,324.08 184.874,324.08 L184.874,324.08 L178.484,324.08 L178.484,324.404 C178.544,324.404 178.604,324.425 178.664,324.467 C178.724,324.509 178.754,324.578 178.754,324.674 L178.754,324.674 L178.754,331.406 C178.754,331.502 178.724,331.571 178.664,331.613 C178.604,331.655 178.544,331.676 178.484,331.676 L178.484,331.676 L178.484,332 L185.09,332 C185.234,332 185.354,332.006 185.45,332.018 C185.546,332.03 185.594,332.09 185.594,332.198 L185.594,332.198 L185.918,332.198 Z M189.752,332.054 C190.1,332.054 190.4,331.937 190.652,331.703 C190.904,331.469 191.03,331.178 191.03,330.83 C191.03,330.482 190.904,330.182 190.652,329.93 C190.4,329.678 190.1,329.552 189.752,329.552 C189.404,329.552 189.104,329.678 188.852,329.93 C188.6,330.182 188.474,330.482 188.474,330.83 C188.474,331.178 188.6,331.469 188.852,331.703 C189.104,331.937 189.404,332.054 189.752,332.054 Z" id="Imusthavehitmyhead.Addthistoyoursymptompile." fill="#000000" fill-rule="nonzero"></path>
    </g>
</svg>