<?xml version="1.0" encoding="UTF-8"?>
<svg width="262px" height="360px" viewBox="0 0 262 360" version="1.1" xmlns="http://www.w3.org/2000/svg" xmlns:xlink="http://www.w3.org/1999/xlink">
    <title>Paper Towel 3</title>
    <g id="Paper-Towel-3" stroke="none" stroke-width="1" fill="none" fill-rule="evenodd">
        <g id="Group" transform="translate(10.000000, 10.000000)" fill="#FFFFFF" stroke="#000000" stroke-width="3">
            <g id="Rectangle">
                <rect x="1.5" y="1.5" width="239" height="337" rx="8"></rect>
            </g>
        </g>
        <path d="M201.478,42.108 C202.438,42.108 203.464,42.03 204.556,41.874 C205.648,41.718 206.65,41.406 207.562,40.938 C208.474,40.47 209.236,39.84 209.848,39.048 C210.46,38.256 210.766,37.248 210.766,36.024 C210.766,34.944 210.436,34.05 209.776,33.342 C209.116,32.634 208.27,32.16 207.238,31.92 L207.238,31.92 L207.238,31.848 C208.102,31.656 208.786,31.194 209.29,30.462 C209.794,29.73 210.046,28.932 210.046,28.068 C210.046,27.132 209.8,26.334 209.308,25.674 C208.816,25.014 208.18,24.474 207.4,24.054 C206.62,23.634 205.756,23.328 204.808,23.136 C203.86,22.944 202.918,22.848 201.982,22.848 C200.59,22.848 199.408,22.986 198.436,23.262 C197.464,23.538 196.666,23.844 196.042,24.18 C195.418,24.516 194.944,24.822 194.62,25.098 C194.296,25.374 194.074,25.512 193.954,25.512 C193.738,25.512 193.534,25.452 193.342,25.332 L193.342,25.332 L192.91,25.656 L195.79,29.328 L196.114,29.112 C196.066,28.992 196.03,28.866 196.006,28.734 C195.982,28.602 195.97,28.488 195.97,28.392 C195.97,28.104 196.15,27.816 196.51,27.528 C196.87,27.24 197.326,26.976 197.878,26.736 C198.43,26.496 199.042,26.304 199.714,26.16 C200.386,26.016 201.046,25.944 201.694,25.944 C202.246,25.944 202.792,25.974 203.332,26.034 C203.872,26.094 204.364,26.208 204.808,26.376 C205.252,26.544 205.612,26.778 205.888,27.078 C206.164,27.378 206.302,27.768 206.302,28.248 C206.302,28.752 206.146,29.172 205.834,29.508 C205.522,29.844 205.144,30.108 204.7,30.3 C204.256,30.492 203.782,30.624 203.278,30.696 C202.774,30.768 202.33,30.804 201.946,30.804 C201.37,30.804 200.848,30.726 200.38,30.57 C199.912,30.414 199.654,30.096 199.606,29.616 L199.606,29.616 L199.174,29.616 L199.174,34.512 L199.606,34.512 C199.75,34.08 200.032,33.81 200.452,33.702 C200.872,33.594 201.37,33.54 201.946,33.54 C202.354,33.54 202.84,33.57 203.404,33.63 C203.968,33.69 204.502,33.816 205.006,34.008 C205.51,34.2 205.936,34.47 206.284,34.818 C206.632,35.166 206.806,35.628 206.806,36.204 C206.806,36.804 206.626,37.29 206.266,37.662 C205.906,38.034 205.468,38.328 204.952,38.544 C204.436,38.76 203.884,38.91 203.296,38.994 C202.708,39.078 202.198,39.12 201.766,39.12 C201.214,39.12 200.536,39.042 199.732,38.886 C198.928,38.73 198.16,38.502 197.428,38.202 C196.696,37.902 196.066,37.536 195.538,37.104 C195.01,36.672 194.746,36.18 194.746,35.628 L194.746,35.628 L194.746,35.376 C194.746,35.256 194.758,35.172 194.782,35.124 L194.782,35.124 L194.386,34.908 L192.298,40.092 L192.622,40.2 C192.718,40.152 192.808,40.104 192.892,40.056 C192.976,40.008 193.078,39.984 193.198,39.984 C193.39,39.984 193.72,40.098 194.188,40.326 C194.656,40.554 195.25,40.806 195.97,41.082 C196.69,41.358 197.518,41.598 198.454,41.802 C199.39,42.006 200.398,42.108 201.478,42.108 Z" id="3" fill="#000000" fill-rule="nonzero"></path>
        <g id="Paper-Towel" transform="translate(41.000000, 103.000000)">
            <g transform="translate(32.000000, 23.000000)">
                <ellipse id="Oval" fill="#000000" cx="64" cy="20.5" rx="19" ry="7.5"></ellipse>
                <path d="M63.5,2.5 C77.6236228,2.5 90.4175057,4.81928339 99.675666,8.61072046 C104.161795,10.4478971 107.797715,12.6148383 110.266607,15.0557778 C112.274556,17.0409924 113.5,19.1892749 113.5,21.5 C113.5,22.6456437 113.425912,24.9884413 113.203254,26.6583761 C112.274961,27.0244503 108.588047,26.2665842 94.5550664,26.2439794 L93.4255667,26.2437562 C89.2042401,26.2487874 84.0992335,26.3195297 77.9265024,26.5010806 C55.9234289,30.726489 50.8715501,35.7511571 48.1737483,38.3235396 C47.5903372,38.8798282 47.3285477,39.4423258 46.4170447,39.3109045 C36.4371728,37.8719976 27.8765031,35.2182044 21.8704754,31.7432129 C16.8687618,28.8493015 13.5,25.4333941 13.5,21.5 C13.5,19.1892749 14.7254442,17.0409924 16.7333928,15.0557778 C19.2022853,12.6148383 22.8382049,10.4478971 27.324334,8.61072046 C36.5824943,4.81928339 49.3763772,2.5 63.5,2.5 Z" id="Oval" stroke="#000000" stroke-width="5"></path>
                <path d="M1,192 C15.527632,186.427579 26.1547188,182.810266 32.8812604,181.148061" id="Path" stroke="#000000" stroke-width="5"></path>
                <path d="M1,59 C21.6012097,51.4780617 36.5001756,46.9912968 45.6968977,45.5397054 M112.047872,26.6042436 C112.999103,24.8017078 113.5,22.922778 113.5,21" id="Shape" stroke="#000000" stroke-width="5"></path>
                <line x1="113.5" y1="21.5" x2="113.5" y2="27" id="Path" stroke="#000000" stroke-width="5" stroke-linecap="round"></line>
                <line x1="1" y1="59" x2="1" y2="192" id="Line" stroke="#000000" stroke-width="5" stroke-linecap="round"></line>
                <line x1="14" y1="21" x2="13.5" y2="52.5" id="Line-Copy-2" stroke="#000000" stroke-width="5" stroke-linecap="round"></line>
            </g>
            <g>
                <ellipse id="Oval" fill="#000000" cx="64" cy="20.5" rx="19" ry="7.5"></ellipse>
                <path d="M63.5,2.5 C77.6236228,2.5 90.4175057,4.81928339 99.675666,8.61072046 C104.161795,10.4478971 107.797715,12.6148383 110.266607,15.0557778 C112.274556,17.0409924 113.5,19.1892749 113.5,21.5 C113.5,22.6456437 113.425912,24.9884413 113.203254,26.6583761 C112.274961,27.0244503 108.588047,26.2665842 94.5550664,26.2439794 L93.4255667,26.2437562 C89.2042401,26.2487874 84.0992335,26.3195297 77.9265024,26.5010806 C55.9234289,30.726489 50.8715501,35.7511571 48.1737483,38.3235396 C47.5903372,38.8798282 47.3285477,39.4423258 46.4170447,39.3109045 C36.4371728,37.8719976 27.8765031,35.2182044 21.8704754,31.7432129 C16.8687618,28.8493015 13.5,25.4333941 13.5,21.5 C13.5,19.1892749 14.7254442,17.0409924 16.7333928,15.0557778 C19.2022853,12.6148383 22.8382049,10.4478971 27.324334,8.61072046 C36.5824943,4.81928339 49.3763772,2.5 63.5,2.5 Z" id="Oval" stroke="#000000" stroke-width="5"></path>
                <path d="M1,192 C15.527632,186.427579 26.1547188,182.810266 32.8812604,181.148061" id="Path" stroke="#000000" stroke-width="5"></path>
                <path d="M1,59 C21.6012097,51.4780617 36.5001756,46.9912968 45.6968977,45.5397054 M112.047872,26.6042436 C112.999103,24.8017078 113.5,22.922778 113.5,21" id="Shape" stroke="#000000" stroke-width="5"></path>
                <line x1="113.5" y1="21.5" x2="113.5" y2="27" id="Path" stroke="#000000" stroke-width="5" stroke-linecap="round"></line>
                <line x1="1" y1="59" x2="1" y2="192" id="Line" stroke="#000000" stroke-width="5" stroke-linecap="round"></line>
                <line x1="14" y1="21" x2="13.5" y2="52.5" id="Line-Copy-2" stroke="#000000" stroke-width="5" stroke-linecap="round"></line>
            </g>
            <g transform="translate(64.000000, 46.000000)">
                <ellipse id="Oval" fill="#000000" cx="64" cy="20.5" rx="19" ry="7.5"></ellipse>
                <ellipse id="Oval" stroke="#000000" stroke-width="5" cx="63.5" cy="21.5" rx="50" ry="19"></ellipse>
                <path d="M1,192 C24.5469583,182 45.7039163,177 64.4708738,177 C92.6213101,177 113.5,166.413855 113.5,154" id="Path" stroke="#000000" stroke-width="5"></path>
                <path d="M1,59 C24.5469583,49 45.7039163,44 64.4708738,44 C92.6213101,44 113.5,33.4138549 113.5,21" id="Path-Copy" stroke="#000000" stroke-width="5"></path>
                <line x1="113.5" y1="21.5" x2="113.5" y2="154.5" id="Line-Copy" stroke="#000000" stroke-width="5" stroke-linecap="round"></line>
                <line x1="1" y1="59" x2="1" y2="192" id="Line" stroke="#000000" stroke-width="5" stroke-linecap="round"></line>
                <line x1="14" y1="21" x2="13.5" y2="52.5" id="Line-Copy-2" stroke="#000000" stroke-width="5" stroke-linecap="round"></line>
                <line x1="63.5" y1="42.5" x2="63.5" y2="177.5" id="Line-2" stroke="#000000" stroke-width="5" stroke-linecap="square" stroke-dasharray="14"></line>
            </g>
        </g>
        <g id="Toilet-Paper" transform="translate(213.000000, 18.000000)">
            <ellipse id="Oval" stroke="#000000" stroke-width="2" cx="24.5" cy="11.5" rx="4.5" ry="10.5"></ellipse>
            <ellipse id="Oval-Copy" fill="#000000" cx="24.5" cy="12" rx="1.5" ry="4"></ellipse>
            <line x1="24" y1="22" x2="18" y2="22" id="Line-6" stroke="#000000" stroke-width="2" stroke-linecap="round"></line>
            <line x1="24" y1="1" x2="9" y2="1" id="Line-5" stroke="#000000" stroke-width="2" stroke-linecap="square"></line>
            <path d="M8,1 C7.02702267,1.90492637 6.360356,2.69857716 6,3.38095238 C4.62724052,5.98042915 4,9.4881664 4,12.9047619 C4,13.6772342 3.97201238,14.5765717 4,15.2857143 C4.12532621,18.4611949 3.12532621,22.0326235 1,26" id="Line-2-Copy-2" stroke="#000000" stroke-width="2" stroke-linecap="round"></path>
            <path d="M23,1 C22.0270227,1.90492637 21.360356,2.69857716 21,3.38095238 C19.6272405,5.98042915 19,9.4881664 19,12.9047619 C19,13.6772342 18.9720124,14.5765717 19,15.2857143 C19.1253262,18.4611949 18.1253262,22.0326235 16,26" id="Line-2-Copy-3" stroke="#000000" stroke-width="2" stroke-linecap="round"></path>
            <line x1="4.23333333" y1="12.2173958" x2="19.1666667" y2="12.2173958" id="Line-3-Copy" stroke="#000000" stroke-width="2" stroke-linecap="square" stroke-dasharray="0,4"></line>
            <line x1="16" y1="26" x2="1.22222222" y2="26" id="Line-5-Copy" stroke="#000000" stroke-width="2" stroke-linecap="round"></line>
        </g>
        <path d="M57.214,72 C58.342,72 59.35,71.874 60.238,71.622 C61.126,71.37 61.876,71.016 62.488,70.56 C63.1,70.104 63.562,69.57 63.874,68.958 C64.186,68.346 64.342,67.68 64.342,66.96 C64.342,65.592 63.952,64.542 63.172,63.81 C62.392,63.078 61.438,62.544 60.31,62.208 L60.31,62.208 L60.31,62.136 C61.27,61.8 62.098,61.326 62.794,60.714 C63.49,60.102 63.838,59.232 63.838,58.104 C63.838,57.168 63.598,56.382 63.118,55.746 C62.638,55.11 62.002,54.594 61.21,54.198 C60.418,53.802 59.506,53.514 58.474,53.334 C57.442,53.154 56.374,53.064 55.27,53.064 L55.27,53.064 L44.002,53.064 L44.002,53.712 C44.674,53.712 45.01,53.928 45.01,54.36 L45.01,54.36 L45.01,70.704 C45.01,71.136 44.674,71.352 44.002,71.352 L44.002,71.352 L44.002,72 L57.214,72 Z M55.99,60.48 L49.114,60.48 L49.114,56.16 L55.99,56.16 C57.07,56.16 57.964,56.298 58.672,56.574 C59.38,56.85 59.734,57.432 59.734,58.32 C59.734,59.208 59.38,59.79 58.672,60.066 C57.964,60.342 57.07,60.48 55.99,60.48 L55.99,60.48 Z M55.99,68.688 L49.114,68.688 L49.114,63.576 L55.99,63.576 C57.502,63.576 58.588,63.81 59.248,64.278 C59.908,64.746 60.238,65.364 60.238,66.132 C60.238,66.9 59.908,67.518 59.248,67.986 C58.588,68.454 57.502,68.688 55.99,68.688 L55.99,68.688 Z M79.138,72.108 C80.578,72.108 81.832,71.958 82.9,71.658 C83.968,71.358 84.844,70.944 85.528,70.416 C86.212,69.888 86.722,69.282 87.058,68.598 C87.394,67.914 87.562,67.2 87.562,66.456 L87.562,66.456 L87.562,57.348 C87.562,56.988 87.826,56.808 88.354,56.808 L88.354,56.808 L88.354,56.16 L83.35,56.16 L83.35,56.808 C83.95,56.808 84.25,56.988 84.25,57.348 L84.25,57.348 L84.25,65.592 C84.25,66.744 83.83,67.668 82.99,68.364 C82.15,69.06 80.866,69.408 79.138,69.408 C77.41,69.408 76.126,69.06 75.286,68.364 C74.446,67.668 74.026,66.744 74.026,65.592 L74.026,65.592 L74.026,57.348 C74.026,56.988 74.29,56.808 74.818,56.808 L74.818,56.808 L74.818,56.16 L69.67,56.16 L69.67,56.808 C70.078,56.808 70.354,56.85 70.498,56.934 C70.642,57.018 70.714,57.156 70.714,57.348 L70.714,57.348 L70.714,66.456 C70.714,67.2 70.882,67.914 71.218,68.598 C71.554,69.282 72.064,69.888 72.748,70.416 C73.432,70.944 74.308,71.358 75.376,71.658 C76.444,71.958 77.698,72.108 79.138,72.108 Z M102.394,72 L102.394,71.352 C101.962,71.352 101.746,71.172 101.746,70.812 L101.746,70.812 L101.746,58.824 L106.426,58.824 C106.618,58.824 106.798,58.872 106.966,58.968 C107.134,59.064 107.218,59.22 107.218,59.436 L107.218,59.436 L107.866,59.436 L107.866,55.296 L107.218,55.296 C107.218,55.632 107.134,55.86 106.966,55.98 C106.798,56.1 106.618,56.16 106.426,56.16 L106.426,56.16 L93.61,56.16 C93.418,56.16 93.238,56.1 93.07,55.98 C92.902,55.86 92.818,55.632 92.818,55.296 L92.818,55.296 L92.17,55.296 L92.17,59.436 L92.818,59.436 C92.818,59.22 92.902,59.064 93.07,58.968 C93.238,58.872 93.418,58.824 93.61,58.824 L93.61,58.824 L98.29,58.824 L98.29,70.812 C98.29,71.004 98.23,71.142 98.11,71.226 C97.99,71.31 97.87,71.352 97.75,71.352 L97.75,71.352 L97.75,72 L102.394,72 Z M120.394,72 L120.394,71.352 C119.962,71.352 119.746,71.172 119.746,70.812 L119.746,70.812 L119.746,58.824 L124.426,58.824 C124.618,58.824 124.798,58.872 124.966,58.968 C125.134,59.064 125.218,59.22 125.218,59.436 L125.218,59.436 L125.866,59.436 L125.866,55.296 L125.218,55.296 C125.218,55.632 125.134,55.86 124.966,55.98 C124.798,56.1 124.618,56.16 124.426,56.16 L124.426,56.16 L111.61,56.16 C111.418,56.16 111.238,56.1 111.07,55.98 C110.902,55.86 110.818,55.632 110.818,55.296 L110.818,55.296 L110.17,55.296 L110.17,59.436 L110.818,59.436 C110.818,59.22 110.902,59.064 111.07,58.968 C111.238,58.872 111.418,58.824 111.61,58.824 L111.61,58.824 L116.29,58.824 L116.29,70.812 C116.29,71.004 116.23,71.142 116.11,71.226 C115.99,71.31 115.87,71.352 115.75,71.352 L115.75,71.352 L115.75,72 L120.394,72 Z M151.462,72.108 C152.614,72.108 153.718,71.976 154.774,71.712 C155.83,71.448 156.772,71.136 157.6,70.776 C158.428,70.416 159.112,70.092 159.652,69.804 C160.192,69.516 160.534,69.372 160.678,69.372 C160.75,69.372 160.816,69.378 160.876,69.39 C160.936,69.402 161.002,69.408 161.074,69.408 L161.074,69.408 L161.362,69.12 L158.986,65.304 L158.482,65.592 C158.578,65.712 158.626,65.856 158.626,66.024 C158.626,66.336 158.392,66.666 157.924,67.014 C157.456,67.362 156.874,67.674 156.178,67.95 C155.482,68.226 154.714,68.454 153.874,68.634 C153.034,68.814 152.23,68.904 151.462,68.904 C150.454,68.904 149.488,68.76 148.564,68.472 C147.64,68.184 146.836,67.764 146.152,67.212 C145.468,66.66 144.922,65.982 144.514,65.178 C144.106,64.374 143.902,63.456 143.902,62.424 C143.902,61.392 144.106,60.474 144.514,59.67 C144.922,58.866 145.468,58.188 146.152,57.636 C146.836,57.084 147.64,56.664 148.564,56.376 C149.488,56.088 150.454,55.944 151.462,55.944 C152.062,55.944 152.716,56.016 153.424,56.16 C154.132,56.304 154.804,56.484 155.44,56.7 C156.076,56.916 156.61,57.162 157.042,57.438 C157.474,57.714 157.714,57.984 157.762,58.248 C157.786,58.344 157.804,58.428 157.816,58.5 C157.828,58.572 157.834,58.644 157.834,58.716 L157.834,58.716 L158.194,58.968 L161.002,54.612 L160.462,54.18 C160.414,54.252 160.348,54.348 160.264,54.468 C160.18,54.588 160.078,54.648 159.958,54.648 C159.862,54.648 159.598,54.552 159.166,54.36 C158.734,54.168 158.146,53.964 157.402,53.748 C156.658,53.532 155.788,53.328 154.792,53.136 C153.796,52.944 152.686,52.848 151.462,52.848 C149.95,52.848 148.498,53.052 147.106,53.46 C145.714,53.868 144.484,54.48 143.416,55.296 C142.348,56.112 141.502,57.126 140.878,58.338 C140.254,59.55 139.942,60.948 139.942,62.532 C139.942,64.14 140.254,65.544 140.878,66.744 C141.502,67.944 142.348,68.946 143.416,69.75 C144.484,70.554 145.714,71.148 147.106,71.532 C148.498,71.916 149.95,72.108 151.462,72.108 Z M174.97,72.108 C176.29,72.108 177.532,71.958 178.696,71.658 C179.86,71.358 180.874,70.872 181.738,70.2 C182.602,69.528 183.286,68.682 183.79,67.662 C184.294,66.642 184.546,65.448 184.546,64.08 C184.546,62.712 184.294,61.518 183.79,60.498 C183.286,59.478 182.602,58.632 181.738,57.96 C180.874,57.288 179.86,56.784 178.696,56.448 C177.532,56.112 176.29,55.944 174.97,55.944 C173.65,55.944 172.408,56.112 171.244,56.448 C170.08,56.784 169.066,57.288 168.202,57.96 C167.338,58.632 166.654,59.478 166.15,60.498 C165.646,61.518 165.394,62.712 165.394,64.08 C165.394,65.448 165.646,66.642 166.15,67.662 C166.654,68.682 167.338,69.528 168.202,70.2 C169.066,70.872 170.08,71.358 171.244,71.658 C172.408,71.958 173.65,72.108 174.97,72.108 Z M174.97,69.552 C174.202,69.552 173.452,69.426 172.72,69.174 C171.988,68.922 171.334,68.562 170.758,68.094 C170.182,67.626 169.72,67.056 169.372,66.384 C169.024,65.712 168.85,64.944 168.85,64.08 C168.85,63.216 169.024,62.448 169.372,61.776 C169.72,61.104 170.182,60.534 170.758,60.066 C171.334,59.598 171.988,59.238 172.72,58.986 C173.452,58.734 174.202,58.608 174.97,58.608 C175.738,58.608 176.488,58.734 177.22,58.986 C177.952,59.238 178.606,59.598 179.182,60.066 C179.758,60.534 180.22,61.104 180.568,61.776 C180.916,62.448 181.09,63.216 181.09,64.08 C181.09,64.944 180.916,65.712 180.568,66.384 C180.22,67.056 179.758,67.626 179.182,68.094 C178.606,68.562 177.952,68.922 177.22,69.174 C176.488,69.426 175.738,69.552 174.97,69.552 Z M194.698,72 L194.698,71.352 C194.026,71.352 193.69,71.172 193.69,70.812 L193.69,70.812 L193.69,57.348 C193.69,56.988 194.026,56.808 194.698,56.808 L194.698,56.808 L194.698,56.16 L189.226,56.16 L189.226,56.808 C189.61,56.808 189.874,56.85 190.018,56.934 C190.162,57.018 190.234,57.156 190.234,57.348 L190.234,57.348 L190.234,70.812 C190.234,71.004 190.162,71.142 190.018,71.226 C189.874,71.31 189.61,71.352 189.226,71.352 L189.226,71.352 L189.226,72 L194.698,72 Z M205.318,72 L205.318,71.352 C204.814,71.352 204.562,71.172 204.562,70.812 L204.562,70.812 L204.562,60.336 L213.49,69.84 C213.778,70.152 214.036,70.428 214.264,70.668 C214.492,70.908 214.606,71.076 214.606,71.172 C214.606,71.292 214.522,71.352 214.354,71.352 L214.354,71.352 L214.354,72 L219.034,72 L219.034,71.352 C218.602,71.352 218.386,71.172 218.386,70.812 L218.386,70.812 L218.386,57.348 C218.386,56.988 218.602,56.808 219.034,56.808 L219.034,56.808 L219.034,56.16 L214.642,56.16 L214.642,56.808 C215.122,56.808 215.362,56.988 215.362,57.348 L215.362,57.348 L215.362,67.104 L206.722,57.96 C206.194,57.432 205.93,57.108 205.93,56.988 C205.93,56.892 206.014,56.832 206.182,56.808 L206.182,56.808 L206.182,56.16 L200.89,56.16 L200.89,56.808 C201.322,56.808 201.538,56.988 201.538,57.348 L201.538,57.348 L201.538,70.812 C201.538,71.172 201.322,71.352 200.89,71.352 L200.89,71.352 L200.89,72 L205.318,72 Z M45.964,97.826 L46.63,95.504 L46.432,95.45 C46.396,95.558 46.327,95.627 46.225,95.657 C46.123,95.687 46.003,95.687 45.865,95.657 C45.727,95.627 45.577,95.576 45.415,95.504 C45.253,95.432 45.1,95.342 44.956,95.234 C44.8,95.126 44.62,94.97 44.416,94.766 C44.212,94.562 44.02,94.298 43.84,93.974 C43.66,93.65 43.51,93.269 43.39,92.831 C43.27,92.393 43.21,91.886 43.21,91.31 C43.21,90.77 43.255,90.296 43.345,89.888 C43.435,89.48 43.558,89.117 43.714,88.799 C43.87,88.481 44.044,88.205 44.236,87.971 C44.428,87.737 44.632,87.53 44.848,87.35 C44.992,87.23 45.148,87.131 45.316,87.053 C45.484,86.975 45.643,86.924 45.793,86.9 C45.943,86.876 46.078,86.879 46.198,86.909 C46.318,86.939 46.396,87.008 46.432,87.116 L46.432,87.116 L46.63,87.062 L45.964,84.74 L45.766,84.812 C45.79,84.944 45.787,85.055 45.757,85.145 C45.727,85.235 45.634,85.304 45.478,85.352 C44.818,85.532 44.242,85.817 43.75,86.207 C43.258,86.597 42.847,87.053 42.517,87.575 C42.187,88.097 41.941,88.679 41.779,89.321 C41.617,89.963 41.536,90.626 41.536,91.31 C41.536,92.018 41.623,92.687 41.797,93.317 C41.971,93.947 42.226,94.52 42.562,95.036 C42.898,95.552 43.309,95.996 43.795,96.368 C44.281,96.74 44.842,97.022 45.478,97.214 C45.634,97.262 45.727,97.331 45.757,97.421 C45.787,97.511 45.79,97.622 45.766,97.754 L45.766,97.754 L45.964,97.826 Z M51.562,95 L51.562,94.676 C51.358,94.676 51.217,94.649 51.139,94.595 C51.061,94.541 51.022,94.46 51.022,94.352 L51.022,94.352 L51.022,91.148 L53.596,91.148 L55.576,93.956 C55.672,94.088 55.744,94.193 55.792,94.271 C55.84,94.349 55.864,94.418 55.864,94.478 C55.864,94.538 55.825,94.586 55.747,94.622 C55.669,94.658 55.576,94.676 55.468,94.676 L55.468,94.676 L55.468,95 L58.834,95 L58.834,94.676 C58.738,94.676 58.633,94.664 58.519,94.64 C58.405,94.616 58.306,94.544 58.222,94.424 L58.222,94.424 L55.828,91.004 C56.62,90.86 57.25,90.578 57.718,90.158 C58.186,89.738 58.42,89.132 58.42,88.34 C58.42,87.824 58.33,87.389 58.15,87.035 C57.97,86.681 57.712,86.393 57.376,86.171 C57.04,85.949 56.638,85.787 56.17,85.685 C55.702,85.583 55.18,85.532 54.604,85.532 L54.604,85.532 L48.448,85.532 L48.448,85.856 C48.796,85.856 48.97,85.964 48.97,86.18 L48.97,86.18 L48.97,94.352 C48.97,94.568 48.796,94.676 48.448,94.676 L48.448,94.676 L48.448,95 L51.562,95 Z M54.136,89.744 L51.022,89.744 L51.022,87.08 L54.136,87.08 C54.568,87.08 54.928,87.113 55.216,87.179 C55.504,87.245 55.732,87.338 55.9,87.458 C56.068,87.578 56.188,87.719 56.26,87.881 C56.332,88.043 56.368,88.22 56.368,88.412 C56.368,88.604 56.332,88.781 56.26,88.943 C56.188,89.105 56.068,89.246 55.9,89.366 C55.732,89.486 55.504,89.579 55.216,89.645 C54.928,89.711 54.568,89.744 54.136,89.744 L54.136,89.744 Z M65.494,95.054 C66.154,95.054 66.775,94.979 67.357,94.829 C67.939,94.679 68.446,94.436 68.878,94.1 C69.31,93.764 69.652,93.341 69.904,92.831 C70.156,92.321 70.282,91.724 70.282,91.04 C70.282,90.356 70.156,89.759 69.904,89.249 C69.652,88.739 69.31,88.316 68.878,87.98 C68.446,87.644 67.939,87.392 67.357,87.224 C66.775,87.056 66.154,86.972 65.494,86.972 C64.834,86.972 64.213,87.056 63.631,87.224 C63.049,87.392 62.542,87.644 62.11,87.98 C61.678,88.316 61.336,88.739 61.084,89.249 C60.832,89.759 60.706,90.356 60.706,91.04 C60.706,91.724 60.832,92.321 61.084,92.831 C61.336,93.341 61.678,93.764 62.11,94.1 C62.542,94.436 63.049,94.679 63.631,94.829 C64.213,94.979 64.834,95.054 65.494,95.054 Z M65.494,93.776 C65.11,93.776 64.735,93.713 64.369,93.587 C64.003,93.461 63.676,93.281 63.388,93.047 C63.1,92.813 62.869,92.528 62.695,92.192 C62.521,91.856 62.434,91.472 62.434,91.04 C62.434,90.608 62.521,90.224 62.695,89.888 C62.869,89.552 63.1,89.267 63.388,89.033 C63.676,88.799 64.003,88.619 64.369,88.493 C64.735,88.367 65.11,88.304 65.494,88.304 C65.878,88.304 66.253,88.367 66.619,88.493 C66.985,88.619 67.312,88.799 67.6,89.033 C67.888,89.267 68.119,89.552 68.293,89.888 C68.467,90.224 68.554,90.608 68.554,91.04 C68.554,91.472 68.467,91.856 68.293,92.192 C68.119,92.528 67.888,92.813 67.6,93.047 C67.312,93.281 66.985,93.461 66.619,93.587 C66.253,93.713 65.878,93.776 65.494,93.776 Z M77.068,95.054 C77.788,95.054 78.415,94.979 78.949,94.829 C79.483,94.679 79.921,94.472 80.263,94.208 C80.605,93.944 80.86,93.641 81.028,93.299 C81.196,92.957 81.28,92.6 81.28,92.228 L81.28,92.228 L81.28,87.674 C81.28,87.494 81.412,87.404 81.676,87.404 L81.676,87.404 L81.676,87.08 L79.174,87.08 L79.174,87.404 C79.474,87.404 79.624,87.494 79.624,87.674 L79.624,87.674 L79.624,91.796 C79.624,92.372 79.414,92.834 78.994,93.182 C78.574,93.53 77.932,93.704 77.068,93.704 C76.204,93.704 75.562,93.53 75.142,93.182 C74.722,92.834 74.512,92.372 74.512,91.796 L74.512,91.796 L74.512,87.674 C74.512,87.494 74.644,87.404 74.908,87.404 L74.908,87.404 L74.908,87.08 L72.334,87.08 L72.334,87.404 C72.538,87.404 72.676,87.425 72.748,87.467 C72.82,87.509 72.856,87.578 72.856,87.674 L72.856,87.674 L72.856,92.228 C72.856,92.6 72.94,92.957 73.108,93.299 C73.276,93.641 73.531,93.944 73.873,94.208 C74.215,94.472 74.653,94.679 75.187,94.829 C75.721,94.979 76.348,95.054 77.068,95.054 Z M88.696,95.054 C89.272,95.054 89.794,95.015 90.262,94.937 C90.73,94.859 91.141,94.76 91.495,94.64 C91.849,94.52 92.143,94.397 92.377,94.271 C92.611,94.145 92.782,94.046 92.89,93.974 L92.89,93.974 L92.89,93.758 C92.77,93.71 92.695,93.665 92.665,93.623 C92.635,93.581 92.62,93.506 92.62,93.398 L92.62,93.398 L92.62,91.688 C92.62,91.568 92.638,91.478 92.674,91.418 C92.71,91.358 92.782,91.304 92.89,91.256 L92.89,91.256 L92.89,90.932 L89.362,90.932 C89.23,90.932 89.116,90.914 89.02,90.878 C88.924,90.842 88.864,90.764 88.84,90.644 L88.84,90.644 L88.516,90.644 L88.516,92.498 L88.84,92.498 C88.864,92.354 88.924,92.255 89.02,92.201 C89.116,92.147 89.23,92.12 89.362,92.12 L89.362,92.12 L91.216,92.12 L91.216,93.254 C90.832,93.458 90.409,93.596 89.947,93.668 C89.485,93.74 88.996,93.776 88.48,93.776 C88.132,93.776 87.772,93.728 87.4,93.632 C87.028,93.536 86.689,93.383 86.383,93.173 C86.077,92.963 85.828,92.687 85.636,92.345 C85.444,92.003 85.348,91.58 85.348,91.076 C85.348,90.572 85.438,90.146 85.618,89.798 C85.798,89.45 86.038,89.165 86.338,88.943 C86.638,88.721 86.986,88.559 87.382,88.457 C87.778,88.355 88.198,88.304 88.642,88.304 C88.966,88.304 89.287,88.337 89.605,88.403 C89.923,88.469 90.208,88.556 90.46,88.664 C90.712,88.772 90.916,88.889 91.072,89.015 C91.228,89.141 91.306,89.258 91.306,89.366 C91.306,89.378 91.294,89.444 91.27,89.564 L91.27,89.564 L91.486,89.69 L92.53,87.728 L92.314,87.62 C92.242,87.68 92.182,87.719 92.134,87.737 C92.086,87.755 92.014,87.764 91.918,87.764 C91.834,87.764 91.708,87.722 91.54,87.638 C91.372,87.554 91.15,87.464 90.874,87.368 C90.61,87.272 90.298,87.182 89.938,87.098 C89.578,87.014 89.164,86.972 88.696,86.972 C87.916,86.972 87.211,87.065 86.581,87.251 C85.951,87.437 85.417,87.707 84.979,88.061 C84.541,88.415 84.205,88.841 83.971,89.339 C83.737,89.837 83.62,90.404 83.62,91.04 C83.62,91.676 83.737,92.243 83.971,92.741 C84.205,93.239 84.541,93.662 84.979,94.01 C85.417,94.358 85.951,94.619 86.581,94.793 C87.211,94.967 87.916,95.054 88.696,95.054 Z M97.858,95 L97.858,94.676 C97.786,94.676 97.723,94.655 97.669,94.613 C97.615,94.571 97.588,94.502 97.588,94.406 L97.588,94.406 L97.588,91.688 L102.412,91.688 L102.412,94.406 C102.412,94.502 102.385,94.571 102.331,94.613 C102.277,94.655 102.214,94.676 102.142,94.676 L102.142,94.676 L102.142,95 L104.41,95 L104.41,94.676 C104.338,94.676 104.275,94.655 104.221,94.613 C104.167,94.571 104.14,94.502 104.14,94.406 L104.14,94.406 L104.14,87.674 C104.14,87.578 104.167,87.509 104.221,87.467 C104.275,87.425 104.338,87.404 104.41,87.404 L104.41,87.404 L104.41,87.08 L102.142,87.08 L102.142,87.404 C102.214,87.404 102.277,87.425 102.331,87.467 C102.385,87.509 102.412,87.578 102.412,87.674 L102.412,87.674 L102.412,90.212 L97.588,90.212 L97.588,87.674 C97.588,87.578 97.615,87.509 97.669,87.467 C97.723,87.425 97.786,87.404 97.858,87.404 L97.858,87.404 L97.858,87.08 L95.59,87.08 L95.59,87.404 C95.662,87.404 95.725,87.425 95.779,87.467 C95.833,87.509 95.86,87.578 95.86,87.674 L95.86,87.674 L95.86,94.406 C95.86,94.502 95.833,94.571 95.779,94.613 C95.725,94.655 95.662,94.676 95.59,94.676 L95.59,94.676 L95.59,95 L97.858,95 Z M106.84,90.41 C107.212,90.326 107.572,90.176 107.92,89.96 C108.268,89.744 108.574,89.486 108.838,89.186 C109.102,88.886 109.315,88.553 109.477,88.187 C109.639,87.821 109.72,87.44 109.72,87.044 C109.72,86.54 109.597,86.114 109.351,85.766 C109.105,85.418 108.742,85.244 108.262,85.244 C107.95,85.244 107.671,85.37 107.425,85.622 C107.179,85.874 107.056,86.174 107.056,86.522 C107.056,86.882 107.167,87.161 107.389,87.359 C107.611,87.557 107.872,87.656 108.172,87.656 C108.268,87.656 108.37,87.662 108.478,87.674 C108.586,87.686 108.652,87.734 108.676,87.818 C108.7,88.034 108.652,88.25 108.532,88.466 C108.412,88.682 108.259,88.883 108.073,89.069 C107.887,89.255 107.68,89.417 107.452,89.555 C107.224,89.693 107.02,89.786 106.84,89.834 L106.84,89.834 L106.84,90.41 Z M114.688,95 L114.688,94.676 C114.436,94.676 114.31,94.586 114.31,94.406 L114.31,94.406 L114.31,89.168 L118.774,93.92 C118.918,94.076 119.047,94.214 119.161,94.334 C119.275,94.454 119.332,94.538 119.332,94.586 C119.332,94.646 119.29,94.676 119.206,94.676 L119.206,94.676 L119.206,95 L121.546,95 L121.546,94.676 C121.33,94.676 121.222,94.586 121.222,94.406 L121.222,94.406 L121.222,87.674 C121.222,87.494 121.33,87.404 121.546,87.404 L121.546,87.404 L121.546,87.08 L119.35,87.08 L119.35,87.404 C119.59,87.404 119.71,87.494 119.71,87.674 L119.71,87.674 L119.71,92.552 L115.39,87.98 C115.126,87.716 114.994,87.554 114.994,87.494 C114.994,87.446 115.036,87.416 115.12,87.404 L115.12,87.404 L115.12,87.08 L112.474,87.08 L112.474,87.404 C112.69,87.404 112.798,87.494 112.798,87.674 L112.798,87.674 L112.798,94.406 C112.798,94.586 112.69,94.676 112.474,94.676 L112.474,94.676 L112.474,95 L114.688,95 Z M132.868,95 L132.868,94.676 C132.532,94.676 132.364,94.586 132.364,94.406 L132.364,94.406 L132.364,87.674 C132.364,87.494 132.532,87.404 132.868,87.404 L132.868,87.404 L132.868,87.08 L130.132,87.08 L130.132,87.404 C130.324,87.404 130.456,87.425 130.528,87.467 C130.6,87.509 130.636,87.578 130.636,87.674 L130.636,87.674 L130.636,94.406 C130.636,94.502 130.6,94.571 130.528,94.613 C130.456,94.655 130.324,94.676 130.132,94.676 L130.132,94.676 L130.132,95 L132.868,95 Z M140.194,95 L140.194,94.676 C139.978,94.676 139.87,94.586 139.87,94.406 L139.87,94.406 L139.87,88.412 L142.21,88.412 C142.306,88.412 142.396,88.436 142.48,88.484 C142.564,88.532 142.606,88.61 142.606,88.718 L142.606,88.718 L142.93,88.718 L142.93,86.648 L142.606,86.648 C142.606,86.816 142.564,86.93 142.48,86.99 C142.396,87.05 142.306,87.08 142.21,87.08 L142.21,87.08 L135.802,87.08 C135.706,87.08 135.616,87.05 135.532,86.99 C135.448,86.93 135.406,86.816 135.406,86.648 L135.406,86.648 L135.082,86.648 L135.082,88.718 L135.406,88.718 C135.406,88.61 135.448,88.532 135.532,88.484 C135.616,88.436 135.706,88.412 135.802,88.412 L135.802,88.412 L138.142,88.412 L138.142,94.406 C138.142,94.502 138.112,94.571 138.052,94.613 C137.992,94.655 137.932,94.676 137.872,94.676 L137.872,94.676 L137.872,95 L140.194,95 Z M159.868,95.342 L159.868,92.876 L159.544,92.876 C159.544,93.02 159.487,93.134 159.373,93.218 C159.259,93.302 159.112,93.344 158.932,93.344 L158.932,93.344 L152.92,93.344 L152.92,90.86 L156.448,90.86 C156.688,90.86 156.874,90.899 157.006,90.977 C157.138,91.055 157.204,91.232 157.204,91.508 L157.204,91.508 L157.528,91.508 L157.528,88.7 L157.204,88.7 C157.204,88.976 157.138,89.147 157.006,89.213 C156.874,89.279 156.688,89.312 156.448,89.312 L156.448,89.312 L152.92,89.312 L152.92,87.08 L158.752,87.08 C159.004,87.08 159.181,87.113 159.283,87.179 C159.385,87.245 159.436,87.344 159.436,87.476 L159.436,87.476 L159.76,87.476 L159.76,85.1 L159.436,85.1 C159.436,85.232 159.385,85.337 159.283,85.415 C159.181,85.493 159.004,85.532 158.752,85.532 L158.752,85.532 L150.544,85.532 L150.544,85.856 C150.628,85.856 150.703,85.883 150.769,85.937 C150.835,85.991 150.868,86.072 150.868,86.18 L150.868,86.18 L150.868,94.352 C150.868,94.46 150.835,94.541 150.769,94.595 C150.703,94.649 150.628,94.676 150.544,94.676 L150.544,94.676 L150.544,95 L158.932,95 C159.112,95 159.259,95.012 159.373,95.036 C159.487,95.06 159.544,95.162 159.544,95.342 L159.544,95.342 L159.868,95.342 Z M167.284,95 C167.992,95 168.592,94.886 169.084,94.658 C169.576,94.43 169.978,94.133 170.29,93.767 C170.602,93.401 170.83,92.981 170.974,92.507 C171.118,92.033 171.19,91.544 171.19,91.04 C171.19,90.536 171.115,90.047 170.965,89.573 C170.815,89.099 170.581,88.679 170.263,88.313 C169.945,87.947 169.534,87.65 169.03,87.422 C168.526,87.194 167.92,87.08 167.212,87.08 L167.212,87.08 L162.208,87.08 L162.208,87.404 C162.484,87.404 162.622,87.494 162.622,87.674 L162.622,87.674 L162.622,94.406 C162.622,94.586 162.484,94.676 162.208,94.676 L162.208,94.676 L162.208,95 L167.284,95 Z M166.69,93.668 L164.35,93.668 L164.35,88.412 L166.69,88.412 C167.062,88.412 167.416,88.433 167.752,88.475 C168.088,88.517 168.382,88.625 168.634,88.799 C168.886,88.973 169.087,89.231 169.237,89.573 C169.387,89.915 169.462,90.386 169.462,90.986 C169.462,91.586 169.387,92.063 169.237,92.417 C169.087,92.771 168.886,93.041 168.634,93.227 C168.382,93.413 168.088,93.533 167.752,93.587 C167.416,93.641 167.062,93.668 166.69,93.668 L166.69,93.668 Z M176.356,95 L176.356,94.676 C176.02,94.676 175.852,94.586 175.852,94.406 L175.852,94.406 L175.852,87.674 C175.852,87.494 176.02,87.404 176.356,87.404 L176.356,87.404 L176.356,87.08 L173.62,87.08 L173.62,87.404 C173.812,87.404 173.944,87.425 174.016,87.467 C174.088,87.509 174.124,87.578 174.124,87.674 L174.124,87.674 L174.124,94.406 C174.124,94.502 174.088,94.571 174.016,94.613 C173.944,94.655 173.812,94.676 173.62,94.676 L173.62,94.676 L173.62,95 L176.356,95 Z M183.682,95 L183.682,94.676 C183.466,94.676 183.358,94.586 183.358,94.406 L183.358,94.406 L183.358,88.412 L185.698,88.412 C185.794,88.412 185.884,88.436 185.968,88.484 C186.052,88.532 186.094,88.61 186.094,88.718 L186.094,88.718 L186.418,88.718 L186.418,86.648 L186.094,86.648 C186.094,86.816 186.052,86.93 185.968,86.99 C185.884,87.05 185.794,87.08 185.698,87.08 L185.698,87.08 L179.29,87.08 C179.194,87.08 179.104,87.05 179.02,86.99 C178.936,86.93 178.894,86.816 178.894,86.648 L178.894,86.648 L178.57,86.648 L178.57,88.718 L178.894,88.718 C178.894,88.61 178.936,88.532 179.02,88.484 C179.104,88.436 179.194,88.412 179.29,88.412 L179.29,88.412 L181.63,88.412 L181.63,94.406 C181.63,94.502 181.6,94.571 181.54,94.613 C181.48,94.655 181.42,94.676 181.36,94.676 L181.36,94.676 L181.36,95 L183.682,95 Z M191.35,95 L191.35,94.676 C191.014,94.676 190.846,94.586 190.846,94.406 L190.846,94.406 L190.846,87.674 C190.846,87.494 191.014,87.404 191.35,87.404 L191.35,87.404 L191.35,87.08 L188.614,87.08 L188.614,87.404 C188.806,87.404 188.938,87.425 189.01,87.467 C189.082,87.509 189.118,87.578 189.118,87.674 L189.118,87.674 L189.118,94.406 C189.118,94.502 189.082,94.571 189.01,94.613 C188.938,94.655 188.806,94.676 188.614,94.676 L188.614,94.676 L188.614,95 L191.35,95 Z M198.478,95.054 C199.138,95.054 199.759,94.979 200.341,94.829 C200.923,94.679 201.43,94.436 201.862,94.1 C202.294,93.764 202.636,93.341 202.888,92.831 C203.14,92.321 203.266,91.724 203.266,91.04 C203.266,90.356 203.14,89.759 202.888,89.249 C202.636,88.739 202.294,88.316 201.862,87.98 C201.43,87.644 200.923,87.392 200.341,87.224 C199.759,87.056 199.138,86.972 198.478,86.972 C197.818,86.972 197.197,87.056 196.615,87.224 C196.033,87.392 195.526,87.644 195.094,87.98 C194.662,88.316 194.32,88.739 194.068,89.249 C193.816,89.759 193.69,90.356 193.69,91.04 C193.69,91.724 193.816,92.321 194.068,92.831 C194.32,93.341 194.662,93.764 195.094,94.1 C195.526,94.436 196.033,94.679 196.615,94.829 C197.197,94.979 197.818,95.054 198.478,95.054 Z M198.478,93.776 C198.094,93.776 197.719,93.713 197.353,93.587 C196.987,93.461 196.66,93.281 196.372,93.047 C196.084,92.813 195.853,92.528 195.679,92.192 C195.505,91.856 195.418,91.472 195.418,91.04 C195.418,90.608 195.505,90.224 195.679,89.888 C195.853,89.552 196.084,89.267 196.372,89.033 C196.66,88.799 196.987,88.619 197.353,88.493 C197.719,88.367 198.094,88.304 198.478,88.304 C198.862,88.304 199.237,88.367 199.603,88.493 C199.969,88.619 200.296,88.799 200.584,89.033 C200.872,89.267 201.103,89.552 201.277,89.888 C201.451,90.224 201.538,90.608 201.538,91.04 C201.538,91.472 201.451,91.856 201.277,92.192 C201.103,92.528 200.872,92.813 200.584,93.047 C200.296,93.281 199.969,93.461 199.603,93.587 C199.237,93.713 198.862,93.776 198.478,93.776 Z M207.658,95 L207.658,94.676 C207.406,94.676 207.28,94.586 207.28,94.406 L207.28,94.406 L207.28,89.168 L211.744,93.92 C211.888,94.076 212.017,94.214 212.131,94.334 C212.245,94.454 212.302,94.538 212.302,94.586 C212.302,94.646 212.26,94.676 212.176,94.676 L212.176,94.676 L212.176,95 L214.516,95 L214.516,94.676 C214.3,94.676 214.192,94.586 214.192,94.406 L214.192,94.406 L214.192,87.674 C214.192,87.494 214.3,87.404 214.516,87.404 L214.516,87.404 L214.516,87.08 L212.32,87.08 L212.32,87.404 C212.56,87.404 212.68,87.494 212.68,87.674 L212.68,87.674 L212.68,92.552 L208.36,87.98 C208.096,87.716 207.964,87.554 207.964,87.494 C207.964,87.446 208.006,87.416 208.09,87.404 L208.09,87.404 L208.09,87.08 L205.444,87.08 L205.444,87.404 C205.66,87.404 205.768,87.494 205.768,87.674 L205.768,87.674 L205.768,94.406 C205.768,94.586 205.66,94.676 205.444,94.676 L205.444,94.676 L205.444,95 L207.658,95 Z M217.288,97.826 L217.486,97.754 C217.462,97.622 217.465,97.511 217.495,97.421 C217.525,97.331 217.618,97.262 217.774,97.214 C218.398,97.022 218.956,96.74 219.448,96.368 C219.94,95.996 220.354,95.552 220.69,95.036 C221.026,94.52 221.281,93.947 221.455,93.317 C221.629,92.687 221.716,92.018 221.716,91.31 C221.716,90.626 221.635,89.963 221.473,89.321 C221.311,88.679 221.065,88.097 220.735,87.575 C220.405,87.053 219.994,86.597 219.502,86.207 C219.01,85.817 218.434,85.532 217.774,85.352 C217.618,85.304 217.525,85.235 217.495,85.145 C217.465,85.055 217.462,84.944 217.486,84.812 L217.486,84.812 L217.288,84.74 L216.622,87.062 L216.82,87.116 C216.892,86.912 217.081,86.834 217.387,86.882 C217.693,86.93 218.032,87.074 218.404,87.314 C218.86,87.602 219.247,88.07 219.565,88.718 C219.883,89.366 220.042,90.23 220.042,91.31 C220.042,91.886 219.982,92.393 219.862,92.831 C219.742,93.269 219.592,93.65 219.412,93.974 C219.232,94.298 219.04,94.562 218.836,94.766 C218.632,94.97 218.452,95.126 218.296,95.234 C218.152,95.342 217.999,95.432 217.837,95.504 C217.675,95.576 217.525,95.627 217.387,95.657 C217.249,95.687 217.129,95.687 217.027,95.657 C216.925,95.627 216.856,95.558 216.82,95.45 L216.82,95.45 L216.622,95.504 L217.288,97.826 Z" id="ButtCoin(Rough’nitEdition)" fill="#000000" fill-rule="nonzero"></path>
    </g>
</svg>