<?xml version="1.0" encoding="UTF-8"?>
<svg width="262px" height="360px" viewBox="0 0 262 360" version="1.1" xmlns="http://www.w3.org/2000/svg" xmlns:xlink="http://www.w3.org/1999/xlink">
    <title>WHO Dunnit Back</title>
    <g id="WHO-Dunnit-Back" stroke="none" stroke-width="1" fill="none" fill-rule="evenodd">
        <g id="Group" transform="translate(10.000000, 10.000000)">
            <rect id="Rectangle" stroke="#000000" stroke-width="4" fill="#EC8D40" x="2" y="2" width="238" height="336" rx="8"></rect>
            <path d="M113.232,314 L113.232,313.748 C113.110667,313.710667 113.05,313.617333 113.05,313.468 C113.05,313.374667 113.12,313.146 113.26,312.782 L113.26,312.782 L114.786,308.736 L114.814,308.736 L116.424,312.866 C116.498667,313.034 116.552333,313.164667 116.585,313.258 C116.617667,313.351333 116.634,313.435333 116.634,313.51 C116.634,313.575333 116.603667,313.626667 116.543,313.664 C116.482333,313.701333 116.424,313.729333 116.368,313.748 L116.368,313.748 L116.368,314 L118.58,314 L118.58,313.748 C118.496,313.748 118.430667,313.722333 118.384,313.671 C118.337333,313.619667 118.314,313.561333 118.314,313.496 C118.314,313.421333 118.335,313.328 118.377,313.216 C118.419,313.104 118.468,312.973333 118.524,312.824 L118.524,312.824 L120.54,307.476 C120.605333,307.308 120.663667,307.168 120.715,307.056 C120.766333,306.944 120.843333,306.888 120.946,306.888 L120.946,306.888 L120.946,306.636 L118.874,306.636 L118.874,306.888 C118.939333,306.888 118.995333,306.913667 119.042,306.965 C119.088667,307.016333 119.112,307.07 119.112,307.126 C119.112,307.238 119.079333,307.364 119.014,307.504 L119.014,307.504 L117.502,311.536 L117.474,311.536 L115.976,307.588 C115.882667,307.364 115.836,307.205333 115.836,307.112 C115.836,307.056 115.85,307.004667 115.878,306.958 C115.906,306.911333 115.952667,306.888 116.018,306.888 L116.018,306.888 L116.018,306.636 L113.624,306.636 L113.624,306.888 C113.745333,306.888 113.806,306.976667 113.806,307.154 C113.806,307.200667 113.799,307.254333 113.785,307.315 C113.771,307.375667 113.740667,307.466667 113.694,307.588 L113.694,307.588 L112.21,311.536 L112.182,311.536 L110.684,307.644 C110.628,307.494667 110.593,307.387333 110.579,307.322 C110.565,307.256667 110.558,307.200667 110.558,307.154 C110.558,306.976667 110.628,306.888 110.768,306.888 L110.768,306.888 L110.768,306.636 L108.598,306.636 L108.598,306.888 C108.691333,306.906667 108.759,306.951 108.801,307.021 C108.843,307.091 108.882667,307.177333 108.92,307.28 L108.92,307.28 L111.16,313.062 C111.197333,313.155333 111.232333,313.244 111.265,313.328 C111.297667,313.412 111.314,313.491333 111.314,313.566 C111.314,313.631333 111.286,313.678 111.23,313.706 C111.174,313.734 111.118,313.748 111.062,313.748 L111.062,313.748 L111.062,314 L113.232,314 Z M124.824,314 L124.824,313.748 C124.758667,313.748 124.700333,313.727 124.649,313.685 C124.597667,313.643 124.572,313.58 124.572,313.496 L124.572,313.496 L124.572,310.864 L129.08,310.864 L129.08,313.496 C129.08,313.664 128.977333,313.748 128.772,313.748 L128.772,313.748 L128.772,314 L130.928,314 L130.928,313.748 C130.862667,313.748 130.804333,313.727 130.753,313.685 C130.701667,313.643 130.676,313.58 130.676,313.496 L130.676,313.496 L130.676,307.14 C130.676,307.056 130.701667,306.993 130.753,306.951 C130.804333,306.909 130.862667,306.888 130.928,306.888 L130.928,306.888 L130.928,306.636 L128.772,306.636 L128.772,306.888 C128.977333,306.888 129.08,306.972 129.08,307.14 L129.08,307.14 L129.08,309.52 L124.572,309.52 L124.572,307.14 C124.572,307.056 124.597667,306.993 124.649,306.951 C124.700333,306.909 124.758667,306.888 124.824,306.888 L124.824,306.888 L124.824,306.636 L122.71,306.636 L122.71,306.888 C122.887333,306.888 122.976,306.972 122.976,307.14 L122.976,307.14 L122.976,313.496 C122.976,313.664 122.887333,313.748 122.71,313.748 L122.71,313.748 L122.71,314 L124.824,314 Z M137.718,314.042 C138.231333,314.042 138.754,313.972 139.286,313.832 C139.818,313.692 140.303333,313.468 140.742,313.16 C141.180667,312.852 141.54,312.462333 141.82,311.991 C142.1,311.519667 142.24,310.962 142.24,310.318 C142.24,309.674 142.1,309.116333 141.82,308.645 C141.54,308.173667 141.180667,307.784 140.742,307.476 C140.303333,307.168 139.818,306.937 139.286,306.783 C138.754,306.629 138.231333,306.552 137.718,306.552 C137.204667,306.552 136.682,306.629 136.15,306.783 C135.618,306.937 135.132667,307.168 134.694,307.476 C134.255333,307.784 133.896,308.173667 133.616,308.645 C133.336,309.116333 133.196,309.674 133.196,310.318 C133.196,310.962 133.336,311.519667 133.616,311.991 C133.896,312.462333 134.255333,312.852 134.694,313.16 C135.132667,313.468 135.618,313.692 136.15,313.832 C136.682,313.972 137.204667,314.042 137.718,314.042 Z M137.718,312.796 C137.363333,312.796 137.008667,312.74 136.654,312.628 C136.299333,312.516 135.979667,312.355 135.695,312.145 C135.410333,311.935 135.179333,311.676 135.002,311.368 C134.824667,311.06 134.736,310.71 134.736,310.318 C134.736,309.926 134.824667,309.576 135.002,309.268 C135.179333,308.96 135.410333,308.701 135.695,308.491 C135.979667,308.281 136.299333,308.12 136.654,308.008 C137.008667,307.896 137.363333,307.84 137.718,307.84 C138.072667,307.84 138.427333,307.896 138.782,308.008 C139.136667,308.12 139.456333,308.281 139.741,308.491 C140.025667,308.701 140.256667,308.96 140.434,309.268 C140.611333,309.576 140.7,309.926 140.7,310.318 C140.7,310.71 140.611333,311.06 140.434,311.368 C140.256667,311.676 140.025667,311.935 139.741,312.145 C139.456333,312.355 139.136667,312.516 138.782,312.628 C138.427333,312.74 138.072667,312.796 137.718,312.796 Z M150.064,314.036 C150.336,314.036 150.626,314.016 150.934,313.976 C151.242,313.936 151.524,313.852 151.78,313.724 C152.036,313.596 152.25,313.42 152.422,313.196 C152.594,312.972 152.68,312.684 152.68,312.332 C152.68,311.98 152.582,311.704 152.386,311.504 C152.19,311.304 151.944,311.152 151.648,311.048 C151.352,310.944 151.032,310.87 150.688,310.826 C150.344,310.782 150.024,310.738 149.728,310.694 C149.432,310.65 149.186,310.59 148.99,310.514 C148.794,310.438 148.696,310.312 148.696,310.136 C148.696,310.024 148.728,309.93 148.792,309.854 C148.856,309.778 148.944,309.716 149.056,309.668 C149.168,309.62 149.296,309.586 149.44,309.566 C149.584,309.546 149.736,309.536 149.896,309.536 C150.312,309.536 150.688,309.584 151.024,309.68 C151.36,309.776 151.608,309.892 151.768,310.028 C151.832,310.076 151.868,310.124 151.876,310.172 L151.876,310.172 L151.9,310.316 L152.116,310.388 L152.716,309.26 L152.584,309.128 C152.536,309.152 152.496,309.174 152.464,309.194 C152.432,309.214 152.384,309.224 152.32,309.224 C152.264,309.224 152.178,309.194 152.062,309.134 C151.946,309.074 151.796,309.008 151.612,308.936 C151.428,308.864 151.202,308.798 150.934,308.738 C150.666,308.678 150.344,308.648 149.968,308.648 C149.2,308.648 148.604,308.8 148.18,309.104 C147.756,309.408 147.544,309.816 147.544,310.328 C147.544,310.672 147.642,310.938 147.838,311.126 C148.034,311.314 148.28,311.458 148.576,311.558 C148.872,311.658 149.192,311.73 149.536,311.774 C149.88,311.818 150.2,311.862 150.496,311.906 C150.792,311.95 151.038,312.012 151.234,312.092 C151.43,312.172 151.528,312.3 151.528,312.476 C151.528,312.628 151.472,312.75 151.36,312.842 C151.248,312.934 151.112,313.006 150.952,313.058 C150.792,313.11 150.63,313.144 150.466,313.16 C150.302,313.176 150.164,313.184 150.052,313.184 C149.932,313.184 149.766,313.164 149.554,313.124 C149.342,313.084 149.13,313.03 148.918,312.962 C148.706,312.894 148.524,312.81 148.372,312.71 C148.22,312.61 148.144,312.5 148.144,312.38 C148.144,312.34 148.146,312.302 148.15,312.266 C148.154,312.23 148.156,312.196 148.156,312.164 L148.156,312.164 L147.928,312.104 L147.376,313.448 L147.544,313.568 C147.584,313.52 147.632,313.496 147.688,313.496 C147.72,313.496 147.812,313.526 147.964,313.586 C148.116,313.646 148.302,313.71 148.522,313.778 C148.742,313.846 148.986,313.906 149.254,313.958 C149.522,314.01 149.792,314.036 150.064,314.036 Z M157.288,314 L157.288,313.784 C157.144,313.784 157.072,313.724 157.072,313.604 L157.072,313.604 L157.072,309.608 L158.632,309.608 C158.696,309.608 158.756,309.624 158.812,309.656 C158.868,309.688 158.896,309.74 158.896,309.812 L158.896,309.812 L159.112,309.812 L159.112,308.432 L158.896,308.432 C158.896,308.544 158.868,308.62 158.812,308.66 C158.756,308.7 158.696,308.72 158.632,308.72 L158.632,308.72 L154.36,308.72 C154.296,308.72 154.236,308.7 154.18,308.66 C154.124,308.62 154.096,308.544 154.096,308.432 L154.096,308.432 L153.88,308.432 L153.88,309.812 L154.096,309.812 C154.096,309.74 154.124,309.688 154.18,309.656 C154.236,309.624 154.296,309.608 154.36,309.608 L154.36,309.608 L155.92,309.608 L155.92,313.604 C155.92,313.668 155.9,313.714 155.86,313.742 C155.82,313.77 155.78,313.784 155.74,313.784 L155.74,313.784 L155.74,314 L157.288,314 Z M161.284,314 L161.284,313.784 C161.212,313.784 161.156,313.776 161.116,313.76 C161.076,313.744 161.056,313.704 161.056,313.64 C161.056,313.6 161.066,313.554 161.086,313.502 C161.106,313.45 161.132,313.392 161.164,313.328 L161.164,313.328 L161.5,312.68 L164.068,312.68 L164.392,313.364 C164.416,313.428 164.436,313.48 164.452,313.52 C164.468,313.56 164.476,313.604 164.476,313.652 C164.476,313.716 164.454,313.76 164.41,313.784 C164.366,313.808 164.324,313.82 164.284,313.82 L164.284,313.82 L164.284,314 L165.988,314 L165.988,313.784 C165.932,313.768 165.88,313.744 165.832,313.712 C165.784,313.68 165.74,313.628 165.7,313.556 L165.7,313.556 L163.756,309.476 C163.716,309.388 163.678,309.31 163.642,309.242 C163.606,309.174 163.588,309.116 163.588,309.068 C163.588,309.012 163.602,308.98 163.63,308.972 C163.658,308.964 163.684,308.952 163.708,308.936 L163.708,308.936 L163.708,308.72 L161.896,308.72 L161.896,308.936 C161.92,308.952 161.942,308.966 161.962,308.978 C161.982,308.99 161.992,309.02 161.992,309.068 C161.992,309.132 161.978,309.198 161.95,309.266 C161.922,309.334 161.884,309.424 161.836,309.536 L161.836,309.536 L160.048,313.436 C160.016,313.5 159.97,313.57 159.91,313.646 C159.85,313.722 159.772,313.768 159.676,313.784 L159.676,313.784 L159.676,314 L161.284,314 Z M163.684,311.792 L161.86,311.792 L162.712,309.776 L163.684,311.792 Z M168.7,314 L168.7,313.784 C168.652,313.784 168.602,313.77 168.55,313.742 C168.498,313.714 168.472,313.668 168.472,313.604 L168.472,313.604 L168.472,311.888 L170.14,311.888 L171.088,313.304 C171.208,313.472 171.268,313.596 171.268,313.676 C171.268,313.748 171.216,313.784 171.112,313.784 L171.112,313.784 L171.112,314 L172.948,314 L172.948,313.784 C172.86,313.76 172.778,313.726 172.702,313.682 C172.626,313.638 172.556,313.572 172.492,313.484 L172.492,313.484 L171.316,311.768 C171.484,311.728 171.648,311.67 171.808,311.594 C171.968,311.518 172.114,311.418 172.246,311.294 C172.378,311.17 172.484,311.024 172.564,310.856 C172.644,310.688 172.684,310.496 172.684,310.28 C172.684,309.712 172.484,309.31 172.084,309.074 C171.684,308.838 171.128,308.72 170.416,308.72 L170.416,308.72 L167.104,308.72 L167.104,308.936 C167.248,308.936 167.32,308.996 167.32,309.116 L167.32,309.116 L167.32,313.604 C167.32,313.724 167.248,313.784 167.104,313.784 L167.104,313.784 L167.104,314 L168.7,314 Z M170.392,311 L168.496,311 L168.496,309.608 L170.392,309.608 C170.8,309.608 171.098,309.666 171.286,309.782 C171.474,309.898 171.568,310.056 171.568,310.256 C171.568,310.752 171.176,311 170.392,311 L170.392,311 Z M177.292,314 L177.292,313.784 C177.148,313.784 177.076,313.724 177.076,313.604 L177.076,313.604 L177.076,309.608 L178.636,309.608 C178.7,309.608 178.76,309.624 178.816,309.656 C178.872,309.688 178.9,309.74 178.9,309.812 L178.9,309.812 L179.116,309.812 L179.116,308.432 L178.9,308.432 C178.9,308.544 178.872,308.62 178.816,308.66 C178.76,308.7 178.7,308.72 178.636,308.72 L178.636,308.72 L174.364,308.72 C174.3,308.72 174.24,308.7 174.184,308.66 C174.128,308.62 174.1,308.544 174.1,308.432 L174.1,308.432 L173.884,308.432 L173.884,309.812 L174.1,309.812 C174.1,309.74 174.128,309.688 174.184,309.656 C174.24,309.624 174.3,309.608 174.364,309.608 L174.364,309.608 L175.924,309.608 L175.924,313.604 C175.924,313.668 175.904,313.714 175.864,313.742 C175.824,313.77 175.784,313.784 175.744,313.784 L175.744,313.784 L175.744,314 L177.292,314 Z M185.44,314.132 L185.44,312.872 L185.224,312.872 C185.224,312.944 185.192,313.002 185.128,313.046 C185.064,313.09 184.984,313.112 184.888,313.112 L184.888,313.112 L181.816,313.112 L181.816,311.696 L183.568,311.696 C183.728,311.696 183.852,311.706 183.94,311.726 C184.028,311.746 184.06,311.8 184.036,311.888 L184.036,311.888 L184.276,311.888 L184.276,310.616 L184.06,310.616 C184.06,310.704 184.028,310.758 183.964,310.778 C183.9,310.798 183.8,310.808 183.664,310.808 L183.664,310.808 L181.816,310.808 L181.816,309.608 L184.744,309.608 C184.992,309.608 185.116,309.684 185.116,309.836 L185.116,309.836 L185.332,309.836 L185.332,308.504 L185.116,308.504 C185.116,308.648 184.992,308.72 184.744,308.72 L184.744,308.72 L180.484,308.72 L180.484,308.936 C180.524,308.936 180.564,308.95 180.604,308.978 C180.644,309.006 180.664,309.052 180.664,309.116 L180.664,309.116 L180.664,313.604 C180.664,313.668 180.644,313.714 180.604,313.742 C180.564,313.77 180.524,313.784 180.484,313.784 L180.484,313.784 L180.484,314 L184.888,314 C184.984,314 185.064,314.004 185.128,314.012 C185.192,314.02 185.224,314.06 185.224,314.132 L185.224,314.132 L185.44,314.132 Z M190.36,314 C190.832,314 191.232,313.924 191.56,313.772 C191.888,313.62 192.156,313.422 192.364,313.178 C192.572,312.934 192.724,312.654 192.82,312.338 C192.916,312.022 192.964,311.696 192.964,311.36 C192.964,311.024 192.914,310.698 192.814,310.382 C192.714,310.066 192.558,309.786 192.346,309.542 C192.134,309.298 191.86,309.1 191.524,308.948 C191.188,308.796 190.784,308.72 190.312,308.72 L190.312,308.72 L186.976,308.72 L186.976,308.936 C187.16,308.936 187.252,308.996 187.252,309.116 L187.252,309.116 L187.252,313.604 C187.252,313.724 187.16,313.784 186.976,313.784 L186.976,313.784 L186.976,314 L190.36,314 Z M189.964,313.112 L188.404,313.112 L188.404,309.608 L189.964,309.608 C190.212,309.608 190.448,309.622 190.672,309.65 C190.896,309.678 191.092,309.75 191.26,309.866 C191.428,309.982 191.562,310.154 191.662,310.382 C191.762,310.61 191.812,310.924 191.812,311.324 C191.812,311.724 191.762,312.042 191.662,312.278 C191.562,312.514 191.428,312.694 191.26,312.818 C191.092,312.942 190.896,313.022 190.672,313.058 C190.448,313.094 190.212,313.112 189.964,313.112 L189.964,313.112 Z M200.956,314 L200.956,313.784 C200.812,313.784 200.74,313.724 200.74,313.604 L200.74,313.604 L200.74,309.608 L202.3,309.608 C202.364,309.608 202.424,309.624 202.48,309.656 C202.536,309.688 202.564,309.74 202.564,309.812 L202.564,309.812 L202.78,309.812 L202.78,308.432 L202.564,308.432 C202.564,308.544 202.536,308.62 202.48,308.66 C202.424,308.7 202.364,308.72 202.3,308.72 L202.3,308.72 L198.028,308.72 C197.964,308.72 197.904,308.7 197.848,308.66 C197.792,308.62 197.764,308.544 197.764,308.432 L197.764,308.432 L197.548,308.432 L197.548,309.812 L197.764,309.812 C197.764,309.74 197.792,309.688 197.848,309.656 C197.904,309.624 197.964,309.608 198.028,309.608 L198.028,309.608 L199.588,309.608 L199.588,313.604 C199.588,313.668 199.568,313.714 199.528,313.742 C199.488,313.77 199.448,313.784 199.408,313.784 L199.408,313.784 L199.408,314 L200.956,314 Z M205.732,314 L205.732,313.784 C205.684,313.784 205.642,313.77 205.606,313.742 C205.57,313.714 205.552,313.668 205.552,313.604 L205.552,313.604 L205.552,311.792 L208.768,311.792 L208.768,313.604 C208.768,313.668 208.75,313.714 208.714,313.742 C208.678,313.77 208.636,313.784 208.588,313.784 L208.588,313.784 L208.588,314 L210.1,314 L210.1,313.784 C210.052,313.784 210.01,313.77 209.974,313.742 C209.938,313.714 209.92,313.668 209.92,313.604 L209.92,313.604 L209.92,309.116 C209.92,309.052 209.938,309.006 209.974,308.978 C210.01,308.95 210.052,308.936 210.1,308.936 L210.1,308.936 L210.1,308.72 L208.588,308.72 L208.588,308.936 C208.636,308.936 208.678,308.95 208.714,308.978 C208.75,309.006 208.768,309.052 208.768,309.116 L208.768,309.116 L208.768,310.808 L205.552,310.808 L205.552,309.116 C205.552,309.052 205.57,309.006 205.606,308.978 C205.642,308.95 205.684,308.936 205.732,308.936 L205.732,308.936 L205.732,308.72 L204.22,308.72 L204.22,308.936 C204.268,308.936 204.31,308.95 204.346,308.978 C204.382,309.006 204.4,309.052 204.4,309.116 L204.4,309.116 L204.4,313.604 C204.4,313.668 204.382,313.714 204.346,313.742 C204.31,313.77 204.268,313.784 204.22,313.784 L204.22,313.784 L204.22,314 L205.732,314 Z M214.072,314 L214.072,313.784 C213.848,313.784 213.736,313.724 213.736,313.604 L213.736,313.604 L213.736,309.116 C213.736,308.996 213.848,308.936 214.072,308.936 L214.072,308.936 L214.072,308.72 L212.248,308.72 L212.248,308.936 C212.376,308.936 212.464,308.95 212.512,308.978 C212.56,309.006 212.584,309.052 212.584,309.116 L212.584,309.116 L212.584,313.604 C212.584,313.668 212.56,313.714 212.512,313.742 C212.464,313.77 212.376,313.784 212.248,313.784 L212.248,313.784 L212.248,314 L214.072,314 Z M218.404,314.036 C218.676,314.036 218.966,314.016 219.274,313.976 C219.582,313.936 219.864,313.852 220.12,313.724 C220.376,313.596 220.59,313.42 220.762,313.196 C220.934,312.972 221.02,312.684 221.02,312.332 C221.02,311.98 220.922,311.704 220.726,311.504 C220.53,311.304 220.284,311.152 219.988,311.048 C219.692,310.944 219.372,310.87 219.028,310.826 C218.684,310.782 218.364,310.738 218.068,310.694 C217.772,310.65 217.526,310.59 217.33,310.514 C217.134,310.438 217.036,310.312 217.036,310.136 C217.036,310.024 217.068,309.93 217.132,309.854 C217.196,309.778 217.284,309.716 217.396,309.668 C217.508,309.62 217.636,309.586 217.78,309.566 C217.924,309.546 218.076,309.536 218.236,309.536 C218.652,309.536 219.028,309.584 219.364,309.68 C219.7,309.776 219.948,309.892 220.108,310.028 C220.172,310.076 220.208,310.124 220.216,310.172 L220.216,310.172 L220.24,310.316 L220.456,310.388 L221.056,309.26 L220.924,309.128 C220.876,309.152 220.836,309.174 220.804,309.194 C220.772,309.214 220.724,309.224 220.66,309.224 C220.604,309.224 220.518,309.194 220.402,309.134 C220.286,309.074 220.136,309.008 219.952,308.936 C219.768,308.864 219.542,308.798 219.274,308.738 C219.006,308.678 218.684,308.648 218.308,308.648 C217.54,308.648 216.944,308.8 216.52,309.104 C216.096,309.408 215.884,309.816 215.884,310.328 C215.884,310.672 215.982,310.938 216.178,311.126 C216.374,311.314 216.62,311.458 216.916,311.558 C217.212,311.658 217.532,311.73 217.876,311.774 C218.22,311.818 218.54,311.862 218.836,311.906 C219.132,311.95 219.378,312.012 219.574,312.092 C219.77,312.172 219.868,312.3 219.868,312.476 C219.868,312.628 219.812,312.75 219.7,312.842 C219.588,312.934 219.452,313.006 219.292,313.058 C219.132,313.11 218.97,313.144 218.806,313.16 C218.642,313.176 218.504,313.184 218.392,313.184 C218.272,313.184 218.106,313.164 217.894,313.124 C217.682,313.084 217.47,313.03 217.258,312.962 C217.046,312.894 216.864,312.81 216.712,312.71 C216.56,312.61 216.484,312.5 216.484,312.38 C216.484,312.34 216.486,312.302 216.49,312.266 C216.494,312.23 216.496,312.196 216.496,312.164 L216.496,312.164 L216.268,312.104 L215.716,313.448 L215.884,313.568 C215.924,313.52 215.972,313.496 216.028,313.496 C216.06,313.496 216.152,313.526 216.304,313.586 C216.456,313.646 216.642,313.71 216.862,313.778 C217.082,313.846 217.326,313.906 217.594,313.958 C217.862,314.01 218.132,314.036 218.404,314.036 Z M118.074,326 L118.074,325.784 C118.002,325.784 117.938,325.77 117.882,325.742 C117.826,325.714 117.798,325.668 117.798,325.604 L117.798,325.604 L117.798,323.768 L119.91,323.768 C120.046,323.768 120.13,323.784 120.162,323.816 C120.194,323.848 120.214,323.896 120.222,323.96 L120.222,323.96 L120.438,323.96 L120.438,322.7 L120.222,322.7 C120.214,322.764 120.194,322.81 120.162,322.838 C120.13,322.866 120.046,322.88 119.91,322.88 L119.91,322.88 L117.798,322.88 L117.798,321.608 L121.05,321.608 C121.186,321.608 121.282,321.626 121.338,321.662 C121.394,321.698 121.422,321.736 121.422,321.776 L121.422,321.776 L121.638,321.776 L121.638,320.504 L121.422,320.504 C121.422,320.568 121.394,320.62 121.338,320.66 C121.282,320.7 121.186,320.72 121.05,320.72 L121.05,320.72 L116.394,320.72 L116.394,320.936 C116.562,320.936 116.646,320.996 116.646,321.116 L116.646,321.116 L116.646,325.604 C116.646,325.724 116.57,325.784 116.418,325.784 L116.418,325.784 L116.418,326 L118.074,326 Z M124.698,326 L124.698,325.784 C124.65,325.784 124.6,325.77 124.548,325.742 C124.496,325.714 124.47,325.668 124.47,325.604 L124.47,325.604 L124.47,323.888 L126.138,323.888 L127.086,325.304 C127.206,325.472 127.266,325.596 127.266,325.676 C127.266,325.748 127.214,325.784 127.11,325.784 L127.11,325.784 L127.11,326 L128.946,326 L128.946,325.784 C128.858,325.76 128.776,325.726 128.7,325.682 C128.624,325.638 128.554,325.572 128.49,325.484 L128.49,325.484 L127.314,323.768 C127.482,323.728 127.646,323.67 127.806,323.594 C127.966,323.518 128.112,323.418 128.244,323.294 C128.376,323.17 128.482,323.024 128.562,322.856 C128.642,322.688 128.682,322.496 128.682,322.28 C128.682,321.712 128.482,321.31 128.082,321.074 C127.682,320.838 127.126,320.72 126.414,320.72 L126.414,320.72 L123.102,320.72 L123.102,320.936 C123.246,320.936 123.318,320.996 123.318,321.116 L123.318,321.116 L123.318,325.604 C123.318,325.724 123.246,325.784 123.102,325.784 L123.102,325.784 L123.102,326 L124.698,326 Z M126.39,323 L124.494,323 L124.494,321.608 L126.39,321.608 C126.798,321.608 127.096,321.666 127.284,321.782 C127.472,321.898 127.566,322.056 127.566,322.256 C127.566,322.752 127.174,323 126.39,323 L126.39,323 Z M135.438,326.132 L135.438,324.872 L135.222,324.872 C135.222,324.944 135.19,325.002 135.126,325.046 C135.062,325.09 134.982,325.112 134.886,325.112 L134.886,325.112 L131.814,325.112 L131.814,323.696 L133.566,323.696 C133.726,323.696 133.85,323.706 133.938,323.726 C134.026,323.746 134.058,323.8 134.034,323.888 L134.034,323.888 L134.274,323.888 L134.274,322.616 L134.058,322.616 C134.058,322.704 134.026,322.758 133.962,322.778 C133.898,322.798 133.798,322.808 133.662,322.808 L133.662,322.808 L131.814,322.808 L131.814,321.608 L134.742,321.608 C134.99,321.608 135.114,321.684 135.114,321.836 L135.114,321.836 L135.33,321.836 L135.33,320.504 L135.114,320.504 C135.114,320.648 134.99,320.72 134.742,320.72 L134.742,320.72 L130.482,320.72 L130.482,320.936 C130.522,320.936 130.562,320.95 130.602,320.978 C130.642,321.006 130.662,321.052 130.662,321.116 L130.662,321.116 L130.662,325.604 C130.662,325.668 130.642,325.714 130.602,325.742 C130.562,325.77 130.522,325.784 130.482,325.784 L130.482,325.784 L130.482,326 L134.886,326 C134.982,326 135.062,326.004 135.126,326.012 C135.19,326.02 135.222,326.06 135.222,326.132 L135.222,326.132 L135.438,326.132 Z M137.958,326 L137.958,325.784 C137.886,325.784 137.83,325.776 137.79,325.76 C137.75,325.744 137.73,325.704 137.73,325.64 C137.73,325.6 137.74,325.554 137.76,325.502 C137.78,325.45 137.806,325.392 137.838,325.328 L137.838,325.328 L138.174,324.68 L140.742,324.68 L141.066,325.364 C141.09,325.428 141.11,325.48 141.126,325.52 C141.142,325.56 141.15,325.604 141.15,325.652 C141.15,325.716 141.128,325.76 141.084,325.784 C141.04,325.808 140.998,325.82 140.958,325.82 L140.958,325.82 L140.958,326 L142.662,326 L142.662,325.784 C142.606,325.768 142.554,325.744 142.506,325.712 C142.458,325.68 142.414,325.628 142.374,325.556 L142.374,325.556 L140.43,321.476 C140.39,321.388 140.352,321.31 140.316,321.242 C140.28,321.174 140.262,321.116 140.262,321.068 C140.262,321.012 140.276,320.98 140.304,320.972 C140.332,320.964 140.358,320.952 140.382,320.936 L140.382,320.936 L140.382,320.72 L138.57,320.72 L138.57,320.936 C138.594,320.952 138.616,320.966 138.636,320.978 C138.656,320.99 138.666,321.02 138.666,321.068 C138.666,321.132 138.652,321.198 138.624,321.266 C138.596,321.334 138.558,321.424 138.51,321.536 L138.51,321.536 L136.722,325.436 C136.69,325.5 136.644,325.57 136.584,325.646 C136.524,325.722 136.446,325.768 136.35,325.784 L136.35,325.784 L136.35,326 L137.958,326 Z M140.358,323.792 L138.534,323.792 L139.386,321.776 L140.358,323.792 Z M145.302,326 L145.302,325.784 C145.15,325.784 145.074,325.724 145.074,325.604 L145.074,325.604 L145.074,324.26 L146.01,323.516 L147.486,325.316 C147.59,325.436 147.66,325.524 147.696,325.58 C147.732,325.636 147.75,325.68 147.75,325.712 C147.75,325.76 147.706,325.784 147.618,325.784 L147.618,325.784 L147.618,326 L149.394,326 L149.394,325.784 C149.282,325.752 149.17,325.674 149.058,325.55 C148.946,325.426 148.842,325.304 148.746,325.184 L148.746,325.184 L146.85,322.832 L148.854,321.212 C149.046,321.06 149.19,320.968 149.286,320.936 L149.286,320.936 L149.286,320.72 L147.306,320.72 L147.306,320.9 C147.346,320.9 147.388,320.912 147.432,320.936 C147.476,320.96 147.498,320.992 147.498,321.032 C147.498,321.064 147.422,321.146 147.27,321.278 C147.118,321.41 146.926,321.572 146.694,321.764 C146.462,321.956 146.202,322.166 145.914,322.394 C145.626,322.622 145.346,322.848 145.074,323.072 L145.074,323.072 L145.074,321.116 C145.074,320.996 145.15,320.936 145.302,320.936 L145.302,320.936 L145.302,320.72 L143.73,320.72 L143.73,320.936 C143.858,320.936 143.922,320.996 143.922,321.116 L143.922,321.116 L143.922,325.604 C143.922,325.724 143.858,325.784 143.73,325.784 L143.73,325.784 L143.73,326 L145.302,326 Z M152.418,326 L152.418,325.784 C152.194,325.784 152.082,325.724 152.082,325.604 L152.082,325.604 L152.082,321.116 C152.082,320.996 152.194,320.936 152.418,320.936 L152.418,320.936 L152.418,320.72 L150.594,320.72 L150.594,320.936 C150.722,320.936 150.81,320.95 150.858,320.978 C150.906,321.006 150.93,321.052 150.93,321.116 L150.93,321.116 L150.93,325.604 C150.93,325.668 150.906,325.714 150.858,325.742 C150.81,325.77 150.722,325.784 150.594,325.784 L150.594,325.784 L150.594,326 L152.418,326 Z M155.958,326 L155.958,325.784 C155.79,325.784 155.706,325.724 155.706,325.604 L155.706,325.604 L155.706,322.112 L158.682,325.28 C158.778,325.384 158.864,325.476 158.94,325.556 C159.016,325.636 159.054,325.692 159.054,325.724 C159.054,325.764 159.026,325.784 158.97,325.784 L158.97,325.784 L158.97,326 L160.53,326 L160.53,325.784 C160.386,325.784 160.314,325.724 160.314,325.604 L160.314,325.604 L160.314,321.116 C160.314,320.996 160.386,320.936 160.53,320.936 L160.53,320.936 L160.53,320.72 L159.066,320.72 L159.066,320.936 C159.226,320.936 159.306,320.996 159.306,321.116 L159.306,321.116 L159.306,324.368 L156.426,321.32 C156.25,321.144 156.162,321.036 156.162,320.996 C156.162,320.964 156.19,320.944 156.246,320.936 L156.246,320.936 L156.246,320.72 L154.482,320.72 L154.482,320.936 C154.626,320.936 154.698,320.996 154.698,321.116 L154.698,321.116 L154.698,325.604 C154.698,325.724 154.626,325.784 154.482,325.784 L154.482,325.784 L154.482,326 L155.958,326 Z M165.306,326.036 C165.69,326.036 166.038,326.01 166.35,325.958 C166.662,325.906 166.936,325.84 167.172,325.76 C167.408,325.68 167.604,325.598 167.76,325.514 C167.916,325.43 168.03,325.364 168.102,325.316 L168.102,325.316 L168.102,325.172 C168.022,325.14 167.972,325.11 167.952,325.082 C167.932,325.054 167.922,325.004 167.922,324.932 L167.922,324.932 L167.922,323.792 C167.922,323.712 167.934,323.652 167.958,323.612 C167.982,323.572 168.03,323.536 168.102,323.504 L168.102,323.504 L168.102,323.288 L165.75,323.288 C165.662,323.288 165.586,323.276 165.522,323.252 C165.458,323.228 165.418,323.176 165.402,323.096 L165.402,323.096 L165.186,323.096 L165.186,324.332 L165.402,324.332 C165.418,324.236 165.458,324.17 165.522,324.134 C165.586,324.098 165.662,324.08 165.75,324.08 L165.75,324.08 L166.986,324.08 L166.986,324.836 C166.73,324.972 166.448,325.064 166.14,325.112 C165.832,325.16 165.506,325.184 165.162,325.184 C164.93,325.184 164.69,325.152 164.442,325.088 C164.194,325.024 163.968,324.922 163.764,324.782 C163.56,324.642 163.394,324.458 163.266,324.23 C163.138,324.002 163.074,323.72 163.074,323.384 C163.074,323.048 163.134,322.764 163.254,322.532 C163.374,322.3 163.534,322.11 163.734,321.962 C163.934,321.814 164.166,321.706 164.43,321.638 C164.694,321.57 164.974,321.536 165.27,321.536 C165.486,321.536 165.7,321.558 165.912,321.602 C166.124,321.646 166.314,321.704 166.482,321.776 C166.65,321.848 166.786,321.926 166.89,322.01 C166.994,322.094 167.046,322.172 167.046,322.244 C167.046,322.252 167.038,322.296 167.022,322.376 L167.022,322.376 L167.166,322.46 L167.862,321.152 L167.718,321.08 C167.67,321.12 167.63,321.146 167.598,321.158 C167.566,321.17 167.518,321.176 167.454,321.176 C167.398,321.176 167.314,321.148 167.202,321.092 C167.09,321.036 166.942,320.976 166.758,320.912 C166.582,320.848 166.374,320.788 166.134,320.732 C165.894,320.676 165.618,320.648 165.306,320.648 C164.786,320.648 164.316,320.71 163.896,320.834 C163.476,320.958 163.12,321.138 162.828,321.374 C162.536,321.61 162.312,321.894 162.156,322.226 C162,322.558 161.922,322.936 161.922,323.36 C161.922,323.784 162,324.162 162.156,324.494 C162.312,324.826 162.536,325.108 162.828,325.34 C163.12,325.572 163.476,325.746 163.896,325.862 C164.316,325.978 164.786,326.036 165.306,326.036 Z M176.79,326 L176.79,325.784 C176.646,325.76 176.574,325.724 176.574,325.676 C176.574,325.636 176.596,325.58 176.64,325.508 C176.684,325.436 176.75,325.296 176.838,325.088 L176.838,325.088 L178.59,321.212 C178.678,321.028 178.778,320.936 178.89,320.936 L178.89,320.936 L178.89,320.72 L177.318,320.72 L177.318,320.936 C177.43,320.936 177.49,320.984 177.498,321.08 C177.506,321.136 177.486,321.212 177.438,321.308 C177.39,321.404 177.322,321.548 177.234,321.74 L177.234,321.74 L175.926,324.644 L174.546,321.656 C174.49,321.536 174.44,321.426 174.396,321.326 C174.352,321.226 174.33,321.148 174.33,321.092 C174.33,320.988 174.378,320.936 174.474,320.936 L174.474,320.936 L174.474,320.72 L172.782,320.72 L172.782,320.936 C172.83,320.936 172.88,320.956 172.932,320.996 C172.984,321.036 173.026,321.092 173.058,321.164 L173.058,321.164 L174.882,325.088 C174.954,325.24 175.016,325.36 175.068,325.448 C175.12,325.536 175.146,325.6 175.146,325.64 C175.146,325.68 175.128,325.71 175.092,325.73 C175.056,325.75 175.018,325.768 174.978,325.784 L174.978,325.784 L174.978,326 L176.79,326 Z M182.082,326 L182.082,325.784 C181.858,325.784 181.746,325.724 181.746,325.604 L181.746,325.604 L181.746,321.116 C181.746,320.996 181.858,320.936 182.082,320.936 L182.082,320.936 L182.082,320.72 L180.258,320.72 L180.258,320.936 C180.386,320.936 180.474,320.95 180.522,320.978 C180.57,321.006 180.594,321.052 180.594,321.116 L180.594,321.116 L180.594,325.604 C180.594,325.668 180.57,325.714 180.522,325.742 C180.474,325.77 180.386,325.784 180.258,325.784 L180.258,325.784 L180.258,326 L182.082,326 Z M185.706,326 L185.706,325.784 C185.658,325.784 185.608,325.77 185.556,325.742 C185.504,325.714 185.478,325.668 185.478,325.604 L185.478,325.604 L185.478,323.888 L187.146,323.888 L188.094,325.304 C188.214,325.472 188.274,325.596 188.274,325.676 C188.274,325.748 188.222,325.784 188.118,325.784 L188.118,325.784 L188.118,326 L189.954,326 L189.954,325.784 C189.866,325.76 189.784,325.726 189.708,325.682 C189.632,325.638 189.562,325.572 189.498,325.484 L189.498,325.484 L188.322,323.768 C188.49,323.728 188.654,323.67 188.814,323.594 C188.974,323.518 189.12,323.418 189.252,323.294 C189.384,323.17 189.49,323.024 189.57,322.856 C189.65,322.688 189.69,322.496 189.69,322.28 C189.69,321.712 189.49,321.31 189.09,321.074 C188.69,320.838 188.134,320.72 187.422,320.72 L187.422,320.72 L184.11,320.72 L184.11,320.936 C184.254,320.936 184.326,320.996 184.326,321.116 L184.326,321.116 L184.326,325.604 C184.326,325.724 184.254,325.784 184.11,325.784 L184.11,325.784 L184.11,326 L185.706,326 Z M187.398,323 L185.502,323 L185.502,321.608 L187.398,321.608 C187.806,321.608 188.104,321.666 188.292,321.782 C188.48,321.898 188.574,322.056 188.574,322.256 C188.574,322.752 188.182,323 187.398,323 L187.398,323 Z M194.55,326.036 C195.03,326.036 195.448,325.986 195.804,325.886 C196.16,325.786 196.452,325.648 196.68,325.472 C196.908,325.296 197.078,325.094 197.19,324.866 C197.302,324.638 197.358,324.4 197.358,324.152 L197.358,324.152 L197.358,321.116 C197.358,320.996 197.446,320.936 197.622,320.936 L197.622,320.936 L197.622,320.72 L195.954,320.72 L195.954,320.936 C196.154,320.936 196.254,320.996 196.254,321.116 L196.254,321.116 L196.254,323.864 C196.254,324.248 196.114,324.556 195.834,324.788 C195.554,325.02 195.126,325.136 194.55,325.136 C193.974,325.136 193.546,325.02 193.266,324.788 C192.986,324.556 192.846,324.248 192.846,323.864 L192.846,323.864 L192.846,321.116 C192.846,320.996 192.934,320.936 193.11,320.936 L193.11,320.936 L193.11,320.72 L191.394,320.72 L191.394,320.936 C191.53,320.936 191.622,320.95 191.67,320.978 C191.718,321.006 191.742,321.052 191.742,321.116 L191.742,321.116 L191.742,324.152 C191.742,324.4 191.798,324.638 191.91,324.866 C192.022,325.094 192.192,325.296 192.42,325.472 C192.648,325.648 192.94,325.786 193.296,325.886 C193.652,325.986 194.07,326.036 194.55,326.036 Z M201.75,326.036 C202.022,326.036 202.312,326.016 202.62,325.976 C202.928,325.936 203.21,325.852 203.466,325.724 C203.722,325.596 203.936,325.42 204.108,325.196 C204.28,324.972 204.366,324.684 204.366,324.332 C204.366,323.98 204.268,323.704 204.072,323.504 C203.876,323.304 203.63,323.152 203.334,323.048 C203.038,322.944 202.718,322.87 202.374,322.826 C202.03,322.782 201.71,322.738 201.414,322.694 C201.118,322.65 200.872,322.59 200.676,322.514 C200.48,322.438 200.382,322.312 200.382,322.136 C200.382,322.024 200.414,321.93 200.478,321.854 C200.542,321.778 200.63,321.716 200.742,321.668 C200.854,321.62 200.982,321.586 201.126,321.566 C201.27,321.546 201.422,321.536 201.582,321.536 C201.998,321.536 202.374,321.584 202.71,321.68 C203.046,321.776 203.294,321.892 203.454,322.028 C203.518,322.076 203.554,322.124 203.562,322.172 C203.57,322.22 203.578,322.268 203.586,322.316 L203.586,322.316 L203.802,322.388 L204.402,321.26 L204.27,321.128 C204.222,321.152 204.182,321.174 204.15,321.194 C204.118,321.214 204.07,321.224 204.006,321.224 C203.95,321.224 203.864,321.194 203.748,321.134 C203.632,321.074 203.482,321.008 203.298,320.936 C203.114,320.864 202.888,320.798 202.62,320.738 C202.352,320.678 202.03,320.648 201.654,320.648 C200.886,320.648 200.29,320.8 199.866,321.104 C199.442,321.408 199.23,321.816 199.23,322.328 C199.23,322.672 199.328,322.938 199.524,323.126 C199.72,323.314 199.966,323.458 200.262,323.558 C200.558,323.658 200.878,323.73 201.222,323.774 C201.566,323.818 201.886,323.862 202.182,323.906 C202.478,323.95 202.724,324.012 202.92,324.092 C203.116,324.172 203.214,324.3 203.214,324.476 C203.214,324.628 203.158,324.75 203.046,324.842 C202.934,324.934 202.798,325.006 202.638,325.058 C202.478,325.11 202.316,325.144 202.152,325.16 C201.988,325.176 201.85,325.184 201.738,325.184 C201.618,325.184 201.452,325.164 201.24,325.124 C201.028,325.084 200.816,325.03 200.604,324.962 C200.392,324.894 200.21,324.81 200.058,324.71 C199.906,324.61 199.83,324.5 199.83,324.38 C199.83,324.34 199.832,324.302 199.836,324.266 C199.84,324.23 199.842,324.196 199.842,324.164 L199.842,324.164 L199.614,324.104 L199.062,325.448 L199.23,325.568 C199.27,325.52 199.318,325.496 199.374,325.496 C199.406,325.496 199.498,325.526 199.65,325.586 C199.802,325.646 199.988,325.71 200.208,325.778 C200.428,325.846 200.672,325.906 200.94,325.958 C201.208,326.01 201.478,326.036 201.75,326.036 Z M207.678,323.816 L207.678,323.672 C207.614,323.672 207.562,323.662 207.522,323.642 C207.482,323.622 207.462,323.58 207.462,323.516 C207.462,323.46 207.466,323.406 207.474,323.354 C207.482,323.302 207.49,323.244 207.498,323.18 L207.498,323.18 L207.87,319.976 C207.886,319.88 207.91,319.812 207.942,319.772 C207.974,319.732 208.05,319.696 208.17,319.664 L208.17,319.664 L208.17,319.52 L206.178,319.52 L206.178,319.664 C206.298,319.696 206.374,319.732 206.406,319.772 C206.438,319.812 206.462,319.88 206.478,319.976 L206.478,319.976 L206.85,323.18 C206.858,323.244 206.866,323.302 206.874,323.354 C206.882,323.406 206.886,323.46 206.886,323.516 C206.886,323.58 206.866,323.622 206.826,323.642 C206.786,323.662 206.734,323.672 206.67,323.672 L206.67,323.672 L206.67,323.816 L207.678,323.816 Z M207.174,326.036 C207.382,326.036 207.562,325.966 207.714,325.826 C207.866,325.686 207.942,325.512 207.942,325.304 C207.942,325.096 207.866,324.916 207.714,324.764 C207.562,324.612 207.382,324.536 207.174,324.536 C206.966,324.536 206.786,324.612 206.634,324.764 C206.482,324.916 206.406,325.096 206.406,325.304 C206.406,325.512 206.482,325.686 206.634,325.826 C206.786,325.966 206.966,326.036 207.174,326.036 Z M212.634,323.816 L212.634,323.672 C212.562,323.672 212.51,323.642 212.478,323.582 C212.446,323.522 212.43,323.448 212.43,323.36 C212.43,323.176 212.502,323.004 212.646,322.844 C212.79,322.684 212.946,322.512 213.114,322.328 C213.29,322.144 213.448,321.942 213.588,321.722 C213.728,321.502 213.798,321.244 213.798,320.948 C213.798,320.708 213.748,320.494 213.648,320.306 C213.548,320.118 213.414,319.962 213.246,319.838 C213.078,319.714 212.888,319.618 212.676,319.55 C212.464,319.482 212.25,319.448 212.034,319.448 C211.698,319.448 211.426,319.488 211.218,319.568 C211.01,319.648 210.838,319.734 210.702,319.826 C210.566,319.918 210.456,320.004 210.372,320.084 C210.288,320.164 210.206,320.204 210.126,320.204 C210.118,320.204 210.074,320.196 209.994,320.18 L209.994,320.18 L209.886,320.288 L210.81,321.296 L210.918,321.212 C210.894,321.14 210.882,321.068 210.882,320.996 C210.882,320.948 210.904,320.886 210.948,320.81 C210.992,320.734 211.056,320.664 211.14,320.6 C211.224,320.536 211.328,320.48 211.452,320.432 C211.576,320.384 211.714,320.36 211.866,320.36 C212.074,320.36 212.248,320.422 212.388,320.546 C212.528,320.67 212.598,320.84 212.598,321.056 C212.598,321.24 212.546,321.402 212.442,321.542 C212.338,321.682 212.218,321.832 212.082,321.992 C211.954,322.144 211.832,322.32 211.716,322.52 C211.6,322.72 211.526,322.988 211.494,323.324 C211.478,323.46 211.452,323.552 211.416,323.6 C211.38,323.648 211.338,323.672 211.29,323.672 L211.29,323.672 L211.29,323.816 L212.634,323.816 Z M211.95,326.036 C212.158,326.036 212.338,325.966 212.49,325.826 C212.642,325.686 212.718,325.512 212.718,325.304 C212.718,325.096 212.642,324.916 212.49,324.764 C212.338,324.612 212.158,324.536 211.95,324.536 C211.742,324.536 211.562,324.612 211.41,324.764 C211.258,324.916 211.182,325.096 211.182,325.304 C211.182,325.512 211.258,325.686 211.41,325.826 C211.562,325.966 211.742,326.036 211.95,326.036 Z" id="WHOstartedthisfreakingvirus!?" fill="#FFFFFF" fill-rule="nonzero"></path>
        </g>
        <g id="Logo" transform="translate(33.000000, 59.000000)">
            <path d="M117.8,174.4 L117.8,170.8 C116,170.8 114.7,170.05 113.9,168.55 C113.1,167.05 112.7,165.2 112.7,163 C112.7,158.4 114.5,154.1 118.1,150.1 C121.7,146.1 125.6,141.8 129.8,137.2 C134.2,132.6 138.15,127.55 141.65,122.05 C145.15,116.55 146.9,110.1 146.9,102.7 C146.9,96.7 145.65,91.35 143.15,86.65 C140.65,81.95 137.3,78.05 133.1,74.95 C128.9,71.85 124.15,69.45 118.85,67.75 C113.55,66.05 108.2,65.2 102.8,65.2 C94.4,65.2 87.6,66.2 82.4,68.2 C77.2,70.2 72.9,72.35 69.5,74.65 C66.1,76.95 63.35,79.1 61.25,81.1 C59.15,83.1 57.1,84.1 55.1,84.1 C54.9,84.1 53.8,83.9 51.8,83.5 L51.8,83.5 L49.1,86.2 L72.2,111.4 L74.9,109.3 C74.3,107.5 74,105.7 74,103.9 C74,102.7 74.55,101.15 75.65,99.25 C76.75,97.35 78.35,95.6 80.45,94 C82.55,92.4 85.15,91 88.25,89.8 C91.35,88.6 94.8,88 98.6,88 C103.8,88 108.15,89.55 111.65,92.65 C115.15,95.75 116.9,100 116.9,105.4 C116.9,110 115.6,114.05 113,117.55 C110.4,121.05 107.4,124.8 104,128.8 C100.8,132.6 97.75,137 94.85,142 C91.95,147 90.1,153.7 89.3,162.1 C88.9,165.5 88.25,167.8 87.35,169 C86.45,170.2 85.4,170.8 84.2,170.8 L84.2,170.8 L84.2,174.4 L117.8,174.4 Z M100.7,229.9 C105.9,229.9 110.4,228.15 114.2,224.65 C118,221.15 119.9,216.8 119.9,211.6 C119.9,206.4 118,201.9 114.2,198.1 C110.4,194.3 105.9,192.4 100.7,192.4 C95.5,192.4 91,194.3 87.2,198.1 C83.4,201.9 81.5,206.4 81.5,211.6 C81.5,216.8 83.4,221.15 87.2,224.65 C91,228.15 95.5,229.9 100.7,229.9 Z" id="?" fill="#FFFFFF" fill-rule="nonzero"></path>
            <path d="M93,39 L109,39 L102.846537,237.778842 C102.808223,239.016516 101.793823,240 100.555556,240 C99.3188352,240 98.3071932,239.014845 98.2743896,237.77856 L93,39 L93,39 Z" id="Rectangle" fill="#000000"></path>
            <polygon id="Polygon" fill="#FFFFFF" points="108 124 107.125 174 94.875 174 94 144.594595 95 142"></polygon>
            <path d="M100.77003,59 C106.032049,59 108.663058,58.1797017 108.663058,51 C108.663058,43.8202983 114.802079,22 100.77003,22 C86.7379818,22 93.7540061,48 93.7540061,51 C93.7540061,54 95.5080121,59 100.77003,59 Z" id="Oval" fill="#000000"></path>
        </g>
        <path d="M78.22,68 L78.22,66.92 C77.7,66.76 77.44,66.36 77.44,65.72 C77.44,65.32 77.74,64.34 78.34,62.78 L78.34,62.78 L84.88,45.44 L85,45.44 L91.9,63.14 C92.22,63.86 92.45,64.42 92.59,64.82 C92.73,65.22 92.8,65.58 92.8,65.9 C92.8,66.18 92.67,66.4 92.41,66.56 C92.15,66.72 91.9,66.84 91.66,66.92 L91.66,66.92 L91.66,68 L101.14,68 L101.14,66.92 C100.78,66.92 100.5,66.81 100.3,66.59 C100.1,66.37 100,66.12 100,65.84 C100,65.52 100.09,65.12 100.27,64.64 C100.45,64.16 100.66,63.6 100.9,62.96 L100.9,62.96 L109.54,40.04 C109.82,39.32 110.07,38.72 110.29,38.24 C110.51,37.76 110.84,37.52 111.28,37.52 L111.28,37.52 L111.28,36.44 L102.4,36.44 L102.4,37.52 C102.68,37.52 102.92,37.63 103.12,37.85 C103.32,38.07 103.42,38.3 103.42,38.54 C103.42,39.02 103.28,39.56 103,40.16 L103,40.16 L96.52,57.44 L96.4,57.44 L89.98,40.52 C89.58,39.56 89.38,38.88 89.38,38.48 C89.38,38.24 89.44,38.02 89.56,37.82 C89.68,37.62 89.88,37.52 90.16,37.52 L90.16,37.52 L90.16,36.44 L79.9,36.44 L79.9,37.52 C80.42,37.52 80.68,37.9 80.68,38.66 C80.68,38.86 80.65,39.09 80.59,39.35 C80.53,39.61 80.4,40 80.2,40.52 L80.2,40.52 L73.84,57.44 L73.72,57.44 L67.3,40.76 C67.06,40.12 66.91,39.66 66.85,39.38 C66.79,39.1 66.76,38.86 66.76,38.66 C66.76,37.9 67.06,37.52 67.66,37.52 L67.66,37.52 L67.66,36.44 L58.36,36.44 L58.36,37.52 C58.76,37.6 59.05,37.79 59.23,38.09 C59.41,38.39 59.58,38.76 59.74,39.2 L59.74,39.2 L69.34,63.98 C69.5,64.38 69.65,64.76 69.79,65.12 C69.93,65.48 70,65.82 70,66.14 C70,66.42 69.88,66.62 69.64,66.74 C69.4,66.86 69.16,66.92 68.92,66.92 L68.92,66.92 L68.92,68 L78.22,68 Z M127.9,68 L127.9,66.92 C127.62,66.92 127.37,66.83 127.15,66.65 C126.93,66.47 126.82,66.2 126.82,65.84 L126.82,65.84 L126.82,54.56 L146.14,54.56 L146.14,65.84 C146.14,66.56 145.7,66.92 144.82,66.92 L144.82,66.92 L144.82,68 L154.06,68 L154.06,66.92 C153.78,66.92 153.53,66.83 153.31,66.65 C153.09,66.47 152.98,66.2 152.98,65.84 L152.98,65.84 L152.98,38.6 C152.98,38.24 153.09,37.97 153.31,37.79 C153.53,37.61 153.78,37.52 154.06,37.52 L154.06,37.52 L154.06,36.44 L144.82,36.44 L144.82,37.52 C145.7,37.52 146.14,37.88 146.14,38.6 L146.14,38.6 L146.14,48.8 L126.82,48.8 L126.82,38.6 C126.82,38.24 126.93,37.97 127.15,37.79 C127.37,37.61 127.62,37.52 127.9,37.52 L127.9,37.52 L127.9,36.44 L118.84,36.44 L118.84,37.52 C119.6,37.52 119.98,37.88 119.98,38.6 L119.98,38.6 L119.98,65.84 C119.98,66.56 119.6,66.92 118.84,66.92 L118.84,66.92 L118.84,68 L127.9,68 Z M183.16,68.18 C185.36,68.18 187.6,67.88 189.88,67.28 C192.16,66.68 194.24,65.72 196.12,64.4 C198,63.08 199.54,61.41 200.74,59.39 C201.94,57.37 202.54,54.98 202.54,52.22 C202.54,49.46 201.94,47.07 200.74,45.05 C199.54,43.03 198,41.36 196.12,40.04 C194.24,38.72 192.16,37.73 189.88,37.07 C187.6,36.41 185.36,36.08 183.16,36.08 C180.96,36.08 178.72,36.41 176.44,37.07 C174.16,37.73 172.08,38.72 170.2,40.04 C168.32,41.36 166.78,43.03 165.58,45.05 C164.38,47.07 163.78,49.46 163.78,52.22 C163.78,54.98 164.38,57.37 165.58,59.39 C166.78,61.41 168.32,63.08 170.2,64.4 C172.08,65.72 174.16,66.68 176.44,67.28 C178.72,67.88 180.96,68.18 183.16,68.18 Z M183.16,62.84 C181.64,62.84 180.12,62.6 178.6,62.12 C177.08,61.64 175.71,60.95 174.49,60.05 C173.27,59.15 172.28,58.04 171.52,56.72 C170.76,55.4 170.38,53.9 170.38,52.22 C170.38,50.54 170.76,49.04 171.52,47.72 C172.28,46.4 173.27,45.29 174.49,44.39 C175.71,43.49 177.08,42.8 178.6,42.32 C180.12,41.84 181.64,41.6 183.16,41.6 C184.68,41.6 186.2,41.84 187.72,42.32 C189.24,42.8 190.61,43.49 191.83,44.39 C193.05,45.29 194.04,46.4 194.8,47.72 C195.56,49.04 195.94,50.54 195.94,52.22 C195.94,53.9 195.56,55.4 194.8,56.72 C194.04,58.04 193.05,59.15 191.83,60.05 C190.61,60.95 189.24,61.64 187.72,62.12 C186.2,62.6 184.68,62.84 183.16,62.84 Z" id="WHO" fill="#FFFFFF" fill-rule="nonzero"></path>
        <path d="M35.3,211 C36.7666667,211 38.1333333,210.786667 39.4,210.36 C40.6666667,209.933333 41.7666667,209.286667 42.7,208.42 C43.6333333,207.553333 44.3666667,206.46 44.9,205.14 C45.4333333,203.82 45.7,202.266667 45.7,200.48 C45.7,198.693333 45.4333333,197.14 44.9,195.82 C44.3666667,194.5 43.6333333,193.406667 42.7,192.54 C41.7666667,191.673333 40.6666667,191.026667 39.4,190.6 C38.1333333,190.173333 36.7666667,189.96 35.3,189.96 L35.3,189.96 L22.02,189.96 L22.02,190.68 C22.6333333,190.68 22.94,190.92 22.94,191.4 L22.94,191.4 L22.94,209.56 C22.94,210.04 22.6333333,210.28 22.02,210.28 L22.02,210.28 L22.02,211 L35.3,211 Z M33.7,207.56 L27.5,207.56 L27.5,193.4 L33.7,193.4 C34.9533333,193.4 36.0466667,193.506667 36.98,193.72 C37.9133333,193.933333 38.6866667,194.313333 39.3,194.86 C39.9133333,195.406667 40.3733333,196.133333 40.68,197.04 C40.9866667,197.946667 41.14,199.093333 41.14,200.48 C41.14,201.866667 40.9866667,203.013333 40.68,203.92 C40.3733333,204.826667 39.9133333,205.553333 39.3,206.1 C38.6866667,206.646667 37.9133333,207.026667 36.98,207.24 C36.0466667,207.453333 34.9533333,207.56 33.7,207.56 L33.7,207.56 Z M62.46,211.12 C64.22,211.12 65.7733333,211.013333 67.12,210.8 C68.4666667,210.586667 69.5933333,210.173333 70.5,209.56 C71.4066667,208.946667 72.0866667,208.126667 72.54,207.1 C72.9933333,206.073333 73.22,204.773333 73.22,203.2 L73.22,203.2 L73.22,191.4 C73.22,190.92 73.54,190.68 74.18,190.68 L74.18,190.68 L74.18,189.96 L67.78,189.96 L67.78,190.68 C68.58,190.68 68.98,190.92 68.98,191.4 L68.98,191.4 L68.98,203.4 C68.98,205.08 68.44,206.233333 67.36,206.86 C66.28,207.486667 64.7,207.8 62.62,207.8 C60.54,207.8 58.96,207.486667 57.88,206.86 C56.8,206.233333 56.26,205.08 56.26,203.4 L56.26,203.4 L56.26,191.4 C56.26,190.92 56.5533333,190.68 57.14,190.68 L57.14,190.68 L57.14,189.96 L50.58,189.96 L50.58,190.68 C51.3266667,190.68 51.7,190.92 51.7,191.4 L51.7,191.4 L51.7,203.2 C51.7,204.773333 51.9266667,206.073333 52.38,207.1 C52.8333333,208.126667 53.5133333,208.946667 54.42,209.56 C55.3266667,210.173333 56.4533333,210.586667 57.8,210.8 C59.1466667,211.013333 60.7,211.12 62.46,211.12 Z M86.38,211 L86.38,210.28 C85.7666667,210.28 85.46,210.04 85.46,209.56 L85.46,209.56 L85.46,196.28 L97.66,209 C98.0866667,209.426667 98.3,209.733333 98.3,209.92 C98.3,210.16 98.1266667,210.28 97.78,210.28 L97.78,210.28 L97.78,211 L104.26,211 L104.26,210.28 C103.753333,210.28 103.5,210.04 103.5,209.56 L103.5,209.56 L103.5,191.4 C103.5,190.92 103.753333,190.68 104.26,190.68 L104.26,190.68 L104.26,189.96 L98.22,189.96 L98.22,190.68 C98.9133333,190.68 99.26,190.92 99.26,191.4 L99.26,191.4 L99.26,204.12 L87.78,192.2 C87.2466667,191.666667 86.98,191.293333 86.98,191.08 C86.98,190.813333 87.0866667,190.68 87.3,190.68 L87.3,190.68 L87.3,189.96 L80.46,189.96 L80.46,190.68 C80.9666667,190.68 81.22,190.92 81.22,191.4 L81.22,191.4 L81.22,209.56 C81.22,210.04 80.9666667,210.28 80.46,210.28 L80.46,210.28 L80.46,211 L86.38,211 Z" id="DUN" fill="#FFFFFF" fill-rule="nonzero"></path>
        <path d="M196.08,211 L196.08,210.28 C195.386667,210.28 195.04,210.04 195.04,209.56 L195.04,209.56 L195.04,191.4 C195.04,190.92 195.386667,190.68 196.08,190.68 L196.08,190.68 L196.08,189.96 L189.44,189.96 L189.44,190.68 C190.133333,190.68 190.48,190.92 190.48,191.4 L190.48,191.4 L190.48,209.56 C190.48,210.04 190.133333,210.28 189.44,210.28 L189.44,210.28 L189.44,211 L196.08,211 Z M214.8,211 L214.8,210.28 C214.213333,210.28 213.92,210.04 213.92,209.56 L213.92,209.56 L213.92,193.64 L220.52,193.64 C220.76,193.64 220.993333,193.706667 221.22,193.84 C221.446667,193.973333 221.56,194.226667 221.56,194.6 L221.56,194.6 L222.28,194.6 L222.28,189 L221.56,189 C221.56,189.373333 221.446667,189.626667 221.22,189.76 C220.993333,189.893333 220.76,189.96 220.52,189.96 L220.52,189.96 L202.76,189.96 C202.52,189.96 202.286667,189.893333 202.06,189.76 C201.833333,189.626667 201.72,189.373333 201.72,189 L201.72,189 L201,189 L201,194.6 L201.72,194.6 C201.72,194.226667 201.833333,193.973333 202.06,193.84 C202.286667,193.706667 202.52,193.64 202.76,193.64 L202.76,193.64 L209.36,193.64 L209.36,209.56 C209.36,209.8 209.286667,209.98 209.14,210.1 C208.993333,210.22 208.826667,210.28 208.64,210.28 L208.64,210.28 L208.64,211 L214.8,211 Z" id="IT" fill="#FFFFFF" fill-rule="nonzero"></path>
    </g>
</svg>