<?xml version="1.0" encoding="UTF-8"?>
<svg width="262px" height="360px" viewBox="0 0 262 360" version="1.1" xmlns="http://www.w3.org/2000/svg" xmlns:xlink="http://www.w3.org/1999/xlink">
    <title>Diarrhea 3</title>
    <g id="Diarrhea-3" stroke="none" stroke-width="1" fill="none" fill-rule="evenodd">
        <g id="Group" transform="translate(9.000000, 9.000000)" fill="#FFFFFF" stroke="#000000" stroke-width="3">
            <g id="Rectangle">
                <rect x="1.5" y="1.5" width="239" height="337" rx="8"></rect>
            </g>
        </g>
        <path d="M216.124,30 L216.124,29.712 C215.964,29.712 215.82,29.668 215.692,29.58 C215.564,29.492 215.5,29.312 215.5,29.04 L215.5,29.04 L215.5,18.048 C215.5,17.888 215.564,17.768 215.692,17.688 C215.82,17.608 215.98,17.552 216.172,17.52 L216.172,17.52 L216.172,17.232 L212.284,17.232 L212.284,17.52 C212.46,17.552 212.6,17.6 212.704,17.664 C212.808,17.728 212.86,17.872 212.86,18.096 C212.86,18.336 212.768,18.54 212.584,18.708 C212.4,18.876 212.172,18.96 211.9,18.96 C211.772,18.96 211.636,18.932 211.492,18.876 C211.348,18.82 211.276,18.72 211.276,18.576 L211.276,18.576 L210.988,18.576 L210.988,21.6 L211.276,21.6 C211.324,21.472 211.408,21.372 211.528,21.3 C211.648,21.228 211.78,21.172 211.924,21.132 C212.068,21.092 212.216,21.064 212.368,21.048 C212.52,21.032 212.652,21.024 212.764,21.024 L212.764,21.024 L212.764,29.04 C212.764,29.312 212.704,29.492 212.584,29.58 C212.464,29.668 212.324,29.712 212.164,29.712 L212.164,29.712 L212.164,30 L216.124,30 Z" id="1" fill="#000000" fill-rule="nonzero"></path>
        <g id="Face" transform="translate(225.000000, 15.000000)">
            <circle id="Oval" stroke="#000000" fill="#FFFFFF" cx="9.5" cy="9.5" r="9"></circle>
            <circle id="Oval" fill="#000000" cx="5" cy="8" r="1"></circle>
            <circle id="Oval-Copy" fill="#000000" cx="12" cy="8" r="1"></circle>
            <line x1="12.0789474" y1="13.9090909" x2="14.5" y2="11.5" id="Line-4" stroke="#000000" stroke-linecap="round"></line>
            <path d="M3,5.89285714 C3.41025641,5.96428571 3.76923077,6 4.07692308,6 C4.38461538,6 5.35897436,5.33333333 7,4" id="Line-2" stroke="#000000"></path>
            <path d="M6,15 C6.96078431,14.3333333 8.07598039,14 9.34558824,14 C10.6151961,14 11.8333333,14.3333333 13,15" id="Line" stroke="#000000" stroke-linecap="round" stroke-linejoin="round"></path>
            <path d="M11.3197366,4.68245322 C11.585843,4.80663622 11.7912611,4.92388646 11.9359908,5.03420394 C12.548667,5.50120471 13.1333088,5.70898724 13.3155349,5.80010028 C13.5440857,5.91437569 13.8101922,6.00751295 14.1138542,6.07951204" id="Line-3" stroke="#000000" stroke-linecap="square" transform="translate(12.716795, 5.380983) rotate(-3.000000) translate(-12.716795, -5.380983) "></path>
            <path d="M2.999,9.347 L3.01687864,9.39698204 C3.09438102,9.62639002 3.1880913,9.89570266 3.30282211,10.2112791 C3.48139895,10.7024692 3.54804655,11.0169045 3.47980817,11.2204078 C3.41244402,11.421304 3.17143148,11.4011566 3.01518318,11.4416373 L3.01518318,11.4416373 L2.86575433,11.4813457 C2.78836954,11.5029149 2.70310591,11.5126925 2.63007237,11.4810832 C2.58941161,11.463485 2.56030088,11.4264037 2.54036126,11.376794 C2.4446463,11.1386559 2.49784548,10.759559 2.69717789,10.2112791 C2.8119087,9.89570266 2.90561898,9.62639002 2.98312136,9.39698204 L2.999,9.347 Z" id="Oval" stroke="#000000"></path>
            <path d="M16,6.347 L16.0168786,6.39698204 C16.094381,6.62639002 16.1880913,6.89570266 16.3028221,7.21127907 C16.481399,7.70246915 16.5480465,8.01690453 16.4798082,8.22040783 C16.412444,8.42130397 16.1714315,8.40115659 16.0151832,8.44163726 L16.0151832,8.44163726 L15.8657543,8.48134574 C15.7883695,8.50291486 15.7031059,8.51269255 15.6300724,8.48108319 C15.5894116,8.46348497 15.5603009,8.42640366 15.5403613,8.37679403 C15.4446463,8.13865595 15.4978455,7.75955902 15.6971779,7.21127907 C15.8119087,6.89570266 15.905619,6.62639002 15.9831214,6.39698204 L16,6.347 Z" id="Oval-Copy-2" stroke="#000000"></path>
        </g>
        <rect id="Rectangle" stroke="#000000" stroke-width="3" x="17.5" y="276.5" width="225" height="65" rx="8"></rect>
        <path d="M62.6,57 C63.92,57 65.15,56.808 66.29,56.424 C67.43,56.04 68.42,55.458 69.26,54.678 C70.1,53.898 70.76,52.914 71.24,51.726 C71.72,50.538 71.96,49.14 71.96,47.532 C71.96,45.924 71.72,44.526 71.24,43.338 C70.76,42.15 70.1,41.166 69.26,40.386 C68.42,39.606 67.43,39.024 66.29,38.64 C65.15,38.256 63.92,38.064 62.6,38.064 L62.6,38.064 L50.648,38.064 L50.648,38.712 C51.2,38.712 51.476,38.928 51.476,39.36 L51.476,39.36 L51.476,55.704 C51.476,56.136 51.2,56.352 50.648,56.352 L50.648,56.352 L50.648,57 L62.6,57 Z M61.16,53.904 L55.58,53.904 L55.58,41.16 L61.16,41.16 C62.288,41.16 63.272,41.256 64.112,41.448 C64.952,41.64 65.648,41.982 66.2,42.474 C66.752,42.966 67.166,43.62 67.442,44.436 C67.718,45.252 67.856,46.284 67.856,47.532 C67.856,48.78 67.718,49.812 67.442,50.628 C67.166,51.444 66.752,52.098 66.2,52.59 C65.648,53.082 64.952,53.424 64.112,53.616 C63.272,53.808 62.288,53.904 61.16,53.904 L61.16,53.904 Z M82.688,57 L82.688,56.352 C82.016,56.352 81.68,56.172 81.68,55.812 L81.68,55.812 L81.68,42.348 C81.68,41.988 82.016,41.808 82.688,41.808 L82.688,41.808 L82.688,41.16 L77.216,41.16 L77.216,41.808 C77.6,41.808 77.864,41.85 78.008,41.934 C78.152,42.018 78.224,42.156 78.224,42.348 L78.224,42.348 L78.224,55.812 C78.224,56.004 78.152,56.142 78.008,56.226 C77.864,56.31 77.6,56.352 77.216,56.352 L77.216,56.352 L77.216,57 L82.688,57 Z M91.328,57 L91.328,56.352 C91.112,56.352 90.944,56.328 90.824,56.28 C90.704,56.232 90.644,56.112 90.644,55.92 C90.644,55.8 90.674,55.662 90.734,55.506 C90.794,55.35 90.872,55.176 90.968,54.984 L90.968,54.984 L91.976,53.04 L99.68,53.04 L100.652,55.092 C100.724,55.284 100.784,55.44 100.832,55.56 C100.88,55.68 100.904,55.812 100.904,55.956 C100.904,56.148 100.838,56.28 100.706,56.352 C100.574,56.424 100.448,56.46 100.328,56.46 L100.328,56.46 L100.328,57 L105.44,57 L105.44,56.352 C105.272,56.304 105.116,56.232 104.972,56.136 C104.828,56.04 104.696,55.884 104.576,55.668 L104.576,55.668 L98.744,43.428 C98.624,43.164 98.51,42.93 98.402,42.726 C98.294,42.522 98.24,42.348 98.24,42.204 C98.24,42.036 98.282,41.94 98.366,41.916 C98.45,41.892 98.528,41.856 98.6,41.808 L98.6,41.808 L98.6,41.16 L93.164,41.16 L93.164,41.808 C93.236,41.856 93.302,41.898 93.362,41.934 C93.422,41.97 93.452,42.06 93.452,42.204 C93.452,42.396 93.41,42.594 93.326,42.798 C93.242,43.002 93.128,43.272 92.984,43.608 L92.984,43.608 L87.62,55.308 C87.524,55.5 87.386,55.71 87.206,55.938 C87.026,56.166 86.792,56.304 86.504,56.352 L86.504,56.352 L86.504,57 L91.328,57 Z M98.528,50.376 L93.056,50.376 L95.612,44.328 L98.528,50.376 Z M113.576,57 L113.576,56.352 C113.432,56.352 113.282,56.31 113.126,56.226 C112.97,56.142 112.892,56.004 112.892,55.812 L112.892,55.812 L112.892,50.664 L117.896,50.664 L120.74,54.912 C121.1,55.416 121.28,55.788 121.28,56.028 C121.28,56.244 121.124,56.352 120.812,56.352 L120.812,56.352 L120.812,57 L126.32,57 L126.32,56.352 C126.056,56.28 125.81,56.178 125.582,56.046 C125.354,55.914 125.144,55.716 124.952,55.452 L124.952,55.452 L121.424,50.304 C121.928,50.184 122.42,50.01 122.9,49.782 C123.38,49.554 123.818,49.254 124.214,48.882 C124.61,48.51 124.928,48.072 125.168,47.568 C125.408,47.064 125.528,46.488 125.528,45.84 C125.528,44.136 124.928,42.93 123.728,42.222 C122.528,41.514 120.86,41.16 118.724,41.16 L118.724,41.16 L108.788,41.16 L108.788,41.808 C109.22,41.808 109.436,41.988 109.436,42.348 L109.436,42.348 L109.436,55.812 C109.436,56.172 109.22,56.352 108.788,56.352 L108.788,56.352 L108.788,57 L113.576,57 Z M118.652,48 L112.964,48 L112.964,43.824 L118.652,43.824 C119.876,43.824 120.77,43.998 121.334,44.346 C121.898,44.694 122.18,45.168 122.18,45.768 C122.18,47.256 121.004,48 118.652,48 L118.652,48 Z M135.572,57 L135.572,56.352 C135.428,56.352 135.278,56.31 135.122,56.226 C134.966,56.142 134.888,56.004 134.888,55.812 L134.888,55.812 L134.888,50.664 L139.892,50.664 L142.736,54.912 C143.096,55.416 143.276,55.788 143.276,56.028 C143.276,56.244 143.12,56.352 142.808,56.352 L142.808,56.352 L142.808,57 L148.316,57 L148.316,56.352 C148.052,56.28 147.806,56.178 147.578,56.046 C147.35,55.914 147.14,55.716 146.948,55.452 L146.948,55.452 L143.42,50.304 C143.924,50.184 144.416,50.01 144.896,49.782 C145.376,49.554 145.814,49.254 146.21,48.882 C146.606,48.51 146.924,48.072 147.164,47.568 C147.404,47.064 147.524,46.488 147.524,45.84 C147.524,44.136 146.924,42.93 145.724,42.222 C144.524,41.514 142.856,41.16 140.72,41.16 L140.72,41.16 L130.784,41.16 L130.784,41.808 C131.216,41.808 131.432,41.988 131.432,42.348 L131.432,42.348 L131.432,55.812 C131.432,56.172 131.216,56.352 130.784,56.352 L130.784,56.352 L130.784,57 L135.572,57 Z M140.648,48 L134.96,48 L134.96,43.824 L140.648,43.824 C141.872,43.824 142.766,43.998 143.33,44.346 C143.894,44.694 144.176,45.168 144.176,45.768 C144.176,47.256 143,48 140.648,48 L140.648,48 Z M157.676,57 L157.676,56.352 C157.532,56.352 157.406,56.31 157.298,56.226 C157.19,56.142 157.136,56.004 157.136,55.812 L157.136,55.812 L157.136,50.376 L166.784,50.376 L166.784,55.812 C166.784,56.004 166.73,56.142 166.622,56.226 C166.514,56.31 166.388,56.352 166.244,56.352 L166.244,56.352 L166.244,57 L170.78,57 L170.78,56.352 C170.636,56.352 170.51,56.31 170.402,56.226 C170.294,56.142 170.24,56.004 170.24,55.812 L170.24,55.812 L170.24,42.348 C170.24,42.156 170.294,42.018 170.402,41.934 C170.51,41.85 170.636,41.808 170.78,41.808 L170.78,41.808 L170.78,41.16 L166.244,41.16 L166.244,41.808 C166.388,41.808 166.514,41.85 166.622,41.934 C166.73,42.018 166.784,42.156 166.784,42.348 L166.784,42.348 L166.784,47.424 L157.136,47.424 L157.136,42.348 C157.136,42.156 157.19,42.018 157.298,41.934 C157.406,41.85 157.532,41.808 157.676,41.808 L157.676,41.808 L157.676,41.16 L153.14,41.16 L153.14,41.808 C153.284,41.808 153.41,41.85 153.518,41.934 C153.626,42.018 153.68,42.156 153.68,42.348 L153.68,42.348 L153.68,55.812 C153.68,56.004 153.626,56.142 153.518,56.226 C153.41,56.31 153.284,56.352 153.14,56.352 L153.14,56.352 L153.14,57 L157.676,57 Z M191.804,57.396 L191.804,53.616 L191.156,53.616 C191.156,53.832 191.06,54.006 190.868,54.138 C190.676,54.27 190.436,54.336 190.148,54.336 L190.148,54.336 L180.932,54.336 L180.932,50.088 L186.188,50.088 C186.668,50.088 187.04,50.118 187.304,50.178 C187.568,50.238 187.664,50.4 187.592,50.664 L187.592,50.664 L188.312,50.664 L188.312,46.848 L187.664,46.848 C187.664,47.112 187.568,47.274 187.376,47.334 C187.184,47.394 186.884,47.424 186.476,47.424 L186.476,47.424 L180.932,47.424 L180.932,43.824 L189.716,43.824 C190.46,43.824 190.832,44.052 190.832,44.508 L190.832,44.508 L191.48,44.508 L191.48,40.512 L190.832,40.512 C190.832,40.944 190.46,41.16 189.716,41.16 L189.716,41.16 L176.936,41.16 L176.936,41.808 C177.056,41.808 177.176,41.85 177.296,41.934 C177.416,42.018 177.476,42.156 177.476,42.348 L177.476,42.348 L177.476,55.812 C177.476,56.004 177.416,56.142 177.296,56.226 C177.176,56.31 177.056,56.352 176.936,56.352 L176.936,56.352 L176.936,57 L190.148,57 C190.436,57 190.676,57.012 190.868,57.036 C191.06,57.06 191.156,57.18 191.156,57.396 L191.156,57.396 L191.804,57.396 Z M199.364,57 L199.364,56.352 C199.148,56.352 198.98,56.328 198.86,56.28 C198.74,56.232 198.68,56.112 198.68,55.92 C198.68,55.8 198.71,55.662 198.77,55.506 C198.83,55.35 198.908,55.176 199.004,54.984 L199.004,54.984 L200.012,53.04 L207.716,53.04 L208.688,55.092 C208.76,55.284 208.82,55.44 208.868,55.56 C208.916,55.68 208.94,55.812 208.94,55.956 C208.94,56.148 208.874,56.28 208.742,56.352 C208.61,56.424 208.484,56.46 208.364,56.46 L208.364,56.46 L208.364,57 L213.476,57 L213.476,56.352 C213.308,56.304 213.152,56.232 213.008,56.136 C212.864,56.04 212.732,55.884 212.612,55.668 L212.612,55.668 L206.78,43.428 C206.66,43.164 206.546,42.93 206.438,42.726 C206.33,42.522 206.276,42.348 206.276,42.204 C206.276,42.036 206.318,41.94 206.402,41.916 C206.486,41.892 206.564,41.856 206.636,41.808 L206.636,41.808 L206.636,41.16 L201.2,41.16 L201.2,41.808 C201.272,41.856 201.338,41.898 201.398,41.934 C201.458,41.97 201.488,42.06 201.488,42.204 C201.488,42.396 201.446,42.594 201.362,42.798 C201.278,43.002 201.164,43.272 201.02,43.608 L201.02,43.608 L195.656,55.308 C195.56,55.5 195.422,55.71 195.242,55.938 C195.062,56.166 194.828,56.304 194.54,56.352 L194.54,56.352 L194.54,57 L199.364,57 Z M206.564,50.376 L201.092,50.376 L203.648,44.328 L206.564,50.376 Z" id="Diarrhea" fill="#000000" fill-rule="nonzero"></path>
        <path d="M33.053,295 C33.713,295 34.328,294.904 34.898,294.712 C35.468,294.52 35.963,294.229 36.383,293.839 C36.803,293.449 37.133,292.957 37.373,292.363 C37.613,291.769 37.733,291.07 37.733,290.266 C37.733,289.462 37.613,288.763 37.373,288.169 C37.133,287.575 36.803,287.083 36.383,286.693 C35.963,286.303 35.468,286.012 34.898,285.82 C34.328,285.628 33.713,285.532 33.053,285.532 L33.053,285.532 L27.077,285.532 L27.077,285.856 C27.353,285.856 27.491,285.964 27.491,286.18 L27.491,286.18 L27.491,294.352 C27.491,294.568 27.353,294.676 27.077,294.676 L27.077,294.676 L27.077,295 L33.053,295 Z M32.333,293.452 L29.543,293.452 L29.543,287.08 L32.333,287.08 C32.897,287.08 33.389,287.128 33.809,287.224 C34.229,287.32 34.577,287.491 34.853,287.737 C35.129,287.983 35.336,288.31 35.474,288.718 C35.612,289.126 35.681,289.642 35.681,290.266 C35.681,290.89 35.612,291.406 35.474,291.814 C35.336,292.222 35.129,292.549 34.853,292.795 C34.577,293.041 34.229,293.212 33.809,293.308 C33.389,293.404 32.897,293.452 32.333,293.452 L32.333,293.452 Z M43.097,295 L43.097,294.676 C42.761,294.676 42.593,294.586 42.593,294.406 L42.593,294.406 L42.593,287.674 C42.593,287.494 42.761,287.404 43.097,287.404 L43.097,287.404 L43.097,287.08 L40.361,287.08 L40.361,287.404 C40.553,287.404 40.685,287.425 40.757,287.467 C40.829,287.509 40.865,287.578 40.865,287.674 L40.865,287.674 L40.865,294.406 C40.865,294.502 40.829,294.571 40.757,294.613 C40.685,294.655 40.553,294.676 40.361,294.676 L40.361,294.676 L40.361,295 L43.097,295 Z M51.017,295 C51.725,295 52.325,294.886 52.817,294.658 C53.309,294.43 53.711,294.133 54.023,293.767 C54.335,293.401 54.563,292.981 54.707,292.507 C54.851,292.033 54.923,291.544 54.923,291.04 C54.923,290.536 54.848,290.047 54.698,289.573 C54.548,289.099 54.314,288.679 53.996,288.313 C53.678,287.947 53.267,287.65 52.763,287.422 C52.259,287.194 51.653,287.08 50.945,287.08 L50.945,287.08 L45.941,287.08 L45.941,287.404 C46.217,287.404 46.355,287.494 46.355,287.674 L46.355,287.674 L46.355,294.406 C46.355,294.586 46.217,294.676 45.941,294.676 L45.941,294.676 L45.941,295 L51.017,295 Z M50.423,293.668 L48.083,293.668 L48.083,288.412 L50.423,288.412 C50.795,288.412 51.149,288.433 51.485,288.475 C51.821,288.517 52.115,288.625 52.367,288.799 C52.619,288.973 52.82,289.231 52.97,289.573 C53.12,289.915 53.195,290.386 53.195,290.986 C53.195,291.586 53.12,292.063 52.97,292.417 C52.82,292.771 52.619,293.041 52.367,293.227 C52.115,293.413 51.821,293.533 51.485,293.587 C51.149,293.641 50.795,293.668 50.423,293.668 L50.423,293.668 Z M67.433,295 L67.433,294.676 C67.205,294.676 67.091,294.586 67.091,294.406 L67.091,294.406 L67.091,291.706 L69.845,288.142 C69.977,287.974 70.13,287.809 70.304,287.647 C70.478,287.485 70.637,287.404 70.781,287.404 L70.781,287.404 L70.781,287.08 L68.027,287.08 L68.027,287.404 C68.087,287.404 68.147,287.416 68.207,287.44 C68.267,287.464 68.297,287.524 68.297,287.62 C68.297,287.692 68.27,287.767 68.216,287.845 C68.162,287.923 68.081,288.04 67.973,288.196 L67.973,288.196 L66.371,290.428 L64.553,288.052 C64.493,287.968 64.439,287.896 64.391,287.836 C64.343,287.776 64.319,287.71 64.319,287.638 C64.319,287.566 64.355,287.509 64.427,287.467 C64.499,287.425 64.565,287.404 64.625,287.404 L64.625,287.404 L64.625,287.08 L61.655,287.08 L61.655,287.404 C61.763,287.404 61.877,287.428 61.997,287.476 C62.117,287.524 62.219,287.602 62.303,287.71 L62.303,287.71 L65.363,291.634 L65.363,294.406 C65.363,294.586 65.255,294.676 65.039,294.676 L65.039,294.676 L65.039,295 L67.433,295 Z M76.721,295.054 C77.381,295.054 78.002,294.979 78.584,294.829 C79.166,294.679 79.673,294.436 80.105,294.1 C80.537,293.764 80.879,293.341 81.131,292.831 C81.383,292.321 81.509,291.724 81.509,291.04 C81.509,290.356 81.383,289.759 81.131,289.249 C80.879,288.739 80.537,288.316 80.105,287.98 C79.673,287.644 79.166,287.392 78.584,287.224 C78.002,287.056 77.381,286.972 76.721,286.972 C76.061,286.972 75.44,287.056 74.858,287.224 C74.276,287.392 73.769,287.644 73.337,287.98 C72.905,288.316 72.563,288.739 72.311,289.249 C72.059,289.759 71.933,290.356 71.933,291.04 C71.933,291.724 72.059,292.321 72.311,292.831 C72.563,293.341 72.905,293.764 73.337,294.1 C73.769,294.436 74.276,294.679 74.858,294.829 C75.44,294.979 76.061,295.054 76.721,295.054 Z M76.721,293.776 C76.337,293.776 75.962,293.713 75.596,293.587 C75.23,293.461 74.903,293.281 74.615,293.047 C74.327,292.813 74.096,292.528 73.922,292.192 C73.748,291.856 73.661,291.472 73.661,291.04 C73.661,290.608 73.748,290.224 73.922,289.888 C74.096,289.552 74.327,289.267 74.615,289.033 C74.903,288.799 75.23,288.619 75.596,288.493 C75.962,288.367 76.337,288.304 76.721,288.304 C77.105,288.304 77.48,288.367 77.846,288.493 C78.212,288.619 78.539,288.799 78.827,289.033 C79.115,289.267 79.346,289.552 79.52,289.888 C79.694,290.224 79.781,290.608 79.781,291.04 C79.781,291.472 79.694,291.856 79.52,292.192 C79.346,292.528 79.115,292.813 78.827,293.047 C78.539,293.281 78.212,293.461 77.846,293.587 C77.48,293.713 77.105,293.776 76.721,293.776 Z M88.295,295.054 C89.015,295.054 89.642,294.979 90.176,294.829 C90.71,294.679 91.148,294.472 91.49,294.208 C91.832,293.944 92.087,293.641 92.255,293.299 C92.423,292.957 92.507,292.6 92.507,292.228 L92.507,292.228 L92.507,287.674 C92.507,287.494 92.639,287.404 92.903,287.404 L92.903,287.404 L92.903,287.08 L90.401,287.08 L90.401,287.404 C90.701,287.404 90.851,287.494 90.851,287.674 L90.851,287.674 L90.851,291.796 C90.851,292.372 90.641,292.834 90.221,293.182 C89.801,293.53 89.159,293.704 88.295,293.704 C87.431,293.704 86.789,293.53 86.369,293.182 C85.949,292.834 85.739,292.372 85.739,291.796 L85.739,291.796 L85.739,287.674 C85.739,287.494 85.871,287.404 86.135,287.404 L86.135,287.404 L86.135,287.08 L83.561,287.08 L83.561,287.404 C83.765,287.404 83.903,287.425 83.975,287.467 C84.047,287.509 84.083,287.578 84.083,287.674 L84.083,287.674 L84.083,292.228 C84.083,292.6 84.167,292.957 84.335,293.299 C84.503,293.641 84.758,293.944 85.1,294.208 C85.442,294.472 85.88,294.679 86.414,294.829 C86.948,294.979 87.575,295.054 88.295,295.054 Z M105.413,295 L105.413,294.676 C105.197,294.676 105.089,294.586 105.089,294.406 L105.089,294.406 L105.089,288.412 L107.429,288.412 C107.525,288.412 107.615,288.436 107.699,288.484 C107.783,288.532 107.825,288.61 107.825,288.718 L107.825,288.718 L108.149,288.718 L108.149,286.648 L107.825,286.648 C107.825,286.816 107.783,286.93 107.699,286.99 C107.615,287.05 107.525,287.08 107.429,287.08 L107.429,287.08 L101.021,287.08 C100.925,287.08 100.835,287.05 100.751,286.99 C100.667,286.93 100.625,286.816 100.625,286.648 L100.625,286.648 L100.301,286.648 L100.301,288.718 L100.625,288.718 C100.625,288.61 100.667,288.532 100.751,288.484 C100.835,288.436 100.925,288.412 101.021,288.412 L101.021,288.412 L103.361,288.412 L103.361,294.406 C103.361,294.502 103.331,294.571 103.271,294.613 C103.211,294.655 103.151,294.676 103.091,294.676 L103.091,294.676 L103.091,295 L105.413,295 Z M112.523,295 L112.523,294.676 C112.451,294.676 112.376,294.655 112.298,294.613 C112.22,294.571 112.181,294.502 112.181,294.406 L112.181,294.406 L112.181,291.832 L114.683,291.832 L116.105,293.956 C116.285,294.208 116.375,294.394 116.375,294.514 C116.375,294.622 116.297,294.676 116.141,294.676 L116.141,294.676 L116.141,295 L118.895,295 L118.895,294.676 C118.763,294.64 118.64,294.589 118.526,294.523 C118.412,294.457 118.307,294.358 118.211,294.226 L118.211,294.226 L116.447,291.652 C116.699,291.592 116.945,291.505 117.185,291.391 C117.425,291.277 117.644,291.127 117.842,290.941 C118.04,290.755 118.199,290.536 118.319,290.284 C118.439,290.032 118.499,289.744 118.499,289.42 C118.499,288.568 118.199,287.965 117.599,287.611 C116.999,287.257 116.165,287.08 115.097,287.08 L115.097,287.08 L110.129,287.08 L110.129,287.404 C110.345,287.404 110.453,287.494 110.453,287.674 L110.453,287.674 L110.453,294.406 C110.453,294.586 110.345,294.676 110.129,294.676 L110.129,294.676 L110.129,295 L112.523,295 Z M115.061,290.5 L112.217,290.5 L112.217,288.412 L115.061,288.412 C115.673,288.412 116.12,288.499 116.402,288.673 C116.684,288.847 116.825,289.084 116.825,289.384 C116.825,290.128 116.237,290.5 115.061,290.5 L115.061,290.5 Z M125.933,295 L125.933,294.676 C125.705,294.676 125.591,294.586 125.591,294.406 L125.591,294.406 L125.591,291.706 L128.345,288.142 C128.477,287.974 128.63,287.809 128.804,287.647 C128.978,287.485 129.137,287.404 129.281,287.404 L129.281,287.404 L129.281,287.08 L126.527,287.08 L126.527,287.404 C126.587,287.404 126.647,287.416 126.707,287.44 C126.767,287.464 126.797,287.524 126.797,287.62 C126.797,287.692 126.77,287.767 126.716,287.845 C126.662,287.923 126.581,288.04 126.473,288.196 L126.473,288.196 L124.871,290.428 L123.053,288.052 C122.993,287.968 122.939,287.896 122.891,287.836 C122.843,287.776 122.819,287.71 122.819,287.638 C122.819,287.566 122.855,287.509 122.927,287.467 C122.999,287.425 123.065,287.404 123.125,287.404 L123.125,287.404 L123.125,287.08 L120.155,287.08 L120.155,287.404 C120.263,287.404 120.377,287.428 120.497,287.476 C120.617,287.524 120.719,287.602 120.803,287.71 L120.803,287.71 L123.863,291.634 L123.863,294.406 C123.863,294.586 123.755,294.676 123.539,294.676 L123.539,294.676 L123.539,295 L125.933,295 Z M140.297,295.054 C140.837,295.054 141.326,295.006 141.764,294.91 C142.202,294.814 142.586,294.697 142.916,294.559 C143.246,294.421 143.519,294.298 143.735,294.19 C143.951,294.082 144.107,294.028 144.203,294.028 C144.263,294.028 144.365,294.058 144.509,294.118 L144.509,294.118 L144.689,294.028 L143.357,292.12 L143.159,292.3 C143.171,292.348 143.177,292.408 143.177,292.48 L143.177,292.48 L143.177,292.624 C143.177,292.732 143.09,292.852 142.916,292.984 C142.742,293.116 142.517,293.239 142.241,293.353 C141.965,293.467 141.659,293.566 141.323,293.65 C140.987,293.734 140.657,293.776 140.333,293.776 C139.985,293.776 139.643,293.713 139.307,293.587 C138.971,293.461 138.671,293.275 138.407,293.029 C138.143,292.783 137.93,292.489 137.768,292.147 C137.606,291.805 137.525,291.418 137.525,290.986 C137.525,290.554 137.597,290.17 137.741,289.834 C137.885,289.498 138.089,289.216 138.353,288.988 C138.617,288.76 138.926,288.589 139.28,288.475 C139.634,288.361 140.027,288.304 140.459,288.304 C140.819,288.304 141.149,288.337 141.449,288.403 C141.749,288.469 142.01,288.55 142.232,288.646 C142.454,288.742 142.625,288.841 142.745,288.943 C142.865,289.045 142.925,289.126 142.925,289.186 C142.925,289.222 142.928,289.252 142.934,289.276 C142.94,289.3 142.943,289.324 142.943,289.348 L142.943,289.348 L143.141,289.492 L144.329,287.782 L144.113,287.656 C144.065,287.68 144.02,287.71 143.978,287.746 C143.936,287.782 143.885,287.8 143.825,287.8 C143.741,287.8 143.603,287.758 143.411,287.674 C143.219,287.59 142.979,287.494 142.691,287.386 C142.403,287.278 142.07,287.182 141.692,287.098 C141.314,287.014 140.897,286.972 140.441,286.972 C139.853,286.972 139.28,287.056 138.722,287.224 C138.164,287.392 137.669,287.647 137.237,287.989 C136.805,288.331 136.457,288.754 136.193,289.258 C135.929,289.762 135.797,290.35 135.797,291.022 C135.797,291.694 135.929,292.285 136.193,292.795 C136.457,293.305 136.799,293.731 137.219,294.073 C137.639,294.415 138.119,294.664 138.659,294.82 C139.199,294.976 139.745,295.054 140.297,295.054 Z M154.481,295.18 L154.481,293.29 L154.157,293.29 C154.157,293.41 154.109,293.503 154.013,293.569 C153.917,293.635 153.797,293.668 153.653,293.668 L153.653,293.668 L148.793,293.668 L148.793,287.674 C148.793,287.494 148.931,287.404 149.207,287.404 L149.207,287.404 L149.207,287.08 L146.597,287.08 L146.597,287.404 C146.909,287.404 147.065,287.494 147.065,287.674 L147.065,287.674 L147.065,294.406 C147.065,294.586 146.909,294.676 146.597,294.676 L146.597,294.676 L146.597,295 L153.653,295 C153.797,295 153.917,295.006 154.013,295.018 C154.109,295.03 154.157,295.084 154.157,295.18 L154.157,295.18 L154.481,295.18 Z M164.147,295.198 L164.147,293.308 L163.823,293.308 C163.823,293.416 163.775,293.503 163.679,293.569 C163.583,293.635 163.463,293.668 163.319,293.668 L163.319,293.668 L158.711,293.668 L158.711,291.544 L161.339,291.544 C161.579,291.544 161.765,291.559 161.897,291.589 C162.029,291.619 162.077,291.7 162.041,291.832 L162.041,291.832 L162.401,291.832 L162.401,289.924 L162.077,289.924 C162.077,290.056 162.029,290.137 161.933,290.167 C161.837,290.197 161.687,290.212 161.483,290.212 L161.483,290.212 L158.711,290.212 L158.711,288.412 L163.103,288.412 C163.475,288.412 163.661,288.526 163.661,288.754 L163.661,288.754 L163.985,288.754 L163.985,286.756 L163.661,286.756 C163.661,286.972 163.475,287.08 163.103,287.08 L163.103,287.08 L156.713,287.08 L156.713,287.404 C156.773,287.404 156.833,287.425 156.893,287.467 C156.953,287.509 156.983,287.578 156.983,287.674 L156.983,287.674 L156.983,294.406 C156.983,294.502 156.953,294.571 156.893,294.613 C156.833,294.655 156.773,294.676 156.713,294.676 L156.713,294.676 L156.713,295 L163.319,295 C163.463,295 163.583,295.006 163.679,295.018 C163.775,295.03 163.823,295.09 163.823,295.198 L163.823,295.198 L164.147,295.198 Z M168.917,295 L168.917,294.676 C168.665,294.676 168.539,294.586 168.539,294.406 L168.539,294.406 L168.539,289.168 L173.003,293.92 C173.147,294.076 173.276,294.214 173.39,294.334 C173.504,294.454 173.561,294.538 173.561,294.586 C173.561,294.646 173.519,294.676 173.435,294.676 L173.435,294.676 L173.435,295 L175.775,295 L175.775,294.676 C175.559,294.676 175.451,294.586 175.451,294.406 L175.451,294.406 L175.451,287.674 C175.451,287.494 175.559,287.404 175.775,287.404 L175.775,287.404 L175.775,287.08 L173.579,287.08 L173.579,287.404 C173.819,287.404 173.939,287.494 173.939,287.674 L173.939,287.674 L173.939,292.552 L169.619,287.98 C169.355,287.716 169.223,287.554 169.223,287.494 C169.223,287.446 169.265,287.416 169.349,287.404 L169.349,287.404 L169.349,287.08 L166.703,287.08 L166.703,287.404 C166.919,287.404 167.027,287.494 167.027,287.674 L167.027,287.674 L167.027,294.406 C167.027,294.586 166.919,294.676 166.703,294.676 L166.703,294.676 L166.703,295 L168.917,295 Z M182.327,295.054 C182.867,295.054 183.356,295.006 183.794,294.91 C184.232,294.814 184.616,294.697 184.946,294.559 C185.276,294.421 185.549,294.298 185.765,294.19 C185.981,294.082 186.137,294.028 186.233,294.028 C186.293,294.028 186.395,294.058 186.539,294.118 L186.539,294.118 L186.719,294.028 L185.387,292.12 L185.189,292.3 C185.201,292.348 185.207,292.408 185.207,292.48 L185.207,292.48 L185.207,292.624 C185.207,292.732 185.12,292.852 184.946,292.984 C184.772,293.116 184.547,293.239 184.271,293.353 C183.995,293.467 183.689,293.566 183.353,293.65 C183.017,293.734 182.687,293.776 182.363,293.776 C182.015,293.776 181.673,293.713 181.337,293.587 C181.001,293.461 180.701,293.275 180.437,293.029 C180.173,292.783 179.96,292.489 179.798,292.147 C179.636,291.805 179.555,291.418 179.555,290.986 C179.555,290.554 179.627,290.17 179.771,289.834 C179.915,289.498 180.119,289.216 180.383,288.988 C180.647,288.76 180.956,288.589 181.31,288.475 C181.664,288.361 182.057,288.304 182.489,288.304 C182.849,288.304 183.179,288.337 183.479,288.403 C183.779,288.469 184.04,288.55 184.262,288.646 C184.484,288.742 184.655,288.841 184.775,288.943 C184.895,289.045 184.955,289.126 184.955,289.186 C184.955,289.222 184.958,289.252 184.964,289.276 C184.97,289.3 184.973,289.324 184.973,289.348 L184.973,289.348 L185.171,289.492 L186.359,287.782 L186.143,287.656 C186.095,287.68 186.05,287.71 186.008,287.746 C185.966,287.782 185.915,287.8 185.855,287.8 C185.771,287.8 185.633,287.758 185.441,287.674 C185.249,287.59 185.009,287.494 184.721,287.386 C184.433,287.278 184.1,287.182 183.722,287.098 C183.344,287.014 182.927,286.972 182.471,286.972 C181.883,286.972 181.31,287.056 180.752,287.224 C180.194,287.392 179.699,287.647 179.267,287.989 C178.835,288.331 178.487,288.754 178.223,289.258 C177.959,289.762 177.827,290.35 177.827,291.022 C177.827,291.694 177.959,292.285 178.223,292.795 C178.487,293.305 178.829,293.731 179.249,294.073 C179.669,294.415 180.149,294.664 180.689,294.82 C181.229,294.976 181.775,295.054 182.327,295.054 Z M191.111,295 L191.111,294.676 C191.039,294.676 190.976,294.655 190.922,294.613 C190.868,294.571 190.841,294.502 190.841,294.406 L190.841,294.406 L190.841,291.688 L195.665,291.688 L195.665,294.406 C195.665,294.502 195.638,294.571 195.584,294.613 C195.53,294.655 195.467,294.676 195.395,294.676 L195.395,294.676 L195.395,295 L197.663,295 L197.663,294.676 C197.591,294.676 197.528,294.655 197.474,294.613 C197.42,294.571 197.393,294.502 197.393,294.406 L197.393,294.406 L197.393,287.674 C197.393,287.578 197.42,287.509 197.474,287.467 C197.528,287.425 197.591,287.404 197.663,287.404 L197.663,287.404 L197.663,287.08 L195.395,287.08 L195.395,287.404 C195.467,287.404 195.53,287.425 195.584,287.467 C195.638,287.509 195.665,287.578 195.665,287.674 L195.665,287.674 L195.665,290.212 L190.841,290.212 L190.841,287.674 C190.841,287.578 190.868,287.509 190.922,287.467 C190.976,287.425 191.039,287.404 191.111,287.404 L191.111,287.404 L191.111,287.08 L188.843,287.08 L188.843,287.404 C188.915,287.404 188.978,287.425 189.032,287.467 C189.086,287.509 189.113,287.578 189.113,287.674 L189.113,287.674 L189.113,294.406 C189.113,294.502 189.086,294.571 189.032,294.613 C188.978,294.655 188.915,294.676 188.843,294.676 L188.843,294.676 L188.843,295 L191.111,295 Z M203.621,295 L203.621,294.676 C203.285,294.676 203.117,294.586 203.117,294.406 L203.117,294.406 L203.117,287.674 C203.117,287.494 203.285,287.404 203.621,287.404 L203.621,287.404 L203.621,287.08 L200.885,287.08 L200.885,287.404 C201.077,287.404 201.209,287.425 201.281,287.467 C201.353,287.509 201.389,287.578 201.389,287.674 L201.389,287.674 L201.389,294.406 C201.389,294.502 201.353,294.571 201.281,294.613 C201.209,294.655 201.077,294.676 200.885,294.676 L200.885,294.676 L200.885,295 L203.621,295 Z M208.931,295 L208.931,294.676 C208.679,294.676 208.553,294.586 208.553,294.406 L208.553,294.406 L208.553,289.168 L213.017,293.92 C213.161,294.076 213.29,294.214 213.404,294.334 C213.518,294.454 213.575,294.538 213.575,294.586 C213.575,294.646 213.533,294.676 213.449,294.676 L213.449,294.676 L213.449,295 L215.789,295 L215.789,294.676 C215.573,294.676 215.465,294.586 215.465,294.406 L215.465,294.406 L215.465,287.674 C215.465,287.494 215.573,287.404 215.789,287.404 L215.789,287.404 L215.789,287.08 L213.593,287.08 L213.593,287.404 C213.833,287.404 213.953,287.494 213.953,287.674 L213.953,287.674 L213.953,292.552 L209.633,287.98 C209.369,287.716 209.237,287.554 209.237,287.494 C209.237,287.446 209.279,287.416 209.363,287.404 L209.363,287.404 L209.363,287.08 L206.717,287.08 L206.717,287.404 C206.933,287.404 207.041,287.494 207.041,287.674 L207.041,287.674 L207.041,294.406 C207.041,294.586 206.933,294.676 206.717,294.676 L206.717,294.676 L206.717,295 L208.931,295 Z M222.953,295.054 C223.529,295.054 224.051,295.015 224.519,294.937 C224.987,294.859 225.398,294.76 225.752,294.64 C226.106,294.52 226.4,294.397 226.634,294.271 C226.868,294.145 227.039,294.046 227.147,293.974 L227.147,293.974 L227.147,293.758 C227.027,293.71 226.952,293.665 226.922,293.623 C226.892,293.581 226.877,293.506 226.877,293.398 L226.877,293.398 L226.877,291.688 C226.877,291.568 226.895,291.478 226.931,291.418 C226.967,291.358 227.039,291.304 227.147,291.256 L227.147,291.256 L227.147,290.932 L223.619,290.932 C223.487,290.932 223.373,290.914 223.277,290.878 C223.181,290.842 223.121,290.764 223.097,290.644 L223.097,290.644 L222.773,290.644 L222.773,292.498 L223.097,292.498 C223.121,292.354 223.181,292.255 223.277,292.201 C223.373,292.147 223.487,292.12 223.619,292.12 L223.619,292.12 L225.473,292.12 L225.473,293.254 C225.089,293.458 224.666,293.596 224.204,293.668 C223.742,293.74 223.253,293.776 222.737,293.776 C222.389,293.776 222.029,293.728 221.657,293.632 C221.285,293.536 220.946,293.383 220.64,293.173 C220.334,292.963 220.085,292.687 219.893,292.345 C219.701,292.003 219.605,291.58 219.605,291.076 C219.605,290.572 219.695,290.146 219.875,289.798 C220.055,289.45 220.295,289.165 220.595,288.943 C220.895,288.721 221.243,288.559 221.639,288.457 C222.035,288.355 222.455,288.304 222.899,288.304 C223.223,288.304 223.544,288.337 223.862,288.403 C224.18,288.469 224.465,288.556 224.717,288.664 C224.969,288.772 225.173,288.889 225.329,289.015 C225.485,289.141 225.563,289.258 225.563,289.366 C225.563,289.378 225.551,289.444 225.527,289.564 L225.527,289.564 L225.743,289.69 L226.787,287.728 L226.571,287.62 C226.499,287.68 226.439,287.719 226.391,287.737 C226.343,287.755 226.271,287.764 226.175,287.764 C226.091,287.764 225.965,287.722 225.797,287.638 C225.629,287.554 225.407,287.464 225.131,287.368 C224.867,287.272 224.555,287.182 224.195,287.098 C223.835,287.014 223.421,286.972 222.953,286.972 C222.173,286.972 221.468,287.065 220.838,287.251 C220.208,287.437 219.674,287.707 219.236,288.061 C218.798,288.415 218.462,288.841 218.228,289.339 C217.994,289.837 217.877,290.404 217.877,291.04 C217.877,291.676 217.994,292.243 218.228,292.741 C218.462,293.239 218.798,293.662 219.236,294.01 C219.674,294.358 220.208,294.619 220.838,294.793 C221.468,294.967 222.173,295.054 222.953,295.054 Z M233.447,291.724 L233.447,291.508 C233.339,291.508 233.261,291.463 233.213,291.373 C233.165,291.283 233.141,291.172 233.141,291.04 C233.141,290.764 233.249,290.506 233.465,290.266 C233.681,290.026 233.915,289.768 234.167,289.492 C234.431,289.216 234.668,288.913 234.878,288.583 C235.088,288.253 235.193,287.866 235.193,287.422 C235.193,287.062 235.118,286.741 234.968,286.459 C234.818,286.177 234.617,285.943 234.365,285.757 C234.113,285.571 233.828,285.427 233.51,285.325 C233.192,285.223 232.871,285.172 232.547,285.172 C232.043,285.172 231.635,285.232 231.323,285.352 C231.011,285.472 230.753,285.601 230.549,285.739 C230.345,285.877 230.18,286.006 230.054,286.126 C229.928,286.246 229.805,286.306 229.685,286.306 C229.673,286.306 229.607,286.294 229.487,286.27 L229.487,286.27 L229.325,286.432 L230.711,287.944 L230.873,287.818 C230.837,287.71 230.819,287.602 230.819,287.494 C230.819,287.422 230.852,287.329 230.918,287.215 C230.984,287.101 231.08,286.996 231.206,286.9 C231.332,286.804 231.488,286.72 231.674,286.648 C231.86,286.576 232.067,286.54 232.295,286.54 C232.607,286.54 232.868,286.633 233.078,286.819 C233.288,287.005 233.393,287.26 233.393,287.584 C233.393,287.86 233.315,288.103 233.159,288.313 C233.003,288.523 232.823,288.748 232.619,288.988 C232.427,289.216 232.244,289.48 232.07,289.78 C231.896,290.08 231.785,290.482 231.737,290.986 C231.713,291.19 231.674,291.328 231.62,291.4 C231.566,291.472 231.503,291.508 231.431,291.508 L231.431,291.508 L231.431,291.724 L233.447,291.724 Z M232.421,295.054 C232.733,295.054 233.003,294.949 233.231,294.739 C233.459,294.529 233.573,294.268 233.573,293.956 C233.573,293.644 233.459,293.374 233.231,293.146 C233.003,292.918 232.733,292.804 232.421,292.804 C232.109,292.804 231.839,292.918 231.611,293.146 C231.383,293.374 231.269,293.644 231.269,293.956 C231.269,294.268 231.383,294.529 231.611,294.739 C231.839,294.949 232.109,295.054 232.421,295.054 Z M58.19,313 L58.19,312.676 C57.962,312.676 57.848,312.61 57.848,312.478 C57.848,312.37 57.908,312.19 58.028,311.938 L58.028,311.938 L58.676,310.66 L63.068,310.66 L63.752,311.992 C63.848,312.184 63.896,312.34 63.896,312.46 C63.896,312.532 63.86,312.586 63.788,312.622 C63.716,312.658 63.656,312.676 63.608,312.676 L63.608,312.676 L63.608,313 L66.776,313 L66.776,312.676 C66.644,312.616 66.527,312.556 66.425,312.496 C66.323,312.436 66.242,312.34 66.182,312.208 L66.182,312.208 L62.438,304.882 C62.354,304.726 62.291,304.6 62.249,304.504 C62.207,304.408 62.186,304.312 62.186,304.216 C62.186,304.084 62.228,303.997 62.312,303.955 C62.396,303.913 62.48,303.88 62.564,303.856 L62.564,303.856 L62.564,303.532 L59.522,303.532 L59.522,303.856 C59.618,303.88 59.708,303.916 59.792,303.964 C59.876,304.012 59.918,304.096 59.918,304.216 C59.918,304.312 59.885,304.426 59.819,304.558 C59.753,304.69 59.678,304.834 59.594,304.99 L59.594,304.99 L56.264,311.992 C56.18,312.16 56.093,312.31 56.003,312.442 C55.913,312.574 55.79,312.652 55.634,312.676 L55.634,312.676 L55.634,313 L58.19,313 Z M62.42,309.328 L59.216,309.328 L60.908,305.98 L62.42,309.328 Z M73.544,313 C74.252,313 74.852,312.886 75.344,312.658 C75.836,312.43 76.238,312.133 76.55,311.767 C76.862,311.401 77.09,310.981 77.234,310.507 C77.378,310.033 77.45,309.544 77.45,309.04 C77.45,308.536 77.375,308.047 77.225,307.573 C77.075,307.099 76.841,306.679 76.523,306.313 C76.205,305.947 75.794,305.65 75.29,305.422 C74.786,305.194 74.18,305.08 73.472,305.08 L73.472,305.08 L68.468,305.08 L68.468,305.404 C68.744,305.404 68.882,305.494 68.882,305.674 L68.882,305.674 L68.882,312.406 C68.882,312.586 68.744,312.676 68.468,312.676 L68.468,312.676 L68.468,313 L73.544,313 Z M72.95,311.668 L70.61,311.668 L70.61,306.412 L72.95,306.412 C73.322,306.412 73.676,306.433 74.012,306.475 C74.348,306.517 74.642,306.625 74.894,306.799 C75.146,306.973 75.347,307.231 75.497,307.573 C75.647,307.915 75.722,308.386 75.722,308.986 C75.722,309.586 75.647,310.063 75.497,310.417 C75.347,310.771 75.146,311.041 74.894,311.227 C74.642,311.413 74.348,311.533 74.012,311.587 C73.676,311.641 73.322,311.668 72.95,311.668 L72.95,311.668 Z M84.542,313 C85.25,313 85.85,312.886 86.342,312.658 C86.834,312.43 87.236,312.133 87.548,311.767 C87.86,311.401 88.088,310.981 88.232,310.507 C88.376,310.033 88.448,309.544 88.448,309.04 C88.448,308.536 88.373,308.047 88.223,307.573 C88.073,307.099 87.839,306.679 87.521,306.313 C87.203,305.947 86.792,305.65 86.288,305.422 C85.784,305.194 85.178,305.08 84.47,305.08 L84.47,305.08 L79.466,305.08 L79.466,305.404 C79.742,305.404 79.88,305.494 79.88,305.674 L79.88,305.674 L79.88,312.406 C79.88,312.586 79.742,312.676 79.466,312.676 L79.466,312.676 L79.466,313 L84.542,313 Z M83.948,311.668 L81.608,311.668 L81.608,306.412 L83.948,306.412 C84.32,306.412 84.674,306.433 85.01,306.475 C85.346,306.517 85.64,306.625 85.892,306.799 C86.144,306.973 86.345,307.231 86.495,307.573 C86.645,307.915 86.72,308.386 86.72,308.986 C86.72,309.586 86.645,310.063 86.495,310.417 C86.345,310.771 86.144,311.041 85.892,311.227 C85.64,311.413 85.346,311.533 85.01,311.587 C84.674,311.641 84.32,311.668 83.948,311.668 L83.948,311.668 Z M100.436,313 L100.436,312.676 C100.22,312.676 100.112,312.586 100.112,312.406 L100.112,312.406 L100.112,306.412 L102.452,306.412 C102.548,306.412 102.638,306.436 102.722,306.484 C102.806,306.532 102.848,306.61 102.848,306.718 L102.848,306.718 L103.172,306.718 L103.172,304.648 L102.848,304.648 C102.848,304.816 102.806,304.93 102.722,304.99 C102.638,305.05 102.548,305.08 102.452,305.08 L102.452,305.08 L96.044,305.08 C95.948,305.08 95.858,305.05 95.774,304.99 C95.69,304.93 95.648,304.816 95.648,304.648 L95.648,304.648 L95.324,304.648 L95.324,306.718 L95.648,306.718 C95.648,306.61 95.69,306.532 95.774,306.484 C95.858,306.436 95.948,306.412 96.044,306.412 L96.044,306.412 L98.384,306.412 L98.384,312.406 C98.384,312.502 98.354,312.571 98.294,312.613 C98.234,312.655 98.174,312.676 98.114,312.676 L98.114,312.676 L98.114,313 L100.436,313 Z M107.6,313 L107.6,312.676 C107.528,312.676 107.465,312.655 107.411,312.613 C107.357,312.571 107.33,312.502 107.33,312.406 L107.33,312.406 L107.33,309.688 L112.154,309.688 L112.154,312.406 C112.154,312.502 112.127,312.571 112.073,312.613 C112.019,312.655 111.956,312.676 111.884,312.676 L111.884,312.676 L111.884,313 L114.152,313 L114.152,312.676 C114.08,312.676 114.017,312.655 113.963,312.613 C113.909,312.571 113.882,312.502 113.882,312.406 L113.882,312.406 L113.882,305.674 C113.882,305.578 113.909,305.509 113.963,305.467 C114.017,305.425 114.08,305.404 114.152,305.404 L114.152,305.404 L114.152,305.08 L111.884,305.08 L111.884,305.404 C111.956,305.404 112.019,305.425 112.073,305.467 C112.127,305.509 112.154,305.578 112.154,305.674 L112.154,305.674 L112.154,308.212 L107.33,308.212 L107.33,305.674 C107.33,305.578 107.357,305.509 107.411,305.467 C107.465,305.425 107.528,305.404 107.6,305.404 L107.6,305.404 L107.6,305.08 L105.332,305.08 L105.332,305.404 C105.404,305.404 105.467,305.425 105.521,305.467 C105.575,305.509 105.602,305.578 105.602,305.674 L105.602,305.674 L105.602,312.406 C105.602,312.502 105.575,312.571 105.521,312.613 C105.467,312.655 105.404,312.676 105.332,312.676 L105.332,312.676 L105.332,313 L107.6,313 Z M120.11,313 L120.11,312.676 C119.774,312.676 119.606,312.586 119.606,312.406 L119.606,312.406 L119.606,305.674 C119.606,305.494 119.774,305.404 120.11,305.404 L120.11,305.404 L120.11,305.08 L117.374,305.08 L117.374,305.404 C117.566,305.404 117.698,305.425 117.77,305.467 C117.842,305.509 117.878,305.578 117.878,305.674 L117.878,305.674 L117.878,312.406 C117.878,312.502 117.842,312.571 117.77,312.613 C117.698,312.655 117.566,312.676 117.374,312.676 L117.374,312.676 L117.374,313 L120.11,313 Z M126.608,313.054 C127.016,313.054 127.451,313.024 127.913,312.964 C128.375,312.904 128.798,312.778 129.182,312.586 C129.566,312.394 129.887,312.13 130.145,311.794 C130.403,311.458 130.532,311.026 130.532,310.498 C130.532,309.97 130.385,309.556 130.091,309.256 C129.797,308.956 129.428,308.728 128.984,308.572 C128.54,308.416 128.06,308.305 127.544,308.239 C127.028,308.173 126.548,308.107 126.104,308.041 C125.66,307.975 125.291,307.885 124.997,307.771 C124.703,307.657 124.556,307.468 124.556,307.204 C124.556,307.036 124.604,306.895 124.7,306.781 C124.796,306.667 124.928,306.574 125.096,306.502 C125.264,306.43 125.456,306.379 125.672,306.349 C125.888,306.319 126.116,306.304 126.356,306.304 C126.98,306.304 127.544,306.376 128.048,306.52 C128.552,306.664 128.924,306.838 129.164,307.042 C129.26,307.114 129.314,307.186 129.326,307.258 L129.326,307.258 L129.362,307.474 L129.686,307.582 L130.586,305.89 L130.388,305.692 C130.316,305.728 130.256,305.761 130.208,305.791 C130.16,305.821 130.088,305.836 129.992,305.836 C129.908,305.836 129.779,305.791 129.605,305.701 C129.431,305.611 129.206,305.512 128.93,305.404 C128.654,305.296 128.315,305.197 127.913,305.107 C127.511,305.017 127.028,304.972 126.464,304.972 C125.312,304.972 124.418,305.2 123.782,305.656 C123.146,306.112 122.828,306.724 122.828,307.492 C122.828,308.008 122.975,308.407 123.269,308.689 C123.563,308.971 123.932,309.187 124.376,309.337 C124.82,309.487 125.3,309.595 125.816,309.661 C126.332,309.727 126.812,309.793 127.256,309.859 C127.7,309.925 128.069,310.018 128.363,310.138 C128.657,310.258 128.804,310.45 128.804,310.714 C128.804,310.942 128.72,311.125 128.552,311.263 C128.384,311.401 128.18,311.509 127.94,311.587 C127.7,311.665 127.457,311.716 127.211,311.74 C126.965,311.764 126.758,311.776 126.59,311.776 C126.41,311.776 126.161,311.746 125.843,311.686 C125.525,311.626 125.207,311.545 124.889,311.443 C124.571,311.341 124.298,311.215 124.07,311.065 C123.842,310.915 123.728,310.75 123.728,310.57 C123.728,310.51 123.731,310.453 123.737,310.399 C123.743,310.345 123.746,310.294 123.746,310.246 L123.746,310.246 L123.404,310.156 L122.576,312.172 L122.828,312.352 C122.888,312.28 122.96,312.244 123.044,312.244 C123.092,312.244 123.23,312.289 123.458,312.379 C123.686,312.469 123.965,312.565 124.295,312.667 C124.625,312.769 124.991,312.859 125.393,312.937 C125.795,313.015 126.2,313.054 126.608,313.054 Z M142.934,313 L142.934,312.676 C142.718,312.676 142.61,312.586 142.61,312.406 L142.61,312.406 L142.61,306.412 L144.95,306.412 C145.046,306.412 145.136,306.436 145.22,306.484 C145.304,306.532 145.346,306.61 145.346,306.718 L145.346,306.718 L145.67,306.718 L145.67,304.648 L145.346,304.648 C145.346,304.816 145.304,304.93 145.22,304.99 C145.136,305.05 145.046,305.08 144.95,305.08 L144.95,305.08 L138.542,305.08 C138.446,305.08 138.356,305.05 138.272,304.99 C138.188,304.93 138.146,304.816 138.146,304.648 L138.146,304.648 L137.822,304.648 L137.822,306.718 L138.146,306.718 C138.146,306.61 138.188,306.532 138.272,306.484 C138.356,306.436 138.446,306.412 138.542,306.412 L138.542,306.412 L140.882,306.412 L140.882,312.406 C140.882,312.502 140.852,312.571 140.792,312.613 C140.732,312.655 140.672,312.676 140.612,312.676 L140.612,312.676 L140.612,313 L142.934,313 Z M151.736,313.054 C152.396,313.054 153.017,312.979 153.599,312.829 C154.181,312.679 154.688,312.436 155.12,312.1 C155.552,311.764 155.894,311.341 156.146,310.831 C156.398,310.321 156.524,309.724 156.524,309.04 C156.524,308.356 156.398,307.759 156.146,307.249 C155.894,306.739 155.552,306.316 155.12,305.98 C154.688,305.644 154.181,305.392 153.599,305.224 C153.017,305.056 152.396,304.972 151.736,304.972 C151.076,304.972 150.455,305.056 149.873,305.224 C149.291,305.392 148.784,305.644 148.352,305.98 C147.92,306.316 147.578,306.739 147.326,307.249 C147.074,307.759 146.948,308.356 146.948,309.04 C146.948,309.724 147.074,310.321 147.326,310.831 C147.578,311.341 147.92,311.764 148.352,312.1 C148.784,312.436 149.291,312.679 149.873,312.829 C150.455,312.979 151.076,313.054 151.736,313.054 Z M151.736,311.776 C151.352,311.776 150.977,311.713 150.611,311.587 C150.245,311.461 149.918,311.281 149.63,311.047 C149.342,310.813 149.111,310.528 148.937,310.192 C148.763,309.856 148.676,309.472 148.676,309.04 C148.676,308.608 148.763,308.224 148.937,307.888 C149.111,307.552 149.342,307.267 149.63,307.033 C149.918,306.799 150.245,306.619 150.611,306.493 C150.977,306.367 151.352,306.304 151.736,306.304 C152.12,306.304 152.495,306.367 152.861,306.493 C153.227,306.619 153.554,306.799 153.842,307.033 C154.13,307.267 154.361,307.552 154.535,307.888 C154.709,308.224 154.796,308.608 154.796,309.04 C154.796,309.472 154.709,309.856 154.535,310.192 C154.361,310.528 154.13,310.813 153.842,311.047 C153.554,311.281 153.227,311.461 152.861,311.587 C152.495,311.713 152.12,311.776 151.736,311.776 Z M168.944,313 L168.944,312.676 C168.716,312.676 168.602,312.586 168.602,312.406 L168.602,312.406 L168.602,309.706 L171.356,306.142 C171.488,305.974 171.641,305.809 171.815,305.647 C171.989,305.485 172.148,305.404 172.292,305.404 L172.292,305.404 L172.292,305.08 L169.538,305.08 L169.538,305.404 C169.598,305.404 169.658,305.416 169.718,305.44 C169.778,305.464 169.808,305.524 169.808,305.62 C169.808,305.692 169.781,305.767 169.727,305.845 C169.673,305.923 169.592,306.04 169.484,306.196 L169.484,306.196 L167.882,308.428 L166.064,306.052 C166.004,305.968 165.95,305.896 165.902,305.836 C165.854,305.776 165.83,305.71 165.83,305.638 C165.83,305.566 165.866,305.509 165.938,305.467 C166.01,305.425 166.076,305.404 166.136,305.404 L166.136,305.404 L166.136,305.08 L163.166,305.08 L163.166,305.404 C163.274,305.404 163.388,305.428 163.508,305.476 C163.628,305.524 163.73,305.602 163.814,305.71 L163.814,305.71 L166.874,309.634 L166.874,312.406 C166.874,312.586 166.766,312.676 166.55,312.676 L166.55,312.676 L166.55,313 L168.944,313 Z M178.232,313.054 C178.892,313.054 179.513,312.979 180.095,312.829 C180.677,312.679 181.184,312.436 181.616,312.1 C182.048,311.764 182.39,311.341 182.642,310.831 C182.894,310.321 183.02,309.724 183.02,309.04 C183.02,308.356 182.894,307.759 182.642,307.249 C182.39,306.739 182.048,306.316 181.616,305.98 C181.184,305.644 180.677,305.392 180.095,305.224 C179.513,305.056 178.892,304.972 178.232,304.972 C177.572,304.972 176.951,305.056 176.369,305.224 C175.787,305.392 175.28,305.644 174.848,305.98 C174.416,306.316 174.074,306.739 173.822,307.249 C173.57,307.759 173.444,308.356 173.444,309.04 C173.444,309.724 173.57,310.321 173.822,310.831 C174.074,311.341 174.416,311.764 174.848,312.1 C175.28,312.436 175.787,312.679 176.369,312.829 C176.951,312.979 177.572,313.054 178.232,313.054 Z M178.232,311.776 C177.848,311.776 177.473,311.713 177.107,311.587 C176.741,311.461 176.414,311.281 176.126,311.047 C175.838,310.813 175.607,310.528 175.433,310.192 C175.259,309.856 175.172,309.472 175.172,309.04 C175.172,308.608 175.259,308.224 175.433,307.888 C175.607,307.552 175.838,307.267 176.126,307.033 C176.414,306.799 176.741,306.619 177.107,306.493 C177.473,306.367 177.848,306.304 178.232,306.304 C178.616,306.304 178.991,306.367 179.357,306.493 C179.723,306.619 180.05,306.799 180.338,307.033 C180.626,307.267 180.857,307.552 181.031,307.888 C181.205,308.224 181.292,308.608 181.292,309.04 C181.292,309.472 181.205,309.856 181.031,310.192 C180.857,310.528 180.626,310.813 180.338,311.047 C180.05,311.281 179.723,311.461 179.357,311.587 C178.991,311.713 178.616,311.776 178.232,311.776 Z M189.806,313.054 C190.526,313.054 191.153,312.979 191.687,312.829 C192.221,312.679 192.659,312.472 193.001,312.208 C193.343,311.944 193.598,311.641 193.766,311.299 C193.934,310.957 194.018,310.6 194.018,310.228 L194.018,310.228 L194.018,305.674 C194.018,305.494 194.15,305.404 194.414,305.404 L194.414,305.404 L194.414,305.08 L191.912,305.08 L191.912,305.404 C192.212,305.404 192.362,305.494 192.362,305.674 L192.362,305.674 L192.362,309.796 C192.362,310.372 192.152,310.834 191.732,311.182 C191.312,311.53 190.67,311.704 189.806,311.704 C188.942,311.704 188.3,311.53 187.88,311.182 C187.46,310.834 187.25,310.372 187.25,309.796 L187.25,309.796 L187.25,305.674 C187.25,305.494 187.382,305.404 187.646,305.404 L187.646,305.404 L187.646,305.08 L185.072,305.08 L185.072,305.404 C185.276,305.404 185.414,305.425 185.486,305.467 C185.558,305.509 185.594,305.578 185.594,305.674 L185.594,305.674 L185.594,310.228 C185.594,310.6 185.678,310.957 185.846,311.299 C186.014,311.641 186.269,311.944 186.611,312.208 C186.953,312.472 187.391,312.679 187.925,312.829 C188.459,312.979 189.086,313.054 189.806,313.054 Z M199.544,313 L199.544,312.676 C199.472,312.676 199.397,312.655 199.319,312.613 C199.241,312.571 199.202,312.502 199.202,312.406 L199.202,312.406 L199.202,309.832 L201.704,309.832 L203.126,311.956 C203.306,312.208 203.396,312.394 203.396,312.514 C203.396,312.622 203.318,312.676 203.162,312.676 L203.162,312.676 L203.162,313 L205.916,313 L205.916,312.676 C205.784,312.64 205.661,312.589 205.547,312.523 C205.433,312.457 205.328,312.358 205.232,312.226 L205.232,312.226 L203.468,309.652 C203.72,309.592 203.966,309.505 204.206,309.391 C204.446,309.277 204.665,309.127 204.863,308.941 C205.061,308.755 205.22,308.536 205.34,308.284 C205.46,308.032 205.52,307.744 205.52,307.42 C205.52,306.568 205.22,305.965 204.62,305.611 C204.02,305.257 203.186,305.08 202.118,305.08 L202.118,305.08 L197.15,305.08 L197.15,305.404 C197.366,305.404 197.474,305.494 197.474,305.674 L197.474,305.674 L197.474,312.406 C197.474,312.586 197.366,312.676 197.15,312.676 L197.15,312.676 L197.15,313 L199.544,313 Z M202.082,308.5 L199.238,308.5 L199.238,306.412 L202.082,306.412 C202.694,306.412 203.141,306.499 203.423,306.673 C203.705,306.847 203.846,307.084 203.846,307.384 C203.846,308.128 203.258,308.5 202.082,308.5 L202.082,308.5 Z M74.354,331.054 C74.762,331.054 75.197,331.024 75.659,330.964 C76.121,330.904 76.544,330.778 76.928,330.586 C77.312,330.394 77.633,330.13 77.891,329.794 C78.149,329.458 78.278,329.026 78.278,328.498 C78.278,327.97 78.131,327.556 77.837,327.256 C77.543,326.956 77.174,326.728 76.73,326.572 C76.286,326.416 75.806,326.305 75.29,326.239 C74.774,326.173 74.294,326.107 73.85,326.041 C73.406,325.975 73.037,325.885 72.743,325.771 C72.449,325.657 72.302,325.468 72.302,325.204 C72.302,325.036 72.35,324.895 72.446,324.781 C72.542,324.667 72.674,324.574 72.842,324.502 C73.01,324.43 73.202,324.379 73.418,324.349 C73.634,324.319 73.862,324.304 74.102,324.304 C74.726,324.304 75.29,324.376 75.794,324.52 C76.298,324.664 76.67,324.838 76.91,325.042 C77.006,325.114 77.06,325.186 77.072,325.258 L77.072,325.258 L77.108,325.474 L77.432,325.582 L78.332,323.89 L78.134,323.692 C78.062,323.728 78.002,323.761 77.954,323.791 C77.906,323.821 77.834,323.836 77.738,323.836 C77.654,323.836 77.525,323.791 77.351,323.701 C77.177,323.611 76.952,323.512 76.676,323.404 C76.4,323.296 76.061,323.197 75.659,323.107 C75.257,323.017 74.774,322.972 74.21,322.972 C73.058,322.972 72.164,323.2 71.528,323.656 C70.892,324.112 70.574,324.724 70.574,325.492 C70.574,326.008 70.721,326.407 71.015,326.689 C71.309,326.971 71.678,327.187 72.122,327.337 C72.566,327.487 73.046,327.595 73.562,327.661 C74.078,327.727 74.558,327.793 75.002,327.859 C75.446,327.925 75.815,328.018 76.109,328.138 C76.403,328.258 76.55,328.45 76.55,328.714 C76.55,328.942 76.466,329.125 76.298,329.263 C76.13,329.401 75.926,329.509 75.686,329.587 C75.446,329.665 75.203,329.716 74.957,329.74 C74.711,329.764 74.504,329.776 74.336,329.776 C74.156,329.776 73.907,329.746 73.589,329.686 C73.271,329.626 72.953,329.545 72.635,329.443 C72.317,329.341 72.044,329.215 71.816,329.065 C71.588,328.915 71.474,328.75 71.474,328.57 C71.474,328.51 71.477,328.453 71.483,328.399 C71.489,328.345 71.492,328.294 71.492,328.246 L71.492,328.246 L71.15,328.156 L70.322,330.172 L70.574,330.352 C70.634,330.28 70.706,330.244 70.79,330.244 C70.838,330.244 70.976,330.289 71.204,330.379 C71.432,330.469 71.711,330.565 72.041,330.667 C72.371,330.769 72.737,330.859 73.139,330.937 C73.541,331.015 73.946,331.054 74.354,331.054 Z M85.712,331 L85.712,330.676 C85.484,330.676 85.37,330.586 85.37,330.406 L85.37,330.406 L85.37,327.706 L88.124,324.142 C88.256,323.974 88.409,323.809 88.583,323.647 C88.757,323.485 88.916,323.404 89.06,323.404 L89.06,323.404 L89.06,323.08 L86.306,323.08 L86.306,323.404 C86.366,323.404 86.426,323.416 86.486,323.44 C86.546,323.464 86.576,323.524 86.576,323.62 C86.576,323.692 86.549,323.767 86.495,323.845 C86.441,323.923 86.36,324.04 86.252,324.196 L86.252,324.196 L84.65,326.428 L82.832,324.052 C82.772,323.968 82.718,323.896 82.67,323.836 C82.622,323.776 82.598,323.71 82.598,323.638 C82.598,323.566 82.634,323.509 82.706,323.467 C82.778,323.425 82.844,323.404 82.904,323.404 L82.904,323.404 L82.904,323.08 L79.934,323.08 L79.934,323.404 C80.042,323.404 80.156,323.428 80.276,323.476 C80.396,323.524 80.498,323.602 80.582,323.71 L80.582,323.71 L83.642,327.634 L83.642,330.406 C83.642,330.586 83.534,330.676 83.318,330.676 L83.318,330.676 L83.318,331 L85.712,331 Z M93.218,331 L93.218,330.676 C93.014,330.676 92.912,330.586 92.912,330.406 L92.912,330.406 L92.912,325.348 L92.93,325.348 L95.828,331 L95.972,331 L99.032,325.348 L99.068,325.348 L99.068,330.406 C99.104,330.586 98.996,330.676 98.744,330.676 L98.744,330.676 L98.744,331 L100.832,331 L100.832,330.676 C100.772,330.676 100.715,330.655 100.661,330.613 C100.607,330.571 100.58,330.502 100.58,330.406 L100.58,330.406 L100.58,323.638 C100.58,323.542 100.607,323.479 100.661,323.449 C100.715,323.419 100.772,323.404 100.832,323.404 L100.832,323.404 L100.832,323.08 L98.294,323.08 L98.294,323.404 C98.39,323.404 98.438,323.458 98.438,323.566 C98.438,323.602 98.414,323.665 98.366,323.755 C98.318,323.845 98.252,323.962 98.168,324.106 L98.168,324.106 L95.954,328.138 L93.758,324.088 C93.674,323.944 93.611,323.833 93.569,323.755 C93.527,323.677 93.506,323.614 93.506,323.566 C93.506,323.458 93.566,323.404 93.686,323.404 L93.686,323.404 L93.686,323.08 L91.184,323.08 L91.184,323.404 C91.268,323.404 91.325,323.422 91.355,323.458 C91.385,323.494 91.4,323.596 91.4,323.764 L91.4,323.764 L91.4,330.352 C91.4,330.484 91.379,330.568 91.337,330.604 C91.295,330.64 91.244,330.664 91.184,330.676 L91.184,330.676 L91.184,331 L93.218,331 Z M106.268,331 L106.268,330.676 C106.016,330.676 105.89,330.586 105.89,330.406 L105.89,330.406 L105.89,327.706 L108.95,327.706 C109.922,327.706 110.651,327.541 111.137,327.211 C111.623,326.881 111.866,326.284 111.866,325.42 C111.866,324.556 111.623,323.95 111.137,323.602 C110.651,323.254 109.922,323.08 108.95,323.08 L108.95,323.08 L103.712,323.08 L103.712,323.404 C104.012,323.404 104.162,323.494 104.162,323.674 L104.162,323.674 L104.162,330.406 C104.162,330.586 104.012,330.676 103.712,330.676 L103.712,330.676 L103.712,331 L106.268,331 Z M108.914,326.374 L105.89,326.374 L105.89,324.412 L108.914,324.412 C109.262,324.412 109.553,324.487 109.787,324.637 C110.021,324.787 110.138,325.048 110.138,325.42 C110.138,325.804 110.021,326.059 109.787,326.185 C109.553,326.311 109.262,326.374 108.914,326.374 L108.914,326.374 Z M118.202,331 L118.202,330.676 C117.986,330.676 117.878,330.586 117.878,330.406 L117.878,330.406 L117.878,324.412 L120.218,324.412 C120.314,324.412 120.404,324.436 120.488,324.484 C120.572,324.532 120.614,324.61 120.614,324.718 L120.614,324.718 L120.938,324.718 L120.938,322.648 L120.614,322.648 C120.614,322.816 120.572,322.93 120.488,322.99 C120.404,323.05 120.314,323.08 120.218,323.08 L120.218,323.08 L113.81,323.08 C113.714,323.08 113.624,323.05 113.54,322.99 C113.456,322.93 113.414,322.816 113.414,322.648 L113.414,322.648 L113.09,322.648 L113.09,324.718 L113.414,324.718 C113.414,324.61 113.456,324.532 113.54,324.484 C113.624,324.436 113.714,324.412 113.81,324.412 L113.81,324.412 L116.15,324.412 L116.15,330.406 C116.15,330.502 116.12,330.571 116.06,330.613 C116,330.655 115.94,330.676 115.88,330.676 L115.88,330.676 L115.88,331 L118.202,331 Z M127.004,331.054 C127.664,331.054 128.285,330.979 128.867,330.829 C129.449,330.679 129.956,330.436 130.388,330.1 C130.82,329.764 131.162,329.341 131.414,328.831 C131.666,328.321 131.792,327.724 131.792,327.04 C131.792,326.356 131.666,325.759 131.414,325.249 C131.162,324.739 130.82,324.316 130.388,323.98 C129.956,323.644 129.449,323.392 128.867,323.224 C128.285,323.056 127.664,322.972 127.004,322.972 C126.344,322.972 125.723,323.056 125.141,323.224 C124.559,323.392 124.052,323.644 123.62,323.98 C123.188,324.316 122.846,324.739 122.594,325.249 C122.342,325.759 122.216,326.356 122.216,327.04 C122.216,327.724 122.342,328.321 122.594,328.831 C122.846,329.341 123.188,329.764 123.62,330.1 C124.052,330.436 124.559,330.679 125.141,330.829 C125.723,330.979 126.344,331.054 127.004,331.054 Z M127.004,329.776 C126.62,329.776 126.245,329.713 125.879,329.587 C125.513,329.461 125.186,329.281 124.898,329.047 C124.61,328.813 124.379,328.528 124.205,328.192 C124.031,327.856 123.944,327.472 123.944,327.04 C123.944,326.608 124.031,326.224 124.205,325.888 C124.379,325.552 124.61,325.267 124.898,325.033 C125.186,324.799 125.513,324.619 125.879,324.493 C126.245,324.367 126.62,324.304 127.004,324.304 C127.388,324.304 127.763,324.367 128.129,324.493 C128.495,324.619 128.822,324.799 129.11,325.033 C129.398,325.267 129.629,325.552 129.803,325.888 C129.977,326.224 130.064,326.608 130.064,327.04 C130.064,327.472 129.977,327.856 129.803,328.192 C129.629,328.528 129.398,328.813 129.11,329.047 C128.822,329.281 128.495,329.461 128.129,329.587 C127.763,329.713 127.388,329.776 127.004,329.776 Z M136.22,331 L136.22,330.676 C136.016,330.676 135.914,330.586 135.914,330.406 L135.914,330.406 L135.914,325.348 L135.932,325.348 L138.83,331 L138.974,331 L142.034,325.348 L142.07,325.348 L142.07,330.406 C142.106,330.586 141.998,330.676 141.746,330.676 L141.746,330.676 L141.746,331 L143.834,331 L143.834,330.676 C143.774,330.676 143.717,330.655 143.663,330.613 C143.609,330.571 143.582,330.502 143.582,330.406 L143.582,330.406 L143.582,323.638 C143.582,323.542 143.609,323.479 143.663,323.449 C143.717,323.419 143.774,323.404 143.834,323.404 L143.834,323.404 L143.834,323.08 L141.296,323.08 L141.296,323.404 C141.392,323.404 141.44,323.458 141.44,323.566 C141.44,323.602 141.416,323.665 141.368,323.755 C141.32,323.845 141.254,323.962 141.17,324.106 L141.17,324.106 L138.956,328.138 L136.76,324.088 C136.676,323.944 136.613,323.833 136.571,323.755 C136.529,323.677 136.508,323.614 136.508,323.566 C136.508,323.458 136.568,323.404 136.688,323.404 L136.688,323.404 L136.688,323.08 L134.186,323.08 L134.186,323.404 C134.27,323.404 134.327,323.422 134.357,323.458 C134.387,323.494 134.402,323.596 134.402,323.764 L134.402,323.764 L134.402,330.352 C134.402,330.484 134.381,330.568 134.339,330.604 C134.297,330.64 134.246,330.664 134.186,330.676 L134.186,330.676 L134.186,331 L136.22,331 Z M154.76,331 L154.76,330.676 C154.508,330.676 154.382,330.586 154.382,330.406 L154.382,330.406 L154.382,327.706 L157.442,327.706 C158.414,327.706 159.143,327.541 159.629,327.211 C160.115,326.881 160.358,326.284 160.358,325.42 C160.358,324.556 160.115,323.95 159.629,323.602 C159.143,323.254 158.414,323.08 157.442,323.08 L157.442,323.08 L152.204,323.08 L152.204,323.404 C152.504,323.404 152.654,323.494 152.654,323.674 L152.654,323.674 L152.654,330.406 C152.654,330.586 152.504,330.676 152.204,330.676 L152.204,330.676 L152.204,331 L154.76,331 Z M157.406,326.374 L154.382,326.374 L154.382,324.412 L157.406,324.412 C157.754,324.412 158.045,324.487 158.279,324.637 C158.513,324.787 158.63,325.048 158.63,325.42 C158.63,325.804 158.513,326.059 158.279,326.185 C158.045,326.311 157.754,326.374 157.406,326.374 L157.406,326.374 Z M165.362,331 L165.362,330.676 C165.026,330.676 164.858,330.586 164.858,330.406 L164.858,330.406 L164.858,323.674 C164.858,323.494 165.026,323.404 165.362,323.404 L165.362,323.404 L165.362,323.08 L162.626,323.08 L162.626,323.404 C162.818,323.404 162.95,323.425 163.022,323.467 C163.094,323.509 163.13,323.578 163.13,323.674 L163.13,323.674 L163.13,330.406 C163.13,330.502 163.094,330.571 163.022,330.613 C162.95,330.655 162.818,330.676 162.626,330.676 L162.626,330.676 L162.626,331 L165.362,331 Z M176.252,331.18 L176.252,329.29 L175.928,329.29 C175.928,329.41 175.88,329.503 175.784,329.569 C175.688,329.635 175.568,329.668 175.424,329.668 L175.424,329.668 L170.564,329.668 L170.564,323.674 C170.564,323.494 170.702,323.404 170.978,323.404 L170.978,323.404 L170.978,323.08 L168.368,323.08 L168.368,323.404 C168.68,323.404 168.836,323.494 168.836,323.674 L168.836,323.674 L168.836,330.406 C168.836,330.586 168.68,330.676 168.368,330.676 L168.368,330.676 L168.368,331 L175.424,331 C175.568,331 175.688,331.006 175.784,331.018 C175.88,331.03 175.928,331.084 175.928,331.18 L175.928,331.18 L176.252,331.18 Z M185.918,331.198 L185.918,329.308 L185.594,329.308 C185.594,329.416 185.546,329.503 185.45,329.569 C185.354,329.635 185.234,329.668 185.09,329.668 L185.09,329.668 L180.482,329.668 L180.482,327.544 L183.11,327.544 C183.35,327.544 183.536,327.559 183.668,327.589 C183.8,327.619 183.848,327.7 183.812,327.832 L183.812,327.832 L184.172,327.832 L184.172,325.924 L183.848,325.924 C183.848,326.056 183.8,326.137 183.704,326.167 C183.608,326.197 183.458,326.212 183.254,326.212 L183.254,326.212 L180.482,326.212 L180.482,324.412 L184.874,324.412 C185.246,324.412 185.432,324.526 185.432,324.754 L185.432,324.754 L185.756,324.754 L185.756,322.756 L185.432,322.756 C185.432,322.972 185.246,323.08 184.874,323.08 L184.874,323.08 L178.484,323.08 L178.484,323.404 C178.544,323.404 178.604,323.425 178.664,323.467 C178.724,323.509 178.754,323.578 178.754,323.674 L178.754,323.674 L178.754,330.406 C178.754,330.502 178.724,330.571 178.664,330.613 C178.604,330.655 178.544,330.676 178.484,330.676 L178.484,330.676 L178.484,331 L185.09,331 C185.234,331 185.354,331.006 185.45,331.018 C185.546,331.03 185.594,331.09 185.594,331.198 L185.594,331.198 L185.918,331.198 Z M189.752,331.054 C190.1,331.054 190.4,330.937 190.652,330.703 C190.904,330.469 191.03,330.178 191.03,329.83 C191.03,329.482 190.904,329.182 190.652,328.93 C190.4,328.678 190.1,328.552 189.752,328.552 C189.404,328.552 189.104,328.678 188.852,328.93 C188.6,329.182 188.474,329.482 188.474,329.83 C188.474,330.178 188.6,330.469 188.852,330.703 C189.104,330.937 189.404,331.054 189.752,331.054 Z" id="Didyoutryclenching?Addthistoyoursymptompile." fill="#000000" fill-rule="nonzero"></path>
    </g>
</svg>