<?xml version="1.0" encoding="UTF-8"?>
<svg width="262px" height="360px" viewBox="0 0 262 360" version="1.1" xmlns="http://www.w3.org/2000/svg" xmlns:xlink="http://www.w3.org/1999/xlink">
    <title>Chest Pain 1</title>
    <g id="Chest-Pain-1" stroke="none" stroke-width="1" fill="none" fill-rule="evenodd">
        <g id="Group" transform="translate(9.000000, 9.000000)" fill="#FFFFFF" stroke="#000000" stroke-width="3">
            <g id="Rectangle">
                <rect x="1.5" y="1.5" width="239" height="337" rx="8"></rect>
            </g>
        </g>
        <path d="M213.652,30.072 C214.292,30.072 214.976,30.02 215.704,29.916 C216.432,29.812 217.1,29.604 217.708,29.292 C218.316,28.98 218.824,28.56 219.232,28.032 C219.64,27.504 219.844,26.832 219.844,26.016 C219.844,25.296 219.624,24.7 219.184,24.228 C218.744,23.756 218.18,23.44 217.492,23.28 L217.492,23.28 L217.492,23.232 C218.068,23.104 218.524,22.796 218.86,22.308 C219.196,21.82 219.364,21.288 219.364,20.712 C219.364,20.088 219.2,19.556 218.872,19.116 C218.544,18.676 218.12,18.316 217.6,18.036 C217.08,17.756 216.504,17.552 215.872,17.424 C215.24,17.296 214.612,17.232 213.988,17.232 C213.06,17.232 212.272,17.324 211.624,17.508 C210.976,17.692 210.444,17.896 210.028,18.12 C209.612,18.344 209.296,18.548 209.08,18.732 C208.864,18.916 208.716,19.008 208.636,19.008 C208.492,19.008 208.356,18.968 208.228,18.888 L208.228,18.888 L207.94,19.104 L209.86,21.552 L210.076,21.408 C210.044,21.328 210.02,21.244 210.004,21.156 C209.988,21.068 209.98,20.992 209.98,20.928 C209.98,20.736 210.1,20.544 210.34,20.352 C210.58,20.16 210.884,19.984 211.252,19.824 C211.62,19.664 212.028,19.536 212.476,19.44 C212.924,19.344 213.364,19.296 213.796,19.296 C214.164,19.296 214.528,19.316 214.888,19.356 C215.248,19.396 215.576,19.472 215.872,19.584 C216.168,19.696 216.408,19.852 216.592,20.052 C216.776,20.252 216.868,20.512 216.868,20.832 C216.868,21.168 216.764,21.448 216.556,21.672 C216.348,21.896 216.096,22.072 215.8,22.2 C215.504,22.328 215.188,22.416 214.852,22.464 C214.516,22.512 214.22,22.536 213.964,22.536 C213.58,22.536 213.232,22.484 212.92,22.38 C212.608,22.276 212.436,22.064 212.404,21.744 L212.404,21.744 L212.116,21.744 L212.116,25.008 L212.404,25.008 C212.5,24.72 212.688,24.54 212.968,24.468 C213.248,24.396 213.58,24.36 213.964,24.36 C214.236,24.36 214.56,24.38 214.936,24.42 C215.312,24.46 215.668,24.544 216.004,24.672 C216.34,24.8 216.624,24.98 216.856,25.212 C217.088,25.444 217.204,25.752 217.204,26.136 C217.204,26.536 217.084,26.86 216.844,27.108 C216.604,27.356 216.312,27.552 215.968,27.696 C215.624,27.84 215.256,27.94 214.864,27.996 C214.472,28.052 214.132,28.08 213.844,28.08 C213.476,28.08 213.024,28.028 212.488,27.924 C211.952,27.82 211.44,27.668 210.952,27.468 C210.464,27.268 210.044,27.024 209.692,26.736 C209.34,26.448 209.164,26.12 209.164,25.752 L209.164,25.752 L209.164,25.584 C209.164,25.504 209.172,25.448 209.188,25.416 L209.188,25.416 L208.924,25.272 L207.532,28.728 L207.748,28.8 C207.812,28.768 207.872,28.736 207.928,28.704 C207.984,28.672 208.052,28.656 208.132,28.656 C208.26,28.656 208.48,28.732 208.792,28.884 C209.104,29.036 209.5,29.204 209.98,29.388 C210.46,29.572 211.012,29.732 211.636,29.868 C212.26,30.004 212.932,30.072 213.652,30.072 Z" id="3" fill="#000000" fill-rule="nonzero"></path>
        <g id="Face" transform="translate(225.000000, 15.000000)">
            <circle id="Oval" stroke="#000000" fill="#FFFFFF" cx="9.5" cy="9.5" r="9"></circle>
            <circle id="Oval" fill="#000000" cx="5" cy="8" r="1"></circle>
            <circle id="Oval-Copy" fill="#000000" cx="12" cy="8" r="1"></circle>
            <line x1="12.0789474" y1="13.9090909" x2="14.5" y2="11.5" id="Line-4" stroke="#000000" stroke-linecap="round"></line>
            <path d="M3,5.89285714 C3.41025641,5.96428571 3.76923077,6 4.07692308,6 C4.38461538,6 5.35897436,5.33333333 7,4" id="Line-2" stroke="#000000"></path>
            <path d="M6,15 C6.96078431,14.3333333 8.07598039,14 9.34558824,14 C10.6151961,14 11.8333333,14.3333333 13,15" id="Line" stroke="#000000" stroke-linecap="round" stroke-linejoin="round"></path>
            <path d="M11.3197366,4.68245322 C11.585843,4.80663622 11.7912611,4.92388646 11.9359908,5.03420394 C12.548667,5.50120471 13.1333088,5.70898724 13.3155349,5.80010028 C13.5440857,5.91437569 13.8101922,6.00751295 14.1138542,6.07951204" id="Line-3" stroke="#000000" stroke-linecap="square" transform="translate(12.716795, 5.380983) rotate(-3.000000) translate(-12.716795, -5.380983) "></path>
            <path d="M2.999,9.347 L3.01687864,9.39698204 C3.09438102,9.62639002 3.1880913,9.89570266 3.30282211,10.2112791 C3.48139895,10.7024692 3.54804655,11.0169045 3.47980817,11.2204078 C3.41244402,11.421304 3.17143148,11.4011566 3.01518318,11.4416373 L3.01518318,11.4416373 L2.86575433,11.4813457 C2.78836954,11.5029149 2.70310591,11.5126925 2.63007237,11.4810832 C2.58941161,11.463485 2.56030088,11.4264037 2.54036126,11.376794 C2.4446463,11.1386559 2.49784548,10.759559 2.69717789,10.2112791 C2.8119087,9.89570266 2.90561898,9.62639002 2.98312136,9.39698204 L2.999,9.347 Z" id="Oval" stroke="#000000"></path>
            <path d="M16,6.347 L16.0168786,6.39698204 C16.094381,6.62639002 16.1880913,6.89570266 16.3028221,7.21127907 C16.481399,7.70246915 16.5480465,8.01690453 16.4798082,8.22040783 C16.412444,8.42130397 16.1714315,8.40115659 16.0151832,8.44163726 L16.0151832,8.44163726 L15.8657543,8.48134574 C15.7883695,8.50291486 15.7031059,8.51269255 15.6300724,8.48108319 C15.5894116,8.46348497 15.5603009,8.42640366 15.5403613,8.37679403 C15.4446463,8.13865595 15.4978455,7.75955902 15.6971779,7.21127907 C15.8119087,6.89570266 15.905619,6.62639002 15.9831214,6.39698204 L16,6.347 Z" id="Oval-Copy-2" stroke="#000000"></path>
        </g>
        <rect id="Rectangle" stroke="#000000" stroke-width="3" x="17.5" y="251.5" width="225" height="90" rx="8"></rect>
        <path d="M45.442,61.108 C46.594,61.108 47.698,60.976 48.754,60.712 C49.81,60.448 50.752,60.136 51.58,59.776 C52.408,59.416 53.092,59.092 53.632,58.804 C54.172,58.516 54.514,58.372 54.658,58.372 C54.73,58.372 54.796,58.378 54.856,58.39 C54.916,58.402 54.982,58.408 55.054,58.408 L55.054,58.408 L55.342,58.12 L52.966,54.304 L52.462,54.592 C52.558,54.712 52.606,54.856 52.606,55.024 C52.606,55.336 52.372,55.666 51.904,56.014 C51.436,56.362 50.854,56.674 50.158,56.95 C49.462,57.226 48.694,57.454 47.854,57.634 C47.014,57.814 46.21,57.904 45.442,57.904 C44.434,57.904 43.468,57.76 42.544,57.472 C41.62,57.184 40.816,56.764 40.132,56.212 C39.448,55.66 38.902,54.982 38.494,54.178 C38.086,53.374 37.882,52.456 37.882,51.424 C37.882,50.392 38.086,49.474 38.494,48.67 C38.902,47.866 39.448,47.188 40.132,46.636 C40.816,46.084 41.62,45.664 42.544,45.376 C43.468,45.088 44.434,44.944 45.442,44.944 C46.042,44.944 46.696,45.016 47.404,45.16 C48.112,45.304 48.784,45.484 49.42,45.7 C50.056,45.916 50.59,46.162 51.022,46.438 C51.454,46.714 51.694,46.984 51.742,47.248 C51.766,47.344 51.784,47.428 51.796,47.5 C51.808,47.572 51.814,47.644 51.814,47.716 L51.814,47.716 L52.174,47.968 L54.982,43.612 L54.442,43.18 C54.394,43.252 54.328,43.348 54.244,43.468 C54.16,43.588 54.058,43.648 53.938,43.648 C53.842,43.648 53.578,43.552 53.146,43.36 C52.714,43.168 52.126,42.964 51.382,42.748 C50.638,42.532 49.768,42.328 48.772,42.136 C47.776,41.944 46.666,41.848 45.442,41.848 C43.93,41.848 42.478,42.052 41.086,42.46 C39.694,42.868 38.464,43.48 37.396,44.296 C36.328,45.112 35.482,46.126 34.858,47.338 C34.234,48.55 33.922,49.948 33.922,51.532 C33.922,53.14 34.234,54.544 34.858,55.744 C35.482,56.944 36.328,57.946 37.396,58.75 C38.464,59.554 39.694,60.148 41.086,60.532 C42.478,60.916 43.93,61.108 45.442,61.108 Z M65.674,61 L65.674,60.352 C65.53,60.352 65.404,60.31 65.296,60.226 C65.188,60.142 65.134,60.004 65.134,59.812 L65.134,59.812 L65.134,54.376 L74.782,54.376 L74.782,59.812 C74.782,60.004 74.728,60.142 74.62,60.226 C74.512,60.31 74.386,60.352 74.242,60.352 L74.242,60.352 L74.242,61 L78.778,61 L78.778,60.352 C78.634,60.352 78.508,60.31 78.4,60.226 C78.292,60.142 78.238,60.004 78.238,59.812 L78.238,59.812 L78.238,46.348 C78.238,46.156 78.292,46.018 78.4,45.934 C78.508,45.85 78.634,45.808 78.778,45.808 L78.778,45.808 L78.778,45.16 L74.242,45.16 L74.242,45.808 C74.386,45.808 74.512,45.85 74.62,45.934 C74.728,46.018 74.782,46.156 74.782,46.348 L74.782,46.348 L74.782,51.424 L65.134,51.424 L65.134,46.348 C65.134,46.156 65.188,46.018 65.296,45.934 C65.404,45.85 65.53,45.808 65.674,45.808 L65.674,45.808 L65.674,45.16 L61.138,45.16 L61.138,45.808 C61.282,45.808 61.408,45.85 61.516,45.934 C61.624,46.018 61.678,46.156 61.678,46.348 L61.678,46.348 L61.678,59.812 C61.678,60.004 61.624,60.142 61.516,60.226 C61.408,60.31 61.282,60.352 61.138,60.352 L61.138,60.352 L61.138,61 L65.674,61 Z M99.802,61.396 L99.802,57.616 L99.154,57.616 C99.154,57.832 99.058,58.006 98.866,58.138 C98.674,58.27 98.434,58.336 98.146,58.336 L98.146,58.336 L88.93,58.336 L88.93,54.088 L94.186,54.088 C94.666,54.088 95.038,54.118 95.302,54.178 C95.566,54.238 95.662,54.4 95.59,54.664 L95.59,54.664 L96.31,54.664 L96.31,50.848 L95.662,50.848 C95.662,51.112 95.566,51.274 95.374,51.334 C95.182,51.394 94.882,51.424 94.474,51.424 L94.474,51.424 L88.93,51.424 L88.93,47.824 L97.714,47.824 C98.458,47.824 98.83,48.052 98.83,48.508 L98.83,48.508 L99.478,48.508 L99.478,44.512 L98.83,44.512 C98.83,44.944 98.458,45.16 97.714,45.16 L97.714,45.16 L84.934,45.16 L84.934,45.808 C85.054,45.808 85.174,45.85 85.294,45.934 C85.414,46.018 85.474,46.156 85.474,46.348 L85.474,46.348 L85.474,59.812 C85.474,60.004 85.414,60.142 85.294,60.226 C85.174,60.31 85.054,60.352 84.934,60.352 L84.934,60.352 L84.934,61 L98.146,61 C98.434,61 98.674,61.012 98.866,61.036 C99.058,61.06 99.154,61.18 99.154,61.396 L99.154,61.396 L99.802,61.396 Z M111.718,61.108 C112.534,61.108 113.404,61.048 114.328,60.928 C115.252,60.808 116.098,60.556 116.866,60.172 C117.634,59.788 118.276,59.26 118.792,58.588 C119.308,57.916 119.566,57.052 119.566,55.996 C119.566,54.94 119.272,54.112 118.684,53.512 C118.096,52.912 117.358,52.456 116.47,52.144 C115.582,51.832 114.622,51.61 113.59,51.478 C112.558,51.346 111.598,51.214 110.71,51.082 C109.822,50.95 109.084,50.77 108.496,50.542 C107.908,50.314 107.614,49.936 107.614,49.408 C107.614,49.072 107.71,48.79 107.902,48.562 C108.094,48.334 108.358,48.148 108.694,48.004 C109.03,47.86 109.414,47.758 109.846,47.698 C110.278,47.638 110.734,47.608 111.214,47.608 C112.462,47.608 113.59,47.752 114.598,48.04 C115.606,48.328 116.35,48.676 116.83,49.084 C117.022,49.228 117.13,49.372 117.154,49.516 C117.178,49.66 117.202,49.804 117.226,49.948 L117.226,49.948 L117.874,50.164 L119.674,46.78 L119.278,46.384 C119.134,46.456 119.014,46.522 118.918,46.582 C118.822,46.642 118.678,46.672 118.486,46.672 C118.318,46.672 118.06,46.582 117.712,46.402 L117.5295,46.3105 C117.211167,46.1555 116.822,45.988 116.362,45.808 C115.81,45.592 115.132,45.394 114.328,45.214 C113.524,45.034 112.558,44.944 111.43,44.944 C109.126,44.944 107.338,45.4 106.066,46.312 C104.794,47.224 104.158,48.448 104.158,49.984 C104.158,51.016 104.452,51.814 105.04,52.378 C105.628,52.942 106.366,53.374 107.254,53.674 C108.142,53.974 109.102,54.19 110.134,54.322 C111.166,54.454 112.126,54.586 113.014,54.718 C113.902,54.85 114.64,55.036 115.228,55.276 C115.816,55.516 116.11,55.9 116.11,56.428 C116.11,56.884 115.942,57.25 115.606,57.526 C115.27,57.802 114.862,58.018 114.382,58.174 C113.902,58.33 113.416,58.432 112.924,58.48 C112.432,58.528 112.018,58.552 111.682,58.552 C111.322,58.552 110.824,58.492 110.188,58.372 C109.552,58.252 108.916,58.09 108.28,57.886 C107.644,57.682 107.098,57.43 106.642,57.13 C106.186,56.83 105.958,56.5 105.958,56.14 C105.958,56.02 105.964,55.906 105.976,55.798 C105.988,55.69 105.994,55.588 105.994,55.492 L105.994,55.492 L105.31,55.312 L103.654,59.344 L104.158,59.704 C104.278,59.56 104.422,59.488 104.59,59.488 C104.686,59.488 104.962,59.578 105.418,59.758 C105.874,59.938 106.432,60.13 107.092,60.334 C107.752,60.538 108.484,60.718 109.288,60.874 C110.092,61.03 110.902,61.108 111.718,61.108 Z M133.39,61 L133.39,60.352 C132.958,60.352 132.742,60.172 132.742,59.812 L132.742,59.812 L132.742,47.824 L137.422,47.824 C137.614,47.824 137.794,47.872 137.962,47.968 C138.13,48.064 138.214,48.22 138.214,48.436 L138.214,48.436 L138.862,48.436 L138.862,44.296 L138.214,44.296 C138.214,44.632 138.13,44.86 137.962,44.98 C137.794,45.1 137.614,45.16 137.422,45.16 L137.422,45.16 L124.606,45.16 C124.414,45.16 124.234,45.1 124.066,44.98 C123.898,44.86 123.814,44.632 123.814,44.296 L123.814,44.296 L123.166,44.296 L123.166,48.436 L123.814,48.436 C123.814,48.22 123.898,48.064 124.066,47.968 C124.234,47.872 124.414,47.824 124.606,47.824 L124.606,47.824 L129.286,47.824 L129.286,59.812 C129.286,60.004 129.226,60.142 129.106,60.226 C128.986,60.31 128.866,60.352 128.746,60.352 L128.746,60.352 L128.746,61 L133.39,61 Z M160.318,61 L160.318,60.352 C159.55,60.352 159.166,60.136 159.166,59.704 L159.166,59.704 L159.166,53.296 L166.402,53.296 C168.706,53.296 170.518,52.87 171.838,52.018 C173.158,51.166 173.818,49.72 173.818,47.68 C173.818,45.64 173.158,44.194 171.838,43.342 C170.518,42.49 168.706,42.064 166.402,42.064 L166.402,42.064 L153.73,42.064 L153.73,42.712 C154.618,42.712 155.062,42.928 155.062,43.36 L155.062,43.36 L155.062,59.704 C155.062,60.136 154.618,60.352 153.73,60.352 L153.73,60.352 L153.73,61 L160.318,61 Z M166.834,49.984 L159.166,49.984 L159.166,45.376 L166.834,45.376 C167.626,45.376 168.304,45.532 168.868,45.844 C169.432,46.156 169.714,46.768 169.714,47.68 C169.714,48.592 169.432,49.204 168.868,49.516 C168.304,49.828 167.626,49.984 166.834,49.984 L166.834,49.984 Z M180.37,61 L180.37,60.352 C180.154,60.352 179.986,60.328 179.866,60.28 C179.746,60.232 179.686,60.112 179.686,59.92 C179.686,59.8 179.716,59.662 179.776,59.506 C179.836,59.35 179.914,59.176 180.01,58.984 L180.01,58.984 L181.018,57.04 L188.722,57.04 L189.694,59.092 C189.766,59.284 189.826,59.44 189.874,59.56 C189.922,59.68 189.946,59.812 189.946,59.956 C189.946,60.148 189.88,60.28 189.748,60.352 C189.616,60.424 189.49,60.46 189.37,60.46 L189.37,60.46 L189.37,61 L194.482,61 L194.482,60.352 C194.314,60.304 194.158,60.232 194.014,60.136 C193.87,60.04 193.738,59.884 193.618,59.668 L193.618,59.668 L187.786,47.428 C187.666,47.164 187.552,46.93 187.444,46.726 C187.336,46.522 187.282,46.348 187.282,46.204 C187.282,46.036 187.324,45.94 187.408,45.916 C187.492,45.892 187.57,45.856 187.642,45.808 L187.642,45.808 L187.642,45.16 L182.206,45.16 L182.206,45.808 C182.278,45.856 182.344,45.898 182.404,45.934 C182.464,45.97 182.494,46.06 182.494,46.204 C182.494,46.396 182.452,46.594 182.368,46.798 C182.284,47.002 182.17,47.272 182.026,47.608 L182.026,47.608 L176.662,59.308 C176.566,59.5 176.428,59.71 176.248,59.938 C176.068,60.166 175.834,60.304 175.546,60.352 L175.546,60.352 L175.546,61 L180.37,61 Z M187.57,54.376 L182.098,54.376 L184.654,48.328 L187.57,54.376 Z M203.734,61 L203.734,60.352 C203.062,60.352 202.726,60.172 202.726,59.812 L202.726,59.812 L202.726,46.348 C202.726,45.988 203.062,45.808 203.734,45.808 L203.734,45.808 L203.734,45.16 L198.262,45.16 L198.262,45.808 C198.646,45.808 198.91,45.85 199.054,45.934 C199.198,46.018 199.27,46.156 199.27,46.348 L199.27,46.348 L199.27,59.812 C199.27,60.004 199.198,60.142 199.054,60.226 C198.91,60.31 198.646,60.352 198.262,60.352 L198.262,60.352 L198.262,61 L203.734,61 Z M214.354,61 L214.354,60.352 C213.85,60.352 213.598,60.172 213.598,59.812 L213.598,59.812 L213.598,49.336 L222.526,58.84 C222.814,59.152 223.072,59.428 223.3,59.668 C223.528,59.908 223.642,60.076 223.642,60.172 C223.642,60.292 223.558,60.352 223.39,60.352 L223.39,60.352 L223.39,61 L228.07,61 L228.07,60.352 C227.638,60.352 227.422,60.172 227.422,59.812 L227.422,59.812 L227.422,46.348 C227.422,45.988 227.638,45.808 228.07,45.808 L228.07,45.808 L228.07,45.16 L223.678,45.16 L223.678,45.808 C224.158,45.808 224.398,45.988 224.398,46.348 L224.398,46.348 L224.398,56.104 L215.758,46.96 C215.23,46.432 214.966,46.108 214.966,45.988 C214.966,45.892 215.05,45.832 215.218,45.808 L215.218,45.808 L215.218,45.16 L209.926,45.16 L209.926,45.808 C210.358,45.808 210.574,45.988 210.574,46.348 L210.574,46.348 L210.574,59.812 C210.574,60.172 210.358,60.352 209.926,60.352 L209.926,60.352 L209.926,61 L214.354,61 Z" id="ChestPain" fill="#000000" fill-rule="nonzero"></path>
        <path d="M39.155,270 L39.155,269.676 C38.891,269.676 38.759,269.568 38.759,269.352 L38.759,269.352 L38.759,262.188 L41.729,262.188 C41.837,262.188 41.942,262.218 42.044,262.278 C42.146,262.338 42.197,262.452 42.197,262.62 L42.197,262.62 L42.521,262.62 L42.521,260.1 L42.197,260.1 C42.197,260.268 42.146,260.382 42.044,260.442 C41.942,260.502 41.837,260.532 41.729,260.532 L41.729,260.532 L33.737,260.532 C33.629,260.532 33.524,260.502 33.422,260.442 C33.32,260.382 33.269,260.268 33.269,260.1 L33.269,260.1 L32.945,260.1 L32.945,262.62 L33.269,262.62 C33.269,262.452 33.32,262.338 33.422,262.278 C33.524,262.218 33.629,262.188 33.737,262.188 L33.737,262.188 L36.707,262.188 L36.707,269.352 C36.707,269.46 36.674,269.541 36.608,269.595 C36.542,269.649 36.467,269.676 36.383,269.676 L36.383,269.676 L36.383,270 L39.155,270 Z M47.093,270 L47.093,269.676 C47.021,269.676 46.958,269.655 46.904,269.613 C46.85,269.571 46.823,269.502 46.823,269.406 L46.823,269.406 L46.823,266.688 L51.647,266.688 L51.647,269.406 C51.647,269.502 51.62,269.571 51.566,269.613 C51.512,269.655 51.449,269.676 51.377,269.676 L51.377,269.676 L51.377,270 L53.645,270 L53.645,269.676 C53.573,269.676 53.51,269.655 53.456,269.613 C53.402,269.571 53.375,269.502 53.375,269.406 L53.375,269.406 L53.375,262.674 C53.375,262.578 53.402,262.509 53.456,262.467 C53.51,262.425 53.573,262.404 53.645,262.404 L53.645,262.404 L53.645,262.08 L51.377,262.08 L51.377,262.404 C51.449,262.404 51.512,262.425 51.566,262.467 C51.62,262.509 51.647,262.578 51.647,262.674 L51.647,262.674 L51.647,265.212 L46.823,265.212 L46.823,262.674 C46.823,262.578 46.85,262.509 46.904,262.467 C46.958,262.425 47.021,262.404 47.093,262.404 L47.093,262.404 L47.093,262.08 L44.825,262.08 L44.825,262.404 C44.897,262.404 44.96,262.425 45.014,262.467 C45.068,262.509 45.095,262.578 45.095,262.674 L45.095,262.674 L45.095,269.406 C45.095,269.502 45.068,269.571 45.014,269.613 C44.96,269.655 44.897,269.676 44.825,269.676 L44.825,269.676 L44.825,270 L47.093,270 Z M59.603,270 L59.603,269.676 C59.267,269.676 59.099,269.586 59.099,269.406 L59.099,269.406 L59.099,262.674 C59.099,262.494 59.267,262.404 59.603,262.404 L59.603,262.404 L59.603,262.08 L56.867,262.08 L56.867,262.404 C57.059,262.404 57.191,262.425 57.263,262.467 C57.335,262.509 57.371,262.578 57.371,262.674 L57.371,262.674 L57.371,269.406 C57.371,269.502 57.335,269.571 57.263,269.613 C57.191,269.655 57.059,269.676 56.867,269.676 L56.867,269.676 L56.867,270 L59.603,270 Z M66.101,270.054 C66.509,270.054 66.944,270.024 67.406,269.964 C67.868,269.904 68.291,269.778 68.675,269.586 C69.059,269.394 69.38,269.13 69.638,268.794 C69.896,268.458 70.025,268.026 70.025,267.498 C70.025,266.97 69.878,266.556 69.584,266.256 C69.29,265.956 68.921,265.728 68.477,265.572 C68.033,265.416 67.553,265.305 67.037,265.239 C66.521,265.173 66.041,265.107 65.597,265.041 C65.153,264.975 64.784,264.885 64.49,264.771 C64.196,264.657 64.049,264.468 64.049,264.204 C64.049,264.036 64.097,263.895 64.193,263.781 C64.289,263.667 64.421,263.574 64.589,263.502 C64.757,263.43 64.949,263.379 65.165,263.349 C65.381,263.319 65.609,263.304 65.849,263.304 C66.473,263.304 67.037,263.376 67.541,263.52 C68.045,263.664 68.417,263.838 68.657,264.042 C68.753,264.114 68.807,264.186 68.819,264.258 L68.819,264.258 L68.855,264.474 L69.179,264.582 L70.079,262.89 L69.881,262.692 C69.809,262.728 69.749,262.761 69.701,262.791 C69.653,262.821 69.581,262.836 69.485,262.836 C69.401,262.836 69.272,262.791 69.098,262.701 C68.924,262.611 68.699,262.512 68.423,262.404 C68.147,262.296 67.808,262.197 67.406,262.107 C67.004,262.017 66.521,261.972 65.957,261.972 C64.805,261.972 63.911,262.2 63.275,262.656 C62.639,263.112 62.321,263.724 62.321,264.492 C62.321,265.008 62.468,265.407 62.762,265.689 C63.056,265.971 63.425,266.187 63.869,266.337 C64.313,266.487 64.793,266.595 65.309,266.661 C65.825,266.727 66.305,266.793 66.749,266.859 C67.193,266.925 67.562,267.018 67.856,267.138 C68.15,267.258 68.297,267.45 68.297,267.714 C68.297,267.942 68.213,268.125 68.045,268.263 C67.877,268.401 67.673,268.509 67.433,268.587 C67.193,268.665 66.95,268.716 66.704,268.74 C66.458,268.764 66.251,268.776 66.083,268.776 C65.903,268.776 65.654,268.746 65.336,268.686 C65.018,268.626 64.7,268.545 64.382,268.443 C64.064,268.341 63.791,268.215 63.563,268.065 C63.335,267.915 63.221,267.75 63.221,267.57 C63.221,267.51 63.224,267.453 63.23,267.399 C63.236,267.345 63.239,267.294 63.239,267.246 L63.239,267.246 L62.897,267.156 L62.069,269.172 L62.321,269.352 C62.381,269.28 62.453,269.244 62.537,269.244 C62.585,269.244 62.723,269.289 62.951,269.379 C63.179,269.469 63.458,269.565 63.788,269.667 C64.118,269.769 64.484,269.859 64.886,269.937 C65.288,270.015 65.693,270.054 66.101,270.054 Z M81.095,270 L81.095,269.676 C80.759,269.676 80.591,269.586 80.591,269.406 L80.591,269.406 L80.591,262.674 C80.591,262.494 80.759,262.404 81.095,262.404 L81.095,262.404 L81.095,262.08 L78.359,262.08 L78.359,262.404 C78.551,262.404 78.683,262.425 78.755,262.467 C78.827,262.509 78.863,262.578 78.863,262.674 L78.863,262.674 L78.863,269.406 C78.863,269.502 78.827,269.571 78.755,269.613 C78.683,269.655 78.551,269.676 78.359,269.676 L78.359,269.676 L78.359,270 L81.095,270 Z M87.593,270.054 C88.001,270.054 88.436,270.024 88.898,269.964 C89.36,269.904 89.783,269.778 90.167,269.586 C90.551,269.394 90.872,269.13 91.13,268.794 C91.388,268.458 91.517,268.026 91.517,267.498 C91.517,266.97 91.37,266.556 91.076,266.256 C90.782,265.956 90.413,265.728 89.969,265.572 C89.525,265.416 89.045,265.305 88.529,265.239 C88.013,265.173 87.533,265.107 87.089,265.041 C86.645,264.975 86.276,264.885 85.982,264.771 C85.688,264.657 85.541,264.468 85.541,264.204 C85.541,264.036 85.589,263.895 85.685,263.781 C85.781,263.667 85.913,263.574 86.081,263.502 C86.249,263.43 86.441,263.379 86.657,263.349 C86.873,263.319 87.101,263.304 87.341,263.304 C87.965,263.304 88.529,263.376 89.033,263.52 C89.537,263.664 89.909,263.838 90.149,264.042 C90.245,264.114 90.299,264.186 90.311,264.258 L90.311,264.258 L90.347,264.474 L90.671,264.582 L91.571,262.89 L91.373,262.692 C91.301,262.728 91.241,262.761 91.193,262.791 C91.145,262.821 91.073,262.836 90.977,262.836 C90.893,262.836 90.764,262.791 90.59,262.701 C90.416,262.611 90.191,262.512 89.915,262.404 C89.639,262.296 89.3,262.197 88.898,262.107 C88.496,262.017 88.013,261.972 87.449,261.972 C86.297,261.972 85.403,262.2 84.767,262.656 C84.131,263.112 83.813,263.724 83.813,264.492 C83.813,265.008 83.96,265.407 84.254,265.689 C84.548,265.971 84.917,266.187 85.361,266.337 C85.805,266.487 86.285,266.595 86.801,266.661 C87.317,266.727 87.797,266.793 88.241,266.859 C88.685,266.925 89.054,267.018 89.348,267.138 C89.642,267.258 89.789,267.45 89.789,267.714 C89.789,267.942 89.705,268.125 89.537,268.263 C89.369,268.401 89.165,268.509 88.925,268.587 C88.685,268.665 88.442,268.716 88.196,268.74 C87.95,268.764 87.743,268.776 87.575,268.776 C87.395,268.776 87.146,268.746 86.828,268.686 C86.51,268.626 86.192,268.545 85.874,268.443 C85.556,268.341 85.283,268.215 85.055,268.065 C84.827,267.915 84.713,267.75 84.713,267.57 C84.713,267.51 84.716,267.453 84.722,267.399 C84.728,267.345 84.731,267.294 84.731,267.246 L84.731,267.246 L84.389,267.156 L83.561,269.172 L83.813,269.352 C83.873,269.28 83.945,269.244 84.029,269.244 C84.077,269.244 84.215,269.289 84.443,269.379 C84.671,269.469 84.95,269.565 85.28,269.667 C85.61,269.769 85.976,269.859 86.378,269.937 C86.78,270.015 87.185,270.054 87.593,270.054 Z M104.513,270 C105.221,270 105.821,269.886 106.313,269.658 C106.805,269.43 107.207,269.133 107.519,268.767 C107.831,268.401 108.059,267.981 108.203,267.507 C108.347,267.033 108.419,266.544 108.419,266.04 C108.419,265.536 108.344,265.047 108.194,264.573 C108.044,264.099 107.81,263.679 107.492,263.313 C107.174,262.947 106.763,262.65 106.259,262.422 C105.755,262.194 105.149,262.08 104.441,262.08 L104.441,262.08 L99.437,262.08 L99.437,262.404 C99.713,262.404 99.851,262.494 99.851,262.674 L99.851,262.674 L99.851,269.406 C99.851,269.586 99.713,269.676 99.437,269.676 L99.437,269.676 L99.437,270 L104.513,270 Z M103.919,268.668 L101.579,268.668 L101.579,263.412 L103.919,263.412 C104.291,263.412 104.645,263.433 104.981,263.475 C105.317,263.517 105.611,263.625 105.863,263.799 C106.115,263.973 106.316,264.231 106.466,264.573 C106.616,264.915 106.691,265.386 106.691,265.986 C106.691,266.586 106.616,267.063 106.466,267.417 C106.316,267.771 106.115,268.041 105.863,268.227 C105.611,268.413 105.317,268.533 104.981,268.587 C104.645,268.641 104.291,268.668 103.919,268.668 L103.919,268.668 Z M118.139,270.198 L118.139,268.308 L117.815,268.308 C117.815,268.416 117.767,268.503 117.671,268.569 C117.575,268.635 117.455,268.668 117.311,268.668 L117.311,268.668 L112.703,268.668 L112.703,266.544 L115.331,266.544 C115.571,266.544 115.757,266.559 115.889,266.589 C116.021,266.619 116.069,266.7 116.033,266.832 L116.033,266.832 L116.393,266.832 L116.393,264.924 L116.069,264.924 C116.069,265.056 116.021,265.137 115.925,265.167 C115.829,265.197 115.679,265.212 115.475,265.212 L115.475,265.212 L112.703,265.212 L112.703,263.412 L117.095,263.412 C117.467,263.412 117.653,263.526 117.653,263.754 L117.653,263.754 L117.977,263.754 L117.977,261.756 L117.653,261.756 C117.653,261.972 117.467,262.08 117.095,262.08 L117.095,262.08 L110.705,262.08 L110.705,262.404 C110.765,262.404 110.825,262.425 110.885,262.467 C110.945,262.509 110.975,262.578 110.975,262.674 L110.975,262.674 L110.975,269.406 C110.975,269.502 110.945,269.571 110.885,269.613 C110.825,269.655 110.765,269.676 110.705,269.676 L110.705,269.676 L110.705,270 L117.311,270 C117.455,270 117.575,270.006 117.671,270.018 C117.767,270.03 117.815,270.09 117.815,270.198 L117.815,270.198 L118.139,270.198 Z M123.107,270 L123.107,269.676 C122.999,269.676 122.903,269.655 122.819,269.613 C122.735,269.571 122.693,269.502 122.693,269.406 L122.693,269.406 L122.693,266.652 L125.861,266.652 C126.065,266.652 126.191,266.676 126.239,266.724 C126.287,266.772 126.317,266.844 126.329,266.94 L126.329,266.94 L126.653,266.94 L126.653,265.05 L126.329,265.05 C126.317,265.146 126.287,265.215 126.239,265.257 C126.191,265.299 126.065,265.32 125.861,265.32 L125.861,265.32 L122.693,265.32 L122.693,263.412 L127.571,263.412 C127.775,263.412 127.919,263.439 128.003,263.493 C128.087,263.547 128.129,263.604 128.129,263.664 L128.129,263.664 L128.453,263.664 L128.453,261.756 L128.129,261.756 C128.129,261.852 128.087,261.93 128.003,261.99 C127.919,262.05 127.775,262.08 127.571,262.08 L127.571,262.08 L120.587,262.08 L120.587,262.404 C120.839,262.404 120.965,262.494 120.965,262.674 L120.965,262.674 L120.965,269.406 C120.965,269.586 120.851,269.676 120.623,269.676 L120.623,269.676 L120.623,270 L123.107,270 Z M133.601,270 L133.601,269.676 C133.265,269.676 133.097,269.586 133.097,269.406 L133.097,269.406 L133.097,262.674 C133.097,262.494 133.265,262.404 133.601,262.404 L133.601,262.404 L133.601,262.08 L130.865,262.08 L130.865,262.404 C131.057,262.404 131.189,262.425 131.261,262.467 C131.333,262.509 131.369,262.578 131.369,262.674 L131.369,262.674 L131.369,269.406 C131.369,269.502 131.333,269.571 131.261,269.613 C131.189,269.655 131.057,269.676 130.865,269.676 L130.865,269.676 L130.865,270 L133.601,270 Z M138.911,270 L138.911,269.676 C138.659,269.676 138.533,269.586 138.533,269.406 L138.533,269.406 L138.533,264.168 L142.997,268.92 C143.141,269.076 143.27,269.214 143.384,269.334 C143.498,269.454 143.555,269.538 143.555,269.586 C143.555,269.646 143.513,269.676 143.429,269.676 L143.429,269.676 L143.429,270 L145.769,270 L145.769,269.676 C145.553,269.676 145.445,269.586 145.445,269.406 L145.445,269.406 L145.445,262.674 C145.445,262.494 145.553,262.404 145.769,262.404 L145.769,262.404 L145.769,262.08 L143.573,262.08 L143.573,262.404 C143.813,262.404 143.933,262.494 143.933,262.674 L143.933,262.674 L143.933,267.552 L139.613,262.98 C139.349,262.716 139.217,262.554 139.217,262.494 C139.217,262.446 139.259,262.416 139.343,262.404 L139.343,262.404 L139.343,262.08 L136.697,262.08 L136.697,262.404 C136.913,262.404 137.021,262.494 137.021,262.674 L137.021,262.674 L137.021,269.406 C137.021,269.586 136.913,269.676 136.697,269.676 L136.697,269.676 L136.697,270 L138.911,270 Z M151.601,270 L151.601,269.676 C151.265,269.676 151.097,269.586 151.097,269.406 L151.097,269.406 L151.097,262.674 C151.097,262.494 151.265,262.404 151.601,262.404 L151.601,262.404 L151.601,262.08 L148.865,262.08 L148.865,262.404 C149.057,262.404 149.189,262.425 149.261,262.467 C149.333,262.509 149.369,262.578 149.369,262.674 L149.369,262.674 L149.369,269.406 C149.369,269.502 149.333,269.571 149.261,269.613 C149.189,269.655 149.057,269.676 148.865,269.676 L148.865,269.676 L148.865,270 L151.601,270 Z M158.927,270 L158.927,269.676 C158.711,269.676 158.603,269.586 158.603,269.406 L158.603,269.406 L158.603,263.412 L160.943,263.412 C161.039,263.412 161.129,263.436 161.213,263.484 C161.297,263.532 161.339,263.61 161.339,263.718 L161.339,263.718 L161.663,263.718 L161.663,261.648 L161.339,261.648 C161.339,261.816 161.297,261.93 161.213,261.99 C161.129,262.05 161.039,262.08 160.943,262.08 L160.943,262.08 L154.535,262.08 C154.439,262.08 154.349,262.05 154.265,261.99 C154.181,261.93 154.139,261.816 154.139,261.648 L154.139,261.648 L153.815,261.648 L153.815,263.718 L154.139,263.718 C154.139,263.61 154.181,263.532 154.265,263.484 C154.349,263.436 154.439,263.412 154.535,263.412 L154.535,263.412 L156.875,263.412 L156.875,269.406 C156.875,269.502 156.845,269.571 156.785,269.613 C156.725,269.655 156.665,269.676 156.605,269.676 L156.605,269.676 L156.605,270 L158.927,270 Z M171.149,270.198 L171.149,268.308 L170.825,268.308 C170.825,268.416 170.777,268.503 170.681,268.569 C170.585,268.635 170.465,268.668 170.321,268.668 L170.321,268.668 L165.713,268.668 L165.713,266.544 L168.341,266.544 C168.581,266.544 168.767,266.559 168.899,266.589 C169.031,266.619 169.079,266.7 169.043,266.832 L169.043,266.832 L169.403,266.832 L169.403,264.924 L169.079,264.924 C169.079,265.056 169.031,265.137 168.935,265.167 C168.839,265.197 168.689,265.212 168.485,265.212 L168.485,265.212 L165.713,265.212 L165.713,263.412 L170.105,263.412 C170.477,263.412 170.663,263.526 170.663,263.754 L170.663,263.754 L170.987,263.754 L170.987,261.756 L170.663,261.756 C170.663,261.972 170.477,262.08 170.105,262.08 L170.105,262.08 L163.715,262.08 L163.715,262.404 C163.775,262.404 163.835,262.425 163.895,262.467 C163.955,262.509 163.985,262.578 163.985,262.674 L163.985,262.674 L163.985,269.406 C163.985,269.502 163.955,269.571 163.895,269.613 C163.835,269.655 163.775,269.676 163.715,269.676 L163.715,269.676 L163.715,270 L170.321,270 C170.465,270 170.585,270.006 170.681,270.018 C170.777,270.03 170.825,270.09 170.825,270.198 L170.825,270.198 L171.149,270.198 Z M181.499,270.18 L181.499,268.29 L181.175,268.29 C181.175,268.41 181.127,268.503 181.031,268.569 C180.935,268.635 180.815,268.668 180.671,268.668 L180.671,268.668 L175.811,268.668 L175.811,262.674 C175.811,262.494 175.949,262.404 176.225,262.404 L176.225,262.404 L176.225,262.08 L173.615,262.08 L173.615,262.404 C173.927,262.404 174.083,262.494 174.083,262.674 L174.083,262.674 L174.083,269.406 C174.083,269.586 173.927,269.676 173.615,269.676 L173.615,269.676 L173.615,270 L180.671,270 C180.815,270 180.935,270.006 181.031,270.018 C181.127,270.03 181.175,270.084 181.175,270.18 L181.175,270.18 L181.499,270.18 Z M188.465,270 L188.465,269.676 C188.237,269.676 188.123,269.586 188.123,269.406 L188.123,269.406 L188.123,266.706 L190.877,263.142 C191.009,262.974 191.162,262.809 191.336,262.647 C191.51,262.485 191.669,262.404 191.813,262.404 L191.813,262.404 L191.813,262.08 L189.059,262.08 L189.059,262.404 C189.119,262.404 189.179,262.416 189.239,262.44 C189.299,262.464 189.329,262.524 189.329,262.62 C189.329,262.692 189.302,262.767 189.248,262.845 C189.194,262.923 189.113,263.04 189.005,263.196 L189.005,263.196 L187.403,265.428 L185.585,263.052 C185.525,262.968 185.471,262.896 185.423,262.836 C185.375,262.776 185.351,262.71 185.351,262.638 C185.351,262.566 185.387,262.509 185.459,262.467 C185.531,262.425 185.597,262.404 185.657,262.404 L185.657,262.404 L185.657,262.08 L182.687,262.08 L182.687,262.404 C182.795,262.404 182.909,262.428 183.029,262.476 C183.149,262.524 183.251,262.602 183.335,262.71 L183.335,262.71 L186.395,266.634 L186.395,269.406 C186.395,269.586 186.287,269.676 186.071,269.676 L186.071,269.676 L186.071,270 L188.465,270 Z M201.425,270 L201.425,269.676 C201.173,269.676 201.047,269.586 201.047,269.406 L201.047,269.406 L201.047,264.168 L205.511,268.92 C205.655,269.076 205.784,269.214 205.898,269.334 C206.012,269.454 206.069,269.538 206.069,269.586 C206.069,269.646 206.027,269.676 205.943,269.676 L205.943,269.676 L205.943,270 L208.283,270 L208.283,269.676 C208.067,269.676 207.959,269.586 207.959,269.406 L207.959,269.406 L207.959,262.674 C207.959,262.494 208.067,262.404 208.283,262.404 L208.283,262.404 L208.283,262.08 L206.087,262.08 L206.087,262.404 C206.327,262.404 206.447,262.494 206.447,262.674 L206.447,262.674 L206.447,267.552 L202.127,262.98 C201.863,262.716 201.731,262.554 201.731,262.494 C201.731,262.446 201.773,262.416 201.857,262.404 L201.857,262.404 L201.857,262.08 L199.211,262.08 L199.211,262.404 C199.427,262.404 199.535,262.494 199.535,262.674 L199.535,262.674 L199.535,269.406 C199.535,269.586 199.427,269.676 199.211,269.676 L199.211,269.676 L199.211,270 L201.425,270 Z M215.249,270.054 C215.909,270.054 216.53,269.979 217.112,269.829 C217.694,269.679 218.201,269.436 218.633,269.1 C219.065,268.764 219.407,268.341 219.659,267.831 C219.911,267.321 220.037,266.724 220.037,266.04 C220.037,265.356 219.911,264.759 219.659,264.249 C219.407,263.739 219.065,263.316 218.633,262.98 C218.201,262.644 217.694,262.392 217.112,262.224 C216.53,262.056 215.909,261.972 215.249,261.972 C214.589,261.972 213.968,262.056 213.386,262.224 C212.804,262.392 212.297,262.644 211.865,262.98 C211.433,263.316 211.091,263.739 210.839,264.249 C210.587,264.759 210.461,265.356 210.461,266.04 C210.461,266.724 210.587,267.321 210.839,267.831 C211.091,268.341 211.433,268.764 211.865,269.1 C212.297,269.436 212.804,269.679 213.386,269.829 C213.968,269.979 214.589,270.054 215.249,270.054 Z M215.249,268.776 C214.865,268.776 214.49,268.713 214.124,268.587 C213.758,268.461 213.431,268.281 213.143,268.047 C212.855,267.813 212.624,267.528 212.45,267.192 C212.276,266.856 212.189,266.472 212.189,266.04 C212.189,265.608 212.276,265.224 212.45,264.888 C212.624,264.552 212.855,264.267 213.143,264.033 C213.431,263.799 213.758,263.619 214.124,263.493 C214.49,263.367 214.865,263.304 215.249,263.304 C215.633,263.304 216.008,263.367 216.374,263.493 C216.74,263.619 217.067,263.799 217.355,264.033 C217.643,264.267 217.874,264.552 218.048,264.888 C218.222,265.224 218.309,265.608 218.309,266.04 C218.309,266.472 218.222,266.856 218.048,267.192 C217.874,267.528 217.643,267.813 217.355,268.047 C217.067,268.281 216.74,268.461 216.374,268.587 C216.008,268.713 215.633,268.776 215.249,268.776 Z M226.445,270 L226.445,269.676 C226.229,269.676 226.121,269.586 226.121,269.406 L226.121,269.406 L226.121,263.412 L228.461,263.412 C228.557,263.412 228.647,263.436 228.731,263.484 C228.815,263.532 228.857,263.61 228.857,263.718 L228.857,263.718 L229.181,263.718 L229.181,261.648 L228.857,261.648 C228.857,261.816 228.815,261.93 228.731,261.99 C228.647,262.05 228.557,262.08 228.461,262.08 L228.461,262.08 L222.053,262.08 C221.957,262.08 221.867,262.05 221.783,261.99 C221.699,261.93 221.657,261.816 221.657,261.648 L221.657,261.648 L221.333,261.648 L221.333,263.718 L221.657,263.718 C221.657,263.61 221.699,263.532 221.783,263.484 C221.867,263.436 221.957,263.412 222.053,263.412 L222.053,263.412 L224.393,263.412 L224.393,269.406 C224.393,269.502 224.363,269.571 224.303,269.613 C224.243,269.655 224.183,269.676 224.123,269.676 L224.123,269.676 L224.123,270 L226.445,270 Z M37.265,288 C37.793,288 38.246,287.943 38.624,287.829 C39.002,287.715 39.308,287.562 39.542,287.37 C39.776,287.178 39.947,286.956 40.055,286.704 C40.163,286.452 40.217,286.182 40.217,285.894 C40.217,285.642 40.175,285.408 40.091,285.192 C40.007,284.976 39.899,284.784 39.767,284.616 C39.635,284.448 39.485,284.304 39.317,284.184 C39.149,284.064 38.981,283.968 38.813,283.896 L38.813,283.896 L38.813,283.878 C38.957,283.806 39.098,283.71 39.236,283.59 C39.374,283.47 39.5,283.335 39.614,283.185 C39.728,283.035 39.821,282.867 39.893,282.681 C39.965,282.495 40.001,282.294 40.001,282.078 C40.001,281.814 39.947,281.562 39.839,281.322 C39.731,281.082 39.566,280.869 39.344,280.683 C39.122,280.497 38.846,280.35 38.516,280.242 C38.186,280.134 37.793,280.08 37.337,280.08 L37.337,280.08 L31.739,280.08 L31.739,280.404 C31.835,280.404 31.928,280.425 32.018,280.467 C32.108,280.509 32.153,280.578 32.153,280.674 L32.153,280.674 L32.153,287.406 C32.153,287.502 32.108,287.571 32.018,287.613 C31.928,287.655 31.835,287.676 31.739,287.676 L31.739,287.676 L31.739,288 L37.265,288 Z M37.085,283.212 L33.881,283.212 L33.881,281.412 L37.085,281.412 C37.229,281.412 37.373,281.421 37.517,281.439 C37.661,281.457 37.787,281.499 37.895,281.565 C38.003,281.631 38.093,281.721 38.165,281.835 C38.237,281.949 38.273,282.102 38.273,282.294 C38.273,282.666 38.147,282.912 37.895,283.032 C37.643,283.152 37.373,283.212 37.085,283.212 L37.085,283.212 Z M37.049,286.668 L33.881,286.668 L33.881,284.544 L36.761,284.544 C37.385,284.544 37.829,284.634 38.093,284.814 C38.357,284.994 38.489,285.27 38.489,285.642 C38.489,285.966 38.387,286.218 38.183,286.398 C37.979,286.578 37.601,286.668 37.049,286.668 L37.049,286.668 Z M50.387,288.198 L50.387,286.308 L50.063,286.308 C50.063,286.416 50.015,286.503 49.919,286.569 C49.823,286.635 49.703,286.668 49.559,286.668 L49.559,286.668 L44.951,286.668 L44.951,284.544 L47.579,284.544 C47.819,284.544 48.005,284.559 48.137,284.589 C48.269,284.619 48.317,284.7 48.281,284.832 L48.281,284.832 L48.641,284.832 L48.641,282.924 L48.317,282.924 C48.317,283.056 48.269,283.137 48.173,283.167 C48.077,283.197 47.927,283.212 47.723,283.212 L47.723,283.212 L44.951,283.212 L44.951,281.412 L49.343,281.412 C49.715,281.412 49.901,281.526 49.901,281.754 L49.901,281.754 L50.225,281.754 L50.225,279.756 L49.901,279.756 C49.901,279.972 49.715,280.08 49.343,280.08 L49.343,280.08 L42.953,280.08 L42.953,280.404 C43.013,280.404 43.073,280.425 43.133,280.467 C43.193,280.509 43.223,280.578 43.223,280.674 L43.223,280.674 L43.223,287.406 C43.223,287.502 43.193,287.571 43.133,287.613 C43.073,287.655 43.013,287.676 42.953,287.676 L42.953,287.676 L42.953,288 L49.559,288 C49.703,288 49.823,288.006 49.919,288.018 C50.015,288.03 50.063,288.09 50.063,288.198 L50.063,288.198 L50.387,288.198 Z M56.561,288.054 C57.101,288.054 57.59,288.006 58.028,287.91 C58.466,287.814 58.85,287.697 59.18,287.559 C59.51,287.421 59.783,287.298 59.999,287.19 C60.215,287.082 60.371,287.028 60.467,287.028 C60.527,287.028 60.629,287.058 60.773,287.118 L60.773,287.118 L60.953,287.028 L59.621,285.12 L59.423,285.3 C59.435,285.348 59.441,285.408 59.441,285.48 L59.441,285.48 L59.441,285.624 C59.441,285.732 59.354,285.852 59.18,285.984 C59.006,286.116 58.781,286.239 58.505,286.353 C58.229,286.467 57.923,286.566 57.587,286.65 C57.251,286.734 56.921,286.776 56.597,286.776 C56.249,286.776 55.907,286.713 55.571,286.587 C55.235,286.461 54.935,286.275 54.671,286.029 C54.407,285.783 54.194,285.489 54.032,285.147 C53.87,284.805 53.789,284.418 53.789,283.986 C53.789,283.554 53.861,283.17 54.005,282.834 C54.149,282.498 54.353,282.216 54.617,281.988 C54.881,281.76 55.19,281.589 55.544,281.475 C55.898,281.361 56.291,281.304 56.723,281.304 C57.083,281.304 57.413,281.337 57.713,281.403 C58.013,281.469 58.274,281.55 58.496,281.646 C58.718,281.742 58.889,281.841 59.009,281.943 C59.129,282.045 59.189,282.126 59.189,282.186 C59.189,282.222 59.192,282.252 59.198,282.276 C59.204,282.3 59.207,282.324 59.207,282.348 L59.207,282.348 L59.405,282.492 L60.593,280.782 L60.377,280.656 C60.329,280.68 60.284,280.71 60.242,280.746 C60.2,280.782 60.149,280.8 60.089,280.8 C60.005,280.8 59.867,280.758 59.675,280.674 C59.483,280.59 59.243,280.494 58.955,280.386 C58.667,280.278 58.334,280.182 57.956,280.098 C57.578,280.014 57.161,279.972 56.705,279.972 C56.117,279.972 55.544,280.056 54.986,280.224 C54.428,280.392 53.933,280.647 53.501,280.989 C53.069,281.331 52.721,281.754 52.457,282.258 C52.193,282.762 52.061,283.35 52.061,284.022 C52.061,284.694 52.193,285.285 52.457,285.795 C52.721,286.305 53.063,286.731 53.483,287.073 C53.903,287.415 54.383,287.664 54.923,287.82 C55.463,287.976 56.009,288.054 56.561,288.054 Z M64.175,288 L64.175,287.676 C64.067,287.676 63.983,287.664 63.923,287.64 C63.863,287.616 63.833,287.556 63.833,287.46 C63.833,287.4 63.848,287.331 63.878,287.253 C63.908,287.175 63.947,287.088 63.995,286.992 L63.995,286.992 L64.499,286.02 L68.351,286.02 L68.837,287.046 C68.873,287.142 68.903,287.22 68.927,287.28 C68.951,287.34 68.963,287.406 68.963,287.478 C68.963,287.574 68.93,287.64 68.864,287.676 C68.798,287.712 68.735,287.73 68.675,287.73 L68.675,287.73 L68.675,288 L71.231,288 L71.231,287.676 C71.147,287.652 71.069,287.616 70.997,287.568 C70.925,287.52 70.859,287.442 70.799,287.334 L70.799,287.334 L67.883,281.214 C67.823,281.082 67.766,280.965 67.712,280.863 C67.658,280.761 67.631,280.674 67.631,280.602 C67.631,280.518 67.652,280.47 67.694,280.458 C67.736,280.446 67.775,280.428 67.811,280.404 L67.811,280.404 L67.811,280.08 L65.093,280.08 L65.093,280.404 C65.129,280.428 65.162,280.449 65.192,280.467 C65.222,280.485 65.237,280.53 65.237,280.602 C65.237,280.698 65.216,280.797 65.174,280.899 C65.132,281.001 65.075,281.136 65.003,281.304 L65.003,281.304 L62.321,287.154 C62.273,287.25 62.204,287.355 62.114,287.469 C62.024,287.583 61.907,287.652 61.763,287.676 L61.763,287.676 L61.763,288 L64.175,288 Z M67.775,284.688 L65.039,284.688 L66.317,281.664 L67.775,284.688 Z M77.567,288.054 C78.287,288.054 78.914,287.979 79.448,287.829 C79.982,287.679 80.42,287.472 80.762,287.208 C81.104,286.944 81.359,286.641 81.527,286.299 C81.695,285.957 81.779,285.6 81.779,285.228 L81.779,285.228 L81.779,280.674 C81.779,280.494 81.911,280.404 82.175,280.404 L82.175,280.404 L82.175,280.08 L79.673,280.08 L79.673,280.404 C79.973,280.404 80.123,280.494 80.123,280.674 L80.123,280.674 L80.123,284.796 C80.123,285.372 79.913,285.834 79.493,286.182 C79.073,286.53 78.431,286.704 77.567,286.704 C76.703,286.704 76.061,286.53 75.641,286.182 C75.221,285.834 75.011,285.372 75.011,284.796 L75.011,284.796 L75.011,280.674 C75.011,280.494 75.143,280.404 75.407,280.404 L75.407,280.404 L75.407,280.08 L72.833,280.08 L72.833,280.404 C73.037,280.404 73.175,280.425 73.247,280.467 C73.319,280.509 73.355,280.578 73.355,280.674 L73.355,280.674 L73.355,285.228 C73.355,285.6 73.439,285.957 73.607,286.299 C73.775,286.641 74.03,286.944 74.372,287.208 C74.714,287.472 75.152,287.679 75.686,287.829 C76.22,287.979 76.847,288.054 77.567,288.054 Z M88.367,288.054 C88.775,288.054 89.21,288.024 89.672,287.964 C90.134,287.904 90.557,287.778 90.941,287.586 C91.325,287.394 91.646,287.13 91.904,286.794 C92.162,286.458 92.291,286.026 92.291,285.498 C92.291,284.97 92.144,284.556 91.85,284.256 C91.556,283.956 91.187,283.728 90.743,283.572 C90.299,283.416 89.819,283.305 89.303,283.239 C88.787,283.173 88.307,283.107 87.863,283.041 C87.419,282.975 87.05,282.885 86.756,282.771 C86.462,282.657 86.315,282.468 86.315,282.204 C86.315,282.036 86.363,281.895 86.459,281.781 C86.555,281.667 86.687,281.574 86.855,281.502 C87.023,281.43 87.215,281.379 87.431,281.349 C87.647,281.319 87.875,281.304 88.115,281.304 C88.739,281.304 89.303,281.376 89.807,281.52 C90.311,281.664 90.683,281.838 90.923,282.042 C91.019,282.114 91.073,282.186 91.085,282.258 C91.097,282.33 91.109,282.402 91.121,282.474 L91.121,282.474 L91.445,282.582 L92.345,280.89 L92.147,280.692 C92.075,280.728 92.015,280.761 91.967,280.791 C91.919,280.821 91.847,280.836 91.751,280.836 C91.667,280.836 91.538,280.791 91.364,280.701 C91.19,280.611 90.965,280.512 90.689,280.404 C90.413,280.296 90.074,280.197 89.672,280.107 C89.27,280.017 88.787,279.972 88.223,279.972 C87.071,279.972 86.177,280.2 85.541,280.656 C84.905,281.112 84.587,281.724 84.587,282.492 C84.587,283.008 84.734,283.407 85.028,283.689 C85.322,283.971 85.691,284.187 86.135,284.337 C86.579,284.487 87.059,284.595 87.575,284.661 C88.091,284.727 88.571,284.793 89.015,284.859 C89.459,284.925 89.828,285.018 90.122,285.138 C90.416,285.258 90.563,285.45 90.563,285.714 C90.563,285.942 90.479,286.125 90.311,286.263 C90.143,286.401 89.939,286.509 89.699,286.587 C89.459,286.665 89.216,286.716 88.97,286.74 C88.724,286.764 88.517,286.776 88.349,286.776 C88.169,286.776 87.92,286.746 87.602,286.686 C87.284,286.626 86.966,286.545 86.648,286.443 C86.33,286.341 86.057,286.215 85.829,286.065 C85.601,285.915 85.487,285.75 85.487,285.57 C85.487,285.51 85.49,285.453 85.496,285.399 C85.502,285.345 85.505,285.294 85.505,285.246 L85.505,285.246 L85.163,285.156 L84.335,287.172 L84.587,287.352 C84.647,287.28 84.719,287.244 84.803,287.244 C84.851,287.244 84.989,287.289 85.217,287.379 C85.445,287.469 85.724,287.565 86.054,287.667 C86.384,287.769 86.75,287.859 87.152,287.937 C87.554,288.015 87.959,288.054 88.367,288.054 Z M102.425,288.198 L102.425,286.308 L102.101,286.308 C102.101,286.416 102.053,286.503 101.957,286.569 C101.861,286.635 101.741,286.668 101.597,286.668 L101.597,286.668 L96.989,286.668 L96.989,284.544 L99.617,284.544 C99.857,284.544 100.043,284.559 100.175,284.589 C100.307,284.619 100.355,284.7 100.319,284.832 L100.319,284.832 L100.679,284.832 L100.679,282.924 L100.355,282.924 C100.355,283.056 100.307,283.137 100.211,283.167 C100.115,283.197 99.965,283.212 99.761,283.212 L99.761,283.212 L96.989,283.212 L96.989,281.412 L101.381,281.412 C101.753,281.412 101.939,281.526 101.939,281.754 L101.939,281.754 L102.263,281.754 L102.263,279.756 L101.939,279.756 C101.939,279.972 101.753,280.08 101.381,280.08 L101.381,280.08 L94.991,280.08 L94.991,280.404 C95.051,280.404 95.111,280.425 95.171,280.467 C95.231,280.509 95.261,280.578 95.261,280.674 L95.261,280.674 L95.261,287.406 C95.261,287.502 95.231,287.571 95.171,287.613 C95.111,287.655 95.051,287.676 94.991,287.676 L94.991,287.676 L94.991,288 L101.597,288 C101.741,288 101.861,288.006 101.957,288.018 C102.053,288.03 102.101,288.09 102.101,288.198 L102.101,288.198 L102.425,288.198 Z M113.495,288 L113.495,287.676 C113.183,287.676 113.027,287.568 113.027,287.352 L113.027,287.352 L113.027,279.18 C113.027,278.964 113.183,278.856 113.495,278.856 L113.495,278.856 L113.495,278.532 L110.507,278.532 L110.507,278.856 C110.819,278.856 110.975,278.964 110.975,279.18 L110.975,279.18 L110.975,287.352 C110.975,287.568 110.819,287.676 110.507,287.676 L110.507,287.676 L110.507,288 L113.495,288 Z M125.735,288 L125.735,287.676 C125.627,287.676 125.555,287.658 125.519,287.622 C125.483,287.586 125.465,287.52 125.465,287.424 C125.465,287.388 125.51,287.253 125.6,287.019 C125.69,286.785 125.804,286.497 125.942,286.155 C126.08,285.813 126.23,285.441 126.392,285.039 C126.554,284.637 126.707,284.253 126.851,283.887 C126.995,283.521 127.121,283.197 127.229,282.915 C127.337,282.633 127.403,282.438 127.427,282.33 L127.427,282.33 L127.463,282.33 C127.655,282.93 127.853,283.524 128.057,284.112 C128.261,284.7 128.45,285.231 128.624,285.705 C128.798,286.179 128.939,286.572 129.047,286.884 C129.155,287.196 129.209,287.376 129.209,287.424 C129.209,287.52 129.197,287.583 129.173,287.613 C129.149,287.643 129.089,287.664 128.993,287.676 L128.993,287.676 L128.993,288 L131.513,288 L131.513,287.676 C131.345,287.676 131.261,287.598 131.261,287.442 C131.261,287.382 131.297,287.271 131.369,287.109 C131.441,286.947 131.513,286.764 131.585,286.56 L131.585,286.56 L133.655,281.07 C133.811,280.626 133.991,280.404 134.195,280.404 L134.195,280.404 L134.195,280.08 L131.909,280.08 L131.909,280.404 C132.101,280.404 132.197,280.488 132.197,280.656 C132.197,280.74 132.176,280.845 132.134,280.971 C132.092,281.097 132.041,281.244 131.981,281.412 L131.981,281.412 L130.307,285.786 L128.723,281.448 C128.663,281.304 128.603,281.151 128.543,280.989 C128.483,280.827 128.453,280.704 128.453,280.62 C128.453,280.476 128.561,280.404 128.777,280.404 L128.777,280.404 L128.777,280.08 L126.203,280.08 L126.203,280.404 C126.395,280.404 126.491,280.488 126.491,280.656 C126.491,280.752 126.464,280.875 126.41,281.025 C126.356,281.175 126.299,281.334 126.239,281.502 L126.239,281.502 L124.709,285.786 L124.673,285.786 L123.089,281.412 C123.017,281.22 122.957,281.061 122.909,280.935 C122.861,280.809 122.837,280.716 122.837,280.656 C122.837,280.488 122.915,280.404 123.071,280.404 L123.071,280.404 L123.071,280.08 L120.785,280.08 L120.785,280.404 C120.965,280.44 121.091,280.554 121.163,280.746 L121.163,280.746 L123.539,286.992 C123.563,287.052 123.596,287.139 123.638,287.253 C123.68,287.367 123.701,287.46 123.701,287.532 C123.701,287.604 123.683,287.646 123.647,287.658 C123.611,287.67 123.569,287.676 123.521,287.676 L123.521,287.676 L123.521,288 L125.735,288 Z M137.183,288 L137.183,287.676 C137.075,287.676 136.991,287.664 136.931,287.64 C136.871,287.616 136.841,287.556 136.841,287.46 C136.841,287.4 136.856,287.331 136.886,287.253 C136.916,287.175 136.955,287.088 137.003,286.992 L137.003,286.992 L137.507,286.02 L141.359,286.02 L141.845,287.046 C141.881,287.142 141.911,287.22 141.935,287.28 C141.959,287.34 141.971,287.406 141.971,287.478 C141.971,287.574 141.938,287.64 141.872,287.676 C141.806,287.712 141.743,287.73 141.683,287.73 L141.683,287.73 L141.683,288 L144.239,288 L144.239,287.676 C144.155,287.652 144.077,287.616 144.005,287.568 C143.933,287.52 143.867,287.442 143.807,287.334 L143.807,287.334 L140.891,281.214 C140.831,281.082 140.774,280.965 140.72,280.863 C140.666,280.761 140.639,280.674 140.639,280.602 C140.639,280.518 140.66,280.47 140.702,280.458 C140.744,280.446 140.783,280.428 140.819,280.404 L140.819,280.404 L140.819,280.08 L138.101,280.08 L138.101,280.404 C138.137,280.428 138.17,280.449 138.2,280.467 C138.23,280.485 138.245,280.53 138.245,280.602 C138.245,280.698 138.224,280.797 138.182,280.899 C138.14,281.001 138.083,281.136 138.011,281.304 L138.011,281.304 L135.329,287.154 C135.281,287.25 135.212,287.355 135.122,287.469 C135.032,287.583 134.915,287.652 134.771,287.676 L134.771,287.676 L134.771,288 L137.183,288 Z M140.783,284.688 L138.047,284.688 L139.325,281.664 L140.783,284.688 Z M149.369,288.054 C149.777,288.054 150.212,288.024 150.674,287.964 C151.136,287.904 151.559,287.778 151.943,287.586 C152.327,287.394 152.648,287.13 152.906,286.794 C153.164,286.458 153.293,286.026 153.293,285.498 C153.293,284.97 153.146,284.556 152.852,284.256 C152.558,283.956 152.189,283.728 151.745,283.572 C151.301,283.416 150.821,283.305 150.305,283.239 C149.789,283.173 149.309,283.107 148.865,283.041 C148.421,282.975 148.052,282.885 147.758,282.771 C147.464,282.657 147.317,282.468 147.317,282.204 C147.317,282.036 147.365,281.895 147.461,281.781 C147.557,281.667 147.689,281.574 147.857,281.502 C148.025,281.43 148.217,281.379 148.433,281.349 C148.649,281.319 148.877,281.304 149.117,281.304 C149.741,281.304 150.305,281.376 150.809,281.52 C151.313,281.664 151.685,281.838 151.925,282.042 C152.021,282.114 152.075,282.186 152.087,282.258 C152.099,282.33 152.111,282.402 152.123,282.474 L152.123,282.474 L152.447,282.582 L153.347,280.89 L153.149,280.692 C153.077,280.728 153.017,280.761 152.969,280.791 C152.921,280.821 152.849,280.836 152.753,280.836 C152.669,280.836 152.54,280.791 152.366,280.701 C152.192,280.611 151.967,280.512 151.691,280.404 C151.415,280.296 151.076,280.197 150.674,280.107 C150.272,280.017 149.789,279.972 149.225,279.972 C148.073,279.972 147.179,280.2 146.543,280.656 C145.907,281.112 145.589,281.724 145.589,282.492 C145.589,283.008 145.736,283.407 146.03,283.689 C146.324,283.971 146.693,284.187 147.137,284.337 C147.581,284.487 148.061,284.595 148.577,284.661 C149.093,284.727 149.573,284.793 150.017,284.859 C150.461,284.925 150.83,285.018 151.124,285.138 C151.418,285.258 151.565,285.45 151.565,285.714 C151.565,285.942 151.481,286.125 151.313,286.263 C151.145,286.401 150.941,286.509 150.701,286.587 C150.461,286.665 150.218,286.716 149.972,286.74 C149.726,286.764 149.519,286.776 149.351,286.776 C149.171,286.776 148.922,286.746 148.604,286.686 C148.286,286.626 147.968,286.545 147.65,286.443 C147.332,286.341 147.059,286.215 146.831,286.065 C146.603,285.915 146.489,285.75 146.489,285.57 C146.489,285.51 146.492,285.453 146.498,285.399 C146.504,285.345 146.507,285.294 146.507,285.246 L146.507,285.246 L146.165,285.156 L145.337,287.172 L145.589,287.352 C145.649,287.28 145.721,287.244 145.805,287.244 C145.853,287.244 145.991,287.289 146.219,287.379 C146.447,287.469 146.726,287.565 147.056,287.667 C147.386,287.769 147.752,287.859 148.154,287.937 C148.556,288.015 148.961,288.054 149.369,288.054 Z M168.989,288.18 L168.989,286.29 L168.665,286.29 C168.665,286.542 168.527,286.668 168.251,286.668 L168.251,286.668 L163.949,286.668 L168.971,280.404 L168.971,280.08 L161.807,280.08 C161.507,280.08 161.357,279.942 161.357,279.666 L161.357,279.666 L161.033,279.666 L161.033,281.772 L161.357,281.772 C161.357,281.676 161.393,281.592 161.465,281.52 C161.537,281.448 161.651,281.412 161.807,281.412 L161.807,281.412 L165.929,281.412 L161.033,287.676 L161.033,288 L168.251,288 C168.527,288 168.665,288.06 168.665,288.18 L168.665,288.18 L168.989,288.18 Z M176.081,288.054 C176.801,288.054 177.428,287.979 177.962,287.829 C178.496,287.679 178.934,287.472 179.276,287.208 C179.618,286.944 179.873,286.641 180.041,286.299 C180.209,285.957 180.293,285.6 180.293,285.228 L180.293,285.228 L180.293,280.674 C180.293,280.494 180.425,280.404 180.689,280.404 L180.689,280.404 L180.689,280.08 L178.187,280.08 L178.187,280.404 C178.487,280.404 178.637,280.494 178.637,280.674 L178.637,280.674 L178.637,284.796 C178.637,285.372 178.427,285.834 178.007,286.182 C177.587,286.53 176.945,286.704 176.081,286.704 C175.217,286.704 174.575,286.53 174.155,286.182 C173.735,285.834 173.525,285.372 173.525,284.796 L173.525,284.796 L173.525,280.674 C173.525,280.494 173.657,280.404 173.921,280.404 L173.921,280.404 L173.921,280.08 L171.347,280.08 L171.347,280.404 C171.551,280.404 171.689,280.425 171.761,280.467 C171.833,280.509 171.869,280.578 171.869,280.674 L171.869,280.674 L171.869,285.228 C171.869,285.6 171.953,285.957 172.121,286.299 C172.289,286.641 172.544,286.944 172.886,287.208 C173.228,287.472 173.666,287.679 174.2,287.829 C174.734,287.979 175.361,288.054 176.081,288.054 Z M185.729,288 L185.729,287.676 C185.525,287.676 185.423,287.586 185.423,287.406 L185.423,287.406 L185.423,282.348 L185.441,282.348 L188.339,288 L188.483,288 L191.543,282.348 L191.579,282.348 L191.579,287.406 C191.615,287.586 191.507,287.676 191.255,287.676 L191.255,287.676 L191.255,288 L193.343,288 L193.343,287.676 C193.283,287.676 193.226,287.655 193.172,287.613 C193.118,287.571 193.091,287.502 193.091,287.406 L193.091,287.406 L193.091,280.638 C193.091,280.542 193.118,280.479 193.172,280.449 C193.226,280.419 193.283,280.404 193.343,280.404 L193.343,280.404 L193.343,280.08 L190.805,280.08 L190.805,280.404 C190.901,280.404 190.949,280.458 190.949,280.566 C190.949,280.602 190.925,280.665 190.877,280.755 C190.829,280.845 190.763,280.962 190.679,281.106 L190.679,281.106 L188.465,285.138 L186.269,281.088 C186.185,280.944 186.122,280.833 186.08,280.755 C186.038,280.677 186.017,280.614 186.017,280.566 C186.017,280.458 186.077,280.404 186.197,280.404 L186.197,280.404 L186.197,280.08 L183.695,280.08 L183.695,280.404 C183.779,280.404 183.836,280.422 183.866,280.458 C183.896,280.494 183.911,280.596 183.911,280.764 L183.911,280.764 L183.911,287.352 C183.911,287.484 183.89,287.568 183.848,287.604 C183.806,287.64 183.755,287.664 183.695,287.676 L183.695,287.676 L183.695,288 L185.729,288 Z M198.779,288 L198.779,287.676 C198.527,287.676 198.401,287.586 198.401,287.406 L198.401,287.406 L198.401,284.706 L201.461,284.706 C202.433,284.706 203.162,284.541 203.648,284.211 C204.134,283.881 204.377,283.284 204.377,282.42 C204.377,281.556 204.134,280.95 203.648,280.602 C203.162,280.254 202.433,280.08 201.461,280.08 L201.461,280.08 L196.223,280.08 L196.223,280.404 C196.523,280.404 196.673,280.494 196.673,280.674 L196.673,280.674 L196.673,287.406 C196.673,287.586 196.523,287.676 196.223,287.676 L196.223,287.676 L196.223,288 L198.779,288 Z M201.425,283.374 L198.401,283.374 L198.401,281.412 L201.425,281.412 C201.773,281.412 202.064,281.487 202.298,281.637 C202.532,281.787 202.649,282.048 202.649,282.42 C202.649,282.804 202.532,283.059 202.298,283.185 C202.064,283.311 201.773,283.374 201.425,283.374 L201.425,283.374 Z M213.935,288.198 L213.935,286.308 L213.611,286.308 C213.611,286.416 213.563,286.503 213.467,286.569 C213.371,286.635 213.251,286.668 213.107,286.668 L213.107,286.668 L208.499,286.668 L208.499,284.544 L211.127,284.544 C211.367,284.544 211.553,284.559 211.685,284.589 C211.817,284.619 211.865,284.7 211.829,284.832 L211.829,284.832 L212.189,284.832 L212.189,282.924 L211.865,282.924 C211.865,283.056 211.817,283.137 211.721,283.167 C211.625,283.197 211.475,283.212 211.271,283.212 L211.271,283.212 L208.499,283.212 L208.499,281.412 L212.891,281.412 C213.263,281.412 213.449,281.526 213.449,281.754 L213.449,281.754 L213.773,281.754 L213.773,279.756 L213.449,279.756 C213.449,279.972 213.263,280.08 212.891,280.08 L212.891,280.08 L206.501,280.08 L206.501,280.404 C206.561,280.404 206.621,280.425 206.681,280.467 C206.741,280.509 206.771,280.578 206.771,280.674 L206.771,280.674 L206.771,287.406 C206.771,287.502 206.741,287.571 206.681,287.613 C206.621,287.655 206.561,287.676 206.501,287.676 L206.501,287.676 L206.501,288 L213.107,288 C213.251,288 213.371,288.006 213.467,288.018 C213.563,288.03 213.611,288.09 213.611,288.198 L213.611,288.198 L213.935,288.198 Z M221.315,288 C222.023,288 222.623,287.886 223.115,287.658 C223.607,287.43 224.009,287.133 224.321,286.767 C224.633,286.401 224.861,285.981 225.005,285.507 C225.149,285.033 225.221,284.544 225.221,284.04 C225.221,283.536 225.146,283.047 224.996,282.573 C224.846,282.099 224.612,281.679 224.294,281.313 C223.976,280.947 223.565,280.65 223.061,280.422 C222.557,280.194 221.951,280.08 221.243,280.08 L221.243,280.08 L216.239,280.08 L216.239,280.404 C216.515,280.404 216.653,280.494 216.653,280.674 L216.653,280.674 L216.653,287.406 C216.653,287.586 216.515,287.676 216.239,287.676 L216.239,287.676 L216.239,288 L221.315,288 Z M220.721,286.668 L218.381,286.668 L218.381,281.412 L220.721,281.412 C221.093,281.412 221.447,281.433 221.783,281.475 C222.119,281.517 222.413,281.625 222.665,281.799 C222.917,281.973 223.118,282.231 223.268,282.573 C223.418,282.915 223.493,283.386 223.493,283.986 C223.493,284.586 223.418,285.063 223.268,285.417 C223.118,285.771 222.917,286.041 222.665,286.227 C222.413,286.413 222.119,286.533 221.783,286.587 C221.447,286.641 221.093,286.668 220.721,286.668 L220.721,286.668 Z M228.767,288.054 C229.115,288.054 229.415,287.937 229.667,287.703 C229.919,287.469 230.045,287.178 230.045,286.83 C230.045,286.482 229.919,286.182 229.667,285.93 C229.415,285.678 229.115,285.552 228.767,285.552 C228.419,285.552 228.119,285.678 227.867,285.93 C227.615,286.182 227.489,286.482 227.489,286.83 C227.489,287.178 227.615,287.469 227.867,287.703 C228.119,287.937 228.419,288.054 228.767,288.054 Z M58.19,306 L58.19,305.676 C57.962,305.676 57.848,305.61 57.848,305.478 C57.848,305.37 57.908,305.19 58.028,304.938 L58.028,304.938 L58.676,303.66 L63.068,303.66 L63.752,304.992 C63.848,305.184 63.896,305.34 63.896,305.46 C63.896,305.532 63.86,305.586 63.788,305.622 C63.716,305.658 63.656,305.676 63.608,305.676 L63.608,305.676 L63.608,306 L66.776,306 L66.776,305.676 C66.644,305.616 66.527,305.556 66.425,305.496 C66.323,305.436 66.242,305.34 66.182,305.208 L66.182,305.208 L62.438,297.882 C62.354,297.726 62.291,297.6 62.249,297.504 C62.207,297.408 62.186,297.312 62.186,297.216 C62.186,297.084 62.228,296.997 62.312,296.955 C62.396,296.913 62.48,296.88 62.564,296.856 L62.564,296.856 L62.564,296.532 L59.522,296.532 L59.522,296.856 C59.618,296.88 59.708,296.916 59.792,296.964 C59.876,297.012 59.918,297.096 59.918,297.216 C59.918,297.312 59.885,297.426 59.819,297.558 C59.753,297.69 59.678,297.834 59.594,297.99 L59.594,297.99 L56.264,304.992 C56.18,305.16 56.093,305.31 56.003,305.442 C55.913,305.574 55.79,305.652 55.634,305.676 L55.634,305.676 L55.634,306 L58.19,306 Z M62.42,302.328 L59.216,302.328 L60.908,298.98 L62.42,302.328 Z M73.544,306 C74.252,306 74.852,305.886 75.344,305.658 C75.836,305.43 76.238,305.133 76.55,304.767 C76.862,304.401 77.09,303.981 77.234,303.507 C77.378,303.033 77.45,302.544 77.45,302.04 C77.45,301.536 77.375,301.047 77.225,300.573 C77.075,300.099 76.841,299.679 76.523,299.313 C76.205,298.947 75.794,298.65 75.29,298.422 C74.786,298.194 74.18,298.08 73.472,298.08 L73.472,298.08 L68.468,298.08 L68.468,298.404 C68.744,298.404 68.882,298.494 68.882,298.674 L68.882,298.674 L68.882,305.406 C68.882,305.586 68.744,305.676 68.468,305.676 L68.468,305.676 L68.468,306 L73.544,306 Z M72.95,304.668 L70.61,304.668 L70.61,299.412 L72.95,299.412 C73.322,299.412 73.676,299.433 74.012,299.475 C74.348,299.517 74.642,299.625 74.894,299.799 C75.146,299.973 75.347,300.231 75.497,300.573 C75.647,300.915 75.722,301.386 75.722,301.986 C75.722,302.586 75.647,303.063 75.497,303.417 C75.347,303.771 75.146,304.041 74.894,304.227 C74.642,304.413 74.348,304.533 74.012,304.587 C73.676,304.641 73.322,304.668 72.95,304.668 L72.95,304.668 Z M84.542,306 C85.25,306 85.85,305.886 86.342,305.658 C86.834,305.43 87.236,305.133 87.548,304.767 C87.86,304.401 88.088,303.981 88.232,303.507 C88.376,303.033 88.448,302.544 88.448,302.04 C88.448,301.536 88.373,301.047 88.223,300.573 C88.073,300.099 87.839,299.679 87.521,299.313 C87.203,298.947 86.792,298.65 86.288,298.422 C85.784,298.194 85.178,298.08 84.47,298.08 L84.47,298.08 L79.466,298.08 L79.466,298.404 C79.742,298.404 79.88,298.494 79.88,298.674 L79.88,298.674 L79.88,305.406 C79.88,305.586 79.742,305.676 79.466,305.676 L79.466,305.676 L79.466,306 L84.542,306 Z M83.948,304.668 L81.608,304.668 L81.608,299.412 L83.948,299.412 C84.32,299.412 84.674,299.433 85.01,299.475 C85.346,299.517 85.64,299.625 85.892,299.799 C86.144,299.973 86.345,300.231 86.495,300.573 C86.645,300.915 86.72,301.386 86.72,301.986 C86.72,302.586 86.645,303.063 86.495,303.417 C86.345,303.771 86.144,304.041 85.892,304.227 C85.64,304.413 85.346,304.533 85.01,304.587 C84.674,304.641 84.32,304.668 83.948,304.668 L83.948,304.668 Z M100.436,306 L100.436,305.676 C100.22,305.676 100.112,305.586 100.112,305.406 L100.112,305.406 L100.112,299.412 L102.452,299.412 C102.548,299.412 102.638,299.436 102.722,299.484 C102.806,299.532 102.848,299.61 102.848,299.718 L102.848,299.718 L103.172,299.718 L103.172,297.648 L102.848,297.648 C102.848,297.816 102.806,297.93 102.722,297.99 C102.638,298.05 102.548,298.08 102.452,298.08 L102.452,298.08 L96.044,298.08 C95.948,298.08 95.858,298.05 95.774,297.99 C95.69,297.93 95.648,297.816 95.648,297.648 L95.648,297.648 L95.324,297.648 L95.324,299.718 L95.648,299.718 C95.648,299.61 95.69,299.532 95.774,299.484 C95.858,299.436 95.948,299.412 96.044,299.412 L96.044,299.412 L98.384,299.412 L98.384,305.406 C98.384,305.502 98.354,305.571 98.294,305.613 C98.234,305.655 98.174,305.676 98.114,305.676 L98.114,305.676 L98.114,306 L100.436,306 Z M107.6,306 L107.6,305.676 C107.528,305.676 107.465,305.655 107.411,305.613 C107.357,305.571 107.33,305.502 107.33,305.406 L107.33,305.406 L107.33,302.688 L112.154,302.688 L112.154,305.406 C112.154,305.502 112.127,305.571 112.073,305.613 C112.019,305.655 111.956,305.676 111.884,305.676 L111.884,305.676 L111.884,306 L114.152,306 L114.152,305.676 C114.08,305.676 114.017,305.655 113.963,305.613 C113.909,305.571 113.882,305.502 113.882,305.406 L113.882,305.406 L113.882,298.674 C113.882,298.578 113.909,298.509 113.963,298.467 C114.017,298.425 114.08,298.404 114.152,298.404 L114.152,298.404 L114.152,298.08 L111.884,298.08 L111.884,298.404 C111.956,298.404 112.019,298.425 112.073,298.467 C112.127,298.509 112.154,298.578 112.154,298.674 L112.154,298.674 L112.154,301.212 L107.33,301.212 L107.33,298.674 C107.33,298.578 107.357,298.509 107.411,298.467 C107.465,298.425 107.528,298.404 107.6,298.404 L107.6,298.404 L107.6,298.08 L105.332,298.08 L105.332,298.404 C105.404,298.404 105.467,298.425 105.521,298.467 C105.575,298.509 105.602,298.578 105.602,298.674 L105.602,298.674 L105.602,305.406 C105.602,305.502 105.575,305.571 105.521,305.613 C105.467,305.655 105.404,305.676 105.332,305.676 L105.332,305.676 L105.332,306 L107.6,306 Z M120.11,306 L120.11,305.676 C119.774,305.676 119.606,305.586 119.606,305.406 L119.606,305.406 L119.606,298.674 C119.606,298.494 119.774,298.404 120.11,298.404 L120.11,298.404 L120.11,298.08 L117.374,298.08 L117.374,298.404 C117.566,298.404 117.698,298.425 117.77,298.467 C117.842,298.509 117.878,298.578 117.878,298.674 L117.878,298.674 L117.878,305.406 C117.878,305.502 117.842,305.571 117.77,305.613 C117.698,305.655 117.566,305.676 117.374,305.676 L117.374,305.676 L117.374,306 L120.11,306 Z M126.608,306.054 C127.016,306.054 127.451,306.024 127.913,305.964 C128.375,305.904 128.798,305.778 129.182,305.586 C129.566,305.394 129.887,305.13 130.145,304.794 C130.403,304.458 130.532,304.026 130.532,303.498 C130.532,302.97 130.385,302.556 130.091,302.256 C129.797,301.956 129.428,301.728 128.984,301.572 C128.54,301.416 128.06,301.305 127.544,301.239 C127.028,301.173 126.548,301.107 126.104,301.041 C125.66,300.975 125.291,300.885 124.997,300.771 C124.703,300.657 124.556,300.468 124.556,300.204 C124.556,300.036 124.604,299.895 124.7,299.781 C124.796,299.667 124.928,299.574 125.096,299.502 C125.264,299.43 125.456,299.379 125.672,299.349 C125.888,299.319 126.116,299.304 126.356,299.304 C126.98,299.304 127.544,299.376 128.048,299.52 C128.552,299.664 128.924,299.838 129.164,300.042 C129.26,300.114 129.314,300.186 129.326,300.258 C129.338,300.33 129.35,300.402 129.362,300.474 L129.362,300.474 L129.686,300.582 L130.586,298.89 L130.388,298.692 C130.316,298.728 130.256,298.761 130.208,298.791 C130.16,298.821 130.088,298.836 129.992,298.836 C129.908,298.836 129.779,298.791 129.605,298.701 C129.431,298.611 129.206,298.512 128.93,298.404 C128.654,298.296 128.315,298.197 127.913,298.107 C127.511,298.017 127.028,297.972 126.464,297.972 C125.312,297.972 124.418,298.2 123.782,298.656 C123.146,299.112 122.828,299.724 122.828,300.492 C122.828,301.008 122.975,301.407 123.269,301.689 C123.563,301.971 123.932,302.187 124.376,302.337 C124.82,302.487 125.3,302.595 125.816,302.661 C126.332,302.727 126.812,302.793 127.256,302.859 C127.7,302.925 128.069,303.018 128.363,303.138 C128.657,303.258 128.804,303.45 128.804,303.714 C128.804,303.942 128.72,304.125 128.552,304.263 C128.384,304.401 128.18,304.509 127.94,304.587 C127.7,304.665 127.457,304.716 127.211,304.74 C126.965,304.764 126.758,304.776 126.59,304.776 C126.41,304.776 126.161,304.746 125.843,304.686 C125.525,304.626 125.207,304.545 124.889,304.443 C124.571,304.341 124.298,304.215 124.07,304.065 C123.842,303.915 123.728,303.75 123.728,303.57 C123.728,303.51 123.731,303.453 123.737,303.399 C123.743,303.345 123.746,303.294 123.746,303.246 L123.746,303.246 L123.404,303.156 L122.576,305.172 L122.828,305.352 C122.888,305.28 122.96,305.244 123.044,305.244 C123.092,305.244 123.23,305.289 123.458,305.379 C123.686,305.469 123.965,305.565 124.295,305.667 C124.625,305.769 124.991,305.859 125.393,305.937 C125.795,306.015 126.2,306.054 126.608,306.054 Z M142.934,306 L142.934,305.676 C142.718,305.676 142.61,305.586 142.61,305.406 L142.61,305.406 L142.61,299.412 L144.95,299.412 C145.046,299.412 145.136,299.436 145.22,299.484 C145.304,299.532 145.346,299.61 145.346,299.718 L145.346,299.718 L145.67,299.718 L145.67,297.648 L145.346,297.648 C145.346,297.816 145.304,297.93 145.22,297.99 C145.136,298.05 145.046,298.08 144.95,298.08 L144.95,298.08 L138.542,298.08 C138.446,298.08 138.356,298.05 138.272,297.99 C138.188,297.93 138.146,297.816 138.146,297.648 L138.146,297.648 L137.822,297.648 L137.822,299.718 L138.146,299.718 C138.146,299.61 138.188,299.532 138.272,299.484 C138.356,299.436 138.446,299.412 138.542,299.412 L138.542,299.412 L140.882,299.412 L140.882,305.406 C140.882,305.502 140.852,305.571 140.792,305.613 C140.732,305.655 140.672,305.676 140.612,305.676 L140.612,305.676 L140.612,306 L142.934,306 Z M151.736,306.054 C152.396,306.054 153.017,305.979 153.599,305.829 C154.181,305.679 154.688,305.436 155.12,305.1 C155.552,304.764 155.894,304.341 156.146,303.831 C156.398,303.321 156.524,302.724 156.524,302.04 C156.524,301.356 156.398,300.759 156.146,300.249 C155.894,299.739 155.552,299.316 155.12,298.98 C154.688,298.644 154.181,298.392 153.599,298.224 C153.017,298.056 152.396,297.972 151.736,297.972 C151.076,297.972 150.455,298.056 149.873,298.224 C149.291,298.392 148.784,298.644 148.352,298.98 C147.92,299.316 147.578,299.739 147.326,300.249 C147.074,300.759 146.948,301.356 146.948,302.04 C146.948,302.724 147.074,303.321 147.326,303.831 C147.578,304.341 147.92,304.764 148.352,305.1 C148.784,305.436 149.291,305.679 149.873,305.829 C150.455,305.979 151.076,306.054 151.736,306.054 Z M151.736,304.776 C151.352,304.776 150.977,304.713 150.611,304.587 C150.245,304.461 149.918,304.281 149.63,304.047 C149.342,303.813 149.111,303.528 148.937,303.192 C148.763,302.856 148.676,302.472 148.676,302.04 C148.676,301.608 148.763,301.224 148.937,300.888 C149.111,300.552 149.342,300.267 149.63,300.033 C149.918,299.799 150.245,299.619 150.611,299.493 C150.977,299.367 151.352,299.304 151.736,299.304 C152.12,299.304 152.495,299.367 152.861,299.493 C153.227,299.619 153.554,299.799 153.842,300.033 C154.13,300.267 154.361,300.552 154.535,300.888 C154.709,301.224 154.796,301.608 154.796,302.04 C154.796,302.472 154.709,302.856 154.535,303.192 C154.361,303.528 154.13,303.813 153.842,304.047 C153.554,304.281 153.227,304.461 152.861,304.587 C152.495,304.713 152.12,304.776 151.736,304.776 Z M168.944,306 L168.944,305.676 C168.716,305.676 168.602,305.586 168.602,305.406 L168.602,305.406 L168.602,302.706 L171.356,299.142 C171.488,298.974 171.641,298.809 171.815,298.647 C171.989,298.485 172.148,298.404 172.292,298.404 L172.292,298.404 L172.292,298.08 L169.538,298.08 L169.538,298.404 C169.598,298.404 169.658,298.416 169.718,298.44 C169.778,298.464 169.808,298.524 169.808,298.62 C169.808,298.692 169.781,298.767 169.727,298.845 C169.673,298.923 169.592,299.04 169.484,299.196 L169.484,299.196 L167.882,301.428 L166.064,299.052 C166.004,298.968 165.95,298.896 165.902,298.836 C165.854,298.776 165.83,298.71 165.83,298.638 C165.83,298.566 165.866,298.509 165.938,298.467 C166.01,298.425 166.076,298.404 166.136,298.404 L166.136,298.404 L166.136,298.08 L163.166,298.08 L163.166,298.404 C163.274,298.404 163.388,298.428 163.508,298.476 C163.628,298.524 163.73,298.602 163.814,298.71 L163.814,298.71 L166.874,302.634 L166.874,305.406 C166.874,305.586 166.766,305.676 166.55,305.676 L166.55,305.676 L166.55,306 L168.944,306 Z M178.232,306.054 C178.892,306.054 179.513,305.979 180.095,305.829 C180.677,305.679 181.184,305.436 181.616,305.1 C182.048,304.764 182.39,304.341 182.642,303.831 C182.894,303.321 183.02,302.724 183.02,302.04 C183.02,301.356 182.894,300.759 182.642,300.249 C182.39,299.739 182.048,299.316 181.616,298.98 C181.184,298.644 180.677,298.392 180.095,298.224 C179.513,298.056 178.892,297.972 178.232,297.972 C177.572,297.972 176.951,298.056 176.369,298.224 C175.787,298.392 175.28,298.644 174.848,298.98 C174.416,299.316 174.074,299.739 173.822,300.249 C173.57,300.759 173.444,301.356 173.444,302.04 C173.444,302.724 173.57,303.321 173.822,303.831 C174.074,304.341 174.416,304.764 174.848,305.1 C175.28,305.436 175.787,305.679 176.369,305.829 C176.951,305.979 177.572,306.054 178.232,306.054 Z M178.232,304.776 C177.848,304.776 177.473,304.713 177.107,304.587 C176.741,304.461 176.414,304.281 176.126,304.047 C175.838,303.813 175.607,303.528 175.433,303.192 C175.259,302.856 175.172,302.472 175.172,302.04 C175.172,301.608 175.259,301.224 175.433,300.888 C175.607,300.552 175.838,300.267 176.126,300.033 C176.414,299.799 176.741,299.619 177.107,299.493 C177.473,299.367 177.848,299.304 178.232,299.304 C178.616,299.304 178.991,299.367 179.357,299.493 C179.723,299.619 180.05,299.799 180.338,300.033 C180.626,300.267 180.857,300.552 181.031,300.888 C181.205,301.224 181.292,301.608 181.292,302.04 C181.292,302.472 181.205,302.856 181.031,303.192 C180.857,303.528 180.626,303.813 180.338,304.047 C180.05,304.281 179.723,304.461 179.357,304.587 C178.991,304.713 178.616,304.776 178.232,304.776 Z M189.806,306.054 C190.526,306.054 191.153,305.979 191.687,305.829 C192.221,305.679 192.659,305.472 193.001,305.208 C193.343,304.944 193.598,304.641 193.766,304.299 C193.934,303.957 194.018,303.6 194.018,303.228 L194.018,303.228 L194.018,298.674 C194.018,298.494 194.15,298.404 194.414,298.404 L194.414,298.404 L194.414,298.08 L191.912,298.08 L191.912,298.404 C192.212,298.404 192.362,298.494 192.362,298.674 L192.362,298.674 L192.362,302.796 C192.362,303.372 192.152,303.834 191.732,304.182 C191.312,304.53 190.67,304.704 189.806,304.704 C188.942,304.704 188.3,304.53 187.88,304.182 C187.46,303.834 187.25,303.372 187.25,302.796 L187.25,302.796 L187.25,298.674 C187.25,298.494 187.382,298.404 187.646,298.404 L187.646,298.404 L187.646,298.08 L185.072,298.08 L185.072,298.404 C185.276,298.404 185.414,298.425 185.486,298.467 C185.558,298.509 185.594,298.578 185.594,298.674 L185.594,298.674 L185.594,303.228 C185.594,303.6 185.678,303.957 185.846,304.299 C186.014,304.641 186.269,304.944 186.611,305.208 C186.953,305.472 187.391,305.679 187.925,305.829 C188.459,305.979 189.086,306.054 189.806,306.054 Z M199.544,306 L199.544,305.676 C199.472,305.676 199.397,305.655 199.319,305.613 C199.241,305.571 199.202,305.502 199.202,305.406 L199.202,305.406 L199.202,302.832 L201.704,302.832 L203.126,304.956 C203.306,305.208 203.396,305.394 203.396,305.514 C203.396,305.622 203.318,305.676 203.162,305.676 L203.162,305.676 L203.162,306 L205.916,306 L205.916,305.676 C205.784,305.64 205.661,305.589 205.547,305.523 C205.433,305.457 205.328,305.358 205.232,305.226 L205.232,305.226 L203.468,302.652 C203.72,302.592 203.966,302.505 204.206,302.391 C204.446,302.277 204.665,302.127 204.863,301.941 C205.061,301.755 205.22,301.536 205.34,301.284 C205.46,301.032 205.52,300.744 205.52,300.42 C205.52,299.568 205.22,298.965 204.62,298.611 C204.02,298.257 203.186,298.08 202.118,298.08 L202.118,298.08 L197.15,298.08 L197.15,298.404 C197.366,298.404 197.474,298.494 197.474,298.674 L197.474,298.674 L197.474,305.406 C197.474,305.586 197.366,305.676 197.15,305.676 L197.15,305.676 L197.15,306 L199.544,306 Z M202.082,301.5 L199.238,301.5 L199.238,299.412 L202.082,299.412 C202.694,299.412 203.141,299.499 203.423,299.673 C203.705,299.847 203.846,300.084 203.846,300.384 C203.846,301.128 203.258,301.5 202.082,301.5 L202.082,301.5 Z M74.354,324.054 C74.762,324.054 75.197,324.024 75.659,323.964 C76.121,323.904 76.544,323.778 76.928,323.586 C77.312,323.394 77.633,323.13 77.891,322.794 C78.149,322.458 78.278,322.026 78.278,321.498 C78.278,320.97 78.131,320.556 77.837,320.256 C77.543,319.956 77.174,319.728 76.73,319.572 C76.286,319.416 75.806,319.305 75.29,319.239 C74.774,319.173 74.294,319.107 73.85,319.041 C73.406,318.975 73.037,318.885 72.743,318.771 C72.449,318.657 72.302,318.468 72.302,318.204 C72.302,318.036 72.35,317.895 72.446,317.781 C72.542,317.667 72.674,317.574 72.842,317.502 C73.01,317.43 73.202,317.379 73.418,317.349 C73.634,317.319 73.862,317.304 74.102,317.304 C74.726,317.304 75.29,317.376 75.794,317.52 C76.298,317.664 76.67,317.838 76.91,318.042 C77.006,318.114 77.06,318.186 77.072,318.258 L77.072,318.258 L77.108,318.474 L77.432,318.582 L78.332,316.89 L78.134,316.692 C78.062,316.728 78.002,316.761 77.954,316.791 C77.906,316.821 77.834,316.836 77.738,316.836 C77.654,316.836 77.525,316.791 77.351,316.701 C77.177,316.611 76.952,316.512 76.676,316.404 C76.4,316.296 76.061,316.197 75.659,316.107 C75.257,316.017 74.774,315.972 74.21,315.972 C73.058,315.972 72.164,316.2 71.528,316.656 C70.892,317.112 70.574,317.724 70.574,318.492 C70.574,319.008 70.721,319.407 71.015,319.689 C71.309,319.971 71.678,320.187 72.122,320.337 C72.566,320.487 73.046,320.595 73.562,320.661 C74.078,320.727 74.558,320.793 75.002,320.859 C75.446,320.925 75.815,321.018 76.109,321.138 C76.403,321.258 76.55,321.45 76.55,321.714 C76.55,321.942 76.466,322.125 76.298,322.263 C76.13,322.401 75.926,322.509 75.686,322.587 C75.446,322.665 75.203,322.716 74.957,322.74 C74.711,322.764 74.504,322.776 74.336,322.776 C74.156,322.776 73.907,322.746 73.589,322.686 C73.271,322.626 72.953,322.545 72.635,322.443 C72.317,322.341 72.044,322.215 71.816,322.065 C71.588,321.915 71.474,321.75 71.474,321.57 C71.474,321.51 71.477,321.453 71.483,321.399 C71.489,321.345 71.492,321.294 71.492,321.246 L71.492,321.246 L71.15,321.156 L70.322,323.172 L70.574,323.352 C70.634,323.28 70.706,323.244 70.79,323.244 C70.838,323.244 70.976,323.289 71.204,323.379 C71.432,323.469 71.711,323.565 72.041,323.667 C72.371,323.769 72.737,323.859 73.139,323.937 C73.541,324.015 73.946,324.054 74.354,324.054 Z M85.712,324 L85.712,323.676 C85.484,323.676 85.37,323.586 85.37,323.406 L85.37,323.406 L85.37,320.706 L88.124,317.142 C88.256,316.974 88.409,316.809 88.583,316.647 C88.757,316.485 88.916,316.404 89.06,316.404 L89.06,316.404 L89.06,316.08 L86.306,316.08 L86.306,316.404 C86.366,316.404 86.426,316.416 86.486,316.44 C86.546,316.464 86.576,316.524 86.576,316.62 C86.576,316.692 86.549,316.767 86.495,316.845 C86.441,316.923 86.36,317.04 86.252,317.196 L86.252,317.196 L84.65,319.428 L82.832,317.052 C82.772,316.968 82.718,316.896 82.67,316.836 C82.622,316.776 82.598,316.71 82.598,316.638 C82.598,316.566 82.634,316.509 82.706,316.467 C82.778,316.425 82.844,316.404 82.904,316.404 L82.904,316.404 L82.904,316.08 L79.934,316.08 L79.934,316.404 C80.042,316.404 80.156,316.428 80.276,316.476 C80.396,316.524 80.498,316.602 80.582,316.71 L80.582,316.71 L83.642,320.634 L83.642,323.406 C83.642,323.586 83.534,323.676 83.318,323.676 L83.318,323.676 L83.318,324 L85.712,324 Z M93.218,324 L93.218,323.676 C93.014,323.676 92.912,323.586 92.912,323.406 L92.912,323.406 L92.912,318.348 L92.93,318.348 L95.828,324 L95.972,324 L99.032,318.348 L99.068,318.348 L99.068,323.406 C99.104,323.586 98.996,323.676 98.744,323.676 L98.744,323.676 L98.744,324 L100.832,324 L100.832,323.676 C100.772,323.676 100.715,323.655 100.661,323.613 C100.607,323.571 100.58,323.502 100.58,323.406 L100.58,323.406 L100.58,316.638 C100.58,316.542 100.607,316.479 100.661,316.449 C100.715,316.419 100.772,316.404 100.832,316.404 L100.832,316.404 L100.832,316.08 L98.294,316.08 L98.294,316.404 C98.39,316.404 98.438,316.458 98.438,316.566 C98.438,316.602 98.414,316.665 98.366,316.755 C98.318,316.845 98.252,316.962 98.168,317.106 L98.168,317.106 L95.954,321.138 L93.758,317.088 C93.674,316.944 93.611,316.833 93.569,316.755 C93.527,316.677 93.506,316.614 93.506,316.566 C93.506,316.458 93.566,316.404 93.686,316.404 L93.686,316.404 L93.686,316.08 L91.184,316.08 L91.184,316.404 C91.268,316.404 91.325,316.422 91.355,316.458 C91.385,316.494 91.4,316.596 91.4,316.764 L91.4,316.764 L91.4,323.352 C91.4,323.484 91.379,323.568 91.337,323.604 C91.295,323.64 91.244,323.664 91.184,323.676 L91.184,323.676 L91.184,324 L93.218,324 Z M106.268,324 L106.268,323.676 C106.016,323.676 105.89,323.586 105.89,323.406 L105.89,323.406 L105.89,320.706 L108.95,320.706 C109.922,320.706 110.651,320.541 111.137,320.211 C111.623,319.881 111.866,319.284 111.866,318.42 C111.866,317.556 111.623,316.95 111.137,316.602 C110.651,316.254 109.922,316.08 108.95,316.08 L108.95,316.08 L103.712,316.08 L103.712,316.404 C104.012,316.404 104.162,316.494 104.162,316.674 L104.162,316.674 L104.162,323.406 C104.162,323.586 104.012,323.676 103.712,323.676 L103.712,323.676 L103.712,324 L106.268,324 Z M108.914,319.374 L105.89,319.374 L105.89,317.412 L108.914,317.412 C109.262,317.412 109.553,317.487 109.787,317.637 C110.021,317.787 110.138,318.048 110.138,318.42 C110.138,318.804 110.021,319.059 109.787,319.185 C109.553,319.311 109.262,319.374 108.914,319.374 L108.914,319.374 Z M118.202,324 L118.202,323.676 C117.986,323.676 117.878,323.586 117.878,323.406 L117.878,323.406 L117.878,317.412 L120.218,317.412 C120.314,317.412 120.404,317.436 120.488,317.484 C120.572,317.532 120.614,317.61 120.614,317.718 L120.614,317.718 L120.938,317.718 L120.938,315.648 L120.614,315.648 C120.614,315.816 120.572,315.93 120.488,315.99 C120.404,316.05 120.314,316.08 120.218,316.08 L120.218,316.08 L113.81,316.08 C113.714,316.08 113.624,316.05 113.54,315.99 C113.456,315.93 113.414,315.816 113.414,315.648 L113.414,315.648 L113.09,315.648 L113.09,317.718 L113.414,317.718 C113.414,317.61 113.456,317.532 113.54,317.484 C113.624,317.436 113.714,317.412 113.81,317.412 L113.81,317.412 L116.15,317.412 L116.15,323.406 C116.15,323.502 116.12,323.571 116.06,323.613 C116,323.655 115.94,323.676 115.88,323.676 L115.88,323.676 L115.88,324 L118.202,324 Z M127.004,324.054 C127.664,324.054 128.285,323.979 128.867,323.829 C129.449,323.679 129.956,323.436 130.388,323.1 C130.82,322.764 131.162,322.341 131.414,321.831 C131.666,321.321 131.792,320.724 131.792,320.04 C131.792,319.356 131.666,318.759 131.414,318.249 C131.162,317.739 130.82,317.316 130.388,316.98 C129.956,316.644 129.449,316.392 128.867,316.224 C128.285,316.056 127.664,315.972 127.004,315.972 C126.344,315.972 125.723,316.056 125.141,316.224 C124.559,316.392 124.052,316.644 123.62,316.98 C123.188,317.316 122.846,317.739 122.594,318.249 C122.342,318.759 122.216,319.356 122.216,320.04 C122.216,320.724 122.342,321.321 122.594,321.831 C122.846,322.341 123.188,322.764 123.62,323.1 C124.052,323.436 124.559,323.679 125.141,323.829 C125.723,323.979 126.344,324.054 127.004,324.054 Z M127.004,322.776 C126.62,322.776 126.245,322.713 125.879,322.587 C125.513,322.461 125.186,322.281 124.898,322.047 C124.61,321.813 124.379,321.528 124.205,321.192 C124.031,320.856 123.944,320.472 123.944,320.04 C123.944,319.608 124.031,319.224 124.205,318.888 C124.379,318.552 124.61,318.267 124.898,318.033 C125.186,317.799 125.513,317.619 125.879,317.493 C126.245,317.367 126.62,317.304 127.004,317.304 C127.388,317.304 127.763,317.367 128.129,317.493 C128.495,317.619 128.822,317.799 129.11,318.033 C129.398,318.267 129.629,318.552 129.803,318.888 C129.977,319.224 130.064,319.608 130.064,320.04 C130.064,320.472 129.977,320.856 129.803,321.192 C129.629,321.528 129.398,321.813 129.11,322.047 C128.822,322.281 128.495,322.461 128.129,322.587 C127.763,322.713 127.388,322.776 127.004,322.776 Z M136.22,324 L136.22,323.676 C136.016,323.676 135.914,323.586 135.914,323.406 L135.914,323.406 L135.914,318.348 L135.932,318.348 L138.83,324 L138.974,324 L142.034,318.348 L142.07,318.348 L142.07,323.406 C142.106,323.586 141.998,323.676 141.746,323.676 L141.746,323.676 L141.746,324 L143.834,324 L143.834,323.676 C143.774,323.676 143.717,323.655 143.663,323.613 C143.609,323.571 143.582,323.502 143.582,323.406 L143.582,323.406 L143.582,316.638 C143.582,316.542 143.609,316.479 143.663,316.449 C143.717,316.419 143.774,316.404 143.834,316.404 L143.834,316.404 L143.834,316.08 L141.296,316.08 L141.296,316.404 C141.392,316.404 141.44,316.458 141.44,316.566 C141.44,316.602 141.416,316.665 141.368,316.755 C141.32,316.845 141.254,316.962 141.17,317.106 L141.17,317.106 L138.956,321.138 L136.76,317.088 C136.676,316.944 136.613,316.833 136.571,316.755 C136.529,316.677 136.508,316.614 136.508,316.566 C136.508,316.458 136.568,316.404 136.688,316.404 L136.688,316.404 L136.688,316.08 L134.186,316.08 L134.186,316.404 C134.27,316.404 134.327,316.422 134.357,316.458 C134.387,316.494 134.402,316.596 134.402,316.764 L134.402,316.764 L134.402,323.352 C134.402,323.484 134.381,323.568 134.339,323.604 C134.297,323.64 134.246,323.664 134.186,323.676 L134.186,323.676 L134.186,324 L136.22,324 Z M154.76,324 L154.76,323.676 C154.508,323.676 154.382,323.586 154.382,323.406 L154.382,323.406 L154.382,320.706 L157.442,320.706 C158.414,320.706 159.143,320.541 159.629,320.211 C160.115,319.881 160.358,319.284 160.358,318.42 C160.358,317.556 160.115,316.95 159.629,316.602 C159.143,316.254 158.414,316.08 157.442,316.08 L157.442,316.08 L152.204,316.08 L152.204,316.404 C152.504,316.404 152.654,316.494 152.654,316.674 L152.654,316.674 L152.654,323.406 C152.654,323.586 152.504,323.676 152.204,323.676 L152.204,323.676 L152.204,324 L154.76,324 Z M157.406,319.374 L154.382,319.374 L154.382,317.412 L157.406,317.412 C157.754,317.412 158.045,317.487 158.279,317.637 C158.513,317.787 158.63,318.048 158.63,318.42 C158.63,318.804 158.513,319.059 158.279,319.185 C158.045,319.311 157.754,319.374 157.406,319.374 L157.406,319.374 Z M165.362,324 L165.362,323.676 C165.026,323.676 164.858,323.586 164.858,323.406 L164.858,323.406 L164.858,316.674 C164.858,316.494 165.026,316.404 165.362,316.404 L165.362,316.404 L165.362,316.08 L162.626,316.08 L162.626,316.404 C162.818,316.404 162.95,316.425 163.022,316.467 C163.094,316.509 163.13,316.578 163.13,316.674 L163.13,316.674 L163.13,323.406 C163.13,323.502 163.094,323.571 163.022,323.613 C162.95,323.655 162.818,323.676 162.626,323.676 L162.626,323.676 L162.626,324 L165.362,324 Z M176.252,324.18 L176.252,322.29 L175.928,322.29 C175.928,322.41 175.88,322.503 175.784,322.569 C175.688,322.635 175.568,322.668 175.424,322.668 L175.424,322.668 L170.564,322.668 L170.564,316.674 C170.564,316.494 170.702,316.404 170.978,316.404 L170.978,316.404 L170.978,316.08 L168.368,316.08 L168.368,316.404 C168.68,316.404 168.836,316.494 168.836,316.674 L168.836,316.674 L168.836,323.406 C168.836,323.586 168.68,323.676 168.368,323.676 L168.368,323.676 L168.368,324 L175.424,324 C175.568,324 175.688,324.006 175.784,324.018 C175.88,324.03 175.928,324.084 175.928,324.18 L175.928,324.18 L176.252,324.18 Z M185.918,324.198 L185.918,322.308 L185.594,322.308 C185.594,322.416 185.546,322.503 185.45,322.569 C185.354,322.635 185.234,322.668 185.09,322.668 L185.09,322.668 L180.482,322.668 L180.482,320.544 L183.11,320.544 C183.35,320.544 183.536,320.559 183.668,320.589 C183.8,320.619 183.848,320.7 183.812,320.832 L183.812,320.832 L184.172,320.832 L184.172,318.924 L183.848,318.924 C183.848,319.056 183.8,319.137 183.704,319.167 C183.608,319.197 183.458,319.212 183.254,319.212 L183.254,319.212 L180.482,319.212 L180.482,317.412 L184.874,317.412 C185.246,317.412 185.432,317.526 185.432,317.754 L185.432,317.754 L185.756,317.754 L185.756,315.756 L185.432,315.756 C185.432,315.972 185.246,316.08 184.874,316.08 L184.874,316.08 L178.484,316.08 L178.484,316.404 C178.544,316.404 178.604,316.425 178.664,316.467 C178.724,316.509 178.754,316.578 178.754,316.674 L178.754,316.674 L178.754,323.406 C178.754,323.502 178.724,323.571 178.664,323.613 C178.604,323.655 178.544,323.676 178.484,323.676 L178.484,323.676 L178.484,324 L185.09,324 C185.234,324 185.354,324.006 185.45,324.018 C185.546,324.03 185.594,324.09 185.594,324.198 L185.594,324.198 L185.918,324.198 Z M189.752,324.054 C190.1,324.054 190.4,323.937 190.652,323.703 C190.904,323.469 191.03,323.178 191.03,322.83 C191.03,322.482 190.904,322.182 190.652,321.93 C190.4,321.678 190.1,321.552 189.752,321.552 C189.404,321.552 189.104,321.678 188.852,321.93 C188.6,322.182 188.474,322.482 188.474,322.83 C188.474,323.178 188.6,323.469 188.852,323.703 C189.104,323.937 189.404,324.054 189.752,324.054 Z" id="ThisisdefinitelynotbecauseIwaszumped.Addthistoyoursymptompile." fill="#000000" fill-rule="nonzero"></path>
    </g>
</svg>