<?xml version="1.0" encoding="UTF-8"?>
<svg width="262px" height="360px" viewBox="0 0 262 360" version="1.1" xmlns="http://www.w3.org/2000/svg" xmlns:xlink="http://www.w3.org/1999/xlink">
    <title>Paper Towel 2</title>
    <g id="Paper-Towel-2" stroke="none" stroke-width="1" fill="none" fill-rule="evenodd">
        <g id="Group" transform="translate(10.000000, 10.000000)" fill="#FFFFFF" stroke="#000000" stroke-width="3">
            <g id="Rectangle">
                <rect x="1.5" y="1.5" width="239" height="337" rx="8"></rect>
            </g>
        </g>
        <path d="M210.73,42.468 L210.73,37.68 L210.298,37.68 C210.298,38.16 210.184,38.448 209.956,38.544 C209.728,38.64 209.482,38.688 209.218,38.688 L209.218,38.688 L197.338,38.688 L197.338,38.328 C197.986,37.728 198.736,37.236 199.588,36.852 C200.44,36.468 201.328,36.102 202.252,35.754 C203.176,35.406 204.082,35.052 204.97,34.692 C205.858,34.332 206.656,33.894 207.364,33.378 C208.072,32.862 208.642,32.232 209.074,31.488 C209.506,30.744 209.722,29.808 209.722,28.68 C209.722,27.624 209.512,26.73 209.092,25.998 C208.672,25.266 208.12,24.666 207.436,24.198 C206.752,23.73 205.972,23.388 205.096,23.172 C204.22,22.956 203.326,22.848 202.414,22.848 C201.022,22.848 199.822,23.028 198.814,23.388 C197.806,23.748 196.966,24.144 196.294,24.576 C195.622,25.008 195.094,25.404 194.71,25.764 C194.326,26.124 194.062,26.304 193.918,26.304 C193.798,26.304 193.69,26.28 193.594,26.232 C193.498,26.184 193.402,26.136 193.306,26.088 L193.306,26.088 L192.946,26.34 L196.654,30.3 L197.014,30.048 C196.918,29.976 196.84,29.844 196.78,29.652 C196.72,29.46 196.69,29.304 196.69,29.184 C196.69,28.68 196.888,28.23 197.284,27.834 C197.68,27.438 198.154,27.096 198.706,26.808 C199.258,26.52 199.834,26.304 200.434,26.16 C201.034,26.016 201.538,25.944 201.946,25.944 C202.354,25.944 202.774,25.98 203.206,26.052 C203.638,26.124 204.034,26.262 204.394,26.466 C204.754,26.67 205.048,26.934 205.276,27.258 C205.504,27.582 205.618,27.996 205.618,28.5 C205.618,29.244 205.3,29.892 204.664,30.444 C204.028,30.996 203.23,31.53 202.27,32.046 C201.31,32.562 200.278,33.084 199.174,33.612 C198.07,34.14 197.038,34.752 196.078,35.448 C195.118,36.144 194.32,36.948 193.684,37.86 C193.048,38.772 192.73,39.864 192.73,41.136 L192.73,41.136 L192.73,42.432 L193.162,42.432 C193.162,42.216 193.246,42.09 193.414,42.054 C193.582,42.018 193.798,42 194.062,42 L194.062,42 L209.218,42 C209.482,42 209.728,42.012 209.956,42.036 C210.184,42.06 210.298,42.204 210.298,42.468 L210.298,42.468 L210.73,42.468 Z" id="2" fill="#000000" fill-rule="nonzero"></path>
        <g id="Paper-Towel" transform="translate(58.000000, 120.000000)">
            <g>
                <ellipse id="Oval" fill="#000000" cx="64" cy="20.5" rx="19" ry="7.5"></ellipse>
                <path d="M63.5,2.5 C77.6236228,2.5 90.4175057,4.81928339 99.675666,8.61072046 C104.161795,10.4478971 107.797715,12.6148383 110.266607,15.0557778 C112.274556,17.0409924 113.5,19.1892749 113.5,21.5 C113.5,22.6456437 113.425912,24.9884413 113.203254,26.6583761 C112.274961,27.0244503 108.588047,26.2665842 94.5550664,26.2439794 L93.4255667,26.2437562 C89.2042401,26.2487874 84.0992335,26.3195297 77.9265024,26.5010806 C55.9234289,30.726489 50.8715501,35.7511571 48.1737483,38.3235396 C47.5903372,38.8798282 47.3285477,39.4423258 46.4170447,39.3109045 C36.4371728,37.8719976 27.8765031,35.2182044 21.8704754,31.7432129 C16.8687618,28.8493015 13.5,25.4333941 13.5,21.5 C13.5,19.1892749 14.7254442,17.0409924 16.7333928,15.0557778 C19.2022853,12.6148383 22.8382049,10.4478971 27.324334,8.61072046 C36.5824943,4.81928339 49.3763772,2.5 63.5,2.5 Z" id="Oval" stroke="#000000" stroke-width="5"></path>
                <path d="M1,192 C15.527632,186.427579 26.1547188,182.810266 32.8812604,181.148061" id="Path" stroke="#000000" stroke-width="5"></path>
                <path d="M1,59 C21.6012097,51.4780617 36.5001756,46.9912968 45.6968977,45.5397054 M112.047872,26.6042436 C112.999103,24.8017078 113.5,22.922778 113.5,21" id="Shape" stroke="#000000" stroke-width="5"></path>
                <line x1="113.5" y1="21.5" x2="113.5" y2="27" id="Path" stroke="#000000" stroke-width="5" stroke-linecap="round"></line>
                <line x1="1" y1="59" x2="1" y2="192" id="Line" stroke="#000000" stroke-width="5" stroke-linecap="round"></line>
                <line x1="14" y1="21" x2="13.5" y2="52.5" id="Line-Copy-2" stroke="#000000" stroke-width="5" stroke-linecap="round"></line>
            </g>
            <g transform="translate(32.000000, 23.000000)">
                <ellipse id="Oval" fill="#000000" cx="64" cy="20.5" rx="19" ry="7.5"></ellipse>
                <ellipse id="Oval" stroke="#000000" stroke-width="5" cx="63.5" cy="21.5" rx="50" ry="19"></ellipse>
                <path d="M1,192 C24.5469583,182 45.7039163,177 64.4708738,177 C92.6213101,177 113.5,166.413855 113.5,154" id="Path" stroke="#000000" stroke-width="5"></path>
                <path d="M1,59 C24.5469583,49 45.7039163,44 64.4708738,44 C92.6213101,44 113.5,33.4138549 113.5,21" id="Path-Copy" stroke="#000000" stroke-width="5"></path>
                <line x1="113.5" y1="21.5" x2="113.5" y2="154.5" id="Line-Copy" stroke="#000000" stroke-width="5" stroke-linecap="round"></line>
                <line x1="1" y1="59" x2="1" y2="192" id="Line" stroke="#000000" stroke-width="5" stroke-linecap="round"></line>
                <line x1="14" y1="21" x2="13.5" y2="52.5" id="Line-Copy-2" stroke="#000000" stroke-width="5" stroke-linecap="round"></line>
                <line x1="63.5" y1="42.5" x2="63.5" y2="177.5" id="Line-2" stroke="#000000" stroke-width="5" stroke-linecap="square" stroke-dasharray="14"></line>
            </g>
        </g>
        <g id="Toilet-Paper" transform="translate(213.000000, 18.000000)">
            <ellipse id="Oval" stroke="#000000" stroke-width="2" cx="24.5" cy="11.5" rx="4.5" ry="10.5"></ellipse>
            <ellipse id="Oval-Copy" fill="#000000" cx="24.5" cy="12" rx="1.5" ry="4"></ellipse>
            <line x1="24" y1="22" x2="18" y2="22" id="Line-6" stroke="#000000" stroke-width="2" stroke-linecap="round"></line>
            <line x1="24" y1="1" x2="9" y2="1" id="Line-5" stroke="#000000" stroke-width="2" stroke-linecap="square"></line>
            <path d="M8,1 C7.02702267,1.90492637 6.360356,2.69857716 6,3.38095238 C4.62724052,5.98042915 4,9.4881664 4,12.9047619 C4,13.6772342 3.97201238,14.5765717 4,15.2857143 C4.12532621,18.4611949 3.12532621,22.0326235 1,26" id="Line-2-Copy-2" stroke="#000000" stroke-width="2" stroke-linecap="round"></path>
            <path d="M23,1 C22.0270227,1.90492637 21.360356,2.69857716 21,3.38095238 C19.6272405,5.98042915 19,9.4881664 19,12.9047619 C19,13.6772342 18.9720124,14.5765717 19,15.2857143 C19.1253262,18.4611949 18.1253262,22.0326235 16,26" id="Line-2-Copy-3" stroke="#000000" stroke-width="2" stroke-linecap="round"></path>
            <line x1="4.23333333" y1="12.2173958" x2="19.1666667" y2="12.2173958" id="Line-3-Copy" stroke="#000000" stroke-width="2" stroke-linecap="square" stroke-dasharray="0,4"></line>
            <line x1="16" y1="26" x2="1.22222222" y2="26" id="Line-5-Copy" stroke="#000000" stroke-width="2" stroke-linecap="round"></line>
        </g>
        <path d="M57.214,72.002 C58.342,72.002 59.35,71.876 60.238,71.624 C61.126,71.372 61.876,71.018 62.488,70.562 C63.1,70.106 63.562,69.572 63.874,68.96 C64.186,68.348 64.342,67.682 64.342,66.962 C64.342,65.594 63.952,64.544 63.172,63.812 C62.392,63.08 61.438,62.546 60.31,62.21 L60.31,62.21 L60.31,62.138 C61.27,61.802 62.098,61.328 62.794,60.716 C63.49,60.104 63.838,59.234 63.838,58.106 C63.838,57.17 63.598,56.384 63.118,55.748 C62.638,55.112 62.002,54.596 61.21,54.2 C60.418,53.804 59.506,53.516 58.474,53.336 C57.442,53.156 56.374,53.066 55.27,53.066 L55.27,53.066 L44.002,53.066 L44.002,53.714 C44.674,53.714 45.01,53.93 45.01,54.362 L45.01,54.362 L45.01,70.706 C45.01,71.138 44.674,71.354 44.002,71.354 L44.002,71.354 L44.002,72.002 L57.214,72.002 Z M55.99,60.482 L49.114,60.482 L49.114,56.162 L55.99,56.162 C57.07,56.162 57.964,56.3 58.672,56.576 C59.38,56.852 59.734,57.434 59.734,58.322 C59.734,59.21 59.38,59.792 58.672,60.068 C57.964,60.344 57.07,60.482 55.99,60.482 L55.99,60.482 Z M55.99,68.69 L49.114,68.69 L49.114,63.578 L55.99,63.578 C57.502,63.578 58.588,63.812 59.248,64.28 C59.908,64.748 60.238,65.366 60.238,66.134 C60.238,66.902 59.908,67.52 59.248,67.988 C58.588,68.456 57.502,68.69 55.99,68.69 L55.99,68.69 Z M79.138,72.11 C80.578,72.11 81.832,71.96 82.9,71.66 C83.968,71.36 84.844,70.946 85.528,70.418 C86.212,69.89 86.722,69.284 87.058,68.6 C87.394,67.916 87.562,67.202 87.562,66.458 L87.562,66.458 L87.562,57.35 C87.562,56.99 87.826,56.81 88.354,56.81 L88.354,56.81 L88.354,56.162 L83.35,56.162 L83.35,56.81 C83.95,56.81 84.25,56.99 84.25,57.35 L84.25,57.35 L84.25,65.594 C84.25,66.746 83.83,67.67 82.99,68.366 C82.15,69.062 80.866,69.41 79.138,69.41 C77.41,69.41 76.126,69.062 75.286,68.366 C74.446,67.67 74.026,66.746 74.026,65.594 L74.026,65.594 L74.026,57.35 C74.026,56.99 74.29,56.81 74.818,56.81 L74.818,56.81 L74.818,56.162 L69.67,56.162 L69.67,56.81 C70.078,56.81 70.354,56.852 70.498,56.936 C70.642,57.02 70.714,57.158 70.714,57.35 L70.714,57.35 L70.714,66.458 C70.714,67.202 70.882,67.916 71.218,68.6 C71.554,69.284 72.064,69.89 72.748,70.418 C73.432,70.946 74.308,71.36 75.376,71.66 C76.444,71.96 77.698,72.11 79.138,72.11 Z M102.394,72.002 L102.394,71.354 C101.962,71.354 101.746,71.174 101.746,70.814 L101.746,70.814 L101.746,58.826 L106.426,58.826 C106.618,58.826 106.798,58.874 106.966,58.97 C107.134,59.066 107.218,59.222 107.218,59.438 L107.218,59.438 L107.866,59.438 L107.866,55.298 L107.218,55.298 C107.218,55.634 107.134,55.862 106.966,55.982 C106.798,56.102 106.618,56.162 106.426,56.162 L106.426,56.162 L93.61,56.162 C93.418,56.162 93.238,56.102 93.07,55.982 C92.902,55.862 92.818,55.634 92.818,55.298 L92.818,55.298 L92.17,55.298 L92.17,59.438 L92.818,59.438 C92.818,59.222 92.902,59.066 93.07,58.97 C93.238,58.874 93.418,58.826 93.61,58.826 L93.61,58.826 L98.29,58.826 L98.29,70.814 C98.29,71.006 98.23,71.144 98.11,71.228 C97.99,71.312 97.87,71.354 97.75,71.354 L97.75,71.354 L97.75,72.002 L102.394,72.002 Z M120.394,72.002 L120.394,71.354 C119.962,71.354 119.746,71.174 119.746,70.814 L119.746,70.814 L119.746,58.826 L124.426,58.826 C124.618,58.826 124.798,58.874 124.966,58.97 C125.134,59.066 125.218,59.222 125.218,59.438 L125.218,59.438 L125.866,59.438 L125.866,55.298 L125.218,55.298 C125.218,55.634 125.134,55.862 124.966,55.982 C124.798,56.102 124.618,56.162 124.426,56.162 L124.426,56.162 L111.61,56.162 C111.418,56.162 111.238,56.102 111.07,55.982 C110.902,55.862 110.818,55.634 110.818,55.298 L110.818,55.298 L110.17,55.298 L110.17,59.438 L110.818,59.438 C110.818,59.222 110.902,59.066 111.07,58.97 C111.238,58.874 111.418,58.826 111.61,58.826 L111.61,58.826 L116.29,58.826 L116.29,70.814 C116.29,71.006 116.23,71.144 116.11,71.228 C115.99,71.312 115.87,71.354 115.75,71.354 L115.75,71.354 L115.75,72.002 L120.394,72.002 Z M151.462,72.11 C152.614,72.11 153.718,71.978 154.774,71.714 C155.83,71.45 156.772,71.138 157.6,70.778 C158.428,70.418 159.112,70.094 159.652,69.806 C160.192,69.518 160.534,69.374 160.678,69.374 C160.75,69.374 160.816,69.38 160.876,69.392 C160.936,69.404 161.002,69.41 161.074,69.41 L161.074,69.41 L161.362,69.122 L158.986,65.306 L158.482,65.594 C158.578,65.714 158.626,65.858 158.626,66.026 C158.626,66.338 158.392,66.668 157.924,67.016 C157.456,67.364 156.874,67.676 156.178,67.952 C155.482,68.228 154.714,68.456 153.874,68.636 C153.034,68.816 152.23,68.906 151.462,68.906 C150.454,68.906 149.488,68.762 148.564,68.474 C147.64,68.186 146.836,67.766 146.152,67.214 C145.468,66.662 144.922,65.984 144.514,65.18 C144.106,64.376 143.902,63.458 143.902,62.426 C143.902,61.394 144.106,60.476 144.514,59.672 C144.922,58.868 145.468,58.19 146.152,57.638 C146.836,57.086 147.64,56.666 148.564,56.378 C149.488,56.09 150.454,55.946 151.462,55.946 C152.062,55.946 152.716,56.018 153.424,56.162 C154.132,56.306 154.804,56.486 155.44,56.702 C156.076,56.918 156.61,57.164 157.042,57.44 C157.474,57.716 157.714,57.986 157.762,58.25 C157.786,58.346 157.804,58.43 157.816,58.502 C157.828,58.574 157.834,58.646 157.834,58.718 L157.834,58.718 L158.194,58.97 L161.002,54.614 L160.462,54.182 C160.414,54.254 160.348,54.35 160.264,54.47 C160.18,54.59 160.078,54.65 159.958,54.65 C159.862,54.65 159.598,54.554 159.166,54.362 C158.734,54.17 158.146,53.966 157.402,53.75 C156.658,53.534 155.788,53.33 154.792,53.138 C153.796,52.946 152.686,52.85 151.462,52.85 C149.95,52.85 148.498,53.054 147.106,53.462 C145.714,53.87 144.484,54.482 143.416,55.298 C142.348,56.114 141.502,57.128 140.878,58.34 C140.254,59.552 139.942,60.95 139.942,62.534 C139.942,64.142 140.254,65.546 140.878,66.746 C141.502,67.946 142.348,68.948 143.416,69.752 C144.484,70.556 145.714,71.15 147.106,71.534 C148.498,71.918 149.95,72.11 151.462,72.11 Z M174.97,72.11 C176.29,72.11 177.532,71.96 178.696,71.66 C179.86,71.36 180.874,70.874 181.738,70.202 C182.602,69.53 183.286,68.684 183.79,67.664 C184.294,66.644 184.546,65.45 184.546,64.082 C184.546,62.714 184.294,61.52 183.79,60.5 C183.286,59.48 182.602,58.634 181.738,57.962 C180.874,57.29 179.86,56.786 178.696,56.45 C177.532,56.114 176.29,55.946 174.97,55.946 C173.65,55.946 172.408,56.114 171.244,56.45 C170.08,56.786 169.066,57.29 168.202,57.962 C167.338,58.634 166.654,59.48 166.15,60.5 C165.646,61.52 165.394,62.714 165.394,64.082 C165.394,65.45 165.646,66.644 166.15,67.664 C166.654,68.684 167.338,69.53 168.202,70.202 C169.066,70.874 170.08,71.36 171.244,71.66 C172.408,71.96 173.65,72.11 174.97,72.11 Z M174.97,69.554 C174.202,69.554 173.452,69.428 172.72,69.176 C171.988,68.924 171.334,68.564 170.758,68.096 C170.182,67.628 169.72,67.058 169.372,66.386 C169.024,65.714 168.85,64.946 168.85,64.082 C168.85,63.218 169.024,62.45 169.372,61.778 C169.72,61.106 170.182,60.536 170.758,60.068 C171.334,59.6 171.988,59.24 172.72,58.988 C173.452,58.736 174.202,58.61 174.97,58.61 C175.738,58.61 176.488,58.736 177.22,58.988 C177.952,59.24 178.606,59.6 179.182,60.068 C179.758,60.536 180.22,61.106 180.568,61.778 C180.916,62.45 181.09,63.218 181.09,64.082 C181.09,64.946 180.916,65.714 180.568,66.386 C180.22,67.058 179.758,67.628 179.182,68.096 C178.606,68.564 177.952,68.924 177.22,69.176 C176.488,69.428 175.738,69.554 174.97,69.554 Z M194.698,72.002 L194.698,71.354 C194.026,71.354 193.69,71.174 193.69,70.814 L193.69,70.814 L193.69,57.35 C193.69,56.99 194.026,56.81 194.698,56.81 L194.698,56.81 L194.698,56.162 L189.226,56.162 L189.226,56.81 C189.61,56.81 189.874,56.852 190.018,56.936 C190.162,57.02 190.234,57.158 190.234,57.35 L190.234,57.35 L190.234,70.814 C190.234,71.006 190.162,71.144 190.018,71.228 C189.874,71.312 189.61,71.354 189.226,71.354 L189.226,71.354 L189.226,72.002 L194.698,72.002 Z M205.318,72.002 L205.318,71.354 C204.814,71.354 204.562,71.174 204.562,70.814 L204.562,70.814 L204.562,60.338 L213.49,69.842 C213.778,70.154 214.036,70.43 214.264,70.67 C214.492,70.91 214.606,71.078 214.606,71.174 C214.606,71.294 214.522,71.354 214.354,71.354 L214.354,71.354 L214.354,72.002 L219.034,72.002 L219.034,71.354 C218.602,71.354 218.386,71.174 218.386,70.814 L218.386,70.814 L218.386,57.35 C218.386,56.99 218.602,56.81 219.034,56.81 L219.034,56.81 L219.034,56.162 L214.642,56.162 L214.642,56.81 C215.122,56.81 215.362,56.99 215.362,57.35 L215.362,57.35 L215.362,67.106 L206.722,57.962 C206.194,57.434 205.93,57.11 205.93,56.99 C205.93,56.894 206.014,56.834 206.182,56.81 L206.182,56.81 L206.182,56.162 L200.89,56.162 L200.89,56.81 C201.322,56.81 201.538,56.99 201.538,57.35 L201.538,57.35 L201.538,70.814 C201.538,71.174 201.322,71.354 200.89,71.354 L200.89,71.354 L200.89,72.002 L205.318,72.002 Z M45.964,97.828 L46.63,95.506 L46.432,95.452 C46.396,95.56 46.327,95.629 46.225,95.659 C46.123,95.689 46.003,95.689 45.865,95.659 C45.727,95.629 45.577,95.578 45.415,95.506 C45.253,95.434 45.1,95.344 44.956,95.236 C44.8,95.128 44.62,94.972 44.416,94.768 C44.212,94.564 44.02,94.3 43.84,93.976 C43.66,93.652 43.51,93.271 43.39,92.833 C43.27,92.395 43.21,91.888 43.21,91.312 C43.21,90.772 43.255,90.298 43.345,89.89 C43.435,89.482 43.558,89.119 43.714,88.801 C43.87,88.483 44.044,88.207 44.236,87.973 C44.428,87.739 44.632,87.532 44.848,87.352 C44.992,87.232 45.148,87.133 45.316,87.055 C45.484,86.977 45.643,86.926 45.793,86.902 C45.943,86.878 46.078,86.881 46.198,86.911 C46.318,86.941 46.396,87.01 46.432,87.118 L46.432,87.118 L46.63,87.064 L45.964,84.742 L45.766,84.814 C45.79,84.946 45.787,85.057 45.757,85.147 C45.727,85.237 45.634,85.306 45.478,85.354 C44.818,85.534 44.242,85.819 43.75,86.209 C43.258,86.599 42.847,87.055 42.517,87.577 C42.187,88.099 41.941,88.681 41.779,89.323 C41.617,89.965 41.536,90.628 41.536,91.312 C41.536,92.02 41.623,92.689 41.797,93.319 C41.971,93.949 42.226,94.522 42.562,95.038 C42.898,95.554 43.309,95.998 43.795,96.37 C44.281,96.742 44.842,97.024 45.478,97.216 C45.634,97.264 45.727,97.333 45.757,97.423 C45.787,97.513 45.79,97.624 45.766,97.756 L45.766,97.756 L45.964,97.828 Z M51.562,95.002 L51.562,94.678 C51.358,94.678 51.217,94.651 51.139,94.597 C51.061,94.543 51.022,94.462 51.022,94.354 L51.022,94.354 L51.022,91.15 L53.596,91.15 L55.576,93.958 C55.672,94.09 55.744,94.195 55.792,94.273 C55.84,94.351 55.864,94.42 55.864,94.48 C55.864,94.54 55.825,94.588 55.747,94.624 C55.669,94.66 55.576,94.678 55.468,94.678 L55.468,94.678 L55.468,95.002 L58.834,95.002 L58.834,94.678 C58.738,94.678 58.633,94.666 58.519,94.642 C58.405,94.618 58.306,94.546 58.222,94.426 L58.222,94.426 L55.828,91.006 C56.62,90.862 57.25,90.58 57.718,90.16 C58.186,89.74 58.42,89.134 58.42,88.342 C58.42,87.826 58.33,87.391 58.15,87.037 C57.97,86.683 57.712,86.395 57.376,86.173 C57.04,85.951 56.638,85.789 56.17,85.687 C55.702,85.585 55.18,85.534 54.604,85.534 L54.604,85.534 L48.448,85.534 L48.448,85.858 C48.796,85.858 48.97,85.966 48.97,86.182 L48.97,86.182 L48.97,94.354 C48.97,94.57 48.796,94.678 48.448,94.678 L48.448,94.678 L48.448,95.002 L51.562,95.002 Z M54.136,89.746 L51.022,89.746 L51.022,87.082 L54.136,87.082 C54.568,87.082 54.928,87.115 55.216,87.181 C55.504,87.247 55.732,87.34 55.9,87.46 C56.068,87.58 56.188,87.721 56.26,87.883 C56.332,88.045 56.368,88.222 56.368,88.414 C56.368,88.606 56.332,88.783 56.26,88.945 C56.188,89.107 56.068,89.248 55.9,89.368 C55.732,89.488 55.504,89.581 55.216,89.647 C54.928,89.713 54.568,89.746 54.136,89.746 L54.136,89.746 Z M65.494,95.056 C66.154,95.056 66.775,94.981 67.357,94.831 C67.939,94.681 68.446,94.438 68.878,94.102 C69.31,93.766 69.652,93.343 69.904,92.833 C70.156,92.323 70.282,91.726 70.282,91.042 C70.282,90.358 70.156,89.761 69.904,89.251 C69.652,88.741 69.31,88.318 68.878,87.982 C68.446,87.646 67.939,87.394 67.357,87.226 C66.775,87.058 66.154,86.974 65.494,86.974 C64.834,86.974 64.213,87.058 63.631,87.226 C63.049,87.394 62.542,87.646 62.11,87.982 C61.678,88.318 61.336,88.741 61.084,89.251 C60.832,89.761 60.706,90.358 60.706,91.042 C60.706,91.726 60.832,92.323 61.084,92.833 C61.336,93.343 61.678,93.766 62.11,94.102 C62.542,94.438 63.049,94.681 63.631,94.831 C64.213,94.981 64.834,95.056 65.494,95.056 Z M65.494,93.778 C65.11,93.778 64.735,93.715 64.369,93.589 C64.003,93.463 63.676,93.283 63.388,93.049 C63.1,92.815 62.869,92.53 62.695,92.194 C62.521,91.858 62.434,91.474 62.434,91.042 C62.434,90.61 62.521,90.226 62.695,89.89 C62.869,89.554 63.1,89.269 63.388,89.035 C63.676,88.801 64.003,88.621 64.369,88.495 C64.735,88.369 65.11,88.306 65.494,88.306 C65.878,88.306 66.253,88.369 66.619,88.495 C66.985,88.621 67.312,88.801 67.6,89.035 C67.888,89.269 68.119,89.554 68.293,89.89 C68.467,90.226 68.554,90.61 68.554,91.042 C68.554,91.474 68.467,91.858 68.293,92.194 C68.119,92.53 67.888,92.815 67.6,93.049 C67.312,93.283 66.985,93.463 66.619,93.589 C66.253,93.715 65.878,93.778 65.494,93.778 Z M77.068,95.056 C77.788,95.056 78.415,94.981 78.949,94.831 C79.483,94.681 79.921,94.474 80.263,94.21 C80.605,93.946 80.86,93.643 81.028,93.301 C81.196,92.959 81.28,92.602 81.28,92.23 L81.28,92.23 L81.28,87.676 C81.28,87.496 81.412,87.406 81.676,87.406 L81.676,87.406 L81.676,87.082 L79.174,87.082 L79.174,87.406 C79.474,87.406 79.624,87.496 79.624,87.676 L79.624,87.676 L79.624,91.798 C79.624,92.374 79.414,92.836 78.994,93.184 C78.574,93.532 77.932,93.706 77.068,93.706 C76.204,93.706 75.562,93.532 75.142,93.184 C74.722,92.836 74.512,92.374 74.512,91.798 L74.512,91.798 L74.512,87.676 C74.512,87.496 74.644,87.406 74.908,87.406 L74.908,87.406 L74.908,87.082 L72.334,87.082 L72.334,87.406 C72.538,87.406 72.676,87.427 72.748,87.469 C72.82,87.511 72.856,87.58 72.856,87.676 L72.856,87.676 L72.856,92.23 C72.856,92.602 72.94,92.959 73.108,93.301 C73.276,93.643 73.531,93.946 73.873,94.21 C74.215,94.474 74.653,94.681 75.187,94.831 C75.721,94.981 76.348,95.056 77.068,95.056 Z M88.696,95.056 C89.272,95.056 89.794,95.017 90.262,94.939 C90.73,94.861 91.141,94.762 91.495,94.642 C91.849,94.522 92.143,94.399 92.377,94.273 C92.611,94.147 92.782,94.048 92.89,93.976 L92.89,93.976 L92.89,93.76 C92.77,93.712 92.695,93.667 92.665,93.625 C92.635,93.583 92.62,93.508 92.62,93.4 L92.62,93.4 L92.62,91.69 C92.62,91.57 92.638,91.48 92.674,91.42 C92.71,91.36 92.782,91.306 92.89,91.258 L92.89,91.258 L92.89,90.934 L89.362,90.934 C89.23,90.934 89.116,90.916 89.02,90.88 C88.924,90.844 88.864,90.766 88.84,90.646 L88.84,90.646 L88.516,90.646 L88.516,92.5 L88.84,92.5 C88.864,92.356 88.924,92.257 89.02,92.203 C89.116,92.149 89.23,92.122 89.362,92.122 L89.362,92.122 L91.216,92.122 L91.216,93.256 C90.832,93.46 90.409,93.598 89.947,93.67 C89.485,93.742 88.996,93.778 88.48,93.778 C88.132,93.778 87.772,93.73 87.4,93.634 C87.028,93.538 86.689,93.385 86.383,93.175 C86.077,92.965 85.828,92.689 85.636,92.347 C85.444,92.005 85.348,91.582 85.348,91.078 C85.348,90.574 85.438,90.148 85.618,89.8 C85.798,89.452 86.038,89.167 86.338,88.945 C86.638,88.723 86.986,88.561 87.382,88.459 C87.778,88.357 88.198,88.306 88.642,88.306 C88.966,88.306 89.287,88.339 89.605,88.405 C89.923,88.471 90.208,88.558 90.46,88.666 C90.712,88.774 90.916,88.891 91.072,89.017 C91.228,89.143 91.306,89.26 91.306,89.368 C91.306,89.38 91.294,89.446 91.27,89.566 L91.27,89.566 L91.486,89.692 L92.53,87.73 L92.314,87.622 C92.242,87.682 92.182,87.721 92.134,87.739 C92.086,87.757 92.014,87.766 91.918,87.766 C91.834,87.766 91.708,87.724 91.54,87.64 C91.372,87.556 91.15,87.466 90.874,87.37 C90.61,87.274 90.298,87.184 89.938,87.1 C89.578,87.016 89.164,86.974 88.696,86.974 C87.916,86.974 87.211,87.067 86.581,87.253 C85.951,87.439 85.417,87.709 84.979,88.063 C84.541,88.417 84.205,88.843 83.971,89.341 C83.737,89.839 83.62,90.406 83.62,91.042 C83.62,91.678 83.737,92.245 83.971,92.743 C84.205,93.241 84.541,93.664 84.979,94.012 C85.417,94.36 85.951,94.621 86.581,94.795 C87.211,94.969 87.916,95.056 88.696,95.056 Z M97.858,95.002 L97.858,94.678 C97.786,94.678 97.723,94.657 97.669,94.615 C97.615,94.573 97.588,94.504 97.588,94.408 L97.588,94.408 L97.588,91.69 L102.412,91.69 L102.412,94.408 C102.412,94.504 102.385,94.573 102.331,94.615 C102.277,94.657 102.214,94.678 102.142,94.678 L102.142,94.678 L102.142,95.002 L104.41,95.002 L104.41,94.678 C104.338,94.678 104.275,94.657 104.221,94.615 C104.167,94.573 104.14,94.504 104.14,94.408 L104.14,94.408 L104.14,87.676 C104.14,87.58 104.167,87.511 104.221,87.469 C104.275,87.427 104.338,87.406 104.41,87.406 L104.41,87.406 L104.41,87.082 L102.142,87.082 L102.142,87.406 C102.214,87.406 102.277,87.427 102.331,87.469 C102.385,87.511 102.412,87.58 102.412,87.676 L102.412,87.676 L102.412,90.214 L97.588,90.214 L97.588,87.676 C97.588,87.58 97.615,87.511 97.669,87.469 C97.723,87.427 97.786,87.406 97.858,87.406 L97.858,87.406 L97.858,87.082 L95.59,87.082 L95.59,87.406 C95.662,87.406 95.725,87.427 95.779,87.469 C95.833,87.511 95.86,87.58 95.86,87.676 L95.86,87.676 L95.86,94.408 C95.86,94.504 95.833,94.573 95.779,94.615 C95.725,94.657 95.662,94.678 95.59,94.678 L95.59,94.678 L95.59,95.002 L97.858,95.002 Z M106.84,90.412 C107.212,90.328 107.572,90.178 107.92,89.962 C108.268,89.746 108.574,89.488 108.838,89.188 C109.102,88.888 109.315,88.555 109.477,88.189 C109.639,87.823 109.72,87.442 109.72,87.046 C109.72,86.542 109.597,86.116 109.351,85.768 C109.105,85.42 108.742,85.246 108.262,85.246 C107.95,85.246 107.671,85.372 107.425,85.624 C107.179,85.876 107.056,86.176 107.056,86.524 C107.056,86.884 107.167,87.163 107.389,87.361 C107.611,87.559 107.872,87.658 108.172,87.658 C108.268,87.658 108.37,87.664 108.478,87.676 C108.586,87.688 108.652,87.736 108.676,87.82 C108.7,88.036 108.652,88.252 108.532,88.468 C108.412,88.684 108.259,88.885 108.073,89.071 C107.887,89.257 107.68,89.419 107.452,89.557 C107.224,89.695 107.02,89.788 106.84,89.836 L106.84,89.836 L106.84,90.412 Z M114.688,95.002 L114.688,94.678 C114.436,94.678 114.31,94.588 114.31,94.408 L114.31,94.408 L114.31,89.17 L118.774,93.922 C118.918,94.078 119.047,94.216 119.161,94.336 C119.275,94.456 119.332,94.54 119.332,94.588 C119.332,94.648 119.29,94.678 119.206,94.678 L119.206,94.678 L119.206,95.002 L121.546,95.002 L121.546,94.678 C121.33,94.678 121.222,94.588 121.222,94.408 L121.222,94.408 L121.222,87.676 C121.222,87.496 121.33,87.406 121.546,87.406 L121.546,87.406 L121.546,87.082 L119.35,87.082 L119.35,87.406 C119.59,87.406 119.71,87.496 119.71,87.676 L119.71,87.676 L119.71,92.554 L115.39,87.982 C115.126,87.718 114.994,87.556 114.994,87.496 C114.994,87.448 115.036,87.418 115.12,87.406 L115.12,87.406 L115.12,87.082 L112.474,87.082 L112.474,87.406 C112.69,87.406 112.798,87.496 112.798,87.676 L112.798,87.676 L112.798,94.408 C112.798,94.588 112.69,94.678 112.474,94.678 L112.474,94.678 L112.474,95.002 L114.688,95.002 Z M132.868,95.002 L132.868,94.678 C132.532,94.678 132.364,94.588 132.364,94.408 L132.364,94.408 L132.364,87.676 C132.364,87.496 132.532,87.406 132.868,87.406 L132.868,87.406 L132.868,87.082 L130.132,87.082 L130.132,87.406 C130.324,87.406 130.456,87.427 130.528,87.469 C130.6,87.511 130.636,87.58 130.636,87.676 L130.636,87.676 L130.636,94.408 C130.636,94.504 130.6,94.573 130.528,94.615 C130.456,94.657 130.324,94.678 130.132,94.678 L130.132,94.678 L130.132,95.002 L132.868,95.002 Z M140.194,95.002 L140.194,94.678 C139.978,94.678 139.87,94.588 139.87,94.408 L139.87,94.408 L139.87,88.414 L142.21,88.414 C142.306,88.414 142.396,88.438 142.48,88.486 C142.564,88.534 142.606,88.612 142.606,88.72 L142.606,88.72 L142.93,88.72 L142.93,86.65 L142.606,86.65 C142.606,86.818 142.564,86.932 142.48,86.992 C142.396,87.052 142.306,87.082 142.21,87.082 L142.21,87.082 L135.802,87.082 C135.706,87.082 135.616,87.052 135.532,86.992 C135.448,86.932 135.406,86.818 135.406,86.65 L135.406,86.65 L135.082,86.65 L135.082,88.72 L135.406,88.72 C135.406,88.612 135.448,88.534 135.532,88.486 C135.616,88.438 135.706,88.414 135.802,88.414 L135.802,88.414 L138.142,88.414 L138.142,94.408 C138.142,94.504 138.112,94.573 138.052,94.615 C137.992,94.657 137.932,94.678 137.872,94.678 L137.872,94.678 L137.872,95.002 L140.194,95.002 Z M159.868,95.344 L159.868,92.878 L159.544,92.878 C159.544,93.022 159.487,93.136 159.373,93.22 C159.259,93.304 159.112,93.346 158.932,93.346 L158.932,93.346 L152.92,93.346 L152.92,90.862 L156.448,90.862 C156.688,90.862 156.874,90.901 157.006,90.979 C157.138,91.057 157.204,91.234 157.204,91.51 L157.204,91.51 L157.528,91.51 L157.528,88.702 L157.204,88.702 C157.204,88.978 157.138,89.149 157.006,89.215 C156.874,89.281 156.688,89.314 156.448,89.314 L156.448,89.314 L152.92,89.314 L152.92,87.082 L158.752,87.082 C159.004,87.082 159.181,87.115 159.283,87.181 C159.385,87.247 159.436,87.346 159.436,87.478 L159.436,87.478 L159.76,87.478 L159.76,85.102 L159.436,85.102 C159.436,85.234 159.385,85.339 159.283,85.417 C159.181,85.495 159.004,85.534 158.752,85.534 L158.752,85.534 L150.544,85.534 L150.544,85.858 C150.628,85.858 150.703,85.885 150.769,85.939 C150.835,85.993 150.868,86.074 150.868,86.182 L150.868,86.182 L150.868,94.354 C150.868,94.462 150.835,94.543 150.769,94.597 C150.703,94.651 150.628,94.678 150.544,94.678 L150.544,94.678 L150.544,95.002 L158.932,95.002 C159.112,95.002 159.259,95.014 159.373,95.038 C159.487,95.062 159.544,95.164 159.544,95.344 L159.544,95.344 L159.868,95.344 Z M167.284,95.002 C167.992,95.002 168.592,94.888 169.084,94.66 C169.576,94.432 169.978,94.135 170.29,93.769 C170.602,93.403 170.83,92.983 170.974,92.509 C171.118,92.035 171.19,91.546 171.19,91.042 C171.19,90.538 171.115,90.049 170.965,89.575 C170.815,89.101 170.581,88.681 170.263,88.315 C169.945,87.949 169.534,87.652 169.03,87.424 C168.526,87.196 167.92,87.082 167.212,87.082 L167.212,87.082 L162.208,87.082 L162.208,87.406 C162.484,87.406 162.622,87.496 162.622,87.676 L162.622,87.676 L162.622,94.408 C162.622,94.588 162.484,94.678 162.208,94.678 L162.208,94.678 L162.208,95.002 L167.284,95.002 Z M166.69,93.67 L164.35,93.67 L164.35,88.414 L166.69,88.414 C167.062,88.414 167.416,88.435 167.752,88.477 C168.088,88.519 168.382,88.627 168.634,88.801 C168.886,88.975 169.087,89.233 169.237,89.575 C169.387,89.917 169.462,90.388 169.462,90.988 C169.462,91.588 169.387,92.065 169.237,92.419 C169.087,92.773 168.886,93.043 168.634,93.229 C168.382,93.415 168.088,93.535 167.752,93.589 C167.416,93.643 167.062,93.67 166.69,93.67 L166.69,93.67 Z M176.356,95.002 L176.356,94.678 C176.02,94.678 175.852,94.588 175.852,94.408 L175.852,94.408 L175.852,87.676 C175.852,87.496 176.02,87.406 176.356,87.406 L176.356,87.406 L176.356,87.082 L173.62,87.082 L173.62,87.406 C173.812,87.406 173.944,87.427 174.016,87.469 C174.088,87.511 174.124,87.58 174.124,87.676 L174.124,87.676 L174.124,94.408 C174.124,94.504 174.088,94.573 174.016,94.615 C173.944,94.657 173.812,94.678 173.62,94.678 L173.62,94.678 L173.62,95.002 L176.356,95.002 Z M183.682,95.002 L183.682,94.678 C183.466,94.678 183.358,94.588 183.358,94.408 L183.358,94.408 L183.358,88.414 L185.698,88.414 C185.794,88.414 185.884,88.438 185.968,88.486 C186.052,88.534 186.094,88.612 186.094,88.72 L186.094,88.72 L186.418,88.72 L186.418,86.65 L186.094,86.65 C186.094,86.818 186.052,86.932 185.968,86.992 C185.884,87.052 185.794,87.082 185.698,87.082 L185.698,87.082 L179.29,87.082 C179.194,87.082 179.104,87.052 179.02,86.992 C178.936,86.932 178.894,86.818 178.894,86.65 L178.894,86.65 L178.57,86.65 L178.57,88.72 L178.894,88.72 C178.894,88.612 178.936,88.534 179.02,88.486 C179.104,88.438 179.194,88.414 179.29,88.414 L179.29,88.414 L181.63,88.414 L181.63,94.408 C181.63,94.504 181.6,94.573 181.54,94.615 C181.48,94.657 181.42,94.678 181.36,94.678 L181.36,94.678 L181.36,95.002 L183.682,95.002 Z M191.35,95.002 L191.35,94.678 C191.014,94.678 190.846,94.588 190.846,94.408 L190.846,94.408 L190.846,87.676 C190.846,87.496 191.014,87.406 191.35,87.406 L191.35,87.406 L191.35,87.082 L188.614,87.082 L188.614,87.406 C188.806,87.406 188.938,87.427 189.01,87.469 C189.082,87.511 189.118,87.58 189.118,87.676 L189.118,87.676 L189.118,94.408 C189.118,94.504 189.082,94.573 189.01,94.615 C188.938,94.657 188.806,94.678 188.614,94.678 L188.614,94.678 L188.614,95.002 L191.35,95.002 Z M198.478,95.056 C199.138,95.056 199.759,94.981 200.341,94.831 C200.923,94.681 201.43,94.438 201.862,94.102 C202.294,93.766 202.636,93.343 202.888,92.833 C203.14,92.323 203.266,91.726 203.266,91.042 C203.266,90.358 203.14,89.761 202.888,89.251 C202.636,88.741 202.294,88.318 201.862,87.982 C201.43,87.646 200.923,87.394 200.341,87.226 C199.759,87.058 199.138,86.974 198.478,86.974 C197.818,86.974 197.197,87.058 196.615,87.226 C196.033,87.394 195.526,87.646 195.094,87.982 C194.662,88.318 194.32,88.741 194.068,89.251 C193.816,89.761 193.69,90.358 193.69,91.042 C193.69,91.726 193.816,92.323 194.068,92.833 C194.32,93.343 194.662,93.766 195.094,94.102 C195.526,94.438 196.033,94.681 196.615,94.831 C197.197,94.981 197.818,95.056 198.478,95.056 Z M198.478,93.778 C198.094,93.778 197.719,93.715 197.353,93.589 C196.987,93.463 196.66,93.283 196.372,93.049 C196.084,92.815 195.853,92.53 195.679,92.194 C195.505,91.858 195.418,91.474 195.418,91.042 C195.418,90.61 195.505,90.226 195.679,89.89 C195.853,89.554 196.084,89.269 196.372,89.035 C196.66,88.801 196.987,88.621 197.353,88.495 C197.719,88.369 198.094,88.306 198.478,88.306 C198.862,88.306 199.237,88.369 199.603,88.495 C199.969,88.621 200.296,88.801 200.584,89.035 C200.872,89.269 201.103,89.554 201.277,89.89 C201.451,90.226 201.538,90.61 201.538,91.042 C201.538,91.474 201.451,91.858 201.277,92.194 C201.103,92.53 200.872,92.815 200.584,93.049 C200.296,93.283 199.969,93.463 199.603,93.589 C199.237,93.715 198.862,93.778 198.478,93.778 Z M207.658,95.002 L207.658,94.678 C207.406,94.678 207.28,94.588 207.28,94.408 L207.28,94.408 L207.28,89.17 L211.744,93.922 C211.888,94.078 212.017,94.216 212.131,94.336 C212.245,94.456 212.302,94.54 212.302,94.588 C212.302,94.648 212.26,94.678 212.176,94.678 L212.176,94.678 L212.176,95.002 L214.516,95.002 L214.516,94.678 C214.3,94.678 214.192,94.588 214.192,94.408 L214.192,94.408 L214.192,87.676 C214.192,87.496 214.3,87.406 214.516,87.406 L214.516,87.406 L214.516,87.082 L212.32,87.082 L212.32,87.406 C212.56,87.406 212.68,87.496 212.68,87.676 L212.68,87.676 L212.68,92.554 L208.36,87.982 C208.096,87.718 207.964,87.556 207.964,87.496 C207.964,87.448 208.006,87.418 208.09,87.406 L208.09,87.406 L208.09,87.082 L205.444,87.082 L205.444,87.406 C205.66,87.406 205.768,87.496 205.768,87.676 L205.768,87.676 L205.768,94.408 C205.768,94.588 205.66,94.678 205.444,94.678 L205.444,94.678 L205.444,95.002 L207.658,95.002 Z M217.288,97.828 L217.486,97.756 C217.462,97.624 217.465,97.513 217.495,97.423 C217.525,97.333 217.618,97.264 217.774,97.216 C218.398,97.024 218.956,96.742 219.448,96.37 C219.94,95.998 220.354,95.554 220.69,95.038 C221.026,94.522 221.281,93.949 221.455,93.319 C221.629,92.689 221.716,92.02 221.716,91.312 C221.716,90.628 221.635,89.965 221.473,89.323 C221.311,88.681 221.065,88.099 220.735,87.577 C220.405,87.055 219.994,86.599 219.502,86.209 C219.01,85.819 218.434,85.534 217.774,85.354 C217.618,85.306 217.525,85.237 217.495,85.147 C217.465,85.057 217.462,84.946 217.486,84.814 L217.486,84.814 L217.288,84.742 L216.622,87.064 L216.82,87.118 C216.892,86.914 217.081,86.836 217.387,86.884 C217.693,86.932 218.032,87.076 218.404,87.316 C218.86,87.604 219.247,88.072 219.565,88.72 C219.883,89.368 220.042,90.232 220.042,91.312 C220.042,91.888 219.982,92.395 219.862,92.833 C219.742,93.271 219.592,93.652 219.412,93.976 C219.232,94.3 219.04,94.564 218.836,94.768 C218.632,94.972 218.452,95.128 218.296,95.236 C218.152,95.344 217.999,95.434 217.837,95.506 C217.675,95.578 217.525,95.629 217.387,95.659 C217.249,95.689 217.129,95.689 217.027,95.659 C216.925,95.629 216.856,95.56 216.82,95.452 L216.82,95.452 L216.622,95.506 L217.288,97.828 Z" id="ButtCoin(Rough’nitEdition)" fill="#000000" fill-rule="nonzero"></path>
    </g>
</svg>