<?xml version="1.0" encoding="UTF-8"?>
<svg width="262px" height="360px" viewBox="0 0 262 360" version="1.1" xmlns="http://www.w3.org/2000/svg" xmlns:xlink="http://www.w3.org/1999/xlink">
    <title>Influenced</title>
    <g id="Influenced" stroke="none" stroke-width="1" fill="none" fill-rule="evenodd">
        <g id="Group" transform="translate(9.000000, 9.000000)" fill="#FFFFFF" stroke="#000000" stroke-width="3">
            <g id="Rectangle">
                <rect x="1.5" y="1.5" width="239" height="337" rx="8"></rect>
            </g>
        </g>
        <g id="Toilet-Paper" transform="translate(14.000000, 15.000000)">
            <ellipse id="Oval" stroke="#000000" stroke-width="2" cx="24.5" cy="11.5" rx="4.5" ry="10.5"></ellipse>
            <ellipse id="Oval-Copy" fill="#000000" cx="24.5" cy="12" rx="1.5" ry="4"></ellipse>
            <line x1="24" y1="22" x2="18" y2="22" id="Line-6" stroke="#000000" stroke-width="2" stroke-linecap="round"></line>
            <line x1="24" y1="1" x2="9" y2="1" id="Line-5" stroke="#000000" stroke-width="2" stroke-linecap="square"></line>
            <path d="M8,1 C7.02702267,1.90492637 6.360356,2.69857716 6,3.38095238 C4.62724052,5.98042915 4,9.4881664 4,12.9047619 C4,13.6772342 3.97201238,14.5765717 4,15.2857143 C4.12532621,18.4611949 3.12532621,22.0326235 1,26" id="Line-2-Copy-2" stroke="#000000" stroke-width="2" stroke-linecap="round"></path>
            <path d="M23,1 C22.0270227,1.90492637 21.360356,2.69857716 21,3.38095238 C19.6272405,5.98042915 19,9.4881664 19,12.9047619 C19,13.6772342 18.9720124,14.5765717 19,15.2857143 C19.1253262,18.4611949 18.1253262,22.0326235 16,26" id="Line-2-Copy-3" stroke="#000000" stroke-width="2" stroke-linecap="round"></path>
            <line x1="4.23333333" y1="12.2173958" x2="19.1666667" y2="12.2173958" id="Line-3-Copy" stroke="#000000" stroke-width="2" stroke-linecap="square" stroke-dasharray="0,4"></line>
            <line x1="16" y1="26" x2="1.22222222" y2="26" id="Line-5-Copy" stroke="#000000" stroke-width="2" stroke-linecap="round"></line>
        </g>
        <path d="M60.686,39 L60.686,38.568 C60.446,38.568 60.23,38.502 60.038,38.37 C59.846,38.238 59.75,37.968 59.75,37.56 L59.75,37.56 L59.75,21.072 C59.75,20.832 59.846,20.652 60.038,20.532 C60.23,20.412 60.47,20.328 60.758,20.28 L60.758,20.28 L60.758,19.848 L54.926,19.848 L54.926,20.28 C55.19,20.328 55.4,20.4 55.556,20.496 C55.712,20.592 55.79,20.808 55.79,21.144 C55.79,21.504 55.652,21.81 55.376,22.062 C55.1,22.314 54.758,22.44 54.35,22.44 C54.158,22.44 53.954,22.398 53.738,22.314 C53.522,22.23 53.414,22.08 53.414,21.864 L53.414,21.864 L52.982,21.864 L52.982,26.4 L53.414,26.4 C53.486,26.208 53.612,26.058 53.792,25.95 C53.972,25.842 54.17,25.758 54.386,25.698 C54.602,25.638 54.824,25.596 55.052,25.572 C55.28,25.548 55.478,25.536 55.646,25.536 L55.646,25.536 L55.646,37.56 C55.646,37.968 55.556,38.238 55.376,38.37 C55.196,38.502 54.986,38.568 54.746,38.568 L54.746,38.568 L54.746,39 L60.686,39 Z" id="1" fill="#000000" fill-rule="nonzero"></path>
        <rect id="Rectangle" stroke="#000000" stroke-width="3" x="17.5" y="254.5" width="225" height="87" rx="8"></rect>
        <g id="Group" transform="translate(228.000000, 15.000000)" fill="#000000">
            <g id="Upgrade" transform="translate(8.000000, 9.000000) scale(1, -1) translate(-8.000000, -9.000000) ">
                <path d="M8.80873608,1.11201212 L14.844966,9.4118283 C15.1698043,9.85848091 15.0710543,10.4838978 14.6244017,10.8087361 C14.4534813,10.9330418 14.2475725,11 14.03623,11 L1.96377005,11 C1.4114853,11 0.963770046,10.5522847 0.963770046,10 C0.963770046,9.7886575 1.03072828,9.58274861 1.15503396,9.4118283 L7.19126392,1.11201212 C7.51610217,0.66535951 8.14151909,0.56660947 8.5881717,0.891447729 C8.67277774,0.952979393 8.74720442,1.02740608 8.80873608,1.11201212 Z" id="Triangle"></path>
                <path d="M5,9 L11,9 L11,17 C11,17.5522847 10.5522847,18 10,18 L6,18 C5.44771525,18 5,17.5522847 5,17 L5,9 L5,9 Z" id="Rectangle"></path>
            </g>
        </g>
        <path d="M67.276,57 L67.276,56.568 C66.86,56.568 66.652,56.424 66.652,56.136 L66.652,56.136 L66.652,45.24 C66.652,44.952 66.86,44.808 67.276,44.808 L67.276,44.808 L67.276,44.376 L63.292,44.376 L63.292,44.808 C63.708,44.808 63.916,44.952 63.916,45.24 L63.916,45.24 L63.916,56.136 C63.916,56.424 63.708,56.568 63.292,56.568 L63.292,56.568 L63.292,57 L67.276,57 Z M74.188,57 L74.188,56.568 C73.852,56.568 73.684,56.448 73.684,56.208 L73.684,56.208 L73.684,49.224 L79.636,55.56 C79.828,55.768 80,55.952 80.152,56.112 C80.304,56.272 80.38,56.384 80.38,56.448 C80.38,56.528 80.324,56.568 80.212,56.568 L80.212,56.568 L80.212,57 L83.332,57 L83.332,56.568 C83.044,56.568 82.9,56.448 82.9,56.208 L82.9,56.208 L82.9,47.232 C82.9,46.992 83.044,46.872 83.332,46.872 L83.332,46.872 L83.332,46.44 L80.404,46.44 L80.404,46.872 C80.724,46.872 80.884,46.992 80.884,47.232 L80.884,47.232 L80.884,53.736 L75.124,47.64 C74.772,47.288 74.596,47.072 74.596,46.992 C74.596,46.928 74.652,46.888 74.764,46.872 L74.764,46.872 L74.764,46.44 L71.236,46.44 L71.236,46.872 C71.524,46.872 71.668,46.992 71.668,47.232 L71.668,47.232 L71.668,56.208 C71.668,56.448 71.524,56.568 71.236,56.568 L71.236,56.568 L71.236,57 L74.188,57 Z M90.46,57 L90.46,56.568 C90.316,56.568 90.188,56.54 90.076,56.484 C89.964,56.428 89.908,56.336 89.908,56.208 L89.908,56.208 L89.908,52.536 L94.132,52.536 C94.404,52.536 94.572,52.568 94.636,52.632 C94.7,52.696 94.74,52.792 94.756,52.92 L94.756,52.92 L95.188,52.92 L95.188,50.4 L94.756,50.4 C94.74,50.528 94.7,50.62 94.636,50.676 C94.572,50.732 94.404,50.76 94.132,50.76 L94.132,50.76 L89.908,50.76 L89.908,48.216 L96.412,48.216 C96.684,48.216 96.876,48.252 96.988,48.324 C97.1,48.396 97.156,48.472 97.156,48.552 L97.156,48.552 L97.588,48.552 L97.588,46.008 L97.156,46.008 C97.156,46.136 97.1,46.24 96.988,46.32 C96.876,46.4 96.684,46.44 96.412,46.44 L96.412,46.44 L87.1,46.44 L87.1,46.872 C87.436,46.872 87.604,46.992 87.604,47.232 L87.604,47.232 L87.604,56.208 C87.604,56.448 87.452,56.568 87.148,56.568 L87.148,56.568 L87.148,57 L90.46,57 Z M110.98,57.24 L110.98,54.72 L110.548,54.72 C110.548,54.88 110.484,55.004 110.356,55.092 C110.228,55.18 110.068,55.224 109.876,55.224 L109.876,55.224 L103.396,55.224 L103.396,47.232 C103.396,46.992 103.58,46.872 103.948,46.872 L103.948,46.872 L103.948,46.44 L100.468,46.44 L100.468,46.872 C100.884,46.872 101.092,46.992 101.092,47.232 L101.092,47.232 L101.092,56.208 C101.092,56.448 100.884,56.568 100.468,56.568 L100.468,56.568 L100.468,57 L109.876,57 C110.068,57 110.228,57.008 110.356,57.024 C110.484,57.04 110.548,57.112 110.548,57.24 L110.548,57.24 L110.98,57.24 Z M120.076,57.072 C121.036,57.072 121.872,56.972 122.584,56.772 C123.296,56.572 123.88,56.296 124.336,55.944 C124.792,55.592 125.132,55.188 125.356,54.732 C125.58,54.276 125.692,53.8 125.692,53.304 L125.692,53.304 L125.692,47.232 C125.692,46.992 125.868,46.872 126.22,46.872 L126.22,46.872 L126.22,46.44 L122.884,46.44 L122.884,46.872 C123.284,46.872 123.484,46.992 123.484,47.232 L123.484,47.232 L123.484,52.728 C123.484,53.496 123.204,54.112 122.644,54.576 C122.084,55.04 121.228,55.272 120.076,55.272 C118.924,55.272 118.068,55.04 117.508,54.576 C116.948,54.112 116.668,53.496 116.668,52.728 L116.668,52.728 L116.668,47.232 C116.668,46.992 116.844,46.872 117.196,46.872 L117.196,46.872 L117.196,46.44 L113.764,46.44 L113.764,46.872 C114.036,46.872 114.22,46.9 114.316,46.956 C114.412,47.012 114.46,47.104 114.46,47.232 L114.46,47.232 L114.46,53.304 C114.46,53.8 114.572,54.276 114.796,54.732 C115.02,55.188 115.36,55.592 115.816,55.944 C116.272,56.296 116.856,56.572 117.568,56.772 C118.28,56.972 119.116,57.072 120.076,57.072 Z M139.876,57.264 L139.876,54.744 L139.444,54.744 C139.444,54.888 139.38,55.004 139.252,55.092 C139.124,55.18 138.964,55.224 138.772,55.224 L138.772,55.224 L132.628,55.224 L132.628,52.392 L136.132,52.392 C136.452,52.392 136.7,52.412 136.876,52.452 C137.052,52.492 137.116,52.6 137.068,52.776 L137.068,52.776 L137.548,52.776 L137.548,50.232 L137.116,50.232 C137.116,50.408 137.052,50.516 136.924,50.556 C136.796,50.596 136.596,50.616 136.324,50.616 L136.324,50.616 L132.628,50.616 L132.628,48.216 L138.484,48.216 C138.98,48.216 139.228,48.368 139.228,48.672 L139.228,48.672 L139.66,48.672 L139.66,46.008 L139.228,46.008 C139.228,46.296 138.98,46.44 138.484,46.44 L138.484,46.44 L129.964,46.44 L129.964,46.872 C130.044,46.872 130.124,46.9 130.204,46.956 C130.284,47.012 130.324,47.104 130.324,47.232 L130.324,47.232 L130.324,56.208 C130.324,56.336 130.284,56.428 130.204,56.484 C130.124,56.54 130.044,56.568 129.964,56.568 L129.964,56.568 L129.964,57 L138.772,57 C138.964,57 139.124,57.008 139.252,57.024 C139.38,57.04 139.444,57.12 139.444,57.264 L139.444,57.264 L139.876,57.264 Z M146.236,57 L146.236,56.568 C145.9,56.568 145.732,56.448 145.732,56.208 L145.732,56.208 L145.732,49.224 L151.684,55.56 C151.876,55.768 152.048,55.952 152.2,56.112 C152.352,56.272 152.428,56.384 152.428,56.448 C152.428,56.528 152.372,56.568 152.26,56.568 L152.26,56.568 L152.26,57 L155.38,57 L155.38,56.568 C155.092,56.568 154.948,56.448 154.948,56.208 L154.948,56.208 L154.948,47.232 C154.948,46.992 155.092,46.872 155.38,46.872 L155.38,46.872 L155.38,46.44 L152.452,46.44 L152.452,46.872 C152.772,46.872 152.932,46.992 152.932,47.232 L152.932,47.232 L152.932,53.736 L147.172,47.64 C146.82,47.288 146.644,47.072 146.644,46.992 C146.644,46.928 146.7,46.888 146.812,46.872 L146.812,46.872 L146.812,46.44 L143.284,46.44 L143.284,46.872 C143.572,46.872 143.716,46.992 143.716,47.232 L143.716,47.232 L143.716,56.208 C143.716,56.448 143.572,56.568 143.284,56.568 L143.284,56.568 L143.284,57 L146.236,57 Z M164.116,57.072 C164.836,57.072 165.488,57.008 166.072,56.88 C166.656,56.752 167.168,56.596 167.608,56.412 C168.048,56.228 168.412,56.064 168.7,55.92 C168.988,55.776 169.196,55.704 169.324,55.704 C169.404,55.704 169.54,55.744 169.732,55.824 L169.732,55.824 L169.972,55.704 L168.196,53.16 L167.932,53.4 C167.948,53.464 167.956,53.544 167.956,53.64 L167.956,53.64 L167.956,53.832 C167.956,53.976 167.84,54.136 167.608,54.312 C167.376,54.488 167.076,54.652 166.708,54.804 C166.34,54.956 165.932,55.088 165.484,55.2 C165.036,55.312 164.596,55.368 164.164,55.368 C163.7,55.368 163.244,55.284 162.796,55.116 C162.348,54.948 161.948,54.7 161.596,54.372 C161.244,54.044 160.96,53.652 160.744,53.196 C160.528,52.74 160.42,52.224 160.42,51.648 C160.42,51.072 160.516,50.56 160.708,50.112 C160.9,49.664 161.172,49.288 161.524,48.984 C161.876,48.68 162.288,48.452 162.76,48.3 C163.232,48.148 163.756,48.072 164.332,48.072 C164.812,48.072 165.252,48.116 165.652,48.204 C166.052,48.292 166.4,48.4 166.696,48.528 C166.992,48.656 167.22,48.788 167.38,48.924 C167.54,49.06 167.62,49.168 167.62,49.248 C167.62,49.296 167.624,49.336 167.632,49.368 C167.64,49.4 167.644,49.432 167.644,49.464 L167.644,49.464 L167.908,49.656 L169.492,47.376 L169.204,47.208 C169.14,47.24 169.08,47.28 169.024,47.328 C168.968,47.376 168.9,47.4 168.82,47.4 C168.708,47.4 168.524,47.344 168.268,47.232 C168.012,47.12 167.692,46.992 167.308,46.848 C166.924,46.704 166.48,46.576 165.976,46.464 C165.472,46.352 164.916,46.296 164.308,46.296 C163.524,46.296 162.76,46.408 162.016,46.632 C161.272,46.856 160.612,47.196 160.036,47.652 C159.46,48.108 158.996,48.672 158.644,49.344 C158.292,50.016 158.116,50.8 158.116,51.696 C158.116,52.592 158.292,53.38 158.644,54.06 C158.996,54.74 159.452,55.308 160.012,55.764 C160.572,56.22 161.212,56.552 161.932,56.76 C162.652,56.968 163.38,57.072 164.116,57.072 Z M182.572,57.264 L182.572,54.744 L182.14,54.744 C182.14,54.888 182.076,55.004 181.948,55.092 C181.82,55.18 181.66,55.224 181.468,55.224 L181.468,55.224 L175.324,55.224 L175.324,52.392 L178.828,52.392 C179.148,52.392 179.396,52.412 179.572,52.452 C179.748,52.492 179.812,52.6 179.764,52.776 L179.764,52.776 L180.244,52.776 L180.244,50.232 L179.812,50.232 C179.812,50.408 179.748,50.516 179.62,50.556 C179.492,50.596 179.292,50.616 179.02,50.616 L179.02,50.616 L175.324,50.616 L175.324,48.216 L181.18,48.216 C181.676,48.216 181.924,48.368 181.924,48.672 L181.924,48.672 L182.356,48.672 L182.356,46.008 L181.924,46.008 C181.924,46.296 181.676,46.44 181.18,46.44 L181.18,46.44 L172.66,46.44 L172.66,46.872 C172.74,46.872 172.82,46.9 172.9,46.956 C172.98,47.012 173.02,47.104 173.02,47.232 L173.02,47.232 L173.02,56.208 C173.02,56.336 172.98,56.428 172.9,56.484 C172.82,56.54 172.74,56.568 172.66,56.568 L172.66,56.568 L172.66,57 L181.468,57 C181.66,57 181.82,57.008 181.948,57.024 C182.076,57.04 182.14,57.12 182.14,57.264 L182.14,57.264 L182.572,57.264 Z M192.412,57 C193.356,57 194.156,56.848 194.812,56.544 C195.468,56.24 196.004,55.844 196.42,55.356 C196.836,54.868 197.14,54.308 197.332,53.676 C197.524,53.044 197.62,52.392 197.62,51.72 C197.62,51.048 197.52,50.396 197.32,49.764 C197.12,49.132 196.808,48.572 196.384,48.084 C195.96,47.596 195.412,47.2 194.74,46.896 C194.068,46.592 193.26,46.44 192.316,46.44 L192.316,46.44 L185.644,46.44 L185.644,46.872 C186.012,46.872 186.196,46.992 186.196,47.232 L186.196,47.232 L186.196,56.208 C186.196,56.448 186.012,56.568 185.644,56.568 L185.644,56.568 L185.644,57 L192.412,57 Z M191.62,55.224 L188.5,55.224 L188.5,48.216 L191.62,48.216 C192.116,48.216 192.588,48.244 193.036,48.3 C193.484,48.356 193.876,48.5 194.212,48.732 C194.548,48.964 194.816,49.308 195.016,49.764 C195.216,50.22 195.316,50.848 195.316,51.648 C195.316,52.448 195.216,53.084 195.016,53.556 C194.816,54.028 194.548,54.388 194.212,54.636 C193.876,54.884 193.484,55.044 193.036,55.116 C192.588,55.188 192.116,55.224 191.62,55.224 L191.62,55.224 Z" fill="#000000" fill-rule="nonzero"></path>
        <path d="M37.58,269 L37.58,268.712 C37.3346667,268.712 37.212,268.616 37.212,268.424 L37.212,268.424 L37.212,265.576 L39.932,261.72 C40.06,261.528 40.1693333,261.376 40.26,261.264 C40.3506667,261.152 40.436,261.066667 40.516,261.008 C40.596,260.949333 40.6733333,260.912 40.748,260.896 C40.8226667,260.88 40.9026667,260.872 40.988,260.872 L40.988,260.872 L40.988,260.584 L38.188,260.584 L38.188,260.872 C38.2733333,260.872 38.3666667,260.882667 38.468,260.904 C38.5693333,260.925333 38.62,260.973333 38.62,261.048 C38.62,261.112 38.5933333,261.181333 38.54,261.256 C38.4866667,261.330667 38.4173333,261.432 38.332,261.56 L38.332,261.56 L36.46,264.136 C36.3213333,263.912 36.14,263.64 35.916,263.32 C35.692,263 35.476,262.688 35.268,262.384 C35.06,262.08 34.8786667,261.808 34.724,261.568 C34.5693333,261.328 34.492,261.176 34.492,261.112 C34.492,261.005333 34.5346667,260.938667 34.62,260.912 C34.7053333,260.885333 34.796,260.872 34.892,260.872 L34.892,260.872 L34.892,260.584 L31.564,260.584 L31.564,260.872 C31.6706667,260.872 31.8013333,260.909333 31.956,260.984 C32.1106667,261.058667 32.2253333,261.149333 32.3,261.256 L32.3,261.256 L35.388,265.576 L35.388,268.424 C35.388,268.52 35.356,268.592 35.292,268.64 C35.228,268.688 35.148,268.712 35.052,268.712 L35.052,268.712 L35.052,269 L37.58,269 Z M46.044,269.048 C46.6306667,269.048 47.1826667,268.981333 47.7,268.848 C48.2173333,268.714667 48.668,268.498667 49.052,268.2 C49.436,267.901333 49.74,267.525333 49.964,267.072 C50.188,266.618667 50.3,266.088 50.3,265.48 C50.3,264.872 50.188,264.341333 49.964,263.888 C49.74,263.434667 49.436,263.058667 49.052,262.76 C48.668,262.461333 48.2173333,262.237333 47.7,262.088 C47.1826667,261.938667 46.6306667,261.864 46.044,261.864 C45.4573333,261.864 44.9053333,261.938667 44.388,262.088 C43.8706667,262.237333 43.42,262.461333 43.036,262.76 C42.652,263.058667 42.348,263.434667 42.124,263.888 C41.9,264.341333 41.788,264.872 41.788,265.48 C41.788,266.088 41.9,266.618667 42.124,267.072 C42.348,267.525333 42.652,267.901333 43.036,268.2 C43.42,268.498667 43.8706667,268.714667 44.388,268.848 C44.9053333,268.981333 45.4573333,269.048 46.044,269.048 Z M46.044,267.912 C45.7026667,267.912 45.3693333,267.856 45.044,267.744 C44.7186667,267.632 44.428,267.472 44.172,267.264 C43.916,267.056 43.7106667,266.802667 43.556,266.504 C43.4013333,266.205333 43.324,265.864 43.324,265.48 C43.324,265.096 43.4013333,264.754667 43.556,264.456 C43.7106667,264.157333 43.916,263.904 44.172,263.696 C44.428,263.488 44.7186667,263.328 45.044,263.216 C45.3693333,263.104 45.7026667,263.048 46.044,263.048 C46.3853333,263.048 46.7186667,263.104 47.044,263.216 C47.3693333,263.328 47.66,263.488 47.916,263.696 C48.172,263.904 48.3773333,264.157333 48.532,264.456 C48.6866667,264.754667 48.764,265.096 48.764,265.48 C48.764,265.864 48.6866667,266.205333 48.532,266.504 C48.3773333,266.802667 48.172,267.056 47.916,267.264 C47.66,267.472 47.3693333,267.632 47.044,267.744 C46.7186667,267.856 46.3853333,267.912 46.044,267.912 Z M56.332,269.048 C56.972,269.048 57.5293333,268.981333 58.004,268.848 C58.4786667,268.714667 58.868,268.530667 59.172,268.296 C59.476,268.061333 59.7026667,267.792 59.852,267.488 C60.0013333,267.184 60.076,266.866667 60.076,266.536 L60.076,266.536 L60.076,262.488 C60.076,262.328 60.1933333,262.248 60.428,262.248 L60.428,262.248 L60.428,261.96 L58.204,261.96 L58.204,262.248 C58.4706667,262.248 58.604,262.328 58.604,262.488 L58.604,262.488 L58.604,266.152 C58.604,266.664 58.4173333,267.074667 58.044,267.384 C57.6706667,267.693333 57.1,267.848 56.332,267.848 C55.564,267.848 54.9933333,267.693333 54.62,267.384 C54.2466667,267.074667 54.06,266.664 54.06,266.152 L54.06,266.152 L54.06,262.488 C54.06,262.328 54.1773333,262.248 54.412,262.248 L54.412,262.248 L54.412,261.96 L52.124,261.96 L52.124,262.248 C52.3053333,262.248 52.428,262.266667 52.492,262.304 C52.556,262.341333 52.588,262.402667 52.588,262.488 L52.588,262.488 L52.588,266.536 C52.588,266.866667 52.6626667,267.184 52.812,267.488 C52.9613333,267.792 53.188,268.061333 53.492,268.296 C53.796,268.530667 54.1853333,268.714667 54.66,268.848 C55.1346667,268.981333 55.692,269.048 56.332,269.048 Z M70.812,269.048 C71.1746667,269.048 71.5613333,269.021333 71.972,268.968 C72.3826667,268.914667 72.7586667,268.802667 73.1,268.632 C73.4413333,268.461333 73.7266667,268.226667 73.956,267.928 C74.1853333,267.629333 74.3,267.245333 74.3,266.776 C74.3,266.306667 74.1693333,265.938667 73.908,265.672 C73.6466667,265.405333 73.3186667,265.202667 72.924,265.064 C72.5293333,264.925333 72.1026667,264.826667 71.644,264.768 C71.1853333,264.709333 70.7586667,264.650667 70.364,264.592 C69.9693333,264.533333 69.6413333,264.453333 69.38,264.352 C69.1186667,264.250667 68.988,264.082667 68.988,263.848 C68.988,263.698667 69.0306667,263.573333 69.116,263.472 C69.2013333,263.370667 69.3186667,263.288 69.468,263.224 C69.6173333,263.16 69.788,263.114667 69.98,263.088 C70.172,263.061333 70.3746667,263.048 70.588,263.048 C71.1426667,263.048 71.644,263.112 72.092,263.24 C72.54,263.368 72.8706667,263.522667 73.084,263.704 C73.1693333,263.768 73.2173333,263.832 73.228,263.896 L73.228,263.896 L73.26,264.088 L73.548,264.184 L74.348,262.68 L74.172,262.504 C74.108,262.536 74.0546667,262.565333 74.012,262.592 C73.9693333,262.618667 73.9053333,262.632 73.82,262.632 C73.7453333,262.632 73.6306667,262.592 73.476,262.512 C73.3213333,262.432 73.1213333,262.344 72.876,262.248 C72.6306667,262.152 72.3293333,262.064 71.972,261.984 C71.6146667,261.904 71.1853333,261.864 70.684,261.864 C69.66,261.864 68.8653333,262.066667 68.3,262.472 C67.7346667,262.877333 67.452,263.421333 67.452,264.104 C67.452,264.562667 67.5826667,264.917333 67.844,265.168 C68.1053333,265.418667 68.4333333,265.610667 68.828,265.744 C69.2226667,265.877333 69.6493333,265.973333 70.108,266.032 C70.5666667,266.090667 70.9933333,266.149333 71.388,266.208 C71.7826667,266.266667 72.1106667,266.349333 72.372,266.456 C72.6333333,266.562667 72.764,266.733333 72.764,266.968 C72.764,267.170667 72.6893333,267.333333 72.54,267.456 C72.3906667,267.578667 72.2093333,267.674667 71.996,267.744 C71.7826667,267.813333 71.5666667,267.858667 71.348,267.88 C71.1293333,267.901333 70.9453333,267.912 70.796,267.912 C70.636,267.912 70.4146667,267.885333 70.132,267.832 C69.8493333,267.778667 69.5666667,267.706667 69.284,267.616 C69.0013333,267.525333 68.7586667,267.413333 68.556,267.28 C68.3533333,267.146667 68.252,267 68.252,266.84 C68.252,266.786667 68.2546667,266.736 68.26,266.688 C68.2653333,266.64 68.268,266.594667 68.268,266.552 L68.268,266.552 L67.964,266.472 L67.228,268.264 L67.452,268.424 C67.5053333,268.36 67.5693333,268.328 67.644,268.328 C67.6866667,268.328 67.8093333,268.368 68.012,268.448 C68.2146667,268.528 68.4626667,268.613333 68.756,268.704 C69.0493333,268.794667 69.3746667,268.874667 69.732,268.944 C70.0893333,269.013333 70.4493333,269.048 70.812,269.048 Z M83.308,269.176 L83.308,267.496 L83.02,267.496 C83.02,267.592 82.9773333,267.669333 82.892,267.728 C82.8066667,267.786667 82.7,267.816 82.572,267.816 L82.572,267.816 L78.476,267.816 L78.476,265.928 L80.812,265.928 C81.0253333,265.928 81.1906667,265.941333 81.308,265.968 C81.4253333,265.994667 81.468,266.066667 81.436,266.184 L81.436,266.184 L81.756,266.184 L81.756,264.488 L81.468,264.488 C81.468,264.605333 81.4253333,264.677333 81.34,264.704 C81.2546667,264.730667 81.1213333,264.744 80.94,264.744 L80.94,264.744 L78.476,264.744 L78.476,263.144 L82.38,263.144 C82.7106667,263.144 82.876,263.245333 82.876,263.448 L82.876,263.448 L83.164,263.448 L83.164,261.672 L82.876,261.672 C82.876,261.864 82.7106667,261.96 82.38,261.96 L82.38,261.96 L76.7,261.96 L76.7,262.248 C76.7533333,262.248 76.8066667,262.266667 76.86,262.304 C76.9133333,262.341333 76.94,262.402667 76.94,262.488 L76.94,262.488 L76.94,268.472 C76.94,268.557333 76.9133333,268.618667 76.86,268.656 C76.8066667,268.693333 76.7533333,268.712 76.7,268.712 L76.7,268.712 L76.7,269 L82.572,269 C82.7,269 82.8066667,269.005333 82.892,269.016 C82.9773333,269.026667 83.02,269.08 83.02,269.176 L83.02,269.176 L83.308,269.176 Z M92.204,269.176 L92.204,267.496 L91.916,267.496 C91.916,267.592 91.8733333,267.669333 91.788,267.728 C91.7026667,267.786667 91.596,267.816 91.468,267.816 L91.468,267.816 L87.372,267.816 L87.372,265.928 L89.708,265.928 C89.9213333,265.928 90.0866667,265.941333 90.204,265.968 C90.3213333,265.994667 90.364,266.066667 90.332,266.184 L90.332,266.184 L90.652,266.184 L90.652,264.488 L90.364,264.488 C90.364,264.605333 90.3213333,264.677333 90.236,264.704 C90.1506667,264.730667 90.0173333,264.744 89.836,264.744 L89.836,264.744 L87.372,264.744 L87.372,263.144 L91.276,263.144 C91.6066667,263.144 91.772,263.245333 91.772,263.448 L91.772,263.448 L92.06,263.448 L92.06,261.672 L91.772,261.672 C91.772,261.864 91.6066667,261.96 91.276,261.96 L91.276,261.96 L85.596,261.96 L85.596,262.248 C85.6493333,262.248 85.7026667,262.266667 85.756,262.304 C85.8093333,262.341333 85.836,262.402667 85.836,262.488 L85.836,262.488 L85.836,268.472 C85.836,268.557333 85.8093333,268.618667 85.756,268.656 C85.7026667,268.693333 85.6493333,268.712 85.596,268.712 L85.596,268.712 L85.596,269 L91.468,269 C91.596,269 91.7026667,269.005333 91.788,269.016 C91.8733333,269.026667 91.916,269.08 91.916,269.176 L91.916,269.176 L92.204,269.176 Z M96.476,269 L96.476,268.712 C96.2946667,268.712 96.204,268.632 96.204,268.472 L96.204,268.472 L96.204,263.976 L96.22,263.976 L98.796,269 L98.924,269 L101.644,263.976 L101.676,263.976 L101.676,268.472 C101.708,268.632 101.612,268.712 101.388,268.712 L101.388,268.712 L101.388,269 L103.244,269 L103.244,268.712 C103.190667,268.712 103.14,268.693333 103.092,268.656 C103.044,268.618667 103.02,268.557333 103.02,268.472 L103.02,268.472 L103.02,262.456 C103.02,262.370667 103.044,262.314667 103.092,262.288 C103.14,262.261333 103.190667,262.248 103.244,262.248 L103.244,262.248 L103.244,261.96 L100.988,261.96 L100.988,262.248 C101.073333,262.248 101.116,262.296 101.116,262.392 C101.116,262.424 101.094667,262.48 101.052,262.56 C101.009333,262.64 100.950667,262.744 100.876,262.872 L100.876,262.872 L98.908,266.456 L96.956,262.856 C96.8813333,262.728 96.8253333,262.629333 96.788,262.56 C96.7506667,262.490667 96.732,262.434667 96.732,262.392 C96.732,262.296 96.7853333,262.248 96.892,262.248 L96.892,262.248 L96.892,261.96 L94.668,261.96 L94.668,262.248 C94.7426667,262.248 94.7933333,262.264 94.82,262.296 C94.8466667,262.328 94.86,262.418667 94.86,262.568 L94.86,262.568 L94.86,268.424 C94.86,268.541333 94.8413333,268.616 94.804,268.648 C94.7666667,268.68 94.7213333,268.701333 94.668,268.712 L94.668,268.712 L94.668,269 L96.476,269 Z M114.668,269 L114.668,268.712 C114.476,268.712 114.38,268.632 114.38,268.472 L114.38,268.472 L114.38,263.144 L116.46,263.144 C116.545333,263.144 116.625333,263.165333 116.7,263.208 C116.774667,263.250667 116.812,263.32 116.812,263.416 L116.812,263.416 L117.1,263.416 L117.1,261.576 L116.812,261.576 C116.812,261.725333 116.774667,261.826667 116.7,261.88 C116.625333,261.933333 116.545333,261.96 116.46,261.96 L116.46,261.96 L110.764,261.96 C110.678667,261.96 110.598667,261.933333 110.524,261.88 C110.449333,261.826667 110.412,261.725333 110.412,261.576 L110.412,261.576 L110.124,261.576 L110.124,263.416 L110.412,263.416 C110.412,263.32 110.449333,263.250667 110.524,263.208 C110.598667,263.165333 110.678667,263.144 110.764,263.144 L110.764,263.144 L112.844,263.144 L112.844,268.472 C112.844,268.557333 112.817333,268.618667 112.764,268.656 C112.710667,268.693333 112.657333,268.712 112.604,268.712 L112.604,268.712 L112.604,269 L114.668,269 Z M122.492,269.048 C123.078667,269.048 123.630667,268.981333 124.148,268.848 C124.665333,268.714667 125.116,268.498667 125.5,268.2 C125.884,267.901333 126.188,267.525333 126.412,267.072 C126.636,266.618667 126.748,266.088 126.748,265.48 C126.748,264.872 126.636,264.341333 126.412,263.888 C126.188,263.434667 125.884,263.058667 125.5,262.76 C125.116,262.461333 124.665333,262.237333 124.148,262.088 C123.630667,261.938667 123.078667,261.864 122.492,261.864 C121.905333,261.864 121.353333,261.938667 120.836,262.088 C120.318667,262.237333 119.868,262.461333 119.484,262.76 C119.1,263.058667 118.796,263.434667 118.572,263.888 C118.348,264.341333 118.236,264.872 118.236,265.48 C118.236,266.088 118.348,266.618667 118.572,267.072 C118.796,267.525333 119.1,267.901333 119.484,268.2 C119.868,268.498667 120.318667,268.714667 120.836,268.848 C121.353333,268.981333 121.905333,269.048 122.492,269.048 Z M122.492,267.912 C122.150667,267.912 121.817333,267.856 121.492,267.744 C121.166667,267.632 120.876,267.472 120.62,267.264 C120.364,267.056 120.158667,266.802667 120.004,266.504 C119.849333,266.205333 119.772,265.864 119.772,265.48 C119.772,265.096 119.849333,264.754667 120.004,264.456 C120.158667,264.157333 120.364,263.904 120.62,263.696 C120.876,263.488 121.166667,263.328 121.492,263.216 C121.817333,263.104 122.150667,263.048 122.492,263.048 C122.833333,263.048 123.166667,263.104 123.492,263.216 C123.817333,263.328 124.108,263.488 124.364,263.696 C124.62,263.904 124.825333,264.157333 124.98,264.456 C125.134667,264.754667 125.212,265.096 125.212,265.48 C125.212,265.864 125.134667,266.205333 124.98,266.504 C124.825333,266.802667 124.62,267.056 124.364,267.264 C124.108,267.472 123.817333,267.632 123.492,267.744 C123.166667,267.856 122.833333,267.912 122.492,267.912 Z M137.852,269 C138.481333,269 139.014667,268.898667 139.452,268.696 C139.889333,268.493333 140.246667,268.229333 140.524,267.904 C140.801333,267.578667 141.004,267.205333 141.132,266.784 C141.26,266.362667 141.324,265.928 141.324,265.48 C141.324,265.032 141.257333,264.597333 141.124,264.176 C140.990667,263.754667 140.782667,263.381333 140.5,263.056 C140.217333,262.730667 139.852,262.466667 139.404,262.264 C138.956,262.061333 138.417333,261.96 137.788,261.96 L137.788,261.96 L133.34,261.96 L133.34,262.248 C133.585333,262.248 133.708,262.328 133.708,262.488 L133.708,262.488 L133.708,268.472 C133.708,268.632 133.585333,268.712 133.34,268.712 L133.34,268.712 L133.34,269 L137.852,269 Z M137.324,267.816 L135.244,267.816 L135.244,263.144 L137.324,263.144 C137.654667,263.144 137.969333,263.162667 138.268,263.2 C138.566667,263.237333 138.828,263.333333 139.052,263.488 C139.276,263.642667 139.454667,263.872 139.588,264.176 C139.721333,264.48 139.788,264.898667 139.788,265.432 C139.788,265.965333 139.721333,266.389333 139.588,266.704 C139.454667,267.018667 139.276,267.258667 139.052,267.424 C138.828,267.589333 138.566667,267.696 138.268,267.744 C137.969333,267.792 137.654667,267.816 137.324,267.816 L137.324,267.816 Z M146.924,269.048 C147.510667,269.048 148.062667,268.981333 148.58,268.848 C149.097333,268.714667 149.548,268.498667 149.932,268.2 C150.316,267.901333 150.62,267.525333 150.844,267.072 C151.068,266.618667 151.18,266.088 151.18,265.48 C151.18,264.872 151.068,264.341333 150.844,263.888 C150.62,263.434667 150.316,263.058667 149.932,262.76 C149.548,262.461333 149.097333,262.237333 148.58,262.088 C148.062667,261.938667 147.510667,261.864 146.924,261.864 C146.337333,261.864 145.785333,261.938667 145.268,262.088 C144.750667,262.237333 144.3,262.461333 143.916,262.76 C143.532,263.058667 143.228,263.434667 143.004,263.888 C142.78,264.341333 142.668,264.872 142.668,265.48 C142.668,266.088 142.78,266.618667 143.004,267.072 C143.228,267.525333 143.532,267.901333 143.916,268.2 C144.3,268.498667 144.750667,268.714667 145.268,268.848 C145.785333,268.981333 146.337333,269.048 146.924,269.048 Z M146.924,267.912 C146.582667,267.912 146.249333,267.856 145.924,267.744 C145.598667,267.632 145.308,267.472 145.052,267.264 C144.796,267.056 144.590667,266.802667 144.436,266.504 C144.281333,266.205333 144.204,265.864 144.204,265.48 C144.204,265.096 144.281333,264.754667 144.436,264.456 C144.590667,264.157333 144.796,263.904 145.052,263.696 C145.308,263.488 145.598667,263.328 145.924,263.216 C146.249333,263.104 146.582667,263.048 146.924,263.048 C147.265333,263.048 147.598667,263.104 147.924,263.216 C148.249333,263.328 148.54,263.488 148.796,263.696 C149.052,263.904 149.257333,264.157333 149.412,264.456 C149.566667,264.754667 149.644,265.096 149.644,265.48 C149.644,265.864 149.566667,266.205333 149.412,266.504 C149.257333,266.802667 149.052,267.056 148.796,267.264 C148.54,267.472 148.249333,267.632 147.924,267.744 C147.598667,267.856 147.265333,267.912 146.924,267.912 Z M159.084,269 L159.084,268.712 C158.988,268.712 158.913333,268.701333 158.86,268.68 C158.806667,268.658667 158.78,268.605333 158.78,268.52 C158.78,268.466667 158.793333,268.405333 158.82,268.336 C158.846667,268.266667 158.881333,268.189333 158.924,268.104 L158.924,268.104 L159.372,267.24 L162.796,267.24 L163.228,268.152 C163.26,268.237333 163.286667,268.306667 163.308,268.36 C163.329333,268.413333 163.34,268.472 163.34,268.536 C163.34,268.621333 163.310667,268.68 163.252,268.712 C163.193333,268.744 163.137333,268.76 163.084,268.76 L163.084,268.76 L163.084,269 L165.356,269 L165.356,268.712 C165.281333,268.690667 165.212,268.658667 165.148,268.616 C165.084,268.573333 165.025333,268.504 164.972,268.408 L164.972,268.408 L162.38,262.968 C162.326667,262.850667 162.276,262.746667 162.228,262.656 C162.18,262.565333 162.156,262.488 162.156,262.424 C162.156,262.349333 162.174667,262.306667 162.212,262.296 C162.249333,262.285333 162.284,262.269333 162.316,262.248 L162.316,262.248 L162.316,261.96 L159.9,261.96 L159.9,262.248 C159.932,262.269333 159.961333,262.288 159.988,262.304 C160.014667,262.32 160.028,262.36 160.028,262.424 C160.028,262.509333 160.009333,262.597333 159.972,262.688 C159.934667,262.778667 159.884,262.898667 159.82,263.048 L159.82,263.048 L157.436,268.248 C157.393333,268.333333 157.332,268.426667 157.252,268.528 C157.172,268.629333 157.068,268.690667 156.94,268.712 L156.94,268.712 L156.94,269 L159.084,269 Z M162.284,266.056 L159.852,266.056 L160.988,263.368 L162.284,266.056 Z M168.86,269 L168.86,268.712 C168.636,268.712 168.524,268.632 168.524,268.472 L168.524,268.472 L168.524,263.816 L172.492,268.04 C172.62,268.178667 172.734667,268.301333 172.836,268.408 C172.937333,268.514667 172.988,268.589333 172.988,268.632 C172.988,268.685333 172.950667,268.712 172.876,268.712 L172.876,268.712 L172.876,269 L174.956,269 L174.956,268.712 C174.764,268.712 174.668,268.632 174.668,268.472 L174.668,268.472 L174.668,262.488 C174.668,262.328 174.764,262.248 174.956,262.248 L174.956,262.248 L174.956,261.96 L173.004,261.96 L173.004,262.248 C173.217333,262.248 173.324,262.328 173.324,262.488 L173.324,262.488 L173.324,266.824 L169.484,262.76 C169.249333,262.525333 169.132,262.381333 169.132,262.328 C169.132,262.285333 169.169333,262.258667 169.244,262.248 L169.244,262.248 L169.244,261.96 L166.892,261.96 L166.892,262.248 C167.084,262.248 167.18,262.328 167.18,262.488 L167.18,262.488 L167.18,268.472 C167.18,268.632 167.084,268.712 166.892,268.712 L166.892,268.712 L166.892,269 L168.86,269 Z M181.788,269 L181.788,268.712 C181.585333,268.712 181.484,268.632 181.484,268.472 L181.484,268.472 L181.484,266.072 L183.932,262.904 C184.049333,262.754667 184.185333,262.608 184.34,262.464 C184.494667,262.32 184.636,262.248 184.764,262.248 L184.764,262.248 L184.764,261.96 L182.316,261.96 L182.316,262.248 C182.369333,262.248 182.422667,262.258667 182.476,262.28 C182.529333,262.301333 182.556,262.354667 182.556,262.44 C182.556,262.504 182.532,262.570667 182.484,262.64 C182.436,262.709333 182.364,262.813333 182.268,262.952 L182.268,262.952 L180.844,264.936 L179.228,262.824 C179.174667,262.749333 179.126667,262.685333 179.084,262.632 C179.041333,262.578667 179.02,262.52 179.02,262.456 C179.02,262.392 179.052,262.341333 179.116,262.304 C179.18,262.266667 179.238667,262.248 179.292,262.248 L179.292,262.248 L179.292,261.96 L176.652,261.96 L176.652,262.248 C176.748,262.248 176.849333,262.269333 176.956,262.312 C177.062667,262.354667 177.153333,262.424 177.228,262.52 L177.228,262.52 L179.948,266.008 L179.948,268.472 C179.948,268.632 179.852,268.712 179.66,268.712 L179.66,268.712 L179.66,269 L181.788,269 Z M190.22,269 L190.22,268.712 C190.028,268.712 189.932,268.632 189.932,268.472 L189.932,268.472 L189.932,263.144 L192.012,263.144 C192.097333,263.144 192.177333,263.165333 192.252,263.208 C192.326667,263.250667 192.364,263.32 192.364,263.416 L192.364,263.416 L192.652,263.416 L192.652,261.576 L192.364,261.576 C192.364,261.725333 192.326667,261.826667 192.252,261.88 C192.177333,261.933333 192.097333,261.96 192.012,261.96 L192.012,261.96 L186.316,261.96 C186.230667,261.96 186.150667,261.933333 186.076,261.88 C186.001333,261.826667 185.964,261.725333 185.964,261.576 L185.964,261.576 L185.676,261.576 L185.676,263.416 L185.964,263.416 C185.964,263.32 186.001333,263.250667 186.076,263.208 C186.150667,263.165333 186.230667,263.144 186.316,263.144 L186.316,263.144 L188.396,263.144 L188.396,268.472 C188.396,268.557333 188.369333,268.618667 188.316,268.656 C188.262667,268.693333 188.209333,268.712 188.156,268.712 L188.156,268.712 L188.156,269 L190.22,269 Z M196.588,269 L196.588,268.712 C196.524,268.712 196.468,268.693333 196.42,268.656 C196.372,268.618667 196.348,268.557333 196.348,268.472 L196.348,268.472 L196.348,266.056 L200.636,266.056 L200.636,268.472 C200.636,268.557333 200.612,268.618667 200.564,268.656 C200.516,268.693333 200.46,268.712 200.396,268.712 L200.396,268.712 L200.396,269 L202.412,269 L202.412,268.712 C202.348,268.712 202.292,268.693333 202.244,268.656 C202.196,268.618667 202.172,268.557333 202.172,268.472 L202.172,268.472 L202.172,262.488 C202.172,262.402667 202.196,262.341333 202.244,262.304 C202.292,262.266667 202.348,262.248 202.412,262.248 L202.412,262.248 L202.412,261.96 L200.396,261.96 L200.396,262.248 C200.46,262.248 200.516,262.266667 200.564,262.304 C200.612,262.341333 200.636,262.402667 200.636,262.488 L200.636,262.488 L200.636,264.744 L196.348,264.744 L196.348,262.488 C196.348,262.402667 196.372,262.341333 196.42,262.304 C196.468,262.266667 196.524,262.248 196.588,262.248 L196.588,262.248 L196.588,261.96 L194.572,261.96 L194.572,262.248 C194.636,262.248 194.692,262.266667 194.74,262.304 C194.788,262.341333 194.812,262.402667 194.812,262.488 L194.812,262.488 L194.812,268.472 C194.812,268.557333 194.788,268.618667 194.74,268.656 C194.692,268.693333 194.636,268.712 194.572,268.712 L194.572,268.712 L194.572,269 L196.588,269 Z M207.708,269 L207.708,268.712 C207.409333,268.712 207.26,268.632 207.26,268.472 L207.26,268.472 L207.26,262.488 C207.26,262.328 207.409333,262.248 207.708,262.248 L207.708,262.248 L207.708,261.96 L205.276,261.96 L205.276,262.248 C205.446667,262.248 205.564,262.266667 205.628,262.304 C205.692,262.341333 205.724,262.402667 205.724,262.488 L205.724,262.488 L205.724,268.472 C205.724,268.557333 205.692,268.618667 205.628,268.656 C205.564,268.693333 205.446667,268.712 205.276,268.712 L205.276,268.712 L205.276,269 L207.708,269 Z M212.428,269 L212.428,268.712 C212.204,268.712 212.092,268.632 212.092,268.472 L212.092,268.472 L212.092,263.816 L216.06,268.04 C216.188,268.178667 216.302667,268.301333 216.404,268.408 C216.505333,268.514667 216.556,268.589333 216.556,268.632 C216.556,268.685333 216.518667,268.712 216.444,268.712 L216.444,268.712 L216.444,269 L218.524,269 L218.524,268.712 C218.332,268.712 218.236,268.632 218.236,268.472 L218.236,268.472 L218.236,262.488 C218.236,262.328 218.332,262.248 218.524,262.248 L218.524,262.248 L218.524,261.96 L216.572,261.96 L216.572,262.248 C216.785333,262.248 216.892,262.328 216.892,262.488 L216.892,262.488 L216.892,266.824 L213.052,262.76 C212.817333,262.525333 212.7,262.381333 212.7,262.328 C212.7,262.285333 212.737333,262.258667 212.812,262.248 L212.812,262.248 L212.812,261.96 L210.46,261.96 L210.46,262.248 C210.652,262.248 210.748,262.328 210.748,262.488 L210.748,262.488 L210.748,268.472 C210.748,268.632 210.652,268.712 210.46,268.712 L210.46,268.712 L210.46,269 L212.428,269 Z M224.892,269.048 C225.404,269.048 225.868,269.013333 226.284,268.944 C226.7,268.874667 227.065333,268.786667 227.38,268.68 C227.694667,268.573333 227.956,268.464 228.164,268.352 C228.372,268.24 228.524,268.152 228.62,268.088 L228.62,268.088 L228.62,267.896 C228.513333,267.853333 228.446667,267.813333 228.42,267.776 C228.393333,267.738667 228.38,267.672 228.38,267.576 L228.38,267.576 L228.38,266.056 C228.38,265.949333 228.396,265.869333 228.428,265.816 C228.46,265.762667 228.524,265.714667 228.62,265.672 L228.62,265.672 L228.62,265.384 L225.484,265.384 C225.366667,265.384 225.265333,265.368 225.18,265.336 C225.094667,265.304 225.041333,265.234667 225.02,265.128 L225.02,265.128 L224.732,265.128 L224.732,266.776 L225.02,266.776 C225.041333,266.648 225.094667,266.56 225.18,266.512 C225.265333,266.464 225.366667,266.44 225.484,266.44 L225.484,266.44 L227.132,266.44 L227.132,267.448 C226.790667,267.629333 226.414667,267.752 226.004,267.816 C225.593333,267.88 225.158667,267.912 224.7,267.912 C224.390667,267.912 224.070667,267.869333 223.74,267.784 C223.409333,267.698667 223.108,267.562667 222.836,267.376 C222.564,267.189333 222.342667,266.944 222.172,266.64 C222.001333,266.336 221.916,265.96 221.916,265.512 C221.916,265.064 221.996,264.685333 222.156,264.376 C222.316,264.066667 222.529333,263.813333 222.796,263.616 C223.062667,263.418667 223.372,263.274667 223.724,263.184 C224.076,263.093333 224.449333,263.048 224.844,263.048 C225.132,263.048 225.417333,263.077333 225.7,263.136 C225.982667,263.194667 226.236,263.272 226.46,263.368 C226.684,263.464 226.865333,263.568 227.004,263.68 C227.142667,263.792 227.212,263.896 227.212,263.992 C227.212,264.002667 227.201333,264.061333 227.18,264.168 L227.18,264.168 L227.372,264.28 L228.3,262.536 L228.108,262.44 C228.044,262.493333 227.990667,262.528 227.948,262.544 C227.905333,262.56 227.841333,262.568 227.756,262.568 C227.681333,262.568 227.569333,262.530667 227.42,262.456 C227.270667,262.381333 227.073333,262.301333 226.828,262.216 C226.593333,262.130667 226.316,262.050667 225.996,261.976 C225.676,261.901333 225.308,261.864 224.892,261.864 C224.198667,261.864 223.572,261.946667 223.012,262.112 C222.452,262.277333 221.977333,262.517333 221.588,262.832 C221.198667,263.146667 220.9,263.525333 220.692,263.968 C220.484,264.410667 220.38,264.914667 220.38,265.48 C220.38,266.045333 220.484,266.549333 220.692,266.992 C220.9,267.434667 221.198667,267.810667 221.588,268.12 C221.977333,268.429333 222.452,268.661333 223.012,268.816 C223.572,268.970667 224.198667,269.048 224.892,269.048 Z M43.468,285.048 C43.8306667,285.048 44.2173333,285.021333 44.628,284.968 C45.0386667,284.914667 45.4146667,284.802667 45.756,284.632 C46.0973333,284.461333 46.3826667,284.226667 46.612,283.928 C46.8413333,283.629333 46.956,283.245333 46.956,282.776 C46.956,282.306667 46.8253333,281.938667 46.564,281.672 C46.3026667,281.405333 45.9746667,281.202667 45.58,281.064 C45.1853333,280.925333 44.7586667,280.826667 44.3,280.768 C43.8413333,280.709333 43.4146667,280.650667 43.02,280.592 C42.6253333,280.533333 42.2973333,280.453333 42.036,280.352 C41.7746667,280.250667 41.644,280.082667 41.644,279.848 C41.644,279.698667 41.6866667,279.573333 41.772,279.472 C41.8573333,279.370667 41.9746667,279.288 42.124,279.224 C42.2733333,279.16 42.444,279.114667 42.636,279.088 C42.828,279.061333 43.0306667,279.048 43.244,279.048 C43.7986667,279.048 44.3,279.112 44.748,279.24 C45.196,279.368 45.5266667,279.522667 45.74,279.704 C45.8253333,279.768 45.8733333,279.832 45.884,279.896 L45.884,279.896 L45.916,280.088 L46.204,280.184 L47.004,278.68 L46.828,278.504 C46.764,278.536 46.7106667,278.565333 46.668,278.592 C46.6253333,278.618667 46.5613333,278.632 46.476,278.632 C46.4013333,278.632 46.2866667,278.592 46.132,278.512 C45.9773333,278.432 45.7773333,278.344 45.532,278.248 C45.2866667,278.152 44.9853333,278.064 44.628,277.984 C44.2706667,277.904 43.8413333,277.864 43.34,277.864 C42.316,277.864 41.5213333,278.066667 40.956,278.472 C40.3906667,278.877333 40.108,279.421333 40.108,280.104 C40.108,280.562667 40.2386667,280.917333 40.5,281.168 C40.7613333,281.418667 41.0893333,281.610667 41.484,281.744 C41.8786667,281.877333 42.3053333,281.973333 42.764,282.032 C43.2226667,282.090667 43.6493333,282.149333 44.044,282.208 C44.4386667,282.266667 44.7666667,282.349333 45.028,282.456 C45.2893333,282.562667 45.42,282.733333 45.42,282.968 C45.42,283.170667 45.3453333,283.333333 45.196,283.456 C45.0466667,283.578667 44.8653333,283.674667 44.652,283.744 C44.4386667,283.813333 44.2226667,283.858667 44.004,283.88 C43.7853333,283.901333 43.6013333,283.912 43.452,283.912 C43.292,283.912 43.0706667,283.885333 42.788,283.832 C42.5053333,283.778667 42.2226667,283.706667 41.94,283.616 C41.6573333,283.525333 41.4146667,283.413333 41.212,283.28 C41.0093333,283.146667 40.908,283 40.908,282.84 C40.908,282.786667 40.9106667,282.736 40.916,282.688 C40.9213333,282.64 40.924,282.594667 40.924,282.552 L40.924,282.552 L40.62,282.472 L39.884,284.264 L40.108,284.424 C40.1613333,284.36 40.2253333,284.328 40.3,284.328 C40.3426667,284.328 40.4653333,284.368 40.668,284.448 C40.8706667,284.528 41.1186667,284.613333 41.412,284.704 C41.7053333,284.794667 42.0306667,284.874667 42.388,284.944 C42.7453333,285.013333 43.1053333,285.048 43.468,285.048 Z M52.924,285.048 C53.5106667,285.048 54.0626667,284.981333 54.58,284.848 C55.0973333,284.714667 55.548,284.498667 55.932,284.2 C56.316,283.901333 56.62,283.525333 56.844,283.072 C57.068,282.618667 57.18,282.088 57.18,281.48 C57.18,280.872 57.068,280.341333 56.844,279.888 C56.62,279.434667 56.316,279.058667 55.932,278.76 C55.548,278.461333 55.0973333,278.237333 54.58,278.088 C54.0626667,277.938667 53.5106667,277.864 52.924,277.864 C52.3373333,277.864 51.7853333,277.938667 51.268,278.088 C50.7506667,278.237333 50.3,278.461333 49.916,278.76 C49.532,279.058667 49.228,279.434667 49.004,279.888 C48.78,280.341333 48.668,280.872 48.668,281.48 C48.668,282.088 48.78,282.618667 49.004,283.072 C49.228,283.525333 49.532,283.901333 49.916,284.2 C50.3,284.498667 50.7506667,284.714667 51.268,284.848 C51.7853333,284.981333 52.3373333,285.048 52.924,285.048 Z M52.924,283.912 C52.5826667,283.912 52.2493333,283.856 51.924,283.744 C51.5986667,283.632 51.308,283.472 51.052,283.264 C50.796,283.056 50.5906667,282.802667 50.436,282.504 C50.2813333,282.205333 50.204,281.864 50.204,281.48 C50.204,281.096 50.2813333,280.754667 50.436,280.456 C50.5906667,280.157333 50.796,279.904 51.052,279.696 C51.308,279.488 51.5986667,279.328 51.924,279.216 C52.2493333,279.104 52.5826667,279.048 52.924,279.048 C53.2653333,279.048 53.5986667,279.104 53.924,279.216 C54.2493333,279.328 54.54,279.488 54.796,279.696 C55.052,279.904 55.2573333,280.157333 55.412,280.456 C55.5666667,280.754667 55.644,281.096 55.644,281.48 C55.644,281.864 55.5666667,282.205333 55.412,282.504 C55.2573333,282.802667 55.052,283.056 54.796,283.264 C54.54,283.472 54.2493333,283.632 53.924,283.744 C53.5986667,283.856 53.2653333,283.912 52.924,283.912 Z M62.332,285.048 C62.812,285.048 63.2466667,285.005333 63.636,284.92 C64.0253333,284.834667 64.3666667,284.730667 64.66,284.608 C64.9533333,284.485333 65.196,284.376 65.388,284.28 C65.58,284.184 65.7186667,284.136 65.804,284.136 C65.8573333,284.136 65.948,284.162667 66.076,284.216 L66.076,284.216 L66.236,284.136 L65.052,282.44 L64.876,282.6 C64.8866667,282.642667 64.892,282.696 64.892,282.76 L64.892,282.76 L64.892,282.888 C64.892,282.984 64.8146667,283.090667 64.66,283.208 C64.5053333,283.325333 64.3053333,283.434667 64.06,283.536 C63.8146667,283.637333 63.5426667,283.725333 63.244,283.8 C62.9453333,283.874667 62.652,283.912 62.364,283.912 C62.0546667,283.912 61.7506667,283.856 61.452,283.744 C61.1533333,283.632 60.8866667,283.466667 60.652,283.248 C60.4173333,283.029333 60.228,282.768 60.084,282.464 C59.94,282.16 59.868,281.816 59.868,281.432 C59.868,281.048 59.932,280.706667 60.06,280.408 C60.188,280.109333 60.3693333,279.858667 60.604,279.656 C60.8386667,279.453333 61.1133333,279.301333 61.428,279.2 C61.7426667,279.098667 62.092,279.048 62.476,279.048 C62.796,279.048 63.0893333,279.077333 63.356,279.136 C63.6226667,279.194667 63.8546667,279.266667 64.052,279.352 C64.2493333,279.437333 64.4013333,279.525333 64.508,279.616 C64.6146667,279.706667 64.668,279.778667 64.668,279.832 C64.668,279.864 64.6706667,279.890667 64.676,279.912 C64.6813333,279.933333 64.684,279.954667 64.684,279.976 L64.684,279.976 L64.86,280.104 L65.916,278.584 L65.724,278.472 C65.6813333,278.493333 65.6413333,278.52 65.604,278.552 C65.5666667,278.584 65.5213333,278.6 65.468,278.6 C65.3933333,278.6 65.2706667,278.562667 65.1,278.488 C64.9293333,278.413333 64.716,278.328 64.46,278.232 C64.204,278.136 63.908,278.050667 63.572,277.976 C63.236,277.901333 62.8653333,277.864 62.46,277.864 C61.9373333,277.864 61.428,277.938667 60.932,278.088 C60.436,278.237333 59.996,278.464 59.612,278.768 C59.228,279.072 58.9186667,279.448 58.684,279.896 C58.4493333,280.344 58.332,280.866667 58.332,281.464 C58.332,282.061333 58.4493333,282.586667 58.684,283.04 C58.9186667,283.493333 59.2226667,283.872 59.596,284.176 C59.9693333,284.48 60.396,284.701333 60.876,284.84 C61.356,284.978667 61.8413333,285.048 62.332,285.048 Z M70.588,285 L70.588,284.712 C70.2893333,284.712 70.14,284.632 70.14,284.472 L70.14,284.472 L70.14,278.488 C70.14,278.328 70.2893333,278.248 70.588,278.248 L70.588,278.248 L70.588,277.96 L68.156,277.96 L68.156,278.248 C68.3266667,278.248 68.444,278.266667 68.508,278.304 C68.572,278.341333 68.604,278.402667 68.604,278.488 L68.604,278.488 L68.604,284.472 C68.604,284.557333 68.572,284.618667 68.508,284.656 C68.444,284.693333 68.3266667,284.712 68.156,284.712 L68.156,284.712 L68.156,285 L70.588,285 Z M74.428,285 L74.428,284.712 C74.332,284.712 74.2573333,284.701333 74.204,284.68 C74.1506667,284.658667 74.124,284.605333 74.124,284.52 C74.124,284.466667 74.1373333,284.405333 74.164,284.336 C74.1906667,284.266667 74.2253333,284.189333 74.268,284.104 L74.268,284.104 L74.716,283.24 L78.14,283.24 L78.572,284.152 C78.604,284.237333 78.6306667,284.306667 78.652,284.36 C78.6733333,284.413333 78.684,284.472 78.684,284.536 C78.684,284.621333 78.6546667,284.68 78.596,284.712 C78.5373333,284.744 78.4813333,284.76 78.428,284.76 L78.428,284.76 L78.428,285 L80.7,285 L80.7,284.712 C80.6253333,284.690667 80.556,284.658667 80.492,284.616 C80.428,284.573333 80.3693333,284.504 80.316,284.408 L80.316,284.408 L77.724,278.968 C77.6706667,278.850667 77.62,278.746667 77.572,278.656 C77.524,278.565333 77.5,278.488 77.5,278.424 C77.5,278.349333 77.5186667,278.306667 77.556,278.296 C77.5933333,278.285333 77.628,278.269333 77.66,278.248 L77.66,278.248 L77.66,277.96 L75.244,277.96 L75.244,278.248 C75.276,278.269333 75.3053333,278.288 75.332,278.304 C75.3586667,278.32 75.372,278.36 75.372,278.424 C75.372,278.509333 75.3533333,278.597333 75.316,278.688 C75.2786667,278.778667 75.228,278.898667 75.164,279.048 L75.164,279.048 L72.78,284.248 C72.7373333,284.333333 72.676,284.426667 72.596,284.528 C72.516,284.629333 72.412,284.690667 72.284,284.712 L72.284,284.712 L72.284,285 L74.428,285 Z M77.628,282.056 L75.196,282.056 L76.332,279.368 L77.628,282.056 Z M89.164,285.16 L89.164,283.48 L88.876,283.48 C88.876,283.586667 88.8333333,283.669333 88.748,283.728 C88.6626667,283.786667 88.556,283.816 88.428,283.816 L88.428,283.816 L84.108,283.816 L84.108,278.488 C84.108,278.328 84.2306667,278.248 84.476,278.248 L84.476,278.248 L84.476,277.96 L82.156,277.96 L82.156,278.248 C82.4333333,278.248 82.572,278.328 82.572,278.488 L82.572,278.488 L82.572,284.472 C82.572,284.632 82.4333333,284.712 82.156,284.712 L82.156,284.712 L82.156,285 L88.428,285 C88.556,285 88.6626667,285.005333 88.748,285.016 C88.8333333,285.026667 88.876,285.074667 88.876,285.16 L88.876,285.16 L89.164,285.16 Z M98.012,285 L98.012,284.712 C97.8306667,284.712 97.74,284.632 97.74,284.472 L97.74,284.472 L97.74,279.976 L97.756,279.976 L100.332,285 L100.46,285 L103.18,279.976 L103.212,279.976 L103.212,284.472 C103.244,284.632 103.148,284.712 102.924,284.712 L102.924,284.712 L102.924,285 L104.78,285 L104.78,284.712 C104.726667,284.712 104.676,284.693333 104.628,284.656 C104.58,284.618667 104.556,284.557333 104.556,284.472 L104.556,284.472 L104.556,278.456 C104.556,278.370667 104.58,278.314667 104.628,278.288 C104.676,278.261333 104.726667,278.248 104.78,278.248 L104.78,278.248 L104.78,277.96 L102.524,277.96 L102.524,278.248 C102.609333,278.248 102.652,278.296 102.652,278.392 C102.652,278.424 102.630667,278.48 102.588,278.56 C102.545333,278.64 102.486667,278.744 102.412,278.872 L102.412,278.872 L100.444,282.456 L98.492,278.856 C98.4173333,278.728 98.3613333,278.629333 98.324,278.56 C98.2866667,278.490667 98.268,278.434667 98.268,278.392 C98.268,278.296 98.3213333,278.248 98.428,278.248 L98.428,278.248 L98.428,277.96 L96.204,277.96 L96.204,278.248 C96.2786667,278.248 96.3293333,278.264 96.356,278.296 C96.3826667,278.328 96.396,278.418667 96.396,278.568 L96.396,278.568 L96.396,284.424 C96.396,284.541333 96.3773333,284.616 96.34,284.648 C96.3026667,284.68 96.2573333,284.701333 96.204,284.712 L96.204,284.712 L96.204,285 L98.012,285 Z M114.188,285.176 L114.188,283.496 L113.9,283.496 C113.9,283.592 113.857333,283.669333 113.772,283.728 C113.686667,283.786667 113.58,283.816 113.452,283.816 L113.452,283.816 L109.356,283.816 L109.356,281.928 L111.692,281.928 C111.905333,281.928 112.070667,281.941333 112.188,281.968 C112.305333,281.994667 112.348,282.066667 112.316,282.184 L112.316,282.184 L112.636,282.184 L112.636,280.488 L112.348,280.488 C112.348,280.605333 112.305333,280.677333 112.22,280.704 C112.134667,280.730667 112.001333,280.744 111.82,280.744 L111.82,280.744 L109.356,280.744 L109.356,279.144 L113.26,279.144 C113.590667,279.144 113.756,279.245333 113.756,279.448 L113.756,279.448 L114.044,279.448 L114.044,277.672 L113.756,277.672 C113.756,277.864 113.590667,277.96 113.26,277.96 L113.26,277.96 L107.58,277.96 L107.58,278.248 C107.633333,278.248 107.686667,278.266667 107.74,278.304 C107.793333,278.341333 107.82,278.402667 107.82,278.488 L107.82,278.488 L107.82,284.472 C107.82,284.557333 107.793333,284.618667 107.74,284.656 C107.686667,284.693333 107.633333,284.712 107.58,284.712 L107.58,284.712 L107.58,285 L113.452,285 C113.58,285 113.686667,285.005333 113.772,285.016 C113.857333,285.026667 113.9,285.08 113.9,285.176 L113.9,285.176 L114.188,285.176 Z M120.748,285 C121.377333,285 121.910667,284.898667 122.348,284.696 C122.785333,284.493333 123.142667,284.229333 123.42,283.904 C123.697333,283.578667 123.9,283.205333 124.028,282.784 C124.156,282.362667 124.22,281.928 124.22,281.48 C124.22,281.032 124.153333,280.597333 124.02,280.176 C123.886667,279.754667 123.678667,279.381333 123.396,279.056 C123.113333,278.730667 122.748,278.466667 122.3,278.264 C121.852,278.061333 121.313333,277.96 120.684,277.96 L120.684,277.96 L116.236,277.96 L116.236,278.248 C116.481333,278.248 116.604,278.328 116.604,278.488 L116.604,278.488 L116.604,284.472 C116.604,284.632 116.481333,284.712 116.236,284.712 L116.236,284.712 L116.236,285 L120.748,285 Z M120.22,283.816 L118.14,283.816 L118.14,279.144 L120.22,279.144 C120.550667,279.144 120.865333,279.162667 121.164,279.2 C121.462667,279.237333 121.724,279.333333 121.948,279.488 C122.172,279.642667 122.350667,279.872 122.484,280.176 C122.617333,280.48 122.684,280.898667 122.684,281.432 C122.684,281.965333 122.617333,282.389333 122.484,282.704 C122.350667,283.018667 122.172,283.258667 121.948,283.424 C121.724,283.589333 121.462667,283.696 121.164,283.744 C120.865333,283.792 120.550667,283.816 120.22,283.816 L120.22,283.816 Z M128.812,285 L128.812,284.712 C128.513333,284.712 128.364,284.632 128.364,284.472 L128.364,284.472 L128.364,278.488 C128.364,278.328 128.513333,278.248 128.812,278.248 L128.812,278.248 L128.812,277.96 L126.38,277.96 L126.38,278.248 C126.550667,278.248 126.668,278.266667 126.732,278.304 C126.796,278.341333 126.828,278.402667 126.828,278.488 L126.828,278.488 L126.828,284.472 C126.828,284.557333 126.796,284.618667 126.732,284.656 C126.668,284.693333 126.550667,284.712 126.38,284.712 L126.38,284.712 L126.38,285 L128.812,285 Z M132.652,285 L132.652,284.712 C132.556,284.712 132.481333,284.701333 132.428,284.68 C132.374667,284.658667 132.348,284.605333 132.348,284.52 C132.348,284.466667 132.361333,284.405333 132.388,284.336 C132.414667,284.266667 132.449333,284.189333 132.492,284.104 L132.492,284.104 L132.94,283.24 L136.364,283.24 L136.796,284.152 C136.828,284.237333 136.854667,284.306667 136.876,284.36 C136.897333,284.413333 136.908,284.472 136.908,284.536 C136.908,284.621333 136.878667,284.68 136.82,284.712 C136.761333,284.744 136.705333,284.76 136.652,284.76 L136.652,284.76 L136.652,285 L138.924,285 L138.924,284.712 C138.849333,284.690667 138.78,284.658667 138.716,284.616 C138.652,284.573333 138.593333,284.504 138.54,284.408 L138.54,284.408 L135.948,278.968 C135.894667,278.850667 135.844,278.746667 135.796,278.656 C135.748,278.565333 135.724,278.488 135.724,278.424 C135.724,278.349333 135.742667,278.306667 135.78,278.296 C135.817333,278.285333 135.852,278.269333 135.884,278.248 L135.884,278.248 L135.884,277.96 L133.468,277.96 L133.468,278.248 C133.5,278.269333 133.529333,278.288 133.556,278.304 C133.582667,278.32 133.596,278.36 133.596,278.424 C133.596,278.509333 133.577333,278.597333 133.54,278.688 C133.502667,278.778667 133.452,278.898667 133.388,279.048 L133.388,279.048 L131.004,284.248 C130.961333,284.333333 130.9,284.426667 130.82,284.528 C130.74,284.629333 130.636,284.690667 130.508,284.712 L130.508,284.712 L130.508,285 L132.652,285 Z M135.852,282.056 L133.42,282.056 L134.556,279.368 L135.852,282.056 Z M149.1,285 L149.1,284.712 C148.908,284.712 148.812,284.632 148.812,284.472 L148.812,284.472 L148.812,279.144 L150.892,279.144 C150.977333,279.144 151.057333,279.165333 151.132,279.208 C151.206667,279.250667 151.244,279.32 151.244,279.416 L151.244,279.416 L151.532,279.416 L151.532,277.576 L151.244,277.576 C151.244,277.725333 151.206667,277.826667 151.132,277.88 C151.057333,277.933333 150.977333,277.96 150.892,277.96 L150.892,277.96 L145.196,277.96 C145.110667,277.96 145.030667,277.933333 144.956,277.88 C144.881333,277.826667 144.844,277.725333 144.844,277.576 L144.844,277.576 L144.556,277.576 L144.556,279.416 L144.844,279.416 C144.844,279.32 144.881333,279.250667 144.956,279.208 C145.030667,279.165333 145.110667,279.144 145.196,279.144 L145.196,279.144 L147.276,279.144 L147.276,284.472 C147.276,284.557333 147.249333,284.618667 147.196,284.656 C147.142667,284.693333 147.089333,284.712 147.036,284.712 L147.036,284.712 L147.036,285 L149.1,285 Z M159.964,285.176 L159.964,283.496 L159.676,283.496 C159.676,283.592 159.633333,283.669333 159.548,283.728 C159.462667,283.786667 159.356,283.816 159.228,283.816 L159.228,283.816 L155.132,283.816 L155.132,281.928 L157.468,281.928 C157.681333,281.928 157.846667,281.941333 157.964,281.968 C158.081333,281.994667 158.124,282.066667 158.092,282.184 L158.092,282.184 L158.412,282.184 L158.412,280.488 L158.124,280.488 C158.124,280.605333 158.081333,280.677333 157.996,280.704 C157.910667,280.730667 157.777333,280.744 157.596,280.744 L157.596,280.744 L155.132,280.744 L155.132,279.144 L159.036,279.144 C159.366667,279.144 159.532,279.245333 159.532,279.448 L159.532,279.448 L159.82,279.448 L159.82,277.672 L159.532,277.672 C159.532,277.864 159.366667,277.96 159.036,277.96 L159.036,277.96 L153.356,277.96 L153.356,278.248 C153.409333,278.248 153.462667,278.266667 153.516,278.304 C153.569333,278.341333 153.596,278.402667 153.596,278.488 L153.596,278.488 L153.596,284.472 C153.596,284.557333 153.569333,284.618667 153.516,284.656 C153.462667,284.693333 153.409333,284.712 153.356,284.712 L153.356,284.712 L153.356,285 L159.228,285 C159.356,285 159.462667,285.005333 159.548,285.016 C159.633333,285.026667 159.676,285.08 159.676,285.176 L159.676,285.176 L159.964,285.176 Z M169.164,285.16 L169.164,283.48 L168.876,283.48 C168.876,283.586667 168.833333,283.669333 168.748,283.728 C168.662667,283.786667 168.556,283.816 168.428,283.816 L168.428,283.816 L164.108,283.816 L164.108,278.488 C164.108,278.328 164.230667,278.248 164.476,278.248 L164.476,278.248 L164.476,277.96 L162.156,277.96 L162.156,278.248 C162.433333,278.248 162.572,278.328 162.572,278.488 L162.572,278.488 L162.572,284.472 C162.572,284.632 162.433333,284.712 162.156,284.712 L162.156,284.712 L162.156,285 L168.428,285 C168.556,285 168.662667,285.005333 168.748,285.016 C168.833333,285.026667 168.876,285.074667 168.876,285.16 L168.876,285.16 L169.164,285.16 Z M178.06,285.16 L178.06,283.48 L177.772,283.48 C177.772,283.586667 177.729333,283.669333 177.644,283.728 C177.558667,283.786667 177.452,283.816 177.324,283.816 L177.324,283.816 L173.004,283.816 L173.004,278.488 C173.004,278.328 173.126667,278.248 173.372,278.248 L173.372,278.248 L173.372,277.96 L171.052,277.96 L171.052,278.248 C171.329333,278.248 171.468,278.328 171.468,278.488 L171.468,278.488 L171.468,284.472 C171.468,284.632 171.329333,284.712 171.052,284.712 L171.052,284.712 L171.052,285 L177.324,285 C177.452,285 177.558667,285.005333 177.644,285.016 C177.729333,285.026667 177.772,285.074667 177.772,285.16 L177.772,285.16 L178.06,285.16 Z M183.052,285.048 C183.414667,285.048 183.801333,285.021333 184.212,284.968 C184.622667,284.914667 184.998667,284.802667 185.34,284.632 C185.681333,284.461333 185.966667,284.226667 186.196,283.928 C186.425333,283.629333 186.54,283.245333 186.54,282.776 C186.54,282.306667 186.409333,281.938667 186.148,281.672 C185.886667,281.405333 185.558667,281.202667 185.164,281.064 C184.769333,280.925333 184.342667,280.826667 183.884,280.768 C183.425333,280.709333 182.998667,280.650667 182.604,280.592 C182.209333,280.533333 181.881333,280.453333 181.62,280.352 C181.358667,280.250667 181.228,280.082667 181.228,279.848 C181.228,279.698667 181.270667,279.573333 181.356,279.472 C181.441333,279.370667 181.558667,279.288 181.708,279.224 C181.857333,279.16 182.028,279.114667 182.22,279.088 C182.412,279.061333 182.614667,279.048 182.828,279.048 C183.382667,279.048 183.884,279.112 184.332,279.24 C184.78,279.368 185.110667,279.522667 185.324,279.704 C185.409333,279.768 185.457333,279.832 185.468,279.896 L185.468,279.896 L185.5,280.088 L185.788,280.184 L186.588,278.68 L186.412,278.504 C186.348,278.536 186.294667,278.565333 186.252,278.592 C186.209333,278.618667 186.145333,278.632 186.06,278.632 C185.985333,278.632 185.870667,278.592 185.716,278.512 C185.561333,278.432 185.361333,278.344 185.116,278.248 C184.870667,278.152 184.569333,278.064 184.212,277.984 C183.854667,277.904 183.425333,277.864 182.924,277.864 C181.9,277.864 181.105333,278.066667 180.54,278.472 C179.974667,278.877333 179.692,279.421333 179.692,280.104 C179.692,280.562667 179.822667,280.917333 180.084,281.168 C180.345333,281.418667 180.673333,281.610667 181.068,281.744 C181.462667,281.877333 181.889333,281.973333 182.348,282.032 C182.806667,282.090667 183.233333,282.149333 183.628,282.208 C184.022667,282.266667 184.350667,282.349333 184.612,282.456 C184.873333,282.562667 185.004,282.733333 185.004,282.968 C185.004,283.170667 184.929333,283.333333 184.78,283.456 C184.630667,283.578667 184.449333,283.674667 184.236,283.744 C184.022667,283.813333 183.806667,283.858667 183.588,283.88 C183.369333,283.901333 183.185333,283.912 183.036,283.912 C182.876,283.912 182.654667,283.885333 182.372,283.832 C182.089333,283.778667 181.806667,283.706667 181.524,283.616 C181.241333,283.525333 180.998667,283.413333 180.796,283.28 C180.593333,283.146667 180.492,283 180.492,282.84 C180.492,282.786667 180.494667,282.736 180.5,282.688 C180.505333,282.64 180.508,282.594667 180.508,282.552 L180.508,282.552 L180.204,282.472 L179.468,284.264 L179.692,284.424 C179.745333,284.36 179.809333,284.328 179.884,284.328 C179.926667,284.328 180.049333,284.368 180.252,284.448 C180.454667,284.528 180.702667,284.613333 180.996,284.704 C181.289333,284.794667 181.614667,284.874667 181.972,284.944 C182.329333,285.013333 182.689333,285.048 183.052,285.048 Z M198.028,285 L198.028,284.712 C197.825333,284.712 197.724,284.632 197.724,284.472 L197.724,284.472 L197.724,282.072 L200.172,278.904 C200.289333,278.754667 200.425333,278.608 200.58,278.464 C200.734667,278.32 200.876,278.248 201.004,278.248 L201.004,278.248 L201.004,277.96 L198.556,277.96 L198.556,278.248 C198.609333,278.248 198.662667,278.258667 198.716,278.28 C198.769333,278.301333 198.796,278.354667 198.796,278.44 C198.796,278.504 198.772,278.570667 198.724,278.64 C198.676,278.709333 198.604,278.813333 198.508,278.952 L198.508,278.952 L197.084,280.936 L195.468,278.824 C195.414667,278.749333 195.366667,278.685333 195.324,278.632 C195.281333,278.578667 195.26,278.52 195.26,278.456 C195.26,278.392 195.292,278.341333 195.356,278.304 C195.42,278.266667 195.478667,278.248 195.532,278.248 L195.532,278.248 L195.532,277.96 L192.892,277.96 L192.892,278.248 C192.988,278.248 193.089333,278.269333 193.196,278.312 C193.302667,278.354667 193.393333,278.424 193.468,278.52 L193.468,278.52 L196.188,282.008 L196.188,284.472 C196.188,284.632 196.092,284.712 195.9,284.712 L195.9,284.712 L195.9,285 L198.028,285 Z M206.284,285.048 C206.870667,285.048 207.422667,284.981333 207.94,284.848 C208.457333,284.714667 208.908,284.498667 209.292,284.2 C209.676,283.901333 209.98,283.525333 210.204,283.072 C210.428,282.618667 210.54,282.088 210.54,281.48 C210.54,280.872 210.428,280.341333 210.204,279.888 C209.98,279.434667 209.676,279.058667 209.292,278.76 C208.908,278.461333 208.457333,278.237333 207.94,278.088 C207.422667,277.938667 206.870667,277.864 206.284,277.864 C205.697333,277.864 205.145333,277.938667 204.628,278.088 C204.110667,278.237333 203.66,278.461333 203.276,278.76 C202.892,279.058667 202.588,279.434667 202.364,279.888 C202.14,280.341333 202.028,280.872 202.028,281.48 C202.028,282.088 202.14,282.618667 202.364,283.072 C202.588,283.525333 202.892,283.901333 203.276,284.2 C203.66,284.498667 204.110667,284.714667 204.628,284.848 C205.145333,284.981333 205.697333,285.048 206.284,285.048 Z M206.284,283.912 C205.942667,283.912 205.609333,283.856 205.284,283.744 C204.958667,283.632 204.668,283.472 204.412,283.264 C204.156,283.056 203.950667,282.802667 203.796,282.504 C203.641333,282.205333 203.564,281.864 203.564,281.48 C203.564,281.096 203.641333,280.754667 203.796,280.456 C203.950667,280.157333 204.156,279.904 204.412,279.696 C204.668,279.488 204.958667,279.328 205.284,279.216 C205.609333,279.104 205.942667,279.048 206.284,279.048 C206.625333,279.048 206.958667,279.104 207.284,279.216 C207.609333,279.328 207.9,279.488 208.156,279.696 C208.412,279.904 208.617333,280.157333 208.772,280.456 C208.926667,280.754667 209.004,281.096 209.004,281.48 C209.004,281.864 208.926667,282.205333 208.772,282.504 C208.617333,282.802667 208.412,283.056 208.156,283.264 C207.9,283.472 207.609333,283.632 207.284,283.744 C206.958667,283.856 206.625333,283.912 206.284,283.912 Z M216.572,285.048 C217.212,285.048 217.769333,284.981333 218.244,284.848 C218.718667,284.714667 219.108,284.530667 219.412,284.296 C219.716,284.061333 219.942667,283.792 220.092,283.488 C220.241333,283.184 220.316,282.866667 220.316,282.536 L220.316,282.536 L220.316,278.488 C220.316,278.328 220.433333,278.248 220.668,278.248 L220.668,278.248 L220.668,277.96 L218.444,277.96 L218.444,278.248 C218.710667,278.248 218.844,278.328 218.844,278.488 L218.844,278.488 L218.844,282.152 C218.844,282.664 218.657333,283.074667 218.284,283.384 C217.910667,283.693333 217.34,283.848 216.572,283.848 C215.804,283.848 215.233333,283.693333 214.86,283.384 C214.486667,283.074667 214.3,282.664 214.3,282.152 L214.3,282.152 L214.3,278.488 C214.3,278.328 214.417333,278.248 214.652,278.248 L214.652,278.248 L214.652,277.96 L212.364,277.96 L212.364,278.248 C212.545333,278.248 212.668,278.266667 212.732,278.304 C212.796,278.341333 212.828,278.402667 212.828,278.488 L212.828,278.488 L212.828,282.536 C212.828,282.866667 212.902667,283.184 213.052,283.488 C213.201333,283.792 213.428,284.061333 213.732,284.296 C214.036,284.530667 214.425333,284.714667 214.9,284.848 C215.374667,284.981333 215.932,285.048 216.572,285.048 Z M124.228,301 L124.228,300.712 C124.036,300.712 123.94,300.632 123.94,300.472 L123.94,300.472 L123.94,295.144 L126.02,295.144 C126.105333,295.144 126.185333,295.165333 126.26,295.208 C126.334667,295.250667 126.372,295.32 126.372,295.416 L126.372,295.416 L126.66,295.416 L126.66,293.576 L126.372,293.576 C126.372,293.725333 126.334667,293.826667 126.26,293.88 C126.185333,293.933333 126.105333,293.96 126.02,293.96 L126.02,293.96 L120.324,293.96 C120.238667,293.96 120.158667,293.933333 120.084,293.88 C120.009333,293.826667 119.972,293.725333 119.972,293.576 L119.972,293.576 L119.684,293.576 L119.684,295.416 L119.972,295.416 C119.972,295.32 120.009333,295.250667 120.084,295.208 C120.158667,295.165333 120.238667,295.144 120.324,295.144 L120.324,295.144 L122.404,295.144 L122.404,300.472 C122.404,300.557333 122.377333,300.618667 122.324,300.656 C122.270667,300.693333 122.217333,300.712 122.164,300.712 L122.164,300.712 L122.164,301 L124.228,301 Z M132.052,301.048 C132.638667,301.048 133.190667,300.981333 133.708,300.848 C134.225333,300.714667 134.676,300.498667 135.06,300.2 C135.444,299.901333 135.748,299.525333 135.972,299.072 C136.196,298.618667 136.308,298.088 136.308,297.48 C136.308,296.872 136.196,296.341333 135.972,295.888 C135.748,295.434667 135.444,295.058667 135.06,294.76 C134.676,294.461333 134.225333,294.237333 133.708,294.088 C133.190667,293.938667 132.638667,293.864 132.052,293.864 C131.465333,293.864 130.913333,293.938667 130.396,294.088 C129.878667,294.237333 129.428,294.461333 129.044,294.76 C128.66,295.058667 128.356,295.434667 128.132,295.888 C127.908,296.341333 127.796,296.872 127.796,297.48 C127.796,298.088 127.908,298.618667 128.132,299.072 C128.356,299.525333 128.66,299.901333 129.044,300.2 C129.428,300.498667 129.878667,300.714667 130.396,300.848 C130.913333,300.981333 131.465333,301.048 132.052,301.048 Z M132.052,299.912 C131.710667,299.912 131.377333,299.856 131.052,299.744 C130.726667,299.632 130.436,299.472 130.18,299.264 C129.924,299.056 129.718667,298.802667 129.564,298.504 C129.409333,298.205333 129.332,297.864 129.332,297.48 C129.332,297.096 129.409333,296.754667 129.564,296.456 C129.718667,296.157333 129.924,295.904 130.18,295.696 C130.436,295.488 130.726667,295.328 131.052,295.216 C131.377333,295.104 131.710667,295.048 132.052,295.048 C132.393333,295.048 132.726667,295.104 133.052,295.216 C133.377333,295.328 133.668,295.488 133.924,295.696 C134.18,295.904 134.385333,296.157333 134.54,296.456 C134.694667,296.754667 134.772,297.096 134.772,297.48 C134.772,297.864 134.694667,298.205333 134.54,298.504 C134.385333,298.802667 134.18,299.056 133.924,299.264 C133.668,299.472 133.377333,299.632 133.052,299.744 C132.726667,299.856 132.393333,299.912 132.052,299.912 Z M139.38,301.048 C139.689333,301.048 139.956,300.944 140.18,300.736 C140.404,300.528 140.516,300.269333 140.516,299.96 C140.516,299.650667 140.404,299.384 140.18,299.16 C139.956,298.936 139.689333,298.824 139.38,298.824 C139.070667,298.824 138.804,298.936 138.58,299.16 C138.356,299.384 138.244,299.650667 138.244,299.96 C138.244,300.269333 138.356,300.528 138.58,300.736 C138.804,300.944 139.070667,301.048 139.38,301.048 Z M35.412,317 L35.412,316.712 C35.2306667,316.712 35.1053333,316.688 35.036,316.64 C34.9666667,316.592 34.932,316.52 34.932,316.424 L34.932,316.424 L34.932,313.576 L37.22,313.576 L38.98,316.072 C39.0653333,316.189333 39.1293333,316.282667 39.172,316.352 C39.2146667,316.421333 39.236,316.482667 39.236,316.536 C39.236,316.589333 39.2013333,316.632 39.132,316.664 C39.0626667,316.696 38.98,316.712 38.884,316.712 L38.884,316.712 L38.884,317 L41.876,317 L41.876,316.712 C41.7906667,316.712 41.6973333,316.701333 41.596,316.68 C41.4946667,316.658667 41.4066667,316.594667 41.332,316.488 L41.332,316.488 L39.204,313.448 C39.908,313.32 40.468,313.069333 40.884,312.696 C41.3,312.322667 41.508,311.784 41.508,311.08 C41.508,310.621333 41.428,310.234667 41.268,309.92 C41.108,309.605333 40.8786667,309.349333 40.58,309.152 C40.2813333,308.954667 39.924,308.810667 39.508,308.72 C39.092,308.629333 38.628,308.584 38.116,308.584 L38.116,308.584 L32.644,308.584 L32.644,308.872 C32.9533333,308.872 33.108,308.968 33.108,309.16 L33.108,309.16 L33.108,316.424 C33.108,316.616 32.9533333,316.712 32.644,316.712 L32.644,316.712 L32.644,317 L35.412,317 Z M37.7,312.328 L34.932,312.328 L34.932,309.96 L37.7,309.96 C38.084,309.96 38.404,309.989333 38.66,310.048 C38.916,310.106667 39.1186667,310.189333 39.268,310.296 C39.4173333,310.402667 39.524,310.528 39.588,310.672 C39.652,310.816 39.684,310.973333 39.684,311.144 C39.684,311.314667 39.652,311.472 39.588,311.616 C39.524,311.76 39.4173333,311.885333 39.268,311.992 C39.1186667,312.098667 38.916,312.181333 38.66,312.24 C38.404,312.298667 38.084,312.328 37.7,312.328 L37.7,312.328 Z M50.836,317.176 L50.836,315.496 L50.548,315.496 C50.548,315.592 50.5053333,315.669333 50.42,315.728 C50.3346667,315.786667 50.228,315.816 50.1,315.816 L50.1,315.816 L46.004,315.816 L46.004,313.928 L48.34,313.928 C48.5533333,313.928 48.7186667,313.941333 48.836,313.968 C48.9533333,313.994667 48.996,314.066667 48.964,314.184 L48.964,314.184 L49.284,314.184 L49.284,312.488 L48.996,312.488 C48.996,312.605333 48.9533333,312.677333 48.868,312.704 C48.7826667,312.730667 48.6493333,312.744 48.468,312.744 L48.468,312.744 L46.004,312.744 L46.004,311.144 L49.908,311.144 C50.2386667,311.144 50.404,311.245333 50.404,311.448 L50.404,311.448 L50.692,311.448 L50.692,309.672 L50.404,309.672 C50.404,309.864 50.2386667,309.96 49.908,309.96 L49.908,309.96 L44.228,309.96 L44.228,310.248 C44.2813333,310.248 44.3346667,310.266667 44.388,310.304 C44.4413333,310.341333 44.468,310.402667 44.468,310.488 L44.468,310.488 L44.468,316.472 C44.468,316.557333 44.4413333,316.618667 44.388,316.656 C44.3346667,316.693333 44.2813333,316.712 44.228,316.712 L44.228,316.712 L44.228,317 L50.1,317 C50.228,317 50.3346667,317.005333 50.42,317.016 C50.5053333,317.026667 50.548,317.08 50.548,317.176 L50.548,317.176 L50.836,317.176 Z M57.524,317 L57.524,316.712 C57.332,316.68 57.236,316.632 57.236,316.568 C57.236,316.514667 57.2653333,316.44 57.324,316.344 C57.3826667,316.248 57.4706667,316.061333 57.588,315.784 L57.588,315.784 L59.924,310.616 C60.0413333,310.370667 60.1746667,310.248 60.324,310.248 L60.324,310.248 L60.324,309.96 L58.228,309.96 L58.228,310.248 C58.3773333,310.248 58.4573333,310.312 58.468,310.44 C58.4786667,310.514667 58.452,310.616 58.388,310.744 C58.324,310.872 58.2333333,311.064 58.116,311.32 L58.116,311.32 L56.372,315.192 L54.532,311.208 C54.4573333,311.048 54.3906667,310.901333 54.332,310.768 C54.2733333,310.634667 54.244,310.530667 54.244,310.456 C54.244,310.317333 54.308,310.248 54.436,310.248 L54.436,310.248 L54.436,309.96 L52.18,309.96 L52.18,310.248 C52.244,310.248 52.3106667,310.274667 52.38,310.328 C52.4493333,310.381333 52.5053333,310.456 52.548,310.552 L52.548,310.552 L54.98,315.784 C55.076,315.986667 55.1586667,316.146667 55.228,316.264 C55.2973333,316.381333 55.332,316.466667 55.332,316.52 C55.332,316.573333 55.308,316.613333 55.26,316.64 C55.212,316.666667 55.1613333,316.690667 55.108,316.712 L55.108,316.712 L55.108,317 L57.524,317 Z M68.628,317.176 L68.628,315.496 L68.34,315.496 C68.34,315.592 68.2973333,315.669333 68.212,315.728 C68.1266667,315.786667 68.02,315.816 67.892,315.816 L67.892,315.816 L63.796,315.816 L63.796,313.928 L66.132,313.928 C66.3453333,313.928 66.5106667,313.941333 66.628,313.968 C66.7453333,313.994667 66.788,314.066667 66.756,314.184 L66.756,314.184 L67.076,314.184 L67.076,312.488 L66.788,312.488 C66.788,312.605333 66.7453333,312.677333 66.66,312.704 C66.5746667,312.730667 66.4413333,312.744 66.26,312.744 L66.26,312.744 L63.796,312.744 L63.796,311.144 L67.7,311.144 C68.0306667,311.144 68.196,311.245333 68.196,311.448 L68.196,311.448 L68.484,311.448 L68.484,309.672 L68.196,309.672 C68.196,309.864 68.0306667,309.96 67.7,309.96 L67.7,309.96 L62.02,309.96 L62.02,310.248 C62.0733333,310.248 62.1266667,310.266667 62.18,310.304 C62.2333333,310.341333 62.26,310.402667 62.26,310.488 L62.26,310.488 L62.26,316.472 C62.26,316.557333 62.2333333,316.618667 62.18,316.656 C62.1266667,316.693333 62.0733333,316.712 62.02,316.712 L62.02,316.712 L62.02,317 L67.892,317 C68.02,317 68.1266667,317.005333 68.212,317.016 C68.2973333,317.026667 68.34,317.08 68.34,317.176 L68.34,317.176 L68.628,317.176 Z M71.988,317 L71.988,316.712 C71.892,316.712 71.8173333,316.701333 71.764,316.68 C71.7106667,316.658667 71.684,316.605333 71.684,316.52 C71.684,316.466667 71.6973333,316.405333 71.724,316.336 C71.7506667,316.266667 71.7853333,316.189333 71.828,316.104 L71.828,316.104 L72.276,315.24 L75.7,315.24 L76.132,316.152 C76.164,316.237333 76.1906667,316.306667 76.212,316.36 C76.2333333,316.413333 76.244,316.472 76.244,316.536 C76.244,316.621333 76.2146667,316.68 76.156,316.712 C76.0973333,316.744 76.0413333,316.76 75.988,316.76 L75.988,316.76 L75.988,317 L78.26,317 L78.26,316.712 C78.1853333,316.690667 78.116,316.658667 78.052,316.616 C77.988,316.573333 77.9293333,316.504 77.876,316.408 L77.876,316.408 L75.284,310.968 C75.2306667,310.850667 75.18,310.746667 75.132,310.656 C75.084,310.565333 75.06,310.488 75.06,310.424 C75.06,310.349333 75.0786667,310.306667 75.116,310.296 C75.1533333,310.285333 75.188,310.269333 75.22,310.248 L75.22,310.248 L75.22,309.96 L72.804,309.96 L72.804,310.248 C72.836,310.269333 72.8653333,310.288 72.892,310.304 C72.9186667,310.32 72.932,310.36 72.932,310.424 C72.932,310.509333 72.9133333,310.597333 72.876,310.688 C72.8386667,310.778667 72.788,310.898667 72.724,311.048 L72.724,311.048 L70.34,316.248 C70.2973333,316.333333 70.236,316.426667 70.156,316.528 C70.076,316.629333 69.972,316.690667 69.844,316.712 L69.844,316.712 L69.844,317 L71.988,317 Z M75.188,314.056 L72.756,314.056 L73.892,311.368 L75.188,314.056 Z M86.724,317.16 L86.724,315.48 L86.436,315.48 C86.436,315.586667 86.3933333,315.669333 86.308,315.728 C86.2226667,315.786667 86.116,315.816 85.988,315.816 L85.988,315.816 L81.668,315.816 L81.668,310.488 C81.668,310.328 81.7906667,310.248 82.036,310.248 L82.036,310.248 L82.036,309.96 L79.716,309.96 L79.716,310.248 C79.9933333,310.248 80.132,310.328 80.132,310.488 L80.132,310.488 L80.132,316.472 C80.132,316.632 79.9933333,316.712 79.716,316.712 L79.716,316.712 L79.716,317 L85.988,317 C86.116,317 86.2226667,317.005333 86.308,317.016 C86.3933333,317.026667 86.436,317.074667 86.436,317.16 L86.436,317.16 L86.724,317.16 Z M97.796,317 L97.796,316.712 C97.5933333,316.712 97.492,316.632 97.492,316.472 L97.492,316.472 L97.492,314.072 L99.94,310.904 C100.057333,310.754667 100.193333,310.608 100.348,310.464 C100.502667,310.32 100.644,310.248 100.772,310.248 L100.772,310.248 L100.772,309.96 L98.324,309.96 L98.324,310.248 C98.3773333,310.248 98.4306667,310.258667 98.484,310.28 C98.5373333,310.301333 98.564,310.354667 98.564,310.44 C98.564,310.504 98.54,310.570667 98.492,310.64 C98.444,310.709333 98.372,310.813333 98.276,310.952 L98.276,310.952 L96.852,312.936 L95.236,310.824 C95.1826667,310.749333 95.1346667,310.685333 95.092,310.632 C95.0493333,310.578667 95.028,310.52 95.028,310.456 C95.028,310.392 95.06,310.341333 95.124,310.304 C95.188,310.266667 95.2466667,310.248 95.3,310.248 L95.3,310.248 L95.3,309.96 L92.66,309.96 L92.66,310.248 C92.756,310.248 92.8573333,310.269333 92.964,310.312 C93.0706667,310.354667 93.1613333,310.424 93.236,310.52 L93.236,310.52 L95.956,314.008 L95.956,316.472 C95.956,316.632 95.86,316.712 95.668,316.712 L95.668,316.712 L95.668,317 L97.796,317 Z M106.052,317.048 C106.638667,317.048 107.190667,316.981333 107.708,316.848 C108.225333,316.714667 108.676,316.498667 109.06,316.2 C109.444,315.901333 109.748,315.525333 109.972,315.072 C110.196,314.618667 110.308,314.088 110.308,313.48 C110.308,312.872 110.196,312.341333 109.972,311.888 C109.748,311.434667 109.444,311.058667 109.06,310.76 C108.676,310.461333 108.225333,310.237333 107.708,310.088 C107.190667,309.938667 106.638667,309.864 106.052,309.864 C105.465333,309.864 104.913333,309.938667 104.396,310.088 C103.878667,310.237333 103.428,310.461333 103.044,310.76 C102.66,311.058667 102.356,311.434667 102.132,311.888 C101.908,312.341333 101.796,312.872 101.796,313.48 C101.796,314.088 101.908,314.618667 102.132,315.072 C102.356,315.525333 102.66,315.901333 103.044,316.2 C103.428,316.498667 103.878667,316.714667 104.396,316.848 C104.913333,316.981333 105.465333,317.048 106.052,317.048 Z M106.052,315.912 C105.710667,315.912 105.377333,315.856 105.052,315.744 C104.726667,315.632 104.436,315.472 104.18,315.264 C103.924,315.056 103.718667,314.802667 103.564,314.504 C103.409333,314.205333 103.332,313.864 103.332,313.48 C103.332,313.096 103.409333,312.754667 103.564,312.456 C103.718667,312.157333 103.924,311.904 104.18,311.696 C104.436,311.488 104.726667,311.328 105.052,311.216 C105.377333,311.104 105.710667,311.048 106.052,311.048 C106.393333,311.048 106.726667,311.104 107.052,311.216 C107.377333,311.328 107.668,311.488 107.924,311.696 C108.18,311.904 108.385333,312.157333 108.54,312.456 C108.694667,312.754667 108.772,313.096 108.772,313.48 C108.772,313.864 108.694667,314.205333 108.54,314.504 C108.385333,314.802667 108.18,315.056 107.924,315.264 C107.668,315.472 107.377333,315.632 107.052,315.744 C106.726667,315.856 106.393333,315.912 106.052,315.912 Z M116.34,317.048 C116.98,317.048 117.537333,316.981333 118.012,316.848 C118.486667,316.714667 118.876,316.530667 119.18,316.296 C119.484,316.061333 119.710667,315.792 119.86,315.488 C120.009333,315.184 120.084,314.866667 120.084,314.536 L120.084,314.536 L120.084,310.488 C120.084,310.328 120.201333,310.248 120.436,310.248 L120.436,310.248 L120.436,309.96 L118.212,309.96 L118.212,310.248 C118.478667,310.248 118.612,310.328 118.612,310.488 L118.612,310.488 L118.612,314.152 C118.612,314.664 118.425333,315.074667 118.052,315.384 C117.678667,315.693333 117.108,315.848 116.34,315.848 C115.572,315.848 115.001333,315.693333 114.628,315.384 C114.254667,315.074667 114.068,314.664 114.068,314.152 L114.068,314.152 L114.068,310.488 C114.068,310.328 114.185333,310.248 114.42,310.248 L114.42,310.248 L114.42,309.96 L112.132,309.96 L112.132,310.248 C112.313333,310.248 112.436,310.266667 112.5,310.304 C112.564,310.341333 112.596,310.402667 112.596,310.488 L112.596,310.488 L112.596,314.536 C112.596,314.866667 112.670667,315.184 112.82,315.488 C112.969333,315.792 113.196,316.061333 113.5,316.296 C113.804,316.530667 114.193333,316.714667 114.668,316.848 C115.142667,316.981333 115.7,317.048 116.34,317.048 Z M124.996,317 L124.996,316.712 C124.932,316.712 124.865333,316.693333 124.796,316.656 C124.726667,316.618667 124.692,316.557333 124.692,316.472 L124.692,316.472 L124.692,314.184 L126.916,314.184 L128.18,316.072 C128.34,316.296 128.42,316.461333 128.42,316.568 C128.42,316.664 128.350667,316.712 128.212,316.712 L128.212,316.712 L128.212,317 L130.66,317 L130.66,316.712 C130.542667,316.68 130.433333,316.634667 130.332,316.576 C130.230667,316.517333 130.137333,316.429333 130.052,316.312 L130.052,316.312 L128.484,314.024 C128.708,313.970667 128.926667,313.893333 129.14,313.792 C129.353333,313.690667 129.548,313.557333 129.724,313.392 C129.9,313.226667 130.041333,313.032 130.148,312.808 C130.254667,312.584 130.308,312.328 130.308,312.04 C130.308,311.282667 130.041333,310.746667 129.508,310.432 C128.974667,310.117333 128.233333,309.96 127.284,309.96 L127.284,309.96 L122.868,309.96 L122.868,310.248 C123.06,310.248 123.156,310.328 123.156,310.488 L123.156,310.488 L123.156,316.472 C123.156,316.632 123.06,316.712 122.868,316.712 L122.868,316.712 L122.868,317 L124.996,317 Z M127.252,313 L124.724,313 L124.724,311.144 L127.252,311.144 C127.796,311.144 128.193333,311.221333 128.444,311.376 C128.694667,311.530667 128.82,311.741333 128.82,312.008 C128.82,312.669333 128.297333,313 127.252,313 L127.252,313 Z M139.7,317 L139.7,316.712 C139.636,316.712 139.58,316.693333 139.532,316.656 C139.484,316.618667 139.46,316.557333 139.46,316.472 L139.46,316.472 L139.46,314.056 L143.748,314.056 L143.748,316.472 C143.748,316.557333 143.724,316.618667 143.676,316.656 C143.628,316.693333 143.572,316.712 143.508,316.712 L143.508,316.712 L143.508,317 L145.524,317 L145.524,316.712 C145.46,316.712 145.404,316.693333 145.356,316.656 C145.308,316.618667 145.284,316.557333 145.284,316.472 L145.284,316.472 L145.284,310.488 C145.284,310.402667 145.308,310.341333 145.356,310.304 C145.404,310.266667 145.46,310.248 145.524,310.248 L145.524,310.248 L145.524,309.96 L143.508,309.96 L143.508,310.248 C143.572,310.248 143.628,310.266667 143.676,310.304 C143.724,310.341333 143.748,310.402667 143.748,310.488 L143.748,310.488 L143.748,312.744 L139.46,312.744 L139.46,310.488 C139.46,310.402667 139.484,310.341333 139.532,310.304 C139.58,310.266667 139.636,310.248 139.7,310.248 L139.7,310.248 L139.7,309.96 L137.684,309.96 L137.684,310.248 C137.748,310.248 137.804,310.266667 137.852,310.304 C137.9,310.341333 137.924,310.402667 137.924,310.488 L137.924,310.488 L137.924,316.472 C137.924,316.557333 137.9,316.618667 137.852,316.656 C137.804,316.693333 137.748,316.712 137.684,316.712 L137.684,316.712 L137.684,317 L139.7,317 Z M149.332,317 L149.332,316.712 C149.236,316.712 149.161333,316.701333 149.108,316.68 C149.054667,316.658667 149.028,316.605333 149.028,316.52 C149.028,316.466667 149.041333,316.405333 149.068,316.336 C149.094667,316.266667 149.129333,316.189333 149.172,316.104 L149.172,316.104 L149.62,315.24 L153.044,315.24 L153.476,316.152 C153.508,316.237333 153.534667,316.306667 153.556,316.36 C153.577333,316.413333 153.588,316.472 153.588,316.536 C153.588,316.621333 153.558667,316.68 153.5,316.712 C153.441333,316.744 153.385333,316.76 153.332,316.76 L153.332,316.76 L153.332,317 L155.604,317 L155.604,316.712 C155.529333,316.690667 155.46,316.658667 155.396,316.616 C155.332,316.573333 155.273333,316.504 155.22,316.408 L155.22,316.408 L152.628,310.968 C152.574667,310.850667 152.524,310.746667 152.476,310.656 C152.428,310.565333 152.404,310.488 152.404,310.424 C152.404,310.349333 152.422667,310.306667 152.46,310.296 C152.497333,310.285333 152.532,310.269333 152.564,310.248 L152.564,310.248 L152.564,309.96 L150.148,309.96 L150.148,310.248 C150.18,310.269333 150.209333,310.288 150.236,310.304 C150.262667,310.32 150.276,310.36 150.276,310.424 C150.276,310.509333 150.257333,310.597333 150.22,310.688 C150.182667,310.778667 150.132,310.898667 150.068,311.048 L150.068,311.048 L147.684,316.248 C147.641333,316.333333 147.58,316.426667 147.5,316.528 C147.42,316.629333 147.316,316.690667 147.188,316.712 L147.188,316.712 L147.188,317 L149.332,317 Z M152.532,314.056 L150.1,314.056 L151.236,311.368 L152.532,314.056 Z M159.108,317 L159.108,316.712 C158.884,316.712 158.772,316.632 158.772,316.472 L158.772,316.472 L158.772,311.816 L162.74,316.04 C162.868,316.178667 162.982667,316.301333 163.084,316.408 C163.185333,316.514667 163.236,316.589333 163.236,316.632 C163.236,316.685333 163.198667,316.712 163.124,316.712 L163.124,316.712 L163.124,317 L165.204,317 L165.204,316.712 C165.012,316.712 164.916,316.632 164.916,316.472 L164.916,316.472 L164.916,310.488 C164.916,310.328 165.012,310.248 165.204,310.248 L165.204,310.248 L165.204,309.96 L163.252,309.96 L163.252,310.248 C163.465333,310.248 163.572,310.328 163.572,310.488 L163.572,310.488 L163.572,314.824 L159.732,310.76 C159.497333,310.525333 159.38,310.381333 159.38,310.328 C159.38,310.285333 159.417333,310.258667 159.492,310.248 L159.492,310.248 L159.492,309.96 L157.14,309.96 L157.14,310.248 C157.332,310.248 157.428,310.328 157.428,310.488 L157.428,310.488 L157.428,316.472 C157.428,316.632 157.332,316.712 157.14,316.712 L157.14,316.712 L157.14,317 L159.108,317 Z M172.1,317 C172.729333,317 173.262667,316.898667 173.7,316.696 C174.137333,316.493333 174.494667,316.229333 174.772,315.904 C175.049333,315.578667 175.252,315.205333 175.38,314.784 C175.508,314.362667 175.572,313.928 175.572,313.48 C175.572,313.032 175.505333,312.597333 175.372,312.176 C175.238667,311.754667 175.030667,311.381333 174.748,311.056 C174.465333,310.730667 174.1,310.466667 173.652,310.264 C173.204,310.061333 172.665333,309.96 172.036,309.96 L172.036,309.96 L167.588,309.96 L167.588,310.248 C167.833333,310.248 167.956,310.328 167.956,310.488 L167.956,310.488 L167.956,316.472 C167.956,316.632 167.833333,316.712 167.588,316.712 L167.588,316.712 L167.588,317 L172.1,317 Z M171.572,315.816 L169.492,315.816 L169.492,311.144 L171.572,311.144 C171.902667,311.144 172.217333,311.162667 172.516,311.2 C172.814667,311.237333 173.076,311.333333 173.3,311.488 C173.524,311.642667 173.702667,311.872 173.836,312.176 C173.969333,312.48 174.036,312.898667 174.036,313.432 C174.036,313.965333 173.969333,314.389333 173.836,314.704 C173.702667,315.018667 173.524,315.258667 173.3,315.424 C173.076,315.589333 172.814667,315.696 172.516,315.744 C172.217333,315.792 171.902667,315.816 171.572,315.816 L171.572,315.816 Z M183.556,317 L183.556,316.712 C183.46,316.712 183.385333,316.701333 183.332,316.68 C183.278667,316.658667 183.252,316.605333 183.252,316.52 C183.252,316.466667 183.265333,316.405333 183.292,316.336 C183.318667,316.266667 183.353333,316.189333 183.396,316.104 L183.396,316.104 L183.844,315.24 L187.268,315.24 L187.7,316.152 C187.732,316.237333 187.758667,316.306667 187.78,316.36 C187.801333,316.413333 187.812,316.472 187.812,316.536 C187.812,316.621333 187.782667,316.68 187.724,316.712 C187.665333,316.744 187.609333,316.76 187.556,316.76 L187.556,316.76 L187.556,317 L189.828,317 L189.828,316.712 C189.753333,316.690667 189.684,316.658667 189.62,316.616 C189.556,316.573333 189.497333,316.504 189.444,316.408 L189.444,316.408 L186.852,310.968 C186.798667,310.850667 186.748,310.746667 186.7,310.656 C186.652,310.565333 186.628,310.488 186.628,310.424 C186.628,310.349333 186.646667,310.306667 186.684,310.296 C186.721333,310.285333 186.756,310.269333 186.788,310.248 L186.788,310.248 L186.788,309.96 L184.372,309.96 L184.372,310.248 C184.404,310.269333 184.433333,310.288 184.46,310.304 C184.486667,310.32 184.5,310.36 184.5,310.424 C184.5,310.509333 184.481333,310.597333 184.444,310.688 C184.406667,310.778667 184.356,310.898667 184.292,311.048 L184.292,311.048 L181.908,316.248 C181.865333,316.333333 181.804,316.426667 181.724,316.528 C181.644,316.629333 181.54,316.690667 181.412,316.712 L181.412,316.712 L181.412,317 L183.556,317 Z M186.756,314.056 L184.324,314.056 L185.46,311.368 L186.756,314.056 Z M195.124,317 L195.124,316.712 C194.932,316.712 194.836,316.632 194.836,316.472 L194.836,316.472 L194.836,311.144 L196.916,311.144 C197.001333,311.144 197.081333,311.165333 197.156,311.208 C197.230667,311.250667 197.268,311.32 197.268,311.416 L197.268,311.416 L197.556,311.416 L197.556,309.576 L197.268,309.576 C197.268,309.725333 197.230667,309.826667 197.156,309.88 C197.081333,309.933333 197.001333,309.96 196.916,309.96 L196.916,309.96 L191.22,309.96 C191.134667,309.96 191.054667,309.933333 190.98,309.88 C190.905333,309.826667 190.868,309.725333 190.868,309.576 L190.868,309.576 L190.58,309.576 L190.58,311.416 L190.868,311.416 C190.868,311.32 190.905333,311.250667 190.98,311.208 C191.054667,311.165333 191.134667,311.144 191.22,311.144 L191.22,311.144 L193.3,311.144 L193.3,316.472 C193.3,316.557333 193.273333,316.618667 193.22,316.656 C193.166667,316.693333 193.113333,316.712 193.06,316.712 L193.06,316.712 L193.06,317 L195.124,317 Z M205.332,317 L205.332,316.712 C205.236,316.712 205.161333,316.701333 205.108,316.68 C205.054667,316.658667 205.028,316.605333 205.028,316.52 C205.028,316.466667 205.041333,316.405333 205.068,316.336 C205.094667,316.266667 205.129333,316.189333 205.172,316.104 L205.172,316.104 L205.62,315.24 L209.044,315.24 L209.476,316.152 C209.508,316.237333 209.534667,316.306667 209.556,316.36 C209.577333,316.413333 209.588,316.472 209.588,316.536 C209.588,316.621333 209.558667,316.68 209.5,316.712 C209.441333,316.744 209.385333,316.76 209.332,316.76 L209.332,316.76 L209.332,317 L211.604,317 L211.604,316.712 C211.529333,316.690667 211.46,316.658667 211.396,316.616 C211.332,316.573333 211.273333,316.504 211.22,316.408 L211.22,316.408 L208.628,310.968 C208.574667,310.850667 208.524,310.746667 208.476,310.656 C208.428,310.565333 208.404,310.488 208.404,310.424 C208.404,310.349333 208.422667,310.306667 208.46,310.296 C208.497333,310.285333 208.532,310.269333 208.564,310.248 L208.564,310.248 L208.564,309.96 L206.148,309.96 L206.148,310.248 C206.18,310.269333 206.209333,310.288 206.236,310.304 C206.262667,310.32 206.276,310.36 206.276,310.424 C206.276,310.509333 206.257333,310.597333 206.22,310.688 C206.182667,310.778667 206.132,310.898667 206.068,311.048 L206.068,311.048 L203.684,316.248 C203.641333,316.333333 203.58,316.426667 203.5,316.528 C203.42,316.629333 203.316,316.690667 203.188,316.712 L203.188,316.712 L203.188,317 L205.332,317 Z M208.532,314.056 L206.1,314.056 L207.236,311.368 L208.532,314.056 Z M220.068,317.16 L220.068,315.48 L219.78,315.48 C219.78,315.586667 219.737333,315.669333 219.652,315.728 C219.566667,315.786667 219.46,315.816 219.332,315.816 L219.332,315.816 L215.012,315.816 L215.012,310.488 C215.012,310.328 215.134667,310.248 215.38,310.248 L215.38,310.248 L215.38,309.96 L213.06,309.96 L213.06,310.248 C213.337333,310.248 213.476,310.328 213.476,310.488 L213.476,310.488 L213.476,316.472 C213.476,316.632 213.337333,316.712 213.06,316.712 L213.06,316.712 L213.06,317 L219.332,317 C219.46,317 219.566667,317.005333 219.652,317.016 C219.737333,317.026667 219.78,317.074667 219.78,317.16 L219.78,317.16 L220.068,317.16 Z M228.964,317.16 L228.964,315.48 L228.676,315.48 C228.676,315.586667 228.633333,315.669333 228.548,315.728 C228.462667,315.786667 228.356,315.816 228.228,315.816 L228.228,315.816 L223.908,315.816 L223.908,310.488 C223.908,310.328 224.030667,310.248 224.276,310.248 L224.276,310.248 L224.276,309.96 L221.956,309.96 L221.956,310.248 C222.233333,310.248 222.372,310.328 222.372,310.488 L222.372,310.488 L222.372,316.472 C222.372,316.632 222.233333,316.712 221.956,316.712 L221.956,316.712 L221.956,317 L228.228,317 C228.356,317 228.462667,317.005333 228.548,317.016 C228.633333,317.026667 228.676,317.074667 228.676,317.16 L228.676,317.16 L228.964,317.16 Z M111.78,333 L111.78,332.712 C111.588,332.712 111.492,332.632 111.492,332.472 L111.492,332.472 L111.492,327.144 L113.572,327.144 C113.657333,327.144 113.737333,327.165333 113.812,327.208 C113.886667,327.250667 113.924,327.32 113.924,327.416 L113.924,327.416 L114.212,327.416 L114.212,325.576 L113.924,325.576 C113.924,325.725333 113.886667,325.826667 113.812,325.88 C113.737333,325.933333 113.657333,325.96 113.572,325.96 L113.572,325.96 L107.876,325.96 C107.790667,325.96 107.710667,325.933333 107.636,325.88 C107.561333,325.826667 107.524,325.725333 107.524,325.576 L107.524,325.576 L107.236,325.576 L107.236,327.416 L107.524,327.416 C107.524,327.32 107.561333,327.250667 107.636,327.208 C107.710667,327.165333 107.790667,327.144 107.876,327.144 L107.876,327.144 L109.956,327.144 L109.956,332.472 C109.956,332.557333 109.929333,332.618667 109.876,332.656 C109.822667,332.693333 109.769333,332.712 109.716,332.712 L109.716,332.712 L109.716,333 L111.78,333 Z M118.596,333 L118.596,332.712 C118.297333,332.712 118.148,332.632 118.148,332.472 L118.148,332.472 L118.148,326.488 C118.148,326.328 118.297333,326.248 118.596,326.248 L118.596,326.248 L118.596,325.96 L116.164,325.96 L116.164,326.248 C116.334667,326.248 116.452,326.266667 116.516,326.304 C116.58,326.341333 116.612,326.402667 116.612,326.488 L116.612,326.488 L116.612,332.472 C116.612,332.557333 116.58,332.618667 116.516,332.656 C116.452,332.693333 116.334667,332.712 116.164,332.712 L116.164,332.712 L116.164,333 L118.596,333 Z M123.348,333 L123.348,332.712 C123.166667,332.712 123.076,332.632 123.076,332.472 L123.076,332.472 L123.076,327.976 L123.092,327.976 L125.668,333 L125.796,333 L128.516,327.976 L128.548,327.976 L128.548,332.472 C128.58,332.632 128.484,332.712 128.26,332.712 L128.26,332.712 L128.26,333 L130.116,333 L130.116,332.712 C130.062667,332.712 130.012,332.693333 129.964,332.656 C129.916,332.618667 129.892,332.557333 129.892,332.472 L129.892,332.472 L129.892,326.456 C129.892,326.370667 129.916,326.314667 129.964,326.288 C130.012,326.261333 130.062667,326.248 130.116,326.248 L130.116,326.248 L130.116,325.96 L127.86,325.96 L127.86,326.248 C127.945333,326.248 127.988,326.296 127.988,326.392 C127.988,326.424 127.966667,326.48 127.924,326.56 C127.881333,326.64 127.822667,326.744 127.748,326.872 L127.748,326.872 L125.78,330.456 L123.828,326.856 C123.753333,326.728 123.697333,326.629333 123.66,326.56 C123.622667,326.490667 123.604,326.434667 123.604,326.392 C123.604,326.296 123.657333,326.248 123.764,326.248 L123.764,326.248 L123.764,325.96 L121.54,325.96 L121.54,326.248 C121.614667,326.248 121.665333,326.264 121.692,326.296 C121.718667,326.328 121.732,326.418667 121.732,326.568 L121.732,326.568 L121.732,332.424 C121.732,332.541333 121.713333,332.616 121.676,332.648 C121.638667,332.68 121.593333,332.701333 121.54,332.712 L121.54,332.712 L121.54,333 L123.348,333 Z M139.524,333.176 L139.524,331.496 L139.236,331.496 C139.236,331.592 139.193333,331.669333 139.108,331.728 C139.022667,331.786667 138.916,331.816 138.788,331.816 L138.788,331.816 L134.692,331.816 L134.692,329.928 L137.028,329.928 C137.241333,329.928 137.406667,329.941333 137.524,329.968 C137.641333,329.994667 137.684,330.066667 137.652,330.184 L137.652,330.184 L137.972,330.184 L137.972,328.488 L137.684,328.488 C137.684,328.605333 137.641333,328.677333 137.556,328.704 C137.470667,328.730667 137.337333,328.744 137.156,328.744 L137.156,328.744 L134.692,328.744 L134.692,327.144 L138.596,327.144 C138.926667,327.144 139.092,327.245333 139.092,327.448 L139.092,327.448 L139.38,327.448 L139.38,325.672 L139.092,325.672 C139.092,325.864 138.926667,325.96 138.596,325.96 L138.596,325.96 L132.916,325.96 L132.916,326.248 C132.969333,326.248 133.022667,326.266667 133.076,326.304 C133.129333,326.341333 133.156,326.402667 133.156,326.488 L133.156,326.488 L133.156,332.472 C133.156,332.557333 133.129333,332.618667 133.076,332.656 C133.022667,332.693333 132.969333,332.712 132.916,332.712 L132.916,332.712 L132.916,333 L138.788,333 C138.916,333 139.022667,333.005333 139.108,333.016 C139.193333,333.026667 139.236,333.08 139.236,333.176 L139.236,333.176 L139.524,333.176 Z M144.82,333.048 C145.182667,333.048 145.569333,333.021333 145.98,332.968 C146.390667,332.914667 146.766667,332.802667 147.108,332.632 C147.449333,332.461333 147.734667,332.226667 147.964,331.928 C148.193333,331.629333 148.308,331.245333 148.308,330.776 C148.308,330.306667 148.177333,329.938667 147.916,329.672 C147.654667,329.405333 147.326667,329.202667 146.932,329.064 C146.537333,328.925333 146.110667,328.826667 145.652,328.768 C145.193333,328.709333 144.766667,328.650667 144.372,328.592 C143.977333,328.533333 143.649333,328.453333 143.388,328.352 C143.126667,328.250667 142.996,328.082667 142.996,327.848 C142.996,327.698667 143.038667,327.573333 143.124,327.472 C143.209333,327.370667 143.326667,327.288 143.476,327.224 C143.625333,327.16 143.796,327.114667 143.988,327.088 C144.18,327.061333 144.382667,327.048 144.596,327.048 C145.150667,327.048 145.652,327.112 146.1,327.24 C146.548,327.368 146.878667,327.522667 147.092,327.704 C147.177333,327.768 147.225333,327.832 147.236,327.896 C147.246667,327.96 147.257333,328.024 147.268,328.088 L147.268,328.088 L147.556,328.184 L148.356,326.68 L148.18,326.504 C148.116,326.536 148.062667,326.565333 148.02,326.592 C147.977333,326.618667 147.913333,326.632 147.828,326.632 C147.753333,326.632 147.638667,326.592 147.484,326.512 C147.329333,326.432 147.129333,326.344 146.884,326.248 C146.638667,326.152 146.337333,326.064 145.98,325.984 C145.622667,325.904 145.193333,325.864 144.692,325.864 C143.668,325.864 142.873333,326.066667 142.308,326.472 C141.742667,326.877333 141.46,327.421333 141.46,328.104 C141.46,328.562667 141.590667,328.917333 141.852,329.168 C142.113333,329.418667 142.441333,329.610667 142.836,329.744 C143.230667,329.877333 143.657333,329.973333 144.116,330.032 C144.574667,330.090667 145.001333,330.149333 145.396,330.208 C145.790667,330.266667 146.118667,330.349333 146.38,330.456 C146.641333,330.562667 146.772,330.733333 146.772,330.968 C146.772,331.170667 146.697333,331.333333 146.548,331.456 C146.398667,331.578667 146.217333,331.674667 146.004,331.744 C145.790667,331.813333 145.574667,331.858667 145.356,331.88 C145.137333,331.901333 144.953333,331.912 144.804,331.912 C144.644,331.912 144.422667,331.885333 144.14,331.832 C143.857333,331.778667 143.574667,331.706667 143.292,331.616 C143.009333,331.525333 142.766667,331.413333 142.564,331.28 C142.361333,331.146667 142.26,331 142.26,330.84 C142.26,330.786667 142.262667,330.736 142.268,330.688 C142.273333,330.64 142.276,330.594667 142.276,330.552 L142.276,330.552 L141.972,330.472 L141.236,332.264 L141.46,332.424 C141.513333,332.36 141.577333,332.328 141.652,332.328 C141.694667,332.328 141.817333,332.368 142.02,332.448 C142.222667,332.528 142.470667,332.613333 142.764,332.704 C143.057333,332.794667 143.382667,332.874667 143.74,332.944 C144.097333,333.013333 144.457333,333.048 144.82,333.048 Z M151.828,333.048 C152.137333,333.048 152.404,332.944 152.628,332.736 C152.852,332.528 152.964,332.269333 152.964,331.96 C152.964,331.650667 152.852,331.384 152.628,331.16 C152.404,330.936 152.137333,330.824 151.828,330.824 C151.518667,330.824 151.252,330.936 151.028,331.16 C150.804,331.384 150.692,331.650667 150.692,331.96 C150.692,332.269333 150.804,332.528 151.028,332.736 C151.252,332.944 151.518667,333.048 151.828,333.048 Z" id="Youseemtodoanythingsocialmediatellsyouto.Revealyourhandatalltimes." fill="#000000" fill-rule="nonzero"></path>
    </g>
</svg>