<?xml version="1.0" encoding="UTF-8"?>
<svg width="262px" height="360px" viewBox="0 0 262 360" version="1.1" xmlns="http://www.w3.org/2000/svg" xmlns:xlink="http://www.w3.org/1999/xlink">
    <title>Patience 1</title>
    <g id="Patience-1" stroke="none" stroke-width="1" fill="none" fill-rule="evenodd">
        <g id="Group" transform="translate(9.000000, 9.000000)" fill="#FFFFFF" stroke="#000000" stroke-width="3">
            <g id="Rectangle">
                <rect x="1.5" y="1.5" width="239" height="337" rx="8"></rect>
            </g>
        </g>
        <rect id="Rectangle" stroke="#000000" stroke-width="3" x="17.5" y="263.5" width="225" height="78" rx="8"></rect>
        <g id="Beaker" transform="translate(230.000000, 15.000000)">
            <path d="M10.5,2.5 L10.5,6.40325225 C10.5,8.18857084 10.9156686,9.9493711 11.7140873,11.5462086 L11.7140873,11.5462086 L13.236068,14.5901699 C13.4096373,14.9373085 13.5,15.3200912 13.5,15.7082039 L13.5,15.7082039 L13.5,17.1715729 C13.5,17.5693976 13.3419647,17.9509285 13.0606602,18.232233 L13.0606602,18.232233 L12.232233,19.0606602 C11.9509285,19.3419647 11.5693976,19.5 11.1715729,19.5 L11.1715729,19.5 L2.82842712,19.5 C2.43060239,19.5 2.04907152,19.3419647 1.76776695,19.0606602 L1.76776695,19.0606602 L0.939339828,18.232233 C0.658035261,17.9509285 0.5,17.5693976 0.5,17.1715729 L0.5,17.1715729 L0.5,15.7082039 C0.5,15.3200912 0.590362729,14.9373085 0.763932023,14.5901699 L0.763932023,14.5901699 L2.2859127,11.5462086 C3.08433144,9.9493711 3.5,8.18857084 3.5,6.40325225 L3.5,6.40325225 L3.5,2.5 L10.5,2.5 Z" id="Rectangle" stroke="#000000"></path>
            <path d="M4,9 L10,9 C10,9.65899054 10.1414066,10.3103089 10.4146706,10.9099716 L11.7299148,13.7962019 C11.9078984,14.186777 12,14.6109968 12,15.0402137 L12,15.7335938 C12,16.2601989 11.7923083,16.7655549 11.4220052,17.1399725 L11.1585265,17.4063788 C10.7828385,17.7862411 10.2707843,18 9.7365213,18 L4.2634787,18 C3.72921573,18 3.21716155,17.7862411 2.8414735,17.4063788 L2.57799481,17.1399725 C2.20769169,16.7655549 2,16.2601989 2,15.7335938 L2,15.0402137 C2,14.6109968 2.09210162,14.186777 2.27008523,13.7962019 L3.5853294,10.9099716 C3.8585934,10.3103089 4,9.65899054 4,9 L4,9 L4,9 Z" id="Rectangle-Copy" fill="#000000"></path>
            <circle id="Oval" fill="#FFFFFF" cx="9.5" cy="15.5" r="1.5"></circle>
            <circle id="Oval-Copy-2" fill="#000000" cx="6" cy="5" r="1"></circle>
            <circle id="Oval-Copy-3" fill="#000000" cx="8.5" cy="6.5" r="1"></circle>
            <circle id="Oval-Copy" fill="#FFFFFF" cx="6" cy="13" r="1"></circle>
            <rect id="Rectangle" stroke="#000000" x="2.5" y="0.5" width="9" height="2" rx="1"></rect>
        </g>
        <path d="M224.82,33.312 L224.82,30.12 L224.532,30.12 C224.532,30.44 224.456,30.632 224.304,30.696 C224.152,30.76 223.988,30.792 223.812,30.792 L223.812,30.792 L215.892,30.792 L215.892,30.552 C216.324,30.152 216.824,29.824 217.392,29.568 C217.96,29.312 218.552,29.068 219.168,28.836 C219.784,28.604 220.388,28.368 220.98,28.128 C221.572,27.888 222.104,27.596 222.576,27.252 C223.048,26.908 223.428,26.488 223.716,25.992 C224.004,25.496 224.148,24.872 224.148,24.12 C224.148,23.416 224.008,22.82 223.728,22.332 C223.448,21.844 223.08,21.444 222.624,21.132 C222.168,20.82 221.648,20.592 221.064,20.448 C220.48,20.304 219.884,20.232 219.276,20.232 C218.348,20.232 217.548,20.352 216.876,20.592 C216.204,20.832 215.644,21.096 215.196,21.384 C214.748,21.672 214.396,21.936 214.14,22.176 C213.884,22.416 213.708,22.536 213.612,22.536 C213.532,22.536 213.46,22.52 213.396,22.488 L213.396,22.488 L213.204,22.392 L212.964,22.56 L215.436,25.2 L215.676,25.032 C215.612,24.984 215.56,24.896 215.52,24.768 C215.48,24.64 215.46,24.536 215.46,24.456 C215.46,24.12 215.592,23.82 215.856,23.556 C216.12,23.292 216.436,23.064 216.804,22.872 C217.172,22.68 217.556,22.536 217.956,22.44 C218.356,22.344 218.692,22.296 218.964,22.296 C219.236,22.296 219.516,22.32 219.804,22.368 C220.092,22.416 220.356,22.508 220.596,22.644 C220.836,22.78 221.032,22.956 221.184,23.172 C221.336,23.388 221.412,23.664 221.412,24 C221.412,24.496 221.2,24.928 220.776,25.296 C220.352,25.664 219.82,26.02 219.18,26.364 C218.54,26.708 217.852,27.056 217.116,27.408 C216.38,27.76 215.692,28.168 215.052,28.632 C214.412,29.096 213.88,29.632 213.456,30.24 C213.032,30.848 212.82,31.576 212.82,32.424 L212.82,32.424 L212.82,33.288 L213.108,33.288 C213.108,33.144 213.164,33.06 213.276,33.036 C213.388,33.012 213.532,33 213.708,33 L213.708,33 L223.812,33 C223.988,33 224.152,33.008 224.304,33.024 C224.456,33.04 224.532,33.136 224.532,33.312 L224.532,33.312 L224.82,33.312 Z" id="2" fill="#000000" fill-rule="nonzero"></path>
        <path d="M84.524,53 L84.524,52.568 C84.012,52.568 83.756,52.424 83.756,52.136 L83.756,52.136 L83.756,47.864 L88.58,47.864 C90.116,47.864 91.324,47.58 92.204,47.012 C93.084,46.444 93.524,45.48 93.524,44.12 C93.524,42.76 93.084,41.796 92.204,41.228 C91.324,40.66 90.116,40.376 88.58,40.376 L88.58,40.376 L80.132,40.376 L80.132,40.808 C80.724,40.808 81.02,40.952 81.02,41.24 L81.02,41.24 L81.02,52.136 C81.02,52.424 80.724,52.568 80.132,52.568 L80.132,52.568 L80.132,53 L84.524,53 Z M88.868,45.656 L83.756,45.656 L83.756,42.584 L88.868,42.584 C89.396,42.584 89.848,42.688 90.224,42.896 C90.6,43.104 90.788,43.512 90.788,44.12 C90.788,44.728 90.6,45.136 90.224,45.344 C89.848,45.552 89.396,45.656 88.868,45.656 L88.868,45.656 Z M97.892,53 L97.892,52.568 C97.748,52.568 97.636,52.552 97.556,52.52 C97.476,52.488 97.436,52.408 97.436,52.28 C97.436,52.2 97.456,52.108 97.496,52.004 C97.536,51.9 97.588,51.784 97.652,51.656 L97.652,51.656 L98.324,50.36 L103.46,50.36 L104.108,51.728 C104.156,51.856 104.196,51.96 104.228,52.04 C104.26,52.12 104.276,52.208 104.276,52.304 C104.276,52.432 104.232,52.52 104.144,52.568 C104.056,52.616 103.972,52.64 103.892,52.64 L103.892,52.64 L103.892,53 L107.3,53 L107.3,52.568 C107.188,52.536 107.084,52.488 106.988,52.424 C106.892,52.36 106.804,52.256 106.724,52.112 L106.724,52.112 L102.836,43.952 C102.756,43.776 102.68,43.62 102.608,43.484 C102.536,43.348 102.5,43.232 102.5,43.136 C102.5,43.024 102.528,42.96 102.584,42.944 C102.64,42.928 102.692,42.904 102.74,42.872 L102.74,42.872 L102.74,42.44 L99.116,42.44 L99.116,42.872 C99.164,42.904 99.208,42.932 99.248,42.956 C99.288,42.98 99.308,43.04 99.308,43.136 C99.308,43.264 99.28,43.396 99.224,43.532 C99.168,43.668 99.092,43.848 98.996,44.072 L98.996,44.072 L95.42,51.872 C95.356,52 95.264,52.14 95.144,52.292 C95.024,52.444 94.868,52.536 94.676,52.568 L94.676,52.568 L94.676,53 L97.892,53 Z M102.692,48.584 L99.044,48.584 L100.748,44.552 L102.692,48.584 Z M115.244,53 L115.244,52.568 C114.956,52.568 114.812,52.448 114.812,52.208 L114.812,52.208 L114.812,44.216 L117.932,44.216 C118.06,44.216 118.18,44.248 118.292,44.312 C118.404,44.376 118.46,44.48 118.46,44.624 L118.46,44.624 L118.892,44.624 L118.892,41.864 L118.46,41.864 C118.46,42.088 118.404,42.24 118.292,42.32 C118.18,42.4 118.06,42.44 117.932,42.44 L117.932,42.44 L109.388,42.44 C109.26,42.44 109.14,42.4 109.028,42.32 C108.916,42.24 108.86,42.088 108.86,41.864 L108.86,41.864 L108.428,41.864 L108.428,44.624 L108.86,44.624 C108.86,44.48 108.916,44.376 109.028,44.312 C109.14,44.248 109.26,44.216 109.388,44.216 L109.388,44.216 L112.508,44.216 L112.508,52.208 C112.508,52.336 112.468,52.428 112.388,52.484 C112.308,52.54 112.228,52.568 112.148,52.568 L112.148,52.568 L112.148,53 L115.244,53 Z M125.468,53 L125.468,52.568 C125.02,52.568 124.796,52.448 124.796,52.208 L124.796,52.208 L124.796,43.232 C124.796,42.992 125.02,42.872 125.468,42.872 L125.468,42.872 L125.468,42.44 L121.82,42.44 L121.82,42.872 C122.076,42.872 122.252,42.9 122.348,42.956 C122.444,43.012 122.492,43.104 122.492,43.232 L122.492,43.232 L122.492,52.208 C122.492,52.336 122.444,52.428 122.348,52.484 C122.252,52.54 122.076,52.568 121.82,52.568 L121.82,52.568 L121.82,53 L125.468,53 Z M139.532,53.264 L139.532,50.744 L139.1,50.744 C139.1,50.888 139.036,51.004 138.908,51.092 C138.78,51.18 138.62,51.224 138.428,51.224 L138.428,51.224 L132.284,51.224 L132.284,48.392 L135.788,48.392 C136.108,48.392 136.356,48.412 136.532,48.452 C136.708,48.492 136.772,48.6 136.724,48.776 L136.724,48.776 L137.204,48.776 L137.204,46.232 L136.772,46.232 C136.772,46.408 136.708,46.516 136.58,46.556 C136.452,46.596 136.252,46.616 135.98,46.616 L135.98,46.616 L132.284,46.616 L132.284,44.216 L138.14,44.216 C138.636,44.216 138.884,44.368 138.884,44.672 L138.884,44.672 L139.316,44.672 L139.316,42.008 L138.884,42.008 C138.884,42.296 138.636,42.44 138.14,42.44 L138.14,42.44 L129.62,42.44 L129.62,42.872 C129.7,42.872 129.78,42.9 129.86,42.956 C129.94,43.012 129.98,43.104 129.98,43.232 L129.98,43.232 L129.98,52.208 C129.98,52.336 129.94,52.428 129.86,52.484 C129.78,52.54 129.7,52.568 129.62,52.568 L129.62,52.568 L129.62,53 L138.428,53 C138.62,53 138.78,53.008 138.908,53.024 C139.036,53.04 139.1,53.12 139.1,53.264 L139.1,53.264 L139.532,53.264 Z M145.892,53 L145.892,52.568 C145.556,52.568 145.388,52.448 145.388,52.208 L145.388,52.208 L145.388,45.224 L151.34,51.56 C151.532,51.768 151.704,51.952 151.856,52.112 C152.008,52.272 152.084,52.384 152.084,52.448 C152.084,52.528 152.028,52.568 151.916,52.568 L151.916,52.568 L151.916,53 L155.036,53 L155.036,52.568 C154.748,52.568 154.604,52.448 154.604,52.208 L154.604,52.208 L154.604,43.232 C154.604,42.992 154.748,42.872 155.036,42.872 L155.036,42.872 L155.036,42.44 L152.108,42.44 L152.108,42.872 C152.428,42.872 152.588,42.992 152.588,43.232 L152.588,43.232 L152.588,49.736 L146.828,43.64 C146.476,43.288 146.3,43.072 146.3,42.992 C146.3,42.928 146.356,42.888 146.468,42.872 L146.468,42.872 L146.468,42.44 L142.94,42.44 L142.94,42.872 C143.228,42.872 143.372,42.992 143.372,43.232 L143.372,43.232 L143.372,52.208 C143.372,52.448 143.228,52.568 142.94,52.568 L142.94,52.568 L142.94,53 L145.892,53 Z M163.772,53.072 C164.492,53.072 165.144,53.008 165.728,52.88 C166.312,52.752 166.824,52.596 167.264,52.412 C167.704,52.228 168.068,52.064 168.356,51.92 C168.644,51.776 168.852,51.704 168.98,51.704 C169.06,51.704 169.196,51.744 169.388,51.824 L169.388,51.824 L169.628,51.704 L167.852,49.16 L167.588,49.4 C167.604,49.464 167.612,49.544 167.612,49.64 L167.612,49.64 L167.612,49.832 C167.612,49.976 167.496,50.136 167.264,50.312 C167.032,50.488 166.732,50.652 166.364,50.804 C165.996,50.956 165.588,51.088 165.14,51.2 C164.692,51.312 164.252,51.368 163.82,51.368 C163.356,51.368 162.9,51.284 162.452,51.116 C162.004,50.948 161.604,50.7 161.252,50.372 C160.9,50.044 160.616,49.652 160.4,49.196 C160.184,48.74 160.076,48.224 160.076,47.648 C160.076,47.072 160.172,46.56 160.364,46.112 C160.556,45.664 160.828,45.288 161.18,44.984 C161.532,44.68 161.944,44.452 162.416,44.3 C162.888,44.148 163.412,44.072 163.988,44.072 C164.468,44.072 164.908,44.116 165.308,44.204 C165.708,44.292 166.056,44.4 166.352,44.528 C166.648,44.656 166.876,44.788 167.036,44.924 C167.196,45.06 167.276,45.168 167.276,45.248 C167.276,45.296 167.28,45.336 167.288,45.368 L167.297,45.416 L167.297,45.416 L167.3,45.464 L167.564,45.656 L169.148,43.376 L168.86,43.208 C168.796,43.24 168.736,43.28 168.68,43.328 C168.624,43.376 168.556,43.4 168.476,43.4 C168.364,43.4 168.18,43.344 167.924,43.232 C167.668,43.12 167.348,42.992 166.964,42.848 C166.58,42.704 166.136,42.576 165.632,42.464 C165.128,42.352 164.572,42.296 163.964,42.296 C163.18,42.296 162.416,42.408 161.672,42.632 C160.928,42.856 160.268,43.196 159.692,43.652 C159.116,44.108 158.652,44.672 158.3,45.344 C157.948,46.016 157.772,46.8 157.772,47.696 C157.772,48.592 157.948,49.38 158.3,50.06 C158.652,50.74 159.108,51.308 159.668,51.764 C160.228,52.22 160.868,52.552 161.588,52.76 C162.308,52.968 163.036,53.072 163.772,53.072 Z M182.228,53.264 L182.228,50.744 L181.796,50.744 C181.796,50.888 181.732,51.004 181.604,51.092 C181.476,51.18 181.316,51.224 181.124,51.224 L181.124,51.224 L174.98,51.224 L174.98,48.392 L178.484,48.392 C178.804,48.392 179.052,48.412 179.228,48.452 C179.404,48.492 179.468,48.6 179.42,48.776 L179.42,48.776 L179.9,48.776 L179.9,46.232 L179.468,46.232 C179.468,46.408 179.404,46.516 179.276,46.556 C179.148,46.596 178.948,46.616 178.676,46.616 L178.676,46.616 L174.98,46.616 L174.98,44.216 L180.836,44.216 C181.332,44.216 181.58,44.368 181.58,44.672 L181.58,44.672 L182.012,44.672 L182.012,42.008 L181.58,42.008 C181.58,42.296 181.332,42.44 180.836,42.44 L180.836,42.44 L172.316,42.44 L172.316,42.872 C172.396,42.872 172.476,42.9 172.556,42.956 C172.636,43.012 172.676,43.104 172.676,43.232 L172.676,43.232 L172.676,52.208 C172.676,52.336 172.636,52.428 172.556,52.484 C172.476,52.54 172.396,52.568 172.316,52.568 L172.316,52.568 L172.316,53 L181.124,53 C181.316,53 181.476,53.008 181.604,53.024 C181.732,53.04 181.796,53.12 181.796,53.264 L181.796,53.264 L182.228,53.264 Z" id="Patience" fill="#000000" fill-rule="nonzero"></path>
        <path d="M42.632,283 L42.632,282.712 C42.3866667,282.712 42.264,282.616 42.264,282.424 L42.264,282.424 L42.264,279.576 L44.984,275.72 C45.112,275.528 45.2213333,275.376 45.312,275.264 C45.4026667,275.152 45.488,275.066667 45.568,275.008 C45.648,274.949333 45.7253333,274.912 45.8,274.896 C45.8746667,274.88 45.9546667,274.872 46.04,274.872 L46.04,274.872 L46.04,274.584 L43.24,274.584 L43.24,274.872 C43.3253333,274.872 43.4186667,274.882667 43.52,274.904 C43.6213333,274.925333 43.672,274.973333 43.672,275.048 C43.672,275.112 43.6453333,275.181333 43.592,275.256 C43.5386667,275.330667 43.4693333,275.432 43.384,275.56 L43.384,275.56 L41.512,278.136 C41.3733333,277.912 41.192,277.64 40.968,277.32 C40.744,277 40.528,276.688 40.32,276.384 C40.112,276.08 39.9306667,275.808 39.776,275.568 C39.6213333,275.328 39.544,275.176 39.544,275.112 C39.544,275.005333 39.5866667,274.938667 39.672,274.912 C39.7573333,274.885333 39.848,274.872 39.944,274.872 L39.944,274.872 L39.944,274.584 L36.616,274.584 L36.616,274.872 C36.7226667,274.872 36.8533333,274.909333 37.008,274.984 C37.1626667,275.058667 37.2773333,275.149333 37.352,275.256 L37.352,275.256 L40.44,279.576 L40.44,282.424 C40.44,282.52 40.408,282.592 40.344,282.64 C40.28,282.688 40.2,282.712 40.104,282.712 L40.104,282.712 L40.104,283 L42.632,283 Z M51.096,283.048 C51.6826667,283.048 52.2346667,282.981333 52.752,282.848 C53.2693333,282.714667 53.72,282.498667 54.104,282.2 C54.488,281.901333 54.792,281.525333 55.016,281.072 C55.24,280.618667 55.352,280.088 55.352,279.48 C55.352,278.872 55.24,278.341333 55.016,277.888 C54.792,277.434667 54.488,277.058667 54.104,276.76 C53.72,276.461333 53.2693333,276.237333 52.752,276.088 C52.2346667,275.938667 51.6826667,275.864 51.096,275.864 C50.5093333,275.864 49.9573333,275.938667 49.44,276.088 C48.9226667,276.237333 48.472,276.461333 48.088,276.76 C47.704,277.058667 47.4,277.434667 47.176,277.888 C46.952,278.341333 46.84,278.872 46.84,279.48 C46.84,280.088 46.952,280.618667 47.176,281.072 C47.4,281.525333 47.704,281.901333 48.088,282.2 C48.472,282.498667 48.9226667,282.714667 49.44,282.848 C49.9573333,282.981333 50.5093333,283.048 51.096,283.048 Z M51.096,281.912 C50.7546667,281.912 50.4213333,281.856 50.096,281.744 C49.7706667,281.632 49.48,281.472 49.224,281.264 C48.968,281.056 48.7626667,280.802667 48.608,280.504 C48.4533333,280.205333 48.376,279.864 48.376,279.48 C48.376,279.096 48.4533333,278.754667 48.608,278.456 C48.7626667,278.157333 48.968,277.904 49.224,277.696 C49.48,277.488 49.7706667,277.328 50.096,277.216 C50.4213333,277.104 50.7546667,277.048 51.096,277.048 C51.4373333,277.048 51.7706667,277.104 52.096,277.216 C52.4213333,277.328 52.712,277.488 52.968,277.696 C53.224,277.904 53.4293333,278.157333 53.584,278.456 C53.7386667,278.754667 53.816,279.096 53.816,279.48 C53.816,279.864 53.7386667,280.205333 53.584,280.504 C53.4293333,280.802667 53.224,281.056 52.968,281.264 C52.712,281.472 52.4213333,281.632 52.096,281.744 C51.7706667,281.856 51.4373333,281.912 51.096,281.912 Z M61.384,283.048 C62.024,283.048 62.5813333,282.981333 63.056,282.848 C63.5306667,282.714667 63.92,282.530667 64.224,282.296 C64.528,282.061333 64.7546667,281.792 64.904,281.488 C65.0533333,281.184 65.128,280.866667 65.128,280.536 L65.128,280.536 L65.128,276.488 C65.128,276.328 65.2453333,276.248 65.48,276.248 L65.48,276.248 L65.48,275.96 L63.256,275.96 L63.256,276.248 C63.5226667,276.248 63.656,276.328 63.656,276.488 L63.656,276.488 L63.656,280.152 C63.656,280.664 63.4693333,281.074667 63.096,281.384 C62.7226667,281.693333 62.152,281.848 61.384,281.848 C60.616,281.848 60.0453333,281.693333 59.672,281.384 C59.2986667,281.074667 59.112,280.664 59.112,280.152 L59.112,280.152 L59.112,276.488 C59.112,276.328 59.2293333,276.248 59.464,276.248 L59.464,276.248 L59.464,275.96 L57.176,275.96 L57.176,276.248 C57.3573333,276.248 57.48,276.266667 57.544,276.304 C57.608,276.341333 57.64,276.402667 57.64,276.488 L57.64,276.488 L57.64,280.536 C57.64,280.866667 57.7146667,281.184 57.864,281.488 C58.0133333,281.792 58.24,282.061333 58.544,282.296 C58.848,282.530667 59.2373333,282.714667 59.712,282.848 C60.1866667,282.981333 60.744,283.048 61.384,283.048 Z M67.4,278.92 C67.7306667,278.845333 68.0506667,278.712 68.36,278.52 C68.6693333,278.328 68.9413333,278.098667 69.176,277.832 C69.4106667,277.565333 69.6,277.269333 69.744,276.944 C69.888,276.618667 69.96,276.28 69.96,275.928 C69.96,275.48 69.8506667,275.101333 69.632,274.792 C69.4133333,274.482667 69.0906667,274.328 68.664,274.328 C68.3866667,274.328 68.1386667,274.44 67.92,274.664 C67.7013333,274.888 67.592,275.154667 67.592,275.464 C67.592,275.784 67.6906667,276.032 67.888,276.208 C68.0853333,276.384 68.3173333,276.472 68.584,276.472 C68.6693333,276.472 68.76,276.477333 68.856,276.488 C68.952,276.498667 69.0106667,276.541333 69.032,276.616 C69.0533333,276.808 69.0106667,277 68.904,277.192 C68.7973333,277.384 68.6613333,277.562667 68.496,277.728 C68.3306667,277.893333 68.1466667,278.037333 67.944,278.16 C67.7413333,278.282667 67.56,278.365333 67.4,278.408 L67.4,278.408 L67.4,278.92 Z M74.488,283 L74.488,282.712 C74.424,282.712 74.3573333,282.693333 74.288,282.656 C74.2186667,282.618667 74.184,282.557333 74.184,282.472 L74.184,282.472 L74.184,280.184 L76.408,280.184 L77.672,282.072 C77.832,282.296 77.912,282.461333 77.912,282.568 C77.912,282.664 77.8426667,282.712 77.704,282.712 L77.704,282.712 L77.704,283 L80.152,283 L80.152,282.712 C80.0346667,282.68 79.9253333,282.634667 79.824,282.576 C79.7226667,282.517333 79.6293333,282.429333 79.544,282.312 L79.544,282.312 L77.976,280.024 C78.2,279.970667 78.4186667,279.893333 78.632,279.792 C78.8453333,279.690667 79.04,279.557333 79.216,279.392 C79.392,279.226667 79.5333333,279.032 79.64,278.808 C79.7466667,278.584 79.8,278.328 79.8,278.04 C79.8,277.282667 79.5333333,276.746667 79,276.432 C78.4666667,276.117333 77.7253333,275.96 76.776,275.96 L76.776,275.96 L72.36,275.96 L72.36,276.248 C72.552,276.248 72.648,276.328 72.648,276.488 L72.648,276.488 L72.648,282.472 C72.648,282.632 72.552,282.712 72.36,282.712 L72.36,282.712 L72.36,283 L74.488,283 Z M76.744,279 L74.216,279 L74.216,277.144 L76.744,277.144 C77.288,277.144 77.6853333,277.221333 77.936,277.376 C78.1866667,277.530667 78.312,277.741333 78.312,278.008 C78.312,278.669333 77.7893333,279 76.744,279 L76.744,279 Z M88.808,283.176 L88.808,281.496 L88.52,281.496 C88.52,281.592 88.4773333,281.669333 88.392,281.728 C88.3066667,281.786667 88.2,281.816 88.072,281.816 L88.072,281.816 L83.976,281.816 L83.976,279.928 L86.312,279.928 C86.5253333,279.928 86.6906667,279.941333 86.808,279.968 C86.9253333,279.994667 86.968,280.066667 86.936,280.184 L86.936,280.184 L87.256,280.184 L87.256,278.488 L86.968,278.488 C86.968,278.605333 86.9253333,278.677333 86.84,278.704 C86.7546667,278.730667 86.6213333,278.744 86.44,278.744 L86.44,278.744 L83.976,278.744 L83.976,277.144 L87.88,277.144 C88.2106667,277.144 88.376,277.245333 88.376,277.448 L88.376,277.448 L88.664,277.448 L88.664,275.672 L88.376,275.672 C88.376,275.864 88.2106667,275.96 87.88,275.96 L87.88,275.96 L82.2,275.96 L82.2,276.248 C82.2533333,276.248 82.3066667,276.266667 82.36,276.304 C82.4133333,276.341333 82.44,276.402667 82.44,276.488 L82.44,276.488 L82.44,282.472 C82.44,282.557333 82.4133333,282.618667 82.36,282.656 C82.3066667,282.693333 82.2533333,282.712 82.2,282.712 L82.2,282.712 L82.2,283 L88.072,283 C88.2,283 88.3066667,283.005333 88.392,283.016 C88.4773333,283.026667 88.52,283.08 88.52,283.176 L88.52,283.176 L88.808,283.176 Z M97.272,283.048 C97.688,283.048 98.0746667,283.018667 98.432,282.96 C98.7893333,282.901333 99.0986667,282.792 99.36,282.632 C99.6213333,282.472 99.8266667,282.258667 99.976,281.992 C100.125333,281.725333 100.2,281.4 100.2,281.016 L100.2,281.016 L100.2,276.648 C100.2,276.530667 100.248,276.434667 100.344,276.36 C100.44,276.285333 100.541333,276.248 100.648,276.248 L100.648,276.248 L100.648,275.96 L98.264,275.96 L98.264,276.248 C98.3386667,276.248 98.424,276.285333 98.52,276.36 C98.616,276.434667 98.664,276.530667 98.664,276.648 L98.664,276.648 L98.664,280.824 C98.664,281.261333 98.5493333,281.552 98.32,281.696 C98.0906667,281.84 97.7466667,281.912 97.288,281.912 C96.8933333,281.912 96.544,281.856 96.24,281.744 C95.936,281.632 95.7466667,281.517333 95.672,281.4 C95.6186667,281.336 95.5893333,281.258667 95.584,281.168 C95.5786667,281.077333 95.576,280.994667 95.576,280.92 L95.576,280.92 L95.352,280.84 L94.6,282.68 L94.744,282.808 C94.7973333,282.754667 94.8453333,282.709333 94.888,282.672 C94.9306667,282.634667 94.9946667,282.616 95.08,282.616 C95.176,282.616 95.2986667,282.64 95.448,282.688 C95.5973333,282.736 95.768,282.789333 95.96,282.848 C96.152,282.906667 96.36,282.954667 96.584,282.992 C96.808,283.029333 97.0373333,283.048 97.272,283.048 Z M107.16,283.048 C107.8,283.048 108.357333,282.981333 108.832,282.848 C109.306667,282.714667 109.696,282.530667 110,282.296 C110.304,282.061333 110.530667,281.792 110.68,281.488 C110.829333,281.184 110.904,280.866667 110.904,280.536 L110.904,280.536 L110.904,276.488 C110.904,276.328 111.021333,276.248 111.256,276.248 L111.256,276.248 L111.256,275.96 L109.032,275.96 L109.032,276.248 C109.298667,276.248 109.432,276.328 109.432,276.488 L109.432,276.488 L109.432,280.152 C109.432,280.664 109.245333,281.074667 108.872,281.384 C108.498667,281.693333 107.928,281.848 107.16,281.848 C106.392,281.848 105.821333,281.693333 105.448,281.384 C105.074667,281.074667 104.888,280.664 104.888,280.152 L104.888,280.152 L104.888,276.488 C104.888,276.328 105.005333,276.248 105.24,276.248 L105.24,276.248 L105.24,275.96 L102.952,275.96 L102.952,276.248 C103.133333,276.248 103.256,276.266667 103.32,276.304 C103.384,276.341333 103.416,276.402667 103.416,276.488 L103.416,276.488 L103.416,280.536 C103.416,280.866667 103.490667,281.184 103.64,281.488 C103.789333,281.792 104.016,282.061333 104.32,282.296 C104.624,282.530667 105.013333,282.714667 105.488,282.848 C105.962667,282.981333 106.52,283.048 107.16,283.048 Z M116.76,283.048 C117.122667,283.048 117.509333,283.021333 117.92,282.968 C118.330667,282.914667 118.706667,282.802667 119.048,282.632 C119.389333,282.461333 119.674667,282.226667 119.904,281.928 C120.133333,281.629333 120.248,281.245333 120.248,280.776 C120.248,280.306667 120.117333,279.938667 119.856,279.672 C119.594667,279.405333 119.266667,279.202667 118.872,279.064 C118.477333,278.925333 118.050667,278.826667 117.592,278.768 C117.133333,278.709333 116.706667,278.650667 116.312,278.592 C115.917333,278.533333 115.589333,278.453333 115.328,278.352 C115.066667,278.250667 114.936,278.082667 114.936,277.848 C114.936,277.698667 114.978667,277.573333 115.064,277.472 C115.149333,277.370667 115.266667,277.288 115.416,277.224 C115.565333,277.16 115.736,277.114667 115.928,277.088 C116.12,277.061333 116.322667,277.048 116.536,277.048 C117.090667,277.048 117.592,277.112 118.04,277.24 C118.488,277.368 118.818667,277.522667 119.032,277.704 C119.117333,277.768 119.165333,277.832 119.176,277.896 L119.176,277.896 L119.208,278.088 L119.496,278.184 L120.296,276.68 L120.12,276.504 C120.056,276.536 120.002667,276.565333 119.96,276.592 C119.917333,276.618667 119.853333,276.632 119.768,276.632 C119.693333,276.632 119.578667,276.592 119.424,276.512 C119.269333,276.432 119.069333,276.344 118.824,276.248 C118.578667,276.152 118.277333,276.064 117.92,275.984 C117.562667,275.904 117.133333,275.864 116.632,275.864 C115.608,275.864 114.813333,276.066667 114.248,276.472 C113.682667,276.877333 113.4,277.421333 113.4,278.104 C113.4,278.562667 113.530667,278.917333 113.792,279.168 C114.053333,279.418667 114.381333,279.610667 114.776,279.744 C115.170667,279.877333 115.597333,279.973333 116.056,280.032 C116.514667,280.090667 116.941333,280.149333 117.336,280.208 C117.730667,280.266667 118.058667,280.349333 118.32,280.456 C118.581333,280.562667 118.712,280.733333 118.712,280.968 C118.712,281.170667 118.637333,281.333333 118.488,281.456 C118.338667,281.578667 118.157333,281.674667 117.944,281.744 C117.730667,281.813333 117.514667,281.858667 117.296,281.88 C117.077333,281.901333 116.893333,281.912 116.744,281.912 C116.584,281.912 116.362667,281.885333 116.08,281.832 C115.797333,281.778667 115.514667,281.706667 115.232,281.616 C114.949333,281.525333 114.706667,281.413333 114.504,281.28 C114.301333,281.146667 114.2,281 114.2,280.84 C114.2,280.786667 114.202667,280.736 114.208,280.688 C114.213333,280.64 114.216,280.594667 114.216,280.552 L114.216,280.552 L113.912,280.472 L113.176,282.264 L113.4,282.424 C113.453333,282.36 113.517333,282.328 113.592,282.328 C113.634667,282.328 113.757333,282.368 113.96,282.448 C114.162667,282.528 114.410667,282.613333 114.704,282.704 C114.997333,282.794667 115.322667,282.874667 115.68,282.944 C116.037333,283.013333 116.397333,283.048 116.76,283.048 Z M126.392,283 L126.392,282.712 C126.2,282.712 126.104,282.632 126.104,282.472 L126.104,282.472 L126.104,277.144 L128.184,277.144 C128.269333,277.144 128.349333,277.165333 128.424,277.208 C128.498667,277.250667 128.536,277.32 128.536,277.416 L128.536,277.416 L128.824,277.416 L128.824,275.576 L128.536,275.576 C128.536,275.725333 128.498667,275.826667 128.424,275.88 C128.349333,275.933333 128.269333,275.96 128.184,275.96 L128.184,275.96 L122.488,275.96 C122.402667,275.96 122.322667,275.933333 122.248,275.88 C122.173333,275.826667 122.136,275.725333 122.136,275.576 L122.136,275.576 L121.848,275.576 L121.848,277.416 L122.136,277.416 C122.136,277.32 122.173333,277.250667 122.248,277.208 C122.322667,277.165333 122.402667,277.144 122.488,277.144 L122.488,277.144 L124.568,277.144 L124.568,282.472 C124.568,282.557333 124.541333,282.618667 124.488,282.656 C124.434667,282.693333 124.381333,282.712 124.328,282.712 L124.328,282.712 L124.328,283 L126.392,283 Z M139.272,283.048 C139.784,283.048 140.248,283.013333 140.664,282.944 C141.08,282.874667 141.445333,282.786667 141.76,282.68 C142.074667,282.573333 142.336,282.464 142.544,282.352 C142.752,282.24 142.904,282.152 143,282.088 L143,282.088 L143,281.896 C142.893333,281.853333 142.826667,281.813333 142.8,281.776 C142.773333,281.738667 142.76,281.672 142.76,281.576 L142.76,281.576 L142.76,280.056 C142.76,279.949333 142.776,279.869333 142.808,279.816 C142.84,279.762667 142.904,279.714667 143,279.672 L143,279.672 L143,279.384 L139.864,279.384 C139.746667,279.384 139.645333,279.368 139.56,279.336 C139.474667,279.304 139.421333,279.234667 139.4,279.128 L139.4,279.128 L139.112,279.128 L139.112,280.776 L139.4,280.776 C139.421333,280.648 139.474667,280.56 139.56,280.512 C139.645333,280.464 139.746667,280.44 139.864,280.44 L139.864,280.44 L141.512,280.44 L141.512,281.448 C141.170667,281.629333 140.794667,281.752 140.384,281.816 C139.973333,281.88 139.538667,281.912 139.08,281.912 C138.770667,281.912 138.450667,281.869333 138.12,281.784 C137.789333,281.698667 137.488,281.562667 137.216,281.376 C136.944,281.189333 136.722667,280.944 136.552,280.64 C136.381333,280.336 136.296,279.96 136.296,279.512 C136.296,279.064 136.376,278.685333 136.536,278.376 C136.696,278.066667 136.909333,277.813333 137.176,277.616 C137.442667,277.418667 137.752,277.274667 138.104,277.184 C138.456,277.093333 138.829333,277.048 139.224,277.048 C139.512,277.048 139.797333,277.077333 140.08,277.136 C140.362667,277.194667 140.616,277.272 140.84,277.368 C141.064,277.464 141.245333,277.568 141.384,277.68 C141.522667,277.792 141.592,277.896 141.592,277.992 C141.592,278.002667 141.581333,278.061333 141.56,278.168 L141.56,278.168 L141.752,278.28 L142.68,276.536 L142.488,276.44 C142.424,276.493333 142.370667,276.528 142.328,276.544 C142.285333,276.56 142.221333,276.568 142.136,276.568 C142.061333,276.568 141.949333,276.530667 141.8,276.456 C141.650667,276.381333 141.453333,276.301333 141.208,276.216 C140.973333,276.130667 140.696,276.050667 140.376,275.976 C140.056,275.901333 139.688,275.864 139.272,275.864 C138.578667,275.864 137.952,275.946667 137.392,276.112 C136.832,276.277333 136.357333,276.517333 135.968,276.832 C135.578667,277.146667 135.28,277.525333 135.072,277.968 C134.864,278.410667 134.76,278.914667 134.76,279.48 C134.76,280.045333 134.864,280.549333 135.072,280.992 C135.28,281.434667 135.578667,281.810667 135.968,282.12 C136.357333,282.429333 136.832,282.661333 137.392,282.816 C137.952,282.970667 138.578667,283.048 139.272,283.048 Z M148.872,283.048 C149.458667,283.048 150.010667,282.981333 150.528,282.848 C151.045333,282.714667 151.496,282.498667 151.88,282.2 C152.264,281.901333 152.568,281.525333 152.792,281.072 C153.016,280.618667 153.128,280.088 153.128,279.48 C153.128,278.872 153.016,278.341333 152.792,277.888 C152.568,277.434667 152.264,277.058667 151.88,276.76 C151.496,276.461333 151.045333,276.237333 150.528,276.088 C150.010667,275.938667 149.458667,275.864 148.872,275.864 C148.285333,275.864 147.733333,275.938667 147.216,276.088 C146.698667,276.237333 146.248,276.461333 145.864,276.76 C145.48,277.058667 145.176,277.434667 144.952,277.888 C144.728,278.341333 144.616,278.872 144.616,279.48 C144.616,280.088 144.728,280.618667 144.952,281.072 C145.176,281.525333 145.48,281.901333 145.864,282.2 C146.248,282.498667 146.698667,282.714667 147.216,282.848 C147.733333,282.981333 148.285333,283.048 148.872,283.048 Z M148.872,281.912 C148.530667,281.912 148.197333,281.856 147.872,281.744 C147.546667,281.632 147.256,281.472 147,281.264 C146.744,281.056 146.538667,280.802667 146.384,280.504 C146.229333,280.205333 146.152,279.864 146.152,279.48 C146.152,279.096 146.229333,278.754667 146.384,278.456 C146.538667,278.157333 146.744,277.904 147,277.696 C147.256,277.488 147.546667,277.328 147.872,277.216 C148.197333,277.104 148.530667,277.048 148.872,277.048 C149.213333,277.048 149.546667,277.104 149.872,277.216 C150.197333,277.328 150.488,277.488 150.744,277.696 C151,277.904 151.205333,278.157333 151.36,278.456 C151.514667,278.754667 151.592,279.096 151.592,279.48 C151.592,279.864 151.514667,280.205333 151.36,280.504 C151.205333,280.802667 151,281.056 150.744,281.264 C150.488,281.472 150.197333,281.632 149.872,281.744 C149.546667,281.856 149.213333,281.912 148.872,281.912 Z M157.032,283 L157.032,282.712 C156.808,282.712 156.696,282.632 156.696,282.472 L156.696,282.472 L156.696,277.816 L160.664,282.04 C160.792,282.178667 160.906667,282.301333 161.008,282.408 C161.109333,282.514667 161.16,282.589333 161.16,282.632 C161.16,282.685333 161.122667,282.712 161.048,282.712 L161.048,282.712 L161.048,283 L163.128,283 L163.128,282.712 C162.936,282.712 162.84,282.632 162.84,282.472 L162.84,282.472 L162.84,276.488 C162.84,276.328 162.936,276.248 163.128,276.248 L163.128,276.248 L163.128,275.96 L161.176,275.96 L161.176,276.248 C161.389333,276.248 161.496,276.328 161.496,276.488 L161.496,276.488 L161.496,280.824 L157.656,276.76 C157.421333,276.525333 157.304,276.381333 157.304,276.328 C157.304,276.285333 157.341333,276.258667 157.416,276.248 L157.416,276.248 L157.416,275.96 L155.064,275.96 L155.064,276.248 C155.256,276.248 155.352,276.328 155.352,276.488 L155.352,276.488 L155.352,282.472 C155.352,282.632 155.256,282.712 155.064,282.712 L155.064,282.712 L155.064,283 L157.032,283 Z M167.704,283 L167.704,282.712 C167.48,282.712 167.368,282.632 167.368,282.472 L167.368,282.472 L167.368,277.816 L171.336,282.04 C171.464,282.178667 171.578667,282.301333 171.68,282.408 C171.781333,282.514667 171.832,282.589333 171.832,282.632 C171.832,282.685333 171.794667,282.712 171.72,282.712 L171.72,282.712 L171.72,283 L173.8,283 L173.8,282.712 C173.608,282.712 173.512,282.632 173.512,282.472 L173.512,282.472 L173.512,276.488 C173.512,276.328 173.608,276.248 173.8,276.248 L173.8,276.248 L173.8,275.96 L171.848,275.96 L171.848,276.248 C172.061333,276.248 172.168,276.328 172.168,276.488 L172.168,276.488 L172.168,280.824 L168.328,276.76 C168.093333,276.525333 167.976,276.381333 167.976,276.328 C167.976,276.285333 168.013333,276.258667 168.088,276.248 L168.088,276.248 L168.088,275.96 L165.736,275.96 L165.736,276.248 C165.928,276.248 166.024,276.328 166.024,276.488 L166.024,276.488 L166.024,282.472 C166.024,282.632 165.928,282.712 165.736,282.712 L165.736,282.712 L165.736,283 L167.704,283 Z M177.496,283 L177.496,282.712 C177.4,282.712 177.325333,282.701333 177.272,282.68 C177.218667,282.658667 177.192,282.605333 177.192,282.52 C177.192,282.466667 177.205333,282.405333 177.232,282.336 C177.258667,282.266667 177.293333,282.189333 177.336,282.104 L177.336,282.104 L177.784,281.24 L181.208,281.24 L181.64,282.152 C181.672,282.237333 181.698667,282.306667 181.72,282.36 C181.741333,282.413333 181.752,282.472 181.752,282.536 C181.752,282.621333 181.722667,282.68 181.664,282.712 C181.605333,282.744 181.549333,282.76 181.496,282.76 L181.496,282.76 L181.496,283 L183.768,283 L183.768,282.712 C183.693333,282.690667 183.624,282.658667 183.56,282.616 C183.496,282.573333 183.437333,282.504 183.384,282.408 L183.384,282.408 L180.792,276.968 C180.738667,276.850667 180.688,276.746667 180.64,276.656 C180.592,276.565333 180.568,276.488 180.568,276.424 C180.568,276.349333 180.586667,276.306667 180.624,276.296 C180.661333,276.285333 180.696,276.269333 180.728,276.248 L180.728,276.248 L180.728,275.96 L178.312,275.96 L178.312,276.248 C178.344,276.269333 178.373333,276.288 178.4,276.304 C178.426667,276.32 178.44,276.36 178.44,276.424 C178.44,276.509333 178.421333,276.597333 178.384,276.688 C178.346667,276.778667 178.296,276.898667 178.232,277.048 L178.232,277.048 L175.848,282.248 C175.805333,282.333333 175.744,282.426667 175.664,282.528 C175.584,282.629333 175.48,282.690667 175.352,282.712 L175.352,282.712 L175.352,283 L177.496,283 Z M180.696,280.056 L178.264,280.056 L179.4,277.368 L180.696,280.056 Z M193.544,283 L193.544,282.712 C193.448,282.712 193.384,282.696 193.352,282.664 C193.32,282.632 193.304,282.573333 193.304,282.488 C193.304,282.456 193.344,282.336 193.424,282.128 C193.504,281.92 193.605333,281.664 193.728,281.36 C193.850667,281.056 193.984,280.725333 194.128,280.368 C194.272,280.010667 194.408,279.669333 194.536,279.344 C194.664,279.018667 194.776,278.730667 194.872,278.48 C194.968,278.229333 195.026667,278.056 195.048,277.96 L195.048,277.96 L195.08,277.96 C195.250667,278.493333 195.426667,279.021333 195.608,279.544 C195.789333,280.066667 195.957333,280.538667 196.112,280.96 C196.266667,281.381333 196.392,281.730667 196.488,282.008 C196.584,282.285333 196.632,282.445333 196.632,282.488 C196.632,282.573333 196.621333,282.629333 196.6,282.656 C196.578667,282.682667 196.525333,282.701333 196.44,282.712 L196.44,282.712 L196.44,283 L198.68,283 L198.68,282.712 C198.530667,282.712 198.456,282.642667 198.456,282.504 C198.456,282.450667 198.488,282.352 198.552,282.208 C198.616,282.064 198.68,281.901333 198.744,281.72 L198.744,281.72 L200.584,276.84 C200.722667,276.445333 200.882667,276.248 201.064,276.248 L201.064,276.248 L201.064,275.96 L199.032,275.96 L199.032,276.248 C199.202667,276.248 199.288,276.322667 199.288,276.472 C199.288,276.546667 199.269333,276.64 199.232,276.752 C199.194667,276.864 199.149333,276.994667 199.096,277.144 L199.096,277.144 L197.608,281.032 L196.2,277.176 C196.146667,277.048 196.093333,276.912 196.04,276.768 C195.986667,276.624 195.96,276.514667 195.96,276.44 C195.96,276.312 196.056,276.248 196.248,276.248 L196.248,276.248 L196.248,275.96 L193.96,275.96 L193.96,276.248 C194.130667,276.248 194.216,276.322667 194.216,276.472 C194.216,276.557333 194.192,276.666667 194.144,276.8 C194.096,276.933333 194.045333,277.074667 193.992,277.224 L193.992,277.224 L192.632,281.032 L192.6,281.032 L191.192,277.144 C191.128,276.973333 191.074667,276.832 191.032,276.72 C190.989333,276.608 190.968,276.525333 190.968,276.472 C190.968,276.322667 191.037333,276.248 191.176,276.248 L191.176,276.248 L191.176,275.96 L189.144,275.96 L189.144,276.248 C189.304,276.28 189.416,276.381333 189.48,276.552 L189.48,276.552 L191.592,282.104 C191.613333,282.157333 191.642667,282.234667 191.68,282.336 C191.717333,282.437333 191.736,282.52 191.736,282.584 C191.736,282.648 191.72,282.685333 191.688,282.696 C191.656,282.706667 191.618667,282.712 191.576,282.712 L191.576,282.712 L191.576,283 L193.544,283 Z M203.72,283 L203.72,282.712 C203.624,282.712 203.549333,282.701333 203.496,282.68 C203.442667,282.658667 203.416,282.605333 203.416,282.52 C203.416,282.466667 203.429333,282.405333 203.456,282.336 C203.482667,282.266667 203.517333,282.189333 203.56,282.104 L203.56,282.104 L204.008,281.24 L207.432,281.24 L207.864,282.152 C207.896,282.237333 207.922667,282.306667 207.944,282.36 C207.965333,282.413333 207.976,282.472 207.976,282.536 C207.976,282.621333 207.946667,282.68 207.888,282.712 C207.829333,282.744 207.773333,282.76 207.72,282.76 L207.72,282.76 L207.72,283 L209.992,283 L209.992,282.712 C209.917333,282.690667 209.848,282.658667 209.784,282.616 C209.72,282.573333 209.661333,282.504 209.608,282.408 L209.608,282.408 L207.016,276.968 C206.962667,276.850667 206.912,276.746667 206.864,276.656 C206.816,276.565333 206.792,276.488 206.792,276.424 C206.792,276.349333 206.810667,276.306667 206.848,276.296 C206.885333,276.285333 206.92,276.269333 206.952,276.248 L206.952,276.248 L206.952,275.96 L204.536,275.96 L204.536,276.248 C204.568,276.269333 204.597333,276.288 204.624,276.304 C204.650667,276.32 204.664,276.36 204.664,276.424 C204.664,276.509333 204.645333,276.597333 204.608,276.688 C204.570667,276.778667 204.52,276.898667 204.456,277.048 L204.456,277.048 L202.072,282.248 C202.029333,282.333333 201.968,282.426667 201.888,282.528 C201.808,282.629333 201.704,282.690667 201.576,282.712 L201.576,282.712 L201.576,283 L203.72,283 Z M206.92,280.056 L204.488,280.056 L205.624,277.368 L206.92,280.056 Z M214.104,283 L214.104,282.712 C213.805333,282.712 213.656,282.632 213.656,282.472 L213.656,282.472 L213.656,276.488 C213.656,276.328 213.805333,276.248 214.104,276.248 L214.104,276.248 L214.104,275.96 L211.672,275.96 L211.672,276.248 C211.842667,276.248 211.96,276.266667 212.024,276.304 C212.088,276.341333 212.12,276.402667 212.12,276.488 L212.12,276.488 L212.12,282.472 C212.12,282.557333 212.088,282.618667 212.024,282.656 C211.96,282.693333 211.842667,282.712 211.672,282.712 L211.672,282.712 L211.672,283 L214.104,283 Z M220.616,283 L220.616,282.712 C220.424,282.712 220.328,282.632 220.328,282.472 L220.328,282.472 L220.328,277.144 L222.408,277.144 C222.493333,277.144 222.573333,277.165333 222.648,277.208 C222.722667,277.250667 222.76,277.32 222.76,277.416 L222.76,277.416 L223.048,277.416 L223.048,275.576 L222.76,275.576 C222.76,275.725333 222.722667,275.826667 222.648,275.88 C222.573333,275.933333 222.493333,275.96 222.408,275.96 L222.408,275.96 L216.712,275.96 C216.626667,275.96 216.546667,275.933333 216.472,275.88 C216.397333,275.826667 216.36,275.725333 216.36,275.576 L216.36,275.576 L216.072,275.576 L216.072,277.416 L216.36,277.416 C216.36,277.32 216.397333,277.250667 216.472,277.208 C216.546667,277.165333 216.626667,277.144 216.712,277.144 L216.712,277.144 L218.792,277.144 L218.792,282.472 C218.792,282.557333 218.765333,282.618667 218.712,282.656 C218.658667,282.693333 218.605333,282.712 218.552,282.712 L218.552,282.712 L218.552,283 L220.616,283 Z M76.832,299 L76.832,298.712 C76.64,298.712 76.544,298.632 76.544,298.472 L76.544,298.472 L76.544,293.144 L78.624,293.144 C78.7093333,293.144 78.7893333,293.165333 78.864,293.208 C78.9386667,293.250667 78.976,293.32 78.976,293.416 L78.976,293.416 L79.264,293.416 L79.264,291.576 L78.976,291.576 C78.976,291.725333 78.9386667,291.826667 78.864,291.88 C78.7893333,291.933333 78.7093333,291.96 78.624,291.96 L78.624,291.96 L72.928,291.96 C72.8426667,291.96 72.7626667,291.933333 72.688,291.88 C72.6133333,291.826667 72.576,291.725333 72.576,291.576 L72.576,291.576 L72.288,291.576 L72.288,293.416 L72.576,293.416 C72.576,293.32 72.6133333,293.250667 72.688,293.208 C72.7626667,293.165333 72.8426667,293.144 72.928,293.144 L72.928,293.144 L75.008,293.144 L75.008,298.472 C75.008,298.557333 74.9813333,298.618667 74.928,298.656 C74.8746667,298.693333 74.8213333,298.712 74.768,298.712 L74.768,298.712 L74.768,299 L76.832,299 Z M83.2,299 L83.2,298.712 C83.136,298.712 83.08,298.693333 83.032,298.656 C82.984,298.618667 82.96,298.557333 82.96,298.472 L82.96,298.472 L82.96,296.056 L87.248,296.056 L87.248,298.472 C87.248,298.557333 87.224,298.618667 87.176,298.656 C87.128,298.693333 87.072,298.712 87.008,298.712 L87.008,298.712 L87.008,299 L89.024,299 L89.024,298.712 C88.96,298.712 88.904,298.693333 88.856,298.656 C88.808,298.618667 88.784,298.557333 88.784,298.472 L88.784,298.472 L88.784,292.488 C88.784,292.402667 88.808,292.341333 88.856,292.304 C88.904,292.266667 88.96,292.248 89.024,292.248 L89.024,292.248 L89.024,291.96 L87.008,291.96 L87.008,292.248 C87.072,292.248 87.128,292.266667 87.176,292.304 C87.224,292.341333 87.248,292.402667 87.248,292.488 L87.248,292.488 L87.248,294.744 L82.96,294.744 L82.96,292.488 C82.96,292.402667 82.984,292.341333 83.032,292.304 C83.08,292.266667 83.136,292.248 83.2,292.248 L83.2,292.248 L83.2,291.96 L81.184,291.96 L81.184,292.248 C81.248,292.248 81.304,292.266667 81.352,292.304 C81.4,292.341333 81.424,292.402667 81.424,292.488 L81.424,292.488 L81.424,298.472 C81.424,298.557333 81.4,298.618667 81.352,298.656 C81.304,298.693333 81.248,298.712 81.184,298.712 L81.184,298.712 L81.184,299 L83.2,299 Z M94.32,299 L94.32,298.712 C94.0213333,298.712 93.872,298.632 93.872,298.472 L93.872,298.472 L93.872,292.488 C93.872,292.328 94.0213333,292.248 94.32,292.248 L94.32,292.248 L94.32,291.96 L91.888,291.96 L91.888,292.248 C92.0586667,292.248 92.176,292.266667 92.24,292.304 C92.304,292.341333 92.336,292.402667 92.336,292.488 L92.336,292.488 L92.336,298.472 C92.336,298.557333 92.304,298.618667 92.24,298.656 C92.176,298.693333 92.0586667,298.712 91.888,298.712 L91.888,298.712 L91.888,299 L94.32,299 Z M100.096,299.048 C100.458667,299.048 100.845333,299.021333 101.256,298.968 C101.666667,298.914667 102.042667,298.802667 102.384,298.632 C102.725333,298.461333 103.010667,298.226667 103.24,297.928 C103.469333,297.629333 103.584,297.245333 103.584,296.776 C103.584,296.306667 103.453333,295.938667 103.192,295.672 C102.930667,295.405333 102.602667,295.202667 102.208,295.064 C101.813333,294.925333 101.386667,294.826667 100.928,294.768 C100.469333,294.709333 100.042667,294.650667 99.648,294.592 C99.2533333,294.533333 98.9253333,294.453333 98.664,294.352 C98.4026667,294.250667 98.272,294.082667 98.272,293.848 C98.272,293.698667 98.3146667,293.573333 98.4,293.472 C98.4853333,293.370667 98.6026667,293.288 98.752,293.224 C98.9013333,293.16 99.072,293.114667 99.264,293.088 C99.456,293.061333 99.6586667,293.048 99.872,293.048 C100.426667,293.048 100.928,293.112 101.376,293.24 C101.824,293.368 102.154667,293.522667 102.368,293.704 C102.453333,293.768 102.501333,293.832 102.512,293.896 L102.512,293.896 L102.544,294.088 L102.832,294.184 L103.632,292.68 L103.456,292.504 C103.392,292.536 103.338667,292.565333 103.296,292.592 C103.253333,292.618667 103.189333,292.632 103.104,292.632 C103.029333,292.632 102.914667,292.592 102.76,292.512 C102.605333,292.432 102.405333,292.344 102.16,292.248 C101.914667,292.152 101.613333,292.064 101.256,291.984 C100.898667,291.904 100.469333,291.864 99.968,291.864 C98.944,291.864 98.1493333,292.066667 97.584,292.472 C97.0186667,292.877333 96.736,293.421333 96.736,294.104 C96.736,294.562667 96.8666667,294.917333 97.128,295.168 C97.3893333,295.418667 97.7173333,295.610667 98.112,295.744 C98.5066667,295.877333 98.9333333,295.973333 99.392,296.032 C99.8506667,296.090667 100.277333,296.149333 100.672,296.208 C101.066667,296.266667 101.394667,296.349333 101.656,296.456 C101.917333,296.562667 102.048,296.733333 102.048,296.968 C102.048,297.170667 101.973333,297.333333 101.824,297.456 C101.674667,297.578667 101.493333,297.674667 101.28,297.744 C101.066667,297.813333 100.850667,297.858667 100.632,297.88 C100.413333,297.901333 100.229333,297.912 100.08,297.912 C99.92,297.912 99.6986667,297.885333 99.416,297.832 C99.1333333,297.778667 98.8506667,297.706667 98.568,297.616 C98.2853333,297.525333 98.0426667,297.413333 97.84,297.28 C97.6373333,297.146667 97.536,297 97.536,296.84 C97.536,296.786667 97.5386667,296.736 97.544,296.688 C97.5493333,296.64 97.552,296.594667 97.552,296.552 L97.552,296.552 L97.248,296.472 L96.512,298.264 L96.736,298.424 C96.7893333,298.36 96.8533333,298.328 96.928,298.328 C96.9706667,298.328 97.0933333,298.368 97.296,298.448 C97.4986667,298.528 97.7466667,298.613333 98.04,298.704 C98.3333333,298.794667 98.6586667,298.874667 99.016,298.944 C99.3733333,299.013333 99.7333333,299.048 100.096,299.048 Z M114.432,299.048 C115.018667,299.048 115.570667,298.981333 116.088,298.848 C116.605333,298.714667 117.056,298.498667 117.44,298.2 C117.824,297.901333 118.128,297.525333 118.352,297.072 C118.576,296.618667 118.688,296.088 118.688,295.48 C118.688,294.872 118.576,294.341333 118.352,293.888 C118.128,293.434667 117.824,293.058667 117.44,292.76 C117.056,292.461333 116.605333,292.237333 116.088,292.088 C115.570667,291.938667 115.018667,291.864 114.432,291.864 C113.845333,291.864 113.293333,291.938667 112.776,292.088 C112.258667,292.237333 111.808,292.461333 111.424,292.76 C111.04,293.058667 110.736,293.434667 110.512,293.888 C110.288,294.341333 110.176,294.872 110.176,295.48 C110.176,296.088 110.288,296.618667 110.512,297.072 C110.736,297.525333 111.04,297.901333 111.424,298.2 C111.808,298.498667 112.258667,298.714667 112.776,298.848 C113.293333,298.981333 113.845333,299.048 114.432,299.048 Z M114.432,297.912 C114.090667,297.912 113.757333,297.856 113.432,297.744 C113.106667,297.632 112.816,297.472 112.56,297.264 C112.304,297.056 112.098667,296.802667 111.944,296.504 C111.789333,296.205333 111.712,295.864 111.712,295.48 C111.712,295.096 111.789333,294.754667 111.944,294.456 C112.098667,294.157333 112.304,293.904 112.56,293.696 C112.816,293.488 113.106667,293.328 113.432,293.216 C113.757333,293.104 114.090667,293.048 114.432,293.048 C114.773333,293.048 115.106667,293.104 115.432,293.216 C115.757333,293.328 116.048,293.488 116.304,293.696 C116.56,293.904 116.765333,294.157333 116.92,294.456 C117.074667,294.754667 117.152,295.096 117.152,295.48 C117.152,295.864 117.074667,296.205333 116.92,296.504 C116.765333,296.802667 116.56,297.056 116.304,297.264 C116.048,297.472 115.757333,297.632 115.432,297.744 C115.106667,297.856 114.773333,297.912 114.432,297.912 Z M122.592,299 L122.592,298.712 C122.368,298.712 122.256,298.632 122.256,298.472 L122.256,298.472 L122.256,293.816 L126.224,298.04 C126.352,298.178667 126.466667,298.301333 126.568,298.408 C126.669333,298.514667 126.72,298.589333 126.72,298.632 C126.72,298.685333 126.682667,298.712 126.608,298.712 L126.608,298.712 L126.608,299 L128.688,299 L128.688,298.712 C128.496,298.712 128.4,298.632 128.4,298.472 L128.4,298.472 L128.4,292.488 C128.4,292.328 128.496,292.248 128.688,292.248 L128.688,292.248 L128.688,291.96 L126.736,291.96 L126.736,292.248 C126.949333,292.248 127.056,292.328 127.056,292.488 L127.056,292.488 L127.056,296.824 L123.216,292.76 C122.981333,292.525333 122.864,292.381333 122.864,292.328 C122.864,292.285333 122.901333,292.258667 122.976,292.248 L122.976,292.248 L122.976,291.96 L120.624,291.96 L120.624,292.248 C120.816,292.248 120.912,292.328 120.912,292.488 L120.912,292.488 L120.912,298.472 C120.912,298.632 120.816,298.712 120.624,298.712 L120.624,298.712 L120.624,299 L122.592,299 Z M137.92,299.176 L137.92,297.496 L137.632,297.496 C137.632,297.592 137.589333,297.669333 137.504,297.728 C137.418667,297.786667 137.312,297.816 137.184,297.816 L137.184,297.816 L133.088,297.816 L133.088,295.928 L135.424,295.928 C135.637333,295.928 135.802667,295.941333 135.92,295.968 C136.037333,295.994667 136.08,296.066667 136.048,296.184 L136.048,296.184 L136.368,296.184 L136.368,294.488 L136.08,294.488 C136.08,294.605333 136.037333,294.677333 135.952,294.704 C135.866667,294.730667 135.733333,294.744 135.552,294.744 L135.552,294.744 L133.088,294.744 L133.088,293.144 L136.992,293.144 C137.322667,293.144 137.488,293.245333 137.488,293.448 L137.488,293.448 L137.776,293.448 L137.776,291.672 L137.488,291.672 C137.488,291.864 137.322667,291.96 136.992,291.96 L136.992,291.96 L131.312,291.96 L131.312,292.248 C131.365333,292.248 131.418667,292.266667 131.472,292.304 C131.525333,292.341333 131.552,292.402667 131.552,292.488 L131.552,292.488 L131.552,298.472 C131.552,298.557333 131.525333,298.618667 131.472,298.656 C131.418667,298.693333 131.365333,298.712 131.312,298.712 L131.312,298.712 L131.312,299 L137.184,299 C137.312,299 137.418667,299.005333 137.504,299.016 C137.589333,299.026667 137.632,299.08 137.632,299.176 L137.632,299.176 L137.92,299.176 Z M148.656,299.048 C149.242667,299.048 149.794667,298.981333 150.312,298.848 C150.829333,298.714667 151.28,298.498667 151.664,298.2 C152.048,297.901333 152.352,297.525333 152.576,297.072 C152.8,296.618667 152.912,296.088 152.912,295.48 C152.912,294.872 152.8,294.341333 152.576,293.888 C152.352,293.434667 152.048,293.058667 151.664,292.76 C151.28,292.461333 150.829333,292.237333 150.312,292.088 C149.794667,291.938667 149.242667,291.864 148.656,291.864 C148.069333,291.864 147.517333,291.938667 147,292.088 C146.482667,292.237333 146.032,292.461333 145.648,292.76 C145.264,293.058667 144.96,293.434667 144.736,293.888 C144.512,294.341333 144.4,294.872 144.4,295.48 C144.4,296.088 144.512,296.618667 144.736,297.072 C144.96,297.525333 145.264,297.901333 145.648,298.2 C146.032,298.498667 146.482667,298.714667 147,298.848 C147.517333,298.981333 148.069333,299.048 148.656,299.048 Z M148.656,297.912 C148.314667,297.912 147.981333,297.856 147.656,297.744 C147.330667,297.632 147.04,297.472 146.784,297.264 C146.528,297.056 146.322667,296.802667 146.168,296.504 C146.013333,296.205333 145.936,295.864 145.936,295.48 C145.936,295.096 146.013333,294.754667 146.168,294.456 C146.322667,294.157333 146.528,293.904 146.784,293.696 C147.04,293.488 147.330667,293.328 147.656,293.216 C147.981333,293.104 148.314667,293.048 148.656,293.048 C148.997333,293.048 149.330667,293.104 149.656,293.216 C149.981333,293.328 150.272,293.488 150.528,293.696 C150.784,293.904 150.989333,294.157333 151.144,294.456 C151.298667,294.754667 151.376,295.096 151.376,295.48 C151.376,295.864 151.298667,296.205333 151.144,296.504 C150.989333,296.802667 150.784,297.056 150.528,297.264 C150.272,297.472 149.981333,297.632 149.656,297.744 C149.330667,297.856 148.997333,297.912 148.656,297.912 Z M158.944,299.048 C159.584,299.048 160.141333,298.981333 160.616,298.848 C161.090667,298.714667 161.48,298.530667 161.784,298.296 C162.088,298.061333 162.314667,297.792 162.464,297.488 C162.613333,297.184 162.688,296.866667 162.688,296.536 L162.688,296.536 L162.688,292.488 C162.688,292.328 162.805333,292.248 163.04,292.248 L163.04,292.248 L163.04,291.96 L160.816,291.96 L160.816,292.248 C161.082667,292.248 161.216,292.328 161.216,292.488 L161.216,292.488 L161.216,296.152 C161.216,296.664 161.029333,297.074667 160.656,297.384 C160.282667,297.693333 159.712,297.848 158.944,297.848 C158.176,297.848 157.605333,297.693333 157.232,297.384 C156.858667,297.074667 156.672,296.664 156.672,296.152 L156.672,296.152 L156.672,292.488 C156.672,292.328 156.789333,292.248 157.024,292.248 L157.024,292.248 L157.024,291.96 L154.736,291.96 L154.736,292.248 C154.917333,292.248 155.04,292.266667 155.104,292.304 C155.168,292.341333 155.2,292.402667 155.2,292.488 L155.2,292.488 L155.2,296.536 C155.2,296.866667 155.274667,297.184 155.424,297.488 C155.573333,297.792 155.8,298.061333 156.104,298.296 C156.408,298.530667 156.797333,298.714667 157.272,298.848 C157.746667,298.981333 158.304,299.048 158.944,299.048 Z M169.28,299 L169.28,298.712 C169.088,298.712 168.992,298.632 168.992,298.472 L168.992,298.472 L168.992,293.144 L171.072,293.144 C171.157333,293.144 171.237333,293.165333 171.312,293.208 C171.386667,293.250667 171.424,293.32 171.424,293.416 L171.424,293.416 L171.712,293.416 L171.712,291.576 L171.424,291.576 C171.424,291.725333 171.386667,291.826667 171.312,291.88 C171.237333,291.933333 171.157333,291.96 171.072,291.96 L171.072,291.96 L165.376,291.96 C165.290667,291.96 165.210667,291.933333 165.136,291.88 C165.061333,291.826667 165.024,291.725333 165.024,291.576 L165.024,291.576 L164.736,291.576 L164.736,293.416 L165.024,293.416 C165.024,293.32 165.061333,293.250667 165.136,293.208 C165.210667,293.165333 165.290667,293.144 165.376,293.144 L165.376,293.144 L167.456,293.144 L167.456,298.472 C167.456,298.557333 167.429333,298.618667 167.376,298.656 C167.322667,298.693333 167.269333,298.712 167.216,298.712 L167.216,298.712 L167.216,299 L169.28,299 Z M185.552,299.048 C185.861333,299.048 186.128,298.944 186.352,298.736 C186.576,298.528 186.688,298.269333 186.688,297.96 C186.688,297.650667 186.576,297.384 186.352,297.16 C186.128,296.936 185.861333,296.824 185.552,296.824 C185.242667,296.824 184.976,296.936 184.752,297.16 C184.528,297.384 184.416,297.650667 184.416,297.96 C184.416,298.269333 184.528,298.528 184.752,298.736 C184.976,298.944 185.242667,299.048 185.552,299.048 Z M180.224,299.048 C180.533333,299.048 180.8,298.944 181.024,298.736 C181.248,298.528 181.36,298.269333 181.36,297.96 C181.36,297.650667 181.248,297.384 181.024,297.16 C180.8,296.936 180.533333,296.824 180.224,296.824 C179.914667,296.824 179.648,296.936 179.424,297.16 C179.2,297.384 179.088,297.650667 179.088,297.96 C179.088,298.269333 179.2,298.528 179.424,298.736 C179.648,298.944 179.914667,299.048 180.224,299.048 Z M174.896,299.048 C175.205333,299.048 175.472,298.944 175.696,298.736 C175.92,298.528 176.032,298.269333 176.032,297.96 C176.032,297.650667 175.92,297.384 175.696,297.16 C175.472,296.936 175.205333,296.824 174.896,296.824 C174.586667,296.824 174.32,296.936 174.096,297.16 C173.872,297.384 173.76,297.650667 173.76,297.96 C173.76,298.269333 173.872,298.528 174.096,298.736 C174.32,298.944 174.586667,299.048 174.896,299.048 Z M38.328,315 L38.328,314.712 C38.2426667,314.712 38.168,314.688 38.104,314.64 C38.04,314.592 38.008,314.52 38.008,314.424 L38.008,314.424 L38.008,312.136 L39.352,311.096 L42.088,314.248 C42.2373333,314.429333 42.312,314.546667 42.312,314.6 C42.312,314.674667 42.2426667,314.712 42.104,314.712 L42.104,314.712 L42.104,315 L45.064,315 L45.064,314.712 C44.8826667,314.658667 44.6986667,314.554667 44.512,314.4 C44.3253333,314.245333 44.1626667,314.088 44.024,313.928 L44.024,313.928 L40.664,310.04 L44.344,307.112 C44.536,306.952 44.728,306.872 44.92,306.872 L44.92,306.872 L44.92,306.584 L41.56,306.584 L41.56,306.872 C41.624,306.872 41.68,306.888 41.728,306.92 C41.776,306.952 41.8,307.005333 41.8,307.08 C41.8,307.133333 41.7573333,307.2 41.672,307.28 C41.5866667,307.36 41.4693333,307.464 41.32,307.592 L41.32,307.592 L38.008,310.2 L38.008,307.16 C38.008,307.064 38.04,306.992 38.104,306.944 C38.168,306.896 38.2426667,306.872 38.328,306.872 L38.328,306.872 L38.328,306.584 L35.832,306.584 L35.832,306.872 C36.0666667,306.872 36.184,306.968 36.184,307.16 L36.184,307.16 L36.184,314.424 C36.184,314.616 36.0666667,314.712 35.832,314.712 L35.832,314.712 L35.832,315 L38.328,315 Z M53.256,315.176 L53.256,313.496 L52.968,313.496 C52.968,313.592 52.9253333,313.669333 52.84,313.728 C52.7546667,313.786667 52.648,313.816 52.52,313.816 L52.52,313.816 L48.424,313.816 L48.424,311.928 L50.76,311.928 C50.9733333,311.928 51.1386667,311.941333 51.256,311.968 C51.3733333,311.994667 51.416,312.066667 51.384,312.184 L51.384,312.184 L51.704,312.184 L51.704,310.488 L51.416,310.488 C51.416,310.605333 51.3733333,310.677333 51.288,310.704 C51.2026667,310.730667 51.0693333,310.744 50.888,310.744 L50.888,310.744 L48.424,310.744 L48.424,309.144 L52.328,309.144 C52.6586667,309.144 52.824,309.245333 52.824,309.448 L52.824,309.448 L53.112,309.448 L53.112,307.672 L52.824,307.672 C52.824,307.864 52.6586667,307.96 52.328,307.96 L52.328,307.96 L46.648,307.96 L46.648,308.248 C46.7013333,308.248 46.7546667,308.266667 46.808,308.304 C46.8613333,308.341333 46.888,308.402667 46.888,308.488 L46.888,308.488 L46.888,314.472 C46.888,314.557333 46.8613333,314.618667 46.808,314.656 C46.7546667,314.693333 46.7013333,314.712 46.648,314.712 L46.648,314.712 L46.648,315 L52.52,315 C52.648,315 52.7546667,315.005333 52.84,315.016 C52.9253333,315.026667 52.968,315.08 52.968,315.176 L52.968,315.176 L53.256,315.176 Z M62.152,315.176 L62.152,313.496 L61.864,313.496 C61.864,313.592 61.8213333,313.669333 61.736,313.728 C61.6506667,313.786667 61.544,313.816 61.416,313.816 L61.416,313.816 L57.32,313.816 L57.32,311.928 L59.656,311.928 C59.8693333,311.928 60.0346667,311.941333 60.152,311.968 C60.2693333,311.994667 60.312,312.066667 60.28,312.184 L60.28,312.184 L60.6,312.184 L60.6,310.488 L60.312,310.488 C60.312,310.605333 60.2693333,310.677333 60.184,310.704 C60.0986667,310.730667 59.9653333,310.744 59.784,310.744 L59.784,310.744 L57.32,310.744 L57.32,309.144 L61.224,309.144 C61.5546667,309.144 61.72,309.245333 61.72,309.448 L61.72,309.448 L62.008,309.448 L62.008,307.672 L61.72,307.672 C61.72,307.864 61.5546667,307.96 61.224,307.96 L61.224,307.96 L55.544,307.96 L55.544,308.248 C55.5973333,308.248 55.6506667,308.266667 55.704,308.304 C55.7573333,308.341333 55.784,308.402667 55.784,308.488 L55.784,308.488 L55.784,314.472 C55.784,314.557333 55.7573333,314.618667 55.704,314.656 C55.6506667,314.693333 55.5973333,314.712 55.544,314.712 L55.544,314.712 L55.544,315 L61.416,315 C61.544,315 61.6506667,315.005333 61.736,315.016 C61.8213333,315.026667 61.864,315.08 61.864,315.176 L61.864,315.176 L62.152,315.176 Z M66.472,315 L66.472,314.712 C66.248,314.712 66.136,314.632 66.136,314.472 L66.136,314.472 L66.136,312.072 L68.856,312.072 C69.72,312.072 70.368,311.925333 70.8,311.632 C71.232,311.338667 71.448,310.808 71.448,310.04 C71.448,309.272 71.232,308.733333 70.8,308.424 C70.368,308.114667 69.72,307.96 68.856,307.96 L68.856,307.96 L64.2,307.96 L64.2,308.248 C64.4666667,308.248 64.6,308.328 64.6,308.488 L64.6,308.488 L64.6,314.472 C64.6,314.632 64.4666667,314.712 64.2,314.712 L64.2,314.712 L64.2,315 L66.472,315 Z M68.824,310.888 L66.136,310.888 L66.136,309.144 L68.824,309.144 C69.1333333,309.144 69.392,309.210667 69.6,309.344 C69.808,309.477333 69.912,309.709333 69.912,310.04 C69.912,310.381333 69.808,310.608 69.6,310.72 C69.392,310.832 69.1333333,310.888 68.824,310.888 L68.824,310.888 Z M80.776,315 L80.776,314.712 C80.4773333,314.712 80.328,314.632 80.328,314.472 L80.328,314.472 L80.328,308.488 C80.328,308.328 80.4773333,308.248 80.776,308.248 L80.776,308.248 L80.776,307.96 L78.344,307.96 L78.344,308.248 C78.5146667,308.248 78.632,308.266667 78.696,308.304 C78.76,308.341333 78.792,308.402667 78.792,308.488 L78.792,308.488 L78.792,314.472 C78.792,314.557333 78.76,314.618667 78.696,314.656 C78.632,314.693333 78.5146667,314.712 78.344,314.712 L78.344,314.712 L78.344,315 L80.776,315 Z M85.496,315 L85.496,314.712 C85.272,314.712 85.16,314.632 85.16,314.472 L85.16,314.472 L85.16,309.816 L89.128,314.04 C89.256,314.178667 89.3706667,314.301333 89.472,314.408 C89.5733333,314.514667 89.624,314.589333 89.624,314.632 C89.624,314.685333 89.5866667,314.712 89.512,314.712 L89.512,314.712 L89.512,315 L91.592,315 L91.592,314.712 C91.4,314.712 91.304,314.632 91.304,314.472 L91.304,314.472 L91.304,308.488 C91.304,308.328 91.4,308.248 91.592,308.248 L91.592,308.248 L91.592,307.96 L89.64,307.96 L89.64,308.248 C89.8533333,308.248 89.96,308.328 89.96,308.488 L89.96,308.488 L89.96,312.824 L86.12,308.76 C85.8853333,308.525333 85.768,308.381333 85.768,308.328 C85.768,308.285333 85.8053333,308.258667 85.88,308.248 L85.88,308.248 L85.88,307.96 L83.528,307.96 L83.528,308.248 C83.72,308.248 83.816,308.328 83.816,308.488 L83.816,308.488 L83.816,314.472 C83.816,314.632 83.72,314.712 83.528,314.712 L83.528,314.712 L83.528,315 L85.496,315 Z M101.224,315 L101.224,314.712 C101.128,314.712 101.042667,314.693333 100.968,314.656 C100.893333,314.618667 100.856,314.557333 100.856,314.472 L100.856,314.472 L100.856,312.024 L103.672,312.024 C103.853333,312.024 103.965333,312.045333 104.008,312.088 C104.050667,312.130667 104.077333,312.194667 104.088,312.28 L104.088,312.28 L104.376,312.28 L104.376,310.6 L104.088,310.6 C104.077333,310.685333 104.050667,310.746667 104.008,310.784 C103.965333,310.821333 103.853333,310.84 103.672,310.84 L103.672,310.84 L100.856,310.84 L100.856,309.144 L105.192,309.144 C105.373333,309.144 105.501333,309.168 105.576,309.216 C105.650667,309.264 105.688,309.314667 105.688,309.368 L105.688,309.368 L105.976,309.368 L105.976,307.672 L105.688,307.672 C105.688,307.757333 105.650667,307.826667 105.576,307.88 C105.501333,307.933333 105.373333,307.96 105.192,307.96 L105.192,307.96 L98.984,307.96 L98.984,308.248 C99.208,308.248 99.32,308.328 99.32,308.488 L99.32,308.488 L99.32,314.472 C99.32,314.632 99.2186667,314.712 99.016,314.712 L99.016,314.712 L99.016,315 L101.224,315 Z M110.056,315 L110.056,314.712 C109.992,314.712 109.925333,314.693333 109.856,314.656 C109.786667,314.618667 109.752,314.557333 109.752,314.472 L109.752,314.472 L109.752,312.184 L111.976,312.184 L113.24,314.072 C113.4,314.296 113.48,314.461333 113.48,314.568 C113.48,314.664 113.410667,314.712 113.272,314.712 L113.272,314.712 L113.272,315 L115.72,315 L115.72,314.712 C115.602667,314.68 115.493333,314.634667 115.392,314.576 C115.290667,314.517333 115.197333,314.429333 115.112,314.312 L115.112,314.312 L113.544,312.024 C113.768,311.970667 113.986667,311.893333 114.2,311.792 C114.413333,311.690667 114.608,311.557333 114.784,311.392 C114.96,311.226667 115.101333,311.032 115.208,310.808 C115.314667,310.584 115.368,310.328 115.368,310.04 C115.368,309.282667 115.101333,308.746667 114.568,308.432 C114.034667,308.117333 113.293333,307.96 112.344,307.96 L112.344,307.96 L107.928,307.96 L107.928,308.248 C108.12,308.248 108.216,308.328 108.216,308.488 L108.216,308.488 L108.216,314.472 C108.216,314.632 108.12,314.712 107.928,314.712 L107.928,314.712 L107.928,315 L110.056,315 Z M112.312,311 L109.784,311 L109.784,309.144 L112.312,309.144 C112.856,309.144 113.253333,309.221333 113.504,309.376 C113.754667,309.530667 113.88,309.741333 113.88,310.008 C113.88,310.669333 113.357333,311 112.312,311 L112.312,311 Z M121.336,315.048 C121.922667,315.048 122.474667,314.981333 122.992,314.848 C123.509333,314.714667 123.96,314.498667 124.344,314.2 C124.728,313.901333 125.032,313.525333 125.256,313.072 C125.48,312.618667 125.592,312.088 125.592,311.48 C125.592,310.872 125.48,310.341333 125.256,309.888 C125.032,309.434667 124.728,309.058667 124.344,308.76 C123.96,308.461333 123.509333,308.237333 122.992,308.088 C122.474667,307.938667 121.922667,307.864 121.336,307.864 C120.749333,307.864 120.197333,307.938667 119.68,308.088 C119.162667,308.237333 118.712,308.461333 118.328,308.76 C117.944,309.058667 117.64,309.434667 117.416,309.888 C117.192,310.341333 117.08,310.872 117.08,311.48 C117.08,312.088 117.192,312.618667 117.416,313.072 C117.64,313.525333 117.944,313.901333 118.328,314.2 C118.712,314.498667 119.162667,314.714667 119.68,314.848 C120.197333,314.981333 120.749333,315.048 121.336,315.048 Z M121.336,313.912 C120.994667,313.912 120.661333,313.856 120.336,313.744 C120.010667,313.632 119.72,313.472 119.464,313.264 C119.208,313.056 119.002667,312.802667 118.848,312.504 C118.693333,312.205333 118.616,311.864 118.616,311.48 C118.616,311.096 118.693333,310.754667 118.848,310.456 C119.002667,310.157333 119.208,309.904 119.464,309.696 C119.72,309.488 120.010667,309.328 120.336,309.216 C120.661333,309.104 120.994667,309.048 121.336,309.048 C121.677333,309.048 122.010667,309.104 122.336,309.216 C122.661333,309.328 122.952,309.488 123.208,309.696 C123.464,309.904 123.669333,310.157333 123.824,310.456 C123.978667,310.754667 124.056,311.096 124.056,311.48 C124.056,311.864 123.978667,312.205333 123.824,312.504 C123.669333,312.802667 123.464,313.056 123.208,313.264 C122.952,313.472 122.661333,313.632 122.336,313.744 C122.010667,313.856 121.677333,313.912 121.336,313.912 Z M129.496,315 L129.496,314.712 C129.272,314.712 129.16,314.632 129.16,314.472 L129.16,314.472 L129.16,309.816 L133.128,314.04 C133.256,314.178667 133.370667,314.301333 133.472,314.408 C133.573333,314.514667 133.624,314.589333 133.624,314.632 C133.624,314.685333 133.586667,314.712 133.512,314.712 L133.512,314.712 L133.512,315 L135.592,315 L135.592,314.712 C135.4,314.712 135.304,314.632 135.304,314.472 L135.304,314.472 L135.304,308.488 C135.304,308.328 135.4,308.248 135.592,308.248 L135.592,308.248 L135.592,307.96 L133.64,307.96 L133.64,308.248 C133.853333,308.248 133.96,308.328 133.96,308.488 L133.96,308.488 L133.96,312.824 L130.12,308.76 C129.885333,308.525333 129.768,308.381333 129.768,308.328 C129.768,308.285333 129.805333,308.258667 129.88,308.248 L129.88,308.248 L129.88,307.96 L127.528,307.96 L127.528,308.248 C127.72,308.248 127.816,308.328 127.816,308.488 L127.816,308.488 L127.816,314.472 C127.816,314.632 127.72,314.712 127.528,314.712 L127.528,314.712 L127.528,315 L129.496,315 Z M141.96,315 L141.96,314.712 C141.768,314.712 141.672,314.632 141.672,314.472 L141.672,314.472 L141.672,309.144 L143.752,309.144 C143.837333,309.144 143.917333,309.165333 143.992,309.208 C144.066667,309.250667 144.104,309.32 144.104,309.416 L144.104,309.416 L144.392,309.416 L144.392,307.576 L144.104,307.576 C144.104,307.725333 144.066667,307.826667 143.992,307.88 C143.917333,307.933333 143.837333,307.96 143.752,307.96 L143.752,307.96 L138.056,307.96 C137.970667,307.96 137.890667,307.933333 137.816,307.88 C137.741333,307.826667 137.704,307.725333 137.704,307.576 L137.704,307.576 L137.416,307.576 L137.416,309.416 L137.704,309.416 C137.704,309.32 137.741333,309.250667 137.816,309.208 C137.890667,309.165333 137.970667,309.144 138.056,309.144 L138.056,309.144 L140.136,309.144 L140.136,314.472 C140.136,314.557333 140.109333,314.618667 140.056,314.656 C140.002667,314.693333 139.949333,314.712 139.896,314.712 L139.896,314.712 L139.896,315 L141.96,315 Z M154.664,315.048 C155.250667,315.048 155.802667,314.981333 156.32,314.848 C156.837333,314.714667 157.288,314.498667 157.672,314.2 C158.056,313.901333 158.36,313.525333 158.584,313.072 C158.808,312.618667 158.92,312.088 158.92,311.48 C158.92,310.872 158.808,310.341333 158.584,309.888 C158.36,309.434667 158.056,309.058667 157.672,308.76 C157.288,308.461333 156.837333,308.237333 156.32,308.088 C155.802667,307.938667 155.250667,307.864 154.664,307.864 C154.077333,307.864 153.525333,307.938667 153.008,308.088 C152.490667,308.237333 152.04,308.461333 151.656,308.76 C151.272,309.058667 150.968,309.434667 150.744,309.888 C150.52,310.341333 150.408,310.872 150.408,311.48 C150.408,312.088 150.52,312.618667 150.744,313.072 C150.968,313.525333 151.272,313.901333 151.656,314.2 C152.04,314.498667 152.490667,314.714667 153.008,314.848 C153.525333,314.981333 154.077333,315.048 154.664,315.048 Z M154.664,313.912 C154.322667,313.912 153.989333,313.856 153.664,313.744 C153.338667,313.632 153.048,313.472 152.792,313.264 C152.536,313.056 152.330667,312.802667 152.176,312.504 C152.021333,312.205333 151.944,311.864 151.944,311.48 C151.944,311.096 152.021333,310.754667 152.176,310.456 C152.330667,310.157333 152.536,309.904 152.792,309.696 C153.048,309.488 153.338667,309.328 153.664,309.216 C153.989333,309.104 154.322667,309.048 154.664,309.048 C155.005333,309.048 155.338667,309.104 155.664,309.216 C155.989333,309.328 156.28,309.488 156.536,309.696 C156.792,309.904 156.997333,310.157333 157.152,310.456 C157.306667,310.754667 157.384,311.096 157.384,311.48 C157.384,311.864 157.306667,312.205333 157.152,312.504 C156.997333,312.802667 156.792,313.056 156.536,313.264 C156.28,313.472 155.989333,313.632 155.664,313.744 C155.338667,313.856 155.005333,313.912 154.664,313.912 Z M163,315 L163,314.712 C162.904,314.712 162.818667,314.693333 162.744,314.656 C162.669333,314.618667 162.632,314.557333 162.632,314.472 L162.632,314.472 L162.632,312.024 L165.448,312.024 C165.629333,312.024 165.741333,312.045333 165.784,312.088 C165.826667,312.130667 165.853333,312.194667 165.864,312.28 L165.864,312.28 L166.152,312.28 L166.152,310.6 L165.864,310.6 C165.853333,310.685333 165.826667,310.746667 165.784,310.784 C165.741333,310.821333 165.629333,310.84 165.448,310.84 L165.448,310.84 L162.632,310.84 L162.632,309.144 L166.968,309.144 C167.149333,309.144 167.277333,309.168 167.352,309.216 C167.426667,309.264 167.464,309.314667 167.464,309.368 L167.464,309.368 L167.752,309.368 L167.752,307.672 L167.464,307.672 C167.464,307.757333 167.426667,307.826667 167.352,307.88 C167.277333,307.933333 167.149333,307.96 166.968,307.96 L166.968,307.96 L160.76,307.96 L160.76,308.248 C160.984,308.248 161.096,308.328 161.096,308.488 L161.096,308.488 L161.096,314.472 C161.096,314.632 160.994667,314.712 160.792,314.712 L160.792,314.712 L160.792,315 L163,315 Z M178.856,315 L178.856,314.712 C178.653333,314.712 178.552,314.632 178.552,314.472 L178.552,314.472 L178.552,312.072 L181,308.904 C181.117333,308.754667 181.253333,308.608 181.408,308.464 C181.562667,308.32 181.704,308.248 181.832,308.248 L181.832,308.248 L181.832,307.96 L179.384,307.96 L179.384,308.248 C179.437333,308.248 179.490667,308.258667 179.544,308.28 C179.597333,308.301333 179.624,308.354667 179.624,308.44 C179.624,308.504 179.6,308.570667 179.552,308.64 C179.504,308.709333 179.432,308.813333 179.336,308.952 L179.336,308.952 L177.912,310.936 L176.296,308.824 C176.242667,308.749333 176.194667,308.685333 176.152,308.632 C176.109333,308.578667 176.088,308.52 176.088,308.456 C176.088,308.392 176.12,308.341333 176.184,308.304 C176.248,308.266667 176.306667,308.248 176.36,308.248 L176.36,308.248 L176.36,307.96 L173.72,307.96 L173.72,308.248 C173.816,308.248 173.917333,308.269333 174.024,308.312 C174.130667,308.354667 174.221333,308.424 174.296,308.52 L174.296,308.52 L177.016,312.008 L177.016,314.472 C177.016,314.632 176.92,314.712 176.728,314.712 L176.728,314.712 L176.728,315 L178.856,315 Z M187.112,315.048 C187.698667,315.048 188.250667,314.981333 188.768,314.848 C189.285333,314.714667 189.736,314.498667 190.12,314.2 C190.504,313.901333 190.808,313.525333 191.032,313.072 C191.256,312.618667 191.368,312.088 191.368,311.48 C191.368,310.872 191.256,310.341333 191.032,309.888 C190.808,309.434667 190.504,309.058667 190.12,308.76 C189.736,308.461333 189.285333,308.237333 188.768,308.088 C188.250667,307.938667 187.698667,307.864 187.112,307.864 C186.525333,307.864 185.973333,307.938667 185.456,308.088 C184.938667,308.237333 184.488,308.461333 184.104,308.76 C183.72,309.058667 183.416,309.434667 183.192,309.888 C182.968,310.341333 182.856,310.872 182.856,311.48 C182.856,312.088 182.968,312.618667 183.192,313.072 C183.416,313.525333 183.72,313.901333 184.104,314.2 C184.488,314.498667 184.938667,314.714667 185.456,314.848 C185.973333,314.981333 186.525333,315.048 187.112,315.048 Z M187.112,313.912 C186.770667,313.912 186.437333,313.856 186.112,313.744 C185.786667,313.632 185.496,313.472 185.24,313.264 C184.984,313.056 184.778667,312.802667 184.624,312.504 C184.469333,312.205333 184.392,311.864 184.392,311.48 C184.392,311.096 184.469333,310.754667 184.624,310.456 C184.778667,310.157333 184.984,309.904 185.24,309.696 C185.496,309.488 185.786667,309.328 186.112,309.216 C186.437333,309.104 186.770667,309.048 187.112,309.048 C187.453333,309.048 187.786667,309.104 188.112,309.216 C188.437333,309.328 188.728,309.488 188.984,309.696 C189.24,309.904 189.445333,310.157333 189.6,310.456 C189.754667,310.754667 189.832,311.096 189.832,311.48 C189.832,311.864 189.754667,312.205333 189.6,312.504 C189.445333,312.802667 189.24,313.056 188.984,313.264 C188.728,313.472 188.437333,313.632 188.112,313.744 C187.786667,313.856 187.453333,313.912 187.112,313.912 Z M197.4,315.048 C198.04,315.048 198.597333,314.981333 199.072,314.848 C199.546667,314.714667 199.936,314.530667 200.24,314.296 C200.544,314.061333 200.770667,313.792 200.92,313.488 C201.069333,313.184 201.144,312.866667 201.144,312.536 L201.144,312.536 L201.144,308.488 C201.144,308.328 201.261333,308.248 201.496,308.248 L201.496,308.248 L201.496,307.96 L199.272,307.96 L199.272,308.248 C199.538667,308.248 199.672,308.328 199.672,308.488 L199.672,308.488 L199.672,312.152 C199.672,312.664 199.485333,313.074667 199.112,313.384 C198.738667,313.693333 198.168,313.848 197.4,313.848 C196.632,313.848 196.061333,313.693333 195.688,313.384 C195.314667,313.074667 195.128,312.664 195.128,312.152 L195.128,312.152 L195.128,308.488 C195.128,308.328 195.245333,308.248 195.48,308.248 L195.48,308.248 L195.48,307.96 L193.192,307.96 L193.192,308.248 C193.373333,308.248 193.496,308.266667 193.56,308.304 C193.624,308.341333 193.656,308.402667 193.656,308.488 L193.656,308.488 L193.656,312.536 C193.656,312.866667 193.730667,313.184 193.88,313.488 C194.029333,313.792 194.256,314.061333 194.56,314.296 C194.864,314.530667 195.253333,314.714667 195.728,314.848 C196.202667,314.981333 196.76,315.048 197.4,315.048 Z M212.616,315 L212.616,314.712 C212.424,314.712 212.328,314.632 212.328,314.472 L212.328,314.472 L212.328,309.144 L214.408,309.144 C214.493333,309.144 214.573333,309.165333 214.648,309.208 C214.722667,309.250667 214.76,309.32 214.76,309.416 L214.76,309.416 L215.048,309.416 L215.048,307.576 L214.76,307.576 C214.76,307.725333 214.722667,307.826667 214.648,307.88 C214.573333,307.933333 214.493333,307.96 214.408,307.96 L214.408,307.96 L208.712,307.96 C208.626667,307.96 208.546667,307.933333 208.472,307.88 C208.397333,307.826667 208.36,307.725333 208.36,307.576 L208.36,307.576 L208.072,307.576 L208.072,309.416 L208.36,309.416 C208.36,309.32 208.397333,309.250667 208.472,309.208 C208.546667,309.165333 208.626667,309.144 208.712,309.144 L208.712,309.144 L210.792,309.144 L210.792,314.472 C210.792,314.557333 210.765333,314.618667 210.712,314.656 C210.658667,314.693333 210.605333,314.712 210.552,314.712 L210.552,314.712 L210.552,315 L212.616,315 Z M220.44,315.048 C221.026667,315.048 221.578667,314.981333 222.096,314.848 C222.613333,314.714667 223.064,314.498667 223.448,314.2 C223.832,313.901333 224.136,313.525333 224.36,313.072 C224.584,312.618667 224.696,312.088 224.696,311.48 C224.696,310.872 224.584,310.341333 224.36,309.888 C224.136,309.434667 223.832,309.058667 223.448,308.76 C223.064,308.461333 222.613333,308.237333 222.096,308.088 C221.578667,307.938667 221.026667,307.864 220.44,307.864 C219.853333,307.864 219.301333,307.938667 218.784,308.088 C218.266667,308.237333 217.816,308.461333 217.432,308.76 C217.048,309.058667 216.744,309.434667 216.52,309.888 C216.296,310.341333 216.184,310.872 216.184,311.48 C216.184,312.088 216.296,312.618667 216.52,313.072 C216.744,313.525333 217.048,313.901333 217.432,314.2 C217.816,314.498667 218.266667,314.714667 218.784,314.848 C219.301333,314.981333 219.853333,315.048 220.44,315.048 Z M220.44,313.912 C220.098667,313.912 219.765333,313.856 219.44,313.744 C219.114667,313.632 218.824,313.472 218.568,313.264 C218.312,313.056 218.106667,312.802667 217.952,312.504 C217.797333,312.205333 217.72,311.864 217.72,311.48 C217.72,311.096 217.797333,310.754667 217.952,310.456 C218.106667,310.157333 218.312,309.904 218.568,309.696 C218.824,309.488 219.114667,309.328 219.44,309.216 C219.765333,309.104 220.098667,309.048 220.44,309.048 C220.781333,309.048 221.114667,309.104 221.44,309.216 C221.765333,309.328 222.056,309.488 222.312,309.696 C222.568,309.904 222.773333,310.157333 222.928,310.456 C223.082667,310.754667 223.16,311.096 223.16,311.48 C223.16,311.864 223.082667,312.205333 222.928,312.504 C222.773333,312.802667 222.568,313.056 222.312,313.264 C222.056,313.472 221.765333,313.632 221.44,313.744 C221.114667,313.856 220.781333,313.912 220.44,313.912 Z M71.392,331.048 C71.872,331.048 72.3066667,331.005333 72.696,330.92 C73.0853333,330.834667 73.4266667,330.730667 73.72,330.608 C74.0133333,330.485333 74.256,330.376 74.448,330.28 C74.64,330.184 74.7786667,330.136 74.864,330.136 C74.9173333,330.136 75.008,330.162667 75.136,330.216 L75.136,330.216 L75.296,330.136 L74.112,328.44 L73.936,328.6 C73.9466667,328.642667 73.952,328.696 73.952,328.76 L73.952,328.76 L73.952,328.888 C73.952,328.984 73.8746667,329.090667 73.72,329.208 C73.5653333,329.325333 73.3653333,329.434667 73.12,329.536 C72.8746667,329.637333 72.6026667,329.725333 72.304,329.8 C72.0053333,329.874667 71.712,329.912 71.424,329.912 C71.1146667,329.912 70.8106667,329.856 70.512,329.744 C70.2133333,329.632 69.9466667,329.466667 69.712,329.248 C69.4773333,329.029333 69.288,328.768 69.144,328.464 C69,328.16 68.928,327.816 68.928,327.432 C68.928,327.048 68.992,326.706667 69.12,326.408 C69.248,326.109333 69.4293333,325.858667 69.664,325.656 C69.8986667,325.453333 70.1733333,325.301333 70.488,325.2 C70.8026667,325.098667 71.152,325.048 71.536,325.048 C71.856,325.048 72.1493333,325.077333 72.416,325.136 C72.6826667,325.194667 72.9146667,325.266667 73.112,325.352 C73.3093333,325.437333 73.4613333,325.525333 73.568,325.616 C73.6746667,325.706667 73.728,325.778667 73.728,325.832 C73.728,325.864 73.7306667,325.890667 73.736,325.912 C73.7413333,325.933333 73.744,325.954667 73.744,325.976 L73.744,325.976 L73.92,326.104 L74.976,324.584 L74.784,324.472 C74.7413333,324.493333 74.7013333,324.52 74.664,324.552 C74.6266667,324.584 74.5813333,324.6 74.528,324.6 C74.4533333,324.6 74.3306667,324.562667 74.16,324.488 C73.9893333,324.413333 73.776,324.328 73.52,324.232 C73.264,324.136 72.968,324.050667 72.632,323.976 C72.296,323.901333 71.9253333,323.864 71.52,323.864 C70.9973333,323.864 70.488,323.938667 69.992,324.088 C69.496,324.237333 69.056,324.464 68.672,324.768 C68.288,325.072 67.9786667,325.448 67.744,325.896 C67.5093333,326.344 67.392,326.866667 67.392,327.464 C67.392,328.061333 67.5093333,328.586667 67.744,329.04 C67.9786667,329.493333 68.2826667,329.872 68.656,330.176 C69.0293333,330.48 69.456,330.701333 69.936,330.84 C70.416,330.978667 70.9013333,331.048 71.392,331.048 Z M81.168,331.048 C81.808,331.048 82.3653333,330.981333 82.84,330.848 C83.3146667,330.714667 83.704,330.530667 84.008,330.296 C84.312,330.061333 84.5386667,329.792 84.688,329.488 C84.8373333,329.184 84.912,328.866667 84.912,328.536 L84.912,328.536 L84.912,324.488 C84.912,324.328 85.0293333,324.248 85.264,324.248 L85.264,324.248 L85.264,323.96 L83.04,323.96 L83.04,324.248 C83.3066667,324.248 83.44,324.328 83.44,324.488 L83.44,324.488 L83.44,328.152 C83.44,328.664 83.2533333,329.074667 82.88,329.384 C82.5066667,329.693333 81.936,329.848 81.168,329.848 C80.4,329.848 79.8293333,329.693333 79.456,329.384 C79.0826667,329.074667 78.896,328.664 78.896,328.152 L78.896,328.152 L78.896,324.488 C78.896,324.328 79.0133333,324.248 79.248,324.248 L79.248,324.248 L79.248,323.96 L76.96,323.96 L76.96,324.248 C77.1413333,324.248 77.264,324.266667 77.328,324.304 C77.392,324.341333 77.424,324.402667 77.424,324.488 L77.424,324.488 L77.424,328.536 C77.424,328.866667 77.4986667,329.184 77.648,329.488 C77.7973333,329.792 78.024,330.061333 78.328,330.296 C78.632,330.530667 79.0213333,330.714667 79.496,330.848 C79.9706667,330.981333 80.528,331.048 81.168,331.048 Z M89.824,331 L89.824,330.712 C89.76,330.712 89.6933333,330.693333 89.624,330.656 C89.5546667,330.618667 89.52,330.557333 89.52,330.472 L89.52,330.472 L89.52,328.184 L91.744,328.184 L93.008,330.072 C93.168,330.296 93.248,330.461333 93.248,330.568 C93.248,330.664 93.1786667,330.712 93.04,330.712 L93.04,330.712 L93.04,331 L95.488,331 L95.488,330.712 C95.3706667,330.68 95.2613333,330.634667 95.16,330.576 C95.0586667,330.517333 94.9653333,330.429333 94.88,330.312 L94.88,330.312 L93.312,328.024 C93.536,327.970667 93.7546667,327.893333 93.968,327.792 C94.1813333,327.690667 94.376,327.557333 94.552,327.392 C94.728,327.226667 94.8693333,327.032 94.976,326.808 C95.0826667,326.584 95.136,326.328 95.136,326.04 C95.136,325.282667 94.8693333,324.746667 94.336,324.432 C93.8026667,324.117333 93.0613333,323.96 92.112,323.96 L92.112,323.96 L87.696,323.96 L87.696,324.248 C87.888,324.248 87.984,324.328 87.984,324.488 L87.984,324.488 L87.984,330.472 C87.984,330.632 87.888,330.712 87.696,330.712 L87.696,330.712 L87.696,331 L89.824,331 Z M92.08,327 L89.552,327 L89.552,325.144 L92.08,325.144 C92.624,325.144 93.0213333,325.221333 93.272,325.376 C93.5226667,325.530667 93.648,325.741333 93.648,326.008 C93.648,326.669333 93.1253333,327 92.08,327 L92.08,327 Z M104.144,331.176 L104.144,329.496 L103.856,329.496 C103.856,329.592 103.813333,329.669333 103.728,329.728 C103.642667,329.786667 103.536,329.816 103.408,329.816 L103.408,329.816 L99.312,329.816 L99.312,327.928 L101.648,327.928 C101.861333,327.928 102.026667,327.941333 102.144,327.968 C102.261333,327.994667 102.304,328.066667 102.272,328.184 L102.272,328.184 L102.592,328.184 L102.592,326.488 L102.304,326.488 C102.304,326.605333 102.261333,326.677333 102.176,326.704 C102.090667,326.730667 101.957333,326.744 101.776,326.744 L101.776,326.744 L99.312,326.744 L99.312,325.144 L103.216,325.144 C103.546667,325.144 103.712,325.245333 103.712,325.448 L103.712,325.448 L104,325.448 L104,323.672 L103.712,323.672 C103.712,323.864 103.546667,323.96 103.216,323.96 L103.216,323.96 L97.536,323.96 L97.536,324.248 C97.5893333,324.248 97.6426667,324.266667 97.696,324.304 C97.7493333,324.341333 97.776,324.402667 97.776,324.488 L97.776,324.488 L97.776,330.472 C97.776,330.557333 97.7493333,330.618667 97.696,330.656 C97.6426667,330.693333 97.5893333,330.712 97.536,330.712 L97.536,330.712 L97.536,331 L103.408,331 C103.536,331 103.642667,331.005333 103.728,331.016 C103.813333,331.026667 103.856,331.08 103.856,331.176 L103.856,331.176 L104.144,331.176 Z M115.168,331.048 C115.605333,331.048 116.077333,331.013333 116.584,330.944 C117.090667,330.874667 117.562667,330.738667 118,330.536 C118.437333,330.333333 118.802667,330.056 119.096,329.704 C119.389333,329.352 119.536,328.898667 119.536,328.344 C119.536,327.864 119.442667,327.474667 119.256,327.176 C119.069333,326.877333 118.824,326.64 118.52,326.464 C118.216,326.288 117.869333,326.16 117.48,326.08 C117.090667,326 116.693333,325.944 116.288,325.912 C115.882667,325.88 115.485333,325.853333 115.096,325.832 C114.706667,325.810667 114.36,325.768 114.056,325.704 C113.752,325.64 113.506667,325.544 113.32,325.416 C113.133333,325.288 113.04,325.096 113.04,324.84 C113.04,324.658667 113.106667,324.506667 113.24,324.384 C113.373333,324.261333 113.541333,324.162667 113.744,324.088 C113.946667,324.013333 114.173333,323.957333 114.424,323.92 C114.674667,323.882667 114.917333,323.864 115.152,323.864 C115.461333,323.864 115.770667,323.893333 116.08,323.952 C116.389333,324.010667 116.677333,324.088 116.944,324.184 C117.210667,324.28 117.442667,324.389333 117.64,324.512 C117.837333,324.634667 117.978667,324.76 118.064,324.888 C118.128,324.984 118.170667,325.106667 118.192,325.256 L118.192,325.256 L118.352,325.32 L119.456,323.32 L119.264,323.192 C119.2,323.256 119.093333,323.288 118.944,323.288 C118.805333,323.288 118.632,323.245333 118.424,323.16 C118.216,323.074667 117.96,322.984 117.656,322.888 C117.352,322.792 116.992,322.701333 116.576,322.616 C116.16,322.530667 115.669333,322.488 115.104,322.488 C114.442667,322.488 113.866667,322.565333 113.376,322.72 C112.885333,322.874667 112.48,323.074667 112.16,323.32 C111.84,323.565333 111.602667,323.848 111.448,324.168 C111.293333,324.488 111.216,324.813333 111.216,325.144 C111.216,325.634667 111.309333,326.032 111.496,326.336 C111.682667,326.64 111.928,326.88 112.232,327.056 C112.536,327.232 112.882667,327.357333 113.272,327.432 C113.661333,327.506667 114.058667,327.56 114.464,327.592 C114.869333,327.624 115.266667,327.648 115.656,327.664 C116.045333,327.68 116.392,327.714667 116.696,327.768 C117,327.821333 117.245333,327.906667 117.432,328.024 C117.618667,328.141333 117.712,328.322667 117.712,328.568 C117.712,328.813333 117.610667,329.010667 117.408,329.16 C117.205333,329.309333 116.965333,329.426667 116.688,329.512 C116.410667,329.597333 116.128,329.653333 115.84,329.68 C115.552,329.706667 115.317333,329.72 115.136,329.72 C114.890667,329.72 114.613333,329.690667 114.304,329.632 C113.994667,329.573333 113.698667,329.496 113.416,329.4 C113.133333,329.304 112.882667,329.194667 112.664,329.072 C112.445333,328.949333 112.298667,328.824 112.224,328.696 C112.181333,328.621333 112.16,328.536 112.16,328.44 L112.16,328.44 L112,328.36 L111.12,330.296 L111.344,330.424 C111.408,330.338667 111.477333,330.296 111.552,330.296 C111.669333,330.296 111.808,330.336 111.968,330.416 C112.128,330.496 112.344,330.586667 112.616,330.688 C112.888,330.789333 113.229333,330.874667 113.64,330.944 C114.050667,331.013333 114.56,331.048 115.168,331.048 Z M126.192,331 L126.192,330.712 C125.989333,330.712 125.888,330.632 125.888,330.472 L125.888,330.472 L125.888,328.072 L128.336,324.904 C128.453333,324.754667 128.589333,324.608 128.744,324.464 C128.898667,324.32 129.04,324.248 129.168,324.248 L129.168,324.248 L129.168,323.96 L126.72,323.96 L126.72,324.248 C126.773333,324.248 126.826667,324.258667 126.88,324.28 C126.933333,324.301333 126.96,324.354667 126.96,324.44 C126.96,324.504 126.936,324.570667 126.888,324.64 C126.84,324.709333 126.768,324.813333 126.672,324.952 L126.672,324.952 L125.248,326.936 L123.632,324.824 C123.578667,324.749333 123.530667,324.685333 123.488,324.632 C123.445333,324.578667 123.424,324.52 123.424,324.456 C123.424,324.392 123.456,324.341333 123.52,324.304 C123.584,324.266667 123.642667,324.248 123.696,324.248 L123.696,324.248 L123.696,323.96 L121.056,323.96 L121.056,324.248 C121.152,324.248 121.253333,324.269333 121.36,324.312 C121.466667,324.354667 121.557333,324.424 121.632,324.52 L121.632,324.52 L124.352,328.008 L124.352,330.472 C124.352,330.632 124.256,330.712 124.064,330.712 L124.064,330.712 L124.064,331 L126.192,331 Z M132.864,331 L132.864,330.712 C132.682667,330.712 132.592,330.632 132.592,330.472 L132.592,330.472 L132.592,325.976 L132.608,325.976 L135.184,331 L135.312,331 L138.032,325.976 L138.064,325.976 L138.064,330.472 C138.096,330.632 138,330.712 137.776,330.712 L137.776,330.712 L137.776,331 L139.632,331 L139.632,330.712 C139.578667,330.712 139.528,330.693333 139.48,330.656 C139.432,330.618667 139.408,330.557333 139.408,330.472 L139.408,330.472 L139.408,324.456 C139.408,324.370667 139.432,324.314667 139.48,324.288 C139.528,324.261333 139.578667,324.248 139.632,324.248 L139.632,324.248 L139.632,323.96 L137.376,323.96 L137.376,324.248 C137.461333,324.248 137.504,324.296 137.504,324.392 C137.504,324.424 137.482667,324.48 137.44,324.56 C137.397333,324.64 137.338667,324.744 137.264,324.872 L137.264,324.872 L135.296,328.456 L133.344,324.856 C133.269333,324.728 133.213333,324.629333 133.176,324.56 C133.138667,324.490667 133.12,324.434667 133.12,324.392 C133.12,324.296 133.173333,324.248 133.28,324.248 L133.28,324.248 L133.28,323.96 L131.056,323.96 L131.056,324.248 C131.130667,324.248 131.181333,324.264 131.208,324.296 C131.234667,324.328 131.248,324.418667 131.248,324.568 L131.248,324.568 L131.248,330.424 C131.248,330.541333 131.229333,330.616 131.192,330.648 C131.154667,330.68 131.109333,330.701333 131.056,330.712 L131.056,330.712 L131.056,331 L132.864,331 Z M144.464,331 L144.464,330.712 C144.24,330.712 144.128,330.632 144.128,330.472 L144.128,330.472 L144.128,328.072 L146.848,328.072 C147.712,328.072 148.36,327.925333 148.792,327.632 C149.224,327.338667 149.44,326.808 149.44,326.04 C149.44,325.272 149.224,324.733333 148.792,324.424 C148.36,324.114667 147.712,323.96 146.848,323.96 L146.848,323.96 L142.192,323.96 L142.192,324.248 C142.458667,324.248 142.592,324.328 142.592,324.488 L142.592,324.488 L142.592,330.472 C142.592,330.632 142.458667,330.712 142.192,330.712 L142.192,330.712 L142.192,331 L144.464,331 Z M146.816,326.888 L144.128,326.888 L144.128,325.144 L146.816,325.144 C147.125333,325.144 147.384,325.210667 147.592,325.344 C147.8,325.477333 147.904,325.709333 147.904,326.04 C147.904,326.381333 147.8,326.608 147.592,326.72 C147.384,326.832 147.125333,326.888 146.816,326.888 L146.816,326.888 Z M155.072,331 L155.072,330.712 C154.88,330.712 154.784,330.632 154.784,330.472 L154.784,330.472 L154.784,325.144 L156.864,325.144 C156.949333,325.144 157.029333,325.165333 157.104,325.208 C157.178667,325.250667 157.216,325.32 157.216,325.416 L157.216,325.416 L157.504,325.416 L157.504,323.576 L157.216,323.576 C157.216,323.725333 157.178667,323.826667 157.104,323.88 C157.029333,323.933333 156.949333,323.96 156.864,323.96 L156.864,323.96 L151.168,323.96 C151.082667,323.96 151.002667,323.933333 150.928,323.88 C150.853333,323.826667 150.816,323.725333 150.816,323.576 L150.816,323.576 L150.528,323.576 L150.528,325.416 L150.816,325.416 C150.816,325.32 150.853333,325.250667 150.928,325.208 C151.002667,325.165333 151.082667,325.144 151.168,325.144 L151.168,325.144 L153.248,325.144 L153.248,330.472 C153.248,330.557333 153.221333,330.618667 153.168,330.656 C153.114667,330.693333 153.061333,330.712 153.008,330.712 L153.008,330.712 L153.008,331 L155.072,331 Z M162.896,331.048 C163.482667,331.048 164.034667,330.981333 164.552,330.848 C165.069333,330.714667 165.52,330.498667 165.904,330.2 C166.288,329.901333 166.592,329.525333 166.816,329.072 C167.04,328.618667 167.152,328.088 167.152,327.48 C167.152,326.872 167.04,326.341333 166.816,325.888 C166.592,325.434667 166.288,325.058667 165.904,324.76 C165.52,324.461333 165.069333,324.237333 164.552,324.088 C164.034667,323.938667 163.482667,323.864 162.896,323.864 C162.309333,323.864 161.757333,323.938667 161.24,324.088 C160.722667,324.237333 160.272,324.461333 159.888,324.76 C159.504,325.058667 159.2,325.434667 158.976,325.888 C158.752,326.341333 158.64,326.872 158.64,327.48 C158.64,328.088 158.752,328.618667 158.976,329.072 C159.2,329.525333 159.504,329.901333 159.888,330.2 C160.272,330.498667 160.722667,330.714667 161.24,330.848 C161.757333,330.981333 162.309333,331.048 162.896,331.048 Z M162.896,329.912 C162.554667,329.912 162.221333,329.856 161.896,329.744 C161.570667,329.632 161.28,329.472 161.024,329.264 C160.768,329.056 160.562667,328.802667 160.408,328.504 C160.253333,328.205333 160.176,327.864 160.176,327.48 C160.176,327.096 160.253333,326.754667 160.408,326.456 C160.562667,326.157333 160.768,325.904 161.024,325.696 C161.28,325.488 161.570667,325.328 161.896,325.216 C162.221333,325.104 162.554667,325.048 162.896,325.048 C163.237333,325.048 163.570667,325.104 163.896,325.216 C164.221333,325.328 164.512,325.488 164.768,325.696 C165.024,325.904 165.229333,326.157333 165.384,326.456 C165.538667,326.754667 165.616,327.096 165.616,327.48 C165.616,327.864 165.538667,328.205333 165.384,328.504 C165.229333,328.802667 165.024,329.056 164.768,329.264 C164.512,329.472 164.221333,329.632 163.896,329.744 C163.570667,329.856 163.237333,329.912 162.896,329.912 Z M171.088,331 L171.088,330.712 C170.906667,330.712 170.816,330.632 170.816,330.472 L170.816,330.472 L170.816,325.976 L170.832,325.976 L173.408,331 L173.536,331 L176.256,325.976 L176.288,325.976 L176.288,330.472 C176.32,330.632 176.224,330.712 176,330.712 L176,330.712 L176,331 L177.856,331 L177.856,330.712 C177.802667,330.712 177.752,330.693333 177.704,330.656 C177.656,330.618667 177.632,330.557333 177.632,330.472 L177.632,330.472 L177.632,324.456 C177.632,324.370667 177.656,324.314667 177.704,324.288 C177.752,324.261333 177.802667,324.248 177.856,324.248 L177.856,324.248 L177.856,323.96 L175.6,323.96 L175.6,324.248 C175.685333,324.248 175.728,324.296 175.728,324.392 C175.728,324.424 175.706667,324.48 175.664,324.56 C175.621333,324.64 175.562667,324.744 175.488,324.872 L175.488,324.872 L173.52,328.456 L171.568,324.856 C171.493333,324.728 171.437333,324.629333 171.4,324.56 C171.362667,324.490667 171.344,324.434667 171.344,324.392 C171.344,324.296 171.397333,324.248 171.504,324.248 L171.504,324.248 L171.504,323.96 L169.28,323.96 L169.28,324.248 C169.354667,324.248 169.405333,324.264 169.432,324.296 C169.458667,324.328 169.472,324.418667 169.472,324.568 L169.472,324.568 L169.472,330.424 C169.472,330.541333 169.453333,330.616 169.416,330.648 C169.378667,330.68 169.333333,330.701333 169.28,330.712 L169.28,330.712 L169.28,331 L171.088,331 Z M183.664,331.048 C184.026667,331.048 184.413333,331.021333 184.824,330.968 C185.234667,330.914667 185.610667,330.802667 185.952,330.632 C186.293333,330.461333 186.578667,330.226667 186.808,329.928 C187.037333,329.629333 187.152,329.245333 187.152,328.776 C187.152,328.306667 187.021333,327.938667 186.76,327.672 C186.498667,327.405333 186.170667,327.202667 185.776,327.064 C185.381333,326.925333 184.954667,326.826667 184.496,326.768 C184.037333,326.709333 183.610667,326.650667 183.216,326.592 C182.821333,326.533333 182.493333,326.453333 182.232,326.352 C181.970667,326.250667 181.84,326.082667 181.84,325.848 C181.84,325.698667 181.882667,325.573333 181.968,325.472 C182.053333,325.370667 182.170667,325.288 182.32,325.224 C182.469333,325.16 182.64,325.114667 182.832,325.088 C183.024,325.061333 183.226667,325.048 183.44,325.048 C183.994667,325.048 184.496,325.112 184.944,325.24 C185.392,325.368 185.722667,325.522667 185.936,325.704 C186.021333,325.768 186.069333,325.832 186.08,325.896 C186.090667,325.96 186.101333,326.024 186.112,326.088 L186.112,326.088 L186.4,326.184 L187.2,324.68 L187.024,324.504 C186.96,324.536 186.906667,324.565333 186.864,324.592 C186.821333,324.618667 186.757333,324.632 186.672,324.632 C186.597333,324.632 186.482667,324.592 186.328,324.512 C186.173333,324.432 185.973333,324.344 185.728,324.248 C185.482667,324.152 185.181333,324.064 184.824,323.984 C184.466667,323.904 184.037333,323.864 183.536,323.864 C182.512,323.864 181.717333,324.066667 181.152,324.472 C180.586667,324.877333 180.304,325.421333 180.304,326.104 C180.304,326.562667 180.434667,326.917333 180.696,327.168 C180.957333,327.418667 181.285333,327.610667 181.68,327.744 C182.074667,327.877333 182.501333,327.973333 182.96,328.032 C183.418667,328.090667 183.845333,328.149333 184.24,328.208 C184.634667,328.266667 184.962667,328.349333 185.224,328.456 C185.485333,328.562667 185.616,328.733333 185.616,328.968 C185.616,329.170667 185.541333,329.333333 185.392,329.456 C185.242667,329.578667 185.061333,329.674667 184.848,329.744 C184.634667,329.813333 184.418667,329.858667 184.2,329.88 C183.981333,329.901333 183.797333,329.912 183.648,329.912 C183.488,329.912 183.266667,329.885333 182.984,329.832 C182.701333,329.778667 182.418667,329.706667 182.136,329.616 C181.853333,329.525333 181.610667,329.413333 181.408,329.28 C181.205333,329.146667 181.104,329 181.104,328.84 C181.104,328.786667 181.106667,328.736 181.112,328.688 C181.117333,328.64 181.12,328.594667 181.12,328.552 L181.12,328.552 L180.816,328.472 L180.08,330.264 L180.304,330.424 C180.357333,330.36 180.421333,330.328 180.496,330.328 C180.538667,330.328 180.661333,330.368 180.864,330.448 C181.066667,330.528 181.314667,330.613333 181.608,330.704 C181.901333,330.794667 182.226667,330.874667 182.584,330.944 C182.941333,331.013333 183.301333,331.048 183.664,331.048 Z M190.672,331.048 C190.981333,331.048 191.248,330.944 191.472,330.736 C191.696,330.528 191.808,330.269333 191.808,329.96 C191.808,329.650667 191.696,329.384 191.472,329.16 C191.248,328.936 190.981333,328.824 190.672,328.824 C190.362667,328.824 190.096,328.936 189.872,329.16 C189.648,329.384 189.536,329.650667 189.536,329.96 C189.536,330.269333 189.648,330.528 189.872,330.736 C190.096,330.944 190.362667,331.048 190.672,331.048 Z" id="YourejustgonnawaitthisoneoutKeepinfrontofyoutocureSymptoms." fill="#000000" fill-rule="nonzero"></path>
    </g>
</svg>