<?xml version="1.0" encoding="UTF-8"?>
<svg width="262px" height="360px" viewBox="0 0 262 360" version="1.1" xmlns="http://www.w3.org/2000/svg" xmlns:xlink="http://www.w3.org/1999/xlink">
    <title>Coughy Filter</title>
    <g id="Coughy-Filter" stroke="none" stroke-width="1" fill="none" fill-rule="evenodd">
        <g id="Group" transform="translate(9.000000, 9.000000)" fill="#FFFFFF" stroke="#000000" stroke-width="3">
            <g id="Rectangle">
                <rect x="1.5" y="1.5" width="239" height="337" rx="8"></rect>
            </g>
        </g>
        <path d="M46.472,299 L46.472,298.712 C46.1306667,298.712 45.96,298.616 45.96,298.424 L45.96,298.424 L45.96,295.576 L49.176,295.576 C50.2,295.576 51.0053333,295.386667 51.592,295.008 C52.1786667,294.629333 52.472,293.986667 52.472,293.08 C52.472,292.173333 52.1786667,291.530667 51.592,291.152 C51.0053333,290.773333 50.2,290.584 49.176,290.584 L49.176,290.584 L43.544,290.584 L43.544,290.872 C43.9386667,290.872 44.136,290.968 44.136,291.16 L44.136,291.16 L44.136,298.424 C44.136,298.616 43.9386667,298.712 43.544,298.712 L43.544,298.712 L43.544,299 L46.472,299 Z M49.368,294.104 L45.96,294.104 L45.96,292.056 L49.368,292.056 C49.72,292.056 50.0213333,292.125333 50.272,292.264 C50.5226667,292.402667 50.648,292.674667 50.648,293.08 C50.648,293.485333 50.5226667,293.757333 50.272,293.896 C50.0213333,294.034667 49.72,294.104 49.368,294.104 L49.368,294.104 Z M57.88,299.048 C58.4666667,299.048 59.0186667,298.981333 59.536,298.848 C60.0533333,298.714667 60.504,298.498667 60.888,298.2 C61.272,297.901333 61.576,297.525333 61.8,297.072 C62.024,296.618667 62.136,296.088 62.136,295.48 C62.136,294.872 62.024,294.341333 61.8,293.888 C61.576,293.434667 61.272,293.058667 60.888,292.76 C60.504,292.461333 60.0533333,292.237333 59.536,292.088 C59.0186667,291.938667 58.4666667,291.864 57.88,291.864 C57.2933333,291.864 56.7413333,291.938667 56.224,292.088 C55.7066667,292.237333 55.256,292.461333 54.872,292.76 C54.488,293.058667 54.184,293.434667 53.96,293.888 C53.736,294.341333 53.624,294.872 53.624,295.48 C53.624,296.088 53.736,296.618667 53.96,297.072 C54.184,297.525333 54.488,297.901333 54.872,298.2 C55.256,298.498667 55.7066667,298.714667 56.224,298.848 C56.7413333,298.981333 57.2933333,299.048 57.88,299.048 Z M57.88,297.912 C57.5386667,297.912 57.2053333,297.856 56.88,297.744 C56.5546667,297.632 56.264,297.472 56.008,297.264 C55.752,297.056 55.5466667,296.802667 55.392,296.504 C55.2373333,296.205333 55.16,295.864 55.16,295.48 C55.16,295.096 55.2373333,294.754667 55.392,294.456 C55.5466667,294.157333 55.752,293.904 56.008,293.696 C56.264,293.488 56.5546667,293.328 56.88,293.216 C57.2053333,293.104 57.5386667,293.048 57.88,293.048 C58.2213333,293.048 58.5546667,293.104 58.88,293.216 C59.2053333,293.328 59.496,293.488 59.752,293.696 C60.008,293.904 60.2133333,294.157333 60.368,294.456 C60.5226667,294.754667 60.6,295.096 60.6,295.48 C60.6,295.864 60.5226667,296.205333 60.368,296.504 C60.2133333,296.802667 60.008,297.056 59.752,297.264 C59.496,297.472 59.2053333,297.632 58.88,297.744 C58.5546667,297.856 58.2213333,297.912 57.88,297.912 Z M66.648,299 L66.648,298.712 C66.3493333,298.712 66.2,298.632 66.2,298.472 L66.2,298.472 L66.2,292.488 C66.2,292.328 66.3493333,292.248 66.648,292.248 L66.648,292.248 L66.648,291.96 L64.216,291.96 L64.216,292.248 C64.3866667,292.248 64.504,292.266667 64.568,292.304 C64.632,292.341333 64.664,292.402667 64.664,292.488 L64.664,292.488 L64.664,298.472 C64.664,298.557333 64.632,298.618667 64.568,298.656 C64.504,298.693333 64.3866667,298.712 64.216,298.712 L64.216,298.712 L64.216,299 L66.648,299 Z M71.368,299 L71.368,298.712 C71.144,298.712 71.032,298.632 71.032,298.472 L71.032,298.472 L71.032,293.816 L75,298.04 C75.128,298.178667 75.2426667,298.301333 75.344,298.408 C75.4453333,298.514667 75.496,298.589333 75.496,298.632 C75.496,298.685333 75.4586667,298.712 75.384,298.712 L75.384,298.712 L75.384,299 L77.464,299 L77.464,298.712 C77.272,298.712 77.176,298.632 77.176,298.472 L77.176,298.472 L77.176,292.488 C77.176,292.328 77.272,292.248 77.464,292.248 L77.464,292.248 L77.464,291.96 L75.512,291.96 L75.512,292.248 C75.7253333,292.248 75.832,292.328 75.832,292.488 L75.832,292.488 L75.832,296.824 L71.992,292.76 C71.7573333,292.525333 71.64,292.381333 71.64,292.328 C71.64,292.285333 71.6773333,292.258667 71.752,292.248 L71.752,292.248 L71.752,291.96 L69.4,291.96 L69.4,292.248 C69.592,292.248 69.688,292.328 69.688,292.488 L69.688,292.488 L69.688,298.472 C69.688,298.632 69.592,298.712 69.4,298.712 L69.4,298.712 L69.4,299 L71.368,299 Z M83.832,299 L83.832,298.712 C83.64,298.712 83.544,298.632 83.544,298.472 L83.544,298.472 L83.544,293.144 L85.624,293.144 C85.7093333,293.144 85.7893333,293.165333 85.864,293.208 C85.9386667,293.250667 85.976,293.32 85.976,293.416 L85.976,293.416 L86.264,293.416 L86.264,291.576 L85.976,291.576 C85.976,291.725333 85.9386667,291.826667 85.864,291.88 C85.7893333,291.933333 85.7093333,291.96 85.624,291.96 L85.624,291.96 L79.928,291.96 C79.8426667,291.96 79.7626667,291.933333 79.688,291.88 C79.6133333,291.826667 79.576,291.725333 79.576,291.576 L79.576,291.576 L79.288,291.576 L79.288,293.416 L79.576,293.416 C79.576,293.32 79.6133333,293.250667 79.688,293.208 C79.7626667,293.165333 79.8426667,293.144 79.928,293.144 L79.928,293.144 L82.008,293.144 L82.008,298.472 C82.008,298.557333 81.9813333,298.618667 81.928,298.656 C81.8746667,298.693333 81.8213333,298.712 81.768,298.712 L81.768,298.712 L81.768,299 L83.832,299 Z M91.096,299.048 C91.4586667,299.048 91.8453333,299.021333 92.256,298.968 C92.6666667,298.914667 93.0426667,298.802667 93.384,298.632 C93.7253333,298.461333 94.0106667,298.226667 94.24,297.928 C94.4693333,297.629333 94.584,297.245333 94.584,296.776 C94.584,296.306667 94.4533333,295.938667 94.192,295.672 C93.9306667,295.405333 93.6026667,295.202667 93.208,295.064 C92.8133333,294.925333 92.3866667,294.826667 91.928,294.768 C91.4693333,294.709333 91.0426667,294.650667 90.648,294.592 C90.2533333,294.533333 89.9253333,294.453333 89.664,294.352 C89.4026667,294.250667 89.272,294.082667 89.272,293.848 C89.272,293.698667 89.3146667,293.573333 89.4,293.472 C89.4853333,293.370667 89.6026667,293.288 89.752,293.224 C89.9013333,293.16 90.072,293.114667 90.264,293.088 C90.456,293.061333 90.6586667,293.048 90.872,293.048 C91.4266667,293.048 91.928,293.112 92.376,293.24 C92.824,293.368 93.1546667,293.522667 93.368,293.704 C93.4533333,293.768 93.5013333,293.832 93.512,293.896 L93.512,293.896 L93.544,294.088 L93.832,294.184 L94.632,292.68 L94.456,292.504 C94.392,292.536 94.3386667,292.565333 94.296,292.592 C94.2533333,292.618667 94.1893333,292.632 94.104,292.632 C94.0293333,292.632 93.9146667,292.592 93.76,292.512 C93.6053333,292.432 93.4053333,292.344 93.16,292.248 C92.9146667,292.152 92.6133333,292.064 92.256,291.984 C91.8986667,291.904 91.4693333,291.864 90.968,291.864 C89.944,291.864 89.1493333,292.066667 88.584,292.472 C88.0186667,292.877333 87.736,293.421333 87.736,294.104 C87.736,294.562667 87.8666667,294.917333 88.128,295.168 C88.3893333,295.418667 88.7173333,295.610667 89.112,295.744 C89.5066667,295.877333 89.9333333,295.973333 90.392,296.032 C90.8506667,296.090667 91.2773333,296.149333 91.672,296.208 C92.0666667,296.266667 92.3946667,296.349333 92.656,296.456 C92.9173333,296.562667 93.048,296.733333 93.048,296.968 C93.048,297.170667 92.9733333,297.333333 92.824,297.456 C92.6746667,297.578667 92.4933333,297.674667 92.28,297.744 C92.0666667,297.813333 91.8506667,297.858667 91.632,297.88 C91.4133333,297.901333 91.2293333,297.912 91.08,297.912 C90.92,297.912 90.6986667,297.885333 90.416,297.832 C90.1333333,297.778667 89.8506667,297.706667 89.568,297.616 C89.2853333,297.525333 89.0426667,297.413333 88.84,297.28 C88.6373333,297.146667 88.536,297 88.536,296.84 C88.536,296.786667 88.5386667,296.736 88.544,296.688 C88.5493333,296.64 88.552,296.594667 88.552,296.552 L88.552,296.552 L88.248,296.472 L87.512,298.264 L87.736,298.424 C87.7893333,298.36 87.8533333,298.328 87.928,298.328 C87.9706667,298.328 88.0933333,298.368 88.296,298.448 C88.4986667,298.528 88.7466667,298.613333 89.04,298.704 C89.3333333,298.794667 89.6586667,298.874667 90.016,298.944 C90.3733333,299.013333 90.7333333,299.048 91.096,299.048 Z M103.992,299 L103.992,298.712 C103.896,298.712 103.810667,298.693333 103.736,298.656 C103.661333,298.618667 103.624,298.557333 103.624,298.472 L103.624,298.472 L103.624,296.024 L106.44,296.024 C106.621333,296.024 106.733333,296.045333 106.776,296.088 C106.818667,296.130667 106.845333,296.194667 106.856,296.28 L106.856,296.28 L107.144,296.28 L107.144,294.6 L106.856,294.6 C106.845333,294.685333 106.818667,294.746667 106.776,294.784 C106.733333,294.821333 106.621333,294.84 106.44,294.84 L106.44,294.84 L103.624,294.84 L103.624,293.144 L107.96,293.144 C108.141333,293.144 108.269333,293.168 108.344,293.216 C108.418667,293.264 108.456,293.314667 108.456,293.368 L108.456,293.368 L108.744,293.368 L108.744,291.672 L108.456,291.672 C108.456,291.757333 108.418667,291.826667 108.344,291.88 C108.269333,291.933333 108.141333,291.96 107.96,291.96 L107.96,291.96 L101.752,291.96 L101.752,292.248 C101.976,292.248 102.088,292.328 102.088,292.488 L102.088,292.488 L102.088,298.472 C102.088,298.632 101.986667,298.712 101.784,298.712 L101.784,298.712 L101.784,299 L103.992,299 Z M114.328,299.048 C114.914667,299.048 115.466667,298.981333 115.984,298.848 C116.501333,298.714667 116.952,298.498667 117.336,298.2 C117.72,297.901333 118.024,297.525333 118.248,297.072 C118.472,296.618667 118.584,296.088 118.584,295.48 C118.584,294.872 118.472,294.341333 118.248,293.888 C118.024,293.434667 117.72,293.058667 117.336,292.76 C116.952,292.461333 116.501333,292.237333 115.984,292.088 C115.466667,291.938667 114.914667,291.864 114.328,291.864 C113.741333,291.864 113.189333,291.938667 112.672,292.088 C112.154667,292.237333 111.704,292.461333 111.32,292.76 C110.936,293.058667 110.632,293.434667 110.408,293.888 C110.184,294.341333 110.072,294.872 110.072,295.48 C110.072,296.088 110.184,296.618667 110.408,297.072 C110.632,297.525333 110.936,297.901333 111.32,298.2 C111.704,298.498667 112.154667,298.714667 112.672,298.848 C113.189333,298.981333 113.741333,299.048 114.328,299.048 Z M114.328,297.912 C113.986667,297.912 113.653333,297.856 113.328,297.744 C113.002667,297.632 112.712,297.472 112.456,297.264 C112.2,297.056 111.994667,296.802667 111.84,296.504 C111.685333,296.205333 111.608,295.864 111.608,295.48 C111.608,295.096 111.685333,294.754667 111.84,294.456 C111.994667,294.157333 112.2,293.904 112.456,293.696 C112.712,293.488 113.002667,293.328 113.328,293.216 C113.653333,293.104 113.986667,293.048 114.328,293.048 C114.669333,293.048 115.002667,293.104 115.328,293.216 C115.653333,293.328 115.944,293.488 116.2,293.696 C116.456,293.904 116.661333,294.157333 116.816,294.456 C116.970667,294.754667 117.048,295.096 117.048,295.48 C117.048,295.864 116.970667,296.205333 116.816,296.504 C116.661333,296.802667 116.456,297.056 116.2,297.264 C115.944,297.472 115.653333,297.632 115.328,297.744 C115.002667,297.856 114.669333,297.912 114.328,297.912 Z M122.6,299 L122.6,298.712 C122.536,298.712 122.469333,298.693333 122.4,298.656 C122.330667,298.618667 122.296,298.557333 122.296,298.472 L122.296,298.472 L122.296,296.184 L124.52,296.184 L125.784,298.072 C125.944,298.296 126.024,298.461333 126.024,298.568 C126.024,298.664 125.954667,298.712 125.816,298.712 L125.816,298.712 L125.816,299 L128.264,299 L128.264,298.712 C128.146667,298.68 128.037333,298.634667 127.936,298.576 C127.834667,298.517333 127.741333,298.429333 127.656,298.312 L127.656,298.312 L126.088,296.024 C126.312,295.970667 126.530667,295.893333 126.744,295.792 C126.957333,295.690667 127.152,295.557333 127.328,295.392 C127.504,295.226667 127.645333,295.032 127.752,294.808 C127.858667,294.584 127.912,294.328 127.912,294.04 C127.912,293.282667 127.645333,292.746667 127.112,292.432 C126.578667,292.117333 125.837333,291.96 124.888,291.96 L124.888,291.96 L120.472,291.96 L120.472,292.248 C120.664,292.248 120.76,292.328 120.76,292.488 L120.76,292.488 L120.76,298.472 C120.76,298.632 120.664,298.712 120.472,298.712 L120.472,298.712 L120.472,299 L122.6,299 Z M124.856,295 L122.328,295 L122.328,293.144 L124.856,293.144 C125.4,293.144 125.797333,293.221333 126.048,293.376 C126.298667,293.530667 126.424,293.741333 126.424,294.008 C126.424,294.669333 125.901333,295 124.856,295 L124.856,295 Z M138.392,299.048 C138.872,299.048 139.306667,299.005333 139.696,298.92 C140.085333,298.834667 140.426667,298.730667 140.72,298.608 C141.013333,298.485333 141.256,298.376 141.448,298.28 C141.64,298.184 141.778667,298.136 141.864,298.136 C141.917333,298.136 142.008,298.162667 142.136,298.216 L142.136,298.216 L142.296,298.136 L141.112,296.44 L140.936,296.6 C140.946667,296.642667 140.952,296.696 140.952,296.76 L140.952,296.76 L140.952,296.888 C140.952,296.984 140.874667,297.090667 140.72,297.208 C140.565333,297.325333 140.365333,297.434667 140.12,297.536 C139.874667,297.637333 139.602667,297.725333 139.304,297.8 C139.005333,297.874667 138.712,297.912 138.424,297.912 C138.114667,297.912 137.810667,297.856 137.512,297.744 C137.213333,297.632 136.946667,297.466667 136.712,297.248 C136.477333,297.029333 136.288,296.768 136.144,296.464 C136,296.16 135.928,295.816 135.928,295.432 C135.928,295.048 135.992,294.706667 136.12,294.408 C136.248,294.109333 136.429333,293.858667 136.664,293.656 C136.898667,293.453333 137.173333,293.301333 137.488,293.2 C137.802667,293.098667 138.152,293.048 138.536,293.048 C138.856,293.048 139.149333,293.077333 139.416,293.136 C139.682667,293.194667 139.914667,293.266667 140.112,293.352 C140.309333,293.437333 140.461333,293.525333 140.568,293.616 C140.674667,293.706667 140.728,293.778667 140.728,293.832 C140.728,293.864 140.730667,293.890667 140.736,293.912 C140.741333,293.933333 140.744,293.954667 140.744,293.976 L140.744,293.976 L140.92,294.104 L141.976,292.584 L141.784,292.472 C141.741333,292.493333 141.701333,292.52 141.664,292.552 C141.626667,292.584 141.581333,292.6 141.528,292.6 C141.453333,292.6 141.330667,292.562667 141.16,292.488 C140.989333,292.413333 140.776,292.328 140.52,292.232 C140.264,292.136 139.968,292.050667 139.632,291.976 C139.296,291.901333 138.925333,291.864 138.52,291.864 C137.997333,291.864 137.488,291.938667 136.992,292.088 C136.496,292.237333 136.056,292.464 135.672,292.768 C135.288,293.072 134.978667,293.448 134.744,293.896 C134.509333,294.344 134.392,294.866667 134.392,295.464 C134.392,296.061333 134.509333,296.586667 134.744,297.04 C134.978667,297.493333 135.282667,297.872 135.656,298.176 C136.029333,298.48 136.456,298.701333 136.936,298.84 C137.416,298.978667 137.901333,299.048 138.392,299.048 Z M146.152,299 L146.152,298.712 C146.088,298.712 146.021333,298.693333 145.952,298.656 C145.882667,298.618667 145.848,298.557333 145.848,298.472 L145.848,298.472 L145.848,296.184 L148.072,296.184 L149.336,298.072 C149.496,298.296 149.576,298.461333 149.576,298.568 C149.576,298.664 149.506667,298.712 149.368,298.712 L149.368,298.712 L149.368,299 L151.816,299 L151.816,298.712 C151.698667,298.68 151.589333,298.634667 151.488,298.576 C151.386667,298.517333 151.293333,298.429333 151.208,298.312 L151.208,298.312 L149.64,296.024 C149.864,295.970667 150.082667,295.893333 150.296,295.792 C150.509333,295.690667 150.704,295.557333 150.88,295.392 C151.056,295.226667 151.197333,295.032 151.304,294.808 C151.410667,294.584 151.464,294.328 151.464,294.04 C151.464,293.282667 151.197333,292.746667 150.664,292.432 C150.130667,292.117333 149.389333,291.96 148.44,291.96 L148.44,291.96 L144.024,291.96 L144.024,292.248 C144.216,292.248 144.312,292.328 144.312,292.488 L144.312,292.488 L144.312,298.472 C144.312,298.632 144.216,298.712 144.024,298.712 L144.024,298.712 L144.024,299 L146.152,299 Z M148.408,295 L145.88,295 L145.88,293.144 L148.408,293.144 C148.952,293.144 149.349333,293.221333 149.6,293.376 C149.850667,293.530667 149.976,293.741333 149.976,294.008 C149.976,294.669333 149.453333,295 148.408,295 L148.408,295 Z M160.472,299.176 L160.472,297.496 L160.184,297.496 C160.184,297.592 160.141333,297.669333 160.056,297.728 C159.970667,297.786667 159.864,297.816 159.736,297.816 L159.736,297.816 L155.64,297.816 L155.64,295.928 L157.976,295.928 C158.189333,295.928 158.354667,295.941333 158.472,295.968 C158.589333,295.994667 158.632,296.066667 158.6,296.184 L158.6,296.184 L158.92,296.184 L158.92,294.488 L158.632,294.488 C158.632,294.605333 158.589333,294.677333 158.504,294.704 C158.418667,294.730667 158.285333,294.744 158.104,294.744 L158.104,294.744 L155.64,294.744 L155.64,293.144 L159.544,293.144 C159.874667,293.144 160.04,293.245333 160.04,293.448 L160.04,293.448 L160.328,293.448 L160.328,291.672 L160.04,291.672 C160.04,291.864 159.874667,291.96 159.544,291.96 L159.544,291.96 L153.864,291.96 L153.864,292.248 C153.917333,292.248 153.970667,292.266667 154.024,292.304 C154.077333,292.341333 154.104,292.402667 154.104,292.488 L154.104,292.488 L154.104,298.472 C154.104,298.557333 154.077333,298.618667 154.024,298.656 C153.970667,298.693333 153.917333,298.712 153.864,298.712 L153.864,298.712 L153.864,299 L159.736,299 C159.864,299 159.970667,299.005333 160.056,299.016 C160.141333,299.026667 160.184,299.08 160.184,299.176 L160.184,299.176 L160.472,299.176 Z M163.832,299 L163.832,298.712 C163.736,298.712 163.661333,298.701333 163.608,298.68 C163.554667,298.658667 163.528,298.605333 163.528,298.52 C163.528,298.466667 163.541333,298.405333 163.568,298.336 C163.594667,298.266667 163.629333,298.189333 163.672,298.104 L163.672,298.104 L164.12,297.24 L167.544,297.24 L167.976,298.152 C168.008,298.237333 168.034667,298.306667 168.056,298.36 C168.077333,298.413333 168.088,298.472 168.088,298.536 C168.088,298.621333 168.058667,298.68 168,298.712 C167.941333,298.744 167.885333,298.76 167.832,298.76 L167.832,298.76 L167.832,299 L170.104,299 L170.104,298.712 C170.029333,298.690667 169.96,298.658667 169.896,298.616 C169.832,298.573333 169.773333,298.504 169.72,298.408 L169.72,298.408 L167.128,292.968 C167.074667,292.850667 167.024,292.746667 166.976,292.656 C166.928,292.565333 166.904,292.488 166.904,292.424 C166.904,292.349333 166.922667,292.306667 166.96,292.296 C166.997333,292.285333 167.032,292.269333 167.064,292.248 L167.064,292.248 L167.064,291.96 L164.648,291.96 L164.648,292.248 C164.68,292.269333 164.709333,292.288 164.736,292.304 C164.762667,292.32 164.776,292.36 164.776,292.424 C164.776,292.509333 164.757333,292.597333 164.72,292.688 C164.682667,292.778667 164.632,292.898667 164.568,293.048 L164.568,293.048 L162.184,298.248 C162.141333,298.333333 162.08,298.426667 162,298.528 C161.92,298.629333 161.816,298.690667 161.688,298.712 L161.688,298.712 L161.688,299 L163.832,299 Z M167.032,296.056 L164.6,296.056 L165.736,293.368 L167.032,296.056 Z M175.4,299 L175.4,298.712 C175.208,298.712 175.112,298.632 175.112,298.472 L175.112,298.472 L175.112,293.144 L177.192,293.144 C177.277333,293.144 177.357333,293.165333 177.432,293.208 C177.506667,293.250667 177.544,293.32 177.544,293.416 L177.544,293.416 L177.832,293.416 L177.832,291.576 L177.544,291.576 C177.544,291.725333 177.506667,291.826667 177.432,291.88 C177.357333,291.933333 177.277333,291.96 177.192,291.96 L177.192,291.96 L171.496,291.96 C171.410667,291.96 171.330667,291.933333 171.256,291.88 C171.181333,291.826667 171.144,291.725333 171.144,291.576 L171.144,291.576 L170.856,291.576 L170.856,293.416 L171.144,293.416 C171.144,293.32 171.181333,293.250667 171.256,293.208 C171.330667,293.165333 171.410667,293.144 171.496,293.144 L171.496,293.144 L173.576,293.144 L173.576,298.472 C173.576,298.557333 173.549333,298.618667 173.496,298.656 C173.442667,298.693333 173.389333,298.712 173.336,298.712 L173.336,298.712 L173.336,299 L175.4,299 Z M182.216,299 L182.216,298.712 C181.917333,298.712 181.768,298.632 181.768,298.472 L181.768,298.472 L181.768,292.488 C181.768,292.328 181.917333,292.248 182.216,292.248 L182.216,292.248 L182.216,291.96 L179.784,291.96 L179.784,292.248 C179.954667,292.248 180.072,292.266667 180.136,292.304 C180.2,292.341333 180.232,292.402667 180.232,292.488 L180.232,292.488 L180.232,298.472 C180.232,298.557333 180.2,298.618667 180.136,298.656 C180.072,298.693333 179.954667,298.712 179.784,298.712 L179.784,298.712 L179.784,299 L182.216,299 Z M189.384,299 L189.384,298.712 C189.192,298.68 189.096,298.632 189.096,298.568 C189.096,298.514667 189.125333,298.44 189.184,298.344 C189.242667,298.248 189.330667,298.061333 189.448,297.784 L189.448,297.784 L191.784,292.616 C191.901333,292.370667 192.034667,292.248 192.184,292.248 L192.184,292.248 L192.184,291.96 L190.088,291.96 L190.088,292.248 C190.237333,292.248 190.317333,292.312 190.328,292.44 C190.338667,292.514667 190.312,292.616 190.248,292.744 C190.184,292.872 190.093333,293.064 189.976,293.32 L189.976,293.32 L188.232,297.192 L186.392,293.208 C186.317333,293.048 186.250667,292.901333 186.192,292.768 C186.133333,292.634667 186.104,292.530667 186.104,292.456 C186.104,292.317333 186.168,292.248 186.296,292.248 L186.296,292.248 L186.296,291.96 L184.04,291.96 L184.04,292.248 C184.104,292.248 184.170667,292.274667 184.24,292.328 C184.309333,292.381333 184.365333,292.456 184.408,292.552 L184.408,292.552 L186.84,297.784 C186.936,297.986667 187.018667,298.146667 187.088,298.264 C187.157333,298.381333 187.192,298.466667 187.192,298.52 C187.192,298.573333 187.168,298.613333 187.12,298.64 C187.072,298.666667 187.021333,298.690667 186.968,298.712 L186.968,298.712 L186.968,299 L189.384,299 Z M196.44,299 L196.44,298.712 C196.141333,298.712 195.992,298.632 195.992,298.472 L195.992,298.472 L195.992,292.488 C195.992,292.328 196.141333,292.248 196.44,292.248 L196.44,292.248 L196.44,291.96 L194.008,291.96 L194.008,292.248 C194.178667,292.248 194.296,292.266667 194.36,292.304 C194.424,292.341333 194.456,292.402667 194.456,292.488 L194.456,292.488 L194.456,298.472 C194.456,298.557333 194.424,298.618667 194.36,298.656 C194.296,298.693333 194.178667,298.712 194.008,298.712 L194.008,298.712 L194.008,299 L196.44,299 Z M202.952,299 L202.952,298.712 C202.76,298.712 202.664,298.632 202.664,298.472 L202.664,298.472 L202.664,293.144 L204.744,293.144 C204.829333,293.144 204.909333,293.165333 204.984,293.208 C205.058667,293.250667 205.096,293.32 205.096,293.416 L205.096,293.416 L205.384,293.416 L205.384,291.576 L205.096,291.576 C205.096,291.725333 205.058667,291.826667 204.984,291.88 C204.909333,291.933333 204.829333,291.96 204.744,291.96 L204.744,291.96 L199.048,291.96 C198.962667,291.96 198.882667,291.933333 198.808,291.88 C198.733333,291.826667 198.696,291.725333 198.696,291.576 L198.696,291.576 L198.408,291.576 L198.408,293.416 L198.696,293.416 C198.696,293.32 198.733333,293.250667 198.808,293.208 C198.882667,293.165333 198.962667,293.144 199.048,293.144 L199.048,293.144 L201.128,293.144 L201.128,298.472 C201.128,298.557333 201.101333,298.618667 201.048,298.656 C200.994667,298.693333 200.941333,298.712 200.888,298.712 L200.888,298.712 L200.888,299 L202.952,299 Z M211.416,299 L211.416,298.712 C211.213333,298.712 211.112,298.632 211.112,298.472 L211.112,298.472 L211.112,296.072 L213.56,292.904 C213.677333,292.754667 213.813333,292.608 213.968,292.464 C214.122667,292.32 214.264,292.248 214.392,292.248 L214.392,292.248 L214.392,291.96 L211.944,291.96 L211.944,292.248 C211.997333,292.248 212.050667,292.258667 212.104,292.28 C212.157333,292.301333 212.184,292.354667 212.184,292.44 C212.184,292.504 212.16,292.570667 212.112,292.64 C212.064,292.709333 211.992,292.813333 211.896,292.952 L211.896,292.952 L210.472,294.936 L208.856,292.824 C208.802667,292.749333 208.754667,292.685333 208.712,292.632 C208.669333,292.578667 208.648,292.52 208.648,292.456 C208.648,292.392 208.68,292.341333 208.744,292.304 C208.808,292.266667 208.866667,292.248 208.92,292.248 L208.92,292.248 L208.92,291.96 L206.28,291.96 L206.28,292.248 C206.376,292.248 206.477333,292.269333 206.584,292.312 C206.690667,292.354667 206.781333,292.424 206.856,292.52 L206.856,292.52 L209.576,296.008 L209.576,298.472 C209.576,298.632 209.48,298.712 209.288,298.712 L209.288,298.712 L209.288,299 L211.416,299 Z M217.224,299.048 C217.533333,299.048 217.8,298.944 218.024,298.736 C218.248,298.528 218.36,298.269333 218.36,297.96 C218.36,297.650667 218.248,297.384 218.024,297.16 C217.8,296.936 217.533333,296.824 217.224,296.824 C216.914667,296.824 216.648,296.936 216.424,297.16 C216.2,297.384 216.088,297.650667 216.088,297.96 C216.088,298.269333 216.2,298.528 216.424,298.736 C216.648,298.944 216.914667,299.048 217.224,299.048 Z M39.328,315 L39.328,314.712 C39.2426667,314.712 39.168,314.688 39.104,314.64 C39.04,314.592 39.008,314.52 39.008,314.424 L39.008,314.424 L39.008,312.136 L40.352,311.096 L43.088,314.248 C43.2373333,314.429333 43.312,314.546667 43.312,314.6 C43.312,314.674667 43.2426667,314.712 43.104,314.712 L43.104,314.712 L43.104,315 L46.064,315 L46.064,314.712 C45.8826667,314.658667 45.6986667,314.554667 45.512,314.4 C45.3253333,314.245333 45.1626667,314.088 45.024,313.928 L45.024,313.928 L41.664,310.04 L45.344,307.112 C45.536,306.952 45.728,306.872 45.92,306.872 L45.92,306.872 L45.92,306.584 L42.56,306.584 L42.56,306.872 C42.624,306.872 42.68,306.888 42.728,306.92 C42.776,306.952 42.8,307.005333 42.8,307.08 C42.8,307.133333 42.7573333,307.2 42.672,307.28 C42.5866667,307.36 42.4693333,307.464 42.32,307.592 L42.32,307.592 L39.008,310.2 L39.008,307.16 C39.008,307.064 39.04,306.992 39.104,306.944 C39.168,306.896 39.2426667,306.872 39.328,306.872 L39.328,306.872 L39.328,306.584 L36.832,306.584 L36.832,306.872 C37.0666667,306.872 37.184,306.968 37.184,307.16 L37.184,307.16 L37.184,314.424 C37.184,314.616 37.0666667,314.712 36.832,314.712 L36.832,314.712 L36.832,315 L39.328,315 Z M54.256,315.176 L54.256,313.496 L53.968,313.496 C53.968,313.592 53.9253333,313.669333 53.84,313.728 C53.7546667,313.786667 53.648,313.816 53.52,313.816 L53.52,313.816 L49.424,313.816 L49.424,311.928 L51.76,311.928 C51.9733333,311.928 52.1386667,311.941333 52.256,311.968 C52.3733333,311.994667 52.416,312.066667 52.384,312.184 L52.384,312.184 L52.704,312.184 L52.704,310.488 L52.416,310.488 C52.416,310.605333 52.3733333,310.677333 52.288,310.704 C52.2026667,310.730667 52.0693333,310.744 51.888,310.744 L51.888,310.744 L49.424,310.744 L49.424,309.144 L53.328,309.144 C53.6586667,309.144 53.824,309.245333 53.824,309.448 L53.824,309.448 L54.112,309.448 L54.112,307.672 L53.824,307.672 C53.824,307.864 53.6586667,307.96 53.328,307.96 L53.328,307.96 L47.648,307.96 L47.648,308.248 C47.7013333,308.248 47.7546667,308.266667 47.808,308.304 C47.8613333,308.341333 47.888,308.402667 47.888,308.488 L47.888,308.488 L47.888,314.472 C47.888,314.557333 47.8613333,314.618667 47.808,314.656 C47.7546667,314.693333 47.7013333,314.712 47.648,314.712 L47.648,314.712 L47.648,315 L53.52,315 C53.648,315 53.7546667,315.005333 53.84,315.016 C53.9253333,315.026667 53.968,315.08 53.968,315.176 L53.968,315.176 L54.256,315.176 Z M63.152,315.176 L63.152,313.496 L62.864,313.496 C62.864,313.592 62.8213333,313.669333 62.736,313.728 C62.6506667,313.786667 62.544,313.816 62.416,313.816 L62.416,313.816 L58.32,313.816 L58.32,311.928 L60.656,311.928 C60.8693333,311.928 61.0346667,311.941333 61.152,311.968 C61.2693333,311.994667 61.312,312.066667 61.28,312.184 L61.28,312.184 L61.6,312.184 L61.6,310.488 L61.312,310.488 C61.312,310.605333 61.2693333,310.677333 61.184,310.704 C61.0986667,310.730667 60.9653333,310.744 60.784,310.744 L60.784,310.744 L58.32,310.744 L58.32,309.144 L62.224,309.144 C62.5546667,309.144 62.72,309.245333 62.72,309.448 L62.72,309.448 L63.008,309.448 L63.008,307.672 L62.72,307.672 C62.72,307.864 62.5546667,307.96 62.224,307.96 L62.224,307.96 L56.544,307.96 L56.544,308.248 C56.5973333,308.248 56.6506667,308.266667 56.704,308.304 C56.7573333,308.341333 56.784,308.402667 56.784,308.488 L56.784,308.488 L56.784,314.472 C56.784,314.557333 56.7573333,314.618667 56.704,314.656 C56.6506667,314.693333 56.5973333,314.712 56.544,314.712 L56.544,314.712 L56.544,315 L62.416,315 C62.544,315 62.6506667,315.005333 62.736,315.016 C62.8213333,315.026667 62.864,315.08 62.864,315.176 L62.864,315.176 L63.152,315.176 Z M67.472,315 L67.472,314.712 C67.248,314.712 67.136,314.632 67.136,314.472 L67.136,314.472 L67.136,312.072 L69.856,312.072 C70.72,312.072 71.368,311.925333 71.8,311.632 C72.232,311.338667 72.448,310.808 72.448,310.04 C72.448,309.272 72.232,308.733333 71.8,308.424 C71.368,308.114667 70.72,307.96 69.856,307.96 L69.856,307.96 L65.2,307.96 L65.2,308.248 C65.4666667,308.248 65.6,308.328 65.6,308.488 L65.6,308.488 L65.6,314.472 C65.6,314.632 65.4666667,314.712 65.2,314.712 L65.2,314.712 L65.2,315 L67.472,315 Z M69.824,310.888 L67.136,310.888 L67.136,309.144 L69.824,309.144 C70.1333333,309.144 70.392,309.210667 70.6,309.344 C70.808,309.477333 70.912,309.709333 70.912,310.04 C70.912,310.381333 70.808,310.608 70.6,310.72 C70.392,310.832 70.1333333,310.888 69.824,310.888 L69.824,310.888 Z M81.776,315 L81.776,314.712 C81.4773333,314.712 81.328,314.632 81.328,314.472 L81.328,314.472 L81.328,308.488 C81.328,308.328 81.4773333,308.248 81.776,308.248 L81.776,308.248 L81.776,307.96 L79.344,307.96 L79.344,308.248 C79.5146667,308.248 79.632,308.266667 79.696,308.304 C79.76,308.341333 79.792,308.402667 79.792,308.488 L79.792,308.488 L79.792,314.472 C79.792,314.557333 79.76,314.618667 79.696,314.656 C79.632,314.693333 79.5146667,314.712 79.344,314.712 L79.344,314.712 L79.344,315 L81.776,315 Z M86.496,315 L86.496,314.712 C86.272,314.712 86.16,314.632 86.16,314.472 L86.16,314.472 L86.16,309.816 L90.128,314.04 C90.256,314.178667 90.3706667,314.301333 90.472,314.408 C90.5733333,314.514667 90.624,314.589333 90.624,314.632 C90.624,314.685333 90.5866667,314.712 90.512,314.712 L90.512,314.712 L90.512,315 L92.592,315 L92.592,314.712 C92.4,314.712 92.304,314.632 92.304,314.472 L92.304,314.472 L92.304,308.488 C92.304,308.328 92.4,308.248 92.592,308.248 L92.592,308.248 L92.592,307.96 L90.64,307.96 L90.64,308.248 C90.8533333,308.248 90.96,308.328 90.96,308.488 L90.96,308.488 L90.96,312.824 L87.12,308.76 C86.8853333,308.525333 86.768,308.381333 86.768,308.328 C86.768,308.285333 86.8053333,308.258667 86.88,308.248 L86.88,308.248 L86.88,307.96 L84.528,307.96 L84.528,308.248 C84.72,308.248 84.816,308.328 84.816,308.488 L84.816,308.488 L84.816,314.472 C84.816,314.632 84.72,314.712 84.528,314.712 L84.528,314.712 L84.528,315 L86.496,315 Z M102.224,315 L102.224,314.712 C102.128,314.712 102.042667,314.693333 101.968,314.656 C101.893333,314.618667 101.856,314.557333 101.856,314.472 L101.856,314.472 L101.856,312.024 L104.672,312.024 C104.853333,312.024 104.965333,312.045333 105.008,312.088 C105.050667,312.130667 105.077333,312.194667 105.088,312.28 L105.088,312.28 L105.376,312.28 L105.376,310.6 L105.088,310.6 C105.077333,310.685333 105.050667,310.746667 105.008,310.784 C104.965333,310.821333 104.853333,310.84 104.672,310.84 L104.672,310.84 L101.856,310.84 L101.856,309.144 L106.192,309.144 C106.373333,309.144 106.501333,309.168 106.576,309.216 C106.650667,309.264 106.688,309.314667 106.688,309.368 L106.688,309.368 L106.976,309.368 L106.976,307.672 L106.688,307.672 C106.688,307.757333 106.650667,307.826667 106.576,307.88 C106.501333,307.933333 106.373333,307.96 106.192,307.96 L106.192,307.96 L99.984,307.96 L99.984,308.248 C100.208,308.248 100.32,308.328 100.32,308.488 L100.32,308.488 L100.32,314.472 C100.32,314.632 100.218667,314.712 100.016,314.712 L100.016,314.712 L100.016,315 L102.224,315 Z M111.056,315 L111.056,314.712 C110.992,314.712 110.925333,314.693333 110.856,314.656 C110.786667,314.618667 110.752,314.557333 110.752,314.472 L110.752,314.472 L110.752,312.184 L112.976,312.184 L114.24,314.072 C114.4,314.296 114.48,314.461333 114.48,314.568 C114.48,314.664 114.410667,314.712 114.272,314.712 L114.272,314.712 L114.272,315 L116.72,315 L116.72,314.712 C116.602667,314.68 116.493333,314.634667 116.392,314.576 C116.290667,314.517333 116.197333,314.429333 116.112,314.312 L116.112,314.312 L114.544,312.024 C114.768,311.970667 114.986667,311.893333 115.2,311.792 C115.413333,311.690667 115.608,311.557333 115.784,311.392 C115.96,311.226667 116.101333,311.032 116.208,310.808 C116.314667,310.584 116.368,310.328 116.368,310.04 C116.368,309.282667 116.101333,308.746667 115.568,308.432 C115.034667,308.117333 114.293333,307.96 113.344,307.96 L113.344,307.96 L108.928,307.96 L108.928,308.248 C109.12,308.248 109.216,308.328 109.216,308.488 L109.216,308.488 L109.216,314.472 C109.216,314.632 109.12,314.712 108.928,314.712 L108.928,314.712 L108.928,315 L111.056,315 Z M113.312,311 L110.784,311 L110.784,309.144 L113.312,309.144 C113.856,309.144 114.253333,309.221333 114.504,309.376 C114.754667,309.530667 114.88,309.741333 114.88,310.008 C114.88,310.669333 114.357333,311 113.312,311 L113.312,311 Z M122.336,315.048 C122.922667,315.048 123.474667,314.981333 123.992,314.848 C124.509333,314.714667 124.96,314.498667 125.344,314.2 C125.728,313.901333 126.032,313.525333 126.256,313.072 C126.48,312.618667 126.592,312.088 126.592,311.48 C126.592,310.872 126.48,310.341333 126.256,309.888 C126.032,309.434667 125.728,309.058667 125.344,308.76 C124.96,308.461333 124.509333,308.237333 123.992,308.088 C123.474667,307.938667 122.922667,307.864 122.336,307.864 C121.749333,307.864 121.197333,307.938667 120.68,308.088 C120.162667,308.237333 119.712,308.461333 119.328,308.76 C118.944,309.058667 118.64,309.434667 118.416,309.888 C118.192,310.341333 118.08,310.872 118.08,311.48 C118.08,312.088 118.192,312.618667 118.416,313.072 C118.64,313.525333 118.944,313.901333 119.328,314.2 C119.712,314.498667 120.162667,314.714667 120.68,314.848 C121.197333,314.981333 121.749333,315.048 122.336,315.048 Z M122.336,313.912 C121.994667,313.912 121.661333,313.856 121.336,313.744 C121.010667,313.632 120.72,313.472 120.464,313.264 C120.208,313.056 120.002667,312.802667 119.848,312.504 C119.693333,312.205333 119.616,311.864 119.616,311.48 C119.616,311.096 119.693333,310.754667 119.848,310.456 C120.002667,310.157333 120.208,309.904 120.464,309.696 C120.72,309.488 121.010667,309.328 121.336,309.216 C121.661333,309.104 121.994667,309.048 122.336,309.048 C122.677333,309.048 123.010667,309.104 123.336,309.216 C123.661333,309.328 123.952,309.488 124.208,309.696 C124.464,309.904 124.669333,310.157333 124.824,310.456 C124.978667,310.754667 125.056,311.096 125.056,311.48 C125.056,311.864 124.978667,312.205333 124.824,312.504 C124.669333,312.802667 124.464,313.056 124.208,313.264 C123.952,313.472 123.661333,313.632 123.336,313.744 C123.010667,313.856 122.677333,313.912 122.336,313.912 Z M130.496,315 L130.496,314.712 C130.272,314.712 130.16,314.632 130.16,314.472 L130.16,314.472 L130.16,309.816 L134.128,314.04 C134.256,314.178667 134.370667,314.301333 134.472,314.408 C134.573333,314.514667 134.624,314.589333 134.624,314.632 C134.624,314.685333 134.586667,314.712 134.512,314.712 L134.512,314.712 L134.512,315 L136.592,315 L136.592,314.712 C136.4,314.712 136.304,314.632 136.304,314.472 L136.304,314.472 L136.304,308.488 C136.304,308.328 136.4,308.248 136.592,308.248 L136.592,308.248 L136.592,307.96 L134.64,307.96 L134.64,308.248 C134.853333,308.248 134.96,308.328 134.96,308.488 L134.96,308.488 L134.96,312.824 L131.12,308.76 C130.885333,308.525333 130.768,308.381333 130.768,308.328 C130.768,308.285333 130.805333,308.258667 130.88,308.248 L130.88,308.248 L130.88,307.96 L128.528,307.96 L128.528,308.248 C128.72,308.248 128.816,308.328 128.816,308.488 L128.816,308.488 L128.816,314.472 C128.816,314.632 128.72,314.712 128.528,314.712 L128.528,314.712 L128.528,315 L130.496,315 Z M142.96,315 L142.96,314.712 C142.768,314.712 142.672,314.632 142.672,314.472 L142.672,314.472 L142.672,309.144 L144.752,309.144 C144.837333,309.144 144.917333,309.165333 144.992,309.208 C145.066667,309.250667 145.104,309.32 145.104,309.416 L145.104,309.416 L145.392,309.416 L145.392,307.576 L145.104,307.576 C145.104,307.725333 145.066667,307.826667 144.992,307.88 C144.917333,307.933333 144.837333,307.96 144.752,307.96 L144.752,307.96 L139.056,307.96 C138.970667,307.96 138.890667,307.933333 138.816,307.88 C138.741333,307.826667 138.704,307.725333 138.704,307.576 L138.704,307.576 L138.416,307.576 L138.416,309.416 L138.704,309.416 C138.704,309.32 138.741333,309.250667 138.816,309.208 C138.890667,309.165333 138.970667,309.144 139.056,309.144 L139.056,309.144 L141.136,309.144 L141.136,314.472 C141.136,314.557333 141.109333,314.618667 141.056,314.656 C141.002667,314.693333 140.949333,314.712 140.896,314.712 L140.896,314.712 L140.896,315 L142.96,315 Z M155.664,315.048 C156.250667,315.048 156.802667,314.981333 157.32,314.848 C157.837333,314.714667 158.288,314.498667 158.672,314.2 C159.056,313.901333 159.36,313.525333 159.584,313.072 C159.808,312.618667 159.92,312.088 159.92,311.48 C159.92,310.872 159.808,310.341333 159.584,309.888 C159.36,309.434667 159.056,309.058667 158.672,308.76 C158.288,308.461333 157.837333,308.237333 157.32,308.088 C156.802667,307.938667 156.250667,307.864 155.664,307.864 C155.077333,307.864 154.525333,307.938667 154.008,308.088 C153.490667,308.237333 153.04,308.461333 152.656,308.76 C152.272,309.058667 151.968,309.434667 151.744,309.888 C151.52,310.341333 151.408,310.872 151.408,311.48 C151.408,312.088 151.52,312.618667 151.744,313.072 C151.968,313.525333 152.272,313.901333 152.656,314.2 C153.04,314.498667 153.490667,314.714667 154.008,314.848 C154.525333,314.981333 155.077333,315.048 155.664,315.048 Z M155.664,313.912 C155.322667,313.912 154.989333,313.856 154.664,313.744 C154.338667,313.632 154.048,313.472 153.792,313.264 C153.536,313.056 153.330667,312.802667 153.176,312.504 C153.021333,312.205333 152.944,311.864 152.944,311.48 C152.944,311.096 153.021333,310.754667 153.176,310.456 C153.330667,310.157333 153.536,309.904 153.792,309.696 C154.048,309.488 154.338667,309.328 154.664,309.216 C154.989333,309.104 155.322667,309.048 155.664,309.048 C156.005333,309.048 156.338667,309.104 156.664,309.216 C156.989333,309.328 157.28,309.488 157.536,309.696 C157.792,309.904 157.997333,310.157333 158.152,310.456 C158.306667,310.754667 158.384,311.096 158.384,311.48 C158.384,311.864 158.306667,312.205333 158.152,312.504 C157.997333,312.802667 157.792,313.056 157.536,313.264 C157.28,313.472 156.989333,313.632 156.664,313.744 C156.338667,313.856 156.005333,313.912 155.664,313.912 Z M164,315 L164,314.712 C163.904,314.712 163.818667,314.693333 163.744,314.656 C163.669333,314.618667 163.632,314.557333 163.632,314.472 L163.632,314.472 L163.632,312.024 L166.448,312.024 C166.629333,312.024 166.741333,312.045333 166.784,312.088 C166.826667,312.130667 166.853333,312.194667 166.864,312.28 L166.864,312.28 L167.152,312.28 L167.152,310.6 L166.864,310.6 C166.853333,310.685333 166.826667,310.746667 166.784,310.784 C166.741333,310.821333 166.629333,310.84 166.448,310.84 L166.448,310.84 L163.632,310.84 L163.632,309.144 L167.968,309.144 C168.149333,309.144 168.277333,309.168 168.352,309.216 C168.426667,309.264 168.464,309.314667 168.464,309.368 L168.464,309.368 L168.752,309.368 L168.752,307.672 L168.464,307.672 C168.464,307.757333 168.426667,307.826667 168.352,307.88 C168.277333,307.933333 168.149333,307.96 167.968,307.96 L167.968,307.96 L161.76,307.96 L161.76,308.248 C161.984,308.248 162.096,308.328 162.096,308.488 L162.096,308.488 L162.096,314.472 C162.096,314.632 161.994667,314.712 161.792,314.712 L161.792,314.712 L161.792,315 L164,315 Z M179.856,315 L179.856,314.712 C179.653333,314.712 179.552,314.632 179.552,314.472 L179.552,314.472 L179.552,312.072 L182,308.904 C182.117333,308.754667 182.253333,308.608 182.408,308.464 C182.562667,308.32 182.704,308.248 182.832,308.248 L182.832,308.248 L182.832,307.96 L180.384,307.96 L180.384,308.248 C180.437333,308.248 180.490667,308.258667 180.544,308.28 C180.597333,308.301333 180.624,308.354667 180.624,308.44 C180.624,308.504 180.6,308.570667 180.552,308.64 C180.504,308.709333 180.432,308.813333 180.336,308.952 L180.336,308.952 L178.912,310.936 L177.296,308.824 C177.242667,308.749333 177.194667,308.685333 177.152,308.632 C177.109333,308.578667 177.088,308.52 177.088,308.456 C177.088,308.392 177.12,308.341333 177.184,308.304 C177.248,308.266667 177.306667,308.248 177.36,308.248 L177.36,308.248 L177.36,307.96 L174.72,307.96 L174.72,308.248 C174.816,308.248 174.917333,308.269333 175.024,308.312 C175.130667,308.354667 175.221333,308.424 175.296,308.52 L175.296,308.52 L178.016,312.008 L178.016,314.472 C178.016,314.632 177.92,314.712 177.728,314.712 L177.728,314.712 L177.728,315 L179.856,315 Z M188.112,315.048 C188.698667,315.048 189.250667,314.981333 189.768,314.848 C190.285333,314.714667 190.736,314.498667 191.12,314.2 C191.504,313.901333 191.808,313.525333 192.032,313.072 C192.256,312.618667 192.368,312.088 192.368,311.48 C192.368,310.872 192.256,310.341333 192.032,309.888 C191.808,309.434667 191.504,309.058667 191.12,308.76 C190.736,308.461333 190.285333,308.237333 189.768,308.088 C189.250667,307.938667 188.698667,307.864 188.112,307.864 C187.525333,307.864 186.973333,307.938667 186.456,308.088 C185.938667,308.237333 185.488,308.461333 185.104,308.76 C184.72,309.058667 184.416,309.434667 184.192,309.888 C183.968,310.341333 183.856,310.872 183.856,311.48 C183.856,312.088 183.968,312.618667 184.192,313.072 C184.416,313.525333 184.72,313.901333 185.104,314.2 C185.488,314.498667 185.938667,314.714667 186.456,314.848 C186.973333,314.981333 187.525333,315.048 188.112,315.048 Z M188.112,313.912 C187.770667,313.912 187.437333,313.856 187.112,313.744 C186.786667,313.632 186.496,313.472 186.24,313.264 C185.984,313.056 185.778667,312.802667 185.624,312.504 C185.469333,312.205333 185.392,311.864 185.392,311.48 C185.392,311.096 185.469333,310.754667 185.624,310.456 C185.778667,310.157333 185.984,309.904 186.24,309.696 C186.496,309.488 186.786667,309.328 187.112,309.216 C187.437333,309.104 187.770667,309.048 188.112,309.048 C188.453333,309.048 188.786667,309.104 189.112,309.216 C189.437333,309.328 189.728,309.488 189.984,309.696 C190.24,309.904 190.445333,310.157333 190.6,310.456 C190.754667,310.754667 190.832,311.096 190.832,311.48 C190.832,311.864 190.754667,312.205333 190.6,312.504 C190.445333,312.802667 190.24,313.056 189.984,313.264 C189.728,313.472 189.437333,313.632 189.112,313.744 C188.786667,313.856 188.453333,313.912 188.112,313.912 Z M198.4,315.048 C199.04,315.048 199.597333,314.981333 200.072,314.848 C200.546667,314.714667 200.936,314.530667 201.24,314.296 C201.544,314.061333 201.770667,313.792 201.92,313.488 C202.069333,313.184 202.144,312.866667 202.144,312.536 L202.144,312.536 L202.144,308.488 C202.144,308.328 202.261333,308.248 202.496,308.248 L202.496,308.248 L202.496,307.96 L200.272,307.96 L200.272,308.248 C200.538667,308.248 200.672,308.328 200.672,308.488 L200.672,308.488 L200.672,312.152 C200.672,312.664 200.485333,313.074667 200.112,313.384 C199.738667,313.693333 199.168,313.848 198.4,313.848 C197.632,313.848 197.061333,313.693333 196.688,313.384 C196.314667,313.074667 196.128,312.664 196.128,312.152 L196.128,312.152 L196.128,308.488 C196.128,308.328 196.245333,308.248 196.48,308.248 L196.48,308.248 L196.48,307.96 L194.192,307.96 L194.192,308.248 C194.373333,308.248 194.496,308.266667 194.56,308.304 C194.624,308.341333 194.656,308.402667 194.656,308.488 L194.656,308.488 L194.656,312.536 C194.656,312.866667 194.730667,313.184 194.88,313.488 C195.029333,313.792 195.256,314.061333 195.56,314.296 C195.864,314.530667 196.253333,314.714667 196.728,314.848 C197.202667,314.981333 197.76,315.048 198.4,315.048 Z M213.616,315 L213.616,314.712 C213.424,314.712 213.328,314.632 213.328,314.472 L213.328,314.472 L213.328,309.144 L215.408,309.144 C215.493333,309.144 215.573333,309.165333 215.648,309.208 C215.722667,309.250667 215.76,309.32 215.76,309.416 L215.76,309.416 L216.048,309.416 L216.048,307.576 L215.76,307.576 C215.76,307.725333 215.722667,307.826667 215.648,307.88 C215.573333,307.933333 215.493333,307.96 215.408,307.96 L215.408,307.96 L209.712,307.96 C209.626667,307.96 209.546667,307.933333 209.472,307.88 C209.397333,307.826667 209.36,307.725333 209.36,307.576 L209.36,307.576 L209.072,307.576 L209.072,309.416 L209.36,309.416 C209.36,309.32 209.397333,309.250667 209.472,309.208 C209.546667,309.165333 209.626667,309.144 209.712,309.144 L209.712,309.144 L211.792,309.144 L211.792,314.472 C211.792,314.557333 211.765333,314.618667 211.712,314.656 C211.658667,314.693333 211.605333,314.712 211.552,314.712 L211.552,314.712 L211.552,315 L213.616,315 Z M221.44,315.048 C222.026667,315.048 222.578667,314.981333 223.096,314.848 C223.613333,314.714667 224.064,314.498667 224.448,314.2 C224.832,313.901333 225.136,313.525333 225.36,313.072 C225.584,312.618667 225.696,312.088 225.696,311.48 C225.696,310.872 225.584,310.341333 225.36,309.888 C225.136,309.434667 224.832,309.058667 224.448,308.76 C224.064,308.461333 223.613333,308.237333 223.096,308.088 C222.578667,307.938667 222.026667,307.864 221.44,307.864 C220.853333,307.864 220.301333,307.938667 219.784,308.088 C219.266667,308.237333 218.816,308.461333 218.432,308.76 C218.048,309.058667 217.744,309.434667 217.52,309.888 C217.296,310.341333 217.184,310.872 217.184,311.48 C217.184,312.088 217.296,312.618667 217.52,313.072 C217.744,313.525333 218.048,313.901333 218.432,314.2 C218.816,314.498667 219.266667,314.714667 219.784,314.848 C220.301333,314.981333 220.853333,315.048 221.44,315.048 Z M221.44,313.912 C221.098667,313.912 220.765333,313.856 220.44,313.744 C220.114667,313.632 219.824,313.472 219.568,313.264 C219.312,313.056 219.106667,312.802667 218.952,312.504 C218.797333,312.205333 218.72,311.864 218.72,311.48 C218.72,311.096 218.797333,310.754667 218.952,310.456 C219.106667,310.157333 219.312,309.904 219.568,309.696 C219.824,309.488 220.114667,309.328 220.44,309.216 C220.765333,309.104 221.098667,309.048 221.44,309.048 C221.781333,309.048 222.114667,309.104 222.44,309.216 C222.765333,309.328 223.056,309.488 223.312,309.696 C223.568,309.904 223.773333,310.157333 223.928,310.456 C224.082667,310.754667 224.16,311.096 224.16,311.48 C224.16,311.864 224.082667,312.205333 223.928,312.504 C223.773333,312.802667 223.568,313.056 223.312,313.264 C223.056,313.472 222.765333,313.632 222.44,313.744 C222.114667,313.856 221.781333,313.912 221.44,313.912 Z M37.664,331 L37.664,330.712 C37.44,330.712 37.328,330.632 37.328,330.472 L37.328,330.472 L37.328,328.072 L40.048,328.072 C40.912,328.072 41.56,327.925333 41.992,327.632 C42.424,327.338667 42.64,326.808 42.64,326.04 C42.64,325.272 42.424,324.733333 41.992,324.424 C41.56,324.114667 40.912,323.96 40.048,323.96 L40.048,323.96 L35.392,323.96 L35.392,324.248 C35.6586667,324.248 35.792,324.328 35.792,324.488 L35.792,324.488 L35.792,330.472 C35.792,330.632 35.6586667,330.712 35.392,330.712 L35.392,330.712 L35.392,331 L37.664,331 Z M40.016,326.888 L37.328,326.888 L37.328,325.144 L40.016,325.144 C40.3253333,325.144 40.584,325.210667 40.792,325.344 C41,325.477333 41.104,325.709333 41.104,326.04 C41.104,326.381333 41,326.608 40.792,326.72 C40.584,326.832 40.3253333,326.888 40.016,326.888 L40.016,326.888 Z M46.592,331 L46.592,330.712 C46.528,330.712 46.4613333,330.693333 46.392,330.656 C46.3226667,330.618667 46.288,330.557333 46.288,330.472 L46.288,330.472 L46.288,328.184 L48.512,328.184 L49.776,330.072 C49.936,330.296 50.016,330.461333 50.016,330.568 C50.016,330.664 49.9466667,330.712 49.808,330.712 L49.808,330.712 L49.808,331 L52.256,331 L52.256,330.712 C52.1386667,330.68 52.0293333,330.634667 51.928,330.576 C51.8266667,330.517333 51.7333333,330.429333 51.648,330.312 L51.648,330.312 L50.08,328.024 C50.304,327.970667 50.5226667,327.893333 50.736,327.792 C50.9493333,327.690667 51.144,327.557333 51.32,327.392 C51.496,327.226667 51.6373333,327.032 51.744,326.808 C51.8506667,326.584 51.904,326.328 51.904,326.04 C51.904,325.282667 51.6373333,324.746667 51.104,324.432 C50.5706667,324.117333 49.8293333,323.96 48.88,323.96 L48.88,323.96 L44.464,323.96 L44.464,324.248 C44.656,324.248 44.752,324.328 44.752,324.488 L44.752,324.488 L44.752,330.472 C44.752,330.632 44.656,330.712 44.464,330.712 L44.464,330.712 L44.464,331 L46.592,331 Z M48.848,327 L46.32,327 L46.32,325.144 L48.848,325.144 C49.392,325.144 49.7893333,325.221333 50.04,325.376 C50.2906667,325.530667 50.416,325.741333 50.416,326.008 C50.416,326.669333 49.8933333,327 48.848,327 L48.848,327 Z M57.872,331.048 C58.4586667,331.048 59.0106667,330.981333 59.528,330.848 C60.0453333,330.714667 60.496,330.498667 60.88,330.2 C61.264,329.901333 61.568,329.525333 61.792,329.072 C62.016,328.618667 62.128,328.088 62.128,327.48 C62.128,326.872 62.016,326.341333 61.792,325.888 C61.568,325.434667 61.264,325.058667 60.88,324.76 C60.496,324.461333 60.0453333,324.237333 59.528,324.088 C59.0106667,323.938667 58.4586667,323.864 57.872,323.864 C57.2853333,323.864 56.7333333,323.938667 56.216,324.088 C55.6986667,324.237333 55.248,324.461333 54.864,324.76 C54.48,325.058667 54.176,325.434667 53.952,325.888 C53.728,326.341333 53.616,326.872 53.616,327.48 C53.616,328.088 53.728,328.618667 53.952,329.072 C54.176,329.525333 54.48,329.901333 54.864,330.2 C55.248,330.498667 55.6986667,330.714667 56.216,330.848 C56.7333333,330.981333 57.2853333,331.048 57.872,331.048 Z M57.872,329.912 C57.5306667,329.912 57.1973333,329.856 56.872,329.744 C56.5466667,329.632 56.256,329.472 56,329.264 C55.744,329.056 55.5386667,328.802667 55.384,328.504 C55.2293333,328.205333 55.152,327.864 55.152,327.48 C55.152,327.096 55.2293333,326.754667 55.384,326.456 C55.5386667,326.157333 55.744,325.904 56,325.696 C56.256,325.488 56.5466667,325.328 56.872,325.216 C57.1973333,325.104 57.5306667,325.048 57.872,325.048 C58.2133333,325.048 58.5466667,325.104 58.872,325.216 C59.1973333,325.328 59.488,325.488 59.744,325.696 C60,325.904 60.2053333,326.157333 60.36,326.456 C60.5146667,326.754667 60.592,327.096 60.592,327.48 C60.592,327.864 60.5146667,328.205333 60.36,328.504 C60.2053333,328.802667 60,329.056 59.744,329.264 C59.488,329.472 59.1973333,329.632 58.872,329.744 C58.5466667,329.856 58.2133333,329.912 57.872,329.912 Z M67.824,331 L67.824,330.712 C67.632,330.712 67.536,330.632 67.536,330.472 L67.536,330.472 L67.536,325.144 L69.616,325.144 C69.7013333,325.144 69.7813333,325.165333 69.856,325.208 C69.9306667,325.250667 69.968,325.32 69.968,325.416 L69.968,325.416 L70.256,325.416 L70.256,323.576 L69.968,323.576 C69.968,323.725333 69.9306667,323.826667 69.856,323.88 C69.7813333,323.933333 69.7013333,323.96 69.616,323.96 L69.616,323.96 L63.92,323.96 C63.8346667,323.96 63.7546667,323.933333 63.68,323.88 C63.6053333,323.826667 63.568,323.725333 63.568,323.576 L63.568,323.576 L63.28,323.576 L63.28,325.416 L63.568,325.416 C63.568,325.32 63.6053333,325.250667 63.68,325.208 C63.7546667,325.165333 63.8346667,325.144 63.92,325.144 L63.92,325.144 L66,325.144 L66,330.472 C66,330.557333 65.9733333,330.618667 65.92,330.656 C65.8666667,330.693333 65.8133333,330.712 65.76,330.712 L65.76,330.712 L65.76,331 L67.824,331 Z M78.688,331.176 L78.688,329.496 L78.4,329.496 C78.4,329.592 78.3573333,329.669333 78.272,329.728 C78.1866667,329.786667 78.08,329.816 77.952,329.816 L77.952,329.816 L73.856,329.816 L73.856,327.928 L76.192,327.928 C76.4053333,327.928 76.5706667,327.941333 76.688,327.968 C76.8053333,327.994667 76.848,328.066667 76.816,328.184 L76.816,328.184 L77.136,328.184 L77.136,326.488 L76.848,326.488 C76.848,326.605333 76.8053333,326.677333 76.72,326.704 C76.6346667,326.730667 76.5013333,326.744 76.32,326.744 L76.32,326.744 L73.856,326.744 L73.856,325.144 L77.76,325.144 C78.0906667,325.144 78.256,325.245333 78.256,325.448 L78.256,325.448 L78.544,325.448 L78.544,323.672 L78.256,323.672 C78.256,323.864 78.0906667,323.96 77.76,323.96 L77.76,323.96 L72.08,323.96 L72.08,324.248 C72.1333333,324.248 72.1866667,324.266667 72.24,324.304 C72.2933333,324.341333 72.32,324.402667 72.32,324.488 L72.32,324.488 L72.32,330.472 C72.32,330.557333 72.2933333,330.618667 72.24,330.656 C72.1866667,330.693333 72.1333333,330.712 72.08,330.712 L72.08,330.712 L72.08,331 L77.952,331 C78.08,331 78.1866667,331.005333 78.272,331.016 C78.3573333,331.026667 78.4,331.08 78.4,331.176 L78.4,331.176 L78.688,331.176 Z M84.176,331.048 C84.656,331.048 85.0906667,331.005333 85.48,330.92 C85.8693333,330.834667 86.2106667,330.730667 86.504,330.608 C86.7973333,330.485333 87.04,330.376 87.232,330.28 C87.424,330.184 87.5626667,330.136 87.648,330.136 C87.7013333,330.136 87.792,330.162667 87.92,330.216 L87.92,330.216 L88.08,330.136 L86.896,328.44 L86.72,328.6 C86.7306667,328.642667 86.736,328.696 86.736,328.76 L86.736,328.76 L86.736,328.888 C86.736,328.984 86.6586667,329.090667 86.504,329.208 C86.3493333,329.325333 86.1493333,329.434667 85.904,329.536 C85.6586667,329.637333 85.3866667,329.725333 85.088,329.8 C84.7893333,329.874667 84.496,329.912 84.208,329.912 C83.8986667,329.912 83.5946667,329.856 83.296,329.744 C82.9973333,329.632 82.7306667,329.466667 82.496,329.248 C82.2613333,329.029333 82.072,328.768 81.928,328.464 C81.784,328.16 81.712,327.816 81.712,327.432 C81.712,327.048 81.776,326.706667 81.904,326.408 C82.032,326.109333 82.2133333,325.858667 82.448,325.656 C82.6826667,325.453333 82.9573333,325.301333 83.272,325.2 C83.5866667,325.098667 83.936,325.048 84.32,325.048 C84.64,325.048 84.9333333,325.077333 85.2,325.136 C85.4666667,325.194667 85.6986667,325.266667 85.896,325.352 C86.0933333,325.437333 86.2453333,325.525333 86.352,325.616 C86.4586667,325.706667 86.512,325.778667 86.512,325.832 C86.512,325.864 86.5146667,325.890667 86.52,325.912 C86.5253333,325.933333 86.528,325.954667 86.528,325.976 L86.528,325.976 L86.704,326.104 L87.76,324.584 L87.568,324.472 C87.5253333,324.493333 87.4853333,324.52 87.448,324.552 C87.4106667,324.584 87.3653333,324.6 87.312,324.6 C87.2373333,324.6 87.1146667,324.562667 86.944,324.488 C86.7733333,324.413333 86.56,324.328 86.304,324.232 C86.048,324.136 85.752,324.050667 85.416,323.976 C85.08,323.901333 84.7093333,323.864 84.304,323.864 C83.7813333,323.864 83.272,323.938667 82.776,324.088 C82.28,324.237333 81.84,324.464 81.456,324.768 C81.072,325.072 80.7626667,325.448 80.528,325.896 C80.2933333,326.344 80.176,326.866667 80.176,327.464 C80.176,328.061333 80.2933333,328.586667 80.528,329.04 C80.7626667,329.493333 81.0666667,329.872 81.44,330.176 C81.8133333,330.48 82.24,330.701333 82.72,330.84 C83.2,330.978667 83.6853333,331.048 84.176,331.048 Z M93.616,331 L93.616,330.712 C93.424,330.712 93.328,330.632 93.328,330.472 L93.328,330.472 L93.328,325.144 L95.408,325.144 C95.4933333,325.144 95.5733333,325.165333 95.648,325.208 C95.7226667,325.250667 95.76,325.32 95.76,325.416 L95.76,325.416 L96.048,325.416 L96.048,323.576 L95.76,323.576 C95.76,323.725333 95.7226667,323.826667 95.648,323.88 C95.5733333,323.933333 95.4933333,323.96 95.408,323.96 L95.408,323.96 L89.712,323.96 C89.6266667,323.96 89.5466667,323.933333 89.472,323.88 C89.3973333,323.826667 89.36,323.725333 89.36,323.576 L89.36,323.576 L89.072,323.576 L89.072,325.416 L89.36,325.416 C89.36,325.32 89.3973333,325.250667 89.472,325.208 C89.5466667,325.165333 89.6266667,325.144 89.712,325.144 L89.712,325.144 L91.792,325.144 L91.792,330.472 C91.792,330.557333 91.7653333,330.618667 91.712,330.656 C91.6586667,330.693333 91.6053333,330.712 91.552,330.712 L91.552,330.712 L91.552,331 L93.616,331 Z M104.88,331 L104.88,330.712 C104.784,330.712 104.698667,330.693333 104.624,330.656 C104.549333,330.618667 104.512,330.557333 104.512,330.472 L104.512,330.472 L104.512,328.024 L107.328,328.024 C107.509333,328.024 107.621333,328.045333 107.664,328.088 C107.706667,328.130667 107.733333,328.194667 107.744,328.28 L107.744,328.28 L108.032,328.28 L108.032,326.6 L107.744,326.6 C107.733333,326.685333 107.706667,326.746667 107.664,326.784 C107.621333,326.821333 107.509333,326.84 107.328,326.84 L107.328,326.84 L104.512,326.84 L104.512,325.144 L108.848,325.144 C109.029333,325.144 109.157333,325.168 109.232,325.216 C109.306667,325.264 109.344,325.314667 109.344,325.368 L109.344,325.368 L109.632,325.368 L109.632,323.672 L109.344,323.672 C109.344,323.757333 109.306667,323.826667 109.232,323.88 C109.157333,323.933333 109.029333,323.96 108.848,323.96 L108.848,323.96 L102.64,323.96 L102.64,324.248 C102.864,324.248 102.976,324.328 102.976,324.488 L102.976,324.488 L102.976,330.472 C102.976,330.632 102.874667,330.712 102.672,330.712 L102.672,330.712 L102.672,331 L104.88,331 Z M113.712,331 L113.712,330.712 C113.648,330.712 113.581333,330.693333 113.512,330.656 C113.442667,330.618667 113.408,330.557333 113.408,330.472 L113.408,330.472 L113.408,328.184 L115.632,328.184 L116.896,330.072 C117.056,330.296 117.136,330.461333 117.136,330.568 C117.136,330.664 117.066667,330.712 116.928,330.712 L116.928,330.712 L116.928,331 L119.376,331 L119.376,330.712 C119.258667,330.68 119.149333,330.634667 119.048,330.576 C118.946667,330.517333 118.853333,330.429333 118.768,330.312 L118.768,330.312 L117.2,328.024 C117.424,327.970667 117.642667,327.893333 117.856,327.792 C118.069333,327.690667 118.264,327.557333 118.44,327.392 C118.616,327.226667 118.757333,327.032 118.864,326.808 C118.970667,326.584 119.024,326.328 119.024,326.04 C119.024,325.282667 118.757333,324.746667 118.224,324.432 C117.690667,324.117333 116.949333,323.96 116,323.96 L116,323.96 L111.584,323.96 L111.584,324.248 C111.776,324.248 111.872,324.328 111.872,324.488 L111.872,324.488 L111.872,330.472 C111.872,330.632 111.776,330.712 111.584,330.712 L111.584,330.712 L111.584,331 L113.712,331 Z M115.968,327 L113.44,327 L113.44,325.144 L115.968,325.144 C116.512,325.144 116.909333,325.221333 117.16,325.376 C117.410667,325.530667 117.536,325.741333 117.536,326.008 C117.536,326.669333 117.013333,327 115.968,327 L115.968,327 Z M124.992,331.048 C125.578667,331.048 126.130667,330.981333 126.648,330.848 C127.165333,330.714667 127.616,330.498667 128,330.2 C128.384,329.901333 128.688,329.525333 128.912,329.072 C129.136,328.618667 129.248,328.088 129.248,327.48 C129.248,326.872 129.136,326.341333 128.912,325.888 C128.688,325.434667 128.384,325.058667 128,324.76 C127.616,324.461333 127.165333,324.237333 126.648,324.088 C126.130667,323.938667 125.578667,323.864 124.992,323.864 C124.405333,323.864 123.853333,323.938667 123.336,324.088 C122.818667,324.237333 122.368,324.461333 121.984,324.76 C121.6,325.058667 121.296,325.434667 121.072,325.888 C120.848,326.341333 120.736,326.872 120.736,327.48 C120.736,328.088 120.848,328.618667 121.072,329.072 C121.296,329.525333 121.6,329.901333 121.984,330.2 C122.368,330.498667 122.818667,330.714667 123.336,330.848 C123.853333,330.981333 124.405333,331.048 124.992,331.048 Z M124.992,329.912 C124.650667,329.912 124.317333,329.856 123.992,329.744 C123.666667,329.632 123.376,329.472 123.12,329.264 C122.864,329.056 122.658667,328.802667 122.504,328.504 C122.349333,328.205333 122.272,327.864 122.272,327.48 C122.272,327.096 122.349333,326.754667 122.504,326.456 C122.658667,326.157333 122.864,325.904 123.12,325.696 C123.376,325.488 123.666667,325.328 123.992,325.216 C124.317333,325.104 124.650667,325.048 124.992,325.048 C125.333333,325.048 125.666667,325.104 125.992,325.216 C126.317333,325.328 126.608,325.488 126.864,325.696 C127.12,325.904 127.325333,326.157333 127.48,326.456 C127.634667,326.754667 127.712,327.096 127.712,327.48 C127.712,327.864 127.634667,328.205333 127.48,328.504 C127.325333,328.802667 127.12,329.056 126.864,329.264 C126.608,329.472 126.317333,329.632 125.992,329.744 C125.666667,329.856 125.333333,329.912 124.992,329.912 Z M133.184,331 L133.184,330.712 C133.002667,330.712 132.912,330.632 132.912,330.472 L132.912,330.472 L132.912,325.976 L132.928,325.976 L135.504,331 L135.632,331 L138.352,325.976 L138.384,325.976 L138.384,330.472 C138.416,330.632 138.32,330.712 138.096,330.712 L138.096,330.712 L138.096,331 L139.952,331 L139.952,330.712 C139.898667,330.712 139.848,330.693333 139.8,330.656 C139.752,330.618667 139.728,330.557333 139.728,330.472 L139.728,330.472 L139.728,324.456 C139.728,324.370667 139.752,324.314667 139.8,324.288 C139.848,324.261333 139.898667,324.248 139.952,324.248 L139.952,324.248 L139.952,323.96 L137.696,323.96 L137.696,324.248 C137.781333,324.248 137.824,324.296 137.824,324.392 C137.824,324.424 137.802667,324.48 137.76,324.56 C137.717333,324.64 137.658667,324.744 137.584,324.872 L137.584,324.872 L135.616,328.456 L133.664,324.856 C133.589333,324.728 133.533333,324.629333 133.496,324.56 C133.458667,324.490667 133.44,324.434667 133.44,324.392 C133.44,324.296 133.493333,324.248 133.6,324.248 L133.6,324.248 L133.6,323.96 L131.376,323.96 L131.376,324.248 C131.450667,324.248 131.501333,324.264 131.528,324.296 C131.554667,324.328 131.568,324.418667 131.568,324.568 L131.568,324.568 L131.568,330.424 C131.568,330.541333 131.549333,330.616 131.512,330.648 C131.474667,330.68 131.429333,330.701333 131.376,330.712 L131.376,330.712 L131.376,331 L133.184,331 Z M155.984,331.304 L155.984,329.112 L155.696,329.112 C155.696,329.24 155.645333,329.341333 155.544,329.416 C155.442667,329.490667 155.312,329.528 155.152,329.528 L155.152,329.528 L149.808,329.528 L149.808,327.32 L152.944,327.32 C153.157333,327.32 153.322667,327.354667 153.44,327.424 C153.557333,327.493333 153.616,327.650667 153.616,327.896 L153.616,327.896 L153.904,327.896 L153.904,325.4 L153.616,325.4 C153.616,325.645333 153.557333,325.797333 153.44,325.856 C153.322667,325.914667 153.157333,325.944 152.944,325.944 L152.944,325.944 L149.808,325.944 L149.808,323.96 L154.992,323.96 C155.216,323.96 155.373333,323.989333 155.464,324.048 C155.554667,324.106667 155.6,324.194667 155.6,324.312 L155.6,324.312 L155.888,324.312 L155.888,322.2 L155.6,322.2 C155.6,322.317333 155.554667,322.410667 155.464,322.48 C155.373333,322.549333 155.216,322.584 154.992,322.584 L154.992,322.584 L147.696,322.584 L147.696,322.872 C147.770667,322.872 147.837333,322.896 147.896,322.944 C147.954667,322.992 147.984,323.064 147.984,323.16 L147.984,323.16 L147.984,330.424 C147.984,330.52 147.954667,330.592 147.896,330.64 C147.837333,330.688 147.770667,330.712 147.696,330.712 L147.696,330.712 L147.696,331 L155.152,331 C155.312,331 155.442667,331.010667 155.544,331.032 C155.645333,331.053333 155.696,331.144 155.696,331.304 L155.696,331.304 L155.984,331.304 Z M159.936,331 L159.936,330.712 C159.84,330.712 159.792,330.674667 159.792,330.6 C159.792,330.525333 159.866667,330.397333 160.016,330.216 L160.016,330.216 L161.376,328.552 L162.768,330.264 C162.885333,330.445333 162.944,330.552 162.944,330.584 C162.944,330.658667 162.906667,330.701333 162.832,330.712 L162.832,330.712 L162.832,331 L165.28,331 L165.28,330.712 C165.12,330.712 164.981333,330.637333 164.864,330.488 C164.746667,330.338667 164.645333,330.216 164.56,330.12 L164.56,330.12 L162.336,327.32 L164.752,324.408 C164.858667,324.301333 164.997333,324.248 165.168,324.248 L165.168,324.248 L165.168,323.96 L162.72,323.96 L162.72,324.248 C162.858667,324.248 162.928,324.290667 162.928,324.376 C162.928,324.461333 162.842667,324.605333 162.672,324.808 L162.672,324.808 L161.456,326.296 L160.336,324.936 C160.24,324.818667 160.16,324.717333 160.096,324.632 C160.032,324.546667 160,324.477333 160,324.424 C160,324.306667 160.064,324.248 160.192,324.248 L160.192,324.248 L160.192,323.96 L157.68,323.96 L157.68,324.248 C157.754667,324.248 157.84,324.282667 157.936,324.352 C158.032,324.421333 158.154667,324.546667 158.304,324.728 L158.304,324.728 L160.512,327.48 L158.08,330.472 C158.005333,330.568 157.922667,330.632 157.832,330.664 C157.741333,330.696 157.664,330.712 157.6,330.712 L157.6,330.712 L157.6,331 L159.936,331 Z M169.232,331 L169.232,330.712 C169.008,330.712 168.896,330.632 168.896,330.472 L168.896,330.472 L168.896,328.072 L171.616,328.072 C172.48,328.072 173.128,327.925333 173.56,327.632 C173.992,327.338667 174.208,326.808 174.208,326.04 C174.208,325.272 173.992,324.733333 173.56,324.424 C173.128,324.114667 172.48,323.96 171.616,323.96 L171.616,323.96 L166.96,323.96 L166.96,324.248 C167.226667,324.248 167.36,324.328 167.36,324.488 L167.36,324.488 L167.36,330.472 C167.36,330.632 167.226667,330.712 166.96,330.712 L166.96,330.712 L166.96,331 L169.232,331 Z M171.584,326.888 L168.896,326.888 L168.896,325.144 L171.584,325.144 C171.893333,325.144 172.152,325.210667 172.36,325.344 C172.568,325.477333 172.672,325.709333 172.672,326.04 C172.672,326.381333 172.568,326.608 172.36,326.72 C172.152,326.832 171.893333,326.888 171.584,326.888 L171.584,326.888 Z M179.664,331.048 C180.250667,331.048 180.802667,330.981333 181.32,330.848 C181.837333,330.714667 182.288,330.498667 182.672,330.2 C183.056,329.901333 183.36,329.525333 183.584,329.072 C183.808,328.618667 183.92,328.088 183.92,327.48 C183.92,326.872 183.808,326.341333 183.584,325.888 C183.36,325.434667 183.056,325.058667 182.672,324.76 C182.288,324.461333 181.837333,324.237333 181.32,324.088 C180.802667,323.938667 180.250667,323.864 179.664,323.864 C179.077333,323.864 178.525333,323.938667 178.008,324.088 C177.490667,324.237333 177.04,324.461333 176.656,324.76 C176.272,325.058667 175.968,325.434667 175.744,325.888 C175.52,326.341333 175.408,326.872 175.408,327.48 C175.408,328.088 175.52,328.618667 175.744,329.072 C175.968,329.525333 176.272,329.901333 176.656,330.2 C177.04,330.498667 177.490667,330.714667 178.008,330.848 C178.525333,330.981333 179.077333,331.048 179.664,331.048 Z M179.664,329.912 C179.322667,329.912 178.989333,329.856 178.664,329.744 C178.338667,329.632 178.048,329.472 177.792,329.264 C177.536,329.056 177.330667,328.802667 177.176,328.504 C177.021333,328.205333 176.944,327.864 176.944,327.48 C176.944,327.096 177.021333,326.754667 177.176,326.456 C177.330667,326.157333 177.536,325.904 177.792,325.696 C178.048,325.488 178.338667,325.328 178.664,325.216 C178.989333,325.104 179.322667,325.048 179.664,325.048 C180.005333,325.048 180.338667,325.104 180.664,325.216 C180.989333,325.328 181.28,325.488 181.536,325.696 C181.792,325.904 181.997333,326.157333 182.152,326.456 C182.306667,326.754667 182.384,327.096 182.384,327.48 C182.384,327.864 182.306667,328.205333 182.152,328.504 C181.997333,328.802667 181.792,329.056 181.536,329.264 C181.28,329.472 180.989333,329.632 180.664,329.744 C180.338667,329.856 180.005333,329.912 179.664,329.912 Z M188.88,331.048 C189.242667,331.048 189.629333,331.021333 190.04,330.968 C190.450667,330.914667 190.826667,330.802667 191.168,330.632 C191.509333,330.461333 191.794667,330.226667 192.024,329.928 C192.253333,329.629333 192.368,329.245333 192.368,328.776 C192.368,328.306667 192.237333,327.938667 191.976,327.672 C191.714667,327.405333 191.386667,327.202667 190.992,327.064 C190.597333,326.925333 190.170667,326.826667 189.712,326.768 C189.253333,326.709333 188.826667,326.650667 188.432,326.592 C188.037333,326.533333 187.709333,326.453333 187.448,326.352 C187.186667,326.250667 187.056,326.082667 187.056,325.848 C187.056,325.698667 187.098667,325.573333 187.184,325.472 C187.269333,325.370667 187.386667,325.288 187.536,325.224 C187.685333,325.16 187.856,325.114667 188.048,325.088 C188.24,325.061333 188.442667,325.048 188.656,325.048 C189.210667,325.048 189.712,325.112 190.16,325.24 C190.608,325.368 190.938667,325.522667 191.152,325.704 C191.237333,325.768 191.285333,325.832 191.296,325.896 C191.306667,325.96 191.317333,326.024 191.328,326.088 L191.328,326.088 L191.616,326.184 L192.416,324.68 L192.24,324.504 C192.176,324.536 192.122667,324.565333 192.08,324.592 C192.037333,324.618667 191.973333,324.632 191.888,324.632 C191.813333,324.632 191.698667,324.592 191.544,324.512 C191.389333,324.432 191.189333,324.344 190.944,324.248 C190.698667,324.152 190.397333,324.064 190.04,323.984 C189.682667,323.904 189.253333,323.864 188.752,323.864 C187.728,323.864 186.933333,324.066667 186.368,324.472 C185.802667,324.877333 185.52,325.421333 185.52,326.104 C185.52,326.562667 185.650667,326.917333 185.912,327.168 C186.173333,327.418667 186.501333,327.610667 186.896,327.744 C187.290667,327.877333 187.717333,327.973333 188.176,328.032 C188.634667,328.090667 189.061333,328.149333 189.456,328.208 C189.850667,328.266667 190.178667,328.349333 190.44,328.456 C190.701333,328.562667 190.832,328.733333 190.832,328.968 C190.832,329.170667 190.757333,329.333333 190.608,329.456 C190.458667,329.578667 190.277333,329.674667 190.064,329.744 C189.850667,329.813333 189.634667,329.858667 189.416,329.88 C189.197333,329.901333 189.013333,329.912 188.864,329.912 C188.704,329.912 188.482667,329.885333 188.2,329.832 C187.917333,329.778667 187.634667,329.706667 187.352,329.616 C187.069333,329.525333 186.826667,329.413333 186.624,329.28 C186.421333,329.146667 186.32,329 186.32,328.84 C186.32,328.786667 186.322667,328.736 186.328,328.688 C186.333333,328.64 186.336,328.594667 186.336,328.552 L186.336,328.552 L186.032,328.472 L185.296,330.264 L185.52,330.424 C185.573333,330.36 185.637333,330.328 185.712,330.328 C185.754667,330.328 185.877333,330.368 186.08,330.448 C186.282667,330.528 186.530667,330.613333 186.824,330.704 C187.117333,330.794667 187.442667,330.874667 187.8,330.944 C188.157333,331.013333 188.517333,331.048 188.88,331.048 Z M198.848,331.048 C199.488,331.048 200.045333,330.981333 200.52,330.848 C200.994667,330.714667 201.384,330.530667 201.688,330.296 C201.992,330.061333 202.218667,329.792 202.368,329.488 C202.517333,329.184 202.592,328.866667 202.592,328.536 L202.592,328.536 L202.592,324.488 C202.592,324.328 202.709333,324.248 202.944,324.248 L202.944,324.248 L202.944,323.96 L200.72,323.96 L200.72,324.248 C200.986667,324.248 201.12,324.328 201.12,324.488 L201.12,324.488 L201.12,328.152 C201.12,328.664 200.933333,329.074667 200.56,329.384 C200.186667,329.693333 199.616,329.848 198.848,329.848 C198.08,329.848 197.509333,329.693333 197.136,329.384 C196.762667,329.074667 196.576,328.664 196.576,328.152 L196.576,328.152 L196.576,324.488 C196.576,324.328 196.693333,324.248 196.928,324.248 L196.928,324.248 L196.928,323.96 L194.64,323.96 L194.64,324.248 C194.821333,324.248 194.944,324.266667 195.008,324.304 C195.072,324.341333 195.104,324.402667 195.104,324.488 L195.104,324.488 L195.104,328.536 C195.104,328.866667 195.178667,329.184 195.328,329.488 C195.477333,329.792 195.704,330.061333 196.008,330.296 C196.312,330.530667 196.701333,330.714667 197.176,330.848 C197.650667,330.981333 198.208,331.048 198.848,331.048 Z M207.504,331 L207.504,330.712 C207.44,330.712 207.373333,330.693333 207.304,330.656 C207.234667,330.618667 207.2,330.557333 207.2,330.472 L207.2,330.472 L207.2,328.184 L209.424,328.184 L210.688,330.072 C210.848,330.296 210.928,330.461333 210.928,330.568 C210.928,330.664 210.858667,330.712 210.72,330.712 L210.72,330.712 L210.72,331 L213.168,331 L213.168,330.712 C213.050667,330.68 212.941333,330.634667 212.84,330.576 C212.738667,330.517333 212.645333,330.429333 212.56,330.312 L212.56,330.312 L210.992,328.024 C211.216,327.970667 211.434667,327.893333 211.648,327.792 C211.861333,327.690667 212.056,327.557333 212.232,327.392 C212.408,327.226667 212.549333,327.032 212.656,326.808 C212.762667,326.584 212.816,326.328 212.816,326.04 C212.816,325.282667 212.549333,324.746667 212.016,324.432 C211.482667,324.117333 210.741333,323.96 209.792,323.96 L209.792,323.96 L205.376,323.96 L205.376,324.248 C205.568,324.248 205.664,324.328 205.664,324.488 L205.664,324.488 L205.664,330.472 C205.664,330.632 205.568,330.712 205.376,330.712 L205.376,330.712 L205.376,331 L207.504,331 Z M209.76,327 L207.232,327 L207.232,325.144 L209.76,325.144 C210.304,325.144 210.701333,325.221333 210.952,325.376 C211.202667,325.530667 211.328,325.741333 211.328,326.008 C211.328,326.669333 210.805333,327 209.76,327 L209.76,327 Z M221.824,331.176 L221.824,329.496 L221.536,329.496 C221.536,329.592 221.493333,329.669333 221.408,329.728 C221.322667,329.786667 221.216,329.816 221.088,329.816 L221.088,329.816 L216.992,329.816 L216.992,327.928 L219.328,327.928 C219.541333,327.928 219.706667,327.941333 219.824,327.968 C219.941333,327.994667 219.984,328.066667 219.952,328.184 L219.952,328.184 L220.272,328.184 L220.272,326.488 L219.984,326.488 C219.984,326.605333 219.941333,326.677333 219.856,326.704 C219.770667,326.730667 219.637333,326.744 219.456,326.744 L219.456,326.744 L216.992,326.744 L216.992,325.144 L220.896,325.144 C221.226667,325.144 221.392,325.245333 221.392,325.448 L221.392,325.448 L221.68,325.448 L221.68,323.672 L221.392,323.672 C221.392,323.864 221.226667,323.96 220.896,323.96 L220.896,323.96 L215.216,323.96 L215.216,324.248 C215.269333,324.248 215.322667,324.266667 215.376,324.304 C215.429333,324.341333 215.456,324.402667 215.456,324.488 L215.456,324.488 L215.456,330.472 C215.456,330.557333 215.429333,330.618667 215.376,330.656 C215.322667,330.693333 215.269333,330.712 215.216,330.712 L215.216,330.712 L215.216,331 L221.088,331 C221.216,331 221.322667,331.005333 221.408,331.016 C221.493333,331.026667 221.536,331.08 221.536,331.176 L221.536,331.176 L221.824,331.176 Z M225.232,331.048 C225.541333,331.048 225.808,330.944 226.032,330.736 C226.256,330.528 226.368,330.269333 226.368,329.96 C226.368,329.650667 226.256,329.384 226.032,329.16 C225.808,328.936 225.541333,328.824 225.232,328.824 C224.922667,328.824 224.656,328.936 224.432,329.16 C224.208,329.384 224.096,329.650667 224.096,329.96 C224.096,330.269333 224.208,330.528 224.432,330.736 C224.656,330.944 224.922667,331.048 225.232,331.048 Z" id="Pointsforcreativity.KeepinfrontofyoutoprotectfromExposure." fill="#000000" fill-rule="nonzero"></path>
        <path d="M51.304,52.072 C52.072,52.072 52.808,51.984 53.512,51.808 C54.216,51.632 54.844,51.424 55.396,51.184 C55.948,50.944 56.404,50.728 56.764,50.536 C57.124,50.344 57.352,50.248 57.448,50.248 C57.496,50.248 57.54,50.252 57.58,50.26 L57.643,50.269 L57.643,50.269 L57.712,50.272 L57.904,50.08 L56.32,47.536 L55.984,47.728 C56.048,47.808 56.08,47.904 56.08,48.016 C56.08,48.224 55.924,48.444 55.612,48.676 C55.3,48.908 54.912,49.116 54.448,49.3 C53.984,49.484 53.472,49.636 52.912,49.756 C52.352,49.876 51.816,49.936 51.304,49.936 C50.632,49.936 49.988,49.84 49.372,49.648 C48.756,49.456 48.22,49.176 47.764,48.808 C47.308,48.44 46.944,47.988 46.672,47.452 C46.4,46.916 46.264,46.304 46.264,45.616 C46.264,44.928 46.4,44.316 46.672,43.78 C46.944,43.244 47.308,42.792 47.764,42.424 C48.22,42.056 48.756,41.776 49.372,41.584 C49.988,41.392 50.632,41.296 51.304,41.296 C51.704,41.296 52.14,41.344 52.612,41.44 C53.084,41.536 53.532,41.656 53.956,41.8 C54.38,41.944 54.736,42.108 55.024,42.292 C55.312,42.476 55.472,42.656 55.504,42.832 C55.52,42.896 55.532,42.952 55.54,43 C55.548,43.048 55.552,43.096 55.552,43.144 L55.552,43.144 L55.792,43.312 L57.664,40.408 L57.304,40.12 C57.272,40.168 57.228,40.232 57.172,40.312 C57.116,40.392 57.048,40.432 56.968,40.432 C56.904,40.432 56.728,40.368 56.44,40.24 C56.152,40.112 55.76,39.976 55.264,39.832 C54.768,39.688 54.188,39.552 53.524,39.424 C52.86,39.296 52.12,39.232 51.304,39.232 C50.296,39.232 49.328,39.368 48.4,39.64 C47.472,39.912 46.652,40.32 45.94,40.864 C45.228,41.408 44.664,42.084 44.248,42.892 C43.832,43.7 43.624,44.632 43.624,45.688 C43.624,46.76 43.832,47.696 44.248,48.496 C44.664,49.296 45.228,49.964 45.94,50.5 C46.652,51.036 47.472,51.432 48.4,51.688 C49.328,51.944 50.296,52.072 51.304,52.072 Z M66.976,52.072 C67.856,52.072 68.684,51.972 69.46,51.772 C70.236,51.572 70.912,51.248 71.488,50.8 C72.064,50.352 72.52,49.788 72.856,49.108 C73.192,48.428 73.36,47.632 73.36,46.72 C73.36,45.808 73.192,45.012 72.856,44.332 C72.52,43.652 72.064,43.088 71.488,42.64 C70.912,42.192 70.236,41.856 69.46,41.632 C68.684,41.408 67.856,41.296 66.976,41.296 C66.096,41.296 65.268,41.408 64.492,41.632 C63.716,41.856 63.04,42.192 62.464,42.64 C61.888,43.088 61.432,43.652 61.096,44.332 C60.76,45.012 60.592,45.808 60.592,46.72 C60.592,47.632 60.76,48.428 61.096,49.108 C61.432,49.788 61.888,50.352 62.464,50.8 C63.04,51.248 63.716,51.572 64.492,51.772 C65.268,51.972 66.096,52.072 66.976,52.072 Z M66.976,50.368 C66.464,50.368 65.964,50.284 65.476,50.116 C64.988,49.948 64.552,49.708 64.168,49.396 C63.784,49.084 63.476,48.704 63.244,48.256 C63.012,47.808 62.896,47.296 62.896,46.72 C62.896,46.144 63.012,45.632 63.244,45.184 C63.476,44.736 63.784,44.356 64.168,44.044 C64.552,43.732 64.988,43.492 65.476,43.324 C65.964,43.156 66.464,43.072 66.976,43.072 C67.488,43.072 67.988,43.156 68.476,43.324 C68.964,43.492 69.4,43.732 69.784,44.044 C70.168,44.356 70.476,44.736 70.708,45.184 C70.94,45.632 71.056,46.144 71.056,46.72 C71.056,47.296 70.94,47.808 70.708,48.256 C70.476,48.704 70.168,49.084 69.784,49.396 C69.4,49.708 68.964,49.948 68.476,50.116 C67.988,50.284 67.488,50.368 66.976,50.368 Z M82.408,52.072 C83.368,52.072 84.204,51.972 84.916,51.772 C85.628,51.572 86.212,51.296 86.668,50.944 C87.124,50.592 87.464,50.188 87.688,49.732 C87.912,49.276 88.024,48.8 88.024,48.304 L88.024,48.304 L88.024,42.232 C88.024,41.992 88.2,41.872 88.552,41.872 L88.552,41.872 L88.552,41.44 L85.216,41.44 L85.216,41.872 C85.616,41.872 85.816,41.992 85.816,42.232 L85.816,42.232 L85.816,47.728 C85.816,48.496 85.536,49.112 84.976,49.576 C84.416,50.04 83.56,50.272 82.408,50.272 C81.256,50.272 80.4,50.04 79.84,49.576 C79.28,49.112 79,48.496 79,47.728 L79,47.728 L79,42.232 C79,41.992 79.176,41.872 79.528,41.872 L79.528,41.872 L79.528,41.44 L76.096,41.44 L76.096,41.872 C76.368,41.872 76.552,41.9 76.648,41.956 C76.744,42.012 76.792,42.104 76.792,42.232 L76.792,42.232 L76.792,48.304 C76.792,48.8 76.904,49.276 77.128,49.732 C77.352,50.188 77.692,50.592 78.148,50.944 C78.604,51.296 79.188,51.572 79.9,51.772 C80.612,51.972 81.448,52.072 82.408,52.072 Z M97.912,52.072 C98.68,52.072 99.376,52.02 100,51.916 C100.624,51.812 101.172,51.68 101.644,51.52 C102.116,51.36 102.508,51.196 102.82,51.028 C103.132,50.86 103.36,50.728 103.504,50.632 L103.504,50.632 L103.504,50.344 C103.344,50.28 103.244,50.22 103.204,50.164 C103.164,50.108 103.144,50.008 103.144,49.864 L103.144,49.864 L103.144,47.584 C103.144,47.424 103.168,47.304 103.216,47.224 C103.264,47.144 103.36,47.072 103.504,47.008 L103.504,47.008 L103.504,46.576 L98.8,46.576 C98.624,46.576 98.472,46.552 98.344,46.504 C98.216,46.456 98.136,46.352 98.104,46.192 L98.104,46.192 L97.672,46.192 L97.672,48.664 L98.104,48.664 C98.136,48.472 98.216,48.34 98.344,48.268 C98.472,48.196 98.624,48.16 98.8,48.16 L98.8,48.16 L101.272,48.16 L101.272,49.672 C100.76,49.944 100.196,50.128 99.58,50.224 C98.964,50.32 98.312,50.368 97.624,50.368 C97.16,50.368 96.68,50.304 96.184,50.176 C95.688,50.048 95.236,49.844 94.828,49.564 C94.42,49.284 94.088,48.916 93.832,48.46 C93.576,48.004 93.448,47.44 93.448,46.768 C93.448,46.096 93.568,45.528 93.808,45.064 C94.048,44.6 94.368,44.22 94.768,43.924 C95.168,43.628 95.632,43.412 96.16,43.276 C96.688,43.14 97.248,43.072 97.84,43.072 C98.272,43.072 98.7,43.116 99.124,43.204 C99.548,43.292 99.928,43.408 100.264,43.552 C100.6,43.696 100.872,43.852 101.08,44.02 C101.288,44.188 101.392,44.344 101.392,44.488 C101.392,44.504 101.376,44.592 101.344,44.752 L101.344,44.752 L101.632,44.92 L103.024,42.304 L102.736,42.16 C102.64,42.24 102.56,42.292 102.496,42.316 C102.432,42.34 102.336,42.352 102.208,42.352 C102.096,42.352 101.928,42.296 101.704,42.184 C101.48,42.072 101.184,41.952 100.816,41.824 C100.464,41.696 100.048,41.576 99.568,41.464 C99.088,41.352 98.536,41.296 97.912,41.296 C96.872,41.296 95.932,41.42 95.092,41.668 C94.252,41.916 93.54,42.276 92.956,42.748 C92.372,43.22 91.924,43.788 91.612,44.452 C91.3,45.116 91.144,45.872 91.144,46.72 C91.144,47.568 91.3,48.324 91.612,48.988 C91.924,49.652 92.372,50.216 92.956,50.68 C93.54,51.144 94.252,51.492 95.092,51.724 C95.932,51.956 96.872,52.072 97.912,52.072 Z M110.128,52 L110.128,51.568 C110.032,51.568 109.948,51.54 109.876,51.484 C109.804,51.428 109.768,51.336 109.768,51.208 L109.768,51.208 L109.768,47.584 L116.2,47.584 L116.2,51.208 C116.2,51.336 116.164,51.428 116.092,51.484 C116.02,51.54 115.936,51.568 115.84,51.568 L115.84,51.568 L115.84,52 L118.864,52 L118.864,51.568 C118.768,51.568 118.684,51.54 118.612,51.484 C118.54,51.428 118.504,51.336 118.504,51.208 L118.504,51.208 L118.504,42.232 C118.504,42.104 118.54,42.012 118.612,41.956 C118.684,41.9 118.768,41.872 118.864,41.872 L118.864,41.872 L118.864,41.44 L115.84,41.44 L115.84,41.872 C115.936,41.872 116.02,41.9 116.092,41.956 C116.164,42.012 116.2,42.104 116.2,42.232 L116.2,42.232 L116.2,45.616 L109.768,45.616 L109.768,42.232 C109.768,42.104 109.804,42.012 109.876,41.956 C109.948,41.9 110.032,41.872 110.128,41.872 L110.128,41.872 L110.128,41.44 L107.104,41.44 L107.104,41.872 C107.2,41.872 107.284,41.9 107.356,41.956 C107.428,42.012 107.464,42.104 107.464,42.232 L107.464,42.232 L107.464,51.208 C107.464,51.336 107.428,51.428 107.356,51.484 C107.284,51.54 107.2,51.568 107.104,51.568 L107.104,51.568 L107.104,52 L110.128,52 Z M129.28,52 L129.28,51.568 C128.976,51.568 128.824,51.448 128.824,51.208 L128.824,51.208 L128.824,47.608 L132.496,42.856 C132.672,42.632 132.876,42.412 133.108,42.196 C133.34,41.98 133.552,41.872 133.744,41.872 L133.744,41.872 L133.744,41.44 L130.072,41.44 L130.072,41.872 C130.152,41.872 130.232,41.888 130.312,41.92 C130.392,41.952 130.432,42.032 130.432,42.16 C130.432,42.256 130.396,42.356 130.324,42.46 C130.252,42.564 130.144,42.72 130,42.928 L130,42.928 L127.864,45.904 L125.44,42.736 C125.36,42.624 125.288,42.528 125.224,42.448 C125.16,42.368 125.128,42.28 125.128,42.184 C125.128,42.088 125.176,42.012 125.272,41.956 C125.368,41.9 125.456,41.872 125.536,41.872 L125.536,41.872 L125.536,41.44 L121.576,41.44 L121.576,41.872 C121.72,41.872 121.872,41.904 122.032,41.968 C122.192,42.032 122.328,42.136 122.44,42.28 L122.44,42.28 L126.52,47.512 L126.52,51.208 C126.52,51.448 126.376,51.568 126.088,51.568 L126.088,51.568 L126.088,52 L129.28,52 Z M147.328,52 L147.328,51.568 C147.12,51.568 146.948,51.532 146.812,51.46 C146.676,51.388 146.608,51.28 146.608,51.136 L146.608,51.136 L146.608,46.48 L151.312,46.48 C151.632,46.48 151.88,46.532 152.056,46.636 C152.232,46.74 152.32,46.976 152.32,47.344 L152.32,47.344 L152.752,47.344 L152.752,43.888 L152.32,43.888 C152.32,44.112 152.232,44.256 152.056,44.32 C151.88,44.384 151.632,44.416 151.312,44.416 L151.312,44.416 L146.608,44.416 L146.608,41.44 L154.384,41.44 C154.72,41.44 154.956,41.484 155.092,41.572 C155.228,41.66 155.296,41.792 155.296,41.968 L155.296,41.968 L155.728,41.968 L155.728,38.8 L155.296,38.8 C155.296,38.976 155.228,39.116 155.092,39.22 C154.956,39.324 154.72,39.376 154.384,39.376 L154.384,39.376 L143.248,39.376 L143.248,39.808 C143.664,39.808 143.872,39.952 143.872,40.24 L143.872,40.24 L143.872,51.136 C143.872,51.424 143.664,51.568 143.248,51.568 L143.248,51.568 L143.248,52 L147.328,52 Z M162.136,52 L162.136,51.568 C161.688,51.568 161.464,51.448 161.464,51.208 L161.464,51.208 L161.464,42.232 C161.464,41.992 161.688,41.872 162.136,41.872 L162.136,41.872 L162.136,41.44 L158.488,41.44 L158.488,41.872 C158.744,41.872 158.92,41.9 159.016,41.956 C159.112,42.012 159.16,42.104 159.16,42.232 L159.16,42.232 L159.16,51.208 C159.16,51.336 159.112,51.428 159.016,51.484 C158.92,51.54 158.744,51.568 158.488,51.568 L158.488,51.568 L158.488,52 L162.136,52 Z M176.656,52.24 L176.656,49.72 L176.224,49.72 C176.224,49.88 176.16,50.004 176.032,50.092 C175.904,50.18 175.744,50.224 175.552,50.224 L175.552,50.224 L169.072,50.224 L169.072,42.232 C169.072,41.992 169.256,41.872 169.624,41.872 L169.624,41.872 L169.624,41.44 L166.144,41.44 L166.144,41.872 C166.56,41.872 166.768,41.992 166.768,42.232 L166.768,42.232 L166.768,51.208 C166.768,51.448 166.56,51.568 166.144,51.568 L166.144,51.568 L166.144,52 L175.552,52 C175.744,52 175.904,52.008 176.032,52.024 C176.16,52.04 176.224,52.112 176.224,52.24 L176.224,52.24 L176.656,52.24 Z M185.248,52 L185.248,51.568 C184.96,51.568 184.816,51.448 184.816,51.208 L184.816,51.208 L184.816,43.216 L187.936,43.216 C188.064,43.216 188.184,43.248 188.296,43.312 C188.408,43.376 188.464,43.48 188.464,43.624 L188.464,43.624 L188.896,43.624 L188.896,40.864 L188.464,40.864 C188.464,41.088 188.408,41.24 188.296,41.32 C188.184,41.4 188.064,41.44 187.936,41.44 L187.936,41.44 L179.392,41.44 C179.264,41.44 179.144,41.4 179.032,41.32 C178.92,41.24 178.864,41.088 178.864,40.864 L178.864,40.864 L178.432,40.864 L178.432,43.624 L178.864,43.624 C178.864,43.48 178.92,43.376 179.032,43.312 C179.144,43.248 179.264,43.216 179.392,43.216 L179.392,43.216 L182.512,43.216 L182.512,51.208 C182.512,51.336 182.472,51.428 182.392,51.484 C182.312,51.54 182.232,51.568 182.152,51.568 L182.152,51.568 L182.152,52 L185.248,52 Z M201.544,52.264 L201.544,49.744 L201.112,49.744 C201.112,49.888 201.048,50.004 200.92,50.092 C200.792,50.18 200.632,50.224 200.44,50.224 L200.44,50.224 L194.296,50.224 L194.296,47.392 L197.8,47.392 C198.12,47.392 198.368,47.412 198.544,47.452 C198.72,47.492 198.784,47.6 198.736,47.776 L198.736,47.776 L199.216,47.776 L199.216,45.232 L198.784,45.232 C198.784,45.408 198.72,45.516 198.592,45.556 C198.464,45.596 198.264,45.616 197.992,45.616 L197.992,45.616 L194.296,45.616 L194.296,43.216 L200.152,43.216 C200.648,43.216 200.896,43.368 200.896,43.672 L200.896,43.672 L201.328,43.672 L201.328,41.008 L200.896,41.008 C200.896,41.296 200.648,41.44 200.152,41.44 L200.152,41.44 L191.632,41.44 L191.632,41.872 C191.712,41.872 191.792,41.9 191.872,41.956 C191.952,42.012 191.992,42.104 191.992,42.232 L191.992,42.232 L191.992,51.208 C191.992,51.336 191.952,51.428 191.872,51.484 C191.792,51.54 191.712,51.568 191.632,51.568 L191.632,51.568 L191.632,52 L200.44,52 C200.632,52 200.792,52.008 200.92,52.024 C201.048,52.04 201.112,52.12 201.112,52.264 L201.112,52.264 L201.544,52.264 Z M208.072,52 L208.072,51.568 C207.976,51.568 207.876,51.54 207.772,51.484 C207.668,51.428 207.616,51.336 207.616,51.208 L207.616,51.208 L207.616,47.776 L210.952,47.776 L212.848,50.608 C213.088,50.944 213.208,51.192 213.208,51.352 C213.208,51.496 213.104,51.568 212.896,51.568 L212.896,51.568 L212.896,52 L216.568,52 L216.568,51.568 C216.392,51.52 216.228,51.452 216.076,51.364 C215.924,51.276 215.784,51.144 215.656,50.968 L215.656,50.968 L213.304,47.536 C213.64,47.456 213.968,47.34 214.288,47.188 C214.608,47.036 214.9,46.836 215.164,46.588 C215.428,46.34 215.64,46.048 215.8,45.712 C215.96,45.376 216.04,44.992 216.04,44.56 C216.04,43.424 215.64,42.62 214.84,42.148 C214.04,41.676 212.928,41.44 211.504,41.44 L211.504,41.44 L204.88,41.44 L204.88,41.872 C205.168,41.872 205.312,41.992 205.312,42.232 L205.312,42.232 L205.312,51.208 C205.312,51.448 205.168,51.568 204.88,51.568 L204.88,51.568 L204.88,52 L208.072,52 Z M211.456,46 L207.664,46 L207.664,43.216 L211.456,43.216 C212.272,43.216 212.868,43.332 213.244,43.564 C213.62,43.796 213.808,44.112 213.808,44.512 C213.808,45.504 213.024,46 211.456,46 L211.456,46 Z" id="CoughyFilter" fill="#000000" fill-rule="nonzero"></path>
        <path d="M217.624,30 L217.624,29.712 C217.464,29.712 217.32,29.668 217.192,29.58 C217.064,29.492 217,29.312 217,29.04 L217,29.04 L217,18.048 C217,17.888 217.064,17.768 217.192,17.688 C217.32,17.608 217.48,17.552 217.672,17.52 L217.672,17.52 L217.672,17.232 L213.784,17.232 L213.784,17.52 C213.96,17.552 214.1,17.6 214.204,17.664 C214.308,17.728 214.36,17.872 214.36,18.096 C214.36,18.336 214.268,18.54 214.084,18.708 C213.9,18.876 213.672,18.96 213.4,18.96 C213.272,18.96 213.136,18.932 212.992,18.876 C212.848,18.82 212.776,18.72 212.776,18.576 L212.776,18.576 L212.488,18.576 L212.488,21.6 L212.776,21.6 C212.824,21.472 212.908,21.372 213.028,21.3 C213.148,21.228 213.28,21.172 213.424,21.132 C213.568,21.092 213.716,21.064 213.868,21.048 C214.02,21.032 214.152,21.024 214.264,21.024 L214.264,21.024 L214.264,29.04 C214.264,29.312 214.204,29.492 214.084,29.58 C213.964,29.668 213.824,29.712 213.664,29.712 L213.664,29.712 L213.664,30 L217.624,30 Z" id="1" fill="#000000" fill-rule="nonzero"></path>
        <rect id="Rectangle" stroke="#000000" stroke-width="3" x="17.5" y="282.5" width="225" height="59" rx="8"></rect>
        <g id="Shield" transform="translate(228.000000, 14.000000)">
            <path d="M8.49995999,0.602112563 C12.0897673,3.01641898 14.3691227,5.26828283 15.2949432,7.38765451 C16.2117539,9.48640089 16.5982137,12.4858222 16.4790644,16.3788474 C14.3118398,16.4138174 12.5519303,16.6869111 11.1969506,17.1872006 C9.99244943,17.63193 9.09798447,18.2570837 8.49839684,19.0475319 C7.89890333,18.2569851 7.00448445,17.6318949 5.80007824,17.1872006 C4.44518737,16.6869438 2.68541961,16.4138532 0.518468664,16.3785506 C0.406586815,12.4686409 0.792651083,9.46951569 1.70208563,7.38765451 C2.62063669,5.28492398 4.90094203,3.03287984 8.49995999,0.602112563 Z" id="Triangle" stroke="#000000" transform="translate(8.500000, 10.000000) scale(1, -1) translate(-8.500000, -10.000000) "></path>
            <path d="M8.49896481,3 C11.1890912,4.79034724 12.8741761,6.46743058 13.5542196,8.03125 C14.2342631,9.59506942 14.5151106,11.8554861 14.3967621,14.8125 C11.167016,14.8125 9.20108353,15.5416667 8.49896481,17 C7.79684609,15.5416667 5.83091366,14.8125 2.60116754,14.8125 C2.48836139,11.8427409 2.76920888,9.58232426 3.44371001,8.03125 C4.11821113,6.48017574 5.80329607,4.80309241 8.49896481,3 Z" id="Triangle-Copy" fill="#000000" transform="translate(8.500000, 10.000000) scale(1, -1) translate(-8.500000, -10.000000) "></path>
        </g>
    </g>
</svg>