<?xml version="1.0" encoding="UTF-8"?>
<svg width="262px" height="360px" viewBox="0 0 262 360" version="1.1" xmlns="http://www.w3.org/2000/svg" xmlns:xlink="http://www.w3.org/1999/xlink">
    <title>Rash 4</title>
    <g id="Rash-4" stroke="none" stroke-width="1" fill="none" fill-rule="evenodd">
        <g id="Group" transform="translate(9.000000, 9.000000)" fill="#FFFFFF" stroke="#000000" stroke-width="3">
            <g id="Rectangle">
                <rect x="1.5" y="1.5" width="239" height="337" rx="8"></rect>
            </g>
        </g>
        <path d="M216.124,30 L216.124,29.712 C215.964,29.712 215.82,29.668 215.692,29.58 C215.564,29.492 215.5,29.312 215.5,29.04 L215.5,29.04 L215.5,18.048 C215.5,17.888 215.564,17.768 215.692,17.688 C215.82,17.608 215.98,17.552 216.172,17.52 L216.172,17.52 L216.172,17.232 L212.284,17.232 L212.284,17.52 C212.46,17.552 212.6,17.6 212.704,17.664 C212.808,17.728 212.86,17.872 212.86,18.096 C212.86,18.336 212.768,18.54 212.584,18.708 C212.4,18.876 212.172,18.96 211.9,18.96 C211.772,18.96 211.636,18.932 211.492,18.876 C211.348,18.82 211.276,18.72 211.276,18.576 L211.276,18.576 L210.988,18.576 L210.988,21.6 L211.276,21.6 C211.324,21.472 211.408,21.372 211.528,21.3 C211.648,21.228 211.78,21.172 211.924,21.132 C212.068,21.092 212.216,21.064 212.368,21.048 C212.52,21.032 212.652,21.024 212.764,21.024 L212.764,21.024 L212.764,29.04 C212.764,29.312 212.704,29.492 212.584,29.58 C212.464,29.668 212.324,29.712 212.164,29.712 L212.164,29.712 L212.164,30 L216.124,30 Z" id="1" fill="#000000" fill-rule="nonzero"></path>
        <g id="Face" transform="translate(225.000000, 15.000000)">
            <circle id="Oval" stroke="#000000" fill="#FFFFFF" cx="9.5" cy="9.5" r="9"></circle>
            <circle id="Oval" fill="#000000" cx="5" cy="8" r="1"></circle>
            <circle id="Oval-Copy" fill="#000000" cx="12" cy="8" r="1"></circle>
            <line x1="12.0789474" y1="13.9090909" x2="14.5" y2="11.5" id="Line-4" stroke="#000000" stroke-linecap="round"></line>
            <path d="M3,5.89285714 C3.41025641,5.96428571 3.76923077,6 4.07692308,6 C4.38461538,6 5.35897436,5.33333333 7,4" id="Line-2" stroke="#000000"></path>
            <path d="M6,15 C6.96078431,14.3333333 8.07598039,14 9.34558824,14 C10.6151961,14 11.8333333,14.3333333 13,15" id="Line" stroke="#000000" stroke-linecap="round" stroke-linejoin="round"></path>
            <path d="M11.3197366,4.68245322 C11.585843,4.80663622 11.7912611,4.92388646 11.9359908,5.03420394 C12.548667,5.50120471 13.1333088,5.70898724 13.3155349,5.80010028 C13.5440857,5.91437569 13.8101922,6.00751295 14.1138542,6.07951204" id="Line-3" stroke="#000000" stroke-linecap="square" transform="translate(12.716795, 5.380983) rotate(-3.000000) translate(-12.716795, -5.380983) "></path>
            <path d="M2.999,9.347 L3.01687864,9.39698204 C3.09438102,9.62639002 3.1880913,9.89570266 3.30282211,10.2112791 C3.48139895,10.7024692 3.54804655,11.0169045 3.47980817,11.2204078 C3.41244402,11.421304 3.17143148,11.4011566 3.01518318,11.4416373 L3.01518318,11.4416373 L2.86575433,11.4813457 C2.78836954,11.5029149 2.70310591,11.5126925 2.63007237,11.4810832 C2.58941161,11.463485 2.56030088,11.4264037 2.54036126,11.376794 C2.4446463,11.1386559 2.49784548,10.759559 2.69717789,10.2112791 C2.8119087,9.89570266 2.90561898,9.62639002 2.98312136,9.39698204 L2.999,9.347 Z" id="Oval" stroke="#000000"></path>
            <path d="M16,6.347 L16.0168786,6.39698204 C16.094381,6.62639002 16.1880913,6.89570266 16.3028221,7.21127907 C16.481399,7.70246915 16.5480465,8.01690453 16.4798082,8.22040783 C16.412444,8.42130397 16.1714315,8.40115659 16.0151832,8.44163726 L16.0151832,8.44163726 L15.8657543,8.48134574 C15.7883695,8.50291486 15.7031059,8.51269255 15.6300724,8.48108319 C15.5894116,8.46348497 15.5603009,8.42640366 15.5403613,8.37679403 C15.4446463,8.13865595 15.4978455,7.75955902 15.6971779,7.21127907 C15.8119087,6.89570266 15.905619,6.62639002 15.9831214,6.39698204 L16,6.347 Z" id="Oval-Copy-2" stroke="#000000"></path>
        </g>
        <rect id="Rectangle" stroke="#000000" stroke-width="3" x="17.5" y="260.5" width="225" height="81" rx="8"></rect>
        <path d="M96.405,57 L96.405,56.46 C96.065,56.46 95.83,56.415 95.7,56.325 C95.57,56.235 95.505,56.1 95.505,55.92 L95.505,55.92 L95.505,50.58 L99.795,50.58 L103.095,55.26 C103.255,55.48 103.375,55.655 103.455,55.785 C103.535,55.915 103.575,56.03 103.575,56.13 C103.575,56.23 103.51,56.31 103.38,56.37 C103.25,56.43 103.095,56.46 102.915,56.46 L102.915,56.46 L102.915,57 L108.525,57 L108.525,56.46 C108.365,56.46 108.19,56.44 108,56.4 C107.81,56.36 107.645,56.24 107.505,56.04 L107.505,56.04 L103.515,50.34 C104.835,50.1 105.885,49.63 106.665,48.93 C107.445,48.23 107.835,47.22 107.835,45.9 C107.835,45.04 107.685,44.315 107.385,43.725 C107.085,43.135 106.655,42.655 106.095,42.285 C105.535,41.915 104.865,41.645 104.085,41.475 C103.305,41.305 102.435,41.22 101.475,41.22 L101.475,41.22 L91.215,41.22 L91.215,41.76 C91.795,41.76 92.085,41.94 92.085,42.3 L92.085,42.3 L92.085,55.92 C92.085,56.28 91.795,56.46 91.215,56.46 L91.215,56.46 L91.215,57 L96.405,57 Z M100.695,48.24 L95.505,48.24 L95.505,43.8 L100.695,43.8 C101.415,43.8 102.015,43.855 102.495,43.965 C102.975,44.075 103.355,44.23 103.635,44.43 C103.915,44.63 104.115,44.865 104.235,45.135 C104.355,45.405 104.415,45.7 104.415,46.02 C104.415,46.34 104.355,46.635 104.235,46.905 C104.115,47.175 103.915,47.41 103.635,47.61 C103.355,47.81 102.975,47.965 102.495,48.075 C102.015,48.185 101.415,48.24 100.695,48.24 L100.695,48.24 Z M114.945,57 L114.945,56.46 C114.765,56.46 114.625,56.44 114.525,56.4 C114.425,56.36 114.375,56.26 114.375,56.1 C114.375,56 114.4,55.885 114.45,55.755 C114.5,55.625 114.565,55.48 114.645,55.32 L114.645,55.32 L115.485,53.7 L121.905,53.7 L122.715,55.41 C122.775,55.57 122.825,55.7 122.865,55.8 C122.905,55.9 122.925,56.01 122.925,56.13 C122.925,56.29 122.87,56.4 122.76,56.46 C122.65,56.52 122.545,56.55 122.445,56.55 L122.445,56.55 L122.445,57 L126.705,57 L126.705,56.46 C126.565,56.42 126.435,56.36 126.315,56.28 C126.195,56.2 126.085,56.07 125.985,55.89 L125.985,55.89 L121.125,45.69 C121.025,45.47 120.93,45.275 120.84,45.105 C120.75,44.935 120.705,44.79 120.705,44.67 C120.705,44.53 120.74,44.45 120.81,44.43 C120.88,44.41 120.945,44.38 121.005,44.34 L121.005,44.34 L121.005,43.8 L116.475,43.8 L116.475,44.34 C116.535,44.38 116.59,44.415 116.64,44.445 C116.69,44.475 116.715,44.55 116.715,44.67 C116.715,44.83 116.68,44.995 116.61,45.165 C116.54,45.335 116.445,45.56 116.325,45.84 L116.325,45.84 L111.855,55.59 C111.775,55.75 111.66,55.925 111.51,56.115 C111.36,56.305 111.165,56.42 110.925,56.46 L110.925,56.46 L110.925,57 L114.945,57 Z M120.945,51.48 L116.385,51.48 L118.515,46.44 L120.945,51.48 Z M135.255,57.09 C135.935,57.09 136.66,57.04 137.43,56.94 C138.2,56.84 138.905,56.63 139.545,56.31 C140.185,55.99 140.72,55.55 141.15,54.99 C141.58,54.43 141.795,53.71 141.795,52.83 C141.795,51.95 141.55,51.26 141.06,50.76 C140.57,50.26 139.955,49.88 139.215,49.62 C138.475,49.36 137.675,49.175 136.815,49.065 C135.955,48.955 135.155,48.845 134.415,48.735 C133.675,48.625 133.06,48.475 132.57,48.285 C132.08,48.095 131.835,47.78 131.835,47.34 C131.835,47.06 131.915,46.825 132.075,46.635 C132.235,46.445 132.455,46.29 132.735,46.17 C133.015,46.05 133.335,45.965 133.695,45.915 C134.055,45.865 134.435,45.84 134.835,45.84 C135.875,45.84 136.815,45.96 137.655,46.2 C138.495,46.44 139.115,46.73 139.515,47.07 C139.675,47.19 139.765,47.31 139.785,47.43 L139.785,47.43 L139.845,47.79 L140.385,47.97 L141.885,45.15 L141.555,44.82 C141.435,44.88 141.335,44.935 141.255,44.985 C141.175,45.035 141.055,45.06 140.895,45.06 C140.755,45.06 140.54,44.985 140.25,44.835 C139.96,44.685 139.585,44.52 139.125,44.34 C138.665,44.16 138.1,43.995 137.43,43.845 C136.76,43.695 135.955,43.62 135.015,43.62 C133.095,43.62 131.605,44 130.545,44.76 C129.485,45.52 128.955,46.54 128.955,47.82 C128.955,48.68 129.2,49.345 129.69,49.815 C130.18,50.285 130.795,50.645 131.535,50.895 C132.275,51.145 133.075,51.325 133.935,51.435 C134.795,51.545 135.595,51.655 136.335,51.765 C137.075,51.875 137.69,52.03 138.18,52.23 C138.67,52.43 138.915,52.75 138.915,53.19 C138.915,53.57 138.775,53.875 138.495,54.105 C138.215,54.335 137.875,54.515 137.475,54.645 C137.075,54.775 136.67,54.86 136.26,54.9 C135.85,54.94 135.505,54.96 135.225,54.96 C134.925,54.96 134.51,54.91 133.98,54.81 C133.45,54.71 132.92,54.575 132.39,54.405 C131.86,54.235 131.405,54.025 131.025,53.775 C130.645,53.525 130.455,53.25 130.455,52.95 C130.455,52.85 130.46,52.755 130.47,52.665 C130.48,52.575 130.485,52.49 130.485,52.41 L130.485,52.41 L129.915,52.26 L128.535,55.62 L128.955,55.92 C129.055,55.8 129.175,55.74 129.315,55.74 C129.395,55.74 129.625,55.815 130.005,55.965 C130.385,56.115 130.85,56.275 131.4,56.445 C131.95,56.615 132.56,56.765 133.23,56.895 C133.9,57.025 134.575,57.09 135.255,57.09 Z M150.255,57 L150.255,56.46 C150.135,56.46 150.03,56.425 149.94,56.355 C149.85,56.285 149.805,56.17 149.805,56.01 L149.805,56.01 L149.805,51.48 L157.845,51.48 L157.845,56.01 C157.845,56.17 157.8,56.285 157.71,56.355 C157.62,56.425 157.515,56.46 157.395,56.46 L157.395,56.46 L157.395,57 L161.175,57 L161.175,56.46 C161.055,56.46 160.95,56.425 160.86,56.355 C160.77,56.285 160.725,56.17 160.725,56.01 L160.725,56.01 L160.725,44.79 C160.725,44.63 160.77,44.515 160.86,44.445 C160.95,44.375 161.055,44.34 161.175,44.34 L161.175,44.34 L161.175,43.8 L157.395,43.8 L157.395,44.34 C157.515,44.34 157.62,44.375 157.71,44.445 C157.8,44.515 157.845,44.63 157.845,44.79 L157.845,44.79 L157.845,49.02 L149.805,49.02 L149.805,44.79 C149.805,44.63 149.85,44.515 149.94,44.445 C150.03,44.375 150.135,44.34 150.255,44.34 L150.255,44.34 L150.255,43.8 L146.475,43.8 L146.475,44.34 C146.595,44.34 146.7,44.375 146.79,44.445 C146.88,44.515 146.925,44.63 146.925,44.79 L146.925,44.79 L146.925,56.01 C146.925,56.17 146.88,56.285 146.79,56.355 C146.7,56.425 146.595,56.46 146.475,56.46 L146.475,56.46 L146.475,57 L150.255,57 Z M166.245,57 L173.445,41.04 L170.145,41.04 L163.005,57 L166.245,57 Z M34.335,87 C35.435,87 36.46,86.84 37.41,86.52 C38.36,86.2 39.185,85.715 39.885,85.065 C40.585,84.415 41.135,83.595 41.535,82.605 C41.935,81.615 42.135,80.45 42.135,79.11 C42.135,77.77 41.935,76.605 41.535,75.615 C41.135,74.625 40.585,73.805 39.885,73.155 C39.185,72.505 38.36,72.02 37.41,71.7 C36.46,71.38 35.435,71.22 34.335,71.22 L34.335,71.22 L24.375,71.22 L24.375,71.76 C24.835,71.76 25.065,71.94 25.065,72.3 L25.065,72.3 L25.065,85.92 C25.065,86.28 24.835,86.46 24.375,86.46 L24.375,86.46 L24.375,87 L34.335,87 Z M33.135,84.42 L28.485,84.42 L28.485,73.8 L33.135,73.8 C34.075,73.8 34.895,73.88 35.595,74.04 C36.295,74.2 36.875,74.485 37.335,74.895 C37.795,75.305 38.14,75.85 38.37,76.53 C38.6,77.21 38.715,78.07 38.715,79.11 C38.715,80.15 38.6,81.01 38.37,81.69 C38.14,82.37 37.795,82.915 37.335,83.325 C36.875,83.735 36.295,84.02 35.595,84.18 C34.895,84.34 34.075,84.42 33.135,84.42 L33.135,84.42 Z M51.075,87 L51.075,86.46 C50.515,86.46 50.235,86.31 50.235,86.01 L50.235,86.01 L50.235,74.79 C50.235,74.49 50.515,74.34 51.075,74.34 L51.075,74.34 L51.075,73.8 L46.515,73.8 L46.515,74.34 C46.835,74.34 47.055,74.375 47.175,74.445 C47.295,74.515 47.355,74.63 47.355,74.79 L47.355,74.79 L47.355,86.01 C47.355,86.17 47.295,86.285 47.175,86.355 C47.055,86.425 46.835,86.46 46.515,86.46 L46.515,86.46 L46.515,87 L51.075,87 Z M61.905,87.09 C62.585,87.09 63.31,87.04 64.08,86.94 C64.85,86.84 65.555,86.63 66.195,86.31 C66.835,85.99 67.37,85.55 67.8,84.99 C68.23,84.43 68.445,83.71 68.445,82.83 C68.445,81.95 68.2,81.26 67.71,80.76 C67.22,80.26 66.605,79.88 65.865,79.62 C65.125,79.36 64.325,79.175 63.465,79.065 C62.605,78.955 61.805,78.845 61.065,78.735 C60.325,78.625 59.71,78.475 59.22,78.285 C58.73,78.095 58.485,77.78 58.485,77.34 C58.485,77.06 58.565,76.825 58.725,76.635 C58.885,76.445 59.105,76.29 59.385,76.17 C59.665,76.05 59.985,75.965 60.345,75.915 C60.705,75.865 61.085,75.84 61.485,75.84 C62.525,75.84 63.465,75.96 64.305,76.2 C65.145,76.44 65.765,76.73 66.165,77.07 C66.325,77.19 66.415,77.31 66.435,77.43 L66.435,77.43 L66.495,77.79 L67.035,77.97 L68.535,75.15 L68.205,74.82 C68.085,74.88 67.985,74.935 67.905,74.985 C67.825,75.035 67.705,75.06 67.545,75.06 C67.405,75.06 67.19,74.985 66.9,74.835 C66.61,74.685 66.235,74.52 65.775,74.34 C65.315,74.16 64.75,73.995 64.08,73.845 C63.41,73.695 62.605,73.62 61.665,73.62 C59.745,73.62 58.255,74 57.195,74.76 C56.135,75.52 55.605,76.54 55.605,77.82 C55.605,78.68 55.85,79.345 56.34,79.815 C56.83,80.285 57.445,80.645 58.185,80.895 C58.925,81.145 59.725,81.325 60.585,81.435 C61.445,81.545 62.245,81.655 62.985,81.765 C63.725,81.875 64.34,82.03 64.83,82.23 C65.32,82.43 65.565,82.75 65.565,83.19 C65.565,83.57 65.425,83.875 65.145,84.105 C64.865,84.335 64.525,84.515 64.125,84.645 C63.725,84.775 63.32,84.86 62.91,84.9 C62.5,84.94 62.155,84.96 61.875,84.96 C61.575,84.96 61.16,84.91 60.63,84.81 C60.1,84.71 59.57,84.575 59.04,84.405 C58.51,84.235 58.055,84.025 57.675,83.775 C57.295,83.525 57.105,83.25 57.105,82.95 C57.105,82.85 57.11,82.755 57.12,82.665 C57.13,82.575 57.135,82.49 57.135,82.41 L57.135,82.41 L56.565,82.26 L55.185,85.62 L55.605,85.92 C55.705,85.8 55.825,85.74 55.965,85.74 C56.045,85.74 56.275,85.815 56.655,85.965 C57.035,86.115 57.5,86.275 58.05,86.445 C58.6,86.615 59.21,86.765 59.88,86.895 C60.55,87.025 61.225,87.09 61.905,87.09 Z M78.945,87.09 C79.845,87.09 80.66,87.01 81.39,86.85 C82.12,86.69 82.76,86.495 83.31,86.265 C83.86,86.035 84.315,85.83 84.675,85.65 C85.035,85.47 85.295,85.38 85.455,85.38 C85.555,85.38 85.725,85.43 85.965,85.53 L85.965,85.53 L86.265,85.38 L84.045,82.2 L83.715,82.5 C83.735,82.58 83.745,82.68 83.745,82.8 L83.745,82.8 L83.745,83.04 C83.745,83.22 83.6,83.42 83.31,83.64 C83.02,83.86 82.645,84.065 82.185,84.255 C81.725,84.445 81.215,84.61 80.655,84.75 C80.095,84.89 79.545,84.96 79.005,84.96 C78.425,84.96 77.855,84.855 77.295,84.645 C76.735,84.435 76.235,84.125 75.795,83.715 C75.355,83.305 75,82.815 74.73,82.245 C74.46,81.675 74.325,81.03 74.325,80.31 C74.325,79.59 74.445,78.95 74.685,78.39 C74.925,77.83 75.265,77.36 75.705,76.98 C76.145,76.6 76.66,76.315 77.25,76.125 C77.84,75.935 78.495,75.84 79.215,75.84 C79.815,75.84 80.365,75.895 80.865,76.005 C81.365,76.115 81.8,76.25 82.17,76.41 C82.54,76.57 82.825,76.735 83.025,76.905 C83.225,77.075 83.325,77.21 83.325,77.31 C83.325,77.37 83.33,77.42 83.34,77.46 C83.35,77.5 83.355,77.54 83.355,77.58 L83.355,77.58 L83.685,77.82 L85.665,74.97 L85.305,74.76 C85.225,74.8 85.15,74.85 85.08,74.91 C85.01,74.97 84.925,75 84.825,75 C84.685,75 84.455,74.93 84.135,74.79 C83.815,74.65 83.415,74.49 82.935,74.31 C82.455,74.13 81.9,73.97 81.27,73.83 C80.64,73.69 79.945,73.62 79.185,73.62 C78.205,73.62 77.25,73.76 76.32,74.04 C75.39,74.32 74.565,74.745 73.845,75.315 C73.125,75.885 72.545,76.59 72.105,77.43 C71.665,78.27 71.445,79.25 71.445,80.37 C71.445,81.49 71.665,82.475 72.105,83.325 C72.545,84.175 73.115,84.885 73.815,85.455 C74.515,86.025 75.315,86.44 76.215,86.7 C77.115,86.96 78.025,87.09 78.945,87.09 Z M96.315,87.09 C97.415,87.09 98.45,86.965 99.42,86.715 C100.39,86.465 101.235,86.06 101.955,85.5 C102.675,84.94 103.245,84.235 103.665,83.385 C104.085,82.535 104.295,81.54 104.295,80.4 C104.295,79.26 104.085,78.265 103.665,77.415 C103.245,76.565 102.675,75.86 101.955,75.3 C101.235,74.74 100.39,74.32 99.42,74.04 C98.45,73.76 97.415,73.62 96.315,73.62 C95.215,73.62 94.18,73.76 93.21,74.04 C92.24,74.32 91.395,74.74 90.675,75.3 C89.955,75.86 89.385,76.565 88.965,77.415 C88.545,78.265 88.335,79.26 88.335,80.4 C88.335,81.54 88.545,82.535 88.965,83.385 C89.385,84.235 89.955,84.94 90.675,85.5 C91.395,86.06 92.24,86.465 93.21,86.715 C94.18,86.965 95.215,87.09 96.315,87.09 Z M96.315,84.96 C95.675,84.96 95.05,84.855 94.44,84.645 C93.83,84.435 93.285,84.135 92.805,83.745 C92.325,83.355 91.94,82.88 91.65,82.32 C91.36,81.76 91.215,81.12 91.215,80.4 C91.215,79.68 91.36,79.04 91.65,78.48 C91.94,77.92 92.325,77.445 92.805,77.055 C93.285,76.665 93.83,76.365 94.44,76.155 C95.05,75.945 95.675,75.84 96.315,75.84 C96.955,75.84 97.58,75.945 98.19,76.155 C98.8,76.365 99.345,76.665 99.825,77.055 C100.305,77.445 100.69,77.92 100.98,78.48 C101.27,79.04 101.415,79.68 101.415,80.4 C101.415,81.12 101.27,81.76 100.98,82.32 C100.69,82.88 100.305,83.355 99.825,83.745 C99.345,84.135 98.8,84.435 98.19,84.645 C97.58,84.855 96.955,84.96 96.315,84.96 Z M120.915,87.3 L120.915,84.15 L120.375,84.15 C120.375,84.35 120.295,84.505 120.135,84.615 C119.975,84.725 119.775,84.78 119.535,84.78 L119.535,84.78 L111.435,84.78 L111.435,74.79 C111.435,74.49 111.665,74.34 112.125,74.34 L112.125,74.34 L112.125,73.8 L107.775,73.8 L107.775,74.34 C108.295,74.34 108.555,74.49 108.555,74.79 L108.555,74.79 L108.555,86.01 C108.555,86.31 108.295,86.46 107.775,86.46 L107.775,86.46 L107.775,87 L119.535,87 C119.775,87 119.975,87.01 120.135,87.03 C120.295,87.05 120.375,87.14 120.375,87.3 L120.375,87.3 L120.915,87.3 Z M131.325,87.09 C132.425,87.09 133.46,86.965 134.43,86.715 C135.4,86.465 136.245,86.06 136.965,85.5 C137.685,84.94 138.255,84.235 138.675,83.385 C139.095,82.535 139.305,81.54 139.305,80.4 C139.305,79.26 139.095,78.265 138.675,77.415 C138.255,76.565 137.685,75.86 136.965,75.3 C136.245,74.74 135.4,74.32 134.43,74.04 C133.46,73.76 132.425,73.62 131.325,73.62 C130.225,73.62 129.19,73.76 128.22,74.04 C127.25,74.32 126.405,74.74 125.685,75.3 C124.965,75.86 124.395,76.565 123.975,77.415 C123.555,78.265 123.345,79.26 123.345,80.4 C123.345,81.54 123.555,82.535 123.975,83.385 C124.395,84.235 124.965,84.94 125.685,85.5 C126.405,86.06 127.25,86.465 128.22,86.715 C129.19,86.965 130.225,87.09 131.325,87.09 Z M131.325,84.96 C130.685,84.96 130.06,84.855 129.45,84.645 C128.84,84.435 128.295,84.135 127.815,83.745 C127.335,83.355 126.95,82.88 126.66,82.32 C126.37,81.76 126.225,81.12 126.225,80.4 C126.225,79.68 126.37,79.04 126.66,78.48 C126.95,77.92 127.335,77.445 127.815,77.055 C128.295,76.665 128.84,76.365 129.45,76.155 C130.06,75.945 130.685,75.84 131.325,75.84 C131.965,75.84 132.59,75.945 133.2,76.155 C133.81,76.365 134.355,76.665 134.835,77.055 C135.315,77.445 135.7,77.92 135.99,78.48 C136.28,79.04 136.425,79.68 136.425,80.4 C136.425,81.12 136.28,81.76 135.99,82.32 C135.7,82.88 135.315,83.355 134.835,83.745 C134.355,84.135 133.81,84.435 133.2,84.645 C132.59,84.855 131.965,84.96 131.325,84.96 Z M146.835,87 L146.835,86.46 C146.715,86.46 146.59,86.425 146.46,86.355 C146.33,86.285 146.265,86.17 146.265,86.01 L146.265,86.01 L146.265,81.72 L150.435,81.72 L152.805,85.26 C153.105,85.68 153.255,85.99 153.255,86.19 C153.255,86.37 153.125,86.46 152.865,86.46 L152.865,86.46 L152.865,87 L157.455,87 L157.455,86.46 C157.235,86.4 157.03,86.315 156.84,86.205 C156.65,86.095 156.475,85.93 156.315,85.71 L156.315,85.71 L153.375,81.42 C153.795,81.32 154.205,81.175 154.605,80.985 C155.005,80.795 155.37,80.545 155.7,80.235 C156.03,79.925 156.295,79.56 156.495,79.14 C156.695,78.72 156.795,78.24 156.795,77.7 C156.795,76.28 156.295,75.275 155.295,74.685 C154.295,74.095 152.905,73.8 151.125,73.8 L151.125,73.8 L142.845,73.8 L142.845,74.34 C143.205,74.34 143.385,74.49 143.385,74.79 L143.385,74.79 L143.385,86.01 C143.385,86.31 143.205,86.46 142.845,86.46 L142.845,86.46 L142.845,87 L146.835,87 Z M151.065,79.5 L146.325,79.5 L146.325,76.02 L151.065,76.02 C152.085,76.02 152.83,76.165 153.3,76.455 C153.77,76.745 154.005,77.14 154.005,77.64 C154.005,78.88 153.025,79.5 151.065,79.5 L151.065,79.5 Z M163.305,87 L163.305,86.46 C163.125,86.46 162.985,86.44 162.885,86.4 C162.785,86.36 162.735,86.26 162.735,86.1 C162.735,86 162.76,85.885 162.81,85.755 C162.86,85.625 162.925,85.48 163.005,85.32 L163.005,85.32 L163.845,83.7 L170.265,83.7 L171.075,85.41 C171.135,85.57 171.185,85.7 171.225,85.8 C171.265,85.9 171.285,86.01 171.285,86.13 C171.285,86.29 171.23,86.4 171.12,86.46 C171.01,86.52 170.905,86.55 170.805,86.55 L170.805,86.55 L170.805,87 L175.065,87 L175.065,86.46 C174.925,86.42 174.795,86.36 174.675,86.28 C174.555,86.2 174.445,86.07 174.345,85.89 L174.345,85.89 L169.485,75.69 C169.385,75.47 169.29,75.275 169.2,75.105 C169.11,74.935 169.065,74.79 169.065,74.67 C169.065,74.53 169.1,74.45 169.17,74.43 C169.24,74.41 169.305,74.38 169.365,74.34 L169.365,74.34 L169.365,73.8 L164.835,73.8 L164.835,74.34 C164.895,74.38 164.95,74.415 165,74.445 C165.05,74.475 165.075,74.55 165.075,74.67 C165.075,74.83 165.04,74.995 164.97,75.165 C164.9,75.335 164.805,75.56 164.685,75.84 L164.685,75.84 L160.215,85.59 C160.135,85.75 160.02,85.925 159.87,86.115 C159.72,86.305 159.525,86.42 159.285,86.46 L159.285,86.46 L159.285,87 L163.305,87 Z M169.305,81.48 L164.745,81.48 L166.875,76.44 L169.305,81.48 Z M184.995,87 L184.995,86.46 C184.635,86.46 184.455,86.31 184.455,86.01 L184.455,86.01 L184.455,76.02 L188.355,76.02 C188.515,76.02 188.665,76.06 188.805,76.14 C188.945,76.22 189.015,76.35 189.015,76.53 L189.015,76.53 L189.555,76.53 L189.555,73.08 L189.015,73.08 C189.015,73.36 188.945,73.55 188.805,73.65 C188.665,73.75 188.515,73.8 188.355,73.8 L188.355,73.8 L177.675,73.8 C177.515,73.8 177.365,73.75 177.225,73.65 C177.085,73.55 177.015,73.36 177.015,73.08 L177.015,73.08 L176.475,73.08 L176.475,76.53 L177.015,76.53 C177.015,76.35 177.085,76.22 177.225,76.14 C177.365,76.06 177.515,76.02 177.675,76.02 L177.675,76.02 L181.575,76.02 L181.575,86.01 C181.575,86.17 181.525,86.285 181.425,86.355 C181.325,86.425 181.225,86.46 181.125,86.46 L181.125,86.46 L181.125,87 L184.995,87 Z M197.775,87 L197.775,86.46 C197.215,86.46 196.935,86.31 196.935,86.01 L196.935,86.01 L196.935,74.79 C196.935,74.49 197.215,74.34 197.775,74.34 L197.775,74.34 L197.775,73.8 L193.215,73.8 L193.215,74.34 C193.535,74.34 193.755,74.375 193.875,74.445 C193.995,74.515 194.055,74.63 194.055,74.79 L194.055,74.79 L194.055,86.01 C194.055,86.17 193.995,86.285 193.875,86.355 C193.755,86.425 193.535,86.46 193.215,86.46 L193.215,86.46 L193.215,87 L197.775,87 Z M209.655,87.09 C210.755,87.09 211.79,86.965 212.76,86.715 C213.73,86.465 214.575,86.06 215.295,85.5 C216.015,84.94 216.585,84.235 217.005,83.385 C217.425,82.535 217.635,81.54 217.635,80.4 C217.635,79.26 217.425,78.265 217.005,77.415 C216.585,76.565 216.015,75.86 215.295,75.3 C214.575,74.74 213.73,74.32 212.76,74.04 C211.79,73.76 210.755,73.62 209.655,73.62 C208.555,73.62 207.52,73.76 206.55,74.04 C205.58,74.32 204.735,74.74 204.015,75.3 C203.295,75.86 202.725,76.565 202.305,77.415 C201.885,78.265 201.675,79.26 201.675,80.4 C201.675,81.54 201.885,82.535 202.305,83.385 C202.725,84.235 203.295,84.94 204.015,85.5 C204.735,86.06 205.58,86.465 206.55,86.715 C207.52,86.965 208.555,87.09 209.655,87.09 Z M209.655,84.96 C209.015,84.96 208.39,84.855 207.78,84.645 C207.17,84.435 206.625,84.135 206.145,83.745 C205.665,83.355 205.28,82.88 204.99,82.32 C204.7,81.76 204.555,81.12 204.555,80.4 C204.555,79.68 204.7,79.04 204.99,78.48 C205.28,77.92 205.665,77.445 206.145,77.055 C206.625,76.665 207.17,76.365 207.78,76.155 C208.39,75.945 209.015,75.84 209.655,75.84 C210.295,75.84 210.92,75.945 211.53,76.155 C212.14,76.365 212.685,76.665 213.165,77.055 C213.645,77.445 214.03,77.92 214.32,78.48 C214.61,79.04 214.755,79.68 214.755,80.4 C214.755,81.12 214.61,81.76 214.32,82.32 C214.03,82.88 213.645,83.355 213.165,83.745 C212.685,84.135 212.14,84.435 211.53,84.645 C210.92,84.855 210.295,84.96 209.655,84.96 Z M224.955,87 L224.955,86.46 C224.535,86.46 224.325,86.31 224.325,86.01 L224.325,86.01 L224.325,77.28 L231.765,85.2 C232.005,85.46 232.22,85.69 232.41,85.89 C232.6,86.09 232.695,86.23 232.695,86.31 C232.695,86.41 232.625,86.46 232.485,86.46 L232.485,86.46 L232.485,87 L236.385,87 L236.385,86.46 C236.025,86.46 235.845,86.31 235.845,86.01 L235.845,86.01 L235.845,74.79 C235.845,74.49 236.025,74.34 236.385,74.34 L236.385,74.34 L236.385,73.8 L232.725,73.8 L232.725,74.34 C233.125,74.34 233.325,74.49 233.325,74.79 L233.325,74.79 L233.325,82.92 L226.125,75.3 C225.685,74.86 225.465,74.59 225.465,74.49 C225.465,74.41 225.535,74.36 225.675,74.34 L225.675,74.34 L225.675,73.8 L221.265,73.8 L221.265,74.34 C221.625,74.34 221.805,74.49 221.805,74.79 L221.805,74.79 L221.805,86.01 C221.805,86.31 221.625,86.46 221.265,86.46 L221.265,86.46 L221.265,87 L224.955,87 Z" id="Rash/Discoloration" fill="#000000" fill-rule="nonzero"></path>
        <path d="M38.03,278 L38.03,277.676 C37.694,277.676 37.526,277.568 37.526,277.352 L37.526,277.352 L37.526,271.358 L37.562,271.358 L41.108,278 L41.162,278 L44.78,271.376 L44.816,271.376 L44.816,277.352 C44.816,277.568 44.654,277.676 44.33,277.676 L44.33,277.676 L44.33,278 L47.156,278 L47.156,277.676 C47.06,277.676 46.976,277.649 46.904,277.595 C46.832,277.541 46.796,277.46 46.796,277.352 L46.796,277.352 L46.796,269.144 C46.796,269.036 46.832,268.961 46.904,268.919 C46.976,268.877 47.06,268.856 47.156,268.856 L47.156,268.856 L47.156,268.532 L43.826,268.532 L43.826,268.856 C43.982,268.856 44.06,268.922 44.06,269.054 C44.06,269.126 44.039,269.207 43.997,269.297 C43.955,269.387 43.892,269.51 43.808,269.666 L43.808,269.666 L41.216,274.292 L38.642,269.612 C38.582,269.504 38.528,269.402 38.48,269.306 C38.432,269.21 38.408,269.132 38.408,269.072 C38.408,269 38.441,268.946 38.507,268.91 C38.573,268.874 38.636,268.856 38.696,268.856 L38.696,268.856 L38.696,268.532 L35.33,268.532 L35.33,268.856 C35.426,268.856 35.51,268.877 35.582,268.919 C35.654,268.961 35.69,269.036 35.69,269.144 L35.69,269.144 L35.69,277.352 C35.69,277.46 35.654,277.541 35.582,277.595 C35.51,277.649 35.426,277.676 35.33,277.676 L35.33,277.676 L35.33,278 L38.03,278 Z M51.422,278 L51.422,277.676 C51.314,277.676 51.23,277.664 51.17,277.64 C51.11,277.616 51.08,277.556 51.08,277.46 C51.08,277.4 51.095,277.331 51.125,277.253 C51.155,277.175 51.194,277.088 51.242,276.992 L51.242,276.992 L51.746,276.02 L55.598,276.02 L56.084,277.046 C56.12,277.142 56.15,277.22 56.174,277.28 C56.198,277.34 56.21,277.406 56.21,277.478 C56.21,277.574 56.177,277.64 56.111,277.676 C56.045,277.712 55.982,277.73 55.922,277.73 L55.922,277.73 L55.922,278 L58.478,278 L58.478,277.676 C58.394,277.652 58.316,277.616 58.244,277.568 C58.172,277.52 58.106,277.442 58.046,277.334 L58.046,277.334 L55.13,271.214 C55.07,271.082 55.013,270.965 54.959,270.863 C54.905,270.761 54.878,270.674 54.878,270.602 C54.878,270.518 54.899,270.47 54.941,270.458 C54.983,270.446 55.022,270.428 55.058,270.404 L55.058,270.404 L55.058,270.08 L52.34,270.08 L52.34,270.404 C52.376,270.428 52.409,270.449 52.439,270.467 C52.469,270.485 52.484,270.53 52.484,270.602 C52.484,270.698 52.463,270.797 52.421,270.899 C52.379,271.001 52.322,271.136 52.25,271.304 L52.25,271.304 L49.568,277.154 C49.52,277.25 49.451,277.355 49.361,277.469 C49.271,277.583 49.154,277.652 49.01,277.676 L49.01,277.676 L49.01,278 L51.422,278 Z M55.022,274.688 L52.286,274.688 L53.564,271.664 L55.022,274.688 Z M64.958,278 L64.958,277.676 C64.73,277.676 64.616,277.586 64.616,277.406 L64.616,277.406 L64.616,274.706 L67.37,271.142 C67.502,270.974 67.655,270.809 67.829,270.647 C68.003,270.485 68.162,270.404 68.306,270.404 L68.306,270.404 L68.306,270.08 L65.552,270.08 L65.552,270.404 C65.612,270.404 65.672,270.416 65.732,270.44 C65.792,270.464 65.822,270.524 65.822,270.62 C65.822,270.692 65.795,270.767 65.741,270.845 C65.687,270.923 65.606,271.04 65.498,271.196 L65.498,271.196 L63.896,273.428 L62.078,271.052 C62.018,270.968 61.964,270.896 61.916,270.836 C61.868,270.776 61.844,270.71 61.844,270.638 C61.844,270.566 61.88,270.509 61.952,270.467 C62.024,270.425 62.09,270.404 62.15,270.404 L62.15,270.404 L62.15,270.08 L59.18,270.08 L59.18,270.404 C59.288,270.404 59.402,270.428 59.522,270.476 C59.642,270.524 59.744,270.602 59.828,270.71 L59.828,270.71 L62.888,274.634 L62.888,277.406 C62.888,277.586 62.78,277.676 62.564,277.676 L62.564,277.676 L62.564,278 L64.958,278 Z M75.542,278 C76.07,278 76.523,277.943 76.901,277.829 C77.279,277.715 77.585,277.562 77.819,277.37 C78.053,277.178 78.224,276.956 78.332,276.704 C78.44,276.452 78.494,276.182 78.494,275.894 C78.494,275.642 78.452,275.408 78.368,275.192 C78.284,274.976 78.176,274.784 78.044,274.616 C77.912,274.448 77.762,274.304 77.594,274.184 C77.426,274.064 77.258,273.968 77.09,273.896 L77.09,273.896 L77.09,273.878 C77.234,273.806 77.375,273.71 77.513,273.59 C77.651,273.47 77.777,273.335 77.891,273.185 C78.005,273.035 78.098,272.867 78.17,272.681 C78.242,272.495 78.278,272.294 78.278,272.078 C78.278,271.814 78.224,271.562 78.116,271.322 C78.008,271.082 77.843,270.869 77.621,270.683 C77.399,270.497 77.123,270.35 76.793,270.242 C76.463,270.134 76.07,270.08 75.614,270.08 L75.614,270.08 L70.016,270.08 L70.016,270.404 C70.112,270.404 70.205,270.425 70.295,270.467 C70.385,270.509 70.43,270.578 70.43,270.674 L70.43,270.674 L70.43,277.406 C70.43,277.502 70.385,277.571 70.295,277.613 C70.205,277.655 70.112,277.676 70.016,277.676 L70.016,277.676 L70.016,278 L75.542,278 Z M75.362,273.212 L72.158,273.212 L72.158,271.412 L75.362,271.412 C75.506,271.412 75.65,271.421 75.794,271.439 C75.938,271.457 76.064,271.499 76.172,271.565 C76.28,271.631 76.37,271.721 76.442,271.835 C76.514,271.949 76.55,272.102 76.55,272.294 C76.55,272.666 76.424,272.912 76.172,273.032 C75.92,273.152 75.65,273.212 75.362,273.212 L75.362,273.212 Z M75.326,276.668 L72.158,276.668 L72.158,274.544 L75.038,274.544 C75.662,274.544 76.106,274.634 76.37,274.814 C76.634,274.994 76.766,275.27 76.766,275.642 C76.766,275.966 76.664,276.218 76.46,276.398 C76.256,276.578 75.878,276.668 75.326,276.668 L75.326,276.668 Z M88.664,278.198 L88.664,276.308 L88.34,276.308 C88.34,276.416 88.292,276.503 88.196,276.569 C88.1,276.635 87.98,276.668 87.836,276.668 L87.836,276.668 L83.228,276.668 L83.228,274.544 L85.856,274.544 C86.096,274.544 86.282,274.559 86.414,274.589 C86.546,274.619 86.594,274.7 86.558,274.832 L86.558,274.832 L86.918,274.832 L86.918,272.924 L86.594,272.924 C86.594,273.056 86.546,273.137 86.45,273.167 C86.354,273.197 86.204,273.212 86,273.212 L86,273.212 L83.228,273.212 L83.228,271.412 L87.62,271.412 C87.992,271.412 88.178,271.526 88.178,271.754 L88.178,271.754 L88.502,271.754 L88.502,269.756 L88.178,269.756 C88.178,269.972 87.992,270.08 87.62,270.08 L87.62,270.08 L81.23,270.08 L81.23,270.404 C81.29,270.404 81.35,270.425 81.41,270.467 C81.47,270.509 81.5,270.578 81.5,270.674 L81.5,270.674 L81.5,277.406 C81.5,277.502 81.47,277.571 81.41,277.613 C81.35,277.655 81.29,277.676 81.23,277.676 L81.23,277.676 L81.23,278 L87.836,278 C87.98,278 88.1,278.006 88.196,278.018 C88.292,278.03 88.34,278.09 88.34,278.198 L88.34,278.198 L88.664,278.198 Z M99.734,278 L99.734,277.676 C99.422,277.676 99.266,277.568 99.266,277.352 L99.266,277.352 L99.266,269.18 C99.266,268.964 99.422,268.856 99.734,268.856 L99.734,268.856 L99.734,268.532 L96.746,268.532 L96.746,268.856 C97.058,268.856 97.214,268.964 97.214,269.18 L97.214,269.18 L97.214,277.352 C97.214,277.568 97.058,277.676 96.746,277.676 L96.746,277.676 L96.746,278 L99.734,278 Z M102.074,273.41 C102.446,273.326 102.806,273.176 103.154,272.96 C103.502,272.744 103.808,272.486 104.072,272.186 C104.336,271.886 104.549,271.553 104.711,271.187 C104.873,270.821 104.954,270.44 104.954,270.044 C104.954,269.54 104.831,269.114 104.585,268.766 C104.339,268.418 103.976,268.244 103.496,268.244 C103.184,268.244 102.905,268.37 102.659,268.622 C102.413,268.874 102.29,269.174 102.29,269.522 C102.29,269.882 102.401,270.161 102.623,270.359 C102.845,270.557 103.106,270.656 103.406,270.656 C103.502,270.656 103.604,270.662 103.712,270.674 C103.82,270.686 103.886,270.734 103.91,270.818 C103.934,271.034 103.886,271.25 103.766,271.466 C103.646,271.682 103.493,271.883 103.307,272.069 C103.121,272.255 102.914,272.417 102.686,272.555 C102.458,272.693 102.254,272.786 102.074,272.834 L102.074,272.834 L102.074,273.41 Z M109.958,278 L109.958,277.676 C109.754,277.676 109.652,277.586 109.652,277.406 L109.652,277.406 L109.652,272.348 L109.67,272.348 L112.568,278 L112.712,278 L115.772,272.348 L115.808,272.348 L115.808,277.406 C115.844,277.586 115.736,277.676 115.484,277.676 L115.484,277.676 L115.484,278 L117.572,278 L117.572,277.676 C117.512,277.676 117.455,277.655 117.401,277.613 C117.347,277.571 117.32,277.502 117.32,277.406 L117.32,277.406 L117.32,270.638 C117.32,270.542 117.347,270.479 117.401,270.449 C117.455,270.419 117.512,270.404 117.572,270.404 L117.572,270.404 L117.572,270.08 L115.034,270.08 L115.034,270.404 C115.13,270.404 115.178,270.458 115.178,270.566 C115.178,270.602 115.154,270.665 115.106,270.755 C115.058,270.845 114.992,270.962 114.908,271.106 L114.908,271.106 L112.694,275.138 L110.498,271.088 C110.414,270.944 110.351,270.833 110.309,270.755 C110.267,270.677 110.246,270.614 110.246,270.566 C110.246,270.458 110.306,270.404 110.426,270.404 L110.426,270.404 L110.426,270.08 L107.924,270.08 L107.924,270.404 C108.008,270.404 108.065,270.422 108.095,270.458 C108.125,270.494 108.14,270.596 108.14,270.764 L108.14,270.764 L108.14,277.352 C108.14,277.484 108.119,277.568 108.077,277.604 C108.035,277.64 107.984,277.664 107.924,277.676 L107.924,277.676 L107.924,278 L109.958,278 Z M127.418,278 L127.418,277.676 C127.31,277.676 127.226,277.664 127.166,277.64 C127.106,277.616 127.076,277.556 127.076,277.46 C127.076,277.4 127.091,277.331 127.121,277.253 C127.151,277.175 127.19,277.088 127.238,276.992 L127.238,276.992 L127.742,276.02 L131.594,276.02 L132.08,277.046 C132.116,277.142 132.146,277.22 132.17,277.28 C132.194,277.34 132.206,277.406 132.206,277.478 C132.206,277.574 132.173,277.64 132.107,277.676 C132.041,277.712 131.978,277.73 131.918,277.73 L131.918,277.73 L131.918,278 L134.474,278 L134.474,277.676 C134.39,277.652 134.312,277.616 134.24,277.568 C134.168,277.52 134.102,277.442 134.042,277.334 L134.042,277.334 L131.126,271.214 C131.066,271.082 131.009,270.965 130.955,270.863 C130.901,270.761 130.874,270.674 130.874,270.602 C130.874,270.518 130.895,270.47 130.937,270.458 C130.979,270.446 131.018,270.428 131.054,270.404 L131.054,270.404 L131.054,270.08 L128.336,270.08 L128.336,270.404 C128.372,270.428 128.405,270.449 128.435,270.467 C128.465,270.485 128.48,270.53 128.48,270.602 C128.48,270.698 128.459,270.797 128.417,270.899 C128.375,271.001 128.318,271.136 128.246,271.304 L128.246,271.304 L125.564,277.154 C125.516,277.25 125.447,277.355 125.357,277.469 C125.267,277.583 125.15,277.652 125.006,277.676 L125.006,277.676 L125.006,278 L127.418,278 Z M131.018,274.688 L128.282,274.688 L129.56,271.664 L131.018,274.688 Z M143.996,278.18 L143.996,276.29 L143.672,276.29 C143.672,276.41 143.624,276.503 143.528,276.569 C143.432,276.635 143.312,276.668 143.168,276.668 L143.168,276.668 L138.308,276.668 L138.308,270.674 C138.308,270.494 138.446,270.404 138.722,270.404 L138.722,270.404 L138.722,270.08 L136.112,270.08 L136.112,270.404 C136.424,270.404 136.58,270.494 136.58,270.674 L136.58,270.674 L136.58,277.406 C136.58,277.586 136.424,277.676 136.112,277.676 L136.112,277.676 L136.112,278 L143.168,278 C143.312,278 143.432,278.006 143.528,278.018 C143.624,278.03 143.672,278.084 143.672,278.18 L143.672,278.18 L143.996,278.18 Z M154.004,278.18 L154.004,276.29 L153.68,276.29 C153.68,276.41 153.632,276.503 153.536,276.569 C153.44,276.635 153.32,276.668 153.176,276.668 L153.176,276.668 L148.316,276.668 L148.316,270.674 C148.316,270.494 148.454,270.404 148.73,270.404 L148.73,270.404 L148.73,270.08 L146.12,270.08 L146.12,270.404 C146.432,270.404 146.588,270.494 146.588,270.674 L146.588,270.674 L146.588,277.406 C146.588,277.586 146.432,277.676 146.12,277.676 L146.12,277.676 L146.12,278 L153.176,278 C153.32,278 153.44,278.006 153.536,278.018 C153.632,278.03 153.68,278.084 153.68,278.18 L153.68,278.18 L154.004,278.18 Z M163.67,278.198 L163.67,276.308 L163.346,276.308 C163.346,276.416 163.298,276.503 163.202,276.569 C163.106,276.635 162.986,276.668 162.842,276.668 L162.842,276.668 L158.234,276.668 L158.234,274.544 L160.862,274.544 C161.102,274.544 161.288,274.559 161.42,274.589 C161.552,274.619 161.6,274.7 161.564,274.832 L161.564,274.832 L161.924,274.832 L161.924,272.924 L161.6,272.924 C161.6,273.056 161.552,273.137 161.456,273.167 C161.36,273.197 161.21,273.212 161.006,273.212 L161.006,273.212 L158.234,273.212 L158.234,271.412 L162.626,271.412 C162.998,271.412 163.184,271.526 163.184,271.754 L163.184,271.754 L163.508,271.754 L163.508,269.756 L163.184,269.756 C163.184,269.972 162.998,270.08 162.626,270.08 L162.626,270.08 L156.236,270.08 L156.236,270.404 C156.296,270.404 156.356,270.425 156.416,270.467 C156.476,270.509 156.506,270.578 156.506,270.674 L156.506,270.674 L156.506,277.406 C156.506,277.502 156.476,277.571 156.416,277.613 C156.356,277.655 156.296,277.676 156.236,277.676 L156.236,277.676 L156.236,278 L162.842,278 C162.986,278 163.106,278.006 163.202,278.018 C163.298,278.03 163.346,278.09 163.346,278.198 L163.346,278.198 L163.67,278.198 Z M168.566,278 L168.566,277.676 C168.494,277.676 168.419,277.655 168.341,277.613 C168.263,277.571 168.224,277.502 168.224,277.406 L168.224,277.406 L168.224,274.832 L170.726,274.832 L172.148,276.956 C172.328,277.208 172.418,277.394 172.418,277.514 C172.418,277.622 172.34,277.676 172.184,277.676 L172.184,277.676 L172.184,278 L174.938,278 L174.938,277.676 C174.806,277.64 174.683,277.589 174.569,277.523 C174.455,277.457 174.35,277.358 174.254,277.226 L174.254,277.226 L172.49,274.652 C172.742,274.592 172.988,274.505 173.228,274.391 C173.468,274.277 173.687,274.127 173.885,273.941 C174.083,273.755 174.242,273.536 174.362,273.284 C174.482,273.032 174.542,272.744 174.542,272.42 C174.542,271.568 174.242,270.965 173.642,270.611 C173.042,270.257 172.208,270.08 171.14,270.08 L171.14,270.08 L166.172,270.08 L166.172,270.404 C166.388,270.404 166.496,270.494 166.496,270.674 L166.496,270.674 L166.496,277.406 C166.496,277.586 166.388,277.676 166.172,277.676 L166.172,277.676 L166.172,278 L168.566,278 Z M171.104,273.5 L168.26,273.5 L168.26,271.412 L171.104,271.412 C171.716,271.412 172.163,271.499 172.445,271.673 C172.727,271.847 172.868,272.084 172.868,272.384 C172.868,273.128 172.28,273.5 171.104,273.5 L171.104,273.5 Z M181.454,278.054 C182.03,278.054 182.552,278.015 183.02,277.937 C183.488,277.859 183.899,277.76 184.253,277.64 C184.607,277.52 184.901,277.397 185.135,277.271 C185.369,277.145 185.54,277.046 185.648,276.974 L185.648,276.974 L185.648,276.758 C185.528,276.71 185.453,276.665 185.423,276.623 C185.393,276.581 185.378,276.506 185.378,276.398 L185.378,276.398 L185.378,274.688 C185.378,274.568 185.396,274.478 185.432,274.418 C185.468,274.358 185.54,274.304 185.648,274.256 L185.648,274.256 L185.648,273.932 L182.12,273.932 C181.988,273.932 181.874,273.914 181.778,273.878 C181.682,273.842 181.622,273.764 181.598,273.644 L181.598,273.644 L181.274,273.644 L181.274,275.498 L181.598,275.498 C181.622,275.354 181.682,275.255 181.778,275.201 C181.874,275.147 181.988,275.12 182.12,275.12 L182.12,275.12 L183.974,275.12 L183.974,276.254 C183.59,276.458 183.167,276.596 182.705,276.668 C182.243,276.74 181.754,276.776 181.238,276.776 C180.89,276.776 180.53,276.728 180.158,276.632 C179.786,276.536 179.447,276.383 179.141,276.173 C178.835,275.963 178.586,275.687 178.394,275.345 C178.202,275.003 178.106,274.58 178.106,274.076 C178.106,273.572 178.196,273.146 178.376,272.798 C178.556,272.45 178.796,272.165 179.096,271.943 C179.396,271.721 179.744,271.559 180.14,271.457 C180.536,271.355 180.956,271.304 181.4,271.304 C181.724,271.304 182.045,271.337 182.363,271.403 C182.681,271.469 182.966,271.556 183.218,271.664 C183.47,271.772 183.674,271.889 183.83,272.015 C183.986,272.141 184.064,272.258 184.064,272.366 C184.064,272.378 184.052,272.444 184.028,272.564 L184.028,272.564 L184.244,272.69 L185.288,270.728 L185.072,270.62 C185,270.68 184.94,270.719 184.892,270.737 C184.844,270.755 184.772,270.764 184.676,270.764 C184.592,270.764 184.466,270.722 184.298,270.638 C184.13,270.554 183.908,270.464 183.632,270.368 C183.368,270.272 183.056,270.182 182.696,270.098 C182.336,270.014 181.922,269.972 181.454,269.972 C180.674,269.972 179.969,270.065 179.339,270.251 C178.709,270.437 178.175,270.707 177.737,271.061 C177.299,271.415 176.963,271.841 176.729,272.339 C176.495,272.837 176.378,273.404 176.378,274.04 C176.378,274.676 176.495,275.243 176.729,275.741 C176.963,276.239 177.299,276.662 177.737,277.01 C178.175,277.358 178.709,277.619 179.339,277.793 C179.969,277.967 180.674,278.054 181.454,278.054 Z M191.12,278 L191.12,277.676 C190.784,277.676 190.616,277.586 190.616,277.406 L190.616,277.406 L190.616,270.674 C190.616,270.494 190.784,270.404 191.12,270.404 L191.12,270.404 L191.12,270.08 L188.384,270.08 L188.384,270.404 C188.576,270.404 188.708,270.425 188.78,270.467 C188.852,270.509 188.888,270.578 188.888,270.674 L188.888,270.674 L188.888,277.406 C188.888,277.502 188.852,277.571 188.78,277.613 C188.708,277.655 188.576,277.676 188.384,277.676 L188.384,277.676 L188.384,278 L191.12,278 Z M197.834,278.054 C198.374,278.054 198.863,278.006 199.301,277.91 C199.739,277.814 200.123,277.697 200.453,277.559 C200.783,277.421 201.056,277.298 201.272,277.19 C201.488,277.082 201.644,277.028 201.74,277.028 C201.8,277.028 201.902,277.058 202.046,277.118 L202.046,277.118 L202.226,277.028 L200.894,275.12 L200.696,275.3 C200.708,275.348 200.714,275.408 200.714,275.48 L200.714,275.48 L200.714,275.624 C200.714,275.732 200.627,275.852 200.453,275.984 C200.279,276.116 200.054,276.239 199.778,276.353 C199.502,276.467 199.196,276.566 198.86,276.65 C198.524,276.734 198.194,276.776 197.87,276.776 C197.522,276.776 197.18,276.713 196.844,276.587 C196.508,276.461 196.208,276.275 195.944,276.029 C195.68,275.783 195.467,275.489 195.305,275.147 C195.143,274.805 195.062,274.418 195.062,273.986 C195.062,273.554 195.134,273.17 195.278,272.834 C195.422,272.498 195.626,272.216 195.89,271.988 C196.154,271.76 196.463,271.589 196.817,271.475 C197.171,271.361 197.564,271.304 197.996,271.304 C198.356,271.304 198.686,271.337 198.986,271.403 C199.286,271.469 199.547,271.55 199.769,271.646 C199.991,271.742 200.162,271.841 200.282,271.943 C200.402,272.045 200.462,272.126 200.462,272.186 C200.462,272.222 200.465,272.252 200.471,272.276 C200.477,272.3 200.48,272.324 200.48,272.348 L200.48,272.348 L200.678,272.492 L201.866,270.782 L201.65,270.656 C201.602,270.68 201.557,270.71 201.515,270.746 C201.473,270.782 201.422,270.8 201.362,270.8 C201.278,270.8 201.14,270.758 200.948,270.674 C200.756,270.59 200.516,270.494 200.228,270.386 C199.94,270.278 199.607,270.182 199.229,270.098 C198.851,270.014 198.434,269.972 197.978,269.972 C197.39,269.972 196.817,270.056 196.259,270.224 C195.701,270.392 195.206,270.647 194.774,270.989 C194.342,271.331 193.994,271.754 193.73,272.258 C193.466,272.762 193.334,273.35 193.334,274.022 C193.334,274.694 193.466,275.285 193.73,275.795 C193.994,276.305 194.336,276.731 194.756,277.073 C195.176,277.415 195.656,277.664 196.196,277.82 C196.736,277.976 197.282,278.054 197.834,278.054 Z M213.944,278 L213.944,277.676 C213.728,277.676 213.62,277.586 213.62,277.406 L213.62,277.406 L213.62,271.412 L215.96,271.412 C216.056,271.412 216.146,271.436 216.23,271.484 C216.314,271.532 216.356,271.61 216.356,271.718 L216.356,271.718 L216.68,271.718 L216.68,269.648 L216.356,269.648 C216.356,269.816 216.314,269.93 216.23,269.99 C216.146,270.05 216.056,270.08 215.96,270.08 L215.96,270.08 L209.552,270.08 C209.456,270.08 209.366,270.05 209.282,269.99 C209.198,269.93 209.156,269.816 209.156,269.648 L209.156,269.648 L208.832,269.648 L208.832,271.718 L209.156,271.718 C209.156,271.61 209.198,271.532 209.282,271.484 C209.366,271.436 209.456,271.412 209.552,271.412 L209.552,271.412 L211.892,271.412 L211.892,277.406 C211.892,277.502 211.862,277.571 211.802,277.613 C211.742,277.655 211.682,277.676 211.622,277.676 L211.622,277.676 L211.622,278 L213.944,278 Z M222.746,278.054 C223.406,278.054 224.027,277.979 224.609,277.829 C225.191,277.679 225.698,277.436 226.13,277.1 C226.562,276.764 226.904,276.341 227.156,275.831 C227.408,275.321 227.534,274.724 227.534,274.04 C227.534,273.356 227.408,272.759 227.156,272.249 C226.904,271.739 226.562,271.316 226.13,270.98 C225.698,270.644 225.191,270.392 224.609,270.224 C224.027,270.056 223.406,269.972 222.746,269.972 C222.086,269.972 221.465,270.056 220.883,270.224 C220.301,270.392 219.794,270.644 219.362,270.98 C218.93,271.316 218.588,271.739 218.336,272.249 C218.084,272.759 217.958,273.356 217.958,274.04 C217.958,274.724 218.084,275.321 218.336,275.831 C218.588,276.341 218.93,276.764 219.362,277.1 C219.794,277.436 220.301,277.679 220.883,277.829 C221.465,277.979 222.086,278.054 222.746,278.054 Z M222.746,276.776 C222.362,276.776 221.987,276.713 221.621,276.587 C221.255,276.461 220.928,276.281 220.64,276.047 C220.352,275.813 220.121,275.528 219.947,275.192 C219.773,274.856 219.686,274.472 219.686,274.04 C219.686,273.608 219.773,273.224 219.947,272.888 C220.121,272.552 220.352,272.267 220.64,272.033 C220.928,271.799 221.255,271.619 221.621,271.493 C221.987,271.367 222.362,271.304 222.746,271.304 C223.13,271.304 223.505,271.367 223.871,271.493 C224.237,271.619 224.564,271.799 224.852,272.033 C225.14,272.267 225.371,272.552 225.545,272.888 C225.719,273.224 225.806,273.608 225.806,274.04 C225.806,274.472 225.719,274.856 225.545,275.192 C225.371,275.528 225.14,275.813 224.852,276.047 C224.564,276.281 224.237,276.461 223.871,276.587 C223.505,276.713 223.13,276.776 222.746,276.776 Z M86.927,296 L86.927,295.676 C86.711,295.676 86.603,295.586 86.603,295.406 L86.603,295.406 L86.603,289.412 L88.943,289.412 C89.039,289.412 89.129,289.436 89.213,289.484 C89.297,289.532 89.339,289.61 89.339,289.718 L89.339,289.718 L89.663,289.718 L89.663,287.648 L89.339,287.648 C89.339,287.816 89.297,287.93 89.213,287.99 C89.129,288.05 89.039,288.08 88.943,288.08 L88.943,288.08 L82.535,288.08 C82.439,288.08 82.349,288.05 82.265,287.99 C82.181,287.93 82.139,287.816 82.139,287.648 L82.139,287.648 L81.815,287.648 L81.815,289.718 L82.139,289.718 C82.139,289.61 82.181,289.532 82.265,289.484 C82.349,289.436 82.439,289.412 82.535,289.412 L82.535,289.412 L84.875,289.412 L84.875,295.406 C84.875,295.502 84.845,295.571 84.785,295.613 C84.725,295.655 84.665,295.676 84.605,295.676 L84.605,295.676 L84.605,296 L86.927,296 Z M94.091,296 L94.091,295.676 C94.019,295.676 93.956,295.655 93.902,295.613 C93.848,295.571 93.821,295.502 93.821,295.406 L93.821,295.406 L93.821,292.688 L98.645,292.688 L98.645,295.406 C98.645,295.502 98.618,295.571 98.564,295.613 C98.51,295.655 98.447,295.676 98.375,295.676 L98.375,295.676 L98.375,296 L100.643,296 L100.643,295.676 C100.571,295.676 100.508,295.655 100.454,295.613 C100.4,295.571 100.373,295.502 100.373,295.406 L100.373,295.406 L100.373,288.674 C100.373,288.578 100.4,288.509 100.454,288.467 C100.508,288.425 100.571,288.404 100.643,288.404 L100.643,288.404 L100.643,288.08 L98.375,288.08 L98.375,288.404 C98.447,288.404 98.51,288.425 98.564,288.467 C98.618,288.509 98.645,288.578 98.645,288.674 L98.645,288.674 L98.645,291.212 L93.821,291.212 L93.821,288.674 C93.821,288.578 93.848,288.509 93.902,288.467 C93.956,288.425 94.019,288.404 94.091,288.404 L94.091,288.404 L94.091,288.08 L91.823,288.08 L91.823,288.404 C91.895,288.404 91.958,288.425 92.012,288.467 C92.066,288.509 92.093,288.578 92.093,288.674 L92.093,288.674 L92.093,295.406 C92.093,295.502 92.066,295.571 92.012,295.613 C91.958,295.655 91.895,295.676 91.823,295.676 L91.823,295.676 L91.823,296 L94.091,296 Z M111.155,296.198 L111.155,294.308 L110.831,294.308 C110.831,294.416 110.783,294.503 110.687,294.569 C110.591,294.635 110.471,294.668 110.327,294.668 L110.327,294.668 L105.719,294.668 L105.719,292.544 L108.347,292.544 C108.587,292.544 108.773,292.559 108.905,292.589 C109.037,292.619 109.085,292.7 109.049,292.832 L109.049,292.832 L109.409,292.832 L109.409,290.924 L109.085,290.924 C109.085,291.056 109.037,291.137 108.941,291.167 C108.845,291.197 108.695,291.212 108.491,291.212 L108.491,291.212 L105.719,291.212 L105.719,289.412 L110.111,289.412 C110.483,289.412 110.669,289.526 110.669,289.754 L110.669,289.754 L110.993,289.754 L110.993,287.756 L110.669,287.756 C110.669,287.972 110.483,288.08 110.111,288.08 L110.111,288.08 L103.721,288.08 L103.721,288.404 C103.781,288.404 103.841,288.425 103.901,288.467 C103.961,288.509 103.991,288.578 103.991,288.674 L103.991,288.674 L103.991,295.406 C103.991,295.502 103.961,295.571 103.901,295.613 C103.841,295.655 103.781,295.676 103.721,295.676 L103.721,295.676 L103.721,296 L110.327,296 C110.471,296 110.591,296.006 110.687,296.018 C110.783,296.03 110.831,296.09 110.831,296.198 L110.831,296.198 L111.155,296.198 Z M122.819,296.054 C123.359,296.054 123.848,296.006 124.286,295.91 C124.724,295.814 125.108,295.697 125.438,295.559 C125.768,295.421 126.041,295.298 126.257,295.19 C126.473,295.082 126.629,295.028 126.725,295.028 C126.785,295.028 126.887,295.058 127.031,295.118 L127.031,295.118 L127.211,295.028 L125.879,293.12 L125.681,293.3 C125.693,293.348 125.699,293.408 125.699,293.48 L125.699,293.48 L125.699,293.624 C125.699,293.732 125.612,293.852 125.438,293.984 C125.264,294.116 125.039,294.239 124.763,294.353 C124.487,294.467 124.181,294.566 123.845,294.65 C123.509,294.734 123.179,294.776 122.855,294.776 C122.507,294.776 122.165,294.713 121.829,294.587 C121.493,294.461 121.193,294.275 120.929,294.029 C120.665,293.783 120.452,293.489 120.29,293.147 C120.128,292.805 120.047,292.418 120.047,291.986 C120.047,291.554 120.119,291.17 120.263,290.834 C120.407,290.498 120.611,290.216 120.875,289.988 C121.139,289.76 121.448,289.589 121.802,289.475 C122.156,289.361 122.549,289.304 122.981,289.304 C123.341,289.304 123.671,289.337 123.971,289.403 C124.271,289.469 124.532,289.55 124.754,289.646 C124.976,289.742 125.147,289.841 125.267,289.943 C125.387,290.045 125.447,290.126 125.447,290.186 C125.447,290.222 125.45,290.252 125.456,290.276 C125.462,290.3 125.465,290.324 125.465,290.348 L125.465,290.348 L125.663,290.492 L126.851,288.782 L126.635,288.656 C126.587,288.68 126.542,288.71 126.5,288.746 C126.458,288.782 126.407,288.8 126.347,288.8 C126.263,288.8 126.125,288.758 125.933,288.674 C125.741,288.59 125.501,288.494 125.213,288.386 C124.925,288.278 124.592,288.182 124.214,288.098 C123.836,288.014 123.419,287.972 122.963,287.972 C122.375,287.972 121.802,288.056 121.244,288.224 C120.686,288.392 120.191,288.647 119.759,288.989 C119.327,289.331 118.979,289.754 118.715,290.258 C118.451,290.762 118.319,291.35 118.319,292.022 C118.319,292.694 118.451,293.285 118.715,293.795 C118.979,294.305 119.321,294.731 119.741,295.073 C120.161,295.415 120.641,295.664 121.181,295.82 C121.721,295.976 122.267,296.054 122.819,296.054 Z M133.241,296.054 C133.901,296.054 134.522,295.979 135.104,295.829 C135.686,295.679 136.193,295.436 136.625,295.1 C137.057,294.764 137.399,294.341 137.651,293.831 C137.903,293.321 138.029,292.724 138.029,292.04 C138.029,291.356 137.903,290.759 137.651,290.249 C137.399,289.739 137.057,289.316 136.625,288.98 C136.193,288.644 135.686,288.392 135.104,288.224 C134.522,288.056 133.901,287.972 133.241,287.972 C132.581,287.972 131.96,288.056 131.378,288.224 C130.796,288.392 130.289,288.644 129.857,288.98 C129.425,289.316 129.083,289.739 128.831,290.249 C128.579,290.759 128.453,291.356 128.453,292.04 C128.453,292.724 128.579,293.321 128.831,293.831 C129.083,294.341 129.425,294.764 129.857,295.1 C130.289,295.436 130.796,295.679 131.378,295.829 C131.96,295.979 132.581,296.054 133.241,296.054 Z M133.241,294.776 C132.857,294.776 132.482,294.713 132.116,294.587 C131.75,294.461 131.423,294.281 131.135,294.047 C130.847,293.813 130.616,293.528 130.442,293.192 C130.268,292.856 130.181,292.472 130.181,292.04 C130.181,291.608 130.268,291.224 130.442,290.888 C130.616,290.552 130.847,290.267 131.135,290.033 C131.423,289.799 131.75,289.619 132.116,289.493 C132.482,289.367 132.857,289.304 133.241,289.304 C133.625,289.304 134,289.367 134.366,289.493 C134.732,289.619 135.059,289.799 135.347,290.033 C135.635,290.267 135.866,290.552 136.04,290.888 C136.214,291.224 136.301,291.608 136.301,292.04 C136.301,292.472 136.214,292.856 136.04,293.192 C135.866,293.528 135.635,293.813 135.347,294.047 C135.059,294.281 134.732,294.461 134.366,294.587 C134,294.713 133.625,294.776 133.241,294.776 Z M144.815,296.054 C145.535,296.054 146.162,295.979 146.696,295.829 C147.23,295.679 147.668,295.472 148.01,295.208 C148.352,294.944 148.607,294.641 148.775,294.299 C148.943,293.957 149.027,293.6 149.027,293.228 L149.027,293.228 L149.027,288.674 C149.027,288.494 149.159,288.404 149.423,288.404 L149.423,288.404 L149.423,288.08 L146.921,288.08 L146.921,288.404 C147.221,288.404 147.371,288.494 147.371,288.674 L147.371,288.674 L147.371,292.796 C147.371,293.372 147.161,293.834 146.741,294.182 C146.321,294.53 145.679,294.704 144.815,294.704 C143.951,294.704 143.309,294.53 142.889,294.182 C142.469,293.834 142.259,293.372 142.259,292.796 L142.259,292.796 L142.259,288.674 C142.259,288.494 142.391,288.404 142.655,288.404 L142.655,288.404 L142.655,288.08 L140.081,288.08 L140.081,288.404 C140.285,288.404 140.423,288.425 140.495,288.467 C140.567,288.509 140.603,288.578 140.603,288.674 L140.603,288.674 L140.603,293.228 C140.603,293.6 140.687,293.957 140.855,294.299 C141.023,294.641 141.278,294.944 141.62,295.208 C141.962,295.472 142.4,295.679 142.934,295.829 C143.468,295.979 144.095,296.054 144.815,296.054 Z M155.831,296.054 C156.371,296.054 156.86,296.006 157.298,295.91 C157.736,295.814 158.12,295.697 158.45,295.559 C158.78,295.421 159.053,295.298 159.269,295.19 C159.485,295.082 159.641,295.028 159.737,295.028 C159.797,295.028 159.899,295.058 160.043,295.118 L160.043,295.118 L160.223,295.028 L158.891,293.12 L158.693,293.3 C158.705,293.348 158.711,293.408 158.711,293.48 L158.711,293.48 L158.711,293.624 C158.711,293.732 158.624,293.852 158.45,293.984 C158.276,294.116 158.051,294.239 157.775,294.353 C157.499,294.467 157.193,294.566 156.857,294.65 C156.521,294.734 156.191,294.776 155.867,294.776 C155.519,294.776 155.177,294.713 154.841,294.587 C154.505,294.461 154.205,294.275 153.941,294.029 C153.677,293.783 153.464,293.489 153.302,293.147 C153.14,292.805 153.059,292.418 153.059,291.986 C153.059,291.554 153.131,291.17 153.275,290.834 C153.419,290.498 153.623,290.216 153.887,289.988 C154.151,289.76 154.46,289.589 154.814,289.475 C155.168,289.361 155.561,289.304 155.993,289.304 C156.353,289.304 156.683,289.337 156.983,289.403 C157.283,289.469 157.544,289.55 157.766,289.646 C157.988,289.742 158.159,289.841 158.279,289.943 C158.399,290.045 158.459,290.126 158.459,290.186 C158.459,290.222 158.462,290.252 158.468,290.276 C158.474,290.3 158.477,290.324 158.477,290.348 L158.477,290.348 L158.675,290.492 L159.863,288.782 L159.647,288.656 C159.599,288.68 159.554,288.71 159.512,288.746 C159.47,288.782 159.419,288.8 159.359,288.8 C159.275,288.8 159.137,288.758 158.945,288.674 C158.753,288.59 158.513,288.494 158.225,288.386 C157.937,288.278 157.604,288.182 157.226,288.098 C156.848,288.014 156.431,287.972 155.975,287.972 C155.387,287.972 154.814,288.056 154.256,288.224 C153.698,288.392 153.203,288.647 152.771,288.989 C152.339,289.331 151.991,289.754 151.727,290.258 C151.463,290.762 151.331,291.35 151.331,292.022 C151.331,292.694 151.463,293.285 151.727,293.795 C151.991,294.305 152.333,294.731 152.753,295.073 C153.173,295.415 153.653,295.664 154.193,295.82 C154.733,295.976 155.279,296.054 155.831,296.054 Z M164.615,296 L164.615,295.676 C164.543,295.676 164.48,295.655 164.426,295.613 C164.372,295.571 164.345,295.502 164.345,295.406 L164.345,295.406 L164.345,292.688 L169.169,292.688 L169.169,295.406 C169.169,295.502 169.142,295.571 169.088,295.613 C169.034,295.655 168.971,295.676 168.899,295.676 L168.899,295.676 L168.899,296 L171.167,296 L171.167,295.676 C171.095,295.676 171.032,295.655 170.978,295.613 C170.924,295.571 170.897,295.502 170.897,295.406 L170.897,295.406 L170.897,288.674 C170.897,288.578 170.924,288.509 170.978,288.467 C171.032,288.425 171.095,288.404 171.167,288.404 L171.167,288.404 L171.167,288.08 L168.899,288.08 L168.899,288.404 C168.971,288.404 169.034,288.425 169.088,288.467 C169.142,288.509 169.169,288.578 169.169,288.674 L169.169,288.674 L169.169,291.212 L164.345,291.212 L164.345,288.674 C164.345,288.578 164.372,288.509 164.426,288.467 C164.48,288.425 164.543,288.404 164.615,288.404 L164.615,288.404 L164.615,288.08 L162.347,288.08 L162.347,288.404 C162.419,288.404 162.482,288.425 162.536,288.467 C162.59,288.509 162.617,288.578 162.617,288.674 L162.617,288.674 L162.617,295.406 C162.617,295.502 162.59,295.571 162.536,295.613 C162.482,295.655 162.419,295.676 162.347,295.676 L162.347,295.676 L162.347,296 L164.615,296 Z M177.953,292.724 L177.953,292.508 C177.845,292.508 177.767,292.463 177.719,292.373 C177.671,292.283 177.647,292.172 177.647,292.04 C177.647,291.764 177.755,291.506 177.971,291.266 C178.187,291.026 178.421,290.768 178.673,290.492 C178.937,290.216 179.174,289.913 179.384,289.583 C179.594,289.253 179.699,288.866 179.699,288.422 C179.699,288.062 179.624,287.741 179.474,287.459 C179.324,287.177 179.123,286.943 178.871,286.757 C178.619,286.571 178.334,286.427 178.016,286.325 C177.698,286.223 177.377,286.172 177.053,286.172 C176.549,286.172 176.141,286.232 175.829,286.352 C175.517,286.472 175.259,286.601 175.055,286.739 C174.851,286.877 174.686,287.006 174.56,287.126 C174.434,287.246 174.311,287.306 174.191,287.306 C174.179,287.306 174.113,287.294 173.993,287.27 L173.993,287.27 L173.831,287.432 L175.217,288.944 L175.379,288.818 C175.343,288.71 175.325,288.602 175.325,288.494 C175.325,288.422 175.358,288.329 175.424,288.215 C175.49,288.101 175.586,287.996 175.712,287.9 C175.838,287.804 175.994,287.72 176.18,287.648 C176.366,287.576 176.573,287.54 176.801,287.54 C177.113,287.54 177.374,287.633 177.584,287.819 C177.794,288.005 177.899,288.26 177.899,288.584 C177.899,288.86 177.821,289.103 177.665,289.313 C177.509,289.523 177.329,289.748 177.125,289.988 C176.933,290.216 176.75,290.48 176.576,290.78 C176.402,291.08 176.291,291.482 176.243,291.986 C176.219,292.19 176.18,292.328 176.126,292.4 C176.072,292.472 176.009,292.508 175.937,292.508 L175.937,292.508 L175.937,292.724 L177.953,292.724 Z M176.927,296.054 C177.239,296.054 177.509,295.949 177.737,295.739 C177.965,295.529 178.079,295.268 178.079,294.956 C178.079,294.644 177.965,294.374 177.737,294.146 C177.509,293.918 177.239,293.804 176.927,293.804 C176.615,293.804 176.345,293.918 176.117,294.146 C175.889,294.374 175.775,294.644 175.775,294.956 C175.775,295.268 175.889,295.529 176.117,295.739 C176.345,295.949 176.615,296.054 176.927,296.054 Z M58.19,314 L58.19,313.676 C57.962,313.676 57.848,313.61 57.848,313.478 C57.848,313.37 57.908,313.19 58.028,312.938 L58.028,312.938 L58.676,311.66 L63.068,311.66 L63.752,312.992 C63.848,313.184 63.896,313.34 63.896,313.46 C63.896,313.532 63.86,313.586 63.788,313.622 C63.716,313.658 63.656,313.676 63.608,313.676 L63.608,313.676 L63.608,314 L66.776,314 L66.776,313.676 C66.644,313.616 66.527,313.556 66.425,313.496 C66.323,313.436 66.242,313.34 66.182,313.208 L66.182,313.208 L62.438,305.882 C62.354,305.726 62.291,305.6 62.249,305.504 C62.207,305.408 62.186,305.312 62.186,305.216 C62.186,305.084 62.228,304.997 62.312,304.955 C62.396,304.913 62.48,304.88 62.564,304.856 L62.564,304.856 L62.564,304.532 L59.522,304.532 L59.522,304.856 C59.618,304.88 59.708,304.916 59.792,304.964 C59.876,305.012 59.918,305.096 59.918,305.216 C59.918,305.312 59.885,305.426 59.819,305.558 C59.753,305.69 59.678,305.834 59.594,305.99 L59.594,305.99 L56.264,312.992 C56.18,313.16 56.093,313.31 56.003,313.442 C55.913,313.574 55.79,313.652 55.634,313.676 L55.634,313.676 L55.634,314 L58.19,314 Z M62.42,310.328 L59.216,310.328 L60.908,306.98 L62.42,310.328 Z M73.544,314 C74.252,314 74.852,313.886 75.344,313.658 C75.836,313.43 76.238,313.133 76.55,312.767 C76.862,312.401 77.09,311.981 77.234,311.507 C77.378,311.033 77.45,310.544 77.45,310.04 C77.45,309.536 77.375,309.047 77.225,308.573 C77.075,308.099 76.841,307.679 76.523,307.313 C76.205,306.947 75.794,306.65 75.29,306.422 C74.786,306.194 74.18,306.08 73.472,306.08 L73.472,306.08 L68.468,306.08 L68.468,306.404 C68.744,306.404 68.882,306.494 68.882,306.674 L68.882,306.674 L68.882,313.406 C68.882,313.586 68.744,313.676 68.468,313.676 L68.468,313.676 L68.468,314 L73.544,314 Z M72.95,312.668 L70.61,312.668 L70.61,307.412 L72.95,307.412 C73.322,307.412 73.676,307.433 74.012,307.475 C74.348,307.517 74.642,307.625 74.894,307.799 C75.146,307.973 75.347,308.231 75.497,308.573 C75.647,308.915 75.722,309.386 75.722,309.986 C75.722,310.586 75.647,311.063 75.497,311.417 C75.347,311.771 75.146,312.041 74.894,312.227 C74.642,312.413 74.348,312.533 74.012,312.587 C73.676,312.641 73.322,312.668 72.95,312.668 L72.95,312.668 Z M84.542,314 C85.25,314 85.85,313.886 86.342,313.658 C86.834,313.43 87.236,313.133 87.548,312.767 C87.86,312.401 88.088,311.981 88.232,311.507 C88.376,311.033 88.448,310.544 88.448,310.04 C88.448,309.536 88.373,309.047 88.223,308.573 C88.073,308.099 87.839,307.679 87.521,307.313 C87.203,306.947 86.792,306.65 86.288,306.422 C85.784,306.194 85.178,306.08 84.47,306.08 L84.47,306.08 L79.466,306.08 L79.466,306.404 C79.742,306.404 79.88,306.494 79.88,306.674 L79.88,306.674 L79.88,313.406 C79.88,313.586 79.742,313.676 79.466,313.676 L79.466,313.676 L79.466,314 L84.542,314 Z M83.948,312.668 L81.608,312.668 L81.608,307.412 L83.948,307.412 C84.32,307.412 84.674,307.433 85.01,307.475 C85.346,307.517 85.64,307.625 85.892,307.799 C86.144,307.973 86.345,308.231 86.495,308.573 C86.645,308.915 86.72,309.386 86.72,309.986 C86.72,310.586 86.645,311.063 86.495,311.417 C86.345,311.771 86.144,312.041 85.892,312.227 C85.64,312.413 85.346,312.533 85.01,312.587 C84.674,312.641 84.32,312.668 83.948,312.668 L83.948,312.668 Z M100.436,314 L100.436,313.676 C100.22,313.676 100.112,313.586 100.112,313.406 L100.112,313.406 L100.112,307.412 L102.452,307.412 C102.548,307.412 102.638,307.436 102.722,307.484 C102.806,307.532 102.848,307.61 102.848,307.718 L102.848,307.718 L103.172,307.718 L103.172,305.648 L102.848,305.648 C102.848,305.816 102.806,305.93 102.722,305.99 C102.638,306.05 102.548,306.08 102.452,306.08 L102.452,306.08 L96.044,306.08 C95.948,306.08 95.858,306.05 95.774,305.99 C95.69,305.93 95.648,305.816 95.648,305.648 L95.648,305.648 L95.324,305.648 L95.324,307.718 L95.648,307.718 C95.648,307.61 95.69,307.532 95.774,307.484 C95.858,307.436 95.948,307.412 96.044,307.412 L96.044,307.412 L98.384,307.412 L98.384,313.406 C98.384,313.502 98.354,313.571 98.294,313.613 C98.234,313.655 98.174,313.676 98.114,313.676 L98.114,313.676 L98.114,314 L100.436,314 Z M107.6,314 L107.6,313.676 C107.528,313.676 107.465,313.655 107.411,313.613 C107.357,313.571 107.33,313.502 107.33,313.406 L107.33,313.406 L107.33,310.688 L112.154,310.688 L112.154,313.406 C112.154,313.502 112.127,313.571 112.073,313.613 C112.019,313.655 111.956,313.676 111.884,313.676 L111.884,313.676 L111.884,314 L114.152,314 L114.152,313.676 C114.08,313.676 114.017,313.655 113.963,313.613 C113.909,313.571 113.882,313.502 113.882,313.406 L113.882,313.406 L113.882,306.674 C113.882,306.578 113.909,306.509 113.963,306.467 C114.017,306.425 114.08,306.404 114.152,306.404 L114.152,306.404 L114.152,306.08 L111.884,306.08 L111.884,306.404 C111.956,306.404 112.019,306.425 112.073,306.467 C112.127,306.509 112.154,306.578 112.154,306.674 L112.154,306.674 L112.154,309.212 L107.33,309.212 L107.33,306.674 C107.33,306.578 107.357,306.509 107.411,306.467 C107.465,306.425 107.528,306.404 107.6,306.404 L107.6,306.404 L107.6,306.08 L105.332,306.08 L105.332,306.404 C105.404,306.404 105.467,306.425 105.521,306.467 C105.575,306.509 105.602,306.578 105.602,306.674 L105.602,306.674 L105.602,313.406 C105.602,313.502 105.575,313.571 105.521,313.613 C105.467,313.655 105.404,313.676 105.332,313.676 L105.332,313.676 L105.332,314 L107.6,314 Z M120.11,314 L120.11,313.676 C119.774,313.676 119.606,313.586 119.606,313.406 L119.606,313.406 L119.606,306.674 C119.606,306.494 119.774,306.404 120.11,306.404 L120.11,306.404 L120.11,306.08 L117.374,306.08 L117.374,306.404 C117.566,306.404 117.698,306.425 117.77,306.467 C117.842,306.509 117.878,306.578 117.878,306.674 L117.878,306.674 L117.878,313.406 C117.878,313.502 117.842,313.571 117.77,313.613 C117.698,313.655 117.566,313.676 117.374,313.676 L117.374,313.676 L117.374,314 L120.11,314 Z M126.608,314.054 C127.016,314.054 127.451,314.024 127.913,313.964 C128.375,313.904 128.798,313.778 129.182,313.586 C129.566,313.394 129.887,313.13 130.145,312.794 C130.403,312.458 130.532,312.026 130.532,311.498 C130.532,310.97 130.385,310.556 130.091,310.256 C129.797,309.956 129.428,309.728 128.984,309.572 C128.54,309.416 128.06,309.305 127.544,309.239 C127.028,309.173 126.548,309.107 126.104,309.041 C125.66,308.975 125.291,308.885 124.997,308.771 C124.703,308.657 124.556,308.468 124.556,308.204 C124.556,308.036 124.604,307.895 124.7,307.781 C124.796,307.667 124.928,307.574 125.096,307.502 C125.264,307.43 125.456,307.379 125.672,307.349 C125.888,307.319 126.116,307.304 126.356,307.304 C126.98,307.304 127.544,307.376 128.048,307.52 C128.552,307.664 128.924,307.838 129.164,308.042 C129.26,308.114 129.314,308.186 129.326,308.258 L129.326,308.258 L129.362,308.474 L129.686,308.582 L130.586,306.89 L130.388,306.692 C130.316,306.728 130.256,306.761 130.208,306.791 C130.16,306.821 130.088,306.836 129.992,306.836 C129.908,306.836 129.779,306.791 129.605,306.701 C129.431,306.611 129.206,306.512 128.93,306.404 C128.654,306.296 128.315,306.197 127.913,306.107 C127.511,306.017 127.028,305.972 126.464,305.972 C125.312,305.972 124.418,306.2 123.782,306.656 C123.146,307.112 122.828,307.724 122.828,308.492 C122.828,309.008 122.975,309.407 123.269,309.689 C123.563,309.971 123.932,310.187 124.376,310.337 C124.82,310.487 125.3,310.595 125.816,310.661 C126.332,310.727 126.812,310.793 127.256,310.859 C127.7,310.925 128.069,311.018 128.363,311.138 C128.657,311.258 128.804,311.45 128.804,311.714 C128.804,311.942 128.72,312.125 128.552,312.263 C128.384,312.401 128.18,312.509 127.94,312.587 C127.7,312.665 127.457,312.716 127.211,312.74 C126.965,312.764 126.758,312.776 126.59,312.776 C126.41,312.776 126.161,312.746 125.843,312.686 C125.525,312.626 125.207,312.545 124.889,312.443 C124.571,312.341 124.298,312.215 124.07,312.065 C123.842,311.915 123.728,311.75 123.728,311.57 C123.728,311.51 123.731,311.453 123.737,311.399 C123.743,311.345 123.746,311.294 123.746,311.246 L123.746,311.246 L123.404,311.156 L122.576,313.172 L122.828,313.352 C122.888,313.28 122.96,313.244 123.044,313.244 C123.092,313.244 123.23,313.289 123.458,313.379 C123.686,313.469 123.965,313.565 124.295,313.667 C124.625,313.769 124.991,313.859 125.393,313.937 C125.795,314.015 126.2,314.054 126.608,314.054 Z M142.934,314 L142.934,313.676 C142.718,313.676 142.61,313.586 142.61,313.406 L142.61,313.406 L142.61,307.412 L144.95,307.412 C145.046,307.412 145.136,307.436 145.22,307.484 C145.304,307.532 145.346,307.61 145.346,307.718 L145.346,307.718 L145.67,307.718 L145.67,305.648 L145.346,305.648 C145.346,305.816 145.304,305.93 145.22,305.99 C145.136,306.05 145.046,306.08 144.95,306.08 L144.95,306.08 L138.542,306.08 C138.446,306.08 138.356,306.05 138.272,305.99 C138.188,305.93 138.146,305.816 138.146,305.648 L138.146,305.648 L137.822,305.648 L137.822,307.718 L138.146,307.718 C138.146,307.61 138.188,307.532 138.272,307.484 C138.356,307.436 138.446,307.412 138.542,307.412 L138.542,307.412 L140.882,307.412 L140.882,313.406 C140.882,313.502 140.852,313.571 140.792,313.613 C140.732,313.655 140.672,313.676 140.612,313.676 L140.612,313.676 L140.612,314 L142.934,314 Z M151.736,314.054 C152.396,314.054 153.017,313.979 153.599,313.829 C154.181,313.679 154.688,313.436 155.12,313.1 C155.552,312.764 155.894,312.341 156.146,311.831 C156.398,311.321 156.524,310.724 156.524,310.04 C156.524,309.356 156.398,308.759 156.146,308.249 C155.894,307.739 155.552,307.316 155.12,306.98 C154.688,306.644 154.181,306.392 153.599,306.224 C153.017,306.056 152.396,305.972 151.736,305.972 C151.076,305.972 150.455,306.056 149.873,306.224 C149.291,306.392 148.784,306.644 148.352,306.98 C147.92,307.316 147.578,307.739 147.326,308.249 C147.074,308.759 146.948,309.356 146.948,310.04 C146.948,310.724 147.074,311.321 147.326,311.831 C147.578,312.341 147.92,312.764 148.352,313.1 C148.784,313.436 149.291,313.679 149.873,313.829 C150.455,313.979 151.076,314.054 151.736,314.054 Z M151.736,312.776 C151.352,312.776 150.977,312.713 150.611,312.587 C150.245,312.461 149.918,312.281 149.63,312.047 C149.342,311.813 149.111,311.528 148.937,311.192 C148.763,310.856 148.676,310.472 148.676,310.04 C148.676,309.608 148.763,309.224 148.937,308.888 C149.111,308.552 149.342,308.267 149.63,308.033 C149.918,307.799 150.245,307.619 150.611,307.493 C150.977,307.367 151.352,307.304 151.736,307.304 C152.12,307.304 152.495,307.367 152.861,307.493 C153.227,307.619 153.554,307.799 153.842,308.033 C154.13,308.267 154.361,308.552 154.535,308.888 C154.709,309.224 154.796,309.608 154.796,310.04 C154.796,310.472 154.709,310.856 154.535,311.192 C154.361,311.528 154.13,311.813 153.842,312.047 C153.554,312.281 153.227,312.461 152.861,312.587 C152.495,312.713 152.12,312.776 151.736,312.776 Z M168.944,314 L168.944,313.676 C168.716,313.676 168.602,313.586 168.602,313.406 L168.602,313.406 L168.602,310.706 L171.356,307.142 C171.488,306.974 171.641,306.809 171.815,306.647 C171.989,306.485 172.148,306.404 172.292,306.404 L172.292,306.404 L172.292,306.08 L169.538,306.08 L169.538,306.404 C169.598,306.404 169.658,306.416 169.718,306.44 C169.778,306.464 169.808,306.524 169.808,306.62 C169.808,306.692 169.781,306.767 169.727,306.845 C169.673,306.923 169.592,307.04 169.484,307.196 L169.484,307.196 L167.882,309.428 L166.064,307.052 C166.004,306.968 165.95,306.896 165.902,306.836 C165.854,306.776 165.83,306.71 165.83,306.638 C165.83,306.566 165.866,306.509 165.938,306.467 C166.01,306.425 166.076,306.404 166.136,306.404 L166.136,306.404 L166.136,306.08 L163.166,306.08 L163.166,306.404 C163.274,306.404 163.388,306.428 163.508,306.476 C163.628,306.524 163.73,306.602 163.814,306.71 L163.814,306.71 L166.874,310.634 L166.874,313.406 C166.874,313.586 166.766,313.676 166.55,313.676 L166.55,313.676 L166.55,314 L168.944,314 Z M178.232,314.054 C178.892,314.054 179.513,313.979 180.095,313.829 C180.677,313.679 181.184,313.436 181.616,313.1 C182.048,312.764 182.39,312.341 182.642,311.831 C182.894,311.321 183.02,310.724 183.02,310.04 C183.02,309.356 182.894,308.759 182.642,308.249 C182.39,307.739 182.048,307.316 181.616,306.98 C181.184,306.644 180.677,306.392 180.095,306.224 C179.513,306.056 178.892,305.972 178.232,305.972 C177.572,305.972 176.951,306.056 176.369,306.224 C175.787,306.392 175.28,306.644 174.848,306.98 C174.416,307.316 174.074,307.739 173.822,308.249 C173.57,308.759 173.444,309.356 173.444,310.04 C173.444,310.724 173.57,311.321 173.822,311.831 C174.074,312.341 174.416,312.764 174.848,313.1 C175.28,313.436 175.787,313.679 176.369,313.829 C176.951,313.979 177.572,314.054 178.232,314.054 Z M178.232,312.776 C177.848,312.776 177.473,312.713 177.107,312.587 C176.741,312.461 176.414,312.281 176.126,312.047 C175.838,311.813 175.607,311.528 175.433,311.192 C175.259,310.856 175.172,310.472 175.172,310.04 C175.172,309.608 175.259,309.224 175.433,308.888 C175.607,308.552 175.838,308.267 176.126,308.033 C176.414,307.799 176.741,307.619 177.107,307.493 C177.473,307.367 177.848,307.304 178.232,307.304 C178.616,307.304 178.991,307.367 179.357,307.493 C179.723,307.619 180.05,307.799 180.338,308.033 C180.626,308.267 180.857,308.552 181.031,308.888 C181.205,309.224 181.292,309.608 181.292,310.04 C181.292,310.472 181.205,310.856 181.031,311.192 C180.857,311.528 180.626,311.813 180.338,312.047 C180.05,312.281 179.723,312.461 179.357,312.587 C178.991,312.713 178.616,312.776 178.232,312.776 Z M189.806,314.054 C190.526,314.054 191.153,313.979 191.687,313.829 C192.221,313.679 192.659,313.472 193.001,313.208 C193.343,312.944 193.598,312.641 193.766,312.299 C193.934,311.957 194.018,311.6 194.018,311.228 L194.018,311.228 L194.018,306.674 C194.018,306.494 194.15,306.404 194.414,306.404 L194.414,306.404 L194.414,306.08 L191.912,306.08 L191.912,306.404 C192.212,306.404 192.362,306.494 192.362,306.674 L192.362,306.674 L192.362,310.796 C192.362,311.372 192.152,311.834 191.732,312.182 C191.312,312.53 190.67,312.704 189.806,312.704 C188.942,312.704 188.3,312.53 187.88,312.182 C187.46,311.834 187.25,311.372 187.25,310.796 L187.25,310.796 L187.25,306.674 C187.25,306.494 187.382,306.404 187.646,306.404 L187.646,306.404 L187.646,306.08 L185.072,306.08 L185.072,306.404 C185.276,306.404 185.414,306.425 185.486,306.467 C185.558,306.509 185.594,306.578 185.594,306.674 L185.594,306.674 L185.594,311.228 C185.594,311.6 185.678,311.957 185.846,312.299 C186.014,312.641 186.269,312.944 186.611,313.208 C186.953,313.472 187.391,313.679 187.925,313.829 C188.459,313.979 189.086,314.054 189.806,314.054 Z M199.544,314 L199.544,313.676 C199.472,313.676 199.397,313.655 199.319,313.613 C199.241,313.571 199.202,313.502 199.202,313.406 L199.202,313.406 L199.202,310.832 L201.704,310.832 L203.126,312.956 C203.306,313.208 203.396,313.394 203.396,313.514 C203.396,313.622 203.318,313.676 203.162,313.676 L203.162,313.676 L203.162,314 L205.916,314 L205.916,313.676 C205.784,313.64 205.661,313.589 205.547,313.523 C205.433,313.457 205.328,313.358 205.232,313.226 L205.232,313.226 L203.468,310.652 C203.72,310.592 203.966,310.505 204.206,310.391 C204.446,310.277 204.665,310.127 204.863,309.941 C205.061,309.755 205.22,309.536 205.34,309.284 C205.46,309.032 205.52,308.744 205.52,308.42 C205.52,307.568 205.22,306.965 204.62,306.611 C204.02,306.257 203.186,306.08 202.118,306.08 L202.118,306.08 L197.15,306.08 L197.15,306.404 C197.366,306.404 197.474,306.494 197.474,306.674 L197.474,306.674 L197.474,313.406 C197.474,313.586 197.366,313.676 197.15,313.676 L197.15,313.676 L197.15,314 L199.544,314 Z M202.082,309.5 L199.238,309.5 L199.238,307.412 L202.082,307.412 C202.694,307.412 203.141,307.499 203.423,307.673 C203.705,307.847 203.846,308.084 203.846,308.384 C203.846,309.128 203.258,309.5 202.082,309.5 L202.082,309.5 Z M74.354,332.054 C74.762,332.054 75.197,332.024 75.659,331.964 C76.121,331.904 76.544,331.778 76.928,331.586 C77.312,331.394 77.633,331.13 77.891,330.794 C78.149,330.458 78.278,330.026 78.278,329.498 C78.278,328.97 78.131,328.556 77.837,328.256 C77.543,327.956 77.174,327.728 76.73,327.572 C76.286,327.416 75.806,327.305 75.29,327.239 C74.774,327.173 74.294,327.107 73.85,327.041 C73.406,326.975 73.037,326.885 72.743,326.771 C72.449,326.657 72.302,326.468 72.302,326.204 C72.302,326.036 72.35,325.895 72.446,325.781 C72.542,325.667 72.674,325.574 72.842,325.502 C73.01,325.43 73.202,325.379 73.418,325.349 C73.634,325.319 73.862,325.304 74.102,325.304 C74.726,325.304 75.29,325.376 75.794,325.52 C76.298,325.664 76.67,325.838 76.91,326.042 C77.006,326.114 77.06,326.186 77.072,326.258 L77.072,326.258 L77.108,326.474 L77.432,326.582 L78.332,324.89 L78.134,324.692 C78.062,324.728 78.002,324.761 77.954,324.791 C77.906,324.821 77.834,324.836 77.738,324.836 C77.654,324.836 77.525,324.791 77.351,324.701 C77.177,324.611 76.952,324.512 76.676,324.404 C76.4,324.296 76.061,324.197 75.659,324.107 C75.257,324.017 74.774,323.972 74.21,323.972 C73.058,323.972 72.164,324.2 71.528,324.656 C70.892,325.112 70.574,325.724 70.574,326.492 C70.574,327.008 70.721,327.407 71.015,327.689 C71.309,327.971 71.678,328.187 72.122,328.337 C72.566,328.487 73.046,328.595 73.562,328.661 C74.078,328.727 74.558,328.793 75.002,328.859 C75.446,328.925 75.815,329.018 76.109,329.138 C76.403,329.258 76.55,329.45 76.55,329.714 C76.55,329.942 76.466,330.125 76.298,330.263 C76.13,330.401 75.926,330.509 75.686,330.587 C75.446,330.665 75.203,330.716 74.957,330.74 C74.711,330.764 74.504,330.776 74.336,330.776 C74.156,330.776 73.907,330.746 73.589,330.686 C73.271,330.626 72.953,330.545 72.635,330.443 C72.317,330.341 72.044,330.215 71.816,330.065 C71.588,329.915 71.474,329.75 71.474,329.57 C71.474,329.51 71.477,329.453 71.483,329.399 C71.489,329.345 71.492,329.294 71.492,329.246 L71.492,329.246 L71.15,329.156 L70.322,331.172 L70.574,331.352 C70.634,331.28 70.706,331.244 70.79,331.244 C70.838,331.244 70.976,331.289 71.204,331.379 C71.432,331.469 71.711,331.565 72.041,331.667 C72.371,331.769 72.737,331.859 73.139,331.937 C73.541,332.015 73.946,332.054 74.354,332.054 Z M85.712,332 L85.712,331.676 C85.484,331.676 85.37,331.586 85.37,331.406 L85.37,331.406 L85.37,328.706 L88.124,325.142 C88.256,324.974 88.409,324.809 88.583,324.647 C88.757,324.485 88.916,324.404 89.06,324.404 L89.06,324.404 L89.06,324.08 L86.306,324.08 L86.306,324.404 C86.366,324.404 86.426,324.416 86.486,324.44 C86.546,324.464 86.576,324.524 86.576,324.62 C86.576,324.692 86.549,324.767 86.495,324.845 C86.441,324.923 86.36,325.04 86.252,325.196 L86.252,325.196 L84.65,327.428 L82.832,325.052 C82.772,324.968 82.718,324.896 82.67,324.836 C82.622,324.776 82.598,324.71 82.598,324.638 C82.598,324.566 82.634,324.509 82.706,324.467 C82.778,324.425 82.844,324.404 82.904,324.404 L82.904,324.404 L82.904,324.08 L79.934,324.08 L79.934,324.404 C80.042,324.404 80.156,324.428 80.276,324.476 C80.396,324.524 80.498,324.602 80.582,324.71 L80.582,324.71 L83.642,328.634 L83.642,331.406 C83.642,331.586 83.534,331.676 83.318,331.676 L83.318,331.676 L83.318,332 L85.712,332 Z M93.218,332 L93.218,331.676 C93.014,331.676 92.912,331.586 92.912,331.406 L92.912,331.406 L92.912,326.348 L92.93,326.348 L95.828,332 L95.972,332 L99.032,326.348 L99.068,326.348 L99.068,331.406 C99.104,331.586 98.996,331.676 98.744,331.676 L98.744,331.676 L98.744,332 L100.832,332 L100.832,331.676 C100.772,331.676 100.715,331.655 100.661,331.613 C100.607,331.571 100.58,331.502 100.58,331.406 L100.58,331.406 L100.58,324.638 C100.58,324.542 100.607,324.479 100.661,324.449 C100.715,324.419 100.772,324.404 100.832,324.404 L100.832,324.404 L100.832,324.08 L98.294,324.08 L98.294,324.404 C98.39,324.404 98.438,324.458 98.438,324.566 C98.438,324.602 98.414,324.665 98.366,324.755 C98.318,324.845 98.252,324.962 98.168,325.106 L98.168,325.106 L95.954,329.138 L93.758,325.088 C93.674,324.944 93.611,324.833 93.569,324.755 C93.527,324.677 93.506,324.614 93.506,324.566 C93.506,324.458 93.566,324.404 93.686,324.404 L93.686,324.404 L93.686,324.08 L91.184,324.08 L91.184,324.404 C91.268,324.404 91.325,324.422 91.355,324.458 C91.385,324.494 91.4,324.596 91.4,324.764 L91.4,324.764 L91.4,331.352 C91.4,331.484 91.379,331.568 91.337,331.604 C91.295,331.64 91.244,331.664 91.184,331.676 L91.184,331.676 L91.184,332 L93.218,332 Z M106.268,332 L106.268,331.676 C106.016,331.676 105.89,331.586 105.89,331.406 L105.89,331.406 L105.89,328.706 L108.95,328.706 C109.922,328.706 110.651,328.541 111.137,328.211 C111.623,327.881 111.866,327.284 111.866,326.42 C111.866,325.556 111.623,324.95 111.137,324.602 C110.651,324.254 109.922,324.08 108.95,324.08 L108.95,324.08 L103.712,324.08 L103.712,324.404 C104.012,324.404 104.162,324.494 104.162,324.674 L104.162,324.674 L104.162,331.406 C104.162,331.586 104.012,331.676 103.712,331.676 L103.712,331.676 L103.712,332 L106.268,332 Z M108.914,327.374 L105.89,327.374 L105.89,325.412 L108.914,325.412 C109.262,325.412 109.553,325.487 109.787,325.637 C110.021,325.787 110.138,326.048 110.138,326.42 C110.138,326.804 110.021,327.059 109.787,327.185 C109.553,327.311 109.262,327.374 108.914,327.374 L108.914,327.374 Z M118.202,332 L118.202,331.676 C117.986,331.676 117.878,331.586 117.878,331.406 L117.878,331.406 L117.878,325.412 L120.218,325.412 C120.314,325.412 120.404,325.436 120.488,325.484 C120.572,325.532 120.614,325.61 120.614,325.718 L120.614,325.718 L120.938,325.718 L120.938,323.648 L120.614,323.648 C120.614,323.816 120.572,323.93 120.488,323.99 C120.404,324.05 120.314,324.08 120.218,324.08 L120.218,324.08 L113.81,324.08 C113.714,324.08 113.624,324.05 113.54,323.99 C113.456,323.93 113.414,323.816 113.414,323.648 L113.414,323.648 L113.09,323.648 L113.09,325.718 L113.414,325.718 C113.414,325.61 113.456,325.532 113.54,325.484 C113.624,325.436 113.714,325.412 113.81,325.412 L113.81,325.412 L116.15,325.412 L116.15,331.406 C116.15,331.502 116.12,331.571 116.06,331.613 C116,331.655 115.94,331.676 115.88,331.676 L115.88,331.676 L115.88,332 L118.202,332 Z M127.004,332.054 C127.664,332.054 128.285,331.979 128.867,331.829 C129.449,331.679 129.956,331.436 130.388,331.1 C130.82,330.764 131.162,330.341 131.414,329.831 C131.666,329.321 131.792,328.724 131.792,328.04 C131.792,327.356 131.666,326.759 131.414,326.249 C131.162,325.739 130.82,325.316 130.388,324.98 C129.956,324.644 129.449,324.392 128.867,324.224 C128.285,324.056 127.664,323.972 127.004,323.972 C126.344,323.972 125.723,324.056 125.141,324.224 C124.559,324.392 124.052,324.644 123.62,324.98 C123.188,325.316 122.846,325.739 122.594,326.249 C122.342,326.759 122.216,327.356 122.216,328.04 C122.216,328.724 122.342,329.321 122.594,329.831 C122.846,330.341 123.188,330.764 123.62,331.1 C124.052,331.436 124.559,331.679 125.141,331.829 C125.723,331.979 126.344,332.054 127.004,332.054 Z M127.004,330.776 C126.62,330.776 126.245,330.713 125.879,330.587 C125.513,330.461 125.186,330.281 124.898,330.047 C124.61,329.813 124.379,329.528 124.205,329.192 C124.031,328.856 123.944,328.472 123.944,328.04 C123.944,327.608 124.031,327.224 124.205,326.888 C124.379,326.552 124.61,326.267 124.898,326.033 C125.186,325.799 125.513,325.619 125.879,325.493 C126.245,325.367 126.62,325.304 127.004,325.304 C127.388,325.304 127.763,325.367 128.129,325.493 C128.495,325.619 128.822,325.799 129.11,326.033 C129.398,326.267 129.629,326.552 129.803,326.888 C129.977,327.224 130.064,327.608 130.064,328.04 C130.064,328.472 129.977,328.856 129.803,329.192 C129.629,329.528 129.398,329.813 129.11,330.047 C128.822,330.281 128.495,330.461 128.129,330.587 C127.763,330.713 127.388,330.776 127.004,330.776 Z M136.22,332 L136.22,331.676 C136.016,331.676 135.914,331.586 135.914,331.406 L135.914,331.406 L135.914,326.348 L135.932,326.348 L138.83,332 L138.974,332 L142.034,326.348 L142.07,326.348 L142.07,331.406 C142.106,331.586 141.998,331.676 141.746,331.676 L141.746,331.676 L141.746,332 L143.834,332 L143.834,331.676 C143.774,331.676 143.717,331.655 143.663,331.613 C143.609,331.571 143.582,331.502 143.582,331.406 L143.582,331.406 L143.582,324.638 C143.582,324.542 143.609,324.479 143.663,324.449 C143.717,324.419 143.774,324.404 143.834,324.404 L143.834,324.404 L143.834,324.08 L141.296,324.08 L141.296,324.404 C141.392,324.404 141.44,324.458 141.44,324.566 C141.44,324.602 141.416,324.665 141.368,324.755 C141.32,324.845 141.254,324.962 141.17,325.106 L141.17,325.106 L138.956,329.138 L136.76,325.088 C136.676,324.944 136.613,324.833 136.571,324.755 C136.529,324.677 136.508,324.614 136.508,324.566 C136.508,324.458 136.568,324.404 136.688,324.404 L136.688,324.404 L136.688,324.08 L134.186,324.08 L134.186,324.404 C134.27,324.404 134.327,324.422 134.357,324.458 C134.387,324.494 134.402,324.596 134.402,324.764 L134.402,324.764 L134.402,331.352 C134.402,331.484 134.381,331.568 134.339,331.604 C134.297,331.64 134.246,331.664 134.186,331.676 L134.186,331.676 L134.186,332 L136.22,332 Z M154.76,332 L154.76,331.676 C154.508,331.676 154.382,331.586 154.382,331.406 L154.382,331.406 L154.382,328.706 L157.442,328.706 C158.414,328.706 159.143,328.541 159.629,328.211 C160.115,327.881 160.358,327.284 160.358,326.42 C160.358,325.556 160.115,324.95 159.629,324.602 C159.143,324.254 158.414,324.08 157.442,324.08 L157.442,324.08 L152.204,324.08 L152.204,324.404 C152.504,324.404 152.654,324.494 152.654,324.674 L152.654,324.674 L152.654,331.406 C152.654,331.586 152.504,331.676 152.204,331.676 L152.204,331.676 L152.204,332 L154.76,332 Z M157.406,327.374 L154.382,327.374 L154.382,325.412 L157.406,325.412 C157.754,325.412 158.045,325.487 158.279,325.637 C158.513,325.787 158.63,326.048 158.63,326.42 C158.63,326.804 158.513,327.059 158.279,327.185 C158.045,327.311 157.754,327.374 157.406,327.374 L157.406,327.374 Z M165.362,332 L165.362,331.676 C165.026,331.676 164.858,331.586 164.858,331.406 L164.858,331.406 L164.858,324.674 C164.858,324.494 165.026,324.404 165.362,324.404 L165.362,324.404 L165.362,324.08 L162.626,324.08 L162.626,324.404 C162.818,324.404 162.95,324.425 163.022,324.467 C163.094,324.509 163.13,324.578 163.13,324.674 L163.13,324.674 L163.13,331.406 C163.13,331.502 163.094,331.571 163.022,331.613 C162.95,331.655 162.818,331.676 162.626,331.676 L162.626,331.676 L162.626,332 L165.362,332 Z M176.252,332.18 L176.252,330.29 L175.928,330.29 C175.928,330.41 175.88,330.503 175.784,330.569 C175.688,330.635 175.568,330.668 175.424,330.668 L175.424,330.668 L170.564,330.668 L170.564,324.674 C170.564,324.494 170.702,324.404 170.978,324.404 L170.978,324.404 L170.978,324.08 L168.368,324.08 L168.368,324.404 C168.68,324.404 168.836,324.494 168.836,324.674 L168.836,324.674 L168.836,331.406 C168.836,331.586 168.68,331.676 168.368,331.676 L168.368,331.676 L168.368,332 L175.424,332 C175.568,332 175.688,332.006 175.784,332.018 C175.88,332.03 175.928,332.084 175.928,332.18 L175.928,332.18 L176.252,332.18 Z M185.918,332.198 L185.918,330.308 L185.594,330.308 C185.594,330.416 185.546,330.503 185.45,330.569 C185.354,330.635 185.234,330.668 185.09,330.668 L185.09,330.668 L180.482,330.668 L180.482,328.544 L183.11,328.544 C183.35,328.544 183.536,328.559 183.668,328.589 C183.8,328.619 183.848,328.7 183.812,328.832 L183.812,328.832 L184.172,328.832 L184.172,326.924 L183.848,326.924 C183.848,327.056 183.8,327.137 183.704,327.167 C183.608,327.197 183.458,327.212 183.254,327.212 L183.254,327.212 L180.482,327.212 L180.482,325.412 L184.874,325.412 C185.246,325.412 185.432,325.526 185.432,325.754 L185.432,325.754 L185.756,325.754 L185.756,323.756 L185.432,323.756 C185.432,323.972 185.246,324.08 184.874,324.08 L184.874,324.08 L178.484,324.08 L178.484,324.404 C178.544,324.404 178.604,324.425 178.664,324.467 C178.724,324.509 178.754,324.578 178.754,324.674 L178.754,324.674 L178.754,331.406 C178.754,331.502 178.724,331.571 178.664,331.613 C178.604,331.655 178.544,331.676 178.484,331.676 L178.484,331.676 L178.484,332 L185.09,332 C185.234,332 185.354,332.006 185.45,332.018 C185.546,332.03 185.594,332.09 185.594,332.198 L185.594,332.198 L185.918,332.198 Z M189.752,332.054 C190.1,332.054 190.4,331.937 190.652,331.703 C190.904,331.469 191.03,331.178 191.03,330.83 C191.03,330.482 190.904,330.182 190.652,329.93 C190.4,329.678 190.1,329.552 189.752,329.552 C189.404,329.552 189.104,329.678 188.852,329.93 C188.6,330.182 188.474,330.482 188.474,330.83 C188.474,331.178 188.6,331.469 188.852,331.703 C189.104,331.937 189.404,332.054 189.752,332.054 Z" id="MaybeImallergictothecouch?Addthistoyoursymptompile." fill="#000000" fill-rule="nonzero"></path>
    </g>
</svg>