<?xml version="1.0" encoding="UTF-8"?>
<svg width="262px" height="360px" viewBox="0 0 262 360" version="1.1" xmlns="http://www.w3.org/2000/svg" xmlns:xlink="http://www.w3.org/1999/xlink">
    <title>Fever 3</title>
    <g id="Fever-3" stroke="none" stroke-width="1" fill="none" fill-rule="evenodd">
        <g id="Group" transform="translate(9.000000, 9.000000)" fill="#FFFFFF" stroke="#000000" stroke-width="3">
            <g id="Rectangle">
                <rect x="1.5" y="1.5" width="239" height="337" rx="8"></rect>
            </g>
        </g>
        <path d="M219.82,30.312 L219.82,27.12 L219.532,27.12 C219.532,27.44 219.456,27.632 219.304,27.696 C219.152,27.76 218.988,27.792 218.812,27.792 L218.812,27.792 L210.892,27.792 L210.892,27.552 C211.324,27.152 211.824,26.824 212.392,26.568 C212.96,26.312 213.552,26.068 214.168,25.836 C214.784,25.604 215.388,25.368 215.98,25.128 C216.572,24.888 217.104,24.596 217.576,24.252 C218.048,23.908 218.428,23.488 218.716,22.992 C219.004,22.496 219.148,21.872 219.148,21.12 C219.148,20.416 219.008,19.82 218.728,19.332 C218.448,18.844 218.08,18.444 217.624,18.132 C217.168,17.82 216.648,17.592 216.064,17.448 C215.48,17.304 214.884,17.232 214.276,17.232 C213.348,17.232 212.548,17.352 211.876,17.592 C211.204,17.832 210.644,18.096 210.196,18.384 C209.748,18.672 209.396,18.936 209.14,19.176 C208.884,19.416 208.708,19.536 208.612,19.536 C208.532,19.536 208.46,19.52 208.396,19.488 L208.396,19.488 L208.204,19.392 L207.964,19.56 L210.436,22.2 L210.676,22.032 C210.612,21.984 210.56,21.896 210.52,21.768 C210.48,21.64 210.46,21.536 210.46,21.456 C210.46,21.12 210.592,20.82 210.856,20.556 C211.12,20.292 211.436,20.064 211.804,19.872 C212.172,19.68 212.556,19.536 212.956,19.44 C213.356,19.344 213.692,19.296 213.964,19.296 C214.236,19.296 214.516,19.32 214.804,19.368 C215.092,19.416 215.356,19.508 215.596,19.644 C215.836,19.78 216.032,19.956 216.184,20.172 C216.336,20.388 216.412,20.664 216.412,21 C216.412,21.496 216.2,21.928 215.776,22.296 C215.352,22.664 214.82,23.02 214.18,23.364 C213.54,23.708 212.852,24.056 212.116,24.408 C211.38,24.76 210.692,25.168 210.052,25.632 C209.412,26.096 208.88,26.632 208.456,27.24 C208.032,27.848 207.82,28.576 207.82,29.424 L207.82,29.424 L207.82,30.288 L208.108,30.288 C208.108,30.144 208.164,30.06 208.276,30.036 C208.388,30.012 208.532,30 208.708,30 L208.708,30 L218.812,30 C218.988,30 219.152,30.008 219.304,30.024 C219.456,30.04 219.532,30.136 219.532,30.312 L219.532,30.312 L219.82,30.312 Z" id="2" fill="#000000" fill-rule="nonzero"></path>
        <g id="Face" transform="translate(225.000000, 15.000000)">
            <circle id="Oval" stroke="#000000" fill="#FFFFFF" cx="9.5" cy="9.5" r="9"></circle>
            <circle id="Oval" fill="#000000" cx="5" cy="8" r="1"></circle>
            <circle id="Oval-Copy" fill="#000000" cx="12" cy="8" r="1"></circle>
            <line x1="12.0789474" y1="13.9090909" x2="14.5" y2="11.5" id="Line-4" stroke="#000000" stroke-linecap="round"></line>
            <path d="M3,5.89285714 C3.41025641,5.96428571 3.76923077,6 4.07692308,6 C4.38461538,6 5.35897436,5.33333333 7,4" id="Line-2" stroke="#000000"></path>
            <path d="M6,15 C6.96078431,14.3333333 8.07598039,14 9.34558824,14 C10.6151961,14 11.8333333,14.3333333 13,15" id="Line" stroke="#000000" stroke-linecap="round" stroke-linejoin="round"></path>
            <path d="M11.3197366,4.68245322 C11.585843,4.80663622 11.7912611,4.92388646 11.9359908,5.03420394 C12.548667,5.50120471 13.1333088,5.70898724 13.3155349,5.80010028 C13.5440857,5.91437569 13.8101922,6.00751295 14.1138542,6.07951204" id="Line-3" stroke="#000000" stroke-linecap="square" transform="translate(12.716795, 5.380983) rotate(-3.000000) translate(-12.716795, -5.380983) "></path>
            <path d="M2.999,9.347 L3.01687864,9.39698204 C3.09438102,9.62639002 3.1880913,9.89570266 3.30282211,10.2112791 C3.48139895,10.7024692 3.54804655,11.0169045 3.47980817,11.2204078 C3.41244402,11.421304 3.17143148,11.4011566 3.01518318,11.4416373 L3.01518318,11.4416373 L2.86575433,11.4813457 C2.78836954,11.5029149 2.70310591,11.5126925 2.63007237,11.4810832 C2.58941161,11.463485 2.56030088,11.4264037 2.54036126,11.376794 C2.4446463,11.1386559 2.49784548,10.759559 2.69717789,10.2112791 C2.8119087,9.89570266 2.90561898,9.62639002 2.98312136,9.39698204 L2.999,9.347 Z" id="Oval" stroke="#000000"></path>
            <path d="M16,6.347 L16.0168786,6.39698204 C16.094381,6.62639002 16.1880913,6.89570266 16.3028221,7.21127907 C16.481399,7.70246915 16.5480465,8.01690453 16.4798082,8.22040783 C16.412444,8.42130397 16.1714315,8.40115659 16.0151832,8.44163726 L16.0151832,8.44163726 L15.8657543,8.48134574 C15.7883695,8.50291486 15.7031059,8.51269255 15.6300724,8.48108319 C15.5894116,8.46348497 15.5603009,8.42640366 15.5403613,8.37679403 C15.4446463,8.13865595 15.4978455,7.75955902 15.6971779,7.21127907 C15.8119087,6.89570266 15.905619,6.62639002 15.9831214,6.39698204 L16,6.347 Z" id="Oval-Copy-2" stroke="#000000"></path>
        </g>
        <rect id="Rectangle" stroke="#000000" stroke-width="3" x="17.5" y="233.5" width="225" height="108" rx="8"></rect>
        <path d="M87.476,57 L87.476,56.352 C87.164,56.352 86.906,56.298 86.702,56.19 C86.498,56.082 86.396,55.92 86.396,55.704 L86.396,55.704 L86.396,48.72 L93.452,48.72 C93.932,48.72 94.304,48.798 94.568,48.954 C94.832,49.11 94.964,49.464 94.964,50.016 L94.964,50.016 L95.612,50.016 L95.612,44.832 L94.964,44.832 C94.964,45.168 94.832,45.384 94.568,45.48 C94.304,45.576 93.932,45.624 93.452,45.624 L93.452,45.624 L86.396,45.624 L86.396,41.16 L98.06,41.16 C98.564,41.16 98.918,41.226 99.122,41.358 C99.326,41.49 99.428,41.688 99.428,41.952 L99.428,41.952 L100.076,41.952 L100.076,37.2 L99.428,37.2 C99.428,37.464 99.326,37.674 99.122,37.83 C98.918,37.986 98.564,38.064 98.06,38.064 L98.06,38.064 L81.356,38.064 L81.356,38.712 C81.98,38.712 82.292,38.928 82.292,39.36 L82.292,39.36 L82.292,55.704 C82.292,56.136 81.98,56.352 81.356,56.352 L81.356,56.352 L81.356,57 L87.476,57 Z M118.796,57.396 L118.796,53.616 L118.148,53.616 C118.148,53.832 118.052,54.006 117.86,54.138 C117.668,54.27 117.428,54.336 117.14,54.336 L117.14,54.336 L107.924,54.336 L107.924,50.088 L113.18,50.088 C113.66,50.088 114.032,50.118 114.296,50.178 C114.56,50.238 114.656,50.4 114.584,50.664 L114.584,50.664 L115.304,50.664 L115.304,46.848 L114.656,46.848 C114.656,47.112 114.56,47.274 114.368,47.334 C114.176,47.394 113.876,47.424 113.468,47.424 L113.468,47.424 L107.924,47.424 L107.924,43.824 L116.708,43.824 C117.452,43.824 117.824,44.052 117.824,44.508 L117.824,44.508 L118.472,44.508 L118.472,40.512 L117.824,40.512 C117.824,40.944 117.452,41.16 116.708,41.16 L116.708,41.16 L103.928,41.16 L103.928,41.808 C104.048,41.808 104.168,41.85 104.288,41.934 C104.408,42.018 104.468,42.156 104.468,42.348 L104.468,42.348 L104.468,55.812 C104.468,56.004 104.408,56.142 104.288,56.226 C104.168,56.31 104.048,56.352 103.928,56.352 L103.928,56.352 L103.928,57 L117.14,57 C117.428,57 117.668,57.012 117.86,57.036 C118.052,57.06 118.148,57.18 118.148,57.396 L118.148,57.396 L118.796,57.396 Z M133.844,57 L133.844,56.352 C133.412,56.28 133.196,56.172 133.196,56.028 C133.196,55.908 133.262,55.74 133.394,55.524 C133.526,55.308 133.724,54.888 133.988,54.264 L133.988,54.264 L139.244,42.636 C139.508,42.084 139.808,41.808 140.144,41.808 L140.144,41.808 L140.144,41.16 L135.428,41.16 L135.428,41.808 C135.764,41.808 135.944,41.952 135.968,42.24 C135.992,42.408 135.932,42.636 135.788,42.924 C135.644,43.212 135.44,43.644 135.176,44.22 L135.176,44.22 L131.252,52.932 L127.112,43.968 C126.944,43.608 126.794,43.278 126.662,42.978 C126.53,42.678 126.464,42.444 126.464,42.276 C126.464,41.964 126.608,41.808 126.896,41.808 L126.896,41.808 L126.896,41.16 L121.82,41.16 L121.82,41.808 C121.964,41.808 122.114,41.868 122.27,41.988 C122.426,42.108 122.552,42.276 122.648,42.492 L122.648,42.492 L128.12,54.264 C128.336,54.72 128.522,55.08 128.678,55.344 L128.7495,55.47 C128.857833,55.67 128.912,55.82 128.912,55.92 C128.912,56.04 128.858,56.13 128.75,56.19 C128.642,56.25 128.528,56.304 128.408,56.352 L128.408,56.352 L128.408,57 L133.844,57 Z M158.828,57.396 L158.828,53.616 L158.18,53.616 C158.18,53.832 158.084,54.006 157.892,54.138 C157.7,54.27 157.46,54.336 157.172,54.336 L157.172,54.336 L147.956,54.336 L147.956,50.088 L153.212,50.088 C153.692,50.088 154.064,50.118 154.328,50.178 C154.592,50.238 154.688,50.4 154.616,50.664 L154.616,50.664 L155.336,50.664 L155.336,46.848 L154.688,46.848 C154.688,47.112 154.592,47.274 154.4,47.334 C154.208,47.394 153.908,47.424 153.5,47.424 L153.5,47.424 L147.956,47.424 L147.956,43.824 L156.74,43.824 C157.484,43.824 157.856,44.052 157.856,44.508 L157.856,44.508 L158.504,44.508 L158.504,40.512 L157.856,40.512 C157.856,40.944 157.484,41.16 156.74,41.16 L156.74,41.16 L143.96,41.16 L143.96,41.808 C144.08,41.808 144.2,41.85 144.32,41.934 C144.44,42.018 144.5,42.156 144.5,42.348 L144.5,42.348 L144.5,55.812 C144.5,56.004 144.44,56.142 144.32,56.226 C144.2,56.31 144.08,56.352 143.96,56.352 L143.96,56.352 L143.96,57 L157.172,57 C157.46,57 157.7,57.012 157.892,57.036 C158.084,57.06 158.18,57.18 158.18,57.396 L158.18,57.396 L158.828,57.396 Z M168.62,57 L168.62,56.352 C168.476,56.352 168.326,56.31 168.17,56.226 C168.014,56.142 167.936,56.004 167.936,55.812 L167.936,55.812 L167.936,50.664 L172.94,50.664 L175.784,54.912 C176.144,55.416 176.324,55.788 176.324,56.028 C176.324,56.244 176.168,56.352 175.856,56.352 L175.856,56.352 L175.856,57 L181.364,57 L181.364,56.352 C181.1,56.28 180.854,56.178 180.626,56.046 C180.398,55.914 180.188,55.716 179.996,55.452 L179.996,55.452 L176.468,50.304 C176.972,50.184 177.464,50.01 177.944,49.782 C178.424,49.554 178.862,49.254 179.258,48.882 C179.654,48.51 179.972,48.072 180.212,47.568 C180.452,47.064 180.572,46.488 180.572,45.84 C180.572,44.136 179.972,42.93 178.772,42.222 C177.572,41.514 175.904,41.16 173.768,41.16 L173.768,41.16 L163.832,41.16 L163.832,41.808 C164.264,41.808 164.48,41.988 164.48,42.348 L164.48,42.348 L164.48,55.812 C164.48,56.172 164.264,56.352 163.832,56.352 L163.832,56.352 L163.832,57 L168.62,57 Z M173.696,48 L168.008,48 L168.008,43.824 L173.696,43.824 C174.92,43.824 175.814,43.998 176.378,44.346 C176.942,44.694 177.224,45.168 177.224,45.768 C177.224,47.256 176.048,48 173.696,48 L173.696,48 Z" id="Fever" fill="#000000" fill-rule="nonzero"></path>
        <path d="M38.65,255 L38.65,254.676 C38.386,254.676 38.254,254.568 38.254,254.352 L38.254,254.352 L38.254,247.188 L41.224,247.188 C41.332,247.188 41.437,247.218 41.539,247.278 C41.641,247.338 41.692,247.452 41.692,247.62 L41.692,247.62 L42.016,247.62 L42.016,245.1 L41.692,245.1 C41.692,245.268 41.641,245.382 41.539,245.442 C41.437,245.502 41.332,245.532 41.224,245.532 L41.224,245.532 L33.232,245.532 C33.124,245.532 33.019,245.502 32.917,245.442 C32.815,245.382 32.764,245.268 32.764,245.1 L32.764,245.1 L32.44,245.1 L32.44,247.62 L32.764,247.62 C32.764,247.452 32.815,247.338 32.917,247.278 C33.019,247.218 33.124,247.188 33.232,247.188 L33.232,247.188 L36.202,247.188 L36.202,254.352 C36.202,254.46 36.169,254.541 36.103,254.595 C36.037,254.649 35.962,254.676 35.878,254.676 L35.878,254.676 L35.878,255 L38.65,255 Z M46.588,255 L46.588,254.676 C46.516,254.676 46.453,254.655 46.399,254.613 C46.345,254.571 46.318,254.502 46.318,254.406 L46.318,254.406 L46.318,251.688 L51.142,251.688 L51.142,254.406 C51.142,254.502 51.115,254.571 51.061,254.613 C51.007,254.655 50.944,254.676 50.872,254.676 L50.872,254.676 L50.872,255 L53.14,255 L53.14,254.676 C53.068,254.676 53.005,254.655 52.951,254.613 C52.897,254.571 52.87,254.502 52.87,254.406 L52.87,254.406 L52.87,247.674 C52.87,247.578 52.897,247.509 52.951,247.467 C53.005,247.425 53.068,247.404 53.14,247.404 L53.14,247.404 L53.14,247.08 L50.872,247.08 L50.872,247.404 C50.944,247.404 51.007,247.425 51.061,247.467 C51.115,247.509 51.142,247.578 51.142,247.674 L51.142,247.674 L51.142,250.212 L46.318,250.212 L46.318,247.674 C46.318,247.578 46.345,247.509 46.399,247.467 C46.453,247.425 46.516,247.404 46.588,247.404 L46.588,247.404 L46.588,247.08 L44.32,247.08 L44.32,247.404 C44.392,247.404 44.455,247.425 44.509,247.467 C44.563,247.509 44.59,247.578 44.59,247.674 L44.59,247.674 L44.59,254.406 C44.59,254.502 44.563,254.571 44.509,254.613 C44.455,254.655 44.392,254.676 44.32,254.676 L44.32,254.676 L44.32,255 L46.588,255 Z M63.652,255.198 L63.652,253.308 L63.328,253.308 C63.328,253.416 63.28,253.503 63.184,253.569 C63.088,253.635 62.968,253.668 62.824,253.668 L62.824,253.668 L58.216,253.668 L58.216,251.544 L60.844,251.544 C61.084,251.544 61.27,251.559 61.402,251.589 C61.534,251.619 61.582,251.7 61.546,251.832 L61.546,251.832 L61.906,251.832 L61.906,249.924 L61.582,249.924 C61.582,250.056 61.534,250.137 61.438,250.167 C61.342,250.197 61.192,250.212 60.988,250.212 L60.988,250.212 L58.216,250.212 L58.216,248.412 L62.608,248.412 C62.98,248.412 63.166,248.526 63.166,248.754 L63.166,248.754 L63.49,248.754 L63.49,246.756 L63.166,246.756 C63.166,246.972 62.98,247.08 62.608,247.08 L62.608,247.08 L56.218,247.08 L56.218,247.404 C56.278,247.404 56.338,247.425 56.398,247.467 C56.458,247.509 56.488,247.578 56.488,247.674 L56.488,247.674 L56.488,254.406 C56.488,254.502 56.458,254.571 56.398,254.613 C56.338,254.655 56.278,254.676 56.218,254.676 L56.218,254.676 L56.218,255 L62.824,255 C62.968,255 63.088,255.006 63.184,255.018 C63.28,255.03 63.328,255.09 63.328,255.198 L63.328,255.198 L63.652,255.198 Z M76.522,255 C77.23,255 77.83,254.886 78.322,254.658 C78.814,254.43 79.216,254.133 79.528,253.767 C79.84,253.401 80.068,252.981 80.212,252.507 C80.356,252.033 80.428,251.544 80.428,251.04 C80.428,250.536 80.353,250.047 80.203,249.573 C80.053,249.099 79.819,248.679 79.501,248.313 C79.183,247.947 78.772,247.65 78.268,247.422 C77.764,247.194 77.158,247.08 76.45,247.08 L76.45,247.08 L71.446,247.08 L71.446,247.404 C71.722,247.404 71.86,247.494 71.86,247.674 L71.86,247.674 L71.86,254.406 C71.86,254.586 71.722,254.676 71.446,254.676 L71.446,254.676 L71.446,255 L76.522,255 Z M75.928,253.668 L73.588,253.668 L73.588,248.412 L75.928,248.412 C76.3,248.412 76.654,248.433 76.99,248.475 C77.326,248.517 77.62,248.625 77.872,248.799 C78.124,248.973 78.325,249.231 78.475,249.573 C78.625,249.915 78.7,250.386 78.7,250.986 C78.7,251.586 78.625,252.063 78.475,252.417 C78.325,252.771 78.124,253.041 77.872,253.227 C77.62,253.413 77.326,253.533 76.99,253.587 C76.654,253.641 76.3,253.668 75.928,253.668 L75.928,253.668 Z M86.728,255.054 C87.388,255.054 88.009,254.979 88.591,254.829 C89.173,254.679 89.68,254.436 90.112,254.1 C90.544,253.764 90.886,253.341 91.138,252.831 C91.39,252.321 91.516,251.724 91.516,251.04 C91.516,250.356 91.39,249.759 91.138,249.249 C90.886,248.739 90.544,248.316 90.112,247.98 C89.68,247.644 89.173,247.392 88.591,247.224 C88.009,247.056 87.388,246.972 86.728,246.972 C86.068,246.972 85.447,247.056 84.865,247.224 C84.283,247.392 83.776,247.644 83.344,247.98 C82.912,248.316 82.57,248.739 82.318,249.249 C82.066,249.759 81.94,250.356 81.94,251.04 C81.94,251.724 82.066,252.321 82.318,252.831 C82.57,253.341 82.912,253.764 83.344,254.1 C83.776,254.436 84.283,254.679 84.865,254.829 C85.447,254.979 86.068,255.054 86.728,255.054 Z M86.728,253.776 C86.344,253.776 85.969,253.713 85.603,253.587 C85.237,253.461 84.91,253.281 84.622,253.047 C84.334,252.813 84.103,252.528 83.929,252.192 C83.755,251.856 83.668,251.472 83.668,251.04 C83.668,250.608 83.755,250.224 83.929,249.888 C84.103,249.552 84.334,249.267 84.622,249.033 C84.91,248.799 85.237,248.619 85.603,248.493 C85.969,248.367 86.344,248.304 86.728,248.304 C87.112,248.304 87.487,248.367 87.853,248.493 C88.219,248.619 88.546,248.799 88.834,249.033 C89.122,249.267 89.353,249.552 89.527,249.888 C89.701,250.224 89.788,250.608 89.788,251.04 C89.788,251.472 89.701,251.856 89.527,252.192 C89.353,252.528 89.122,252.813 88.834,253.047 C88.546,253.281 88.219,253.461 87.853,253.587 C87.487,253.713 87.112,253.776 86.728,253.776 Z M97.312,255.054 C97.852,255.054 98.341,255.006 98.779,254.91 C99.217,254.814 99.601,254.697 99.931,254.559 C100.261,254.421 100.534,254.298 100.75,254.19 C100.966,254.082 101.122,254.028 101.218,254.028 C101.278,254.028 101.38,254.058 101.524,254.118 L101.524,254.118 L101.704,254.028 L100.372,252.12 L100.174,252.3 C100.186,252.348 100.192,252.408 100.192,252.48 L100.192,252.48 L100.192,252.624 C100.192,252.732 100.105,252.852 99.931,252.984 C99.757,253.116 99.532,253.239 99.256,253.353 C98.98,253.467 98.674,253.566 98.338,253.65 C98.002,253.734 97.672,253.776 97.348,253.776 C97,253.776 96.658,253.713 96.322,253.587 C95.986,253.461 95.686,253.275 95.422,253.029 C95.158,252.783 94.945,252.489 94.783,252.147 C94.621,251.805 94.54,251.418 94.54,250.986 C94.54,250.554 94.612,250.17 94.756,249.834 C94.9,249.498 95.104,249.216 95.368,248.988 C95.632,248.76 95.941,248.589 96.295,248.475 C96.649,248.361 97.042,248.304 97.474,248.304 C97.834,248.304 98.164,248.337 98.464,248.403 C98.764,248.469 99.025,248.55 99.247,248.646 C99.469,248.742 99.64,248.841 99.76,248.943 C99.88,249.045 99.94,249.126 99.94,249.186 C99.94,249.222 99.943,249.252 99.949,249.276 C99.955,249.3 99.958,249.324 99.958,249.348 L99.958,249.348 L100.156,249.492 L101.344,247.782 L101.128,247.656 C101.08,247.68 101.035,247.71 100.993,247.746 C100.951,247.782 100.9,247.8 100.84,247.8 C100.756,247.8 100.618,247.758 100.426,247.674 C100.234,247.59 99.994,247.494 99.706,247.386 C99.418,247.278 99.085,247.182 98.707,247.098 C98.329,247.014 97.912,246.972 97.456,246.972 C96.868,246.972 96.295,247.056 95.737,247.224 C95.179,247.392 94.684,247.647 94.252,247.989 C93.82,248.331 93.472,248.754 93.208,249.258 C92.944,249.762 92.812,250.35 92.812,251.022 C92.812,251.694 92.944,252.285 93.208,252.795 C93.472,253.305 93.814,253.731 94.234,254.073 C94.654,254.415 95.134,254.664 95.674,254.82 C96.214,254.976 96.76,255.054 97.312,255.054 Z M107.932,255 L107.932,254.676 C107.716,254.676 107.608,254.586 107.608,254.406 L107.608,254.406 L107.608,248.412 L109.948,248.412 C110.044,248.412 110.134,248.436 110.218,248.484 C110.302,248.532 110.344,248.61 110.344,248.718 L110.344,248.718 L110.668,248.718 L110.668,246.648 L110.344,246.648 C110.344,246.816 110.302,246.93 110.218,246.99 C110.134,247.05 110.044,247.08 109.948,247.08 L109.948,247.08 L103.54,247.08 C103.444,247.08 103.354,247.05 103.27,246.99 C103.186,246.93 103.144,246.816 103.144,246.648 L103.144,246.648 L102.82,246.648 L102.82,248.718 L103.144,248.718 C103.144,248.61 103.186,248.532 103.27,248.484 C103.354,248.436 103.444,248.412 103.54,248.412 L103.54,248.412 L105.88,248.412 L105.88,254.406 C105.88,254.502 105.85,254.571 105.79,254.613 C105.73,254.655 105.67,254.676 105.61,254.676 L105.61,254.676 L105.61,255 L107.932,255 Z M116.734,255.054 C117.394,255.054 118.015,254.979 118.597,254.829 C119.179,254.679 119.686,254.436 120.118,254.1 C120.55,253.764 120.892,253.341 121.144,252.831 C121.396,252.321 121.522,251.724 121.522,251.04 C121.522,250.356 121.396,249.759 121.144,249.249 C120.892,248.739 120.55,248.316 120.118,247.98 C119.686,247.644 119.179,247.392 118.597,247.224 C118.015,247.056 117.394,246.972 116.734,246.972 C116.074,246.972 115.453,247.056 114.871,247.224 C114.289,247.392 113.782,247.644 113.35,247.98 C112.918,248.316 112.576,248.739 112.324,249.249 C112.072,249.759 111.946,250.356 111.946,251.04 C111.946,251.724 112.072,252.321 112.324,252.831 C112.576,253.341 112.918,253.764 113.35,254.1 C113.782,254.436 114.289,254.679 114.871,254.829 C115.453,254.979 116.074,255.054 116.734,255.054 Z M116.734,253.776 C116.35,253.776 115.975,253.713 115.609,253.587 C115.243,253.461 114.916,253.281 114.628,253.047 C114.34,252.813 114.109,252.528 113.935,252.192 C113.761,251.856 113.674,251.472 113.674,251.04 C113.674,250.608 113.761,250.224 113.935,249.888 C114.109,249.552 114.34,249.267 114.628,249.033 C114.916,248.799 115.243,248.619 115.609,248.493 C115.975,248.367 116.35,248.304 116.734,248.304 C117.118,248.304 117.493,248.367 117.859,248.493 C118.225,248.619 118.552,248.799 118.84,249.033 C119.128,249.267 119.359,249.552 119.533,249.888 C119.707,250.224 119.794,250.608 119.794,251.04 C119.794,251.472 119.707,251.856 119.533,252.192 C119.359,252.528 119.128,252.813 118.84,253.047 C118.552,253.281 118.225,253.461 117.859,253.587 C117.493,253.713 117.118,253.776 116.734,253.776 Z M126.04,255 L126.04,254.676 C125.968,254.676 125.893,254.655 125.815,254.613 C125.737,254.571 125.698,254.502 125.698,254.406 L125.698,254.406 L125.698,251.832 L128.2,251.832 L129.622,253.956 C129.802,254.208 129.892,254.394 129.892,254.514 C129.892,254.622 129.814,254.676 129.658,254.676 L129.658,254.676 L129.658,255 L132.412,255 L132.412,254.676 C132.28,254.64 132.157,254.589 132.043,254.523 C131.929,254.457 131.824,254.358 131.728,254.226 L131.728,254.226 L129.964,251.652 C130.216,251.592 130.462,251.505 130.702,251.391 C130.942,251.277 131.161,251.127 131.359,250.941 C131.557,250.755 131.716,250.536 131.836,250.284 C131.956,250.032 132.016,249.744 132.016,249.42 C132.016,248.568 131.716,247.965 131.116,247.611 C130.516,247.257 129.682,247.08 128.614,247.08 L128.614,247.08 L123.646,247.08 L123.646,247.404 C123.862,247.404 123.97,247.494 123.97,247.674 L123.97,247.674 L123.97,254.406 C123.97,254.586 123.862,254.676 123.646,254.676 L123.646,254.676 L123.646,255 L126.04,255 Z M128.578,250.5 L125.734,250.5 L125.734,248.412 L128.578,248.412 C129.19,248.412 129.637,248.499 129.919,248.673 C130.201,248.847 130.342,249.084 130.342,249.384 C130.342,250.128 129.754,250.5 128.578,250.5 L128.578,250.5 Z M143.806,255.054 C144.346,255.054 144.835,255.006 145.273,254.91 C145.711,254.814 146.095,254.697 146.425,254.559 C146.755,254.421 147.028,254.298 147.244,254.19 C147.46,254.082 147.616,254.028 147.712,254.028 C147.772,254.028 147.874,254.058 148.018,254.118 L148.018,254.118 L148.198,254.028 L146.866,252.12 L146.668,252.3 C146.68,252.348 146.686,252.408 146.686,252.48 L146.686,252.48 L146.686,252.624 C146.686,252.732 146.599,252.852 146.425,252.984 C146.251,253.116 146.026,253.239 145.75,253.353 C145.474,253.467 145.168,253.566 144.832,253.65 C144.496,253.734 144.166,253.776 143.842,253.776 C143.494,253.776 143.152,253.713 142.816,253.587 C142.48,253.461 142.18,253.275 141.916,253.029 C141.652,252.783 141.439,252.489 141.277,252.147 C141.115,251.805 141.034,251.418 141.034,250.986 C141.034,250.554 141.106,250.17 141.25,249.834 C141.394,249.498 141.598,249.216 141.862,248.988 C142.126,248.76 142.435,248.589 142.789,248.475 C143.143,248.361 143.536,248.304 143.968,248.304 C144.328,248.304 144.658,248.337 144.958,248.403 C145.258,248.469 145.519,248.55 145.741,248.646 C145.963,248.742 146.134,248.841 146.254,248.943 C146.374,249.045 146.434,249.126 146.434,249.186 C146.434,249.222 146.437,249.252 146.443,249.276 C146.449,249.3 146.452,249.324 146.452,249.348 L146.452,249.348 L146.65,249.492 L147.838,247.782 L147.622,247.656 C147.574,247.68 147.529,247.71 147.487,247.746 C147.445,247.782 147.394,247.8 147.334,247.8 C147.25,247.8 147.112,247.758 146.92,247.674 C146.728,247.59 146.488,247.494 146.2,247.386 C145.912,247.278 145.579,247.182 145.201,247.098 C144.823,247.014 144.406,246.972 143.95,246.972 C143.362,246.972 142.789,247.056 142.231,247.224 C141.673,247.392 141.178,247.647 140.746,247.989 C140.314,248.331 139.966,248.754 139.702,249.258 C139.438,249.762 139.306,250.35 139.306,251.022 C139.306,251.694 139.438,252.285 139.702,252.795 C139.966,253.305 140.308,253.731 140.728,254.073 C141.148,254.415 141.628,254.664 142.168,254.82 C142.708,254.976 143.254,255.054 143.806,255.054 Z M151.42,255 L151.42,254.676 C151.312,254.676 151.228,254.664 151.168,254.64 C151.108,254.616 151.078,254.556 151.078,254.46 C151.078,254.4 151.093,254.331 151.123,254.253 C151.153,254.175 151.192,254.088 151.24,253.992 L151.24,253.992 L151.744,253.02 L155.596,253.02 L156.082,254.046 C156.118,254.142 156.148,254.22 156.172,254.28 C156.196,254.34 156.208,254.406 156.208,254.478 C156.208,254.574 156.175,254.64 156.109,254.676 C156.043,254.712 155.98,254.73 155.92,254.73 L155.92,254.73 L155.92,255 L158.476,255 L158.476,254.676 C158.392,254.652 158.314,254.616 158.242,254.568 C158.17,254.52 158.104,254.442 158.044,254.334 L158.044,254.334 L155.128,248.214 C155.068,248.082 155.011,247.965 154.957,247.863 C154.903,247.761 154.876,247.674 154.876,247.602 C154.876,247.518 154.897,247.47 154.939,247.458 C154.981,247.446 155.02,247.428 155.056,247.404 L155.056,247.404 L155.056,247.08 L152.338,247.08 L152.338,247.404 C152.374,247.428 152.407,247.449 152.437,247.467 C152.467,247.485 152.482,247.53 152.482,247.602 C152.482,247.698 152.461,247.797 152.419,247.899 C152.377,248.001 152.32,248.136 152.248,248.304 L152.248,248.304 L149.566,254.154 C149.518,254.25 149.449,254.355 149.359,254.469 C149.269,254.583 149.152,254.652 149.008,254.676 L149.008,254.676 L149.008,255 L151.42,255 Z M155.02,251.688 L152.284,251.688 L153.562,248.664 L155.02,251.688 Z M167.998,255.18 L167.998,253.29 L167.674,253.29 C167.674,253.41 167.626,253.503 167.53,253.569 C167.434,253.635 167.314,253.668 167.17,253.668 L167.17,253.668 L162.31,253.668 L162.31,247.674 C162.31,247.494 162.448,247.404 162.724,247.404 L162.724,247.404 L162.724,247.08 L160.114,247.08 L160.114,247.404 C160.426,247.404 160.582,247.494 160.582,247.674 L160.582,247.674 L160.582,254.406 C160.582,254.586 160.426,254.676 160.114,254.676 L160.114,254.676 L160.114,255 L167.17,255 C167.314,255 167.434,255.006 167.53,255.018 C167.626,255.03 167.674,255.084 167.674,255.18 L167.674,255.18 L167.998,255.18 Z M178.006,255.18 L178.006,253.29 L177.682,253.29 C177.682,253.41 177.634,253.503 177.538,253.569 C177.442,253.635 177.322,253.668 177.178,253.668 L177.178,253.668 L172.318,253.668 L172.318,247.674 C172.318,247.494 172.456,247.404 172.732,247.404 L172.732,247.404 L172.732,247.08 L170.122,247.08 L170.122,247.404 C170.434,247.404 170.59,247.494 170.59,247.674 L170.59,247.674 L170.59,254.406 C170.59,254.586 170.434,254.676 170.122,254.676 L170.122,254.676 L170.122,255 L177.178,255 C177.322,255 177.442,255.006 177.538,255.018 C177.634,255.03 177.682,255.084 177.682,255.18 L177.682,255.18 L178.006,255.18 Z M187.672,255.198 L187.672,253.308 L187.348,253.308 C187.348,253.416 187.3,253.503 187.204,253.569 C187.108,253.635 186.988,253.668 186.844,253.668 L186.844,253.668 L182.236,253.668 L182.236,251.544 L184.864,251.544 C185.104,251.544 185.29,251.559 185.422,251.589 C185.554,251.619 185.602,251.7 185.566,251.832 L185.566,251.832 L185.926,251.832 L185.926,249.924 L185.602,249.924 C185.602,250.056 185.554,250.137 185.458,250.167 C185.362,250.197 185.212,250.212 185.008,250.212 L185.008,250.212 L182.236,250.212 L182.236,248.412 L186.628,248.412 C187,248.412 187.186,248.526 187.186,248.754 L187.186,248.754 L187.51,248.754 L187.51,246.756 L187.186,246.756 C187.186,246.972 187,247.08 186.628,247.08 L186.628,247.08 L180.238,247.08 L180.238,247.404 C180.298,247.404 180.358,247.425 180.418,247.467 C180.478,247.509 180.508,247.578 180.508,247.674 L180.508,247.674 L180.508,254.406 C180.508,254.502 180.478,254.571 180.418,254.613 C180.358,254.655 180.298,254.676 180.238,254.676 L180.238,254.676 L180.238,255 L186.844,255 C186.988,255 187.108,255.006 187.204,255.018 C187.3,255.03 187.348,255.09 187.348,255.198 L187.348,255.198 L187.672,255.198 Z M195.052,255 C195.76,255 196.36,254.886 196.852,254.658 C197.344,254.43 197.746,254.133 198.058,253.767 C198.37,253.401 198.598,252.981 198.742,252.507 C198.886,252.033 198.958,251.544 198.958,251.04 C198.958,250.536 198.883,250.047 198.733,249.573 C198.583,249.099 198.349,248.679 198.031,248.313 C197.713,247.947 197.302,247.65 196.798,247.422 C196.294,247.194 195.688,247.08 194.98,247.08 L194.98,247.08 L189.976,247.08 L189.976,247.404 C190.252,247.404 190.39,247.494 190.39,247.674 L190.39,247.674 L190.39,254.406 C190.39,254.586 190.252,254.676 189.976,254.676 L189.976,254.676 L189.976,255 L195.052,255 Z M194.458,253.668 L192.118,253.668 L192.118,248.412 L194.458,248.412 C194.83,248.412 195.184,248.433 195.52,248.475 C195.856,248.517 196.15,248.625 196.402,248.799 C196.654,248.973 196.855,249.231 197.005,249.573 C197.155,249.915 197.23,250.386 197.23,250.986 C197.23,251.586 197.155,252.063 197.005,252.417 C196.855,252.771 196.654,253.041 196.402,253.227 C196.15,253.413 195.856,253.533 195.52,253.587 C195.184,253.641 194.83,253.668 194.458,253.668 L194.458,253.668 Z M208.966,255 L208.966,254.676 C208.762,254.676 208.66,254.586 208.66,254.406 L208.66,254.406 L208.66,249.348 L208.678,249.348 L211.576,255 L211.72,255 L214.78,249.348 L214.816,249.348 L214.816,254.406 C214.852,254.586 214.744,254.676 214.492,254.676 L214.492,254.676 L214.492,255 L216.58,255 L216.58,254.676 C216.52,254.676 216.463,254.655 216.409,254.613 C216.355,254.571 216.328,254.502 216.328,254.406 L216.328,254.406 L216.328,247.638 C216.328,247.542 216.355,247.479 216.409,247.449 C216.463,247.419 216.52,247.404 216.58,247.404 L216.58,247.404 L216.58,247.08 L214.042,247.08 L214.042,247.404 C214.138,247.404 214.186,247.458 214.186,247.566 C214.186,247.602 214.162,247.665 214.114,247.755 C214.066,247.845 214,247.962 213.916,248.106 L213.916,248.106 L211.702,252.138 L209.506,248.088 C209.422,247.944 209.359,247.833 209.317,247.755 C209.275,247.677 209.254,247.614 209.254,247.566 C209.254,247.458 209.314,247.404 209.434,247.404 L209.434,247.404 L209.434,247.08 L206.932,247.08 L206.932,247.404 C207.016,247.404 207.073,247.422 207.103,247.458 C207.133,247.494 207.148,247.596 207.148,247.764 L207.148,247.764 L207.148,254.352 C207.148,254.484 207.127,254.568 207.085,254.604 C207.043,254.64 206.992,254.664 206.932,254.676 L206.932,254.676 L206.932,255 L208.966,255 Z M227.164,255.198 L227.164,253.308 L226.84,253.308 C226.84,253.416 226.792,253.503 226.696,253.569 C226.6,253.635 226.48,253.668 226.336,253.668 L226.336,253.668 L221.728,253.668 L221.728,251.544 L224.356,251.544 C224.596,251.544 224.782,251.559 224.914,251.589 C225.046,251.619 225.094,251.7 225.058,251.832 L225.058,251.832 L225.418,251.832 L225.418,249.924 L225.094,249.924 C225.094,250.056 225.046,250.137 224.95,250.167 C224.854,250.197 224.704,250.212 224.5,250.212 L224.5,250.212 L221.728,250.212 L221.728,248.412 L226.12,248.412 C226.492,248.412 226.678,248.526 226.678,248.754 L226.678,248.754 L227.002,248.754 L227.002,246.756 L226.678,246.756 C226.678,246.972 226.492,247.08 226.12,247.08 L226.12,247.08 L219.73,247.08 L219.73,247.404 C219.79,247.404 219.85,247.425 219.91,247.467 C219.97,247.509 220,247.578 220,247.674 L220,247.674 L220,254.406 C220,254.502 219.97,254.571 219.91,254.613 C219.85,254.655 219.79,254.676 219.73,254.676 L219.73,254.676 L219.73,255 L226.336,255 C226.48,255 226.6,255.006 226.696,255.018 C226.792,255.03 226.84,255.09 226.84,255.198 L226.84,255.198 L227.164,255.198 Z M58.099,273 L58.099,272.676 C58.027,272.676 57.964,272.655 57.91,272.613 C57.856,272.571 57.829,272.502 57.829,272.406 L57.829,272.406 L57.829,269.688 L62.653,269.688 L62.653,272.406 C62.653,272.502 62.626,272.571 62.572,272.613 C62.518,272.655 62.455,272.676 62.383,272.676 L62.383,272.676 L62.383,273 L64.651,273 L64.651,272.676 C64.579,272.676 64.516,272.655 64.462,272.613 C64.408,272.571 64.381,272.502 64.381,272.406 L64.381,272.406 L64.381,265.674 C64.381,265.578 64.408,265.509 64.462,265.467 C64.516,265.425 64.579,265.404 64.651,265.404 L64.651,265.404 L64.651,265.08 L62.383,265.08 L62.383,265.404 C62.455,265.404 62.518,265.425 62.572,265.467 C62.626,265.509 62.653,265.578 62.653,265.674 L62.653,265.674 L62.653,268.212 L57.829,268.212 L57.829,265.674 C57.829,265.578 57.856,265.509 57.91,265.467 C57.964,265.425 58.027,265.404 58.099,265.404 L58.099,265.404 L58.099,265.08 L55.831,265.08 L55.831,265.404 C55.903,265.404 55.966,265.425 56.02,265.467 C56.074,265.509 56.101,265.578 56.101,265.674 L56.101,265.674 L56.101,272.406 C56.101,272.502 56.074,272.571 56.02,272.613 C55.966,272.655 55.903,272.676 55.831,272.676 L55.831,272.676 L55.831,273 L58.099,273 Z M71.743,273.054 C72.403,273.054 73.024,272.979 73.606,272.829 C74.188,272.679 74.695,272.436 75.127,272.1 C75.559,271.764 75.901,271.341 76.153,270.831 C76.405,270.321 76.531,269.724 76.531,269.04 C76.531,268.356 76.405,267.759 76.153,267.249 C75.901,266.739 75.559,266.316 75.127,265.98 C74.695,265.644 74.188,265.392 73.606,265.224 C73.024,265.056 72.403,264.972 71.743,264.972 C71.083,264.972 70.462,265.056 69.88,265.224 C69.298,265.392 68.791,265.644 68.359,265.98 C67.927,266.316 67.585,266.739 67.333,267.249 C67.081,267.759 66.955,268.356 66.955,269.04 C66.955,269.724 67.081,270.321 67.333,270.831 C67.585,271.341 67.927,271.764 68.359,272.1 C68.791,272.436 69.298,272.679 69.88,272.829 C70.462,272.979 71.083,273.054 71.743,273.054 Z M71.743,271.776 C71.359,271.776 70.984,271.713 70.618,271.587 C70.252,271.461 69.925,271.281 69.637,271.047 C69.349,270.813 69.118,270.528 68.944,270.192 C68.77,269.856 68.683,269.472 68.683,269.04 C68.683,268.608 68.77,268.224 68.944,267.888 C69.118,267.552 69.349,267.267 69.637,267.033 C69.925,266.799 70.252,266.619 70.618,266.493 C70.984,266.367 71.359,266.304 71.743,266.304 C72.127,266.304 72.502,266.367 72.868,266.493 C73.234,266.619 73.561,266.799 73.849,267.033 C74.137,267.267 74.368,267.552 74.542,267.888 C74.716,268.224 74.803,268.608 74.803,269.04 C74.803,269.472 74.716,269.856 74.542,270.192 C74.368,270.528 74.137,270.813 73.849,271.047 C73.561,271.281 73.234,271.461 72.868,271.587 C72.502,271.713 72.127,271.776 71.743,271.776 Z M82.939,273 L82.939,272.676 C82.723,272.676 82.615,272.586 82.615,272.406 L82.615,272.406 L82.615,266.412 L84.955,266.412 C85.051,266.412 85.141,266.436 85.225,266.484 C85.309,266.532 85.351,266.61 85.351,266.718 L85.351,266.718 L85.675,266.718 L85.675,264.648 L85.351,264.648 C85.351,264.816 85.309,264.93 85.225,264.99 C85.141,265.05 85.051,265.08 84.955,265.08 L84.955,265.08 L78.547,265.08 C78.451,265.08 78.361,265.05 78.277,264.99 C78.193,264.93 78.151,264.816 78.151,264.648 L78.151,264.648 L77.827,264.648 L77.827,266.718 L78.151,266.718 C78.151,266.61 78.193,266.532 78.277,266.484 C78.361,266.436 78.451,266.412 78.547,266.412 L78.547,266.412 L80.887,266.412 L80.887,272.406 C80.887,272.502 80.857,272.571 80.797,272.613 C80.737,272.655 80.677,272.676 80.617,272.676 L80.617,272.676 L80.617,273 L82.939,273 Z M101.245,273.054 C101.593,273.054 101.893,272.937 102.145,272.703 C102.397,272.469 102.523,272.178 102.523,271.83 C102.523,271.482 102.397,271.182 102.145,270.93 C101.893,270.678 101.593,270.552 101.245,270.552 C100.897,270.552 100.597,270.678 100.345,270.93 C100.093,271.182 99.967,271.482 99.967,271.83 C99.967,272.178 100.093,272.469 100.345,272.703 C100.597,272.937 100.897,273.054 101.245,273.054 Z M95.251,273.054 C95.599,273.054 95.899,272.937 96.151,272.703 C96.403,272.469 96.529,272.178 96.529,271.83 C96.529,271.482 96.403,271.182 96.151,270.93 C95.899,270.678 95.599,270.552 95.251,270.552 C94.903,270.552 94.603,270.678 94.351,270.93 C94.099,271.182 93.973,271.482 93.973,271.83 C93.973,272.178 94.099,272.469 94.351,272.703 C94.603,272.937 94.903,273.054 95.251,273.054 Z M89.257,273.054 C89.605,273.054 89.905,272.937 90.157,272.703 C90.409,272.469 90.535,272.178 90.535,271.83 C90.535,271.482 90.409,271.182 90.157,270.93 C89.905,270.678 89.605,270.552 89.257,270.552 C88.909,270.552 88.609,270.678 88.357,270.93 C88.105,271.182 87.979,271.482 87.979,271.83 C87.979,272.178 88.105,272.469 88.357,272.703 C88.609,272.937 88.909,273.054 89.257,273.054 Z M114.223,273 L114.223,272.676 C113.911,272.676 113.755,272.568 113.755,272.352 L113.755,272.352 L113.755,264.18 C113.755,263.964 113.911,263.856 114.223,263.856 L114.223,263.856 L114.223,263.532 L111.235,263.532 L111.235,263.856 C111.547,263.856 111.703,263.964 111.703,264.18 L111.703,264.18 L111.703,272.352 C111.703,272.568 111.547,272.676 111.235,272.676 L111.235,272.676 L111.235,273 L114.223,273 Z M121.423,273 L121.423,272.676 C121.207,272.676 121.099,272.586 121.099,272.406 L121.099,272.406 L121.099,266.412 L123.439,266.412 C123.535,266.412 123.625,266.436 123.709,266.484 C123.793,266.532 123.835,266.61 123.835,266.718 L123.835,266.718 L124.159,266.718 L124.159,264.648 L123.835,264.648 C123.835,264.816 123.793,264.93 123.709,264.99 C123.625,265.05 123.535,265.08 123.439,265.08 L123.439,265.08 L117.031,265.08 C116.935,265.08 116.845,265.05 116.761,264.99 C116.677,264.93 116.635,264.816 116.635,264.648 L116.635,264.648 L116.311,264.648 L116.311,266.718 L116.635,266.718 C116.635,266.61 116.677,266.532 116.761,266.484 C116.845,266.436 116.935,266.412 117.031,266.412 L117.031,266.412 L119.371,266.412 L119.371,272.406 C119.371,272.502 119.341,272.571 119.281,272.613 C119.221,272.655 119.161,272.676 119.101,272.676 L119.101,272.676 L119.101,273 L121.423,273 Z M135.463,273 L135.463,272.676 C135.355,272.676 135.283,272.658 135.247,272.622 C135.211,272.586 135.193,272.52 135.193,272.424 C135.193,272.388 135.238,272.253 135.328,272.019 C135.418,271.785 135.532,271.497 135.67,271.155 C135.808,270.813 135.958,270.441 136.12,270.039 C136.282,269.637 136.435,269.253 136.579,268.887 C136.723,268.521 136.849,268.197 136.957,267.915 C137.065,267.633 137.131,267.438 137.155,267.33 L137.155,267.33 L137.191,267.33 C137.383,267.93 137.581,268.524 137.785,269.112 C137.989,269.7 138.178,270.231 138.352,270.705 C138.526,271.179 138.667,271.572 138.775,271.884 C138.883,272.196 138.937,272.376 138.937,272.424 C138.937,272.52 138.925,272.583 138.901,272.613 C138.877,272.643 138.817,272.664 138.721,272.676 L138.721,272.676 L138.721,273 L141.241,273 L141.241,272.676 C141.073,272.676 140.989,272.598 140.989,272.442 C140.989,272.382 141.025,272.271 141.097,272.109 C141.169,271.947 141.241,271.764 141.313,271.56 L141.313,271.56 L143.383,266.07 C143.539,265.626 143.719,265.404 143.923,265.404 L143.923,265.404 L143.923,265.08 L141.637,265.08 L141.637,265.404 C141.829,265.404 141.925,265.488 141.925,265.656 C141.925,265.74 141.904,265.845 141.862,265.971 C141.82,266.097 141.769,266.244 141.709,266.412 L141.709,266.412 L140.035,270.786 L138.451,266.448 C138.391,266.304 138.331,266.151 138.271,265.989 C138.211,265.827 138.181,265.704 138.181,265.62 C138.181,265.476 138.289,265.404 138.505,265.404 L138.505,265.404 L138.505,265.08 L135.931,265.08 L135.931,265.404 C136.123,265.404 136.219,265.488 136.219,265.656 C136.219,265.752 136.192,265.875 136.138,266.025 C136.084,266.175 136.027,266.334 135.967,266.502 L135.967,266.502 L134.437,270.786 L134.401,270.786 L132.817,266.412 C132.745,266.22 132.685,266.061 132.637,265.935 C132.589,265.809 132.565,265.716 132.565,265.656 C132.565,265.488 132.643,265.404 132.799,265.404 L132.799,265.404 L132.799,265.08 L130.513,265.08 L130.513,265.404 C130.693,265.44 130.819,265.554 130.891,265.746 L130.891,265.746 L133.267,271.992 C133.291,272.052 133.324,272.139 133.366,272.253 C133.408,272.367 133.429,272.46 133.429,272.532 C133.429,272.604 133.411,272.646 133.375,272.658 C133.339,272.67 133.297,272.676 133.249,272.676 L133.249,272.676 L133.249,273 L135.463,273 Z M146.911,273 L146.911,272.676 C146.803,272.676 146.719,272.664 146.659,272.64 C146.599,272.616 146.569,272.556 146.569,272.46 C146.569,272.4 146.584,272.331 146.614,272.253 C146.644,272.175 146.683,272.088 146.731,271.992 L146.731,271.992 L147.235,271.02 L151.087,271.02 L151.573,272.046 C151.609,272.142 151.639,272.22 151.663,272.28 C151.687,272.34 151.699,272.406 151.699,272.478 C151.699,272.574 151.666,272.64 151.6,272.676 C151.534,272.712 151.471,272.73 151.411,272.73 L151.411,272.73 L151.411,273 L153.967,273 L153.967,272.676 C153.883,272.652 153.805,272.616 153.733,272.568 C153.661,272.52 153.595,272.442 153.535,272.334 L153.535,272.334 L150.619,266.214 C150.559,266.082 150.502,265.965 150.448,265.863 C150.394,265.761 150.367,265.674 150.367,265.602 C150.367,265.518 150.388,265.47 150.43,265.458 C150.472,265.446 150.511,265.428 150.547,265.404 L150.547,265.404 L150.547,265.08 L147.829,265.08 L147.829,265.404 C147.865,265.428 147.898,265.449 147.928,265.467 C147.958,265.485 147.973,265.53 147.973,265.602 C147.973,265.698 147.952,265.797 147.91,265.899 C147.868,266.001 147.811,266.136 147.739,266.304 L147.739,266.304 L145.057,272.154 C145.009,272.25 144.94,272.355 144.85,272.469 C144.76,272.583 144.643,272.652 144.499,272.676 L144.499,272.676 L144.499,273 L146.911,273 Z M150.511,269.688 L147.775,269.688 L149.053,266.664 L150.511,269.688 Z M159.097,273.054 C159.505,273.054 159.94,273.024 160.402,272.964 C160.864,272.904 161.287,272.778 161.671,272.586 C162.055,272.394 162.376,272.13 162.634,271.794 C162.892,271.458 163.021,271.026 163.021,270.498 C163.021,269.97 162.874,269.556 162.58,269.256 C162.286,268.956 161.917,268.728 161.473,268.572 C161.029,268.416 160.549,268.305 160.033,268.239 C159.517,268.173 159.037,268.107 158.593,268.041 C158.149,267.975 157.78,267.885 157.486,267.771 C157.192,267.657 157.045,267.468 157.045,267.204 C157.045,267.036 157.093,266.895 157.189,266.781 C157.285,266.667 157.417,266.574 157.585,266.502 C157.753,266.43 157.945,266.379 158.161,266.349 C158.377,266.319 158.605,266.304 158.845,266.304 C159.469,266.304 160.033,266.376 160.537,266.52 C161.041,266.664 161.413,266.838 161.653,267.042 C161.749,267.114 161.803,267.186 161.815,267.258 L161.815,267.258 L161.851,267.474 L162.175,267.582 L163.075,265.89 L162.877,265.692 C162.805,265.728 162.745,265.761 162.697,265.791 C162.649,265.821 162.577,265.836 162.481,265.836 C162.397,265.836 162.268,265.791 162.094,265.701 C161.92,265.611 161.695,265.512 161.419,265.404 C161.143,265.296 160.804,265.197 160.402,265.107 C160,265.017 159.517,264.972 158.953,264.972 C157.801,264.972 156.907,265.2 156.271,265.656 C155.635,266.112 155.317,266.724 155.317,267.492 C155.317,268.008 155.464,268.407 155.758,268.689 C156.052,268.971 156.421,269.187 156.865,269.337 C157.309,269.487 157.789,269.595 158.305,269.661 C158.821,269.727 159.301,269.793 159.745,269.859 C160.189,269.925 160.558,270.018 160.852,270.138 C161.146,270.258 161.293,270.45 161.293,270.714 C161.293,270.942 161.209,271.125 161.041,271.263 C160.873,271.401 160.669,271.509 160.429,271.587 C160.189,271.665 159.946,271.716 159.7,271.74 C159.454,271.764 159.247,271.776 159.079,271.776 C158.899,271.776 158.65,271.746 158.332,271.686 C158.014,271.626 157.696,271.545 157.378,271.443 C157.06,271.341 156.787,271.215 156.559,271.065 C156.331,270.915 156.217,270.75 156.217,270.57 C156.217,270.51 156.22,270.453 156.226,270.399 C156.232,270.345 156.235,270.294 156.235,270.246 L156.235,270.246 L155.893,270.156 L155.065,272.172 L155.317,272.352 C155.377,272.28 155.449,272.244 155.533,272.244 C155.581,272.244 155.719,272.289 155.947,272.379 C156.175,272.469 156.454,272.565 156.784,272.667 C157.114,272.769 157.48,272.859 157.882,272.937 C158.284,273.015 158.689,273.054 159.097,273.054 Z M167.917,273 L167.917,272.676 C167.665,272.676 167.539,272.586 167.539,272.406 L167.539,272.406 L167.539,267.168 L172.003,271.92 C172.147,272.076 172.276,272.214 172.39,272.334 C172.504,272.454 172.561,272.538 172.561,272.586 C172.561,272.646 172.519,272.676 172.435,272.676 L172.435,272.676 L172.435,273 L174.775,273 L174.775,272.676 C174.559,272.676 174.451,272.586 174.451,272.406 L174.451,272.406 L174.451,265.674 C174.451,265.494 174.559,265.404 174.775,265.404 L174.775,265.404 L174.775,265.08 L172.579,265.08 L172.579,265.404 C172.819,265.404 172.939,265.494 172.939,265.674 L172.939,265.674 L172.939,270.552 L168.619,265.98 C168.355,265.716 168.223,265.554 168.223,265.494 C168.223,265.446 168.265,265.416 168.349,265.404 L168.349,265.404 L168.349,265.08 L165.703,265.08 L165.703,265.404 C165.919,265.404 166.027,265.494 166.027,265.674 L166.027,265.674 L166.027,272.406 C166.027,272.586 165.919,272.676 165.703,272.676 L165.703,272.676 L165.703,273 L167.917,273 Z M177.079,268.41 C177.451,268.326 177.811,268.176 178.159,267.96 C178.507,267.744 178.813,267.486 179.077,267.186 C179.341,266.886 179.554,266.553 179.716,266.187 C179.878,265.821 179.959,265.44 179.959,265.044 C179.959,264.54 179.836,264.114 179.59,263.766 C179.344,263.418 178.981,263.244 178.501,263.244 C178.189,263.244 177.91,263.37 177.664,263.622 C177.418,263.874 177.295,264.174 177.295,264.522 C177.295,264.882 177.406,265.161 177.628,265.359 C177.85,265.557 178.111,265.656 178.411,265.656 C178.507,265.656 178.609,265.662 178.717,265.674 C178.825,265.686 178.891,265.734 178.915,265.818 C178.939,266.034 178.891,266.25 178.771,266.466 C178.651,266.682 178.498,266.883 178.312,267.069 C178.126,267.255 177.919,267.417 177.691,267.555 C177.463,267.693 177.259,267.786 177.079,267.834 L177.079,267.834 L177.079,268.41 Z M186.943,273 L186.943,272.676 C186.727,272.676 186.619,272.586 186.619,272.406 L186.619,272.406 L186.619,266.412 L188.959,266.412 C189.055,266.412 189.145,266.436 189.229,266.484 C189.313,266.532 189.355,266.61 189.355,266.718 L189.355,266.718 L189.679,266.718 L189.679,264.648 L189.355,264.648 C189.355,264.816 189.313,264.93 189.229,264.99 C189.145,265.05 189.055,265.08 188.959,265.08 L188.959,265.08 L182.551,265.08 C182.455,265.08 182.365,265.05 182.281,264.99 C182.197,264.93 182.155,264.816 182.155,264.648 L182.155,264.648 L181.831,264.648 L181.831,266.718 L182.155,266.718 C182.155,266.61 182.197,266.532 182.281,266.484 C182.365,266.436 182.455,266.412 182.551,266.412 L182.551,266.412 L184.891,266.412 L184.891,272.406 C184.891,272.502 184.861,272.571 184.801,272.613 C184.741,272.655 184.681,272.676 184.621,272.676 L184.621,272.676 L184.621,273 L186.943,273 Z M198.427,273 L198.427,272.676 C198.319,272.676 198.235,272.664 198.175,272.64 C198.115,272.616 198.085,272.556 198.085,272.46 C198.085,272.4 198.1,272.331 198.13,272.253 C198.16,272.175 198.199,272.088 198.247,271.992 L198.247,271.992 L198.751,271.02 L202.603,271.02 L203.089,272.046 C203.125,272.142 203.155,272.22 203.179,272.28 C203.203,272.34 203.215,272.406 203.215,272.478 C203.215,272.574 203.182,272.64 203.116,272.676 C203.05,272.712 202.987,272.73 202.927,272.73 L202.927,272.73 L202.927,273 L205.483,273 L205.483,272.676 C205.399,272.652 205.321,272.616 205.249,272.568 C205.177,272.52 205.111,272.442 205.051,272.334 L205.051,272.334 L202.135,266.214 C202.075,266.082 202.018,265.965 201.964,265.863 C201.91,265.761 201.883,265.674 201.883,265.602 C201.883,265.518 201.904,265.47 201.946,265.458 C201.988,265.446 202.027,265.428 202.063,265.404 L202.063,265.404 L202.063,265.08 L199.345,265.08 L199.345,265.404 C199.381,265.428 199.414,265.449 199.444,265.467 C199.474,265.485 199.489,265.53 199.489,265.602 C199.489,265.698 199.468,265.797 199.426,265.899 C199.384,266.001 199.327,266.136 199.255,266.304 L199.255,266.304 L196.573,272.154 C196.525,272.25 196.456,272.355 196.366,272.469 C196.276,272.583 196.159,272.652 196.015,272.676 L196.015,272.676 L196.015,273 L198.427,273 Z M202.027,269.688 L199.291,269.688 L200.569,266.664 L202.027,269.688 Z M80.32,291.054 C80.86,291.054 81.349,291.006 81.787,290.91 C82.225,290.814 82.609,290.697 82.939,290.559 C83.269,290.421 83.542,290.298 83.758,290.19 C83.974,290.082 84.13,290.028 84.226,290.028 C84.286,290.028 84.388,290.058 84.532,290.118 L84.532,290.118 L84.712,290.028 L83.38,288.12 L83.182,288.3 C83.194,288.348 83.2,288.408 83.2,288.48 L83.2,288.48 L83.2,288.624 C83.2,288.732 83.113,288.852 82.939,288.984 C82.765,289.116 82.54,289.239 82.264,289.353 C81.988,289.467 81.682,289.566 81.346,289.65 C81.01,289.734 80.68,289.776 80.356,289.776 C80.008,289.776 79.666,289.713 79.33,289.587 C78.994,289.461 78.694,289.275 78.43,289.029 C78.166,288.783 77.953,288.489 77.791,288.147 C77.629,287.805 77.548,287.418 77.548,286.986 C77.548,286.554 77.62,286.17 77.764,285.834 C77.908,285.498 78.112,285.216 78.376,284.988 C78.64,284.76 78.949,284.589 79.303,284.475 C79.657,284.361 80.05,284.304 80.482,284.304 C80.842,284.304 81.172,284.337 81.472,284.403 C81.772,284.469 82.033,284.55 82.255,284.646 C82.477,284.742 82.648,284.841 82.768,284.943 C82.888,285.045 82.948,285.126 82.948,285.186 C82.948,285.222 82.951,285.252 82.957,285.276 C82.963,285.3 82.966,285.324 82.966,285.348 L82.966,285.348 L83.164,285.492 L84.352,283.782 L84.136,283.656 C84.088,283.68 84.043,283.71 84.001,283.746 C83.959,283.782 83.908,283.8 83.848,283.8 C83.764,283.8 83.626,283.758 83.434,283.674 C83.242,283.59 83.002,283.494 82.714,283.386 C82.426,283.278 82.093,283.182 81.715,283.098 C81.337,283.014 80.92,282.972 80.464,282.972 C79.876,282.972 79.303,283.056 78.745,283.224 C78.187,283.392 77.692,283.647 77.26,283.989 C76.828,284.331 76.48,284.754 76.216,285.258 C75.952,285.762 75.82,286.35 75.82,287.022 C75.82,287.694 75.952,288.285 76.216,288.795 C76.48,289.305 76.822,289.731 77.242,290.073 C77.662,290.415 78.142,290.664 78.682,290.82 C79.222,290.976 79.768,291.054 80.32,291.054 Z M90.742,291.054 C91.402,291.054 92.023,290.979 92.605,290.829 C93.187,290.679 93.694,290.436 94.126,290.1 C94.558,289.764 94.9,289.341 95.152,288.831 C95.404,288.321 95.53,287.724 95.53,287.04 C95.53,286.356 95.404,285.759 95.152,285.249 C94.9,284.739 94.558,284.316 94.126,283.98 C93.694,283.644 93.187,283.392 92.605,283.224 C92.023,283.056 91.402,282.972 90.742,282.972 C90.082,282.972 89.461,283.056 88.879,283.224 C88.297,283.392 87.79,283.644 87.358,283.98 C86.926,284.316 86.584,284.739 86.332,285.249 C86.08,285.759 85.954,286.356 85.954,287.04 C85.954,287.724 86.08,288.321 86.332,288.831 C86.584,289.341 86.926,289.764 87.358,290.1 C87.79,290.436 88.297,290.679 88.879,290.829 C89.461,290.979 90.082,291.054 90.742,291.054 Z M90.742,289.776 C90.358,289.776 89.983,289.713 89.617,289.587 C89.251,289.461 88.924,289.281 88.636,289.047 C88.348,288.813 88.117,288.528 87.943,288.192 C87.769,287.856 87.682,287.472 87.682,287.04 C87.682,286.608 87.769,286.224 87.943,285.888 C88.117,285.552 88.348,285.267 88.636,285.033 C88.924,284.799 89.251,284.619 89.617,284.493 C89.983,284.367 90.358,284.304 90.742,284.304 C91.126,284.304 91.501,284.367 91.867,284.493 C92.233,284.619 92.56,284.799 92.848,285.033 C93.136,285.267 93.367,285.552 93.541,285.888 C93.715,286.224 93.802,286.608 93.802,287.04 C93.802,287.472 93.715,287.856 93.541,288.192 C93.367,288.528 93.136,288.813 92.848,289.047 C92.56,289.281 92.233,289.461 91.867,289.587 C91.501,289.713 91.126,289.776 90.742,289.776 Z M99.958,291 L99.958,290.676 C99.754,290.676 99.652,290.586 99.652,290.406 L99.652,290.406 L99.652,285.348 L99.67,285.348 L102.568,291 L102.712,291 L105.772,285.348 L105.808,285.348 L105.808,290.406 C105.844,290.586 105.736,290.676 105.484,290.676 L105.484,290.676 L105.484,291 L107.572,291 L107.572,290.676 C107.512,290.676 107.455,290.655 107.401,290.613 C107.347,290.571 107.32,290.502 107.32,290.406 L107.32,290.406 L107.32,283.638 C107.32,283.542 107.347,283.479 107.401,283.449 C107.455,283.419 107.512,283.404 107.572,283.404 L107.572,283.404 L107.572,283.08 L105.034,283.08 L105.034,283.404 C105.13,283.404 105.178,283.458 105.178,283.566 C105.178,283.602 105.154,283.665 105.106,283.755 C105.058,283.845 104.992,283.962 104.908,284.106 L104.908,284.106 L102.694,288.138 L100.498,284.088 C100.414,283.944 100.351,283.833 100.309,283.755 C100.267,283.677 100.246,283.614 100.246,283.566 C100.246,283.458 100.306,283.404 100.426,283.404 L100.426,283.404 L100.426,283.08 L97.924,283.08 L97.924,283.404 C98.008,283.404 98.065,283.422 98.095,283.458 C98.125,283.494 98.14,283.596 98.14,283.764 L98.14,283.764 L98.14,290.352 C98.14,290.484 98.119,290.568 98.077,290.604 C98.035,290.64 97.984,290.664 97.924,290.676 L97.924,290.676 L97.924,291 L99.958,291 Z M113.008,291 L113.008,290.676 C112.756,290.676 112.63,290.586 112.63,290.406 L112.63,290.406 L112.63,287.706 L115.69,287.706 C116.662,287.706 117.391,287.541 117.877,287.211 C118.363,286.881 118.606,286.284 118.606,285.42 C118.606,284.556 118.363,283.95 117.877,283.602 C117.391,283.254 116.662,283.08 115.69,283.08 L115.69,283.08 L110.452,283.08 L110.452,283.404 C110.752,283.404 110.902,283.494 110.902,283.674 L110.902,283.674 L110.902,290.406 C110.902,290.586 110.752,290.676 110.452,290.676 L110.452,290.676 L110.452,291 L113.008,291 Z M115.654,286.374 L112.63,286.374 L112.63,284.412 L115.654,284.412 C116.002,284.412 116.293,284.487 116.527,284.637 C116.761,284.787 116.878,285.048 116.878,285.42 C116.878,285.804 116.761,286.059 116.527,286.185 C116.293,286.311 116.002,286.374 115.654,286.374 L115.654,286.374 Z M128.506,291.18 L128.506,289.29 L128.182,289.29 C128.182,289.41 128.134,289.503 128.038,289.569 C127.942,289.635 127.822,289.668 127.678,289.668 L127.678,289.668 L122.818,289.668 L122.818,283.674 C122.818,283.494 122.956,283.404 123.232,283.404 L123.232,283.404 L123.232,283.08 L120.622,283.08 L120.622,283.404 C120.934,283.404 121.09,283.494 121.09,283.674 L121.09,283.674 L121.09,290.406 C121.09,290.586 120.934,290.676 120.622,290.676 L120.622,290.676 L120.622,291 L127.678,291 C127.822,291 127.942,291.006 128.038,291.018 C128.134,291.03 128.182,291.084 128.182,291.18 L128.182,291.18 L128.506,291.18 Z M133.618,291 L133.618,290.676 C133.282,290.676 133.114,290.586 133.114,290.406 L133.114,290.406 L133.114,283.674 C133.114,283.494 133.282,283.404 133.618,283.404 L133.618,283.404 L133.618,283.08 L130.882,283.08 L130.882,283.404 C131.074,283.404 131.206,283.425 131.278,283.467 C131.35,283.509 131.386,283.578 131.386,283.674 L131.386,283.674 L131.386,290.406 C131.386,290.502 131.35,290.571 131.278,290.613 C131.206,290.655 131.074,290.676 130.882,290.676 L130.882,290.676 L130.882,291 L133.618,291 Z M138.964,291 L138.964,290.676 C138.76,290.676 138.658,290.586 138.658,290.406 L138.658,290.406 L138.658,285.348 L138.676,285.348 L141.574,291 L141.718,291 L144.778,285.348 L144.814,285.348 L144.814,290.406 C144.85,290.586 144.742,290.676 144.49,290.676 L144.49,290.676 L144.49,291 L146.578,291 L146.578,290.676 C146.518,290.676 146.461,290.655 146.407,290.613 C146.353,290.571 146.326,290.502 146.326,290.406 L146.326,290.406 L146.326,283.638 C146.326,283.542 146.353,283.479 146.407,283.449 C146.461,283.419 146.518,283.404 146.578,283.404 L146.578,283.404 L146.578,283.08 L144.04,283.08 L144.04,283.404 C144.136,283.404 144.184,283.458 144.184,283.566 C144.184,283.602 144.16,283.665 144.112,283.755 C144.064,283.845 143.998,283.962 143.914,284.106 L143.914,284.106 L141.7,288.138 L139.504,284.088 C139.42,283.944 139.357,283.833 139.315,283.755 C139.273,283.677 139.252,283.614 139.252,283.566 C139.252,283.458 139.312,283.404 139.432,283.404 L139.432,283.404 L139.432,283.08 L136.93,283.08 L136.93,283.404 C137.014,283.404 137.071,283.422 137.101,283.458 C137.131,283.494 137.146,283.596 137.146,283.764 L137.146,283.764 L137.146,290.352 C137.146,290.484 137.125,290.568 137.083,290.604 C137.041,290.64 136.99,290.664 136.93,290.676 L136.93,290.676 L136.93,291 L138.964,291 Z M157.162,291.198 L157.162,289.308 L156.838,289.308 C156.838,289.416 156.79,289.503 156.694,289.569 C156.598,289.635 156.478,289.668 156.334,289.668 L156.334,289.668 L151.726,289.668 L151.726,287.544 L154.354,287.544 C154.594,287.544 154.78,287.559 154.912,287.589 C155.044,287.619 155.092,287.7 155.056,287.832 L155.056,287.832 L155.416,287.832 L155.416,285.924 L155.092,285.924 C155.092,286.056 155.044,286.137 154.948,286.167 C154.852,286.197 154.702,286.212 154.498,286.212 L154.498,286.212 L151.726,286.212 L151.726,284.412 L156.118,284.412 C156.49,284.412 156.676,284.526 156.676,284.754 L156.676,284.754 L157,284.754 L157,282.756 L156.676,282.756 C156.676,282.972 156.49,283.08 156.118,283.08 L156.118,283.08 L149.728,283.08 L149.728,283.404 C149.788,283.404 149.848,283.425 149.908,283.467 C149.968,283.509 149.998,283.578 149.998,283.674 L149.998,283.674 L149.998,290.406 C149.998,290.502 149.968,290.571 149.908,290.613 C149.848,290.655 149.788,290.676 149.728,290.676 L149.728,290.676 L149.728,291 L156.334,291 C156.478,291 156.598,291.006 156.694,291.018 C156.79,291.03 156.838,291.09 156.838,291.198 L156.838,291.198 L157.162,291.198 Z M161.932,291 L161.932,290.676 C161.68,290.676 161.554,290.586 161.554,290.406 L161.554,290.406 L161.554,285.168 L166.018,289.92 C166.162,290.076 166.291,290.214 166.405,290.334 C166.519,290.454 166.576,290.538 166.576,290.586 C166.576,290.646 166.534,290.676 166.45,290.676 L166.45,290.676 L166.45,291 L168.79,291 L168.79,290.676 C168.574,290.676 168.466,290.586 168.466,290.406 L168.466,290.406 L168.466,283.674 C168.466,283.494 168.574,283.404 168.79,283.404 L168.79,283.404 L168.79,283.08 L166.594,283.08 L166.594,283.404 C166.834,283.404 166.954,283.494 166.954,283.674 L166.954,283.674 L166.954,288.552 L162.634,283.98 C162.37,283.716 162.238,283.554 162.238,283.494 C162.238,283.446 162.28,283.416 162.364,283.404 L162.364,283.404 L162.364,283.08 L159.718,283.08 L159.718,283.404 C159.934,283.404 160.042,283.494 160.042,283.674 L160.042,283.674 L160.042,290.406 C160.042,290.586 159.934,290.676 159.718,290.676 L159.718,290.676 L159.718,291 L161.932,291 Z M175.954,291 L175.954,290.676 C175.738,290.676 175.63,290.586 175.63,290.406 L175.63,290.406 L175.63,284.412 L177.97,284.412 C178.066,284.412 178.156,284.436 178.24,284.484 C178.324,284.532 178.366,284.61 178.366,284.718 L178.366,284.718 L178.69,284.718 L178.69,282.648 L178.366,282.648 C178.366,282.816 178.324,282.93 178.24,282.99 C178.156,283.05 178.066,283.08 177.97,283.08 L177.97,283.08 L171.562,283.08 C171.466,283.08 171.376,283.05 171.292,282.99 C171.208,282.93 171.166,282.816 171.166,282.648 L171.166,282.648 L170.842,282.648 L170.842,284.718 L171.166,284.718 C171.166,284.61 171.208,284.532 171.292,284.484 C171.376,284.436 171.466,284.412 171.562,284.412 L171.562,284.412 L173.902,284.412 L173.902,290.406 C173.902,290.502 173.872,290.571 173.812,290.613 C173.752,290.655 173.692,290.676 173.632,290.676 L173.632,290.676 L173.632,291 L175.954,291 Z M182.002,291.054 C182.35,291.054 182.65,290.937 182.902,290.703 C183.154,290.469 183.28,290.178 183.28,289.83 C183.28,289.482 183.154,289.182 182.902,288.93 C182.65,288.678 182.35,288.552 182.002,288.552 C181.654,288.552 181.354,288.678 181.102,288.93 C180.85,289.182 180.724,289.482 180.724,289.83 C180.724,290.178 180.85,290.469 181.102,290.703 C181.354,290.937 181.654,291.054 182.002,291.054 Z M57.19,309 L57.19,308.676 C56.962,308.676 56.848,308.61 56.848,308.478 C56.848,308.37 56.908,308.19 57.028,307.938 L57.028,307.938 L57.676,306.66 L62.068,306.66 L62.752,307.992 C62.848,308.184 62.896,308.34 62.896,308.46 C62.896,308.532 62.86,308.586 62.788,308.622 C62.716,308.658 62.656,308.676 62.608,308.676 L62.608,308.676 L62.608,309 L65.776,309 L65.776,308.676 C65.644,308.616 65.527,308.556 65.425,308.496 C65.323,308.436 65.242,308.34 65.182,308.208 L65.182,308.208 L61.438,300.882 C61.354,300.726 61.291,300.6 61.249,300.504 C61.207,300.408 61.186,300.312 61.186,300.216 C61.186,300.084 61.228,299.997 61.312,299.955 C61.396,299.913 61.48,299.88 61.564,299.856 L61.564,299.856 L61.564,299.532 L58.522,299.532 L58.522,299.856 C58.618,299.88 58.708,299.916 58.792,299.964 C58.876,300.012 58.918,300.096 58.918,300.216 C58.918,300.312 58.885,300.426 58.819,300.558 C58.753,300.69 58.678,300.834 58.594,300.99 L58.594,300.99 L55.264,307.992 C55.18,308.16 55.093,308.31 55.003,308.442 C54.913,308.574 54.79,308.652 54.634,308.676 L54.634,308.676 L54.634,309 L57.19,309 Z M61.42,305.328 L58.216,305.328 L59.908,301.98 L61.42,305.328 Z M72.544,309 C73.252,309 73.852,308.886 74.344,308.658 C74.836,308.43 75.238,308.133 75.55,307.767 C75.862,307.401 76.09,306.981 76.234,306.507 C76.378,306.033 76.45,305.544 76.45,305.04 C76.45,304.536 76.375,304.047 76.225,303.573 C76.075,303.099 75.841,302.679 75.523,302.313 C75.205,301.947 74.794,301.65 74.29,301.422 C73.786,301.194 73.18,301.08 72.472,301.08 L72.472,301.08 L67.468,301.08 L67.468,301.404 C67.744,301.404 67.882,301.494 67.882,301.674 L67.882,301.674 L67.882,308.406 C67.882,308.586 67.744,308.676 67.468,308.676 L67.468,308.676 L67.468,309 L72.544,309 Z M71.95,307.668 L69.61,307.668 L69.61,302.412 L71.95,302.412 C72.322,302.412 72.676,302.433 73.012,302.475 C73.348,302.517 73.642,302.625 73.894,302.799 C74.146,302.973 74.347,303.231 74.497,303.573 C74.647,303.915 74.722,304.386 74.722,304.986 C74.722,305.586 74.647,306.063 74.497,306.417 C74.347,306.771 74.146,307.041 73.894,307.227 C73.642,307.413 73.348,307.533 73.012,307.587 C72.676,307.641 72.322,307.668 71.95,307.668 L71.95,307.668 Z M83.542,309 C84.25,309 84.85,308.886 85.342,308.658 C85.834,308.43 86.236,308.133 86.548,307.767 C86.86,307.401 87.088,306.981 87.232,306.507 C87.376,306.033 87.448,305.544 87.448,305.04 C87.448,304.536 87.373,304.047 87.223,303.573 C87.073,303.099 86.839,302.679 86.521,302.313 C86.203,301.947 85.792,301.65 85.288,301.422 C84.784,301.194 84.178,301.08 83.47,301.08 L83.47,301.08 L78.466,301.08 L78.466,301.404 C78.742,301.404 78.88,301.494 78.88,301.674 L78.88,301.674 L78.88,308.406 C78.88,308.586 78.742,308.676 78.466,308.676 L78.466,308.676 L78.466,309 L83.542,309 Z M82.948,307.668 L80.608,307.668 L80.608,302.412 L82.948,302.412 C83.32,302.412 83.674,302.433 84.01,302.475 C84.346,302.517 84.64,302.625 84.892,302.799 C85.144,302.973 85.345,303.231 85.495,303.573 C85.645,303.915 85.72,304.386 85.72,304.986 C85.72,305.586 85.645,306.063 85.495,306.417 C85.345,306.771 85.144,307.041 84.892,307.227 C84.64,307.413 84.346,307.533 84.01,307.587 C83.674,307.641 83.32,307.668 82.948,307.668 L82.948,307.668 Z M99.436,309 L99.436,308.676 C99.22,308.676 99.112,308.586 99.112,308.406 L99.112,308.406 L99.112,302.412 L101.452,302.412 C101.548,302.412 101.638,302.436 101.722,302.484 C101.806,302.532 101.848,302.61 101.848,302.718 L101.848,302.718 L102.172,302.718 L102.172,300.648 L101.848,300.648 C101.848,300.816 101.806,300.93 101.722,300.99 C101.638,301.05 101.548,301.08 101.452,301.08 L101.452,301.08 L95.044,301.08 C94.948,301.08 94.858,301.05 94.774,300.99 C94.69,300.93 94.648,300.816 94.648,300.648 L94.648,300.648 L94.324,300.648 L94.324,302.718 L94.648,302.718 C94.648,302.61 94.69,302.532 94.774,302.484 C94.858,302.436 94.948,302.412 95.044,302.412 L95.044,302.412 L97.384,302.412 L97.384,308.406 C97.384,308.502 97.354,308.571 97.294,308.613 C97.234,308.655 97.174,308.676 97.114,308.676 L97.114,308.676 L97.114,309 L99.436,309 Z M106.6,309 L106.6,308.676 C106.528,308.676 106.465,308.655 106.411,308.613 C106.357,308.571 106.33,308.502 106.33,308.406 L106.33,308.406 L106.33,305.688 L111.154,305.688 L111.154,308.406 C111.154,308.502 111.127,308.571 111.073,308.613 C111.019,308.655 110.956,308.676 110.884,308.676 L110.884,308.676 L110.884,309 L113.152,309 L113.152,308.676 C113.08,308.676 113.017,308.655 112.963,308.613 C112.909,308.571 112.882,308.502 112.882,308.406 L112.882,308.406 L112.882,301.674 C112.882,301.578 112.909,301.509 112.963,301.467 C113.017,301.425 113.08,301.404 113.152,301.404 L113.152,301.404 L113.152,301.08 L110.884,301.08 L110.884,301.404 C110.956,301.404 111.019,301.425 111.073,301.467 C111.127,301.509 111.154,301.578 111.154,301.674 L111.154,301.674 L111.154,304.212 L106.33,304.212 L106.33,301.674 C106.33,301.578 106.357,301.509 106.411,301.467 C106.465,301.425 106.528,301.404 106.6,301.404 L106.6,301.404 L106.6,301.08 L104.332,301.08 L104.332,301.404 C104.404,301.404 104.467,301.425 104.521,301.467 C104.575,301.509 104.602,301.578 104.602,301.674 L104.602,301.674 L104.602,308.406 C104.602,308.502 104.575,308.571 104.521,308.613 C104.467,308.655 104.404,308.676 104.332,308.676 L104.332,308.676 L104.332,309 L106.6,309 Z M119.11,309 L119.11,308.676 C118.774,308.676 118.606,308.586 118.606,308.406 L118.606,308.406 L118.606,301.674 C118.606,301.494 118.774,301.404 119.11,301.404 L119.11,301.404 L119.11,301.08 L116.374,301.08 L116.374,301.404 C116.566,301.404 116.698,301.425 116.77,301.467 C116.842,301.509 116.878,301.578 116.878,301.674 L116.878,301.674 L116.878,308.406 C116.878,308.502 116.842,308.571 116.77,308.613 C116.698,308.655 116.566,308.676 116.374,308.676 L116.374,308.676 L116.374,309 L119.11,309 Z M125.608,309.054 C126.016,309.054 126.451,309.024 126.913,308.964 C127.375,308.904 127.798,308.778 128.182,308.586 C128.566,308.394 128.887,308.13 129.145,307.794 C129.403,307.458 129.532,307.026 129.532,306.498 C129.532,305.97 129.385,305.556 129.091,305.256 C128.797,304.956 128.428,304.728 127.984,304.572 C127.54,304.416 127.06,304.305 126.544,304.239 C126.028,304.173 125.548,304.107 125.104,304.041 C124.66,303.975 124.291,303.885 123.997,303.771 C123.703,303.657 123.556,303.468 123.556,303.204 C123.556,303.036 123.604,302.895 123.7,302.781 C123.796,302.667 123.928,302.574 124.096,302.502 C124.264,302.43 124.456,302.379 124.672,302.349 C124.888,302.319 125.116,302.304 125.356,302.304 C125.98,302.304 126.544,302.376 127.048,302.52 C127.552,302.664 127.924,302.838 128.164,303.042 C128.26,303.114 128.314,303.186 128.326,303.258 C128.338,303.33 128.35,303.402 128.362,303.474 L128.362,303.474 L128.686,303.582 L129.586,301.89 L129.388,301.692 C129.316,301.728 129.256,301.761 129.208,301.791 C129.16,301.821 129.088,301.836 128.992,301.836 C128.908,301.836 128.779,301.791 128.605,301.701 C128.431,301.611 128.206,301.512 127.93,301.404 C127.654,301.296 127.315,301.197 126.913,301.107 C126.511,301.017 126.028,300.972 125.464,300.972 C124.312,300.972 123.418,301.2 122.782,301.656 C122.146,302.112 121.828,302.724 121.828,303.492 C121.828,304.008 121.975,304.407 122.269,304.689 C122.563,304.971 122.932,305.187 123.376,305.337 C123.82,305.487 124.3,305.595 124.816,305.661 C125.332,305.727 125.812,305.793 126.256,305.859 C126.7,305.925 127.069,306.018 127.363,306.138 C127.657,306.258 127.804,306.45 127.804,306.714 C127.804,306.942 127.72,307.125 127.552,307.263 C127.384,307.401 127.18,307.509 126.94,307.587 C126.7,307.665 126.457,307.716 126.211,307.74 C125.965,307.764 125.758,307.776 125.59,307.776 C125.41,307.776 125.161,307.746 124.843,307.686 C124.525,307.626 124.207,307.545 123.889,307.443 C123.571,307.341 123.298,307.215 123.07,307.065 C122.842,306.915 122.728,306.75 122.728,306.57 C122.728,306.51 122.731,306.453 122.737,306.399 C122.743,306.345 122.746,306.294 122.746,306.246 L122.746,306.246 L122.404,306.156 L121.576,308.172 L121.828,308.352 C121.888,308.28 121.96,308.244 122.044,308.244 C122.092,308.244 122.23,308.289 122.458,308.379 C122.686,308.469 122.965,308.565 123.295,308.667 C123.625,308.769 123.991,308.859 124.393,308.937 C124.795,309.015 125.2,309.054 125.608,309.054 Z M141.934,309 L141.934,308.676 C141.718,308.676 141.61,308.586 141.61,308.406 L141.61,308.406 L141.61,302.412 L143.95,302.412 C144.046,302.412 144.136,302.436 144.22,302.484 C144.304,302.532 144.346,302.61 144.346,302.718 L144.346,302.718 L144.67,302.718 L144.67,300.648 L144.346,300.648 C144.346,300.816 144.304,300.93 144.22,300.99 C144.136,301.05 144.046,301.08 143.95,301.08 L143.95,301.08 L137.542,301.08 C137.446,301.08 137.356,301.05 137.272,300.99 C137.188,300.93 137.146,300.816 137.146,300.648 L137.146,300.648 L136.822,300.648 L136.822,302.718 L137.146,302.718 C137.146,302.61 137.188,302.532 137.272,302.484 C137.356,302.436 137.446,302.412 137.542,302.412 L137.542,302.412 L139.882,302.412 L139.882,308.406 C139.882,308.502 139.852,308.571 139.792,308.613 C139.732,308.655 139.672,308.676 139.612,308.676 L139.612,308.676 L139.612,309 L141.934,309 Z M150.736,309.054 C151.396,309.054 152.017,308.979 152.599,308.829 C153.181,308.679 153.688,308.436 154.12,308.1 C154.552,307.764 154.894,307.341 155.146,306.831 C155.398,306.321 155.524,305.724 155.524,305.04 C155.524,304.356 155.398,303.759 155.146,303.249 C154.894,302.739 154.552,302.316 154.12,301.98 C153.688,301.644 153.181,301.392 152.599,301.224 C152.017,301.056 151.396,300.972 150.736,300.972 C150.076,300.972 149.455,301.056 148.873,301.224 C148.291,301.392 147.784,301.644 147.352,301.98 C146.92,302.316 146.578,302.739 146.326,303.249 C146.074,303.759 145.948,304.356 145.948,305.04 C145.948,305.724 146.074,306.321 146.326,306.831 C146.578,307.341 146.92,307.764 147.352,308.1 C147.784,308.436 148.291,308.679 148.873,308.829 C149.455,308.979 150.076,309.054 150.736,309.054 Z M150.736,307.776 C150.352,307.776 149.977,307.713 149.611,307.587 C149.245,307.461 148.918,307.281 148.63,307.047 C148.342,306.813 148.111,306.528 147.937,306.192 C147.763,305.856 147.676,305.472 147.676,305.04 C147.676,304.608 147.763,304.224 147.937,303.888 C148.111,303.552 148.342,303.267 148.63,303.033 C148.918,302.799 149.245,302.619 149.611,302.493 C149.977,302.367 150.352,302.304 150.736,302.304 C151.12,302.304 151.495,302.367 151.861,302.493 C152.227,302.619 152.554,302.799 152.842,303.033 C153.13,303.267 153.361,303.552 153.535,303.888 C153.709,304.224 153.796,304.608 153.796,305.04 C153.796,305.472 153.709,305.856 153.535,306.192 C153.361,306.528 153.13,306.813 152.842,307.047 C152.554,307.281 152.227,307.461 151.861,307.587 C151.495,307.713 151.12,307.776 150.736,307.776 Z M167.944,309 L167.944,308.676 C167.716,308.676 167.602,308.586 167.602,308.406 L167.602,308.406 L167.602,305.706 L170.356,302.142 C170.488,301.974 170.641,301.809 170.815,301.647 C170.989,301.485 171.148,301.404 171.292,301.404 L171.292,301.404 L171.292,301.08 L168.538,301.08 L168.538,301.404 C168.598,301.404 168.658,301.416 168.718,301.44 C168.778,301.464 168.808,301.524 168.808,301.62 C168.808,301.692 168.781,301.767 168.727,301.845 C168.673,301.923 168.592,302.04 168.484,302.196 L168.484,302.196 L166.882,304.428 L165.064,302.052 C165.004,301.968 164.95,301.896 164.902,301.836 C164.854,301.776 164.83,301.71 164.83,301.638 C164.83,301.566 164.866,301.509 164.938,301.467 C165.01,301.425 165.076,301.404 165.136,301.404 L165.136,301.404 L165.136,301.08 L162.166,301.08 L162.166,301.404 C162.274,301.404 162.388,301.428 162.508,301.476 C162.628,301.524 162.73,301.602 162.814,301.71 L162.814,301.71 L165.874,305.634 L165.874,308.406 C165.874,308.586 165.766,308.676 165.55,308.676 L165.55,308.676 L165.55,309 L167.944,309 Z M177.232,309.054 C177.892,309.054 178.513,308.979 179.095,308.829 C179.677,308.679 180.184,308.436 180.616,308.1 C181.048,307.764 181.39,307.341 181.642,306.831 C181.894,306.321 182.02,305.724 182.02,305.04 C182.02,304.356 181.894,303.759 181.642,303.249 C181.39,302.739 181.048,302.316 180.616,301.98 C180.184,301.644 179.677,301.392 179.095,301.224 C178.513,301.056 177.892,300.972 177.232,300.972 C176.572,300.972 175.951,301.056 175.369,301.224 C174.787,301.392 174.28,301.644 173.848,301.98 C173.416,302.316 173.074,302.739 172.822,303.249 C172.57,303.759 172.444,304.356 172.444,305.04 C172.444,305.724 172.57,306.321 172.822,306.831 C173.074,307.341 173.416,307.764 173.848,308.1 C174.28,308.436 174.787,308.679 175.369,308.829 C175.951,308.979 176.572,309.054 177.232,309.054 Z M177.232,307.776 C176.848,307.776 176.473,307.713 176.107,307.587 C175.741,307.461 175.414,307.281 175.126,307.047 C174.838,306.813 174.607,306.528 174.433,306.192 C174.259,305.856 174.172,305.472 174.172,305.04 C174.172,304.608 174.259,304.224 174.433,303.888 C174.607,303.552 174.838,303.267 175.126,303.033 C175.414,302.799 175.741,302.619 176.107,302.493 C176.473,302.367 176.848,302.304 177.232,302.304 C177.616,302.304 177.991,302.367 178.357,302.493 C178.723,302.619 179.05,302.799 179.338,303.033 C179.626,303.267 179.857,303.552 180.031,303.888 C180.205,304.224 180.292,304.608 180.292,305.04 C180.292,305.472 180.205,305.856 180.031,306.192 C179.857,306.528 179.626,306.813 179.338,307.047 C179.05,307.281 178.723,307.461 178.357,307.587 C177.991,307.713 177.616,307.776 177.232,307.776 Z M188.806,309.054 C189.526,309.054 190.153,308.979 190.687,308.829 C191.221,308.679 191.659,308.472 192.001,308.208 C192.343,307.944 192.598,307.641 192.766,307.299 C192.934,306.957 193.018,306.6 193.018,306.228 L193.018,306.228 L193.018,301.674 C193.018,301.494 193.15,301.404 193.414,301.404 L193.414,301.404 L193.414,301.08 L190.912,301.08 L190.912,301.404 C191.212,301.404 191.362,301.494 191.362,301.674 L191.362,301.674 L191.362,305.796 C191.362,306.372 191.152,306.834 190.732,307.182 C190.312,307.53 189.67,307.704 188.806,307.704 C187.942,307.704 187.3,307.53 186.88,307.182 C186.46,306.834 186.25,306.372 186.25,305.796 L186.25,305.796 L186.25,301.674 C186.25,301.494 186.382,301.404 186.646,301.404 L186.646,301.404 L186.646,301.08 L184.072,301.08 L184.072,301.404 C184.276,301.404 184.414,301.425 184.486,301.467 C184.558,301.509 184.594,301.578 184.594,301.674 L184.594,301.674 L184.594,306.228 C184.594,306.6 184.678,306.957 184.846,307.299 C185.014,307.641 185.269,307.944 185.611,308.208 C185.953,308.472 186.391,308.679 186.925,308.829 C187.459,308.979 188.086,309.054 188.806,309.054 Z M198.544,309 L198.544,308.676 C198.472,308.676 198.397,308.655 198.319,308.613 C198.241,308.571 198.202,308.502 198.202,308.406 L198.202,308.406 L198.202,305.832 L200.704,305.832 L202.126,307.956 C202.306,308.208 202.396,308.394 202.396,308.514 C202.396,308.622 202.318,308.676 202.162,308.676 L202.162,308.676 L202.162,309 L204.916,309 L204.916,308.676 C204.784,308.64 204.661,308.589 204.547,308.523 C204.433,308.457 204.328,308.358 204.232,308.226 L204.232,308.226 L202.468,305.652 C202.72,305.592 202.966,305.505 203.206,305.391 C203.446,305.277 203.665,305.127 203.863,304.941 C204.061,304.755 204.22,304.536 204.34,304.284 C204.46,304.032 204.52,303.744 204.52,303.42 C204.52,302.568 204.22,301.965 203.62,301.611 C203.02,301.257 202.186,301.08 201.118,301.08 L201.118,301.08 L196.15,301.08 L196.15,301.404 C196.366,301.404 196.474,301.494 196.474,301.674 L196.474,301.674 L196.474,308.406 C196.474,308.586 196.366,308.676 196.15,308.676 L196.15,308.676 L196.15,309 L198.544,309 Z M201.082,304.5 L198.238,304.5 L198.238,302.412 L201.082,302.412 C201.694,302.412 202.141,302.499 202.423,302.673 C202.705,302.847 202.846,303.084 202.846,303.384 C202.846,304.128 202.258,304.5 201.082,304.5 L201.082,304.5 Z M73.354,327.054 C73.762,327.054 74.197,327.024 74.659,326.964 C75.121,326.904 75.544,326.778 75.928,326.586 C76.312,326.394 76.633,326.13 76.891,325.794 C77.149,325.458 77.278,325.026 77.278,324.498 C77.278,323.97 77.131,323.556 76.837,323.256 C76.543,322.956 76.174,322.728 75.73,322.572 C75.286,322.416 74.806,322.305 74.29,322.239 C73.774,322.173 73.294,322.107 72.85,322.041 C72.406,321.975 72.037,321.885 71.743,321.771 C71.449,321.657 71.302,321.468 71.302,321.204 C71.302,321.036 71.35,320.895 71.446,320.781 C71.542,320.667 71.674,320.574 71.842,320.502 C72.01,320.43 72.202,320.379 72.418,320.349 C72.634,320.319 72.862,320.304 73.102,320.304 C73.726,320.304 74.29,320.376 74.794,320.52 C75.298,320.664 75.67,320.838 75.91,321.042 C76.006,321.114 76.06,321.186 76.072,321.258 L76.072,321.258 L76.108,321.474 L76.432,321.582 L77.332,319.89 L77.134,319.692 C77.062,319.728 77.002,319.761 76.954,319.791 C76.906,319.821 76.834,319.836 76.738,319.836 C76.654,319.836 76.525,319.791 76.351,319.701 C76.177,319.611 75.952,319.512 75.676,319.404 C75.4,319.296 75.061,319.197 74.659,319.107 C74.257,319.017 73.774,318.972 73.21,318.972 C72.058,318.972 71.164,319.2 70.528,319.656 C69.892,320.112 69.574,320.724 69.574,321.492 C69.574,322.008 69.721,322.407 70.015,322.689 C70.309,322.971 70.678,323.187 71.122,323.337 C71.566,323.487 72.046,323.595 72.562,323.661 C73.078,323.727 73.558,323.793 74.002,323.859 C74.446,323.925 74.815,324.018 75.109,324.138 C75.403,324.258 75.55,324.45 75.55,324.714 C75.55,324.942 75.466,325.125 75.298,325.263 C75.13,325.401 74.926,325.509 74.686,325.587 C74.446,325.665 74.203,325.716 73.957,325.74 C73.711,325.764 73.504,325.776 73.336,325.776 C73.156,325.776 72.907,325.746 72.589,325.686 C72.271,325.626 71.953,325.545 71.635,325.443 C71.317,325.341 71.044,325.215 70.816,325.065 C70.588,324.915 70.474,324.75 70.474,324.57 C70.474,324.51 70.477,324.453 70.483,324.399 C70.489,324.345 70.492,324.294 70.492,324.246 L70.492,324.246 L70.15,324.156 L69.322,326.172 L69.574,326.352 C69.634,326.28 69.706,326.244 69.79,326.244 C69.838,326.244 69.976,326.289 70.204,326.379 C70.432,326.469 70.711,326.565 71.041,326.667 C71.371,326.769 71.737,326.859 72.139,326.937 C72.541,327.015 72.946,327.054 73.354,327.054 Z M84.712,327 L84.712,326.676 C84.484,326.676 84.37,326.586 84.37,326.406 L84.37,326.406 L84.37,323.706 L87.124,320.142 C87.256,319.974 87.409,319.809 87.583,319.647 C87.757,319.485 87.916,319.404 88.06,319.404 L88.06,319.404 L88.06,319.08 L85.306,319.08 L85.306,319.404 C85.366,319.404 85.426,319.416 85.486,319.44 C85.546,319.464 85.576,319.524 85.576,319.62 C85.576,319.692 85.549,319.767 85.495,319.845 C85.441,319.923 85.36,320.04 85.252,320.196 L85.252,320.196 L83.65,322.428 L81.832,320.052 C81.772,319.968 81.718,319.896 81.67,319.836 C81.622,319.776 81.598,319.71 81.598,319.638 C81.598,319.566 81.634,319.509 81.706,319.467 C81.778,319.425 81.844,319.404 81.904,319.404 L81.904,319.404 L81.904,319.08 L78.934,319.08 L78.934,319.404 C79.042,319.404 79.156,319.428 79.276,319.476 C79.396,319.524 79.498,319.602 79.582,319.71 L79.582,319.71 L82.642,323.634 L82.642,326.406 C82.642,326.586 82.534,326.676 82.318,326.676 L82.318,326.676 L82.318,327 L84.712,327 Z M92.218,327 L92.218,326.676 C92.014,326.676 91.912,326.586 91.912,326.406 L91.912,326.406 L91.912,321.348 L91.93,321.348 L94.828,327 L94.972,327 L98.032,321.348 L98.068,321.348 L98.068,326.406 C98.104,326.586 97.996,326.676 97.744,326.676 L97.744,326.676 L97.744,327 L99.832,327 L99.832,326.676 C99.772,326.676 99.715,326.655 99.661,326.613 C99.607,326.571 99.58,326.502 99.58,326.406 L99.58,326.406 L99.58,319.638 C99.58,319.542 99.607,319.479 99.661,319.449 C99.715,319.419 99.772,319.404 99.832,319.404 L99.832,319.404 L99.832,319.08 L97.294,319.08 L97.294,319.404 C97.39,319.404 97.438,319.458 97.438,319.566 C97.438,319.602 97.414,319.665 97.366,319.755 C97.318,319.845 97.252,319.962 97.168,320.106 L97.168,320.106 L94.954,324.138 L92.758,320.088 C92.674,319.944 92.611,319.833 92.569,319.755 C92.527,319.677 92.506,319.614 92.506,319.566 C92.506,319.458 92.566,319.404 92.686,319.404 L92.686,319.404 L92.686,319.08 L90.184,319.08 L90.184,319.404 C90.268,319.404 90.325,319.422 90.355,319.458 C90.385,319.494 90.4,319.596 90.4,319.764 L90.4,319.764 L90.4,326.352 C90.4,326.484 90.379,326.568 90.337,326.604 C90.295,326.64 90.244,326.664 90.184,326.676 L90.184,326.676 L90.184,327 L92.218,327 Z M105.268,327 L105.268,326.676 C105.016,326.676 104.89,326.586 104.89,326.406 L104.89,326.406 L104.89,323.706 L107.95,323.706 C108.922,323.706 109.651,323.541 110.137,323.211 C110.623,322.881 110.866,322.284 110.866,321.42 C110.866,320.556 110.623,319.95 110.137,319.602 C109.651,319.254 108.922,319.08 107.95,319.08 L107.95,319.08 L102.712,319.08 L102.712,319.404 C103.012,319.404 103.162,319.494 103.162,319.674 L103.162,319.674 L103.162,326.406 C103.162,326.586 103.012,326.676 102.712,326.676 L102.712,326.676 L102.712,327 L105.268,327 Z M107.914,322.374 L104.89,322.374 L104.89,320.412 L107.914,320.412 C108.262,320.412 108.553,320.487 108.787,320.637 C109.021,320.787 109.138,321.048 109.138,321.42 C109.138,321.804 109.021,322.059 108.787,322.185 C108.553,322.311 108.262,322.374 107.914,322.374 L107.914,322.374 Z M117.202,327 L117.202,326.676 C116.986,326.676 116.878,326.586 116.878,326.406 L116.878,326.406 L116.878,320.412 L119.218,320.412 C119.314,320.412 119.404,320.436 119.488,320.484 C119.572,320.532 119.614,320.61 119.614,320.718 L119.614,320.718 L119.938,320.718 L119.938,318.648 L119.614,318.648 C119.614,318.816 119.572,318.93 119.488,318.99 C119.404,319.05 119.314,319.08 119.218,319.08 L119.218,319.08 L112.81,319.08 C112.714,319.08 112.624,319.05 112.54,318.99 C112.456,318.93 112.414,318.816 112.414,318.648 L112.414,318.648 L112.09,318.648 L112.09,320.718 L112.414,320.718 C112.414,320.61 112.456,320.532 112.54,320.484 C112.624,320.436 112.714,320.412 112.81,320.412 L112.81,320.412 L115.15,320.412 L115.15,326.406 C115.15,326.502 115.12,326.571 115.06,326.613 C115,326.655 114.94,326.676 114.88,326.676 L114.88,326.676 L114.88,327 L117.202,327 Z M126.004,327.054 C126.664,327.054 127.285,326.979 127.867,326.829 C128.449,326.679 128.956,326.436 129.388,326.1 C129.82,325.764 130.162,325.341 130.414,324.831 C130.666,324.321 130.792,323.724 130.792,323.04 C130.792,322.356 130.666,321.759 130.414,321.249 C130.162,320.739 129.82,320.316 129.388,319.98 C128.956,319.644 128.449,319.392 127.867,319.224 C127.285,319.056 126.664,318.972 126.004,318.972 C125.344,318.972 124.723,319.056 124.141,319.224 C123.559,319.392 123.052,319.644 122.62,319.98 C122.188,320.316 121.846,320.739 121.594,321.249 C121.342,321.759 121.216,322.356 121.216,323.04 C121.216,323.724 121.342,324.321 121.594,324.831 C121.846,325.341 122.188,325.764 122.62,326.1 C123.052,326.436 123.559,326.679 124.141,326.829 C124.723,326.979 125.344,327.054 126.004,327.054 Z M126.004,325.776 C125.62,325.776 125.245,325.713 124.879,325.587 C124.513,325.461 124.186,325.281 123.898,325.047 C123.61,324.813 123.379,324.528 123.205,324.192 C123.031,323.856 122.944,323.472 122.944,323.04 C122.944,322.608 123.031,322.224 123.205,321.888 C123.379,321.552 123.61,321.267 123.898,321.033 C124.186,320.799 124.513,320.619 124.879,320.493 C125.245,320.367 125.62,320.304 126.004,320.304 C126.388,320.304 126.763,320.367 127.129,320.493 C127.495,320.619 127.822,320.799 128.11,321.033 C128.398,321.267 128.629,321.552 128.803,321.888 C128.977,322.224 129.064,322.608 129.064,323.04 C129.064,323.472 128.977,323.856 128.803,324.192 C128.629,324.528 128.398,324.813 128.11,325.047 C127.822,325.281 127.495,325.461 127.129,325.587 C126.763,325.713 126.388,325.776 126.004,325.776 Z M135.22,327 L135.22,326.676 C135.016,326.676 134.914,326.586 134.914,326.406 L134.914,326.406 L134.914,321.348 L134.932,321.348 L137.83,327 L137.974,327 L141.034,321.348 L141.07,321.348 L141.07,326.406 C141.106,326.586 140.998,326.676 140.746,326.676 L140.746,326.676 L140.746,327 L142.834,327 L142.834,326.676 C142.774,326.676 142.717,326.655 142.663,326.613 C142.609,326.571 142.582,326.502 142.582,326.406 L142.582,326.406 L142.582,319.638 C142.582,319.542 142.609,319.479 142.663,319.449 C142.717,319.419 142.774,319.404 142.834,319.404 L142.834,319.404 L142.834,319.08 L140.296,319.08 L140.296,319.404 C140.392,319.404 140.44,319.458 140.44,319.566 C140.44,319.602 140.416,319.665 140.368,319.755 C140.32,319.845 140.254,319.962 140.17,320.106 L140.17,320.106 L137.956,324.138 L135.76,320.088 C135.676,319.944 135.613,319.833 135.571,319.755 C135.529,319.677 135.508,319.614 135.508,319.566 C135.508,319.458 135.568,319.404 135.688,319.404 L135.688,319.404 L135.688,319.08 L133.186,319.08 L133.186,319.404 C133.27,319.404 133.327,319.422 133.357,319.458 C133.387,319.494 133.402,319.596 133.402,319.764 L133.402,319.764 L133.402,326.352 C133.402,326.484 133.381,326.568 133.339,326.604 C133.297,326.64 133.246,326.664 133.186,326.676 L133.186,326.676 L133.186,327 L135.22,327 Z M153.76,327 L153.76,326.676 C153.508,326.676 153.382,326.586 153.382,326.406 L153.382,326.406 L153.382,323.706 L156.442,323.706 C157.414,323.706 158.143,323.541 158.629,323.211 C159.115,322.881 159.358,322.284 159.358,321.42 C159.358,320.556 159.115,319.95 158.629,319.602 C158.143,319.254 157.414,319.08 156.442,319.08 L156.442,319.08 L151.204,319.08 L151.204,319.404 C151.504,319.404 151.654,319.494 151.654,319.674 L151.654,319.674 L151.654,326.406 C151.654,326.586 151.504,326.676 151.204,326.676 L151.204,326.676 L151.204,327 L153.76,327 Z M156.406,322.374 L153.382,322.374 L153.382,320.412 L156.406,320.412 C156.754,320.412 157.045,320.487 157.279,320.637 C157.513,320.787 157.63,321.048 157.63,321.42 C157.63,321.804 157.513,322.059 157.279,322.185 C157.045,322.311 156.754,322.374 156.406,322.374 L156.406,322.374 Z M164.362,327 L164.362,326.676 C164.026,326.676 163.858,326.586 163.858,326.406 L163.858,326.406 L163.858,319.674 C163.858,319.494 164.026,319.404 164.362,319.404 L164.362,319.404 L164.362,319.08 L161.626,319.08 L161.626,319.404 C161.818,319.404 161.95,319.425 162.022,319.467 C162.094,319.509 162.13,319.578 162.13,319.674 L162.13,319.674 L162.13,326.406 C162.13,326.502 162.094,326.571 162.022,326.613 C161.95,326.655 161.818,326.676 161.626,326.676 L161.626,326.676 L161.626,327 L164.362,327 Z M175.252,327.18 L175.252,325.29 L174.928,325.29 C174.928,325.41 174.88,325.503 174.784,325.569 C174.688,325.635 174.568,325.668 174.424,325.668 L174.424,325.668 L169.564,325.668 L169.564,319.674 C169.564,319.494 169.702,319.404 169.978,319.404 L169.978,319.404 L169.978,319.08 L167.368,319.08 L167.368,319.404 C167.68,319.404 167.836,319.494 167.836,319.674 L167.836,319.674 L167.836,326.406 C167.836,326.586 167.68,326.676 167.368,326.676 L167.368,326.676 L167.368,327 L174.424,327 C174.568,327 174.688,327.006 174.784,327.018 C174.88,327.03 174.928,327.084 174.928,327.18 L174.928,327.18 L175.252,327.18 Z M184.918,327.198 L184.918,325.308 L184.594,325.308 C184.594,325.416 184.546,325.503 184.45,325.569 C184.354,325.635 184.234,325.668 184.09,325.668 L184.09,325.668 L179.482,325.668 L179.482,323.544 L182.11,323.544 C182.35,323.544 182.536,323.559 182.668,323.589 C182.8,323.619 182.848,323.7 182.812,323.832 L182.812,323.832 L183.172,323.832 L183.172,321.924 L182.848,321.924 C182.848,322.056 182.8,322.137 182.704,322.167 C182.608,322.197 182.458,322.212 182.254,322.212 L182.254,322.212 L179.482,322.212 L179.482,320.412 L183.874,320.412 C184.246,320.412 184.432,320.526 184.432,320.754 L184.432,320.754 L184.756,320.754 L184.756,318.756 L184.432,318.756 C184.432,318.972 184.246,319.08 183.874,319.08 L183.874,319.08 L177.484,319.08 L177.484,319.404 C177.544,319.404 177.604,319.425 177.664,319.467 C177.724,319.509 177.754,319.578 177.754,319.674 L177.754,319.674 L177.754,326.406 C177.754,326.502 177.724,326.571 177.664,326.613 C177.604,326.655 177.544,326.676 177.484,326.676 L177.484,326.676 L177.484,327 L184.09,327 C184.234,327 184.354,327.006 184.45,327.018 C184.546,327.03 184.594,327.09 184.594,327.198 L184.594,327.198 L184.918,327.198 Z M188.752,327.054 C189.1,327.054 189.4,326.937 189.652,326.703 C189.904,326.469 190.03,326.178 190.03,325.83 C190.03,325.482 189.904,325.182 189.652,324.93 C189.4,324.678 189.1,324.552 188.752,324.552 C188.404,324.552 188.104,324.678 187.852,324.93 C187.6,325.182 187.474,325.482 187.474,325.83 C187.474,326.178 187.6,326.469 187.852,326.703 C188.104,326.937 188.404,327.054 188.752,327.054 Z" id="ThedoctorcalledmehotItwasntacompliment.Addthistoyoursymptompile." fill="#000000" fill-rule="nonzero"></path>
    </g>
</svg>