<?xml version="1.0" encoding="UTF-8"?>
<svg width="262px" height="360px" viewBox="0 0 262 360" version="1.1" xmlns="http://www.w3.org/2000/svg" xmlns:xlink="http://www.w3.org/1999/xlink">
    <title>Headache 2</title>
    <g id="Headache-2" stroke="none" stroke-width="1" fill="none" fill-rule="evenodd">
        <g id="Group" transform="translate(9.000000, 9.000000)" fill="#FFFFFF" stroke="#000000" stroke-width="3">
            <g id="Rectangle">
                <rect x="1.5" y="1.5" width="239" height="337" rx="8"></rect>
            </g>
        </g>
        <path d="M216.124,30 L216.124,29.712 C215.964,29.712 215.82,29.668 215.692,29.58 C215.564,29.492 215.5,29.312 215.5,29.04 L215.5,29.04 L215.5,18.048 C215.5,17.888 215.564,17.768 215.692,17.688 C215.82,17.608 215.98,17.552 216.172,17.52 L216.172,17.52 L216.172,17.232 L212.284,17.232 L212.284,17.52 C212.46,17.552 212.6,17.6 212.704,17.664 C212.808,17.728 212.86,17.872 212.86,18.096 C212.86,18.336 212.768,18.54 212.584,18.708 C212.4,18.876 212.172,18.96 211.9,18.96 C211.772,18.96 211.636,18.932 211.492,18.876 C211.348,18.82 211.276,18.72 211.276,18.576 L211.276,18.576 L210.988,18.576 L210.988,21.6 L211.276,21.6 C211.324,21.472 211.408,21.372 211.528,21.3 C211.648,21.228 211.78,21.172 211.924,21.132 C212.068,21.092 212.216,21.064 212.368,21.048 C212.52,21.032 212.652,21.024 212.764,21.024 L212.764,21.024 L212.764,29.04 C212.764,29.312 212.704,29.492 212.584,29.58 C212.464,29.668 212.324,29.712 212.164,29.712 L212.164,29.712 L212.164,30 L216.124,30 Z" id="1" fill="#000000" fill-rule="nonzero"></path>
        <g id="Face" transform="translate(225.000000, 15.000000)">
            <circle id="Oval" stroke="#000000" fill="#FFFFFF" cx="9.5" cy="9.5" r="9"></circle>
            <circle id="Oval" fill="#000000" cx="5" cy="8" r="1"></circle>
            <circle id="Oval-Copy" fill="#000000" cx="12" cy="8" r="1"></circle>
            <line x1="12.0789474" y1="13.9090909" x2="14.5" y2="11.5" id="Line-4" stroke="#000000" stroke-linecap="round"></line>
            <path d="M3,5.89285714 C3.41025641,5.96428571 3.76923077,6 4.07692308,6 C4.38461538,6 5.35897436,5.33333333 7,4" id="Line-2" stroke="#000000"></path>
            <path d="M6,15 C6.96078431,14.3333333 8.07598039,14 9.34558824,14 C10.6151961,14 11.8333333,14.3333333 13,15" id="Line" stroke="#000000" stroke-linecap="round" stroke-linejoin="round"></path>
            <path d="M11.3197366,4.68245322 C11.585843,4.80663622 11.7912611,4.92388646 11.9359908,5.03420394 C12.548667,5.50120471 13.1333088,5.70898724 13.3155349,5.80010028 C13.5440857,5.91437569 13.8101922,6.00751295 14.1138542,6.07951204" id="Line-3" stroke="#000000" stroke-linecap="square" transform="translate(12.716795, 5.380983) rotate(-3.000000) translate(-12.716795, -5.380983) "></path>
            <path d="M2.999,9.347 L3.01687864,9.39698204 C3.09438102,9.62639002 3.1880913,9.89570266 3.30282211,10.2112791 C3.48139895,10.7024692 3.54804655,11.0169045 3.47980817,11.2204078 C3.41244402,11.421304 3.17143148,11.4011566 3.01518318,11.4416373 L3.01518318,11.4416373 L2.86575433,11.4813457 C2.78836954,11.5029149 2.70310591,11.5126925 2.63007237,11.4810832 C2.58941161,11.463485 2.56030088,11.4264037 2.54036126,11.376794 C2.4446463,11.1386559 2.49784548,10.759559 2.69717789,10.2112791 C2.8119087,9.89570266 2.90561898,9.62639002 2.98312136,9.39698204 L2.999,9.347 Z" id="Oval" stroke="#000000"></path>
            <path d="M16,6.347 L16.0168786,6.39698204 C16.094381,6.62639002 16.1880913,6.89570266 16.3028221,7.21127907 C16.481399,7.70246915 16.5480465,8.01690453 16.4798082,8.22040783 C16.412444,8.42130397 16.1714315,8.40115659 16.0151832,8.44163726 L16.0151832,8.44163726 L15.8657543,8.48134574 C15.7883695,8.50291486 15.7031059,8.51269255 15.6300724,8.48108319 C15.5894116,8.46348497 15.5603009,8.42640366 15.5403613,8.37679403 C15.4446463,8.13865595 15.4978455,7.75955902 15.6971779,7.21127907 C15.8119087,6.89570266 15.905619,6.62639002 15.9831214,6.39698204 L16,6.347 Z" id="Oval-Copy-2" stroke="#000000"></path>
        </g>
        <rect id="Rectangle" stroke="#000000" stroke-width="3" x="17.5" y="274.5" width="225" height="67" rx="8"></rect>
        <path d="M52.808,57 L52.808,56.352 C52.64,56.352 52.49,56.298 52.358,56.19 C52.226,56.082 52.16,55.92 52.16,55.704 L52.16,55.704 L52.16,48.936 L63.752,48.936 L63.752,55.704 C63.752,56.136 63.488,56.352 62.96,56.352 L62.96,56.352 L62.96,57 L68.504,57 L68.504,56.352 C68.336,56.352 68.186,56.298 68.054,56.19 C67.922,56.082 67.856,55.92 67.856,55.704 L67.856,55.704 L67.856,39.36 C67.856,39.144 67.922,38.982 68.054,38.874 C68.186,38.766 68.336,38.712 68.504,38.712 L68.504,38.712 L68.504,38.064 L62.96,38.064 L62.96,38.712 C63.488,38.712 63.752,38.928 63.752,39.36 L63.752,39.36 L63.752,45.48 L52.16,45.48 L52.16,39.36 C52.16,39.144 52.226,38.982 52.358,38.874 C52.49,38.766 52.64,38.712 52.808,38.712 L52.808,38.712 L52.808,38.064 L47.372,38.064 L47.372,38.712 C47.828,38.712 48.056,38.928 48.056,39.36 L48.056,39.36 L48.056,55.704 C48.056,56.136 47.828,56.352 47.372,56.352 L47.372,56.352 L47.372,57 L52.808,57 Z M89.78,57.396 L89.78,53.616 L89.132,53.616 C89.132,53.832 89.036,54.006 88.844,54.138 C88.652,54.27 88.412,54.336 88.124,54.336 L88.124,54.336 L78.908,54.336 L78.908,50.088 L84.164,50.088 C84.644,50.088 85.016,50.118 85.28,50.178 C85.544,50.238 85.64,50.4 85.568,50.664 L85.568,50.664 L86.288,50.664 L86.288,46.848 L85.64,46.848 C85.64,47.112 85.544,47.274 85.352,47.334 C85.16,47.394 84.86,47.424 84.452,47.424 L84.452,47.424 L78.908,47.424 L78.908,43.824 L87.692,43.824 C88.436,43.824 88.808,44.052 88.808,44.508 L88.808,44.508 L89.456,44.508 L89.456,40.512 L88.808,40.512 C88.808,40.944 88.436,41.16 87.692,41.16 L87.692,41.16 L74.912,41.16 L74.912,41.808 C75.032,41.808 75.152,41.85 75.272,41.934 C75.392,42.018 75.452,42.156 75.452,42.348 L75.452,42.348 L75.452,55.812 C75.452,56.004 75.392,56.142 75.272,56.226 C75.152,56.31 75.032,56.352 74.912,56.352 L74.912,56.352 L74.912,57 L88.124,57 C88.412,57 88.652,57.012 88.844,57.036 C89.036,57.06 89.132,57.18 89.132,57.396 L89.132,57.396 L89.78,57.396 Z M97.34,57 L97.34,56.352 C97.124,56.352 96.956,56.328 96.836,56.28 C96.716,56.232 96.656,56.112 96.656,55.92 C96.656,55.8 96.686,55.662 96.746,55.506 C96.806,55.35 96.884,55.176 96.98,54.984 L96.98,54.984 L97.988,53.04 L105.692,53.04 L106.664,55.092 C106.736,55.284 106.796,55.44 106.844,55.56 C106.892,55.68 106.916,55.812 106.916,55.956 C106.916,56.148 106.85,56.28 106.718,56.352 C106.586,56.424 106.46,56.46 106.34,56.46 L106.34,56.46 L106.34,57 L111.452,57 L111.452,56.352 C111.284,56.304 111.128,56.232 110.984,56.136 C110.84,56.04 110.708,55.884 110.588,55.668 L110.588,55.668 L104.756,43.428 C104.636,43.164 104.522,42.93 104.414,42.726 C104.306,42.522 104.252,42.348 104.252,42.204 C104.252,42.036 104.294,41.94 104.378,41.916 C104.462,41.892 104.54,41.856 104.612,41.808 L104.612,41.808 L104.612,41.16 L99.176,41.16 L99.176,41.808 C99.248,41.856 99.314,41.898 99.374,41.934 C99.434,41.97 99.464,42.06 99.464,42.204 C99.464,42.396 99.422,42.594 99.338,42.798 C99.254,43.002 99.14,43.272 98.996,43.608 L98.996,43.608 L93.632,55.308 C93.536,55.5 93.398,55.71 93.218,55.938 C93.038,56.166 92.804,56.304 92.516,56.352 L92.516,56.352 L92.516,57 L97.34,57 Z M104.54,50.376 L99.068,50.376 L101.624,44.328 L104.54,50.376 Z M124.556,57 C125.972,57 127.172,56.772 128.156,56.316 C129.14,55.86 129.944,55.266 130.568,54.534 C131.192,53.802 131.648,52.962 131.936,52.014 C132.224,51.066 132.368,50.088 132.368,49.08 C132.368,48.072 132.218,47.094 131.918,46.146 C131.618,45.198 131.15,44.358 130.514,43.626 C129.878,42.894 129.056,42.3 128.048,41.844 C127.04,41.388 125.828,41.16 124.412,41.16 L124.412,41.16 L114.404,41.16 L114.404,41.808 C114.956,41.808 115.232,41.988 115.232,42.348 L115.232,42.348 L115.232,55.812 C115.232,56.172 114.956,56.352 114.404,56.352 L114.404,56.352 L114.404,57 L124.556,57 Z M123.368,54.336 L118.688,54.336 L118.688,43.824 L123.368,43.824 C124.112,43.824 124.82,43.866 125.492,43.95 C126.164,44.034 126.752,44.25 127.256,44.598 C127.76,44.946 128.162,45.462 128.462,46.146 C128.762,46.83 128.912,47.772 128.912,48.972 C128.912,50.172 128.762,51.126 128.462,51.834 C128.162,52.542 127.76,53.082 127.256,53.454 C126.752,53.826 126.164,54.066 125.492,54.174 C124.82,54.282 124.112,54.336 123.368,54.336 L123.368,54.336 Z M139.352,57 L139.352,56.352 C139.136,56.352 138.968,56.328 138.848,56.28 C138.728,56.232 138.668,56.112 138.668,55.92 C138.668,55.8 138.698,55.662 138.758,55.506 C138.818,55.35 138.896,55.176 138.992,54.984 L138.992,54.984 L140,53.04 L147.704,53.04 L148.676,55.092 C148.748,55.284 148.808,55.44 148.856,55.56 C148.904,55.68 148.928,55.812 148.928,55.956 C148.928,56.148 148.862,56.28 148.73,56.352 C148.598,56.424 148.472,56.46 148.352,56.46 L148.352,56.46 L148.352,57 L153.464,57 L153.464,56.352 C153.296,56.304 153.14,56.232 152.996,56.136 C152.852,56.04 152.72,55.884 152.6,55.668 L152.6,55.668 L146.768,43.428 C146.648,43.164 146.534,42.93 146.426,42.726 C146.318,42.522 146.264,42.348 146.264,42.204 C146.264,42.036 146.306,41.94 146.39,41.916 C146.474,41.892 146.552,41.856 146.624,41.808 L146.624,41.808 L146.624,41.16 L141.188,41.16 L141.188,41.808 C141.26,41.856 141.326,41.898 141.386,41.934 C141.446,41.97 141.476,42.06 141.476,42.204 C141.476,42.396 141.434,42.594 141.35,42.798 C141.266,43.002 141.152,43.272 141.008,43.608 L141.008,43.608 L135.644,55.308 C135.548,55.5 135.41,55.71 135.23,55.938 C135.05,56.166 134.816,56.304 134.528,56.352 L134.528,56.352 L134.528,57 L139.352,57 Z M146.552,50.376 L141.08,50.376 L143.636,44.328 L146.552,50.376 Z M164.156,57.108 C165.236,57.108 166.214,57.012 167.09,56.82 C167.966,56.628 168.734,56.394 169.394,56.118 C170.054,55.842 170.6,55.596 171.032,55.38 C171.464,55.164 171.776,55.056 171.968,55.056 C172.088,55.056 172.292,55.116 172.58,55.236 L172.58,55.236 L172.94,55.056 L170.276,51.24 L169.88,51.6 C169.904,51.696 169.916,51.816 169.916,51.96 L169.916,51.96 L169.916,52.248 C169.916,52.464 169.742,52.704 169.394,52.968 C169.046,53.232 168.596,53.478 168.044,53.706 C167.492,53.934 166.88,54.132 166.208,54.3 C165.536,54.468 164.876,54.552 164.228,54.552 C163.532,54.552 162.848,54.426 162.176,54.174 C161.504,53.922 160.904,53.55 160.376,53.058 C159.848,52.566 159.422,51.978 159.098,51.294 C158.774,50.61 158.612,49.836 158.612,48.972 C158.612,48.108 158.756,47.34 159.044,46.668 C159.332,45.996 159.74,45.432 160.268,44.976 C160.796,44.52 161.414,44.178 162.122,43.95 C162.83,43.722 163.616,43.608 164.48,43.608 C165.2,43.608 165.86,43.674 166.46,43.806 C167.06,43.938 167.582,44.1 168.026,44.292 C168.47,44.484 168.812,44.682 169.052,44.886 C169.292,45.09 169.412,45.252 169.412,45.372 C169.412,45.444 169.418,45.504 169.43,45.552 C169.442,45.6 169.448,45.648 169.448,45.696 L169.448,45.696 L169.844,45.984 L172.22,42.564 L171.788,42.312 C171.692,42.36 171.602,42.42 171.518,42.492 C171.434,42.564 171.332,42.6 171.212,42.6 C171.044,42.6 170.768,42.516 170.384,42.348 C170,42.18 169.52,41.988 168.944,41.772 C168.368,41.556 167.702,41.364 166.946,41.196 C166.19,41.028 165.356,40.944 164.444,40.944 C163.268,40.944 162.122,41.112 161.006,41.448 C159.89,41.784 158.9,42.294 158.036,42.978 C157.172,43.662 156.476,44.508 155.948,45.516 C155.42,46.524 155.156,47.7 155.156,49.044 C155.156,50.388 155.42,51.57 155.948,52.59 C156.476,53.61 157.16,54.462 158,55.146 C158.84,55.83 159.8,56.328 160.88,56.64 C161.96,56.952 163.052,57.108 164.156,57.108 Z M181.724,57 L181.724,56.352 C181.58,56.352 181.454,56.31 181.346,56.226 C181.238,56.142 181.184,56.004 181.184,55.812 L181.184,55.812 L181.184,50.376 L190.832,50.376 L190.832,55.812 C190.832,56.004 190.778,56.142 190.67,56.226 C190.562,56.31 190.436,56.352 190.292,56.352 L190.292,56.352 L190.292,57 L194.828,57 L194.828,56.352 C194.684,56.352 194.558,56.31 194.45,56.226 C194.342,56.142 194.288,56.004 194.288,55.812 L194.288,55.812 L194.288,42.348 C194.288,42.156 194.342,42.018 194.45,41.934 C194.558,41.85 194.684,41.808 194.828,41.808 L194.828,41.808 L194.828,41.16 L190.292,41.16 L190.292,41.808 C190.436,41.808 190.562,41.85 190.67,41.934 C190.778,42.018 190.832,42.156 190.832,42.348 L190.832,42.348 L190.832,47.424 L181.184,47.424 L181.184,42.348 C181.184,42.156 181.238,42.018 181.346,41.934 C181.454,41.85 181.58,41.808 181.724,41.808 L181.724,41.808 L181.724,41.16 L177.188,41.16 L177.188,41.808 C177.332,41.808 177.458,41.85 177.566,41.934 C177.674,42.018 177.728,42.156 177.728,42.348 L177.728,42.348 L177.728,55.812 C177.728,56.004 177.674,56.142 177.566,56.226 C177.458,56.31 177.332,56.352 177.188,56.352 L177.188,56.352 L177.188,57 L181.724,57 Z M215.852,57.396 L215.852,53.616 L215.204,53.616 C215.204,53.832 215.108,54.006 214.916,54.138 C214.724,54.27 214.484,54.336 214.196,54.336 L214.196,54.336 L204.98,54.336 L204.98,50.088 L210.236,50.088 C210.716,50.088 211.088,50.118 211.352,50.178 C211.616,50.238 211.712,50.4 211.64,50.664 L211.64,50.664 L212.36,50.664 L212.36,46.848 L211.712,46.848 C211.712,47.112 211.616,47.274 211.424,47.334 C211.232,47.394 210.932,47.424 210.524,47.424 L210.524,47.424 L204.98,47.424 L204.98,43.824 L213.764,43.824 C214.508,43.824 214.88,44.052 214.88,44.508 L214.88,44.508 L215.528,44.508 L215.528,40.512 L214.88,40.512 C214.88,40.944 214.508,41.16 213.764,41.16 L213.764,41.16 L200.984,41.16 L200.984,41.808 C201.104,41.808 201.224,41.85 201.344,41.934 C201.464,42.018 201.524,42.156 201.524,42.348 L201.524,42.348 L201.524,55.812 C201.524,56.004 201.464,56.142 201.344,56.226 C201.224,56.31 201.104,56.352 200.984,56.352 L200.984,56.352 L200.984,57 L214.196,57 C214.484,57 214.724,57.012 214.916,57.036 C215.108,57.06 215.204,57.18 215.204,57.396 L215.204,57.396 L215.852,57.396 Z" id="Headache" fill="#000000" fill-rule="nonzero"></path>
        <path d="M36.68,294 L36.68,293.676 C36.596,293.676 36.521,293.649 36.455,293.595 C36.389,293.541 36.356,293.46 36.356,293.352 L36.356,293.352 L36.356,289.968 L42.152,289.968 L42.152,293.352 C42.152,293.568 42.02,293.676 41.756,293.676 L41.756,293.676 L41.756,294 L44.528,294 L44.528,293.676 C44.444,293.676 44.369,293.649 44.303,293.595 C44.237,293.541 44.204,293.46 44.204,293.352 L44.204,293.352 L44.204,285.18 C44.204,285.072 44.237,284.991 44.303,284.937 C44.369,284.883 44.444,284.856 44.528,284.856 L44.528,284.856 L44.528,284.532 L41.756,284.532 L41.756,284.856 C42.02,284.856 42.152,284.964 42.152,285.18 L42.152,285.18 L42.152,288.24 L36.356,288.24 L36.356,285.18 C36.356,285.072 36.389,284.991 36.455,284.937 C36.521,284.883 36.596,284.856 36.68,284.856 L36.68,284.856 L36.68,284.532 L33.962,284.532 L33.962,284.856 C34.19,284.856 34.304,284.964 34.304,285.18 L34.304,285.18 L34.304,293.352 C34.304,293.568 34.19,293.676 33.962,293.676 L33.962,293.676 L33.962,294 L36.68,294 Z M51.746,294.054 C52.406,294.054 53.027,293.979 53.609,293.829 C54.191,293.679 54.698,293.436 55.13,293.1 C55.562,292.764 55.904,292.341 56.156,291.831 C56.408,291.321 56.534,290.724 56.534,290.04 C56.534,289.356 56.408,288.759 56.156,288.249 C55.904,287.739 55.562,287.316 55.13,286.98 C54.698,286.644 54.191,286.392 53.609,286.224 C53.027,286.056 52.406,285.972 51.746,285.972 C51.086,285.972 50.465,286.056 49.883,286.224 C49.301,286.392 48.794,286.644 48.362,286.98 C47.93,287.316 47.588,287.739 47.336,288.249 C47.084,288.759 46.958,289.356 46.958,290.04 C46.958,290.724 47.084,291.321 47.336,291.831 C47.588,292.341 47.93,292.764 48.362,293.1 C48.794,293.436 49.301,293.679 49.883,293.829 C50.465,293.979 51.086,294.054 51.746,294.054 Z M51.746,292.776 C51.362,292.776 50.987,292.713 50.621,292.587 C50.255,292.461 49.928,292.281 49.64,292.047 C49.352,291.813 49.121,291.528 48.947,291.192 C48.773,290.856 48.686,290.472 48.686,290.04 C48.686,289.608 48.773,289.224 48.947,288.888 C49.121,288.552 49.352,288.267 49.64,288.033 C49.928,287.799 50.255,287.619 50.621,287.493 C50.987,287.367 51.362,287.304 51.746,287.304 C52.13,287.304 52.505,287.367 52.871,287.493 C53.237,287.619 53.564,287.799 53.852,288.033 C54.14,288.267 54.371,288.552 54.545,288.888 C54.719,289.224 54.806,289.608 54.806,290.04 C54.806,290.472 54.719,290.856 54.545,291.192 C54.371,291.528 54.14,291.813 53.852,292.047 C53.564,292.281 53.237,292.461 52.871,292.587 C52.505,292.713 52.13,292.776 51.746,292.776 Z M62.492,294 L62.492,293.676 C62.384,293.676 62.312,293.658 62.276,293.622 C62.24,293.586 62.222,293.52 62.222,293.424 C62.222,293.388 62.267,293.253 62.357,293.019 C62.447,292.785 62.561,292.497 62.699,292.155 C62.837,291.813 62.987,291.441 63.149,291.039 C63.311,290.637 63.464,290.253 63.608,289.887 C63.752,289.521 63.878,289.197 63.986,288.915 C64.094,288.633 64.16,288.438 64.184,288.33 L64.184,288.33 L64.22,288.33 C64.412,288.93 64.61,289.524 64.814,290.112 C65.018,290.7 65.207,291.231 65.381,291.705 C65.555,292.179 65.696,292.572 65.804,292.884 C65.912,293.196 65.966,293.376 65.966,293.424 C65.966,293.52 65.954,293.583 65.93,293.613 C65.906,293.643 65.846,293.664 65.75,293.676 L65.75,293.676 L65.75,294 L68.27,294 L68.27,293.676 C68.102,293.676 68.018,293.598 68.018,293.442 C68.018,293.382 68.054,293.271 68.126,293.109 C68.198,292.947 68.27,292.764 68.342,292.56 L68.342,292.56 L70.412,287.07 C70.568,286.626 70.748,286.404 70.952,286.404 L70.952,286.404 L70.952,286.08 L68.666,286.08 L68.666,286.404 C68.858,286.404 68.954,286.488 68.954,286.656 C68.954,286.74 68.933,286.845 68.891,286.971 C68.849,287.097 68.798,287.244 68.738,287.412 L68.738,287.412 L67.064,291.786 L65.48,287.448 C65.42,287.304 65.36,287.151 65.3,286.989 C65.24,286.827 65.21,286.704 65.21,286.62 C65.21,286.476 65.318,286.404 65.534,286.404 L65.534,286.404 L65.534,286.08 L62.96,286.08 L62.96,286.404 C63.152,286.404 63.248,286.488 63.248,286.656 C63.248,286.752 63.221,286.875 63.167,287.025 C63.113,287.175 63.056,287.334 62.996,287.502 L62.996,287.502 L61.466,291.786 L61.43,291.786 L59.846,287.412 C59.774,287.22 59.714,287.061 59.666,286.935 C59.618,286.809 59.594,286.716 59.594,286.656 C59.594,286.488 59.672,286.404 59.828,286.404 L59.828,286.404 L59.828,286.08 L57.542,286.08 L57.542,286.404 C57.722,286.44 57.848,286.554 57.92,286.746 L57.92,286.746 L60.296,292.992 C60.32,293.052 60.353,293.139 60.395,293.253 C60.437,293.367 60.458,293.46 60.458,293.532 C60.458,293.604 60.44,293.646 60.404,293.658 C60.368,293.67 60.326,293.676 60.278,293.676 L60.278,293.676 L60.278,294 L62.492,294 Z M83.03,294 C83.738,294 84.338,293.886 84.83,293.658 C85.322,293.43 85.724,293.133 86.036,292.767 C86.348,292.401 86.576,291.981 86.72,291.507 C86.864,291.033 86.936,290.544 86.936,290.04 C86.936,289.536 86.861,289.047 86.711,288.573 C86.561,288.099 86.327,287.679 86.009,287.313 C85.691,286.947 85.28,286.65 84.776,286.422 C84.272,286.194 83.666,286.08 82.958,286.08 L82.958,286.08 L77.954,286.08 L77.954,286.404 C78.23,286.404 78.368,286.494 78.368,286.674 L78.368,286.674 L78.368,293.406 C78.368,293.586 78.23,293.676 77.954,293.676 L77.954,293.676 L77.954,294 L83.03,294 Z M82.436,292.668 L80.096,292.668 L80.096,287.412 L82.436,287.412 C82.808,287.412 83.162,287.433 83.498,287.475 C83.834,287.517 84.128,287.625 84.38,287.799 C84.632,287.973 84.833,288.231 84.983,288.573 C85.133,288.915 85.208,289.386 85.208,289.986 C85.208,290.586 85.133,291.063 84.983,291.417 C84.833,291.771 84.632,292.041 84.38,292.227 C84.128,292.413 83.834,292.533 83.498,292.587 C83.162,292.641 82.808,292.668 82.436,292.668 L82.436,292.668 Z M93.236,294.054 C93.896,294.054 94.517,293.979 95.099,293.829 C95.681,293.679 96.188,293.436 96.62,293.1 C97.052,292.764 97.394,292.341 97.646,291.831 C97.898,291.321 98.024,290.724 98.024,290.04 C98.024,289.356 97.898,288.759 97.646,288.249 C97.394,287.739 97.052,287.316 96.62,286.98 C96.188,286.644 95.681,286.392 95.099,286.224 C94.517,286.056 93.896,285.972 93.236,285.972 C92.576,285.972 91.955,286.056 91.373,286.224 C90.791,286.392 90.284,286.644 89.852,286.98 C89.42,287.316 89.078,287.739 88.826,288.249 C88.574,288.759 88.448,289.356 88.448,290.04 C88.448,290.724 88.574,291.321 88.826,291.831 C89.078,292.341 89.42,292.764 89.852,293.1 C90.284,293.436 90.791,293.679 91.373,293.829 C91.955,293.979 92.576,294.054 93.236,294.054 Z M93.236,292.776 C92.852,292.776 92.477,292.713 92.111,292.587 C91.745,292.461 91.418,292.281 91.13,292.047 C90.842,291.813 90.611,291.528 90.437,291.192 C90.263,290.856 90.176,290.472 90.176,290.04 C90.176,289.608 90.263,289.224 90.437,288.888 C90.611,288.552 90.842,288.267 91.13,288.033 C91.418,287.799 91.745,287.619 92.111,287.493 C92.477,287.367 92.852,287.304 93.236,287.304 C93.62,287.304 93.995,287.367 94.361,287.493 C94.727,287.619 95.054,287.799 95.342,288.033 C95.63,288.267 95.861,288.552 96.035,288.888 C96.209,289.224 96.296,289.608 96.296,290.04 C96.296,290.472 96.209,290.856 96.035,291.192 C95.861,291.528 95.63,291.813 95.342,292.047 C95.054,292.281 94.727,292.461 94.361,292.587 C93.995,292.713 93.62,292.776 93.236,292.776 Z M107.654,294.198 L107.654,292.308 L107.33,292.308 C107.33,292.416 107.282,292.503 107.186,292.569 C107.09,292.635 106.97,292.668 106.826,292.668 L106.826,292.668 L102.218,292.668 L102.218,290.544 L104.846,290.544 C105.086,290.544 105.272,290.559 105.404,290.589 C105.536,290.619 105.584,290.7 105.548,290.832 L105.548,290.832 L105.908,290.832 L105.908,288.924 L105.584,288.924 C105.584,289.056 105.536,289.137 105.44,289.167 C105.344,289.197 105.194,289.212 104.99,289.212 L104.99,289.212 L102.218,289.212 L102.218,287.412 L106.61,287.412 C106.982,287.412 107.168,287.526 107.168,287.754 L107.168,287.754 L107.492,287.754 L107.492,285.756 L107.168,285.756 C107.168,285.972 106.982,286.08 106.61,286.08 L106.61,286.08 L100.22,286.08 L100.22,286.404 C100.28,286.404 100.34,286.425 100.4,286.467 C100.46,286.509 100.49,286.578 100.49,286.674 L100.49,286.674 L100.49,293.406 C100.49,293.502 100.46,293.571 100.4,293.613 C100.34,293.655 100.28,293.676 100.22,293.676 L100.22,293.676 L100.22,294 L106.826,294 C106.97,294 107.09,294.006 107.186,294.018 C107.282,294.03 107.33,294.09 107.33,294.198 L107.33,294.198 L107.654,294.198 Z M113.612,294.054 C114.02,294.054 114.455,294.024 114.917,293.964 C115.379,293.904 115.802,293.778 116.186,293.586 C116.57,293.394 116.891,293.13 117.149,292.794 C117.407,292.458 117.536,292.026 117.536,291.498 C117.536,290.97 117.389,290.556 117.095,290.256 C116.801,289.956 116.432,289.728 115.988,289.572 C115.544,289.416 115.064,289.305 114.548,289.239 C114.032,289.173 113.552,289.107 113.108,289.041 C112.664,288.975 112.295,288.885 112.001,288.771 C111.707,288.657 111.56,288.468 111.56,288.204 C111.56,288.036 111.608,287.895 111.704,287.781 C111.8,287.667 111.932,287.574 112.1,287.502 C112.268,287.43 112.46,287.379 112.676,287.349 C112.892,287.319 113.12,287.304 113.36,287.304 C113.984,287.304 114.548,287.376 115.052,287.52 C115.556,287.664 115.928,287.838 116.168,288.042 C116.264,288.114 116.318,288.186 116.33,288.258 C116.342,288.33 116.354,288.402 116.366,288.474 L116.366,288.474 L116.69,288.582 L117.59,286.89 L117.392,286.692 C117.32,286.728 117.26,286.761 117.212,286.791 C117.164,286.821 117.092,286.836 116.996,286.836 C116.912,286.836 116.783,286.791 116.609,286.701 C116.435,286.611 116.21,286.512 115.934,286.404 C115.658,286.296 115.319,286.197 114.917,286.107 C114.515,286.017 114.032,285.972 113.468,285.972 C112.316,285.972 111.422,286.2 110.786,286.656 C110.15,287.112 109.832,287.724 109.832,288.492 C109.832,289.008 109.979,289.407 110.273,289.689 C110.567,289.971 110.936,290.187 111.38,290.337 C111.824,290.487 112.304,290.595 112.82,290.661 C113.336,290.727 113.816,290.793 114.26,290.859 C114.704,290.925 115.073,291.018 115.367,291.138 C115.661,291.258 115.808,291.45 115.808,291.714 C115.808,291.942 115.724,292.125 115.556,292.263 C115.388,292.401 115.184,292.509 114.944,292.587 C114.704,292.665 114.461,292.716 114.215,292.74 C113.969,292.764 113.762,292.776 113.594,292.776 C113.414,292.776 113.165,292.746 112.847,292.686 C112.529,292.626 112.211,292.545 111.893,292.443 C111.575,292.341 111.302,292.215 111.074,292.065 C110.846,291.915 110.732,291.75 110.732,291.57 C110.732,291.51 110.735,291.453 110.741,291.399 C110.747,291.345 110.75,291.294 110.75,291.246 L110.75,291.246 L110.408,291.156 L109.58,293.172 L109.832,293.352 C109.892,293.28 109.964,293.244 110.048,293.244 C110.096,293.244 110.234,293.289 110.462,293.379 C110.69,293.469 110.969,293.565 111.299,293.667 C111.629,293.769 111.995,293.859 112.397,293.937 C112.799,294.015 113.204,294.054 113.612,294.054 Z M133.502,294.18 L133.502,292.29 L133.178,292.29 C133.178,292.41 133.13,292.503 133.034,292.569 C132.938,292.635 132.818,292.668 132.674,292.668 L132.674,292.668 L127.814,292.668 L127.814,286.674 C127.814,286.494 127.952,286.404 128.228,286.404 L128.228,286.404 L128.228,286.08 L125.618,286.08 L125.618,286.404 C125.93,286.404 126.086,286.494 126.086,286.674 L126.086,286.674 L126.086,293.406 C126.086,293.586 125.93,293.676 125.618,293.676 L125.618,293.676 L125.618,294 L132.674,294 C132.818,294 132.938,294.006 133.034,294.018 C133.13,294.03 133.178,294.084 133.178,294.18 L133.178,294.18 L133.502,294.18 Z M138.614,294 L138.614,293.676 C138.278,293.676 138.11,293.586 138.11,293.406 L138.11,293.406 L138.11,286.674 C138.11,286.494 138.278,286.404 138.614,286.404 L138.614,286.404 L138.614,286.08 L135.878,286.08 L135.878,286.404 C136.07,286.404 136.202,286.425 136.274,286.467 C136.346,286.509 136.382,286.578 136.382,286.674 L136.382,286.674 L136.382,293.406 C136.382,293.502 136.346,293.571 136.274,293.613 C136.202,293.655 136.07,293.676 135.878,293.676 L135.878,293.676 L135.878,294 L138.614,294 Z M145.94,294.054 C146.516,294.054 147.038,294.015 147.506,293.937 C147.974,293.859 148.385,293.76 148.739,293.64 C149.093,293.52 149.387,293.397 149.621,293.271 C149.855,293.145 150.026,293.046 150.134,292.974 L150.134,292.974 L150.134,292.758 C150.014,292.71 149.939,292.665 149.909,292.623 C149.879,292.581 149.864,292.506 149.864,292.398 L149.864,292.398 L149.864,290.688 C149.864,290.568 149.882,290.478 149.918,290.418 C149.954,290.358 150.026,290.304 150.134,290.256 L150.134,290.256 L150.134,289.932 L146.606,289.932 C146.474,289.932 146.36,289.914 146.264,289.878 C146.168,289.842 146.108,289.764 146.084,289.644 L146.084,289.644 L145.76,289.644 L145.76,291.498 L146.084,291.498 C146.108,291.354 146.168,291.255 146.264,291.201 C146.36,291.147 146.474,291.12 146.606,291.12 L146.606,291.12 L148.46,291.12 L148.46,292.254 C148.076,292.458 147.653,292.596 147.191,292.668 C146.729,292.74 146.24,292.776 145.724,292.776 C145.376,292.776 145.016,292.728 144.644,292.632 C144.272,292.536 143.933,292.383 143.627,292.173 C143.321,291.963 143.072,291.687 142.88,291.345 C142.688,291.003 142.592,290.58 142.592,290.076 C142.592,289.572 142.682,289.146 142.862,288.798 C143.042,288.45 143.282,288.165 143.582,287.943 C143.882,287.721 144.23,287.559 144.626,287.457 C145.022,287.355 145.442,287.304 145.886,287.304 C146.21,287.304 146.531,287.337 146.849,287.403 C147.167,287.469 147.452,287.556 147.704,287.664 C147.956,287.772 148.16,287.889 148.316,288.015 C148.472,288.141 148.55,288.258 148.55,288.366 C148.55,288.378 148.538,288.444 148.514,288.564 L148.514,288.564 L148.73,288.69 L149.774,286.728 L149.558,286.62 C149.486,286.68 149.426,286.719 149.378,286.737 C149.33,286.755 149.258,286.764 149.162,286.764 C149.078,286.764 148.952,286.722 148.784,286.638 C148.616,286.554 148.394,286.464 148.118,286.368 C147.854,286.272 147.542,286.182 147.182,286.098 C146.822,286.014 146.408,285.972 145.94,285.972 C145.16,285.972 144.455,286.065 143.825,286.251 C143.195,286.437 142.661,286.707 142.223,287.061 C141.785,287.415 141.449,287.841 141.215,288.339 C140.981,288.837 140.864,289.404 140.864,290.04 C140.864,290.676 140.981,291.243 141.215,291.741 C141.449,292.239 141.785,292.662 142.223,293.01 C142.661,293.358 143.195,293.619 143.825,293.793 C144.455,293.967 145.16,294.054 145.94,294.054 Z M155.102,294 L155.102,293.676 C155.03,293.676 154.967,293.655 154.913,293.613 C154.859,293.571 154.832,293.502 154.832,293.406 L154.832,293.406 L154.832,290.688 L159.656,290.688 L159.656,293.406 C159.656,293.502 159.629,293.571 159.575,293.613 C159.521,293.655 159.458,293.676 159.386,293.676 L159.386,293.676 L159.386,294 L161.654,294 L161.654,293.676 C161.582,293.676 161.519,293.655 161.465,293.613 C161.411,293.571 161.384,293.502 161.384,293.406 L161.384,293.406 L161.384,286.674 C161.384,286.578 161.411,286.509 161.465,286.467 C161.519,286.425 161.582,286.404 161.654,286.404 L161.654,286.404 L161.654,286.08 L159.386,286.08 L159.386,286.404 C159.458,286.404 159.521,286.425 159.575,286.467 C159.629,286.509 159.656,286.578 159.656,286.674 L159.656,286.674 L159.656,289.212 L154.832,289.212 L154.832,286.674 C154.832,286.578 154.859,286.509 154.913,286.467 C154.967,286.425 155.03,286.404 155.102,286.404 L155.102,286.404 L155.102,286.08 L152.834,286.08 L152.834,286.404 C152.906,286.404 152.969,286.425 153.023,286.467 C153.077,286.509 153.104,286.578 153.104,286.674 L153.104,286.674 L153.104,293.406 C153.104,293.502 153.077,293.571 153.023,293.613 C152.969,293.655 152.906,293.676 152.834,293.676 L152.834,293.676 L152.834,294 L155.102,294 Z M168.944,294 L168.944,293.676 C168.728,293.676 168.62,293.586 168.62,293.406 L168.62,293.406 L168.62,287.412 L170.96,287.412 C171.056,287.412 171.146,287.436 171.23,287.484 C171.314,287.532 171.356,287.61 171.356,287.718 L171.356,287.718 L171.68,287.718 L171.68,285.648 L171.356,285.648 C171.356,285.816 171.314,285.93 171.23,285.99 C171.146,286.05 171.056,286.08 170.96,286.08 L170.96,286.08 L164.552,286.08 C164.456,286.08 164.366,286.05 164.282,285.99 C164.198,285.93 164.156,285.816 164.156,285.648 L164.156,285.648 L163.832,285.648 L163.832,287.718 L164.156,287.718 C164.156,287.61 164.198,287.532 164.282,287.484 C164.366,287.436 164.456,287.412 164.552,287.412 L164.552,287.412 L166.892,287.412 L166.892,293.406 C166.892,293.502 166.862,293.571 166.802,293.613 C166.742,293.655 166.682,293.676 166.622,293.676 L166.622,293.676 L166.622,294 L168.944,294 Z M181.598,294 L181.598,293.676 C181.526,293.676 181.463,293.655 181.409,293.613 C181.355,293.571 181.328,293.502 181.328,293.406 L181.328,293.406 L181.328,290.688 L186.152,290.688 L186.152,293.406 C186.152,293.502 186.125,293.571 186.071,293.613 C186.017,293.655 185.954,293.676 185.882,293.676 L185.882,293.676 L185.882,294 L188.15,294 L188.15,293.676 C188.078,293.676 188.015,293.655 187.961,293.613 C187.907,293.571 187.88,293.502 187.88,293.406 L187.88,293.406 L187.88,286.674 C187.88,286.578 187.907,286.509 187.961,286.467 C188.015,286.425 188.078,286.404 188.15,286.404 L188.15,286.404 L188.15,286.08 L185.882,286.08 L185.882,286.404 C185.954,286.404 186.017,286.425 186.071,286.467 C186.125,286.509 186.152,286.578 186.152,286.674 L186.152,286.674 L186.152,289.212 L181.328,289.212 L181.328,286.674 C181.328,286.578 181.355,286.509 181.409,286.467 C181.463,286.425 181.526,286.404 181.598,286.404 L181.598,286.404 L181.598,286.08 L179.33,286.08 L179.33,286.404 C179.402,286.404 179.465,286.425 179.519,286.467 C179.573,286.509 179.6,286.578 179.6,286.674 L179.6,286.674 L179.6,293.406 C179.6,293.502 179.573,293.571 179.519,293.613 C179.465,293.655 179.402,293.676 179.33,293.676 L179.33,293.676 L179.33,294 L181.598,294 Z M195.818,294.054 C196.538,294.054 197.165,293.979 197.699,293.829 C198.233,293.679 198.671,293.472 199.013,293.208 C199.355,292.944 199.61,292.641 199.778,292.299 C199.946,291.957 200.03,291.6 200.03,291.228 L200.03,291.228 L200.03,286.674 C200.03,286.494 200.162,286.404 200.426,286.404 L200.426,286.404 L200.426,286.08 L197.924,286.08 L197.924,286.404 C198.224,286.404 198.374,286.494 198.374,286.674 L198.374,286.674 L198.374,290.796 C198.374,291.372 198.164,291.834 197.744,292.182 C197.324,292.53 196.682,292.704 195.818,292.704 C194.954,292.704 194.312,292.53 193.892,292.182 C193.472,291.834 193.262,291.372 193.262,290.796 L193.262,290.796 L193.262,286.674 C193.262,286.494 193.394,286.404 193.658,286.404 L193.658,286.404 L193.658,286.08 L191.084,286.08 L191.084,286.404 C191.288,286.404 191.426,286.425 191.498,286.467 C191.57,286.509 191.606,286.578 191.606,286.674 L191.606,286.674 L191.606,291.228 C191.606,291.6 191.69,291.957 191.858,292.299 C192.026,292.641 192.281,292.944 192.623,293.208 C192.965,293.472 193.403,293.679 193.937,293.829 C194.471,293.979 195.098,294.054 195.818,294.054 Z M205.556,294 L205.556,293.676 C205.484,293.676 205.409,293.655 205.331,293.613 C205.253,293.571 205.214,293.502 205.214,293.406 L205.214,293.406 L205.214,290.832 L207.716,290.832 L209.138,292.956 C209.318,293.208 209.408,293.394 209.408,293.514 C209.408,293.622 209.33,293.676 209.174,293.676 L209.174,293.676 L209.174,294 L211.928,294 L211.928,293.676 C211.796,293.64 211.673,293.589 211.559,293.523 C211.445,293.457 211.34,293.358 211.244,293.226 L211.244,293.226 L209.48,290.652 C209.732,290.592 209.978,290.505 210.218,290.391 C210.458,290.277 210.677,290.127 210.875,289.941 C211.073,289.755 211.232,289.536 211.352,289.284 C211.472,289.032 211.532,288.744 211.532,288.42 C211.532,287.568 211.232,286.965 210.632,286.611 C210.032,286.257 209.198,286.08 208.13,286.08 L208.13,286.08 L203.162,286.08 L203.162,286.404 C203.378,286.404 203.486,286.494 203.486,286.674 L203.486,286.674 L203.486,293.406 C203.486,293.586 203.378,293.676 203.162,293.676 L203.162,293.676 L203.162,294 L205.556,294 Z M208.094,289.5 L205.25,289.5 L205.25,287.412 L208.094,287.412 C208.706,287.412 209.153,287.499 209.435,287.673 C209.717,287.847 209.858,288.084 209.858,288.384 C209.858,289.128 209.27,289.5 208.094,289.5 L208.094,289.5 Z M218.444,294 L218.444,293.676 C218.228,293.676 218.12,293.586 218.12,293.406 L218.12,293.406 L218.12,287.412 L220.46,287.412 C220.556,287.412 220.646,287.436 220.73,287.484 C220.814,287.532 220.856,287.61 220.856,287.718 L220.856,287.718 L221.18,287.718 L221.18,285.648 L220.856,285.648 C220.856,285.816 220.814,285.93 220.73,285.99 C220.646,286.05 220.556,286.08 220.46,286.08 L220.46,286.08 L214.052,286.08 C213.956,286.08 213.866,286.05 213.782,285.99 C213.698,285.93 213.656,285.816 213.656,285.648 L213.656,285.648 L213.332,285.648 L213.332,287.718 L213.656,287.718 C213.656,287.61 213.698,287.532 213.782,287.484 C213.866,287.436 213.956,287.412 214.052,287.412 L214.052,287.412 L216.392,287.412 L216.392,293.406 C216.392,293.502 216.362,293.571 216.302,293.613 C216.242,293.655 216.182,293.676 216.122,293.676 L216.122,293.676 L216.122,294 L218.444,294 Z M226.94,290.724 L226.94,290.508 C226.832,290.508 226.754,290.463 226.706,290.373 C226.658,290.283 226.634,290.172 226.634,290.04 C226.634,289.764 226.742,289.506 226.958,289.266 C227.174,289.026 227.408,288.768 227.66,288.492 C227.924,288.216 228.161,287.913 228.371,287.583 C228.581,287.253 228.686,286.866 228.686,286.422 C228.686,286.062 228.611,285.741 228.461,285.459 C228.311,285.177 228.11,284.943 227.858,284.757 C227.606,284.571 227.321,284.427 227.003,284.325 C226.685,284.223 226.364,284.172 226.04,284.172 C225.536,284.172 225.128,284.232 224.816,284.352 C224.504,284.472 224.246,284.601 224.042,284.739 C223.838,284.877 223.673,285.006 223.547,285.126 C223.421,285.246 223.298,285.306 223.178,285.306 C223.166,285.306 223.1,285.294 222.98,285.27 L222.98,285.27 L222.818,285.432 L224.204,286.944 L224.366,286.818 C224.33,286.71 224.312,286.602 224.312,286.494 C224.312,286.422 224.345,286.329 224.411,286.215 C224.477,286.101 224.573,285.996 224.699,285.9 C224.825,285.804 224.981,285.72 225.167,285.648 C225.353,285.576 225.56,285.54 225.788,285.54 C226.1,285.54 226.361,285.633 226.571,285.819 C226.781,286.005 226.886,286.26 226.886,286.584 C226.886,286.86 226.808,287.103 226.652,287.313 C226.496,287.523 226.316,287.748 226.112,287.988 C225.92,288.216 225.737,288.48 225.563,288.78 C225.389,289.08 225.278,289.482 225.23,289.986 C225.206,290.19 225.167,290.328 225.113,290.4 C225.059,290.472 224.996,290.508 224.924,290.508 L224.924,290.508 L224.924,290.724 L226.94,290.724 Z M225.914,294.054 C226.226,294.054 226.496,293.949 226.724,293.739 C226.952,293.529 227.066,293.268 227.066,292.956 C227.066,292.644 226.952,292.374 226.724,292.146 C226.496,291.918 226.226,291.804 225.914,291.804 C225.602,291.804 225.332,291.918 225.104,292.146 C224.876,292.374 224.762,292.644 224.762,292.956 C224.762,293.268 224.876,293.529 225.104,293.739 C225.332,293.949 225.602,294.054 225.914,294.054 Z M58.19,312 L58.19,311.676 C57.962,311.676 57.848,311.61 57.848,311.478 C57.848,311.37 57.908,311.19 58.028,310.938 L58.028,310.938 L58.676,309.66 L63.068,309.66 L63.752,310.992 C63.848,311.184 63.896,311.34 63.896,311.46 C63.896,311.532 63.86,311.586 63.788,311.622 C63.716,311.658 63.656,311.676 63.608,311.676 L63.608,311.676 L63.608,312 L66.776,312 L66.776,311.676 C66.644,311.616 66.527,311.556 66.425,311.496 C66.323,311.436 66.242,311.34 66.182,311.208 L66.182,311.208 L62.438,303.882 C62.354,303.726 62.291,303.6 62.249,303.504 C62.207,303.408 62.186,303.312 62.186,303.216 C62.186,303.084 62.228,302.997 62.312,302.955 C62.396,302.913 62.48,302.88 62.564,302.856 L62.564,302.856 L62.564,302.532 L59.522,302.532 L59.522,302.856 C59.618,302.88 59.708,302.916 59.792,302.964 C59.876,303.012 59.918,303.096 59.918,303.216 C59.918,303.312 59.885,303.426 59.819,303.558 C59.753,303.69 59.678,303.834 59.594,303.99 L59.594,303.99 L56.264,310.992 C56.18,311.16 56.093,311.31 56.003,311.442 C55.913,311.574 55.79,311.652 55.634,311.676 L55.634,311.676 L55.634,312 L58.19,312 Z M62.42,308.328 L59.216,308.328 L60.908,304.98 L62.42,308.328 Z M73.544,312 C74.252,312 74.852,311.886 75.344,311.658 C75.836,311.43 76.238,311.133 76.55,310.767 C76.862,310.401 77.09,309.981 77.234,309.507 C77.378,309.033 77.45,308.544 77.45,308.04 C77.45,307.536 77.375,307.047 77.225,306.573 C77.075,306.099 76.841,305.679 76.523,305.313 C76.205,304.947 75.794,304.65 75.29,304.422 C74.786,304.194 74.18,304.08 73.472,304.08 L73.472,304.08 L68.468,304.08 L68.468,304.404 C68.744,304.404 68.882,304.494 68.882,304.674 L68.882,304.674 L68.882,311.406 C68.882,311.586 68.744,311.676 68.468,311.676 L68.468,311.676 L68.468,312 L73.544,312 Z M72.95,310.668 L70.61,310.668 L70.61,305.412 L72.95,305.412 C73.322,305.412 73.676,305.433 74.012,305.475 C74.348,305.517 74.642,305.625 74.894,305.799 C75.146,305.973 75.347,306.231 75.497,306.573 C75.647,306.915 75.722,307.386 75.722,307.986 C75.722,308.586 75.647,309.063 75.497,309.417 C75.347,309.771 75.146,310.041 74.894,310.227 C74.642,310.413 74.348,310.533 74.012,310.587 C73.676,310.641 73.322,310.668 72.95,310.668 L72.95,310.668 Z M84.542,312 C85.25,312 85.85,311.886 86.342,311.658 C86.834,311.43 87.236,311.133 87.548,310.767 C87.86,310.401 88.088,309.981 88.232,309.507 C88.376,309.033 88.448,308.544 88.448,308.04 C88.448,307.536 88.373,307.047 88.223,306.573 C88.073,306.099 87.839,305.679 87.521,305.313 C87.203,304.947 86.792,304.65 86.288,304.422 C85.784,304.194 85.178,304.08 84.47,304.08 L84.47,304.08 L79.466,304.08 L79.466,304.404 C79.742,304.404 79.88,304.494 79.88,304.674 L79.88,304.674 L79.88,311.406 C79.88,311.586 79.742,311.676 79.466,311.676 L79.466,311.676 L79.466,312 L84.542,312 Z M83.948,310.668 L81.608,310.668 L81.608,305.412 L83.948,305.412 C84.32,305.412 84.674,305.433 85.01,305.475 C85.346,305.517 85.64,305.625 85.892,305.799 C86.144,305.973 86.345,306.231 86.495,306.573 C86.645,306.915 86.72,307.386 86.72,307.986 C86.72,308.586 86.645,309.063 86.495,309.417 C86.345,309.771 86.144,310.041 85.892,310.227 C85.64,310.413 85.346,310.533 85.01,310.587 C84.674,310.641 84.32,310.668 83.948,310.668 L83.948,310.668 Z M100.436,312 L100.436,311.676 C100.22,311.676 100.112,311.586 100.112,311.406 L100.112,311.406 L100.112,305.412 L102.452,305.412 C102.548,305.412 102.638,305.436 102.722,305.484 C102.806,305.532 102.848,305.61 102.848,305.718 L102.848,305.718 L103.172,305.718 L103.172,303.648 L102.848,303.648 C102.848,303.816 102.806,303.93 102.722,303.99 C102.638,304.05 102.548,304.08 102.452,304.08 L102.452,304.08 L96.044,304.08 C95.948,304.08 95.858,304.05 95.774,303.99 C95.69,303.93 95.648,303.816 95.648,303.648 L95.648,303.648 L95.324,303.648 L95.324,305.718 L95.648,305.718 C95.648,305.61 95.69,305.532 95.774,305.484 C95.858,305.436 95.948,305.412 96.044,305.412 L96.044,305.412 L98.384,305.412 L98.384,311.406 C98.384,311.502 98.354,311.571 98.294,311.613 C98.234,311.655 98.174,311.676 98.114,311.676 L98.114,311.676 L98.114,312 L100.436,312 Z M107.6,312 L107.6,311.676 C107.528,311.676 107.465,311.655 107.411,311.613 C107.357,311.571 107.33,311.502 107.33,311.406 L107.33,311.406 L107.33,308.688 L112.154,308.688 L112.154,311.406 C112.154,311.502 112.127,311.571 112.073,311.613 C112.019,311.655 111.956,311.676 111.884,311.676 L111.884,311.676 L111.884,312 L114.152,312 L114.152,311.676 C114.08,311.676 114.017,311.655 113.963,311.613 C113.909,311.571 113.882,311.502 113.882,311.406 L113.882,311.406 L113.882,304.674 C113.882,304.578 113.909,304.509 113.963,304.467 C114.017,304.425 114.08,304.404 114.152,304.404 L114.152,304.404 L114.152,304.08 L111.884,304.08 L111.884,304.404 C111.956,304.404 112.019,304.425 112.073,304.467 C112.127,304.509 112.154,304.578 112.154,304.674 L112.154,304.674 L112.154,307.212 L107.33,307.212 L107.33,304.674 C107.33,304.578 107.357,304.509 107.411,304.467 C107.465,304.425 107.528,304.404 107.6,304.404 L107.6,304.404 L107.6,304.08 L105.332,304.08 L105.332,304.404 C105.404,304.404 105.467,304.425 105.521,304.467 C105.575,304.509 105.602,304.578 105.602,304.674 L105.602,304.674 L105.602,311.406 C105.602,311.502 105.575,311.571 105.521,311.613 C105.467,311.655 105.404,311.676 105.332,311.676 L105.332,311.676 L105.332,312 L107.6,312 Z M120.11,312 L120.11,311.676 C119.774,311.676 119.606,311.586 119.606,311.406 L119.606,311.406 L119.606,304.674 C119.606,304.494 119.774,304.404 120.11,304.404 L120.11,304.404 L120.11,304.08 L117.374,304.08 L117.374,304.404 C117.566,304.404 117.698,304.425 117.77,304.467 C117.842,304.509 117.878,304.578 117.878,304.674 L117.878,304.674 L117.878,311.406 C117.878,311.502 117.842,311.571 117.77,311.613 C117.698,311.655 117.566,311.676 117.374,311.676 L117.374,311.676 L117.374,312 L120.11,312 Z M126.608,312.054 C127.016,312.054 127.451,312.024 127.913,311.964 C128.375,311.904 128.798,311.778 129.182,311.586 C129.566,311.394 129.887,311.13 130.145,310.794 C130.403,310.458 130.532,310.026 130.532,309.498 C130.532,308.97 130.385,308.556 130.091,308.256 C129.797,307.956 129.428,307.728 128.984,307.572 C128.54,307.416 128.06,307.305 127.544,307.239 C127.028,307.173 126.548,307.107 126.104,307.041 C125.66,306.975 125.291,306.885 124.997,306.771 C124.703,306.657 124.556,306.468 124.556,306.204 C124.556,306.036 124.604,305.895 124.7,305.781 C124.796,305.667 124.928,305.574 125.096,305.502 C125.264,305.43 125.456,305.379 125.672,305.349 C125.888,305.319 126.116,305.304 126.356,305.304 C126.98,305.304 127.544,305.376 128.048,305.52 C128.552,305.664 128.924,305.838 129.164,306.042 C129.26,306.114 129.314,306.186 129.326,306.258 L129.326,306.258 L129.362,306.474 L129.686,306.582 L130.586,304.89 L130.388,304.692 C130.316,304.728 130.256,304.761 130.208,304.791 C130.16,304.821 130.088,304.836 129.992,304.836 C129.908,304.836 129.779,304.791 129.605,304.701 C129.431,304.611 129.206,304.512 128.93,304.404 C128.654,304.296 128.315,304.197 127.913,304.107 C127.511,304.017 127.028,303.972 126.464,303.972 C125.312,303.972 124.418,304.2 123.782,304.656 C123.146,305.112 122.828,305.724 122.828,306.492 C122.828,307.008 122.975,307.407 123.269,307.689 C123.563,307.971 123.932,308.187 124.376,308.337 C124.82,308.487 125.3,308.595 125.816,308.661 C126.332,308.727 126.812,308.793 127.256,308.859 C127.7,308.925 128.069,309.018 128.363,309.138 C128.657,309.258 128.804,309.45 128.804,309.714 C128.804,309.942 128.72,310.125 128.552,310.263 C128.384,310.401 128.18,310.509 127.94,310.587 C127.7,310.665 127.457,310.716 127.211,310.74 C126.965,310.764 126.758,310.776 126.59,310.776 C126.41,310.776 126.161,310.746 125.843,310.686 C125.525,310.626 125.207,310.545 124.889,310.443 C124.571,310.341 124.298,310.215 124.07,310.065 C123.842,309.915 123.728,309.75 123.728,309.57 C123.728,309.51 123.731,309.453 123.737,309.399 C123.743,309.345 123.746,309.294 123.746,309.246 L123.746,309.246 L123.404,309.156 L122.576,311.172 L122.828,311.352 C122.888,311.28 122.96,311.244 123.044,311.244 C123.092,311.244 123.23,311.289 123.458,311.379 C123.686,311.469 123.965,311.565 124.295,311.667 C124.625,311.769 124.991,311.859 125.393,311.937 C125.795,312.015 126.2,312.054 126.608,312.054 Z M142.934,312 L142.934,311.676 C142.718,311.676 142.61,311.586 142.61,311.406 L142.61,311.406 L142.61,305.412 L144.95,305.412 C145.046,305.412 145.136,305.436 145.22,305.484 C145.304,305.532 145.346,305.61 145.346,305.718 L145.346,305.718 L145.67,305.718 L145.67,303.648 L145.346,303.648 C145.346,303.816 145.304,303.93 145.22,303.99 C145.136,304.05 145.046,304.08 144.95,304.08 L144.95,304.08 L138.542,304.08 C138.446,304.08 138.356,304.05 138.272,303.99 C138.188,303.93 138.146,303.816 138.146,303.648 L138.146,303.648 L137.822,303.648 L137.822,305.718 L138.146,305.718 C138.146,305.61 138.188,305.532 138.272,305.484 C138.356,305.436 138.446,305.412 138.542,305.412 L138.542,305.412 L140.882,305.412 L140.882,311.406 C140.882,311.502 140.852,311.571 140.792,311.613 C140.732,311.655 140.672,311.676 140.612,311.676 L140.612,311.676 L140.612,312 L142.934,312 Z M151.736,312.054 C152.396,312.054 153.017,311.979 153.599,311.829 C154.181,311.679 154.688,311.436 155.12,311.1 C155.552,310.764 155.894,310.341 156.146,309.831 C156.398,309.321 156.524,308.724 156.524,308.04 C156.524,307.356 156.398,306.759 156.146,306.249 C155.894,305.739 155.552,305.316 155.12,304.98 C154.688,304.644 154.181,304.392 153.599,304.224 C153.017,304.056 152.396,303.972 151.736,303.972 C151.076,303.972 150.455,304.056 149.873,304.224 C149.291,304.392 148.784,304.644 148.352,304.98 C147.92,305.316 147.578,305.739 147.326,306.249 C147.074,306.759 146.948,307.356 146.948,308.04 C146.948,308.724 147.074,309.321 147.326,309.831 C147.578,310.341 147.92,310.764 148.352,311.1 C148.784,311.436 149.291,311.679 149.873,311.829 C150.455,311.979 151.076,312.054 151.736,312.054 Z M151.736,310.776 C151.352,310.776 150.977,310.713 150.611,310.587 C150.245,310.461 149.918,310.281 149.63,310.047 C149.342,309.813 149.111,309.528 148.937,309.192 C148.763,308.856 148.676,308.472 148.676,308.04 C148.676,307.608 148.763,307.224 148.937,306.888 C149.111,306.552 149.342,306.267 149.63,306.033 C149.918,305.799 150.245,305.619 150.611,305.493 C150.977,305.367 151.352,305.304 151.736,305.304 C152.12,305.304 152.495,305.367 152.861,305.493 C153.227,305.619 153.554,305.799 153.842,306.033 C154.13,306.267 154.361,306.552 154.535,306.888 C154.709,307.224 154.796,307.608 154.796,308.04 C154.796,308.472 154.709,308.856 154.535,309.192 C154.361,309.528 154.13,309.813 153.842,310.047 C153.554,310.281 153.227,310.461 152.861,310.587 C152.495,310.713 152.12,310.776 151.736,310.776 Z M168.944,312 L168.944,311.676 C168.716,311.676 168.602,311.586 168.602,311.406 L168.602,311.406 L168.602,308.706 L171.356,305.142 C171.488,304.974 171.641,304.809 171.815,304.647 C171.989,304.485 172.148,304.404 172.292,304.404 L172.292,304.404 L172.292,304.08 L169.538,304.08 L169.538,304.404 C169.598,304.404 169.658,304.416 169.718,304.44 C169.778,304.464 169.808,304.524 169.808,304.62 C169.808,304.692 169.781,304.767 169.727,304.845 C169.673,304.923 169.592,305.04 169.484,305.196 L169.484,305.196 L167.882,307.428 L166.064,305.052 C166.004,304.968 165.95,304.896 165.902,304.836 C165.854,304.776 165.83,304.71 165.83,304.638 C165.83,304.566 165.866,304.509 165.938,304.467 C166.01,304.425 166.076,304.404 166.136,304.404 L166.136,304.404 L166.136,304.08 L163.166,304.08 L163.166,304.404 C163.274,304.404 163.388,304.428 163.508,304.476 C163.628,304.524 163.73,304.602 163.814,304.71 L163.814,304.71 L166.874,308.634 L166.874,311.406 C166.874,311.586 166.766,311.676 166.55,311.676 L166.55,311.676 L166.55,312 L168.944,312 Z M178.232,312.054 C178.892,312.054 179.513,311.979 180.095,311.829 C180.677,311.679 181.184,311.436 181.616,311.1 C182.048,310.764 182.39,310.341 182.642,309.831 C182.894,309.321 183.02,308.724 183.02,308.04 C183.02,307.356 182.894,306.759 182.642,306.249 C182.39,305.739 182.048,305.316 181.616,304.98 C181.184,304.644 180.677,304.392 180.095,304.224 C179.513,304.056 178.892,303.972 178.232,303.972 C177.572,303.972 176.951,304.056 176.369,304.224 C175.787,304.392 175.28,304.644 174.848,304.98 C174.416,305.316 174.074,305.739 173.822,306.249 C173.57,306.759 173.444,307.356 173.444,308.04 C173.444,308.724 173.57,309.321 173.822,309.831 C174.074,310.341 174.416,310.764 174.848,311.1 C175.28,311.436 175.787,311.679 176.369,311.829 C176.951,311.979 177.572,312.054 178.232,312.054 Z M178.232,310.776 C177.848,310.776 177.473,310.713 177.107,310.587 C176.741,310.461 176.414,310.281 176.126,310.047 C175.838,309.813 175.607,309.528 175.433,309.192 C175.259,308.856 175.172,308.472 175.172,308.04 C175.172,307.608 175.259,307.224 175.433,306.888 C175.607,306.552 175.838,306.267 176.126,306.033 C176.414,305.799 176.741,305.619 177.107,305.493 C177.473,305.367 177.848,305.304 178.232,305.304 C178.616,305.304 178.991,305.367 179.357,305.493 C179.723,305.619 180.05,305.799 180.338,306.033 C180.626,306.267 180.857,306.552 181.031,306.888 C181.205,307.224 181.292,307.608 181.292,308.04 C181.292,308.472 181.205,308.856 181.031,309.192 C180.857,309.528 180.626,309.813 180.338,310.047 C180.05,310.281 179.723,310.461 179.357,310.587 C178.991,310.713 178.616,310.776 178.232,310.776 Z M189.806,312.054 C190.526,312.054 191.153,311.979 191.687,311.829 C192.221,311.679 192.659,311.472 193.001,311.208 C193.343,310.944 193.598,310.641 193.766,310.299 C193.934,309.957 194.018,309.6 194.018,309.228 L194.018,309.228 L194.018,304.674 C194.018,304.494 194.15,304.404 194.414,304.404 L194.414,304.404 L194.414,304.08 L191.912,304.08 L191.912,304.404 C192.212,304.404 192.362,304.494 192.362,304.674 L192.362,304.674 L192.362,308.796 C192.362,309.372 192.152,309.834 191.732,310.182 C191.312,310.53 190.67,310.704 189.806,310.704 C188.942,310.704 188.3,310.53 187.88,310.182 C187.46,309.834 187.25,309.372 187.25,308.796 L187.25,308.796 L187.25,304.674 C187.25,304.494 187.382,304.404 187.646,304.404 L187.646,304.404 L187.646,304.08 L185.072,304.08 L185.072,304.404 C185.276,304.404 185.414,304.425 185.486,304.467 C185.558,304.509 185.594,304.578 185.594,304.674 L185.594,304.674 L185.594,309.228 C185.594,309.6 185.678,309.957 185.846,310.299 C186.014,310.641 186.269,310.944 186.611,311.208 C186.953,311.472 187.391,311.679 187.925,311.829 C188.459,311.979 189.086,312.054 189.806,312.054 Z M199.544,312 L199.544,311.676 C199.472,311.676 199.397,311.655 199.319,311.613 C199.241,311.571 199.202,311.502 199.202,311.406 L199.202,311.406 L199.202,308.832 L201.704,308.832 L203.126,310.956 C203.306,311.208 203.396,311.394 203.396,311.514 C203.396,311.622 203.318,311.676 203.162,311.676 L203.162,311.676 L203.162,312 L205.916,312 L205.916,311.676 C205.784,311.64 205.661,311.589 205.547,311.523 C205.433,311.457 205.328,311.358 205.232,311.226 L205.232,311.226 L203.468,308.652 C203.72,308.592 203.966,308.505 204.206,308.391 C204.446,308.277 204.665,308.127 204.863,307.941 C205.061,307.755 205.22,307.536 205.34,307.284 C205.46,307.032 205.52,306.744 205.52,306.42 C205.52,305.568 205.22,304.965 204.62,304.611 C204.02,304.257 203.186,304.08 202.118,304.08 L202.118,304.08 L197.15,304.08 L197.15,304.404 C197.366,304.404 197.474,304.494 197.474,304.674 L197.474,304.674 L197.474,311.406 C197.474,311.586 197.366,311.676 197.15,311.676 L197.15,311.676 L197.15,312 L199.544,312 Z M202.082,307.5 L199.238,307.5 L199.238,305.412 L202.082,305.412 C202.694,305.412 203.141,305.499 203.423,305.673 C203.705,305.847 203.846,306.084 203.846,306.384 C203.846,307.128 203.258,307.5 202.082,307.5 L202.082,307.5 Z M74.354,330.054 C74.762,330.054 75.197,330.024 75.659,329.964 C76.121,329.904 76.544,329.778 76.928,329.586 C77.312,329.394 77.633,329.13 77.891,328.794 C78.149,328.458 78.278,328.026 78.278,327.498 C78.278,326.97 78.131,326.556 77.837,326.256 C77.543,325.956 77.174,325.728 76.73,325.572 C76.286,325.416 75.806,325.305 75.29,325.239 C74.774,325.173 74.294,325.107 73.85,325.041 C73.406,324.975 73.037,324.885 72.743,324.771 C72.449,324.657 72.302,324.468 72.302,324.204 C72.302,324.036 72.35,323.895 72.446,323.781 C72.542,323.667 72.674,323.574 72.842,323.502 C73.01,323.43 73.202,323.379 73.418,323.349 C73.634,323.319 73.862,323.304 74.102,323.304 C74.726,323.304 75.29,323.376 75.794,323.52 C76.298,323.664 76.67,323.838 76.91,324.042 C77.006,324.114 77.06,324.186 77.072,324.258 L77.072,324.258 L77.108,324.474 L77.432,324.582 L78.332,322.89 L78.134,322.692 C78.062,322.728 78.002,322.761 77.954,322.791 C77.906,322.821 77.834,322.836 77.738,322.836 C77.654,322.836 77.525,322.791 77.351,322.701 C77.177,322.611 76.952,322.512 76.676,322.404 C76.4,322.296 76.061,322.197 75.659,322.107 C75.257,322.017 74.774,321.972 74.21,321.972 C73.058,321.972 72.164,322.2 71.528,322.656 C70.892,323.112 70.574,323.724 70.574,324.492 C70.574,325.008 70.721,325.407 71.015,325.689 C71.309,325.971 71.678,326.187 72.122,326.337 C72.566,326.487 73.046,326.595 73.562,326.661 C74.078,326.727 74.558,326.793 75.002,326.859 C75.446,326.925 75.815,327.018 76.109,327.138 C76.403,327.258 76.55,327.45 76.55,327.714 C76.55,327.942 76.466,328.125 76.298,328.263 C76.13,328.401 75.926,328.509 75.686,328.587 C75.446,328.665 75.203,328.716 74.957,328.74 C74.711,328.764 74.504,328.776 74.336,328.776 C74.156,328.776 73.907,328.746 73.589,328.686 C73.271,328.626 72.953,328.545 72.635,328.443 C72.317,328.341 72.044,328.215 71.816,328.065 C71.588,327.915 71.474,327.75 71.474,327.57 C71.474,327.51 71.477,327.453 71.483,327.399 C71.489,327.345 71.492,327.294 71.492,327.246 L71.492,327.246 L71.15,327.156 L70.322,329.172 L70.574,329.352 C70.634,329.28 70.706,329.244 70.79,329.244 C70.838,329.244 70.976,329.289 71.204,329.379 C71.432,329.469 71.711,329.565 72.041,329.667 C72.371,329.769 72.737,329.859 73.139,329.937 C73.541,330.015 73.946,330.054 74.354,330.054 Z M85.712,330 L85.712,329.676 C85.484,329.676 85.37,329.586 85.37,329.406 L85.37,329.406 L85.37,326.706 L88.124,323.142 C88.256,322.974 88.409,322.809 88.583,322.647 C88.757,322.485 88.916,322.404 89.06,322.404 L89.06,322.404 L89.06,322.08 L86.306,322.08 L86.306,322.404 C86.366,322.404 86.426,322.416 86.486,322.44 C86.546,322.464 86.576,322.524 86.576,322.62 C86.576,322.692 86.549,322.767 86.495,322.845 C86.441,322.923 86.36,323.04 86.252,323.196 L86.252,323.196 L84.65,325.428 L82.832,323.052 C82.772,322.968 82.718,322.896 82.67,322.836 C82.622,322.776 82.598,322.71 82.598,322.638 C82.598,322.566 82.634,322.509 82.706,322.467 C82.778,322.425 82.844,322.404 82.904,322.404 L82.904,322.404 L82.904,322.08 L79.934,322.08 L79.934,322.404 C80.042,322.404 80.156,322.428 80.276,322.476 C80.396,322.524 80.498,322.602 80.582,322.71 L80.582,322.71 L83.642,326.634 L83.642,329.406 C83.642,329.586 83.534,329.676 83.318,329.676 L83.318,329.676 L83.318,330 L85.712,330 Z M93.218,330 L93.218,329.676 C93.014,329.676 92.912,329.586 92.912,329.406 L92.912,329.406 L92.912,324.348 L92.93,324.348 L95.828,330 L95.972,330 L99.032,324.348 L99.068,324.348 L99.068,329.406 C99.104,329.586 98.996,329.676 98.744,329.676 L98.744,329.676 L98.744,330 L100.832,330 L100.832,329.676 C100.772,329.676 100.715,329.655 100.661,329.613 C100.607,329.571 100.58,329.502 100.58,329.406 L100.58,329.406 L100.58,322.638 C100.58,322.542 100.607,322.479 100.661,322.449 C100.715,322.419 100.772,322.404 100.832,322.404 L100.832,322.404 L100.832,322.08 L98.294,322.08 L98.294,322.404 C98.39,322.404 98.438,322.458 98.438,322.566 C98.438,322.602 98.414,322.665 98.366,322.755 C98.318,322.845 98.252,322.962 98.168,323.106 L98.168,323.106 L95.954,327.138 L93.758,323.088 C93.674,322.944 93.611,322.833 93.569,322.755 C93.527,322.677 93.506,322.614 93.506,322.566 C93.506,322.458 93.566,322.404 93.686,322.404 L93.686,322.404 L93.686,322.08 L91.184,322.08 L91.184,322.404 C91.268,322.404 91.325,322.422 91.355,322.458 C91.385,322.494 91.4,322.596 91.4,322.764 L91.4,322.764 L91.4,329.352 C91.4,329.484 91.379,329.568 91.337,329.604 C91.295,329.64 91.244,329.664 91.184,329.676 L91.184,329.676 L91.184,330 L93.218,330 Z M106.268,330 L106.268,329.676 C106.016,329.676 105.89,329.586 105.89,329.406 L105.89,329.406 L105.89,326.706 L108.95,326.706 C109.922,326.706 110.651,326.541 111.137,326.211 C111.623,325.881 111.866,325.284 111.866,324.42 C111.866,323.556 111.623,322.95 111.137,322.602 C110.651,322.254 109.922,322.08 108.95,322.08 L108.95,322.08 L103.712,322.08 L103.712,322.404 C104.012,322.404 104.162,322.494 104.162,322.674 L104.162,322.674 L104.162,329.406 C104.162,329.586 104.012,329.676 103.712,329.676 L103.712,329.676 L103.712,330 L106.268,330 Z M108.914,325.374 L105.89,325.374 L105.89,323.412 L108.914,323.412 C109.262,323.412 109.553,323.487 109.787,323.637 C110.021,323.787 110.138,324.048 110.138,324.42 C110.138,324.804 110.021,325.059 109.787,325.185 C109.553,325.311 109.262,325.374 108.914,325.374 L108.914,325.374 Z M118.202,330 L118.202,329.676 C117.986,329.676 117.878,329.586 117.878,329.406 L117.878,329.406 L117.878,323.412 L120.218,323.412 C120.314,323.412 120.404,323.436 120.488,323.484 C120.572,323.532 120.614,323.61 120.614,323.718 L120.614,323.718 L120.938,323.718 L120.938,321.648 L120.614,321.648 C120.614,321.816 120.572,321.93 120.488,321.99 C120.404,322.05 120.314,322.08 120.218,322.08 L120.218,322.08 L113.81,322.08 C113.714,322.08 113.624,322.05 113.54,321.99 C113.456,321.93 113.414,321.816 113.414,321.648 L113.414,321.648 L113.09,321.648 L113.09,323.718 L113.414,323.718 C113.414,323.61 113.456,323.532 113.54,323.484 C113.624,323.436 113.714,323.412 113.81,323.412 L113.81,323.412 L116.15,323.412 L116.15,329.406 C116.15,329.502 116.12,329.571 116.06,329.613 C116,329.655 115.94,329.676 115.88,329.676 L115.88,329.676 L115.88,330 L118.202,330 Z M127.004,330.054 C127.664,330.054 128.285,329.979 128.867,329.829 C129.449,329.679 129.956,329.436 130.388,329.1 C130.82,328.764 131.162,328.341 131.414,327.831 C131.666,327.321 131.792,326.724 131.792,326.04 C131.792,325.356 131.666,324.759 131.414,324.249 C131.162,323.739 130.82,323.316 130.388,322.98 C129.956,322.644 129.449,322.392 128.867,322.224 C128.285,322.056 127.664,321.972 127.004,321.972 C126.344,321.972 125.723,322.056 125.141,322.224 C124.559,322.392 124.052,322.644 123.62,322.98 C123.188,323.316 122.846,323.739 122.594,324.249 C122.342,324.759 122.216,325.356 122.216,326.04 C122.216,326.724 122.342,327.321 122.594,327.831 C122.846,328.341 123.188,328.764 123.62,329.1 C124.052,329.436 124.559,329.679 125.141,329.829 C125.723,329.979 126.344,330.054 127.004,330.054 Z M127.004,328.776 C126.62,328.776 126.245,328.713 125.879,328.587 C125.513,328.461 125.186,328.281 124.898,328.047 C124.61,327.813 124.379,327.528 124.205,327.192 C124.031,326.856 123.944,326.472 123.944,326.04 C123.944,325.608 124.031,325.224 124.205,324.888 C124.379,324.552 124.61,324.267 124.898,324.033 C125.186,323.799 125.513,323.619 125.879,323.493 C126.245,323.367 126.62,323.304 127.004,323.304 C127.388,323.304 127.763,323.367 128.129,323.493 C128.495,323.619 128.822,323.799 129.11,324.033 C129.398,324.267 129.629,324.552 129.803,324.888 C129.977,325.224 130.064,325.608 130.064,326.04 C130.064,326.472 129.977,326.856 129.803,327.192 C129.629,327.528 129.398,327.813 129.11,328.047 C128.822,328.281 128.495,328.461 128.129,328.587 C127.763,328.713 127.388,328.776 127.004,328.776 Z M136.22,330 L136.22,329.676 C136.016,329.676 135.914,329.586 135.914,329.406 L135.914,329.406 L135.914,324.348 L135.932,324.348 L138.83,330 L138.974,330 L142.034,324.348 L142.07,324.348 L142.07,329.406 C142.106,329.586 141.998,329.676 141.746,329.676 L141.746,329.676 L141.746,330 L143.834,330 L143.834,329.676 C143.774,329.676 143.717,329.655 143.663,329.613 C143.609,329.571 143.582,329.502 143.582,329.406 L143.582,329.406 L143.582,322.638 C143.582,322.542 143.609,322.479 143.663,322.449 C143.717,322.419 143.774,322.404 143.834,322.404 L143.834,322.404 L143.834,322.08 L141.296,322.08 L141.296,322.404 C141.392,322.404 141.44,322.458 141.44,322.566 C141.44,322.602 141.416,322.665 141.368,322.755 C141.32,322.845 141.254,322.962 141.17,323.106 L141.17,323.106 L138.956,327.138 L136.76,323.088 C136.676,322.944 136.613,322.833 136.571,322.755 C136.529,322.677 136.508,322.614 136.508,322.566 C136.508,322.458 136.568,322.404 136.688,322.404 L136.688,322.404 L136.688,322.08 L134.186,322.08 L134.186,322.404 C134.27,322.404 134.327,322.422 134.357,322.458 C134.387,322.494 134.402,322.596 134.402,322.764 L134.402,322.764 L134.402,329.352 C134.402,329.484 134.381,329.568 134.339,329.604 C134.297,329.64 134.246,329.664 134.186,329.676 L134.186,329.676 L134.186,330 L136.22,330 Z M154.76,330 L154.76,329.676 C154.508,329.676 154.382,329.586 154.382,329.406 L154.382,329.406 L154.382,326.706 L157.442,326.706 C158.414,326.706 159.143,326.541 159.629,326.211 C160.115,325.881 160.358,325.284 160.358,324.42 C160.358,323.556 160.115,322.95 159.629,322.602 C159.143,322.254 158.414,322.08 157.442,322.08 L157.442,322.08 L152.204,322.08 L152.204,322.404 C152.504,322.404 152.654,322.494 152.654,322.674 L152.654,322.674 L152.654,329.406 C152.654,329.586 152.504,329.676 152.204,329.676 L152.204,329.676 L152.204,330 L154.76,330 Z M157.406,325.374 L154.382,325.374 L154.382,323.412 L157.406,323.412 C157.754,323.412 158.045,323.487 158.279,323.637 C158.513,323.787 158.63,324.048 158.63,324.42 C158.63,324.804 158.513,325.059 158.279,325.185 C158.045,325.311 157.754,325.374 157.406,325.374 L157.406,325.374 Z M165.362,330 L165.362,329.676 C165.026,329.676 164.858,329.586 164.858,329.406 L164.858,329.406 L164.858,322.674 C164.858,322.494 165.026,322.404 165.362,322.404 L165.362,322.404 L165.362,322.08 L162.626,322.08 L162.626,322.404 C162.818,322.404 162.95,322.425 163.022,322.467 C163.094,322.509 163.13,322.578 163.13,322.674 L163.13,322.674 L163.13,329.406 C163.13,329.502 163.094,329.571 163.022,329.613 C162.95,329.655 162.818,329.676 162.626,329.676 L162.626,329.676 L162.626,330 L165.362,330 Z M176.252,330.18 L176.252,328.29 L175.928,328.29 C175.928,328.41 175.88,328.503 175.784,328.569 C175.688,328.635 175.568,328.668 175.424,328.668 L175.424,328.668 L170.564,328.668 L170.564,322.674 C170.564,322.494 170.702,322.404 170.978,322.404 L170.978,322.404 L170.978,322.08 L168.368,322.08 L168.368,322.404 C168.68,322.404 168.836,322.494 168.836,322.674 L168.836,322.674 L168.836,329.406 C168.836,329.586 168.68,329.676 168.368,329.676 L168.368,329.676 L168.368,330 L175.424,330 C175.568,330 175.688,330.006 175.784,330.018 C175.88,330.03 175.928,330.084 175.928,330.18 L175.928,330.18 L176.252,330.18 Z M185.918,330.198 L185.918,328.308 L185.594,328.308 C185.594,328.416 185.546,328.503 185.45,328.569 C185.354,328.635 185.234,328.668 185.09,328.668 L185.09,328.668 L180.482,328.668 L180.482,326.544 L183.11,326.544 C183.35,326.544 183.536,326.559 183.668,326.589 C183.8,326.619 183.848,326.7 183.812,326.832 L183.812,326.832 L184.172,326.832 L184.172,324.924 L183.848,324.924 C183.848,325.056 183.8,325.137 183.704,325.167 C183.608,325.197 183.458,325.212 183.254,325.212 L183.254,325.212 L180.482,325.212 L180.482,323.412 L184.874,323.412 C185.246,323.412 185.432,323.526 185.432,323.754 L185.432,323.754 L185.756,323.754 L185.756,321.756 L185.432,321.756 C185.432,321.972 185.246,322.08 184.874,322.08 L184.874,322.08 L178.484,322.08 L178.484,322.404 C178.544,322.404 178.604,322.425 178.664,322.467 C178.724,322.509 178.754,322.578 178.754,322.674 L178.754,322.674 L178.754,329.406 C178.754,329.502 178.724,329.571 178.664,329.613 C178.604,329.655 178.544,329.676 178.484,329.676 L178.484,329.676 L178.484,330 L185.09,330 C185.234,330 185.354,330.006 185.45,330.018 C185.546,330.03 185.594,330.09 185.594,330.198 L185.594,330.198 L185.918,330.198 Z M189.752,330.054 C190.1,330.054 190.4,329.937 190.652,329.703 C190.904,329.469 191.03,329.178 191.03,328.83 C191.03,328.482 190.904,328.182 190.652,327.93 C190.4,327.678 190.1,327.552 189.752,327.552 C189.404,327.552 189.104,327.678 188.852,327.93 C188.6,328.182 188.474,328.482 188.474,328.83 C188.474,329.178 188.6,329.469 188.852,329.703 C189.104,329.937 189.404,330.054 189.752,330.054 Z" id="Howdoeslighthurt?Addthistoyoursymptompile." fill="#000000" fill-rule="nonzero"></path>
    </g>
</svg>