<?xml version="1.0" encoding="UTF-8"?>
<svg width="262px" height="360px" viewBox="0 0 262 360" version="1.1" xmlns="http://www.w3.org/2000/svg" xmlns:xlink="http://www.w3.org/1999/xlink">
    <title>Loss of Speech 3</title>
    <g id="Loss-of-Speech-3" stroke="none" stroke-width="1" fill="none" fill-rule="evenodd">
        <g id="Group" transform="translate(9.000000, 9.000000)" fill="#FFFFFF" stroke="#000000" stroke-width="3">
            <g id="Rectangle">
                <rect x="1.5" y="1.5" width="239" height="337" rx="8"></rect>
            </g>
        </g>
        <path d="M213.652,30.072 C214.292,30.072 214.976,30.02 215.704,29.916 C216.432,29.812 217.1,29.604 217.708,29.292 C218.316,28.98 218.824,28.56 219.232,28.032 C219.64,27.504 219.844,26.832 219.844,26.016 C219.844,25.296 219.624,24.7 219.184,24.228 C218.744,23.756 218.18,23.44 217.492,23.28 L217.492,23.28 L217.492,23.232 C218.068,23.104 218.524,22.796 218.86,22.308 C219.196,21.82 219.364,21.288 219.364,20.712 C219.364,20.088 219.2,19.556 218.872,19.116 C218.544,18.676 218.12,18.316 217.6,18.036 C217.08,17.756 216.504,17.552 215.872,17.424 C215.24,17.296 214.612,17.232 213.988,17.232 C213.06,17.232 212.272,17.324 211.624,17.508 C210.976,17.692 210.444,17.896 210.028,18.12 C209.612,18.344 209.296,18.548 209.08,18.732 C208.864,18.916 208.716,19.008 208.636,19.008 C208.492,19.008 208.356,18.968 208.228,18.888 L208.228,18.888 L207.94,19.104 L209.86,21.552 L210.076,21.408 C210.044,21.328 210.02,21.244 210.004,21.156 C209.988,21.068 209.98,20.992 209.98,20.928 C209.98,20.736 210.1,20.544 210.34,20.352 C210.58,20.16 210.884,19.984 211.252,19.824 C211.62,19.664 212.028,19.536 212.476,19.44 C212.924,19.344 213.364,19.296 213.796,19.296 C214.164,19.296 214.528,19.316 214.888,19.356 C215.248,19.396 215.576,19.472 215.872,19.584 C216.168,19.696 216.408,19.852 216.592,20.052 C216.776,20.252 216.868,20.512 216.868,20.832 C216.868,21.168 216.764,21.448 216.556,21.672 C216.348,21.896 216.096,22.072 215.8,22.2 C215.504,22.328 215.188,22.416 214.852,22.464 C214.516,22.512 214.22,22.536 213.964,22.536 C213.58,22.536 213.232,22.484 212.92,22.38 C212.608,22.276 212.436,22.064 212.404,21.744 L212.404,21.744 L212.116,21.744 L212.116,25.008 L212.404,25.008 C212.5,24.72 212.688,24.54 212.968,24.468 C213.248,24.396 213.58,24.36 213.964,24.36 C214.236,24.36 214.56,24.38 214.936,24.42 C215.312,24.46 215.668,24.544 216.004,24.672 C216.34,24.8 216.624,24.98 216.856,25.212 C217.088,25.444 217.204,25.752 217.204,26.136 C217.204,26.536 217.084,26.86 216.844,27.108 C216.604,27.356 216.312,27.552 215.968,27.696 C215.624,27.84 215.256,27.94 214.864,27.996 C214.472,28.052 214.132,28.08 213.844,28.08 C213.476,28.08 213.024,28.028 212.488,27.924 C211.952,27.82 211.44,27.668 210.952,27.468 C210.464,27.268 210.044,27.024 209.692,26.736 C209.34,26.448 209.164,26.12 209.164,25.752 L209.164,25.752 L209.164,25.584 C209.164,25.504 209.172,25.448 209.188,25.416 L209.188,25.416 L208.924,25.272 L207.532,28.728 L207.748,28.8 C207.812,28.768 207.872,28.736 207.928,28.704 C207.984,28.672 208.052,28.656 208.132,28.656 C208.26,28.656 208.48,28.732 208.792,28.884 C209.104,29.036 209.5,29.204 209.98,29.388 C210.46,29.572 211.012,29.732 211.636,29.868 C212.26,30.004 212.932,30.072 213.652,30.072 Z" id="3" fill="#000000" fill-rule="nonzero"></path>
        <g id="Face" transform="translate(225.000000, 15.000000)">
            <circle id="Oval" stroke="#000000" fill="#FFFFFF" cx="9.5" cy="9.5" r="9"></circle>
            <circle id="Oval" fill="#000000" cx="5" cy="8" r="1"></circle>
            <circle id="Oval-Copy" fill="#000000" cx="12" cy="8" r="1"></circle>
            <line x1="12.0789474" y1="13.9090909" x2="14.5" y2="11.5" id="Line-4" stroke="#000000" stroke-linecap="round"></line>
            <path d="M3,5.89285714 C3.41025641,5.96428571 3.76923077,6 4.07692308,6 C4.38461538,6 5.35897436,5.33333333 7,4" id="Line-2" stroke="#000000"></path>
            <path d="M6,15 C6.96078431,14.3333333 8.07598039,14 9.34558824,14 C10.6151961,14 11.8333333,14.3333333 13,15" id="Line" stroke="#000000" stroke-linecap="round" stroke-linejoin="round"></path>
            <path d="M11.3197366,4.68245322 C11.585843,4.80663622 11.7912611,4.92388646 11.9359908,5.03420394 C12.548667,5.50120471 13.1333088,5.70898724 13.3155349,5.80010028 C13.5440857,5.91437569 13.8101922,6.00751295 14.1138542,6.07951204" id="Line-3" stroke="#000000" stroke-linecap="square" transform="translate(12.716795, 5.380983) rotate(-3.000000) translate(-12.716795, -5.380983) "></path>
            <path d="M2.999,9.347 L3.01687864,9.39698204 C3.09438102,9.62639002 3.1880913,9.89570266 3.30282211,10.2112791 C3.48139895,10.7024692 3.54804655,11.0169045 3.47980817,11.2204078 C3.41244402,11.421304 3.17143148,11.4011566 3.01518318,11.4416373 L3.01518318,11.4416373 L2.86575433,11.4813457 C2.78836954,11.5029149 2.70310591,11.5126925 2.63007237,11.4810832 C2.58941161,11.463485 2.56030088,11.4264037 2.54036126,11.376794 C2.4446463,11.1386559 2.49784548,10.759559 2.69717789,10.2112791 C2.8119087,9.89570266 2.90561898,9.62639002 2.98312136,9.39698204 L2.999,9.347 Z" id="Oval" stroke="#000000"></path>
            <path d="M16,6.347 L16.0168786,6.39698204 C16.094381,6.62639002 16.1880913,6.89570266 16.3028221,7.21127907 C16.481399,7.70246915 16.5480465,8.01690453 16.4798082,8.22040783 C16.412444,8.42130397 16.1714315,8.40115659 16.0151832,8.44163726 L16.0151832,8.44163726 L15.8657543,8.48134574 C15.7883695,8.50291486 15.7031059,8.51269255 15.6300724,8.48108319 C15.5894116,8.46348497 15.5603009,8.42640366 15.5403613,8.37679403 C15.4446463,8.13865595 15.4978455,7.75955902 15.6971779,7.21127907 C15.8119087,6.89570266 15.905619,6.62639002 15.9831214,6.39698204 L16,6.347 Z" id="Oval-Copy-2" stroke="#000000"></path>
        </g>
        <rect id="Rectangle" stroke="#000000" stroke-width="3" x="17.5" y="261.5" width="225" height="80" rx="8"></rect>
        <path d="M83.304,57.684 L83.304,52.752 L82.656,52.752 C82.656,53.04 82.542,53.268 82.314,53.436 C82.086,53.604 81.792,53.688 81.432,53.688 L81.432,53.688 L69.48,53.688 L69.48,39.36 C69.48,38.928 69.816,38.712 70.488,38.712 L70.488,38.712 L70.488,38.064 L64.296,38.064 L64.296,38.712 C65.016,38.712 65.376,38.928 65.376,39.36 L65.376,39.36 L65.376,55.704 C65.376,56.136 65.016,56.352 64.296,56.352 L64.296,56.352 L64.296,57 L81.432,57 C81.792,57 82.086,57.024 82.314,57.072 C82.542,57.12 82.656,57.324 82.656,57.684 L82.656,57.684 L83.304,57.684 Z M94.968,57.108 C96.288,57.108 97.53,56.958 98.694,56.658 C99.858,56.358 100.872,55.872 101.736,55.2 C102.6,54.528 103.284,53.682 103.788,52.662 C104.292,51.642 104.544,50.448 104.544,49.08 C104.544,47.712 104.292,46.518 103.788,45.498 C103.284,44.478 102.6,43.632 101.736,42.96 C100.872,42.288 99.858,41.784 98.694,41.448 C97.53,41.112 96.288,40.944 94.968,40.944 C93.648,40.944 92.406,41.112 91.242,41.448 C90.078,41.784 89.064,42.288 88.2,42.96 C87.336,43.632 86.652,44.478 86.148,45.498 C85.644,46.518 85.392,47.712 85.392,49.08 C85.392,50.448 85.644,51.642 86.148,52.662 C86.652,53.682 87.336,54.528 88.2,55.2 C89.064,55.872 90.078,56.358 91.242,56.658 C92.406,56.958 93.648,57.108 94.968,57.108 Z M94.968,54.552 C94.2,54.552 93.45,54.426 92.718,54.174 C91.986,53.922 91.332,53.562 90.756,53.094 C90.18,52.626 89.718,52.056 89.37,51.384 C89.022,50.712 88.848,49.944 88.848,49.08 C88.848,48.216 89.022,47.448 89.37,46.776 C89.718,46.104 90.18,45.534 90.756,45.066 C91.332,44.598 91.986,44.238 92.718,43.986 C93.45,43.734 94.2,43.608 94.968,43.608 C95.736,43.608 96.486,43.734 97.218,43.986 C97.95,44.238 98.604,44.598 99.18,45.066 C99.756,45.534 100.218,46.104 100.566,46.776 C100.914,47.448 101.088,48.216 101.088,49.08 C101.088,49.944 100.914,50.712 100.566,51.384 C100.218,52.056 99.756,52.626 99.18,53.094 C98.604,53.562 97.95,53.922 97.218,54.174 C96.486,54.426 95.736,54.552 94.968,54.552 Z M115.704,57.108 C116.52,57.108 117.39,57.048 118.314,56.928 C119.238,56.808 120.084,56.556 120.852,56.172 C121.62,55.788 122.262,55.26 122.778,54.588 C123.294,53.916 123.552,53.052 123.552,51.996 C123.552,50.94 123.258,50.112 122.67,49.512 C122.082,48.912 121.344,48.456 120.456,48.144 C119.568,47.832 118.608,47.61 117.576,47.478 C116.544,47.346 115.584,47.214 114.696,47.082 C113.808,46.95 113.07,46.77 112.482,46.542 C111.894,46.314 111.6,45.936 111.6,45.408 C111.6,45.072 111.696,44.79 111.888,44.562 C112.08,44.334 112.344,44.148 112.68,44.004 C113.016,43.86 113.4,43.758 113.832,43.698 C114.264,43.638 114.72,43.608 115.2,43.608 C116.448,43.608 117.576,43.752 118.584,44.04 C119.592,44.328 120.336,44.676 120.816,45.084 C121.008,45.228 121.116,45.372 121.14,45.516 L121.14,45.516 L121.212,45.948 L121.86,46.164 L123.66,42.78 L123.264,42.384 C123.12,42.456 123,42.522 122.904,42.582 C122.808,42.642 122.664,42.672 122.472,42.672 C122.304,42.672 122.046,42.582 121.698,42.402 C121.35,42.222 120.9,42.024 120.348,41.808 C119.796,41.592 119.118,41.394 118.314,41.214 C117.51,41.034 116.544,40.944 115.416,40.944 C113.112,40.944 111.324,41.4 110.052,42.312 C108.78,43.224 108.144,44.448 108.144,45.984 C108.144,47.016 108.438,47.814 109.026,48.378 C109.614,48.942 110.352,49.374 111.24,49.674 C112.128,49.974 113.088,50.19 114.12,50.322 C115.152,50.454 116.112,50.586 117,50.718 C117.888,50.85 118.626,51.036 119.214,51.276 C119.802,51.516 120.096,51.9 120.096,52.428 C120.096,52.884 119.928,53.25 119.592,53.526 C119.256,53.802 118.848,54.018 118.368,54.174 C117.888,54.33 117.402,54.432 116.91,54.48 C116.418,54.528 116.004,54.552 115.668,54.552 C115.308,54.552 114.81,54.492 114.174,54.372 C113.538,54.252 112.902,54.09 112.266,53.886 C111.63,53.682 111.084,53.43 110.628,53.13 C110.172,52.83 109.944,52.5 109.944,52.14 C109.944,52.02 109.95,51.906 109.962,51.798 C109.974,51.69 109.98,51.588 109.98,51.492 L109.98,51.492 L109.296,51.312 L107.64,55.344 L108.144,55.704 C108.264,55.56 108.408,55.488 108.576,55.488 C108.672,55.488 108.948,55.578 109.404,55.758 C109.86,55.938 110.418,56.13 111.078,56.334 C111.738,56.538 112.47,56.718 113.274,56.874 C114.078,57.03 114.888,57.108 115.704,57.108 Z M135.72,57.108 C136.536,57.108 137.406,57.048 138.33,56.928 C139.254,56.808 140.1,56.556 140.868,56.172 C141.636,55.788 142.278,55.26 142.794,54.588 C143.31,53.916 143.568,53.052 143.568,51.996 C143.568,50.94 143.274,50.112 142.686,49.512 C142.098,48.912 141.36,48.456 140.472,48.144 C139.584,47.832 138.624,47.61 137.592,47.478 C136.56,47.346 135.6,47.214 134.712,47.082 C133.824,46.95 133.086,46.77 132.498,46.542 C131.91,46.314 131.616,45.936 131.616,45.408 C131.616,45.072 131.712,44.79 131.904,44.562 C132.096,44.334 132.36,44.148 132.696,44.004 C133.032,43.86 133.416,43.758 133.848,43.698 C134.28,43.638 134.736,43.608 135.216,43.608 C136.464,43.608 137.592,43.752 138.6,44.04 C139.608,44.328 140.352,44.676 140.832,45.084 C141.024,45.228 141.132,45.372 141.156,45.516 L141.156,45.516 L141.228,45.948 L141.876,46.164 L143.676,42.78 L143.28,42.384 C143.136,42.456 143.016,42.522 142.92,42.582 C142.824,42.642 142.68,42.672 142.488,42.672 C142.32,42.672 142.062,42.582 141.714,42.402 C141.366,42.222 140.916,42.024 140.364,41.808 C139.812,41.592 139.134,41.394 138.33,41.214 C137.526,41.034 136.56,40.944 135.432,40.944 C133.128,40.944 131.34,41.4 130.068,42.312 C128.796,43.224 128.16,44.448 128.16,45.984 C128.16,47.016 128.454,47.814 129.042,48.378 C129.63,48.942 130.368,49.374 131.256,49.674 C132.144,49.974 133.104,50.19 134.136,50.322 C135.168,50.454 136.128,50.586 137.016,50.718 C137.904,50.85 138.642,51.036 139.23,51.276 C139.818,51.516 140.112,51.9 140.112,52.428 C140.112,52.884 139.944,53.25 139.608,53.526 C139.272,53.802 138.864,54.018 138.384,54.174 C137.904,54.33 137.418,54.432 136.926,54.48 C136.434,54.528 136.02,54.552 135.684,54.552 C135.324,54.552 134.826,54.492 134.19,54.372 C133.554,54.252 132.918,54.09 132.282,53.886 C131.646,53.682 131.1,53.43 130.644,53.13 C130.188,52.83 129.96,52.5 129.96,52.14 C129.96,52.02 129.966,51.906 129.978,51.798 C129.99,51.69 129.996,51.588 129.996,51.492 L129.996,51.492 L129.312,51.312 L127.656,55.344 L128.16,55.704 C128.28,55.56 128.424,55.488 128.592,55.488 C128.688,55.488 128.964,55.578 129.42,55.758 C129.876,55.938 130.434,56.13 131.094,56.334 C131.754,56.538 132.486,56.718 133.29,56.874 C134.094,57.03 134.904,57.108 135.72,57.108 Z M167.976,57.108 C169.296,57.108 170.538,56.958 171.702,56.658 C172.866,56.358 173.88,55.872 174.744,55.2 C175.608,54.528 176.292,53.682 176.796,52.662 C177.3,51.642 177.552,50.448 177.552,49.08 C177.552,47.712 177.3,46.518 176.796,45.498 C176.292,44.478 175.608,43.632 174.744,42.96 C173.88,42.288 172.866,41.784 171.702,41.448 C170.538,41.112 169.296,40.944 167.976,40.944 C166.656,40.944 165.414,41.112 164.25,41.448 C163.086,41.784 162.072,42.288 161.208,42.96 C160.344,43.632 159.66,44.478 159.156,45.498 C158.652,46.518 158.4,47.712 158.4,49.08 C158.4,50.448 158.652,51.642 159.156,52.662 C159.66,53.682 160.344,54.528 161.208,55.2 C162.072,55.872 163.086,56.358 164.25,56.658 C165.414,56.958 166.656,57.108 167.976,57.108 Z M167.976,54.552 C167.208,54.552 166.458,54.426 165.726,54.174 C164.994,53.922 164.34,53.562 163.764,53.094 C163.188,52.626 162.726,52.056 162.378,51.384 C162.03,50.712 161.856,49.944 161.856,49.08 C161.856,48.216 162.03,47.448 162.378,46.776 C162.726,46.104 163.188,45.534 163.764,45.066 C164.34,44.598 164.994,44.238 165.726,43.986 C166.458,43.734 167.208,43.608 167.976,43.608 C168.744,43.608 169.494,43.734 170.226,43.986 C170.958,44.238 171.612,44.598 172.188,45.066 C172.764,45.534 173.226,46.104 173.574,46.776 C173.922,47.448 174.096,48.216 174.096,49.08 C174.096,49.944 173.922,50.712 173.574,51.384 C173.226,52.056 172.764,52.626 172.188,53.094 C171.612,53.562 170.958,53.922 170.226,54.174 C169.494,54.426 168.744,54.552 167.976,54.552 Z M186.732,57 L186.732,56.352 C186.516,56.352 186.324,56.31 186.156,56.226 C185.988,56.142 185.904,56.004 185.904,55.812 L185.904,55.812 L185.904,50.304 L192.24,50.304 C192.648,50.304 192.9,50.352 192.996,50.448 C193.092,50.544 193.152,50.688 193.176,50.88 L193.176,50.88 L193.824,50.88 L193.824,47.1 L193.176,47.1 C193.152,47.292 193.092,47.43 192.996,47.514 C192.9,47.598 192.648,47.64 192.24,47.64 L192.24,47.64 L185.904,47.64 L185.904,43.824 L195.66,43.824 C196.068,43.824 196.356,43.878 196.524,43.986 C196.692,44.094 196.776,44.208 196.776,44.328 L196.776,44.328 L197.424,44.328 L197.424,40.512 L196.776,40.512 C196.776,40.704 196.692,40.86 196.524,40.98 C196.356,41.1 196.068,41.16 195.66,41.16 L195.66,41.16 L181.692,41.16 L181.692,41.808 C182.196,41.808 182.448,41.988 182.448,42.348 L182.448,42.348 L182.448,55.812 C182.448,56.172 182.22,56.352 181.764,56.352 L181.764,56.352 L181.764,57 L186.732,57 Z M78.084,93.108 C79.068,93.108 80.13,93.03 81.27,92.874 C82.41,92.718 83.472,92.412 84.456,91.956 C85.44,91.5 86.262,90.876 86.922,90.084 C87.582,89.292 87.912,88.272 87.912,87.024 C87.912,85.944 87.702,85.068 87.282,84.396 C86.862,83.724 86.31,83.19 85.626,82.794 C84.942,82.398 84.162,82.11 83.286,81.93 C82.41,81.75 81.516,81.624 80.604,81.552 C79.692,81.48 78.798,81.42 77.922,81.372 C77.046,81.324 76.266,81.228 75.582,81.084 C74.898,80.94 74.346,80.724 73.926,80.436 C73.506,80.148 73.296,79.716 73.296,79.14 C73.296,78.732 73.446,78.39 73.746,78.114 C74.046,77.838 74.424,77.616 74.88,77.448 C75.336,77.28 75.846,77.154 76.41,77.07 C76.974,76.986 77.52,76.944 78.048,76.944 C78.744,76.944 79.44,77.01 80.136,77.142 C80.832,77.274 81.48,77.448 82.08,77.664 C82.68,77.88 83.202,78.126 83.646,78.402 C84.09,78.678 84.408,78.96 84.6,79.248 C84.744,79.464 84.84,79.74 84.888,80.076 L84.888,80.076 L85.248,80.22 L87.732,75.72 L87.3,75.432 C87.156,75.576 86.916,75.648 86.58,75.648 C86.268,75.648 85.878,75.552 85.41,75.36 C84.942,75.168 84.366,74.964 83.682,74.748 C82.998,74.532 82.188,74.328 81.252,74.136 C80.316,73.944 79.212,73.848 77.94,73.848 C76.452,73.848 75.156,74.022 74.052,74.37 C72.948,74.718 72.036,75.168 71.316,75.72 C70.596,76.272 70.062,76.908 69.714,77.628 C69.366,78.348 69.192,79.08 69.192,79.824 C69.192,80.928 69.402,81.822 69.822,82.506 C70.242,83.19 70.794,83.73 71.478,84.126 C72.162,84.522 72.942,84.804 73.818,84.972 C74.694,85.14 75.588,85.26 76.5,85.332 C77.412,85.404 78.306,85.458 79.182,85.494 C80.058,85.53 80.838,85.608 81.522,85.728 C82.206,85.848 82.758,86.04 83.178,86.304 C83.598,86.568 83.808,86.976 83.808,87.528 C83.808,88.08 83.58,88.524 83.124,88.86 C82.668,89.196 82.128,89.46 81.504,89.652 C80.88,89.844 80.244,89.97 79.596,90.03 C78.948,90.09 78.42,90.12 78.012,90.12 C77.46,90.12 76.836,90.054 76.14,89.922 C75.444,89.79 74.778,89.616 74.142,89.4 C73.506,89.184 72.942,88.938 72.45,88.662 C71.958,88.386 71.628,88.104 71.46,87.816 C71.364,87.648 71.316,87.456 71.316,87.24 L71.316,87.24 L70.956,87.06 L68.976,91.416 L69.48,91.704 C69.624,91.512 69.78,91.416 69.948,91.416 C70.212,91.416 70.524,91.506 70.884,91.686 C71.244,91.866 71.73,92.07 72.342,92.298 C72.954,92.526 73.722,92.718 74.646,92.874 C75.57,93.03 76.716,93.108 78.084,93.108 Z M97.992,93 L97.992,92.352 C97.488,92.352 97.236,92.172 97.236,91.812 L97.236,91.812 L97.236,86.412 L103.356,86.412 C105.3,86.412 106.758,86.082 107.73,85.422 C108.702,84.762 109.188,83.568 109.188,81.84 C109.188,80.112 108.702,78.9 107.73,78.204 C106.758,77.508 105.3,77.16 103.356,77.16 L103.356,77.16 L92.88,77.16 L92.88,77.808 C93.48,77.808 93.78,77.988 93.78,78.348 L93.78,78.348 L93.78,91.812 C93.78,92.172 93.48,92.352 92.88,92.352 L92.88,92.352 L92.88,93 L97.992,93 Z M103.284,83.748 L97.236,83.748 L97.236,79.824 L103.284,79.824 C103.98,79.824 104.562,79.974 105.03,80.274 C105.498,80.574 105.732,81.096 105.732,81.84 C105.732,82.608 105.498,83.118 105.03,83.37 C104.562,83.622 103.98,83.748 103.284,83.748 L103.284,83.748 Z M128.304,93.396 L128.304,89.616 L127.656,89.616 C127.656,89.832 127.56,90.006 127.368,90.138 C127.176,90.27 126.936,90.336 126.648,90.336 L126.648,90.336 L117.432,90.336 L117.432,86.088 L122.688,86.088 C123.168,86.088 123.54,86.118 123.804,86.178 C124.068,86.238 124.164,86.4 124.092,86.664 L124.092,86.664 L124.812,86.664 L124.812,82.848 L124.164,82.848 C124.164,83.112 124.068,83.274 123.876,83.334 C123.684,83.394 123.384,83.424 122.976,83.424 L122.976,83.424 L117.432,83.424 L117.432,79.824 L126.216,79.824 C126.96,79.824 127.332,80.052 127.332,80.508 L127.332,80.508 L127.98,80.508 L127.98,76.512 L127.332,76.512 C127.332,76.944 126.96,77.16 126.216,77.16 L126.216,77.16 L113.436,77.16 L113.436,77.808 C113.556,77.808 113.676,77.85 113.796,77.934 C113.916,78.018 113.976,78.156 113.976,78.348 L113.976,78.348 L113.976,91.812 C113.976,92.004 113.916,92.142 113.796,92.226 C113.676,92.31 113.556,92.352 113.436,92.352 L113.436,92.352 L113.436,93 L126.648,93 C126.936,93 127.176,93.012 127.368,93.036 C127.56,93.06 127.656,93.18 127.656,93.396 L127.656,93.396 L128.304,93.396 Z M148.32,93.396 L148.32,89.616 L147.672,89.616 C147.672,89.832 147.576,90.006 147.384,90.138 C147.192,90.27 146.952,90.336 146.664,90.336 L146.664,90.336 L137.448,90.336 L137.448,86.088 L142.704,86.088 C143.184,86.088 143.556,86.118 143.82,86.178 C144.084,86.238 144.18,86.4 144.108,86.664 L144.108,86.664 L144.828,86.664 L144.828,82.848 L144.18,82.848 C144.18,83.112 144.084,83.274 143.892,83.334 C143.7,83.394 143.4,83.424 142.992,83.424 L142.992,83.424 L137.448,83.424 L137.448,79.824 L146.232,79.824 C146.976,79.824 147.348,80.052 147.348,80.508 L147.348,80.508 L147.996,80.508 L147.996,76.512 L147.348,76.512 C147.348,76.944 146.976,77.16 146.232,77.16 L146.232,77.16 L133.452,77.16 L133.452,77.808 C133.572,77.808 133.692,77.85 133.812,77.934 C133.932,78.018 133.992,78.156 133.992,78.348 L133.992,78.348 L133.992,91.812 C133.992,92.004 133.932,92.142 133.812,92.226 C133.692,92.31 133.572,92.352 133.452,92.352 L133.452,92.352 L133.452,93 L146.664,93 C146.952,93 147.192,93.012 147.384,93.036 C147.576,93.06 147.672,93.18 147.672,93.396 L147.672,93.396 L148.32,93.396 Z M160.668,93.108 C161.748,93.108 162.726,93.012 163.602,92.82 C164.478,92.628 165.246,92.394 165.906,92.118 C166.566,91.842 167.112,91.596 167.544,91.38 C167.976,91.164 168.288,91.056 168.48,91.056 C168.6,91.056 168.804,91.116 169.092,91.236 L169.092,91.236 L169.452,91.056 L166.788,87.24 L166.392,87.6 C166.416,87.696 166.428,87.816 166.428,87.96 L166.428,87.96 L166.428,88.248 C166.428,88.464 166.254,88.704 165.906,88.968 C165.558,89.232 165.108,89.478 164.556,89.706 C164.004,89.934 163.392,90.132 162.72,90.3 C162.048,90.468 161.388,90.552 160.74,90.552 C160.044,90.552 159.36,90.426 158.688,90.174 C158.016,89.922 157.416,89.55 156.888,89.058 C156.36,88.566 155.934,87.978 155.61,87.294 C155.286,86.61 155.124,85.836 155.124,84.972 C155.124,84.108 155.268,83.34 155.556,82.668 C155.844,81.996 156.252,81.432 156.78,80.976 C157.308,80.52 157.926,80.178 158.634,79.95 C159.342,79.722 160.128,79.608 160.992,79.608 C161.712,79.608 162.372,79.674 162.972,79.806 C163.572,79.938 164.094,80.1 164.538,80.292 C164.982,80.484 165.324,80.682 165.564,80.886 C165.804,81.09 165.924,81.252 165.924,81.372 C165.924,81.444 165.93,81.504 165.942,81.552 C165.954,81.6 165.96,81.648 165.96,81.696 L165.96,81.696 L166.356,81.984 L168.732,78.564 L168.3,78.312 C168.204,78.36 168.114,78.42 168.03,78.492 C167.946,78.564 167.844,78.6 167.724,78.6 C167.556,78.6 167.28,78.516 166.896,78.348 C166.512,78.18 166.032,77.988 165.456,77.772 C164.88,77.556 164.214,77.364 163.458,77.196 C162.702,77.028 161.868,76.944 160.956,76.944 C159.78,76.944 158.634,77.112 157.518,77.448 C156.402,77.784 155.412,78.294 154.548,78.978 C153.684,79.662 152.988,80.508 152.46,81.516 C151.932,82.524 151.668,83.7 151.668,85.044 C151.668,86.388 151.932,87.57 152.46,88.59 C152.988,89.61 153.672,90.462 154.512,91.146 C155.352,91.83 156.312,92.328 157.392,92.64 C158.472,92.952 159.564,93.108 160.668,93.108 Z M178.236,93 L178.236,92.352 C178.092,92.352 177.966,92.31 177.858,92.226 C177.75,92.142 177.696,92.004 177.696,91.812 L177.696,91.812 L177.696,86.376 L187.344,86.376 L187.344,91.812 C187.344,92.004 187.29,92.142 187.182,92.226 C187.074,92.31 186.948,92.352 186.804,92.352 L186.804,92.352 L186.804,93 L191.34,93 L191.34,92.352 C191.196,92.352 191.07,92.31 190.962,92.226 C190.854,92.142 190.8,92.004 190.8,91.812 L190.8,91.812 L190.8,78.348 C190.8,78.156 190.854,78.018 190.962,77.934 C191.07,77.85 191.196,77.808 191.34,77.808 L191.34,77.808 L191.34,77.16 L186.804,77.16 L186.804,77.808 C186.948,77.808 187.074,77.85 187.182,77.934 C187.29,78.018 187.344,78.156 187.344,78.348 L187.344,78.348 L187.344,83.424 L177.696,83.424 L177.696,78.348 C177.696,78.156 177.75,78.018 177.858,77.934 C177.966,77.85 178.092,77.808 178.236,77.808 L178.236,77.808 L178.236,77.16 L173.7,77.16 L173.7,77.808 C173.844,77.808 173.97,77.85 174.078,77.934 C174.186,78.018 174.24,78.156 174.24,78.348 L174.24,78.348 L174.24,91.812 C174.24,92.004 174.186,92.142 174.078,92.226 C173.97,92.31 173.844,92.352 173.7,92.352 L173.7,92.352 L173.7,93 L178.236,93 Z" id="LossofSpeech" fill="#000000" fill-rule="nonzero"></path>
        <path d="M69.512,279 L69.512,278.676 C69.356,278.628 69.278,278.508 69.278,278.316 C69.278,278.196 69.368,277.902 69.548,277.434 L69.548,277.434 L71.51,272.232 L71.546,272.232 L73.616,277.542 C73.712,277.758 73.781,277.926 73.823,278.046 C73.865,278.166 73.886,278.274 73.886,278.37 C73.886,278.454 73.847,278.52 73.769,278.568 C73.691,278.616 73.616,278.652 73.544,278.676 L73.544,278.676 L73.544,279 L76.388,279 L76.388,278.676 C76.28,278.676 76.196,278.643 76.136,278.577 C76.076,278.511 76.046,278.436 76.046,278.352 C76.046,278.256 76.073,278.136 76.127,277.992 C76.181,277.848 76.244,277.68 76.316,277.488 L76.316,277.488 L78.908,270.612 C78.992,270.396 79.067,270.216 79.133,270.072 C79.199,269.928 79.298,269.856 79.43,269.856 L79.43,269.856 L79.43,269.532 L76.766,269.532 L76.766,269.856 C76.85,269.856 76.922,269.889 76.982,269.955 C77.042,270.021 77.072,270.09 77.072,270.162 C77.072,270.306 77.03,270.468 76.946,270.648 L76.946,270.648 L75.002,275.832 L74.966,275.832 L73.04,270.756 C72.92,270.468 72.86,270.264 72.86,270.144 C72.86,270.072 72.878,270.006 72.914,269.946 C72.95,269.886 73.01,269.856 73.094,269.856 L73.094,269.856 L73.094,269.532 L70.016,269.532 L70.016,269.856 C70.172,269.856 70.25,269.97 70.25,270.198 C70.25,270.258 70.241,270.327 70.223,270.405 C70.205,270.483 70.166,270.6 70.106,270.756 L70.106,270.756 L68.198,275.832 L68.162,275.832 L66.236,270.828 C66.164,270.636 66.119,270.498 66.101,270.414 C66.083,270.33 66.074,270.258 66.074,270.198 C66.074,269.97 66.164,269.856 66.344,269.856 L66.344,269.856 L66.344,269.532 L63.554,269.532 L63.554,269.856 C63.674,269.88 63.761,269.937 63.815,270.027 C63.869,270.117 63.92,270.228 63.968,270.36 L63.968,270.36 L66.848,277.794 C66.896,277.914 66.941,278.028 66.983,278.136 C67.025,278.244 67.046,278.346 67.046,278.442 C67.046,278.526 67.01,278.586 66.938,278.622 C66.866,278.658 66.794,278.676 66.722,278.676 L66.722,278.676 L66.722,279 L69.512,279 Z M83.84,279 L83.84,278.676 C83.768,278.676 83.705,278.655 83.651,278.613 C83.597,278.571 83.57,278.502 83.57,278.406 L83.57,278.406 L83.57,275.688 L88.394,275.688 L88.394,278.406 C88.394,278.502 88.367,278.571 88.313,278.613 C88.259,278.655 88.196,278.676 88.124,278.676 L88.124,278.676 L88.124,279 L90.392,279 L90.392,278.676 C90.32,278.676 90.257,278.655 90.203,278.613 C90.149,278.571 90.122,278.502 90.122,278.406 L90.122,278.406 L90.122,271.674 C90.122,271.578 90.149,271.509 90.203,271.467 C90.257,271.425 90.32,271.404 90.392,271.404 L90.392,271.404 L90.392,271.08 L88.124,271.08 L88.124,271.404 C88.196,271.404 88.259,271.425 88.313,271.467 C88.367,271.509 88.394,271.578 88.394,271.674 L88.394,271.674 L88.394,274.212 L83.57,274.212 L83.57,271.674 C83.57,271.578 83.597,271.509 83.651,271.467 C83.705,271.425 83.768,271.404 83.84,271.404 L83.84,271.404 L83.84,271.08 L81.572,271.08 L81.572,271.404 C81.644,271.404 81.707,271.425 81.761,271.467 C81.815,271.509 81.842,271.578 81.842,271.674 L81.842,271.674 L81.842,278.406 C81.842,278.502 81.815,278.571 81.761,278.613 C81.707,278.655 81.644,278.676 81.572,278.676 L81.572,278.676 L81.572,279 L83.84,279 Z M94.676,279 L94.676,278.676 C94.568,278.676 94.484,278.664 94.424,278.64 C94.364,278.616 94.334,278.556 94.334,278.46 C94.334,278.4 94.349,278.331 94.379,278.253 C94.409,278.175 94.448,278.088 94.496,277.992 L94.496,277.992 L95,277.02 L98.852,277.02 L99.338,278.046 C99.374,278.142 99.404,278.22 99.428,278.28 C99.452,278.34 99.464,278.406 99.464,278.478 C99.464,278.574 99.431,278.64 99.365,278.676 C99.299,278.712 99.236,278.73 99.176,278.73 L99.176,278.73 L99.176,279 L101.732,279 L101.732,278.676 C101.648,278.652 101.57,278.616 101.498,278.568 C101.426,278.52 101.36,278.442 101.3,278.334 L101.3,278.334 L98.384,272.214 C98.324,272.082 98.267,271.965 98.213,271.863 C98.159,271.761 98.132,271.674 98.132,271.602 C98.132,271.518 98.153,271.47 98.195,271.458 C98.237,271.446 98.276,271.428 98.312,271.404 L98.312,271.404 L98.312,271.08 L95.594,271.08 L95.594,271.404 C95.63,271.428 95.663,271.449 95.693,271.467 C95.723,271.485 95.738,271.53 95.738,271.602 C95.738,271.698 95.717,271.797 95.675,271.899 C95.633,272.001 95.576,272.136 95.504,272.304 L95.504,272.304 L92.822,278.154 C92.774,278.25 92.705,278.355 92.615,278.469 C92.525,278.583 92.408,278.652 92.264,278.676 L92.264,278.676 L92.264,279 L94.676,279 Z M98.276,275.688 L95.54,275.688 L96.818,272.664 L98.276,275.688 Z M108.212,279 L108.212,278.676 C107.984,278.676 107.87,278.586 107.87,278.406 L107.87,278.406 L107.87,275.706 L110.624,272.142 C110.756,271.974 110.909,271.809 111.083,271.647 C111.257,271.485 111.416,271.404 111.56,271.404 L111.56,271.404 L111.56,271.08 L108.806,271.08 L108.806,271.404 C108.866,271.404 108.926,271.416 108.986,271.44 C109.046,271.464 109.076,271.524 109.076,271.62 C109.076,271.692 109.049,271.767 108.995,271.845 C108.941,271.923 108.86,272.04 108.752,272.196 L108.752,272.196 L107.15,274.428 L105.332,272.052 C105.272,271.968 105.218,271.896 105.17,271.836 C105.122,271.776 105.098,271.71 105.098,271.638 C105.098,271.566 105.134,271.509 105.206,271.467 C105.278,271.425 105.344,271.404 105.404,271.404 L105.404,271.404 L105.404,271.08 L102.434,271.08 L102.434,271.404 C102.542,271.404 102.656,271.428 102.776,271.476 C102.896,271.524 102.998,271.602 103.082,271.71 L103.082,271.71 L106.142,275.634 L106.142,278.406 C106.142,278.586 106.034,278.676 105.818,278.676 L105.818,278.676 L105.818,279 L108.212,279 Z M121.856,279 L121.856,278.676 C121.52,278.676 121.352,278.586 121.352,278.406 L121.352,278.406 L121.352,271.674 C121.352,271.494 121.52,271.404 121.856,271.404 L121.856,271.404 L121.856,271.08 L119.12,271.08 L119.12,271.404 C119.312,271.404 119.444,271.425 119.516,271.467 C119.588,271.509 119.624,271.578 119.624,271.674 L119.624,271.674 L119.624,278.406 C119.624,278.502 119.588,278.571 119.516,278.613 C119.444,278.655 119.312,278.676 119.12,278.676 L119.12,278.676 L119.12,279 L121.856,279 Z M129.182,279 L129.182,278.676 C128.966,278.676 128.858,278.586 128.858,278.406 L128.858,278.406 L128.858,272.412 L131.198,272.412 C131.294,272.412 131.384,272.436 131.468,272.484 C131.552,272.532 131.594,272.61 131.594,272.718 L131.594,272.718 L131.918,272.718 L131.918,270.648 L131.594,270.648 C131.594,270.816 131.552,270.93 131.468,270.99 C131.384,271.05 131.294,271.08 131.198,271.08 L131.198,271.08 L124.79,271.08 C124.694,271.08 124.604,271.05 124.52,270.99 C124.436,270.93 124.394,270.816 124.394,270.648 L124.394,270.648 L124.07,270.648 L124.07,272.718 L124.394,272.718 C124.394,272.61 124.436,272.532 124.52,272.484 C124.604,272.436 124.694,272.412 124.79,272.412 L124.79,272.412 L127.13,272.412 L127.13,278.406 C127.13,278.502 127.1,278.571 127.04,278.613 C126.98,278.655 126.92,278.676 126.86,278.676 L126.86,278.676 L126.86,279 L129.182,279 Z M136.346,279 L136.346,278.676 C136.274,278.676 136.211,278.655 136.157,278.613 C136.103,278.571 136.076,278.502 136.076,278.406 L136.076,278.406 L136.076,275.688 L140.9,275.688 L140.9,278.406 C140.9,278.502 140.873,278.571 140.819,278.613 C140.765,278.655 140.702,278.676 140.63,278.676 L140.63,278.676 L140.63,279 L142.898,279 L142.898,278.676 C142.826,278.676 142.763,278.655 142.709,278.613 C142.655,278.571 142.628,278.502 142.628,278.406 L142.628,278.406 L142.628,271.674 C142.628,271.578 142.655,271.509 142.709,271.467 C142.763,271.425 142.826,271.404 142.898,271.404 L142.898,271.404 L142.898,271.08 L140.63,271.08 L140.63,271.404 C140.702,271.404 140.765,271.425 140.819,271.467 C140.873,271.509 140.9,271.578 140.9,271.674 L140.9,271.674 L140.9,274.212 L136.076,274.212 L136.076,271.674 C136.076,271.578 136.103,271.509 136.157,271.467 C136.211,271.425 136.274,271.404 136.346,271.404 L136.346,271.404 L136.346,271.08 L134.078,271.08 L134.078,271.404 C134.15,271.404 134.213,271.425 134.267,271.467 C134.321,271.509 134.348,271.578 134.348,271.674 L134.348,271.674 L134.348,278.406 C134.348,278.502 134.321,278.571 134.267,278.613 C134.213,278.655 134.15,278.676 134.078,278.676 L134.078,278.676 L134.078,279 L136.346,279 Z M155.678,279 L155.678,278.676 C155.462,278.676 155.354,278.586 155.354,278.406 L155.354,278.406 L155.354,272.412 L157.694,272.412 C157.79,272.412 157.88,272.436 157.964,272.484 C158.048,272.532 158.09,272.61 158.09,272.718 L158.09,272.718 L158.414,272.718 L158.414,270.648 L158.09,270.648 C158.09,270.816 158.048,270.93 157.964,270.99 C157.88,271.05 157.79,271.08 157.694,271.08 L157.694,271.08 L151.286,271.08 C151.19,271.08 151.1,271.05 151.016,270.99 C150.932,270.93 150.89,270.816 150.89,270.648 L150.89,270.648 L150.566,270.648 L150.566,272.718 L150.89,272.718 C150.89,272.61 150.932,272.532 151.016,272.484 C151.1,272.436 151.19,272.412 151.286,272.412 L151.286,272.412 L153.626,272.412 L153.626,278.406 C153.626,278.502 153.596,278.571 153.536,278.613 C153.476,278.655 153.416,278.676 153.356,278.676 L153.356,278.676 L153.356,279 L155.678,279 Z M162.842,279 L162.842,278.676 C162.77,278.676 162.707,278.655 162.653,278.613 C162.599,278.571 162.572,278.502 162.572,278.406 L162.572,278.406 L162.572,275.688 L167.396,275.688 L167.396,278.406 C167.396,278.502 167.369,278.571 167.315,278.613 C167.261,278.655 167.198,278.676 167.126,278.676 L167.126,278.676 L167.126,279 L169.394,279 L169.394,278.676 C169.322,278.676 169.259,278.655 169.205,278.613 C169.151,278.571 169.124,278.502 169.124,278.406 L169.124,278.406 L169.124,271.674 C169.124,271.578 169.151,271.509 169.205,271.467 C169.259,271.425 169.322,271.404 169.394,271.404 L169.394,271.404 L169.394,271.08 L167.126,271.08 L167.126,271.404 C167.198,271.404 167.261,271.425 167.315,271.467 C167.369,271.509 167.396,271.578 167.396,271.674 L167.396,271.674 L167.396,274.212 L162.572,274.212 L162.572,271.674 C162.572,271.578 162.599,271.509 162.653,271.467 C162.707,271.425 162.77,271.404 162.842,271.404 L162.842,271.404 L162.842,271.08 L160.574,271.08 L160.574,271.404 C160.646,271.404 160.709,271.425 160.763,271.467 C160.817,271.509 160.844,271.578 160.844,271.674 L160.844,271.674 L160.844,278.406 C160.844,278.502 160.817,278.571 160.763,278.613 C160.709,278.655 160.646,278.676 160.574,278.676 L160.574,278.676 L160.574,279 L162.842,279 Z M175.352,279 L175.352,278.676 C175.016,278.676 174.848,278.586 174.848,278.406 L174.848,278.406 L174.848,271.674 C174.848,271.494 175.016,271.404 175.352,271.404 L175.352,271.404 L175.352,271.08 L172.616,271.08 L172.616,271.404 C172.808,271.404 172.94,271.425 173.012,271.467 C173.084,271.509 173.12,271.578 173.12,271.674 L173.12,271.674 L173.12,278.406 C173.12,278.502 173.084,278.571 173.012,278.613 C172.94,278.655 172.808,278.676 172.616,278.676 L172.616,278.676 L172.616,279 L175.352,279 Z M181.85,279.054 C182.258,279.054 182.693,279.024 183.155,278.964 C183.617,278.904 184.04,278.778 184.424,278.586 C184.808,278.394 185.129,278.13 185.387,277.794 C185.645,277.458 185.774,277.026 185.774,276.498 C185.774,275.97 185.627,275.556 185.333,275.256 C185.039,274.956 184.67,274.728 184.226,274.572 C183.782,274.416 183.302,274.305 182.786,274.239 C182.27,274.173 181.79,274.107 181.346,274.041 C180.902,273.975 180.533,273.885 180.239,273.771 C179.945,273.657 179.798,273.468 179.798,273.204 C179.798,273.036 179.846,272.895 179.942,272.781 C180.038,272.667 180.17,272.574 180.338,272.502 C180.506,272.43 180.698,272.379 180.914,272.349 C181.13,272.319 181.358,272.304 181.598,272.304 C182.222,272.304 182.786,272.376 183.29,272.52 C183.794,272.664 184.166,272.838 184.406,273.042 C184.502,273.114 184.556,273.186 184.568,273.258 L184.568,273.258 L184.604,273.474 L184.928,273.582 L185.828,271.89 L185.63,271.692 C185.558,271.728 185.498,271.761 185.45,271.791 C185.402,271.821 185.33,271.836 185.234,271.836 C185.15,271.836 185.021,271.791 184.847,271.701 C184.673,271.611 184.448,271.512 184.172,271.404 C183.896,271.296 183.557,271.197 183.155,271.107 C182.753,271.017 182.27,270.972 181.706,270.972 C180.554,270.972 179.66,271.2 179.024,271.656 C178.388,272.112 178.07,272.724 178.07,273.492 C178.07,274.008 178.217,274.407 178.511,274.689 C178.805,274.971 179.174,275.187 179.618,275.337 C180.062,275.487 180.542,275.595 181.058,275.661 C181.574,275.727 182.054,275.793 182.498,275.859 C182.942,275.925 183.311,276.018 183.605,276.138 C183.899,276.258 184.046,276.45 184.046,276.714 C184.046,276.942 183.962,277.125 183.794,277.263 C183.626,277.401 183.422,277.509 183.182,277.587 C182.942,277.665 182.699,277.716 182.453,277.74 C182.207,277.764 182,277.776 181.832,277.776 C181.652,277.776 181.403,277.746 181.085,277.686 C180.767,277.626 180.449,277.545 180.131,277.443 C179.813,277.341 179.54,277.215 179.312,277.065 C179.084,276.915 178.97,276.75 178.97,276.57 C178.97,276.51 178.973,276.453 178.979,276.399 C178.985,276.345 178.988,276.294 178.988,276.246 L178.988,276.246 L178.646,276.156 L177.818,278.172 L178.07,278.352 C178.13,278.28 178.202,278.244 178.286,278.244 C178.334,278.244 178.472,278.289 178.7,278.379 C178.928,278.469 179.207,278.565 179.537,278.667 C179.867,278.769 180.233,278.859 180.635,278.937 C181.037,279.015 181.442,279.054 181.85,279.054 Z M190.85,279 L190.85,278.676 C190.778,278.676 190.715,278.655 190.661,278.613 C190.607,278.571 190.58,278.502 190.58,278.406 L190.58,278.406 L190.58,275.688 L195.404,275.688 L195.404,278.406 C195.404,278.502 195.377,278.571 195.323,278.613 C195.269,278.655 195.206,278.676 195.134,278.676 L195.134,278.676 L195.134,279 L197.402,279 L197.402,278.676 C197.33,278.676 197.267,278.655 197.213,278.613 C197.159,278.571 197.132,278.502 197.132,278.406 L197.132,278.406 L197.132,271.674 C197.132,271.578 197.159,271.509 197.213,271.467 C197.267,271.425 197.33,271.404 197.402,271.404 L197.402,271.404 L197.402,271.08 L195.134,271.08 L195.134,271.404 C195.206,271.404 195.269,271.425 195.323,271.467 C195.377,271.509 195.404,271.578 195.404,271.674 L195.404,271.674 L195.404,274.212 L190.58,274.212 L190.58,271.674 C190.58,271.578 190.607,271.509 190.661,271.467 C190.715,271.425 190.778,271.404 190.85,271.404 L190.85,271.404 L190.85,271.08 L188.582,271.08 L188.582,271.404 C188.654,271.404 188.717,271.425 188.771,271.467 C188.825,271.509 188.852,271.578 188.852,271.674 L188.852,271.674 L188.852,278.406 C188.852,278.502 188.825,278.571 188.771,278.613 C188.717,278.655 188.654,278.676 188.582,278.676 L188.582,278.676 L188.582,279 L190.85,279 Z M89.834,297 L89.834,296.676 C89.762,296.676 89.699,296.655 89.645,296.613 C89.591,296.571 89.564,296.502 89.564,296.406 L89.564,296.406 L89.564,293.688 L94.388,293.688 L94.388,296.406 C94.388,296.502 94.361,296.571 94.307,296.613 C94.253,296.655 94.19,296.676 94.118,296.676 L94.118,296.676 L94.118,297 L96.386,297 L96.386,296.676 C96.314,296.676 96.251,296.655 96.197,296.613 C96.143,296.571 96.116,296.502 96.116,296.406 L96.116,296.406 L96.116,289.674 C96.116,289.578 96.143,289.509 96.197,289.467 C96.251,289.425 96.314,289.404 96.386,289.404 L96.386,289.404 L96.386,289.08 L94.118,289.08 L94.118,289.404 C94.19,289.404 94.253,289.425 94.307,289.467 C94.361,289.509 94.388,289.578 94.388,289.674 L94.388,289.674 L94.388,292.212 L89.564,292.212 L89.564,289.674 C89.564,289.578 89.591,289.509 89.645,289.467 C89.699,289.425 89.762,289.404 89.834,289.404 L89.834,289.404 L89.834,289.08 L87.566,289.08 L87.566,289.404 C87.638,289.404 87.701,289.425 87.755,289.467 C87.809,289.509 87.836,289.578 87.836,289.674 L87.836,289.674 L87.836,296.406 C87.836,296.502 87.809,296.571 87.755,296.613 C87.701,296.655 87.638,296.676 87.566,296.676 L87.566,296.676 L87.566,297 L89.834,297 Z M100.67,297 L100.67,296.676 C100.562,296.676 100.478,296.664 100.418,296.64 C100.358,296.616 100.328,296.556 100.328,296.46 C100.328,296.4 100.343,296.331 100.373,296.253 C100.403,296.175 100.442,296.088 100.49,295.992 L100.49,295.992 L100.994,295.02 L104.846,295.02 L105.332,296.046 C105.368,296.142 105.398,296.22 105.422,296.28 C105.446,296.34 105.458,296.406 105.458,296.478 C105.458,296.574 105.425,296.64 105.359,296.676 C105.293,296.712 105.23,296.73 105.17,296.73 L105.17,296.73 L105.17,297 L107.726,297 L107.726,296.676 C107.642,296.652 107.564,296.616 107.492,296.568 C107.42,296.52 107.354,296.442 107.294,296.334 L107.294,296.334 L104.378,290.214 C104.318,290.082 104.261,289.965 104.207,289.863 C104.153,289.761 104.126,289.674 104.126,289.602 C104.126,289.518 104.147,289.47 104.189,289.458 C104.231,289.446 104.27,289.428 104.306,289.404 L104.306,289.404 L104.306,289.08 L101.588,289.08 L101.588,289.404 C101.624,289.428 101.657,289.449 101.687,289.467 C101.717,289.485 101.732,289.53 101.732,289.602 C101.732,289.698 101.711,289.797 101.669,289.899 C101.627,290.001 101.57,290.136 101.498,290.304 L101.498,290.304 L98.816,296.154 C98.768,296.25 98.699,296.355 98.609,296.469 C98.519,296.583 98.402,296.652 98.258,296.676 L98.258,296.676 L98.258,297 L100.67,297 Z M104.27,293.688 L101.534,293.688 L102.812,290.664 L104.27,293.688 Z M111.758,297 L111.758,296.676 C111.506,296.676 111.38,296.586 111.38,296.406 L111.38,296.406 L111.38,293.706 L114.44,293.706 C115.412,293.706 116.141,293.541 116.627,293.211 C117.113,292.881 117.356,292.284 117.356,291.42 C117.356,290.556 117.113,289.95 116.627,289.602 C116.141,289.254 115.412,289.08 114.44,289.08 L114.44,289.08 L109.202,289.08 L109.202,289.404 C109.502,289.404 109.652,289.494 109.652,289.674 L109.652,289.674 L109.652,296.406 C109.652,296.586 109.502,296.676 109.202,296.676 L109.202,296.676 L109.202,297 L111.758,297 Z M114.404,292.374 L111.38,292.374 L111.38,290.412 L114.404,290.412 C114.752,290.412 115.043,290.487 115.277,290.637 C115.511,290.787 115.628,291.048 115.628,291.42 C115.628,291.804 115.511,292.059 115.277,292.185 C115.043,292.311 114.752,292.374 114.404,292.374 L114.404,292.374 Z M121.766,297 L121.766,296.676 C121.514,296.676 121.388,296.586 121.388,296.406 L121.388,296.406 L121.388,293.706 L124.448,293.706 C125.42,293.706 126.149,293.541 126.635,293.211 C127.121,292.881 127.364,292.284 127.364,291.42 C127.364,290.556 127.121,289.95 126.635,289.602 C126.149,289.254 125.42,289.08 124.448,289.08 L124.448,289.08 L119.21,289.08 L119.21,289.404 C119.51,289.404 119.66,289.494 119.66,289.674 L119.66,289.674 L119.66,296.406 C119.66,296.586 119.51,296.676 119.21,296.676 L119.21,296.676 L119.21,297 L121.766,297 Z M124.412,292.374 L121.388,292.374 L121.388,290.412 L124.412,290.412 C124.76,290.412 125.051,290.487 125.285,290.637 C125.519,290.787 125.636,291.048 125.636,291.42 C125.636,291.804 125.519,292.059 125.285,292.185 C125.051,292.311 124.76,292.374 124.412,292.374 L124.412,292.374 Z M136.922,297.198 L136.922,295.308 L136.598,295.308 C136.598,295.416 136.55,295.503 136.454,295.569 C136.358,295.635 136.238,295.668 136.094,295.668 L136.094,295.668 L131.486,295.668 L131.486,293.544 L134.114,293.544 C134.354,293.544 134.54,293.559 134.672,293.589 C134.804,293.619 134.852,293.7 134.816,293.832 L134.816,293.832 L135.176,293.832 L135.176,291.924 L134.852,291.924 C134.852,292.056 134.804,292.137 134.708,292.167 C134.612,292.197 134.462,292.212 134.258,292.212 L134.258,292.212 L131.486,292.212 L131.486,290.412 L135.878,290.412 C136.25,290.412 136.436,290.526 136.436,290.754 L136.436,290.754 L136.76,290.754 L136.76,288.756 L136.436,288.756 C136.436,288.972 136.25,289.08 135.878,289.08 L135.878,289.08 L129.488,289.08 L129.488,289.404 C129.548,289.404 129.608,289.425 129.668,289.467 C129.728,289.509 129.758,289.578 129.758,289.674 L129.758,289.674 L129.758,296.406 C129.758,296.502 129.728,296.571 129.668,296.613 C129.608,296.655 129.548,296.676 129.488,296.676 L129.488,296.676 L129.488,297 L136.094,297 C136.238,297 136.358,297.006 136.454,297.018 C136.55,297.03 136.598,297.09 136.598,297.198 L136.598,297.198 L136.922,297.198 Z M141.692,297 L141.692,296.676 C141.44,296.676 141.314,296.586 141.314,296.406 L141.314,296.406 L141.314,291.168 L145.778,295.92 C145.922,296.076 146.051,296.214 146.165,296.334 C146.279,296.454 146.336,296.538 146.336,296.586 C146.336,296.646 146.294,296.676 146.21,296.676 L146.21,296.676 L146.21,297 L148.55,297 L148.55,296.676 C148.334,296.676 148.226,296.586 148.226,296.406 L148.226,296.406 L148.226,289.674 C148.226,289.494 148.334,289.404 148.55,289.404 L148.55,289.404 L148.55,289.08 L146.354,289.08 L146.354,289.404 C146.594,289.404 146.714,289.494 146.714,289.674 L146.714,289.674 L146.714,294.552 L142.394,289.98 C142.13,289.716 141.998,289.554 141.998,289.494 C141.998,289.446 142.04,289.416 142.124,289.404 L142.124,289.404 L142.124,289.08 L139.478,289.08 L139.478,289.404 C139.694,289.404 139.802,289.494 139.802,289.674 L139.802,289.674 L139.802,296.406 C139.802,296.586 139.694,296.676 139.478,296.676 L139.478,296.676 L139.478,297 L141.692,297 Z M154.382,297 L154.382,296.676 C154.046,296.676 153.878,296.586 153.878,296.406 L153.878,296.406 L153.878,289.674 C153.878,289.494 154.046,289.404 154.382,289.404 L154.382,289.404 L154.382,289.08 L151.646,289.08 L151.646,289.404 C151.838,289.404 151.97,289.425 152.042,289.467 C152.114,289.509 152.15,289.578 152.15,289.674 L152.15,289.674 L152.15,296.406 C152.15,296.502 152.114,296.571 152.042,296.613 C151.97,296.655 151.838,296.676 151.646,296.676 L151.646,296.676 L151.646,297 L154.382,297 Z M159.692,297 L159.692,296.676 C159.44,296.676 159.314,296.586 159.314,296.406 L159.314,296.406 L159.314,291.168 L163.778,295.92 C163.922,296.076 164.051,296.214 164.165,296.334 C164.279,296.454 164.336,296.538 164.336,296.586 C164.336,296.646 164.294,296.676 164.21,296.676 L164.21,296.676 L164.21,297 L166.55,297 L166.55,296.676 C166.334,296.676 166.226,296.586 166.226,296.406 L166.226,296.406 L166.226,289.674 C166.226,289.494 166.334,289.404 166.55,289.404 L166.55,289.404 L166.55,289.08 L164.354,289.08 L164.354,289.404 C164.594,289.404 164.714,289.494 164.714,289.674 L164.714,289.674 L164.714,294.552 L160.394,289.98 C160.13,289.716 159.998,289.554 159.998,289.494 C159.998,289.446 160.04,289.416 160.124,289.404 L160.124,289.404 L160.124,289.08 L157.478,289.08 L157.478,289.404 C157.694,289.404 157.802,289.494 157.802,289.674 L157.802,289.674 L157.802,296.406 C157.802,296.586 157.694,296.676 157.478,296.676 L157.478,296.676 L157.478,297 L159.692,297 Z M173.21,293.724 L173.21,293.508 C173.102,293.508 173.024,293.463 172.976,293.373 C172.928,293.283 172.904,293.172 172.904,293.04 C172.904,292.764 173.012,292.506 173.228,292.266 C173.444,292.026 173.678,291.768 173.93,291.492 C174.194,291.216 174.431,290.913 174.641,290.583 C174.851,290.253 174.956,289.866 174.956,289.422 C174.956,289.062 174.881,288.741 174.731,288.459 C174.581,288.177 174.38,287.943 174.128,287.757 C173.876,287.571 173.591,287.427 173.273,287.325 C172.955,287.223 172.634,287.172 172.31,287.172 C171.806,287.172 171.398,287.232 171.086,287.352 C170.774,287.472 170.516,287.601 170.312,287.739 C170.108,287.877 169.943,288.006 169.817,288.126 C169.691,288.246 169.568,288.306 169.448,288.306 C169.436,288.306 169.37,288.294 169.25,288.27 L169.25,288.27 L169.088,288.432 L170.474,289.944 L170.636,289.818 C170.6,289.71 170.582,289.602 170.582,289.494 C170.582,289.422 170.615,289.329 170.681,289.215 C170.747,289.101 170.843,288.996 170.969,288.9 C171.095,288.804 171.251,288.72 171.437,288.648 C171.623,288.576 171.83,288.54 172.058,288.54 C172.37,288.54 172.631,288.633 172.841,288.819 C173.051,289.005 173.156,289.26 173.156,289.584 C173.156,289.86 173.078,290.103 172.922,290.313 C172.766,290.523 172.586,290.748 172.382,290.988 C172.19,291.216 172.007,291.48 171.833,291.78 C171.659,292.08 171.548,292.482 171.5,292.986 C171.476,293.19 171.437,293.328 171.383,293.4 C171.329,293.472 171.266,293.508 171.194,293.508 L171.194,293.508 L171.194,293.724 L173.21,293.724 Z M172.184,297.054 C172.496,297.054 172.766,296.949 172.994,296.739 C173.222,296.529 173.336,296.268 173.336,295.956 C173.336,295.644 173.222,295.374 172.994,295.146 C172.766,294.918 172.496,294.804 172.184,294.804 C171.872,294.804 171.602,294.918 171.374,295.146 C171.146,295.374 171.032,295.644 171.032,295.956 C171.032,296.268 171.146,296.529 171.374,296.739 C171.602,296.949 171.872,297.054 172.184,297.054 Z M58.19,315 L58.19,314.676 C57.962,314.676 57.848,314.61 57.848,314.478 C57.848,314.37 57.908,314.19 58.028,313.938 L58.028,313.938 L58.676,312.66 L63.068,312.66 L63.752,313.992 C63.848,314.184 63.896,314.34 63.896,314.46 C63.896,314.532 63.86,314.586 63.788,314.622 C63.716,314.658 63.656,314.676 63.608,314.676 L63.608,314.676 L63.608,315 L66.776,315 L66.776,314.676 C66.644,314.616 66.527,314.556 66.425,314.496 C66.323,314.436 66.242,314.34 66.182,314.208 L66.182,314.208 L62.438,306.882 C62.354,306.726 62.291,306.6 62.249,306.504 C62.207,306.408 62.186,306.312 62.186,306.216 C62.186,306.084 62.228,305.997 62.312,305.955 C62.396,305.913 62.48,305.88 62.564,305.856 L62.564,305.856 L62.564,305.532 L59.522,305.532 L59.522,305.856 C59.618,305.88 59.708,305.916 59.792,305.964 C59.876,306.012 59.918,306.096 59.918,306.216 C59.918,306.312 59.885,306.426 59.819,306.558 C59.753,306.69 59.678,306.834 59.594,306.99 L59.594,306.99 L56.264,313.992 C56.18,314.16 56.093,314.31 56.003,314.442 C55.913,314.574 55.79,314.652 55.634,314.676 L55.634,314.676 L55.634,315 L58.19,315 Z M62.42,311.328 L59.216,311.328 L60.908,307.98 L62.42,311.328 Z M73.544,315 C74.252,315 74.852,314.886 75.344,314.658 C75.836,314.43 76.238,314.133 76.55,313.767 C76.862,313.401 77.09,312.981 77.234,312.507 C77.378,312.033 77.45,311.544 77.45,311.04 C77.45,310.536 77.375,310.047 77.225,309.573 C77.075,309.099 76.841,308.679 76.523,308.313 C76.205,307.947 75.794,307.65 75.29,307.422 C74.786,307.194 74.18,307.08 73.472,307.08 L73.472,307.08 L68.468,307.08 L68.468,307.404 C68.744,307.404 68.882,307.494 68.882,307.674 L68.882,307.674 L68.882,314.406 C68.882,314.586 68.744,314.676 68.468,314.676 L68.468,314.676 L68.468,315 L73.544,315 Z M72.95,313.668 L70.61,313.668 L70.61,308.412 L72.95,308.412 C73.322,308.412 73.676,308.433 74.012,308.475 C74.348,308.517 74.642,308.625 74.894,308.799 C75.146,308.973 75.347,309.231 75.497,309.573 C75.647,309.915 75.722,310.386 75.722,310.986 C75.722,311.586 75.647,312.063 75.497,312.417 C75.347,312.771 75.146,313.041 74.894,313.227 C74.642,313.413 74.348,313.533 74.012,313.587 C73.676,313.641 73.322,313.668 72.95,313.668 L72.95,313.668 Z M84.542,315 C85.25,315 85.85,314.886 86.342,314.658 C86.834,314.43 87.236,314.133 87.548,313.767 C87.86,313.401 88.088,312.981 88.232,312.507 C88.376,312.033 88.448,311.544 88.448,311.04 C88.448,310.536 88.373,310.047 88.223,309.573 C88.073,309.099 87.839,308.679 87.521,308.313 C87.203,307.947 86.792,307.65 86.288,307.422 C85.784,307.194 85.178,307.08 84.47,307.08 L84.47,307.08 L79.466,307.08 L79.466,307.404 C79.742,307.404 79.88,307.494 79.88,307.674 L79.88,307.674 L79.88,314.406 C79.88,314.586 79.742,314.676 79.466,314.676 L79.466,314.676 L79.466,315 L84.542,315 Z M83.948,313.668 L81.608,313.668 L81.608,308.412 L83.948,308.412 C84.32,308.412 84.674,308.433 85.01,308.475 C85.346,308.517 85.64,308.625 85.892,308.799 C86.144,308.973 86.345,309.231 86.495,309.573 C86.645,309.915 86.72,310.386 86.72,310.986 C86.72,311.586 86.645,312.063 86.495,312.417 C86.345,312.771 86.144,313.041 85.892,313.227 C85.64,313.413 85.346,313.533 85.01,313.587 C84.674,313.641 84.32,313.668 83.948,313.668 L83.948,313.668 Z M100.436,315 L100.436,314.676 C100.22,314.676 100.112,314.586 100.112,314.406 L100.112,314.406 L100.112,308.412 L102.452,308.412 C102.548,308.412 102.638,308.436 102.722,308.484 C102.806,308.532 102.848,308.61 102.848,308.718 L102.848,308.718 L103.172,308.718 L103.172,306.648 L102.848,306.648 C102.848,306.816 102.806,306.93 102.722,306.99 C102.638,307.05 102.548,307.08 102.452,307.08 L102.452,307.08 L96.044,307.08 C95.948,307.08 95.858,307.05 95.774,306.99 C95.69,306.93 95.648,306.816 95.648,306.648 L95.648,306.648 L95.324,306.648 L95.324,308.718 L95.648,308.718 C95.648,308.61 95.69,308.532 95.774,308.484 C95.858,308.436 95.948,308.412 96.044,308.412 L96.044,308.412 L98.384,308.412 L98.384,314.406 C98.384,314.502 98.354,314.571 98.294,314.613 C98.234,314.655 98.174,314.676 98.114,314.676 L98.114,314.676 L98.114,315 L100.436,315 Z M107.6,315 L107.6,314.676 C107.528,314.676 107.465,314.655 107.411,314.613 C107.357,314.571 107.33,314.502 107.33,314.406 L107.33,314.406 L107.33,311.688 L112.154,311.688 L112.154,314.406 C112.154,314.502 112.127,314.571 112.073,314.613 C112.019,314.655 111.956,314.676 111.884,314.676 L111.884,314.676 L111.884,315 L114.152,315 L114.152,314.676 C114.08,314.676 114.017,314.655 113.963,314.613 C113.909,314.571 113.882,314.502 113.882,314.406 L113.882,314.406 L113.882,307.674 C113.882,307.578 113.909,307.509 113.963,307.467 C114.017,307.425 114.08,307.404 114.152,307.404 L114.152,307.404 L114.152,307.08 L111.884,307.08 L111.884,307.404 C111.956,307.404 112.019,307.425 112.073,307.467 C112.127,307.509 112.154,307.578 112.154,307.674 L112.154,307.674 L112.154,310.212 L107.33,310.212 L107.33,307.674 C107.33,307.578 107.357,307.509 107.411,307.467 C107.465,307.425 107.528,307.404 107.6,307.404 L107.6,307.404 L107.6,307.08 L105.332,307.08 L105.332,307.404 C105.404,307.404 105.467,307.425 105.521,307.467 C105.575,307.509 105.602,307.578 105.602,307.674 L105.602,307.674 L105.602,314.406 C105.602,314.502 105.575,314.571 105.521,314.613 C105.467,314.655 105.404,314.676 105.332,314.676 L105.332,314.676 L105.332,315 L107.6,315 Z M120.11,315 L120.11,314.676 C119.774,314.676 119.606,314.586 119.606,314.406 L119.606,314.406 L119.606,307.674 C119.606,307.494 119.774,307.404 120.11,307.404 L120.11,307.404 L120.11,307.08 L117.374,307.08 L117.374,307.404 C117.566,307.404 117.698,307.425 117.77,307.467 C117.842,307.509 117.878,307.578 117.878,307.674 L117.878,307.674 L117.878,314.406 C117.878,314.502 117.842,314.571 117.77,314.613 C117.698,314.655 117.566,314.676 117.374,314.676 L117.374,314.676 L117.374,315 L120.11,315 Z M126.608,315.054 C127.016,315.054 127.451,315.024 127.913,314.964 C128.375,314.904 128.798,314.778 129.182,314.586 C129.566,314.394 129.887,314.13 130.145,313.794 C130.403,313.458 130.532,313.026 130.532,312.498 C130.532,311.97 130.385,311.556 130.091,311.256 C129.797,310.956 129.428,310.728 128.984,310.572 C128.54,310.416 128.06,310.305 127.544,310.239 C127.028,310.173 126.548,310.107 126.104,310.041 C125.66,309.975 125.291,309.885 124.997,309.771 C124.703,309.657 124.556,309.468 124.556,309.204 C124.556,309.036 124.604,308.895 124.7,308.781 C124.796,308.667 124.928,308.574 125.096,308.502 C125.264,308.43 125.456,308.379 125.672,308.349 C125.888,308.319 126.116,308.304 126.356,308.304 C126.98,308.304 127.544,308.376 128.048,308.52 C128.552,308.664 128.924,308.838 129.164,309.042 C129.26,309.114 129.314,309.186 129.326,309.258 L129.326,309.258 L129.362,309.474 L129.686,309.582 L130.586,307.89 L130.388,307.692 C130.316,307.728 130.256,307.761 130.208,307.791 C130.16,307.821 130.088,307.836 129.992,307.836 C129.908,307.836 129.779,307.791 129.605,307.701 C129.431,307.611 129.206,307.512 128.93,307.404 C128.654,307.296 128.315,307.197 127.913,307.107 C127.511,307.017 127.028,306.972 126.464,306.972 C125.312,306.972 124.418,307.2 123.782,307.656 C123.146,308.112 122.828,308.724 122.828,309.492 C122.828,310.008 122.975,310.407 123.269,310.689 C123.563,310.971 123.932,311.187 124.376,311.337 C124.82,311.487 125.3,311.595 125.816,311.661 C126.332,311.727 126.812,311.793 127.256,311.859 C127.7,311.925 128.069,312.018 128.363,312.138 C128.657,312.258 128.804,312.45 128.804,312.714 C128.804,312.942 128.72,313.125 128.552,313.263 C128.384,313.401 128.18,313.509 127.94,313.587 C127.7,313.665 127.457,313.716 127.211,313.74 C126.965,313.764 126.758,313.776 126.59,313.776 C126.41,313.776 126.161,313.746 125.843,313.686 C125.525,313.626 125.207,313.545 124.889,313.443 C124.571,313.341 124.298,313.215 124.07,313.065 C123.842,312.915 123.728,312.75 123.728,312.57 C123.728,312.51 123.731,312.453 123.737,312.399 C123.743,312.345 123.746,312.294 123.746,312.246 L123.746,312.246 L123.404,312.156 L122.576,314.172 L122.828,314.352 C122.888,314.28 122.96,314.244 123.044,314.244 C123.092,314.244 123.23,314.289 123.458,314.379 C123.686,314.469 123.965,314.565 124.295,314.667 C124.625,314.769 124.991,314.859 125.393,314.937 C125.795,315.015 126.2,315.054 126.608,315.054 Z M142.934,315 L142.934,314.676 C142.718,314.676 142.61,314.586 142.61,314.406 L142.61,314.406 L142.61,308.412 L144.95,308.412 C145.046,308.412 145.136,308.436 145.22,308.484 C145.304,308.532 145.346,308.61 145.346,308.718 L145.346,308.718 L145.67,308.718 L145.67,306.648 L145.346,306.648 C145.346,306.816 145.304,306.93 145.22,306.99 C145.136,307.05 145.046,307.08 144.95,307.08 L144.95,307.08 L138.542,307.08 C138.446,307.08 138.356,307.05 138.272,306.99 C138.188,306.93 138.146,306.816 138.146,306.648 L138.146,306.648 L137.822,306.648 L137.822,308.718 L138.146,308.718 C138.146,308.61 138.188,308.532 138.272,308.484 C138.356,308.436 138.446,308.412 138.542,308.412 L138.542,308.412 L140.882,308.412 L140.882,314.406 C140.882,314.502 140.852,314.571 140.792,314.613 C140.732,314.655 140.672,314.676 140.612,314.676 L140.612,314.676 L140.612,315 L142.934,315 Z M151.736,315.054 C152.396,315.054 153.017,314.979 153.599,314.829 C154.181,314.679 154.688,314.436 155.12,314.1 C155.552,313.764 155.894,313.341 156.146,312.831 C156.398,312.321 156.524,311.724 156.524,311.04 C156.524,310.356 156.398,309.759 156.146,309.249 C155.894,308.739 155.552,308.316 155.12,307.98 C154.688,307.644 154.181,307.392 153.599,307.224 C153.017,307.056 152.396,306.972 151.736,306.972 C151.076,306.972 150.455,307.056 149.873,307.224 C149.291,307.392 148.784,307.644 148.352,307.98 C147.92,308.316 147.578,308.739 147.326,309.249 C147.074,309.759 146.948,310.356 146.948,311.04 C146.948,311.724 147.074,312.321 147.326,312.831 C147.578,313.341 147.92,313.764 148.352,314.1 C148.784,314.436 149.291,314.679 149.873,314.829 C150.455,314.979 151.076,315.054 151.736,315.054 Z M151.736,313.776 C151.352,313.776 150.977,313.713 150.611,313.587 C150.245,313.461 149.918,313.281 149.63,313.047 C149.342,312.813 149.111,312.528 148.937,312.192 C148.763,311.856 148.676,311.472 148.676,311.04 C148.676,310.608 148.763,310.224 148.937,309.888 C149.111,309.552 149.342,309.267 149.63,309.033 C149.918,308.799 150.245,308.619 150.611,308.493 C150.977,308.367 151.352,308.304 151.736,308.304 C152.12,308.304 152.495,308.367 152.861,308.493 C153.227,308.619 153.554,308.799 153.842,309.033 C154.13,309.267 154.361,309.552 154.535,309.888 C154.709,310.224 154.796,310.608 154.796,311.04 C154.796,311.472 154.709,311.856 154.535,312.192 C154.361,312.528 154.13,312.813 153.842,313.047 C153.554,313.281 153.227,313.461 152.861,313.587 C152.495,313.713 152.12,313.776 151.736,313.776 Z M168.944,315 L168.944,314.676 C168.716,314.676 168.602,314.586 168.602,314.406 L168.602,314.406 L168.602,311.706 L171.356,308.142 C171.488,307.974 171.641,307.809 171.815,307.647 C171.989,307.485 172.148,307.404 172.292,307.404 L172.292,307.404 L172.292,307.08 L169.538,307.08 L169.538,307.404 C169.598,307.404 169.658,307.416 169.718,307.44 C169.778,307.464 169.808,307.524 169.808,307.62 C169.808,307.692 169.781,307.767 169.727,307.845 C169.673,307.923 169.592,308.04 169.484,308.196 L169.484,308.196 L167.882,310.428 L166.064,308.052 C166.004,307.968 165.95,307.896 165.902,307.836 C165.854,307.776 165.83,307.71 165.83,307.638 C165.83,307.566 165.866,307.509 165.938,307.467 C166.01,307.425 166.076,307.404 166.136,307.404 L166.136,307.404 L166.136,307.08 L163.166,307.08 L163.166,307.404 C163.274,307.404 163.388,307.428 163.508,307.476 C163.628,307.524 163.73,307.602 163.814,307.71 L163.814,307.71 L166.874,311.634 L166.874,314.406 C166.874,314.586 166.766,314.676 166.55,314.676 L166.55,314.676 L166.55,315 L168.944,315 Z M178.232,315.054 C178.892,315.054 179.513,314.979 180.095,314.829 C180.677,314.679 181.184,314.436 181.616,314.1 C182.048,313.764 182.39,313.341 182.642,312.831 C182.894,312.321 183.02,311.724 183.02,311.04 C183.02,310.356 182.894,309.759 182.642,309.249 C182.39,308.739 182.048,308.316 181.616,307.98 C181.184,307.644 180.677,307.392 180.095,307.224 C179.513,307.056 178.892,306.972 178.232,306.972 C177.572,306.972 176.951,307.056 176.369,307.224 C175.787,307.392 175.28,307.644 174.848,307.98 C174.416,308.316 174.074,308.739 173.822,309.249 C173.57,309.759 173.444,310.356 173.444,311.04 C173.444,311.724 173.57,312.321 173.822,312.831 C174.074,313.341 174.416,313.764 174.848,314.1 C175.28,314.436 175.787,314.679 176.369,314.829 C176.951,314.979 177.572,315.054 178.232,315.054 Z M178.232,313.776 C177.848,313.776 177.473,313.713 177.107,313.587 C176.741,313.461 176.414,313.281 176.126,313.047 C175.838,312.813 175.607,312.528 175.433,312.192 C175.259,311.856 175.172,311.472 175.172,311.04 C175.172,310.608 175.259,310.224 175.433,309.888 C175.607,309.552 175.838,309.267 176.126,309.033 C176.414,308.799 176.741,308.619 177.107,308.493 C177.473,308.367 177.848,308.304 178.232,308.304 C178.616,308.304 178.991,308.367 179.357,308.493 C179.723,308.619 180.05,308.799 180.338,309.033 C180.626,309.267 180.857,309.552 181.031,309.888 C181.205,310.224 181.292,310.608 181.292,311.04 C181.292,311.472 181.205,311.856 181.031,312.192 C180.857,312.528 180.626,312.813 180.338,313.047 C180.05,313.281 179.723,313.461 179.357,313.587 C178.991,313.713 178.616,313.776 178.232,313.776 Z M189.806,315.054 C190.526,315.054 191.153,314.979 191.687,314.829 C192.221,314.679 192.659,314.472 193.001,314.208 C193.343,313.944 193.598,313.641 193.766,313.299 C193.934,312.957 194.018,312.6 194.018,312.228 L194.018,312.228 L194.018,307.674 C194.018,307.494 194.15,307.404 194.414,307.404 L194.414,307.404 L194.414,307.08 L191.912,307.08 L191.912,307.404 C192.212,307.404 192.362,307.494 192.362,307.674 L192.362,307.674 L192.362,311.796 C192.362,312.372 192.152,312.834 191.732,313.182 C191.312,313.53 190.67,313.704 189.806,313.704 C188.942,313.704 188.3,313.53 187.88,313.182 C187.46,312.834 187.25,312.372 187.25,311.796 L187.25,311.796 L187.25,307.674 C187.25,307.494 187.382,307.404 187.646,307.404 L187.646,307.404 L187.646,307.08 L185.072,307.08 L185.072,307.404 C185.276,307.404 185.414,307.425 185.486,307.467 C185.558,307.509 185.594,307.578 185.594,307.674 L185.594,307.674 L185.594,312.228 C185.594,312.6 185.678,312.957 185.846,313.299 C186.014,313.641 186.269,313.944 186.611,314.208 C186.953,314.472 187.391,314.679 187.925,314.829 C188.459,314.979 189.086,315.054 189.806,315.054 Z M199.544,315 L199.544,314.676 C199.472,314.676 199.397,314.655 199.319,314.613 C199.241,314.571 199.202,314.502 199.202,314.406 L199.202,314.406 L199.202,311.832 L201.704,311.832 L203.126,313.956 C203.306,314.208 203.396,314.394 203.396,314.514 C203.396,314.622 203.318,314.676 203.162,314.676 L203.162,314.676 L203.162,315 L205.916,315 L205.916,314.676 C205.784,314.64 205.661,314.589 205.547,314.523 C205.433,314.457 205.328,314.358 205.232,314.226 L205.232,314.226 L203.468,311.652 C203.72,311.592 203.966,311.505 204.206,311.391 C204.446,311.277 204.665,311.127 204.863,310.941 C205.061,310.755 205.22,310.536 205.34,310.284 C205.46,310.032 205.52,309.744 205.52,309.42 C205.52,308.568 205.22,307.965 204.62,307.611 C204.02,307.257 203.186,307.08 202.118,307.08 L202.118,307.08 L197.15,307.08 L197.15,307.404 C197.366,307.404 197.474,307.494 197.474,307.674 L197.474,307.674 L197.474,314.406 C197.474,314.586 197.366,314.676 197.15,314.676 L197.15,314.676 L197.15,315 L199.544,315 Z M202.082,310.5 L199.238,310.5 L199.238,308.412 L202.082,308.412 C202.694,308.412 203.141,308.499 203.423,308.673 C203.705,308.847 203.846,309.084 203.846,309.384 C203.846,310.128 203.258,310.5 202.082,310.5 L202.082,310.5 Z M74.354,333.054 C74.762,333.054 75.197,333.024 75.659,332.964 C76.121,332.904 76.544,332.778 76.928,332.586 C77.312,332.394 77.633,332.13 77.891,331.794 C78.149,331.458 78.278,331.026 78.278,330.498 C78.278,329.97 78.131,329.556 77.837,329.256 C77.543,328.956 77.174,328.728 76.73,328.572 C76.286,328.416 75.806,328.305 75.29,328.239 C74.774,328.173 74.294,328.107 73.85,328.041 C73.406,327.975 73.037,327.885 72.743,327.771 C72.449,327.657 72.302,327.468 72.302,327.204 C72.302,327.036 72.35,326.895 72.446,326.781 C72.542,326.667 72.674,326.574 72.842,326.502 C73.01,326.43 73.202,326.379 73.418,326.349 C73.634,326.319 73.862,326.304 74.102,326.304 C74.726,326.304 75.29,326.376 75.794,326.52 C76.298,326.664 76.67,326.838 76.91,327.042 C77.006,327.114 77.06,327.186 77.072,327.258 L77.072,327.258 L77.108,327.474 L77.432,327.582 L78.332,325.89 L78.134,325.692 C78.062,325.728 78.002,325.761 77.954,325.791 C77.906,325.821 77.834,325.836 77.738,325.836 C77.654,325.836 77.525,325.791 77.351,325.701 C77.177,325.611 76.952,325.512 76.676,325.404 C76.4,325.296 76.061,325.197 75.659,325.107 C75.257,325.017 74.774,324.972 74.21,324.972 C73.058,324.972 72.164,325.2 71.528,325.656 C70.892,326.112 70.574,326.724 70.574,327.492 C70.574,328.008 70.721,328.407 71.015,328.689 C71.309,328.971 71.678,329.187 72.122,329.337 C72.566,329.487 73.046,329.595 73.562,329.661 C74.078,329.727 74.558,329.793 75.002,329.859 C75.446,329.925 75.815,330.018 76.109,330.138 C76.403,330.258 76.55,330.45 76.55,330.714 C76.55,330.942 76.466,331.125 76.298,331.263 C76.13,331.401 75.926,331.509 75.686,331.587 C75.446,331.665 75.203,331.716 74.957,331.74 C74.711,331.764 74.504,331.776 74.336,331.776 C74.156,331.776 73.907,331.746 73.589,331.686 C73.271,331.626 72.953,331.545 72.635,331.443 C72.317,331.341 72.044,331.215 71.816,331.065 C71.588,330.915 71.474,330.75 71.474,330.57 C71.474,330.51 71.477,330.453 71.483,330.399 C71.489,330.345 71.492,330.294 71.492,330.246 L71.492,330.246 L71.15,330.156 L70.322,332.172 L70.574,332.352 C70.634,332.28 70.706,332.244 70.79,332.244 C70.838,332.244 70.976,332.289 71.204,332.379 C71.432,332.469 71.711,332.565 72.041,332.667 C72.371,332.769 72.737,332.859 73.139,332.937 C73.541,333.015 73.946,333.054 74.354,333.054 Z M85.712,333 L85.712,332.676 C85.484,332.676 85.37,332.586 85.37,332.406 L85.37,332.406 L85.37,329.706 L88.124,326.142 C88.256,325.974 88.409,325.809 88.583,325.647 C88.757,325.485 88.916,325.404 89.06,325.404 L89.06,325.404 L89.06,325.08 L86.306,325.08 L86.306,325.404 C86.366,325.404 86.426,325.416 86.486,325.44 C86.546,325.464 86.576,325.524 86.576,325.62 C86.576,325.692 86.549,325.767 86.495,325.845 C86.441,325.923 86.36,326.04 86.252,326.196 L86.252,326.196 L84.65,328.428 L82.832,326.052 C82.772,325.968 82.718,325.896 82.67,325.836 C82.622,325.776 82.598,325.71 82.598,325.638 C82.598,325.566 82.634,325.509 82.706,325.467 C82.778,325.425 82.844,325.404 82.904,325.404 L82.904,325.404 L82.904,325.08 L79.934,325.08 L79.934,325.404 C80.042,325.404 80.156,325.428 80.276,325.476 C80.396,325.524 80.498,325.602 80.582,325.71 L80.582,325.71 L83.642,329.634 L83.642,332.406 C83.642,332.586 83.534,332.676 83.318,332.676 L83.318,332.676 L83.318,333 L85.712,333 Z M93.218,333 L93.218,332.676 C93.014,332.676 92.912,332.586 92.912,332.406 L92.912,332.406 L92.912,327.348 L92.93,327.348 L95.828,333 L95.972,333 L99.032,327.348 L99.068,327.348 L99.068,332.406 C99.104,332.586 98.996,332.676 98.744,332.676 L98.744,332.676 L98.744,333 L100.832,333 L100.832,332.676 C100.772,332.676 100.715,332.655 100.661,332.613 C100.607,332.571 100.58,332.502 100.58,332.406 L100.58,332.406 L100.58,325.638 C100.58,325.542 100.607,325.479 100.661,325.449 C100.715,325.419 100.772,325.404 100.832,325.404 L100.832,325.404 L100.832,325.08 L98.294,325.08 L98.294,325.404 C98.39,325.404 98.438,325.458 98.438,325.566 C98.438,325.602 98.414,325.665 98.366,325.755 C98.318,325.845 98.252,325.962 98.168,326.106 L98.168,326.106 L95.954,330.138 L93.758,326.088 C93.674,325.944 93.611,325.833 93.569,325.755 C93.527,325.677 93.506,325.614 93.506,325.566 C93.506,325.458 93.566,325.404 93.686,325.404 L93.686,325.404 L93.686,325.08 L91.184,325.08 L91.184,325.404 C91.268,325.404 91.325,325.422 91.355,325.458 C91.385,325.494 91.4,325.596 91.4,325.764 L91.4,325.764 L91.4,332.352 C91.4,332.484 91.379,332.568 91.337,332.604 C91.295,332.64 91.244,332.664 91.184,332.676 L91.184,332.676 L91.184,333 L93.218,333 Z M106.268,333 L106.268,332.676 C106.016,332.676 105.89,332.586 105.89,332.406 L105.89,332.406 L105.89,329.706 L108.95,329.706 C109.922,329.706 110.651,329.541 111.137,329.211 C111.623,328.881 111.866,328.284 111.866,327.42 C111.866,326.556 111.623,325.95 111.137,325.602 C110.651,325.254 109.922,325.08 108.95,325.08 L108.95,325.08 L103.712,325.08 L103.712,325.404 C104.012,325.404 104.162,325.494 104.162,325.674 L104.162,325.674 L104.162,332.406 C104.162,332.586 104.012,332.676 103.712,332.676 L103.712,332.676 L103.712,333 L106.268,333 Z M108.914,328.374 L105.89,328.374 L105.89,326.412 L108.914,326.412 C109.262,326.412 109.553,326.487 109.787,326.637 C110.021,326.787 110.138,327.048 110.138,327.42 C110.138,327.804 110.021,328.059 109.787,328.185 C109.553,328.311 109.262,328.374 108.914,328.374 L108.914,328.374 Z M118.202,333 L118.202,332.676 C117.986,332.676 117.878,332.586 117.878,332.406 L117.878,332.406 L117.878,326.412 L120.218,326.412 C120.314,326.412 120.404,326.436 120.488,326.484 C120.572,326.532 120.614,326.61 120.614,326.718 L120.614,326.718 L120.938,326.718 L120.938,324.648 L120.614,324.648 C120.614,324.816 120.572,324.93 120.488,324.99 C120.404,325.05 120.314,325.08 120.218,325.08 L120.218,325.08 L113.81,325.08 C113.714,325.08 113.624,325.05 113.54,324.99 C113.456,324.93 113.414,324.816 113.414,324.648 L113.414,324.648 L113.09,324.648 L113.09,326.718 L113.414,326.718 C113.414,326.61 113.456,326.532 113.54,326.484 C113.624,326.436 113.714,326.412 113.81,326.412 L113.81,326.412 L116.15,326.412 L116.15,332.406 C116.15,332.502 116.12,332.571 116.06,332.613 C116,332.655 115.94,332.676 115.88,332.676 L115.88,332.676 L115.88,333 L118.202,333 Z M127.004,333.054 C127.664,333.054 128.285,332.979 128.867,332.829 C129.449,332.679 129.956,332.436 130.388,332.1 C130.82,331.764 131.162,331.341 131.414,330.831 C131.666,330.321 131.792,329.724 131.792,329.04 C131.792,328.356 131.666,327.759 131.414,327.249 C131.162,326.739 130.82,326.316 130.388,325.98 C129.956,325.644 129.449,325.392 128.867,325.224 C128.285,325.056 127.664,324.972 127.004,324.972 C126.344,324.972 125.723,325.056 125.141,325.224 C124.559,325.392 124.052,325.644 123.62,325.98 C123.188,326.316 122.846,326.739 122.594,327.249 C122.342,327.759 122.216,328.356 122.216,329.04 C122.216,329.724 122.342,330.321 122.594,330.831 C122.846,331.341 123.188,331.764 123.62,332.1 C124.052,332.436 124.559,332.679 125.141,332.829 C125.723,332.979 126.344,333.054 127.004,333.054 Z M127.004,331.776 C126.62,331.776 126.245,331.713 125.879,331.587 C125.513,331.461 125.186,331.281 124.898,331.047 C124.61,330.813 124.379,330.528 124.205,330.192 C124.031,329.856 123.944,329.472 123.944,329.04 C123.944,328.608 124.031,328.224 124.205,327.888 C124.379,327.552 124.61,327.267 124.898,327.033 C125.186,326.799 125.513,326.619 125.879,326.493 C126.245,326.367 126.62,326.304 127.004,326.304 C127.388,326.304 127.763,326.367 128.129,326.493 C128.495,326.619 128.822,326.799 129.11,327.033 C129.398,327.267 129.629,327.552 129.803,327.888 C129.977,328.224 130.064,328.608 130.064,329.04 C130.064,329.472 129.977,329.856 129.803,330.192 C129.629,330.528 129.398,330.813 129.11,331.047 C128.822,331.281 128.495,331.461 128.129,331.587 C127.763,331.713 127.388,331.776 127.004,331.776 Z M136.22,333 L136.22,332.676 C136.016,332.676 135.914,332.586 135.914,332.406 L135.914,332.406 L135.914,327.348 L135.932,327.348 L138.83,333 L138.974,333 L142.034,327.348 L142.07,327.348 L142.07,332.406 C142.106,332.586 141.998,332.676 141.746,332.676 L141.746,332.676 L141.746,333 L143.834,333 L143.834,332.676 C143.774,332.676 143.717,332.655 143.663,332.613 C143.609,332.571 143.582,332.502 143.582,332.406 L143.582,332.406 L143.582,325.638 C143.582,325.542 143.609,325.479 143.663,325.449 C143.717,325.419 143.774,325.404 143.834,325.404 L143.834,325.404 L143.834,325.08 L141.296,325.08 L141.296,325.404 C141.392,325.404 141.44,325.458 141.44,325.566 C141.44,325.602 141.416,325.665 141.368,325.755 C141.32,325.845 141.254,325.962 141.17,326.106 L141.17,326.106 L138.956,330.138 L136.76,326.088 C136.676,325.944 136.613,325.833 136.571,325.755 C136.529,325.677 136.508,325.614 136.508,325.566 C136.508,325.458 136.568,325.404 136.688,325.404 L136.688,325.404 L136.688,325.08 L134.186,325.08 L134.186,325.404 C134.27,325.404 134.327,325.422 134.357,325.458 C134.387,325.494 134.402,325.596 134.402,325.764 L134.402,325.764 L134.402,332.352 C134.402,332.484 134.381,332.568 134.339,332.604 C134.297,332.64 134.246,332.664 134.186,332.676 L134.186,332.676 L134.186,333 L136.22,333 Z M154.76,333 L154.76,332.676 C154.508,332.676 154.382,332.586 154.382,332.406 L154.382,332.406 L154.382,329.706 L157.442,329.706 C158.414,329.706 159.143,329.541 159.629,329.211 C160.115,328.881 160.358,328.284 160.358,327.42 C160.358,326.556 160.115,325.95 159.629,325.602 C159.143,325.254 158.414,325.08 157.442,325.08 L157.442,325.08 L152.204,325.08 L152.204,325.404 C152.504,325.404 152.654,325.494 152.654,325.674 L152.654,325.674 L152.654,332.406 C152.654,332.586 152.504,332.676 152.204,332.676 L152.204,332.676 L152.204,333 L154.76,333 Z M157.406,328.374 L154.382,328.374 L154.382,326.412 L157.406,326.412 C157.754,326.412 158.045,326.487 158.279,326.637 C158.513,326.787 158.63,327.048 158.63,327.42 C158.63,327.804 158.513,328.059 158.279,328.185 C158.045,328.311 157.754,328.374 157.406,328.374 L157.406,328.374 Z M165.362,333 L165.362,332.676 C165.026,332.676 164.858,332.586 164.858,332.406 L164.858,332.406 L164.858,325.674 C164.858,325.494 165.026,325.404 165.362,325.404 L165.362,325.404 L165.362,325.08 L162.626,325.08 L162.626,325.404 C162.818,325.404 162.95,325.425 163.022,325.467 C163.094,325.509 163.13,325.578 163.13,325.674 L163.13,325.674 L163.13,332.406 C163.13,332.502 163.094,332.571 163.022,332.613 C162.95,332.655 162.818,332.676 162.626,332.676 L162.626,332.676 L162.626,333 L165.362,333 Z M176.252,333.18 L176.252,331.29 L175.928,331.29 C175.928,331.41 175.88,331.503 175.784,331.569 C175.688,331.635 175.568,331.668 175.424,331.668 L175.424,331.668 L170.564,331.668 L170.564,325.674 C170.564,325.494 170.702,325.404 170.978,325.404 L170.978,325.404 L170.978,325.08 L168.368,325.08 L168.368,325.404 C168.68,325.404 168.836,325.494 168.836,325.674 L168.836,325.674 L168.836,332.406 C168.836,332.586 168.68,332.676 168.368,332.676 L168.368,332.676 L168.368,333 L175.424,333 C175.568,333 175.688,333.006 175.784,333.018 C175.88,333.03 175.928,333.084 175.928,333.18 L175.928,333.18 L176.252,333.18 Z M185.918,333.198 L185.918,331.308 L185.594,331.308 C185.594,331.416 185.546,331.503 185.45,331.569 C185.354,331.635 185.234,331.668 185.09,331.668 L185.09,331.668 L180.482,331.668 L180.482,329.544 L183.11,329.544 C183.35,329.544 183.536,329.559 183.668,329.589 C183.8,329.619 183.848,329.7 183.812,329.832 L183.812,329.832 L184.172,329.832 L184.172,327.924 L183.848,327.924 C183.848,328.056 183.8,328.137 183.704,328.167 C183.608,328.197 183.458,328.212 183.254,328.212 L183.254,328.212 L180.482,328.212 L180.482,326.412 L184.874,326.412 C185.246,326.412 185.432,326.526 185.432,326.754 L185.432,326.754 L185.756,326.754 L185.756,324.756 L185.432,324.756 C185.432,324.972 185.246,325.08 184.874,325.08 L184.874,325.08 L178.484,325.08 L178.484,325.404 C178.544,325.404 178.604,325.425 178.664,325.467 C178.724,325.509 178.754,325.578 178.754,325.674 L178.754,325.674 L178.754,332.406 C178.754,332.502 178.724,332.571 178.664,332.613 C178.604,332.655 178.544,332.676 178.484,332.676 L178.484,332.676 L178.484,333 L185.09,333 C185.234,333 185.354,333.006 185.45,333.018 C185.546,333.03 185.594,333.09 185.594,333.198 L185.594,333.198 L185.918,333.198 Z M189.752,333.054 C190.1,333.054 190.4,332.937 190.652,332.703 C190.904,332.469 191.03,332.178 191.03,331.83 C191.03,331.482 190.904,331.182 190.652,330.93 C190.4,330.678 190.1,330.552 189.752,330.552 C189.404,330.552 189.104,330.678 188.852,330.93 C188.6,331.182 188.474,331.482 188.474,331.83 C188.474,332.178 188.6,332.469 188.852,332.703 C189.104,332.937 189.404,333.054 189.752,333.054 Z" id="Whayiththishhappenin?Addthistoyoursymptompile." fill="#000000" fill-rule="nonzero"></path>
    </g>
</svg>