<?xml version="1.0" encoding="UTF-8"?>
<svg width="262px" height="360px" viewBox="0 0 262 360" version="1.1" xmlns="http://www.w3.org/2000/svg" xmlns:xlink="http://www.w3.org/1999/xlink">
    <title>Fever 4</title>
    <g id="Fever-4" stroke="none" stroke-width="1" fill="none" fill-rule="evenodd">
        <g id="Group" transform="translate(9.000000, 9.000000)" fill="#FFFFFF" stroke="#000000" stroke-width="3">
            <g id="Rectangle">
                <rect x="1.5" y="1.5" width="239" height="337" rx="8"></rect>
            </g>
        </g>
        <path d="M219.82,30.312 L219.82,27.12 L219.532,27.12 C219.532,27.44 219.456,27.632 219.304,27.696 C219.152,27.76 218.988,27.792 218.812,27.792 L218.812,27.792 L210.892,27.792 L210.892,27.552 C211.324,27.152 211.824,26.824 212.392,26.568 C212.96,26.312 213.552,26.068 214.168,25.836 C214.784,25.604 215.388,25.368 215.98,25.128 C216.572,24.888 217.104,24.596 217.576,24.252 C218.048,23.908 218.428,23.488 218.716,22.992 C219.004,22.496 219.148,21.872 219.148,21.12 C219.148,20.416 219.008,19.82 218.728,19.332 C218.448,18.844 218.08,18.444 217.624,18.132 C217.168,17.82 216.648,17.592 216.064,17.448 C215.48,17.304 214.884,17.232 214.276,17.232 C213.348,17.232 212.548,17.352 211.876,17.592 C211.204,17.832 210.644,18.096 210.196,18.384 C209.748,18.672 209.396,18.936 209.14,19.176 C208.884,19.416 208.708,19.536 208.612,19.536 C208.532,19.536 208.46,19.52 208.396,19.488 L208.396,19.488 L208.204,19.392 L207.964,19.56 L210.436,22.2 L210.676,22.032 C210.612,21.984 210.56,21.896 210.52,21.768 C210.48,21.64 210.46,21.536 210.46,21.456 C210.46,21.12 210.592,20.82 210.856,20.556 C211.12,20.292 211.436,20.064 211.804,19.872 C212.172,19.68 212.556,19.536 212.956,19.44 C213.356,19.344 213.692,19.296 213.964,19.296 C214.236,19.296 214.516,19.32 214.804,19.368 C215.092,19.416 215.356,19.508 215.596,19.644 C215.836,19.78 216.032,19.956 216.184,20.172 C216.336,20.388 216.412,20.664 216.412,21 C216.412,21.496 216.2,21.928 215.776,22.296 C215.352,22.664 214.82,23.02 214.18,23.364 C213.54,23.708 212.852,24.056 212.116,24.408 C211.38,24.76 210.692,25.168 210.052,25.632 C209.412,26.096 208.88,26.632 208.456,27.24 C208.032,27.848 207.82,28.576 207.82,29.424 L207.82,29.424 L207.82,30.288 L208.108,30.288 C208.108,30.144 208.164,30.06 208.276,30.036 C208.388,30.012 208.532,30 208.708,30 L208.708,30 L218.812,30 C218.988,30 219.152,30.008 219.304,30.024 C219.456,30.04 219.532,30.136 219.532,30.312 L219.532,30.312 L219.82,30.312 Z" id="2" fill="#000000" fill-rule="nonzero"></path>
        <g id="Face" transform="translate(225.000000, 15.000000)">
            <circle id="Oval" stroke="#000000" fill="#FFFFFF" cx="9.5" cy="9.5" r="9"></circle>
            <circle id="Oval" fill="#000000" cx="5" cy="8" r="1"></circle>
            <circle id="Oval-Copy" fill="#000000" cx="12" cy="8" r="1"></circle>
            <line x1="12.0789474" y1="13.9090909" x2="14.5" y2="11.5" id="Line-4" stroke="#000000" stroke-linecap="round"></line>
            <path d="M3,5.89285714 C3.41025641,5.96428571 3.76923077,6 4.07692308,6 C4.38461538,6 5.35897436,5.33333333 7,4" id="Line-2" stroke="#000000"></path>
            <path d="M6,15 C6.96078431,14.3333333 8.07598039,14 9.34558824,14 C10.6151961,14 11.8333333,14.3333333 13,15" id="Line" stroke="#000000" stroke-linecap="round" stroke-linejoin="round"></path>
            <path d="M11.3197366,4.68245322 C11.585843,4.80663622 11.7912611,4.92388646 11.9359908,5.03420394 C12.548667,5.50120471 13.1333088,5.70898724 13.3155349,5.80010028 C13.5440857,5.91437569 13.8101922,6.00751295 14.1138542,6.07951204" id="Line-3" stroke="#000000" stroke-linecap="square" transform="translate(12.716795, 5.380983) rotate(-3.000000) translate(-12.716795, -5.380983) "></path>
            <path d="M2.999,9.347 L3.01687864,9.39698204 C3.09438102,9.62639002 3.1880913,9.89570266 3.30282211,10.2112791 C3.48139895,10.7024692 3.54804655,11.0169045 3.47980817,11.2204078 C3.41244402,11.421304 3.17143148,11.4011566 3.01518318,11.4416373 L3.01518318,11.4416373 L2.86575433,11.4813457 C2.78836954,11.5029149 2.70310591,11.5126925 2.63007237,11.4810832 C2.58941161,11.463485 2.56030088,11.4264037 2.54036126,11.376794 C2.4446463,11.1386559 2.49784548,10.759559 2.69717789,10.2112791 C2.8119087,9.89570266 2.90561898,9.62639002 2.98312136,9.39698204 L2.999,9.347 Z" id="Oval" stroke="#000000"></path>
            <path d="M16,6.347 L16.0168786,6.39698204 C16.094381,6.62639002 16.1880913,6.89570266 16.3028221,7.21127907 C16.481399,7.70246915 16.5480465,8.01690453 16.4798082,8.22040783 C16.412444,8.42130397 16.1714315,8.40115659 16.0151832,8.44163726 L16.0151832,8.44163726 L15.8657543,8.48134574 C15.7883695,8.50291486 15.7031059,8.51269255 15.6300724,8.48108319 C15.5894116,8.46348497 15.5603009,8.42640366 15.5403613,8.37679403 C15.4446463,8.13865595 15.4978455,7.75955902 15.6971779,7.21127907 C15.8119087,6.89570266 15.905619,6.62639002 15.9831214,6.39698204 L16,6.347 Z" id="Oval-Copy-2" stroke="#000000"></path>
        </g>
        <rect id="Rectangle" stroke="#000000" stroke-width="3" x="17.5" y="240.5" width="225" height="101" rx="8"></rect>
        <path d="M87.476,57 L87.476,56.352 C87.164,56.352 86.906,56.298 86.702,56.19 C86.498,56.082 86.396,55.92 86.396,55.704 L86.396,55.704 L86.396,48.72 L93.452,48.72 C93.932,48.72 94.304,48.798 94.568,48.954 C94.832,49.11 94.964,49.464 94.964,50.016 L94.964,50.016 L95.612,50.016 L95.612,44.832 L94.964,44.832 C94.964,45.168 94.832,45.384 94.568,45.48 C94.304,45.576 93.932,45.624 93.452,45.624 L93.452,45.624 L86.396,45.624 L86.396,41.16 L98.06,41.16 C98.564,41.16 98.918,41.226 99.122,41.358 C99.326,41.49 99.428,41.688 99.428,41.952 L99.428,41.952 L100.076,41.952 L100.076,37.2 L99.428,37.2 C99.428,37.464 99.326,37.674 99.122,37.83 C98.918,37.986 98.564,38.064 98.06,38.064 L98.06,38.064 L81.356,38.064 L81.356,38.712 C81.98,38.712 82.292,38.928 82.292,39.36 L82.292,39.36 L82.292,55.704 C82.292,56.136 81.98,56.352 81.356,56.352 L81.356,56.352 L81.356,57 L87.476,57 Z M118.796,57.396 L118.796,53.616 L118.148,53.616 C118.148,53.832 118.052,54.006 117.86,54.138 C117.668,54.27 117.428,54.336 117.14,54.336 L117.14,54.336 L107.924,54.336 L107.924,50.088 L113.18,50.088 C113.66,50.088 114.032,50.118 114.296,50.178 C114.56,50.238 114.656,50.4 114.584,50.664 L114.584,50.664 L115.304,50.664 L115.304,46.848 L114.656,46.848 C114.656,47.112 114.56,47.274 114.368,47.334 C114.176,47.394 113.876,47.424 113.468,47.424 L113.468,47.424 L107.924,47.424 L107.924,43.824 L116.708,43.824 C117.452,43.824 117.824,44.052 117.824,44.508 L117.824,44.508 L118.472,44.508 L118.472,40.512 L117.824,40.512 C117.824,40.944 117.452,41.16 116.708,41.16 L116.708,41.16 L103.928,41.16 L103.928,41.808 C104.048,41.808 104.168,41.85 104.288,41.934 C104.408,42.018 104.468,42.156 104.468,42.348 L104.468,42.348 L104.468,55.812 C104.468,56.004 104.408,56.142 104.288,56.226 C104.168,56.31 104.048,56.352 103.928,56.352 L103.928,56.352 L103.928,57 L117.14,57 C117.428,57 117.668,57.012 117.86,57.036 C118.052,57.06 118.148,57.18 118.148,57.396 L118.148,57.396 L118.796,57.396 Z M133.844,57 L133.844,56.352 C133.412,56.28 133.196,56.172 133.196,56.028 C133.196,55.908 133.262,55.74 133.394,55.524 C133.526,55.308 133.724,54.888 133.988,54.264 L133.988,54.264 L139.244,42.636 C139.508,42.084 139.808,41.808 140.144,41.808 L140.144,41.808 L140.144,41.16 L135.428,41.16 L135.428,41.808 C135.764,41.808 135.944,41.952 135.968,42.24 C135.992,42.408 135.932,42.636 135.788,42.924 C135.644,43.212 135.44,43.644 135.176,44.22 L135.176,44.22 L131.252,52.932 L127.112,43.968 C126.944,43.608 126.794,43.278 126.662,42.978 C126.53,42.678 126.464,42.444 126.464,42.276 C126.464,41.964 126.608,41.808 126.896,41.808 L126.896,41.808 L126.896,41.16 L121.82,41.16 L121.82,41.808 C121.964,41.808 122.114,41.868 122.27,41.988 C122.426,42.108 122.552,42.276 122.648,42.492 L122.648,42.492 L128.12,54.264 C128.336,54.72 128.522,55.08 128.678,55.344 L128.7495,55.47 C128.857833,55.67 128.912,55.82 128.912,55.92 C128.912,56.04 128.858,56.13 128.75,56.19 C128.642,56.25 128.528,56.304 128.408,56.352 L128.408,56.352 L128.408,57 L133.844,57 Z M158.828,57.396 L158.828,53.616 L158.18,53.616 C158.18,53.832 158.084,54.006 157.892,54.138 C157.7,54.27 157.46,54.336 157.172,54.336 L157.172,54.336 L147.956,54.336 L147.956,50.088 L153.212,50.088 C153.692,50.088 154.064,50.118 154.328,50.178 C154.592,50.238 154.688,50.4 154.616,50.664 L154.616,50.664 L155.336,50.664 L155.336,46.848 L154.688,46.848 C154.688,47.112 154.592,47.274 154.4,47.334 C154.208,47.394 153.908,47.424 153.5,47.424 L153.5,47.424 L147.956,47.424 L147.956,43.824 L156.74,43.824 C157.484,43.824 157.856,44.052 157.856,44.508 L157.856,44.508 L158.504,44.508 L158.504,40.512 L157.856,40.512 C157.856,40.944 157.484,41.16 156.74,41.16 L156.74,41.16 L143.96,41.16 L143.96,41.808 C144.08,41.808 144.2,41.85 144.32,41.934 C144.44,42.018 144.5,42.156 144.5,42.348 L144.5,42.348 L144.5,55.812 C144.5,56.004 144.44,56.142 144.32,56.226 C144.2,56.31 144.08,56.352 143.96,56.352 L143.96,56.352 L143.96,57 L157.172,57 C157.46,57 157.7,57.012 157.892,57.036 C158.084,57.06 158.18,57.18 158.18,57.396 L158.18,57.396 L158.828,57.396 Z M168.62,57 L168.62,56.352 C168.476,56.352 168.326,56.31 168.17,56.226 C168.014,56.142 167.936,56.004 167.936,55.812 L167.936,55.812 L167.936,50.664 L172.94,50.664 L175.784,54.912 C176.144,55.416 176.324,55.788 176.324,56.028 C176.324,56.244 176.168,56.352 175.856,56.352 L175.856,56.352 L175.856,57 L181.364,57 L181.364,56.352 C181.1,56.28 180.854,56.178 180.626,56.046 C180.398,55.914 180.188,55.716 179.996,55.452 L179.996,55.452 L176.468,50.304 C176.972,50.184 177.464,50.01 177.944,49.782 C178.424,49.554 178.862,49.254 179.258,48.882 C179.654,48.51 179.972,48.072 180.212,47.568 C180.452,47.064 180.572,46.488 180.572,45.84 C180.572,44.136 179.972,42.93 178.772,42.222 C177.572,41.514 175.904,41.16 173.768,41.16 L173.768,41.16 L163.832,41.16 L163.832,41.808 C164.264,41.808 164.48,41.988 164.48,42.348 L164.48,42.348 L164.48,55.812 C164.48,56.172 164.264,56.352 163.832,56.352 L163.832,56.352 L163.832,57 L168.62,57 Z M173.696,48 L168.008,48 L168.008,43.824 L173.696,43.824 C174.92,43.824 175.814,43.998 176.378,44.346 C176.942,44.694 177.224,45.168 177.224,45.768 C177.224,47.256 176.048,48 173.696,48 L173.696,48 Z" id="Fever" fill="#000000" fill-rule="nonzero"></path>
        <path d="M35.761,260 L35.761,259.676 C35.425,259.676 35.257,259.568 35.257,259.352 L35.257,259.352 L35.257,253.358 L35.293,253.358 L38.839,260 L38.893,260 L42.511,253.376 L42.547,253.376 L42.547,259.352 C42.547,259.568 42.385,259.676 42.061,259.676 L42.061,259.676 L42.061,260 L44.887,260 L44.887,259.676 C44.791,259.676 44.707,259.649 44.635,259.595 C44.563,259.541 44.527,259.46 44.527,259.352 L44.527,259.352 L44.527,251.144 C44.527,251.036 44.563,250.961 44.635,250.919 C44.707,250.877 44.791,250.856 44.887,250.856 L44.887,250.856 L44.887,250.532 L41.557,250.532 L41.557,250.856 C41.713,250.856 41.791,250.922 41.791,251.054 C41.791,251.126 41.77,251.207 41.728,251.297 C41.686,251.387 41.623,251.51 41.539,251.666 L41.539,251.666 L38.947,256.292 L36.373,251.612 C36.313,251.504 36.259,251.402 36.211,251.306 C36.163,251.21 36.139,251.132 36.139,251.072 C36.139,251 36.172,250.946 36.238,250.91 C36.304,250.874 36.367,250.856 36.427,250.856 L36.427,250.856 L36.427,250.532 L33.061,250.532 L33.061,250.856 C33.157,250.856 33.241,250.877 33.313,250.919 C33.385,250.961 33.421,251.036 33.421,251.144 L33.421,251.144 L33.421,259.352 C33.421,259.46 33.385,259.541 33.313,259.595 C33.241,259.649 33.157,259.676 33.061,259.676 L33.061,259.676 L33.061,260 L35.761,260 Z M52.681,260 L52.681,259.676 C52.453,259.676 52.339,259.586 52.339,259.406 L52.339,259.406 L52.339,256.706 L55.093,253.142 C55.225,252.974 55.378,252.809 55.552,252.647 C55.726,252.485 55.885,252.404 56.029,252.404 L56.029,252.404 L56.029,252.08 L53.275,252.08 L53.275,252.404 C53.335,252.404 53.395,252.416 53.455,252.44 C53.515,252.464 53.545,252.524 53.545,252.62 C53.545,252.692 53.518,252.767 53.464,252.845 C53.41,252.923 53.329,253.04 53.221,253.196 L53.221,253.196 L51.619,255.428 L49.801,253.052 C49.741,252.968 49.687,252.896 49.639,252.836 C49.591,252.776 49.567,252.71 49.567,252.638 C49.567,252.566 49.603,252.509 49.675,252.467 C49.747,252.425 49.813,252.404 49.873,252.404 L49.873,252.404 L49.873,252.08 L46.903,252.08 L46.903,252.404 C47.011,252.404 47.125,252.428 47.245,252.476 C47.365,252.524 47.467,252.602 47.551,252.71 L47.551,252.71 L50.611,256.634 L50.611,259.406 C50.611,259.586 50.503,259.676 50.287,259.676 L50.287,259.676 L50.287,260 L52.681,260 Z M67.657,260 L67.657,259.676 C67.441,259.676 67.333,259.586 67.333,259.406 L67.333,259.406 L67.333,253.412 L69.673,253.412 C69.769,253.412 69.859,253.436 69.943,253.484 C70.027,253.532 70.069,253.61 70.069,253.718 L70.069,253.718 L70.393,253.718 L70.393,251.648 L70.069,251.648 C70.069,251.816 70.027,251.93 69.943,251.99 C69.859,252.05 69.769,252.08 69.673,252.08 L69.673,252.08 L63.265,252.08 C63.169,252.08 63.079,252.05 62.995,251.99 C62.911,251.93 62.869,251.816 62.869,251.648 L62.869,251.648 L62.545,251.648 L62.545,253.718 L62.869,253.718 C62.869,253.61 62.911,253.532 62.995,253.484 C63.079,253.436 63.169,253.412 63.265,253.412 L63.265,253.412 L65.605,253.412 L65.605,259.406 C65.605,259.502 65.575,259.571 65.515,259.613 C65.455,259.655 65.395,259.676 65.335,259.676 L65.335,259.676 L65.335,260 L67.657,260 Z M79.879,260.198 L79.879,258.308 L79.555,258.308 C79.555,258.416 79.507,258.503 79.411,258.569 C79.315,258.635 79.195,258.668 79.051,258.668 L79.051,258.668 L74.443,258.668 L74.443,256.544 L77.071,256.544 C77.311,256.544 77.497,256.559 77.629,256.589 C77.761,256.619 77.809,256.7 77.773,256.832 L77.773,256.832 L78.133,256.832 L78.133,254.924 L77.809,254.924 C77.809,255.056 77.761,255.137 77.665,255.167 C77.569,255.197 77.419,255.212 77.215,255.212 L77.215,255.212 L74.443,255.212 L74.443,253.412 L78.835,253.412 C79.207,253.412 79.393,253.526 79.393,253.754 L79.393,253.754 L79.717,253.754 L79.717,251.756 L79.393,251.756 C79.393,251.972 79.207,252.08 78.835,252.08 L78.835,252.08 L72.445,252.08 L72.445,252.404 C72.505,252.404 72.565,252.425 72.625,252.467 C72.685,252.509 72.715,252.578 72.715,252.674 L72.715,252.674 L72.715,259.406 C72.715,259.502 72.685,259.571 72.625,259.613 C72.565,259.655 72.505,259.676 72.445,259.676 L72.445,259.676 L72.445,260 L79.051,260 C79.195,260 79.315,260.006 79.411,260.018 C79.507,260.03 79.555,260.09 79.555,260.198 L79.555,260.198 L79.879,260.198 Z M84.685,260 L84.685,259.676 C84.481,259.676 84.379,259.586 84.379,259.406 L84.379,259.406 L84.379,254.348 L84.397,254.348 L87.295,260 L87.439,260 L90.499,254.348 L90.535,254.348 L90.535,259.406 C90.571,259.586 90.463,259.676 90.211,259.676 L90.211,259.676 L90.211,260 L92.299,260 L92.299,259.676 C92.239,259.676 92.182,259.655 92.128,259.613 C92.074,259.571 92.047,259.502 92.047,259.406 L92.047,259.406 L92.047,252.638 C92.047,252.542 92.074,252.479 92.128,252.449 C92.182,252.419 92.239,252.404 92.299,252.404 L92.299,252.404 L92.299,252.08 L89.761,252.08 L89.761,252.404 C89.857,252.404 89.905,252.458 89.905,252.566 C89.905,252.602 89.881,252.665 89.833,252.755 C89.785,252.845 89.719,252.962 89.635,253.106 L89.635,253.106 L87.421,257.138 L85.225,253.088 C85.141,252.944 85.078,252.833 85.036,252.755 C84.994,252.677 84.973,252.614 84.973,252.566 C84.973,252.458 85.033,252.404 85.153,252.404 L85.153,252.404 L85.153,252.08 L82.651,252.08 L82.651,252.404 C82.735,252.404 82.792,252.422 82.822,252.458 C82.852,252.494 82.867,252.596 82.867,252.764 L82.867,252.764 L82.867,259.352 C82.867,259.484 82.846,259.568 82.804,259.604 C82.762,259.64 82.711,259.664 82.651,259.676 L82.651,259.676 L82.651,260 L84.685,260 Z M97.735,260 L97.735,259.676 C97.483,259.676 97.357,259.586 97.357,259.406 L97.357,259.406 L97.357,256.706 L100.417,256.706 C101.389,256.706 102.118,256.541 102.604,256.211 C103.09,255.881 103.333,255.284 103.333,254.42 C103.333,253.556 103.09,252.95 102.604,252.602 C102.118,252.254 101.389,252.08 100.417,252.08 L100.417,252.08 L95.179,252.08 L95.179,252.404 C95.479,252.404 95.629,252.494 95.629,252.674 L95.629,252.674 L95.629,259.406 C95.629,259.586 95.479,259.676 95.179,259.676 L95.179,259.676 L95.179,260 L97.735,260 Z M100.381,255.374 L97.357,255.374 L97.357,253.412 L100.381,253.412 C100.729,253.412 101.02,253.487 101.254,253.637 C101.488,253.787 101.605,254.048 101.605,254.42 C101.605,254.804 101.488,255.059 101.254,255.185 C101.02,255.311 100.729,255.374 100.381,255.374 L100.381,255.374 Z M112.891,260.198 L112.891,258.308 L112.567,258.308 C112.567,258.416 112.519,258.503 112.423,258.569 C112.327,258.635 112.207,258.668 112.063,258.668 L112.063,258.668 L107.455,258.668 L107.455,256.544 L110.083,256.544 C110.323,256.544 110.509,256.559 110.641,256.589 C110.773,256.619 110.821,256.7 110.785,256.832 L110.785,256.832 L111.145,256.832 L111.145,254.924 L110.821,254.924 C110.821,255.056 110.773,255.137 110.677,255.167 C110.581,255.197 110.431,255.212 110.227,255.212 L110.227,255.212 L107.455,255.212 L107.455,253.412 L111.847,253.412 C112.219,253.412 112.405,253.526 112.405,253.754 L112.405,253.754 L112.729,253.754 L112.729,251.756 L112.405,251.756 C112.405,251.972 112.219,252.08 111.847,252.08 L111.847,252.08 L105.457,252.08 L105.457,252.404 C105.517,252.404 105.577,252.425 105.637,252.467 C105.697,252.509 105.727,252.578 105.727,252.674 L105.727,252.674 L105.727,259.406 C105.727,259.502 105.697,259.571 105.637,259.613 C105.577,259.655 105.517,259.676 105.457,259.676 L105.457,259.676 L105.457,260 L112.063,260 C112.207,260 112.327,260.006 112.423,260.018 C112.519,260.03 112.567,260.09 112.567,260.198 L112.567,260.198 L112.891,260.198 Z M117.787,260 L117.787,259.676 C117.715,259.676 117.64,259.655 117.562,259.613 C117.484,259.571 117.445,259.502 117.445,259.406 L117.445,259.406 L117.445,256.832 L119.947,256.832 L121.369,258.956 C121.549,259.208 121.639,259.394 121.639,259.514 C121.639,259.622 121.561,259.676 121.405,259.676 L121.405,259.676 L121.405,260 L124.159,260 L124.159,259.676 C124.027,259.64 123.904,259.589 123.79,259.523 C123.676,259.457 123.571,259.358 123.475,259.226 L123.475,259.226 L121.711,256.652 C121.963,256.592 122.209,256.505 122.449,256.391 C122.689,256.277 122.908,256.127 123.106,255.941 C123.304,255.755 123.463,255.536 123.583,255.284 C123.703,255.032 123.763,254.744 123.763,254.42 C123.763,253.568 123.463,252.965 122.863,252.611 C122.263,252.257 121.429,252.08 120.361,252.08 L120.361,252.08 L115.393,252.08 L115.393,252.404 C115.609,252.404 115.717,252.494 115.717,252.674 L115.717,252.674 L115.717,259.406 C115.717,259.586 115.609,259.676 115.393,259.676 L115.393,259.676 L115.393,260 L117.787,260 Z M120.325,255.5 L117.481,255.5 L117.481,253.412 L120.325,253.412 C120.937,253.412 121.384,253.499 121.666,253.673 C121.948,253.847 122.089,254.084 122.089,254.384 C122.089,255.128 121.501,255.5 120.325,255.5 L120.325,255.5 Z M127.669,260 L127.669,259.676 C127.561,259.676 127.477,259.664 127.417,259.64 C127.357,259.616 127.327,259.556 127.327,259.46 C127.327,259.4 127.342,259.331 127.372,259.253 C127.402,259.175 127.441,259.088 127.489,258.992 L127.489,258.992 L127.993,258.02 L131.845,258.02 L132.331,259.046 C132.367,259.142 132.397,259.22 132.421,259.28 C132.445,259.34 132.457,259.406 132.457,259.478 C132.457,259.574 132.424,259.64 132.358,259.676 C132.292,259.712 132.229,259.73 132.169,259.73 L132.169,259.73 L132.169,260 L134.725,260 L134.725,259.676 C134.641,259.652 134.563,259.616 134.491,259.568 C134.419,259.52 134.353,259.442 134.293,259.334 L134.293,259.334 L131.377,253.214 C131.317,253.082 131.26,252.965 131.206,252.863 C131.152,252.761 131.125,252.674 131.125,252.602 C131.125,252.518 131.146,252.47 131.188,252.458 C131.23,252.446 131.269,252.428 131.305,252.404 L131.305,252.404 L131.305,252.08 L128.587,252.08 L128.587,252.404 C128.623,252.428 128.656,252.449 128.686,252.467 C128.716,252.485 128.731,252.53 128.731,252.602 C128.731,252.698 128.71,252.797 128.668,252.899 C128.626,253.001 128.569,253.136 128.497,253.304 L128.497,253.304 L125.815,259.154 C125.767,259.25 125.698,259.355 125.608,259.469 C125.518,259.583 125.401,259.652 125.257,259.676 L125.257,259.676 L125.257,260 L127.669,260 Z M131.269,256.688 L128.533,256.688 L129.811,253.664 L131.269,256.688 Z M140.683,260 L140.683,259.676 C140.467,259.676 140.359,259.586 140.359,259.406 L140.359,259.406 L140.359,253.412 L142.699,253.412 C142.795,253.412 142.885,253.436 142.969,253.484 C143.053,253.532 143.095,253.61 143.095,253.718 L143.095,253.718 L143.419,253.718 L143.419,251.648 L143.095,251.648 C143.095,251.816 143.053,251.93 142.969,251.99 C142.885,252.05 142.795,252.08 142.699,252.08 L142.699,252.08 L136.291,252.08 C136.195,252.08 136.105,252.05 136.021,251.99 C135.937,251.93 135.895,251.816 135.895,251.648 L135.895,251.648 L135.571,251.648 L135.571,253.718 L135.895,253.718 C135.895,253.61 135.937,253.532 136.021,253.484 C136.105,253.436 136.195,253.412 136.291,253.412 L136.291,253.412 L138.631,253.412 L138.631,259.406 C138.631,259.502 138.601,259.571 138.541,259.613 C138.481,259.655 138.421,259.676 138.361,259.676 L138.361,259.676 L138.361,260 L140.683,260 Z M150.061,260.054 C150.781,260.054 151.408,259.979 151.942,259.829 C152.476,259.679 152.914,259.472 153.256,259.208 C153.598,258.944 153.853,258.641 154.021,258.299 C154.189,257.957 154.273,257.6 154.273,257.228 L154.273,257.228 L154.273,252.674 C154.273,252.494 154.405,252.404 154.669,252.404 L154.669,252.404 L154.669,252.08 L152.167,252.08 L152.167,252.404 C152.467,252.404 152.617,252.494 152.617,252.674 L152.617,252.674 L152.617,256.796 C152.617,257.372 152.407,257.834 151.987,258.182 C151.567,258.53 150.925,258.704 150.061,258.704 C149.197,258.704 148.555,258.53 148.135,258.182 C147.715,257.834 147.505,257.372 147.505,256.796 L147.505,256.796 L147.505,252.674 C147.505,252.494 147.637,252.404 147.901,252.404 L147.901,252.404 L147.901,252.08 L145.327,252.08 L145.327,252.404 C145.531,252.404 145.669,252.425 145.741,252.467 C145.813,252.509 145.849,252.578 145.849,252.674 L145.849,252.674 L145.849,257.228 C145.849,257.6 145.933,257.957 146.101,258.299 C146.269,258.641 146.524,258.944 146.866,259.208 C147.208,259.472 147.646,259.679 148.18,259.829 C148.714,259.979 149.341,260.054 150.061,260.054 Z M159.799,260 L159.799,259.676 C159.727,259.676 159.652,259.655 159.574,259.613 C159.496,259.571 159.457,259.502 159.457,259.406 L159.457,259.406 L159.457,256.832 L161.959,256.832 L163.381,258.956 C163.561,259.208 163.651,259.394 163.651,259.514 C163.651,259.622 163.573,259.676 163.417,259.676 L163.417,259.676 L163.417,260 L166.171,260 L166.171,259.676 C166.039,259.64 165.916,259.589 165.802,259.523 C165.688,259.457 165.583,259.358 165.487,259.226 L165.487,259.226 L163.723,256.652 C163.975,256.592 164.221,256.505 164.461,256.391 C164.701,256.277 164.92,256.127 165.118,255.941 C165.316,255.755 165.475,255.536 165.595,255.284 C165.715,255.032 165.775,254.744 165.775,254.42 C165.775,253.568 165.475,252.965 164.875,252.611 C164.275,252.257 163.441,252.08 162.373,252.08 L162.373,252.08 L157.405,252.08 L157.405,252.404 C157.621,252.404 157.729,252.494 157.729,252.674 L157.729,252.674 L157.729,259.406 C157.729,259.586 157.621,259.676 157.405,259.676 L157.405,259.676 L157.405,260 L159.799,260 Z M162.337,255.5 L159.493,255.5 L159.493,253.412 L162.337,253.412 C162.949,253.412 163.396,253.499 163.678,253.673 C163.96,253.847 164.101,254.084 164.101,254.384 C164.101,255.128 163.513,255.5 162.337,255.5 L162.337,255.5 Z M175.909,260.198 L175.909,258.308 L175.585,258.308 C175.585,258.416 175.537,258.503 175.441,258.569 C175.345,258.635 175.225,258.668 175.081,258.668 L175.081,258.668 L170.473,258.668 L170.473,256.544 L173.101,256.544 C173.341,256.544 173.527,256.559 173.659,256.589 C173.791,256.619 173.839,256.7 173.803,256.832 L173.803,256.832 L174.163,256.832 L174.163,254.924 L173.839,254.924 C173.839,255.056 173.791,255.137 173.695,255.167 C173.599,255.197 173.449,255.212 173.245,255.212 L173.245,255.212 L170.473,255.212 L170.473,253.412 L174.865,253.412 C175.237,253.412 175.423,253.526 175.423,253.754 L175.423,253.754 L175.747,253.754 L175.747,251.756 L175.423,251.756 C175.423,251.972 175.237,252.08 174.865,252.08 L174.865,252.08 L168.475,252.08 L168.475,252.404 C168.535,252.404 168.595,252.425 168.655,252.467 C168.715,252.509 168.745,252.578 168.745,252.674 L168.745,252.674 L168.745,259.406 C168.745,259.502 168.715,259.571 168.655,259.613 C168.595,259.655 168.535,259.676 168.475,259.676 L168.475,259.676 L168.475,260 L175.081,260 C175.225,260 175.345,260.006 175.441,260.018 C175.537,260.03 175.585,260.09 175.585,260.198 L175.585,260.198 L175.909,260.198 Z M187.573,260.054 C188.113,260.054 188.602,260.006 189.04,259.91 C189.478,259.814 189.862,259.697 190.192,259.559 C190.522,259.421 190.795,259.298 191.011,259.19 C191.227,259.082 191.383,259.028 191.479,259.028 C191.539,259.028 191.641,259.058 191.785,259.118 L191.785,259.118 L191.965,259.028 L190.633,257.12 L190.435,257.3 C190.447,257.348 190.453,257.408 190.453,257.48 L190.453,257.48 L190.453,257.624 C190.453,257.732 190.366,257.852 190.192,257.984 C190.018,258.116 189.793,258.239 189.517,258.353 C189.241,258.467 188.935,258.566 188.599,258.65 C188.263,258.734 187.933,258.776 187.609,258.776 C187.261,258.776 186.919,258.713 186.583,258.587 C186.247,258.461 185.947,258.275 185.683,258.029 C185.419,257.783 185.206,257.489 185.044,257.147 C184.882,256.805 184.801,256.418 184.801,255.986 C184.801,255.554 184.873,255.17 185.017,254.834 C185.161,254.498 185.365,254.216 185.629,253.988 C185.893,253.76 186.202,253.589 186.556,253.475 C186.91,253.361 187.303,253.304 187.735,253.304 C188.095,253.304 188.425,253.337 188.725,253.403 C189.025,253.469 189.286,253.55 189.508,253.646 C189.73,253.742 189.901,253.841 190.021,253.943 C190.141,254.045 190.201,254.126 190.201,254.186 C190.201,254.222 190.204,254.252 190.21,254.276 C190.216,254.3 190.219,254.324 190.219,254.348 L190.219,254.348 L190.417,254.492 L191.605,252.782 L191.389,252.656 C191.341,252.68 191.296,252.71 191.254,252.746 C191.212,252.782 191.161,252.8 191.101,252.8 C191.017,252.8 190.879,252.758 190.687,252.674 C190.495,252.59 190.255,252.494 189.967,252.386 C189.679,252.278 189.346,252.182 188.968,252.098 C188.59,252.014 188.173,251.972 187.717,251.972 C187.129,251.972 186.556,252.056 185.998,252.224 C185.44,252.392 184.945,252.647 184.513,252.989 C184.081,253.331 183.733,253.754 183.469,254.258 C183.205,254.762 183.073,255.35 183.073,256.022 C183.073,256.694 183.205,257.285 183.469,257.795 C183.733,258.305 184.075,258.731 184.495,259.073 C184.915,259.415 185.395,259.664 185.935,259.82 C186.475,259.976 187.021,260.054 187.573,260.054 Z M195.187,260 L195.187,259.676 C195.079,259.676 194.995,259.664 194.935,259.64 C194.875,259.616 194.845,259.556 194.845,259.46 C194.845,259.4 194.86,259.331 194.89,259.253 C194.92,259.175 194.959,259.088 195.007,258.992 L195.007,258.992 L195.511,258.02 L199.363,258.02 L199.849,259.046 C199.885,259.142 199.915,259.22 199.939,259.28 C199.963,259.34 199.975,259.406 199.975,259.478 C199.975,259.574 199.942,259.64 199.876,259.676 C199.81,259.712 199.747,259.73 199.687,259.73 L199.687,259.73 L199.687,260 L202.243,260 L202.243,259.676 C202.159,259.652 202.081,259.616 202.009,259.568 C201.937,259.52 201.871,259.442 201.811,259.334 L201.811,259.334 L198.895,253.214 C198.835,253.082 198.778,252.965 198.724,252.863 C198.67,252.761 198.643,252.674 198.643,252.602 C198.643,252.518 198.664,252.47 198.706,252.458 C198.748,252.446 198.787,252.428 198.823,252.404 L198.823,252.404 L198.823,252.08 L196.105,252.08 L196.105,252.404 C196.141,252.428 196.174,252.449 196.204,252.467 C196.234,252.485 196.249,252.53 196.249,252.602 C196.249,252.698 196.228,252.797 196.186,252.899 C196.144,253.001 196.087,253.136 196.015,253.304 L196.015,253.304 L193.333,259.154 C193.285,259.25 193.216,259.355 193.126,259.469 C193.036,259.583 192.919,259.652 192.775,259.676 L192.775,259.676 L192.775,260 L195.187,260 Z M198.787,256.688 L196.051,256.688 L197.329,253.664 L198.787,256.688 Z M206.185,260 L206.185,259.676 C205.933,259.676 205.807,259.586 205.807,259.406 L205.807,259.406 L205.807,254.168 L210.271,258.92 C210.415,259.076 210.544,259.214 210.658,259.334 C210.772,259.454 210.829,259.538 210.829,259.586 C210.829,259.646 210.787,259.676 210.703,259.676 L210.703,259.676 L210.703,260 L213.043,260 L213.043,259.676 C212.827,259.676 212.719,259.586 212.719,259.406 L212.719,259.406 L212.719,252.674 C212.719,252.494 212.827,252.404 213.043,252.404 L213.043,252.404 L213.043,252.08 L210.847,252.08 L210.847,252.404 C211.087,252.404 211.207,252.494 211.207,252.674 L211.207,252.674 L211.207,257.552 L206.887,252.98 C206.623,252.716 206.491,252.554 206.491,252.494 C206.491,252.446 206.533,252.416 206.617,252.404 L206.617,252.404 L206.617,252.08 L203.971,252.08 L203.971,252.404 C204.187,252.404 204.295,252.494 204.295,252.674 L204.295,252.674 L204.295,259.406 C204.295,259.586 204.187,259.676 203.971,259.676 L203.971,259.676 L203.971,260 L206.185,260 Z M215.347,255.41 C215.719,255.326 216.079,255.176 216.427,254.96 C216.775,254.744 217.081,254.486 217.345,254.186 C217.609,253.886 217.822,253.553 217.984,253.187 C218.146,252.821 218.227,252.44 218.227,252.044 C218.227,251.54 218.104,251.114 217.858,250.766 C217.612,250.418 217.249,250.244 216.769,250.244 C216.457,250.244 216.178,250.37 215.932,250.622 C215.686,250.874 215.563,251.174 215.563,251.522 C215.563,251.882 215.674,252.161 215.896,252.359 C216.118,252.557 216.379,252.656 216.679,252.656 C216.775,252.656 216.877,252.662 216.985,252.674 C217.093,252.686 217.159,252.734 217.183,252.818 C217.207,253.034 217.159,253.25 217.039,253.466 C216.919,253.682 216.766,253.883 216.58,254.069 C216.394,254.255 216.187,254.417 215.959,254.555 C215.731,254.693 215.527,254.786 215.347,254.834 L215.347,254.834 L215.347,255.41 Z M225.211,260 L225.211,259.676 C224.995,259.676 224.887,259.586 224.887,259.406 L224.887,259.406 L224.887,253.412 L227.227,253.412 C227.323,253.412 227.413,253.436 227.497,253.484 C227.581,253.532 227.623,253.61 227.623,253.718 L227.623,253.718 L227.947,253.718 L227.947,251.648 L227.623,251.648 C227.623,251.816 227.581,251.93 227.497,251.99 C227.413,252.05 227.323,252.08 227.227,252.08 L227.227,252.08 L220.819,252.08 C220.723,252.08 220.633,252.05 220.549,251.99 C220.465,251.93 220.423,251.816 220.423,251.648 L220.423,251.648 L220.099,251.648 L220.099,253.718 L220.423,253.718 C220.423,253.61 220.465,253.532 220.549,253.484 C220.633,253.436 220.723,253.412 220.819,253.412 L220.819,253.412 L223.159,253.412 L223.159,259.406 C223.159,259.502 223.129,259.571 223.069,259.613 C223.009,259.655 222.949,259.676 222.889,259.676 L222.889,259.676 L222.889,260 L225.211,260 Z M52.78,278 C53.308,278 53.761,277.943 54.139,277.829 C54.517,277.715 54.823,277.562 55.057,277.37 C55.291,277.178 55.462,276.956 55.57,276.704 C55.678,276.452 55.732,276.182 55.732,275.894 C55.732,275.642 55.69,275.408 55.606,275.192 C55.522,274.976 55.414,274.784 55.282,274.616 C55.15,274.448 55,274.304 54.832,274.184 C54.664,274.064 54.496,273.968 54.328,273.896 L54.328,273.896 L54.328,273.878 C54.472,273.806 54.613,273.71 54.751,273.59 C54.889,273.47 55.015,273.335 55.129,273.185 C55.243,273.035 55.336,272.867 55.408,272.681 C55.48,272.495 55.516,272.294 55.516,272.078 C55.516,271.814 55.462,271.562 55.354,271.322 C55.246,271.082 55.081,270.869 54.859,270.683 C54.637,270.497 54.361,270.35 54.031,270.242 C53.701,270.134 53.308,270.08 52.852,270.08 L52.852,270.08 L47.254,270.08 L47.254,270.404 C47.35,270.404 47.443,270.425 47.533,270.467 C47.623,270.509 47.668,270.578 47.668,270.674 L47.668,270.674 L47.668,277.406 C47.668,277.502 47.623,277.571 47.533,277.613 C47.443,277.655 47.35,277.676 47.254,277.676 L47.254,277.676 L47.254,278 L52.78,278 Z M52.6,273.212 L49.396,273.212 L49.396,271.412 L52.6,271.412 C52.744,271.412 52.888,271.421 53.032,271.439 C53.176,271.457 53.302,271.499 53.41,271.565 C53.518,271.631 53.608,271.721 53.68,271.835 C53.752,271.949 53.788,272.102 53.788,272.294 C53.788,272.666 53.662,272.912 53.41,273.032 C53.158,273.152 52.888,273.212 52.6,273.212 L52.6,273.212 Z M52.564,276.668 L49.396,276.668 L49.396,274.544 L52.276,274.544 C52.9,274.544 53.344,274.634 53.608,274.814 C53.872,274.994 54.004,275.27 54.004,275.642 C54.004,275.966 53.902,276.218 53.698,276.398 C53.494,276.578 53.116,276.668 52.564,276.668 L52.564,276.668 Z M65.902,278.198 L65.902,276.308 L65.578,276.308 C65.578,276.416 65.53,276.503 65.434,276.569 C65.338,276.635 65.218,276.668 65.074,276.668 L65.074,276.668 L60.466,276.668 L60.466,274.544 L63.094,274.544 C63.334,274.544 63.52,274.559 63.652,274.589 C63.784,274.619 63.832,274.7 63.796,274.832 L63.796,274.832 L64.156,274.832 L64.156,272.924 L63.832,272.924 C63.832,273.056 63.784,273.137 63.688,273.167 C63.592,273.197 63.442,273.212 63.238,273.212 L63.238,273.212 L60.466,273.212 L60.466,271.412 L64.858,271.412 C65.23,271.412 65.416,271.526 65.416,271.754 L65.416,271.754 L65.74,271.754 L65.74,269.756 L65.416,269.756 C65.416,269.972 65.23,270.08 64.858,270.08 L64.858,270.08 L58.468,270.08 L58.468,270.404 C58.528,270.404 58.588,270.425 58.648,270.467 C58.708,270.509 58.738,270.578 58.738,270.674 L58.738,270.674 L58.738,277.406 C58.738,277.502 58.708,277.571 58.648,277.613 C58.588,277.655 58.528,277.676 58.468,277.676 L58.468,277.676 L58.468,278 L65.074,278 C65.218,278 65.338,278.006 65.434,278.018 C65.53,278.03 65.578,278.09 65.578,278.198 L65.578,278.198 L65.902,278.198 Z M76.342,278 L76.342,277.676 C76.27,277.676 76.207,277.655 76.153,277.613 C76.099,277.571 76.072,277.502 76.072,277.406 L76.072,277.406 L76.072,274.688 L80.896,274.688 L80.896,277.406 C80.896,277.502 80.869,277.571 80.815,277.613 C80.761,277.655 80.698,277.676 80.626,277.676 L80.626,277.676 L80.626,278 L82.894,278 L82.894,277.676 C82.822,277.676 82.759,277.655 82.705,277.613 C82.651,277.571 82.624,277.502 82.624,277.406 L82.624,277.406 L82.624,270.674 C82.624,270.578 82.651,270.509 82.705,270.467 C82.759,270.425 82.822,270.404 82.894,270.404 L82.894,270.404 L82.894,270.08 L80.626,270.08 L80.626,270.404 C80.698,270.404 80.761,270.425 80.815,270.467 C80.869,270.509 80.896,270.578 80.896,270.674 L80.896,270.674 L80.896,273.212 L76.072,273.212 L76.072,270.674 C76.072,270.578 76.099,270.509 76.153,270.467 C76.207,270.425 76.27,270.404 76.342,270.404 L76.342,270.404 L76.342,270.08 L74.074,270.08 L74.074,270.404 C74.146,270.404 74.209,270.425 74.263,270.467 C74.317,270.509 74.344,270.578 74.344,270.674 L74.344,270.674 L74.344,277.406 C74.344,277.502 74.317,277.571 74.263,277.613 C74.209,277.655 74.146,277.676 74.074,277.676 L74.074,277.676 L74.074,278 L76.342,278 Z M88.852,278 L88.852,277.676 C88.516,277.676 88.348,277.586 88.348,277.406 L88.348,277.406 L88.348,270.674 C88.348,270.494 88.516,270.404 88.852,270.404 L88.852,270.404 L88.852,270.08 L86.116,270.08 L86.116,270.404 C86.308,270.404 86.44,270.425 86.512,270.467 C86.584,270.509 86.62,270.578 86.62,270.674 L86.62,270.674 L86.62,277.406 C86.62,277.502 86.584,277.571 86.512,277.613 C86.44,277.655 86.308,277.676 86.116,277.676 L86.116,277.676 L86.116,278 L88.852,278 Z M96.178,278.054 C96.754,278.054 97.276,278.015 97.744,277.937 C98.212,277.859 98.623,277.76 98.977,277.64 C99.331,277.52 99.625,277.397 99.859,277.271 C100.093,277.145 100.264,277.046 100.372,276.974 L100.372,276.974 L100.372,276.758 C100.252,276.71 100.177,276.665 100.147,276.623 C100.117,276.581 100.102,276.506 100.102,276.398 L100.102,276.398 L100.102,274.688 C100.102,274.568 100.12,274.478 100.156,274.418 C100.192,274.358 100.264,274.304 100.372,274.256 L100.372,274.256 L100.372,273.932 L96.844,273.932 C96.712,273.932 96.598,273.914 96.502,273.878 C96.406,273.842 96.346,273.764 96.322,273.644 L96.322,273.644 L95.998,273.644 L95.998,275.498 L96.322,275.498 C96.346,275.354 96.406,275.255 96.502,275.201 C96.598,275.147 96.712,275.12 96.844,275.12 L96.844,275.12 L98.698,275.12 L98.698,276.254 C98.314,276.458 97.891,276.596 97.429,276.668 C96.967,276.74 96.478,276.776 95.962,276.776 C95.614,276.776 95.254,276.728 94.882,276.632 C94.51,276.536 94.171,276.383 93.865,276.173 C93.559,275.963 93.31,275.687 93.118,275.345 C92.926,275.003 92.83,274.58 92.83,274.076 C92.83,273.572 92.92,273.146 93.1,272.798 C93.28,272.45 93.52,272.165 93.82,271.943 C94.12,271.721 94.468,271.559 94.864,271.457 C95.26,271.355 95.68,271.304 96.124,271.304 C96.448,271.304 96.769,271.337 97.087,271.403 C97.405,271.469 97.69,271.556 97.942,271.664 C98.194,271.772 98.398,271.889 98.554,272.015 C98.71,272.141 98.788,272.258 98.788,272.366 C98.788,272.378 98.776,272.444 98.752,272.564 L98.752,272.564 L98.968,272.69 L100.012,270.728 L99.796,270.62 C99.724,270.68 99.664,270.719 99.616,270.737 C99.568,270.755 99.496,270.764 99.4,270.764 C99.316,270.764 99.19,270.722 99.022,270.638 C98.854,270.554 98.632,270.464 98.356,270.368 C98.092,270.272 97.78,270.182 97.42,270.098 C97.06,270.014 96.646,269.972 96.178,269.972 C95.398,269.972 94.693,270.065 94.063,270.251 C93.433,270.437 92.899,270.707 92.461,271.061 C92.023,271.415 91.687,271.841 91.453,272.339 C91.219,272.837 91.102,273.404 91.102,274.04 C91.102,274.676 91.219,275.243 91.453,275.741 C91.687,276.239 92.023,276.662 92.461,277.01 C92.899,277.358 93.433,277.619 94.063,277.793 C94.693,277.967 95.398,278.054 96.178,278.054 Z M105.34,278 L105.34,277.676 C105.268,277.676 105.205,277.655 105.151,277.613 C105.097,277.571 105.07,277.502 105.07,277.406 L105.07,277.406 L105.07,274.688 L109.894,274.688 L109.894,277.406 C109.894,277.502 109.867,277.571 109.813,277.613 C109.759,277.655 109.696,277.676 109.624,277.676 L109.624,277.676 L109.624,278 L111.892,278 L111.892,277.676 C111.82,277.676 111.757,277.655 111.703,277.613 C111.649,277.571 111.622,277.502 111.622,277.406 L111.622,277.406 L111.622,270.674 C111.622,270.578 111.649,270.509 111.703,270.467 C111.757,270.425 111.82,270.404 111.892,270.404 L111.892,270.404 L111.892,270.08 L109.624,270.08 L109.624,270.404 C109.696,270.404 109.759,270.425 109.813,270.467 C109.867,270.509 109.894,270.578 109.894,270.674 L109.894,270.674 L109.894,273.212 L105.07,273.212 L105.07,270.674 C105.07,270.578 105.097,270.509 105.151,270.467 C105.205,270.425 105.268,270.404 105.34,270.404 L105.34,270.404 L105.34,270.08 L103.072,270.08 L103.072,270.404 C103.144,270.404 103.207,270.425 103.261,270.467 C103.315,270.509 103.342,270.578 103.342,270.674 L103.342,270.674 L103.342,277.406 C103.342,277.502 103.315,277.571 103.261,277.613 C103.207,277.655 103.144,277.676 103.072,277.676 L103.072,277.676 L103.072,278 L105.34,278 Z M114.43,280.664 C114.802,280.58 115.162,280.43 115.51,280.214 C115.858,279.998 116.164,279.74 116.428,279.44 C116.692,279.14 116.905,278.813 117.067,278.459 C117.229,278.105 117.31,277.736 117.31,277.352 C117.31,276.848 117.187,276.422 116.941,276.074 C116.695,275.726 116.332,275.552 115.852,275.552 C115.54,275.552 115.261,275.678 115.015,275.93 C114.769,276.182 114.646,276.482 114.646,276.83 C114.646,277.19 114.757,277.469 114.979,277.667 C115.201,277.865 115.462,277.964 115.762,277.964 C115.858,277.964 115.96,277.97 116.068,277.982 C116.176,277.994 116.242,278.024 116.266,278.072 C116.29,278.288 116.242,278.504 116.122,278.72 C116.002,278.936 115.849,279.137 115.663,279.323 C115.477,279.509 115.27,279.671 115.042,279.809 C114.814,279.947 114.61,280.04 114.43,280.088 L114.43,280.088 L114.43,280.664 Z M128.956,278 L128.956,277.676 C128.644,277.676 128.488,277.568 128.488,277.352 L128.488,277.352 L128.488,269.18 C128.488,268.964 128.644,268.856 128.956,268.856 L128.956,268.856 L128.956,268.532 L125.968,268.532 L125.968,268.856 C126.28,268.856 126.436,268.964 126.436,269.18 L126.436,269.18 L126.436,277.352 C126.436,277.568 126.28,277.676 125.968,277.676 L125.968,277.676 L125.968,278 L128.956,278 Z M131.296,273.41 C131.668,273.326 132.028,273.176 132.376,272.96 C132.724,272.744 133.03,272.486 133.294,272.186 C133.558,271.886 133.771,271.553 133.933,271.187 C134.095,270.821 134.176,270.44 134.176,270.044 C134.176,269.54 134.053,269.114 133.807,268.766 C133.561,268.418 133.198,268.244 132.718,268.244 C132.406,268.244 132.127,268.37 131.881,268.622 C131.635,268.874 131.512,269.174 131.512,269.522 C131.512,269.882 131.623,270.161 131.845,270.359 C132.067,270.557 132.328,270.656 132.628,270.656 C132.724,270.656 132.826,270.662 132.934,270.674 C133.042,270.686 133.108,270.734 133.132,270.818 C133.156,271.034 133.108,271.25 132.988,271.466 C132.868,271.682 132.715,271.883 132.529,272.069 C132.343,272.255 132.136,272.417 131.908,272.555 C131.68,272.693 131.476,272.786 131.296,272.834 L131.296,272.834 L131.296,273.41 Z M141.898,278 L141.898,277.676 C141.682,277.64 141.574,277.586 141.574,277.514 C141.574,277.454 141.607,277.37 141.673,277.262 C141.739,277.154 141.838,276.944 141.97,276.632 L141.97,276.632 L144.598,270.818 C144.73,270.542 144.88,270.404 145.048,270.404 L145.048,270.404 L145.048,270.08 L142.69,270.08 L142.69,270.404 C142.858,270.404 142.948,270.476 142.96,270.62 C142.972,270.704 142.942,270.818 142.87,270.962 C142.798,271.106 142.696,271.322 142.564,271.61 L142.564,271.61 L140.602,275.966 L138.532,271.484 C138.448,271.304 138.373,271.139 138.307,270.989 C138.241,270.839 138.208,270.722 138.208,270.638 C138.208,270.482 138.28,270.404 138.424,270.404 L138.424,270.404 L138.424,270.08 L135.886,270.08 L135.886,270.404 C135.958,270.404 136.033,270.434 136.111,270.494 C136.189,270.554 136.252,270.638 136.3,270.746 L136.3,270.746 L139.036,276.632 C139.144,276.86 139.237,277.04 139.315,277.172 C139.393,277.304 139.432,277.4 139.432,277.46 C139.432,277.52 139.405,277.565 139.351,277.595 C139.297,277.625 139.24,277.652 139.18,277.676 L139.18,277.676 L139.18,278 L141.898,278 Z M154.39,278.198 L154.39,276.308 L154.066,276.308 C154.066,276.416 154.018,276.503 153.922,276.569 C153.826,276.635 153.706,276.668 153.562,276.668 L153.562,276.668 L148.954,276.668 L148.954,274.544 L151.582,274.544 C151.822,274.544 152.008,274.559 152.14,274.589 C152.272,274.619 152.32,274.7 152.284,274.832 L152.284,274.832 L152.644,274.832 L152.644,272.924 L152.32,272.924 C152.32,273.056 152.272,273.137 152.176,273.167 C152.08,273.197 151.93,273.212 151.726,273.212 L151.726,273.212 L148.954,273.212 L148.954,271.412 L153.346,271.412 C153.718,271.412 153.904,271.526 153.904,271.754 L153.904,271.754 L154.228,271.754 L154.228,269.756 L153.904,269.756 C153.904,269.972 153.718,270.08 153.346,270.08 L153.346,270.08 L146.956,270.08 L146.956,270.404 C147.016,270.404 147.076,270.425 147.136,270.467 C147.196,270.509 147.226,270.578 147.226,270.674 L147.226,270.674 L147.226,277.406 C147.226,277.502 147.196,277.571 147.136,277.613 C147.076,277.655 147.016,277.676 146.956,277.676 L146.956,277.676 L146.956,278 L153.562,278 C153.706,278 153.826,278.006 153.922,278.018 C154.018,278.03 154.066,278.09 154.066,278.198 L154.066,278.198 L154.39,278.198 Z M164.65,278 L164.65,277.676 C164.398,277.676 164.272,277.586 164.272,277.406 L164.272,277.406 L164.272,272.168 L168.736,276.92 C168.88,277.076 169.009,277.214 169.123,277.334 C169.237,277.454 169.294,277.538 169.294,277.586 C169.294,277.646 169.252,277.676 169.168,277.676 L169.168,277.676 L169.168,278 L171.508,278 L171.508,277.676 C171.292,277.676 171.184,277.586 171.184,277.406 L171.184,277.406 L171.184,270.674 C171.184,270.494 171.292,270.404 171.508,270.404 L171.508,270.404 L171.508,270.08 L169.312,270.08 L169.312,270.404 C169.552,270.404 169.672,270.494 169.672,270.674 L169.672,270.674 L169.672,275.552 L165.352,270.98 C165.088,270.716 164.956,270.554 164.956,270.494 C164.956,270.446 164.998,270.416 165.082,270.404 L165.082,270.404 L165.082,270.08 L162.436,270.08 L162.436,270.404 C162.652,270.404 162.76,270.494 162.76,270.674 L162.76,270.674 L162.76,277.406 C162.76,277.586 162.652,277.676 162.436,277.676 L162.436,277.676 L162.436,278 L164.65,278 Z M181.894,278.198 L181.894,276.308 L181.57,276.308 C181.57,276.416 181.522,276.503 181.426,276.569 C181.33,276.635 181.21,276.668 181.066,276.668 L181.066,276.668 L176.458,276.668 L176.458,274.544 L179.086,274.544 C179.326,274.544 179.512,274.559 179.644,274.589 C179.776,274.619 179.824,274.7 179.788,274.832 L179.788,274.832 L180.148,274.832 L180.148,272.924 L179.824,272.924 C179.824,273.056 179.776,273.137 179.68,273.167 C179.584,273.197 179.434,273.212 179.23,273.212 L179.23,273.212 L176.458,273.212 L176.458,271.412 L180.85,271.412 C181.222,271.412 181.408,271.526 181.408,271.754 L181.408,271.754 L181.732,271.754 L181.732,269.756 L181.408,269.756 C181.408,269.972 181.222,270.08 180.85,270.08 L180.85,270.08 L174.46,270.08 L174.46,270.404 C174.52,270.404 174.58,270.425 174.64,270.467 C174.7,270.509 174.73,270.578 174.73,270.674 L174.73,270.674 L174.73,277.406 C174.73,277.502 174.7,277.571 174.64,277.613 C174.58,277.655 174.52,277.676 174.46,277.676 L174.46,277.676 L174.46,278 L181.066,278 C181.21,278 181.33,278.006 181.426,278.018 C181.522,278.03 181.57,278.09 181.57,278.198 L181.57,278.198 L181.894,278.198 Z M189.418,278 L189.418,277.676 C189.202,277.64 189.094,277.586 189.094,277.514 C189.094,277.454 189.127,277.37 189.193,277.262 C189.259,277.154 189.358,276.944 189.49,276.632 L189.49,276.632 L192.118,270.818 C192.25,270.542 192.4,270.404 192.568,270.404 L192.568,270.404 L192.568,270.08 L190.21,270.08 L190.21,270.404 C190.378,270.404 190.468,270.476 190.48,270.62 C190.492,270.704 190.462,270.818 190.39,270.962 C190.318,271.106 190.216,271.322 190.084,271.61 L190.084,271.61 L188.122,275.966 L186.052,271.484 C185.968,271.304 185.893,271.139 185.827,270.989 C185.761,270.839 185.728,270.722 185.728,270.638 C185.728,270.482 185.8,270.404 185.944,270.404 L185.944,270.404 L185.944,270.08 L183.406,270.08 L183.406,270.404 C183.478,270.404 183.553,270.434 183.631,270.494 C183.709,270.554 183.772,270.638 183.82,270.746 L183.82,270.746 L186.556,276.632 C186.664,276.86 186.757,277.04 186.835,277.172 C186.913,277.304 186.952,277.4 186.952,277.46 C186.952,277.52 186.925,277.565 186.871,277.595 C186.817,277.625 186.76,277.652 186.7,277.676 L186.7,277.676 L186.7,278 L189.418,278 Z M201.91,278.198 L201.91,276.308 L201.586,276.308 C201.586,276.416 201.538,276.503 201.442,276.569 C201.346,276.635 201.226,276.668 201.082,276.668 L201.082,276.668 L196.474,276.668 L196.474,274.544 L199.102,274.544 C199.342,274.544 199.528,274.559 199.66,274.589 C199.792,274.619 199.84,274.7 199.804,274.832 L199.804,274.832 L200.164,274.832 L200.164,272.924 L199.84,272.924 C199.84,273.056 199.792,273.137 199.696,273.167 C199.6,273.197 199.45,273.212 199.246,273.212 L199.246,273.212 L196.474,273.212 L196.474,271.412 L200.866,271.412 C201.238,271.412 201.424,271.526 201.424,271.754 L201.424,271.754 L201.748,271.754 L201.748,269.756 L201.424,269.756 C201.424,269.972 201.238,270.08 200.866,270.08 L200.866,270.08 L194.476,270.08 L194.476,270.404 C194.536,270.404 194.596,270.425 194.656,270.467 C194.716,270.509 194.746,270.578 194.746,270.674 L194.746,270.674 L194.746,277.406 C194.746,277.502 194.716,277.571 194.656,277.613 C194.596,277.655 194.536,277.676 194.476,277.676 L194.476,277.676 L194.476,278 L201.082,278 C201.226,278 201.346,278.006 201.442,278.018 C201.538,278.03 201.586,278.09 201.586,278.198 L201.586,278.198 L201.91,278.198 Z M206.806,278 L206.806,277.676 C206.734,277.676 206.659,277.655 206.581,277.613 C206.503,277.571 206.464,277.502 206.464,277.406 L206.464,277.406 L206.464,274.832 L208.966,274.832 L210.388,276.956 C210.568,277.208 210.658,277.394 210.658,277.514 C210.658,277.622 210.58,277.676 210.424,277.676 L210.424,277.676 L210.424,278 L213.178,278 L213.178,277.676 C213.046,277.64 212.923,277.589 212.809,277.523 C212.695,277.457 212.59,277.358 212.494,277.226 L212.494,277.226 L210.73,274.652 C210.982,274.592 211.228,274.505 211.468,274.391 C211.708,274.277 211.927,274.127 212.125,273.941 C212.323,273.755 212.482,273.536 212.602,273.284 C212.722,273.032 212.782,272.744 212.782,272.42 C212.782,271.568 212.482,270.965 211.882,270.611 C211.282,270.257 210.448,270.08 209.38,270.08 L209.38,270.08 L204.412,270.08 L204.412,270.404 C204.628,270.404 204.736,270.494 204.736,270.674 L204.736,270.674 L204.736,277.406 C204.736,277.586 204.628,277.676 204.412,277.676 L204.412,277.676 L204.412,278 L206.806,278 Z M209.344,273.5 L206.5,273.5 L206.5,271.412 L209.344,271.412 C209.956,271.412 210.403,271.499 210.685,271.673 C210.967,271.847 211.108,272.084 211.108,272.384 C211.108,273.128 210.52,273.5 209.344,273.5 L209.344,273.5 Z M81.031,296 C81.739,296 82.339,295.886 82.831,295.658 C83.323,295.43 83.725,295.133 84.037,294.767 C84.349,294.401 84.577,293.981 84.721,293.507 C84.865,293.033 84.937,292.544 84.937,292.04 C84.937,291.536 84.862,291.047 84.712,290.573 C84.562,290.099 84.328,289.679 84.01,289.313 C83.692,288.947 83.281,288.65 82.777,288.422 C82.273,288.194 81.667,288.08 80.959,288.08 L80.959,288.08 L75.955,288.08 L75.955,288.404 C76.231,288.404 76.369,288.494 76.369,288.674 L76.369,288.674 L76.369,295.406 C76.369,295.586 76.231,295.676 75.955,295.676 L75.955,295.676 L75.955,296 L81.031,296 Z M80.437,294.668 L78.097,294.668 L78.097,289.412 L80.437,289.412 C80.809,289.412 81.163,289.433 81.499,289.475 C81.835,289.517 82.129,289.625 82.381,289.799 C82.633,289.973 82.834,290.231 82.984,290.573 C83.134,290.915 83.209,291.386 83.209,291.986 C83.209,292.586 83.134,293.063 82.984,293.417 C82.834,293.771 82.633,294.041 82.381,294.227 C82.129,294.413 81.835,294.533 81.499,294.587 C81.163,294.641 80.809,294.668 80.437,294.668 L80.437,294.668 Z M91.237,296.054 C91.897,296.054 92.518,295.979 93.1,295.829 C93.682,295.679 94.189,295.436 94.621,295.1 C95.053,294.764 95.395,294.341 95.647,293.831 C95.899,293.321 96.025,292.724 96.025,292.04 C96.025,291.356 95.899,290.759 95.647,290.249 C95.395,289.739 95.053,289.316 94.621,288.98 C94.189,288.644 93.682,288.392 93.1,288.224 C92.518,288.056 91.897,287.972 91.237,287.972 C90.577,287.972 89.956,288.056 89.374,288.224 C88.792,288.392 88.285,288.644 87.853,288.98 C87.421,289.316 87.079,289.739 86.827,290.249 C86.575,290.759 86.449,291.356 86.449,292.04 C86.449,292.724 86.575,293.321 86.827,293.831 C87.079,294.341 87.421,294.764 87.853,295.1 C88.285,295.436 88.792,295.679 89.374,295.829 C89.956,295.979 90.577,296.054 91.237,296.054 Z M91.237,294.776 C90.853,294.776 90.478,294.713 90.112,294.587 C89.746,294.461 89.419,294.281 89.131,294.047 C88.843,293.813 88.612,293.528 88.438,293.192 C88.264,292.856 88.177,292.472 88.177,292.04 C88.177,291.608 88.264,291.224 88.438,290.888 C88.612,290.552 88.843,290.267 89.131,290.033 C89.419,289.799 89.746,289.619 90.112,289.493 C90.478,289.367 90.853,289.304 91.237,289.304 C91.621,289.304 91.996,289.367 92.362,289.493 C92.728,289.619 93.055,289.799 93.343,290.033 C93.631,290.267 93.862,290.552 94.036,290.888 C94.21,291.224 94.297,291.608 94.297,292.04 C94.297,292.472 94.21,292.856 94.036,293.192 C93.862,293.528 93.631,293.813 93.343,294.047 C93.055,294.281 92.728,294.461 92.362,294.587 C91.996,294.713 91.621,294.776 91.237,294.776 Z M100.417,296 L100.417,295.676 C100.165,295.676 100.039,295.586 100.039,295.406 L100.039,295.406 L100.039,290.168 L104.503,294.92 C104.647,295.076 104.776,295.214 104.89,295.334 C105.004,295.454 105.061,295.538 105.061,295.586 C105.061,295.646 105.019,295.676 104.935,295.676 L104.935,295.676 L104.935,296 L107.275,296 L107.275,295.676 C107.059,295.676 106.951,295.586 106.951,295.406 L106.951,295.406 L106.951,288.674 C106.951,288.494 107.059,288.404 107.275,288.404 L107.275,288.404 L107.275,288.08 L105.079,288.08 L105.079,288.404 C105.319,288.404 105.439,288.494 105.439,288.674 L105.439,288.674 L105.439,293.552 L101.119,288.98 C100.855,288.716 100.723,288.554 100.723,288.494 C100.723,288.446 100.765,288.416 100.849,288.404 L100.849,288.404 L100.849,288.08 L98.203,288.08 L98.203,288.404 C98.419,288.404 98.527,288.494 98.527,288.674 L98.527,288.674 L98.527,295.406 C98.527,295.586 98.419,295.676 98.203,295.676 L98.203,295.676 L98.203,296 L100.417,296 Z M117.661,296.198 L117.661,294.308 L117.337,294.308 C117.337,294.416 117.289,294.503 117.193,294.569 C117.097,294.635 116.977,294.668 116.833,294.668 L116.833,294.668 L112.225,294.668 L112.225,292.544 L114.853,292.544 C115.093,292.544 115.279,292.559 115.411,292.589 C115.543,292.619 115.591,292.7 115.555,292.832 L115.555,292.832 L115.915,292.832 L115.915,290.924 L115.591,290.924 C115.591,291.056 115.543,291.137 115.447,291.167 C115.351,291.197 115.201,291.212 114.997,291.212 L114.997,291.212 L112.225,291.212 L112.225,289.412 L116.617,289.412 C116.989,289.412 117.175,289.526 117.175,289.754 L117.175,289.754 L117.499,289.754 L117.499,287.756 L117.175,287.756 C117.175,287.972 116.989,288.08 116.617,288.08 L116.617,288.08 L110.227,288.08 L110.227,288.404 C110.287,288.404 110.347,288.425 110.407,288.467 C110.467,288.509 110.497,288.578 110.497,288.674 L110.497,288.674 L110.497,295.406 C110.497,295.502 110.467,295.571 110.407,295.613 C110.347,295.655 110.287,295.676 110.227,295.676 L110.227,295.676 L110.227,296 L116.833,296 C116.977,296 117.097,296.006 117.193,296.018 C117.289,296.03 117.337,296.09 117.337,296.198 L117.337,296.198 L117.661,296.198 Z M130.531,296 C131.239,296 131.839,295.886 132.331,295.658 C132.823,295.43 133.225,295.133 133.537,294.767 C133.849,294.401 134.077,293.981 134.221,293.507 C134.365,293.033 134.437,292.544 134.437,292.04 C134.437,291.536 134.362,291.047 134.212,290.573 C134.062,290.099 133.828,289.679 133.51,289.313 C133.192,288.947 132.781,288.65 132.277,288.422 C131.773,288.194 131.167,288.08 130.459,288.08 L130.459,288.08 L125.455,288.08 L125.455,288.404 C125.731,288.404 125.869,288.494 125.869,288.674 L125.869,288.674 L125.869,295.406 C125.869,295.586 125.731,295.676 125.455,295.676 L125.455,295.676 L125.455,296 L130.531,296 Z M129.937,294.668 L127.597,294.668 L127.597,289.412 L129.937,289.412 C130.309,289.412 130.663,289.433 130.999,289.475 C131.335,289.517 131.629,289.625 131.881,289.799 C132.133,289.973 132.334,290.231 132.484,290.573 C132.634,290.915 132.709,291.386 132.709,291.986 C132.709,292.586 132.634,293.063 132.484,293.417 C132.334,293.771 132.133,294.041 131.881,294.227 C131.629,294.413 131.335,294.533 130.999,294.587 C130.663,294.641 130.309,294.668 129.937,294.668 L129.937,294.668 Z M139.045,296 L139.045,295.676 C138.973,295.676 138.898,295.655 138.82,295.613 C138.742,295.571 138.703,295.502 138.703,295.406 L138.703,295.406 L138.703,292.832 L141.205,292.832 L142.627,294.956 C142.807,295.208 142.897,295.394 142.897,295.514 C142.897,295.622 142.819,295.676 142.663,295.676 L142.663,295.676 L142.663,296 L145.417,296 L145.417,295.676 C145.285,295.64 145.162,295.589 145.048,295.523 C144.934,295.457 144.829,295.358 144.733,295.226 L144.733,295.226 L142.969,292.652 C143.221,292.592 143.467,292.505 143.707,292.391 C143.947,292.277 144.166,292.127 144.364,291.941 C144.562,291.755 144.721,291.536 144.841,291.284 C144.961,291.032 145.021,290.744 145.021,290.42 C145.021,289.568 144.721,288.965 144.121,288.611 C143.521,288.257 142.687,288.08 141.619,288.08 L141.619,288.08 L136.651,288.08 L136.651,288.404 C136.867,288.404 136.975,288.494 136.975,288.674 L136.975,288.674 L136.975,295.406 C136.975,295.586 136.867,295.676 136.651,295.676 L136.651,295.676 L136.651,296 L139.045,296 Z M141.583,291.5 L138.739,291.5 L138.739,289.412 L141.583,289.412 C142.195,289.412 142.642,289.499 142.924,289.673 C143.206,289.847 143.347,290.084 143.347,290.384 C143.347,291.128 142.759,291.5 141.583,291.5 L141.583,291.5 Z M152.311,296.054 C153.031,296.054 153.658,295.979 154.192,295.829 C154.726,295.679 155.164,295.472 155.506,295.208 C155.848,294.944 156.103,294.641 156.271,294.299 C156.439,293.957 156.523,293.6 156.523,293.228 L156.523,293.228 L156.523,288.674 C156.523,288.494 156.655,288.404 156.919,288.404 L156.919,288.404 L156.919,288.08 L154.417,288.08 L154.417,288.404 C154.717,288.404 154.867,288.494 154.867,288.674 L154.867,288.674 L154.867,292.796 C154.867,293.372 154.657,293.834 154.237,294.182 C153.817,294.53 153.175,294.704 152.311,294.704 C151.447,294.704 150.805,294.53 150.385,294.182 C149.965,293.834 149.755,293.372 149.755,292.796 L149.755,292.796 L149.755,288.674 C149.755,288.494 149.887,288.404 150.151,288.404 L150.151,288.404 L150.151,288.08 L147.577,288.08 L147.577,288.404 C147.781,288.404 147.919,288.425 147.991,288.467 C148.063,288.509 148.099,288.578 148.099,288.674 L148.099,288.674 L148.099,293.228 C148.099,293.6 148.183,293.957 148.351,294.299 C148.519,294.641 148.774,294.944 149.116,295.208 C149.458,295.472 149.896,295.679 150.43,295.829 C150.964,295.979 151.591,296.054 152.311,296.054 Z M163.939,296.054 C164.515,296.054 165.037,296.015 165.505,295.937 C165.973,295.859 166.384,295.76 166.738,295.64 C167.092,295.52 167.386,295.397 167.62,295.271 C167.854,295.145 168.025,295.046 168.133,294.974 L168.133,294.974 L168.133,294.758 C168.013,294.71 167.938,294.665 167.908,294.623 C167.878,294.581 167.863,294.506 167.863,294.398 L167.863,294.398 L167.863,292.688 C167.863,292.568 167.881,292.478 167.917,292.418 C167.953,292.358 168.025,292.304 168.133,292.256 L168.133,292.256 L168.133,291.932 L164.605,291.932 C164.473,291.932 164.359,291.914 164.263,291.878 C164.167,291.842 164.107,291.764 164.083,291.644 L164.083,291.644 L163.759,291.644 L163.759,293.498 L164.083,293.498 C164.107,293.354 164.167,293.255 164.263,293.201 C164.359,293.147 164.473,293.12 164.605,293.12 L164.605,293.12 L166.459,293.12 L166.459,294.254 C166.075,294.458 165.652,294.596 165.19,294.668 C164.728,294.74 164.239,294.776 163.723,294.776 C163.375,294.776 163.015,294.728 162.643,294.632 C162.271,294.536 161.932,294.383 161.626,294.173 C161.32,293.963 161.071,293.687 160.879,293.345 C160.687,293.003 160.591,292.58 160.591,292.076 C160.591,291.572 160.681,291.146 160.861,290.798 C161.041,290.45 161.281,290.165 161.581,289.943 C161.881,289.721 162.229,289.559 162.625,289.457 C163.021,289.355 163.441,289.304 163.885,289.304 C164.209,289.304 164.53,289.337 164.848,289.403 C165.166,289.469 165.451,289.556 165.703,289.664 C165.955,289.772 166.159,289.889 166.315,290.015 C166.471,290.141 166.549,290.258 166.549,290.366 C166.549,290.378 166.537,290.444 166.513,290.564 L166.513,290.564 L166.729,290.69 L167.773,288.728 L167.557,288.62 C167.485,288.68 167.425,288.719 167.377,288.737 C167.329,288.755 167.257,288.764 167.161,288.764 C167.077,288.764 166.951,288.722 166.783,288.638 C166.615,288.554 166.393,288.464 166.117,288.368 C165.853,288.272 165.541,288.182 165.181,288.098 C164.821,288.014 164.407,287.972 163.939,287.972 C163.159,287.972 162.454,288.065 161.824,288.251 C161.194,288.437 160.66,288.707 160.222,289.061 C159.784,289.415 159.448,289.841 159.214,290.339 C158.98,290.837 158.863,291.404 158.863,292.04 C158.863,292.676 158.98,293.243 159.214,293.741 C159.448,294.239 159.784,294.662 160.222,295.01 C160.66,295.358 161.194,295.619 161.824,295.793 C162.454,295.967 163.159,296.054 163.939,296.054 Z M174.109,296.054 C174.517,296.054 174.952,296.024 175.414,295.964 C175.876,295.904 176.299,295.778 176.683,295.586 C177.067,295.394 177.388,295.13 177.646,294.794 C177.904,294.458 178.033,294.026 178.033,293.498 C178.033,292.97 177.886,292.556 177.592,292.256 C177.298,291.956 176.929,291.728 176.485,291.572 C176.041,291.416 175.561,291.305 175.045,291.239 C174.529,291.173 174.049,291.107 173.605,291.041 C173.161,290.975 172.792,290.885 172.498,290.771 C172.204,290.657 172.057,290.468 172.057,290.204 C172.057,290.036 172.105,289.895 172.201,289.781 C172.297,289.667 172.429,289.574 172.597,289.502 C172.765,289.43 172.957,289.379 173.173,289.349 C173.389,289.319 173.617,289.304 173.857,289.304 C174.481,289.304 175.045,289.376 175.549,289.52 C176.053,289.664 176.425,289.838 176.665,290.042 C176.761,290.114 176.815,290.186 176.827,290.258 C176.839,290.33 176.851,290.402 176.863,290.474 L176.863,290.474 L177.187,290.582 L178.087,288.89 L177.889,288.692 C177.817,288.728 177.757,288.761 177.709,288.791 C177.661,288.821 177.589,288.836 177.493,288.836 C177.409,288.836 177.28,288.791 177.106,288.701 C176.932,288.611 176.707,288.512 176.431,288.404 C176.155,288.296 175.816,288.197 175.414,288.107 C175.012,288.017 174.529,287.972 173.965,287.972 C172.813,287.972 171.919,288.2 171.283,288.656 C170.647,289.112 170.329,289.724 170.329,290.492 C170.329,291.008 170.476,291.407 170.77,291.689 C171.064,291.971 171.433,292.187 171.877,292.337 C172.321,292.487 172.801,292.595 173.317,292.661 C173.833,292.727 174.313,292.793 174.757,292.859 C175.201,292.925 175.57,293.018 175.864,293.138 C176.158,293.258 176.305,293.45 176.305,293.714 C176.305,293.942 176.221,294.125 176.053,294.263 C175.885,294.401 175.681,294.509 175.441,294.587 C175.201,294.665 174.958,294.716 174.712,294.74 C174.466,294.764 174.259,294.776 174.091,294.776 C173.911,294.776 173.662,294.746 173.344,294.686 C173.026,294.626 172.708,294.545 172.39,294.443 C172.072,294.341 171.799,294.215 171.571,294.065 C171.343,293.915 171.229,293.75 171.229,293.57 C171.229,293.51 171.232,293.453 171.238,293.399 C171.244,293.345 171.247,293.294 171.247,293.246 L171.247,293.246 L170.905,293.156 L170.077,295.172 L170.329,295.352 C170.389,295.28 170.461,295.244 170.545,295.244 C170.593,295.244 170.731,295.289 170.959,295.379 C171.187,295.469 171.466,295.565 171.796,295.667 C172.126,295.769 172.492,295.859 172.894,295.937 C173.296,296.015 173.701,296.054 174.109,296.054 Z M183.001,292.724 L183.001,292.508 C182.905,292.508 182.827,292.493 182.767,292.463 C182.707,292.433 182.677,292.37 182.677,292.274 C182.677,292.19 182.683,292.109 182.695,292.031 C182.707,291.953 182.719,291.866 182.731,291.77 L182.731,291.77 L183.289,286.964 C183.313,286.82 183.349,286.718 183.397,286.658 C183.445,286.598 183.559,286.544 183.739,286.496 L183.739,286.496 L183.739,286.28 L180.751,286.28 L180.751,286.496 C180.931,286.544 181.045,286.598 181.093,286.658 C181.141,286.718 181.177,286.82 181.201,286.964 L181.201,286.964 L181.759,291.77 C181.771,291.866 181.783,291.953 181.795,292.031 C181.807,292.109 181.813,292.19 181.813,292.274 C181.813,292.37 181.783,292.433 181.723,292.463 C181.663,292.493 181.585,292.508 181.489,292.508 L181.489,292.508 L181.489,292.724 L183.001,292.724 Z M182.245,296.054 C182.557,296.054 182.827,295.949 183.055,295.739 C183.283,295.529 183.397,295.268 183.397,294.956 C183.397,294.644 183.283,294.374 183.055,294.146 C182.827,293.918 182.557,293.804 182.245,293.804 C181.933,293.804 181.663,293.918 181.435,294.146 C181.207,294.374 181.093,294.644 181.093,294.956 C181.093,295.268 181.207,295.529 181.435,295.739 C181.663,295.949 181.933,296.054 182.245,296.054 Z M57.19,314 L57.19,313.676 C56.962,313.676 56.848,313.61 56.848,313.478 C56.848,313.37 56.908,313.19 57.028,312.938 L57.028,312.938 L57.676,311.66 L62.068,311.66 L62.752,312.992 C62.848,313.184 62.896,313.34 62.896,313.46 C62.896,313.532 62.86,313.586 62.788,313.622 C62.716,313.658 62.656,313.676 62.608,313.676 L62.608,313.676 L62.608,314 L65.776,314 L65.776,313.676 C65.644,313.616 65.527,313.556 65.425,313.496 C65.323,313.436 65.242,313.34 65.182,313.208 L65.182,313.208 L61.438,305.882 C61.354,305.726 61.291,305.6 61.249,305.504 C61.207,305.408 61.186,305.312 61.186,305.216 C61.186,305.084 61.228,304.997 61.312,304.955 C61.396,304.913 61.48,304.88 61.564,304.856 L61.564,304.856 L61.564,304.532 L58.522,304.532 L58.522,304.856 C58.618,304.88 58.708,304.916 58.792,304.964 C58.876,305.012 58.918,305.096 58.918,305.216 C58.918,305.312 58.885,305.426 58.819,305.558 C58.753,305.69 58.678,305.834 58.594,305.99 L58.594,305.99 L55.264,312.992 C55.18,313.16 55.093,313.31 55.003,313.442 C54.913,313.574 54.79,313.652 54.634,313.676 L54.634,313.676 L54.634,314 L57.19,314 Z M61.42,310.328 L58.216,310.328 L59.908,306.98 L61.42,310.328 Z M72.544,314 C73.252,314 73.852,313.886 74.344,313.658 C74.836,313.43 75.238,313.133 75.55,312.767 C75.862,312.401 76.09,311.981 76.234,311.507 C76.378,311.033 76.45,310.544 76.45,310.04 C76.45,309.536 76.375,309.047 76.225,308.573 C76.075,308.099 75.841,307.679 75.523,307.313 C75.205,306.947 74.794,306.65 74.29,306.422 C73.786,306.194 73.18,306.08 72.472,306.08 L72.472,306.08 L67.468,306.08 L67.468,306.404 C67.744,306.404 67.882,306.494 67.882,306.674 L67.882,306.674 L67.882,313.406 C67.882,313.586 67.744,313.676 67.468,313.676 L67.468,313.676 L67.468,314 L72.544,314 Z M71.95,312.668 L69.61,312.668 L69.61,307.412 L71.95,307.412 C72.322,307.412 72.676,307.433 73.012,307.475 C73.348,307.517 73.642,307.625 73.894,307.799 C74.146,307.973 74.347,308.231 74.497,308.573 C74.647,308.915 74.722,309.386 74.722,309.986 C74.722,310.586 74.647,311.063 74.497,311.417 C74.347,311.771 74.146,312.041 73.894,312.227 C73.642,312.413 73.348,312.533 73.012,312.587 C72.676,312.641 72.322,312.668 71.95,312.668 L71.95,312.668 Z M83.542,314 C84.25,314 84.85,313.886 85.342,313.658 C85.834,313.43 86.236,313.133 86.548,312.767 C86.86,312.401 87.088,311.981 87.232,311.507 C87.376,311.033 87.448,310.544 87.448,310.04 C87.448,309.536 87.373,309.047 87.223,308.573 C87.073,308.099 86.839,307.679 86.521,307.313 C86.203,306.947 85.792,306.65 85.288,306.422 C84.784,306.194 84.178,306.08 83.47,306.08 L83.47,306.08 L78.466,306.08 L78.466,306.404 C78.742,306.404 78.88,306.494 78.88,306.674 L78.88,306.674 L78.88,313.406 C78.88,313.586 78.742,313.676 78.466,313.676 L78.466,313.676 L78.466,314 L83.542,314 Z M82.948,312.668 L80.608,312.668 L80.608,307.412 L82.948,307.412 C83.32,307.412 83.674,307.433 84.01,307.475 C84.346,307.517 84.64,307.625 84.892,307.799 C85.144,307.973 85.345,308.231 85.495,308.573 C85.645,308.915 85.72,309.386 85.72,309.986 C85.72,310.586 85.645,311.063 85.495,311.417 C85.345,311.771 85.144,312.041 84.892,312.227 C84.64,312.413 84.346,312.533 84.01,312.587 C83.674,312.641 83.32,312.668 82.948,312.668 L82.948,312.668 Z M99.436,314 L99.436,313.676 C99.22,313.676 99.112,313.586 99.112,313.406 L99.112,313.406 L99.112,307.412 L101.452,307.412 C101.548,307.412 101.638,307.436 101.722,307.484 C101.806,307.532 101.848,307.61 101.848,307.718 L101.848,307.718 L102.172,307.718 L102.172,305.648 L101.848,305.648 C101.848,305.816 101.806,305.93 101.722,305.99 C101.638,306.05 101.548,306.08 101.452,306.08 L101.452,306.08 L95.044,306.08 C94.948,306.08 94.858,306.05 94.774,305.99 C94.69,305.93 94.648,305.816 94.648,305.648 L94.648,305.648 L94.324,305.648 L94.324,307.718 L94.648,307.718 C94.648,307.61 94.69,307.532 94.774,307.484 C94.858,307.436 94.948,307.412 95.044,307.412 L95.044,307.412 L97.384,307.412 L97.384,313.406 C97.384,313.502 97.354,313.571 97.294,313.613 C97.234,313.655 97.174,313.676 97.114,313.676 L97.114,313.676 L97.114,314 L99.436,314 Z M106.6,314 L106.6,313.676 C106.528,313.676 106.465,313.655 106.411,313.613 C106.357,313.571 106.33,313.502 106.33,313.406 L106.33,313.406 L106.33,310.688 L111.154,310.688 L111.154,313.406 C111.154,313.502 111.127,313.571 111.073,313.613 C111.019,313.655 110.956,313.676 110.884,313.676 L110.884,313.676 L110.884,314 L113.152,314 L113.152,313.676 C113.08,313.676 113.017,313.655 112.963,313.613 C112.909,313.571 112.882,313.502 112.882,313.406 L112.882,313.406 L112.882,306.674 C112.882,306.578 112.909,306.509 112.963,306.467 C113.017,306.425 113.08,306.404 113.152,306.404 L113.152,306.404 L113.152,306.08 L110.884,306.08 L110.884,306.404 C110.956,306.404 111.019,306.425 111.073,306.467 C111.127,306.509 111.154,306.578 111.154,306.674 L111.154,306.674 L111.154,309.212 L106.33,309.212 L106.33,306.674 C106.33,306.578 106.357,306.509 106.411,306.467 C106.465,306.425 106.528,306.404 106.6,306.404 L106.6,306.404 L106.6,306.08 L104.332,306.08 L104.332,306.404 C104.404,306.404 104.467,306.425 104.521,306.467 C104.575,306.509 104.602,306.578 104.602,306.674 L104.602,306.674 L104.602,313.406 C104.602,313.502 104.575,313.571 104.521,313.613 C104.467,313.655 104.404,313.676 104.332,313.676 L104.332,313.676 L104.332,314 L106.6,314 Z M119.11,314 L119.11,313.676 C118.774,313.676 118.606,313.586 118.606,313.406 L118.606,313.406 L118.606,306.674 C118.606,306.494 118.774,306.404 119.11,306.404 L119.11,306.404 L119.11,306.08 L116.374,306.08 L116.374,306.404 C116.566,306.404 116.698,306.425 116.77,306.467 C116.842,306.509 116.878,306.578 116.878,306.674 L116.878,306.674 L116.878,313.406 C116.878,313.502 116.842,313.571 116.77,313.613 C116.698,313.655 116.566,313.676 116.374,313.676 L116.374,313.676 L116.374,314 L119.11,314 Z M125.608,314.054 C126.016,314.054 126.451,314.024 126.913,313.964 C127.375,313.904 127.798,313.778 128.182,313.586 C128.566,313.394 128.887,313.13 129.145,312.794 C129.403,312.458 129.532,312.026 129.532,311.498 C129.532,310.97 129.385,310.556 129.091,310.256 C128.797,309.956 128.428,309.728 127.984,309.572 C127.54,309.416 127.06,309.305 126.544,309.239 C126.028,309.173 125.548,309.107 125.104,309.041 C124.66,308.975 124.291,308.885 123.997,308.771 C123.703,308.657 123.556,308.468 123.556,308.204 C123.556,308.036 123.604,307.895 123.7,307.781 C123.796,307.667 123.928,307.574 124.096,307.502 C124.264,307.43 124.456,307.379 124.672,307.349 C124.888,307.319 125.116,307.304 125.356,307.304 C125.98,307.304 126.544,307.376 127.048,307.52 C127.552,307.664 127.924,307.838 128.164,308.042 C128.26,308.114 128.314,308.186 128.326,308.258 L128.326,308.258 L128.362,308.474 L128.686,308.582 L129.586,306.89 L129.388,306.692 C129.316,306.728 129.256,306.761 129.208,306.791 C129.16,306.821 129.088,306.836 128.992,306.836 C128.908,306.836 128.779,306.791 128.605,306.701 C128.431,306.611 128.206,306.512 127.93,306.404 C127.654,306.296 127.315,306.197 126.913,306.107 C126.511,306.017 126.028,305.972 125.464,305.972 C124.312,305.972 123.418,306.2 122.782,306.656 C122.146,307.112 121.828,307.724 121.828,308.492 C121.828,309.008 121.975,309.407 122.269,309.689 C122.563,309.971 122.932,310.187 123.376,310.337 C123.82,310.487 124.3,310.595 124.816,310.661 C125.332,310.727 125.812,310.793 126.256,310.859 C126.7,310.925 127.069,311.018 127.363,311.138 C127.657,311.258 127.804,311.45 127.804,311.714 C127.804,311.942 127.72,312.125 127.552,312.263 C127.384,312.401 127.18,312.509 126.94,312.587 C126.7,312.665 126.457,312.716 126.211,312.74 C125.965,312.764 125.758,312.776 125.59,312.776 C125.41,312.776 125.161,312.746 124.843,312.686 C124.525,312.626 124.207,312.545 123.889,312.443 C123.571,312.341 123.298,312.215 123.07,312.065 C122.842,311.915 122.728,311.75 122.728,311.57 C122.728,311.51 122.731,311.453 122.737,311.399 C122.743,311.345 122.746,311.294 122.746,311.246 L122.746,311.246 L122.404,311.156 L121.576,313.172 L121.828,313.352 C121.888,313.28 121.96,313.244 122.044,313.244 C122.092,313.244 122.23,313.289 122.458,313.379 C122.686,313.469 122.965,313.565 123.295,313.667 C123.625,313.769 123.991,313.859 124.393,313.937 C124.795,314.015 125.2,314.054 125.608,314.054 Z M141.934,314 L141.934,313.676 C141.718,313.676 141.61,313.586 141.61,313.406 L141.61,313.406 L141.61,307.412 L143.95,307.412 C144.046,307.412 144.136,307.436 144.22,307.484 C144.304,307.532 144.346,307.61 144.346,307.718 L144.346,307.718 L144.67,307.718 L144.67,305.648 L144.346,305.648 C144.346,305.816 144.304,305.93 144.22,305.99 C144.136,306.05 144.046,306.08 143.95,306.08 L143.95,306.08 L137.542,306.08 C137.446,306.08 137.356,306.05 137.272,305.99 C137.188,305.93 137.146,305.816 137.146,305.648 L137.146,305.648 L136.822,305.648 L136.822,307.718 L137.146,307.718 C137.146,307.61 137.188,307.532 137.272,307.484 C137.356,307.436 137.446,307.412 137.542,307.412 L137.542,307.412 L139.882,307.412 L139.882,313.406 C139.882,313.502 139.852,313.571 139.792,313.613 C139.732,313.655 139.672,313.676 139.612,313.676 L139.612,313.676 L139.612,314 L141.934,314 Z M150.736,314.054 C151.396,314.054 152.017,313.979 152.599,313.829 C153.181,313.679 153.688,313.436 154.12,313.1 C154.552,312.764 154.894,312.341 155.146,311.831 C155.398,311.321 155.524,310.724 155.524,310.04 C155.524,309.356 155.398,308.759 155.146,308.249 C154.894,307.739 154.552,307.316 154.12,306.98 C153.688,306.644 153.181,306.392 152.599,306.224 C152.017,306.056 151.396,305.972 150.736,305.972 C150.076,305.972 149.455,306.056 148.873,306.224 C148.291,306.392 147.784,306.644 147.352,306.98 C146.92,307.316 146.578,307.739 146.326,308.249 C146.074,308.759 145.948,309.356 145.948,310.04 C145.948,310.724 146.074,311.321 146.326,311.831 C146.578,312.341 146.92,312.764 147.352,313.1 C147.784,313.436 148.291,313.679 148.873,313.829 C149.455,313.979 150.076,314.054 150.736,314.054 Z M150.736,312.776 C150.352,312.776 149.977,312.713 149.611,312.587 C149.245,312.461 148.918,312.281 148.63,312.047 C148.342,311.813 148.111,311.528 147.937,311.192 C147.763,310.856 147.676,310.472 147.676,310.04 C147.676,309.608 147.763,309.224 147.937,308.888 C148.111,308.552 148.342,308.267 148.63,308.033 C148.918,307.799 149.245,307.619 149.611,307.493 C149.977,307.367 150.352,307.304 150.736,307.304 C151.12,307.304 151.495,307.367 151.861,307.493 C152.227,307.619 152.554,307.799 152.842,308.033 C153.13,308.267 153.361,308.552 153.535,308.888 C153.709,309.224 153.796,309.608 153.796,310.04 C153.796,310.472 153.709,310.856 153.535,311.192 C153.361,311.528 153.13,311.813 152.842,312.047 C152.554,312.281 152.227,312.461 151.861,312.587 C151.495,312.713 151.12,312.776 150.736,312.776 Z M167.944,314 L167.944,313.676 C167.716,313.676 167.602,313.586 167.602,313.406 L167.602,313.406 L167.602,310.706 L170.356,307.142 C170.488,306.974 170.641,306.809 170.815,306.647 C170.989,306.485 171.148,306.404 171.292,306.404 L171.292,306.404 L171.292,306.08 L168.538,306.08 L168.538,306.404 C168.598,306.404 168.658,306.416 168.718,306.44 C168.778,306.464 168.808,306.524 168.808,306.62 C168.808,306.692 168.781,306.767 168.727,306.845 C168.673,306.923 168.592,307.04 168.484,307.196 L168.484,307.196 L166.882,309.428 L165.064,307.052 C165.004,306.968 164.95,306.896 164.902,306.836 C164.854,306.776 164.83,306.71 164.83,306.638 C164.83,306.566 164.866,306.509 164.938,306.467 C165.01,306.425 165.076,306.404 165.136,306.404 L165.136,306.404 L165.136,306.08 L162.166,306.08 L162.166,306.404 C162.274,306.404 162.388,306.428 162.508,306.476 C162.628,306.524 162.73,306.602 162.814,306.71 L162.814,306.71 L165.874,310.634 L165.874,313.406 C165.874,313.586 165.766,313.676 165.55,313.676 L165.55,313.676 L165.55,314 L167.944,314 Z M177.232,314.054 C177.892,314.054 178.513,313.979 179.095,313.829 C179.677,313.679 180.184,313.436 180.616,313.1 C181.048,312.764 181.39,312.341 181.642,311.831 C181.894,311.321 182.02,310.724 182.02,310.04 C182.02,309.356 181.894,308.759 181.642,308.249 C181.39,307.739 181.048,307.316 180.616,306.98 C180.184,306.644 179.677,306.392 179.095,306.224 C178.513,306.056 177.892,305.972 177.232,305.972 C176.572,305.972 175.951,306.056 175.369,306.224 C174.787,306.392 174.28,306.644 173.848,306.98 C173.416,307.316 173.074,307.739 172.822,308.249 C172.57,308.759 172.444,309.356 172.444,310.04 C172.444,310.724 172.57,311.321 172.822,311.831 C173.074,312.341 173.416,312.764 173.848,313.1 C174.28,313.436 174.787,313.679 175.369,313.829 C175.951,313.979 176.572,314.054 177.232,314.054 Z M177.232,312.776 C176.848,312.776 176.473,312.713 176.107,312.587 C175.741,312.461 175.414,312.281 175.126,312.047 C174.838,311.813 174.607,311.528 174.433,311.192 C174.259,310.856 174.172,310.472 174.172,310.04 C174.172,309.608 174.259,309.224 174.433,308.888 C174.607,308.552 174.838,308.267 175.126,308.033 C175.414,307.799 175.741,307.619 176.107,307.493 C176.473,307.367 176.848,307.304 177.232,307.304 C177.616,307.304 177.991,307.367 178.357,307.493 C178.723,307.619 179.05,307.799 179.338,308.033 C179.626,308.267 179.857,308.552 180.031,308.888 C180.205,309.224 180.292,309.608 180.292,310.04 C180.292,310.472 180.205,310.856 180.031,311.192 C179.857,311.528 179.626,311.813 179.338,312.047 C179.05,312.281 178.723,312.461 178.357,312.587 C177.991,312.713 177.616,312.776 177.232,312.776 Z M188.806,314.054 C189.526,314.054 190.153,313.979 190.687,313.829 C191.221,313.679 191.659,313.472 192.001,313.208 C192.343,312.944 192.598,312.641 192.766,312.299 C192.934,311.957 193.018,311.6 193.018,311.228 L193.018,311.228 L193.018,306.674 C193.018,306.494 193.15,306.404 193.414,306.404 L193.414,306.404 L193.414,306.08 L190.912,306.08 L190.912,306.404 C191.212,306.404 191.362,306.494 191.362,306.674 L191.362,306.674 L191.362,310.796 C191.362,311.372 191.152,311.834 190.732,312.182 C190.312,312.53 189.67,312.704 188.806,312.704 C187.942,312.704 187.3,312.53 186.88,312.182 C186.46,311.834 186.25,311.372 186.25,310.796 L186.25,310.796 L186.25,306.674 C186.25,306.494 186.382,306.404 186.646,306.404 L186.646,306.404 L186.646,306.08 L184.072,306.08 L184.072,306.404 C184.276,306.404 184.414,306.425 184.486,306.467 C184.558,306.509 184.594,306.578 184.594,306.674 L184.594,306.674 L184.594,311.228 C184.594,311.6 184.678,311.957 184.846,312.299 C185.014,312.641 185.269,312.944 185.611,313.208 C185.953,313.472 186.391,313.679 186.925,313.829 C187.459,313.979 188.086,314.054 188.806,314.054 Z M198.544,314 L198.544,313.676 C198.472,313.676 198.397,313.655 198.319,313.613 C198.241,313.571 198.202,313.502 198.202,313.406 L198.202,313.406 L198.202,310.832 L200.704,310.832 L202.126,312.956 C202.306,313.208 202.396,313.394 202.396,313.514 C202.396,313.622 202.318,313.676 202.162,313.676 L202.162,313.676 L202.162,314 L204.916,314 L204.916,313.676 C204.784,313.64 204.661,313.589 204.547,313.523 C204.433,313.457 204.328,313.358 204.232,313.226 L204.232,313.226 L202.468,310.652 C202.72,310.592 202.966,310.505 203.206,310.391 C203.446,310.277 203.665,310.127 203.863,309.941 C204.061,309.755 204.22,309.536 204.34,309.284 C204.46,309.032 204.52,308.744 204.52,308.42 C204.52,307.568 204.22,306.965 203.62,306.611 C203.02,306.257 202.186,306.08 201.118,306.08 L201.118,306.08 L196.15,306.08 L196.15,306.404 C196.366,306.404 196.474,306.494 196.474,306.674 L196.474,306.674 L196.474,313.406 C196.474,313.586 196.366,313.676 196.15,313.676 L196.15,313.676 L196.15,314 L198.544,314 Z M201.082,309.5 L198.238,309.5 L198.238,307.412 L201.082,307.412 C201.694,307.412 202.141,307.499 202.423,307.673 C202.705,307.847 202.846,308.084 202.846,308.384 C202.846,309.128 202.258,309.5 201.082,309.5 L201.082,309.5 Z M73.354,332.054 C73.762,332.054 74.197,332.024 74.659,331.964 C75.121,331.904 75.544,331.778 75.928,331.586 C76.312,331.394 76.633,331.13 76.891,330.794 C77.149,330.458 77.278,330.026 77.278,329.498 C77.278,328.97 77.131,328.556 76.837,328.256 C76.543,327.956 76.174,327.728 75.73,327.572 C75.286,327.416 74.806,327.305 74.29,327.239 C73.774,327.173 73.294,327.107 72.85,327.041 C72.406,326.975 72.037,326.885 71.743,326.771 C71.449,326.657 71.302,326.468 71.302,326.204 C71.302,326.036 71.35,325.895 71.446,325.781 C71.542,325.667 71.674,325.574 71.842,325.502 C72.01,325.43 72.202,325.379 72.418,325.349 C72.634,325.319 72.862,325.304 73.102,325.304 C73.726,325.304 74.29,325.376 74.794,325.52 C75.298,325.664 75.67,325.838 75.91,326.042 C76.006,326.114 76.06,326.186 76.072,326.258 L76.072,326.258 L76.108,326.474 L76.432,326.582 L77.332,324.89 L77.134,324.692 C77.062,324.728 77.002,324.761 76.954,324.791 C76.906,324.821 76.834,324.836 76.738,324.836 C76.654,324.836 76.525,324.791 76.351,324.701 C76.177,324.611 75.952,324.512 75.676,324.404 C75.4,324.296 75.061,324.197 74.659,324.107 C74.257,324.017 73.774,323.972 73.21,323.972 C72.058,323.972 71.164,324.2 70.528,324.656 C69.892,325.112 69.574,325.724 69.574,326.492 C69.574,327.008 69.721,327.407 70.015,327.689 C70.309,327.971 70.678,328.187 71.122,328.337 C71.566,328.487 72.046,328.595 72.562,328.661 C73.078,328.727 73.558,328.793 74.002,328.859 C74.446,328.925 74.815,329.018 75.109,329.138 C75.403,329.258 75.55,329.45 75.55,329.714 C75.55,329.942 75.466,330.125 75.298,330.263 C75.13,330.401 74.926,330.509 74.686,330.587 C74.446,330.665 74.203,330.716 73.957,330.74 C73.711,330.764 73.504,330.776 73.336,330.776 C73.156,330.776 72.907,330.746 72.589,330.686 C72.271,330.626 71.953,330.545 71.635,330.443 C71.317,330.341 71.044,330.215 70.816,330.065 C70.588,329.915 70.474,329.75 70.474,329.57 C70.474,329.51 70.477,329.453 70.483,329.399 C70.489,329.345 70.492,329.294 70.492,329.246 L70.492,329.246 L70.15,329.156 L69.322,331.172 L69.574,331.352 C69.634,331.28 69.706,331.244 69.79,331.244 C69.838,331.244 69.976,331.289 70.204,331.379 C70.432,331.469 70.711,331.565 71.041,331.667 C71.371,331.769 71.737,331.859 72.139,331.937 C72.541,332.015 72.946,332.054 73.354,332.054 Z M84.712,332 L84.712,331.676 C84.484,331.676 84.37,331.586 84.37,331.406 L84.37,331.406 L84.37,328.706 L87.124,325.142 C87.256,324.974 87.409,324.809 87.583,324.647 C87.757,324.485 87.916,324.404 88.06,324.404 L88.06,324.404 L88.06,324.08 L85.306,324.08 L85.306,324.404 C85.366,324.404 85.426,324.416 85.486,324.44 C85.546,324.464 85.576,324.524 85.576,324.62 C85.576,324.692 85.549,324.767 85.495,324.845 C85.441,324.923 85.36,325.04 85.252,325.196 L85.252,325.196 L83.65,327.428 L81.832,325.052 C81.772,324.968 81.718,324.896 81.67,324.836 C81.622,324.776 81.598,324.71 81.598,324.638 C81.598,324.566 81.634,324.509 81.706,324.467 C81.778,324.425 81.844,324.404 81.904,324.404 L81.904,324.404 L81.904,324.08 L78.934,324.08 L78.934,324.404 C79.042,324.404 79.156,324.428 79.276,324.476 C79.396,324.524 79.498,324.602 79.582,324.71 L79.582,324.71 L82.642,328.634 L82.642,331.406 C82.642,331.586 82.534,331.676 82.318,331.676 L82.318,331.676 L82.318,332 L84.712,332 Z M92.218,332 L92.218,331.676 C92.014,331.676 91.912,331.586 91.912,331.406 L91.912,331.406 L91.912,326.348 L91.93,326.348 L94.828,332 L94.972,332 L98.032,326.348 L98.068,326.348 L98.068,331.406 C98.104,331.586 97.996,331.676 97.744,331.676 L97.744,331.676 L97.744,332 L99.832,332 L99.832,331.676 C99.772,331.676 99.715,331.655 99.661,331.613 C99.607,331.571 99.58,331.502 99.58,331.406 L99.58,331.406 L99.58,324.638 C99.58,324.542 99.607,324.479 99.661,324.449 C99.715,324.419 99.772,324.404 99.832,324.404 L99.832,324.404 L99.832,324.08 L97.294,324.08 L97.294,324.404 C97.39,324.404 97.438,324.458 97.438,324.566 C97.438,324.602 97.414,324.665 97.366,324.755 C97.318,324.845 97.252,324.962 97.168,325.106 L97.168,325.106 L94.954,329.138 L92.758,325.088 C92.674,324.944 92.611,324.833 92.569,324.755 C92.527,324.677 92.506,324.614 92.506,324.566 C92.506,324.458 92.566,324.404 92.686,324.404 L92.686,324.404 L92.686,324.08 L90.184,324.08 L90.184,324.404 C90.268,324.404 90.325,324.422 90.355,324.458 C90.385,324.494 90.4,324.596 90.4,324.764 L90.4,324.764 L90.4,331.352 C90.4,331.484 90.379,331.568 90.337,331.604 C90.295,331.64 90.244,331.664 90.184,331.676 L90.184,331.676 L90.184,332 L92.218,332 Z M105.268,332 L105.268,331.676 C105.016,331.676 104.89,331.586 104.89,331.406 L104.89,331.406 L104.89,328.706 L107.95,328.706 C108.922,328.706 109.651,328.541 110.137,328.211 C110.623,327.881 110.866,327.284 110.866,326.42 C110.866,325.556 110.623,324.95 110.137,324.602 C109.651,324.254 108.922,324.08 107.95,324.08 L107.95,324.08 L102.712,324.08 L102.712,324.404 C103.012,324.404 103.162,324.494 103.162,324.674 L103.162,324.674 L103.162,331.406 C103.162,331.586 103.012,331.676 102.712,331.676 L102.712,331.676 L102.712,332 L105.268,332 Z M107.914,327.374 L104.89,327.374 L104.89,325.412 L107.914,325.412 C108.262,325.412 108.553,325.487 108.787,325.637 C109.021,325.787 109.138,326.048 109.138,326.42 C109.138,326.804 109.021,327.059 108.787,327.185 C108.553,327.311 108.262,327.374 107.914,327.374 L107.914,327.374 Z M117.202,332 L117.202,331.676 C116.986,331.676 116.878,331.586 116.878,331.406 L116.878,331.406 L116.878,325.412 L119.218,325.412 C119.314,325.412 119.404,325.436 119.488,325.484 C119.572,325.532 119.614,325.61 119.614,325.718 L119.614,325.718 L119.938,325.718 L119.938,323.648 L119.614,323.648 C119.614,323.816 119.572,323.93 119.488,323.99 C119.404,324.05 119.314,324.08 119.218,324.08 L119.218,324.08 L112.81,324.08 C112.714,324.08 112.624,324.05 112.54,323.99 C112.456,323.93 112.414,323.816 112.414,323.648 L112.414,323.648 L112.09,323.648 L112.09,325.718 L112.414,325.718 C112.414,325.61 112.456,325.532 112.54,325.484 C112.624,325.436 112.714,325.412 112.81,325.412 L112.81,325.412 L115.15,325.412 L115.15,331.406 C115.15,331.502 115.12,331.571 115.06,331.613 C115,331.655 114.94,331.676 114.88,331.676 L114.88,331.676 L114.88,332 L117.202,332 Z M126.004,332.054 C126.664,332.054 127.285,331.979 127.867,331.829 C128.449,331.679 128.956,331.436 129.388,331.1 C129.82,330.764 130.162,330.341 130.414,329.831 C130.666,329.321 130.792,328.724 130.792,328.04 C130.792,327.356 130.666,326.759 130.414,326.249 C130.162,325.739 129.82,325.316 129.388,324.98 C128.956,324.644 128.449,324.392 127.867,324.224 C127.285,324.056 126.664,323.972 126.004,323.972 C125.344,323.972 124.723,324.056 124.141,324.224 C123.559,324.392 123.052,324.644 122.62,324.98 C122.188,325.316 121.846,325.739 121.594,326.249 C121.342,326.759 121.216,327.356 121.216,328.04 C121.216,328.724 121.342,329.321 121.594,329.831 C121.846,330.341 122.188,330.764 122.62,331.1 C123.052,331.436 123.559,331.679 124.141,331.829 C124.723,331.979 125.344,332.054 126.004,332.054 Z M126.004,330.776 C125.62,330.776 125.245,330.713 124.879,330.587 C124.513,330.461 124.186,330.281 123.898,330.047 C123.61,329.813 123.379,329.528 123.205,329.192 C123.031,328.856 122.944,328.472 122.944,328.04 C122.944,327.608 123.031,327.224 123.205,326.888 C123.379,326.552 123.61,326.267 123.898,326.033 C124.186,325.799 124.513,325.619 124.879,325.493 C125.245,325.367 125.62,325.304 126.004,325.304 C126.388,325.304 126.763,325.367 127.129,325.493 C127.495,325.619 127.822,325.799 128.11,326.033 C128.398,326.267 128.629,326.552 128.803,326.888 C128.977,327.224 129.064,327.608 129.064,328.04 C129.064,328.472 128.977,328.856 128.803,329.192 C128.629,329.528 128.398,329.813 128.11,330.047 C127.822,330.281 127.495,330.461 127.129,330.587 C126.763,330.713 126.388,330.776 126.004,330.776 Z M135.22,332 L135.22,331.676 C135.016,331.676 134.914,331.586 134.914,331.406 L134.914,331.406 L134.914,326.348 L134.932,326.348 L137.83,332 L137.974,332 L141.034,326.348 L141.07,326.348 L141.07,331.406 C141.106,331.586 140.998,331.676 140.746,331.676 L140.746,331.676 L140.746,332 L142.834,332 L142.834,331.676 C142.774,331.676 142.717,331.655 142.663,331.613 C142.609,331.571 142.582,331.502 142.582,331.406 L142.582,331.406 L142.582,324.638 C142.582,324.542 142.609,324.479 142.663,324.449 C142.717,324.419 142.774,324.404 142.834,324.404 L142.834,324.404 L142.834,324.08 L140.296,324.08 L140.296,324.404 C140.392,324.404 140.44,324.458 140.44,324.566 C140.44,324.602 140.416,324.665 140.368,324.755 C140.32,324.845 140.254,324.962 140.17,325.106 L140.17,325.106 L137.956,329.138 L135.76,325.088 C135.676,324.944 135.613,324.833 135.571,324.755 C135.529,324.677 135.508,324.614 135.508,324.566 C135.508,324.458 135.568,324.404 135.688,324.404 L135.688,324.404 L135.688,324.08 L133.186,324.08 L133.186,324.404 C133.27,324.404 133.327,324.422 133.357,324.458 C133.387,324.494 133.402,324.596 133.402,324.764 L133.402,324.764 L133.402,331.352 C133.402,331.484 133.381,331.568 133.339,331.604 C133.297,331.64 133.246,331.664 133.186,331.676 L133.186,331.676 L133.186,332 L135.22,332 Z M153.76,332 L153.76,331.676 C153.508,331.676 153.382,331.586 153.382,331.406 L153.382,331.406 L153.382,328.706 L156.442,328.706 C157.414,328.706 158.143,328.541 158.629,328.211 C159.115,327.881 159.358,327.284 159.358,326.42 C159.358,325.556 159.115,324.95 158.629,324.602 C158.143,324.254 157.414,324.08 156.442,324.08 L156.442,324.08 L151.204,324.08 L151.204,324.404 C151.504,324.404 151.654,324.494 151.654,324.674 L151.654,324.674 L151.654,331.406 C151.654,331.586 151.504,331.676 151.204,331.676 L151.204,331.676 L151.204,332 L153.76,332 Z M156.406,327.374 L153.382,327.374 L153.382,325.412 L156.406,325.412 C156.754,325.412 157.045,325.487 157.279,325.637 C157.513,325.787 157.63,326.048 157.63,326.42 C157.63,326.804 157.513,327.059 157.279,327.185 C157.045,327.311 156.754,327.374 156.406,327.374 L156.406,327.374 Z M164.362,332 L164.362,331.676 C164.026,331.676 163.858,331.586 163.858,331.406 L163.858,331.406 L163.858,324.674 C163.858,324.494 164.026,324.404 164.362,324.404 L164.362,324.404 L164.362,324.08 L161.626,324.08 L161.626,324.404 C161.818,324.404 161.95,324.425 162.022,324.467 C162.094,324.509 162.13,324.578 162.13,324.674 L162.13,324.674 L162.13,331.406 C162.13,331.502 162.094,331.571 162.022,331.613 C161.95,331.655 161.818,331.676 161.626,331.676 L161.626,331.676 L161.626,332 L164.362,332 Z M175.252,332.18 L175.252,330.29 L174.928,330.29 C174.928,330.41 174.88,330.503 174.784,330.569 C174.688,330.635 174.568,330.668 174.424,330.668 L174.424,330.668 L169.564,330.668 L169.564,324.674 C169.564,324.494 169.702,324.404 169.978,324.404 L169.978,324.404 L169.978,324.08 L167.368,324.08 L167.368,324.404 C167.68,324.404 167.836,324.494 167.836,324.674 L167.836,324.674 L167.836,331.406 C167.836,331.586 167.68,331.676 167.368,331.676 L167.368,331.676 L167.368,332 L174.424,332 C174.568,332 174.688,332.006 174.784,332.018 C174.88,332.03 174.928,332.084 174.928,332.18 L174.928,332.18 L175.252,332.18 Z M184.918,332.198 L184.918,330.308 L184.594,330.308 C184.594,330.416 184.546,330.503 184.45,330.569 C184.354,330.635 184.234,330.668 184.09,330.668 L184.09,330.668 L179.482,330.668 L179.482,328.544 L182.11,328.544 C182.35,328.544 182.536,328.559 182.668,328.589 C182.8,328.619 182.848,328.7 182.812,328.832 L182.812,328.832 L183.172,328.832 L183.172,326.924 L182.848,326.924 C182.848,327.056 182.8,327.137 182.704,327.167 C182.608,327.197 182.458,327.212 182.254,327.212 L182.254,327.212 L179.482,327.212 L179.482,325.412 L183.874,325.412 C184.246,325.412 184.432,325.526 184.432,325.754 L184.432,325.754 L184.756,325.754 L184.756,323.756 L184.432,323.756 C184.432,323.972 184.246,324.08 183.874,324.08 L183.874,324.08 L177.484,324.08 L177.484,324.404 C177.544,324.404 177.604,324.425 177.664,324.467 C177.724,324.509 177.754,324.578 177.754,324.674 L177.754,324.674 L177.754,331.406 C177.754,331.502 177.724,331.571 177.664,331.613 C177.604,331.655 177.544,331.676 177.484,331.676 L177.484,331.676 L177.484,332 L184.09,332 C184.234,332 184.354,332.006 184.45,332.018 C184.546,332.03 184.594,332.09 184.594,332.198 L184.594,332.198 L184.918,332.198 Z M188.752,332.054 C189.1,332.054 189.4,331.937 189.652,331.703 C189.904,331.469 190.03,331.178 190.03,330.83 C190.03,330.482 189.904,330.182 189.652,329.93 C189.4,329.678 189.1,329.552 188.752,329.552 C188.404,329.552 188.104,329.678 187.852,329.93 C187.6,330.182 187.474,330.482 187.474,330.83 C187.474,331.178 187.6,331.469 187.852,331.703 C188.104,331.937 188.404,332.054 188.752,332.054 Z" id="Mytemperaturecantbehigh,Iveneverdonedrugs!Addthistoyoursymptompile." fill="#000000" fill-rule="nonzero"></path>
    </g>
</svg>