<?xml version="1.0" encoding="UTF-8"?>
<svg width="262px" height="360px" viewBox="0 0 262 360" version="1.1" xmlns="http://www.w3.org/2000/svg" xmlns:xlink="http://www.w3.org/1999/xlink">
    <title>Non-Isolator</title>
    <g id="Non-Isolator" stroke="none" stroke-width="1" fill="none" fill-rule="evenodd">
        <g id="Group" transform="translate(9.000000, 9.000000)" fill="#FFFFFF" stroke="#000000" stroke-width="3">
            <g id="Rectangle">
                <rect x="1.5" y="1.5" width="239" height="337" rx="8"></rect>
            </g>
        </g>
        <g id="Toilet-Paper" transform="translate(14.000000, 15.000000)">
            <ellipse id="Oval" stroke="#000000" stroke-width="2" cx="24.5" cy="11.5" rx="4.5" ry="10.5"></ellipse>
            <ellipse id="Oval-Copy" fill="#000000" cx="24.5" cy="12" rx="1.5" ry="4"></ellipse>
            <line x1="24" y1="22" x2="18" y2="22" id="Line-6" stroke="#000000" stroke-width="2" stroke-linecap="round"></line>
            <line x1="24" y1="1" x2="9" y2="1" id="Line-5" stroke="#000000" stroke-width="2" stroke-linecap="square"></line>
            <path d="M8,1 C7.02702267,1.90492637 6.360356,2.69857716 6,3.38095238 C4.62724052,5.98042915 4,9.4881664 4,12.9047619 C4,13.6772342 3.97201238,14.5765717 4,15.2857143 C4.12532621,18.4611949 3.12532621,22.0326235 1,26" id="Line-2-Copy-2" stroke="#000000" stroke-width="2" stroke-linecap="round"></path>
            <path d="M23,1 C22.0270227,1.90492637 21.360356,2.69857716 21,3.38095238 C19.6272405,5.98042915 19,9.4881664 19,12.9047619 C19,13.6772342 18.9720124,14.5765717 19,15.2857143 C19.1253262,18.4611949 18.1253262,22.0326235 16,26" id="Line-2-Copy-3" stroke="#000000" stroke-width="2" stroke-linecap="round"></path>
            <line x1="4.23333333" y1="12.2173958" x2="19.1666667" y2="12.2173958" id="Line-3-Copy" stroke="#000000" stroke-width="2" stroke-linecap="square" stroke-dasharray="0,4"></line>
            <line x1="16" y1="26" x2="1.22222222" y2="26" id="Line-5-Copy" stroke="#000000" stroke-width="2" stroke-linecap="round"></line>
        </g>
        <path d="M64.214,39 L64.214,38.568 C64.046,38.568 63.884,38.502 63.728,38.37 C63.572,38.238 63.494,37.968 63.494,37.56 L63.494,37.56 L63.494,35.76 L64.646,35.76 C64.958,35.76 65.204,35.808 65.384,35.904 C65.564,36 65.654,36.252 65.654,36.66 L65.654,36.66 L66.086,36.66 L66.086,31.8 L65.654,31.8 C65.654,32.184 65.564,32.424 65.384,32.52 C65.204,32.616 64.958,32.664 64.646,32.664 L64.646,32.664 L63.494,32.664 L63.494,21.18 C63.494,20.964 63.566,20.796 63.71,20.676 C63.854,20.556 64.034,20.496 64.25,20.496 L64.25,20.496 L64.25,20.064 L57.266,20.064 L57.266,20.496 C57.386,20.568 57.518,20.634 57.662,20.694 C57.806,20.754 57.878,20.88 57.878,21.072 C57.878,21.216 57.77,21.414 57.554,21.666 C57.338,21.918 57.098,22.188 56.834,22.476 L56.834,22.476 L47.582,32.52 L47.582,36.552 L48.014,36.552 C48.014,36.24 48.116,36.03 48.32,35.922 C48.524,35.814 48.83,35.76 49.238,35.76 L49.238,35.76 L59.75,35.76 L59.75,37.56 C59.75,37.968 59.654,38.238 59.462,38.37 C59.27,38.502 59.042,38.568 58.778,38.568 L58.778,38.568 L58.778,39 L64.214,39 Z M59.75,32.664 L51.614,32.664 L59.75,23.736 L59.75,32.664 Z" id="4" fill="#000000" fill-rule="nonzero"></path>
        <rect id="Rectangle" stroke="#000000" stroke-width="3" x="17.5" y="285.5" width="225" height="56" rx="8"></rect>
        <g id="Group" transform="translate(228.000000, 15.000000)" fill="#000000">
            <g id="Upgrade" transform="translate(8.000000, 9.000000) scale(1, -1) translate(-8.000000, -9.000000) ">
                <path d="M8.80873608,1.11201212 L14.844966,9.4118283 C15.1698043,9.85848091 15.0710543,10.4838978 14.6244017,10.8087361 C14.4534813,10.9330418 14.2475725,11 14.03623,11 L1.96377005,11 C1.4114853,11 0.963770046,10.5522847 0.963770046,10 C0.963770046,9.7886575 1.03072828,9.58274861 1.15503396,9.4118283 L7.19126392,1.11201212 C7.51610217,0.66535951 8.14151909,0.56660947 8.5881717,0.891447729 C8.67277774,0.952979393 8.74720442,1.02740608 8.80873608,1.11201212 Z" id="Triangle"></path>
                <path d="M5,9 L11,9 L11,17 C11,17.5522847 10.5522847,18 10,18 L6,18 C5.44771525,18 5,17.5522847 5,17 L5,9 L5,9 Z" id="Rectangle"></path>
            </g>
        </g>
        <path d="M55.06,57 L55.06,56.568 C54.692,56.568 54.508,56.424 54.508,56.136 L54.508,56.136 L54.508,48.168 L61.828,55.8 C62.084,56.056 62.212,56.24 62.212,56.352 C62.212,56.496 62.108,56.568 61.9,56.568 L61.9,56.568 L61.9,57 L65.788,57 L65.788,56.568 C65.484,56.568 65.332,56.424 65.332,56.136 L65.332,56.136 L65.332,45.24 C65.332,44.952 65.484,44.808 65.788,44.808 L65.788,44.808 L65.788,44.376 L62.164,44.376 L62.164,44.808 C62.58,44.808 62.788,44.952 62.788,45.24 L62.788,45.24 L62.788,52.872 L55.9,45.72 C55.58,45.4 55.42,45.176 55.42,45.048 C55.42,44.888 55.484,44.808 55.612,44.808 L55.612,44.808 L55.612,44.376 L51.508,44.376 L51.508,44.808 C51.812,44.808 51.964,44.952 51.964,45.24 L51.964,45.24 L51.964,56.136 C51.964,56.424 51.812,56.568 51.508,56.568 L51.508,56.568 L51.508,57 L55.06,57 Z M75.316,57.072 C76.196,57.072 77.024,56.972 77.8,56.772 C78.576,56.572 79.252,56.248 79.828,55.8 C80.404,55.352 80.86,54.788 81.196,54.108 C81.532,53.428 81.7,52.632 81.7,51.72 C81.7,50.808 81.532,50.012 81.196,49.332 C80.86,48.652 80.404,48.088 79.828,47.64 C79.252,47.192 78.576,46.856 77.8,46.632 C77.024,46.408 76.196,46.296 75.316,46.296 C74.436,46.296 73.608,46.408 72.832,46.632 C72.056,46.856 71.38,47.192 70.804,47.64 C70.228,48.088 69.772,48.652 69.436,49.332 C69.1,50.012 68.932,50.808 68.932,51.72 C68.932,52.632 69.1,53.428 69.436,54.108 C69.772,54.788 70.228,55.352 70.804,55.8 C71.38,56.248 72.056,56.572 72.832,56.772 C73.608,56.972 74.436,57.072 75.316,57.072 Z M75.316,55.368 C74.804,55.368 74.304,55.284 73.816,55.116 C73.328,54.948 72.892,54.708 72.508,54.396 C72.124,54.084 71.816,53.704 71.584,53.256 C71.352,52.808 71.236,52.296 71.236,51.72 C71.236,51.144 71.352,50.632 71.584,50.184 C71.816,49.736 72.124,49.356 72.508,49.044 C72.892,48.732 73.328,48.492 73.816,48.324 C74.304,48.156 74.804,48.072 75.316,48.072 C75.828,48.072 76.328,48.156 76.816,48.324 C77.304,48.492 77.74,48.732 78.124,49.044 C78.508,49.356 78.816,49.736 79.048,50.184 C79.28,50.632 79.396,51.144 79.396,51.72 C79.396,52.296 79.28,52.808 79.048,53.256 C78.816,53.704 78.508,54.084 78.124,54.396 C77.74,54.708 77.304,54.948 76.816,55.116 C76.328,55.284 75.828,55.368 75.316,55.368 Z M87.556,57 L87.556,56.568 C87.22,56.568 87.052,56.448 87.052,56.208 L87.052,56.208 L87.052,49.224 L93.004,55.56 C93.196,55.768 93.368,55.952 93.52,56.112 C93.672,56.272 93.748,56.384 93.748,56.448 C93.748,56.528 93.692,56.568 93.58,56.568 L93.58,56.568 L93.58,57 L96.7,57 L96.7,56.568 C96.412,56.568 96.268,56.448 96.268,56.208 L96.268,56.208 L96.268,47.232 C96.268,46.992 96.412,46.872 96.7,46.872 L96.7,46.872 L96.7,46.44 L93.772,46.44 L93.772,46.872 C94.092,46.872 94.252,46.992 94.252,47.232 L94.252,47.232 L94.252,53.736 L88.492,47.64 C88.14,47.288 87.964,47.072 87.964,46.992 C87.964,46.928 88.02,46.888 88.132,46.872 L88.132,46.872 L88.132,46.44 L84.604,46.44 L84.604,46.872 C84.892,46.872 85.036,46.992 85.036,47.232 L85.036,47.232 L85.036,56.208 C85.036,56.448 84.892,56.568 84.604,56.568 L84.604,56.568 L84.604,57 L87.556,57 Z M100.252,53.16 C100.252,53.064 100.28,52.968 100.336,52.872 C100.392,52.776 100.484,52.728 100.612,52.728 L100.612,52.728 L104.716,52.728 C104.956,52.728 105.076,52.872 105.076,53.16 L105.076,53.16 L105.508,53.16 L105.508,50.28 L105.076,50.28 C105.076,50.376 105.048,50.472 104.992,50.568 C104.936,50.664 104.844,50.712 104.716,50.712 L104.716,50.712 L100.612,50.712 C100.372,50.712 100.252,50.568 100.252,50.28 L100.252,50.28 L99.82,50.28 L99.82,53.16 L100.252,53.16 Z M112.468,57 L112.468,56.568 C112.02,56.568 111.796,56.448 111.796,56.208 L111.796,56.208 L111.796,47.232 C111.796,46.992 112.02,46.872 112.468,46.872 L112.468,46.872 L112.468,46.44 L108.82,46.44 L108.82,46.872 C109.076,46.872 109.252,46.9 109.348,46.956 C109.444,47.012 109.492,47.104 109.492,47.232 L109.492,47.232 L109.492,56.208 C109.492,56.336 109.444,56.428 109.348,56.484 C109.252,56.54 109.076,56.568 108.82,56.568 L108.82,56.568 L108.82,57 L112.468,57 Z M121.132,57.072 C121.676,57.072 122.256,57.032 122.872,56.952 C123.488,56.872 124.052,56.704 124.564,56.448 C125.076,56.192 125.504,55.84 125.848,55.392 C126.192,54.944 126.364,54.368 126.364,53.664 C126.364,52.96 126.168,52.408 125.776,52.008 C125.384,51.608 124.892,51.304 124.3,51.096 C123.708,50.888 123.068,50.74 122.38,50.652 C121.692,50.564 121.052,50.476 120.46,50.388 C119.868,50.3 119.376,50.18 118.984,50.028 C118.592,49.876 118.396,49.624 118.396,49.272 C118.396,49.048 118.46,48.86 118.588,48.708 C118.716,48.556 118.892,48.432 119.116,48.336 C119.34,48.24 119.596,48.172 119.884,48.132 C120.172,48.092 120.476,48.072 120.796,48.072 C121.628,48.072 122.38,48.168 123.052,48.36 C123.724,48.552 124.22,48.784 124.54,49.056 C124.668,49.152 124.74,49.248 124.756,49.344 L124.756,49.344 L124.804,49.632 L125.236,49.776 L126.436,47.52 L126.172,47.256 C126.076,47.304 125.996,47.348 125.932,47.388 C125.868,47.428 125.772,47.448 125.644,47.448 C125.532,47.448 125.36,47.388 125.128,47.268 C124.896,47.148 124.596,47.016 124.228,46.872 C123.86,46.728 123.408,46.596 122.872,46.476 C122.336,46.356 121.692,46.296 120.94,46.296 C119.404,46.296 118.212,46.6 117.364,47.208 C116.516,47.816 116.092,48.632 116.092,49.656 C116.092,50.344 116.288,50.876 116.68,51.252 C117.072,51.628 117.564,51.916 118.156,52.116 C118.748,52.316 119.388,52.46 120.076,52.548 C120.764,52.636 121.404,52.724 121.996,52.812 C122.588,52.9 123.08,53.024 123.472,53.184 C123.864,53.344 124.06,53.6 124.06,53.952 C124.06,54.256 123.948,54.5 123.724,54.684 C123.5,54.868 123.228,55.012 122.908,55.116 C122.588,55.22 122.264,55.288 121.936,55.32 C121.608,55.352 121.332,55.368 121.108,55.368 C120.868,55.368 120.536,55.328 120.112,55.248 C119.688,55.168 119.264,55.06 118.84,54.924 C118.416,54.788 118.052,54.62 117.748,54.42 C117.444,54.22 117.292,54 117.292,53.76 C117.292,53.68 117.296,53.604 117.304,53.532 C117.312,53.46 117.316,53.392 117.316,53.328 L117.316,53.328 L116.86,53.208 L115.756,55.896 L116.092,56.136 C116.172,56.04 116.268,55.992 116.38,55.992 C116.444,55.992 116.628,56.052 116.932,56.172 C117.236,56.292 117.608,56.42 118.048,56.556 C118.488,56.692 118.976,56.812 119.512,56.916 C120.048,57.02 120.588,57.072 121.132,57.072 Z M135.316,57.072 C136.196,57.072 137.024,56.972 137.8,56.772 C138.576,56.572 139.252,56.248 139.828,55.8 C140.404,55.352 140.86,54.788 141.196,54.108 C141.532,53.428 141.7,52.632 141.7,51.72 C141.7,50.808 141.532,50.012 141.196,49.332 C140.86,48.652 140.404,48.088 139.828,47.64 C139.252,47.192 138.576,46.856 137.8,46.632 C137.024,46.408 136.196,46.296 135.316,46.296 C134.436,46.296 133.608,46.408 132.832,46.632 C132.056,46.856 131.38,47.192 130.804,47.64 C130.228,48.088 129.772,48.652 129.436,49.332 C129.1,50.012 128.932,50.808 128.932,51.72 C128.932,52.632 129.1,53.428 129.436,54.108 C129.772,54.788 130.228,55.352 130.804,55.8 C131.38,56.248 132.056,56.572 132.832,56.772 C133.608,56.972 134.436,57.072 135.316,57.072 Z M135.316,55.368 C134.804,55.368 134.304,55.284 133.816,55.116 C133.328,54.948 132.892,54.708 132.508,54.396 C132.124,54.084 131.816,53.704 131.584,53.256 C131.352,52.808 131.236,52.296 131.236,51.72 C131.236,51.144 131.352,50.632 131.584,50.184 C131.816,49.736 132.124,49.356 132.508,49.044 C132.892,48.732 133.328,48.492 133.816,48.324 C134.304,48.156 134.804,48.072 135.316,48.072 C135.828,48.072 136.328,48.156 136.816,48.324 C137.304,48.492 137.74,48.732 138.124,49.044 C138.508,49.356 138.816,49.736 139.048,50.184 C139.28,50.632 139.396,51.144 139.396,51.72 C139.396,52.296 139.28,52.808 139.048,53.256 C138.816,53.704 138.508,54.084 138.124,54.396 C137.74,54.708 137.304,54.948 136.816,55.116 C136.328,55.284 135.828,55.368 135.316,55.368 Z M154.996,57.24 L154.996,54.72 L154.564,54.72 C154.564,54.88 154.5,55.004 154.372,55.092 C154.244,55.18 154.084,55.224 153.892,55.224 L153.892,55.224 L147.412,55.224 L147.412,47.232 C147.412,46.992 147.596,46.872 147.964,46.872 L147.964,46.872 L147.964,46.44 L144.484,46.44 L144.484,46.872 C144.9,46.872 145.108,46.992 145.108,47.232 L145.108,47.232 L145.108,56.208 C145.108,56.448 144.9,56.568 144.484,56.568 L144.484,56.568 L144.484,57 L153.892,57 C154.084,57 154.244,57.008 154.372,57.024 C154.5,57.04 154.564,57.112 154.564,57.24 L154.564,57.24 L154.996,57.24 Z M159.58,57 L159.58,56.568 C159.436,56.568 159.324,56.552 159.244,56.52 C159.164,56.488 159.124,56.408 159.124,56.28 C159.124,56.2 159.144,56.108 159.184,56.004 C159.224,55.9 159.276,55.784 159.34,55.656 L159.34,55.656 L160.012,54.36 L165.148,54.36 L165.796,55.728 C165.844,55.856 165.884,55.96 165.916,56.04 C165.948,56.12 165.964,56.208 165.964,56.304 C165.964,56.432 165.92,56.52 165.832,56.568 C165.744,56.616 165.66,56.64 165.58,56.64 L165.58,56.64 L165.58,57 L168.988,57 L168.988,56.568 C168.876,56.536 168.772,56.488 168.676,56.424 C168.58,56.36 168.492,56.256 168.412,56.112 L168.412,56.112 L164.524,47.952 C164.444,47.776 164.368,47.62 164.296,47.484 C164.224,47.348 164.188,47.232 164.188,47.136 C164.188,47.024 164.216,46.96 164.272,46.944 C164.328,46.928 164.38,46.904 164.428,46.872 L164.428,46.872 L164.428,46.44 L160.804,46.44 L160.804,46.872 C160.852,46.904 160.896,46.932 160.936,46.956 C160.976,46.98 160.996,47.04 160.996,47.136 C160.996,47.264 160.968,47.396 160.912,47.532 C160.856,47.668 160.78,47.848 160.684,48.072 L160.684,48.072 L157.108,55.872 C157.044,56 156.952,56.14 156.832,56.292 C156.712,56.444 156.556,56.536 156.364,56.568 L156.364,56.568 L156.364,57 L159.58,57 Z M164.38,52.584 L160.732,52.584 L162.436,48.552 L164.38,52.584 Z M176.932,57 L176.932,56.568 C176.644,56.568 176.5,56.448 176.5,56.208 L176.5,56.208 L176.5,48.216 L179.62,48.216 C179.748,48.216 179.868,48.248 179.98,48.312 C180.092,48.376 180.148,48.48 180.148,48.624 L180.148,48.624 L180.58,48.624 L180.58,45.864 L180.148,45.864 C180.148,46.088 180.092,46.24 179.98,46.32 C179.868,46.4 179.748,46.44 179.62,46.44 L179.62,46.44 L171.076,46.44 C170.948,46.44 170.828,46.4 170.716,46.32 C170.604,46.24 170.548,46.088 170.548,45.864 L170.548,45.864 L170.116,45.864 L170.116,48.624 L170.548,48.624 C170.548,48.48 170.604,48.376 170.716,48.312 C170.828,48.248 170.948,48.216 171.076,48.216 L171.076,48.216 L174.196,48.216 L174.196,56.208 C174.196,56.336 174.156,56.428 174.076,56.484 C173.996,56.54 173.916,56.568 173.836,56.568 L173.836,56.568 L173.836,57 L176.932,57 Z M188.668,57.072 C189.548,57.072 190.376,56.972 191.152,56.772 C191.928,56.572 192.604,56.248 193.18,55.8 C193.756,55.352 194.212,54.788 194.548,54.108 C194.884,53.428 195.052,52.632 195.052,51.72 C195.052,50.808 194.884,50.012 194.548,49.332 C194.212,48.652 193.756,48.088 193.18,47.64 C192.604,47.192 191.928,46.856 191.152,46.632 C190.376,46.408 189.548,46.296 188.668,46.296 C187.788,46.296 186.96,46.408 186.184,46.632 C185.408,46.856 184.732,47.192 184.156,47.64 C183.58,48.088 183.124,48.652 182.788,49.332 C182.452,50.012 182.284,50.808 182.284,51.72 C182.284,52.632 182.452,53.428 182.788,54.108 C183.124,54.788 183.58,55.352 184.156,55.8 C184.732,56.248 185.408,56.572 186.184,56.772 C186.96,56.972 187.788,57.072 188.668,57.072 Z M188.668,55.368 C188.156,55.368 187.656,55.284 187.168,55.116 C186.68,54.948 186.244,54.708 185.86,54.396 C185.476,54.084 185.168,53.704 184.936,53.256 C184.704,52.808 184.588,52.296 184.588,51.72 C184.588,51.144 184.704,50.632 184.936,50.184 C185.168,49.736 185.476,49.356 185.86,49.044 C186.244,48.732 186.68,48.492 187.168,48.324 C187.656,48.156 188.156,48.072 188.668,48.072 C189.18,48.072 189.68,48.156 190.168,48.324 C190.656,48.492 191.092,48.732 191.476,49.044 C191.86,49.356 192.168,49.736 192.4,50.184 C192.632,50.632 192.748,51.144 192.748,51.72 C192.748,52.296 192.632,52.808 192.4,53.256 C192.168,53.704 191.86,54.084 191.476,54.396 C191.092,54.708 190.656,54.948 190.168,55.116 C189.68,55.284 189.18,55.368 188.668,55.368 Z M201.076,57 L201.076,56.568 C200.98,56.568 200.88,56.54 200.776,56.484 C200.672,56.428 200.62,56.336 200.62,56.208 L200.62,56.208 L200.62,52.776 L203.956,52.776 L205.852,55.608 C206.092,55.944 206.212,56.192 206.212,56.352 C206.212,56.496 206.108,56.568 205.9,56.568 L205.9,56.568 L205.9,57 L209.572,57 L209.572,56.568 C209.396,56.52 209.232,56.452 209.08,56.364 C208.928,56.276 208.788,56.144 208.66,55.968 L208.66,55.968 L206.308,52.536 C206.644,52.456 206.972,52.34 207.292,52.188 C207.612,52.036 207.904,51.836 208.168,51.588 C208.432,51.34 208.644,51.048 208.804,50.712 C208.964,50.376 209.044,49.992 209.044,49.56 C209.044,48.424 208.644,47.62 207.844,47.148 C207.044,46.676 205.932,46.44 204.508,46.44 L204.508,46.44 L197.884,46.44 L197.884,46.872 C198.172,46.872 198.316,46.992 198.316,47.232 L198.316,47.232 L198.316,56.208 C198.316,56.448 198.172,56.568 197.884,56.568 L197.884,56.568 L197.884,57 L201.076,57 Z M204.46,51 L200.668,51 L200.668,48.216 L204.46,48.216 C205.276,48.216 205.872,48.332 206.248,48.564 C206.624,48.796 206.812,49.112 206.812,49.512 C206.812,50.504 206.028,51 204.46,51 L204.46,51 Z" id="Non-isolator" fill="#000000" fill-rule="nonzero"></path>
        <path d="M69.82,301 L69.82,300.712 C69.5746667,300.712 69.452,300.616 69.452,300.424 L69.452,300.424 L69.452,297.576 L72.172,293.72 C72.3,293.528 72.4093333,293.376 72.5,293.264 C72.5906667,293.152 72.676,293.066667 72.756,293.008 C72.836,292.949333 72.9133333,292.912 72.988,292.896 C73.0626667,292.88 73.1426667,292.872 73.228,292.872 L73.228,292.872 L73.228,292.584 L70.428,292.584 L70.428,292.872 C70.5133333,292.872 70.6066667,292.882667 70.708,292.904 C70.8093333,292.925333 70.86,292.973333 70.86,293.048 C70.86,293.112 70.8333333,293.181333 70.78,293.256 C70.7266667,293.330667 70.6573333,293.432 70.572,293.56 L70.572,293.56 L68.7,296.136 C68.5613333,295.912 68.38,295.64 68.156,295.32 C67.932,295 67.716,294.688 67.508,294.384 C67.3,294.08 67.1186667,293.808 66.964,293.568 C66.8093333,293.328 66.732,293.176 66.732,293.112 C66.732,293.005333 66.7746667,292.938667 66.86,292.912 C66.9453333,292.885333 67.036,292.872 67.132,292.872 L67.132,292.872 L67.132,292.584 L63.804,292.584 L63.804,292.872 C63.9106667,292.872 64.0413333,292.909333 64.196,292.984 C64.3506667,293.058667 64.4653333,293.149333 64.54,293.256 L64.54,293.256 L67.628,297.576 L67.628,300.424 C67.628,300.52 67.596,300.592 67.532,300.64 C67.468,300.688 67.388,300.712 67.292,300.712 L67.292,300.712 L67.292,301 L69.82,301 Z M78.284,301.048 C78.8706667,301.048 79.4226667,300.981333 79.94,300.848 C80.4573333,300.714667 80.908,300.498667 81.292,300.2 C81.676,299.901333 81.98,299.525333 82.204,299.072 C82.428,298.618667 82.54,298.088 82.54,297.48 C82.54,296.872 82.428,296.341333 82.204,295.888 C81.98,295.434667 81.676,295.058667 81.292,294.76 C80.908,294.461333 80.4573333,294.237333 79.94,294.088 C79.4226667,293.938667 78.8706667,293.864 78.284,293.864 C77.6973333,293.864 77.1453333,293.938667 76.628,294.088 C76.1106667,294.237333 75.66,294.461333 75.276,294.76 C74.892,295.058667 74.588,295.434667 74.364,295.888 C74.14,296.341333 74.028,296.872 74.028,297.48 C74.028,298.088 74.14,298.618667 74.364,299.072 C74.588,299.525333 74.892,299.901333 75.276,300.2 C75.66,300.498667 76.1106667,300.714667 76.628,300.848 C77.1453333,300.981333 77.6973333,301.048 78.284,301.048 Z M78.284,299.912 C77.9426667,299.912 77.6093333,299.856 77.284,299.744 C76.9586667,299.632 76.668,299.472 76.412,299.264 C76.156,299.056 75.9506667,298.802667 75.796,298.504 C75.6413333,298.205333 75.564,297.864 75.564,297.48 C75.564,297.096 75.6413333,296.754667 75.796,296.456 C75.9506667,296.157333 76.156,295.904 76.412,295.696 C76.668,295.488 76.9586667,295.328 77.284,295.216 C77.6093333,295.104 77.9426667,295.048 78.284,295.048 C78.6253333,295.048 78.9586667,295.104 79.284,295.216 C79.6093333,295.328 79.9,295.488 80.156,295.696 C80.412,295.904 80.6173333,296.157333 80.772,296.456 C80.9266667,296.754667 81.004,297.096 81.004,297.48 C81.004,297.864 80.9266667,298.205333 80.772,298.504 C80.6173333,298.802667 80.412,299.056 80.156,299.264 C79.9,299.472 79.6093333,299.632 79.284,299.744 C78.9586667,299.856 78.6253333,299.912 78.284,299.912 Z M88.572,301.048 C89.212,301.048 89.7693333,300.981333 90.244,300.848 C90.7186667,300.714667 91.108,300.530667 91.412,300.296 C91.716,300.061333 91.9426667,299.792 92.092,299.488 C92.2413333,299.184 92.316,298.866667 92.316,298.536 L92.316,298.536 L92.316,294.488 C92.316,294.328 92.4333333,294.248 92.668,294.248 L92.668,294.248 L92.668,293.96 L90.444,293.96 L90.444,294.248 C90.7106667,294.248 90.844,294.328 90.844,294.488 L90.844,294.488 L90.844,298.152 C90.844,298.664 90.6573333,299.074667 90.284,299.384 C89.9106667,299.693333 89.34,299.848 88.572,299.848 C87.804,299.848 87.2333333,299.693333 86.86,299.384 C86.4866667,299.074667 86.3,298.664 86.3,298.152 L86.3,298.152 L86.3,294.488 C86.3,294.328 86.4173333,294.248 86.652,294.248 L86.652,294.248 L86.652,293.96 L84.364,293.96 L84.364,294.248 C84.5453333,294.248 84.668,294.266667 84.732,294.304 C84.796,294.341333 84.828,294.402667 84.828,294.488 L84.828,294.488 L84.828,298.536 C84.828,298.866667 84.9026667,299.184 85.052,299.488 C85.2013333,299.792 85.428,300.061333 85.732,300.296 C86.036,300.530667 86.4253333,300.714667 86.9,300.848 C87.3746667,300.981333 87.932,301.048 88.572,301.048 Z M106.956,301.16 L106.956,299.48 L106.668,299.48 C106.668,299.586667 106.625333,299.669333 106.54,299.728 C106.454667,299.786667 106.348,299.816 106.22,299.816 L106.22,299.816 L101.9,299.816 L101.9,294.488 C101.9,294.328 102.022667,294.248 102.268,294.248 L102.268,294.248 L102.268,293.96 L99.948,293.96 L99.948,294.248 C100.225333,294.248 100.364,294.328 100.364,294.488 L100.364,294.488 L100.364,300.472 C100.364,300.632 100.225333,300.712 99.948,300.712 L99.948,300.712 L99.948,301 L106.22,301 C106.348,301 106.454667,301.005333 106.54,301.016 C106.625333,301.026667 106.668,301.074667 106.668,301.16 L106.668,301.16 L106.956,301.16 Z M112.508,301.048 C113.094667,301.048 113.646667,300.981333 114.164,300.848 C114.681333,300.714667 115.132,300.498667 115.516,300.2 C115.9,299.901333 116.204,299.525333 116.428,299.072 C116.652,298.618667 116.764,298.088 116.764,297.48 C116.764,296.872 116.652,296.341333 116.428,295.888 C116.204,295.434667 115.9,295.058667 115.516,294.76 C115.132,294.461333 114.681333,294.237333 114.164,294.088 C113.646667,293.938667 113.094667,293.864 112.508,293.864 C111.921333,293.864 111.369333,293.938667 110.852,294.088 C110.334667,294.237333 109.884,294.461333 109.5,294.76 C109.116,295.058667 108.812,295.434667 108.588,295.888 C108.364,296.341333 108.252,296.872 108.252,297.48 C108.252,298.088 108.364,298.618667 108.588,299.072 C108.812,299.525333 109.116,299.901333 109.5,300.2 C109.884,300.498667 110.334667,300.714667 110.852,300.848 C111.369333,300.981333 111.921333,301.048 112.508,301.048 Z M112.508,299.912 C112.166667,299.912 111.833333,299.856 111.508,299.744 C111.182667,299.632 110.892,299.472 110.636,299.264 C110.38,299.056 110.174667,298.802667 110.02,298.504 C109.865333,298.205333 109.788,297.864 109.788,297.48 C109.788,297.096 109.865333,296.754667 110.02,296.456 C110.174667,296.157333 110.38,295.904 110.636,295.696 C110.892,295.488 111.182667,295.328 111.508,295.216 C111.833333,295.104 112.166667,295.048 112.508,295.048 C112.849333,295.048 113.182667,295.104 113.508,295.216 C113.833333,295.328 114.124,295.488 114.38,295.696 C114.636,295.904 114.841333,296.157333 114.996,296.456 C115.150667,296.754667 115.228,297.096 115.228,297.48 C115.228,297.864 115.150667,298.205333 114.996,298.504 C114.841333,298.802667 114.636,299.056 114.38,299.264 C114.124,299.472 113.833333,299.632 113.508,299.744 C113.182667,299.856 112.849333,299.912 112.508,299.912 Z M122.284,301.048 C122.870667,301.048 123.422667,300.981333 123.94,300.848 C124.457333,300.714667 124.908,300.498667 125.292,300.2 C125.676,299.901333 125.98,299.525333 126.204,299.072 C126.428,298.618667 126.54,298.088 126.54,297.48 C126.54,296.872 126.428,296.341333 126.204,295.888 C125.98,295.434667 125.676,295.058667 125.292,294.76 C124.908,294.461333 124.457333,294.237333 123.94,294.088 C123.422667,293.938667 122.870667,293.864 122.284,293.864 C121.697333,293.864 121.145333,293.938667 120.628,294.088 C120.110667,294.237333 119.66,294.461333 119.276,294.76 C118.892,295.058667 118.588,295.434667 118.364,295.888 C118.14,296.341333 118.028,296.872 118.028,297.48 C118.028,298.088 118.14,298.618667 118.364,299.072 C118.588,299.525333 118.892,299.901333 119.276,300.2 C119.66,300.498667 120.110667,300.714667 120.628,300.848 C121.145333,300.981333 121.697333,301.048 122.284,301.048 Z M122.284,299.912 C121.942667,299.912 121.609333,299.856 121.284,299.744 C120.958667,299.632 120.668,299.472 120.412,299.264 C120.156,299.056 119.950667,298.802667 119.796,298.504 C119.641333,298.205333 119.564,297.864 119.564,297.48 C119.564,297.096 119.641333,296.754667 119.796,296.456 C119.950667,296.157333 120.156,295.904 120.412,295.696 C120.668,295.488 120.958667,295.328 121.284,295.216 C121.609333,295.104 121.942667,295.048 122.284,295.048 C122.625333,295.048 122.958667,295.104 123.284,295.216 C123.609333,295.328 123.9,295.488 124.156,295.696 C124.412,295.904 124.617333,296.157333 124.772,296.456 C124.926667,296.754667 125.004,297.096 125.004,297.48 C125.004,297.864 124.926667,298.205333 124.772,298.504 C124.617333,298.802667 124.412,299.056 124.156,299.264 C123.9,299.472 123.609333,299.632 123.284,299.744 C122.958667,299.856 122.625333,299.912 122.284,299.912 Z M130.46,301 L130.46,300.712 C130.257333,300.712 130.156,300.632 130.156,300.472 L130.156,300.472 L130.156,298.68 L131.404,297.688 L133.372,300.088 C133.510667,300.248 133.604,300.365333 133.652,300.44 C133.7,300.514667 133.724,300.573333 133.724,300.616 C133.724,300.68 133.665333,300.712 133.548,300.712 L133.548,300.712 L133.548,301 L135.916,301 L135.916,300.712 C135.766667,300.669333 135.617333,300.565333 135.468,300.4 C135.318667,300.234667 135.18,300.072 135.052,299.912 L135.052,299.912 L132.524,296.776 L135.196,294.616 C135.452,294.413333 135.644,294.290667 135.772,294.248 L135.772,294.248 L135.772,293.96 L133.132,293.96 L133.132,294.2 C133.185333,294.2 133.241333,294.216 133.3,294.248 C133.358667,294.28 133.388,294.322667 133.388,294.376 C133.388,294.418667 133.286667,294.528 133.084,294.704 C132.881333,294.88 132.625333,295.096 132.316,295.352 C132.006667,295.608 131.66,295.888 131.276,296.192 C130.892,296.496 130.518667,296.797333 130.156,297.096 L130.156,297.096 L130.156,294.488 C130.156,294.328 130.257333,294.248 130.46,294.248 L130.46,294.248 L130.46,293.96 L128.364,293.96 L128.364,294.248 C128.534667,294.248 128.62,294.328 128.62,294.488 L128.62,294.488 L128.62,300.472 C128.62,300.632 128.534667,300.712 128.364,300.712 L128.364,300.712 L128.364,301 L130.46,301 Z M145.276,301.048 C145.638667,301.048 146.025333,301.021333 146.436,300.968 C146.846667,300.914667 147.222667,300.802667 147.564,300.632 C147.905333,300.461333 148.190667,300.226667 148.42,299.928 C148.649333,299.629333 148.764,299.245333 148.764,298.776 C148.764,298.306667 148.633333,297.938667 148.372,297.672 C148.110667,297.405333 147.782667,297.202667 147.388,297.064 C146.993333,296.925333 146.566667,296.826667 146.108,296.768 C145.649333,296.709333 145.222667,296.650667 144.828,296.592 C144.433333,296.533333 144.105333,296.453333 143.844,296.352 C143.582667,296.250667 143.452,296.082667 143.452,295.848 C143.452,295.698667 143.494667,295.573333 143.58,295.472 C143.665333,295.370667 143.782667,295.288 143.932,295.224 C144.081333,295.16 144.252,295.114667 144.444,295.088 C144.636,295.061333 144.838667,295.048 145.052,295.048 C145.606667,295.048 146.108,295.112 146.556,295.24 C147.004,295.368 147.334667,295.522667 147.548,295.704 C147.633333,295.768 147.681333,295.832 147.692,295.896 L147.692,295.896 L147.724,296.088 L148.012,296.184 L148.812,294.68 L148.636,294.504 C148.572,294.536 148.518667,294.565333 148.476,294.592 C148.433333,294.618667 148.369333,294.632 148.284,294.632 C148.209333,294.632 148.094667,294.592 147.94,294.512 C147.785333,294.432 147.585333,294.344 147.34,294.248 C147.094667,294.152 146.793333,294.064 146.436,293.984 C146.078667,293.904 145.649333,293.864 145.148,293.864 C144.124,293.864 143.329333,294.066667 142.764,294.472 C142.198667,294.877333 141.916,295.421333 141.916,296.104 C141.916,296.562667 142.046667,296.917333 142.308,297.168 C142.569333,297.418667 142.897333,297.610667 143.292,297.744 C143.686667,297.877333 144.113333,297.973333 144.572,298.032 C145.030667,298.090667 145.457333,298.149333 145.852,298.208 C146.246667,298.266667 146.574667,298.349333 146.836,298.456 C147.097333,298.562667 147.228,298.733333 147.228,298.968 C147.228,299.170667 147.153333,299.333333 147.004,299.456 C146.854667,299.578667 146.673333,299.674667 146.46,299.744 C146.246667,299.813333 146.030667,299.858667 145.812,299.88 C145.593333,299.901333 145.409333,299.912 145.26,299.912 C145.1,299.912 144.878667,299.885333 144.596,299.832 C144.313333,299.778667 144.030667,299.706667 143.748,299.616 C143.465333,299.525333 143.222667,299.413333 143.02,299.28 C142.817333,299.146667 142.716,299 142.716,298.84 C142.716,298.786667 142.718667,298.736 142.724,298.688 C142.729333,298.64 142.732,298.594667 142.732,298.552 L142.732,298.552 L142.428,298.472 L141.692,300.264 L141.916,300.424 C141.969333,300.36 142.033333,300.328 142.108,300.328 C142.150667,300.328 142.273333,300.368 142.476,300.448 C142.678667,300.528 142.926667,300.613333 143.22,300.704 C143.513333,300.794667 143.838667,300.874667 144.196,300.944 C144.553333,301.013333 144.913333,301.048 145.276,301.048 Z M153.724,301 L153.724,300.712 C153.425333,300.712 153.276,300.632 153.276,300.472 L153.276,300.472 L153.276,294.488 C153.276,294.328 153.425333,294.248 153.724,294.248 L153.724,294.248 L153.724,293.96 L151.292,293.96 L151.292,294.248 C151.462667,294.248 151.58,294.266667 151.644,294.304 C151.708,294.341333 151.74,294.402667 151.74,294.488 L151.74,294.488 L151.74,300.472 C151.74,300.557333 151.708,300.618667 151.644,300.656 C151.58,300.693333 151.462667,300.712 151.292,300.712 L151.292,300.712 L151.292,301 L153.724,301 Z M159.692,301.048 C160.172,301.048 160.606667,301.005333 160.996,300.92 C161.385333,300.834667 161.726667,300.730667 162.02,300.608 C162.313333,300.485333 162.556,300.376 162.748,300.28 C162.94,300.184 163.078667,300.136 163.164,300.136 C163.217333,300.136 163.308,300.162667 163.436,300.216 L163.436,300.216 L163.596,300.136 L162.412,298.44 L162.236,298.6 C162.246667,298.642667 162.252,298.696 162.252,298.76 L162.252,298.76 L162.252,298.888 C162.252,298.984 162.174667,299.090667 162.02,299.208 C161.865333,299.325333 161.665333,299.434667 161.42,299.536 C161.174667,299.637333 160.902667,299.725333 160.604,299.8 C160.305333,299.874667 160.012,299.912 159.724,299.912 C159.414667,299.912 159.110667,299.856 158.812,299.744 C158.513333,299.632 158.246667,299.466667 158.012,299.248 C157.777333,299.029333 157.588,298.768 157.444,298.464 C157.3,298.16 157.228,297.816 157.228,297.432 C157.228,297.048 157.292,296.706667 157.42,296.408 C157.548,296.109333 157.729333,295.858667 157.964,295.656 C158.198667,295.453333 158.473333,295.301333 158.788,295.2 C159.102667,295.098667 159.452,295.048 159.836,295.048 C160.156,295.048 160.449333,295.077333 160.716,295.136 C160.982667,295.194667 161.214667,295.266667 161.412,295.352 C161.609333,295.437333 161.761333,295.525333 161.868,295.616 C161.974667,295.706667 162.028,295.778667 162.028,295.832 C162.028,295.864 162.030667,295.890667 162.036,295.912 C162.041333,295.933333 162.044,295.954667 162.044,295.976 L162.044,295.976 L162.22,296.104 L163.276,294.584 L163.084,294.472 C163.041333,294.493333 163.001333,294.52 162.964,294.552 C162.926667,294.584 162.881333,294.6 162.828,294.6 C162.753333,294.6 162.630667,294.562667 162.46,294.488 C162.289333,294.413333 162.076,294.328 161.82,294.232 C161.564,294.136 161.268,294.050667 160.932,293.976 C160.596,293.901333 160.225333,293.864 159.82,293.864 C159.297333,293.864 158.788,293.938667 158.292,294.088 C157.796,294.237333 157.356,294.464 156.972,294.768 C156.588,295.072 156.278667,295.448 156.044,295.896 C155.809333,296.344 155.692,296.866667 155.692,297.464 C155.692,298.061333 155.809333,298.586667 156.044,299.04 C156.278667,299.493333 156.582667,299.872 156.956,300.176 C157.329333,300.48 157.756,300.701333 158.236,300.84 C158.716,300.978667 159.201333,301.048 159.692,301.048 Z M167.356,301 L167.356,300.712 C167.153333,300.712 167.052,300.632 167.052,300.472 L167.052,300.472 L167.052,298.68 L168.3,297.688 L170.268,300.088 C170.406667,300.248 170.5,300.365333 170.548,300.44 C170.596,300.514667 170.62,300.573333 170.62,300.616 C170.62,300.68 170.561333,300.712 170.444,300.712 L170.444,300.712 L170.444,301 L172.812,301 L172.812,300.712 C172.662667,300.669333 172.513333,300.565333 172.364,300.4 C172.214667,300.234667 172.076,300.072 171.948,299.912 L171.948,299.912 L169.42,296.776 L172.092,294.616 C172.348,294.413333 172.54,294.290667 172.668,294.248 L172.668,294.248 L172.668,293.96 L170.028,293.96 L170.028,294.2 C170.081333,294.2 170.137333,294.216 170.196,294.248 C170.254667,294.28 170.284,294.322667 170.284,294.376 C170.284,294.418667 170.182667,294.528 169.98,294.704 C169.777333,294.88 169.521333,295.096 169.212,295.352 C168.902667,295.608 168.556,295.888 168.172,296.192 C167.788,296.496 167.414667,296.797333 167.052,297.096 L167.052,297.096 L167.052,294.488 C167.052,294.328 167.153333,294.248 167.356,294.248 L167.356,294.248 L167.356,293.96 L165.26,293.96 L165.26,294.248 C165.430667,294.248 165.516,294.328 165.516,294.488 L165.516,294.488 L165.516,300.472 C165.516,300.632 165.430667,300.712 165.26,300.712 L165.26,300.712 L165.26,301 L167.356,301 Z M175.404,301.048 C175.713333,301.048 175.98,300.944 176.204,300.736 C176.428,300.528 176.54,300.269333 176.54,299.96 C176.54,299.650667 176.428,299.384 176.204,299.16 C175.98,298.936 175.713333,298.824 175.404,298.824 C175.094667,298.824 174.828,298.936 174.604,299.16 C174.38,299.384 174.268,299.650667 174.268,299.96 C174.268,300.269333 174.38,300.528 174.604,300.736 C174.828,300.944 175.094667,301.048 175.404,301.048 Z M185.164,301.048 C185.473333,301.048 185.74,300.944 185.964,300.736 C186.188,300.528 186.3,300.269333 186.3,299.96 C186.3,299.650667 186.188,299.384 185.964,299.16 C185.74,298.936 185.473333,298.824 185.164,298.824 C184.854667,298.824 184.588,298.936 184.364,299.16 C184.14,299.384 184.028,299.650667 184.028,299.96 C184.028,300.269333 184.14,300.528 184.364,300.736 C184.588,300.944 184.854667,301.048 185.164,301.048 Z M194.924,301.048 C195.233333,301.048 195.5,300.944 195.724,300.736 C195.948,300.528 196.06,300.269333 196.06,299.96 C196.06,299.650667 195.948,299.384 195.724,299.16 C195.5,298.936 195.233333,298.824 194.924,298.824 C194.614667,298.824 194.348,298.936 194.124,299.16 C193.9,299.384 193.788,299.650667 193.788,299.96 C193.788,300.269333 193.9,300.528 194.124,300.736 C194.348,300.944 194.614667,301.048 194.924,301.048 Z M69.124,317 L69.124,316.712 C68.8786667,316.712 68.756,316.616 68.756,316.424 L68.756,316.424 L68.756,313.576 L71.476,309.72 C71.604,309.528 71.7133333,309.376 71.804,309.264 C71.8946667,309.152 71.98,309.066667 72.06,309.008 C72.14,308.949333 72.2173333,308.912 72.292,308.896 C72.3666667,308.88 72.4466667,308.872 72.532,308.872 L72.532,308.872 L72.532,308.584 L69.732,308.584 L69.732,308.872 C69.8173333,308.872 69.9106667,308.882667 70.012,308.904 C70.1133333,308.925333 70.164,308.973333 70.164,309.048 C70.164,309.112 70.1373333,309.181333 70.084,309.256 C70.0306667,309.330667 69.9613333,309.432 69.876,309.56 L69.876,309.56 L68.004,312.136 C67.8653333,311.912 67.684,311.64 67.46,311.32 C67.236,311 67.02,310.688 66.812,310.384 C66.604,310.08 66.4226667,309.808 66.268,309.568 C66.1133333,309.328 66.036,309.176 66.036,309.112 C66.036,309.005333 66.0786667,308.938667 66.164,308.912 C66.2493333,308.885333 66.34,308.872 66.436,308.872 L66.436,308.872 L66.436,308.584 L63.108,308.584 L63.108,308.872 C63.2146667,308.872 63.3453333,308.909333 63.5,308.984 C63.6546667,309.058667 63.7693333,309.149333 63.844,309.256 L63.844,309.256 L66.932,313.576 L66.932,316.424 C66.932,316.52 66.9,316.592 66.836,316.64 C66.772,316.688 66.692,316.712 66.596,316.712 L66.596,316.712 L66.596,317 L69.124,317 Z M77.588,317.048 C78.1746667,317.048 78.7266667,316.981333 79.244,316.848 C79.7613333,316.714667 80.212,316.498667 80.596,316.2 C80.98,315.901333 81.284,315.525333 81.508,315.072 C81.732,314.618667 81.844,314.088 81.844,313.48 C81.844,312.872 81.732,312.341333 81.508,311.888 C81.284,311.434667 80.98,311.058667 80.596,310.76 C80.212,310.461333 79.7613333,310.237333 79.244,310.088 C78.7266667,309.938667 78.1746667,309.864 77.588,309.864 C77.0013333,309.864 76.4493333,309.938667 75.932,310.088 C75.4146667,310.237333 74.964,310.461333 74.58,310.76 C74.196,311.058667 73.892,311.434667 73.668,311.888 C73.444,312.341333 73.332,312.872 73.332,313.48 C73.332,314.088 73.444,314.618667 73.668,315.072 C73.892,315.525333 74.196,315.901333 74.58,316.2 C74.964,316.498667 75.4146667,316.714667 75.932,316.848 C76.4493333,316.981333 77.0013333,317.048 77.588,317.048 Z M77.588,315.912 C77.2466667,315.912 76.9133333,315.856 76.588,315.744 C76.2626667,315.632 75.972,315.472 75.716,315.264 C75.46,315.056 75.2546667,314.802667 75.1,314.504 C74.9453333,314.205333 74.868,313.864 74.868,313.48 C74.868,313.096 74.9453333,312.754667 75.1,312.456 C75.2546667,312.157333 75.46,311.904 75.716,311.696 C75.972,311.488 76.2626667,311.328 76.588,311.216 C76.9133333,311.104 77.2466667,311.048 77.588,311.048 C77.9293333,311.048 78.2626667,311.104 78.588,311.216 C78.9133333,311.328 79.204,311.488 79.46,311.696 C79.716,311.904 79.9213333,312.157333 80.076,312.456 C80.2306667,312.754667 80.308,313.096 80.308,313.48 C80.308,313.864 80.2306667,314.205333 80.076,314.504 C79.9213333,314.802667 79.716,315.056 79.46,315.264 C79.204,315.472 78.9133333,315.632 78.588,315.744 C78.2626667,315.856 77.9293333,315.912 77.588,315.912 Z M87.876,317.048 C88.516,317.048 89.0733333,316.981333 89.548,316.848 C90.0226667,316.714667 90.412,316.530667 90.716,316.296 C91.02,316.061333 91.2466667,315.792 91.396,315.488 C91.5453333,315.184 91.62,314.866667 91.62,314.536 L91.62,314.536 L91.62,310.488 C91.62,310.328 91.7373333,310.248 91.972,310.248 L91.972,310.248 L91.972,309.96 L89.748,309.96 L89.748,310.248 C90.0146667,310.248 90.148,310.328 90.148,310.488 L90.148,310.488 L90.148,314.152 C90.148,314.664 89.9613333,315.074667 89.588,315.384 C89.2146667,315.693333 88.644,315.848 87.876,315.848 C87.108,315.848 86.5373333,315.693333 86.164,315.384 C85.7906667,315.074667 85.604,314.664 85.604,314.152 L85.604,314.152 L85.604,310.488 C85.604,310.328 85.7213333,310.248 85.956,310.248 L85.956,310.248 L85.956,309.96 L83.668,309.96 L83.668,310.248 C83.8493333,310.248 83.972,310.266667 84.036,310.304 C84.1,310.341333 84.132,310.402667 84.132,310.488 L84.132,310.488 L84.132,314.536 C84.132,314.866667 84.2066667,315.184 84.356,315.488 C84.5053333,315.792 84.732,316.061333 85.036,316.296 C85.34,316.530667 85.7293333,316.714667 86.204,316.848 C86.6786667,316.981333 87.236,317.048 87.876,317.048 Z M102.548,317.048 C103.028,317.048 103.462667,317.005333 103.852,316.92 C104.241333,316.834667 104.582667,316.730667 104.876,316.608 C105.169333,316.485333 105.412,316.376 105.604,316.28 C105.796,316.184 105.934667,316.136 106.02,316.136 C106.073333,316.136 106.164,316.162667 106.292,316.216 L106.292,316.216 L106.452,316.136 L105.268,314.44 L105.092,314.6 C105.102667,314.642667 105.108,314.696 105.108,314.76 L105.108,314.76 L105.108,314.888 C105.108,314.984 105.030667,315.090667 104.876,315.208 C104.721333,315.325333 104.521333,315.434667 104.276,315.536 C104.030667,315.637333 103.758667,315.725333 103.46,315.8 C103.161333,315.874667 102.868,315.912 102.58,315.912 C102.270667,315.912 101.966667,315.856 101.668,315.744 C101.369333,315.632 101.102667,315.466667 100.868,315.248 C100.633333,315.029333 100.444,314.768 100.3,314.464 C100.156,314.16 100.084,313.816 100.084,313.432 C100.084,313.048 100.148,312.706667 100.276,312.408 C100.404,312.109333 100.585333,311.858667 100.82,311.656 C101.054667,311.453333 101.329333,311.301333 101.644,311.2 C101.958667,311.098667 102.308,311.048 102.692,311.048 C103.012,311.048 103.305333,311.077333 103.572,311.136 C103.838667,311.194667 104.070667,311.266667 104.268,311.352 C104.465333,311.437333 104.617333,311.525333 104.724,311.616 C104.830667,311.706667 104.884,311.778667 104.884,311.832 C104.884,311.864 104.886667,311.890667 104.892,311.912 C104.897333,311.933333 104.9,311.954667 104.9,311.976 L104.9,311.976 L105.076,312.104 L106.132,310.584 L105.94,310.472 C105.897333,310.493333 105.857333,310.52 105.82,310.552 C105.782667,310.584 105.737333,310.6 105.684,310.6 C105.609333,310.6 105.486667,310.562667 105.316,310.488 C105.145333,310.413333 104.932,310.328 104.676,310.232 C104.42,310.136 104.124,310.050667 103.788,309.976 C103.452,309.901333 103.081333,309.864 102.676,309.864 C102.153333,309.864 101.644,309.938667 101.148,310.088 C100.652,310.237333 100.212,310.464 99.828,310.768 C99.444,311.072 99.1346667,311.448 98.9,311.896 C98.6653333,312.344 98.548,312.866667 98.548,313.464 C98.548,314.061333 98.6653333,314.586667 98.9,315.04 C99.1346667,315.493333 99.4386667,315.872 99.812,316.176 C100.185333,316.48 100.612,316.701333 101.092,316.84 C101.572,316.978667 102.057333,317.048 102.548,317.048 Z M109.316,317 L109.316,316.712 C109.22,316.712 109.145333,316.701333 109.092,316.68 C109.038667,316.658667 109.012,316.605333 109.012,316.52 C109.012,316.466667 109.025333,316.405333 109.052,316.336 C109.078667,316.266667 109.113333,316.189333 109.156,316.104 L109.156,316.104 L109.604,315.24 L113.028,315.24 L113.46,316.152 C113.492,316.237333 113.518667,316.306667 113.54,316.36 C113.561333,316.413333 113.572,316.472 113.572,316.536 C113.572,316.621333 113.542667,316.68 113.484,316.712 C113.425333,316.744 113.369333,316.76 113.316,316.76 L113.316,316.76 L113.316,317 L115.588,317 L115.588,316.712 C115.513333,316.690667 115.444,316.658667 115.38,316.616 C115.316,316.573333 115.257333,316.504 115.204,316.408 L115.204,316.408 L112.612,310.968 C112.558667,310.850667 112.508,310.746667 112.46,310.656 C112.412,310.565333 112.388,310.488 112.388,310.424 C112.388,310.349333 112.406667,310.306667 112.444,310.296 C112.481333,310.285333 112.516,310.269333 112.548,310.248 L112.548,310.248 L112.548,309.96 L110.132,309.96 L110.132,310.248 C110.164,310.269333 110.193333,310.288 110.22,310.304 C110.246667,310.32 110.26,310.36 110.26,310.424 C110.26,310.509333 110.241333,310.597333 110.204,310.688 C110.166667,310.778667 110.116,310.898667 110.052,311.048 L110.052,311.048 L107.668,316.248 C107.625333,316.333333 107.564,316.426667 107.484,316.528 C107.404,316.629333 107.3,316.690667 107.172,316.712 L107.172,316.712 L107.172,317 L109.316,317 Z M112.516,314.056 L110.084,314.056 L111.22,311.368 L112.516,314.056 Z M119.092,317 L119.092,316.712 C118.868,316.712 118.756,316.632 118.756,316.472 L118.756,316.472 L118.756,311.816 L122.724,316.04 C122.852,316.178667 122.966667,316.301333 123.068,316.408 C123.169333,316.514667 123.22,316.589333 123.22,316.632 C123.22,316.685333 123.182667,316.712 123.108,316.712 L123.108,316.712 L123.108,317 L125.188,317 L125.188,316.712 C124.996,316.712 124.9,316.632 124.9,316.472 L124.9,316.472 L124.9,310.488 C124.9,310.328 124.996,310.248 125.188,310.248 L125.188,310.248 L125.188,309.96 L123.236,309.96 L123.236,310.248 C123.449333,310.248 123.556,310.328 123.556,310.488 L123.556,310.488 L123.556,314.824 L119.716,310.76 C119.481333,310.525333 119.364,310.381333 119.364,310.328 C119.364,310.285333 119.401333,310.258667 119.476,310.248 L119.476,310.248 L119.476,309.96 L117.124,309.96 L117.124,310.248 C117.316,310.248 117.412,310.328 117.412,310.488 L117.412,310.488 L117.412,316.472 C117.412,316.632 117.316,316.712 117.124,316.712 L117.124,316.712 L117.124,317 L119.092,317 Z M129.764,317 L129.764,316.712 C129.54,316.712 129.428,316.632 129.428,316.472 L129.428,316.472 L129.428,311.816 L133.396,316.04 C133.524,316.178667 133.638667,316.301333 133.74,316.408 C133.841333,316.514667 133.892,316.589333 133.892,316.632 C133.892,316.685333 133.854667,316.712 133.78,316.712 L133.78,316.712 L133.78,317 L135.86,317 L135.86,316.712 C135.668,316.712 135.572,316.632 135.572,316.472 L135.572,316.472 L135.572,310.488 C135.572,310.328 135.668,310.248 135.86,310.248 L135.86,310.248 L135.86,309.96 L133.908,309.96 L133.908,310.248 C134.121333,310.248 134.228,310.328 134.228,310.488 L134.228,310.488 L134.228,314.824 L130.388,310.76 C130.153333,310.525333 130.036,310.381333 130.036,310.328 C130.036,310.285333 130.073333,310.258667 130.148,310.248 L130.148,310.248 L130.148,309.96 L127.796,309.96 L127.796,310.248 C127.988,310.248 128.084,310.328 128.084,310.488 L128.084,310.488 L128.084,316.472 C128.084,316.632 127.988,316.712 127.796,316.712 L127.796,316.712 L127.796,317 L129.764,317 Z M142.052,317.048 C142.638667,317.048 143.190667,316.981333 143.708,316.848 C144.225333,316.714667 144.676,316.498667 145.06,316.2 C145.444,315.901333 145.748,315.525333 145.972,315.072 C146.196,314.618667 146.308,314.088 146.308,313.48 C146.308,312.872 146.196,312.341333 145.972,311.888 C145.748,311.434667 145.444,311.058667 145.06,310.76 C144.676,310.461333 144.225333,310.237333 143.708,310.088 C143.190667,309.938667 142.638667,309.864 142.052,309.864 C141.465333,309.864 140.913333,309.938667 140.396,310.088 C139.878667,310.237333 139.428,310.461333 139.044,310.76 C138.66,311.058667 138.356,311.434667 138.132,311.888 C137.908,312.341333 137.796,312.872 137.796,313.48 C137.796,314.088 137.908,314.618667 138.132,315.072 C138.356,315.525333 138.66,315.901333 139.044,316.2 C139.428,316.498667 139.878667,316.714667 140.396,316.848 C140.913333,316.981333 141.465333,317.048 142.052,317.048 Z M142.052,315.912 C141.710667,315.912 141.377333,315.856 141.052,315.744 C140.726667,315.632 140.436,315.472 140.18,315.264 C139.924,315.056 139.718667,314.802667 139.564,314.504 C139.409333,314.205333 139.332,313.864 139.332,313.48 C139.332,313.096 139.409333,312.754667 139.564,312.456 C139.718667,312.157333 139.924,311.904 140.18,311.696 C140.436,311.488 140.726667,311.328 141.052,311.216 C141.377333,311.104 141.710667,311.048 142.052,311.048 C142.393333,311.048 142.726667,311.104 143.052,311.216 C143.377333,311.328 143.668,311.488 143.924,311.696 C144.18,311.904 144.385333,312.157333 144.54,312.456 C144.694667,312.754667 144.772,313.096 144.772,313.48 C144.772,313.864 144.694667,314.205333 144.54,314.504 C144.385333,314.802667 144.18,315.056 143.924,315.264 C143.668,315.472 143.377333,315.632 143.052,315.744 C142.726667,315.856 142.393333,315.912 142.052,315.912 Z M152.004,317 L152.004,316.712 C151.812,316.712 151.716,316.632 151.716,316.472 L151.716,316.472 L151.716,311.144 L153.796,311.144 C153.881333,311.144 153.961333,311.165333 154.036,311.208 C154.110667,311.250667 154.148,311.32 154.148,311.416 L154.148,311.416 L154.436,311.416 L154.436,309.576 L154.148,309.576 C154.148,309.725333 154.110667,309.826667 154.036,309.88 C153.961333,309.933333 153.881333,309.96 153.796,309.96 L153.796,309.96 L148.1,309.96 C148.014667,309.96 147.934667,309.933333 147.86,309.88 C147.785333,309.826667 147.748,309.725333 147.748,309.576 L147.748,309.576 L147.46,309.576 L147.46,311.416 L147.748,311.416 C147.748,311.32 147.785333,311.250667 147.86,311.208 C147.934667,311.165333 148.014667,311.144 148.1,311.144 L148.1,311.144 L150.18,311.144 L150.18,316.472 C150.18,316.557333 150.153333,316.618667 150.1,316.656 C150.046667,316.693333 149.993333,316.712 149.94,316.712 L149.94,316.712 L149.94,317 L152.004,317 Z M164.34,317.048 C164.82,317.048 165.254667,317.005333 165.644,316.92 C166.033333,316.834667 166.374667,316.730667 166.668,316.608 C166.961333,316.485333 167.204,316.376 167.396,316.28 C167.588,316.184 167.726667,316.136 167.812,316.136 C167.865333,316.136 167.956,316.162667 168.084,316.216 L168.084,316.216 L168.244,316.136 L167.06,314.44 L166.884,314.6 C166.894667,314.642667 166.9,314.696 166.9,314.76 L166.9,314.76 L166.9,314.888 C166.9,314.984 166.822667,315.090667 166.668,315.208 C166.513333,315.325333 166.313333,315.434667 166.068,315.536 C165.822667,315.637333 165.550667,315.725333 165.252,315.8 C164.953333,315.874667 164.66,315.912 164.372,315.912 C164.062667,315.912 163.758667,315.856 163.46,315.744 C163.161333,315.632 162.894667,315.466667 162.66,315.248 C162.425333,315.029333 162.236,314.768 162.092,314.464 C161.948,314.16 161.876,313.816 161.876,313.432 C161.876,313.048 161.94,312.706667 162.068,312.408 C162.196,312.109333 162.377333,311.858667 162.612,311.656 C162.846667,311.453333 163.121333,311.301333 163.436,311.2 C163.750667,311.098667 164.1,311.048 164.484,311.048 C164.804,311.048 165.097333,311.077333 165.364,311.136 C165.630667,311.194667 165.862667,311.266667 166.06,311.352 C166.257333,311.437333 166.409333,311.525333 166.516,311.616 C166.622667,311.706667 166.676,311.778667 166.676,311.832 C166.676,311.864 166.678667,311.890667 166.684,311.912 C166.689333,311.933333 166.692,311.954667 166.692,311.976 L166.692,311.976 L166.868,312.104 L167.924,310.584 L167.732,310.472 C167.689333,310.493333 167.649333,310.52 167.612,310.552 C167.574667,310.584 167.529333,310.6 167.476,310.6 C167.401333,310.6 167.278667,310.562667 167.108,310.488 C166.937333,310.413333 166.724,310.328 166.468,310.232 C166.212,310.136 165.916,310.050667 165.58,309.976 C165.244,309.901333 164.873333,309.864 164.468,309.864 C163.945333,309.864 163.436,309.938667 162.94,310.088 C162.444,310.237333 162.004,310.464 161.62,310.768 C161.236,311.072 160.926667,311.448 160.692,311.896 C160.457333,312.344 160.34,312.866667 160.34,313.464 C160.34,314.061333 160.457333,314.586667 160.692,315.04 C160.926667,315.493333 161.230667,315.872 161.604,316.176 C161.977333,316.48 162.404,316.701333 162.884,316.84 C163.364,316.978667 163.849333,317.048 164.34,317.048 Z M174.116,317.048 C174.756,317.048 175.313333,316.981333 175.788,316.848 C176.262667,316.714667 176.652,316.530667 176.956,316.296 C177.26,316.061333 177.486667,315.792 177.636,315.488 C177.785333,315.184 177.86,314.866667 177.86,314.536 L177.86,314.536 L177.86,310.488 C177.86,310.328 177.977333,310.248 178.212,310.248 L178.212,310.248 L178.212,309.96 L175.988,309.96 L175.988,310.248 C176.254667,310.248 176.388,310.328 176.388,310.488 L176.388,310.488 L176.388,314.152 C176.388,314.664 176.201333,315.074667 175.828,315.384 C175.454667,315.693333 174.884,315.848 174.116,315.848 C173.348,315.848 172.777333,315.693333 172.404,315.384 C172.030667,315.074667 171.844,314.664 171.844,314.152 L171.844,314.152 L171.844,310.488 C171.844,310.328 171.961333,310.248 172.196,310.248 L172.196,310.248 L172.196,309.96 L169.908,309.96 L169.908,310.248 C170.089333,310.248 170.212,310.266667 170.276,310.304 C170.34,310.341333 170.372,310.402667 170.372,310.488 L170.372,310.488 L170.372,314.536 C170.372,314.866667 170.446667,315.184 170.596,315.488 C170.745333,315.792 170.972,316.061333 171.276,316.296 C171.58,316.530667 171.969333,316.714667 172.444,316.848 C172.918667,316.981333 173.476,317.048 174.116,317.048 Z M182.772,317 L182.772,316.712 C182.708,316.712 182.641333,316.693333 182.572,316.656 C182.502667,316.618667 182.468,316.557333 182.468,316.472 L182.468,316.472 L182.468,314.184 L184.692,314.184 L185.956,316.072 C186.116,316.296 186.196,316.461333 186.196,316.568 C186.196,316.664 186.126667,316.712 185.988,316.712 L185.988,316.712 L185.988,317 L188.436,317 L188.436,316.712 C188.318667,316.68 188.209333,316.634667 188.108,316.576 C188.006667,316.517333 187.913333,316.429333 187.828,316.312 L187.828,316.312 L186.26,314.024 C186.484,313.970667 186.702667,313.893333 186.916,313.792 C187.129333,313.690667 187.324,313.557333 187.5,313.392 C187.676,313.226667 187.817333,313.032 187.924,312.808 C188.030667,312.584 188.084,312.328 188.084,312.04 C188.084,311.282667 187.817333,310.746667 187.284,310.432 C186.750667,310.117333 186.009333,309.96 185.06,309.96 L185.06,309.96 L180.644,309.96 L180.644,310.248 C180.836,310.248 180.932,310.328 180.932,310.488 L180.932,310.488 L180.932,316.472 C180.932,316.632 180.836,316.712 180.644,316.712 L180.644,316.712 L180.644,317 L182.772,317 Z M185.028,313 L182.5,313 L182.5,311.144 L185.028,311.144 C185.572,311.144 185.969333,311.221333 186.22,311.376 C186.470667,311.530667 186.596,311.741333 186.596,312.008 C186.596,312.669333 186.073333,313 185.028,313 L185.028,313 Z M197.092,317.176 L197.092,315.496 L196.804,315.496 C196.804,315.592 196.761333,315.669333 196.676,315.728 C196.590667,315.786667 196.484,315.816 196.356,315.816 L196.356,315.816 L192.26,315.816 L192.26,313.928 L194.596,313.928 C194.809333,313.928 194.974667,313.941333 195.092,313.968 C195.209333,313.994667 195.252,314.066667 195.22,314.184 L195.22,314.184 L195.54,314.184 L195.54,312.488 L195.252,312.488 C195.252,312.605333 195.209333,312.677333 195.124,312.704 C195.038667,312.730667 194.905333,312.744 194.724,312.744 L194.724,312.744 L192.26,312.744 L192.26,311.144 L196.164,311.144 C196.494667,311.144 196.66,311.245333 196.66,311.448 L196.66,311.448 L196.948,311.448 L196.948,309.672 L196.66,309.672 C196.66,309.864 196.494667,309.96 196.164,309.96 L196.164,309.96 L190.484,309.96 L190.484,310.248 C190.537333,310.248 190.590667,310.266667 190.644,310.304 C190.697333,310.341333 190.724,310.402667 190.724,310.488 L190.724,310.488 L190.724,316.472 C190.724,316.557333 190.697333,316.618667 190.644,316.656 C190.590667,316.693333 190.537333,316.712 190.484,316.712 L190.484,316.712 L190.484,317 L196.356,317 C196.484,317 196.590667,317.005333 196.676,317.016 C196.761333,317.026667 196.804,317.08 196.804,317.176 L196.804,317.176 L197.092,317.176 Z M73.036,333.048 C73.3986667,333.048 73.7853333,333.021333 74.196,332.968 C74.6066667,332.914667 74.9826667,332.802667 75.324,332.632 C75.6653333,332.461333 75.9506667,332.226667 76.18,331.928 C76.4093333,331.629333 76.524,331.245333 76.524,330.776 C76.524,330.306667 76.3933333,329.938667 76.132,329.672 C75.8706667,329.405333 75.5426667,329.202667 75.148,329.064 C74.7533333,328.925333 74.3266667,328.826667 73.868,328.768 C73.4093333,328.709333 72.9826667,328.650667 72.588,328.592 C72.1933333,328.533333 71.8653333,328.453333 71.604,328.352 C71.3426667,328.250667 71.212,328.082667 71.212,327.848 C71.212,327.698667 71.2546667,327.573333 71.34,327.472 C71.4253333,327.370667 71.5426667,327.288 71.692,327.224 C71.8413333,327.16 72.012,327.114667 72.204,327.088 C72.396,327.061333 72.5986667,327.048 72.812,327.048 C73.3666667,327.048 73.868,327.112 74.316,327.24 C74.764,327.368 75.0946667,327.522667 75.308,327.704 C75.3933333,327.768 75.4413333,327.832 75.452,327.896 C75.4626667,327.96 75.4733333,328.024 75.484,328.088 L75.484,328.088 L75.772,328.184 L76.572,326.68 L76.396,326.504 C76.332,326.536 76.2786667,326.565333 76.236,326.592 C76.1933333,326.618667 76.1293333,326.632 76.044,326.632 C75.9693333,326.632 75.8546667,326.592 75.7,326.512 C75.5453333,326.432 75.3453333,326.344 75.1,326.248 C74.8546667,326.152 74.5533333,326.064 74.196,325.984 C73.8386667,325.904 73.4093333,325.864 72.908,325.864 C71.884,325.864 71.0893333,326.066667 70.524,326.472 C69.9586667,326.877333 69.676,327.421333 69.676,328.104 C69.676,328.562667 69.8066667,328.917333 70.068,329.168 C70.3293333,329.418667 70.6573333,329.610667 71.052,329.744 C71.4466667,329.877333 71.8733333,329.973333 72.332,330.032 C72.7906667,330.090667 73.2173333,330.149333 73.612,330.208 C74.0066667,330.266667 74.3346667,330.349333 74.596,330.456 C74.8573333,330.562667 74.988,330.733333 74.988,330.968 C74.988,331.170667 74.9133333,331.333333 74.764,331.456 C74.6146667,331.578667 74.4333333,331.674667 74.22,331.744 C74.0066667,331.813333 73.7906667,331.858667 73.572,331.88 C73.3533333,331.901333 73.1693333,331.912 73.02,331.912 C72.86,331.912 72.6386667,331.885333 72.356,331.832 C72.0733333,331.778667 71.7906667,331.706667 71.508,331.616 C71.2253333,331.525333 70.9826667,331.413333 70.78,331.28 C70.5773333,331.146667 70.476,331 70.476,330.84 C70.476,330.786667 70.4786667,330.736 70.484,330.688 C70.4893333,330.64 70.492,330.594667 70.492,330.552 L70.492,330.552 L70.188,330.472 L69.452,332.264 L69.676,332.424 C69.7293333,332.36 69.7933333,332.328 69.868,332.328 C69.9106667,332.328 70.0333333,332.368 70.236,332.448 C70.4386667,332.528 70.6866667,332.613333 70.98,332.704 C71.2733333,332.794667 71.5986667,332.874667 71.956,332.944 C72.3133333,333.013333 72.6733333,333.048 73.036,333.048 Z M83.132,333 L83.132,332.712 C82.9293333,332.712 82.828,332.632 82.828,332.472 L82.828,332.472 L82.828,330.072 L85.276,326.904 C85.3933333,326.754667 85.5293333,326.608 85.684,326.464 C85.8386667,326.32 85.98,326.248 86.108,326.248 L86.108,326.248 L86.108,325.96 L83.66,325.96 L83.66,326.248 C83.7133333,326.248 83.7666667,326.258667 83.82,326.28 C83.8733333,326.301333 83.9,326.354667 83.9,326.44 C83.9,326.504 83.876,326.570667 83.828,326.64 C83.78,326.709333 83.708,326.813333 83.612,326.952 L83.612,326.952 L82.188,328.936 L80.572,326.824 C80.5186667,326.749333 80.4706667,326.685333 80.428,326.632 C80.3853333,326.578667 80.364,326.52 80.364,326.456 C80.364,326.392 80.396,326.341333 80.46,326.304 C80.524,326.266667 80.5826667,326.248 80.636,326.248 L80.636,326.248 L80.636,325.96 L77.996,325.96 L77.996,326.248 C78.092,326.248 78.1933333,326.269333 78.3,326.312 C78.4066667,326.354667 78.4973333,326.424 78.572,326.52 L78.572,326.52 L81.292,330.008 L81.292,332.472 C81.292,332.632 81.196,332.712 81.004,332.712 L81.004,332.712 L81.004,333 L83.132,333 Z M89.804,333 L89.804,332.712 C89.6226667,332.712 89.532,332.632 89.532,332.472 L89.532,332.472 L89.532,327.976 L89.548,327.976 L92.124,333 L92.252,333 L94.972,327.976 L95.004,327.976 L95.004,332.472 C95.036,332.632 94.94,332.712 94.716,332.712 L94.716,332.712 L94.716,333 L96.572,333 L96.572,332.712 C96.5186667,332.712 96.468,332.693333 96.42,332.656 C96.372,332.618667 96.348,332.557333 96.348,332.472 L96.348,332.472 L96.348,326.456 C96.348,326.370667 96.372,326.314667 96.42,326.288 C96.468,326.261333 96.5186667,326.248 96.572,326.248 L96.572,326.248 L96.572,325.96 L94.316,325.96 L94.316,326.248 C94.4013333,326.248 94.444,326.296 94.444,326.392 C94.444,326.424 94.4226667,326.48 94.38,326.56 C94.3373333,326.64 94.2786667,326.744 94.204,326.872 L94.204,326.872 L92.236,330.456 L90.284,326.856 C90.2093333,326.728 90.1533333,326.629333 90.116,326.56 C90.0786667,326.490667 90.06,326.434667 90.06,326.392 C90.06,326.296 90.1133333,326.248 90.22,326.248 L90.22,326.248 L90.22,325.96 L87.996,325.96 L87.996,326.248 C88.0706667,326.248 88.1213333,326.264 88.148,326.296 C88.1746667,326.328 88.188,326.418667 88.188,326.568 L88.188,326.568 L88.188,332.424 C88.188,332.541333 88.1693333,332.616 88.132,332.648 C88.0946667,332.68 88.0493333,332.701333 87.996,332.712 L87.996,332.712 L87.996,333 L89.804,333 Z M101.404,333 L101.404,332.712 C101.18,332.712 101.068,332.632 101.068,332.472 L101.068,332.472 L101.068,330.072 L103.788,330.072 C104.652,330.072 105.3,329.925333 105.732,329.632 C106.164,329.338667 106.38,328.808 106.38,328.04 C106.38,327.272 106.164,326.733333 105.732,326.424 C105.3,326.114667 104.652,325.96 103.788,325.96 L103.788,325.96 L99.132,325.96 L99.132,326.248 C99.3986667,326.248 99.532,326.328 99.532,326.488 L99.532,326.488 L99.532,332.472 C99.532,332.632 99.3986667,332.712 99.132,332.712 L99.132,332.712 L99.132,333 L101.404,333 Z M103.756,328.888 L101.068,328.888 L101.068,327.144 L103.756,327.144 C104.065333,327.144 104.324,327.210667 104.532,327.344 C104.74,327.477333 104.844,327.709333 104.844,328.04 C104.844,328.381333 104.74,328.608 104.532,328.72 C104.324,328.832 104.065333,328.888 103.756,328.888 L103.756,328.888 Z M112.012,333 L112.012,332.712 C111.82,332.712 111.724,332.632 111.724,332.472 L111.724,332.472 L111.724,327.144 L113.804,327.144 C113.889333,327.144 113.969333,327.165333 114.044,327.208 C114.118667,327.250667 114.156,327.32 114.156,327.416 L114.156,327.416 L114.444,327.416 L114.444,325.576 L114.156,325.576 C114.156,325.725333 114.118667,325.826667 114.044,325.88 C113.969333,325.933333 113.889333,325.96 113.804,325.96 L113.804,325.96 L108.108,325.96 C108.022667,325.96 107.942667,325.933333 107.868,325.88 C107.793333,325.826667 107.756,325.725333 107.756,325.576 L107.756,325.576 L107.468,325.576 L107.468,327.416 L107.756,327.416 C107.756,327.32 107.793333,327.250667 107.868,327.208 C107.942667,327.165333 108.022667,327.144 108.108,327.144 L108.108,327.144 L110.188,327.144 L110.188,332.472 C110.188,332.557333 110.161333,332.618667 110.108,332.656 C110.054667,332.693333 110.001333,332.712 109.948,332.712 L109.948,332.712 L109.948,333 L112.012,333 Z M119.836,333.048 C120.422667,333.048 120.974667,332.981333 121.492,332.848 C122.009333,332.714667 122.46,332.498667 122.844,332.2 C123.228,331.901333 123.532,331.525333 123.756,331.072 C123.98,330.618667 124.092,330.088 124.092,329.48 C124.092,328.872 123.98,328.341333 123.756,327.888 C123.532,327.434667 123.228,327.058667 122.844,326.76 C122.46,326.461333 122.009333,326.237333 121.492,326.088 C120.974667,325.938667 120.422667,325.864 119.836,325.864 C119.249333,325.864 118.697333,325.938667 118.18,326.088 C117.662667,326.237333 117.212,326.461333 116.828,326.76 C116.444,327.058667 116.14,327.434667 115.916,327.888 C115.692,328.341333 115.58,328.872 115.58,329.48 C115.58,330.088 115.692,330.618667 115.916,331.072 C116.14,331.525333 116.444,331.901333 116.828,332.2 C117.212,332.498667 117.662667,332.714667 118.18,332.848 C118.697333,332.981333 119.249333,333.048 119.836,333.048 Z M119.836,331.912 C119.494667,331.912 119.161333,331.856 118.836,331.744 C118.510667,331.632 118.22,331.472 117.964,331.264 C117.708,331.056 117.502667,330.802667 117.348,330.504 C117.193333,330.205333 117.116,329.864 117.116,329.48 C117.116,329.096 117.193333,328.754667 117.348,328.456 C117.502667,328.157333 117.708,327.904 117.964,327.696 C118.22,327.488 118.510667,327.328 118.836,327.216 C119.161333,327.104 119.494667,327.048 119.836,327.048 C120.177333,327.048 120.510667,327.104 120.836,327.216 C121.161333,327.328 121.452,327.488 121.708,327.696 C121.964,327.904 122.169333,328.157333 122.324,328.456 C122.478667,328.754667 122.556,329.096 122.556,329.48 C122.556,329.864 122.478667,330.205333 122.324,330.504 C122.169333,330.802667 121.964,331.056 121.708,331.264 C121.452,331.472 121.161333,331.632 120.836,331.744 C120.510667,331.856 120.177333,331.912 119.836,331.912 Z M128.028,333 L128.028,332.712 C127.846667,332.712 127.756,332.632 127.756,332.472 L127.756,332.472 L127.756,327.976 L127.772,327.976 L130.348,333 L130.476,333 L133.196,327.976 L133.228,327.976 L133.228,332.472 C133.26,332.632 133.164,332.712 132.94,332.712 L132.94,332.712 L132.94,333 L134.796,333 L134.796,332.712 C134.742667,332.712 134.692,332.693333 134.644,332.656 C134.596,332.618667 134.572,332.557333 134.572,332.472 L134.572,332.472 L134.572,326.456 C134.572,326.370667 134.596,326.314667 134.644,326.288 C134.692,326.261333 134.742667,326.248 134.796,326.248 L134.796,326.248 L134.796,325.96 L132.54,325.96 L132.54,326.248 C132.625333,326.248 132.668,326.296 132.668,326.392 C132.668,326.424 132.646667,326.48 132.604,326.56 C132.561333,326.64 132.502667,326.744 132.428,326.872 L132.428,326.872 L130.46,330.456 L128.508,326.856 C128.433333,326.728 128.377333,326.629333 128.34,326.56 C128.302667,326.490667 128.284,326.434667 128.284,326.392 C128.284,326.296 128.337333,326.248 128.444,326.248 L128.444,326.248 L128.444,325.96 L126.22,325.96 L126.22,326.248 C126.294667,326.248 126.345333,326.264 126.372,326.296 C126.398667,326.328 126.412,326.418667 126.412,326.568 L126.412,326.568 L126.412,332.424 C126.412,332.541333 126.393333,332.616 126.356,332.648 C126.318667,332.68 126.273333,332.701333 126.22,332.712 L126.22,332.712 L126.22,333 L128.028,333 Z M145.676,333.048 C146.156,333.048 146.590667,333.005333 146.98,332.92 C147.369333,332.834667 147.710667,332.730667 148.004,332.608 C148.297333,332.485333 148.54,332.376 148.732,332.28 C148.924,332.184 149.062667,332.136 149.148,332.136 C149.201333,332.136 149.292,332.162667 149.42,332.216 L149.42,332.216 L149.58,332.136 L148.396,330.44 L148.22,330.6 C148.230667,330.642667 148.236,330.696 148.236,330.76 L148.236,330.76 L148.236,330.888 C148.236,330.984 148.158667,331.090667 148.004,331.208 C147.849333,331.325333 147.649333,331.434667 147.404,331.536 C147.158667,331.637333 146.886667,331.725333 146.588,331.8 C146.289333,331.874667 145.996,331.912 145.708,331.912 C145.398667,331.912 145.094667,331.856 144.796,331.744 C144.497333,331.632 144.230667,331.466667 143.996,331.248 C143.761333,331.029333 143.572,330.768 143.428,330.464 C143.284,330.16 143.212,329.816 143.212,329.432 C143.212,329.048 143.276,328.706667 143.404,328.408 C143.532,328.109333 143.713333,327.858667 143.948,327.656 C144.182667,327.453333 144.457333,327.301333 144.772,327.2 C145.086667,327.098667 145.436,327.048 145.82,327.048 C146.14,327.048 146.433333,327.077333 146.7,327.136 C146.966667,327.194667 147.198667,327.266667 147.396,327.352 C147.593333,327.437333 147.745333,327.525333 147.852,327.616 C147.958667,327.706667 148.012,327.778667 148.012,327.832 C148.012,327.864 148.014667,327.890667 148.02,327.912 C148.025333,327.933333 148.028,327.954667 148.028,327.976 L148.028,327.976 L148.204,328.104 L149.26,326.584 L149.068,326.472 C149.025333,326.493333 148.985333,326.52 148.948,326.552 C148.910667,326.584 148.865333,326.6 148.812,326.6 C148.737333,326.6 148.614667,326.562667 148.444,326.488 C148.273333,326.413333 148.06,326.328 147.804,326.232 C147.548,326.136 147.252,326.050667 146.916,325.976 C146.58,325.901333 146.209333,325.864 145.804,325.864 C145.281333,325.864 144.772,325.938667 144.276,326.088 C143.78,326.237333 143.34,326.464 142.956,326.768 C142.572,327.072 142.262667,327.448 142.028,327.896 C141.793333,328.344 141.676,328.866667 141.676,329.464 C141.676,330.061333 141.793333,330.586667 142.028,331.04 C142.262667,331.493333 142.566667,331.872 142.94,332.176 C143.313333,332.48 143.74,332.701333 144.22,332.84 C144.7,332.978667 145.185333,333.048 145.676,333.048 Z M152.444,333 L152.444,332.712 C152.348,332.712 152.273333,332.701333 152.22,332.68 C152.166667,332.658667 152.14,332.605333 152.14,332.52 C152.14,332.466667 152.153333,332.405333 152.18,332.336 C152.206667,332.266667 152.241333,332.189333 152.284,332.104 L152.284,332.104 L152.732,331.24 L156.156,331.24 L156.588,332.152 C156.62,332.237333 156.646667,332.306667 156.668,332.36 C156.689333,332.413333 156.7,332.472 156.7,332.536 C156.7,332.621333 156.670667,332.68 156.612,332.712 C156.553333,332.744 156.497333,332.76 156.444,332.76 L156.444,332.76 L156.444,333 L158.716,333 L158.716,332.712 C158.641333,332.690667 158.572,332.658667 158.508,332.616 C158.444,332.573333 158.385333,332.504 158.332,332.408 L158.332,332.408 L155.74,326.968 C155.686667,326.850667 155.636,326.746667 155.588,326.656 C155.54,326.565333 155.516,326.488 155.516,326.424 C155.516,326.349333 155.534667,326.306667 155.572,326.296 C155.609333,326.285333 155.644,326.269333 155.676,326.248 L155.676,326.248 L155.676,325.96 L153.26,325.96 L153.26,326.248 C153.292,326.269333 153.321333,326.288 153.348,326.304 C153.374667,326.32 153.388,326.36 153.388,326.424 C153.388,326.509333 153.369333,326.597333 153.332,326.688 C153.294667,326.778667 153.244,326.898667 153.18,327.048 L153.18,327.048 L150.796,332.248 C150.753333,332.333333 150.692,332.426667 150.612,332.528 C150.532,332.629333 150.428,332.690667 150.3,332.712 L150.3,332.712 L150.3,333 L152.444,333 Z M155.644,330.056 L153.212,330.056 L154.348,327.368 L155.644,330.056 Z M162.332,333 L162.332,332.712 C162.268,332.712 162.201333,332.693333 162.132,332.656 C162.062667,332.618667 162.028,332.557333 162.028,332.472 L162.028,332.472 L162.028,330.184 L164.252,330.184 L165.516,332.072 C165.676,332.296 165.756,332.461333 165.756,332.568 C165.756,332.664 165.686667,332.712 165.548,332.712 L165.548,332.712 L165.548,333 L167.996,333 L167.996,332.712 C167.878667,332.68 167.769333,332.634667 167.668,332.576 C167.566667,332.517333 167.473333,332.429333 167.388,332.312 L167.388,332.312 L165.82,330.024 C166.044,329.970667 166.262667,329.893333 166.476,329.792 C166.689333,329.690667 166.884,329.557333 167.06,329.392 C167.236,329.226667 167.377333,329.032 167.484,328.808 C167.590667,328.584 167.644,328.328 167.644,328.04 C167.644,327.282667 167.377333,326.746667 166.844,326.432 C166.310667,326.117333 165.569333,325.96 164.62,325.96 L164.62,325.96 L160.204,325.96 L160.204,326.248 C160.396,326.248 160.492,326.328 160.492,326.488 L160.492,326.488 L160.492,332.472 C160.492,332.632 160.396,332.712 160.204,332.712 L160.204,332.712 L160.204,333 L162.332,333 Z M164.588,329 L162.06,329 L162.06,327.144 L164.588,327.144 C165.132,327.144 165.529333,327.221333 165.78,327.376 C166.030667,327.530667 166.156,327.741333 166.156,328.008 C166.156,328.669333 165.633333,329 164.588,329 L164.588,329 Z M174.316,333 C174.945333,333 175.478667,332.898667 175.916,332.696 C176.353333,332.493333 176.710667,332.229333 176.988,331.904 C177.265333,331.578667 177.468,331.205333 177.596,330.784 C177.724,330.362667 177.788,329.928 177.788,329.48 C177.788,329.032 177.721333,328.597333 177.588,328.176 C177.454667,327.754667 177.246667,327.381333 176.964,327.056 C176.681333,326.730667 176.316,326.466667 175.868,326.264 C175.42,326.061333 174.881333,325.96 174.252,325.96 L174.252,325.96 L169.804,325.96 L169.804,326.248 C170.049333,326.248 170.172,326.328 170.172,326.488 L170.172,326.488 L170.172,332.472 C170.172,332.632 170.049333,332.712 169.804,332.712 L169.804,332.712 L169.804,333 L174.316,333 Z M173.788,331.816 L171.708,331.816 L171.708,327.144 L173.788,327.144 C174.118667,327.144 174.433333,327.162667 174.732,327.2 C175.030667,327.237333 175.292,327.333333 175.516,327.488 C175.74,327.642667 175.918667,327.872 176.052,328.176 C176.185333,328.48 176.252,328.898667 176.252,329.432 C176.252,329.965333 176.185333,330.389333 176.052,330.704 C175.918667,331.018667 175.74,331.258667 175.516,331.424 C175.292,331.589333 175.030667,331.696 174.732,331.744 C174.433333,331.792 174.118667,331.816 173.788,331.816 L173.788,331.816 Z M182.828,333.048 C183.190667,333.048 183.577333,333.021333 183.988,332.968 C184.398667,332.914667 184.774667,332.802667 185.116,332.632 C185.457333,332.461333 185.742667,332.226667 185.972,331.928 C186.201333,331.629333 186.316,331.245333 186.316,330.776 C186.316,330.306667 186.185333,329.938667 185.924,329.672 C185.662667,329.405333 185.334667,329.202667 184.94,329.064 C184.545333,328.925333 184.118667,328.826667 183.66,328.768 C183.201333,328.709333 182.774667,328.650667 182.38,328.592 C181.985333,328.533333 181.657333,328.453333 181.396,328.352 C181.134667,328.250667 181.004,328.082667 181.004,327.848 C181.004,327.698667 181.046667,327.573333 181.132,327.472 C181.217333,327.370667 181.334667,327.288 181.484,327.224 C181.633333,327.16 181.804,327.114667 181.996,327.088 C182.188,327.061333 182.390667,327.048 182.604,327.048 C183.158667,327.048 183.66,327.112 184.108,327.24 C184.556,327.368 184.886667,327.522667 185.1,327.704 C185.185333,327.768 185.233333,327.832 185.244,327.896 C185.254667,327.96 185.265333,328.024 185.276,328.088 L185.276,328.088 L185.564,328.184 L186.364,326.68 L186.188,326.504 C186.124,326.536 186.070667,326.565333 186.028,326.592 C185.985333,326.618667 185.921333,326.632 185.836,326.632 C185.761333,326.632 185.646667,326.592 185.492,326.512 C185.337333,326.432 185.137333,326.344 184.892,326.248 C184.646667,326.152 184.345333,326.064 183.988,325.984 C183.630667,325.904 183.201333,325.864 182.7,325.864 C181.676,325.864 180.881333,326.066667 180.316,326.472 C179.750667,326.877333 179.468,327.421333 179.468,328.104 C179.468,328.562667 179.598667,328.917333 179.86,329.168 C180.121333,329.418667 180.449333,329.610667 180.844,329.744 C181.238667,329.877333 181.665333,329.973333 182.124,330.032 C182.582667,330.090667 183.009333,330.149333 183.404,330.208 C183.798667,330.266667 184.126667,330.349333 184.388,330.456 C184.649333,330.562667 184.78,330.733333 184.78,330.968 C184.78,331.170667 184.705333,331.333333 184.556,331.456 C184.406667,331.578667 184.225333,331.674667 184.012,331.744 C183.798667,331.813333 183.582667,331.858667 183.364,331.88 C183.145333,331.901333 182.961333,331.912 182.812,331.912 C182.652,331.912 182.430667,331.885333 182.148,331.832 C181.865333,331.778667 181.582667,331.706667 181.3,331.616 C181.017333,331.525333 180.774667,331.413333 180.572,331.28 C180.369333,331.146667 180.268,331 180.268,330.84 C180.268,330.786667 180.270667,330.736 180.276,330.688 C180.281333,330.64 180.284,330.594667 180.284,330.552 L180.284,330.552 L179.98,330.472 L179.244,332.264 L179.468,332.424 C179.521333,332.36 179.585333,332.328 179.66,332.328 C179.702667,332.328 179.825333,332.368 180.028,332.448 C180.230667,332.528 180.478667,332.613333 180.772,332.704 C181.065333,332.794667 181.390667,332.874667 181.748,332.944 C182.105333,333.013333 182.465333,333.048 182.828,333.048 Z M189.836,333.048 C190.145333,333.048 190.412,332.944 190.636,332.736 C190.86,332.528 190.972,332.269333 190.972,331.96 C190.972,331.650667 190.86,331.384 190.636,331.16 C190.412,330.936 190.145333,330.824 189.836,330.824 C189.526667,330.824 189.26,330.936 189.036,331.16 C188.812,331.384 188.7,331.650667 188.7,331.96 C188.7,332.269333 188.812,332.528 189.036,332.736 C189.26,332.944 189.526667,333.048 189.836,333.048 Z" id="Youlooksick...Youcannotcuresymptomcards." fill="#000000" fill-rule="nonzero"></path>
    </g>
</svg>