<?xml version="1.0" encoding="UTF-8"?>
<svg width="262px" height="360px" viewBox="0 0 262 360" version="1.1" xmlns="http://www.w3.org/2000/svg" xmlns:xlink="http://www.w3.org/1999/xlink">
    <title>Tiredness 5</title>
    <g id="Tiredness-5" stroke="none" stroke-width="1" fill="none" fill-rule="evenodd">
        <g id="Group" transform="translate(9.000000, 9.000000)" fill="#FFFFFF" stroke="#000000" stroke-width="3">
            <g id="Rectangle">
                <rect x="1.5" y="1.5" width="239" height="337" rx="8"></rect>
            </g>
        </g>
        <path d="M219.82,30.312 L219.82,27.12 L219.532,27.12 C219.532,27.44 219.456,27.632 219.304,27.696 C219.152,27.76 218.988,27.792 218.812,27.792 L218.812,27.792 L210.892,27.792 L210.892,27.552 C211.324,27.152 211.824,26.824 212.392,26.568 C212.96,26.312 213.552,26.068 214.168,25.836 C214.784,25.604 215.388,25.368 215.98,25.128 C216.572,24.888 217.104,24.596 217.576,24.252 C218.048,23.908 218.428,23.488 218.716,22.992 C219.004,22.496 219.148,21.872 219.148,21.12 C219.148,20.416 219.008,19.82 218.728,19.332 C218.448,18.844 218.08,18.444 217.624,18.132 C217.168,17.82 216.648,17.592 216.064,17.448 C215.48,17.304 214.884,17.232 214.276,17.232 C213.348,17.232 212.548,17.352 211.876,17.592 C211.204,17.832 210.644,18.096 210.196,18.384 C209.748,18.672 209.396,18.936 209.14,19.176 C208.884,19.416 208.708,19.536 208.612,19.536 C208.532,19.536 208.46,19.52 208.396,19.488 L208.396,19.488 L208.204,19.392 L207.964,19.56 L210.436,22.2 L210.676,22.032 C210.612,21.984 210.56,21.896 210.52,21.768 C210.48,21.64 210.46,21.536 210.46,21.456 C210.46,21.12 210.592,20.82 210.856,20.556 C211.12,20.292 211.436,20.064 211.804,19.872 C212.172,19.68 212.556,19.536 212.956,19.44 C213.356,19.344 213.692,19.296 213.964,19.296 C214.236,19.296 214.516,19.32 214.804,19.368 C215.092,19.416 215.356,19.508 215.596,19.644 C215.836,19.78 216.032,19.956 216.184,20.172 C216.336,20.388 216.412,20.664 216.412,21 C216.412,21.496 216.2,21.928 215.776,22.296 C215.352,22.664 214.82,23.02 214.18,23.364 C213.54,23.708 212.852,24.056 212.116,24.408 C211.38,24.76 210.692,25.168 210.052,25.632 C209.412,26.096 208.88,26.632 208.456,27.24 C208.032,27.848 207.82,28.576 207.82,29.424 L207.82,29.424 L207.82,30.288 L208.108,30.288 C208.108,30.144 208.164,30.06 208.276,30.036 C208.388,30.012 208.532,30 208.708,30 L208.708,30 L218.812,30 C218.988,30 219.152,30.008 219.304,30.024 C219.456,30.04 219.532,30.136 219.532,30.312 L219.532,30.312 L219.82,30.312 Z" id="2" fill="#000000" fill-rule="nonzero"></path>
        <g id="Face" transform="translate(225.000000, 15.000000)">
            <circle id="Oval" stroke="#000000" fill="#FFFFFF" cx="9.5" cy="9.5" r="9"></circle>
            <circle id="Oval" fill="#000000" cx="5" cy="8" r="1"></circle>
            <circle id="Oval-Copy" fill="#000000" cx="12" cy="8" r="1"></circle>
            <line x1="12.0789474" y1="13.9090909" x2="14.5" y2="11.5" id="Line-4" stroke="#000000" stroke-linecap="round"></line>
            <path d="M3,5.89285714 C3.41025641,5.96428571 3.76923077,6 4.07692308,6 C4.38461538,6 5.35897436,5.33333333 7,4" id="Line-2" stroke="#000000"></path>
            <path d="M6,15 C6.96078431,14.3333333 8.07598039,14 9.34558824,14 C10.6151961,14 11.8333333,14.3333333 13,15" id="Line" stroke="#000000" stroke-linecap="round" stroke-linejoin="round"></path>
            <path d="M11.3197366,4.68245322 C11.585843,4.80663622 11.7912611,4.92388646 11.9359908,5.03420394 C12.548667,5.50120471 13.1333088,5.70898724 13.3155349,5.80010028 C13.5440857,5.91437569 13.8101922,6.00751295 14.1138542,6.07951204" id="Line-3" stroke="#000000" stroke-linecap="square" transform="translate(12.716795, 5.380983) rotate(-3.000000) translate(-12.716795, -5.380983) "></path>
            <path d="M2.999,9.347 L3.01687864,9.39698204 C3.09438102,9.62639002 3.1880913,9.89570266 3.30282211,10.2112791 C3.48139895,10.7024692 3.54804655,11.0169045 3.47980817,11.2204078 C3.41244402,11.421304 3.17143148,11.4011566 3.01518318,11.4416373 L3.01518318,11.4416373 L2.86575433,11.4813457 C2.78836954,11.5029149 2.70310591,11.5126925 2.63007237,11.4810832 C2.58941161,11.463485 2.56030088,11.4264037 2.54036126,11.376794 C2.4446463,11.1386559 2.49784548,10.759559 2.69717789,10.2112791 C2.8119087,9.89570266 2.90561898,9.62639002 2.98312136,9.39698204 L2.999,9.347 Z" id="Oval" stroke="#000000"></path>
            <path d="M16,6.347 L16.0168786,6.39698204 C16.094381,6.62639002 16.1880913,6.89570266 16.3028221,7.21127907 C16.481399,7.70246915 16.5480465,8.01690453 16.4798082,8.22040783 C16.412444,8.42130397 16.1714315,8.40115659 16.0151832,8.44163726 L16.0151832,8.44163726 L15.8657543,8.48134574 C15.7883695,8.50291486 15.7031059,8.51269255 15.6300724,8.48108319 C15.5894116,8.46348497 15.5603009,8.42640366 15.5403613,8.37679403 C15.4446463,8.13865595 15.4978455,7.75955902 15.6971779,7.21127907 C15.8119087,6.89570266 15.905619,6.62639002 15.9831214,6.39698204 L16,6.347 Z" id="Oval-Copy-2" stroke="#000000"></path>
        </g>
        <rect id="Rectangle" stroke="#000000" stroke-width="3" x="17.5" y="253.5" width="225" height="88" rx="8"></rect>
        <path d="M53.798,57 L53.798,56.352 C53.27,56.352 53.006,56.136 53.006,55.704 L53.006,55.704 L53.006,41.376 L58.946,41.376 C59.162,41.376 59.372,41.436 59.576,41.556 C59.78,41.676 59.882,41.904 59.882,42.24 L59.882,42.24 L60.53,42.24 L60.53,37.2 L59.882,37.2 C59.882,37.536 59.78,37.764 59.576,37.884 C59.372,38.004 59.162,38.064 58.946,38.064 L58.946,38.064 L42.962,38.064 C42.746,38.064 42.536,38.004 42.332,37.884 C42.128,37.764 42.026,37.536 42.026,37.2 L42.026,37.2 L41.378,37.2 L41.378,42.24 L42.026,42.24 C42.026,41.904 42.128,41.676 42.332,41.556 C42.536,41.436 42.746,41.376 42.962,41.376 L42.962,41.376 L48.902,41.376 L48.902,55.704 C48.902,55.92 48.836,56.082 48.704,56.19 C48.572,56.298 48.422,56.352 48.254,56.352 L48.254,56.352 L48.254,57 L53.798,57 Z M70.682,57 L70.682,56.352 C70.01,56.352 69.674,56.172 69.674,55.812 L69.674,55.812 L69.674,42.348 C69.674,41.988 70.01,41.808 70.682,41.808 L70.682,41.808 L70.682,41.16 L65.21,41.16 L65.21,41.808 C65.594,41.808 65.858,41.85 66.002,41.934 C66.146,42.018 66.218,42.156 66.218,42.348 L66.218,42.348 L66.218,55.812 C66.218,56.004 66.146,56.142 66.002,56.226 C65.858,56.31 65.594,56.352 65.21,56.352 L65.21,56.352 L65.21,57 L70.682,57 Z M81.554,57 L81.554,56.352 C81.41,56.352 81.26,56.31 81.104,56.226 C80.948,56.142 80.87,56.004 80.87,55.812 L80.87,55.812 L80.87,50.664 L85.874,50.664 L88.718,54.912 C89.078,55.416 89.258,55.788 89.258,56.028 C89.258,56.244 89.102,56.352 88.79,56.352 L88.79,56.352 L88.79,57 L94.298,57 L94.298,56.352 C94.034,56.28 93.788,56.178 93.56,56.046 C93.332,55.914 93.122,55.716 92.93,55.452 L92.93,55.452 L89.402,50.304 C89.906,50.184 90.398,50.01 90.878,49.782 C91.358,49.554 91.796,49.254 92.192,48.882 C92.588,48.51 92.906,48.072 93.146,47.568 C93.386,47.064 93.506,46.488 93.506,45.84 C93.506,44.136 92.906,42.93 91.706,42.222 C90.506,41.514 88.838,41.16 86.702,41.16 L86.702,41.16 L76.766,41.16 L76.766,41.808 C77.198,41.808 77.414,41.988 77.414,42.348 L77.414,42.348 L77.414,55.812 C77.414,56.172 77.198,56.352 76.766,56.352 L76.766,56.352 L76.766,57 L81.554,57 Z M86.63,48 L80.942,48 L80.942,43.824 L86.63,43.824 C87.854,43.824 88.748,43.998 89.312,44.346 C89.876,44.694 90.158,45.168 90.158,45.768 C90.158,47.256 88.982,48 86.63,48 L86.63,48 Z M113.774,57.396 L113.774,53.616 L113.126,53.616 C113.126,53.832 113.03,54.006 112.838,54.138 C112.646,54.27 112.406,54.336 112.118,54.336 L112.118,54.336 L102.902,54.336 L102.902,50.088 L108.158,50.088 C108.638,50.088 109.01,50.118 109.274,50.178 C109.538,50.238 109.634,50.4 109.562,50.664 L109.562,50.664 L110.282,50.664 L110.282,46.848 L109.634,46.848 C109.634,47.112 109.538,47.274 109.346,47.334 C109.154,47.394 108.854,47.424 108.446,47.424 L108.446,47.424 L102.902,47.424 L102.902,43.824 L111.686,43.824 C112.43,43.824 112.802,44.052 112.802,44.508 L112.802,44.508 L113.45,44.508 L113.45,40.512 L112.802,40.512 C112.802,40.944 112.43,41.16 111.686,41.16 L111.686,41.16 L98.906,41.16 L98.906,41.808 C99.026,41.808 99.146,41.85 99.266,41.934 C99.386,42.018 99.446,42.156 99.446,42.348 L99.446,42.348 L99.446,55.812 C99.446,56.004 99.386,56.142 99.266,56.226 C99.146,56.31 99.026,56.352 98.906,56.352 L98.906,56.352 L98.906,57 L112.118,57 C112.406,57 112.646,57.012 112.838,57.036 C113.03,57.06 113.126,57.18 113.126,57.396 L113.126,57.396 L113.774,57.396 Z M128.534,57 C129.95,57 131.15,56.772 132.134,56.316 C133.118,55.86 133.922,55.266 134.546,54.534 C135.17,53.802 135.626,52.962 135.914,52.014 C136.202,51.066 136.346,50.088 136.346,49.08 C136.346,48.072 136.196,47.094 135.896,46.146 C135.596,45.198 135.128,44.358 134.492,43.626 C133.856,42.894 133.034,42.3 132.026,41.844 C131.018,41.388 129.806,41.16 128.39,41.16 L128.39,41.16 L118.382,41.16 L118.382,41.808 C118.934,41.808 119.21,41.988 119.21,42.348 L119.21,42.348 L119.21,55.812 C119.21,56.172 118.934,56.352 118.382,56.352 L118.382,56.352 L118.382,57 L128.534,57 Z M127.346,54.336 L122.666,54.336 L122.666,43.824 L127.346,43.824 C128.09,43.824 128.798,43.866 129.47,43.95 C130.142,44.034 130.73,44.25 131.234,44.598 C131.738,44.946 132.14,45.462 132.44,46.146 C132.74,46.83 132.89,47.772 132.89,48.972 C132.89,50.172 132.74,51.126 132.44,51.834 C132.14,52.542 131.738,53.082 131.234,53.454 C130.73,53.826 130.142,54.066 129.47,54.174 C128.798,54.282 128.09,54.336 127.346,54.336 L127.346,54.336 Z M145.31,57 L145.31,56.352 C144.806,56.352 144.554,56.172 144.554,55.812 L144.554,55.812 L144.554,45.336 L153.482,54.84 C153.77,55.152 154.028,55.428 154.256,55.668 C154.484,55.908 154.598,56.076 154.598,56.172 C154.598,56.292 154.514,56.352 154.346,56.352 L154.346,56.352 L154.346,57 L159.026,57 L159.026,56.352 C158.594,56.352 158.378,56.172 158.378,55.812 L158.378,55.812 L158.378,42.348 C158.378,41.988 158.594,41.808 159.026,41.808 L159.026,41.808 L159.026,41.16 L154.634,41.16 L154.634,41.808 C155.114,41.808 155.354,41.988 155.354,42.348 L155.354,42.348 L155.354,52.104 L146.714,42.96 C146.186,42.432 145.922,42.108 145.922,41.988 C145.922,41.892 146.006,41.832 146.174,41.808 L146.174,41.808 L146.174,41.16 L140.882,41.16 L140.882,41.808 C141.314,41.808 141.53,41.988 141.53,42.348 L141.53,42.348 L141.53,55.812 C141.53,56.172 141.314,56.352 140.882,56.352 L140.882,56.352 L140.882,57 L145.31,57 Z M179.798,57.396 L179.798,53.616 L179.15,53.616 C179.15,53.832 179.054,54.006 178.862,54.138 C178.67,54.27 178.43,54.336 178.142,54.336 L178.142,54.336 L168.926,54.336 L168.926,50.088 L174.182,50.088 C174.662,50.088 175.034,50.118 175.298,50.178 C175.562,50.238 175.658,50.4 175.586,50.664 L175.586,50.664 L176.306,50.664 L176.306,46.848 L175.658,46.848 C175.658,47.112 175.562,47.274 175.37,47.334 C175.178,47.394 174.878,47.424 174.47,47.424 L174.47,47.424 L168.926,47.424 L168.926,43.824 L177.71,43.824 C178.454,43.824 178.826,44.052 178.826,44.508 L178.826,44.508 L179.474,44.508 L179.474,40.512 L178.826,40.512 C178.826,40.944 178.454,41.16 177.71,41.16 L177.71,41.16 L164.93,41.16 L164.93,41.808 C165.05,41.808 165.17,41.85 165.29,41.934 C165.41,42.018 165.47,42.156 165.47,42.348 L165.47,42.348 L165.47,55.812 C165.47,56.004 165.41,56.142 165.29,56.226 C165.17,56.31 165.05,56.352 164.93,56.352 L164.93,56.352 L164.93,57 L178.142,57 C178.43,57 178.67,57.012 178.862,57.036 C179.054,57.06 179.15,57.18 179.15,57.396 L179.15,57.396 L179.798,57.396 Z M191.714,57.108 C192.53,57.108 193.4,57.048 194.324,56.928 C195.248,56.808 196.094,56.556 196.862,56.172 C197.63,55.788 198.272,55.26 198.788,54.588 C199.304,53.916 199.562,53.052 199.562,51.996 C199.562,50.94 199.268,50.112 198.68,49.512 C198.092,48.912 197.354,48.456 196.466,48.144 C195.578,47.832 194.618,47.61 193.586,47.478 C192.554,47.346 191.594,47.214 190.706,47.082 C189.818,46.95 189.08,46.77 188.492,46.542 C187.904,46.314 187.61,45.936 187.61,45.408 C187.61,45.072 187.706,44.79 187.898,44.562 C188.09,44.334 188.354,44.148 188.69,44.004 C189.026,43.86 189.41,43.758 189.842,43.698 C190.274,43.638 190.73,43.608 191.21,43.608 C192.458,43.608 193.586,43.752 194.594,44.04 C195.602,44.328 196.346,44.676 196.826,45.084 C197.018,45.228 197.126,45.372 197.15,45.516 L197.15,45.516 L197.222,45.948 L197.87,46.164 L199.67,42.78 L199.274,42.384 C199.13,42.456 199.01,42.522 198.914,42.582 C198.818,42.642 198.674,42.672 198.482,42.672 C198.314,42.672 198.056,42.582 197.708,42.402 L197.5255,42.3105 C197.207167,42.1555 196.818,41.988 196.358,41.808 C195.806,41.592 195.128,41.394 194.324,41.214 C193.52,41.034 192.554,40.944 191.426,40.944 C189.122,40.944 187.334,41.4 186.062,42.312 C184.79,43.224 184.154,44.448 184.154,45.984 C184.154,47.016 184.448,47.814 185.036,48.378 C185.624,48.942 186.362,49.374 187.25,49.674 C188.138,49.974 189.098,50.19 190.13,50.322 C191.162,50.454 192.122,50.586 193.01,50.718 C193.898,50.85 194.636,51.036 195.224,51.276 C195.812,51.516 196.106,51.9 196.106,52.428 C196.106,52.884 195.938,53.25 195.602,53.526 C195.266,53.802 194.858,54.018 194.378,54.174 C193.898,54.33 193.412,54.432 192.92,54.48 C192.428,54.528 192.014,54.552 191.678,54.552 C191.318,54.552 190.82,54.492 190.184,54.372 C189.548,54.252 188.912,54.09 188.276,53.886 C187.64,53.682 187.094,53.43 186.638,53.13 C186.182,52.83 185.954,52.5 185.954,52.14 C185.954,52.02 185.96,51.906 185.972,51.798 C185.984,51.69 185.99,51.588 185.99,51.492 L185.99,51.492 L185.306,51.312 L183.65,55.344 L184.154,55.704 C184.274,55.56 184.418,55.488 184.586,55.488 C184.682,55.488 184.958,55.578 185.414,55.758 C185.87,55.938 186.428,56.13 187.088,56.334 C187.748,56.538 188.48,56.718 189.284,56.874 C190.088,57.03 190.898,57.108 191.714,57.108 Z M211.73,57.108 C212.546,57.108 213.416,57.048 214.34,56.928 C215.264,56.808 216.11,56.556 216.878,56.172 C217.646,55.788 218.288,55.26 218.804,54.588 C219.32,53.916 219.578,53.052 219.578,51.996 C219.578,50.94 219.284,50.112 218.696,49.512 C218.108,48.912 217.37,48.456 216.482,48.144 C215.594,47.832 214.634,47.61 213.602,47.478 C212.57,47.346 211.61,47.214 210.722,47.082 C209.834,46.95 209.096,46.77 208.508,46.542 C207.92,46.314 207.626,45.936 207.626,45.408 C207.626,45.072 207.722,44.79 207.914,44.562 C208.106,44.334 208.37,44.148 208.706,44.004 C209.042,43.86 209.426,43.758 209.858,43.698 C210.29,43.638 210.746,43.608 211.226,43.608 C212.474,43.608 213.602,43.752 214.61,44.04 C215.618,44.328 216.362,44.676 216.842,45.084 C217.034,45.228 217.142,45.372 217.166,45.516 L217.166,45.516 L217.238,45.948 L217.886,46.164 L219.686,42.78 L219.29,42.384 C219.146,42.456 219.026,42.522 218.93,42.582 C218.834,42.642 218.69,42.672 218.498,42.672 C218.33,42.672 218.072,42.582 217.724,42.402 L217.5415,42.3105 C217.223167,42.1555 216.834,41.988 216.374,41.808 C215.822,41.592 215.144,41.394 214.34,41.214 C213.536,41.034 212.57,40.944 211.442,40.944 C209.138,40.944 207.35,41.4 206.078,42.312 C204.806,43.224 204.17,44.448 204.17,45.984 C204.17,47.016 204.464,47.814 205.052,48.378 C205.64,48.942 206.378,49.374 207.266,49.674 C208.154,49.974 209.114,50.19 210.146,50.322 C211.178,50.454 212.138,50.586 213.026,50.718 C213.914,50.85 214.652,51.036 215.24,51.276 C215.828,51.516 216.122,51.9 216.122,52.428 C216.122,52.884 215.954,53.25 215.618,53.526 C215.282,53.802 214.874,54.018 214.394,54.174 C213.914,54.33 213.428,54.432 212.936,54.48 C212.444,54.528 212.03,54.552 211.694,54.552 C211.334,54.552 210.836,54.492 210.2,54.372 C209.564,54.252 208.928,54.09 208.292,53.886 C207.656,53.682 207.11,53.43 206.654,53.13 C206.198,52.83 205.97,52.5 205.97,52.14 C205.97,52.02 205.976,51.906 205.988,51.798 C206,51.69 206.006,51.588 206.006,51.492 L206.006,51.492 L205.322,51.312 L203.666,55.344 L204.17,55.704 C204.29,55.56 204.434,55.488 204.602,55.488 C204.698,55.488 204.974,55.578 205.43,55.758 C205.886,55.938 206.444,56.13 207.104,56.334 C207.764,56.538 208.496,56.718 209.3,56.874 C210.104,57.03 210.914,57.108 211.73,57.108 Z" id="Tiredness" fill="#000000" fill-rule="nonzero"></path>
        <path d="M40.532,272 L40.532,271.676 C40.196,271.676 40.028,271.568 40.028,271.352 L40.028,271.352 L40.028,265.358 L40.064,265.358 L43.61,272 L43.664,272 L47.282,265.376 L47.318,265.376 L47.318,271.352 C47.318,271.568 47.156,271.676 46.832,271.676 L46.832,271.676 L46.832,272 L49.658,272 L49.658,271.676 C49.562,271.676 49.478,271.649 49.406,271.595 C49.334,271.541 49.298,271.46 49.298,271.352 L49.298,271.352 L49.298,263.144 C49.298,263.036 49.334,262.961 49.406,262.919 C49.478,262.877 49.562,262.856 49.658,262.856 L49.658,262.856 L49.658,262.532 L46.328,262.532 L46.328,262.856 C46.484,262.856 46.562,262.922 46.562,263.054 C46.562,263.126 46.541,263.207 46.499,263.297 C46.457,263.387 46.394,263.51 46.31,263.666 L46.31,263.666 L43.718,268.292 L41.144,263.612 C41.084,263.504 41.03,263.402 40.982,263.306 C40.934,263.21 40.91,263.132 40.91,263.072 C40.91,263 40.943,262.946 41.009,262.91 C41.075,262.874 41.138,262.856 41.198,262.856 L41.198,262.856 L41.198,262.532 L37.832,262.532 L37.832,262.856 C37.928,262.856 38.012,262.877 38.084,262.919 C38.156,262.961 38.192,263.036 38.192,263.144 L38.192,263.144 L38.192,271.352 C38.192,271.46 38.156,271.541 38.084,271.595 C38.012,271.649 37.928,271.676 37.832,271.676 L37.832,271.676 L37.832,272 L40.532,272 Z M53.924,272 L53.924,271.676 C53.816,271.676 53.732,271.664 53.672,271.64 C53.612,271.616 53.582,271.556 53.582,271.46 C53.582,271.4 53.597,271.331 53.627,271.253 C53.657,271.175 53.696,271.088 53.744,270.992 L53.744,270.992 L54.248,270.02 L58.1,270.02 L58.586,271.046 C58.622,271.142 58.652,271.22 58.676,271.28 C58.7,271.34 58.712,271.406 58.712,271.478 C58.712,271.574 58.679,271.64 58.613,271.676 C58.547,271.712 58.484,271.73 58.424,271.73 L58.424,271.73 L58.424,272 L60.98,272 L60.98,271.676 C60.896,271.652 60.818,271.616 60.746,271.568 C60.674,271.52 60.608,271.442 60.548,271.334 L60.548,271.334 L57.632,265.214 C57.572,265.082 57.515,264.965 57.461,264.863 C57.407,264.761 57.38,264.674 57.38,264.602 C57.38,264.518 57.401,264.47 57.443,264.458 C57.485,264.446 57.524,264.428 57.56,264.404 L57.56,264.404 L57.56,264.08 L54.842,264.08 L54.842,264.404 C54.878,264.428 54.911,264.449 54.941,264.467 C54.971,264.485 54.986,264.53 54.986,264.602 C54.986,264.698 54.965,264.797 54.923,264.899 C54.881,265.001 54.824,265.136 54.752,265.304 L54.752,265.304 L52.07,271.154 C52.022,271.25 51.953,271.355 51.863,271.469 C51.773,271.583 51.656,271.652 51.512,271.676 L51.512,271.676 L51.512,272 L53.924,272 Z M57.524,268.688 L54.788,268.688 L56.066,265.664 L57.524,268.688 Z M67.46,272 L67.46,271.676 C67.232,271.676 67.118,271.586 67.118,271.406 L67.118,271.406 L67.118,268.706 L69.872,265.142 C70.004,264.974 70.157,264.809 70.331,264.647 C70.505,264.485 70.664,264.404 70.808,264.404 L70.808,264.404 L70.808,264.08 L68.054,264.08 L68.054,264.404 C68.114,264.404 68.174,264.416 68.234,264.44 C68.294,264.464 68.324,264.524 68.324,264.62 C68.324,264.692 68.297,264.767 68.243,264.845 C68.189,264.923 68.108,265.04 68,265.196 L68,265.196 L66.398,267.428 L64.58,265.052 C64.52,264.968 64.466,264.896 64.418,264.836 C64.37,264.776 64.346,264.71 64.346,264.638 C64.346,264.566 64.382,264.509 64.454,264.467 C64.526,264.425 64.592,264.404 64.652,264.404 L64.652,264.404 L64.652,264.08 L61.682,264.08 L61.682,264.404 C61.79,264.404 61.904,264.428 62.024,264.476 C62.144,264.524 62.246,264.602 62.33,264.71 L62.33,264.71 L65.39,268.634 L65.39,271.406 C65.39,271.586 65.282,271.676 65.066,271.676 L65.066,271.676 L65.066,272 L67.46,272 Z M78.044,272 C78.572,272 79.025,271.943 79.403,271.829 C79.781,271.715 80.087,271.562 80.321,271.37 C80.555,271.178 80.726,270.956 80.834,270.704 C80.942,270.452 80.996,270.182 80.996,269.894 C80.996,269.642 80.954,269.408 80.87,269.192 C80.786,268.976 80.678,268.784 80.546,268.616 C80.414,268.448 80.264,268.304 80.096,268.184 C79.928,268.064 79.76,267.968 79.592,267.896 L79.592,267.896 L79.592,267.878 C79.736,267.806 79.877,267.71 80.015,267.59 C80.153,267.47 80.279,267.335 80.393,267.185 C80.507,267.035 80.6,266.867 80.672,266.681 C80.744,266.495 80.78,266.294 80.78,266.078 C80.78,265.814 80.726,265.562 80.618,265.322 C80.51,265.082 80.345,264.869 80.123,264.683 C79.901,264.497 79.625,264.35 79.295,264.242 C78.965,264.134 78.572,264.08 78.116,264.08 L78.116,264.08 L72.518,264.08 L72.518,264.404 C72.614,264.404 72.707,264.425 72.797,264.467 C72.887,264.509 72.932,264.578 72.932,264.674 L72.932,264.674 L72.932,271.406 C72.932,271.502 72.887,271.571 72.797,271.613 C72.707,271.655 72.614,271.676 72.518,271.676 L72.518,271.676 L72.518,272 L78.044,272 Z M77.864,267.212 L74.66,267.212 L74.66,265.412 L77.864,265.412 C78.008,265.412 78.152,265.421 78.296,265.439 C78.44,265.457 78.566,265.499 78.674,265.565 C78.782,265.631 78.872,265.721 78.944,265.835 C79.016,265.949 79.052,266.102 79.052,266.294 C79.052,266.666 78.926,266.912 78.674,267.032 C78.422,267.152 78.152,267.212 77.864,267.212 L77.864,267.212 Z M77.828,270.668 L74.66,270.668 L74.66,268.544 L77.54,268.544 C78.164,268.544 78.608,268.634 78.872,268.814 C79.136,268.994 79.268,269.27 79.268,269.642 C79.268,269.966 79.166,270.218 78.962,270.398 C78.758,270.578 78.38,270.668 77.828,270.668 L77.828,270.668 Z M91.166,272.198 L91.166,270.308 L90.842,270.308 C90.842,270.416 90.794,270.503 90.698,270.569 C90.602,270.635 90.482,270.668 90.338,270.668 L90.338,270.668 L85.73,270.668 L85.73,268.544 L88.358,268.544 C88.598,268.544 88.784,268.559 88.916,268.589 C89.048,268.619 89.096,268.7 89.06,268.832 L89.06,268.832 L89.42,268.832 L89.42,266.924 L89.096,266.924 C89.096,267.056 89.048,267.137 88.952,267.167 C88.856,267.197 88.706,267.212 88.502,267.212 L88.502,267.212 L85.73,267.212 L85.73,265.412 L90.122,265.412 C90.494,265.412 90.68,265.526 90.68,265.754 L90.68,265.754 L91.004,265.754 L91.004,263.756 L90.68,263.756 C90.68,263.972 90.494,264.08 90.122,264.08 L90.122,264.08 L83.732,264.08 L83.732,264.404 C83.792,264.404 83.852,264.425 83.912,264.467 C83.972,264.509 84.002,264.578 84.002,264.674 L84.002,264.674 L84.002,271.406 C84.002,271.502 83.972,271.571 83.912,271.613 C83.852,271.655 83.792,271.676 83.732,271.676 L83.732,271.676 L83.732,272 L90.338,272 C90.482,272 90.602,272.006 90.698,272.018 C90.794,272.03 90.842,272.09 90.842,272.198 L90.842,272.198 L91.166,272.198 Z M104.486,272.054 C105.062,272.054 105.614,271.988 106.142,271.856 C106.67,271.724 107.141,271.568 107.555,271.388 C107.969,271.208 108.311,271.046 108.581,270.902 C108.851,270.758 109.022,270.686 109.094,270.686 C109.13,270.686 109.163,270.689 109.193,270.695 C109.223,270.701 109.256,270.704 109.292,270.704 L109.292,270.704 L109.436,270.56 L108.248,268.652 L107.996,268.796 C108.044,268.856 108.068,268.928 108.068,269.012 C108.068,269.168 107.951,269.333 107.717,269.507 C107.483,269.681 107.192,269.837 106.844,269.975 C106.496,270.113 106.112,270.227 105.692,270.317 C105.272,270.407 104.87,270.452 104.486,270.452 C103.982,270.452 103.499,270.38 103.037,270.236 C102.575,270.092 102.173,269.882 101.831,269.606 C101.489,269.33 101.216,268.991 101.012,268.589 C100.808,268.187 100.706,267.728 100.706,267.212 C100.706,266.696 100.808,266.237 101.012,265.835 C101.216,265.433 101.489,265.094 101.831,264.818 C102.173,264.542 102.575,264.332 103.037,264.188 C103.499,264.044 103.982,263.972 104.486,263.972 C104.786,263.972 105.113,264.008 105.467,264.08 C105.821,264.152 106.157,264.242 106.475,264.35 C106.793,264.458 107.06,264.581 107.276,264.719 C107.492,264.857 107.612,264.992 107.636,265.124 C107.648,265.172 107.657,265.214 107.663,265.25 C107.669,265.286 107.672,265.322 107.672,265.358 L107.672,265.358 L107.852,265.484 L109.256,263.306 L108.986,263.09 C108.962,263.126 108.929,263.174 108.887,263.234 C108.845,263.294 108.794,263.324 108.734,263.324 C108.686,263.324 108.554,263.276 108.338,263.18 C108.122,263.084 107.828,262.982 107.456,262.874 C107.084,262.766 106.649,262.664 106.151,262.568 C105.653,262.472 105.098,262.424 104.486,262.424 C103.73,262.424 103.004,262.526 102.308,262.73 C101.612,262.934 100.997,263.24 100.463,263.648 C99.929,264.056 99.506,264.563 99.194,265.169 C98.882,265.775 98.726,266.474 98.726,267.266 C98.726,268.07 98.882,268.772 99.194,269.372 C99.506,269.972 99.929,270.473 100.463,270.875 C100.997,271.277 101.612,271.574 102.308,271.766 C103.004,271.958 103.73,272.054 104.486,272.054 Z M117.752,272.054 C118.412,272.054 119.084,271.964 119.768,271.784 C120.452,271.604 121.076,271.316 121.64,270.92 C122.204,270.524 122.666,270.023 123.026,269.417 C123.386,268.811 123.566,268.094 123.566,267.266 C123.566,266.438 123.386,265.721 123.026,265.115 C122.666,264.509 122.204,264.008 121.64,263.612 C121.076,263.216 120.452,262.919 119.768,262.721 C119.084,262.523 118.412,262.424 117.752,262.424 C117.092,262.424 116.42,262.523 115.736,262.721 C115.052,262.919 114.428,263.216 113.864,263.612 C113.3,264.008 112.838,264.509 112.478,265.115 C112.118,265.721 111.938,266.438 111.938,267.266 C111.938,268.094 112.118,268.811 112.478,269.417 C112.838,270.023 113.3,270.524 113.864,270.92 C114.428,271.316 115.052,271.604 115.736,271.784 C116.42,271.964 117.092,272.054 117.752,272.054 Z M117.752,270.452 C117.296,270.452 116.84,270.38 116.384,270.236 C115.928,270.092 115.517,269.885 115.151,269.615 C114.785,269.345 114.488,269.012 114.26,268.616 C114.032,268.22 113.918,267.77 113.918,267.266 C113.918,266.762 114.032,266.312 114.26,265.916 C114.488,265.52 114.785,265.187 115.151,264.917 C115.517,264.647 115.928,264.44 116.384,264.296 C116.84,264.152 117.296,264.08 117.752,264.08 C118.208,264.08 118.664,264.152 119.12,264.296 C119.576,264.44 119.987,264.647 120.353,264.917 C120.719,265.187 121.016,265.52 121.244,265.916 C121.472,266.312 121.586,266.762 121.586,267.266 C121.586,267.77 121.472,268.22 121.244,268.616 C121.016,269.012 120.719,269.345 120.353,269.615 C119.987,269.885 119.576,270.092 119.12,270.236 C118.664,270.38 118.208,270.452 117.752,270.452 Z M132.188,272 L132.188,271.676 C132.14,271.64 132.101,271.604 132.071,271.568 C132.041,271.532 132.026,271.484 132.026,271.424 C132.026,271.364 132.062,271.262 132.134,271.118 C132.206,270.974 132.296,270.782 132.404,270.542 L132.404,270.542 L135.59,263.54 C135.638,263.432 135.716,263.291 135.824,263.117 C135.932,262.943 136.106,262.856 136.346,262.856 L136.346,262.856 L136.346,262.532 L133.196,262.532 L133.196,262.856 C133.532,262.856 133.7,262.952 133.7,263.144 C133.7,263.24 133.637,263.411 133.511,263.657 C133.385,263.903 133.25,264.182 133.106,264.494 L133.106,264.494 L130.856,269.372 L128.552,264.422 C128.408,264.122 128.285,263.87 128.183,263.666 C128.081,263.462 128.03,263.294 128.03,263.162 C128.03,263.042 128.069,262.961 128.147,262.919 C128.225,262.877 128.306,262.856 128.39,262.856 L128.39,262.856 L128.39,262.532 L125.168,262.532 L125.168,262.856 C125.372,262.916 125.528,262.976 125.636,263.036 C125.744,263.096 125.828,263.192 125.888,263.324 L125.888,263.324 L129.128,270.362 C129.26,270.638 129.371,270.869 129.461,271.055 C129.551,271.241 129.596,271.364 129.596,271.424 C129.596,271.544 129.542,271.628 129.434,271.676 L129.434,271.676 L129.434,272 L132.188,272 Z M141.242,272 L141.242,271.676 C140.93,271.676 140.774,271.568 140.774,271.352 L140.774,271.352 L140.774,263.18 C140.774,262.964 140.93,262.856 141.242,262.856 L141.242,262.856 L141.242,262.532 L138.254,262.532 L138.254,262.856 C138.566,262.856 138.722,262.964 138.722,263.18 L138.722,263.18 L138.722,271.352 C138.722,271.568 138.566,271.676 138.254,271.676 L138.254,271.676 L138.254,272 L141.242,272 Z M150.062,272 C150.722,272 151.337,271.904 151.907,271.712 C152.477,271.52 152.972,271.229 153.392,270.839 C153.812,270.449 154.142,269.957 154.382,269.363 C154.622,268.769 154.742,268.07 154.742,267.266 C154.742,266.462 154.622,265.763 154.382,265.169 C154.142,264.575 153.812,264.083 153.392,263.693 C152.972,263.303 152.477,263.012 151.907,262.82 C151.337,262.628 150.722,262.532 150.062,262.532 L150.062,262.532 L144.086,262.532 L144.086,262.856 C144.362,262.856 144.5,262.964 144.5,263.18 L144.5,263.18 L144.5,271.352 C144.5,271.568 144.362,271.676 144.086,271.676 L144.086,271.676 L144.086,272 L150.062,272 Z M149.342,270.452 L146.552,270.452 L146.552,264.08 L149.342,264.08 C149.906,264.08 150.398,264.128 150.818,264.224 C151.238,264.32 151.586,264.491 151.862,264.737 C152.138,264.983 152.345,265.31 152.483,265.718 C152.621,266.126 152.69,266.642 152.69,267.266 C152.69,267.89 152.621,268.406 152.483,268.814 C152.345,269.222 152.138,269.549 151.862,269.795 C151.586,270.041 151.238,270.212 150.818,270.308 C150.398,270.404 149.906,270.452 149.342,270.452 L149.342,270.452 Z M165.092,272 L165.092,271.676 C165.02,271.676 164.957,271.655 164.903,271.613 C164.849,271.571 164.822,271.502 164.822,271.406 L164.822,271.406 L164.822,268.688 L169.646,268.688 L169.646,271.406 C169.646,271.502 169.619,271.571 169.565,271.613 C169.511,271.655 169.448,271.676 169.376,271.676 L169.376,271.676 L169.376,272 L171.644,272 L171.644,271.676 C171.572,271.676 171.509,271.655 171.455,271.613 C171.401,271.571 171.374,271.502 171.374,271.406 L171.374,271.406 L171.374,264.674 C171.374,264.578 171.401,264.509 171.455,264.467 C171.509,264.425 171.572,264.404 171.644,264.404 L171.644,264.404 L171.644,264.08 L169.376,264.08 L169.376,264.404 C169.448,264.404 169.511,264.425 169.565,264.467 C169.619,264.509 169.646,264.578 169.646,264.674 L169.646,264.674 L169.646,267.212 L164.822,267.212 L164.822,264.674 C164.822,264.578 164.849,264.509 164.903,264.467 C164.957,264.425 165.02,264.404 165.092,264.404 L165.092,264.404 L165.092,264.08 L162.824,264.08 L162.824,264.404 C162.896,264.404 162.959,264.425 163.013,264.467 C163.067,264.509 163.094,264.578 163.094,264.674 L163.094,264.674 L163.094,271.406 C163.094,271.502 163.067,271.571 163.013,271.613 C162.959,271.655 162.896,271.676 162.824,271.676 L162.824,271.676 L162.824,272 L165.092,272 Z M175.928,272 L175.928,271.676 C175.82,271.676 175.736,271.664 175.676,271.64 C175.616,271.616 175.586,271.556 175.586,271.46 C175.586,271.4 175.601,271.331 175.631,271.253 C175.661,271.175 175.7,271.088 175.748,270.992 L175.748,270.992 L176.252,270.02 L180.104,270.02 L180.59,271.046 C180.626,271.142 180.656,271.22 180.68,271.28 C180.704,271.34 180.716,271.406 180.716,271.478 C180.716,271.574 180.683,271.64 180.617,271.676 C180.551,271.712 180.488,271.73 180.428,271.73 L180.428,271.73 L180.428,272 L182.984,272 L182.984,271.676 C182.9,271.652 182.822,271.616 182.75,271.568 C182.678,271.52 182.612,271.442 182.552,271.334 L182.552,271.334 L179.636,265.214 C179.576,265.082 179.519,264.965 179.465,264.863 C179.411,264.761 179.384,264.674 179.384,264.602 C179.384,264.518 179.405,264.47 179.447,264.458 C179.489,264.446 179.528,264.428 179.564,264.404 L179.564,264.404 L179.564,264.08 L176.846,264.08 L176.846,264.404 C176.882,264.428 176.915,264.449 176.945,264.467 C176.975,264.485 176.99,264.53 176.99,264.602 C176.99,264.698 176.969,264.797 176.927,264.899 C176.885,265.001 176.828,265.136 176.756,265.304 L176.756,265.304 L174.074,271.154 C174.026,271.25 173.957,271.355 173.867,271.469 C173.777,271.583 173.66,271.652 173.516,271.676 L173.516,271.676 L173.516,272 L175.928,272 Z M179.528,268.688 L176.792,268.688 L178.07,265.664 L179.528,268.688 Z M188.114,272.054 C188.522,272.054 188.957,272.024 189.419,271.964 C189.881,271.904 190.304,271.778 190.688,271.586 C191.072,271.394 191.393,271.13 191.651,270.794 C191.909,270.458 192.038,270.026 192.038,269.498 C192.038,268.97 191.891,268.556 191.597,268.256 C191.303,267.956 190.934,267.728 190.49,267.572 C190.046,267.416 189.566,267.305 189.05,267.239 C188.534,267.173 188.054,267.107 187.61,267.041 C187.166,266.975 186.797,266.885 186.503,266.771 C186.209,266.657 186.062,266.468 186.062,266.204 C186.062,266.036 186.11,265.895 186.206,265.781 C186.302,265.667 186.434,265.574 186.602,265.502 C186.77,265.43 186.962,265.379 187.178,265.349 C187.394,265.319 187.622,265.304 187.862,265.304 C188.486,265.304 189.05,265.376 189.554,265.52 C190.058,265.664 190.43,265.838 190.67,266.042 C190.766,266.114 190.82,266.186 190.832,266.258 L190.832,266.258 L190.868,266.474 L191.192,266.582 L192.092,264.89 L191.894,264.692 C191.822,264.728 191.762,264.761 191.714,264.791 C191.666,264.821 191.594,264.836 191.498,264.836 C191.414,264.836 191.285,264.791 191.111,264.701 C190.937,264.611 190.712,264.512 190.436,264.404 C190.16,264.296 189.821,264.197 189.419,264.107 C189.017,264.017 188.534,263.972 187.97,263.972 C186.818,263.972 185.924,264.2 185.288,264.656 C184.652,265.112 184.334,265.724 184.334,266.492 C184.334,267.008 184.481,267.407 184.775,267.689 C185.069,267.971 185.438,268.187 185.882,268.337 C186.326,268.487 186.806,268.595 187.322,268.661 C187.838,268.727 188.318,268.793 188.762,268.859 C189.206,268.925 189.575,269.018 189.869,269.138 C190.163,269.258 190.31,269.45 190.31,269.714 C190.31,269.942 190.226,270.125 190.058,270.263 C189.89,270.401 189.686,270.509 189.446,270.587 C189.206,270.665 188.963,270.716 188.717,270.74 C188.471,270.764 188.264,270.776 188.096,270.776 C187.916,270.776 187.667,270.746 187.349,270.686 C187.031,270.626 186.713,270.545 186.395,270.443 C186.077,270.341 185.804,270.215 185.576,270.065 C185.348,269.915 185.234,269.75 185.234,269.57 C185.234,269.51 185.237,269.453 185.243,269.399 C185.249,269.345 185.252,269.294 185.252,269.246 L185.252,269.246 L184.91,269.156 L184.082,271.172 L184.334,271.352 C184.394,271.28 184.466,271.244 184.55,271.244 C184.598,271.244 184.736,271.289 184.964,271.379 C185.192,271.469 185.471,271.565 185.801,271.667 C186.131,271.769 186.497,271.859 186.899,271.937 C187.301,272.015 187.706,272.054 188.114,272.054 Z M201.686,272.054 C202.154,272.054 202.589,272.021 202.991,271.955 C203.393,271.889 203.741,271.766 204.035,271.586 C204.329,271.406 204.56,271.166 204.728,270.866 C204.896,270.566 204.98,270.2 204.98,269.768 L204.98,269.768 L204.98,264.854 C204.98,264.722 205.034,264.614 205.142,264.53 C205.25,264.446 205.364,264.404 205.484,264.404 L205.484,264.404 L205.484,264.08 L202.802,264.08 L202.802,264.404 C202.886,264.404 202.982,264.446 203.09,264.53 C203.198,264.614 203.252,264.722 203.252,264.854 L203.252,264.854 L203.252,269.552 C203.252,270.044 203.123,270.371 202.865,270.533 C202.607,270.695 202.22,270.776 201.704,270.776 C201.26,270.776 200.867,270.713 200.525,270.587 C200.183,270.461 199.97,270.332 199.886,270.2 C199.826,270.128 199.793,270.041 199.787,269.939 C199.781,269.837 199.778,269.744 199.778,269.66 L199.778,269.66 L199.526,269.57 L198.68,271.64 L198.842,271.784 C198.902,271.724 198.956,271.673 199.004,271.631 C199.052,271.589 199.124,271.568 199.22,271.568 C199.328,271.568 199.466,271.595 199.634,271.649 C199.802,271.703 199.994,271.763 200.21,271.829 C200.426,271.895 200.66,271.949 200.912,271.991 C201.164,272.033 201.422,272.054 201.686,272.054 Z M215.654,272.198 L215.654,270.308 L215.33,270.308 C215.33,270.416 215.282,270.503 215.186,270.569 C215.09,270.635 214.97,270.668 214.826,270.668 L214.826,270.668 L210.218,270.668 L210.218,268.544 L212.846,268.544 C213.086,268.544 213.272,268.559 213.404,268.589 C213.536,268.619 213.584,268.7 213.548,268.832 L213.548,268.832 L213.908,268.832 L213.908,266.924 L213.584,266.924 C213.584,267.056 213.536,267.137 213.44,267.167 C213.344,267.197 213.194,267.212 212.99,267.212 L212.99,267.212 L210.218,267.212 L210.218,265.412 L214.61,265.412 C214.982,265.412 215.168,265.526 215.168,265.754 L215.168,265.754 L215.492,265.754 L215.492,263.756 L215.168,263.756 C215.168,263.972 214.982,264.08 214.61,264.08 L214.61,264.08 L208.22,264.08 L208.22,264.404 C208.28,264.404 208.34,264.425 208.4,264.467 C208.46,264.509 208.49,264.578 208.49,264.674 L208.49,264.674 L208.49,271.406 C208.49,271.502 208.46,271.571 208.4,271.613 C208.34,271.655 208.28,271.676 208.22,271.676 L208.22,271.676 L208.22,272 L214.826,272 C214.97,272 215.09,272.006 215.186,272.018 C215.282,272.03 215.33,272.09 215.33,272.198 L215.33,272.198 L215.654,272.198 Z M222.44,272 L222.44,271.676 C222.224,271.676 222.116,271.586 222.116,271.406 L222.116,271.406 L222.116,265.412 L224.456,265.412 C224.552,265.412 224.642,265.436 224.726,265.484 C224.81,265.532 224.852,265.61 224.852,265.718 L224.852,265.718 L225.176,265.718 L225.176,263.648 L224.852,263.648 C224.852,263.816 224.81,263.93 224.726,263.99 C224.642,264.05 224.552,264.08 224.456,264.08 L224.456,264.08 L218.048,264.08 C217.952,264.08 217.862,264.05 217.778,263.99 C217.694,263.93 217.652,263.816 217.652,263.648 L217.652,263.648 L217.328,263.648 L217.328,265.718 L217.652,265.718 C217.652,265.61 217.694,265.532 217.778,265.484 C217.862,265.436 217.952,265.412 218.048,265.412 L218.048,265.412 L220.388,265.412 L220.388,271.406 C220.388,271.502 220.358,271.571 220.298,271.613 C220.238,271.655 220.178,271.676 220.118,271.676 L220.118,271.676 L220.118,272 L222.44,272 Z M120.749,290.18 L120.749,288.29 L120.425,288.29 C120.425,288.41 120.377,288.503 120.281,288.569 C120.185,288.635 120.065,288.668 119.921,288.668 L119.921,288.668 L115.061,288.668 L115.061,282.674 C115.061,282.494 115.199,282.404 115.475,282.404 L115.475,282.404 L115.475,282.08 L112.865,282.08 L112.865,282.404 C113.177,282.404 113.333,282.494 113.333,282.674 L113.333,282.674 L113.333,289.406 C113.333,289.586 113.177,289.676 112.865,289.676 L112.865,289.676 L112.865,290 L119.921,290 C120.065,290 120.185,290.006 120.281,290.018 C120.377,290.03 120.425,290.084 120.425,290.18 L120.425,290.18 L120.749,290.18 Z M124.187,290 L124.187,289.676 C124.079,289.676 123.995,289.664 123.935,289.64 C123.875,289.616 123.845,289.556 123.845,289.46 C123.845,289.4 123.86,289.331 123.89,289.253 C123.92,289.175 123.959,289.088 124.007,288.992 L124.007,288.992 L124.511,288.02 L128.363,288.02 L128.849,289.046 C128.885,289.142 128.915,289.22 128.939,289.28 C128.963,289.34 128.975,289.406 128.975,289.478 C128.975,289.574 128.942,289.64 128.876,289.676 C128.81,289.712 128.747,289.73 128.687,289.73 L128.687,289.73 L128.687,290 L131.243,290 L131.243,289.676 C131.159,289.652 131.081,289.616 131.009,289.568 C130.937,289.52 130.871,289.442 130.811,289.334 L130.811,289.334 L127.895,283.214 C127.835,283.082 127.778,282.965 127.724,282.863 C127.67,282.761 127.643,282.674 127.643,282.602 C127.643,282.518 127.664,282.47 127.706,282.458 C127.748,282.446 127.787,282.428 127.823,282.404 L127.823,282.404 L127.823,282.08 L125.105,282.08 L125.105,282.404 C125.141,282.428 125.174,282.449 125.204,282.467 C125.234,282.485 125.249,282.53 125.249,282.602 C125.249,282.698 125.228,282.797 125.186,282.899 C125.144,283.001 125.087,283.136 125.015,283.304 L125.015,283.304 L122.333,289.154 C122.285,289.25 122.216,289.355 122.126,289.469 C122.036,289.583 121.919,289.652 121.775,289.676 L121.775,289.676 L121.775,290 L124.187,290 Z M127.787,286.688 L125.051,286.688 L126.329,283.664 L127.787,286.688 Z M137.201,290.054 C137.777,290.054 138.299,290.015 138.767,289.937 C139.235,289.859 139.646,289.76 140,289.64 C140.354,289.52 140.648,289.397 140.882,289.271 C141.116,289.145 141.287,289.046 141.395,288.974 L141.395,288.974 L141.395,288.758 C141.275,288.71 141.2,288.665 141.17,288.623 C141.14,288.581 141.125,288.506 141.125,288.398 L141.125,288.398 L141.125,286.688 C141.125,286.568 141.143,286.478 141.179,286.418 C141.215,286.358 141.287,286.304 141.395,286.256 L141.395,286.256 L141.395,285.932 L137.867,285.932 C137.735,285.932 137.621,285.914 137.525,285.878 C137.429,285.842 137.369,285.764 137.345,285.644 L137.345,285.644 L137.021,285.644 L137.021,287.498 L137.345,287.498 C137.369,287.354 137.429,287.255 137.525,287.201 C137.621,287.147 137.735,287.12 137.867,287.12 L137.867,287.12 L139.721,287.12 L139.721,288.254 C139.337,288.458 138.914,288.596 138.452,288.668 C137.99,288.74 137.501,288.776 136.985,288.776 C136.637,288.776 136.277,288.728 135.905,288.632 C135.533,288.536 135.194,288.383 134.888,288.173 C134.582,287.963 134.333,287.687 134.141,287.345 C133.949,287.003 133.853,286.58 133.853,286.076 C133.853,285.572 133.943,285.146 134.123,284.798 C134.303,284.45 134.543,284.165 134.843,283.943 C135.143,283.721 135.491,283.559 135.887,283.457 C136.283,283.355 136.703,283.304 137.147,283.304 C137.471,283.304 137.792,283.337 138.11,283.403 C138.428,283.469 138.713,283.556 138.965,283.664 C139.217,283.772 139.421,283.889 139.577,284.015 C139.733,284.141 139.811,284.258 139.811,284.366 C139.811,284.378 139.799,284.444 139.775,284.564 L139.775,284.564 L139.991,284.69 L141.035,282.728 L140.819,282.62 C140.747,282.68 140.687,282.719 140.639,282.737 C140.591,282.755 140.519,282.764 140.423,282.764 C140.339,282.764 140.213,282.722 140.045,282.638 C139.877,282.554 139.655,282.464 139.379,282.368 C139.115,282.272 138.803,282.182 138.443,282.098 C138.083,282.014 137.669,281.972 137.201,281.972 C136.421,281.972 135.716,282.065 135.086,282.251 C134.456,282.437 133.922,282.707 133.484,283.061 C133.046,283.415 132.71,283.841 132.476,284.339 C132.242,284.837 132.125,285.404 132.125,286.04 C132.125,286.676 132.242,287.243 132.476,287.741 C132.71,288.239 133.046,288.662 133.484,289.01 C133.922,289.358 134.456,289.619 135.086,289.793 C135.716,289.967 136.421,290.054 137.201,290.054 Z M147.695,286.724 L147.695,286.508 C147.587,286.508 147.509,286.463 147.461,286.373 C147.413,286.283 147.389,286.172 147.389,286.04 C147.389,285.764 147.497,285.506 147.713,285.266 C147.929,285.026 148.163,284.768 148.415,284.492 C148.679,284.216 148.916,283.913 149.126,283.583 C149.336,283.253 149.441,282.866 149.441,282.422 C149.441,282.062 149.366,281.741 149.216,281.459 C149.066,281.177 148.865,280.943 148.613,280.757 C148.361,280.571 148.076,280.427 147.758,280.325 C147.44,280.223 147.119,280.172 146.795,280.172 C146.291,280.172 145.883,280.232 145.571,280.352 C145.259,280.472 145.001,280.601 144.797,280.739 C144.593,280.877 144.428,281.006 144.302,281.126 C144.176,281.246 144.053,281.306 143.933,281.306 C143.921,281.306 143.855,281.294 143.735,281.27 L143.735,281.27 L143.573,281.432 L144.959,282.944 L145.121,282.818 C145.085,282.71 145.067,282.602 145.067,282.494 C145.067,282.422 145.1,282.329 145.166,282.215 C145.232,282.101 145.328,281.996 145.454,281.9 C145.58,281.804 145.736,281.72 145.922,281.648 C146.108,281.576 146.315,281.54 146.543,281.54 C146.855,281.54 147.116,281.633 147.326,281.819 C147.536,282.005 147.641,282.26 147.641,282.584 C147.641,282.86 147.563,283.103 147.407,283.313 C147.251,283.523 147.071,283.748 146.867,283.988 C146.675,284.216 146.492,284.48 146.318,284.78 C146.144,285.08 146.033,285.482 145.985,285.986 C145.961,286.19 145.922,286.328 145.868,286.4 C145.814,286.472 145.751,286.508 145.679,286.508 L145.679,286.508 L145.679,286.724 L147.695,286.724 Z M146.669,290.054 C146.981,290.054 147.251,289.949 147.479,289.739 C147.707,289.529 147.821,289.268 147.821,288.956 C147.821,288.644 147.707,288.374 147.479,288.146 C147.251,287.918 146.981,287.804 146.669,287.804 C146.357,287.804 146.087,287.918 145.859,288.146 C145.631,288.374 145.517,288.644 145.517,288.956 C145.517,289.268 145.631,289.529 145.859,289.739 C146.087,289.949 146.357,290.054 146.669,290.054 Z M58.19,308 L58.19,307.676 C57.962,307.676 57.848,307.61 57.848,307.478 C57.848,307.37 57.908,307.19 58.028,306.938 L58.028,306.938 L58.676,305.66 L63.068,305.66 L63.752,306.992 C63.848,307.184 63.896,307.34 63.896,307.46 C63.896,307.532 63.86,307.586 63.788,307.622 C63.716,307.658 63.656,307.676 63.608,307.676 L63.608,307.676 L63.608,308 L66.776,308 L66.776,307.676 C66.644,307.616 66.527,307.556 66.425,307.496 C66.323,307.436 66.242,307.34 66.182,307.208 L66.182,307.208 L62.438,299.882 C62.354,299.726 62.291,299.6 62.249,299.504 C62.207,299.408 62.186,299.312 62.186,299.216 C62.186,299.084 62.228,298.997 62.312,298.955 C62.396,298.913 62.48,298.88 62.564,298.856 L62.564,298.856 L62.564,298.532 L59.522,298.532 L59.522,298.856 C59.618,298.88 59.708,298.916 59.792,298.964 C59.876,299.012 59.918,299.096 59.918,299.216 C59.918,299.312 59.885,299.426 59.819,299.558 C59.753,299.69 59.678,299.834 59.594,299.99 L59.594,299.99 L56.264,306.992 C56.18,307.16 56.093,307.31 56.003,307.442 C55.913,307.574 55.79,307.652 55.634,307.676 L55.634,307.676 L55.634,308 L58.19,308 Z M62.42,304.328 L59.216,304.328 L60.908,300.98 L62.42,304.328 Z M73.544,308 C74.252,308 74.852,307.886 75.344,307.658 C75.836,307.43 76.238,307.133 76.55,306.767 C76.862,306.401 77.09,305.981 77.234,305.507 C77.378,305.033 77.45,304.544 77.45,304.04 C77.45,303.536 77.375,303.047 77.225,302.573 C77.075,302.099 76.841,301.679 76.523,301.313 C76.205,300.947 75.794,300.65 75.29,300.422 C74.786,300.194 74.18,300.08 73.472,300.08 L73.472,300.08 L68.468,300.08 L68.468,300.404 C68.744,300.404 68.882,300.494 68.882,300.674 L68.882,300.674 L68.882,307.406 C68.882,307.586 68.744,307.676 68.468,307.676 L68.468,307.676 L68.468,308 L73.544,308 Z M72.95,306.668 L70.61,306.668 L70.61,301.412 L72.95,301.412 C73.322,301.412 73.676,301.433 74.012,301.475 C74.348,301.517 74.642,301.625 74.894,301.799 C75.146,301.973 75.347,302.231 75.497,302.573 C75.647,302.915 75.722,303.386 75.722,303.986 C75.722,304.586 75.647,305.063 75.497,305.417 C75.347,305.771 75.146,306.041 74.894,306.227 C74.642,306.413 74.348,306.533 74.012,306.587 C73.676,306.641 73.322,306.668 72.95,306.668 L72.95,306.668 Z M84.542,308 C85.25,308 85.85,307.886 86.342,307.658 C86.834,307.43 87.236,307.133 87.548,306.767 C87.86,306.401 88.088,305.981 88.232,305.507 C88.376,305.033 88.448,304.544 88.448,304.04 C88.448,303.536 88.373,303.047 88.223,302.573 C88.073,302.099 87.839,301.679 87.521,301.313 C87.203,300.947 86.792,300.65 86.288,300.422 C85.784,300.194 85.178,300.08 84.47,300.08 L84.47,300.08 L79.466,300.08 L79.466,300.404 C79.742,300.404 79.88,300.494 79.88,300.674 L79.88,300.674 L79.88,307.406 C79.88,307.586 79.742,307.676 79.466,307.676 L79.466,307.676 L79.466,308 L84.542,308 Z M83.948,306.668 L81.608,306.668 L81.608,301.412 L83.948,301.412 C84.32,301.412 84.674,301.433 85.01,301.475 C85.346,301.517 85.64,301.625 85.892,301.799 C86.144,301.973 86.345,302.231 86.495,302.573 C86.645,302.915 86.72,303.386 86.72,303.986 C86.72,304.586 86.645,305.063 86.495,305.417 C86.345,305.771 86.144,306.041 85.892,306.227 C85.64,306.413 85.346,306.533 85.01,306.587 C84.674,306.641 84.32,306.668 83.948,306.668 L83.948,306.668 Z M100.436,308 L100.436,307.676 C100.22,307.676 100.112,307.586 100.112,307.406 L100.112,307.406 L100.112,301.412 L102.452,301.412 C102.548,301.412 102.638,301.436 102.722,301.484 C102.806,301.532 102.848,301.61 102.848,301.718 L102.848,301.718 L103.172,301.718 L103.172,299.648 L102.848,299.648 C102.848,299.816 102.806,299.93 102.722,299.99 C102.638,300.05 102.548,300.08 102.452,300.08 L102.452,300.08 L96.044,300.08 C95.948,300.08 95.858,300.05 95.774,299.99 C95.69,299.93 95.648,299.816 95.648,299.648 L95.648,299.648 L95.324,299.648 L95.324,301.718 L95.648,301.718 C95.648,301.61 95.69,301.532 95.774,301.484 C95.858,301.436 95.948,301.412 96.044,301.412 L96.044,301.412 L98.384,301.412 L98.384,307.406 C98.384,307.502 98.354,307.571 98.294,307.613 C98.234,307.655 98.174,307.676 98.114,307.676 L98.114,307.676 L98.114,308 L100.436,308 Z M107.6,308 L107.6,307.676 C107.528,307.676 107.465,307.655 107.411,307.613 C107.357,307.571 107.33,307.502 107.33,307.406 L107.33,307.406 L107.33,304.688 L112.154,304.688 L112.154,307.406 C112.154,307.502 112.127,307.571 112.073,307.613 C112.019,307.655 111.956,307.676 111.884,307.676 L111.884,307.676 L111.884,308 L114.152,308 L114.152,307.676 C114.08,307.676 114.017,307.655 113.963,307.613 C113.909,307.571 113.882,307.502 113.882,307.406 L113.882,307.406 L113.882,300.674 C113.882,300.578 113.909,300.509 113.963,300.467 C114.017,300.425 114.08,300.404 114.152,300.404 L114.152,300.404 L114.152,300.08 L111.884,300.08 L111.884,300.404 C111.956,300.404 112.019,300.425 112.073,300.467 C112.127,300.509 112.154,300.578 112.154,300.674 L112.154,300.674 L112.154,303.212 L107.33,303.212 L107.33,300.674 C107.33,300.578 107.357,300.509 107.411,300.467 C107.465,300.425 107.528,300.404 107.6,300.404 L107.6,300.404 L107.6,300.08 L105.332,300.08 L105.332,300.404 C105.404,300.404 105.467,300.425 105.521,300.467 C105.575,300.509 105.602,300.578 105.602,300.674 L105.602,300.674 L105.602,307.406 C105.602,307.502 105.575,307.571 105.521,307.613 C105.467,307.655 105.404,307.676 105.332,307.676 L105.332,307.676 L105.332,308 L107.6,308 Z M120.11,308 L120.11,307.676 C119.774,307.676 119.606,307.586 119.606,307.406 L119.606,307.406 L119.606,300.674 C119.606,300.494 119.774,300.404 120.11,300.404 L120.11,300.404 L120.11,300.08 L117.374,300.08 L117.374,300.404 C117.566,300.404 117.698,300.425 117.77,300.467 C117.842,300.509 117.878,300.578 117.878,300.674 L117.878,300.674 L117.878,307.406 C117.878,307.502 117.842,307.571 117.77,307.613 C117.698,307.655 117.566,307.676 117.374,307.676 L117.374,307.676 L117.374,308 L120.11,308 Z M126.608,308.054 C127.016,308.054 127.451,308.024 127.913,307.964 C128.375,307.904 128.798,307.778 129.182,307.586 C129.566,307.394 129.887,307.13 130.145,306.794 C130.403,306.458 130.532,306.026 130.532,305.498 C130.532,304.97 130.385,304.556 130.091,304.256 C129.797,303.956 129.428,303.728 128.984,303.572 C128.54,303.416 128.06,303.305 127.544,303.239 C127.028,303.173 126.548,303.107 126.104,303.041 C125.66,302.975 125.291,302.885 124.997,302.771 C124.703,302.657 124.556,302.468 124.556,302.204 C124.556,302.036 124.604,301.895 124.7,301.781 C124.796,301.667 124.928,301.574 125.096,301.502 C125.264,301.43 125.456,301.379 125.672,301.349 C125.888,301.319 126.116,301.304 126.356,301.304 C126.98,301.304 127.544,301.376 128.048,301.52 C128.552,301.664 128.924,301.838 129.164,302.042 C129.26,302.114 129.314,302.186 129.326,302.258 C129.338,302.33 129.35,302.402 129.362,302.474 L129.362,302.474 L129.686,302.582 L130.586,300.89 L130.388,300.692 C130.316,300.728 130.256,300.761 130.208,300.791 C130.16,300.821 130.088,300.836 129.992,300.836 C129.908,300.836 129.779,300.791 129.605,300.701 C129.431,300.611 129.206,300.512 128.93,300.404 C128.654,300.296 128.315,300.197 127.913,300.107 C127.511,300.017 127.028,299.972 126.464,299.972 C125.312,299.972 124.418,300.2 123.782,300.656 C123.146,301.112 122.828,301.724 122.828,302.492 C122.828,303.008 122.975,303.407 123.269,303.689 C123.563,303.971 123.932,304.187 124.376,304.337 C124.82,304.487 125.3,304.595 125.816,304.661 C126.332,304.727 126.812,304.793 127.256,304.859 C127.7,304.925 128.069,305.018 128.363,305.138 C128.657,305.258 128.804,305.45 128.804,305.714 C128.804,305.942 128.72,306.125 128.552,306.263 C128.384,306.401 128.18,306.509 127.94,306.587 C127.7,306.665 127.457,306.716 127.211,306.74 C126.965,306.764 126.758,306.776 126.59,306.776 C126.41,306.776 126.161,306.746 125.843,306.686 C125.525,306.626 125.207,306.545 124.889,306.443 C124.571,306.341 124.298,306.215 124.07,306.065 C123.842,305.915 123.728,305.75 123.728,305.57 C123.728,305.51 123.731,305.453 123.737,305.399 C123.743,305.345 123.746,305.294 123.746,305.246 L123.746,305.246 L123.404,305.156 L122.576,307.172 L122.828,307.352 C122.888,307.28 122.96,307.244 123.044,307.244 C123.092,307.244 123.23,307.289 123.458,307.379 C123.686,307.469 123.965,307.565 124.295,307.667 C124.625,307.769 124.991,307.859 125.393,307.937 C125.795,308.015 126.2,308.054 126.608,308.054 Z M142.934,308 L142.934,307.676 C142.718,307.676 142.61,307.586 142.61,307.406 L142.61,307.406 L142.61,301.412 L144.95,301.412 C145.046,301.412 145.136,301.436 145.22,301.484 C145.304,301.532 145.346,301.61 145.346,301.718 L145.346,301.718 L145.67,301.718 L145.67,299.648 L145.346,299.648 C145.346,299.816 145.304,299.93 145.22,299.99 C145.136,300.05 145.046,300.08 144.95,300.08 L144.95,300.08 L138.542,300.08 C138.446,300.08 138.356,300.05 138.272,299.99 C138.188,299.93 138.146,299.816 138.146,299.648 L138.146,299.648 L137.822,299.648 L137.822,301.718 L138.146,301.718 C138.146,301.61 138.188,301.532 138.272,301.484 C138.356,301.436 138.446,301.412 138.542,301.412 L138.542,301.412 L140.882,301.412 L140.882,307.406 C140.882,307.502 140.852,307.571 140.792,307.613 C140.732,307.655 140.672,307.676 140.612,307.676 L140.612,307.676 L140.612,308 L142.934,308 Z M151.736,308.054 C152.396,308.054 153.017,307.979 153.599,307.829 C154.181,307.679 154.688,307.436 155.12,307.1 C155.552,306.764 155.894,306.341 156.146,305.831 C156.398,305.321 156.524,304.724 156.524,304.04 C156.524,303.356 156.398,302.759 156.146,302.249 C155.894,301.739 155.552,301.316 155.12,300.98 C154.688,300.644 154.181,300.392 153.599,300.224 C153.017,300.056 152.396,299.972 151.736,299.972 C151.076,299.972 150.455,300.056 149.873,300.224 C149.291,300.392 148.784,300.644 148.352,300.98 C147.92,301.316 147.578,301.739 147.326,302.249 C147.074,302.759 146.948,303.356 146.948,304.04 C146.948,304.724 147.074,305.321 147.326,305.831 C147.578,306.341 147.92,306.764 148.352,307.1 C148.784,307.436 149.291,307.679 149.873,307.829 C150.455,307.979 151.076,308.054 151.736,308.054 Z M151.736,306.776 C151.352,306.776 150.977,306.713 150.611,306.587 C150.245,306.461 149.918,306.281 149.63,306.047 C149.342,305.813 149.111,305.528 148.937,305.192 C148.763,304.856 148.676,304.472 148.676,304.04 C148.676,303.608 148.763,303.224 148.937,302.888 C149.111,302.552 149.342,302.267 149.63,302.033 C149.918,301.799 150.245,301.619 150.611,301.493 C150.977,301.367 151.352,301.304 151.736,301.304 C152.12,301.304 152.495,301.367 152.861,301.493 C153.227,301.619 153.554,301.799 153.842,302.033 C154.13,302.267 154.361,302.552 154.535,302.888 C154.709,303.224 154.796,303.608 154.796,304.04 C154.796,304.472 154.709,304.856 154.535,305.192 C154.361,305.528 154.13,305.813 153.842,306.047 C153.554,306.281 153.227,306.461 152.861,306.587 C152.495,306.713 152.12,306.776 151.736,306.776 Z M168.944,308 L168.944,307.676 C168.716,307.676 168.602,307.586 168.602,307.406 L168.602,307.406 L168.602,304.706 L171.356,301.142 C171.488,300.974 171.641,300.809 171.815,300.647 C171.989,300.485 172.148,300.404 172.292,300.404 L172.292,300.404 L172.292,300.08 L169.538,300.08 L169.538,300.404 C169.598,300.404 169.658,300.416 169.718,300.44 C169.778,300.464 169.808,300.524 169.808,300.62 C169.808,300.692 169.781,300.767 169.727,300.845 C169.673,300.923 169.592,301.04 169.484,301.196 L169.484,301.196 L167.882,303.428 L166.064,301.052 C166.004,300.968 165.95,300.896 165.902,300.836 C165.854,300.776 165.83,300.71 165.83,300.638 C165.83,300.566 165.866,300.509 165.938,300.467 C166.01,300.425 166.076,300.404 166.136,300.404 L166.136,300.404 L166.136,300.08 L163.166,300.08 L163.166,300.404 C163.274,300.404 163.388,300.428 163.508,300.476 C163.628,300.524 163.73,300.602 163.814,300.71 L163.814,300.71 L166.874,304.634 L166.874,307.406 C166.874,307.586 166.766,307.676 166.55,307.676 L166.55,307.676 L166.55,308 L168.944,308 Z M178.232,308.054 C178.892,308.054 179.513,307.979 180.095,307.829 C180.677,307.679 181.184,307.436 181.616,307.1 C182.048,306.764 182.39,306.341 182.642,305.831 C182.894,305.321 183.02,304.724 183.02,304.04 C183.02,303.356 182.894,302.759 182.642,302.249 C182.39,301.739 182.048,301.316 181.616,300.98 C181.184,300.644 180.677,300.392 180.095,300.224 C179.513,300.056 178.892,299.972 178.232,299.972 C177.572,299.972 176.951,300.056 176.369,300.224 C175.787,300.392 175.28,300.644 174.848,300.98 C174.416,301.316 174.074,301.739 173.822,302.249 C173.57,302.759 173.444,303.356 173.444,304.04 C173.444,304.724 173.57,305.321 173.822,305.831 C174.074,306.341 174.416,306.764 174.848,307.1 C175.28,307.436 175.787,307.679 176.369,307.829 C176.951,307.979 177.572,308.054 178.232,308.054 Z M178.232,306.776 C177.848,306.776 177.473,306.713 177.107,306.587 C176.741,306.461 176.414,306.281 176.126,306.047 C175.838,305.813 175.607,305.528 175.433,305.192 C175.259,304.856 175.172,304.472 175.172,304.04 C175.172,303.608 175.259,303.224 175.433,302.888 C175.607,302.552 175.838,302.267 176.126,302.033 C176.414,301.799 176.741,301.619 177.107,301.493 C177.473,301.367 177.848,301.304 178.232,301.304 C178.616,301.304 178.991,301.367 179.357,301.493 C179.723,301.619 180.05,301.799 180.338,302.033 C180.626,302.267 180.857,302.552 181.031,302.888 C181.205,303.224 181.292,303.608 181.292,304.04 C181.292,304.472 181.205,304.856 181.031,305.192 C180.857,305.528 180.626,305.813 180.338,306.047 C180.05,306.281 179.723,306.461 179.357,306.587 C178.991,306.713 178.616,306.776 178.232,306.776 Z M189.806,308.054 C190.526,308.054 191.153,307.979 191.687,307.829 C192.221,307.679 192.659,307.472 193.001,307.208 C193.343,306.944 193.598,306.641 193.766,306.299 C193.934,305.957 194.018,305.6 194.018,305.228 L194.018,305.228 L194.018,300.674 C194.018,300.494 194.15,300.404 194.414,300.404 L194.414,300.404 L194.414,300.08 L191.912,300.08 L191.912,300.404 C192.212,300.404 192.362,300.494 192.362,300.674 L192.362,300.674 L192.362,304.796 C192.362,305.372 192.152,305.834 191.732,306.182 C191.312,306.53 190.67,306.704 189.806,306.704 C188.942,306.704 188.3,306.53 187.88,306.182 C187.46,305.834 187.25,305.372 187.25,304.796 L187.25,304.796 L187.25,300.674 C187.25,300.494 187.382,300.404 187.646,300.404 L187.646,300.404 L187.646,300.08 L185.072,300.08 L185.072,300.404 C185.276,300.404 185.414,300.425 185.486,300.467 C185.558,300.509 185.594,300.578 185.594,300.674 L185.594,300.674 L185.594,305.228 C185.594,305.6 185.678,305.957 185.846,306.299 C186.014,306.641 186.269,306.944 186.611,307.208 C186.953,307.472 187.391,307.679 187.925,307.829 C188.459,307.979 189.086,308.054 189.806,308.054 Z M199.544,308 L199.544,307.676 C199.472,307.676 199.397,307.655 199.319,307.613 C199.241,307.571 199.202,307.502 199.202,307.406 L199.202,307.406 L199.202,304.832 L201.704,304.832 L203.126,306.956 C203.306,307.208 203.396,307.394 203.396,307.514 C203.396,307.622 203.318,307.676 203.162,307.676 L203.162,307.676 L203.162,308 L205.916,308 L205.916,307.676 C205.784,307.64 205.661,307.589 205.547,307.523 C205.433,307.457 205.328,307.358 205.232,307.226 L205.232,307.226 L203.468,304.652 C203.72,304.592 203.966,304.505 204.206,304.391 C204.446,304.277 204.665,304.127 204.863,303.941 C205.061,303.755 205.22,303.536 205.34,303.284 C205.46,303.032 205.52,302.744 205.52,302.42 C205.52,301.568 205.22,300.965 204.62,300.611 C204.02,300.257 203.186,300.08 202.118,300.08 L202.118,300.08 L197.15,300.08 L197.15,300.404 C197.366,300.404 197.474,300.494 197.474,300.674 L197.474,300.674 L197.474,307.406 C197.474,307.586 197.366,307.676 197.15,307.676 L197.15,307.676 L197.15,308 L199.544,308 Z M202.082,303.5 L199.238,303.5 L199.238,301.412 L202.082,301.412 C202.694,301.412 203.141,301.499 203.423,301.673 C203.705,301.847 203.846,302.084 203.846,302.384 C203.846,303.128 203.258,303.5 202.082,303.5 L202.082,303.5 Z M74.354,326.054 C74.762,326.054 75.197,326.024 75.659,325.964 C76.121,325.904 76.544,325.778 76.928,325.586 C77.312,325.394 77.633,325.13 77.891,324.794 C78.149,324.458 78.278,324.026 78.278,323.498 C78.278,322.97 78.131,322.556 77.837,322.256 C77.543,321.956 77.174,321.728 76.73,321.572 C76.286,321.416 75.806,321.305 75.29,321.239 C74.774,321.173 74.294,321.107 73.85,321.041 C73.406,320.975 73.037,320.885 72.743,320.771 C72.449,320.657 72.302,320.468 72.302,320.204 C72.302,320.036 72.35,319.895 72.446,319.781 C72.542,319.667 72.674,319.574 72.842,319.502 C73.01,319.43 73.202,319.379 73.418,319.349 C73.634,319.319 73.862,319.304 74.102,319.304 C74.726,319.304 75.29,319.376 75.794,319.52 C76.298,319.664 76.67,319.838 76.91,320.042 C77.006,320.114 77.06,320.186 77.072,320.258 L77.072,320.258 L77.108,320.474 L77.432,320.582 L78.332,318.89 L78.134,318.692 C78.062,318.728 78.002,318.761 77.954,318.791 C77.906,318.821 77.834,318.836 77.738,318.836 C77.654,318.836 77.525,318.791 77.351,318.701 C77.177,318.611 76.952,318.512 76.676,318.404 C76.4,318.296 76.061,318.197 75.659,318.107 C75.257,318.017 74.774,317.972 74.21,317.972 C73.058,317.972 72.164,318.2 71.528,318.656 C70.892,319.112 70.574,319.724 70.574,320.492 C70.574,321.008 70.721,321.407 71.015,321.689 C71.309,321.971 71.678,322.187 72.122,322.337 C72.566,322.487 73.046,322.595 73.562,322.661 C74.078,322.727 74.558,322.793 75.002,322.859 C75.446,322.925 75.815,323.018 76.109,323.138 C76.403,323.258 76.55,323.45 76.55,323.714 C76.55,323.942 76.466,324.125 76.298,324.263 C76.13,324.401 75.926,324.509 75.686,324.587 C75.446,324.665 75.203,324.716 74.957,324.74 C74.711,324.764 74.504,324.776 74.336,324.776 C74.156,324.776 73.907,324.746 73.589,324.686 C73.271,324.626 72.953,324.545 72.635,324.443 C72.317,324.341 72.044,324.215 71.816,324.065 C71.588,323.915 71.474,323.75 71.474,323.57 C71.474,323.51 71.477,323.453 71.483,323.399 C71.489,323.345 71.492,323.294 71.492,323.246 L71.492,323.246 L71.15,323.156 L70.322,325.172 L70.574,325.352 C70.634,325.28 70.706,325.244 70.79,325.244 C70.838,325.244 70.976,325.289 71.204,325.379 C71.432,325.469 71.711,325.565 72.041,325.667 C72.371,325.769 72.737,325.859 73.139,325.937 C73.541,326.015 73.946,326.054 74.354,326.054 Z M85.712,326 L85.712,325.676 C85.484,325.676 85.37,325.586 85.37,325.406 L85.37,325.406 L85.37,322.706 L88.124,319.142 C88.256,318.974 88.409,318.809 88.583,318.647 C88.757,318.485 88.916,318.404 89.06,318.404 L89.06,318.404 L89.06,318.08 L86.306,318.08 L86.306,318.404 C86.366,318.404 86.426,318.416 86.486,318.44 C86.546,318.464 86.576,318.524 86.576,318.62 C86.576,318.692 86.549,318.767 86.495,318.845 C86.441,318.923 86.36,319.04 86.252,319.196 L86.252,319.196 L84.65,321.428 L82.832,319.052 C82.772,318.968 82.718,318.896 82.67,318.836 C82.622,318.776 82.598,318.71 82.598,318.638 C82.598,318.566 82.634,318.509 82.706,318.467 C82.778,318.425 82.844,318.404 82.904,318.404 L82.904,318.404 L82.904,318.08 L79.934,318.08 L79.934,318.404 C80.042,318.404 80.156,318.428 80.276,318.476 C80.396,318.524 80.498,318.602 80.582,318.71 L80.582,318.71 L83.642,322.634 L83.642,325.406 C83.642,325.586 83.534,325.676 83.318,325.676 L83.318,325.676 L83.318,326 L85.712,326 Z M93.218,326 L93.218,325.676 C93.014,325.676 92.912,325.586 92.912,325.406 L92.912,325.406 L92.912,320.348 L92.93,320.348 L95.828,326 L95.972,326 L99.032,320.348 L99.068,320.348 L99.068,325.406 C99.104,325.586 98.996,325.676 98.744,325.676 L98.744,325.676 L98.744,326 L100.832,326 L100.832,325.676 C100.772,325.676 100.715,325.655 100.661,325.613 C100.607,325.571 100.58,325.502 100.58,325.406 L100.58,325.406 L100.58,318.638 C100.58,318.542 100.607,318.479 100.661,318.449 C100.715,318.419 100.772,318.404 100.832,318.404 L100.832,318.404 L100.832,318.08 L98.294,318.08 L98.294,318.404 C98.39,318.404 98.438,318.458 98.438,318.566 C98.438,318.602 98.414,318.665 98.366,318.755 C98.318,318.845 98.252,318.962 98.168,319.106 L98.168,319.106 L95.954,323.138 L93.758,319.088 C93.674,318.944 93.611,318.833 93.569,318.755 C93.527,318.677 93.506,318.614 93.506,318.566 C93.506,318.458 93.566,318.404 93.686,318.404 L93.686,318.404 L93.686,318.08 L91.184,318.08 L91.184,318.404 C91.268,318.404 91.325,318.422 91.355,318.458 C91.385,318.494 91.4,318.596 91.4,318.764 L91.4,318.764 L91.4,325.352 C91.4,325.484 91.379,325.568 91.337,325.604 C91.295,325.64 91.244,325.664 91.184,325.676 L91.184,325.676 L91.184,326 L93.218,326 Z M106.268,326 L106.268,325.676 C106.016,325.676 105.89,325.586 105.89,325.406 L105.89,325.406 L105.89,322.706 L108.95,322.706 C109.922,322.706 110.651,322.541 111.137,322.211 C111.623,321.881 111.866,321.284 111.866,320.42 C111.866,319.556 111.623,318.95 111.137,318.602 C110.651,318.254 109.922,318.08 108.95,318.08 L108.95,318.08 L103.712,318.08 L103.712,318.404 C104.012,318.404 104.162,318.494 104.162,318.674 L104.162,318.674 L104.162,325.406 C104.162,325.586 104.012,325.676 103.712,325.676 L103.712,325.676 L103.712,326 L106.268,326 Z M108.914,321.374 L105.89,321.374 L105.89,319.412 L108.914,319.412 C109.262,319.412 109.553,319.487 109.787,319.637 C110.021,319.787 110.138,320.048 110.138,320.42 C110.138,320.804 110.021,321.059 109.787,321.185 C109.553,321.311 109.262,321.374 108.914,321.374 L108.914,321.374 Z M118.202,326 L118.202,325.676 C117.986,325.676 117.878,325.586 117.878,325.406 L117.878,325.406 L117.878,319.412 L120.218,319.412 C120.314,319.412 120.404,319.436 120.488,319.484 C120.572,319.532 120.614,319.61 120.614,319.718 L120.614,319.718 L120.938,319.718 L120.938,317.648 L120.614,317.648 C120.614,317.816 120.572,317.93 120.488,317.99 C120.404,318.05 120.314,318.08 120.218,318.08 L120.218,318.08 L113.81,318.08 C113.714,318.08 113.624,318.05 113.54,317.99 C113.456,317.93 113.414,317.816 113.414,317.648 L113.414,317.648 L113.09,317.648 L113.09,319.718 L113.414,319.718 C113.414,319.61 113.456,319.532 113.54,319.484 C113.624,319.436 113.714,319.412 113.81,319.412 L113.81,319.412 L116.15,319.412 L116.15,325.406 C116.15,325.502 116.12,325.571 116.06,325.613 C116,325.655 115.94,325.676 115.88,325.676 L115.88,325.676 L115.88,326 L118.202,326 Z M127.004,326.054 C127.664,326.054 128.285,325.979 128.867,325.829 C129.449,325.679 129.956,325.436 130.388,325.1 C130.82,324.764 131.162,324.341 131.414,323.831 C131.666,323.321 131.792,322.724 131.792,322.04 C131.792,321.356 131.666,320.759 131.414,320.249 C131.162,319.739 130.82,319.316 130.388,318.98 C129.956,318.644 129.449,318.392 128.867,318.224 C128.285,318.056 127.664,317.972 127.004,317.972 C126.344,317.972 125.723,318.056 125.141,318.224 C124.559,318.392 124.052,318.644 123.62,318.98 C123.188,319.316 122.846,319.739 122.594,320.249 C122.342,320.759 122.216,321.356 122.216,322.04 C122.216,322.724 122.342,323.321 122.594,323.831 C122.846,324.341 123.188,324.764 123.62,325.1 C124.052,325.436 124.559,325.679 125.141,325.829 C125.723,325.979 126.344,326.054 127.004,326.054 Z M127.004,324.776 C126.62,324.776 126.245,324.713 125.879,324.587 C125.513,324.461 125.186,324.281 124.898,324.047 C124.61,323.813 124.379,323.528 124.205,323.192 C124.031,322.856 123.944,322.472 123.944,322.04 C123.944,321.608 124.031,321.224 124.205,320.888 C124.379,320.552 124.61,320.267 124.898,320.033 C125.186,319.799 125.513,319.619 125.879,319.493 C126.245,319.367 126.62,319.304 127.004,319.304 C127.388,319.304 127.763,319.367 128.129,319.493 C128.495,319.619 128.822,319.799 129.11,320.033 C129.398,320.267 129.629,320.552 129.803,320.888 C129.977,321.224 130.064,321.608 130.064,322.04 C130.064,322.472 129.977,322.856 129.803,323.192 C129.629,323.528 129.398,323.813 129.11,324.047 C128.822,324.281 128.495,324.461 128.129,324.587 C127.763,324.713 127.388,324.776 127.004,324.776 Z M136.22,326 L136.22,325.676 C136.016,325.676 135.914,325.586 135.914,325.406 L135.914,325.406 L135.914,320.348 L135.932,320.348 L138.83,326 L138.974,326 L142.034,320.348 L142.07,320.348 L142.07,325.406 C142.106,325.586 141.998,325.676 141.746,325.676 L141.746,325.676 L141.746,326 L143.834,326 L143.834,325.676 C143.774,325.676 143.717,325.655 143.663,325.613 C143.609,325.571 143.582,325.502 143.582,325.406 L143.582,325.406 L143.582,318.638 C143.582,318.542 143.609,318.479 143.663,318.449 C143.717,318.419 143.774,318.404 143.834,318.404 L143.834,318.404 L143.834,318.08 L141.296,318.08 L141.296,318.404 C141.392,318.404 141.44,318.458 141.44,318.566 C141.44,318.602 141.416,318.665 141.368,318.755 C141.32,318.845 141.254,318.962 141.17,319.106 L141.17,319.106 L138.956,323.138 L136.76,319.088 C136.676,318.944 136.613,318.833 136.571,318.755 C136.529,318.677 136.508,318.614 136.508,318.566 C136.508,318.458 136.568,318.404 136.688,318.404 L136.688,318.404 L136.688,318.08 L134.186,318.08 L134.186,318.404 C134.27,318.404 134.327,318.422 134.357,318.458 C134.387,318.494 134.402,318.596 134.402,318.764 L134.402,318.764 L134.402,325.352 C134.402,325.484 134.381,325.568 134.339,325.604 C134.297,325.64 134.246,325.664 134.186,325.676 L134.186,325.676 L134.186,326 L136.22,326 Z M154.76,326 L154.76,325.676 C154.508,325.676 154.382,325.586 154.382,325.406 L154.382,325.406 L154.382,322.706 L157.442,322.706 C158.414,322.706 159.143,322.541 159.629,322.211 C160.115,321.881 160.358,321.284 160.358,320.42 C160.358,319.556 160.115,318.95 159.629,318.602 C159.143,318.254 158.414,318.08 157.442,318.08 L157.442,318.08 L152.204,318.08 L152.204,318.404 C152.504,318.404 152.654,318.494 152.654,318.674 L152.654,318.674 L152.654,325.406 C152.654,325.586 152.504,325.676 152.204,325.676 L152.204,325.676 L152.204,326 L154.76,326 Z M157.406,321.374 L154.382,321.374 L154.382,319.412 L157.406,319.412 C157.754,319.412 158.045,319.487 158.279,319.637 C158.513,319.787 158.63,320.048 158.63,320.42 C158.63,320.804 158.513,321.059 158.279,321.185 C158.045,321.311 157.754,321.374 157.406,321.374 L157.406,321.374 Z M165.362,326 L165.362,325.676 C165.026,325.676 164.858,325.586 164.858,325.406 L164.858,325.406 L164.858,318.674 C164.858,318.494 165.026,318.404 165.362,318.404 L165.362,318.404 L165.362,318.08 L162.626,318.08 L162.626,318.404 C162.818,318.404 162.95,318.425 163.022,318.467 C163.094,318.509 163.13,318.578 163.13,318.674 L163.13,318.674 L163.13,325.406 C163.13,325.502 163.094,325.571 163.022,325.613 C162.95,325.655 162.818,325.676 162.626,325.676 L162.626,325.676 L162.626,326 L165.362,326 Z M176.252,326.18 L176.252,324.29 L175.928,324.29 C175.928,324.41 175.88,324.503 175.784,324.569 C175.688,324.635 175.568,324.668 175.424,324.668 L175.424,324.668 L170.564,324.668 L170.564,318.674 C170.564,318.494 170.702,318.404 170.978,318.404 L170.978,318.404 L170.978,318.08 L168.368,318.08 L168.368,318.404 C168.68,318.404 168.836,318.494 168.836,318.674 L168.836,318.674 L168.836,325.406 C168.836,325.586 168.68,325.676 168.368,325.676 L168.368,325.676 L168.368,326 L175.424,326 C175.568,326 175.688,326.006 175.784,326.018 C175.88,326.03 175.928,326.084 175.928,326.18 L175.928,326.18 L176.252,326.18 Z M185.918,326.198 L185.918,324.308 L185.594,324.308 C185.594,324.416 185.546,324.503 185.45,324.569 C185.354,324.635 185.234,324.668 185.09,324.668 L185.09,324.668 L180.482,324.668 L180.482,322.544 L183.11,322.544 C183.35,322.544 183.536,322.559 183.668,322.589 C183.8,322.619 183.848,322.7 183.812,322.832 L183.812,322.832 L184.172,322.832 L184.172,320.924 L183.848,320.924 C183.848,321.056 183.8,321.137 183.704,321.167 C183.608,321.197 183.458,321.212 183.254,321.212 L183.254,321.212 L180.482,321.212 L180.482,319.412 L184.874,319.412 C185.246,319.412 185.432,319.526 185.432,319.754 L185.432,319.754 L185.756,319.754 L185.756,317.756 L185.432,317.756 C185.432,317.972 185.246,318.08 184.874,318.08 L184.874,318.08 L178.484,318.08 L178.484,318.404 C178.544,318.404 178.604,318.425 178.664,318.467 C178.724,318.509 178.754,318.578 178.754,318.674 L178.754,318.674 L178.754,325.406 C178.754,325.502 178.724,325.571 178.664,325.613 C178.604,325.655 178.544,325.676 178.484,325.676 L178.484,325.676 L178.484,326 L185.09,326 C185.234,326 185.354,326.006 185.45,326.018 C185.546,326.03 185.594,326.09 185.594,326.198 L185.594,326.198 L185.918,326.198 Z M189.752,326.054 C190.1,326.054 190.4,325.937 190.652,325.703 C190.904,325.469 191.03,325.178 191.03,324.83 C191.03,324.482 190.904,324.182 190.652,323.93 C190.4,323.678 190.1,323.552 189.752,323.552 C189.404,323.552 189.104,323.678 188.852,323.93 C188.6,324.182 188.474,324.482 188.474,324.83 C188.474,325.178 188.6,325.469 188.852,325.703 C189.104,325.937 189.404,326.054 189.752,326.054 Z" id="MaybeCOVIDhasjetlag?Addthistoyoursymptompile." fill="#000000" fill-rule="nonzero"></path>
    </g>
</svg>