<?xml version="1.0" encoding="UTF-8"?>
<svg width="262px" height="360px" viewBox="0 0 262 360" version="1.1" xmlns="http://www.w3.org/2000/svg" xmlns:xlink="http://www.w3.org/1999/xlink">
    <title>Butt Coin 2</title>
    <g id="Butt-Coin-2" stroke="none" stroke-width="1" fill="none" fill-rule="evenodd">
        <g id="Group" transform="translate(10.000000, 10.000000)" fill="#FFFFFF" stroke="#000000" stroke-width="3">
            <g id="Rectangle">
                <rect x="1.5" y="1.5" width="239" height="337" rx="8"></rect>
            </g>
        </g>
        <g id="Toilet-Paper" transform="translate(213.000000, 18.000000)">
            <ellipse id="Oval" stroke="#000000" stroke-width="2" cx="24.5" cy="11.5" rx="4.5" ry="10.5"></ellipse>
            <ellipse id="Oval-Copy" fill="#000000" cx="24.5" cy="12" rx="1.5" ry="4"></ellipse>
            <line x1="24" y1="22" x2="18" y2="22" id="Line-6" stroke="#000000" stroke-width="2" stroke-linecap="round"></line>
            <line x1="24" y1="1" x2="9" y2="1" id="Line-5" stroke="#000000" stroke-width="2" stroke-linecap="square"></line>
            <path d="M8,1 C7.02702267,1.90492637 6.360356,2.69857716 6,3.38095238 C4.62724052,5.98042915 4,9.4881664 4,12.9047619 C4,13.6772342 3.97201238,14.5765717 4,15.2857143 C4.12532621,18.4611949 3.12532621,22.0326235 1,26" id="Line-2-Copy-2" stroke="#000000" stroke-width="2" stroke-linecap="round"></path>
            <path d="M23,1 C22.0270227,1.90492637 21.360356,2.69857716 21,3.38095238 C19.6272405,5.98042915 19,9.4881664 19,12.9047619 C19,13.6772342 18.9720124,14.5765717 19,15.2857143 C19.1253262,18.4611949 18.1253262,22.0326235 16,26" id="Line-2-Copy-3" stroke="#000000" stroke-width="2" stroke-linecap="round"></path>
            <line x1="4.23333333" y1="12.2173958" x2="19.1666667" y2="12.2173958" id="Line-3-Copy" stroke="#000000" stroke-width="2" stroke-linecap="square" stroke-dasharray="0,4"></line>
            <line x1="16" y1="26" x2="1.22222222" y2="26" id="Line-5-Copy" stroke="#000000" stroke-width="2" stroke-linecap="round"></line>
        </g>
        <g id="Group" transform="translate(21.000000, 120.000000)">
            <g id="Toilet-Paper" transform="translate(39.000000, 26.000000)">
                <ellipse id="Oval" stroke="#000000" stroke-width="6" cx="153.5" cy="70.5" rx="25.5" ry="67.5"></ellipse>
                <path d="M150,3 C88,3 56.3333333,3 55,3" id="Line" stroke="#000000" stroke-width="6" stroke-linecap="round"></path>
                <ellipse id="Oval" fill="#000000" cx="156" cy="70" rx="8" ry="22"></ellipse>
                <path d="M55,3 C36.6666667,14.6642336 27.5,37.3065693 27.5,70.9270073 C27.5,75.283751 27.6539319,79.4619051 27.9617958,83.4614695 C29.3403842,101.37118 20.0197856,121.550691 0,144" id="Line-2" stroke="#000000" stroke-width="6" stroke-linecap="round"></path>
                <path d="M148,4 C134.666667,16 128,38.3333333 128,71 C128,75.2331482 127.708929,80.1138984 128,84 C129.303393,101.401634 120.303393,120.734967 101,142" id="Line-2-Copy" stroke="#000000" stroke-width="6" stroke-linecap="square"></path>
                <path d="M99,144 C73.3354131,144 55.7421251,144 46.220136,144 C15.406712,144 0,144 0,144" id="Line-Copy" stroke="#000000" stroke-width="6" stroke-linecap="round"></path>
                <path d="M152,138 C96.7636364,138 88.7454545,138 127.945455,138" id="Line-Copy-2" stroke="#000000" stroke-width="6" stroke-linecap="square"></path>
                <line x1="30" y1="68" x2="125" y2="68" id="Line-3" stroke="#000000" stroke-width="6" stroke-linecap="square" stroke-dasharray="9,17"></line>
            </g>
            <g id="Toilet-Paper-Copy" stroke="#000000" stroke-width="6">
                <path d="M177.253502,29.5289387 C176.960662,28.5609216 176.655888,27.6118321 176.339642,26.6826836 C171.142423,11.4129919 162.846642,1.52893866 153.5,1.52893866 C144.075297,1.52893866 135.719082,11.5787793 130.53079,27.0663931" id="Path"></path>
                <path d="M154,1 C89.443299,1 55.7766323,1 53,1" id="Line" stroke-linecap="round"></path>
                <path d="M53,1 C35.3333333,12.6642336 26.5,35.3065693 26.5,68.9270073 C26.5,73.283751 26.6483344,77.4619051 26.9450032,81.4614695 C28.2734611,99.3711804 19.2917934,119.550691 0,142" id="Line-2" stroke-linecap="round"></path>
                <path d="M55.4833793,142 C51.8295641,142 48.7418164,142 46.220136,142 C15.406712,142 0,142 0,142" id="Path" stroke-linecap="round"></path>
                <line x1="30" y1="66" x2="67" y2="66" id="Path" stroke-linecap="square" stroke-dasharray="9,17"></line>
            </g>
        </g>
        <path d="M57.214,84 C58.342,84 59.35,83.874 60.238,83.622 C61.126,83.37 61.876,83.016 62.488,82.56 C63.1,82.104 63.562,81.57 63.874,80.958 C64.186,80.346 64.342,79.68 64.342,78.96 C64.342,77.592 63.952,76.542 63.172,75.81 C62.392,75.078 61.438,74.544 60.31,74.208 L60.31,74.208 L60.31,74.136 C61.27,73.8 62.098,73.326 62.794,72.714 C63.49,72.102 63.838,71.232 63.838,70.104 C63.838,69.168 63.598,68.382 63.118,67.746 C62.638,67.11 62.002,66.594 61.21,66.198 C60.418,65.802 59.506,65.514 58.474,65.334 C57.442,65.154 56.374,65.064 55.27,65.064 L55.27,65.064 L44.002,65.064 L44.002,65.712 C44.674,65.712 45.01,65.928 45.01,66.36 L45.01,66.36 L45.01,82.704 C45.01,83.136 44.674,83.352 44.002,83.352 L44.002,83.352 L44.002,84 L57.214,84 Z M55.99,72.48 L49.114,72.48 L49.114,68.16 L55.99,68.16 C57.07,68.16 57.964,68.298 58.672,68.574 C59.38,68.85 59.734,69.432 59.734,70.32 C59.734,71.208 59.38,71.79 58.672,72.066 C57.964,72.342 57.07,72.48 55.99,72.48 L55.99,72.48 Z M55.99,80.688 L49.114,80.688 L49.114,75.576 L55.99,75.576 C57.502,75.576 58.588,75.81 59.248,76.278 C59.908,76.746 60.238,77.364 60.238,78.132 C60.238,78.9 59.908,79.518 59.248,79.986 C58.588,80.454 57.502,80.688 55.99,80.688 L55.99,80.688 Z M79.138,84.108 C80.578,84.108 81.832,83.958 82.9,83.658 C83.968,83.358 84.844,82.944 85.528,82.416 C86.212,81.888 86.722,81.282 87.058,80.598 C87.394,79.914 87.562,79.2 87.562,78.456 L87.562,78.456 L87.562,69.348 C87.562,68.988 87.826,68.808 88.354,68.808 L88.354,68.808 L88.354,68.16 L83.35,68.16 L83.35,68.808 C83.95,68.808 84.25,68.988 84.25,69.348 L84.25,69.348 L84.25,77.592 C84.25,78.744 83.83,79.668 82.99,80.364 C82.15,81.06 80.866,81.408 79.138,81.408 C77.41,81.408 76.126,81.06 75.286,80.364 C74.446,79.668 74.026,78.744 74.026,77.592 L74.026,77.592 L74.026,69.348 C74.026,68.988 74.29,68.808 74.818,68.808 L74.818,68.808 L74.818,68.16 L69.67,68.16 L69.67,68.808 C70.078,68.808 70.354,68.85 70.498,68.934 C70.642,69.018 70.714,69.156 70.714,69.348 L70.714,69.348 L70.714,78.456 C70.714,79.2 70.882,79.914 71.218,80.598 C71.554,81.282 72.064,81.888 72.748,82.416 C73.432,82.944 74.308,83.358 75.376,83.658 C76.444,83.958 77.698,84.108 79.138,84.108 Z M102.394,84 L102.394,83.352 C101.962,83.352 101.746,83.172 101.746,82.812 L101.746,82.812 L101.746,70.824 L106.426,70.824 C106.618,70.824 106.798,70.872 106.966,70.968 C107.134,71.064 107.218,71.22 107.218,71.436 L107.218,71.436 L107.866,71.436 L107.866,67.296 L107.218,67.296 C107.218,67.632 107.134,67.86 106.966,67.98 C106.798,68.1 106.618,68.16 106.426,68.16 L106.426,68.16 L93.61,68.16 C93.418,68.16 93.238,68.1 93.07,67.98 C92.902,67.86 92.818,67.632 92.818,67.296 L92.818,67.296 L92.17,67.296 L92.17,71.436 L92.818,71.436 C92.818,71.22 92.902,71.064 93.07,70.968 C93.238,70.872 93.418,70.824 93.61,70.824 L93.61,70.824 L98.29,70.824 L98.29,82.812 C98.29,83.004 98.23,83.142 98.11,83.226 C97.99,83.31 97.87,83.352 97.75,83.352 L97.75,83.352 L97.75,84 L102.394,84 Z M120.394,84 L120.394,83.352 C119.962,83.352 119.746,83.172 119.746,82.812 L119.746,82.812 L119.746,70.824 L124.426,70.824 C124.618,70.824 124.798,70.872 124.966,70.968 C125.134,71.064 125.218,71.22 125.218,71.436 L125.218,71.436 L125.866,71.436 L125.866,67.296 L125.218,67.296 C125.218,67.632 125.134,67.86 124.966,67.98 C124.798,68.1 124.618,68.16 124.426,68.16 L124.426,68.16 L111.61,68.16 C111.418,68.16 111.238,68.1 111.07,67.98 C110.902,67.86 110.818,67.632 110.818,67.296 L110.818,67.296 L110.17,67.296 L110.17,71.436 L110.818,71.436 C110.818,71.22 110.902,71.064 111.07,70.968 C111.238,70.872 111.418,70.824 111.61,70.824 L111.61,70.824 L116.29,70.824 L116.29,82.812 C116.29,83.004 116.23,83.142 116.11,83.226 C115.99,83.31 115.87,83.352 115.75,83.352 L115.75,83.352 L115.75,84 L120.394,84 Z M151.462,84.108 C152.614,84.108 153.718,83.976 154.774,83.712 C155.83,83.448 156.772,83.136 157.6,82.776 C158.428,82.416 159.112,82.092 159.652,81.804 C160.192,81.516 160.534,81.372 160.678,81.372 C160.75,81.372 160.816,81.378 160.876,81.39 C160.936,81.402 161.002,81.408 161.074,81.408 L161.074,81.408 L161.362,81.12 L158.986,77.304 L158.482,77.592 C158.578,77.712 158.626,77.856 158.626,78.024 C158.626,78.336 158.392,78.666 157.924,79.014 C157.456,79.362 156.874,79.674 156.178,79.95 C155.482,80.226 154.714,80.454 153.874,80.634 C153.034,80.814 152.23,80.904 151.462,80.904 C150.454,80.904 149.488,80.76 148.564,80.472 C147.64,80.184 146.836,79.764 146.152,79.212 C145.468,78.66 144.922,77.982 144.514,77.178 C144.106,76.374 143.902,75.456 143.902,74.424 C143.902,73.392 144.106,72.474 144.514,71.67 C144.922,70.866 145.468,70.188 146.152,69.636 C146.836,69.084 147.64,68.664 148.564,68.376 C149.488,68.088 150.454,67.944 151.462,67.944 C152.062,67.944 152.716,68.016 153.424,68.16 C154.132,68.304 154.804,68.484 155.44,68.7 C156.076,68.916 156.61,69.162 157.042,69.438 C157.474,69.714 157.714,69.984 157.762,70.248 C157.786,70.344 157.804,70.428 157.816,70.5 C157.828,70.572 157.834,70.644 157.834,70.716 L157.834,70.716 L158.194,70.968 L161.002,66.612 L160.462,66.18 C160.414,66.252 160.348,66.348 160.264,66.468 C160.18,66.588 160.078,66.648 159.958,66.648 C159.862,66.648 159.598,66.552 159.166,66.36 C158.734,66.168 158.146,65.964 157.402,65.748 C156.658,65.532 155.788,65.328 154.792,65.136 C153.796,64.944 152.686,64.848 151.462,64.848 C149.95,64.848 148.498,65.052 147.106,65.46 C145.714,65.868 144.484,66.48 143.416,67.296 C142.348,68.112 141.502,69.126 140.878,70.338 C140.254,71.55 139.942,72.948 139.942,74.532 C139.942,76.14 140.254,77.544 140.878,78.744 C141.502,79.944 142.348,80.946 143.416,81.75 C144.484,82.554 145.714,83.148 147.106,83.532 C148.498,83.916 149.95,84.108 151.462,84.108 Z M174.97,84.108 C176.29,84.108 177.532,83.958 178.696,83.658 C179.86,83.358 180.874,82.872 181.738,82.2 C182.602,81.528 183.286,80.682 183.79,79.662 C184.294,78.642 184.546,77.448 184.546,76.08 C184.546,74.712 184.294,73.518 183.79,72.498 C183.286,71.478 182.602,70.632 181.738,69.96 C180.874,69.288 179.86,68.784 178.696,68.448 C177.532,68.112 176.29,67.944 174.97,67.944 C173.65,67.944 172.408,68.112 171.244,68.448 C170.08,68.784 169.066,69.288 168.202,69.96 C167.338,70.632 166.654,71.478 166.15,72.498 C165.646,73.518 165.394,74.712 165.394,76.08 C165.394,77.448 165.646,78.642 166.15,79.662 C166.654,80.682 167.338,81.528 168.202,82.2 C169.066,82.872 170.08,83.358 171.244,83.658 C172.408,83.958 173.65,84.108 174.97,84.108 Z M174.97,81.552 C174.202,81.552 173.452,81.426 172.72,81.174 C171.988,80.922 171.334,80.562 170.758,80.094 C170.182,79.626 169.72,79.056 169.372,78.384 C169.024,77.712 168.85,76.944 168.85,76.08 C168.85,75.216 169.024,74.448 169.372,73.776 C169.72,73.104 170.182,72.534 170.758,72.066 C171.334,71.598 171.988,71.238 172.72,70.986 C173.452,70.734 174.202,70.608 174.97,70.608 C175.738,70.608 176.488,70.734 177.22,70.986 C177.952,71.238 178.606,71.598 179.182,72.066 C179.758,72.534 180.22,73.104 180.568,73.776 C180.916,74.448 181.09,75.216 181.09,76.08 C181.09,76.944 180.916,77.712 180.568,78.384 C180.22,79.056 179.758,79.626 179.182,80.094 C178.606,80.562 177.952,80.922 177.22,81.174 C176.488,81.426 175.738,81.552 174.97,81.552 Z M194.698,84 L194.698,83.352 C194.026,83.352 193.69,83.172 193.69,82.812 L193.69,82.812 L193.69,69.348 C193.69,68.988 194.026,68.808 194.698,68.808 L194.698,68.808 L194.698,68.16 L189.226,68.16 L189.226,68.808 C189.61,68.808 189.874,68.85 190.018,68.934 C190.162,69.018 190.234,69.156 190.234,69.348 L190.234,69.348 L190.234,82.812 C190.234,83.004 190.162,83.142 190.018,83.226 C189.874,83.31 189.61,83.352 189.226,83.352 L189.226,83.352 L189.226,84 L194.698,84 Z M205.318,84 L205.318,83.352 C204.814,83.352 204.562,83.172 204.562,82.812 L204.562,82.812 L204.562,72.336 L213.49,81.84 C213.778,82.152 214.036,82.428 214.264,82.668 C214.492,82.908 214.606,83.076 214.606,83.172 C214.606,83.292 214.522,83.352 214.354,83.352 L214.354,83.352 L214.354,84 L219.034,84 L219.034,83.352 C218.602,83.352 218.386,83.172 218.386,82.812 L218.386,82.812 L218.386,69.348 C218.386,68.988 218.602,68.808 219.034,68.808 L219.034,68.808 L219.034,68.16 L214.642,68.16 L214.642,68.808 C215.122,68.808 215.362,68.988 215.362,69.348 L215.362,69.348 L215.362,79.104 L206.722,69.96 C206.194,69.432 205.93,69.108 205.93,68.988 C205.93,68.892 206.014,68.832 206.182,68.808 L206.182,68.808 L206.182,68.16 L200.89,68.16 L200.89,68.808 C201.322,68.808 201.538,68.988 201.538,69.348 L201.538,69.348 L201.538,82.812 C201.538,83.172 201.322,83.352 200.89,83.352 L200.89,83.352 L200.89,84 L205.318,84 Z" id="ButtCoin" fill="#000000" fill-rule="nonzero"></path>
        <path d="M210.73,42.468 L210.73,37.68 L210.298,37.68 C210.298,38.16 210.184,38.448 209.956,38.544 C209.728,38.64 209.482,38.688 209.218,38.688 L209.218,38.688 L197.338,38.688 L197.338,38.328 C197.986,37.728 198.736,37.236 199.588,36.852 C200.44,36.468 201.328,36.102 202.252,35.754 C203.176,35.406 204.082,35.052 204.97,34.692 C205.858,34.332 206.656,33.894 207.364,33.378 C208.072,32.862 208.642,32.232 209.074,31.488 C209.506,30.744 209.722,29.808 209.722,28.68 C209.722,27.624 209.512,26.73 209.092,25.998 C208.672,25.266 208.12,24.666 207.436,24.198 C206.752,23.73 205.972,23.388 205.096,23.172 C204.22,22.956 203.326,22.848 202.414,22.848 C201.022,22.848 199.822,23.028 198.814,23.388 C197.806,23.748 196.966,24.144 196.294,24.576 C195.622,25.008 195.094,25.404 194.71,25.764 C194.326,26.124 194.062,26.304 193.918,26.304 C193.798,26.304 193.69,26.28 193.594,26.232 C193.498,26.184 193.402,26.136 193.306,26.088 L193.306,26.088 L192.946,26.34 L196.654,30.3 L197.014,30.048 C196.918,29.976 196.84,29.844 196.78,29.652 C196.72,29.46 196.69,29.304 196.69,29.184 C196.69,28.68 196.888,28.23 197.284,27.834 C197.68,27.438 198.154,27.096 198.706,26.808 C199.258,26.52 199.834,26.304 200.434,26.16 C201.034,26.016 201.538,25.944 201.946,25.944 C202.354,25.944 202.774,25.98 203.206,26.052 C203.638,26.124 204.034,26.262 204.394,26.466 C204.754,26.67 205.048,26.934 205.276,27.258 C205.504,27.582 205.618,27.996 205.618,28.5 C205.618,29.244 205.3,29.892 204.664,30.444 C204.028,30.996 203.23,31.53 202.27,32.046 C201.31,32.562 200.278,33.084 199.174,33.612 C198.07,34.14 197.038,34.752 196.078,35.448 C195.118,36.144 194.32,36.948 193.684,37.86 C193.048,38.772 192.73,39.864 192.73,41.136 L192.73,41.136 L192.73,42.432 L193.162,42.432 C193.162,42.216 193.246,42.09 193.414,42.054 C193.582,42.018 193.798,42 194.062,42 L194.062,42 L209.218,42 C209.482,42 209.728,42.012 209.956,42.036 C210.184,42.06 210.298,42.204 210.298,42.468 L210.298,42.468 L210.73,42.468 Z" id="2" fill="#000000" fill-rule="nonzero"></path>
    </g>
</svg>