<?xml version="1.0" encoding="UTF-8"?>
<svg width="262px" height="360px" viewBox="0 0 262 360" version="1.1" xmlns="http://www.w3.org/2000/svg" xmlns:xlink="http://www.w3.org/1999/xlink">
    <title>Sore Throat 4</title>
    <g id="Sore-Throat-4" stroke="none" stroke-width="1" fill="none" fill-rule="evenodd">
        <g id="Group" transform="translate(9.000000, 9.000000)" fill="#FFFFFF" stroke="#000000" stroke-width="3">
            <g id="Rectangle">
                <rect x="1.5" y="1.5" width="239" height="337" rx="8"></rect>
            </g>
        </g>
        <path d="M216.124,30 L216.124,29.712 C215.964,29.712 215.82,29.668 215.692,29.58 C215.564,29.492 215.5,29.312 215.5,29.04 L215.5,29.04 L215.5,18.048 C215.5,17.888 215.564,17.768 215.692,17.688 C215.82,17.608 215.98,17.552 216.172,17.52 L216.172,17.52 L216.172,17.232 L212.284,17.232 L212.284,17.52 C212.46,17.552 212.6,17.6 212.704,17.664 C212.808,17.728 212.86,17.872 212.86,18.096 C212.86,18.336 212.768,18.54 212.584,18.708 C212.4,18.876 212.172,18.96 211.9,18.96 C211.772,18.96 211.636,18.932 211.492,18.876 C211.348,18.82 211.276,18.72 211.276,18.576 L211.276,18.576 L210.988,18.576 L210.988,21.6 L211.276,21.6 C211.324,21.472 211.408,21.372 211.528,21.3 C211.648,21.228 211.78,21.172 211.924,21.132 C212.068,21.092 212.216,21.064 212.368,21.048 C212.52,21.032 212.652,21.024 212.764,21.024 L212.764,21.024 L212.764,29.04 C212.764,29.312 212.704,29.492 212.584,29.58 C212.464,29.668 212.324,29.712 212.164,29.712 L212.164,29.712 L212.164,30 L216.124,30 Z" id="1" fill="#000000" fill-rule="nonzero"></path>
        <g id="Face" transform="translate(225.000000, 15.000000)">
            <circle id="Oval" stroke="#000000" fill="#FFFFFF" cx="9.5" cy="9.5" r="9"></circle>
            <circle id="Oval" fill="#000000" cx="5" cy="8" r="1"></circle>
            <circle id="Oval-Copy" fill="#000000" cx="12" cy="8" r="1"></circle>
            <line x1="12.0789474" y1="13.9090909" x2="14.5" y2="11.5" id="Line-4" stroke="#000000" stroke-linecap="round"></line>
            <path d="M3,5.89285714 C3.41025641,5.96428571 3.76923077,6 4.07692308,6 C4.38461538,6 5.35897436,5.33333333 7,4" id="Line-2" stroke="#000000"></path>
            <path d="M6,15 C6.96078431,14.3333333 8.07598039,14 9.34558824,14 C10.6151961,14 11.8333333,14.3333333 13,15" id="Line" stroke="#000000" stroke-linecap="round" stroke-linejoin="round"></path>
            <path d="M11.3197366,4.68245322 C11.585843,4.80663622 11.7912611,4.92388646 11.9359908,5.03420394 C12.548667,5.50120471 13.1333088,5.70898724 13.3155349,5.80010028 C13.5440857,5.91437569 13.8101922,6.00751295 14.1138542,6.07951204" id="Line-3" stroke="#000000" stroke-linecap="square" transform="translate(12.716795, 5.380983) rotate(-3.000000) translate(-12.716795, -5.380983) "></path>
            <path d="M2.999,9.347 L3.01687864,9.39698204 C3.09438102,9.62639002 3.1880913,9.89570266 3.30282211,10.2112791 C3.48139895,10.7024692 3.54804655,11.0169045 3.47980817,11.2204078 C3.41244402,11.421304 3.17143148,11.4011566 3.01518318,11.4416373 L3.01518318,11.4416373 L2.86575433,11.4813457 C2.78836954,11.5029149 2.70310591,11.5126925 2.63007237,11.4810832 C2.58941161,11.463485 2.56030088,11.4264037 2.54036126,11.376794 C2.4446463,11.1386559 2.49784548,10.759559 2.69717789,10.2112791 C2.8119087,9.89570266 2.90561898,9.62639002 2.98312136,9.39698204 L2.999,9.347 Z" id="Oval" stroke="#000000"></path>
            <path d="M16,6.347 L16.0168786,6.39698204 C16.094381,6.62639002 16.1880913,6.89570266 16.3028221,7.21127907 C16.481399,7.70246915 16.5480465,8.01690453 16.4798082,8.22040783 C16.412444,8.42130397 16.1714315,8.40115659 16.0151832,8.44163726 L16.0151832,8.44163726 L15.8657543,8.48134574 C15.7883695,8.50291486 15.7031059,8.51269255 15.6300724,8.48108319 C15.5894116,8.46348497 15.5603009,8.42640366 15.5403613,8.37679403 C15.4446463,8.13865595 15.4978455,7.75955902 15.6971779,7.21127907 C15.8119087,6.89570266 15.905619,6.62639002 15.9831214,6.39698204 L16,6.347 Z" id="Oval-Copy-2" stroke="#000000"></path>
        </g>
        <rect id="Rectangle" stroke="#000000" stroke-width="3" x="17.5" y="243.5" width="225" height="98" rx="8"></rect>
        <path d="M29.12,57.108 C30.104,57.108 31.166,57.03 32.306,56.874 C33.446,56.718 34.508,56.412 35.492,55.956 C36.476,55.5 37.298,54.876 37.958,54.084 C38.618,53.292 38.948,52.272 38.948,51.024 C38.948,49.944 38.738,49.068 38.318,48.396 C37.898,47.724 37.346,47.19 36.662,46.794 C35.978,46.398 35.198,46.11 34.322,45.93 C33.446,45.75 32.552,45.624 31.64,45.552 C30.728,45.48 29.834,45.42 28.958,45.372 C28.082,45.324 27.302,45.228 26.618,45.084 C25.934,44.94 25.382,44.724 24.962,44.436 C24.542,44.148 24.332,43.716 24.332,43.14 C24.332,42.732 24.482,42.39 24.782,42.114 C25.082,41.838 25.46,41.616 25.916,41.448 C26.372,41.28 26.882,41.154 27.446,41.07 C28.01,40.986 28.556,40.944 29.084,40.944 C29.78,40.944 30.476,41.01 31.172,41.142 C31.868,41.274 32.516,41.448 33.116,41.664 C33.716,41.88 34.238,42.126 34.682,42.402 C35.126,42.678 35.444,42.96 35.636,43.248 C35.78,43.464 35.876,43.74 35.924,44.076 L35.924,44.076 L36.284,44.22 L38.768,39.72 L38.336,39.432 C38.192,39.576 37.952,39.648 37.616,39.648 C37.304,39.648 36.914,39.552 36.446,39.36 C35.978,39.168 35.402,38.964 34.718,38.748 C34.034,38.532 33.224,38.328 32.288,38.136 C31.352,37.944 30.248,37.848 28.976,37.848 C27.488,37.848 26.192,38.022 25.088,38.37 C23.984,38.718 23.072,39.168 22.352,39.72 C21.632,40.272 21.098,40.908 20.75,41.628 C20.402,42.348 20.228,43.08 20.228,43.824 C20.228,44.928 20.438,45.822 20.858,46.506 C21.278,47.19 21.83,47.73 22.514,48.126 C23.198,48.522 23.978,48.804 24.854,48.972 C25.73,49.14 26.624,49.26 27.536,49.332 C28.448,49.404 29.342,49.458 30.218,49.494 C31.094,49.53 31.874,49.608 32.558,49.728 C33.242,49.848 33.794,50.04 34.214,50.304 C34.634,50.568 34.844,50.976 34.844,51.528 C34.844,52.08 34.616,52.524 34.16,52.86 C33.704,53.196 33.164,53.46 32.54,53.652 C31.916,53.844 31.28,53.97 30.632,54.03 C29.984,54.09 29.456,54.12 29.048,54.12 C28.496,54.12 27.872,54.054 27.176,53.922 C26.48,53.79 25.814,53.616 25.178,53.4 C24.542,53.184 23.978,52.938 23.486,52.662 C22.994,52.386 22.664,52.104 22.496,51.816 C22.4,51.648 22.352,51.456 22.352,51.24 L22.352,51.24 L21.992,51.06 L20.012,55.416 L20.516,55.704 C20.66,55.512 20.816,55.416 20.984,55.416 C21.248,55.416 21.56,55.506 21.92,55.686 C22.28,55.866 22.766,56.07 23.378,56.298 C23.99,56.526 24.758,56.718 25.682,56.874 C26.606,57.03 27.752,57.108 29.12,57.108 Z M52.484,57.108 C53.804,57.108 55.046,56.958 56.21,56.658 C57.374,56.358 58.388,55.872 59.252,55.2 C60.116,54.528 60.8,53.682 61.304,52.662 C61.808,51.642 62.06,50.448 62.06,49.08 C62.06,47.712 61.808,46.518 61.304,45.498 C60.8,44.478 60.116,43.632 59.252,42.96 C58.388,42.288 57.374,41.784 56.21,41.448 C55.046,41.112 53.804,40.944 52.484,40.944 C51.164,40.944 49.922,41.112 48.758,41.448 C47.594,41.784 46.58,42.288 45.716,42.96 C44.852,43.632 44.168,44.478 43.664,45.498 C43.16,46.518 42.908,47.712 42.908,49.08 C42.908,50.448 43.16,51.642 43.664,52.662 C44.168,53.682 44.852,54.528 45.716,55.2 C46.58,55.872 47.594,56.358 48.758,56.658 C49.922,56.958 51.164,57.108 52.484,57.108 Z M52.484,54.552 C51.716,54.552 50.966,54.426 50.234,54.174 C49.502,53.922 48.848,53.562 48.272,53.094 C47.696,52.626 47.234,52.056 46.886,51.384 C46.538,50.712 46.364,49.944 46.364,49.08 C46.364,48.216 46.538,47.448 46.886,46.776 C47.234,46.104 47.696,45.534 48.272,45.066 C48.848,44.598 49.502,44.238 50.234,43.986 C50.966,43.734 51.716,43.608 52.484,43.608 C53.252,43.608 54.002,43.734 54.734,43.986 C55.466,44.238 56.12,44.598 56.696,45.066 C57.272,45.534 57.734,46.104 58.082,46.776 C58.43,47.448 58.604,48.216 58.604,49.08 C58.604,49.944 58.43,50.712 58.082,51.384 C57.734,52.056 57.272,52.626 56.696,53.094 C56.12,53.562 55.466,53.922 54.734,54.174 C54.002,54.426 53.252,54.552 52.484,54.552 Z M71.096,57 L71.096,56.352 C70.952,56.352 70.802,56.31 70.646,56.226 C70.49,56.142 70.412,56.004 70.412,55.812 L70.412,55.812 L70.412,50.664 L75.416,50.664 L78.26,54.912 C78.62,55.416 78.8,55.788 78.8,56.028 C78.8,56.244 78.644,56.352 78.332,56.352 L78.332,56.352 L78.332,57 L83.84,57 L83.84,56.352 C83.576,56.28 83.33,56.178 83.102,56.046 C82.874,55.914 82.664,55.716 82.472,55.452 L82.472,55.452 L78.944,50.304 C79.448,50.184 79.94,50.01 80.42,49.782 C80.9,49.554 81.338,49.254 81.734,48.882 C82.13,48.51 82.448,48.072 82.688,47.568 C82.928,47.064 83.048,46.488 83.048,45.84 C83.048,44.136 82.448,42.93 81.248,42.222 C80.048,41.514 78.38,41.16 76.244,41.16 L76.244,41.16 L66.308,41.16 L66.308,41.808 C66.74,41.808 66.956,41.988 66.956,42.348 L66.956,42.348 L66.956,55.812 C66.956,56.172 66.74,56.352 66.308,56.352 L66.308,56.352 L66.308,57 L71.096,57 Z M76.172,48 L70.484,48 L70.484,43.824 L76.172,43.824 C77.396,43.824 78.29,43.998 78.854,44.346 C79.418,44.694 79.7,45.168 79.7,45.768 C79.7,47.256 78.524,48 76.172,48 L76.172,48 Z M103.316,57.396 L103.316,53.616 L102.668,53.616 C102.668,53.832 102.572,54.006 102.38,54.138 C102.188,54.27 101.948,54.336 101.66,54.336 L101.66,54.336 L92.444,54.336 L92.444,50.088 L97.7,50.088 C98.18,50.088 98.552,50.118 98.816,50.178 C99.08,50.238 99.176,50.4 99.104,50.664 L99.104,50.664 L99.824,50.664 L99.824,46.848 L99.176,46.848 C99.176,47.112 99.08,47.274 98.888,47.334 C98.696,47.394 98.396,47.424 97.988,47.424 L97.988,47.424 L92.444,47.424 L92.444,43.824 L101.228,43.824 C101.972,43.824 102.344,44.052 102.344,44.508 L102.344,44.508 L102.992,44.508 L102.992,40.512 L102.344,40.512 C102.344,40.944 101.972,41.16 101.228,41.16 L101.228,41.16 L88.448,41.16 L88.448,41.808 C88.568,41.808 88.688,41.85 88.808,41.934 C88.928,42.018 88.988,42.156 88.988,42.348 L88.988,42.348 L88.988,55.812 C88.988,56.004 88.928,56.142 88.808,56.226 C88.688,56.31 88.568,56.352 88.448,56.352 L88.448,56.352 L88.448,57 L101.66,57 C101.948,57 102.188,57.012 102.38,57.036 C102.572,57.06 102.668,57.18 102.668,57.396 L102.668,57.396 L103.316,57.396 Z M130.316,57 L130.316,56.352 C129.788,56.352 129.524,56.136 129.524,55.704 L129.524,55.704 L129.524,41.376 L135.464,41.376 C135.68,41.376 135.89,41.436 136.094,41.556 C136.298,41.676 136.4,41.904 136.4,42.24 L136.4,42.24 L137.048,42.24 L137.048,37.2 L136.4,37.2 C136.4,37.536 136.298,37.764 136.094,37.884 C135.89,38.004 135.68,38.064 135.464,38.064 L135.464,38.064 L119.48,38.064 C119.264,38.064 119.054,38.004 118.85,37.884 C118.646,37.764 118.544,37.536 118.544,37.2 L118.544,37.2 L117.896,37.2 L117.896,42.24 L118.544,42.24 C118.544,41.904 118.646,41.676 118.85,41.556 C119.054,41.436 119.264,41.376 119.48,41.376 L119.48,41.376 L125.42,41.376 L125.42,55.704 C125.42,55.92 125.354,56.082 125.222,56.19 C125.09,56.298 124.94,56.352 124.772,56.352 L124.772,56.352 L124.772,57 L130.316,57 Z M146.192,57 L146.192,56.352 C146.048,56.352 145.922,56.31 145.814,56.226 C145.706,56.142 145.652,56.004 145.652,55.812 L145.652,55.812 L145.652,50.376 L155.3,50.376 L155.3,55.812 C155.3,56.004 155.246,56.142 155.138,56.226 C155.03,56.31 154.904,56.352 154.76,56.352 L154.76,56.352 L154.76,57 L159.296,57 L159.296,56.352 C159.152,56.352 159.026,56.31 158.918,56.226 C158.81,56.142 158.756,56.004 158.756,55.812 L158.756,55.812 L158.756,42.348 C158.756,42.156 158.81,42.018 158.918,41.934 C159.026,41.85 159.152,41.808 159.296,41.808 L159.296,41.808 L159.296,41.16 L154.76,41.16 L154.76,41.808 C154.904,41.808 155.03,41.85 155.138,41.934 C155.246,42.018 155.3,42.156 155.3,42.348 L155.3,42.348 L155.3,47.424 L145.652,47.424 L145.652,42.348 C145.652,42.156 145.706,42.018 145.814,41.934 C145.922,41.85 146.048,41.808 146.192,41.808 L146.192,41.808 L146.192,41.16 L141.656,41.16 L141.656,41.808 C141.8,41.808 141.926,41.85 142.034,41.934 C142.142,42.018 142.196,42.156 142.196,42.348 L142.196,42.348 L142.196,55.812 C142.196,56.004 142.142,56.142 142.034,56.226 C141.926,56.31 141.8,56.352 141.656,56.352 L141.656,56.352 L141.656,57 L146.192,57 Z M170.096,57 L170.096,56.352 C169.952,56.352 169.802,56.31 169.646,56.226 C169.49,56.142 169.412,56.004 169.412,55.812 L169.412,55.812 L169.412,50.664 L174.416,50.664 L177.26,54.912 C177.62,55.416 177.8,55.788 177.8,56.028 C177.8,56.244 177.644,56.352 177.332,56.352 L177.332,56.352 L177.332,57 L182.84,57 L182.84,56.352 C182.576,56.28 182.33,56.178 182.102,56.046 C181.874,55.914 181.664,55.716 181.472,55.452 L181.472,55.452 L177.944,50.304 C178.448,50.184 178.94,50.01 179.42,49.782 C179.9,49.554 180.338,49.254 180.734,48.882 C181.13,48.51 181.448,48.072 181.688,47.568 C181.928,47.064 182.048,46.488 182.048,45.84 C182.048,44.136 181.448,42.93 180.248,42.222 C179.048,41.514 177.38,41.16 175.244,41.16 L175.244,41.16 L165.308,41.16 L165.308,41.808 C165.74,41.808 165.956,41.988 165.956,42.348 L165.956,42.348 L165.956,55.812 C165.956,56.172 165.74,56.352 165.308,56.352 L165.308,56.352 L165.308,57 L170.096,57 Z M175.172,48 L169.484,48 L169.484,43.824 L175.172,43.824 C176.396,43.824 177.29,43.998 177.854,44.346 C178.418,44.694 178.7,45.168 178.7,45.768 C178.7,47.256 177.524,48 175.172,48 L175.172,48 Z M195.476,57.108 C196.796,57.108 198.038,56.958 199.202,56.658 C200.366,56.358 201.38,55.872 202.244,55.2 C203.108,54.528 203.792,53.682 204.296,52.662 C204.8,51.642 205.052,50.448 205.052,49.08 C205.052,47.712 204.8,46.518 204.296,45.498 C203.792,44.478 203.108,43.632 202.244,42.96 C201.38,42.288 200.366,41.784 199.202,41.448 C198.038,41.112 196.796,40.944 195.476,40.944 C194.156,40.944 192.914,41.112 191.75,41.448 C190.586,41.784 189.572,42.288 188.708,42.96 C187.844,43.632 187.16,44.478 186.656,45.498 C186.152,46.518 185.9,47.712 185.9,49.08 C185.9,50.448 186.152,51.642 186.656,52.662 C187.16,53.682 187.844,54.528 188.708,55.2 C189.572,55.872 190.586,56.358 191.75,56.658 C192.914,56.958 194.156,57.108 195.476,57.108 Z M195.476,54.552 C194.708,54.552 193.958,54.426 193.226,54.174 C192.494,53.922 191.84,53.562 191.264,53.094 C190.688,52.626 190.226,52.056 189.878,51.384 C189.53,50.712 189.356,49.944 189.356,49.08 C189.356,48.216 189.53,47.448 189.878,46.776 C190.226,46.104 190.688,45.534 191.264,45.066 C191.84,44.598 192.494,44.238 193.226,43.986 C193.958,43.734 194.708,43.608 195.476,43.608 C196.244,43.608 196.994,43.734 197.726,43.986 C198.458,44.238 199.112,44.598 199.688,45.066 C200.264,45.534 200.726,46.104 201.074,46.776 C201.422,47.448 201.596,48.216 201.596,49.08 C201.596,49.944 201.422,50.712 201.074,51.384 C200.726,52.056 200.264,52.626 199.688,53.094 C199.112,53.562 198.458,53.922 197.726,54.174 C196.994,54.426 196.244,54.552 195.476,54.552 Z M211.856,57 L211.856,56.352 C211.64,56.352 211.472,56.328 211.352,56.28 C211.232,56.232 211.172,56.112 211.172,55.92 C211.172,55.8 211.202,55.662 211.262,55.506 C211.322,55.35 211.4,55.176 211.496,54.984 L211.496,54.984 L212.504,53.04 L220.208,53.04 L221.18,55.092 C221.252,55.284 221.312,55.44 221.36,55.56 C221.408,55.68 221.432,55.812 221.432,55.956 C221.432,56.148 221.366,56.28 221.234,56.352 C221.102,56.424 220.976,56.46 220.856,56.46 L220.856,56.46 L220.856,57 L225.968,57 L225.968,56.352 C225.8,56.304 225.644,56.232 225.5,56.136 C225.356,56.04 225.224,55.884 225.104,55.668 L225.104,55.668 L219.272,43.428 C219.152,43.164 219.038,42.93 218.93,42.726 C218.822,42.522 218.768,42.348 218.768,42.204 C218.768,42.036 218.81,41.94 218.894,41.916 C218.978,41.892 219.056,41.856 219.128,41.808 L219.128,41.808 L219.128,41.16 L213.692,41.16 L213.692,41.808 C213.764,41.856 213.83,41.898 213.89,41.934 C213.95,41.97 213.98,42.06 213.98,42.204 C213.98,42.396 213.938,42.594 213.854,42.798 C213.77,43.002 213.656,43.272 213.512,43.608 L213.512,43.608 L208.148,55.308 C208.052,55.5 207.914,55.71 207.734,55.938 C207.554,56.166 207.32,56.304 207.032,56.352 L207.032,56.352 L207.032,57 L211.856,57 Z M219.056,50.376 L213.584,50.376 L216.14,44.328 L219.056,50.376 Z M237.884,57 L237.884,56.352 C237.452,56.352 237.236,56.172 237.236,55.812 L237.236,55.812 L237.236,43.824 L241.916,43.824 C242.108,43.824 242.288,43.872 242.456,43.968 C242.624,44.064 242.708,44.22 242.708,44.436 L242.708,44.436 L243.356,44.436 L243.356,40.296 L242.708,40.296 C242.708,40.632 242.624,40.86 242.456,40.98 C242.288,41.1 242.108,41.16 241.916,41.16 L241.916,41.16 L229.1,41.16 C228.908,41.16 228.728,41.1 228.56,40.98 C228.392,40.86 228.308,40.632 228.308,40.296 L228.308,40.296 L227.66,40.296 L227.66,44.436 L228.308,44.436 C228.308,44.22 228.392,44.064 228.56,43.968 C228.728,43.872 228.908,43.824 229.1,43.824 L229.1,43.824 L233.78,43.824 L233.78,55.812 C233.78,56.004 233.72,56.142 233.6,56.226 C233.48,56.31 233.36,56.352 233.24,56.352 L233.24,56.352 L233.24,57 L237.884,57 Z" id="SoreThroat" fill="#000000" fill-rule="nonzero"></path>
        <path d="M41.729,261.054 C42.305,261.054 42.857,260.988 43.385,260.856 C43.913,260.724 44.384,260.568 44.798,260.388 C45.212,260.208 45.554,260.046 45.824,259.902 C46.094,259.758 46.265,259.686 46.337,259.686 C46.373,259.686 46.406,259.689 46.436,259.695 C46.466,259.701 46.499,259.704 46.535,259.704 L46.535,259.704 L46.679,259.56 L45.491,257.652 L45.239,257.796 C45.287,257.856 45.311,257.928 45.311,258.012 C45.311,258.168 45.194,258.333 44.96,258.507 C44.726,258.681 44.435,258.837 44.087,258.975 C43.739,259.113 43.355,259.227 42.935,259.317 C42.515,259.407 42.113,259.452 41.729,259.452 C41.225,259.452 40.742,259.38 40.28,259.236 C39.818,259.092 39.416,258.882 39.074,258.606 C38.732,258.33 38.459,257.991 38.255,257.589 C38.051,257.187 37.949,256.728 37.949,256.212 C37.949,255.696 38.051,255.237 38.255,254.835 C38.459,254.433 38.732,254.094 39.074,253.818 C39.416,253.542 39.818,253.332 40.28,253.188 C40.742,253.044 41.225,252.972 41.729,252.972 C42.029,252.972 42.356,253.008 42.71,253.08 C43.064,253.152 43.4,253.242 43.718,253.35 C44.036,253.458 44.303,253.581 44.519,253.719 C44.735,253.857 44.855,253.992 44.879,254.124 C44.891,254.172 44.9,254.214 44.906,254.25 C44.912,254.286 44.915,254.322 44.915,254.358 L44.915,254.358 L45.095,254.484 L46.499,252.306 L46.229,252.09 C46.205,252.126 46.172,252.174 46.13,252.234 C46.088,252.294 46.037,252.324 45.977,252.324 C45.929,252.324 45.797,252.276 45.581,252.18 C45.365,252.084 45.071,251.982 44.699,251.874 C44.327,251.766 43.892,251.664 43.394,251.568 C42.896,251.472 42.341,251.424 41.729,251.424 C40.973,251.424 40.247,251.526 39.551,251.73 C38.855,251.934 38.24,252.24 37.706,252.648 C37.172,253.056 36.749,253.563 36.437,254.169 C36.125,254.775 35.969,255.474 35.969,256.266 C35.969,257.07 36.125,257.772 36.437,258.372 C36.749,258.972 37.172,259.473 37.706,259.875 C38.24,260.277 38.855,260.574 39.551,260.766 C40.247,260.958 40.973,261.054 41.729,261.054 Z M53.483,261.054 C54.143,261.054 54.764,260.979 55.346,260.829 C55.928,260.679 56.435,260.436 56.867,260.1 C57.299,259.764 57.641,259.341 57.893,258.831 C58.145,258.321 58.271,257.724 58.271,257.04 C58.271,256.356 58.145,255.759 57.893,255.249 C57.641,254.739 57.299,254.316 56.867,253.98 C56.435,253.644 55.928,253.392 55.346,253.224 C54.764,253.056 54.143,252.972 53.483,252.972 C52.823,252.972 52.202,253.056 51.62,253.224 C51.038,253.392 50.531,253.644 50.099,253.98 C49.667,254.316 49.325,254.739 49.073,255.249 C48.821,255.759 48.695,256.356 48.695,257.04 C48.695,257.724 48.821,258.321 49.073,258.831 C49.325,259.341 49.667,259.764 50.099,260.1 C50.531,260.436 51.038,260.679 51.62,260.829 C52.202,260.979 52.823,261.054 53.483,261.054 Z M53.483,259.776 C53.099,259.776 52.724,259.713 52.358,259.587 C51.992,259.461 51.665,259.281 51.377,259.047 C51.089,258.813 50.858,258.528 50.684,258.192 C50.51,257.856 50.423,257.472 50.423,257.04 C50.423,256.608 50.51,256.224 50.684,255.888 C50.858,255.552 51.089,255.267 51.377,255.033 C51.665,254.799 51.992,254.619 52.358,254.493 C52.724,254.367 53.099,254.304 53.483,254.304 C53.867,254.304 54.242,254.367 54.608,254.493 C54.974,254.619 55.301,254.799 55.589,255.033 C55.877,255.267 56.108,255.552 56.282,255.888 C56.456,256.224 56.543,256.608 56.543,257.04 C56.543,257.472 56.456,257.856 56.282,258.192 C56.108,258.528 55.877,258.813 55.589,259.047 C55.301,259.281 54.974,259.461 54.608,259.587 C54.242,259.713 53.867,259.776 53.483,259.776 Z M65.057,261.054 C65.777,261.054 66.404,260.979 66.938,260.829 C67.472,260.679 67.91,260.472 68.252,260.208 C68.594,259.944 68.849,259.641 69.017,259.299 C69.185,258.957 69.269,258.6 69.269,258.228 L69.269,258.228 L69.269,253.674 C69.269,253.494 69.401,253.404 69.665,253.404 L69.665,253.404 L69.665,253.08 L67.163,253.08 L67.163,253.404 C67.463,253.404 67.613,253.494 67.613,253.674 L67.613,253.674 L67.613,257.796 C67.613,258.372 67.403,258.834 66.983,259.182 C66.563,259.53 65.921,259.704 65.057,259.704 C64.193,259.704 63.551,259.53 63.131,259.182 C62.711,258.834 62.501,258.372 62.501,257.796 L62.501,257.796 L62.501,253.674 C62.501,253.494 62.633,253.404 62.897,253.404 L62.897,253.404 L62.897,253.08 L60.323,253.08 L60.323,253.404 C60.527,253.404 60.665,253.425 60.737,253.467 C60.809,253.509 60.845,253.578 60.845,253.674 L60.845,253.674 L60.845,258.228 C60.845,258.6 60.929,258.957 61.097,259.299 C61.265,259.641 61.52,259.944 61.862,260.208 C62.204,260.472 62.642,260.679 63.176,260.829 C63.71,260.979 64.337,261.054 65.057,261.054 Z M80.249,261.18 L80.249,259.29 L79.925,259.29 C79.925,259.41 79.877,259.503 79.781,259.569 C79.685,259.635 79.565,259.668 79.421,259.668 L79.421,259.668 L74.561,259.668 L74.561,253.674 C74.561,253.494 74.699,253.404 74.975,253.404 L74.975,253.404 L74.975,253.08 L72.365,253.08 L72.365,253.404 C72.677,253.404 72.833,253.494 72.833,253.674 L72.833,253.674 L72.833,260.406 C72.833,260.586 72.677,260.676 72.365,260.676 L72.365,260.676 L72.365,261 L79.421,261 C79.565,261 79.685,261.006 79.781,261.018 C79.877,261.03 79.925,261.084 79.925,261.18 L79.925,261.18 L80.249,261.18 Z M87.287,261 C87.995,261 88.595,260.886 89.087,260.658 C89.579,260.43 89.981,260.133 90.293,259.767 C90.605,259.401 90.833,258.981 90.977,258.507 C91.121,258.033 91.193,257.544 91.193,257.04 C91.193,256.536 91.118,256.047 90.968,255.573 C90.818,255.099 90.584,254.679 90.266,254.313 C89.948,253.947 89.537,253.65 89.033,253.422 C88.529,253.194 87.923,253.08 87.215,253.08 L87.215,253.08 L82.211,253.08 L82.211,253.404 C82.487,253.404 82.625,253.494 82.625,253.674 L82.625,253.674 L82.625,260.406 C82.625,260.586 82.487,260.676 82.211,260.676 L82.211,260.676 L82.211,261 L87.287,261 Z M86.693,259.668 L84.353,259.668 L84.353,254.412 L86.693,254.412 C87.065,254.412 87.419,254.433 87.755,254.475 C88.091,254.517 88.385,254.625 88.637,254.799 C88.889,254.973 89.09,255.231 89.24,255.573 C89.39,255.915 89.465,256.386 89.465,256.986 C89.465,257.586 89.39,258.063 89.24,258.417 C89.09,258.771 88.889,259.041 88.637,259.227 C88.385,259.413 88.091,259.533 87.755,259.587 C87.419,259.641 87.065,259.668 86.693,259.668 L86.693,259.668 Z M101.849,261 L101.849,260.676 C101.513,260.676 101.345,260.586 101.345,260.406 L101.345,260.406 L101.345,253.674 C101.345,253.494 101.513,253.404 101.849,253.404 L101.849,253.404 L101.849,253.08 L99.113,253.08 L99.113,253.404 C99.305,253.404 99.437,253.425 99.509,253.467 C99.581,253.509 99.617,253.578 99.617,253.674 L99.617,253.674 L99.617,260.406 C99.617,260.502 99.581,260.571 99.509,260.613 C99.437,260.655 99.305,260.676 99.113,260.676 L99.113,260.676 L99.113,261 L101.849,261 Z M109.175,261 L109.175,260.676 C108.959,260.676 108.851,260.586 108.851,260.406 L108.851,260.406 L108.851,254.412 L111.191,254.412 C111.287,254.412 111.377,254.436 111.461,254.484 C111.545,254.532 111.587,254.61 111.587,254.718 L111.587,254.718 L111.911,254.718 L111.911,252.648 L111.587,252.648 C111.587,252.816 111.545,252.93 111.461,252.99 C111.377,253.05 111.287,253.08 111.191,253.08 L111.191,253.08 L104.783,253.08 C104.687,253.08 104.597,253.05 104.513,252.99 C104.429,252.93 104.387,252.816 104.387,252.648 L104.387,252.648 L104.063,252.648 L104.063,254.718 L104.387,254.718 C104.387,254.61 104.429,254.532 104.513,254.484 C104.597,254.436 104.687,254.412 104.783,254.412 L104.783,254.412 L107.123,254.412 L107.123,260.406 C107.123,260.502 107.093,260.571 107.033,260.613 C106.973,260.655 106.913,260.676 106.853,260.676 L106.853,260.676 L106.853,261 L109.175,261 Z M124.763,261 C125.291,261 125.744,260.943 126.122,260.829 C126.5,260.715 126.806,260.562 127.04,260.37 C127.274,260.178 127.445,259.956 127.553,259.704 C127.661,259.452 127.715,259.182 127.715,258.894 C127.715,258.642 127.673,258.408 127.589,258.192 C127.505,257.976 127.397,257.784 127.265,257.616 C127.133,257.448 126.983,257.304 126.815,257.184 C126.647,257.064 126.479,256.968 126.311,256.896 L126.311,256.896 L126.311,256.878 C126.455,256.806 126.596,256.71 126.734,256.59 C126.872,256.47 126.998,256.335 127.112,256.185 C127.226,256.035 127.319,255.867 127.391,255.681 C127.463,255.495 127.499,255.294 127.499,255.078 C127.499,254.814 127.445,254.562 127.337,254.322 C127.229,254.082 127.064,253.869 126.842,253.683 C126.62,253.497 126.344,253.35 126.014,253.242 C125.684,253.134 125.291,253.08 124.835,253.08 L124.835,253.08 L119.237,253.08 L119.237,253.404 C119.333,253.404 119.426,253.425 119.516,253.467 C119.606,253.509 119.651,253.578 119.651,253.674 L119.651,253.674 L119.651,260.406 C119.651,260.502 119.606,260.571 119.516,260.613 C119.426,260.655 119.333,260.676 119.237,260.676 L119.237,260.676 L119.237,261 L124.763,261 Z M124.583,256.212 L121.379,256.212 L121.379,254.412 L124.583,254.412 C124.727,254.412 124.871,254.421 125.015,254.439 C125.159,254.457 125.285,254.499 125.393,254.565 C125.501,254.631 125.591,254.721 125.663,254.835 C125.735,254.949 125.771,255.102 125.771,255.294 C125.771,255.666 125.645,255.912 125.393,256.032 C125.141,256.152 124.871,256.212 124.583,256.212 L124.583,256.212 Z M124.547,259.668 L121.379,259.668 L121.379,257.544 L124.259,257.544 C124.883,257.544 125.327,257.634 125.591,257.814 C125.855,257.994 125.987,258.27 125.987,258.642 C125.987,258.966 125.885,259.218 125.681,259.398 C125.477,259.578 125.099,259.668 124.547,259.668 L124.547,259.668 Z M137.885,261.198 L137.885,259.308 L137.561,259.308 C137.561,259.416 137.513,259.503 137.417,259.569 C137.321,259.635 137.201,259.668 137.057,259.668 L137.057,259.668 L132.449,259.668 L132.449,257.544 L135.077,257.544 C135.317,257.544 135.503,257.559 135.635,257.589 C135.767,257.619 135.815,257.7 135.779,257.832 L135.779,257.832 L136.139,257.832 L136.139,255.924 L135.815,255.924 C135.815,256.056 135.767,256.137 135.671,256.167 C135.575,256.197 135.425,256.212 135.221,256.212 L135.221,256.212 L132.449,256.212 L132.449,254.412 L136.841,254.412 C137.213,254.412 137.399,254.526 137.399,254.754 L137.399,254.754 L137.723,254.754 L137.723,252.756 L137.399,252.756 C137.399,252.972 137.213,253.08 136.841,253.08 L136.841,253.08 L130.451,253.08 L130.451,253.404 C130.511,253.404 130.571,253.425 130.631,253.467 C130.691,253.509 130.721,253.578 130.721,253.674 L130.721,253.674 L130.721,260.406 C130.721,260.502 130.691,260.571 130.631,260.613 C130.571,260.655 130.511,260.676 130.451,260.676 L130.451,260.676 L130.451,261 L137.057,261 C137.201,261 137.321,261.006 137.417,261.018 C137.513,261.03 137.561,261.09 137.561,261.198 L137.561,261.198 L137.885,261.198 Z M150.161,261 L150.161,260.676 C149.945,260.676 149.837,260.586 149.837,260.406 L149.837,260.406 L149.837,254.412 L152.177,254.412 C152.273,254.412 152.363,254.436 152.447,254.484 C152.531,254.532 152.573,254.61 152.573,254.718 L152.573,254.718 L152.897,254.718 L152.897,252.648 L152.573,252.648 C152.573,252.816 152.531,252.93 152.447,252.99 C152.363,253.05 152.273,253.08 152.177,253.08 L152.177,253.08 L145.769,253.08 C145.673,253.08 145.583,253.05 145.499,252.99 C145.415,252.93 145.373,252.816 145.373,252.648 L145.373,252.648 L145.049,252.648 L145.049,254.718 L145.373,254.718 C145.373,254.61 145.415,254.532 145.499,254.484 C145.583,254.436 145.673,254.412 145.769,254.412 L145.769,254.412 L148.109,254.412 L148.109,260.406 C148.109,260.502 148.079,260.571 148.019,260.613 C147.959,260.655 147.899,260.676 147.839,260.676 L147.839,260.676 L147.839,261 L150.161,261 Z M157.325,261 L157.325,260.676 C157.253,260.676 157.19,260.655 157.136,260.613 C157.082,260.571 157.055,260.502 157.055,260.406 L157.055,260.406 L157.055,257.688 L161.879,257.688 L161.879,260.406 C161.879,260.502 161.852,260.571 161.798,260.613 C161.744,260.655 161.681,260.676 161.609,260.676 L161.609,260.676 L161.609,261 L163.877,261 L163.877,260.676 C163.805,260.676 163.742,260.655 163.688,260.613 C163.634,260.571 163.607,260.502 163.607,260.406 L163.607,260.406 L163.607,253.674 C163.607,253.578 163.634,253.509 163.688,253.467 C163.742,253.425 163.805,253.404 163.877,253.404 L163.877,253.404 L163.877,253.08 L161.609,253.08 L161.609,253.404 C161.681,253.404 161.744,253.425 161.798,253.467 C161.852,253.509 161.879,253.578 161.879,253.674 L161.879,253.674 L161.879,256.212 L157.055,256.212 L157.055,253.674 C157.055,253.578 157.082,253.509 157.136,253.467 C157.19,253.425 157.253,253.404 157.325,253.404 L157.325,253.404 L157.325,253.08 L155.057,253.08 L155.057,253.404 C155.129,253.404 155.192,253.425 155.246,253.467 C155.3,253.509 155.327,253.578 155.327,253.674 L155.327,253.674 L155.327,260.406 C155.327,260.502 155.3,260.571 155.246,260.613 C155.192,260.655 155.129,260.676 155.057,260.676 L155.057,260.676 L155.057,261 L157.325,261 Z M174.389,261.198 L174.389,259.308 L174.065,259.308 C174.065,259.416 174.017,259.503 173.921,259.569 C173.825,259.635 173.705,259.668 173.561,259.668 L173.561,259.668 L168.953,259.668 L168.953,257.544 L171.581,257.544 C171.821,257.544 172.007,257.559 172.139,257.589 C172.271,257.619 172.319,257.7 172.283,257.832 L172.283,257.832 L172.643,257.832 L172.643,255.924 L172.319,255.924 C172.319,256.056 172.271,256.137 172.175,256.167 C172.079,256.197 171.929,256.212 171.725,256.212 L171.725,256.212 L168.953,256.212 L168.953,254.412 L173.345,254.412 C173.717,254.412 173.903,254.526 173.903,254.754 L173.903,254.754 L174.227,254.754 L174.227,252.756 L173.903,252.756 C173.903,252.972 173.717,253.08 173.345,253.08 L173.345,253.08 L166.955,253.08 L166.955,253.404 C167.015,253.404 167.075,253.425 167.135,253.467 C167.195,253.509 167.225,253.578 167.225,253.674 L167.225,253.674 L167.225,260.406 C167.225,260.502 167.195,260.571 167.135,260.613 C167.075,260.655 167.015,260.676 166.955,260.676 L166.955,260.676 L166.955,261 L173.561,261 C173.705,261 173.825,261.006 173.921,261.018 C174.017,261.03 174.065,261.09 174.065,261.198 L174.065,261.198 L174.389,261.198 Z M185.837,261.054 C186.245,261.054 186.68,261.024 187.142,260.964 C187.604,260.904 188.027,260.778 188.411,260.586 C188.795,260.394 189.116,260.13 189.374,259.794 C189.632,259.458 189.761,259.026 189.761,258.498 C189.761,257.97 189.614,257.556 189.32,257.256 C189.026,256.956 188.657,256.728 188.213,256.572 C187.769,256.416 187.289,256.305 186.773,256.239 C186.257,256.173 185.777,256.107 185.333,256.041 C184.889,255.975 184.52,255.885 184.226,255.771 C183.932,255.657 183.785,255.468 183.785,255.204 C183.785,255.036 183.833,254.895 183.929,254.781 C184.025,254.667 184.157,254.574 184.325,254.502 C184.493,254.43 184.685,254.379 184.901,254.349 C185.117,254.319 185.345,254.304 185.585,254.304 C186.209,254.304 186.773,254.376 187.277,254.52 C187.781,254.664 188.153,254.838 188.393,255.042 C188.489,255.114 188.543,255.186 188.555,255.258 L188.555,255.258 L188.591,255.474 L188.915,255.582 L189.815,253.89 L189.617,253.692 C189.545,253.728 189.485,253.761 189.437,253.791 C189.389,253.821 189.317,253.836 189.221,253.836 C189.137,253.836 189.008,253.791 188.834,253.701 C188.66,253.611 188.435,253.512 188.159,253.404 C187.883,253.296 187.544,253.197 187.142,253.107 C186.74,253.017 186.257,252.972 185.693,252.972 C184.541,252.972 183.647,253.2 183.011,253.656 C182.375,254.112 182.057,254.724 182.057,255.492 C182.057,256.008 182.204,256.407 182.498,256.689 C182.792,256.971 183.161,257.187 183.605,257.337 C184.049,257.487 184.529,257.595 185.045,257.661 C185.561,257.727 186.041,257.793 186.485,257.859 C186.929,257.925 187.298,258.018 187.592,258.138 C187.886,258.258 188.033,258.45 188.033,258.714 C188.033,258.942 187.949,259.125 187.781,259.263 C187.613,259.401 187.409,259.509 187.169,259.587 C186.929,259.665 186.686,259.716 186.44,259.74 C186.194,259.764 185.987,259.776 185.819,259.776 C185.639,259.776 185.39,259.746 185.072,259.686 C184.754,259.626 184.436,259.545 184.118,259.443 C183.8,259.341 183.527,259.215 183.299,259.065 C183.071,258.915 182.957,258.75 182.957,258.57 C182.957,258.51 182.96,258.453 182.966,258.399 C182.972,258.345 182.975,258.294 182.975,258.246 L182.975,258.246 L182.633,258.156 L181.805,260.172 L182.057,260.352 C182.117,260.28 182.189,260.244 182.273,260.244 C182.321,260.244 182.459,260.289 182.687,260.379 C182.915,260.469 183.194,260.565 183.524,260.667 C183.854,260.769 184.22,260.859 184.622,260.937 C185.024,261.015 185.429,261.054 185.837,261.054 Z M194.747,261 L194.747,260.676 C194.495,260.676 194.369,260.586 194.369,260.406 L194.369,260.406 L194.369,257.706 L197.429,257.706 C198.401,257.706 199.13,257.541 199.616,257.211 C200.102,256.881 200.345,256.284 200.345,255.42 C200.345,254.556 200.102,253.95 199.616,253.602 C199.13,253.254 198.401,253.08 197.429,253.08 L197.429,253.08 L192.191,253.08 L192.191,253.404 C192.491,253.404 192.641,253.494 192.641,253.674 L192.641,253.674 L192.641,260.406 C192.641,260.586 192.491,260.676 192.191,260.676 L192.191,260.676 L192.191,261 L194.747,261 Z M197.393,256.374 L194.369,256.374 L194.369,254.412 L197.393,254.412 C197.741,254.412 198.032,254.487 198.266,254.637 C198.5,254.787 198.617,255.048 198.617,255.42 C198.617,255.804 198.5,256.059 198.266,256.185 C198.032,256.311 197.741,256.374 197.393,256.374 L197.393,256.374 Z M205.349,261 L205.349,260.676 C205.013,260.676 204.845,260.586 204.845,260.406 L204.845,260.406 L204.845,253.674 C204.845,253.494 205.013,253.404 205.349,253.404 L205.349,253.404 L205.349,253.08 L202.613,253.08 L202.613,253.404 C202.805,253.404 202.937,253.425 203.009,253.467 C203.081,253.509 203.117,253.578 203.117,253.674 L203.117,253.674 L203.117,260.406 C203.117,260.502 203.081,260.571 203.009,260.613 C202.937,260.655 202.805,260.676 202.613,260.676 L202.613,260.676 L202.613,261 L205.349,261 Z M212.063,261.054 C212.603,261.054 213.092,261.006 213.53,260.91 C213.968,260.814 214.352,260.697 214.682,260.559 C215.012,260.421 215.285,260.298 215.501,260.19 C215.717,260.082 215.873,260.028 215.969,260.028 C216.029,260.028 216.131,260.058 216.275,260.118 L216.275,260.118 L216.455,260.028 L215.123,258.12 L214.925,258.3 C214.937,258.348 214.943,258.408 214.943,258.48 L214.943,258.48 L214.943,258.624 C214.943,258.732 214.856,258.852 214.682,258.984 C214.508,259.116 214.283,259.239 214.007,259.353 C213.731,259.467 213.425,259.566 213.089,259.65 C212.753,259.734 212.423,259.776 212.099,259.776 C211.751,259.776 211.409,259.713 211.073,259.587 C210.737,259.461 210.437,259.275 210.173,259.029 C209.909,258.783 209.696,258.489 209.534,258.147 C209.372,257.805 209.291,257.418 209.291,256.986 C209.291,256.554 209.363,256.17 209.507,255.834 C209.651,255.498 209.855,255.216 210.119,254.988 C210.383,254.76 210.692,254.589 211.046,254.475 C211.4,254.361 211.793,254.304 212.225,254.304 C212.585,254.304 212.915,254.337 213.215,254.403 C213.515,254.469 213.776,254.55 213.998,254.646 C214.22,254.742 214.391,254.841 214.511,254.943 C214.631,255.045 214.691,255.126 214.691,255.186 C214.691,255.222 214.694,255.252 214.7,255.276 C214.706,255.3 214.709,255.324 214.709,255.348 L214.709,255.348 L214.907,255.492 L216.095,253.782 L215.879,253.656 C215.831,253.68 215.786,253.71 215.744,253.746 C215.702,253.782 215.651,253.8 215.591,253.8 C215.507,253.8 215.369,253.758 215.177,253.674 C214.985,253.59 214.745,253.494 214.457,253.386 C214.169,253.278 213.836,253.182 213.458,253.098 C213.08,253.014 212.663,252.972 212.207,252.972 C211.619,252.972 211.046,253.056 210.488,253.224 C209.93,253.392 209.435,253.647 209.003,253.989 C208.571,254.331 208.223,254.754 207.959,255.258 C207.695,255.762 207.563,256.35 207.563,257.022 C207.563,257.694 207.695,258.285 207.959,258.795 C208.223,259.305 208.565,259.731 208.985,260.073 C209.405,260.415 209.885,260.664 210.425,260.82 C210.965,260.976 211.511,261.054 212.063,261.054 Z M225.905,261.198 L225.905,259.308 L225.581,259.308 C225.581,259.416 225.533,259.503 225.437,259.569 C225.341,259.635 225.221,259.668 225.077,259.668 L225.077,259.668 L220.469,259.668 L220.469,257.544 L223.097,257.544 C223.337,257.544 223.523,257.559 223.655,257.589 C223.787,257.619 223.835,257.7 223.799,257.832 L223.799,257.832 L224.159,257.832 L224.159,255.924 L223.835,255.924 C223.835,256.056 223.787,256.137 223.691,256.167 C223.595,256.197 223.445,256.212 223.241,256.212 L223.241,256.212 L220.469,256.212 L220.469,254.412 L224.861,254.412 C225.233,254.412 225.419,254.526 225.419,254.754 L225.419,254.754 L225.743,254.754 L225.743,252.756 L225.419,252.756 C225.419,252.972 225.233,253.08 224.861,253.08 L224.861,253.08 L218.471,253.08 L218.471,253.404 C218.531,253.404 218.591,253.425 218.651,253.467 C218.711,253.509 218.741,253.578 218.741,253.674 L218.741,253.674 L218.741,260.406 C218.741,260.502 218.711,260.571 218.651,260.613 C218.591,260.655 218.531,260.676 218.471,260.676 L218.471,260.676 L218.471,261 L225.077,261 C225.221,261 225.341,261.006 225.437,261.018 C225.533,261.03 225.581,261.09 225.581,261.198 L225.581,261.198 L225.905,261.198 Z M37.607,279 L37.607,278.676 C37.499,278.676 37.403,278.655 37.319,278.613 C37.235,278.571 37.193,278.502 37.193,278.406 L37.193,278.406 L37.193,275.652 L40.361,275.652 C40.565,275.652 40.691,275.676 40.739,275.724 C40.787,275.772 40.817,275.844 40.829,275.94 L40.829,275.94 L41.153,275.94 L41.153,274.05 L40.829,274.05 C40.817,274.146 40.787,274.215 40.739,274.257 C40.691,274.299 40.565,274.32 40.361,274.32 L40.361,274.32 L37.193,274.32 L37.193,272.412 L42.071,272.412 C42.275,272.412 42.419,272.439 42.503,272.493 C42.587,272.547 42.629,272.604 42.629,272.664 L42.629,272.664 L42.953,272.664 L42.953,270.756 L42.629,270.756 C42.629,270.852 42.587,270.93 42.503,270.99 C42.419,271.05 42.275,271.08 42.071,271.08 L42.071,271.08 L35.087,271.08 L35.087,271.404 C35.339,271.404 35.465,271.494 35.465,271.674 L35.465,271.674 L35.465,278.406 C35.465,278.586 35.351,278.676 35.123,278.676 L35.123,278.676 L35.123,279 L37.607,279 Z M47.543,279 L47.543,278.676 C47.471,278.676 47.396,278.655 47.318,278.613 C47.24,278.571 47.201,278.502 47.201,278.406 L47.201,278.406 L47.201,275.832 L49.703,275.832 L51.125,277.956 C51.305,278.208 51.395,278.394 51.395,278.514 C51.395,278.622 51.317,278.676 51.161,278.676 L51.161,278.676 L51.161,279 L53.915,279 L53.915,278.676 C53.783,278.64 53.66,278.589 53.546,278.523 C53.432,278.457 53.327,278.358 53.231,278.226 L53.231,278.226 L51.467,275.652 C51.719,275.592 51.965,275.505 52.205,275.391 C52.445,275.277 52.664,275.127 52.862,274.941 C53.06,274.755 53.219,274.536 53.339,274.284 C53.459,274.032 53.519,273.744 53.519,273.42 C53.519,272.568 53.219,271.965 52.619,271.611 C52.019,271.257 51.185,271.08 50.117,271.08 L50.117,271.08 L45.149,271.08 L45.149,271.404 C45.365,271.404 45.473,271.494 45.473,271.674 L45.473,271.674 L45.473,278.406 C45.473,278.586 45.365,278.676 45.149,278.676 L45.149,278.676 L45.149,279 L47.543,279 Z M50.081,274.5 L47.237,274.5 L47.237,272.412 L50.081,272.412 C50.693,272.412 51.14,272.499 51.422,272.673 C51.704,272.847 51.845,273.084 51.845,273.384 C51.845,274.128 51.257,274.5 50.081,274.5 L50.081,274.5 Z M60.233,279.054 C60.893,279.054 61.514,278.979 62.096,278.829 C62.678,278.679 63.185,278.436 63.617,278.1 C64.049,277.764 64.391,277.341 64.643,276.831 C64.895,276.321 65.021,275.724 65.021,275.04 C65.021,274.356 64.895,273.759 64.643,273.249 C64.391,272.739 64.049,272.316 63.617,271.98 C63.185,271.644 62.678,271.392 62.096,271.224 C61.514,271.056 60.893,270.972 60.233,270.972 C59.573,270.972 58.952,271.056 58.37,271.224 C57.788,271.392 57.281,271.644 56.849,271.98 C56.417,272.316 56.075,272.739 55.823,273.249 C55.571,273.759 55.445,274.356 55.445,275.04 C55.445,275.724 55.571,276.321 55.823,276.831 C56.075,277.341 56.417,277.764 56.849,278.1 C57.281,278.436 57.788,278.679 58.37,278.829 C58.952,278.979 59.573,279.054 60.233,279.054 Z M60.233,277.776 C59.849,277.776 59.474,277.713 59.108,277.587 C58.742,277.461 58.415,277.281 58.127,277.047 C57.839,276.813 57.608,276.528 57.434,276.192 C57.26,275.856 57.173,275.472 57.173,275.04 C57.173,274.608 57.26,274.224 57.434,273.888 C57.608,273.552 57.839,273.267 58.127,273.033 C58.415,272.799 58.742,272.619 59.108,272.493 C59.474,272.367 59.849,272.304 60.233,272.304 C60.617,272.304 60.992,272.367 61.358,272.493 C61.724,272.619 62.051,272.799 62.339,273.033 C62.627,273.267 62.858,273.552 63.032,273.888 C63.206,274.224 63.293,274.608 63.293,275.04 C63.293,275.472 63.206,275.856 63.032,276.192 C62.858,276.528 62.627,276.813 62.339,277.047 C62.051,277.281 61.724,277.461 61.358,277.587 C60.992,277.713 60.617,277.776 60.233,277.776 Z M69.449,279 L69.449,278.676 C69.245,278.676 69.143,278.586 69.143,278.406 L69.143,278.406 L69.143,273.348 L69.161,273.348 L72.059,279 L72.203,279 L75.263,273.348 L75.299,273.348 L75.299,278.406 C75.335,278.586 75.227,278.676 74.975,278.676 L74.975,278.676 L74.975,279 L77.063,279 L77.063,278.676 C77.003,278.676 76.946,278.655 76.892,278.613 C76.838,278.571 76.811,278.502 76.811,278.406 L76.811,278.406 L76.811,271.638 C76.811,271.542 76.838,271.479 76.892,271.449 C76.946,271.419 77.003,271.404 77.063,271.404 L77.063,271.404 L77.063,271.08 L74.525,271.08 L74.525,271.404 C74.621,271.404 74.669,271.458 74.669,271.566 C74.669,271.602 74.645,271.665 74.597,271.755 C74.549,271.845 74.483,271.962 74.399,272.106 L74.399,272.106 L72.185,276.138 L69.989,272.088 C69.905,271.944 69.842,271.833 69.8,271.755 C69.758,271.677 69.737,271.614 69.737,271.566 C69.737,271.458 69.797,271.404 69.917,271.404 L69.917,271.404 L69.917,271.08 L67.415,271.08 L67.415,271.404 C67.499,271.404 67.556,271.422 67.586,271.458 C67.616,271.494 67.631,271.596 67.631,271.764 L67.631,271.764 L67.631,278.352 C67.631,278.484 67.61,278.568 67.568,278.604 C67.526,278.64 67.475,278.664 67.415,278.676 L67.415,278.676 L67.415,279 L69.449,279 Z M87.935,279 L87.935,278.676 C87.731,278.676 87.629,278.586 87.629,278.406 L87.629,278.406 L87.629,273.348 L87.647,273.348 L90.545,279 L90.689,279 L93.749,273.348 L93.785,273.348 L93.785,278.406 C93.821,278.586 93.713,278.676 93.461,278.676 L93.461,278.676 L93.461,279 L95.549,279 L95.549,278.676 C95.489,278.676 95.432,278.655 95.378,278.613 C95.324,278.571 95.297,278.502 95.297,278.406 L95.297,278.406 L95.297,271.638 C95.297,271.542 95.324,271.479 95.378,271.449 C95.432,271.419 95.489,271.404 95.549,271.404 L95.549,271.404 L95.549,271.08 L93.011,271.08 L93.011,271.404 C93.107,271.404 93.155,271.458 93.155,271.566 C93.155,271.602 93.131,271.665 93.083,271.755 C93.035,271.845 92.969,271.962 92.885,272.106 L92.885,272.106 L90.671,276.138 L88.475,272.088 C88.391,271.944 88.328,271.833 88.286,271.755 C88.244,271.677 88.223,271.614 88.223,271.566 C88.223,271.458 88.283,271.404 88.403,271.404 L88.403,271.404 L88.403,271.08 L85.901,271.08 L85.901,271.404 C85.985,271.404 86.042,271.422 86.072,271.458 C86.102,271.494 86.117,271.596 86.117,271.764 L86.117,271.764 L86.117,278.352 C86.117,278.484 86.096,278.568 86.054,278.604 C86.012,278.64 85.961,278.664 85.901,278.676 L85.901,278.676 L85.901,279 L87.935,279 Z M103.433,279 L103.433,278.676 C103.205,278.676 103.091,278.586 103.091,278.406 L103.091,278.406 L103.091,275.706 L105.845,272.142 C105.977,271.974 106.13,271.809 106.304,271.647 C106.478,271.485 106.637,271.404 106.781,271.404 L106.781,271.404 L106.781,271.08 L104.027,271.08 L104.027,271.404 C104.087,271.404 104.147,271.416 104.207,271.44 C104.267,271.464 104.297,271.524 104.297,271.62 C104.297,271.692 104.27,271.767 104.216,271.845 C104.162,271.923 104.081,272.04 103.973,272.196 L103.973,272.196 L102.371,274.428 L100.553,272.052 C100.493,271.968 100.439,271.896 100.391,271.836 C100.343,271.776 100.319,271.71 100.319,271.638 C100.319,271.566 100.355,271.509 100.427,271.467 C100.499,271.425 100.565,271.404 100.625,271.404 L100.625,271.404 L100.625,271.08 L97.655,271.08 L97.655,271.404 C97.763,271.404 97.877,271.428 97.997,271.476 C98.117,271.524 98.219,271.602 98.303,271.71 L98.303,271.71 L101.363,275.634 L101.363,278.406 C101.363,278.586 101.255,278.676 101.039,278.676 L101.039,278.676 L101.039,279 L103.433,279 Z M118.409,279 L118.409,278.676 C118.193,278.676 118.085,278.586 118.085,278.406 L118.085,278.406 L118.085,272.412 L120.425,272.412 C120.521,272.412 120.611,272.436 120.695,272.484 C120.779,272.532 120.821,272.61 120.821,272.718 L120.821,272.718 L121.145,272.718 L121.145,270.648 L120.821,270.648 C120.821,270.816 120.779,270.93 120.695,270.99 C120.611,271.05 120.521,271.08 120.425,271.08 L120.425,271.08 L114.017,271.08 C113.921,271.08 113.831,271.05 113.747,270.99 C113.663,270.93 113.621,270.816 113.621,270.648 L113.621,270.648 L113.297,270.648 L113.297,272.718 L113.621,272.718 C113.621,272.61 113.663,272.532 113.747,272.484 C113.831,272.436 113.921,272.412 114.017,272.412 L114.017,272.412 L116.357,272.412 L116.357,278.406 C116.357,278.502 116.327,278.571 116.267,278.613 C116.207,278.655 116.147,278.676 116.087,278.676 L116.087,278.676 L116.087,279 L118.409,279 Z M124.403,279 L124.403,278.676 C124.295,278.676 124.211,278.664 124.151,278.64 C124.091,278.616 124.061,278.556 124.061,278.46 C124.061,278.4 124.076,278.331 124.106,278.253 C124.136,278.175 124.175,278.088 124.223,277.992 L124.223,277.992 L124.727,277.02 L128.579,277.02 L129.065,278.046 C129.101,278.142 129.131,278.22 129.155,278.28 C129.179,278.34 129.191,278.406 129.191,278.478 C129.191,278.574 129.158,278.64 129.092,278.676 C129.026,278.712 128.963,278.73 128.903,278.73 L128.903,278.73 L128.903,279 L131.459,279 L131.459,278.676 C131.375,278.652 131.297,278.616 131.225,278.568 C131.153,278.52 131.087,278.442 131.027,278.334 L131.027,278.334 L128.111,272.214 C128.051,272.082 127.994,271.965 127.94,271.863 C127.886,271.761 127.859,271.674 127.859,271.602 C127.859,271.518 127.88,271.47 127.922,271.458 C127.964,271.446 128.003,271.428 128.039,271.404 L128.039,271.404 L128.039,271.08 L125.321,271.08 L125.321,271.404 C125.357,271.428 125.39,271.449 125.42,271.467 C125.45,271.485 125.465,271.53 125.465,271.602 C125.465,271.698 125.444,271.797 125.402,271.899 C125.36,272.001 125.303,272.136 125.231,272.304 L125.231,272.304 L122.549,278.154 C122.501,278.25 122.432,278.355 122.342,278.469 C122.252,278.583 122.135,278.652 121.991,278.676 L121.991,278.676 L121.991,279 L124.403,279 Z M128.003,275.688 L125.267,275.688 L126.545,272.664 L128.003,275.688 Z M135.419,279 L135.419,278.676 C135.191,278.676 135.077,278.586 135.077,278.406 L135.077,278.406 L135.077,276.39 L136.481,275.274 L138.695,277.974 C138.851,278.154 138.956,278.286 139.01,278.37 C139.064,278.454 139.091,278.52 139.091,278.568 C139.091,278.64 139.025,278.676 138.893,278.676 L138.893,278.676 L138.893,279 L141.557,279 L141.557,278.676 C141.389,278.628 141.221,278.511 141.053,278.325 C140.885,278.139 140.729,277.956 140.585,277.776 L140.585,277.776 L137.741,274.248 L140.747,271.818 C141.035,271.59 141.251,271.452 141.395,271.404 L141.395,271.404 L141.395,271.08 L138.425,271.08 L138.425,271.35 C138.485,271.35 138.548,271.368 138.614,271.404 C138.68,271.44 138.713,271.488 138.713,271.548 C138.713,271.596 138.599,271.719 138.371,271.917 C138.143,272.115 137.855,272.358 137.507,272.646 C137.159,272.934 136.769,273.249 136.337,273.591 C135.905,273.933 135.485,274.272 135.077,274.608 L135.077,274.608 L135.077,271.674 C135.077,271.494 135.191,271.404 135.419,271.404 L135.419,271.404 L135.419,271.08 L133.061,271.08 L133.061,271.404 C133.253,271.404 133.349,271.494 133.349,271.674 L133.349,271.674 L133.349,278.406 C133.349,278.586 133.253,278.676 133.061,278.676 L133.061,278.676 L133.061,279 L135.419,279 Z M150.647,279.198 L150.647,277.308 L150.323,277.308 C150.323,277.416 150.275,277.503 150.179,277.569 C150.083,277.635 149.963,277.668 149.819,277.668 L149.819,277.668 L145.211,277.668 L145.211,275.544 L147.839,275.544 C148.079,275.544 148.265,275.559 148.397,275.589 C148.529,275.619 148.577,275.7 148.541,275.832 L148.541,275.832 L148.901,275.832 L148.901,273.924 L148.577,273.924 C148.577,274.056 148.529,274.137 148.433,274.167 C148.337,274.197 148.187,274.212 147.983,274.212 L147.983,274.212 L145.211,274.212 L145.211,272.412 L149.603,272.412 C149.975,272.412 150.161,272.526 150.161,272.754 L150.161,272.754 L150.485,272.754 L150.485,270.756 L150.161,270.756 C150.161,270.972 149.975,271.08 149.603,271.08 L149.603,271.08 L143.213,271.08 L143.213,271.404 C143.273,271.404 143.333,271.425 143.393,271.467 C143.453,271.509 143.483,271.578 143.483,271.674 L143.483,271.674 L143.483,278.406 C143.483,278.502 143.453,278.571 143.393,278.613 C143.333,278.655 143.273,278.676 143.213,278.676 L143.213,278.676 L143.213,279 L149.819,279 C149.963,279 150.083,279.006 150.179,279.018 C150.275,279.03 150.323,279.09 150.323,279.198 L150.323,279.198 L150.647,279.198 Z M157.235,279.054 C157.895,279.054 158.516,278.979 159.098,278.829 C159.68,278.679 160.187,278.436 160.619,278.1 C161.051,277.764 161.393,277.341 161.645,276.831 C161.897,276.321 162.023,275.724 162.023,275.04 C162.023,274.356 161.897,273.759 161.645,273.249 C161.393,272.739 161.051,272.316 160.619,271.98 C160.187,271.644 159.68,271.392 159.098,271.224 C158.516,271.056 157.895,270.972 157.235,270.972 C156.575,270.972 155.954,271.056 155.372,271.224 C154.79,271.392 154.283,271.644 153.851,271.98 C153.419,272.316 153.077,272.739 152.825,273.249 C152.573,273.759 152.447,274.356 152.447,275.04 C152.447,275.724 152.573,276.321 152.825,276.831 C153.077,277.341 153.419,277.764 153.851,278.1 C154.283,278.436 154.79,278.679 155.372,278.829 C155.954,278.979 156.575,279.054 157.235,279.054 Z M157.235,277.776 C156.851,277.776 156.476,277.713 156.11,277.587 C155.744,277.461 155.417,277.281 155.129,277.047 C154.841,276.813 154.61,276.528 154.436,276.192 C154.262,275.856 154.175,275.472 154.175,275.04 C154.175,274.608 154.262,274.224 154.436,273.888 C154.61,273.552 154.841,273.267 155.129,273.033 C155.417,272.799 155.744,272.619 156.11,272.493 C156.476,272.367 156.851,272.304 157.235,272.304 C157.619,272.304 157.994,272.367 158.36,272.493 C158.726,272.619 159.053,272.799 159.341,273.033 C159.629,273.267 159.86,273.552 160.034,273.888 C160.208,274.224 160.295,274.608 160.295,275.04 C160.295,275.472 160.208,275.856 160.034,276.192 C159.86,276.528 159.629,276.813 159.341,277.047 C159.053,277.281 158.726,277.461 158.36,277.587 C157.994,277.713 157.619,277.776 157.235,277.776 Z M168.809,279.054 C169.529,279.054 170.156,278.979 170.69,278.829 C171.224,278.679 171.662,278.472 172.004,278.208 C172.346,277.944 172.601,277.641 172.769,277.299 C172.937,276.957 173.021,276.6 173.021,276.228 L173.021,276.228 L173.021,271.674 C173.021,271.494 173.153,271.404 173.417,271.404 L173.417,271.404 L173.417,271.08 L170.915,271.08 L170.915,271.404 C171.215,271.404 171.365,271.494 171.365,271.674 L171.365,271.674 L171.365,275.796 C171.365,276.372 171.155,276.834 170.735,277.182 C170.315,277.53 169.673,277.704 168.809,277.704 C167.945,277.704 167.303,277.53 166.883,277.182 C166.463,276.834 166.253,276.372 166.253,275.796 L166.253,275.796 L166.253,271.674 C166.253,271.494 166.385,271.404 166.649,271.404 L166.649,271.404 L166.649,271.08 L164.075,271.08 L164.075,271.404 C164.279,271.404 164.417,271.425 164.489,271.467 C164.561,271.509 164.597,271.578 164.597,271.674 L164.597,271.674 L164.597,276.228 C164.597,276.6 164.681,276.957 164.849,277.299 C165.017,277.641 165.272,277.944 165.614,278.208 C165.956,278.472 166.394,278.679 166.928,278.829 C167.462,278.979 168.089,279.054 168.809,279.054 Z M180.437,279 L180.437,278.676 C180.221,278.676 180.113,278.586 180.113,278.406 L180.113,278.406 L180.113,272.412 L182.453,272.412 C182.549,272.412 182.639,272.436 182.723,272.484 C182.807,272.532 182.849,272.61 182.849,272.718 L182.849,272.718 L183.173,272.718 L183.173,270.648 L182.849,270.648 C182.849,270.816 182.807,270.93 182.723,270.99 C182.639,271.05 182.549,271.08 182.453,271.08 L182.453,271.08 L176.045,271.08 C175.949,271.08 175.859,271.05 175.775,270.99 C175.691,270.93 175.649,270.816 175.649,270.648 L175.649,270.648 L175.325,270.648 L175.325,272.718 L175.649,272.718 C175.649,272.61 175.691,272.532 175.775,272.484 C175.859,272.436 175.949,272.412 176.045,272.412 L176.045,272.412 L178.385,272.412 L178.385,278.406 C178.385,278.502 178.355,278.571 178.295,278.613 C178.235,278.655 178.175,278.676 178.115,278.676 L178.115,278.676 L178.115,279 L180.437,279 Z M198.491,279.18 L198.491,277.29 L198.167,277.29 C198.167,277.41 198.119,277.503 198.023,277.569 C197.927,277.635 197.807,277.668 197.663,277.668 L197.663,277.668 L192.803,277.668 L192.803,271.674 C192.803,271.494 192.941,271.404 193.217,271.404 L193.217,271.404 L193.217,271.08 L190.607,271.08 L190.607,271.404 C190.919,271.404 191.075,271.494 191.075,271.674 L191.075,271.674 L191.075,278.406 C191.075,278.586 190.919,278.676 190.607,278.676 L190.607,278.676 L190.607,279 L197.663,279 C197.807,279 197.927,279.006 198.023,279.018 C198.119,279.03 198.167,279.084 198.167,279.18 L198.167,279.18 L198.491,279.18 Z M201.929,279 L201.929,278.676 C201.821,278.676 201.737,278.664 201.677,278.64 C201.617,278.616 201.587,278.556 201.587,278.46 C201.587,278.4 201.602,278.331 201.632,278.253 C201.662,278.175 201.701,278.088 201.749,277.992 L201.749,277.992 L202.253,277.02 L206.105,277.02 L206.591,278.046 C206.627,278.142 206.657,278.22 206.681,278.28 C206.705,278.34 206.717,278.406 206.717,278.478 C206.717,278.574 206.684,278.64 206.618,278.676 C206.552,278.712 206.489,278.73 206.429,278.73 L206.429,278.73 L206.429,279 L208.985,279 L208.985,278.676 C208.901,278.652 208.823,278.616 208.751,278.568 C208.679,278.52 208.613,278.442 208.553,278.334 L208.553,278.334 L205.637,272.214 C205.577,272.082 205.52,271.965 205.466,271.863 C205.412,271.761 205.385,271.674 205.385,271.602 C205.385,271.518 205.406,271.47 205.448,271.458 C205.49,271.446 205.529,271.428 205.565,271.404 L205.565,271.404 L205.565,271.08 L202.847,271.08 L202.847,271.404 C202.883,271.428 202.916,271.449 202.946,271.467 C202.976,271.485 202.991,271.53 202.991,271.602 C202.991,271.698 202.97,271.797 202.928,271.899 C202.886,272.001 202.829,272.136 202.757,272.304 L202.757,272.304 L200.075,278.154 C200.027,278.25 199.958,278.355 199.868,278.469 C199.778,278.583 199.661,278.652 199.517,278.676 L199.517,278.676 L199.517,279 L201.929,279 Z M205.529,275.688 L202.793,275.688 L204.071,272.664 L205.529,275.688 Z M214.115,279.054 C214.523,279.054 214.958,279.024 215.42,278.964 C215.882,278.904 216.305,278.778 216.689,278.586 C217.073,278.394 217.394,278.13 217.652,277.794 C217.91,277.458 218.039,277.026 218.039,276.498 C218.039,275.97 217.892,275.556 217.598,275.256 C217.304,274.956 216.935,274.728 216.491,274.572 C216.047,274.416 215.567,274.305 215.051,274.239 C214.535,274.173 214.055,274.107 213.611,274.041 C213.167,273.975 212.798,273.885 212.504,273.771 C212.21,273.657 212.063,273.468 212.063,273.204 C212.063,273.036 212.111,272.895 212.207,272.781 C212.303,272.667 212.435,272.574 212.603,272.502 C212.771,272.43 212.963,272.379 213.179,272.349 C213.395,272.319 213.623,272.304 213.863,272.304 C214.487,272.304 215.051,272.376 215.555,272.52 C216.059,272.664 216.431,272.838 216.671,273.042 C216.767,273.114 216.821,273.186 216.833,273.258 L216.833,273.258 L216.869,273.474 L217.193,273.582 L218.093,271.89 L217.895,271.692 C217.823,271.728 217.763,271.761 217.715,271.791 C217.667,271.821 217.595,271.836 217.499,271.836 C217.415,271.836 217.286,271.791 217.112,271.701 C216.938,271.611 216.713,271.512 216.437,271.404 C216.161,271.296 215.822,271.197 215.42,271.107 C215.018,271.017 214.535,270.972 213.971,270.972 C212.819,270.972 211.925,271.2 211.289,271.656 C210.653,272.112 210.335,272.724 210.335,273.492 C210.335,274.008 210.482,274.407 210.776,274.689 C211.07,274.971 211.439,275.187 211.883,275.337 C212.327,275.487 212.807,275.595 213.323,275.661 C213.839,275.727 214.319,275.793 214.763,275.859 C215.207,275.925 215.576,276.018 215.87,276.138 C216.164,276.258 216.311,276.45 216.311,276.714 C216.311,276.942 216.227,277.125 216.059,277.263 C215.891,277.401 215.687,277.509 215.447,277.587 C215.207,277.665 214.964,277.716 214.718,277.74 C214.472,277.764 214.265,277.776 214.097,277.776 C213.917,277.776 213.668,277.746 213.35,277.686 C213.032,277.626 212.714,277.545 212.396,277.443 C212.078,277.341 211.805,277.215 211.577,277.065 C211.349,276.915 211.235,276.75 211.235,276.57 C211.235,276.51 211.238,276.453 211.244,276.399 C211.25,276.345 211.253,276.294 211.253,276.246 L211.253,276.246 L210.911,276.156 L210.083,278.172 L210.335,278.352 C210.395,278.28 210.467,278.244 210.551,278.244 C210.599,278.244 210.737,278.289 210.965,278.379 C211.193,278.469 211.472,278.565 211.802,278.667 C212.132,278.769 212.498,278.859 212.9,278.937 C213.302,279.015 213.707,279.054 214.115,279.054 Z M224.951,279 L224.951,278.676 C224.735,278.676 224.627,278.586 224.627,278.406 L224.627,278.406 L224.627,272.412 L226.967,272.412 C227.063,272.412 227.153,272.436 227.237,272.484 C227.321,272.532 227.363,272.61 227.363,272.718 L227.363,272.718 L227.687,272.718 L227.687,270.648 L227.363,270.648 C227.363,270.816 227.321,270.93 227.237,270.99 C227.153,271.05 227.063,271.08 226.967,271.08 L226.967,271.08 L220.559,271.08 C220.463,271.08 220.373,271.05 220.289,270.99 C220.205,270.93 220.163,270.816 220.163,270.648 L220.163,270.648 L219.839,270.648 L219.839,272.718 L220.163,272.718 C220.163,272.61 220.205,272.532 220.289,272.484 C220.373,272.436 220.463,272.412 220.559,272.412 L220.559,272.412 L222.899,272.412 L222.899,278.406 C222.899,278.502 222.869,278.571 222.809,278.613 C222.749,278.655 222.689,278.676 222.629,278.676 L222.629,278.676 L222.629,279 L224.951,279 Z M105.674,297 L105.674,296.676 C105.422,296.676 105.296,296.586 105.296,296.406 L105.296,296.406 L105.296,291.168 L109.76,295.92 C109.904,296.076 110.033,296.214 110.147,296.334 C110.261,296.454 110.318,296.538 110.318,296.586 C110.318,296.646 110.276,296.676 110.192,296.676 L110.192,296.676 L110.192,297 L112.532,297 L112.532,296.676 C112.316,296.676 112.208,296.586 112.208,296.406 L112.208,296.406 L112.208,289.674 C112.208,289.494 112.316,289.404 112.532,289.404 L112.532,289.404 L112.532,289.08 L110.336,289.08 L110.336,289.404 C110.576,289.404 110.696,289.494 110.696,289.674 L110.696,289.674 L110.696,294.552 L106.376,289.98 C106.112,289.716 105.98,289.554 105.98,289.494 C105.98,289.446 106.022,289.416 106.106,289.404 L106.106,289.404 L106.106,289.08 L103.46,289.08 L103.46,289.404 C103.676,289.404 103.784,289.494 103.784,289.674 L103.784,289.674 L103.784,296.406 C103.784,296.586 103.676,296.676 103.46,296.676 L103.46,296.676 L103.46,297 L105.674,297 Z M118.364,297 L118.364,296.676 C118.028,296.676 117.86,296.586 117.86,296.406 L117.86,296.406 L117.86,289.674 C117.86,289.494 118.028,289.404 118.364,289.404 L118.364,289.404 L118.364,289.08 L115.628,289.08 L115.628,289.404 C115.82,289.404 115.952,289.425 116.024,289.467 C116.096,289.509 116.132,289.578 116.132,289.674 L116.132,289.674 L116.132,296.406 C116.132,296.502 116.096,296.571 116.024,296.613 C115.952,296.655 115.82,296.676 115.628,296.676 L115.628,296.676 L115.628,297 L118.364,297 Z M125.69,297.054 C126.266,297.054 126.788,297.015 127.256,296.937 C127.724,296.859 128.135,296.76 128.489,296.64 C128.843,296.52 129.137,296.397 129.371,296.271 C129.605,296.145 129.776,296.046 129.884,295.974 L129.884,295.974 L129.884,295.758 C129.764,295.71 129.689,295.665 129.659,295.623 C129.629,295.581 129.614,295.506 129.614,295.398 L129.614,295.398 L129.614,293.688 C129.614,293.568 129.632,293.478 129.668,293.418 C129.704,293.358 129.776,293.304 129.884,293.256 L129.884,293.256 L129.884,292.932 L126.356,292.932 C126.224,292.932 126.11,292.914 126.014,292.878 C125.918,292.842 125.858,292.764 125.834,292.644 L125.834,292.644 L125.51,292.644 L125.51,294.498 L125.834,294.498 C125.858,294.354 125.918,294.255 126.014,294.201 C126.11,294.147 126.224,294.12 126.356,294.12 L126.356,294.12 L128.21,294.12 L128.21,295.254 C127.826,295.458 127.403,295.596 126.941,295.668 C126.479,295.74 125.99,295.776 125.474,295.776 C125.126,295.776 124.766,295.728 124.394,295.632 C124.022,295.536 123.683,295.383 123.377,295.173 C123.071,294.963 122.822,294.687 122.63,294.345 C122.438,294.003 122.342,293.58 122.342,293.076 C122.342,292.572 122.432,292.146 122.612,291.798 C122.792,291.45 123.032,291.165 123.332,290.943 C123.632,290.721 123.98,290.559 124.376,290.457 C124.772,290.355 125.192,290.304 125.636,290.304 C125.96,290.304 126.281,290.337 126.599,290.403 C126.917,290.469 127.202,290.556 127.454,290.664 C127.706,290.772 127.91,290.889 128.066,291.015 C128.222,291.141 128.3,291.258 128.3,291.366 C128.3,291.378 128.288,291.444 128.264,291.564 L128.264,291.564 L128.48,291.69 L129.524,289.728 L129.308,289.62 C129.236,289.68 129.176,289.719 129.128,289.737 C129.08,289.755 129.008,289.764 128.912,289.764 C128.828,289.764 128.702,289.722 128.534,289.638 C128.366,289.554 128.144,289.464 127.868,289.368 C127.604,289.272 127.292,289.182 126.932,289.098 C126.572,289.014 126.158,288.972 125.69,288.972 C124.91,288.972 124.205,289.065 123.575,289.251 C122.945,289.437 122.411,289.707 121.973,290.061 C121.535,290.415 121.199,290.841 120.965,291.339 C120.731,291.837 120.614,292.404 120.614,293.04 C120.614,293.676 120.731,294.243 120.965,294.741 C121.199,295.239 121.535,295.662 121.973,296.01 C122.411,296.358 122.945,296.619 123.575,296.793 C124.205,296.967 124.91,297.054 125.69,297.054 Z M134.852,297 L134.852,296.676 C134.78,296.676 134.717,296.655 134.663,296.613 C134.609,296.571 134.582,296.502 134.582,296.406 L134.582,296.406 L134.582,293.688 L139.406,293.688 L139.406,296.406 C139.406,296.502 139.379,296.571 139.325,296.613 C139.271,296.655 139.208,296.676 139.136,296.676 L139.136,296.676 L139.136,297 L141.404,297 L141.404,296.676 C141.332,296.676 141.269,296.655 141.215,296.613 C141.161,296.571 141.134,296.502 141.134,296.406 L141.134,296.406 L141.134,289.674 C141.134,289.578 141.161,289.509 141.215,289.467 C141.269,289.425 141.332,289.404 141.404,289.404 L141.404,289.404 L141.404,289.08 L139.136,289.08 L139.136,289.404 C139.208,289.404 139.271,289.425 139.325,289.467 C139.379,289.509 139.406,289.578 139.406,289.674 L139.406,289.674 L139.406,292.212 L134.582,292.212 L134.582,289.674 C134.582,289.578 134.609,289.509 134.663,289.467 C134.717,289.425 134.78,289.404 134.852,289.404 L134.852,289.404 L134.852,289.08 L132.584,289.08 L132.584,289.404 C132.656,289.404 132.719,289.425 132.773,289.467 C132.827,289.509 132.854,289.578 132.854,289.674 L132.854,289.674 L132.854,296.406 C132.854,296.502 132.827,296.571 132.773,296.613 C132.719,296.655 132.656,296.676 132.584,296.676 L132.584,296.676 L132.584,297 L134.852,297 Z M148.694,297 L148.694,296.676 C148.478,296.676 148.37,296.586 148.37,296.406 L148.37,296.406 L148.37,290.412 L150.71,290.412 C150.806,290.412 150.896,290.436 150.98,290.484 C151.064,290.532 151.106,290.61 151.106,290.718 L151.106,290.718 L151.43,290.718 L151.43,288.648 L151.106,288.648 C151.106,288.816 151.064,288.93 150.98,288.99 C150.896,289.05 150.806,289.08 150.71,289.08 L150.71,289.08 L144.302,289.08 C144.206,289.08 144.116,289.05 144.032,288.99 C143.948,288.93 143.906,288.816 143.906,288.648 L143.906,288.648 L143.582,288.648 L143.582,290.718 L143.906,290.718 C143.906,290.61 143.948,290.532 144.032,290.484 C144.116,290.436 144.206,290.412 144.302,290.412 L144.302,290.412 L146.642,290.412 L146.642,296.406 C146.642,296.502 146.612,296.571 146.552,296.613 C146.492,296.655 146.432,296.676 146.372,296.676 L146.372,296.676 L146.372,297 L148.694,297 Z M157.19,293.724 L157.19,293.508 C157.082,293.508 157.004,293.463 156.956,293.373 C156.908,293.283 156.884,293.172 156.884,293.04 C156.884,292.764 156.992,292.506 157.208,292.266 C157.424,292.026 157.658,291.768 157.91,291.492 C158.174,291.216 158.411,290.913 158.621,290.583 C158.831,290.253 158.936,289.866 158.936,289.422 C158.936,289.062 158.861,288.741 158.711,288.459 C158.561,288.177 158.36,287.943 158.108,287.757 C157.856,287.571 157.571,287.427 157.253,287.325 C156.935,287.223 156.614,287.172 156.29,287.172 C155.786,287.172 155.378,287.232 155.066,287.352 C154.754,287.472 154.496,287.601 154.292,287.739 C154.088,287.877 153.923,288.006 153.797,288.126 C153.671,288.246 153.548,288.306 153.428,288.306 C153.416,288.306 153.35,288.294 153.23,288.27 L153.23,288.27 L153.068,288.432 L154.454,289.944 L154.616,289.818 C154.58,289.71 154.562,289.602 154.562,289.494 C154.562,289.422 154.595,289.329 154.661,289.215 C154.727,289.101 154.823,288.996 154.949,288.9 C155.075,288.804 155.231,288.72 155.417,288.648 C155.603,288.576 155.81,288.54 156.038,288.54 C156.35,288.54 156.611,288.633 156.821,288.819 C157.031,289.005 157.136,289.26 157.136,289.584 C157.136,289.86 157.058,290.103 156.902,290.313 C156.746,290.523 156.566,290.748 156.362,290.988 C156.17,291.216 155.987,291.48 155.813,291.78 C155.639,292.08 155.528,292.482 155.48,292.986 C155.456,293.19 155.417,293.328 155.363,293.4 C155.309,293.472 155.246,293.508 155.174,293.508 L155.174,293.508 L155.174,293.724 L157.19,293.724 Z M156.164,297.054 C156.476,297.054 156.746,296.949 156.974,296.739 C157.202,296.529 157.316,296.268 157.316,295.956 C157.316,295.644 157.202,295.374 156.974,295.146 C156.746,294.918 156.476,294.804 156.164,294.804 C155.852,294.804 155.582,294.918 155.354,295.146 C155.126,295.374 155.012,295.644 155.012,295.956 C155.012,296.268 155.126,296.529 155.354,296.739 C155.582,296.949 155.852,297.054 156.164,297.054 Z M58.19,315 L58.19,314.676 C57.962,314.676 57.848,314.61 57.848,314.478 C57.848,314.37 57.908,314.19 58.028,313.938 L58.028,313.938 L58.676,312.66 L63.068,312.66 L63.752,313.992 C63.848,314.184 63.896,314.34 63.896,314.46 C63.896,314.532 63.86,314.586 63.788,314.622 C63.716,314.658 63.656,314.676 63.608,314.676 L63.608,314.676 L63.608,315 L66.776,315 L66.776,314.676 C66.644,314.616 66.527,314.556 66.425,314.496 C66.323,314.436 66.242,314.34 66.182,314.208 L66.182,314.208 L62.438,306.882 C62.354,306.726 62.291,306.6 62.249,306.504 C62.207,306.408 62.186,306.312 62.186,306.216 C62.186,306.084 62.228,305.997 62.312,305.955 C62.396,305.913 62.48,305.88 62.564,305.856 L62.564,305.856 L62.564,305.532 L59.522,305.532 L59.522,305.856 C59.618,305.88 59.708,305.916 59.792,305.964 C59.876,306.012 59.918,306.096 59.918,306.216 C59.918,306.312 59.885,306.426 59.819,306.558 C59.753,306.69 59.678,306.834 59.594,306.99 L59.594,306.99 L56.264,313.992 C56.18,314.16 56.093,314.31 56.003,314.442 C55.913,314.574 55.79,314.652 55.634,314.676 L55.634,314.676 L55.634,315 L58.19,315 Z M62.42,311.328 L59.216,311.328 L60.908,307.98 L62.42,311.328 Z M73.544,315 C74.252,315 74.852,314.886 75.344,314.658 C75.836,314.43 76.238,314.133 76.55,313.767 C76.862,313.401 77.09,312.981 77.234,312.507 C77.378,312.033 77.45,311.544 77.45,311.04 C77.45,310.536 77.375,310.047 77.225,309.573 C77.075,309.099 76.841,308.679 76.523,308.313 C76.205,307.947 75.794,307.65 75.29,307.422 C74.786,307.194 74.18,307.08 73.472,307.08 L73.472,307.08 L68.468,307.08 L68.468,307.404 C68.744,307.404 68.882,307.494 68.882,307.674 L68.882,307.674 L68.882,314.406 C68.882,314.586 68.744,314.676 68.468,314.676 L68.468,314.676 L68.468,315 L73.544,315 Z M72.95,313.668 L70.61,313.668 L70.61,308.412 L72.95,308.412 C73.322,308.412 73.676,308.433 74.012,308.475 C74.348,308.517 74.642,308.625 74.894,308.799 C75.146,308.973 75.347,309.231 75.497,309.573 C75.647,309.915 75.722,310.386 75.722,310.986 C75.722,311.586 75.647,312.063 75.497,312.417 C75.347,312.771 75.146,313.041 74.894,313.227 C74.642,313.413 74.348,313.533 74.012,313.587 C73.676,313.641 73.322,313.668 72.95,313.668 L72.95,313.668 Z M84.542,315 C85.25,315 85.85,314.886 86.342,314.658 C86.834,314.43 87.236,314.133 87.548,313.767 C87.86,313.401 88.088,312.981 88.232,312.507 C88.376,312.033 88.448,311.544 88.448,311.04 C88.448,310.536 88.373,310.047 88.223,309.573 C88.073,309.099 87.839,308.679 87.521,308.313 C87.203,307.947 86.792,307.65 86.288,307.422 C85.784,307.194 85.178,307.08 84.47,307.08 L84.47,307.08 L79.466,307.08 L79.466,307.404 C79.742,307.404 79.88,307.494 79.88,307.674 L79.88,307.674 L79.88,314.406 C79.88,314.586 79.742,314.676 79.466,314.676 L79.466,314.676 L79.466,315 L84.542,315 Z M83.948,313.668 L81.608,313.668 L81.608,308.412 L83.948,308.412 C84.32,308.412 84.674,308.433 85.01,308.475 C85.346,308.517 85.64,308.625 85.892,308.799 C86.144,308.973 86.345,309.231 86.495,309.573 C86.645,309.915 86.72,310.386 86.72,310.986 C86.72,311.586 86.645,312.063 86.495,312.417 C86.345,312.771 86.144,313.041 85.892,313.227 C85.64,313.413 85.346,313.533 85.01,313.587 C84.674,313.641 84.32,313.668 83.948,313.668 L83.948,313.668 Z M100.436,315 L100.436,314.676 C100.22,314.676 100.112,314.586 100.112,314.406 L100.112,314.406 L100.112,308.412 L102.452,308.412 C102.548,308.412 102.638,308.436 102.722,308.484 C102.806,308.532 102.848,308.61 102.848,308.718 L102.848,308.718 L103.172,308.718 L103.172,306.648 L102.848,306.648 C102.848,306.816 102.806,306.93 102.722,306.99 C102.638,307.05 102.548,307.08 102.452,307.08 L102.452,307.08 L96.044,307.08 C95.948,307.08 95.858,307.05 95.774,306.99 C95.69,306.93 95.648,306.816 95.648,306.648 L95.648,306.648 L95.324,306.648 L95.324,308.718 L95.648,308.718 C95.648,308.61 95.69,308.532 95.774,308.484 C95.858,308.436 95.948,308.412 96.044,308.412 L96.044,308.412 L98.384,308.412 L98.384,314.406 C98.384,314.502 98.354,314.571 98.294,314.613 C98.234,314.655 98.174,314.676 98.114,314.676 L98.114,314.676 L98.114,315 L100.436,315 Z M107.6,315 L107.6,314.676 C107.528,314.676 107.465,314.655 107.411,314.613 C107.357,314.571 107.33,314.502 107.33,314.406 L107.33,314.406 L107.33,311.688 L112.154,311.688 L112.154,314.406 C112.154,314.502 112.127,314.571 112.073,314.613 C112.019,314.655 111.956,314.676 111.884,314.676 L111.884,314.676 L111.884,315 L114.152,315 L114.152,314.676 C114.08,314.676 114.017,314.655 113.963,314.613 C113.909,314.571 113.882,314.502 113.882,314.406 L113.882,314.406 L113.882,307.674 C113.882,307.578 113.909,307.509 113.963,307.467 C114.017,307.425 114.08,307.404 114.152,307.404 L114.152,307.404 L114.152,307.08 L111.884,307.08 L111.884,307.404 C111.956,307.404 112.019,307.425 112.073,307.467 C112.127,307.509 112.154,307.578 112.154,307.674 L112.154,307.674 L112.154,310.212 L107.33,310.212 L107.33,307.674 C107.33,307.578 107.357,307.509 107.411,307.467 C107.465,307.425 107.528,307.404 107.6,307.404 L107.6,307.404 L107.6,307.08 L105.332,307.08 L105.332,307.404 C105.404,307.404 105.467,307.425 105.521,307.467 C105.575,307.509 105.602,307.578 105.602,307.674 L105.602,307.674 L105.602,314.406 C105.602,314.502 105.575,314.571 105.521,314.613 C105.467,314.655 105.404,314.676 105.332,314.676 L105.332,314.676 L105.332,315 L107.6,315 Z M120.11,315 L120.11,314.676 C119.774,314.676 119.606,314.586 119.606,314.406 L119.606,314.406 L119.606,307.674 C119.606,307.494 119.774,307.404 120.11,307.404 L120.11,307.404 L120.11,307.08 L117.374,307.08 L117.374,307.404 C117.566,307.404 117.698,307.425 117.77,307.467 C117.842,307.509 117.878,307.578 117.878,307.674 L117.878,307.674 L117.878,314.406 C117.878,314.502 117.842,314.571 117.77,314.613 C117.698,314.655 117.566,314.676 117.374,314.676 L117.374,314.676 L117.374,315 L120.11,315 Z M126.608,315.054 C127.016,315.054 127.451,315.024 127.913,314.964 C128.375,314.904 128.798,314.778 129.182,314.586 C129.566,314.394 129.887,314.13 130.145,313.794 C130.403,313.458 130.532,313.026 130.532,312.498 C130.532,311.97 130.385,311.556 130.091,311.256 C129.797,310.956 129.428,310.728 128.984,310.572 C128.54,310.416 128.06,310.305 127.544,310.239 C127.028,310.173 126.548,310.107 126.104,310.041 C125.66,309.975 125.291,309.885 124.997,309.771 C124.703,309.657 124.556,309.468 124.556,309.204 C124.556,309.036 124.604,308.895 124.7,308.781 C124.796,308.667 124.928,308.574 125.096,308.502 C125.264,308.43 125.456,308.379 125.672,308.349 C125.888,308.319 126.116,308.304 126.356,308.304 C126.98,308.304 127.544,308.376 128.048,308.52 C128.552,308.664 128.924,308.838 129.164,309.042 C129.26,309.114 129.314,309.186 129.326,309.258 L129.326,309.258 L129.362,309.474 L129.686,309.582 L130.586,307.89 L130.388,307.692 C130.316,307.728 130.256,307.761 130.208,307.791 C130.16,307.821 130.088,307.836 129.992,307.836 C129.908,307.836 129.779,307.791 129.605,307.701 C129.431,307.611 129.206,307.512 128.93,307.404 C128.654,307.296 128.315,307.197 127.913,307.107 C127.511,307.017 127.028,306.972 126.464,306.972 C125.312,306.972 124.418,307.2 123.782,307.656 C123.146,308.112 122.828,308.724 122.828,309.492 C122.828,310.008 122.975,310.407 123.269,310.689 C123.563,310.971 123.932,311.187 124.376,311.337 C124.82,311.487 125.3,311.595 125.816,311.661 C126.332,311.727 126.812,311.793 127.256,311.859 C127.7,311.925 128.069,312.018 128.363,312.138 C128.657,312.258 128.804,312.45 128.804,312.714 C128.804,312.942 128.72,313.125 128.552,313.263 C128.384,313.401 128.18,313.509 127.94,313.587 C127.7,313.665 127.457,313.716 127.211,313.74 C126.965,313.764 126.758,313.776 126.59,313.776 C126.41,313.776 126.161,313.746 125.843,313.686 C125.525,313.626 125.207,313.545 124.889,313.443 C124.571,313.341 124.298,313.215 124.07,313.065 C123.842,312.915 123.728,312.75 123.728,312.57 C123.728,312.51 123.731,312.453 123.737,312.399 C123.743,312.345 123.746,312.294 123.746,312.246 L123.746,312.246 L123.404,312.156 L122.576,314.172 L122.828,314.352 C122.888,314.28 122.96,314.244 123.044,314.244 C123.092,314.244 123.23,314.289 123.458,314.379 C123.686,314.469 123.965,314.565 124.295,314.667 C124.625,314.769 124.991,314.859 125.393,314.937 C125.795,315.015 126.2,315.054 126.608,315.054 Z M142.934,315 L142.934,314.676 C142.718,314.676 142.61,314.586 142.61,314.406 L142.61,314.406 L142.61,308.412 L144.95,308.412 C145.046,308.412 145.136,308.436 145.22,308.484 C145.304,308.532 145.346,308.61 145.346,308.718 L145.346,308.718 L145.67,308.718 L145.67,306.648 L145.346,306.648 C145.346,306.816 145.304,306.93 145.22,306.99 C145.136,307.05 145.046,307.08 144.95,307.08 L144.95,307.08 L138.542,307.08 C138.446,307.08 138.356,307.05 138.272,306.99 C138.188,306.93 138.146,306.816 138.146,306.648 L138.146,306.648 L137.822,306.648 L137.822,308.718 L138.146,308.718 C138.146,308.61 138.188,308.532 138.272,308.484 C138.356,308.436 138.446,308.412 138.542,308.412 L138.542,308.412 L140.882,308.412 L140.882,314.406 C140.882,314.502 140.852,314.571 140.792,314.613 C140.732,314.655 140.672,314.676 140.612,314.676 L140.612,314.676 L140.612,315 L142.934,315 Z M151.736,315.054 C152.396,315.054 153.017,314.979 153.599,314.829 C154.181,314.679 154.688,314.436 155.12,314.1 C155.552,313.764 155.894,313.341 156.146,312.831 C156.398,312.321 156.524,311.724 156.524,311.04 C156.524,310.356 156.398,309.759 156.146,309.249 C155.894,308.739 155.552,308.316 155.12,307.98 C154.688,307.644 154.181,307.392 153.599,307.224 C153.017,307.056 152.396,306.972 151.736,306.972 C151.076,306.972 150.455,307.056 149.873,307.224 C149.291,307.392 148.784,307.644 148.352,307.98 C147.92,308.316 147.578,308.739 147.326,309.249 C147.074,309.759 146.948,310.356 146.948,311.04 C146.948,311.724 147.074,312.321 147.326,312.831 C147.578,313.341 147.92,313.764 148.352,314.1 C148.784,314.436 149.291,314.679 149.873,314.829 C150.455,314.979 151.076,315.054 151.736,315.054 Z M151.736,313.776 C151.352,313.776 150.977,313.713 150.611,313.587 C150.245,313.461 149.918,313.281 149.63,313.047 C149.342,312.813 149.111,312.528 148.937,312.192 C148.763,311.856 148.676,311.472 148.676,311.04 C148.676,310.608 148.763,310.224 148.937,309.888 C149.111,309.552 149.342,309.267 149.63,309.033 C149.918,308.799 150.245,308.619 150.611,308.493 C150.977,308.367 151.352,308.304 151.736,308.304 C152.12,308.304 152.495,308.367 152.861,308.493 C153.227,308.619 153.554,308.799 153.842,309.033 C154.13,309.267 154.361,309.552 154.535,309.888 C154.709,310.224 154.796,310.608 154.796,311.04 C154.796,311.472 154.709,311.856 154.535,312.192 C154.361,312.528 154.13,312.813 153.842,313.047 C153.554,313.281 153.227,313.461 152.861,313.587 C152.495,313.713 152.12,313.776 151.736,313.776 Z M168.944,315 L168.944,314.676 C168.716,314.676 168.602,314.586 168.602,314.406 L168.602,314.406 L168.602,311.706 L171.356,308.142 C171.488,307.974 171.641,307.809 171.815,307.647 C171.989,307.485 172.148,307.404 172.292,307.404 L172.292,307.404 L172.292,307.08 L169.538,307.08 L169.538,307.404 C169.598,307.404 169.658,307.416 169.718,307.44 C169.778,307.464 169.808,307.524 169.808,307.62 C169.808,307.692 169.781,307.767 169.727,307.845 C169.673,307.923 169.592,308.04 169.484,308.196 L169.484,308.196 L167.882,310.428 L166.064,308.052 C166.004,307.968 165.95,307.896 165.902,307.836 C165.854,307.776 165.83,307.71 165.83,307.638 C165.83,307.566 165.866,307.509 165.938,307.467 C166.01,307.425 166.076,307.404 166.136,307.404 L166.136,307.404 L166.136,307.08 L163.166,307.08 L163.166,307.404 C163.274,307.404 163.388,307.428 163.508,307.476 C163.628,307.524 163.73,307.602 163.814,307.71 L163.814,307.71 L166.874,311.634 L166.874,314.406 C166.874,314.586 166.766,314.676 166.55,314.676 L166.55,314.676 L166.55,315 L168.944,315 Z M178.232,315.054 C178.892,315.054 179.513,314.979 180.095,314.829 C180.677,314.679 181.184,314.436 181.616,314.1 C182.048,313.764 182.39,313.341 182.642,312.831 C182.894,312.321 183.02,311.724 183.02,311.04 C183.02,310.356 182.894,309.759 182.642,309.249 C182.39,308.739 182.048,308.316 181.616,307.98 C181.184,307.644 180.677,307.392 180.095,307.224 C179.513,307.056 178.892,306.972 178.232,306.972 C177.572,306.972 176.951,307.056 176.369,307.224 C175.787,307.392 175.28,307.644 174.848,307.98 C174.416,308.316 174.074,308.739 173.822,309.249 C173.57,309.759 173.444,310.356 173.444,311.04 C173.444,311.724 173.57,312.321 173.822,312.831 C174.074,313.341 174.416,313.764 174.848,314.1 C175.28,314.436 175.787,314.679 176.369,314.829 C176.951,314.979 177.572,315.054 178.232,315.054 Z M178.232,313.776 C177.848,313.776 177.473,313.713 177.107,313.587 C176.741,313.461 176.414,313.281 176.126,313.047 C175.838,312.813 175.607,312.528 175.433,312.192 C175.259,311.856 175.172,311.472 175.172,311.04 C175.172,310.608 175.259,310.224 175.433,309.888 C175.607,309.552 175.838,309.267 176.126,309.033 C176.414,308.799 176.741,308.619 177.107,308.493 C177.473,308.367 177.848,308.304 178.232,308.304 C178.616,308.304 178.991,308.367 179.357,308.493 C179.723,308.619 180.05,308.799 180.338,309.033 C180.626,309.267 180.857,309.552 181.031,309.888 C181.205,310.224 181.292,310.608 181.292,311.04 C181.292,311.472 181.205,311.856 181.031,312.192 C180.857,312.528 180.626,312.813 180.338,313.047 C180.05,313.281 179.723,313.461 179.357,313.587 C178.991,313.713 178.616,313.776 178.232,313.776 Z M189.806,315.054 C190.526,315.054 191.153,314.979 191.687,314.829 C192.221,314.679 192.659,314.472 193.001,314.208 C193.343,313.944 193.598,313.641 193.766,313.299 C193.934,312.957 194.018,312.6 194.018,312.228 L194.018,312.228 L194.018,307.674 C194.018,307.494 194.15,307.404 194.414,307.404 L194.414,307.404 L194.414,307.08 L191.912,307.08 L191.912,307.404 C192.212,307.404 192.362,307.494 192.362,307.674 L192.362,307.674 L192.362,311.796 C192.362,312.372 192.152,312.834 191.732,313.182 C191.312,313.53 190.67,313.704 189.806,313.704 C188.942,313.704 188.3,313.53 187.88,313.182 C187.46,312.834 187.25,312.372 187.25,311.796 L187.25,311.796 L187.25,307.674 C187.25,307.494 187.382,307.404 187.646,307.404 L187.646,307.404 L187.646,307.08 L185.072,307.08 L185.072,307.404 C185.276,307.404 185.414,307.425 185.486,307.467 C185.558,307.509 185.594,307.578 185.594,307.674 L185.594,307.674 L185.594,312.228 C185.594,312.6 185.678,312.957 185.846,313.299 C186.014,313.641 186.269,313.944 186.611,314.208 C186.953,314.472 187.391,314.679 187.925,314.829 C188.459,314.979 189.086,315.054 189.806,315.054 Z M199.544,315 L199.544,314.676 C199.472,314.676 199.397,314.655 199.319,314.613 C199.241,314.571 199.202,314.502 199.202,314.406 L199.202,314.406 L199.202,311.832 L201.704,311.832 L203.126,313.956 C203.306,314.208 203.396,314.394 203.396,314.514 C203.396,314.622 203.318,314.676 203.162,314.676 L203.162,314.676 L203.162,315 L205.916,315 L205.916,314.676 C205.784,314.64 205.661,314.589 205.547,314.523 C205.433,314.457 205.328,314.358 205.232,314.226 L205.232,314.226 L203.468,311.652 C203.72,311.592 203.966,311.505 204.206,311.391 C204.446,311.277 204.665,311.127 204.863,310.941 C205.061,310.755 205.22,310.536 205.34,310.284 C205.46,310.032 205.52,309.744 205.52,309.42 C205.52,308.568 205.22,307.965 204.62,307.611 C204.02,307.257 203.186,307.08 202.118,307.08 L202.118,307.08 L197.15,307.08 L197.15,307.404 C197.366,307.404 197.474,307.494 197.474,307.674 L197.474,307.674 L197.474,314.406 C197.474,314.586 197.366,314.676 197.15,314.676 L197.15,314.676 L197.15,315 L199.544,315 Z M202.082,310.5 L199.238,310.5 L199.238,308.412 L202.082,308.412 C202.694,308.412 203.141,308.499 203.423,308.673 C203.705,308.847 203.846,309.084 203.846,309.384 C203.846,310.128 203.258,310.5 202.082,310.5 L202.082,310.5 Z M74.354,333.054 C74.762,333.054 75.197,333.024 75.659,332.964 C76.121,332.904 76.544,332.778 76.928,332.586 C77.312,332.394 77.633,332.13 77.891,331.794 C78.149,331.458 78.278,331.026 78.278,330.498 C78.278,329.97 78.131,329.556 77.837,329.256 C77.543,328.956 77.174,328.728 76.73,328.572 C76.286,328.416 75.806,328.305 75.29,328.239 C74.774,328.173 74.294,328.107 73.85,328.041 C73.406,327.975 73.037,327.885 72.743,327.771 C72.449,327.657 72.302,327.468 72.302,327.204 C72.302,327.036 72.35,326.895 72.446,326.781 C72.542,326.667 72.674,326.574 72.842,326.502 C73.01,326.43 73.202,326.379 73.418,326.349 C73.634,326.319 73.862,326.304 74.102,326.304 C74.726,326.304 75.29,326.376 75.794,326.52 C76.298,326.664 76.67,326.838 76.91,327.042 C77.006,327.114 77.06,327.186 77.072,327.258 L77.072,327.258 L77.108,327.474 L77.432,327.582 L78.332,325.89 L78.134,325.692 C78.062,325.728 78.002,325.761 77.954,325.791 C77.906,325.821 77.834,325.836 77.738,325.836 C77.654,325.836 77.525,325.791 77.351,325.701 C77.177,325.611 76.952,325.512 76.676,325.404 C76.4,325.296 76.061,325.197 75.659,325.107 C75.257,325.017 74.774,324.972 74.21,324.972 C73.058,324.972 72.164,325.2 71.528,325.656 C70.892,326.112 70.574,326.724 70.574,327.492 C70.574,328.008 70.721,328.407 71.015,328.689 C71.309,328.971 71.678,329.187 72.122,329.337 C72.566,329.487 73.046,329.595 73.562,329.661 C74.078,329.727 74.558,329.793 75.002,329.859 C75.446,329.925 75.815,330.018 76.109,330.138 C76.403,330.258 76.55,330.45 76.55,330.714 C76.55,330.942 76.466,331.125 76.298,331.263 C76.13,331.401 75.926,331.509 75.686,331.587 C75.446,331.665 75.203,331.716 74.957,331.74 C74.711,331.764 74.504,331.776 74.336,331.776 C74.156,331.776 73.907,331.746 73.589,331.686 C73.271,331.626 72.953,331.545 72.635,331.443 C72.317,331.341 72.044,331.215 71.816,331.065 C71.588,330.915 71.474,330.75 71.474,330.57 C71.474,330.51 71.477,330.453 71.483,330.399 C71.489,330.345 71.492,330.294 71.492,330.246 L71.492,330.246 L71.15,330.156 L70.322,332.172 L70.574,332.352 C70.634,332.28 70.706,332.244 70.79,332.244 C70.838,332.244 70.976,332.289 71.204,332.379 C71.432,332.469 71.711,332.565 72.041,332.667 C72.371,332.769 72.737,332.859 73.139,332.937 C73.541,333.015 73.946,333.054 74.354,333.054 Z M85.712,333 L85.712,332.676 C85.484,332.676 85.37,332.586 85.37,332.406 L85.37,332.406 L85.37,329.706 L88.124,326.142 C88.256,325.974 88.409,325.809 88.583,325.647 C88.757,325.485 88.916,325.404 89.06,325.404 L89.06,325.404 L89.06,325.08 L86.306,325.08 L86.306,325.404 C86.366,325.404 86.426,325.416 86.486,325.44 C86.546,325.464 86.576,325.524 86.576,325.62 C86.576,325.692 86.549,325.767 86.495,325.845 C86.441,325.923 86.36,326.04 86.252,326.196 L86.252,326.196 L84.65,328.428 L82.832,326.052 C82.772,325.968 82.718,325.896 82.67,325.836 C82.622,325.776 82.598,325.71 82.598,325.638 C82.598,325.566 82.634,325.509 82.706,325.467 C82.778,325.425 82.844,325.404 82.904,325.404 L82.904,325.404 L82.904,325.08 L79.934,325.08 L79.934,325.404 C80.042,325.404 80.156,325.428 80.276,325.476 C80.396,325.524 80.498,325.602 80.582,325.71 L80.582,325.71 L83.642,329.634 L83.642,332.406 C83.642,332.586 83.534,332.676 83.318,332.676 L83.318,332.676 L83.318,333 L85.712,333 Z M93.218,333 L93.218,332.676 C93.014,332.676 92.912,332.586 92.912,332.406 L92.912,332.406 L92.912,327.348 L92.93,327.348 L95.828,333 L95.972,333 L99.032,327.348 L99.068,327.348 L99.068,332.406 C99.104,332.586 98.996,332.676 98.744,332.676 L98.744,332.676 L98.744,333 L100.832,333 L100.832,332.676 C100.772,332.676 100.715,332.655 100.661,332.613 C100.607,332.571 100.58,332.502 100.58,332.406 L100.58,332.406 L100.58,325.638 C100.58,325.542 100.607,325.479 100.661,325.449 C100.715,325.419 100.772,325.404 100.832,325.404 L100.832,325.404 L100.832,325.08 L98.294,325.08 L98.294,325.404 C98.39,325.404 98.438,325.458 98.438,325.566 C98.438,325.602 98.414,325.665 98.366,325.755 C98.318,325.845 98.252,325.962 98.168,326.106 L98.168,326.106 L95.954,330.138 L93.758,326.088 C93.674,325.944 93.611,325.833 93.569,325.755 C93.527,325.677 93.506,325.614 93.506,325.566 C93.506,325.458 93.566,325.404 93.686,325.404 L93.686,325.404 L93.686,325.08 L91.184,325.08 L91.184,325.404 C91.268,325.404 91.325,325.422 91.355,325.458 C91.385,325.494 91.4,325.596 91.4,325.764 L91.4,325.764 L91.4,332.352 C91.4,332.484 91.379,332.568 91.337,332.604 C91.295,332.64 91.244,332.664 91.184,332.676 L91.184,332.676 L91.184,333 L93.218,333 Z M106.268,333 L106.268,332.676 C106.016,332.676 105.89,332.586 105.89,332.406 L105.89,332.406 L105.89,329.706 L108.95,329.706 C109.922,329.706 110.651,329.541 111.137,329.211 C111.623,328.881 111.866,328.284 111.866,327.42 C111.866,326.556 111.623,325.95 111.137,325.602 C110.651,325.254 109.922,325.08 108.95,325.08 L108.95,325.08 L103.712,325.08 L103.712,325.404 C104.012,325.404 104.162,325.494 104.162,325.674 L104.162,325.674 L104.162,332.406 C104.162,332.586 104.012,332.676 103.712,332.676 L103.712,332.676 L103.712,333 L106.268,333 Z M108.914,328.374 L105.89,328.374 L105.89,326.412 L108.914,326.412 C109.262,326.412 109.553,326.487 109.787,326.637 C110.021,326.787 110.138,327.048 110.138,327.42 C110.138,327.804 110.021,328.059 109.787,328.185 C109.553,328.311 109.262,328.374 108.914,328.374 L108.914,328.374 Z M118.202,333 L118.202,332.676 C117.986,332.676 117.878,332.586 117.878,332.406 L117.878,332.406 L117.878,326.412 L120.218,326.412 C120.314,326.412 120.404,326.436 120.488,326.484 C120.572,326.532 120.614,326.61 120.614,326.718 L120.614,326.718 L120.938,326.718 L120.938,324.648 L120.614,324.648 C120.614,324.816 120.572,324.93 120.488,324.99 C120.404,325.05 120.314,325.08 120.218,325.08 L120.218,325.08 L113.81,325.08 C113.714,325.08 113.624,325.05 113.54,324.99 C113.456,324.93 113.414,324.816 113.414,324.648 L113.414,324.648 L113.09,324.648 L113.09,326.718 L113.414,326.718 C113.414,326.61 113.456,326.532 113.54,326.484 C113.624,326.436 113.714,326.412 113.81,326.412 L113.81,326.412 L116.15,326.412 L116.15,332.406 C116.15,332.502 116.12,332.571 116.06,332.613 C116,332.655 115.94,332.676 115.88,332.676 L115.88,332.676 L115.88,333 L118.202,333 Z M127.004,333.054 C127.664,333.054 128.285,332.979 128.867,332.829 C129.449,332.679 129.956,332.436 130.388,332.1 C130.82,331.764 131.162,331.341 131.414,330.831 C131.666,330.321 131.792,329.724 131.792,329.04 C131.792,328.356 131.666,327.759 131.414,327.249 C131.162,326.739 130.82,326.316 130.388,325.98 C129.956,325.644 129.449,325.392 128.867,325.224 C128.285,325.056 127.664,324.972 127.004,324.972 C126.344,324.972 125.723,325.056 125.141,325.224 C124.559,325.392 124.052,325.644 123.62,325.98 C123.188,326.316 122.846,326.739 122.594,327.249 C122.342,327.759 122.216,328.356 122.216,329.04 C122.216,329.724 122.342,330.321 122.594,330.831 C122.846,331.341 123.188,331.764 123.62,332.1 C124.052,332.436 124.559,332.679 125.141,332.829 C125.723,332.979 126.344,333.054 127.004,333.054 Z M127.004,331.776 C126.62,331.776 126.245,331.713 125.879,331.587 C125.513,331.461 125.186,331.281 124.898,331.047 C124.61,330.813 124.379,330.528 124.205,330.192 C124.031,329.856 123.944,329.472 123.944,329.04 C123.944,328.608 124.031,328.224 124.205,327.888 C124.379,327.552 124.61,327.267 124.898,327.033 C125.186,326.799 125.513,326.619 125.879,326.493 C126.245,326.367 126.62,326.304 127.004,326.304 C127.388,326.304 127.763,326.367 128.129,326.493 C128.495,326.619 128.822,326.799 129.11,327.033 C129.398,327.267 129.629,327.552 129.803,327.888 C129.977,328.224 130.064,328.608 130.064,329.04 C130.064,329.472 129.977,329.856 129.803,330.192 C129.629,330.528 129.398,330.813 129.11,331.047 C128.822,331.281 128.495,331.461 128.129,331.587 C127.763,331.713 127.388,331.776 127.004,331.776 Z M136.22,333 L136.22,332.676 C136.016,332.676 135.914,332.586 135.914,332.406 L135.914,332.406 L135.914,327.348 L135.932,327.348 L138.83,333 L138.974,333 L142.034,327.348 L142.07,327.348 L142.07,332.406 C142.106,332.586 141.998,332.676 141.746,332.676 L141.746,332.676 L141.746,333 L143.834,333 L143.834,332.676 C143.774,332.676 143.717,332.655 143.663,332.613 C143.609,332.571 143.582,332.502 143.582,332.406 L143.582,332.406 L143.582,325.638 C143.582,325.542 143.609,325.479 143.663,325.449 C143.717,325.419 143.774,325.404 143.834,325.404 L143.834,325.404 L143.834,325.08 L141.296,325.08 L141.296,325.404 C141.392,325.404 141.44,325.458 141.44,325.566 C141.44,325.602 141.416,325.665 141.368,325.755 C141.32,325.845 141.254,325.962 141.17,326.106 L141.17,326.106 L138.956,330.138 L136.76,326.088 C136.676,325.944 136.613,325.833 136.571,325.755 C136.529,325.677 136.508,325.614 136.508,325.566 C136.508,325.458 136.568,325.404 136.688,325.404 L136.688,325.404 L136.688,325.08 L134.186,325.08 L134.186,325.404 C134.27,325.404 134.327,325.422 134.357,325.458 C134.387,325.494 134.402,325.596 134.402,325.764 L134.402,325.764 L134.402,332.352 C134.402,332.484 134.381,332.568 134.339,332.604 C134.297,332.64 134.246,332.664 134.186,332.676 L134.186,332.676 L134.186,333 L136.22,333 Z M154.76,333 L154.76,332.676 C154.508,332.676 154.382,332.586 154.382,332.406 L154.382,332.406 L154.382,329.706 L157.442,329.706 C158.414,329.706 159.143,329.541 159.629,329.211 C160.115,328.881 160.358,328.284 160.358,327.42 C160.358,326.556 160.115,325.95 159.629,325.602 C159.143,325.254 158.414,325.08 157.442,325.08 L157.442,325.08 L152.204,325.08 L152.204,325.404 C152.504,325.404 152.654,325.494 152.654,325.674 L152.654,325.674 L152.654,332.406 C152.654,332.586 152.504,332.676 152.204,332.676 L152.204,332.676 L152.204,333 L154.76,333 Z M157.406,328.374 L154.382,328.374 L154.382,326.412 L157.406,326.412 C157.754,326.412 158.045,326.487 158.279,326.637 C158.513,326.787 158.63,327.048 158.63,327.42 C158.63,327.804 158.513,328.059 158.279,328.185 C158.045,328.311 157.754,328.374 157.406,328.374 L157.406,328.374 Z M165.362,333 L165.362,332.676 C165.026,332.676 164.858,332.586 164.858,332.406 L164.858,332.406 L164.858,325.674 C164.858,325.494 165.026,325.404 165.362,325.404 L165.362,325.404 L165.362,325.08 L162.626,325.08 L162.626,325.404 C162.818,325.404 162.95,325.425 163.022,325.467 C163.094,325.509 163.13,325.578 163.13,325.674 L163.13,325.674 L163.13,332.406 C163.13,332.502 163.094,332.571 163.022,332.613 C162.95,332.655 162.818,332.676 162.626,332.676 L162.626,332.676 L162.626,333 L165.362,333 Z M176.252,333.18 L176.252,331.29 L175.928,331.29 C175.928,331.41 175.88,331.503 175.784,331.569 C175.688,331.635 175.568,331.668 175.424,331.668 L175.424,331.668 L170.564,331.668 L170.564,325.674 C170.564,325.494 170.702,325.404 170.978,325.404 L170.978,325.404 L170.978,325.08 L168.368,325.08 L168.368,325.404 C168.68,325.404 168.836,325.494 168.836,325.674 L168.836,325.674 L168.836,332.406 C168.836,332.586 168.68,332.676 168.368,332.676 L168.368,332.676 L168.368,333 L175.424,333 C175.568,333 175.688,333.006 175.784,333.018 C175.88,333.03 175.928,333.084 175.928,333.18 L175.928,333.18 L176.252,333.18 Z M185.918,333.198 L185.918,331.308 L185.594,331.308 C185.594,331.416 185.546,331.503 185.45,331.569 C185.354,331.635 185.234,331.668 185.09,331.668 L185.09,331.668 L180.482,331.668 L180.482,329.544 L183.11,329.544 C183.35,329.544 183.536,329.559 183.668,329.589 C183.8,329.619 183.848,329.7 183.812,329.832 L183.812,329.832 L184.172,329.832 L184.172,327.924 L183.848,327.924 C183.848,328.056 183.8,328.137 183.704,328.167 C183.608,328.197 183.458,328.212 183.254,328.212 L183.254,328.212 L180.482,328.212 L180.482,326.412 L184.874,326.412 C185.246,326.412 185.432,326.526 185.432,326.754 L185.432,326.754 L185.756,326.754 L185.756,324.756 L185.432,324.756 C185.432,324.972 185.246,325.08 184.874,325.08 L184.874,325.08 L178.484,325.08 L178.484,325.404 C178.544,325.404 178.604,325.425 178.664,325.467 C178.724,325.509 178.754,325.578 178.754,325.674 L178.754,325.674 L178.754,332.406 C178.754,332.502 178.724,332.571 178.664,332.613 C178.604,332.655 178.544,332.676 178.484,332.676 L178.484,332.676 L178.484,333 L185.09,333 C185.234,333 185.354,333.006 185.45,333.018 C185.546,333.03 185.594,333.09 185.594,333.198 L185.594,333.198 L185.918,333.198 Z M189.752,333.054 C190.1,333.054 190.4,332.937 190.652,332.703 C190.904,332.469 191.03,332.178 191.03,331.83 C191.03,331.482 190.904,331.182 190.652,330.93 C190.4,330.678 190.1,330.552 189.752,330.552 C189.404,330.552 189.104,330.678 188.852,330.93 C188.6,331.182 188.474,331.482 188.474,331.83 C188.474,332.178 188.6,332.469 188.852,332.703 C189.104,332.937 189.404,333.054 189.752,333.054 Z" id="Coulditbethespicefrommytakeoutlastnight?Addthistoyoursymptompile." fill="#000000" fill-rule="nonzero"></path>
    </g>
</svg>