<?xml version="1.0" encoding="UTF-8"?>
<svg width="262px" height="360px" viewBox="0 0 262 360" version="1.1" xmlns="http://www.w3.org/2000/svg" xmlns:xlink="http://www.w3.org/1999/xlink">
    <title>Sponge Mask</title>
    <g id="Sponge-Mask" stroke="none" stroke-width="1" fill="none" fill-rule="evenodd">
        <g id="Group" transform="translate(9.000000, 9.000000)" fill="#FFFFFF" stroke="#000000" stroke-width="3">
            <g id="Rectangle">
                <rect x="1.5" y="1.5" width="239" height="337" rx="8"></rect>
            </g>
        </g>
        <path d="M42.936,300 L42.936,299.712 C42.7333333,299.712 42.632,299.653333 42.632,299.536 C42.632,299.44 42.6853333,299.28 42.792,299.056 L42.792,299.056 L43.368,297.92 L47.272,297.92 L47.88,299.104 C47.9653333,299.274667 48.008,299.413333 48.008,299.52 C48.008,299.584 47.976,299.632 47.912,299.664 C47.848,299.696 47.7946667,299.712 47.752,299.712 L47.752,299.712 L47.752,300 L50.568,300 L50.568,299.712 C50.4506667,299.658667 50.3466667,299.605333 50.256,299.552 C50.1653333,299.498667 50.0933333,299.413333 50.04,299.296 L50.04,299.296 L46.712,292.784 C46.6373333,292.645333 46.5813333,292.533333 46.544,292.448 C46.5066667,292.362667 46.488,292.277333 46.488,292.192 C46.488,292.074667 46.5253333,291.997333 46.6,291.96 C46.6746667,291.922667 46.7493333,291.893333 46.824,291.872 L46.824,291.872 L46.824,291.584 L44.12,291.584 L44.12,291.872 C44.2053333,291.893333 44.2853333,291.925333 44.36,291.968 C44.4346667,292.010667 44.472,292.085333 44.472,292.192 C44.472,292.277333 44.4426667,292.378667 44.384,292.496 C44.3253333,292.613333 44.2586667,292.741333 44.184,292.88 L44.184,292.88 L41.224,299.104 C41.1493333,299.253333 41.072,299.386667 40.992,299.504 C40.912,299.621333 40.8026667,299.690667 40.664,299.712 L40.664,299.712 L40.664,300 L42.936,300 Z M46.696,296.736 L43.848,296.736 L45.352,293.76 L46.696,296.736 Z M57.032,300 C57.5013333,300 57.904,299.949333 58.24,299.848 C58.576,299.746667 58.848,299.610667 59.056,299.44 C59.264,299.269333 59.416,299.072 59.512,298.848 C59.608,298.624 59.656,298.384 59.656,298.128 C59.656,297.904 59.6186667,297.696 59.544,297.504 C59.4693333,297.312 59.3733333,297.141333 59.256,296.992 C59.1386667,296.842667 59.0053333,296.714667 58.856,296.608 C58.7066667,296.501333 58.5573333,296.416 58.408,296.352 L58.408,296.352 L58.408,296.336 C58.536,296.272 58.6613333,296.186667 58.784,296.08 C58.9066667,295.973333 59.0186667,295.853333 59.12,295.72 C59.2213333,295.586667 59.304,295.437333 59.368,295.272 C59.432,295.106667 59.464,294.928 59.464,294.736 C59.464,294.501333 59.416,294.277333 59.32,294.064 C59.224,293.850667 59.0773333,293.661333 58.88,293.496 C58.6826667,293.330667 58.4373333,293.2 58.144,293.104 C57.8506667,293.008 57.5013333,292.96 57.096,292.96 L57.096,292.96 L52.12,292.96 L52.12,293.248 C52.2053333,293.248 52.288,293.266667 52.368,293.304 C52.448,293.341333 52.488,293.402667 52.488,293.488 L52.488,293.488 L52.488,299.472 C52.488,299.557333 52.448,299.618667 52.368,299.656 C52.288,299.693333 52.2053333,299.712 52.12,299.712 L52.12,299.712 L52.12,300 L57.032,300 Z M56.872,295.744 L54.024,295.744 L54.024,294.144 L56.872,294.144 C57,294.144 57.128,294.152 57.256,294.168 C57.384,294.184 57.496,294.221333 57.592,294.28 C57.688,294.338667 57.768,294.418667 57.832,294.52 C57.896,294.621333 57.928,294.757333 57.928,294.928 C57.928,295.258667 57.816,295.477333 57.592,295.584 C57.368,295.690667 57.128,295.744 56.872,295.744 L56.872,295.744 Z M56.84,298.816 L54.024,298.816 L54.024,296.928 L56.584,296.928 C57.1386667,296.928 57.5333333,297.008 57.768,297.168 C58.0026667,297.328 58.12,297.573333 58.12,297.904 C58.12,298.192 58.0293333,298.416 57.848,298.576 C57.6666667,298.736 57.3306667,298.816 56.84,298.816 L56.84,298.816 Z M65.096,300.048 C65.4586667,300.048 65.8453333,300.021333 66.256,299.968 C66.6666667,299.914667 67.0426667,299.802667 67.384,299.632 C67.7253333,299.461333 68.0106667,299.226667 68.24,298.928 C68.4693333,298.629333 68.584,298.245333 68.584,297.776 C68.584,297.306667 68.4533333,296.938667 68.192,296.672 C67.9306667,296.405333 67.6026667,296.202667 67.208,296.064 C66.8133333,295.925333 66.3866667,295.826667 65.928,295.768 C65.4693333,295.709333 65.0426667,295.650667 64.648,295.592 C64.2533333,295.533333 63.9253333,295.453333 63.664,295.352 C63.4026667,295.250667 63.272,295.082667 63.272,294.848 C63.272,294.698667 63.3146667,294.573333 63.4,294.472 C63.4853333,294.370667 63.6026667,294.288 63.752,294.224 C63.9013333,294.16 64.072,294.114667 64.264,294.088 C64.456,294.061333 64.6586667,294.048 64.872,294.048 C65.4266667,294.048 65.928,294.112 66.376,294.24 C66.824,294.368 67.1546667,294.522667 67.368,294.704 C67.4533333,294.768 67.5013333,294.832 67.512,294.896 L67.512,294.896 L67.544,295.088 L67.832,295.184 L68.632,293.68 L68.456,293.504 C68.392,293.536 68.3386667,293.565333 68.296,293.592 C68.2533333,293.618667 68.1893333,293.632 68.104,293.632 C68.0293333,293.632 67.9146667,293.592 67.76,293.512 C67.6053333,293.432 67.4053333,293.344 67.16,293.248 C66.9146667,293.152 66.6133333,293.064 66.256,292.984 C65.8986667,292.904 65.4693333,292.864 64.968,292.864 C63.944,292.864 63.1493333,293.066667 62.584,293.472 C62.0186667,293.877333 61.736,294.421333 61.736,295.104 C61.736,295.562667 61.8666667,295.917333 62.128,296.168 C62.3893333,296.418667 62.7173333,296.610667 63.112,296.744 C63.5066667,296.877333 63.9333333,296.973333 64.392,297.032 C64.8506667,297.090667 65.2773333,297.149333 65.672,297.208 C66.0666667,297.266667 66.3946667,297.349333 66.656,297.456 C66.9173333,297.562667 67.048,297.733333 67.048,297.968 C67.048,298.170667 66.9733333,298.333333 66.824,298.456 C66.6746667,298.578667 66.4933333,298.674667 66.28,298.744 C66.0666667,298.813333 65.8506667,298.858667 65.632,298.88 C65.4133333,298.901333 65.2293333,298.912 65.08,298.912 C64.92,298.912 64.6986667,298.885333 64.416,298.832 C64.1333333,298.778667 63.8506667,298.706667 63.568,298.616 C63.2853333,298.525333 63.0426667,298.413333 62.84,298.28 C62.6373333,298.146667 62.536,298 62.536,297.84 C62.536,297.786667 62.5386667,297.736 62.544,297.688 C62.5493333,297.64 62.552,297.594667 62.552,297.552 L62.552,297.552 L62.248,297.472 L61.512,299.264 L61.736,299.424 C61.7893333,299.36 61.8533333,299.328 61.928,299.328 C61.9706667,299.328 62.0933333,299.368 62.296,299.448 C62.4986667,299.528 62.7466667,299.613333 63.04,299.704 C63.3333333,299.794667 63.6586667,299.874667 64.016,299.944 C64.3733333,300.013333 64.7333333,300.048 65.096,300.048 Z M74.552,300.048 C75.1386667,300.048 75.6906667,299.981333 76.208,299.848 C76.7253333,299.714667 77.176,299.498667 77.56,299.2 C77.944,298.901333 78.248,298.525333 78.472,298.072 C78.696,297.618667 78.808,297.088 78.808,296.48 C78.808,295.872 78.696,295.341333 78.472,294.888 C78.248,294.434667 77.944,294.058667 77.56,293.76 C77.176,293.461333 76.7253333,293.237333 76.208,293.088 C75.6906667,292.938667 75.1386667,292.864 74.552,292.864 C73.9653333,292.864 73.4133333,292.938667 72.896,293.088 C72.3786667,293.237333 71.928,293.461333 71.544,293.76 C71.16,294.058667 70.856,294.434667 70.632,294.888 C70.408,295.341333 70.296,295.872 70.296,296.48 C70.296,297.088 70.408,297.618667 70.632,298.072 C70.856,298.525333 71.16,298.901333 71.544,299.2 C71.928,299.498667 72.3786667,299.714667 72.896,299.848 C73.4133333,299.981333 73.9653333,300.048 74.552,300.048 Z M74.552,298.912 C74.2106667,298.912 73.8773333,298.856 73.552,298.744 C73.2266667,298.632 72.936,298.472 72.68,298.264 C72.424,298.056 72.2186667,297.802667 72.064,297.504 C71.9093333,297.205333 71.832,296.864 71.832,296.48 C71.832,296.096 71.9093333,295.754667 72.064,295.456 C72.2186667,295.157333 72.424,294.904 72.68,294.696 C72.936,294.488 73.2266667,294.328 73.552,294.216 C73.8773333,294.104 74.2106667,294.048 74.552,294.048 C74.8933333,294.048 75.2266667,294.104 75.552,294.216 C75.8773333,294.328 76.168,294.488 76.424,294.696 C76.68,294.904 76.8853333,295.157333 77.04,295.456 C77.1946667,295.754667 77.272,296.096 77.272,296.48 C77.272,296.864 77.1946667,297.205333 77.04,297.504 C76.8853333,297.802667 76.68,298.056 76.424,298.264 C76.168,298.472 75.8773333,298.632 75.552,298.744 C75.2266667,298.856 74.8933333,298.912 74.552,298.912 Z M82.824,300 L82.824,299.712 C82.76,299.712 82.6933333,299.693333 82.624,299.656 C82.5546667,299.618667 82.52,299.557333 82.52,299.472 L82.52,299.472 L82.52,297.184 L84.744,297.184 L86.008,299.072 C86.168,299.296 86.248,299.461333 86.248,299.568 C86.248,299.664 86.1786667,299.712 86.04,299.712 L86.04,299.712 L86.04,300 L88.488,300 L88.488,299.712 C88.3706667,299.68 88.2613333,299.634667 88.16,299.576 C88.0586667,299.517333 87.9653333,299.429333 87.88,299.312 L87.88,299.312 L86.312,297.024 C86.536,296.970667 86.7546667,296.893333 86.968,296.792 C87.1813333,296.690667 87.376,296.557333 87.552,296.392 C87.728,296.226667 87.8693333,296.032 87.976,295.808 C88.0826667,295.584 88.136,295.328 88.136,295.04 C88.136,294.282667 87.8693333,293.746667 87.336,293.432 C86.8026667,293.117333 86.0613333,292.96 85.112,292.96 L85.112,292.96 L80.696,292.96 L80.696,293.248 C80.888,293.248 80.984,293.328 80.984,293.488 L80.984,293.488 L80.984,299.472 C80.984,299.632 80.888,299.712 80.696,299.712 L80.696,299.712 L80.696,300 L82.824,300 Z M85.08,296 L82.552,296 L82.552,294.144 L85.08,294.144 C85.624,294.144 86.0213333,294.221333 86.272,294.376 C86.5226667,294.530667 86.648,294.741333 86.648,295.008 C86.648,295.669333 86.1253333,296 85.08,296 L85.08,296 Z M95.256,300 C95.7253333,300 96.128,299.949333 96.464,299.848 C96.8,299.746667 97.072,299.610667 97.28,299.44 C97.488,299.269333 97.64,299.072 97.736,298.848 C97.832,298.624 97.88,298.384 97.88,298.128 C97.88,297.904 97.8426667,297.696 97.768,297.504 C97.6933333,297.312 97.5973333,297.141333 97.48,296.992 C97.3626667,296.842667 97.2293333,296.714667 97.08,296.608 C96.9306667,296.501333 96.7813333,296.416 96.632,296.352 L96.632,296.352 L96.632,296.336 C96.76,296.272 96.8853333,296.186667 97.008,296.08 C97.1306667,295.973333 97.2426667,295.853333 97.344,295.72 C97.4453333,295.586667 97.528,295.437333 97.592,295.272 C97.656,295.106667 97.688,294.928 97.688,294.736 C97.688,294.501333 97.64,294.277333 97.544,294.064 C97.448,293.850667 97.3013333,293.661333 97.104,293.496 C96.9066667,293.330667 96.6613333,293.2 96.368,293.104 C96.0746667,293.008 95.7253333,292.96 95.32,292.96 L95.32,292.96 L90.344,292.96 L90.344,293.248 C90.4293333,293.248 90.512,293.266667 90.592,293.304 C90.672,293.341333 90.712,293.402667 90.712,293.488 L90.712,293.488 L90.712,299.472 C90.712,299.557333 90.672,299.618667 90.592,299.656 C90.512,299.693333 90.4293333,299.712 90.344,299.712 L90.344,299.712 L90.344,300 L95.256,300 Z M95.096,295.744 L92.248,295.744 L92.248,294.144 L95.096,294.144 C95.224,294.144 95.352,294.152 95.48,294.168 C95.608,294.184 95.72,294.221333 95.816,294.28 C95.912,294.338667 95.992,294.418667 96.056,294.52 C96.12,294.621333 96.152,294.757333 96.152,294.928 C96.152,295.258667 96.04,295.477333 95.816,295.584 C95.592,295.690667 95.352,295.744 95.096,295.744 L95.096,295.744 Z M95.064,298.816 L92.248,298.816 L92.248,296.928 L94.808,296.928 C95.3626667,296.928 95.7573333,297.008 95.992,297.168 C96.2266667,297.328 96.344,297.573333 96.344,297.904 C96.344,298.192 96.2533333,298.416 96.072,298.576 C95.8906667,298.736 95.5546667,298.816 95.064,298.816 L95.064,298.816 Z M106.264,300 L106.264,299.712 C106.168,299.712 106.093333,299.701333 106.04,299.68 C105.986667,299.658667 105.96,299.605333 105.96,299.52 C105.96,299.466667 105.973333,299.405333 106,299.336 C106.026667,299.266667 106.061333,299.189333 106.104,299.104 L106.104,299.104 L106.552,298.24 L109.976,298.24 L110.408,299.152 C110.44,299.237333 110.466667,299.306667 110.488,299.36 C110.509333,299.413333 110.52,299.472 110.52,299.536 C110.52,299.621333 110.490667,299.68 110.432,299.712 C110.373333,299.744 110.317333,299.76 110.264,299.76 L110.264,299.76 L110.264,300 L112.536,300 L112.536,299.712 C112.461333,299.690667 112.392,299.658667 112.328,299.616 C112.264,299.573333 112.205333,299.504 112.152,299.408 L112.152,299.408 L109.56,293.968 C109.506667,293.850667 109.456,293.746667 109.408,293.656 C109.36,293.565333 109.336,293.488 109.336,293.424 C109.336,293.349333 109.354667,293.306667 109.392,293.296 C109.429333,293.285333 109.464,293.269333 109.496,293.248 L109.496,293.248 L109.496,292.96 L107.08,292.96 L107.08,293.248 C107.112,293.269333 107.141333,293.288 107.168,293.304 C107.194667,293.32 107.208,293.36 107.208,293.424 C107.208,293.509333 107.189333,293.597333 107.152,293.688 C107.114667,293.778667 107.064,293.898667 107,294.048 L107,294.048 L104.616,299.248 C104.573333,299.333333 104.512,299.426667 104.432,299.528 C104.352,299.629333 104.248,299.690667 104.12,299.712 L104.12,299.712 L104.12,300 L106.264,300 Z M109.464,297.056 L107.032,297.056 L108.168,294.368 L109.464,297.056 Z M121,300.16 L121,298.48 L120.712,298.48 C120.712,298.586667 120.669333,298.669333 120.584,298.728 C120.498667,298.786667 120.392,298.816 120.264,298.816 L120.264,298.816 L115.944,298.816 L115.944,293.488 C115.944,293.328 116.066667,293.248 116.312,293.248 L116.312,293.248 L116.312,292.96 L113.992,292.96 L113.992,293.248 C114.269333,293.248 114.408,293.328 114.408,293.488 L114.408,293.488 L114.408,299.472 C114.408,299.632 114.269333,299.712 113.992,299.712 L113.992,299.712 L113.992,300 L120.264,300 C120.392,300 120.498667,300.005333 120.584,300.016 C120.669333,300.026667 120.712,300.074667 120.712,300.16 L120.712,300.16 L121,300.16 Z M129.896,300.16 L129.896,298.48 L129.608,298.48 C129.608,298.586667 129.565333,298.669333 129.48,298.728 C129.394667,298.786667 129.288,298.816 129.16,298.816 L129.16,298.816 L124.84,298.816 L124.84,293.488 C124.84,293.328 124.962667,293.248 125.208,293.248 L125.208,293.248 L125.208,292.96 L122.888,292.96 L122.888,293.248 C123.165333,293.248 123.304,293.328 123.304,293.488 L123.304,293.488 L123.304,299.472 C123.304,299.632 123.165333,299.712 122.888,299.712 L122.888,299.712 L122.888,300 L129.16,300 C129.288,300 129.394667,300.005333 129.48,300.016 C129.565333,300.026667 129.608,300.074667 129.608,300.16 L129.608,300.16 L129.896,300.16 Z M140.504,300 L140.504,299.712 C140.312,299.712 140.216,299.632 140.216,299.472 L140.216,299.472 L140.216,294.144 L142.296,294.144 C142.381333,294.144 142.461333,294.165333 142.536,294.208 C142.610667,294.250667 142.648,294.32 142.648,294.416 L142.648,294.416 L142.936,294.416 L142.936,292.576 L142.648,292.576 C142.648,292.725333 142.610667,292.826667 142.536,292.88 C142.461333,292.933333 142.381333,292.96 142.296,292.96 L142.296,292.96 L136.6,292.96 C136.514667,292.96 136.434667,292.933333 136.36,292.88 C136.285333,292.826667 136.248,292.725333 136.248,292.576 L136.248,292.576 L135.96,292.576 L135.96,294.416 L136.248,294.416 C136.248,294.32 136.285333,294.250667 136.36,294.208 C136.434667,294.165333 136.514667,294.144 136.6,294.144 L136.6,294.144 L138.68,294.144 L138.68,299.472 C138.68,299.557333 138.653333,299.618667 138.6,299.656 C138.546667,299.693333 138.493333,299.712 138.44,299.712 L138.44,299.712 L138.44,300 L140.504,300 Z M146.872,300 L146.872,299.712 C146.808,299.712 146.752,299.693333 146.704,299.656 C146.656,299.618667 146.632,299.557333 146.632,299.472 L146.632,299.472 L146.632,297.056 L150.92,297.056 L150.92,299.472 C150.92,299.557333 150.896,299.618667 150.848,299.656 C150.8,299.693333 150.744,299.712 150.68,299.712 L150.68,299.712 L150.68,300 L152.696,300 L152.696,299.712 C152.632,299.712 152.576,299.693333 152.528,299.656 C152.48,299.618667 152.456,299.557333 152.456,299.472 L152.456,299.472 L152.456,293.488 C152.456,293.402667 152.48,293.341333 152.528,293.304 C152.576,293.266667 152.632,293.248 152.696,293.248 L152.696,293.248 L152.696,292.96 L150.68,292.96 L150.68,293.248 C150.744,293.248 150.8,293.266667 150.848,293.304 C150.896,293.341333 150.92,293.402667 150.92,293.488 L150.92,293.488 L150.92,295.744 L146.632,295.744 L146.632,293.488 C146.632,293.402667 146.656,293.341333 146.704,293.304 C146.752,293.266667 146.808,293.248 146.872,293.248 L146.872,293.248 L146.872,292.96 L144.856,292.96 L144.856,293.248 C144.92,293.248 144.976,293.266667 145.024,293.304 C145.072,293.341333 145.096,293.402667 145.096,293.488 L145.096,293.488 L145.096,299.472 C145.096,299.557333 145.072,299.618667 145.024,299.656 C144.976,299.693333 144.92,299.712 144.856,299.712 L144.856,299.712 L144.856,300 L146.872,300 Z M162.04,300.176 L162.04,298.496 L161.752,298.496 C161.752,298.592 161.709333,298.669333 161.624,298.728 C161.538667,298.786667 161.432,298.816 161.304,298.816 L161.304,298.816 L157.208,298.816 L157.208,296.928 L159.544,296.928 C159.757333,296.928 159.922667,296.941333 160.04,296.968 C160.157333,296.994667 160.2,297.066667 160.168,297.184 L160.168,297.184 L160.488,297.184 L160.488,295.488 L160.2,295.488 C160.2,295.605333 160.157333,295.677333 160.072,295.704 C159.986667,295.730667 159.853333,295.744 159.672,295.744 L159.672,295.744 L157.208,295.744 L157.208,294.144 L161.112,294.144 C161.442667,294.144 161.608,294.245333 161.608,294.448 L161.608,294.448 L161.896,294.448 L161.896,292.672 L161.608,292.672 C161.608,292.864 161.442667,292.96 161.112,292.96 L161.112,292.96 L155.432,292.96 L155.432,293.248 C155.485333,293.248 155.538667,293.266667 155.592,293.304 C155.645333,293.341333 155.672,293.402667 155.672,293.488 L155.672,293.488 L155.672,299.472 C155.672,299.557333 155.645333,299.618667 155.592,299.656 C155.538667,299.693333 155.485333,299.712 155.432,299.712 L155.432,299.712 L155.432,300 L161.304,300 C161.432,300 161.538667,300.005333 161.624,300.016 C161.709333,300.026667 161.752,300.08 161.752,300.176 L161.752,300.176 L162.04,300.176 Z M172.952,300.048 C173.464,300.048 173.928,300.013333 174.344,299.944 C174.76,299.874667 175.125333,299.786667 175.44,299.68 C175.754667,299.573333 176.016,299.464 176.224,299.352 C176.432,299.24 176.584,299.152 176.68,299.088 L176.68,299.088 L176.68,298.896 C176.573333,298.853333 176.506667,298.813333 176.48,298.776 C176.453333,298.738667 176.44,298.672 176.44,298.576 L176.44,298.576 L176.44,297.056 C176.44,296.949333 176.456,296.869333 176.488,296.816 C176.52,296.762667 176.584,296.714667 176.68,296.672 L176.68,296.672 L176.68,296.384 L173.544,296.384 C173.426667,296.384 173.325333,296.368 173.24,296.336 C173.154667,296.304 173.101333,296.234667 173.08,296.128 L173.08,296.128 L172.792,296.128 L172.792,297.776 L173.08,297.776 C173.101333,297.648 173.154667,297.56 173.24,297.512 C173.325333,297.464 173.426667,297.44 173.544,297.44 L173.544,297.44 L175.192,297.44 L175.192,298.448 C174.850667,298.629333 174.474667,298.752 174.064,298.816 C173.653333,298.88 173.218667,298.912 172.76,298.912 C172.450667,298.912 172.130667,298.869333 171.8,298.784 C171.469333,298.698667 171.168,298.562667 170.896,298.376 C170.624,298.189333 170.402667,297.944 170.232,297.64 C170.061333,297.336 169.976,296.96 169.976,296.512 C169.976,296.064 170.056,295.685333 170.216,295.376 C170.376,295.066667 170.589333,294.813333 170.856,294.616 C171.122667,294.418667 171.432,294.274667 171.784,294.184 C172.136,294.093333 172.509333,294.048 172.904,294.048 C173.192,294.048 173.477333,294.077333 173.76,294.136 C174.042667,294.194667 174.296,294.272 174.52,294.368 C174.744,294.464 174.925333,294.568 175.064,294.68 C175.202667,294.792 175.272,294.896 175.272,294.992 C175.272,295.002667 175.261333,295.061333 175.24,295.168 L175.24,295.168 L175.432,295.28 L176.36,293.536 L176.168,293.44 C176.104,293.493333 176.050667,293.528 176.008,293.544 C175.965333,293.56 175.901333,293.568 175.816,293.568 C175.741333,293.568 175.629333,293.530667 175.48,293.456 C175.330667,293.381333 175.133333,293.301333 174.888,293.216 C174.653333,293.130667 174.376,293.050667 174.056,292.976 C173.736,292.901333 173.368,292.864 172.952,292.864 C172.258667,292.864 171.632,292.946667 171.072,293.112 C170.512,293.277333 170.037333,293.517333 169.648,293.832 C169.258667,294.146667 168.96,294.525333 168.752,294.968 C168.544,295.410667 168.44,295.914667 168.44,296.48 C168.44,297.045333 168.544,297.549333 168.752,297.992 C168.96,298.434667 169.258667,298.810667 169.648,299.12 C170.037333,299.429333 170.512,299.661333 171.072,299.816 C171.632,299.970667 172.258667,300.048 172.952,300.048 Z M185.592,300.176 L185.592,298.496 L185.304,298.496 C185.304,298.592 185.261333,298.669333 185.176,298.728 C185.090667,298.786667 184.984,298.816 184.856,298.816 L184.856,298.816 L180.76,298.816 L180.76,296.928 L183.096,296.928 C183.309333,296.928 183.474667,296.941333 183.592,296.968 C183.709333,296.994667 183.752,297.066667 183.72,297.184 L183.72,297.184 L184.04,297.184 L184.04,295.488 L183.752,295.488 C183.752,295.605333 183.709333,295.677333 183.624,295.704 C183.538667,295.730667 183.405333,295.744 183.224,295.744 L183.224,295.744 L180.76,295.744 L180.76,294.144 L184.664,294.144 C184.994667,294.144 185.16,294.245333 185.16,294.448 L185.16,294.448 L185.448,294.448 L185.448,292.672 L185.16,292.672 C185.16,292.864 184.994667,292.96 184.664,292.96 L184.664,292.96 L178.984,292.96 L178.984,293.248 C179.037333,293.248 179.090667,293.266667 179.144,293.304 C179.197333,293.341333 179.224,293.402667 179.224,293.488 L179.224,293.488 L179.224,299.472 C179.224,299.557333 179.197333,299.618667 179.144,299.656 C179.090667,299.693333 179.037333,299.712 178.984,299.712 L178.984,299.712 L178.984,300 L184.856,300 C184.984,300 185.090667,300.005333 185.176,300.016 C185.261333,300.026667 185.304,300.08 185.304,300.176 L185.304,300.176 L185.592,300.176 Z M189.944,300 L189.944,299.712 C189.88,299.712 189.813333,299.693333 189.744,299.656 C189.674667,299.618667 189.64,299.557333 189.64,299.472 L189.64,299.472 L189.64,297.184 L191.864,297.184 L193.128,299.072 C193.288,299.296 193.368,299.461333 193.368,299.568 C193.368,299.664 193.298667,299.712 193.16,299.712 L193.16,299.712 L193.16,300 L195.608,300 L195.608,299.712 C195.490667,299.68 195.381333,299.634667 195.28,299.576 C195.178667,299.517333 195.085333,299.429333 195,299.312 L195,299.312 L193.432,297.024 C193.656,296.970667 193.874667,296.893333 194.088,296.792 C194.301333,296.690667 194.496,296.557333 194.672,296.392 C194.848,296.226667 194.989333,296.032 195.096,295.808 C195.202667,295.584 195.256,295.328 195.256,295.04 C195.256,294.282667 194.989333,293.746667 194.456,293.432 C193.922667,293.117333 193.181333,292.96 192.232,292.96 L192.232,292.96 L187.816,292.96 L187.816,293.248 C188.008,293.248 188.104,293.328 188.104,293.488 L188.104,293.488 L188.104,299.472 C188.104,299.632 188.008,299.712 187.816,299.712 L187.816,299.712 L187.816,300 L189.944,300 Z M192.2,296 L189.672,296 L189.672,294.144 L192.2,294.144 C192.744,294.144 193.141333,294.221333 193.392,294.376 C193.642667,294.530667 193.768,294.741333 193.768,295.008 C193.768,295.669333 193.245333,296 192.2,296 L192.2,296 Z M199.64,300 L199.64,299.712 C199.458667,299.712 199.368,299.632 199.368,299.472 L199.368,299.472 L199.368,294.976 L199.384,294.976 L201.96,300 L202.088,300 L204.808,294.976 L204.84,294.976 L204.84,299.472 C204.872,299.632 204.776,299.712 204.552,299.712 L204.552,299.712 L204.552,300 L206.408,300 L206.408,299.712 C206.354667,299.712 206.304,299.693333 206.256,299.656 C206.208,299.618667 206.184,299.557333 206.184,299.472 L206.184,299.472 L206.184,293.456 C206.184,293.370667 206.208,293.314667 206.256,293.288 C206.304,293.261333 206.354667,293.248 206.408,293.248 L206.408,293.248 L206.408,292.96 L204.152,292.96 L204.152,293.248 C204.237333,293.248 204.28,293.296 204.28,293.392 C204.28,293.424 204.258667,293.48 204.216,293.56 C204.173333,293.64 204.114667,293.744 204.04,293.872 L204.04,293.872 L202.072,297.456 L200.12,293.856 C200.045333,293.728 199.989333,293.629333 199.952,293.56 C199.914667,293.490667 199.896,293.434667 199.896,293.392 C199.896,293.296 199.949333,293.248 200.056,293.248 L200.056,293.248 L200.056,292.96 L197.832,292.96 L197.832,293.248 C197.906667,293.248 197.957333,293.264 197.984,293.296 C198.010667,293.328 198.024,293.418667 198.024,293.568 L198.024,293.568 L198.024,299.424 C198.024,299.541333 198.005333,299.616 197.968,299.648 C197.930667,299.68 197.885333,299.701333 197.832,299.712 L197.832,299.712 L197.832,300 L199.64,300 Z M212.216,300.048 C212.578667,300.048 212.965333,300.021333 213.376,299.968 C213.786667,299.914667 214.162667,299.802667 214.504,299.632 C214.845333,299.461333 215.130667,299.226667 215.36,298.928 C215.589333,298.629333 215.704,298.245333 215.704,297.776 C215.704,297.306667 215.573333,296.938667 215.312,296.672 C215.050667,296.405333 214.722667,296.202667 214.328,296.064 C213.933333,295.925333 213.506667,295.826667 213.048,295.768 C212.589333,295.709333 212.162667,295.650667 211.768,295.592 C211.373333,295.533333 211.045333,295.453333 210.784,295.352 C210.522667,295.250667 210.392,295.082667 210.392,294.848 C210.392,294.698667 210.434667,294.573333 210.52,294.472 C210.605333,294.370667 210.722667,294.288 210.872,294.224 C211.021333,294.16 211.192,294.114667 211.384,294.088 C211.576,294.061333 211.778667,294.048 211.992,294.048 C212.546667,294.048 213.048,294.112 213.496,294.24 C213.944,294.368 214.274667,294.522667 214.488,294.704 C214.573333,294.768 214.621333,294.832 214.632,294.896 C214.642667,294.96 214.653333,295.024 214.664,295.088 L214.664,295.088 L214.952,295.184 L215.752,293.68 L215.576,293.504 C215.512,293.536 215.458667,293.565333 215.416,293.592 C215.373333,293.618667 215.309333,293.632 215.224,293.632 C215.149333,293.632 215.034667,293.592 214.88,293.512 C214.725333,293.432 214.525333,293.344 214.28,293.248 C214.034667,293.152 213.733333,293.064 213.376,292.984 C213.018667,292.904 212.589333,292.864 212.088,292.864 C211.064,292.864 210.269333,293.066667 209.704,293.472 C209.138667,293.877333 208.856,294.421333 208.856,295.104 C208.856,295.562667 208.986667,295.917333 209.248,296.168 C209.509333,296.418667 209.837333,296.610667 210.232,296.744 C210.626667,296.877333 211.053333,296.973333 211.512,297.032 C211.970667,297.090667 212.397333,297.149333 212.792,297.208 C213.186667,297.266667 213.514667,297.349333 213.776,297.456 C214.037333,297.562667 214.168,297.733333 214.168,297.968 C214.168,298.170667 214.093333,298.333333 213.944,298.456 C213.794667,298.578667 213.613333,298.674667 213.4,298.744 C213.186667,298.813333 212.970667,298.858667 212.752,298.88 C212.533333,298.901333 212.349333,298.912 212.2,298.912 C212.04,298.912 211.818667,298.885333 211.536,298.832 C211.253333,298.778667 210.970667,298.706667 210.688,298.616 C210.405333,298.525333 210.162667,298.413333 209.96,298.28 C209.757333,298.146667 209.656,298 209.656,297.84 C209.656,297.786667 209.658667,297.736 209.664,297.688 C209.669333,297.64 209.672,297.594667 209.672,297.552 L209.672,297.552 L209.368,297.472 L208.632,299.264 L208.856,299.424 C208.909333,299.36 208.973333,299.328 209.048,299.328 C209.090667,299.328 209.213333,299.368 209.416,299.448 C209.618667,299.528 209.866667,299.613333 210.16,299.704 C210.453333,299.794667 210.778667,299.874667 211.136,299.944 C211.493333,300.013333 211.853333,300.048 212.216,300.048 Z M219.224,300.048 C219.533333,300.048 219.8,299.944 220.024,299.736 C220.248,299.528 220.36,299.269333 220.36,298.96 C220.36,298.650667 220.248,298.384 220.024,298.16 C219.8,297.936 219.533333,297.824 219.224,297.824 C218.914667,297.824 218.648,297.936 218.424,298.16 C218.2,298.384 218.088,298.650667 218.088,298.96 C218.088,299.269333 218.2,299.528 218.424,299.736 C218.648,299.944 218.914667,300.048 219.224,300.048 Z M39.328,316 L39.328,315.712 C39.2426667,315.712 39.168,315.688 39.104,315.64 C39.04,315.592 39.008,315.52 39.008,315.424 L39.008,315.424 L39.008,313.136 L40.352,312.096 L43.088,315.248 C43.2373333,315.429333 43.312,315.546667 43.312,315.6 C43.312,315.674667 43.2426667,315.712 43.104,315.712 L43.104,315.712 L43.104,316 L46.064,316 L46.064,315.712 C45.8826667,315.658667 45.6986667,315.554667 45.512,315.4 C45.3253333,315.245333 45.1626667,315.088 45.024,314.928 L45.024,314.928 L41.664,311.04 L45.344,308.112 C45.536,307.952 45.728,307.872 45.92,307.872 L45.92,307.872 L45.92,307.584 L42.56,307.584 L42.56,307.872 C42.624,307.872 42.68,307.888 42.728,307.92 C42.776,307.952 42.8,308.005333 42.8,308.08 C42.8,308.133333 42.7573333,308.2 42.672,308.28 C42.5866667,308.36 42.4693333,308.464 42.32,308.592 L42.32,308.592 L39.008,311.2 L39.008,308.16 C39.008,308.064 39.04,307.992 39.104,307.944 C39.168,307.896 39.2426667,307.872 39.328,307.872 L39.328,307.872 L39.328,307.584 L36.832,307.584 L36.832,307.872 C37.0666667,307.872 37.184,307.968 37.184,308.16 L37.184,308.16 L37.184,315.424 C37.184,315.616 37.0666667,315.712 36.832,315.712 L36.832,315.712 L36.832,316 L39.328,316 Z M54.256,316.176 L54.256,314.496 L53.968,314.496 C53.968,314.592 53.9253333,314.669333 53.84,314.728 C53.7546667,314.786667 53.648,314.816 53.52,314.816 L53.52,314.816 L49.424,314.816 L49.424,312.928 L51.76,312.928 C51.9733333,312.928 52.1386667,312.941333 52.256,312.968 C52.3733333,312.994667 52.416,313.066667 52.384,313.184 L52.384,313.184 L52.704,313.184 L52.704,311.488 L52.416,311.488 C52.416,311.605333 52.3733333,311.677333 52.288,311.704 C52.2026667,311.730667 52.0693333,311.744 51.888,311.744 L51.888,311.744 L49.424,311.744 L49.424,310.144 L53.328,310.144 C53.6586667,310.144 53.824,310.245333 53.824,310.448 L53.824,310.448 L54.112,310.448 L54.112,308.672 L53.824,308.672 C53.824,308.864 53.6586667,308.96 53.328,308.96 L53.328,308.96 L47.648,308.96 L47.648,309.248 C47.7013333,309.248 47.7546667,309.266667 47.808,309.304 C47.8613333,309.341333 47.888,309.402667 47.888,309.488 L47.888,309.488 L47.888,315.472 C47.888,315.557333 47.8613333,315.618667 47.808,315.656 C47.7546667,315.693333 47.7013333,315.712 47.648,315.712 L47.648,315.712 L47.648,316 L53.52,316 C53.648,316 53.7546667,316.005333 53.84,316.016 C53.9253333,316.026667 53.968,316.08 53.968,316.176 L53.968,316.176 L54.256,316.176 Z M63.152,316.176 L63.152,314.496 L62.864,314.496 C62.864,314.592 62.8213333,314.669333 62.736,314.728 C62.6506667,314.786667 62.544,314.816 62.416,314.816 L62.416,314.816 L58.32,314.816 L58.32,312.928 L60.656,312.928 C60.8693333,312.928 61.0346667,312.941333 61.152,312.968 C61.2693333,312.994667 61.312,313.066667 61.28,313.184 L61.28,313.184 L61.6,313.184 L61.6,311.488 L61.312,311.488 C61.312,311.605333 61.2693333,311.677333 61.184,311.704 C61.0986667,311.730667 60.9653333,311.744 60.784,311.744 L60.784,311.744 L58.32,311.744 L58.32,310.144 L62.224,310.144 C62.5546667,310.144 62.72,310.245333 62.72,310.448 L62.72,310.448 L63.008,310.448 L63.008,308.672 L62.72,308.672 C62.72,308.864 62.5546667,308.96 62.224,308.96 L62.224,308.96 L56.544,308.96 L56.544,309.248 C56.5973333,309.248 56.6506667,309.266667 56.704,309.304 C56.7573333,309.341333 56.784,309.402667 56.784,309.488 L56.784,309.488 L56.784,315.472 C56.784,315.557333 56.7573333,315.618667 56.704,315.656 C56.6506667,315.693333 56.5973333,315.712 56.544,315.712 L56.544,315.712 L56.544,316 L62.416,316 C62.544,316 62.6506667,316.005333 62.736,316.016 C62.8213333,316.026667 62.864,316.08 62.864,316.176 L62.864,316.176 L63.152,316.176 Z M67.472,316 L67.472,315.712 C67.248,315.712 67.136,315.632 67.136,315.472 L67.136,315.472 L67.136,313.072 L69.856,313.072 C70.72,313.072 71.368,312.925333 71.8,312.632 C72.232,312.338667 72.448,311.808 72.448,311.04 C72.448,310.272 72.232,309.733333 71.8,309.424 C71.368,309.114667 70.72,308.96 69.856,308.96 L69.856,308.96 L65.2,308.96 L65.2,309.248 C65.4666667,309.248 65.6,309.328 65.6,309.488 L65.6,309.488 L65.6,315.472 C65.6,315.632 65.4666667,315.712 65.2,315.712 L65.2,315.712 L65.2,316 L67.472,316 Z M69.824,311.888 L67.136,311.888 L67.136,310.144 L69.824,310.144 C70.1333333,310.144 70.392,310.210667 70.6,310.344 C70.808,310.477333 70.912,310.709333 70.912,311.04 C70.912,311.381333 70.808,311.608 70.6,311.72 C70.392,311.832 70.1333333,311.888 69.824,311.888 L69.824,311.888 Z M81.776,316 L81.776,315.712 C81.4773333,315.712 81.328,315.632 81.328,315.472 L81.328,315.472 L81.328,309.488 C81.328,309.328 81.4773333,309.248 81.776,309.248 L81.776,309.248 L81.776,308.96 L79.344,308.96 L79.344,309.248 C79.5146667,309.248 79.632,309.266667 79.696,309.304 C79.76,309.341333 79.792,309.402667 79.792,309.488 L79.792,309.488 L79.792,315.472 C79.792,315.557333 79.76,315.618667 79.696,315.656 C79.632,315.693333 79.5146667,315.712 79.344,315.712 L79.344,315.712 L79.344,316 L81.776,316 Z M86.496,316 L86.496,315.712 C86.272,315.712 86.16,315.632 86.16,315.472 L86.16,315.472 L86.16,310.816 L90.128,315.04 C90.256,315.178667 90.3706667,315.301333 90.472,315.408 C90.5733333,315.514667 90.624,315.589333 90.624,315.632 C90.624,315.685333 90.5866667,315.712 90.512,315.712 L90.512,315.712 L90.512,316 L92.592,316 L92.592,315.712 C92.4,315.712 92.304,315.632 92.304,315.472 L92.304,315.472 L92.304,309.488 C92.304,309.328 92.4,309.248 92.592,309.248 L92.592,309.248 L92.592,308.96 L90.64,308.96 L90.64,309.248 C90.8533333,309.248 90.96,309.328 90.96,309.488 L90.96,309.488 L90.96,313.824 L87.12,309.76 C86.8853333,309.525333 86.768,309.381333 86.768,309.328 C86.768,309.285333 86.8053333,309.258667 86.88,309.248 L86.88,309.248 L86.88,308.96 L84.528,308.96 L84.528,309.248 C84.72,309.248 84.816,309.328 84.816,309.488 L84.816,309.488 L84.816,315.472 C84.816,315.632 84.72,315.712 84.528,315.712 L84.528,315.712 L84.528,316 L86.496,316 Z M102.224,316 L102.224,315.712 C102.128,315.712 102.042667,315.693333 101.968,315.656 C101.893333,315.618667 101.856,315.557333 101.856,315.472 L101.856,315.472 L101.856,313.024 L104.672,313.024 C104.853333,313.024 104.965333,313.045333 105.008,313.088 C105.050667,313.130667 105.077333,313.194667 105.088,313.28 L105.088,313.28 L105.376,313.28 L105.376,311.6 L105.088,311.6 C105.077333,311.685333 105.050667,311.746667 105.008,311.784 C104.965333,311.821333 104.853333,311.84 104.672,311.84 L104.672,311.84 L101.856,311.84 L101.856,310.144 L106.192,310.144 C106.373333,310.144 106.501333,310.168 106.576,310.216 C106.650667,310.264 106.688,310.314667 106.688,310.368 L106.688,310.368 L106.976,310.368 L106.976,308.672 L106.688,308.672 C106.688,308.757333 106.650667,308.826667 106.576,308.88 C106.501333,308.933333 106.373333,308.96 106.192,308.96 L106.192,308.96 L99.984,308.96 L99.984,309.248 C100.208,309.248 100.32,309.328 100.32,309.488 L100.32,309.488 L100.32,315.472 C100.32,315.632 100.218667,315.712 100.016,315.712 L100.016,315.712 L100.016,316 L102.224,316 Z M111.056,316 L111.056,315.712 C110.992,315.712 110.925333,315.693333 110.856,315.656 C110.786667,315.618667 110.752,315.557333 110.752,315.472 L110.752,315.472 L110.752,313.184 L112.976,313.184 L114.24,315.072 C114.4,315.296 114.48,315.461333 114.48,315.568 C114.48,315.664 114.410667,315.712 114.272,315.712 L114.272,315.712 L114.272,316 L116.72,316 L116.72,315.712 C116.602667,315.68 116.493333,315.634667 116.392,315.576 C116.290667,315.517333 116.197333,315.429333 116.112,315.312 L116.112,315.312 L114.544,313.024 C114.768,312.970667 114.986667,312.893333 115.2,312.792 C115.413333,312.690667 115.608,312.557333 115.784,312.392 C115.96,312.226667 116.101333,312.032 116.208,311.808 C116.314667,311.584 116.368,311.328 116.368,311.04 C116.368,310.282667 116.101333,309.746667 115.568,309.432 C115.034667,309.117333 114.293333,308.96 113.344,308.96 L113.344,308.96 L108.928,308.96 L108.928,309.248 C109.12,309.248 109.216,309.328 109.216,309.488 L109.216,309.488 L109.216,315.472 C109.216,315.632 109.12,315.712 108.928,315.712 L108.928,315.712 L108.928,316 L111.056,316 Z M113.312,312 L110.784,312 L110.784,310.144 L113.312,310.144 C113.856,310.144 114.253333,310.221333 114.504,310.376 C114.754667,310.530667 114.88,310.741333 114.88,311.008 C114.88,311.669333 114.357333,312 113.312,312 L113.312,312 Z M122.336,316.048 C122.922667,316.048 123.474667,315.981333 123.992,315.848 C124.509333,315.714667 124.96,315.498667 125.344,315.2 C125.728,314.901333 126.032,314.525333 126.256,314.072 C126.48,313.618667 126.592,313.088 126.592,312.48 C126.592,311.872 126.48,311.341333 126.256,310.888 C126.032,310.434667 125.728,310.058667 125.344,309.76 C124.96,309.461333 124.509333,309.237333 123.992,309.088 C123.474667,308.938667 122.922667,308.864 122.336,308.864 C121.749333,308.864 121.197333,308.938667 120.68,309.088 C120.162667,309.237333 119.712,309.461333 119.328,309.76 C118.944,310.058667 118.64,310.434667 118.416,310.888 C118.192,311.341333 118.08,311.872 118.08,312.48 C118.08,313.088 118.192,313.618667 118.416,314.072 C118.64,314.525333 118.944,314.901333 119.328,315.2 C119.712,315.498667 120.162667,315.714667 120.68,315.848 C121.197333,315.981333 121.749333,316.048 122.336,316.048 Z M122.336,314.912 C121.994667,314.912 121.661333,314.856 121.336,314.744 C121.010667,314.632 120.72,314.472 120.464,314.264 C120.208,314.056 120.002667,313.802667 119.848,313.504 C119.693333,313.205333 119.616,312.864 119.616,312.48 C119.616,312.096 119.693333,311.754667 119.848,311.456 C120.002667,311.157333 120.208,310.904 120.464,310.696 C120.72,310.488 121.010667,310.328 121.336,310.216 C121.661333,310.104 121.994667,310.048 122.336,310.048 C122.677333,310.048 123.010667,310.104 123.336,310.216 C123.661333,310.328 123.952,310.488 124.208,310.696 C124.464,310.904 124.669333,311.157333 124.824,311.456 C124.978667,311.754667 125.056,312.096 125.056,312.48 C125.056,312.864 124.978667,313.205333 124.824,313.504 C124.669333,313.802667 124.464,314.056 124.208,314.264 C123.952,314.472 123.661333,314.632 123.336,314.744 C123.010667,314.856 122.677333,314.912 122.336,314.912 Z M130.496,316 L130.496,315.712 C130.272,315.712 130.16,315.632 130.16,315.472 L130.16,315.472 L130.16,310.816 L134.128,315.04 C134.256,315.178667 134.370667,315.301333 134.472,315.408 C134.573333,315.514667 134.624,315.589333 134.624,315.632 C134.624,315.685333 134.586667,315.712 134.512,315.712 L134.512,315.712 L134.512,316 L136.592,316 L136.592,315.712 C136.4,315.712 136.304,315.632 136.304,315.472 L136.304,315.472 L136.304,309.488 C136.304,309.328 136.4,309.248 136.592,309.248 L136.592,309.248 L136.592,308.96 L134.64,308.96 L134.64,309.248 C134.853333,309.248 134.96,309.328 134.96,309.488 L134.96,309.488 L134.96,313.824 L131.12,309.76 C130.885333,309.525333 130.768,309.381333 130.768,309.328 C130.768,309.285333 130.805333,309.258667 130.88,309.248 L130.88,309.248 L130.88,308.96 L128.528,308.96 L128.528,309.248 C128.72,309.248 128.816,309.328 128.816,309.488 L128.816,309.488 L128.816,315.472 C128.816,315.632 128.72,315.712 128.528,315.712 L128.528,315.712 L128.528,316 L130.496,316 Z M142.96,316 L142.96,315.712 C142.768,315.712 142.672,315.632 142.672,315.472 L142.672,315.472 L142.672,310.144 L144.752,310.144 C144.837333,310.144 144.917333,310.165333 144.992,310.208 C145.066667,310.250667 145.104,310.32 145.104,310.416 L145.104,310.416 L145.392,310.416 L145.392,308.576 L145.104,308.576 C145.104,308.725333 145.066667,308.826667 144.992,308.88 C144.917333,308.933333 144.837333,308.96 144.752,308.96 L144.752,308.96 L139.056,308.96 C138.970667,308.96 138.890667,308.933333 138.816,308.88 C138.741333,308.826667 138.704,308.725333 138.704,308.576 L138.704,308.576 L138.416,308.576 L138.416,310.416 L138.704,310.416 C138.704,310.32 138.741333,310.250667 138.816,310.208 C138.890667,310.165333 138.970667,310.144 139.056,310.144 L139.056,310.144 L141.136,310.144 L141.136,315.472 C141.136,315.557333 141.109333,315.618667 141.056,315.656 C141.002667,315.693333 140.949333,315.712 140.896,315.712 L140.896,315.712 L140.896,316 L142.96,316 Z M155.664,316.048 C156.250667,316.048 156.802667,315.981333 157.32,315.848 C157.837333,315.714667 158.288,315.498667 158.672,315.2 C159.056,314.901333 159.36,314.525333 159.584,314.072 C159.808,313.618667 159.92,313.088 159.92,312.48 C159.92,311.872 159.808,311.341333 159.584,310.888 C159.36,310.434667 159.056,310.058667 158.672,309.76 C158.288,309.461333 157.837333,309.237333 157.32,309.088 C156.802667,308.938667 156.250667,308.864 155.664,308.864 C155.077333,308.864 154.525333,308.938667 154.008,309.088 C153.490667,309.237333 153.04,309.461333 152.656,309.76 C152.272,310.058667 151.968,310.434667 151.744,310.888 C151.52,311.341333 151.408,311.872 151.408,312.48 C151.408,313.088 151.52,313.618667 151.744,314.072 C151.968,314.525333 152.272,314.901333 152.656,315.2 C153.04,315.498667 153.490667,315.714667 154.008,315.848 C154.525333,315.981333 155.077333,316.048 155.664,316.048 Z M155.664,314.912 C155.322667,314.912 154.989333,314.856 154.664,314.744 C154.338667,314.632 154.048,314.472 153.792,314.264 C153.536,314.056 153.330667,313.802667 153.176,313.504 C153.021333,313.205333 152.944,312.864 152.944,312.48 C152.944,312.096 153.021333,311.754667 153.176,311.456 C153.330667,311.157333 153.536,310.904 153.792,310.696 C154.048,310.488 154.338667,310.328 154.664,310.216 C154.989333,310.104 155.322667,310.048 155.664,310.048 C156.005333,310.048 156.338667,310.104 156.664,310.216 C156.989333,310.328 157.28,310.488 157.536,310.696 C157.792,310.904 157.997333,311.157333 158.152,311.456 C158.306667,311.754667 158.384,312.096 158.384,312.48 C158.384,312.864 158.306667,313.205333 158.152,313.504 C157.997333,313.802667 157.792,314.056 157.536,314.264 C157.28,314.472 156.989333,314.632 156.664,314.744 C156.338667,314.856 156.005333,314.912 155.664,314.912 Z M164,316 L164,315.712 C163.904,315.712 163.818667,315.693333 163.744,315.656 C163.669333,315.618667 163.632,315.557333 163.632,315.472 L163.632,315.472 L163.632,313.024 L166.448,313.024 C166.629333,313.024 166.741333,313.045333 166.784,313.088 C166.826667,313.130667 166.853333,313.194667 166.864,313.28 L166.864,313.28 L167.152,313.28 L167.152,311.6 L166.864,311.6 C166.853333,311.685333 166.826667,311.746667 166.784,311.784 C166.741333,311.821333 166.629333,311.84 166.448,311.84 L166.448,311.84 L163.632,311.84 L163.632,310.144 L167.968,310.144 C168.149333,310.144 168.277333,310.168 168.352,310.216 C168.426667,310.264 168.464,310.314667 168.464,310.368 L168.464,310.368 L168.752,310.368 L168.752,308.672 L168.464,308.672 C168.464,308.757333 168.426667,308.826667 168.352,308.88 C168.277333,308.933333 168.149333,308.96 167.968,308.96 L167.968,308.96 L161.76,308.96 L161.76,309.248 C161.984,309.248 162.096,309.328 162.096,309.488 L162.096,309.488 L162.096,315.472 C162.096,315.632 161.994667,315.712 161.792,315.712 L161.792,315.712 L161.792,316 L164,316 Z M179.856,316 L179.856,315.712 C179.653333,315.712 179.552,315.632 179.552,315.472 L179.552,315.472 L179.552,313.072 L182,309.904 C182.117333,309.754667 182.253333,309.608 182.408,309.464 C182.562667,309.32 182.704,309.248 182.832,309.248 L182.832,309.248 L182.832,308.96 L180.384,308.96 L180.384,309.248 C180.437333,309.248 180.490667,309.258667 180.544,309.28 C180.597333,309.301333 180.624,309.354667 180.624,309.44 C180.624,309.504 180.6,309.570667 180.552,309.64 C180.504,309.709333 180.432,309.813333 180.336,309.952 L180.336,309.952 L178.912,311.936 L177.296,309.824 C177.242667,309.749333 177.194667,309.685333 177.152,309.632 C177.109333,309.578667 177.088,309.52 177.088,309.456 C177.088,309.392 177.12,309.341333 177.184,309.304 C177.248,309.266667 177.306667,309.248 177.36,309.248 L177.36,309.248 L177.36,308.96 L174.72,308.96 L174.72,309.248 C174.816,309.248 174.917333,309.269333 175.024,309.312 C175.130667,309.354667 175.221333,309.424 175.296,309.52 L175.296,309.52 L178.016,313.008 L178.016,315.472 C178.016,315.632 177.92,315.712 177.728,315.712 L177.728,315.712 L177.728,316 L179.856,316 Z M188.112,316.048 C188.698667,316.048 189.250667,315.981333 189.768,315.848 C190.285333,315.714667 190.736,315.498667 191.12,315.2 C191.504,314.901333 191.808,314.525333 192.032,314.072 C192.256,313.618667 192.368,313.088 192.368,312.48 C192.368,311.872 192.256,311.341333 192.032,310.888 C191.808,310.434667 191.504,310.058667 191.12,309.76 C190.736,309.461333 190.285333,309.237333 189.768,309.088 C189.250667,308.938667 188.698667,308.864 188.112,308.864 C187.525333,308.864 186.973333,308.938667 186.456,309.088 C185.938667,309.237333 185.488,309.461333 185.104,309.76 C184.72,310.058667 184.416,310.434667 184.192,310.888 C183.968,311.341333 183.856,311.872 183.856,312.48 C183.856,313.088 183.968,313.618667 184.192,314.072 C184.416,314.525333 184.72,314.901333 185.104,315.2 C185.488,315.498667 185.938667,315.714667 186.456,315.848 C186.973333,315.981333 187.525333,316.048 188.112,316.048 Z M188.112,314.912 C187.770667,314.912 187.437333,314.856 187.112,314.744 C186.786667,314.632 186.496,314.472 186.24,314.264 C185.984,314.056 185.778667,313.802667 185.624,313.504 C185.469333,313.205333 185.392,312.864 185.392,312.48 C185.392,312.096 185.469333,311.754667 185.624,311.456 C185.778667,311.157333 185.984,310.904 186.24,310.696 C186.496,310.488 186.786667,310.328 187.112,310.216 C187.437333,310.104 187.770667,310.048 188.112,310.048 C188.453333,310.048 188.786667,310.104 189.112,310.216 C189.437333,310.328 189.728,310.488 189.984,310.696 C190.24,310.904 190.445333,311.157333 190.6,311.456 C190.754667,311.754667 190.832,312.096 190.832,312.48 C190.832,312.864 190.754667,313.205333 190.6,313.504 C190.445333,313.802667 190.24,314.056 189.984,314.264 C189.728,314.472 189.437333,314.632 189.112,314.744 C188.786667,314.856 188.453333,314.912 188.112,314.912 Z M198.4,316.048 C199.04,316.048 199.597333,315.981333 200.072,315.848 C200.546667,315.714667 200.936,315.530667 201.24,315.296 C201.544,315.061333 201.770667,314.792 201.92,314.488 C202.069333,314.184 202.144,313.866667 202.144,313.536 L202.144,313.536 L202.144,309.488 C202.144,309.328 202.261333,309.248 202.496,309.248 L202.496,309.248 L202.496,308.96 L200.272,308.96 L200.272,309.248 C200.538667,309.248 200.672,309.328 200.672,309.488 L200.672,309.488 L200.672,313.152 C200.672,313.664 200.485333,314.074667 200.112,314.384 C199.738667,314.693333 199.168,314.848 198.4,314.848 C197.632,314.848 197.061333,314.693333 196.688,314.384 C196.314667,314.074667 196.128,313.664 196.128,313.152 L196.128,313.152 L196.128,309.488 C196.128,309.328 196.245333,309.248 196.48,309.248 L196.48,309.248 L196.48,308.96 L194.192,308.96 L194.192,309.248 C194.373333,309.248 194.496,309.266667 194.56,309.304 C194.624,309.341333 194.656,309.402667 194.656,309.488 L194.656,309.488 L194.656,313.536 C194.656,313.866667 194.730667,314.184 194.88,314.488 C195.029333,314.792 195.256,315.061333 195.56,315.296 C195.864,315.530667 196.253333,315.714667 196.728,315.848 C197.202667,315.981333 197.76,316.048 198.4,316.048 Z M213.616,316 L213.616,315.712 C213.424,315.712 213.328,315.632 213.328,315.472 L213.328,315.472 L213.328,310.144 L215.408,310.144 C215.493333,310.144 215.573333,310.165333 215.648,310.208 C215.722667,310.250667 215.76,310.32 215.76,310.416 L215.76,310.416 L216.048,310.416 L216.048,308.576 L215.76,308.576 C215.76,308.725333 215.722667,308.826667 215.648,308.88 C215.573333,308.933333 215.493333,308.96 215.408,308.96 L215.408,308.96 L209.712,308.96 C209.626667,308.96 209.546667,308.933333 209.472,308.88 C209.397333,308.826667 209.36,308.725333 209.36,308.576 L209.36,308.576 L209.072,308.576 L209.072,310.416 L209.36,310.416 C209.36,310.32 209.397333,310.250667 209.472,310.208 C209.546667,310.165333 209.626667,310.144 209.712,310.144 L209.712,310.144 L211.792,310.144 L211.792,315.472 C211.792,315.557333 211.765333,315.618667 211.712,315.656 C211.658667,315.693333 211.605333,315.712 211.552,315.712 L211.552,315.712 L211.552,316 L213.616,316 Z M221.44,316.048 C222.026667,316.048 222.578667,315.981333 223.096,315.848 C223.613333,315.714667 224.064,315.498667 224.448,315.2 C224.832,314.901333 225.136,314.525333 225.36,314.072 C225.584,313.618667 225.696,313.088 225.696,312.48 C225.696,311.872 225.584,311.341333 225.36,310.888 C225.136,310.434667 224.832,310.058667 224.448,309.76 C224.064,309.461333 223.613333,309.237333 223.096,309.088 C222.578667,308.938667 222.026667,308.864 221.44,308.864 C220.853333,308.864 220.301333,308.938667 219.784,309.088 C219.266667,309.237333 218.816,309.461333 218.432,309.76 C218.048,310.058667 217.744,310.434667 217.52,310.888 C217.296,311.341333 217.184,311.872 217.184,312.48 C217.184,313.088 217.296,313.618667 217.52,314.072 C217.744,314.525333 218.048,314.901333 218.432,315.2 C218.816,315.498667 219.266667,315.714667 219.784,315.848 C220.301333,315.981333 220.853333,316.048 221.44,316.048 Z M221.44,314.912 C221.098667,314.912 220.765333,314.856 220.44,314.744 C220.114667,314.632 219.824,314.472 219.568,314.264 C219.312,314.056 219.106667,313.802667 218.952,313.504 C218.797333,313.205333 218.72,312.864 218.72,312.48 C218.72,312.096 218.797333,311.754667 218.952,311.456 C219.106667,311.157333 219.312,310.904 219.568,310.696 C219.824,310.488 220.114667,310.328 220.44,310.216 C220.765333,310.104 221.098667,310.048 221.44,310.048 C221.781333,310.048 222.114667,310.104 222.44,310.216 C222.765333,310.328 223.056,310.488 223.312,310.696 C223.568,310.904 223.773333,311.157333 223.928,311.456 C224.082667,311.754667 224.16,312.096 224.16,312.48 C224.16,312.864 224.082667,313.205333 223.928,313.504 C223.773333,313.802667 223.568,314.056 223.312,314.264 C223.056,314.472 222.765333,314.632 222.44,314.744 C222.114667,314.856 221.781333,314.912 221.44,314.912 Z M37.664,332 L37.664,331.712 C37.44,331.712 37.328,331.632 37.328,331.472 L37.328,331.472 L37.328,329.072 L40.048,329.072 C40.912,329.072 41.56,328.925333 41.992,328.632 C42.424,328.338667 42.64,327.808 42.64,327.04 C42.64,326.272 42.424,325.733333 41.992,325.424 C41.56,325.114667 40.912,324.96 40.048,324.96 L40.048,324.96 L35.392,324.96 L35.392,325.248 C35.6586667,325.248 35.792,325.328 35.792,325.488 L35.792,325.488 L35.792,331.472 C35.792,331.632 35.6586667,331.712 35.392,331.712 L35.392,331.712 L35.392,332 L37.664,332 Z M40.016,327.888 L37.328,327.888 L37.328,326.144 L40.016,326.144 C40.3253333,326.144 40.584,326.210667 40.792,326.344 C41,326.477333 41.104,326.709333 41.104,327.04 C41.104,327.381333 41,327.608 40.792,327.72 C40.584,327.832 40.3253333,327.888 40.016,327.888 L40.016,327.888 Z M46.592,332 L46.592,331.712 C46.528,331.712 46.4613333,331.693333 46.392,331.656 C46.3226667,331.618667 46.288,331.557333 46.288,331.472 L46.288,331.472 L46.288,329.184 L48.512,329.184 L49.776,331.072 C49.936,331.296 50.016,331.461333 50.016,331.568 C50.016,331.664 49.9466667,331.712 49.808,331.712 L49.808,331.712 L49.808,332 L52.256,332 L52.256,331.712 C52.1386667,331.68 52.0293333,331.634667 51.928,331.576 C51.8266667,331.517333 51.7333333,331.429333 51.648,331.312 L51.648,331.312 L50.08,329.024 C50.304,328.970667 50.5226667,328.893333 50.736,328.792 C50.9493333,328.690667 51.144,328.557333 51.32,328.392 C51.496,328.226667 51.6373333,328.032 51.744,327.808 C51.8506667,327.584 51.904,327.328 51.904,327.04 C51.904,326.282667 51.6373333,325.746667 51.104,325.432 C50.5706667,325.117333 49.8293333,324.96 48.88,324.96 L48.88,324.96 L44.464,324.96 L44.464,325.248 C44.656,325.248 44.752,325.328 44.752,325.488 L44.752,325.488 L44.752,331.472 C44.752,331.632 44.656,331.712 44.464,331.712 L44.464,331.712 L44.464,332 L46.592,332 Z M48.848,328 L46.32,328 L46.32,326.144 L48.848,326.144 C49.392,326.144 49.7893333,326.221333 50.04,326.376 C50.2906667,326.530667 50.416,326.741333 50.416,327.008 C50.416,327.669333 49.8933333,328 48.848,328 L48.848,328 Z M57.872,332.048 C58.4586667,332.048 59.0106667,331.981333 59.528,331.848 C60.0453333,331.714667 60.496,331.498667 60.88,331.2 C61.264,330.901333 61.568,330.525333 61.792,330.072 C62.016,329.618667 62.128,329.088 62.128,328.48 C62.128,327.872 62.016,327.341333 61.792,326.888 C61.568,326.434667 61.264,326.058667 60.88,325.76 C60.496,325.461333 60.0453333,325.237333 59.528,325.088 C59.0106667,324.938667 58.4586667,324.864 57.872,324.864 C57.2853333,324.864 56.7333333,324.938667 56.216,325.088 C55.6986667,325.237333 55.248,325.461333 54.864,325.76 C54.48,326.058667 54.176,326.434667 53.952,326.888 C53.728,327.341333 53.616,327.872 53.616,328.48 C53.616,329.088 53.728,329.618667 53.952,330.072 C54.176,330.525333 54.48,330.901333 54.864,331.2 C55.248,331.498667 55.6986667,331.714667 56.216,331.848 C56.7333333,331.981333 57.2853333,332.048 57.872,332.048 Z M57.872,330.912 C57.5306667,330.912 57.1973333,330.856 56.872,330.744 C56.5466667,330.632 56.256,330.472 56,330.264 C55.744,330.056 55.5386667,329.802667 55.384,329.504 C55.2293333,329.205333 55.152,328.864 55.152,328.48 C55.152,328.096 55.2293333,327.754667 55.384,327.456 C55.5386667,327.157333 55.744,326.904 56,326.696 C56.256,326.488 56.5466667,326.328 56.872,326.216 C57.1973333,326.104 57.5306667,326.048 57.872,326.048 C58.2133333,326.048 58.5466667,326.104 58.872,326.216 C59.1973333,326.328 59.488,326.488 59.744,326.696 C60,326.904 60.2053333,327.157333 60.36,327.456 C60.5146667,327.754667 60.592,328.096 60.592,328.48 C60.592,328.864 60.5146667,329.205333 60.36,329.504 C60.2053333,329.802667 60,330.056 59.744,330.264 C59.488,330.472 59.1973333,330.632 58.872,330.744 C58.5466667,330.856 58.2133333,330.912 57.872,330.912 Z M67.824,332 L67.824,331.712 C67.632,331.712 67.536,331.632 67.536,331.472 L67.536,331.472 L67.536,326.144 L69.616,326.144 C69.7013333,326.144 69.7813333,326.165333 69.856,326.208 C69.9306667,326.250667 69.968,326.32 69.968,326.416 L69.968,326.416 L70.256,326.416 L70.256,324.576 L69.968,324.576 C69.968,324.725333 69.9306667,324.826667 69.856,324.88 C69.7813333,324.933333 69.7013333,324.96 69.616,324.96 L69.616,324.96 L63.92,324.96 C63.8346667,324.96 63.7546667,324.933333 63.68,324.88 C63.6053333,324.826667 63.568,324.725333 63.568,324.576 L63.568,324.576 L63.28,324.576 L63.28,326.416 L63.568,326.416 C63.568,326.32 63.6053333,326.250667 63.68,326.208 C63.7546667,326.165333 63.8346667,326.144 63.92,326.144 L63.92,326.144 L66,326.144 L66,331.472 C66,331.557333 65.9733333,331.618667 65.92,331.656 C65.8666667,331.693333 65.8133333,331.712 65.76,331.712 L65.76,331.712 L65.76,332 L67.824,332 Z M78.688,332.176 L78.688,330.496 L78.4,330.496 C78.4,330.592 78.3573333,330.669333 78.272,330.728 C78.1866667,330.786667 78.08,330.816 77.952,330.816 L77.952,330.816 L73.856,330.816 L73.856,328.928 L76.192,328.928 C76.4053333,328.928 76.5706667,328.941333 76.688,328.968 C76.8053333,328.994667 76.848,329.066667 76.816,329.184 L76.816,329.184 L77.136,329.184 L77.136,327.488 L76.848,327.488 C76.848,327.605333 76.8053333,327.677333 76.72,327.704 C76.6346667,327.730667 76.5013333,327.744 76.32,327.744 L76.32,327.744 L73.856,327.744 L73.856,326.144 L77.76,326.144 C78.0906667,326.144 78.256,326.245333 78.256,326.448 L78.256,326.448 L78.544,326.448 L78.544,324.672 L78.256,324.672 C78.256,324.864 78.0906667,324.96 77.76,324.96 L77.76,324.96 L72.08,324.96 L72.08,325.248 C72.1333333,325.248 72.1866667,325.266667 72.24,325.304 C72.2933333,325.341333 72.32,325.402667 72.32,325.488 L72.32,325.488 L72.32,331.472 C72.32,331.557333 72.2933333,331.618667 72.24,331.656 C72.1866667,331.693333 72.1333333,331.712 72.08,331.712 L72.08,331.712 L72.08,332 L77.952,332 C78.08,332 78.1866667,332.005333 78.272,332.016 C78.3573333,332.026667 78.4,332.08 78.4,332.176 L78.4,332.176 L78.688,332.176 Z M84.176,332.048 C84.656,332.048 85.0906667,332.005333 85.48,331.92 C85.8693333,331.834667 86.2106667,331.730667 86.504,331.608 C86.7973333,331.485333 87.04,331.376 87.232,331.28 C87.424,331.184 87.5626667,331.136 87.648,331.136 C87.7013333,331.136 87.792,331.162667 87.92,331.216 L87.92,331.216 L88.08,331.136 L86.896,329.44 L86.72,329.6 C86.7306667,329.642667 86.736,329.696 86.736,329.76 L86.736,329.76 L86.736,329.888 C86.736,329.984 86.6586667,330.090667 86.504,330.208 C86.3493333,330.325333 86.1493333,330.434667 85.904,330.536 C85.6586667,330.637333 85.3866667,330.725333 85.088,330.8 C84.7893333,330.874667 84.496,330.912 84.208,330.912 C83.8986667,330.912 83.5946667,330.856 83.296,330.744 C82.9973333,330.632 82.7306667,330.466667 82.496,330.248 C82.2613333,330.029333 82.072,329.768 81.928,329.464 C81.784,329.16 81.712,328.816 81.712,328.432 C81.712,328.048 81.776,327.706667 81.904,327.408 C82.032,327.109333 82.2133333,326.858667 82.448,326.656 C82.6826667,326.453333 82.9573333,326.301333 83.272,326.2 C83.5866667,326.098667 83.936,326.048 84.32,326.048 C84.64,326.048 84.9333333,326.077333 85.2,326.136 C85.4666667,326.194667 85.6986667,326.266667 85.896,326.352 C86.0933333,326.437333 86.2453333,326.525333 86.352,326.616 C86.4586667,326.706667 86.512,326.778667 86.512,326.832 C86.512,326.864 86.5146667,326.890667 86.52,326.912 C86.5253333,326.933333 86.528,326.954667 86.528,326.976 L86.528,326.976 L86.704,327.104 L87.76,325.584 L87.568,325.472 C87.5253333,325.493333 87.4853333,325.52 87.448,325.552 C87.4106667,325.584 87.3653333,325.6 87.312,325.6 C87.2373333,325.6 87.1146667,325.562667 86.944,325.488 C86.7733333,325.413333 86.56,325.328 86.304,325.232 C86.048,325.136 85.752,325.050667 85.416,324.976 C85.08,324.901333 84.7093333,324.864 84.304,324.864 C83.7813333,324.864 83.272,324.938667 82.776,325.088 C82.28,325.237333 81.84,325.464 81.456,325.768 C81.072,326.072 80.7626667,326.448 80.528,326.896 C80.2933333,327.344 80.176,327.866667 80.176,328.464 C80.176,329.061333 80.2933333,329.586667 80.528,330.04 C80.7626667,330.493333 81.0666667,330.872 81.44,331.176 C81.8133333,331.48 82.24,331.701333 82.72,331.84 C83.2,331.978667 83.6853333,332.048 84.176,332.048 Z M93.616,332 L93.616,331.712 C93.424,331.712 93.328,331.632 93.328,331.472 L93.328,331.472 L93.328,326.144 L95.408,326.144 C95.4933333,326.144 95.5733333,326.165333 95.648,326.208 C95.7226667,326.250667 95.76,326.32 95.76,326.416 L95.76,326.416 L96.048,326.416 L96.048,324.576 L95.76,324.576 C95.76,324.725333 95.7226667,324.826667 95.648,324.88 C95.5733333,324.933333 95.4933333,324.96 95.408,324.96 L95.408,324.96 L89.712,324.96 C89.6266667,324.96 89.5466667,324.933333 89.472,324.88 C89.3973333,324.826667 89.36,324.725333 89.36,324.576 L89.36,324.576 L89.072,324.576 L89.072,326.416 L89.36,326.416 C89.36,326.32 89.3973333,326.250667 89.472,326.208 C89.5466667,326.165333 89.6266667,326.144 89.712,326.144 L89.712,326.144 L91.792,326.144 L91.792,331.472 C91.792,331.557333 91.7653333,331.618667 91.712,331.656 C91.6586667,331.693333 91.6053333,331.712 91.552,331.712 L91.552,331.712 L91.552,332 L93.616,332 Z M104.88,332 L104.88,331.712 C104.784,331.712 104.698667,331.693333 104.624,331.656 C104.549333,331.618667 104.512,331.557333 104.512,331.472 L104.512,331.472 L104.512,329.024 L107.328,329.024 C107.509333,329.024 107.621333,329.045333 107.664,329.088 C107.706667,329.130667 107.733333,329.194667 107.744,329.28 L107.744,329.28 L108.032,329.28 L108.032,327.6 L107.744,327.6 C107.733333,327.685333 107.706667,327.746667 107.664,327.784 C107.621333,327.821333 107.509333,327.84 107.328,327.84 L107.328,327.84 L104.512,327.84 L104.512,326.144 L108.848,326.144 C109.029333,326.144 109.157333,326.168 109.232,326.216 C109.306667,326.264 109.344,326.314667 109.344,326.368 L109.344,326.368 L109.632,326.368 L109.632,324.672 L109.344,324.672 C109.344,324.757333 109.306667,324.826667 109.232,324.88 C109.157333,324.933333 109.029333,324.96 108.848,324.96 L108.848,324.96 L102.64,324.96 L102.64,325.248 C102.864,325.248 102.976,325.328 102.976,325.488 L102.976,325.488 L102.976,331.472 C102.976,331.632 102.874667,331.712 102.672,331.712 L102.672,331.712 L102.672,332 L104.88,332 Z M113.712,332 L113.712,331.712 C113.648,331.712 113.581333,331.693333 113.512,331.656 C113.442667,331.618667 113.408,331.557333 113.408,331.472 L113.408,331.472 L113.408,329.184 L115.632,329.184 L116.896,331.072 C117.056,331.296 117.136,331.461333 117.136,331.568 C117.136,331.664 117.066667,331.712 116.928,331.712 L116.928,331.712 L116.928,332 L119.376,332 L119.376,331.712 C119.258667,331.68 119.149333,331.634667 119.048,331.576 C118.946667,331.517333 118.853333,331.429333 118.768,331.312 L118.768,331.312 L117.2,329.024 C117.424,328.970667 117.642667,328.893333 117.856,328.792 C118.069333,328.690667 118.264,328.557333 118.44,328.392 C118.616,328.226667 118.757333,328.032 118.864,327.808 C118.970667,327.584 119.024,327.328 119.024,327.04 C119.024,326.282667 118.757333,325.746667 118.224,325.432 C117.690667,325.117333 116.949333,324.96 116,324.96 L116,324.96 L111.584,324.96 L111.584,325.248 C111.776,325.248 111.872,325.328 111.872,325.488 L111.872,325.488 L111.872,331.472 C111.872,331.632 111.776,331.712 111.584,331.712 L111.584,331.712 L111.584,332 L113.712,332 Z M115.968,328 L113.44,328 L113.44,326.144 L115.968,326.144 C116.512,326.144 116.909333,326.221333 117.16,326.376 C117.410667,326.530667 117.536,326.741333 117.536,327.008 C117.536,327.669333 117.013333,328 115.968,328 L115.968,328 Z M124.992,332.048 C125.578667,332.048 126.130667,331.981333 126.648,331.848 C127.165333,331.714667 127.616,331.498667 128,331.2 C128.384,330.901333 128.688,330.525333 128.912,330.072 C129.136,329.618667 129.248,329.088 129.248,328.48 C129.248,327.872 129.136,327.341333 128.912,326.888 C128.688,326.434667 128.384,326.058667 128,325.76 C127.616,325.461333 127.165333,325.237333 126.648,325.088 C126.130667,324.938667 125.578667,324.864 124.992,324.864 C124.405333,324.864 123.853333,324.938667 123.336,325.088 C122.818667,325.237333 122.368,325.461333 121.984,325.76 C121.6,326.058667 121.296,326.434667 121.072,326.888 C120.848,327.341333 120.736,327.872 120.736,328.48 C120.736,329.088 120.848,329.618667 121.072,330.072 C121.296,330.525333 121.6,330.901333 121.984,331.2 C122.368,331.498667 122.818667,331.714667 123.336,331.848 C123.853333,331.981333 124.405333,332.048 124.992,332.048 Z M124.992,330.912 C124.650667,330.912 124.317333,330.856 123.992,330.744 C123.666667,330.632 123.376,330.472 123.12,330.264 C122.864,330.056 122.658667,329.802667 122.504,329.504 C122.349333,329.205333 122.272,328.864 122.272,328.48 C122.272,328.096 122.349333,327.754667 122.504,327.456 C122.658667,327.157333 122.864,326.904 123.12,326.696 C123.376,326.488 123.666667,326.328 123.992,326.216 C124.317333,326.104 124.650667,326.048 124.992,326.048 C125.333333,326.048 125.666667,326.104 125.992,326.216 C126.317333,326.328 126.608,326.488 126.864,326.696 C127.12,326.904 127.325333,327.157333 127.48,327.456 C127.634667,327.754667 127.712,328.096 127.712,328.48 C127.712,328.864 127.634667,329.205333 127.48,329.504 C127.325333,329.802667 127.12,330.056 126.864,330.264 C126.608,330.472 126.317333,330.632 125.992,330.744 C125.666667,330.856 125.333333,330.912 124.992,330.912 Z M133.184,332 L133.184,331.712 C133.002667,331.712 132.912,331.632 132.912,331.472 L132.912,331.472 L132.912,326.976 L132.928,326.976 L135.504,332 L135.632,332 L138.352,326.976 L138.384,326.976 L138.384,331.472 C138.416,331.632 138.32,331.712 138.096,331.712 L138.096,331.712 L138.096,332 L139.952,332 L139.952,331.712 C139.898667,331.712 139.848,331.693333 139.8,331.656 C139.752,331.618667 139.728,331.557333 139.728,331.472 L139.728,331.472 L139.728,325.456 C139.728,325.370667 139.752,325.314667 139.8,325.288 C139.848,325.261333 139.898667,325.248 139.952,325.248 L139.952,325.248 L139.952,324.96 L137.696,324.96 L137.696,325.248 C137.781333,325.248 137.824,325.296 137.824,325.392 C137.824,325.424 137.802667,325.48 137.76,325.56 C137.717333,325.64 137.658667,325.744 137.584,325.872 L137.584,325.872 L135.616,329.456 L133.664,325.856 C133.589333,325.728 133.533333,325.629333 133.496,325.56 C133.458667,325.490667 133.44,325.434667 133.44,325.392 C133.44,325.296 133.493333,325.248 133.6,325.248 L133.6,325.248 L133.6,324.96 L131.376,324.96 L131.376,325.248 C131.450667,325.248 131.501333,325.264 131.528,325.296 C131.554667,325.328 131.568,325.418667 131.568,325.568 L131.568,325.568 L131.568,331.424 C131.568,331.541333 131.549333,331.616 131.512,331.648 C131.474667,331.68 131.429333,331.701333 131.376,331.712 L131.376,331.712 L131.376,332 L133.184,332 Z M155.984,332.304 L155.984,330.112 L155.696,330.112 C155.696,330.24 155.645333,330.341333 155.544,330.416 C155.442667,330.490667 155.312,330.528 155.152,330.528 L155.152,330.528 L149.808,330.528 L149.808,328.32 L152.944,328.32 C153.157333,328.32 153.322667,328.354667 153.44,328.424 C153.557333,328.493333 153.616,328.650667 153.616,328.896 L153.616,328.896 L153.904,328.896 L153.904,326.4 L153.616,326.4 C153.616,326.645333 153.557333,326.797333 153.44,326.856 C153.322667,326.914667 153.157333,326.944 152.944,326.944 L152.944,326.944 L149.808,326.944 L149.808,324.96 L154.992,324.96 C155.216,324.96 155.373333,324.989333 155.464,325.048 C155.554667,325.106667 155.6,325.194667 155.6,325.312 L155.6,325.312 L155.888,325.312 L155.888,323.2 L155.6,323.2 C155.6,323.317333 155.554667,323.410667 155.464,323.48 C155.373333,323.549333 155.216,323.584 154.992,323.584 L154.992,323.584 L147.696,323.584 L147.696,323.872 C147.770667,323.872 147.837333,323.896 147.896,323.944 C147.954667,323.992 147.984,324.064 147.984,324.16 L147.984,324.16 L147.984,331.424 C147.984,331.52 147.954667,331.592 147.896,331.64 C147.837333,331.688 147.770667,331.712 147.696,331.712 L147.696,331.712 L147.696,332 L155.152,332 C155.312,332 155.442667,332.010667 155.544,332.032 C155.645333,332.053333 155.696,332.144 155.696,332.304 L155.696,332.304 L155.984,332.304 Z M159.936,332 L159.936,331.712 C159.84,331.712 159.792,331.674667 159.792,331.6 C159.792,331.525333 159.866667,331.397333 160.016,331.216 L160.016,331.216 L161.376,329.552 L162.768,331.264 C162.885333,331.445333 162.944,331.552 162.944,331.584 C162.944,331.658667 162.906667,331.701333 162.832,331.712 L162.832,331.712 L162.832,332 L165.28,332 L165.28,331.712 C165.12,331.712 164.981333,331.637333 164.864,331.488 C164.746667,331.338667 164.645333,331.216 164.56,331.12 L164.56,331.12 L162.336,328.32 L164.752,325.408 C164.858667,325.301333 164.997333,325.248 165.168,325.248 L165.168,325.248 L165.168,324.96 L162.72,324.96 L162.72,325.248 C162.858667,325.248 162.928,325.290667 162.928,325.376 C162.928,325.461333 162.842667,325.605333 162.672,325.808 L162.672,325.808 L161.456,327.296 L160.336,325.936 C160.24,325.818667 160.16,325.717333 160.096,325.632 C160.032,325.546667 160,325.477333 160,325.424 C160,325.306667 160.064,325.248 160.192,325.248 L160.192,325.248 L160.192,324.96 L157.68,324.96 L157.68,325.248 C157.754667,325.248 157.84,325.282667 157.936,325.352 C158.032,325.421333 158.154667,325.546667 158.304,325.728 L158.304,325.728 L160.512,328.48 L158.08,331.472 C158.005333,331.568 157.922667,331.632 157.832,331.664 C157.741333,331.696 157.664,331.712 157.6,331.712 L157.6,331.712 L157.6,332 L159.936,332 Z M169.232,332 L169.232,331.712 C169.008,331.712 168.896,331.632 168.896,331.472 L168.896,331.472 L168.896,329.072 L171.616,329.072 C172.48,329.072 173.128,328.925333 173.56,328.632 C173.992,328.338667 174.208,327.808 174.208,327.04 C174.208,326.272 173.992,325.733333 173.56,325.424 C173.128,325.114667 172.48,324.96 171.616,324.96 L171.616,324.96 L166.96,324.96 L166.96,325.248 C167.226667,325.248 167.36,325.328 167.36,325.488 L167.36,325.488 L167.36,331.472 C167.36,331.632 167.226667,331.712 166.96,331.712 L166.96,331.712 L166.96,332 L169.232,332 Z M171.584,327.888 L168.896,327.888 L168.896,326.144 L171.584,326.144 C171.893333,326.144 172.152,326.210667 172.36,326.344 C172.568,326.477333 172.672,326.709333 172.672,327.04 C172.672,327.381333 172.568,327.608 172.36,327.72 C172.152,327.832 171.893333,327.888 171.584,327.888 L171.584,327.888 Z M179.664,332.048 C180.250667,332.048 180.802667,331.981333 181.32,331.848 C181.837333,331.714667 182.288,331.498667 182.672,331.2 C183.056,330.901333 183.36,330.525333 183.584,330.072 C183.808,329.618667 183.92,329.088 183.92,328.48 C183.92,327.872 183.808,327.341333 183.584,326.888 C183.36,326.434667 183.056,326.058667 182.672,325.76 C182.288,325.461333 181.837333,325.237333 181.32,325.088 C180.802667,324.938667 180.250667,324.864 179.664,324.864 C179.077333,324.864 178.525333,324.938667 178.008,325.088 C177.490667,325.237333 177.04,325.461333 176.656,325.76 C176.272,326.058667 175.968,326.434667 175.744,326.888 C175.52,327.341333 175.408,327.872 175.408,328.48 C175.408,329.088 175.52,329.618667 175.744,330.072 C175.968,330.525333 176.272,330.901333 176.656,331.2 C177.04,331.498667 177.490667,331.714667 178.008,331.848 C178.525333,331.981333 179.077333,332.048 179.664,332.048 Z M179.664,330.912 C179.322667,330.912 178.989333,330.856 178.664,330.744 C178.338667,330.632 178.048,330.472 177.792,330.264 C177.536,330.056 177.330667,329.802667 177.176,329.504 C177.021333,329.205333 176.944,328.864 176.944,328.48 C176.944,328.096 177.021333,327.754667 177.176,327.456 C177.330667,327.157333 177.536,326.904 177.792,326.696 C178.048,326.488 178.338667,326.328 178.664,326.216 C178.989333,326.104 179.322667,326.048 179.664,326.048 C180.005333,326.048 180.338667,326.104 180.664,326.216 C180.989333,326.328 181.28,326.488 181.536,326.696 C181.792,326.904 181.997333,327.157333 182.152,327.456 C182.306667,327.754667 182.384,328.096 182.384,328.48 C182.384,328.864 182.306667,329.205333 182.152,329.504 C181.997333,329.802667 181.792,330.056 181.536,330.264 C181.28,330.472 180.989333,330.632 180.664,330.744 C180.338667,330.856 180.005333,330.912 179.664,330.912 Z M188.88,332.048 C189.242667,332.048 189.629333,332.021333 190.04,331.968 C190.450667,331.914667 190.826667,331.802667 191.168,331.632 C191.509333,331.461333 191.794667,331.226667 192.024,330.928 C192.253333,330.629333 192.368,330.245333 192.368,329.776 C192.368,329.306667 192.237333,328.938667 191.976,328.672 C191.714667,328.405333 191.386667,328.202667 190.992,328.064 C190.597333,327.925333 190.170667,327.826667 189.712,327.768 C189.253333,327.709333 188.826667,327.650667 188.432,327.592 C188.037333,327.533333 187.709333,327.453333 187.448,327.352 C187.186667,327.250667 187.056,327.082667 187.056,326.848 C187.056,326.698667 187.098667,326.573333 187.184,326.472 C187.269333,326.370667 187.386667,326.288 187.536,326.224 C187.685333,326.16 187.856,326.114667 188.048,326.088 C188.24,326.061333 188.442667,326.048 188.656,326.048 C189.210667,326.048 189.712,326.112 190.16,326.24 C190.608,326.368 190.938667,326.522667 191.152,326.704 C191.237333,326.768 191.285333,326.832 191.296,326.896 C191.306667,326.96 191.317333,327.024 191.328,327.088 L191.328,327.088 L191.616,327.184 L192.416,325.68 L192.24,325.504 C192.176,325.536 192.122667,325.565333 192.08,325.592 C192.037333,325.618667 191.973333,325.632 191.888,325.632 C191.813333,325.632 191.698667,325.592 191.544,325.512 C191.389333,325.432 191.189333,325.344 190.944,325.248 C190.698667,325.152 190.397333,325.064 190.04,324.984 C189.682667,324.904 189.253333,324.864 188.752,324.864 C187.728,324.864 186.933333,325.066667 186.368,325.472 C185.802667,325.877333 185.52,326.421333 185.52,327.104 C185.52,327.562667 185.650667,327.917333 185.912,328.168 C186.173333,328.418667 186.501333,328.610667 186.896,328.744 C187.290667,328.877333 187.717333,328.973333 188.176,329.032 C188.634667,329.090667 189.061333,329.149333 189.456,329.208 C189.850667,329.266667 190.178667,329.349333 190.44,329.456 C190.701333,329.562667 190.832,329.733333 190.832,329.968 C190.832,330.170667 190.757333,330.333333 190.608,330.456 C190.458667,330.578667 190.277333,330.674667 190.064,330.744 C189.850667,330.813333 189.634667,330.858667 189.416,330.88 C189.197333,330.901333 189.013333,330.912 188.864,330.912 C188.704,330.912 188.482667,330.885333 188.2,330.832 C187.917333,330.778667 187.634667,330.706667 187.352,330.616 C187.069333,330.525333 186.826667,330.413333 186.624,330.28 C186.421333,330.146667 186.32,330 186.32,329.84 C186.32,329.786667 186.322667,329.736 186.328,329.688 C186.333333,329.64 186.336,329.594667 186.336,329.552 L186.336,329.552 L186.032,329.472 L185.296,331.264 L185.52,331.424 C185.573333,331.36 185.637333,331.328 185.712,331.328 C185.754667,331.328 185.877333,331.368 186.08,331.448 C186.282667,331.528 186.530667,331.613333 186.824,331.704 C187.117333,331.794667 187.442667,331.874667 187.8,331.944 C188.157333,332.013333 188.517333,332.048 188.88,332.048 Z M198.848,332.048 C199.488,332.048 200.045333,331.981333 200.52,331.848 C200.994667,331.714667 201.384,331.530667 201.688,331.296 C201.992,331.061333 202.218667,330.792 202.368,330.488 C202.517333,330.184 202.592,329.866667 202.592,329.536 L202.592,329.536 L202.592,325.488 C202.592,325.328 202.709333,325.248 202.944,325.248 L202.944,325.248 L202.944,324.96 L200.72,324.96 L200.72,325.248 C200.986667,325.248 201.12,325.328 201.12,325.488 L201.12,325.488 L201.12,329.152 C201.12,329.664 200.933333,330.074667 200.56,330.384 C200.186667,330.693333 199.616,330.848 198.848,330.848 C198.08,330.848 197.509333,330.693333 197.136,330.384 C196.762667,330.074667 196.576,329.664 196.576,329.152 L196.576,329.152 L196.576,325.488 C196.576,325.328 196.693333,325.248 196.928,325.248 L196.928,325.248 L196.928,324.96 L194.64,324.96 L194.64,325.248 C194.821333,325.248 194.944,325.266667 195.008,325.304 C195.072,325.341333 195.104,325.402667 195.104,325.488 L195.104,325.488 L195.104,329.536 C195.104,329.866667 195.178667,330.184 195.328,330.488 C195.477333,330.792 195.704,331.061333 196.008,331.296 C196.312,331.530667 196.701333,331.714667 197.176,331.848 C197.650667,331.981333 198.208,332.048 198.848,332.048 Z M207.504,332 L207.504,331.712 C207.44,331.712 207.373333,331.693333 207.304,331.656 C207.234667,331.618667 207.2,331.557333 207.2,331.472 L207.2,331.472 L207.2,329.184 L209.424,329.184 L210.688,331.072 C210.848,331.296 210.928,331.461333 210.928,331.568 C210.928,331.664 210.858667,331.712 210.72,331.712 L210.72,331.712 L210.72,332 L213.168,332 L213.168,331.712 C213.050667,331.68 212.941333,331.634667 212.84,331.576 C212.738667,331.517333 212.645333,331.429333 212.56,331.312 L212.56,331.312 L210.992,329.024 C211.216,328.970667 211.434667,328.893333 211.648,328.792 C211.861333,328.690667 212.056,328.557333 212.232,328.392 C212.408,328.226667 212.549333,328.032 212.656,327.808 C212.762667,327.584 212.816,327.328 212.816,327.04 C212.816,326.282667 212.549333,325.746667 212.016,325.432 C211.482667,325.117333 210.741333,324.96 209.792,324.96 L209.792,324.96 L205.376,324.96 L205.376,325.248 C205.568,325.248 205.664,325.328 205.664,325.488 L205.664,325.488 L205.664,331.472 C205.664,331.632 205.568,331.712 205.376,331.712 L205.376,331.712 L205.376,332 L207.504,332 Z M209.76,328 L207.232,328 L207.232,326.144 L209.76,326.144 C210.304,326.144 210.701333,326.221333 210.952,326.376 C211.202667,326.530667 211.328,326.741333 211.328,327.008 C211.328,327.669333 210.805333,328 209.76,328 L209.76,328 Z M221.824,332.176 L221.824,330.496 L221.536,330.496 C221.536,330.592 221.493333,330.669333 221.408,330.728 C221.322667,330.786667 221.216,330.816 221.088,330.816 L221.088,330.816 L216.992,330.816 L216.992,328.928 L219.328,328.928 C219.541333,328.928 219.706667,328.941333 219.824,328.968 C219.941333,328.994667 219.984,329.066667 219.952,329.184 L219.952,329.184 L220.272,329.184 L220.272,327.488 L219.984,327.488 C219.984,327.605333 219.941333,327.677333 219.856,327.704 C219.770667,327.730667 219.637333,327.744 219.456,327.744 L219.456,327.744 L216.992,327.744 L216.992,326.144 L220.896,326.144 C221.226667,326.144 221.392,326.245333 221.392,326.448 L221.392,326.448 L221.68,326.448 L221.68,324.672 L221.392,324.672 C221.392,324.864 221.226667,324.96 220.896,324.96 L220.896,324.96 L215.216,324.96 L215.216,325.248 C215.269333,325.248 215.322667,325.266667 215.376,325.304 C215.429333,325.341333 215.456,325.402667 215.456,325.488 L215.456,325.488 L215.456,331.472 C215.456,331.557333 215.429333,331.618667 215.376,331.656 C215.322667,331.693333 215.269333,331.712 215.216,331.712 L215.216,331.712 L215.216,332 L221.088,332 C221.216,332 221.322667,332.005333 221.408,332.016 C221.493333,332.026667 221.536,332.08 221.536,332.176 L221.536,332.176 L221.824,332.176 Z M225.232,332.048 C225.541333,332.048 225.808,331.944 226.032,331.736 C226.256,331.528 226.368,331.269333 226.368,330.96 C226.368,330.650667 226.256,330.384 226.032,330.16 C225.808,329.936 225.541333,329.824 225.232,329.824 C224.922667,329.824 224.656,329.936 224.432,330.16 C224.208,330.384 224.096,330.650667 224.096,330.96 C224.096,331.269333 224.208,331.528 224.432,331.736 C224.656,331.944 224.922667,332.048 225.232,332.048 Z" id="Absorballthegerms.KeepinfrontofyoutoprotectfromExposure." fill="#000000" fill-rule="nonzero"></path>
        <path d="M60.064,52.072 C60.72,52.072 61.428,52.02 62.188,51.916 C62.948,51.812 63.656,51.608 64.312,51.304 C64.968,51 65.516,50.584 65.956,50.056 C66.396,49.528 66.616,48.848 66.616,48.016 C66.616,47.296 66.476,46.712 66.196,46.264 C65.916,45.816 65.548,45.46 65.092,45.196 C64.636,44.932 64.116,44.74 63.532,44.62 C62.948,44.5 62.352,44.416 61.744,44.368 C61.136,44.32 60.54,44.28 59.956,44.248 C59.372,44.216 58.852,44.152 58.396,44.056 C57.94,43.96 57.572,43.816 57.292,43.624 C57.012,43.432 56.872,43.144 56.872,42.76 C56.872,42.488 56.972,42.26 57.172,42.076 C57.372,41.892 57.624,41.744 57.928,41.632 C58.232,41.52 58.572,41.436 58.948,41.38 C59.324,41.324 59.688,41.296 60.04,41.296 C60.504,41.296 60.968,41.34 61.432,41.428 C61.896,41.516 62.328,41.632 62.728,41.776 C63.128,41.92 63.476,42.084 63.772,42.268 C64.068,42.452 64.28,42.64 64.408,42.832 C64.504,42.976 64.568,43.16 64.6,43.384 L64.6,43.384 L64.84,43.48 L66.496,40.48 L66.208,40.288 C66.112,40.384 65.952,40.432 65.728,40.432 C65.52,40.432 65.26,40.368 64.948,40.24 C64.636,40.112 64.252,39.976 63.796,39.832 C63.34,39.688 62.8,39.552 62.176,39.424 C61.552,39.296 60.816,39.232 59.968,39.232 C58.976,39.232 58.112,39.348 57.376,39.58 C56.64,39.812 56.032,40.112 55.552,40.48 C55.072,40.848 54.716,41.272 54.484,41.752 C54.252,42.232 54.136,42.72 54.136,43.216 C54.136,43.952 54.276,44.548 54.556,45.004 C54.836,45.46 55.204,45.82 55.66,46.084 C56.116,46.348 56.636,46.536 57.22,46.648 C57.804,46.76 58.4,46.84 59.008,46.888 C59.616,46.936 60.212,46.972 60.796,46.996 C61.38,47.02 61.9,47.072 62.356,47.152 C62.812,47.232 63.18,47.36 63.46,47.536 C63.74,47.712 63.88,47.984 63.88,48.352 C63.88,48.72 63.728,49.016 63.424,49.24 C63.12,49.464 62.76,49.64 62.344,49.768 C61.928,49.896 61.504,49.98 61.072,50.02 C60.64,50.06 60.288,50.08 60.016,50.08 C59.648,50.08 59.232,50.036 58.768,49.948 C58.304,49.86 57.86,49.744 57.436,49.6 C57.012,49.456 56.636,49.292 56.308,49.108 C55.98,48.924 55.76,48.736 55.648,48.544 C55.584,48.432 55.552,48.304 55.552,48.16 L55.552,48.16 L55.312,48.04 L53.992,50.944 L54.328,51.136 C54.424,51.008 54.528,50.944 54.64,50.944 C54.816,50.944 55.024,51.004 55.264,51.124 C55.504,51.244 55.828,51.38 56.236,51.532 C56.644,51.684 57.156,51.812 57.772,51.916 C58.388,52.02 59.152,52.072 60.064,52.072 Z M73.336,52 L73.336,51.568 C73,51.568 72.832,51.448 72.832,51.208 L72.832,51.208 L72.832,47.608 L76.912,47.608 C78.208,47.608 79.18,47.388 79.828,46.948 C80.476,46.508 80.8,45.712 80.8,44.56 C80.8,43.408 80.476,42.6 79.828,42.136 C79.18,41.672 78.208,41.44 76.912,41.44 L76.912,41.44 L69.928,41.44 L69.928,41.872 C70.328,41.872 70.528,41.992 70.528,42.232 L70.528,42.232 L70.528,51.208 C70.528,51.448 70.328,51.568 69.928,51.568 L69.928,51.568 L69.928,52 L73.336,52 Z M76.864,45.832 L72.832,45.832 L72.832,43.216 L76.864,43.216 C77.328,43.216 77.716,43.316 78.028,43.516 C78.34,43.716 78.496,44.064 78.496,44.56 C78.496,45.072 78.34,45.412 78.028,45.58 C77.716,45.748 77.328,45.832 76.864,45.832 L76.864,45.832 Z M88.984,52.072 C89.864,52.072 90.692,51.972 91.468,51.772 C92.244,51.572 92.92,51.248 93.496,50.8 C94.072,50.352 94.528,49.788 94.864,49.108 C95.2,48.428 95.368,47.632 95.368,46.72 C95.368,45.808 95.2,45.012 94.864,44.332 C94.528,43.652 94.072,43.088 93.496,42.64 C92.92,42.192 92.244,41.856 91.468,41.632 C90.692,41.408 89.864,41.296 88.984,41.296 C88.104,41.296 87.276,41.408 86.5,41.632 C85.724,41.856 85.048,42.192 84.472,42.64 C83.896,43.088 83.44,43.652 83.104,44.332 C82.768,45.012 82.6,45.808 82.6,46.72 C82.6,47.632 82.768,48.428 83.104,49.108 C83.44,49.788 83.896,50.352 84.472,50.8 C85.048,51.248 85.724,51.572 86.5,51.772 C87.276,51.972 88.104,52.072 88.984,52.072 Z M88.984,50.368 C88.472,50.368 87.972,50.284 87.484,50.116 C86.996,49.948 86.56,49.708 86.176,49.396 C85.792,49.084 85.484,48.704 85.252,48.256 C85.02,47.808 84.904,47.296 84.904,46.72 C84.904,46.144 85.02,45.632 85.252,45.184 C85.484,44.736 85.792,44.356 86.176,44.044 C86.56,43.732 86.996,43.492 87.484,43.324 C87.972,43.156 88.472,43.072 88.984,43.072 C89.496,43.072 89.996,43.156 90.484,43.324 C90.972,43.492 91.408,43.732 91.792,44.044 C92.176,44.356 92.484,44.736 92.716,45.184 C92.948,45.632 93.064,46.144 93.064,46.72 C93.064,47.296 92.948,47.808 92.716,48.256 C92.484,48.704 92.176,49.084 91.792,49.396 C91.408,49.708 90.972,49.948 90.484,50.116 C89.996,50.284 89.496,50.368 88.984,50.368 Z M101.224,52 L101.224,51.568 C100.888,51.568 100.72,51.448 100.72,51.208 L100.72,51.208 L100.72,44.224 L106.672,50.56 C106.864,50.768 107.036,50.952 107.188,51.112 C107.34,51.272 107.416,51.384 107.416,51.448 C107.416,51.528 107.36,51.568 107.248,51.568 L107.248,51.568 L107.248,52 L110.368,52 L110.368,51.568 C110.08,51.568 109.936,51.448 109.936,51.208 L109.936,51.208 L109.936,42.232 C109.936,41.992 110.08,41.872 110.368,41.872 L110.368,41.872 L110.368,41.44 L107.44,41.44 L107.44,41.872 C107.76,41.872 107.92,41.992 107.92,42.232 L107.92,42.232 L107.92,48.736 L102.16,42.64 C101.808,42.288 101.632,42.072 101.632,41.992 C101.632,41.928 101.688,41.888 101.8,41.872 L101.8,41.872 L101.8,41.44 L98.272,41.44 L98.272,41.872 C98.56,41.872 98.704,41.992 98.704,42.232 L98.704,42.232 L98.704,51.208 C98.704,51.448 98.56,51.568 98.272,51.568 L98.272,51.568 L98.272,52 L101.224,52 Z M119.92,52.072 C120.688,52.072 121.384,52.02 122.008,51.916 C122.632,51.812 123.18,51.68 123.652,51.52 C124.124,51.36 124.516,51.196 124.828,51.028 C125.14,50.86 125.368,50.728 125.512,50.632 L125.512,50.632 L125.512,50.344 C125.352,50.28 125.252,50.22 125.212,50.164 C125.172,50.108 125.152,50.008 125.152,49.864 L125.152,49.864 L125.152,47.584 C125.152,47.424 125.176,47.304 125.224,47.224 C125.272,47.144 125.368,47.072 125.512,47.008 L125.512,47.008 L125.512,46.576 L120.808,46.576 C120.632,46.576 120.48,46.552 120.352,46.504 C120.224,46.456 120.144,46.352 120.112,46.192 L120.112,46.192 L119.68,46.192 L119.68,48.664 L120.112,48.664 C120.144,48.472 120.224,48.34 120.352,48.268 C120.48,48.196 120.632,48.16 120.808,48.16 L120.808,48.16 L123.28,48.16 L123.28,49.672 C122.768,49.944 122.204,50.128 121.588,50.224 C120.972,50.32 120.32,50.368 119.632,50.368 C119.168,50.368 118.688,50.304 118.192,50.176 C117.696,50.048 117.244,49.844 116.836,49.564 C116.428,49.284 116.096,48.916 115.84,48.46 C115.584,48.004 115.456,47.44 115.456,46.768 C115.456,46.096 115.576,45.528 115.816,45.064 C116.056,44.6 116.376,44.22 116.776,43.924 C117.176,43.628 117.64,43.412 118.168,43.276 C118.696,43.14 119.256,43.072 119.848,43.072 C120.28,43.072 120.708,43.116 121.132,43.204 C121.556,43.292 121.936,43.408 122.272,43.552 C122.608,43.696 122.88,43.852 123.088,44.02 C123.296,44.188 123.4,44.344 123.4,44.488 C123.4,44.504 123.384,44.592 123.352,44.752 L123.352,44.752 L123.64,44.92 L125.032,42.304 L124.744,42.16 C124.648,42.24 124.568,42.292 124.504,42.316 C124.44,42.34 124.344,42.352 124.216,42.352 C124.104,42.352 123.936,42.296 123.712,42.184 C123.488,42.072 123.192,41.952 122.824,41.824 C122.472,41.696 122.056,41.576 121.576,41.464 C121.096,41.352 120.544,41.296 119.92,41.296 C118.88,41.296 117.94,41.42 117.1,41.668 C116.26,41.916 115.548,42.276 114.964,42.748 C114.38,43.22 113.932,43.788 113.62,44.452 C113.308,45.116 113.152,45.872 113.152,46.72 C113.152,47.568 113.308,48.324 113.62,48.988 C113.932,49.652 114.38,50.216 114.964,50.68 C115.548,51.144 116.26,51.492 117.1,51.724 C117.94,51.956 118.88,52.072 119.92,52.072 Z M138.88,52.264 L138.88,49.744 L138.448,49.744 C138.448,49.888 138.384,50.004 138.256,50.092 C138.128,50.18 137.968,50.224 137.776,50.224 L137.776,50.224 L131.632,50.224 L131.632,47.392 L135.136,47.392 C135.456,47.392 135.704,47.412 135.88,47.452 C136.056,47.492 136.12,47.6 136.072,47.776 L136.072,47.776 L136.552,47.776 L136.552,45.232 L136.12,45.232 C136.12,45.408 136.056,45.516 135.928,45.556 C135.8,45.596 135.6,45.616 135.328,45.616 L135.328,45.616 L131.632,45.616 L131.632,43.216 L137.488,43.216 C137.984,43.216 138.232,43.368 138.232,43.672 L138.232,43.672 L138.664,43.672 L138.664,41.008 L138.232,41.008 C138.232,41.296 137.984,41.44 137.488,41.44 L137.488,41.44 L128.968,41.44 L128.968,41.872 C129.048,41.872 129.128,41.9 129.208,41.956 C129.288,42.012 129.328,42.104 129.328,42.232 L129.328,42.232 L129.328,51.208 C129.328,51.336 129.288,51.428 129.208,51.484 C129.128,51.54 129.048,51.568 128.968,51.568 L128.968,51.568 L128.968,52 L137.776,52 C137.968,52 138.128,52.008 138.256,52.024 C138.384,52.04 138.448,52.12 138.448,52.264 L138.448,52.264 L138.88,52.264 Z M153.376,52 L153.376,51.568 C152.928,51.568 152.704,51.424 152.704,51.136 L152.704,51.136 L152.704,43.144 L152.752,43.144 L157.48,52 L157.552,52 L162.376,43.168 L162.424,43.168 L162.424,51.136 C162.424,51.424 162.208,51.568 161.776,51.568 L161.776,51.568 L161.776,52 L165.544,52 L165.544,51.568 C165.416,51.568 165.304,51.532 165.208,51.46 C165.112,51.388 165.064,51.28 165.064,51.136 L165.064,51.136 L165.064,40.192 C165.064,40.048 165.112,39.948 165.208,39.892 C165.304,39.836 165.416,39.808 165.544,39.808 L165.544,39.808 L165.544,39.376 L161.104,39.376 L161.104,39.808 C161.312,39.808 161.416,39.896 161.416,40.072 C161.416,40.168 161.388,40.276 161.332,40.396 C161.276,40.516 161.192,40.68 161.08,40.888 L161.08,40.888 L157.624,47.056 L154.192,40.816 C154.112,40.672 154.04,40.536 153.976,40.408 C153.912,40.28 153.88,40.176 153.88,40.096 C153.88,40 153.924,39.928 154.012,39.88 C154.1,39.832 154.184,39.808 154.264,39.808 L154.264,39.808 L154.264,39.376 L149.776,39.376 L149.776,39.808 C149.904,39.808 150.016,39.836 150.112,39.892 C150.208,39.948 150.256,40.048 150.256,40.192 L150.256,40.192 L150.256,51.136 C150.256,51.28 150.208,51.388 150.112,51.46 C150.016,51.532 149.904,51.568 149.776,51.568 L149.776,51.568 L149.776,52 L153.376,52 Z M171.232,52 L171.232,51.568 C171.088,51.568 170.976,51.552 170.896,51.52 C170.816,51.488 170.776,51.408 170.776,51.28 C170.776,51.2 170.796,51.108 170.836,51.004 C170.876,50.9 170.928,50.784 170.992,50.656 L170.992,50.656 L171.664,49.36 L176.8,49.36 L177.448,50.728 C177.496,50.856 177.536,50.96 177.568,51.04 C177.6,51.12 177.616,51.208 177.616,51.304 C177.616,51.432 177.572,51.52 177.484,51.568 C177.396,51.616 177.312,51.64 177.232,51.64 L177.232,51.64 L177.232,52 L180.64,52 L180.64,51.568 C180.528,51.536 180.424,51.488 180.328,51.424 C180.232,51.36 180.144,51.256 180.064,51.112 L180.064,51.112 L176.176,42.952 C176.096,42.776 176.02,42.62 175.948,42.484 C175.876,42.348 175.84,42.232 175.84,42.136 C175.84,42.024 175.868,41.96 175.924,41.944 C175.98,41.928 176.032,41.904 176.08,41.872 L176.08,41.872 L176.08,41.44 L172.456,41.44 L172.456,41.872 C172.504,41.904 172.548,41.932 172.588,41.956 C172.628,41.98 172.648,42.04 172.648,42.136 C172.648,42.264 172.62,42.396 172.564,42.532 C172.508,42.668 172.432,42.848 172.336,43.072 L172.336,43.072 L168.76,50.872 C168.696,51 168.604,51.14 168.484,51.292 C168.364,51.444 168.208,51.536 168.016,51.568 L168.016,51.568 L168.016,52 L171.232,52 Z M176.032,47.584 L172.384,47.584 L174.088,43.552 L176.032,47.584 Z M187.48,52.072 C188.024,52.072 188.604,52.032 189.22,51.952 C189.836,51.872 190.4,51.704 190.912,51.448 C191.424,51.192 191.852,50.84 192.196,50.392 C192.54,49.944 192.712,49.368 192.712,48.664 C192.712,47.96 192.516,47.408 192.124,47.008 C191.732,46.608 191.24,46.304 190.648,46.096 C190.056,45.888 189.416,45.74 188.728,45.652 C188.04,45.564 187.4,45.476 186.808,45.388 C186.216,45.3 185.724,45.18 185.332,45.028 C184.94,44.876 184.744,44.624 184.744,44.272 C184.744,44.048 184.808,43.86 184.936,43.708 C185.064,43.556 185.24,43.432 185.464,43.336 C185.688,43.24 185.944,43.172 186.232,43.132 C186.52,43.092 186.824,43.072 187.144,43.072 C187.976,43.072 188.728,43.168 189.4,43.36 C190.072,43.552 190.568,43.784 190.888,44.056 C191.016,44.152 191.088,44.248 191.104,44.344 C191.12,44.44 191.136,44.536 191.152,44.632 L191.152,44.632 L191.584,44.776 L192.784,42.52 L192.52,42.256 C192.424,42.304 192.344,42.348 192.28,42.388 C192.216,42.428 192.12,42.448 191.992,42.448 C191.88,42.448 191.708,42.388 191.476,42.268 C191.244,42.148 190.944,42.016 190.576,41.872 C190.208,41.728 189.756,41.596 189.22,41.476 C188.684,41.356 188.04,41.296 187.288,41.296 C185.752,41.296 184.56,41.6 183.712,42.208 C182.864,42.816 182.44,43.632 182.44,44.656 C182.44,45.344 182.636,45.876 183.028,46.252 C183.42,46.628 183.912,46.916 184.504,47.116 C185.096,47.316 185.736,47.46 186.424,47.548 C187.112,47.636 187.752,47.724 188.344,47.812 C188.936,47.9 189.428,48.024 189.82,48.184 C190.212,48.344 190.408,48.6 190.408,48.952 C190.408,49.256 190.296,49.5 190.072,49.684 C189.848,49.868 189.576,50.012 189.256,50.116 C188.936,50.22 188.612,50.288 188.284,50.32 C187.956,50.352 187.68,50.368 187.456,50.368 C187.216,50.368 186.884,50.328 186.46,50.248 C186.036,50.168 185.612,50.06 185.188,49.924 C184.764,49.788 184.4,49.62 184.096,49.42 C183.792,49.22 183.64,49 183.64,48.76 C183.64,48.68 183.644,48.604 183.652,48.532 C183.66,48.46 183.664,48.392 183.664,48.328 L183.664,48.328 L183.208,48.208 L182.104,50.896 L182.44,51.136 C182.52,51.04 182.616,50.992 182.728,50.992 C182.792,50.992 182.976,51.052 183.28,51.172 C183.584,51.292 183.956,51.42 184.396,51.556 C184.836,51.692 185.324,51.812 185.86,51.916 C186.396,52.02 186.936,52.072 187.48,52.072 Z M199.264,52 L199.264,51.568 C198.96,51.568 198.808,51.448 198.808,51.208 L198.808,51.208 L198.808,48.52 L200.68,47.032 L203.632,50.632 C203.84,50.872 203.98,51.048 204.052,51.16 C204.124,51.272 204.16,51.36 204.16,51.424 C204.16,51.52 204.072,51.568 203.896,51.568 L203.896,51.568 L203.896,52 L207.448,52 L207.448,51.568 C207.224,51.504 207,51.348 206.776,51.1 C206.552,50.852 206.344,50.608 206.152,50.368 L206.152,50.368 L202.36,45.664 L206.368,42.424 C206.752,42.12 207.04,41.936 207.232,41.872 L207.232,41.872 L207.232,41.44 L203.272,41.44 L203.272,41.8 C203.352,41.8 203.436,41.824 203.524,41.872 C203.612,41.92 203.656,41.984 203.656,42.064 C203.656,42.128 203.504,42.292 203.2,42.556 C202.896,42.82 202.512,43.144 202.048,43.528 C201.584,43.912 201.064,44.332 200.488,44.788 C199.912,45.244 199.352,45.696 198.808,46.144 L198.808,46.144 L198.808,42.232 C198.808,41.992 198.96,41.872 199.264,41.872 L199.264,41.872 L199.264,41.44 L196.12,41.44 L196.12,41.872 C196.376,41.872 196.504,41.992 196.504,42.232 L196.504,42.232 L196.504,51.208 C196.504,51.448 196.376,51.568 196.12,51.568 L196.12,51.568 L196.12,52 L199.264,52 Z" id="SpongeMask" fill="#000000" fill-rule="nonzero"></path>
        <path d="M217.624,30 L217.624,29.712 C217.464,29.712 217.32,29.668 217.192,29.58 C217.064,29.492 217,29.312 217,29.04 L217,29.04 L217,18.048 C217,17.888 217.064,17.768 217.192,17.688 C217.32,17.608 217.48,17.552 217.672,17.52 L217.672,17.52 L217.672,17.232 L213.784,17.232 L213.784,17.52 C213.96,17.552 214.1,17.6 214.204,17.664 C214.308,17.728 214.36,17.872 214.36,18.096 C214.36,18.336 214.268,18.54 214.084,18.708 C213.9,18.876 213.672,18.96 213.4,18.96 C213.272,18.96 213.136,18.932 212.992,18.876 C212.848,18.82 212.776,18.72 212.776,18.576 L212.776,18.576 L212.488,18.576 L212.488,21.6 L212.776,21.6 C212.824,21.472 212.908,21.372 213.028,21.3 C213.148,21.228 213.28,21.172 213.424,21.132 C213.568,21.092 213.716,21.064 213.868,21.048 C214.02,21.032 214.152,21.024 214.264,21.024 L214.264,21.024 L214.264,29.04 C214.264,29.312 214.204,29.492 214.084,29.58 C213.964,29.668 213.824,29.712 213.664,29.712 L213.664,29.712 L213.664,30 L217.624,30 Z" id="1" fill="#000000" fill-rule="nonzero"></path>
        <rect id="Rectangle" stroke="#000000" stroke-width="3" x="17.5" y="283.5" width="225" height="58" rx="8"></rect>
        <g id="Shield" transform="translate(228.000000, 14.000000)">
            <path d="M8.49995999,0.602112563 C12.0897673,3.01641898 14.3691227,5.26828283 15.2949432,7.38765451 C16.2117539,9.48640089 16.5982137,12.4858222 16.4790644,16.3788474 C14.3118398,16.4138174 12.5519303,16.6869111 11.1969506,17.1872006 C9.99244943,17.63193 9.09798447,18.2570837 8.49839684,19.0475319 C7.89890333,18.2569851 7.00448445,17.6318949 5.80007824,17.1872006 C4.44518737,16.6869438 2.68541961,16.4138532 0.518468664,16.3785506 C0.406586815,12.4686409 0.792651083,9.46951569 1.70208563,7.38765451 C2.62063669,5.28492398 4.90094203,3.03287984 8.49995999,0.602112563 Z" id="Triangle" stroke="#000000" transform="translate(8.500000, 10.000000) scale(1, -1) translate(-8.500000, -10.000000) "></path>
            <path d="M8.49896481,3 C11.1890912,4.79034724 12.8741761,6.46743058 13.5542196,8.03125 C14.2342631,9.59506942 14.5151106,11.8554861 14.3967621,14.8125 C11.167016,14.8125 9.20108353,15.5416667 8.49896481,17 C7.79684609,15.5416667 5.83091366,14.8125 2.60116754,14.8125 C2.48836139,11.8427409 2.76920888,9.58232426 3.44371001,8.03125 C4.11821113,6.48017574 5.80329607,4.80309241 8.49896481,3 Z" id="Triangle-Copy" fill="#000000" transform="translate(8.500000, 10.000000) scale(1, -1) translate(-8.500000, -10.000000) "></path>
        </g>
    </g>
</svg>