<?xml version="1.0" encoding="UTF-8"?>
<svg width="262px" height="360px" viewBox="0 0 262 360" version="1.1" xmlns="http://www.w3.org/2000/svg" xmlns:xlink="http://www.w3.org/1999/xlink">
    <title>Diarrhea 1</title>
    <g id="Diarrhea-1" stroke="none" stroke-width="1" fill="none" fill-rule="evenodd">
        <g id="Group" transform="translate(9.000000, 9.000000)" fill="#FFFFFF" stroke="#000000" stroke-width="3">
            <g id="Rectangle">
                <rect x="1.5" y="1.5" width="239" height="337" rx="8"></rect>
            </g>
        </g>
        <path d="M216.124,30 L216.124,29.712 C215.964,29.712 215.82,29.668 215.692,29.58 C215.564,29.492 215.5,29.312 215.5,29.04 L215.5,29.04 L215.5,18.048 C215.5,17.888 215.564,17.768 215.692,17.688 C215.82,17.608 215.98,17.552 216.172,17.52 L216.172,17.52 L216.172,17.232 L212.284,17.232 L212.284,17.52 C212.46,17.552 212.6,17.6 212.704,17.664 C212.808,17.728 212.86,17.872 212.86,18.096 C212.86,18.336 212.768,18.54 212.584,18.708 C212.4,18.876 212.172,18.96 211.9,18.96 C211.772,18.96 211.636,18.932 211.492,18.876 C211.348,18.82 211.276,18.72 211.276,18.576 L211.276,18.576 L210.988,18.576 L210.988,21.6 L211.276,21.6 C211.324,21.472 211.408,21.372 211.528,21.3 C211.648,21.228 211.78,21.172 211.924,21.132 C212.068,21.092 212.216,21.064 212.368,21.048 C212.52,21.032 212.652,21.024 212.764,21.024 L212.764,21.024 L212.764,29.04 C212.764,29.312 212.704,29.492 212.584,29.58 C212.464,29.668 212.324,29.712 212.164,29.712 L212.164,29.712 L212.164,30 L216.124,30 Z" id="1" fill="#000000" fill-rule="nonzero"></path>
        <g id="Face" transform="translate(225.000000, 15.000000)">
            <circle id="Oval" stroke="#000000" fill="#FFFFFF" cx="9.5" cy="9.5" r="9"></circle>
            <circle id="Oval" fill="#000000" cx="5" cy="8" r="1"></circle>
            <circle id="Oval-Copy" fill="#000000" cx="12" cy="8" r="1"></circle>
            <line x1="12.0789474" y1="13.9090909" x2="14.5" y2="11.5" id="Line-4" stroke="#000000" stroke-linecap="round"></line>
            <path d="M3,5.89285714 C3.41025641,5.96428571 3.76923077,6 4.07692308,6 C4.38461538,6 5.35897436,5.33333333 7,4" id="Line-2" stroke="#000000"></path>
            <path d="M6,15 C6.96078431,14.3333333 8.07598039,14 9.34558824,14 C10.6151961,14 11.8333333,14.3333333 13,15" id="Line" stroke="#000000" stroke-linecap="round" stroke-linejoin="round"></path>
            <path d="M11.3197366,4.68245322 C11.585843,4.80663622 11.7912611,4.92388646 11.9359908,5.03420394 C12.548667,5.50120471 13.1333088,5.70898724 13.3155349,5.80010028 C13.5440857,5.91437569 13.8101922,6.00751295 14.1138542,6.07951204" id="Line-3" stroke="#000000" stroke-linecap="square" transform="translate(12.716795, 5.380983) rotate(-3.000000) translate(-12.716795, -5.380983) "></path>
            <path d="M2.999,9.347 L3.01687864,9.39698204 C3.09438102,9.62639002 3.1880913,9.89570266 3.30282211,10.2112791 C3.48139895,10.7024692 3.54804655,11.0169045 3.47980817,11.2204078 C3.41244402,11.421304 3.17143148,11.4011566 3.01518318,11.4416373 L3.01518318,11.4416373 L2.86575433,11.4813457 C2.78836954,11.5029149 2.70310591,11.5126925 2.63007237,11.4810832 C2.58941161,11.463485 2.56030088,11.4264037 2.54036126,11.376794 C2.4446463,11.1386559 2.49784548,10.759559 2.69717789,10.2112791 C2.8119087,9.89570266 2.90561898,9.62639002 2.98312136,9.39698204 L2.999,9.347 Z" id="Oval" stroke="#000000"></path>
            <path d="M16,6.347 L16.0168786,6.39698204 C16.094381,6.62639002 16.1880913,6.89570266 16.3028221,7.21127907 C16.481399,7.70246915 16.5480465,8.01690453 16.4798082,8.22040783 C16.412444,8.42130397 16.1714315,8.40115659 16.0151832,8.44163726 L16.0151832,8.44163726 L15.8657543,8.48134574 C15.7883695,8.50291486 15.7031059,8.51269255 15.6300724,8.48108319 C15.5894116,8.46348497 15.5603009,8.42640366 15.5403613,8.37679403 C15.4446463,8.13865595 15.4978455,7.75955902 15.6971779,7.21127907 C15.8119087,6.89570266 15.905619,6.62639002 15.9831214,6.39698204 L16,6.347 Z" id="Oval-Copy-2" stroke="#000000"></path>
        </g>
        <rect id="Rectangle" stroke="#000000" stroke-width="3" x="17.5" y="268.5" width="225" height="73" rx="8"></rect>
        <path d="M62.6,57 C63.92,57 65.15,56.808 66.29,56.424 C67.43,56.04 68.42,55.458 69.26,54.678 C70.1,53.898 70.76,52.914 71.24,51.726 C71.72,50.538 71.96,49.14 71.96,47.532 C71.96,45.924 71.72,44.526 71.24,43.338 C70.76,42.15 70.1,41.166 69.26,40.386 C68.42,39.606 67.43,39.024 66.29,38.64 C65.15,38.256 63.92,38.064 62.6,38.064 L62.6,38.064 L50.648,38.064 L50.648,38.712 C51.2,38.712 51.476,38.928 51.476,39.36 L51.476,39.36 L51.476,55.704 C51.476,56.136 51.2,56.352 50.648,56.352 L50.648,56.352 L50.648,57 L62.6,57 Z M61.16,53.904 L55.58,53.904 L55.58,41.16 L61.16,41.16 C62.288,41.16 63.272,41.256 64.112,41.448 C64.952,41.64 65.648,41.982 66.2,42.474 C66.752,42.966 67.166,43.62 67.442,44.436 C67.718,45.252 67.856,46.284 67.856,47.532 C67.856,48.78 67.718,49.812 67.442,50.628 C67.166,51.444 66.752,52.098 66.2,52.59 C65.648,53.082 64.952,53.424 64.112,53.616 C63.272,53.808 62.288,53.904 61.16,53.904 L61.16,53.904 Z M82.688,57 L82.688,56.352 C82.016,56.352 81.68,56.172 81.68,55.812 L81.68,55.812 L81.68,42.348 C81.68,41.988 82.016,41.808 82.688,41.808 L82.688,41.808 L82.688,41.16 L77.216,41.16 L77.216,41.808 C77.6,41.808 77.864,41.85 78.008,41.934 C78.152,42.018 78.224,42.156 78.224,42.348 L78.224,42.348 L78.224,55.812 C78.224,56.004 78.152,56.142 78.008,56.226 C77.864,56.31 77.6,56.352 77.216,56.352 L77.216,56.352 L77.216,57 L82.688,57 Z M91.328,57 L91.328,56.352 C91.112,56.352 90.944,56.328 90.824,56.28 C90.704,56.232 90.644,56.112 90.644,55.92 C90.644,55.8 90.674,55.662 90.734,55.506 C90.794,55.35 90.872,55.176 90.968,54.984 L90.968,54.984 L91.976,53.04 L99.68,53.04 L100.652,55.092 C100.724,55.284 100.784,55.44 100.832,55.56 C100.88,55.68 100.904,55.812 100.904,55.956 C100.904,56.148 100.838,56.28 100.706,56.352 C100.574,56.424 100.448,56.46 100.328,56.46 L100.328,56.46 L100.328,57 L105.44,57 L105.44,56.352 C105.272,56.304 105.116,56.232 104.972,56.136 C104.828,56.04 104.696,55.884 104.576,55.668 L104.576,55.668 L98.744,43.428 C98.624,43.164 98.51,42.93 98.402,42.726 C98.294,42.522 98.24,42.348 98.24,42.204 C98.24,42.036 98.282,41.94 98.366,41.916 C98.45,41.892 98.528,41.856 98.6,41.808 L98.6,41.808 L98.6,41.16 L93.164,41.16 L93.164,41.808 C93.236,41.856 93.302,41.898 93.362,41.934 C93.422,41.97 93.452,42.06 93.452,42.204 C93.452,42.396 93.41,42.594 93.326,42.798 C93.242,43.002 93.128,43.272 92.984,43.608 L92.984,43.608 L87.62,55.308 C87.524,55.5 87.386,55.71 87.206,55.938 C87.026,56.166 86.792,56.304 86.504,56.352 L86.504,56.352 L86.504,57 L91.328,57 Z M98.528,50.376 L93.056,50.376 L95.612,44.328 L98.528,50.376 Z M113.576,57 L113.576,56.352 C113.432,56.352 113.282,56.31 113.126,56.226 C112.97,56.142 112.892,56.004 112.892,55.812 L112.892,55.812 L112.892,50.664 L117.896,50.664 L120.74,54.912 C121.1,55.416 121.28,55.788 121.28,56.028 C121.28,56.244 121.124,56.352 120.812,56.352 L120.812,56.352 L120.812,57 L126.32,57 L126.32,56.352 C126.056,56.28 125.81,56.178 125.582,56.046 C125.354,55.914 125.144,55.716 124.952,55.452 L124.952,55.452 L121.424,50.304 C121.928,50.184 122.42,50.01 122.9,49.782 C123.38,49.554 123.818,49.254 124.214,48.882 C124.61,48.51 124.928,48.072 125.168,47.568 C125.408,47.064 125.528,46.488 125.528,45.84 C125.528,44.136 124.928,42.93 123.728,42.222 C122.528,41.514 120.86,41.16 118.724,41.16 L118.724,41.16 L108.788,41.16 L108.788,41.808 C109.22,41.808 109.436,41.988 109.436,42.348 L109.436,42.348 L109.436,55.812 C109.436,56.172 109.22,56.352 108.788,56.352 L108.788,56.352 L108.788,57 L113.576,57 Z M118.652,48 L112.964,48 L112.964,43.824 L118.652,43.824 C119.876,43.824 120.77,43.998 121.334,44.346 C121.898,44.694 122.18,45.168 122.18,45.768 C122.18,47.256 121.004,48 118.652,48 L118.652,48 Z M135.572,57 L135.572,56.352 C135.428,56.352 135.278,56.31 135.122,56.226 C134.966,56.142 134.888,56.004 134.888,55.812 L134.888,55.812 L134.888,50.664 L139.892,50.664 L142.736,54.912 C143.096,55.416 143.276,55.788 143.276,56.028 C143.276,56.244 143.12,56.352 142.808,56.352 L142.808,56.352 L142.808,57 L148.316,57 L148.316,56.352 C148.052,56.28 147.806,56.178 147.578,56.046 C147.35,55.914 147.14,55.716 146.948,55.452 L146.948,55.452 L143.42,50.304 C143.924,50.184 144.416,50.01 144.896,49.782 C145.376,49.554 145.814,49.254 146.21,48.882 C146.606,48.51 146.924,48.072 147.164,47.568 C147.404,47.064 147.524,46.488 147.524,45.84 C147.524,44.136 146.924,42.93 145.724,42.222 C144.524,41.514 142.856,41.16 140.72,41.16 L140.72,41.16 L130.784,41.16 L130.784,41.808 C131.216,41.808 131.432,41.988 131.432,42.348 L131.432,42.348 L131.432,55.812 C131.432,56.172 131.216,56.352 130.784,56.352 L130.784,56.352 L130.784,57 L135.572,57 Z M140.648,48 L134.96,48 L134.96,43.824 L140.648,43.824 C141.872,43.824 142.766,43.998 143.33,44.346 C143.894,44.694 144.176,45.168 144.176,45.768 C144.176,47.256 143,48 140.648,48 L140.648,48 Z M157.676,57 L157.676,56.352 C157.532,56.352 157.406,56.31 157.298,56.226 C157.19,56.142 157.136,56.004 157.136,55.812 L157.136,55.812 L157.136,50.376 L166.784,50.376 L166.784,55.812 C166.784,56.004 166.73,56.142 166.622,56.226 C166.514,56.31 166.388,56.352 166.244,56.352 L166.244,56.352 L166.244,57 L170.78,57 L170.78,56.352 C170.636,56.352 170.51,56.31 170.402,56.226 C170.294,56.142 170.24,56.004 170.24,55.812 L170.24,55.812 L170.24,42.348 C170.24,42.156 170.294,42.018 170.402,41.934 C170.51,41.85 170.636,41.808 170.78,41.808 L170.78,41.808 L170.78,41.16 L166.244,41.16 L166.244,41.808 C166.388,41.808 166.514,41.85 166.622,41.934 C166.73,42.018 166.784,42.156 166.784,42.348 L166.784,42.348 L166.784,47.424 L157.136,47.424 L157.136,42.348 C157.136,42.156 157.19,42.018 157.298,41.934 C157.406,41.85 157.532,41.808 157.676,41.808 L157.676,41.808 L157.676,41.16 L153.14,41.16 L153.14,41.808 C153.284,41.808 153.41,41.85 153.518,41.934 C153.626,42.018 153.68,42.156 153.68,42.348 L153.68,42.348 L153.68,55.812 C153.68,56.004 153.626,56.142 153.518,56.226 C153.41,56.31 153.284,56.352 153.14,56.352 L153.14,56.352 L153.14,57 L157.676,57 Z M191.804,57.396 L191.804,53.616 L191.156,53.616 C191.156,53.832 191.06,54.006 190.868,54.138 C190.676,54.27 190.436,54.336 190.148,54.336 L190.148,54.336 L180.932,54.336 L180.932,50.088 L186.188,50.088 C186.668,50.088 187.04,50.118 187.304,50.178 C187.568,50.238 187.664,50.4 187.592,50.664 L187.592,50.664 L188.312,50.664 L188.312,46.848 L187.664,46.848 C187.664,47.112 187.568,47.274 187.376,47.334 C187.184,47.394 186.884,47.424 186.476,47.424 L186.476,47.424 L180.932,47.424 L180.932,43.824 L189.716,43.824 C190.46,43.824 190.832,44.052 190.832,44.508 L190.832,44.508 L191.48,44.508 L191.48,40.512 L190.832,40.512 C190.832,40.944 190.46,41.16 189.716,41.16 L189.716,41.16 L176.936,41.16 L176.936,41.808 C177.056,41.808 177.176,41.85 177.296,41.934 C177.416,42.018 177.476,42.156 177.476,42.348 L177.476,42.348 L177.476,55.812 C177.476,56.004 177.416,56.142 177.296,56.226 C177.176,56.31 177.056,56.352 176.936,56.352 L176.936,56.352 L176.936,57 L190.148,57 C190.436,57 190.676,57.012 190.868,57.036 C191.06,57.06 191.156,57.18 191.156,57.396 L191.156,57.396 L191.804,57.396 Z M199.364,57 L199.364,56.352 C199.148,56.352 198.98,56.328 198.86,56.28 C198.74,56.232 198.68,56.112 198.68,55.92 C198.68,55.8 198.71,55.662 198.77,55.506 C198.83,55.35 198.908,55.176 199.004,54.984 L199.004,54.984 L200.012,53.04 L207.716,53.04 L208.688,55.092 C208.76,55.284 208.82,55.44 208.868,55.56 C208.916,55.68 208.94,55.812 208.94,55.956 C208.94,56.148 208.874,56.28 208.742,56.352 C208.61,56.424 208.484,56.46 208.364,56.46 L208.364,56.46 L208.364,57 L213.476,57 L213.476,56.352 C213.308,56.304 213.152,56.232 213.008,56.136 C212.864,56.04 212.732,55.884 212.612,55.668 L212.612,55.668 L206.78,43.428 C206.66,43.164 206.546,42.93 206.438,42.726 C206.33,42.522 206.276,42.348 206.276,42.204 C206.276,42.036 206.318,41.94 206.402,41.916 C206.486,41.892 206.564,41.856 206.636,41.808 L206.636,41.808 L206.636,41.16 L201.2,41.16 L201.2,41.808 C201.272,41.856 201.338,41.898 201.398,41.934 C201.458,41.97 201.488,42.06 201.488,42.204 C201.488,42.396 201.446,42.594 201.362,42.798 C201.278,43.002 201.164,43.272 201.02,43.608 L201.02,43.608 L195.656,55.308 C195.56,55.5 195.422,55.71 195.242,55.938 C195.062,56.166 194.828,56.304 194.54,56.352 L194.54,56.352 L194.54,57 L199.364,57 Z M206.564,50.376 L201.092,50.376 L203.648,44.328 L206.564,50.376 Z" id="Diarrhea" fill="#000000" fill-rule="nonzero"></path>
        <path d="M63.661,289 L63.661,288.676 C63.397,288.676 63.265,288.568 63.265,288.352 L63.265,288.352 L63.265,281.188 L66.235,281.188 C66.343,281.188 66.448,281.218 66.55,281.278 C66.652,281.338 66.703,281.452 66.703,281.62 L66.703,281.62 L67.027,281.62 L67.027,279.1 L66.703,279.1 C66.703,279.268 66.652,279.382 66.55,279.442 C66.448,279.502 66.343,279.532 66.235,279.532 L66.235,279.532 L58.243,279.532 C58.135,279.532 58.03,279.502 57.928,279.442 C57.826,279.382 57.775,279.268 57.775,279.1 L57.775,279.1 L57.451,279.1 L57.451,281.62 L57.775,281.62 C57.775,281.452 57.826,281.338 57.928,281.278 C58.03,281.218 58.135,281.188 58.243,281.188 L58.243,281.188 L61.213,281.188 L61.213,288.352 C61.213,288.46 61.18,288.541 61.114,288.595 C61.048,288.649 60.973,288.676 60.889,288.676 L60.889,288.676 L60.889,289 L63.661,289 Z M71.599,289 L71.599,288.676 C71.527,288.676 71.464,288.655 71.41,288.613 C71.356,288.571 71.329,288.502 71.329,288.406 L71.329,288.406 L71.329,285.688 L76.153,285.688 L76.153,288.406 C76.153,288.502 76.126,288.571 76.072,288.613 C76.018,288.655 75.955,288.676 75.883,288.676 L75.883,288.676 L75.883,289 L78.151,289 L78.151,288.676 C78.079,288.676 78.016,288.655 77.962,288.613 C77.908,288.571 77.881,288.502 77.881,288.406 L77.881,288.406 L77.881,281.674 C77.881,281.578 77.908,281.509 77.962,281.467 C78.016,281.425 78.079,281.404 78.151,281.404 L78.151,281.404 L78.151,281.08 L75.883,281.08 L75.883,281.404 C75.955,281.404 76.018,281.425 76.072,281.467 C76.126,281.509 76.153,281.578 76.153,281.674 L76.153,281.674 L76.153,284.212 L71.329,284.212 L71.329,281.674 C71.329,281.578 71.356,281.509 71.41,281.467 C71.464,281.425 71.527,281.404 71.599,281.404 L71.599,281.404 L71.599,281.08 L69.331,281.08 L69.331,281.404 C69.403,281.404 69.466,281.425 69.52,281.467 C69.574,281.509 69.601,281.578 69.601,281.674 L69.601,281.674 L69.601,288.406 C69.601,288.502 69.574,288.571 69.52,288.613 C69.466,288.655 69.403,288.676 69.331,288.676 L69.331,288.676 L69.331,289 L71.599,289 Z M88.663,289.198 L88.663,287.308 L88.339,287.308 C88.339,287.416 88.291,287.503 88.195,287.569 C88.099,287.635 87.979,287.668 87.835,287.668 L87.835,287.668 L83.227,287.668 L83.227,285.544 L85.855,285.544 C86.095,285.544 86.281,285.559 86.413,285.589 C86.545,285.619 86.593,285.7 86.557,285.832 L86.557,285.832 L86.917,285.832 L86.917,283.924 L86.593,283.924 C86.593,284.056 86.545,284.137 86.449,284.167 C86.353,284.197 86.203,284.212 85.999,284.212 L85.999,284.212 L83.227,284.212 L83.227,282.412 L87.619,282.412 C87.991,282.412 88.177,282.526 88.177,282.754 L88.177,282.754 L88.501,282.754 L88.501,280.756 L88.177,280.756 C88.177,280.972 87.991,281.08 87.619,281.08 L87.619,281.08 L81.229,281.08 L81.229,281.404 C81.289,281.404 81.349,281.425 81.409,281.467 C81.469,281.509 81.499,281.578 81.499,281.674 L81.499,281.674 L81.499,288.406 C81.499,288.502 81.469,288.571 81.409,288.613 C81.349,288.655 81.289,288.676 81.229,288.676 L81.229,288.676 L81.229,289 L87.835,289 C87.979,289 88.099,289.006 88.195,289.018 C88.291,289.03 88.339,289.09 88.339,289.198 L88.339,289.198 L88.663,289.198 Z M99.013,289 L99.013,288.676 C98.761,288.676 98.635,288.586 98.635,288.406 L98.635,288.406 L98.635,285.706 L101.695,285.706 C102.667,285.706 103.396,285.541 103.882,285.211 C104.368,284.881 104.611,284.284 104.611,283.42 C104.611,282.556 104.368,281.95 103.882,281.602 C103.396,281.254 102.667,281.08 101.695,281.08 L101.695,281.08 L96.457,281.08 L96.457,281.404 C96.757,281.404 96.907,281.494 96.907,281.674 L96.907,281.674 L96.907,288.406 C96.907,288.586 96.757,288.676 96.457,288.676 L96.457,288.676 L96.457,289 L99.013,289 Z M101.659,284.374 L98.635,284.374 L98.635,282.412 L101.659,282.412 C102.007,282.412 102.298,282.487 102.532,282.637 C102.766,282.787 102.883,283.048 102.883,283.42 C102.883,283.804 102.766,284.059 102.532,284.185 C102.298,284.311 102.007,284.374 101.659,284.374 L101.659,284.374 Z M110.749,289.054 C111.409,289.054 112.03,288.979 112.612,288.829 C113.194,288.679 113.701,288.436 114.133,288.1 C114.565,287.764 114.907,287.341 115.159,286.831 C115.411,286.321 115.537,285.724 115.537,285.04 C115.537,284.356 115.411,283.759 115.159,283.249 C114.907,282.739 114.565,282.316 114.133,281.98 C113.701,281.644 113.194,281.392 112.612,281.224 C112.03,281.056 111.409,280.972 110.749,280.972 C110.089,280.972 109.468,281.056 108.886,281.224 C108.304,281.392 107.797,281.644 107.365,281.98 C106.933,282.316 106.591,282.739 106.339,283.249 C106.087,283.759 105.961,284.356 105.961,285.04 C105.961,285.724 106.087,286.321 106.339,286.831 C106.591,287.341 106.933,287.764 107.365,288.1 C107.797,288.436 108.304,288.679 108.886,288.829 C109.468,288.979 110.089,289.054 110.749,289.054 Z M110.749,287.776 C110.365,287.776 109.99,287.713 109.624,287.587 C109.258,287.461 108.931,287.281 108.643,287.047 C108.355,286.813 108.124,286.528 107.95,286.192 C107.776,285.856 107.689,285.472 107.689,285.04 C107.689,284.608 107.776,284.224 107.95,283.888 C108.124,283.552 108.355,283.267 108.643,283.033 C108.931,282.799 109.258,282.619 109.624,282.493 C109.99,282.367 110.365,282.304 110.749,282.304 C111.133,282.304 111.508,282.367 111.874,282.493 C112.24,282.619 112.567,282.799 112.855,283.033 C113.143,283.267 113.374,283.552 113.548,283.888 C113.722,284.224 113.809,284.608 113.809,285.04 C113.809,285.472 113.722,285.856 113.548,286.192 C113.374,286.528 113.143,286.813 112.855,287.047 C112.567,287.281 112.24,287.461 111.874,287.587 C111.508,287.713 111.133,287.776 110.749,287.776 Z M121.747,289.054 C122.407,289.054 123.028,288.979 123.61,288.829 C124.192,288.679 124.699,288.436 125.131,288.1 C125.563,287.764 125.905,287.341 126.157,286.831 C126.409,286.321 126.535,285.724 126.535,285.04 C126.535,284.356 126.409,283.759 126.157,283.249 C125.905,282.739 125.563,282.316 125.131,281.98 C124.699,281.644 124.192,281.392 123.61,281.224 C123.028,281.056 122.407,280.972 121.747,280.972 C121.087,280.972 120.466,281.056 119.884,281.224 C119.302,281.392 118.795,281.644 118.363,281.98 C117.931,282.316 117.589,282.739 117.337,283.249 C117.085,283.759 116.959,284.356 116.959,285.04 C116.959,285.724 117.085,286.321 117.337,286.831 C117.589,287.341 117.931,287.764 118.363,288.1 C118.795,288.436 119.302,288.679 119.884,288.829 C120.466,288.979 121.087,289.054 121.747,289.054 Z M121.747,287.776 C121.363,287.776 120.988,287.713 120.622,287.587 C120.256,287.461 119.929,287.281 119.641,287.047 C119.353,286.813 119.122,286.528 118.948,286.192 C118.774,285.856 118.687,285.472 118.687,285.04 C118.687,284.608 118.774,284.224 118.948,283.888 C119.122,283.552 119.353,283.267 119.641,283.033 C119.929,282.799 120.256,282.619 120.622,282.493 C120.988,282.367 121.363,282.304 121.747,282.304 C122.131,282.304 122.506,282.367 122.872,282.493 C123.238,282.619 123.565,282.799 123.853,283.033 C124.141,283.267 124.372,283.552 124.546,283.888 C124.72,284.224 124.807,284.608 124.807,285.04 C124.807,285.472 124.72,285.856 124.546,286.192 C124.372,286.528 124.141,286.813 123.853,287.047 C123.565,287.281 123.238,287.461 122.872,287.587 C122.506,287.713 122.131,287.776 121.747,287.776 Z M141.997,289.18 L141.997,287.29 L141.673,287.29 C141.673,287.41 141.625,287.503 141.529,287.569 C141.433,287.635 141.313,287.668 141.169,287.668 L141.169,287.668 L136.309,287.668 L136.309,281.674 C136.309,281.494 136.447,281.404 136.723,281.404 L136.723,281.404 L136.723,281.08 L134.113,281.08 L134.113,281.404 C134.425,281.404 134.581,281.494 134.581,281.674 L134.581,281.674 L134.581,288.406 C134.581,288.586 134.425,288.676 134.113,288.676 L134.113,288.676 L134.113,289 L141.169,289 C141.313,289 141.433,289.006 141.529,289.018 C141.625,289.03 141.673,289.084 141.673,289.18 L141.673,289.18 L141.997,289.18 Z M145.435,289 L145.435,288.676 C145.327,288.676 145.243,288.664 145.183,288.64 C145.123,288.616 145.093,288.556 145.093,288.46 C145.093,288.4 145.108,288.331 145.138,288.253 C145.168,288.175 145.207,288.088 145.255,287.992 L145.255,287.992 L145.759,287.02 L149.611,287.02 L150.097,288.046 C150.133,288.142 150.163,288.22 150.187,288.28 C150.211,288.34 150.223,288.406 150.223,288.478 C150.223,288.574 150.19,288.64 150.124,288.676 C150.058,288.712 149.995,288.73 149.935,288.73 L149.935,288.73 L149.935,289 L152.491,289 L152.491,288.676 C152.407,288.652 152.329,288.616 152.257,288.568 C152.185,288.52 152.119,288.442 152.059,288.334 L152.059,288.334 L149.143,282.214 C149.083,282.082 149.026,281.965 148.972,281.863 C148.918,281.761 148.891,281.674 148.891,281.602 C148.891,281.518 148.912,281.47 148.954,281.458 C148.996,281.446 149.035,281.428 149.071,281.404 L149.071,281.404 L149.071,281.08 L146.353,281.08 L146.353,281.404 C146.389,281.428 146.422,281.449 146.452,281.467 C146.482,281.485 146.497,281.53 146.497,281.602 C146.497,281.698 146.476,281.797 146.434,281.899 C146.392,282.001 146.335,282.136 146.263,282.304 L146.263,282.304 L143.581,288.154 C143.533,288.25 143.464,288.355 143.374,288.469 C143.284,288.583 143.167,288.652 143.023,288.676 L143.023,288.676 L143.023,289 L145.435,289 Z M149.035,285.688 L146.299,285.688 L147.577,282.664 L149.035,285.688 Z M158.449,289.054 C159.025,289.054 159.547,289.015 160.015,288.937 C160.483,288.859 160.894,288.76 161.248,288.64 C161.602,288.52 161.896,288.397 162.13,288.271 C162.364,288.145 162.535,288.046 162.643,287.974 L162.643,287.974 L162.643,287.758 C162.523,287.71 162.448,287.665 162.418,287.623 C162.388,287.581 162.373,287.506 162.373,287.398 L162.373,287.398 L162.373,285.688 C162.373,285.568 162.391,285.478 162.427,285.418 C162.463,285.358 162.535,285.304 162.643,285.256 L162.643,285.256 L162.643,284.932 L159.115,284.932 C158.983,284.932 158.869,284.914 158.773,284.878 C158.677,284.842 158.617,284.764 158.593,284.644 L158.593,284.644 L158.269,284.644 L158.269,286.498 L158.593,286.498 C158.617,286.354 158.677,286.255 158.773,286.201 C158.869,286.147 158.983,286.12 159.115,286.12 L159.115,286.12 L160.969,286.12 L160.969,287.254 C160.585,287.458 160.162,287.596 159.7,287.668 C159.238,287.74 158.749,287.776 158.233,287.776 C157.885,287.776 157.525,287.728 157.153,287.632 C156.781,287.536 156.442,287.383 156.136,287.173 C155.83,286.963 155.581,286.687 155.389,286.345 C155.197,286.003 155.101,285.58 155.101,285.076 C155.101,284.572 155.191,284.146 155.371,283.798 C155.551,283.45 155.791,283.165 156.091,282.943 C156.391,282.721 156.739,282.559 157.135,282.457 C157.531,282.355 157.951,282.304 158.395,282.304 C158.719,282.304 159.04,282.337 159.358,282.403 C159.676,282.469 159.961,282.556 160.213,282.664 C160.465,282.772 160.669,282.889 160.825,283.015 C160.981,283.141 161.059,283.258 161.059,283.366 C161.059,283.378 161.047,283.444 161.023,283.564 L161.023,283.564 L161.239,283.69 L162.283,281.728 L162.067,281.62 C161.995,281.68 161.935,281.719 161.887,281.737 C161.839,281.755 161.767,281.764 161.671,281.764 C161.587,281.764 161.461,281.722 161.293,281.638 C161.125,281.554 160.903,281.464 160.627,281.368 C160.363,281.272 160.051,281.182 159.691,281.098 C159.331,281.014 158.917,280.972 158.449,280.972 C157.669,280.972 156.964,281.065 156.334,281.251 C155.704,281.437 155.17,281.707 154.732,282.061 C154.294,282.415 153.958,282.841 153.724,283.339 C153.49,283.837 153.373,284.404 153.373,285.04 C153.373,285.676 153.49,286.243 153.724,286.741 C153.958,287.239 154.294,287.662 154.732,288.01 C155.17,288.358 155.704,288.619 156.334,288.793 C156.964,288.967 157.669,289.054 158.449,289.054 Z M169.249,289.054 C169.909,289.054 170.53,288.979 171.112,288.829 C171.694,288.679 172.201,288.436 172.633,288.1 C173.065,287.764 173.407,287.341 173.659,286.831 C173.911,286.321 174.037,285.724 174.037,285.04 C174.037,284.356 173.911,283.759 173.659,283.249 C173.407,282.739 173.065,282.316 172.633,281.98 C172.201,281.644 171.694,281.392 171.112,281.224 C170.53,281.056 169.909,280.972 169.249,280.972 C168.589,280.972 167.968,281.056 167.386,281.224 C166.804,281.392 166.297,281.644 165.865,281.98 C165.433,282.316 165.091,282.739 164.839,283.249 C164.587,283.759 164.461,284.356 164.461,285.04 C164.461,285.724 164.587,286.321 164.839,286.831 C165.091,287.341 165.433,287.764 165.865,288.1 C166.297,288.436 166.804,288.679 167.386,288.829 C167.968,288.979 168.589,289.054 169.249,289.054 Z M169.249,287.776 C168.865,287.776 168.49,287.713 168.124,287.587 C167.758,287.461 167.431,287.281 167.143,287.047 C166.855,286.813 166.624,286.528 166.45,286.192 C166.276,285.856 166.189,285.472 166.189,285.04 C166.189,284.608 166.276,284.224 166.45,283.888 C166.624,283.552 166.855,283.267 167.143,283.033 C167.431,282.799 167.758,282.619 168.124,282.493 C168.49,282.367 168.865,282.304 169.249,282.304 C169.633,282.304 170.008,282.367 170.374,282.493 C170.74,282.619 171.067,282.799 171.355,283.033 C171.643,283.267 171.874,283.552 172.048,283.888 C172.222,284.224 172.309,284.608 172.309,285.04 C172.309,285.472 172.222,285.856 172.048,286.192 C171.874,286.528 171.643,286.813 171.355,287.047 C171.067,287.281 170.74,287.461 170.374,287.587 C170.008,287.713 169.633,287.776 169.249,287.776 Z M180.247,289.054 C180.907,289.054 181.528,288.979 182.11,288.829 C182.692,288.679 183.199,288.436 183.631,288.1 C184.063,287.764 184.405,287.341 184.657,286.831 C184.909,286.321 185.035,285.724 185.035,285.04 C185.035,284.356 184.909,283.759 184.657,283.249 C184.405,282.739 184.063,282.316 183.631,281.98 C183.199,281.644 182.692,281.392 182.11,281.224 C181.528,281.056 180.907,280.972 180.247,280.972 C179.587,280.972 178.966,281.056 178.384,281.224 C177.802,281.392 177.295,281.644 176.863,281.98 C176.431,282.316 176.089,282.739 175.837,283.249 C175.585,283.759 175.459,284.356 175.459,285.04 C175.459,285.724 175.585,286.321 175.837,286.831 C176.089,287.341 176.431,287.764 176.863,288.1 C177.295,288.436 177.802,288.679 178.384,288.829 C178.966,288.979 179.587,289.054 180.247,289.054 Z M180.247,287.776 C179.863,287.776 179.488,287.713 179.122,287.587 C178.756,287.461 178.429,287.281 178.141,287.047 C177.853,286.813 177.622,286.528 177.448,286.192 C177.274,285.856 177.187,285.472 177.187,285.04 C177.187,284.608 177.274,284.224 177.448,283.888 C177.622,283.552 177.853,283.267 178.141,283.033 C178.429,282.799 178.756,282.619 179.122,282.493 C179.488,282.367 179.863,282.304 180.247,282.304 C180.631,282.304 181.006,282.367 181.372,282.493 C181.738,282.619 182.065,282.799 182.353,283.033 C182.641,283.267 182.872,283.552 183.046,283.888 C183.22,284.224 183.307,284.608 183.307,285.04 C183.307,285.472 183.22,285.856 183.046,286.192 C182.872,286.528 182.641,286.813 182.353,287.047 C182.065,287.281 181.738,287.461 181.372,287.587 C181.006,287.713 180.631,287.776 180.247,287.776 Z M189.427,289 L189.427,288.676 C189.175,288.676 189.049,288.586 189.049,288.406 L189.049,288.406 L189.049,283.168 L193.513,287.92 C193.657,288.076 193.786,288.214 193.9,288.334 C194.014,288.454 194.071,288.538 194.071,288.586 C194.071,288.646 194.029,288.676 193.945,288.676 L193.945,288.676 L193.945,289 L196.285,289 L196.285,288.676 C196.069,288.676 195.961,288.586 195.961,288.406 L195.961,288.406 L195.961,281.674 C195.961,281.494 196.069,281.404 196.285,281.404 L196.285,281.404 L196.285,281.08 L194.089,281.08 L194.089,281.404 C194.329,281.404 194.449,281.494 194.449,281.674 L194.449,281.674 L194.449,286.552 L190.129,281.98 C189.865,281.716 189.733,281.554 189.733,281.494 C189.733,281.446 189.775,281.416 189.859,281.404 L189.859,281.404 L189.859,281.08 L187.213,281.08 L187.213,281.404 C187.429,281.404 187.537,281.494 187.537,281.674 L187.537,281.674 L187.537,288.406 C187.537,288.586 187.429,288.676 187.213,288.676 L187.213,288.676 L187.213,289 L189.427,289 Z M200.497,289.054 C200.845,289.054 201.145,288.937 201.397,288.703 C201.649,288.469 201.775,288.178 201.775,287.83 C201.775,287.482 201.649,287.182 201.397,286.93 C201.145,286.678 200.845,286.552 200.497,286.552 C200.149,286.552 199.849,286.678 199.597,286.93 C199.345,287.182 199.219,287.482 199.219,287.83 C199.219,288.178 199.345,288.469 199.597,288.703 C199.849,288.937 200.149,289.054 200.497,289.054 Z M57.19,307 L57.19,306.676 C56.962,306.676 56.848,306.61 56.848,306.478 C56.848,306.37 56.908,306.19 57.028,305.938 L57.028,305.938 L57.676,304.66 L62.068,304.66 L62.752,305.992 C62.848,306.184 62.896,306.34 62.896,306.46 C62.896,306.532 62.86,306.586 62.788,306.622 C62.716,306.658 62.656,306.676 62.608,306.676 L62.608,306.676 L62.608,307 L65.776,307 L65.776,306.676 C65.644,306.616 65.527,306.556 65.425,306.496 C65.323,306.436 65.242,306.34 65.182,306.208 L65.182,306.208 L61.438,298.882 C61.354,298.726 61.291,298.6 61.249,298.504 C61.207,298.408 61.186,298.312 61.186,298.216 C61.186,298.084 61.228,297.997 61.312,297.955 C61.396,297.913 61.48,297.88 61.564,297.856 L61.564,297.856 L61.564,297.532 L58.522,297.532 L58.522,297.856 C58.618,297.88 58.708,297.916 58.792,297.964 C58.876,298.012 58.918,298.096 58.918,298.216 C58.918,298.312 58.885,298.426 58.819,298.558 C58.753,298.69 58.678,298.834 58.594,298.99 L58.594,298.99 L55.264,305.992 C55.18,306.16 55.093,306.31 55.003,306.442 C54.913,306.574 54.79,306.652 54.634,306.676 L54.634,306.676 L54.634,307 L57.19,307 Z M61.42,303.328 L58.216,303.328 L59.908,299.98 L61.42,303.328 Z M72.544,307 C73.252,307 73.852,306.886 74.344,306.658 C74.836,306.43 75.238,306.133 75.55,305.767 C75.862,305.401 76.09,304.981 76.234,304.507 C76.378,304.033 76.45,303.544 76.45,303.04 C76.45,302.536 76.375,302.047 76.225,301.573 C76.075,301.099 75.841,300.679 75.523,300.313 C75.205,299.947 74.794,299.65 74.29,299.422 C73.786,299.194 73.18,299.08 72.472,299.08 L72.472,299.08 L67.468,299.08 L67.468,299.404 C67.744,299.404 67.882,299.494 67.882,299.674 L67.882,299.674 L67.882,306.406 C67.882,306.586 67.744,306.676 67.468,306.676 L67.468,306.676 L67.468,307 L72.544,307 Z M71.95,305.668 L69.61,305.668 L69.61,300.412 L71.95,300.412 C72.322,300.412 72.676,300.433 73.012,300.475 C73.348,300.517 73.642,300.625 73.894,300.799 C74.146,300.973 74.347,301.231 74.497,301.573 C74.647,301.915 74.722,302.386 74.722,302.986 C74.722,303.586 74.647,304.063 74.497,304.417 C74.347,304.771 74.146,305.041 73.894,305.227 C73.642,305.413 73.348,305.533 73.012,305.587 C72.676,305.641 72.322,305.668 71.95,305.668 L71.95,305.668 Z M83.542,307 C84.25,307 84.85,306.886 85.342,306.658 C85.834,306.43 86.236,306.133 86.548,305.767 C86.86,305.401 87.088,304.981 87.232,304.507 C87.376,304.033 87.448,303.544 87.448,303.04 C87.448,302.536 87.373,302.047 87.223,301.573 C87.073,301.099 86.839,300.679 86.521,300.313 C86.203,299.947 85.792,299.65 85.288,299.422 C84.784,299.194 84.178,299.08 83.47,299.08 L83.47,299.08 L78.466,299.08 L78.466,299.404 C78.742,299.404 78.88,299.494 78.88,299.674 L78.88,299.674 L78.88,306.406 C78.88,306.586 78.742,306.676 78.466,306.676 L78.466,306.676 L78.466,307 L83.542,307 Z M82.948,305.668 L80.608,305.668 L80.608,300.412 L82.948,300.412 C83.32,300.412 83.674,300.433 84.01,300.475 C84.346,300.517 84.64,300.625 84.892,300.799 C85.144,300.973 85.345,301.231 85.495,301.573 C85.645,301.915 85.72,302.386 85.72,302.986 C85.72,303.586 85.645,304.063 85.495,304.417 C85.345,304.771 85.144,305.041 84.892,305.227 C84.64,305.413 84.346,305.533 84.01,305.587 C83.674,305.641 83.32,305.668 82.948,305.668 L82.948,305.668 Z M99.436,307 L99.436,306.676 C99.22,306.676 99.112,306.586 99.112,306.406 L99.112,306.406 L99.112,300.412 L101.452,300.412 C101.548,300.412 101.638,300.436 101.722,300.484 C101.806,300.532 101.848,300.61 101.848,300.718 L101.848,300.718 L102.172,300.718 L102.172,298.648 L101.848,298.648 C101.848,298.816 101.806,298.93 101.722,298.99 C101.638,299.05 101.548,299.08 101.452,299.08 L101.452,299.08 L95.044,299.08 C94.948,299.08 94.858,299.05 94.774,298.99 C94.69,298.93 94.648,298.816 94.648,298.648 L94.648,298.648 L94.324,298.648 L94.324,300.718 L94.648,300.718 C94.648,300.61 94.69,300.532 94.774,300.484 C94.858,300.436 94.948,300.412 95.044,300.412 L95.044,300.412 L97.384,300.412 L97.384,306.406 C97.384,306.502 97.354,306.571 97.294,306.613 C97.234,306.655 97.174,306.676 97.114,306.676 L97.114,306.676 L97.114,307 L99.436,307 Z M106.6,307 L106.6,306.676 C106.528,306.676 106.465,306.655 106.411,306.613 C106.357,306.571 106.33,306.502 106.33,306.406 L106.33,306.406 L106.33,303.688 L111.154,303.688 L111.154,306.406 C111.154,306.502 111.127,306.571 111.073,306.613 C111.019,306.655 110.956,306.676 110.884,306.676 L110.884,306.676 L110.884,307 L113.152,307 L113.152,306.676 C113.08,306.676 113.017,306.655 112.963,306.613 C112.909,306.571 112.882,306.502 112.882,306.406 L112.882,306.406 L112.882,299.674 C112.882,299.578 112.909,299.509 112.963,299.467 C113.017,299.425 113.08,299.404 113.152,299.404 L113.152,299.404 L113.152,299.08 L110.884,299.08 L110.884,299.404 C110.956,299.404 111.019,299.425 111.073,299.467 C111.127,299.509 111.154,299.578 111.154,299.674 L111.154,299.674 L111.154,302.212 L106.33,302.212 L106.33,299.674 C106.33,299.578 106.357,299.509 106.411,299.467 C106.465,299.425 106.528,299.404 106.6,299.404 L106.6,299.404 L106.6,299.08 L104.332,299.08 L104.332,299.404 C104.404,299.404 104.467,299.425 104.521,299.467 C104.575,299.509 104.602,299.578 104.602,299.674 L104.602,299.674 L104.602,306.406 C104.602,306.502 104.575,306.571 104.521,306.613 C104.467,306.655 104.404,306.676 104.332,306.676 L104.332,306.676 L104.332,307 L106.6,307 Z M119.11,307 L119.11,306.676 C118.774,306.676 118.606,306.586 118.606,306.406 L118.606,306.406 L118.606,299.674 C118.606,299.494 118.774,299.404 119.11,299.404 L119.11,299.404 L119.11,299.08 L116.374,299.08 L116.374,299.404 C116.566,299.404 116.698,299.425 116.77,299.467 C116.842,299.509 116.878,299.578 116.878,299.674 L116.878,299.674 L116.878,306.406 C116.878,306.502 116.842,306.571 116.77,306.613 C116.698,306.655 116.566,306.676 116.374,306.676 L116.374,306.676 L116.374,307 L119.11,307 Z M125.608,307.054 C126.016,307.054 126.451,307.024 126.913,306.964 C127.375,306.904 127.798,306.778 128.182,306.586 C128.566,306.394 128.887,306.13 129.145,305.794 C129.403,305.458 129.532,305.026 129.532,304.498 C129.532,303.97 129.385,303.556 129.091,303.256 C128.797,302.956 128.428,302.728 127.984,302.572 C127.54,302.416 127.06,302.305 126.544,302.239 C126.028,302.173 125.548,302.107 125.104,302.041 C124.66,301.975 124.291,301.885 123.997,301.771 C123.703,301.657 123.556,301.468 123.556,301.204 C123.556,301.036 123.604,300.895 123.7,300.781 C123.796,300.667 123.928,300.574 124.096,300.502 C124.264,300.43 124.456,300.379 124.672,300.349 C124.888,300.319 125.116,300.304 125.356,300.304 C125.98,300.304 126.544,300.376 127.048,300.52 C127.552,300.664 127.924,300.838 128.164,301.042 C128.26,301.114 128.314,301.186 128.326,301.258 C128.338,301.33 128.35,301.402 128.362,301.474 L128.362,301.474 L128.686,301.582 L129.586,299.89 L129.388,299.692 C129.316,299.728 129.256,299.761 129.208,299.791 C129.16,299.821 129.088,299.836 128.992,299.836 C128.908,299.836 128.779,299.791 128.605,299.701 C128.431,299.611 128.206,299.512 127.93,299.404 C127.654,299.296 127.315,299.197 126.913,299.107 C126.511,299.017 126.028,298.972 125.464,298.972 C124.312,298.972 123.418,299.2 122.782,299.656 C122.146,300.112 121.828,300.724 121.828,301.492 C121.828,302.008 121.975,302.407 122.269,302.689 C122.563,302.971 122.932,303.187 123.376,303.337 C123.82,303.487 124.3,303.595 124.816,303.661 C125.332,303.727 125.812,303.793 126.256,303.859 C126.7,303.925 127.069,304.018 127.363,304.138 C127.657,304.258 127.804,304.45 127.804,304.714 C127.804,304.942 127.72,305.125 127.552,305.263 C127.384,305.401 127.18,305.509 126.94,305.587 C126.7,305.665 126.457,305.716 126.211,305.74 C125.965,305.764 125.758,305.776 125.59,305.776 C125.41,305.776 125.161,305.746 124.843,305.686 C124.525,305.626 124.207,305.545 123.889,305.443 C123.571,305.341 123.298,305.215 123.07,305.065 C122.842,304.915 122.728,304.75 122.728,304.57 C122.728,304.51 122.731,304.453 122.737,304.399 C122.743,304.345 122.746,304.294 122.746,304.246 L122.746,304.246 L122.404,304.156 L121.576,306.172 L121.828,306.352 C121.888,306.28 121.96,306.244 122.044,306.244 C122.092,306.244 122.23,306.289 122.458,306.379 C122.686,306.469 122.965,306.565 123.295,306.667 C123.625,306.769 123.991,306.859 124.393,306.937 C124.795,307.015 125.2,307.054 125.608,307.054 Z M141.934,307 L141.934,306.676 C141.718,306.676 141.61,306.586 141.61,306.406 L141.61,306.406 L141.61,300.412 L143.95,300.412 C144.046,300.412 144.136,300.436 144.22,300.484 C144.304,300.532 144.346,300.61 144.346,300.718 L144.346,300.718 L144.67,300.718 L144.67,298.648 L144.346,298.648 C144.346,298.816 144.304,298.93 144.22,298.99 C144.136,299.05 144.046,299.08 143.95,299.08 L143.95,299.08 L137.542,299.08 C137.446,299.08 137.356,299.05 137.272,298.99 C137.188,298.93 137.146,298.816 137.146,298.648 L137.146,298.648 L136.822,298.648 L136.822,300.718 L137.146,300.718 C137.146,300.61 137.188,300.532 137.272,300.484 C137.356,300.436 137.446,300.412 137.542,300.412 L137.542,300.412 L139.882,300.412 L139.882,306.406 C139.882,306.502 139.852,306.571 139.792,306.613 C139.732,306.655 139.672,306.676 139.612,306.676 L139.612,306.676 L139.612,307 L141.934,307 Z M150.736,307.054 C151.396,307.054 152.017,306.979 152.599,306.829 C153.181,306.679 153.688,306.436 154.12,306.1 C154.552,305.764 154.894,305.341 155.146,304.831 C155.398,304.321 155.524,303.724 155.524,303.04 C155.524,302.356 155.398,301.759 155.146,301.249 C154.894,300.739 154.552,300.316 154.12,299.98 C153.688,299.644 153.181,299.392 152.599,299.224 C152.017,299.056 151.396,298.972 150.736,298.972 C150.076,298.972 149.455,299.056 148.873,299.224 C148.291,299.392 147.784,299.644 147.352,299.98 C146.92,300.316 146.578,300.739 146.326,301.249 C146.074,301.759 145.948,302.356 145.948,303.04 C145.948,303.724 146.074,304.321 146.326,304.831 C146.578,305.341 146.92,305.764 147.352,306.1 C147.784,306.436 148.291,306.679 148.873,306.829 C149.455,306.979 150.076,307.054 150.736,307.054 Z M150.736,305.776 C150.352,305.776 149.977,305.713 149.611,305.587 C149.245,305.461 148.918,305.281 148.63,305.047 C148.342,304.813 148.111,304.528 147.937,304.192 C147.763,303.856 147.676,303.472 147.676,303.04 C147.676,302.608 147.763,302.224 147.937,301.888 C148.111,301.552 148.342,301.267 148.63,301.033 C148.918,300.799 149.245,300.619 149.611,300.493 C149.977,300.367 150.352,300.304 150.736,300.304 C151.12,300.304 151.495,300.367 151.861,300.493 C152.227,300.619 152.554,300.799 152.842,301.033 C153.13,301.267 153.361,301.552 153.535,301.888 C153.709,302.224 153.796,302.608 153.796,303.04 C153.796,303.472 153.709,303.856 153.535,304.192 C153.361,304.528 153.13,304.813 152.842,305.047 C152.554,305.281 152.227,305.461 151.861,305.587 C151.495,305.713 151.12,305.776 150.736,305.776 Z M167.944,307 L167.944,306.676 C167.716,306.676 167.602,306.586 167.602,306.406 L167.602,306.406 L167.602,303.706 L170.356,300.142 C170.488,299.974 170.641,299.809 170.815,299.647 C170.989,299.485 171.148,299.404 171.292,299.404 L171.292,299.404 L171.292,299.08 L168.538,299.08 L168.538,299.404 C168.598,299.404 168.658,299.416 168.718,299.44 C168.778,299.464 168.808,299.524 168.808,299.62 C168.808,299.692 168.781,299.767 168.727,299.845 C168.673,299.923 168.592,300.04 168.484,300.196 L168.484,300.196 L166.882,302.428 L165.064,300.052 C165.004,299.968 164.95,299.896 164.902,299.836 C164.854,299.776 164.83,299.71 164.83,299.638 C164.83,299.566 164.866,299.509 164.938,299.467 C165.01,299.425 165.076,299.404 165.136,299.404 L165.136,299.404 L165.136,299.08 L162.166,299.08 L162.166,299.404 C162.274,299.404 162.388,299.428 162.508,299.476 C162.628,299.524 162.73,299.602 162.814,299.71 L162.814,299.71 L165.874,303.634 L165.874,306.406 C165.874,306.586 165.766,306.676 165.55,306.676 L165.55,306.676 L165.55,307 L167.944,307 Z M177.232,307.054 C177.892,307.054 178.513,306.979 179.095,306.829 C179.677,306.679 180.184,306.436 180.616,306.1 C181.048,305.764 181.39,305.341 181.642,304.831 C181.894,304.321 182.02,303.724 182.02,303.04 C182.02,302.356 181.894,301.759 181.642,301.249 C181.39,300.739 181.048,300.316 180.616,299.98 C180.184,299.644 179.677,299.392 179.095,299.224 C178.513,299.056 177.892,298.972 177.232,298.972 C176.572,298.972 175.951,299.056 175.369,299.224 C174.787,299.392 174.28,299.644 173.848,299.98 C173.416,300.316 173.074,300.739 172.822,301.249 C172.57,301.759 172.444,302.356 172.444,303.04 C172.444,303.724 172.57,304.321 172.822,304.831 C173.074,305.341 173.416,305.764 173.848,306.1 C174.28,306.436 174.787,306.679 175.369,306.829 C175.951,306.979 176.572,307.054 177.232,307.054 Z M177.232,305.776 C176.848,305.776 176.473,305.713 176.107,305.587 C175.741,305.461 175.414,305.281 175.126,305.047 C174.838,304.813 174.607,304.528 174.433,304.192 C174.259,303.856 174.172,303.472 174.172,303.04 C174.172,302.608 174.259,302.224 174.433,301.888 C174.607,301.552 174.838,301.267 175.126,301.033 C175.414,300.799 175.741,300.619 176.107,300.493 C176.473,300.367 176.848,300.304 177.232,300.304 C177.616,300.304 177.991,300.367 178.357,300.493 C178.723,300.619 179.05,300.799 179.338,301.033 C179.626,301.267 179.857,301.552 180.031,301.888 C180.205,302.224 180.292,302.608 180.292,303.04 C180.292,303.472 180.205,303.856 180.031,304.192 C179.857,304.528 179.626,304.813 179.338,305.047 C179.05,305.281 178.723,305.461 178.357,305.587 C177.991,305.713 177.616,305.776 177.232,305.776 Z M188.806,307.054 C189.526,307.054 190.153,306.979 190.687,306.829 C191.221,306.679 191.659,306.472 192.001,306.208 C192.343,305.944 192.598,305.641 192.766,305.299 C192.934,304.957 193.018,304.6 193.018,304.228 L193.018,304.228 L193.018,299.674 C193.018,299.494 193.15,299.404 193.414,299.404 L193.414,299.404 L193.414,299.08 L190.912,299.08 L190.912,299.404 C191.212,299.404 191.362,299.494 191.362,299.674 L191.362,299.674 L191.362,303.796 C191.362,304.372 191.152,304.834 190.732,305.182 C190.312,305.53 189.67,305.704 188.806,305.704 C187.942,305.704 187.3,305.53 186.88,305.182 C186.46,304.834 186.25,304.372 186.25,303.796 L186.25,303.796 L186.25,299.674 C186.25,299.494 186.382,299.404 186.646,299.404 L186.646,299.404 L186.646,299.08 L184.072,299.08 L184.072,299.404 C184.276,299.404 184.414,299.425 184.486,299.467 C184.558,299.509 184.594,299.578 184.594,299.674 L184.594,299.674 L184.594,304.228 C184.594,304.6 184.678,304.957 184.846,305.299 C185.014,305.641 185.269,305.944 185.611,306.208 C185.953,306.472 186.391,306.679 186.925,306.829 C187.459,306.979 188.086,307.054 188.806,307.054 Z M198.544,307 L198.544,306.676 C198.472,306.676 198.397,306.655 198.319,306.613 C198.241,306.571 198.202,306.502 198.202,306.406 L198.202,306.406 L198.202,303.832 L200.704,303.832 L202.126,305.956 C202.306,306.208 202.396,306.394 202.396,306.514 C202.396,306.622 202.318,306.676 202.162,306.676 L202.162,306.676 L202.162,307 L204.916,307 L204.916,306.676 C204.784,306.64 204.661,306.589 204.547,306.523 C204.433,306.457 204.328,306.358 204.232,306.226 L204.232,306.226 L202.468,303.652 C202.72,303.592 202.966,303.505 203.206,303.391 C203.446,303.277 203.665,303.127 203.863,302.941 C204.061,302.755 204.22,302.536 204.34,302.284 C204.46,302.032 204.52,301.744 204.52,301.42 C204.52,300.568 204.22,299.965 203.62,299.611 C203.02,299.257 202.186,299.08 201.118,299.08 L201.118,299.08 L196.15,299.08 L196.15,299.404 C196.366,299.404 196.474,299.494 196.474,299.674 L196.474,299.674 L196.474,306.406 C196.474,306.586 196.366,306.676 196.15,306.676 L196.15,306.676 L196.15,307 L198.544,307 Z M201.082,302.5 L198.238,302.5 L198.238,300.412 L201.082,300.412 C201.694,300.412 202.141,300.499 202.423,300.673 C202.705,300.847 202.846,301.084 202.846,301.384 C202.846,302.128 202.258,302.5 201.082,302.5 L201.082,302.5 Z M73.354,325.054 C73.762,325.054 74.197,325.024 74.659,324.964 C75.121,324.904 75.544,324.778 75.928,324.586 C76.312,324.394 76.633,324.13 76.891,323.794 C77.149,323.458 77.278,323.026 77.278,322.498 C77.278,321.97 77.131,321.556 76.837,321.256 C76.543,320.956 76.174,320.728 75.73,320.572 C75.286,320.416 74.806,320.305 74.29,320.239 C73.774,320.173 73.294,320.107 72.85,320.041 C72.406,319.975 72.037,319.885 71.743,319.771 C71.449,319.657 71.302,319.468 71.302,319.204 C71.302,319.036 71.35,318.895 71.446,318.781 C71.542,318.667 71.674,318.574 71.842,318.502 C72.01,318.43 72.202,318.379 72.418,318.349 C72.634,318.319 72.862,318.304 73.102,318.304 C73.726,318.304 74.29,318.376 74.794,318.52 C75.298,318.664 75.67,318.838 75.91,319.042 C76.006,319.114 76.06,319.186 76.072,319.258 L76.072,319.258 L76.108,319.474 L76.432,319.582 L77.332,317.89 L77.134,317.692 C77.062,317.728 77.002,317.761 76.954,317.791 C76.906,317.821 76.834,317.836 76.738,317.836 C76.654,317.836 76.525,317.791 76.351,317.701 C76.177,317.611 75.952,317.512 75.676,317.404 C75.4,317.296 75.061,317.197 74.659,317.107 C74.257,317.017 73.774,316.972 73.21,316.972 C72.058,316.972 71.164,317.2 70.528,317.656 C69.892,318.112 69.574,318.724 69.574,319.492 C69.574,320.008 69.721,320.407 70.015,320.689 C70.309,320.971 70.678,321.187 71.122,321.337 C71.566,321.487 72.046,321.595 72.562,321.661 C73.078,321.727 73.558,321.793 74.002,321.859 C74.446,321.925 74.815,322.018 75.109,322.138 C75.403,322.258 75.55,322.45 75.55,322.714 C75.55,322.942 75.466,323.125 75.298,323.263 C75.13,323.401 74.926,323.509 74.686,323.587 C74.446,323.665 74.203,323.716 73.957,323.74 C73.711,323.764 73.504,323.776 73.336,323.776 C73.156,323.776 72.907,323.746 72.589,323.686 C72.271,323.626 71.953,323.545 71.635,323.443 C71.317,323.341 71.044,323.215 70.816,323.065 C70.588,322.915 70.474,322.75 70.474,322.57 C70.474,322.51 70.477,322.453 70.483,322.399 C70.489,322.345 70.492,322.294 70.492,322.246 L70.492,322.246 L70.15,322.156 L69.322,324.172 L69.574,324.352 C69.634,324.28 69.706,324.244 69.79,324.244 C69.838,324.244 69.976,324.289 70.204,324.379 C70.432,324.469 70.711,324.565 71.041,324.667 C71.371,324.769 71.737,324.859 72.139,324.937 C72.541,325.015 72.946,325.054 73.354,325.054 Z M84.712,325 L84.712,324.676 C84.484,324.676 84.37,324.586 84.37,324.406 L84.37,324.406 L84.37,321.706 L87.124,318.142 C87.256,317.974 87.409,317.809 87.583,317.647 C87.757,317.485 87.916,317.404 88.06,317.404 L88.06,317.404 L88.06,317.08 L85.306,317.08 L85.306,317.404 C85.366,317.404 85.426,317.416 85.486,317.44 C85.546,317.464 85.576,317.524 85.576,317.62 C85.576,317.692 85.549,317.767 85.495,317.845 C85.441,317.923 85.36,318.04 85.252,318.196 L85.252,318.196 L83.65,320.428 L81.832,318.052 C81.772,317.968 81.718,317.896 81.67,317.836 C81.622,317.776 81.598,317.71 81.598,317.638 C81.598,317.566 81.634,317.509 81.706,317.467 C81.778,317.425 81.844,317.404 81.904,317.404 L81.904,317.404 L81.904,317.08 L78.934,317.08 L78.934,317.404 C79.042,317.404 79.156,317.428 79.276,317.476 C79.396,317.524 79.498,317.602 79.582,317.71 L79.582,317.71 L82.642,321.634 L82.642,324.406 C82.642,324.586 82.534,324.676 82.318,324.676 L82.318,324.676 L82.318,325 L84.712,325 Z M92.218,325 L92.218,324.676 C92.014,324.676 91.912,324.586 91.912,324.406 L91.912,324.406 L91.912,319.348 L91.93,319.348 L94.828,325 L94.972,325 L98.032,319.348 L98.068,319.348 L98.068,324.406 C98.104,324.586 97.996,324.676 97.744,324.676 L97.744,324.676 L97.744,325 L99.832,325 L99.832,324.676 C99.772,324.676 99.715,324.655 99.661,324.613 C99.607,324.571 99.58,324.502 99.58,324.406 L99.58,324.406 L99.58,317.638 C99.58,317.542 99.607,317.479 99.661,317.449 C99.715,317.419 99.772,317.404 99.832,317.404 L99.832,317.404 L99.832,317.08 L97.294,317.08 L97.294,317.404 C97.39,317.404 97.438,317.458 97.438,317.566 C97.438,317.602 97.414,317.665 97.366,317.755 C97.318,317.845 97.252,317.962 97.168,318.106 L97.168,318.106 L94.954,322.138 L92.758,318.088 C92.674,317.944 92.611,317.833 92.569,317.755 C92.527,317.677 92.506,317.614 92.506,317.566 C92.506,317.458 92.566,317.404 92.686,317.404 L92.686,317.404 L92.686,317.08 L90.184,317.08 L90.184,317.404 C90.268,317.404 90.325,317.422 90.355,317.458 C90.385,317.494 90.4,317.596 90.4,317.764 L90.4,317.764 L90.4,324.352 C90.4,324.484 90.379,324.568 90.337,324.604 C90.295,324.64 90.244,324.664 90.184,324.676 L90.184,324.676 L90.184,325 L92.218,325 Z M105.268,325 L105.268,324.676 C105.016,324.676 104.89,324.586 104.89,324.406 L104.89,324.406 L104.89,321.706 L107.95,321.706 C108.922,321.706 109.651,321.541 110.137,321.211 C110.623,320.881 110.866,320.284 110.866,319.42 C110.866,318.556 110.623,317.95 110.137,317.602 C109.651,317.254 108.922,317.08 107.95,317.08 L107.95,317.08 L102.712,317.08 L102.712,317.404 C103.012,317.404 103.162,317.494 103.162,317.674 L103.162,317.674 L103.162,324.406 C103.162,324.586 103.012,324.676 102.712,324.676 L102.712,324.676 L102.712,325 L105.268,325 Z M107.914,320.374 L104.89,320.374 L104.89,318.412 L107.914,318.412 C108.262,318.412 108.553,318.487 108.787,318.637 C109.021,318.787 109.138,319.048 109.138,319.42 C109.138,319.804 109.021,320.059 108.787,320.185 C108.553,320.311 108.262,320.374 107.914,320.374 L107.914,320.374 Z M117.202,325 L117.202,324.676 C116.986,324.676 116.878,324.586 116.878,324.406 L116.878,324.406 L116.878,318.412 L119.218,318.412 C119.314,318.412 119.404,318.436 119.488,318.484 C119.572,318.532 119.614,318.61 119.614,318.718 L119.614,318.718 L119.938,318.718 L119.938,316.648 L119.614,316.648 C119.614,316.816 119.572,316.93 119.488,316.99 C119.404,317.05 119.314,317.08 119.218,317.08 L119.218,317.08 L112.81,317.08 C112.714,317.08 112.624,317.05 112.54,316.99 C112.456,316.93 112.414,316.816 112.414,316.648 L112.414,316.648 L112.09,316.648 L112.09,318.718 L112.414,318.718 C112.414,318.61 112.456,318.532 112.54,318.484 C112.624,318.436 112.714,318.412 112.81,318.412 L112.81,318.412 L115.15,318.412 L115.15,324.406 C115.15,324.502 115.12,324.571 115.06,324.613 C115,324.655 114.94,324.676 114.88,324.676 L114.88,324.676 L114.88,325 L117.202,325 Z M126.004,325.054 C126.664,325.054 127.285,324.979 127.867,324.829 C128.449,324.679 128.956,324.436 129.388,324.1 C129.82,323.764 130.162,323.341 130.414,322.831 C130.666,322.321 130.792,321.724 130.792,321.04 C130.792,320.356 130.666,319.759 130.414,319.249 C130.162,318.739 129.82,318.316 129.388,317.98 C128.956,317.644 128.449,317.392 127.867,317.224 C127.285,317.056 126.664,316.972 126.004,316.972 C125.344,316.972 124.723,317.056 124.141,317.224 C123.559,317.392 123.052,317.644 122.62,317.98 C122.188,318.316 121.846,318.739 121.594,319.249 C121.342,319.759 121.216,320.356 121.216,321.04 C121.216,321.724 121.342,322.321 121.594,322.831 C121.846,323.341 122.188,323.764 122.62,324.1 C123.052,324.436 123.559,324.679 124.141,324.829 C124.723,324.979 125.344,325.054 126.004,325.054 Z M126.004,323.776 C125.62,323.776 125.245,323.713 124.879,323.587 C124.513,323.461 124.186,323.281 123.898,323.047 C123.61,322.813 123.379,322.528 123.205,322.192 C123.031,321.856 122.944,321.472 122.944,321.04 C122.944,320.608 123.031,320.224 123.205,319.888 C123.379,319.552 123.61,319.267 123.898,319.033 C124.186,318.799 124.513,318.619 124.879,318.493 C125.245,318.367 125.62,318.304 126.004,318.304 C126.388,318.304 126.763,318.367 127.129,318.493 C127.495,318.619 127.822,318.799 128.11,319.033 C128.398,319.267 128.629,319.552 128.803,319.888 C128.977,320.224 129.064,320.608 129.064,321.04 C129.064,321.472 128.977,321.856 128.803,322.192 C128.629,322.528 128.398,322.813 128.11,323.047 C127.822,323.281 127.495,323.461 127.129,323.587 C126.763,323.713 126.388,323.776 126.004,323.776 Z M135.22,325 L135.22,324.676 C135.016,324.676 134.914,324.586 134.914,324.406 L134.914,324.406 L134.914,319.348 L134.932,319.348 L137.83,325 L137.974,325 L141.034,319.348 L141.07,319.348 L141.07,324.406 C141.106,324.586 140.998,324.676 140.746,324.676 L140.746,324.676 L140.746,325 L142.834,325 L142.834,324.676 C142.774,324.676 142.717,324.655 142.663,324.613 C142.609,324.571 142.582,324.502 142.582,324.406 L142.582,324.406 L142.582,317.638 C142.582,317.542 142.609,317.479 142.663,317.449 C142.717,317.419 142.774,317.404 142.834,317.404 L142.834,317.404 L142.834,317.08 L140.296,317.08 L140.296,317.404 C140.392,317.404 140.44,317.458 140.44,317.566 C140.44,317.602 140.416,317.665 140.368,317.755 C140.32,317.845 140.254,317.962 140.17,318.106 L140.17,318.106 L137.956,322.138 L135.76,318.088 C135.676,317.944 135.613,317.833 135.571,317.755 C135.529,317.677 135.508,317.614 135.508,317.566 C135.508,317.458 135.568,317.404 135.688,317.404 L135.688,317.404 L135.688,317.08 L133.186,317.08 L133.186,317.404 C133.27,317.404 133.327,317.422 133.357,317.458 C133.387,317.494 133.402,317.596 133.402,317.764 L133.402,317.764 L133.402,324.352 C133.402,324.484 133.381,324.568 133.339,324.604 C133.297,324.64 133.246,324.664 133.186,324.676 L133.186,324.676 L133.186,325 L135.22,325 Z M153.76,325 L153.76,324.676 C153.508,324.676 153.382,324.586 153.382,324.406 L153.382,324.406 L153.382,321.706 L156.442,321.706 C157.414,321.706 158.143,321.541 158.629,321.211 C159.115,320.881 159.358,320.284 159.358,319.42 C159.358,318.556 159.115,317.95 158.629,317.602 C158.143,317.254 157.414,317.08 156.442,317.08 L156.442,317.08 L151.204,317.08 L151.204,317.404 C151.504,317.404 151.654,317.494 151.654,317.674 L151.654,317.674 L151.654,324.406 C151.654,324.586 151.504,324.676 151.204,324.676 L151.204,324.676 L151.204,325 L153.76,325 Z M156.406,320.374 L153.382,320.374 L153.382,318.412 L156.406,318.412 C156.754,318.412 157.045,318.487 157.279,318.637 C157.513,318.787 157.63,319.048 157.63,319.42 C157.63,319.804 157.513,320.059 157.279,320.185 C157.045,320.311 156.754,320.374 156.406,320.374 L156.406,320.374 Z M164.362,325 L164.362,324.676 C164.026,324.676 163.858,324.586 163.858,324.406 L163.858,324.406 L163.858,317.674 C163.858,317.494 164.026,317.404 164.362,317.404 L164.362,317.404 L164.362,317.08 L161.626,317.08 L161.626,317.404 C161.818,317.404 161.95,317.425 162.022,317.467 C162.094,317.509 162.13,317.578 162.13,317.674 L162.13,317.674 L162.13,324.406 C162.13,324.502 162.094,324.571 162.022,324.613 C161.95,324.655 161.818,324.676 161.626,324.676 L161.626,324.676 L161.626,325 L164.362,325 Z M175.252,325.18 L175.252,323.29 L174.928,323.29 C174.928,323.41 174.88,323.503 174.784,323.569 C174.688,323.635 174.568,323.668 174.424,323.668 L174.424,323.668 L169.564,323.668 L169.564,317.674 C169.564,317.494 169.702,317.404 169.978,317.404 L169.978,317.404 L169.978,317.08 L167.368,317.08 L167.368,317.404 C167.68,317.404 167.836,317.494 167.836,317.674 L167.836,317.674 L167.836,324.406 C167.836,324.586 167.68,324.676 167.368,324.676 L167.368,324.676 L167.368,325 L174.424,325 C174.568,325 174.688,325.006 174.784,325.018 C174.88,325.03 174.928,325.084 174.928,325.18 L174.928,325.18 L175.252,325.18 Z M184.918,325.198 L184.918,323.308 L184.594,323.308 C184.594,323.416 184.546,323.503 184.45,323.569 C184.354,323.635 184.234,323.668 184.09,323.668 L184.09,323.668 L179.482,323.668 L179.482,321.544 L182.11,321.544 C182.35,321.544 182.536,321.559 182.668,321.589 C182.8,321.619 182.848,321.7 182.812,321.832 L182.812,321.832 L183.172,321.832 L183.172,319.924 L182.848,319.924 C182.848,320.056 182.8,320.137 182.704,320.167 C182.608,320.197 182.458,320.212 182.254,320.212 L182.254,320.212 L179.482,320.212 L179.482,318.412 L183.874,318.412 C184.246,318.412 184.432,318.526 184.432,318.754 L184.432,318.754 L184.756,318.754 L184.756,316.756 L184.432,316.756 C184.432,316.972 184.246,317.08 183.874,317.08 L183.874,317.08 L177.484,317.08 L177.484,317.404 C177.544,317.404 177.604,317.425 177.664,317.467 C177.724,317.509 177.754,317.578 177.754,317.674 L177.754,317.674 L177.754,324.406 C177.754,324.502 177.724,324.571 177.664,324.613 C177.604,324.655 177.544,324.676 177.484,324.676 L177.484,324.676 L177.484,325 L184.09,325 C184.234,325 184.354,325.006 184.45,325.018 C184.546,325.03 184.594,325.09 184.594,325.198 L184.594,325.198 L184.918,325.198 Z M188.752,325.054 C189.1,325.054 189.4,324.937 189.652,324.703 C189.904,324.469 190.03,324.178 190.03,323.83 C190.03,323.482 189.904,323.182 189.652,322.93 C189.4,322.678 189.1,322.552 188.752,322.552 C188.404,322.552 188.104,322.678 187.852,322.93 C187.6,323.182 187.474,323.482 187.474,323.83 C187.474,324.178 187.6,324.469 187.852,324.703 C188.104,324.937 188.404,325.054 188.752,325.054 Z" id="Thepoolagoon.Addthistoyoursymptompile." fill="#000000" fill-rule="nonzero"></path>
    </g>
</svg>