<?xml version="1.0" encoding="UTF-8"?>
<svg width="262px" height="360px" viewBox="0 0 262 360" version="1.1" xmlns="http://www.w3.org/2000/svg" xmlns:xlink="http://www.w3.org/1999/xlink">
    <title>Screen Time</title>
    <g id="Screen-Time" stroke="none" stroke-width="1" fill="none" fill-rule="evenodd">
        <g id="Group" transform="translate(9.000000, 9.000000)" fill="#FFFFFF" stroke="#000000" stroke-width="3">
            <g id="Rectangle">
                <rect x="1.5" y="1.5" width="239" height="337" rx="8"></rect>
            </g>
        </g>
        <g id="Toilet-Paper" transform="translate(14.000000, 15.000000)">
            <ellipse id="Oval" stroke="#000000" stroke-width="2" cx="24.5" cy="11.5" rx="4.5" ry="10.5"></ellipse>
            <ellipse id="Oval-Copy" fill="#000000" cx="24.5" cy="12" rx="1.5" ry="4"></ellipse>
            <line x1="24" y1="22" x2="18" y2="22" id="Line-6" stroke="#000000" stroke-width="2" stroke-linecap="round"></line>
            <line x1="24" y1="1" x2="9" y2="1" id="Line-5" stroke="#000000" stroke-width="2" stroke-linecap="square"></line>
            <path d="M8,1 C7.02702267,1.90492637 6.360356,2.69857716 6,3.38095238 C4.62724052,5.98042915 4,9.4881664 4,12.9047619 C4,13.6772342 3.97201238,14.5765717 4,15.2857143 C4.12532621,18.4611949 3.12532621,22.0326235 1,26" id="Line-2-Copy-2" stroke="#000000" stroke-width="2" stroke-linecap="round"></path>
            <path d="M23,1 C22.0270227,1.90492637 21.360356,2.69857716 21,3.38095238 C19.6272405,5.98042915 19,9.4881664 19,12.9047619 C19,13.6772342 18.9720124,14.5765717 19,15.2857143 C19.1253262,18.4611949 18.1253262,22.0326235 16,26" id="Line-2-Copy-3" stroke="#000000" stroke-width="2" stroke-linecap="round"></path>
            <line x1="4.23333333" y1="12.2173958" x2="19.1666667" y2="12.2173958" id="Line-3-Copy" stroke="#000000" stroke-width="2" stroke-linecap="square" stroke-dasharray="0,4"></line>
            <line x1="16" y1="26" x2="1.22222222" y2="26" id="Line-5-Copy" stroke="#000000" stroke-width="2" stroke-linecap="round"></line>
        </g>
        <path d="M60.686,39 L60.686,38.568 C60.446,38.568 60.23,38.502 60.038,38.37 C59.846,38.238 59.75,37.968 59.75,37.56 L59.75,37.56 L59.75,21.072 C59.75,20.832 59.846,20.652 60.038,20.532 C60.23,20.412 60.47,20.328 60.758,20.28 L60.758,20.28 L60.758,19.848 L54.926,19.848 L54.926,20.28 C55.19,20.328 55.4,20.4 55.556,20.496 C55.712,20.592 55.79,20.808 55.79,21.144 C55.79,21.504 55.652,21.81 55.376,22.062 C55.1,22.314 54.758,22.44 54.35,22.44 C54.158,22.44 53.954,22.398 53.738,22.314 C53.522,22.23 53.414,22.08 53.414,21.864 L53.414,21.864 L52.982,21.864 L52.982,26.4 L53.414,26.4 C53.486,26.208 53.612,26.058 53.792,25.95 C53.972,25.842 54.17,25.758 54.386,25.698 C54.602,25.638 54.824,25.596 55.052,25.572 C55.28,25.548 55.478,25.536 55.646,25.536 L55.646,25.536 L55.646,37.56 C55.646,37.968 55.556,38.238 55.376,38.37 C55.196,38.502 54.986,38.568 54.746,38.568 L54.746,38.568 L54.746,39 L60.686,39 Z" id="1" fill="#000000" fill-rule="nonzero"></path>
        <rect id="Rectangle" stroke="#000000" stroke-width="3" x="17.5" y="271.5" width="225" height="70" rx="8"></rect>
        <g id="Group" transform="translate(228.000000, 15.000000)" fill="#000000">
            <path d="M8.80873608,1.11201212 L14.844966,9.4118283 C15.1698043,9.85848091 15.0710543,10.4838978 14.6244017,10.8087361 C14.4534813,10.9330418 14.2475725,11 14.03623,11 L1.96377005,11 C1.4114853,11 0.963770046,10.5522847 0.963770046,10 C0.963770046,9.7886575 1.03072828,9.58274861 1.15503396,9.4118283 L7.19126392,1.11201212 C7.51610217,0.66535951 8.14151909,0.56660947 8.5881717,0.891447729 C8.67277774,0.952979393 8.74720442,1.02740608 8.80873608,1.11201212 Z" id="Triangle"></path>
            <path d="M5,9 L11,9 L11,17 C11,17.5522847 10.5522847,18 10,18 L6,18 C5.44771525,18 5,17.5522847 5,17 L5,9 L5,9 Z" id="Rectangle"></path>
        </g>
        <path d="M65.072,60.072 C65.728,60.072 66.436,60.02 67.196,59.916 C67.956,59.812 68.664,59.608 69.32,59.304 C69.976,59 70.524,58.584 70.964,58.056 C71.404,57.528 71.624,56.848 71.624,56.016 C71.624,55.296 71.484,54.712 71.204,54.264 C70.924,53.816 70.556,53.46 70.1,53.196 C69.644,52.932 69.124,52.74 68.54,52.62 C67.956,52.5 67.36,52.416 66.752,52.368 C66.144,52.32 65.548,52.28 64.964,52.248 C64.38,52.216 63.86,52.152 63.404,52.056 C62.948,51.96 62.58,51.816 62.3,51.624 C62.02,51.432 61.88,51.144 61.88,50.76 C61.88,50.488 61.98,50.26 62.18,50.076 C62.38,49.892 62.632,49.744 62.936,49.632 C63.24,49.52 63.58,49.436 63.956,49.38 C64.332,49.324 64.696,49.296 65.048,49.296 C65.512,49.296 65.976,49.34 66.44,49.428 C66.904,49.516 67.336,49.632 67.736,49.776 C68.136,49.92 68.484,50.084 68.78,50.268 C69.076,50.452 69.288,50.64 69.416,50.832 C69.512,50.976 69.576,51.16 69.608,51.384 L69.608,51.384 L69.848,51.48 L71.504,48.48 L71.216,48.288 C71.12,48.384 70.96,48.432 70.736,48.432 C70.528,48.432 70.268,48.368 69.956,48.24 C69.644,48.112 69.26,47.976 68.804,47.832 C68.348,47.688 67.808,47.552 67.184,47.424 C66.56,47.296 65.824,47.232 64.976,47.232 C63.984,47.232 63.12,47.348 62.384,47.58 C61.648,47.812 61.04,48.112 60.56,48.48 C60.08,48.848 59.724,49.272 59.492,49.752 C59.26,50.232 59.144,50.72 59.144,51.216 C59.144,51.952 59.284,52.548 59.564,53.004 C59.844,53.46 60.212,53.82 60.668,54.084 C61.124,54.348 61.644,54.536 62.228,54.648 C62.812,54.76 63.408,54.84 64.016,54.888 C64.624,54.936 65.22,54.972 65.804,54.996 C66.388,55.02 66.908,55.072 67.364,55.152 C67.82,55.232 68.188,55.36 68.468,55.536 C68.748,55.712 68.888,55.984 68.888,56.352 C68.888,56.72 68.736,57.016 68.432,57.24 C68.128,57.464 67.768,57.64 67.352,57.768 C66.936,57.896 66.512,57.98 66.08,58.02 C65.648,58.06 65.296,58.08 65.024,58.08 C64.656,58.08 64.24,58.036 63.776,57.948 C63.312,57.86 62.868,57.744 62.444,57.6 C62.02,57.456 61.644,57.292 61.316,57.108 C60.988,56.924 60.768,56.736 60.656,56.544 C60.592,56.432 60.56,56.304 60.56,56.16 L60.56,56.16 L60.32,56.04 L59,58.944 L59.336,59.136 C59.432,59.008 59.536,58.944 59.648,58.944 C59.824,58.944 60.032,59.004 60.272,59.124 C60.512,59.244 60.836,59.38 61.244,59.532 C61.652,59.684 62.164,59.812 62.78,59.916 C63.396,60.02 64.16,60.072 65.072,60.072 Z M80.096,60.072 C80.816,60.072 81.468,60.008 82.052,59.88 C82.636,59.752 83.148,59.596 83.588,59.412 C84.028,59.228 84.392,59.064 84.68,58.92 C84.968,58.776 85.176,58.704 85.304,58.704 C85.384,58.704 85.52,58.744 85.712,58.824 L85.712,58.824 L85.952,58.704 L84.176,56.16 L83.912,56.4 C83.928,56.464 83.936,56.544 83.936,56.64 L83.936,56.64 L83.936,56.832 C83.936,56.976 83.82,57.136 83.588,57.312 C83.356,57.488 83.056,57.652 82.688,57.804 C82.32,57.956 81.912,58.088 81.464,58.2 C81.016,58.312 80.576,58.368 80.144,58.368 C79.68,58.368 79.224,58.284 78.776,58.116 C78.328,57.948 77.928,57.7 77.576,57.372 C77.224,57.044 76.94,56.652 76.724,56.196 C76.508,55.74 76.4,55.224 76.4,54.648 C76.4,54.072 76.496,53.56 76.688,53.112 C76.88,52.664 77.152,52.288 77.504,51.984 C77.856,51.68 78.268,51.452 78.74,51.3 C79.212,51.148 79.736,51.072 80.312,51.072 C80.792,51.072 81.232,51.116 81.632,51.204 C82.032,51.292 82.38,51.4 82.676,51.528 C82.972,51.656 83.2,51.788 83.36,51.924 C83.52,52.06 83.6,52.168 83.6,52.248 C83.6,52.296 83.604,52.336 83.612,52.368 C83.62,52.4 83.624,52.432 83.624,52.464 L83.624,52.464 L83.888,52.656 L85.472,50.376 L85.184,50.208 C85.12,50.24 85.06,50.28 85.004,50.328 C84.948,50.376 84.88,50.4 84.8,50.4 C84.688,50.4 84.504,50.344 84.248,50.232 C83.992,50.12 83.672,49.992 83.288,49.848 C82.904,49.704 82.46,49.576 81.956,49.464 C81.452,49.352 80.896,49.296 80.288,49.296 C79.504,49.296 78.74,49.408 77.996,49.632 C77.252,49.856 76.592,50.196 76.016,50.652 C75.44,51.108 74.976,51.672 74.624,52.344 C74.272,53.016 74.096,53.8 74.096,54.696 C74.096,55.592 74.272,56.38 74.624,57.06 C74.976,57.74 75.432,58.308 75.992,58.764 C76.552,59.22 77.192,59.552 77.912,59.76 C78.632,59.968 79.36,60.072 80.096,60.072 Z M91.736,60 L91.736,59.568 C91.64,59.568 91.54,59.54 91.436,59.484 C91.332,59.428 91.28,59.336 91.28,59.208 L91.28,59.208 L91.28,55.776 L94.616,55.776 L96.512,58.608 C96.752,58.944 96.872,59.192 96.872,59.352 C96.872,59.496 96.768,59.568 96.56,59.568 L96.56,59.568 L96.56,60 L100.232,60 L100.232,59.568 C100.056,59.52 99.892,59.452 99.74,59.364 C99.588,59.276 99.448,59.144 99.32,58.968 L99.32,58.968 L96.968,55.536 C97.304,55.456 97.632,55.34 97.952,55.188 C98.272,55.036 98.564,54.836 98.828,54.588 C99.092,54.34 99.304,54.048 99.464,53.712 C99.624,53.376 99.704,52.992 99.704,52.56 C99.704,51.424 99.304,50.62 98.504,50.148 C97.704,49.676 96.592,49.44 95.168,49.44 L95.168,49.44 L88.544,49.44 L88.544,49.872 C88.832,49.872 88.976,49.992 88.976,50.232 L88.976,50.232 L88.976,59.208 C88.976,59.448 88.832,59.568 88.544,59.568 L88.544,59.568 L88.544,60 L91.736,60 Z M95.12,54 L91.328,54 L91.328,51.216 L95.12,51.216 C95.936,51.216 96.532,51.332 96.908,51.564 C97.284,51.796 97.472,52.112 97.472,52.512 C97.472,53.504 96.688,54 95.12,54 L95.12,54 Z M113.216,60.264 L113.216,57.744 L112.784,57.744 C112.784,57.888 112.72,58.004 112.592,58.092 C112.464,58.18 112.304,58.224 112.112,58.224 L112.112,58.224 L105.968,58.224 L105.968,55.392 L109.472,55.392 C109.792,55.392 110.04,55.412 110.216,55.452 C110.392,55.492 110.456,55.6 110.408,55.776 L110.408,55.776 L110.888,55.776 L110.888,53.232 L110.456,53.232 C110.456,53.408 110.392,53.516 110.264,53.556 C110.136,53.596 109.936,53.616 109.664,53.616 L109.664,53.616 L105.968,53.616 L105.968,51.216 L111.824,51.216 C112.32,51.216 112.568,51.368 112.568,51.672 L112.568,51.672 L113,51.672 L113,49.008 L112.568,49.008 C112.568,49.296 112.32,49.44 111.824,49.44 L111.824,49.44 L103.304,49.44 L103.304,49.872 C103.384,49.872 103.464,49.9 103.544,49.956 C103.624,50.012 103.664,50.104 103.664,50.232 L103.664,50.232 L103.664,59.208 C103.664,59.336 103.624,59.428 103.544,59.484 C103.464,59.54 103.384,59.568 103.304,59.568 L103.304,59.568 L103.304,60 L112.112,60 C112.304,60 112.464,60.008 112.592,60.024 C112.72,60.04 112.784,60.12 112.784,60.264 L112.784,60.264 L113.216,60.264 Z M126.56,60.264 L126.56,57.744 L126.128,57.744 C126.128,57.888 126.064,58.004 125.936,58.092 C125.808,58.18 125.648,58.224 125.456,58.224 L125.456,58.224 L119.312,58.224 L119.312,55.392 L122.816,55.392 C123.136,55.392 123.384,55.412 123.56,55.452 C123.736,55.492 123.8,55.6 123.752,55.776 L123.752,55.776 L124.232,55.776 L124.232,53.232 L123.8,53.232 C123.8,53.408 123.736,53.516 123.608,53.556 C123.48,53.596 123.28,53.616 123.008,53.616 L123.008,53.616 L119.312,53.616 L119.312,51.216 L125.168,51.216 C125.664,51.216 125.912,51.368 125.912,51.672 L125.912,51.672 L126.344,51.672 L126.344,49.008 L125.912,49.008 C125.912,49.296 125.664,49.44 125.168,49.44 L125.168,49.44 L116.648,49.44 L116.648,49.872 C116.728,49.872 116.808,49.9 116.888,49.956 C116.968,50.012 117.008,50.104 117.008,50.232 L117.008,50.232 L117.008,59.208 C117.008,59.336 116.968,59.428 116.888,59.484 C116.808,59.54 116.728,59.568 116.648,59.568 L116.648,59.568 L116.648,60 L125.456,60 C125.648,60 125.808,60.008 125.936,60.024 C126.064,60.04 126.128,60.12 126.128,60.264 L126.128,60.264 L126.56,60.264 Z M132.92,60 L132.92,59.568 C132.584,59.568 132.416,59.448 132.416,59.208 L132.416,59.208 L132.416,52.224 L138.368,58.56 C138.56,58.768 138.732,58.952 138.884,59.112 C139.036,59.272 139.112,59.384 139.112,59.448 C139.112,59.528 139.056,59.568 138.944,59.568 L138.944,59.568 L138.944,60 L142.064,60 L142.064,59.568 C141.776,59.568 141.632,59.448 141.632,59.208 L141.632,59.208 L141.632,50.232 C141.632,49.992 141.776,49.872 142.064,49.872 L142.064,49.872 L142.064,49.44 L139.136,49.44 L139.136,49.872 C139.456,49.872 139.616,49.992 139.616,50.232 L139.616,50.232 L139.616,56.736 L133.856,50.64 C133.504,50.288 133.328,50.072 133.328,49.992 C133.328,49.928 133.384,49.888 133.496,49.872 L133.496,49.872 L133.496,49.44 L129.968,49.44 L129.968,49.872 C130.256,49.872 130.4,49.992 130.4,50.232 L130.4,50.232 L130.4,59.208 C130.4,59.448 130.256,59.568 129.968,59.568 L129.968,59.568 L129.968,60 L132.92,60 Z M160.568,60 L160.568,59.568 C160.216,59.568 160.04,59.424 160.04,59.136 L160.04,59.136 L160.04,49.584 L164,49.584 C164.144,49.584 164.284,49.624 164.42,49.704 C164.556,49.784 164.624,49.936 164.624,50.16 L164.624,50.16 L165.056,50.16 L165.056,46.8 L164.624,46.8 C164.624,47.024 164.556,47.176 164.42,47.256 C164.284,47.336 164.144,47.376 164,47.376 L164,47.376 L153.344,47.376 C153.2,47.376 153.06,47.336 152.924,47.256 C152.788,47.176 152.72,47.024 152.72,46.8 L152.72,46.8 L152.288,46.8 L152.288,50.16 L152.72,50.16 C152.72,49.936 152.788,49.784 152.924,49.704 C153.06,49.624 153.2,49.584 153.344,49.584 L153.344,49.584 L157.304,49.584 L157.304,59.136 C157.304,59.28 157.26,59.388 157.172,59.46 C157.084,59.532 156.984,59.568 156.872,59.568 L156.872,59.568 L156.872,60 L160.568,60 Z M171.824,60 L171.824,59.568 C171.376,59.568 171.152,59.448 171.152,59.208 L171.152,59.208 L171.152,50.232 C171.152,49.992 171.376,49.872 171.824,49.872 L171.824,49.872 L171.824,49.44 L168.176,49.44 L168.176,49.872 C168.432,49.872 168.608,49.9 168.704,49.956 C168.8,50.012 168.848,50.104 168.848,50.232 L168.848,50.232 L168.848,59.208 C168.848,59.336 168.8,59.428 168.704,59.484 C168.608,59.54 168.432,59.568 168.176,59.568 L168.176,59.568 L168.176,60 L171.824,60 Z M178.952,60 L178.952,59.568 C178.68,59.568 178.544,59.448 178.544,59.208 L178.544,59.208 L178.544,52.464 L178.568,52.464 L182.432,60 L182.624,60 L186.704,52.464 L186.752,52.464 L186.752,59.208 C186.8,59.448 186.656,59.568 186.32,59.568 L186.32,59.568 L186.32,60 L189.104,60 L189.104,59.568 C189.024,59.568 188.948,59.54 188.876,59.484 C188.804,59.428 188.768,59.336 188.768,59.208 L188.768,59.208 L188.768,50.184 C188.768,50.056 188.804,49.972 188.876,49.932 C188.948,49.892 189.024,49.872 189.104,49.872 L189.104,49.872 L189.104,49.44 L185.72,49.44 L185.72,49.872 C185.848,49.872 185.912,49.944 185.912,50.088 C185.912,50.136 185.88,50.22 185.816,50.34 C185.752,50.46 185.664,50.616 185.552,50.808 L185.552,50.808 L182.6,56.184 L179.672,50.784 C179.56,50.592 179.476,50.444 179.42,50.34 C179.364,50.236 179.336,50.152 179.336,50.088 C179.336,49.944 179.416,49.872 179.576,49.872 L179.576,49.872 L179.576,49.44 L176.24,49.44 L176.24,49.872 C176.352,49.872 176.428,49.896 176.468,49.944 C176.508,49.992 176.528,50.128 176.528,50.352 L176.528,50.352 L176.528,59.136 C176.528,59.312 176.5,59.424 176.444,59.472 C176.388,59.52 176.32,59.552 176.24,59.568 L176.24,59.568 L176.24,60 L178.952,60 Z M203.216,60.264 L203.216,57.744 L202.784,57.744 C202.784,57.888 202.72,58.004 202.592,58.092 C202.464,58.18 202.304,58.224 202.112,58.224 L202.112,58.224 L195.968,58.224 L195.968,55.392 L199.472,55.392 C199.792,55.392 200.04,55.412 200.216,55.452 C200.392,55.492 200.456,55.6 200.408,55.776 L200.408,55.776 L200.888,55.776 L200.888,53.232 L200.456,53.232 C200.456,53.408 200.392,53.516 200.264,53.556 C200.136,53.596 199.936,53.616 199.664,53.616 L199.664,53.616 L195.968,53.616 L195.968,51.216 L201.824,51.216 C202.32,51.216 202.568,51.368 202.568,51.672 L202.568,51.672 L203,51.672 L203,49.008 L202.568,49.008 C202.568,49.296 202.32,49.44 201.824,49.44 L201.824,49.44 L193.304,49.44 L193.304,49.872 C193.384,49.872 193.464,49.9 193.544,49.956 C193.624,50.012 193.664,50.104 193.664,50.232 L193.664,50.232 L193.664,59.208 C193.664,59.336 193.624,59.428 193.544,59.484 C193.464,59.54 193.384,59.568 193.304,59.568 L193.304,59.568 L193.304,60 L202.112,60 C202.304,60 202.464,60.008 202.592,60.024 C202.72,60.04 202.784,60.12 202.784,60.264 L202.784,60.264 L203.216,60.264 Z" id="ScreenTime" fill="#000000" fill-rule="nonzero"></path>
        <path d="M32.884,286.048 C33.3213333,286.048 33.7933333,286.013333 34.3,285.944 C34.8066667,285.874667 35.2786667,285.738667 35.716,285.536 C36.1533333,285.333333 36.5186667,285.056 36.812,284.704 C37.1053333,284.352 37.252,283.898667 37.252,283.344 C37.252,282.864 37.1586667,282.474667 36.972,282.176 C36.7853333,281.877333 36.54,281.64 36.236,281.464 C35.932,281.288 35.5853333,281.16 35.196,281.08 C34.8066667,281 34.4093333,280.944 34.004,280.912 C33.5986667,280.88 33.2013333,280.853333 32.812,280.832 C32.4226667,280.810667 32.076,280.768 31.772,280.704 C31.468,280.64 31.2226667,280.544 31.036,280.416 C30.8493333,280.288 30.756,280.096 30.756,279.84 C30.756,279.658667 30.8226667,279.506667 30.956,279.384 C31.0893333,279.261333 31.2573333,279.162667 31.46,279.088 C31.6626667,279.013333 31.8893333,278.957333 32.14,278.92 C32.3906667,278.882667 32.6333333,278.864 32.868,278.864 C33.1773333,278.864 33.4866667,278.893333 33.796,278.952 C34.1053333,279.010667 34.3933333,279.088 34.66,279.184 C34.9266667,279.28 35.1586667,279.389333 35.356,279.512 C35.5533333,279.634667 35.6946667,279.76 35.78,279.888 C35.844,279.984 35.8866667,280.106667 35.908,280.256 L35.908,280.256 L36.068,280.32 L37.172,278.32 L36.98,278.192 C36.916,278.256 36.8093333,278.288 36.66,278.288 C36.5213333,278.288 36.348,278.245333 36.14,278.16 C35.932,278.074667 35.676,277.984 35.372,277.888 C35.068,277.792 34.708,277.701333 34.292,277.616 C33.876,277.530667 33.3853333,277.488 32.82,277.488 C32.1586667,277.488 31.5826667,277.565333 31.092,277.72 C30.6013333,277.874667 30.196,278.074667 29.876,278.32 C29.556,278.565333 29.3186667,278.848 29.164,279.168 C29.0093333,279.488 28.932,279.813333 28.932,280.144 C28.932,280.634667 29.0253333,281.032 29.212,281.336 C29.3986667,281.64 29.644,281.88 29.948,282.056 C30.252,282.232 30.5986667,282.357333 30.988,282.432 C31.3773333,282.506667 31.7746667,282.56 32.18,282.592 C32.5853333,282.624 32.9826667,282.648 33.372,282.664 C33.7613333,282.68 34.108,282.714667 34.412,282.768 C34.716,282.821333 34.9613333,282.906667 35.148,283.024 C35.3346667,283.141333 35.428,283.322667 35.428,283.568 C35.428,283.813333 35.3266667,284.010667 35.124,284.16 C34.9213333,284.309333 34.6813333,284.426667 34.404,284.512 C34.1266667,284.597333 33.844,284.653333 33.556,284.68 C33.268,284.706667 33.0333333,284.72 32.852,284.72 C32.6066667,284.72 32.3293333,284.690667 32.02,284.632 C31.7106667,284.573333 31.4146667,284.496 31.132,284.4 C30.8493333,284.304 30.5986667,284.194667 30.38,284.072 C30.1613333,283.949333 30.0146667,283.824 29.94,283.696 C29.8973333,283.621333 29.876,283.536 29.876,283.44 L29.876,283.44 L29.716,283.36 L28.836,285.296 L29.06,285.424 C29.124,285.338667 29.1933333,285.296 29.268,285.296 C29.3853333,285.296 29.524,285.336 29.684,285.416 C29.844,285.496 30.06,285.586667 30.332,285.688 C30.604,285.789333 30.9453333,285.874667 31.356,285.944 C31.7666667,286.013333 32.276,286.048 32.884,286.048 Z M42.9,286.048 C43.38,286.048 43.8146667,286.005333 44.204,285.92 C44.5933333,285.834667 44.9346667,285.730667 45.228,285.608 C45.5213333,285.485333 45.764,285.376 45.956,285.28 C46.148,285.184 46.2866667,285.136 46.372,285.136 C46.4253333,285.136 46.516,285.162667 46.644,285.216 L46.644,285.216 L46.804,285.136 L45.62,283.44 L45.444,283.6 C45.4546667,283.642667 45.46,283.696 45.46,283.76 L45.46,283.76 L45.46,283.888 C45.46,283.984 45.3826667,284.090667 45.228,284.208 C45.0733333,284.325333 44.8733333,284.434667 44.628,284.536 C44.3826667,284.637333 44.1106667,284.725333 43.812,284.8 C43.5133333,284.874667 43.22,284.912 42.932,284.912 C42.6226667,284.912 42.3186667,284.856 42.02,284.744 C41.7213333,284.632 41.4546667,284.466667 41.22,284.248 C40.9853333,284.029333 40.796,283.768 40.652,283.464 C40.508,283.16 40.436,282.816 40.436,282.432 C40.436,282.048 40.5,281.706667 40.628,281.408 C40.756,281.109333 40.9373333,280.858667 41.172,280.656 C41.4066667,280.453333 41.6813333,280.301333 41.996,280.2 C42.3106667,280.098667 42.66,280.048 43.044,280.048 C43.364,280.048 43.6573333,280.077333 43.924,280.136 C44.1906667,280.194667 44.4226667,280.266667 44.62,280.352 C44.8173333,280.437333 44.9693333,280.525333 45.076,280.616 C45.1826667,280.706667 45.236,280.778667 45.236,280.832 C45.236,280.864 45.2386667,280.890667 45.244,280.912 C45.2493333,280.933333 45.252,280.954667 45.252,280.976 L45.252,280.976 L45.428,281.104 L46.484,279.584 L46.292,279.472 C46.2493333,279.493333 46.2093333,279.52 46.172,279.552 C46.1346667,279.584 46.0893333,279.6 46.036,279.6 C45.9613333,279.6 45.8386667,279.562667 45.668,279.488 C45.4973333,279.413333 45.284,279.328 45.028,279.232 C44.772,279.136 44.476,279.050667 44.14,278.976 C43.804,278.901333 43.4333333,278.864 43.028,278.864 C42.5053333,278.864 41.996,278.938667 41.5,279.088 C41.004,279.237333 40.564,279.464 40.18,279.768 C39.796,280.072 39.4866667,280.448 39.252,280.896 C39.0173333,281.344 38.9,281.866667 38.9,282.464 C38.9,283.061333 39.0173333,283.586667 39.252,284.04 C39.4866667,284.493333 39.7906667,284.872 40.164,285.176 C40.5373333,285.48 40.964,285.701333 41.444,285.84 C41.924,285.978667 42.4093333,286.048 42.9,286.048 Z M50.66,286 L50.66,285.712 C50.596,285.712 50.5293333,285.693333 50.46,285.656 C50.3906667,285.618667 50.356,285.557333 50.356,285.472 L50.356,285.472 L50.356,283.184 L52.58,283.184 L53.844,285.072 C54.004,285.296 54.084,285.461333 54.084,285.568 C54.084,285.664 54.0146667,285.712 53.876,285.712 L53.876,285.712 L53.876,286 L56.324,286 L56.324,285.712 C56.2066667,285.68 56.0973333,285.634667 55.996,285.576 C55.8946667,285.517333 55.8013333,285.429333 55.716,285.312 L55.716,285.312 L54.148,283.024 C54.372,282.970667 54.5906667,282.893333 54.804,282.792 C55.0173333,282.690667 55.212,282.557333 55.388,282.392 C55.564,282.226667 55.7053333,282.032 55.812,281.808 C55.9186667,281.584 55.972,281.328 55.972,281.04 C55.972,280.282667 55.7053333,279.746667 55.172,279.432 C54.6386667,279.117333 53.8973333,278.96 52.948,278.96 L52.948,278.96 L48.532,278.96 L48.532,279.248 C48.724,279.248 48.82,279.328 48.82,279.488 L48.82,279.488 L48.82,285.472 C48.82,285.632 48.724,285.712 48.532,285.712 L48.532,285.712 L48.532,286 L50.66,286 Z M52.916,282 L50.388,282 L50.388,280.144 L52.916,280.144 C53.46,280.144 53.8573333,280.221333 54.108,280.376 C54.3586667,280.530667 54.484,280.741333 54.484,281.008 C54.484,281.669333 53.9613333,282 52.916,282 L52.916,282 Z M64.98,286.176 L64.98,284.496 L64.692,284.496 C64.692,284.592 64.6493333,284.669333 64.564,284.728 C64.4786667,284.786667 64.372,284.816 64.244,284.816 L64.244,284.816 L60.148,284.816 L60.148,282.928 L62.484,282.928 C62.6973333,282.928 62.8626667,282.941333 62.98,282.968 C63.0973333,282.994667 63.14,283.066667 63.108,283.184 L63.108,283.184 L63.428,283.184 L63.428,281.488 L63.14,281.488 C63.14,281.605333 63.0973333,281.677333 63.012,281.704 C62.9266667,281.730667 62.7933333,281.744 62.612,281.744 L62.612,281.744 L60.148,281.744 L60.148,280.144 L64.052,280.144 C64.3826667,280.144 64.548,280.245333 64.548,280.448 L64.548,280.448 L64.836,280.448 L64.836,278.672 L64.548,278.672 C64.548,278.864 64.3826667,278.96 64.052,278.96 L64.052,278.96 L58.372,278.96 L58.372,279.248 C58.4253333,279.248 58.4786667,279.266667 58.532,279.304 C58.5853333,279.341333 58.612,279.402667 58.612,279.488 L58.612,279.488 L58.612,285.472 C58.612,285.557333 58.5853333,285.618667 58.532,285.656 C58.4786667,285.693333 58.4253333,285.712 58.372,285.712 L58.372,285.712 L58.372,286 L64.244,286 C64.372,286 64.4786667,286.005333 64.564,286.016 C64.6493333,286.026667 64.692,286.08 64.692,286.176 L64.692,286.176 L64.98,286.176 Z M73.876,286.176 L73.876,284.496 L73.588,284.496 C73.588,284.592 73.5453333,284.669333 73.46,284.728 C73.3746667,284.786667 73.268,284.816 73.14,284.816 L73.14,284.816 L69.044,284.816 L69.044,282.928 L71.38,282.928 C71.5933333,282.928 71.7586667,282.941333 71.876,282.968 C71.9933333,282.994667 72.036,283.066667 72.004,283.184 L72.004,283.184 L72.324,283.184 L72.324,281.488 L72.036,281.488 C72.036,281.605333 71.9933333,281.677333 71.908,281.704 C71.8226667,281.730667 71.6893333,281.744 71.508,281.744 L71.508,281.744 L69.044,281.744 L69.044,280.144 L72.948,280.144 C73.2786667,280.144 73.444,280.245333 73.444,280.448 L73.444,280.448 L73.732,280.448 L73.732,278.672 L73.444,278.672 C73.444,278.864 73.2786667,278.96 72.948,278.96 L72.948,278.96 L67.268,278.96 L67.268,279.248 C67.3213333,279.248 67.3746667,279.266667 67.428,279.304 C67.4813333,279.341333 67.508,279.402667 67.508,279.488 L67.508,279.488 L67.508,285.472 C67.508,285.557333 67.4813333,285.618667 67.428,285.656 C67.3746667,285.693333 67.3213333,285.712 67.268,285.712 L67.268,285.712 L67.268,286 L73.14,286 C73.268,286 73.3746667,286.005333 73.46,286.016 C73.5453333,286.026667 73.588,286.08 73.588,286.176 L73.588,286.176 L73.876,286.176 Z M78.116,286 L78.116,285.712 C77.892,285.712 77.78,285.632 77.78,285.472 L77.78,285.472 L77.78,280.816 L81.748,285.04 C81.876,285.178667 81.9906667,285.301333 82.092,285.408 C82.1933333,285.514667 82.244,285.589333 82.244,285.632 C82.244,285.685333 82.2066667,285.712 82.132,285.712 L82.132,285.712 L82.132,286 L84.212,286 L84.212,285.712 C84.02,285.712 83.924,285.632 83.924,285.472 L83.924,285.472 L83.924,279.488 C83.924,279.328 84.02,279.248 84.212,279.248 L84.212,279.248 L84.212,278.96 L82.26,278.96 L82.26,279.248 C82.4733333,279.248 82.58,279.328 82.58,279.488 L82.58,279.488 L82.58,283.824 L78.74,279.76 C78.5053333,279.525333 78.388,279.381333 78.388,279.328 C78.388,279.285333 78.4253333,279.258667 78.5,279.248 L78.5,279.248 L78.5,278.96 L76.148,278.96 L76.148,279.248 C76.34,279.248 76.436,279.328 76.436,279.488 L76.436,279.488 L76.436,285.472 C76.436,285.632 76.34,285.712 76.148,285.712 L76.148,285.712 L76.148,286 L78.116,286 Z M95.46,286 L95.46,285.712 C95.268,285.712 95.172,285.632 95.172,285.472 L95.172,285.472 L95.172,280.144 L97.252,280.144 C97.3373333,280.144 97.4173333,280.165333 97.492,280.208 C97.5666667,280.250667 97.604,280.32 97.604,280.416 L97.604,280.416 L97.892,280.416 L97.892,278.576 L97.604,278.576 C97.604,278.725333 97.5666667,278.826667 97.492,278.88 C97.4173333,278.933333 97.3373333,278.96 97.252,278.96 L97.252,278.96 L91.556,278.96 C91.4706667,278.96 91.3906667,278.933333 91.316,278.88 C91.2413333,278.826667 91.204,278.725333 91.204,278.576 L91.204,278.576 L90.916,278.576 L90.916,280.416 L91.204,280.416 C91.204,280.32 91.2413333,280.250667 91.316,280.208 C91.3906667,280.165333 91.4706667,280.144 91.556,280.144 L91.556,280.144 L93.636,280.144 L93.636,285.472 C93.636,285.557333 93.6093333,285.618667 93.556,285.656 C93.5026667,285.693333 93.4493333,285.712 93.396,285.712 L93.396,285.712 L93.396,286 L95.46,286 Z M102.276,286 L102.276,285.712 C101.977333,285.712 101.828,285.632 101.828,285.472 L101.828,285.472 L101.828,279.488 C101.828,279.328 101.977333,279.248 102.276,279.248 L102.276,279.248 L102.276,278.96 L99.844,278.96 L99.844,279.248 C100.014667,279.248 100.132,279.266667 100.196,279.304 C100.26,279.341333 100.292,279.402667 100.292,279.488 L100.292,279.488 L100.292,285.472 C100.292,285.557333 100.26,285.618667 100.196,285.656 C100.132,285.693333 100.014667,285.712 99.844,285.712 L99.844,285.712 L99.844,286 L102.276,286 Z M107.028,286 L107.028,285.712 C106.846667,285.712 106.756,285.632 106.756,285.472 L106.756,285.472 L106.756,280.976 L106.772,280.976 L109.348,286 L109.476,286 L112.196,280.976 L112.228,280.976 L112.228,285.472 C112.26,285.632 112.164,285.712 111.94,285.712 L111.94,285.712 L111.94,286 L113.796,286 L113.796,285.712 C113.742667,285.712 113.692,285.693333 113.644,285.656 C113.596,285.618667 113.572,285.557333 113.572,285.472 L113.572,285.472 L113.572,279.456 C113.572,279.370667 113.596,279.314667 113.644,279.288 C113.692,279.261333 113.742667,279.248 113.796,279.248 L113.796,279.248 L113.796,278.96 L111.54,278.96 L111.54,279.248 C111.625333,279.248 111.668,279.296 111.668,279.392 C111.668,279.424 111.646667,279.48 111.604,279.56 C111.561333,279.64 111.502667,279.744 111.428,279.872 L111.428,279.872 L109.46,283.456 L107.508,279.856 C107.433333,279.728 107.377333,279.629333 107.34,279.56 C107.302667,279.490667 107.284,279.434667 107.284,279.392 C107.284,279.296 107.337333,279.248 107.444,279.248 L107.444,279.248 L107.444,278.96 L105.22,278.96 L105.22,279.248 C105.294667,279.248 105.345333,279.264 105.372,279.296 C105.398667,279.328 105.412,279.418667 105.412,279.568 L105.412,279.568 L105.412,285.424 C105.412,285.541333 105.393333,285.616 105.356,285.648 C105.318667,285.68 105.273333,285.701333 105.22,285.712 L105.22,285.712 L105.22,286 L107.028,286 Z M123.204,286.176 L123.204,284.496 L122.916,284.496 C122.916,284.592 122.873333,284.669333 122.788,284.728 C122.702667,284.786667 122.596,284.816 122.468,284.816 L122.468,284.816 L118.372,284.816 L118.372,282.928 L120.708,282.928 C120.921333,282.928 121.086667,282.941333 121.204,282.968 C121.321333,282.994667 121.364,283.066667 121.332,283.184 L121.332,283.184 L121.652,283.184 L121.652,281.488 L121.364,281.488 C121.364,281.605333 121.321333,281.677333 121.236,281.704 C121.150667,281.730667 121.017333,281.744 120.836,281.744 L120.836,281.744 L118.372,281.744 L118.372,280.144 L122.276,280.144 C122.606667,280.144 122.772,280.245333 122.772,280.448 L122.772,280.448 L123.06,280.448 L123.06,278.672 L122.772,278.672 C122.772,278.864 122.606667,278.96 122.276,278.96 L122.276,278.96 L116.596,278.96 L116.596,279.248 C116.649333,279.248 116.702667,279.266667 116.756,279.304 C116.809333,279.341333 116.836,279.402667 116.836,279.488 L116.836,279.488 L116.836,285.472 C116.836,285.557333 116.809333,285.618667 116.756,285.656 C116.702667,285.693333 116.649333,285.712 116.596,285.712 L116.596,285.712 L116.596,286 L122.468,286 C122.596,286 122.702667,286.005333 122.788,286.016 C122.873333,286.026667 122.916,286.08 122.916,286.176 L122.916,286.176 L123.204,286.176 Z M132.932,286 L132.932,285.712 C132.633333,285.712 132.484,285.632 132.484,285.472 L132.484,285.472 L132.484,279.488 C132.484,279.328 132.633333,279.248 132.932,279.248 L132.932,279.248 L132.932,278.96 L130.5,278.96 L130.5,279.248 C130.670667,279.248 130.788,279.266667 130.852,279.304 C130.916,279.341333 130.948,279.402667 130.948,279.488 L130.948,279.488 L130.948,285.472 C130.948,285.557333 130.916,285.618667 130.852,285.656 C130.788,285.693333 130.670667,285.712 130.5,285.712 L130.5,285.712 L130.5,286 L132.932,286 Z M138.708,286.048 C139.070667,286.048 139.457333,286.021333 139.868,285.968 C140.278667,285.914667 140.654667,285.802667 140.996,285.632 C141.337333,285.461333 141.622667,285.226667 141.852,284.928 C142.081333,284.629333 142.196,284.245333 142.196,283.776 C142.196,283.306667 142.065333,282.938667 141.804,282.672 C141.542667,282.405333 141.214667,282.202667 140.82,282.064 C140.425333,281.925333 139.998667,281.826667 139.54,281.768 C139.081333,281.709333 138.654667,281.650667 138.26,281.592 C137.865333,281.533333 137.537333,281.453333 137.276,281.352 C137.014667,281.250667 136.884,281.082667 136.884,280.848 C136.884,280.698667 136.926667,280.573333 137.012,280.472 C137.097333,280.370667 137.214667,280.288 137.364,280.224 C137.513333,280.16 137.684,280.114667 137.876,280.088 C138.068,280.061333 138.270667,280.048 138.484,280.048 C139.038667,280.048 139.54,280.112 139.988,280.24 C140.436,280.368 140.766667,280.522667 140.98,280.704 C141.065333,280.768 141.113333,280.832 141.124,280.896 C141.134667,280.96 141.145333,281.024 141.156,281.088 L141.156,281.088 L141.444,281.184 L142.244,279.68 L142.068,279.504 C142.004,279.536 141.950667,279.565333 141.908,279.592 C141.865333,279.618667 141.801333,279.632 141.716,279.632 C141.641333,279.632 141.526667,279.592 141.372,279.512 C141.217333,279.432 141.017333,279.344 140.772,279.248 C140.526667,279.152 140.225333,279.064 139.868,278.984 C139.510667,278.904 139.081333,278.864 138.58,278.864 C137.556,278.864 136.761333,279.066667 136.196,279.472 C135.630667,279.877333 135.348,280.421333 135.348,281.104 C135.348,281.562667 135.478667,281.917333 135.74,282.168 C136.001333,282.418667 136.329333,282.610667 136.724,282.744 C137.118667,282.877333 137.545333,282.973333 138.004,283.032 C138.462667,283.090667 138.889333,283.149333 139.284,283.208 C139.678667,283.266667 140.006667,283.349333 140.268,283.456 C140.529333,283.562667 140.66,283.733333 140.66,283.968 C140.66,284.170667 140.585333,284.333333 140.436,284.456 C140.286667,284.578667 140.105333,284.674667 139.892,284.744 C139.678667,284.813333 139.462667,284.858667 139.244,284.88 C139.025333,284.901333 138.841333,284.912 138.692,284.912 C138.532,284.912 138.310667,284.885333 138.028,284.832 C137.745333,284.778667 137.462667,284.706667 137.18,284.616 C136.897333,284.525333 136.654667,284.413333 136.452,284.28 C136.249333,284.146667 136.148,284 136.148,283.84 C136.148,283.786667 136.150667,283.736 136.156,283.688 C136.161333,283.64 136.164,283.594667 136.164,283.552 L136.164,283.552 L135.86,283.472 L135.124,285.264 L135.348,285.424 C135.401333,285.36 135.465333,285.328 135.54,285.328 C135.582667,285.328 135.705333,285.368 135.908,285.448 C136.110667,285.528 136.358667,285.613333 136.652,285.704 C136.945333,285.794667 137.270667,285.874667 137.628,285.944 C137.985333,286.013333 138.345333,286.048 138.708,286.048 Z M151.428,286 L151.428,285.712 C151.204,285.712 151.092,285.632 151.092,285.472 L151.092,285.472 L151.092,280.816 L155.06,285.04 C155.188,285.178667 155.302667,285.301333 155.404,285.408 C155.505333,285.514667 155.556,285.589333 155.556,285.632 C155.556,285.685333 155.518667,285.712 155.444,285.712 L155.444,285.712 L155.444,286 L157.524,286 L157.524,285.712 C157.332,285.712 157.236,285.632 157.236,285.472 L157.236,285.472 L157.236,279.488 C157.236,279.328 157.332,279.248 157.524,279.248 L157.524,279.248 L157.524,278.96 L155.572,278.96 L155.572,279.248 C155.785333,279.248 155.892,279.328 155.892,279.488 L155.892,279.488 L155.892,283.824 L152.052,279.76 C151.817333,279.525333 151.7,279.381333 151.7,279.328 C151.7,279.285333 151.737333,279.258667 151.812,279.248 L151.812,279.248 L151.812,278.96 L149.46,278.96 L149.46,279.248 C149.652,279.248 149.748,279.328 149.748,279.488 L149.748,279.488 L149.748,285.472 C149.748,285.632 149.652,285.712 149.46,285.712 L149.46,285.712 L149.46,286 L151.428,286 Z M163.716,286.048 C164.302667,286.048 164.854667,285.981333 165.372,285.848 C165.889333,285.714667 166.34,285.498667 166.724,285.2 C167.108,284.901333 167.412,284.525333 167.636,284.072 C167.86,283.618667 167.972,283.088 167.972,282.48 C167.972,281.872 167.86,281.341333 167.636,280.888 C167.412,280.434667 167.108,280.058667 166.724,279.76 C166.34,279.461333 165.889333,279.237333 165.372,279.088 C164.854667,278.938667 164.302667,278.864 163.716,278.864 C163.129333,278.864 162.577333,278.938667 162.06,279.088 C161.542667,279.237333 161.092,279.461333 160.708,279.76 C160.324,280.058667 160.02,280.434667 159.796,280.888 C159.572,281.341333 159.46,281.872 159.46,282.48 C159.46,283.088 159.572,283.618667 159.796,284.072 C160.02,284.525333 160.324,284.901333 160.708,285.2 C161.092,285.498667 161.542667,285.714667 162.06,285.848 C162.577333,285.981333 163.129333,286.048 163.716,286.048 Z M163.716,284.912 C163.374667,284.912 163.041333,284.856 162.716,284.744 C162.390667,284.632 162.1,284.472 161.844,284.264 C161.588,284.056 161.382667,283.802667 161.228,283.504 C161.073333,283.205333 160.996,282.864 160.996,282.48 C160.996,282.096 161.073333,281.754667 161.228,281.456 C161.382667,281.157333 161.588,280.904 161.844,280.696 C162.1,280.488 162.390667,280.328 162.716,280.216 C163.041333,280.104 163.374667,280.048 163.716,280.048 C164.057333,280.048 164.390667,280.104 164.716,280.216 C165.041333,280.328 165.332,280.488 165.588,280.696 C165.844,280.904 166.049333,281.157333 166.204,281.456 C166.358667,281.754667 166.436,282.096 166.436,282.48 C166.436,282.864 166.358667,283.205333 166.204,283.504 C166.049333,283.802667 165.844,284.056 165.588,284.264 C165.332,284.472 165.041333,284.632 164.716,284.744 C164.390667,284.856 164.057333,284.912 163.716,284.912 Z M181.716,286.16 L181.716,284.48 L181.428,284.48 C181.428,284.586667 181.385333,284.669333 181.3,284.728 C181.214667,284.786667 181.108,284.816 180.98,284.816 L180.98,284.816 L176.66,284.816 L176.66,279.488 C176.66,279.328 176.782667,279.248 177.028,279.248 L177.028,279.248 L177.028,278.96 L174.708,278.96 L174.708,279.248 C174.985333,279.248 175.124,279.328 175.124,279.488 L175.124,279.488 L175.124,285.472 C175.124,285.632 174.985333,285.712 174.708,285.712 L174.708,285.712 L174.708,286 L180.98,286 C181.108,286 181.214667,286.005333 181.3,286.016 C181.385333,286.026667 181.428,286.074667 181.428,286.16 L181.428,286.16 L181.716,286.16 Z M187.268,286.048 C187.854667,286.048 188.406667,285.981333 188.924,285.848 C189.441333,285.714667 189.892,285.498667 190.276,285.2 C190.66,284.901333 190.964,284.525333 191.188,284.072 C191.412,283.618667 191.524,283.088 191.524,282.48 C191.524,281.872 191.412,281.341333 191.188,280.888 C190.964,280.434667 190.66,280.058667 190.276,279.76 C189.892,279.461333 189.441333,279.237333 188.924,279.088 C188.406667,278.938667 187.854667,278.864 187.268,278.864 C186.681333,278.864 186.129333,278.938667 185.612,279.088 C185.094667,279.237333 184.644,279.461333 184.26,279.76 C183.876,280.058667 183.572,280.434667 183.348,280.888 C183.124,281.341333 183.012,281.872 183.012,282.48 C183.012,283.088 183.124,283.618667 183.348,284.072 C183.572,284.525333 183.876,284.901333 184.26,285.2 C184.644,285.498667 185.094667,285.714667 185.612,285.848 C186.129333,285.981333 186.681333,286.048 187.268,286.048 Z M187.268,284.912 C186.926667,284.912 186.593333,284.856 186.268,284.744 C185.942667,284.632 185.652,284.472 185.396,284.264 C185.14,284.056 184.934667,283.802667 184.78,283.504 C184.625333,283.205333 184.548,282.864 184.548,282.48 C184.548,282.096 184.625333,281.754667 184.78,281.456 C184.934667,281.157333 185.14,280.904 185.396,280.696 C185.652,280.488 185.942667,280.328 186.268,280.216 C186.593333,280.104 186.926667,280.048 187.268,280.048 C187.609333,280.048 187.942667,280.104 188.268,280.216 C188.593333,280.328 188.884,280.488 189.14,280.696 C189.396,280.904 189.601333,281.157333 189.756,281.456 C189.910667,281.754667 189.988,282.096 189.988,282.48 C189.988,282.864 189.910667,283.205333 189.756,283.504 C189.601333,283.802667 189.396,284.056 189.14,284.264 C188.884,284.472 188.593333,284.632 188.268,284.744 C187.942667,284.856 187.609333,284.912 187.268,284.912 Z M195.428,286 L195.428,285.712 C195.204,285.712 195.092,285.632 195.092,285.472 L195.092,285.472 L195.092,280.816 L199.06,285.04 C199.188,285.178667 199.302667,285.301333 199.404,285.408 C199.505333,285.514667 199.556,285.589333 199.556,285.632 C199.556,285.685333 199.518667,285.712 199.444,285.712 L199.444,285.712 L199.444,286 L201.524,286 L201.524,285.712 C201.332,285.712 201.236,285.632 201.236,285.472 L201.236,285.472 L201.236,279.488 C201.236,279.328 201.332,279.248 201.524,279.248 L201.524,279.248 L201.524,278.96 L199.572,278.96 L199.572,279.248 C199.785333,279.248 199.892,279.328 199.892,279.488 L199.892,279.488 L199.892,283.824 L196.052,279.76 C195.817333,279.525333 195.7,279.381333 195.7,279.328 C195.7,279.285333 195.737333,279.258667 195.812,279.248 L195.812,279.248 L195.812,278.96 L193.46,278.96 L193.46,279.248 C193.652,279.248 193.748,279.328 193.748,279.488 L193.748,279.488 L193.748,285.472 C193.748,285.632 193.652,285.712 193.46,285.712 L193.46,285.712 L193.46,286 L195.428,286 Z M207.892,286.048 C208.404,286.048 208.868,286.013333 209.284,285.944 C209.7,285.874667 210.065333,285.786667 210.38,285.68 C210.694667,285.573333 210.956,285.464 211.164,285.352 C211.372,285.24 211.524,285.152 211.62,285.088 L211.62,285.088 L211.62,284.896 C211.513333,284.853333 211.446667,284.813333 211.42,284.776 C211.393333,284.738667 211.38,284.672 211.38,284.576 L211.38,284.576 L211.38,283.056 C211.38,282.949333 211.396,282.869333 211.428,282.816 C211.46,282.762667 211.524,282.714667 211.62,282.672 L211.62,282.672 L211.62,282.384 L208.484,282.384 C208.366667,282.384 208.265333,282.368 208.18,282.336 C208.094667,282.304 208.041333,282.234667 208.02,282.128 L208.02,282.128 L207.732,282.128 L207.732,283.776 L208.02,283.776 C208.041333,283.648 208.094667,283.56 208.18,283.512 C208.265333,283.464 208.366667,283.44 208.484,283.44 L208.484,283.44 L210.132,283.44 L210.132,284.448 C209.790667,284.629333 209.414667,284.752 209.004,284.816 C208.593333,284.88 208.158667,284.912 207.7,284.912 C207.390667,284.912 207.070667,284.869333 206.74,284.784 C206.409333,284.698667 206.108,284.562667 205.836,284.376 C205.564,284.189333 205.342667,283.944 205.172,283.64 C205.001333,283.336 204.916,282.96 204.916,282.512 C204.916,282.064 204.996,281.685333 205.156,281.376 C205.316,281.066667 205.529333,280.813333 205.796,280.616 C206.062667,280.418667 206.372,280.274667 206.724,280.184 C207.076,280.093333 207.449333,280.048 207.844,280.048 C208.132,280.048 208.417333,280.077333 208.7,280.136 C208.982667,280.194667 209.236,280.272 209.46,280.368 C209.684,280.464 209.865333,280.568 210.004,280.68 C210.142667,280.792 210.212,280.896 210.212,280.992 C210.212,281.002667 210.201333,281.061333 210.18,281.168 L210.18,281.168 L210.372,281.28 L211.3,279.536 L211.108,279.44 C211.044,279.493333 210.990667,279.528 210.948,279.544 C210.905333,279.56 210.841333,279.568 210.756,279.568 C210.681333,279.568 210.569333,279.530667 210.42,279.456 C210.270667,279.381333 210.073333,279.301333 209.828,279.216 C209.593333,279.130667 209.316,279.050667 208.996,278.976 C208.676,278.901333 208.308,278.864 207.892,278.864 C207.198667,278.864 206.572,278.946667 206.012,279.112 C205.452,279.277333 204.977333,279.517333 204.588,279.832 C204.198667,280.146667 203.9,280.525333 203.692,280.968 C203.484,281.410667 203.38,281.914667 203.38,282.48 C203.38,283.045333 203.484,283.549333 203.692,283.992 C203.9,284.434667 204.198667,284.810667 204.588,285.12 C204.977333,285.429333 205.452,285.661333 206.012,285.816 C206.572,285.970667 207.198667,286.048 207.892,286.048 Z M220.532,286.176 L220.532,284.496 L220.244,284.496 C220.244,284.592 220.201333,284.669333 220.116,284.728 C220.030667,284.786667 219.924,284.816 219.796,284.816 L219.796,284.816 L215.7,284.816 L215.7,282.928 L218.036,282.928 C218.249333,282.928 218.414667,282.941333 218.532,282.968 C218.649333,282.994667 218.692,283.066667 218.66,283.184 L218.66,283.184 L218.98,283.184 L218.98,281.488 L218.692,281.488 C218.692,281.605333 218.649333,281.677333 218.564,281.704 C218.478667,281.730667 218.345333,281.744 218.164,281.744 L218.164,281.744 L215.7,281.744 L215.7,280.144 L219.604,280.144 C219.934667,280.144 220.1,280.245333 220.1,280.448 L220.1,280.448 L220.388,280.448 L220.388,278.672 L220.1,278.672 C220.1,278.864 219.934667,278.96 219.604,278.96 L219.604,278.96 L213.924,278.96 L213.924,279.248 C213.977333,279.248 214.030667,279.266667 214.084,279.304 C214.137333,279.341333 214.164,279.402667 214.164,279.488 L214.164,279.488 L214.164,285.472 C214.164,285.557333 214.137333,285.618667 214.084,285.656 C214.030667,285.693333 213.977333,285.712 213.924,285.712 L213.924,285.712 L213.924,286 L219.796,286 C219.924,286 220.030667,286.005333 220.116,286.016 C220.201333,286.026667 220.244,286.08 220.244,286.176 L220.244,286.176 L220.532,286.176 Z M224.884,286 L224.884,285.712 C224.82,285.712 224.753333,285.693333 224.684,285.656 C224.614667,285.618667 224.58,285.557333 224.58,285.472 L224.58,285.472 L224.58,283.184 L226.804,283.184 L228.068,285.072 C228.228,285.296 228.308,285.461333 228.308,285.568 C228.308,285.664 228.238667,285.712 228.1,285.712 L228.1,285.712 L228.1,286 L230.548,286 L230.548,285.712 C230.430667,285.68 230.321333,285.634667 230.22,285.576 C230.118667,285.517333 230.025333,285.429333 229.94,285.312 L229.94,285.312 L228.372,283.024 C228.596,282.970667 228.814667,282.893333 229.028,282.792 C229.241333,282.690667 229.436,282.557333 229.612,282.392 C229.788,282.226667 229.929333,282.032 230.036,281.808 C230.142667,281.584 230.196,281.328 230.196,281.04 C230.196,280.282667 229.929333,279.746667 229.396,279.432 C228.862667,279.117333 228.121333,278.96 227.172,278.96 L227.172,278.96 L222.756,278.96 L222.756,279.248 C222.948,279.248 223.044,279.328 223.044,279.488 L223.044,279.488 L223.044,285.472 C223.044,285.632 222.948,285.712 222.756,285.712 L222.756,285.712 L222.756,286 L224.884,286 Z M227.14,282 L224.612,282 L224.612,280.144 L227.14,280.144 C227.684,280.144 228.081333,280.221333 228.332,280.376 C228.582667,280.530667 228.708,280.741333 228.708,281.008 C228.708,281.669333 228.185333,282 227.14,282 L227.14,282 Z M99.54,302 C100.009333,302 100.412,301.949333 100.748,301.848 C101.084,301.746667 101.356,301.610667 101.564,301.44 C101.772,301.269333 101.924,301.072 102.02,300.848 C102.116,300.624 102.164,300.384 102.164,300.128 C102.164,299.904 102.126667,299.696 102.052,299.504 C101.977333,299.312 101.881333,299.141333 101.764,298.992 C101.646667,298.842667 101.513333,298.714667 101.364,298.608 C101.214667,298.501333 101.065333,298.416 100.916,298.352 L100.916,298.352 L100.916,298.336 C101.044,298.272 101.169333,298.186667 101.292,298.08 C101.414667,297.973333 101.526667,297.853333 101.628,297.72 C101.729333,297.586667 101.812,297.437333 101.876,297.272 C101.94,297.106667 101.972,296.928 101.972,296.736 C101.972,296.501333 101.924,296.277333 101.828,296.064 C101.732,295.850667 101.585333,295.661333 101.388,295.496 C101.190667,295.330667 100.945333,295.2 100.652,295.104 C100.358667,295.008 100.009333,294.96 99.604,294.96 L99.604,294.96 L94.628,294.96 L94.628,295.248 C94.7133333,295.248 94.796,295.266667 94.876,295.304 C94.956,295.341333 94.996,295.402667 94.996,295.488 L94.996,295.488 L94.996,301.472 C94.996,301.557333 94.956,301.618667 94.876,301.656 C94.796,301.693333 94.7133333,301.712 94.628,301.712 L94.628,301.712 L94.628,302 L99.54,302 Z M99.38,297.744 L96.532,297.744 L96.532,296.144 L99.38,296.144 C99.508,296.144 99.636,296.152 99.764,296.168 C99.892,296.184 100.004,296.221333 100.1,296.28 C100.196,296.338667 100.276,296.418667 100.34,296.52 C100.404,296.621333 100.436,296.757333 100.436,296.928 C100.436,297.258667 100.324,297.477333 100.1,297.584 C99.876,297.690667 99.636,297.744 99.38,297.744 L99.38,297.744 Z M99.348,300.816 L96.532,300.816 L96.532,298.928 L99.092,298.928 C99.6466667,298.928 100.041333,299.008 100.276,299.168 C100.510667,299.328 100.628,299.573333 100.628,299.904 C100.628,300.192 100.537333,300.416 100.356,300.576 C100.174667,300.736 99.8386667,300.816 99.348,300.816 L99.348,300.816 Z M105.668,302 L105.668,301.712 C105.572,301.712 105.497333,301.701333 105.444,301.68 C105.390667,301.658667 105.364,301.605333 105.364,301.52 C105.364,301.466667 105.377333,301.405333 105.404,301.336 C105.430667,301.266667 105.465333,301.189333 105.508,301.104 L105.508,301.104 L105.956,300.24 L109.38,300.24 L109.812,301.152 C109.844,301.237333 109.870667,301.306667 109.892,301.36 C109.913333,301.413333 109.924,301.472 109.924,301.536 C109.924,301.621333 109.894667,301.68 109.836,301.712 C109.777333,301.744 109.721333,301.76 109.668,301.76 L109.668,301.76 L109.668,302 L111.94,302 L111.94,301.712 C111.865333,301.690667 111.796,301.658667 111.732,301.616 C111.668,301.573333 111.609333,301.504 111.556,301.408 L111.556,301.408 L108.964,295.968 C108.910667,295.850667 108.86,295.746667 108.812,295.656 C108.764,295.565333 108.74,295.488 108.74,295.424 C108.74,295.349333 108.758667,295.306667 108.796,295.296 C108.833333,295.285333 108.868,295.269333 108.9,295.248 L108.9,295.248 L108.9,294.96 L106.484,294.96 L106.484,295.248 C106.516,295.269333 106.545333,295.288 106.572,295.304 C106.598667,295.32 106.612,295.36 106.612,295.424 C106.612,295.509333 106.593333,295.597333 106.556,295.688 C106.518667,295.778667 106.468,295.898667 106.404,296.048 L106.404,296.048 L104.02,301.248 C103.977333,301.333333 103.916,301.426667 103.836,301.528 C103.756,301.629333 103.652,301.690667 103.524,301.712 L103.524,301.712 L103.524,302 L105.668,302 Z M108.868,299.056 L106.436,299.056 L107.572,296.368 L108.868,299.056 Z M117.764,302 C118.393333,302 118.926667,301.898667 119.364,301.696 C119.801333,301.493333 120.158667,301.229333 120.436,300.904 C120.713333,300.578667 120.916,300.205333 121.044,299.784 C121.172,299.362667 121.236,298.928 121.236,298.48 C121.236,298.032 121.169333,297.597333 121.036,297.176 C120.902667,296.754667 120.694667,296.381333 120.412,296.056 C120.129333,295.730667 119.764,295.466667 119.316,295.264 C118.868,295.061333 118.329333,294.96 117.7,294.96 L117.7,294.96 L113.252,294.96 L113.252,295.248 C113.497333,295.248 113.62,295.328 113.62,295.488 L113.62,295.488 L113.62,301.472 C113.62,301.632 113.497333,301.712 113.252,301.712 L113.252,301.712 L113.252,302 L117.764,302 Z M117.236,300.816 L115.156,300.816 L115.156,296.144 L117.236,296.144 C117.566667,296.144 117.881333,296.162667 118.18,296.2 C118.478667,296.237333 118.74,296.333333 118.964,296.488 C119.188,296.642667 119.366667,296.872 119.5,297.176 C119.633333,297.48 119.7,297.898667 119.7,298.432 C119.7,298.965333 119.633333,299.389333 119.5,299.704 C119.366667,300.018667 119.188,300.258667 118.964,300.424 C118.74,300.589333 118.478667,300.696 118.18,300.744 C117.881333,300.792 117.566667,300.816 117.236,300.816 L117.236,300.816 Z M131.892,302 L131.892,301.712 C131.7,301.712 131.604,301.632 131.604,301.472 L131.604,301.472 L131.604,296.144 L133.684,296.144 C133.769333,296.144 133.849333,296.165333 133.924,296.208 C133.998667,296.250667 134.036,296.32 134.036,296.416 L134.036,296.416 L134.324,296.416 L134.324,294.576 L134.036,294.576 C134.036,294.725333 133.998667,294.826667 133.924,294.88 C133.849333,294.933333 133.769333,294.96 133.684,294.96 L133.684,294.96 L127.988,294.96 C127.902667,294.96 127.822667,294.933333 127.748,294.88 C127.673333,294.826667 127.636,294.725333 127.636,294.576 L127.636,294.576 L127.348,294.576 L127.348,296.416 L127.636,296.416 C127.636,296.32 127.673333,296.250667 127.748,296.208 C127.822667,296.165333 127.902667,296.144 127.988,296.144 L127.988,296.144 L130.068,296.144 L130.068,301.472 C130.068,301.557333 130.041333,301.618667 129.988,301.656 C129.934667,301.693333 129.881333,301.712 129.828,301.712 L129.828,301.712 L129.828,302 L131.892,302 Z M138.708,302 L138.708,301.712 C138.409333,301.712 138.26,301.632 138.26,301.472 L138.26,301.472 L138.26,295.488 C138.26,295.328 138.409333,295.248 138.708,295.248 L138.708,295.248 L138.708,294.96 L136.276,294.96 L136.276,295.248 C136.446667,295.248 136.564,295.266667 136.628,295.304 C136.692,295.341333 136.724,295.402667 136.724,295.488 L136.724,295.488 L136.724,301.472 C136.724,301.557333 136.692,301.618667 136.628,301.656 C136.564,301.693333 136.446667,301.712 136.276,301.712 L136.276,301.712 L136.276,302 L138.708,302 Z M143.46,302 L143.46,301.712 C143.278667,301.712 143.188,301.632 143.188,301.472 L143.188,301.472 L143.188,296.976 L143.204,296.976 L145.78,302 L145.908,302 L148.628,296.976 L148.66,296.976 L148.66,301.472 C148.692,301.632 148.596,301.712 148.372,301.712 L148.372,301.712 L148.372,302 L150.228,302 L150.228,301.712 C150.174667,301.712 150.124,301.693333 150.076,301.656 C150.028,301.618667 150.004,301.557333 150.004,301.472 L150.004,301.472 L150.004,295.456 C150.004,295.370667 150.028,295.314667 150.076,295.288 C150.124,295.261333 150.174667,295.248 150.228,295.248 L150.228,295.248 L150.228,294.96 L147.972,294.96 L147.972,295.248 C148.057333,295.248 148.1,295.296 148.1,295.392 C148.1,295.424 148.078667,295.48 148.036,295.56 C147.993333,295.64 147.934667,295.744 147.86,295.872 L147.86,295.872 L145.892,299.456 L143.94,295.856 C143.865333,295.728 143.809333,295.629333 143.772,295.56 C143.734667,295.490667 143.716,295.434667 143.716,295.392 C143.716,295.296 143.769333,295.248 143.876,295.248 L143.876,295.248 L143.876,294.96 L141.652,294.96 L141.652,295.248 C141.726667,295.248 141.777333,295.264 141.804,295.296 C141.830667,295.328 141.844,295.418667 141.844,295.568 L141.844,295.568 L141.844,301.424 C141.844,301.541333 141.825333,301.616 141.788,301.648 C141.750667,301.68 141.705333,301.701333 141.652,301.712 L141.652,301.712 L141.652,302 L143.46,302 Z M159.636,302.176 L159.636,300.496 L159.348,300.496 C159.348,300.592 159.305333,300.669333 159.22,300.728 C159.134667,300.786667 159.028,300.816 158.9,300.816 L158.9,300.816 L154.804,300.816 L154.804,298.928 L157.14,298.928 C157.353333,298.928 157.518667,298.941333 157.636,298.968 C157.753333,298.994667 157.796,299.066667 157.764,299.184 L157.764,299.184 L158.084,299.184 L158.084,297.488 L157.796,297.488 C157.796,297.605333 157.753333,297.677333 157.668,297.704 C157.582667,297.730667 157.449333,297.744 157.268,297.744 L157.268,297.744 L154.804,297.744 L154.804,296.144 L158.708,296.144 C159.038667,296.144 159.204,296.245333 159.204,296.448 L159.204,296.448 L159.492,296.448 L159.492,294.672 L159.204,294.672 C159.204,294.864 159.038667,294.96 158.708,294.96 L158.708,294.96 L153.028,294.96 L153.028,295.248 C153.081333,295.248 153.134667,295.266667 153.188,295.304 C153.241333,295.341333 153.268,295.402667 153.268,295.488 L153.268,295.488 L153.268,301.472 C153.268,301.557333 153.241333,301.618667 153.188,301.656 C153.134667,301.693333 153.081333,301.712 153.028,301.712 L153.028,301.712 L153.028,302 L158.9,302 C159.028,302 159.134667,302.005333 159.22,302.016 C159.305333,302.026667 159.348,302.08 159.348,302.176 L159.348,302.176 L159.636,302.176 Z M163.044,302.048 C163.353333,302.048 163.62,301.944 163.844,301.736 C164.068,301.528 164.18,301.269333 164.18,300.96 C164.18,300.650667 164.068,300.384 163.844,300.16 C163.62,299.936 163.353333,299.824 163.044,299.824 C162.734667,299.824 162.468,299.936 162.244,300.16 C162.02,300.384 161.908,300.650667 161.908,300.96 C161.908,301.269333 162.02,301.528 162.244,301.736 C162.468,301.944 162.734667,302.048 163.044,302.048 Z M38.54,318 L38.54,317.712 C38.4653333,317.712 38.3986667,317.688 38.34,317.64 C38.2813333,317.592 38.252,317.52 38.252,317.424 L38.252,317.424 L38.252,314.416 L43.404,314.416 L43.404,317.424 C43.404,317.616 43.2866667,317.712 43.052,317.712 L43.052,317.712 L43.052,318 L45.516,318 L45.516,317.712 C45.4413333,317.712 45.3746667,317.688 45.316,317.64 C45.2573333,317.592 45.228,317.52 45.228,317.424 L45.228,317.424 L45.228,310.16 C45.228,310.064 45.2573333,309.992 45.316,309.944 C45.3746667,309.896 45.4413333,309.872 45.516,309.872 L45.516,309.872 L45.516,309.584 L43.052,309.584 L43.052,309.872 C43.2866667,309.872 43.404,309.968 43.404,310.16 L43.404,310.16 L43.404,312.88 L38.252,312.88 L38.252,310.16 C38.252,310.064 38.2813333,309.992 38.34,309.944 C38.3986667,309.896 38.4653333,309.872 38.54,309.872 L38.54,309.872 L38.54,309.584 L36.124,309.584 L36.124,309.872 C36.3266667,309.872 36.428,309.968 36.428,310.16 L36.428,310.16 L36.428,317.424 C36.428,317.616 36.3266667,317.712 36.124,317.712 L36.124,317.712 L36.124,318 L38.54,318 Z M49.436,318 L49.436,317.712 C49.34,317.712 49.2653333,317.701333 49.212,317.68 C49.1586667,317.658667 49.132,317.605333 49.132,317.52 C49.132,317.466667 49.1453333,317.405333 49.172,317.336 C49.1986667,317.266667 49.2333333,317.189333 49.276,317.104 L49.276,317.104 L49.724,316.24 L53.148,316.24 L53.58,317.152 C53.612,317.237333 53.6386667,317.306667 53.66,317.36 C53.6813333,317.413333 53.692,317.472 53.692,317.536 C53.692,317.621333 53.6626667,317.68 53.604,317.712 C53.5453333,317.744 53.4893333,317.76 53.436,317.76 L53.436,317.76 L53.436,318 L55.708,318 L55.708,317.712 C55.6333333,317.690667 55.564,317.658667 55.5,317.616 C55.436,317.573333 55.3773333,317.504 55.324,317.408 L55.324,317.408 L52.732,311.968 C52.6786667,311.850667 52.628,311.746667 52.58,311.656 C52.532,311.565333 52.508,311.488 52.508,311.424 C52.508,311.349333 52.5266667,311.306667 52.564,311.296 C52.6013333,311.285333 52.636,311.269333 52.668,311.248 L52.668,311.248 L52.668,310.96 L50.252,310.96 L50.252,311.248 C50.284,311.269333 50.3133333,311.288 50.34,311.304 C50.3666667,311.32 50.38,311.36 50.38,311.424 C50.38,311.509333 50.3613333,311.597333 50.324,311.688 C50.2866667,311.778667 50.236,311.898667 50.172,312.048 L50.172,312.048 L47.788,317.248 C47.7453333,317.333333 47.684,317.426667 47.604,317.528 C47.524,317.629333 47.42,317.690667 47.292,317.712 L47.292,317.712 L47.292,318 L49.436,318 Z M52.636,315.056 L50.204,315.056 L51.34,312.368 L52.636,315.056 Z M59.212,318 L59.212,317.712 C58.988,317.712 58.876,317.632 58.876,317.472 L58.876,317.472 L58.876,312.816 L62.844,317.04 C62.972,317.178667 63.0866667,317.301333 63.188,317.408 C63.2893333,317.514667 63.34,317.589333 63.34,317.632 C63.34,317.685333 63.3026667,317.712 63.228,317.712 L63.228,317.712 L63.228,318 L65.308,318 L65.308,317.712 C65.116,317.712 65.02,317.632 65.02,317.472 L65.02,317.472 L65.02,311.488 C65.02,311.328 65.116,311.248 65.308,311.248 L65.308,311.248 L65.308,310.96 L63.356,310.96 L63.356,311.248 C63.5693333,311.248 63.676,311.328 63.676,311.488 L63.676,311.488 L63.676,315.824 L59.836,311.76 C59.6013333,311.525333 59.484,311.381333 59.484,311.328 C59.484,311.285333 59.5213333,311.258667 59.596,311.248 L59.596,311.248 L59.596,310.96 L57.244,310.96 L57.244,311.248 C57.436,311.248 57.532,311.328 57.532,311.488 L57.532,311.488 L57.532,317.472 C57.532,317.632 57.436,317.712 57.244,317.712 L57.244,317.712 L57.244,318 L59.212,318 Z M72.204,318 C72.8333333,318 73.3666667,317.898667 73.804,317.696 C74.2413333,317.493333 74.5986667,317.229333 74.876,316.904 C75.1533333,316.578667 75.356,316.205333 75.484,315.784 C75.612,315.362667 75.676,314.928 75.676,314.48 C75.676,314.032 75.6093333,313.597333 75.476,313.176 C75.3426667,312.754667 75.1346667,312.381333 74.852,312.056 C74.5693333,311.730667 74.204,311.466667 73.756,311.264 C73.308,311.061333 72.7693333,310.96 72.14,310.96 L72.14,310.96 L67.692,310.96 L67.692,311.248 C67.9373333,311.248 68.06,311.328 68.06,311.488 L68.06,311.488 L68.06,317.472 C68.06,317.632 67.9373333,317.712 67.692,317.712 L67.692,317.712 L67.692,318 L72.204,318 Z M71.676,316.816 L69.596,316.816 L69.596,312.144 L71.676,312.144 C72.0066667,312.144 72.3213333,312.162667 72.62,312.2 C72.9186667,312.237333 73.18,312.333333 73.404,312.488 C73.628,312.642667 73.8066667,312.872 73.94,313.176 C74.0733333,313.48 74.14,313.898667 74.14,314.432 C74.14,314.965333 74.0733333,315.389333 73.94,315.704 C73.8066667,316.018667 73.628,316.258667 73.404,316.424 C73.18,316.589333 72.9186667,316.696 72.62,316.744 C72.3213333,316.792 72.0066667,316.816 71.676,316.816 L71.676,316.816 Z M89.5,318.16 L89.5,316.48 L89.212,316.48 C89.212,316.586667 89.1693333,316.669333 89.084,316.728 C88.9986667,316.786667 88.892,316.816 88.764,316.816 L88.764,316.816 L84.444,316.816 L84.444,311.488 C84.444,311.328 84.5666667,311.248 84.812,311.248 L84.812,311.248 L84.812,310.96 L82.492,310.96 L82.492,311.248 C82.7693333,311.248 82.908,311.328 82.908,311.488 L82.908,311.488 L82.908,317.472 C82.908,317.632 82.7693333,317.712 82.492,317.712 L82.492,317.712 L82.492,318 L88.764,318 C88.892,318 88.9986667,318.005333 89.084,318.016 C89.1693333,318.026667 89.212,318.074667 89.212,318.16 L89.212,318.16 L89.5,318.16 Z M94.044,318 L94.044,317.712 C93.7453333,317.712 93.596,317.632 93.596,317.472 L93.596,317.472 L93.596,311.488 C93.596,311.328 93.7453333,311.248 94.044,311.248 L94.044,311.248 L94.044,310.96 L91.612,310.96 L91.612,311.248 C91.7826667,311.248 91.9,311.266667 91.964,311.304 C92.028,311.341333 92.06,311.402667 92.06,311.488 L92.06,311.488 L92.06,317.472 C92.06,317.557333 92.028,317.618667 91.964,317.656 C91.9,317.693333 91.7826667,317.712 91.612,317.712 L91.612,317.712 L91.612,318 L94.044,318 Z M98.796,318 L98.796,317.712 C98.6146667,317.712 98.524,317.632 98.524,317.472 L98.524,317.472 L98.524,312.976 L98.54,312.976 L101.116,318 L101.244,318 L103.964,312.976 L103.996,312.976 L103.996,317.472 C104.028,317.632 103.932,317.712 103.708,317.712 L103.708,317.712 L103.708,318 L105.564,318 L105.564,317.712 C105.510667,317.712 105.46,317.693333 105.412,317.656 C105.364,317.618667 105.34,317.557333 105.34,317.472 L105.34,317.472 L105.34,311.456 C105.34,311.370667 105.364,311.314667 105.412,311.288 C105.46,311.261333 105.510667,311.248 105.564,311.248 L105.564,311.248 L105.564,310.96 L103.308,310.96 L103.308,311.248 C103.393333,311.248 103.436,311.296 103.436,311.392 C103.436,311.424 103.414667,311.48 103.372,311.56 C103.329333,311.64 103.270667,311.744 103.196,311.872 L103.196,311.872 L101.228,315.456 L99.276,311.856 C99.2013333,311.728 99.1453333,311.629333 99.108,311.56 C99.0706667,311.490667 99.052,311.434667 99.052,311.392 C99.052,311.296 99.1053333,311.248 99.212,311.248 L99.212,311.248 L99.212,310.96 L96.988,310.96 L96.988,311.248 C97.0626667,311.248 97.1133333,311.264 97.14,311.296 C97.1666667,311.328 97.18,311.418667 97.18,311.568 L97.18,311.568 L97.18,317.424 C97.18,317.541333 97.1613333,317.616 97.124,317.648 C97.0866667,317.68 97.0413333,317.701333 96.988,317.712 L96.988,317.712 L96.988,318 L98.796,318 Z M110.924,318 L110.924,317.712 C110.625333,317.712 110.476,317.632 110.476,317.472 L110.476,317.472 L110.476,311.488 C110.476,311.328 110.625333,311.248 110.924,311.248 L110.924,311.248 L110.924,310.96 L108.492,310.96 L108.492,311.248 C108.662667,311.248 108.78,311.266667 108.844,311.304 C108.908,311.341333 108.94,311.402667 108.94,311.488 L108.94,311.488 L108.94,317.472 C108.94,317.557333 108.908,317.618667 108.844,317.656 C108.78,317.693333 108.662667,317.712 108.492,317.712 L108.492,317.712 L108.492,318 L110.924,318 Z M117.436,318 L117.436,317.712 C117.244,317.712 117.148,317.632 117.148,317.472 L117.148,317.472 L117.148,312.144 L119.228,312.144 C119.313333,312.144 119.393333,312.165333 119.468,312.208 C119.542667,312.250667 119.58,312.32 119.58,312.416 L119.58,312.416 L119.868,312.416 L119.868,310.576 L119.58,310.576 C119.58,310.725333 119.542667,310.826667 119.468,310.88 C119.393333,310.933333 119.313333,310.96 119.228,310.96 L119.228,310.96 L113.532,310.96 C113.446667,310.96 113.366667,310.933333 113.292,310.88 C113.217333,310.826667 113.18,310.725333 113.18,310.576 L113.18,310.576 L112.892,310.576 L112.892,312.416 L113.18,312.416 C113.18,312.32 113.217333,312.250667 113.292,312.208 C113.366667,312.165333 113.446667,312.144 113.532,312.144 L113.532,312.144 L115.612,312.144 L115.612,317.472 C115.612,317.557333 115.585333,317.618667 115.532,317.656 C115.478667,317.693333 115.425333,317.712 115.372,317.712 L115.372,317.712 L115.372,318 L117.436,318 Z M129.132,318 L129.132,317.712 C128.833333,317.712 128.684,317.632 128.684,317.472 L128.684,317.472 L128.684,311.488 C128.684,311.328 128.833333,311.248 129.132,311.248 L129.132,311.248 L129.132,310.96 L126.7,310.96 L126.7,311.248 C126.870667,311.248 126.988,311.266667 127.052,311.304 C127.116,311.341333 127.148,311.402667 127.148,311.488 L127.148,311.488 L127.148,317.472 C127.148,317.557333 127.116,317.618667 127.052,317.656 C126.988,317.693333 126.870667,317.712 126.7,317.712 L126.7,317.712 L126.7,318 L129.132,318 Z M134.908,318.048 C135.270667,318.048 135.657333,318.021333 136.068,317.968 C136.478667,317.914667 136.854667,317.802667 137.196,317.632 C137.537333,317.461333 137.822667,317.226667 138.052,316.928 C138.281333,316.629333 138.396,316.245333 138.396,315.776 C138.396,315.306667 138.265333,314.938667 138.004,314.672 C137.742667,314.405333 137.414667,314.202667 137.02,314.064 C136.625333,313.925333 136.198667,313.826667 135.74,313.768 C135.281333,313.709333 134.854667,313.650667 134.46,313.592 C134.065333,313.533333 133.737333,313.453333 133.476,313.352 C133.214667,313.250667 133.084,313.082667 133.084,312.848 C133.084,312.698667 133.126667,312.573333 133.212,312.472 C133.297333,312.370667 133.414667,312.288 133.564,312.224 C133.713333,312.16 133.884,312.114667 134.076,312.088 C134.268,312.061333 134.470667,312.048 134.684,312.048 C135.238667,312.048 135.74,312.112 136.188,312.24 C136.636,312.368 136.966667,312.522667 137.18,312.704 C137.265333,312.768 137.313333,312.832 137.324,312.896 C137.334667,312.96 137.345333,313.024 137.356,313.088 L137.356,313.088 L137.644,313.184 L138.444,311.68 L138.268,311.504 C138.204,311.536 138.150667,311.565333 138.108,311.592 C138.065333,311.618667 138.001333,311.632 137.916,311.632 C137.841333,311.632 137.726667,311.592 137.572,311.512 C137.417333,311.432 137.217333,311.344 136.972,311.248 C136.726667,311.152 136.425333,311.064 136.068,310.984 C135.710667,310.904 135.281333,310.864 134.78,310.864 C133.756,310.864 132.961333,311.066667 132.396,311.472 C131.830667,311.877333 131.548,312.421333 131.548,313.104 C131.548,313.562667 131.678667,313.917333 131.94,314.168 C132.201333,314.418667 132.529333,314.610667 132.924,314.744 C133.318667,314.877333 133.745333,314.973333 134.204,315.032 C134.662667,315.090667 135.089333,315.149333 135.484,315.208 C135.878667,315.266667 136.206667,315.349333 136.468,315.456 C136.729333,315.562667 136.86,315.733333 136.86,315.968 C136.86,316.170667 136.785333,316.333333 136.636,316.456 C136.486667,316.578667 136.305333,316.674667 136.092,316.744 C135.878667,316.813333 135.662667,316.858667 135.444,316.88 C135.225333,316.901333 135.041333,316.912 134.892,316.912 C134.732,316.912 134.510667,316.885333 134.228,316.832 C133.945333,316.778667 133.662667,316.706667 133.38,316.616 C133.097333,316.525333 132.854667,316.413333 132.652,316.28 C132.449333,316.146667 132.348,316 132.348,315.84 C132.348,315.786667 132.350667,315.736 132.356,315.688 C132.361333,315.64 132.364,315.594667 132.364,315.552 L132.364,315.552 L132.06,315.472 L131.324,317.264 L131.548,317.424 C131.601333,317.36 131.665333,317.328 131.74,317.328 C131.782667,317.328 131.905333,317.368 132.108,317.448 C132.310667,317.528 132.558667,317.613333 132.852,317.704 C133.145333,317.794667 133.470667,317.874667 133.828,317.944 C134.185333,318.013333 134.545333,318.048 134.908,318.048 Z M148.236,318 L148.236,317.712 C147.937333,317.712 147.788,317.632 147.788,317.472 L147.788,317.472 L147.788,311.488 C147.788,311.328 147.937333,311.248 148.236,311.248 L148.236,311.248 L148.236,310.96 L145.804,310.96 L145.804,311.248 C145.974667,311.248 146.092,311.266667 146.156,311.304 C146.22,311.341333 146.252,311.402667 146.252,311.488 L146.252,311.488 L146.252,317.472 C146.252,317.557333 146.22,317.618667 146.156,317.656 C146.092,317.693333 145.974667,317.712 145.804,317.712 L145.804,317.712 L145.804,318 L148.236,318 Z M152.956,318 L152.956,317.712 C152.732,317.712 152.62,317.632 152.62,317.472 L152.62,317.472 L152.62,312.816 L156.588,317.04 C156.716,317.178667 156.830667,317.301333 156.932,317.408 C157.033333,317.514667 157.084,317.589333 157.084,317.632 C157.084,317.685333 157.046667,317.712 156.972,317.712 L156.972,317.712 L156.972,318 L159.052,318 L159.052,317.712 C158.86,317.712 158.764,317.632 158.764,317.472 L158.764,317.472 L158.764,311.488 C158.764,311.328 158.86,311.248 159.052,311.248 L159.052,311.248 L159.052,310.96 L157.1,310.96 L157.1,311.248 C157.313333,311.248 157.42,311.328 157.42,311.488 L157.42,311.488 L157.42,315.824 L153.58,311.76 C153.345333,311.525333 153.228,311.381333 153.228,311.328 C153.228,311.285333 153.265333,311.258667 153.34,311.248 L153.34,311.248 L153.34,310.96 L150.988,310.96 L150.988,311.248 C151.18,311.248 151.276,311.328 151.276,311.488 L151.276,311.488 L151.276,317.472 C151.276,317.632 151.18,317.712 150.988,317.712 L150.988,317.712 L150.988,318 L152.956,318 Z M164.876,318.048 C165.356,318.048 165.790667,318.005333 166.18,317.92 C166.569333,317.834667 166.910667,317.730667 167.204,317.608 C167.497333,317.485333 167.74,317.376 167.932,317.28 C168.124,317.184 168.262667,317.136 168.348,317.136 C168.401333,317.136 168.492,317.162667 168.62,317.216 L168.62,317.216 L168.78,317.136 L167.596,315.44 L167.42,315.6 C167.430667,315.642667 167.436,315.696 167.436,315.76 L167.436,315.76 L167.436,315.888 C167.436,315.984 167.358667,316.090667 167.204,316.208 C167.049333,316.325333 166.849333,316.434667 166.604,316.536 C166.358667,316.637333 166.086667,316.725333 165.788,316.8 C165.489333,316.874667 165.196,316.912 164.908,316.912 C164.598667,316.912 164.294667,316.856 163.996,316.744 C163.697333,316.632 163.430667,316.466667 163.196,316.248 C162.961333,316.029333 162.772,315.768 162.628,315.464 C162.484,315.16 162.412,314.816 162.412,314.432 C162.412,314.048 162.476,313.706667 162.604,313.408 C162.732,313.109333 162.913333,312.858667 163.148,312.656 C163.382667,312.453333 163.657333,312.301333 163.972,312.2 C164.286667,312.098667 164.636,312.048 165.02,312.048 C165.34,312.048 165.633333,312.077333 165.9,312.136 C166.166667,312.194667 166.398667,312.266667 166.596,312.352 C166.793333,312.437333 166.945333,312.525333 167.052,312.616 C167.158667,312.706667 167.212,312.778667 167.212,312.832 C167.212,312.864 167.214667,312.890667 167.22,312.912 C167.225333,312.933333 167.228,312.954667 167.228,312.976 L167.228,312.976 L167.404,313.104 L168.46,311.584 L168.268,311.472 C168.225333,311.493333 168.185333,311.52 168.148,311.552 C168.110667,311.584 168.065333,311.6 168.012,311.6 C167.937333,311.6 167.814667,311.562667 167.644,311.488 C167.473333,311.413333 167.26,311.328 167.004,311.232 C166.748,311.136 166.452,311.050667 166.116,310.976 C165.78,310.901333 165.409333,310.864 165.004,310.864 C164.481333,310.864 163.972,310.938667 163.476,311.088 C162.98,311.237333 162.54,311.464 162.156,311.768 C161.772,312.072 161.462667,312.448 161.228,312.896 C160.993333,313.344 160.876,313.866667 160.876,314.464 C160.876,315.061333 160.993333,315.586667 161.228,316.04 C161.462667,316.493333 161.766667,316.872 162.14,317.176 C162.513333,317.48 162.94,317.701333 163.42,317.84 C163.9,317.978667 164.385333,318.048 164.876,318.048 Z M172.636,318 L172.636,317.712 C172.572,317.712 172.505333,317.693333 172.436,317.656 C172.366667,317.618667 172.332,317.557333 172.332,317.472 L172.332,317.472 L172.332,315.184 L174.556,315.184 L175.82,317.072 C175.98,317.296 176.06,317.461333 176.06,317.568 C176.06,317.664 175.990667,317.712 175.852,317.712 L175.852,317.712 L175.852,318 L178.3,318 L178.3,317.712 C178.182667,317.68 178.073333,317.634667 177.972,317.576 C177.870667,317.517333 177.777333,317.429333 177.692,317.312 L177.692,317.312 L176.124,315.024 C176.348,314.970667 176.566667,314.893333 176.78,314.792 C176.993333,314.690667 177.188,314.557333 177.364,314.392 C177.54,314.226667 177.681333,314.032 177.788,313.808 C177.894667,313.584 177.948,313.328 177.948,313.04 C177.948,312.282667 177.681333,311.746667 177.148,311.432 C176.614667,311.117333 175.873333,310.96 174.924,310.96 L174.924,310.96 L170.508,310.96 L170.508,311.248 C170.7,311.248 170.796,311.328 170.796,311.488 L170.796,311.488 L170.796,317.472 C170.796,317.632 170.7,317.712 170.508,317.712 L170.508,317.712 L170.508,318 L172.636,318 Z M174.892,314 L172.364,314 L172.364,312.144 L174.892,312.144 C175.436,312.144 175.833333,312.221333 176.084,312.376 C176.334667,312.530667 176.46,312.741333 176.46,313.008 C176.46,313.669333 175.937333,314 174.892,314 L174.892,314 Z M186.956,318.176 L186.956,316.496 L186.668,316.496 C186.668,316.592 186.625333,316.669333 186.54,316.728 C186.454667,316.786667 186.348,316.816 186.22,316.816 L186.22,316.816 L182.124,316.816 L182.124,314.928 L184.46,314.928 C184.673333,314.928 184.838667,314.941333 184.956,314.968 C185.073333,314.994667 185.116,315.066667 185.084,315.184 L185.084,315.184 L185.404,315.184 L185.404,313.488 L185.116,313.488 C185.116,313.605333 185.073333,313.677333 184.988,313.704 C184.902667,313.730667 184.769333,313.744 184.588,313.744 L184.588,313.744 L182.124,313.744 L182.124,312.144 L186.028,312.144 C186.358667,312.144 186.524,312.245333 186.524,312.448 L186.524,312.448 L186.812,312.448 L186.812,310.672 L186.524,310.672 C186.524,310.864 186.358667,310.96 186.028,310.96 L186.028,310.96 L180.348,310.96 L180.348,311.248 C180.401333,311.248 180.454667,311.266667 180.508,311.304 C180.561333,311.341333 180.588,311.402667 180.588,311.488 L180.588,311.488 L180.588,317.472 C180.588,317.557333 180.561333,317.618667 180.508,317.656 C180.454667,317.693333 180.401333,317.712 180.348,317.712 L180.348,317.712 L180.348,318 L186.22,318 C186.348,318 186.454667,318.005333 186.54,318.016 C186.625333,318.026667 186.668,318.08 186.668,318.176 L186.668,318.176 L186.956,318.176 Z M190.316,318 L190.316,317.712 C190.22,317.712 190.145333,317.701333 190.092,317.68 C190.038667,317.658667 190.012,317.605333 190.012,317.52 C190.012,317.466667 190.025333,317.405333 190.052,317.336 C190.078667,317.266667 190.113333,317.189333 190.156,317.104 L190.156,317.104 L190.604,316.24 L194.028,316.24 L194.46,317.152 C194.492,317.237333 194.518667,317.306667 194.54,317.36 C194.561333,317.413333 194.572,317.472 194.572,317.536 C194.572,317.621333 194.542667,317.68 194.484,317.712 C194.425333,317.744 194.369333,317.76 194.316,317.76 L194.316,317.76 L194.316,318 L196.588,318 L196.588,317.712 C196.513333,317.690667 196.444,317.658667 196.38,317.616 C196.316,317.573333 196.257333,317.504 196.204,317.408 L196.204,317.408 L193.612,311.968 C193.558667,311.850667 193.508,311.746667 193.46,311.656 C193.412,311.565333 193.388,311.488 193.388,311.424 C193.388,311.349333 193.406667,311.306667 193.444,311.296 C193.481333,311.285333 193.516,311.269333 193.548,311.248 L193.548,311.248 L193.548,310.96 L191.132,310.96 L191.132,311.248 C191.164,311.269333 191.193333,311.288 191.22,311.304 C191.246667,311.32 191.26,311.36 191.26,311.424 C191.26,311.509333 191.241333,311.597333 191.204,311.688 C191.166667,311.778667 191.116,311.898667 191.052,312.048 L191.052,312.048 L188.668,317.248 C188.625333,317.333333 188.564,317.426667 188.484,317.528 C188.404,317.629333 188.3,317.690667 188.172,317.712 L188.172,317.712 L188.172,318 L190.316,318 Z M193.516,315.056 L191.084,315.056 L192.22,312.368 L193.516,315.056 Z M201.148,318.048 C201.510667,318.048 201.897333,318.021333 202.308,317.968 C202.718667,317.914667 203.094667,317.802667 203.436,317.632 C203.777333,317.461333 204.062667,317.226667 204.292,316.928 C204.521333,316.629333 204.636,316.245333 204.636,315.776 C204.636,315.306667 204.505333,314.938667 204.244,314.672 C203.982667,314.405333 203.654667,314.202667 203.26,314.064 C202.865333,313.925333 202.438667,313.826667 201.98,313.768 C201.521333,313.709333 201.094667,313.650667 200.7,313.592 C200.305333,313.533333 199.977333,313.453333 199.716,313.352 C199.454667,313.250667 199.324,313.082667 199.324,312.848 C199.324,312.698667 199.366667,312.573333 199.452,312.472 C199.537333,312.370667 199.654667,312.288 199.804,312.224 C199.953333,312.16 200.124,312.114667 200.316,312.088 C200.508,312.061333 200.710667,312.048 200.924,312.048 C201.478667,312.048 201.98,312.112 202.428,312.24 C202.876,312.368 203.206667,312.522667 203.42,312.704 C203.505333,312.768 203.553333,312.832 203.564,312.896 L203.564,312.896 L203.596,313.088 L203.884,313.184 L204.684,311.68 L204.508,311.504 C204.444,311.536 204.390667,311.565333 204.348,311.592 C204.305333,311.618667 204.241333,311.632 204.156,311.632 C204.081333,311.632 203.966667,311.592 203.812,311.512 C203.657333,311.432 203.457333,311.344 203.212,311.248 C202.966667,311.152 202.665333,311.064 202.308,310.984 C201.950667,310.904 201.521333,310.864 201.02,310.864 C199.996,310.864 199.201333,311.066667 198.636,311.472 C198.070667,311.877333 197.788,312.421333 197.788,313.104 C197.788,313.562667 197.918667,313.917333 198.18,314.168 C198.441333,314.418667 198.769333,314.610667 199.164,314.744 C199.558667,314.877333 199.985333,314.973333 200.444,315.032 C200.902667,315.090667 201.329333,315.149333 201.724,315.208 C202.118667,315.266667 202.446667,315.349333 202.708,315.456 C202.969333,315.562667 203.1,315.733333 203.1,315.968 C203.1,316.170667 203.025333,316.333333 202.876,316.456 C202.726667,316.578667 202.545333,316.674667 202.332,316.744 C202.118667,316.813333 201.902667,316.858667 201.684,316.88 C201.465333,316.901333 201.281333,316.912 201.132,316.912 C200.972,316.912 200.750667,316.885333 200.468,316.832 C200.185333,316.778667 199.902667,316.706667 199.62,316.616 C199.337333,316.525333 199.094667,316.413333 198.892,316.28 C198.689333,316.146667 198.588,316 198.588,315.84 C198.588,315.786667 198.590667,315.736 198.596,315.688 C198.601333,315.64 198.604,315.594667 198.604,315.552 L198.604,315.552 L198.3,315.472 L197.564,317.264 L197.788,317.424 C197.841333,317.36 197.905333,317.328 197.98,317.328 C198.022667,317.328 198.145333,317.368 198.348,317.448 C198.550667,317.528 198.798667,317.613333 199.092,317.704 C199.385333,317.794667 199.710667,317.874667 200.068,317.944 C200.425333,318.013333 200.785333,318.048 201.148,318.048 Z M213.644,318.176 L213.644,316.496 L213.356,316.496 C213.356,316.592 213.313333,316.669333 213.228,316.728 C213.142667,316.786667 213.036,316.816 212.908,316.816 L212.908,316.816 L208.812,316.816 L208.812,314.928 L211.148,314.928 C211.361333,314.928 211.526667,314.941333 211.644,314.968 C211.761333,314.994667 211.804,315.066667 211.772,315.184 L211.772,315.184 L212.092,315.184 L212.092,313.488 L211.804,313.488 C211.804,313.605333 211.761333,313.677333 211.676,313.704 C211.590667,313.730667 211.457333,313.744 211.276,313.744 L211.276,313.744 L208.812,313.744 L208.812,312.144 L212.716,312.144 C213.046667,312.144 213.212,312.245333 213.212,312.448 L213.212,312.448 L213.5,312.448 L213.5,310.672 L213.212,310.672 C213.212,310.864 213.046667,310.96 212.716,310.96 L212.716,310.96 L207.036,310.96 L207.036,311.248 C207.089333,311.248 207.142667,311.266667 207.196,311.304 C207.249333,311.341333 207.276,311.402667 207.276,311.488 L207.276,311.488 L207.276,317.472 C207.276,317.557333 207.249333,317.618667 207.196,317.656 C207.142667,317.693333 207.089333,317.712 207.036,317.712 L207.036,317.712 L207.036,318 L212.908,318 C213.036,318 213.142667,318.005333 213.228,318.016 C213.313333,318.026667 213.356,318.08 213.356,318.176 L213.356,318.176 L213.644,318.176 Z M220.204,318 C220.833333,318 221.366667,317.898667 221.804,317.696 C222.241333,317.493333 222.598667,317.229333 222.876,316.904 C223.153333,316.578667 223.356,316.205333 223.484,315.784 C223.612,315.362667 223.676,314.928 223.676,314.48 C223.676,314.032 223.609333,313.597333 223.476,313.176 C223.342667,312.754667 223.134667,312.381333 222.852,312.056 C222.569333,311.730667 222.204,311.466667 221.756,311.264 C221.308,311.061333 220.769333,310.96 220.14,310.96 L220.14,310.96 L215.692,310.96 L215.692,311.248 C215.937333,311.248 216.06,311.328 216.06,311.488 L216.06,311.488 L216.06,317.472 C216.06,317.632 215.937333,317.712 215.692,317.712 L215.692,317.712 L215.692,318 L220.204,318 Z M219.676,316.816 L217.596,316.816 L217.596,312.144 L219.676,312.144 C220.006667,312.144 220.321333,312.162667 220.62,312.2 C220.918667,312.237333 221.18,312.333333 221.404,312.488 C221.628,312.642667 221.806667,312.872 221.94,313.176 C222.073333,313.48 222.14,313.898667 222.14,314.432 C222.14,314.965333 222.073333,315.389333 221.94,315.704 C221.806667,316.018667 221.628,316.258667 221.404,316.424 C221.18,316.589333 220.918667,316.696 220.62,316.744 C220.321333,316.792 220.006667,316.816 219.676,316.816 L219.676,316.816 Z M85.532,334 C86.0013333,334 86.404,333.949333 86.74,333.848 C87.076,333.746667 87.348,333.610667 87.556,333.44 C87.764,333.269333 87.916,333.072 88.012,332.848 C88.108,332.624 88.156,332.384 88.156,332.128 C88.156,331.904 88.1186667,331.696 88.044,331.504 C87.9693333,331.312 87.8733333,331.141333 87.756,330.992 C87.6386667,330.842667 87.5053333,330.714667 87.356,330.608 C87.2066667,330.501333 87.0573333,330.416 86.908,330.352 L86.908,330.352 L86.908,330.336 C87.036,330.272 87.1613333,330.186667 87.284,330.08 C87.4066667,329.973333 87.5186667,329.853333 87.62,329.72 C87.7213333,329.586667 87.804,329.437333 87.868,329.272 C87.932,329.106667 87.964,328.928 87.964,328.736 C87.964,328.501333 87.916,328.277333 87.82,328.064 C87.724,327.850667 87.5773333,327.661333 87.38,327.496 C87.1826667,327.330667 86.9373333,327.2 86.644,327.104 C86.3506667,327.008 86.0013333,326.96 85.596,326.96 L85.596,326.96 L80.62,326.96 L80.62,327.248 C80.7053333,327.248 80.788,327.266667 80.868,327.304 C80.948,327.341333 80.988,327.402667 80.988,327.488 L80.988,327.488 L80.988,333.472 C80.988,333.557333 80.948,333.618667 80.868,333.656 C80.788,333.693333 80.7053333,333.712 80.62,333.712 L80.62,333.712 L80.62,334 L85.532,334 Z M85.372,329.744 L82.524,329.744 L82.524,328.144 L85.372,328.144 C85.5,328.144 85.628,328.152 85.756,328.168 C85.884,328.184 85.996,328.221333 86.092,328.28 C86.188,328.338667 86.268,328.418667 86.332,328.52 C86.396,328.621333 86.428,328.757333 86.428,328.928 C86.428,329.258667 86.316,329.477333 86.092,329.584 C85.868,329.690667 85.628,329.744 85.372,329.744 L85.372,329.744 Z M85.34,332.816 L82.524,332.816 L82.524,330.928 L85.084,330.928 C85.6386667,330.928 86.0333333,331.008 86.268,331.168 C86.5026667,331.328 86.62,331.573333 86.62,331.904 C86.62,332.192 86.5293333,332.416 86.348,332.576 C86.1666667,332.736 85.8306667,332.816 85.34,332.816 L85.34,332.816 Z M94.796,334 L94.796,333.712 C94.5933333,333.712 94.492,333.632 94.492,333.472 L94.492,333.472 L94.492,331.072 L96.94,327.904 C97.0573333,327.754667 97.1933333,327.608 97.348,327.464 C97.5026667,327.32 97.644,327.248 97.772,327.248 L97.772,327.248 L97.772,326.96 L95.324,326.96 L95.324,327.248 C95.3773333,327.248 95.4306667,327.258667 95.484,327.28 C95.5373333,327.301333 95.564,327.354667 95.564,327.44 C95.564,327.504 95.54,327.570667 95.492,327.64 C95.444,327.709333 95.372,327.813333 95.276,327.952 L95.276,327.952 L93.852,329.936 L92.236,327.824 C92.1826667,327.749333 92.1346667,327.685333 92.092,327.632 C92.0493333,327.578667 92.028,327.52 92.028,327.456 C92.028,327.392 92.06,327.341333 92.124,327.304 C92.188,327.266667 92.2466667,327.248 92.3,327.248 L92.3,327.248 L92.3,326.96 L89.66,326.96 L89.66,327.248 C89.756,327.248 89.8573333,327.269333 89.964,327.312 C90.0706667,327.354667 90.1613333,327.424 90.236,327.52 L90.236,327.52 L92.956,331.008 L92.956,333.472 C92.956,333.632 92.86,333.712 92.668,333.712 L92.668,333.712 L92.668,334 L94.796,334 Z M107.932,334.048 C108.518667,334.048 109.070667,333.981333 109.588,333.848 C110.105333,333.714667 110.556,333.498667 110.94,333.2 C111.324,332.901333 111.628,332.525333 111.852,332.072 C112.076,331.618667 112.188,331.088 112.188,330.48 C112.188,329.872 112.076,329.341333 111.852,328.888 C111.628,328.434667 111.324,328.058667 110.94,327.76 C110.556,327.461333 110.105333,327.237333 109.588,327.088 C109.070667,326.938667 108.518667,326.864 107.932,326.864 C107.345333,326.864 106.793333,326.938667 106.276,327.088 C105.758667,327.237333 105.308,327.461333 104.924,327.76 C104.54,328.058667 104.236,328.434667 104.012,328.888 C103.788,329.341333 103.676,329.872 103.676,330.48 C103.676,331.088 103.788,331.618667 104.012,332.072 C104.236,332.525333 104.54,332.901333 104.924,333.2 C105.308,333.498667 105.758667,333.714667 106.276,333.848 C106.793333,333.981333 107.345333,334.048 107.932,334.048 Z M107.932,332.912 C107.590667,332.912 107.257333,332.856 106.932,332.744 C106.606667,332.632 106.316,332.472 106.06,332.264 C105.804,332.056 105.598667,331.802667 105.444,331.504 C105.289333,331.205333 105.212,330.864 105.212,330.48 C105.212,330.096 105.289333,329.754667 105.444,329.456 C105.598667,329.157333 105.804,328.904 106.06,328.696 C106.316,328.488 106.606667,328.328 106.932,328.216 C107.257333,328.104 107.590667,328.048 107.932,328.048 C108.273333,328.048 108.606667,328.104 108.932,328.216 C109.257333,328.328 109.548,328.488 109.804,328.696 C110.06,328.904 110.265333,329.157333 110.42,329.456 C110.574667,329.754667 110.652,330.096 110.652,330.48 C110.652,330.864 110.574667,331.205333 110.42,331.504 C110.265333,331.802667 110.06,332.056 109.804,332.264 C109.548,332.472 109.257333,332.632 108.932,332.744 C108.606667,332.856 108.273333,332.912 107.932,332.912 Z M116.092,334 L116.092,333.712 C115.868,333.712 115.756,333.632 115.756,333.472 L115.756,333.472 L115.756,328.816 L119.724,333.04 C119.852,333.178667 119.966667,333.301333 120.068,333.408 C120.169333,333.514667 120.22,333.589333 120.22,333.632 C120.22,333.685333 120.182667,333.712 120.108,333.712 L120.108,333.712 L120.108,334 L122.188,334 L122.188,333.712 C121.996,333.712 121.9,333.632 121.9,333.472 L121.9,333.472 L121.9,327.488 C121.9,327.328 121.996,327.248 122.188,327.248 L122.188,327.248 L122.188,326.96 L120.236,326.96 L120.236,327.248 C120.449333,327.248 120.556,327.328 120.556,327.488 L120.556,327.488 L120.556,331.824 L116.716,327.76 C116.481333,327.525333 116.364,327.381333 116.364,327.328 C116.364,327.285333 116.401333,327.258667 116.476,327.248 L116.476,327.248 L116.476,326.96 L114.124,326.96 L114.124,327.248 C114.316,327.248 114.412,327.328 114.412,327.488 L114.412,327.488 L114.412,333.472 C114.412,333.632 114.316,333.712 114.124,333.712 L114.124,333.712 L114.124,334 L116.092,334 Z M131.42,334.176 L131.42,332.496 L131.132,332.496 C131.132,332.592 131.089333,332.669333 131.004,332.728 C130.918667,332.786667 130.812,332.816 130.684,332.816 L130.684,332.816 L126.588,332.816 L126.588,330.928 L128.924,330.928 C129.137333,330.928 129.302667,330.941333 129.42,330.968 C129.537333,330.994667 129.58,331.066667 129.548,331.184 L129.548,331.184 L129.868,331.184 L129.868,329.488 L129.58,329.488 C129.58,329.605333 129.537333,329.677333 129.452,329.704 C129.366667,329.730667 129.233333,329.744 129.052,329.744 L129.052,329.744 L126.588,329.744 L126.588,328.144 L130.492,328.144 C130.822667,328.144 130.988,328.245333 130.988,328.448 L130.988,328.448 L131.276,328.448 L131.276,326.672 L130.988,326.672 C130.988,326.864 130.822667,326.96 130.492,326.96 L130.492,326.96 L124.812,326.96 L124.812,327.248 C124.865333,327.248 124.918667,327.266667 124.972,327.304 C125.025333,327.341333 125.052,327.402667 125.052,327.488 L125.052,327.488 L125.052,333.472 C125.052,333.557333 125.025333,333.618667 124.972,333.656 C124.918667,333.693333 124.865333,333.712 124.812,333.712 L124.812,333.712 L124.812,334 L130.684,334 C130.812,334 130.918667,334.005333 131.004,334.016 C131.089333,334.026667 131.132,334.08 131.132,334.176 L131.132,334.176 L131.42,334.176 Z M141.788,334.048 C142.268,334.048 142.702667,334.005333 143.092,333.92 C143.481333,333.834667 143.822667,333.730667 144.116,333.608 C144.409333,333.485333 144.652,333.376 144.844,333.28 C145.036,333.184 145.174667,333.136 145.26,333.136 C145.313333,333.136 145.404,333.162667 145.532,333.216 L145.532,333.216 L145.692,333.136 L144.508,331.44 L144.332,331.6 C144.342667,331.642667 144.348,331.696 144.348,331.76 L144.348,331.76 L144.348,331.888 C144.348,331.984 144.270667,332.090667 144.116,332.208 C143.961333,332.325333 143.761333,332.434667 143.516,332.536 C143.270667,332.637333 142.998667,332.725333 142.7,332.8 C142.401333,332.874667 142.108,332.912 141.82,332.912 C141.510667,332.912 141.206667,332.856 140.908,332.744 C140.609333,332.632 140.342667,332.466667 140.108,332.248 C139.873333,332.029333 139.684,331.768 139.54,331.464 C139.396,331.16 139.324,330.816 139.324,330.432 C139.324,330.048 139.388,329.706667 139.516,329.408 C139.644,329.109333 139.825333,328.858667 140.06,328.656 C140.294667,328.453333 140.569333,328.301333 140.884,328.2 C141.198667,328.098667 141.548,328.048 141.932,328.048 C142.252,328.048 142.545333,328.077333 142.812,328.136 C143.078667,328.194667 143.310667,328.266667 143.508,328.352 C143.705333,328.437333 143.857333,328.525333 143.964,328.616 C144.070667,328.706667 144.124,328.778667 144.124,328.832 C144.124,328.864 144.126667,328.890667 144.132,328.912 C144.137333,328.933333 144.14,328.954667 144.14,328.976 L144.14,328.976 L144.316,329.104 L145.372,327.584 L145.18,327.472 C145.137333,327.493333 145.097333,327.52 145.06,327.552 C145.022667,327.584 144.977333,327.6 144.924,327.6 C144.849333,327.6 144.726667,327.562667 144.556,327.488 C144.385333,327.413333 144.172,327.328 143.916,327.232 C143.66,327.136 143.364,327.050667 143.028,326.976 C142.692,326.901333 142.321333,326.864 141.916,326.864 C141.393333,326.864 140.884,326.938667 140.388,327.088 C139.892,327.237333 139.452,327.464 139.068,327.768 C138.684,328.072 138.374667,328.448 138.14,328.896 C137.905333,329.344 137.788,329.866667 137.788,330.464 C137.788,331.061333 137.905333,331.586667 138.14,332.04 C138.374667,332.493333 138.678667,332.872 139.052,333.176 C139.425333,333.48 139.852,333.701333 140.332,333.84 C140.812,333.978667 141.297333,334.048 141.788,334.048 Z M148.556,334 L148.556,333.712 C148.46,333.712 148.385333,333.701333 148.332,333.68 C148.278667,333.658667 148.252,333.605333 148.252,333.52 C148.252,333.466667 148.265333,333.405333 148.292,333.336 C148.318667,333.266667 148.353333,333.189333 148.396,333.104 L148.396,333.104 L148.844,332.24 L152.268,332.24 L152.7,333.152 C152.732,333.237333 152.758667,333.306667 152.78,333.36 C152.801333,333.413333 152.812,333.472 152.812,333.536 C152.812,333.621333 152.782667,333.68 152.724,333.712 C152.665333,333.744 152.609333,333.76 152.556,333.76 L152.556,333.76 L152.556,334 L154.828,334 L154.828,333.712 C154.753333,333.690667 154.684,333.658667 154.62,333.616 C154.556,333.573333 154.497333,333.504 154.444,333.408 L154.444,333.408 L151.852,327.968 C151.798667,327.850667 151.748,327.746667 151.7,327.656 C151.652,327.565333 151.628,327.488 151.628,327.424 C151.628,327.349333 151.646667,327.306667 151.684,327.296 C151.721333,327.285333 151.756,327.269333 151.788,327.248 L151.788,327.248 L151.788,326.96 L149.372,326.96 L149.372,327.248 C149.404,327.269333 149.433333,327.288 149.46,327.304 C149.486667,327.32 149.5,327.36 149.5,327.424 C149.5,327.509333 149.481333,327.597333 149.444,327.688 C149.406667,327.778667 149.356,327.898667 149.292,328.048 L149.292,328.048 L146.908,333.248 C146.865333,333.333333 146.804,333.426667 146.724,333.528 C146.644,333.629333 146.54,333.690667 146.412,333.712 L146.412,333.712 L146.412,334 L148.556,334 Z M151.756,331.056 L149.324,331.056 L150.46,328.368 L151.756,331.056 Z M158.444,334 L158.444,333.712 C158.38,333.712 158.313333,333.693333 158.244,333.656 C158.174667,333.618667 158.14,333.557333 158.14,333.472 L158.14,333.472 L158.14,331.184 L160.364,331.184 L161.628,333.072 C161.788,333.296 161.868,333.461333 161.868,333.568 C161.868,333.664 161.798667,333.712 161.66,333.712 L161.66,333.712 L161.66,334 L164.108,334 L164.108,333.712 C163.990667,333.68 163.881333,333.634667 163.78,333.576 C163.678667,333.517333 163.585333,333.429333 163.5,333.312 L163.5,333.312 L161.932,331.024 C162.156,330.970667 162.374667,330.893333 162.588,330.792 C162.801333,330.690667 162.996,330.557333 163.172,330.392 C163.348,330.226667 163.489333,330.032 163.596,329.808 C163.702667,329.584 163.756,329.328 163.756,329.04 C163.756,328.282667 163.489333,327.746667 162.956,327.432 C162.422667,327.117333 161.681333,326.96 160.732,326.96 L160.732,326.96 L156.316,326.96 L156.316,327.248 C156.508,327.248 156.604,327.328 156.604,327.488 L156.604,327.488 L156.604,333.472 C156.604,333.632 156.508,333.712 156.316,333.712 L156.316,333.712 L156.316,334 L158.444,334 Z M160.7,330 L158.172,330 L158.172,328.144 L160.7,328.144 C161.244,328.144 161.641333,328.221333 161.892,328.376 C162.142667,328.530667 162.268,328.741333 162.268,329.008 C162.268,329.669333 161.745333,330 160.7,330 L160.7,330 Z M170.428,334 C171.057333,334 171.590667,333.898667 172.028,333.696 C172.465333,333.493333 172.822667,333.229333 173.1,332.904 C173.377333,332.578667 173.58,332.205333 173.708,331.784 C173.836,331.362667 173.9,330.928 173.9,330.48 C173.9,330.032 173.833333,329.597333 173.7,329.176 C173.566667,328.754667 173.358667,328.381333 173.076,328.056 C172.793333,327.730667 172.428,327.466667 171.98,327.264 C171.532,327.061333 170.993333,326.96 170.364,326.96 L170.364,326.96 L165.916,326.96 L165.916,327.248 C166.161333,327.248 166.284,327.328 166.284,327.488 L166.284,327.488 L166.284,333.472 C166.284,333.632 166.161333,333.712 165.916,333.712 L165.916,333.712 L165.916,334 L170.428,334 Z M169.9,332.816 L167.82,332.816 L167.82,328.144 L169.9,328.144 C170.230667,328.144 170.545333,328.162667 170.844,328.2 C171.142667,328.237333 171.404,328.333333 171.628,328.488 C171.852,328.642667 172.030667,328.872 172.164,329.176 C172.297333,329.48 172.364,329.898667 172.364,330.432 C172.364,330.965333 172.297333,331.389333 172.164,331.704 C172.030667,332.018667 171.852,332.258667 171.628,332.424 C171.404,332.589333 171.142667,332.696 170.844,332.744 C170.545333,332.792 170.230667,332.816 169.9,332.816 L169.9,332.816 Z M177.052,334.048 C177.361333,334.048 177.628,333.944 177.852,333.736 C178.076,333.528 178.188,333.269333 178.188,332.96 C178.188,332.650667 178.076,332.384 177.852,332.16 C177.628,331.936 177.361333,331.824 177.052,331.824 C176.742667,331.824 176.476,331.936 176.252,332.16 C176.028,332.384 175.916,332.650667 175.916,332.96 C175.916,333.269333 176.028,333.528 176.252,333.736 C176.476,333.944 176.742667,334.048 177.052,334.048 Z" id="Screentimeisnolongerbadtime.Handlimitisincreasedbyonecard." fill="#000000" fill-rule="nonzero"></path>
    </g>
</svg>