<?xml version="1.0" encoding="UTF-8"?>
<svg width="262px" height="360px" viewBox="0 0 262 360" version="1.1" xmlns="http://www.w3.org/2000/svg" xmlns:xlink="http://www.w3.org/1999/xlink">
    <title>Sneeze 1</title>
    <g id="Sneeze-1" stroke="none" stroke-width="1" fill="none" fill-rule="evenodd">
        <g id="Group" transform="translate(9.000000, 9.000000)" fill="#FFFFFF" stroke="#000000" stroke-width="3">
            <g id="Rectangle">
                <rect x="1.5" y="1.5" width="239" height="337" rx="8"></rect>
            </g>
        </g>
        <path d="M216.124,30 L216.124,29.712 C215.964,29.712 215.82,29.668 215.692,29.58 C215.564,29.492 215.5,29.312 215.5,29.04 L215.5,29.04 L215.5,18.048 C215.5,17.888 215.564,17.768 215.692,17.688 C215.82,17.608 215.98,17.552 216.172,17.52 L216.172,17.52 L216.172,17.232 L212.284,17.232 L212.284,17.52 C212.46,17.552 212.6,17.6 212.704,17.664 C212.808,17.728 212.86,17.872 212.86,18.096 C212.86,18.336 212.768,18.54 212.584,18.708 C212.4,18.876 212.172,18.96 211.9,18.96 C211.772,18.96 211.636,18.932 211.492,18.876 C211.348,18.82 211.276,18.72 211.276,18.576 L211.276,18.576 L210.988,18.576 L210.988,21.6 L211.276,21.6 C211.324,21.472 211.408,21.372 211.528,21.3 C211.648,21.228 211.78,21.172 211.924,21.132 C212.068,21.092 212.216,21.064 212.368,21.048 C212.52,21.032 212.652,21.024 212.764,21.024 L212.764,21.024 L212.764,29.04 C212.764,29.312 212.704,29.492 212.584,29.58 C212.464,29.668 212.324,29.712 212.164,29.712 L212.164,29.712 L212.164,30 L216.124,30 Z" id="1" fill="#000000" fill-rule="nonzero"></path>
        <g id="Face" transform="translate(225.000000, 15.000000)">
            <circle id="Oval" stroke="#000000" fill="#FFFFFF" cx="9.5" cy="9.5" r="9"></circle>
            <circle id="Oval" fill="#000000" cx="5" cy="8" r="1"></circle>
            <circle id="Oval-Copy" fill="#000000" cx="12" cy="8" r="1"></circle>
            <line x1="12.0789474" y1="13.9090909" x2="14.5" y2="11.5" id="Line-4" stroke="#000000" stroke-linecap="round"></line>
            <path d="M3,5.89285714 C3.41025641,5.96428571 3.76923077,6 4.07692308,6 C4.38461538,6 5.35897436,5.33333333 7,4" id="Line-2" stroke="#000000"></path>
            <path d="M6,15 C6.96078431,14.3333333 8.07598039,14 9.34558824,14 C10.6151961,14 11.8333333,14.3333333 13,15" id="Line" stroke="#000000" stroke-linecap="round" stroke-linejoin="round"></path>
            <path d="M11.3197366,4.68245322 C11.585843,4.80663622 11.7912611,4.92388646 11.9359908,5.03420394 C12.548667,5.50120471 13.1333088,5.70898724 13.3155349,5.80010028 C13.5440857,5.91437569 13.8101922,6.00751295 14.1138542,6.07951204" id="Line-3" stroke="#000000" stroke-linecap="square" transform="translate(12.716795, 5.380983) rotate(-3.000000) translate(-12.716795, -5.380983) "></path>
            <path d="M2.999,9.347 L3.01687864,9.39698204 C3.09438102,9.62639002 3.1880913,9.89570266 3.30282211,10.2112791 C3.48139895,10.7024692 3.54804655,11.0169045 3.47980817,11.2204078 C3.41244402,11.421304 3.17143148,11.4011566 3.01518318,11.4416373 L3.01518318,11.4416373 L2.86575433,11.4813457 C2.78836954,11.5029149 2.70310591,11.5126925 2.63007237,11.4810832 C2.58941161,11.463485 2.56030088,11.4264037 2.54036126,11.376794 C2.4446463,11.1386559 2.49784548,10.759559 2.69717789,10.2112791 C2.8119087,9.89570266 2.90561898,9.62639002 2.98312136,9.39698204 L2.999,9.347 Z" id="Oval" stroke="#000000"></path>
            <path d="M16,6.347 L16.0168786,6.39698204 C16.094381,6.62639002 16.1880913,6.89570266 16.3028221,7.21127907 C16.481399,7.70246915 16.5480465,8.01690453 16.4798082,8.22040783 C16.412444,8.42130397 16.1714315,8.40115659 16.0151832,8.44163726 L16.0151832,8.44163726 L15.8657543,8.48134574 C15.7883695,8.50291486 15.7031059,8.51269255 15.6300724,8.48108319 C15.5894116,8.46348497 15.5603009,8.42640366 15.5403613,8.37679403 C15.4446463,8.13865595 15.4978455,7.75955902 15.6971779,7.21127907 C15.8119087,6.89570266 15.905619,6.62639002 15.9831214,6.39698204 L16,6.347 Z" id="Oval-Copy-2" stroke="#000000"></path>
        </g>
        <rect id="Rectangle" stroke="#000000" stroke-width="3" x="17.5" y="244.5" width="225" height="97" rx="8"></rect>
        <path d="M79.084,61.108 C80.068,61.108 81.13,61.03 82.27,60.874 C83.41,60.718 84.472,60.412 85.456,59.956 C86.44,59.5 87.262,58.876 87.922,58.084 C88.582,57.292 88.912,56.272 88.912,55.024 C88.912,53.944 88.702,53.068 88.282,52.396 C87.862,51.724 87.31,51.19 86.626,50.794 C85.942,50.398 85.162,50.11 84.286,49.93 C83.41,49.75 82.516,49.624 81.604,49.552 C80.692,49.48 79.798,49.42 78.922,49.372 C78.046,49.324 77.266,49.228 76.582,49.084 C75.898,48.94 75.346,48.724 74.926,48.436 C74.506,48.148 74.296,47.716 74.296,47.14 C74.296,46.732 74.446,46.39 74.746,46.114 C75.046,45.838 75.424,45.616 75.88,45.448 C76.336,45.28 76.846,45.154 77.41,45.07 C77.974,44.986 78.52,44.944 79.048,44.944 C79.744,44.944 80.44,45.01 81.136,45.142 C81.832,45.274 82.48,45.448 83.08,45.664 C83.68,45.88 84.202,46.126 84.646,46.402 C85.09,46.678 85.408,46.96 85.6,47.248 C85.744,47.464 85.84,47.74 85.888,48.076 L85.888,48.076 L86.248,48.22 L88.732,43.72 L88.3,43.432 C88.156,43.576 87.916,43.648 87.58,43.648 C87.268,43.648 86.878,43.552 86.41,43.36 C85.942,43.168 85.366,42.964 84.682,42.748 C83.998,42.532 83.188,42.328 82.252,42.136 C81.316,41.944 80.212,41.848 78.94,41.848 C77.452,41.848 76.156,42.022 75.052,42.37 C73.948,42.718 73.036,43.168 72.316,43.72 C71.596,44.272 71.062,44.908 70.714,45.628 C70.366,46.348 70.192,47.08 70.192,47.824 C70.192,48.928 70.402,49.822 70.822,50.506 C71.242,51.19 71.794,51.73 72.478,52.126 C73.162,52.522 73.942,52.804 74.818,52.972 C75.694,53.14 76.588,53.26 77.5,53.332 C78.412,53.404 79.306,53.458 80.182,53.494 C81.058,53.53 81.838,53.608 82.522,53.728 C83.206,53.848 83.758,54.04 84.178,54.304 C84.598,54.568 84.808,54.976 84.808,55.528 C84.808,56.08 84.58,56.524 84.124,56.86 C83.668,57.196 83.128,57.46 82.504,57.652 C81.88,57.844 81.244,57.97 80.596,58.03 C79.948,58.09 79.42,58.12 79.012,58.12 C78.46,58.12 77.836,58.054 77.14,57.922 C76.444,57.79 75.778,57.616 75.142,57.4 C74.506,57.184 73.942,56.938 73.45,56.662 C72.958,56.386 72.628,56.104 72.46,55.816 C72.364,55.648 72.316,55.456 72.316,55.24 L72.316,55.24 L71.956,55.06 L69.976,59.416 L70.48,59.704 C70.624,59.512 70.78,59.416 70.948,59.416 C71.212,59.416 71.524,59.506 71.884,59.686 C72.244,59.866 72.73,60.07 73.342,60.298 C73.954,60.526 74.722,60.718 75.646,60.874 C76.57,61.03 77.716,61.108 79.084,61.108 Z M98.812,61 L98.812,60.352 C98.308,60.352 98.056,60.172 98.056,59.812 L98.056,59.812 L98.056,49.336 L106.984,58.84 C107.272,59.152 107.53,59.428 107.758,59.668 C107.986,59.908 108.1,60.076 108.1,60.172 C108.1,60.292 108.016,60.352 107.848,60.352 L107.848,60.352 L107.848,61 L112.528,61 L112.528,60.352 C112.096,60.352 111.88,60.172 111.88,59.812 L111.88,59.812 L111.88,46.348 C111.88,45.988 112.096,45.808 112.528,45.808 L112.528,45.808 L112.528,45.16 L108.136,45.16 L108.136,45.808 C108.616,45.808 108.856,45.988 108.856,46.348 L108.856,46.348 L108.856,56.104 L100.216,46.96 C99.688,46.432 99.424,46.108 99.424,45.988 C99.424,45.892 99.508,45.832 99.676,45.808 L99.676,45.808 L99.676,45.16 L94.384,45.16 L94.384,45.808 C94.816,45.808 95.032,45.988 95.032,46.348 L95.032,46.348 L95.032,59.812 C95.032,60.172 94.816,60.352 94.384,60.352 L94.384,60.352 L94.384,61 L98.812,61 Z M133.3,61.396 L133.3,57.616 L132.652,57.616 C132.652,57.832 132.556,58.006 132.364,58.138 C132.172,58.27 131.932,58.336 131.644,58.336 L131.644,58.336 L122.428,58.336 L122.428,54.088 L127.684,54.088 C128.164,54.088 128.536,54.118 128.8,54.178 C129.064,54.238 129.16,54.4 129.088,54.664 L129.088,54.664 L129.808,54.664 L129.808,50.848 L129.16,50.848 C129.16,51.112 129.064,51.274 128.872,51.334 C128.68,51.394 128.38,51.424 127.972,51.424 L127.972,51.424 L122.428,51.424 L122.428,47.824 L131.212,47.824 C131.956,47.824 132.328,48.052 132.328,48.508 L132.328,48.508 L132.976,48.508 L132.976,44.512 L132.328,44.512 C132.328,44.944 131.956,45.16 131.212,45.16 L131.212,45.16 L118.432,45.16 L118.432,45.808 C118.552,45.808 118.672,45.85 118.792,45.934 C118.912,46.018 118.972,46.156 118.972,46.348 L118.972,46.348 L118.972,59.812 C118.972,60.004 118.912,60.142 118.792,60.226 C118.672,60.31 118.552,60.352 118.432,60.352 L118.432,60.352 L118.432,61 L131.644,61 C131.932,61 132.172,61.012 132.364,61.036 C132.556,61.06 132.652,61.18 132.652,61.396 L132.652,61.396 L133.3,61.396 Z M153.316,61.396 L153.316,57.616 L152.668,57.616 C152.668,57.832 152.572,58.006 152.38,58.138 C152.188,58.27 151.948,58.336 151.66,58.336 L151.66,58.336 L142.444,58.336 L142.444,54.088 L147.7,54.088 C148.18,54.088 148.552,54.118 148.816,54.178 C149.08,54.238 149.176,54.4 149.104,54.664 L149.104,54.664 L149.824,54.664 L149.824,50.848 L149.176,50.848 C149.176,51.112 149.08,51.274 148.888,51.334 C148.696,51.394 148.396,51.424 147.988,51.424 L147.988,51.424 L142.444,51.424 L142.444,47.824 L151.228,47.824 C151.972,47.824 152.344,48.052 152.344,48.508 L152.344,48.508 L152.992,48.508 L152.992,44.512 L152.344,44.512 C152.344,44.944 151.972,45.16 151.228,45.16 L151.228,45.16 L138.448,45.16 L138.448,45.808 C138.568,45.808 138.688,45.85 138.808,45.934 C138.928,46.018 138.988,46.156 138.988,46.348 L138.988,46.348 L138.988,59.812 C138.988,60.004 138.928,60.142 138.808,60.226 C138.688,60.31 138.568,60.352 138.448,60.352 L138.448,60.352 L138.448,61 L151.66,61 C151.948,61 152.188,61.012 152.38,61.036 C152.572,61.06 152.668,61.18 152.668,61.396 L152.668,61.396 L153.316,61.396 Z M173.476,61.36 L173.476,57.58 L172.828,57.58 C172.828,58.084 172.552,58.336 172,58.336 L172,58.336 L163.396,58.336 L173.44,45.808 L173.44,45.16 L159.112,45.16 C158.512,45.16 158.212,44.884 158.212,44.332 L158.212,44.332 L157.564,44.332 L157.564,48.544 L158.212,48.544 C158.212,48.352 158.284,48.184 158.428,48.04 C158.572,47.896 158.8,47.824 159.112,47.824 L159.112,47.824 L167.356,47.824 L157.564,60.352 L157.564,61 L172,61 C172.552,61 172.828,61.12 172.828,61.36 L172.828,61.36 L173.476,61.36 Z M193.348,61.396 L193.348,57.616 L192.7,57.616 C192.7,57.832 192.604,58.006 192.412,58.138 C192.22,58.27 191.98,58.336 191.692,58.336 L191.692,58.336 L182.476,58.336 L182.476,54.088 L187.732,54.088 C188.212,54.088 188.584,54.118 188.848,54.178 C189.112,54.238 189.208,54.4 189.136,54.664 L189.136,54.664 L189.856,54.664 L189.856,50.848 L189.208,50.848 C189.208,51.112 189.112,51.274 188.92,51.334 C188.728,51.394 188.428,51.424 188.02,51.424 L188.02,51.424 L182.476,51.424 L182.476,47.824 L191.26,47.824 C192.004,47.824 192.376,48.052 192.376,48.508 L192.376,48.508 L193.024,48.508 L193.024,44.512 L192.376,44.512 C192.376,44.944 192.004,45.16 191.26,45.16 L191.26,45.16 L178.48,45.16 L178.48,45.808 C178.6,45.808 178.72,45.85 178.84,45.934 C178.96,46.018 179.02,46.156 179.02,46.348 L179.02,46.348 L179.02,59.812 C179.02,60.004 178.96,60.142 178.84,60.226 C178.72,60.31 178.6,60.352 178.48,60.352 L178.48,60.352 L178.48,61 L191.692,61 C191.98,61 192.22,61.012 192.412,61.036 C192.604,61.06 192.7,61.18 192.7,61.396 L192.7,61.396 L193.348,61.396 Z" id="Sneeze" fill="#000000" fill-rule="nonzero"></path>
        <path d="M33.026,261 L33.026,260.676 C32.87,260.628 32.792,260.508 32.792,260.316 C32.792,260.196 32.882,259.902 33.062,259.434 L33.062,259.434 L35.024,254.232 L35.06,254.232 L37.13,259.542 C37.226,259.758 37.295,259.926 37.337,260.046 C37.379,260.166 37.4,260.274 37.4,260.37 C37.4,260.454 37.361,260.52 37.283,260.568 C37.205,260.616 37.13,260.652 37.058,260.676 L37.058,260.676 L37.058,261 L39.902,261 L39.902,260.676 C39.794,260.676 39.71,260.643 39.65,260.577 C39.59,260.511 39.56,260.436 39.56,260.352 C39.56,260.256 39.587,260.136 39.641,259.992 L39.641,259.992 L39.83,259.488 L42.422,252.612 C42.506,252.396 42.581,252.216 42.647,252.072 C42.713,251.928 42.812,251.856 42.944,251.856 L42.944,251.856 L42.944,251.532 L40.28,251.532 L40.28,251.856 C40.364,251.856 40.436,251.889 40.496,251.955 C40.556,252.021 40.586,252.09 40.586,252.162 C40.586,252.306 40.544,252.468 40.46,252.648 L40.46,252.648 L38.516,257.832 L38.48,257.832 L36.554,252.756 C36.434,252.468 36.374,252.264 36.374,252.144 C36.374,252.072 36.392,252.006 36.428,251.946 C36.464,251.886 36.524,251.856 36.608,251.856 L36.608,251.856 L36.608,251.532 L33.53,251.532 L33.53,251.856 C33.686,251.856 33.764,251.97 33.764,252.198 C33.764,252.258 33.755,252.327 33.737,252.405 C33.719,252.483 33.68,252.6 33.62,252.756 L33.62,252.756 L31.712,257.832 L31.676,257.832 L29.75,252.828 C29.678,252.636 29.633,252.498 29.615,252.414 C29.597,252.33 29.588,252.258 29.588,252.198 C29.588,251.97 29.678,251.856 29.858,251.856 L29.858,251.856 L29.858,251.532 L27.068,251.532 L27.068,251.856 C27.188,251.88 27.275,251.937 27.329,252.027 C27.383,252.117 27.434,252.228 27.482,252.36 L27.482,252.36 L30.362,259.794 C30.41,259.914 30.455,260.028 30.497,260.136 C30.539,260.244 30.56,260.346 30.56,260.442 C30.56,260.526 30.524,260.586 30.452,260.622 C30.38,260.658 30.308,260.676 30.236,260.676 L30.236,260.676 L30.236,261 L33.026,261 Z M47.354,261 L47.354,260.676 C47.282,260.676 47.219,260.655 47.165,260.613 C47.111,260.571 47.084,260.502 47.084,260.406 L47.084,260.406 L47.084,257.688 L51.908,257.688 L51.908,260.406 C51.908,260.502 51.881,260.571 51.827,260.613 C51.773,260.655 51.71,260.676 51.638,260.676 L51.638,260.676 L51.638,261 L53.906,261 L53.906,260.676 C53.834,260.676 53.771,260.655 53.717,260.613 C53.663,260.571 53.636,260.502 53.636,260.406 L53.636,260.406 L53.636,253.674 C53.636,253.578 53.663,253.509 53.717,253.467 C53.771,253.425 53.834,253.404 53.906,253.404 L53.906,253.404 L53.906,253.08 L51.638,253.08 L51.638,253.404 C51.71,253.404 51.773,253.425 51.827,253.467 C51.881,253.509 51.908,253.578 51.908,253.674 L51.908,253.674 L51.908,256.212 L47.084,256.212 L47.084,253.674 C47.084,253.578 47.111,253.509 47.165,253.467 C47.219,253.425 47.282,253.404 47.354,253.404 L47.354,253.404 L47.354,253.08 L45.086,253.08 L45.086,253.404 C45.158,253.404 45.221,253.425 45.275,253.467 C45.329,253.509 45.356,253.578 45.356,253.674 L45.356,253.674 L45.356,260.406 C45.356,260.502 45.329,260.571 45.275,260.613 C45.221,260.655 45.158,260.676 45.086,260.676 L45.086,260.676 L45.086,261 L47.354,261 Z M61.718,261 L61.718,260.676 C61.49,260.676 61.376,260.586 61.376,260.406 L61.376,260.406 L61.376,257.706 L64.13,254.142 C64.262,253.974 64.415,253.809 64.589,253.647 C64.763,253.485 64.922,253.404 65.066,253.404 L65.066,253.404 L65.066,253.08 L62.312,253.08 L62.312,253.404 C62.372,253.404 62.432,253.416 62.492,253.44 C62.552,253.464 62.582,253.524 62.582,253.62 C62.582,253.692 62.555,253.767 62.501,253.845 C62.447,253.923 62.366,254.04 62.258,254.196 L62.258,254.196 L60.656,256.428 L58.838,254.052 C58.778,253.968 58.724,253.896 58.676,253.836 C58.628,253.776 58.604,253.71 58.604,253.638 C58.604,253.566 58.64,253.509 58.712,253.467 C58.784,253.425 58.85,253.404 58.91,253.404 L58.91,253.404 L58.91,253.08 L55.94,253.08 L55.94,253.404 C56.048,253.404 56.162,253.428 56.282,253.476 C56.402,253.524 56.504,253.602 56.588,253.71 L56.588,253.71 L59.648,257.634 L59.648,260.406 C59.648,260.586 59.54,260.676 59.324,260.676 L59.324,260.676 L59.324,261 L61.718,261 Z M77.288,261 C77.996,261 78.596,260.886 79.088,260.658 C79.58,260.43 79.982,260.133 80.294,259.767 C80.606,259.401 80.834,258.981 80.978,258.507 C81.122,258.033 81.194,257.544 81.194,257.04 C81.194,256.536 81.119,256.047 80.969,255.573 C80.819,255.099 80.585,254.679 80.267,254.313 C79.949,253.947 79.538,253.65 79.034,253.422 C78.53,253.194 77.924,253.08 77.216,253.08 L77.216,253.08 L72.212,253.08 L72.212,253.404 C72.488,253.404 72.626,253.494 72.626,253.674 L72.626,253.674 L72.626,260.406 C72.626,260.586 72.488,260.676 72.212,260.676 L72.212,260.676 L72.212,261 L77.288,261 Z M76.694,259.668 L74.354,259.668 L74.354,254.412 L76.694,254.412 C77.066,254.412 77.42,254.433 77.756,254.475 C78.092,254.517 78.386,254.625 78.638,254.799 C78.89,254.973 79.091,255.231 79.241,255.573 C79.391,255.915 79.466,256.386 79.466,256.986 C79.466,257.586 79.391,258.063 79.241,258.417 C79.091,258.771 78.89,259.041 78.638,259.227 C78.386,259.413 78.092,259.533 77.756,259.587 C77.42,259.641 77.066,259.668 76.694,259.668 L76.694,259.668 Z M86.36,261 L86.36,260.676 C86.024,260.676 85.856,260.586 85.856,260.406 L85.856,260.406 L85.856,253.674 C85.856,253.494 86.024,253.404 86.36,253.404 L86.36,253.404 L86.36,253.08 L83.624,253.08 L83.624,253.404 C83.816,253.404 83.948,253.425 84.02,253.467 C84.092,253.509 84.128,253.578 84.128,253.674 L84.128,253.674 L84.128,260.406 C84.128,260.502 84.092,260.571 84.02,260.613 C83.948,260.655 83.816,260.676 83.624,260.676 L83.624,260.676 L83.624,261 L86.36,261 Z M94.28,261 C94.988,261 95.588,260.886 96.08,260.658 C96.572,260.43 96.974,260.133 97.286,259.767 C97.598,259.401 97.826,258.981 97.97,258.507 C98.114,258.033 98.186,257.544 98.186,257.04 C98.186,256.536 98.111,256.047 97.961,255.573 C97.811,255.099 97.577,254.679 97.259,254.313 C96.941,253.947 96.53,253.65 96.026,253.422 C95.522,253.194 94.916,253.08 94.208,253.08 L94.208,253.08 L89.204,253.08 L89.204,253.404 C89.48,253.404 89.618,253.494 89.618,253.674 L89.618,253.674 L89.618,260.406 C89.618,260.586 89.48,260.676 89.204,260.676 L89.204,260.676 L89.204,261 L94.28,261 Z M93.686,259.668 L91.346,259.668 L91.346,254.412 L93.686,254.412 C94.058,254.412 94.412,254.433 94.748,254.475 C95.084,254.517 95.378,254.625 95.63,254.799 C95.882,254.973 96.083,255.231 96.233,255.573 C96.383,255.915 96.458,256.386 96.458,256.986 C96.458,257.586 96.383,258.063 96.233,258.417 C96.083,258.771 95.882,259.041 95.63,259.227 C95.378,259.413 95.084,259.533 94.748,259.587 C94.412,259.641 94.058,259.668 93.686,259.668 L93.686,259.668 Z M111.218,261.054 C111.794,261.054 112.346,260.988 112.874,260.856 C113.402,260.724 113.873,260.568 114.287,260.388 C114.701,260.208 115.043,260.046 115.313,259.902 C115.583,259.758 115.754,259.686 115.826,259.686 C115.862,259.686 115.895,259.689 115.925,259.695 C115.955,259.701 115.988,259.704 116.024,259.704 L116.024,259.704 L116.168,259.56 L114.98,257.652 L114.728,257.796 C114.776,257.856 114.8,257.928 114.8,258.012 C114.8,258.168 114.683,258.333 114.449,258.507 C114.215,258.681 113.924,258.837 113.576,258.975 C113.228,259.113 112.844,259.227 112.424,259.317 C112.004,259.407 111.602,259.452 111.218,259.452 C110.714,259.452 110.231,259.38 109.769,259.236 C109.307,259.092 108.905,258.882 108.563,258.606 C108.221,258.33 107.948,257.991 107.744,257.589 C107.54,257.187 107.438,256.728 107.438,256.212 C107.438,255.696 107.54,255.237 107.744,254.835 C107.948,254.433 108.221,254.094 108.563,253.818 C108.905,253.542 109.307,253.332 109.769,253.188 C110.231,253.044 110.714,252.972 111.218,252.972 C111.518,252.972 111.845,253.008 112.199,253.08 C112.553,253.152 112.889,253.242 113.207,253.35 C113.525,253.458 113.792,253.581 114.008,253.719 C114.224,253.857 114.344,253.992 114.368,254.124 C114.38,254.172 114.389,254.214 114.395,254.25 C114.401,254.286 114.404,254.322 114.404,254.358 L114.404,254.358 L114.584,254.484 L115.988,252.306 L115.718,252.09 C115.694,252.126 115.661,252.174 115.619,252.234 C115.577,252.294 115.526,252.324 115.466,252.324 C115.418,252.324 115.286,252.276 115.07,252.18 C114.854,252.084 114.56,251.982 114.188,251.874 C113.816,251.766 113.381,251.664 112.883,251.568 C112.385,251.472 111.83,251.424 111.218,251.424 C110.462,251.424 109.736,251.526 109.04,251.73 C108.344,251.934 107.729,252.24 107.195,252.648 C106.661,253.056 106.238,253.563 105.926,254.169 C105.614,254.775 105.458,255.474 105.458,256.266 C105.458,257.07 105.614,257.772 105.926,258.372 C106.238,258.972 106.661,259.473 107.195,259.875 C107.729,260.277 108.344,260.574 109.04,260.766 C109.736,260.958 110.462,261.054 111.218,261.054 Z M124.484,261.054 C125.144,261.054 125.816,260.964 126.5,260.784 C127.184,260.604 127.808,260.316 128.372,259.92 C128.936,259.524 129.398,259.023 129.758,258.417 C130.118,257.811 130.298,257.094 130.298,256.266 C130.298,255.438 130.118,254.721 129.758,254.115 C129.398,253.509 128.936,253.008 128.372,252.612 C127.808,252.216 127.184,251.919 126.5,251.721 C125.816,251.523 125.144,251.424 124.484,251.424 C123.824,251.424 123.152,251.523 122.468,251.721 C121.784,251.919 121.16,252.216 120.596,252.612 C120.032,253.008 119.57,253.509 119.21,254.115 C118.85,254.721 118.67,255.438 118.67,256.266 C118.67,257.094 118.85,257.811 119.21,258.417 C119.57,259.023 120.032,259.524 120.596,259.92 C121.16,260.316 121.784,260.604 122.468,260.784 C123.152,260.964 123.824,261.054 124.484,261.054 Z M124.484,259.452 C124.028,259.452 123.572,259.38 123.116,259.236 C122.66,259.092 122.249,258.885 121.883,258.615 C121.517,258.345 121.22,258.012 120.992,257.616 C120.764,257.22 120.65,256.77 120.65,256.266 C120.65,255.762 120.764,255.312 120.992,254.916 C121.22,254.52 121.517,254.187 121.883,253.917 C122.249,253.647 122.66,253.44 123.116,253.296 C123.572,253.152 124.028,253.08 124.484,253.08 C124.94,253.08 125.396,253.152 125.852,253.296 C126.308,253.44 126.719,253.647 127.085,253.917 C127.451,254.187 127.748,254.52 127.976,254.916 C128.204,255.312 128.318,255.762 128.318,256.266 C128.318,256.77 128.204,257.22 127.976,257.616 C127.748,258.012 127.451,258.345 127.085,258.615 C126.719,258.885 126.308,259.092 125.852,259.236 C125.396,259.38 124.94,259.452 124.484,259.452 Z M138.92,261 L138.92,260.676 C138.872,260.64 138.833,260.604 138.803,260.568 C138.773,260.532 138.758,260.484 138.758,260.424 C138.758,260.364 138.794,260.262 138.866,260.118 C138.938,259.974 139.028,259.782 139.136,259.542 L139.136,259.542 L142.322,252.54 C142.37,252.432 142.448,252.291 142.556,252.117 C142.664,251.943 142.838,251.856 143.078,251.856 L143.078,251.856 L143.078,251.532 L139.928,251.532 L139.928,251.856 C140.264,251.856 140.432,251.952 140.432,252.144 C140.432,252.24 140.369,252.411 140.243,252.657 C140.117,252.903 139.982,253.182 139.838,253.494 L139.838,253.494 L137.588,258.372 L135.284,253.422 C135.14,253.122 135.017,252.87 134.915,252.666 C134.813,252.462 134.762,252.294 134.762,252.162 C134.762,252.042 134.801,251.961 134.879,251.919 C134.957,251.877 135.038,251.856 135.122,251.856 L135.122,251.856 L135.122,251.532 L131.9,251.532 L131.9,251.856 C132.104,251.916 132.26,251.976 132.368,252.036 C132.476,252.096 132.56,252.192 132.62,252.324 L132.62,252.324 L135.86,259.362 C135.992,259.638 136.103,259.869 136.193,260.055 C136.283,260.241 136.328,260.364 136.328,260.424 C136.328,260.544 136.274,260.628 136.166,260.676 L136.166,260.676 L136.166,261 L138.92,261 Z M147.974,261 L147.974,260.676 C147.662,260.676 147.506,260.568 147.506,260.352 L147.506,260.352 L147.506,252.18 C147.506,251.964 147.662,251.856 147.974,251.856 L147.974,251.856 L147.974,251.532 L144.986,251.532 L144.986,251.856 C145.298,251.856 145.454,251.964 145.454,252.18 L145.454,252.18 L145.454,260.352 C145.454,260.568 145.298,260.676 144.986,260.676 L144.986,260.676 L144.986,261 L147.974,261 Z M156.794,261 C157.454,261 158.069,260.904 158.639,260.712 C159.209,260.52 159.704,260.229 160.124,259.839 C160.544,259.449 160.874,258.957 161.114,258.363 C161.354,257.769 161.474,257.07 161.474,256.266 C161.474,255.462 161.354,254.763 161.114,254.169 C160.874,253.575 160.544,253.083 160.124,252.693 C159.704,252.303 159.209,252.012 158.639,251.82 C158.069,251.628 157.454,251.532 156.794,251.532 L156.794,251.532 L150.818,251.532 L150.818,251.856 C151.094,251.856 151.232,251.964 151.232,252.18 L151.232,252.18 L151.232,260.352 C151.232,260.568 151.094,260.676 150.818,260.676 L150.818,260.676 L150.818,261 L156.794,261 Z M156.074,259.452 L153.284,259.452 L153.284,253.08 L156.074,253.08 C156.638,253.08 157.13,253.128 157.55,253.224 C157.97,253.32 158.318,253.491 158.594,253.737 C158.87,253.983 159.077,254.31 159.215,254.718 C159.353,255.126 159.422,255.642 159.422,256.266 C159.422,256.89 159.353,257.406 159.215,257.814 C159.077,258.222 158.87,258.549 158.594,258.795 C158.318,259.041 157.97,259.212 157.55,259.308 C157.13,259.404 156.638,259.452 156.074,259.452 L156.074,259.452 Z M171.824,261 L171.824,260.676 C171.752,260.676 171.689,260.655 171.635,260.613 C171.581,260.571 171.554,260.502 171.554,260.406 L171.554,260.406 L171.554,257.688 L176.378,257.688 L176.378,260.406 C176.378,260.502 176.351,260.571 176.297,260.613 C176.243,260.655 176.18,260.676 176.108,260.676 L176.108,260.676 L176.108,261 L178.376,261 L178.376,260.676 C178.304,260.676 178.241,260.655 178.187,260.613 C178.133,260.571 178.106,260.502 178.106,260.406 L178.106,260.406 L178.106,253.674 C178.106,253.578 178.133,253.509 178.187,253.467 C178.241,253.425 178.304,253.404 178.376,253.404 L178.376,253.404 L178.376,253.08 L176.108,253.08 L176.108,253.404 C176.18,253.404 176.243,253.425 176.297,253.467 C176.351,253.509 176.378,253.578 176.378,253.674 L176.378,253.674 L176.378,256.212 L171.554,256.212 L171.554,253.674 C171.554,253.578 171.581,253.509 171.635,253.467 C171.689,253.425 171.752,253.404 171.824,253.404 L171.824,253.404 L171.824,253.08 L169.556,253.08 L169.556,253.404 C169.628,253.404 169.691,253.425 169.745,253.467 C169.799,253.509 169.826,253.578 169.826,253.674 L169.826,253.674 L169.826,260.406 C169.826,260.502 169.799,260.571 169.745,260.613 C169.691,260.655 169.628,260.676 169.556,260.676 L169.556,260.676 L169.556,261 L171.824,261 Z M182.66,261 L182.66,260.676 C182.552,260.676 182.468,260.664 182.408,260.64 C182.348,260.616 182.318,260.556 182.318,260.46 C182.318,260.4 182.333,260.331 182.363,260.253 C182.393,260.175 182.432,260.088 182.48,259.992 L182.48,259.992 L182.984,259.02 L186.836,259.02 L187.322,260.046 C187.358,260.142 187.388,260.22 187.412,260.28 C187.436,260.34 187.448,260.406 187.448,260.478 C187.448,260.574 187.415,260.64 187.349,260.676 C187.283,260.712 187.22,260.73 187.16,260.73 L187.16,260.73 L187.16,261 L189.716,261 L189.716,260.676 C189.632,260.652 189.554,260.616 189.482,260.568 C189.41,260.52 189.344,260.442 189.284,260.334 L189.284,260.334 L186.368,254.214 C186.308,254.082 186.251,253.965 186.197,253.863 C186.143,253.761 186.116,253.674 186.116,253.602 C186.116,253.518 186.137,253.47 186.179,253.458 C186.221,253.446 186.26,253.428 186.296,253.404 L186.296,253.404 L186.296,253.08 L183.578,253.08 L183.578,253.404 C183.614,253.428 183.647,253.449 183.677,253.467 C183.707,253.485 183.722,253.53 183.722,253.602 C183.722,253.698 183.701,253.797 183.659,253.899 C183.617,254.001 183.56,254.136 183.488,254.304 L183.488,254.304 L180.806,260.154 C180.758,260.25 180.689,260.355 180.599,260.469 C180.509,260.583 180.392,260.652 180.248,260.676 L180.248,260.676 L180.248,261 L182.66,261 Z M186.26,257.688 L183.524,257.688 L184.802,254.664 L186.26,257.688 Z M196.412,261 L196.412,260.676 C196.196,260.64 196.088,260.586 196.088,260.514 C196.088,260.454 196.121,260.37 196.187,260.262 C196.253,260.154 196.352,259.944 196.484,259.632 L196.484,259.632 L199.112,253.818 C199.244,253.542 199.394,253.404 199.562,253.404 L199.562,253.404 L199.562,253.08 L197.204,253.08 L197.204,253.404 C197.372,253.404 197.462,253.476 197.474,253.62 C197.486,253.704 197.456,253.818 197.384,253.962 C197.312,254.106 197.21,254.322 197.078,254.61 L197.078,254.61 L195.116,258.966 L193.046,254.484 C192.962,254.304 192.887,254.139 192.821,253.989 C192.755,253.839 192.722,253.722 192.722,253.638 C192.722,253.482 192.794,253.404 192.938,253.404 L192.938,253.404 L192.938,253.08 L190.4,253.08 L190.4,253.404 C190.472,253.404 190.547,253.434 190.625,253.494 C190.703,253.554 190.766,253.638 190.814,253.746 L190.814,253.746 L193.55,259.632 C193.658,259.86 193.751,260.04 193.829,260.172 C193.907,260.304 193.946,260.4 193.946,260.46 C193.946,260.52 193.919,260.565 193.865,260.595 C193.811,260.625 193.754,260.652 193.694,260.676 L193.694,260.676 L193.694,261 L196.412,261 Z M208.904,261.198 L208.904,259.308 L208.58,259.308 C208.58,259.416 208.532,259.503 208.436,259.569 C208.34,259.635 208.22,259.668 208.076,259.668 L208.076,259.668 L203.468,259.668 L203.468,257.544 L206.096,257.544 C206.336,257.544 206.522,257.559 206.654,257.589 C206.786,257.619 206.834,257.7 206.798,257.832 L206.798,257.832 L207.158,257.832 L207.158,255.924 L206.834,255.924 C206.834,256.056 206.786,256.137 206.69,256.167 C206.594,256.197 206.444,256.212 206.24,256.212 L206.24,256.212 L203.468,256.212 L203.468,254.412 L207.86,254.412 C208.232,254.412 208.418,254.526 208.418,254.754 L208.418,254.754 L208.742,254.754 L208.742,252.756 L208.418,252.756 C208.418,252.972 208.232,253.08 207.86,253.08 L207.86,253.08 L201.47,253.08 L201.47,253.404 C201.53,253.404 201.59,253.425 201.65,253.467 C201.71,253.509 201.74,253.578 201.74,253.674 L201.74,253.674 L201.74,260.406 C201.74,260.502 201.71,260.571 201.65,260.613 C201.59,260.655 201.53,260.676 201.47,260.676 L201.47,260.676 L201.47,261 L208.076,261 C208.22,261 208.34,261.006 208.436,261.018 C208.532,261.03 208.58,261.09 208.58,261.198 L208.58,261.198 L208.904,261.198 Z M221.18,261 L221.18,260.676 C220.964,260.676 220.856,260.586 220.856,260.406 L220.856,260.406 L220.856,254.412 L223.196,254.412 C223.292,254.412 223.382,254.436 223.466,254.484 C223.55,254.532 223.592,254.61 223.592,254.718 L223.592,254.718 L223.916,254.718 L223.916,252.648 L223.592,252.648 C223.592,252.816 223.55,252.93 223.466,252.99 C223.382,253.05 223.292,253.08 223.196,253.08 L223.196,253.08 L216.788,253.08 C216.692,253.08 216.602,253.05 216.518,252.99 C216.434,252.93 216.392,252.816 216.392,252.648 L216.392,252.648 L216.068,252.648 L216.068,254.718 L216.392,254.718 C216.392,254.61 216.434,254.532 216.518,254.484 C216.602,254.436 216.692,254.412 216.788,254.412 L216.788,254.412 L219.128,254.412 L219.128,260.406 C219.128,260.502 219.098,260.571 219.038,260.613 C218.978,260.655 218.918,260.676 218.858,260.676 L218.858,260.676 L218.858,261 L221.18,261 Z M229.982,261.054 C230.642,261.054 231.263,260.979 231.845,260.829 C232.427,260.679 232.934,260.436 233.366,260.1 C233.798,259.764 234.14,259.341 234.392,258.831 C234.644,258.321 234.77,257.724 234.77,257.04 C234.77,256.356 234.644,255.759 234.392,255.249 C234.14,254.739 233.798,254.316 233.366,253.98 C232.934,253.644 232.427,253.392 231.845,253.224 C231.263,253.056 230.642,252.972 229.982,252.972 C229.322,252.972 228.701,253.056 228.119,253.224 C227.537,253.392 227.03,253.644 226.598,253.98 C226.166,254.316 225.824,254.739 225.572,255.249 C225.32,255.759 225.194,256.356 225.194,257.04 C225.194,257.724 225.32,258.321 225.572,258.831 C225.824,259.341 226.166,259.764 226.598,260.1 C227.03,260.436 227.537,260.679 228.119,260.829 C228.701,260.979 229.322,261.054 229.982,261.054 Z M229.982,259.776 C229.598,259.776 229.223,259.713 228.857,259.587 C228.491,259.461 228.164,259.281 227.876,259.047 C227.588,258.813 227.357,258.528 227.183,258.192 C227.009,257.856 226.922,257.472 226.922,257.04 C226.922,256.608 227.009,256.224 227.183,255.888 C227.357,255.552 227.588,255.267 227.876,255.033 C228.164,254.799 228.491,254.619 228.857,254.493 C229.223,254.367 229.598,254.304 229.982,254.304 C230.366,254.304 230.741,254.367 231.107,254.493 C231.473,254.619 231.8,254.799 232.088,255.033 C232.376,255.267 232.607,255.552 232.781,255.888 C232.955,256.224 233.042,256.608 233.042,257.04 C233.042,257.472 232.955,257.856 232.781,258.192 C232.607,258.528 232.376,258.813 232.088,259.047 C231.8,259.281 231.473,259.461 231.107,259.587 C230.741,259.713 230.366,259.776 229.982,259.776 Z M63.086,279 L63.086,278.676 C63.014,278.676 62.951,278.655 62.897,278.613 C62.843,278.571 62.816,278.502 62.816,278.406 L62.816,278.406 L62.816,275.688 L67.64,275.688 L67.64,278.406 C67.64,278.502 67.613,278.571 67.559,278.613 C67.505,278.655 67.442,278.676 67.37,278.676 L67.37,278.676 L67.37,279 L69.638,279 L69.638,278.676 C69.566,278.676 69.503,278.655 69.449,278.613 C69.395,278.571 69.368,278.502 69.368,278.406 L69.368,278.406 L69.368,271.674 C69.368,271.578 69.395,271.509 69.449,271.467 C69.503,271.425 69.566,271.404 69.638,271.404 L69.638,271.404 L69.638,271.08 L67.37,271.08 L67.37,271.404 C67.442,271.404 67.505,271.425 67.559,271.467 C67.613,271.509 67.64,271.578 67.64,271.674 L67.64,271.674 L67.64,274.212 L62.816,274.212 L62.816,271.674 C62.816,271.578 62.843,271.509 62.897,271.467 C62.951,271.425 63.014,271.404 63.086,271.404 L63.086,271.404 L63.086,271.08 L60.818,271.08 L60.818,271.404 C60.89,271.404 60.953,271.425 61.007,271.467 C61.061,271.509 61.088,271.578 61.088,271.674 L61.088,271.674 L61.088,278.406 C61.088,278.502 61.061,278.571 61.007,278.613 C60.953,278.655 60.89,278.676 60.818,278.676 L60.818,278.676 L60.818,279 L63.086,279 Z M73.922,279 L73.922,278.676 C73.814,278.676 73.73,278.664 73.67,278.64 C73.61,278.616 73.58,278.556 73.58,278.46 C73.58,278.4 73.595,278.331 73.625,278.253 C73.655,278.175 73.694,278.088 73.742,277.992 L73.742,277.992 L74.246,277.02 L78.098,277.02 L78.584,278.046 C78.62,278.142 78.65,278.22 78.674,278.28 C78.698,278.34 78.71,278.406 78.71,278.478 C78.71,278.574 78.677,278.64 78.611,278.676 C78.545,278.712 78.482,278.73 78.422,278.73 L78.422,278.73 L78.422,279 L80.978,279 L80.978,278.676 C80.894,278.652 80.816,278.616 80.744,278.568 C80.672,278.52 80.606,278.442 80.546,278.334 L80.546,278.334 L77.63,272.214 C77.57,272.082 77.513,271.965 77.459,271.863 C77.405,271.761 77.378,271.674 77.378,271.602 C77.378,271.518 77.399,271.47 77.441,271.458 C77.483,271.446 77.522,271.428 77.558,271.404 L77.558,271.404 L77.558,271.08 L74.84,271.08 L74.84,271.404 C74.876,271.428 74.909,271.449 74.939,271.467 C74.969,271.485 74.984,271.53 74.984,271.602 C74.984,271.698 74.963,271.797 74.921,271.899 C74.879,272.001 74.822,272.136 74.75,272.304 L74.75,272.304 L72.068,278.154 C72.02,278.25 71.951,278.355 71.861,278.469 C71.771,278.583 71.654,278.652 71.51,278.676 L71.51,278.676 L71.51,279 L73.922,279 Z M77.522,275.688 L74.786,275.688 L76.064,272.664 L77.522,275.688 Z M85.01,279 L85.01,278.676 C84.758,278.676 84.632,278.586 84.632,278.406 L84.632,278.406 L84.632,275.706 L87.692,275.706 C88.664,275.706 89.393,275.541 89.879,275.211 C90.365,274.881 90.608,274.284 90.608,273.42 C90.608,272.556 90.365,271.95 89.879,271.602 C89.393,271.254 88.664,271.08 87.692,271.08 L87.692,271.08 L82.454,271.08 L82.454,271.404 C82.754,271.404 82.904,271.494 82.904,271.674 L82.904,271.674 L82.904,278.406 C82.904,278.586 82.754,278.676 82.454,278.676 L82.454,278.676 L82.454,279 L85.01,279 Z M87.656,274.374 L84.632,274.374 L84.632,272.412 L87.656,272.412 C88.004,272.412 88.295,272.487 88.529,272.637 C88.763,272.787 88.88,273.048 88.88,273.42 C88.88,273.804 88.763,274.059 88.529,274.185 C88.295,274.311 88.004,274.374 87.656,274.374 L87.656,274.374 Z M95.018,279 L95.018,278.676 C94.766,278.676 94.64,278.586 94.64,278.406 L94.64,278.406 L94.64,275.706 L97.7,275.706 C98.672,275.706 99.401,275.541 99.887,275.211 C100.373,274.881 100.616,274.284 100.616,273.42 C100.616,272.556 100.373,271.95 99.887,271.602 C99.401,271.254 98.672,271.08 97.7,271.08 L97.7,271.08 L92.462,271.08 L92.462,271.404 C92.762,271.404 92.912,271.494 92.912,271.674 L92.912,271.674 L92.912,278.406 C92.912,278.586 92.762,278.676 92.462,278.676 L92.462,278.676 L92.462,279 L95.018,279 Z M97.664,274.374 L94.64,274.374 L94.64,272.412 L97.664,272.412 C98.012,272.412 98.303,272.487 98.537,272.637 C98.771,272.787 98.888,273.048 98.888,273.42 C98.888,273.804 98.771,274.059 98.537,274.185 C98.303,274.311 98.012,274.374 97.664,274.374 L97.664,274.374 Z M110.174,279.198 L110.174,277.308 L109.85,277.308 C109.85,277.416 109.802,277.503 109.706,277.569 C109.61,277.635 109.49,277.668 109.346,277.668 L109.346,277.668 L104.738,277.668 L104.738,275.544 L107.366,275.544 C107.606,275.544 107.792,275.559 107.924,275.589 C108.056,275.619 108.104,275.7 108.068,275.832 L108.068,275.832 L108.428,275.832 L108.428,273.924 L108.104,273.924 C108.104,274.056 108.056,274.137 107.96,274.167 C107.864,274.197 107.714,274.212 107.51,274.212 L107.51,274.212 L104.738,274.212 L104.738,272.412 L109.13,272.412 C109.502,272.412 109.688,272.526 109.688,272.754 L109.688,272.754 L110.012,272.754 L110.012,270.756 L109.688,270.756 C109.688,270.972 109.502,271.08 109.13,271.08 L109.13,271.08 L102.74,271.08 L102.74,271.404 C102.8,271.404 102.86,271.425 102.92,271.467 C102.98,271.509 103.01,271.578 103.01,271.674 L103.01,271.674 L103.01,278.406 C103.01,278.502 102.98,278.571 102.92,278.613 C102.86,278.655 102.8,278.676 102.74,278.676 L102.74,278.676 L102.74,279 L109.346,279 C109.49,279 109.61,279.006 109.706,279.018 C109.802,279.03 109.85,279.09 109.85,279.198 L109.85,279.198 L110.174,279.198 Z M114.944,279 L114.944,278.676 C114.692,278.676 114.566,278.586 114.566,278.406 L114.566,278.406 L114.566,273.168 L119.03,277.92 C119.174,278.076 119.303,278.214 119.417,278.334 C119.531,278.454 119.588,278.538 119.588,278.586 C119.588,278.646 119.546,278.676 119.462,278.676 L119.462,278.676 L119.462,279 L121.802,279 L121.802,278.676 C121.586,278.676 121.478,278.586 121.478,278.406 L121.478,278.406 L121.478,271.674 C121.478,271.494 121.586,271.404 121.802,271.404 L121.802,271.404 L121.802,271.08 L119.606,271.08 L119.606,271.404 C119.846,271.404 119.966,271.494 119.966,271.674 L119.966,271.674 L119.966,276.552 L115.646,271.98 C115.382,271.716 115.25,271.554 115.25,271.494 C115.25,271.446 115.292,271.416 115.376,271.404 L115.376,271.404 L115.376,271.08 L112.73,271.08 L112.73,271.404 C112.946,271.404 113.054,271.494 113.054,271.674 L113.054,271.674 L113.054,278.406 C113.054,278.586 112.946,278.676 112.73,278.676 L112.73,278.676 L112.73,279 L114.944,279 Z M129.56,279 C130.268,279 130.868,278.886 131.36,278.658 C131.852,278.43 132.254,278.133 132.566,277.767 C132.878,277.401 133.106,276.981 133.25,276.507 C133.394,276.033 133.466,275.544 133.466,275.04 C133.466,274.536 133.391,274.047 133.241,273.573 C133.091,273.099 132.857,272.679 132.539,272.313 C132.221,271.947 131.81,271.65 131.306,271.422 C130.802,271.194 130.196,271.08 129.488,271.08 L129.488,271.08 L124.484,271.08 L124.484,271.404 C124.76,271.404 124.898,271.494 124.898,271.674 L124.898,271.674 L124.898,278.406 C124.898,278.586 124.76,278.676 124.484,278.676 L124.484,278.676 L124.484,279 L129.56,279 Z M128.966,277.668 L126.626,277.668 L126.626,272.412 L128.966,272.412 C129.338,272.412 129.692,272.433 130.028,272.475 C130.364,272.517 130.658,272.625 130.91,272.799 C131.162,272.973 131.363,273.231 131.513,273.573 C131.663,273.915 131.738,274.386 131.738,274.986 C131.738,275.586 131.663,276.063 131.513,276.417 C131.363,276.771 131.162,277.041 130.91,277.227 C130.658,277.413 130.364,277.533 130.028,277.587 C129.692,277.641 129.338,277.668 128.966,277.668 L128.966,277.668 Z M146.048,279 C146.756,279 147.356,278.886 147.848,278.658 C148.34,278.43 148.742,278.133 149.054,277.767 C149.366,277.401 149.594,276.981 149.738,276.507 C149.882,276.033 149.954,275.544 149.954,275.04 C149.954,274.536 149.879,274.047 149.729,273.573 C149.579,273.099 149.345,272.679 149.027,272.313 C148.709,271.947 148.298,271.65 147.794,271.422 C147.29,271.194 146.684,271.08 145.976,271.08 L145.976,271.08 L140.972,271.08 L140.972,271.404 C141.248,271.404 141.386,271.494 141.386,271.674 L141.386,271.674 L141.386,278.406 C141.386,278.586 141.248,278.676 140.972,278.676 L140.972,278.676 L140.972,279 L146.048,279 Z M145.454,277.668 L143.114,277.668 L143.114,272.412 L145.454,272.412 C145.826,272.412 146.18,272.433 146.516,272.475 C146.852,272.517 147.146,272.625 147.398,272.799 C147.65,272.973 147.851,273.231 148.001,273.573 C148.151,273.915 148.226,274.386 148.226,274.986 C148.226,275.586 148.151,276.063 148.001,276.417 C147.851,276.771 147.65,277.041 147.398,277.227 C147.146,277.413 146.852,277.533 146.516,277.587 C146.18,277.641 145.826,277.668 145.454,277.668 L145.454,277.668 Z M156.83,279.054 C157.55,279.054 158.177,278.979 158.711,278.829 C159.245,278.679 159.683,278.472 160.025,278.208 C160.367,277.944 160.622,277.641 160.79,277.299 C160.958,276.957 161.042,276.6 161.042,276.228 L161.042,276.228 L161.042,271.674 C161.042,271.494 161.174,271.404 161.438,271.404 L161.438,271.404 L161.438,271.08 L158.936,271.08 L158.936,271.404 C159.236,271.404 159.386,271.494 159.386,271.674 L159.386,271.674 L159.386,275.796 C159.386,276.372 159.176,276.834 158.756,277.182 C158.336,277.53 157.694,277.704 156.83,277.704 C155.966,277.704 155.324,277.53 154.904,277.182 C154.484,276.834 154.274,276.372 154.274,275.796 L154.274,275.796 L154.274,271.674 C154.274,271.494 154.406,271.404 154.67,271.404 L154.67,271.404 L154.67,271.08 L152.096,271.08 L152.096,271.404 C152.3,271.404 152.438,271.425 152.51,271.467 C152.582,271.509 152.618,271.578 152.618,271.674 L152.618,271.674 L152.618,276.228 C152.618,276.6 152.702,276.957 152.87,277.299 C153.038,277.641 153.293,277.944 153.635,278.208 C153.977,278.472 154.415,278.679 154.949,278.829 C155.483,278.979 156.11,279.054 156.83,279.054 Z M166.568,279 L166.568,278.676 C166.496,278.676 166.421,278.655 166.343,278.613 C166.265,278.571 166.226,278.502 166.226,278.406 L166.226,278.406 L166.226,275.832 L168.728,275.832 L170.15,277.956 C170.33,278.208 170.42,278.394 170.42,278.514 C170.42,278.622 170.342,278.676 170.186,278.676 L170.186,278.676 L170.186,279 L172.94,279 L172.94,278.676 C172.808,278.64 172.685,278.589 172.571,278.523 C172.457,278.457 172.352,278.358 172.256,278.226 L172.256,278.226 L170.492,275.652 C170.744,275.592 170.99,275.505 171.23,275.391 C171.47,275.277 171.689,275.127 171.887,274.941 C172.085,274.755 172.244,274.536 172.364,274.284 C172.484,274.032 172.544,273.744 172.544,273.42 C172.544,272.568 172.244,271.965 171.644,271.611 C171.044,271.257 170.21,271.08 169.142,271.08 L169.142,271.08 L164.174,271.08 L164.174,271.404 C164.39,271.404 164.498,271.494 164.498,271.674 L164.498,271.674 L164.498,278.406 C164.498,278.586 164.39,278.676 164.174,278.676 L164.174,278.676 L164.174,279 L166.568,279 Z M169.106,274.5 L166.262,274.5 L166.262,272.412 L169.106,272.412 C169.718,272.412 170.165,272.499 170.447,272.673 C170.729,272.847 170.87,273.084 170.87,273.384 C170.87,274.128 170.282,274.5 169.106,274.5 L169.106,274.5 Z M178.124,279 L178.124,278.676 C177.788,278.676 177.62,278.586 177.62,278.406 L177.62,278.406 L177.62,271.674 C177.62,271.494 177.788,271.404 178.124,271.404 L178.124,271.404 L178.124,271.08 L175.388,271.08 L175.388,271.404 C175.58,271.404 175.712,271.425 175.784,271.467 C175.856,271.509 175.892,271.578 175.892,271.674 L175.892,271.674 L175.892,278.406 C175.892,278.502 175.856,278.571 175.784,278.613 C175.712,278.655 175.58,278.676 175.388,278.676 L175.388,278.676 L175.388,279 L178.124,279 Z M183.434,279 L183.434,278.676 C183.182,278.676 183.056,278.586 183.056,278.406 L183.056,278.406 L183.056,273.168 L187.52,277.92 C187.664,278.076 187.793,278.214 187.907,278.334 C188.021,278.454 188.078,278.538 188.078,278.586 C188.078,278.646 188.036,278.676 187.952,278.676 L187.952,278.676 L187.952,279 L190.292,279 L190.292,278.676 C190.076,278.676 189.968,278.586 189.968,278.406 L189.968,278.406 L189.968,271.674 C189.968,271.494 190.076,271.404 190.292,271.404 L190.292,271.404 L190.292,271.08 L188.096,271.08 L188.096,271.404 C188.336,271.404 188.456,271.494 188.456,271.674 L188.456,271.674 L188.456,276.552 L184.136,271.98 C183.872,271.716 183.74,271.554 183.74,271.494 C183.74,271.446 183.782,271.416 183.866,271.404 L183.866,271.404 L183.866,271.08 L181.22,271.08 L181.22,271.404 C181.436,271.404 181.544,271.494 181.544,271.674 L181.544,271.674 L181.544,278.406 C181.544,278.586 181.436,278.676 181.22,278.676 L181.22,278.676 L181.22,279 L183.434,279 Z M197.456,279.054 C198.032,279.054 198.554,279.015 199.022,278.937 C199.49,278.859 199.901,278.76 200.255,278.64 C200.609,278.52 200.903,278.397 201.137,278.271 C201.371,278.145 201.542,278.046 201.65,277.974 L201.65,277.974 L201.65,277.758 C201.53,277.71 201.455,277.665 201.425,277.623 C201.395,277.581 201.38,277.506 201.38,277.398 L201.38,277.398 L201.38,275.688 C201.38,275.568 201.398,275.478 201.434,275.418 C201.47,275.358 201.542,275.304 201.65,275.256 L201.65,275.256 L201.65,274.932 L198.122,274.932 C197.99,274.932 197.876,274.914 197.78,274.878 C197.684,274.842 197.624,274.764 197.6,274.644 L197.6,274.644 L197.276,274.644 L197.276,276.498 L197.6,276.498 C197.624,276.354 197.684,276.255 197.78,276.201 C197.876,276.147 197.99,276.12 198.122,276.12 L198.122,276.12 L199.976,276.12 L199.976,277.254 C199.592,277.458 199.169,277.596 198.707,277.668 C198.245,277.74 197.756,277.776 197.24,277.776 C196.892,277.776 196.532,277.728 196.16,277.632 C195.788,277.536 195.449,277.383 195.143,277.173 C194.837,276.963 194.588,276.687 194.396,276.345 C194.204,276.003 194.108,275.58 194.108,275.076 C194.108,274.572 194.198,274.146 194.378,273.798 C194.558,273.45 194.798,273.165 195.098,272.943 C195.398,272.721 195.746,272.559 196.142,272.457 C196.538,272.355 196.958,272.304 197.402,272.304 C197.726,272.304 198.047,272.337 198.365,272.403 C198.683,272.469 198.968,272.556 199.22,272.664 C199.472,272.772 199.676,272.889 199.832,273.015 C199.988,273.141 200.066,273.258 200.066,273.366 C200.066,273.378 200.054,273.444 200.03,273.564 L200.03,273.564 L200.246,273.69 L201.29,271.728 L201.074,271.62 C201.002,271.68 200.942,271.719 200.894,271.737 C200.846,271.755 200.774,271.764 200.678,271.764 C200.594,271.764 200.468,271.722 200.3,271.638 C200.132,271.554 199.91,271.464 199.634,271.368 C199.37,271.272 199.058,271.182 198.698,271.098 C198.338,271.014 197.924,270.972 197.456,270.972 C196.676,270.972 195.971,271.065 195.341,271.251 C194.711,271.437 194.177,271.707 193.739,272.061 C193.301,272.415 192.965,272.841 192.731,273.339 C192.497,273.837 192.38,274.404 192.38,275.04 C192.38,275.676 192.497,276.243 192.731,276.741 C192.965,277.239 193.301,277.662 193.739,278.01 C194.177,278.358 194.711,278.619 195.341,278.793 C195.971,278.967 196.676,279.054 197.456,279.054 Z M59.405,297 L59.405,296.676 C59.297,296.676 59.213,296.664 59.153,296.64 C59.093,296.616 59.063,296.556 59.063,296.46 C59.063,296.4 59.078,296.331 59.108,296.253 C59.138,296.175 59.177,296.088 59.225,295.992 L59.225,295.992 L59.729,295.02 L63.581,295.02 L64.067,296.046 C64.103,296.142 64.133,296.22 64.157,296.28 C64.181,296.34 64.193,296.406 64.193,296.478 C64.193,296.574 64.16,296.64 64.094,296.676 C64.028,296.712 63.965,296.73 63.905,296.73 L63.905,296.73 L63.905,297 L66.461,297 L66.461,296.676 C66.377,296.652 66.299,296.616 66.227,296.568 C66.155,296.52 66.089,296.442 66.029,296.334 L66.029,296.334 L63.113,290.214 C63.053,290.082 62.996,289.965 62.942,289.863 C62.888,289.761 62.861,289.674 62.861,289.602 C62.861,289.518 62.882,289.47 62.924,289.458 C62.966,289.446 63.005,289.428 63.041,289.404 L63.041,289.404 L63.041,289.08 L60.323,289.08 L60.323,289.404 C60.359,289.428 60.392,289.449 60.422,289.467 C60.452,289.485 60.467,289.53 60.467,289.602 C60.467,289.698 60.446,289.797 60.404,289.899 C60.362,290.001 60.305,290.136 60.233,290.304 L60.233,290.304 L57.551,296.154 C57.503,296.25 57.434,296.355 57.344,296.469 C57.254,296.583 57.137,296.652 56.993,296.676 L56.993,296.676 L56.993,297 L59.405,297 Z M63.005,293.688 L60.269,293.688 L61.547,290.664 L63.005,293.688 Z M75.983,297.18 L75.983,295.29 L75.659,295.29 C75.659,295.41 75.611,295.503 75.515,295.569 C75.419,295.635 75.299,295.668 75.155,295.668 L75.155,295.668 L70.295,295.668 L70.295,289.674 C70.295,289.494 70.433,289.404 70.709,289.404 L70.709,289.404 L70.709,289.08 L68.099,289.08 L68.099,289.404 C68.411,289.404 68.567,289.494 68.567,289.674 L68.567,289.674 L68.567,296.406 C68.567,296.586 68.411,296.676 68.099,296.676 L68.099,296.676 L68.099,297 L75.155,297 C75.299,297 75.419,297.006 75.515,297.018 C75.611,297.03 75.659,297.084 75.659,297.18 L75.659,297.18 L75.983,297.18 Z M85.991,297.18 L85.991,295.29 L85.667,295.29 C85.667,295.41 85.619,295.503 85.523,295.569 C85.427,295.635 85.307,295.668 85.163,295.668 L85.163,295.668 L80.303,295.668 L80.303,289.674 C80.303,289.494 80.441,289.404 80.717,289.404 L80.717,289.404 L80.717,289.08 L78.107,289.08 L78.107,289.404 C78.419,289.404 78.575,289.494 78.575,289.674 L78.575,289.674 L78.575,296.406 C78.575,296.586 78.419,296.676 78.107,296.676 L78.107,296.676 L78.107,297 L85.163,297 C85.307,297 85.427,297.006 85.523,297.018 C85.619,297.03 85.667,297.084 85.667,297.18 L85.667,297.18 L85.991,297.18 Z M95.657,297.198 L95.657,295.308 L95.333,295.308 C95.333,295.416 95.285,295.503 95.189,295.569 C95.093,295.635 94.973,295.668 94.829,295.668 L94.829,295.668 L90.221,295.668 L90.221,293.544 L92.849,293.544 C93.089,293.544 93.275,293.559 93.407,293.589 C93.539,293.619 93.587,293.7 93.551,293.832 L93.551,293.832 L93.911,293.832 L93.911,291.924 L93.587,291.924 C93.587,292.056 93.539,292.137 93.443,292.167 C93.347,292.197 93.197,292.212 92.993,292.212 L92.993,292.212 L90.221,292.212 L90.221,290.412 L94.613,290.412 C94.985,290.412 95.171,290.526 95.171,290.754 L95.171,290.754 L95.495,290.754 L95.495,288.756 L95.171,288.756 C95.171,288.972 94.985,289.08 94.613,289.08 L94.613,289.08 L88.223,289.08 L88.223,289.404 C88.283,289.404 88.343,289.425 88.403,289.467 C88.463,289.509 88.493,289.578 88.493,289.674 L88.493,289.674 L88.493,296.406 C88.493,296.502 88.463,296.571 88.403,296.613 C88.343,296.655 88.283,296.676 88.223,296.676 L88.223,296.676 L88.223,297 L94.829,297 C94.973,297 95.093,297.006 95.189,297.018 C95.285,297.03 95.333,297.09 95.333,297.198 L95.333,297.198 L95.657,297.198 Z M100.553,297 L100.553,296.676 C100.481,296.676 100.406,296.655 100.328,296.613 C100.25,296.571 100.211,296.502 100.211,296.406 L100.211,296.406 L100.211,293.832 L102.713,293.832 L104.135,295.956 C104.315,296.208 104.405,296.394 104.405,296.514 C104.405,296.622 104.327,296.676 104.171,296.676 L104.171,296.676 L104.171,297 L106.925,297 L106.925,296.676 C106.793,296.64 106.67,296.589 106.556,296.523 C106.442,296.457 106.337,296.358 106.241,296.226 L106.241,296.226 L104.477,293.652 C104.729,293.592 104.975,293.505 105.215,293.391 C105.455,293.277 105.674,293.127 105.872,292.941 C106.07,292.755 106.229,292.536 106.349,292.284 C106.469,292.032 106.529,291.744 106.529,291.42 C106.529,290.568 106.229,289.965 105.629,289.611 C105.029,289.257 104.195,289.08 103.127,289.08 L103.127,289.08 L98.159,289.08 L98.159,289.404 C98.375,289.404 98.483,289.494 98.483,289.674 L98.483,289.674 L98.483,296.406 C98.483,296.586 98.375,296.676 98.159,296.676 L98.159,296.676 L98.159,297 L100.553,297 Z M103.091,292.5 L100.247,292.5 L100.247,290.412 L103.091,290.412 C103.703,290.412 104.15,290.499 104.432,290.673 C104.714,290.847 104.855,291.084 104.855,291.384 C104.855,292.128 104.267,292.5 103.091,292.5 L103.091,292.5 Z M113.441,297.054 C114.017,297.054 114.539,297.015 115.007,296.937 C115.475,296.859 115.886,296.76 116.24,296.64 C116.594,296.52 116.888,296.397 117.122,296.271 C117.356,296.145 117.527,296.046 117.635,295.974 L117.635,295.974 L117.635,295.758 C117.515,295.71 117.44,295.665 117.41,295.623 C117.38,295.581 117.365,295.506 117.365,295.398 L117.365,295.398 L117.365,293.688 C117.365,293.568 117.383,293.478 117.419,293.418 C117.455,293.358 117.527,293.304 117.635,293.256 L117.635,293.256 L117.635,292.932 L114.107,292.932 C113.975,292.932 113.861,292.914 113.765,292.878 C113.669,292.842 113.609,292.764 113.585,292.644 L113.585,292.644 L113.261,292.644 L113.261,294.498 L113.585,294.498 C113.609,294.354 113.669,294.255 113.765,294.201 C113.861,294.147 113.975,294.12 114.107,294.12 L114.107,294.12 L115.961,294.12 L115.961,295.254 C115.577,295.458 115.154,295.596 114.692,295.668 C114.23,295.74 113.741,295.776 113.225,295.776 C112.877,295.776 112.517,295.728 112.145,295.632 C111.773,295.536 111.434,295.383 111.128,295.173 C110.822,294.963 110.573,294.687 110.381,294.345 C110.189,294.003 110.093,293.58 110.093,293.076 C110.093,292.572 110.183,292.146 110.363,291.798 C110.543,291.45 110.783,291.165 111.083,290.943 C111.383,290.721 111.731,290.559 112.127,290.457 C112.523,290.355 112.943,290.304 113.387,290.304 C113.711,290.304 114.032,290.337 114.35,290.403 C114.668,290.469 114.953,290.556 115.205,290.664 C115.457,290.772 115.661,290.889 115.817,291.015 C115.973,291.141 116.051,291.258 116.051,291.366 C116.051,291.378 116.039,291.444 116.015,291.564 L116.015,291.564 L116.231,291.69 L117.275,289.728 L117.059,289.62 C116.987,289.68 116.927,289.719 116.879,289.737 C116.831,289.755 116.759,289.764 116.663,289.764 C116.579,289.764 116.453,289.722 116.285,289.638 C116.117,289.554 115.895,289.464 115.619,289.368 C115.355,289.272 115.043,289.182 114.683,289.098 C114.323,289.014 113.909,288.972 113.441,288.972 C112.661,288.972 111.956,289.065 111.326,289.251 C110.696,289.437 110.162,289.707 109.724,290.061 C109.286,290.415 108.95,290.841 108.716,291.339 C108.482,291.837 108.365,292.404 108.365,293.04 C108.365,293.676 108.482,294.243 108.716,294.741 C108.95,295.239 109.286,295.662 109.724,296.01 C110.162,296.358 110.696,296.619 111.326,296.793 C111.956,296.967 112.661,297.054 113.441,297.054 Z M124.961,297 L124.961,296.676 C124.733,296.676 124.619,296.586 124.619,296.406 L124.619,296.406 L124.619,293.706 L127.373,290.142 C127.505,289.974 127.658,289.809 127.832,289.647 C128.006,289.485 128.165,289.404 128.309,289.404 L128.309,289.404 L128.309,289.08 L125.555,289.08 L125.555,289.404 C125.615,289.404 125.675,289.416 125.735,289.44 C125.795,289.464 125.825,289.524 125.825,289.62 C125.825,289.692 125.798,289.767 125.744,289.845 C125.69,289.923 125.609,290.04 125.501,290.196 L125.501,290.196 L123.899,292.428 L122.081,290.052 C122.021,289.968 121.967,289.896 121.919,289.836 C121.871,289.776 121.847,289.71 121.847,289.638 C121.847,289.566 121.883,289.509 121.955,289.467 C122.027,289.425 122.093,289.404 122.153,289.404 L122.153,289.404 L122.153,289.08 L119.183,289.08 L119.183,289.404 C119.291,289.404 119.405,289.428 119.525,289.476 C119.645,289.524 119.747,289.602 119.831,289.71 L119.831,289.71 L122.891,293.634 L122.891,296.406 C122.891,296.586 122.783,296.676 122.567,296.676 L122.567,296.676 L122.567,297 L124.961,297 Z M139.109,297.054 C139.517,297.054 139.952,297.024 140.414,296.964 C140.876,296.904 141.299,296.778 141.683,296.586 C142.067,296.394 142.388,296.13 142.646,295.794 C142.904,295.458 143.033,295.026 143.033,294.498 C143.033,293.97 142.886,293.556 142.592,293.256 C142.298,292.956 141.929,292.728 141.485,292.572 C141.041,292.416 140.561,292.305 140.045,292.239 C139.529,292.173 139.049,292.107 138.605,292.041 C138.161,291.975 137.792,291.885 137.498,291.771 C137.204,291.657 137.057,291.468 137.057,291.204 C137.057,291.036 137.105,290.895 137.201,290.781 C137.297,290.667 137.429,290.574 137.597,290.502 C137.765,290.43 137.957,290.379 138.173,290.349 C138.389,290.319 138.617,290.304 138.857,290.304 C139.481,290.304 140.045,290.376 140.549,290.52 C141.053,290.664 141.425,290.838 141.665,291.042 C141.761,291.114 141.815,291.186 141.827,291.258 C141.839,291.33 141.851,291.402 141.863,291.474 L141.863,291.474 L142.187,291.582 L143.087,289.89 L142.889,289.692 C142.817,289.728 142.757,289.761 142.709,289.791 C142.661,289.821 142.589,289.836 142.493,289.836 C142.409,289.836 142.28,289.791 142.106,289.701 C141.932,289.611 141.707,289.512 141.431,289.404 C141.155,289.296 140.816,289.197 140.414,289.107 C140.012,289.017 139.529,288.972 138.965,288.972 C137.813,288.972 136.919,289.2 136.283,289.656 C135.647,290.112 135.329,290.724 135.329,291.492 C135.329,292.008 135.476,292.407 135.77,292.689 C136.064,292.971 136.433,293.187 136.877,293.337 C137.321,293.487 137.801,293.595 138.317,293.661 C138.833,293.727 139.313,293.793 139.757,293.859 C140.201,293.925 140.57,294.018 140.864,294.138 C141.158,294.258 141.305,294.45 141.305,294.714 C141.305,294.942 141.221,295.125 141.053,295.263 C140.885,295.401 140.681,295.509 140.441,295.587 C140.201,295.665 139.958,295.716 139.712,295.74 C139.466,295.764 139.259,295.776 139.091,295.776 C138.911,295.776 138.662,295.746 138.344,295.686 C138.026,295.626 137.708,295.545 137.39,295.443 C137.072,295.341 136.799,295.215 136.571,295.065 C136.343,294.915 136.229,294.75 136.229,294.57 C136.229,294.51 136.232,294.453 136.238,294.399 C136.244,294.345 136.247,294.294 136.247,294.246 L136.247,294.246 L135.905,294.156 L135.077,296.172 L135.329,296.352 C135.389,296.28 135.461,296.244 135.545,296.244 C135.593,296.244 135.731,296.289 135.959,296.379 C136.187,296.469 136.466,296.565 136.796,296.667 C137.126,296.769 137.492,296.859 137.894,296.937 C138.296,297.015 138.701,297.054 139.109,297.054 Z M153.167,297.198 L153.167,295.308 L152.843,295.308 C152.843,295.416 152.795,295.503 152.699,295.569 C152.603,295.635 152.483,295.668 152.339,295.668 L152.339,295.668 L147.731,295.668 L147.731,293.544 L150.359,293.544 C150.599,293.544 150.785,293.559 150.917,293.589 C151.049,293.619 151.097,293.7 151.061,293.832 L151.061,293.832 L151.421,293.832 L151.421,291.924 L151.097,291.924 C151.097,292.056 151.049,292.137 150.953,292.167 C150.857,292.197 150.707,292.212 150.503,292.212 L150.503,292.212 L147.731,292.212 L147.731,290.412 L152.123,290.412 C152.495,290.412 152.681,290.526 152.681,290.754 L152.681,290.754 L153.005,290.754 L153.005,288.756 L152.681,288.756 C152.681,288.972 152.495,289.08 152.123,289.08 L152.123,289.08 L145.733,289.08 L145.733,289.404 C145.793,289.404 145.853,289.425 145.913,289.467 C145.973,289.509 146.003,289.578 146.003,289.674 L146.003,289.674 L146.003,296.406 C146.003,296.502 145.973,296.571 145.913,296.613 C145.853,296.655 145.793,296.676 145.733,296.676 L145.733,296.676 L145.733,297 L152.339,297 C152.483,297 152.603,297.006 152.699,297.018 C152.795,297.03 152.843,297.09 152.843,297.198 L152.843,297.198 L153.167,297.198 Z M156.947,297 L156.947,296.676 C156.839,296.676 156.755,296.664 156.695,296.64 C156.635,296.616 156.605,296.556 156.605,296.46 C156.605,296.4 156.62,296.331 156.65,296.253 C156.68,296.175 156.719,296.088 156.767,295.992 L156.767,295.992 L157.271,295.02 L161.123,295.02 L161.609,296.046 C161.645,296.142 161.675,296.22 161.699,296.28 C161.723,296.34 161.735,296.406 161.735,296.478 C161.735,296.574 161.702,296.64 161.636,296.676 C161.57,296.712 161.507,296.73 161.447,296.73 L161.447,296.73 L161.447,297 L164.003,297 L164.003,296.676 C163.919,296.652 163.841,296.616 163.769,296.568 C163.697,296.52 163.631,296.442 163.571,296.334 L163.571,296.334 L160.655,290.214 C160.595,290.082 160.538,289.965 160.484,289.863 C160.43,289.761 160.403,289.674 160.403,289.602 C160.403,289.518 160.424,289.47 160.466,289.458 C160.508,289.446 160.547,289.428 160.583,289.404 L160.583,289.404 L160.583,289.08 L157.865,289.08 L157.865,289.404 C157.901,289.428 157.934,289.449 157.964,289.467 C157.994,289.485 158.009,289.53 158.009,289.602 C158.009,289.698 157.988,289.797 157.946,289.899 C157.904,290.001 157.847,290.136 157.775,290.304 L157.775,290.304 L155.093,296.154 C155.045,296.25 154.976,296.355 154.886,296.469 C154.796,296.583 154.679,296.652 154.535,296.676 L154.535,296.676 L154.535,297 L156.947,297 Z M160.547,293.688 L157.811,293.688 L159.089,290.664 L160.547,293.688 Z M169.133,297.054 C169.541,297.054 169.976,297.024 170.438,296.964 C170.9,296.904 171.323,296.778 171.707,296.586 C172.091,296.394 172.412,296.13 172.67,295.794 C172.928,295.458 173.057,295.026 173.057,294.498 C173.057,293.97 172.91,293.556 172.616,293.256 C172.322,292.956 171.953,292.728 171.509,292.572 C171.065,292.416 170.585,292.305 170.069,292.239 C169.553,292.173 169.073,292.107 168.629,292.041 C168.185,291.975 167.816,291.885 167.522,291.771 C167.228,291.657 167.081,291.468 167.081,291.204 C167.081,291.036 167.129,290.895 167.225,290.781 C167.321,290.667 167.453,290.574 167.621,290.502 C167.789,290.43 167.981,290.379 168.197,290.349 C168.413,290.319 168.641,290.304 168.881,290.304 C169.505,290.304 170.069,290.376 170.573,290.52 C171.077,290.664 171.449,290.838 171.689,291.042 C171.785,291.114 171.839,291.186 171.851,291.258 C171.863,291.33 171.875,291.402 171.887,291.474 L171.887,291.474 L172.211,291.582 L173.111,289.89 L172.913,289.692 C172.841,289.728 172.781,289.761 172.733,289.791 C172.685,289.821 172.613,289.836 172.517,289.836 C172.433,289.836 172.304,289.791 172.13,289.701 C171.956,289.611 171.731,289.512 171.455,289.404 C171.179,289.296 170.84,289.197 170.438,289.107 C170.036,289.017 169.553,288.972 168.989,288.972 C167.837,288.972 166.943,289.2 166.307,289.656 C165.671,290.112 165.353,290.724 165.353,291.492 C165.353,292.008 165.5,292.407 165.794,292.689 C166.088,292.971 166.457,293.187 166.901,293.337 C167.345,293.487 167.825,293.595 168.341,293.661 C168.857,293.727 169.337,293.793 169.781,293.859 C170.225,293.925 170.594,294.018 170.888,294.138 C171.182,294.258 171.329,294.45 171.329,294.714 C171.329,294.942 171.245,295.125 171.077,295.263 C170.909,295.401 170.705,295.509 170.465,295.587 C170.225,295.665 169.982,295.716 169.736,295.74 C169.49,295.764 169.283,295.776 169.115,295.776 C168.935,295.776 168.686,295.746 168.368,295.686 C168.05,295.626 167.732,295.545 167.414,295.443 C167.096,295.341 166.823,295.215 166.595,295.065 C166.367,294.915 166.253,294.75 166.253,294.57 C166.253,294.51 166.256,294.453 166.262,294.399 C166.268,294.345 166.271,294.294 166.271,294.246 L166.271,294.246 L165.929,294.156 L165.101,296.172 L165.353,296.352 C165.413,296.28 165.485,296.244 165.569,296.244 C165.617,296.244 165.755,296.289 165.983,296.379 C166.211,296.469 166.49,296.565 166.82,296.667 C167.15,296.769 167.516,296.859 167.918,296.937 C168.32,297.015 168.725,297.054 169.133,297.054 Z M179.771,297.054 C180.431,297.054 181.052,296.979 181.634,296.829 C182.216,296.679 182.723,296.436 183.155,296.1 C183.587,295.764 183.929,295.341 184.181,294.831 C184.433,294.321 184.559,293.724 184.559,293.04 C184.559,292.356 184.433,291.759 184.181,291.249 C183.929,290.739 183.587,290.316 183.155,289.98 C182.723,289.644 182.216,289.392 181.634,289.224 C181.052,289.056 180.431,288.972 179.771,288.972 C179.111,288.972 178.49,289.056 177.908,289.224 C177.326,289.392 176.819,289.644 176.387,289.98 C175.955,290.316 175.613,290.739 175.361,291.249 C175.109,291.759 174.983,292.356 174.983,293.04 C174.983,293.724 175.109,294.321 175.361,294.831 C175.613,295.341 175.955,295.764 176.387,296.1 C176.819,296.436 177.326,296.679 177.908,296.829 C178.49,296.979 179.111,297.054 179.771,297.054 Z M179.771,295.776 C179.387,295.776 179.012,295.713 178.646,295.587 C178.28,295.461 177.953,295.281 177.665,295.047 C177.377,294.813 177.146,294.528 176.972,294.192 C176.798,293.856 176.711,293.472 176.711,293.04 C176.711,292.608 176.798,292.224 176.972,291.888 C177.146,291.552 177.377,291.267 177.665,291.033 C177.953,290.799 178.28,290.619 178.646,290.493 C179.012,290.367 179.387,290.304 179.771,290.304 C180.155,290.304 180.53,290.367 180.896,290.493 C181.262,290.619 181.589,290.799 181.877,291.033 C182.165,291.267 182.396,291.552 182.57,291.888 C182.744,292.224 182.831,292.608 182.831,293.04 C182.831,293.472 182.744,293.856 182.57,294.192 C182.396,294.528 182.165,294.813 181.877,295.047 C181.589,295.281 181.262,295.461 180.896,295.587 C180.53,295.713 180.155,295.776 179.771,295.776 Z M188.951,297 L188.951,296.676 C188.699,296.676 188.573,296.586 188.573,296.406 L188.573,296.406 L188.573,291.168 L193.037,295.92 C193.181,296.076 193.31,296.214 193.424,296.334 C193.538,296.454 193.595,296.538 193.595,296.586 C193.595,296.646 193.553,296.676 193.469,296.676 L193.469,296.676 L193.469,297 L195.809,297 L195.809,296.676 C195.593,296.676 195.485,296.586 195.485,296.406 L195.485,296.406 L195.485,289.674 C195.485,289.494 195.593,289.404 195.809,289.404 L195.809,289.404 L195.809,289.08 L193.613,289.08 L193.613,289.404 C193.853,289.404 193.973,289.494 193.973,289.674 L193.973,289.674 L193.973,294.552 L189.653,289.98 C189.389,289.716 189.257,289.554 189.257,289.494 C189.257,289.446 189.299,289.416 189.383,289.404 L189.383,289.404 L189.383,289.08 L186.737,289.08 L186.737,289.404 C186.953,289.404 187.061,289.494 187.061,289.674 L187.061,289.674 L187.061,296.406 C187.061,296.586 186.953,296.676 186.737,296.676 L186.737,296.676 L186.737,297 L188.951,297 Z M202.469,293.724 L202.469,293.508 C202.361,293.508 202.283,293.463 202.235,293.373 C202.187,293.283 202.163,293.172 202.163,293.04 C202.163,292.764 202.271,292.506 202.487,292.266 C202.703,292.026 202.937,291.768 203.189,291.492 C203.453,291.216 203.69,290.913 203.9,290.583 C204.11,290.253 204.215,289.866 204.215,289.422 C204.215,289.062 204.14,288.741 203.99,288.459 C203.84,288.177 203.639,287.943 203.387,287.757 C203.135,287.571 202.85,287.427 202.532,287.325 C202.214,287.223 201.893,287.172 201.569,287.172 C201.065,287.172 200.657,287.232 200.345,287.352 C200.033,287.472 199.775,287.601 199.571,287.739 C199.367,287.877 199.202,288.006 199.076,288.126 C198.95,288.246 198.827,288.306 198.707,288.306 C198.695,288.306 198.629,288.294 198.509,288.27 L198.509,288.27 L198.347,288.432 L199.733,289.944 L199.895,289.818 C199.859,289.71 199.841,289.602 199.841,289.494 C199.841,289.422 199.874,289.329 199.94,289.215 C200.006,289.101 200.102,288.996 200.228,288.9 C200.354,288.804 200.51,288.72 200.696,288.648 C200.882,288.576 201.089,288.54 201.317,288.54 C201.629,288.54 201.89,288.633 202.1,288.819 C202.31,289.005 202.415,289.26 202.415,289.584 C202.415,289.86 202.337,290.103 202.181,290.313 C202.025,290.523 201.845,290.748 201.641,290.988 C201.449,291.216 201.266,291.48 201.092,291.78 C200.918,292.08 200.807,292.482 200.759,292.986 C200.735,293.19 200.696,293.328 200.642,293.4 C200.588,293.472 200.525,293.508 200.453,293.508 L200.453,293.508 L200.453,293.724 L202.469,293.724 Z M201.443,297.054 C201.755,297.054 202.025,296.949 202.253,296.739 C202.481,296.529 202.595,296.268 202.595,295.956 C202.595,295.644 202.481,295.374 202.253,295.146 C202.025,294.918 201.755,294.804 201.443,294.804 C201.131,294.804 200.861,294.918 200.633,295.146 C200.405,295.374 200.291,295.644 200.291,295.956 C200.291,296.268 200.405,296.529 200.633,296.739 C200.861,296.949 201.131,297.054 201.443,297.054 Z M58.19,315 L58.19,314.676 C57.962,314.676 57.848,314.61 57.848,314.478 C57.848,314.37 57.908,314.19 58.028,313.938 L58.028,313.938 L58.676,312.66 L63.068,312.66 L63.752,313.992 C63.848,314.184 63.896,314.34 63.896,314.46 C63.896,314.532 63.86,314.586 63.788,314.622 C63.716,314.658 63.656,314.676 63.608,314.676 L63.608,314.676 L63.608,315 L66.776,315 L66.776,314.676 C66.644,314.616 66.527,314.556 66.425,314.496 C66.323,314.436 66.242,314.34 66.182,314.208 L66.182,314.208 L62.438,306.882 C62.354,306.726 62.291,306.6 62.249,306.504 C62.207,306.408 62.186,306.312 62.186,306.216 C62.186,306.084 62.228,305.997 62.312,305.955 C62.396,305.913 62.48,305.88 62.564,305.856 L62.564,305.856 L62.564,305.532 L59.522,305.532 L59.522,305.856 C59.618,305.88 59.708,305.916 59.792,305.964 C59.876,306.012 59.918,306.096 59.918,306.216 C59.918,306.312 59.885,306.426 59.819,306.558 C59.753,306.69 59.678,306.834 59.594,306.99 L59.594,306.99 L56.264,313.992 C56.18,314.16 56.093,314.31 56.003,314.442 C55.913,314.574 55.79,314.652 55.634,314.676 L55.634,314.676 L55.634,315 L58.19,315 Z M62.42,311.328 L59.216,311.328 L60.908,307.98 L62.42,311.328 Z M73.544,315 C74.252,315 74.852,314.886 75.344,314.658 C75.836,314.43 76.238,314.133 76.55,313.767 C76.862,313.401 77.09,312.981 77.234,312.507 C77.378,312.033 77.45,311.544 77.45,311.04 C77.45,310.536 77.375,310.047 77.225,309.573 C77.075,309.099 76.841,308.679 76.523,308.313 C76.205,307.947 75.794,307.65 75.29,307.422 C74.786,307.194 74.18,307.08 73.472,307.08 L73.472,307.08 L68.468,307.08 L68.468,307.404 C68.744,307.404 68.882,307.494 68.882,307.674 L68.882,307.674 L68.882,314.406 C68.882,314.586 68.744,314.676 68.468,314.676 L68.468,314.676 L68.468,315 L73.544,315 Z M72.95,313.668 L70.61,313.668 L70.61,308.412 L72.95,308.412 C73.322,308.412 73.676,308.433 74.012,308.475 C74.348,308.517 74.642,308.625 74.894,308.799 C75.146,308.973 75.347,309.231 75.497,309.573 C75.647,309.915 75.722,310.386 75.722,310.986 C75.722,311.586 75.647,312.063 75.497,312.417 C75.347,312.771 75.146,313.041 74.894,313.227 C74.642,313.413 74.348,313.533 74.012,313.587 C73.676,313.641 73.322,313.668 72.95,313.668 L72.95,313.668 Z M84.542,315 C85.25,315 85.85,314.886 86.342,314.658 C86.834,314.43 87.236,314.133 87.548,313.767 C87.86,313.401 88.088,312.981 88.232,312.507 C88.376,312.033 88.448,311.544 88.448,311.04 C88.448,310.536 88.373,310.047 88.223,309.573 C88.073,309.099 87.839,308.679 87.521,308.313 C87.203,307.947 86.792,307.65 86.288,307.422 C85.784,307.194 85.178,307.08 84.47,307.08 L84.47,307.08 L79.466,307.08 L79.466,307.404 C79.742,307.404 79.88,307.494 79.88,307.674 L79.88,307.674 L79.88,314.406 C79.88,314.586 79.742,314.676 79.466,314.676 L79.466,314.676 L79.466,315 L84.542,315 Z M83.948,313.668 L81.608,313.668 L81.608,308.412 L83.948,308.412 C84.32,308.412 84.674,308.433 85.01,308.475 C85.346,308.517 85.64,308.625 85.892,308.799 C86.144,308.973 86.345,309.231 86.495,309.573 C86.645,309.915 86.72,310.386 86.72,310.986 C86.72,311.586 86.645,312.063 86.495,312.417 C86.345,312.771 86.144,313.041 85.892,313.227 C85.64,313.413 85.346,313.533 85.01,313.587 C84.674,313.641 84.32,313.668 83.948,313.668 L83.948,313.668 Z M100.436,315 L100.436,314.676 C100.22,314.676 100.112,314.586 100.112,314.406 L100.112,314.406 L100.112,308.412 L102.452,308.412 C102.548,308.412 102.638,308.436 102.722,308.484 C102.806,308.532 102.848,308.61 102.848,308.718 L102.848,308.718 L103.172,308.718 L103.172,306.648 L102.848,306.648 C102.848,306.816 102.806,306.93 102.722,306.99 C102.638,307.05 102.548,307.08 102.452,307.08 L102.452,307.08 L96.044,307.08 C95.948,307.08 95.858,307.05 95.774,306.99 C95.69,306.93 95.648,306.816 95.648,306.648 L95.648,306.648 L95.324,306.648 L95.324,308.718 L95.648,308.718 C95.648,308.61 95.69,308.532 95.774,308.484 C95.858,308.436 95.948,308.412 96.044,308.412 L96.044,308.412 L98.384,308.412 L98.384,314.406 C98.384,314.502 98.354,314.571 98.294,314.613 C98.234,314.655 98.174,314.676 98.114,314.676 L98.114,314.676 L98.114,315 L100.436,315 Z M107.6,315 L107.6,314.676 C107.528,314.676 107.465,314.655 107.411,314.613 C107.357,314.571 107.33,314.502 107.33,314.406 L107.33,314.406 L107.33,311.688 L112.154,311.688 L112.154,314.406 C112.154,314.502 112.127,314.571 112.073,314.613 C112.019,314.655 111.956,314.676 111.884,314.676 L111.884,314.676 L111.884,315 L114.152,315 L114.152,314.676 C114.08,314.676 114.017,314.655 113.963,314.613 C113.909,314.571 113.882,314.502 113.882,314.406 L113.882,314.406 L113.882,307.674 C113.882,307.578 113.909,307.509 113.963,307.467 C114.017,307.425 114.08,307.404 114.152,307.404 L114.152,307.404 L114.152,307.08 L111.884,307.08 L111.884,307.404 C111.956,307.404 112.019,307.425 112.073,307.467 C112.127,307.509 112.154,307.578 112.154,307.674 L112.154,307.674 L112.154,310.212 L107.33,310.212 L107.33,307.674 C107.33,307.578 107.357,307.509 107.411,307.467 C107.465,307.425 107.528,307.404 107.6,307.404 L107.6,307.404 L107.6,307.08 L105.332,307.08 L105.332,307.404 C105.404,307.404 105.467,307.425 105.521,307.467 C105.575,307.509 105.602,307.578 105.602,307.674 L105.602,307.674 L105.602,314.406 C105.602,314.502 105.575,314.571 105.521,314.613 C105.467,314.655 105.404,314.676 105.332,314.676 L105.332,314.676 L105.332,315 L107.6,315 Z M120.11,315 L120.11,314.676 C119.774,314.676 119.606,314.586 119.606,314.406 L119.606,314.406 L119.606,307.674 C119.606,307.494 119.774,307.404 120.11,307.404 L120.11,307.404 L120.11,307.08 L117.374,307.08 L117.374,307.404 C117.566,307.404 117.698,307.425 117.77,307.467 C117.842,307.509 117.878,307.578 117.878,307.674 L117.878,307.674 L117.878,314.406 C117.878,314.502 117.842,314.571 117.77,314.613 C117.698,314.655 117.566,314.676 117.374,314.676 L117.374,314.676 L117.374,315 L120.11,315 Z M126.608,315.054 C127.016,315.054 127.451,315.024 127.913,314.964 C128.375,314.904 128.798,314.778 129.182,314.586 C129.566,314.394 129.887,314.13 130.145,313.794 C130.403,313.458 130.532,313.026 130.532,312.498 C130.532,311.97 130.385,311.556 130.091,311.256 C129.797,310.956 129.428,310.728 128.984,310.572 C128.54,310.416 128.06,310.305 127.544,310.239 C127.028,310.173 126.548,310.107 126.104,310.041 C125.66,309.975 125.291,309.885 124.997,309.771 C124.703,309.657 124.556,309.468 124.556,309.204 C124.556,309.036 124.604,308.895 124.7,308.781 C124.796,308.667 124.928,308.574 125.096,308.502 C125.264,308.43 125.456,308.379 125.672,308.349 C125.888,308.319 126.116,308.304 126.356,308.304 C126.98,308.304 127.544,308.376 128.048,308.52 C128.552,308.664 128.924,308.838 129.164,309.042 C129.26,309.114 129.314,309.186 129.326,309.258 L129.326,309.258 L129.362,309.474 L129.686,309.582 L130.586,307.89 L130.388,307.692 C130.316,307.728 130.256,307.761 130.208,307.791 C130.16,307.821 130.088,307.836 129.992,307.836 C129.908,307.836 129.779,307.791 129.605,307.701 C129.431,307.611 129.206,307.512 128.93,307.404 C128.654,307.296 128.315,307.197 127.913,307.107 C127.511,307.017 127.028,306.972 126.464,306.972 C125.312,306.972 124.418,307.2 123.782,307.656 C123.146,308.112 122.828,308.724 122.828,309.492 C122.828,310.008 122.975,310.407 123.269,310.689 C123.563,310.971 123.932,311.187 124.376,311.337 C124.82,311.487 125.3,311.595 125.816,311.661 C126.332,311.727 126.812,311.793 127.256,311.859 C127.7,311.925 128.069,312.018 128.363,312.138 C128.657,312.258 128.804,312.45 128.804,312.714 C128.804,312.942 128.72,313.125 128.552,313.263 C128.384,313.401 128.18,313.509 127.94,313.587 C127.7,313.665 127.457,313.716 127.211,313.74 C126.965,313.764 126.758,313.776 126.59,313.776 C126.41,313.776 126.161,313.746 125.843,313.686 C125.525,313.626 125.207,313.545 124.889,313.443 C124.571,313.341 124.298,313.215 124.07,313.065 C123.842,312.915 123.728,312.75 123.728,312.57 C123.728,312.51 123.731,312.453 123.737,312.399 C123.743,312.345 123.746,312.294 123.746,312.246 L123.746,312.246 L123.404,312.156 L122.576,314.172 L122.828,314.352 C122.888,314.28 122.96,314.244 123.044,314.244 C123.092,314.244 123.23,314.289 123.458,314.379 C123.686,314.469 123.965,314.565 124.295,314.667 C124.625,314.769 124.991,314.859 125.393,314.937 C125.795,315.015 126.2,315.054 126.608,315.054 Z M142.934,315 L142.934,314.676 C142.718,314.676 142.61,314.586 142.61,314.406 L142.61,314.406 L142.61,308.412 L144.95,308.412 C145.046,308.412 145.136,308.436 145.22,308.484 C145.304,308.532 145.346,308.61 145.346,308.718 L145.346,308.718 L145.67,308.718 L145.67,306.648 L145.346,306.648 C145.346,306.816 145.304,306.93 145.22,306.99 C145.136,307.05 145.046,307.08 144.95,307.08 L144.95,307.08 L138.542,307.08 C138.446,307.08 138.356,307.05 138.272,306.99 C138.188,306.93 138.146,306.816 138.146,306.648 L138.146,306.648 L137.822,306.648 L137.822,308.718 L138.146,308.718 C138.146,308.61 138.188,308.532 138.272,308.484 C138.356,308.436 138.446,308.412 138.542,308.412 L138.542,308.412 L140.882,308.412 L140.882,314.406 C140.882,314.502 140.852,314.571 140.792,314.613 C140.732,314.655 140.672,314.676 140.612,314.676 L140.612,314.676 L140.612,315 L142.934,315 Z M151.736,315.054 C152.396,315.054 153.017,314.979 153.599,314.829 C154.181,314.679 154.688,314.436 155.12,314.1 C155.552,313.764 155.894,313.341 156.146,312.831 C156.398,312.321 156.524,311.724 156.524,311.04 C156.524,310.356 156.398,309.759 156.146,309.249 C155.894,308.739 155.552,308.316 155.12,307.98 C154.688,307.644 154.181,307.392 153.599,307.224 C153.017,307.056 152.396,306.972 151.736,306.972 C151.076,306.972 150.455,307.056 149.873,307.224 C149.291,307.392 148.784,307.644 148.352,307.98 C147.92,308.316 147.578,308.739 147.326,309.249 C147.074,309.759 146.948,310.356 146.948,311.04 C146.948,311.724 147.074,312.321 147.326,312.831 C147.578,313.341 147.92,313.764 148.352,314.1 C148.784,314.436 149.291,314.679 149.873,314.829 C150.455,314.979 151.076,315.054 151.736,315.054 Z M151.736,313.776 C151.352,313.776 150.977,313.713 150.611,313.587 C150.245,313.461 149.918,313.281 149.63,313.047 C149.342,312.813 149.111,312.528 148.937,312.192 C148.763,311.856 148.676,311.472 148.676,311.04 C148.676,310.608 148.763,310.224 148.937,309.888 C149.111,309.552 149.342,309.267 149.63,309.033 C149.918,308.799 150.245,308.619 150.611,308.493 C150.977,308.367 151.352,308.304 151.736,308.304 C152.12,308.304 152.495,308.367 152.861,308.493 C153.227,308.619 153.554,308.799 153.842,309.033 C154.13,309.267 154.361,309.552 154.535,309.888 C154.709,310.224 154.796,310.608 154.796,311.04 C154.796,311.472 154.709,311.856 154.535,312.192 C154.361,312.528 154.13,312.813 153.842,313.047 C153.554,313.281 153.227,313.461 152.861,313.587 C152.495,313.713 152.12,313.776 151.736,313.776 Z M168.944,315 L168.944,314.676 C168.716,314.676 168.602,314.586 168.602,314.406 L168.602,314.406 L168.602,311.706 L171.356,308.142 C171.488,307.974 171.641,307.809 171.815,307.647 C171.989,307.485 172.148,307.404 172.292,307.404 L172.292,307.404 L172.292,307.08 L169.538,307.08 L169.538,307.404 C169.598,307.404 169.658,307.416 169.718,307.44 C169.778,307.464 169.808,307.524 169.808,307.62 C169.808,307.692 169.781,307.767 169.727,307.845 C169.673,307.923 169.592,308.04 169.484,308.196 L169.484,308.196 L167.882,310.428 L166.064,308.052 C166.004,307.968 165.95,307.896 165.902,307.836 C165.854,307.776 165.83,307.71 165.83,307.638 C165.83,307.566 165.866,307.509 165.938,307.467 C166.01,307.425 166.076,307.404 166.136,307.404 L166.136,307.404 L166.136,307.08 L163.166,307.08 L163.166,307.404 C163.274,307.404 163.388,307.428 163.508,307.476 C163.628,307.524 163.73,307.602 163.814,307.71 L163.814,307.71 L166.874,311.634 L166.874,314.406 C166.874,314.586 166.766,314.676 166.55,314.676 L166.55,314.676 L166.55,315 L168.944,315 Z M178.232,315.054 C178.892,315.054 179.513,314.979 180.095,314.829 C180.677,314.679 181.184,314.436 181.616,314.1 C182.048,313.764 182.39,313.341 182.642,312.831 C182.894,312.321 183.02,311.724 183.02,311.04 C183.02,310.356 182.894,309.759 182.642,309.249 C182.39,308.739 182.048,308.316 181.616,307.98 C181.184,307.644 180.677,307.392 180.095,307.224 C179.513,307.056 178.892,306.972 178.232,306.972 C177.572,306.972 176.951,307.056 176.369,307.224 C175.787,307.392 175.28,307.644 174.848,307.98 C174.416,308.316 174.074,308.739 173.822,309.249 C173.57,309.759 173.444,310.356 173.444,311.04 C173.444,311.724 173.57,312.321 173.822,312.831 C174.074,313.341 174.416,313.764 174.848,314.1 C175.28,314.436 175.787,314.679 176.369,314.829 C176.951,314.979 177.572,315.054 178.232,315.054 Z M178.232,313.776 C177.848,313.776 177.473,313.713 177.107,313.587 C176.741,313.461 176.414,313.281 176.126,313.047 C175.838,312.813 175.607,312.528 175.433,312.192 C175.259,311.856 175.172,311.472 175.172,311.04 C175.172,310.608 175.259,310.224 175.433,309.888 C175.607,309.552 175.838,309.267 176.126,309.033 C176.414,308.799 176.741,308.619 177.107,308.493 C177.473,308.367 177.848,308.304 178.232,308.304 C178.616,308.304 178.991,308.367 179.357,308.493 C179.723,308.619 180.05,308.799 180.338,309.033 C180.626,309.267 180.857,309.552 181.031,309.888 C181.205,310.224 181.292,310.608 181.292,311.04 C181.292,311.472 181.205,311.856 181.031,312.192 C180.857,312.528 180.626,312.813 180.338,313.047 C180.05,313.281 179.723,313.461 179.357,313.587 C178.991,313.713 178.616,313.776 178.232,313.776 Z M189.806,315.054 C190.526,315.054 191.153,314.979 191.687,314.829 C192.221,314.679 192.659,314.472 193.001,314.208 C193.343,313.944 193.598,313.641 193.766,313.299 C193.934,312.957 194.018,312.6 194.018,312.228 L194.018,312.228 L194.018,307.674 C194.018,307.494 194.15,307.404 194.414,307.404 L194.414,307.404 L194.414,307.08 L191.912,307.08 L191.912,307.404 C192.212,307.404 192.362,307.494 192.362,307.674 L192.362,307.674 L192.362,311.796 C192.362,312.372 192.152,312.834 191.732,313.182 C191.312,313.53 190.67,313.704 189.806,313.704 C188.942,313.704 188.3,313.53 187.88,313.182 C187.46,312.834 187.25,312.372 187.25,311.796 L187.25,311.796 L187.25,307.674 C187.25,307.494 187.382,307.404 187.646,307.404 L187.646,307.404 L187.646,307.08 L185.072,307.08 L185.072,307.404 C185.276,307.404 185.414,307.425 185.486,307.467 C185.558,307.509 185.594,307.578 185.594,307.674 L185.594,307.674 L185.594,312.228 C185.594,312.6 185.678,312.957 185.846,313.299 C186.014,313.641 186.269,313.944 186.611,314.208 C186.953,314.472 187.391,314.679 187.925,314.829 C188.459,314.979 189.086,315.054 189.806,315.054 Z M199.544,315 L199.544,314.676 C199.472,314.676 199.397,314.655 199.319,314.613 C199.241,314.571 199.202,314.502 199.202,314.406 L199.202,314.406 L199.202,311.832 L201.704,311.832 L203.126,313.956 C203.306,314.208 203.396,314.394 203.396,314.514 C203.396,314.622 203.318,314.676 203.162,314.676 L203.162,314.676 L203.162,315 L205.916,315 L205.916,314.676 C205.784,314.64 205.661,314.589 205.547,314.523 C205.433,314.457 205.328,314.358 205.232,314.226 L205.232,314.226 L203.468,311.652 C203.72,311.592 203.966,311.505 204.206,311.391 C204.446,311.277 204.665,311.127 204.863,310.941 C205.061,310.755 205.22,310.536 205.34,310.284 C205.46,310.032 205.52,309.744 205.52,309.42 C205.52,308.568 205.22,307.965 204.62,307.611 C204.02,307.257 203.186,307.08 202.118,307.08 L202.118,307.08 L197.15,307.08 L197.15,307.404 C197.366,307.404 197.474,307.494 197.474,307.674 L197.474,307.674 L197.474,314.406 C197.474,314.586 197.366,314.676 197.15,314.676 L197.15,314.676 L197.15,315 L199.544,315 Z M202.082,310.5 L199.238,310.5 L199.238,308.412 L202.082,308.412 C202.694,308.412 203.141,308.499 203.423,308.673 C203.705,308.847 203.846,309.084 203.846,309.384 C203.846,310.128 203.258,310.5 202.082,310.5 L202.082,310.5 Z M74.354,333.054 C74.762,333.054 75.197,333.024 75.659,332.964 C76.121,332.904 76.544,332.778 76.928,332.586 C77.312,332.394 77.633,332.13 77.891,331.794 C78.149,331.458 78.278,331.026 78.278,330.498 C78.278,329.97 78.131,329.556 77.837,329.256 C77.543,328.956 77.174,328.728 76.73,328.572 C76.286,328.416 75.806,328.305 75.29,328.239 C74.774,328.173 74.294,328.107 73.85,328.041 C73.406,327.975 73.037,327.885 72.743,327.771 C72.449,327.657 72.302,327.468 72.302,327.204 C72.302,327.036 72.35,326.895 72.446,326.781 C72.542,326.667 72.674,326.574 72.842,326.502 C73.01,326.43 73.202,326.379 73.418,326.349 C73.634,326.319 73.862,326.304 74.102,326.304 C74.726,326.304 75.29,326.376 75.794,326.52 C76.298,326.664 76.67,326.838 76.91,327.042 C77.006,327.114 77.06,327.186 77.072,327.258 L77.072,327.258 L77.108,327.474 L77.432,327.582 L78.332,325.89 L78.134,325.692 C78.062,325.728 78.002,325.761 77.954,325.791 C77.906,325.821 77.834,325.836 77.738,325.836 C77.654,325.836 77.525,325.791 77.351,325.701 C77.177,325.611 76.952,325.512 76.676,325.404 C76.4,325.296 76.061,325.197 75.659,325.107 C75.257,325.017 74.774,324.972 74.21,324.972 C73.058,324.972 72.164,325.2 71.528,325.656 C70.892,326.112 70.574,326.724 70.574,327.492 C70.574,328.008 70.721,328.407 71.015,328.689 C71.309,328.971 71.678,329.187 72.122,329.337 C72.566,329.487 73.046,329.595 73.562,329.661 C74.078,329.727 74.558,329.793 75.002,329.859 C75.446,329.925 75.815,330.018 76.109,330.138 C76.403,330.258 76.55,330.45 76.55,330.714 C76.55,330.942 76.466,331.125 76.298,331.263 C76.13,331.401 75.926,331.509 75.686,331.587 C75.446,331.665 75.203,331.716 74.957,331.74 C74.711,331.764 74.504,331.776 74.336,331.776 C74.156,331.776 73.907,331.746 73.589,331.686 C73.271,331.626 72.953,331.545 72.635,331.443 C72.317,331.341 72.044,331.215 71.816,331.065 C71.588,330.915 71.474,330.75 71.474,330.57 C71.474,330.51 71.477,330.453 71.483,330.399 C71.489,330.345 71.492,330.294 71.492,330.246 L71.492,330.246 L71.15,330.156 L70.322,332.172 L70.574,332.352 C70.634,332.28 70.706,332.244 70.79,332.244 C70.838,332.244 70.976,332.289 71.204,332.379 C71.432,332.469 71.711,332.565 72.041,332.667 C72.371,332.769 72.737,332.859 73.139,332.937 C73.541,333.015 73.946,333.054 74.354,333.054 Z M85.712,333 L85.712,332.676 C85.484,332.676 85.37,332.586 85.37,332.406 L85.37,332.406 L85.37,329.706 L88.124,326.142 C88.256,325.974 88.409,325.809 88.583,325.647 C88.757,325.485 88.916,325.404 89.06,325.404 L89.06,325.404 L89.06,325.08 L86.306,325.08 L86.306,325.404 C86.366,325.404 86.426,325.416 86.486,325.44 C86.546,325.464 86.576,325.524 86.576,325.62 C86.576,325.692 86.549,325.767 86.495,325.845 C86.441,325.923 86.36,326.04 86.252,326.196 L86.252,326.196 L84.65,328.428 L82.832,326.052 C82.772,325.968 82.718,325.896 82.67,325.836 C82.622,325.776 82.598,325.71 82.598,325.638 C82.598,325.566 82.634,325.509 82.706,325.467 C82.778,325.425 82.844,325.404 82.904,325.404 L82.904,325.404 L82.904,325.08 L79.934,325.08 L79.934,325.404 C80.042,325.404 80.156,325.428 80.276,325.476 C80.396,325.524 80.498,325.602 80.582,325.71 L80.582,325.71 L83.642,329.634 L83.642,332.406 C83.642,332.586 83.534,332.676 83.318,332.676 L83.318,332.676 L83.318,333 L85.712,333 Z M93.218,333 L93.218,332.676 C93.014,332.676 92.912,332.586 92.912,332.406 L92.912,332.406 L92.912,327.348 L92.93,327.348 L95.828,333 L95.972,333 L99.032,327.348 L99.068,327.348 L99.068,332.406 C99.104,332.586 98.996,332.676 98.744,332.676 L98.744,332.676 L98.744,333 L100.832,333 L100.832,332.676 C100.772,332.676 100.715,332.655 100.661,332.613 C100.607,332.571 100.58,332.502 100.58,332.406 L100.58,332.406 L100.58,325.638 C100.58,325.542 100.607,325.479 100.661,325.449 C100.715,325.419 100.772,325.404 100.832,325.404 L100.832,325.404 L100.832,325.08 L98.294,325.08 L98.294,325.404 C98.39,325.404 98.438,325.458 98.438,325.566 C98.438,325.602 98.414,325.665 98.366,325.755 C98.318,325.845 98.252,325.962 98.168,326.106 L98.168,326.106 L95.954,330.138 L93.758,326.088 C93.674,325.944 93.611,325.833 93.569,325.755 C93.527,325.677 93.506,325.614 93.506,325.566 C93.506,325.458 93.566,325.404 93.686,325.404 L93.686,325.404 L93.686,325.08 L91.184,325.08 L91.184,325.404 C91.268,325.404 91.325,325.422 91.355,325.458 C91.385,325.494 91.4,325.596 91.4,325.764 L91.4,325.764 L91.4,332.352 C91.4,332.484 91.379,332.568 91.337,332.604 C91.295,332.64 91.244,332.664 91.184,332.676 L91.184,332.676 L91.184,333 L93.218,333 Z M106.268,333 L106.268,332.676 C106.016,332.676 105.89,332.586 105.89,332.406 L105.89,332.406 L105.89,329.706 L108.95,329.706 C109.922,329.706 110.651,329.541 111.137,329.211 C111.623,328.881 111.866,328.284 111.866,327.42 C111.866,326.556 111.623,325.95 111.137,325.602 C110.651,325.254 109.922,325.08 108.95,325.08 L108.95,325.08 L103.712,325.08 L103.712,325.404 C104.012,325.404 104.162,325.494 104.162,325.674 L104.162,325.674 L104.162,332.406 C104.162,332.586 104.012,332.676 103.712,332.676 L103.712,332.676 L103.712,333 L106.268,333 Z M108.914,328.374 L105.89,328.374 L105.89,326.412 L108.914,326.412 C109.262,326.412 109.553,326.487 109.787,326.637 C110.021,326.787 110.138,327.048 110.138,327.42 C110.138,327.804 110.021,328.059 109.787,328.185 C109.553,328.311 109.262,328.374 108.914,328.374 L108.914,328.374 Z M118.202,333 L118.202,332.676 C117.986,332.676 117.878,332.586 117.878,332.406 L117.878,332.406 L117.878,326.412 L120.218,326.412 C120.314,326.412 120.404,326.436 120.488,326.484 C120.572,326.532 120.614,326.61 120.614,326.718 L120.614,326.718 L120.938,326.718 L120.938,324.648 L120.614,324.648 C120.614,324.816 120.572,324.93 120.488,324.99 C120.404,325.05 120.314,325.08 120.218,325.08 L120.218,325.08 L113.81,325.08 C113.714,325.08 113.624,325.05 113.54,324.99 C113.456,324.93 113.414,324.816 113.414,324.648 L113.414,324.648 L113.09,324.648 L113.09,326.718 L113.414,326.718 C113.414,326.61 113.456,326.532 113.54,326.484 C113.624,326.436 113.714,326.412 113.81,326.412 L113.81,326.412 L116.15,326.412 L116.15,332.406 C116.15,332.502 116.12,332.571 116.06,332.613 C116,332.655 115.94,332.676 115.88,332.676 L115.88,332.676 L115.88,333 L118.202,333 Z M127.004,333.054 C127.664,333.054 128.285,332.979 128.867,332.829 C129.449,332.679 129.956,332.436 130.388,332.1 C130.82,331.764 131.162,331.341 131.414,330.831 C131.666,330.321 131.792,329.724 131.792,329.04 C131.792,328.356 131.666,327.759 131.414,327.249 C131.162,326.739 130.82,326.316 130.388,325.98 C129.956,325.644 129.449,325.392 128.867,325.224 C128.285,325.056 127.664,324.972 127.004,324.972 C126.344,324.972 125.723,325.056 125.141,325.224 C124.559,325.392 124.052,325.644 123.62,325.98 C123.188,326.316 122.846,326.739 122.594,327.249 C122.342,327.759 122.216,328.356 122.216,329.04 C122.216,329.724 122.342,330.321 122.594,330.831 C122.846,331.341 123.188,331.764 123.62,332.1 C124.052,332.436 124.559,332.679 125.141,332.829 C125.723,332.979 126.344,333.054 127.004,333.054 Z M127.004,331.776 C126.62,331.776 126.245,331.713 125.879,331.587 C125.513,331.461 125.186,331.281 124.898,331.047 C124.61,330.813 124.379,330.528 124.205,330.192 C124.031,329.856 123.944,329.472 123.944,329.04 C123.944,328.608 124.031,328.224 124.205,327.888 C124.379,327.552 124.61,327.267 124.898,327.033 C125.186,326.799 125.513,326.619 125.879,326.493 C126.245,326.367 126.62,326.304 127.004,326.304 C127.388,326.304 127.763,326.367 128.129,326.493 C128.495,326.619 128.822,326.799 129.11,327.033 C129.398,327.267 129.629,327.552 129.803,327.888 C129.977,328.224 130.064,328.608 130.064,329.04 C130.064,329.472 129.977,329.856 129.803,330.192 C129.629,330.528 129.398,330.813 129.11,331.047 C128.822,331.281 128.495,331.461 128.129,331.587 C127.763,331.713 127.388,331.776 127.004,331.776 Z M136.22,333 L136.22,332.676 C136.016,332.676 135.914,332.586 135.914,332.406 L135.914,332.406 L135.914,327.348 L135.932,327.348 L138.83,333 L138.974,333 L142.034,327.348 L142.07,327.348 L142.07,332.406 C142.106,332.586 141.998,332.676 141.746,332.676 L141.746,332.676 L141.746,333 L143.834,333 L143.834,332.676 C143.774,332.676 143.717,332.655 143.663,332.613 C143.609,332.571 143.582,332.502 143.582,332.406 L143.582,332.406 L143.582,325.638 C143.582,325.542 143.609,325.479 143.663,325.449 C143.717,325.419 143.774,325.404 143.834,325.404 L143.834,325.404 L143.834,325.08 L141.296,325.08 L141.296,325.404 C141.392,325.404 141.44,325.458 141.44,325.566 C141.44,325.602 141.416,325.665 141.368,325.755 C141.32,325.845 141.254,325.962 141.17,326.106 L141.17,326.106 L138.956,330.138 L136.76,326.088 C136.676,325.944 136.613,325.833 136.571,325.755 C136.529,325.677 136.508,325.614 136.508,325.566 C136.508,325.458 136.568,325.404 136.688,325.404 L136.688,325.404 L136.688,325.08 L134.186,325.08 L134.186,325.404 C134.27,325.404 134.327,325.422 134.357,325.458 C134.387,325.494 134.402,325.596 134.402,325.764 L134.402,325.764 L134.402,332.352 C134.402,332.484 134.381,332.568 134.339,332.604 C134.297,332.64 134.246,332.664 134.186,332.676 L134.186,332.676 L134.186,333 L136.22,333 Z M154.76,333 L154.76,332.676 C154.508,332.676 154.382,332.586 154.382,332.406 L154.382,332.406 L154.382,329.706 L157.442,329.706 C158.414,329.706 159.143,329.541 159.629,329.211 C160.115,328.881 160.358,328.284 160.358,327.42 C160.358,326.556 160.115,325.95 159.629,325.602 C159.143,325.254 158.414,325.08 157.442,325.08 L157.442,325.08 L152.204,325.08 L152.204,325.404 C152.504,325.404 152.654,325.494 152.654,325.674 L152.654,325.674 L152.654,332.406 C152.654,332.586 152.504,332.676 152.204,332.676 L152.204,332.676 L152.204,333 L154.76,333 Z M157.406,328.374 L154.382,328.374 L154.382,326.412 L157.406,326.412 C157.754,326.412 158.045,326.487 158.279,326.637 C158.513,326.787 158.63,327.048 158.63,327.42 C158.63,327.804 158.513,328.059 158.279,328.185 C158.045,328.311 157.754,328.374 157.406,328.374 L157.406,328.374 Z M165.362,333 L165.362,332.676 C165.026,332.676 164.858,332.586 164.858,332.406 L164.858,332.406 L164.858,325.674 C164.858,325.494 165.026,325.404 165.362,325.404 L165.362,325.404 L165.362,325.08 L162.626,325.08 L162.626,325.404 C162.818,325.404 162.95,325.425 163.022,325.467 C163.094,325.509 163.13,325.578 163.13,325.674 L163.13,325.674 L163.13,332.406 C163.13,332.502 163.094,332.571 163.022,332.613 C162.95,332.655 162.818,332.676 162.626,332.676 L162.626,332.676 L162.626,333 L165.362,333 Z M176.252,333.18 L176.252,331.29 L175.928,331.29 C175.928,331.41 175.88,331.503 175.784,331.569 C175.688,331.635 175.568,331.668 175.424,331.668 L175.424,331.668 L170.564,331.668 L170.564,325.674 C170.564,325.494 170.702,325.404 170.978,325.404 L170.978,325.404 L170.978,325.08 L168.368,325.08 L168.368,325.404 C168.68,325.404 168.836,325.494 168.836,325.674 L168.836,325.674 L168.836,332.406 C168.836,332.586 168.68,332.676 168.368,332.676 L168.368,332.676 L168.368,333 L175.424,333 C175.568,333 175.688,333.006 175.784,333.018 C175.88,333.03 175.928,333.084 175.928,333.18 L175.928,333.18 L176.252,333.18 Z M185.918,333.198 L185.918,331.308 L185.594,331.308 C185.594,331.416 185.546,331.503 185.45,331.569 C185.354,331.635 185.234,331.668 185.09,331.668 L185.09,331.668 L180.482,331.668 L180.482,329.544 L183.11,329.544 C183.35,329.544 183.536,329.559 183.668,329.589 C183.8,329.619 183.848,329.7 183.812,329.832 L183.812,329.832 L184.172,329.832 L184.172,327.924 L183.848,327.924 C183.848,328.056 183.8,328.137 183.704,328.167 C183.608,328.197 183.458,328.212 183.254,328.212 L183.254,328.212 L180.482,328.212 L180.482,326.412 L184.874,326.412 C185.246,326.412 185.432,326.526 185.432,326.754 L185.432,326.754 L185.756,326.754 L185.756,324.756 L185.432,324.756 C185.432,324.972 185.246,325.08 184.874,325.08 L184.874,325.08 L178.484,325.08 L178.484,325.404 C178.544,325.404 178.604,325.425 178.664,325.467 C178.724,325.509 178.754,325.578 178.754,325.674 L178.754,325.674 L178.754,332.406 C178.754,332.502 178.724,332.571 178.664,332.613 C178.604,332.655 178.544,332.676 178.484,332.676 L178.484,332.676 L178.484,333 L185.09,333 C185.234,333 185.354,333.006 185.45,333.018 C185.546,333.03 185.594,333.09 185.594,333.198 L185.594,333.198 L185.918,333.198 Z M189.752,333.054 C190.1,333.054 190.4,332.937 190.652,332.703 C190.904,332.469 191.03,332.178 191.03,331.83 C191.03,331.482 190.904,331.182 190.652,330.93 C190.4,330.678 190.1,330.552 189.752,330.552 C189.404,330.552 189.104,330.678 188.852,330.93 C188.6,331.182 188.474,331.482 188.474,331.83 C188.474,332.178 188.6,332.469 188.852,332.703 C189.104,332.937 189.404,333.054 189.752,333.054 Z" id="WhydidCOVIDhavetohappendduringallergyseason?Addthistoyoursymptompile." fill="#000000" fill-rule="nonzero"></path>
    </g>
</svg>