<?xml version="1.0" encoding="UTF-8"?>
<svg width="262px" height="360px" viewBox="0 0 262 360" version="1.1" xmlns="http://www.w3.org/2000/svg" xmlns:xlink="http://www.w3.org/1999/xlink">
    <title>Cuddles 3</title>
    <g id="Cuddles-3" stroke="none" stroke-width="1" fill="none" fill-rule="evenodd">
        <g id="Group" transform="translate(9.000000, 9.000000)" fill="#FFFFFF" stroke="#000000" stroke-width="3">
            <g id="Rectangle">
                <rect x="1.5" y="1.5" width="239" height="337" rx="8"></rect>
            </g>
        </g>
        <rect id="Rectangle" stroke="#000000" stroke-width="3" x="17.5" y="286.5" width="225" height="55" rx="8"></rect>
        <g id="Beaker" transform="translate(230.000000, 15.000000)">
            <path d="M10.5,2.5 L10.5,6.40325225 C10.5,8.18857084 10.9156686,9.9493711 11.7140873,11.5462086 L11.7140873,11.5462086 L13.236068,14.5901699 C13.4096373,14.9373085 13.5,15.3200912 13.5,15.7082039 L13.5,15.7082039 L13.5,17.1715729 C13.5,17.5693976 13.3419647,17.9509285 13.0606602,18.232233 L13.0606602,18.232233 L12.232233,19.0606602 C11.9509285,19.3419647 11.5693976,19.5 11.1715729,19.5 L11.1715729,19.5 L2.82842712,19.5 C2.43060239,19.5 2.04907152,19.3419647 1.76776695,19.0606602 L1.76776695,19.0606602 L0.939339828,18.232233 C0.658035261,17.9509285 0.5,17.5693976 0.5,17.1715729 L0.5,17.1715729 L0.5,15.7082039 C0.5,15.3200912 0.590362729,14.9373085 0.763932023,14.5901699 L0.763932023,14.5901699 L2.2859127,11.5462086 C3.08433144,9.9493711 3.5,8.18857084 3.5,6.40325225 L3.5,6.40325225 L3.5,2.5 L10.5,2.5 Z" id="Rectangle" stroke="#000000"></path>
            <path d="M4,9 L10,9 C10,9.65899054 10.1414066,10.3103089 10.4146706,10.9099716 L11.7299148,13.7962019 C11.9078984,14.186777 12,14.6109968 12,15.0402137 L12,15.7335938 C12,16.2601989 11.7923083,16.7655549 11.4220052,17.1399725 L11.1585265,17.4063788 C10.7828385,17.7862411 10.2707843,18 9.7365213,18 L4.2634787,18 C3.72921573,18 3.21716155,17.7862411 2.8414735,17.4063788 L2.57799481,17.1399725 C2.20769169,16.7655549 2,16.2601989 2,15.7335938 L2,15.0402137 C2,14.6109968 2.09210162,14.186777 2.27008523,13.7962019 L3.5853294,10.9099716 C3.8585934,10.3103089 4,9.65899054 4,9 L4,9 L4,9 Z" id="Rectangle-Copy" fill="#000000"></path>
            <circle id="Oval" fill="#FFFFFF" cx="9.5" cy="15.5" r="1.5"></circle>
            <circle id="Oval-Copy-2" fill="#000000" cx="6" cy="5" r="1"></circle>
            <circle id="Oval-Copy-3" fill="#000000" cx="8.5" cy="6.5" r="1"></circle>
            <circle id="Oval-Copy" fill="#FFFFFF" cx="6" cy="13" r="1"></circle>
            <rect id="Rectangle" stroke="#000000" x="2.5" y="0.5" width="9" height="2" rx="1"></rect>
        </g>
        <path d="M221.124,33 L221.124,32.712 C220.964,32.712 220.82,32.668 220.692,32.58 C220.564,32.492 220.5,32.312 220.5,32.04 L220.5,32.04 L220.5,21.048 C220.5,20.888 220.564,20.768 220.692,20.688 C220.82,20.608 220.98,20.552 221.172,20.52 L221.172,20.52 L221.172,20.232 L217.284,20.232 L217.284,20.52 C217.46,20.552 217.6,20.6 217.704,20.664 C217.808,20.728 217.86,20.872 217.86,21.096 C217.86,21.336 217.768,21.54 217.584,21.708 C217.4,21.876 217.172,21.96 216.9,21.96 C216.772,21.96 216.636,21.932 216.492,21.876 C216.348,21.82 216.276,21.72 216.276,21.576 L216.276,21.576 L215.988,21.576 L215.988,24.6 L216.276,24.6 C216.324,24.472 216.408,24.372 216.528,24.3 C216.648,24.228 216.78,24.172 216.924,24.132 C217.068,24.092 217.216,24.064 217.368,24.048 C217.52,24.032 217.652,24.024 217.764,24.024 L217.764,24.024 L217.764,32.04 C217.764,32.312 217.704,32.492 217.584,32.58 C217.464,32.668 217.324,32.712 217.164,32.712 L217.164,32.712 L217.164,33 L221.124,33 Z" id="1" fill="#000000" fill-rule="nonzero"></path>
        <path d="M88.628,53.072 C89.396,53.072 90.132,52.984 90.836,52.808 C91.54,52.632 92.168,52.424 92.72,52.184 C93.272,51.944 93.728,51.728 94.088,51.536 C94.448,51.344 94.676,51.248 94.772,51.248 C94.82,51.248 94.864,51.252 94.904,51.26 L94.967,51.269 L94.967,51.269 L95.036,51.272 L95.228,51.08 L93.644,48.536 L93.308,48.728 C93.372,48.808 93.404,48.904 93.404,49.016 C93.404,49.224 93.248,49.444 92.936,49.676 C92.624,49.908 92.236,50.116 91.772,50.3 C91.308,50.484 90.796,50.636 90.236,50.756 C89.676,50.876 89.14,50.936 88.628,50.936 C87.956,50.936 87.312,50.84 86.696,50.648 C86.08,50.456 85.544,50.176 85.088,49.808 C84.632,49.44 84.268,48.988 83.996,48.452 C83.724,47.916 83.588,47.304 83.588,46.616 C83.588,45.928 83.724,45.316 83.996,44.78 C84.268,44.244 84.632,43.792 85.088,43.424 C85.544,43.056 86.08,42.776 86.696,42.584 C87.312,42.392 87.956,42.296 88.628,42.296 C89.028,42.296 89.464,42.344 89.936,42.44 C90.408,42.536 90.856,42.656 91.28,42.8 C91.704,42.944 92.06,43.108 92.348,43.292 C92.636,43.476 92.796,43.656 92.828,43.832 C92.844,43.896 92.856,43.952 92.864,44 C92.872,44.048 92.876,44.096 92.876,44.144 L92.876,44.144 L93.116,44.312 L94.988,41.408 L94.628,41.12 C94.596,41.168 94.552,41.232 94.496,41.312 C94.44,41.392 94.372,41.432 94.292,41.432 C94.228,41.432 94.052,41.368 93.764,41.24 C93.476,41.112 93.084,40.976 92.588,40.832 C92.092,40.688 91.512,40.552 90.848,40.424 C90.184,40.296 89.444,40.232 88.628,40.232 C87.62,40.232 86.652,40.368 85.724,40.64 C84.796,40.912 83.976,41.32 83.264,41.864 C82.552,42.408 81.988,43.084 81.572,43.892 C81.156,44.7 80.948,45.632 80.948,46.688 C80.948,47.76 81.156,48.696 81.572,49.496 C81.988,50.296 82.552,50.964 83.264,51.5 C83.976,52.036 84.796,52.432 85.724,52.688 C86.652,52.944 87.62,53.072 88.628,53.072 Z M105.068,53.072 C106.028,53.072 106.864,52.972 107.576,52.772 C108.288,52.572 108.872,52.296 109.328,51.944 C109.784,51.592 110.124,51.188 110.348,50.732 C110.572,50.276 110.684,49.8 110.684,49.304 L110.684,49.304 L110.684,43.232 C110.684,42.992 110.86,42.872 111.212,42.872 L111.212,42.872 L111.212,42.44 L107.876,42.44 L107.876,42.872 C108.276,42.872 108.476,42.992 108.476,43.232 L108.476,43.232 L108.476,48.728 C108.476,49.496 108.196,50.112 107.636,50.576 C107.076,51.04 106.22,51.272 105.068,51.272 C103.916,51.272 103.06,51.04 102.5,50.576 C101.94,50.112 101.66,49.496 101.66,48.728 L101.66,48.728 L101.66,43.232 C101.66,42.992 101.836,42.872 102.188,42.872 L102.188,42.872 L102.188,42.44 L98.756,42.44 L98.756,42.872 C99.028,42.872 99.212,42.9 99.308,42.956 C99.404,43.012 99.452,43.104 99.452,43.232 L99.452,43.232 L99.452,49.304 C99.452,49.8 99.564,50.276 99.788,50.732 C100.012,51.188 100.352,51.592 100.808,51.944 C101.264,52.296 101.848,52.572 102.56,52.772 C103.272,52.972 104.108,53.072 105.068,53.072 Z M121.364,53 C122.308,53 123.108,52.848 123.764,52.544 C124.42,52.24 124.956,51.844 125.372,51.356 C125.788,50.868 126.092,50.308 126.284,49.676 C126.476,49.044 126.572,48.392 126.572,47.72 C126.572,47.048 126.472,46.396 126.272,45.764 C126.072,45.132 125.76,44.572 125.336,44.084 C124.912,43.596 124.364,43.2 123.692,42.896 C123.02,42.592 122.212,42.44 121.268,42.44 L121.268,42.44 L114.596,42.44 L114.596,42.872 C114.964,42.872 115.148,42.992 115.148,43.232 L115.148,43.232 L115.148,52.208 C115.148,52.448 114.964,52.568 114.596,52.568 L114.596,52.568 L114.596,53 L121.364,53 Z M120.572,51.224 L117.452,51.224 L117.452,44.216 L120.572,44.216 C121.068,44.216 121.54,44.244 121.988,44.3 C122.436,44.356 122.828,44.5 123.164,44.732 C123.5,44.964 123.768,45.308 123.968,45.764 C124.168,46.22 124.268,46.848 124.268,47.648 C124.268,48.448 124.168,49.084 123.968,49.556 C123.768,50.028 123.5,50.388 123.164,50.636 C122.828,50.884 122.436,51.044 121.988,51.116 C121.54,51.188 121.068,51.224 120.572,51.224 L120.572,51.224 Z M136.028,53 C136.972,53 137.772,52.848 138.428,52.544 C139.084,52.24 139.62,51.844 140.036,51.356 C140.452,50.868 140.756,50.308 140.948,49.676 C141.14,49.044 141.236,48.392 141.236,47.72 C141.236,47.048 141.136,46.396 140.936,45.764 C140.736,45.132 140.424,44.572 140,44.084 C139.576,43.596 139.028,43.2 138.356,42.896 C137.684,42.592 136.876,42.44 135.932,42.44 L135.932,42.44 L129.26,42.44 L129.26,42.872 C129.628,42.872 129.812,42.992 129.812,43.232 L129.812,43.232 L129.812,52.208 C129.812,52.448 129.628,52.568 129.26,52.568 L129.26,52.568 L129.26,53 L136.028,53 Z M135.236,51.224 L132.116,51.224 L132.116,44.216 L135.236,44.216 C135.732,44.216 136.204,44.244 136.652,44.3 C137.1,44.356 137.492,44.5 137.828,44.732 C138.164,44.964 138.432,45.308 138.632,45.764 C138.832,46.22 138.932,46.848 138.932,47.648 C138.932,48.448 138.832,49.084 138.632,49.556 C138.432,50.028 138.164,50.388 137.828,50.636 C137.492,50.884 137.1,51.044 136.652,51.116 C136.204,51.188 135.732,51.224 135.236,51.224 L135.236,51.224 Z M154.652,53.24 L154.652,50.72 L154.22,50.72 C154.22,50.88 154.156,51.004 154.028,51.092 C153.9,51.18 153.74,51.224 153.548,51.224 L153.548,51.224 L147.068,51.224 L147.068,43.232 C147.068,42.992 147.252,42.872 147.62,42.872 L147.62,42.872 L147.62,42.44 L144.14,42.44 L144.14,42.872 C144.556,42.872 144.764,42.992 144.764,43.232 L144.764,43.232 L144.764,52.208 C144.764,52.448 144.556,52.568 144.14,52.568 L144.14,52.568 L144.14,53 L153.548,53 C153.74,53 153.9,53.008 154.028,53.024 C154.156,53.04 154.22,53.112 154.22,53.24 L154.22,53.24 L154.652,53.24 Z M167.54,53.264 L167.54,50.744 L167.108,50.744 C167.108,50.888 167.044,51.004 166.916,51.092 C166.788,51.18 166.628,51.224 166.436,51.224 L166.436,51.224 L160.292,51.224 L160.292,48.392 L163.796,48.392 C164.116,48.392 164.364,48.412 164.54,48.452 C164.716,48.492 164.78,48.6 164.732,48.776 L164.732,48.776 L165.212,48.776 L165.212,46.232 L164.78,46.232 C164.78,46.408 164.716,46.516 164.588,46.556 C164.46,46.596 164.26,46.616 163.988,46.616 L163.988,46.616 L160.292,46.616 L160.292,44.216 L166.148,44.216 C166.644,44.216 166.892,44.368 166.892,44.672 L166.892,44.672 L167.324,44.672 L167.324,42.008 L166.892,42.008 C166.892,42.296 166.644,42.44 166.148,42.44 L166.148,42.44 L157.628,42.44 L157.628,42.872 C157.708,42.872 157.788,42.9 157.868,42.956 C157.948,43.012 157.988,43.104 157.988,43.232 L157.988,43.232 L157.988,52.208 C157.988,52.336 157.948,52.428 157.868,52.484 C157.788,52.54 157.708,52.568 157.628,52.568 L157.628,52.568 L157.628,53 L166.436,53 C166.628,53 166.788,53.008 166.916,53.024 C167.044,53.04 167.108,53.12 167.108,53.264 L167.108,53.264 L167.54,53.264 Z M175.484,53.072 C176.028,53.072 176.608,53.032 177.224,52.952 C177.84,52.872 178.404,52.704 178.916,52.448 C179.428,52.192 179.856,51.84 180.2,51.392 C180.544,50.944 180.716,50.368 180.716,49.664 C180.716,48.96 180.52,48.408 180.128,48.008 C179.736,47.608 179.244,47.304 178.652,47.096 C178.06,46.888 177.42,46.74 176.732,46.652 C176.044,46.564 175.404,46.476 174.812,46.388 C174.22,46.3 173.728,46.18 173.336,46.028 C172.944,45.876 172.748,45.624 172.748,45.272 C172.748,45.048 172.812,44.86 172.94,44.708 C173.068,44.556 173.244,44.432 173.468,44.336 C173.692,44.24 173.948,44.172 174.236,44.132 C174.524,44.092 174.828,44.072 175.148,44.072 C175.98,44.072 176.732,44.168 177.404,44.36 C178.076,44.552 178.572,44.784 178.892,45.056 C179.02,45.152 179.092,45.248 179.108,45.344 L179.108,45.344 L179.156,45.632 L179.588,45.776 L180.788,43.52 L180.524,43.256 C180.428,43.304 180.348,43.348 180.284,43.388 C180.22,43.428 180.124,43.448 179.996,43.448 C179.884,43.448 179.712,43.388 179.48,43.268 C179.248,43.148 178.948,43.016 178.58,42.872 C178.212,42.728 177.76,42.596 177.224,42.476 C176.688,42.356 176.044,42.296 175.292,42.296 C173.756,42.296 172.564,42.6 171.716,43.208 C170.868,43.816 170.444,44.632 170.444,45.656 C170.444,46.344 170.64,46.876 171.032,47.252 C171.424,47.628 171.916,47.916 172.508,48.116 C173.1,48.316 173.74,48.46 174.428,48.548 C175.116,48.636 175.756,48.724 176.348,48.812 C176.94,48.9 177.432,49.024 177.824,49.184 C178.216,49.344 178.412,49.6 178.412,49.952 C178.412,50.256 178.3,50.5 178.076,50.684 C177.852,50.868 177.58,51.012 177.26,51.116 C176.94,51.22 176.616,51.288 176.288,51.32 C175.96,51.352 175.684,51.368 175.46,51.368 C175.22,51.368 174.888,51.328 174.464,51.248 C174.04,51.168 173.616,51.06 173.192,50.924 C172.768,50.788 172.404,50.62 172.1,50.42 C171.796,50.22 171.644,50 171.644,49.76 C171.644,49.68 171.648,49.604 171.656,49.532 C171.664,49.46 171.668,49.392 171.668,49.328 L171.668,49.328 L171.212,49.208 L170.108,51.896 L170.444,52.136 C170.524,52.04 170.62,51.992 170.732,51.992 C170.796,51.992 170.98,52.052 171.284,52.172 C171.588,52.292 171.96,52.42 172.4,52.556 C172.84,52.692 173.328,52.812 173.864,52.916 C174.4,53.02 174.94,53.072 175.484,53.072 Z" id="Cuddles" fill="#000000" fill-rule="nonzero"></path>
        <path d="M46.416,302 L46.416,301.712 C46.1386667,301.712 46,301.616 46,301.424 L46,301.424 L46,294.16 C46,293.968 46.1386667,293.872 46.416,293.872 L46.416,293.872 L46.416,293.584 L43.76,293.584 L43.76,293.872 C44.0373333,293.872 44.176,293.968 44.176,294.16 L44.176,294.16 L44.176,301.424 C44.176,301.616 44.0373333,301.712 43.76,301.712 L43.76,301.712 L43.76,302 L46.416,302 Z M52.08,302.048 C52.4426667,302.048 52.8293333,302.021333 53.24,301.968 C53.6506667,301.914667 54.0266667,301.802667 54.368,301.632 C54.7093333,301.461333 54.9946667,301.226667 55.224,300.928 C55.4533333,300.629333 55.568,300.245333 55.568,299.776 C55.568,299.306667 55.4373333,298.938667 55.176,298.672 C54.9146667,298.405333 54.5866667,298.202667 54.192,298.064 C53.7973333,297.925333 53.3706667,297.826667 52.912,297.768 C52.4533333,297.709333 52.0266667,297.650667 51.632,297.592 C51.2373333,297.533333 50.9093333,297.453333 50.648,297.352 C50.3866667,297.250667 50.256,297.082667 50.256,296.848 C50.256,296.698667 50.2986667,296.573333 50.384,296.472 C50.4693333,296.370667 50.5866667,296.288 50.736,296.224 C50.8853333,296.16 51.056,296.114667 51.248,296.088 C51.44,296.061333 51.6426667,296.048 51.856,296.048 C52.4106667,296.048 52.912,296.112 53.36,296.24 C53.808,296.368 54.1386667,296.522667 54.352,296.704 C54.4373333,296.768 54.4853333,296.832 54.496,296.896 L54.496,296.896 L54.528,297.088 L54.816,297.184 L55.616,295.68 L55.44,295.504 C55.376,295.536 55.3226667,295.565333 55.28,295.592 C55.2373333,295.618667 55.1733333,295.632 55.088,295.632 C55.0133333,295.632 54.8986667,295.592 54.744,295.512 C54.5893333,295.432 54.3893333,295.344 54.144,295.248 C53.8986667,295.152 53.5973333,295.064 53.24,294.984 C52.8826667,294.904 52.4533333,294.864 51.952,294.864 C50.928,294.864 50.1333333,295.066667 49.568,295.472 C49.0026667,295.877333 48.72,296.421333 48.72,297.104 C48.72,297.562667 48.8506667,297.917333 49.112,298.168 C49.3733333,298.418667 49.7013333,298.610667 50.096,298.744 C50.4906667,298.877333 50.9173333,298.973333 51.376,299.032 C51.8346667,299.090667 52.2613333,299.149333 52.656,299.208 C53.0506667,299.266667 53.3786667,299.349333 53.64,299.456 C53.9013333,299.562667 54.032,299.733333 54.032,299.968 C54.032,300.170667 53.9573333,300.333333 53.808,300.456 C53.6586667,300.578667 53.4773333,300.674667 53.264,300.744 C53.0506667,300.813333 52.8346667,300.858667 52.616,300.88 C52.3973333,300.901333 52.2133333,300.912 52.064,300.912 C51.904,300.912 51.6826667,300.885333 51.4,300.832 C51.1173333,300.778667 50.8346667,300.706667 50.552,300.616 C50.2693333,300.525333 50.0266667,300.413333 49.824,300.28 C49.6213333,300.146667 49.52,300 49.52,299.84 C49.52,299.786667 49.5226667,299.736 49.528,299.688 C49.5333333,299.64 49.536,299.594667 49.536,299.552 L49.536,299.552 L49.232,299.472 L48.496,301.264 L48.72,301.424 C48.7733333,301.36 48.8373333,301.328 48.912,301.328 C48.9546667,301.328 49.0773333,301.368 49.28,301.448 C49.4826667,301.528 49.7306667,301.613333 50.024,301.704 C50.3173333,301.794667 50.6426667,301.874667 51,301.944 C51.3573333,302.013333 51.7173333,302.048 52.08,302.048 Z M66.592,302 L66.592,301.712 C66.4,301.712 66.304,301.632 66.304,301.472 L66.304,301.472 L66.304,296.144 L68.384,296.144 C68.4693333,296.144 68.5493333,296.165333 68.624,296.208 C68.6986667,296.250667 68.736,296.32 68.736,296.416 L68.736,296.416 L69.024,296.416 L69.024,294.576 L68.736,294.576 C68.736,294.725333 68.6986667,294.826667 68.624,294.88 C68.5493333,294.933333 68.4693333,294.96 68.384,294.96 L68.384,294.96 L62.688,294.96 C62.6026667,294.96 62.5226667,294.933333 62.448,294.88 C62.3733333,294.826667 62.336,294.725333 62.336,294.576 L62.336,294.576 L62.048,294.576 L62.048,296.416 L62.336,296.416 C62.336,296.32 62.3733333,296.250667 62.448,296.208 C62.5226667,296.165333 62.6026667,296.144 62.688,296.144 L62.688,296.144 L64.768,296.144 L64.768,301.472 C64.768,301.557333 64.7413333,301.618667 64.688,301.656 C64.6346667,301.693333 64.5813333,301.712 64.528,301.712 L64.528,301.712 L64.528,302 L66.592,302 Z M72.96,302 L72.96,301.712 C72.896,301.712 72.84,301.693333 72.792,301.656 C72.744,301.618667 72.72,301.557333 72.72,301.472 L72.72,301.472 L72.72,299.056 L77.008,299.056 L77.008,301.472 C77.008,301.557333 76.984,301.618667 76.936,301.656 C76.888,301.693333 76.832,301.712 76.768,301.712 L76.768,301.712 L76.768,302 L78.784,302 L78.784,301.712 C78.72,301.712 78.664,301.693333 78.616,301.656 C78.568,301.618667 78.544,301.557333 78.544,301.472 L78.544,301.472 L78.544,295.488 C78.544,295.402667 78.568,295.341333 78.616,295.304 C78.664,295.266667 78.72,295.248 78.784,295.248 L78.784,295.248 L78.784,294.96 L76.768,294.96 L76.768,295.248 C76.832,295.248 76.888,295.266667 76.936,295.304 C76.984,295.341333 77.008,295.402667 77.008,295.488 L77.008,295.488 L77.008,297.744 L72.72,297.744 L72.72,295.488 C72.72,295.402667 72.744,295.341333 72.792,295.304 C72.84,295.266667 72.896,295.248 72.96,295.248 L72.96,295.248 L72.96,294.96 L70.944,294.96 L70.944,295.248 C71.008,295.248 71.064,295.266667 71.112,295.304 C71.16,295.341333 71.184,295.402667 71.184,295.488 L71.184,295.488 L71.184,301.472 C71.184,301.557333 71.16,301.618667 71.112,301.656 C71.064,301.693333 71.008,301.712 70.944,301.712 L70.944,301.712 L70.944,302 L72.96,302 Z M84.08,302 L84.08,301.712 C83.7813333,301.712 83.632,301.632 83.632,301.472 L83.632,301.472 L83.632,295.488 C83.632,295.328 83.7813333,295.248 84.08,295.248 L84.08,295.248 L84.08,294.96 L81.648,294.96 L81.648,295.248 C81.8186667,295.248 81.936,295.266667 82,295.304 C82.064,295.341333 82.096,295.402667 82.096,295.488 L82.096,295.488 L82.096,301.472 C82.096,301.557333 82.064,301.618667 82,301.656 C81.936,301.693333 81.8186667,301.712 81.648,301.712 L81.648,301.712 L81.648,302 L84.08,302 Z M89.856,302.048 C90.2186667,302.048 90.6053333,302.021333 91.016,301.968 C91.4266667,301.914667 91.8026667,301.802667 92.144,301.632 C92.4853333,301.461333 92.7706667,301.226667 93,300.928 C93.2293333,300.629333 93.344,300.245333 93.344,299.776 C93.344,299.306667 93.2133333,298.938667 92.952,298.672 C92.6906667,298.405333 92.3626667,298.202667 91.968,298.064 C91.5733333,297.925333 91.1466667,297.826667 90.688,297.768 C90.2293333,297.709333 89.8026667,297.650667 89.408,297.592 C89.0133333,297.533333 88.6853333,297.453333 88.424,297.352 C88.1626667,297.250667 88.032,297.082667 88.032,296.848 C88.032,296.698667 88.0746667,296.573333 88.16,296.472 C88.2453333,296.370667 88.3626667,296.288 88.512,296.224 C88.6613333,296.16 88.832,296.114667 89.024,296.088 C89.216,296.061333 89.4186667,296.048 89.632,296.048 C90.1866667,296.048 90.688,296.112 91.136,296.24 C91.584,296.368 91.9146667,296.522667 92.128,296.704 C92.2133333,296.768 92.2613333,296.832 92.272,296.896 L92.272,296.896 L92.304,297.088 L92.592,297.184 L93.392,295.68 L93.216,295.504 C93.152,295.536 93.0986667,295.565333 93.056,295.592 C93.0133333,295.618667 92.9493333,295.632 92.864,295.632 C92.7893333,295.632 92.6746667,295.592 92.52,295.512 C92.3653333,295.432 92.1653333,295.344 91.92,295.248 C91.6746667,295.152 91.3733333,295.064 91.016,294.984 C90.6586667,294.904 90.2293333,294.864 89.728,294.864 C88.704,294.864 87.9093333,295.066667 87.344,295.472 C86.7786667,295.877333 86.496,296.421333 86.496,297.104 C86.496,297.562667 86.6266667,297.917333 86.888,298.168 C87.1493333,298.418667 87.4773333,298.610667 87.872,298.744 C88.2666667,298.877333 88.6933333,298.973333 89.152,299.032 C89.6106667,299.090667 90.0373333,299.149333 90.432,299.208 C90.8266667,299.266667 91.1546667,299.349333 91.416,299.456 C91.6773333,299.562667 91.808,299.733333 91.808,299.968 C91.808,300.170667 91.7333333,300.333333 91.584,300.456 C91.4346667,300.578667 91.2533333,300.674667 91.04,300.744 C90.8266667,300.813333 90.6106667,300.858667 90.392,300.88 C90.1733333,300.901333 89.9893333,300.912 89.84,300.912 C89.68,300.912 89.4586667,300.885333 89.176,300.832 C88.8933333,300.778667 88.6106667,300.706667 88.328,300.616 C88.0453333,300.525333 87.8026667,300.413333 87.6,300.28 C87.3973333,300.146667 87.296,300 87.296,299.84 C87.296,299.786667 87.2986667,299.736 87.304,299.688 C87.3093333,299.64 87.312,299.594667 87.312,299.552 L87.312,299.552 L87.008,299.472 L86.272,301.264 L86.496,301.424 C86.5493333,301.36 86.6133333,301.328 86.688,301.328 C86.7306667,301.328 86.8533333,301.368 87.056,301.448 C87.2586667,301.528 87.5066667,301.613333 87.8,301.704 C88.0933333,301.794667 88.4186667,301.874667 88.776,301.944 C89.1333333,302.013333 89.4933333,302.048 89.856,302.048 Z M102.688,302 L102.688,301.712 C102.624,301.712 102.557333,301.693333 102.488,301.656 C102.418667,301.618667 102.384,301.557333 102.384,301.472 L102.384,301.472 L102.384,299.184 L104.608,299.184 L105.872,301.072 C106.032,301.296 106.112,301.461333 106.112,301.568 C106.112,301.664 106.042667,301.712 105.904,301.712 L105.904,301.712 L105.904,302 L108.352,302 L108.352,301.712 C108.234667,301.68 108.125333,301.634667 108.024,301.576 C107.922667,301.517333 107.829333,301.429333 107.744,301.312 L107.744,301.312 L106.176,299.024 C106.4,298.970667 106.618667,298.893333 106.832,298.792 C107.045333,298.690667 107.24,298.557333 107.416,298.392 C107.592,298.226667 107.733333,298.032 107.84,297.808 C107.946667,297.584 108,297.328 108,297.04 C108,296.282667 107.733333,295.746667 107.2,295.432 C106.666667,295.117333 105.925333,294.96 104.976,294.96 L104.976,294.96 L100.56,294.96 L100.56,295.248 C100.752,295.248 100.848,295.328 100.848,295.488 L100.848,295.488 L100.848,301.472 C100.848,301.632 100.752,301.712 100.56,301.712 L100.56,301.712 L100.56,302 L102.688,302 Z M104.944,298 L102.416,298 L102.416,296.144 L104.944,296.144 C105.488,296.144 105.885333,296.221333 106.136,296.376 C106.386667,296.530667 106.512,296.741333 106.512,297.008 C106.512,297.669333 105.989333,298 104.944,298 L104.944,298 Z M117.008,302.176 L117.008,300.496 L116.72,300.496 C116.72,300.592 116.677333,300.669333 116.592,300.728 C116.506667,300.786667 116.4,300.816 116.272,300.816 L116.272,300.816 L112.176,300.816 L112.176,298.928 L114.512,298.928 C114.725333,298.928 114.890667,298.941333 115.008,298.968 C115.125333,298.994667 115.168,299.066667 115.136,299.184 L115.136,299.184 L115.456,299.184 L115.456,297.488 L115.168,297.488 C115.168,297.605333 115.125333,297.677333 115.04,297.704 C114.954667,297.730667 114.821333,297.744 114.64,297.744 L114.64,297.744 L112.176,297.744 L112.176,296.144 L116.08,296.144 C116.410667,296.144 116.576,296.245333 116.576,296.448 L116.576,296.448 L116.864,296.448 L116.864,294.672 L116.576,294.672 C116.576,294.864 116.410667,294.96 116.08,294.96 L116.08,294.96 L110.4,294.96 L110.4,295.248 C110.453333,295.248 110.506667,295.266667 110.56,295.304 C110.613333,295.341333 110.64,295.402667 110.64,295.488 L110.64,295.488 L110.64,301.472 C110.64,301.557333 110.613333,301.618667 110.56,301.656 C110.506667,301.693333 110.453333,301.712 110.4,301.712 L110.4,301.712 L110.4,302 L116.272,302 C116.4,302 116.506667,302.005333 116.592,302.016 C116.677333,302.026667 116.72,302.08 116.72,302.176 L116.72,302.176 L117.008,302.176 Z M120.368,302 L120.368,301.712 C120.272,301.712 120.197333,301.701333 120.144,301.68 C120.090667,301.658667 120.064,301.605333 120.064,301.52 C120.064,301.466667 120.077333,301.405333 120.104,301.336 C120.130667,301.266667 120.165333,301.189333 120.208,301.104 L120.208,301.104 L120.656,300.24 L124.08,300.24 L124.512,301.152 C124.544,301.237333 124.570667,301.306667 124.592,301.36 C124.613333,301.413333 124.624,301.472 124.624,301.536 C124.624,301.621333 124.594667,301.68 124.536,301.712 C124.477333,301.744 124.421333,301.76 124.368,301.76 L124.368,301.76 L124.368,302 L126.64,302 L126.64,301.712 C126.565333,301.690667 126.496,301.658667 126.432,301.616 C126.368,301.573333 126.309333,301.504 126.256,301.408 L126.256,301.408 L123.664,295.968 C123.610667,295.850667 123.56,295.746667 123.512,295.656 C123.464,295.565333 123.44,295.488 123.44,295.424 C123.44,295.349333 123.458667,295.306667 123.496,295.296 C123.533333,295.285333 123.568,295.269333 123.6,295.248 L123.6,295.248 L123.6,294.96 L121.184,294.96 L121.184,295.248 C121.216,295.269333 121.245333,295.288 121.272,295.304 C121.298667,295.32 121.312,295.36 121.312,295.424 C121.312,295.509333 121.293333,295.597333 121.256,295.688 C121.218667,295.778667 121.168,295.898667 121.104,296.048 L121.104,296.048 L118.72,301.248 C118.677333,301.333333 118.616,301.426667 118.536,301.528 C118.456,301.629333 118.352,301.690667 118.224,301.712 L118.224,301.712 L118.224,302 L120.368,302 Z M123.568,299.056 L121.136,299.056 L122.272,296.368 L123.568,299.056 Z M135.104,302.16 L135.104,300.48 L134.816,300.48 C134.816,300.586667 134.773333,300.669333 134.688,300.728 C134.602667,300.786667 134.496,300.816 134.368,300.816 L134.368,300.816 L130.048,300.816 L130.048,295.488 C130.048,295.328 130.170667,295.248 130.416,295.248 L130.416,295.248 L130.416,294.96 L128.096,294.96 L128.096,295.248 C128.373333,295.248 128.512,295.328 128.512,295.488 L128.512,295.488 L128.512,301.472 C128.512,301.632 128.373333,301.712 128.096,301.712 L128.096,301.712 L128.096,302 L134.368,302 C134.496,302 134.602667,302.005333 134.688,302.016 C134.773333,302.026667 134.816,302.074667 134.816,302.16 L134.816,302.16 L135.104,302.16 Z M144,302.16 L144,300.48 L143.712,300.48 C143.712,300.586667 143.669333,300.669333 143.584,300.728 C143.498667,300.786667 143.392,300.816 143.264,300.816 L143.264,300.816 L138.944,300.816 L138.944,295.488 C138.944,295.328 139.066667,295.248 139.312,295.248 L139.312,295.248 L139.312,294.96 L136.992,294.96 L136.992,295.248 C137.269333,295.248 137.408,295.328 137.408,295.488 L137.408,295.488 L137.408,301.472 C137.408,301.632 137.269333,301.712 136.992,301.712 L136.992,301.712 L136.992,302 L143.264,302 C143.392,302 143.498667,302.005333 143.584,302.016 C143.669333,302.026667 143.712,302.074667 143.712,302.16 L143.712,302.16 L144,302.16 Z M150.192,302 L150.192,301.712 C149.989333,301.712 149.888,301.632 149.888,301.472 L149.888,301.472 L149.888,299.072 L152.336,295.904 C152.453333,295.754667 152.589333,295.608 152.744,295.464 C152.898667,295.32 153.04,295.248 153.168,295.248 L153.168,295.248 L153.168,294.96 L150.72,294.96 L150.72,295.248 C150.773333,295.248 150.826667,295.258667 150.88,295.28 C150.933333,295.301333 150.96,295.354667 150.96,295.44 C150.96,295.504 150.936,295.570667 150.888,295.64 C150.84,295.709333 150.768,295.813333 150.672,295.952 L150.672,295.952 L149.248,297.936 L147.632,295.824 C147.578667,295.749333 147.530667,295.685333 147.488,295.632 C147.445333,295.578667 147.424,295.52 147.424,295.456 C147.424,295.392 147.456,295.341333 147.52,295.304 C147.584,295.266667 147.642667,295.248 147.696,295.248 L147.696,295.248 L147.696,294.96 L145.056,294.96 L145.056,295.248 C145.152,295.248 145.253333,295.269333 145.36,295.312 C145.466667,295.354667 145.557333,295.424 145.632,295.52 L145.632,295.52 L148.352,299.008 L148.352,301.472 C148.352,301.632 148.256,301.712 148.064,301.712 L148.064,301.712 L148.064,302 L150.192,302 Z M160.832,302 L160.832,301.712 C160.736,301.712 160.661333,301.701333 160.608,301.68 C160.554667,301.658667 160.528,301.605333 160.528,301.52 C160.528,301.466667 160.541333,301.405333 160.568,301.336 C160.594667,301.266667 160.629333,301.189333 160.672,301.104 L160.672,301.104 L161.12,300.24 L164.544,300.24 L164.976,301.152 C165.008,301.237333 165.034667,301.306667 165.056,301.36 C165.077333,301.413333 165.088,301.472 165.088,301.536 C165.088,301.621333 165.058667,301.68 165,301.712 C164.941333,301.744 164.885333,301.76 164.832,301.76 L164.832,301.76 L164.832,302 L167.104,302 L167.104,301.712 C167.029333,301.690667 166.96,301.658667 166.896,301.616 C166.832,301.573333 166.773333,301.504 166.72,301.408 L166.72,301.408 L164.128,295.968 C164.074667,295.850667 164.024,295.746667 163.976,295.656 C163.928,295.565333 163.904,295.488 163.904,295.424 C163.904,295.349333 163.922667,295.306667 163.96,295.296 C163.997333,295.285333 164.032,295.269333 164.064,295.248 L164.064,295.248 L164.064,294.96 L161.648,294.96 L161.648,295.248 C161.68,295.269333 161.709333,295.288 161.736,295.304 C161.762667,295.32 161.776,295.36 161.776,295.424 C161.776,295.509333 161.757333,295.597333 161.72,295.688 C161.682667,295.778667 161.632,295.898667 161.568,296.048 L161.568,296.048 L159.184,301.248 C159.141333,301.333333 159.08,301.426667 159,301.528 C158.92,301.629333 158.816,301.690667 158.688,301.712 L158.688,301.712 L158.688,302 L160.832,302 Z M164.032,299.056 L161.6,299.056 L162.736,296.368 L164.032,299.056 Z M176.736,302.048 C177.216,302.048 177.650667,302.005333 178.04,301.92 C178.429333,301.834667 178.770667,301.730667 179.064,301.608 C179.357333,301.485333 179.6,301.376 179.792,301.28 C179.984,301.184 180.122667,301.136 180.208,301.136 C180.261333,301.136 180.352,301.162667 180.48,301.216 L180.48,301.216 L180.64,301.136 L179.456,299.44 L179.28,299.6 C179.290667,299.642667 179.296,299.696 179.296,299.76 L179.296,299.76 L179.296,299.888 C179.296,299.984 179.218667,300.090667 179.064,300.208 C178.909333,300.325333 178.709333,300.434667 178.464,300.536 C178.218667,300.637333 177.946667,300.725333 177.648,300.8 C177.349333,300.874667 177.056,300.912 176.768,300.912 C176.458667,300.912 176.154667,300.856 175.856,300.744 C175.557333,300.632 175.290667,300.466667 175.056,300.248 C174.821333,300.029333 174.632,299.768 174.488,299.464 C174.344,299.16 174.272,298.816 174.272,298.432 C174.272,298.048 174.336,297.706667 174.464,297.408 C174.592,297.109333 174.773333,296.858667 175.008,296.656 C175.242667,296.453333 175.517333,296.301333 175.832,296.2 C176.146667,296.098667 176.496,296.048 176.88,296.048 C177.2,296.048 177.493333,296.077333 177.76,296.136 C178.026667,296.194667 178.258667,296.266667 178.456,296.352 C178.653333,296.437333 178.805333,296.525333 178.912,296.616 C179.018667,296.706667 179.072,296.778667 179.072,296.832 C179.072,296.864 179.074667,296.890667 179.08,296.912 C179.085333,296.933333 179.088,296.954667 179.088,296.976 L179.088,296.976 L179.264,297.104 L180.32,295.584 L180.128,295.472 C180.085333,295.493333 180.045333,295.52 180.008,295.552 C179.970667,295.584 179.925333,295.6 179.872,295.6 C179.797333,295.6 179.674667,295.562667 179.504,295.488 C179.333333,295.413333 179.12,295.328 178.864,295.232 C178.608,295.136 178.312,295.050667 177.976,294.976 C177.64,294.901333 177.269333,294.864 176.864,294.864 C176.341333,294.864 175.832,294.938667 175.336,295.088 C174.84,295.237333 174.4,295.464 174.016,295.768 C173.632,296.072 173.322667,296.448 173.088,296.896 C172.853333,297.344 172.736,297.866667 172.736,298.464 C172.736,299.061333 172.853333,299.586667 173.088,300.04 C173.322667,300.493333 173.626667,300.872 174,301.176 C174.373333,301.48 174.8,301.701333 175.28,301.84 C175.76,301.978667 176.245333,302.048 176.736,302.048 Z M186.512,302.048 C187.152,302.048 187.709333,301.981333 188.184,301.848 C188.658667,301.714667 189.048,301.530667 189.352,301.296 C189.656,301.061333 189.882667,300.792 190.032,300.488 C190.181333,300.184 190.256,299.866667 190.256,299.536 L190.256,299.536 L190.256,295.488 C190.256,295.328 190.373333,295.248 190.608,295.248 L190.608,295.248 L190.608,294.96 L188.384,294.96 L188.384,295.248 C188.650667,295.248 188.784,295.328 188.784,295.488 L188.784,295.488 L188.784,299.152 C188.784,299.664 188.597333,300.074667 188.224,300.384 C187.850667,300.693333 187.28,300.848 186.512,300.848 C185.744,300.848 185.173333,300.693333 184.8,300.384 C184.426667,300.074667 184.24,299.664 184.24,299.152 L184.24,299.152 L184.24,295.488 C184.24,295.328 184.357333,295.248 184.592,295.248 L184.592,295.248 L184.592,294.96 L182.304,294.96 L182.304,295.248 C182.485333,295.248 182.608,295.266667 182.672,295.304 C182.736,295.341333 182.768,295.402667 182.768,295.488 L182.768,295.488 L182.768,299.536 C182.768,299.866667 182.842667,300.184 182.992,300.488 C183.141333,300.792 183.368,301.061333 183.672,301.296 C183.976,301.530667 184.365333,301.714667 184.84,301.848 C185.314667,301.981333 185.872,302.048 186.512,302.048 Z M195.168,302 L195.168,301.712 C195.104,301.712 195.037333,301.693333 194.968,301.656 C194.898667,301.618667 194.864,301.557333 194.864,301.472 L194.864,301.472 L194.864,299.184 L197.088,299.184 L198.352,301.072 C198.512,301.296 198.592,301.461333 198.592,301.568 C198.592,301.664 198.522667,301.712 198.384,301.712 L198.384,301.712 L198.384,302 L200.832,302 L200.832,301.712 C200.714667,301.68 200.605333,301.634667 200.504,301.576 C200.402667,301.517333 200.309333,301.429333 200.224,301.312 L200.224,301.312 L198.656,299.024 C198.88,298.970667 199.098667,298.893333 199.312,298.792 C199.525333,298.690667 199.72,298.557333 199.896,298.392 C200.072,298.226667 200.213333,298.032 200.32,297.808 C200.426667,297.584 200.48,297.328 200.48,297.04 C200.48,296.282667 200.213333,295.746667 199.68,295.432 C199.146667,295.117333 198.405333,294.96 197.456,294.96 L197.456,294.96 L193.04,294.96 L193.04,295.248 C193.232,295.248 193.328,295.328 193.328,295.488 L193.328,295.488 L193.328,301.472 C193.328,301.632 193.232,301.712 193.04,301.712 L193.04,301.712 L193.04,302 L195.168,302 Z M197.424,298 L194.896,298 L194.896,296.144 L197.424,296.144 C197.968,296.144 198.365333,296.221333 198.616,296.376 C198.866667,296.530667 198.992,296.741333 198.992,297.008 C198.992,297.669333 198.469333,298 197.424,298 L197.424,298 Z M209.488,302.176 L209.488,300.496 L209.2,300.496 C209.2,300.592 209.157333,300.669333 209.072,300.728 C208.986667,300.786667 208.88,300.816 208.752,300.816 L208.752,300.816 L204.656,300.816 L204.656,298.928 L206.992,298.928 C207.205333,298.928 207.370667,298.941333 207.488,298.968 C207.605333,298.994667 207.648,299.066667 207.616,299.184 L207.616,299.184 L207.936,299.184 L207.936,297.488 L207.648,297.488 C207.648,297.605333 207.605333,297.677333 207.52,297.704 C207.434667,297.730667 207.301333,297.744 207.12,297.744 L207.12,297.744 L204.656,297.744 L204.656,296.144 L208.56,296.144 C208.890667,296.144 209.056,296.245333 209.056,296.448 L209.056,296.448 L209.344,296.448 L209.344,294.672 L209.056,294.672 C209.056,294.864 208.890667,294.96 208.56,294.96 L208.56,294.96 L202.88,294.96 L202.88,295.248 C202.933333,295.248 202.986667,295.266667 203.04,295.304 C203.093333,295.341333 203.12,295.402667 203.12,295.488 L203.12,295.488 L203.12,301.472 C203.12,301.557333 203.093333,301.618667 203.04,301.656 C202.986667,301.693333 202.933333,301.712 202.88,301.712 L202.88,301.712 L202.88,302 L208.752,302 C208.88,302 208.986667,302.005333 209.072,302.016 C209.157333,302.026667 209.2,302.08 209.2,302.176 L209.2,302.176 L209.488,302.176 Z M215.072,299.088 L215.072,298.896 C214.976,298.896 214.906667,298.856 214.864,298.776 C214.821333,298.696 214.8,298.597333 214.8,298.48 C214.8,298.234667 214.896,298.005333 215.088,297.792 C215.28,297.578667 215.488,297.349333 215.712,297.104 C215.946667,296.858667 216.157333,296.589333 216.344,296.296 C216.530667,296.002667 216.624,295.658667 216.624,295.264 C216.624,294.944 216.557333,294.658667 216.424,294.408 C216.290667,294.157333 216.112,293.949333 215.888,293.784 C215.664,293.618667 215.410667,293.490667 215.128,293.4 C214.845333,293.309333 214.56,293.264 214.272,293.264 C213.824,293.264 213.461333,293.317333 213.184,293.424 C212.906667,293.530667 212.677333,293.645333 212.496,293.768 C212.314667,293.890667 212.168,294.005333 212.056,294.112 C211.944,294.218667 211.834667,294.272 211.728,294.272 C211.717333,294.272 211.658667,294.261333 211.552,294.24 L211.552,294.24 L211.408,294.384 L212.64,295.728 L212.784,295.616 C212.752,295.52 212.736,295.424 212.736,295.328 C212.736,295.264 212.765333,295.181333 212.824,295.08 C212.882667,294.978667 212.968,294.885333 213.08,294.8 C213.192,294.714667 213.330667,294.64 213.496,294.576 C213.661333,294.512 213.845333,294.48 214.048,294.48 C214.325333,294.48 214.557333,294.562667 214.744,294.728 C214.930667,294.893333 215.024,295.12 215.024,295.408 C215.024,295.653333 214.954667,295.869333 214.816,296.056 C214.677333,296.242667 214.517333,296.442667 214.336,296.656 C214.165333,296.858667 214.002667,297.093333 213.848,297.36 C213.693333,297.626667 213.594667,297.984 213.552,298.432 C213.530667,298.613333 213.496,298.736 213.448,298.8 C213.4,298.864 213.344,298.896 213.28,298.896 L213.28,298.896 L213.28,299.088 L215.072,299.088 Z M214.16,302.048 C214.437333,302.048 214.677333,301.954667 214.88,301.768 C215.082667,301.581333 215.184,301.349333 215.184,301.072 C215.184,300.794667 215.082667,300.554667 214.88,300.352 C214.677333,300.149333 214.437333,300.048 214.16,300.048 C213.882667,300.048 213.642667,300.149333 213.44,300.352 C213.237333,300.554667 213.136,300.794667 213.136,301.072 C213.136,301.349333 213.237333,301.581333 213.44,301.768 C213.642667,301.954667 213.882667,302.048 214.16,302.048 Z M38.328,318 L38.328,317.712 C38.2426667,317.712 38.168,317.688 38.104,317.64 C38.04,317.592 38.008,317.52 38.008,317.424 L38.008,317.424 L38.008,315.136 L39.352,314.096 L42.088,317.248 C42.2373333,317.429333 42.312,317.546667 42.312,317.6 C42.312,317.674667 42.2426667,317.712 42.104,317.712 L42.104,317.712 L42.104,318 L45.064,318 L45.064,317.712 C44.8826667,317.658667 44.6986667,317.554667 44.512,317.4 C44.3253333,317.245333 44.1626667,317.088 44.024,316.928 L44.024,316.928 L40.664,313.04 L44.344,310.112 C44.536,309.952 44.728,309.872 44.92,309.872 L44.92,309.872 L44.92,309.584 L41.56,309.584 L41.56,309.872 C41.624,309.872 41.68,309.888 41.728,309.92 C41.776,309.952 41.8,310.005333 41.8,310.08 C41.8,310.133333 41.7573333,310.2 41.672,310.28 C41.5866667,310.36 41.4693333,310.464 41.32,310.592 L41.32,310.592 L38.008,313.2 L38.008,310.16 C38.008,310.064 38.04,309.992 38.104,309.944 C38.168,309.896 38.2426667,309.872 38.328,309.872 L38.328,309.872 L38.328,309.584 L35.832,309.584 L35.832,309.872 C36.0666667,309.872 36.184,309.968 36.184,310.16 L36.184,310.16 L36.184,317.424 C36.184,317.616 36.0666667,317.712 35.832,317.712 L35.832,317.712 L35.832,318 L38.328,318 Z M53.256,318.176 L53.256,316.496 L52.968,316.496 C52.968,316.592 52.9253333,316.669333 52.84,316.728 C52.7546667,316.786667 52.648,316.816 52.52,316.816 L52.52,316.816 L48.424,316.816 L48.424,314.928 L50.76,314.928 C50.9733333,314.928 51.1386667,314.941333 51.256,314.968 C51.3733333,314.994667 51.416,315.066667 51.384,315.184 L51.384,315.184 L51.704,315.184 L51.704,313.488 L51.416,313.488 C51.416,313.605333 51.3733333,313.677333 51.288,313.704 C51.2026667,313.730667 51.0693333,313.744 50.888,313.744 L50.888,313.744 L48.424,313.744 L48.424,312.144 L52.328,312.144 C52.6586667,312.144 52.824,312.245333 52.824,312.448 L52.824,312.448 L53.112,312.448 L53.112,310.672 L52.824,310.672 C52.824,310.864 52.6586667,310.96 52.328,310.96 L52.328,310.96 L46.648,310.96 L46.648,311.248 C46.7013333,311.248 46.7546667,311.266667 46.808,311.304 C46.8613333,311.341333 46.888,311.402667 46.888,311.488 L46.888,311.488 L46.888,317.472 C46.888,317.557333 46.8613333,317.618667 46.808,317.656 C46.7546667,317.693333 46.7013333,317.712 46.648,317.712 L46.648,317.712 L46.648,318 L52.52,318 C52.648,318 52.7546667,318.005333 52.84,318.016 C52.9253333,318.026667 52.968,318.08 52.968,318.176 L52.968,318.176 L53.256,318.176 Z M62.152,318.176 L62.152,316.496 L61.864,316.496 C61.864,316.592 61.8213333,316.669333 61.736,316.728 C61.6506667,316.786667 61.544,316.816 61.416,316.816 L61.416,316.816 L57.32,316.816 L57.32,314.928 L59.656,314.928 C59.8693333,314.928 60.0346667,314.941333 60.152,314.968 C60.2693333,314.994667 60.312,315.066667 60.28,315.184 L60.28,315.184 L60.6,315.184 L60.6,313.488 L60.312,313.488 C60.312,313.605333 60.2693333,313.677333 60.184,313.704 C60.0986667,313.730667 59.9653333,313.744 59.784,313.744 L59.784,313.744 L57.32,313.744 L57.32,312.144 L61.224,312.144 C61.5546667,312.144 61.72,312.245333 61.72,312.448 L61.72,312.448 L62.008,312.448 L62.008,310.672 L61.72,310.672 C61.72,310.864 61.5546667,310.96 61.224,310.96 L61.224,310.96 L55.544,310.96 L55.544,311.248 C55.5973333,311.248 55.6506667,311.266667 55.704,311.304 C55.7573333,311.341333 55.784,311.402667 55.784,311.488 L55.784,311.488 L55.784,317.472 C55.784,317.557333 55.7573333,317.618667 55.704,317.656 C55.6506667,317.693333 55.5973333,317.712 55.544,317.712 L55.544,317.712 L55.544,318 L61.416,318 C61.544,318 61.6506667,318.005333 61.736,318.016 C61.8213333,318.026667 61.864,318.08 61.864,318.176 L61.864,318.176 L62.152,318.176 Z M66.472,318 L66.472,317.712 C66.248,317.712 66.136,317.632 66.136,317.472 L66.136,317.472 L66.136,315.072 L68.856,315.072 C69.72,315.072 70.368,314.925333 70.8,314.632 C71.232,314.338667 71.448,313.808 71.448,313.04 C71.448,312.272 71.232,311.733333 70.8,311.424 C70.368,311.114667 69.72,310.96 68.856,310.96 L68.856,310.96 L64.2,310.96 L64.2,311.248 C64.4666667,311.248 64.6,311.328 64.6,311.488 L64.6,311.488 L64.6,317.472 C64.6,317.632 64.4666667,317.712 64.2,317.712 L64.2,317.712 L64.2,318 L66.472,318 Z M68.824,313.888 L66.136,313.888 L66.136,312.144 L68.824,312.144 C69.1333333,312.144 69.392,312.210667 69.6,312.344 C69.808,312.477333 69.912,312.709333 69.912,313.04 C69.912,313.381333 69.808,313.608 69.6,313.72 C69.392,313.832 69.1333333,313.888 68.824,313.888 L68.824,313.888 Z M80.776,318 L80.776,317.712 C80.4773333,317.712 80.328,317.632 80.328,317.472 L80.328,317.472 L80.328,311.488 C80.328,311.328 80.4773333,311.248 80.776,311.248 L80.776,311.248 L80.776,310.96 L78.344,310.96 L78.344,311.248 C78.5146667,311.248 78.632,311.266667 78.696,311.304 C78.76,311.341333 78.792,311.402667 78.792,311.488 L78.792,311.488 L78.792,317.472 C78.792,317.557333 78.76,317.618667 78.696,317.656 C78.632,317.693333 78.5146667,317.712 78.344,317.712 L78.344,317.712 L78.344,318 L80.776,318 Z M85.496,318 L85.496,317.712 C85.272,317.712 85.16,317.632 85.16,317.472 L85.16,317.472 L85.16,312.816 L89.128,317.04 C89.256,317.178667 89.3706667,317.301333 89.472,317.408 C89.5733333,317.514667 89.624,317.589333 89.624,317.632 C89.624,317.685333 89.5866667,317.712 89.512,317.712 L89.512,317.712 L89.512,318 L91.592,318 L91.592,317.712 C91.4,317.712 91.304,317.632 91.304,317.472 L91.304,317.472 L91.304,311.488 C91.304,311.328 91.4,311.248 91.592,311.248 L91.592,311.248 L91.592,310.96 L89.64,310.96 L89.64,311.248 C89.8533333,311.248 89.96,311.328 89.96,311.488 L89.96,311.488 L89.96,315.824 L86.12,311.76 C85.8853333,311.525333 85.768,311.381333 85.768,311.328 C85.768,311.285333 85.8053333,311.258667 85.88,311.248 L85.88,311.248 L85.88,310.96 L83.528,310.96 L83.528,311.248 C83.72,311.248 83.816,311.328 83.816,311.488 L83.816,311.488 L83.816,317.472 C83.816,317.632 83.72,317.712 83.528,317.712 L83.528,317.712 L83.528,318 L85.496,318 Z M101.224,318 L101.224,317.712 C101.128,317.712 101.042667,317.693333 100.968,317.656 C100.893333,317.618667 100.856,317.557333 100.856,317.472 L100.856,317.472 L100.856,315.024 L103.672,315.024 C103.853333,315.024 103.965333,315.045333 104.008,315.088 C104.050667,315.130667 104.077333,315.194667 104.088,315.28 L104.088,315.28 L104.376,315.28 L104.376,313.6 L104.088,313.6 C104.077333,313.685333 104.050667,313.746667 104.008,313.784 C103.965333,313.821333 103.853333,313.84 103.672,313.84 L103.672,313.84 L100.856,313.84 L100.856,312.144 L105.192,312.144 C105.373333,312.144 105.501333,312.168 105.576,312.216 C105.650667,312.264 105.688,312.314667 105.688,312.368 L105.688,312.368 L105.976,312.368 L105.976,310.672 L105.688,310.672 C105.688,310.757333 105.650667,310.826667 105.576,310.88 C105.501333,310.933333 105.373333,310.96 105.192,310.96 L105.192,310.96 L98.984,310.96 L98.984,311.248 C99.208,311.248 99.32,311.328 99.32,311.488 L99.32,311.488 L99.32,317.472 C99.32,317.632 99.2186667,317.712 99.016,317.712 L99.016,317.712 L99.016,318 L101.224,318 Z M110.056,318 L110.056,317.712 C109.992,317.712 109.925333,317.693333 109.856,317.656 C109.786667,317.618667 109.752,317.557333 109.752,317.472 L109.752,317.472 L109.752,315.184 L111.976,315.184 L113.24,317.072 C113.4,317.296 113.48,317.461333 113.48,317.568 C113.48,317.664 113.410667,317.712 113.272,317.712 L113.272,317.712 L113.272,318 L115.72,318 L115.72,317.712 C115.602667,317.68 115.493333,317.634667 115.392,317.576 C115.290667,317.517333 115.197333,317.429333 115.112,317.312 L115.112,317.312 L113.544,315.024 C113.768,314.970667 113.986667,314.893333 114.2,314.792 C114.413333,314.690667 114.608,314.557333 114.784,314.392 C114.96,314.226667 115.101333,314.032 115.208,313.808 C115.314667,313.584 115.368,313.328 115.368,313.04 C115.368,312.282667 115.101333,311.746667 114.568,311.432 C114.034667,311.117333 113.293333,310.96 112.344,310.96 L112.344,310.96 L107.928,310.96 L107.928,311.248 C108.12,311.248 108.216,311.328 108.216,311.488 L108.216,311.488 L108.216,317.472 C108.216,317.632 108.12,317.712 107.928,317.712 L107.928,317.712 L107.928,318 L110.056,318 Z M112.312,314 L109.784,314 L109.784,312.144 L112.312,312.144 C112.856,312.144 113.253333,312.221333 113.504,312.376 C113.754667,312.530667 113.88,312.741333 113.88,313.008 C113.88,313.669333 113.357333,314 112.312,314 L112.312,314 Z M121.336,318.048 C121.922667,318.048 122.474667,317.981333 122.992,317.848 C123.509333,317.714667 123.96,317.498667 124.344,317.2 C124.728,316.901333 125.032,316.525333 125.256,316.072 C125.48,315.618667 125.592,315.088 125.592,314.48 C125.592,313.872 125.48,313.341333 125.256,312.888 C125.032,312.434667 124.728,312.058667 124.344,311.76 C123.96,311.461333 123.509333,311.237333 122.992,311.088 C122.474667,310.938667 121.922667,310.864 121.336,310.864 C120.749333,310.864 120.197333,310.938667 119.68,311.088 C119.162667,311.237333 118.712,311.461333 118.328,311.76 C117.944,312.058667 117.64,312.434667 117.416,312.888 C117.192,313.341333 117.08,313.872 117.08,314.48 C117.08,315.088 117.192,315.618667 117.416,316.072 C117.64,316.525333 117.944,316.901333 118.328,317.2 C118.712,317.498667 119.162667,317.714667 119.68,317.848 C120.197333,317.981333 120.749333,318.048 121.336,318.048 Z M121.336,316.912 C120.994667,316.912 120.661333,316.856 120.336,316.744 C120.010667,316.632 119.72,316.472 119.464,316.264 C119.208,316.056 119.002667,315.802667 118.848,315.504 C118.693333,315.205333 118.616,314.864 118.616,314.48 C118.616,314.096 118.693333,313.754667 118.848,313.456 C119.002667,313.157333 119.208,312.904 119.464,312.696 C119.72,312.488 120.010667,312.328 120.336,312.216 C120.661333,312.104 120.994667,312.048 121.336,312.048 C121.677333,312.048 122.010667,312.104 122.336,312.216 C122.661333,312.328 122.952,312.488 123.208,312.696 C123.464,312.904 123.669333,313.157333 123.824,313.456 C123.978667,313.754667 124.056,314.096 124.056,314.48 C124.056,314.864 123.978667,315.205333 123.824,315.504 C123.669333,315.802667 123.464,316.056 123.208,316.264 C122.952,316.472 122.661333,316.632 122.336,316.744 C122.010667,316.856 121.677333,316.912 121.336,316.912 Z M129.496,318 L129.496,317.712 C129.272,317.712 129.16,317.632 129.16,317.472 L129.16,317.472 L129.16,312.816 L133.128,317.04 C133.256,317.178667 133.370667,317.301333 133.472,317.408 C133.573333,317.514667 133.624,317.589333 133.624,317.632 C133.624,317.685333 133.586667,317.712 133.512,317.712 L133.512,317.712 L133.512,318 L135.592,318 L135.592,317.712 C135.4,317.712 135.304,317.632 135.304,317.472 L135.304,317.472 L135.304,311.488 C135.304,311.328 135.4,311.248 135.592,311.248 L135.592,311.248 L135.592,310.96 L133.64,310.96 L133.64,311.248 C133.853333,311.248 133.96,311.328 133.96,311.488 L133.96,311.488 L133.96,315.824 L130.12,311.76 C129.885333,311.525333 129.768,311.381333 129.768,311.328 C129.768,311.285333 129.805333,311.258667 129.88,311.248 L129.88,311.248 L129.88,310.96 L127.528,310.96 L127.528,311.248 C127.72,311.248 127.816,311.328 127.816,311.488 L127.816,311.488 L127.816,317.472 C127.816,317.632 127.72,317.712 127.528,317.712 L127.528,317.712 L127.528,318 L129.496,318 Z M141.96,318 L141.96,317.712 C141.768,317.712 141.672,317.632 141.672,317.472 L141.672,317.472 L141.672,312.144 L143.752,312.144 C143.837333,312.144 143.917333,312.165333 143.992,312.208 C144.066667,312.250667 144.104,312.32 144.104,312.416 L144.104,312.416 L144.392,312.416 L144.392,310.576 L144.104,310.576 C144.104,310.725333 144.066667,310.826667 143.992,310.88 C143.917333,310.933333 143.837333,310.96 143.752,310.96 L143.752,310.96 L138.056,310.96 C137.970667,310.96 137.890667,310.933333 137.816,310.88 C137.741333,310.826667 137.704,310.725333 137.704,310.576 L137.704,310.576 L137.416,310.576 L137.416,312.416 L137.704,312.416 C137.704,312.32 137.741333,312.250667 137.816,312.208 C137.890667,312.165333 137.970667,312.144 138.056,312.144 L138.056,312.144 L140.136,312.144 L140.136,317.472 C140.136,317.557333 140.109333,317.618667 140.056,317.656 C140.002667,317.693333 139.949333,317.712 139.896,317.712 L139.896,317.712 L139.896,318 L141.96,318 Z M154.664,318.048 C155.250667,318.048 155.802667,317.981333 156.32,317.848 C156.837333,317.714667 157.288,317.498667 157.672,317.2 C158.056,316.901333 158.36,316.525333 158.584,316.072 C158.808,315.618667 158.92,315.088 158.92,314.48 C158.92,313.872 158.808,313.341333 158.584,312.888 C158.36,312.434667 158.056,312.058667 157.672,311.76 C157.288,311.461333 156.837333,311.237333 156.32,311.088 C155.802667,310.938667 155.250667,310.864 154.664,310.864 C154.077333,310.864 153.525333,310.938667 153.008,311.088 C152.490667,311.237333 152.04,311.461333 151.656,311.76 C151.272,312.058667 150.968,312.434667 150.744,312.888 C150.52,313.341333 150.408,313.872 150.408,314.48 C150.408,315.088 150.52,315.618667 150.744,316.072 C150.968,316.525333 151.272,316.901333 151.656,317.2 C152.04,317.498667 152.490667,317.714667 153.008,317.848 C153.525333,317.981333 154.077333,318.048 154.664,318.048 Z M154.664,316.912 C154.322667,316.912 153.989333,316.856 153.664,316.744 C153.338667,316.632 153.048,316.472 152.792,316.264 C152.536,316.056 152.330667,315.802667 152.176,315.504 C152.021333,315.205333 151.944,314.864 151.944,314.48 C151.944,314.096 152.021333,313.754667 152.176,313.456 C152.330667,313.157333 152.536,312.904 152.792,312.696 C153.048,312.488 153.338667,312.328 153.664,312.216 C153.989333,312.104 154.322667,312.048 154.664,312.048 C155.005333,312.048 155.338667,312.104 155.664,312.216 C155.989333,312.328 156.28,312.488 156.536,312.696 C156.792,312.904 156.997333,313.157333 157.152,313.456 C157.306667,313.754667 157.384,314.096 157.384,314.48 C157.384,314.864 157.306667,315.205333 157.152,315.504 C156.997333,315.802667 156.792,316.056 156.536,316.264 C156.28,316.472 155.989333,316.632 155.664,316.744 C155.338667,316.856 155.005333,316.912 154.664,316.912 Z M163,318 L163,317.712 C162.904,317.712 162.818667,317.693333 162.744,317.656 C162.669333,317.618667 162.632,317.557333 162.632,317.472 L162.632,317.472 L162.632,315.024 L165.448,315.024 C165.629333,315.024 165.741333,315.045333 165.784,315.088 C165.826667,315.130667 165.853333,315.194667 165.864,315.28 L165.864,315.28 L166.152,315.28 L166.152,313.6 L165.864,313.6 C165.853333,313.685333 165.826667,313.746667 165.784,313.784 C165.741333,313.821333 165.629333,313.84 165.448,313.84 L165.448,313.84 L162.632,313.84 L162.632,312.144 L166.968,312.144 C167.149333,312.144 167.277333,312.168 167.352,312.216 C167.426667,312.264 167.464,312.314667 167.464,312.368 L167.464,312.368 L167.752,312.368 L167.752,310.672 L167.464,310.672 C167.464,310.757333 167.426667,310.826667 167.352,310.88 C167.277333,310.933333 167.149333,310.96 166.968,310.96 L166.968,310.96 L160.76,310.96 L160.76,311.248 C160.984,311.248 161.096,311.328 161.096,311.488 L161.096,311.488 L161.096,317.472 C161.096,317.632 160.994667,317.712 160.792,317.712 L160.792,317.712 L160.792,318 L163,318 Z M178.856,318 L178.856,317.712 C178.653333,317.712 178.552,317.632 178.552,317.472 L178.552,317.472 L178.552,315.072 L181,311.904 C181.117333,311.754667 181.253333,311.608 181.408,311.464 C181.562667,311.32 181.704,311.248 181.832,311.248 L181.832,311.248 L181.832,310.96 L179.384,310.96 L179.384,311.248 C179.437333,311.248 179.490667,311.258667 179.544,311.28 C179.597333,311.301333 179.624,311.354667 179.624,311.44 C179.624,311.504 179.6,311.570667 179.552,311.64 C179.504,311.709333 179.432,311.813333 179.336,311.952 L179.336,311.952 L177.912,313.936 L176.296,311.824 C176.242667,311.749333 176.194667,311.685333 176.152,311.632 C176.109333,311.578667 176.088,311.52 176.088,311.456 C176.088,311.392 176.12,311.341333 176.184,311.304 C176.248,311.266667 176.306667,311.248 176.36,311.248 L176.36,311.248 L176.36,310.96 L173.72,310.96 L173.72,311.248 C173.816,311.248 173.917333,311.269333 174.024,311.312 C174.130667,311.354667 174.221333,311.424 174.296,311.52 L174.296,311.52 L177.016,315.008 L177.016,317.472 C177.016,317.632 176.92,317.712 176.728,317.712 L176.728,317.712 L176.728,318 L178.856,318 Z M187.112,318.048 C187.698667,318.048 188.250667,317.981333 188.768,317.848 C189.285333,317.714667 189.736,317.498667 190.12,317.2 C190.504,316.901333 190.808,316.525333 191.032,316.072 C191.256,315.618667 191.368,315.088 191.368,314.48 C191.368,313.872 191.256,313.341333 191.032,312.888 C190.808,312.434667 190.504,312.058667 190.12,311.76 C189.736,311.461333 189.285333,311.237333 188.768,311.088 C188.250667,310.938667 187.698667,310.864 187.112,310.864 C186.525333,310.864 185.973333,310.938667 185.456,311.088 C184.938667,311.237333 184.488,311.461333 184.104,311.76 C183.72,312.058667 183.416,312.434667 183.192,312.888 C182.968,313.341333 182.856,313.872 182.856,314.48 C182.856,315.088 182.968,315.618667 183.192,316.072 C183.416,316.525333 183.72,316.901333 184.104,317.2 C184.488,317.498667 184.938667,317.714667 185.456,317.848 C185.973333,317.981333 186.525333,318.048 187.112,318.048 Z M187.112,316.912 C186.770667,316.912 186.437333,316.856 186.112,316.744 C185.786667,316.632 185.496,316.472 185.24,316.264 C184.984,316.056 184.778667,315.802667 184.624,315.504 C184.469333,315.205333 184.392,314.864 184.392,314.48 C184.392,314.096 184.469333,313.754667 184.624,313.456 C184.778667,313.157333 184.984,312.904 185.24,312.696 C185.496,312.488 185.786667,312.328 186.112,312.216 C186.437333,312.104 186.770667,312.048 187.112,312.048 C187.453333,312.048 187.786667,312.104 188.112,312.216 C188.437333,312.328 188.728,312.488 188.984,312.696 C189.24,312.904 189.445333,313.157333 189.6,313.456 C189.754667,313.754667 189.832,314.096 189.832,314.48 C189.832,314.864 189.754667,315.205333 189.6,315.504 C189.445333,315.802667 189.24,316.056 188.984,316.264 C188.728,316.472 188.437333,316.632 188.112,316.744 C187.786667,316.856 187.453333,316.912 187.112,316.912 Z M197.4,318.048 C198.04,318.048 198.597333,317.981333 199.072,317.848 C199.546667,317.714667 199.936,317.530667 200.24,317.296 C200.544,317.061333 200.770667,316.792 200.92,316.488 C201.069333,316.184 201.144,315.866667 201.144,315.536 L201.144,315.536 L201.144,311.488 C201.144,311.328 201.261333,311.248 201.496,311.248 L201.496,311.248 L201.496,310.96 L199.272,310.96 L199.272,311.248 C199.538667,311.248 199.672,311.328 199.672,311.488 L199.672,311.488 L199.672,315.152 C199.672,315.664 199.485333,316.074667 199.112,316.384 C198.738667,316.693333 198.168,316.848 197.4,316.848 C196.632,316.848 196.061333,316.693333 195.688,316.384 C195.314667,316.074667 195.128,315.664 195.128,315.152 L195.128,315.152 L195.128,311.488 C195.128,311.328 195.245333,311.248 195.48,311.248 L195.48,311.248 L195.48,310.96 L193.192,310.96 L193.192,311.248 C193.373333,311.248 193.496,311.266667 193.56,311.304 C193.624,311.341333 193.656,311.402667 193.656,311.488 L193.656,311.488 L193.656,315.536 C193.656,315.866667 193.730667,316.184 193.88,316.488 C194.029333,316.792 194.256,317.061333 194.56,317.296 C194.864,317.530667 195.253333,317.714667 195.728,317.848 C196.202667,317.981333 196.76,318.048 197.4,318.048 Z M212.616,318 L212.616,317.712 C212.424,317.712 212.328,317.632 212.328,317.472 L212.328,317.472 L212.328,312.144 L214.408,312.144 C214.493333,312.144 214.573333,312.165333 214.648,312.208 C214.722667,312.250667 214.76,312.32 214.76,312.416 L214.76,312.416 L215.048,312.416 L215.048,310.576 L214.76,310.576 C214.76,310.725333 214.722667,310.826667 214.648,310.88 C214.573333,310.933333 214.493333,310.96 214.408,310.96 L214.408,310.96 L208.712,310.96 C208.626667,310.96 208.546667,310.933333 208.472,310.88 C208.397333,310.826667 208.36,310.725333 208.36,310.576 L208.36,310.576 L208.072,310.576 L208.072,312.416 L208.36,312.416 C208.36,312.32 208.397333,312.250667 208.472,312.208 C208.546667,312.165333 208.626667,312.144 208.712,312.144 L208.712,312.144 L210.792,312.144 L210.792,317.472 C210.792,317.557333 210.765333,317.618667 210.712,317.656 C210.658667,317.693333 210.605333,317.712 210.552,317.712 L210.552,317.712 L210.552,318 L212.616,318 Z M220.44,318.048 C221.026667,318.048 221.578667,317.981333 222.096,317.848 C222.613333,317.714667 223.064,317.498667 223.448,317.2 C223.832,316.901333 224.136,316.525333 224.36,316.072 C224.584,315.618667 224.696,315.088 224.696,314.48 C224.696,313.872 224.584,313.341333 224.36,312.888 C224.136,312.434667 223.832,312.058667 223.448,311.76 C223.064,311.461333 222.613333,311.237333 222.096,311.088 C221.578667,310.938667 221.026667,310.864 220.44,310.864 C219.853333,310.864 219.301333,310.938667 218.784,311.088 C218.266667,311.237333 217.816,311.461333 217.432,311.76 C217.048,312.058667 216.744,312.434667 216.52,312.888 C216.296,313.341333 216.184,313.872 216.184,314.48 C216.184,315.088 216.296,315.618667 216.52,316.072 C216.744,316.525333 217.048,316.901333 217.432,317.2 C217.816,317.498667 218.266667,317.714667 218.784,317.848 C219.301333,317.981333 219.853333,318.048 220.44,318.048 Z M220.44,316.912 C220.098667,316.912 219.765333,316.856 219.44,316.744 C219.114667,316.632 218.824,316.472 218.568,316.264 C218.312,316.056 218.106667,315.802667 217.952,315.504 C217.797333,315.205333 217.72,314.864 217.72,314.48 C217.72,314.096 217.797333,313.754667 217.952,313.456 C218.106667,313.157333 218.312,312.904 218.568,312.696 C218.824,312.488 219.114667,312.328 219.44,312.216 C219.765333,312.104 220.098667,312.048 220.44,312.048 C220.781333,312.048 221.114667,312.104 221.44,312.216 C221.765333,312.328 222.056,312.488 222.312,312.696 C222.568,312.904 222.773333,313.157333 222.928,313.456 C223.082667,313.754667 223.16,314.096 223.16,314.48 C223.16,314.864 223.082667,315.205333 222.928,315.504 C222.773333,315.802667 222.568,316.056 222.312,316.264 C222.056,316.472 221.765333,316.632 221.44,316.744 C221.114667,316.856 220.781333,316.912 220.44,316.912 Z M71.392,334.048 C71.872,334.048 72.3066667,334.005333 72.696,333.92 C73.0853333,333.834667 73.4266667,333.730667 73.72,333.608 C74.0133333,333.485333 74.256,333.376 74.448,333.28 C74.64,333.184 74.7786667,333.136 74.864,333.136 C74.9173333,333.136 75.008,333.162667 75.136,333.216 L75.136,333.216 L75.296,333.136 L74.112,331.44 L73.936,331.6 C73.9466667,331.642667 73.952,331.696 73.952,331.76 L73.952,331.76 L73.952,331.888 C73.952,331.984 73.8746667,332.090667 73.72,332.208 C73.5653333,332.325333 73.3653333,332.434667 73.12,332.536 C72.8746667,332.637333 72.6026667,332.725333 72.304,332.8 C72.0053333,332.874667 71.712,332.912 71.424,332.912 C71.1146667,332.912 70.8106667,332.856 70.512,332.744 C70.2133333,332.632 69.9466667,332.466667 69.712,332.248 C69.4773333,332.029333 69.288,331.768 69.144,331.464 C69,331.16 68.928,330.816 68.928,330.432 C68.928,330.048 68.992,329.706667 69.12,329.408 C69.248,329.109333 69.4293333,328.858667 69.664,328.656 C69.8986667,328.453333 70.1733333,328.301333 70.488,328.2 C70.8026667,328.098667 71.152,328.048 71.536,328.048 C71.856,328.048 72.1493333,328.077333 72.416,328.136 C72.6826667,328.194667 72.9146667,328.266667 73.112,328.352 C73.3093333,328.437333 73.4613333,328.525333 73.568,328.616 C73.6746667,328.706667 73.728,328.778667 73.728,328.832 C73.728,328.864 73.7306667,328.890667 73.736,328.912 C73.7413333,328.933333 73.744,328.954667 73.744,328.976 L73.744,328.976 L73.92,329.104 L74.976,327.584 L74.784,327.472 C74.7413333,327.493333 74.7013333,327.52 74.664,327.552 C74.6266667,327.584 74.5813333,327.6 74.528,327.6 C74.4533333,327.6 74.3306667,327.562667 74.16,327.488 C73.9893333,327.413333 73.776,327.328 73.52,327.232 C73.264,327.136 72.968,327.050667 72.632,326.976 C72.296,326.901333 71.9253333,326.864 71.52,326.864 C70.9973333,326.864 70.488,326.938667 69.992,327.088 C69.496,327.237333 69.056,327.464 68.672,327.768 C68.288,328.072 67.9786667,328.448 67.744,328.896 C67.5093333,329.344 67.392,329.866667 67.392,330.464 C67.392,331.061333 67.5093333,331.586667 67.744,332.04 C67.9786667,332.493333 68.2826667,332.872 68.656,333.176 C69.0293333,333.48 69.456,333.701333 69.936,333.84 C70.416,333.978667 70.9013333,334.048 71.392,334.048 Z M81.168,334.048 C81.808,334.048 82.3653333,333.981333 82.84,333.848 C83.3146667,333.714667 83.704,333.530667 84.008,333.296 C84.312,333.061333 84.5386667,332.792 84.688,332.488 C84.8373333,332.184 84.912,331.866667 84.912,331.536 L84.912,331.536 L84.912,327.488 C84.912,327.328 85.0293333,327.248 85.264,327.248 L85.264,327.248 L85.264,326.96 L83.04,326.96 L83.04,327.248 C83.3066667,327.248 83.44,327.328 83.44,327.488 L83.44,327.488 L83.44,331.152 C83.44,331.664 83.2533333,332.074667 82.88,332.384 C82.5066667,332.693333 81.936,332.848 81.168,332.848 C80.4,332.848 79.8293333,332.693333 79.456,332.384 C79.0826667,332.074667 78.896,331.664 78.896,331.152 L78.896,331.152 L78.896,327.488 C78.896,327.328 79.0133333,327.248 79.248,327.248 L79.248,327.248 L79.248,326.96 L76.96,326.96 L76.96,327.248 C77.1413333,327.248 77.264,327.266667 77.328,327.304 C77.392,327.341333 77.424,327.402667 77.424,327.488 L77.424,327.488 L77.424,331.536 C77.424,331.866667 77.4986667,332.184 77.648,332.488 C77.7973333,332.792 78.024,333.061333 78.328,333.296 C78.632,333.530667 79.0213333,333.714667 79.496,333.848 C79.9706667,333.981333 80.528,334.048 81.168,334.048 Z M89.824,334 L89.824,333.712 C89.76,333.712 89.6933333,333.693333 89.624,333.656 C89.5546667,333.618667 89.52,333.557333 89.52,333.472 L89.52,333.472 L89.52,331.184 L91.744,331.184 L93.008,333.072 C93.168,333.296 93.248,333.461333 93.248,333.568 C93.248,333.664 93.1786667,333.712 93.04,333.712 L93.04,333.712 L93.04,334 L95.488,334 L95.488,333.712 C95.3706667,333.68 95.2613333,333.634667 95.16,333.576 C95.0586667,333.517333 94.9653333,333.429333 94.88,333.312 L94.88,333.312 L93.312,331.024 C93.536,330.970667 93.7546667,330.893333 93.968,330.792 C94.1813333,330.690667 94.376,330.557333 94.552,330.392 C94.728,330.226667 94.8693333,330.032 94.976,329.808 C95.0826667,329.584 95.136,329.328 95.136,329.04 C95.136,328.282667 94.8693333,327.746667 94.336,327.432 C93.8026667,327.117333 93.0613333,326.96 92.112,326.96 L92.112,326.96 L87.696,326.96 L87.696,327.248 C87.888,327.248 87.984,327.328 87.984,327.488 L87.984,327.488 L87.984,333.472 C87.984,333.632 87.888,333.712 87.696,333.712 L87.696,333.712 L87.696,334 L89.824,334 Z M92.08,330 L89.552,330 L89.552,328.144 L92.08,328.144 C92.624,328.144 93.0213333,328.221333 93.272,328.376 C93.5226667,328.530667 93.648,328.741333 93.648,329.008 C93.648,329.669333 93.1253333,330 92.08,330 L92.08,330 Z M104.144,334.176 L104.144,332.496 L103.856,332.496 C103.856,332.592 103.813333,332.669333 103.728,332.728 C103.642667,332.786667 103.536,332.816 103.408,332.816 L103.408,332.816 L99.312,332.816 L99.312,330.928 L101.648,330.928 C101.861333,330.928 102.026667,330.941333 102.144,330.968 C102.261333,330.994667 102.304,331.066667 102.272,331.184 L102.272,331.184 L102.592,331.184 L102.592,329.488 L102.304,329.488 C102.304,329.605333 102.261333,329.677333 102.176,329.704 C102.090667,329.730667 101.957333,329.744 101.776,329.744 L101.776,329.744 L99.312,329.744 L99.312,328.144 L103.216,328.144 C103.546667,328.144 103.712,328.245333 103.712,328.448 L103.712,328.448 L104,328.448 L104,326.672 L103.712,326.672 C103.712,326.864 103.546667,326.96 103.216,326.96 L103.216,326.96 L97.536,326.96 L97.536,327.248 C97.5893333,327.248 97.6426667,327.266667 97.696,327.304 C97.7493333,327.341333 97.776,327.402667 97.776,327.488 L97.776,327.488 L97.776,333.472 C97.776,333.557333 97.7493333,333.618667 97.696,333.656 C97.6426667,333.693333 97.5893333,333.712 97.536,333.712 L97.536,333.712 L97.536,334 L103.408,334 C103.536,334 103.642667,334.005333 103.728,334.016 C103.813333,334.026667 103.856,334.08 103.856,334.176 L103.856,334.176 L104.144,334.176 Z M115.168,334.048 C115.605333,334.048 116.077333,334.013333 116.584,333.944 C117.090667,333.874667 117.562667,333.738667 118,333.536 C118.437333,333.333333 118.802667,333.056 119.096,332.704 C119.389333,332.352 119.536,331.898667 119.536,331.344 C119.536,330.864 119.442667,330.474667 119.256,330.176 C119.069333,329.877333 118.824,329.64 118.52,329.464 C118.216,329.288 117.869333,329.16 117.48,329.08 C117.090667,329 116.693333,328.944 116.288,328.912 C115.882667,328.88 115.485333,328.853333 115.096,328.832 C114.706667,328.810667 114.36,328.768 114.056,328.704 C113.752,328.64 113.506667,328.544 113.32,328.416 C113.133333,328.288 113.04,328.096 113.04,327.84 C113.04,327.658667 113.106667,327.506667 113.24,327.384 C113.373333,327.261333 113.541333,327.162667 113.744,327.088 C113.946667,327.013333 114.173333,326.957333 114.424,326.92 C114.674667,326.882667 114.917333,326.864 115.152,326.864 C115.461333,326.864 115.770667,326.893333 116.08,326.952 C116.389333,327.010667 116.677333,327.088 116.944,327.184 C117.210667,327.28 117.442667,327.389333 117.64,327.512 C117.837333,327.634667 117.978667,327.76 118.064,327.888 C118.128,327.984 118.170667,328.106667 118.192,328.256 L118.192,328.256 L118.352,328.32 L119.456,326.32 L119.264,326.192 C119.2,326.256 119.093333,326.288 118.944,326.288 C118.805333,326.288 118.632,326.245333 118.424,326.16 C118.216,326.074667 117.96,325.984 117.656,325.888 C117.352,325.792 116.992,325.701333 116.576,325.616 C116.16,325.530667 115.669333,325.488 115.104,325.488 C114.442667,325.488 113.866667,325.565333 113.376,325.72 C112.885333,325.874667 112.48,326.074667 112.16,326.32 C111.84,326.565333 111.602667,326.848 111.448,327.168 C111.293333,327.488 111.216,327.813333 111.216,328.144 C111.216,328.634667 111.309333,329.032 111.496,329.336 C111.682667,329.64 111.928,329.88 112.232,330.056 C112.536,330.232 112.882667,330.357333 113.272,330.432 C113.661333,330.506667 114.058667,330.56 114.464,330.592 C114.869333,330.624 115.266667,330.648 115.656,330.664 C116.045333,330.68 116.392,330.714667 116.696,330.768 C117,330.821333 117.245333,330.906667 117.432,331.024 C117.618667,331.141333 117.712,331.322667 117.712,331.568 C117.712,331.813333 117.610667,332.010667 117.408,332.16 C117.205333,332.309333 116.965333,332.426667 116.688,332.512 C116.410667,332.597333 116.128,332.653333 115.84,332.68 C115.552,332.706667 115.317333,332.72 115.136,332.72 C114.890667,332.72 114.613333,332.690667 114.304,332.632 C113.994667,332.573333 113.698667,332.496 113.416,332.4 C113.133333,332.304 112.882667,332.194667 112.664,332.072 C112.445333,331.949333 112.298667,331.824 112.224,331.696 C112.181333,331.621333 112.16,331.536 112.16,331.44 L112.16,331.44 L112,331.36 L111.12,333.296 L111.344,333.424 C111.408,333.338667 111.477333,333.296 111.552,333.296 C111.669333,333.296 111.808,333.336 111.968,333.416 C112.128,333.496 112.344,333.586667 112.616,333.688 C112.888,333.789333 113.229333,333.874667 113.64,333.944 C114.050667,334.013333 114.56,334.048 115.168,334.048 Z M126.192,334 L126.192,333.712 C125.989333,333.712 125.888,333.632 125.888,333.472 L125.888,333.472 L125.888,331.072 L128.336,327.904 C128.453333,327.754667 128.589333,327.608 128.744,327.464 C128.898667,327.32 129.04,327.248 129.168,327.248 L129.168,327.248 L129.168,326.96 L126.72,326.96 L126.72,327.248 C126.773333,327.248 126.826667,327.258667 126.88,327.28 C126.933333,327.301333 126.96,327.354667 126.96,327.44 C126.96,327.504 126.936,327.570667 126.888,327.64 C126.84,327.709333 126.768,327.813333 126.672,327.952 L126.672,327.952 L125.248,329.936 L123.632,327.824 C123.578667,327.749333 123.530667,327.685333 123.488,327.632 C123.445333,327.578667 123.424,327.52 123.424,327.456 C123.424,327.392 123.456,327.341333 123.52,327.304 C123.584,327.266667 123.642667,327.248 123.696,327.248 L123.696,327.248 L123.696,326.96 L121.056,326.96 L121.056,327.248 C121.152,327.248 121.253333,327.269333 121.36,327.312 C121.466667,327.354667 121.557333,327.424 121.632,327.52 L121.632,327.52 L124.352,331.008 L124.352,333.472 C124.352,333.632 124.256,333.712 124.064,333.712 L124.064,333.712 L124.064,334 L126.192,334 Z M132.864,334 L132.864,333.712 C132.682667,333.712 132.592,333.632 132.592,333.472 L132.592,333.472 L132.592,328.976 L132.608,328.976 L135.184,334 L135.312,334 L138.032,328.976 L138.064,328.976 L138.064,333.472 C138.096,333.632 138,333.712 137.776,333.712 L137.776,333.712 L137.776,334 L139.632,334 L139.632,333.712 C139.578667,333.712 139.528,333.693333 139.48,333.656 C139.432,333.618667 139.408,333.557333 139.408,333.472 L139.408,333.472 L139.408,327.456 C139.408,327.370667 139.432,327.314667 139.48,327.288 C139.528,327.261333 139.578667,327.248 139.632,327.248 L139.632,327.248 L139.632,326.96 L137.376,326.96 L137.376,327.248 C137.461333,327.248 137.504,327.296 137.504,327.392 C137.504,327.424 137.482667,327.48 137.44,327.56 C137.397333,327.64 137.338667,327.744 137.264,327.872 L137.264,327.872 L135.296,331.456 L133.344,327.856 C133.269333,327.728 133.213333,327.629333 133.176,327.56 C133.138667,327.490667 133.12,327.434667 133.12,327.392 C133.12,327.296 133.173333,327.248 133.28,327.248 L133.28,327.248 L133.28,326.96 L131.056,326.96 L131.056,327.248 C131.130667,327.248 131.181333,327.264 131.208,327.296 C131.234667,327.328 131.248,327.418667 131.248,327.568 L131.248,327.568 L131.248,333.424 C131.248,333.541333 131.229333,333.616 131.192,333.648 C131.154667,333.68 131.109333,333.701333 131.056,333.712 L131.056,333.712 L131.056,334 L132.864,334 Z M144.464,334 L144.464,333.712 C144.24,333.712 144.128,333.632 144.128,333.472 L144.128,333.472 L144.128,331.072 L146.848,331.072 C147.712,331.072 148.36,330.925333 148.792,330.632 C149.224,330.338667 149.44,329.808 149.44,329.04 C149.44,328.272 149.224,327.733333 148.792,327.424 C148.36,327.114667 147.712,326.96 146.848,326.96 L146.848,326.96 L142.192,326.96 L142.192,327.248 C142.458667,327.248 142.592,327.328 142.592,327.488 L142.592,327.488 L142.592,333.472 C142.592,333.632 142.458667,333.712 142.192,333.712 L142.192,333.712 L142.192,334 L144.464,334 Z M146.816,329.888 L144.128,329.888 L144.128,328.144 L146.816,328.144 C147.125333,328.144 147.384,328.210667 147.592,328.344 C147.8,328.477333 147.904,328.709333 147.904,329.04 C147.904,329.381333 147.8,329.608 147.592,329.72 C147.384,329.832 147.125333,329.888 146.816,329.888 L146.816,329.888 Z M155.072,334 L155.072,333.712 C154.88,333.712 154.784,333.632 154.784,333.472 L154.784,333.472 L154.784,328.144 L156.864,328.144 C156.949333,328.144 157.029333,328.165333 157.104,328.208 C157.178667,328.250667 157.216,328.32 157.216,328.416 L157.216,328.416 L157.504,328.416 L157.504,326.576 L157.216,326.576 C157.216,326.725333 157.178667,326.826667 157.104,326.88 C157.029333,326.933333 156.949333,326.96 156.864,326.96 L156.864,326.96 L151.168,326.96 C151.082667,326.96 151.002667,326.933333 150.928,326.88 C150.853333,326.826667 150.816,326.725333 150.816,326.576 L150.816,326.576 L150.528,326.576 L150.528,328.416 L150.816,328.416 C150.816,328.32 150.853333,328.250667 150.928,328.208 C151.002667,328.165333 151.082667,328.144 151.168,328.144 L151.168,328.144 L153.248,328.144 L153.248,333.472 C153.248,333.557333 153.221333,333.618667 153.168,333.656 C153.114667,333.693333 153.061333,333.712 153.008,333.712 L153.008,333.712 L153.008,334 L155.072,334 Z M162.896,334.048 C163.482667,334.048 164.034667,333.981333 164.552,333.848 C165.069333,333.714667 165.52,333.498667 165.904,333.2 C166.288,332.901333 166.592,332.525333 166.816,332.072 C167.04,331.618667 167.152,331.088 167.152,330.48 C167.152,329.872 167.04,329.341333 166.816,328.888 C166.592,328.434667 166.288,328.058667 165.904,327.76 C165.52,327.461333 165.069333,327.237333 164.552,327.088 C164.034667,326.938667 163.482667,326.864 162.896,326.864 C162.309333,326.864 161.757333,326.938667 161.24,327.088 C160.722667,327.237333 160.272,327.461333 159.888,327.76 C159.504,328.058667 159.2,328.434667 158.976,328.888 C158.752,329.341333 158.64,329.872 158.64,330.48 C158.64,331.088 158.752,331.618667 158.976,332.072 C159.2,332.525333 159.504,332.901333 159.888,333.2 C160.272,333.498667 160.722667,333.714667 161.24,333.848 C161.757333,333.981333 162.309333,334.048 162.896,334.048 Z M162.896,332.912 C162.554667,332.912 162.221333,332.856 161.896,332.744 C161.570667,332.632 161.28,332.472 161.024,332.264 C160.768,332.056 160.562667,331.802667 160.408,331.504 C160.253333,331.205333 160.176,330.864 160.176,330.48 C160.176,330.096 160.253333,329.754667 160.408,329.456 C160.562667,329.157333 160.768,328.904 161.024,328.696 C161.28,328.488 161.570667,328.328 161.896,328.216 C162.221333,328.104 162.554667,328.048 162.896,328.048 C163.237333,328.048 163.570667,328.104 163.896,328.216 C164.221333,328.328 164.512,328.488 164.768,328.696 C165.024,328.904 165.229333,329.157333 165.384,329.456 C165.538667,329.754667 165.616,330.096 165.616,330.48 C165.616,330.864 165.538667,331.205333 165.384,331.504 C165.229333,331.802667 165.024,332.056 164.768,332.264 C164.512,332.472 164.221333,332.632 163.896,332.744 C163.570667,332.856 163.237333,332.912 162.896,332.912 Z M171.088,334 L171.088,333.712 C170.906667,333.712 170.816,333.632 170.816,333.472 L170.816,333.472 L170.816,328.976 L170.832,328.976 L173.408,334 L173.536,334 L176.256,328.976 L176.288,328.976 L176.288,333.472 C176.32,333.632 176.224,333.712 176,333.712 L176,333.712 L176,334 L177.856,334 L177.856,333.712 C177.802667,333.712 177.752,333.693333 177.704,333.656 C177.656,333.618667 177.632,333.557333 177.632,333.472 L177.632,333.472 L177.632,327.456 C177.632,327.370667 177.656,327.314667 177.704,327.288 C177.752,327.261333 177.802667,327.248 177.856,327.248 L177.856,327.248 L177.856,326.96 L175.6,326.96 L175.6,327.248 C175.685333,327.248 175.728,327.296 175.728,327.392 C175.728,327.424 175.706667,327.48 175.664,327.56 C175.621333,327.64 175.562667,327.744 175.488,327.872 L175.488,327.872 L173.52,331.456 L171.568,327.856 C171.493333,327.728 171.437333,327.629333 171.4,327.56 C171.362667,327.490667 171.344,327.434667 171.344,327.392 C171.344,327.296 171.397333,327.248 171.504,327.248 L171.504,327.248 L171.504,326.96 L169.28,326.96 L169.28,327.248 C169.354667,327.248 169.405333,327.264 169.432,327.296 C169.458667,327.328 169.472,327.418667 169.472,327.568 L169.472,327.568 L169.472,333.424 C169.472,333.541333 169.453333,333.616 169.416,333.648 C169.378667,333.68 169.333333,333.701333 169.28,333.712 L169.28,333.712 L169.28,334 L171.088,334 Z M183.664,334.048 C184.026667,334.048 184.413333,334.021333 184.824,333.968 C185.234667,333.914667 185.610667,333.802667 185.952,333.632 C186.293333,333.461333 186.578667,333.226667 186.808,332.928 C187.037333,332.629333 187.152,332.245333 187.152,331.776 C187.152,331.306667 187.021333,330.938667 186.76,330.672 C186.498667,330.405333 186.170667,330.202667 185.776,330.064 C185.381333,329.925333 184.954667,329.826667 184.496,329.768 C184.037333,329.709333 183.610667,329.650667 183.216,329.592 C182.821333,329.533333 182.493333,329.453333 182.232,329.352 C181.970667,329.250667 181.84,329.082667 181.84,328.848 C181.84,328.698667 181.882667,328.573333 181.968,328.472 C182.053333,328.370667 182.170667,328.288 182.32,328.224 C182.469333,328.16 182.64,328.114667 182.832,328.088 C183.024,328.061333 183.226667,328.048 183.44,328.048 C183.994667,328.048 184.496,328.112 184.944,328.24 C185.392,328.368 185.722667,328.522667 185.936,328.704 C186.021333,328.768 186.069333,328.832 186.08,328.896 C186.090667,328.96 186.101333,329.024 186.112,329.088 L186.112,329.088 L186.4,329.184 L187.2,327.68 L187.024,327.504 C186.96,327.536 186.906667,327.565333 186.864,327.592 C186.821333,327.618667 186.757333,327.632 186.672,327.632 C186.597333,327.632 186.482667,327.592 186.328,327.512 C186.173333,327.432 185.973333,327.344 185.728,327.248 C185.482667,327.152 185.181333,327.064 184.824,326.984 C184.466667,326.904 184.037333,326.864 183.536,326.864 C182.512,326.864 181.717333,327.066667 181.152,327.472 C180.586667,327.877333 180.304,328.421333 180.304,329.104 C180.304,329.562667 180.434667,329.917333 180.696,330.168 C180.957333,330.418667 181.285333,330.610667 181.68,330.744 C182.074667,330.877333 182.501333,330.973333 182.96,331.032 C183.418667,331.090667 183.845333,331.149333 184.24,331.208 C184.634667,331.266667 184.962667,331.349333 185.224,331.456 C185.485333,331.562667 185.616,331.733333 185.616,331.968 C185.616,332.170667 185.541333,332.333333 185.392,332.456 C185.242667,332.578667 185.061333,332.674667 184.848,332.744 C184.634667,332.813333 184.418667,332.858667 184.2,332.88 C183.981333,332.901333 183.797333,332.912 183.648,332.912 C183.488,332.912 183.266667,332.885333 182.984,332.832 C182.701333,332.778667 182.418667,332.706667 182.136,332.616 C181.853333,332.525333 181.610667,332.413333 181.408,332.28 C181.205333,332.146667 181.104,332 181.104,331.84 C181.104,331.786667 181.106667,331.736 181.112,331.688 C181.117333,331.64 181.12,331.594667 181.12,331.552 L181.12,331.552 L180.816,331.472 L180.08,333.264 L180.304,333.424 C180.357333,333.36 180.421333,333.328 180.496,333.328 C180.538667,333.328 180.661333,333.368 180.864,333.448 C181.066667,333.528 181.314667,333.613333 181.608,333.704 C181.901333,333.794667 182.226667,333.874667 182.584,333.944 C182.941333,334.013333 183.301333,334.048 183.664,334.048 Z M190.672,334.048 C190.981333,334.048 191.248,333.944 191.472,333.736 C191.696,333.528 191.808,333.269333 191.808,332.96 C191.808,332.650667 191.696,332.384 191.472,332.16 C191.248,331.936 190.981333,331.824 190.672,331.824 C190.362667,331.824 190.096,331.936 189.872,332.16 C189.648,332.384 189.536,332.650667 189.536,332.96 C189.536,333.269333 189.648,333.528 189.872,333.736 C190.096,333.944 190.362667,334.048 190.672,334.048 Z" id="Isthisreallyacure?KeepinfrontofyoutocureSymptoms." fill="#000000" fill-rule="nonzero"></path>
    </g>
</svg>