<?xml version="1.0" encoding="UTF-8"?>
<svg width="262px" height="360px" viewBox="0 0 262 360" version="1.1" xmlns="http://www.w3.org/2000/svg" xmlns:xlink="http://www.w3.org/1999/xlink">
    <title>Chest Pain 3</title>
    <g id="Chest-Pain-3" stroke="none" stroke-width="1" fill="none" fill-rule="evenodd">
        <g id="Group" transform="translate(9.000000, 9.000000)" fill="#FFFFFF" stroke="#000000" stroke-width="3">
            <g id="Rectangle">
                <rect x="1.5" y="1.5" width="239" height="337" rx="8"></rect>
            </g>
        </g>
        <path d="M213.652,30.072 C214.292,30.072 214.976,30.02 215.704,29.916 C216.432,29.812 217.1,29.604 217.708,29.292 C218.316,28.98 218.824,28.56 219.232,28.032 C219.64,27.504 219.844,26.832 219.844,26.016 C219.844,25.296 219.624,24.7 219.184,24.228 C218.744,23.756 218.18,23.44 217.492,23.28 L217.492,23.28 L217.492,23.232 C218.068,23.104 218.524,22.796 218.86,22.308 C219.196,21.82 219.364,21.288 219.364,20.712 C219.364,20.088 219.2,19.556 218.872,19.116 C218.544,18.676 218.12,18.316 217.6,18.036 C217.08,17.756 216.504,17.552 215.872,17.424 C215.24,17.296 214.612,17.232 213.988,17.232 C213.06,17.232 212.272,17.324 211.624,17.508 C210.976,17.692 210.444,17.896 210.028,18.12 C209.612,18.344 209.296,18.548 209.08,18.732 C208.864,18.916 208.716,19.008 208.636,19.008 C208.492,19.008 208.356,18.968 208.228,18.888 L208.228,18.888 L207.94,19.104 L209.86,21.552 L210.076,21.408 C210.044,21.328 210.02,21.244 210.004,21.156 C209.988,21.068 209.98,20.992 209.98,20.928 C209.98,20.736 210.1,20.544 210.34,20.352 C210.58,20.16 210.884,19.984 211.252,19.824 C211.62,19.664 212.028,19.536 212.476,19.44 C212.924,19.344 213.364,19.296 213.796,19.296 C214.164,19.296 214.528,19.316 214.888,19.356 C215.248,19.396 215.576,19.472 215.872,19.584 C216.168,19.696 216.408,19.852 216.592,20.052 C216.776,20.252 216.868,20.512 216.868,20.832 C216.868,21.168 216.764,21.448 216.556,21.672 C216.348,21.896 216.096,22.072 215.8,22.2 C215.504,22.328 215.188,22.416 214.852,22.464 C214.516,22.512 214.22,22.536 213.964,22.536 C213.58,22.536 213.232,22.484 212.92,22.38 C212.608,22.276 212.436,22.064 212.404,21.744 L212.404,21.744 L212.116,21.744 L212.116,25.008 L212.404,25.008 C212.5,24.72 212.688,24.54 212.968,24.468 C213.248,24.396 213.58,24.36 213.964,24.36 C214.236,24.36 214.56,24.38 214.936,24.42 C215.312,24.46 215.668,24.544 216.004,24.672 C216.34,24.8 216.624,24.98 216.856,25.212 C217.088,25.444 217.204,25.752 217.204,26.136 C217.204,26.536 217.084,26.86 216.844,27.108 C216.604,27.356 216.312,27.552 215.968,27.696 C215.624,27.84 215.256,27.94 214.864,27.996 C214.472,28.052 214.132,28.08 213.844,28.08 C213.476,28.08 213.024,28.028 212.488,27.924 C211.952,27.82 211.44,27.668 210.952,27.468 C210.464,27.268 210.044,27.024 209.692,26.736 C209.34,26.448 209.164,26.12 209.164,25.752 L209.164,25.752 L209.164,25.584 C209.164,25.504 209.172,25.448 209.188,25.416 L209.188,25.416 L208.924,25.272 L207.532,28.728 L207.748,28.8 C207.812,28.768 207.872,28.736 207.928,28.704 C207.984,28.672 208.052,28.656 208.132,28.656 C208.26,28.656 208.48,28.732 208.792,28.884 C209.104,29.036 209.5,29.204 209.98,29.388 C210.46,29.572 211.012,29.732 211.636,29.868 C212.26,30.004 212.932,30.072 213.652,30.072 Z" id="3" fill="#000000" fill-rule="nonzero"></path>
        <g id="Face" transform="translate(225.000000, 15.000000)">
            <circle id="Oval" stroke="#000000" fill="#FFFFFF" cx="9.5" cy="9.5" r="9"></circle>
            <circle id="Oval" fill="#000000" cx="5" cy="8" r="1"></circle>
            <circle id="Oval-Copy" fill="#000000" cx="12" cy="8" r="1"></circle>
            <line x1="12.0789474" y1="13.9090909" x2="14.5" y2="11.5" id="Line-4" stroke="#000000" stroke-linecap="round"></line>
            <path d="M3,5.89285714 C3.41025641,5.96428571 3.76923077,6 4.07692308,6 C4.38461538,6 5.35897436,5.33333333 7,4" id="Line-2" stroke="#000000"></path>
            <path d="M6,15 C6.96078431,14.3333333 8.07598039,14 9.34558824,14 C10.6151961,14 11.8333333,14.3333333 13,15" id="Line" stroke="#000000" stroke-linecap="round" stroke-linejoin="round"></path>
            <path d="M11.3197366,4.68245322 C11.585843,4.80663622 11.7912611,4.92388646 11.9359908,5.03420394 C12.548667,5.50120471 13.1333088,5.70898724 13.3155349,5.80010028 C13.5440857,5.91437569 13.8101922,6.00751295 14.1138542,6.07951204" id="Line-3" stroke="#000000" stroke-linecap="square" transform="translate(12.716795, 5.380983) rotate(-3.000000) translate(-12.716795, -5.380983) "></path>
            <path d="M2.999,9.347 L3.01687864,9.39698204 C3.09438102,9.62639002 3.1880913,9.89570266 3.30282211,10.2112791 C3.48139895,10.7024692 3.54804655,11.0169045 3.47980817,11.2204078 C3.41244402,11.421304 3.17143148,11.4011566 3.01518318,11.4416373 L3.01518318,11.4416373 L2.86575433,11.4813457 C2.78836954,11.5029149 2.70310591,11.5126925 2.63007237,11.4810832 C2.58941161,11.463485 2.56030088,11.4264037 2.54036126,11.376794 C2.4446463,11.1386559 2.49784548,10.759559 2.69717789,10.2112791 C2.8119087,9.89570266 2.90561898,9.62639002 2.98312136,9.39698204 L2.999,9.347 Z" id="Oval" stroke="#000000"></path>
            <path d="M16,6.347 L16.0168786,6.39698204 C16.094381,6.62639002 16.1880913,6.89570266 16.3028221,7.21127907 C16.481399,7.70246915 16.5480465,8.01690453 16.4798082,8.22040783 C16.412444,8.42130397 16.1714315,8.40115659 16.0151832,8.44163726 L16.0151832,8.44163726 L15.8657543,8.48134574 C15.7883695,8.50291486 15.7031059,8.51269255 15.6300724,8.48108319 C15.5894116,8.46348497 15.5603009,8.42640366 15.5403613,8.37679403 C15.4446463,8.13865595 15.4978455,7.75955902 15.6971779,7.21127907 C15.8119087,6.89570266 15.905619,6.62639002 15.9831214,6.39698204 L16,6.347 Z" id="Oval-Copy-2" stroke="#000000"></path>
        </g>
        <rect id="Rectangle" stroke="#000000" stroke-width="3" x="17.5" y="236.5" width="225" height="105" rx="8"></rect>
        <path d="M45.442,61.108 C46.594,61.108 47.698,60.976 48.754,60.712 C49.81,60.448 50.752,60.136 51.58,59.776 C52.408,59.416 53.092,59.092 53.632,58.804 C54.172,58.516 54.514,58.372 54.658,58.372 C54.73,58.372 54.796,58.378 54.856,58.39 C54.916,58.402 54.982,58.408 55.054,58.408 L55.054,58.408 L55.342,58.12 L52.966,54.304 L52.462,54.592 C52.558,54.712 52.606,54.856 52.606,55.024 C52.606,55.336 52.372,55.666 51.904,56.014 C51.436,56.362 50.854,56.674 50.158,56.95 C49.462,57.226 48.694,57.454 47.854,57.634 C47.014,57.814 46.21,57.904 45.442,57.904 C44.434,57.904 43.468,57.76 42.544,57.472 C41.62,57.184 40.816,56.764 40.132,56.212 C39.448,55.66 38.902,54.982 38.494,54.178 C38.086,53.374 37.882,52.456 37.882,51.424 C37.882,50.392 38.086,49.474 38.494,48.67 C38.902,47.866 39.448,47.188 40.132,46.636 C40.816,46.084 41.62,45.664 42.544,45.376 C43.468,45.088 44.434,44.944 45.442,44.944 C46.042,44.944 46.696,45.016 47.404,45.16 C48.112,45.304 48.784,45.484 49.42,45.7 C50.056,45.916 50.59,46.162 51.022,46.438 C51.454,46.714 51.694,46.984 51.742,47.248 C51.766,47.344 51.784,47.428 51.796,47.5 C51.808,47.572 51.814,47.644 51.814,47.716 L51.814,47.716 L52.174,47.968 L54.982,43.612 L54.442,43.18 C54.394,43.252 54.328,43.348 54.244,43.468 C54.16,43.588 54.058,43.648 53.938,43.648 C53.842,43.648 53.578,43.552 53.146,43.36 C52.714,43.168 52.126,42.964 51.382,42.748 C50.638,42.532 49.768,42.328 48.772,42.136 C47.776,41.944 46.666,41.848 45.442,41.848 C43.93,41.848 42.478,42.052 41.086,42.46 C39.694,42.868 38.464,43.48 37.396,44.296 C36.328,45.112 35.482,46.126 34.858,47.338 C34.234,48.55 33.922,49.948 33.922,51.532 C33.922,53.14 34.234,54.544 34.858,55.744 C35.482,56.944 36.328,57.946 37.396,58.75 C38.464,59.554 39.694,60.148 41.086,60.532 C42.478,60.916 43.93,61.108 45.442,61.108 Z M65.674,61 L65.674,60.352 C65.53,60.352 65.404,60.31 65.296,60.226 C65.188,60.142 65.134,60.004 65.134,59.812 L65.134,59.812 L65.134,54.376 L74.782,54.376 L74.782,59.812 C74.782,60.004 74.728,60.142 74.62,60.226 C74.512,60.31 74.386,60.352 74.242,60.352 L74.242,60.352 L74.242,61 L78.778,61 L78.778,60.352 C78.634,60.352 78.508,60.31 78.4,60.226 C78.292,60.142 78.238,60.004 78.238,59.812 L78.238,59.812 L78.238,46.348 C78.238,46.156 78.292,46.018 78.4,45.934 C78.508,45.85 78.634,45.808 78.778,45.808 L78.778,45.808 L78.778,45.16 L74.242,45.16 L74.242,45.808 C74.386,45.808 74.512,45.85 74.62,45.934 C74.728,46.018 74.782,46.156 74.782,46.348 L74.782,46.348 L74.782,51.424 L65.134,51.424 L65.134,46.348 C65.134,46.156 65.188,46.018 65.296,45.934 C65.404,45.85 65.53,45.808 65.674,45.808 L65.674,45.808 L65.674,45.16 L61.138,45.16 L61.138,45.808 C61.282,45.808 61.408,45.85 61.516,45.934 C61.624,46.018 61.678,46.156 61.678,46.348 L61.678,46.348 L61.678,59.812 C61.678,60.004 61.624,60.142 61.516,60.226 C61.408,60.31 61.282,60.352 61.138,60.352 L61.138,60.352 L61.138,61 L65.674,61 Z M99.802,61.396 L99.802,57.616 L99.154,57.616 C99.154,57.832 99.058,58.006 98.866,58.138 C98.674,58.27 98.434,58.336 98.146,58.336 L98.146,58.336 L88.93,58.336 L88.93,54.088 L94.186,54.088 C94.666,54.088 95.038,54.118 95.302,54.178 C95.566,54.238 95.662,54.4 95.59,54.664 L95.59,54.664 L96.31,54.664 L96.31,50.848 L95.662,50.848 C95.662,51.112 95.566,51.274 95.374,51.334 C95.182,51.394 94.882,51.424 94.474,51.424 L94.474,51.424 L88.93,51.424 L88.93,47.824 L97.714,47.824 C98.458,47.824 98.83,48.052 98.83,48.508 L98.83,48.508 L99.478,48.508 L99.478,44.512 L98.83,44.512 C98.83,44.944 98.458,45.16 97.714,45.16 L97.714,45.16 L84.934,45.16 L84.934,45.808 C85.054,45.808 85.174,45.85 85.294,45.934 C85.414,46.018 85.474,46.156 85.474,46.348 L85.474,46.348 L85.474,59.812 C85.474,60.004 85.414,60.142 85.294,60.226 C85.174,60.31 85.054,60.352 84.934,60.352 L84.934,60.352 L84.934,61 L98.146,61 C98.434,61 98.674,61.012 98.866,61.036 C99.058,61.06 99.154,61.18 99.154,61.396 L99.154,61.396 L99.802,61.396 Z M111.718,61.108 C112.534,61.108 113.404,61.048 114.328,60.928 C115.252,60.808 116.098,60.556 116.866,60.172 C117.634,59.788 118.276,59.26 118.792,58.588 C119.308,57.916 119.566,57.052 119.566,55.996 C119.566,54.94 119.272,54.112 118.684,53.512 C118.096,52.912 117.358,52.456 116.47,52.144 C115.582,51.832 114.622,51.61 113.59,51.478 C112.558,51.346 111.598,51.214 110.71,51.082 C109.822,50.95 109.084,50.77 108.496,50.542 C107.908,50.314 107.614,49.936 107.614,49.408 C107.614,49.072 107.71,48.79 107.902,48.562 C108.094,48.334 108.358,48.148 108.694,48.004 C109.03,47.86 109.414,47.758 109.846,47.698 C110.278,47.638 110.734,47.608 111.214,47.608 C112.462,47.608 113.59,47.752 114.598,48.04 C115.606,48.328 116.35,48.676 116.83,49.084 C117.022,49.228 117.13,49.372 117.154,49.516 C117.178,49.66 117.202,49.804 117.226,49.948 L117.226,49.948 L117.874,50.164 L119.674,46.78 L119.278,46.384 C119.134,46.456 119.014,46.522 118.918,46.582 C118.822,46.642 118.678,46.672 118.486,46.672 C118.318,46.672 118.06,46.582 117.712,46.402 L117.5295,46.3105 C117.211167,46.1555 116.822,45.988 116.362,45.808 C115.81,45.592 115.132,45.394 114.328,45.214 C113.524,45.034 112.558,44.944 111.43,44.944 C109.126,44.944 107.338,45.4 106.066,46.312 C104.794,47.224 104.158,48.448 104.158,49.984 C104.158,51.016 104.452,51.814 105.04,52.378 C105.628,52.942 106.366,53.374 107.254,53.674 C108.142,53.974 109.102,54.19 110.134,54.322 C111.166,54.454 112.126,54.586 113.014,54.718 C113.902,54.85 114.64,55.036 115.228,55.276 C115.816,55.516 116.11,55.9 116.11,56.428 C116.11,56.884 115.942,57.25 115.606,57.526 C115.27,57.802 114.862,58.018 114.382,58.174 C113.902,58.33 113.416,58.432 112.924,58.48 C112.432,58.528 112.018,58.552 111.682,58.552 C111.322,58.552 110.824,58.492 110.188,58.372 C109.552,58.252 108.916,58.09 108.28,57.886 C107.644,57.682 107.098,57.43 106.642,57.13 C106.186,56.83 105.958,56.5 105.958,56.14 C105.958,56.02 105.964,55.906 105.976,55.798 C105.988,55.69 105.994,55.588 105.994,55.492 L105.994,55.492 L105.31,55.312 L103.654,59.344 L104.158,59.704 C104.278,59.56 104.422,59.488 104.59,59.488 C104.686,59.488 104.962,59.578 105.418,59.758 C105.874,59.938 106.432,60.13 107.092,60.334 C107.752,60.538 108.484,60.718 109.288,60.874 C110.092,61.03 110.902,61.108 111.718,61.108 Z M133.39,61 L133.39,60.352 C132.958,60.352 132.742,60.172 132.742,59.812 L132.742,59.812 L132.742,47.824 L137.422,47.824 C137.614,47.824 137.794,47.872 137.962,47.968 C138.13,48.064 138.214,48.22 138.214,48.436 L138.214,48.436 L138.862,48.436 L138.862,44.296 L138.214,44.296 C138.214,44.632 138.13,44.86 137.962,44.98 C137.794,45.1 137.614,45.16 137.422,45.16 L137.422,45.16 L124.606,45.16 C124.414,45.16 124.234,45.1 124.066,44.98 C123.898,44.86 123.814,44.632 123.814,44.296 L123.814,44.296 L123.166,44.296 L123.166,48.436 L123.814,48.436 C123.814,48.22 123.898,48.064 124.066,47.968 C124.234,47.872 124.414,47.824 124.606,47.824 L124.606,47.824 L129.286,47.824 L129.286,59.812 C129.286,60.004 129.226,60.142 129.106,60.226 C128.986,60.31 128.866,60.352 128.746,60.352 L128.746,60.352 L128.746,61 L133.39,61 Z M160.318,61 L160.318,60.352 C159.55,60.352 159.166,60.136 159.166,59.704 L159.166,59.704 L159.166,53.296 L166.402,53.296 C168.706,53.296 170.518,52.87 171.838,52.018 C173.158,51.166 173.818,49.72 173.818,47.68 C173.818,45.64 173.158,44.194 171.838,43.342 C170.518,42.49 168.706,42.064 166.402,42.064 L166.402,42.064 L153.73,42.064 L153.73,42.712 C154.618,42.712 155.062,42.928 155.062,43.36 L155.062,43.36 L155.062,59.704 C155.062,60.136 154.618,60.352 153.73,60.352 L153.73,60.352 L153.73,61 L160.318,61 Z M166.834,49.984 L159.166,49.984 L159.166,45.376 L166.834,45.376 C167.626,45.376 168.304,45.532 168.868,45.844 C169.432,46.156 169.714,46.768 169.714,47.68 C169.714,48.592 169.432,49.204 168.868,49.516 C168.304,49.828 167.626,49.984 166.834,49.984 L166.834,49.984 Z M180.37,61 L180.37,60.352 C180.154,60.352 179.986,60.328 179.866,60.28 C179.746,60.232 179.686,60.112 179.686,59.92 C179.686,59.8 179.716,59.662 179.776,59.506 C179.836,59.35 179.914,59.176 180.01,58.984 L180.01,58.984 L181.018,57.04 L188.722,57.04 L189.694,59.092 C189.766,59.284 189.826,59.44 189.874,59.56 C189.922,59.68 189.946,59.812 189.946,59.956 C189.946,60.148 189.88,60.28 189.748,60.352 C189.616,60.424 189.49,60.46 189.37,60.46 L189.37,60.46 L189.37,61 L194.482,61 L194.482,60.352 C194.314,60.304 194.158,60.232 194.014,60.136 C193.87,60.04 193.738,59.884 193.618,59.668 L193.618,59.668 L187.786,47.428 C187.666,47.164 187.552,46.93 187.444,46.726 C187.336,46.522 187.282,46.348 187.282,46.204 C187.282,46.036 187.324,45.94 187.408,45.916 C187.492,45.892 187.57,45.856 187.642,45.808 L187.642,45.808 L187.642,45.16 L182.206,45.16 L182.206,45.808 C182.278,45.856 182.344,45.898 182.404,45.934 C182.464,45.97 182.494,46.06 182.494,46.204 C182.494,46.396 182.452,46.594 182.368,46.798 C182.284,47.002 182.17,47.272 182.026,47.608 L182.026,47.608 L176.662,59.308 C176.566,59.5 176.428,59.71 176.248,59.938 C176.068,60.166 175.834,60.304 175.546,60.352 L175.546,60.352 L175.546,61 L180.37,61 Z M187.57,54.376 L182.098,54.376 L184.654,48.328 L187.57,54.376 Z M203.734,61 L203.734,60.352 C203.062,60.352 202.726,60.172 202.726,59.812 L202.726,59.812 L202.726,46.348 C202.726,45.988 203.062,45.808 203.734,45.808 L203.734,45.808 L203.734,45.16 L198.262,45.16 L198.262,45.808 C198.646,45.808 198.91,45.85 199.054,45.934 C199.198,46.018 199.27,46.156 199.27,46.348 L199.27,46.348 L199.27,59.812 C199.27,60.004 199.198,60.142 199.054,60.226 C198.91,60.31 198.646,60.352 198.262,60.352 L198.262,60.352 L198.262,61 L203.734,61 Z M214.354,61 L214.354,60.352 C213.85,60.352 213.598,60.172 213.598,59.812 L213.598,59.812 L213.598,49.336 L222.526,58.84 C222.814,59.152 223.072,59.428 223.3,59.668 C223.528,59.908 223.642,60.076 223.642,60.172 C223.642,60.292 223.558,60.352 223.39,60.352 L223.39,60.352 L223.39,61 L228.07,61 L228.07,60.352 C227.638,60.352 227.422,60.172 227.422,59.812 L227.422,59.812 L227.422,46.348 C227.422,45.988 227.638,45.808 228.07,45.808 L228.07,45.808 L228.07,45.16 L223.678,45.16 L223.678,45.808 C224.158,45.808 224.398,45.988 224.398,46.348 L224.398,46.348 L224.398,56.104 L215.758,46.96 C215.23,46.432 214.966,46.108 214.966,45.988 C214.966,45.892 215.05,45.832 215.218,45.808 L215.218,45.808 L215.218,45.16 L209.926,45.16 L209.926,45.808 C210.358,45.808 210.574,45.988 210.574,46.348 L210.574,46.348 L210.574,59.812 C210.574,60.172 210.358,60.352 209.926,60.352 L209.926,60.352 L209.926,61 L214.354,61 Z" id="ChestPain" fill="#000000" fill-rule="nonzero"></path>
        <path d="M54.015,256 L54.015,255.676 C53.859,255.628 53.781,255.508 53.781,255.316 C53.781,255.196 53.871,254.902 54.051,254.434 L54.051,254.434 L56.013,249.232 L56.049,249.232 L58.119,254.542 C58.215,254.758 58.284,254.926 58.326,255.046 C58.368,255.166 58.389,255.274 58.389,255.37 C58.389,255.454 58.35,255.52 58.272,255.568 C58.194,255.616 58.119,255.652 58.047,255.676 L58.047,255.676 L58.047,256 L60.891,256 L60.891,255.676 C60.783,255.676 60.699,255.643 60.639,255.577 C60.579,255.511 60.549,255.436 60.549,255.352 C60.549,255.256 60.576,255.136 60.63,254.992 L60.63,254.992 L60.819,254.488 L63.411,247.612 C63.495,247.396 63.57,247.216 63.636,247.072 C63.702,246.928 63.801,246.856 63.933,246.856 L63.933,246.856 L63.933,246.532 L61.269,246.532 L61.269,246.856 C61.353,246.856 61.425,246.889 61.485,246.955 C61.545,247.021 61.575,247.09 61.575,247.162 C61.575,247.306 61.533,247.468 61.449,247.648 L61.449,247.648 L59.505,252.832 L59.469,252.832 L57.543,247.756 C57.423,247.468 57.363,247.264 57.363,247.144 C57.363,247.072 57.381,247.006 57.417,246.946 C57.453,246.886 57.513,246.856 57.597,246.856 L57.597,246.856 L57.597,246.532 L54.519,246.532 L54.519,246.856 C54.675,246.856 54.753,246.97 54.753,247.198 C54.753,247.258 54.744,247.327 54.726,247.405 C54.708,247.483 54.669,247.6 54.609,247.756 L54.609,247.756 L52.701,252.832 L52.665,252.832 L50.739,247.828 C50.667,247.636 50.622,247.498 50.604,247.414 C50.586,247.33 50.577,247.258 50.577,247.198 C50.577,246.97 50.667,246.856 50.847,246.856 L50.847,246.856 L50.847,246.532 L48.057,246.532 L48.057,246.856 C48.177,246.88 48.264,246.937 48.318,247.027 C48.372,247.117 48.423,247.228 48.471,247.36 L48.471,247.36 L51.351,254.794 C51.399,254.914 51.444,255.028 51.486,255.136 C51.528,255.244 51.549,255.346 51.549,255.442 C51.549,255.526 51.513,255.586 51.441,255.622 C51.369,255.658 51.297,255.676 51.225,255.676 L51.225,255.676 L51.225,256 L54.015,256 Z M68.343,256 L68.343,255.676 C68.271,255.676 68.208,255.655 68.154,255.613 C68.1,255.571 68.073,255.502 68.073,255.406 L68.073,255.406 L68.073,252.688 L72.897,252.688 L72.897,255.406 C72.897,255.502 72.87,255.571 72.816,255.613 C72.762,255.655 72.699,255.676 72.627,255.676 L72.627,255.676 L72.627,256 L74.895,256 L74.895,255.676 C74.823,255.676 74.76,255.655 74.706,255.613 C74.652,255.571 74.625,255.502 74.625,255.406 L74.625,255.406 L74.625,248.674 C74.625,248.578 74.652,248.509 74.706,248.467 C74.76,248.425 74.823,248.404 74.895,248.404 L74.895,248.404 L74.895,248.08 L72.627,248.08 L72.627,248.404 C72.699,248.404 72.762,248.425 72.816,248.467 C72.87,248.509 72.897,248.578 72.897,248.674 L72.897,248.674 L72.897,251.212 L68.073,251.212 L68.073,248.674 C68.073,248.578 68.1,248.509 68.154,248.467 C68.208,248.425 68.271,248.404 68.343,248.404 L68.343,248.404 L68.343,248.08 L66.075,248.08 L66.075,248.404 C66.147,248.404 66.21,248.425 66.264,248.467 C66.318,248.509 66.345,248.578 66.345,248.674 L66.345,248.674 L66.345,255.406 C66.345,255.502 66.318,255.571 66.264,255.613 C66.21,255.655 66.147,255.676 66.075,255.676 L66.075,255.676 L66.075,256 L68.343,256 Z M85.407,256.198 L85.407,254.308 L85.083,254.308 C85.083,254.416 85.035,254.503 84.939,254.569 C84.843,254.635 84.723,254.668 84.579,254.668 L84.579,254.668 L79.971,254.668 L79.971,252.544 L82.599,252.544 C82.839,252.544 83.025,252.559 83.157,252.589 C83.289,252.619 83.337,252.7 83.301,252.832 L83.301,252.832 L83.661,252.832 L83.661,250.924 L83.337,250.924 C83.337,251.056 83.289,251.137 83.193,251.167 C83.097,251.197 82.947,251.212 82.743,251.212 L82.743,251.212 L79.971,251.212 L79.971,249.412 L84.363,249.412 C84.735,249.412 84.921,249.526 84.921,249.754 L84.921,249.754 L85.245,249.754 L85.245,247.756 L84.921,247.756 C84.921,247.972 84.735,248.08 84.363,248.08 L84.363,248.08 L77.973,248.08 L77.973,248.404 C78.033,248.404 78.093,248.425 78.153,248.467 C78.213,248.509 78.243,248.578 78.243,248.674 L78.243,248.674 L78.243,255.406 C78.243,255.502 78.213,255.571 78.153,255.613 C78.093,255.655 78.033,255.676 77.973,255.676 L77.973,255.676 L77.973,256 L84.579,256 C84.723,256 84.843,256.006 84.939,256.018 C85.035,256.03 85.083,256.09 85.083,256.198 L85.083,256.198 L85.407,256.198 Z M90.177,256 L90.177,255.676 C89.925,255.676 89.799,255.586 89.799,255.406 L89.799,255.406 L89.799,250.168 L94.263,254.92 C94.407,255.076 94.536,255.214 94.65,255.334 C94.764,255.454 94.821,255.538 94.821,255.586 C94.821,255.646 94.779,255.676 94.695,255.676 L94.695,255.676 L94.695,256 L97.035,256 L97.035,255.676 C96.819,255.676 96.711,255.586 96.711,255.406 L96.711,255.406 L96.711,248.674 C96.711,248.494 96.819,248.404 97.035,248.404 L97.035,248.404 L97.035,248.08 L94.839,248.08 L94.839,248.404 C95.079,248.404 95.199,248.494 95.199,248.674 L95.199,248.674 L95.199,253.552 L90.879,248.98 C90.615,248.716 90.483,248.554 90.483,248.494 C90.483,248.446 90.525,248.416 90.609,248.404 L90.609,248.404 L90.609,248.08 L87.963,248.08 L87.963,248.404 C88.179,248.404 88.287,248.494 88.287,248.674 L88.287,248.674 L88.287,255.406 C88.287,255.586 88.179,255.676 87.963,255.676 L87.963,255.676 L87.963,256 L90.177,256 Z M108.483,256 L108.483,255.676 C108.171,255.676 108.015,255.568 108.015,255.352 L108.015,255.352 L108.015,247.18 C108.015,246.964 108.171,246.856 108.483,246.856 L108.483,246.856 L108.483,246.532 L105.495,246.532 L105.495,246.856 C105.807,246.856 105.963,246.964 105.963,247.18 L105.963,247.18 L105.963,255.352 C105.963,255.568 105.807,255.676 105.495,255.676 L105.495,255.676 L105.495,256 L108.483,256 Z M120.345,256.054 C120.753,256.054 121.188,256.024 121.65,255.964 C122.112,255.904 122.535,255.778 122.919,255.586 C123.303,255.394 123.624,255.13 123.882,254.794 C124.14,254.458 124.269,254.026 124.269,253.498 C124.269,252.97 124.122,252.556 123.828,252.256 C123.534,251.956 123.165,251.728 122.721,251.572 C122.277,251.416 121.797,251.305 121.281,251.239 C120.765,251.173 120.285,251.107 119.841,251.041 C119.397,250.975 119.028,250.885 118.734,250.771 C118.44,250.657 118.293,250.468 118.293,250.204 C118.293,250.036 118.341,249.895 118.437,249.781 C118.533,249.667 118.665,249.574 118.833,249.502 C119.001,249.43 119.193,249.379 119.409,249.349 C119.625,249.319 119.853,249.304 120.093,249.304 C120.717,249.304 121.281,249.376 121.785,249.52 C122.289,249.664 122.661,249.838 122.901,250.042 C122.997,250.114 123.051,250.186 123.063,250.258 L123.063,250.258 L123.099,250.474 L123.423,250.582 L124.323,248.89 L124.125,248.692 C124.053,248.728 123.993,248.761 123.945,248.791 C123.897,248.821 123.825,248.836 123.729,248.836 C123.645,248.836 123.516,248.791 123.342,248.701 C123.168,248.611 122.943,248.512 122.667,248.404 C122.391,248.296 122.052,248.197 121.65,248.107 C121.248,248.017 120.765,247.972 120.201,247.972 C119.049,247.972 118.155,248.2 117.519,248.656 C116.883,249.112 116.565,249.724 116.565,250.492 C116.565,251.008 116.712,251.407 117.006,251.689 C117.3,251.971 117.669,252.187 118.113,252.337 C118.557,252.487 119.037,252.595 119.553,252.661 C120.069,252.727 120.549,252.793 120.993,252.859 C121.437,252.925 121.806,253.018 122.1,253.138 C122.394,253.258 122.541,253.45 122.541,253.714 C122.541,253.942 122.457,254.125 122.289,254.263 C122.121,254.401 121.917,254.509 121.677,254.587 C121.437,254.665 121.194,254.716 120.948,254.74 C120.702,254.764 120.495,254.776 120.327,254.776 C120.147,254.776 119.898,254.746 119.58,254.686 C119.262,254.626 118.944,254.545 118.626,254.443 C118.308,254.341 118.035,254.215 117.807,254.065 C117.579,253.915 117.465,253.75 117.465,253.57 C117.465,253.51 117.468,253.453 117.474,253.399 C117.48,253.345 117.483,253.294 117.483,253.246 L117.483,253.246 L117.141,253.156 L116.313,255.172 L116.565,255.352 C116.625,255.28 116.697,255.244 116.781,255.244 C116.829,255.244 116.967,255.289 117.195,255.379 C117.423,255.469 117.702,255.565 118.032,255.667 C118.362,255.769 118.728,255.859 119.13,255.937 C119.532,256.015 119.937,256.054 120.345,256.054 Z M128.175,256 L128.175,255.676 C128.067,255.676 127.983,255.664 127.923,255.64 C127.863,255.616 127.833,255.556 127.833,255.46 C127.833,255.4 127.848,255.331 127.878,255.253 C127.908,255.175 127.947,255.088 127.995,254.992 L127.995,254.992 L128.499,254.02 L132.351,254.02 L132.837,255.046 C132.873,255.142 132.903,255.22 132.927,255.28 C132.951,255.34 132.963,255.406 132.963,255.478 C132.963,255.574 132.93,255.64 132.864,255.676 C132.798,255.712 132.735,255.73 132.675,255.73 L132.675,255.73 L132.675,256 L135.231,256 L135.231,255.676 C135.147,255.652 135.069,255.616 134.997,255.568 C134.925,255.52 134.859,255.442 134.799,255.334 L134.799,255.334 L131.883,249.214 C131.823,249.082 131.766,248.965 131.712,248.863 C131.658,248.761 131.631,248.674 131.631,248.602 C131.631,248.518 131.652,248.47 131.694,248.458 C131.736,248.446 131.775,248.428 131.811,248.404 L131.811,248.404 L131.811,248.08 L129.093,248.08 L129.093,248.404 C129.129,248.428 129.162,248.449 129.192,248.467 C129.222,248.485 129.237,248.53 129.237,248.602 C129.237,248.698 129.216,248.797 129.174,248.899 C129.132,249.001 129.075,249.136 129.003,249.304 L129.003,249.304 L126.321,255.154 C126.273,255.25 126.204,255.355 126.114,255.469 C126.024,255.583 125.907,255.652 125.763,255.676 L125.763,255.676 L125.763,256 L128.175,256 Z M131.775,252.688 L129.039,252.688 L130.317,249.664 L131.775,252.688 Z M140.739,256 L140.739,255.676 C140.631,255.676 140.559,255.658 140.523,255.622 C140.487,255.586 140.469,255.52 140.469,255.424 C140.469,255.388 140.514,255.253 140.604,255.019 C140.694,254.785 140.808,254.497 140.946,254.155 C141.084,253.813 141.234,253.441 141.396,253.039 C141.558,252.637 141.711,252.253 141.855,251.887 C141.999,251.521 142.125,251.197 142.233,250.915 C142.341,250.633 142.407,250.438 142.431,250.33 L142.431,250.33 L142.467,250.33 C142.659,250.93 142.857,251.524 143.061,252.112 C143.265,252.7 143.454,253.231 143.628,253.705 C143.802,254.179 143.943,254.572 144.051,254.884 C144.159,255.196 144.213,255.376 144.213,255.424 C144.213,255.52 144.201,255.583 144.177,255.613 C144.153,255.643 144.093,255.664 143.997,255.676 L143.997,255.676 L143.997,256 L146.517,256 L146.517,255.676 C146.349,255.676 146.265,255.598 146.265,255.442 C146.265,255.382 146.301,255.271 146.373,255.109 C146.445,254.947 146.517,254.764 146.589,254.56 L146.589,254.56 L148.659,249.07 C148.815,248.626 148.995,248.404 149.199,248.404 L149.199,248.404 L149.199,248.08 L146.913,248.08 L146.913,248.404 C147.105,248.404 147.201,248.488 147.201,248.656 C147.201,248.74 147.18,248.845 147.138,248.971 C147.096,249.097 147.045,249.244 146.985,249.412 L146.985,249.412 L145.311,253.786 L143.727,249.448 C143.667,249.304 143.607,249.151 143.547,248.989 C143.487,248.827 143.457,248.704 143.457,248.62 C143.457,248.476 143.565,248.404 143.781,248.404 L143.781,248.404 L143.781,248.08 L141.207,248.08 L141.207,248.404 C141.399,248.404 141.495,248.488 141.495,248.656 C141.495,248.752 141.468,248.875 141.414,249.025 C141.36,249.175 141.303,249.334 141.243,249.502 L141.243,249.502 L139.713,253.786 L139.677,253.786 L138.093,249.412 C138.021,249.22 137.961,249.061 137.913,248.935 C137.865,248.809 137.841,248.716 137.841,248.656 C137.841,248.488 137.919,248.404 138.075,248.404 L138.075,248.404 L138.075,248.08 L135.789,248.08 L135.789,248.404 C135.969,248.44 136.095,248.554 136.167,248.746 L136.167,248.746 L138.543,254.992 C138.567,255.052 138.6,255.139 138.642,255.253 C138.684,255.367 138.705,255.46 138.705,255.532 C138.705,255.604 138.687,255.646 138.651,255.658 C138.615,255.67 138.573,255.676 138.525,255.676 L138.525,255.676 L138.525,256 L140.739,256 Z M161.205,256 L161.205,255.676 C160.977,255.676 160.863,255.586 160.863,255.406 L160.863,255.406 L160.863,252.706 L163.617,249.142 C163.749,248.974 163.902,248.809 164.076,248.647 C164.25,248.485 164.409,248.404 164.553,248.404 L164.553,248.404 L164.553,248.08 L161.799,248.08 L161.799,248.404 C161.859,248.404 161.919,248.416 161.979,248.44 C162.039,248.464 162.069,248.524 162.069,248.62 C162.069,248.692 162.042,248.767 161.988,248.845 C161.934,248.923 161.853,249.04 161.745,249.196 L161.745,249.196 L160.143,251.428 L158.325,249.052 C158.265,248.968 158.211,248.896 158.163,248.836 C158.115,248.776 158.091,248.71 158.091,248.638 C158.091,248.566 158.127,248.509 158.199,248.467 C158.271,248.425 158.337,248.404 158.397,248.404 L158.397,248.404 L158.397,248.08 L155.427,248.08 L155.427,248.404 C155.535,248.404 155.649,248.428 155.769,248.476 C155.889,248.524 155.991,248.602 156.075,248.71 L156.075,248.71 L159.135,252.634 L159.135,255.406 C159.135,255.586 159.027,255.676 158.811,255.676 L158.811,255.676 L158.811,256 L161.205,256 Z M170.493,256.054 C171.153,256.054 171.774,255.979 172.356,255.829 C172.938,255.679 173.445,255.436 173.877,255.1 C174.309,254.764 174.651,254.341 174.903,253.831 C175.155,253.321 175.281,252.724 175.281,252.04 C175.281,251.356 175.155,250.759 174.903,250.249 C174.651,249.739 174.309,249.316 173.877,248.98 C173.445,248.644 172.938,248.392 172.356,248.224 C171.774,248.056 171.153,247.972 170.493,247.972 C169.833,247.972 169.212,248.056 168.63,248.224 C168.048,248.392 167.541,248.644 167.109,248.98 C166.677,249.316 166.335,249.739 166.083,250.249 C165.831,250.759 165.705,251.356 165.705,252.04 C165.705,252.724 165.831,253.321 166.083,253.831 C166.335,254.341 166.677,254.764 167.109,255.1 C167.541,255.436 168.048,255.679 168.63,255.829 C169.212,255.979 169.833,256.054 170.493,256.054 Z M170.493,254.776 C170.109,254.776 169.734,254.713 169.368,254.587 C169.002,254.461 168.675,254.281 168.387,254.047 C168.099,253.813 167.868,253.528 167.694,253.192 C167.52,252.856 167.433,252.472 167.433,252.04 C167.433,251.608 167.52,251.224 167.694,250.888 C167.868,250.552 168.099,250.267 168.387,250.033 C168.675,249.799 169.002,249.619 169.368,249.493 C169.734,249.367 170.109,249.304 170.493,249.304 C170.877,249.304 171.252,249.367 171.618,249.493 C171.984,249.619 172.311,249.799 172.599,250.033 C172.887,250.267 173.118,250.552 173.292,250.888 C173.466,251.224 173.553,251.608 173.553,252.04 C173.553,252.472 173.466,252.856 173.292,253.192 C173.118,253.528 172.887,253.813 172.599,254.047 C172.311,254.281 171.984,254.461 171.618,254.587 C171.252,254.713 170.877,254.776 170.493,254.776 Z M182.067,256.054 C182.787,256.054 183.414,255.979 183.948,255.829 C184.482,255.679 184.92,255.472 185.262,255.208 C185.604,254.944 185.859,254.641 186.027,254.299 C186.195,253.957 186.279,253.6 186.279,253.228 L186.279,253.228 L186.279,248.674 C186.279,248.494 186.411,248.404 186.675,248.404 L186.675,248.404 L186.675,248.08 L184.173,248.08 L184.173,248.404 C184.473,248.404 184.623,248.494 184.623,248.674 L184.623,248.674 L184.623,252.796 C184.623,253.372 184.413,253.834 183.993,254.182 C183.573,254.53 182.931,254.704 182.067,254.704 C181.203,254.704 180.561,254.53 180.141,254.182 C179.721,253.834 179.511,253.372 179.511,252.796 L179.511,252.796 L179.511,248.674 C179.511,248.494 179.643,248.404 179.907,248.404 L179.907,248.404 L179.907,248.08 L177.333,248.08 L177.333,248.404 C177.537,248.404 177.675,248.425 177.747,248.467 C177.819,248.509 177.855,248.578 177.855,248.674 L177.855,248.674 L177.855,253.228 C177.855,253.6 177.939,253.957 178.107,254.299 C178.275,254.641 178.53,254.944 178.872,255.208 C179.214,255.472 179.652,255.679 180.186,255.829 C180.72,255.979 181.347,256.054 182.067,256.054 Z M197.205,256 L197.205,255.676 C197.001,255.676 196.899,255.586 196.899,255.406 L196.899,255.406 L196.899,250.348 L196.917,250.348 L199.815,256 L199.959,256 L203.019,250.348 L203.055,250.348 L203.055,255.406 C203.091,255.586 202.983,255.676 202.731,255.676 L202.731,255.676 L202.731,256 L204.819,256 L204.819,255.676 C204.759,255.676 204.702,255.655 204.648,255.613 C204.594,255.571 204.567,255.502 204.567,255.406 L204.567,255.406 L204.567,248.638 C204.567,248.542 204.594,248.479 204.648,248.449 C204.702,248.419 204.759,248.404 204.819,248.404 L204.819,248.404 L204.819,248.08 L202.281,248.08 L202.281,248.404 C202.377,248.404 202.425,248.458 202.425,248.566 C202.425,248.602 202.401,248.665 202.353,248.755 C202.305,248.845 202.239,248.962 202.155,249.106 L202.155,249.106 L199.941,253.138 L197.745,249.088 C197.661,248.944 197.598,248.833 197.556,248.755 C197.514,248.677 197.493,248.614 197.493,248.566 C197.493,248.458 197.553,248.404 197.673,248.404 L197.673,248.404 L197.673,248.08 L195.171,248.08 L195.171,248.404 C195.255,248.404 195.312,248.422 195.342,248.458 C195.372,248.494 195.387,248.596 195.387,248.764 L195.387,248.764 L195.387,255.352 C195.387,255.484 195.366,255.568 195.324,255.604 C195.282,255.64 195.231,255.664 195.171,255.676 L195.171,255.676 L195.171,256 L197.205,256 Z M212.703,256 L212.703,255.676 C212.475,255.676 212.361,255.586 212.361,255.406 L212.361,255.406 L212.361,252.706 L215.115,249.142 C215.247,248.974 215.4,248.809 215.574,248.647 C215.748,248.485 215.907,248.404 216.051,248.404 L216.051,248.404 L216.051,248.08 L213.297,248.08 L213.297,248.404 C213.357,248.404 213.417,248.416 213.477,248.44 C213.537,248.464 213.567,248.524 213.567,248.62 C213.567,248.692 213.54,248.767 213.486,248.845 C213.432,248.923 213.351,249.04 213.243,249.196 L213.243,249.196 L211.641,251.428 L209.823,249.052 C209.763,248.968 209.709,248.896 209.661,248.836 C209.613,248.776 209.589,248.71 209.589,248.638 C209.589,248.566 209.625,248.509 209.697,248.467 C209.769,248.425 209.835,248.404 209.895,248.404 L209.895,248.404 L209.895,248.08 L206.925,248.08 L206.925,248.404 C207.033,248.404 207.147,248.428 207.267,248.476 C207.387,248.524 207.489,248.602 207.573,248.71 L207.573,248.71 L210.633,252.634 L210.633,255.406 C210.633,255.586 210.525,255.676 210.309,255.676 L210.309,255.676 L210.309,256 L212.703,256 Z M40.335,274 L40.335,273.676 C40.263,273.676 40.2,273.655 40.146,273.613 C40.092,273.571 40.065,273.502 40.065,273.406 L40.065,273.406 L40.065,270.688 L44.889,270.688 L44.889,273.406 C44.889,273.502 44.862,273.571 44.808,273.613 C44.754,273.655 44.691,273.676 44.619,273.676 L44.619,273.676 L44.619,274 L46.887,274 L46.887,273.676 C46.815,273.676 46.752,273.655 46.698,273.613 C46.644,273.571 46.617,273.502 46.617,273.406 L46.617,273.406 L46.617,266.674 C46.617,266.578 46.644,266.509 46.698,266.467 C46.752,266.425 46.815,266.404 46.887,266.404 L46.887,266.404 L46.887,266.08 L44.619,266.08 L44.619,266.404 C44.691,266.404 44.754,266.425 44.808,266.467 C44.862,266.509 44.889,266.578 44.889,266.674 L44.889,266.674 L44.889,269.212 L40.065,269.212 L40.065,266.674 C40.065,266.578 40.092,266.509 40.146,266.467 C40.2,266.425 40.263,266.404 40.335,266.404 L40.335,266.404 L40.335,266.08 L38.067,266.08 L38.067,266.404 C38.139,266.404 38.202,266.425 38.256,266.467 C38.31,266.509 38.337,266.578 38.337,266.674 L38.337,266.674 L38.337,273.406 C38.337,273.502 38.31,273.571 38.256,273.613 C38.202,273.655 38.139,273.676 38.067,273.676 L38.067,273.676 L38.067,274 L40.335,274 Z M57.399,274.198 L57.399,272.308 L57.075,272.308 C57.075,272.416 57.027,272.503 56.931,272.569 C56.835,272.635 56.715,272.668 56.571,272.668 L56.571,272.668 L51.963,272.668 L51.963,270.544 L54.591,270.544 C54.831,270.544 55.017,270.559 55.149,270.589 C55.281,270.619 55.329,270.7 55.293,270.832 L55.293,270.832 L55.653,270.832 L55.653,268.924 L55.329,268.924 C55.329,269.056 55.281,269.137 55.185,269.167 C55.089,269.197 54.939,269.212 54.735,269.212 L54.735,269.212 L51.963,269.212 L51.963,267.412 L56.355,267.412 C56.727,267.412 56.913,267.526 56.913,267.754 L56.913,267.754 L57.237,267.754 L57.237,265.756 L56.913,265.756 C56.913,265.972 56.727,266.08 56.355,266.08 L56.355,266.08 L49.965,266.08 L49.965,266.404 C50.025,266.404 50.085,266.425 50.145,266.467 C50.205,266.509 50.235,266.578 50.235,266.674 L50.235,266.674 L50.235,273.406 C50.235,273.502 50.205,273.571 50.145,273.613 C50.085,273.655 50.025,273.676 49.965,273.676 L49.965,273.676 L49.965,274 L56.571,274 C56.715,274 56.835,274.006 56.931,274.018 C57.027,274.03 57.075,274.09 57.075,274.198 L57.075,274.198 L57.399,274.198 Z M61.179,274 L61.179,273.676 C61.071,273.676 60.987,273.664 60.927,273.64 C60.867,273.616 60.837,273.556 60.837,273.46 C60.837,273.4 60.852,273.331 60.882,273.253 C60.912,273.175 60.951,273.088 60.999,272.992 L60.999,272.992 L61.503,272.02 L65.355,272.02 L65.841,273.046 C65.877,273.142 65.907,273.22 65.931,273.28 C65.955,273.34 65.967,273.406 65.967,273.478 C65.967,273.574 65.934,273.64 65.868,273.676 C65.802,273.712 65.739,273.73 65.679,273.73 L65.679,273.73 L65.679,274 L68.235,274 L68.235,273.676 C68.151,273.652 68.073,273.616 68.001,273.568 C67.929,273.52 67.863,273.442 67.803,273.334 L67.803,273.334 L64.887,267.214 C64.827,267.082 64.77,266.965 64.716,266.863 C64.662,266.761 64.635,266.674 64.635,266.602 C64.635,266.518 64.656,266.47 64.698,266.458 C64.74,266.446 64.779,266.428 64.815,266.404 L64.815,266.404 L64.815,266.08 L62.097,266.08 L62.097,266.404 C62.133,266.428 62.166,266.449 62.196,266.467 C62.226,266.485 62.241,266.53 62.241,266.602 C62.241,266.698 62.22,266.797 62.178,266.899 C62.136,267.001 62.079,267.136 62.007,267.304 L62.007,267.304 L59.325,273.154 C59.277,273.25 59.208,273.355 59.118,273.469 C59.028,273.583 58.911,273.652 58.767,273.676 L58.767,273.676 L58.767,274 L61.179,274 Z M64.779,270.688 L62.043,270.688 L63.321,267.664 L64.779,270.688 Z M72.303,274 L72.303,273.676 C72.231,273.676 72.156,273.655 72.078,273.613 C72,273.571 71.961,273.502 71.961,273.406 L71.961,273.406 L71.961,270.832 L74.463,270.832 L75.885,272.956 C76.065,273.208 76.155,273.394 76.155,273.514 C76.155,273.622 76.077,273.676 75.921,273.676 L75.921,273.676 L75.921,274 L78.675,274 L78.675,273.676 C78.543,273.64 78.42,273.589 78.306,273.523 C78.192,273.457 78.087,273.358 77.991,273.226 L77.991,273.226 L76.227,270.652 C76.479,270.592 76.725,270.505 76.965,270.391 C77.205,270.277 77.424,270.127 77.622,269.941 C77.82,269.755 77.979,269.536 78.099,269.284 C78.219,269.032 78.279,268.744 78.279,268.42 C78.279,267.568 77.979,266.965 77.379,266.611 C76.779,266.257 75.945,266.08 74.877,266.08 L74.877,266.08 L69.909,266.08 L69.909,266.404 C70.125,266.404 70.233,266.494 70.233,266.674 L70.233,266.674 L70.233,273.406 C70.233,273.586 70.125,273.676 69.909,273.676 L69.909,273.676 L69.909,274 L72.303,274 Z M74.841,269.5 L71.997,269.5 L71.997,267.412 L74.841,267.412 C75.453,267.412 75.9,267.499 76.182,267.673 C76.464,267.847 76.605,268.084 76.605,268.384 C76.605,269.128 76.017,269.5 74.841,269.5 L74.841,269.5 Z M85.191,274 L85.191,273.676 C84.975,273.676 84.867,273.586 84.867,273.406 L84.867,273.406 L84.867,267.412 L87.207,267.412 C87.303,267.412 87.393,267.436 87.477,267.484 C87.561,267.532 87.603,267.61 87.603,267.718 L87.603,267.718 L87.927,267.718 L87.927,265.648 L87.603,265.648 C87.603,265.816 87.561,265.93 87.477,265.99 C87.393,266.05 87.303,266.08 87.207,266.08 L87.207,266.08 L80.799,266.08 C80.703,266.08 80.613,266.05 80.529,265.99 C80.445,265.93 80.403,265.816 80.403,265.648 L80.403,265.648 L80.079,265.648 L80.079,267.718 L80.403,267.718 C80.403,267.61 80.445,267.532 80.529,267.484 C80.613,267.436 80.703,267.412 80.799,267.412 L80.799,267.412 L83.139,267.412 L83.139,273.406 C83.139,273.502 83.109,273.571 83.049,273.613 C82.989,273.655 82.929,273.676 82.869,273.676 L82.869,273.676 L82.869,274 L85.191,274 Z M98.853,274.054 C99.261,274.054 99.696,274.024 100.158,273.964 C100.62,273.904 101.043,273.778 101.427,273.586 C101.811,273.394 102.132,273.13 102.39,272.794 C102.648,272.458 102.777,272.026 102.777,271.498 C102.777,270.97 102.63,270.556 102.336,270.256 C102.042,269.956 101.673,269.728 101.229,269.572 C100.785,269.416 100.305,269.305 99.789,269.239 C99.273,269.173 98.793,269.107 98.349,269.041 C97.905,268.975 97.536,268.885 97.242,268.771 C96.948,268.657 96.801,268.468 96.801,268.204 C96.801,268.036 96.849,267.895 96.945,267.781 C97.041,267.667 97.173,267.574 97.341,267.502 C97.509,267.43 97.701,267.379 97.917,267.349 C98.133,267.319 98.361,267.304 98.601,267.304 C99.225,267.304 99.789,267.376 100.293,267.52 C100.797,267.664 101.169,267.838 101.409,268.042 C101.505,268.114 101.559,268.186 101.571,268.258 L101.571,268.258 L101.607,268.474 L101.931,268.582 L102.831,266.89 L102.633,266.692 C102.561,266.728 102.501,266.761 102.453,266.791 C102.405,266.821 102.333,266.836 102.237,266.836 C102.153,266.836 102.024,266.791 101.85,266.701 C101.676,266.611 101.451,266.512 101.175,266.404 C100.899,266.296 100.56,266.197 100.158,266.107 C99.756,266.017 99.273,265.972 98.709,265.972 C97.557,265.972 96.663,266.2 96.027,266.656 C95.391,267.112 95.073,267.724 95.073,268.492 C95.073,269.008 95.22,269.407 95.514,269.689 C95.808,269.971 96.177,270.187 96.621,270.337 C97.065,270.487 97.545,270.595 98.061,270.661 C98.577,270.727 99.057,270.793 99.501,270.859 C99.945,270.925 100.314,271.018 100.608,271.138 C100.902,271.258 101.049,271.45 101.049,271.714 C101.049,271.942 100.965,272.125 100.797,272.263 C100.629,272.401 100.425,272.509 100.185,272.587 C99.945,272.665 99.702,272.716 99.456,272.74 C99.21,272.764 99.003,272.776 98.835,272.776 C98.655,272.776 98.406,272.746 98.088,272.686 C97.77,272.626 97.452,272.545 97.134,272.443 C96.816,272.341 96.543,272.215 96.315,272.065 C96.087,271.915 95.973,271.75 95.973,271.57 C95.973,271.51 95.976,271.453 95.982,271.399 C95.988,271.345 95.991,271.294 95.991,271.246 L95.991,271.246 L95.649,271.156 L94.821,273.172 L95.073,273.352 C95.133,273.28 95.205,273.244 95.289,273.244 C95.337,273.244 95.475,273.289 95.703,273.379 C95.931,273.469 96.21,273.565 96.54,273.667 C96.87,273.769 97.236,273.859 97.638,273.937 C98.04,274.015 98.445,274.054 98.853,274.054 Z M107.691,274 L107.691,273.676 C107.463,273.676 107.349,273.586 107.349,273.406 L107.349,273.406 L107.349,271.39 L108.753,270.274 L110.967,272.974 C111.123,273.154 111.228,273.286 111.282,273.37 C111.336,273.454 111.363,273.52 111.363,273.568 C111.363,273.64 111.297,273.676 111.165,273.676 L111.165,273.676 L111.165,274 L113.829,274 L113.829,273.676 C113.661,273.628 113.493,273.511 113.325,273.325 C113.157,273.139 113.001,272.956 112.857,272.776 L112.857,272.776 L110.013,269.248 L113.019,266.818 C113.307,266.59 113.523,266.452 113.667,266.404 L113.667,266.404 L113.667,266.08 L110.697,266.08 L110.697,266.35 C110.757,266.35 110.82,266.368 110.886,266.404 C110.952,266.44 110.985,266.488 110.985,266.548 C110.985,266.596 110.871,266.719 110.643,266.917 C110.415,267.115 110.127,267.358 109.779,267.646 C109.431,267.934 109.041,268.249 108.609,268.591 C108.177,268.933 107.757,269.272 107.349,269.608 L107.349,269.608 L107.349,266.674 C107.349,266.494 107.463,266.404 107.691,266.404 L107.691,266.404 L107.691,266.08 L105.333,266.08 L105.333,266.404 C105.525,266.404 105.621,266.494 105.621,266.674 L105.621,266.674 L105.621,273.406 C105.621,273.586 105.525,273.676 105.333,273.676 L105.333,273.676 L105.333,274 L107.691,274 Z M118.365,274 L118.365,273.676 C118.029,273.676 117.861,273.586 117.861,273.406 L117.861,273.406 L117.861,266.674 C117.861,266.494 118.029,266.404 118.365,266.404 L118.365,266.404 L118.365,266.08 L115.629,266.08 L115.629,266.404 C115.821,266.404 115.953,266.425 116.025,266.467 C116.097,266.509 116.133,266.578 116.133,266.674 L116.133,266.674 L116.133,273.406 C116.133,273.502 116.097,273.571 116.025,273.613 C115.953,273.655 115.821,273.676 115.629,273.676 L115.629,273.676 L115.629,274 L118.365,274 Z M123.765,274 L123.765,273.676 C123.513,273.676 123.387,273.586 123.387,273.406 L123.387,273.406 L123.387,270.706 L126.447,270.706 C127.419,270.706 128.148,270.541 128.634,270.211 C129.12,269.881 129.363,269.284 129.363,268.42 C129.363,267.556 129.12,266.95 128.634,266.602 C128.148,266.254 127.419,266.08 126.447,266.08 L126.447,266.08 L121.209,266.08 L121.209,266.404 C121.509,266.404 121.659,266.494 121.659,266.674 L121.659,266.674 L121.659,273.406 C121.659,273.586 121.509,273.676 121.209,273.676 L121.209,273.676 L121.209,274 L123.765,274 Z M126.411,269.374 L123.387,269.374 L123.387,267.412 L126.411,267.412 C126.759,267.412 127.05,267.487 127.284,267.637 C127.518,267.787 127.635,268.048 127.635,268.42 C127.635,268.804 127.518,269.059 127.284,269.185 C127.05,269.311 126.759,269.374 126.411,269.374 L126.411,269.374 Z M133.773,274 L133.773,273.676 C133.521,273.676 133.395,273.586 133.395,273.406 L133.395,273.406 L133.395,270.706 L136.455,270.706 C137.427,270.706 138.156,270.541 138.642,270.211 C139.128,269.881 139.371,269.284 139.371,268.42 C139.371,267.556 139.128,266.95 138.642,266.602 C138.156,266.254 137.427,266.08 136.455,266.08 L136.455,266.08 L131.217,266.08 L131.217,266.404 C131.517,266.404 131.667,266.494 131.667,266.674 L131.667,266.674 L131.667,273.406 C131.667,273.586 131.517,273.676 131.217,273.676 L131.217,273.676 L131.217,274 L133.773,274 Z M136.419,269.374 L133.395,269.374 L133.395,267.412 L136.419,267.412 C136.767,267.412 137.058,267.487 137.292,267.637 C137.526,267.787 137.643,268.048 137.643,268.42 C137.643,268.804 137.526,269.059 137.292,269.185 C137.058,269.311 136.767,269.374 136.419,269.374 L136.419,269.374 Z M148.929,274.198 L148.929,272.308 L148.605,272.308 C148.605,272.416 148.557,272.503 148.461,272.569 C148.365,272.635 148.245,272.668 148.101,272.668 L148.101,272.668 L143.493,272.668 L143.493,270.544 L146.121,270.544 C146.361,270.544 146.547,270.559 146.679,270.589 C146.811,270.619 146.859,270.7 146.823,270.832 L146.823,270.832 L147.183,270.832 L147.183,268.924 L146.859,268.924 C146.859,269.056 146.811,269.137 146.715,269.167 C146.619,269.197 146.469,269.212 146.265,269.212 L146.265,269.212 L143.493,269.212 L143.493,267.412 L147.885,267.412 C148.257,267.412 148.443,267.526 148.443,267.754 L148.443,267.754 L148.767,267.754 L148.767,265.756 L148.443,265.756 C148.443,265.972 148.257,266.08 147.885,266.08 L147.885,266.08 L141.495,266.08 L141.495,266.404 C141.555,266.404 141.615,266.425 141.675,266.467 C141.735,266.509 141.765,266.578 141.765,266.674 L141.765,266.674 L141.765,273.406 C141.765,273.502 141.735,273.571 141.675,273.613 C141.615,273.655 141.555,273.676 141.495,273.676 L141.495,273.676 L141.495,274 L148.101,274 C148.245,274 148.365,274.006 148.461,274.018 C148.557,274.03 148.605,274.09 148.605,274.198 L148.605,274.198 L148.929,274.198 Z M156.309,274 C157.017,274 157.617,273.886 158.109,273.658 C158.601,273.43 159.003,273.133 159.315,272.767 C159.627,272.401 159.855,271.981 159.999,271.507 C160.143,271.033 160.215,270.544 160.215,270.04 C160.215,269.536 160.14,269.047 159.99,268.573 C159.84,268.099 159.606,267.679 159.288,267.313 C158.97,266.947 158.559,266.65 158.055,266.422 C157.551,266.194 156.945,266.08 156.237,266.08 L156.237,266.08 L151.233,266.08 L151.233,266.404 C151.509,266.404 151.647,266.494 151.647,266.674 L151.647,266.674 L151.647,273.406 C151.647,273.586 151.509,273.676 151.233,273.676 L151.233,273.676 L151.233,274 L156.309,274 Z M155.715,272.668 L153.375,272.668 L153.375,267.412 L155.715,267.412 C156.087,267.412 156.441,267.433 156.777,267.475 C157.113,267.517 157.407,267.625 157.659,267.799 C157.911,267.973 158.112,268.231 158.262,268.573 C158.412,268.915 158.487,269.386 158.487,269.986 C158.487,270.586 158.412,271.063 158.262,271.417 C158.112,271.771 157.911,272.041 157.659,272.227 C157.407,272.413 157.113,272.533 156.777,272.587 C156.441,272.641 156.087,272.668 155.715,272.668 L155.715,272.668 Z M169.197,274 L169.197,273.676 C169.089,273.676 169.005,273.664 168.945,273.64 C168.885,273.616 168.855,273.556 168.855,273.46 C168.855,273.4 168.87,273.331 168.9,273.253 C168.93,273.175 168.969,273.088 169.017,272.992 L169.017,272.992 L169.521,272.02 L173.373,272.02 L173.859,273.046 C173.895,273.142 173.925,273.22 173.949,273.28 C173.973,273.34 173.985,273.406 173.985,273.478 C173.985,273.574 173.952,273.64 173.886,273.676 C173.82,273.712 173.757,273.73 173.697,273.73 L173.697,273.73 L173.697,274 L176.253,274 L176.253,273.676 C176.169,273.652 176.091,273.616 176.019,273.568 C175.947,273.52 175.881,273.442 175.821,273.334 L175.821,273.334 L172.905,267.214 C172.845,267.082 172.788,266.965 172.734,266.863 C172.68,266.761 172.653,266.674 172.653,266.602 C172.653,266.518 172.674,266.47 172.716,266.458 C172.758,266.446 172.797,266.428 172.833,266.404 L172.833,266.404 L172.833,266.08 L170.115,266.08 L170.115,266.404 C170.151,266.428 170.184,266.449 170.214,266.467 C170.244,266.485 170.259,266.53 170.259,266.602 C170.259,266.698 170.238,266.797 170.196,266.899 C170.154,267.001 170.097,267.136 170.025,267.304 L170.025,267.304 L167.343,273.154 C167.295,273.25 167.226,273.355 167.136,273.469 C167.046,273.583 166.929,273.652 166.785,273.676 L166.785,273.676 L166.785,274 L169.197,274 Z M172.797,270.688 L170.061,270.688 L171.339,267.664 L172.797,270.688 Z M188.799,274 C189.327,274 189.78,273.943 190.158,273.829 C190.536,273.715 190.842,273.562 191.076,273.37 C191.31,273.178 191.481,272.956 191.589,272.704 C191.697,272.452 191.751,272.182 191.751,271.894 C191.751,271.642 191.709,271.408 191.625,271.192 C191.541,270.976 191.433,270.784 191.301,270.616 C191.169,270.448 191.019,270.304 190.851,270.184 C190.683,270.064 190.515,269.968 190.347,269.896 L190.347,269.896 L190.347,269.878 C190.491,269.806 190.632,269.71 190.77,269.59 C190.908,269.47 191.034,269.335 191.148,269.185 C191.262,269.035 191.355,268.867 191.427,268.681 C191.499,268.495 191.535,268.294 191.535,268.078 C191.535,267.814 191.481,267.562 191.373,267.322 C191.265,267.082 191.1,266.869 190.878,266.683 C190.656,266.497 190.38,266.35 190.05,266.242 C189.72,266.134 189.327,266.08 188.871,266.08 L188.871,266.08 L183.273,266.08 L183.273,266.404 C183.369,266.404 183.462,266.425 183.552,266.467 C183.642,266.509 183.687,266.578 183.687,266.674 L183.687,266.674 L183.687,273.406 C183.687,273.502 183.642,273.571 183.552,273.613 C183.462,273.655 183.369,273.676 183.273,273.676 L183.273,273.676 L183.273,274 L188.799,274 Z M188.619,269.212 L185.415,269.212 L185.415,267.412 L188.619,267.412 C188.763,267.412 188.907,267.421 189.051,267.439 C189.195,267.457 189.321,267.499 189.429,267.565 C189.537,267.631 189.627,267.721 189.699,267.835 C189.771,267.949 189.807,268.102 189.807,268.294 C189.807,268.666 189.681,268.912 189.429,269.032 C189.177,269.152 188.907,269.212 188.619,269.212 L188.619,269.212 Z M188.583,272.668 L185.415,272.668 L185.415,270.544 L188.295,270.544 C188.919,270.544 189.363,270.634 189.627,270.814 C189.891,270.994 190.023,271.27 190.023,271.642 C190.023,271.966 189.921,272.218 189.717,272.398 C189.513,272.578 189.135,272.668 188.583,272.668 L188.583,272.668 Z M201.921,274.198 L201.921,272.308 L201.597,272.308 C201.597,272.416 201.549,272.503 201.453,272.569 C201.357,272.635 201.237,272.668 201.093,272.668 L201.093,272.668 L196.485,272.668 L196.485,270.544 L199.113,270.544 C199.353,270.544 199.539,270.559 199.671,270.589 C199.803,270.619 199.851,270.7 199.815,270.832 L199.815,270.832 L200.175,270.832 L200.175,268.924 L199.851,268.924 C199.851,269.056 199.803,269.137 199.707,269.167 C199.611,269.197 199.461,269.212 199.257,269.212 L199.257,269.212 L196.485,269.212 L196.485,267.412 L200.877,267.412 C201.249,267.412 201.435,267.526 201.435,267.754 L201.435,267.754 L201.759,267.754 L201.759,265.756 L201.435,265.756 C201.435,265.972 201.249,266.08 200.877,266.08 L200.877,266.08 L194.487,266.08 L194.487,266.404 C194.547,266.404 194.607,266.425 194.667,266.467 C194.727,266.509 194.757,266.578 194.757,266.674 L194.757,266.674 L194.757,273.406 C194.757,273.502 194.727,273.571 194.667,273.613 C194.607,273.655 194.547,273.676 194.487,273.676 L194.487,273.676 L194.487,274 L201.093,274 C201.237,274 201.357,274.006 201.453,274.018 C201.549,274.03 201.597,274.09 201.597,274.198 L201.597,274.198 L201.921,274.198 Z M205.701,274 L205.701,273.676 C205.593,273.676 205.509,273.664 205.449,273.64 C205.389,273.616 205.359,273.556 205.359,273.46 C205.359,273.4 205.374,273.331 205.404,273.253 C205.434,273.175 205.473,273.088 205.521,272.992 L205.521,272.992 L206.025,272.02 L209.877,272.02 L210.363,273.046 C210.399,273.142 210.429,273.22 210.453,273.28 C210.477,273.34 210.489,273.406 210.489,273.478 C210.489,273.574 210.456,273.64 210.39,273.676 C210.324,273.712 210.261,273.73 210.201,273.73 L210.201,273.73 L210.201,274 L212.757,274 L212.757,273.676 C212.673,273.652 212.595,273.616 212.523,273.568 C212.451,273.52 212.385,273.442 212.325,273.334 L212.325,273.334 L209.409,267.214 C209.349,267.082 209.292,266.965 209.238,266.863 C209.184,266.761 209.157,266.674 209.157,266.602 C209.157,266.518 209.178,266.47 209.22,266.458 C209.262,266.446 209.301,266.428 209.337,266.404 L209.337,266.404 L209.337,266.08 L206.619,266.08 L206.619,266.404 C206.655,266.428 206.688,266.449 206.718,266.467 C206.748,266.485 206.763,266.53 206.763,266.602 C206.763,266.698 206.742,266.797 206.7,266.899 C206.658,267.001 206.601,267.136 206.529,267.304 L206.529,267.304 L203.847,273.154 C203.799,273.25 203.73,273.355 203.64,273.469 C203.55,273.583 203.433,273.652 203.289,273.676 L203.289,273.676 L203.289,274 L205.701,274 Z M209.301,270.688 L206.565,270.688 L207.843,267.664 L209.301,270.688 Z M218.715,274 L218.715,273.676 C218.499,273.676 218.391,273.586 218.391,273.406 L218.391,273.406 L218.391,267.412 L220.731,267.412 C220.827,267.412 220.917,267.436 221.001,267.484 C221.085,267.532 221.127,267.61 221.127,267.718 L221.127,267.718 L221.451,267.718 L221.451,265.648 L221.127,265.648 C221.127,265.816 221.085,265.93 221.001,265.99 C220.917,266.05 220.827,266.08 220.731,266.08 L220.731,266.08 L214.323,266.08 C214.227,266.08 214.137,266.05 214.053,265.99 C213.969,265.93 213.927,265.816 213.927,265.648 L213.927,265.648 L213.603,265.648 L213.603,267.718 L213.927,267.718 C213.927,267.61 213.969,267.532 214.053,267.484 C214.137,267.436 214.227,267.412 214.323,267.412 L214.323,267.412 L216.663,267.412 L216.663,273.406 C216.663,273.502 216.633,273.571 216.573,273.613 C216.513,273.655 216.453,273.676 216.393,273.676 L216.393,273.676 L216.393,274 L218.715,274 Z M224.763,274.054 C225.111,274.054 225.411,273.937 225.663,273.703 C225.915,273.469 226.041,273.178 226.041,272.83 C226.041,272.482 225.915,272.182 225.663,271.93 C225.411,271.678 225.111,271.552 224.763,271.552 C224.415,271.552 224.115,271.678 223.863,271.93 C223.611,272.182 223.485,272.482 223.485,272.83 C223.485,273.178 223.611,273.469 223.863,273.703 C224.115,273.937 224.415,274.054 224.763,274.054 Z M58.902,292 L58.902,291.676 C58.818,291.676 58.743,291.649 58.677,291.595 C58.611,291.541 58.578,291.46 58.578,291.352 L58.578,291.352 L58.578,287.968 L64.374,287.968 L64.374,291.352 C64.374,291.568 64.242,291.676 63.978,291.676 L63.978,291.676 L63.978,292 L66.75,292 L66.75,291.676 C66.666,291.676 66.591,291.649 66.525,291.595 C66.459,291.541 66.426,291.46 66.426,291.352 L66.426,291.352 L66.426,283.18 C66.426,283.072 66.459,282.991 66.525,282.937 C66.591,282.883 66.666,282.856 66.75,282.856 L66.75,282.856 L66.75,282.532 L63.978,282.532 L63.978,282.856 C64.242,282.856 64.374,282.964 64.374,283.18 L64.374,283.18 L64.374,286.24 L58.578,286.24 L58.578,283.18 C58.578,283.072 58.611,282.991 58.677,282.937 C58.743,282.883 58.818,282.856 58.902,282.856 L58.902,282.856 L58.902,282.532 L56.184,282.532 L56.184,282.856 C56.412,282.856 56.526,282.964 56.526,283.18 L56.526,283.18 L56.526,291.352 C56.526,291.568 56.412,291.676 56.184,291.676 L56.184,291.676 L56.184,292 L58.902,292 Z M73.968,292.054 C74.628,292.054 75.249,291.979 75.831,291.829 C76.413,291.679 76.92,291.436 77.352,291.1 C77.784,290.764 78.126,290.341 78.378,289.831 C78.63,289.321 78.756,288.724 78.756,288.04 C78.756,287.356 78.63,286.759 78.378,286.249 C78.126,285.739 77.784,285.316 77.352,284.98 C76.92,284.644 76.413,284.392 75.831,284.224 C75.249,284.056 74.628,283.972 73.968,283.972 C73.308,283.972 72.687,284.056 72.105,284.224 C71.523,284.392 71.016,284.644 70.584,284.98 C70.152,285.316 69.81,285.739 69.558,286.249 C69.306,286.759 69.18,287.356 69.18,288.04 C69.18,288.724 69.306,289.321 69.558,289.831 C69.81,290.341 70.152,290.764 70.584,291.1 C71.016,291.436 71.523,291.679 72.105,291.829 C72.687,291.979 73.308,292.054 73.968,292.054 Z M73.968,290.776 C73.584,290.776 73.209,290.713 72.843,290.587 C72.477,290.461 72.15,290.281 71.862,290.047 C71.574,289.813 71.343,289.528 71.169,289.192 C70.995,288.856 70.908,288.472 70.908,288.04 C70.908,287.608 70.995,287.224 71.169,286.888 C71.343,286.552 71.574,286.267 71.862,286.033 C72.15,285.799 72.477,285.619 72.843,285.493 C73.209,285.367 73.584,285.304 73.968,285.304 C74.352,285.304 74.727,285.367 75.093,285.493 C75.459,285.619 75.786,285.799 76.074,286.033 C76.362,286.267 76.593,286.552 76.767,286.888 C76.941,287.224 77.028,287.608 77.028,288.04 C77.028,288.472 76.941,288.856 76.767,289.192 C76.593,289.528 76.362,289.813 76.074,290.047 C75.786,290.281 75.459,290.461 75.093,290.587 C74.727,290.713 74.352,290.776 73.968,290.776 Z M84.714,292 L84.714,291.676 C84.606,291.676 84.534,291.658 84.498,291.622 C84.462,291.586 84.444,291.52 84.444,291.424 C84.444,291.388 84.489,291.253 84.579,291.019 C84.669,290.785 84.783,290.497 84.921,290.155 C85.059,289.813 85.209,289.441 85.371,289.039 C85.533,288.637 85.686,288.253 85.83,287.887 C85.974,287.521 86.1,287.197 86.208,286.915 C86.316,286.633 86.382,286.438 86.406,286.33 L86.406,286.33 L86.442,286.33 C86.634,286.93 86.832,287.524 87.036,288.112 C87.24,288.7 87.429,289.231 87.603,289.705 C87.777,290.179 87.918,290.572 88.026,290.884 C88.134,291.196 88.188,291.376 88.188,291.424 C88.188,291.52 88.176,291.583 88.152,291.613 C88.128,291.643 88.068,291.664 87.972,291.676 L87.972,291.676 L87.972,292 L90.492,292 L90.492,291.676 C90.324,291.676 90.24,291.598 90.24,291.442 C90.24,291.382 90.276,291.271 90.348,291.109 C90.42,290.947 90.492,290.764 90.564,290.56 L90.564,290.56 L92.634,285.07 C92.79,284.626 92.97,284.404 93.174,284.404 L93.174,284.404 L93.174,284.08 L90.888,284.08 L90.888,284.404 C91.08,284.404 91.176,284.488 91.176,284.656 C91.176,284.74 91.155,284.845 91.113,284.971 C91.071,285.097 91.02,285.244 90.96,285.412 L90.96,285.412 L89.286,289.786 L87.702,285.448 C87.642,285.304 87.582,285.151 87.522,284.989 C87.462,284.827 87.432,284.704 87.432,284.62 C87.432,284.476 87.54,284.404 87.756,284.404 L87.756,284.404 L87.756,284.08 L85.182,284.08 L85.182,284.404 C85.374,284.404 85.47,284.488 85.47,284.656 C85.47,284.752 85.443,284.875 85.389,285.025 C85.335,285.175 85.278,285.334 85.218,285.502 L85.218,285.502 L83.688,289.786 L83.652,289.786 L82.068,285.412 C81.996,285.22 81.936,285.061 81.888,284.935 C81.84,284.809 81.816,284.716 81.816,284.656 C81.816,284.488 81.894,284.404 82.05,284.404 L82.05,284.404 L82.05,284.08 L79.764,284.08 L79.764,284.404 C79.944,284.44 80.07,284.554 80.142,284.746 L80.142,284.746 L82.518,290.992 C82.542,291.052 82.575,291.139 82.617,291.253 C82.659,291.367 82.68,291.46 82.68,291.532 C82.68,291.604 82.662,291.646 82.626,291.658 C82.59,291.67 82.548,291.676 82.5,291.676 L82.5,291.676 L82.5,292 L84.714,292 Z M105.036,292.054 C105.756,292.054 106.383,291.979 106.917,291.829 C107.451,291.679 107.889,291.472 108.231,291.208 C108.573,290.944 108.828,290.641 108.996,290.299 C109.164,289.957 109.248,289.6 109.248,289.228 L109.248,289.228 L109.248,284.674 C109.248,284.494 109.38,284.404 109.644,284.404 L109.644,284.404 L109.644,284.08 L107.142,284.08 L107.142,284.404 C107.442,284.404 107.592,284.494 107.592,284.674 L107.592,284.674 L107.592,288.796 C107.592,289.372 107.382,289.834 106.962,290.182 C106.542,290.53 105.9,290.704 105.036,290.704 C104.172,290.704 103.53,290.53 103.11,290.182 C102.69,289.834 102.48,289.372 102.48,288.796 L102.48,288.796 L102.48,284.674 C102.48,284.494 102.612,284.404 102.876,284.404 L102.876,284.404 L102.876,284.08 L100.302,284.08 L100.302,284.404 C100.506,284.404 100.644,284.425 100.716,284.467 C100.788,284.509 100.824,284.578 100.824,284.674 L100.824,284.674 L100.824,289.228 C100.824,289.6 100.908,289.957 101.076,290.299 C101.244,290.641 101.499,290.944 101.841,291.208 C102.183,291.472 102.621,291.679 103.155,291.829 C103.689,291.979 104.316,292.054 105.036,292.054 Z M114.648,292 L114.648,291.676 C114.396,291.676 114.27,291.586 114.27,291.406 L114.27,291.406 L114.27,286.168 L118.734,290.92 C118.878,291.076 119.007,291.214 119.121,291.334 C119.235,291.454 119.292,291.538 119.292,291.586 C119.292,291.646 119.25,291.676 119.166,291.676 L119.166,291.676 L119.166,292 L121.506,292 L121.506,291.676 C121.29,291.676 121.182,291.586 121.182,291.406 L121.182,291.406 L121.182,284.674 C121.182,284.494 121.29,284.404 121.506,284.404 L121.506,284.404 L121.506,284.08 L119.31,284.08 L119.31,284.404 C119.55,284.404 119.67,284.494 119.67,284.674 L119.67,284.674 L119.67,289.552 L115.35,284.98 C115.086,284.716 114.954,284.554 114.954,284.494 C114.954,284.446 114.996,284.416 115.08,284.404 L115.08,284.404 L115.08,284.08 L112.434,284.08 L112.434,284.404 C112.65,284.404 112.758,284.494 112.758,284.674 L112.758,284.674 L112.758,291.406 C112.758,291.586 112.65,291.676 112.434,291.676 L112.434,291.676 L112.434,292 L114.648,292 Z M126.744,292 L126.744,291.676 C126.492,291.676 126.366,291.586 126.366,291.406 L126.366,291.406 L126.366,288.706 L129.426,288.706 C130.398,288.706 131.127,288.541 131.613,288.211 C132.099,287.881 132.342,287.284 132.342,286.42 C132.342,285.556 132.099,284.95 131.613,284.602 C131.127,284.254 130.398,284.08 129.426,284.08 L129.426,284.08 L124.188,284.08 L124.188,284.404 C124.488,284.404 124.638,284.494 124.638,284.674 L124.638,284.674 L124.638,291.406 C124.638,291.586 124.488,291.676 124.188,291.676 L124.188,291.676 L124.188,292 L126.744,292 Z M129.39,287.374 L126.366,287.374 L126.366,285.412 L129.39,285.412 C129.738,285.412 130.029,285.487 130.263,285.637 C130.497,285.787 130.614,286.048 130.614,286.42 C130.614,286.804 130.497,287.059 130.263,287.185 C130.029,287.311 129.738,287.374 129.39,287.374 L129.39,287.374 Z M142.242,292.18 L142.242,290.29 L141.918,290.29 C141.918,290.41 141.87,290.503 141.774,290.569 C141.678,290.635 141.558,290.668 141.414,290.668 L141.414,290.668 L136.554,290.668 L136.554,284.674 C136.554,284.494 136.692,284.404 136.968,284.404 L136.968,284.404 L136.968,284.08 L134.358,284.08 L134.358,284.404 C134.67,284.404 134.826,284.494 134.826,284.674 L134.826,284.674 L134.826,291.406 C134.826,291.586 134.67,291.676 134.358,291.676 L134.358,291.676 L134.358,292 L141.414,292 C141.558,292 141.678,292.006 141.774,292.018 C141.87,292.03 141.918,292.084 141.918,292.18 L141.918,292.18 L142.242,292.18 Z M151.908,292.198 L151.908,290.308 L151.584,290.308 C151.584,290.416 151.536,290.503 151.44,290.569 C151.344,290.635 151.224,290.668 151.08,290.668 L151.08,290.668 L146.472,290.668 L146.472,288.544 L149.1,288.544 C149.34,288.544 149.526,288.559 149.658,288.589 C149.79,288.619 149.838,288.7 149.802,288.832 L149.802,288.832 L150.162,288.832 L150.162,286.924 L149.838,286.924 C149.838,287.056 149.79,287.137 149.694,287.167 C149.598,287.197 149.448,287.212 149.244,287.212 L149.244,287.212 L146.472,287.212 L146.472,285.412 L150.864,285.412 C151.236,285.412 151.422,285.526 151.422,285.754 L151.422,285.754 L151.746,285.754 L151.746,283.756 L151.422,283.756 C151.422,283.972 151.236,284.08 150.864,284.08 L150.864,284.08 L144.474,284.08 L144.474,284.404 C144.534,284.404 144.594,284.425 144.654,284.467 C144.714,284.509 144.744,284.578 144.744,284.674 L144.744,284.674 L144.744,291.406 C144.744,291.502 144.714,291.571 144.654,291.613 C144.594,291.655 144.534,291.676 144.474,291.676 L144.474,291.676 L144.474,292 L151.08,292 C151.224,292 151.344,292.006 151.44,292.018 C151.536,292.03 151.584,292.09 151.584,292.198 L151.584,292.198 L151.908,292.198 Z M155.688,292 L155.688,291.676 C155.58,291.676 155.496,291.664 155.436,291.64 C155.376,291.616 155.346,291.556 155.346,291.46 C155.346,291.4 155.361,291.331 155.391,291.253 C155.421,291.175 155.46,291.088 155.508,290.992 L155.508,290.992 L156.012,290.02 L159.864,290.02 L160.35,291.046 C160.386,291.142 160.416,291.22 160.44,291.28 C160.464,291.34 160.476,291.406 160.476,291.478 C160.476,291.574 160.443,291.64 160.377,291.676 C160.311,291.712 160.248,291.73 160.188,291.73 L160.188,291.73 L160.188,292 L162.744,292 L162.744,291.676 C162.66,291.652 162.582,291.616 162.51,291.568 C162.438,291.52 162.372,291.442 162.312,291.334 L162.312,291.334 L159.396,285.214 C159.336,285.082 159.279,284.965 159.225,284.863 C159.171,284.761 159.144,284.674 159.144,284.602 C159.144,284.518 159.165,284.47 159.207,284.458 C159.249,284.446 159.288,284.428 159.324,284.404 L159.324,284.404 L159.324,284.08 L156.606,284.08 L156.606,284.404 C156.642,284.428 156.675,284.449 156.705,284.467 C156.735,284.485 156.75,284.53 156.75,284.602 C156.75,284.698 156.729,284.797 156.687,284.899 C156.645,285.001 156.588,285.136 156.516,285.304 L156.516,285.304 L153.834,291.154 C153.786,291.25 153.717,291.355 153.627,291.469 C153.537,291.583 153.42,291.652 153.276,291.676 L153.276,291.676 L153.276,292 L155.688,292 Z M159.288,288.688 L156.552,288.688 L157.83,285.664 L159.288,288.688 Z M167.874,292.054 C168.282,292.054 168.717,292.024 169.179,291.964 C169.641,291.904 170.064,291.778 170.448,291.586 C170.832,291.394 171.153,291.13 171.411,290.794 C171.669,290.458 171.798,290.026 171.798,289.498 C171.798,288.97 171.651,288.556 171.357,288.256 C171.063,287.956 170.694,287.728 170.25,287.572 C169.806,287.416 169.326,287.305 168.81,287.239 C168.294,287.173 167.814,287.107 167.37,287.041 C166.926,286.975 166.557,286.885 166.263,286.771 C165.969,286.657 165.822,286.468 165.822,286.204 C165.822,286.036 165.87,285.895 165.966,285.781 C166.062,285.667 166.194,285.574 166.362,285.502 C166.53,285.43 166.722,285.379 166.938,285.349 C167.154,285.319 167.382,285.304 167.622,285.304 C168.246,285.304 168.81,285.376 169.314,285.52 C169.818,285.664 170.19,285.838 170.43,286.042 C170.526,286.114 170.58,286.186 170.592,286.258 C170.604,286.33 170.616,286.402 170.628,286.474 L170.628,286.474 L170.952,286.582 L171.852,284.89 L171.654,284.692 C171.582,284.728 171.522,284.761 171.474,284.791 C171.426,284.821 171.354,284.836 171.258,284.836 C171.174,284.836 171.045,284.791 170.871,284.701 C170.697,284.611 170.472,284.512 170.196,284.404 C169.92,284.296 169.581,284.197 169.179,284.107 C168.777,284.017 168.294,283.972 167.73,283.972 C166.578,283.972 165.684,284.2 165.048,284.656 C164.412,285.112 164.094,285.724 164.094,286.492 C164.094,287.008 164.241,287.407 164.535,287.689 C164.829,287.971 165.198,288.187 165.642,288.337 C166.086,288.487 166.566,288.595 167.082,288.661 C167.598,288.727 168.078,288.793 168.522,288.859 C168.966,288.925 169.335,289.018 169.629,289.138 C169.923,289.258 170.07,289.45 170.07,289.714 C170.07,289.942 169.986,290.125 169.818,290.263 C169.65,290.401 169.446,290.509 169.206,290.587 C168.966,290.665 168.723,290.716 168.477,290.74 C168.231,290.764 168.024,290.776 167.856,290.776 C167.676,290.776 167.427,290.746 167.109,290.686 C166.791,290.626 166.473,290.545 166.155,290.443 C165.837,290.341 165.564,290.215 165.336,290.065 C165.108,289.915 164.994,289.75 164.994,289.57 C164.994,289.51 164.997,289.453 165.003,289.399 C165.009,289.345 165.012,289.294 165.012,289.246 L165.012,289.246 L164.67,289.156 L163.842,291.172 L164.094,291.352 C164.154,291.28 164.226,291.244 164.31,291.244 C164.358,291.244 164.496,291.289 164.724,291.379 C164.952,291.469 165.231,291.565 165.561,291.667 C165.891,291.769 166.257,291.859 166.659,291.937 C167.061,292.015 167.466,292.054 167.874,292.054 Z M175.704,292 L175.704,291.676 C175.596,291.676 175.512,291.664 175.452,291.64 C175.392,291.616 175.362,291.556 175.362,291.46 C175.362,291.4 175.377,291.331 175.407,291.253 C175.437,291.175 175.476,291.088 175.524,290.992 L175.524,290.992 L176.028,290.02 L179.88,290.02 L180.366,291.046 C180.402,291.142 180.432,291.22 180.456,291.28 C180.48,291.34 180.492,291.406 180.492,291.478 C180.492,291.574 180.459,291.64 180.393,291.676 C180.327,291.712 180.264,291.73 180.204,291.73 L180.204,291.73 L180.204,292 L182.76,292 L182.76,291.676 C182.676,291.652 182.598,291.616 182.526,291.568 C182.454,291.52 182.388,291.442 182.328,291.334 L182.328,291.334 L179.412,285.214 C179.352,285.082 179.295,284.965 179.241,284.863 C179.187,284.761 179.16,284.674 179.16,284.602 C179.16,284.518 179.181,284.47 179.223,284.458 C179.265,284.446 179.304,284.428 179.34,284.404 L179.34,284.404 L179.34,284.08 L176.622,284.08 L176.622,284.404 C176.658,284.428 176.691,284.449 176.721,284.467 C176.751,284.485 176.766,284.53 176.766,284.602 C176.766,284.698 176.745,284.797 176.703,284.899 C176.661,285.001 176.604,285.136 176.532,285.304 L176.532,285.304 L173.85,291.154 C173.802,291.25 173.733,291.355 173.643,291.469 C173.553,291.583 173.436,291.652 173.292,291.676 L173.292,291.676 L173.292,292 L175.704,292 Z M179.304,288.688 L176.568,288.688 L177.846,285.664 L179.304,288.688 Z M186.702,292 L186.702,291.676 C186.45,291.676 186.324,291.586 186.324,291.406 L186.324,291.406 L186.324,286.168 L190.788,290.92 C190.932,291.076 191.061,291.214 191.175,291.334 C191.289,291.454 191.346,291.538 191.346,291.586 C191.346,291.646 191.304,291.676 191.22,291.676 L191.22,291.676 L191.22,292 L193.56,292 L193.56,291.676 C193.344,291.676 193.236,291.586 193.236,291.406 L193.236,291.406 L193.236,284.674 C193.236,284.494 193.344,284.404 193.56,284.404 L193.56,284.404 L193.56,284.08 L191.364,284.08 L191.364,284.404 C191.604,284.404 191.724,284.494 191.724,284.674 L191.724,284.674 L191.724,289.552 L187.404,284.98 C187.14,284.716 187.008,284.554 187.008,284.494 C187.008,284.446 187.05,284.416 187.134,284.404 L187.134,284.404 L187.134,284.08 L184.488,284.08 L184.488,284.404 C184.704,284.404 184.812,284.494 184.812,284.674 L184.812,284.674 L184.812,291.406 C184.812,291.586 184.704,291.676 184.488,291.676 L184.488,291.676 L184.488,292 L186.702,292 Z M200.724,292 L200.724,291.676 C200.508,291.676 200.4,291.586 200.4,291.406 L200.4,291.406 L200.4,285.412 L202.74,285.412 C202.836,285.412 202.926,285.436 203.01,285.484 C203.094,285.532 203.136,285.61 203.136,285.718 L203.136,285.718 L203.46,285.718 L203.46,283.648 L203.136,283.648 C203.136,283.816 203.094,283.93 203.01,283.99 C202.926,284.05 202.836,284.08 202.74,284.08 L202.74,284.08 L196.332,284.08 C196.236,284.08 196.146,284.05 196.062,283.99 C195.978,283.93 195.936,283.816 195.936,283.648 L195.936,283.648 L195.612,283.648 L195.612,285.718 L195.936,285.718 C195.936,285.61 195.978,285.532 196.062,285.484 C196.146,285.436 196.236,285.412 196.332,285.412 L196.332,285.412 L198.672,285.412 L198.672,291.406 C198.672,291.502 198.642,291.571 198.582,291.613 C198.522,291.655 198.462,291.676 198.402,291.676 L198.402,291.676 L198.402,292 L200.724,292 Z M206.772,292.054 C207.12,292.054 207.42,291.937 207.672,291.703 C207.924,291.469 208.05,291.178 208.05,290.83 C208.05,290.482 207.924,290.182 207.672,289.93 C207.42,289.678 207.12,289.552 206.772,289.552 C206.424,289.552 206.124,289.678 205.872,289.93 C205.62,290.182 205.494,290.482 205.494,290.83 C205.494,291.178 205.62,291.469 205.872,291.703 C206.124,291.937 206.424,292.054 206.772,292.054 Z M59.19,310 L59.19,309.676 C58.962,309.676 58.848,309.61 58.848,309.478 C58.848,309.37 58.908,309.19 59.028,308.938 L59.028,308.938 L59.676,307.66 L64.068,307.66 L64.752,308.992 C64.848,309.184 64.896,309.34 64.896,309.46 C64.896,309.532 64.86,309.586 64.788,309.622 C64.716,309.658 64.656,309.676 64.608,309.676 L64.608,309.676 L64.608,310 L67.776,310 L67.776,309.676 C67.644,309.616 67.527,309.556 67.425,309.496 C67.323,309.436 67.242,309.34 67.182,309.208 L67.182,309.208 L63.438,301.882 C63.354,301.726 63.291,301.6 63.249,301.504 C63.207,301.408 63.186,301.312 63.186,301.216 C63.186,301.084 63.228,300.997 63.312,300.955 C63.396,300.913 63.48,300.88 63.564,300.856 L63.564,300.856 L63.564,300.532 L60.522,300.532 L60.522,300.856 C60.618,300.88 60.708,300.916 60.792,300.964 C60.876,301.012 60.918,301.096 60.918,301.216 C60.918,301.312 60.885,301.426 60.819,301.558 C60.753,301.69 60.678,301.834 60.594,301.99 L60.594,301.99 L57.264,308.992 C57.18,309.16 57.093,309.31 57.003,309.442 C56.913,309.574 56.79,309.652 56.634,309.676 L56.634,309.676 L56.634,310 L59.19,310 Z M63.42,306.328 L60.216,306.328 L61.908,302.98 L63.42,306.328 Z M74.544,310 C75.252,310 75.852,309.886 76.344,309.658 C76.836,309.43 77.238,309.133 77.55,308.767 C77.862,308.401 78.09,307.981 78.234,307.507 C78.378,307.033 78.45,306.544 78.45,306.04 C78.45,305.536 78.375,305.047 78.225,304.573 C78.075,304.099 77.841,303.679 77.523,303.313 C77.205,302.947 76.794,302.65 76.29,302.422 C75.786,302.194 75.18,302.08 74.472,302.08 L74.472,302.08 L69.468,302.08 L69.468,302.404 C69.744,302.404 69.882,302.494 69.882,302.674 L69.882,302.674 L69.882,309.406 C69.882,309.586 69.744,309.676 69.468,309.676 L69.468,309.676 L69.468,310 L74.544,310 Z M73.95,308.668 L71.61,308.668 L71.61,303.412 L73.95,303.412 C74.322,303.412 74.676,303.433 75.012,303.475 C75.348,303.517 75.642,303.625 75.894,303.799 C76.146,303.973 76.347,304.231 76.497,304.573 C76.647,304.915 76.722,305.386 76.722,305.986 C76.722,306.586 76.647,307.063 76.497,307.417 C76.347,307.771 76.146,308.041 75.894,308.227 C75.642,308.413 75.348,308.533 75.012,308.587 C74.676,308.641 74.322,308.668 73.95,308.668 L73.95,308.668 Z M85.542,310 C86.25,310 86.85,309.886 87.342,309.658 C87.834,309.43 88.236,309.133 88.548,308.767 C88.86,308.401 89.088,307.981 89.232,307.507 C89.376,307.033 89.448,306.544 89.448,306.04 C89.448,305.536 89.373,305.047 89.223,304.573 C89.073,304.099 88.839,303.679 88.521,303.313 C88.203,302.947 87.792,302.65 87.288,302.422 C86.784,302.194 86.178,302.08 85.47,302.08 L85.47,302.08 L80.466,302.08 L80.466,302.404 C80.742,302.404 80.88,302.494 80.88,302.674 L80.88,302.674 L80.88,309.406 C80.88,309.586 80.742,309.676 80.466,309.676 L80.466,309.676 L80.466,310 L85.542,310 Z M84.948,308.668 L82.608,308.668 L82.608,303.412 L84.948,303.412 C85.32,303.412 85.674,303.433 86.01,303.475 C86.346,303.517 86.64,303.625 86.892,303.799 C87.144,303.973 87.345,304.231 87.495,304.573 C87.645,304.915 87.72,305.386 87.72,305.986 C87.72,306.586 87.645,307.063 87.495,307.417 C87.345,307.771 87.144,308.041 86.892,308.227 C86.64,308.413 86.346,308.533 86.01,308.587 C85.674,308.641 85.32,308.668 84.948,308.668 L84.948,308.668 Z M101.436,310 L101.436,309.676 C101.22,309.676 101.112,309.586 101.112,309.406 L101.112,309.406 L101.112,303.412 L103.452,303.412 C103.548,303.412 103.638,303.436 103.722,303.484 C103.806,303.532 103.848,303.61 103.848,303.718 L103.848,303.718 L104.172,303.718 L104.172,301.648 L103.848,301.648 C103.848,301.816 103.806,301.93 103.722,301.99 C103.638,302.05 103.548,302.08 103.452,302.08 L103.452,302.08 L97.044,302.08 C96.948,302.08 96.858,302.05 96.774,301.99 C96.69,301.93 96.648,301.816 96.648,301.648 L96.648,301.648 L96.324,301.648 L96.324,303.718 L96.648,303.718 C96.648,303.61 96.69,303.532 96.774,303.484 C96.858,303.436 96.948,303.412 97.044,303.412 L97.044,303.412 L99.384,303.412 L99.384,309.406 C99.384,309.502 99.354,309.571 99.294,309.613 C99.234,309.655 99.174,309.676 99.114,309.676 L99.114,309.676 L99.114,310 L101.436,310 Z M108.6,310 L108.6,309.676 C108.528,309.676 108.465,309.655 108.411,309.613 C108.357,309.571 108.33,309.502 108.33,309.406 L108.33,309.406 L108.33,306.688 L113.154,306.688 L113.154,309.406 C113.154,309.502 113.127,309.571 113.073,309.613 C113.019,309.655 112.956,309.676 112.884,309.676 L112.884,309.676 L112.884,310 L115.152,310 L115.152,309.676 C115.08,309.676 115.017,309.655 114.963,309.613 C114.909,309.571 114.882,309.502 114.882,309.406 L114.882,309.406 L114.882,302.674 C114.882,302.578 114.909,302.509 114.963,302.467 C115.017,302.425 115.08,302.404 115.152,302.404 L115.152,302.404 L115.152,302.08 L112.884,302.08 L112.884,302.404 C112.956,302.404 113.019,302.425 113.073,302.467 C113.127,302.509 113.154,302.578 113.154,302.674 L113.154,302.674 L113.154,305.212 L108.33,305.212 L108.33,302.674 C108.33,302.578 108.357,302.509 108.411,302.467 C108.465,302.425 108.528,302.404 108.6,302.404 L108.6,302.404 L108.6,302.08 L106.332,302.08 L106.332,302.404 C106.404,302.404 106.467,302.425 106.521,302.467 C106.575,302.509 106.602,302.578 106.602,302.674 L106.602,302.674 L106.602,309.406 C106.602,309.502 106.575,309.571 106.521,309.613 C106.467,309.655 106.404,309.676 106.332,309.676 L106.332,309.676 L106.332,310 L108.6,310 Z M121.11,310 L121.11,309.676 C120.774,309.676 120.606,309.586 120.606,309.406 L120.606,309.406 L120.606,302.674 C120.606,302.494 120.774,302.404 121.11,302.404 L121.11,302.404 L121.11,302.08 L118.374,302.08 L118.374,302.404 C118.566,302.404 118.698,302.425 118.77,302.467 C118.842,302.509 118.878,302.578 118.878,302.674 L118.878,302.674 L118.878,309.406 C118.878,309.502 118.842,309.571 118.77,309.613 C118.698,309.655 118.566,309.676 118.374,309.676 L118.374,309.676 L118.374,310 L121.11,310 Z M127.608,310.054 C128.016,310.054 128.451,310.024 128.913,309.964 C129.375,309.904 129.798,309.778 130.182,309.586 C130.566,309.394 130.887,309.13 131.145,308.794 C131.403,308.458 131.532,308.026 131.532,307.498 C131.532,306.97 131.385,306.556 131.091,306.256 C130.797,305.956 130.428,305.728 129.984,305.572 C129.54,305.416 129.06,305.305 128.544,305.239 C128.028,305.173 127.548,305.107 127.104,305.041 C126.66,304.975 126.291,304.885 125.997,304.771 C125.703,304.657 125.556,304.468 125.556,304.204 C125.556,304.036 125.604,303.895 125.7,303.781 C125.796,303.667 125.928,303.574 126.096,303.502 C126.264,303.43 126.456,303.379 126.672,303.349 C126.888,303.319 127.116,303.304 127.356,303.304 C127.98,303.304 128.544,303.376 129.048,303.52 C129.552,303.664 129.924,303.838 130.164,304.042 C130.26,304.114 130.314,304.186 130.326,304.258 L130.326,304.258 L130.362,304.474 L130.686,304.582 L131.586,302.89 L131.388,302.692 C131.316,302.728 131.256,302.761 131.208,302.791 C131.16,302.821 131.088,302.836 130.992,302.836 C130.908,302.836 130.779,302.791 130.605,302.701 C130.431,302.611 130.206,302.512 129.93,302.404 C129.654,302.296 129.315,302.197 128.913,302.107 C128.511,302.017 128.028,301.972 127.464,301.972 C126.312,301.972 125.418,302.2 124.782,302.656 C124.146,303.112 123.828,303.724 123.828,304.492 C123.828,305.008 123.975,305.407 124.269,305.689 C124.563,305.971 124.932,306.187 125.376,306.337 C125.82,306.487 126.3,306.595 126.816,306.661 C127.332,306.727 127.812,306.793 128.256,306.859 C128.7,306.925 129.069,307.018 129.363,307.138 C129.657,307.258 129.804,307.45 129.804,307.714 C129.804,307.942 129.72,308.125 129.552,308.263 C129.384,308.401 129.18,308.509 128.94,308.587 C128.7,308.665 128.457,308.716 128.211,308.74 C127.965,308.764 127.758,308.776 127.59,308.776 C127.41,308.776 127.161,308.746 126.843,308.686 C126.525,308.626 126.207,308.545 125.889,308.443 C125.571,308.341 125.298,308.215 125.07,308.065 C124.842,307.915 124.728,307.75 124.728,307.57 C124.728,307.51 124.731,307.453 124.737,307.399 C124.743,307.345 124.746,307.294 124.746,307.246 L124.746,307.246 L124.404,307.156 L123.576,309.172 L123.828,309.352 C123.888,309.28 123.96,309.244 124.044,309.244 C124.092,309.244 124.23,309.289 124.458,309.379 C124.686,309.469 124.965,309.565 125.295,309.667 C125.625,309.769 125.991,309.859 126.393,309.937 C126.795,310.015 127.2,310.054 127.608,310.054 Z M143.934,310 L143.934,309.676 C143.718,309.676 143.61,309.586 143.61,309.406 L143.61,309.406 L143.61,303.412 L145.95,303.412 C146.046,303.412 146.136,303.436 146.22,303.484 C146.304,303.532 146.346,303.61 146.346,303.718 L146.346,303.718 L146.67,303.718 L146.67,301.648 L146.346,301.648 C146.346,301.816 146.304,301.93 146.22,301.99 C146.136,302.05 146.046,302.08 145.95,302.08 L145.95,302.08 L139.542,302.08 C139.446,302.08 139.356,302.05 139.272,301.99 C139.188,301.93 139.146,301.816 139.146,301.648 L139.146,301.648 L138.822,301.648 L138.822,303.718 L139.146,303.718 C139.146,303.61 139.188,303.532 139.272,303.484 C139.356,303.436 139.446,303.412 139.542,303.412 L139.542,303.412 L141.882,303.412 L141.882,309.406 C141.882,309.502 141.852,309.571 141.792,309.613 C141.732,309.655 141.672,309.676 141.612,309.676 L141.612,309.676 L141.612,310 L143.934,310 Z M152.736,310.054 C153.396,310.054 154.017,309.979 154.599,309.829 C155.181,309.679 155.688,309.436 156.12,309.1 C156.552,308.764 156.894,308.341 157.146,307.831 C157.398,307.321 157.524,306.724 157.524,306.04 C157.524,305.356 157.398,304.759 157.146,304.249 C156.894,303.739 156.552,303.316 156.12,302.98 C155.688,302.644 155.181,302.392 154.599,302.224 C154.017,302.056 153.396,301.972 152.736,301.972 C152.076,301.972 151.455,302.056 150.873,302.224 C150.291,302.392 149.784,302.644 149.352,302.98 C148.92,303.316 148.578,303.739 148.326,304.249 C148.074,304.759 147.948,305.356 147.948,306.04 C147.948,306.724 148.074,307.321 148.326,307.831 C148.578,308.341 148.92,308.764 149.352,309.1 C149.784,309.436 150.291,309.679 150.873,309.829 C151.455,309.979 152.076,310.054 152.736,310.054 Z M152.736,308.776 C152.352,308.776 151.977,308.713 151.611,308.587 C151.245,308.461 150.918,308.281 150.63,308.047 C150.342,307.813 150.111,307.528 149.937,307.192 C149.763,306.856 149.676,306.472 149.676,306.04 C149.676,305.608 149.763,305.224 149.937,304.888 C150.111,304.552 150.342,304.267 150.63,304.033 C150.918,303.799 151.245,303.619 151.611,303.493 C151.977,303.367 152.352,303.304 152.736,303.304 C153.12,303.304 153.495,303.367 153.861,303.493 C154.227,303.619 154.554,303.799 154.842,304.033 C155.13,304.267 155.361,304.552 155.535,304.888 C155.709,305.224 155.796,305.608 155.796,306.04 C155.796,306.472 155.709,306.856 155.535,307.192 C155.361,307.528 155.13,307.813 154.842,308.047 C154.554,308.281 154.227,308.461 153.861,308.587 C153.495,308.713 153.12,308.776 152.736,308.776 Z M169.944,310 L169.944,309.676 C169.716,309.676 169.602,309.586 169.602,309.406 L169.602,309.406 L169.602,306.706 L172.356,303.142 C172.488,302.974 172.641,302.809 172.815,302.647 C172.989,302.485 173.148,302.404 173.292,302.404 L173.292,302.404 L173.292,302.08 L170.538,302.08 L170.538,302.404 C170.598,302.404 170.658,302.416 170.718,302.44 C170.778,302.464 170.808,302.524 170.808,302.62 C170.808,302.692 170.781,302.767 170.727,302.845 C170.673,302.923 170.592,303.04 170.484,303.196 L170.484,303.196 L168.882,305.428 L167.064,303.052 C167.004,302.968 166.95,302.896 166.902,302.836 C166.854,302.776 166.83,302.71 166.83,302.638 C166.83,302.566 166.866,302.509 166.938,302.467 C167.01,302.425 167.076,302.404 167.136,302.404 L167.136,302.404 L167.136,302.08 L164.166,302.08 L164.166,302.404 C164.274,302.404 164.388,302.428 164.508,302.476 C164.628,302.524 164.73,302.602 164.814,302.71 L164.814,302.71 L167.874,306.634 L167.874,309.406 C167.874,309.586 167.766,309.676 167.55,309.676 L167.55,309.676 L167.55,310 L169.944,310 Z M179.232,310.054 C179.892,310.054 180.513,309.979 181.095,309.829 C181.677,309.679 182.184,309.436 182.616,309.1 C183.048,308.764 183.39,308.341 183.642,307.831 C183.894,307.321 184.02,306.724 184.02,306.04 C184.02,305.356 183.894,304.759 183.642,304.249 C183.39,303.739 183.048,303.316 182.616,302.98 C182.184,302.644 181.677,302.392 181.095,302.224 C180.513,302.056 179.892,301.972 179.232,301.972 C178.572,301.972 177.951,302.056 177.369,302.224 C176.787,302.392 176.28,302.644 175.848,302.98 C175.416,303.316 175.074,303.739 174.822,304.249 C174.57,304.759 174.444,305.356 174.444,306.04 C174.444,306.724 174.57,307.321 174.822,307.831 C175.074,308.341 175.416,308.764 175.848,309.1 C176.28,309.436 176.787,309.679 177.369,309.829 C177.951,309.979 178.572,310.054 179.232,310.054 Z M179.232,308.776 C178.848,308.776 178.473,308.713 178.107,308.587 C177.741,308.461 177.414,308.281 177.126,308.047 C176.838,307.813 176.607,307.528 176.433,307.192 C176.259,306.856 176.172,306.472 176.172,306.04 C176.172,305.608 176.259,305.224 176.433,304.888 C176.607,304.552 176.838,304.267 177.126,304.033 C177.414,303.799 177.741,303.619 178.107,303.493 C178.473,303.367 178.848,303.304 179.232,303.304 C179.616,303.304 179.991,303.367 180.357,303.493 C180.723,303.619 181.05,303.799 181.338,304.033 C181.626,304.267 181.857,304.552 182.031,304.888 C182.205,305.224 182.292,305.608 182.292,306.04 C182.292,306.472 182.205,306.856 182.031,307.192 C181.857,307.528 181.626,307.813 181.338,308.047 C181.05,308.281 180.723,308.461 180.357,308.587 C179.991,308.713 179.616,308.776 179.232,308.776 Z M190.806,310.054 C191.526,310.054 192.153,309.979 192.687,309.829 C193.221,309.679 193.659,309.472 194.001,309.208 C194.343,308.944 194.598,308.641 194.766,308.299 C194.934,307.957 195.018,307.6 195.018,307.228 L195.018,307.228 L195.018,302.674 C195.018,302.494 195.15,302.404 195.414,302.404 L195.414,302.404 L195.414,302.08 L192.912,302.08 L192.912,302.404 C193.212,302.404 193.362,302.494 193.362,302.674 L193.362,302.674 L193.362,306.796 C193.362,307.372 193.152,307.834 192.732,308.182 C192.312,308.53 191.67,308.704 190.806,308.704 C189.942,308.704 189.3,308.53 188.88,308.182 C188.46,307.834 188.25,307.372 188.25,306.796 L188.25,306.796 L188.25,302.674 C188.25,302.494 188.382,302.404 188.646,302.404 L188.646,302.404 L188.646,302.08 L186.072,302.08 L186.072,302.404 C186.276,302.404 186.414,302.425 186.486,302.467 C186.558,302.509 186.594,302.578 186.594,302.674 L186.594,302.674 L186.594,307.228 C186.594,307.6 186.678,307.957 186.846,308.299 C187.014,308.641 187.269,308.944 187.611,309.208 C187.953,309.472 188.391,309.679 188.925,309.829 C189.459,309.979 190.086,310.054 190.806,310.054 Z M200.544,310 L200.544,309.676 C200.472,309.676 200.397,309.655 200.319,309.613 C200.241,309.571 200.202,309.502 200.202,309.406 L200.202,309.406 L200.202,306.832 L202.704,306.832 L204.126,308.956 C204.306,309.208 204.396,309.394 204.396,309.514 C204.396,309.622 204.318,309.676 204.162,309.676 L204.162,309.676 L204.162,310 L206.916,310 L206.916,309.676 C206.784,309.64 206.661,309.589 206.547,309.523 C206.433,309.457 206.328,309.358 206.232,309.226 L206.232,309.226 L204.468,306.652 C204.72,306.592 204.966,306.505 205.206,306.391 C205.446,306.277 205.665,306.127 205.863,305.941 C206.061,305.755 206.22,305.536 206.34,305.284 C206.46,305.032 206.52,304.744 206.52,304.42 C206.52,303.568 206.22,302.965 205.62,302.611 C205.02,302.257 204.186,302.08 203.118,302.08 L203.118,302.08 L198.15,302.08 L198.15,302.404 C198.366,302.404 198.474,302.494 198.474,302.674 L198.474,302.674 L198.474,309.406 C198.474,309.586 198.366,309.676 198.15,309.676 L198.15,309.676 L198.15,310 L200.544,310 Z M203.082,305.5 L200.238,305.5 L200.238,303.412 L203.082,303.412 C203.694,303.412 204.141,303.499 204.423,303.673 C204.705,303.847 204.846,304.084 204.846,304.384 C204.846,305.128 204.258,305.5 203.082,305.5 L203.082,305.5 Z M75.354,328.054 C75.762,328.054 76.197,328.024 76.659,327.964 C77.121,327.904 77.544,327.778 77.928,327.586 C78.312,327.394 78.633,327.13 78.891,326.794 C79.149,326.458 79.278,326.026 79.278,325.498 C79.278,324.97 79.131,324.556 78.837,324.256 C78.543,323.956 78.174,323.728 77.73,323.572 C77.286,323.416 76.806,323.305 76.29,323.239 C75.774,323.173 75.294,323.107 74.85,323.041 C74.406,322.975 74.037,322.885 73.743,322.771 C73.449,322.657 73.302,322.468 73.302,322.204 C73.302,322.036 73.35,321.895 73.446,321.781 C73.542,321.667 73.674,321.574 73.842,321.502 C74.01,321.43 74.202,321.379 74.418,321.349 C74.634,321.319 74.862,321.304 75.102,321.304 C75.726,321.304 76.29,321.376 76.794,321.52 C77.298,321.664 77.67,321.838 77.91,322.042 C78.006,322.114 78.06,322.186 78.072,322.258 L78.072,322.258 L78.108,322.474 L78.432,322.582 L79.332,320.89 L79.134,320.692 C79.062,320.728 79.002,320.761 78.954,320.791 C78.906,320.821 78.834,320.836 78.738,320.836 C78.654,320.836 78.525,320.791 78.351,320.701 C78.177,320.611 77.952,320.512 77.676,320.404 C77.4,320.296 77.061,320.197 76.659,320.107 C76.257,320.017 75.774,319.972 75.21,319.972 C74.058,319.972 73.164,320.2 72.528,320.656 C71.892,321.112 71.574,321.724 71.574,322.492 C71.574,323.008 71.721,323.407 72.015,323.689 C72.309,323.971 72.678,324.187 73.122,324.337 C73.566,324.487 74.046,324.595 74.562,324.661 C75.078,324.727 75.558,324.793 76.002,324.859 C76.446,324.925 76.815,325.018 77.109,325.138 C77.403,325.258 77.55,325.45 77.55,325.714 C77.55,325.942 77.466,326.125 77.298,326.263 C77.13,326.401 76.926,326.509 76.686,326.587 C76.446,326.665 76.203,326.716 75.957,326.74 C75.711,326.764 75.504,326.776 75.336,326.776 C75.156,326.776 74.907,326.746 74.589,326.686 C74.271,326.626 73.953,326.545 73.635,326.443 C73.317,326.341 73.044,326.215 72.816,326.065 C72.588,325.915 72.474,325.75 72.474,325.57 C72.474,325.51 72.477,325.453 72.483,325.399 C72.489,325.345 72.492,325.294 72.492,325.246 L72.492,325.246 L72.15,325.156 L71.322,327.172 L71.574,327.352 C71.634,327.28 71.706,327.244 71.79,327.244 C71.838,327.244 71.976,327.289 72.204,327.379 C72.432,327.469 72.711,327.565 73.041,327.667 C73.371,327.769 73.737,327.859 74.139,327.937 C74.541,328.015 74.946,328.054 75.354,328.054 Z M86.712,328 L86.712,327.676 C86.484,327.676 86.37,327.586 86.37,327.406 L86.37,327.406 L86.37,324.706 L89.124,321.142 C89.256,320.974 89.409,320.809 89.583,320.647 C89.757,320.485 89.916,320.404 90.06,320.404 L90.06,320.404 L90.06,320.08 L87.306,320.08 L87.306,320.404 C87.366,320.404 87.426,320.416 87.486,320.44 C87.546,320.464 87.576,320.524 87.576,320.62 C87.576,320.692 87.549,320.767 87.495,320.845 C87.441,320.923 87.36,321.04 87.252,321.196 L87.252,321.196 L85.65,323.428 L83.832,321.052 C83.772,320.968 83.718,320.896 83.67,320.836 C83.622,320.776 83.598,320.71 83.598,320.638 C83.598,320.566 83.634,320.509 83.706,320.467 C83.778,320.425 83.844,320.404 83.904,320.404 L83.904,320.404 L83.904,320.08 L80.934,320.08 L80.934,320.404 C81.042,320.404 81.156,320.428 81.276,320.476 C81.396,320.524 81.498,320.602 81.582,320.71 L81.582,320.71 L84.642,324.634 L84.642,327.406 C84.642,327.586 84.534,327.676 84.318,327.676 L84.318,327.676 L84.318,328 L86.712,328 Z M94.218,328 L94.218,327.676 C94.014,327.676 93.912,327.586 93.912,327.406 L93.912,327.406 L93.912,322.348 L93.93,322.348 L96.828,328 L96.972,328 L100.032,322.348 L100.068,322.348 L100.068,327.406 C100.104,327.586 99.996,327.676 99.744,327.676 L99.744,327.676 L99.744,328 L101.832,328 L101.832,327.676 C101.772,327.676 101.715,327.655 101.661,327.613 C101.607,327.571 101.58,327.502 101.58,327.406 L101.58,327.406 L101.58,320.638 C101.58,320.542 101.607,320.479 101.661,320.449 C101.715,320.419 101.772,320.404 101.832,320.404 L101.832,320.404 L101.832,320.08 L99.294,320.08 L99.294,320.404 C99.39,320.404 99.438,320.458 99.438,320.566 C99.438,320.602 99.414,320.665 99.366,320.755 C99.318,320.845 99.252,320.962 99.168,321.106 L99.168,321.106 L96.954,325.138 L94.758,321.088 C94.674,320.944 94.611,320.833 94.569,320.755 C94.527,320.677 94.506,320.614 94.506,320.566 C94.506,320.458 94.566,320.404 94.686,320.404 L94.686,320.404 L94.686,320.08 L92.184,320.08 L92.184,320.404 C92.268,320.404 92.325,320.422 92.355,320.458 C92.385,320.494 92.4,320.596 92.4,320.764 L92.4,320.764 L92.4,327.352 C92.4,327.484 92.379,327.568 92.337,327.604 C92.295,327.64 92.244,327.664 92.184,327.676 L92.184,327.676 L92.184,328 L94.218,328 Z M107.268,328 L107.268,327.676 C107.016,327.676 106.89,327.586 106.89,327.406 L106.89,327.406 L106.89,324.706 L109.95,324.706 C110.922,324.706 111.651,324.541 112.137,324.211 C112.623,323.881 112.866,323.284 112.866,322.42 C112.866,321.556 112.623,320.95 112.137,320.602 C111.651,320.254 110.922,320.08 109.95,320.08 L109.95,320.08 L104.712,320.08 L104.712,320.404 C105.012,320.404 105.162,320.494 105.162,320.674 L105.162,320.674 L105.162,327.406 C105.162,327.586 105.012,327.676 104.712,327.676 L104.712,327.676 L104.712,328 L107.268,328 Z M109.914,323.374 L106.89,323.374 L106.89,321.412 L109.914,321.412 C110.262,321.412 110.553,321.487 110.787,321.637 C111.021,321.787 111.138,322.048 111.138,322.42 C111.138,322.804 111.021,323.059 110.787,323.185 C110.553,323.311 110.262,323.374 109.914,323.374 L109.914,323.374 Z M119.202,328 L119.202,327.676 C118.986,327.676 118.878,327.586 118.878,327.406 L118.878,327.406 L118.878,321.412 L121.218,321.412 C121.314,321.412 121.404,321.436 121.488,321.484 C121.572,321.532 121.614,321.61 121.614,321.718 L121.614,321.718 L121.938,321.718 L121.938,319.648 L121.614,319.648 C121.614,319.816 121.572,319.93 121.488,319.99 C121.404,320.05 121.314,320.08 121.218,320.08 L121.218,320.08 L114.81,320.08 C114.714,320.08 114.624,320.05 114.54,319.99 C114.456,319.93 114.414,319.816 114.414,319.648 L114.414,319.648 L114.09,319.648 L114.09,321.718 L114.414,321.718 C114.414,321.61 114.456,321.532 114.54,321.484 C114.624,321.436 114.714,321.412 114.81,321.412 L114.81,321.412 L117.15,321.412 L117.15,327.406 C117.15,327.502 117.12,327.571 117.06,327.613 C117,327.655 116.94,327.676 116.88,327.676 L116.88,327.676 L116.88,328 L119.202,328 Z M128.004,328.054 C128.664,328.054 129.285,327.979 129.867,327.829 C130.449,327.679 130.956,327.436 131.388,327.1 C131.82,326.764 132.162,326.341 132.414,325.831 C132.666,325.321 132.792,324.724 132.792,324.04 C132.792,323.356 132.666,322.759 132.414,322.249 C132.162,321.739 131.82,321.316 131.388,320.98 C130.956,320.644 130.449,320.392 129.867,320.224 C129.285,320.056 128.664,319.972 128.004,319.972 C127.344,319.972 126.723,320.056 126.141,320.224 C125.559,320.392 125.052,320.644 124.62,320.98 C124.188,321.316 123.846,321.739 123.594,322.249 C123.342,322.759 123.216,323.356 123.216,324.04 C123.216,324.724 123.342,325.321 123.594,325.831 C123.846,326.341 124.188,326.764 124.62,327.1 C125.052,327.436 125.559,327.679 126.141,327.829 C126.723,327.979 127.344,328.054 128.004,328.054 Z M128.004,326.776 C127.62,326.776 127.245,326.713 126.879,326.587 C126.513,326.461 126.186,326.281 125.898,326.047 C125.61,325.813 125.379,325.528 125.205,325.192 C125.031,324.856 124.944,324.472 124.944,324.04 C124.944,323.608 125.031,323.224 125.205,322.888 C125.379,322.552 125.61,322.267 125.898,322.033 C126.186,321.799 126.513,321.619 126.879,321.493 C127.245,321.367 127.62,321.304 128.004,321.304 C128.388,321.304 128.763,321.367 129.129,321.493 C129.495,321.619 129.822,321.799 130.11,322.033 C130.398,322.267 130.629,322.552 130.803,322.888 C130.977,323.224 131.064,323.608 131.064,324.04 C131.064,324.472 130.977,324.856 130.803,325.192 C130.629,325.528 130.398,325.813 130.11,326.047 C129.822,326.281 129.495,326.461 129.129,326.587 C128.763,326.713 128.388,326.776 128.004,326.776 Z M137.22,328 L137.22,327.676 C137.016,327.676 136.914,327.586 136.914,327.406 L136.914,327.406 L136.914,322.348 L136.932,322.348 L139.83,328 L139.974,328 L143.034,322.348 L143.07,322.348 L143.07,327.406 C143.106,327.586 142.998,327.676 142.746,327.676 L142.746,327.676 L142.746,328 L144.834,328 L144.834,327.676 C144.774,327.676 144.717,327.655 144.663,327.613 C144.609,327.571 144.582,327.502 144.582,327.406 L144.582,327.406 L144.582,320.638 C144.582,320.542 144.609,320.479 144.663,320.449 C144.717,320.419 144.774,320.404 144.834,320.404 L144.834,320.404 L144.834,320.08 L142.296,320.08 L142.296,320.404 C142.392,320.404 142.44,320.458 142.44,320.566 C142.44,320.602 142.416,320.665 142.368,320.755 C142.32,320.845 142.254,320.962 142.17,321.106 L142.17,321.106 L139.956,325.138 L137.76,321.088 C137.676,320.944 137.613,320.833 137.571,320.755 C137.529,320.677 137.508,320.614 137.508,320.566 C137.508,320.458 137.568,320.404 137.688,320.404 L137.688,320.404 L137.688,320.08 L135.186,320.08 L135.186,320.404 C135.27,320.404 135.327,320.422 135.357,320.458 C135.387,320.494 135.402,320.596 135.402,320.764 L135.402,320.764 L135.402,327.352 C135.402,327.484 135.381,327.568 135.339,327.604 C135.297,327.64 135.246,327.664 135.186,327.676 L135.186,327.676 L135.186,328 L137.22,328 Z M155.76,328 L155.76,327.676 C155.508,327.676 155.382,327.586 155.382,327.406 L155.382,327.406 L155.382,324.706 L158.442,324.706 C159.414,324.706 160.143,324.541 160.629,324.211 C161.115,323.881 161.358,323.284 161.358,322.42 C161.358,321.556 161.115,320.95 160.629,320.602 C160.143,320.254 159.414,320.08 158.442,320.08 L158.442,320.08 L153.204,320.08 L153.204,320.404 C153.504,320.404 153.654,320.494 153.654,320.674 L153.654,320.674 L153.654,327.406 C153.654,327.586 153.504,327.676 153.204,327.676 L153.204,327.676 L153.204,328 L155.76,328 Z M158.406,323.374 L155.382,323.374 L155.382,321.412 L158.406,321.412 C158.754,321.412 159.045,321.487 159.279,321.637 C159.513,321.787 159.63,322.048 159.63,322.42 C159.63,322.804 159.513,323.059 159.279,323.185 C159.045,323.311 158.754,323.374 158.406,323.374 L158.406,323.374 Z M166.362,328 L166.362,327.676 C166.026,327.676 165.858,327.586 165.858,327.406 L165.858,327.406 L165.858,320.674 C165.858,320.494 166.026,320.404 166.362,320.404 L166.362,320.404 L166.362,320.08 L163.626,320.08 L163.626,320.404 C163.818,320.404 163.95,320.425 164.022,320.467 C164.094,320.509 164.13,320.578 164.13,320.674 L164.13,320.674 L164.13,327.406 C164.13,327.502 164.094,327.571 164.022,327.613 C163.95,327.655 163.818,327.676 163.626,327.676 L163.626,327.676 L163.626,328 L166.362,328 Z M177.252,328.18 L177.252,326.29 L176.928,326.29 C176.928,326.41 176.88,326.503 176.784,326.569 C176.688,326.635 176.568,326.668 176.424,326.668 L176.424,326.668 L171.564,326.668 L171.564,320.674 C171.564,320.494 171.702,320.404 171.978,320.404 L171.978,320.404 L171.978,320.08 L169.368,320.08 L169.368,320.404 C169.68,320.404 169.836,320.494 169.836,320.674 L169.836,320.674 L169.836,327.406 C169.836,327.586 169.68,327.676 169.368,327.676 L169.368,327.676 L169.368,328 L176.424,328 C176.568,328 176.688,328.006 176.784,328.018 C176.88,328.03 176.928,328.084 176.928,328.18 L176.928,328.18 L177.252,328.18 Z M186.918,328.198 L186.918,326.308 L186.594,326.308 C186.594,326.416 186.546,326.503 186.45,326.569 C186.354,326.635 186.234,326.668 186.09,326.668 L186.09,326.668 L181.482,326.668 L181.482,324.544 L184.11,324.544 C184.35,324.544 184.536,324.559 184.668,324.589 C184.8,324.619 184.848,324.7 184.812,324.832 L184.812,324.832 L185.172,324.832 L185.172,322.924 L184.848,322.924 C184.848,323.056 184.8,323.137 184.704,323.167 C184.608,323.197 184.458,323.212 184.254,323.212 L184.254,323.212 L181.482,323.212 L181.482,321.412 L185.874,321.412 C186.246,321.412 186.432,321.526 186.432,321.754 L186.432,321.754 L186.756,321.754 L186.756,319.756 L186.432,319.756 C186.432,319.972 186.246,320.08 185.874,320.08 L185.874,320.08 L179.484,320.08 L179.484,320.404 C179.544,320.404 179.604,320.425 179.664,320.467 C179.724,320.509 179.754,320.578 179.754,320.674 L179.754,320.674 L179.754,327.406 C179.754,327.502 179.724,327.571 179.664,327.613 C179.604,327.655 179.544,327.676 179.484,327.676 L179.484,327.676 L179.484,328 L186.09,328 C186.234,328 186.354,328.006 186.45,328.018 C186.546,328.03 186.594,328.09 186.594,328.198 L186.594,328.198 L186.918,328.198 Z M190.752,328.054 C191.1,328.054 191.4,327.937 191.652,327.703 C191.904,327.469 192.03,327.178 192.03,326.83 C192.03,326.482 191.904,326.182 191.652,325.93 C191.4,325.678 191.1,325.552 190.752,325.552 C190.404,325.552 190.104,325.678 189.852,325.93 C189.6,326.182 189.474,326.482 189.474,326.83 C189.474,327.178 189.6,327.469 189.852,327.703 C190.104,327.937 190.404,328.054 190.752,328.054 Z" id="WhenIsawyoumyheartskippedabeat.Howunpleasant.Addthistoyoursymptompile." fill="#000000" fill-rule="nonzero"></path>
    </g>
</svg>