<?xml version="1.0" encoding="UTF-8"?>
<svg width="262px" height="360px" viewBox="0 0 262 360" version="1.1" xmlns="http://www.w3.org/2000/svg" xmlns:xlink="http://www.w3.org/1999/xlink">
    <title>Bra Mask</title>
    <g id="Bra-Mask" stroke="none" stroke-width="1" fill="none" fill-rule="evenodd">
        <g id="Group" transform="translate(9.000000, 9.000000)" fill="#FFFFFF" stroke="#000000" stroke-width="3">
            <g id="Rectangle">
                <rect x="1.5" y="1.5" width="239" height="337" rx="8"></rect>
            </g>
        </g>
        <path d="M41.296,282.048 C41.808,282.048 42.2986667,281.989333 42.768,281.872 C43.2373333,281.754667 43.656,281.616 44.024,281.456 C44.392,281.296 44.696,281.152 44.936,281.024 C45.176,280.896 45.328,280.832 45.392,280.832 C45.424,280.832 45.4533333,280.834667 45.48,280.84 L45.522,280.846 L45.522,280.846 L45.568,280.848 L45.696,280.72 L44.64,279.024 L44.416,279.152 C44.4586667,279.205333 44.48,279.269333 44.48,279.344 C44.48,279.482667 44.376,279.629333 44.168,279.784 C43.96,279.938667 43.7013333,280.077333 43.392,280.2 C43.0826667,280.322667 42.7413333,280.424 42.368,280.504 C41.9946667,280.584 41.6373333,280.624 41.296,280.624 C40.848,280.624 40.4186667,280.56 40.008,280.432 C39.5973333,280.304 39.24,280.117333 38.936,279.872 C38.632,279.626667 38.3893333,279.325333 38.208,278.968 C38.0266667,278.610667 37.936,278.202667 37.936,277.744 C37.936,277.285333 38.0266667,276.877333 38.208,276.52 C38.3893333,276.162667 38.632,275.861333 38.936,275.616 C39.24,275.370667 39.5973333,275.184 40.008,275.056 C40.4186667,274.928 40.848,274.864 41.296,274.864 C41.5626667,274.864 41.8533333,274.896 42.168,274.96 C42.4826667,275.024 42.7813333,275.104 43.064,275.2 C43.3466667,275.296 43.584,275.405333 43.776,275.528 C43.968,275.650667 44.0746667,275.770667 44.096,275.888 C44.1066667,275.930667 44.1146667,275.968 44.12,276 C44.1253333,276.032 44.128,276.064 44.128,276.096 L44.128,276.096 L44.288,276.208 L45.536,274.272 L45.296,274.08 C45.2746667,274.112 45.2453333,274.154667 45.208,274.208 C45.1706667,274.261333 45.1253333,274.288 45.072,274.288 C45.0293333,274.288 44.912,274.245333 44.72,274.16 C44.528,274.074667 44.2666667,273.984 43.936,273.888 C43.6053333,273.792 43.2186667,273.701333 42.776,273.616 C42.3333333,273.530667 41.84,273.488 41.296,273.488 C40.624,273.488 39.9786667,273.578667 39.36,273.76 C38.7413333,273.941333 38.1946667,274.213333 37.72,274.576 C37.2453333,274.938667 36.8693333,275.389333 36.592,275.928 C36.3146667,276.466667 36.176,277.088 36.176,277.792 C36.176,278.506667 36.3146667,279.130667 36.592,279.664 C36.8693333,280.197333 37.2453333,280.642667 37.72,281 C38.1946667,281.357333 38.7413333,281.621333 39.36,281.792 C39.9786667,281.962667 40.624,282.048 41.296,282.048 Z M50.24,282 L50.24,281.712 C50.176,281.712 50.1093333,281.693333 50.04,281.656 C49.9706667,281.618667 49.936,281.557333 49.936,281.472 L49.936,281.472 L49.936,279.184 L52.16,279.184 L53.424,281.072 C53.584,281.296 53.664,281.461333 53.664,281.568 C53.664,281.664 53.5946667,281.712 53.456,281.712 L53.456,281.712 L53.456,282 L55.904,282 L55.904,281.712 C55.7866667,281.68 55.6773333,281.634667 55.576,281.576 C55.4746667,281.517333 55.3813333,281.429333 55.296,281.312 L55.296,281.312 L53.728,279.024 C53.952,278.970667 54.1706667,278.893333 54.384,278.792 C54.5973333,278.690667 54.792,278.557333 54.968,278.392 C55.144,278.226667 55.2853333,278.032 55.392,277.808 C55.4986667,277.584 55.552,277.328 55.552,277.04 C55.552,276.282667 55.2853333,275.746667 54.752,275.432 C54.2186667,275.117333 53.4773333,274.96 52.528,274.96 L52.528,274.96 L48.112,274.96 L48.112,275.248 C48.304,275.248 48.4,275.328 48.4,275.488 L48.4,275.488 L48.4,281.472 C48.4,281.632 48.304,281.712 48.112,281.712 L48.112,281.712 L48.112,282 L50.24,282 Z M52.496,278 L49.968,278 L49.968,276.144 L52.496,276.144 C53.04,276.144 53.4373333,276.221333 53.688,276.376 C53.9386667,276.530667 54.064,276.741333 54.064,277.008 C54.064,277.669333 53.5413333,278 52.496,278 L52.496,278 Z M64.56,282.176 L64.56,280.496 L64.272,280.496 C64.272,280.592 64.2293333,280.669333 64.144,280.728 C64.0586667,280.786667 63.952,280.816 63.824,280.816 L63.824,280.816 L59.728,280.816 L59.728,278.928 L62.064,278.928 C62.2773333,278.928 62.4426667,278.941333 62.56,278.968 C62.6773333,278.994667 62.72,279.066667 62.688,279.184 L62.688,279.184 L63.008,279.184 L63.008,277.488 L62.72,277.488 C62.72,277.605333 62.6773333,277.677333 62.592,277.704 C62.5066667,277.730667 62.3733333,277.744 62.192,277.744 L62.192,277.744 L59.728,277.744 L59.728,276.144 L63.632,276.144 C63.9626667,276.144 64.128,276.245333 64.128,276.448 L64.128,276.448 L64.416,276.448 L64.416,274.672 L64.128,274.672 C64.128,274.864 63.9626667,274.96 63.632,274.96 L63.632,274.96 L57.952,274.96 L57.952,275.248 C58.0053333,275.248 58.0586667,275.266667 58.112,275.304 C58.1653333,275.341333 58.192,275.402667 58.192,275.488 L58.192,275.488 L58.192,281.472 C58.192,281.557333 58.1653333,281.618667 58.112,281.656 C58.0586667,281.693333 58.0053333,281.712 57.952,281.712 L57.952,281.712 L57.952,282 L63.824,282 C63.952,282 64.0586667,282.005333 64.144,282.016 C64.2293333,282.026667 64.272,282.08 64.272,282.176 L64.272,282.176 L64.56,282.176 Z M73.456,282.176 L73.456,280.496 L73.168,280.496 C73.168,280.592 73.1253333,280.669333 73.04,280.728 C72.9546667,280.786667 72.848,280.816 72.72,280.816 L72.72,280.816 L68.624,280.816 L68.624,278.928 L70.96,278.928 C71.1733333,278.928 71.3386667,278.941333 71.456,278.968 C71.5733333,278.994667 71.616,279.066667 71.584,279.184 L71.584,279.184 L71.904,279.184 L71.904,277.488 L71.616,277.488 C71.616,277.605333 71.5733333,277.677333 71.488,277.704 C71.4026667,277.730667 71.2693333,277.744 71.088,277.744 L71.088,277.744 L68.624,277.744 L68.624,276.144 L72.528,276.144 C72.8586667,276.144 73.024,276.245333 73.024,276.448 L73.024,276.448 L73.312,276.448 L73.312,274.672 L73.024,274.672 C73.024,274.864 72.8586667,274.96 72.528,274.96 L72.528,274.96 L66.848,274.96 L66.848,275.248 C66.9013333,275.248 66.9546667,275.266667 67.008,275.304 C67.0613333,275.341333 67.088,275.402667 67.088,275.488 L67.088,275.488 L67.088,281.472 C67.088,281.557333 67.0613333,281.618667 67.008,281.656 C66.9546667,281.693333 66.9013333,281.712 66.848,281.712 L66.848,281.712 L66.848,282 L72.72,282 C72.848,282 72.9546667,282.005333 73.04,282.016 C73.1253333,282.026667 73.168,282.08 73.168,282.176 L73.168,282.176 L73.456,282.176 Z M77.776,282 L77.776,281.712 C77.552,281.712 77.44,281.632 77.44,281.472 L77.44,281.472 L77.44,279.072 L80.16,279.072 C81.024,279.072 81.672,278.925333 82.104,278.632 C82.536,278.338667 82.752,277.808 82.752,277.04 C82.752,276.272 82.536,275.733333 82.104,275.424 C81.672,275.114667 81.024,274.96 80.16,274.96 L80.16,274.96 L75.504,274.96 L75.504,275.248 C75.7706667,275.248 75.904,275.328 75.904,275.488 L75.904,275.488 L75.904,281.472 C75.904,281.632 75.7706667,281.712 75.504,281.712 L75.504,281.712 L75.504,282 L77.776,282 Z M80.128,277.888 L77.44,277.888 L77.44,276.144 L80.128,276.144 C80.4373333,276.144 80.696,276.210667 80.904,276.344 C81.112,276.477333 81.216,276.709333 81.216,277.04 C81.216,277.381333 81.112,277.608 80.904,277.72 C80.696,277.832 80.4373333,277.888 80.128,277.888 L80.128,277.888 Z M88.848,282 L88.848,281.712 C88.6453333,281.712 88.544,281.632 88.544,281.472 L88.544,281.472 L88.544,279.072 L90.992,275.904 C91.1093333,275.754667 91.2453333,275.608 91.4,275.464 C91.5546667,275.32 91.696,275.248 91.824,275.248 L91.824,275.248 L91.824,274.96 L89.376,274.96 L89.376,275.248 C89.4293333,275.248 89.4826667,275.258667 89.536,275.28 C89.5893333,275.301333 89.616,275.354667 89.616,275.44 C89.616,275.504 89.592,275.570667 89.544,275.64 C89.496,275.709333 89.424,275.813333 89.328,275.952 L89.328,275.952 L87.904,277.936 L86.288,275.824 C86.2346667,275.749333 86.1866667,275.685333 86.144,275.632 C86.1013333,275.578667 86.08,275.52 86.08,275.456 C86.08,275.392 86.112,275.341333 86.176,275.304 C86.24,275.266667 86.2986667,275.248 86.352,275.248 L86.352,275.248 L86.352,274.96 L83.712,274.96 L83.712,275.248 C83.808,275.248 83.9093333,275.269333 84.016,275.312 C84.1226667,275.354667 84.2133333,275.424 84.288,275.52 L84.288,275.52 L87.008,279.008 L87.008,281.472 C87.008,281.632 86.912,281.712 86.72,281.712 L86.72,281.712 L86.72,282 L88.848,282 Z M105.024,282.176 L105.024,280.496 L104.736,280.496 C104.736,280.592 104.693333,280.669333 104.608,280.728 C104.522667,280.786667 104.416,280.816 104.288,280.816 L104.288,280.816 L100.192,280.816 L100.192,278.928 L102.528,278.928 C102.741333,278.928 102.906667,278.941333 103.024,278.968 C103.141333,278.994667 103.184,279.066667 103.152,279.184 L103.152,279.184 L103.472,279.184 L103.472,277.488 L103.184,277.488 C103.184,277.605333 103.141333,277.677333 103.056,277.704 C102.970667,277.730667 102.837333,277.744 102.656,277.744 L102.656,277.744 L100.192,277.744 L100.192,276.144 L104.096,276.144 C104.426667,276.144 104.592,276.245333 104.592,276.448 L104.592,276.448 L104.88,276.448 L104.88,274.672 L104.592,274.672 C104.592,274.864 104.426667,274.96 104.096,274.96 L104.096,274.96 L98.416,274.96 L98.416,275.248 C98.4693333,275.248 98.5226667,275.266667 98.576,275.304 C98.6293333,275.341333 98.656,275.402667 98.656,275.488 L98.656,275.488 L98.656,281.472 C98.656,281.557333 98.6293333,281.618667 98.576,281.656 C98.5226667,281.693333 98.4693333,281.712 98.416,281.712 L98.416,281.712 L98.416,282 L104.288,282 C104.416,282 104.522667,282.005333 104.608,282.016 C104.693333,282.026667 104.736,282.08 104.736,282.176 L104.736,282.176 L105.024,282.176 Z M111.712,282 L111.712,281.712 C111.52,281.68 111.424,281.632 111.424,281.568 C111.424,281.514667 111.453333,281.44 111.512,281.344 C111.570667,281.248 111.658667,281.061333 111.776,280.784 L111.776,280.784 L114.112,275.616 C114.229333,275.370667 114.362667,275.248 114.512,275.248 L114.512,275.248 L114.512,274.96 L112.416,274.96 L112.416,275.248 C112.565333,275.248 112.645333,275.312 112.656,275.44 C112.666667,275.514667 112.64,275.616 112.576,275.744 C112.512,275.872 112.421333,276.064 112.304,276.32 L112.304,276.32 L110.56,280.192 L108.72,276.208 C108.645333,276.048 108.578667,275.901333 108.52,275.768 C108.461333,275.634667 108.432,275.530667 108.432,275.456 C108.432,275.317333 108.496,275.248 108.624,275.248 L108.624,275.248 L108.624,274.96 L106.368,274.96 L106.368,275.248 C106.432,275.248 106.498667,275.274667 106.568,275.328 C106.637333,275.381333 106.693333,275.456 106.736,275.552 L106.736,275.552 L109.168,280.784 C109.264,280.986667 109.346667,281.146667 109.416,281.264 C109.485333,281.381333 109.52,281.466667 109.52,281.52 C109.52,281.573333 109.496,281.613333 109.448,281.64 C109.4,281.666667 109.349333,281.690667 109.296,281.712 L109.296,281.712 L109.296,282 L111.712,282 Z M122.816,282.176 L122.816,280.496 L122.528,280.496 C122.528,280.592 122.485333,280.669333 122.4,280.728 C122.314667,280.786667 122.208,280.816 122.08,280.816 L122.08,280.816 L117.984,280.816 L117.984,278.928 L120.32,278.928 C120.533333,278.928 120.698667,278.941333 120.816,278.968 C120.933333,278.994667 120.976,279.066667 120.944,279.184 L120.944,279.184 L121.264,279.184 L121.264,277.488 L120.976,277.488 C120.976,277.605333 120.933333,277.677333 120.848,277.704 C120.762667,277.730667 120.629333,277.744 120.448,277.744 L120.448,277.744 L117.984,277.744 L117.984,276.144 L121.888,276.144 C122.218667,276.144 122.384,276.245333 122.384,276.448 L122.384,276.448 L122.672,276.448 L122.672,274.672 L122.384,274.672 C122.384,274.864 122.218667,274.96 121.888,274.96 L121.888,274.96 L116.208,274.96 L116.208,275.248 C116.261333,275.248 116.314667,275.266667 116.368,275.304 C116.421333,275.341333 116.448,275.402667 116.448,275.488 L116.448,275.488 L116.448,281.472 C116.448,281.557333 116.421333,281.618667 116.368,281.656 C116.314667,281.693333 116.261333,281.712 116.208,281.712 L116.208,281.712 L116.208,282 L122.08,282 C122.208,282 122.314667,282.005333 122.4,282.016 C122.485333,282.026667 122.528,282.08 122.528,282.176 L122.528,282.176 L122.816,282.176 Z M127.056,282 L127.056,281.712 C126.832,281.712 126.72,281.632 126.72,281.472 L126.72,281.472 L126.72,276.816 L130.688,281.04 C130.816,281.178667 130.930667,281.301333 131.032,281.408 C131.133333,281.514667 131.184,281.589333 131.184,281.632 C131.184,281.685333 131.146667,281.712 131.072,281.712 L131.072,281.712 L131.072,282 L133.152,282 L133.152,281.712 C132.96,281.712 132.864,281.632 132.864,281.472 L132.864,281.472 L132.864,275.488 C132.864,275.328 132.96,275.248 133.152,275.248 L133.152,275.248 L133.152,274.96 L131.2,274.96 L131.2,275.248 C131.413333,275.248 131.52,275.328 131.52,275.488 L131.52,275.488 L131.52,279.824 L127.68,275.76 C127.445333,275.525333 127.328,275.381333 127.328,275.328 C127.328,275.285333 127.365333,275.258667 127.44,275.248 L127.44,275.248 L127.44,274.96 L125.088,274.96 L125.088,275.248 C125.28,275.248 125.376,275.328 125.376,275.488 L125.376,275.488 L125.376,281.472 C125.376,281.632 125.28,281.712 125.088,281.712 L125.088,281.712 L125.088,282 L127.056,282 Z M143.216,282 L143.216,281.712 C142.917333,281.712 142.768,281.632 142.768,281.472 L142.768,281.472 L142.768,275.488 C142.768,275.328 142.917333,275.248 143.216,275.248 L143.216,275.248 L143.216,274.96 L140.784,274.96 L140.784,275.248 C140.954667,275.248 141.072,275.266667 141.136,275.304 C141.2,275.341333 141.232,275.402667 141.232,275.488 L141.232,275.488 L141.232,281.472 C141.232,281.557333 141.2,281.618667 141.136,281.656 C141.072,281.693333 140.954667,281.712 140.784,281.712 L140.784,281.712 L140.784,282 L143.216,282 Z M148.112,282 L148.112,281.712 C148.016,281.712 147.930667,281.693333 147.856,281.656 C147.781333,281.618667 147.744,281.557333 147.744,281.472 L147.744,281.472 L147.744,279.024 L150.56,279.024 C150.741333,279.024 150.853333,279.045333 150.896,279.088 C150.938667,279.130667 150.965333,279.194667 150.976,279.28 L150.976,279.28 L151.264,279.28 L151.264,277.6 L150.976,277.6 C150.965333,277.685333 150.938667,277.746667 150.896,277.784 C150.853333,277.821333 150.741333,277.84 150.56,277.84 L150.56,277.84 L147.744,277.84 L147.744,276.144 L152.08,276.144 C152.261333,276.144 152.389333,276.168 152.464,276.216 C152.538667,276.264 152.576,276.314667 152.576,276.368 L152.576,276.368 L152.864,276.368 L152.864,274.672 L152.576,274.672 C152.576,274.757333 152.538667,274.826667 152.464,274.88 C152.389333,274.933333 152.261333,274.96 152.08,274.96 L152.08,274.96 L145.872,274.96 L145.872,275.248 C146.096,275.248 146.208,275.328 146.208,275.488 L146.208,275.488 L146.208,281.472 C146.208,281.632 146.106667,281.712 145.904,281.712 L145.904,281.712 L145.904,282 L148.112,282 Z M163.968,282 L163.968,281.712 C163.765333,281.712 163.664,281.632 163.664,281.472 L163.664,281.472 L163.664,279.072 L166.112,275.904 C166.229333,275.754667 166.365333,275.608 166.52,275.464 C166.674667,275.32 166.816,275.248 166.944,275.248 L166.944,275.248 L166.944,274.96 L164.496,274.96 L164.496,275.248 C164.549333,275.248 164.602667,275.258667 164.656,275.28 C164.709333,275.301333 164.736,275.354667 164.736,275.44 C164.736,275.504 164.712,275.570667 164.664,275.64 C164.616,275.709333 164.544,275.813333 164.448,275.952 L164.448,275.952 L163.024,277.936 L161.408,275.824 C161.354667,275.749333 161.306667,275.685333 161.264,275.632 C161.221333,275.578667 161.2,275.52 161.2,275.456 C161.2,275.392 161.232,275.341333 161.296,275.304 C161.36,275.266667 161.418667,275.248 161.472,275.248 L161.472,275.248 L161.472,274.96 L158.832,274.96 L158.832,275.248 C158.928,275.248 159.029333,275.269333 159.136,275.312 C159.242667,275.354667 159.333333,275.424 159.408,275.52 L159.408,275.52 L162.128,279.008 L162.128,281.472 C162.128,281.632 162.032,281.712 161.84,281.712 L161.84,281.712 L161.84,282 L163.968,282 Z M172.224,282.048 C172.810667,282.048 173.362667,281.981333 173.88,281.848 C174.397333,281.714667 174.848,281.498667 175.232,281.2 C175.616,280.901333 175.92,280.525333 176.144,280.072 C176.368,279.618667 176.48,279.088 176.48,278.48 C176.48,277.872 176.368,277.341333 176.144,276.888 C175.92,276.434667 175.616,276.058667 175.232,275.76 C174.848,275.461333 174.397333,275.237333 173.88,275.088 C173.362667,274.938667 172.810667,274.864 172.224,274.864 C171.637333,274.864 171.085333,274.938667 170.568,275.088 C170.050667,275.237333 169.6,275.461333 169.216,275.76 C168.832,276.058667 168.528,276.434667 168.304,276.888 C168.08,277.341333 167.968,277.872 167.968,278.48 C167.968,279.088 168.08,279.618667 168.304,280.072 C168.528,280.525333 168.832,280.901333 169.216,281.2 C169.6,281.498667 170.050667,281.714667 170.568,281.848 C171.085333,281.981333 171.637333,282.048 172.224,282.048 Z M172.224,280.912 C171.882667,280.912 171.549333,280.856 171.224,280.744 C170.898667,280.632 170.608,280.472 170.352,280.264 C170.096,280.056 169.890667,279.802667 169.736,279.504 C169.581333,279.205333 169.504,278.864 169.504,278.48 C169.504,278.096 169.581333,277.754667 169.736,277.456 C169.890667,277.157333 170.096,276.904 170.352,276.696 C170.608,276.488 170.898667,276.328 171.224,276.216 C171.549333,276.104 171.882667,276.048 172.224,276.048 C172.565333,276.048 172.898667,276.104 173.224,276.216 C173.549333,276.328 173.84,276.488 174.096,276.696 C174.352,276.904 174.557333,277.157333 174.712,277.456 C174.866667,277.754667 174.944,278.096 174.944,278.48 C174.944,278.864 174.866667,279.205333 174.712,279.504 C174.557333,279.802667 174.352,280.056 174.096,280.264 C173.84,280.472 173.549333,280.632 173.224,280.744 C172.898667,280.856 172.565333,280.912 172.224,280.912 Z M182.512,282.048 C183.152,282.048 183.709333,281.981333 184.184,281.848 C184.658667,281.714667 185.048,281.530667 185.352,281.296 C185.656,281.061333 185.882667,280.792 186.032,280.488 C186.181333,280.184 186.256,279.866667 186.256,279.536 L186.256,279.536 L186.256,275.488 C186.256,275.328 186.373333,275.248 186.608,275.248 L186.608,275.248 L186.608,274.96 L184.384,274.96 L184.384,275.248 C184.650667,275.248 184.784,275.328 184.784,275.488 L184.784,275.488 L184.784,279.152 C184.784,279.664 184.597333,280.074667 184.224,280.384 C183.850667,280.693333 183.28,280.848 182.512,280.848 C181.744,280.848 181.173333,280.693333 180.8,280.384 C180.426667,280.074667 180.24,279.664 180.24,279.152 L180.24,279.152 L180.24,275.488 C180.24,275.328 180.357333,275.248 180.592,275.248 L180.592,275.248 L180.592,274.96 L178.304,274.96 L178.304,275.248 C178.485333,275.248 178.608,275.266667 178.672,275.304 C178.736,275.341333 178.768,275.402667 178.768,275.488 L178.768,275.488 L178.768,279.536 C178.768,279.866667 178.842667,280.184 178.992,280.488 C179.141333,280.792 179.368,281.061333 179.672,281.296 C179.976,281.530667 180.365333,281.714667 180.84,281.848 C181.314667,281.981333 181.872,282.048 182.512,282.048 Z M188.528,277.92 C188.858667,277.845333 189.178667,277.712 189.488,277.52 C189.797333,277.328 190.069333,277.098667 190.304,276.832 C190.538667,276.565333 190.728,276.269333 190.872,275.944 C191.016,275.618667 191.088,275.28 191.088,274.928 C191.088,274.48 190.978667,274.101333 190.76,273.792 C190.541333,273.482667 190.218667,273.328 189.792,273.328 C189.514667,273.328 189.266667,273.44 189.048,273.664 C188.829333,273.888 188.72,274.154667 188.72,274.464 C188.72,274.784 188.818667,275.032 189.016,275.208 C189.213333,275.384 189.445333,275.472 189.712,275.472 C189.797333,275.472 189.888,275.477333 189.984,275.488 C190.08,275.498667 190.138667,275.541333 190.16,275.616 C190.181333,275.808 190.138667,276 190.032,276.192 C189.925333,276.384 189.789333,276.562667 189.624,276.728 C189.458667,276.893333 189.274667,277.037333 189.072,277.16 C188.869333,277.282667 188.688,277.365333 188.528,277.408 L188.528,277.408 L188.528,277.92 Z M195.616,282 L195.616,281.712 C195.552,281.712 195.485333,281.693333 195.416,281.656 C195.346667,281.618667 195.312,281.557333 195.312,281.472 L195.312,281.472 L195.312,279.184 L197.536,279.184 L198.8,281.072 C198.96,281.296 199.04,281.461333 199.04,281.568 C199.04,281.664 198.970667,281.712 198.832,281.712 L198.832,281.712 L198.832,282 L201.28,282 L201.28,281.712 C201.162667,281.68 201.053333,281.634667 200.952,281.576 C200.850667,281.517333 200.757333,281.429333 200.672,281.312 L200.672,281.312 L199.104,279.024 C199.328,278.970667 199.546667,278.893333 199.76,278.792 C199.973333,278.690667 200.168,278.557333 200.344,278.392 C200.52,278.226667 200.661333,278.032 200.768,277.808 C200.874667,277.584 200.928,277.328 200.928,277.04 C200.928,276.282667 200.661333,275.746667 200.128,275.432 C199.594667,275.117333 198.853333,274.96 197.904,274.96 L197.904,274.96 L193.488,274.96 L193.488,275.248 C193.68,275.248 193.776,275.328 193.776,275.488 L193.776,275.488 L193.776,281.472 C193.776,281.632 193.68,281.712 193.488,281.712 L193.488,281.712 L193.488,282 L195.616,282 Z M197.872,278 L195.344,278 L195.344,276.144 L197.872,276.144 C198.416,276.144 198.813333,276.221333 199.064,276.376 C199.314667,276.530667 199.44,276.741333 199.44,277.008 C199.44,277.669333 198.917333,278 197.872,278 L197.872,278 Z M209.936,282.176 L209.936,280.496 L209.648,280.496 C209.648,280.592 209.605333,280.669333 209.52,280.728 C209.434667,280.786667 209.328,280.816 209.2,280.816 L209.2,280.816 L205.104,280.816 L205.104,278.928 L207.44,278.928 C207.653333,278.928 207.818667,278.941333 207.936,278.968 C208.053333,278.994667 208.096,279.066667 208.064,279.184 L208.064,279.184 L208.384,279.184 L208.384,277.488 L208.096,277.488 C208.096,277.605333 208.053333,277.677333 207.968,277.704 C207.882667,277.730667 207.749333,277.744 207.568,277.744 L207.568,277.744 L205.104,277.744 L205.104,276.144 L209.008,276.144 C209.338667,276.144 209.504,276.245333 209.504,276.448 L209.504,276.448 L209.792,276.448 L209.792,274.672 L209.504,274.672 C209.504,274.864 209.338667,274.96 209.008,274.96 L209.008,274.96 L203.328,274.96 L203.328,275.248 C203.381333,275.248 203.434667,275.266667 203.488,275.304 C203.541333,275.341333 203.568,275.402667 203.568,275.488 L203.568,275.488 L203.568,281.472 C203.568,281.557333 203.541333,281.618667 203.488,281.656 C203.434667,281.693333 203.381333,281.712 203.328,281.712 L203.328,281.712 L203.328,282 L209.2,282 C209.328,282 209.434667,282.005333 209.52,282.016 C209.605333,282.026667 209.648,282.08 209.648,282.176 L209.648,282.176 L209.936,282.176 Z M218.176,282 L218.176,281.712 C218.08,281.712 218.005333,281.701333 217.952,281.68 C217.898667,281.658667 217.872,281.605333 217.872,281.52 C217.872,281.466667 217.885333,281.405333 217.912,281.336 C217.938667,281.266667 217.973333,281.189333 218.016,281.104 L218.016,281.104 L218.464,280.24 L221.888,280.24 L222.32,281.152 C222.352,281.237333 222.378667,281.306667 222.4,281.36 C222.421333,281.413333 222.432,281.472 222.432,281.536 C222.432,281.621333 222.402667,281.68 222.344,281.712 C222.285333,281.744 222.229333,281.76 222.176,281.76 L222.176,281.76 L222.176,282 L224.448,282 L224.448,281.712 C224.373333,281.690667 224.304,281.658667 224.24,281.616 C224.176,281.573333 224.117333,281.504 224.064,281.408 L224.064,281.408 L221.472,275.968 C221.418667,275.850667 221.368,275.746667 221.32,275.656 C221.272,275.565333 221.248,275.488 221.248,275.424 C221.248,275.349333 221.266667,275.306667 221.304,275.296 C221.341333,275.285333 221.376,275.269333 221.408,275.248 L221.408,275.248 L221.408,274.96 L218.992,274.96 L218.992,275.248 C219.024,275.269333 219.053333,275.288 219.08,275.304 C219.106667,275.32 219.12,275.36 219.12,275.424 C219.12,275.509333 219.101333,275.597333 219.064,275.688 C219.026667,275.778667 218.976,275.898667 218.912,276.048 L218.912,276.048 L216.528,281.248 C216.485333,281.333333 216.424,281.426667 216.344,281.528 C216.264,281.629333 216.16,281.690667 216.032,281.712 L216.032,281.712 L216.032,282 L218.176,282 Z M221.376,279.056 L218.944,279.056 L220.08,276.368 L221.376,279.056 Z M105.544,298 L105.544,297.712 C105.448,297.712 105.384,297.696 105.352,297.664 C105.32,297.632 105.304,297.573333 105.304,297.488 C105.304,297.456 105.344,297.336 105.424,297.128 C105.504,296.92 105.605333,296.664 105.728,296.36 C105.850667,296.056 105.984,295.725333 106.128,295.368 C106.272,295.010667 106.408,294.669333 106.536,294.344 C106.664,294.018667 106.776,293.730667 106.872,293.48 C106.968,293.229333 107.026667,293.056 107.048,292.96 L107.048,292.96 L107.08,292.96 C107.250667,293.493333 107.426667,294.021333 107.608,294.544 C107.789333,295.066667 107.957333,295.538667 108.112,295.96 C108.266667,296.381333 108.392,296.730667 108.488,297.008 C108.584,297.285333 108.632,297.445333 108.632,297.488 C108.632,297.573333 108.621333,297.629333 108.6,297.656 C108.578667,297.682667 108.525333,297.701333 108.44,297.712 L108.44,297.712 L108.44,298 L110.68,298 L110.68,297.712 C110.530667,297.712 110.456,297.642667 110.456,297.504 C110.456,297.450667 110.488,297.352 110.552,297.208 C110.616,297.064 110.68,296.901333 110.744,296.72 L110.744,296.72 L112.584,291.84 C112.722667,291.445333 112.882667,291.248 113.064,291.248 L113.064,291.248 L113.064,290.96 L111.032,290.96 L111.032,291.248 C111.202667,291.248 111.288,291.322667 111.288,291.472 C111.288,291.546667 111.269333,291.64 111.232,291.752 C111.194667,291.864 111.149333,291.994667 111.096,292.144 L111.096,292.144 L109.608,296.032 L108.2,292.176 C108.146667,292.048 108.093333,291.912 108.04,291.768 C107.986667,291.624 107.96,291.514667 107.96,291.44 C107.96,291.312 108.056,291.248 108.248,291.248 L108.248,291.248 L108.248,290.96 L105.96,290.96 L105.96,291.248 C106.130667,291.248 106.216,291.322667 106.216,291.472 C106.216,291.557333 106.192,291.666667 106.144,291.8 C106.096,291.933333 106.045333,292.074667 105.992,292.224 L105.992,292.224 L104.632,296.032 L104.6,296.032 L103.192,292.144 C103.128,291.973333 103.074667,291.832 103.032,291.72 C102.989333,291.608 102.968,291.525333 102.968,291.472 C102.968,291.322667 103.037333,291.248 103.176,291.248 L103.176,291.248 L103.176,290.96 L101.144,290.96 L101.144,291.248 C101.304,291.28 101.416,291.381333 101.48,291.552 L101.48,291.552 L103.592,297.104 C103.613333,297.157333 103.642667,297.234667 103.68,297.336 C103.717333,297.437333 103.736,297.52 103.736,297.584 C103.736,297.648 103.72,297.685333 103.688,297.696 C103.656,297.706667 103.618667,297.712 103.576,297.712 L103.576,297.712 L103.576,298 L105.544,298 Z M118.216,298.048 C118.802667,298.048 119.354667,297.981333 119.872,297.848 C120.389333,297.714667 120.84,297.498667 121.224,297.2 C121.608,296.901333 121.912,296.525333 122.136,296.072 C122.36,295.618667 122.472,295.088 122.472,294.48 C122.472,293.872 122.36,293.341333 122.136,292.888 C121.912,292.434667 121.608,292.058667 121.224,291.76 C120.84,291.461333 120.389333,291.237333 119.872,291.088 C119.354667,290.938667 118.802667,290.864 118.216,290.864 C117.629333,290.864 117.077333,290.938667 116.56,291.088 C116.042667,291.237333 115.592,291.461333 115.208,291.76 C114.824,292.058667 114.52,292.434667 114.296,292.888 C114.072,293.341333 113.96,293.872 113.96,294.48 C113.96,295.088 114.072,295.618667 114.296,296.072 C114.52,296.525333 114.824,296.901333 115.208,297.2 C115.592,297.498667 116.042667,297.714667 116.56,297.848 C117.077333,297.981333 117.629333,298.048 118.216,298.048 Z M118.216,296.912 C117.874667,296.912 117.541333,296.856 117.216,296.744 C116.890667,296.632 116.6,296.472 116.344,296.264 C116.088,296.056 115.882667,295.802667 115.728,295.504 C115.573333,295.205333 115.496,294.864 115.496,294.48 C115.496,294.096 115.573333,293.754667 115.728,293.456 C115.882667,293.157333 116.088,292.904 116.344,292.696 C116.6,292.488 116.890667,292.328 117.216,292.216 C117.541333,292.104 117.874667,292.048 118.216,292.048 C118.557333,292.048 118.890667,292.104 119.216,292.216 C119.541333,292.328 119.832,292.488 120.088,292.696 C120.344,292.904 120.549333,293.157333 120.704,293.456 C120.858667,293.754667 120.936,294.096 120.936,294.48 C120.936,294.864 120.858667,295.205333 120.704,295.504 C120.549333,295.802667 120.344,296.056 120.088,296.264 C119.832,296.472 119.541333,296.632 119.216,296.744 C118.890667,296.856 118.557333,296.912 118.216,296.912 Z M126.408,298 L126.408,297.712 C126.226667,297.712 126.136,297.632 126.136,297.472 L126.136,297.472 L126.136,292.976 L126.152,292.976 L128.728,298 L128.856,298 L131.576,292.976 L131.608,292.976 L131.608,297.472 C131.64,297.632 131.544,297.712 131.32,297.712 L131.32,297.712 L131.32,298 L133.176,298 L133.176,297.712 C133.122667,297.712 133.072,297.693333 133.024,297.656 C132.976,297.618667 132.952,297.557333 132.952,297.472 L132.952,297.472 L132.952,291.456 C132.952,291.370667 132.976,291.314667 133.024,291.288 C133.072,291.261333 133.122667,291.248 133.176,291.248 L133.176,291.248 L133.176,290.96 L130.92,290.96 L130.92,291.248 C131.005333,291.248 131.048,291.296 131.048,291.392 C131.048,291.424 131.026667,291.48 130.984,291.56 C130.941333,291.64 130.882667,291.744 130.808,291.872 L130.808,291.872 L128.84,295.456 L126.888,291.856 C126.813333,291.728 126.757333,291.629333 126.72,291.56 C126.682667,291.490667 126.664,291.434667 126.664,291.392 C126.664,291.296 126.717333,291.248 126.824,291.248 L126.824,291.248 L126.824,290.96 L124.6,290.96 L124.6,291.248 C124.674667,291.248 124.725333,291.264 124.752,291.296 C124.778667,291.328 124.792,291.418667 124.792,291.568 L124.792,291.568 L124.792,297.424 C124.792,297.541333 124.773333,297.616 124.736,297.648 C124.698667,297.68 124.653333,297.701333 124.6,297.712 L124.6,297.712 L124.6,298 L126.408,298 Z M137.048,298 L137.048,297.712 C136.952,297.712 136.877333,297.701333 136.824,297.68 C136.770667,297.658667 136.744,297.605333 136.744,297.52 C136.744,297.466667 136.757333,297.405333 136.784,297.336 C136.810667,297.266667 136.845333,297.189333 136.888,297.104 L136.888,297.104 L137.336,296.24 L140.76,296.24 L141.192,297.152 C141.224,297.237333 141.250667,297.306667 141.272,297.36 C141.293333,297.413333 141.304,297.472 141.304,297.536 C141.304,297.621333 141.274667,297.68 141.216,297.712 C141.157333,297.744 141.101333,297.76 141.048,297.76 L141.048,297.76 L141.048,298 L143.32,298 L143.32,297.712 C143.245333,297.690667 143.176,297.658667 143.112,297.616 C143.048,297.573333 142.989333,297.504 142.936,297.408 L142.936,297.408 L140.344,291.968 C140.290667,291.850667 140.24,291.746667 140.192,291.656 C140.144,291.565333 140.12,291.488 140.12,291.424 C140.12,291.349333 140.138667,291.306667 140.176,291.296 C140.213333,291.285333 140.248,291.269333 140.28,291.248 L140.28,291.248 L140.28,290.96 L137.864,290.96 L137.864,291.248 C137.896,291.269333 137.925333,291.288 137.952,291.304 C137.978667,291.32 137.992,291.36 137.992,291.424 C137.992,291.509333 137.973333,291.597333 137.936,291.688 C137.898667,291.778667 137.848,291.898667 137.784,292.048 L137.784,292.048 L135.4,297.248 C135.357333,297.333333 135.296,297.426667 135.216,297.528 C135.136,297.629333 135.032,297.690667 134.904,297.712 L134.904,297.712 L134.904,298 L137.048,298 Z M140.248,295.056 L137.816,295.056 L138.952,292.368 L140.248,295.056 Z M146.824,298 L146.824,297.712 C146.6,297.712 146.488,297.632 146.488,297.472 L146.488,297.472 L146.488,292.816 L150.456,297.04 C150.584,297.178667 150.698667,297.301333 150.8,297.408 C150.901333,297.514667 150.952,297.589333 150.952,297.632 C150.952,297.685333 150.914667,297.712 150.84,297.712 L150.84,297.712 L150.84,298 L152.92,298 L152.92,297.712 C152.728,297.712 152.632,297.632 152.632,297.472 L152.632,297.472 L152.632,291.488 C152.632,291.328 152.728,291.248 152.92,291.248 L152.92,291.248 L152.92,290.96 L150.968,290.96 L150.968,291.248 C151.181333,291.248 151.288,291.328 151.288,291.488 L151.288,291.488 L151.288,295.824 L147.448,291.76 C147.213333,291.525333 147.096,291.381333 147.096,291.328 C147.096,291.285333 147.133333,291.258667 147.208,291.248 L147.208,291.248 L147.208,290.96 L144.856,290.96 L144.856,291.248 C145.048,291.248 145.144,291.328 145.144,291.488 L145.144,291.488 L145.144,297.472 C145.144,297.632 145.048,297.712 144.856,297.712 L144.856,297.712 L144.856,298 L146.824,298 Z M156.664,298.048 C156.973333,298.048 157.24,297.944 157.464,297.736 C157.688,297.528 157.8,297.269333 157.8,296.96 C157.8,296.650667 157.688,296.384 157.464,296.16 C157.24,295.936 156.973333,295.824 156.664,295.824 C156.354667,295.824 156.088,295.936 155.864,296.16 C155.64,296.384 155.528,296.650667 155.528,296.96 C155.528,297.269333 155.64,297.528 155.864,297.736 C156.088,297.944 156.354667,298.048 156.664,298.048 Z M38.328,314 L38.328,313.712 C38.2426667,313.712 38.168,313.688 38.104,313.64 C38.04,313.592 38.008,313.52 38.008,313.424 L38.008,313.424 L38.008,311.136 L39.352,310.096 L42.088,313.248 C42.2373333,313.429333 42.312,313.546667 42.312,313.6 C42.312,313.674667 42.2426667,313.712 42.104,313.712 L42.104,313.712 L42.104,314 L45.064,314 L45.064,313.712 C44.8826667,313.658667 44.6986667,313.554667 44.512,313.4 C44.3253333,313.245333 44.1626667,313.088 44.024,312.928 L44.024,312.928 L40.664,309.04 L44.344,306.112 C44.536,305.952 44.728,305.872 44.92,305.872 L44.92,305.872 L44.92,305.584 L41.56,305.584 L41.56,305.872 C41.624,305.872 41.68,305.888 41.728,305.92 C41.776,305.952 41.8,306.005333 41.8,306.08 C41.8,306.133333 41.7573333,306.2 41.672,306.28 C41.5866667,306.36 41.4693333,306.464 41.32,306.592 L41.32,306.592 L38.008,309.2 L38.008,306.16 C38.008,306.064 38.04,305.992 38.104,305.944 C38.168,305.896 38.2426667,305.872 38.328,305.872 L38.328,305.872 L38.328,305.584 L35.832,305.584 L35.832,305.872 C36.0666667,305.872 36.184,305.968 36.184,306.16 L36.184,306.16 L36.184,313.424 C36.184,313.616 36.0666667,313.712 35.832,313.712 L35.832,313.712 L35.832,314 L38.328,314 Z M53.256,314.176 L53.256,312.496 L52.968,312.496 C52.968,312.592 52.9253333,312.669333 52.84,312.728 C52.7546667,312.786667 52.648,312.816 52.52,312.816 L52.52,312.816 L48.424,312.816 L48.424,310.928 L50.76,310.928 C50.9733333,310.928 51.1386667,310.941333 51.256,310.968 C51.3733333,310.994667 51.416,311.066667 51.384,311.184 L51.384,311.184 L51.704,311.184 L51.704,309.488 L51.416,309.488 C51.416,309.605333 51.3733333,309.677333 51.288,309.704 C51.2026667,309.730667 51.0693333,309.744 50.888,309.744 L50.888,309.744 L48.424,309.744 L48.424,308.144 L52.328,308.144 C52.6586667,308.144 52.824,308.245333 52.824,308.448 L52.824,308.448 L53.112,308.448 L53.112,306.672 L52.824,306.672 C52.824,306.864 52.6586667,306.96 52.328,306.96 L52.328,306.96 L46.648,306.96 L46.648,307.248 C46.7013333,307.248 46.7546667,307.266667 46.808,307.304 C46.8613333,307.341333 46.888,307.402667 46.888,307.488 L46.888,307.488 L46.888,313.472 C46.888,313.557333 46.8613333,313.618667 46.808,313.656 C46.7546667,313.693333 46.7013333,313.712 46.648,313.712 L46.648,313.712 L46.648,314 L52.52,314 C52.648,314 52.7546667,314.005333 52.84,314.016 C52.9253333,314.026667 52.968,314.08 52.968,314.176 L52.968,314.176 L53.256,314.176 Z M62.152,314.176 L62.152,312.496 L61.864,312.496 C61.864,312.592 61.8213333,312.669333 61.736,312.728 C61.6506667,312.786667 61.544,312.816 61.416,312.816 L61.416,312.816 L57.32,312.816 L57.32,310.928 L59.656,310.928 C59.8693333,310.928 60.0346667,310.941333 60.152,310.968 C60.2693333,310.994667 60.312,311.066667 60.28,311.184 L60.28,311.184 L60.6,311.184 L60.6,309.488 L60.312,309.488 C60.312,309.605333 60.2693333,309.677333 60.184,309.704 C60.0986667,309.730667 59.9653333,309.744 59.784,309.744 L59.784,309.744 L57.32,309.744 L57.32,308.144 L61.224,308.144 C61.5546667,308.144 61.72,308.245333 61.72,308.448 L61.72,308.448 L62.008,308.448 L62.008,306.672 L61.72,306.672 C61.72,306.864 61.5546667,306.96 61.224,306.96 L61.224,306.96 L55.544,306.96 L55.544,307.248 C55.5973333,307.248 55.6506667,307.266667 55.704,307.304 C55.7573333,307.341333 55.784,307.402667 55.784,307.488 L55.784,307.488 L55.784,313.472 C55.784,313.557333 55.7573333,313.618667 55.704,313.656 C55.6506667,313.693333 55.5973333,313.712 55.544,313.712 L55.544,313.712 L55.544,314 L61.416,314 C61.544,314 61.6506667,314.005333 61.736,314.016 C61.8213333,314.026667 61.864,314.08 61.864,314.176 L61.864,314.176 L62.152,314.176 Z M66.472,314 L66.472,313.712 C66.248,313.712 66.136,313.632 66.136,313.472 L66.136,313.472 L66.136,311.072 L68.856,311.072 C69.72,311.072 70.368,310.925333 70.8,310.632 C71.232,310.338667 71.448,309.808 71.448,309.04 C71.448,308.272 71.232,307.733333 70.8,307.424 C70.368,307.114667 69.72,306.96 68.856,306.96 L68.856,306.96 L64.2,306.96 L64.2,307.248 C64.4666667,307.248 64.6,307.328 64.6,307.488 L64.6,307.488 L64.6,313.472 C64.6,313.632 64.4666667,313.712 64.2,313.712 L64.2,313.712 L64.2,314 L66.472,314 Z M68.824,309.888 L66.136,309.888 L66.136,308.144 L68.824,308.144 C69.1333333,308.144 69.392,308.210667 69.6,308.344 C69.808,308.477333 69.912,308.709333 69.912,309.04 C69.912,309.381333 69.808,309.608 69.6,309.72 C69.392,309.832 69.1333333,309.888 68.824,309.888 L68.824,309.888 Z M80.776,314 L80.776,313.712 C80.4773333,313.712 80.328,313.632 80.328,313.472 L80.328,313.472 L80.328,307.488 C80.328,307.328 80.4773333,307.248 80.776,307.248 L80.776,307.248 L80.776,306.96 L78.344,306.96 L78.344,307.248 C78.5146667,307.248 78.632,307.266667 78.696,307.304 C78.76,307.341333 78.792,307.402667 78.792,307.488 L78.792,307.488 L78.792,313.472 C78.792,313.557333 78.76,313.618667 78.696,313.656 C78.632,313.693333 78.5146667,313.712 78.344,313.712 L78.344,313.712 L78.344,314 L80.776,314 Z M85.496,314 L85.496,313.712 C85.272,313.712 85.16,313.632 85.16,313.472 L85.16,313.472 L85.16,308.816 L89.128,313.04 C89.256,313.178667 89.3706667,313.301333 89.472,313.408 C89.5733333,313.514667 89.624,313.589333 89.624,313.632 C89.624,313.685333 89.5866667,313.712 89.512,313.712 L89.512,313.712 L89.512,314 L91.592,314 L91.592,313.712 C91.4,313.712 91.304,313.632 91.304,313.472 L91.304,313.472 L91.304,307.488 C91.304,307.328 91.4,307.248 91.592,307.248 L91.592,307.248 L91.592,306.96 L89.64,306.96 L89.64,307.248 C89.8533333,307.248 89.96,307.328 89.96,307.488 L89.96,307.488 L89.96,311.824 L86.12,307.76 C85.8853333,307.525333 85.768,307.381333 85.768,307.328 C85.768,307.285333 85.8053333,307.258667 85.88,307.248 L85.88,307.248 L85.88,306.96 L83.528,306.96 L83.528,307.248 C83.72,307.248 83.816,307.328 83.816,307.488 L83.816,307.488 L83.816,313.472 C83.816,313.632 83.72,313.712 83.528,313.712 L83.528,313.712 L83.528,314 L85.496,314 Z M101.224,314 L101.224,313.712 C101.128,313.712 101.042667,313.693333 100.968,313.656 C100.893333,313.618667 100.856,313.557333 100.856,313.472 L100.856,313.472 L100.856,311.024 L103.672,311.024 C103.853333,311.024 103.965333,311.045333 104.008,311.088 C104.050667,311.130667 104.077333,311.194667 104.088,311.28 L104.088,311.28 L104.376,311.28 L104.376,309.6 L104.088,309.6 C104.077333,309.685333 104.050667,309.746667 104.008,309.784 C103.965333,309.821333 103.853333,309.84 103.672,309.84 L103.672,309.84 L100.856,309.84 L100.856,308.144 L105.192,308.144 C105.373333,308.144 105.501333,308.168 105.576,308.216 C105.650667,308.264 105.688,308.314667 105.688,308.368 L105.688,308.368 L105.976,308.368 L105.976,306.672 L105.688,306.672 C105.688,306.757333 105.650667,306.826667 105.576,306.88 C105.501333,306.933333 105.373333,306.96 105.192,306.96 L105.192,306.96 L98.984,306.96 L98.984,307.248 C99.208,307.248 99.32,307.328 99.32,307.488 L99.32,307.488 L99.32,313.472 C99.32,313.632 99.2186667,313.712 99.016,313.712 L99.016,313.712 L99.016,314 L101.224,314 Z M110.056,314 L110.056,313.712 C109.992,313.712 109.925333,313.693333 109.856,313.656 C109.786667,313.618667 109.752,313.557333 109.752,313.472 L109.752,313.472 L109.752,311.184 L111.976,311.184 L113.24,313.072 C113.4,313.296 113.48,313.461333 113.48,313.568 C113.48,313.664 113.410667,313.712 113.272,313.712 L113.272,313.712 L113.272,314 L115.72,314 L115.72,313.712 C115.602667,313.68 115.493333,313.634667 115.392,313.576 C115.290667,313.517333 115.197333,313.429333 115.112,313.312 L115.112,313.312 L113.544,311.024 C113.768,310.970667 113.986667,310.893333 114.2,310.792 C114.413333,310.690667 114.608,310.557333 114.784,310.392 C114.96,310.226667 115.101333,310.032 115.208,309.808 C115.314667,309.584 115.368,309.328 115.368,309.04 C115.368,308.282667 115.101333,307.746667 114.568,307.432 C114.034667,307.117333 113.293333,306.96 112.344,306.96 L112.344,306.96 L107.928,306.96 L107.928,307.248 C108.12,307.248 108.216,307.328 108.216,307.488 L108.216,307.488 L108.216,313.472 C108.216,313.632 108.12,313.712 107.928,313.712 L107.928,313.712 L107.928,314 L110.056,314 Z M112.312,310 L109.784,310 L109.784,308.144 L112.312,308.144 C112.856,308.144 113.253333,308.221333 113.504,308.376 C113.754667,308.530667 113.88,308.741333 113.88,309.008 C113.88,309.669333 113.357333,310 112.312,310 L112.312,310 Z M121.336,314.048 C121.922667,314.048 122.474667,313.981333 122.992,313.848 C123.509333,313.714667 123.96,313.498667 124.344,313.2 C124.728,312.901333 125.032,312.525333 125.256,312.072 C125.48,311.618667 125.592,311.088 125.592,310.48 C125.592,309.872 125.48,309.341333 125.256,308.888 C125.032,308.434667 124.728,308.058667 124.344,307.76 C123.96,307.461333 123.509333,307.237333 122.992,307.088 C122.474667,306.938667 121.922667,306.864 121.336,306.864 C120.749333,306.864 120.197333,306.938667 119.68,307.088 C119.162667,307.237333 118.712,307.461333 118.328,307.76 C117.944,308.058667 117.64,308.434667 117.416,308.888 C117.192,309.341333 117.08,309.872 117.08,310.48 C117.08,311.088 117.192,311.618667 117.416,312.072 C117.64,312.525333 117.944,312.901333 118.328,313.2 C118.712,313.498667 119.162667,313.714667 119.68,313.848 C120.197333,313.981333 120.749333,314.048 121.336,314.048 Z M121.336,312.912 C120.994667,312.912 120.661333,312.856 120.336,312.744 C120.010667,312.632 119.72,312.472 119.464,312.264 C119.208,312.056 119.002667,311.802667 118.848,311.504 C118.693333,311.205333 118.616,310.864 118.616,310.48 C118.616,310.096 118.693333,309.754667 118.848,309.456 C119.002667,309.157333 119.208,308.904 119.464,308.696 C119.72,308.488 120.010667,308.328 120.336,308.216 C120.661333,308.104 120.994667,308.048 121.336,308.048 C121.677333,308.048 122.010667,308.104 122.336,308.216 C122.661333,308.328 122.952,308.488 123.208,308.696 C123.464,308.904 123.669333,309.157333 123.824,309.456 C123.978667,309.754667 124.056,310.096 124.056,310.48 C124.056,310.864 123.978667,311.205333 123.824,311.504 C123.669333,311.802667 123.464,312.056 123.208,312.264 C122.952,312.472 122.661333,312.632 122.336,312.744 C122.010667,312.856 121.677333,312.912 121.336,312.912 Z M129.496,314 L129.496,313.712 C129.272,313.712 129.16,313.632 129.16,313.472 L129.16,313.472 L129.16,308.816 L133.128,313.04 C133.256,313.178667 133.370667,313.301333 133.472,313.408 C133.573333,313.514667 133.624,313.589333 133.624,313.632 C133.624,313.685333 133.586667,313.712 133.512,313.712 L133.512,313.712 L133.512,314 L135.592,314 L135.592,313.712 C135.4,313.712 135.304,313.632 135.304,313.472 L135.304,313.472 L135.304,307.488 C135.304,307.328 135.4,307.248 135.592,307.248 L135.592,307.248 L135.592,306.96 L133.64,306.96 L133.64,307.248 C133.853333,307.248 133.96,307.328 133.96,307.488 L133.96,307.488 L133.96,311.824 L130.12,307.76 C129.885333,307.525333 129.768,307.381333 129.768,307.328 C129.768,307.285333 129.805333,307.258667 129.88,307.248 L129.88,307.248 L129.88,306.96 L127.528,306.96 L127.528,307.248 C127.72,307.248 127.816,307.328 127.816,307.488 L127.816,307.488 L127.816,313.472 C127.816,313.632 127.72,313.712 127.528,313.712 L127.528,313.712 L127.528,314 L129.496,314 Z M141.96,314 L141.96,313.712 C141.768,313.712 141.672,313.632 141.672,313.472 L141.672,313.472 L141.672,308.144 L143.752,308.144 C143.837333,308.144 143.917333,308.165333 143.992,308.208 C144.066667,308.250667 144.104,308.32 144.104,308.416 L144.104,308.416 L144.392,308.416 L144.392,306.576 L144.104,306.576 C144.104,306.725333 144.066667,306.826667 143.992,306.88 C143.917333,306.933333 143.837333,306.96 143.752,306.96 L143.752,306.96 L138.056,306.96 C137.970667,306.96 137.890667,306.933333 137.816,306.88 C137.741333,306.826667 137.704,306.725333 137.704,306.576 L137.704,306.576 L137.416,306.576 L137.416,308.416 L137.704,308.416 C137.704,308.32 137.741333,308.250667 137.816,308.208 C137.890667,308.165333 137.970667,308.144 138.056,308.144 L138.056,308.144 L140.136,308.144 L140.136,313.472 C140.136,313.557333 140.109333,313.618667 140.056,313.656 C140.002667,313.693333 139.949333,313.712 139.896,313.712 L139.896,313.712 L139.896,314 L141.96,314 Z M154.664,314.048 C155.250667,314.048 155.802667,313.981333 156.32,313.848 C156.837333,313.714667 157.288,313.498667 157.672,313.2 C158.056,312.901333 158.36,312.525333 158.584,312.072 C158.808,311.618667 158.92,311.088 158.92,310.48 C158.92,309.872 158.808,309.341333 158.584,308.888 C158.36,308.434667 158.056,308.058667 157.672,307.76 C157.288,307.461333 156.837333,307.237333 156.32,307.088 C155.802667,306.938667 155.250667,306.864 154.664,306.864 C154.077333,306.864 153.525333,306.938667 153.008,307.088 C152.490667,307.237333 152.04,307.461333 151.656,307.76 C151.272,308.058667 150.968,308.434667 150.744,308.888 C150.52,309.341333 150.408,309.872 150.408,310.48 C150.408,311.088 150.52,311.618667 150.744,312.072 C150.968,312.525333 151.272,312.901333 151.656,313.2 C152.04,313.498667 152.490667,313.714667 153.008,313.848 C153.525333,313.981333 154.077333,314.048 154.664,314.048 Z M154.664,312.912 C154.322667,312.912 153.989333,312.856 153.664,312.744 C153.338667,312.632 153.048,312.472 152.792,312.264 C152.536,312.056 152.330667,311.802667 152.176,311.504 C152.021333,311.205333 151.944,310.864 151.944,310.48 C151.944,310.096 152.021333,309.754667 152.176,309.456 C152.330667,309.157333 152.536,308.904 152.792,308.696 C153.048,308.488 153.338667,308.328 153.664,308.216 C153.989333,308.104 154.322667,308.048 154.664,308.048 C155.005333,308.048 155.338667,308.104 155.664,308.216 C155.989333,308.328 156.28,308.488 156.536,308.696 C156.792,308.904 156.997333,309.157333 157.152,309.456 C157.306667,309.754667 157.384,310.096 157.384,310.48 C157.384,310.864 157.306667,311.205333 157.152,311.504 C156.997333,311.802667 156.792,312.056 156.536,312.264 C156.28,312.472 155.989333,312.632 155.664,312.744 C155.338667,312.856 155.005333,312.912 154.664,312.912 Z M163,314 L163,313.712 C162.904,313.712 162.818667,313.693333 162.744,313.656 C162.669333,313.618667 162.632,313.557333 162.632,313.472 L162.632,313.472 L162.632,311.024 L165.448,311.024 C165.629333,311.024 165.741333,311.045333 165.784,311.088 C165.826667,311.130667 165.853333,311.194667 165.864,311.28 L165.864,311.28 L166.152,311.28 L166.152,309.6 L165.864,309.6 C165.853333,309.685333 165.826667,309.746667 165.784,309.784 C165.741333,309.821333 165.629333,309.84 165.448,309.84 L165.448,309.84 L162.632,309.84 L162.632,308.144 L166.968,308.144 C167.149333,308.144 167.277333,308.168 167.352,308.216 C167.426667,308.264 167.464,308.314667 167.464,308.368 L167.464,308.368 L167.752,308.368 L167.752,306.672 L167.464,306.672 C167.464,306.757333 167.426667,306.826667 167.352,306.88 C167.277333,306.933333 167.149333,306.96 166.968,306.96 L166.968,306.96 L160.76,306.96 L160.76,307.248 C160.984,307.248 161.096,307.328 161.096,307.488 L161.096,307.488 L161.096,313.472 C161.096,313.632 160.994667,313.712 160.792,313.712 L160.792,313.712 L160.792,314 L163,314 Z M178.856,314 L178.856,313.712 C178.653333,313.712 178.552,313.632 178.552,313.472 L178.552,313.472 L178.552,311.072 L181,307.904 C181.117333,307.754667 181.253333,307.608 181.408,307.464 C181.562667,307.32 181.704,307.248 181.832,307.248 L181.832,307.248 L181.832,306.96 L179.384,306.96 L179.384,307.248 C179.437333,307.248 179.490667,307.258667 179.544,307.28 C179.597333,307.301333 179.624,307.354667 179.624,307.44 C179.624,307.504 179.6,307.570667 179.552,307.64 C179.504,307.709333 179.432,307.813333 179.336,307.952 L179.336,307.952 L177.912,309.936 L176.296,307.824 C176.242667,307.749333 176.194667,307.685333 176.152,307.632 C176.109333,307.578667 176.088,307.52 176.088,307.456 C176.088,307.392 176.12,307.341333 176.184,307.304 C176.248,307.266667 176.306667,307.248 176.36,307.248 L176.36,307.248 L176.36,306.96 L173.72,306.96 L173.72,307.248 C173.816,307.248 173.917333,307.269333 174.024,307.312 C174.130667,307.354667 174.221333,307.424 174.296,307.52 L174.296,307.52 L177.016,311.008 L177.016,313.472 C177.016,313.632 176.92,313.712 176.728,313.712 L176.728,313.712 L176.728,314 L178.856,314 Z M187.112,314.048 C187.698667,314.048 188.250667,313.981333 188.768,313.848 C189.285333,313.714667 189.736,313.498667 190.12,313.2 C190.504,312.901333 190.808,312.525333 191.032,312.072 C191.256,311.618667 191.368,311.088 191.368,310.48 C191.368,309.872 191.256,309.341333 191.032,308.888 C190.808,308.434667 190.504,308.058667 190.12,307.76 C189.736,307.461333 189.285333,307.237333 188.768,307.088 C188.250667,306.938667 187.698667,306.864 187.112,306.864 C186.525333,306.864 185.973333,306.938667 185.456,307.088 C184.938667,307.237333 184.488,307.461333 184.104,307.76 C183.72,308.058667 183.416,308.434667 183.192,308.888 C182.968,309.341333 182.856,309.872 182.856,310.48 C182.856,311.088 182.968,311.618667 183.192,312.072 C183.416,312.525333 183.72,312.901333 184.104,313.2 C184.488,313.498667 184.938667,313.714667 185.456,313.848 C185.973333,313.981333 186.525333,314.048 187.112,314.048 Z M187.112,312.912 C186.770667,312.912 186.437333,312.856 186.112,312.744 C185.786667,312.632 185.496,312.472 185.24,312.264 C184.984,312.056 184.778667,311.802667 184.624,311.504 C184.469333,311.205333 184.392,310.864 184.392,310.48 C184.392,310.096 184.469333,309.754667 184.624,309.456 C184.778667,309.157333 184.984,308.904 185.24,308.696 C185.496,308.488 185.786667,308.328 186.112,308.216 C186.437333,308.104 186.770667,308.048 187.112,308.048 C187.453333,308.048 187.786667,308.104 188.112,308.216 C188.437333,308.328 188.728,308.488 188.984,308.696 C189.24,308.904 189.445333,309.157333 189.6,309.456 C189.754667,309.754667 189.832,310.096 189.832,310.48 C189.832,310.864 189.754667,311.205333 189.6,311.504 C189.445333,311.802667 189.24,312.056 188.984,312.264 C188.728,312.472 188.437333,312.632 188.112,312.744 C187.786667,312.856 187.453333,312.912 187.112,312.912 Z M197.4,314.048 C198.04,314.048 198.597333,313.981333 199.072,313.848 C199.546667,313.714667 199.936,313.530667 200.24,313.296 C200.544,313.061333 200.770667,312.792 200.92,312.488 C201.069333,312.184 201.144,311.866667 201.144,311.536 L201.144,311.536 L201.144,307.488 C201.144,307.328 201.261333,307.248 201.496,307.248 L201.496,307.248 L201.496,306.96 L199.272,306.96 L199.272,307.248 C199.538667,307.248 199.672,307.328 199.672,307.488 L199.672,307.488 L199.672,311.152 C199.672,311.664 199.485333,312.074667 199.112,312.384 C198.738667,312.693333 198.168,312.848 197.4,312.848 C196.632,312.848 196.061333,312.693333 195.688,312.384 C195.314667,312.074667 195.128,311.664 195.128,311.152 L195.128,311.152 L195.128,307.488 C195.128,307.328 195.245333,307.248 195.48,307.248 L195.48,307.248 L195.48,306.96 L193.192,306.96 L193.192,307.248 C193.373333,307.248 193.496,307.266667 193.56,307.304 C193.624,307.341333 193.656,307.402667 193.656,307.488 L193.656,307.488 L193.656,311.536 C193.656,311.866667 193.730667,312.184 193.88,312.488 C194.029333,312.792 194.256,313.061333 194.56,313.296 C194.864,313.530667 195.253333,313.714667 195.728,313.848 C196.202667,313.981333 196.76,314.048 197.4,314.048 Z M212.616,314 L212.616,313.712 C212.424,313.712 212.328,313.632 212.328,313.472 L212.328,313.472 L212.328,308.144 L214.408,308.144 C214.493333,308.144 214.573333,308.165333 214.648,308.208 C214.722667,308.250667 214.76,308.32 214.76,308.416 L214.76,308.416 L215.048,308.416 L215.048,306.576 L214.76,306.576 C214.76,306.725333 214.722667,306.826667 214.648,306.88 C214.573333,306.933333 214.493333,306.96 214.408,306.96 L214.408,306.96 L208.712,306.96 C208.626667,306.96 208.546667,306.933333 208.472,306.88 C208.397333,306.826667 208.36,306.725333 208.36,306.576 L208.36,306.576 L208.072,306.576 L208.072,308.416 L208.36,308.416 C208.36,308.32 208.397333,308.250667 208.472,308.208 C208.546667,308.165333 208.626667,308.144 208.712,308.144 L208.712,308.144 L210.792,308.144 L210.792,313.472 C210.792,313.557333 210.765333,313.618667 210.712,313.656 C210.658667,313.693333 210.605333,313.712 210.552,313.712 L210.552,313.712 L210.552,314 L212.616,314 Z M220.44,314.048 C221.026667,314.048 221.578667,313.981333 222.096,313.848 C222.613333,313.714667 223.064,313.498667 223.448,313.2 C223.832,312.901333 224.136,312.525333 224.36,312.072 C224.584,311.618667 224.696,311.088 224.696,310.48 C224.696,309.872 224.584,309.341333 224.36,308.888 C224.136,308.434667 223.832,308.058667 223.448,307.76 C223.064,307.461333 222.613333,307.237333 222.096,307.088 C221.578667,306.938667 221.026667,306.864 220.44,306.864 C219.853333,306.864 219.301333,306.938667 218.784,307.088 C218.266667,307.237333 217.816,307.461333 217.432,307.76 C217.048,308.058667 216.744,308.434667 216.52,308.888 C216.296,309.341333 216.184,309.872 216.184,310.48 C216.184,311.088 216.296,311.618667 216.52,312.072 C216.744,312.525333 217.048,312.901333 217.432,313.2 C217.816,313.498667 218.266667,313.714667 218.784,313.848 C219.301333,313.981333 219.853333,314.048 220.44,314.048 Z M220.44,312.912 C220.098667,312.912 219.765333,312.856 219.44,312.744 C219.114667,312.632 218.824,312.472 218.568,312.264 C218.312,312.056 218.106667,311.802667 217.952,311.504 C217.797333,311.205333 217.72,310.864 217.72,310.48 C217.72,310.096 217.797333,309.754667 217.952,309.456 C218.106667,309.157333 218.312,308.904 218.568,308.696 C218.824,308.488 219.114667,308.328 219.44,308.216 C219.765333,308.104 220.098667,308.048 220.44,308.048 C220.781333,308.048 221.114667,308.104 221.44,308.216 C221.765333,308.328 222.056,308.488 222.312,308.696 C222.568,308.904 222.773333,309.157333 222.928,309.456 C223.082667,309.754667 223.16,310.096 223.16,310.48 C223.16,310.864 223.082667,311.205333 222.928,311.504 C222.773333,311.802667 222.568,312.056 222.312,312.264 C222.056,312.472 221.765333,312.632 221.44,312.744 C221.114667,312.856 220.781333,312.912 220.44,312.912 Z M36.664,330 L36.664,329.712 C36.44,329.712 36.328,329.632 36.328,329.472 L36.328,329.472 L36.328,327.072 L39.048,327.072 C39.912,327.072 40.56,326.925333 40.992,326.632 C41.424,326.338667 41.64,325.808 41.64,325.04 C41.64,324.272 41.424,323.733333 40.992,323.424 C40.56,323.114667 39.912,322.96 39.048,322.96 L39.048,322.96 L34.392,322.96 L34.392,323.248 C34.6586667,323.248 34.792,323.328 34.792,323.488 L34.792,323.488 L34.792,329.472 C34.792,329.632 34.6586667,329.712 34.392,329.712 L34.392,329.712 L34.392,330 L36.664,330 Z M39.016,325.888 L36.328,325.888 L36.328,324.144 L39.016,324.144 C39.3253333,324.144 39.584,324.210667 39.792,324.344 C40,324.477333 40.104,324.709333 40.104,325.04 C40.104,325.381333 40,325.608 39.792,325.72 C39.584,325.832 39.3253333,325.888 39.016,325.888 L39.016,325.888 Z M45.592,330 L45.592,329.712 C45.528,329.712 45.4613333,329.693333 45.392,329.656 C45.3226667,329.618667 45.288,329.557333 45.288,329.472 L45.288,329.472 L45.288,327.184 L47.512,327.184 L48.776,329.072 C48.936,329.296 49.016,329.461333 49.016,329.568 C49.016,329.664 48.9466667,329.712 48.808,329.712 L48.808,329.712 L48.808,330 L51.256,330 L51.256,329.712 C51.1386667,329.68 51.0293333,329.634667 50.928,329.576 C50.8266667,329.517333 50.7333333,329.429333 50.648,329.312 L50.648,329.312 L49.08,327.024 C49.304,326.970667 49.5226667,326.893333 49.736,326.792 C49.9493333,326.690667 50.144,326.557333 50.32,326.392 C50.496,326.226667 50.6373333,326.032 50.744,325.808 C50.8506667,325.584 50.904,325.328 50.904,325.04 C50.904,324.282667 50.6373333,323.746667 50.104,323.432 C49.5706667,323.117333 48.8293333,322.96 47.88,322.96 L47.88,322.96 L43.464,322.96 L43.464,323.248 C43.656,323.248 43.752,323.328 43.752,323.488 L43.752,323.488 L43.752,329.472 C43.752,329.632 43.656,329.712 43.464,329.712 L43.464,329.712 L43.464,330 L45.592,330 Z M47.848,326 L45.32,326 L45.32,324.144 L47.848,324.144 C48.392,324.144 48.7893333,324.221333 49.04,324.376 C49.2906667,324.530667 49.416,324.741333 49.416,325.008 C49.416,325.669333 48.8933333,326 47.848,326 L47.848,326 Z M56.872,330.048 C57.4586667,330.048 58.0106667,329.981333 58.528,329.848 C59.0453333,329.714667 59.496,329.498667 59.88,329.2 C60.264,328.901333 60.568,328.525333 60.792,328.072 C61.016,327.618667 61.128,327.088 61.128,326.48 C61.128,325.872 61.016,325.341333 60.792,324.888 C60.568,324.434667 60.264,324.058667 59.88,323.76 C59.496,323.461333 59.0453333,323.237333 58.528,323.088 C58.0106667,322.938667 57.4586667,322.864 56.872,322.864 C56.2853333,322.864 55.7333333,322.938667 55.216,323.088 C54.6986667,323.237333 54.248,323.461333 53.864,323.76 C53.48,324.058667 53.176,324.434667 52.952,324.888 C52.728,325.341333 52.616,325.872 52.616,326.48 C52.616,327.088 52.728,327.618667 52.952,328.072 C53.176,328.525333 53.48,328.901333 53.864,329.2 C54.248,329.498667 54.6986667,329.714667 55.216,329.848 C55.7333333,329.981333 56.2853333,330.048 56.872,330.048 Z M56.872,328.912 C56.5306667,328.912 56.1973333,328.856 55.872,328.744 C55.5466667,328.632 55.256,328.472 55,328.264 C54.744,328.056 54.5386667,327.802667 54.384,327.504 C54.2293333,327.205333 54.152,326.864 54.152,326.48 C54.152,326.096 54.2293333,325.754667 54.384,325.456 C54.5386667,325.157333 54.744,324.904 55,324.696 C55.256,324.488 55.5466667,324.328 55.872,324.216 C56.1973333,324.104 56.5306667,324.048 56.872,324.048 C57.2133333,324.048 57.5466667,324.104 57.872,324.216 C58.1973333,324.328 58.488,324.488 58.744,324.696 C59,324.904 59.2053333,325.157333 59.36,325.456 C59.5146667,325.754667 59.592,326.096 59.592,326.48 C59.592,326.864 59.5146667,327.205333 59.36,327.504 C59.2053333,327.802667 59,328.056 58.744,328.264 C58.488,328.472 58.1973333,328.632 57.872,328.744 C57.5466667,328.856 57.2133333,328.912 56.872,328.912 Z M66.824,330 L66.824,329.712 C66.632,329.712 66.536,329.632 66.536,329.472 L66.536,329.472 L66.536,324.144 L68.616,324.144 C68.7013333,324.144 68.7813333,324.165333 68.856,324.208 C68.9306667,324.250667 68.968,324.32 68.968,324.416 L68.968,324.416 L69.256,324.416 L69.256,322.576 L68.968,322.576 C68.968,322.725333 68.9306667,322.826667 68.856,322.88 C68.7813333,322.933333 68.7013333,322.96 68.616,322.96 L68.616,322.96 L62.92,322.96 C62.8346667,322.96 62.7546667,322.933333 62.68,322.88 C62.6053333,322.826667 62.568,322.725333 62.568,322.576 L62.568,322.576 L62.28,322.576 L62.28,324.416 L62.568,324.416 C62.568,324.32 62.6053333,324.250667 62.68,324.208 C62.7546667,324.165333 62.8346667,324.144 62.92,324.144 L62.92,324.144 L65,324.144 L65,329.472 C65,329.557333 64.9733333,329.618667 64.92,329.656 C64.8666667,329.693333 64.8133333,329.712 64.76,329.712 L64.76,329.712 L64.76,330 L66.824,330 Z M77.688,330.176 L77.688,328.496 L77.4,328.496 C77.4,328.592 77.3573333,328.669333 77.272,328.728 C77.1866667,328.786667 77.08,328.816 76.952,328.816 L76.952,328.816 L72.856,328.816 L72.856,326.928 L75.192,326.928 C75.4053333,326.928 75.5706667,326.941333 75.688,326.968 C75.8053333,326.994667 75.848,327.066667 75.816,327.184 L75.816,327.184 L76.136,327.184 L76.136,325.488 L75.848,325.488 C75.848,325.605333 75.8053333,325.677333 75.72,325.704 C75.6346667,325.730667 75.5013333,325.744 75.32,325.744 L75.32,325.744 L72.856,325.744 L72.856,324.144 L76.76,324.144 C77.0906667,324.144 77.256,324.245333 77.256,324.448 L77.256,324.448 L77.544,324.448 L77.544,322.672 L77.256,322.672 C77.256,322.864 77.0906667,322.96 76.76,322.96 L76.76,322.96 L71.08,322.96 L71.08,323.248 C71.1333333,323.248 71.1866667,323.266667 71.24,323.304 C71.2933333,323.341333 71.32,323.402667 71.32,323.488 L71.32,323.488 L71.32,329.472 C71.32,329.557333 71.2933333,329.618667 71.24,329.656 C71.1866667,329.693333 71.1333333,329.712 71.08,329.712 L71.08,329.712 L71.08,330 L76.952,330 C77.08,330 77.1866667,330.005333 77.272,330.016 C77.3573333,330.026667 77.4,330.08 77.4,330.176 L77.4,330.176 L77.688,330.176 Z M83.176,330.048 C83.656,330.048 84.0906667,330.005333 84.48,329.92 C84.8693333,329.834667 85.2106667,329.730667 85.504,329.608 C85.7973333,329.485333 86.04,329.376 86.232,329.28 C86.424,329.184 86.5626667,329.136 86.648,329.136 C86.7013333,329.136 86.792,329.162667 86.92,329.216 L86.92,329.216 L87.08,329.136 L85.896,327.44 L85.72,327.6 C85.7306667,327.642667 85.736,327.696 85.736,327.76 L85.736,327.76 L85.736,327.888 C85.736,327.984 85.6586667,328.090667 85.504,328.208 C85.3493333,328.325333 85.1493333,328.434667 84.904,328.536 C84.6586667,328.637333 84.3866667,328.725333 84.088,328.8 C83.7893333,328.874667 83.496,328.912 83.208,328.912 C82.8986667,328.912 82.5946667,328.856 82.296,328.744 C81.9973333,328.632 81.7306667,328.466667 81.496,328.248 C81.2613333,328.029333 81.072,327.768 80.928,327.464 C80.784,327.16 80.712,326.816 80.712,326.432 C80.712,326.048 80.776,325.706667 80.904,325.408 C81.032,325.109333 81.2133333,324.858667 81.448,324.656 C81.6826667,324.453333 81.9573333,324.301333 82.272,324.2 C82.5866667,324.098667 82.936,324.048 83.32,324.048 C83.64,324.048 83.9333333,324.077333 84.2,324.136 C84.4666667,324.194667 84.6986667,324.266667 84.896,324.352 C85.0933333,324.437333 85.2453333,324.525333 85.352,324.616 C85.4586667,324.706667 85.512,324.778667 85.512,324.832 C85.512,324.864 85.5146667,324.890667 85.52,324.912 C85.5253333,324.933333 85.528,324.954667 85.528,324.976 L85.528,324.976 L85.704,325.104 L86.76,323.584 L86.568,323.472 C86.5253333,323.493333 86.4853333,323.52 86.448,323.552 C86.4106667,323.584 86.3653333,323.6 86.312,323.6 C86.2373333,323.6 86.1146667,323.562667 85.944,323.488 C85.7733333,323.413333 85.56,323.328 85.304,323.232 C85.048,323.136 84.752,323.050667 84.416,322.976 C84.08,322.901333 83.7093333,322.864 83.304,322.864 C82.7813333,322.864 82.272,322.938667 81.776,323.088 C81.28,323.237333 80.84,323.464 80.456,323.768 C80.072,324.072 79.7626667,324.448 79.528,324.896 C79.2933333,325.344 79.176,325.866667 79.176,326.464 C79.176,327.061333 79.2933333,327.586667 79.528,328.04 C79.7626667,328.493333 80.0666667,328.872 80.44,329.176 C80.8133333,329.48 81.24,329.701333 81.72,329.84 C82.2,329.978667 82.6853333,330.048 83.176,330.048 Z M92.616,330 L92.616,329.712 C92.424,329.712 92.328,329.632 92.328,329.472 L92.328,329.472 L92.328,324.144 L94.408,324.144 C94.4933333,324.144 94.5733333,324.165333 94.648,324.208 C94.7226667,324.250667 94.76,324.32 94.76,324.416 L94.76,324.416 L95.048,324.416 L95.048,322.576 L94.76,322.576 C94.76,322.725333 94.7226667,322.826667 94.648,322.88 C94.5733333,322.933333 94.4933333,322.96 94.408,322.96 L94.408,322.96 L88.712,322.96 C88.6266667,322.96 88.5466667,322.933333 88.472,322.88 C88.3973333,322.826667 88.36,322.725333 88.36,322.576 L88.36,322.576 L88.072,322.576 L88.072,324.416 L88.36,324.416 C88.36,324.32 88.3973333,324.250667 88.472,324.208 C88.5466667,324.165333 88.6266667,324.144 88.712,324.144 L88.712,324.144 L90.792,324.144 L90.792,329.472 C90.792,329.557333 90.7653333,329.618667 90.712,329.656 C90.6586667,329.693333 90.6053333,329.712 90.552,329.712 L90.552,329.712 L90.552,330 L92.616,330 Z M103.88,330 L103.88,329.712 C103.784,329.712 103.698667,329.693333 103.624,329.656 C103.549333,329.618667 103.512,329.557333 103.512,329.472 L103.512,329.472 L103.512,327.024 L106.328,327.024 C106.509333,327.024 106.621333,327.045333 106.664,327.088 C106.706667,327.130667 106.733333,327.194667 106.744,327.28 L106.744,327.28 L107.032,327.28 L107.032,325.6 L106.744,325.6 C106.733333,325.685333 106.706667,325.746667 106.664,325.784 C106.621333,325.821333 106.509333,325.84 106.328,325.84 L106.328,325.84 L103.512,325.84 L103.512,324.144 L107.848,324.144 C108.029333,324.144 108.157333,324.168 108.232,324.216 C108.306667,324.264 108.344,324.314667 108.344,324.368 L108.344,324.368 L108.632,324.368 L108.632,322.672 L108.344,322.672 C108.344,322.757333 108.306667,322.826667 108.232,322.88 C108.157333,322.933333 108.029333,322.96 107.848,322.96 L107.848,322.96 L101.64,322.96 L101.64,323.248 C101.864,323.248 101.976,323.328 101.976,323.488 L101.976,323.488 L101.976,329.472 C101.976,329.632 101.874667,329.712 101.672,329.712 L101.672,329.712 L101.672,330 L103.88,330 Z M112.712,330 L112.712,329.712 C112.648,329.712 112.581333,329.693333 112.512,329.656 C112.442667,329.618667 112.408,329.557333 112.408,329.472 L112.408,329.472 L112.408,327.184 L114.632,327.184 L115.896,329.072 C116.056,329.296 116.136,329.461333 116.136,329.568 C116.136,329.664 116.066667,329.712 115.928,329.712 L115.928,329.712 L115.928,330 L118.376,330 L118.376,329.712 C118.258667,329.68 118.149333,329.634667 118.048,329.576 C117.946667,329.517333 117.853333,329.429333 117.768,329.312 L117.768,329.312 L116.2,327.024 C116.424,326.970667 116.642667,326.893333 116.856,326.792 C117.069333,326.690667 117.264,326.557333 117.44,326.392 C117.616,326.226667 117.757333,326.032 117.864,325.808 C117.970667,325.584 118.024,325.328 118.024,325.04 C118.024,324.282667 117.757333,323.746667 117.224,323.432 C116.690667,323.117333 115.949333,322.96 115,322.96 L115,322.96 L110.584,322.96 L110.584,323.248 C110.776,323.248 110.872,323.328 110.872,323.488 L110.872,323.488 L110.872,329.472 C110.872,329.632 110.776,329.712 110.584,329.712 L110.584,329.712 L110.584,330 L112.712,330 Z M114.968,326 L112.44,326 L112.44,324.144 L114.968,324.144 C115.512,324.144 115.909333,324.221333 116.16,324.376 C116.410667,324.530667 116.536,324.741333 116.536,325.008 C116.536,325.669333 116.013333,326 114.968,326 L114.968,326 Z M123.992,330.048 C124.578667,330.048 125.130667,329.981333 125.648,329.848 C126.165333,329.714667 126.616,329.498667 127,329.2 C127.384,328.901333 127.688,328.525333 127.912,328.072 C128.136,327.618667 128.248,327.088 128.248,326.48 C128.248,325.872 128.136,325.341333 127.912,324.888 C127.688,324.434667 127.384,324.058667 127,323.76 C126.616,323.461333 126.165333,323.237333 125.648,323.088 C125.130667,322.938667 124.578667,322.864 123.992,322.864 C123.405333,322.864 122.853333,322.938667 122.336,323.088 C121.818667,323.237333 121.368,323.461333 120.984,323.76 C120.6,324.058667 120.296,324.434667 120.072,324.888 C119.848,325.341333 119.736,325.872 119.736,326.48 C119.736,327.088 119.848,327.618667 120.072,328.072 C120.296,328.525333 120.6,328.901333 120.984,329.2 C121.368,329.498667 121.818667,329.714667 122.336,329.848 C122.853333,329.981333 123.405333,330.048 123.992,330.048 Z M123.992,328.912 C123.650667,328.912 123.317333,328.856 122.992,328.744 C122.666667,328.632 122.376,328.472 122.12,328.264 C121.864,328.056 121.658667,327.802667 121.504,327.504 C121.349333,327.205333 121.272,326.864 121.272,326.48 C121.272,326.096 121.349333,325.754667 121.504,325.456 C121.658667,325.157333 121.864,324.904 122.12,324.696 C122.376,324.488 122.666667,324.328 122.992,324.216 C123.317333,324.104 123.650667,324.048 123.992,324.048 C124.333333,324.048 124.666667,324.104 124.992,324.216 C125.317333,324.328 125.608,324.488 125.864,324.696 C126.12,324.904 126.325333,325.157333 126.48,325.456 C126.634667,325.754667 126.712,326.096 126.712,326.48 C126.712,326.864 126.634667,327.205333 126.48,327.504 C126.325333,327.802667 126.12,328.056 125.864,328.264 C125.608,328.472 125.317333,328.632 124.992,328.744 C124.666667,328.856 124.333333,328.912 123.992,328.912 Z M132.184,330 L132.184,329.712 C132.002667,329.712 131.912,329.632 131.912,329.472 L131.912,329.472 L131.912,324.976 L131.928,324.976 L134.504,330 L134.632,330 L137.352,324.976 L137.384,324.976 L137.384,329.472 C137.416,329.632 137.32,329.712 137.096,329.712 L137.096,329.712 L137.096,330 L138.952,330 L138.952,329.712 C138.898667,329.712 138.848,329.693333 138.8,329.656 C138.752,329.618667 138.728,329.557333 138.728,329.472 L138.728,329.472 L138.728,323.456 C138.728,323.370667 138.752,323.314667 138.8,323.288 C138.848,323.261333 138.898667,323.248 138.952,323.248 L138.952,323.248 L138.952,322.96 L136.696,322.96 L136.696,323.248 C136.781333,323.248 136.824,323.296 136.824,323.392 C136.824,323.424 136.802667,323.48 136.76,323.56 C136.717333,323.64 136.658667,323.744 136.584,323.872 L136.584,323.872 L134.616,327.456 L132.664,323.856 C132.589333,323.728 132.533333,323.629333 132.496,323.56 C132.458667,323.490667 132.44,323.434667 132.44,323.392 C132.44,323.296 132.493333,323.248 132.6,323.248 L132.6,323.248 L132.6,322.96 L130.376,322.96 L130.376,323.248 C130.450667,323.248 130.501333,323.264 130.528,323.296 C130.554667,323.328 130.568,323.418667 130.568,323.568 L130.568,323.568 L130.568,329.424 C130.568,329.541333 130.549333,329.616 130.512,329.648 C130.474667,329.68 130.429333,329.701333 130.376,329.712 L130.376,329.712 L130.376,330 L132.184,330 Z M154.984,330.304 L154.984,328.112 L154.696,328.112 C154.696,328.24 154.645333,328.341333 154.544,328.416 C154.442667,328.490667 154.312,328.528 154.152,328.528 L154.152,328.528 L148.808,328.528 L148.808,326.32 L151.944,326.32 C152.157333,326.32 152.322667,326.354667 152.44,326.424 C152.557333,326.493333 152.616,326.650667 152.616,326.896 L152.616,326.896 L152.904,326.896 L152.904,324.4 L152.616,324.4 C152.616,324.645333 152.557333,324.797333 152.44,324.856 C152.322667,324.914667 152.157333,324.944 151.944,324.944 L151.944,324.944 L148.808,324.944 L148.808,322.96 L153.992,322.96 C154.216,322.96 154.373333,322.989333 154.464,323.048 C154.554667,323.106667 154.6,323.194667 154.6,323.312 L154.6,323.312 L154.888,323.312 L154.888,321.2 L154.6,321.2 C154.6,321.317333 154.554667,321.410667 154.464,321.48 C154.373333,321.549333 154.216,321.584 153.992,321.584 L153.992,321.584 L146.696,321.584 L146.696,321.872 C146.770667,321.872 146.837333,321.896 146.896,321.944 C146.954667,321.992 146.984,322.064 146.984,322.16 L146.984,322.16 L146.984,329.424 C146.984,329.52 146.954667,329.592 146.896,329.64 C146.837333,329.688 146.770667,329.712 146.696,329.712 L146.696,329.712 L146.696,330 L154.152,330 C154.312,330 154.442667,330.010667 154.544,330.032 C154.645333,330.053333 154.696,330.144 154.696,330.304 L154.696,330.304 L154.984,330.304 Z M158.936,330 L158.936,329.712 C158.84,329.712 158.792,329.674667 158.792,329.6 C158.792,329.525333 158.866667,329.397333 159.016,329.216 L159.016,329.216 L160.376,327.552 L161.768,329.264 C161.885333,329.445333 161.944,329.552 161.944,329.584 C161.944,329.658667 161.906667,329.701333 161.832,329.712 L161.832,329.712 L161.832,330 L164.28,330 L164.28,329.712 C164.12,329.712 163.981333,329.637333 163.864,329.488 C163.746667,329.338667 163.645333,329.216 163.56,329.12 L163.56,329.12 L161.336,326.32 L163.752,323.408 C163.858667,323.301333 163.997333,323.248 164.168,323.248 L164.168,323.248 L164.168,322.96 L161.72,322.96 L161.72,323.248 C161.858667,323.248 161.928,323.290667 161.928,323.376 C161.928,323.461333 161.842667,323.605333 161.672,323.808 L161.672,323.808 L160.456,325.296 L159.336,323.936 C159.24,323.818667 159.16,323.717333 159.096,323.632 C159.032,323.546667 159,323.477333 159,323.424 C159,323.306667 159.064,323.248 159.192,323.248 L159.192,323.248 L159.192,322.96 L156.68,322.96 L156.68,323.248 C156.754667,323.248 156.84,323.282667 156.936,323.352 C157.032,323.421333 157.154667,323.546667 157.304,323.728 L157.304,323.728 L159.512,326.48 L157.08,329.472 C157.005333,329.568 156.922667,329.632 156.832,329.664 C156.741333,329.696 156.664,329.712 156.6,329.712 L156.6,329.712 L156.6,330 L158.936,330 Z M168.232,330 L168.232,329.712 C168.008,329.712 167.896,329.632 167.896,329.472 L167.896,329.472 L167.896,327.072 L170.616,327.072 C171.48,327.072 172.128,326.925333 172.56,326.632 C172.992,326.338667 173.208,325.808 173.208,325.04 C173.208,324.272 172.992,323.733333 172.56,323.424 C172.128,323.114667 171.48,322.96 170.616,322.96 L170.616,322.96 L165.96,322.96 L165.96,323.248 C166.226667,323.248 166.36,323.328 166.36,323.488 L166.36,323.488 L166.36,329.472 C166.36,329.632 166.226667,329.712 165.96,329.712 L165.96,329.712 L165.96,330 L168.232,330 Z M170.584,325.888 L167.896,325.888 L167.896,324.144 L170.584,324.144 C170.893333,324.144 171.152,324.210667 171.36,324.344 C171.568,324.477333 171.672,324.709333 171.672,325.04 C171.672,325.381333 171.568,325.608 171.36,325.72 C171.152,325.832 170.893333,325.888 170.584,325.888 L170.584,325.888 Z M178.664,330.048 C179.250667,330.048 179.802667,329.981333 180.32,329.848 C180.837333,329.714667 181.288,329.498667 181.672,329.2 C182.056,328.901333 182.36,328.525333 182.584,328.072 C182.808,327.618667 182.92,327.088 182.92,326.48 C182.92,325.872 182.808,325.341333 182.584,324.888 C182.36,324.434667 182.056,324.058667 181.672,323.76 C181.288,323.461333 180.837333,323.237333 180.32,323.088 C179.802667,322.938667 179.250667,322.864 178.664,322.864 C178.077333,322.864 177.525333,322.938667 177.008,323.088 C176.490667,323.237333 176.04,323.461333 175.656,323.76 C175.272,324.058667 174.968,324.434667 174.744,324.888 C174.52,325.341333 174.408,325.872 174.408,326.48 C174.408,327.088 174.52,327.618667 174.744,328.072 C174.968,328.525333 175.272,328.901333 175.656,329.2 C176.04,329.498667 176.490667,329.714667 177.008,329.848 C177.525333,329.981333 178.077333,330.048 178.664,330.048 Z M178.664,328.912 C178.322667,328.912 177.989333,328.856 177.664,328.744 C177.338667,328.632 177.048,328.472 176.792,328.264 C176.536,328.056 176.330667,327.802667 176.176,327.504 C176.021333,327.205333 175.944,326.864 175.944,326.48 C175.944,326.096 176.021333,325.754667 176.176,325.456 C176.330667,325.157333 176.536,324.904 176.792,324.696 C177.048,324.488 177.338667,324.328 177.664,324.216 C177.989333,324.104 178.322667,324.048 178.664,324.048 C179.005333,324.048 179.338667,324.104 179.664,324.216 C179.989333,324.328 180.28,324.488 180.536,324.696 C180.792,324.904 180.997333,325.157333 181.152,325.456 C181.306667,325.754667 181.384,326.096 181.384,326.48 C181.384,326.864 181.306667,327.205333 181.152,327.504 C180.997333,327.802667 180.792,328.056 180.536,328.264 C180.28,328.472 179.989333,328.632 179.664,328.744 C179.338667,328.856 179.005333,328.912 178.664,328.912 Z M187.88,330.048 C188.242667,330.048 188.629333,330.021333 189.04,329.968 C189.450667,329.914667 189.826667,329.802667 190.168,329.632 C190.509333,329.461333 190.794667,329.226667 191.024,328.928 C191.253333,328.629333 191.368,328.245333 191.368,327.776 C191.368,327.306667 191.237333,326.938667 190.976,326.672 C190.714667,326.405333 190.386667,326.202667 189.992,326.064 C189.597333,325.925333 189.170667,325.826667 188.712,325.768 C188.253333,325.709333 187.826667,325.650667 187.432,325.592 C187.037333,325.533333 186.709333,325.453333 186.448,325.352 C186.186667,325.250667 186.056,325.082667 186.056,324.848 C186.056,324.698667 186.098667,324.573333 186.184,324.472 C186.269333,324.370667 186.386667,324.288 186.536,324.224 C186.685333,324.16 186.856,324.114667 187.048,324.088 C187.24,324.061333 187.442667,324.048 187.656,324.048 C188.210667,324.048 188.712,324.112 189.16,324.24 C189.608,324.368 189.938667,324.522667 190.152,324.704 C190.237333,324.768 190.285333,324.832 190.296,324.896 C190.306667,324.96 190.317333,325.024 190.328,325.088 L190.328,325.088 L190.616,325.184 L191.416,323.68 L191.24,323.504 C191.176,323.536 191.122667,323.565333 191.08,323.592 C191.037333,323.618667 190.973333,323.632 190.888,323.632 C190.813333,323.632 190.698667,323.592 190.544,323.512 C190.389333,323.432 190.189333,323.344 189.944,323.248 C189.698667,323.152 189.397333,323.064 189.04,322.984 C188.682667,322.904 188.253333,322.864 187.752,322.864 C186.728,322.864 185.933333,323.066667 185.368,323.472 C184.802667,323.877333 184.52,324.421333 184.52,325.104 C184.52,325.562667 184.650667,325.917333 184.912,326.168 C185.173333,326.418667 185.501333,326.610667 185.896,326.744 C186.290667,326.877333 186.717333,326.973333 187.176,327.032 C187.634667,327.090667 188.061333,327.149333 188.456,327.208 C188.850667,327.266667 189.178667,327.349333 189.44,327.456 C189.701333,327.562667 189.832,327.733333 189.832,327.968 C189.832,328.170667 189.757333,328.333333 189.608,328.456 C189.458667,328.578667 189.277333,328.674667 189.064,328.744 C188.850667,328.813333 188.634667,328.858667 188.416,328.88 C188.197333,328.901333 188.013333,328.912 187.864,328.912 C187.704,328.912 187.482667,328.885333 187.2,328.832 C186.917333,328.778667 186.634667,328.706667 186.352,328.616 C186.069333,328.525333 185.826667,328.413333 185.624,328.28 C185.421333,328.146667 185.32,328 185.32,327.84 C185.32,327.786667 185.322667,327.736 185.328,327.688 C185.333333,327.64 185.336,327.594667 185.336,327.552 L185.336,327.552 L185.032,327.472 L184.296,329.264 L184.52,329.424 C184.573333,329.36 184.637333,329.328 184.712,329.328 C184.754667,329.328 184.877333,329.368 185.08,329.448 C185.282667,329.528 185.530667,329.613333 185.824,329.704 C186.117333,329.794667 186.442667,329.874667 186.8,329.944 C187.157333,330.013333 187.517333,330.048 187.88,330.048 Z M197.848,330.048 C198.488,330.048 199.045333,329.981333 199.52,329.848 C199.994667,329.714667 200.384,329.530667 200.688,329.296 C200.992,329.061333 201.218667,328.792 201.368,328.488 C201.517333,328.184 201.592,327.866667 201.592,327.536 L201.592,327.536 L201.592,323.488 C201.592,323.328 201.709333,323.248 201.944,323.248 L201.944,323.248 L201.944,322.96 L199.72,322.96 L199.72,323.248 C199.986667,323.248 200.12,323.328 200.12,323.488 L200.12,323.488 L200.12,327.152 C200.12,327.664 199.933333,328.074667 199.56,328.384 C199.186667,328.693333 198.616,328.848 197.848,328.848 C197.08,328.848 196.509333,328.693333 196.136,328.384 C195.762667,328.074667 195.576,327.664 195.576,327.152 L195.576,327.152 L195.576,323.488 C195.576,323.328 195.693333,323.248 195.928,323.248 L195.928,323.248 L195.928,322.96 L193.64,322.96 L193.64,323.248 C193.821333,323.248 193.944,323.266667 194.008,323.304 C194.072,323.341333 194.104,323.402667 194.104,323.488 L194.104,323.488 L194.104,327.536 C194.104,327.866667 194.178667,328.184 194.328,328.488 C194.477333,328.792 194.704,329.061333 195.008,329.296 C195.312,329.530667 195.701333,329.714667 196.176,329.848 C196.650667,329.981333 197.208,330.048 197.848,330.048 Z M206.504,330 L206.504,329.712 C206.44,329.712 206.373333,329.693333 206.304,329.656 C206.234667,329.618667 206.2,329.557333 206.2,329.472 L206.2,329.472 L206.2,327.184 L208.424,327.184 L209.688,329.072 C209.848,329.296 209.928,329.461333 209.928,329.568 C209.928,329.664 209.858667,329.712 209.72,329.712 L209.72,329.712 L209.72,330 L212.168,330 L212.168,329.712 C212.050667,329.68 211.941333,329.634667 211.84,329.576 C211.738667,329.517333 211.645333,329.429333 211.56,329.312 L211.56,329.312 L209.992,327.024 C210.216,326.970667 210.434667,326.893333 210.648,326.792 C210.861333,326.690667 211.056,326.557333 211.232,326.392 C211.408,326.226667 211.549333,326.032 211.656,325.808 C211.762667,325.584 211.816,325.328 211.816,325.04 C211.816,324.282667 211.549333,323.746667 211.016,323.432 C210.482667,323.117333 209.741333,322.96 208.792,322.96 L208.792,322.96 L204.376,322.96 L204.376,323.248 C204.568,323.248 204.664,323.328 204.664,323.488 L204.664,323.488 L204.664,329.472 C204.664,329.632 204.568,329.712 204.376,329.712 L204.376,329.712 L204.376,330 L206.504,330 Z M208.76,326 L206.232,326 L206.232,324.144 L208.76,324.144 C209.304,324.144 209.701333,324.221333 209.952,324.376 C210.202667,324.530667 210.328,324.741333 210.328,325.008 C210.328,325.669333 209.805333,326 208.76,326 L208.76,326 Z M220.824,330.176 L220.824,328.496 L220.536,328.496 C220.536,328.592 220.493333,328.669333 220.408,328.728 C220.322667,328.786667 220.216,328.816 220.088,328.816 L220.088,328.816 L215.992,328.816 L215.992,326.928 L218.328,326.928 C218.541333,326.928 218.706667,326.941333 218.824,326.968 C218.941333,326.994667 218.984,327.066667 218.952,327.184 L218.952,327.184 L219.272,327.184 L219.272,325.488 L218.984,325.488 C218.984,325.605333 218.941333,325.677333 218.856,325.704 C218.770667,325.730667 218.637333,325.744 218.456,325.744 L218.456,325.744 L215.992,325.744 L215.992,324.144 L219.896,324.144 C220.226667,324.144 220.392,324.245333 220.392,324.448 L220.392,324.448 L220.68,324.448 L220.68,322.672 L220.392,322.672 C220.392,322.864 220.226667,322.96 219.896,322.96 L219.896,322.96 L214.216,322.96 L214.216,323.248 C214.269333,323.248 214.322667,323.266667 214.376,323.304 C214.429333,323.341333 214.456,323.402667 214.456,323.488 L214.456,323.488 L214.456,329.472 C214.456,329.557333 214.429333,329.618667 214.376,329.656 C214.322667,329.693333 214.269333,329.712 214.216,329.712 L214.216,329.712 L214.216,330 L220.088,330 C220.216,330 220.322667,330.005333 220.408,330.016 C220.493333,330.026667 220.536,330.08 220.536,330.176 L220.536,330.176 L220.824,330.176 Z M224.232,330.048 C224.541333,330.048 224.808,329.944 225.032,329.736 C225.256,329.528 225.368,329.269333 225.368,328.96 C225.368,328.650667 225.256,328.384 225.032,328.16 C224.808,327.936 224.541333,327.824 224.232,327.824 C223.922667,327.824 223.656,327.936 223.432,328.16 C223.208,328.384 223.096,328.650667 223.096,328.96 C223.096,329.269333 223.208,329.528 223.432,329.736 C223.656,329.944 223.922667,330.048 224.232,330.048 Z" id="Creepyevenifyoureawoman.KeepinfrontofyoutoprotectfromExposure." fill="#000000" fill-rule="nonzero"></path>
        <path d="M84.46,52 C85.212,52 85.884,51.916 86.476,51.748 C87.068,51.58 87.568,51.344 87.976,51.04 C88.384,50.736 88.692,50.38 88.9,49.972 C89.108,49.564 89.212,49.12 89.212,48.64 C89.212,47.728 88.952,47.028 88.432,46.54 C87.912,46.052 87.276,45.696 86.524,45.472 L86.524,45.472 L86.524,45.424 C87.164,45.2 87.716,44.884 88.18,44.476 C88.644,44.068 88.876,43.488 88.876,42.736 C88.876,42.112 88.716,41.588 88.396,41.164 C88.076,40.74 87.652,40.396 87.124,40.132 C86.596,39.868 85.988,39.676 85.3,39.556 C84.612,39.436 83.9,39.376 83.164,39.376 L83.164,39.376 L75.652,39.376 L75.652,39.808 C76.1,39.808 76.324,39.952 76.324,40.24 L76.324,40.24 L76.324,51.136 C76.324,51.424 76.1,51.568 75.652,51.568 L75.652,51.568 L75.652,52 L84.46,52 Z M83.644,44.32 L79.06,44.32 L79.06,41.44 L83.644,41.44 C84.364,41.44 84.96,41.532 85.432,41.716 C85.904,41.9 86.14,42.288 86.14,42.88 C86.14,43.472 85.904,43.86 85.432,44.044 C84.96,44.228 84.364,44.32 83.644,44.32 L83.644,44.32 Z M83.644,49.792 L79.06,49.792 L79.06,46.384 L83.644,46.384 C84.652,46.384 85.376,46.54 85.816,46.852 C86.256,47.164 86.476,47.576 86.476,48.088 C86.476,48.6 86.256,49.012 85.816,49.324 C85.376,49.636 84.652,49.792 83.644,49.792 L83.644,49.792 Z M96.052,52 L96.052,51.568 C95.956,51.568 95.856,51.54 95.752,51.484 C95.648,51.428 95.596,51.336 95.596,51.208 L95.596,51.208 L95.596,47.776 L98.932,47.776 L100.828,50.608 C101.068,50.944 101.188,51.192 101.188,51.352 C101.188,51.496 101.084,51.568 100.876,51.568 L100.876,51.568 L100.876,52 L104.548,52 L104.548,51.568 C104.372,51.52 104.208,51.452 104.056,51.364 C103.904,51.276 103.764,51.144 103.636,50.968 L103.636,50.968 L101.284,47.536 C101.62,47.456 101.948,47.34 102.268,47.188 C102.588,47.036 102.88,46.836 103.144,46.588 C103.408,46.34 103.62,46.048 103.78,45.712 C103.94,45.376 104.02,44.992 104.02,44.56 C104.02,43.424 103.62,42.62 102.82,42.148 C102.02,41.676 100.908,41.44 99.484,41.44 L99.484,41.44 L92.86,41.44 L92.86,41.872 C93.148,41.872 93.292,41.992 93.292,42.232 L93.292,42.232 L93.292,51.208 C93.292,51.448 93.148,51.568 92.86,51.568 L92.86,51.568 L92.86,52 L96.052,52 Z M99.436,46 L95.644,46 L95.644,43.216 L99.436,43.216 C100.252,43.216 100.848,43.332 101.224,43.564 C101.6,43.796 101.788,44.112 101.788,44.512 C101.788,45.504 101.004,46 99.436,46 L99.436,46 Z M109.228,52 L109.228,51.568 C109.084,51.568 108.972,51.552 108.892,51.52 C108.812,51.488 108.772,51.408 108.772,51.28 C108.772,51.2 108.792,51.108 108.832,51.004 C108.872,50.9 108.924,50.784 108.988,50.656 L108.988,50.656 L109.66,49.36 L114.796,49.36 L115.444,50.728 C115.492,50.856 115.532,50.96 115.564,51.04 C115.596,51.12 115.612,51.208 115.612,51.304 C115.612,51.432 115.568,51.52 115.48,51.568 C115.392,51.616 115.308,51.64 115.228,51.64 L115.228,51.64 L115.228,52 L118.636,52 L118.636,51.568 C118.524,51.536 118.42,51.488 118.324,51.424 C118.228,51.36 118.14,51.256 118.06,51.112 L118.06,51.112 L114.172,42.952 C114.092,42.776 114.016,42.62 113.944,42.484 C113.872,42.348 113.836,42.232 113.836,42.136 C113.836,42.024 113.864,41.96 113.92,41.944 C113.976,41.928 114.028,41.904 114.076,41.872 L114.076,41.872 L114.076,41.44 L110.452,41.44 L110.452,41.872 C110.5,41.904 110.544,41.932 110.584,41.956 C110.624,41.98 110.644,42.04 110.644,42.136 C110.644,42.264 110.616,42.396 110.56,42.532 C110.504,42.668 110.428,42.848 110.332,43.072 L110.332,43.072 L106.756,50.872 C106.692,51 106.6,51.14 106.48,51.292 C106.36,51.444 106.204,51.536 106.012,51.568 L106.012,51.568 L106.012,52 L109.228,52 Z M114.028,47.584 L110.38,47.584 L112.084,43.552 L114.028,47.584 Z M132.028,52 L132.028,51.568 C131.58,51.568 131.356,51.424 131.356,51.136 L131.356,51.136 L131.356,43.144 L131.404,43.144 L136.132,52 L136.204,52 L141.028,43.168 L141.076,43.168 L141.076,51.136 C141.076,51.424 140.86,51.568 140.428,51.568 L140.428,51.568 L140.428,52 L144.196,52 L144.196,51.568 C144.068,51.568 143.956,51.532 143.86,51.46 C143.764,51.388 143.716,51.28 143.716,51.136 L143.716,51.136 L143.716,40.192 C143.716,40.048 143.764,39.948 143.86,39.892 C143.956,39.836 144.068,39.808 144.196,39.808 L144.196,39.808 L144.196,39.376 L139.756,39.376 L139.756,39.808 C139.964,39.808 140.068,39.896 140.068,40.072 C140.068,40.168 140.04,40.276 139.984,40.396 C139.928,40.516 139.844,40.68 139.732,40.888 L139.732,40.888 L136.276,47.056 L132.844,40.816 C132.764,40.672 132.692,40.536 132.628,40.408 C132.564,40.28 132.532,40.176 132.532,40.096 C132.532,40 132.576,39.928 132.664,39.88 C132.752,39.832 132.836,39.808 132.916,39.808 L132.916,39.808 L132.916,39.376 L128.428,39.376 L128.428,39.808 C128.556,39.808 128.668,39.836 128.764,39.892 C128.86,39.948 128.908,40.048 128.908,40.192 L128.908,40.192 L128.908,51.136 C128.908,51.28 128.86,51.388 128.764,51.46 C128.668,51.532 128.556,51.568 128.428,51.568 L128.428,51.568 L128.428,52 L132.028,52 Z M149.884,52 L149.884,51.568 C149.74,51.568 149.628,51.552 149.548,51.52 C149.468,51.488 149.428,51.408 149.428,51.28 C149.428,51.2 149.448,51.108 149.488,51.004 C149.528,50.9 149.58,50.784 149.644,50.656 L149.644,50.656 L150.316,49.36 L155.452,49.36 L156.1,50.728 C156.148,50.856 156.188,50.96 156.22,51.04 C156.252,51.12 156.268,51.208 156.268,51.304 C156.268,51.432 156.224,51.52 156.136,51.568 C156.048,51.616 155.964,51.64 155.884,51.64 L155.884,51.64 L155.884,52 L159.292,52 L159.292,51.568 C159.18,51.536 159.076,51.488 158.98,51.424 C158.884,51.36 158.796,51.256 158.716,51.112 L158.716,51.112 L154.828,42.952 C154.748,42.776 154.672,42.62 154.6,42.484 C154.528,42.348 154.492,42.232 154.492,42.136 C154.492,42.024 154.52,41.96 154.576,41.944 C154.632,41.928 154.684,41.904 154.732,41.872 L154.732,41.872 L154.732,41.44 L151.108,41.44 L151.108,41.872 C151.156,41.904 151.2,41.932 151.24,41.956 C151.28,41.98 151.3,42.04 151.3,42.136 C151.3,42.264 151.272,42.396 151.216,42.532 C151.16,42.668 151.084,42.848 150.988,43.072 L150.988,43.072 L147.412,50.872 C147.348,51 147.256,51.14 147.136,51.292 C147.016,51.444 146.86,51.536 146.668,51.568 L146.668,51.568 L146.668,52 L149.884,52 Z M154.684,47.584 L151.036,47.584 L152.74,43.552 L154.684,47.584 Z M166.132,52.072 C166.676,52.072 167.256,52.032 167.872,51.952 C168.488,51.872 169.052,51.704 169.564,51.448 C170.076,51.192 170.504,50.84 170.848,50.392 C171.192,49.944 171.364,49.368 171.364,48.664 C171.364,47.96 171.168,47.408 170.776,47.008 C170.384,46.608 169.892,46.304 169.3,46.096 C168.708,45.888 168.068,45.74 167.38,45.652 C166.692,45.564 166.052,45.476 165.46,45.388 C164.868,45.3 164.376,45.18 163.984,45.028 C163.592,44.876 163.396,44.624 163.396,44.272 C163.396,44.048 163.46,43.86 163.588,43.708 C163.716,43.556 163.892,43.432 164.116,43.336 C164.34,43.24 164.596,43.172 164.884,43.132 C165.172,43.092 165.476,43.072 165.796,43.072 C166.628,43.072 167.38,43.168 168.052,43.36 C168.724,43.552 169.22,43.784 169.54,44.056 C169.668,44.152 169.74,44.248 169.756,44.344 C169.772,44.44 169.788,44.536 169.804,44.632 L169.804,44.632 L170.236,44.776 L171.436,42.52 L171.172,42.256 C171.076,42.304 170.996,42.348 170.932,42.388 C170.868,42.428 170.772,42.448 170.644,42.448 C170.532,42.448 170.36,42.388 170.128,42.268 C169.896,42.148 169.596,42.016 169.228,41.872 C168.86,41.728 168.408,41.596 167.872,41.476 C167.336,41.356 166.692,41.296 165.94,41.296 C164.404,41.296 163.212,41.6 162.364,42.208 C161.516,42.816 161.092,43.632 161.092,44.656 C161.092,45.344 161.288,45.876 161.68,46.252 C162.072,46.628 162.564,46.916 163.156,47.116 C163.748,47.316 164.388,47.46 165.076,47.548 C165.764,47.636 166.404,47.724 166.996,47.812 C167.588,47.9 168.08,48.024 168.472,48.184 C168.864,48.344 169.06,48.6 169.06,48.952 C169.06,49.256 168.948,49.5 168.724,49.684 C168.5,49.868 168.228,50.012 167.908,50.116 C167.588,50.22 167.264,50.288 166.936,50.32 C166.608,50.352 166.332,50.368 166.108,50.368 C165.868,50.368 165.536,50.328 165.112,50.248 C164.688,50.168 164.264,50.06 163.84,49.924 C163.416,49.788 163.052,49.62 162.748,49.42 C162.444,49.22 162.292,49 162.292,48.76 C162.292,48.68 162.296,48.604 162.304,48.532 C162.312,48.46 162.316,48.392 162.316,48.328 L162.316,48.328 L161.86,48.208 L160.756,50.896 L161.092,51.136 C161.172,51.04 161.268,50.992 161.38,50.992 C161.444,50.992 161.628,51.052 161.932,51.172 C162.236,51.292 162.608,51.42 163.048,51.556 C163.488,51.692 163.976,51.812 164.512,51.916 C165.048,52.02 165.588,52.072 166.132,52.072 Z M177.916,52 L177.916,51.568 C177.612,51.568 177.46,51.448 177.46,51.208 L177.46,51.208 L177.46,48.52 L179.332,47.032 L182.284,50.632 C182.492,50.872 182.632,51.048 182.704,51.16 C182.776,51.272 182.812,51.36 182.812,51.424 C182.812,51.52 182.724,51.568 182.548,51.568 L182.548,51.568 L182.548,52 L186.1,52 L186.1,51.568 C185.876,51.504 185.652,51.348 185.428,51.1 C185.204,50.852 184.996,50.608 184.804,50.368 L184.804,50.368 L181.012,45.664 L185.02,42.424 C185.404,42.12 185.692,41.936 185.884,41.872 L185.884,41.872 L185.884,41.44 L181.924,41.44 L181.924,41.8 C182.004,41.8 182.088,41.824 182.176,41.872 C182.264,41.92 182.308,41.984 182.308,42.064 C182.308,42.128 182.156,42.292 181.852,42.556 C181.548,42.82 181.164,43.144 180.7,43.528 C180.236,43.912 179.716,44.332 179.14,44.788 C178.564,45.244 178.004,45.696 177.46,46.144 L177.46,46.144 L177.46,42.232 C177.46,41.992 177.612,41.872 177.916,41.872 L177.916,41.872 L177.916,41.44 L174.772,41.44 L174.772,41.872 C175.028,41.872 175.156,41.992 175.156,42.232 L175.156,42.232 L175.156,51.208 C175.156,51.448 175.028,51.568 174.772,51.568 L174.772,51.568 L174.772,52 L177.916,52 Z" id="BraMask" fill="#000000" fill-rule="nonzero"></path>
        <path d="M217.624,30 L217.624,29.712 C217.464,29.712 217.32,29.668 217.192,29.58 C217.064,29.492 217,29.312 217,29.04 L217,29.04 L217,18.048 C217,17.888 217.064,17.768 217.192,17.688 C217.32,17.608 217.48,17.552 217.672,17.52 L217.672,17.52 L217.672,17.232 L213.784,17.232 L213.784,17.52 C213.96,17.552 214.1,17.6 214.204,17.664 C214.308,17.728 214.36,17.872 214.36,18.096 C214.36,18.336 214.268,18.54 214.084,18.708 C213.9,18.876 213.672,18.96 213.4,18.96 C213.272,18.96 213.136,18.932 212.992,18.876 C212.848,18.82 212.776,18.72 212.776,18.576 L212.776,18.576 L212.488,18.576 L212.488,21.6 L212.776,21.6 C212.824,21.472 212.908,21.372 213.028,21.3 C213.148,21.228 213.28,21.172 213.424,21.132 C213.568,21.092 213.716,21.064 213.868,21.048 C214.02,21.032 214.152,21.024 214.264,21.024 L214.264,21.024 L214.264,29.04 C214.264,29.312 214.204,29.492 214.084,29.58 C213.964,29.668 213.824,29.712 213.664,29.712 L213.664,29.712 L213.664,30 L217.624,30 Z" id="1" fill="#000000" fill-rule="nonzero"></path>
        <rect id="Rectangle" stroke="#000000" stroke-width="3" x="17.5" y="262.5" width="225" height="79" rx="8"></rect>
        <g id="Shield" transform="translate(228.000000, 14.000000)">
            <path d="M8.49995999,0.602112563 C12.0897673,3.01641898 14.3691227,5.26828283 15.2949432,7.38765451 C16.2117539,9.48640089 16.5982137,12.4858222 16.4790644,16.3788474 C14.3118398,16.4138174 12.5519303,16.6869111 11.1969506,17.1872006 C9.99244943,17.63193 9.09798447,18.2570837 8.49839684,19.0475319 C7.89890333,18.2569851 7.00448445,17.6318949 5.80007824,17.1872006 C4.44518737,16.6869438 2.68541961,16.4138532 0.518468664,16.3785506 C0.406586815,12.4686409 0.792651083,9.46951569 1.70208563,7.38765451 C2.62063669,5.28492398 4.90094203,3.03287984 8.49995999,0.602112563 Z" id="Triangle" stroke="#000000" transform="translate(8.500000, 10.000000) scale(1, -1) translate(-8.500000, -10.000000) "></path>
            <path d="M8.49896481,3 C11.1890912,4.79034724 12.8741761,6.46743058 13.5542196,8.03125 C14.2342631,9.59506942 14.5151106,11.8554861 14.3967621,14.8125 C11.167016,14.8125 9.20108353,15.5416667 8.49896481,17 C7.79684609,15.5416667 5.83091366,14.8125 2.60116754,14.8125 C2.48836139,11.8427409 2.76920888,9.58232426 3.44371001,8.03125 C4.11821113,6.48017574 5.80329607,4.80309241 8.49896481,3 Z" id="Triangle-Copy" fill="#000000" transform="translate(8.500000, 10.000000) scale(1, -1) translate(-8.500000, -10.000000) "></path>
        </g>
    </g>
</svg>