<?xml version="1.0" encoding="UTF-8"?>
<svg width="262px" height="360px" viewBox="0 0 262 360" version="1.1" xmlns="http://www.w3.org/2000/svg" xmlns:xlink="http://www.w3.org/1999/xlink">
    <title>Butt Coin 3</title>
    <g id="Butt-Coin-3" stroke="none" stroke-width="1" fill="none" fill-rule="evenodd">
        <g id="Group" transform="translate(10.000000, 10.000000)" fill="#FFFFFF" stroke="#000000" stroke-width="3">
            <g id="Rectangle">
                <rect x="1.5" y="1.5" width="239" height="337" rx="8"></rect>
            </g>
        </g>
        <g id="Toilet-Paper" transform="translate(213.000000, 18.000000)">
            <ellipse id="Oval" stroke="#000000" stroke-width="2" cx="24.5" cy="11.5" rx="4.5" ry="10.5"></ellipse>
            <ellipse id="Oval-Copy" fill="#000000" cx="24.5" cy="12" rx="1.5" ry="4"></ellipse>
            <line x1="24" y1="22" x2="18" y2="22" id="Line-6" stroke="#000000" stroke-width="2" stroke-linecap="round"></line>
            <line x1="24" y1="1" x2="9" y2="1" id="Line-5" stroke="#000000" stroke-width="2" stroke-linecap="square"></line>
            <path d="M8,1 C7.02702267,1.90492637 6.360356,2.69857716 6,3.38095238 C4.62724052,5.98042915 4,9.4881664 4,12.9047619 C4,13.6772342 3.97201238,14.5765717 4,15.2857143 C4.12532621,18.4611949 3.12532621,22.0326235 1,26" id="Line-2-Copy-2" stroke="#000000" stroke-width="2" stroke-linecap="round"></path>
            <path d="M23,1 C22.0270227,1.90492637 21.360356,2.69857716 21,3.38095238 C19.6272405,5.98042915 19,9.4881664 19,12.9047619 C19,13.6772342 18.9720124,14.5765717 19,15.2857143 C19.1253262,18.4611949 18.1253262,22.0326235 16,26" id="Line-2-Copy-3" stroke="#000000" stroke-width="2" stroke-linecap="round"></path>
            <line x1="4.23333333" y1="12.2173958" x2="19.1666667" y2="12.2173958" id="Line-3-Copy" stroke="#000000" stroke-width="2" stroke-linecap="square" stroke-dasharray="0,4"></line>
            <line x1="16" y1="26" x2="1.22222222" y2="26" id="Line-5-Copy" stroke="#000000" stroke-width="2" stroke-linecap="round"></line>
        </g>
        <g id="Group" transform="translate(21.000000, 120.000000)">
            <g id="Toilet-Paper" transform="translate(66.000000, 46.000000)">
                <ellipse id="Oval" stroke="#000000" stroke-width="6" cx="130.884615" cy="60.7758621" rx="21.1153846" ry="57.7758621"></ellipse>
                <path d="M128.919325,2.5862069 C75.8180113,2.5862069 48.5146967,2.72413793 47.0093809,3" id="Line" stroke="#000000" stroke-width="6" stroke-linecap="round"></path>
                <ellipse id="Oval" fill="#000000" cx="133" cy="60.3448276" rx="6.76923077" ry="18.9655172"></ellipse>
                <path d="M45.8461538,3.44827586 C30.8461538,13.3752832 23.3461538,32.6453562 23.3461538,61.2584948 C23.3461538,64.9663618 23.4720982,68.5222376 23.7239868,71.9261223 C24.8519227,87.1684294 17.2259784,104.342481 0.846153846,123.448276" id="Line-2" stroke="#000000" stroke-width="6" stroke-linecap="round"></path>
                <path d="M126.230769,3.44827586 C114.948718,13.7931034 109.307692,33.045977 109.307692,61.2068966 C109.307692,64.8561622 109.061401,69.0637055 109.307692,72.4137931 C110.410563,87.4152017 102.795178,104.081868 86.4615385,122.413793" id="Line-2-Copy" stroke="#000000" stroke-width="6" stroke-linecap="square"></path>
                <path d="M84.7692308,124.137931 C63.0530418,124.137931 48.1664135,124.137931 40.1093458,124.137931 C14.0364486,124.137931 1,124.137931 1,124.137931" id="Line-Copy" stroke="#000000" stroke-width="6" stroke-linecap="round"></path>
                <path d="M129.615385,118.965517 C82.8769231,118.965517 76.0923077,118.965517 109.261538,118.965517" id="Line-Copy-2" stroke="#000000" stroke-width="6" stroke-linecap="square"></path>
                <line x1="26.3846154" y1="58.6206897" x2="106.769231" y2="58.6206897" id="Line-3" stroke="#000000" stroke-width="6" stroke-linecap="square" stroke-dasharray="9,17"></line>
            </g>
            <g id="Toilet-Paper-Copy" transform="translate(34.000000, 23.000000)" stroke="#000000" stroke-width="6">
                <path d="M150.366735,25.6055132 C150.118315,24.7661139 149.85977,23.9431271 149.591494,23.1374319 C145.182617,9.89658042 138.145185,1.32579296 130.216292,1.32579296 C122.221179,1.32579296 115.13248,10.0403401 110.731176,23.470159" id="Path"></path>
                <path d="M130.640449,0.867132867 C75.876057,0.867132867 47.3161319,0.867132867 44.9606742,0.867132867" id="Line" stroke-linecap="round"></path>
                <path d="M44.9606742,0.867132867 C29.9737828,10.9815732 22.4803371,30.6154867 22.4803371,59.7688735 C22.4803371,63.5467491 22.6061713,67.1697639 22.8578398,70.6379176 C23.98479,86.1680166 16.3655101,103.666333 0,123.132867" id="Line-2" stroke-linecap="round"></path>
                <path d="M47.0673611,123.132867 C43.9677763,123.132867 41.3483948,123.132867 39.2092165,123.132867 C13.0697388,123.132867 0,123.132867 0,123.132867" id="Path" stroke-linecap="round"></path>
                <line x1="25.4494382" y1="57.2307692" x2="56.8370787" y2="57.2307692" id="Path" stroke-linecap="square" stroke-dasharray="9,17"></line>
            </g>
            <g id="Toilet-Paper-Copy-2" stroke="#000000" stroke-width="6">
                <path d="M150.366735,25.6055132 C150.118315,24.7661139 149.85977,23.9431271 149.591494,23.1374319 C145.182617,9.89658042 138.145185,1.32579296 130.216292,1.32579296 C122.221179,1.32579296 115.13248,10.0403401 110.731176,23.470159" id="Path"></path>
                <path d="M130.640449,0.867132867 C75.876057,0.867132867 47.3161319,0.867132867 44.9606742,0.867132867" id="Line" stroke-linecap="round"></path>
                <path d="M44.9606742,0.867132867 C29.9737828,10.9815732 22.4803371,30.6154867 22.4803371,59.7688735 C22.4803371,63.5467491 22.6061713,67.1697639 22.8578398,70.6379176 C23.98479,86.1680166 16.3655101,103.666333 0,123.132867" id="Line-2" stroke-linecap="round"></path>
                <path d="M47.0673611,123.132867 C43.9677763,123.132867 41.3483948,123.132867 39.2092165,123.132867 C13.0697388,123.132867 0,123.132867 0,123.132867" id="Path" stroke-linecap="round"></path>
                <line x1="25.4494382" y1="57.2307692" x2="56.8370787" y2="57.2307692" id="Path" stroke-linecap="square" stroke-dasharray="9,17"></line>
            </g>
        </g>
        <path d="M57.214,84 C58.342,84 59.35,83.874 60.238,83.622 C61.126,83.37 61.876,83.016 62.488,82.56 C63.1,82.104 63.562,81.57 63.874,80.958 C64.186,80.346 64.342,79.68 64.342,78.96 C64.342,77.592 63.952,76.542 63.172,75.81 C62.392,75.078 61.438,74.544 60.31,74.208 L60.31,74.208 L60.31,74.136 C61.27,73.8 62.098,73.326 62.794,72.714 C63.49,72.102 63.838,71.232 63.838,70.104 C63.838,69.168 63.598,68.382 63.118,67.746 C62.638,67.11 62.002,66.594 61.21,66.198 C60.418,65.802 59.506,65.514 58.474,65.334 C57.442,65.154 56.374,65.064 55.27,65.064 L55.27,65.064 L44.002,65.064 L44.002,65.712 C44.674,65.712 45.01,65.928 45.01,66.36 L45.01,66.36 L45.01,82.704 C45.01,83.136 44.674,83.352 44.002,83.352 L44.002,83.352 L44.002,84 L57.214,84 Z M55.99,72.48 L49.114,72.48 L49.114,68.16 L55.99,68.16 C57.07,68.16 57.964,68.298 58.672,68.574 C59.38,68.85 59.734,69.432 59.734,70.32 C59.734,71.208 59.38,71.79 58.672,72.066 C57.964,72.342 57.07,72.48 55.99,72.48 L55.99,72.48 Z M55.99,80.688 L49.114,80.688 L49.114,75.576 L55.99,75.576 C57.502,75.576 58.588,75.81 59.248,76.278 C59.908,76.746 60.238,77.364 60.238,78.132 C60.238,78.9 59.908,79.518 59.248,79.986 C58.588,80.454 57.502,80.688 55.99,80.688 L55.99,80.688 Z M79.138,84.108 C80.578,84.108 81.832,83.958 82.9,83.658 C83.968,83.358 84.844,82.944 85.528,82.416 C86.212,81.888 86.722,81.282 87.058,80.598 C87.394,79.914 87.562,79.2 87.562,78.456 L87.562,78.456 L87.562,69.348 C87.562,68.988 87.826,68.808 88.354,68.808 L88.354,68.808 L88.354,68.16 L83.35,68.16 L83.35,68.808 C83.95,68.808 84.25,68.988 84.25,69.348 L84.25,69.348 L84.25,77.592 C84.25,78.744 83.83,79.668 82.99,80.364 C82.15,81.06 80.866,81.408 79.138,81.408 C77.41,81.408 76.126,81.06 75.286,80.364 C74.446,79.668 74.026,78.744 74.026,77.592 L74.026,77.592 L74.026,69.348 C74.026,68.988 74.29,68.808 74.818,68.808 L74.818,68.808 L74.818,68.16 L69.67,68.16 L69.67,68.808 C70.078,68.808 70.354,68.85 70.498,68.934 C70.642,69.018 70.714,69.156 70.714,69.348 L70.714,69.348 L70.714,78.456 C70.714,79.2 70.882,79.914 71.218,80.598 C71.554,81.282 72.064,81.888 72.748,82.416 C73.432,82.944 74.308,83.358 75.376,83.658 C76.444,83.958 77.698,84.108 79.138,84.108 Z M102.394,84 L102.394,83.352 C101.962,83.352 101.746,83.172 101.746,82.812 L101.746,82.812 L101.746,70.824 L106.426,70.824 C106.618,70.824 106.798,70.872 106.966,70.968 C107.134,71.064 107.218,71.22 107.218,71.436 L107.218,71.436 L107.866,71.436 L107.866,67.296 L107.218,67.296 C107.218,67.632 107.134,67.86 106.966,67.98 C106.798,68.1 106.618,68.16 106.426,68.16 L106.426,68.16 L93.61,68.16 C93.418,68.16 93.238,68.1 93.07,67.98 C92.902,67.86 92.818,67.632 92.818,67.296 L92.818,67.296 L92.17,67.296 L92.17,71.436 L92.818,71.436 C92.818,71.22 92.902,71.064 93.07,70.968 C93.238,70.872 93.418,70.824 93.61,70.824 L93.61,70.824 L98.29,70.824 L98.29,82.812 C98.29,83.004 98.23,83.142 98.11,83.226 C97.99,83.31 97.87,83.352 97.75,83.352 L97.75,83.352 L97.75,84 L102.394,84 Z M120.394,84 L120.394,83.352 C119.962,83.352 119.746,83.172 119.746,82.812 L119.746,82.812 L119.746,70.824 L124.426,70.824 C124.618,70.824 124.798,70.872 124.966,70.968 C125.134,71.064 125.218,71.22 125.218,71.436 L125.218,71.436 L125.866,71.436 L125.866,67.296 L125.218,67.296 C125.218,67.632 125.134,67.86 124.966,67.98 C124.798,68.1 124.618,68.16 124.426,68.16 L124.426,68.16 L111.61,68.16 C111.418,68.16 111.238,68.1 111.07,67.98 C110.902,67.86 110.818,67.632 110.818,67.296 L110.818,67.296 L110.17,67.296 L110.17,71.436 L110.818,71.436 C110.818,71.22 110.902,71.064 111.07,70.968 C111.238,70.872 111.418,70.824 111.61,70.824 L111.61,70.824 L116.29,70.824 L116.29,82.812 C116.29,83.004 116.23,83.142 116.11,83.226 C115.99,83.31 115.87,83.352 115.75,83.352 L115.75,83.352 L115.75,84 L120.394,84 Z M151.462,84.108 C152.614,84.108 153.718,83.976 154.774,83.712 C155.83,83.448 156.772,83.136 157.6,82.776 C158.428,82.416 159.112,82.092 159.652,81.804 C160.192,81.516 160.534,81.372 160.678,81.372 C160.75,81.372 160.816,81.378 160.876,81.39 C160.936,81.402 161.002,81.408 161.074,81.408 L161.074,81.408 L161.362,81.12 L158.986,77.304 L158.482,77.592 C158.578,77.712 158.626,77.856 158.626,78.024 C158.626,78.336 158.392,78.666 157.924,79.014 C157.456,79.362 156.874,79.674 156.178,79.95 C155.482,80.226 154.714,80.454 153.874,80.634 C153.034,80.814 152.23,80.904 151.462,80.904 C150.454,80.904 149.488,80.76 148.564,80.472 C147.64,80.184 146.836,79.764 146.152,79.212 C145.468,78.66 144.922,77.982 144.514,77.178 C144.106,76.374 143.902,75.456 143.902,74.424 C143.902,73.392 144.106,72.474 144.514,71.67 C144.922,70.866 145.468,70.188 146.152,69.636 C146.836,69.084 147.64,68.664 148.564,68.376 C149.488,68.088 150.454,67.944 151.462,67.944 C152.062,67.944 152.716,68.016 153.424,68.16 C154.132,68.304 154.804,68.484 155.44,68.7 C156.076,68.916 156.61,69.162 157.042,69.438 C157.474,69.714 157.714,69.984 157.762,70.248 C157.786,70.344 157.804,70.428 157.816,70.5 C157.828,70.572 157.834,70.644 157.834,70.716 L157.834,70.716 L158.194,70.968 L161.002,66.612 L160.462,66.18 C160.414,66.252 160.348,66.348 160.264,66.468 C160.18,66.588 160.078,66.648 159.958,66.648 C159.862,66.648 159.598,66.552 159.166,66.36 C158.734,66.168 158.146,65.964 157.402,65.748 C156.658,65.532 155.788,65.328 154.792,65.136 C153.796,64.944 152.686,64.848 151.462,64.848 C149.95,64.848 148.498,65.052 147.106,65.46 C145.714,65.868 144.484,66.48 143.416,67.296 C142.348,68.112 141.502,69.126 140.878,70.338 C140.254,71.55 139.942,72.948 139.942,74.532 C139.942,76.14 140.254,77.544 140.878,78.744 C141.502,79.944 142.348,80.946 143.416,81.75 C144.484,82.554 145.714,83.148 147.106,83.532 C148.498,83.916 149.95,84.108 151.462,84.108 Z M174.97,84.108 C176.29,84.108 177.532,83.958 178.696,83.658 C179.86,83.358 180.874,82.872 181.738,82.2 C182.602,81.528 183.286,80.682 183.79,79.662 C184.294,78.642 184.546,77.448 184.546,76.08 C184.546,74.712 184.294,73.518 183.79,72.498 C183.286,71.478 182.602,70.632 181.738,69.96 C180.874,69.288 179.86,68.784 178.696,68.448 C177.532,68.112 176.29,67.944 174.97,67.944 C173.65,67.944 172.408,68.112 171.244,68.448 C170.08,68.784 169.066,69.288 168.202,69.96 C167.338,70.632 166.654,71.478 166.15,72.498 C165.646,73.518 165.394,74.712 165.394,76.08 C165.394,77.448 165.646,78.642 166.15,79.662 C166.654,80.682 167.338,81.528 168.202,82.2 C169.066,82.872 170.08,83.358 171.244,83.658 C172.408,83.958 173.65,84.108 174.97,84.108 Z M174.97,81.552 C174.202,81.552 173.452,81.426 172.72,81.174 C171.988,80.922 171.334,80.562 170.758,80.094 C170.182,79.626 169.72,79.056 169.372,78.384 C169.024,77.712 168.85,76.944 168.85,76.08 C168.85,75.216 169.024,74.448 169.372,73.776 C169.72,73.104 170.182,72.534 170.758,72.066 C171.334,71.598 171.988,71.238 172.72,70.986 C173.452,70.734 174.202,70.608 174.97,70.608 C175.738,70.608 176.488,70.734 177.22,70.986 C177.952,71.238 178.606,71.598 179.182,72.066 C179.758,72.534 180.22,73.104 180.568,73.776 C180.916,74.448 181.09,75.216 181.09,76.08 C181.09,76.944 180.916,77.712 180.568,78.384 C180.22,79.056 179.758,79.626 179.182,80.094 C178.606,80.562 177.952,80.922 177.22,81.174 C176.488,81.426 175.738,81.552 174.97,81.552 Z M194.698,84 L194.698,83.352 C194.026,83.352 193.69,83.172 193.69,82.812 L193.69,82.812 L193.69,69.348 C193.69,68.988 194.026,68.808 194.698,68.808 L194.698,68.808 L194.698,68.16 L189.226,68.16 L189.226,68.808 C189.61,68.808 189.874,68.85 190.018,68.934 C190.162,69.018 190.234,69.156 190.234,69.348 L190.234,69.348 L190.234,82.812 C190.234,83.004 190.162,83.142 190.018,83.226 C189.874,83.31 189.61,83.352 189.226,83.352 L189.226,83.352 L189.226,84 L194.698,84 Z M205.318,84 L205.318,83.352 C204.814,83.352 204.562,83.172 204.562,82.812 L204.562,82.812 L204.562,72.336 L213.49,81.84 C213.778,82.152 214.036,82.428 214.264,82.668 C214.492,82.908 214.606,83.076 214.606,83.172 C214.606,83.292 214.522,83.352 214.354,83.352 L214.354,83.352 L214.354,84 L219.034,84 L219.034,83.352 C218.602,83.352 218.386,83.172 218.386,82.812 L218.386,82.812 L218.386,69.348 C218.386,68.988 218.602,68.808 219.034,68.808 L219.034,68.808 L219.034,68.16 L214.642,68.16 L214.642,68.808 C215.122,68.808 215.362,68.988 215.362,69.348 L215.362,69.348 L215.362,79.104 L206.722,69.96 C206.194,69.432 205.93,69.108 205.93,68.988 C205.93,68.892 206.014,68.832 206.182,68.808 L206.182,68.808 L206.182,68.16 L200.89,68.16 L200.89,68.808 C201.322,68.808 201.538,68.988 201.538,69.348 L201.538,69.348 L201.538,82.812 C201.538,83.172 201.322,83.352 200.89,83.352 L200.89,83.352 L200.89,84 L205.318,84 Z" id="ButtCoin" fill="#000000" fill-rule="nonzero"></path>
        <path d="M201.478,42.108 C202.438,42.108 203.464,42.03 204.556,41.874 C205.648,41.718 206.65,41.406 207.562,40.938 C208.474,40.47 209.236,39.84 209.848,39.048 C210.46,38.256 210.766,37.248 210.766,36.024 C210.766,34.944 210.436,34.05 209.776,33.342 C209.116,32.634 208.27,32.16 207.238,31.92 L207.238,31.92 L207.238,31.848 C208.102,31.656 208.786,31.194 209.29,30.462 C209.794,29.73 210.046,28.932 210.046,28.068 C210.046,27.132 209.8,26.334 209.308,25.674 C208.816,25.014 208.18,24.474 207.4,24.054 C206.62,23.634 205.756,23.328 204.808,23.136 C203.86,22.944 202.918,22.848 201.982,22.848 C200.59,22.848 199.408,22.986 198.436,23.262 C197.464,23.538 196.666,23.844 196.042,24.18 C195.418,24.516 194.944,24.822 194.62,25.098 C194.296,25.374 194.074,25.512 193.954,25.512 C193.738,25.512 193.534,25.452 193.342,25.332 L193.342,25.332 L192.91,25.656 L195.79,29.328 L196.114,29.112 C196.066,28.992 196.03,28.866 196.006,28.734 C195.982,28.602 195.97,28.488 195.97,28.392 C195.97,28.104 196.15,27.816 196.51,27.528 C196.87,27.24 197.326,26.976 197.878,26.736 C198.43,26.496 199.042,26.304 199.714,26.16 C200.386,26.016 201.046,25.944 201.694,25.944 C202.246,25.944 202.792,25.974 203.332,26.034 C203.872,26.094 204.364,26.208 204.808,26.376 C205.252,26.544 205.612,26.778 205.888,27.078 C206.164,27.378 206.302,27.768 206.302,28.248 C206.302,28.752 206.146,29.172 205.834,29.508 C205.522,29.844 205.144,30.108 204.7,30.3 C204.256,30.492 203.782,30.624 203.278,30.696 C202.774,30.768 202.33,30.804 201.946,30.804 C201.37,30.804 200.848,30.726 200.38,30.57 C199.912,30.414 199.654,30.096 199.606,29.616 L199.606,29.616 L199.174,29.616 L199.174,34.512 L199.606,34.512 C199.75,34.08 200.032,33.81 200.452,33.702 C200.872,33.594 201.37,33.54 201.946,33.54 C202.354,33.54 202.84,33.57 203.404,33.63 C203.968,33.69 204.502,33.816 205.006,34.008 C205.51,34.2 205.936,34.47 206.284,34.818 C206.632,35.166 206.806,35.628 206.806,36.204 C206.806,36.804 206.626,37.29 206.266,37.662 C205.906,38.034 205.468,38.328 204.952,38.544 C204.436,38.76 203.884,38.91 203.296,38.994 C202.708,39.078 202.198,39.12 201.766,39.12 C201.214,39.12 200.536,39.042 199.732,38.886 C198.928,38.73 198.16,38.502 197.428,38.202 C196.696,37.902 196.066,37.536 195.538,37.104 C195.01,36.672 194.746,36.18 194.746,35.628 L194.746,35.628 L194.746,35.376 C194.746,35.256 194.758,35.172 194.782,35.124 L194.782,35.124 L194.386,34.908 L192.298,40.092 L192.622,40.2 C192.718,40.152 192.808,40.104 192.892,40.056 C192.976,40.008 193.078,39.984 193.198,39.984 C193.39,39.984 193.72,40.098 194.188,40.326 C194.656,40.554 195.25,40.806 195.97,41.082 C196.69,41.358 197.518,41.598 198.454,41.802 C199.39,42.006 200.398,42.108 201.478,42.108 Z" id="3" fill="#000000" fill-rule="nonzero"></path>
    </g>
</svg>