<?xml version="1.0" encoding="UTF-8"?>
<svg width="262px" height="360px" viewBox="0 0 262 360" version="1.1" xmlns="http://www.w3.org/2000/svg" xmlns:xlink="http://www.w3.org/1999/xlink">
    <title>Diarrhea 2</title>
    <g id="Diarrhea-2" stroke="none" stroke-width="1" fill="none" fill-rule="evenodd">
        <g id="Group" transform="translate(9.000000, 9.000000)" fill="#FFFFFF" stroke="#000000" stroke-width="3">
            <g id="Rectangle">
                <rect x="1.5" y="1.5" width="239" height="337" rx="8"></rect>
            </g>
        </g>
        <path d="M216.124,30 L216.124,29.712 C215.964,29.712 215.82,29.668 215.692,29.58 C215.564,29.492 215.5,29.312 215.5,29.04 L215.5,29.04 L215.5,18.048 C215.5,17.888 215.564,17.768 215.692,17.688 C215.82,17.608 215.98,17.552 216.172,17.52 L216.172,17.52 L216.172,17.232 L212.284,17.232 L212.284,17.52 C212.46,17.552 212.6,17.6 212.704,17.664 C212.808,17.728 212.86,17.872 212.86,18.096 C212.86,18.336 212.768,18.54 212.584,18.708 C212.4,18.876 212.172,18.96 211.9,18.96 C211.772,18.96 211.636,18.932 211.492,18.876 C211.348,18.82 211.276,18.72 211.276,18.576 L211.276,18.576 L210.988,18.576 L210.988,21.6 L211.276,21.6 C211.324,21.472 211.408,21.372 211.528,21.3 C211.648,21.228 211.78,21.172 211.924,21.132 C212.068,21.092 212.216,21.064 212.368,21.048 C212.52,21.032 212.652,21.024 212.764,21.024 L212.764,21.024 L212.764,29.04 C212.764,29.312 212.704,29.492 212.584,29.58 C212.464,29.668 212.324,29.712 212.164,29.712 L212.164,29.712 L212.164,30 L216.124,30 Z" id="1" fill="#000000" fill-rule="nonzero"></path>
        <g id="Face" transform="translate(225.000000, 15.000000)">
            <circle id="Oval" stroke="#000000" fill="#FFFFFF" cx="9.5" cy="9.5" r="9"></circle>
            <circle id="Oval" fill="#000000" cx="5" cy="8" r="1"></circle>
            <circle id="Oval-Copy" fill="#000000" cx="12" cy="8" r="1"></circle>
            <line x1="12.0789474" y1="13.9090909" x2="14.5" y2="11.5" id="Line-4" stroke="#000000" stroke-linecap="round"></line>
            <path d="M3,5.89285714 C3.41025641,5.96428571 3.76923077,6 4.07692308,6 C4.38461538,6 5.35897436,5.33333333 7,4" id="Line-2" stroke="#000000"></path>
            <path d="M6,15 C6.96078431,14.3333333 8.07598039,14 9.34558824,14 C10.6151961,14 11.8333333,14.3333333 13,15" id="Line" stroke="#000000" stroke-linecap="round" stroke-linejoin="round"></path>
            <path d="M11.3197366,4.68245322 C11.585843,4.80663622 11.7912611,4.92388646 11.9359908,5.03420394 C12.548667,5.50120471 13.1333088,5.70898724 13.3155349,5.80010028 C13.5440857,5.91437569 13.8101922,6.00751295 14.1138542,6.07951204" id="Line-3" stroke="#000000" stroke-linecap="square" transform="translate(12.716795, 5.380983) rotate(-3.000000) translate(-12.716795, -5.380983) "></path>
            <path d="M2.999,9.347 L3.01687864,9.39698204 C3.09438102,9.62639002 3.1880913,9.89570266 3.30282211,10.2112791 C3.48139895,10.7024692 3.54804655,11.0169045 3.47980817,11.2204078 C3.41244402,11.421304 3.17143148,11.4011566 3.01518318,11.4416373 L3.01518318,11.4416373 L2.86575433,11.4813457 C2.78836954,11.5029149 2.70310591,11.5126925 2.63007237,11.4810832 C2.58941161,11.463485 2.56030088,11.4264037 2.54036126,11.376794 C2.4446463,11.1386559 2.49784548,10.759559 2.69717789,10.2112791 C2.8119087,9.89570266 2.90561898,9.62639002 2.98312136,9.39698204 L2.999,9.347 Z" id="Oval" stroke="#000000"></path>
            <path d="M16,6.347 L16.0168786,6.39698204 C16.094381,6.62639002 16.1880913,6.89570266 16.3028221,7.21127907 C16.481399,7.70246915 16.5480465,8.01690453 16.4798082,8.22040783 C16.412444,8.42130397 16.1714315,8.40115659 16.0151832,8.44163726 L16.0151832,8.44163726 L15.8657543,8.48134574 C15.7883695,8.50291486 15.7031059,8.51269255 15.6300724,8.48108319 C15.5894116,8.46348497 15.5603009,8.42640366 15.5403613,8.37679403 C15.4446463,8.13865595 15.4978455,7.75955902 15.6971779,7.21127907 C15.8119087,6.89570266 15.905619,6.62639002 15.9831214,6.39698204 L16,6.347 Z" id="Oval-Copy-2" stroke="#000000"></path>
        </g>
        <rect id="Rectangle" stroke="#000000" stroke-width="3" x="17.5" y="254.5" width="225" height="87" rx="8"></rect>
        <path d="M62.6,57 C63.92,57 65.15,56.808 66.29,56.424 C67.43,56.04 68.42,55.458 69.26,54.678 C70.1,53.898 70.76,52.914 71.24,51.726 C71.72,50.538 71.96,49.14 71.96,47.532 C71.96,45.924 71.72,44.526 71.24,43.338 C70.76,42.15 70.1,41.166 69.26,40.386 C68.42,39.606 67.43,39.024 66.29,38.64 C65.15,38.256 63.92,38.064 62.6,38.064 L62.6,38.064 L50.648,38.064 L50.648,38.712 C51.2,38.712 51.476,38.928 51.476,39.36 L51.476,39.36 L51.476,55.704 C51.476,56.136 51.2,56.352 50.648,56.352 L50.648,56.352 L50.648,57 L62.6,57 Z M61.16,53.904 L55.58,53.904 L55.58,41.16 L61.16,41.16 C62.288,41.16 63.272,41.256 64.112,41.448 C64.952,41.64 65.648,41.982 66.2,42.474 C66.752,42.966 67.166,43.62 67.442,44.436 C67.718,45.252 67.856,46.284 67.856,47.532 C67.856,48.78 67.718,49.812 67.442,50.628 C67.166,51.444 66.752,52.098 66.2,52.59 C65.648,53.082 64.952,53.424 64.112,53.616 C63.272,53.808 62.288,53.904 61.16,53.904 L61.16,53.904 Z M82.688,57 L82.688,56.352 C82.016,56.352 81.68,56.172 81.68,55.812 L81.68,55.812 L81.68,42.348 C81.68,41.988 82.016,41.808 82.688,41.808 L82.688,41.808 L82.688,41.16 L77.216,41.16 L77.216,41.808 C77.6,41.808 77.864,41.85 78.008,41.934 C78.152,42.018 78.224,42.156 78.224,42.348 L78.224,42.348 L78.224,55.812 C78.224,56.004 78.152,56.142 78.008,56.226 C77.864,56.31 77.6,56.352 77.216,56.352 L77.216,56.352 L77.216,57 L82.688,57 Z M91.328,57 L91.328,56.352 C91.112,56.352 90.944,56.328 90.824,56.28 C90.704,56.232 90.644,56.112 90.644,55.92 C90.644,55.8 90.674,55.662 90.734,55.506 C90.794,55.35 90.872,55.176 90.968,54.984 L90.968,54.984 L91.976,53.04 L99.68,53.04 L100.652,55.092 C100.724,55.284 100.784,55.44 100.832,55.56 C100.88,55.68 100.904,55.812 100.904,55.956 C100.904,56.148 100.838,56.28 100.706,56.352 C100.574,56.424 100.448,56.46 100.328,56.46 L100.328,56.46 L100.328,57 L105.44,57 L105.44,56.352 C105.272,56.304 105.116,56.232 104.972,56.136 C104.828,56.04 104.696,55.884 104.576,55.668 L104.576,55.668 L98.744,43.428 C98.624,43.164 98.51,42.93 98.402,42.726 C98.294,42.522 98.24,42.348 98.24,42.204 C98.24,42.036 98.282,41.94 98.366,41.916 C98.45,41.892 98.528,41.856 98.6,41.808 L98.6,41.808 L98.6,41.16 L93.164,41.16 L93.164,41.808 C93.236,41.856 93.302,41.898 93.362,41.934 C93.422,41.97 93.452,42.06 93.452,42.204 C93.452,42.396 93.41,42.594 93.326,42.798 C93.242,43.002 93.128,43.272 92.984,43.608 L92.984,43.608 L87.62,55.308 C87.524,55.5 87.386,55.71 87.206,55.938 C87.026,56.166 86.792,56.304 86.504,56.352 L86.504,56.352 L86.504,57 L91.328,57 Z M98.528,50.376 L93.056,50.376 L95.612,44.328 L98.528,50.376 Z M113.576,57 L113.576,56.352 C113.432,56.352 113.282,56.31 113.126,56.226 C112.97,56.142 112.892,56.004 112.892,55.812 L112.892,55.812 L112.892,50.664 L117.896,50.664 L120.74,54.912 C121.1,55.416 121.28,55.788 121.28,56.028 C121.28,56.244 121.124,56.352 120.812,56.352 L120.812,56.352 L120.812,57 L126.32,57 L126.32,56.352 C126.056,56.28 125.81,56.178 125.582,56.046 C125.354,55.914 125.144,55.716 124.952,55.452 L124.952,55.452 L121.424,50.304 C121.928,50.184 122.42,50.01 122.9,49.782 C123.38,49.554 123.818,49.254 124.214,48.882 C124.61,48.51 124.928,48.072 125.168,47.568 C125.408,47.064 125.528,46.488 125.528,45.84 C125.528,44.136 124.928,42.93 123.728,42.222 C122.528,41.514 120.86,41.16 118.724,41.16 L118.724,41.16 L108.788,41.16 L108.788,41.808 C109.22,41.808 109.436,41.988 109.436,42.348 L109.436,42.348 L109.436,55.812 C109.436,56.172 109.22,56.352 108.788,56.352 L108.788,56.352 L108.788,57 L113.576,57 Z M118.652,48 L112.964,48 L112.964,43.824 L118.652,43.824 C119.876,43.824 120.77,43.998 121.334,44.346 C121.898,44.694 122.18,45.168 122.18,45.768 C122.18,47.256 121.004,48 118.652,48 L118.652,48 Z M135.572,57 L135.572,56.352 C135.428,56.352 135.278,56.31 135.122,56.226 C134.966,56.142 134.888,56.004 134.888,55.812 L134.888,55.812 L134.888,50.664 L139.892,50.664 L142.736,54.912 C143.096,55.416 143.276,55.788 143.276,56.028 C143.276,56.244 143.12,56.352 142.808,56.352 L142.808,56.352 L142.808,57 L148.316,57 L148.316,56.352 C148.052,56.28 147.806,56.178 147.578,56.046 C147.35,55.914 147.14,55.716 146.948,55.452 L146.948,55.452 L143.42,50.304 C143.924,50.184 144.416,50.01 144.896,49.782 C145.376,49.554 145.814,49.254 146.21,48.882 C146.606,48.51 146.924,48.072 147.164,47.568 C147.404,47.064 147.524,46.488 147.524,45.84 C147.524,44.136 146.924,42.93 145.724,42.222 C144.524,41.514 142.856,41.16 140.72,41.16 L140.72,41.16 L130.784,41.16 L130.784,41.808 C131.216,41.808 131.432,41.988 131.432,42.348 L131.432,42.348 L131.432,55.812 C131.432,56.172 131.216,56.352 130.784,56.352 L130.784,56.352 L130.784,57 L135.572,57 Z M140.648,48 L134.96,48 L134.96,43.824 L140.648,43.824 C141.872,43.824 142.766,43.998 143.33,44.346 C143.894,44.694 144.176,45.168 144.176,45.768 C144.176,47.256 143,48 140.648,48 L140.648,48 Z M157.676,57 L157.676,56.352 C157.532,56.352 157.406,56.31 157.298,56.226 C157.19,56.142 157.136,56.004 157.136,55.812 L157.136,55.812 L157.136,50.376 L166.784,50.376 L166.784,55.812 C166.784,56.004 166.73,56.142 166.622,56.226 C166.514,56.31 166.388,56.352 166.244,56.352 L166.244,56.352 L166.244,57 L170.78,57 L170.78,56.352 C170.636,56.352 170.51,56.31 170.402,56.226 C170.294,56.142 170.24,56.004 170.24,55.812 L170.24,55.812 L170.24,42.348 C170.24,42.156 170.294,42.018 170.402,41.934 C170.51,41.85 170.636,41.808 170.78,41.808 L170.78,41.808 L170.78,41.16 L166.244,41.16 L166.244,41.808 C166.388,41.808 166.514,41.85 166.622,41.934 C166.73,42.018 166.784,42.156 166.784,42.348 L166.784,42.348 L166.784,47.424 L157.136,47.424 L157.136,42.348 C157.136,42.156 157.19,42.018 157.298,41.934 C157.406,41.85 157.532,41.808 157.676,41.808 L157.676,41.808 L157.676,41.16 L153.14,41.16 L153.14,41.808 C153.284,41.808 153.41,41.85 153.518,41.934 C153.626,42.018 153.68,42.156 153.68,42.348 L153.68,42.348 L153.68,55.812 C153.68,56.004 153.626,56.142 153.518,56.226 C153.41,56.31 153.284,56.352 153.14,56.352 L153.14,56.352 L153.14,57 L157.676,57 Z M191.804,57.396 L191.804,53.616 L191.156,53.616 C191.156,53.832 191.06,54.006 190.868,54.138 C190.676,54.27 190.436,54.336 190.148,54.336 L190.148,54.336 L180.932,54.336 L180.932,50.088 L186.188,50.088 C186.668,50.088 187.04,50.118 187.304,50.178 C187.568,50.238 187.664,50.4 187.592,50.664 L187.592,50.664 L188.312,50.664 L188.312,46.848 L187.664,46.848 C187.664,47.112 187.568,47.274 187.376,47.334 C187.184,47.394 186.884,47.424 186.476,47.424 L186.476,47.424 L180.932,47.424 L180.932,43.824 L189.716,43.824 C190.46,43.824 190.832,44.052 190.832,44.508 L190.832,44.508 L191.48,44.508 L191.48,40.512 L190.832,40.512 C190.832,40.944 190.46,41.16 189.716,41.16 L189.716,41.16 L176.936,41.16 L176.936,41.808 C177.056,41.808 177.176,41.85 177.296,41.934 C177.416,42.018 177.476,42.156 177.476,42.348 L177.476,42.348 L177.476,55.812 C177.476,56.004 177.416,56.142 177.296,56.226 C177.176,56.31 177.056,56.352 176.936,56.352 L176.936,56.352 L176.936,57 L190.148,57 C190.436,57 190.676,57.012 190.868,57.036 C191.06,57.06 191.156,57.18 191.156,57.396 L191.156,57.396 L191.804,57.396 Z M199.364,57 L199.364,56.352 C199.148,56.352 198.98,56.328 198.86,56.28 C198.74,56.232 198.68,56.112 198.68,55.92 C198.68,55.8 198.71,55.662 198.77,55.506 C198.83,55.35 198.908,55.176 199.004,54.984 L199.004,54.984 L200.012,53.04 L207.716,53.04 L208.688,55.092 C208.76,55.284 208.82,55.44 208.868,55.56 C208.916,55.68 208.94,55.812 208.94,55.956 C208.94,56.148 208.874,56.28 208.742,56.352 C208.61,56.424 208.484,56.46 208.364,56.46 L208.364,56.46 L208.364,57 L213.476,57 L213.476,56.352 C213.308,56.304 213.152,56.232 213.008,56.136 C212.864,56.04 212.732,55.884 212.612,55.668 L212.612,55.668 L206.78,43.428 C206.66,43.164 206.546,42.93 206.438,42.726 C206.33,42.522 206.276,42.348 206.276,42.204 C206.276,42.036 206.318,41.94 206.402,41.916 C206.486,41.892 206.564,41.856 206.636,41.808 L206.636,41.808 L206.636,41.16 L201.2,41.16 L201.2,41.808 C201.272,41.856 201.338,41.898 201.398,41.934 C201.458,41.97 201.488,42.06 201.488,42.204 C201.488,42.396 201.446,42.594 201.362,42.798 C201.278,43.002 201.164,43.272 201.02,43.608 L201.02,43.608 L195.656,55.308 C195.56,55.5 195.422,55.71 195.242,55.938 C195.062,56.166 194.828,56.304 194.54,56.352 L194.54,56.352 L194.54,57 L199.364,57 Z M206.564,50.376 L201.092,50.376 L203.648,44.328 L206.564,50.376 Z" id="Diarrhea" fill="#000000" fill-rule="nonzero"></path>
        <path d="M58.406,273 L58.406,272.676 C58.142,272.676 58.01,272.568 58.01,272.352 L58.01,272.352 L58.01,265.188 L60.98,265.188 C61.088,265.188 61.193,265.218 61.295,265.278 C61.397,265.338 61.448,265.452 61.448,265.62 L61.448,265.62 L61.772,265.62 L61.772,263.1 L61.448,263.1 C61.448,263.268 61.397,263.382 61.295,263.442 C61.193,263.502 61.088,263.532 60.98,263.532 L60.98,263.532 L52.988,263.532 C52.88,263.532 52.775,263.502 52.673,263.442 C52.571,263.382 52.52,263.268 52.52,263.1 L52.52,263.1 L52.196,263.1 L52.196,265.62 L52.52,265.62 C52.52,265.452 52.571,265.338 52.673,265.278 C52.775,265.218 52.88,265.188 52.988,265.188 L52.988,265.188 L55.958,265.188 L55.958,272.352 C55.958,272.46 55.925,272.541 55.859,272.595 C55.793,272.649 55.718,272.676 55.634,272.676 L55.634,272.676 L55.634,273 L58.406,273 Z M66.344,273 L66.344,272.676 C66.272,272.676 66.209,272.655 66.155,272.613 C66.101,272.571 66.074,272.502 66.074,272.406 L66.074,272.406 L66.074,269.688 L70.898,269.688 L70.898,272.406 C70.898,272.502 70.871,272.571 70.817,272.613 C70.763,272.655 70.7,272.676 70.628,272.676 L70.628,272.676 L70.628,273 L72.896,273 L72.896,272.676 C72.824,272.676 72.761,272.655 72.707,272.613 C72.653,272.571 72.626,272.502 72.626,272.406 L72.626,272.406 L72.626,265.674 C72.626,265.578 72.653,265.509 72.707,265.467 C72.761,265.425 72.824,265.404 72.896,265.404 L72.896,265.404 L72.896,265.08 L70.628,265.08 L70.628,265.404 C70.7,265.404 70.763,265.425 70.817,265.467 C70.871,265.509 70.898,265.578 70.898,265.674 L70.898,265.674 L70.898,268.212 L66.074,268.212 L66.074,265.674 C66.074,265.578 66.101,265.509 66.155,265.467 C66.209,265.425 66.272,265.404 66.344,265.404 L66.344,265.404 L66.344,265.08 L64.076,265.08 L64.076,265.404 C64.148,265.404 64.211,265.425 64.265,265.467 C64.319,265.509 64.346,265.578 64.346,265.674 L64.346,265.674 L64.346,272.406 C64.346,272.502 64.319,272.571 64.265,272.613 C64.211,272.655 64.148,272.676 64.076,272.676 L64.076,272.676 L64.076,273 L66.344,273 Z M83.408,273.198 L83.408,271.308 L83.084,271.308 C83.084,271.416 83.036,271.503 82.94,271.569 C82.844,271.635 82.724,271.668 82.58,271.668 L82.58,271.668 L77.972,271.668 L77.972,269.544 L80.6,269.544 C80.84,269.544 81.026,269.559 81.158,269.589 C81.29,269.619 81.338,269.7 81.302,269.832 L81.302,269.832 L81.662,269.832 L81.662,267.924 L81.338,267.924 C81.338,268.056 81.29,268.137 81.194,268.167 C81.098,268.197 80.948,268.212 80.744,268.212 L80.744,268.212 L77.972,268.212 L77.972,266.412 L82.364,266.412 C82.736,266.412 82.922,266.526 82.922,266.754 L82.922,266.754 L83.246,266.754 L83.246,264.756 L82.922,264.756 C82.922,264.972 82.736,265.08 82.364,265.08 L82.364,265.08 L75.974,265.08 L75.974,265.404 C76.034,265.404 76.094,265.425 76.154,265.467 C76.214,265.509 76.244,265.578 76.244,265.674 L76.244,265.674 L76.244,272.406 C76.244,272.502 76.214,272.571 76.154,272.613 C76.094,272.655 76.034,272.676 75.974,272.676 L75.974,272.676 L75.974,273 L82.58,273 C82.724,273 82.844,273.006 82.94,273.018 C83.036,273.03 83.084,273.09 83.084,273.198 L83.084,273.198 L83.408,273.198 Z M96.278,273 C96.986,273 97.586,272.886 98.078,272.658 C98.57,272.43 98.972,272.133 99.284,271.767 C99.596,271.401 99.824,270.981 99.968,270.507 C100.112,270.033 100.184,269.544 100.184,269.04 C100.184,268.536 100.109,268.047 99.959,267.573 C99.809,267.099 99.575,266.679 99.257,266.313 C98.939,265.947 98.528,265.65 98.024,265.422 C97.52,265.194 96.914,265.08 96.206,265.08 L96.206,265.08 L91.202,265.08 L91.202,265.404 C91.478,265.404 91.616,265.494 91.616,265.674 L91.616,265.674 L91.616,272.406 C91.616,272.586 91.478,272.676 91.202,272.676 L91.202,272.676 L91.202,273 L96.278,273 Z M95.684,271.668 L93.344,271.668 L93.344,266.412 L95.684,266.412 C96.056,266.412 96.41,266.433 96.746,266.475 C97.082,266.517 97.376,266.625 97.628,266.799 C97.88,266.973 98.081,267.231 98.231,267.573 C98.381,267.915 98.456,268.386 98.456,268.986 C98.456,269.586 98.381,270.063 98.231,270.417 C98.081,270.771 97.88,271.041 97.628,271.227 C97.376,271.413 97.082,271.533 96.746,271.587 C96.41,271.641 96.056,271.668 95.684,271.668 L95.684,271.668 Z M104.792,273 L104.792,272.676 C104.72,272.676 104.645,272.655 104.567,272.613 C104.489,272.571 104.45,272.502 104.45,272.406 L104.45,272.406 L104.45,269.832 L106.952,269.832 L108.374,271.956 C108.554,272.208 108.644,272.394 108.644,272.514 C108.644,272.622 108.566,272.676 108.41,272.676 L108.41,272.676 L108.41,273 L111.164,273 L111.164,272.676 C111.032,272.64 110.909,272.589 110.795,272.523 C110.681,272.457 110.576,272.358 110.48,272.226 L110.48,272.226 L108.716,269.652 C108.968,269.592 109.214,269.505 109.454,269.391 C109.694,269.277 109.913,269.127 110.111,268.941 C110.309,268.755 110.468,268.536 110.588,268.284 C110.708,268.032 110.768,267.744 110.768,267.42 C110.768,266.568 110.468,265.965 109.868,265.611 C109.268,265.257 108.434,265.08 107.366,265.08 L107.366,265.08 L102.398,265.08 L102.398,265.404 C102.614,265.404 102.722,265.494 102.722,265.674 L102.722,265.674 L102.722,272.406 C102.722,272.586 102.614,272.676 102.398,272.676 L102.398,272.676 L102.398,273 L104.792,273 Z M107.33,268.5 L104.486,268.5 L104.486,266.412 L107.33,266.412 C107.942,266.412 108.389,266.499 108.671,266.673 C108.953,266.847 109.094,267.084 109.094,267.384 C109.094,268.128 108.506,268.5 107.33,268.5 L107.33,268.5 Z M120.902,273.198 L120.902,271.308 L120.578,271.308 C120.578,271.416 120.53,271.503 120.434,271.569 C120.338,271.635 120.218,271.668 120.074,271.668 L120.074,271.668 L115.466,271.668 L115.466,269.544 L118.094,269.544 C118.334,269.544 118.52,269.559 118.652,269.589 C118.784,269.619 118.832,269.7 118.796,269.832 L118.796,269.832 L119.156,269.832 L119.156,267.924 L118.832,267.924 C118.832,268.056 118.784,268.137 118.688,268.167 C118.592,268.197 118.442,268.212 118.238,268.212 L118.238,268.212 L115.466,268.212 L115.466,266.412 L119.858,266.412 C120.23,266.412 120.416,266.526 120.416,266.754 L120.416,266.754 L120.74,266.754 L120.74,264.756 L120.416,264.756 C120.416,264.972 120.23,265.08 119.858,265.08 L119.858,265.08 L113.468,265.08 L113.468,265.404 C113.528,265.404 113.588,265.425 113.648,265.467 C113.708,265.509 113.738,265.578 113.738,265.674 L113.738,265.674 L113.738,272.406 C113.738,272.502 113.708,272.571 113.648,272.613 C113.588,272.655 113.528,272.676 113.468,272.676 L113.468,272.676 L113.468,273 L120.074,273 C120.218,273 120.338,273.006 120.434,273.018 C120.53,273.03 120.578,273.09 120.578,273.198 L120.578,273.198 L120.902,273.198 Z M124.682,273 L124.682,272.676 C124.574,272.676 124.49,272.664 124.43,272.64 C124.37,272.616 124.34,272.556 124.34,272.46 C124.34,272.4 124.355,272.331 124.385,272.253 C124.415,272.175 124.454,272.088 124.502,271.992 L124.502,271.992 L125.006,271.02 L128.858,271.02 L129.344,272.046 C129.38,272.142 129.41,272.22 129.434,272.28 C129.458,272.34 129.47,272.406 129.47,272.478 C129.47,272.574 129.437,272.64 129.371,272.676 C129.305,272.712 129.242,272.73 129.182,272.73 L129.182,272.73 L129.182,273 L131.738,273 L131.738,272.676 C131.654,272.652 131.576,272.616 131.504,272.568 C131.432,272.52 131.366,272.442 131.306,272.334 L131.306,272.334 L128.39,266.214 C128.33,266.082 128.273,265.965 128.219,265.863 C128.165,265.761 128.138,265.674 128.138,265.602 C128.138,265.518 128.159,265.47 128.201,265.458 C128.243,265.446 128.282,265.428 128.318,265.404 L128.318,265.404 L128.318,265.08 L125.6,265.08 L125.6,265.404 C125.636,265.428 125.669,265.449 125.699,265.467 C125.729,265.485 125.744,265.53 125.744,265.602 C125.744,265.698 125.723,265.797 125.681,265.899 C125.639,266.001 125.582,266.136 125.51,266.304 L125.51,266.304 L122.828,272.154 C122.78,272.25 122.711,272.355 122.621,272.469 C122.531,272.583 122.414,272.652 122.27,272.676 L122.27,272.676 L122.27,273 L124.682,273 Z M128.282,269.688 L125.546,269.688 L126.824,266.664 L128.282,269.688 Z M138.29,273 C138.998,273 139.598,272.886 140.09,272.658 C140.582,272.43 140.984,272.133 141.296,271.767 C141.608,271.401 141.836,270.981 141.98,270.507 C142.124,270.033 142.196,269.544 142.196,269.04 C142.196,268.536 142.121,268.047 141.971,267.573 C141.821,267.099 141.587,266.679 141.269,266.313 C140.951,265.947 140.54,265.65 140.036,265.422 C139.532,265.194 138.926,265.08 138.218,265.08 L138.218,265.08 L133.214,265.08 L133.214,265.404 C133.49,265.404 133.628,265.494 133.628,265.674 L133.628,265.674 L133.628,272.406 C133.628,272.586 133.49,272.676 133.214,272.676 L133.214,272.676 L133.214,273 L138.29,273 Z M137.696,271.668 L135.356,271.668 L135.356,266.412 L137.696,266.412 C138.068,266.412 138.422,266.433 138.758,266.475 C139.094,266.517 139.388,266.625 139.64,266.799 C139.892,266.973 140.093,267.231 140.243,267.573 C140.393,267.915 140.468,268.386 140.468,268.986 C140.468,269.586 140.393,270.063 140.243,270.417 C140.093,270.771 139.892,271.041 139.64,271.227 C139.388,271.413 139.094,271.533 138.758,271.587 C138.422,271.641 138.068,271.668 137.696,271.668 L137.696,271.668 Z M151.916,273.198 L151.916,271.308 L151.592,271.308 C151.592,271.416 151.544,271.503 151.448,271.569 C151.352,271.635 151.232,271.668 151.088,271.668 L151.088,271.668 L146.48,271.668 L146.48,269.544 L149.108,269.544 C149.348,269.544 149.534,269.559 149.666,269.589 C149.798,269.619 149.846,269.7 149.81,269.832 L149.81,269.832 L150.17,269.832 L150.17,267.924 L149.846,267.924 C149.846,268.056 149.798,268.137 149.702,268.167 C149.606,268.197 149.456,268.212 149.252,268.212 L149.252,268.212 L146.48,268.212 L146.48,266.412 L150.872,266.412 C151.244,266.412 151.43,266.526 151.43,266.754 L151.43,266.754 L151.754,266.754 L151.754,264.756 L151.43,264.756 C151.43,264.972 151.244,265.08 150.872,265.08 L150.872,265.08 L144.482,265.08 L144.482,265.404 C144.542,265.404 144.602,265.425 144.662,265.467 C144.722,265.509 144.752,265.578 144.752,265.674 L144.752,265.674 L144.752,272.406 C144.752,272.502 144.722,272.571 144.662,272.613 C144.602,272.655 144.542,272.676 144.482,272.676 L144.482,272.676 L144.482,273 L151.088,273 C151.232,273 151.352,273.006 151.448,273.018 C151.544,273.03 151.592,273.09 151.592,273.198 L151.592,273.198 L151.916,273.198 Z M159.296,273 C160.004,273 160.604,272.886 161.096,272.658 C161.588,272.43 161.99,272.133 162.302,271.767 C162.614,271.401 162.842,270.981 162.986,270.507 C163.13,270.033 163.202,269.544 163.202,269.04 C163.202,268.536 163.127,268.047 162.977,267.573 C162.827,267.099 162.593,266.679 162.275,266.313 C161.957,265.947 161.546,265.65 161.042,265.422 C160.538,265.194 159.932,265.08 159.224,265.08 L159.224,265.08 L154.22,265.08 L154.22,265.404 C154.496,265.404 154.634,265.494 154.634,265.674 L154.634,265.674 L154.634,272.406 C154.634,272.586 154.496,272.676 154.22,272.676 L154.22,272.676 L154.22,273 L159.296,273 Z M158.702,271.668 L156.362,271.668 L156.362,266.412 L158.702,266.412 C159.074,266.412 159.428,266.433 159.764,266.475 C160.1,266.517 160.394,266.625 160.646,266.799 C160.898,266.973 161.099,267.231 161.249,267.573 C161.399,267.915 161.474,268.386 161.474,268.986 C161.474,269.586 161.399,270.063 161.249,270.417 C161.099,270.771 160.898,271.041 160.646,271.227 C160.394,271.413 160.1,271.533 159.764,271.587 C159.428,271.641 159.074,271.668 158.702,271.668 L158.702,271.668 Z M176.288,273 C176.816,273 177.269,272.943 177.647,272.829 C178.025,272.715 178.331,272.562 178.565,272.37 C178.799,272.178 178.97,271.956 179.078,271.704 C179.186,271.452 179.24,271.182 179.24,270.894 C179.24,270.642 179.198,270.408 179.114,270.192 C179.03,269.976 178.922,269.784 178.79,269.616 C178.658,269.448 178.508,269.304 178.34,269.184 C178.172,269.064 178.004,268.968 177.836,268.896 L177.836,268.896 L177.836,268.878 C177.98,268.806 178.121,268.71 178.259,268.59 C178.397,268.47 178.523,268.335 178.637,268.185 C178.751,268.035 178.844,267.867 178.916,267.681 C178.988,267.495 179.024,267.294 179.024,267.078 C179.024,266.814 178.97,266.562 178.862,266.322 C178.754,266.082 178.589,265.869 178.367,265.683 C178.145,265.497 177.869,265.35 177.539,265.242 C177.209,265.134 176.816,265.08 176.36,265.08 L176.36,265.08 L170.762,265.08 L170.762,265.404 C170.858,265.404 170.951,265.425 171.041,265.467 C171.131,265.509 171.176,265.578 171.176,265.674 L171.176,265.674 L171.176,272.406 C171.176,272.502 171.131,272.571 171.041,272.613 C170.951,272.655 170.858,272.676 170.762,272.676 L170.762,272.676 L170.762,273 L176.288,273 Z M176.108,268.212 L172.904,268.212 L172.904,266.412 L176.108,266.412 C176.252,266.412 176.396,266.421 176.54,266.439 C176.684,266.457 176.81,266.499 176.918,266.565 C177.026,266.631 177.116,266.721 177.188,266.835 C177.26,266.949 177.296,267.102 177.296,267.294 C177.296,267.666 177.17,267.912 176.918,268.032 C176.666,268.152 176.396,268.212 176.108,268.212 L176.108,268.212 Z M176.072,271.668 L172.904,271.668 L172.904,269.544 L175.784,269.544 C176.408,269.544 176.852,269.634 177.116,269.814 C177.38,269.994 177.512,270.27 177.512,270.642 C177.512,270.966 177.41,271.218 177.206,271.398 C177.002,271.578 176.624,271.668 176.072,271.668 L176.072,271.668 Z M186.566,273.054 C187.286,273.054 187.913,272.979 188.447,272.829 C188.981,272.679 189.419,272.472 189.761,272.208 C190.103,271.944 190.358,271.641 190.526,271.299 C190.694,270.957 190.778,270.6 190.778,270.228 L190.778,270.228 L190.778,265.674 C190.778,265.494 190.91,265.404 191.174,265.404 L191.174,265.404 L191.174,265.08 L188.672,265.08 L188.672,265.404 C188.972,265.404 189.122,265.494 189.122,265.674 L189.122,265.674 L189.122,269.796 C189.122,270.372 188.912,270.834 188.492,271.182 C188.072,271.53 187.43,271.704 186.566,271.704 C185.702,271.704 185.06,271.53 184.64,271.182 C184.22,270.834 184.01,270.372 184.01,269.796 L184.01,269.796 L184.01,265.674 C184.01,265.494 184.142,265.404 184.406,265.404 L184.406,265.404 L184.406,265.08 L181.832,265.08 L181.832,265.404 C182.036,265.404 182.174,265.425 182.246,265.467 C182.318,265.509 182.354,265.578 182.354,265.674 L182.354,265.674 L182.354,270.228 C182.354,270.6 182.438,270.957 182.606,271.299 C182.774,271.641 183.029,271.944 183.371,272.208 C183.713,272.472 184.151,272.679 184.685,272.829 C185.219,272.979 185.846,273.054 186.566,273.054 Z M198.194,273 L198.194,272.676 C197.978,272.676 197.87,272.586 197.87,272.406 L197.87,272.406 L197.87,266.412 L200.21,266.412 C200.306,266.412 200.396,266.436 200.48,266.484 C200.564,266.532 200.606,266.61 200.606,266.718 L200.606,266.718 L200.93,266.718 L200.93,264.648 L200.606,264.648 C200.606,264.816 200.564,264.93 200.48,264.99 C200.396,265.05 200.306,265.08 200.21,265.08 L200.21,265.08 L193.802,265.08 C193.706,265.08 193.616,265.05 193.532,264.99 C193.448,264.93 193.406,264.816 193.406,264.648 L193.406,264.648 L193.082,264.648 L193.082,266.718 L193.406,266.718 C193.406,266.61 193.448,266.532 193.532,266.484 C193.616,266.436 193.706,266.412 193.802,266.412 L193.802,266.412 L196.142,266.412 L196.142,272.406 C196.142,272.502 196.112,272.571 196.052,272.613 C195.992,272.655 195.932,272.676 195.872,272.676 L195.872,272.676 L195.872,273 L198.194,273 Z M207.194,273 L207.194,272.676 C206.978,272.676 206.87,272.586 206.87,272.406 L206.87,272.406 L206.87,266.412 L209.21,266.412 C209.306,266.412 209.396,266.436 209.48,266.484 C209.564,266.532 209.606,266.61 209.606,266.718 L209.606,266.718 L209.93,266.718 L209.93,264.648 L209.606,264.648 C209.606,264.816 209.564,264.93 209.48,264.99 C209.396,265.05 209.306,265.08 209.21,265.08 L209.21,265.08 L202.802,265.08 C202.706,265.08 202.616,265.05 202.532,264.99 C202.448,264.93 202.406,264.816 202.406,264.648 L202.406,264.648 L202.082,264.648 L202.082,266.718 L202.406,266.718 C202.406,266.61 202.448,266.532 202.532,266.484 C202.616,266.436 202.706,266.412 202.802,266.412 L202.802,266.412 L205.142,266.412 L205.142,272.406 C205.142,272.502 205.112,272.571 205.052,272.613 C204.992,272.655 204.932,272.676 204.872,272.676 L204.872,272.676 L204.872,273 L207.194,273 Z M97.664,291 L97.664,290.676 C97.448,290.64 97.34,290.586 97.34,290.514 C97.34,290.454 97.373,290.37 97.439,290.262 C97.505,290.154 97.604,289.944 97.736,289.632 L97.736,289.632 L100.364,283.818 C100.496,283.542 100.646,283.404 100.814,283.404 L100.814,283.404 L100.814,283.08 L98.456,283.08 L98.456,283.404 C98.624,283.404 98.714,283.476 98.726,283.62 C98.738,283.704 98.708,283.818 98.636,283.962 C98.564,284.106 98.462,284.322 98.33,284.61 L98.33,284.61 L96.368,288.966 L94.298,284.484 C94.214,284.304 94.139,284.139 94.073,283.989 C94.007,283.839 93.974,283.722 93.974,283.638 C93.974,283.482 94.046,283.404 94.19,283.404 L94.19,283.404 L94.19,283.08 L91.652,283.08 L91.652,283.404 C91.724,283.404 91.799,283.434 91.877,283.494 C91.955,283.554 92.018,283.638 92.066,283.746 L92.066,283.746 L94.802,289.632 C94.91,289.86 95.003,290.04 95.081,290.172 C95.159,290.304 95.198,290.4 95.198,290.46 C95.198,290.52 95.171,290.565 95.117,290.595 C95.063,290.625 95.006,290.652 94.946,290.676 L94.946,290.676 L94.946,291 L97.664,291 Z M106.736,291.054 C107.396,291.054 108.017,290.979 108.599,290.829 C109.181,290.679 109.688,290.436 110.12,290.1 C110.552,289.764 110.894,289.341 111.146,288.831 C111.398,288.321 111.524,287.724 111.524,287.04 C111.524,286.356 111.398,285.759 111.146,285.249 C110.894,284.739 110.552,284.316 110.12,283.98 C109.688,283.644 109.181,283.392 108.599,283.224 C108.017,283.056 107.396,282.972 106.736,282.972 C106.076,282.972 105.455,283.056 104.873,283.224 C104.291,283.392 103.784,283.644 103.352,283.98 C102.92,284.316 102.578,284.739 102.326,285.249 C102.074,285.759 101.948,286.356 101.948,287.04 C101.948,287.724 102.074,288.321 102.326,288.831 C102.578,289.341 102.92,289.764 103.352,290.1 C103.784,290.436 104.291,290.679 104.873,290.829 C105.455,290.979 106.076,291.054 106.736,291.054 Z M106.736,289.776 C106.352,289.776 105.977,289.713 105.611,289.587 C105.245,289.461 104.918,289.281 104.63,289.047 C104.342,288.813 104.111,288.528 103.937,288.192 C103.763,287.856 103.676,287.472 103.676,287.04 C103.676,286.608 103.763,286.224 103.937,285.888 C104.111,285.552 104.342,285.267 104.63,285.033 C104.918,284.799 105.245,284.619 105.611,284.493 C105.977,284.367 106.352,284.304 106.736,284.304 C107.12,284.304 107.495,284.367 107.861,284.493 C108.227,284.619 108.554,284.799 108.842,285.033 C109.13,285.267 109.361,285.552 109.535,285.888 C109.709,286.224 109.796,286.608 109.796,287.04 C109.796,287.472 109.709,287.856 109.535,288.192 C109.361,288.528 109.13,288.813 108.842,289.047 C108.554,289.281 108.227,289.461 107.861,289.587 C107.495,289.713 107.12,289.776 106.736,289.776 Z M121.496,291.18 L121.496,289.29 L121.172,289.29 C121.172,289.41 121.124,289.503 121.028,289.569 C120.932,289.635 120.812,289.668 120.668,289.668 L120.668,289.668 L115.808,289.668 L115.808,283.674 C115.808,283.494 115.946,283.404 116.222,283.404 L116.222,283.404 L116.222,283.08 L113.612,283.08 L113.612,283.404 C113.924,283.404 114.08,283.494 114.08,283.674 L114.08,283.674 L114.08,290.406 C114.08,290.586 113.924,290.676 113.612,290.676 L113.612,290.676 L113.612,291 L120.668,291 C120.812,291 120.932,291.006 121.028,291.018 C121.124,291.03 121.172,291.084 121.172,291.18 L121.172,291.18 L121.496,291.18 Z M127.328,291.054 C127.868,291.054 128.357,291.006 128.795,290.91 C129.233,290.814 129.617,290.697 129.947,290.559 C130.277,290.421 130.55,290.298 130.766,290.19 C130.982,290.082 131.138,290.028 131.234,290.028 C131.294,290.028 131.396,290.058 131.54,290.118 L131.54,290.118 L131.72,290.028 L130.388,288.12 L130.19,288.3 C130.202,288.348 130.208,288.408 130.208,288.48 L130.208,288.48 L130.208,288.624 C130.208,288.732 130.121,288.852 129.947,288.984 C129.773,289.116 129.548,289.239 129.272,289.353 C128.996,289.467 128.69,289.566 128.354,289.65 C128.018,289.734 127.688,289.776 127.364,289.776 C127.016,289.776 126.674,289.713 126.338,289.587 C126.002,289.461 125.702,289.275 125.438,289.029 C125.174,288.783 124.961,288.489 124.799,288.147 C124.637,287.805 124.556,287.418 124.556,286.986 C124.556,286.554 124.628,286.17 124.772,285.834 C124.916,285.498 125.12,285.216 125.384,284.988 C125.648,284.76 125.957,284.589 126.311,284.475 C126.665,284.361 127.058,284.304 127.49,284.304 C127.85,284.304 128.18,284.337 128.48,284.403 C128.78,284.469 129.041,284.55 129.263,284.646 C129.485,284.742 129.656,284.841 129.776,284.943 C129.896,285.045 129.956,285.126 129.956,285.186 C129.956,285.222 129.959,285.252 129.965,285.276 C129.971,285.3 129.974,285.324 129.974,285.348 L129.974,285.348 L130.172,285.492 L131.36,283.782 L131.144,283.656 C131.096,283.68 131.051,283.71 131.009,283.746 C130.967,283.782 130.916,283.8 130.856,283.8 C130.772,283.8 130.634,283.758 130.442,283.674 C130.25,283.59 130.01,283.494 129.722,283.386 C129.434,283.278 129.101,283.182 128.723,283.098 C128.345,283.014 127.928,282.972 127.472,282.972 C126.884,282.972 126.311,283.056 125.753,283.224 C125.195,283.392 124.7,283.647 124.268,283.989 C123.836,284.331 123.488,284.754 123.224,285.258 C122.96,285.762 122.828,286.35 122.828,287.022 C122.828,287.694 122.96,288.285 123.224,288.795 C123.488,289.305 123.83,289.731 124.25,290.073 C124.67,290.415 125.15,290.664 125.69,290.82 C126.23,290.976 126.776,291.054 127.328,291.054 Z M134.942,291 L134.942,290.676 C134.834,290.676 134.75,290.664 134.69,290.64 C134.63,290.616 134.6,290.556 134.6,290.46 C134.6,290.4 134.615,290.331 134.645,290.253 C134.675,290.175 134.714,290.088 134.762,289.992 L134.762,289.992 L135.266,289.02 L139.118,289.02 L139.604,290.046 C139.64,290.142 139.67,290.22 139.694,290.28 C139.718,290.34 139.73,290.406 139.73,290.478 C139.73,290.574 139.697,290.64 139.631,290.676 C139.565,290.712 139.502,290.73 139.442,290.73 L139.442,290.73 L139.442,291 L141.998,291 L141.998,290.676 C141.914,290.652 141.836,290.616 141.764,290.568 C141.692,290.52 141.626,290.442 141.566,290.334 L141.566,290.334 L138.65,284.214 C138.59,284.082 138.533,283.965 138.479,283.863 C138.425,283.761 138.398,283.674 138.398,283.602 C138.398,283.518 138.419,283.47 138.461,283.458 C138.503,283.446 138.542,283.428 138.578,283.404 L138.578,283.404 L138.578,283.08 L135.86,283.08 L135.86,283.404 C135.896,283.428 135.929,283.449 135.959,283.467 C135.989,283.485 136.004,283.53 136.004,283.602 C136.004,283.698 135.983,283.797 135.941,283.899 C135.899,284.001 135.842,284.136 135.77,284.304 L135.77,284.304 L133.088,290.154 C133.04,290.25 132.971,290.355 132.881,290.469 C132.791,290.583 132.674,290.652 132.53,290.676 L132.53,290.676 L132.53,291 L134.942,291 Z M138.542,287.688 L135.806,287.688 L137.084,284.664 L138.542,287.688 Z M145.94,291 L145.94,290.676 C145.688,290.676 145.562,290.586 145.562,290.406 L145.562,290.406 L145.562,285.168 L150.026,289.92 C150.17,290.076 150.299,290.214 150.413,290.334 C150.527,290.454 150.584,290.538 150.584,290.586 C150.584,290.646 150.542,290.676 150.458,290.676 L150.458,290.676 L150.458,291 L152.798,291 L152.798,290.676 C152.582,290.676 152.474,290.586 152.474,290.406 L152.474,290.406 L152.474,283.674 C152.474,283.494 152.582,283.404 152.798,283.404 L152.798,283.404 L152.798,283.08 L150.602,283.08 L150.602,283.404 C150.842,283.404 150.962,283.494 150.962,283.674 L150.962,283.674 L150.962,288.552 L146.642,283.98 C146.378,283.716 146.246,283.554 146.246,283.494 C146.246,283.446 146.288,283.416 146.372,283.404 L146.372,283.404 L146.372,283.08 L143.726,283.08 L143.726,283.404 C143.942,283.404 144.05,283.494 144.05,283.674 L144.05,283.674 L144.05,290.406 C144.05,290.586 143.942,290.676 143.726,290.676 L143.726,290.676 L143.726,291 L145.94,291 Z M159.764,291.054 C160.424,291.054 161.045,290.979 161.627,290.829 C162.209,290.679 162.716,290.436 163.148,290.1 C163.58,289.764 163.922,289.341 164.174,288.831 C164.426,288.321 164.552,287.724 164.552,287.04 C164.552,286.356 164.426,285.759 164.174,285.249 C163.922,284.739 163.58,284.316 163.148,283.98 C162.716,283.644 162.209,283.392 161.627,283.224 C161.045,283.056 160.424,282.972 159.764,282.972 C159.104,282.972 158.483,283.056 157.901,283.224 C157.319,283.392 156.812,283.644 156.38,283.98 C155.948,284.316 155.606,284.739 155.354,285.249 C155.102,285.759 154.976,286.356 154.976,287.04 C154.976,287.724 155.102,288.321 155.354,288.831 C155.606,289.341 155.948,289.764 156.38,290.1 C156.812,290.436 157.319,290.679 157.901,290.829 C158.483,290.979 159.104,291.054 159.764,291.054 Z M159.764,289.776 C159.38,289.776 159.005,289.713 158.639,289.587 C158.273,289.461 157.946,289.281 157.658,289.047 C157.37,288.813 157.139,288.528 156.965,288.192 C156.791,287.856 156.704,287.472 156.704,287.04 C156.704,286.608 156.791,286.224 156.965,285.888 C157.139,285.552 157.37,285.267 157.658,285.033 C157.946,284.799 158.273,284.619 158.639,284.493 C159.005,284.367 159.38,284.304 159.764,284.304 C160.148,284.304 160.523,284.367 160.889,284.493 C161.255,284.619 161.582,284.799 161.87,285.033 C162.158,285.267 162.389,285.552 162.563,285.888 C162.737,286.224 162.824,286.608 162.824,287.04 C162.824,287.472 162.737,287.856 162.563,288.192 C162.389,288.528 162.158,288.813 161.87,289.047 C161.582,289.281 161.255,289.461 160.889,289.587 C160.523,289.713 160.148,289.776 159.764,289.776 Z M168.008,291.054 C168.356,291.054 168.656,290.937 168.908,290.703 C169.16,290.469 169.286,290.178 169.286,289.83 C169.286,289.482 169.16,289.182 168.908,288.93 C168.656,288.678 168.356,288.552 168.008,288.552 C167.66,288.552 167.36,288.678 167.108,288.93 C166.856,289.182 166.73,289.482 166.73,289.83 C166.73,290.178 166.856,290.469 167.108,290.703 C167.36,290.937 167.66,291.054 168.008,291.054 Z M58.19,309 L58.19,308.676 C57.962,308.676 57.848,308.61 57.848,308.478 C57.848,308.37 57.908,308.19 58.028,307.938 L58.028,307.938 L58.676,306.66 L63.068,306.66 L63.752,307.992 C63.848,308.184 63.896,308.34 63.896,308.46 C63.896,308.532 63.86,308.586 63.788,308.622 C63.716,308.658 63.656,308.676 63.608,308.676 L63.608,308.676 L63.608,309 L66.776,309 L66.776,308.676 C66.644,308.616 66.527,308.556 66.425,308.496 C66.323,308.436 66.242,308.34 66.182,308.208 L66.182,308.208 L62.438,300.882 C62.354,300.726 62.291,300.6 62.249,300.504 C62.207,300.408 62.186,300.312 62.186,300.216 C62.186,300.084 62.228,299.997 62.312,299.955 C62.396,299.913 62.48,299.88 62.564,299.856 L62.564,299.856 L62.564,299.532 L59.522,299.532 L59.522,299.856 C59.618,299.88 59.708,299.916 59.792,299.964 C59.876,300.012 59.918,300.096 59.918,300.216 C59.918,300.312 59.885,300.426 59.819,300.558 C59.753,300.69 59.678,300.834 59.594,300.99 L59.594,300.99 L56.264,307.992 C56.18,308.16 56.093,308.31 56.003,308.442 C55.913,308.574 55.79,308.652 55.634,308.676 L55.634,308.676 L55.634,309 L58.19,309 Z M62.42,305.328 L59.216,305.328 L60.908,301.98 L62.42,305.328 Z M73.544,309 C74.252,309 74.852,308.886 75.344,308.658 C75.836,308.43 76.238,308.133 76.55,307.767 C76.862,307.401 77.09,306.981 77.234,306.507 C77.378,306.033 77.45,305.544 77.45,305.04 C77.45,304.536 77.375,304.047 77.225,303.573 C77.075,303.099 76.841,302.679 76.523,302.313 C76.205,301.947 75.794,301.65 75.29,301.422 C74.786,301.194 74.18,301.08 73.472,301.08 L73.472,301.08 L68.468,301.08 L68.468,301.404 C68.744,301.404 68.882,301.494 68.882,301.674 L68.882,301.674 L68.882,308.406 C68.882,308.586 68.744,308.676 68.468,308.676 L68.468,308.676 L68.468,309 L73.544,309 Z M72.95,307.668 L70.61,307.668 L70.61,302.412 L72.95,302.412 C73.322,302.412 73.676,302.433 74.012,302.475 C74.348,302.517 74.642,302.625 74.894,302.799 C75.146,302.973 75.347,303.231 75.497,303.573 C75.647,303.915 75.722,304.386 75.722,304.986 C75.722,305.586 75.647,306.063 75.497,306.417 C75.347,306.771 75.146,307.041 74.894,307.227 C74.642,307.413 74.348,307.533 74.012,307.587 C73.676,307.641 73.322,307.668 72.95,307.668 L72.95,307.668 Z M84.542,309 C85.25,309 85.85,308.886 86.342,308.658 C86.834,308.43 87.236,308.133 87.548,307.767 C87.86,307.401 88.088,306.981 88.232,306.507 C88.376,306.033 88.448,305.544 88.448,305.04 C88.448,304.536 88.373,304.047 88.223,303.573 C88.073,303.099 87.839,302.679 87.521,302.313 C87.203,301.947 86.792,301.65 86.288,301.422 C85.784,301.194 85.178,301.08 84.47,301.08 L84.47,301.08 L79.466,301.08 L79.466,301.404 C79.742,301.404 79.88,301.494 79.88,301.674 L79.88,301.674 L79.88,308.406 C79.88,308.586 79.742,308.676 79.466,308.676 L79.466,308.676 L79.466,309 L84.542,309 Z M83.948,307.668 L81.608,307.668 L81.608,302.412 L83.948,302.412 C84.32,302.412 84.674,302.433 85.01,302.475 C85.346,302.517 85.64,302.625 85.892,302.799 C86.144,302.973 86.345,303.231 86.495,303.573 C86.645,303.915 86.72,304.386 86.72,304.986 C86.72,305.586 86.645,306.063 86.495,306.417 C86.345,306.771 86.144,307.041 85.892,307.227 C85.64,307.413 85.346,307.533 85.01,307.587 C84.674,307.641 84.32,307.668 83.948,307.668 L83.948,307.668 Z M100.436,309 L100.436,308.676 C100.22,308.676 100.112,308.586 100.112,308.406 L100.112,308.406 L100.112,302.412 L102.452,302.412 C102.548,302.412 102.638,302.436 102.722,302.484 C102.806,302.532 102.848,302.61 102.848,302.718 L102.848,302.718 L103.172,302.718 L103.172,300.648 L102.848,300.648 C102.848,300.816 102.806,300.93 102.722,300.99 C102.638,301.05 102.548,301.08 102.452,301.08 L102.452,301.08 L96.044,301.08 C95.948,301.08 95.858,301.05 95.774,300.99 C95.69,300.93 95.648,300.816 95.648,300.648 L95.648,300.648 L95.324,300.648 L95.324,302.718 L95.648,302.718 C95.648,302.61 95.69,302.532 95.774,302.484 C95.858,302.436 95.948,302.412 96.044,302.412 L96.044,302.412 L98.384,302.412 L98.384,308.406 C98.384,308.502 98.354,308.571 98.294,308.613 C98.234,308.655 98.174,308.676 98.114,308.676 L98.114,308.676 L98.114,309 L100.436,309 Z M107.6,309 L107.6,308.676 C107.528,308.676 107.465,308.655 107.411,308.613 C107.357,308.571 107.33,308.502 107.33,308.406 L107.33,308.406 L107.33,305.688 L112.154,305.688 L112.154,308.406 C112.154,308.502 112.127,308.571 112.073,308.613 C112.019,308.655 111.956,308.676 111.884,308.676 L111.884,308.676 L111.884,309 L114.152,309 L114.152,308.676 C114.08,308.676 114.017,308.655 113.963,308.613 C113.909,308.571 113.882,308.502 113.882,308.406 L113.882,308.406 L113.882,301.674 C113.882,301.578 113.909,301.509 113.963,301.467 C114.017,301.425 114.08,301.404 114.152,301.404 L114.152,301.404 L114.152,301.08 L111.884,301.08 L111.884,301.404 C111.956,301.404 112.019,301.425 112.073,301.467 C112.127,301.509 112.154,301.578 112.154,301.674 L112.154,301.674 L112.154,304.212 L107.33,304.212 L107.33,301.674 C107.33,301.578 107.357,301.509 107.411,301.467 C107.465,301.425 107.528,301.404 107.6,301.404 L107.6,301.404 L107.6,301.08 L105.332,301.08 L105.332,301.404 C105.404,301.404 105.467,301.425 105.521,301.467 C105.575,301.509 105.602,301.578 105.602,301.674 L105.602,301.674 L105.602,308.406 C105.602,308.502 105.575,308.571 105.521,308.613 C105.467,308.655 105.404,308.676 105.332,308.676 L105.332,308.676 L105.332,309 L107.6,309 Z M120.11,309 L120.11,308.676 C119.774,308.676 119.606,308.586 119.606,308.406 L119.606,308.406 L119.606,301.674 C119.606,301.494 119.774,301.404 120.11,301.404 L120.11,301.404 L120.11,301.08 L117.374,301.08 L117.374,301.404 C117.566,301.404 117.698,301.425 117.77,301.467 C117.842,301.509 117.878,301.578 117.878,301.674 L117.878,301.674 L117.878,308.406 C117.878,308.502 117.842,308.571 117.77,308.613 C117.698,308.655 117.566,308.676 117.374,308.676 L117.374,308.676 L117.374,309 L120.11,309 Z M126.608,309.054 C127.016,309.054 127.451,309.024 127.913,308.964 C128.375,308.904 128.798,308.778 129.182,308.586 C129.566,308.394 129.887,308.13 130.145,307.794 C130.403,307.458 130.532,307.026 130.532,306.498 C130.532,305.97 130.385,305.556 130.091,305.256 C129.797,304.956 129.428,304.728 128.984,304.572 C128.54,304.416 128.06,304.305 127.544,304.239 C127.028,304.173 126.548,304.107 126.104,304.041 C125.66,303.975 125.291,303.885 124.997,303.771 C124.703,303.657 124.556,303.468 124.556,303.204 C124.556,303.036 124.604,302.895 124.7,302.781 C124.796,302.667 124.928,302.574 125.096,302.502 C125.264,302.43 125.456,302.379 125.672,302.349 C125.888,302.319 126.116,302.304 126.356,302.304 C126.98,302.304 127.544,302.376 128.048,302.52 C128.552,302.664 128.924,302.838 129.164,303.042 C129.26,303.114 129.314,303.186 129.326,303.258 C129.338,303.33 129.35,303.402 129.362,303.474 L129.362,303.474 L129.686,303.582 L130.586,301.89 L130.388,301.692 C130.316,301.728 130.256,301.761 130.208,301.791 C130.16,301.821 130.088,301.836 129.992,301.836 C129.908,301.836 129.779,301.791 129.605,301.701 C129.431,301.611 129.206,301.512 128.93,301.404 C128.654,301.296 128.315,301.197 127.913,301.107 C127.511,301.017 127.028,300.972 126.464,300.972 C125.312,300.972 124.418,301.2 123.782,301.656 C123.146,302.112 122.828,302.724 122.828,303.492 C122.828,304.008 122.975,304.407 123.269,304.689 C123.563,304.971 123.932,305.187 124.376,305.337 C124.82,305.487 125.3,305.595 125.816,305.661 C126.332,305.727 126.812,305.793 127.256,305.859 C127.7,305.925 128.069,306.018 128.363,306.138 C128.657,306.258 128.804,306.45 128.804,306.714 C128.804,306.942 128.72,307.125 128.552,307.263 C128.384,307.401 128.18,307.509 127.94,307.587 C127.7,307.665 127.457,307.716 127.211,307.74 C126.965,307.764 126.758,307.776 126.59,307.776 C126.41,307.776 126.161,307.746 125.843,307.686 C125.525,307.626 125.207,307.545 124.889,307.443 C124.571,307.341 124.298,307.215 124.07,307.065 C123.842,306.915 123.728,306.75 123.728,306.57 C123.728,306.51 123.731,306.453 123.737,306.399 C123.743,306.345 123.746,306.294 123.746,306.246 L123.746,306.246 L123.404,306.156 L122.576,308.172 L122.828,308.352 C122.888,308.28 122.96,308.244 123.044,308.244 C123.092,308.244 123.23,308.289 123.458,308.379 C123.686,308.469 123.965,308.565 124.295,308.667 C124.625,308.769 124.991,308.859 125.393,308.937 C125.795,309.015 126.2,309.054 126.608,309.054 Z M142.934,309 L142.934,308.676 C142.718,308.676 142.61,308.586 142.61,308.406 L142.61,308.406 L142.61,302.412 L144.95,302.412 C145.046,302.412 145.136,302.436 145.22,302.484 C145.304,302.532 145.346,302.61 145.346,302.718 L145.346,302.718 L145.67,302.718 L145.67,300.648 L145.346,300.648 C145.346,300.816 145.304,300.93 145.22,300.99 C145.136,301.05 145.046,301.08 144.95,301.08 L144.95,301.08 L138.542,301.08 C138.446,301.08 138.356,301.05 138.272,300.99 C138.188,300.93 138.146,300.816 138.146,300.648 L138.146,300.648 L137.822,300.648 L137.822,302.718 L138.146,302.718 C138.146,302.61 138.188,302.532 138.272,302.484 C138.356,302.436 138.446,302.412 138.542,302.412 L138.542,302.412 L140.882,302.412 L140.882,308.406 C140.882,308.502 140.852,308.571 140.792,308.613 C140.732,308.655 140.672,308.676 140.612,308.676 L140.612,308.676 L140.612,309 L142.934,309 Z M151.736,309.054 C152.396,309.054 153.017,308.979 153.599,308.829 C154.181,308.679 154.688,308.436 155.12,308.1 C155.552,307.764 155.894,307.341 156.146,306.831 C156.398,306.321 156.524,305.724 156.524,305.04 C156.524,304.356 156.398,303.759 156.146,303.249 C155.894,302.739 155.552,302.316 155.12,301.98 C154.688,301.644 154.181,301.392 153.599,301.224 C153.017,301.056 152.396,300.972 151.736,300.972 C151.076,300.972 150.455,301.056 149.873,301.224 C149.291,301.392 148.784,301.644 148.352,301.98 C147.92,302.316 147.578,302.739 147.326,303.249 C147.074,303.759 146.948,304.356 146.948,305.04 C146.948,305.724 147.074,306.321 147.326,306.831 C147.578,307.341 147.92,307.764 148.352,308.1 C148.784,308.436 149.291,308.679 149.873,308.829 C150.455,308.979 151.076,309.054 151.736,309.054 Z M151.736,307.776 C151.352,307.776 150.977,307.713 150.611,307.587 C150.245,307.461 149.918,307.281 149.63,307.047 C149.342,306.813 149.111,306.528 148.937,306.192 C148.763,305.856 148.676,305.472 148.676,305.04 C148.676,304.608 148.763,304.224 148.937,303.888 C149.111,303.552 149.342,303.267 149.63,303.033 C149.918,302.799 150.245,302.619 150.611,302.493 C150.977,302.367 151.352,302.304 151.736,302.304 C152.12,302.304 152.495,302.367 152.861,302.493 C153.227,302.619 153.554,302.799 153.842,303.033 C154.13,303.267 154.361,303.552 154.535,303.888 C154.709,304.224 154.796,304.608 154.796,305.04 C154.796,305.472 154.709,305.856 154.535,306.192 C154.361,306.528 154.13,306.813 153.842,307.047 C153.554,307.281 153.227,307.461 152.861,307.587 C152.495,307.713 152.12,307.776 151.736,307.776 Z M168.944,309 L168.944,308.676 C168.716,308.676 168.602,308.586 168.602,308.406 L168.602,308.406 L168.602,305.706 L171.356,302.142 C171.488,301.974 171.641,301.809 171.815,301.647 C171.989,301.485 172.148,301.404 172.292,301.404 L172.292,301.404 L172.292,301.08 L169.538,301.08 L169.538,301.404 C169.598,301.404 169.658,301.416 169.718,301.44 C169.778,301.464 169.808,301.524 169.808,301.62 C169.808,301.692 169.781,301.767 169.727,301.845 C169.673,301.923 169.592,302.04 169.484,302.196 L169.484,302.196 L167.882,304.428 L166.064,302.052 C166.004,301.968 165.95,301.896 165.902,301.836 C165.854,301.776 165.83,301.71 165.83,301.638 C165.83,301.566 165.866,301.509 165.938,301.467 C166.01,301.425 166.076,301.404 166.136,301.404 L166.136,301.404 L166.136,301.08 L163.166,301.08 L163.166,301.404 C163.274,301.404 163.388,301.428 163.508,301.476 C163.628,301.524 163.73,301.602 163.814,301.71 L163.814,301.71 L166.874,305.634 L166.874,308.406 C166.874,308.586 166.766,308.676 166.55,308.676 L166.55,308.676 L166.55,309 L168.944,309 Z M178.232,309.054 C178.892,309.054 179.513,308.979 180.095,308.829 C180.677,308.679 181.184,308.436 181.616,308.1 C182.048,307.764 182.39,307.341 182.642,306.831 C182.894,306.321 183.02,305.724 183.02,305.04 C183.02,304.356 182.894,303.759 182.642,303.249 C182.39,302.739 182.048,302.316 181.616,301.98 C181.184,301.644 180.677,301.392 180.095,301.224 C179.513,301.056 178.892,300.972 178.232,300.972 C177.572,300.972 176.951,301.056 176.369,301.224 C175.787,301.392 175.28,301.644 174.848,301.98 C174.416,302.316 174.074,302.739 173.822,303.249 C173.57,303.759 173.444,304.356 173.444,305.04 C173.444,305.724 173.57,306.321 173.822,306.831 C174.074,307.341 174.416,307.764 174.848,308.1 C175.28,308.436 175.787,308.679 176.369,308.829 C176.951,308.979 177.572,309.054 178.232,309.054 Z M178.232,307.776 C177.848,307.776 177.473,307.713 177.107,307.587 C176.741,307.461 176.414,307.281 176.126,307.047 C175.838,306.813 175.607,306.528 175.433,306.192 C175.259,305.856 175.172,305.472 175.172,305.04 C175.172,304.608 175.259,304.224 175.433,303.888 C175.607,303.552 175.838,303.267 176.126,303.033 C176.414,302.799 176.741,302.619 177.107,302.493 C177.473,302.367 177.848,302.304 178.232,302.304 C178.616,302.304 178.991,302.367 179.357,302.493 C179.723,302.619 180.05,302.799 180.338,303.033 C180.626,303.267 180.857,303.552 181.031,303.888 C181.205,304.224 181.292,304.608 181.292,305.04 C181.292,305.472 181.205,305.856 181.031,306.192 C180.857,306.528 180.626,306.813 180.338,307.047 C180.05,307.281 179.723,307.461 179.357,307.587 C178.991,307.713 178.616,307.776 178.232,307.776 Z M189.806,309.054 C190.526,309.054 191.153,308.979 191.687,308.829 C192.221,308.679 192.659,308.472 193.001,308.208 C193.343,307.944 193.598,307.641 193.766,307.299 C193.934,306.957 194.018,306.6 194.018,306.228 L194.018,306.228 L194.018,301.674 C194.018,301.494 194.15,301.404 194.414,301.404 L194.414,301.404 L194.414,301.08 L191.912,301.08 L191.912,301.404 C192.212,301.404 192.362,301.494 192.362,301.674 L192.362,301.674 L192.362,305.796 C192.362,306.372 192.152,306.834 191.732,307.182 C191.312,307.53 190.67,307.704 189.806,307.704 C188.942,307.704 188.3,307.53 187.88,307.182 C187.46,306.834 187.25,306.372 187.25,305.796 L187.25,305.796 L187.25,301.674 C187.25,301.494 187.382,301.404 187.646,301.404 L187.646,301.404 L187.646,301.08 L185.072,301.08 L185.072,301.404 C185.276,301.404 185.414,301.425 185.486,301.467 C185.558,301.509 185.594,301.578 185.594,301.674 L185.594,301.674 L185.594,306.228 C185.594,306.6 185.678,306.957 185.846,307.299 C186.014,307.641 186.269,307.944 186.611,308.208 C186.953,308.472 187.391,308.679 187.925,308.829 C188.459,308.979 189.086,309.054 189.806,309.054 Z M199.544,309 L199.544,308.676 C199.472,308.676 199.397,308.655 199.319,308.613 C199.241,308.571 199.202,308.502 199.202,308.406 L199.202,308.406 L199.202,305.832 L201.704,305.832 L203.126,307.956 C203.306,308.208 203.396,308.394 203.396,308.514 C203.396,308.622 203.318,308.676 203.162,308.676 L203.162,308.676 L203.162,309 L205.916,309 L205.916,308.676 C205.784,308.64 205.661,308.589 205.547,308.523 C205.433,308.457 205.328,308.358 205.232,308.226 L205.232,308.226 L203.468,305.652 C203.72,305.592 203.966,305.505 204.206,305.391 C204.446,305.277 204.665,305.127 204.863,304.941 C205.061,304.755 205.22,304.536 205.34,304.284 C205.46,304.032 205.52,303.744 205.52,303.42 C205.52,302.568 205.22,301.965 204.62,301.611 C204.02,301.257 203.186,301.08 202.118,301.08 L202.118,301.08 L197.15,301.08 L197.15,301.404 C197.366,301.404 197.474,301.494 197.474,301.674 L197.474,301.674 L197.474,308.406 C197.474,308.586 197.366,308.676 197.15,308.676 L197.15,308.676 L197.15,309 L199.544,309 Z M202.082,304.5 L199.238,304.5 L199.238,302.412 L202.082,302.412 C202.694,302.412 203.141,302.499 203.423,302.673 C203.705,302.847 203.846,303.084 203.846,303.384 C203.846,304.128 203.258,304.5 202.082,304.5 L202.082,304.5 Z M74.354,327.054 C74.762,327.054 75.197,327.024 75.659,326.964 C76.121,326.904 76.544,326.778 76.928,326.586 C77.312,326.394 77.633,326.13 77.891,325.794 C78.149,325.458 78.278,325.026 78.278,324.498 C78.278,323.97 78.131,323.556 77.837,323.256 C77.543,322.956 77.174,322.728 76.73,322.572 C76.286,322.416 75.806,322.305 75.29,322.239 C74.774,322.173 74.294,322.107 73.85,322.041 C73.406,321.975 73.037,321.885 72.743,321.771 C72.449,321.657 72.302,321.468 72.302,321.204 C72.302,321.036 72.35,320.895 72.446,320.781 C72.542,320.667 72.674,320.574 72.842,320.502 C73.01,320.43 73.202,320.379 73.418,320.349 C73.634,320.319 73.862,320.304 74.102,320.304 C74.726,320.304 75.29,320.376 75.794,320.52 C76.298,320.664 76.67,320.838 76.91,321.042 C77.006,321.114 77.06,321.186 77.072,321.258 L77.072,321.258 L77.108,321.474 L77.432,321.582 L78.332,319.89 L78.134,319.692 C78.062,319.728 78.002,319.761 77.954,319.791 C77.906,319.821 77.834,319.836 77.738,319.836 C77.654,319.836 77.525,319.791 77.351,319.701 C77.177,319.611 76.952,319.512 76.676,319.404 C76.4,319.296 76.061,319.197 75.659,319.107 C75.257,319.017 74.774,318.972 74.21,318.972 C73.058,318.972 72.164,319.2 71.528,319.656 C70.892,320.112 70.574,320.724 70.574,321.492 C70.574,322.008 70.721,322.407 71.015,322.689 C71.309,322.971 71.678,323.187 72.122,323.337 C72.566,323.487 73.046,323.595 73.562,323.661 C74.078,323.727 74.558,323.793 75.002,323.859 C75.446,323.925 75.815,324.018 76.109,324.138 C76.403,324.258 76.55,324.45 76.55,324.714 C76.55,324.942 76.466,325.125 76.298,325.263 C76.13,325.401 75.926,325.509 75.686,325.587 C75.446,325.665 75.203,325.716 74.957,325.74 C74.711,325.764 74.504,325.776 74.336,325.776 C74.156,325.776 73.907,325.746 73.589,325.686 C73.271,325.626 72.953,325.545 72.635,325.443 C72.317,325.341 72.044,325.215 71.816,325.065 C71.588,324.915 71.474,324.75 71.474,324.57 C71.474,324.51 71.477,324.453 71.483,324.399 C71.489,324.345 71.492,324.294 71.492,324.246 L71.492,324.246 L71.15,324.156 L70.322,326.172 L70.574,326.352 C70.634,326.28 70.706,326.244 70.79,326.244 C70.838,326.244 70.976,326.289 71.204,326.379 C71.432,326.469 71.711,326.565 72.041,326.667 C72.371,326.769 72.737,326.859 73.139,326.937 C73.541,327.015 73.946,327.054 74.354,327.054 Z M85.712,327 L85.712,326.676 C85.484,326.676 85.37,326.586 85.37,326.406 L85.37,326.406 L85.37,323.706 L88.124,320.142 C88.256,319.974 88.409,319.809 88.583,319.647 C88.757,319.485 88.916,319.404 89.06,319.404 L89.06,319.404 L89.06,319.08 L86.306,319.08 L86.306,319.404 C86.366,319.404 86.426,319.416 86.486,319.44 C86.546,319.464 86.576,319.524 86.576,319.62 C86.576,319.692 86.549,319.767 86.495,319.845 C86.441,319.923 86.36,320.04 86.252,320.196 L86.252,320.196 L84.65,322.428 L82.832,320.052 C82.772,319.968 82.718,319.896 82.67,319.836 C82.622,319.776 82.598,319.71 82.598,319.638 C82.598,319.566 82.634,319.509 82.706,319.467 C82.778,319.425 82.844,319.404 82.904,319.404 L82.904,319.404 L82.904,319.08 L79.934,319.08 L79.934,319.404 C80.042,319.404 80.156,319.428 80.276,319.476 C80.396,319.524 80.498,319.602 80.582,319.71 L80.582,319.71 L83.642,323.634 L83.642,326.406 C83.642,326.586 83.534,326.676 83.318,326.676 L83.318,326.676 L83.318,327 L85.712,327 Z M93.218,327 L93.218,326.676 C93.014,326.676 92.912,326.586 92.912,326.406 L92.912,326.406 L92.912,321.348 L92.93,321.348 L95.828,327 L95.972,327 L99.032,321.348 L99.068,321.348 L99.068,326.406 C99.104,326.586 98.996,326.676 98.744,326.676 L98.744,326.676 L98.744,327 L100.832,327 L100.832,326.676 C100.772,326.676 100.715,326.655 100.661,326.613 C100.607,326.571 100.58,326.502 100.58,326.406 L100.58,326.406 L100.58,319.638 C100.58,319.542 100.607,319.479 100.661,319.449 C100.715,319.419 100.772,319.404 100.832,319.404 L100.832,319.404 L100.832,319.08 L98.294,319.08 L98.294,319.404 C98.39,319.404 98.438,319.458 98.438,319.566 C98.438,319.602 98.414,319.665 98.366,319.755 C98.318,319.845 98.252,319.962 98.168,320.106 L98.168,320.106 L95.954,324.138 L93.758,320.088 C93.674,319.944 93.611,319.833 93.569,319.755 C93.527,319.677 93.506,319.614 93.506,319.566 C93.506,319.458 93.566,319.404 93.686,319.404 L93.686,319.404 L93.686,319.08 L91.184,319.08 L91.184,319.404 C91.268,319.404 91.325,319.422 91.355,319.458 C91.385,319.494 91.4,319.596 91.4,319.764 L91.4,319.764 L91.4,326.352 C91.4,326.484 91.379,326.568 91.337,326.604 C91.295,326.64 91.244,326.664 91.184,326.676 L91.184,326.676 L91.184,327 L93.218,327 Z M106.268,327 L106.268,326.676 C106.016,326.676 105.89,326.586 105.89,326.406 L105.89,326.406 L105.89,323.706 L108.95,323.706 C109.922,323.706 110.651,323.541 111.137,323.211 C111.623,322.881 111.866,322.284 111.866,321.42 C111.866,320.556 111.623,319.95 111.137,319.602 C110.651,319.254 109.922,319.08 108.95,319.08 L108.95,319.08 L103.712,319.08 L103.712,319.404 C104.012,319.404 104.162,319.494 104.162,319.674 L104.162,319.674 L104.162,326.406 C104.162,326.586 104.012,326.676 103.712,326.676 L103.712,326.676 L103.712,327 L106.268,327 Z M108.914,322.374 L105.89,322.374 L105.89,320.412 L108.914,320.412 C109.262,320.412 109.553,320.487 109.787,320.637 C110.021,320.787 110.138,321.048 110.138,321.42 C110.138,321.804 110.021,322.059 109.787,322.185 C109.553,322.311 109.262,322.374 108.914,322.374 L108.914,322.374 Z M118.202,327 L118.202,326.676 C117.986,326.676 117.878,326.586 117.878,326.406 L117.878,326.406 L117.878,320.412 L120.218,320.412 C120.314,320.412 120.404,320.436 120.488,320.484 C120.572,320.532 120.614,320.61 120.614,320.718 L120.614,320.718 L120.938,320.718 L120.938,318.648 L120.614,318.648 C120.614,318.816 120.572,318.93 120.488,318.99 C120.404,319.05 120.314,319.08 120.218,319.08 L120.218,319.08 L113.81,319.08 C113.714,319.08 113.624,319.05 113.54,318.99 C113.456,318.93 113.414,318.816 113.414,318.648 L113.414,318.648 L113.09,318.648 L113.09,320.718 L113.414,320.718 C113.414,320.61 113.456,320.532 113.54,320.484 C113.624,320.436 113.714,320.412 113.81,320.412 L113.81,320.412 L116.15,320.412 L116.15,326.406 C116.15,326.502 116.12,326.571 116.06,326.613 C116,326.655 115.94,326.676 115.88,326.676 L115.88,326.676 L115.88,327 L118.202,327 Z M127.004,327.054 C127.664,327.054 128.285,326.979 128.867,326.829 C129.449,326.679 129.956,326.436 130.388,326.1 C130.82,325.764 131.162,325.341 131.414,324.831 C131.666,324.321 131.792,323.724 131.792,323.04 C131.792,322.356 131.666,321.759 131.414,321.249 C131.162,320.739 130.82,320.316 130.388,319.98 C129.956,319.644 129.449,319.392 128.867,319.224 C128.285,319.056 127.664,318.972 127.004,318.972 C126.344,318.972 125.723,319.056 125.141,319.224 C124.559,319.392 124.052,319.644 123.62,319.98 C123.188,320.316 122.846,320.739 122.594,321.249 C122.342,321.759 122.216,322.356 122.216,323.04 C122.216,323.724 122.342,324.321 122.594,324.831 C122.846,325.341 123.188,325.764 123.62,326.1 C124.052,326.436 124.559,326.679 125.141,326.829 C125.723,326.979 126.344,327.054 127.004,327.054 Z M127.004,325.776 C126.62,325.776 126.245,325.713 125.879,325.587 C125.513,325.461 125.186,325.281 124.898,325.047 C124.61,324.813 124.379,324.528 124.205,324.192 C124.031,323.856 123.944,323.472 123.944,323.04 C123.944,322.608 124.031,322.224 124.205,321.888 C124.379,321.552 124.61,321.267 124.898,321.033 C125.186,320.799 125.513,320.619 125.879,320.493 C126.245,320.367 126.62,320.304 127.004,320.304 C127.388,320.304 127.763,320.367 128.129,320.493 C128.495,320.619 128.822,320.799 129.11,321.033 C129.398,321.267 129.629,321.552 129.803,321.888 C129.977,322.224 130.064,322.608 130.064,323.04 C130.064,323.472 129.977,323.856 129.803,324.192 C129.629,324.528 129.398,324.813 129.11,325.047 C128.822,325.281 128.495,325.461 128.129,325.587 C127.763,325.713 127.388,325.776 127.004,325.776 Z M136.22,327 L136.22,326.676 C136.016,326.676 135.914,326.586 135.914,326.406 L135.914,326.406 L135.914,321.348 L135.932,321.348 L138.83,327 L138.974,327 L142.034,321.348 L142.07,321.348 L142.07,326.406 C142.106,326.586 141.998,326.676 141.746,326.676 L141.746,326.676 L141.746,327 L143.834,327 L143.834,326.676 C143.774,326.676 143.717,326.655 143.663,326.613 C143.609,326.571 143.582,326.502 143.582,326.406 L143.582,326.406 L143.582,319.638 C143.582,319.542 143.609,319.479 143.663,319.449 C143.717,319.419 143.774,319.404 143.834,319.404 L143.834,319.404 L143.834,319.08 L141.296,319.08 L141.296,319.404 C141.392,319.404 141.44,319.458 141.44,319.566 C141.44,319.602 141.416,319.665 141.368,319.755 C141.32,319.845 141.254,319.962 141.17,320.106 L141.17,320.106 L138.956,324.138 L136.76,320.088 C136.676,319.944 136.613,319.833 136.571,319.755 C136.529,319.677 136.508,319.614 136.508,319.566 C136.508,319.458 136.568,319.404 136.688,319.404 L136.688,319.404 L136.688,319.08 L134.186,319.08 L134.186,319.404 C134.27,319.404 134.327,319.422 134.357,319.458 C134.387,319.494 134.402,319.596 134.402,319.764 L134.402,319.764 L134.402,326.352 C134.402,326.484 134.381,326.568 134.339,326.604 C134.297,326.64 134.246,326.664 134.186,326.676 L134.186,326.676 L134.186,327 L136.22,327 Z M154.76,327 L154.76,326.676 C154.508,326.676 154.382,326.586 154.382,326.406 L154.382,326.406 L154.382,323.706 L157.442,323.706 C158.414,323.706 159.143,323.541 159.629,323.211 C160.115,322.881 160.358,322.284 160.358,321.42 C160.358,320.556 160.115,319.95 159.629,319.602 C159.143,319.254 158.414,319.08 157.442,319.08 L157.442,319.08 L152.204,319.08 L152.204,319.404 C152.504,319.404 152.654,319.494 152.654,319.674 L152.654,319.674 L152.654,326.406 C152.654,326.586 152.504,326.676 152.204,326.676 L152.204,326.676 L152.204,327 L154.76,327 Z M157.406,322.374 L154.382,322.374 L154.382,320.412 L157.406,320.412 C157.754,320.412 158.045,320.487 158.279,320.637 C158.513,320.787 158.63,321.048 158.63,321.42 C158.63,321.804 158.513,322.059 158.279,322.185 C158.045,322.311 157.754,322.374 157.406,322.374 L157.406,322.374 Z M165.362,327 L165.362,326.676 C165.026,326.676 164.858,326.586 164.858,326.406 L164.858,326.406 L164.858,319.674 C164.858,319.494 165.026,319.404 165.362,319.404 L165.362,319.404 L165.362,319.08 L162.626,319.08 L162.626,319.404 C162.818,319.404 162.95,319.425 163.022,319.467 C163.094,319.509 163.13,319.578 163.13,319.674 L163.13,319.674 L163.13,326.406 C163.13,326.502 163.094,326.571 163.022,326.613 C162.95,326.655 162.818,326.676 162.626,326.676 L162.626,326.676 L162.626,327 L165.362,327 Z M176.252,327.18 L176.252,325.29 L175.928,325.29 C175.928,325.41 175.88,325.503 175.784,325.569 C175.688,325.635 175.568,325.668 175.424,325.668 L175.424,325.668 L170.564,325.668 L170.564,319.674 C170.564,319.494 170.702,319.404 170.978,319.404 L170.978,319.404 L170.978,319.08 L168.368,319.08 L168.368,319.404 C168.68,319.404 168.836,319.494 168.836,319.674 L168.836,319.674 L168.836,326.406 C168.836,326.586 168.68,326.676 168.368,326.676 L168.368,326.676 L168.368,327 L175.424,327 C175.568,327 175.688,327.006 175.784,327.018 C175.88,327.03 175.928,327.084 175.928,327.18 L175.928,327.18 L176.252,327.18 Z M185.918,327.198 L185.918,325.308 L185.594,325.308 C185.594,325.416 185.546,325.503 185.45,325.569 C185.354,325.635 185.234,325.668 185.09,325.668 L185.09,325.668 L180.482,325.668 L180.482,323.544 L183.11,323.544 C183.35,323.544 183.536,323.559 183.668,323.589 C183.8,323.619 183.848,323.7 183.812,323.832 L183.812,323.832 L184.172,323.832 L184.172,321.924 L183.848,321.924 C183.848,322.056 183.8,322.137 183.704,322.167 C183.608,322.197 183.458,322.212 183.254,322.212 L183.254,322.212 L180.482,322.212 L180.482,320.412 L184.874,320.412 C185.246,320.412 185.432,320.526 185.432,320.754 L185.432,320.754 L185.756,320.754 L185.756,318.756 L185.432,318.756 C185.432,318.972 185.246,319.08 184.874,319.08 L184.874,319.08 L178.484,319.08 L178.484,319.404 C178.544,319.404 178.604,319.425 178.664,319.467 C178.724,319.509 178.754,319.578 178.754,319.674 L178.754,319.674 L178.754,326.406 C178.754,326.502 178.724,326.571 178.664,326.613 C178.604,326.655 178.544,326.676 178.484,326.676 L178.484,326.676 L178.484,327 L185.09,327 C185.234,327 185.354,327.006 185.45,327.018 C185.546,327.03 185.594,327.09 185.594,327.198 L185.594,327.198 L185.918,327.198 Z M189.752,327.054 C190.1,327.054 190.4,326.937 190.652,326.703 C190.904,326.469 191.03,326.178 191.03,325.83 C191.03,325.482 190.904,325.182 190.652,324.93 C190.4,324.678 190.1,324.552 189.752,324.552 C189.404,324.552 189.104,324.678 188.852,324.93 C188.6,325.182 188.474,325.482 188.474,325.83 C188.474,326.178 188.6,326.469 188.852,326.703 C189.104,326.937 189.404,327.054 189.752,327.054 Z" id="Thedreadedbuttvolcano.Addthistoyoursymptompile." fill="#000000" fill-rule="nonzero"></path>
    </g>
</svg>