<?xml version="1.0" encoding="UTF-8"?>
<svg width="262px" height="360px" viewBox="0 0 262 360" version="1.1" xmlns="http://www.w3.org/2000/svg" xmlns:xlink="http://www.w3.org/1999/xlink">
    <title>Base Back</title>
    <g id="Base-Back" stroke="none" stroke-width="1" fill="none" fill-rule="evenodd">
        <g id="Group" transform="translate(10.000000, 10.000000)" fill="#9C40EC" stroke="#000000" stroke-width="3">
            <g id="Rectangle">
                <rect x="1.5" y="1.5" width="239" height="337" rx="8"></rect>
            </g>
        </g>
        <g id="Virus" transform="translate(19.000000, 70.000000)" fill="#000000">
            <ellipse id="Oval" cx="110.762082" cy="111.356589" rx="94.3461538" ry="94.2248062"></ellipse>
            <path d="M104.400544,0 L118.839005,0 C119.115147,8.7481711e-16 119.339005,0.223857625 119.339005,0.5 L119.339005,1.71317829 C119.339005,2.76303689 118.745561,3.72269682 117.806298,4.19172457 L115.908236,5.13953488 L115.908236,5.13953488 L115.908236,14.1748329 C115.908236,14.9711514 116.224837,15.7347982 116.788281,16.2975179 L119.339005,18.8449612 L119.339005,18.8449612 L103.900544,18.8449612 L106.451268,16.2975179 C107.014712,15.7347982 107.331313,14.9711514 107.331313,14.1748329 L107.331313,5.13953488 L107.331313,5.13953488 L105.433251,4.19172457 C104.493987,3.72269682 103.900544,2.76303689 103.900544,1.71317829 L103.900544,0.5 C103.900544,0.223857625 104.124401,-4.7846199e-18 104.400544,0 Z" id="Rectangle"></path>
            <path d="M128.624559,2.9385984 L143.061859,2.93423922 C143.338001,2.93385382 143.561926,3.15764385 143.562009,3.43378621 C143.562009,3.43388691 143.562009,3.43398761 143.561707,3.43408823 L143.561341,4.64739567 C143.561023,5.69742876 142.967491,6.65716636 142.028185,7.12649893 L140.129794,8.07504632 L140.129794,8.07504632 L140.127063,17.1107199 C140.126822,17.9072745 140.443379,18.6712235 141.006948,19.2341524 L143.556162,21.7804699 L143.556162,21.7804699 L128.118862,21.785131 L130.6709,19.2359908 C131.234024,18.6735061 131.550544,17.9102984 131.550785,17.1143727 L131.553516,8.07763583 L131.553516,8.07763583 L129.656439,7.13060422 C128.717114,6.66168809 128.123724,5.70192022 128.124041,4.65205679 L128.124408,3.43874935 C128.124794,3.16272505 128.348535,2.93898395 128.624559,2.9385984 Z" id="Rectangle" transform="translate(135.840360, 12.359610) rotate(14.000000) translate(-135.840360, -12.359610) "></path>
            <path d="M151.440788,11.5789954 L165.874873,11.5712977 C166.151015,11.5711504 166.374992,11.7948886 166.37514,12.0710309 C166.37514,12.0712088 166.37514,12.0713866 166.37514,12.0715644 L166.374492,13.2846953 C166.373932,14.3350414 165.780297,15.2950241 164.840854,15.7647834 L162.942866,16.7138536 L162.942866,16.7138536 L162.938043,25.7516296 C162.937618,26.5482081 163.254017,27.3122514 163.817486,27.8753146 L166.365347,30.421341 L166.365347,30.421341 L150.931261,30.4295721 L153.484108,27.8785612 C154.046791,27.3162824 154.363126,26.5535476 154.36355,25.7580791 L154.368375,16.7184264 L154.368375,16.7184264 L152.472707,15.7720329 C151.533231,15.303009 150.939847,14.3429728 150.940407,13.2929263 L150.941055,12.0787285 C150.941202,11.8027945 151.164854,11.5791426 151.440788,11.5789954 Z" id="Rectangle" transform="translate(158.653334, 21.000301) rotate(28.000000) translate(-158.653334, -21.000301) "></path>
            <path d="M171.523497,25.419094 L185.953068,25.4098599 C186.22921,25.4096832 186.453211,25.6333975 186.453387,25.9095398 C186.453388,25.9097532 186.453388,25.9099665 186.453387,25.9101798 L186.452611,27.1237057 C186.451938,28.17443 185.858211,29.1347679 184.91857,29.6049763 L183.021623,30.5542322 L183.021623,30.5542322 L183.015836,39.5953454 C183.015327,40.39173 183.331491,41.1556374 183.894658,41.7187286 L186.44164,44.2653671 L186.44164,44.2653671 L171.012069,44.2752412 L173.565029,41.7226236 C174.127255,41.1604733 174.443342,40.3981346 174.443851,39.6030807 L174.449639,30.5597178 L174.449639,30.5597178 L172.555475,29.6136728 C171.615795,29.1443467 171.022368,28.1839448 171.02304,27.1335797 L171.023817,25.9187739 C171.023994,25.6428815 171.247605,25.4192706 171.523497,25.419094 Z" id="Rectangle" transform="translate(178.732888, 34.842390) rotate(42.000000) translate(-178.732888, -34.842390) "></path>
            <path d="M187.704601,43.6551642 L202.129737,43.6464393 C202.40588,43.6462723 202.629873,43.8699945 202.63004,44.1461368 C202.63004,44.1463384 202.63004,44.14654 202.63004,44.1467415 L202.629306,45.3607953 C202.62867,46.4118519 202.034885,47.3725457 201.095045,47.843099 L199.199424,48.7921861 L199.199424,48.7921861 L199.193956,57.8368227 C199.193475,58.6328716 199.5094,59.3964739 200.072168,59.9594895 L202.618939,62.5073829 L202.618939,62.5073829 L187.193802,62.5167126 L189.746221,59.96317 C190.308101,59.4010434 190.623953,58.6389223 190.624434,57.8441301 L190.629903,48.7973692 L190.629903,48.7973692 L188.736913,47.851316 C187.797035,47.3815965 187.203533,46.4208422 187.204168,45.370125 L187.204903,44.1548618 C187.20507,43.8789556 187.428694,43.6553311 187.704601,43.6551642 Z" id="Rectangle" transform="translate(194.912072, 53.081425) rotate(55.000000) translate(-194.912072, -53.081425) "></path>
            <path d="M199.044093,65.227467 L213.465248,65.2212544 C213.74139,65.220705 213.965344,65.4444662 213.965463,65.7206085 C213.965463,65.7207521 213.965463,65.7208956 213.965033,65.721039 L213.96451,66.9361403 C213.964057,67.9874555 213.370254,68.9484761 212.43023,69.4192412 L210.53611,70.3678191 L210.53611,70.3678191 L210.532216,79.4158705 C210.531873,80.21147 210.847576,80.974624 211.409881,81.5374669 L213.957128,84.0871529 L213.957128,84.0871529 L198.535973,84.0937963 L201.087241,81.5400879 C201.648914,80.9778779 201.964565,80.2157781 201.964907,79.421073 L201.968802,70.3715099 L201.968802,70.3715099 L200.076555,69.4250923 C199.136504,68.954921 198.542902,67.9938573 198.543355,66.9427837 L198.543878,65.7276824 C198.544427,65.4517084 198.768119,65.2280167 199.044093,65.227467 Z" id="Rectangle" transform="translate(206.250610, 74.657418) rotate(69.000000) translate(-206.250610, -74.657418) "></path>
            <path d="M204.881567,88.8831393 L219.300466,88.8808931 C219.576609,88.8806945 219.800501,89.1045172 219.800544,89.3806596 C219.800544,89.3807115 219.800544,89.3807634 219.800388,89.3808152 L219.800199,90.5961671 C219.800036,91.6475794 219.206263,92.6087939 218.26613,93.0795574 L216.373243,94.0274046 L216.373243,94.0274046 L216.371835,103.077699 C216.371712,103.872861 216.687277,104.635545 217.249191,105.198161 L219.797531,107.749686 L219.797531,107.749686 L204.378631,107.752087 L206.928424,105.199109 C207.490109,104.636722 207.805656,103.874418 207.80578,103.07958 L207.807188,94.0287389 L207.807188,94.0287389 L205.914978,93.0816729 C204.974836,92.611124 204.381136,91.649894 204.3813,90.598569 L204.381489,89.3832172 C204.381687,89.1071356 204.605485,88.883338 204.881567,88.8831393 Z" id="Rectangle" transform="translate(212.089549, 98.316451) rotate(83.000000) translate(-212.089549, -98.316451) "></path>
            <path d="M204.878631,113.24799 L219.297531,113.250237 C219.573612,113.250435 219.79741,113.474233 219.797608,113.750314 L219.797797,114.965666 C219.797961,116.016991 219.204261,116.978221 218.264119,117.44877 L216.371909,118.395836 L216.371909,118.395836 L216.373317,127.446677 C216.373441,128.241516 216.688988,129.003819 217.250673,129.566206 L219.800466,132.119185 L219.800466,132.119185 L204.381567,132.116783 L206.929906,129.565258 C207.49182,129.002643 207.807385,128.239958 207.807262,127.444796 L207.805854,118.394502 L207.805854,118.394502 L205.912967,117.446655 C204.972834,116.975891 204.379061,116.014677 204.378898,114.963264 L204.378709,113.747913 C204.37851,113.47177 204.602333,113.247878 204.878475,113.247835 C204.878527,113.247835 204.878579,113.247835 204.878631,113.24799 Z" id="Rectangle" transform="translate(212.089549, 122.683549) rotate(97.000000) translate(-212.089549, -122.683549) "></path>
            <path d="M199.035973,136.906419 L213.457128,136.912632 C213.733102,136.913181 213.956794,137.136873 213.957343,137.412847 L213.957866,138.627948 C213.958319,139.679022 213.364717,140.640086 212.424666,141.110257 L210.532419,142.056675 L210.532419,142.056675 L210.536314,151.106238 C210.536656,151.900943 210.852307,152.663043 211.41398,153.225253 L213.965248,155.778961 L213.965248,155.778961 L198.544093,155.772318 L201.09134,153.222632 C201.653645,152.659789 201.969348,151.896635 201.969005,151.101035 L201.965111,142.052984 L201.965111,142.052984 L200.070991,141.104406 C199.130967,140.633641 198.537164,139.67262 198.536711,138.621305 L198.536188,137.406204 C198.535639,137.130061 198.7594,136.906108 199.035543,136.905989 C199.035686,136.905989 199.03583,136.905989 199.035973,136.906419 Z" id="Rectangle" transform="translate(206.250610, 146.342582) rotate(111.000000) translate(-206.250610, -146.342582) "></path>
            <path d="M187.694407,158.48359 L202.119544,158.492315 C202.39545,158.492482 202.619074,158.716106 202.619241,158.992013 L202.619976,160.207276 C202.620611,161.257993 202.02711,162.218747 201.087232,162.688467 L199.194241,163.63452 L199.194241,163.63452 L199.19971,172.681281 C199.200191,173.476073 199.516043,174.238194 200.077923,174.800321 L202.630342,177.353863 L202.630342,177.353863 L187.205205,177.344534 L189.751976,174.79664 C190.314744,174.233625 190.63067,173.470022 190.630188,172.673974 L190.62472,163.629337 L190.62472,163.629337 L188.7291,162.68025 C187.789259,162.209697 187.195474,161.249003 187.194839,160.197946 L187.194105,158.983892 C187.193938,158.70775 187.41766,158.483757 187.693802,158.48359 C187.694004,158.48359 187.694205,158.48359 187.694407,158.48359 Z" id="Rectangle" transform="translate(194.912072, 167.918575) rotate(125.000000) translate(-194.912072, -167.918575) "></path>
            <path d="M171.512709,176.725079 L185.942279,176.734313 C186.218172,176.73449 186.441783,176.958101 186.441959,177.233993 L186.442737,178.448799 C186.443409,179.499164 185.849982,180.459566 184.910301,180.928892 L183.016137,181.874937 L183.016137,181.874937 L183.021925,190.9183 C183.022434,191.713354 183.338521,192.475693 183.900747,193.037843 L186.453708,195.59046 L186.453708,195.59046 L171.024137,195.580586 L173.571118,193.033948 C174.134285,192.470857 174.45045,191.706949 174.44994,190.910565 L174.444154,181.869452 L174.444154,181.869452 L172.547207,180.920196 C171.607565,180.449987 171.013838,179.489649 171.013166,178.438925 L171.012389,177.225399 C171.012212,176.949257 171.235927,176.725256 171.512069,176.725079 C171.512282,176.725079 171.512496,176.725079 171.512709,176.725079 Z" id="Rectangle" transform="translate(178.732888, 186.157610) rotate(138.000000) translate(-178.732888, -186.157610) "></path>
            <path d="M151.431795,190.570695 L165.86588,190.578393 C166.141814,190.57854 166.365466,190.802192 166.365613,191.078126 L166.366261,192.292324 C166.366821,193.34237 165.773437,194.302406 164.833961,194.77143 L162.938294,195.717824 L162.938294,195.717824 L162.943118,204.757476 C162.943542,205.552945 163.259877,206.31568 163.82256,206.877958 L166.375407,209.428969 L166.375407,209.428969 L150.941322,209.420738 L153.489182,206.874712 C154.052651,206.311649 154.36905,205.547605 154.368625,204.751027 L154.363802,195.713251 L154.363802,195.713251 L152.465814,194.764181 C151.526371,194.294421 150.932737,193.334439 150.932176,192.284092 L150.931529,191.070962 C150.931381,190.794819 151.155119,190.570842 151.431262,190.570695 C151.43144,190.570695 151.431617,190.570695 151.431795,190.570695 Z" id="Rectangle" transform="translate(158.653334, 199.999699) rotate(152.000000) translate(-158.653334, -199.999699) "></path>
            <path d="M128.618862,199.21502 L143.056162,199.219379 C143.332186,199.219765 143.555927,199.443506 143.556313,199.71953 L143.55668,200.932838 C143.556997,201.982701 142.963607,202.942469 142.024282,203.411385 L140.127204,204.358417 L140.127204,204.358417 L140.129936,213.395153 C140.130177,214.191079 140.446697,214.954287 141.009821,215.516772 L143.561859,218.065912 L143.561859,218.065912 L128.124559,218.061251 L130.673773,215.514933 C131.237342,214.952004 131.553899,214.188055 131.553658,213.391501 L131.550927,204.355827 L131.550927,204.355827 L129.652536,203.40728 C128.71323,202.937947 128.119698,201.978209 128.11938,200.928176 L128.119013,199.714869 C128.118628,199.438727 128.342418,199.214801 128.61856,199.214718 C128.618661,199.214718 128.618762,199.214718 128.618862,199.21502 Z" id="Rectangle" transform="translate(135.840360, 208.640390) rotate(166.000000) translate(-135.840360, -208.640390) "></path>
            <path d="M104.400544,202.155039 L118.839005,202.155039 C119.115147,202.155039 119.339005,202.378896 119.339005,202.655039 L119.339005,203.868217 C119.339005,204.918076 118.745561,205.877736 117.806298,206.346763 L115.908236,207.294574 L115.908236,207.294574 L115.908236,216.329872 C115.908236,217.12619 116.224837,217.889837 116.788281,218.452557 L119.339005,221 L119.339005,221 L103.900544,221 L106.451268,218.452557 C107.014712,217.889837 107.331313,217.12619 107.331313,216.329872 L107.331313,207.294574 L107.331313,207.294574 L105.433251,206.346763 C104.493987,205.877736 103.900544,204.918076 103.900544,203.868217 L103.900544,202.655039 C103.900544,202.378896 104.124401,202.155039 104.400544,202.155039 Z" id="Rectangle" transform="translate(111.619774, 211.577519) rotate(180.000000) translate(-111.619774, -211.577519) "></path>
            <path d="M80.1833869,199.219379 L94.6206863,199.21502 C94.8968286,199.214635 95.1207538,199.438425 95.1208372,199.714567 C95.1208372,199.714668 95.1208372,199.714768 95.1205352,199.714869 L95.1201684,200.928176 C95.119851,201.978209 94.5263189,202.937947 93.5870125,203.40728 L91.6886216,204.355827 L91.6886216,204.355827 L91.6858903,213.391501 C91.6856495,214.188055 92.0022067,214.952004 92.5657759,215.514933 L95.1149894,218.061251 L95.1149894,218.061251 L79.67769,218.065912 L82.2297278,215.516772 C82.7928518,214.954287 83.109372,214.191079 83.1096126,213.395153 L83.1123442,204.358417 L83.1123442,204.358417 L81.2152668,203.411385 C80.275942,202.942469 79.6825517,201.982701 79.682869,200.932838 L79.6832358,199.71953 C79.6836214,199.443506 79.9073626,199.219765 80.1833869,199.219379 Z" id="Rectangle" transform="translate(87.399188, 208.640390) rotate(194.000000) translate(-87.399188, -208.640390) "></path>
            <path d="M57.3736688,190.578393 L71.8077534,190.570695 C72.0838957,190.570548 72.3078727,190.794286 72.3080199,191.070428 C72.30802,191.070606 72.30802,191.070784 72.3080199,191.070962 L72.3073725,192.284092 C72.306812,193.334439 71.7131773,194.294421 70.7737342,194.764181 L68.8757467,195.713251 L68.8757467,195.713251 L68.8709234,204.751027 C68.8704982,205.547605 69.1868976,206.311649 69.7503665,206.874712 L72.2982269,209.420738 L72.2982269,209.420738 L56.8641419,209.428969 L59.4169884,206.877958 C59.9796719,206.31568 60.2960062,205.552945 60.2964307,204.757476 L60.301255,195.717824 L60.301255,195.717824 L58.4055871,194.77143 C57.4661114,194.302406 56.8727271,193.34237 56.8732875,192.292324 L56.8739355,191.078126 C56.8740828,190.802192 57.0977348,190.57854 57.3736688,190.578393 Z" id="Rectangle" transform="translate(64.586214, 199.999699) rotate(208.000000) translate(-64.586214, -199.999699) "></path>
            <path d="M37.2972693,176.734313 L51.7268396,176.725079 C52.0029819,176.724903 52.2269828,176.948617 52.2271595,177.224759 C52.2271596,177.224972 52.2271596,177.225186 52.2271595,177.225399 L52.2263828,178.438925 C52.2257103,179.489649 51.6319831,180.449987 50.6923416,180.920196 L48.795395,181.869452 L48.795395,181.869452 L48.7896085,190.910565 C48.7890987,191.706949 49.1052633,192.470857 49.6684303,193.033948 L52.2154116,195.580586 L52.2154116,195.580586 L36.7858407,195.59046 L39.3388015,193.037843 C39.9010274,192.475693 40.2171143,191.713354 40.2176232,190.9183 L40.2234112,181.874937 L40.2234112,181.874937 L38.3292475,180.928892 C37.3895666,180.459566 36.7961396,179.499164 36.7968119,178.448799 L36.7975894,177.233993 C36.797766,176.958101 37.0213769,176.73449 37.2972693,176.734313 Z" id="Rectangle" transform="translate(44.506660, 186.157610) rotate(222.000000) translate(-44.506660, -186.157610) "></path>
            <path d="M21.1200048,158.492315 L35.5451416,158.48359 C35.8212839,158.483423 36.0452769,158.707145 36.0454439,158.983288 C36.045444,158.983489 36.045444,158.983691 36.0454439,158.983892 L36.0447099,160.197946 C36.0440745,161.249003 35.4502894,162.209697 34.5104489,162.68025 L32.6148284,163.629337 L32.6148284,163.629337 L32.6093602,172.673974 C32.608879,173.470022 32.9248045,174.233625 33.4875722,174.79664 L36.0343436,177.344534 L36.0343436,177.344534 L20.6092062,177.353863 L23.1616257,174.800321 C23.7235051,174.238194 24.0393577,173.476073 24.0398382,172.681281 L24.0453076,163.63452 L24.0453076,163.63452 L22.1523169,162.688467 C21.2124389,162.218747 20.6189373,161.257993 20.6195726,160.207276 L20.6203073,158.992013 C20.6204741,158.716106 20.8440986,158.492482 21.1200048,158.492315 Z" id="Rectangle" transform="translate(28.327476, 167.918575) rotate(235.000000) translate(-28.327476, -167.918575) "></path>
            <path d="M9.7824205,136.912632 L24.2035754,136.906419 C24.4797176,136.90587 24.7036716,137.129631 24.7037906,137.405773 C24.7037906,137.405917 24.7037906,137.40606 24.7033602,137.406204 L24.7028372,138.621305 C24.7023847,139.67262 24.1085811,140.633641 23.1685576,141.104406 L21.2744376,142.052984 L21.2744376,142.052984 L21.2705434,151.101035 C21.270201,151.896635 21.5859035,152.659789 22.1482082,153.222632 L24.6954556,155.772318 L24.6954556,155.772318 L9.27430081,155.778961 L11.825569,153.225253 C12.3872417,152.663043 12.7028925,151.900943 12.7032345,151.106238 L12.7071294,142.056675 L12.7071294,142.056675 L10.8148822,141.110257 C9.87483174,140.640086 9.28123002,139.679022 9.28168239,138.627948 L9.28220535,137.412847 C9.28275491,137.136873 9.50644648,136.913181 9.7824205,136.912632 Z" id="Rectangle" transform="translate(16.988938, 146.342582) rotate(249.000000) translate(-16.988938, -146.342582) "></path>
            <path d="M3.94201804,113.250237 L18.3609176,113.24799 C18.63706,113.247792 18.8609525,113.471614 18.8609955,113.747757 C18.8609955,113.747809 18.8609955,113.747861 18.8608398,113.747913 L18.8606507,114.963264 C18.8604872,116.014677 18.2667145,116.975891 17.3265817,117.446655 L15.4336949,118.394502 L15.4336949,118.394502 L15.4322868,127.444796 C15.4321631,128.239958 15.7477289,129.002643 16.3096421,129.565258 L18.857982,132.116783 L18.857982,132.116783 L3.43908238,132.119185 L5.98887569,129.566206 C6.55056058,129.003819 6.86610772,128.241516 6.86623139,127.446677 L6.86763954,118.395836 L6.86763954,118.395836 L4.97542982,117.44877 C4.03528731,116.978221 3.4415876,116.016991 3.44175117,114.965666 L3.44194026,113.750314 C3.44213891,113.474233 3.66593649,113.250435 3.94201804,113.250237 Z" id="Rectangle" transform="translate(11.150000, 122.683549) rotate(263.000000) translate(-11.150000, -122.683549) "></path>
            <path d="M3.93908238,88.8808931 L18.357982,88.8831393 C18.6340635,88.883338 18.8578611,89.1071356 18.8580597,89.3832172 L18.8582488,90.598569 C18.8584124,91.649894 18.2647127,92.611124 17.3245702,93.0816729 L15.4323605,94.0287389 L15.4323605,94.0287389 L15.4337686,103.07958 C15.4338923,103.874418 15.7494394,104.636722 16.3111243,105.199109 L18.8609176,107.752087 L18.8609176,107.752087 L3.44201805,107.749686 L5.99035793,105.198161 C6.55227114,104.635545 6.86783693,103.872861 6.86771321,103.077699 L6.86630515,94.0274046 L6.86630515,94.0274046 L4.97341826,93.0795574 C4.03328553,92.6087939 3.43951284,91.6475794 3.43934926,90.5961671 L3.43916017,89.3808152 C3.43896156,89.1046729 3.66278435,88.8807805 3.93892672,88.8807375 C3.93897861,88.8807375 3.93903051,88.8807375 3.93908238,88.8808931 Z" id="Rectangle" transform="translate(11.150000, 98.316451) rotate(277.000000) translate(-11.150000, -98.316451) "></path>
            <path d="M9.77430076,65.2212544 L24.1954557,65.227467 C24.4714297,65.2280167 24.6951213,65.4517084 24.6956708,65.7276824 L24.6961938,66.9427837 C24.6966462,67.9938573 24.1030444,68.954921 23.162994,69.4250923 L21.2707468,70.3715099 L21.2707468,70.3715099 L21.2746416,79.421073 C21.2749837,80.2157781 21.5906345,80.9778779 22.1523072,81.5400879 L24.7035754,84.0937963 L24.7035754,84.0937963 L9.28242055,84.0871529 L11.829668,81.5374669 C12.3919726,80.974624 12.7076752,80.21147 12.7073327,79.4158705 L12.7034386,70.3678191 L12.7034386,70.3678191 L10.8093186,69.4192412 C9.86929504,68.9484761 9.27549144,67.9874555 9.27503896,66.9361403 L9.274516,65.721039 C9.27396674,65.4448968 9.497728,65.2209428 9.77387035,65.220824 C9.77401388,65.2208239 9.77415741,65.2208239 9.77430076,65.2212544 Z" id="Rectangle" transform="translate(16.988938, 74.657418) rotate(291.000000) translate(-16.988938, -74.657418) "></path>
            <path d="M21.1098112,43.6464393 L35.534948,43.6551642 C35.8108542,43.6553311 36.0344787,43.8789556 36.0346455,44.1548618 L36.0353802,45.370125 C36.0360155,46.4208422 35.4425139,47.3815965 34.5026359,47.851316 L32.6096452,48.7973692 L32.6096452,48.7973692 L32.6151146,57.8441301 C32.6155951,58.6389223 32.9314477,59.4010434 33.4933272,59.96317 L36.0457466,62.5167126 L36.0457466,62.5167126 L20.6206092,62.5073829 L23.1673806,59.9594895 C23.7301483,59.3964739 24.0460738,58.6328716 24.0455926,57.8368227 L24.0401244,48.7921861 L24.0401244,48.7921861 L22.1445039,47.843099 C21.2046634,47.3725457 20.6108783,46.4118519 20.6102429,45.3607953 L20.6095089,44.1467415 C20.609342,43.8705992 20.8330642,43.6466063 21.1092065,43.6464393 C21.1094081,43.6464392 21.1096097,43.6464392 21.1098112,43.6464393 Z" id="Rectangle" transform="translate(28.327476, 53.081425) rotate(305.000000) translate(-28.327476, -53.081425) "></path>
            <path d="M37.286481,25.4098599 L51.7160513,25.419094 C51.9919437,25.4192706 52.2155547,25.6428815 52.2157312,25.9187739 L52.2165087,27.1335797 C52.217181,28.1839448 51.623754,29.1443467 50.6840731,29.6136728 L48.7899094,30.5597178 L48.7899094,30.5597178 L48.7956975,39.6030807 C48.7962063,40.3981346 49.1122932,41.1604733 49.6745191,41.7226236 L52.2274799,44.2752412 L52.2274799,44.2752412 L36.797909,44.2653671 L39.3448904,41.7187286 C39.9080574,41.1556374 40.2242219,40.39173 40.2237122,39.5953454 L40.2179256,30.5542322 L40.2179256,30.5542322 L38.320979,29.6049763 C37.3813375,29.1347679 36.7876103,28.17443 36.7869378,27.1237057 L36.7861612,25.9101798 C36.7859844,25.6340375 37.0096987,25.4100367 37.285841,25.4098599 C37.2860544,25.4098598 37.2862677,25.4098598 37.286481,25.4098599 Z" id="Rectangle" transform="translate(44.506660, 34.842390) rotate(318.000000) translate(-44.506660, -34.842390) "></path>
            <path d="M57.3646756,11.5712977 L71.7987602,11.5789954 C72.0746942,11.5791426 72.2983462,11.8027945 72.2984935,12.0787285 L72.2991415,13.2929263 C72.2997019,14.3429728 71.7063175,15.303009 70.7668419,15.7720329 L68.8711739,16.7184264 L68.8711739,16.7184264 L68.8759983,25.7580791 C68.8764228,26.5535476 69.1927571,27.3162824 69.7554406,27.8785612 L72.3082871,30.4295721 L72.3082871,30.4295721 L56.8742021,30.421341 L59.4220625,27.8753146 C59.9855314,27.3122514 60.3019307,26.5482081 60.3015056,25.7516296 L60.2966822,16.7138536 L60.2966822,16.7138536 L58.3986947,15.7647834 C57.4592516,15.2950241 56.865617,14.3350414 56.8650564,13.2846953 L56.864409,12.0715644 C56.8642616,11.7954221 57.0879998,11.571445 57.3641421,11.5712977 C57.3643199,11.5712976 57.3644978,11.5712976 57.3646756,11.5712977 Z" id="Rectangle" transform="translate(64.586214, 21.000301) rotate(332.000000) translate(-64.586214, -21.000301) "></path>
            <path d="M80.17769,2.93423922 L94.6149894,2.9385984 C94.8910137,2.93898395 95.1147549,3.16272505 95.1151405,3.43874935 L95.1155073,4.65205679 C95.1158247,5.70192022 94.5224343,6.66168809 93.5831096,7.13060422 L91.6860321,8.07763583 L91.6860321,8.07763583 L91.6887638,17.1143727 C91.6890044,17.9102984 92.0055245,18.6735061 92.5686486,19.2359908 L95.1206863,21.785131 L95.1206863,21.785131 L79.6833869,21.7804699 L82.2326005,19.2341524 C82.7961697,18.6712235 83.1127268,17.9072745 83.112486,17.1107199 L83.1097547,8.07504632 L83.1097547,8.07504632 L81.2113638,7.12649893 C80.2720574,6.65716636 79.6785253,5.69742876 79.6782079,4.64739567 L79.6778411,3.43408823 C79.6774557,3.15794596 79.9012456,2.93402067 80.177388,2.9339372 C80.1774887,2.93393717 80.1775894,2.93393717 80.17769,2.93423922 Z" id="Rectangle" transform="translate(87.399188, 12.359610) rotate(346.000000) translate(-87.399188, -12.359610) "></path>
        </g>
        <g id="Logo-Title" transform="translate(29.000000, 135.000000)" fill="#FFFFFF" fill-rule="nonzero">
            <path d="M38.064,55 L38.064,53.704 C37.44,53.512 37.128,53.032 37.128,52.264 C37.128,51.784 37.488,50.608 38.208,48.736 L38.208,48.736 L46.056,27.928 L46.2,27.928 L54.48,49.168 C54.864,50.032 55.14,50.704 55.308,51.184 C55.476,51.664 55.56,52.096 55.56,52.48 C55.56,52.816 55.404,53.08 55.092,53.272 C54.78,53.464 54.48,53.608 54.192,53.704 L54.192,53.704 L54.192,55 L65.568,55 L65.568,53.704 C65.136,53.704 64.8,53.572 64.56,53.308 C64.32,53.044 64.2,52.744 64.2,52.408 C64.2,52.024 64.308,51.544 64.524,50.968 L64.524,50.968 L65.004,49.688 C65.092,49.4533333 65.184,49.208 65.28,48.952 L65.28,48.952 L75.648,21.448 C75.984,20.584 76.284,19.864 76.548,19.288 C76.812,18.712 77.208,18.424 77.736,18.424 L77.736,18.424 L77.736,17.128 L67.08,17.128 L67.08,18.424 C67.416,18.424 67.704,18.556 67.944,18.82 C68.184,19.084 68.304,19.36 68.304,19.648 C68.304,20.224 68.136,20.872 67.8,21.592 L67.8,21.592 L60.024,42.328 L59.88,42.328 L52.176,22.024 C51.696,20.872 51.456,20.056 51.456,19.576 C51.456,19.288 51.528,19.024 51.672,18.784 C51.816,18.544 52.056,18.424 52.392,18.424 L52.392,18.424 L52.392,17.128 L40.08,17.128 L40.08,18.424 C40.704,18.424 41.016,18.88 41.016,19.792 C41.016,20.032 40.98,20.308 40.908,20.62 C40.836,20.932 40.68,21.4 40.44,22.024 L40.44,22.024 L32.808,42.328 L32.664,42.328 L24.96,22.312 C24.672,21.544 24.492,20.992 24.42,20.656 C24.348,20.32 24.312,20.032 24.312,19.792 C24.312,18.88 24.672,18.424 25.392,18.424 L25.392,18.424 L25.392,17.128 L14.232,17.128 L14.232,18.424 C14.712,18.52 15.06,18.748 15.276,19.108 C15.492,19.468 15.696,19.912 15.888,20.44 L15.888,20.44 L27.408,50.176 C27.6,50.656 27.78,51.112 27.948,51.544 C28.116,51.976 28.2,52.384 28.2,52.768 C28.2,53.104 28.056,53.344 27.768,53.488 C27.48,53.632 27.192,53.704 26.904,53.704 L26.904,53.704 L26.904,55 L38.064,55 Z M97.68,55 L97.68,53.704 C97.344,53.704 97.044,53.596 96.78,53.38 C96.516,53.164 96.384,52.84 96.384,52.408 L96.384,52.408 L96.384,38.872 L119.568,38.872 L119.568,52.408 C119.568,53.272 119.04,53.704 117.984,53.704 L117.984,53.704 L117.984,55 L129.072,55 L129.072,53.704 C128.736,53.704 128.436,53.596 128.172,53.38 C127.908,53.164 127.776,52.84 127.776,52.408 L127.776,52.408 L127.776,19.72 C127.776,19.288 127.908,18.964 128.172,18.748 C128.436,18.532 128.736,18.424 129.072,18.424 L129.072,18.424 L129.072,17.128 L117.984,17.128 L117.984,18.424 C119.04,18.424 119.568,18.856 119.568,19.72 L119.568,19.72 L119.568,31.96 L96.384,31.96 L96.384,19.72 C96.384,19.288 96.516,18.964 96.78,18.748 C97.044,18.532 97.344,18.424 97.68,18.424 L97.68,18.424 L97.68,17.128 L86.808,17.128 L86.808,18.424 C87.72,18.424 88.176,18.856 88.176,19.72 L88.176,19.72 L88.176,52.408 C88.176,53.272 87.72,53.704 86.808,53.704 L86.808,53.704 L86.808,55 L97.68,55 Z M163.992,55.216 C166.632,55.216 169.32,54.856 172.056,54.136 C174.792,53.416 177.288,52.264 179.544,50.68 C181.8,49.096 183.648,47.092 185.088,44.668 C186.528,42.244 187.248,39.376 187.248,36.064 C187.248,32.752 186.528,29.884 185.088,27.46 C183.648,25.036 181.8,23.032 179.544,21.448 C177.288,19.864 174.792,18.676 172.056,17.884 C169.32,17.092 166.632,16.696 163.992,16.696 C161.352,16.696 158.664,17.092 155.928,17.884 C153.192,18.676 150.696,19.864 148.44,21.448 C146.184,23.032 144.336,25.036 142.896,27.46 C141.456,29.884 140.736,32.752 140.736,36.064 C140.736,39.376 141.456,42.244 142.896,44.668 C144.336,47.092 146.184,49.096 148.44,50.68 C150.696,52.264 153.192,53.416 155.928,54.136 C158.664,54.856 161.352,55.216 163.992,55.216 Z M163.992,48.808 C162.168,48.808 160.344,48.52 158.52,47.944 C156.696,47.368 155.052,46.54 153.588,45.46 C152.124,44.38 150.936,43.048 150.024,41.464 C149.112,39.88 148.656,38.08 148.656,36.064 C148.656,34.048 149.112,32.248 150.024,30.664 C150.936,29.08 152.124,27.748 153.588,26.668 C155.052,25.588 156.696,24.76 158.52,24.184 C160.344,23.608 162.168,23.32 163.992,23.32 C165.816,23.32 167.64,23.608 169.464,24.184 C171.288,24.76 172.932,25.588 174.396,26.668 C175.86,27.748 177.048,29.08 177.96,30.664 C178.872,32.248 179.328,34.048 179.328,36.064 C179.328,38.08 178.872,39.88 177.96,41.464 C177.048,43.048 175.86,44.38 174.396,45.46 C172.932,46.54 171.288,47.368 169.464,47.944 C167.64,48.52 165.816,48.808 163.992,48.808 Z" id="WHO"></path>
            <path d="M50.601,77.054 C51.009,77.054 51.444,77.024 51.906,76.964 C52.368,76.904 52.791,76.778 53.175,76.586 C53.559,76.394 53.88,76.13 54.138,75.794 C54.396,75.458 54.525,75.026 54.525,74.498 C54.525,73.97 54.378,73.556 54.084,73.256 C53.79,72.956 53.421,72.728 52.977,72.572 C52.533,72.416 52.053,72.305 51.537,72.239 C51.021,72.173 50.541,72.107 50.097,72.041 C49.653,71.975 49.284,71.885 48.99,71.771 C48.696,71.657 48.549,71.468 48.549,71.204 C48.549,71.036 48.597,70.895 48.693,70.781 C48.789,70.667 48.921,70.574 49.089,70.502 C49.257,70.43 49.449,70.379 49.665,70.349 C49.881,70.319 50.109,70.304 50.349,70.304 C50.973,70.304 51.537,70.376 52.041,70.52 C52.545,70.664 52.917,70.838 53.157,71.042 C53.253,71.114 53.307,71.186 53.319,71.258 L53.319,71.258 L53.355,71.474 L53.679,71.582 L54.579,69.89 L54.381,69.692 C54.309,69.728 54.249,69.761 54.201,69.791 C54.153,69.821 54.081,69.836 53.985,69.836 C53.901,69.836 53.772,69.791 53.598,69.701 C53.424,69.611 53.199,69.512 52.923,69.404 C52.647,69.296 52.308,69.197 51.906,69.107 C51.504,69.017 51.021,68.972 50.457,68.972 C49.305,68.972 48.411,69.2 47.775,69.656 C47.139,70.112 46.821,70.724 46.821,71.492 C46.821,72.008 46.968,72.407 47.262,72.689 C47.556,72.971 47.925,73.187 48.369,73.337 C48.813,73.487 49.293,73.595 49.809,73.661 C50.325,73.727 50.805,73.793 51.249,73.859 C51.693,73.925 52.062,74.018 52.356,74.138 C52.65,74.258 52.797,74.45 52.797,74.714 C52.797,74.942 52.713,75.125 52.545,75.263 C52.377,75.401 52.173,75.509 51.933,75.587 C51.693,75.665 51.45,75.716 51.204,75.74 C50.958,75.764 50.751,75.776 50.583,75.776 C50.403,75.776 50.154,75.746 49.836,75.686 C49.518,75.626 49.2,75.545 48.882,75.443 C48.564,75.341 48.291,75.215 48.063,75.065 C47.835,74.915 47.721,74.75 47.721,74.57 C47.721,74.51 47.724,74.453 47.73,74.399 C47.736,74.345 47.739,74.294 47.739,74.246 L47.739,74.246 L47.397,74.156 L46.569,76.172 L46.821,76.352 C46.881,76.28 46.953,76.244 47.037,76.244 C47.085,76.244 47.223,76.289 47.451,76.379 C47.679,76.469 47.958,76.565 48.288,76.667 C48.618,76.769 48.984,76.859 49.386,76.937 C49.788,77.015 50.193,77.054 50.601,77.054 Z M61.437,77 L61.437,76.676 C61.221,76.676 61.113,76.586 61.113,76.406 L61.113,76.406 L61.113,70.412 L63.453,70.412 C63.549,70.412 63.639,70.436 63.723,70.484 C63.807,70.532 63.849,70.61 63.849,70.718 L63.849,70.718 L64.173,70.718 L64.173,68.648 L63.849,68.648 C63.849,68.816 63.807,68.93 63.723,68.99 C63.639,69.05 63.549,69.08 63.453,69.08 L63.453,69.08 L57.045,69.08 C56.949,69.08 56.859,69.05 56.775,68.99 C56.691,68.93 56.649,68.816 56.649,68.648 L56.649,68.648 L56.325,68.648 L56.325,70.718 L56.649,70.718 C56.649,70.61 56.691,70.532 56.775,70.484 C56.859,70.436 56.949,70.412 57.045,70.412 L57.045,70.412 L59.385,70.412 L59.385,76.406 C59.385,76.502 59.355,76.571 59.295,76.613 C59.235,76.655 59.175,76.676 59.115,76.676 L59.115,76.676 L59.115,77 L61.437,77 Z M67.431,77 L67.431,76.676 C67.323,76.676 67.239,76.664 67.179,76.64 C67.119,76.616 67.089,76.556 67.089,76.46 C67.089,76.4 67.104,76.331 67.134,76.253 C67.164,76.175 67.203,76.088 67.251,75.992 L67.251,75.992 L67.755,75.02 L71.607,75.02 L72.093,76.046 C72.129,76.142 72.159,76.22 72.183,76.28 C72.207,76.34 72.219,76.406 72.219,76.478 C72.219,76.574 72.186,76.64 72.12,76.676 C72.054,76.712 71.991,76.73 71.931,76.73 L71.931,76.73 L71.931,77 L74.487,77 L74.487,76.676 C74.403,76.652 74.325,76.616 74.253,76.568 C74.181,76.52 74.115,76.442 74.055,76.334 L74.055,76.334 L71.139,70.214 C71.079,70.082 71.022,69.965 70.968,69.863 C70.914,69.761 70.887,69.674 70.887,69.602 C70.887,69.518 70.908,69.47 70.95,69.458 C70.992,69.446 71.031,69.428 71.067,69.404 L71.067,69.404 L71.067,69.08 L68.349,69.08 L68.349,69.404 C68.385,69.428 68.418,69.449 68.448,69.467 C68.478,69.485 68.493,69.53 68.493,69.602 C68.493,69.698 68.472,69.797 68.43,69.899 C68.388,70.001 68.331,70.136 68.259,70.304 L68.259,70.304 L65.577,76.154 C65.529,76.25 65.46,76.355 65.37,76.469 C65.28,76.583 65.163,76.652 65.019,76.676 L65.019,76.676 L65.019,77 L67.431,77 Z M71.031,73.688 L68.295,73.688 L69.573,70.664 L71.031,73.688 Z M78.555,77 L78.555,76.676 C78.483,76.676 78.408,76.655 78.33,76.613 C78.252,76.571 78.213,76.502 78.213,76.406 L78.213,76.406 L78.213,73.832 L80.715,73.832 L82.137,75.956 C82.317,76.208 82.407,76.394 82.407,76.514 C82.407,76.622 82.329,76.676 82.173,76.676 L82.173,76.676 L82.173,77 L84.927,77 L84.927,76.676 C84.795,76.64 84.672,76.589 84.558,76.523 C84.444,76.457 84.339,76.358 84.243,76.226 L84.243,76.226 L82.479,73.652 C82.731,73.592 82.977,73.505 83.217,73.391 C83.457,73.277 83.676,73.127 83.874,72.941 C84.072,72.755 84.231,72.536 84.351,72.284 C84.471,72.032 84.531,71.744 84.531,71.42 C84.531,70.568 84.231,69.965 83.631,69.611 C83.031,69.257 82.197,69.08 81.129,69.08 L81.129,69.08 L76.161,69.08 L76.161,69.404 C76.377,69.404 76.485,69.494 76.485,69.674 L76.485,69.674 L76.485,76.406 C76.485,76.586 76.377,76.676 76.161,76.676 L76.161,76.676 L76.161,77 L78.555,77 Z M81.093,72.5 L78.249,72.5 L78.249,70.412 L81.093,70.412 C81.705,70.412 82.152,70.499 82.434,70.673 C82.716,70.847 82.857,71.084 82.857,71.384 C82.857,72.128 82.269,72.5 81.093,72.5 L81.093,72.5 Z M91.443,77 L91.443,76.676 C91.227,76.676 91.119,76.586 91.119,76.406 L91.119,76.406 L91.119,70.412 L93.459,70.412 C93.555,70.412 93.645,70.436 93.729,70.484 C93.813,70.532 93.855,70.61 93.855,70.718 L93.855,70.718 L94.179,70.718 L94.179,68.648 L93.855,68.648 C93.855,68.816 93.813,68.93 93.729,68.99 C93.645,69.05 93.555,69.08 93.459,69.08 L93.459,69.08 L87.051,69.08 C86.955,69.08 86.865,69.05 86.781,68.99 C86.697,68.93 86.655,68.816 86.655,68.648 L86.655,68.648 L86.331,68.648 L86.331,70.718 L86.655,70.718 C86.655,70.61 86.697,70.532 86.781,70.484 C86.865,70.436 86.955,70.412 87.051,70.412 L87.051,70.412 L89.391,70.412 L89.391,76.406 C89.391,76.502 89.361,76.571 89.301,76.613 C89.241,76.655 89.181,76.676 89.121,76.676 L89.121,76.676 L89.121,77 L91.443,77 Z M103.665,77.198 L103.665,75.308 L103.341,75.308 C103.341,75.416 103.293,75.503 103.197,75.569 C103.101,75.635 102.981,75.668 102.837,75.668 L102.837,75.668 L98.229,75.668 L98.229,73.544 L100.857,73.544 C101.097,73.544 101.283,73.559 101.415,73.589 C101.547,73.619 101.595,73.7 101.559,73.832 L101.559,73.832 L101.919,73.832 L101.919,71.924 L101.595,71.924 C101.595,72.056 101.547,72.137 101.451,72.167 C101.355,72.197 101.205,72.212 101.001,72.212 L101.001,72.212 L98.229,72.212 L98.229,70.412 L102.621,70.412 C102.993,70.412 103.179,70.526 103.179,70.754 L103.179,70.754 L103.503,70.754 L103.503,68.756 L103.179,68.756 C103.179,68.972 102.993,69.08 102.621,69.08 L102.621,69.08 L96.231,69.08 L96.231,69.404 C96.291,69.404 96.351,69.425 96.411,69.467 C96.471,69.509 96.501,69.578 96.501,69.674 L96.501,69.674 L96.501,76.406 C96.501,76.502 96.471,76.571 96.411,76.613 C96.351,76.655 96.291,76.676 96.231,76.676 L96.231,76.676 L96.231,77 L102.837,77 C102.981,77 103.101,77.006 103.197,77.018 C103.293,77.03 103.341,77.09 103.341,77.198 L103.341,77.198 L103.665,77.198 Z M111.045,77 C111.753,77 112.353,76.886 112.845,76.658 C113.337,76.43 113.739,76.133 114.051,75.767 C114.363,75.401 114.591,74.981 114.735,74.507 C114.879,74.033 114.951,73.544 114.951,73.04 C114.951,72.536 114.876,72.047 114.726,71.573 C114.576,71.099 114.342,70.679 114.024,70.313 C113.706,69.947 113.295,69.65 112.791,69.422 C112.287,69.194 111.681,69.08 110.973,69.08 L110.973,69.08 L105.969,69.08 L105.969,69.404 C106.245,69.404 106.383,69.494 106.383,69.674 L106.383,69.674 L106.383,76.406 C106.383,76.586 106.245,76.676 105.969,76.676 L105.969,76.676 L105.969,77 L111.045,77 Z M110.451,75.668 L108.111,75.668 L108.111,70.412 L110.451,70.412 C110.823,70.412 111.177,70.433 111.513,70.475 C111.849,70.517 112.143,70.625 112.395,70.799 C112.647,70.973 112.848,71.231 112.998,71.573 C113.148,71.915 113.223,72.386 113.223,72.986 C113.223,73.586 113.148,74.063 112.998,74.417 C112.848,74.771 112.647,75.041 112.395,75.227 C112.143,75.413 111.849,75.533 111.513,75.587 C111.177,75.641 110.823,75.668 110.451,75.668 L110.451,75.668 Z M126.939,77 L126.939,76.676 C126.723,76.676 126.615,76.586 126.615,76.406 L126.615,76.406 L126.615,70.412 L128.955,70.412 C129.051,70.412 129.141,70.436 129.225,70.484 C129.309,70.532 129.351,70.61 129.351,70.718 L129.351,70.718 L129.675,70.718 L129.675,68.648 L129.351,68.648 C129.351,68.816 129.309,68.93 129.225,68.99 C129.141,69.05 129.051,69.08 128.955,69.08 L128.955,69.08 L122.547,69.08 C122.451,69.08 122.361,69.05 122.277,68.99 C122.193,68.93 122.151,68.816 122.151,68.648 L122.151,68.648 L121.827,68.648 L121.827,70.718 L122.151,70.718 C122.151,70.61 122.193,70.532 122.277,70.484 C122.361,70.436 122.451,70.412 122.547,70.412 L122.547,70.412 L124.887,70.412 L124.887,76.406 C124.887,76.502 124.857,76.571 124.797,76.613 C124.737,76.655 124.677,76.676 124.617,76.676 L124.617,76.676 L124.617,77 L126.939,77 Z M134.103,77 L134.103,76.676 C134.031,76.676 133.968,76.655 133.914,76.613 C133.86,76.571 133.833,76.502 133.833,76.406 L133.833,76.406 L133.833,73.688 L138.657,73.688 L138.657,76.406 C138.657,76.502 138.63,76.571 138.576,76.613 C138.522,76.655 138.459,76.676 138.387,76.676 L138.387,76.676 L138.387,77 L140.655,77 L140.655,76.676 C140.583,76.676 140.52,76.655 140.466,76.613 C140.412,76.571 140.385,76.502 140.385,76.406 L140.385,76.406 L140.385,69.674 C140.385,69.578 140.412,69.509 140.466,69.467 C140.52,69.425 140.583,69.404 140.655,69.404 L140.655,69.404 L140.655,69.08 L138.387,69.08 L138.387,69.404 C138.459,69.404 138.522,69.425 138.576,69.467 C138.63,69.509 138.657,69.578 138.657,69.674 L138.657,69.674 L138.657,72.212 L133.833,72.212 L133.833,69.674 C133.833,69.578 133.86,69.509 133.914,69.467 C133.968,69.425 134.031,69.404 134.103,69.404 L134.103,69.404 L134.103,69.08 L131.835,69.08 L131.835,69.404 C131.907,69.404 131.97,69.425 132.024,69.467 C132.078,69.509 132.105,69.578 132.105,69.674 L132.105,69.674 L132.105,76.406 C132.105,76.502 132.078,76.571 132.024,76.613 C131.97,76.655 131.907,76.676 131.835,76.676 L131.835,76.676 L131.835,77 L134.103,77 Z M146.613,77 L146.613,76.676 C146.277,76.676 146.109,76.586 146.109,76.406 L146.109,76.406 L146.109,69.674 C146.109,69.494 146.277,69.404 146.613,69.404 L146.613,69.404 L146.613,69.08 L143.877,69.08 L143.877,69.404 C144.069,69.404 144.201,69.425 144.273,69.467 C144.345,69.509 144.381,69.578 144.381,69.674 L144.381,69.674 L144.381,76.406 C144.381,76.502 144.345,76.571 144.273,76.613 C144.201,76.655 144.069,76.676 143.877,76.676 L143.877,76.676 L143.877,77 L146.613,77 Z M153.111,77.054 C153.519,77.054 153.954,77.024 154.416,76.964 C154.878,76.904 155.301,76.778 155.685,76.586 C156.069,76.394 156.39,76.13 156.648,75.794 C156.906,75.458 157.035,75.026 157.035,74.498 C157.035,73.97 156.888,73.556 156.594,73.256 C156.3,72.956 155.931,72.728 155.487,72.572 C155.043,72.416 154.563,72.305 154.047,72.239 C153.531,72.173 153.051,72.107 152.607,72.041 C152.163,71.975 151.794,71.885 151.5,71.771 C151.206,71.657 151.059,71.468 151.059,71.204 C151.059,71.036 151.107,70.895 151.203,70.781 C151.299,70.667 151.431,70.574 151.599,70.502 C151.767,70.43 151.959,70.379 152.175,70.349 C152.391,70.319 152.619,70.304 152.859,70.304 C153.483,70.304 154.047,70.376 154.551,70.52 C155.055,70.664 155.427,70.838 155.667,71.042 C155.763,71.114 155.817,71.186 155.829,71.258 L155.829,71.258 L155.865,71.474 L156.189,71.582 L157.089,69.89 L156.891,69.692 C156.819,69.728 156.759,69.761 156.711,69.791 C156.663,69.821 156.591,69.836 156.495,69.836 C156.411,69.836 156.282,69.791 156.108,69.701 C155.934,69.611 155.709,69.512 155.433,69.404 C155.157,69.296 154.818,69.197 154.416,69.107 C154.014,69.017 153.531,68.972 152.967,68.972 C151.815,68.972 150.921,69.2 150.285,69.656 C149.649,70.112 149.331,70.724 149.331,71.492 C149.331,72.008 149.478,72.407 149.772,72.689 C150.066,72.971 150.435,73.187 150.879,73.337 C151.323,73.487 151.803,73.595 152.319,73.661 C152.835,73.727 153.315,73.793 153.759,73.859 C154.203,73.925 154.572,74.018 154.866,74.138 C155.16,74.258 155.307,74.45 155.307,74.714 C155.307,74.942 155.223,75.125 155.055,75.263 C154.887,75.401 154.683,75.509 154.443,75.587 C154.203,75.665 153.96,75.716 153.714,75.74 C153.468,75.764 153.261,75.776 153.093,75.776 C152.913,75.776 152.664,75.746 152.346,75.686 C152.028,75.626 151.71,75.545 151.392,75.443 C151.074,75.341 150.801,75.215 150.573,75.065 C150.345,74.915 150.231,74.75 150.231,74.57 C150.231,74.51 150.234,74.453 150.24,74.399 C150.246,74.345 150.249,74.294 150.249,74.246 L150.249,74.246 L149.907,74.156 L149.079,76.172 L149.331,76.352 C149.391,76.28 149.463,76.244 149.547,76.244 C149.595,76.244 149.733,76.289 149.961,76.379 C150.189,76.469 150.468,76.565 150.798,76.667 C151.128,76.769 151.494,76.859 151.896,76.937 C152.298,77.015 152.703,77.054 153.111,77.054 Z M31.611,95 L31.611,94.676 C31.503,94.676 31.407,94.655 31.323,94.613 C31.239,94.571 31.197,94.502 31.197,94.406 L31.197,94.406 L31.197,91.652 L34.365,91.652 C34.569,91.652 34.695,91.676 34.743,91.724 C34.791,91.772 34.821,91.844 34.833,91.94 L34.833,91.94 L35.157,91.94 L35.157,90.05 L34.833,90.05 C34.821,90.146 34.791,90.215 34.743,90.257 C34.695,90.299 34.569,90.32 34.365,90.32 L34.365,90.32 L31.197,90.32 L31.197,88.412 L36.075,88.412 C36.279,88.412 36.423,88.439 36.507,88.493 C36.591,88.547 36.633,88.604 36.633,88.664 L36.633,88.664 L36.957,88.664 L36.957,86.756 L36.633,86.756 C36.633,86.852 36.591,86.93 36.507,86.99 C36.423,87.05 36.279,87.08 36.075,87.08 L36.075,87.08 L29.091,87.08 L29.091,87.404 C29.343,87.404 29.469,87.494 29.469,87.674 L29.469,87.674 L29.469,94.406 C29.469,94.586 29.355,94.676 29.127,94.676 L29.127,94.676 L29.127,95 L31.611,95 Z M41.547,95 L41.547,94.676 C41.475,94.676 41.4,94.655 41.322,94.613 C41.244,94.571 41.205,94.502 41.205,94.406 L41.205,94.406 L41.205,91.832 L43.707,91.832 L45.129,93.956 C45.309,94.208 45.399,94.394 45.399,94.514 C45.399,94.622 45.321,94.676 45.165,94.676 L45.165,94.676 L45.165,95 L47.919,95 L47.919,94.676 C47.787,94.64 47.664,94.589 47.55,94.523 C47.436,94.457 47.331,94.358 47.235,94.226 L47.235,94.226 L45.471,91.652 C45.723,91.592 45.969,91.505 46.209,91.391 C46.449,91.277 46.668,91.127 46.866,90.941 C47.064,90.755 47.223,90.536 47.343,90.284 C47.463,90.032 47.523,89.744 47.523,89.42 C47.523,88.568 47.223,87.965 46.623,87.611 C46.023,87.257 45.189,87.08 44.121,87.08 L44.121,87.08 L39.153,87.08 L39.153,87.404 C39.369,87.404 39.477,87.494 39.477,87.674 L39.477,87.674 L39.477,94.406 C39.477,94.586 39.369,94.676 39.153,94.676 L39.153,94.676 L39.153,95 L41.547,95 Z M44.085,90.5 L41.241,90.5 L41.241,88.412 L44.085,88.412 C44.697,88.412 45.144,88.499 45.426,88.673 C45.708,88.847 45.849,89.084 45.849,89.384 C45.849,90.128 45.261,90.5 44.085,90.5 L44.085,90.5 Z M57.657,95.198 L57.657,93.308 L57.333,93.308 C57.333,93.416 57.285,93.503 57.189,93.569 C57.093,93.635 56.973,93.668 56.829,93.668 L56.829,93.668 L52.221,93.668 L52.221,91.544 L54.849,91.544 C55.089,91.544 55.275,91.559 55.407,91.589 C55.539,91.619 55.587,91.7 55.551,91.832 L55.551,91.832 L55.911,91.832 L55.911,89.924 L55.587,89.924 C55.587,90.056 55.539,90.137 55.443,90.167 C55.347,90.197 55.197,90.212 54.993,90.212 L54.993,90.212 L52.221,90.212 L52.221,88.412 L56.613,88.412 C56.985,88.412 57.171,88.526 57.171,88.754 L57.171,88.754 L57.495,88.754 L57.495,86.756 L57.171,86.756 C57.171,86.972 56.985,87.08 56.613,87.08 L56.613,87.08 L50.223,87.08 L50.223,87.404 C50.283,87.404 50.343,87.425 50.403,87.467 C50.463,87.509 50.493,87.578 50.493,87.674 L50.493,87.674 L50.493,94.406 C50.493,94.502 50.463,94.571 50.403,94.613 C50.343,94.655 50.283,94.676 50.223,94.676 L50.223,94.676 L50.223,95 L56.829,95 C56.973,95 57.093,95.006 57.189,95.018 C57.285,95.03 57.333,95.09 57.333,95.198 L57.333,95.198 L57.657,95.198 Z M61.437,95 L61.437,94.676 C61.329,94.676 61.245,94.664 61.185,94.64 C61.125,94.616 61.095,94.556 61.095,94.46 C61.095,94.4 61.11,94.331 61.14,94.253 C61.17,94.175 61.209,94.088 61.257,93.992 L61.257,93.992 L61.761,93.02 L65.613,93.02 L66.099,94.046 C66.135,94.142 66.165,94.22 66.189,94.28 C66.213,94.34 66.225,94.406 66.225,94.478 C66.225,94.574 66.192,94.64 66.126,94.676 C66.06,94.712 65.997,94.73 65.937,94.73 L65.937,94.73 L65.937,95 L68.493,95 L68.493,94.676 C68.409,94.652 68.331,94.616 68.259,94.568 C68.187,94.52 68.121,94.442 68.061,94.334 L68.061,94.334 L65.145,88.214 C65.085,88.082 65.028,87.965 64.974,87.863 C64.92,87.761 64.893,87.674 64.893,87.602 C64.893,87.518 64.914,87.47 64.956,87.458 C64.998,87.446 65.037,87.428 65.073,87.404 L65.073,87.404 L65.073,87.08 L62.355,87.08 L62.355,87.404 C62.391,87.428 62.424,87.449 62.454,87.467 C62.484,87.485 62.499,87.53 62.499,87.602 C62.499,87.698 62.478,87.797 62.436,87.899 C62.394,88.001 62.337,88.136 62.265,88.304 L62.265,88.304 L59.583,94.154 C59.535,94.25 59.466,94.355 59.376,94.469 C59.286,94.583 59.169,94.652 59.025,94.676 L59.025,94.676 L59.025,95 L61.437,95 Z M65.037,91.688 L62.301,91.688 L63.579,88.664 L65.037,91.688 Z M72.453,95 L72.453,94.676 C72.225,94.676 72.111,94.586 72.111,94.406 L72.111,94.406 L72.111,92.39 L73.515,91.274 L75.729,93.974 C75.885,94.154 75.99,94.286 76.044,94.37 C76.098,94.454 76.125,94.52 76.125,94.568 C76.125,94.64 76.059,94.676 75.927,94.676 L75.927,94.676 L75.927,95 L78.591,95 L78.591,94.676 C78.423,94.628 78.255,94.511 78.087,94.325 C77.919,94.139 77.763,93.956 77.619,93.776 L77.619,93.776 L74.775,90.248 L77.781,87.818 C78.069,87.59 78.285,87.452 78.429,87.404 L78.429,87.404 L78.429,87.08 L75.459,87.08 L75.459,87.35 C75.519,87.35 75.582,87.368 75.648,87.404 C75.714,87.44 75.747,87.488 75.747,87.548 C75.747,87.596 75.633,87.719 75.405,87.917 C75.177,88.115 74.889,88.358 74.541,88.646 C74.193,88.934 73.803,89.249 73.371,89.591 C72.939,89.933 72.519,90.272 72.111,90.608 L72.111,90.608 L72.111,87.674 C72.111,87.494 72.225,87.404 72.453,87.404 L72.453,87.404 L72.453,87.08 L70.095,87.08 L70.095,87.404 C70.287,87.404 70.383,87.494 70.383,87.674 L70.383,87.674 L70.383,94.406 C70.383,94.586 70.287,94.676 70.095,94.676 L70.095,94.676 L70.095,95 L72.453,95 Z M83.127,95 L83.127,94.676 C82.791,94.676 82.623,94.586 82.623,94.406 L82.623,94.406 L82.623,87.674 C82.623,87.494 82.791,87.404 83.127,87.404 L83.127,87.404 L83.127,87.08 L80.391,87.08 L80.391,87.404 C80.583,87.404 80.715,87.425 80.787,87.467 C80.859,87.509 80.895,87.578 80.895,87.674 L80.895,87.674 L80.895,94.406 C80.895,94.502 80.859,94.571 80.787,94.613 C80.715,94.655 80.583,94.676 80.391,94.676 L80.391,94.676 L80.391,95 L83.127,95 Z M88.437,95 L88.437,94.676 C88.185,94.676 88.059,94.586 88.059,94.406 L88.059,94.406 L88.059,89.168 L92.523,93.92 C92.667,94.076 92.796,94.214 92.91,94.334 C93.024,94.454 93.081,94.538 93.081,94.586 C93.081,94.646 93.039,94.676 92.955,94.676 L92.955,94.676 L92.955,95 L95.295,95 L95.295,94.676 C95.079,94.676 94.971,94.586 94.971,94.406 L94.971,94.406 L94.971,87.674 C94.971,87.494 95.079,87.404 95.295,87.404 L95.295,87.404 L95.295,87.08 L93.099,87.08 L93.099,87.404 C93.339,87.404 93.459,87.494 93.459,87.674 L93.459,87.674 L93.459,92.552 L89.139,87.98 C88.875,87.716 88.743,87.554 88.743,87.494 C88.743,87.446 88.785,87.416 88.869,87.404 L88.869,87.404 L88.869,87.08 L86.223,87.08 L86.223,87.404 C86.439,87.404 86.547,87.494 86.547,87.674 L86.547,87.674 L86.547,94.406 C86.547,94.586 86.439,94.676 86.223,94.676 L86.223,94.676 L86.223,95 L88.437,95 Z M102.459,95.054 C103.035,95.054 103.557,95.015 104.025,94.937 C104.493,94.859 104.904,94.76 105.258,94.64 C105.612,94.52 105.906,94.397 106.14,94.271 C106.374,94.145 106.545,94.046 106.653,93.974 L106.653,93.974 L106.653,93.758 C106.533,93.71 106.458,93.665 106.428,93.623 C106.398,93.581 106.383,93.506 106.383,93.398 L106.383,93.398 L106.383,91.688 C106.383,91.568 106.401,91.478 106.437,91.418 C106.473,91.358 106.545,91.304 106.653,91.256 L106.653,91.256 L106.653,90.932 L103.125,90.932 C102.993,90.932 102.879,90.914 102.783,90.878 C102.687,90.842 102.627,90.764 102.603,90.644 L102.603,90.644 L102.279,90.644 L102.279,92.498 L102.603,92.498 C102.627,92.354 102.687,92.255 102.783,92.201 C102.879,92.147 102.993,92.12 103.125,92.12 L103.125,92.12 L104.979,92.12 L104.979,93.254 C104.595,93.458 104.172,93.596 103.71,93.668 C103.248,93.74 102.759,93.776 102.243,93.776 C101.895,93.776 101.535,93.728 101.163,93.632 C100.791,93.536 100.452,93.383 100.146,93.173 C99.84,92.963 99.591,92.687 99.399,92.345 C99.207,92.003 99.111,91.58 99.111,91.076 C99.111,90.572 99.201,90.146 99.381,89.798 C99.561,89.45 99.801,89.165 100.101,88.943 C100.401,88.721 100.749,88.559 101.145,88.457 C101.541,88.355 101.961,88.304 102.405,88.304 C102.729,88.304 103.05,88.337 103.368,88.403 C103.686,88.469 103.971,88.556 104.223,88.664 C104.475,88.772 104.679,88.889 104.835,89.015 C104.991,89.141 105.069,89.258 105.069,89.366 C105.069,89.378 105.057,89.444 105.033,89.564 L105.033,89.564 L105.249,89.69 L106.293,87.728 L106.077,87.62 C106.005,87.68 105.945,87.719 105.897,87.737 C105.849,87.755 105.777,87.764 105.681,87.764 C105.597,87.764 105.471,87.722 105.303,87.638 C105.135,87.554 104.913,87.464 104.637,87.368 C104.373,87.272 104.061,87.182 103.701,87.098 C103.341,87.014 102.927,86.972 102.459,86.972 C101.679,86.972 100.974,87.065 100.344,87.251 C99.714,87.437 99.18,87.707 98.742,88.061 C98.304,88.415 97.968,88.841 97.734,89.339 C97.5,89.837 97.383,90.404 97.383,91.04 C97.383,91.676 97.5,92.243 97.734,92.741 C97.968,93.239 98.304,93.662 98.742,94.01 C99.18,94.358 99.714,94.619 100.344,94.793 C100.974,94.967 101.679,95.054 102.459,95.054 Z M119.685,95 L119.685,94.676 C119.469,94.64 119.361,94.586 119.361,94.514 C119.361,94.454 119.394,94.37 119.46,94.262 C119.526,94.154 119.625,93.944 119.757,93.632 L119.757,93.632 L122.385,87.818 C122.517,87.542 122.667,87.404 122.835,87.404 L122.835,87.404 L122.835,87.08 L120.477,87.08 L120.477,87.404 C120.645,87.404 120.735,87.476 120.747,87.62 C120.759,87.704 120.729,87.818 120.657,87.962 C120.585,88.106 120.483,88.322 120.351,88.61 L120.351,88.61 L118.389,92.966 L116.319,88.484 C116.235,88.304 116.16,88.139 116.094,87.989 C116.028,87.839 115.995,87.722 115.995,87.638 C115.995,87.482 116.067,87.404 116.211,87.404 L116.211,87.404 L116.211,87.08 L113.673,87.08 L113.673,87.404 C113.745,87.404 113.82,87.434 113.898,87.494 C113.976,87.554 114.039,87.638 114.087,87.746 L114.087,87.746 L116.823,93.632 C116.931,93.86 117.024,94.04 117.102,94.172 C117.18,94.304 117.219,94.4 117.219,94.46 C117.219,94.52 117.192,94.565 117.138,94.595 C117.084,94.625 117.027,94.652 116.967,94.676 L116.967,94.676 L116.967,95 L119.685,95 Z M127.623,95 L127.623,94.676 C127.287,94.676 127.119,94.586 127.119,94.406 L127.119,94.406 L127.119,87.674 C127.119,87.494 127.287,87.404 127.623,87.404 L127.623,87.404 L127.623,87.08 L124.887,87.08 L124.887,87.404 C125.079,87.404 125.211,87.425 125.283,87.467 C125.355,87.509 125.391,87.578 125.391,87.674 L125.391,87.674 L125.391,94.406 C125.391,94.502 125.355,94.571 125.283,94.613 C125.211,94.655 125.079,94.676 124.887,94.676 L124.887,94.676 L124.887,95 L127.623,95 Z M133.059,95 L133.059,94.676 C132.987,94.676 132.912,94.655 132.834,94.613 C132.756,94.571 132.717,94.502 132.717,94.406 L132.717,94.406 L132.717,91.832 L135.219,91.832 L136.641,93.956 C136.821,94.208 136.911,94.394 136.911,94.514 C136.911,94.622 136.833,94.676 136.677,94.676 L136.677,94.676 L136.677,95 L139.431,95 L139.431,94.676 C139.299,94.64 139.176,94.589 139.062,94.523 C138.948,94.457 138.843,94.358 138.747,94.226 L138.747,94.226 L136.983,91.652 C137.235,91.592 137.481,91.505 137.721,91.391 C137.961,91.277 138.18,91.127 138.378,90.941 C138.576,90.755 138.735,90.536 138.855,90.284 C138.975,90.032 139.035,89.744 139.035,89.42 C139.035,88.568 138.735,87.965 138.135,87.611 C137.535,87.257 136.701,87.08 135.633,87.08 L135.633,87.08 L130.665,87.08 L130.665,87.404 C130.881,87.404 130.989,87.494 130.989,87.674 L130.989,87.674 L130.989,94.406 C130.989,94.586 130.881,94.676 130.665,94.676 L130.665,94.676 L130.665,95 L133.059,95 Z M135.597,90.5 L132.753,90.5 L132.753,88.412 L135.597,88.412 C136.209,88.412 136.656,88.499 136.938,88.673 C137.22,88.847 137.361,89.084 137.361,89.384 C137.361,90.128 136.773,90.5 135.597,90.5 L135.597,90.5 Z M146.325,95.054 C147.045,95.054 147.672,94.979 148.206,94.829 C148.74,94.679 149.178,94.472 149.52,94.208 C149.862,93.944 150.117,93.641 150.285,93.299 C150.453,92.957 150.537,92.6 150.537,92.228 L150.537,92.228 L150.537,87.674 C150.537,87.494 150.669,87.404 150.933,87.404 L150.933,87.404 L150.933,87.08 L148.431,87.08 L148.431,87.404 C148.731,87.404 148.881,87.494 148.881,87.674 L148.881,87.674 L148.881,91.796 C148.881,92.372 148.671,92.834 148.251,93.182 C147.831,93.53 147.189,93.704 146.325,93.704 C145.461,93.704 144.819,93.53 144.399,93.182 C143.979,92.834 143.769,92.372 143.769,91.796 L143.769,91.796 L143.769,87.674 C143.769,87.494 143.901,87.404 144.165,87.404 L144.165,87.404 L144.165,87.08 L141.591,87.08 L141.591,87.404 C141.795,87.404 141.933,87.425 142.005,87.467 C142.077,87.509 142.113,87.578 142.113,87.674 L142.113,87.674 L142.113,92.228 C142.113,92.6 142.197,92.957 142.365,93.299 C142.533,93.641 142.788,93.944 143.13,94.208 C143.472,94.472 143.91,94.679 144.444,94.829 C144.978,94.979 145.605,95.054 146.325,95.054 Z M157.125,95.054 C157.533,95.054 157.968,95.024 158.43,94.964 C158.892,94.904 159.315,94.778 159.699,94.586 C160.083,94.394 160.404,94.13 160.662,93.794 C160.92,93.458 161.049,93.026 161.049,92.498 C161.049,91.97 160.902,91.556 160.608,91.256 C160.314,90.956 159.945,90.728 159.501,90.572 C159.057,90.416 158.577,90.305 158.061,90.239 C157.545,90.173 157.065,90.107 156.621,90.041 C156.177,89.975 155.808,89.885 155.514,89.771 C155.22,89.657 155.073,89.468 155.073,89.204 C155.073,89.036 155.121,88.895 155.217,88.781 C155.313,88.667 155.445,88.574 155.613,88.502 C155.781,88.43 155.973,88.379 156.189,88.349 C156.405,88.319 156.633,88.304 156.873,88.304 C157.497,88.304 158.061,88.376 158.565,88.52 C159.069,88.664 159.441,88.838 159.681,89.042 C159.777,89.114 159.831,89.186 159.843,89.258 L159.843,89.258 L159.879,89.474 L160.203,89.582 L161.103,87.89 L160.905,87.692 C160.833,87.728 160.773,87.761 160.725,87.791 C160.677,87.821 160.605,87.836 160.509,87.836 C160.425,87.836 160.296,87.791 160.122,87.701 C159.948,87.611 159.723,87.512 159.447,87.404 C159.171,87.296 158.832,87.197 158.43,87.107 C158.028,87.017 157.545,86.972 156.981,86.972 C155.829,86.972 154.935,87.2 154.299,87.656 C153.663,88.112 153.345,88.724 153.345,89.492 C153.345,90.008 153.492,90.407 153.786,90.689 C154.08,90.971 154.449,91.187 154.893,91.337 C155.337,91.487 155.817,91.595 156.333,91.661 C156.849,91.727 157.329,91.793 157.773,91.859 C158.217,91.925 158.586,92.018 158.88,92.138 C159.174,92.258 159.321,92.45 159.321,92.714 C159.321,92.942 159.237,93.125 159.069,93.263 C158.901,93.401 158.697,93.509 158.457,93.587 C158.217,93.665 157.974,93.716 157.728,93.74 C157.482,93.764 157.275,93.776 157.107,93.776 C156.927,93.776 156.678,93.746 156.36,93.686 C156.042,93.626 155.724,93.545 155.406,93.443 C155.088,93.341 154.815,93.215 154.587,93.065 C154.359,92.915 154.245,92.75 154.245,92.57 C154.245,92.51 154.248,92.453 154.254,92.399 C154.26,92.345 154.263,92.294 154.263,92.246 L154.263,92.246 L153.921,92.156 L153.093,94.172 L153.345,94.352 C153.405,94.28 153.477,94.244 153.561,94.244 C153.609,94.244 153.747,94.289 153.975,94.379 C154.203,94.469 154.482,94.565 154.812,94.667 C155.142,94.769 155.508,94.859 155.91,94.937 C156.312,95.015 156.717,95.054 157.125,95.054 Z M166.017,91.724 L166.017,91.508 C165.921,91.508 165.843,91.493 165.783,91.463 C165.723,91.433 165.693,91.37 165.693,91.274 C165.693,91.19 165.699,91.109 165.711,91.031 C165.723,90.953 165.735,90.866 165.747,90.77 L165.747,90.77 L166.305,85.964 C166.329,85.82 166.365,85.718 166.413,85.658 C166.461,85.598 166.575,85.544 166.755,85.496 L166.755,85.496 L166.755,85.28 L163.767,85.28 L163.767,85.496 C163.947,85.544 164.061,85.598 164.109,85.658 C164.157,85.718 164.193,85.82 164.217,85.964 L164.217,85.964 L164.775,90.77 C164.787,90.866 164.799,90.953 164.811,91.031 C164.823,91.109 164.829,91.19 164.829,91.274 C164.829,91.37 164.799,91.433 164.739,91.463 C164.679,91.493 164.601,91.508 164.505,91.508 L164.505,91.508 L164.505,91.724 L166.017,91.724 Z M165.261,95.054 C165.573,95.054 165.843,94.949 166.071,94.739 C166.299,94.529 166.413,94.268 166.413,93.956 C166.413,93.644 166.299,93.374 166.071,93.146 C165.843,92.918 165.573,92.804 165.261,92.804 C164.949,92.804 164.679,92.918 164.451,93.146 C164.223,93.374 164.109,93.644 164.109,93.956 C164.109,94.268 164.223,94.529 164.451,94.739 C164.679,94.949 164.949,95.054 165.261,95.054 Z M173.451,91.724 L173.451,91.508 C173.343,91.508 173.265,91.463 173.217,91.373 C173.169,91.283 173.145,91.172 173.145,91.04 C173.145,90.764 173.253,90.506 173.469,90.266 C173.685,90.026 173.919,89.768 174.171,89.492 C174.435,89.216 174.672,88.913 174.882,88.583 C175.092,88.253 175.197,87.866 175.197,87.422 C175.197,87.062 175.122,86.741 174.972,86.459 C174.822,86.177 174.621,85.943 174.369,85.757 C174.117,85.571 173.832,85.427 173.514,85.325 C173.196,85.223 172.875,85.172 172.551,85.172 C172.047,85.172 171.639,85.232 171.327,85.352 C171.015,85.472 170.757,85.601 170.553,85.739 C170.349,85.877 170.184,86.006 170.058,86.126 C169.932,86.246 169.809,86.306 169.689,86.306 C169.677,86.306 169.611,86.294 169.491,86.27 L169.491,86.27 L169.329,86.432 L170.715,87.944 L170.877,87.818 C170.841,87.71 170.823,87.602 170.823,87.494 C170.823,87.422 170.856,87.329 170.922,87.215 C170.988,87.101 171.084,86.996 171.21,86.9 C171.336,86.804 171.492,86.72 171.678,86.648 C171.864,86.576 172.071,86.54 172.299,86.54 C172.611,86.54 172.872,86.633 173.082,86.819 C173.292,87.005 173.397,87.26 173.397,87.584 C173.397,87.86 173.319,88.103 173.163,88.313 C173.007,88.523 172.827,88.748 172.623,88.988 C172.431,89.216 172.248,89.48 172.074,89.78 C171.9,90.08 171.789,90.482 171.741,90.986 C171.717,91.19 171.678,91.328 171.624,91.4 C171.57,91.472 171.507,91.508 171.435,91.508 L171.435,91.508 L171.435,91.724 L173.451,91.724 Z M172.425,95.054 C172.737,95.054 173.007,94.949 173.235,94.739 C173.463,94.529 173.577,94.268 173.577,93.956 C173.577,93.644 173.463,93.374 173.235,93.146 C173.007,92.918 172.737,92.804 172.425,92.804 C172.113,92.804 171.843,92.918 171.615,93.146 C171.387,93.374 171.273,93.644 171.273,93.956 C171.273,94.268 171.387,94.529 171.615,94.739 C171.843,94.949 172.113,95.054 172.425,95.054 Z" id="startedthisfreakingvirus!?"></path>
        </g>
    </g>
</svg>