<?xml version="1.0" encoding="UTF-8"?>
<svg width="262px" height="360px" viewBox="0 0 262 360" version="1.1" xmlns="http://www.w3.org/2000/svg" xmlns:xlink="http://www.w3.org/1999/xlink">
    <title>Chest Pain 5</title>
    <g id="Chest-Pain-5" stroke="none" stroke-width="1" fill="none" fill-rule="evenodd">
        <g id="Group" transform="translate(9.000000, 9.000000)" fill="#FFFFFF" stroke="#000000" stroke-width="3">
            <g id="Rectangle">
                <rect x="1.5" y="1.5" width="239" height="337" rx="8"></rect>
            </g>
        </g>
        <path d="M213.652,30.072 C214.292,30.072 214.976,30.02 215.704,29.916 C216.432,29.812 217.1,29.604 217.708,29.292 C218.316,28.98 218.824,28.56 219.232,28.032 C219.64,27.504 219.844,26.832 219.844,26.016 C219.844,25.296 219.624,24.7 219.184,24.228 C218.744,23.756 218.18,23.44 217.492,23.28 L217.492,23.28 L217.492,23.232 C218.068,23.104 218.524,22.796 218.86,22.308 C219.196,21.82 219.364,21.288 219.364,20.712 C219.364,20.088 219.2,19.556 218.872,19.116 C218.544,18.676 218.12,18.316 217.6,18.036 C217.08,17.756 216.504,17.552 215.872,17.424 C215.24,17.296 214.612,17.232 213.988,17.232 C213.06,17.232 212.272,17.324 211.624,17.508 C210.976,17.692 210.444,17.896 210.028,18.12 C209.612,18.344 209.296,18.548 209.08,18.732 C208.864,18.916 208.716,19.008 208.636,19.008 C208.492,19.008 208.356,18.968 208.228,18.888 L208.228,18.888 L207.94,19.104 L209.86,21.552 L210.076,21.408 C210.044,21.328 210.02,21.244 210.004,21.156 C209.988,21.068 209.98,20.992 209.98,20.928 C209.98,20.736 210.1,20.544 210.34,20.352 C210.58,20.16 210.884,19.984 211.252,19.824 C211.62,19.664 212.028,19.536 212.476,19.44 C212.924,19.344 213.364,19.296 213.796,19.296 C214.164,19.296 214.528,19.316 214.888,19.356 C215.248,19.396 215.576,19.472 215.872,19.584 C216.168,19.696 216.408,19.852 216.592,20.052 C216.776,20.252 216.868,20.512 216.868,20.832 C216.868,21.168 216.764,21.448 216.556,21.672 C216.348,21.896 216.096,22.072 215.8,22.2 C215.504,22.328 215.188,22.416 214.852,22.464 C214.516,22.512 214.22,22.536 213.964,22.536 C213.58,22.536 213.232,22.484 212.92,22.38 C212.608,22.276 212.436,22.064 212.404,21.744 L212.404,21.744 L212.116,21.744 L212.116,25.008 L212.404,25.008 C212.5,24.72 212.688,24.54 212.968,24.468 C213.248,24.396 213.58,24.36 213.964,24.36 C214.236,24.36 214.56,24.38 214.936,24.42 C215.312,24.46 215.668,24.544 216.004,24.672 C216.34,24.8 216.624,24.98 216.856,25.212 C217.088,25.444 217.204,25.752 217.204,26.136 C217.204,26.536 217.084,26.86 216.844,27.108 C216.604,27.356 216.312,27.552 215.968,27.696 C215.624,27.84 215.256,27.94 214.864,27.996 C214.472,28.052 214.132,28.08 213.844,28.08 C213.476,28.08 213.024,28.028 212.488,27.924 C211.952,27.82 211.44,27.668 210.952,27.468 C210.464,27.268 210.044,27.024 209.692,26.736 C209.34,26.448 209.164,26.12 209.164,25.752 L209.164,25.752 L209.164,25.584 C209.164,25.504 209.172,25.448 209.188,25.416 L209.188,25.416 L208.924,25.272 L207.532,28.728 L207.748,28.8 C207.812,28.768 207.872,28.736 207.928,28.704 C207.984,28.672 208.052,28.656 208.132,28.656 C208.26,28.656 208.48,28.732 208.792,28.884 C209.104,29.036 209.5,29.204 209.98,29.388 C210.46,29.572 211.012,29.732 211.636,29.868 C212.26,30.004 212.932,30.072 213.652,30.072 Z" id="3" fill="#000000" fill-rule="nonzero"></path>
        <g id="Face" transform="translate(225.000000, 15.000000)">
            <circle id="Oval" stroke="#000000" fill="#FFFFFF" cx="9.5" cy="9.5" r="9"></circle>
            <circle id="Oval" fill="#000000" cx="5" cy="8" r="1"></circle>
            <circle id="Oval-Copy" fill="#000000" cx="12" cy="8" r="1"></circle>
            <line x1="12.0789474" y1="13.9090909" x2="14.5" y2="11.5" id="Line-4" stroke="#000000" stroke-linecap="round"></line>
            <path d="M3,5.89285714 C3.41025641,5.96428571 3.76923077,6 4.07692308,6 C4.38461538,6 5.35897436,5.33333333 7,4" id="Line-2" stroke="#000000"></path>
            <path d="M6,15 C6.96078431,14.3333333 8.07598039,14 9.34558824,14 C10.6151961,14 11.8333333,14.3333333 13,15" id="Line" stroke="#000000" stroke-linecap="round" stroke-linejoin="round"></path>
            <path d="M11.3197366,4.68245322 C11.585843,4.80663622 11.7912611,4.92388646 11.9359908,5.03420394 C12.548667,5.50120471 13.1333088,5.70898724 13.3155349,5.80010028 C13.5440857,5.91437569 13.8101922,6.00751295 14.1138542,6.07951204" id="Line-3" stroke="#000000" stroke-linecap="square" transform="translate(12.716795, 5.380983) rotate(-3.000000) translate(-12.716795, -5.380983) "></path>
            <path d="M2.999,9.347 L3.01687864,9.39698204 C3.09438102,9.62639002 3.1880913,9.89570266 3.30282211,10.2112791 C3.48139895,10.7024692 3.54804655,11.0169045 3.47980817,11.2204078 C3.41244402,11.421304 3.17143148,11.4011566 3.01518318,11.4416373 L3.01518318,11.4416373 L2.86575433,11.4813457 C2.78836954,11.5029149 2.70310591,11.5126925 2.63007237,11.4810832 C2.58941161,11.463485 2.56030088,11.4264037 2.54036126,11.376794 C2.4446463,11.1386559 2.49784548,10.759559 2.69717789,10.2112791 C2.8119087,9.89570266 2.90561898,9.62639002 2.98312136,9.39698204 L2.999,9.347 Z" id="Oval" stroke="#000000"></path>
            <path d="M16,6.347 L16.0168786,6.39698204 C16.094381,6.62639002 16.1880913,6.89570266 16.3028221,7.21127907 C16.481399,7.70246915 16.5480465,8.01690453 16.4798082,8.22040783 C16.412444,8.42130397 16.1714315,8.40115659 16.0151832,8.44163726 L16.0151832,8.44163726 L15.8657543,8.48134574 C15.7883695,8.50291486 15.7031059,8.51269255 15.6300724,8.48108319 C15.5894116,8.46348497 15.5603009,8.42640366 15.5403613,8.37679403 C15.4446463,8.13865595 15.4978455,7.75955902 15.6971779,7.21127907 C15.8119087,6.89570266 15.905619,6.62639002 15.9831214,6.39698204 L16,6.347 Z" id="Oval-Copy-2" stroke="#000000"></path>
        </g>
        <rect id="Rectangle" stroke="#000000" stroke-width="3" x="17.5" y="255.5" width="225" height="86" rx="8"></rect>
        <path d="M45.442,61.108 C46.594,61.108 47.698,60.976 48.754,60.712 C49.81,60.448 50.752,60.136 51.58,59.776 C52.408,59.416 53.092,59.092 53.632,58.804 C54.172,58.516 54.514,58.372 54.658,58.372 C54.73,58.372 54.796,58.378 54.856,58.39 C54.916,58.402 54.982,58.408 55.054,58.408 L55.054,58.408 L55.342,58.12 L52.966,54.304 L52.462,54.592 C52.558,54.712 52.606,54.856 52.606,55.024 C52.606,55.336 52.372,55.666 51.904,56.014 C51.436,56.362 50.854,56.674 50.158,56.95 C49.462,57.226 48.694,57.454 47.854,57.634 C47.014,57.814 46.21,57.904 45.442,57.904 C44.434,57.904 43.468,57.76 42.544,57.472 C41.62,57.184 40.816,56.764 40.132,56.212 C39.448,55.66 38.902,54.982 38.494,54.178 C38.086,53.374 37.882,52.456 37.882,51.424 C37.882,50.392 38.086,49.474 38.494,48.67 C38.902,47.866 39.448,47.188 40.132,46.636 C40.816,46.084 41.62,45.664 42.544,45.376 C43.468,45.088 44.434,44.944 45.442,44.944 C46.042,44.944 46.696,45.016 47.404,45.16 C48.112,45.304 48.784,45.484 49.42,45.7 C50.056,45.916 50.59,46.162 51.022,46.438 C51.454,46.714 51.694,46.984 51.742,47.248 C51.766,47.344 51.784,47.428 51.796,47.5 C51.808,47.572 51.814,47.644 51.814,47.716 L51.814,47.716 L52.174,47.968 L54.982,43.612 L54.442,43.18 C54.394,43.252 54.328,43.348 54.244,43.468 C54.16,43.588 54.058,43.648 53.938,43.648 C53.842,43.648 53.578,43.552 53.146,43.36 C52.714,43.168 52.126,42.964 51.382,42.748 C50.638,42.532 49.768,42.328 48.772,42.136 C47.776,41.944 46.666,41.848 45.442,41.848 C43.93,41.848 42.478,42.052 41.086,42.46 C39.694,42.868 38.464,43.48 37.396,44.296 C36.328,45.112 35.482,46.126 34.858,47.338 C34.234,48.55 33.922,49.948 33.922,51.532 C33.922,53.14 34.234,54.544 34.858,55.744 C35.482,56.944 36.328,57.946 37.396,58.75 C38.464,59.554 39.694,60.148 41.086,60.532 C42.478,60.916 43.93,61.108 45.442,61.108 Z M65.674,61 L65.674,60.352 C65.53,60.352 65.404,60.31 65.296,60.226 C65.188,60.142 65.134,60.004 65.134,59.812 L65.134,59.812 L65.134,54.376 L74.782,54.376 L74.782,59.812 C74.782,60.004 74.728,60.142 74.62,60.226 C74.512,60.31 74.386,60.352 74.242,60.352 L74.242,60.352 L74.242,61 L78.778,61 L78.778,60.352 C78.634,60.352 78.508,60.31 78.4,60.226 C78.292,60.142 78.238,60.004 78.238,59.812 L78.238,59.812 L78.238,46.348 C78.238,46.156 78.292,46.018 78.4,45.934 C78.508,45.85 78.634,45.808 78.778,45.808 L78.778,45.808 L78.778,45.16 L74.242,45.16 L74.242,45.808 C74.386,45.808 74.512,45.85 74.62,45.934 C74.728,46.018 74.782,46.156 74.782,46.348 L74.782,46.348 L74.782,51.424 L65.134,51.424 L65.134,46.348 C65.134,46.156 65.188,46.018 65.296,45.934 C65.404,45.85 65.53,45.808 65.674,45.808 L65.674,45.808 L65.674,45.16 L61.138,45.16 L61.138,45.808 C61.282,45.808 61.408,45.85 61.516,45.934 C61.624,46.018 61.678,46.156 61.678,46.348 L61.678,46.348 L61.678,59.812 C61.678,60.004 61.624,60.142 61.516,60.226 C61.408,60.31 61.282,60.352 61.138,60.352 L61.138,60.352 L61.138,61 L65.674,61 Z M99.802,61.396 L99.802,57.616 L99.154,57.616 C99.154,57.832 99.058,58.006 98.866,58.138 C98.674,58.27 98.434,58.336 98.146,58.336 L98.146,58.336 L88.93,58.336 L88.93,54.088 L94.186,54.088 C94.666,54.088 95.038,54.118 95.302,54.178 C95.566,54.238 95.662,54.4 95.59,54.664 L95.59,54.664 L96.31,54.664 L96.31,50.848 L95.662,50.848 C95.662,51.112 95.566,51.274 95.374,51.334 C95.182,51.394 94.882,51.424 94.474,51.424 L94.474,51.424 L88.93,51.424 L88.93,47.824 L97.714,47.824 C98.458,47.824 98.83,48.052 98.83,48.508 L98.83,48.508 L99.478,48.508 L99.478,44.512 L98.83,44.512 C98.83,44.944 98.458,45.16 97.714,45.16 L97.714,45.16 L84.934,45.16 L84.934,45.808 C85.054,45.808 85.174,45.85 85.294,45.934 C85.414,46.018 85.474,46.156 85.474,46.348 L85.474,46.348 L85.474,59.812 C85.474,60.004 85.414,60.142 85.294,60.226 C85.174,60.31 85.054,60.352 84.934,60.352 L84.934,60.352 L84.934,61 L98.146,61 C98.434,61 98.674,61.012 98.866,61.036 C99.058,61.06 99.154,61.18 99.154,61.396 L99.154,61.396 L99.802,61.396 Z M111.718,61.108 C112.534,61.108 113.404,61.048 114.328,60.928 C115.252,60.808 116.098,60.556 116.866,60.172 C117.634,59.788 118.276,59.26 118.792,58.588 C119.308,57.916 119.566,57.052 119.566,55.996 C119.566,54.94 119.272,54.112 118.684,53.512 C118.096,52.912 117.358,52.456 116.47,52.144 C115.582,51.832 114.622,51.61 113.59,51.478 C112.558,51.346 111.598,51.214 110.71,51.082 C109.822,50.95 109.084,50.77 108.496,50.542 C107.908,50.314 107.614,49.936 107.614,49.408 C107.614,49.072 107.71,48.79 107.902,48.562 C108.094,48.334 108.358,48.148 108.694,48.004 C109.03,47.86 109.414,47.758 109.846,47.698 C110.278,47.638 110.734,47.608 111.214,47.608 C112.462,47.608 113.59,47.752 114.598,48.04 C115.606,48.328 116.35,48.676 116.83,49.084 C117.022,49.228 117.13,49.372 117.154,49.516 C117.178,49.66 117.202,49.804 117.226,49.948 L117.226,49.948 L117.874,50.164 L119.674,46.78 L119.278,46.384 C119.134,46.456 119.014,46.522 118.918,46.582 C118.822,46.642 118.678,46.672 118.486,46.672 C118.318,46.672 118.06,46.582 117.712,46.402 L117.5295,46.3105 C117.211167,46.1555 116.822,45.988 116.362,45.808 C115.81,45.592 115.132,45.394 114.328,45.214 C113.524,45.034 112.558,44.944 111.43,44.944 C109.126,44.944 107.338,45.4 106.066,46.312 C104.794,47.224 104.158,48.448 104.158,49.984 C104.158,51.016 104.452,51.814 105.04,52.378 C105.628,52.942 106.366,53.374 107.254,53.674 C108.142,53.974 109.102,54.19 110.134,54.322 C111.166,54.454 112.126,54.586 113.014,54.718 C113.902,54.85 114.64,55.036 115.228,55.276 C115.816,55.516 116.11,55.9 116.11,56.428 C116.11,56.884 115.942,57.25 115.606,57.526 C115.27,57.802 114.862,58.018 114.382,58.174 C113.902,58.33 113.416,58.432 112.924,58.48 C112.432,58.528 112.018,58.552 111.682,58.552 C111.322,58.552 110.824,58.492 110.188,58.372 C109.552,58.252 108.916,58.09 108.28,57.886 C107.644,57.682 107.098,57.43 106.642,57.13 C106.186,56.83 105.958,56.5 105.958,56.14 C105.958,56.02 105.964,55.906 105.976,55.798 C105.988,55.69 105.994,55.588 105.994,55.492 L105.994,55.492 L105.31,55.312 L103.654,59.344 L104.158,59.704 C104.278,59.56 104.422,59.488 104.59,59.488 C104.686,59.488 104.962,59.578 105.418,59.758 C105.874,59.938 106.432,60.13 107.092,60.334 C107.752,60.538 108.484,60.718 109.288,60.874 C110.092,61.03 110.902,61.108 111.718,61.108 Z M133.39,61 L133.39,60.352 C132.958,60.352 132.742,60.172 132.742,59.812 L132.742,59.812 L132.742,47.824 L137.422,47.824 C137.614,47.824 137.794,47.872 137.962,47.968 C138.13,48.064 138.214,48.22 138.214,48.436 L138.214,48.436 L138.862,48.436 L138.862,44.296 L138.214,44.296 C138.214,44.632 138.13,44.86 137.962,44.98 C137.794,45.1 137.614,45.16 137.422,45.16 L137.422,45.16 L124.606,45.16 C124.414,45.16 124.234,45.1 124.066,44.98 C123.898,44.86 123.814,44.632 123.814,44.296 L123.814,44.296 L123.166,44.296 L123.166,48.436 L123.814,48.436 C123.814,48.22 123.898,48.064 124.066,47.968 C124.234,47.872 124.414,47.824 124.606,47.824 L124.606,47.824 L129.286,47.824 L129.286,59.812 C129.286,60.004 129.226,60.142 129.106,60.226 C128.986,60.31 128.866,60.352 128.746,60.352 L128.746,60.352 L128.746,61 L133.39,61 Z M160.318,61 L160.318,60.352 C159.55,60.352 159.166,60.136 159.166,59.704 L159.166,59.704 L159.166,53.296 L166.402,53.296 C168.706,53.296 170.518,52.87 171.838,52.018 C173.158,51.166 173.818,49.72 173.818,47.68 C173.818,45.64 173.158,44.194 171.838,43.342 C170.518,42.49 168.706,42.064 166.402,42.064 L166.402,42.064 L153.73,42.064 L153.73,42.712 C154.618,42.712 155.062,42.928 155.062,43.36 L155.062,43.36 L155.062,59.704 C155.062,60.136 154.618,60.352 153.73,60.352 L153.73,60.352 L153.73,61 L160.318,61 Z M166.834,49.984 L159.166,49.984 L159.166,45.376 L166.834,45.376 C167.626,45.376 168.304,45.532 168.868,45.844 C169.432,46.156 169.714,46.768 169.714,47.68 C169.714,48.592 169.432,49.204 168.868,49.516 C168.304,49.828 167.626,49.984 166.834,49.984 L166.834,49.984 Z M180.37,61 L180.37,60.352 C180.154,60.352 179.986,60.328 179.866,60.28 C179.746,60.232 179.686,60.112 179.686,59.92 C179.686,59.8 179.716,59.662 179.776,59.506 C179.836,59.35 179.914,59.176 180.01,58.984 L180.01,58.984 L181.018,57.04 L188.722,57.04 L189.694,59.092 C189.766,59.284 189.826,59.44 189.874,59.56 C189.922,59.68 189.946,59.812 189.946,59.956 C189.946,60.148 189.88,60.28 189.748,60.352 C189.616,60.424 189.49,60.46 189.37,60.46 L189.37,60.46 L189.37,61 L194.482,61 L194.482,60.352 C194.314,60.304 194.158,60.232 194.014,60.136 C193.87,60.04 193.738,59.884 193.618,59.668 L193.618,59.668 L187.786,47.428 C187.666,47.164 187.552,46.93 187.444,46.726 C187.336,46.522 187.282,46.348 187.282,46.204 C187.282,46.036 187.324,45.94 187.408,45.916 C187.492,45.892 187.57,45.856 187.642,45.808 L187.642,45.808 L187.642,45.16 L182.206,45.16 L182.206,45.808 C182.278,45.856 182.344,45.898 182.404,45.934 C182.464,45.97 182.494,46.06 182.494,46.204 C182.494,46.396 182.452,46.594 182.368,46.798 C182.284,47.002 182.17,47.272 182.026,47.608 L182.026,47.608 L176.662,59.308 C176.566,59.5 176.428,59.71 176.248,59.938 C176.068,60.166 175.834,60.304 175.546,60.352 L175.546,60.352 L175.546,61 L180.37,61 Z M187.57,54.376 L182.098,54.376 L184.654,48.328 L187.57,54.376 Z M203.734,61 L203.734,60.352 C203.062,60.352 202.726,60.172 202.726,59.812 L202.726,59.812 L202.726,46.348 C202.726,45.988 203.062,45.808 203.734,45.808 L203.734,45.808 L203.734,45.16 L198.262,45.16 L198.262,45.808 C198.646,45.808 198.91,45.85 199.054,45.934 C199.198,46.018 199.27,46.156 199.27,46.348 L199.27,46.348 L199.27,59.812 C199.27,60.004 199.198,60.142 199.054,60.226 C198.91,60.31 198.646,60.352 198.262,60.352 L198.262,60.352 L198.262,61 L203.734,61 Z M214.354,61 L214.354,60.352 C213.85,60.352 213.598,60.172 213.598,59.812 L213.598,59.812 L213.598,49.336 L222.526,58.84 C222.814,59.152 223.072,59.428 223.3,59.668 C223.528,59.908 223.642,60.076 223.642,60.172 C223.642,60.292 223.558,60.352 223.39,60.352 L223.39,60.352 L223.39,61 L228.07,61 L228.07,60.352 C227.638,60.352 227.422,60.172 227.422,59.812 L227.422,59.812 L227.422,46.348 C227.422,45.988 227.638,45.808 228.07,45.808 L228.07,45.808 L228.07,45.16 L223.678,45.16 L223.678,45.808 C224.158,45.808 224.398,45.988 224.398,46.348 L224.398,46.348 L224.398,56.104 L215.758,46.96 C215.23,46.432 214.966,46.108 214.966,45.988 C214.966,45.892 215.05,45.832 215.218,45.808 L215.218,45.808 L215.218,45.16 L209.926,45.16 L209.926,45.808 C210.358,45.808 210.574,45.988 210.574,46.348 L210.574,46.348 L210.574,59.812 C210.574,60.172 210.358,60.352 209.926,60.352 L209.926,60.352 L209.926,61 L214.354,61 Z" id="ChestPain" fill="#000000" fill-rule="nonzero"></path>
        <path d="M69.404,274 L69.404,273.676 C69.14,273.676 69.008,273.568 69.008,273.352 L69.008,273.352 L69.008,266.188 L71.978,266.188 C72.086,266.188 72.191,266.218 72.293,266.278 C72.395,266.338 72.446,266.452 72.446,266.62 L72.446,266.62 L72.77,266.62 L72.77,264.1 L72.446,264.1 C72.446,264.268 72.395,264.382 72.293,264.442 C72.191,264.502 72.086,264.532 71.978,264.532 L71.978,264.532 L63.986,264.532 C63.878,264.532 63.773,264.502 63.671,264.442 C63.569,264.382 63.518,264.268 63.518,264.1 L63.518,264.1 L63.194,264.1 L63.194,266.62 L63.518,266.62 C63.518,266.452 63.569,266.338 63.671,266.278 C63.773,266.218 63.878,266.188 63.986,266.188 L63.986,266.188 L66.956,266.188 L66.956,273.352 C66.956,273.46 66.923,273.541 66.857,273.595 C66.791,273.649 66.716,273.676 66.632,273.676 L66.632,273.676 L66.632,274 L69.404,274 Z M78.98,274.054 C79.64,274.054 80.261,273.979 80.843,273.829 C81.425,273.679 81.932,273.436 82.364,273.1 C82.796,272.764 83.138,272.341 83.39,271.831 C83.642,271.321 83.768,270.724 83.768,270.04 C83.768,269.356 83.642,268.759 83.39,268.249 C83.138,267.739 82.796,267.316 82.364,266.98 C81.932,266.644 81.425,266.392 80.843,266.224 C80.261,266.056 79.64,265.972 78.98,265.972 C78.32,265.972 77.699,266.056 77.117,266.224 C76.535,266.392 76.028,266.644 75.596,266.98 C75.164,267.316 74.822,267.739 74.57,268.249 C74.318,268.759 74.192,269.356 74.192,270.04 C74.192,270.724 74.318,271.321 74.57,271.831 C74.822,272.341 75.164,272.764 75.596,273.1 C76.028,273.436 76.535,273.679 77.117,273.829 C77.699,273.979 78.32,274.054 78.98,274.054 Z M78.98,272.776 C78.596,272.776 78.221,272.713 77.855,272.587 C77.489,272.461 77.162,272.281 76.874,272.047 C76.586,271.813 76.355,271.528 76.181,271.192 C76.007,270.856 75.92,270.472 75.92,270.04 C75.92,269.608 76.007,269.224 76.181,268.888 C76.355,268.552 76.586,268.267 76.874,268.033 C77.162,267.799 77.489,267.619 77.855,267.493 C78.221,267.367 78.596,267.304 78.98,267.304 C79.364,267.304 79.739,267.367 80.105,267.493 C80.471,267.619 80.798,267.799 81.086,268.033 C81.374,268.267 81.605,268.552 81.779,268.888 C81.953,269.224 82.04,269.608 82.04,270.04 C82.04,270.472 81.953,270.856 81.779,271.192 C81.605,271.528 81.374,271.813 81.086,272.047 C80.798,272.281 80.471,272.461 80.105,272.587 C79.739,272.713 79.364,272.776 78.98,272.776 Z M90.176,274 L90.176,273.676 C89.96,273.676 89.852,273.586 89.852,273.406 L89.852,273.406 L89.852,267.412 L92.192,267.412 C92.288,267.412 92.378,267.436 92.462,267.484 C92.546,267.532 92.588,267.61 92.588,267.718 L92.588,267.718 L92.912,267.718 L92.912,265.648 L92.588,265.648 C92.588,265.816 92.546,265.93 92.462,265.99 C92.378,266.05 92.288,266.08 92.192,266.08 L92.192,266.08 L85.784,266.08 C85.688,266.08 85.598,266.05 85.514,265.99 C85.43,265.93 85.388,265.816 85.388,265.648 L85.388,265.648 L85.064,265.648 L85.064,267.718 L85.388,267.718 C85.388,267.61 85.43,267.532 85.514,267.484 C85.598,267.436 85.688,267.412 85.784,267.412 L85.784,267.412 L88.124,267.412 L88.124,273.406 C88.124,273.502 88.094,273.571 88.034,273.613 C87.974,273.655 87.914,273.676 87.854,273.676 L87.854,273.676 L87.854,274 L90.176,274 Z M96.17,274 L96.17,273.676 C96.062,273.676 95.978,273.664 95.918,273.64 C95.858,273.616 95.828,273.556 95.828,273.46 C95.828,273.4 95.843,273.331 95.873,273.253 C95.903,273.175 95.942,273.088 95.99,272.992 L95.99,272.992 L96.494,272.02 L100.346,272.02 L100.832,273.046 C100.868,273.142 100.898,273.22 100.922,273.28 C100.946,273.34 100.958,273.406 100.958,273.478 C100.958,273.574 100.925,273.64 100.859,273.676 C100.793,273.712 100.73,273.73 100.67,273.73 L100.67,273.73 L100.67,274 L103.226,274 L103.226,273.676 C103.142,273.652 103.064,273.616 102.992,273.568 C102.92,273.52 102.854,273.442 102.794,273.334 L102.794,273.334 L99.878,267.214 C99.818,267.082 99.761,266.965 99.707,266.863 C99.653,266.761 99.626,266.674 99.626,266.602 C99.626,266.518 99.647,266.47 99.689,266.458 C99.731,266.446 99.77,266.428 99.806,266.404 L99.806,266.404 L99.806,266.08 L97.088,266.08 L97.088,266.404 C97.124,266.428 97.157,266.449 97.187,266.467 C97.217,266.485 97.232,266.53 97.232,266.602 C97.232,266.698 97.211,266.797 97.169,266.899 C97.127,267.001 97.07,267.136 96.998,267.304 L96.998,267.304 L94.316,273.154 C94.268,273.25 94.199,273.355 94.109,273.469 C94.019,273.583 93.902,273.652 93.758,273.676 L93.758,273.676 L93.758,274 L96.17,274 Z M99.77,270.688 L97.034,270.688 L98.312,267.664 L99.77,270.688 Z M112.748,274.18 L112.748,272.29 L112.424,272.29 C112.424,272.41 112.376,272.503 112.28,272.569 C112.184,272.635 112.064,272.668 111.92,272.668 L111.92,272.668 L107.06,272.668 L107.06,266.674 C107.06,266.494 107.198,266.404 107.474,266.404 L107.474,266.404 L107.474,266.08 L104.864,266.08 L104.864,266.404 C105.176,266.404 105.332,266.494 105.332,266.674 L105.332,266.674 L105.332,273.406 C105.332,273.586 105.176,273.676 104.864,273.676 L104.864,273.676 L104.864,274 L111.92,274 C112.064,274 112.184,274.006 112.28,274.018 C112.376,274.03 112.424,274.084 112.424,274.18 L112.424,274.18 L112.748,274.18 Z M122.756,274.18 L122.756,272.29 L122.432,272.29 C122.432,272.41 122.384,272.503 122.288,272.569 C122.192,272.635 122.072,272.668 121.928,272.668 L121.928,272.668 L117.068,272.668 L117.068,266.674 C117.068,266.494 117.206,266.404 117.482,266.404 L117.482,266.404 L117.482,266.08 L114.872,266.08 L114.872,266.404 C115.184,266.404 115.34,266.494 115.34,266.674 L115.34,266.674 L115.34,273.406 C115.34,273.586 115.184,273.676 114.872,273.676 L114.872,273.676 L114.872,274 L121.928,274 C122.072,274 122.192,274.006 122.288,274.018 C122.384,274.03 122.432,274.084 122.432,274.18 L122.432,274.18 L122.756,274.18 Z M129.722,274 L129.722,273.676 C129.494,273.676 129.38,273.586 129.38,273.406 L129.38,273.406 L129.38,270.706 L132.134,267.142 C132.266,266.974 132.419,266.809 132.593,266.647 C132.767,266.485 132.926,266.404 133.07,266.404 L133.07,266.404 L133.07,266.08 L130.316,266.08 L130.316,266.404 C130.376,266.404 130.436,266.416 130.496,266.44 C130.556,266.464 130.586,266.524 130.586,266.62 C130.586,266.692 130.559,266.767 130.505,266.845 C130.451,266.923 130.37,267.04 130.262,267.196 L130.262,267.196 L128.66,269.428 L126.842,267.052 C126.782,266.968 126.728,266.896 126.68,266.836 C126.632,266.776 126.608,266.71 126.608,266.638 C126.608,266.566 126.644,266.509 126.716,266.467 C126.788,266.425 126.854,266.404 126.914,266.404 L126.914,266.404 L126.914,266.08 L123.944,266.08 L123.944,266.404 C124.052,266.404 124.166,266.428 124.286,266.476 C124.406,266.524 124.508,266.602 124.592,266.71 L124.592,266.71 L127.652,270.634 L127.652,273.406 C127.652,273.586 127.544,273.676 127.328,273.676 L127.328,273.676 L127.328,274 L129.722,274 Z M142.682,274 L142.682,273.676 C142.43,273.676 142.304,273.586 142.304,273.406 L142.304,273.406 L142.304,268.168 L146.768,272.92 C146.912,273.076 147.041,273.214 147.155,273.334 C147.269,273.454 147.326,273.538 147.326,273.586 C147.326,273.646 147.284,273.676 147.2,273.676 L147.2,273.676 L147.2,274 L149.54,274 L149.54,273.676 C149.324,273.676 149.216,273.586 149.216,273.406 L149.216,273.406 L149.216,266.674 C149.216,266.494 149.324,266.404 149.54,266.404 L149.54,266.404 L149.54,266.08 L147.344,266.08 L147.344,266.404 C147.584,266.404 147.704,266.494 147.704,266.674 L147.704,266.674 L147.704,271.552 L143.384,266.98 C143.12,266.716 142.988,266.554 142.988,266.494 C142.988,266.446 143.03,266.416 143.114,266.404 L143.114,266.404 L143.114,266.08 L140.468,266.08 L140.468,266.404 C140.684,266.404 140.792,266.494 140.792,266.674 L140.792,266.674 L140.792,273.406 C140.792,273.586 140.684,273.676 140.468,273.676 L140.468,273.676 L140.468,274 L142.682,274 Z M156.506,274.054 C157.166,274.054 157.787,273.979 158.369,273.829 C158.951,273.679 159.458,273.436 159.89,273.1 C160.322,272.764 160.664,272.341 160.916,271.831 C161.168,271.321 161.294,270.724 161.294,270.04 C161.294,269.356 161.168,268.759 160.916,268.249 C160.664,267.739 160.322,267.316 159.89,266.98 C159.458,266.644 158.951,266.392 158.369,266.224 C157.787,266.056 157.166,265.972 156.506,265.972 C155.846,265.972 155.225,266.056 154.643,266.224 C154.061,266.392 153.554,266.644 153.122,266.98 C152.69,267.316 152.348,267.739 152.096,268.249 C151.844,268.759 151.718,269.356 151.718,270.04 C151.718,270.724 151.844,271.321 152.096,271.831 C152.348,272.341 152.69,272.764 153.122,273.1 C153.554,273.436 154.061,273.679 154.643,273.829 C155.225,273.979 155.846,274.054 156.506,274.054 Z M156.506,272.776 C156.122,272.776 155.747,272.713 155.381,272.587 C155.015,272.461 154.688,272.281 154.4,272.047 C154.112,271.813 153.881,271.528 153.707,271.192 C153.533,270.856 153.446,270.472 153.446,270.04 C153.446,269.608 153.533,269.224 153.707,268.888 C153.881,268.552 154.112,268.267 154.4,268.033 C154.688,267.799 155.015,267.619 155.381,267.493 C155.747,267.367 156.122,267.304 156.506,267.304 C156.89,267.304 157.265,267.367 157.631,267.493 C157.997,267.619 158.324,267.799 158.612,268.033 C158.9,268.267 159.131,268.552 159.305,268.888 C159.479,269.224 159.566,269.608 159.566,270.04 C159.566,270.472 159.479,270.856 159.305,271.192 C159.131,271.528 158.9,271.813 158.612,272.047 C158.324,272.281 157.997,272.461 157.631,272.587 C157.265,272.713 156.89,272.776 156.506,272.776 Z M167.702,274 L167.702,273.676 C167.486,273.676 167.378,273.586 167.378,273.406 L167.378,273.406 L167.378,267.412 L169.718,267.412 C169.814,267.412 169.904,267.436 169.988,267.484 C170.072,267.532 170.114,267.61 170.114,267.718 L170.114,267.718 L170.438,267.718 L170.438,265.648 L170.114,265.648 C170.114,265.816 170.072,265.93 169.988,265.99 C169.904,266.05 169.814,266.08 169.718,266.08 L169.718,266.08 L163.31,266.08 C163.214,266.08 163.124,266.05 163.04,265.99 C162.956,265.93 162.914,265.816 162.914,265.648 L162.914,265.648 L162.59,265.648 L162.59,267.718 L162.914,267.718 C162.914,267.61 162.956,267.532 163.04,267.484 C163.124,267.436 163.214,267.412 163.31,267.412 L163.31,267.412 L165.65,267.412 L165.65,273.406 C165.65,273.502 165.62,273.571 165.56,273.613 C165.5,273.655 165.44,273.676 165.38,273.676 L165.38,273.676 L165.38,274 L167.702,274 Z M180.212,274 L180.212,273.676 C180.008,273.676 179.906,273.586 179.906,273.406 L179.906,273.406 L179.906,268.348 L179.924,268.348 L182.822,274 L182.966,274 L186.026,268.348 L186.062,268.348 L186.062,273.406 C186.098,273.586 185.99,273.676 185.738,273.676 L185.738,273.676 L185.738,274 L187.826,274 L187.826,273.676 C187.766,273.676 187.709,273.655 187.655,273.613 C187.601,273.571 187.574,273.502 187.574,273.406 L187.574,273.406 L187.574,266.638 C187.574,266.542 187.601,266.479 187.655,266.449 C187.709,266.419 187.766,266.404 187.826,266.404 L187.826,266.404 L187.826,266.08 L185.288,266.08 L185.288,266.404 C185.384,266.404 185.432,266.458 185.432,266.566 C185.432,266.602 185.408,266.665 185.36,266.755 C185.312,266.845 185.246,266.962 185.162,267.106 L185.162,267.106 L182.948,271.138 L180.752,267.088 C180.668,266.944 180.605,266.833 180.563,266.755 C180.521,266.677 180.5,266.614 180.5,266.566 C180.5,266.458 180.56,266.404 180.68,266.404 L180.68,266.404 L180.68,266.08 L178.178,266.08 L178.178,266.404 C178.262,266.404 178.319,266.422 178.349,266.458 C178.379,266.494 178.394,266.596 178.394,266.764 L178.394,266.764 L178.394,273.352 C178.394,273.484 178.373,273.568 178.331,273.604 C178.289,273.64 178.238,273.664 178.178,273.676 L178.178,273.676 L178.178,274 L180.212,274 Z M195.71,274 L195.71,273.676 C195.482,273.676 195.368,273.586 195.368,273.406 L195.368,273.406 L195.368,270.706 L198.122,267.142 C198.254,266.974 198.407,266.809 198.581,266.647 C198.755,266.485 198.914,266.404 199.058,266.404 L199.058,266.404 L199.058,266.08 L196.304,266.08 L196.304,266.404 C196.364,266.404 196.424,266.416 196.484,266.44 C196.544,266.464 196.574,266.524 196.574,266.62 C196.574,266.692 196.547,266.767 196.493,266.845 C196.439,266.923 196.358,267.04 196.25,267.196 L196.25,267.196 L194.648,269.428 L192.83,267.052 C192.77,266.968 192.716,266.896 192.668,266.836 C192.62,266.776 192.596,266.71 192.596,266.638 C192.596,266.566 192.632,266.509 192.704,266.467 C192.776,266.425 192.842,266.404 192.902,266.404 L192.902,266.404 L192.902,266.08 L189.932,266.08 L189.932,266.404 C190.04,266.404 190.154,266.428 190.274,266.476 C190.394,266.524 190.496,266.602 190.58,266.71 L190.58,266.71 L193.64,270.634 L193.64,273.406 C193.64,273.586 193.532,273.676 193.316,273.676 L193.316,273.676 L193.316,274 L195.71,274 Z M53.222,292 L53.222,291.676 C53.114,291.676 53.042,291.658 53.006,291.622 C52.97,291.586 52.952,291.52 52.952,291.424 C52.952,291.388 52.997,291.253 53.087,291.019 C53.177,290.785 53.291,290.497 53.429,290.155 C53.567,289.813 53.717,289.441 53.879,289.039 C54.041,288.637 54.194,288.253 54.338,287.887 C54.482,287.521 54.608,287.197 54.716,286.915 C54.824,286.633 54.89,286.438 54.914,286.33 L54.914,286.33 L54.95,286.33 C55.142,286.93 55.34,287.524 55.544,288.112 C55.748,288.7 55.937,289.231 56.111,289.705 C56.285,290.179 56.426,290.572 56.534,290.884 C56.642,291.196 56.696,291.376 56.696,291.424 C56.696,291.52 56.684,291.583 56.66,291.613 C56.636,291.643 56.576,291.664 56.48,291.676 L56.48,291.676 L56.48,292 L59,292 L59,291.676 C58.832,291.676 58.748,291.598 58.748,291.442 C58.748,291.382 58.784,291.271 58.856,291.109 C58.928,290.947 59,290.764 59.072,290.56 L59.072,290.56 L61.142,285.07 C61.298,284.626 61.478,284.404 61.682,284.404 L61.682,284.404 L61.682,284.08 L59.396,284.08 L59.396,284.404 C59.588,284.404 59.684,284.488 59.684,284.656 C59.684,284.74 59.663,284.845 59.621,284.971 C59.579,285.097 59.528,285.244 59.468,285.412 L59.468,285.412 L57.794,289.786 L56.21,285.448 C56.15,285.304 56.09,285.151 56.03,284.989 C55.97,284.827 55.94,284.704 55.94,284.62 C55.94,284.476 56.048,284.404 56.264,284.404 L56.264,284.404 L56.264,284.08 L53.69,284.08 L53.69,284.404 C53.882,284.404 53.978,284.488 53.978,284.656 C53.978,284.752 53.951,284.875 53.897,285.025 C53.843,285.175 53.786,285.334 53.726,285.502 L53.726,285.502 L52.196,289.786 L52.16,289.786 L50.576,285.412 C50.504,285.22 50.444,285.061 50.396,284.935 C50.348,284.809 50.324,284.716 50.324,284.656 C50.324,284.488 50.402,284.404 50.558,284.404 L50.558,284.404 L50.558,284.08 L48.272,284.08 L48.272,284.404 C48.452,284.44 48.578,284.554 48.65,284.746 L48.65,284.746 L51.026,290.992 C51.05,291.052 51.083,291.139 51.125,291.253 C51.167,291.367 51.188,291.46 51.188,291.532 C51.188,291.604 51.17,291.646 51.134,291.658 C51.098,291.67 51.056,291.676 51.008,291.676 L51.008,291.676 L51.008,292 L53.222,292 Z M70.898,292.198 L70.898,290.308 L70.574,290.308 C70.574,290.416 70.526,290.503 70.43,290.569 C70.334,290.635 70.214,290.668 70.07,290.668 L70.07,290.668 L65.462,290.668 L65.462,288.544 L68.09,288.544 C68.33,288.544 68.516,288.559 68.648,288.589 C68.78,288.619 68.828,288.7 68.792,288.832 L68.792,288.832 L69.152,288.832 L69.152,286.924 L68.828,286.924 C68.828,287.056 68.78,287.137 68.684,287.167 C68.588,287.197 68.438,287.212 68.234,287.212 L68.234,287.212 L65.462,287.212 L65.462,285.412 L69.854,285.412 C70.226,285.412 70.412,285.526 70.412,285.754 L70.412,285.754 L70.736,285.754 L70.736,283.756 L70.412,283.756 C70.412,283.972 70.226,284.08 69.854,284.08 L69.854,284.08 L63.464,284.08 L63.464,284.404 C63.524,284.404 63.584,284.425 63.644,284.467 C63.704,284.509 63.734,284.578 63.734,284.674 L63.734,284.674 L63.734,291.406 C63.734,291.502 63.704,291.571 63.644,291.613 C63.584,291.655 63.524,291.676 63.464,291.676 L63.464,291.676 L63.464,292 L70.07,292 C70.214,292 70.334,292.006 70.43,292.018 C70.526,292.03 70.574,292.09 70.574,292.198 L70.574,292.198 L70.898,292.198 Z M76.352,292 L76.352,291.676 C76.016,291.676 75.848,291.586 75.848,291.406 L75.848,291.406 L75.848,284.674 C75.848,284.494 76.016,284.404 76.352,284.404 L76.352,284.404 L76.352,284.08 L73.616,284.08 L73.616,284.404 C73.808,284.404 73.94,284.425 74.012,284.467 C74.084,284.509 74.12,284.578 74.12,284.674 L74.12,284.674 L74.12,291.406 C74.12,291.502 74.084,291.571 74.012,291.613 C73.94,291.655 73.808,291.676 73.616,291.676 L73.616,291.676 L73.616,292 L76.352,292 Z M83.678,292.054 C84.254,292.054 84.776,292.015 85.244,291.937 C85.712,291.859 86.123,291.76 86.477,291.64 C86.831,291.52 87.125,291.397 87.359,291.271 C87.593,291.145 87.764,291.046 87.872,290.974 L87.872,290.974 L87.872,290.758 C87.752,290.71 87.677,290.665 87.647,290.623 C87.617,290.581 87.602,290.506 87.602,290.398 L87.602,290.398 L87.602,288.688 C87.602,288.568 87.62,288.478 87.656,288.418 C87.692,288.358 87.764,288.304 87.872,288.256 L87.872,288.256 L87.872,287.932 L84.344,287.932 C84.212,287.932 84.098,287.914 84.002,287.878 C83.906,287.842 83.846,287.764 83.822,287.644 L83.822,287.644 L83.498,287.644 L83.498,289.498 L83.822,289.498 C83.846,289.354 83.906,289.255 84.002,289.201 C84.098,289.147 84.212,289.12 84.344,289.12 L84.344,289.12 L86.198,289.12 L86.198,290.254 C85.814,290.458 85.391,290.596 84.929,290.668 C84.467,290.74 83.978,290.776 83.462,290.776 C83.114,290.776 82.754,290.728 82.382,290.632 C82.01,290.536 81.671,290.383 81.365,290.173 C81.059,289.963 80.81,289.687 80.618,289.345 C80.426,289.003 80.33,288.58 80.33,288.076 C80.33,287.572 80.42,287.146 80.6,286.798 C80.78,286.45 81.02,286.165 81.32,285.943 C81.62,285.721 81.968,285.559 82.364,285.457 C82.76,285.355 83.18,285.304 83.624,285.304 C83.948,285.304 84.269,285.337 84.587,285.403 C84.905,285.469 85.19,285.556 85.442,285.664 C85.694,285.772 85.898,285.889 86.054,286.015 C86.21,286.141 86.288,286.258 86.288,286.366 C86.288,286.378 86.276,286.444 86.252,286.564 L86.252,286.564 L86.468,286.69 L87.512,284.728 L87.296,284.62 C87.224,284.68 87.164,284.719 87.116,284.737 C87.068,284.755 86.996,284.764 86.9,284.764 C86.816,284.764 86.69,284.722 86.522,284.638 C86.354,284.554 86.132,284.464 85.856,284.368 C85.592,284.272 85.28,284.182 84.92,284.098 C84.56,284.014 84.146,283.972 83.678,283.972 C82.898,283.972 82.193,284.065 81.563,284.251 C80.933,284.437 80.399,284.707 79.961,285.061 C79.523,285.415 79.187,285.841 78.953,286.339 C78.719,286.837 78.602,287.404 78.602,288.04 C78.602,288.676 78.719,289.243 78.953,289.741 C79.187,290.239 79.523,290.662 79.961,291.01 C80.399,291.358 80.933,291.619 81.563,291.793 C82.193,291.967 82.898,292.054 83.678,292.054 Z M92.84,292 L92.84,291.676 C92.768,291.676 92.705,291.655 92.651,291.613 C92.597,291.571 92.57,291.502 92.57,291.406 L92.57,291.406 L92.57,288.688 L97.394,288.688 L97.394,291.406 C97.394,291.502 97.367,291.571 97.313,291.613 C97.259,291.655 97.196,291.676 97.124,291.676 L97.124,291.676 L97.124,292 L99.392,292 L99.392,291.676 C99.32,291.676 99.257,291.655 99.203,291.613 C99.149,291.571 99.122,291.502 99.122,291.406 L99.122,291.406 L99.122,284.674 C99.122,284.578 99.149,284.509 99.203,284.467 C99.257,284.425 99.32,284.404 99.392,284.404 L99.392,284.404 L99.392,284.08 L97.124,284.08 L97.124,284.404 C97.196,284.404 97.259,284.425 97.313,284.467 C97.367,284.509 97.394,284.578 97.394,284.674 L97.394,284.674 L97.394,287.212 L92.57,287.212 L92.57,284.674 C92.57,284.578 92.597,284.509 92.651,284.467 C92.705,284.425 92.768,284.404 92.84,284.404 L92.84,284.404 L92.84,284.08 L90.572,284.08 L90.572,284.404 C90.644,284.404 90.707,284.425 90.761,284.467 C90.815,284.509 90.842,284.578 90.842,284.674 L90.842,284.674 L90.842,291.406 C90.842,291.502 90.815,291.571 90.761,291.613 C90.707,291.655 90.644,291.676 90.572,291.676 L90.572,291.676 L90.572,292 L92.84,292 Z M106.682,292 L106.682,291.676 C106.466,291.676 106.358,291.586 106.358,291.406 L106.358,291.406 L106.358,285.412 L108.698,285.412 C108.794,285.412 108.884,285.436 108.968,285.484 C109.052,285.532 109.094,285.61 109.094,285.718 L109.094,285.718 L109.418,285.718 L109.418,283.648 L109.094,283.648 C109.094,283.816 109.052,283.93 108.968,283.99 C108.884,284.05 108.794,284.08 108.698,284.08 L108.698,284.08 L102.29,284.08 C102.194,284.08 102.104,284.05 102.02,283.99 C101.936,283.93 101.894,283.816 101.894,283.648 L101.894,283.648 L101.57,283.648 L101.57,285.718 L101.894,285.718 C101.894,285.61 101.936,285.532 102.02,285.484 C102.104,285.436 102.194,285.412 102.29,285.412 L102.29,285.412 L104.63,285.412 L104.63,291.406 C104.63,291.502 104.6,291.571 104.54,291.613 C104.48,291.655 104.42,291.676 104.36,291.676 L104.36,291.676 L104.36,292 L106.682,292 Z M118.904,292.198 L118.904,290.308 L118.58,290.308 C118.58,290.416 118.532,290.503 118.436,290.569 C118.34,290.635 118.22,290.668 118.076,290.668 L118.076,290.668 L113.468,290.668 L113.468,288.544 L116.096,288.544 C116.336,288.544 116.522,288.559 116.654,288.589 C116.786,288.619 116.834,288.7 116.798,288.832 L116.798,288.832 L117.158,288.832 L117.158,286.924 L116.834,286.924 C116.834,287.056 116.786,287.137 116.69,287.167 C116.594,287.197 116.444,287.212 116.24,287.212 L116.24,287.212 L113.468,287.212 L113.468,285.412 L117.86,285.412 C118.232,285.412 118.418,285.526 118.418,285.754 L118.418,285.754 L118.742,285.754 L118.742,283.756 L118.418,283.756 C118.418,283.972 118.232,284.08 117.86,284.08 L117.86,284.08 L111.47,284.08 L111.47,284.404 C111.53,284.404 111.59,284.425 111.65,284.467 C111.71,284.509 111.74,284.578 111.74,284.674 L111.74,284.674 L111.74,291.406 C111.74,291.502 111.71,291.571 111.65,291.613 C111.59,291.655 111.53,291.676 111.47,291.676 L111.47,291.676 L111.47,292 L118.076,292 C118.22,292 118.34,292.006 118.436,292.018 C118.532,292.03 118.58,292.09 118.58,292.198 L118.58,292.198 L118.904,292.198 Z M126.284,292 C126.992,292 127.592,291.886 128.084,291.658 C128.576,291.43 128.978,291.133 129.29,290.767 C129.602,290.401 129.83,289.981 129.974,289.507 C130.118,289.033 130.19,288.544 130.19,288.04 C130.19,287.536 130.115,287.047 129.965,286.573 C129.815,286.099 129.581,285.679 129.263,285.313 C128.945,284.947 128.534,284.65 128.03,284.422 C127.526,284.194 126.92,284.08 126.212,284.08 L126.212,284.08 L121.208,284.08 L121.208,284.404 C121.484,284.404 121.622,284.494 121.622,284.674 L121.622,284.674 L121.622,291.406 C121.622,291.586 121.484,291.676 121.208,291.676 L121.208,291.676 L121.208,292 L126.284,292 Z M125.69,290.668 L123.35,290.668 L123.35,285.412 L125.69,285.412 C126.062,285.412 126.416,285.433 126.752,285.475 C127.088,285.517 127.382,285.625 127.634,285.799 C127.886,285.973 128.087,286.231 128.237,286.573 C128.387,286.915 128.462,287.386 128.462,287.986 C128.462,288.586 128.387,289.063 128.237,289.417 C128.087,289.771 127.886,290.041 127.634,290.227 C127.382,290.413 127.088,290.533 126.752,290.587 C126.416,290.641 126.062,290.668 125.69,290.668 L125.69,290.668 Z M143.276,292 C143.804,292 144.257,291.943 144.635,291.829 C145.013,291.715 145.319,291.562 145.553,291.37 C145.787,291.178 145.958,290.956 146.066,290.704 C146.174,290.452 146.228,290.182 146.228,289.894 C146.228,289.642 146.186,289.408 146.102,289.192 C146.018,288.976 145.91,288.784 145.778,288.616 C145.646,288.448 145.496,288.304 145.328,288.184 C145.16,288.064 144.992,287.968 144.824,287.896 L144.824,287.896 L144.824,287.878 C144.968,287.806 145.109,287.71 145.247,287.59 C145.385,287.47 145.511,287.335 145.625,287.185 C145.739,287.035 145.832,286.867 145.904,286.681 C145.976,286.495 146.012,286.294 146.012,286.078 C146.012,285.814 145.958,285.562 145.85,285.322 C145.742,285.082 145.577,284.869 145.355,284.683 C145.133,284.497 144.857,284.35 144.527,284.242 C144.197,284.134 143.804,284.08 143.348,284.08 L143.348,284.08 L137.75,284.08 L137.75,284.404 C137.846,284.404 137.939,284.425 138.029,284.467 C138.119,284.509 138.164,284.578 138.164,284.674 L138.164,284.674 L138.164,291.406 C138.164,291.502 138.119,291.571 138.029,291.613 C137.939,291.655 137.846,291.676 137.75,291.676 L137.75,291.676 L137.75,292 L143.276,292 Z M143.096,287.212 L139.892,287.212 L139.892,285.412 L143.096,285.412 C143.24,285.412 143.384,285.421 143.528,285.439 C143.672,285.457 143.798,285.499 143.906,285.565 C144.014,285.631 144.104,285.721 144.176,285.835 C144.248,285.949 144.284,286.102 144.284,286.294 C144.284,286.666 144.158,286.912 143.906,287.032 C143.654,287.152 143.384,287.212 143.096,287.212 L143.096,287.212 Z M143.06,290.668 L139.892,290.668 L139.892,288.544 L142.772,288.544 C143.396,288.544 143.84,288.634 144.104,288.814 C144.368,288.994 144.5,289.27 144.5,289.642 C144.5,289.966 144.398,290.218 144.194,290.398 C143.99,290.578 143.612,290.668 143.06,290.668 L143.06,290.668 Z M156.74,292.18 L156.74,290.29 L156.416,290.29 C156.416,290.41 156.368,290.503 156.272,290.569 C156.176,290.635 156.056,290.668 155.912,290.668 L155.912,290.668 L151.052,290.668 L151.052,284.674 C151.052,284.494 151.19,284.404 151.466,284.404 L151.466,284.404 L151.466,284.08 L148.856,284.08 L148.856,284.404 C149.168,284.404 149.324,284.494 149.324,284.674 L149.324,284.674 L149.324,291.406 C149.324,291.586 149.168,291.676 148.856,291.676 L148.856,291.676 L148.856,292 L155.912,292 C156.056,292 156.176,292.006 156.272,292.018 C156.368,292.03 156.416,292.084 156.416,292.18 L156.416,292.18 L156.74,292.18 Z M160.178,292 L160.178,291.676 C160.07,291.676 159.986,291.664 159.926,291.64 C159.866,291.616 159.836,291.556 159.836,291.46 C159.836,291.4 159.851,291.331 159.881,291.253 C159.911,291.175 159.95,291.088 159.998,290.992 L159.998,290.992 L160.502,290.02 L164.354,290.02 L164.84,291.046 C164.876,291.142 164.906,291.22 164.93,291.28 C164.954,291.34 164.966,291.406 164.966,291.478 C164.966,291.574 164.933,291.64 164.867,291.676 C164.801,291.712 164.738,291.73 164.678,291.73 L164.678,291.73 L164.678,292 L167.234,292 L167.234,291.676 C167.15,291.652 167.072,291.616 167,291.568 C166.928,291.52 166.862,291.442 166.802,291.334 L166.802,291.334 L163.886,285.214 C163.826,285.082 163.769,284.965 163.715,284.863 C163.661,284.761 163.634,284.674 163.634,284.602 C163.634,284.518 163.655,284.47 163.697,284.458 C163.739,284.446 163.778,284.428 163.814,284.404 L163.814,284.404 L163.814,284.08 L161.096,284.08 L161.096,284.404 C161.132,284.428 161.165,284.449 161.195,284.467 C161.225,284.485 161.24,284.53 161.24,284.602 C161.24,284.698 161.219,284.797 161.177,284.899 C161.135,285.001 161.078,285.136 161.006,285.304 L161.006,285.304 L158.324,291.154 C158.276,291.25 158.207,291.355 158.117,291.469 C158.027,291.583 157.91,291.652 157.766,291.676 L157.766,291.676 L157.766,292 L160.178,292 Z M163.778,288.688 L161.042,288.688 L162.32,285.664 L163.778,288.688 Z M171.176,292 L171.176,291.676 C170.924,291.676 170.798,291.586 170.798,291.406 L170.798,291.406 L170.798,286.168 L175.262,290.92 C175.406,291.076 175.535,291.214 175.649,291.334 C175.763,291.454 175.82,291.538 175.82,291.586 C175.82,291.646 175.778,291.676 175.694,291.676 L175.694,291.676 L175.694,292 L178.034,292 L178.034,291.676 C177.818,291.676 177.71,291.586 177.71,291.406 L177.71,291.406 L177.71,284.674 C177.71,284.494 177.818,284.404 178.034,284.404 L178.034,284.404 L178.034,284.08 L175.838,284.08 L175.838,284.404 C176.078,284.404 176.198,284.494 176.198,284.674 L176.198,284.674 L176.198,289.552 L171.878,284.98 C171.614,284.716 171.482,284.554 171.482,284.494 C171.482,284.446 171.524,284.416 171.608,284.404 L171.608,284.404 L171.608,284.08 L168.962,284.08 L168.962,284.404 C169.178,284.404 169.286,284.494 169.286,284.674 L169.286,284.674 L169.286,291.406 C169.286,291.586 169.178,291.676 168.962,291.676 L168.962,291.676 L168.962,292 L171.176,292 Z M183.2,292 L183.2,291.676 C182.972,291.676 182.858,291.586 182.858,291.406 L182.858,291.406 L182.858,289.39 L184.262,288.274 L186.476,290.974 C186.632,291.154 186.737,291.286 186.791,291.37 C186.845,291.454 186.872,291.52 186.872,291.568 C186.872,291.64 186.806,291.676 186.674,291.676 L186.674,291.676 L186.674,292 L189.338,292 L189.338,291.676 C189.17,291.628 189.002,291.511 188.834,291.325 C188.666,291.139 188.51,290.956 188.366,290.776 L188.366,290.776 L185.522,287.248 L188.528,284.818 C188.816,284.59 189.032,284.452 189.176,284.404 L189.176,284.404 L189.176,284.08 L186.206,284.08 L186.206,284.35 C186.266,284.35 186.329,284.368 186.395,284.404 C186.461,284.44 186.494,284.488 186.494,284.548 C186.494,284.596 186.38,284.719 186.152,284.917 C185.924,285.115 185.636,285.358 185.288,285.646 C184.94,285.934 184.55,286.249 184.118,286.591 C183.686,286.933 183.266,287.272 182.858,287.608 L182.858,287.608 L182.858,284.674 C182.858,284.494 182.972,284.404 183.2,284.404 L183.2,284.404 L183.2,284.08 L180.842,284.08 L180.842,284.404 C181.034,284.404 181.13,284.494 181.13,284.674 L181.13,284.674 L181.13,291.406 C181.13,291.586 181.034,291.676 180.842,291.676 L180.842,291.676 L180.842,292 L183.2,292 Z M198.428,292.198 L198.428,290.308 L198.104,290.308 C198.104,290.416 198.056,290.503 197.96,290.569 C197.864,290.635 197.744,290.668 197.6,290.668 L197.6,290.668 L192.992,290.668 L192.992,288.544 L195.62,288.544 C195.86,288.544 196.046,288.559 196.178,288.589 C196.31,288.619 196.358,288.7 196.322,288.832 L196.322,288.832 L196.682,288.832 L196.682,286.924 L196.358,286.924 C196.358,287.056 196.31,287.137 196.214,287.167 C196.118,287.197 195.968,287.212 195.764,287.212 L195.764,287.212 L192.992,287.212 L192.992,285.412 L197.384,285.412 C197.756,285.412 197.942,285.526 197.942,285.754 L197.942,285.754 L198.266,285.754 L198.266,283.756 L197.942,283.756 C197.942,283.972 197.756,284.08 197.384,284.08 L197.384,284.08 L190.994,284.08 L190.994,284.404 C191.054,284.404 191.114,284.425 191.174,284.467 C191.234,284.509 191.264,284.578 191.264,284.674 L191.264,284.674 L191.264,291.406 C191.264,291.502 191.234,291.571 191.174,291.613 C191.114,291.655 191.054,291.676 190.994,291.676 L190.994,291.676 L190.994,292 L197.6,292 C197.744,292 197.864,292.006 197.96,292.018 C198.056,292.03 198.104,292.09 198.104,292.198 L198.104,292.198 L198.428,292.198 Z M205.214,292 L205.214,291.676 C204.998,291.676 204.89,291.586 204.89,291.406 L204.89,291.406 L204.89,285.412 L207.23,285.412 C207.326,285.412 207.416,285.436 207.5,285.484 C207.584,285.532 207.626,285.61 207.626,285.718 L207.626,285.718 L207.95,285.718 L207.95,283.648 L207.626,283.648 C207.626,283.816 207.584,283.93 207.5,283.99 C207.416,284.05 207.326,284.08 207.23,284.08 L207.23,284.08 L200.822,284.08 C200.726,284.08 200.636,284.05 200.552,283.99 C200.468,283.93 200.426,283.816 200.426,283.648 L200.426,283.648 L200.102,283.648 L200.102,285.718 L200.426,285.718 C200.426,285.61 200.468,285.532 200.552,285.484 C200.636,285.436 200.726,285.412 200.822,285.412 L200.822,285.412 L203.162,285.412 L203.162,291.406 C203.162,291.502 203.132,291.571 203.072,291.613 C203.012,291.655 202.952,291.676 202.892,291.676 L202.892,291.676 L202.892,292 L205.214,292 Z M211.262,292.054 C211.61,292.054 211.91,291.937 212.162,291.703 C212.414,291.469 212.54,291.178 212.54,290.83 C212.54,290.482 212.414,290.182 212.162,289.93 C211.91,289.678 211.61,289.552 211.262,289.552 C210.914,289.552 210.614,289.678 210.362,289.93 C210.11,290.182 209.984,290.482 209.984,290.83 C209.984,291.178 210.11,291.469 210.362,291.703 C210.614,291.937 210.914,292.054 211.262,292.054 Z M58.19,310 L58.19,309.676 C57.962,309.676 57.848,309.61 57.848,309.478 C57.848,309.37 57.908,309.19 58.028,308.938 L58.028,308.938 L58.676,307.66 L63.068,307.66 L63.752,308.992 C63.848,309.184 63.896,309.34 63.896,309.46 C63.896,309.532 63.86,309.586 63.788,309.622 C63.716,309.658 63.656,309.676 63.608,309.676 L63.608,309.676 L63.608,310 L66.776,310 L66.776,309.676 C66.644,309.616 66.527,309.556 66.425,309.496 C66.323,309.436 66.242,309.34 66.182,309.208 L66.182,309.208 L62.438,301.882 C62.354,301.726 62.291,301.6 62.249,301.504 C62.207,301.408 62.186,301.312 62.186,301.216 C62.186,301.084 62.228,300.997 62.312,300.955 C62.396,300.913 62.48,300.88 62.564,300.856 L62.564,300.856 L62.564,300.532 L59.522,300.532 L59.522,300.856 C59.618,300.88 59.708,300.916 59.792,300.964 C59.876,301.012 59.918,301.096 59.918,301.216 C59.918,301.312 59.885,301.426 59.819,301.558 C59.753,301.69 59.678,301.834 59.594,301.99 L59.594,301.99 L56.264,308.992 C56.18,309.16 56.093,309.31 56.003,309.442 C55.913,309.574 55.79,309.652 55.634,309.676 L55.634,309.676 L55.634,310 L58.19,310 Z M62.42,306.328 L59.216,306.328 L60.908,302.98 L62.42,306.328 Z M73.544,310 C74.252,310 74.852,309.886 75.344,309.658 C75.836,309.43 76.238,309.133 76.55,308.767 C76.862,308.401 77.09,307.981 77.234,307.507 C77.378,307.033 77.45,306.544 77.45,306.04 C77.45,305.536 77.375,305.047 77.225,304.573 C77.075,304.099 76.841,303.679 76.523,303.313 C76.205,302.947 75.794,302.65 75.29,302.422 C74.786,302.194 74.18,302.08 73.472,302.08 L73.472,302.08 L68.468,302.08 L68.468,302.404 C68.744,302.404 68.882,302.494 68.882,302.674 L68.882,302.674 L68.882,309.406 C68.882,309.586 68.744,309.676 68.468,309.676 L68.468,309.676 L68.468,310 L73.544,310 Z M72.95,308.668 L70.61,308.668 L70.61,303.412 L72.95,303.412 C73.322,303.412 73.676,303.433 74.012,303.475 C74.348,303.517 74.642,303.625 74.894,303.799 C75.146,303.973 75.347,304.231 75.497,304.573 C75.647,304.915 75.722,305.386 75.722,305.986 C75.722,306.586 75.647,307.063 75.497,307.417 C75.347,307.771 75.146,308.041 74.894,308.227 C74.642,308.413 74.348,308.533 74.012,308.587 C73.676,308.641 73.322,308.668 72.95,308.668 L72.95,308.668 Z M84.542,310 C85.25,310 85.85,309.886 86.342,309.658 C86.834,309.43 87.236,309.133 87.548,308.767 C87.86,308.401 88.088,307.981 88.232,307.507 C88.376,307.033 88.448,306.544 88.448,306.04 C88.448,305.536 88.373,305.047 88.223,304.573 C88.073,304.099 87.839,303.679 87.521,303.313 C87.203,302.947 86.792,302.65 86.288,302.422 C85.784,302.194 85.178,302.08 84.47,302.08 L84.47,302.08 L79.466,302.08 L79.466,302.404 C79.742,302.404 79.88,302.494 79.88,302.674 L79.88,302.674 L79.88,309.406 C79.88,309.586 79.742,309.676 79.466,309.676 L79.466,309.676 L79.466,310 L84.542,310 Z M83.948,308.668 L81.608,308.668 L81.608,303.412 L83.948,303.412 C84.32,303.412 84.674,303.433 85.01,303.475 C85.346,303.517 85.64,303.625 85.892,303.799 C86.144,303.973 86.345,304.231 86.495,304.573 C86.645,304.915 86.72,305.386 86.72,305.986 C86.72,306.586 86.645,307.063 86.495,307.417 C86.345,307.771 86.144,308.041 85.892,308.227 C85.64,308.413 85.346,308.533 85.01,308.587 C84.674,308.641 84.32,308.668 83.948,308.668 L83.948,308.668 Z M100.436,310 L100.436,309.676 C100.22,309.676 100.112,309.586 100.112,309.406 L100.112,309.406 L100.112,303.412 L102.452,303.412 C102.548,303.412 102.638,303.436 102.722,303.484 C102.806,303.532 102.848,303.61 102.848,303.718 L102.848,303.718 L103.172,303.718 L103.172,301.648 L102.848,301.648 C102.848,301.816 102.806,301.93 102.722,301.99 C102.638,302.05 102.548,302.08 102.452,302.08 L102.452,302.08 L96.044,302.08 C95.948,302.08 95.858,302.05 95.774,301.99 C95.69,301.93 95.648,301.816 95.648,301.648 L95.648,301.648 L95.324,301.648 L95.324,303.718 L95.648,303.718 C95.648,303.61 95.69,303.532 95.774,303.484 C95.858,303.436 95.948,303.412 96.044,303.412 L96.044,303.412 L98.384,303.412 L98.384,309.406 C98.384,309.502 98.354,309.571 98.294,309.613 C98.234,309.655 98.174,309.676 98.114,309.676 L98.114,309.676 L98.114,310 L100.436,310 Z M107.6,310 L107.6,309.676 C107.528,309.676 107.465,309.655 107.411,309.613 C107.357,309.571 107.33,309.502 107.33,309.406 L107.33,309.406 L107.33,306.688 L112.154,306.688 L112.154,309.406 C112.154,309.502 112.127,309.571 112.073,309.613 C112.019,309.655 111.956,309.676 111.884,309.676 L111.884,309.676 L111.884,310 L114.152,310 L114.152,309.676 C114.08,309.676 114.017,309.655 113.963,309.613 C113.909,309.571 113.882,309.502 113.882,309.406 L113.882,309.406 L113.882,302.674 C113.882,302.578 113.909,302.509 113.963,302.467 C114.017,302.425 114.08,302.404 114.152,302.404 L114.152,302.404 L114.152,302.08 L111.884,302.08 L111.884,302.404 C111.956,302.404 112.019,302.425 112.073,302.467 C112.127,302.509 112.154,302.578 112.154,302.674 L112.154,302.674 L112.154,305.212 L107.33,305.212 L107.33,302.674 C107.33,302.578 107.357,302.509 107.411,302.467 C107.465,302.425 107.528,302.404 107.6,302.404 L107.6,302.404 L107.6,302.08 L105.332,302.08 L105.332,302.404 C105.404,302.404 105.467,302.425 105.521,302.467 C105.575,302.509 105.602,302.578 105.602,302.674 L105.602,302.674 L105.602,309.406 C105.602,309.502 105.575,309.571 105.521,309.613 C105.467,309.655 105.404,309.676 105.332,309.676 L105.332,309.676 L105.332,310 L107.6,310 Z M120.11,310 L120.11,309.676 C119.774,309.676 119.606,309.586 119.606,309.406 L119.606,309.406 L119.606,302.674 C119.606,302.494 119.774,302.404 120.11,302.404 L120.11,302.404 L120.11,302.08 L117.374,302.08 L117.374,302.404 C117.566,302.404 117.698,302.425 117.77,302.467 C117.842,302.509 117.878,302.578 117.878,302.674 L117.878,302.674 L117.878,309.406 C117.878,309.502 117.842,309.571 117.77,309.613 C117.698,309.655 117.566,309.676 117.374,309.676 L117.374,309.676 L117.374,310 L120.11,310 Z M126.608,310.054 C127.016,310.054 127.451,310.024 127.913,309.964 C128.375,309.904 128.798,309.778 129.182,309.586 C129.566,309.394 129.887,309.13 130.145,308.794 C130.403,308.458 130.532,308.026 130.532,307.498 C130.532,306.97 130.385,306.556 130.091,306.256 C129.797,305.956 129.428,305.728 128.984,305.572 C128.54,305.416 128.06,305.305 127.544,305.239 C127.028,305.173 126.548,305.107 126.104,305.041 C125.66,304.975 125.291,304.885 124.997,304.771 C124.703,304.657 124.556,304.468 124.556,304.204 C124.556,304.036 124.604,303.895 124.7,303.781 C124.796,303.667 124.928,303.574 125.096,303.502 C125.264,303.43 125.456,303.379 125.672,303.349 C125.888,303.319 126.116,303.304 126.356,303.304 C126.98,303.304 127.544,303.376 128.048,303.52 C128.552,303.664 128.924,303.838 129.164,304.042 C129.26,304.114 129.314,304.186 129.326,304.258 L129.326,304.258 L129.362,304.474 L129.686,304.582 L130.586,302.89 L130.388,302.692 C130.316,302.728 130.256,302.761 130.208,302.791 C130.16,302.821 130.088,302.836 129.992,302.836 C129.908,302.836 129.779,302.791 129.605,302.701 C129.431,302.611 129.206,302.512 128.93,302.404 C128.654,302.296 128.315,302.197 127.913,302.107 C127.511,302.017 127.028,301.972 126.464,301.972 C125.312,301.972 124.418,302.2 123.782,302.656 C123.146,303.112 122.828,303.724 122.828,304.492 C122.828,305.008 122.975,305.407 123.269,305.689 C123.563,305.971 123.932,306.187 124.376,306.337 C124.82,306.487 125.3,306.595 125.816,306.661 C126.332,306.727 126.812,306.793 127.256,306.859 C127.7,306.925 128.069,307.018 128.363,307.138 C128.657,307.258 128.804,307.45 128.804,307.714 C128.804,307.942 128.72,308.125 128.552,308.263 C128.384,308.401 128.18,308.509 127.94,308.587 C127.7,308.665 127.457,308.716 127.211,308.74 C126.965,308.764 126.758,308.776 126.59,308.776 C126.41,308.776 126.161,308.746 125.843,308.686 C125.525,308.626 125.207,308.545 124.889,308.443 C124.571,308.341 124.298,308.215 124.07,308.065 C123.842,307.915 123.728,307.75 123.728,307.57 C123.728,307.51 123.731,307.453 123.737,307.399 C123.743,307.345 123.746,307.294 123.746,307.246 L123.746,307.246 L123.404,307.156 L122.576,309.172 L122.828,309.352 C122.888,309.28 122.96,309.244 123.044,309.244 C123.092,309.244 123.23,309.289 123.458,309.379 C123.686,309.469 123.965,309.565 124.295,309.667 C124.625,309.769 124.991,309.859 125.393,309.937 C125.795,310.015 126.2,310.054 126.608,310.054 Z M142.934,310 L142.934,309.676 C142.718,309.676 142.61,309.586 142.61,309.406 L142.61,309.406 L142.61,303.412 L144.95,303.412 C145.046,303.412 145.136,303.436 145.22,303.484 C145.304,303.532 145.346,303.61 145.346,303.718 L145.346,303.718 L145.67,303.718 L145.67,301.648 L145.346,301.648 C145.346,301.816 145.304,301.93 145.22,301.99 C145.136,302.05 145.046,302.08 144.95,302.08 L144.95,302.08 L138.542,302.08 C138.446,302.08 138.356,302.05 138.272,301.99 C138.188,301.93 138.146,301.816 138.146,301.648 L138.146,301.648 L137.822,301.648 L137.822,303.718 L138.146,303.718 C138.146,303.61 138.188,303.532 138.272,303.484 C138.356,303.436 138.446,303.412 138.542,303.412 L138.542,303.412 L140.882,303.412 L140.882,309.406 C140.882,309.502 140.852,309.571 140.792,309.613 C140.732,309.655 140.672,309.676 140.612,309.676 L140.612,309.676 L140.612,310 L142.934,310 Z M151.736,310.054 C152.396,310.054 153.017,309.979 153.599,309.829 C154.181,309.679 154.688,309.436 155.12,309.1 C155.552,308.764 155.894,308.341 156.146,307.831 C156.398,307.321 156.524,306.724 156.524,306.04 C156.524,305.356 156.398,304.759 156.146,304.249 C155.894,303.739 155.552,303.316 155.12,302.98 C154.688,302.644 154.181,302.392 153.599,302.224 C153.017,302.056 152.396,301.972 151.736,301.972 C151.076,301.972 150.455,302.056 149.873,302.224 C149.291,302.392 148.784,302.644 148.352,302.98 C147.92,303.316 147.578,303.739 147.326,304.249 C147.074,304.759 146.948,305.356 146.948,306.04 C146.948,306.724 147.074,307.321 147.326,307.831 C147.578,308.341 147.92,308.764 148.352,309.1 C148.784,309.436 149.291,309.679 149.873,309.829 C150.455,309.979 151.076,310.054 151.736,310.054 Z M151.736,308.776 C151.352,308.776 150.977,308.713 150.611,308.587 C150.245,308.461 149.918,308.281 149.63,308.047 C149.342,307.813 149.111,307.528 148.937,307.192 C148.763,306.856 148.676,306.472 148.676,306.04 C148.676,305.608 148.763,305.224 148.937,304.888 C149.111,304.552 149.342,304.267 149.63,304.033 C149.918,303.799 150.245,303.619 150.611,303.493 C150.977,303.367 151.352,303.304 151.736,303.304 C152.12,303.304 152.495,303.367 152.861,303.493 C153.227,303.619 153.554,303.799 153.842,304.033 C154.13,304.267 154.361,304.552 154.535,304.888 C154.709,305.224 154.796,305.608 154.796,306.04 C154.796,306.472 154.709,306.856 154.535,307.192 C154.361,307.528 154.13,307.813 153.842,308.047 C153.554,308.281 153.227,308.461 152.861,308.587 C152.495,308.713 152.12,308.776 151.736,308.776 Z M168.944,310 L168.944,309.676 C168.716,309.676 168.602,309.586 168.602,309.406 L168.602,309.406 L168.602,306.706 L171.356,303.142 C171.488,302.974 171.641,302.809 171.815,302.647 C171.989,302.485 172.148,302.404 172.292,302.404 L172.292,302.404 L172.292,302.08 L169.538,302.08 L169.538,302.404 C169.598,302.404 169.658,302.416 169.718,302.44 C169.778,302.464 169.808,302.524 169.808,302.62 C169.808,302.692 169.781,302.767 169.727,302.845 C169.673,302.923 169.592,303.04 169.484,303.196 L169.484,303.196 L167.882,305.428 L166.064,303.052 C166.004,302.968 165.95,302.896 165.902,302.836 C165.854,302.776 165.83,302.71 165.83,302.638 C165.83,302.566 165.866,302.509 165.938,302.467 C166.01,302.425 166.076,302.404 166.136,302.404 L166.136,302.404 L166.136,302.08 L163.166,302.08 L163.166,302.404 C163.274,302.404 163.388,302.428 163.508,302.476 C163.628,302.524 163.73,302.602 163.814,302.71 L163.814,302.71 L166.874,306.634 L166.874,309.406 C166.874,309.586 166.766,309.676 166.55,309.676 L166.55,309.676 L166.55,310 L168.944,310 Z M178.232,310.054 C178.892,310.054 179.513,309.979 180.095,309.829 C180.677,309.679 181.184,309.436 181.616,309.1 C182.048,308.764 182.39,308.341 182.642,307.831 C182.894,307.321 183.02,306.724 183.02,306.04 C183.02,305.356 182.894,304.759 182.642,304.249 C182.39,303.739 182.048,303.316 181.616,302.98 C181.184,302.644 180.677,302.392 180.095,302.224 C179.513,302.056 178.892,301.972 178.232,301.972 C177.572,301.972 176.951,302.056 176.369,302.224 C175.787,302.392 175.28,302.644 174.848,302.98 C174.416,303.316 174.074,303.739 173.822,304.249 C173.57,304.759 173.444,305.356 173.444,306.04 C173.444,306.724 173.57,307.321 173.822,307.831 C174.074,308.341 174.416,308.764 174.848,309.1 C175.28,309.436 175.787,309.679 176.369,309.829 C176.951,309.979 177.572,310.054 178.232,310.054 Z M178.232,308.776 C177.848,308.776 177.473,308.713 177.107,308.587 C176.741,308.461 176.414,308.281 176.126,308.047 C175.838,307.813 175.607,307.528 175.433,307.192 C175.259,306.856 175.172,306.472 175.172,306.04 C175.172,305.608 175.259,305.224 175.433,304.888 C175.607,304.552 175.838,304.267 176.126,304.033 C176.414,303.799 176.741,303.619 177.107,303.493 C177.473,303.367 177.848,303.304 178.232,303.304 C178.616,303.304 178.991,303.367 179.357,303.493 C179.723,303.619 180.05,303.799 180.338,304.033 C180.626,304.267 180.857,304.552 181.031,304.888 C181.205,305.224 181.292,305.608 181.292,306.04 C181.292,306.472 181.205,306.856 181.031,307.192 C180.857,307.528 180.626,307.813 180.338,308.047 C180.05,308.281 179.723,308.461 179.357,308.587 C178.991,308.713 178.616,308.776 178.232,308.776 Z M189.806,310.054 C190.526,310.054 191.153,309.979 191.687,309.829 C192.221,309.679 192.659,309.472 193.001,309.208 C193.343,308.944 193.598,308.641 193.766,308.299 C193.934,307.957 194.018,307.6 194.018,307.228 L194.018,307.228 L194.018,302.674 C194.018,302.494 194.15,302.404 194.414,302.404 L194.414,302.404 L194.414,302.08 L191.912,302.08 L191.912,302.404 C192.212,302.404 192.362,302.494 192.362,302.674 L192.362,302.674 L192.362,306.796 C192.362,307.372 192.152,307.834 191.732,308.182 C191.312,308.53 190.67,308.704 189.806,308.704 C188.942,308.704 188.3,308.53 187.88,308.182 C187.46,307.834 187.25,307.372 187.25,306.796 L187.25,306.796 L187.25,302.674 C187.25,302.494 187.382,302.404 187.646,302.404 L187.646,302.404 L187.646,302.08 L185.072,302.08 L185.072,302.404 C185.276,302.404 185.414,302.425 185.486,302.467 C185.558,302.509 185.594,302.578 185.594,302.674 L185.594,302.674 L185.594,307.228 C185.594,307.6 185.678,307.957 185.846,308.299 C186.014,308.641 186.269,308.944 186.611,309.208 C186.953,309.472 187.391,309.679 187.925,309.829 C188.459,309.979 189.086,310.054 189.806,310.054 Z M199.544,310 L199.544,309.676 C199.472,309.676 199.397,309.655 199.319,309.613 C199.241,309.571 199.202,309.502 199.202,309.406 L199.202,309.406 L199.202,306.832 L201.704,306.832 L203.126,308.956 C203.306,309.208 203.396,309.394 203.396,309.514 C203.396,309.622 203.318,309.676 203.162,309.676 L203.162,309.676 L203.162,310 L205.916,310 L205.916,309.676 C205.784,309.64 205.661,309.589 205.547,309.523 C205.433,309.457 205.328,309.358 205.232,309.226 L205.232,309.226 L203.468,306.652 C203.72,306.592 203.966,306.505 204.206,306.391 C204.446,306.277 204.665,306.127 204.863,305.941 C205.061,305.755 205.22,305.536 205.34,305.284 C205.46,305.032 205.52,304.744 205.52,304.42 C205.52,303.568 205.22,302.965 204.62,302.611 C204.02,302.257 203.186,302.08 202.118,302.08 L202.118,302.08 L197.15,302.08 L197.15,302.404 C197.366,302.404 197.474,302.494 197.474,302.674 L197.474,302.674 L197.474,309.406 C197.474,309.586 197.366,309.676 197.15,309.676 L197.15,309.676 L197.15,310 L199.544,310 Z M202.082,305.5 L199.238,305.5 L199.238,303.412 L202.082,303.412 C202.694,303.412 203.141,303.499 203.423,303.673 C203.705,303.847 203.846,304.084 203.846,304.384 C203.846,305.128 203.258,305.5 202.082,305.5 L202.082,305.5 Z M74.354,328.054 C74.762,328.054 75.197,328.024 75.659,327.964 C76.121,327.904 76.544,327.778 76.928,327.586 C77.312,327.394 77.633,327.13 77.891,326.794 C78.149,326.458 78.278,326.026 78.278,325.498 C78.278,324.97 78.131,324.556 77.837,324.256 C77.543,323.956 77.174,323.728 76.73,323.572 C76.286,323.416 75.806,323.305 75.29,323.239 C74.774,323.173 74.294,323.107 73.85,323.041 C73.406,322.975 73.037,322.885 72.743,322.771 C72.449,322.657 72.302,322.468 72.302,322.204 C72.302,322.036 72.35,321.895 72.446,321.781 C72.542,321.667 72.674,321.574 72.842,321.502 C73.01,321.43 73.202,321.379 73.418,321.349 C73.634,321.319 73.862,321.304 74.102,321.304 C74.726,321.304 75.29,321.376 75.794,321.52 C76.298,321.664 76.67,321.838 76.91,322.042 C77.006,322.114 77.06,322.186 77.072,322.258 L77.072,322.258 L77.108,322.474 L77.432,322.582 L78.332,320.89 L78.134,320.692 C78.062,320.728 78.002,320.761 77.954,320.791 C77.906,320.821 77.834,320.836 77.738,320.836 C77.654,320.836 77.525,320.791 77.351,320.701 C77.177,320.611 76.952,320.512 76.676,320.404 C76.4,320.296 76.061,320.197 75.659,320.107 C75.257,320.017 74.774,319.972 74.21,319.972 C73.058,319.972 72.164,320.2 71.528,320.656 C70.892,321.112 70.574,321.724 70.574,322.492 C70.574,323.008 70.721,323.407 71.015,323.689 C71.309,323.971 71.678,324.187 72.122,324.337 C72.566,324.487 73.046,324.595 73.562,324.661 C74.078,324.727 74.558,324.793 75.002,324.859 C75.446,324.925 75.815,325.018 76.109,325.138 C76.403,325.258 76.55,325.45 76.55,325.714 C76.55,325.942 76.466,326.125 76.298,326.263 C76.13,326.401 75.926,326.509 75.686,326.587 C75.446,326.665 75.203,326.716 74.957,326.74 C74.711,326.764 74.504,326.776 74.336,326.776 C74.156,326.776 73.907,326.746 73.589,326.686 C73.271,326.626 72.953,326.545 72.635,326.443 C72.317,326.341 72.044,326.215 71.816,326.065 C71.588,325.915 71.474,325.75 71.474,325.57 C71.474,325.51 71.477,325.453 71.483,325.399 C71.489,325.345 71.492,325.294 71.492,325.246 L71.492,325.246 L71.15,325.156 L70.322,327.172 L70.574,327.352 C70.634,327.28 70.706,327.244 70.79,327.244 C70.838,327.244 70.976,327.289 71.204,327.379 C71.432,327.469 71.711,327.565 72.041,327.667 C72.371,327.769 72.737,327.859 73.139,327.937 C73.541,328.015 73.946,328.054 74.354,328.054 Z M85.712,328 L85.712,327.676 C85.484,327.676 85.37,327.586 85.37,327.406 L85.37,327.406 L85.37,324.706 L88.124,321.142 C88.256,320.974 88.409,320.809 88.583,320.647 C88.757,320.485 88.916,320.404 89.06,320.404 L89.06,320.404 L89.06,320.08 L86.306,320.08 L86.306,320.404 C86.366,320.404 86.426,320.416 86.486,320.44 C86.546,320.464 86.576,320.524 86.576,320.62 C86.576,320.692 86.549,320.767 86.495,320.845 C86.441,320.923 86.36,321.04 86.252,321.196 L86.252,321.196 L84.65,323.428 L82.832,321.052 C82.772,320.968 82.718,320.896 82.67,320.836 C82.622,320.776 82.598,320.71 82.598,320.638 C82.598,320.566 82.634,320.509 82.706,320.467 C82.778,320.425 82.844,320.404 82.904,320.404 L82.904,320.404 L82.904,320.08 L79.934,320.08 L79.934,320.404 C80.042,320.404 80.156,320.428 80.276,320.476 C80.396,320.524 80.498,320.602 80.582,320.71 L80.582,320.71 L83.642,324.634 L83.642,327.406 C83.642,327.586 83.534,327.676 83.318,327.676 L83.318,327.676 L83.318,328 L85.712,328 Z M93.218,328 L93.218,327.676 C93.014,327.676 92.912,327.586 92.912,327.406 L92.912,327.406 L92.912,322.348 L92.93,322.348 L95.828,328 L95.972,328 L99.032,322.348 L99.068,322.348 L99.068,327.406 C99.104,327.586 98.996,327.676 98.744,327.676 L98.744,327.676 L98.744,328 L100.832,328 L100.832,327.676 C100.772,327.676 100.715,327.655 100.661,327.613 C100.607,327.571 100.58,327.502 100.58,327.406 L100.58,327.406 L100.58,320.638 C100.58,320.542 100.607,320.479 100.661,320.449 C100.715,320.419 100.772,320.404 100.832,320.404 L100.832,320.404 L100.832,320.08 L98.294,320.08 L98.294,320.404 C98.39,320.404 98.438,320.458 98.438,320.566 C98.438,320.602 98.414,320.665 98.366,320.755 C98.318,320.845 98.252,320.962 98.168,321.106 L98.168,321.106 L95.954,325.138 L93.758,321.088 C93.674,320.944 93.611,320.833 93.569,320.755 C93.527,320.677 93.506,320.614 93.506,320.566 C93.506,320.458 93.566,320.404 93.686,320.404 L93.686,320.404 L93.686,320.08 L91.184,320.08 L91.184,320.404 C91.268,320.404 91.325,320.422 91.355,320.458 C91.385,320.494 91.4,320.596 91.4,320.764 L91.4,320.764 L91.4,327.352 C91.4,327.484 91.379,327.568 91.337,327.604 C91.295,327.64 91.244,327.664 91.184,327.676 L91.184,327.676 L91.184,328 L93.218,328 Z M106.268,328 L106.268,327.676 C106.016,327.676 105.89,327.586 105.89,327.406 L105.89,327.406 L105.89,324.706 L108.95,324.706 C109.922,324.706 110.651,324.541 111.137,324.211 C111.623,323.881 111.866,323.284 111.866,322.42 C111.866,321.556 111.623,320.95 111.137,320.602 C110.651,320.254 109.922,320.08 108.95,320.08 L108.95,320.08 L103.712,320.08 L103.712,320.404 C104.012,320.404 104.162,320.494 104.162,320.674 L104.162,320.674 L104.162,327.406 C104.162,327.586 104.012,327.676 103.712,327.676 L103.712,327.676 L103.712,328 L106.268,328 Z M108.914,323.374 L105.89,323.374 L105.89,321.412 L108.914,321.412 C109.262,321.412 109.553,321.487 109.787,321.637 C110.021,321.787 110.138,322.048 110.138,322.42 C110.138,322.804 110.021,323.059 109.787,323.185 C109.553,323.311 109.262,323.374 108.914,323.374 L108.914,323.374 Z M118.202,328 L118.202,327.676 C117.986,327.676 117.878,327.586 117.878,327.406 L117.878,327.406 L117.878,321.412 L120.218,321.412 C120.314,321.412 120.404,321.436 120.488,321.484 C120.572,321.532 120.614,321.61 120.614,321.718 L120.614,321.718 L120.938,321.718 L120.938,319.648 L120.614,319.648 C120.614,319.816 120.572,319.93 120.488,319.99 C120.404,320.05 120.314,320.08 120.218,320.08 L120.218,320.08 L113.81,320.08 C113.714,320.08 113.624,320.05 113.54,319.99 C113.456,319.93 113.414,319.816 113.414,319.648 L113.414,319.648 L113.09,319.648 L113.09,321.718 L113.414,321.718 C113.414,321.61 113.456,321.532 113.54,321.484 C113.624,321.436 113.714,321.412 113.81,321.412 L113.81,321.412 L116.15,321.412 L116.15,327.406 C116.15,327.502 116.12,327.571 116.06,327.613 C116,327.655 115.94,327.676 115.88,327.676 L115.88,327.676 L115.88,328 L118.202,328 Z M127.004,328.054 C127.664,328.054 128.285,327.979 128.867,327.829 C129.449,327.679 129.956,327.436 130.388,327.1 C130.82,326.764 131.162,326.341 131.414,325.831 C131.666,325.321 131.792,324.724 131.792,324.04 C131.792,323.356 131.666,322.759 131.414,322.249 C131.162,321.739 130.82,321.316 130.388,320.98 C129.956,320.644 129.449,320.392 128.867,320.224 C128.285,320.056 127.664,319.972 127.004,319.972 C126.344,319.972 125.723,320.056 125.141,320.224 C124.559,320.392 124.052,320.644 123.62,320.98 C123.188,321.316 122.846,321.739 122.594,322.249 C122.342,322.759 122.216,323.356 122.216,324.04 C122.216,324.724 122.342,325.321 122.594,325.831 C122.846,326.341 123.188,326.764 123.62,327.1 C124.052,327.436 124.559,327.679 125.141,327.829 C125.723,327.979 126.344,328.054 127.004,328.054 Z M127.004,326.776 C126.62,326.776 126.245,326.713 125.879,326.587 C125.513,326.461 125.186,326.281 124.898,326.047 C124.61,325.813 124.379,325.528 124.205,325.192 C124.031,324.856 123.944,324.472 123.944,324.04 C123.944,323.608 124.031,323.224 124.205,322.888 C124.379,322.552 124.61,322.267 124.898,322.033 C125.186,321.799 125.513,321.619 125.879,321.493 C126.245,321.367 126.62,321.304 127.004,321.304 C127.388,321.304 127.763,321.367 128.129,321.493 C128.495,321.619 128.822,321.799 129.11,322.033 C129.398,322.267 129.629,322.552 129.803,322.888 C129.977,323.224 130.064,323.608 130.064,324.04 C130.064,324.472 129.977,324.856 129.803,325.192 C129.629,325.528 129.398,325.813 129.11,326.047 C128.822,326.281 128.495,326.461 128.129,326.587 C127.763,326.713 127.388,326.776 127.004,326.776 Z M136.22,328 L136.22,327.676 C136.016,327.676 135.914,327.586 135.914,327.406 L135.914,327.406 L135.914,322.348 L135.932,322.348 L138.83,328 L138.974,328 L142.034,322.348 L142.07,322.348 L142.07,327.406 C142.106,327.586 141.998,327.676 141.746,327.676 L141.746,327.676 L141.746,328 L143.834,328 L143.834,327.676 C143.774,327.676 143.717,327.655 143.663,327.613 C143.609,327.571 143.582,327.502 143.582,327.406 L143.582,327.406 L143.582,320.638 C143.582,320.542 143.609,320.479 143.663,320.449 C143.717,320.419 143.774,320.404 143.834,320.404 L143.834,320.404 L143.834,320.08 L141.296,320.08 L141.296,320.404 C141.392,320.404 141.44,320.458 141.44,320.566 C141.44,320.602 141.416,320.665 141.368,320.755 C141.32,320.845 141.254,320.962 141.17,321.106 L141.17,321.106 L138.956,325.138 L136.76,321.088 C136.676,320.944 136.613,320.833 136.571,320.755 C136.529,320.677 136.508,320.614 136.508,320.566 C136.508,320.458 136.568,320.404 136.688,320.404 L136.688,320.404 L136.688,320.08 L134.186,320.08 L134.186,320.404 C134.27,320.404 134.327,320.422 134.357,320.458 C134.387,320.494 134.402,320.596 134.402,320.764 L134.402,320.764 L134.402,327.352 C134.402,327.484 134.381,327.568 134.339,327.604 C134.297,327.64 134.246,327.664 134.186,327.676 L134.186,327.676 L134.186,328 L136.22,328 Z M154.76,328 L154.76,327.676 C154.508,327.676 154.382,327.586 154.382,327.406 L154.382,327.406 L154.382,324.706 L157.442,324.706 C158.414,324.706 159.143,324.541 159.629,324.211 C160.115,323.881 160.358,323.284 160.358,322.42 C160.358,321.556 160.115,320.95 159.629,320.602 C159.143,320.254 158.414,320.08 157.442,320.08 L157.442,320.08 L152.204,320.08 L152.204,320.404 C152.504,320.404 152.654,320.494 152.654,320.674 L152.654,320.674 L152.654,327.406 C152.654,327.586 152.504,327.676 152.204,327.676 L152.204,327.676 L152.204,328 L154.76,328 Z M157.406,323.374 L154.382,323.374 L154.382,321.412 L157.406,321.412 C157.754,321.412 158.045,321.487 158.279,321.637 C158.513,321.787 158.63,322.048 158.63,322.42 C158.63,322.804 158.513,323.059 158.279,323.185 C158.045,323.311 157.754,323.374 157.406,323.374 L157.406,323.374 Z M165.362,328 L165.362,327.676 C165.026,327.676 164.858,327.586 164.858,327.406 L164.858,327.406 L164.858,320.674 C164.858,320.494 165.026,320.404 165.362,320.404 L165.362,320.404 L165.362,320.08 L162.626,320.08 L162.626,320.404 C162.818,320.404 162.95,320.425 163.022,320.467 C163.094,320.509 163.13,320.578 163.13,320.674 L163.13,320.674 L163.13,327.406 C163.13,327.502 163.094,327.571 163.022,327.613 C162.95,327.655 162.818,327.676 162.626,327.676 L162.626,327.676 L162.626,328 L165.362,328 Z M176.252,328.18 L176.252,326.29 L175.928,326.29 C175.928,326.41 175.88,326.503 175.784,326.569 C175.688,326.635 175.568,326.668 175.424,326.668 L175.424,326.668 L170.564,326.668 L170.564,320.674 C170.564,320.494 170.702,320.404 170.978,320.404 L170.978,320.404 L170.978,320.08 L168.368,320.08 L168.368,320.404 C168.68,320.404 168.836,320.494 168.836,320.674 L168.836,320.674 L168.836,327.406 C168.836,327.586 168.68,327.676 168.368,327.676 L168.368,327.676 L168.368,328 L175.424,328 C175.568,328 175.688,328.006 175.784,328.018 C175.88,328.03 175.928,328.084 175.928,328.18 L175.928,328.18 L176.252,328.18 Z M185.918,328.198 L185.918,326.308 L185.594,326.308 C185.594,326.416 185.546,326.503 185.45,326.569 C185.354,326.635 185.234,326.668 185.09,326.668 L185.09,326.668 L180.482,326.668 L180.482,324.544 L183.11,324.544 C183.35,324.544 183.536,324.559 183.668,324.589 C183.8,324.619 183.848,324.7 183.812,324.832 L183.812,324.832 L184.172,324.832 L184.172,322.924 L183.848,322.924 C183.848,323.056 183.8,323.137 183.704,323.167 C183.608,323.197 183.458,323.212 183.254,323.212 L183.254,323.212 L180.482,323.212 L180.482,321.412 L184.874,321.412 C185.246,321.412 185.432,321.526 185.432,321.754 L185.432,321.754 L185.756,321.754 L185.756,319.756 L185.432,319.756 C185.432,319.972 185.246,320.08 184.874,320.08 L184.874,320.08 L178.484,320.08 L178.484,320.404 C178.544,320.404 178.604,320.425 178.664,320.467 C178.724,320.509 178.754,320.578 178.754,320.674 L178.754,320.674 L178.754,327.406 C178.754,327.502 178.724,327.571 178.664,327.613 C178.604,327.655 178.544,327.676 178.484,327.676 L178.484,327.676 L178.484,328 L185.09,328 C185.234,328 185.354,328.006 185.45,328.018 C185.546,328.03 185.594,328.09 185.594,328.198 L185.594,328.198 L185.918,328.198 Z M189.752,328.054 C190.1,328.054 190.4,327.937 190.652,327.703 C190.904,327.469 191.03,327.178 191.03,326.83 C191.03,326.482 190.904,326.182 190.652,325.93 C190.4,325.678 190.1,325.552 189.752,325.552 C189.404,325.552 189.104,325.678 188.852,325.93 C188.6,326.182 188.474,326.482 188.474,326.83 C188.474,327.178 188.6,327.469 188.852,327.703 C189.104,327.937 189.404,328.054 189.752,328.054 Z" id="Totallynotmyweightedblanket.Addthistoyoursymptompile." fill="#000000" fill-rule="nonzero"></path>
    </g>
</svg>