<?xml version="1.0" encoding="UTF-8"?>
<svg width="262px" height="360px" viewBox="0 0 262 360" version="1.1" xmlns="http://www.w3.org/2000/svg" xmlns:xlink="http://www.w3.org/1999/xlink">
    <title>Loss of Taste 2</title>
    <g id="Loss-of-Taste-2" stroke="none" stroke-width="1" fill="none" fill-rule="evenodd">
        <g id="Group" transform="translate(9.000000, 9.000000)" fill="#FFFFFF" stroke="#000000" stroke-width="3">
            <g id="Rectangle">
                <rect x="1.5" y="1.5" width="239" height="337" rx="8"></rect>
            </g>
        </g>
        <path d="M219.82,30.312 L219.82,27.12 L219.532,27.12 C219.532,27.44 219.456,27.632 219.304,27.696 C219.152,27.76 218.988,27.792 218.812,27.792 L218.812,27.792 L210.892,27.792 L210.892,27.552 C211.324,27.152 211.824,26.824 212.392,26.568 C212.96,26.312 213.552,26.068 214.168,25.836 C214.784,25.604 215.388,25.368 215.98,25.128 C216.572,24.888 217.104,24.596 217.576,24.252 C218.048,23.908 218.428,23.488 218.716,22.992 C219.004,22.496 219.148,21.872 219.148,21.12 C219.148,20.416 219.008,19.82 218.728,19.332 C218.448,18.844 218.08,18.444 217.624,18.132 C217.168,17.82 216.648,17.592 216.064,17.448 C215.48,17.304 214.884,17.232 214.276,17.232 C213.348,17.232 212.548,17.352 211.876,17.592 C211.204,17.832 210.644,18.096 210.196,18.384 C209.748,18.672 209.396,18.936 209.14,19.176 C208.884,19.416 208.708,19.536 208.612,19.536 C208.532,19.536 208.46,19.52 208.396,19.488 L208.396,19.488 L208.204,19.392 L207.964,19.56 L210.436,22.2 L210.676,22.032 C210.612,21.984 210.56,21.896 210.52,21.768 C210.48,21.64 210.46,21.536 210.46,21.456 C210.46,21.12 210.592,20.82 210.856,20.556 C211.12,20.292 211.436,20.064 211.804,19.872 C212.172,19.68 212.556,19.536 212.956,19.44 C213.356,19.344 213.692,19.296 213.964,19.296 C214.236,19.296 214.516,19.32 214.804,19.368 C215.092,19.416 215.356,19.508 215.596,19.644 C215.836,19.78 216.032,19.956 216.184,20.172 C216.336,20.388 216.412,20.664 216.412,21 C216.412,21.496 216.2,21.928 215.776,22.296 C215.352,22.664 214.82,23.02 214.18,23.364 C213.54,23.708 212.852,24.056 212.116,24.408 C211.38,24.76 210.692,25.168 210.052,25.632 C209.412,26.096 208.88,26.632 208.456,27.24 C208.032,27.848 207.82,28.576 207.82,29.424 L207.82,29.424 L207.82,30.288 L208.108,30.288 C208.108,30.144 208.164,30.06 208.276,30.036 C208.388,30.012 208.532,30 208.708,30 L208.708,30 L218.812,30 C218.988,30 219.152,30.008 219.304,30.024 C219.456,30.04 219.532,30.136 219.532,30.312 L219.532,30.312 L219.82,30.312 Z" id="2" fill="#000000" fill-rule="nonzero"></path>
        <g id="Face" transform="translate(225.000000, 15.000000)">
            <circle id="Oval" stroke="#000000" fill="#FFFFFF" cx="9.5" cy="9.5" r="9"></circle>
            <circle id="Oval" fill="#000000" cx="5" cy="8" r="1"></circle>
            <circle id="Oval-Copy" fill="#000000" cx="12" cy="8" r="1"></circle>
            <line x1="12.0789474" y1="13.9090909" x2="14.5" y2="11.5" id="Line-4" stroke="#000000" stroke-linecap="round"></line>
            <path d="M3,5.89285714 C3.41025641,5.96428571 3.76923077,6 4.07692308,6 C4.38461538,6 5.35897436,5.33333333 7,4" id="Line-2" stroke="#000000"></path>
            <path d="M6,15 C6.96078431,14.3333333 8.07598039,14 9.34558824,14 C10.6151961,14 11.8333333,14.3333333 13,15" id="Line" stroke="#000000" stroke-linecap="round" stroke-linejoin="round"></path>
            <path d="M11.3197366,4.68245322 C11.585843,4.80663622 11.7912611,4.92388646 11.9359908,5.03420394 C12.548667,5.50120471 13.1333088,5.70898724 13.3155349,5.80010028 C13.5440857,5.91437569 13.8101922,6.00751295 14.1138542,6.07951204" id="Line-3" stroke="#000000" stroke-linecap="square" transform="translate(12.716795, 5.380983) rotate(-3.000000) translate(-12.716795, -5.380983) "></path>
            <path d="M2.999,9.347 L3.01687864,9.39698204 C3.09438102,9.62639002 3.1880913,9.89570266 3.30282211,10.2112791 C3.48139895,10.7024692 3.54804655,11.0169045 3.47980817,11.2204078 C3.41244402,11.421304 3.17143148,11.4011566 3.01518318,11.4416373 L3.01518318,11.4416373 L2.86575433,11.4813457 C2.78836954,11.5029149 2.70310591,11.5126925 2.63007237,11.4810832 C2.58941161,11.463485 2.56030088,11.4264037 2.54036126,11.376794 C2.4446463,11.1386559 2.49784548,10.759559 2.69717789,10.2112791 C2.8119087,9.89570266 2.90561898,9.62639002 2.98312136,9.39698204 L2.999,9.347 Z" id="Oval" stroke="#000000"></path>
            <path d="M16,6.347 L16.0168786,6.39698204 C16.094381,6.62639002 16.1880913,6.89570266 16.3028221,7.21127907 C16.481399,7.70246915 16.5480465,8.01690453 16.4798082,8.22040783 C16.412444,8.42130397 16.1714315,8.40115659 16.0151832,8.44163726 L16.0151832,8.44163726 L15.8657543,8.48134574 C15.7883695,8.50291486 15.7031059,8.51269255 15.6300724,8.48108319 C15.5894116,8.46348497 15.5603009,8.42640366 15.5403613,8.37679403 C15.4446463,8.13865595 15.4978455,7.75955902 15.6971779,7.21127907 C15.8119087,6.89570266 15.905619,6.62639002 15.9831214,6.39698204 L16,6.347 Z" id="Oval-Copy-2" stroke="#000000"></path>
        </g>
        <rect id="Rectangle" stroke="#000000" stroke-width="3" x="17.5" y="259.5" width="225" height="82" rx="8"></rect>
        <path d="M83.804,57.684 L83.804,52.752 L83.156,52.752 C83.156,53.04 83.042,53.268 82.814,53.436 C82.586,53.604 82.292,53.688 81.932,53.688 L81.932,53.688 L69.98,53.688 L69.98,39.36 C69.98,38.928 70.316,38.712 70.988,38.712 L70.988,38.712 L70.988,38.064 L64.796,38.064 L64.796,38.712 C65.516,38.712 65.876,38.928 65.876,39.36 L65.876,39.36 L65.876,55.704 C65.876,56.136 65.516,56.352 64.796,56.352 L64.796,56.352 L64.796,57 L81.932,57 C82.292,57 82.586,57.024 82.814,57.072 C83.042,57.12 83.156,57.324 83.156,57.684 L83.156,57.684 L83.804,57.684 Z M95.468,57.108 C96.788,57.108 98.03,56.958 99.194,56.658 C100.358,56.358 101.372,55.872 102.236,55.2 C103.1,54.528 103.784,53.682 104.288,52.662 C104.792,51.642 105.044,50.448 105.044,49.08 C105.044,47.712 104.792,46.518 104.288,45.498 C103.784,44.478 103.1,43.632 102.236,42.96 C101.372,42.288 100.358,41.784 99.194,41.448 C98.03,41.112 96.788,40.944 95.468,40.944 C94.148,40.944 92.906,41.112 91.742,41.448 C90.578,41.784 89.564,42.288 88.7,42.96 C87.836,43.632 87.152,44.478 86.648,45.498 C86.144,46.518 85.892,47.712 85.892,49.08 C85.892,50.448 86.144,51.642 86.648,52.662 C87.152,53.682 87.836,54.528 88.7,55.2 C89.564,55.872 90.578,56.358 91.742,56.658 C92.906,56.958 94.148,57.108 95.468,57.108 Z M95.468,54.552 C94.7,54.552 93.95,54.426 93.218,54.174 C92.486,53.922 91.832,53.562 91.256,53.094 C90.68,52.626 90.218,52.056 89.87,51.384 C89.522,50.712 89.348,49.944 89.348,49.08 C89.348,48.216 89.522,47.448 89.87,46.776 C90.218,46.104 90.68,45.534 91.256,45.066 C91.832,44.598 92.486,44.238 93.218,43.986 C93.95,43.734 94.7,43.608 95.468,43.608 C96.236,43.608 96.986,43.734 97.718,43.986 C98.45,44.238 99.104,44.598 99.68,45.066 C100.256,45.534 100.718,46.104 101.066,46.776 C101.414,47.448 101.588,48.216 101.588,49.08 C101.588,49.944 101.414,50.712 101.066,51.384 C100.718,52.056 100.256,52.626 99.68,53.094 C99.104,53.562 98.45,53.922 97.718,54.174 C96.986,54.426 96.236,54.552 95.468,54.552 Z M116.204,57.108 C117.02,57.108 117.89,57.048 118.814,56.928 C119.738,56.808 120.584,56.556 121.352,56.172 C122.12,55.788 122.762,55.26 123.278,54.588 C123.794,53.916 124.052,53.052 124.052,51.996 C124.052,50.94 123.758,50.112 123.17,49.512 C122.582,48.912 121.844,48.456 120.956,48.144 C120.068,47.832 119.108,47.61 118.076,47.478 C117.044,47.346 116.084,47.214 115.196,47.082 C114.308,46.95 113.57,46.77 112.982,46.542 C112.394,46.314 112.1,45.936 112.1,45.408 C112.1,45.072 112.196,44.79 112.388,44.562 C112.58,44.334 112.844,44.148 113.18,44.004 C113.516,43.86 113.9,43.758 114.332,43.698 C114.764,43.638 115.22,43.608 115.7,43.608 C116.948,43.608 118.076,43.752 119.084,44.04 C120.092,44.328 120.836,44.676 121.316,45.084 C121.508,45.228 121.616,45.372 121.64,45.516 L121.64,45.516 L121.712,45.948 L122.36,46.164 L124.16,42.78 L123.764,42.384 C123.62,42.456 123.5,42.522 123.404,42.582 C123.308,42.642 123.164,42.672 122.972,42.672 C122.804,42.672 122.546,42.582 122.198,42.402 C121.85,42.222 121.4,42.024 120.848,41.808 C120.296,41.592 119.618,41.394 118.814,41.214 C118.01,41.034 117.044,40.944 115.916,40.944 C113.612,40.944 111.824,41.4 110.552,42.312 C109.28,43.224 108.644,44.448 108.644,45.984 C108.644,47.016 108.938,47.814 109.526,48.378 C110.114,48.942 110.852,49.374 111.74,49.674 C112.628,49.974 113.588,50.19 114.62,50.322 C115.652,50.454 116.612,50.586 117.5,50.718 C118.388,50.85 119.126,51.036 119.714,51.276 C120.302,51.516 120.596,51.9 120.596,52.428 C120.596,52.884 120.428,53.25 120.092,53.526 C119.756,53.802 119.348,54.018 118.868,54.174 C118.388,54.33 117.902,54.432 117.41,54.48 C116.918,54.528 116.504,54.552 116.168,54.552 C115.808,54.552 115.31,54.492 114.674,54.372 C114.038,54.252 113.402,54.09 112.766,53.886 C112.13,53.682 111.584,53.43 111.128,53.13 C110.672,52.83 110.444,52.5 110.444,52.14 C110.444,52.02 110.45,51.906 110.462,51.798 C110.474,51.69 110.48,51.588 110.48,51.492 L110.48,51.492 L109.796,51.312 L108.14,55.344 L108.644,55.704 C108.764,55.56 108.908,55.488 109.076,55.488 C109.172,55.488 109.448,55.578 109.904,55.758 C110.36,55.938 110.918,56.13 111.578,56.334 C112.238,56.538 112.97,56.718 113.774,56.874 C114.578,57.03 115.388,57.108 116.204,57.108 Z M136.22,57.108 C137.036,57.108 137.906,57.048 138.83,56.928 C139.754,56.808 140.6,56.556 141.368,56.172 C142.136,55.788 142.778,55.26 143.294,54.588 C143.81,53.916 144.068,53.052 144.068,51.996 C144.068,50.94 143.774,50.112 143.186,49.512 C142.598,48.912 141.86,48.456 140.972,48.144 C140.084,47.832 139.124,47.61 138.092,47.478 C137.06,47.346 136.1,47.214 135.212,47.082 C134.324,46.95 133.586,46.77 132.998,46.542 C132.41,46.314 132.116,45.936 132.116,45.408 C132.116,45.072 132.212,44.79 132.404,44.562 C132.596,44.334 132.86,44.148 133.196,44.004 C133.532,43.86 133.916,43.758 134.348,43.698 C134.78,43.638 135.236,43.608 135.716,43.608 C136.964,43.608 138.092,43.752 139.1,44.04 C140.108,44.328 140.852,44.676 141.332,45.084 C141.524,45.228 141.632,45.372 141.656,45.516 L141.656,45.516 L141.728,45.948 L142.376,46.164 L144.176,42.78 L143.78,42.384 C143.636,42.456 143.516,42.522 143.42,42.582 C143.324,42.642 143.18,42.672 142.988,42.672 C142.82,42.672 142.562,42.582 142.214,42.402 C141.866,42.222 141.416,42.024 140.864,41.808 C140.312,41.592 139.634,41.394 138.83,41.214 C138.026,41.034 137.06,40.944 135.932,40.944 C133.628,40.944 131.84,41.4 130.568,42.312 C129.296,43.224 128.66,44.448 128.66,45.984 C128.66,47.016 128.954,47.814 129.542,48.378 C130.13,48.942 130.868,49.374 131.756,49.674 C132.644,49.974 133.604,50.19 134.636,50.322 C135.668,50.454 136.628,50.586 137.516,50.718 C138.404,50.85 139.142,51.036 139.73,51.276 C140.318,51.516 140.612,51.9 140.612,52.428 C140.612,52.884 140.444,53.25 140.108,53.526 C139.772,53.802 139.364,54.018 138.884,54.174 C138.404,54.33 137.918,54.432 137.426,54.48 C136.934,54.528 136.52,54.552 136.184,54.552 C135.824,54.552 135.326,54.492 134.69,54.372 C134.054,54.252 133.418,54.09 132.782,53.886 C132.146,53.682 131.6,53.43 131.144,53.13 C130.688,52.83 130.46,52.5 130.46,52.14 C130.46,52.02 130.466,51.906 130.478,51.798 C130.49,51.69 130.496,51.588 130.496,51.492 L130.496,51.492 L129.812,51.312 L128.156,55.344 L128.66,55.704 C128.78,55.56 128.924,55.488 129.092,55.488 C129.188,55.488 129.464,55.578 129.92,55.758 C130.376,55.938 130.934,56.13 131.594,56.334 C132.254,56.538 132.986,56.718 133.79,56.874 C134.594,57.03 135.404,57.108 136.22,57.108 Z M168.476,57.108 C169.796,57.108 171.038,56.958 172.202,56.658 C173.366,56.358 174.38,55.872 175.244,55.2 C176.108,54.528 176.792,53.682 177.296,52.662 C177.8,51.642 178.052,50.448 178.052,49.08 C178.052,47.712 177.8,46.518 177.296,45.498 C176.792,44.478 176.108,43.632 175.244,42.96 C174.38,42.288 173.366,41.784 172.202,41.448 C171.038,41.112 169.796,40.944 168.476,40.944 C167.156,40.944 165.914,41.112 164.75,41.448 C163.586,41.784 162.572,42.288 161.708,42.96 C160.844,43.632 160.16,44.478 159.656,45.498 C159.152,46.518 158.9,47.712 158.9,49.08 C158.9,50.448 159.152,51.642 159.656,52.662 C160.16,53.682 160.844,54.528 161.708,55.2 C162.572,55.872 163.586,56.358 164.75,56.658 C165.914,56.958 167.156,57.108 168.476,57.108 Z M168.476,54.552 C167.708,54.552 166.958,54.426 166.226,54.174 C165.494,53.922 164.84,53.562 164.264,53.094 C163.688,52.626 163.226,52.056 162.878,51.384 C162.53,50.712 162.356,49.944 162.356,49.08 C162.356,48.216 162.53,47.448 162.878,46.776 C163.226,46.104 163.688,45.534 164.264,45.066 C164.84,44.598 165.494,44.238 166.226,43.986 C166.958,43.734 167.708,43.608 168.476,43.608 C169.244,43.608 169.994,43.734 170.726,43.986 C171.458,44.238 172.112,44.598 172.688,45.066 C173.264,45.534 173.726,46.104 174.074,46.776 C174.422,47.448 174.596,48.216 174.596,49.08 C174.596,49.944 174.422,50.712 174.074,51.384 C173.726,52.056 173.264,52.626 172.688,53.094 C172.112,53.562 171.458,53.922 170.726,54.174 C169.994,54.426 169.244,54.552 168.476,54.552 Z M187.232,57 L187.232,56.352 C187.016,56.352 186.824,56.31 186.656,56.226 C186.488,56.142 186.404,56.004 186.404,55.812 L186.404,55.812 L186.404,50.304 L192.74,50.304 C193.148,50.304 193.4,50.352 193.496,50.448 C193.592,50.544 193.652,50.688 193.676,50.88 L193.676,50.88 L194.324,50.88 L194.324,47.1 L193.676,47.1 C193.652,47.292 193.592,47.43 193.496,47.514 C193.4,47.598 193.148,47.64 192.74,47.64 L192.74,47.64 L186.404,47.64 L186.404,43.824 L196.16,43.824 C196.568,43.824 196.856,43.878 197.024,43.986 C197.192,44.094 197.276,44.208 197.276,44.328 L197.276,44.328 L197.924,44.328 L197.924,40.512 L197.276,40.512 C197.276,40.704 197.192,40.86 197.024,40.98 C196.856,41.1 196.568,41.16 196.16,41.16 L196.16,41.16 L182.192,41.16 L182.192,41.808 C182.696,41.808 182.948,41.988 182.948,42.348 L182.948,42.348 L182.948,55.812 C182.948,56.172 182.72,56.352 182.264,56.352 L182.264,56.352 L182.264,57 L187.232,57 Z M94.802,93 L94.802,92.352 C94.274,92.352 94.01,92.136 94.01,91.704 L94.01,91.704 L94.01,77.376 L99.95,77.376 C100.166,77.376 100.376,77.436 100.58,77.556 C100.784,77.676 100.886,77.904 100.886,78.24 L100.886,78.24 L101.534,78.24 L101.534,73.2 L100.886,73.2 C100.886,73.536 100.784,73.764 100.58,73.884 C100.376,74.004 100.166,74.064 99.95,74.064 L99.95,74.064 L83.966,74.064 C83.75,74.064 83.54,74.004 83.336,73.884 C83.132,73.764 83.03,73.536 83.03,73.2 L83.03,73.2 L82.382,73.2 L82.382,78.24 L83.03,78.24 C83.03,77.904 83.132,77.676 83.336,77.556 C83.54,77.436 83.75,77.376 83.966,77.376 L83.966,77.376 L89.906,77.376 L89.906,91.704 C89.906,91.92 89.84,92.082 89.708,92.19 C89.576,92.298 89.426,92.352 89.258,92.352 L89.258,92.352 L89.258,93 L94.802,93 Z M108.338,93 L108.338,92.352 C108.122,92.352 107.954,92.328 107.834,92.28 C107.714,92.232 107.654,92.112 107.654,91.92 C107.654,91.8 107.684,91.662 107.744,91.506 C107.804,91.35 107.882,91.176 107.978,90.984 L107.978,90.984 L108.986,89.04 L116.69,89.04 L117.662,91.092 C117.734,91.284 117.794,91.44 117.842,91.56 C117.89,91.68 117.914,91.812 117.914,91.956 C117.914,92.148 117.848,92.28 117.716,92.352 C117.584,92.424 117.458,92.46 117.338,92.46 L117.338,92.46 L117.338,93 L122.45,93 L122.45,92.352 C122.282,92.304 122.126,92.232 121.982,92.136 C121.838,92.04 121.706,91.884 121.586,91.668 L121.586,91.668 L115.754,79.428 C115.634,79.164 115.52,78.93 115.412,78.726 C115.304,78.522 115.25,78.348 115.25,78.204 C115.25,78.036 115.292,77.94 115.376,77.916 C115.46,77.892 115.538,77.856 115.61,77.808 L115.61,77.808 L115.61,77.16 L110.174,77.16 L110.174,77.808 C110.246,77.856 110.312,77.898 110.372,77.934 C110.432,77.97 110.462,78.06 110.462,78.204 C110.462,78.396 110.42,78.594 110.336,78.798 C110.252,79.002 110.138,79.272 109.994,79.608 L109.994,79.608 L104.63,91.308 C104.534,91.5 104.396,91.71 104.216,91.938 C104.036,92.166 103.802,92.304 103.514,92.352 L103.514,92.352 L103.514,93 L108.338,93 Z M115.538,86.376 L110.066,86.376 L112.622,80.328 L115.538,86.376 Z M132.71,93.108 C133.526,93.108 134.396,93.048 135.32,92.928 C136.244,92.808 137.09,92.556 137.858,92.172 C138.626,91.788 139.268,91.26 139.784,90.588 C140.3,89.916 140.558,89.052 140.558,87.996 C140.558,86.94 140.264,86.112 139.676,85.512 C139.088,84.912 138.35,84.456 137.462,84.144 C136.574,83.832 135.614,83.61 134.582,83.478 C133.55,83.346 132.59,83.214 131.702,83.082 C130.814,82.95 130.076,82.77 129.488,82.542 C128.9,82.314 128.606,81.936 128.606,81.408 C128.606,81.072 128.702,80.79 128.894,80.562 C129.086,80.334 129.35,80.148 129.686,80.004 C130.022,79.86 130.406,79.758 130.838,79.698 C131.27,79.638 131.726,79.608 132.206,79.608 C133.454,79.608 134.582,79.752 135.59,80.04 C136.598,80.328 137.342,80.676 137.822,81.084 C138.014,81.228 138.122,81.372 138.146,81.516 L138.146,81.516 L138.218,81.948 L138.866,82.164 L140.666,78.78 L140.27,78.384 C140.126,78.456 140.006,78.522 139.91,78.582 C139.814,78.642 139.67,78.672 139.478,78.672 C139.31,78.672 139.052,78.582 138.704,78.402 C138.356,78.222 137.906,78.024 137.354,77.808 C136.802,77.592 136.124,77.394 135.32,77.214 C134.516,77.034 133.55,76.944 132.422,76.944 C130.118,76.944 128.33,77.4 127.058,78.312 C125.786,79.224 125.15,80.448 125.15,81.984 C125.15,83.016 125.444,83.814 126.032,84.378 C126.62,84.942 127.358,85.374 128.246,85.674 C129.134,85.974 130.094,86.19 131.126,86.322 C132.158,86.454 133.118,86.586 134.006,86.718 C134.894,86.85 135.632,87.036 136.22,87.276 C136.808,87.516 137.102,87.9 137.102,88.428 C137.102,88.884 136.934,89.25 136.598,89.526 C136.262,89.802 135.854,90.018 135.374,90.174 C134.894,90.33 134.408,90.432 133.916,90.48 C133.424,90.528 133.01,90.552 132.674,90.552 C132.314,90.552 131.816,90.492 131.18,90.372 C130.544,90.252 129.908,90.09 129.272,89.886 C128.636,89.682 128.09,89.43 127.634,89.13 C127.178,88.83 126.95,88.5 126.95,88.14 C126.95,88.02 126.956,87.906 126.968,87.798 C126.98,87.69 126.986,87.588 126.986,87.492 L126.986,87.492 L126.302,87.312 L124.646,91.344 L125.15,91.704 C125.27,91.56 125.414,91.488 125.582,91.488 C125.678,91.488 125.954,91.578 126.41,91.758 C126.866,91.938 127.424,92.13 128.084,92.334 C128.744,92.538 129.476,92.718 130.28,92.874 C131.084,93.03 131.894,93.108 132.71,93.108 Z M154.382,93 L154.382,92.352 C153.95,92.352 153.734,92.172 153.734,91.812 L153.734,91.812 L153.734,79.824 L158.414,79.824 C158.606,79.824 158.786,79.872 158.954,79.968 C159.122,80.064 159.206,80.22 159.206,80.436 L159.206,80.436 L159.854,80.436 L159.854,76.296 L159.206,76.296 C159.206,76.632 159.122,76.86 158.954,76.98 C158.786,77.1 158.606,77.16 158.414,77.16 L158.414,77.16 L145.598,77.16 C145.406,77.16 145.226,77.1 145.058,76.98 C144.89,76.86 144.806,76.632 144.806,76.296 L144.806,76.296 L144.158,76.296 L144.158,80.436 L144.806,80.436 C144.806,80.22 144.89,80.064 145.058,79.968 C145.226,79.872 145.406,79.824 145.598,79.824 L145.598,79.824 L150.278,79.824 L150.278,91.812 C150.278,92.004 150.218,92.142 150.098,92.226 C149.978,92.31 149.858,92.352 149.738,92.352 L149.738,92.352 L149.738,93 L154.382,93 Z M178.826,93.396 L178.826,89.616 L178.178,89.616 C178.178,89.832 178.082,90.006 177.89,90.138 C177.698,90.27 177.458,90.336 177.17,90.336 L177.17,90.336 L167.954,90.336 L167.954,86.088 L173.21,86.088 C173.69,86.088 174.062,86.118 174.326,86.178 C174.59,86.238 174.686,86.4 174.614,86.664 L174.614,86.664 L175.334,86.664 L175.334,82.848 L174.686,82.848 C174.686,83.112 174.59,83.274 174.398,83.334 C174.206,83.394 173.906,83.424 173.498,83.424 L173.498,83.424 L167.954,83.424 L167.954,79.824 L176.738,79.824 C177.482,79.824 177.854,80.052 177.854,80.508 L177.854,80.508 L178.502,80.508 L178.502,76.512 L177.854,76.512 C177.854,76.944 177.482,77.16 176.738,77.16 L176.738,77.16 L163.958,77.16 L163.958,77.808 C164.078,77.808 164.198,77.85 164.318,77.934 C164.438,78.018 164.498,78.156 164.498,78.348 L164.498,78.348 L164.498,91.812 C164.498,92.004 164.438,92.142 164.318,92.226 C164.198,92.31 164.078,92.352 163.958,92.352 L163.958,92.352 L163.958,93 L177.17,93 C177.458,93 177.698,93.012 177.89,93.036 C178.082,93.06 178.178,93.18 178.178,93.396 L178.178,93.396 L178.826,93.396 Z" id="LossofTaste" fill="#000000" fill-rule="nonzero"></path>
        <path d="M31.514,279 L31.514,278.676 C31.358,278.628 31.28,278.508 31.28,278.316 C31.28,278.196 31.37,277.902 31.55,277.434 L31.55,277.434 L33.512,272.232 L33.548,272.232 L35.618,277.542 C35.714,277.758 35.783,277.926 35.825,278.046 C35.867,278.166 35.888,278.274 35.888,278.37 C35.888,278.454 35.849,278.52 35.771,278.568 C35.693,278.616 35.618,278.652 35.546,278.676 L35.546,278.676 L35.546,279 L38.39,279 L38.39,278.676 C38.282,278.676 38.198,278.643 38.138,278.577 C38.078,278.511 38.048,278.436 38.048,278.352 C38.048,278.256 38.075,278.136 38.129,277.992 C38.183,277.848 38.246,277.68 38.318,277.488 L38.318,277.488 L40.91,270.612 C40.994,270.396 41.069,270.216 41.135,270.072 C41.201,269.928 41.3,269.856 41.432,269.856 L41.432,269.856 L41.432,269.532 L38.768,269.532 L38.768,269.856 C38.852,269.856 38.924,269.889 38.984,269.955 C39.044,270.021 39.074,270.09 39.074,270.162 C39.074,270.306 39.032,270.468 38.948,270.648 L38.948,270.648 L37.004,275.832 L36.968,275.832 L35.042,270.756 C34.922,270.468 34.862,270.264 34.862,270.144 C34.862,270.072 34.88,270.006 34.916,269.946 C34.952,269.886 35.012,269.856 35.096,269.856 L35.096,269.856 L35.096,269.532 L32.018,269.532 L32.018,269.856 C32.174,269.856 32.252,269.97 32.252,270.198 C32.252,270.258 32.243,270.327 32.225,270.405 C32.207,270.483 32.168,270.6 32.108,270.756 L32.108,270.756 L30.2,275.832 L30.164,275.832 L28.238,270.828 C28.166,270.636 28.121,270.498 28.103,270.414 C28.085,270.33 28.076,270.258 28.076,270.198 C28.076,269.97 28.166,269.856 28.346,269.856 L28.346,269.856 L28.346,269.532 L25.556,269.532 L25.556,269.856 C25.676,269.88 25.763,269.937 25.817,270.027 C25.871,270.117 25.922,270.228 25.97,270.36 L25.97,270.36 L28.85,277.794 C28.898,277.914 28.943,278.028 28.985,278.136 C29.027,278.244 29.048,278.346 29.048,278.442 C29.048,278.526 29.012,278.586 28.94,278.622 C28.868,278.658 28.796,278.676 28.724,278.676 L28.724,278.676 L28.724,279 L31.514,279 Z M45.842,279 L45.842,278.676 C45.77,278.676 45.707,278.655 45.653,278.613 C45.599,278.571 45.572,278.502 45.572,278.406 L45.572,278.406 L45.572,275.688 L50.396,275.688 L50.396,278.406 C50.396,278.502 50.369,278.571 50.315,278.613 C50.261,278.655 50.198,278.676 50.126,278.676 L50.126,278.676 L50.126,279 L52.394,279 L52.394,278.676 C52.322,278.676 52.259,278.655 52.205,278.613 C52.151,278.571 52.124,278.502 52.124,278.406 L52.124,278.406 L52.124,271.674 C52.124,271.578 52.151,271.509 52.205,271.467 C52.259,271.425 52.322,271.404 52.394,271.404 L52.394,271.404 L52.394,271.08 L50.126,271.08 L50.126,271.404 C50.198,271.404 50.261,271.425 50.315,271.467 C50.369,271.509 50.396,271.578 50.396,271.674 L50.396,271.674 L50.396,274.212 L45.572,274.212 L45.572,271.674 C45.572,271.578 45.599,271.509 45.653,271.467 C45.707,271.425 45.77,271.404 45.842,271.404 L45.842,271.404 L45.842,271.08 L43.574,271.08 L43.574,271.404 C43.646,271.404 43.709,271.425 43.763,271.467 C43.817,271.509 43.844,271.578 43.844,271.674 L43.844,271.674 L43.844,278.406 C43.844,278.502 43.817,278.571 43.763,278.613 C43.709,278.655 43.646,278.676 43.574,278.676 L43.574,278.676 L43.574,279 L45.842,279 Z M56.678,279 L56.678,278.676 C56.57,278.676 56.486,278.664 56.426,278.64 C56.366,278.616 56.336,278.556 56.336,278.46 C56.336,278.4 56.351,278.331 56.381,278.253 C56.411,278.175 56.45,278.088 56.498,277.992 L56.498,277.992 L57.002,277.02 L60.854,277.02 L61.34,278.046 C61.376,278.142 61.406,278.22 61.43,278.28 C61.454,278.34 61.466,278.406 61.466,278.478 C61.466,278.574 61.433,278.64 61.367,278.676 C61.301,278.712 61.238,278.73 61.178,278.73 L61.178,278.73 L61.178,279 L63.734,279 L63.734,278.676 C63.65,278.652 63.572,278.616 63.5,278.568 C63.428,278.52 63.362,278.442 63.302,278.334 L63.302,278.334 L60.386,272.214 C60.326,272.082 60.269,271.965 60.215,271.863 C60.161,271.761 60.134,271.674 60.134,271.602 C60.134,271.518 60.155,271.47 60.197,271.458 C60.239,271.446 60.278,271.428 60.314,271.404 L60.314,271.404 L60.314,271.08 L57.596,271.08 L57.596,271.404 C57.632,271.428 57.665,271.449 57.695,271.467 C57.725,271.485 57.74,271.53 57.74,271.602 C57.74,271.698 57.719,271.797 57.677,271.899 C57.635,272.001 57.578,272.136 57.506,272.304 L57.506,272.304 L54.824,278.154 C54.776,278.25 54.707,278.355 54.617,278.469 C54.527,278.583 54.41,278.652 54.266,278.676 L54.266,278.676 L54.266,279 L56.678,279 Z M60.278,275.688 L57.542,275.688 L58.82,272.664 L60.278,275.688 Z M69.692,279 L69.692,278.676 C69.476,278.676 69.368,278.586 69.368,278.406 L69.368,278.406 L69.368,272.412 L71.708,272.412 C71.804,272.412 71.894,272.436 71.978,272.484 C72.062,272.532 72.104,272.61 72.104,272.718 L72.104,272.718 L72.428,272.718 L72.428,270.648 L72.104,270.648 C72.104,270.816 72.062,270.93 71.978,270.99 C71.894,271.05 71.804,271.08 71.708,271.08 L71.708,271.08 L65.3,271.08 C65.204,271.08 65.114,271.05 65.03,270.99 C64.946,270.93 64.904,270.816 64.904,270.648 L64.904,270.648 L64.58,270.648 L64.58,272.718 L64.904,272.718 C64.904,272.61 64.946,272.532 65.03,272.484 C65.114,272.436 65.204,272.412 65.3,272.412 L65.3,272.412 L67.64,272.412 L67.64,278.406 C67.64,278.502 67.61,278.571 67.55,278.613 C67.49,278.655 67.43,278.676 67.37,278.676 L67.37,278.676 L67.37,279 L69.692,279 Z M84.776,279 C85.484,279 86.084,278.886 86.576,278.658 C87.068,278.43 87.47,278.133 87.782,277.767 C88.094,277.401 88.322,276.981 88.466,276.507 C88.61,276.033 88.682,275.544 88.682,275.04 C88.682,274.536 88.607,274.047 88.457,273.573 C88.307,273.099 88.073,272.679 87.755,272.313 C87.437,271.947 87.026,271.65 86.522,271.422 C86.018,271.194 85.412,271.08 84.704,271.08 L84.704,271.08 L79.7,271.08 L79.7,271.404 C79.976,271.404 80.114,271.494 80.114,271.674 L80.114,271.674 L80.114,278.406 C80.114,278.586 79.976,278.676 79.7,278.676 L79.7,278.676 L79.7,279 L84.776,279 Z M84.182,277.668 L81.842,277.668 L81.842,272.412 L84.182,272.412 C84.554,272.412 84.908,272.433 85.244,272.475 C85.58,272.517 85.874,272.625 86.126,272.799 C86.378,272.973 86.579,273.231 86.729,273.573 C86.879,273.915 86.954,274.386 86.954,274.986 C86.954,275.586 86.879,276.063 86.729,276.417 C86.579,276.771 86.378,277.041 86.126,277.227 C85.874,277.413 85.58,277.533 85.244,277.587 C84.908,277.641 84.554,277.668 84.182,277.668 L84.182,277.668 Z M94.982,279.054 C95.642,279.054 96.263,278.979 96.845,278.829 C97.427,278.679 97.934,278.436 98.366,278.1 C98.798,277.764 99.14,277.341 99.392,276.831 C99.644,276.321 99.77,275.724 99.77,275.04 C99.77,274.356 99.644,273.759 99.392,273.249 C99.14,272.739 98.798,272.316 98.366,271.98 C97.934,271.644 97.427,271.392 96.845,271.224 C96.263,271.056 95.642,270.972 94.982,270.972 C94.322,270.972 93.701,271.056 93.119,271.224 C92.537,271.392 92.03,271.644 91.598,271.98 C91.166,272.316 90.824,272.739 90.572,273.249 C90.32,273.759 90.194,274.356 90.194,275.04 C90.194,275.724 90.32,276.321 90.572,276.831 C90.824,277.341 91.166,277.764 91.598,278.1 C92.03,278.436 92.537,278.679 93.119,278.829 C93.701,278.979 94.322,279.054 94.982,279.054 Z M94.982,277.776 C94.598,277.776 94.223,277.713 93.857,277.587 C93.491,277.461 93.164,277.281 92.876,277.047 C92.588,276.813 92.357,276.528 92.183,276.192 C92.009,275.856 91.922,275.472 91.922,275.04 C91.922,274.608 92.009,274.224 92.183,273.888 C92.357,273.552 92.588,273.267 92.876,273.033 C93.164,272.799 93.491,272.619 93.857,272.493 C94.223,272.367 94.598,272.304 94.982,272.304 C95.366,272.304 95.741,272.367 96.107,272.493 C96.473,272.619 96.8,272.799 97.088,273.033 C97.376,273.267 97.607,273.552 97.781,273.888 C97.955,274.224 98.042,274.608 98.042,275.04 C98.042,275.472 97.955,275.856 97.781,276.192 C97.607,276.528 97.376,276.813 97.088,277.047 C96.8,277.281 96.473,277.461 96.107,277.587 C95.741,277.713 95.366,277.776 94.982,277.776 Z M112.19,279 L112.19,278.676 C111.962,278.676 111.848,278.586 111.848,278.406 L111.848,278.406 L111.848,275.706 L114.602,272.142 C114.734,271.974 114.887,271.809 115.061,271.647 C115.235,271.485 115.394,271.404 115.538,271.404 L115.538,271.404 L115.538,271.08 L112.784,271.08 L112.784,271.404 C112.844,271.404 112.904,271.416 112.964,271.44 C113.024,271.464 113.054,271.524 113.054,271.62 C113.054,271.692 113.027,271.767 112.973,271.845 C112.919,271.923 112.838,272.04 112.73,272.196 L112.73,272.196 L111.128,274.428 L109.31,272.052 C109.25,271.968 109.196,271.896 109.148,271.836 C109.1,271.776 109.076,271.71 109.076,271.638 C109.076,271.566 109.112,271.509 109.184,271.467 C109.256,271.425 109.322,271.404 109.382,271.404 L109.382,271.404 L109.382,271.08 L106.412,271.08 L106.412,271.404 C106.52,271.404 106.634,271.428 106.754,271.476 C106.874,271.524 106.976,271.602 107.06,271.71 L107.06,271.71 L110.12,275.634 L110.12,278.406 C110.12,278.586 110.012,278.676 109.796,278.676 L109.796,278.676 L109.796,279 L112.19,279 Z M121.478,279.054 C122.138,279.054 122.759,278.979 123.341,278.829 C123.923,278.679 124.43,278.436 124.862,278.1 C125.294,277.764 125.636,277.341 125.888,276.831 C126.14,276.321 126.266,275.724 126.266,275.04 C126.266,274.356 126.14,273.759 125.888,273.249 C125.636,272.739 125.294,272.316 124.862,271.98 C124.43,271.644 123.923,271.392 123.341,271.224 C122.759,271.056 122.138,270.972 121.478,270.972 C120.818,270.972 120.197,271.056 119.615,271.224 C119.033,271.392 118.526,271.644 118.094,271.98 C117.662,272.316 117.32,272.739 117.068,273.249 C116.816,273.759 116.69,274.356 116.69,275.04 C116.69,275.724 116.816,276.321 117.068,276.831 C117.32,277.341 117.662,277.764 118.094,278.1 C118.526,278.436 119.033,278.679 119.615,278.829 C120.197,278.979 120.818,279.054 121.478,279.054 Z M121.478,277.776 C121.094,277.776 120.719,277.713 120.353,277.587 C119.987,277.461 119.66,277.281 119.372,277.047 C119.084,276.813 118.853,276.528 118.679,276.192 C118.505,275.856 118.418,275.472 118.418,275.04 C118.418,274.608 118.505,274.224 118.679,273.888 C118.853,273.552 119.084,273.267 119.372,273.033 C119.66,272.799 119.987,272.619 120.353,272.493 C120.719,272.367 121.094,272.304 121.478,272.304 C121.862,272.304 122.237,272.367 122.603,272.493 C122.969,272.619 123.296,272.799 123.584,273.033 C123.872,273.267 124.103,273.552 124.277,273.888 C124.451,274.224 124.538,274.608 124.538,275.04 C124.538,275.472 124.451,275.856 124.277,276.192 C124.103,276.528 123.872,276.813 123.584,277.047 C123.296,277.281 122.969,277.461 122.603,277.587 C122.237,277.713 121.862,277.776 121.478,277.776 Z M133.052,279.054 C133.772,279.054 134.399,278.979 134.933,278.829 C135.467,278.679 135.905,278.472 136.247,278.208 C136.589,277.944 136.844,277.641 137.012,277.299 C137.18,276.957 137.264,276.6 137.264,276.228 L137.264,276.228 L137.264,271.674 C137.264,271.494 137.396,271.404 137.66,271.404 L137.66,271.404 L137.66,271.08 L135.158,271.08 L135.158,271.404 C135.458,271.404 135.608,271.494 135.608,271.674 L135.608,271.674 L135.608,275.796 C135.608,276.372 135.398,276.834 134.978,277.182 C134.558,277.53 133.916,277.704 133.052,277.704 C132.188,277.704 131.546,277.53 131.126,277.182 C130.706,276.834 130.496,276.372 130.496,275.796 L130.496,275.796 L130.496,271.674 C130.496,271.494 130.628,271.404 130.892,271.404 L130.892,271.404 L130.892,271.08 L128.318,271.08 L128.318,271.404 C128.522,271.404 128.66,271.425 128.732,271.467 C128.804,271.509 128.84,271.578 128.84,271.674 L128.84,271.674 L128.84,276.228 C128.84,276.6 128.924,276.957 129.092,277.299 C129.26,277.641 129.515,277.944 129.857,278.208 C130.199,278.472 130.637,278.679 131.171,278.829 C131.705,278.979 132.332,279.054 133.052,279.054 Z M148.19,279 L148.19,278.676 C147.986,278.676 147.884,278.586 147.884,278.406 L147.884,278.406 L147.884,273.348 L147.902,273.348 L150.8,279 L150.944,279 L154.004,273.348 L154.04,273.348 L154.04,278.406 C154.076,278.586 153.968,278.676 153.716,278.676 L153.716,278.676 L153.716,279 L155.804,279 L155.804,278.676 C155.744,278.676 155.687,278.655 155.633,278.613 C155.579,278.571 155.552,278.502 155.552,278.406 L155.552,278.406 L155.552,271.638 C155.552,271.542 155.579,271.479 155.633,271.449 C155.687,271.419 155.744,271.404 155.804,271.404 L155.804,271.404 L155.804,271.08 L153.266,271.08 L153.266,271.404 C153.362,271.404 153.41,271.458 153.41,271.566 C153.41,271.602 153.386,271.665 153.338,271.755 C153.29,271.845 153.224,271.962 153.14,272.106 L153.14,272.106 L150.926,276.138 L148.73,272.088 C148.646,271.944 148.583,271.833 148.541,271.755 C148.499,271.677 148.478,271.614 148.478,271.566 C148.478,271.458 148.538,271.404 148.658,271.404 L148.658,271.404 L148.658,271.08 L146.156,271.08 L146.156,271.404 C146.24,271.404 146.297,271.422 146.327,271.458 C146.357,271.494 146.372,271.596 146.372,271.764 L146.372,271.764 L146.372,278.352 C146.372,278.484 146.351,278.568 146.309,278.604 C146.267,278.64 146.216,278.664 146.156,278.676 L146.156,278.676 L146.156,279 L148.19,279 Z M166.388,279.198 L166.388,277.308 L166.064,277.308 C166.064,277.416 166.016,277.503 165.92,277.569 C165.824,277.635 165.704,277.668 165.56,277.668 L165.56,277.668 L160.952,277.668 L160.952,275.544 L163.58,275.544 C163.82,275.544 164.006,275.559 164.138,275.589 C164.27,275.619 164.318,275.7 164.282,275.832 L164.282,275.832 L164.642,275.832 L164.642,273.924 L164.318,273.924 C164.318,274.056 164.27,274.137 164.174,274.167 C164.078,274.197 163.928,274.212 163.724,274.212 L163.724,274.212 L160.952,274.212 L160.952,272.412 L165.344,272.412 C165.716,272.412 165.902,272.526 165.902,272.754 L165.902,272.754 L166.226,272.754 L166.226,270.756 L165.902,270.756 C165.902,270.972 165.716,271.08 165.344,271.08 L165.344,271.08 L158.954,271.08 L158.954,271.404 C159.014,271.404 159.074,271.425 159.134,271.467 C159.194,271.509 159.224,271.578 159.224,271.674 L159.224,271.674 L159.224,278.406 C159.224,278.502 159.194,278.571 159.134,278.613 C159.074,278.655 159.014,278.676 158.954,278.676 L158.954,278.676 L158.954,279 L165.56,279 C165.704,279 165.824,279.006 165.92,279.018 C166.016,279.03 166.064,279.09 166.064,279.198 L166.064,279.198 L166.388,279.198 Z M170.168,279 L170.168,278.676 C170.06,278.676 169.976,278.664 169.916,278.64 C169.856,278.616 169.826,278.556 169.826,278.46 C169.826,278.4 169.841,278.331 169.871,278.253 C169.901,278.175 169.94,278.088 169.988,277.992 L169.988,277.992 L170.492,277.02 L174.344,277.02 L174.83,278.046 C174.866,278.142 174.896,278.22 174.92,278.28 C174.944,278.34 174.956,278.406 174.956,278.478 C174.956,278.574 174.923,278.64 174.857,278.676 C174.791,278.712 174.728,278.73 174.668,278.73 L174.668,278.73 L174.668,279 L177.224,279 L177.224,278.676 C177.14,278.652 177.062,278.616 176.99,278.568 C176.918,278.52 176.852,278.442 176.792,278.334 L176.792,278.334 L173.876,272.214 C173.816,272.082 173.759,271.965 173.705,271.863 C173.651,271.761 173.624,271.674 173.624,271.602 C173.624,271.518 173.645,271.47 173.687,271.458 C173.729,271.446 173.768,271.428 173.804,271.404 L173.804,271.404 L173.804,271.08 L171.086,271.08 L171.086,271.404 C171.122,271.428 171.155,271.449 171.185,271.467 C171.215,271.485 171.23,271.53 171.23,271.602 C171.23,271.698 171.209,271.797 171.167,271.899 C171.125,272.001 171.068,272.136 170.996,272.304 L170.996,272.304 L168.314,278.154 C168.266,278.25 168.197,278.355 168.107,278.469 C168.017,278.583 167.9,278.652 167.756,278.676 L167.756,278.676 L167.756,279 L170.168,279 Z M173.768,275.688 L171.032,275.688 L172.31,272.664 L173.768,275.688 Z M181.166,279 L181.166,278.676 C180.914,278.676 180.788,278.586 180.788,278.406 L180.788,278.406 L180.788,273.168 L185.252,277.92 C185.396,278.076 185.525,278.214 185.639,278.334 C185.753,278.454 185.81,278.538 185.81,278.586 C185.81,278.646 185.768,278.676 185.684,278.676 L185.684,278.676 L185.684,279 L188.024,279 L188.024,278.676 C187.808,278.676 187.7,278.586 187.7,278.406 L187.7,278.406 L187.7,271.674 C187.7,271.494 187.808,271.404 188.024,271.404 L188.024,271.404 L188.024,271.08 L185.828,271.08 L185.828,271.404 C186.068,271.404 186.188,271.494 186.188,271.674 L186.188,271.674 L186.188,276.552 L181.868,271.98 C181.604,271.716 181.472,271.554 181.472,271.494 C181.472,271.446 181.514,271.416 181.598,271.404 L181.598,271.404 L181.598,271.08 L178.952,271.08 L178.952,271.404 C179.168,271.404 179.276,271.494 179.276,271.674 L179.276,271.674 L179.276,278.406 C179.276,278.586 179.168,278.676 178.952,278.676 L178.952,278.676 L178.952,279 L181.166,279 Z M198.788,279 L198.788,278.676 C198.716,278.676 198.641,278.655 198.563,278.613 C198.485,278.571 198.446,278.502 198.446,278.406 L198.446,278.406 L198.446,275.832 L200.948,275.832 L202.37,277.956 C202.55,278.208 202.64,278.394 202.64,278.514 C202.64,278.622 202.562,278.676 202.406,278.676 L202.406,278.676 L202.406,279 L205.16,279 L205.16,278.676 C205.028,278.64 204.905,278.589 204.791,278.523 C204.677,278.457 204.572,278.358 204.476,278.226 L204.476,278.226 L202.712,275.652 C202.964,275.592 203.21,275.505 203.45,275.391 C203.69,275.277 203.909,275.127 204.107,274.941 C204.305,274.755 204.464,274.536 204.584,274.284 C204.704,274.032 204.764,273.744 204.764,273.42 C204.764,272.568 204.464,271.965 203.864,271.611 C203.264,271.257 202.43,271.08 201.362,271.08 L201.362,271.08 L196.394,271.08 L196.394,271.404 C196.61,271.404 196.718,271.494 196.718,271.674 L196.718,271.674 L196.718,278.406 C196.718,278.586 196.61,278.676 196.394,278.676 L196.394,278.676 L196.394,279 L198.788,279 Z M201.326,274.5 L198.482,274.5 L198.482,272.412 L201.326,272.412 C201.938,272.412 202.385,272.499 202.667,272.673 C202.949,272.847 203.09,273.084 203.09,273.384 C203.09,274.128 202.502,274.5 201.326,274.5 L201.326,274.5 Z M211.478,279.054 C212.138,279.054 212.759,278.979 213.341,278.829 C213.923,278.679 214.43,278.436 214.862,278.1 C215.294,277.764 215.636,277.341 215.888,276.831 C216.14,276.321 216.266,275.724 216.266,275.04 C216.266,274.356 216.14,273.759 215.888,273.249 C215.636,272.739 215.294,272.316 214.862,271.98 C214.43,271.644 213.923,271.392 213.341,271.224 C212.759,271.056 212.138,270.972 211.478,270.972 C210.818,270.972 210.197,271.056 209.615,271.224 C209.033,271.392 208.526,271.644 208.094,271.98 C207.662,272.316 207.32,272.739 207.068,273.249 C206.816,273.759 206.69,274.356 206.69,275.04 C206.69,275.724 206.816,276.321 207.068,276.831 C207.32,277.341 207.662,277.764 208.094,278.1 C208.526,278.436 209.033,278.679 209.615,278.829 C210.197,278.979 210.818,279.054 211.478,279.054 Z M211.478,277.776 C211.094,277.776 210.719,277.713 210.353,277.587 C209.987,277.461 209.66,277.281 209.372,277.047 C209.084,276.813 208.853,276.528 208.679,276.192 C208.505,275.856 208.418,275.472 208.418,275.04 C208.418,274.608 208.505,274.224 208.679,273.888 C208.853,273.552 209.084,273.267 209.372,273.033 C209.66,272.799 209.987,272.619 210.353,272.493 C210.719,272.367 211.094,272.304 211.478,272.304 C211.862,272.304 212.237,272.367 212.603,272.493 C212.969,272.619 213.296,272.799 213.584,273.033 C213.872,273.267 214.103,273.552 214.277,273.888 C214.451,274.224 214.538,274.608 214.538,275.04 C214.538,275.472 214.451,275.856 214.277,276.192 C214.103,276.528 213.872,276.813 213.584,277.047 C213.296,277.281 212.969,277.461 212.603,277.587 C212.237,277.713 211.862,277.776 211.478,277.776 Z M222.062,279.054 C222.602,279.054 223.091,279.006 223.529,278.91 C223.967,278.814 224.351,278.697 224.681,278.559 C225.011,278.421 225.284,278.298 225.5,278.19 C225.716,278.082 225.872,278.028 225.968,278.028 C226.028,278.028 226.13,278.058 226.274,278.118 L226.274,278.118 L226.454,278.028 L225.122,276.12 L224.924,276.3 C224.936,276.348 224.942,276.408 224.942,276.48 L224.942,276.48 L224.942,276.624 C224.942,276.732 224.855,276.852 224.681,276.984 C224.507,277.116 224.282,277.239 224.006,277.353 C223.73,277.467 223.424,277.566 223.088,277.65 C222.752,277.734 222.422,277.776 222.098,277.776 C221.75,277.776 221.408,277.713 221.072,277.587 C220.736,277.461 220.436,277.275 220.172,277.029 C219.908,276.783 219.695,276.489 219.533,276.147 C219.371,275.805 219.29,275.418 219.29,274.986 C219.29,274.554 219.362,274.17 219.506,273.834 C219.65,273.498 219.854,273.216 220.118,272.988 C220.382,272.76 220.691,272.589 221.045,272.475 C221.399,272.361 221.792,272.304 222.224,272.304 C222.584,272.304 222.914,272.337 223.214,272.403 C223.514,272.469 223.775,272.55 223.997,272.646 C224.219,272.742 224.39,272.841 224.51,272.943 C224.63,273.045 224.69,273.126 224.69,273.186 C224.69,273.222 224.693,273.252 224.699,273.276 C224.705,273.3 224.708,273.324 224.708,273.348 L224.708,273.348 L224.906,273.492 L226.094,271.782 L225.878,271.656 C225.83,271.68 225.785,271.71 225.743,271.746 C225.701,271.782 225.65,271.8 225.59,271.8 C225.506,271.8 225.368,271.758 225.176,271.674 C224.984,271.59 224.744,271.494 224.456,271.386 C224.168,271.278 223.835,271.182 223.457,271.098 C223.079,271.014 222.662,270.972 222.206,270.972 C221.618,270.972 221.045,271.056 220.487,271.224 C219.929,271.392 219.434,271.647 219.002,271.989 C218.57,272.331 218.222,272.754 217.958,273.258 C217.694,273.762 217.562,274.35 217.562,275.022 C217.562,275.694 217.694,276.285 217.958,276.795 C218.222,277.305 218.564,277.731 218.984,278.073 C219.404,278.415 219.884,278.664 220.424,278.82 C220.964,278.976 221.51,279.054 222.062,279.054 Z M230.684,279 L230.684,278.676 C230.456,278.676 230.342,278.586 230.342,278.406 L230.342,278.406 L230.342,276.39 L231.746,275.274 L233.96,277.974 C234.116,278.154 234.221,278.286 234.275,278.37 C234.329,278.454 234.356,278.52 234.356,278.568 C234.356,278.64 234.29,278.676 234.158,278.676 L234.158,278.676 L234.158,279 L236.822,279 L236.822,278.676 C236.654,278.628 236.486,278.511 236.318,278.325 C236.15,278.139 235.994,277.956 235.85,277.776 L235.85,277.776 L233.006,274.248 L236.012,271.818 C236.3,271.59 236.516,271.452 236.66,271.404 L236.66,271.404 L236.66,271.08 L233.69,271.08 L233.69,271.35 C233.75,271.35 233.813,271.368 233.879,271.404 C233.945,271.44 233.978,271.488 233.978,271.548 C233.978,271.596 233.864,271.719 233.636,271.917 C233.408,272.115 233.12,272.358 232.772,272.646 C232.424,272.934 232.034,273.249 231.602,273.591 C231.17,273.933 230.75,274.272 230.342,274.608 L230.342,274.608 L230.342,271.674 C230.342,271.494 230.456,271.404 230.684,271.404 L230.684,271.404 L230.684,271.08 L228.326,271.08 L228.326,271.404 C228.518,271.404 228.614,271.494 228.614,271.674 L228.614,271.674 L228.614,278.406 C228.614,278.586 228.518,278.676 228.326,278.676 L228.326,278.676 L228.326,279 L230.684,279 Z M38.687,297 L38.687,296.676 C38.579,296.676 38.495,296.664 38.435,296.64 C38.375,296.616 38.345,296.556 38.345,296.46 C38.345,296.4 38.36,296.331 38.39,296.253 C38.42,296.175 38.459,296.088 38.507,295.992 L38.507,295.992 L39.011,295.02 L42.863,295.02 L43.349,296.046 C43.385,296.142 43.415,296.22 43.439,296.28 C43.463,296.34 43.475,296.406 43.475,296.478 C43.475,296.574 43.442,296.64 43.376,296.676 C43.31,296.712 43.247,296.73 43.187,296.73 L43.187,296.73 L43.187,297 L45.743,297 L45.743,296.676 C45.659,296.652 45.581,296.616 45.509,296.568 C45.437,296.52 45.371,296.442 45.311,296.334 L45.311,296.334 L42.395,290.214 C42.335,290.082 42.278,289.965 42.224,289.863 C42.17,289.761 42.143,289.674 42.143,289.602 C42.143,289.518 42.164,289.47 42.206,289.458 C42.248,289.446 42.287,289.428 42.323,289.404 L42.323,289.404 L42.323,289.08 L39.605,289.08 L39.605,289.404 C39.641,289.428 39.674,289.449 39.704,289.467 C39.734,289.485 39.749,289.53 39.749,289.602 C39.749,289.698 39.728,289.797 39.686,289.899 C39.644,290.001 39.587,290.136 39.515,290.304 L39.515,290.304 L36.833,296.154 C36.785,296.25 36.716,296.355 36.626,296.469 C36.536,296.583 36.419,296.652 36.275,296.676 L36.275,296.676 L36.275,297 L38.687,297 Z M42.287,293.688 L39.551,293.688 L40.829,290.664 L42.287,293.688 Z M49.685,297 L49.685,296.676 C49.433,296.676 49.307,296.586 49.307,296.406 L49.307,296.406 L49.307,291.168 L53.771,295.92 C53.915,296.076 54.044,296.214 54.158,296.334 C54.272,296.454 54.329,296.538 54.329,296.586 C54.329,296.646 54.287,296.676 54.203,296.676 L54.203,296.676 L54.203,297 L56.543,297 L56.543,296.676 C56.327,296.676 56.219,296.586 56.219,296.406 L56.219,296.406 L56.219,289.674 C56.219,289.494 56.327,289.404 56.543,289.404 L56.543,289.404 L56.543,289.08 L54.347,289.08 L54.347,289.404 C54.587,289.404 54.707,289.494 54.707,289.674 L54.707,289.674 L54.707,294.552 L50.387,289.98 C50.123,289.716 49.991,289.554 49.991,289.494 C49.991,289.446 50.033,289.416 50.117,289.404 L50.117,289.404 L50.117,289.08 L47.471,289.08 L47.471,289.404 C47.687,289.404 47.795,289.494 47.795,289.674 L47.795,289.674 L47.795,296.406 C47.795,296.586 47.687,296.676 47.471,296.676 L47.471,296.676 L47.471,297 L49.685,297 Z M64.301,297 C65.009,297 65.609,296.886 66.101,296.658 C66.593,296.43 66.995,296.133 67.307,295.767 C67.619,295.401 67.847,294.981 67.991,294.507 C68.135,294.033 68.207,293.544 68.207,293.04 C68.207,292.536 68.132,292.047 67.982,291.573 C67.832,291.099 67.598,290.679 67.28,290.313 C66.962,289.947 66.551,289.65 66.047,289.422 C65.543,289.194 64.937,289.08 64.229,289.08 L64.229,289.08 L59.225,289.08 L59.225,289.404 C59.501,289.404 59.639,289.494 59.639,289.674 L59.639,289.674 L59.639,296.406 C59.639,296.586 59.501,296.676 59.225,296.676 L59.225,296.676 L59.225,297 L64.301,297 Z M63.707,295.668 L61.367,295.668 L61.367,290.412 L63.707,290.412 C64.079,290.412 64.433,290.433 64.769,290.475 C65.105,290.517 65.399,290.625 65.651,290.799 C65.903,290.973 66.104,291.231 66.254,291.573 C66.404,291.915 66.479,292.386 66.479,292.986 C66.479,293.586 66.404,294.063 66.254,294.417 C66.104,294.771 65.903,295.041 65.651,295.227 C65.399,295.413 65.105,295.533 64.769,295.587 C64.433,295.641 64.079,295.668 63.707,295.668 L63.707,295.668 Z M78.305,297 L78.305,296.676 C78.233,296.676 78.158,296.655 78.08,296.613 C78.002,296.571 77.963,296.502 77.963,296.406 L77.963,296.406 L77.963,293.832 L80.465,293.832 L81.887,295.956 C82.067,296.208 82.157,296.394 82.157,296.514 C82.157,296.622 82.079,296.676 81.923,296.676 L81.923,296.676 L81.923,297 L84.677,297 L84.677,296.676 C84.545,296.64 84.422,296.589 84.308,296.523 C84.194,296.457 84.089,296.358 83.993,296.226 L83.993,296.226 L82.229,293.652 C82.481,293.592 82.727,293.505 82.967,293.391 C83.207,293.277 83.426,293.127 83.624,292.941 C83.822,292.755 83.981,292.536 84.101,292.284 C84.221,292.032 84.281,291.744 84.281,291.42 C84.281,290.568 83.981,289.965 83.381,289.611 C82.781,289.257 81.947,289.08 80.879,289.08 L80.879,289.08 L75.911,289.08 L75.911,289.404 C76.127,289.404 76.235,289.494 76.235,289.674 L76.235,289.674 L76.235,296.406 C76.235,296.586 76.127,296.676 75.911,296.676 L75.911,296.676 L75.911,297 L78.305,297 Z M80.843,292.5 L77.999,292.5 L77.999,290.412 L80.843,290.412 C81.455,290.412 81.902,290.499 82.184,290.673 C82.466,290.847 82.607,291.084 82.607,291.384 C82.607,292.128 82.019,292.5 80.843,292.5 L80.843,292.5 Z M90.995,297.054 C91.655,297.054 92.276,296.979 92.858,296.829 C93.44,296.679 93.947,296.436 94.379,296.1 C94.811,295.764 95.153,295.341 95.405,294.831 C95.657,294.321 95.783,293.724 95.783,293.04 C95.783,292.356 95.657,291.759 95.405,291.249 C95.153,290.739 94.811,290.316 94.379,289.98 C93.947,289.644 93.44,289.392 92.858,289.224 C92.276,289.056 91.655,288.972 90.995,288.972 C90.335,288.972 89.714,289.056 89.132,289.224 C88.55,289.392 88.043,289.644 87.611,289.98 C87.179,290.316 86.837,290.739 86.585,291.249 C86.333,291.759 86.207,292.356 86.207,293.04 C86.207,293.724 86.333,294.321 86.585,294.831 C86.837,295.341 87.179,295.764 87.611,296.1 C88.043,296.436 88.55,296.679 89.132,296.829 C89.714,296.979 90.335,297.054 90.995,297.054 Z M90.995,295.776 C90.611,295.776 90.236,295.713 89.87,295.587 C89.504,295.461 89.177,295.281 88.889,295.047 C88.601,294.813 88.37,294.528 88.196,294.192 C88.022,293.856 87.935,293.472 87.935,293.04 C87.935,292.608 88.022,292.224 88.196,291.888 C88.37,291.552 88.601,291.267 88.889,291.033 C89.177,290.799 89.504,290.619 89.87,290.493 C90.236,290.367 90.611,290.304 90.995,290.304 C91.379,290.304 91.754,290.367 92.12,290.493 C92.486,290.619 92.813,290.799 93.101,291.033 C93.389,291.267 93.62,291.552 93.794,291.888 C93.968,292.224 94.055,292.608 94.055,293.04 C94.055,293.472 93.968,293.856 93.794,294.192 C93.62,294.528 93.389,294.813 93.101,295.047 C92.813,295.281 92.486,295.461 92.12,295.587 C91.754,295.713 91.379,295.776 90.995,295.776 Z M105.755,297.18 L105.755,295.29 L105.431,295.29 C105.431,295.41 105.383,295.503 105.287,295.569 C105.191,295.635 105.071,295.668 104.927,295.668 L104.927,295.668 L100.067,295.668 L100.067,289.674 C100.067,289.494 100.205,289.404 100.481,289.404 L100.481,289.404 L100.481,289.08 L97.871,289.08 L97.871,289.404 C98.183,289.404 98.339,289.494 98.339,289.674 L98.339,289.674 L98.339,296.406 C98.339,296.586 98.183,296.676 97.871,296.676 L97.871,296.676 L97.871,297 L104.927,297 C105.071,297 105.191,297.006 105.287,297.018 C105.383,297.03 105.431,297.084 105.431,297.18 L105.431,297.18 L105.755,297.18 Z M115.763,297.18 L115.763,295.29 L115.439,295.29 C115.439,295.41 115.391,295.503 115.295,295.569 C115.199,295.635 115.079,295.668 114.935,295.668 L114.935,295.668 L110.075,295.668 L110.075,289.674 C110.075,289.494 110.213,289.404 110.489,289.404 L110.489,289.404 L110.489,289.08 L107.879,289.08 L107.879,289.404 C108.191,289.404 108.347,289.494 108.347,289.674 L108.347,289.674 L108.347,296.406 C108.347,296.586 108.191,296.676 107.879,296.676 L107.879,296.676 L107.879,297 L114.935,297 C115.079,297 115.199,297.006 115.295,297.018 C115.391,297.03 115.439,297.084 115.439,297.18 L115.439,297.18 L115.763,297.18 Z M126.365,297 L126.365,296.676 C126.029,296.676 125.861,296.586 125.861,296.406 L125.861,296.406 L125.861,289.674 C125.861,289.494 126.029,289.404 126.365,289.404 L126.365,289.404 L126.365,289.08 L123.629,289.08 L123.629,289.404 C123.821,289.404 123.953,289.425 124.025,289.467 C124.097,289.509 124.133,289.578 124.133,289.674 L124.133,289.674 L124.133,296.406 C124.133,296.502 124.097,296.571 124.025,296.613 C123.953,296.655 123.821,296.676 123.629,296.676 L123.629,296.676 L123.629,297 L126.365,297 Z M132.863,297.054 C133.271,297.054 133.706,297.024 134.168,296.964 C134.63,296.904 135.053,296.778 135.437,296.586 C135.821,296.394 136.142,296.13 136.4,295.794 C136.658,295.458 136.787,295.026 136.787,294.498 C136.787,293.97 136.64,293.556 136.346,293.256 C136.052,292.956 135.683,292.728 135.239,292.572 C134.795,292.416 134.315,292.305 133.799,292.239 C133.283,292.173 132.803,292.107 132.359,292.041 C131.915,291.975 131.546,291.885 131.252,291.771 C130.958,291.657 130.811,291.468 130.811,291.204 C130.811,291.036 130.859,290.895 130.955,290.781 C131.051,290.667 131.183,290.574 131.351,290.502 C131.519,290.43 131.711,290.379 131.927,290.349 C132.143,290.319 132.371,290.304 132.611,290.304 C133.235,290.304 133.799,290.376 134.303,290.52 C134.807,290.664 135.179,290.838 135.419,291.042 C135.515,291.114 135.569,291.186 135.581,291.258 C135.593,291.33 135.605,291.402 135.617,291.474 L135.617,291.474 L135.941,291.582 L136.841,289.89 L136.643,289.692 C136.571,289.728 136.511,289.761 136.463,289.791 C136.415,289.821 136.343,289.836 136.247,289.836 C136.163,289.836 136.034,289.791 135.86,289.701 C135.686,289.611 135.461,289.512 135.185,289.404 C134.909,289.296 134.57,289.197 134.168,289.107 C133.766,289.017 133.283,288.972 132.719,288.972 C131.567,288.972 130.673,289.2 130.037,289.656 C129.401,290.112 129.083,290.724 129.083,291.492 C129.083,292.008 129.23,292.407 129.524,292.689 C129.818,292.971 130.187,293.187 130.631,293.337 C131.075,293.487 131.555,293.595 132.071,293.661 C132.587,293.727 133.067,293.793 133.511,293.859 C133.955,293.925 134.324,294.018 134.618,294.138 C134.912,294.258 135.059,294.45 135.059,294.714 C135.059,294.942 134.975,295.125 134.807,295.263 C134.639,295.401 134.435,295.509 134.195,295.587 C133.955,295.665 133.712,295.716 133.466,295.74 C133.22,295.764 133.013,295.776 132.845,295.776 C132.665,295.776 132.416,295.746 132.098,295.686 C131.78,295.626 131.462,295.545 131.144,295.443 C130.826,295.341 130.553,295.215 130.325,295.065 C130.097,294.915 129.983,294.75 129.983,294.57 C129.983,294.51 129.986,294.453 129.992,294.399 C129.998,294.345 130.001,294.294 130.001,294.246 L130.001,294.246 L129.659,294.156 L128.831,296.172 L129.083,296.352 C129.143,296.28 129.215,296.244 129.299,296.244 C129.347,296.244 129.485,296.289 129.713,296.379 C129.941,296.469 130.22,296.565 130.55,296.667 C130.88,296.769 131.246,296.859 131.648,296.937 C132.05,297.015 132.455,297.054 132.863,297.054 Z M148.361,297.054 C148.769,297.054 149.204,297.024 149.666,296.964 C150.128,296.904 150.551,296.778 150.935,296.586 C151.319,296.394 151.64,296.13 151.898,295.794 C152.156,295.458 152.285,295.026 152.285,294.498 C152.285,293.97 152.138,293.556 151.844,293.256 C151.55,292.956 151.181,292.728 150.737,292.572 C150.293,292.416 149.813,292.305 149.297,292.239 C148.781,292.173 148.301,292.107 147.857,292.041 C147.413,291.975 147.044,291.885 146.75,291.771 C146.456,291.657 146.309,291.468 146.309,291.204 C146.309,291.036 146.357,290.895 146.453,290.781 C146.549,290.667 146.681,290.574 146.849,290.502 C147.017,290.43 147.209,290.379 147.425,290.349 C147.641,290.319 147.869,290.304 148.109,290.304 C148.733,290.304 149.297,290.376 149.801,290.52 C150.305,290.664 150.677,290.838 150.917,291.042 C151.013,291.114 151.067,291.186 151.079,291.258 C151.091,291.33 151.103,291.402 151.115,291.474 L151.115,291.474 L151.439,291.582 L152.339,289.89 L152.141,289.692 C152.069,289.728 152.009,289.761 151.961,289.791 C151.913,289.821 151.841,289.836 151.745,289.836 C151.661,289.836 151.532,289.791 151.358,289.701 C151.184,289.611 150.959,289.512 150.683,289.404 C150.407,289.296 150.068,289.197 149.666,289.107 C149.264,289.017 148.781,288.972 148.217,288.972 C147.065,288.972 146.171,289.2 145.535,289.656 C144.899,290.112 144.581,290.724 144.581,291.492 C144.581,292.008 144.728,292.407 145.022,292.689 C145.316,292.971 145.685,293.187 146.129,293.337 C146.573,293.487 147.053,293.595 147.569,293.661 C148.085,293.727 148.565,293.793 149.009,293.859 C149.453,293.925 149.822,294.018 150.116,294.138 C150.41,294.258 150.557,294.45 150.557,294.714 C150.557,294.942 150.473,295.125 150.305,295.263 C150.137,295.401 149.933,295.509 149.693,295.587 C149.453,295.665 149.21,295.716 148.964,295.74 C148.718,295.764 148.511,295.776 148.343,295.776 C148.163,295.776 147.914,295.746 147.596,295.686 C147.278,295.626 146.96,295.545 146.642,295.443 C146.324,295.341 146.051,295.215 145.823,295.065 C145.595,294.915 145.481,294.75 145.481,294.57 C145.481,294.51 145.484,294.453 145.49,294.399 C145.496,294.345 145.499,294.294 145.499,294.246 L145.499,294.246 L145.157,294.156 L144.329,296.172 L144.581,296.352 C144.641,296.28 144.713,296.244 144.797,296.244 C144.845,296.244 144.983,296.289 145.211,296.379 C145.439,296.469 145.718,296.565 146.048,296.667 C146.378,296.769 146.744,296.859 147.146,296.937 C147.548,297.015 147.953,297.054 148.361,297.054 Z M159.197,297 L159.197,296.676 C158.981,296.676 158.873,296.586 158.873,296.406 L158.873,296.406 L158.873,290.412 L161.213,290.412 C161.309,290.412 161.399,290.436 161.483,290.484 C161.567,290.532 161.609,290.61 161.609,290.718 L161.609,290.718 L161.933,290.718 L161.933,288.648 L161.609,288.648 C161.609,288.816 161.567,288.93 161.483,288.99 C161.399,289.05 161.309,289.08 161.213,289.08 L161.213,289.08 L154.805,289.08 C154.709,289.08 154.619,289.05 154.535,288.99 C154.451,288.93 154.409,288.816 154.409,288.648 L154.409,288.648 L154.085,288.648 L154.085,290.718 L154.409,290.718 C154.409,290.61 154.451,290.532 154.535,290.484 C154.619,290.436 154.709,290.412 154.805,290.412 L154.805,290.412 L157.145,290.412 L157.145,296.406 C157.145,296.502 157.115,296.571 157.055,296.613 C156.995,296.655 156.935,296.676 156.875,296.676 L156.875,296.676 L156.875,297 L159.197,297 Z M166.865,297 L166.865,296.676 C166.529,296.676 166.361,296.586 166.361,296.406 L166.361,296.406 L166.361,289.674 C166.361,289.494 166.529,289.404 166.865,289.404 L166.865,289.404 L166.865,289.08 L164.129,289.08 L164.129,289.404 C164.321,289.404 164.453,289.425 164.525,289.467 C164.597,289.509 164.633,289.578 164.633,289.674 L164.633,289.674 L164.633,296.406 C164.633,296.502 164.597,296.571 164.525,296.613 C164.453,296.655 164.321,296.676 164.129,296.676 L164.129,296.676 L164.129,297 L166.865,297 Z M177.755,297.18 L177.755,295.29 L177.431,295.29 C177.431,295.41 177.383,295.503 177.287,295.569 C177.191,295.635 177.071,295.668 176.927,295.668 L176.927,295.668 L172.067,295.668 L172.067,289.674 C172.067,289.494 172.205,289.404 172.481,289.404 L172.481,289.404 L172.481,289.08 L169.871,289.08 L169.871,289.404 C170.183,289.404 170.339,289.494 170.339,289.674 L170.339,289.674 L170.339,296.406 C170.339,296.586 170.183,296.676 169.871,296.676 L169.871,296.676 L169.871,297 L176.927,297 C177.071,297 177.191,297.006 177.287,297.018 C177.383,297.03 177.431,297.084 177.431,297.18 L177.431,297.18 L177.755,297.18 Z M187.763,297.18 L187.763,295.29 L187.439,295.29 C187.439,295.41 187.391,295.503 187.295,295.569 C187.199,295.635 187.079,295.668 186.935,295.668 L186.935,295.668 L182.075,295.668 L182.075,289.674 C182.075,289.494 182.213,289.404 182.489,289.404 L182.489,289.404 L182.489,289.08 L179.879,289.08 L179.879,289.404 C180.191,289.404 180.347,289.494 180.347,289.674 L180.347,289.674 L180.347,296.406 C180.347,296.586 180.191,296.676 179.879,296.676 L179.879,296.676 L179.879,297 L186.935,297 C187.079,297 187.199,297.006 187.295,297.018 C187.391,297.03 187.439,297.084 187.439,297.18 L187.439,297.18 L187.763,297.18 Z M198.365,297 L198.365,296.676 C198.029,296.676 197.861,296.586 197.861,296.406 L197.861,296.406 L197.861,289.674 C197.861,289.494 198.029,289.404 198.365,289.404 L198.365,289.404 L198.365,289.08 L195.629,289.08 L195.629,289.404 C195.821,289.404 195.953,289.425 196.025,289.467 C196.097,289.509 196.133,289.578 196.133,289.674 L196.133,289.674 L196.133,296.406 C196.133,296.502 196.097,296.571 196.025,296.613 C195.953,296.655 195.821,296.676 195.629,296.676 L195.629,296.676 L195.629,297 L198.365,297 Z M203.675,297 L203.675,296.676 C203.423,296.676 203.297,296.586 203.297,296.406 L203.297,296.406 L203.297,291.168 L207.761,295.92 C207.905,296.076 208.034,296.214 208.148,296.334 C208.262,296.454 208.319,296.538 208.319,296.586 C208.319,296.646 208.277,296.676 208.193,296.676 L208.193,296.676 L208.193,297 L210.533,297 L210.533,296.676 C210.317,296.676 210.209,296.586 210.209,296.406 L210.209,296.406 L210.209,289.674 C210.209,289.494 210.317,289.404 210.533,289.404 L210.533,289.404 L210.533,289.08 L208.337,289.08 L208.337,289.404 C208.577,289.404 208.697,289.494 208.697,289.674 L208.697,289.674 L208.697,294.552 L204.377,289.98 C204.113,289.716 203.981,289.554 203.981,289.494 C203.981,289.446 204.023,289.416 204.107,289.404 L204.107,289.404 L204.107,289.08 L201.461,289.08 L201.461,289.404 C201.677,289.404 201.785,289.494 201.785,289.674 L201.785,289.674 L201.785,296.406 C201.785,296.586 201.677,296.676 201.461,296.676 L201.461,296.676 L201.461,297 L203.675,297 Z M217.193,293.724 L217.193,293.508 C217.085,293.508 217.007,293.463 216.959,293.373 C216.911,293.283 216.887,293.172 216.887,293.04 C216.887,292.764 216.995,292.506 217.211,292.266 C217.427,292.026 217.661,291.768 217.913,291.492 C218.177,291.216 218.414,290.913 218.624,290.583 C218.834,290.253 218.939,289.866 218.939,289.422 C218.939,289.062 218.864,288.741 218.714,288.459 C218.564,288.177 218.363,287.943 218.111,287.757 C217.859,287.571 217.574,287.427 217.256,287.325 C216.938,287.223 216.617,287.172 216.293,287.172 C215.789,287.172 215.381,287.232 215.069,287.352 C214.757,287.472 214.499,287.601 214.295,287.739 C214.091,287.877 213.926,288.006 213.8,288.126 C213.674,288.246 213.551,288.306 213.431,288.306 C213.419,288.306 213.353,288.294 213.233,288.27 L213.233,288.27 L213.071,288.432 L214.457,289.944 L214.619,289.818 C214.583,289.71 214.565,289.602 214.565,289.494 C214.565,289.422 214.598,289.329 214.664,289.215 C214.73,289.101 214.826,288.996 214.952,288.9 C215.078,288.804 215.234,288.72 215.42,288.648 C215.606,288.576 215.813,288.54 216.041,288.54 C216.353,288.54 216.614,288.633 216.824,288.819 C217.034,289.005 217.139,289.26 217.139,289.584 C217.139,289.86 217.061,290.103 216.905,290.313 C216.749,290.523 216.569,290.748 216.365,290.988 C216.173,291.216 215.99,291.48 215.816,291.78 C215.642,292.08 215.531,292.482 215.483,292.986 C215.459,293.19 215.42,293.328 215.366,293.4 C215.312,293.472 215.249,293.508 215.177,293.508 L215.177,293.508 L215.177,293.724 L217.193,293.724 Z M216.167,297.054 C216.479,297.054 216.749,296.949 216.977,296.739 C217.205,296.529 217.319,296.268 217.319,295.956 C217.319,295.644 217.205,295.374 216.977,295.146 C216.749,294.918 216.479,294.804 216.167,294.804 C215.855,294.804 215.585,294.918 215.357,295.146 C215.129,295.374 215.015,295.644 215.015,295.956 C215.015,296.268 215.129,296.529 215.357,296.739 C215.585,296.949 215.855,297.054 216.167,297.054 Z M223.745,293.724 L223.745,293.508 C223.649,293.508 223.571,293.493 223.511,293.463 C223.451,293.433 223.421,293.37 223.421,293.274 C223.421,293.19 223.427,293.109 223.439,293.031 C223.451,292.953 223.463,292.866 223.475,292.77 L223.475,292.77 L224.033,287.964 C224.057,287.82 224.093,287.718 224.141,287.658 C224.189,287.598 224.303,287.544 224.483,287.496 L224.483,287.496 L224.483,287.28 L221.495,287.28 L221.495,287.496 C221.675,287.544 221.789,287.598 221.837,287.658 C221.885,287.718 221.921,287.82 221.945,287.964 L221.945,287.964 L222.503,292.77 C222.515,292.866 222.527,292.953 222.539,293.031 C222.551,293.109 222.557,293.19 222.557,293.274 C222.557,293.37 222.527,293.433 222.467,293.463 C222.407,293.493 222.329,293.508 222.233,293.508 L222.233,293.508 L222.233,293.724 L223.745,293.724 Z M222.989,297.054 C223.301,297.054 223.571,296.949 223.799,296.739 C224.027,296.529 224.141,296.268 224.141,295.956 C224.141,295.644 224.027,295.374 223.799,295.146 C223.571,294.918 223.301,294.804 222.989,294.804 C222.677,294.804 222.407,294.918 222.179,295.146 C221.951,295.374 221.837,295.644 221.837,295.956 C221.837,296.268 221.951,296.529 222.179,296.739 C222.407,296.949 222.677,297.054 222.989,297.054 Z M58.19,315 L58.19,314.676 C57.962,314.676 57.848,314.61 57.848,314.478 C57.848,314.37 57.908,314.19 58.028,313.938 L58.028,313.938 L58.676,312.66 L63.068,312.66 L63.752,313.992 C63.848,314.184 63.896,314.34 63.896,314.46 C63.896,314.532 63.86,314.586 63.788,314.622 C63.716,314.658 63.656,314.676 63.608,314.676 L63.608,314.676 L63.608,315 L66.776,315 L66.776,314.676 C66.644,314.616 66.527,314.556 66.425,314.496 C66.323,314.436 66.242,314.34 66.182,314.208 L66.182,314.208 L62.438,306.882 C62.354,306.726 62.291,306.6 62.249,306.504 C62.207,306.408 62.186,306.312 62.186,306.216 C62.186,306.084 62.228,305.997 62.312,305.955 C62.396,305.913 62.48,305.88 62.564,305.856 L62.564,305.856 L62.564,305.532 L59.522,305.532 L59.522,305.856 C59.618,305.88 59.708,305.916 59.792,305.964 C59.876,306.012 59.918,306.096 59.918,306.216 C59.918,306.312 59.885,306.426 59.819,306.558 C59.753,306.69 59.678,306.834 59.594,306.99 L59.594,306.99 L56.264,313.992 C56.18,314.16 56.093,314.31 56.003,314.442 C55.913,314.574 55.79,314.652 55.634,314.676 L55.634,314.676 L55.634,315 L58.19,315 Z M62.42,311.328 L59.216,311.328 L60.908,307.98 L62.42,311.328 Z M73.544,315 C74.252,315 74.852,314.886 75.344,314.658 C75.836,314.43 76.238,314.133 76.55,313.767 C76.862,313.401 77.09,312.981 77.234,312.507 C77.378,312.033 77.45,311.544 77.45,311.04 C77.45,310.536 77.375,310.047 77.225,309.573 C77.075,309.099 76.841,308.679 76.523,308.313 C76.205,307.947 75.794,307.65 75.29,307.422 C74.786,307.194 74.18,307.08 73.472,307.08 L73.472,307.08 L68.468,307.08 L68.468,307.404 C68.744,307.404 68.882,307.494 68.882,307.674 L68.882,307.674 L68.882,314.406 C68.882,314.586 68.744,314.676 68.468,314.676 L68.468,314.676 L68.468,315 L73.544,315 Z M72.95,313.668 L70.61,313.668 L70.61,308.412 L72.95,308.412 C73.322,308.412 73.676,308.433 74.012,308.475 C74.348,308.517 74.642,308.625 74.894,308.799 C75.146,308.973 75.347,309.231 75.497,309.573 C75.647,309.915 75.722,310.386 75.722,310.986 C75.722,311.586 75.647,312.063 75.497,312.417 C75.347,312.771 75.146,313.041 74.894,313.227 C74.642,313.413 74.348,313.533 74.012,313.587 C73.676,313.641 73.322,313.668 72.95,313.668 L72.95,313.668 Z M84.542,315 C85.25,315 85.85,314.886 86.342,314.658 C86.834,314.43 87.236,314.133 87.548,313.767 C87.86,313.401 88.088,312.981 88.232,312.507 C88.376,312.033 88.448,311.544 88.448,311.04 C88.448,310.536 88.373,310.047 88.223,309.573 C88.073,309.099 87.839,308.679 87.521,308.313 C87.203,307.947 86.792,307.65 86.288,307.422 C85.784,307.194 85.178,307.08 84.47,307.08 L84.47,307.08 L79.466,307.08 L79.466,307.404 C79.742,307.404 79.88,307.494 79.88,307.674 L79.88,307.674 L79.88,314.406 C79.88,314.586 79.742,314.676 79.466,314.676 L79.466,314.676 L79.466,315 L84.542,315 Z M83.948,313.668 L81.608,313.668 L81.608,308.412 L83.948,308.412 C84.32,308.412 84.674,308.433 85.01,308.475 C85.346,308.517 85.64,308.625 85.892,308.799 C86.144,308.973 86.345,309.231 86.495,309.573 C86.645,309.915 86.72,310.386 86.72,310.986 C86.72,311.586 86.645,312.063 86.495,312.417 C86.345,312.771 86.144,313.041 85.892,313.227 C85.64,313.413 85.346,313.533 85.01,313.587 C84.674,313.641 84.32,313.668 83.948,313.668 L83.948,313.668 Z M100.436,315 L100.436,314.676 C100.22,314.676 100.112,314.586 100.112,314.406 L100.112,314.406 L100.112,308.412 L102.452,308.412 C102.548,308.412 102.638,308.436 102.722,308.484 C102.806,308.532 102.848,308.61 102.848,308.718 L102.848,308.718 L103.172,308.718 L103.172,306.648 L102.848,306.648 C102.848,306.816 102.806,306.93 102.722,306.99 C102.638,307.05 102.548,307.08 102.452,307.08 L102.452,307.08 L96.044,307.08 C95.948,307.08 95.858,307.05 95.774,306.99 C95.69,306.93 95.648,306.816 95.648,306.648 L95.648,306.648 L95.324,306.648 L95.324,308.718 L95.648,308.718 C95.648,308.61 95.69,308.532 95.774,308.484 C95.858,308.436 95.948,308.412 96.044,308.412 L96.044,308.412 L98.384,308.412 L98.384,314.406 C98.384,314.502 98.354,314.571 98.294,314.613 C98.234,314.655 98.174,314.676 98.114,314.676 L98.114,314.676 L98.114,315 L100.436,315 Z M107.6,315 L107.6,314.676 C107.528,314.676 107.465,314.655 107.411,314.613 C107.357,314.571 107.33,314.502 107.33,314.406 L107.33,314.406 L107.33,311.688 L112.154,311.688 L112.154,314.406 C112.154,314.502 112.127,314.571 112.073,314.613 C112.019,314.655 111.956,314.676 111.884,314.676 L111.884,314.676 L111.884,315 L114.152,315 L114.152,314.676 C114.08,314.676 114.017,314.655 113.963,314.613 C113.909,314.571 113.882,314.502 113.882,314.406 L113.882,314.406 L113.882,307.674 C113.882,307.578 113.909,307.509 113.963,307.467 C114.017,307.425 114.08,307.404 114.152,307.404 L114.152,307.404 L114.152,307.08 L111.884,307.08 L111.884,307.404 C111.956,307.404 112.019,307.425 112.073,307.467 C112.127,307.509 112.154,307.578 112.154,307.674 L112.154,307.674 L112.154,310.212 L107.33,310.212 L107.33,307.674 C107.33,307.578 107.357,307.509 107.411,307.467 C107.465,307.425 107.528,307.404 107.6,307.404 L107.6,307.404 L107.6,307.08 L105.332,307.08 L105.332,307.404 C105.404,307.404 105.467,307.425 105.521,307.467 C105.575,307.509 105.602,307.578 105.602,307.674 L105.602,307.674 L105.602,314.406 C105.602,314.502 105.575,314.571 105.521,314.613 C105.467,314.655 105.404,314.676 105.332,314.676 L105.332,314.676 L105.332,315 L107.6,315 Z M120.11,315 L120.11,314.676 C119.774,314.676 119.606,314.586 119.606,314.406 L119.606,314.406 L119.606,307.674 C119.606,307.494 119.774,307.404 120.11,307.404 L120.11,307.404 L120.11,307.08 L117.374,307.08 L117.374,307.404 C117.566,307.404 117.698,307.425 117.77,307.467 C117.842,307.509 117.878,307.578 117.878,307.674 L117.878,307.674 L117.878,314.406 C117.878,314.502 117.842,314.571 117.77,314.613 C117.698,314.655 117.566,314.676 117.374,314.676 L117.374,314.676 L117.374,315 L120.11,315 Z M126.608,315.054 C127.016,315.054 127.451,315.024 127.913,314.964 C128.375,314.904 128.798,314.778 129.182,314.586 C129.566,314.394 129.887,314.13 130.145,313.794 C130.403,313.458 130.532,313.026 130.532,312.498 C130.532,311.97 130.385,311.556 130.091,311.256 C129.797,310.956 129.428,310.728 128.984,310.572 C128.54,310.416 128.06,310.305 127.544,310.239 C127.028,310.173 126.548,310.107 126.104,310.041 C125.66,309.975 125.291,309.885 124.997,309.771 C124.703,309.657 124.556,309.468 124.556,309.204 C124.556,309.036 124.604,308.895 124.7,308.781 C124.796,308.667 124.928,308.574 125.096,308.502 C125.264,308.43 125.456,308.379 125.672,308.349 C125.888,308.319 126.116,308.304 126.356,308.304 C126.98,308.304 127.544,308.376 128.048,308.52 C128.552,308.664 128.924,308.838 129.164,309.042 C129.26,309.114 129.314,309.186 129.326,309.258 L129.326,309.258 L129.362,309.474 L129.686,309.582 L130.586,307.89 L130.388,307.692 C130.316,307.728 130.256,307.761 130.208,307.791 C130.16,307.821 130.088,307.836 129.992,307.836 C129.908,307.836 129.779,307.791 129.605,307.701 C129.431,307.611 129.206,307.512 128.93,307.404 C128.654,307.296 128.315,307.197 127.913,307.107 C127.511,307.017 127.028,306.972 126.464,306.972 C125.312,306.972 124.418,307.2 123.782,307.656 C123.146,308.112 122.828,308.724 122.828,309.492 C122.828,310.008 122.975,310.407 123.269,310.689 C123.563,310.971 123.932,311.187 124.376,311.337 C124.82,311.487 125.3,311.595 125.816,311.661 C126.332,311.727 126.812,311.793 127.256,311.859 C127.7,311.925 128.069,312.018 128.363,312.138 C128.657,312.258 128.804,312.45 128.804,312.714 C128.804,312.942 128.72,313.125 128.552,313.263 C128.384,313.401 128.18,313.509 127.94,313.587 C127.7,313.665 127.457,313.716 127.211,313.74 C126.965,313.764 126.758,313.776 126.59,313.776 C126.41,313.776 126.161,313.746 125.843,313.686 C125.525,313.626 125.207,313.545 124.889,313.443 C124.571,313.341 124.298,313.215 124.07,313.065 C123.842,312.915 123.728,312.75 123.728,312.57 C123.728,312.51 123.731,312.453 123.737,312.399 C123.743,312.345 123.746,312.294 123.746,312.246 L123.746,312.246 L123.404,312.156 L122.576,314.172 L122.828,314.352 C122.888,314.28 122.96,314.244 123.044,314.244 C123.092,314.244 123.23,314.289 123.458,314.379 C123.686,314.469 123.965,314.565 124.295,314.667 C124.625,314.769 124.991,314.859 125.393,314.937 C125.795,315.015 126.2,315.054 126.608,315.054 Z M142.934,315 L142.934,314.676 C142.718,314.676 142.61,314.586 142.61,314.406 L142.61,314.406 L142.61,308.412 L144.95,308.412 C145.046,308.412 145.136,308.436 145.22,308.484 C145.304,308.532 145.346,308.61 145.346,308.718 L145.346,308.718 L145.67,308.718 L145.67,306.648 L145.346,306.648 C145.346,306.816 145.304,306.93 145.22,306.99 C145.136,307.05 145.046,307.08 144.95,307.08 L144.95,307.08 L138.542,307.08 C138.446,307.08 138.356,307.05 138.272,306.99 C138.188,306.93 138.146,306.816 138.146,306.648 L138.146,306.648 L137.822,306.648 L137.822,308.718 L138.146,308.718 C138.146,308.61 138.188,308.532 138.272,308.484 C138.356,308.436 138.446,308.412 138.542,308.412 L138.542,308.412 L140.882,308.412 L140.882,314.406 C140.882,314.502 140.852,314.571 140.792,314.613 C140.732,314.655 140.672,314.676 140.612,314.676 L140.612,314.676 L140.612,315 L142.934,315 Z M151.736,315.054 C152.396,315.054 153.017,314.979 153.599,314.829 C154.181,314.679 154.688,314.436 155.12,314.1 C155.552,313.764 155.894,313.341 156.146,312.831 C156.398,312.321 156.524,311.724 156.524,311.04 C156.524,310.356 156.398,309.759 156.146,309.249 C155.894,308.739 155.552,308.316 155.12,307.98 C154.688,307.644 154.181,307.392 153.599,307.224 C153.017,307.056 152.396,306.972 151.736,306.972 C151.076,306.972 150.455,307.056 149.873,307.224 C149.291,307.392 148.784,307.644 148.352,307.98 C147.92,308.316 147.578,308.739 147.326,309.249 C147.074,309.759 146.948,310.356 146.948,311.04 C146.948,311.724 147.074,312.321 147.326,312.831 C147.578,313.341 147.92,313.764 148.352,314.1 C148.784,314.436 149.291,314.679 149.873,314.829 C150.455,314.979 151.076,315.054 151.736,315.054 Z M151.736,313.776 C151.352,313.776 150.977,313.713 150.611,313.587 C150.245,313.461 149.918,313.281 149.63,313.047 C149.342,312.813 149.111,312.528 148.937,312.192 C148.763,311.856 148.676,311.472 148.676,311.04 C148.676,310.608 148.763,310.224 148.937,309.888 C149.111,309.552 149.342,309.267 149.63,309.033 C149.918,308.799 150.245,308.619 150.611,308.493 C150.977,308.367 151.352,308.304 151.736,308.304 C152.12,308.304 152.495,308.367 152.861,308.493 C153.227,308.619 153.554,308.799 153.842,309.033 C154.13,309.267 154.361,309.552 154.535,309.888 C154.709,310.224 154.796,310.608 154.796,311.04 C154.796,311.472 154.709,311.856 154.535,312.192 C154.361,312.528 154.13,312.813 153.842,313.047 C153.554,313.281 153.227,313.461 152.861,313.587 C152.495,313.713 152.12,313.776 151.736,313.776 Z M168.944,315 L168.944,314.676 C168.716,314.676 168.602,314.586 168.602,314.406 L168.602,314.406 L168.602,311.706 L171.356,308.142 C171.488,307.974 171.641,307.809 171.815,307.647 C171.989,307.485 172.148,307.404 172.292,307.404 L172.292,307.404 L172.292,307.08 L169.538,307.08 L169.538,307.404 C169.598,307.404 169.658,307.416 169.718,307.44 C169.778,307.464 169.808,307.524 169.808,307.62 C169.808,307.692 169.781,307.767 169.727,307.845 C169.673,307.923 169.592,308.04 169.484,308.196 L169.484,308.196 L167.882,310.428 L166.064,308.052 C166.004,307.968 165.95,307.896 165.902,307.836 C165.854,307.776 165.83,307.71 165.83,307.638 C165.83,307.566 165.866,307.509 165.938,307.467 C166.01,307.425 166.076,307.404 166.136,307.404 L166.136,307.404 L166.136,307.08 L163.166,307.08 L163.166,307.404 C163.274,307.404 163.388,307.428 163.508,307.476 C163.628,307.524 163.73,307.602 163.814,307.71 L163.814,307.71 L166.874,311.634 L166.874,314.406 C166.874,314.586 166.766,314.676 166.55,314.676 L166.55,314.676 L166.55,315 L168.944,315 Z M178.232,315.054 C178.892,315.054 179.513,314.979 180.095,314.829 C180.677,314.679 181.184,314.436 181.616,314.1 C182.048,313.764 182.39,313.341 182.642,312.831 C182.894,312.321 183.02,311.724 183.02,311.04 C183.02,310.356 182.894,309.759 182.642,309.249 C182.39,308.739 182.048,308.316 181.616,307.98 C181.184,307.644 180.677,307.392 180.095,307.224 C179.513,307.056 178.892,306.972 178.232,306.972 C177.572,306.972 176.951,307.056 176.369,307.224 C175.787,307.392 175.28,307.644 174.848,307.98 C174.416,308.316 174.074,308.739 173.822,309.249 C173.57,309.759 173.444,310.356 173.444,311.04 C173.444,311.724 173.57,312.321 173.822,312.831 C174.074,313.341 174.416,313.764 174.848,314.1 C175.28,314.436 175.787,314.679 176.369,314.829 C176.951,314.979 177.572,315.054 178.232,315.054 Z M178.232,313.776 C177.848,313.776 177.473,313.713 177.107,313.587 C176.741,313.461 176.414,313.281 176.126,313.047 C175.838,312.813 175.607,312.528 175.433,312.192 C175.259,311.856 175.172,311.472 175.172,311.04 C175.172,310.608 175.259,310.224 175.433,309.888 C175.607,309.552 175.838,309.267 176.126,309.033 C176.414,308.799 176.741,308.619 177.107,308.493 C177.473,308.367 177.848,308.304 178.232,308.304 C178.616,308.304 178.991,308.367 179.357,308.493 C179.723,308.619 180.05,308.799 180.338,309.033 C180.626,309.267 180.857,309.552 181.031,309.888 C181.205,310.224 181.292,310.608 181.292,311.04 C181.292,311.472 181.205,311.856 181.031,312.192 C180.857,312.528 180.626,312.813 180.338,313.047 C180.05,313.281 179.723,313.461 179.357,313.587 C178.991,313.713 178.616,313.776 178.232,313.776 Z M189.806,315.054 C190.526,315.054 191.153,314.979 191.687,314.829 C192.221,314.679 192.659,314.472 193.001,314.208 C193.343,313.944 193.598,313.641 193.766,313.299 C193.934,312.957 194.018,312.6 194.018,312.228 L194.018,312.228 L194.018,307.674 C194.018,307.494 194.15,307.404 194.414,307.404 L194.414,307.404 L194.414,307.08 L191.912,307.08 L191.912,307.404 C192.212,307.404 192.362,307.494 192.362,307.674 L192.362,307.674 L192.362,311.796 C192.362,312.372 192.152,312.834 191.732,313.182 C191.312,313.53 190.67,313.704 189.806,313.704 C188.942,313.704 188.3,313.53 187.88,313.182 C187.46,312.834 187.25,312.372 187.25,311.796 L187.25,311.796 L187.25,307.674 C187.25,307.494 187.382,307.404 187.646,307.404 L187.646,307.404 L187.646,307.08 L185.072,307.08 L185.072,307.404 C185.276,307.404 185.414,307.425 185.486,307.467 C185.558,307.509 185.594,307.578 185.594,307.674 L185.594,307.674 L185.594,312.228 C185.594,312.6 185.678,312.957 185.846,313.299 C186.014,313.641 186.269,313.944 186.611,314.208 C186.953,314.472 187.391,314.679 187.925,314.829 C188.459,314.979 189.086,315.054 189.806,315.054 Z M199.544,315 L199.544,314.676 C199.472,314.676 199.397,314.655 199.319,314.613 C199.241,314.571 199.202,314.502 199.202,314.406 L199.202,314.406 L199.202,311.832 L201.704,311.832 L203.126,313.956 C203.306,314.208 203.396,314.394 203.396,314.514 C203.396,314.622 203.318,314.676 203.162,314.676 L203.162,314.676 L203.162,315 L205.916,315 L205.916,314.676 C205.784,314.64 205.661,314.589 205.547,314.523 C205.433,314.457 205.328,314.358 205.232,314.226 L205.232,314.226 L203.468,311.652 C203.72,311.592 203.966,311.505 204.206,311.391 C204.446,311.277 204.665,311.127 204.863,310.941 C205.061,310.755 205.22,310.536 205.34,310.284 C205.46,310.032 205.52,309.744 205.52,309.42 C205.52,308.568 205.22,307.965 204.62,307.611 C204.02,307.257 203.186,307.08 202.118,307.08 L202.118,307.08 L197.15,307.08 L197.15,307.404 C197.366,307.404 197.474,307.494 197.474,307.674 L197.474,307.674 L197.474,314.406 C197.474,314.586 197.366,314.676 197.15,314.676 L197.15,314.676 L197.15,315 L199.544,315 Z M202.082,310.5 L199.238,310.5 L199.238,308.412 L202.082,308.412 C202.694,308.412 203.141,308.499 203.423,308.673 C203.705,308.847 203.846,309.084 203.846,309.384 C203.846,310.128 203.258,310.5 202.082,310.5 L202.082,310.5 Z M74.354,333.054 C74.762,333.054 75.197,333.024 75.659,332.964 C76.121,332.904 76.544,332.778 76.928,332.586 C77.312,332.394 77.633,332.13 77.891,331.794 C78.149,331.458 78.278,331.026 78.278,330.498 C78.278,329.97 78.131,329.556 77.837,329.256 C77.543,328.956 77.174,328.728 76.73,328.572 C76.286,328.416 75.806,328.305 75.29,328.239 C74.774,328.173 74.294,328.107 73.85,328.041 C73.406,327.975 73.037,327.885 72.743,327.771 C72.449,327.657 72.302,327.468 72.302,327.204 C72.302,327.036 72.35,326.895 72.446,326.781 C72.542,326.667 72.674,326.574 72.842,326.502 C73.01,326.43 73.202,326.379 73.418,326.349 C73.634,326.319 73.862,326.304 74.102,326.304 C74.726,326.304 75.29,326.376 75.794,326.52 C76.298,326.664 76.67,326.838 76.91,327.042 C77.006,327.114 77.06,327.186 77.072,327.258 L77.072,327.258 L77.108,327.474 L77.432,327.582 L78.332,325.89 L78.134,325.692 C78.062,325.728 78.002,325.761 77.954,325.791 C77.906,325.821 77.834,325.836 77.738,325.836 C77.654,325.836 77.525,325.791 77.351,325.701 C77.177,325.611 76.952,325.512 76.676,325.404 C76.4,325.296 76.061,325.197 75.659,325.107 C75.257,325.017 74.774,324.972 74.21,324.972 C73.058,324.972 72.164,325.2 71.528,325.656 C70.892,326.112 70.574,326.724 70.574,327.492 C70.574,328.008 70.721,328.407 71.015,328.689 C71.309,328.971 71.678,329.187 72.122,329.337 C72.566,329.487 73.046,329.595 73.562,329.661 C74.078,329.727 74.558,329.793 75.002,329.859 C75.446,329.925 75.815,330.018 76.109,330.138 C76.403,330.258 76.55,330.45 76.55,330.714 C76.55,330.942 76.466,331.125 76.298,331.263 C76.13,331.401 75.926,331.509 75.686,331.587 C75.446,331.665 75.203,331.716 74.957,331.74 C74.711,331.764 74.504,331.776 74.336,331.776 C74.156,331.776 73.907,331.746 73.589,331.686 C73.271,331.626 72.953,331.545 72.635,331.443 C72.317,331.341 72.044,331.215 71.816,331.065 C71.588,330.915 71.474,330.75 71.474,330.57 C71.474,330.51 71.477,330.453 71.483,330.399 C71.489,330.345 71.492,330.294 71.492,330.246 L71.492,330.246 L71.15,330.156 L70.322,332.172 L70.574,332.352 C70.634,332.28 70.706,332.244 70.79,332.244 C70.838,332.244 70.976,332.289 71.204,332.379 C71.432,332.469 71.711,332.565 72.041,332.667 C72.371,332.769 72.737,332.859 73.139,332.937 C73.541,333.015 73.946,333.054 74.354,333.054 Z M85.712,333 L85.712,332.676 C85.484,332.676 85.37,332.586 85.37,332.406 L85.37,332.406 L85.37,329.706 L88.124,326.142 C88.256,325.974 88.409,325.809 88.583,325.647 C88.757,325.485 88.916,325.404 89.06,325.404 L89.06,325.404 L89.06,325.08 L86.306,325.08 L86.306,325.404 C86.366,325.404 86.426,325.416 86.486,325.44 C86.546,325.464 86.576,325.524 86.576,325.62 C86.576,325.692 86.549,325.767 86.495,325.845 C86.441,325.923 86.36,326.04 86.252,326.196 L86.252,326.196 L84.65,328.428 L82.832,326.052 C82.772,325.968 82.718,325.896 82.67,325.836 C82.622,325.776 82.598,325.71 82.598,325.638 C82.598,325.566 82.634,325.509 82.706,325.467 C82.778,325.425 82.844,325.404 82.904,325.404 L82.904,325.404 L82.904,325.08 L79.934,325.08 L79.934,325.404 C80.042,325.404 80.156,325.428 80.276,325.476 C80.396,325.524 80.498,325.602 80.582,325.71 L80.582,325.71 L83.642,329.634 L83.642,332.406 C83.642,332.586 83.534,332.676 83.318,332.676 L83.318,332.676 L83.318,333 L85.712,333 Z M93.218,333 L93.218,332.676 C93.014,332.676 92.912,332.586 92.912,332.406 L92.912,332.406 L92.912,327.348 L92.93,327.348 L95.828,333 L95.972,333 L99.032,327.348 L99.068,327.348 L99.068,332.406 C99.104,332.586 98.996,332.676 98.744,332.676 L98.744,332.676 L98.744,333 L100.832,333 L100.832,332.676 C100.772,332.676 100.715,332.655 100.661,332.613 C100.607,332.571 100.58,332.502 100.58,332.406 L100.58,332.406 L100.58,325.638 C100.58,325.542 100.607,325.479 100.661,325.449 C100.715,325.419 100.772,325.404 100.832,325.404 L100.832,325.404 L100.832,325.08 L98.294,325.08 L98.294,325.404 C98.39,325.404 98.438,325.458 98.438,325.566 C98.438,325.602 98.414,325.665 98.366,325.755 C98.318,325.845 98.252,325.962 98.168,326.106 L98.168,326.106 L95.954,330.138 L93.758,326.088 C93.674,325.944 93.611,325.833 93.569,325.755 C93.527,325.677 93.506,325.614 93.506,325.566 C93.506,325.458 93.566,325.404 93.686,325.404 L93.686,325.404 L93.686,325.08 L91.184,325.08 L91.184,325.404 C91.268,325.404 91.325,325.422 91.355,325.458 C91.385,325.494 91.4,325.596 91.4,325.764 L91.4,325.764 L91.4,332.352 C91.4,332.484 91.379,332.568 91.337,332.604 C91.295,332.64 91.244,332.664 91.184,332.676 L91.184,332.676 L91.184,333 L93.218,333 Z M106.268,333 L106.268,332.676 C106.016,332.676 105.89,332.586 105.89,332.406 L105.89,332.406 L105.89,329.706 L108.95,329.706 C109.922,329.706 110.651,329.541 111.137,329.211 C111.623,328.881 111.866,328.284 111.866,327.42 C111.866,326.556 111.623,325.95 111.137,325.602 C110.651,325.254 109.922,325.08 108.95,325.08 L108.95,325.08 L103.712,325.08 L103.712,325.404 C104.012,325.404 104.162,325.494 104.162,325.674 L104.162,325.674 L104.162,332.406 C104.162,332.586 104.012,332.676 103.712,332.676 L103.712,332.676 L103.712,333 L106.268,333 Z M108.914,328.374 L105.89,328.374 L105.89,326.412 L108.914,326.412 C109.262,326.412 109.553,326.487 109.787,326.637 C110.021,326.787 110.138,327.048 110.138,327.42 C110.138,327.804 110.021,328.059 109.787,328.185 C109.553,328.311 109.262,328.374 108.914,328.374 L108.914,328.374 Z M118.202,333 L118.202,332.676 C117.986,332.676 117.878,332.586 117.878,332.406 L117.878,332.406 L117.878,326.412 L120.218,326.412 C120.314,326.412 120.404,326.436 120.488,326.484 C120.572,326.532 120.614,326.61 120.614,326.718 L120.614,326.718 L120.938,326.718 L120.938,324.648 L120.614,324.648 C120.614,324.816 120.572,324.93 120.488,324.99 C120.404,325.05 120.314,325.08 120.218,325.08 L120.218,325.08 L113.81,325.08 C113.714,325.08 113.624,325.05 113.54,324.99 C113.456,324.93 113.414,324.816 113.414,324.648 L113.414,324.648 L113.09,324.648 L113.09,326.718 L113.414,326.718 C113.414,326.61 113.456,326.532 113.54,326.484 C113.624,326.436 113.714,326.412 113.81,326.412 L113.81,326.412 L116.15,326.412 L116.15,332.406 C116.15,332.502 116.12,332.571 116.06,332.613 C116,332.655 115.94,332.676 115.88,332.676 L115.88,332.676 L115.88,333 L118.202,333 Z M127.004,333.054 C127.664,333.054 128.285,332.979 128.867,332.829 C129.449,332.679 129.956,332.436 130.388,332.1 C130.82,331.764 131.162,331.341 131.414,330.831 C131.666,330.321 131.792,329.724 131.792,329.04 C131.792,328.356 131.666,327.759 131.414,327.249 C131.162,326.739 130.82,326.316 130.388,325.98 C129.956,325.644 129.449,325.392 128.867,325.224 C128.285,325.056 127.664,324.972 127.004,324.972 C126.344,324.972 125.723,325.056 125.141,325.224 C124.559,325.392 124.052,325.644 123.62,325.98 C123.188,326.316 122.846,326.739 122.594,327.249 C122.342,327.759 122.216,328.356 122.216,329.04 C122.216,329.724 122.342,330.321 122.594,330.831 C122.846,331.341 123.188,331.764 123.62,332.1 C124.052,332.436 124.559,332.679 125.141,332.829 C125.723,332.979 126.344,333.054 127.004,333.054 Z M127.004,331.776 C126.62,331.776 126.245,331.713 125.879,331.587 C125.513,331.461 125.186,331.281 124.898,331.047 C124.61,330.813 124.379,330.528 124.205,330.192 C124.031,329.856 123.944,329.472 123.944,329.04 C123.944,328.608 124.031,328.224 124.205,327.888 C124.379,327.552 124.61,327.267 124.898,327.033 C125.186,326.799 125.513,326.619 125.879,326.493 C126.245,326.367 126.62,326.304 127.004,326.304 C127.388,326.304 127.763,326.367 128.129,326.493 C128.495,326.619 128.822,326.799 129.11,327.033 C129.398,327.267 129.629,327.552 129.803,327.888 C129.977,328.224 130.064,328.608 130.064,329.04 C130.064,329.472 129.977,329.856 129.803,330.192 C129.629,330.528 129.398,330.813 129.11,331.047 C128.822,331.281 128.495,331.461 128.129,331.587 C127.763,331.713 127.388,331.776 127.004,331.776 Z M136.22,333 L136.22,332.676 C136.016,332.676 135.914,332.586 135.914,332.406 L135.914,332.406 L135.914,327.348 L135.932,327.348 L138.83,333 L138.974,333 L142.034,327.348 L142.07,327.348 L142.07,332.406 C142.106,332.586 141.998,332.676 141.746,332.676 L141.746,332.676 L141.746,333 L143.834,333 L143.834,332.676 C143.774,332.676 143.717,332.655 143.663,332.613 C143.609,332.571 143.582,332.502 143.582,332.406 L143.582,332.406 L143.582,325.638 C143.582,325.542 143.609,325.479 143.663,325.449 C143.717,325.419 143.774,325.404 143.834,325.404 L143.834,325.404 L143.834,325.08 L141.296,325.08 L141.296,325.404 C141.392,325.404 141.44,325.458 141.44,325.566 C141.44,325.602 141.416,325.665 141.368,325.755 C141.32,325.845 141.254,325.962 141.17,326.106 L141.17,326.106 L138.956,330.138 L136.76,326.088 C136.676,325.944 136.613,325.833 136.571,325.755 C136.529,325.677 136.508,325.614 136.508,325.566 C136.508,325.458 136.568,325.404 136.688,325.404 L136.688,325.404 L136.688,325.08 L134.186,325.08 L134.186,325.404 C134.27,325.404 134.327,325.422 134.357,325.458 C134.387,325.494 134.402,325.596 134.402,325.764 L134.402,325.764 L134.402,332.352 C134.402,332.484 134.381,332.568 134.339,332.604 C134.297,332.64 134.246,332.664 134.186,332.676 L134.186,332.676 L134.186,333 L136.22,333 Z M154.76,333 L154.76,332.676 C154.508,332.676 154.382,332.586 154.382,332.406 L154.382,332.406 L154.382,329.706 L157.442,329.706 C158.414,329.706 159.143,329.541 159.629,329.211 C160.115,328.881 160.358,328.284 160.358,327.42 C160.358,326.556 160.115,325.95 159.629,325.602 C159.143,325.254 158.414,325.08 157.442,325.08 L157.442,325.08 L152.204,325.08 L152.204,325.404 C152.504,325.404 152.654,325.494 152.654,325.674 L152.654,325.674 L152.654,332.406 C152.654,332.586 152.504,332.676 152.204,332.676 L152.204,332.676 L152.204,333 L154.76,333 Z M157.406,328.374 L154.382,328.374 L154.382,326.412 L157.406,326.412 C157.754,326.412 158.045,326.487 158.279,326.637 C158.513,326.787 158.63,327.048 158.63,327.42 C158.63,327.804 158.513,328.059 158.279,328.185 C158.045,328.311 157.754,328.374 157.406,328.374 L157.406,328.374 Z M165.362,333 L165.362,332.676 C165.026,332.676 164.858,332.586 164.858,332.406 L164.858,332.406 L164.858,325.674 C164.858,325.494 165.026,325.404 165.362,325.404 L165.362,325.404 L165.362,325.08 L162.626,325.08 L162.626,325.404 C162.818,325.404 162.95,325.425 163.022,325.467 C163.094,325.509 163.13,325.578 163.13,325.674 L163.13,325.674 L163.13,332.406 C163.13,332.502 163.094,332.571 163.022,332.613 C162.95,332.655 162.818,332.676 162.626,332.676 L162.626,332.676 L162.626,333 L165.362,333 Z M176.252,333.18 L176.252,331.29 L175.928,331.29 C175.928,331.41 175.88,331.503 175.784,331.569 C175.688,331.635 175.568,331.668 175.424,331.668 L175.424,331.668 L170.564,331.668 L170.564,325.674 C170.564,325.494 170.702,325.404 170.978,325.404 L170.978,325.404 L170.978,325.08 L168.368,325.08 L168.368,325.404 C168.68,325.404 168.836,325.494 168.836,325.674 L168.836,325.674 L168.836,332.406 C168.836,332.586 168.68,332.676 168.368,332.676 L168.368,332.676 L168.368,333 L175.424,333 C175.568,333 175.688,333.006 175.784,333.018 C175.88,333.03 175.928,333.084 175.928,333.18 L175.928,333.18 L176.252,333.18 Z M185.918,333.198 L185.918,331.308 L185.594,331.308 C185.594,331.416 185.546,331.503 185.45,331.569 C185.354,331.635 185.234,331.668 185.09,331.668 L185.09,331.668 L180.482,331.668 L180.482,329.544 L183.11,329.544 C183.35,329.544 183.536,329.559 183.668,329.589 C183.8,329.619 183.848,329.7 183.812,329.832 L183.812,329.832 L184.172,329.832 L184.172,327.924 L183.848,327.924 C183.848,328.056 183.8,328.137 183.704,328.167 C183.608,328.197 183.458,328.212 183.254,328.212 L183.254,328.212 L180.482,328.212 L180.482,326.412 L184.874,326.412 C185.246,326.412 185.432,326.526 185.432,326.754 L185.432,326.754 L185.756,326.754 L185.756,324.756 L185.432,324.756 C185.432,324.972 185.246,325.08 184.874,325.08 L184.874,325.08 L178.484,325.08 L178.484,325.404 C178.544,325.404 178.604,325.425 178.664,325.467 C178.724,325.509 178.754,325.578 178.754,325.674 L178.754,325.674 L178.754,332.406 C178.754,332.502 178.724,332.571 178.664,332.613 C178.604,332.655 178.544,332.676 178.484,332.676 L178.484,332.676 L178.484,333 L185.09,333 C185.234,333 185.354,333.006 185.45,333.018 C185.546,333.03 185.594,333.09 185.594,333.198 L185.594,333.198 L185.918,333.198 Z M189.752,333.054 C190.1,333.054 190.4,332.937 190.652,332.703 C190.904,332.469 191.03,332.178 191.03,331.83 C191.03,331.482 190.904,331.182 190.652,330.93 C190.4,330.678 190.1,330.552 189.752,330.552 C189.404,330.552 189.104,330.678 188.852,330.93 C188.6,331.182 188.474,331.482 188.474,331.83 C188.474,332.178 188.6,332.469 188.852,332.703 C189.104,332.937 189.404,333.054 189.752,333.054 Z" id="Whatdoyoumeanrockandrollisstillin?!Addthistoyoursymptompile." fill="#000000" fill-rule="nonzero"></path>
    </g>
</svg>