<?xml version="1.0" encoding="UTF-8"?>
<svg width="262px" height="360px" viewBox="0 0 262 360" version="1.1" xmlns="http://www.w3.org/2000/svg" xmlns:xlink="http://www.w3.org/1999/xlink">
    <title>Dang Dog</title>
    <g id="Dang-Dog" stroke="none" stroke-width="1" fill="none" fill-rule="evenodd">
        <g id="Group" transform="translate(9.000000, 9.000000)" fill="#FFFFFF" stroke="#000000" stroke-width="3">
            <g id="Rectangle">
                <rect x="1.5" y="1.5" width="239" height="337" rx="8"></rect>
            </g>
        </g>
        <path d="M40.721,281 L40.721,280.676 C40.445,280.676 40.307,280.568 40.307,280.352 L40.307,280.352 L40.307,277.148 L43.367,272.81 C43.511,272.594 43.634,272.423 43.736,272.297 C43.838,272.171 43.934,272.075 44.024,272.009 C44.114,271.943 44.201,271.901 44.285,271.883 C44.369,271.865 44.459,271.856 44.555,271.856 L44.555,271.856 L44.555,271.532 L41.405,271.532 L41.405,271.856 C41.501,271.856 41.606,271.868 41.72,271.892 C41.834,271.916 41.891,271.97 41.891,272.054 C41.891,272.126 41.861,272.204 41.801,272.288 C41.741,272.372 41.663,272.486 41.567,272.63 L41.567,272.63 L39.461,275.528 C39.305,275.276 39.101,274.97 38.849,274.61 C38.597,274.25 38.354,273.899 38.12,273.557 C37.886,273.215 37.682,272.909 37.508,272.639 C37.334,272.369 37.247,272.198 37.247,272.126 C37.247,272.006 37.295,271.931 37.391,271.901 C37.487,271.871 37.589,271.856 37.697,271.856 L37.697,271.856 L37.697,271.532 L33.953,271.532 L33.953,271.856 C34.073,271.856 34.22,271.898 34.394,271.982 C34.568,272.066 34.697,272.168 34.781,272.288 L34.781,272.288 L38.255,277.148 L38.255,280.352 C38.255,280.46 38.219,280.541 38.147,280.595 C38.075,280.649 37.985,280.676 37.877,280.676 L37.877,280.676 L37.877,281 L40.721,281 Z M50.243,281.054 C50.903,281.054 51.524,280.979 52.106,280.829 C52.688,280.679 53.195,280.436 53.627,280.1 C54.059,279.764 54.401,279.341 54.653,278.831 C54.905,278.321 55.031,277.724 55.031,277.04 C55.031,276.356 54.905,275.759 54.653,275.249 C54.401,274.739 54.059,274.316 53.627,273.98 C53.195,273.644 52.688,273.392 52.106,273.224 C51.524,273.056 50.903,272.972 50.243,272.972 C49.583,272.972 48.962,273.056 48.38,273.224 C47.798,273.392 47.291,273.644 46.859,273.98 C46.427,274.316 46.085,274.739 45.833,275.249 C45.581,275.759 45.455,276.356 45.455,277.04 C45.455,277.724 45.581,278.321 45.833,278.831 C46.085,279.341 46.427,279.764 46.859,280.1 C47.291,280.436 47.798,280.679 48.38,280.829 C48.962,280.979 49.583,281.054 50.243,281.054 Z M50.243,279.776 C49.859,279.776 49.484,279.713 49.118,279.587 C48.752,279.461 48.425,279.281 48.137,279.047 C47.849,278.813 47.618,278.528 47.444,278.192 C47.27,277.856 47.183,277.472 47.183,277.04 C47.183,276.608 47.27,276.224 47.444,275.888 C47.618,275.552 47.849,275.267 48.137,275.033 C48.425,274.799 48.752,274.619 49.118,274.493 C49.484,274.367 49.859,274.304 50.243,274.304 C50.627,274.304 51.002,274.367 51.368,274.493 C51.734,274.619 52.061,274.799 52.349,275.033 C52.637,275.267 52.868,275.552 53.042,275.888 C53.216,276.224 53.303,276.608 53.303,277.04 C53.303,277.472 53.216,277.856 53.042,278.192 C52.868,278.528 52.637,278.813 52.349,279.047 C52.061,279.281 51.734,279.461 51.368,279.587 C51.002,279.713 50.627,279.776 50.243,279.776 Z M61.817,281.054 C62.537,281.054 63.164,280.979 63.698,280.829 C64.232,280.679 64.67,280.472 65.012,280.208 C65.354,279.944 65.609,279.641 65.777,279.299 C65.945,278.957 66.029,278.6 66.029,278.228 L66.029,278.228 L66.029,273.674 C66.029,273.494 66.161,273.404 66.425,273.404 L66.425,273.404 L66.425,273.08 L63.923,273.08 L63.923,273.404 C64.223,273.404 64.373,273.494 64.373,273.674 L64.373,273.674 L64.373,277.796 C64.373,278.372 64.163,278.834 63.743,279.182 C63.323,279.53 62.681,279.704 61.817,279.704 C60.953,279.704 60.311,279.53 59.891,279.182 C59.471,278.834 59.261,278.372 59.261,277.796 L59.261,277.796 L59.261,273.674 C59.261,273.494 59.393,273.404 59.657,273.404 L59.657,273.404 L59.657,273.08 L57.083,273.08 L57.083,273.404 C57.287,273.404 57.425,273.425 57.497,273.467 C57.569,273.509 57.605,273.578 57.605,273.674 L57.605,273.674 L57.605,278.228 C57.605,278.6 57.689,278.957 57.857,279.299 C58.025,279.641 58.28,279.944 58.622,280.208 C58.964,280.472 59.402,280.679 59.936,280.829 C60.47,280.979 61.097,281.054 61.817,281.054 Z M71.555,281 L71.555,280.676 C71.483,280.676 71.408,280.655 71.33,280.613 C71.252,280.571 71.213,280.502 71.213,280.406 L71.213,280.406 L71.213,277.832 L73.715,277.832 L75.137,279.956 C75.317,280.208 75.407,280.394 75.407,280.514 C75.407,280.622 75.329,280.676 75.173,280.676 L75.173,280.676 L75.173,281 L77.927,281 L77.927,280.676 C77.795,280.64 77.672,280.589 77.558,280.523 C77.444,280.457 77.339,280.358 77.243,280.226 L77.243,280.226 L75.479,277.652 C75.731,277.592 75.977,277.505 76.217,277.391 C76.457,277.277 76.676,277.127 76.874,276.941 C77.072,276.755 77.231,276.536 77.351,276.284 C77.471,276.032 77.531,275.744 77.531,275.42 C77.531,274.568 77.231,273.965 76.631,273.611 C76.031,273.257 75.197,273.08 74.129,273.08 L74.129,273.08 L69.161,273.08 L69.161,273.404 C69.377,273.404 69.485,273.494 69.485,273.674 L69.485,273.674 L69.485,280.406 C69.485,280.586 69.377,280.676 69.161,280.676 L69.161,280.676 L69.161,281 L71.555,281 Z M74.093,276.5 L71.249,276.5 L71.249,274.412 L74.093,274.412 C74.705,274.412 75.152,274.499 75.434,274.673 C75.716,274.847 75.857,275.084 75.857,275.384 C75.857,276.128 75.269,276.5 74.093,276.5 L74.093,276.5 Z M90.527,281 C91.235,281 91.835,280.886 92.327,280.658 C92.819,280.43 93.221,280.133 93.533,279.767 C93.845,279.401 94.073,278.981 94.217,278.507 C94.361,278.033 94.433,277.544 94.433,277.04 C94.433,276.536 94.358,276.047 94.208,275.573 C94.058,275.099 93.824,274.679 93.506,274.313 C93.188,273.947 92.777,273.65 92.273,273.422 C91.769,273.194 91.163,273.08 90.455,273.08 L90.455,273.08 L85.451,273.08 L85.451,273.404 C85.727,273.404 85.865,273.494 85.865,273.674 L85.865,273.674 L85.865,280.406 C85.865,280.586 85.727,280.676 85.451,280.676 L85.451,280.676 L85.451,281 L90.527,281 Z M89.933,279.668 L87.593,279.668 L87.593,274.412 L89.933,274.412 C90.305,274.412 90.659,274.433 90.995,274.475 C91.331,274.517 91.625,274.625 91.877,274.799 C92.129,274.973 92.33,275.231 92.48,275.573 C92.63,275.915 92.705,276.386 92.705,276.986 C92.705,277.586 92.63,278.063 92.48,278.417 C92.33,278.771 92.129,279.041 91.877,279.227 C91.625,279.413 91.331,279.533 90.995,279.587 C90.659,279.641 90.305,279.668 89.933,279.668 L89.933,279.668 Z M100.733,281.054 C101.393,281.054 102.014,280.979 102.596,280.829 C103.178,280.679 103.685,280.436 104.117,280.1 C104.549,279.764 104.891,279.341 105.143,278.831 C105.395,278.321 105.521,277.724 105.521,277.04 C105.521,276.356 105.395,275.759 105.143,275.249 C104.891,274.739 104.549,274.316 104.117,273.98 C103.685,273.644 103.178,273.392 102.596,273.224 C102.014,273.056 101.393,272.972 100.733,272.972 C100.073,272.972 99.452,273.056 98.87,273.224 C98.288,273.392 97.781,273.644 97.349,273.98 C96.917,274.316 96.575,274.739 96.323,275.249 C96.071,275.759 95.945,276.356 95.945,277.04 C95.945,277.724 96.071,278.321 96.323,278.831 C96.575,279.341 96.917,279.764 97.349,280.1 C97.781,280.436 98.288,280.679 98.87,280.829 C99.452,280.979 100.073,281.054 100.733,281.054 Z M100.733,279.776 C100.349,279.776 99.974,279.713 99.608,279.587 C99.242,279.461 98.915,279.281 98.627,279.047 C98.339,278.813 98.108,278.528 97.934,278.192 C97.76,277.856 97.673,277.472 97.673,277.04 C97.673,276.608 97.76,276.224 97.934,275.888 C98.108,275.552 98.339,275.267 98.627,275.033 C98.915,274.799 99.242,274.619 99.608,274.493 C99.974,274.367 100.349,274.304 100.733,274.304 C101.117,274.304 101.492,274.367 101.858,274.493 C102.224,274.619 102.551,274.799 102.839,275.033 C103.127,275.267 103.358,275.552 103.532,275.888 C103.706,276.224 103.793,276.608 103.793,277.04 C103.793,277.472 103.706,277.856 103.532,278.192 C103.358,278.528 103.127,278.813 102.839,279.047 C102.551,279.281 102.224,279.461 101.858,279.587 C101.492,279.713 101.117,279.776 100.733,279.776 Z M111.929,281.054 C112.505,281.054 113.027,281.015 113.495,280.937 C113.963,280.859 114.374,280.76 114.728,280.64 C115.082,280.52 115.376,280.397 115.61,280.271 C115.844,280.145 116.015,280.046 116.123,279.974 L116.123,279.974 L116.123,279.758 C116.003,279.71 115.928,279.665 115.898,279.623 C115.868,279.581 115.853,279.506 115.853,279.398 L115.853,279.398 L115.853,277.688 C115.853,277.568 115.871,277.478 115.907,277.418 C115.943,277.358 116.015,277.304 116.123,277.256 L116.123,277.256 L116.123,276.932 L112.595,276.932 C112.463,276.932 112.349,276.914 112.253,276.878 C112.157,276.842 112.097,276.764 112.073,276.644 L112.073,276.644 L111.749,276.644 L111.749,278.498 L112.073,278.498 C112.097,278.354 112.157,278.255 112.253,278.201 C112.349,278.147 112.463,278.12 112.595,278.12 L112.595,278.12 L114.449,278.12 L114.449,279.254 C114.065,279.458 113.642,279.596 113.18,279.668 C112.718,279.74 112.229,279.776 111.713,279.776 C111.365,279.776 111.005,279.728 110.633,279.632 C110.261,279.536 109.922,279.383 109.616,279.173 C109.31,278.963 109.061,278.687 108.869,278.345 C108.677,278.003 108.581,277.58 108.581,277.076 C108.581,276.572 108.671,276.146 108.851,275.798 C109.031,275.45 109.271,275.165 109.571,274.943 C109.871,274.721 110.219,274.559 110.615,274.457 C111.011,274.355 111.431,274.304 111.875,274.304 C112.199,274.304 112.52,274.337 112.838,274.403 C113.156,274.469 113.441,274.556 113.693,274.664 C113.945,274.772 114.149,274.889 114.305,275.015 C114.461,275.141 114.539,275.258 114.539,275.366 C114.539,275.378 114.527,275.444 114.503,275.564 L114.503,275.564 L114.719,275.69 L115.763,273.728 L115.547,273.62 C115.475,273.68 115.415,273.719 115.367,273.737 C115.319,273.755 115.247,273.764 115.151,273.764 C115.067,273.764 114.941,273.722 114.773,273.638 C114.605,273.554 114.383,273.464 114.107,273.368 C113.843,273.272 113.531,273.182 113.171,273.098 C112.811,273.014 112.397,272.972 111.929,272.972 C111.149,272.972 110.444,273.065 109.814,273.251 C109.184,273.437 108.65,273.707 108.212,274.061 C107.774,274.415 107.438,274.841 107.204,275.339 C106.97,275.837 106.853,276.404 106.853,277.04 C106.853,277.676 106.97,278.243 107.204,278.741 C107.438,279.239 107.774,279.662 108.212,280.01 C108.65,280.358 109.184,280.619 109.814,280.793 C110.444,280.967 111.149,281.054 111.929,281.054 Z M127.805,281.054 C128.345,281.054 128.834,281.006 129.272,280.91 C129.71,280.814 130.094,280.697 130.424,280.559 C130.754,280.421 131.027,280.298 131.243,280.19 C131.459,280.082 131.615,280.028 131.711,280.028 C131.771,280.028 131.873,280.058 132.017,280.118 L132.017,280.118 L132.197,280.028 L130.865,278.12 L130.667,278.3 C130.679,278.348 130.685,278.408 130.685,278.48 L130.685,278.48 L130.685,278.624 C130.685,278.732 130.598,278.852 130.424,278.984 C130.25,279.116 130.025,279.239 129.749,279.353 C129.473,279.467 129.167,279.566 128.831,279.65 C128.495,279.734 128.165,279.776 127.841,279.776 C127.493,279.776 127.151,279.713 126.815,279.587 C126.479,279.461 126.179,279.275 125.915,279.029 C125.651,278.783 125.438,278.489 125.276,278.147 C125.114,277.805 125.033,277.418 125.033,276.986 C125.033,276.554 125.105,276.17 125.249,275.834 C125.393,275.498 125.597,275.216 125.861,274.988 C126.125,274.76 126.434,274.589 126.788,274.475 C127.142,274.361 127.535,274.304 127.967,274.304 C128.327,274.304 128.657,274.337 128.957,274.403 C129.257,274.469 129.518,274.55 129.74,274.646 C129.962,274.742 130.133,274.841 130.253,274.943 C130.373,275.045 130.433,275.126 130.433,275.186 C130.433,275.222 130.436,275.252 130.442,275.276 C130.448,275.3 130.451,275.324 130.451,275.348 L130.451,275.348 L130.649,275.492 L131.837,273.782 L131.621,273.656 C131.573,273.68 131.528,273.71 131.486,273.746 C131.444,273.782 131.393,273.8 131.333,273.8 C131.249,273.8 131.111,273.758 130.919,273.674 C130.727,273.59 130.487,273.494 130.199,273.386 C129.911,273.278 129.578,273.182 129.2,273.098 C128.822,273.014 128.405,272.972 127.949,272.972 C127.361,272.972 126.788,273.056 126.23,273.224 C125.672,273.392 125.177,273.647 124.745,273.989 C124.313,274.331 123.965,274.754 123.701,275.258 C123.437,275.762 123.305,276.35 123.305,277.022 C123.305,277.694 123.437,278.285 123.701,278.795 C123.965,279.305 124.307,279.731 124.727,280.073 C125.147,280.415 125.627,280.664 126.167,280.82 C126.707,280.976 127.253,281.054 127.805,281.054 Z M138.227,281.054 C138.887,281.054 139.508,280.979 140.09,280.829 C140.672,280.679 141.179,280.436 141.611,280.1 C142.043,279.764 142.385,279.341 142.637,278.831 C142.889,278.321 143.015,277.724 143.015,277.04 C143.015,276.356 142.889,275.759 142.637,275.249 C142.385,274.739 142.043,274.316 141.611,273.98 C141.179,273.644 140.672,273.392 140.09,273.224 C139.508,273.056 138.887,272.972 138.227,272.972 C137.567,272.972 136.946,273.056 136.364,273.224 C135.782,273.392 135.275,273.644 134.843,273.98 C134.411,274.316 134.069,274.739 133.817,275.249 C133.565,275.759 133.439,276.356 133.439,277.04 C133.439,277.724 133.565,278.321 133.817,278.831 C134.069,279.341 134.411,279.764 134.843,280.1 C135.275,280.436 135.782,280.679 136.364,280.829 C136.946,280.979 137.567,281.054 138.227,281.054 Z M138.227,279.776 C137.843,279.776 137.468,279.713 137.102,279.587 C136.736,279.461 136.409,279.281 136.121,279.047 C135.833,278.813 135.602,278.528 135.428,278.192 C135.254,277.856 135.167,277.472 135.167,277.04 C135.167,276.608 135.254,276.224 135.428,275.888 C135.602,275.552 135.833,275.267 136.121,275.033 C136.409,274.799 136.736,274.619 137.102,274.493 C137.468,274.367 137.843,274.304 138.227,274.304 C138.611,274.304 138.986,274.367 139.352,274.493 C139.718,274.619 140.045,274.799 140.333,275.033 C140.621,275.267 140.852,275.552 141.026,275.888 C141.2,276.224 141.287,276.608 141.287,277.04 C141.287,277.472 141.2,277.856 141.026,278.192 C140.852,278.528 140.621,278.813 140.333,279.047 C140.045,279.281 139.718,279.461 139.352,279.587 C138.986,279.713 138.611,279.776 138.227,279.776 Z M149.801,281.054 C150.521,281.054 151.148,280.979 151.682,280.829 C152.216,280.679 152.654,280.472 152.996,280.208 C153.338,279.944 153.593,279.641 153.761,279.299 C153.929,278.957 154.013,278.6 154.013,278.228 L154.013,278.228 L154.013,273.674 C154.013,273.494 154.145,273.404 154.409,273.404 L154.409,273.404 L154.409,273.08 L151.907,273.08 L151.907,273.404 C152.207,273.404 152.357,273.494 152.357,273.674 L152.357,273.674 L152.357,277.796 C152.357,278.372 152.147,278.834 151.727,279.182 C151.307,279.53 150.665,279.704 149.801,279.704 C148.937,279.704 148.295,279.53 147.875,279.182 C147.455,278.834 147.245,278.372 147.245,277.796 L147.245,277.796 L147.245,273.674 C147.245,273.494 147.377,273.404 147.641,273.404 L147.641,273.404 L147.641,273.08 L145.067,273.08 L145.067,273.404 C145.271,273.404 145.409,273.425 145.481,273.467 C145.553,273.509 145.589,273.578 145.589,273.674 L145.589,273.674 L145.589,278.228 C145.589,278.6 145.673,278.957 145.841,279.299 C146.009,279.641 146.264,279.944 146.606,280.208 C146.948,280.472 147.386,280.679 147.92,280.829 C148.454,280.979 149.081,281.054 149.801,281.054 Z M161.429,281.054 C162.005,281.054 162.527,281.015 162.995,280.937 C163.463,280.859 163.874,280.76 164.228,280.64 C164.582,280.52 164.876,280.397 165.11,280.271 C165.344,280.145 165.515,280.046 165.623,279.974 L165.623,279.974 L165.623,279.758 C165.503,279.71 165.428,279.665 165.398,279.623 C165.368,279.581 165.353,279.506 165.353,279.398 L165.353,279.398 L165.353,277.688 C165.353,277.568 165.371,277.478 165.407,277.418 C165.443,277.358 165.515,277.304 165.623,277.256 L165.623,277.256 L165.623,276.932 L162.095,276.932 C161.963,276.932 161.849,276.914 161.753,276.878 C161.657,276.842 161.597,276.764 161.573,276.644 L161.573,276.644 L161.249,276.644 L161.249,278.498 L161.573,278.498 C161.597,278.354 161.657,278.255 161.753,278.201 C161.849,278.147 161.963,278.12 162.095,278.12 L162.095,278.12 L163.949,278.12 L163.949,279.254 C163.565,279.458 163.142,279.596 162.68,279.668 C162.218,279.74 161.729,279.776 161.213,279.776 C160.865,279.776 160.505,279.728 160.133,279.632 C159.761,279.536 159.422,279.383 159.116,279.173 C158.81,278.963 158.561,278.687 158.369,278.345 C158.177,278.003 158.081,277.58 158.081,277.076 C158.081,276.572 158.171,276.146 158.351,275.798 C158.531,275.45 158.771,275.165 159.071,274.943 C159.371,274.721 159.719,274.559 160.115,274.457 C160.511,274.355 160.931,274.304 161.375,274.304 C161.699,274.304 162.02,274.337 162.338,274.403 C162.656,274.469 162.941,274.556 163.193,274.664 C163.445,274.772 163.649,274.889 163.805,275.015 C163.961,275.141 164.039,275.258 164.039,275.366 C164.039,275.378 164.027,275.444 164.003,275.564 L164.003,275.564 L164.219,275.69 L165.263,273.728 L165.047,273.62 C164.975,273.68 164.915,273.719 164.867,273.737 C164.819,273.755 164.747,273.764 164.651,273.764 C164.567,273.764 164.441,273.722 164.273,273.638 C164.105,273.554 163.883,273.464 163.607,273.368 C163.343,273.272 163.031,273.182 162.671,273.098 C162.311,273.014 161.897,272.972 161.429,272.972 C160.649,272.972 159.944,273.065 159.314,273.251 C158.684,273.437 158.15,273.707 157.712,274.061 C157.274,274.415 156.938,274.841 156.704,275.339 C156.47,275.837 156.353,276.404 156.353,277.04 C156.353,277.676 156.47,278.243 156.704,278.741 C156.938,279.239 157.274,279.662 157.712,280.01 C158.15,280.358 158.684,280.619 159.314,280.793 C159.944,280.967 160.649,281.054 161.429,281.054 Z M170.591,281 L170.591,280.676 C170.519,280.676 170.456,280.655 170.402,280.613 C170.348,280.571 170.321,280.502 170.321,280.406 L170.321,280.406 L170.321,277.688 L175.145,277.688 L175.145,280.406 C175.145,280.502 175.118,280.571 175.064,280.613 C175.01,280.655 174.947,280.676 174.875,280.676 L174.875,280.676 L174.875,281 L177.143,281 L177.143,280.676 C177.071,280.676 177.008,280.655 176.954,280.613 C176.9,280.571 176.873,280.502 176.873,280.406 L176.873,280.406 L176.873,273.674 C176.873,273.578 176.9,273.509 176.954,273.467 C177.008,273.425 177.071,273.404 177.143,273.404 L177.143,273.404 L177.143,273.08 L174.875,273.08 L174.875,273.404 C174.947,273.404 175.01,273.425 175.064,273.467 C175.118,273.509 175.145,273.578 175.145,273.674 L175.145,273.674 L175.145,276.212 L170.321,276.212 L170.321,273.674 C170.321,273.578 170.348,273.509 170.402,273.467 C170.456,273.425 170.519,273.404 170.591,273.404 L170.591,273.404 L170.591,273.08 L168.323,273.08 L168.323,273.404 C168.395,273.404 168.458,273.425 168.512,273.467 C168.566,273.509 168.593,273.578 168.593,273.674 L168.593,273.674 L168.593,280.406 C168.593,280.502 168.566,280.571 168.512,280.613 C168.458,280.655 168.395,280.676 168.323,280.676 L168.323,280.676 L168.323,281 L170.591,281 Z M187.655,281.198 L187.655,279.308 L187.331,279.308 C187.331,279.416 187.283,279.503 187.187,279.569 C187.091,279.635 186.971,279.668 186.827,279.668 L186.827,279.668 L182.219,279.668 L182.219,277.544 L184.847,277.544 C185.087,277.544 185.273,277.559 185.405,277.589 C185.537,277.619 185.585,277.7 185.549,277.832 L185.549,277.832 L185.909,277.832 L185.909,275.924 L185.585,275.924 C185.585,276.056 185.537,276.137 185.441,276.167 C185.345,276.197 185.195,276.212 184.991,276.212 L184.991,276.212 L182.219,276.212 L182.219,274.412 L186.611,274.412 C186.983,274.412 187.169,274.526 187.169,274.754 L187.169,274.754 L187.493,274.754 L187.493,272.756 L187.169,272.756 C187.169,272.972 186.983,273.08 186.611,273.08 L186.611,273.08 L180.221,273.08 L180.221,273.404 C180.281,273.404 180.341,273.425 180.401,273.467 C180.461,273.509 180.491,273.578 180.491,273.674 L180.491,273.674 L180.491,280.406 C180.491,280.502 180.461,280.571 180.401,280.613 C180.341,280.655 180.281,280.676 180.221,280.676 L180.221,280.676 L180.221,281 L186.827,281 C186.971,281 187.091,281.006 187.187,281.018 C187.283,281.03 187.331,281.09 187.331,281.198 L187.331,281.198 L187.655,281.198 Z M195.035,281 C195.743,281 196.343,280.886 196.835,280.658 C197.327,280.43 197.729,280.133 198.041,279.767 C198.353,279.401 198.581,278.981 198.725,278.507 C198.869,278.033 198.941,277.544 198.941,277.04 C198.941,276.536 198.866,276.047 198.716,275.573 C198.566,275.099 198.332,274.679 198.014,274.313 C197.696,273.947 197.285,273.65 196.781,273.422 C196.277,273.194 195.671,273.08 194.963,273.08 L194.963,273.08 L189.959,273.08 L189.959,273.404 C190.235,273.404 190.373,273.494 190.373,273.674 L190.373,273.674 L190.373,280.406 C190.373,280.586 190.235,280.676 189.959,280.676 L189.959,280.676 L189.959,281 L195.035,281 Z M194.441,279.668 L192.101,279.668 L192.101,274.412 L194.441,274.412 C194.813,274.412 195.167,274.433 195.503,274.475 C195.839,274.517 196.133,274.625 196.385,274.799 C196.637,274.973 196.838,275.231 196.988,275.573 C197.138,275.915 197.213,276.386 197.213,276.986 C197.213,277.586 197.138,278.063 196.988,278.417 C196.838,278.771 196.637,279.041 196.385,279.227 C196.133,279.413 195.839,279.533 195.503,279.587 C195.167,279.641 194.813,279.668 194.441,279.668 L194.441,279.668 Z M210.731,281.054 C211.391,281.054 212.012,280.979 212.594,280.829 C213.176,280.679 213.683,280.436 214.115,280.1 C214.547,279.764 214.889,279.341 215.141,278.831 C215.393,278.321 215.519,277.724 215.519,277.04 C215.519,276.356 215.393,275.759 215.141,275.249 C214.889,274.739 214.547,274.316 214.115,273.98 C213.683,273.644 213.176,273.392 212.594,273.224 C212.012,273.056 211.391,272.972 210.731,272.972 C210.071,272.972 209.45,273.056 208.868,273.224 C208.286,273.392 207.779,273.644 207.347,273.98 C206.915,274.316 206.573,274.739 206.321,275.249 C206.069,275.759 205.943,276.356 205.943,277.04 C205.943,277.724 206.069,278.321 206.321,278.831 C206.573,279.341 206.915,279.764 207.347,280.1 C207.779,280.436 208.286,280.679 208.868,280.829 C209.45,280.979 210.071,281.054 210.731,281.054 Z M210.731,279.776 C210.347,279.776 209.972,279.713 209.606,279.587 C209.24,279.461 208.913,279.281 208.625,279.047 C208.337,278.813 208.106,278.528 207.932,278.192 C207.758,277.856 207.671,277.472 207.671,277.04 C207.671,276.608 207.758,276.224 207.932,275.888 C208.106,275.552 208.337,275.267 208.625,275.033 C208.913,274.799 209.24,274.619 209.606,274.493 C209.972,274.367 210.347,274.304 210.731,274.304 C211.115,274.304 211.49,274.367 211.856,274.493 C212.222,274.619 212.549,274.799 212.837,275.033 C213.125,275.267 213.356,275.552 213.53,275.888 C213.704,276.224 213.791,276.608 213.791,277.04 C213.791,277.472 213.704,277.856 213.53,278.192 C213.356,278.528 213.125,278.813 212.837,279.047 C212.549,279.281 212.222,279.461 211.856,279.587 C211.49,279.713 211.115,279.776 210.731,279.776 Z M219.911,281 L219.911,280.676 C219.659,280.676 219.533,280.586 219.533,280.406 L219.533,280.406 L219.533,275.168 L223.997,279.92 C224.141,280.076 224.27,280.214 224.384,280.334 C224.498,280.454 224.555,280.538 224.555,280.586 C224.555,280.646 224.513,280.676 224.429,280.676 L224.429,280.676 L224.429,281 L226.769,281 L226.769,280.676 C226.553,280.676 226.445,280.586 226.445,280.406 L226.445,280.406 L226.445,273.674 C226.445,273.494 226.553,273.404 226.769,273.404 L226.769,273.404 L226.769,273.08 L224.573,273.08 L224.573,273.404 C224.813,273.404 224.933,273.494 224.933,273.674 L224.933,273.674 L224.933,278.552 L220.613,273.98 C220.349,273.716 220.217,273.554 220.217,273.494 C220.217,273.446 220.259,273.416 220.343,273.404 L220.343,273.404 L220.343,273.08 L217.697,273.08 L217.697,273.404 C217.913,273.404 218.021,273.494 218.021,273.674 L218.021,273.674 L218.021,280.406 C218.021,280.586 217.913,280.676 217.697,280.676 L217.697,280.676 L217.697,281 L219.911,281 Z M117.959,299 L117.959,298.676 C117.731,298.676 117.617,298.586 117.617,298.406 L117.617,298.406 L117.617,295.706 L120.371,292.142 C120.503,291.974 120.656,291.809 120.83,291.647 C121.004,291.485 121.163,291.404 121.307,291.404 L121.307,291.404 L121.307,291.08 L118.553,291.08 L118.553,291.404 C118.613,291.404 118.673,291.416 118.733,291.44 C118.793,291.464 118.823,291.524 118.823,291.62 C118.823,291.692 118.796,291.767 118.742,291.845 C118.688,291.923 118.607,292.04 118.499,292.196 L118.499,292.196 L116.897,294.428 L115.079,292.052 C115.019,291.968 114.965,291.896 114.917,291.836 C114.869,291.776 114.845,291.71 114.845,291.638 C114.845,291.566 114.881,291.509 114.953,291.467 C115.025,291.425 115.091,291.404 115.151,291.404 L115.151,291.404 L115.151,291.08 L112.181,291.08 L112.181,291.404 C112.289,291.404 112.403,291.428 112.523,291.476 C112.643,291.524 112.745,291.602 112.829,291.71 L112.829,291.71 L115.889,295.634 L115.889,298.406 C115.889,298.586 115.781,298.676 115.565,298.676 L115.565,298.676 L115.565,299 L117.959,299 Z M127.247,299.054 C127.907,299.054 128.528,298.979 129.11,298.829 C129.692,298.679 130.199,298.436 130.631,298.1 C131.063,297.764 131.405,297.341 131.657,296.831 C131.909,296.321 132.035,295.724 132.035,295.04 C132.035,294.356 131.909,293.759 131.657,293.249 C131.405,292.739 131.063,292.316 130.631,291.98 C130.199,291.644 129.692,291.392 129.11,291.224 C128.528,291.056 127.907,290.972 127.247,290.972 C126.587,290.972 125.966,291.056 125.384,291.224 C124.802,291.392 124.295,291.644 123.863,291.98 C123.431,292.316 123.089,292.739 122.837,293.249 C122.585,293.759 122.459,294.356 122.459,295.04 C122.459,295.724 122.585,296.321 122.837,296.831 C123.089,297.341 123.431,297.764 123.863,298.1 C124.295,298.436 124.802,298.679 125.384,298.829 C125.966,298.979 126.587,299.054 127.247,299.054 Z M127.247,297.776 C126.863,297.776 126.488,297.713 126.122,297.587 C125.756,297.461 125.429,297.281 125.141,297.047 C124.853,296.813 124.622,296.528 124.448,296.192 C124.274,295.856 124.187,295.472 124.187,295.04 C124.187,294.608 124.274,294.224 124.448,293.888 C124.622,293.552 124.853,293.267 125.141,293.033 C125.429,292.799 125.756,292.619 126.122,292.493 C126.488,292.367 126.863,292.304 127.247,292.304 C127.631,292.304 128.006,292.367 128.372,292.493 C128.738,292.619 129.065,292.799 129.353,293.033 C129.641,293.267 129.872,293.552 130.046,293.888 C130.22,294.224 130.307,294.608 130.307,295.04 C130.307,295.472 130.22,295.856 130.046,296.192 C129.872,296.528 129.641,296.813 129.353,297.047 C129.065,297.281 128.738,297.461 128.372,297.587 C128.006,297.713 127.631,297.776 127.247,297.776 Z M138.821,299.054 C139.541,299.054 140.168,298.979 140.702,298.829 C141.236,298.679 141.674,298.472 142.016,298.208 C142.358,297.944 142.613,297.641 142.781,297.299 C142.949,296.957 143.033,296.6 143.033,296.228 L143.033,296.228 L143.033,291.674 C143.033,291.494 143.165,291.404 143.429,291.404 L143.429,291.404 L143.429,291.08 L140.927,291.08 L140.927,291.404 C141.227,291.404 141.377,291.494 141.377,291.674 L141.377,291.674 L141.377,295.796 C141.377,296.372 141.167,296.834 140.747,297.182 C140.327,297.53 139.685,297.704 138.821,297.704 C137.957,297.704 137.315,297.53 136.895,297.182 C136.475,296.834 136.265,296.372 136.265,295.796 L136.265,295.796 L136.265,291.674 C136.265,291.494 136.397,291.404 136.661,291.404 L136.661,291.404 L136.661,291.08 L134.087,291.08 L134.087,291.404 C134.291,291.404 134.429,291.425 134.501,291.467 C134.573,291.509 134.609,291.578 134.609,291.674 L134.609,291.674 L134.609,296.228 C134.609,296.6 134.693,296.957 134.861,297.299 C135.029,297.641 135.284,297.944 135.626,298.208 C135.968,298.472 136.406,298.679 136.94,298.829 C137.474,298.979 138.101,299.054 138.821,299.054 Z M147.497,299.054 C147.845,299.054 148.145,298.937 148.397,298.703 C148.649,298.469 148.775,298.178 148.775,297.83 C148.775,297.482 148.649,297.182 148.397,296.93 C148.145,296.678 147.845,296.552 147.497,296.552 C147.149,296.552 146.849,296.678 146.597,296.93 C146.345,297.182 146.219,297.482 146.219,297.83 C146.219,298.178 146.345,298.469 146.597,298.703 C146.849,298.937 147.149,299.054 147.497,299.054 Z M58.19,317 L58.19,316.676 C57.962,316.676 57.848,316.61 57.848,316.478 C57.848,316.37 57.908,316.19 58.028,315.938 L58.028,315.938 L58.676,314.66 L63.068,314.66 L63.752,315.992 C63.848,316.184 63.896,316.34 63.896,316.46 C63.896,316.532 63.86,316.586 63.788,316.622 C63.716,316.658 63.656,316.676 63.608,316.676 L63.608,316.676 L63.608,317 L66.776,317 L66.776,316.676 C66.644,316.616 66.527,316.556 66.425,316.496 C66.323,316.436 66.242,316.34 66.182,316.208 L66.182,316.208 L62.438,308.882 C62.354,308.726 62.291,308.6 62.249,308.504 C62.207,308.408 62.186,308.312 62.186,308.216 C62.186,308.084 62.228,307.997 62.312,307.955 C62.396,307.913 62.48,307.88 62.564,307.856 L62.564,307.856 L62.564,307.532 L59.522,307.532 L59.522,307.856 C59.618,307.88 59.708,307.916 59.792,307.964 C59.876,308.012 59.918,308.096 59.918,308.216 C59.918,308.312 59.885,308.426 59.819,308.558 C59.753,308.69 59.678,308.834 59.594,308.99 L59.594,308.99 L56.264,315.992 C56.18,316.16 56.093,316.31 56.003,316.442 C55.913,316.574 55.79,316.652 55.634,316.676 L55.634,316.676 L55.634,317 L58.19,317 Z M62.42,313.328 L59.216,313.328 L60.908,309.98 L62.42,313.328 Z M73.544,317 C74.252,317 74.852,316.886 75.344,316.658 C75.836,316.43 76.238,316.133 76.55,315.767 C76.862,315.401 77.09,314.981 77.234,314.507 C77.378,314.033 77.45,313.544 77.45,313.04 C77.45,312.536 77.375,312.047 77.225,311.573 C77.075,311.099 76.841,310.679 76.523,310.313 C76.205,309.947 75.794,309.65 75.29,309.422 C74.786,309.194 74.18,309.08 73.472,309.08 L73.472,309.08 L68.468,309.08 L68.468,309.404 C68.744,309.404 68.882,309.494 68.882,309.674 L68.882,309.674 L68.882,316.406 C68.882,316.586 68.744,316.676 68.468,316.676 L68.468,316.676 L68.468,317 L73.544,317 Z M72.95,315.668 L70.61,315.668 L70.61,310.412 L72.95,310.412 C73.322,310.412 73.676,310.433 74.012,310.475 C74.348,310.517 74.642,310.625 74.894,310.799 C75.146,310.973 75.347,311.231 75.497,311.573 C75.647,311.915 75.722,312.386 75.722,312.986 C75.722,313.586 75.647,314.063 75.497,314.417 C75.347,314.771 75.146,315.041 74.894,315.227 C74.642,315.413 74.348,315.533 74.012,315.587 C73.676,315.641 73.322,315.668 72.95,315.668 L72.95,315.668 Z M84.542,317 C85.25,317 85.85,316.886 86.342,316.658 C86.834,316.43 87.236,316.133 87.548,315.767 C87.86,315.401 88.088,314.981 88.232,314.507 C88.376,314.033 88.448,313.544 88.448,313.04 C88.448,312.536 88.373,312.047 88.223,311.573 C88.073,311.099 87.839,310.679 87.521,310.313 C87.203,309.947 86.792,309.65 86.288,309.422 C85.784,309.194 85.178,309.08 84.47,309.08 L84.47,309.08 L79.466,309.08 L79.466,309.404 C79.742,309.404 79.88,309.494 79.88,309.674 L79.88,309.674 L79.88,316.406 C79.88,316.586 79.742,316.676 79.466,316.676 L79.466,316.676 L79.466,317 L84.542,317 Z M83.948,315.668 L81.608,315.668 L81.608,310.412 L83.948,310.412 C84.32,310.412 84.674,310.433 85.01,310.475 C85.346,310.517 85.64,310.625 85.892,310.799 C86.144,310.973 86.345,311.231 86.495,311.573 C86.645,311.915 86.72,312.386 86.72,312.986 C86.72,313.586 86.645,314.063 86.495,314.417 C86.345,314.771 86.144,315.041 85.892,315.227 C85.64,315.413 85.346,315.533 85.01,315.587 C84.674,315.641 84.32,315.668 83.948,315.668 L83.948,315.668 Z M100.436,317 L100.436,316.676 C100.22,316.676 100.112,316.586 100.112,316.406 L100.112,316.406 L100.112,310.412 L102.452,310.412 C102.548,310.412 102.638,310.436 102.722,310.484 C102.806,310.532 102.848,310.61 102.848,310.718 L102.848,310.718 L103.172,310.718 L103.172,308.648 L102.848,308.648 C102.848,308.816 102.806,308.93 102.722,308.99 C102.638,309.05 102.548,309.08 102.452,309.08 L102.452,309.08 L96.044,309.08 C95.948,309.08 95.858,309.05 95.774,308.99 C95.69,308.93 95.648,308.816 95.648,308.648 L95.648,308.648 L95.324,308.648 L95.324,310.718 L95.648,310.718 C95.648,310.61 95.69,310.532 95.774,310.484 C95.858,310.436 95.948,310.412 96.044,310.412 L96.044,310.412 L98.384,310.412 L98.384,316.406 C98.384,316.502 98.354,316.571 98.294,316.613 C98.234,316.655 98.174,316.676 98.114,316.676 L98.114,316.676 L98.114,317 L100.436,317 Z M107.6,317 L107.6,316.676 C107.528,316.676 107.465,316.655 107.411,316.613 C107.357,316.571 107.33,316.502 107.33,316.406 L107.33,316.406 L107.33,313.688 L112.154,313.688 L112.154,316.406 C112.154,316.502 112.127,316.571 112.073,316.613 C112.019,316.655 111.956,316.676 111.884,316.676 L111.884,316.676 L111.884,317 L114.152,317 L114.152,316.676 C114.08,316.676 114.017,316.655 113.963,316.613 C113.909,316.571 113.882,316.502 113.882,316.406 L113.882,316.406 L113.882,309.674 C113.882,309.578 113.909,309.509 113.963,309.467 C114.017,309.425 114.08,309.404 114.152,309.404 L114.152,309.404 L114.152,309.08 L111.884,309.08 L111.884,309.404 C111.956,309.404 112.019,309.425 112.073,309.467 C112.127,309.509 112.154,309.578 112.154,309.674 L112.154,309.674 L112.154,312.212 L107.33,312.212 L107.33,309.674 C107.33,309.578 107.357,309.509 107.411,309.467 C107.465,309.425 107.528,309.404 107.6,309.404 L107.6,309.404 L107.6,309.08 L105.332,309.08 L105.332,309.404 C105.404,309.404 105.467,309.425 105.521,309.467 C105.575,309.509 105.602,309.578 105.602,309.674 L105.602,309.674 L105.602,316.406 C105.602,316.502 105.575,316.571 105.521,316.613 C105.467,316.655 105.404,316.676 105.332,316.676 L105.332,316.676 L105.332,317 L107.6,317 Z M120.11,317 L120.11,316.676 C119.774,316.676 119.606,316.586 119.606,316.406 L119.606,316.406 L119.606,309.674 C119.606,309.494 119.774,309.404 120.11,309.404 L120.11,309.404 L120.11,309.08 L117.374,309.08 L117.374,309.404 C117.566,309.404 117.698,309.425 117.77,309.467 C117.842,309.509 117.878,309.578 117.878,309.674 L117.878,309.674 L117.878,316.406 C117.878,316.502 117.842,316.571 117.77,316.613 C117.698,316.655 117.566,316.676 117.374,316.676 L117.374,316.676 L117.374,317 L120.11,317 Z M126.608,317.054 C127.016,317.054 127.451,317.024 127.913,316.964 C128.375,316.904 128.798,316.778 129.182,316.586 C129.566,316.394 129.887,316.13 130.145,315.794 C130.403,315.458 130.532,315.026 130.532,314.498 C130.532,313.97 130.385,313.556 130.091,313.256 C129.797,312.956 129.428,312.728 128.984,312.572 C128.54,312.416 128.06,312.305 127.544,312.239 C127.028,312.173 126.548,312.107 126.104,312.041 C125.66,311.975 125.291,311.885 124.997,311.771 C124.703,311.657 124.556,311.468 124.556,311.204 C124.556,311.036 124.604,310.895 124.7,310.781 C124.796,310.667 124.928,310.574 125.096,310.502 C125.264,310.43 125.456,310.379 125.672,310.349 C125.888,310.319 126.116,310.304 126.356,310.304 C126.98,310.304 127.544,310.376 128.048,310.52 C128.552,310.664 128.924,310.838 129.164,311.042 C129.26,311.114 129.314,311.186 129.326,311.258 L129.326,311.258 L129.362,311.474 L129.686,311.582 L130.586,309.89 L130.388,309.692 C130.316,309.728 130.256,309.761 130.208,309.791 C130.16,309.821 130.088,309.836 129.992,309.836 C129.908,309.836 129.779,309.791 129.605,309.701 C129.431,309.611 129.206,309.512 128.93,309.404 C128.654,309.296 128.315,309.197 127.913,309.107 C127.511,309.017 127.028,308.972 126.464,308.972 C125.312,308.972 124.418,309.2 123.782,309.656 C123.146,310.112 122.828,310.724 122.828,311.492 C122.828,312.008 122.975,312.407 123.269,312.689 C123.563,312.971 123.932,313.187 124.376,313.337 C124.82,313.487 125.3,313.595 125.816,313.661 C126.332,313.727 126.812,313.793 127.256,313.859 C127.7,313.925 128.069,314.018 128.363,314.138 C128.657,314.258 128.804,314.45 128.804,314.714 C128.804,314.942 128.72,315.125 128.552,315.263 C128.384,315.401 128.18,315.509 127.94,315.587 C127.7,315.665 127.457,315.716 127.211,315.74 C126.965,315.764 126.758,315.776 126.59,315.776 C126.41,315.776 126.161,315.746 125.843,315.686 C125.525,315.626 125.207,315.545 124.889,315.443 C124.571,315.341 124.298,315.215 124.07,315.065 C123.842,314.915 123.728,314.75 123.728,314.57 C123.728,314.51 123.731,314.453 123.737,314.399 C123.743,314.345 123.746,314.294 123.746,314.246 L123.746,314.246 L123.404,314.156 L122.576,316.172 L122.828,316.352 C122.888,316.28 122.96,316.244 123.044,316.244 C123.092,316.244 123.23,316.289 123.458,316.379 C123.686,316.469 123.965,316.565 124.295,316.667 C124.625,316.769 124.991,316.859 125.393,316.937 C125.795,317.015 126.2,317.054 126.608,317.054 Z M142.934,317 L142.934,316.676 C142.718,316.676 142.61,316.586 142.61,316.406 L142.61,316.406 L142.61,310.412 L144.95,310.412 C145.046,310.412 145.136,310.436 145.22,310.484 C145.304,310.532 145.346,310.61 145.346,310.718 L145.346,310.718 L145.67,310.718 L145.67,308.648 L145.346,308.648 C145.346,308.816 145.304,308.93 145.22,308.99 C145.136,309.05 145.046,309.08 144.95,309.08 L144.95,309.08 L138.542,309.08 C138.446,309.08 138.356,309.05 138.272,308.99 C138.188,308.93 138.146,308.816 138.146,308.648 L138.146,308.648 L137.822,308.648 L137.822,310.718 L138.146,310.718 C138.146,310.61 138.188,310.532 138.272,310.484 C138.356,310.436 138.446,310.412 138.542,310.412 L138.542,310.412 L140.882,310.412 L140.882,316.406 C140.882,316.502 140.852,316.571 140.792,316.613 C140.732,316.655 140.672,316.676 140.612,316.676 L140.612,316.676 L140.612,317 L142.934,317 Z M151.736,317.054 C152.396,317.054 153.017,316.979 153.599,316.829 C154.181,316.679 154.688,316.436 155.12,316.1 C155.552,315.764 155.894,315.341 156.146,314.831 C156.398,314.321 156.524,313.724 156.524,313.04 C156.524,312.356 156.398,311.759 156.146,311.249 C155.894,310.739 155.552,310.316 155.12,309.98 C154.688,309.644 154.181,309.392 153.599,309.224 C153.017,309.056 152.396,308.972 151.736,308.972 C151.076,308.972 150.455,309.056 149.873,309.224 C149.291,309.392 148.784,309.644 148.352,309.98 C147.92,310.316 147.578,310.739 147.326,311.249 C147.074,311.759 146.948,312.356 146.948,313.04 C146.948,313.724 147.074,314.321 147.326,314.831 C147.578,315.341 147.92,315.764 148.352,316.1 C148.784,316.436 149.291,316.679 149.873,316.829 C150.455,316.979 151.076,317.054 151.736,317.054 Z M151.736,315.776 C151.352,315.776 150.977,315.713 150.611,315.587 C150.245,315.461 149.918,315.281 149.63,315.047 C149.342,314.813 149.111,314.528 148.937,314.192 C148.763,313.856 148.676,313.472 148.676,313.04 C148.676,312.608 148.763,312.224 148.937,311.888 C149.111,311.552 149.342,311.267 149.63,311.033 C149.918,310.799 150.245,310.619 150.611,310.493 C150.977,310.367 151.352,310.304 151.736,310.304 C152.12,310.304 152.495,310.367 152.861,310.493 C153.227,310.619 153.554,310.799 153.842,311.033 C154.13,311.267 154.361,311.552 154.535,311.888 C154.709,312.224 154.796,312.608 154.796,313.04 C154.796,313.472 154.709,313.856 154.535,314.192 C154.361,314.528 154.13,314.813 153.842,315.047 C153.554,315.281 153.227,315.461 152.861,315.587 C152.495,315.713 152.12,315.776 151.736,315.776 Z M168.944,317 L168.944,316.676 C168.716,316.676 168.602,316.586 168.602,316.406 L168.602,316.406 L168.602,313.706 L171.356,310.142 C171.488,309.974 171.641,309.809 171.815,309.647 C171.989,309.485 172.148,309.404 172.292,309.404 L172.292,309.404 L172.292,309.08 L169.538,309.08 L169.538,309.404 C169.598,309.404 169.658,309.416 169.718,309.44 C169.778,309.464 169.808,309.524 169.808,309.62 C169.808,309.692 169.781,309.767 169.727,309.845 C169.673,309.923 169.592,310.04 169.484,310.196 L169.484,310.196 L167.882,312.428 L166.064,310.052 C166.004,309.968 165.95,309.896 165.902,309.836 C165.854,309.776 165.83,309.71 165.83,309.638 C165.83,309.566 165.866,309.509 165.938,309.467 C166.01,309.425 166.076,309.404 166.136,309.404 L166.136,309.404 L166.136,309.08 L163.166,309.08 L163.166,309.404 C163.274,309.404 163.388,309.428 163.508,309.476 C163.628,309.524 163.73,309.602 163.814,309.71 L163.814,309.71 L166.874,313.634 L166.874,316.406 C166.874,316.586 166.766,316.676 166.55,316.676 L166.55,316.676 L166.55,317 L168.944,317 Z M178.232,317.054 C178.892,317.054 179.513,316.979 180.095,316.829 C180.677,316.679 181.184,316.436 181.616,316.1 C182.048,315.764 182.39,315.341 182.642,314.831 C182.894,314.321 183.02,313.724 183.02,313.04 C183.02,312.356 182.894,311.759 182.642,311.249 C182.39,310.739 182.048,310.316 181.616,309.98 C181.184,309.644 180.677,309.392 180.095,309.224 C179.513,309.056 178.892,308.972 178.232,308.972 C177.572,308.972 176.951,309.056 176.369,309.224 C175.787,309.392 175.28,309.644 174.848,309.98 C174.416,310.316 174.074,310.739 173.822,311.249 C173.57,311.759 173.444,312.356 173.444,313.04 C173.444,313.724 173.57,314.321 173.822,314.831 C174.074,315.341 174.416,315.764 174.848,316.1 C175.28,316.436 175.787,316.679 176.369,316.829 C176.951,316.979 177.572,317.054 178.232,317.054 Z M178.232,315.776 C177.848,315.776 177.473,315.713 177.107,315.587 C176.741,315.461 176.414,315.281 176.126,315.047 C175.838,314.813 175.607,314.528 175.433,314.192 C175.259,313.856 175.172,313.472 175.172,313.04 C175.172,312.608 175.259,312.224 175.433,311.888 C175.607,311.552 175.838,311.267 176.126,311.033 C176.414,310.799 176.741,310.619 177.107,310.493 C177.473,310.367 177.848,310.304 178.232,310.304 C178.616,310.304 178.991,310.367 179.357,310.493 C179.723,310.619 180.05,310.799 180.338,311.033 C180.626,311.267 180.857,311.552 181.031,311.888 C181.205,312.224 181.292,312.608 181.292,313.04 C181.292,313.472 181.205,313.856 181.031,314.192 C180.857,314.528 180.626,314.813 180.338,315.047 C180.05,315.281 179.723,315.461 179.357,315.587 C178.991,315.713 178.616,315.776 178.232,315.776 Z M189.806,317.054 C190.526,317.054 191.153,316.979 191.687,316.829 C192.221,316.679 192.659,316.472 193.001,316.208 C193.343,315.944 193.598,315.641 193.766,315.299 C193.934,314.957 194.018,314.6 194.018,314.228 L194.018,314.228 L194.018,309.674 C194.018,309.494 194.15,309.404 194.414,309.404 L194.414,309.404 L194.414,309.08 L191.912,309.08 L191.912,309.404 C192.212,309.404 192.362,309.494 192.362,309.674 L192.362,309.674 L192.362,313.796 C192.362,314.372 192.152,314.834 191.732,315.182 C191.312,315.53 190.67,315.704 189.806,315.704 C188.942,315.704 188.3,315.53 187.88,315.182 C187.46,314.834 187.25,314.372 187.25,313.796 L187.25,313.796 L187.25,309.674 C187.25,309.494 187.382,309.404 187.646,309.404 L187.646,309.404 L187.646,309.08 L185.072,309.08 L185.072,309.404 C185.276,309.404 185.414,309.425 185.486,309.467 C185.558,309.509 185.594,309.578 185.594,309.674 L185.594,309.674 L185.594,314.228 C185.594,314.6 185.678,314.957 185.846,315.299 C186.014,315.641 186.269,315.944 186.611,316.208 C186.953,316.472 187.391,316.679 187.925,316.829 C188.459,316.979 189.086,317.054 189.806,317.054 Z M199.544,317 L199.544,316.676 C199.472,316.676 199.397,316.655 199.319,316.613 C199.241,316.571 199.202,316.502 199.202,316.406 L199.202,316.406 L199.202,313.832 L201.704,313.832 L203.126,315.956 C203.306,316.208 203.396,316.394 203.396,316.514 C203.396,316.622 203.318,316.676 203.162,316.676 L203.162,316.676 L203.162,317 L205.916,317 L205.916,316.676 C205.784,316.64 205.661,316.589 205.547,316.523 C205.433,316.457 205.328,316.358 205.232,316.226 L205.232,316.226 L203.468,313.652 C203.72,313.592 203.966,313.505 204.206,313.391 C204.446,313.277 204.665,313.127 204.863,312.941 C205.061,312.755 205.22,312.536 205.34,312.284 C205.46,312.032 205.52,311.744 205.52,311.42 C205.52,310.568 205.22,309.965 204.62,309.611 C204.02,309.257 203.186,309.08 202.118,309.08 L202.118,309.08 L197.15,309.08 L197.15,309.404 C197.366,309.404 197.474,309.494 197.474,309.674 L197.474,309.674 L197.474,316.406 C197.474,316.586 197.366,316.676 197.15,316.676 L197.15,316.676 L197.15,317 L199.544,317 Z M202.082,312.5 L199.238,312.5 L199.238,310.412 L202.082,310.412 C202.694,310.412 203.141,310.499 203.423,310.673 C203.705,310.847 203.846,311.084 203.846,311.384 C203.846,312.128 203.258,312.5 202.082,312.5 L202.082,312.5 Z M74.39,335.198 L74.39,333.308 L74.066,333.308 C74.066,333.416 74.018,333.503 73.922,333.569 C73.826,333.635 73.706,333.668 73.562,333.668 L73.562,333.668 L68.954,333.668 L68.954,331.544 L71.582,331.544 C71.822,331.544 72.008,331.559 72.14,331.589 C72.272,331.619 72.32,331.7 72.284,331.832 L72.284,331.832 L72.644,331.832 L72.644,329.924 L72.32,329.924 C72.32,330.056 72.272,330.137 72.176,330.167 C72.08,330.197 71.93,330.212 71.726,330.212 L71.726,330.212 L68.954,330.212 L68.954,328.412 L73.346,328.412 C73.718,328.412 73.904,328.526 73.904,328.754 L73.904,328.754 L74.228,328.754 L74.228,326.756 L73.904,326.756 C73.904,326.972 73.718,327.08 73.346,327.08 L73.346,327.08 L66.956,327.08 L66.956,327.404 C67.016,327.404 67.076,327.425 67.136,327.467 C67.196,327.509 67.226,327.578 67.226,327.674 L67.226,327.674 L67.226,334.406 C67.226,334.502 67.196,334.571 67.136,334.613 C67.076,334.655 67.016,334.676 66.956,334.676 L66.956,334.676 L66.956,335 L73.562,335 C73.706,335 73.826,335.006 73.922,335.018 C74.018,335.03 74.066,335.09 74.066,335.198 L74.066,335.198 L74.39,335.198 Z M78.8,335 L78.8,334.676 C78.692,334.676 78.638,334.634 78.638,334.55 C78.638,334.466 78.722,334.322 78.89,334.118 L78.89,334.118 L80.42,332.246 L81.986,334.172 C82.118,334.376 82.184,334.496 82.184,334.532 C82.184,334.616 82.142,334.664 82.058,334.676 L82.058,334.676 L82.058,335 L84.812,335 L84.812,334.676 C84.632,334.676 84.476,334.592 84.344,334.424 C84.212,334.256 84.098,334.118 84.002,334.01 L84.002,334.01 L81.5,330.86 L84.218,327.584 C84.338,327.464 84.494,327.404 84.686,327.404 L84.686,327.404 L84.686,327.08 L81.932,327.08 L81.932,327.404 C82.088,327.404 82.166,327.452 82.166,327.548 C82.166,327.644 82.07,327.806 81.878,328.034 L80.51,329.708 L79.25,328.178 C79.142,328.046 79.052,327.932 78.98,327.836 C78.908,327.74 78.872,327.662 78.872,327.602 C78.872,327.47 78.944,327.404 79.088,327.404 L79.088,327.404 L79.088,327.08 L76.262,327.08 L76.262,327.404 C76.346,327.404 76.442,327.443 76.55,327.521 C76.658,327.599 76.796,327.74 76.964,327.944 L76.964,327.944 L79.448,331.04 L76.712,334.406 C76.628,334.514 76.535,334.586 76.433,334.622 C76.331,334.658 76.244,334.676 76.172,334.676 L76.172,334.676 L76.172,335 L78.8,335 Z M89.258,335 L89.258,334.676 C89.006,334.676 88.88,334.586 88.88,334.406 L88.88,334.406 L88.88,331.706 L91.94,331.706 C92.912,331.706 93.641,331.541 94.127,331.211 C94.613,330.881 94.856,330.284 94.856,329.42 C94.856,328.556 94.613,327.95 94.127,327.602 C93.641,327.254 92.912,327.08 91.94,327.08 L91.94,327.08 L86.702,327.08 L86.702,327.404 C87.002,327.404 87.152,327.494 87.152,327.674 L87.152,327.674 L87.152,334.406 C87.152,334.586 87.002,334.676 86.702,334.676 L86.702,334.676 L86.702,335 L89.258,335 Z M91.904,330.374 L88.88,330.374 L88.88,328.412 L91.904,328.412 C92.252,328.412 92.543,328.487 92.777,328.637 C93.011,328.787 93.128,329.048 93.128,329.42 C93.128,329.804 93.011,330.059 92.777,330.185 C92.543,330.311 92.252,330.374 91.904,330.374 L91.904,330.374 Z M100.994,335.054 C101.654,335.054 102.275,334.979 102.857,334.829 C103.439,334.679 103.946,334.436 104.378,334.1 C104.81,333.764 105.152,333.341 105.404,332.831 C105.656,332.321 105.782,331.724 105.782,331.04 C105.782,330.356 105.656,329.759 105.404,329.249 C105.152,328.739 104.81,328.316 104.378,327.98 C103.946,327.644 103.439,327.392 102.857,327.224 C102.275,327.056 101.654,326.972 100.994,326.972 C100.334,326.972 99.713,327.056 99.131,327.224 C98.549,327.392 98.042,327.644 97.61,327.98 C97.178,328.316 96.836,328.739 96.584,329.249 C96.332,329.759 96.206,330.356 96.206,331.04 C96.206,331.724 96.332,332.321 96.584,332.831 C96.836,333.341 97.178,333.764 97.61,334.1 C98.042,334.436 98.549,334.679 99.131,334.829 C99.713,334.979 100.334,335.054 100.994,335.054 Z M100.994,333.776 C100.61,333.776 100.235,333.713 99.869,333.587 C99.503,333.461 99.176,333.281 98.888,333.047 C98.6,332.813 98.369,332.528 98.195,332.192 C98.021,331.856 97.934,331.472 97.934,331.04 C97.934,330.608 98.021,330.224 98.195,329.888 C98.369,329.552 98.6,329.267 98.888,329.033 C99.176,328.799 99.503,328.619 99.869,328.493 C100.235,328.367 100.61,328.304 100.994,328.304 C101.378,328.304 101.753,328.367 102.119,328.493 C102.485,328.619 102.812,328.799 103.1,329.033 C103.388,329.267 103.619,329.552 103.793,329.888 C103.967,330.224 104.054,330.608 104.054,331.04 C104.054,331.472 103.967,331.856 103.793,332.192 C103.619,332.528 103.388,332.813 103.1,333.047 C102.812,333.281 102.485,333.461 102.119,333.587 C101.753,333.713 101.378,333.776 100.994,333.776 Z M111.362,335.054 C111.77,335.054 112.205,335.024 112.667,334.964 C113.129,334.904 113.552,334.778 113.936,334.586 C114.32,334.394 114.641,334.13 114.899,333.794 C115.157,333.458 115.286,333.026 115.286,332.498 C115.286,331.97 115.139,331.556 114.845,331.256 C114.551,330.956 114.182,330.728 113.738,330.572 C113.294,330.416 112.814,330.305 112.298,330.239 C111.782,330.173 111.302,330.107 110.858,330.041 C110.414,329.975 110.045,329.885 109.751,329.771 C109.457,329.657 109.31,329.468 109.31,329.204 C109.31,329.036 109.358,328.895 109.454,328.781 C109.55,328.667 109.682,328.574 109.85,328.502 C110.018,328.43 110.21,328.379 110.426,328.349 C110.642,328.319 110.87,328.304 111.11,328.304 C111.734,328.304 112.298,328.376 112.802,328.52 C113.306,328.664 113.678,328.838 113.918,329.042 C114.014,329.114 114.068,329.186 114.08,329.258 L114.08,329.258 L114.116,329.474 L114.44,329.582 L115.34,327.89 L115.142,327.692 C115.07,327.728 115.01,327.761 114.962,327.791 C114.914,327.821 114.842,327.836 114.746,327.836 C114.662,327.836 114.533,327.791 114.359,327.701 C114.185,327.611 113.96,327.512 113.684,327.404 C113.408,327.296 113.069,327.197 112.667,327.107 C112.265,327.017 111.782,326.972 111.218,326.972 C110.066,326.972 109.172,327.2 108.536,327.656 C107.9,328.112 107.582,328.724 107.582,329.492 C107.582,330.008 107.729,330.407 108.023,330.689 C108.317,330.971 108.686,331.187 109.13,331.337 C109.574,331.487 110.054,331.595 110.57,331.661 C111.086,331.727 111.566,331.793 112.01,331.859 C112.454,331.925 112.823,332.018 113.117,332.138 C113.411,332.258 113.558,332.45 113.558,332.714 C113.558,332.942 113.474,333.125 113.306,333.263 C113.138,333.401 112.934,333.509 112.694,333.587 C112.454,333.665 112.211,333.716 111.965,333.74 C111.719,333.764 111.512,333.776 111.344,333.776 C111.164,333.776 110.915,333.746 110.597,333.686 C110.279,333.626 109.961,333.545 109.643,333.443 C109.325,333.341 109.052,333.215 108.824,333.065 C108.596,332.915 108.482,332.75 108.482,332.57 C108.482,332.51 108.485,332.453 108.491,332.399 C108.497,332.345 108.5,332.294 108.5,332.246 L108.5,332.246 L108.158,332.156 L107.33,334.172 L107.582,334.352 C107.642,334.28 107.714,334.244 107.798,334.244 C107.846,334.244 107.984,334.289 108.212,334.379 C108.44,334.469 108.719,334.565 109.049,334.667 C109.379,334.769 109.745,334.859 110.147,334.937 C110.549,335.015 110.954,335.054 111.362,335.054 Z M122.576,335.054 C123.296,335.054 123.923,334.979 124.457,334.829 C124.991,334.679 125.429,334.472 125.771,334.208 C126.113,333.944 126.368,333.641 126.536,333.299 C126.704,332.957 126.788,332.6 126.788,332.228 L126.788,332.228 L126.788,327.674 C126.788,327.494 126.92,327.404 127.184,327.404 L127.184,327.404 L127.184,327.08 L124.682,327.08 L124.682,327.404 C124.982,327.404 125.132,327.494 125.132,327.674 L125.132,327.674 L125.132,331.796 C125.132,332.372 124.922,332.834 124.502,333.182 C124.082,333.53 123.44,333.704 122.576,333.704 C121.712,333.704 121.07,333.53 120.65,333.182 C120.23,332.834 120.02,332.372 120.02,331.796 L120.02,331.796 L120.02,327.674 C120.02,327.494 120.152,327.404 120.416,327.404 L120.416,327.404 L120.416,327.08 L117.842,327.08 L117.842,327.404 C118.046,327.404 118.184,327.425 118.256,327.467 C118.328,327.509 118.364,327.578 118.364,327.674 L118.364,327.674 L118.364,332.228 C118.364,332.6 118.448,332.957 118.616,333.299 C118.784,333.641 119.039,333.944 119.381,334.208 C119.723,334.472 120.161,334.679 120.695,334.829 C121.229,334.979 121.856,335.054 122.576,335.054 Z M132.314,335 L132.314,334.676 C132.242,334.676 132.167,334.655 132.089,334.613 C132.011,334.571 131.972,334.502 131.972,334.406 L131.972,334.406 L131.972,331.832 L134.474,331.832 L135.896,333.956 C136.076,334.208 136.166,334.394 136.166,334.514 C136.166,334.622 136.088,334.676 135.932,334.676 L135.932,334.676 L135.932,335 L138.686,335 L138.686,334.676 C138.554,334.64 138.431,334.589 138.317,334.523 C138.203,334.457 138.098,334.358 138.002,334.226 L138.002,334.226 L136.238,331.652 C136.49,331.592 136.736,331.505 136.976,331.391 C137.216,331.277 137.435,331.127 137.633,330.941 C137.831,330.755 137.99,330.536 138.11,330.284 C138.23,330.032 138.29,329.744 138.29,329.42 C138.29,328.568 137.99,327.965 137.39,327.611 C136.79,327.257 135.956,327.08 134.888,327.08 L134.888,327.08 L129.92,327.08 L129.92,327.404 C130.136,327.404 130.244,327.494 130.244,327.674 L130.244,327.674 L130.244,334.406 C130.244,334.586 130.136,334.676 129.92,334.676 L129.92,334.676 L129.92,335 L132.314,335 Z M134.852,330.5 L132.008,330.5 L132.008,328.412 L134.852,328.412 C135.464,328.412 135.911,328.499 136.193,328.673 C136.475,328.847 136.616,329.084 136.616,329.384 C136.616,330.128 136.028,330.5 134.852,330.5 L134.852,330.5 Z M148.424,335.198 L148.424,333.308 L148.1,333.308 C148.1,333.416 148.052,333.503 147.956,333.569 C147.86,333.635 147.74,333.668 147.596,333.668 L147.596,333.668 L142.988,333.668 L142.988,331.544 L145.616,331.544 C145.856,331.544 146.042,331.559 146.174,331.589 C146.306,331.619 146.354,331.7 146.318,331.832 L146.318,331.832 L146.678,331.832 L146.678,329.924 L146.354,329.924 C146.354,330.056 146.306,330.137 146.21,330.167 C146.114,330.197 145.964,330.212 145.76,330.212 L145.76,330.212 L142.988,330.212 L142.988,328.412 L147.38,328.412 C147.752,328.412 147.938,328.526 147.938,328.754 L147.938,328.754 L148.262,328.754 L148.262,326.756 L147.938,326.756 C147.938,326.972 147.752,327.08 147.38,327.08 L147.38,327.08 L140.99,327.08 L140.99,327.404 C141.05,327.404 141.11,327.425 141.17,327.467 C141.23,327.509 141.26,327.578 141.26,327.674 L141.26,327.674 L141.26,334.406 C141.26,334.502 141.23,334.571 141.17,334.613 C141.11,334.655 141.05,334.676 140.99,334.676 L140.99,334.676 L140.99,335 L147.596,335 C147.74,335 147.86,335.006 147.956,335.018 C148.052,335.03 148.1,335.09 148.1,335.198 L148.1,335.198 L148.424,335.198 Z M158.774,335 L158.774,334.676 C158.522,334.676 158.396,334.586 158.396,334.406 L158.396,334.406 L158.396,331.706 L161.456,331.706 C162.428,331.706 163.157,331.541 163.643,331.211 C164.129,330.881 164.372,330.284 164.372,329.42 C164.372,328.556 164.129,327.95 163.643,327.602 C163.157,327.254 162.428,327.08 161.456,327.08 L161.456,327.08 L156.218,327.08 L156.218,327.404 C156.518,327.404 156.668,327.494 156.668,327.674 L156.668,327.674 L156.668,334.406 C156.668,334.586 156.518,334.676 156.218,334.676 L156.218,334.676 L156.218,335 L158.774,335 Z M161.42,330.374 L158.396,330.374 L158.396,328.412 L161.42,328.412 C161.768,328.412 162.059,328.487 162.293,328.637 C162.527,328.787 162.644,329.048 162.644,329.42 C162.644,329.804 162.527,330.059 162.293,330.185 C162.059,330.311 161.768,330.374 161.42,330.374 L161.42,330.374 Z M169.376,335 L169.376,334.676 C169.04,334.676 168.872,334.586 168.872,334.406 L168.872,334.406 L168.872,327.674 C168.872,327.494 169.04,327.404 169.376,327.404 L169.376,327.404 L169.376,327.08 L166.64,327.08 L166.64,327.404 C166.832,327.404 166.964,327.425 167.036,327.467 C167.108,327.509 167.144,327.578 167.144,327.674 L167.144,327.674 L167.144,334.406 C167.144,334.502 167.108,334.571 167.036,334.613 C166.964,334.655 166.832,334.676 166.64,334.676 L166.64,334.676 L166.64,335 L169.376,335 Z M180.266,335.18 L180.266,333.29 L179.942,333.29 C179.942,333.41 179.894,333.503 179.798,333.569 C179.702,333.635 179.582,333.668 179.438,333.668 L179.438,333.668 L174.578,333.668 L174.578,327.674 C174.578,327.494 174.716,327.404 174.992,327.404 L174.992,327.404 L174.992,327.08 L172.382,327.08 L172.382,327.404 C172.694,327.404 172.85,327.494 172.85,327.674 L172.85,327.674 L172.85,334.406 C172.85,334.586 172.694,334.676 172.382,334.676 L172.382,334.676 L172.382,335 L179.438,335 C179.582,335 179.702,335.006 179.798,335.018 C179.894,335.03 179.942,335.084 179.942,335.18 L179.942,335.18 L180.266,335.18 Z M189.932,335.198 L189.932,333.308 L189.608,333.308 C189.608,333.416 189.56,333.503 189.464,333.569 C189.368,333.635 189.248,333.668 189.104,333.668 L189.104,333.668 L184.496,333.668 L184.496,331.544 L187.124,331.544 C187.364,331.544 187.55,331.559 187.682,331.589 C187.814,331.619 187.862,331.7 187.826,331.832 L187.826,331.832 L188.186,331.832 L188.186,329.924 L187.862,329.924 C187.862,330.056 187.814,330.137 187.718,330.167 C187.622,330.197 187.472,330.212 187.268,330.212 L187.268,330.212 L184.496,330.212 L184.496,328.412 L188.888,328.412 C189.26,328.412 189.446,328.526 189.446,328.754 L189.446,328.754 L189.77,328.754 L189.77,326.756 L189.446,326.756 C189.446,326.972 189.26,327.08 188.888,327.08 L188.888,327.08 L182.498,327.08 L182.498,327.404 C182.558,327.404 182.618,327.425 182.678,327.467 C182.738,327.509 182.768,327.578 182.768,327.674 L182.768,327.674 L182.768,334.406 C182.768,334.502 182.738,334.571 182.678,334.613 C182.618,334.655 182.558,334.676 182.498,334.676 L182.498,334.676 L182.498,335 L189.104,335 C189.248,335 189.368,335.006 189.464,335.018 C189.56,335.03 189.608,335.09 189.608,335.198 L189.608,335.198 L189.932,335.198 Z M193.766,335.054 C194.114,335.054 194.414,334.937 194.666,334.703 C194.918,334.469 195.044,334.178 195.044,333.83 C195.044,333.482 194.918,333.182 194.666,332.93 C194.414,332.678 194.114,332.552 193.766,332.552 C193.418,332.552 193.118,332.678 192.866,332.93 C192.614,333.182 192.488,333.482 192.488,333.83 C192.488,334.178 192.614,334.469 192.866,334.703 C193.118,334.937 193.418,335.054 193.766,335.054 Z" id="Yourdogcoughedonyou.Addthistoyourexposurepile." fill="#000000" fill-rule="nonzero"></path>
        <rect id="Rectangle" stroke="#000000" stroke-width="3" x="17.5" y="263.5" width="225" height="78" rx="8"></rect>
        <g id="Virus" transform="translate(226.000000, 16.000000)" fill="#000000">
            <ellipse id="Oval" cx="8.94043711" cy="9.06976744" rx="7.61538462" ry="7.6744186"></ellipse>
            <path d="M8.52612584,0 L9.49320992,0 C9.57027291,9.68660612e-17 9.6327448,0.0624718954 9.6327448,0.139534884 C9.6327448,0.225095212 9.58454345,0.303357268 9.5081348,0.341857753 L9.35582173,0.418604651 L9.35582173,0.418604651 L9.35582173,0.862664713 C9.35582173,1.11449829 9.45536044,1.35612428 9.6327448,1.53488372 L9.6327448,1.53488372 L9.6327448,1.53488372 L8.38659096,1.53488372 C8.56397532,1.35612428 8.66351403,1.11449829 8.66351403,0.862664713 L8.66351403,0.418604651 L8.66351403,0.418604651 L8.51120096,0.341857753 C8.4347923,0.303357268 8.38659096,0.225095212 8.38659096,0.139534884 C8.38659096,0.0624718954 8.44906285,1.41562413e-17 8.52612584,0 Z" id="Rectangle"></path>
            <path d="M10.4794195,0.238688571 L11.4471946,0.240448791 C11.5243045,0.240589041 11.5867793,0.303064583 11.5869186,0.380174532 C11.587073,0.465649929 11.5389142,0.543874116 11.4625255,0.582225681 L11.3103738,0.658614757 L11.3103738,0.658614757 L11.311174,1.10158657 C11.3116298,1.35391217 11.4116249,1.59586764 11.5894381,1.77489518 L11.5894381,1.77489518 L11.5894381,1.77489518 L10.3427189,1.77262761 C10.5198182,1.59431449 10.6190088,1.35306764 10.6185548,1.10175205 L10.617752,0.657354994 L10.617752,0.657354994 L10.4649601,0.580228647 C10.3885815,0.541674188 10.3403539,0.463464673 10.3401994,0.377906959 C10.3400607,0.301157411 10.4021661,0.238827214 10.4789157,0.238688568 C10.4790836,0.238688264 10.4792515,0.238688265 10.4794195,0.238688571 Z" id="Rectangle" transform="translate(10.964693, 1.006665) rotate(14.000000) translate(-10.964693, -1.006665) "></path>
            <path d="M12.3188085,0.942735758 L13.2884948,0.945846359 C13.365571,0.946093608 13.4279919,1.00851536 13.4282381,1.08559152 C13.4285106,1.17091434 13.3804009,1.24901916 13.3040781,1.28716207 L13.1517317,1.36329831 L13.1517317,1.36329831 L13.1531415,1.80468455 C13.1539485,2.05736175 13.2544015,2.29951988 13.4326873,2.47857467 L13.4326873,2.47857467 L13.4326873,2.47857467 L12.1844043,2.47457037 C12.3614288,2.2967774 12.4604603,2.0558699 12.459659,1.80497678 L12.4582411,1.3610737 L12.4582411,1.3610737 L12.3047651,1.28363545 C12.2284592,1.24513442 12.1802281,1.16705554 12.1799551,1.08158723 C12.1797109,1.00514583 12.241481,0.942979907 12.3179224,0.942735751 C12.3182178,0.942734808 12.3185131,0.94273481 12.3188085,0.942735758 Z" id="Rectangle" transform="translate(12.806099, 1.710432) rotate(28.000000) translate(-12.806099, -1.710432) "></path>
            <path d="M13.9377492,2.07117542 L14.9101196,2.07491068 C14.9870893,2.07520636 15.0494122,2.13752944 15.0497076,2.21449916 C15.0500344,2.29963766 15.0019694,2.37756963 14.9257431,2.41549357 L14.7728909,2.49154031 L14.7728909,2.49154031 L14.7745785,2.9312131 C14.7755488,3.18402021 14.8763539,3.42620745 15.0550449,3.60504224 L15.0550449,3.60504224 L15.0550449,3.60504224 L13.8045659,3.60023865 C13.9817431,3.42291789 14.0808416,3.1822297 14.0798795,2.93156366 L14.0781803,2.48887164 L14.0781803,2.48887164 L13.9239739,2.41126287 C13.847767,2.37290961 13.7995561,2.2950088 13.7992286,2.20969556 C13.7989361,2.13348551 13.8604794,2.07146793 13.9366894,2.07117541 C13.9370427,2.07117406 13.9373959,2.07117406 13.9377492,2.07117542 Z" id="Rectangle" transform="translate(14.426870, 2.837842) rotate(42.000000) translate(-14.426870, -2.837842) "></path>
            <path d="M15.242536,3.55812692 L16.2175426,3.56165973 C16.2943702,3.56193811 16.3565824,3.62414975 16.3568616,3.70097737 C16.3571703,3.78595416 16.3091337,3.86371306 16.2330049,3.90146961 L16.0795066,3.97759807 L16.0795066,3.97759807 L16.081099,4.41591557 C16.0820171,4.6686177 16.1829811,4.91067065 16.3619046,5.08912395 L16.3619046,5.08912395 L16.3619046,5.08912395 L15.1092688,5.08458518 C15.286761,4.90756279 15.3861113,4.66692508 15.3852006,4.41624681 L15.3835978,3.97507653 L15.3835978,3.97507653 L15.228821,3.89747204 C15.1527097,3.8593101 15.104535,3.78158069 15.1042257,3.6964386 C15.1039492,3.62032768 15.1654251,3.55840343 15.241536,3.55812692 C15.2418694,3.55812571 15.2422027,3.55812571 15.242536,3.55812692 Z" id="Rectangle" transform="translate(15.732813, 4.323374) rotate(55.000000) translate(-15.732813, -4.323374) "></path>
            <path d="M16.157369,5.31713911 L17.1347435,5.31965695 C17.2114054,5.31985444 17.2735034,5.38195149 17.273702,5.45861338 C17.2739219,5.54346461 17.2258951,5.62106465 17.1498561,5.65871917 L16.9956262,5.73509395 L16.9956262,5.73509395 L16.9967595,6.17252796 C16.9974134,6.42489848 17.0983296,6.66666518 17.2772931,6.84460724 L17.2772931,6.84460724 L17.2772931,6.84460724 L16.0227197,6.8413753 C16.2006635,6.66445237 16.3004298,6.42369268 16.2997796,6.17276382 L16.298641,5.73329843 L16.298641,5.73329843 L16.1435013,5.65587251 C16.0674742,5.6179295 16.0193489,5.5403505 16.0191287,5.45538145 C16.0189314,5.37922962 16.0805047,5.31733642 16.1566565,5.31713912 C16.156894,5.3171385 16.1571315,5.3171385 16.157369,5.31713911 Z" id="Rectangle" transform="translate(16.648031, 6.080695) rotate(69.000000) translate(-16.648031, -6.080695) "></path>
            <path d="M16.6292639,7.24559325 L17.6079794,7.24650402 C17.6845002,7.24657522 17.746515,7.30858955 17.7465868,7.38511036 C17.7466663,7.46991473 17.6986249,7.54742052 17.6226393,7.58507653 L17.4678085,7.66180565 L17.4678085,7.66180565 L17.4682186,8.09915442 C17.4684547,8.35104232 17.569108,8.59244132 17.7478851,8.76988516 L17.7478851,8.76988516 L17.7478851,8.76988516 L16.4922146,8.76871666 C16.6706229,8.59164133 16.7708602,8.35060625 16.7706246,8.09923969 L16.7702138,7.66115649 L16.7702138,7.66115649 L16.6150543,7.58404731 C16.5390728,7.54628704 16.4909958,7.46878886 16.4909163,7.38394186 C16.4908447,7.3076056 16.5526694,7.24566482 16.6290057,7.24559325 C16.6290918,7.24559317 16.6291778,7.24559317 16.6292639,7.24559325 Z" id="Rectangle" transform="translate(17.119336, 8.007675) rotate(83.000000) translate(-17.119336, -8.007675) "></path>
            <path d="M16.6306921,9.23115447 L17.6094076,9.2302437 C17.6857439,9.23017267 17.7476842,9.29199785 17.7477552,9.36833411 C17.7477553,9.36842018 17.7477553,9.36850625 17.7477552,9.36859232 C17.7476757,9.45343931 17.6995987,9.53093749 17.6236173,9.56869776 L17.4684577,9.64580695 L17.4684577,9.64580695 L17.468047,10.0838901 C17.4678113,10.3352567 17.5680486,10.5762918 17.7464569,10.7533671 L17.7464569,10.7533671 L17.7464569,10.7533671 L16.4907864,10.7545356 C16.6695635,10.5770918 16.7702168,10.3356928 16.7704529,10.0838049 L16.770863,9.64645611 L16.770863,9.64645611 L16.6160322,9.56972698 C16.5400466,9.53207097 16.4920053,9.45456518 16.4920848,9.36976082 C16.4921565,9.29324 16.5541713,9.23122568 16.6306921,9.23115447 Z" id="Rectangle" transform="translate(17.119336, 9.992325) rotate(97.000000) translate(-17.119336, -9.992325) "></path>
            <path d="M16.1613191,11.1582676 L17.1386937,11.1557498 C17.2148455,11.1555536 17.2767378,11.2171279 17.276934,11.2932797 C17.2769346,11.2935172 17.2769346,11.2937547 17.276934,11.2939921 C17.2767138,11.3789612 17.2285885,11.4565402 17.1525614,11.4944832 L16.9974217,11.5719091 L16.9974217,11.5719091 L16.9962831,12.0113745 C16.9956329,12.2623034 17.0953991,12.5030631 17.2733429,12.679986 L17.2733429,12.679986 L17.2733429,12.679986 L16.0187696,12.6832179 C16.1977331,12.5052759 16.2986493,12.2635092 16.2993031,12.0111387 L16.3004365,11.5737046 L16.3004365,11.5737046 L16.1462065,11.4973299 C16.0701676,11.4596753 16.0221408,11.3820753 16.0223606,11.2972241 C16.0225593,11.2205622 16.0846572,11.1584651 16.1613191,11.1582676 Z" id="Rectangle" transform="translate(16.648031, 11.919305) rotate(111.000000) translate(-16.648031, -11.919305) "></path>
            <path d="M15.2480834,12.9149118 L16.22309,12.911379 C16.2992009,12.9111033 16.3611245,12.9725798 16.3614003,13.0486907 C16.3614015,13.049024 16.3614015,13.0493574 16.3614003,13.0496907 C16.361091,13.1348328 16.3129163,13.2125622 16.236805,13.2507241 L16.0820282,13.3283286 L16.0820282,13.3283286 L16.0804254,13.7694989 C16.0795147,14.0201772 16.178865,14.2608149 16.3563572,14.4378373 L16.3563572,14.4378373 L16.3563572,14.4378373 L15.1037214,14.4423761 C15.2826449,14.2639228 15.3836089,14.0218698 15.384527,13.7691677 L15.3861194,13.3308502 L15.3861194,13.3308502 L15.2326211,13.2547217 C15.1564923,13.2169652 15.1084557,13.1392063 15.1087644,13.0542295 C15.1090436,12.9774019 15.1712558,12.9151902 15.2480834,12.9149118 Z" id="Rectangle" transform="translate(15.732813, 13.676626) rotate(125.000000) translate(-15.732813, -13.676626) "></path>
            <path d="M13.9436202,14.3992272 L14.9159906,14.3954919 C14.9922007,14.3951992 15.0542185,14.4567423 15.0545112,14.5329523 C15.0545126,14.5333056 15.0545126,14.5336588 15.0545112,14.5340121 C15.0541838,14.6193253 15.0059728,14.6972261 14.9297659,14.7355794 L14.7755595,14.8131881 L14.7755595,14.8131881 L14.7738603,15.2558802 C14.7728982,15.5065462 14.8719968,15.7472344 15.0491739,15.9245552 L15.0491739,15.9245552 L15.0491739,15.9245552 L13.7986949,15.9293587 C13.9773859,15.750524 14.078191,15.5083367 14.0791614,15.2555296 L14.080849,14.8158568 L14.080849,14.8158568 L13.9279967,14.7398101 C13.8517704,14.7018861 13.8037054,14.6239542 13.8040322,14.5388157 C13.8043276,14.4618459 13.8666505,14.3995229 13.9436202,14.3992272 Z" id="Rectangle" transform="translate(14.426870, 15.162158) rotate(138.000000) translate(-14.426870, -15.162158) "></path>
            <path d="M12.3237026,15.5249828 L13.293389,15.5218722 C13.3698304,15.521627 13.4319971,15.5833962 13.4322423,15.6598376 C13.4322433,15.6601329 13.4322433,15.6604283 13.4322423,15.6607236 C13.4319694,15.746192 13.3837382,15.8242708 13.3074324,15.8627719 L13.1539563,15.9402101 L13.1539563,15.9402101 L13.1525385,16.3841132 C13.1517371,16.6350063 13.2507687,16.8759138 13.4277931,17.0537068 L13.4277931,17.0537068 L13.4277931,17.0537068 L12.1795102,17.0577111 C12.3577959,16.8786563 12.4582489,16.6364982 12.459056,16.383821 L12.4604658,15.9424347 L12.4604658,15.9424347 L12.3081194,15.8662985 C12.2317965,15.8281556 12.1836869,15.7500508 12.1839594,15.6647279 C12.1842056,15.5876518 12.2466264,15.52523 12.3237026,15.5249828 Z" id="Rectangle" transform="translate(12.806099, 16.289568) rotate(152.000000) translate(-12.806099, -16.289568) "></path>
            <path d="M10.482191,16.2271187 L11.4499661,16.2253585 C11.5267156,16.2252189 11.5890466,16.2873235 11.5891862,16.3640731 C11.5891865,16.364241 11.5891865,16.364409 11.5891862,16.3645769 C11.5890316,16.4501346 11.5408041,16.5283441 11.4644254,16.5668986 L11.3116335,16.6440249 L11.3116335,16.6440249 L11.3108308,17.088422 C11.3103768,17.3397376 11.4095673,17.5809844 11.5866666,17.7592975 L11.5866666,17.7592975 L11.5866666,17.7592975 L10.3399474,17.7615651 C10.5177607,17.5825376 10.6177557,17.3405821 10.6182115,17.0882565 L10.6190118,16.6452847 L10.6190118,16.6452847 L10.46686,16.5688956 C10.3904714,16.530544 10.3423125,16.4523199 10.3424669,16.3668445 C10.3426062,16.2897345 10.405081,16.227259 10.482191,16.2271187 Z" id="Rectangle" transform="translate(10.964693, 16.993335) rotate(166.000000) translate(-10.964693, -16.993335) "></path>
            <path d="M8.52612584,16.4651163 L9.49320992,16.4651163 C9.57027291,16.4651163 9.6327448,16.5275882 9.6327448,16.6046512 C9.6327448,16.6902115 9.58454345,16.7684735 9.5081348,16.806974 L9.35582173,16.8837209 L9.35582173,16.8837209 L9.35582173,17.327781 C9.35582173,17.5796146 9.45536044,17.8212406 9.6327448,18 L9.6327448,18 L9.6327448,18 L8.38659096,18 C8.56397532,17.8212406 8.66351403,17.5796146 8.66351403,17.327781 L8.66351403,16.8837209 L8.66351403,16.8837209 L8.51120096,16.806974 C8.4347923,16.7684735 8.38659096,16.6902115 8.38659096,16.6046512 C8.38659096,16.5275882 8.44906285,16.4651163 8.52612584,16.4651163 Z" id="Rectangle" transform="translate(9.009668, 17.232558) rotate(180.000000) translate(-9.009668, -17.232558) "></path>
            <path d="M6.56936971,16.2253585 L7.5371448,16.2271187 C7.61425475,16.227259 7.67672952,16.2897345 7.67686881,16.3668445 C7.67702322,16.4523199 7.6288644,16.530544 7.55247575,16.5688956 L7.400324,16.6452847 L7.400324,16.6452847 L7.40112422,17.0882565 C7.40158004,17.3405821 7.50157508,17.5825376 7.67938834,17.7615651 L7.67938834,17.7615651 L7.67938834,17.7615651 L6.43266912,17.7592975 C6.60976842,17.5809844 6.708959,17.3397376 6.70850501,17.088422 L6.70770222,16.6440249 L6.70770222,16.6440249 L6.55491037,16.5668986 C6.4785317,16.5283441 6.43030415,16.4501346 6.4301496,16.3645769 C6.43001095,16.2878273 6.49211636,16.2254971 6.56886591,16.2253585 C6.56903384,16.2253582 6.56920177,16.2253582 6.56936971,16.2253585 Z" id="Rectangle" transform="translate(7.054643, 16.993335) rotate(194.000000) translate(-7.054643, -16.993335) "></path>
            <path d="M4.7259468,15.5218722 L5.69563315,15.5249828 C5.77270931,15.52523 5.8351302,15.5876518 5.83537638,15.6647279 C5.8356489,15.7500508 5.78753922,15.8281556 5.71121638,15.8662985 L5.55887001,15.9424347 L5.55887001,15.9424347 L5.5602798,16.383821 C5.56108686,16.6364982 5.66153986,16.8786563 5.8398256,17.0577111 L5.8398256,17.0577111 L5.8398256,17.0577111 L4.59154263,17.0537068 C4.76856708,16.8759138 4.86759866,16.6350063 4.86679731,16.3841132 L4.86537947,15.9402101 L4.86537947,15.9402101 L4.71190339,15.8627719 C4.63559757,15.8242708 4.5873664,15.746192 4.58709341,15.6607236 C4.58684926,15.5842823 4.64861932,15.5221163 4.72506072,15.5218722 C4.72535608,15.5218712 4.72565144,15.5218712 4.7259468,15.5218722 Z" id="Rectangle" transform="translate(5.213237, 16.289568) rotate(208.000000) translate(-5.213237, -16.289568) "></path>
            <path d="M3.10334512,14.3954919 L4.07571553,14.3992272 C4.15268524,14.3995229 4.21500814,14.4618459 4.21530357,14.5388157 C4.21563036,14.6239542 4.16756535,14.7018861 4.09133907,14.7398101 L3.93848681,14.8158568 L3.93848681,14.8158568 L3.94017441,15.2555296 C3.94114476,15.5083367 4.04194984,15.750524 4.2206409,15.9293587 L4.2206409,15.9293587 L4.2206409,15.9293587 L2.97016187,15.9245552 C3.14733901,15.7472344 3.24643756,15.5065462 3.24547543,15.2558802 L3.24377624,14.8131881 L3.24377624,14.8131881 L3.08956983,14.7355794 C3.01336299,14.6972261 2.96515201,14.6193253 2.96482455,14.5340121 C2.96453203,14.457802 3.02607535,14.3957844 3.1022854,14.3954919 C3.10263864,14.3954906 3.10299188,14.3954906 3.10334512,14.3954919 Z" id="Rectangle" transform="translate(3.592466, 15.162158) rotate(222.000000) translate(-3.592466, -15.162158) "></path>
            <path d="M1.79624579,12.911379 L2.77125234,12.9149118 C2.84807996,12.9151902 2.9102922,12.9774019 2.91057131,13.0542295 C2.91088003,13.1392063 2.86284349,13.2169652 2.7867147,13.2547217 L2.6332164,13.3308502 L2.6332164,13.3308502 L2.63480879,13.7691677 C2.63572684,14.0218698 2.73669086,14.2639228 2.91561439,14.4423761 L2.91561439,14.4423761 L2.91561439,14.4423761 L1.66297851,14.4378373 C1.84047076,14.2608149 1.93982104,14.0201772 1.93891033,13.7694989 L1.93730758,13.3283286 L1.93730758,13.3283286 L1.78253079,13.2507241 C1.70641945,13.2125622 1.65824476,13.1348328 1.65793544,13.0496907 C1.65765893,12.9735798 1.71913487,12.9116555 1.79524579,12.911379 C1.79557913,12.9113778 1.79591246,12.9113778 1.79624579,12.911379 Z" id="Rectangle" transform="translate(2.286523, 13.676626) rotate(235.000000) translate(-2.286523, -13.676626) "></path>
            <path d="M0.880642074,11.1557498 L1.85801662,11.1582676 C1.93467852,11.1584651 1.99677649,11.2205622 1.99697512,11.2972241 C1.99719496,11.3820753 1.94916813,11.4596753 1.87312922,11.4973299 L1.71889925,11.5737046 L1.71889925,11.5737046 L1.72003262,12.0111387 C1.7206865,12.2635092 1.82160267,12.5052759 2.00056616,12.6832179 L2.00056616,12.6832179 L2.00056616,12.6832179 L0.745992828,12.679986 C0.923936612,12.5030631 1.02370285,12.2623034 1.0230527,12.0113745 L1.02191407,11.5719091 L1.02191407,11.5719091 L0.866774355,11.4944832 C0.790747277,11.4565402 0.742621937,11.3789612 0.742401787,11.2939921 C0.742204481,11.2178403 0.803777785,11.1559471 0.879929611,11.1557498 C0.880167098,11.1557492 0.880404586,11.1557492 0.880642074,11.1557498 Z" id="Rectangle" transform="translate(1.371304, 11.919305) rotate(249.000000) translate(-1.371304, -11.919305) "></path>
            <path d="M0.40992816,9.2302437 L1.38864368,9.23115447 C1.46516449,9.23122568 1.52717925,9.29324 1.52725099,9.36976082 C1.5273305,9.45456518 1.47928915,9.53207097 1.40330355,9.56972698 L1.24847277,9.64645611 L1.24847277,9.64645611 L1.24888282,10.0838049 C1.24911898,10.3356928 1.34977221,10.5770918 1.52854932,10.7545356 L1.52854932,10.7545356 L1.52854932,10.7545356 L0.272878841,10.7533671 C0.451287169,10.5762918 0.551524472,10.3352567 0.551288798,10.0838901 L0.550878062,9.64580695 L0.550878062,9.64580695 L0.395718503,9.56869776 C0.319737058,9.53093749 0.271660062,9.45343931 0.271580512,9.36859232 C0.271508941,9.29225606 0.333333687,9.23031528 0.409669946,9.23024371 C0.409756017,9.23024362 0.409842089,9.23024362 0.40992816,9.2302437 Z" id="Rectangle" transform="translate(0.900000, 9.992325) rotate(263.000000) translate(-0.900000, -9.992325) "></path>
            <path d="M0.411356321,7.24650402 L1.39007184,7.24559325 C1.4664081,7.24552221 1.52834845,7.30734739 1.52841949,7.38368365 C1.52841957,7.38376972 1.52841957,7.38385579 1.52841949,7.38394186 C1.52833994,7.46878886 1.48026294,7.54628704 1.4042815,7.58404731 L1.24912194,7.66115649 L1.24912194,7.66115649 L1.2487112,8.09923969 C1.24847553,8.35060625 1.34871283,8.59164133 1.52712116,8.76871666 L1.52712116,8.76871666 L1.52712116,8.76871666 L0.271450679,8.76988516 C0.450227786,8.59244132 0.550881016,8.35104232 0.55111718,8.09915442 L0.551527227,7.66180565 L0.551527227,7.66180565 L0.396696452,7.58507653 C0.320710847,7.54742052 0.272669497,7.46991473 0.272749008,7.38511036 C0.272820752,7.30858955 0.334835509,7.24657522 0.411356321,7.24650402 Z" id="Rectangle" transform="translate(0.900000, 8.007675) rotate(277.000000) translate(-0.900000, -8.007675) "></path>
            <path d="M0.884592218,5.31965695 L1.86196677,5.31713911 C1.93811859,5.31694293 2.00001088,5.37851716 2.00020706,5.45466898 C2.00020767,5.45490647 2.00020767,5.45514396 2.00020705,5.45538145 C1.9999869,5.5403505 1.95186156,5.6179295 1.87583448,5.65587251 L1.72069477,5.73329843 L1.72069477,5.73329843 L1.71955614,6.17276382 C1.71890599,6.42369268 1.81867223,6.66445237 1.99661601,6.8413753 L1.99661601,6.8413753 L1.99661601,6.8413753 L0.742042683,6.84460724 C0.92100617,6.66666518 1.02192234,6.42489848 1.02257622,6.17252796 L1.02370959,5.73509395 L1.02370959,5.73509395 L0.869479619,5.65871917 C0.793440705,5.62106465 0.745413878,5.54346461 0.745633723,5.45861338 C0.745832351,5.38195149 0.807930317,5.31985444 0.884592218,5.31965695 Z" id="Rectangle" transform="translate(1.371304, 6.080695) rotate(291.000000) translate(-1.371304, -6.080695) "></path>
            <path d="M1.80179317,3.56165973 L2.77679972,3.55812692 C2.85291065,3.55785114 2.91483431,3.61932767 2.91511008,3.6954386 C2.91511129,3.69577193 2.91511129,3.69610527 2.91511008,3.6964386 C2.91480076,3.78158069 2.86662607,3.8593101 2.79051473,3.89747204 L2.63573794,3.97507653 L2.63573794,3.97507653 L2.63413519,4.41624681 C2.63322448,4.66692508 2.73257476,4.90756279 2.91006701,5.08458518 L2.91006701,5.08458518 L2.91006701,5.08458518 L1.65743113,5.08912395 C1.83635466,4.91067065 1.93731867,4.6686177 1.93823673,4.41591557 L1.93982912,3.97759807 L1.93982912,3.97759807 L1.78633082,3.90146961 C1.71020203,3.86371306 1.66216549,3.78595416 1.6624742,3.70097737 C1.66275332,3.62414975 1.72496555,3.56193811 1.80179317,3.56165973 Z" id="Rectangle" transform="translate(2.286523, 4.323374) rotate(305.000000) translate(-2.286523, -4.323374) "></path>
            <path d="M3.10921618,2.07491068 L4.08158659,2.07117542 C4.15779664,2.07088266 4.21981441,2.13242579 4.22010716,2.20863584 C4.22010852,2.20898908 4.22010852,2.20934232 4.22010716,2.20969556 C4.21977971,2.2950088 4.17156872,2.37290961 4.09536188,2.41126287 L3.94115547,2.48887164 L3.94115547,2.48887164 L3.93945628,2.93156366 C3.93849415,3.1822297 4.0375927,3.42291789 4.21476984,3.60023865 L4.21476984,3.60023865 L4.21476984,3.60023865 L2.96429082,3.60504224 C3.14298187,3.42620745 3.24378696,3.18402021 3.24475731,2.9312131 L3.2464449,2.49154031 L3.2464449,2.49154031 L3.09359264,2.41549357 C3.01736636,2.37756963 2.96930135,2.29963766 2.96962814,2.21449916 C2.96992358,2.13752944 3.03224647,2.07520636 3.10921618,2.07491068 Z" id="Rectangle" transform="translate(3.592466, 2.837842) rotate(318.000000) translate(-3.592466, -2.837842) "></path>
            <path d="M4.73084094,0.945846359 L5.70052729,0.942735758 C5.77696868,0.942490546 5.83913546,1.00425975 5.83938067,1.08070115 C5.83938162,1.08099651 5.83938162,1.08129187 5.83938067,1.08158723 C5.83910769,1.16705554 5.79087651,1.24513442 5.7145707,1.28363545 L5.56109462,1.3610737 L5.56109462,1.3610737 L5.55967678,1.80497678 C5.55887542,2.0558699 5.65790701,2.2967774 5.83493146,2.47457037 L5.83493146,2.47457037 L5.83493146,2.47457037 L4.58664849,2.47857467 C4.76493422,2.29951988 4.86538723,2.05736175 4.86619428,1.80468455 L4.86760408,1.36329831 L4.86760408,1.36329831 L4.71525771,1.28716207 C4.63893486,1.24901916 4.59082518,1.17091434 4.59109771,1.08559152 C4.59134389,1.00851536 4.65376477,0.946093608 4.73084094,0.945846359 Z" id="Rectangle" transform="translate(5.213237, 1.710432) rotate(332.000000) translate(-5.213237, -1.710432) "></path>
            <path d="M6.57214118,0.240448791 L7.53991628,0.238688571 C7.61666582,0.238548976 7.67899679,0.300653613 7.67913638,0.37740316 C7.67913669,0.377571093 7.67913669,0.377739027 7.67913639,0.377906959 C7.67898183,0.463464673 7.63075428,0.541674188 7.55437562,0.580228647 L7.40158377,0.657354994 L7.40158377,0.657354994 L7.40078097,1.10175205 C7.40032698,1.35306764 7.49951756,1.59431449 7.67661686,1.77262761 L7.67661686,1.77262761 L7.67661686,1.77262761 L6.42989764,1.77489518 C6.6077109,1.59586764 6.70770594,1.35391217 6.70816176,1.10158657 L6.70896198,0.658614757 L6.70896198,0.658614757 L6.55681023,0.582225681 C6.48042158,0.543874116 6.43226276,0.465649929 6.43241717,0.380174532 C6.43255647,0.303064583 6.49503124,0.240589041 6.57214118,0.240448791 Z" id="Rectangle" transform="translate(7.054643, 1.006665) rotate(346.000000) translate(-7.054643, -1.006665) "></path>
        </g>
        <path d="M216.624,31 L216.624,30.712 C216.464,30.712 216.32,30.668 216.192,30.58 C216.064,30.492 216,30.312 216,30.04 L216,30.04 L216,19.048 C216,18.888 216.064,18.768 216.192,18.688 C216.32,18.608 216.48,18.552 216.672,18.52 L216.672,18.52 L216.672,18.232 L212.784,18.232 L212.784,18.52 C212.96,18.552 213.1,18.6 213.204,18.664 C213.308,18.728 213.36,18.872 213.36,19.096 C213.36,19.336 213.268,19.54 213.084,19.708 C212.9,19.876 212.672,19.96 212.4,19.96 C212.272,19.96 212.136,19.932 211.992,19.876 C211.848,19.82 211.776,19.72 211.776,19.576 L211.776,19.576 L211.488,19.576 L211.488,22.6 L211.776,22.6 C211.824,22.472 211.908,22.372 212.028,22.3 C212.148,22.228 212.28,22.172 212.424,22.132 C212.568,22.092 212.716,22.064 212.868,22.048 C213.02,22.032 213.152,22.024 213.264,22.024 L213.264,22.024 L213.264,30.04 C213.264,30.312 213.204,30.492 213.084,30.58 C212.964,30.668 212.824,30.712 212.664,30.712 L212.664,30.712 L212.664,31 L216.624,31 Z" id="1" fill="#000000" fill-rule="nonzero"></path>
        <path d="M59.126,61 C60.446,61 61.676,60.808 62.816,60.424 C63.956,60.04 64.946,59.458 65.786,58.678 C66.626,57.898 67.286,56.914 67.766,55.726 C68.246,54.538 68.486,53.14 68.486,51.532 C68.486,49.924 68.246,48.526 67.766,47.338 C67.286,46.15 66.626,45.166 65.786,44.386 C64.946,43.606 63.956,43.024 62.816,42.64 C61.676,42.256 60.446,42.064 59.126,42.064 L59.126,42.064 L47.174,42.064 L47.174,42.712 C47.726,42.712 48.002,42.928 48.002,43.36 L48.002,43.36 L48.002,59.704 C48.002,60.136 47.726,60.352 47.174,60.352 L47.174,60.352 L47.174,61 L59.126,61 Z M57.686,57.904 L52.106,57.904 L52.106,45.16 L57.686,45.16 C58.814,45.16 59.798,45.256 60.638,45.448 C61.478,45.64 62.174,45.982 62.726,46.474 C63.278,46.966 63.692,47.62 63.968,48.436 C64.244,49.252 64.382,50.284 64.382,51.532 C64.382,52.78 64.244,53.812 63.968,54.628 C63.692,55.444 63.278,56.098 62.726,56.59 C62.174,57.082 61.478,57.424 60.638,57.616 C59.798,57.808 58.814,57.904 57.686,57.904 L57.686,57.904 Z M75.866,61 L75.866,60.352 C75.65,60.352 75.482,60.328 75.362,60.28 C75.242,60.232 75.182,60.112 75.182,59.92 C75.182,59.8 75.212,59.662 75.272,59.506 C75.332,59.35 75.41,59.176 75.506,58.984 L75.506,58.984 L76.514,57.04 L84.218,57.04 L85.19,59.092 C85.262,59.284 85.322,59.44 85.37,59.56 C85.418,59.68 85.442,59.812 85.442,59.956 C85.442,60.148 85.376,60.28 85.244,60.352 C85.112,60.424 84.986,60.46 84.866,60.46 L84.866,60.46 L84.866,61 L89.978,61 L89.978,60.352 C89.81,60.304 89.654,60.232 89.51,60.136 C89.366,60.04 89.234,59.884 89.114,59.668 L89.114,59.668 L83.282,47.428 C83.162,47.164 83.048,46.93 82.94,46.726 C82.832,46.522 82.778,46.348 82.778,46.204 C82.778,46.036 82.82,45.94 82.904,45.916 C82.988,45.892 83.066,45.856 83.138,45.808 L83.138,45.808 L83.138,45.16 L77.702,45.16 L77.702,45.808 C77.774,45.856 77.84,45.898 77.9,45.934 C77.96,45.97 77.99,46.06 77.99,46.204 C77.99,46.396 77.948,46.594 77.864,46.798 C77.78,47.002 77.666,47.272 77.522,47.608 L77.522,47.608 L72.158,59.308 C72.062,59.5 71.924,59.71 71.744,59.938 C71.564,60.166 71.33,60.304 71.042,60.352 L71.042,60.352 L71.042,61 L75.866,61 Z M83.066,54.376 L77.594,54.376 L80.15,48.328 L83.066,54.376 Z M97.862,61 L97.862,60.352 C97.358,60.352 97.106,60.172 97.106,59.812 L97.106,59.812 L97.106,49.336 L106.034,58.84 C106.322,59.152 106.58,59.428 106.808,59.668 C107.036,59.908 107.15,60.076 107.15,60.172 C107.15,60.292 107.066,60.352 106.898,60.352 L106.898,60.352 L106.898,61 L111.578,61 L111.578,60.352 C111.146,60.352 110.93,60.172 110.93,59.812 L110.93,59.812 L110.93,46.348 C110.93,45.988 111.146,45.808 111.578,45.808 L111.578,45.808 L111.578,45.16 L107.186,45.16 L107.186,45.808 C107.666,45.808 107.906,45.988 107.906,46.348 L107.906,46.348 L107.906,56.104 L99.266,46.96 C98.738,46.432 98.474,46.108 98.474,45.988 C98.474,45.892 98.558,45.832 98.726,45.808 L98.726,45.808 L98.726,45.16 L93.434,45.16 L93.434,45.808 C93.866,45.808 94.082,45.988 94.082,46.348 L94.082,46.348 L94.082,59.812 C94.082,60.172 93.866,60.352 93.434,60.352 L93.434,60.352 L93.434,61 L97.862,61 Z M125.906,61.108 C127.058,61.108 128.102,61.03 129.038,60.874 C129.974,60.718 130.796,60.52 131.504,60.28 C132.212,60.04 132.8,59.794 133.268,59.542 C133.736,59.29 134.078,59.092 134.294,58.948 L134.294,58.948 L134.294,58.516 C134.054,58.42 133.904,58.33 133.844,58.246 C133.784,58.162 133.754,58.012 133.754,57.796 L133.754,57.796 L133.754,54.376 C133.754,54.136 133.79,53.956 133.862,53.836 C133.934,53.716 134.078,53.608 134.294,53.512 L134.294,53.512 L134.294,52.864 L127.238,52.864 C126.974,52.864 126.746,52.828 126.554,52.756 C126.362,52.684 126.242,52.528 126.194,52.288 L126.194,52.288 L125.546,52.288 L125.546,55.996 L126.194,55.996 C126.242,55.708 126.362,55.51 126.554,55.402 C126.746,55.294 126.974,55.24 127.238,55.24 L127.238,55.24 L130.946,55.24 L130.946,57.508 C130.178,57.916 129.332,58.192 128.408,58.336 C127.484,58.48 126.506,58.552 125.474,58.552 C124.778,58.552 124.058,58.456 123.314,58.264 C122.57,58.072 121.892,57.766 121.28,57.346 C120.668,56.926 120.17,56.374 119.786,55.69 C119.402,55.006 119.21,54.16 119.21,53.152 C119.21,52.144 119.39,51.292 119.75,50.596 C120.11,49.9 120.59,49.33 121.19,48.886 C121.79,48.442 122.486,48.118 123.278,47.914 C124.07,47.71 124.91,47.608 125.798,47.608 C126.446,47.608 127.088,47.674 127.724,47.806 C128.36,47.938 128.93,48.112 129.434,48.328 C129.938,48.544 130.346,48.778 130.658,49.03 C130.97,49.282 131.126,49.516 131.126,49.732 C131.126,49.756 131.102,49.888 131.054,50.128 L131.054,50.128 L131.486,50.38 L133.574,46.456 L133.142,46.24 C132.998,46.36 132.878,46.438 132.782,46.474 C132.686,46.51 132.542,46.528 132.35,46.528 C132.182,46.528 131.93,46.444 131.594,46.276 C131.258,46.108 130.814,45.928 130.262,45.736 C129.734,45.544 129.11,45.364 128.39,45.196 C127.67,45.028 126.842,44.944 125.906,44.944 C124.346,44.944 122.936,45.13 121.676,45.502 C120.416,45.874 119.348,46.414 118.472,47.122 C117.596,47.83 116.924,48.682 116.456,49.678 C115.988,50.674 115.754,51.808 115.754,53.08 C115.754,54.352 115.988,55.486 116.456,56.482 C116.924,57.478 117.596,58.324 118.472,59.02 C119.348,59.716 120.416,60.238 121.676,60.586 C122.936,60.934 124.346,61.108 125.906,61.108 Z M162.122,61 C163.442,61 164.672,60.808 165.812,60.424 C166.952,60.04 167.942,59.458 168.782,58.678 C169.622,57.898 170.282,56.914 170.762,55.726 C171.242,54.538 171.482,53.14 171.482,51.532 C171.482,49.924 171.242,48.526 170.762,47.338 C170.282,46.15 169.622,45.166 168.782,44.386 C167.942,43.606 166.952,43.024 165.812,42.64 C164.672,42.256 163.442,42.064 162.122,42.064 L162.122,42.064 L150.17,42.064 L150.17,42.712 C150.722,42.712 150.998,42.928 150.998,43.36 L150.998,43.36 L150.998,59.704 C150.998,60.136 150.722,60.352 150.17,60.352 L150.17,60.352 L150.17,61 L162.122,61 Z M160.682,57.904 L155.102,57.904 L155.102,45.16 L160.682,45.16 C161.81,45.16 162.794,45.256 163.634,45.448 C164.474,45.64 165.17,45.982 165.722,46.474 C166.274,46.966 166.688,47.62 166.964,48.436 C167.24,49.252 167.378,50.284 167.378,51.532 C167.378,52.78 167.24,53.812 166.964,54.628 C166.688,55.444 166.274,56.098 165.722,56.59 C165.17,57.082 164.474,57.424 163.634,57.616 C162.794,57.808 161.81,57.904 160.682,57.904 L160.682,57.904 Z M184.478,61.108 C185.798,61.108 187.04,60.958 188.204,60.658 C189.368,60.358 190.382,59.872 191.246,59.2 C192.11,58.528 192.794,57.682 193.298,56.662 C193.802,55.642 194.054,54.448 194.054,53.08 C194.054,51.712 193.802,50.518 193.298,49.498 C192.794,48.478 192.11,47.632 191.246,46.96 C190.382,46.288 189.368,45.784 188.204,45.448 C187.04,45.112 185.798,44.944 184.478,44.944 C183.158,44.944 181.916,45.112 180.752,45.448 C179.588,45.784 178.574,46.288 177.71,46.96 C176.846,47.632 176.162,48.478 175.658,49.498 C175.154,50.518 174.902,51.712 174.902,53.08 C174.902,54.448 175.154,55.642 175.658,56.662 C176.162,57.682 176.846,58.528 177.71,59.2 C178.574,59.872 179.588,60.358 180.752,60.658 C181.916,60.958 183.158,61.108 184.478,61.108 Z M184.478,58.552 C183.71,58.552 182.96,58.426 182.228,58.174 C181.496,57.922 180.842,57.562 180.266,57.094 C179.69,56.626 179.228,56.056 178.88,55.384 C178.532,54.712 178.358,53.944 178.358,53.08 C178.358,52.216 178.532,51.448 178.88,50.776 C179.228,50.104 179.69,49.534 180.266,49.066 C180.842,48.598 181.496,48.238 182.228,47.986 C182.96,47.734 183.71,47.608 184.478,47.608 C185.246,47.608 185.996,47.734 186.728,47.986 C187.46,48.238 188.114,48.598 188.69,49.066 C189.266,49.534 189.728,50.104 190.076,50.776 C190.424,51.448 190.598,52.216 190.598,53.08 C190.598,53.944 190.424,54.712 190.076,55.384 C189.728,56.056 189.266,56.626 188.69,57.094 C188.114,57.562 187.46,57.922 186.728,58.174 C185.996,58.426 185.246,58.552 184.478,58.552 Z M206.87,61.108 C208.022,61.108 209.066,61.03 210.002,60.874 C210.938,60.718 211.76,60.52 212.468,60.28 C213.176,60.04 213.764,59.794 214.232,59.542 C214.7,59.29 215.042,59.092 215.258,58.948 L215.258,58.948 L215.258,58.516 C215.018,58.42 214.868,58.33 214.808,58.246 C214.748,58.162 214.718,58.012 214.718,57.796 L214.718,57.796 L214.718,54.376 C214.718,54.136 214.754,53.956 214.826,53.836 C214.898,53.716 215.042,53.608 215.258,53.512 L215.258,53.512 L215.258,52.864 L208.202,52.864 C207.938,52.864 207.71,52.828 207.518,52.756 C207.326,52.684 207.206,52.528 207.158,52.288 L207.158,52.288 L206.51,52.288 L206.51,55.996 L207.158,55.996 C207.206,55.708 207.326,55.51 207.518,55.402 C207.71,55.294 207.938,55.24 208.202,55.24 L208.202,55.24 L211.91,55.24 L211.91,57.508 C211.142,57.916 210.296,58.192 209.372,58.336 C208.448,58.48 207.47,58.552 206.438,58.552 C205.742,58.552 205.022,58.456 204.278,58.264 C203.534,58.072 202.856,57.766 202.244,57.346 C201.632,56.926 201.134,56.374 200.75,55.69 C200.366,55.006 200.174,54.16 200.174,53.152 C200.174,52.144 200.354,51.292 200.714,50.596 C201.074,49.9 201.554,49.33 202.154,48.886 C202.754,48.442 203.45,48.118 204.242,47.914 C205.034,47.71 205.874,47.608 206.762,47.608 C207.41,47.608 208.052,47.674 208.688,47.806 C209.324,47.938 209.894,48.112 210.398,48.328 C210.902,48.544 211.31,48.778 211.622,49.03 C211.934,49.282 212.09,49.516 212.09,49.732 C212.09,49.756 212.066,49.888 212.018,50.128 L212.018,50.128 L212.45,50.38 L214.538,46.456 L214.106,46.24 C213.962,46.36 213.842,46.438 213.746,46.474 C213.65,46.51 213.506,46.528 213.314,46.528 C213.146,46.528 212.894,46.444 212.558,46.276 C212.222,46.108 211.778,45.928 211.226,45.736 C210.698,45.544 210.074,45.364 209.354,45.196 C208.634,45.028 207.806,44.944 206.87,44.944 C205.31,44.944 203.9,45.13 202.64,45.502 C201.38,45.874 200.312,46.414 199.436,47.122 C198.56,47.83 197.888,48.682 197.42,49.678 C196.952,50.674 196.718,51.808 196.718,53.08 C196.718,54.352 196.952,55.486 197.42,56.482 C197.888,57.478 198.56,58.324 199.436,59.02 C200.312,59.716 201.38,60.238 202.64,60.586 C203.9,60.934 205.31,61.108 206.87,61.108 Z" id="DangDog" fill="#000000" fill-rule="nonzero"></path>
    </g>
</svg>