<?xml version="1.0" encoding="UTF-8"?>
<svg width="262px" height="360px" viewBox="0 0 262 360" version="1.1" xmlns="http://www.w3.org/2000/svg" xmlns:xlink="http://www.w3.org/1999/xlink">
    <title>New Game</title>
    <g id="New-Game" stroke="none" stroke-width="1" fill="none" fill-rule="evenodd">
        <g id="Group" transform="translate(9.000000, 9.000000)" fill="#FFFFFF" stroke="#000000" stroke-width="3">
            <g id="Rectangle">
                <rect x="1.5" y="1.5" width="239" height="337" rx="8"></rect>
            </g>
        </g>
        <path d="M75.56,57 L75.56,56.568 C75.192,56.568 75.008,56.424 75.008,56.136 L75.008,56.136 L75.008,48.168 L82.328,55.8 C82.584,56.056 82.712,56.24 82.712,56.352 C82.712,56.496 82.608,56.568 82.4,56.568 L82.4,56.568 L82.4,57 L86.288,57 L86.288,56.568 C85.984,56.568 85.832,56.424 85.832,56.136 L85.832,56.136 L85.832,45.24 C85.832,44.952 85.984,44.808 86.288,44.808 L86.288,44.808 L86.288,44.376 L82.664,44.376 L82.664,44.808 C83.08,44.808 83.288,44.952 83.288,45.24 L83.288,45.24 L83.288,52.872 L76.4,45.72 C76.08,45.4 75.92,45.176 75.92,45.048 C75.92,44.888 75.984,44.808 76.112,44.808 L76.112,44.808 L76.112,44.376 L72.008,44.376 L72.008,44.808 C72.312,44.808 72.464,44.952 72.464,45.24 L72.464,45.24 L72.464,56.136 C72.464,56.424 72.312,56.568 72.008,56.568 L72.008,56.568 L72.008,57 L75.56,57 Z M100.376,57.264 L100.376,54.744 L99.944,54.744 C99.944,54.888 99.88,55.004 99.752,55.092 C99.624,55.18 99.464,55.224 99.272,55.224 L99.272,55.224 L93.128,55.224 L93.128,52.392 L96.632,52.392 C96.952,52.392 97.2,52.412 97.376,52.452 C97.552,52.492 97.616,52.6 97.568,52.776 L97.568,52.776 L98.048,52.776 L98.048,50.232 L97.616,50.232 C97.616,50.408 97.552,50.516 97.424,50.556 C97.296,50.596 97.096,50.616 96.824,50.616 L96.824,50.616 L93.128,50.616 L93.128,48.216 L98.984,48.216 C99.48,48.216 99.728,48.368 99.728,48.672 L99.728,48.672 L100.16,48.672 L100.16,46.008 L99.728,46.008 C99.728,46.296 99.48,46.44 98.984,46.44 L98.984,46.44 L90.464,46.44 L90.464,46.872 C90.544,46.872 90.624,46.9 90.704,46.956 C90.784,47.012 90.824,47.104 90.824,47.232 L90.824,47.232 L90.824,56.208 C90.824,56.336 90.784,56.428 90.704,56.484 C90.624,56.54 90.544,56.568 90.464,56.568 L90.464,56.568 L90.464,57 L99.272,57 C99.464,57 99.624,57.008 99.752,57.024 C99.88,57.04 99.944,57.12 99.944,57.264 L99.944,57.264 L100.376,57.264 Z M108.824,57 L108.824,56.568 C108.68,56.568 108.584,56.544 108.536,56.496 C108.488,56.448 108.464,56.36 108.464,56.232 C108.464,56.184 108.524,56.004 108.644,55.692 C108.764,55.38 108.916,54.996 109.1,54.54 C109.284,54.084 109.484,53.588 109.7,53.052 C109.916,52.516 110.12,52.004 110.312,51.516 C110.504,51.028 110.672,50.596 110.816,50.22 C110.96,49.844 111.048,49.584 111.08,49.44 L111.08,49.44 L111.128,49.44 C111.384,50.24 111.648,51.032 111.92,51.816 C112.192,52.6 112.444,53.308 112.676,53.94 C112.908,54.572 113.096,55.096 113.24,55.512 C113.384,55.928 113.456,56.168 113.456,56.232 C113.456,56.36 113.44,56.444 113.408,56.484 C113.376,56.524 113.296,56.552 113.168,56.568 L113.168,56.568 L113.168,57 L116.528,57 L116.528,56.568 C116.304,56.568 116.192,56.464 116.192,56.256 C116.192,56.176 116.24,56.028 116.336,55.812 C116.432,55.596 116.528,55.352 116.624,55.08 L116.624,55.08 L119.384,47.76 C119.592,47.168 119.832,46.872 120.104,46.872 L120.104,46.872 L120.104,46.44 L117.056,46.44 L117.056,46.872 C117.312,46.872 117.44,46.984 117.44,47.208 C117.44,47.32 117.412,47.46 117.356,47.628 C117.3,47.796 117.232,47.992 117.152,48.216 L117.152,48.216 L114.92,54.048 L112.808,48.264 C112.728,48.072 112.648,47.868 112.568,47.652 C112.488,47.436 112.448,47.272 112.448,47.16 C112.448,46.968 112.592,46.872 112.88,46.872 L112.88,46.872 L112.88,46.44 L109.448,46.44 L109.448,46.872 C109.704,46.872 109.832,46.984 109.832,47.208 C109.832,47.336 109.796,47.5 109.724,47.7 C109.652,47.9 109.576,48.112 109.496,48.336 L109.496,48.336 L107.456,54.048 L107.408,54.048 L105.296,48.216 C105.2,47.96 105.12,47.748 105.056,47.58 C104.992,47.412 104.96,47.288 104.96,47.208 C104.96,46.984 105.064,46.872 105.272,46.872 L105.272,46.872 L105.272,46.44 L102.224,46.44 L102.224,46.872 C102.464,46.92 102.632,47.072 102.728,47.328 L102.728,47.328 L105.896,55.656 C105.928,55.736 105.972,55.852 106.028,56.004 C106.084,56.156 106.112,56.28 106.112,56.376 C106.112,56.472 106.088,56.528 106.04,56.544 C105.992,56.56 105.936,56.568 105.872,56.568 L105.872,56.568 L105.872,57 L108.824,57 Z M136.376,57.072 C136.952,57.072 137.54,57.056 138.14,57.024 C138.74,56.992 139.34,56.908 139.94,56.772 C140.54,56.636 141.132,56.448 141.716,56.208 C142.3,55.968 142.856,55.664 143.384,55.296 L143.384,55.296 L143.384,54.912 L143.384,54.912 L143.149333,54.7946667 L143.149333,54.7946667 L143.048,54.744 C142.952,54.696 142.904,54.592 142.904,54.432 L142.904,54.432 L142.904,51.72 C142.904,51.512 142.944,51.376 143.024,51.312 C143.104,51.248 143.304,51.192 143.624,51.144 L143.624,51.144 L143.624,50.712 L137.624,50.712 C137.4,50.712 137.232,50.676 137.12,50.604 C137.008,50.532 136.936,50.36 136.904,50.088 L136.904,50.088 L136.472,50.088 L136.472,53.16 L136.904,53.16 C136.936,52.84 137.008,52.632 137.12,52.536 C137.232,52.44 137.4,52.392 137.624,52.392 L137.624,52.392 L140.696,52.392 L140.696,54.456 C140.184,54.632 139.564,54.796 138.836,54.948 C138.108,55.1 137.288,55.176 136.376,55.176 C135.784,55.176 135.196,55.092 134.612,54.924 C134.028,54.756 133.508,54.496 133.052,54.144 C132.596,53.792 132.228,53.332 131.948,52.764 C131.668,52.196 131.528,51.52 131.528,50.736 C131.528,49.936 131.668,49.256 131.948,48.696 C132.228,48.136 132.596,47.68 133.052,47.328 C133.508,46.976 134.028,46.716 134.612,46.548 C135.196,46.38 135.784,46.296 136.376,46.296 C136.856,46.296 137.364,46.328 137.9,46.392 C138.436,46.456 138.932,46.556 139.388,46.692 C139.844,46.828 140.22,46.992 140.516,47.184 C140.812,47.376 140.96,47.592 140.96,47.832 C140.96,47.928 140.944,48.024 140.912,48.12 L140.912,48.12 L141.392,48.264 L142.808,45.096 L142.52,44.928 C142.44,44.976 142.36,45.032 142.28,45.096 C142.2,45.16 142.088,45.192 141.944,45.192 C141.864,45.192 141.66,45.14 141.332,45.036 C141.004,44.932 140.592,44.82 140.096,44.7 C139.6,44.58 139.032,44.472 138.392,44.376 C137.752,44.28 137.08,44.232 136.376,44.232 C135.256,44.232 134.236,44.38 133.316,44.676 C132.396,44.972 131.608,45.4 130.952,45.96 C130.296,46.52 129.788,47.196 129.428,47.988 C129.068,48.78 128.888,49.68 128.888,50.688 C128.888,51.696 129.068,52.596 129.428,53.388 C129.788,54.18 130.296,54.852 130.952,55.404 C131.608,55.956 132.396,56.372 133.316,56.652 C134.236,56.932 135.256,57.072 136.376,57.072 Z M148.736,57 L148.736,56.568 C148.592,56.568 148.48,56.552 148.4,56.52 C148.32,56.488 148.28,56.408 148.28,56.28 C148.28,56.2 148.3,56.108 148.34,56.004 C148.38,55.9 148.432,55.784 148.496,55.656 L148.496,55.656 L149.168,54.36 L154.304,54.36 L154.952,55.728 C155,55.856 155.04,55.96 155.072,56.04 C155.104,56.12 155.12,56.208 155.12,56.304 C155.12,56.432 155.076,56.52 154.988,56.568 C154.9,56.616 154.816,56.64 154.736,56.64 L154.736,56.64 L154.736,57 L158.144,57 L158.144,56.568 C158.032,56.536 157.928,56.488 157.832,56.424 C157.736,56.36 157.648,56.256 157.568,56.112 L157.568,56.112 L153.68,47.952 C153.6,47.776 153.524,47.62 153.452,47.484 C153.38,47.348 153.344,47.232 153.344,47.136 C153.344,47.024 153.372,46.96 153.428,46.944 C153.484,46.928 153.536,46.904 153.584,46.872 L153.584,46.872 L153.584,46.44 L149.96,46.44 L149.96,46.872 C150.008,46.904 150.052,46.932 150.092,46.956 C150.132,46.98 150.152,47.04 150.152,47.136 C150.152,47.264 150.124,47.396 150.068,47.532 C150.012,47.668 149.936,47.848 149.84,48.072 L149.84,48.072 L146.264,55.872 C146.2,56 146.108,56.14 145.988,56.292 C145.868,56.444 145.712,56.536 145.52,56.568 L145.52,56.568 L145.52,57 L148.736,57 Z M153.536,52.584 L149.888,52.584 L151.592,48.552 L153.536,52.584 Z M163.448,57 L163.448,56.568 C163.176,56.568 163.04,56.448 163.04,56.208 L163.04,56.208 L163.04,49.464 L163.064,49.464 L166.928,57 L167.12,57 L171.2,49.464 L171.248,49.464 L171.248,56.208 C171.296,56.448 171.152,56.568 170.816,56.568 L170.816,56.568 L170.816,57 L173.6,57 L173.6,56.568 C173.52,56.568 173.444,56.54 173.372,56.484 C173.3,56.428 173.264,56.336 173.264,56.208 L173.264,56.208 L173.264,47.184 C173.264,47.056 173.3,46.972 173.372,46.932 C173.444,46.892 173.52,46.872 173.6,46.872 L173.6,46.872 L173.6,46.44 L170.216,46.44 L170.216,46.872 C170.344,46.872 170.408,46.944 170.408,47.088 C170.408,47.136 170.376,47.22 170.312,47.34 C170.248,47.46 170.16,47.616 170.048,47.808 L170.048,47.808 L167.096,53.184 L164.168,47.784 C164.056,47.592 163.972,47.444 163.916,47.34 C163.86,47.236 163.832,47.152 163.832,47.088 C163.832,46.944 163.912,46.872 164.072,46.872 L164.072,46.872 L164.072,46.44 L160.736,46.44 L160.736,46.872 C160.848,46.872 160.924,46.896 160.964,46.944 C161.004,46.992 161.024,47.128 161.024,47.352 L161.024,47.352 L161.024,56.136 C161.024,56.312 160.996,56.424 160.94,56.472 C160.884,56.52 160.816,56.552 160.736,56.568 L160.736,56.568 L160.736,57 L163.448,57 Z M187.712,57.264 L187.712,54.744 L187.28,54.744 C187.28,54.888 187.216,55.004 187.088,55.092 C186.96,55.18 186.8,55.224 186.608,55.224 L186.608,55.224 L180.464,55.224 L180.464,52.392 L183.968,52.392 C184.288,52.392 184.536,52.412 184.712,52.452 C184.888,52.492 184.952,52.6 184.904,52.776 L184.904,52.776 L185.384,52.776 L185.384,50.232 L184.952,50.232 C184.952,50.408 184.888,50.516 184.76,50.556 C184.632,50.596 184.432,50.616 184.16,50.616 L184.16,50.616 L180.464,50.616 L180.464,48.216 L186.32,48.216 C186.816,48.216 187.064,48.368 187.064,48.672 L187.064,48.672 L187.496,48.672 L187.496,46.008 L187.064,46.008 C187.064,46.296 186.816,46.44 186.32,46.44 L186.32,46.44 L177.8,46.44 L177.8,46.872 C177.88,46.872 177.96,46.9 178.04,46.956 C178.12,47.012 178.16,47.104 178.16,47.232 L178.16,47.232 L178.16,56.208 C178.16,56.336 178.12,56.428 178.04,56.484 C177.96,56.54 177.88,56.568 177.8,56.568 L177.8,56.568 L177.8,57 L186.608,57 C186.8,57 186.96,57.008 187.088,57.024 C187.216,57.04 187.28,57.12 187.28,57.264 L187.28,57.264 L187.712,57.264 Z" id="NewGame" fill="#000000" fill-rule="nonzero"></path>
        <g id="Group" transform="translate(226.000000, 15.000000)">
            <g id="Running-Man" transform="translate(9.500000, 10.000000) scale(-1, 1) translate(-9.500000, -10.000000) ">
                <ellipse id="Oval" fill="#000000" cx="14.25" cy="1.76470588" rx="1.78125" ry="1.76470588"></ellipse>
                <line x1="12.46875" y1="14.1176471" x2="11.28125" y2="18.8235294" id="Line" stroke="#000000" stroke-width="2" stroke-linecap="round"></line>
                <line x1="11.28125" y1="4.70588235" x2="6.53125" y2="14.1176471" id="Line-Copy-2" stroke="#000000" stroke-width="2" stroke-linecap="round"></line>
                <line x1="12.46875" y1="4.70588235" x2="10.09375" y2="10.5882353" id="Line-Copy-4" stroke="#000000" stroke-width="2" stroke-linecap="round"></line>
                <line x1="0.59375" y1="14.1176471" x2="6.53125" y2="14.1176471" id="Line-Copy-3" stroke="#000000" stroke-width="2" stroke-linecap="round"></line>
                <line x1="8.90625" y1="9.41176471" x2="12.46875" y2="14.1176471" id="Line-Copy" stroke="#000000" stroke-width="2" stroke-linecap="round"></line>
                <line x1="5.34375" y1="4.70588235" x2="11.28125" y2="4.70588235" id="Line-Copy-5" stroke="#000000" stroke-width="2" stroke-linecap="round"></line>
                <line x1="16.03125" y1="8.23529412" x2="12.46875" y2="4.70588235" id="Line-Copy-7" stroke="#000000" stroke-width="2" stroke-linecap="round"></line>
                <line x1="16.03125" y1="8.23529412" x2="18.40625" y2="5.88235294" id="Line-Copy-8" stroke="#000000" stroke-width="2" stroke-linecap="round"></line>
                <line x1="5.34375" y1="4.70588235" x2="2.96875" y2="8.23529412" id="Line-Copy-6" stroke="#000000" stroke-width="2" stroke-linecap="round"></line>
            </g>
        </g>
        <rect id="Rectangle" stroke="#000000" stroke-width="3" x="17.5" y="287.5" width="225" height="54" rx="8"></rect>
        <path d="M37.067,305 L37.067,304.748 C36.8243333,304.748 36.703,304.664 36.703,304.496 L36.703,304.496 L36.703,298.14 C36.703,297.972 36.8243333,297.888 37.067,297.888 L37.067,297.888 L37.067,297.636 L34.743,297.636 L34.743,297.888 C34.9856667,297.888 35.107,297.972 35.107,298.14 L35.107,298.14 L35.107,304.496 C35.107,304.664 34.9856667,304.748 34.743,304.748 L34.743,304.748 L34.743,305 L37.067,305 Z M41.099,305 L41.099,304.748 C40.903,304.748 40.805,304.678 40.805,304.538 L40.805,304.538 L40.805,300.464 L44.277,304.16 C44.389,304.281333 44.4893333,304.388667 44.578,304.482 C44.6666667,304.575333 44.711,304.640667 44.711,304.678 C44.711,304.724667 44.6783333,304.748 44.613,304.748 L44.613,304.748 L44.613,305 L46.433,305 L46.433,304.748 C46.265,304.748 46.181,304.678 46.181,304.538 L46.181,304.538 L46.181,299.302 C46.181,299.162 46.265,299.092 46.433,299.092 L46.433,299.092 L46.433,298.84 L44.725,298.84 L44.725,299.092 C44.9116667,299.092 45.005,299.162 45.005,299.302 L45.005,299.302 L45.005,303.096 L41.645,299.54 C41.4396667,299.334667 41.337,299.208667 41.337,299.162 C41.337,299.124667 41.3696667,299.101333 41.435,299.092 L41.435,299.092 L41.435,298.84 L39.377,298.84 L39.377,299.092 C39.545,299.092 39.629,299.162 39.629,299.302 L39.629,299.302 L39.629,304.538 C39.629,304.678 39.545,304.748 39.377,304.748 L39.377,304.748 L39.377,305 L41.099,305 Z M52.579,305 L52.579,304.748 C52.411,304.72 52.327,304.678 52.327,304.622 C52.327,304.575333 52.3526667,304.51 52.404,304.426 C52.4553333,304.342 52.5323333,304.178667 52.635,303.936 L52.635,303.936 L54.679,299.414 C54.7816667,299.199333 54.8983333,299.092 55.029,299.092 L55.029,299.092 L55.029,298.84 L53.195,298.84 L53.195,299.092 C53.3256667,299.092 53.3956667,299.148 53.405,299.26 C53.4143333,299.325333 53.391,299.414 53.335,299.526 C53.279,299.638 53.1996667,299.806 53.097,300.03 L53.097,300.03 L51.571,303.418 L49.961,299.932 C49.8956667,299.792 49.8373333,299.663667 49.786,299.547 C49.7346667,299.430333 49.709,299.339333 49.709,299.274 C49.709,299.152667 49.765,299.092 49.877,299.092 L49.877,299.092 L49.877,298.84 L47.903,298.84 L47.903,299.092 C47.959,299.092 48.0173333,299.115333 48.078,299.162 C48.1386667,299.208667 48.1876667,299.274 48.225,299.358 L48.225,299.358 L50.353,303.936 C50.437,304.113333 50.5093333,304.253333 50.57,304.356 C50.6306667,304.458667 50.661,304.533333 50.661,304.58 C50.661,304.626667 50.64,304.661667 50.598,304.685 C50.556,304.708333 50.5116667,304.729333 50.465,304.748 L50.465,304.748 L50.465,305 L52.579,305 Z M62.295,305.154 L62.295,303.684 L62.043,303.684 C62.043,303.768 62.0056667,303.835667 61.931,303.887 C61.8563333,303.938333 61.763,303.964 61.651,303.964 L61.651,303.964 L58.067,303.964 L58.067,302.312 L60.111,302.312 C60.2976667,302.312 60.4423333,302.323667 60.545,302.347 C60.6476667,302.370333 60.685,302.433333 60.657,302.536 L60.657,302.536 L60.937,302.536 L60.937,301.052 L60.685,301.052 C60.685,301.154667 60.6476667,301.217667 60.573,301.241 C60.4983333,301.264333 60.3816667,301.276 60.223,301.276 L60.223,301.276 L58.067,301.276 L58.067,299.876 L61.483,299.876 C61.7723333,299.876 61.917,299.964667 61.917,300.142 L61.917,300.142 L62.169,300.142 L62.169,298.588 L61.917,298.588 C61.917,298.756 61.7723333,298.84 61.483,298.84 L61.483,298.84 L56.513,298.84 L56.513,299.092 C56.5596667,299.092 56.6063333,299.108333 56.653,299.141 C56.6996667,299.173667 56.723,299.227333 56.723,299.302 L56.723,299.302 L56.723,304.538 C56.723,304.612667 56.6996667,304.666333 56.653,304.699 C56.6063333,304.731667 56.5596667,304.748 56.513,304.748 L56.513,304.748 L56.513,305 L61.651,305 C61.763,305 61.8563333,305.004667 61.931,305.014 C62.0056667,305.023333 62.043,305.07 62.043,305.154 L62.043,305.154 L62.295,305.154 Z M66.005,305 L66.005,304.748 C65.809,304.748 65.711,304.678 65.711,304.538 L65.711,304.538 L65.711,300.464 L69.183,304.16 C69.295,304.281333 69.3953333,304.388667 69.484,304.482 C69.5726667,304.575333 69.617,304.640667 69.617,304.678 C69.617,304.724667 69.5843333,304.748 69.519,304.748 L69.519,304.748 L69.519,305 L71.339,305 L71.339,304.748 C71.171,304.748 71.087,304.678 71.087,304.538 L71.087,304.538 L71.087,299.302 C71.087,299.162 71.171,299.092 71.339,299.092 L71.339,299.092 L71.339,298.84 L69.631,298.84 L69.631,299.092 C69.8176667,299.092 69.911,299.162 69.911,299.302 L69.911,299.302 L69.911,303.096 L66.551,299.54 C66.3456667,299.334667 66.243,299.208667 66.243,299.162 C66.243,299.124667 66.2756667,299.101333 66.341,299.092 L66.341,299.092 L66.341,298.84 L64.283,298.84 L64.283,299.092 C64.451,299.092 64.535,299.162 64.535,299.302 L64.535,299.302 L64.535,304.538 C64.535,304.678 64.451,304.748 64.283,304.748 L64.283,304.748 L64.283,305 L66.005,305 Z M76.911,305 L76.911,304.748 C76.743,304.748 76.659,304.678 76.659,304.538 L76.659,304.538 L76.659,299.876 L78.479,299.876 C78.5536667,299.876 78.6236667,299.894667 78.689,299.932 C78.7543333,299.969333 78.787,300.03 78.787,300.114 L78.787,300.114 L79.039,300.114 L79.039,298.504 L78.787,298.504 C78.787,298.634667 78.7543333,298.723333 78.689,298.77 C78.6236667,298.816667 78.5536667,298.84 78.479,298.84 L78.479,298.84 L73.495,298.84 C73.4203333,298.84 73.3503333,298.816667 73.285,298.77 C73.2196667,298.723333 73.187,298.634667 73.187,298.504 L73.187,298.504 L72.935,298.504 L72.935,300.114 L73.187,300.114 C73.187,300.03 73.2196667,299.969333 73.285,299.932 C73.3503333,299.894667 73.4203333,299.876 73.495,299.876 L73.495,299.876 L75.315,299.876 L75.315,304.538 C75.315,304.612667 75.2916667,304.666333 75.245,304.699 C75.1983333,304.731667 75.1516667,304.748 75.105,304.748 L75.105,304.748 L75.105,305 L76.911,305 Z M85.843,305 L85.843,304.748 C85.759,304.748 85.6936667,304.738667 85.647,304.72 C85.6003333,304.701333 85.577,304.654667 85.577,304.58 C85.577,304.533333 85.5886667,304.479667 85.612,304.419 C85.6353333,304.358333 85.6656667,304.290667 85.703,304.216 L85.703,304.216 L86.095,303.46 L89.091,303.46 L89.469,304.258 C89.497,304.332667 89.5203333,304.393333 89.539,304.44 C89.5576667,304.486667 89.567,304.538 89.567,304.594 C89.567,304.668667 89.5413333,304.72 89.49,304.748 C89.4386667,304.776 89.3896667,304.79 89.343,304.79 L89.343,304.79 L89.343,305 L91.331,305 L91.331,304.748 C91.2656667,304.729333 91.205,304.701333 91.149,304.664 C91.093,304.626667 91.0416667,304.566 90.995,304.482 L90.995,304.482 L88.727,299.722 C88.6803333,299.619333 88.636,299.528333 88.594,299.449 C88.552,299.369667 88.531,299.302 88.531,299.246 C88.531,299.180667 88.5473333,299.143333 88.58,299.134 C88.6126667,299.124667 88.643,299.110667 88.671,299.092 L88.671,299.092 L88.671,298.84 L86.557,298.84 L86.557,299.092 C86.585,299.110667 86.6106667,299.127 86.634,299.141 C86.6573333,299.155 86.669,299.19 86.669,299.246 C86.669,299.320667 86.6526667,299.397667 86.62,299.477 C86.5873333,299.556333 86.543,299.661333 86.487,299.792 L86.487,299.792 L84.401,304.342 C84.3636667,304.416667 84.31,304.498333 84.24,304.587 C84.17,304.675667 84.079,304.729333 83.967,304.748 L83.967,304.748 L83.967,305 L85.843,305 Z M88.643,302.424 L86.515,302.424 L87.509,300.072 L88.643,302.424 Z M98.667,305 L98.667,304.748 C98.471,304.748 98.373,304.678 98.373,304.538 L98.373,304.538 L98.373,300.464 L101.845,304.16 C101.957,304.281333 102.057333,304.388667 102.146,304.482 C102.234667,304.575333 102.279,304.640667 102.279,304.678 C102.279,304.724667 102.246333,304.748 102.181,304.748 L102.181,304.748 L102.181,305 L104.001,305 L104.001,304.748 C103.833,304.748 103.749,304.678 103.749,304.538 L103.749,304.538 L103.749,299.302 C103.749,299.162 103.833,299.092 104.001,299.092 L104.001,299.092 L104.001,298.84 L102.293,298.84 L102.293,299.092 C102.479667,299.092 102.573,299.162 102.573,299.302 L102.573,299.302 L102.573,303.096 L99.213,299.54 C99.0076667,299.334667 98.905,299.208667 98.905,299.162 C98.905,299.124667 98.9376667,299.101333 99.003,299.092 L99.003,299.092 L99.003,298.84 L96.945,298.84 L96.945,299.092 C97.113,299.092 97.197,299.162 97.197,299.302 L97.197,299.302 L97.197,304.538 C97.197,304.678 97.113,304.748 96.945,304.748 L96.945,304.748 L96.945,305 L98.667,305 Z M112.079,305.154 L112.079,303.684 L111.827,303.684 C111.827,303.768 111.789667,303.835667 111.715,303.887 C111.640333,303.938333 111.547,303.964 111.435,303.964 L111.435,303.964 L107.851,303.964 L107.851,302.312 L109.895,302.312 C110.081667,302.312 110.226333,302.323667 110.329,302.347 C110.431667,302.370333 110.469,302.433333 110.441,302.536 L110.441,302.536 L110.721,302.536 L110.721,301.052 L110.469,301.052 C110.469,301.154667 110.431667,301.217667 110.357,301.241 C110.282333,301.264333 110.165667,301.276 110.007,301.276 L110.007,301.276 L107.851,301.276 L107.851,299.876 L111.267,299.876 C111.556333,299.876 111.701,299.964667 111.701,300.142 L111.701,300.142 L111.953,300.142 L111.953,298.588 L111.701,298.588 C111.701,298.756 111.556333,298.84 111.267,298.84 L111.267,298.84 L106.297,298.84 L106.297,299.092 C106.343667,299.092 106.390333,299.108333 106.437,299.141 C106.483667,299.173667 106.507,299.227333 106.507,299.302 L106.507,299.302 L106.507,304.538 C106.507,304.612667 106.483667,304.666333 106.437,304.699 C106.390333,304.731667 106.343667,304.748 106.297,304.748 L106.297,304.748 L106.297,305 L111.435,305 C111.547,305 111.640333,305.004667 111.715,305.014 C111.789667,305.023333 111.827,305.07 111.827,305.154 L111.827,305.154 L112.079,305.154 Z M117.007,305 L117.007,304.748 C116.923,304.748 116.867,304.734 116.839,304.706 C116.811,304.678 116.797,304.626667 116.797,304.552 C116.797,304.524 116.832,304.419 116.902,304.237 C116.972,304.055 117.060667,303.831 117.168,303.565 C117.275333,303.299 117.392,303.009667 117.518,302.697 C117.644,302.384333 117.763,302.085667 117.875,301.801 C117.987,301.516333 118.085,301.264333 118.169,301.045 C118.253,300.825667 118.304333,300.674 118.323,300.59 L118.323,300.59 L118.351,300.59 C118.500333,301.056667 118.654333,301.518667 118.813,301.976 C118.971667,302.433333 119.118667,302.846333 119.254,303.215 C119.389333,303.583667 119.499,303.889333 119.583,304.132 C119.667,304.374667 119.709,304.514667 119.709,304.552 C119.709,304.626667 119.699667,304.675667 119.681,304.699 C119.662333,304.722333 119.615667,304.738667 119.541,304.748 L119.541,304.748 L119.541,305 L121.501,305 L121.501,304.748 C121.370333,304.748 121.305,304.687333 121.305,304.566 C121.305,304.519333 121.333,304.433 121.389,304.307 C121.445,304.181 121.501,304.038667 121.557,303.88 L121.557,303.88 L123.167,299.61 C123.288333,299.264667 123.428333,299.092 123.587,299.092 L123.587,299.092 L123.587,298.84 L121.809,298.84 L121.809,299.092 C121.958333,299.092 122.033,299.157333 122.033,299.288 C122.033,299.353333 122.016667,299.435 121.984,299.533 C121.951333,299.631 121.911667,299.745333 121.865,299.876 L121.865,299.876 L120.563,303.278 L119.331,299.904 C119.284333,299.792 119.237667,299.673 119.191,299.547 C119.144333,299.421 119.121,299.325333 119.121,299.26 C119.121,299.148 119.205,299.092 119.373,299.092 L119.373,299.092 L119.373,298.84 L117.371,298.84 L117.371,299.092 C117.520333,299.092 117.595,299.157333 117.595,299.288 C117.595,299.362667 117.574,299.458333 117.532,299.575 C117.49,299.691667 117.445667,299.815333 117.399,299.946 L117.399,299.946 L116.209,303.278 L116.181,303.278 L114.949,299.876 C114.893,299.726667 114.846333,299.603 114.809,299.505 C114.771667,299.407 114.753,299.334667 114.753,299.288 C114.753,299.157333 114.813667,299.092 114.935,299.092 L114.935,299.092 L114.935,298.84 L113.157,298.84 L113.157,299.092 C113.297,299.12 113.395,299.208667 113.451,299.358 L113.451,299.358 L115.299,304.216 C115.317667,304.262667 115.343333,304.330333 115.376,304.419 C115.408667,304.507667 115.425,304.58 115.425,304.636 C115.425,304.692 115.411,304.724667 115.383,304.734 C115.355,304.743333 115.322333,304.748 115.285,304.748 L115.285,304.748 L115.285,305 L117.007,305 Z M132.519,305.042 C132.967,305.042 133.373,305.011667 133.737,304.951 C134.101,304.890333 134.420667,304.813333 134.696,304.72 C134.971333,304.626667 135.2,304.531 135.382,304.433 C135.564,304.335 135.697,304.258 135.781,304.202 L135.781,304.202 L135.781,304.034 C135.687667,303.996667 135.629333,303.961667 135.606,303.929 C135.582667,303.896333 135.571,303.838 135.571,303.754 L135.571,303.754 L135.571,302.424 C135.571,302.330667 135.585,302.260667 135.613,302.214 C135.641,302.167333 135.697,302.125333 135.781,302.088 L135.781,302.088 L135.781,301.836 L133.037,301.836 C132.934333,301.836 132.845667,301.822 132.771,301.794 C132.696333,301.766 132.649667,301.705333 132.631,301.612 L132.631,301.612 L132.379,301.612 L132.379,303.054 L132.631,303.054 C132.649667,302.942 132.696333,302.865 132.771,302.823 C132.845667,302.781 132.934333,302.76 133.037,302.76 L133.037,302.76 L134.479,302.76 L134.479,303.642 C134.180333,303.800667 133.851333,303.908 133.492,303.964 C133.132667,304.02 132.752333,304.048 132.351,304.048 C132.080333,304.048 131.800333,304.010667 131.511,303.936 C131.221667,303.861333 130.958,303.742333 130.72,303.579 C130.482,303.415667 130.288333,303.201 130.139,302.935 C129.989667,302.669 129.915,302.34 129.915,301.948 C129.915,301.556 129.985,301.224667 130.125,300.954 C130.265,300.683333 130.451667,300.461667 130.685,300.289 C130.918333,300.116333 131.189,299.990333 131.497,299.911 C131.805,299.831667 132.131667,299.792 132.477,299.792 C132.729,299.792 132.978667,299.817667 133.226,299.869 C133.473333,299.920333 133.695,299.988 133.891,300.072 C134.087,300.156 134.245667,300.247 134.367,300.345 C134.488333,300.443 134.549,300.534 134.549,300.618 C134.549,300.627333 134.539667,300.678667 134.521,300.772 L134.521,300.772 L134.689,300.87 L135.501,299.344 L135.333,299.26 C135.277,299.306667 135.230333,299.337 135.193,299.351 C135.155667,299.365 135.099667,299.372 135.025,299.372 C134.959667,299.372 134.861667,299.339333 134.731,299.274 C134.600333,299.208667 134.427667,299.138667 134.213,299.064 C134.007667,298.989333 133.765,298.919333 133.485,298.854 C133.205,298.788667 132.883,298.756 132.519,298.756 C131.912333,298.756 131.364,298.828333 130.874,298.973 C130.384,299.117667 129.968667,299.327667 129.628,299.603 C129.287333,299.878333 129.026,300.209667 128.844,300.597 C128.662,300.984333 128.571,301.425333 128.571,301.92 C128.571,302.414667 128.662,302.855667 128.844,303.243 C129.026,303.630333 129.287333,303.959333 129.628,304.23 C129.968667,304.500667 130.384,304.703667 130.874,304.839 C131.364,304.974333 131.912333,305.042 132.519,305.042 Z M138.735,305 L138.735,304.748 C138.651,304.748 138.585667,304.738667 138.539,304.72 C138.492333,304.701333 138.469,304.654667 138.469,304.58 C138.469,304.533333 138.480667,304.479667 138.504,304.419 C138.527333,304.358333 138.557667,304.290667 138.595,304.216 L138.595,304.216 L138.987,303.46 L141.983,303.46 L142.361,304.258 C142.389,304.332667 142.412333,304.393333 142.431,304.44 C142.449667,304.486667 142.459,304.538 142.459,304.594 C142.459,304.668667 142.433333,304.72 142.382,304.748 C142.330667,304.776 142.281667,304.79 142.235,304.79 L142.235,304.79 L142.235,305 L144.223,305 L144.223,304.748 C144.157667,304.729333 144.097,304.701333 144.041,304.664 C143.985,304.626667 143.933667,304.566 143.887,304.482 L143.887,304.482 L141.619,299.722 C141.572333,299.619333 141.528,299.528333 141.486,299.449 C141.444,299.369667 141.423,299.302 141.423,299.246 C141.423,299.180667 141.439333,299.143333 141.472,299.134 C141.504667,299.124667 141.535,299.110667 141.563,299.092 L141.563,299.092 L141.563,298.84 L139.449,298.84 L139.449,299.092 C139.477,299.110667 139.502667,299.127 139.526,299.141 C139.549333,299.155 139.561,299.19 139.561,299.246 C139.561,299.320667 139.544667,299.397667 139.512,299.477 C139.479333,299.556333 139.435,299.661333 139.379,299.792 L139.379,299.792 L137.293,304.342 C137.255667,304.416667 137.202,304.498333 137.132,304.587 C137.062,304.675667 136.971,304.729333 136.859,304.748 L136.859,304.748 L136.859,305 L138.735,305 Z M141.535,302.424 L139.407,302.424 L140.401,300.072 L141.535,302.424 Z M147.317,305 L147.317,304.748 C147.158333,304.748 147.079,304.678 147.079,304.538 L147.079,304.538 L147.079,300.604 L147.093,300.604 L149.347,305 L149.459,305 L151.839,300.604 L151.867,300.604 L151.867,304.538 C151.895,304.678 151.811,304.748 151.615,304.748 L151.615,304.748 L151.615,305 L153.239,305 L153.239,304.748 C153.192333,304.748 153.148,304.731667 153.106,304.699 C153.064,304.666333 153.043,304.612667 153.043,304.538 L153.043,304.538 L153.043,299.274 C153.043,299.199333 153.064,299.150333 153.106,299.127 C153.148,299.103667 153.192333,299.092 153.239,299.092 L153.239,299.092 L153.239,298.84 L151.265,298.84 L151.265,299.092 C151.339667,299.092 151.377,299.134 151.377,299.218 C151.377,299.246 151.358333,299.295 151.321,299.365 C151.308556,299.388333 151.294556,299.414 151.279,299.442 L151.167,299.638 L149.445,302.774 L147.737,299.624 C147.671667,299.512 147.622667,299.425667 147.59,299.365 C147.557333,299.304333 147.541,299.255333 147.541,299.218 C147.541,299.134 147.587667,299.092 147.681,299.092 L147.681,299.092 L147.681,298.84 L145.735,298.84 L145.735,299.092 C145.800333,299.092 145.844667,299.106 145.868,299.134 C145.891333,299.162 145.903,299.241333 145.903,299.372 L145.903,299.372 L145.903,304.496 C145.903,304.598667 145.886667,304.664 145.854,304.692 C145.821333,304.72 145.781667,304.738667 145.735,304.748 L145.735,304.748 L145.735,305 L147.317,305 Z M161.471,305.154 L161.471,303.684 L161.219,303.684 C161.219,303.768 161.181667,303.835667 161.107,303.887 C161.032333,303.938333 160.939,303.964 160.827,303.964 L160.827,303.964 L157.243,303.964 L157.243,302.312 L159.287,302.312 C159.473667,302.312 159.618333,302.323667 159.721,302.347 C159.823667,302.370333 159.861,302.433333 159.833,302.536 L159.833,302.536 L160.113,302.536 L160.113,301.052 L159.861,301.052 C159.861,301.154667 159.823667,301.217667 159.749,301.241 C159.674333,301.264333 159.557667,301.276 159.399,301.276 L159.399,301.276 L157.243,301.276 L157.243,299.876 L160.659,299.876 C160.948333,299.876 161.093,299.964667 161.093,300.142 L161.093,300.142 L161.345,300.142 L161.345,298.588 L161.093,298.588 C161.093,298.756 160.948333,298.84 160.659,298.84 L160.659,298.84 L155.689,298.84 L155.689,299.092 C155.735667,299.092 155.782333,299.108333 155.829,299.141 C155.875667,299.173667 155.899,299.227333 155.899,299.302 L155.899,299.302 L155.899,304.538 C155.899,304.612667 155.875667,304.666333 155.829,304.699 C155.782333,304.731667 155.735667,304.748 155.689,304.748 L155.689,304.748 L155.689,305 L160.827,305 C160.939,305 161.032333,305.004667 161.107,305.014 C161.181667,305.023333 161.219,305.07 161.219,305.154 L161.219,305.154 L161.471,305.154 Z M165.237,302.452 L165.237,302.284 C165.162333,302.284 165.101667,302.272333 165.055,302.249 C165.008333,302.225667 164.985,302.176667 164.985,302.102 C164.985,302.036667 164.989667,301.973667 164.999,301.913 C165.008333,301.852333 165.017667,301.784667 165.027,301.71 L165.027,301.71 L165.461,297.972 C165.479667,297.86 165.507667,297.780667 165.545,297.734 C165.582333,297.687333 165.671,297.645333 165.811,297.608 L165.811,297.608 L165.811,297.44 L163.487,297.44 L163.487,297.608 C163.627,297.645333 163.715667,297.687333 163.753,297.734 C163.790333,297.780667 163.818333,297.86 163.837,297.972 L163.837,297.972 L164.271,301.71 C164.280333,301.784667 164.289667,301.852333 164.299,301.913 C164.308333,301.973667 164.313,302.036667 164.313,302.102 C164.313,302.176667 164.289667,302.225667 164.243,302.249 C164.196333,302.272333 164.135667,302.284 164.061,302.284 L164.061,302.284 L164.061,302.452 L165.237,302.452 Z M164.649,305.042 C164.891667,305.042 165.101667,304.960333 165.279,304.797 C165.456333,304.633667 165.545,304.430667 165.545,304.188 C165.545,303.945333 165.456333,303.735333 165.279,303.558 C165.101667,303.380667 164.891667,303.292 164.649,303.292 C164.406333,303.292 164.196333,303.380667 164.019,303.558 C163.841667,303.735333 163.753,303.945333 163.753,304.188 C163.753,304.430667 163.841667,304.633667 164.019,304.797 C164.196333,304.960333 164.406333,305.042 164.649,305.042 Z M174.253,305 L174.253,304.748 C174.197,304.748 174.148,304.731667 174.106,304.699 C174.064,304.666333 174.043,304.612667 174.043,304.538 L174.043,304.538 L174.043,302.424 L177.795,302.424 L177.795,304.538 C177.795,304.612667 177.774,304.666333 177.732,304.699 C177.69,304.731667 177.641,304.748 177.585,304.748 L177.585,304.748 L177.585,305 L179.349,305 L179.349,304.748 C179.293,304.748 179.244,304.731667 179.202,304.699 C179.16,304.666333 179.139,304.612667 179.139,304.538 L179.139,304.538 L179.139,299.302 C179.139,299.227333 179.16,299.173667 179.202,299.141 C179.244,299.108333 179.293,299.092 179.349,299.092 L179.349,299.092 L179.349,298.84 L177.585,298.84 L177.585,299.092 C177.641,299.092 177.69,299.108333 177.732,299.141 C177.774,299.173667 177.795,299.227333 177.795,299.302 L177.795,299.302 L177.795,301.276 L174.043,301.276 L174.043,299.302 C174.043,299.227333 174.064,299.173667 174.106,299.141 C174.148,299.108333 174.197,299.092 174.253,299.092 L174.253,299.092 L174.253,298.84 L172.489,298.84 L172.489,299.092 C172.545,299.092 172.594,299.108333 172.636,299.141 C172.678,299.173667 172.699,299.227333 172.699,299.302 L172.699,299.302 L172.699,304.538 C172.699,304.612667 172.678,304.666333 172.636,304.699 C172.594,304.731667 172.545,304.748 172.489,304.748 L172.489,304.748 L172.489,305 L174.253,305 Z M182.681,305 L182.681,304.748 C182.597,304.748 182.531667,304.738667 182.485,304.72 C182.438333,304.701333 182.415,304.654667 182.415,304.58 C182.415,304.533333 182.426667,304.479667 182.45,304.419 C182.473333,304.358333 182.503667,304.290667 182.541,304.216 L182.541,304.216 L182.933,303.46 L185.929,303.46 L186.307,304.258 C186.335,304.332667 186.358333,304.393333 186.377,304.44 C186.395667,304.486667 186.405,304.538 186.405,304.594 C186.405,304.668667 186.379333,304.72 186.328,304.748 C186.276667,304.776 186.227667,304.79 186.181,304.79 L186.181,304.79 L186.181,305 L188.169,305 L188.169,304.748 C188.103667,304.729333 188.043,304.701333 187.987,304.664 C187.931,304.626667 187.879667,304.566 187.833,304.482 L187.833,304.482 L185.565,299.722 C185.518333,299.619333 185.474,299.528333 185.432,299.449 C185.39,299.369667 185.369,299.302 185.369,299.246 C185.369,299.180667 185.385333,299.143333 185.418,299.134 C185.450667,299.124667 185.481,299.110667 185.509,299.092 L185.509,299.092 L185.509,298.84 L183.395,298.84 L183.395,299.092 C183.423,299.110667 183.448667,299.127 183.472,299.141 C183.495333,299.155 183.507,299.19 183.507,299.246 C183.507,299.320667 183.490667,299.397667 183.458,299.477 C183.425333,299.556333 183.381,299.661333 183.325,299.792 L183.325,299.792 L181.239,304.342 C181.201667,304.416667 181.148,304.498333 181.078,304.587 C181.008,304.675667 180.917,304.729333 180.805,304.748 L180.805,304.748 L180.805,305 L182.681,305 Z M185.481,302.424 L183.353,302.424 L184.347,300.072 L185.481,302.424 Z M191.291,302.452 L191.291,302.284 C191.216333,302.284 191.155667,302.272333 191.109,302.249 C191.062333,302.225667 191.039,302.176667 191.039,302.102 C191.039,302.036667 191.043667,301.973667 191.053,301.913 C191.062333,301.852333 191.071667,301.784667 191.081,301.71 L191.081,301.71 L191.515,297.972 C191.533667,297.86 191.561667,297.780667 191.599,297.734 C191.636333,297.687333 191.725,297.645333 191.865,297.608 L191.865,297.608 L191.865,297.44 L189.541,297.44 L189.541,297.608 C189.681,297.645333 189.769667,297.687333 189.807,297.734 C189.844333,297.780667 189.872333,297.86 189.891,297.972 L189.891,297.972 L190.325,301.71 C190.334333,301.784667 190.343667,301.852333 190.353,301.913 C190.362333,301.973667 190.367,302.036667 190.367,302.102 C190.367,302.176667 190.343667,302.225667 190.297,302.249 C190.250333,302.272333 190.189667,302.284 190.115,302.284 L190.115,302.284 L190.115,302.452 L191.291,302.452 Z M190.703,305.042 C190.945667,305.042 191.155667,304.960333 191.333,304.797 C191.510333,304.633667 191.599,304.430667 191.599,304.188 C191.599,303.945333 191.510333,303.735333 191.333,303.558 C191.155667,303.380667 190.945667,303.292 190.703,303.292 C190.460333,303.292 190.250333,303.380667 190.073,303.558 C189.895667,303.735333 189.807,303.945333 189.807,304.188 C189.807,304.430667 189.895667,304.633667 190.073,304.797 C190.250333,304.960333 190.460333,305.042 190.703,305.042 Z M202.379,305 L202.379,304.748 C202.257667,304.710667 202.197,304.617333 202.197,304.468 C202.197,304.374667 202.267,304.146 202.407,303.782 L202.407,303.782 L203.933,299.736 L203.961,299.736 L205.571,303.866 C205.645667,304.034 205.699333,304.164667 205.732,304.258 C205.764667,304.351333 205.781,304.435333 205.781,304.51 C205.781,304.575333 205.750667,304.626667 205.69,304.664 C205.629333,304.701333 205.571,304.729333 205.515,304.748 L205.515,304.748 L205.515,305 L207.727,305 L207.727,304.748 C207.643,304.748 207.577667,304.722333 207.531,304.671 C207.484333,304.619667 207.461,304.561333 207.461,304.496 C207.461,304.421333 207.482,304.328 207.524,304.216 C207.566,304.104 207.615,303.973333 207.671,303.824 L207.671,303.824 L209.687,298.476 C209.752333,298.308 209.810667,298.168 209.862,298.056 C209.913333,297.944 209.990333,297.888 210.093,297.888 L210.093,297.888 L210.093,297.636 L208.021,297.636 L208.021,297.888 C208.086333,297.888 208.142333,297.913667 208.189,297.965 C208.235667,298.016333 208.259,298.07 208.259,298.126 C208.259,298.238 208.226333,298.364 208.161,298.504 L208.161,298.504 L206.649,302.536 L206.621,302.536 L205.123,298.588 C205.029667,298.364 204.983,298.205333 204.983,298.112 C204.983,298.056 204.997,298.004667 205.025,297.958 C205.053,297.911333 205.099667,297.888 205.165,297.888 L205.165,297.888 L205.165,297.636 L202.771,297.636 L202.771,297.888 C202.892333,297.888 202.953,297.976667 202.953,298.154 C202.953,298.200667 202.946,298.254333 202.932,298.315 C202.918,298.375667 202.887667,298.466667 202.841,298.588 L202.841,298.588 L201.357,302.536 L201.329,302.536 L199.831,298.644 C199.775,298.494667 199.74,298.387333 199.726,298.322 C199.712,298.256667 199.705,298.200667 199.705,298.154 C199.705,297.976667 199.775,297.888 199.915,297.888 L199.915,297.888 L199.915,297.636 L197.745,297.636 L197.745,297.888 C197.838333,297.906667 197.906,297.951 197.948,298.021 C197.99,298.091 198.029667,298.177333 198.067,298.28 L198.067,298.28 L200.307,304.062 C200.344333,304.155333 200.379333,304.244 200.412,304.328 C200.444667,304.412 200.461,304.491333 200.461,304.566 C200.461,304.631333 200.433,304.678 200.377,304.706 C200.321,304.734 200.265,304.748 200.209,304.748 L200.209,304.748 L200.209,305 L202.379,305 Z M213.523,305 L213.523,304.748 C213.467,304.748 213.418,304.731667 213.376,304.699 C213.334,304.666333 213.313,304.612667 213.313,304.538 L213.313,304.538 L213.313,302.424 L217.065,302.424 L217.065,304.538 C217.065,304.612667 217.044,304.666333 217.002,304.699 C216.96,304.731667 216.911,304.748 216.855,304.748 L216.855,304.748 L216.855,305 L218.619,305 L218.619,304.748 C218.563,304.748 218.514,304.731667 218.472,304.699 C218.43,304.666333 218.409,304.612667 218.409,304.538 L218.409,304.538 L218.409,299.302 C218.409,299.227333 218.43,299.173667 218.472,299.141 C218.514,299.108333 218.563,299.092 218.619,299.092 L218.619,299.092 L218.619,298.84 L216.855,298.84 L216.855,299.092 C216.911,299.092 216.96,299.108333 217.002,299.141 C217.044,299.173667 217.065,299.227333 217.065,299.302 L217.065,299.302 L217.065,301.276 L213.313,301.276 L213.313,299.302 C213.313,299.227333 213.334,299.173667 213.376,299.141 C213.418,299.108333 213.467,299.092 213.523,299.092 L213.523,299.092 L213.523,298.84 L211.759,298.84 L211.759,299.092 C211.815,299.092 211.864,299.108333 211.906,299.141 C211.948,299.173667 211.969,299.227333 211.969,299.302 L211.969,299.302 L211.969,304.538 C211.969,304.612667 211.948,304.666333 211.906,304.699 C211.864,304.731667 211.815,304.748 211.759,304.748 L211.759,304.748 L211.759,305 L213.523,305 Z M224.135,305.042 C224.648333,305.042 225.131333,304.983667 225.584,304.867 C226.036667,304.750333 226.431,304.561333 226.767,304.3 C227.103,304.038667 227.369,303.709667 227.565,303.313 C227.761,302.916333 227.859,302.452 227.859,301.92 C227.859,301.388 227.761,300.923667 227.565,300.527 C227.369,300.130333 227.103,299.801333 226.767,299.54 C226.431,299.278667 226.036667,299.082667 225.584,298.952 C225.131333,298.821333 224.648333,298.756 224.135,298.756 C223.621667,298.756 223.138667,298.821333 222.686,298.952 C222.233333,299.082667 221.839,299.278667 221.503,299.54 C221.167,299.801333 220.901,300.130333 220.705,300.527 C220.509,300.923667 220.411,301.388 220.411,301.92 C220.411,302.452 220.509,302.916333 220.705,303.313 C220.901,303.709667 221.167,304.038667 221.503,304.3 C221.839,304.561333 222.233333,304.750333 222.686,304.867 C223.138667,304.983667 223.621667,305.042 224.135,305.042 Z M224.135,304.048 C223.836333,304.048 223.544667,303.999 223.26,303.901 C222.975333,303.803 222.721,303.663 222.497,303.481 C222.273,303.299 222.093333,303.077333 221.958,302.816 C221.822667,302.554667 221.755,302.256 221.755,301.92 C221.755,301.584 221.822667,301.285333 221.958,301.024 C222.093333,300.762667 222.273,300.541 222.497,300.359 C222.721,300.177 222.975333,300.037 223.26,299.939 C223.544667,299.841 223.836333,299.792 224.135,299.792 C224.433667,299.792 224.725333,299.841 225.01,299.939 C225.294667,300.037 225.549,300.177 225.773,300.359 C225.997,300.541 226.176667,300.762667 226.312,301.024 C226.447333,301.285333 226.515,301.584 226.515,301.92 C226.515,302.256 226.447333,302.554667 226.312,302.816 C226.176667,303.077333 225.997,303.299 225.773,303.481 C225.549,303.663 225.294667,303.803 225.01,303.901 C224.725333,303.999 224.433667,304.048 224.135,304.048 Z M81.02,319 L81.02,318.748 C80.936,318.748 80.88,318.734 80.852,318.706 C80.824,318.678 80.81,318.626667 80.81,318.552 C80.81,318.524 80.845,318.419 80.915,318.237 C80.985,318.055 81.0736667,317.831 81.181,317.565 C81.2883333,317.299 81.405,317.009667 81.531,316.697 C81.657,316.384333 81.776,316.085667 81.888,315.801 C82,315.516333 82.098,315.264333 82.182,315.045 C82.266,314.825667 82.3173333,314.674 82.336,314.59 L82.336,314.59 L82.364,314.59 C82.5133333,315.056667 82.6673333,315.518667 82.826,315.976 C82.9846667,316.433333 83.1316667,316.846333 83.267,317.215 C83.4023333,317.583667 83.512,317.889333 83.596,318.132 C83.68,318.374667 83.722,318.514667 83.722,318.552 C83.722,318.626667 83.7126667,318.675667 83.694,318.699 C83.6753333,318.722333 83.6286667,318.738667 83.554,318.748 L83.554,318.748 L83.554,319 L85.514,319 L85.514,318.748 C85.3833333,318.748 85.318,318.687333 85.318,318.566 C85.318,318.519333 85.346,318.433 85.402,318.307 C85.458,318.181 85.514,318.038667 85.57,317.88 L85.57,317.88 L87.18,313.61 C87.3013333,313.264667 87.4413333,313.092 87.6,313.092 L87.6,313.092 L87.6,312.84 L85.822,312.84 L85.822,313.092 C85.9713333,313.092 86.046,313.157333 86.046,313.288 C86.046,313.353333 86.0296667,313.435 85.997,313.533 C85.9643333,313.631 85.9246667,313.745333 85.878,313.876 L85.878,313.876 L84.576,317.278 L83.344,313.904 C83.2973333,313.792 83.2506667,313.673 83.204,313.547 C83.1573333,313.421 83.134,313.325333 83.134,313.26 C83.134,313.148 83.218,313.092 83.386,313.092 L83.386,313.092 L83.386,312.84 L81.384,312.84 L81.384,313.092 C81.5333333,313.092 81.608,313.157333 81.608,313.288 C81.608,313.362667 81.587,313.458333 81.545,313.575 C81.503,313.691667 81.4586667,313.815333 81.412,313.946 L81.412,313.946 L80.222,317.278 L80.194,317.278 L78.962,313.876 C78.906,313.726667 78.8593333,313.603 78.822,313.505 C78.7846667,313.407 78.766,313.334667 78.766,313.288 C78.766,313.157333 78.8266667,313.092 78.948,313.092 L78.948,313.092 L78.948,312.84 L77.17,312.84 L77.17,313.092 C77.31,313.12 77.408,313.208667 77.464,313.358 L77.464,313.358 L79.312,318.216 C79.3306667,318.262667 79.3563333,318.330333 79.389,318.419 C79.4216667,318.507667 79.438,318.58 79.438,318.636 C79.438,318.692 79.424,318.724667 79.396,318.734 C79.368,318.743333 79.3353333,318.748 79.298,318.748 L79.298,318.748 L79.298,319 L81.02,319 Z M92.108,319.042 C92.6213333,319.042 93.1043333,318.983667 93.557,318.867 C94.0096667,318.750333 94.404,318.561333 94.74,318.3 C95.076,318.038667 95.342,317.709667 95.538,317.313 C95.734,316.916333 95.832,316.452 95.832,315.92 C95.832,315.388 95.734,314.923667 95.538,314.527 C95.342,314.130333 95.076,313.801333 94.74,313.54 C94.404,313.278667 94.0096667,313.082667 93.557,312.952 C93.1043333,312.821333 92.6213333,312.756 92.108,312.756 C91.5946667,312.756 91.1116667,312.821333 90.659,312.952 C90.2063333,313.082667 89.812,313.278667 89.476,313.54 C89.14,313.801333 88.874,314.130333 88.678,314.527 C88.482,314.923667 88.384,315.388 88.384,315.92 C88.384,316.452 88.482,316.916333 88.678,317.313 C88.874,317.709667 89.14,318.038667 89.476,318.3 C89.812,318.561333 90.2063333,318.750333 90.659,318.867 C91.1116667,318.983667 91.5946667,319.042 92.108,319.042 Z M92.108,318.048 C91.8093333,318.048 91.5176667,317.999 91.233,317.901 C90.9483333,317.803 90.694,317.663 90.47,317.481 C90.246,317.299 90.0663333,317.077333 89.931,316.816 C89.7956667,316.554667 89.728,316.256 89.728,315.92 C89.728,315.584 89.7956667,315.285333 89.931,315.024 C90.0663333,314.762667 90.246,314.541 90.47,314.359 C90.694,314.177 90.9483333,314.037 91.233,313.939 C91.5176667,313.841 91.8093333,313.792 92.108,313.792 C92.4066667,313.792 92.6983333,313.841 92.983,313.939 C93.2676667,314.037 93.522,314.177 93.746,314.359 C93.97,314.541 94.1496667,314.762667 94.285,315.024 C94.4203333,315.285333 94.488,315.584 94.488,315.92 C94.488,316.256 94.4203333,316.554667 94.285,316.816 C94.1496667,317.077333 93.97,317.299 93.746,317.481 C93.522,317.663 93.2676667,317.803 92.983,317.901 C92.6983333,317.999 92.4066667,318.048 92.108,318.048 Z M101.11,319.042 C101.67,319.042 102.157667,318.983667 102.573,318.867 C102.988333,318.750333 103.329,318.589333 103.595,318.384 C103.861,318.178667 104.059333,317.943 104.19,317.677 C104.320667,317.411 104.386,317.133333 104.386,316.844 L104.386,316.844 L104.386,313.302 C104.386,313.162 104.488667,313.092 104.694,313.092 L104.694,313.092 L104.694,312.84 L102.748,312.84 L102.748,313.092 C102.981333,313.092 103.098,313.162 103.098,313.302 L103.098,313.302 L103.098,316.508 C103.098,316.956 102.934667,317.315333 102.608,317.586 C102.281333,317.856667 101.782,317.992 101.11,317.992 C100.438,317.992 99.9386667,317.856667 99.612,317.586 C99.2853333,317.315333 99.122,316.956 99.122,316.508 L99.122,316.508 L99.122,313.302 C99.122,313.162 99.2246667,313.092 99.43,313.092 L99.43,313.092 L99.43,312.84 L97.428,312.84 L97.428,313.092 C97.5866667,313.092 97.694,313.108333 97.75,313.141 C97.806,313.173667 97.834,313.227333 97.834,313.302 L97.834,313.302 L97.834,316.844 C97.834,317.133333 97.8993333,317.411 98.03,317.677 C98.1606667,317.943 98.359,318.178667 98.625,318.384 C98.891,318.589333 99.2316667,318.750333 99.647,318.867 C100.062333,318.983667 100.55,319.042 101.11,319.042 Z M112.926,319.14 L112.926,317.67 L112.674,317.67 C112.674,317.763333 112.636667,317.835667 112.562,317.887 C112.487333,317.938333 112.394,317.964 112.282,317.964 L112.282,317.964 L108.502,317.964 L108.502,313.302 C108.502,313.162 108.609333,313.092 108.824,313.092 L108.824,313.092 L108.824,312.84 L106.794,312.84 L106.794,313.092 C107.036667,313.092 107.158,313.162 107.158,313.302 L107.158,313.302 L107.158,318.538 C107.158,318.678 107.036667,318.748 106.794,318.748 L106.794,318.748 L106.794,319 L112.282,319 C112.394,319 112.487333,319.004667 112.562,319.014 C112.636667,319.023333 112.674,319.065333 112.674,319.14 L112.674,319.14 L112.926,319.14 Z M118.4,319 C118.950667,319 119.417333,318.911333 119.8,318.734 C120.182667,318.556667 120.495333,318.325667 120.738,318.041 C120.980667,317.756333 121.158,317.429667 121.27,317.061 C121.382,316.692333 121.438,316.312 121.438,315.92 C121.438,315.528 121.379667,315.147667 121.263,314.779 C121.146333,314.410333 120.964333,314.083667 120.717,313.799 C120.469667,313.514333 120.15,313.283333 119.758,313.106 C119.366,312.928667 118.894667,312.84 118.344,312.84 L118.344,312.84 L114.452,312.84 L114.452,313.092 C114.666667,313.092 114.774,313.162 114.774,313.302 L114.774,313.302 L114.774,318.538 C114.774,318.678 114.666667,318.748 114.452,318.748 L114.452,318.748 L114.452,319 L118.4,319 Z M117.938,317.964 L116.118,317.964 L116.118,313.876 L117.938,313.876 C118.227333,313.876 118.502667,313.892333 118.764,313.925 C119.025333,313.957667 119.254,314.041667 119.45,314.177 C119.646,314.312333 119.802333,314.513 119.919,314.779 C120.035667,315.045 120.094,315.411333 120.094,315.878 C120.094,316.344667 120.035667,316.715667 119.919,316.991 C119.802333,317.266333 119.646,317.476333 119.45,317.621 C119.254,317.765667 119.025333,317.859 118.764,317.901 C118.502667,317.943 118.227333,317.964 117.938,317.964 L117.938,317.964 Z M131.224,319 C131.774667,319 132.241333,318.911333 132.624,318.734 C133.006667,318.556667 133.319333,318.325667 133.562,318.041 C133.804667,317.756333 133.982,317.429667 134.094,317.061 C134.206,316.692333 134.262,316.312 134.262,315.92 C134.262,315.528 134.203667,315.147667 134.087,314.779 C133.970333,314.410333 133.788333,314.083667 133.541,313.799 C133.293667,313.514333 132.974,313.283333 132.582,313.106 C132.19,312.928667 131.718667,312.84 131.168,312.84 L131.168,312.84 L127.276,312.84 L127.276,313.092 C127.490667,313.092 127.598,313.162 127.598,313.302 L127.598,313.302 L127.598,318.538 C127.598,318.678 127.490667,318.748 127.276,318.748 L127.276,318.748 L127.276,319 L131.224,319 Z M130.762,317.964 L128.942,317.964 L128.942,313.876 L130.762,313.876 C131.051333,313.876 131.326667,313.892333 131.588,313.925 C131.849333,313.957667 132.078,314.041667 132.274,314.177 C132.47,314.312333 132.626333,314.513 132.743,314.779 C132.859667,315.045 132.918,315.411333 132.918,315.878 C132.918,316.344667 132.859667,316.715667 132.743,316.991 C132.626333,317.266333 132.47,317.476333 132.274,317.621 C132.078,317.765667 131.849333,317.859 131.588,317.901 C131.326667,317.943 131.051333,317.964 130.762,317.964 L130.762,317.964 Z M139.162,319.042 C139.675333,319.042 140.158333,318.983667 140.611,318.867 C141.063667,318.750333 141.458,318.561333 141.794,318.3 C142.13,318.038667 142.396,317.709667 142.592,317.313 C142.788,316.916333 142.886,316.452 142.886,315.92 C142.886,315.388 142.788,314.923667 142.592,314.527 C142.396,314.130333 142.13,313.801333 141.794,313.54 C141.458,313.278667 141.063667,313.082667 140.611,312.952 C140.158333,312.821333 139.675333,312.756 139.162,312.756 C138.648667,312.756 138.165667,312.821333 137.713,312.952 C137.260333,313.082667 136.866,313.278667 136.53,313.54 C136.194,313.801333 135.928,314.130333 135.732,314.527 C135.536,314.923667 135.438,315.388 135.438,315.92 C135.438,316.452 135.536,316.916333 135.732,317.313 C135.928,317.709667 136.194,318.038667 136.53,318.3 C136.866,318.561333 137.260333,318.750333 137.713,318.867 C138.165667,318.983667 138.648667,319.042 139.162,319.042 Z M139.162,318.048 C138.863333,318.048 138.571667,317.999 138.287,317.901 C138.002333,317.803 137.748,317.663 137.524,317.481 C137.3,317.299 137.120333,317.077333 136.985,316.816 C136.849667,316.554667 136.782,316.256 136.782,315.92 C136.782,315.584 136.849667,315.285333 136.985,315.024 C137.120333,314.762667 137.3,314.541 137.524,314.359 C137.748,314.177 138.002333,314.037 138.287,313.939 C138.571667,313.841 138.863333,313.792 139.162,313.792 C139.460667,313.792 139.752333,313.841 140.037,313.939 C140.321667,314.037 140.576,314.177 140.8,314.359 C141.024,314.541 141.203667,314.762667 141.339,315.024 C141.474333,315.285333 141.542,315.584 141.542,315.92 C141.542,316.256 141.474333,316.554667 141.339,316.816 C141.203667,317.077333 141.024,317.299 140.8,317.481 C140.576,317.663 140.321667,317.803 140.037,317.901 C139.752333,317.999 139.460667,318.048 139.162,318.048 Z M152.14,319 L152.14,318.748 C151.972,318.748 151.888,318.678 151.888,318.538 L151.888,318.538 L151.888,313.876 L153.708,313.876 C153.782667,313.876 153.852667,313.894667 153.918,313.932 C153.983333,313.969333 154.016,314.03 154.016,314.114 L154.016,314.114 L154.268,314.114 L154.268,312.504 L154.016,312.504 C154.016,312.634667 153.983333,312.723333 153.918,312.77 C153.852667,312.816667 153.782667,312.84 153.708,312.84 L153.708,312.84 L148.724,312.84 C148.649333,312.84 148.579333,312.816667 148.514,312.77 C148.448667,312.723333 148.416,312.634667 148.416,312.504 L148.416,312.504 L148.164,312.504 L148.164,314.114 L148.416,314.114 C148.416,314.03 148.448667,313.969333 148.514,313.932 C148.579333,313.894667 148.649333,313.876 148.724,313.876 L148.724,313.876 L150.544,313.876 L150.544,318.538 C150.544,318.612667 150.520667,318.666333 150.474,318.699 C150.427333,318.731667 150.380667,318.748 150.334,318.748 L150.334,318.748 L150.334,319 L152.14,319 Z M157.712,319 L157.712,318.748 C157.656,318.748 157.607,318.731667 157.565,318.699 C157.523,318.666333 157.502,318.612667 157.502,318.538 L157.502,318.538 L157.502,316.424 L161.254,316.424 L161.254,318.538 C161.254,318.612667 161.233,318.666333 161.191,318.699 C161.149,318.731667 161.1,318.748 161.044,318.748 L161.044,318.748 L161.044,319 L162.808,319 L162.808,318.748 C162.752,318.748 162.703,318.731667 162.661,318.699 C162.619,318.666333 162.598,318.612667 162.598,318.538 L162.598,318.538 L162.598,313.302 C162.598,313.227333 162.619,313.173667 162.661,313.141 C162.703,313.108333 162.752,313.092 162.808,313.092 L162.808,313.092 L162.808,312.84 L161.044,312.84 L161.044,313.092 C161.1,313.092 161.149,313.108333 161.191,313.141 C161.233,313.173667 161.254,313.227333 161.254,313.302 L161.254,313.302 L161.254,315.276 L157.502,315.276 L157.502,313.302 C157.502,313.227333 157.523,313.173667 157.565,313.141 C157.607,313.108333 157.656,313.092 157.712,313.092 L157.712,313.092 L157.712,312.84 L155.948,312.84 L155.948,313.092 C156.004,313.092 156.053,313.108333 156.095,313.141 C156.137,313.173667 156.158,313.227333 156.158,313.302 L156.158,313.302 L156.158,318.538 C156.158,318.612667 156.137,318.666333 156.095,318.699 C156.053,318.731667 156.004,318.748 155.948,318.748 L155.948,318.748 L155.948,319 L157.712,319 Z M166.14,319 L166.14,318.748 C166.056,318.748 165.990667,318.738667 165.944,318.72 C165.897333,318.701333 165.874,318.654667 165.874,318.58 C165.874,318.533333 165.885667,318.479667 165.909,318.419 C165.932333,318.358333 165.962667,318.290667 166,318.216 L166,318.216 L166.392,317.46 L169.388,317.46 L169.766,318.258 C169.794,318.332667 169.817333,318.393333 169.836,318.44 C169.854667,318.486667 169.864,318.538 169.864,318.594 C169.864,318.668667 169.838333,318.72 169.787,318.748 C169.735667,318.776 169.686667,318.79 169.64,318.79 L169.64,318.79 L169.64,319 L171.628,319 L171.628,318.748 C171.562667,318.729333 171.502,318.701333 171.446,318.664 C171.39,318.626667 171.338667,318.566 171.292,318.482 L171.292,318.482 L169.024,313.722 C168.977333,313.619333 168.933,313.528333 168.891,313.449 C168.849,313.369667 168.828,313.302 168.828,313.246 C168.828,313.180667 168.844333,313.143333 168.877,313.134 C168.909667,313.124667 168.94,313.110667 168.968,313.092 L168.968,313.092 L168.968,312.84 L166.854,312.84 L166.854,313.092 C166.882,313.110667 166.907667,313.127 166.931,313.141 C166.954333,313.155 166.966,313.19 166.966,313.246 C166.966,313.320667 166.949667,313.397667 166.917,313.477 C166.884333,313.556333 166.84,313.661333 166.784,313.792 L166.784,313.792 L164.698,318.342 C164.660667,318.416667 164.607,318.498333 164.537,318.587 C164.467,318.675667 164.376,318.729333 164.264,318.748 L164.264,318.748 L164.264,319 L166.14,319 Z M168.94,316.424 L166.812,316.424 L167.806,314.072 L168.94,316.424 Z M176.262,319 L176.262,318.748 C176.094,318.748 176.01,318.678 176.01,318.538 L176.01,318.538 L176.01,313.876 L177.83,313.876 C177.904667,313.876 177.974667,313.894667 178.04,313.932 C178.105333,313.969333 178.138,314.03 178.138,314.114 L178.138,314.114 L178.39,314.114 L178.39,312.504 L178.138,312.504 C178.138,312.634667 178.105333,312.723333 178.04,312.77 C177.974667,312.816667 177.904667,312.84 177.83,312.84 L177.83,312.84 L172.846,312.84 C172.771333,312.84 172.701333,312.816667 172.636,312.77 C172.570667,312.723333 172.538,312.634667 172.538,312.504 L172.538,312.504 L172.286,312.504 L172.286,314.114 L172.538,314.114 C172.538,314.03 172.570667,313.969333 172.636,313.932 C172.701333,313.894667 172.771333,313.876 172.846,313.876 L172.846,313.876 L174.666,313.876 L174.666,318.538 C174.666,318.612667 174.642667,318.666333 174.596,318.699 C174.549333,318.731667 174.502667,318.748 174.456,318.748 L174.456,318.748 L174.456,319 L176.262,319 Z M182.87,316.452 L182.87,316.284 C182.786,316.284 182.725333,316.249 182.688,316.179 C182.650667,316.109 182.632,316.022667 182.632,315.92 C182.632,315.705333 182.716,315.504667 182.884,315.318 C183.052,315.131333 183.234,314.930667 183.43,314.716 C183.635333,314.501333 183.819667,314.265667 183.983,314.009 C184.146333,313.752333 184.228,313.451333 184.228,313.106 C184.228,312.826 184.169667,312.576333 184.053,312.357 C183.936333,312.137667 183.78,311.955667 183.584,311.811 C183.388,311.666333 183.166333,311.554333 182.919,311.475 C182.671667,311.395667 182.422,311.356 182.17,311.356 C181.778,311.356 181.460667,311.402667 181.218,311.496 C180.975333,311.589333 180.774667,311.689667 180.616,311.797 C180.457333,311.904333 180.329,312.004667 180.231,312.098 C180.133,312.191333 180.037333,312.238 179.944,312.238 C179.934667,312.238 179.883333,312.228667 179.79,312.21 L179.79,312.21 L179.664,312.336 L180.742,313.512 L180.868,313.414 C180.84,313.33 180.826,313.246 180.826,313.162 C180.826,313.106 180.851667,313.033667 180.903,312.945 C180.954333,312.856333 181.029,312.774667 181.127,312.7 C181.225,312.625333 181.346333,312.56 181.491,312.504 C181.635667,312.448 181.796667,312.42 181.974,312.42 C182.216667,312.42 182.419667,312.492333 182.583,312.637 C182.746333,312.781667 182.828,312.98 182.828,313.232 C182.828,313.446667 182.767333,313.635667 182.646,313.799 C182.524667,313.962333 182.384667,314.137333 182.226,314.324 C182.076667,314.501333 181.934333,314.706667 181.799,314.94 C181.663667,315.173333 181.577333,315.486 181.54,315.878 C181.521333,316.036667 181.491,316.144 181.449,316.2 C181.407,316.256 181.358,316.284 181.302,316.284 L181.302,316.284 L181.302,316.452 L182.87,316.452 Z M182.072,319.042 C182.314667,319.042 182.524667,318.960333 182.702,318.797 C182.879333,318.633667 182.968,318.430667 182.968,318.188 C182.968,317.945333 182.879333,317.735333 182.702,317.558 C182.524667,317.380667 182.314667,317.292 182.072,317.292 C181.829333,317.292 181.619333,317.380667 181.442,317.558 C181.264667,317.735333 181.176,317.945333 181.176,318.188 C181.176,318.430667 181.264667,318.633667 181.442,318.797 C181.619333,318.960333 181.829333,319.042 182.072,319.042 Z M63.198,333 C63.7113333,333 64.1896667,332.925333 64.633,332.776 C65.0763333,332.626667 65.4613333,332.400333 65.788,332.097 C66.1146667,331.793667 66.3713333,331.411 66.558,330.949 C66.7446667,330.487 66.838,329.943333 66.838,329.318 C66.838,328.692667 66.7446667,328.149 66.558,327.687 C66.3713333,327.225 66.1146667,326.842333 65.788,326.539 C65.4613333,326.235667 65.0763333,326.009333 64.633,325.86 C64.1896667,325.710667 63.7113333,325.636 63.198,325.636 L63.198,325.636 L58.55,325.636 L58.55,325.888 C58.7646667,325.888 58.872,325.972 58.872,326.14 L58.872,326.14 L58.872,332.496 C58.872,332.664 58.7646667,332.748 58.55,332.748 L58.55,332.748 L58.55,333 L63.198,333 Z M62.638,331.796 L60.468,331.796 L60.468,326.84 L62.638,326.84 C63.0766667,326.84 63.4593333,326.877333 63.786,326.952 C64.1126667,327.026667 64.3833333,327.159667 64.598,327.351 C64.8126667,327.542333 64.9736667,327.796667 65.081,328.114 C65.1883333,328.431333 65.242,328.832667 65.242,329.318 C65.242,329.803333 65.1883333,330.204667 65.081,330.522 C64.9736667,330.839333 64.8126667,331.093667 64.598,331.285 C64.3833333,331.476333 64.1126667,331.609333 63.786,331.684 C63.4593333,331.758667 63.0766667,331.796 62.638,331.796 L62.638,331.796 Z M70.576,333 L70.576,332.748 C70.52,332.748 70.4616667,332.731667 70.401,332.699 C70.3403333,332.666333 70.31,332.612667 70.31,332.538 L70.31,332.538 L70.31,330.536 L72.256,330.536 L73.362,332.188 C73.502,332.384 73.572,332.528667 73.572,332.622 C73.572,332.706 73.5113333,332.748 73.39,332.748 L73.39,332.748 L73.39,333 L75.532,333 L75.532,332.748 C75.4293333,332.72 75.3336667,332.680333 75.245,332.629 C75.1563333,332.577667 75.0746667,332.500667 75,332.398 L75,332.398 L73.628,330.396 C73.824,330.349333 74.0153333,330.281667 74.202,330.193 C74.3886667,330.104333 74.559,329.987667 74.713,329.843 C74.867,329.698333 74.9906667,329.528 75.084,329.332 C75.1773333,329.136 75.224,328.912 75.224,328.66 C75.224,327.997333 74.9906667,327.528333 74.524,327.253 C74.0573333,326.977667 73.4086667,326.84 72.578,326.84 L72.578,326.84 L68.714,326.84 L68.714,327.092 C68.882,327.092 68.966,327.162 68.966,327.302 L68.966,327.302 L68.966,332.538 C68.966,332.678 68.882,332.748 68.714,332.748 L68.714,332.748 L68.714,333 L70.576,333 Z M72.55,329.5 L70.338,329.5 L70.338,327.876 L72.55,327.876 C73.026,327.876 73.3736667,327.943667 73.593,328.079 C73.8123333,328.214333 73.922,328.398667 73.922,328.632 C73.922,329.210667 73.4646667,329.5 72.55,329.5 L72.55,329.5 Z M78.262,333 L78.262,332.748 C78.178,332.748 78.1126667,332.738667 78.066,332.72 C78.0193333,332.701333 77.996,332.654667 77.996,332.58 C77.996,332.533333 78.0076667,332.479667 78.031,332.419 C78.0543333,332.358333 78.0846667,332.290667 78.122,332.216 L78.122,332.216 L78.514,331.46 L81.51,331.46 L81.888,332.258 C81.916,332.332667 81.9393333,332.393333 81.958,332.44 C81.9766667,332.486667 81.986,332.538 81.986,332.594 C81.986,332.668667 81.9603333,332.72 81.909,332.748 C81.8576667,332.776 81.8086667,332.79 81.762,332.79 L81.762,332.79 L81.762,333 L83.75,333 L83.75,332.748 C83.6846667,332.729333 83.624,332.701333 83.568,332.664 C83.512,332.626667 83.4606667,332.566 83.414,332.482 L83.414,332.482 L81.146,327.722 C81.0993333,327.619333 81.055,327.528333 81.013,327.449 C80.971,327.369667 80.95,327.302 80.95,327.246 C80.95,327.180667 80.9663333,327.143333 80.999,327.134 C81.0316667,327.124667 81.062,327.110667 81.09,327.092 L81.09,327.092 L81.09,326.84 L78.976,326.84 L78.976,327.092 C79.004,327.110667 79.0296667,327.127 79.053,327.141 C79.0763333,327.155 79.088,327.19 79.088,327.246 C79.088,327.320667 79.0716667,327.397667 79.039,327.477 C79.0063333,327.556333 78.962,327.661333 78.906,327.792 L78.906,327.792 L76.82,332.342 C76.7826667,332.416667 76.729,332.498333 76.659,332.587 C76.589,332.675667 76.498,332.729333 76.386,332.748 L76.386,332.748 L76.386,333 L78.262,333 Z M81.062,330.424 L78.934,330.424 L79.928,328.072 L81.062,330.424 Z M88.034,333 L88.034,332.748 C87.95,332.748 87.894,332.734 87.866,332.706 C87.838,332.678 87.824,332.626667 87.824,332.552 C87.824,332.524 87.859,332.419 87.929,332.237 C87.999,332.055 88.0876667,331.831 88.195,331.565 C88.3023333,331.299 88.419,331.009667 88.545,330.697 C88.671,330.384333 88.79,330.085667 88.902,329.801 C89.014,329.516333 89.112,329.264333 89.196,329.045 C89.28,328.825667 89.3313333,328.674 89.35,328.59 L89.35,328.59 L89.378,328.59 C89.5273333,329.056667 89.6813333,329.518667 89.84,329.976 C89.9986667,330.433333 90.1456667,330.846333 90.281,331.215 C90.4163333,331.583667 90.526,331.889333 90.61,332.132 C90.694,332.374667 90.736,332.514667 90.736,332.552 C90.736,332.626667 90.7266667,332.675667 90.708,332.699 C90.6893333,332.722333 90.6426667,332.738667 90.568,332.748 L90.568,332.748 L90.568,333 L92.528,333 L92.528,332.748 C92.3973333,332.748 92.332,332.687333 92.332,332.566 C92.332,332.519333 92.36,332.433 92.416,332.307 C92.472,332.181 92.528,332.038667 92.584,331.88 L92.584,331.88 L94.194,327.61 C94.3153333,327.264667 94.4553333,327.092 94.614,327.092 L94.614,327.092 L94.614,326.84 L92.836,326.84 L92.836,327.092 C92.9853333,327.092 93.06,327.157333 93.06,327.288 C93.06,327.353333 93.0436667,327.435 93.011,327.533 C92.9783333,327.631 92.9386667,327.745333 92.892,327.876 L92.892,327.876 L91.59,331.278 L90.358,327.904 C90.3113333,327.792 90.2646667,327.673 90.218,327.547 C90.1713333,327.421 90.148,327.325333 90.148,327.26 C90.148,327.148 90.232,327.092 90.4,327.092 L90.4,327.092 L90.4,326.84 L88.398,326.84 L88.398,327.092 C88.5473333,327.092 88.622,327.157333 88.622,327.288 C88.622,327.362667 88.601,327.458333 88.559,327.575 C88.517,327.691667 88.4726667,327.815333 88.426,327.946 L88.426,327.946 L87.236,331.278 L87.208,331.278 L85.976,327.876 C85.92,327.726667 85.8733333,327.603 85.836,327.505 C85.7986667,327.407 85.78,327.334667 85.78,327.288 C85.78,327.157333 85.8406667,327.092 85.962,327.092 L85.962,327.092 L85.962,326.84 L84.184,326.84 L84.184,327.092 C84.324,327.12 84.422,327.208667 84.478,327.358 L84.478,327.358 L86.326,332.216 C86.3446667,332.262667 86.3703333,332.330333 86.403,332.419 C86.4356667,332.507667 86.452,332.58 86.452,332.636 C86.452,332.692 86.438,332.724667 86.41,332.734 C86.382,332.743333 86.3493333,332.748 86.312,332.748 L86.312,332.748 L86.312,333 L88.034,333 Z M103.546,333 L103.546,332.748 C103.378,332.748 103.294,332.678 103.294,332.538 L103.294,332.538 L103.294,327.876 L105.114,327.876 C105.188667,327.876 105.258667,327.894667 105.324,327.932 C105.389333,327.969333 105.422,328.03 105.422,328.114 L105.422,328.114 L105.674,328.114 L105.674,326.504 L105.422,326.504 C105.422,326.634667 105.389333,326.723333 105.324,326.77 C105.258667,326.816667 105.188667,326.84 105.114,326.84 L105.114,326.84 L100.13,326.84 C100.055333,326.84 99.9853333,326.816667 99.92,326.77 C99.8546667,326.723333 99.822,326.634667 99.822,326.504 L99.822,326.504 L99.57,326.504 L99.57,328.114 L99.822,328.114 C99.822,328.03 99.8546667,327.969333 99.92,327.932 C99.9853333,327.894667 100.055333,327.876 100.13,327.876 L100.13,327.876 L101.95,327.876 L101.95,332.538 C101.95,332.612667 101.926667,332.666333 101.88,332.699 C101.833333,332.731667 101.786667,332.748 101.74,332.748 L101.74,332.748 L101.74,333 L103.546,333 Z M110.196,333 L110.196,332.748 C110.112,332.748 110.056,332.734 110.028,332.706 C110,332.678 109.986,332.626667 109.986,332.552 C109.986,332.524 110.021,332.419 110.091,332.237 C110.161,332.055 110.249667,331.831 110.357,331.565 C110.464333,331.299 110.581,331.009667 110.707,330.697 C110.833,330.384333 110.952,330.085667 111.064,329.801 C111.176,329.516333 111.274,329.264333 111.358,329.045 C111.442,328.825667 111.493333,328.674 111.512,328.59 L111.512,328.59 L111.54,328.59 C111.689333,329.056667 111.843333,329.518667 112.002,329.976 C112.160667,330.433333 112.307667,330.846333 112.443,331.215 C112.578333,331.583667 112.688,331.889333 112.772,332.132 C112.856,332.374667 112.898,332.514667 112.898,332.552 C112.898,332.626667 112.888667,332.675667 112.87,332.699 C112.851333,332.722333 112.804667,332.738667 112.73,332.748 L112.73,332.748 L112.73,333 L114.69,333 L114.69,332.748 C114.559333,332.748 114.494,332.687333 114.494,332.566 C114.494,332.519333 114.522,332.433 114.578,332.307 C114.634,332.181 114.69,332.038667 114.746,331.88 L114.746,331.88 L116.356,327.61 C116.477333,327.264667 116.617333,327.092 116.776,327.092 L116.776,327.092 L116.776,326.84 L114.998,326.84 L114.998,327.092 C115.147333,327.092 115.222,327.157333 115.222,327.288 C115.222,327.353333 115.205667,327.435 115.173,327.533 C115.140333,327.631 115.100667,327.745333 115.054,327.876 L115.054,327.876 L113.752,331.278 L112.52,327.904 C112.473333,327.792 112.426667,327.673 112.38,327.547 C112.333333,327.421 112.31,327.325333 112.31,327.26 C112.31,327.148 112.394,327.092 112.562,327.092 L112.562,327.092 L112.562,326.84 L110.56,326.84 L110.56,327.092 C110.709333,327.092 110.784,327.157333 110.784,327.288 C110.784,327.362667 110.763,327.458333 110.721,327.575 C110.679,327.691667 110.634667,327.815333 110.588,327.946 L110.588,327.946 L109.398,331.278 L109.37,331.278 L108.138,327.876 C108.082,327.726667 108.035333,327.603 107.998,327.505 C107.960667,327.407 107.942,327.334667 107.942,327.288 C107.942,327.157333 108.002667,327.092 108.124,327.092 L108.124,327.092 L108.124,326.84 L106.346,326.84 L106.346,327.092 C106.486,327.12 106.584,327.208667 106.64,327.358 L106.64,327.358 L108.488,332.216 C108.506667,332.262667 108.532333,332.330333 108.565,332.419 C108.597667,332.507667 108.614,332.58 108.614,332.636 C108.614,332.692 108.6,332.724667 108.572,332.734 C108.544,332.743333 108.511333,332.748 108.474,332.748 L108.474,332.748 L108.474,333 L110.196,333 Z M121.284,333.042 C121.797333,333.042 122.280333,332.983667 122.733,332.867 C123.185667,332.750333 123.58,332.561333 123.916,332.3 C124.252,332.038667 124.518,331.709667 124.714,331.313 C124.91,330.916333 125.008,330.452 125.008,329.92 C125.008,329.388 124.91,328.923667 124.714,328.527 C124.518,328.130333 124.252,327.801333 123.916,327.54 C123.58,327.278667 123.185667,327.082667 122.733,326.952 C122.280333,326.821333 121.797333,326.756 121.284,326.756 C120.770667,326.756 120.287667,326.821333 119.835,326.952 C119.382333,327.082667 118.988,327.278667 118.652,327.54 C118.316,327.801333 118.05,328.130333 117.854,328.527 C117.658,328.923667 117.56,329.388 117.56,329.92 C117.56,330.452 117.658,330.916333 117.854,331.313 C118.05,331.709667 118.316,332.038667 118.652,332.3 C118.988,332.561333 119.382333,332.750333 119.835,332.867 C120.287667,332.983667 120.770667,333.042 121.284,333.042 Z M121.284,332.048 C120.985333,332.048 120.693667,331.999 120.409,331.901 C120.124333,331.803 119.87,331.663 119.646,331.481 C119.422,331.299 119.242333,331.077333 119.107,330.816 C118.971667,330.554667 118.904,330.256 118.904,329.92 C118.904,329.584 118.971667,329.285333 119.107,329.024 C119.242333,328.762667 119.422,328.541 119.646,328.359 C119.87,328.177 120.124333,328.037 120.409,327.939 C120.693667,327.841 120.985333,327.792 121.284,327.792 C121.582667,327.792 121.874333,327.841 122.159,327.939 C122.443667,328.037 122.698,328.177 122.922,328.359 C123.146,328.541 123.325667,328.762667 123.461,329.024 C123.596333,329.285333 123.664,329.584 123.664,329.92 C123.664,330.256 123.596333,330.554667 123.461,330.816 C123.325667,331.077333 123.146,331.299 122.922,331.481 C122.698,331.663 122.443667,331.803 122.159,331.901 C121.874333,331.999 121.582667,332.048 121.284,332.048 Z M136.138,333 C136.576667,333 136.968667,332.951 137.314,332.853 C137.659333,332.755 137.951,332.617333 138.189,332.44 C138.427,332.262667 138.606667,332.055 138.728,331.817 C138.849333,331.579 138.91,331.32 138.91,331.04 C138.91,330.508 138.758333,330.099667 138.455,329.815 C138.151667,329.530333 137.780667,329.322667 137.342,329.192 L137.342,329.192 L137.342,329.164 C137.715333,329.033333 138.037333,328.849 138.308,328.611 C138.578667,328.373 138.714,328.034667 138.714,327.596 C138.714,327.232 138.620667,326.926333 138.434,326.679 C138.247333,326.431667 138,326.231 137.692,326.077 C137.384,325.923 137.029333,325.811 136.628,325.741 C136.226667,325.671 135.811333,325.636 135.382,325.636 L135.382,325.636 L131,325.636 L131,325.888 C131.261333,325.888 131.392,325.972 131.392,326.14 L131.392,326.14 L131.392,332.496 C131.392,332.664 131.261333,332.748 131,332.748 L131,332.748 L131,333 L136.138,333 Z M135.662,328.52 L132.988,328.52 L132.988,326.84 L135.662,326.84 C136.082,326.84 136.429667,326.893667 136.705,327.001 C136.980333,327.108333 137.118,327.334667 137.118,327.68 C137.118,328.025333 136.980333,328.251667 136.705,328.359 C136.429667,328.466333 136.082,328.52 135.662,328.52 L135.662,328.52 Z M135.662,331.712 L132.988,331.712 L132.988,329.724 L135.662,329.724 C136.25,329.724 136.672333,329.815 136.929,329.997 C137.185667,330.179 137.314,330.419333 137.314,330.718 C137.314,331.016667 137.185667,331.257 136.929,331.439 C136.672333,331.621 136.25,331.712 135.662,331.712 L135.662,331.712 Z M144.664,333.042 C145.224,333.042 145.711667,332.983667 146.127,332.867 C146.542333,332.750333 146.883,332.589333 147.149,332.384 C147.415,332.178667 147.613333,331.943 147.744,331.677 C147.874667,331.411 147.94,331.133333 147.94,330.844 L147.94,330.844 L147.94,327.302 C147.94,327.162 148.042667,327.092 148.248,327.092 L148.248,327.092 L148.248,326.84 L146.302,326.84 L146.302,327.092 C146.535333,327.092 146.652,327.162 146.652,327.302 L146.652,327.302 L146.652,330.508 C146.652,330.956 146.488667,331.315333 146.162,331.586 C145.835333,331.856667 145.336,331.992 144.664,331.992 C143.992,331.992 143.492667,331.856667 143.166,331.586 C142.839333,331.315333 142.676,330.956 142.676,330.508 L142.676,330.508 L142.676,327.302 C142.676,327.162 142.778667,327.092 142.984,327.092 L142.984,327.092 L142.984,326.84 L140.982,326.84 L140.982,327.092 C141.140667,327.092 141.248,327.108333 141.304,327.141 C141.36,327.173667 141.388,327.227333 141.388,327.302 L141.388,327.302 L141.388,330.844 C141.388,331.133333 141.453333,331.411 141.584,331.677 C141.714667,331.943 141.913,332.178667 142.179,332.384 C142.445,332.589333 142.785667,332.750333 143.201,332.867 C143.616333,332.983667 144.104,333.042 144.664,333.042 Z M153.708,333 L153.708,332.748 C153.54,332.748 153.456,332.678 153.456,332.538 L153.456,332.538 L153.456,327.876 L155.276,327.876 C155.350667,327.876 155.420667,327.894667 155.486,327.932 C155.551333,327.969333 155.584,328.03 155.584,328.114 L155.584,328.114 L155.836,328.114 L155.836,326.504 L155.584,326.504 C155.584,326.634667 155.551333,326.723333 155.486,326.77 C155.420667,326.816667 155.350667,326.84 155.276,326.84 L155.276,326.84 L150.292,326.84 C150.217333,326.84 150.147333,326.816667 150.082,326.77 C150.016667,326.723333 149.984,326.634667 149.984,326.504 L149.984,326.504 L149.732,326.504 L149.732,328.114 L149.984,328.114 C149.984,328.03 150.016667,327.969333 150.082,327.932 C150.147333,327.894667 150.217333,327.876 150.292,327.876 L150.292,327.876 L152.112,327.876 L152.112,332.538 C152.112,332.612667 152.088667,332.666333 152.042,332.699 C151.995333,332.731667 151.948667,332.748 151.902,332.748 L151.902,332.748 L151.902,333 L153.708,333 Z M160.708,333 L160.708,332.748 C160.54,332.748 160.456,332.678 160.456,332.538 L160.456,332.538 L160.456,327.876 L162.276,327.876 C162.350667,327.876 162.420667,327.894667 162.486,327.932 C162.551333,327.969333 162.584,328.03 162.584,328.114 L162.584,328.114 L162.836,328.114 L162.836,326.504 L162.584,326.504 C162.584,326.634667 162.551333,326.723333 162.486,326.77 C162.420667,326.816667 162.350667,326.84 162.276,326.84 L162.276,326.84 L157.292,326.84 C157.217333,326.84 157.147333,326.816667 157.082,326.77 C157.016667,326.723333 156.984,326.634667 156.984,326.504 L156.984,326.504 L156.732,326.504 L156.732,328.114 L156.984,328.114 C156.984,328.03 157.016667,327.969333 157.082,327.932 C157.147333,327.894667 157.217333,327.876 157.292,327.876 L157.292,327.876 L159.112,327.876 L159.112,332.538 C159.112,332.612667 159.088667,332.666333 159.042,332.699 C158.995333,332.731667 158.948667,332.748 158.902,332.748 L158.902,332.748 L158.902,333 L160.708,333 Z M172.79,333.042 C173.238,333.042 173.667333,332.990667 174.078,332.888 C174.488667,332.785333 174.855,332.664 175.177,332.524 C175.499,332.384 175.765,332.258 175.975,332.146 C176.185,332.034 176.318,331.978 176.374,331.978 C176.402,331.978 176.427667,331.980333 176.451,331.985 C176.474333,331.989667 176.5,331.992 176.528,331.992 L176.528,331.992 L176.64,331.88 L175.716,330.396 L175.52,330.508 C175.557333,330.554667 175.576,330.610667 175.576,330.676 C175.576,330.797333 175.485,330.925667 175.303,331.061 C175.121,331.196333 174.894667,331.317667 174.624,331.425 C174.353333,331.532333 174.054667,331.621 173.728,331.691 C173.401333,331.761 173.088667,331.796 172.79,331.796 C172.398,331.796 172.022333,331.74 171.663,331.628 C171.303667,331.516 170.991,331.352667 170.725,331.138 C170.459,330.923333 170.246667,330.659667 170.088,330.347 C169.929333,330.034333 169.85,329.677333 169.85,329.276 C169.85,328.874667 169.929333,328.517667 170.088,328.205 C170.246667,327.892333 170.459,327.628667 170.725,327.414 C170.991,327.199333 171.303667,327.036 171.663,326.924 C172.022333,326.812 172.398,326.756 172.79,326.756 C173.023333,326.756 173.277667,326.784 173.553,326.84 C173.828333,326.896 174.089667,326.966 174.337,327.05 C174.584333,327.134 174.792,327.229667 174.96,327.337 C175.128,327.444333 175.221333,327.549333 175.24,327.652 C175.249333,327.689333 175.256333,327.722 175.261,327.75 C175.265667,327.778 175.268,327.806 175.268,327.834 L175.268,327.834 L175.408,327.932 L176.5,326.238 L176.29,326.07 C176.271333,326.098 176.245667,326.135333 176.213,326.182 C176.180333,326.228667 176.140667,326.252 176.094,326.252 C176.056667,326.252 175.954,326.214667 175.786,326.14 C175.618,326.065333 175.389333,325.986 175.1,325.902 C174.810667,325.818 174.472333,325.738667 174.085,325.664 C173.697667,325.589333 173.266,325.552 172.79,325.552 C172.202,325.552 171.637333,325.631333 171.096,325.79 C170.554667,325.948667 170.076333,326.186667 169.661,326.504 C169.245667,326.821333 168.916667,327.215667 168.674,327.687 C168.431333,328.158333 168.31,328.702 168.31,329.318 C168.31,329.943333 168.431333,330.489333 168.674,330.956 C168.916667,331.422667 169.245667,331.812333 169.661,332.125 C170.076333,332.437667 170.554667,332.668667 171.096,332.818 C171.637333,332.967333 172.202,333.042 172.79,333.042 Z M181.932,333.042 C182.445333,333.042 182.928333,332.983667 183.381,332.867 C183.833667,332.750333 184.228,332.561333 184.564,332.3 C184.9,332.038667 185.166,331.709667 185.362,331.313 C185.558,330.916333 185.656,330.452 185.656,329.92 C185.656,329.388 185.558,328.923667 185.362,328.527 C185.166,328.130333 184.9,327.801333 184.564,327.54 C184.228,327.278667 183.833667,327.082667 183.381,326.952 C182.928333,326.821333 182.445333,326.756 181.932,326.756 C181.418667,326.756 180.935667,326.821333 180.483,326.952 C180.030333,327.082667 179.636,327.278667 179.3,327.54 C178.964,327.801333 178.698,328.130333 178.502,328.527 C178.306,328.923667 178.208,329.388 178.208,329.92 C178.208,330.452 178.306,330.916333 178.502,331.313 C178.698,331.709667 178.964,332.038667 179.3,332.3 C179.636,332.561333 180.030333,332.750333 180.483,332.867 C180.935667,332.983667 181.418667,333.042 181.932,333.042 Z M181.932,332.048 C181.633333,332.048 181.341667,331.999 181.057,331.901 C180.772333,331.803 180.518,331.663 180.294,331.481 C180.07,331.299 179.890333,331.077333 179.755,330.816 C179.619667,330.554667 179.552,330.256 179.552,329.92 C179.552,329.584 179.619667,329.285333 179.755,329.024 C179.890333,328.762667 180.07,328.541 180.294,328.359 C180.518,328.177 180.772333,328.037 181.057,327.939 C181.341667,327.841 181.633333,327.792 181.932,327.792 C182.230667,327.792 182.522333,327.841 182.807,327.939 C183.091667,328.037 183.346,328.177 183.57,328.359 C183.794,328.541 183.973667,328.762667 184.109,329.024 C184.244333,329.285333 184.312,329.584 184.312,329.92 C184.312,330.256 184.244333,330.554667 184.109,330.816 C183.973667,331.077333 183.794,331.299 183.57,331.481 C183.346,331.663 183.091667,331.803 182.807,331.901 C182.522333,331.999 182.230667,332.048 181.932,332.048 Z M189.604,333 L189.604,332.748 C189.342667,332.748 189.212,332.678 189.212,332.538 L189.212,332.538 L189.212,327.302 C189.212,327.162 189.342667,327.092 189.604,327.092 L189.604,327.092 L189.604,326.84 L187.476,326.84 L187.476,327.092 C187.625333,327.092 187.728,327.108333 187.784,327.141 C187.84,327.173667 187.868,327.227333 187.868,327.302 L187.868,327.302 L187.868,332.538 C187.868,332.612667 187.84,332.666333 187.784,332.699 C187.728,332.731667 187.625333,332.748 187.476,332.748 L187.476,332.748 L187.476,333 L189.604,333 Z M193.734,333 L193.734,332.748 C193.538,332.748 193.44,332.678 193.44,332.538 L193.44,332.538 L193.44,328.464 L196.912,332.16 C197.024,332.281333 197.124333,332.388667 197.213,332.482 C197.301667,332.575333 197.346,332.640667 197.346,332.678 C197.346,332.724667 197.313333,332.748 197.248,332.748 L197.248,332.748 L197.248,333 L199.068,333 L199.068,332.748 C198.9,332.748 198.816,332.678 198.816,332.538 L198.816,332.538 L198.816,327.302 C198.816,327.162 198.9,327.092 199.068,327.092 L199.068,327.092 L199.068,326.84 L197.36,326.84 L197.36,327.092 C197.546667,327.092 197.64,327.162 197.64,327.302 L197.64,327.302 L197.64,331.096 L194.28,327.54 C194.074667,327.334667 193.972,327.208667 193.972,327.162 C193.972,327.124667 194.004667,327.101333 194.07,327.092 L194.07,327.092 L194.07,326.84 L192.012,326.84 L192.012,327.092 C192.18,327.092 192.264,327.162 192.264,327.302 L192.264,327.302 L192.264,332.538 C192.264,332.678 192.18,332.748 192.012,332.748 L192.012,332.748 L192.012,333 L193.734,333 Z M202.344,333.042 C202.614667,333.042 202.848,332.951 203.044,332.769 C203.24,332.587 203.338,332.360667 203.338,332.09 C203.338,331.819333 203.24,331.586 203.044,331.39 C202.848,331.194 202.614667,331.096 202.344,331.096 C202.073333,331.096 201.84,331.194 201.644,331.39 C201.448,331.586 201.35,331.819333 201.35,332.09 C201.35,332.360667 201.448,332.587 201.644,332.769 C201.84,332.951 202.073333,333.042 202.344,333.042 Z" id="Inventanewgame!ha!Whowoulddothat?DrawtwoButtCoin." fill="#000000" fill-rule="nonzero"></path>
    </g>
</svg>