<?xml version="1.0" encoding="UTF-8"?>
<svg width="262px" height="360px" viewBox="0 0 262 360" version="1.1" xmlns="http://www.w3.org/2000/svg" xmlns:xlink="http://www.w3.org/1999/xlink">
    <title>Headache 4</title>
    <g id="Headache-4" stroke="none" stroke-width="1" fill="none" fill-rule="evenodd">
        <g id="Group" transform="translate(9.000000, 9.000000)" fill="#FFFFFF" stroke="#000000" stroke-width="3">
            <g id="Rectangle">
                <rect x="1.5" y="1.5" width="239" height="337" rx="8"></rect>
            </g>
        </g>
        <path d="M216.124,30 L216.124,29.712 C215.964,29.712 215.82,29.668 215.692,29.58 C215.564,29.492 215.5,29.312 215.5,29.04 L215.5,29.04 L215.5,18.048 C215.5,17.888 215.564,17.768 215.692,17.688 C215.82,17.608 215.98,17.552 216.172,17.52 L216.172,17.52 L216.172,17.232 L212.284,17.232 L212.284,17.52 C212.46,17.552 212.6,17.6 212.704,17.664 C212.808,17.728 212.86,17.872 212.86,18.096 C212.86,18.336 212.768,18.54 212.584,18.708 C212.4,18.876 212.172,18.96 211.9,18.96 C211.772,18.96 211.636,18.932 211.492,18.876 C211.348,18.82 211.276,18.72 211.276,18.576 L211.276,18.576 L210.988,18.576 L210.988,21.6 L211.276,21.6 C211.324,21.472 211.408,21.372 211.528,21.3 C211.648,21.228 211.78,21.172 211.924,21.132 C212.068,21.092 212.216,21.064 212.368,21.048 C212.52,21.032 212.652,21.024 212.764,21.024 L212.764,21.024 L212.764,29.04 C212.764,29.312 212.704,29.492 212.584,29.58 C212.464,29.668 212.324,29.712 212.164,29.712 L212.164,29.712 L212.164,30 L216.124,30 Z" id="1" fill="#000000" fill-rule="nonzero"></path>
        <g id="Face" transform="translate(225.000000, 15.000000)">
            <circle id="Oval" stroke="#000000" fill="#FFFFFF" cx="9.5" cy="9.5" r="9"></circle>
            <circle id="Oval" fill="#000000" cx="5" cy="8" r="1"></circle>
            <circle id="Oval-Copy" fill="#000000" cx="12" cy="8" r="1"></circle>
            <line x1="12.0789474" y1="13.9090909" x2="14.5" y2="11.5" id="Line-4" stroke="#000000" stroke-linecap="round"></line>
            <path d="M3,5.89285714 C3.41025641,5.96428571 3.76923077,6 4.07692308,6 C4.38461538,6 5.35897436,5.33333333 7,4" id="Line-2" stroke="#000000"></path>
            <path d="M6,15 C6.96078431,14.3333333 8.07598039,14 9.34558824,14 C10.6151961,14 11.8333333,14.3333333 13,15" id="Line" stroke="#000000" stroke-linecap="round" stroke-linejoin="round"></path>
            <path d="M11.3197366,4.68245322 C11.585843,4.80663622 11.7912611,4.92388646 11.9359908,5.03420394 C12.548667,5.50120471 13.1333088,5.70898724 13.3155349,5.80010028 C13.5440857,5.91437569 13.8101922,6.00751295 14.1138542,6.07951204" id="Line-3" stroke="#000000" stroke-linecap="square" transform="translate(12.716795, 5.380983) rotate(-3.000000) translate(-12.716795, -5.380983) "></path>
            <path d="M2.999,9.347 L3.01687864,9.39698204 C3.09438102,9.62639002 3.1880913,9.89570266 3.30282211,10.2112791 C3.48139895,10.7024692 3.54804655,11.0169045 3.47980817,11.2204078 C3.41244402,11.421304 3.17143148,11.4011566 3.01518318,11.4416373 L3.01518318,11.4416373 L2.86575433,11.4813457 C2.78836954,11.5029149 2.70310591,11.5126925 2.63007237,11.4810832 C2.58941161,11.463485 2.56030088,11.4264037 2.54036126,11.376794 C2.4446463,11.1386559 2.49784548,10.759559 2.69717789,10.2112791 C2.8119087,9.89570266 2.90561898,9.62639002 2.98312136,9.39698204 L2.999,9.347 Z" id="Oval" stroke="#000000"></path>
            <path d="M16,6.347 L16.0168786,6.39698204 C16.094381,6.62639002 16.1880913,6.89570266 16.3028221,7.21127907 C16.481399,7.70246915 16.5480465,8.01690453 16.4798082,8.22040783 C16.412444,8.42130397 16.1714315,8.40115659 16.0151832,8.44163726 L16.0151832,8.44163726 L15.8657543,8.48134574 C15.7883695,8.50291486 15.7031059,8.51269255 15.6300724,8.48108319 C15.5894116,8.46348497 15.5603009,8.42640366 15.5403613,8.37679403 C15.4446463,8.13865595 15.4978455,7.75955902 15.6971779,7.21127907 C15.8119087,6.89570266 15.905619,6.62639002 15.9831214,6.39698204 L16,6.347 Z" id="Oval-Copy-2" stroke="#000000"></path>
        </g>
        <rect id="Rectangle" stroke="#000000" stroke-width="3" x="17.5" y="257.5" width="225" height="84" rx="8"></rect>
        <path d="M52.808,57 L52.808,56.352 C52.64,56.352 52.49,56.298 52.358,56.19 C52.226,56.082 52.16,55.92 52.16,55.704 L52.16,55.704 L52.16,48.936 L63.752,48.936 L63.752,55.704 C63.752,56.136 63.488,56.352 62.96,56.352 L62.96,56.352 L62.96,57 L68.504,57 L68.504,56.352 C68.336,56.352 68.186,56.298 68.054,56.19 C67.922,56.082 67.856,55.92 67.856,55.704 L67.856,55.704 L67.856,39.36 C67.856,39.144 67.922,38.982 68.054,38.874 C68.186,38.766 68.336,38.712 68.504,38.712 L68.504,38.712 L68.504,38.064 L62.96,38.064 L62.96,38.712 C63.488,38.712 63.752,38.928 63.752,39.36 L63.752,39.36 L63.752,45.48 L52.16,45.48 L52.16,39.36 C52.16,39.144 52.226,38.982 52.358,38.874 C52.49,38.766 52.64,38.712 52.808,38.712 L52.808,38.712 L52.808,38.064 L47.372,38.064 L47.372,38.712 C47.828,38.712 48.056,38.928 48.056,39.36 L48.056,39.36 L48.056,55.704 C48.056,56.136 47.828,56.352 47.372,56.352 L47.372,56.352 L47.372,57 L52.808,57 Z M89.78,57.396 L89.78,53.616 L89.132,53.616 C89.132,53.832 89.036,54.006 88.844,54.138 C88.652,54.27 88.412,54.336 88.124,54.336 L88.124,54.336 L78.908,54.336 L78.908,50.088 L84.164,50.088 C84.644,50.088 85.016,50.118 85.28,50.178 C85.544,50.238 85.64,50.4 85.568,50.664 L85.568,50.664 L86.288,50.664 L86.288,46.848 L85.64,46.848 C85.64,47.112 85.544,47.274 85.352,47.334 C85.16,47.394 84.86,47.424 84.452,47.424 L84.452,47.424 L78.908,47.424 L78.908,43.824 L87.692,43.824 C88.436,43.824 88.808,44.052 88.808,44.508 L88.808,44.508 L89.456,44.508 L89.456,40.512 L88.808,40.512 C88.808,40.944 88.436,41.16 87.692,41.16 L87.692,41.16 L74.912,41.16 L74.912,41.808 C75.032,41.808 75.152,41.85 75.272,41.934 C75.392,42.018 75.452,42.156 75.452,42.348 L75.452,42.348 L75.452,55.812 C75.452,56.004 75.392,56.142 75.272,56.226 C75.152,56.31 75.032,56.352 74.912,56.352 L74.912,56.352 L74.912,57 L88.124,57 C88.412,57 88.652,57.012 88.844,57.036 C89.036,57.06 89.132,57.18 89.132,57.396 L89.132,57.396 L89.78,57.396 Z M97.34,57 L97.34,56.352 C97.124,56.352 96.956,56.328 96.836,56.28 C96.716,56.232 96.656,56.112 96.656,55.92 C96.656,55.8 96.686,55.662 96.746,55.506 C96.806,55.35 96.884,55.176 96.98,54.984 L96.98,54.984 L97.988,53.04 L105.692,53.04 L106.664,55.092 C106.736,55.284 106.796,55.44 106.844,55.56 C106.892,55.68 106.916,55.812 106.916,55.956 C106.916,56.148 106.85,56.28 106.718,56.352 C106.586,56.424 106.46,56.46 106.34,56.46 L106.34,56.46 L106.34,57 L111.452,57 L111.452,56.352 C111.284,56.304 111.128,56.232 110.984,56.136 C110.84,56.04 110.708,55.884 110.588,55.668 L110.588,55.668 L104.756,43.428 C104.636,43.164 104.522,42.93 104.414,42.726 C104.306,42.522 104.252,42.348 104.252,42.204 C104.252,42.036 104.294,41.94 104.378,41.916 C104.462,41.892 104.54,41.856 104.612,41.808 L104.612,41.808 L104.612,41.16 L99.176,41.16 L99.176,41.808 C99.248,41.856 99.314,41.898 99.374,41.934 C99.434,41.97 99.464,42.06 99.464,42.204 C99.464,42.396 99.422,42.594 99.338,42.798 C99.254,43.002 99.14,43.272 98.996,43.608 L98.996,43.608 L93.632,55.308 C93.536,55.5 93.398,55.71 93.218,55.938 C93.038,56.166 92.804,56.304 92.516,56.352 L92.516,56.352 L92.516,57 L97.34,57 Z M104.54,50.376 L99.068,50.376 L101.624,44.328 L104.54,50.376 Z M124.556,57 C125.972,57 127.172,56.772 128.156,56.316 C129.14,55.86 129.944,55.266 130.568,54.534 C131.192,53.802 131.648,52.962 131.936,52.014 C132.224,51.066 132.368,50.088 132.368,49.08 C132.368,48.072 132.218,47.094 131.918,46.146 C131.618,45.198 131.15,44.358 130.514,43.626 C129.878,42.894 129.056,42.3 128.048,41.844 C127.04,41.388 125.828,41.16 124.412,41.16 L124.412,41.16 L114.404,41.16 L114.404,41.808 C114.956,41.808 115.232,41.988 115.232,42.348 L115.232,42.348 L115.232,55.812 C115.232,56.172 114.956,56.352 114.404,56.352 L114.404,56.352 L114.404,57 L124.556,57 Z M123.368,54.336 L118.688,54.336 L118.688,43.824 L123.368,43.824 C124.112,43.824 124.82,43.866 125.492,43.95 C126.164,44.034 126.752,44.25 127.256,44.598 C127.76,44.946 128.162,45.462 128.462,46.146 C128.762,46.83 128.912,47.772 128.912,48.972 C128.912,50.172 128.762,51.126 128.462,51.834 C128.162,52.542 127.76,53.082 127.256,53.454 C126.752,53.826 126.164,54.066 125.492,54.174 C124.82,54.282 124.112,54.336 123.368,54.336 L123.368,54.336 Z M139.352,57 L139.352,56.352 C139.136,56.352 138.968,56.328 138.848,56.28 C138.728,56.232 138.668,56.112 138.668,55.92 C138.668,55.8 138.698,55.662 138.758,55.506 C138.818,55.35 138.896,55.176 138.992,54.984 L138.992,54.984 L140,53.04 L147.704,53.04 L148.676,55.092 C148.748,55.284 148.808,55.44 148.856,55.56 C148.904,55.68 148.928,55.812 148.928,55.956 C148.928,56.148 148.862,56.28 148.73,56.352 C148.598,56.424 148.472,56.46 148.352,56.46 L148.352,56.46 L148.352,57 L153.464,57 L153.464,56.352 C153.296,56.304 153.14,56.232 152.996,56.136 C152.852,56.04 152.72,55.884 152.6,55.668 L152.6,55.668 L146.768,43.428 C146.648,43.164 146.534,42.93 146.426,42.726 C146.318,42.522 146.264,42.348 146.264,42.204 C146.264,42.036 146.306,41.94 146.39,41.916 C146.474,41.892 146.552,41.856 146.624,41.808 L146.624,41.808 L146.624,41.16 L141.188,41.16 L141.188,41.808 C141.26,41.856 141.326,41.898 141.386,41.934 C141.446,41.97 141.476,42.06 141.476,42.204 C141.476,42.396 141.434,42.594 141.35,42.798 C141.266,43.002 141.152,43.272 141.008,43.608 L141.008,43.608 L135.644,55.308 C135.548,55.5 135.41,55.71 135.23,55.938 C135.05,56.166 134.816,56.304 134.528,56.352 L134.528,56.352 L134.528,57 L139.352,57 Z M146.552,50.376 L141.08,50.376 L143.636,44.328 L146.552,50.376 Z M164.156,57.108 C165.236,57.108 166.214,57.012 167.09,56.82 C167.966,56.628 168.734,56.394 169.394,56.118 C170.054,55.842 170.6,55.596 171.032,55.38 C171.464,55.164 171.776,55.056 171.968,55.056 C172.088,55.056 172.292,55.116 172.58,55.236 L172.58,55.236 L172.94,55.056 L170.276,51.24 L169.88,51.6 C169.904,51.696 169.916,51.816 169.916,51.96 L169.916,51.96 L169.916,52.248 C169.916,52.464 169.742,52.704 169.394,52.968 C169.046,53.232 168.596,53.478 168.044,53.706 C167.492,53.934 166.88,54.132 166.208,54.3 C165.536,54.468 164.876,54.552 164.228,54.552 C163.532,54.552 162.848,54.426 162.176,54.174 C161.504,53.922 160.904,53.55 160.376,53.058 C159.848,52.566 159.422,51.978 159.098,51.294 C158.774,50.61 158.612,49.836 158.612,48.972 C158.612,48.108 158.756,47.34 159.044,46.668 C159.332,45.996 159.74,45.432 160.268,44.976 C160.796,44.52 161.414,44.178 162.122,43.95 C162.83,43.722 163.616,43.608 164.48,43.608 C165.2,43.608 165.86,43.674 166.46,43.806 C167.06,43.938 167.582,44.1 168.026,44.292 C168.47,44.484 168.812,44.682 169.052,44.886 C169.292,45.09 169.412,45.252 169.412,45.372 C169.412,45.444 169.418,45.504 169.43,45.552 C169.442,45.6 169.448,45.648 169.448,45.696 L169.448,45.696 L169.844,45.984 L172.22,42.564 L171.788,42.312 C171.692,42.36 171.602,42.42 171.518,42.492 C171.434,42.564 171.332,42.6 171.212,42.6 C171.044,42.6 170.768,42.516 170.384,42.348 C170,42.18 169.52,41.988 168.944,41.772 C168.368,41.556 167.702,41.364 166.946,41.196 C166.19,41.028 165.356,40.944 164.444,40.944 C163.268,40.944 162.122,41.112 161.006,41.448 C159.89,41.784 158.9,42.294 158.036,42.978 C157.172,43.662 156.476,44.508 155.948,45.516 C155.42,46.524 155.156,47.7 155.156,49.044 C155.156,50.388 155.42,51.57 155.948,52.59 C156.476,53.61 157.16,54.462 158,55.146 C158.84,55.83 159.8,56.328 160.88,56.64 C161.96,56.952 163.052,57.108 164.156,57.108 Z M181.724,57 L181.724,56.352 C181.58,56.352 181.454,56.31 181.346,56.226 C181.238,56.142 181.184,56.004 181.184,55.812 L181.184,55.812 L181.184,50.376 L190.832,50.376 L190.832,55.812 C190.832,56.004 190.778,56.142 190.67,56.226 C190.562,56.31 190.436,56.352 190.292,56.352 L190.292,56.352 L190.292,57 L194.828,57 L194.828,56.352 C194.684,56.352 194.558,56.31 194.45,56.226 C194.342,56.142 194.288,56.004 194.288,55.812 L194.288,55.812 L194.288,42.348 C194.288,42.156 194.342,42.018 194.45,41.934 C194.558,41.85 194.684,41.808 194.828,41.808 L194.828,41.808 L194.828,41.16 L190.292,41.16 L190.292,41.808 C190.436,41.808 190.562,41.85 190.67,41.934 C190.778,42.018 190.832,42.156 190.832,42.348 L190.832,42.348 L190.832,47.424 L181.184,47.424 L181.184,42.348 C181.184,42.156 181.238,42.018 181.346,41.934 C181.454,41.85 181.58,41.808 181.724,41.808 L181.724,41.808 L181.724,41.16 L177.188,41.16 L177.188,41.808 C177.332,41.808 177.458,41.85 177.566,41.934 C177.674,42.018 177.728,42.156 177.728,42.348 L177.728,42.348 L177.728,55.812 C177.728,56.004 177.674,56.142 177.566,56.226 C177.458,56.31 177.332,56.352 177.188,56.352 L177.188,56.352 L177.188,57 L181.724,57 Z M215.852,57.396 L215.852,53.616 L215.204,53.616 C215.204,53.832 215.108,54.006 214.916,54.138 C214.724,54.27 214.484,54.336 214.196,54.336 L214.196,54.336 L204.98,54.336 L204.98,50.088 L210.236,50.088 C210.716,50.088 211.088,50.118 211.352,50.178 C211.616,50.238 211.712,50.4 211.64,50.664 L211.64,50.664 L212.36,50.664 L212.36,46.848 L211.712,46.848 C211.712,47.112 211.616,47.274 211.424,47.334 C211.232,47.394 210.932,47.424 210.524,47.424 L210.524,47.424 L204.98,47.424 L204.98,43.824 L213.764,43.824 C214.508,43.824 214.88,44.052 214.88,44.508 L214.88,44.508 L215.528,44.508 L215.528,40.512 L214.88,40.512 C214.88,40.944 214.508,41.16 213.764,41.16 L213.764,41.16 L200.984,41.16 L200.984,41.808 C201.104,41.808 201.224,41.85 201.344,41.934 C201.464,42.018 201.524,42.156 201.524,42.348 L201.524,42.348 L201.524,55.812 C201.524,56.004 201.464,56.142 201.344,56.226 C201.224,56.31 201.104,56.352 200.984,56.352 L200.984,56.352 L200.984,57 L214.196,57 C214.484,57 214.724,57.012 214.916,57.036 C215.108,57.06 215.204,57.18 215.204,57.396 L215.204,57.396 L215.852,57.396 Z" id="Headache" fill="#000000" fill-rule="nonzero"></path>
        <path d="M75.227,277 L75.227,276.676 C74.915,276.676 74.759,276.568 74.759,276.352 L74.759,276.352 L74.759,268.18 C74.759,267.964 74.915,267.856 75.227,267.856 L75.227,267.856 L75.227,267.532 L72.239,267.532 L72.239,267.856 C72.551,267.856 72.707,267.964 72.707,268.18 L72.707,268.18 L72.707,276.352 C72.707,276.568 72.551,276.676 72.239,276.676 L72.239,276.676 L72.239,277 L75.227,277 Z M87.305,277.054 C87.845,277.054 88.334,277.006 88.772,276.91 C89.21,276.814 89.594,276.697 89.924,276.559 C90.254,276.421 90.527,276.298 90.743,276.19 C90.959,276.082 91.115,276.028 91.211,276.028 C91.271,276.028 91.373,276.058 91.517,276.118 L91.517,276.118 L91.697,276.028 L90.365,274.12 L90.167,274.3 C90.179,274.348 90.185,274.408 90.185,274.48 L90.185,274.48 L90.185,274.624 C90.185,274.732 90.098,274.852 89.924,274.984 C89.75,275.116 89.525,275.239 89.249,275.353 C88.973,275.467 88.667,275.566 88.331,275.65 C87.995,275.734 87.665,275.776 87.341,275.776 C86.993,275.776 86.651,275.713 86.315,275.587 C85.979,275.461 85.679,275.275 85.415,275.029 C85.151,274.783 84.938,274.489 84.776,274.147 C84.614,273.805 84.533,273.418 84.533,272.986 C84.533,272.554 84.605,272.17 84.749,271.834 C84.893,271.498 85.097,271.216 85.361,270.988 C85.625,270.76 85.934,270.589 86.288,270.475 C86.642,270.361 87.035,270.304 87.467,270.304 C87.827,270.304 88.157,270.337 88.457,270.403 C88.757,270.469 89.018,270.55 89.24,270.646 C89.462,270.742 89.633,270.841 89.753,270.943 C89.873,271.045 89.933,271.126 89.933,271.186 C89.933,271.222 89.936,271.252 89.942,271.276 C89.948,271.3 89.951,271.324 89.951,271.348 L89.951,271.348 L90.149,271.492 L91.337,269.782 L91.121,269.656 C91.073,269.68 91.028,269.71 90.986,269.746 C90.944,269.782 90.893,269.8 90.833,269.8 C90.749,269.8 90.611,269.758 90.419,269.674 C90.227,269.59 89.987,269.494 89.699,269.386 C89.411,269.278 89.078,269.182 88.7,269.098 C88.322,269.014 87.905,268.972 87.449,268.972 C86.861,268.972 86.288,269.056 85.73,269.224 C85.172,269.392 84.677,269.647 84.245,269.989 C83.813,270.331 83.465,270.754 83.201,271.258 C82.937,271.762 82.805,272.35 82.805,273.022 C82.805,273.694 82.937,274.285 83.201,274.795 C83.465,275.305 83.807,275.731 84.227,276.073 C84.647,276.415 85.127,276.664 85.667,276.82 C86.207,276.976 86.753,277.054 87.305,277.054 Z M94.919,277 L94.919,276.676 C94.811,276.676 94.727,276.664 94.667,276.64 C94.607,276.616 94.577,276.556 94.577,276.46 C94.577,276.4 94.592,276.331 94.622,276.253 C94.652,276.175 94.691,276.088 94.739,275.992 L94.739,275.992 L95.243,275.02 L99.095,275.02 L99.581,276.046 C99.617,276.142 99.647,276.22 99.671,276.28 C99.695,276.34 99.707,276.406 99.707,276.478 C99.707,276.574 99.674,276.64 99.608,276.676 C99.542,276.712 99.479,276.73 99.419,276.73 L99.419,276.73 L99.419,277 L101.975,277 L101.975,276.676 C101.891,276.652 101.813,276.616 101.741,276.568 C101.669,276.52 101.603,276.442 101.543,276.334 L101.543,276.334 L98.627,270.214 C98.567,270.082 98.51,269.965 98.456,269.863 C98.402,269.761 98.375,269.674 98.375,269.602 C98.375,269.518 98.396,269.47 98.438,269.458 C98.48,269.446 98.519,269.428 98.555,269.404 L98.555,269.404 L98.555,269.08 L95.837,269.08 L95.837,269.404 C95.873,269.428 95.906,269.449 95.936,269.467 C95.966,269.485 95.981,269.53 95.981,269.602 C95.981,269.698 95.96,269.797 95.918,269.899 C95.876,270.001 95.819,270.136 95.747,270.304 L95.747,270.304 L93.065,276.154 C93.017,276.25 92.948,276.355 92.858,276.469 C92.768,276.583 92.651,276.652 92.507,276.676 L92.507,276.676 L92.507,277 L94.919,277 Z M98.519,273.688 L95.783,273.688 L97.061,270.664 L98.519,273.688 Z M105.917,277 L105.917,276.676 C105.665,276.676 105.539,276.586 105.539,276.406 L105.539,276.406 L105.539,271.168 L110.003,275.92 C110.147,276.076 110.276,276.214 110.39,276.334 C110.504,276.454 110.561,276.538 110.561,276.586 C110.561,276.646 110.519,276.676 110.435,276.676 L110.435,276.676 L110.435,277 L112.775,277 L112.775,276.676 C112.559,276.676 112.451,276.586 112.451,276.406 L112.451,276.406 L112.451,269.674 C112.451,269.494 112.559,269.404 112.775,269.404 L112.775,269.404 L112.775,269.08 L110.579,269.08 L110.579,269.404 C110.819,269.404 110.939,269.494 110.939,269.674 L110.939,269.674 L110.939,274.552 L106.619,269.98 C106.355,269.716 106.223,269.554 106.223,269.494 C106.223,269.446 106.265,269.416 106.349,269.404 L106.349,269.404 L106.349,269.08 L103.703,269.08 L103.703,269.404 C103.919,269.404 104.027,269.494 104.027,269.674 L104.027,269.674 L104.027,276.406 C104.027,276.586 103.919,276.676 103.703,276.676 L103.703,276.676 L103.703,277 L105.917,277 Z M123.593,277 L123.593,276.676 C123.521,276.676 123.458,276.655 123.404,276.613 C123.35,276.571 123.323,276.502 123.323,276.406 L123.323,276.406 L123.323,273.688 L128.147,273.688 L128.147,276.406 C128.147,276.502 128.12,276.571 128.066,276.613 C128.012,276.655 127.949,276.676 127.877,276.676 L127.877,276.676 L127.877,277 L130.145,277 L130.145,276.676 C130.073,276.676 130.01,276.655 129.956,276.613 C129.902,276.571 129.875,276.502 129.875,276.406 L129.875,276.406 L129.875,269.674 C129.875,269.578 129.902,269.509 129.956,269.467 C130.01,269.425 130.073,269.404 130.145,269.404 L130.145,269.404 L130.145,269.08 L127.877,269.08 L127.877,269.404 C127.949,269.404 128.012,269.425 128.066,269.467 C128.12,269.509 128.147,269.578 128.147,269.674 L128.147,269.674 L128.147,272.212 L123.323,272.212 L123.323,269.674 C123.323,269.578 123.35,269.509 123.404,269.467 C123.458,269.425 123.521,269.404 123.593,269.404 L123.593,269.404 L123.593,269.08 L121.325,269.08 L121.325,269.404 C121.397,269.404 121.46,269.425 121.514,269.467 C121.568,269.509 121.595,269.578 121.595,269.674 L121.595,269.674 L121.595,276.406 C121.595,276.502 121.568,276.571 121.514,276.613 C121.46,276.655 121.397,276.676 121.325,276.676 L121.325,276.676 L121.325,277 L123.593,277 Z M140.657,277.198 L140.657,275.308 L140.333,275.308 C140.333,275.416 140.285,275.503 140.189,275.569 C140.093,275.635 139.973,275.668 139.829,275.668 L139.829,275.668 L135.221,275.668 L135.221,273.544 L137.849,273.544 C138.089,273.544 138.275,273.559 138.407,273.589 C138.539,273.619 138.587,273.7 138.551,273.832 L138.551,273.832 L138.911,273.832 L138.911,271.924 L138.587,271.924 C138.587,272.056 138.539,272.137 138.443,272.167 C138.347,272.197 138.197,272.212 137.993,272.212 L137.993,272.212 L135.221,272.212 L135.221,270.412 L139.613,270.412 C139.985,270.412 140.171,270.526 140.171,270.754 L140.171,270.754 L140.495,270.754 L140.495,268.756 L140.171,268.756 C140.171,268.972 139.985,269.08 139.613,269.08 L139.613,269.08 L133.223,269.08 L133.223,269.404 C133.283,269.404 133.343,269.425 133.403,269.467 C133.463,269.509 133.493,269.578 133.493,269.674 L133.493,269.674 L133.493,276.406 C133.493,276.502 133.463,276.571 133.403,276.613 C133.343,276.655 133.283,276.676 133.223,276.676 L133.223,276.676 L133.223,277 L139.829,277 C139.973,277 140.093,277.006 140.189,277.018 C140.285,277.03 140.333,277.09 140.333,277.198 L140.333,277.198 L140.657,277.198 Z M144.437,277 L144.437,276.676 C144.329,276.676 144.245,276.664 144.185,276.64 C144.125,276.616 144.095,276.556 144.095,276.46 C144.095,276.4 144.11,276.331 144.14,276.253 C144.17,276.175 144.209,276.088 144.257,275.992 L144.257,275.992 L144.761,275.02 L148.613,275.02 L149.099,276.046 C149.135,276.142 149.165,276.22 149.189,276.28 C149.213,276.34 149.225,276.406 149.225,276.478 C149.225,276.574 149.192,276.64 149.126,276.676 C149.06,276.712 148.997,276.73 148.937,276.73 L148.937,276.73 L148.937,277 L151.493,277 L151.493,276.676 C151.409,276.652 151.331,276.616 151.259,276.568 C151.187,276.52 151.121,276.442 151.061,276.334 L151.061,276.334 L148.145,270.214 C148.085,270.082 148.028,269.965 147.974,269.863 C147.92,269.761 147.893,269.674 147.893,269.602 C147.893,269.518 147.914,269.47 147.956,269.458 C147.998,269.446 148.037,269.428 148.073,269.404 L148.073,269.404 L148.073,269.08 L145.355,269.08 L145.355,269.404 C145.391,269.428 145.424,269.449 145.454,269.467 C145.484,269.485 145.499,269.53 145.499,269.602 C145.499,269.698 145.478,269.797 145.436,269.899 C145.394,270.001 145.337,270.136 145.265,270.304 L145.265,270.304 L142.583,276.154 C142.535,276.25 142.466,276.355 142.376,276.469 C142.286,276.583 142.169,276.652 142.025,276.676 L142.025,276.676 L142.025,277 L144.437,277 Z M148.037,273.688 L145.301,273.688 L146.579,270.664 L148.037,273.688 Z M155.561,277 L155.561,276.676 C155.489,276.676 155.414,276.655 155.336,276.613 C155.258,276.571 155.219,276.502 155.219,276.406 L155.219,276.406 L155.219,273.832 L157.721,273.832 L159.143,275.956 C159.323,276.208 159.413,276.394 159.413,276.514 C159.413,276.622 159.335,276.676 159.179,276.676 L159.179,276.676 L159.179,277 L161.933,277 L161.933,276.676 C161.801,276.64 161.678,276.589 161.564,276.523 C161.45,276.457 161.345,276.358 161.249,276.226 L161.249,276.226 L159.485,273.652 C159.737,273.592 159.983,273.505 160.223,273.391 C160.463,273.277 160.682,273.127 160.88,272.941 C161.078,272.755 161.237,272.536 161.357,272.284 C161.477,272.032 161.537,271.744 161.537,271.42 C161.537,270.568 161.237,269.965 160.637,269.611 C160.037,269.257 159.203,269.08 158.135,269.08 L158.135,269.08 L153.167,269.08 L153.167,269.404 C153.383,269.404 153.491,269.494 153.491,269.674 L153.491,269.674 L153.491,276.406 C153.491,276.586 153.383,276.676 153.167,276.676 L153.167,276.676 L153.167,277 L155.561,277 Z M158.099,272.5 L155.255,272.5 L155.255,270.412 L158.099,270.412 C158.711,270.412 159.158,270.499 159.44,270.673 C159.722,270.847 159.863,271.084 159.863,271.384 C159.863,272.128 159.275,272.5 158.099,272.5 L158.099,272.5 Z M171.959,277 L171.959,276.676 C171.755,276.676 171.653,276.586 171.653,276.406 L171.653,276.406 L171.653,271.348 L171.671,271.348 L174.569,277 L174.713,277 L177.773,271.348 L177.809,271.348 L177.809,276.406 C177.845,276.586 177.737,276.676 177.485,276.676 L177.485,276.676 L177.485,277 L179.573,277 L179.573,276.676 C179.513,276.676 179.456,276.655 179.402,276.613 C179.348,276.571 179.321,276.502 179.321,276.406 L179.321,276.406 L179.321,269.638 C179.321,269.542 179.348,269.479 179.402,269.449 C179.456,269.419 179.513,269.404 179.573,269.404 L179.573,269.404 L179.573,269.08 L177.035,269.08 L177.035,269.404 C177.131,269.404 177.179,269.458 177.179,269.566 C177.179,269.602 177.155,269.665 177.107,269.755 C177.059,269.845 176.993,269.962 176.909,270.106 L176.909,270.106 L174.695,274.138 L172.499,270.088 C172.415,269.944 172.352,269.833 172.31,269.755 C172.268,269.677 172.247,269.614 172.247,269.566 C172.247,269.458 172.307,269.404 172.427,269.404 L172.427,269.404 L172.427,269.08 L169.925,269.08 L169.925,269.404 C170.009,269.404 170.066,269.422 170.096,269.458 C170.126,269.494 170.141,269.596 170.141,269.764 L170.141,269.764 L170.141,276.352 C170.141,276.484 170.12,276.568 170.078,276.604 C170.036,276.64 169.985,276.664 169.925,276.676 L169.925,276.676 L169.925,277 L171.959,277 Z M187.457,277 L187.457,276.676 C187.229,276.676 187.115,276.586 187.115,276.406 L187.115,276.406 L187.115,273.706 L189.869,270.142 C190.001,269.974 190.154,269.809 190.328,269.647 C190.502,269.485 190.661,269.404 190.805,269.404 L190.805,269.404 L190.805,269.08 L188.051,269.08 L188.051,269.404 C188.111,269.404 188.171,269.416 188.231,269.44 C188.291,269.464 188.321,269.524 188.321,269.62 C188.321,269.692 188.294,269.767 188.24,269.845 C188.186,269.923 188.105,270.04 187.997,270.196 L187.997,270.196 L186.395,272.428 L184.577,270.052 C184.517,269.968 184.463,269.896 184.415,269.836 C184.367,269.776 184.343,269.71 184.343,269.638 C184.343,269.566 184.379,269.509 184.451,269.467 C184.523,269.425 184.589,269.404 184.649,269.404 L184.649,269.404 L184.649,269.08 L181.679,269.08 L181.679,269.404 C181.787,269.404 181.901,269.428 182.021,269.476 C182.141,269.524 182.243,269.602 182.327,269.71 L182.327,269.71 L185.387,273.634 L185.387,276.406 C185.387,276.586 185.279,276.676 185.063,276.676 L185.063,276.676 L185.063,277 L187.457,277 Z M27.41,295 L27.41,294.676 C27.158,294.676 27.032,294.586 27.032,294.406 L27.032,294.406 L27.032,289.168 L31.496,293.92 C31.64,294.076 31.769,294.214 31.883,294.334 C31.997,294.454 32.054,294.538 32.054,294.586 C32.054,294.646 32.012,294.676 31.928,294.676 L31.928,294.676 L31.928,295 L34.268,295 L34.268,294.676 C34.052,294.676 33.944,294.586 33.944,294.406 L33.944,294.406 L33.944,287.674 C33.944,287.494 34.052,287.404 34.268,287.404 L34.268,287.404 L34.268,287.08 L32.072,287.08 L32.072,287.404 C32.312,287.404 32.432,287.494 32.432,287.674 L32.432,287.674 L32.432,292.552 L28.112,287.98 C27.848,287.716 27.716,287.554 27.716,287.494 C27.716,287.446 27.758,287.416 27.842,287.404 L27.842,287.404 L27.842,287.08 L25.196,287.08 L25.196,287.404 C25.412,287.404 25.52,287.494 25.52,287.674 L25.52,287.674 L25.52,294.406 C25.52,294.586 25.412,294.676 25.196,294.676 L25.196,294.676 L25.196,295 L27.41,295 Z M44.654,295.198 L44.654,293.308 L44.33,293.308 C44.33,293.416 44.282,293.503 44.186,293.569 C44.09,293.635 43.97,293.668 43.826,293.668 L43.826,293.668 L39.218,293.668 L39.218,291.544 L41.846,291.544 C42.086,291.544 42.272,291.559 42.404,291.589 C42.536,291.619 42.584,291.7 42.548,291.832 L42.548,291.832 L42.908,291.832 L42.908,289.924 L42.584,289.924 C42.584,290.056 42.536,290.137 42.44,290.167 C42.344,290.197 42.194,290.212 41.99,290.212 L41.99,290.212 L39.218,290.212 L39.218,288.412 L43.61,288.412 C43.982,288.412 44.168,288.526 44.168,288.754 L44.168,288.754 L44.492,288.754 L44.492,286.756 L44.168,286.756 C44.168,286.972 43.982,287.08 43.61,287.08 L43.61,287.08 L37.22,287.08 L37.22,287.404 C37.28,287.404 37.34,287.425 37.4,287.467 C37.46,287.509 37.49,287.578 37.49,287.674 L37.49,287.674 L37.49,294.406 C37.49,294.502 37.46,294.571 37.4,294.613 C37.34,294.655 37.28,294.676 37.22,294.676 L37.22,294.676 L37.22,295 L43.826,295 C43.97,295 44.09,295.006 44.186,295.018 C44.282,295.03 44.33,295.09 44.33,295.198 L44.33,295.198 L44.654,295.198 Z M50.108,295 L50.108,294.676 C49.772,294.676 49.604,294.586 49.604,294.406 L49.604,294.406 L49.604,287.674 C49.604,287.494 49.772,287.404 50.108,287.404 L50.108,287.404 L50.108,287.08 L47.372,287.08 L47.372,287.404 C47.564,287.404 47.696,287.425 47.768,287.467 C47.84,287.509 47.876,287.578 47.876,287.674 L47.876,287.674 L47.876,294.406 C47.876,294.502 47.84,294.571 47.768,294.613 C47.696,294.655 47.564,294.676 47.372,294.676 L47.372,294.676 L47.372,295 L50.108,295 Z M57.434,295.054 C58.01,295.054 58.532,295.015 59,294.937 C59.468,294.859 59.879,294.76 60.233,294.64 C60.587,294.52 60.881,294.397 61.115,294.271 C61.349,294.145 61.52,294.046 61.628,293.974 L61.628,293.974 L61.628,293.758 C61.508,293.71 61.433,293.665 61.403,293.623 C61.373,293.581 61.358,293.506 61.358,293.398 L61.358,293.398 L61.358,291.688 C61.358,291.568 61.376,291.478 61.412,291.418 C61.448,291.358 61.52,291.304 61.628,291.256 L61.628,291.256 L61.628,290.932 L58.1,290.932 C57.968,290.932 57.854,290.914 57.758,290.878 C57.662,290.842 57.602,290.764 57.578,290.644 L57.578,290.644 L57.254,290.644 L57.254,292.498 L57.578,292.498 C57.602,292.354 57.662,292.255 57.758,292.201 C57.854,292.147 57.968,292.12 58.1,292.12 L58.1,292.12 L59.954,292.12 L59.954,293.254 C59.57,293.458 59.147,293.596 58.685,293.668 C58.223,293.74 57.734,293.776 57.218,293.776 C56.87,293.776 56.51,293.728 56.138,293.632 C55.766,293.536 55.427,293.383 55.121,293.173 C54.815,292.963 54.566,292.687 54.374,292.345 C54.182,292.003 54.086,291.58 54.086,291.076 C54.086,290.572 54.176,290.146 54.356,289.798 C54.536,289.45 54.776,289.165 55.076,288.943 C55.376,288.721 55.724,288.559 56.12,288.457 C56.516,288.355 56.936,288.304 57.38,288.304 C57.704,288.304 58.025,288.337 58.343,288.403 C58.661,288.469 58.946,288.556 59.198,288.664 C59.45,288.772 59.654,288.889 59.81,289.015 C59.966,289.141 60.044,289.258 60.044,289.366 C60.044,289.378 60.032,289.444 60.008,289.564 L60.008,289.564 L60.224,289.69 L61.268,287.728 L61.052,287.62 C60.98,287.68 60.92,287.719 60.872,287.737 C60.824,287.755 60.752,287.764 60.656,287.764 C60.572,287.764 60.446,287.722 60.278,287.638 C60.11,287.554 59.888,287.464 59.612,287.368 C59.348,287.272 59.036,287.182 58.676,287.098 C58.316,287.014 57.902,286.972 57.434,286.972 C56.654,286.972 55.949,287.065 55.319,287.251 C54.689,287.437 54.155,287.707 53.717,288.061 C53.279,288.415 52.943,288.841 52.709,289.339 C52.475,289.837 52.358,290.404 52.358,291.04 C52.358,291.676 52.475,292.243 52.709,292.741 C52.943,293.239 53.279,293.662 53.717,294.01 C54.155,294.358 54.689,294.619 55.319,294.793 C55.949,294.967 56.654,295.054 57.434,295.054 Z M66.596,295 L66.596,294.676 C66.524,294.676 66.461,294.655 66.407,294.613 C66.353,294.571 66.326,294.502 66.326,294.406 L66.326,294.406 L66.326,291.688 L71.15,291.688 L71.15,294.406 C71.15,294.502 71.123,294.571 71.069,294.613 C71.015,294.655 70.952,294.676 70.88,294.676 L70.88,294.676 L70.88,295 L73.148,295 L73.148,294.676 C73.076,294.676 73.013,294.655 72.959,294.613 C72.905,294.571 72.878,294.502 72.878,294.406 L72.878,294.406 L72.878,287.674 C72.878,287.578 72.905,287.509 72.959,287.467 C73.013,287.425 73.076,287.404 73.148,287.404 L73.148,287.404 L73.148,287.08 L70.88,287.08 L70.88,287.404 C70.952,287.404 71.015,287.425 71.069,287.467 C71.123,287.509 71.15,287.578 71.15,287.674 L71.15,287.674 L71.15,290.212 L66.326,290.212 L66.326,287.674 C66.326,287.578 66.353,287.509 66.407,287.467 C66.461,287.425 66.524,287.404 66.596,287.404 L66.596,287.404 L66.596,287.08 L64.328,287.08 L64.328,287.404 C64.4,287.404 64.463,287.425 64.517,287.467 C64.571,287.509 64.598,287.578 64.598,287.674 L64.598,287.674 L64.598,294.406 C64.598,294.502 64.571,294.571 64.517,294.613 C64.463,294.655 64.4,294.676 64.328,294.676 L64.328,294.676 L64.328,295 L66.596,295 Z M81.536,295 C82.064,295 82.517,294.943 82.895,294.829 C83.273,294.715 83.579,294.562 83.813,294.37 C84.047,294.178 84.218,293.956 84.326,293.704 C84.434,293.452 84.488,293.182 84.488,292.894 C84.488,292.642 84.446,292.408 84.362,292.192 C84.278,291.976 84.17,291.784 84.038,291.616 C83.906,291.448 83.756,291.304 83.588,291.184 C83.42,291.064 83.252,290.968 83.084,290.896 L83.084,290.896 L83.084,290.878 C83.228,290.806 83.369,290.71 83.507,290.59 C83.645,290.47 83.771,290.335 83.885,290.185 C83.999,290.035 84.092,289.867 84.164,289.681 C84.236,289.495 84.272,289.294 84.272,289.078 C84.272,288.814 84.218,288.562 84.11,288.322 C84.002,288.082 83.837,287.869 83.615,287.683 C83.393,287.497 83.117,287.35 82.787,287.242 C82.457,287.134 82.064,287.08 81.608,287.08 L81.608,287.08 L76.01,287.08 L76.01,287.404 C76.106,287.404 76.199,287.425 76.289,287.467 C76.379,287.509 76.424,287.578 76.424,287.674 L76.424,287.674 L76.424,294.406 C76.424,294.502 76.379,294.571 76.289,294.613 C76.199,294.655 76.106,294.676 76.01,294.676 L76.01,294.676 L76.01,295 L81.536,295 Z M81.356,290.212 L78.152,290.212 L78.152,288.412 L81.356,288.412 C81.5,288.412 81.644,288.421 81.788,288.439 C81.932,288.457 82.058,288.499 82.166,288.565 C82.274,288.631 82.364,288.721 82.436,288.835 C82.508,288.949 82.544,289.102 82.544,289.294 C82.544,289.666 82.418,289.912 82.166,290.032 C81.914,290.152 81.644,290.212 81.356,290.212 L81.356,290.212 Z M81.32,293.668 L78.152,293.668 L78.152,291.544 L81.032,291.544 C81.656,291.544 82.1,291.634 82.364,291.814 C82.628,291.994 82.76,292.27 82.76,292.642 C82.76,292.966 82.658,293.218 82.454,293.398 C82.25,293.578 81.872,293.668 81.32,293.668 L81.32,293.668 Z M91.238,295.054 C91.898,295.054 92.519,294.979 93.101,294.829 C93.683,294.679 94.19,294.436 94.622,294.1 C95.054,293.764 95.396,293.341 95.648,292.831 C95.9,292.321 96.026,291.724 96.026,291.04 C96.026,290.356 95.9,289.759 95.648,289.249 C95.396,288.739 95.054,288.316 94.622,287.98 C94.19,287.644 93.683,287.392 93.101,287.224 C92.519,287.056 91.898,286.972 91.238,286.972 C90.578,286.972 89.957,287.056 89.375,287.224 C88.793,287.392 88.286,287.644 87.854,287.98 C87.422,288.316 87.08,288.739 86.828,289.249 C86.576,289.759 86.45,290.356 86.45,291.04 C86.45,291.724 86.576,292.321 86.828,292.831 C87.08,293.341 87.422,293.764 87.854,294.1 C88.286,294.436 88.793,294.679 89.375,294.829 C89.957,294.979 90.578,295.054 91.238,295.054 Z M91.238,293.776 C90.854,293.776 90.479,293.713 90.113,293.587 C89.747,293.461 89.42,293.281 89.132,293.047 C88.844,292.813 88.613,292.528 88.439,292.192 C88.265,291.856 88.178,291.472 88.178,291.04 C88.178,290.608 88.265,290.224 88.439,289.888 C88.613,289.552 88.844,289.267 89.132,289.033 C89.42,288.799 89.747,288.619 90.113,288.493 C90.479,288.367 90.854,288.304 91.238,288.304 C91.622,288.304 91.997,288.367 92.363,288.493 C92.729,288.619 93.056,288.799 93.344,289.033 C93.632,289.267 93.863,289.552 94.037,289.888 C94.211,290.224 94.298,290.608 94.298,291.04 C94.298,291.472 94.211,291.856 94.037,292.192 C93.863,292.528 93.632,292.813 93.344,293.047 C93.056,293.281 92.729,293.461 92.363,293.587 C91.997,293.713 91.622,293.776 91.238,293.776 Z M100.544,295 L100.544,294.676 C100.472,294.676 100.397,294.655 100.319,294.613 C100.241,294.571 100.202,294.502 100.202,294.406 L100.202,294.406 L100.202,291.832 L102.704,291.832 L104.126,293.956 C104.306,294.208 104.396,294.394 104.396,294.514 C104.396,294.622 104.318,294.676 104.162,294.676 L104.162,294.676 L104.162,295 L106.916,295 L106.916,294.676 C106.784,294.64 106.661,294.589 106.547,294.523 C106.433,294.457 106.328,294.358 106.232,294.226 L106.232,294.226 L104.468,291.652 C104.72,291.592 104.966,291.505 105.206,291.391 C105.446,291.277 105.665,291.127 105.863,290.941 C106.061,290.755 106.22,290.536 106.34,290.284 C106.46,290.032 106.52,289.744 106.52,289.42 C106.52,288.568 106.22,287.965 105.62,287.611 C105.02,287.257 104.186,287.08 103.118,287.08 L103.118,287.08 L98.15,287.08 L98.15,287.404 C98.366,287.404 98.474,287.494 98.474,287.674 L98.474,287.674 L98.474,294.406 C98.474,294.586 98.366,294.676 98.15,294.676 L98.15,294.676 L98.15,295 L100.544,295 Z M103.082,290.5 L100.238,290.5 L100.238,288.412 L103.082,288.412 C103.694,288.412 104.141,288.499 104.423,288.673 C104.705,288.847 104.846,289.084 104.846,289.384 C104.846,290.128 104.258,290.5 103.082,290.5 L103.082,290.5 Z M108.572,290.41 C108.944,290.326 109.304,290.176 109.652,289.96 C110,289.744 110.306,289.486 110.57,289.186 C110.834,288.886 111.047,288.553 111.209,288.187 C111.371,287.821 111.452,287.44 111.452,287.044 C111.452,286.54 111.329,286.114 111.083,285.766 C110.837,285.418 110.474,285.244 109.994,285.244 C109.682,285.244 109.403,285.37 109.157,285.622 C108.911,285.874 108.788,286.174 108.788,286.522 C108.788,286.882 108.899,287.161 109.121,287.359 C109.343,287.557 109.604,287.656 109.904,287.656 C110,287.656 110.102,287.662 110.21,287.674 C110.318,287.686 110.384,287.734 110.408,287.818 C110.432,288.034 110.384,288.25 110.264,288.466 C110.144,288.682 109.991,288.883 109.805,289.069 C109.619,289.255 109.412,289.417 109.184,289.555 C108.956,289.693 108.752,289.786 108.572,289.834 L108.572,289.834 L108.572,290.41 Z M117.608,295.054 C118.016,295.054 118.451,295.024 118.913,294.964 C119.375,294.904 119.798,294.778 120.182,294.586 C120.566,294.394 120.887,294.13 121.145,293.794 C121.403,293.458 121.532,293.026 121.532,292.498 C121.532,291.97 121.385,291.556 121.091,291.256 C120.797,290.956 120.428,290.728 119.984,290.572 C119.54,290.416 119.06,290.305 118.544,290.239 C118.028,290.173 117.548,290.107 117.104,290.041 C116.66,289.975 116.291,289.885 115.997,289.771 C115.703,289.657 115.556,289.468 115.556,289.204 C115.556,289.036 115.604,288.895 115.7,288.781 C115.796,288.667 115.928,288.574 116.096,288.502 C116.264,288.43 116.456,288.379 116.672,288.349 C116.888,288.319 117.116,288.304 117.356,288.304 C117.98,288.304 118.544,288.376 119.048,288.52 C119.552,288.664 119.924,288.838 120.164,289.042 C120.26,289.114 120.314,289.186 120.326,289.258 C120.338,289.33 120.35,289.402 120.362,289.474 L120.362,289.474 L120.686,289.582 L121.586,287.89 L121.388,287.692 C121.316,287.728 121.256,287.761 121.208,287.791 C121.16,287.821 121.088,287.836 120.992,287.836 C120.908,287.836 120.779,287.791 120.605,287.701 C120.431,287.611 120.206,287.512 119.93,287.404 C119.654,287.296 119.315,287.197 118.913,287.107 C118.511,287.017 118.028,286.972 117.464,286.972 C116.312,286.972 115.418,287.2 114.782,287.656 C114.146,288.112 113.828,288.724 113.828,289.492 C113.828,290.008 113.975,290.407 114.269,290.689 C114.563,290.971 114.932,291.187 115.376,291.337 C115.82,291.487 116.3,291.595 116.816,291.661 C117.332,291.727 117.812,291.793 118.256,291.859 C118.7,291.925 119.069,292.018 119.363,292.138 C119.657,292.258 119.804,292.45 119.804,292.714 C119.804,292.942 119.72,293.125 119.552,293.263 C119.384,293.401 119.18,293.509 118.94,293.587 C118.7,293.665 118.457,293.716 118.211,293.74 C117.965,293.764 117.758,293.776 117.59,293.776 C117.41,293.776 117.161,293.746 116.843,293.686 C116.525,293.626 116.207,293.545 115.889,293.443 C115.571,293.341 115.298,293.215 115.07,293.065 C114.842,292.915 114.728,292.75 114.728,292.57 C114.728,292.51 114.731,292.453 114.737,292.399 C114.743,292.345 114.746,292.294 114.746,292.246 L114.746,292.246 L114.404,292.156 L113.576,294.172 L113.828,294.352 C113.888,294.28 113.96,294.244 114.044,294.244 C114.092,294.244 114.23,294.289 114.458,294.379 C114.686,294.469 114.965,294.565 115.295,294.667 C115.625,294.769 115.991,294.859 116.393,294.937 C116.795,295.015 117.2,295.054 117.608,295.054 Z M135.032,295 C135.56,295 136.013,294.943 136.391,294.829 C136.769,294.715 137.075,294.562 137.309,294.37 C137.543,294.178 137.714,293.956 137.822,293.704 C137.93,293.452 137.984,293.182 137.984,292.894 C137.984,292.642 137.942,292.408 137.858,292.192 C137.774,291.976 137.666,291.784 137.534,291.616 C137.402,291.448 137.252,291.304 137.084,291.184 C136.916,291.064 136.748,290.968 136.58,290.896 L136.58,290.896 L136.58,290.878 C136.724,290.806 136.865,290.71 137.003,290.59 C137.141,290.47 137.267,290.335 137.381,290.185 C137.495,290.035 137.588,289.867 137.66,289.681 C137.732,289.495 137.768,289.294 137.768,289.078 C137.768,288.814 137.714,288.562 137.606,288.322 C137.498,288.082 137.333,287.869 137.111,287.683 C136.889,287.497 136.613,287.35 136.283,287.242 C135.953,287.134 135.56,287.08 135.104,287.08 L135.104,287.08 L129.506,287.08 L129.506,287.404 C129.602,287.404 129.695,287.425 129.785,287.467 C129.875,287.509 129.92,287.578 129.92,287.674 L129.92,287.674 L129.92,294.406 C129.92,294.502 129.875,294.571 129.785,294.613 C129.695,294.655 129.602,294.676 129.506,294.676 L129.506,294.676 L129.506,295 L135.032,295 Z M134.852,290.212 L131.648,290.212 L131.648,288.412 L134.852,288.412 C134.996,288.412 135.14,288.421 135.284,288.439 C135.428,288.457 135.554,288.499 135.662,288.565 C135.77,288.631 135.86,288.721 135.932,288.835 C136.004,288.949 136.04,289.102 136.04,289.294 C136.04,289.666 135.914,289.912 135.662,290.032 C135.41,290.152 135.14,290.212 134.852,290.212 L134.852,290.212 Z M134.816,293.668 L131.648,293.668 L131.648,291.544 L134.528,291.544 C135.152,291.544 135.596,291.634 135.86,291.814 C136.124,291.994 136.256,292.27 136.256,292.642 C136.256,292.966 136.154,293.218 135.95,293.398 C135.746,293.578 135.368,293.668 134.816,293.668 L134.816,293.668 Z M143.042,295 L143.042,294.676 C142.97,294.676 142.895,294.655 142.817,294.613 C142.739,294.571 142.7,294.502 142.7,294.406 L142.7,294.406 L142.7,291.832 L145.202,291.832 L146.624,293.956 C146.804,294.208 146.894,294.394 146.894,294.514 C146.894,294.622 146.816,294.676 146.66,294.676 L146.66,294.676 L146.66,295 L149.414,295 L149.414,294.676 C149.282,294.64 149.159,294.589 149.045,294.523 C148.931,294.457 148.826,294.358 148.73,294.226 L148.73,294.226 L146.966,291.652 C147.218,291.592 147.464,291.505 147.704,291.391 C147.944,291.277 148.163,291.127 148.361,290.941 C148.559,290.755 148.718,290.536 148.838,290.284 C148.958,290.032 149.018,289.744 149.018,289.42 C149.018,288.568 148.718,287.965 148.118,287.611 C147.518,287.257 146.684,287.08 145.616,287.08 L145.616,287.08 L140.648,287.08 L140.648,287.404 C140.864,287.404 140.972,287.494 140.972,287.674 L140.972,287.674 L140.972,294.406 C140.972,294.586 140.864,294.676 140.648,294.676 L140.648,294.676 L140.648,295 L143.042,295 Z M145.58,290.5 L142.736,290.5 L142.736,288.412 L145.58,288.412 C146.192,288.412 146.639,288.499 146.921,288.673 C147.203,288.847 147.344,289.084 147.344,289.384 C147.344,290.128 146.756,290.5 145.58,290.5 L145.58,290.5 Z M159.152,295.198 L159.152,293.308 L158.828,293.308 C158.828,293.416 158.78,293.503 158.684,293.569 C158.588,293.635 158.468,293.668 158.324,293.668 L158.324,293.668 L153.716,293.668 L153.716,291.544 L156.344,291.544 C156.584,291.544 156.77,291.559 156.902,291.589 C157.034,291.619 157.082,291.7 157.046,291.832 L157.046,291.832 L157.406,291.832 L157.406,289.924 L157.082,289.924 C157.082,290.056 157.034,290.137 156.938,290.167 C156.842,290.197 156.692,290.212 156.488,290.212 L156.488,290.212 L153.716,290.212 L153.716,288.412 L158.108,288.412 C158.48,288.412 158.666,288.526 158.666,288.754 L158.666,288.754 L158.99,288.754 L158.99,286.756 L158.666,286.756 C158.666,286.972 158.48,287.08 158.108,287.08 L158.108,287.08 L151.718,287.08 L151.718,287.404 C151.778,287.404 151.838,287.425 151.898,287.467 C151.958,287.509 151.988,287.578 151.988,287.674 L151.988,287.674 L151.988,294.406 C151.988,294.502 151.958,294.571 151.898,294.613 C151.838,294.655 151.778,294.676 151.718,294.676 L151.718,294.676 L151.718,295 L158.324,295 C158.468,295 158.588,295.006 158.684,295.018 C158.78,295.03 158.828,295.09 158.828,295.198 L158.828,295.198 L159.152,295.198 Z M162.932,295 L162.932,294.676 C162.824,294.676 162.74,294.664 162.68,294.64 C162.62,294.616 162.59,294.556 162.59,294.46 C162.59,294.4 162.605,294.331 162.635,294.253 C162.665,294.175 162.704,294.088 162.752,293.992 L162.752,293.992 L163.256,293.02 L167.108,293.02 L167.594,294.046 C167.63,294.142 167.66,294.22 167.684,294.28 C167.708,294.34 167.72,294.406 167.72,294.478 C167.72,294.574 167.687,294.64 167.621,294.676 C167.555,294.712 167.492,294.73 167.432,294.73 L167.432,294.73 L167.432,295 L169.988,295 L169.988,294.676 C169.904,294.652 169.826,294.616 169.754,294.568 C169.682,294.52 169.616,294.442 169.556,294.334 L169.556,294.334 L166.64,288.214 C166.58,288.082 166.523,287.965 166.469,287.863 C166.415,287.761 166.388,287.674 166.388,287.602 C166.388,287.518 166.409,287.47 166.451,287.458 C166.493,287.446 166.532,287.428 166.568,287.404 L166.568,287.404 L166.568,287.08 L163.85,287.08 L163.85,287.404 C163.886,287.428 163.919,287.449 163.949,287.467 C163.979,287.485 163.994,287.53 163.994,287.602 C163.994,287.698 163.973,287.797 163.931,287.899 C163.889,288.001 163.832,288.136 163.76,288.304 L163.76,288.304 L161.078,294.154 C161.03,294.25 160.961,294.355 160.871,294.469 C160.781,294.583 160.664,294.652 160.52,294.676 L160.52,294.676 L160.52,295 L162.932,295 Z M166.532,291.688 L163.796,291.688 L165.074,288.664 L166.532,291.688 Z M175.946,295 L175.946,294.676 C175.73,294.676 175.622,294.586 175.622,294.406 L175.622,294.406 L175.622,288.412 L177.962,288.412 C178.058,288.412 178.148,288.436 178.232,288.484 C178.316,288.532 178.358,288.61 178.358,288.718 L178.358,288.718 L178.682,288.718 L178.682,286.648 L178.358,286.648 C178.358,286.816 178.316,286.93 178.232,286.99 C178.148,287.05 178.058,287.08 177.962,287.08 L177.962,287.08 L171.554,287.08 C171.458,287.08 171.368,287.05 171.284,286.99 C171.2,286.93 171.158,286.816 171.158,286.648 L171.158,286.648 L170.834,286.648 L170.834,288.718 L171.158,288.718 C171.158,288.61 171.2,288.532 171.284,288.484 C171.368,288.436 171.458,288.412 171.554,288.412 L171.554,288.412 L173.894,288.412 L173.894,294.406 C173.894,294.502 173.864,294.571 173.804,294.613 C173.744,294.655 173.684,294.676 173.624,294.676 L173.624,294.676 L173.624,295 L175.946,295 Z M183.11,295 L183.11,294.676 C183.038,294.676 182.975,294.655 182.921,294.613 C182.867,294.571 182.84,294.502 182.84,294.406 L182.84,294.406 L182.84,291.688 L187.664,291.688 L187.664,294.406 C187.664,294.502 187.637,294.571 187.583,294.613 C187.529,294.655 187.466,294.676 187.394,294.676 L187.394,294.676 L187.394,295 L189.662,295 L189.662,294.676 C189.59,294.676 189.527,294.655 189.473,294.613 C189.419,294.571 189.392,294.502 189.392,294.406 L189.392,294.406 L189.392,287.674 C189.392,287.578 189.419,287.509 189.473,287.467 C189.527,287.425 189.59,287.404 189.662,287.404 L189.662,287.404 L189.662,287.08 L187.394,287.08 L187.394,287.404 C187.466,287.404 187.529,287.425 187.583,287.467 C187.637,287.509 187.664,287.578 187.664,287.674 L187.664,287.674 L187.664,290.212 L182.84,290.212 L182.84,287.674 C182.84,287.578 182.867,287.509 182.921,287.467 C182.975,287.425 183.038,287.404 183.11,287.404 L183.11,287.404 L183.11,287.08 L180.842,287.08 L180.842,287.404 C180.914,287.404 180.977,287.425 181.031,287.467 C181.085,287.509 181.112,287.578 181.112,287.674 L181.112,287.674 L181.112,294.406 C181.112,294.502 181.085,294.571 181.031,294.613 C180.977,294.655 180.914,294.676 180.842,294.676 L180.842,294.676 L180.842,295 L183.11,295 Z M195.62,295 L195.62,294.676 C195.284,294.676 195.116,294.586 195.116,294.406 L195.116,294.406 L195.116,287.674 C195.116,287.494 195.284,287.404 195.62,287.404 L195.62,287.404 L195.62,287.08 L192.884,287.08 L192.884,287.404 C193.076,287.404 193.208,287.425 193.28,287.467 C193.352,287.509 193.388,287.578 193.388,287.674 L193.388,287.674 L193.388,294.406 C193.388,294.502 193.352,294.571 193.28,294.613 C193.208,294.655 193.076,294.676 192.884,294.676 L192.884,294.676 L192.884,295 L195.62,295 Z M200.93,295 L200.93,294.676 C200.678,294.676 200.552,294.586 200.552,294.406 L200.552,294.406 L200.552,289.168 L205.016,293.92 C205.16,294.076 205.289,294.214 205.403,294.334 C205.517,294.454 205.574,294.538 205.574,294.586 C205.574,294.646 205.532,294.676 205.448,294.676 L205.448,294.676 L205.448,295 L207.788,295 L207.788,294.676 C207.572,294.676 207.464,294.586 207.464,294.406 L207.464,294.406 L207.464,287.674 C207.464,287.494 207.572,287.404 207.788,287.404 L207.788,287.404 L207.788,287.08 L205.592,287.08 L205.592,287.404 C205.832,287.404 205.952,287.494 205.952,287.674 L205.952,287.674 L205.952,292.552 L201.632,287.98 C201.368,287.716 201.236,287.554 201.236,287.494 C201.236,287.446 201.278,287.416 201.362,287.404 L201.362,287.404 L201.362,287.08 L198.716,287.08 L198.716,287.404 C198.932,287.404 199.04,287.494 199.04,287.674 L199.04,287.674 L199.04,294.406 C199.04,294.586 198.932,294.676 198.716,294.676 L198.716,294.676 L198.716,295 L200.93,295 Z M214.952,295.054 C215.528,295.054 216.05,295.015 216.518,294.937 C216.986,294.859 217.397,294.76 217.751,294.64 C218.105,294.52 218.399,294.397 218.633,294.271 C218.867,294.145 219.038,294.046 219.146,293.974 L219.146,293.974 L219.146,293.758 C219.026,293.71 218.951,293.665 218.921,293.623 C218.891,293.581 218.876,293.506 218.876,293.398 L218.876,293.398 L218.876,291.688 C218.876,291.568 218.894,291.478 218.93,291.418 C218.966,291.358 219.038,291.304 219.146,291.256 L219.146,291.256 L219.146,290.932 L215.618,290.932 C215.486,290.932 215.372,290.914 215.276,290.878 C215.18,290.842 215.12,290.764 215.096,290.644 L215.096,290.644 L214.772,290.644 L214.772,292.498 L215.096,292.498 C215.12,292.354 215.18,292.255 215.276,292.201 C215.372,292.147 215.486,292.12 215.618,292.12 L215.618,292.12 L217.472,292.12 L217.472,293.254 C217.088,293.458 216.665,293.596 216.203,293.668 C215.741,293.74 215.252,293.776 214.736,293.776 C214.388,293.776 214.028,293.728 213.656,293.632 C213.284,293.536 212.945,293.383 212.639,293.173 C212.333,292.963 212.084,292.687 211.892,292.345 C211.7,292.003 211.604,291.58 211.604,291.076 C211.604,290.572 211.694,290.146 211.874,289.798 C212.054,289.45 212.294,289.165 212.594,288.943 C212.894,288.721 213.242,288.559 213.638,288.457 C214.034,288.355 214.454,288.304 214.898,288.304 C215.222,288.304 215.543,288.337 215.861,288.403 C216.179,288.469 216.464,288.556 216.716,288.664 C216.968,288.772 217.172,288.889 217.328,289.015 C217.484,289.141 217.562,289.258 217.562,289.366 C217.562,289.378 217.55,289.444 217.526,289.564 L217.526,289.564 L217.742,289.69 L218.786,287.728 L218.57,287.62 C218.498,287.68 218.438,287.719 218.39,287.737 C218.342,287.755 218.27,287.764 218.174,287.764 C218.09,287.764 217.964,287.722 217.796,287.638 C217.628,287.554 217.406,287.464 217.13,287.368 C216.866,287.272 216.554,287.182 216.194,287.098 C215.834,287.014 215.42,286.972 214.952,286.972 C214.172,286.972 213.467,287.065 212.837,287.251 C212.207,287.437 211.673,287.707 211.235,288.061 C210.797,288.415 210.461,288.841 210.227,289.339 C209.993,289.837 209.876,290.404 209.876,291.04 C209.876,291.676 209.993,292.243 210.227,292.741 C210.461,293.239 210.797,293.662 211.235,294.01 C211.673,294.358 212.207,294.619 212.837,294.793 C213.467,294.967 214.172,295.054 214.952,295.054 Z M235.256,295.054 C235.604,295.054 235.904,294.937 236.156,294.703 C236.408,294.469 236.534,294.178 236.534,293.83 C236.534,293.482 236.408,293.182 236.156,292.93 C235.904,292.678 235.604,292.552 235.256,292.552 C234.908,292.552 234.608,292.678 234.356,292.93 C234.104,293.182 233.978,293.482 233.978,293.83 C233.978,294.178 234.104,294.469 234.356,294.703 C234.608,294.937 234.908,295.054 235.256,295.054 Z M229.262,295.054 C229.61,295.054 229.91,294.937 230.162,294.703 C230.414,294.469 230.54,294.178 230.54,293.83 C230.54,293.482 230.414,293.182 230.162,292.93 C229.91,292.678 229.61,292.552 229.262,292.552 C228.914,292.552 228.614,292.678 228.362,292.93 C228.11,293.182 227.984,293.482 227.984,293.83 C227.984,294.178 228.11,294.469 228.362,294.703 C228.614,294.937 228.914,295.054 229.262,295.054 Z M223.268,295.054 C223.616,295.054 223.916,294.937 224.168,294.703 C224.42,294.469 224.546,294.178 224.546,293.83 C224.546,293.482 224.42,293.182 224.168,292.93 C223.916,292.678 223.616,292.552 223.268,292.552 C222.92,292.552 222.62,292.678 222.368,292.93 C222.116,293.182 221.99,293.482 221.99,293.83 C221.99,294.178 222.116,294.469 222.368,294.703 C222.62,294.937 222.92,295.054 223.268,295.054 Z M58.19,313 L58.19,312.676 C57.962,312.676 57.848,312.61 57.848,312.478 C57.848,312.37 57.908,312.19 58.028,311.938 L58.028,311.938 L58.676,310.66 L63.068,310.66 L63.752,311.992 C63.848,312.184 63.896,312.34 63.896,312.46 C63.896,312.532 63.86,312.586 63.788,312.622 C63.716,312.658 63.656,312.676 63.608,312.676 L63.608,312.676 L63.608,313 L66.776,313 L66.776,312.676 C66.644,312.616 66.527,312.556 66.425,312.496 C66.323,312.436 66.242,312.34 66.182,312.208 L66.182,312.208 L62.438,304.882 C62.354,304.726 62.291,304.6 62.249,304.504 C62.207,304.408 62.186,304.312 62.186,304.216 C62.186,304.084 62.228,303.997 62.312,303.955 C62.396,303.913 62.48,303.88 62.564,303.856 L62.564,303.856 L62.564,303.532 L59.522,303.532 L59.522,303.856 C59.618,303.88 59.708,303.916 59.792,303.964 C59.876,304.012 59.918,304.096 59.918,304.216 C59.918,304.312 59.885,304.426 59.819,304.558 C59.753,304.69 59.678,304.834 59.594,304.99 L59.594,304.99 L56.264,311.992 C56.18,312.16 56.093,312.31 56.003,312.442 C55.913,312.574 55.79,312.652 55.634,312.676 L55.634,312.676 L55.634,313 L58.19,313 Z M62.42,309.328 L59.216,309.328 L60.908,305.98 L62.42,309.328 Z M73.544,313 C74.252,313 74.852,312.886 75.344,312.658 C75.836,312.43 76.238,312.133 76.55,311.767 C76.862,311.401 77.09,310.981 77.234,310.507 C77.378,310.033 77.45,309.544 77.45,309.04 C77.45,308.536 77.375,308.047 77.225,307.573 C77.075,307.099 76.841,306.679 76.523,306.313 C76.205,305.947 75.794,305.65 75.29,305.422 C74.786,305.194 74.18,305.08 73.472,305.08 L73.472,305.08 L68.468,305.08 L68.468,305.404 C68.744,305.404 68.882,305.494 68.882,305.674 L68.882,305.674 L68.882,312.406 C68.882,312.586 68.744,312.676 68.468,312.676 L68.468,312.676 L68.468,313 L73.544,313 Z M72.95,311.668 L70.61,311.668 L70.61,306.412 L72.95,306.412 C73.322,306.412 73.676,306.433 74.012,306.475 C74.348,306.517 74.642,306.625 74.894,306.799 C75.146,306.973 75.347,307.231 75.497,307.573 C75.647,307.915 75.722,308.386 75.722,308.986 C75.722,309.586 75.647,310.063 75.497,310.417 C75.347,310.771 75.146,311.041 74.894,311.227 C74.642,311.413 74.348,311.533 74.012,311.587 C73.676,311.641 73.322,311.668 72.95,311.668 L72.95,311.668 Z M84.542,313 C85.25,313 85.85,312.886 86.342,312.658 C86.834,312.43 87.236,312.133 87.548,311.767 C87.86,311.401 88.088,310.981 88.232,310.507 C88.376,310.033 88.448,309.544 88.448,309.04 C88.448,308.536 88.373,308.047 88.223,307.573 C88.073,307.099 87.839,306.679 87.521,306.313 C87.203,305.947 86.792,305.65 86.288,305.422 C85.784,305.194 85.178,305.08 84.47,305.08 L84.47,305.08 L79.466,305.08 L79.466,305.404 C79.742,305.404 79.88,305.494 79.88,305.674 L79.88,305.674 L79.88,312.406 C79.88,312.586 79.742,312.676 79.466,312.676 L79.466,312.676 L79.466,313 L84.542,313 Z M83.948,311.668 L81.608,311.668 L81.608,306.412 L83.948,306.412 C84.32,306.412 84.674,306.433 85.01,306.475 C85.346,306.517 85.64,306.625 85.892,306.799 C86.144,306.973 86.345,307.231 86.495,307.573 C86.645,307.915 86.72,308.386 86.72,308.986 C86.72,309.586 86.645,310.063 86.495,310.417 C86.345,310.771 86.144,311.041 85.892,311.227 C85.64,311.413 85.346,311.533 85.01,311.587 C84.674,311.641 84.32,311.668 83.948,311.668 L83.948,311.668 Z M100.436,313 L100.436,312.676 C100.22,312.676 100.112,312.586 100.112,312.406 L100.112,312.406 L100.112,306.412 L102.452,306.412 C102.548,306.412 102.638,306.436 102.722,306.484 C102.806,306.532 102.848,306.61 102.848,306.718 L102.848,306.718 L103.172,306.718 L103.172,304.648 L102.848,304.648 C102.848,304.816 102.806,304.93 102.722,304.99 C102.638,305.05 102.548,305.08 102.452,305.08 L102.452,305.08 L96.044,305.08 C95.948,305.08 95.858,305.05 95.774,304.99 C95.69,304.93 95.648,304.816 95.648,304.648 L95.648,304.648 L95.324,304.648 L95.324,306.718 L95.648,306.718 C95.648,306.61 95.69,306.532 95.774,306.484 C95.858,306.436 95.948,306.412 96.044,306.412 L96.044,306.412 L98.384,306.412 L98.384,312.406 C98.384,312.502 98.354,312.571 98.294,312.613 C98.234,312.655 98.174,312.676 98.114,312.676 L98.114,312.676 L98.114,313 L100.436,313 Z M107.6,313 L107.6,312.676 C107.528,312.676 107.465,312.655 107.411,312.613 C107.357,312.571 107.33,312.502 107.33,312.406 L107.33,312.406 L107.33,309.688 L112.154,309.688 L112.154,312.406 C112.154,312.502 112.127,312.571 112.073,312.613 C112.019,312.655 111.956,312.676 111.884,312.676 L111.884,312.676 L111.884,313 L114.152,313 L114.152,312.676 C114.08,312.676 114.017,312.655 113.963,312.613 C113.909,312.571 113.882,312.502 113.882,312.406 L113.882,312.406 L113.882,305.674 C113.882,305.578 113.909,305.509 113.963,305.467 C114.017,305.425 114.08,305.404 114.152,305.404 L114.152,305.404 L114.152,305.08 L111.884,305.08 L111.884,305.404 C111.956,305.404 112.019,305.425 112.073,305.467 C112.127,305.509 112.154,305.578 112.154,305.674 L112.154,305.674 L112.154,308.212 L107.33,308.212 L107.33,305.674 C107.33,305.578 107.357,305.509 107.411,305.467 C107.465,305.425 107.528,305.404 107.6,305.404 L107.6,305.404 L107.6,305.08 L105.332,305.08 L105.332,305.404 C105.404,305.404 105.467,305.425 105.521,305.467 C105.575,305.509 105.602,305.578 105.602,305.674 L105.602,305.674 L105.602,312.406 C105.602,312.502 105.575,312.571 105.521,312.613 C105.467,312.655 105.404,312.676 105.332,312.676 L105.332,312.676 L105.332,313 L107.6,313 Z M120.11,313 L120.11,312.676 C119.774,312.676 119.606,312.586 119.606,312.406 L119.606,312.406 L119.606,305.674 C119.606,305.494 119.774,305.404 120.11,305.404 L120.11,305.404 L120.11,305.08 L117.374,305.08 L117.374,305.404 C117.566,305.404 117.698,305.425 117.77,305.467 C117.842,305.509 117.878,305.578 117.878,305.674 L117.878,305.674 L117.878,312.406 C117.878,312.502 117.842,312.571 117.77,312.613 C117.698,312.655 117.566,312.676 117.374,312.676 L117.374,312.676 L117.374,313 L120.11,313 Z M126.608,313.054 C127.016,313.054 127.451,313.024 127.913,312.964 C128.375,312.904 128.798,312.778 129.182,312.586 C129.566,312.394 129.887,312.13 130.145,311.794 C130.403,311.458 130.532,311.026 130.532,310.498 C130.532,309.97 130.385,309.556 130.091,309.256 C129.797,308.956 129.428,308.728 128.984,308.572 C128.54,308.416 128.06,308.305 127.544,308.239 C127.028,308.173 126.548,308.107 126.104,308.041 C125.66,307.975 125.291,307.885 124.997,307.771 C124.703,307.657 124.556,307.468 124.556,307.204 C124.556,307.036 124.604,306.895 124.7,306.781 C124.796,306.667 124.928,306.574 125.096,306.502 C125.264,306.43 125.456,306.379 125.672,306.349 C125.888,306.319 126.116,306.304 126.356,306.304 C126.98,306.304 127.544,306.376 128.048,306.52 C128.552,306.664 128.924,306.838 129.164,307.042 C129.26,307.114 129.314,307.186 129.326,307.258 L129.326,307.258 L129.362,307.474 L129.686,307.582 L130.586,305.89 L130.388,305.692 C130.316,305.728 130.256,305.761 130.208,305.791 C130.16,305.821 130.088,305.836 129.992,305.836 C129.908,305.836 129.779,305.791 129.605,305.701 C129.431,305.611 129.206,305.512 128.93,305.404 C128.654,305.296 128.315,305.197 127.913,305.107 C127.511,305.017 127.028,304.972 126.464,304.972 C125.312,304.972 124.418,305.2 123.782,305.656 C123.146,306.112 122.828,306.724 122.828,307.492 C122.828,308.008 122.975,308.407 123.269,308.689 C123.563,308.971 123.932,309.187 124.376,309.337 C124.82,309.487 125.3,309.595 125.816,309.661 C126.332,309.727 126.812,309.793 127.256,309.859 C127.7,309.925 128.069,310.018 128.363,310.138 C128.657,310.258 128.804,310.45 128.804,310.714 C128.804,310.942 128.72,311.125 128.552,311.263 C128.384,311.401 128.18,311.509 127.94,311.587 C127.7,311.665 127.457,311.716 127.211,311.74 C126.965,311.764 126.758,311.776 126.59,311.776 C126.41,311.776 126.161,311.746 125.843,311.686 C125.525,311.626 125.207,311.545 124.889,311.443 C124.571,311.341 124.298,311.215 124.07,311.065 C123.842,310.915 123.728,310.75 123.728,310.57 C123.728,310.51 123.731,310.453 123.737,310.399 C123.743,310.345 123.746,310.294 123.746,310.246 L123.746,310.246 L123.404,310.156 L122.576,312.172 L122.828,312.352 C122.888,312.28 122.96,312.244 123.044,312.244 C123.092,312.244 123.23,312.289 123.458,312.379 C123.686,312.469 123.965,312.565 124.295,312.667 C124.625,312.769 124.991,312.859 125.393,312.937 C125.795,313.015 126.2,313.054 126.608,313.054 Z M142.934,313 L142.934,312.676 C142.718,312.676 142.61,312.586 142.61,312.406 L142.61,312.406 L142.61,306.412 L144.95,306.412 C145.046,306.412 145.136,306.436 145.22,306.484 C145.304,306.532 145.346,306.61 145.346,306.718 L145.346,306.718 L145.67,306.718 L145.67,304.648 L145.346,304.648 C145.346,304.816 145.304,304.93 145.22,304.99 C145.136,305.05 145.046,305.08 144.95,305.08 L144.95,305.08 L138.542,305.08 C138.446,305.08 138.356,305.05 138.272,304.99 C138.188,304.93 138.146,304.816 138.146,304.648 L138.146,304.648 L137.822,304.648 L137.822,306.718 L138.146,306.718 C138.146,306.61 138.188,306.532 138.272,306.484 C138.356,306.436 138.446,306.412 138.542,306.412 L138.542,306.412 L140.882,306.412 L140.882,312.406 C140.882,312.502 140.852,312.571 140.792,312.613 C140.732,312.655 140.672,312.676 140.612,312.676 L140.612,312.676 L140.612,313 L142.934,313 Z M151.736,313.054 C152.396,313.054 153.017,312.979 153.599,312.829 C154.181,312.679 154.688,312.436 155.12,312.1 C155.552,311.764 155.894,311.341 156.146,310.831 C156.398,310.321 156.524,309.724 156.524,309.04 C156.524,308.356 156.398,307.759 156.146,307.249 C155.894,306.739 155.552,306.316 155.12,305.98 C154.688,305.644 154.181,305.392 153.599,305.224 C153.017,305.056 152.396,304.972 151.736,304.972 C151.076,304.972 150.455,305.056 149.873,305.224 C149.291,305.392 148.784,305.644 148.352,305.98 C147.92,306.316 147.578,306.739 147.326,307.249 C147.074,307.759 146.948,308.356 146.948,309.04 C146.948,309.724 147.074,310.321 147.326,310.831 C147.578,311.341 147.92,311.764 148.352,312.1 C148.784,312.436 149.291,312.679 149.873,312.829 C150.455,312.979 151.076,313.054 151.736,313.054 Z M151.736,311.776 C151.352,311.776 150.977,311.713 150.611,311.587 C150.245,311.461 149.918,311.281 149.63,311.047 C149.342,310.813 149.111,310.528 148.937,310.192 C148.763,309.856 148.676,309.472 148.676,309.04 C148.676,308.608 148.763,308.224 148.937,307.888 C149.111,307.552 149.342,307.267 149.63,307.033 C149.918,306.799 150.245,306.619 150.611,306.493 C150.977,306.367 151.352,306.304 151.736,306.304 C152.12,306.304 152.495,306.367 152.861,306.493 C153.227,306.619 153.554,306.799 153.842,307.033 C154.13,307.267 154.361,307.552 154.535,307.888 C154.709,308.224 154.796,308.608 154.796,309.04 C154.796,309.472 154.709,309.856 154.535,310.192 C154.361,310.528 154.13,310.813 153.842,311.047 C153.554,311.281 153.227,311.461 152.861,311.587 C152.495,311.713 152.12,311.776 151.736,311.776 Z M168.944,313 L168.944,312.676 C168.716,312.676 168.602,312.586 168.602,312.406 L168.602,312.406 L168.602,309.706 L171.356,306.142 C171.488,305.974 171.641,305.809 171.815,305.647 C171.989,305.485 172.148,305.404 172.292,305.404 L172.292,305.404 L172.292,305.08 L169.538,305.08 L169.538,305.404 C169.598,305.404 169.658,305.416 169.718,305.44 C169.778,305.464 169.808,305.524 169.808,305.62 C169.808,305.692 169.781,305.767 169.727,305.845 C169.673,305.923 169.592,306.04 169.484,306.196 L169.484,306.196 L167.882,308.428 L166.064,306.052 C166.004,305.968 165.95,305.896 165.902,305.836 C165.854,305.776 165.83,305.71 165.83,305.638 C165.83,305.566 165.866,305.509 165.938,305.467 C166.01,305.425 166.076,305.404 166.136,305.404 L166.136,305.404 L166.136,305.08 L163.166,305.08 L163.166,305.404 C163.274,305.404 163.388,305.428 163.508,305.476 C163.628,305.524 163.73,305.602 163.814,305.71 L163.814,305.71 L166.874,309.634 L166.874,312.406 C166.874,312.586 166.766,312.676 166.55,312.676 L166.55,312.676 L166.55,313 L168.944,313 Z M178.232,313.054 C178.892,313.054 179.513,312.979 180.095,312.829 C180.677,312.679 181.184,312.436 181.616,312.1 C182.048,311.764 182.39,311.341 182.642,310.831 C182.894,310.321 183.02,309.724 183.02,309.04 C183.02,308.356 182.894,307.759 182.642,307.249 C182.39,306.739 182.048,306.316 181.616,305.98 C181.184,305.644 180.677,305.392 180.095,305.224 C179.513,305.056 178.892,304.972 178.232,304.972 C177.572,304.972 176.951,305.056 176.369,305.224 C175.787,305.392 175.28,305.644 174.848,305.98 C174.416,306.316 174.074,306.739 173.822,307.249 C173.57,307.759 173.444,308.356 173.444,309.04 C173.444,309.724 173.57,310.321 173.822,310.831 C174.074,311.341 174.416,311.764 174.848,312.1 C175.28,312.436 175.787,312.679 176.369,312.829 C176.951,312.979 177.572,313.054 178.232,313.054 Z M178.232,311.776 C177.848,311.776 177.473,311.713 177.107,311.587 C176.741,311.461 176.414,311.281 176.126,311.047 C175.838,310.813 175.607,310.528 175.433,310.192 C175.259,309.856 175.172,309.472 175.172,309.04 C175.172,308.608 175.259,308.224 175.433,307.888 C175.607,307.552 175.838,307.267 176.126,307.033 C176.414,306.799 176.741,306.619 177.107,306.493 C177.473,306.367 177.848,306.304 178.232,306.304 C178.616,306.304 178.991,306.367 179.357,306.493 C179.723,306.619 180.05,306.799 180.338,307.033 C180.626,307.267 180.857,307.552 181.031,307.888 C181.205,308.224 181.292,308.608 181.292,309.04 C181.292,309.472 181.205,309.856 181.031,310.192 C180.857,310.528 180.626,310.813 180.338,311.047 C180.05,311.281 179.723,311.461 179.357,311.587 C178.991,311.713 178.616,311.776 178.232,311.776 Z M189.806,313.054 C190.526,313.054 191.153,312.979 191.687,312.829 C192.221,312.679 192.659,312.472 193.001,312.208 C193.343,311.944 193.598,311.641 193.766,311.299 C193.934,310.957 194.018,310.6 194.018,310.228 L194.018,310.228 L194.018,305.674 C194.018,305.494 194.15,305.404 194.414,305.404 L194.414,305.404 L194.414,305.08 L191.912,305.08 L191.912,305.404 C192.212,305.404 192.362,305.494 192.362,305.674 L192.362,305.674 L192.362,309.796 C192.362,310.372 192.152,310.834 191.732,311.182 C191.312,311.53 190.67,311.704 189.806,311.704 C188.942,311.704 188.3,311.53 187.88,311.182 C187.46,310.834 187.25,310.372 187.25,309.796 L187.25,309.796 L187.25,305.674 C187.25,305.494 187.382,305.404 187.646,305.404 L187.646,305.404 L187.646,305.08 L185.072,305.08 L185.072,305.404 C185.276,305.404 185.414,305.425 185.486,305.467 C185.558,305.509 185.594,305.578 185.594,305.674 L185.594,305.674 L185.594,310.228 C185.594,310.6 185.678,310.957 185.846,311.299 C186.014,311.641 186.269,311.944 186.611,312.208 C186.953,312.472 187.391,312.679 187.925,312.829 C188.459,312.979 189.086,313.054 189.806,313.054 Z M199.544,313 L199.544,312.676 C199.472,312.676 199.397,312.655 199.319,312.613 C199.241,312.571 199.202,312.502 199.202,312.406 L199.202,312.406 L199.202,309.832 L201.704,309.832 L203.126,311.956 C203.306,312.208 203.396,312.394 203.396,312.514 C203.396,312.622 203.318,312.676 203.162,312.676 L203.162,312.676 L203.162,313 L205.916,313 L205.916,312.676 C205.784,312.64 205.661,312.589 205.547,312.523 C205.433,312.457 205.328,312.358 205.232,312.226 L205.232,312.226 L203.468,309.652 C203.72,309.592 203.966,309.505 204.206,309.391 C204.446,309.277 204.665,309.127 204.863,308.941 C205.061,308.755 205.22,308.536 205.34,308.284 C205.46,308.032 205.52,307.744 205.52,307.42 C205.52,306.568 205.22,305.965 204.62,305.611 C204.02,305.257 203.186,305.08 202.118,305.08 L202.118,305.08 L197.15,305.08 L197.15,305.404 C197.366,305.404 197.474,305.494 197.474,305.674 L197.474,305.674 L197.474,312.406 C197.474,312.586 197.366,312.676 197.15,312.676 L197.15,312.676 L197.15,313 L199.544,313 Z M202.082,308.5 L199.238,308.5 L199.238,306.412 L202.082,306.412 C202.694,306.412 203.141,306.499 203.423,306.673 C203.705,306.847 203.846,307.084 203.846,307.384 C203.846,308.128 203.258,308.5 202.082,308.5 L202.082,308.5 Z M74.354,331.054 C74.762,331.054 75.197,331.024 75.659,330.964 C76.121,330.904 76.544,330.778 76.928,330.586 C77.312,330.394 77.633,330.13 77.891,329.794 C78.149,329.458 78.278,329.026 78.278,328.498 C78.278,327.97 78.131,327.556 77.837,327.256 C77.543,326.956 77.174,326.728 76.73,326.572 C76.286,326.416 75.806,326.305 75.29,326.239 C74.774,326.173 74.294,326.107 73.85,326.041 C73.406,325.975 73.037,325.885 72.743,325.771 C72.449,325.657 72.302,325.468 72.302,325.204 C72.302,325.036 72.35,324.895 72.446,324.781 C72.542,324.667 72.674,324.574 72.842,324.502 C73.01,324.43 73.202,324.379 73.418,324.349 C73.634,324.319 73.862,324.304 74.102,324.304 C74.726,324.304 75.29,324.376 75.794,324.52 C76.298,324.664 76.67,324.838 76.91,325.042 C77.006,325.114 77.06,325.186 77.072,325.258 L77.072,325.258 L77.108,325.474 L77.432,325.582 L78.332,323.89 L78.134,323.692 C78.062,323.728 78.002,323.761 77.954,323.791 C77.906,323.821 77.834,323.836 77.738,323.836 C77.654,323.836 77.525,323.791 77.351,323.701 C77.177,323.611 76.952,323.512 76.676,323.404 C76.4,323.296 76.061,323.197 75.659,323.107 C75.257,323.017 74.774,322.972 74.21,322.972 C73.058,322.972 72.164,323.2 71.528,323.656 C70.892,324.112 70.574,324.724 70.574,325.492 C70.574,326.008 70.721,326.407 71.015,326.689 C71.309,326.971 71.678,327.187 72.122,327.337 C72.566,327.487 73.046,327.595 73.562,327.661 C74.078,327.727 74.558,327.793 75.002,327.859 C75.446,327.925 75.815,328.018 76.109,328.138 C76.403,328.258 76.55,328.45 76.55,328.714 C76.55,328.942 76.466,329.125 76.298,329.263 C76.13,329.401 75.926,329.509 75.686,329.587 C75.446,329.665 75.203,329.716 74.957,329.74 C74.711,329.764 74.504,329.776 74.336,329.776 C74.156,329.776 73.907,329.746 73.589,329.686 C73.271,329.626 72.953,329.545 72.635,329.443 C72.317,329.341 72.044,329.215 71.816,329.065 C71.588,328.915 71.474,328.75 71.474,328.57 C71.474,328.51 71.477,328.453 71.483,328.399 C71.489,328.345 71.492,328.294 71.492,328.246 L71.492,328.246 L71.15,328.156 L70.322,330.172 L70.574,330.352 C70.634,330.28 70.706,330.244 70.79,330.244 C70.838,330.244 70.976,330.289 71.204,330.379 C71.432,330.469 71.711,330.565 72.041,330.667 C72.371,330.769 72.737,330.859 73.139,330.937 C73.541,331.015 73.946,331.054 74.354,331.054 Z M85.712,331 L85.712,330.676 C85.484,330.676 85.37,330.586 85.37,330.406 L85.37,330.406 L85.37,327.706 L88.124,324.142 C88.256,323.974 88.409,323.809 88.583,323.647 C88.757,323.485 88.916,323.404 89.06,323.404 L89.06,323.404 L89.06,323.08 L86.306,323.08 L86.306,323.404 C86.366,323.404 86.426,323.416 86.486,323.44 C86.546,323.464 86.576,323.524 86.576,323.62 C86.576,323.692 86.549,323.767 86.495,323.845 C86.441,323.923 86.36,324.04 86.252,324.196 L86.252,324.196 L84.65,326.428 L82.832,324.052 C82.772,323.968 82.718,323.896 82.67,323.836 C82.622,323.776 82.598,323.71 82.598,323.638 C82.598,323.566 82.634,323.509 82.706,323.467 C82.778,323.425 82.844,323.404 82.904,323.404 L82.904,323.404 L82.904,323.08 L79.934,323.08 L79.934,323.404 C80.042,323.404 80.156,323.428 80.276,323.476 C80.396,323.524 80.498,323.602 80.582,323.71 L80.582,323.71 L83.642,327.634 L83.642,330.406 C83.642,330.586 83.534,330.676 83.318,330.676 L83.318,330.676 L83.318,331 L85.712,331 Z M93.218,331 L93.218,330.676 C93.014,330.676 92.912,330.586 92.912,330.406 L92.912,330.406 L92.912,325.348 L92.93,325.348 L95.828,331 L95.972,331 L99.032,325.348 L99.068,325.348 L99.068,330.406 C99.104,330.586 98.996,330.676 98.744,330.676 L98.744,330.676 L98.744,331 L100.832,331 L100.832,330.676 C100.772,330.676 100.715,330.655 100.661,330.613 C100.607,330.571 100.58,330.502 100.58,330.406 L100.58,330.406 L100.58,323.638 C100.58,323.542 100.607,323.479 100.661,323.449 C100.715,323.419 100.772,323.404 100.832,323.404 L100.832,323.404 L100.832,323.08 L98.294,323.08 L98.294,323.404 C98.39,323.404 98.438,323.458 98.438,323.566 C98.438,323.602 98.414,323.665 98.366,323.755 C98.318,323.845 98.252,323.962 98.168,324.106 L98.168,324.106 L95.954,328.138 L93.758,324.088 C93.674,323.944 93.611,323.833 93.569,323.755 C93.527,323.677 93.506,323.614 93.506,323.566 C93.506,323.458 93.566,323.404 93.686,323.404 L93.686,323.404 L93.686,323.08 L91.184,323.08 L91.184,323.404 C91.268,323.404 91.325,323.422 91.355,323.458 C91.385,323.494 91.4,323.596 91.4,323.764 L91.4,323.764 L91.4,330.352 C91.4,330.484 91.379,330.568 91.337,330.604 C91.295,330.64 91.244,330.664 91.184,330.676 L91.184,330.676 L91.184,331 L93.218,331 Z M106.268,331 L106.268,330.676 C106.016,330.676 105.89,330.586 105.89,330.406 L105.89,330.406 L105.89,327.706 L108.95,327.706 C109.922,327.706 110.651,327.541 111.137,327.211 C111.623,326.881 111.866,326.284 111.866,325.42 C111.866,324.556 111.623,323.95 111.137,323.602 C110.651,323.254 109.922,323.08 108.95,323.08 L108.95,323.08 L103.712,323.08 L103.712,323.404 C104.012,323.404 104.162,323.494 104.162,323.674 L104.162,323.674 L104.162,330.406 C104.162,330.586 104.012,330.676 103.712,330.676 L103.712,330.676 L103.712,331 L106.268,331 Z M108.914,326.374 L105.89,326.374 L105.89,324.412 L108.914,324.412 C109.262,324.412 109.553,324.487 109.787,324.637 C110.021,324.787 110.138,325.048 110.138,325.42 C110.138,325.804 110.021,326.059 109.787,326.185 C109.553,326.311 109.262,326.374 108.914,326.374 L108.914,326.374 Z M118.202,331 L118.202,330.676 C117.986,330.676 117.878,330.586 117.878,330.406 L117.878,330.406 L117.878,324.412 L120.218,324.412 C120.314,324.412 120.404,324.436 120.488,324.484 C120.572,324.532 120.614,324.61 120.614,324.718 L120.614,324.718 L120.938,324.718 L120.938,322.648 L120.614,322.648 C120.614,322.816 120.572,322.93 120.488,322.99 C120.404,323.05 120.314,323.08 120.218,323.08 L120.218,323.08 L113.81,323.08 C113.714,323.08 113.624,323.05 113.54,322.99 C113.456,322.93 113.414,322.816 113.414,322.648 L113.414,322.648 L113.09,322.648 L113.09,324.718 L113.414,324.718 C113.414,324.61 113.456,324.532 113.54,324.484 C113.624,324.436 113.714,324.412 113.81,324.412 L113.81,324.412 L116.15,324.412 L116.15,330.406 C116.15,330.502 116.12,330.571 116.06,330.613 C116,330.655 115.94,330.676 115.88,330.676 L115.88,330.676 L115.88,331 L118.202,331 Z M127.004,331.054 C127.664,331.054 128.285,330.979 128.867,330.829 C129.449,330.679 129.956,330.436 130.388,330.1 C130.82,329.764 131.162,329.341 131.414,328.831 C131.666,328.321 131.792,327.724 131.792,327.04 C131.792,326.356 131.666,325.759 131.414,325.249 C131.162,324.739 130.82,324.316 130.388,323.98 C129.956,323.644 129.449,323.392 128.867,323.224 C128.285,323.056 127.664,322.972 127.004,322.972 C126.344,322.972 125.723,323.056 125.141,323.224 C124.559,323.392 124.052,323.644 123.62,323.98 C123.188,324.316 122.846,324.739 122.594,325.249 C122.342,325.759 122.216,326.356 122.216,327.04 C122.216,327.724 122.342,328.321 122.594,328.831 C122.846,329.341 123.188,329.764 123.62,330.1 C124.052,330.436 124.559,330.679 125.141,330.829 C125.723,330.979 126.344,331.054 127.004,331.054 Z M127.004,329.776 C126.62,329.776 126.245,329.713 125.879,329.587 C125.513,329.461 125.186,329.281 124.898,329.047 C124.61,328.813 124.379,328.528 124.205,328.192 C124.031,327.856 123.944,327.472 123.944,327.04 C123.944,326.608 124.031,326.224 124.205,325.888 C124.379,325.552 124.61,325.267 124.898,325.033 C125.186,324.799 125.513,324.619 125.879,324.493 C126.245,324.367 126.62,324.304 127.004,324.304 C127.388,324.304 127.763,324.367 128.129,324.493 C128.495,324.619 128.822,324.799 129.11,325.033 C129.398,325.267 129.629,325.552 129.803,325.888 C129.977,326.224 130.064,326.608 130.064,327.04 C130.064,327.472 129.977,327.856 129.803,328.192 C129.629,328.528 129.398,328.813 129.11,329.047 C128.822,329.281 128.495,329.461 128.129,329.587 C127.763,329.713 127.388,329.776 127.004,329.776 Z M136.22,331 L136.22,330.676 C136.016,330.676 135.914,330.586 135.914,330.406 L135.914,330.406 L135.914,325.348 L135.932,325.348 L138.83,331 L138.974,331 L142.034,325.348 L142.07,325.348 L142.07,330.406 C142.106,330.586 141.998,330.676 141.746,330.676 L141.746,330.676 L141.746,331 L143.834,331 L143.834,330.676 C143.774,330.676 143.717,330.655 143.663,330.613 C143.609,330.571 143.582,330.502 143.582,330.406 L143.582,330.406 L143.582,323.638 C143.582,323.542 143.609,323.479 143.663,323.449 C143.717,323.419 143.774,323.404 143.834,323.404 L143.834,323.404 L143.834,323.08 L141.296,323.08 L141.296,323.404 C141.392,323.404 141.44,323.458 141.44,323.566 C141.44,323.602 141.416,323.665 141.368,323.755 C141.32,323.845 141.254,323.962 141.17,324.106 L141.17,324.106 L138.956,328.138 L136.76,324.088 C136.676,323.944 136.613,323.833 136.571,323.755 C136.529,323.677 136.508,323.614 136.508,323.566 C136.508,323.458 136.568,323.404 136.688,323.404 L136.688,323.404 L136.688,323.08 L134.186,323.08 L134.186,323.404 C134.27,323.404 134.327,323.422 134.357,323.458 C134.387,323.494 134.402,323.596 134.402,323.764 L134.402,323.764 L134.402,330.352 C134.402,330.484 134.381,330.568 134.339,330.604 C134.297,330.64 134.246,330.664 134.186,330.676 L134.186,330.676 L134.186,331 L136.22,331 Z M154.76,331 L154.76,330.676 C154.508,330.676 154.382,330.586 154.382,330.406 L154.382,330.406 L154.382,327.706 L157.442,327.706 C158.414,327.706 159.143,327.541 159.629,327.211 C160.115,326.881 160.358,326.284 160.358,325.42 C160.358,324.556 160.115,323.95 159.629,323.602 C159.143,323.254 158.414,323.08 157.442,323.08 L157.442,323.08 L152.204,323.08 L152.204,323.404 C152.504,323.404 152.654,323.494 152.654,323.674 L152.654,323.674 L152.654,330.406 C152.654,330.586 152.504,330.676 152.204,330.676 L152.204,330.676 L152.204,331 L154.76,331 Z M157.406,326.374 L154.382,326.374 L154.382,324.412 L157.406,324.412 C157.754,324.412 158.045,324.487 158.279,324.637 C158.513,324.787 158.63,325.048 158.63,325.42 C158.63,325.804 158.513,326.059 158.279,326.185 C158.045,326.311 157.754,326.374 157.406,326.374 L157.406,326.374 Z M165.362,331 L165.362,330.676 C165.026,330.676 164.858,330.586 164.858,330.406 L164.858,330.406 L164.858,323.674 C164.858,323.494 165.026,323.404 165.362,323.404 L165.362,323.404 L165.362,323.08 L162.626,323.08 L162.626,323.404 C162.818,323.404 162.95,323.425 163.022,323.467 C163.094,323.509 163.13,323.578 163.13,323.674 L163.13,323.674 L163.13,330.406 C163.13,330.502 163.094,330.571 163.022,330.613 C162.95,330.655 162.818,330.676 162.626,330.676 L162.626,330.676 L162.626,331 L165.362,331 Z M176.252,331.18 L176.252,329.29 L175.928,329.29 C175.928,329.41 175.88,329.503 175.784,329.569 C175.688,329.635 175.568,329.668 175.424,329.668 L175.424,329.668 L170.564,329.668 L170.564,323.674 C170.564,323.494 170.702,323.404 170.978,323.404 L170.978,323.404 L170.978,323.08 L168.368,323.08 L168.368,323.404 C168.68,323.404 168.836,323.494 168.836,323.674 L168.836,323.674 L168.836,330.406 C168.836,330.586 168.68,330.676 168.368,330.676 L168.368,330.676 L168.368,331 L175.424,331 C175.568,331 175.688,331.006 175.784,331.018 C175.88,331.03 175.928,331.084 175.928,331.18 L175.928,331.18 L176.252,331.18 Z M185.918,331.198 L185.918,329.308 L185.594,329.308 C185.594,329.416 185.546,329.503 185.45,329.569 C185.354,329.635 185.234,329.668 185.09,329.668 L185.09,329.668 L180.482,329.668 L180.482,327.544 L183.11,327.544 C183.35,327.544 183.536,327.559 183.668,327.589 C183.8,327.619 183.848,327.7 183.812,327.832 L183.812,327.832 L184.172,327.832 L184.172,325.924 L183.848,325.924 C183.848,326.056 183.8,326.137 183.704,326.167 C183.608,326.197 183.458,326.212 183.254,326.212 L183.254,326.212 L180.482,326.212 L180.482,324.412 L184.874,324.412 C185.246,324.412 185.432,324.526 185.432,324.754 L185.432,324.754 L185.756,324.754 L185.756,322.756 L185.432,322.756 C185.432,322.972 185.246,323.08 184.874,323.08 L184.874,323.08 L178.484,323.08 L178.484,323.404 C178.544,323.404 178.604,323.425 178.664,323.467 C178.724,323.509 178.754,323.578 178.754,323.674 L178.754,323.674 L178.754,330.406 C178.754,330.502 178.724,330.571 178.664,330.613 C178.604,330.655 178.544,330.676 178.484,330.676 L178.484,330.676 L178.484,331 L185.09,331 C185.234,331 185.354,331.006 185.45,331.018 C185.546,331.03 185.594,331.09 185.594,331.198 L185.594,331.198 L185.918,331.198 Z M189.752,331.054 C190.1,331.054 190.4,330.937 190.652,330.703 C190.904,330.469 191.03,330.178 191.03,329.83 C191.03,329.482 190.904,329.182 190.652,328.93 C190.4,328.678 190.1,328.552 189.752,328.552 C189.404,328.552 189.104,328.678 188.852,328.93 C188.6,329.182 188.474,329.482 188.474,329.83 C188.474,330.178 188.6,330.469 188.852,330.703 C189.104,330.937 189.404,331.054 189.752,331.054 Z" id="IcanhearmyneighborsbreathingAddthistoyoursymptompile." fill="#000000" fill-rule="nonzero"></path>
    </g>
</svg>