<?xml version="1.0" encoding="UTF-8"?>
<svg width="262px" height="360px" viewBox="0 0 262 360" version="1.1" xmlns="http://www.w3.org/2000/svg" xmlns:xlink="http://www.w3.org/1999/xlink">
    <title>Role Back Print</title>
    <g id="Role-Back-Print" stroke="none" stroke-width="1" fill="none" fill-rule="evenodd">
        <g id="Group" transform="translate(10.000000, 10.000000)" fill="#FFFFFF" stroke="#000000" stroke-width="3">
            <g id="Rectangle">
                <rect x="1.5" y="1.5" width="239" height="337" rx="8"></rect>
            </g>
        </g>
        <g id="Person" transform="translate(200.000000, 294.000000)" fill="#000000">
            <path d="M0,46 L0,36 C0,27.163444 7.163444,20 16,20 L26,20 C34.836556,20 42,27.163444 42,36 L42,46" id="Path"></path>
            <circle id="Oval" cx="21" cy="9" r="9"></circle>
        </g>
        <g id="Group" transform="translate(19.000000, 70.000000)" stroke="#000000">
            <g id="Virus" transform="translate(-1.715385, 0.000000)">
                <ellipse id="Oval" cx="112.477467" cy="111.356589" rx="93.8461538" ry="93.7248062"></ellipse>
                <path d="M104.638462,18.8449612 L106.561957,16.9239396 C107.527048,15.9600898 108.069231,14.652829 108.069231,13.2897396 L108.069231,5.13953488 L108.069231,5.13953488 L106.172748,4.19251321 C105.232436,3.72296182 104.638462,2.76312713 104.638462,1.71317829 L104.638462,0.856589147 C104.638462,0.383508024 105.022463,0 105.496154,0 L119.219231,0 C119.692921,0 120.076923,0.383508024 120.076923,0.856589147 L120.076923,1.71317829 C120.076923,2.76312713 119.482949,3.72296182 118.542636,4.19251321 L116.646154,5.13953488 L116.646154,5.13953488 L116.646154,13.2897396 C116.646154,14.652829 117.188336,15.9600898 118.153427,16.9239396 L120.076923,18.8449612 L120.076923,18.8449612" id="Path"></path>
                <path d="M129.062012,21.8099868 L130.985944,19.8882396 C131.951253,18.9240258 132.49379,17.6165028 132.494202,16.2533106 L132.496666,8.10249159 L132.496666,8.10249159 L130.600613,7.15597112 C129.660513,6.68666823 129.066874,5.72694053 129.067191,4.67691255 L129.06745,3.82025884 C129.067593,3.34714206 129.451682,2.9634892 129.925337,2.96334618 L143.647381,2.95920292 C144.121035,2.95920292 144.504749,3.34248094 144.504749,3.81559772 L144.50449,4.67225143 C144.504173,5.72227941 143.909953,6.68236577 142.96957,7.15223645 L141.072944,8.09990208 L141.072944,8.09990208 L141.07048,16.2507211 C141.070068,17.6139132 141.611814,18.9211089 142.576541,19.8847399 L144.499311,21.8053257 L144.499311,21.8053257" id="Path" transform="translate(136.783381, 12.384595) rotate(14.000000) translate(-136.783381, -12.384595) "></path>
                <path d="M152.067688,30.5275552 L153.991664,28.6049627 C154.956996,27.6403248 155.499723,26.3324039 155.500451,24.9689276 L155.504802,16.8164094 L155.504802,16.8164094 L153.609362,15.8701301 C152.669567,15.4009467 152.076274,14.4411563 152.076834,13.3909094 L152.077291,12.5340771 C152.077544,12.0608617 152.461642,11.6770401 152.935198,11.6767875 L166.654384,11.6694709 C167.127941,11.6692185 167.511629,12.0526307 167.511376,12.5258461 L167.510919,13.3826783 C167.510359,14.4329252 166.91604,15.393349 165.975744,15.863535 L164.079293,16.8118366 L164.079293,16.8118366 L164.074942,24.9643548 C164.074215,26.3278311 164.615546,27.6351739 165.579849,28.5987827 L167.501773,30.5193241 L167.501773,30.5193241" id="Path" transform="translate(159.789532, 21.098513) rotate(28.000000) translate(-159.789532, -21.098513) "></path>
                <path d="M172.318629,44.4904102 L174.242247,42.5670506 C175.2074,41.6020279 175.750107,40.2936665 175.75098,38.9297911 L175.756199,30.7748868 L175.756199,30.7748868 L173.861415,29.8285321 C172.921945,29.3593113 172.328928,28.3993031 172.3296,27.3487488 L172.330149,26.4916657 C172.330452,26.0183118 172.714478,25.6343371 173.187896,25.6340341 L186.90307,25.625257 C187.376487,25.6249542 187.760022,26.0084378 187.75972,26.4817917 L187.759171,27.3388747 C187.758499,28.389429 187.164251,29.350197 186.22418,29.8206206 L184.328183,30.7694013 L184.328183,30.7694013 L184.322964,38.9243055 C184.322091,40.2881809 184.863124,41.5958487 185.827042,42.559637 L187.7482,44.4805362 L187.7482,44.4805362" id="Path" transform="translate(180.039174, 35.057834) rotate(42.000000) translate(-180.039174, -35.057834) "></path>
                <path d="M188.637485,62.8863809 L190.560483,60.9625368 C191.525325,59.9972709 192.06783,58.6885527 192.068655,57.3242854 L192.073587,49.1670376 L192.073587,49.1670376 L190.179314,48.2203436 C189.240097,47.7509547 188.647216,46.7906495 188.647852,45.7397933 L188.64837,44.882464 C188.648656,44.408974 189.032559,44.0249025 189.50584,44.0246163 L203.217073,44.016323 C203.690355,44.0160369 204.073793,44.3996443 204.073507,44.8731343 L204.072989,45.7304636 C204.072354,46.7813198 203.478311,47.7423429 202.538526,48.2128683 L200.643107,49.1618544 L200.643107,49.1618544 L200.638176,57.3191022 C200.637351,58.6833696 201.178274,59.9914324 202.141949,60.9555319 L204.062623,62.8770512 L204.062623,62.8770512" id="Path" transform="translate(196.355496, 53.451352) rotate(55.000000) translate(-196.355496, -53.451352) "></path>
                <path d="M200.075794,84.6463441 L201.997961,82.7223385 C202.962385,81.7569916 203.504523,80.4480301 203.50511,79.0834107 L203.508622,70.9240577 L203.508622,70.9240577 L201.614674,69.9767891 C200.675618,69.5071153 200.082723,68.5464589 200.083175,67.4953315 L200.083544,66.6377809 C200.083748,66.1641687 200.467485,65.780065 200.940644,65.7798612 L214.648337,65.7739558 C215.121497,65.7737521 215.504903,66.1575253 215.504699,66.6311375 L215.50433,67.4886881 C215.503878,68.5398154 214.910155,69.5009831 213.970695,69.9714662 L212.07593,70.9203669 L212.07593,70.9203669 L212.072419,79.0797199 C212.071831,80.4443393 212.612843,81.7528341 213.576437,82.7173505 L215.496948,84.6397007 L215.496948,84.6397007" id="Path" transform="translate(207.790246, 75.210150) rotate(69.000000) translate(-207.790246, -75.210150) "></path>
                <path d="M205.96798,108.505301 L207.889338,106.581543 C208.853356,105.61632 209.395055,104.307317 209.395268,102.942498 L209.396537,94.7819529 L209.396537,94.7819529 L207.502605,93.8340247 C206.563558,93.3640239 205.970485,92.4030639 205.970649,91.3517829 L205.970782,90.494107 C205.970856,90.0204257 206.354431,89.6363713 206.827521,89.6362976 L220.53321,89.6341626 C221.0063,89.6341626 221.389682,90.0180238 221.389682,90.4917051 L221.389682,91.349381 C221.389385,92.400662 220.796014,93.3618068 219.85682,93.8321002 L217.962593,94.7806185 L217.962593,94.7806185 L217.961323,102.941164 C217.961111,104.305982 218.502402,105.614817 219.466121,106.57974 L221.38688,108.502899 L221.38688,108.502899" id="Path" transform="translate(213.678831, 99.069732) rotate(83.000000) translate(-213.678831, -99.069732) "></path>
                <path d="M205.970782,133.076614 L207.891541,131.153454 C208.85526,130.188532 209.396551,128.879697 209.396339,127.514878 L209.395069,119.354333 L209.395069,119.354333 L207.500842,118.405815 C206.561648,117.935521 205.968277,116.974376 205.96798,115.923095 L205.96798,115.065419 C205.96798,114.591738 206.351362,114.207877 206.824452,114.207877 L220.530141,114.210012 C221.003231,114.210086 221.386806,114.59414 221.38688,115.067821 L221.387013,115.925497 C221.387177,116.976778 220.794104,117.937738 219.855057,118.407739 L217.961125,119.355667 L217.961125,119.355667 L217.962394,127.516212 C217.962607,128.881031 218.504306,130.190035 219.468324,131.155257 L221.389682,133.079016 L221.389682,133.079016" id="Path" transform="translate(213.678831, 123.643446) rotate(97.000000) translate(-213.678831, -123.643446) "></path>
                <path d="M200.083544,156.932579 L202.004056,155.010229 C202.96765,154.045712 203.508661,152.737218 203.508074,151.372598 L203.504562,143.213245 L203.504562,143.213245 L201.609798,142.264345 C200.670337,141.793861 200.076615,140.832694 200.076163,139.781566 L200.075794,138.924016 C200.07559,138.450404 200.458996,138.06663 200.932155,138.066834 L214.639849,138.07274 C215.113008,138.072943 215.496745,138.457047 215.496948,138.930659 L215.497318,139.78821 C215.49777,140.839337 214.904875,141.799994 213.965819,142.269667 L212.071871,143.216936 L212.071871,143.216936 L212.075382,151.376289 C212.07597,152.740908 212.618108,154.04987 213.582532,155.015217 L215.504699,156.939222 L215.504699,156.939222" id="Path" transform="translate(207.790246, 147.503028) rotate(111.000000) translate(-207.790246, -147.503028) "></path>
                <path d="M188.64837,178.687526 L190.569043,176.766006 C191.532718,175.801907 192.073642,174.493844 192.072817,173.129577 L192.067885,164.972329 L192.067885,164.972329 L190.172466,164.023343 C189.232682,163.552817 188.638639,162.591794 188.638004,161.540938 L188.637485,160.683609 C188.637199,160.210119 189.020638,159.826511 189.493919,159.826797 L203.205152,159.835091 C203.678434,159.835377 204.062336,160.219448 204.062623,160.692938 L204.063141,161.550268 C204.063776,162.601124 203.470895,163.561429 202.531679,164.030818 L200.637406,164.977512 L200.637406,164.977512 L200.642338,173.13476 C200.643162,174.499027 201.185668,175.807745 202.150509,176.773011 L204.073507,178.696855 L204.073507,178.696855" id="Path" transform="translate(196.355496, 169.261826) rotate(125.000000) translate(-196.355496, -169.261826) "></path>
                <path d="M172.330149,197.078047 L174.251306,195.157148 C175.215225,194.19336 175.756258,192.885692 175.755385,191.521817 L175.750165,183.366912 L175.750165,183.366912 L173.854168,182.418132 C172.914097,181.947708 172.31985,180.98694 172.319178,179.936386 L172.318629,179.079303 C172.318326,178.605949 172.701861,178.222465 173.175279,178.222768 L186.890453,178.231545 C187.363871,178.231848 187.747897,178.615823 187.7482,179.089177 L187.748748,179.94626 C187.749421,180.996814 187.156403,181.956822 186.216933,182.426043 L184.322149,183.372398 L184.322149,183.372398 L184.327369,191.527302 C184.328241,192.891178 184.870949,194.199539 185.836101,195.164562 L187.75972,197.087921 L187.75972,197.087921" id="Path" transform="translate(180.039174, 187.655345) rotate(138.000000) translate(-180.039174, -187.655345) "></path>
                <path d="M152.077291,211.035476 L153.999216,209.114935 C154.963519,208.151326 155.50485,206.843983 155.504123,205.480507 L155.499772,197.327989 L155.499772,197.327989 L153.603321,196.379687 C152.663025,195.909501 152.068706,194.949077 152.068146,193.898831 L152.067688,193.041998 C152.067436,192.568783 152.451124,192.185371 152.92468,192.185623 L166.643867,192.19294 C167.117423,192.193192 167.501521,192.577014 167.501774,193.050229 L167.502231,193.907062 C167.502791,194.957308 166.909498,195.917099 165.969703,196.386282 L164.074263,197.332562 L164.074263,197.332562 L164.078614,205.48508 C164.079342,206.848556 164.622069,208.156477 165.587401,209.121115 L167.511376,211.043707 L167.511376,211.043707" id="Path" transform="translate(159.789532, 201.614665) rotate(152.000000) translate(-159.789532, -201.614665) "></path>
                <path d="M129.06745,219.749314 L130.99022,217.828729 C131.954947,216.865097 132.496694,215.557902 132.496282,214.19471 L132.493818,206.043891 L132.493818,206.043891 L130.597192,205.096225 C129.656808,204.626354 129.062588,203.666268 129.062271,202.61624 L129.062012,201.759586 C129.062012,201.28647 129.445726,200.903192 129.919381,200.903192 L143.641425,200.907335 C144.115079,200.907478 144.499168,201.291131 144.499311,201.764247 L144.49957,202.620901 C144.499888,203.670929 143.906248,204.630657 142.966149,205.09996 L141.070095,206.04648 L141.070095,206.04648 L141.072559,214.197299 C141.072971,215.560491 141.615508,216.868014 142.580818,217.832228 L144.504749,219.753975 L144.504749,219.753975" id="Path" transform="translate(136.783381, 210.328583) rotate(166.000000) translate(-136.783381, -210.328583) "></path>
                <path d="M104.638462,222.713178 L106.561957,220.792157 C107.527048,219.828307 108.069231,218.521046 108.069231,217.157957 L108.069231,209.007752 L108.069231,209.007752 L106.172748,208.06073 C105.232436,207.591179 104.638462,206.631344 104.638462,205.581395 L104.638462,204.724806 C104.638462,204.251725 105.022463,203.868217 105.496154,203.868217 L119.219231,203.868217 C119.692921,203.868217 120.076923,204.251725 120.076923,204.724806 L120.076923,205.581395 C120.076923,206.631344 119.482949,207.591179 118.542636,208.06073 L116.646154,209.007752 L116.646154,209.007752 L116.646154,217.157957 C116.646154,218.521046 117.188336,219.828307 118.153427,220.792157 L120.076923,222.713178 L120.076923,222.713178" id="Path" transform="translate(112.357692, 213.290698) rotate(180.000000) translate(-112.357692, -213.290698) "></path>
                <path d="M80.2106352,219.753975 L82.1345668,217.832228 C83.0998766,216.868014 83.6424135,215.560491 83.6428256,214.197299 L83.6452894,206.04648 L83.6452894,206.04648 L81.7492359,205.09996 C80.8091364,204.630657 80.2154968,203.670929 80.2158142,202.620901 L80.2160732,201.764247 C80.2162162,201.291131 80.6003052,200.907478 81.0739599,200.907335 L94.7960038,200.903192 C95.2696585,200.903192 95.6533726,201.28647 95.6533726,201.759586 L95.6531136,202.61624 C95.6527962,203.666268 95.0585763,204.626354 94.118193,205.096225 L92.2215668,206.043891 L92.2215668,206.043891 L92.219103,214.19471 C92.2186909,215.557902 92.7604374,216.865097 93.7251645,217.828729 L95.6479346,219.749314 L95.6479346,219.749314" id="Path" transform="translate(87.932004, 210.328583) rotate(194.000000) translate(-87.932004, -210.328583) "></path>
                <path d="M57.2040081,211.043707 L59.127984,209.121115 C60.093316,208.156477 60.6360427,206.848556 60.6367704,205.48508 L60.6411213,197.332562 L60.6411213,197.332562 L58.7456819,196.386282 C57.8058869,195.917099 57.2125932,194.957308 57.2131537,193.907062 L57.213611,193.050229 C57.2138636,192.577014 57.5979614,192.193192 58.0715175,192.19294 L71.7907042,192.185623 C72.2642602,192.185371 72.6479486,192.568783 72.6476962,193.041998 L72.6472388,193.898831 C72.6466783,194.949077 72.0523598,195.909501 71.1120635,196.379687 L69.215613,197.327989 L69.215613,197.327989 L69.2112621,205.480507 C69.2105344,206.843983 69.7518653,208.151326 70.7161683,209.114935 L72.6380931,211.035476 L72.6380931,211.035476" id="Path" transform="translate(64.925852, 201.614665) rotate(208.000000) translate(-64.925852, -201.614665) "></path>
                <path d="M36.955665,197.087921 L38.8792832,195.164562 C39.8444357,194.199539 40.3871431,192.891178 40.3880161,191.527302 L40.3932354,183.372398 L40.3932354,183.372398 L38.4984515,182.426043 C37.5589815,181.956822 36.9659638,180.996814 36.9666361,179.94626 L36.9671847,179.089177 C36.9674877,178.615823 37.3515141,178.231848 37.8249316,178.231545 L51.5401058,178.222768 C52.0135234,178.222465 52.3970586,178.605949 52.3967558,179.079303 L52.396207,179.936386 C52.3955347,180.98694 51.8012876,181.947708 50.8612162,182.418132 L48.9652193,183.366912 L48.9652193,183.366912 L48.9599999,191.521817 C48.959127,192.885692 49.5001601,194.19336 50.4640781,195.157148 L52.3852359,197.078047 L52.3852359,197.078047" id="Path" transform="translate(44.676210, 187.655345) rotate(222.000000) translate(-44.676210, -187.655345) "></path>
                <path d="M20.6418772,178.696855 L22.5648752,176.773011 C23.5297166,175.807745 24.0722222,174.499027 24.073047,173.13476 L24.0779786,164.977512 L24.0779786,164.977512 L22.1837058,164.030818 C21.2444893,163.561429 20.6516082,162.601124 20.6522436,161.550268 L20.6527619,160.692938 C20.6530481,160.219448 21.0369507,159.835377 21.5102323,159.835091 L35.2214655,159.826797 C35.6947471,159.826511 36.0781855,160.210119 36.0778994,160.683609 L36.0773809,161.540938 C36.0767456,162.591794 35.482703,163.552817 34.5429182,164.023343 L32.6474994,164.972329 L32.6474994,164.972329 L32.6425677,173.129577 C32.6417429,174.493844 33.1826665,175.801907 34.1463414,176.766006 L36.0670146,178.687526 L36.0670146,178.687526" id="Path" transform="translate(28.359888, 169.261826) rotate(235.000000) translate(-28.359888, -169.261826) "></path>
                <path d="M9.21068546,156.939222 L11.1328526,155.015217 C12.097277,154.04987 12.639415,152.740908 12.6400023,151.376289 L12.643514,143.216936 L12.643514,143.216936 L10.7495655,142.269667 C9.81050966,141.799994 9.21761465,140.839337 9.21806704,139.78821 L9.21843612,138.930659 C9.21863996,138.457047 9.60237665,138.072943 10.075536,138.07274 L23.7832292,138.066834 C24.2563886,138.06663 24.6397948,138.450404 24.639591,138.924016 L24.6392219,139.781566 C24.6387695,140.832694 24.0450473,141.793861 23.1055869,142.264345 L21.2108223,143.213245 L21.2108223,143.213245 L21.2073106,151.372598 C21.2067233,152.737218 21.7477347,154.045712 22.7113286,155.010229 L24.6318403,156.932579 L24.6318403,156.932579" id="Path" transform="translate(16.925138, 147.503028) rotate(249.000000) translate(-16.925138, -147.503028) "></path>
                <path d="M3.32570272,133.079016 L5.24706039,131.155257 C6.21107874,130.190035 6.75277789,128.881031 6.75299024,127.516212 L6.75425987,119.355667 L6.75425987,119.355667 L4.86032783,118.407739 C3.92128023,117.937738 3.32820794,116.976778 3.3283715,115.925497 L3.32850494,115.067821 C3.32857864,114.59414 3.71215374,114.210086 4.18524391,114.210012 L17.8909324,114.207877 C18.3640226,114.207877 18.7474045,114.591738 18.7474045,115.065419 L18.7474045,115.923095 C18.7471075,116.974376 18.1537362,117.935521 17.2145423,118.405815 L15.3203152,119.354333 L15.3203152,119.354333 L15.3190456,127.514878 C15.3188332,128.879697 15.8601251,130.188532 16.8238431,131.153454 L18.7446023,133.076614 L18.7446023,133.076614" id="Path" transform="translate(11.036554, 123.643446) rotate(263.000000) translate(-11.036554, -123.643446) "></path>
                <path d="M3.32850494,108.502899 L5.24926411,106.57974 C6.21298215,105.614817 6.75427402,104.305982 6.75406168,102.941164 L6.75279204,94.7806185 L6.75279204,94.7806185 L4.85856495,93.8321002 C3.91937105,93.3618068 3.32599972,92.400662 3.32570272,91.349381 L3.32570272,90.4917051 C3.32570272,90.0180238 3.70908464,89.6341626 4.18217481,89.6341626 L17.8878633,89.6362976 C18.3609535,89.6363713 18.7445286,90.0204257 18.7446023,90.494107 L18.7447357,91.3517829 C18.7448993,92.4030639 18.151827,93.3640239 17.2127794,93.8340247 L15.3188474,94.7819529 L15.3188474,94.7819529 L15.320117,102.942498 C15.3203293,104.307317 15.8620285,105.61632 16.8260468,106.581543 L18.7474045,108.505301 L18.7474045,108.505301" id="Path" transform="translate(11.036554, 99.069732) rotate(277.000000) translate(-11.036554, -99.069732) "></path>
                <path d="M9.2184362,84.6397007 L11.1389479,82.7173505 C12.1025418,81.7528341 12.6435532,80.4443393 12.6429659,79.0797199 L12.6394542,70.9203669 L12.6394542,70.9203669 L10.7446896,69.9714662 C9.80522915,69.5009831 9.21150701,68.5398154 9.21105462,67.4886881 L9.21068546,66.6311375 C9.2104817,66.1575253 9.59388791,65.7737521 10.0670473,65.7739558 L23.7747405,65.7798612 C24.2478998,65.780065 24.6316365,66.1641687 24.6318404,66.6377809 L24.6322094,67.4953315 C24.6326618,68.5464589 24.0397668,69.5071153 23.100711,69.9767891 L21.2067625,70.9240577 L21.2067625,70.9240577 L21.2102741,79.0834107 C21.2108615,80.4480301 21.7529994,81.7569916 22.7174239,82.7223385 L24.639591,84.6463441 L24.639591,84.6463441" id="Path" transform="translate(16.925138, 75.210150) rotate(291.000000) translate(-16.925138, -75.210150) "></path>
                <path d="M20.652762,62.8770512 L22.5734352,60.9555319 C23.5371102,59.9914324 24.0780337,58.6833696 24.0772089,57.3191022 L24.0722773,49.1618544 L24.0722773,49.1618544 L22.1768584,48.2128683 C21.2370736,47.7423429 20.643031,46.7813198 20.6423957,45.7304636 L20.6418772,44.8731343 C20.6415912,44.3996443 21.0250296,44.0160369 21.4983112,44.016323 L35.2095444,44.0246163 C35.6828259,44.0249025 36.0667285,44.408974 36.0670148,44.882464 L36.0675331,45.7397933 C36.0681684,46.7906495 35.4752874,47.7509547 34.5360708,48.2203436 L32.6417981,49.1670376 L32.6417981,49.1670376 L32.6467297,57.3242854 C32.6475545,58.6885527 33.1900601,59.9972709 34.1549014,60.9625368 L36.0778994,62.8863809 L36.0778994,62.8863809" id="Path" transform="translate(28.359888, 53.451352) rotate(305.000000) translate(-28.359888, -53.451352) "></path>
                <path d="M36.9671849,44.4805362 L38.8883426,42.559637 C39.8522607,41.5958487 40.3932938,40.2881809 40.3924209,38.9243055 L40.3872015,30.7694013 L40.3872015,30.7694013 L38.4912046,29.8206206 C37.5511331,29.350197 36.9568861,28.389429 36.9562137,27.3388747 L36.955665,26.4817917 C36.9553622,26.0084378 37.3388974,25.6249542 37.812315,25.625257 L51.5274891,25.6340341 C52.0009067,25.6343371 52.3849331,26.0183118 52.3852361,26.4916657 L52.3857846,27.3487488 C52.386457,28.3993031 51.7934393,29.3593113 50.8539693,29.8285321 L48.9591853,30.7748868 L48.9591853,30.7748868 L48.9644047,38.9297911 C48.9652776,40.2936665 49.5079851,41.6020279 50.4731376,42.5670506 L52.3967558,44.4904102 L52.3967558,44.4904102" id="Path" transform="translate(44.676210, 35.057834) rotate(318.000000) translate(-44.676210, -35.057834) "></path>
                <path d="M57.2136112,30.5193241 L59.135536,28.5987827 C60.099839,27.6351739 60.6411699,26.3278311 60.6404422,24.9643548 L60.6360913,16.8118366 L60.6360913,16.8118366 L58.7396408,15.863535 C57.7993445,15.393349 57.205026,14.4329252 57.2044655,13.3826783 L57.2040081,12.5258461 C57.2037557,12.0526307 57.587444,11.6692185 58.0610001,11.6694709 L71.7801868,11.6767875 C72.2537429,11.6770401 72.6378407,12.0608617 72.6380933,12.5340771 L72.6385505,13.3909094 C72.6391111,14.4411563 72.0458174,15.4009467 71.1060224,15.8701301 L69.210583,16.8164094 L69.210583,16.8164094 L69.2149339,24.9689276 C69.2156616,26.3324039 69.7583882,27.6403248 70.7237203,28.6049627 L72.6476962,30.5275552 L72.6476962,30.5275552" id="Path" transform="translate(64.925852, 21.098513) rotate(332.000000) translate(-64.925852, -21.098513) "></path>
                <path d="M80.2160732,21.8053257 L82.1388434,19.8847399 C83.1035704,18.9211089 83.6453169,17.6139132 83.6449048,16.2507211 L83.642441,8.09990208 L83.642441,8.09990208 L81.7458149,7.15223645 C80.8054315,6.68236577 80.2112116,5.72227941 80.2108942,4.67225143 L80.2106352,3.81559772 C80.2106352,3.34248094 80.5943493,2.95920292 81.068004,2.95920292 L94.7900479,2.96334618 C95.2637027,2.9634892 95.6477916,3.34714206 95.6479346,3.82025884 L95.6481936,4.67691255 C95.648511,5.72694053 95.0548714,6.68666823 94.114772,7.15597112 L92.2187184,8.10249159 L92.2187184,8.10249159 L92.2211823,16.2533106 C92.2215943,17.6165028 92.7641312,18.9240258 93.729441,19.8882396 L95.6533726,21.8099868 L95.6533726,21.8099868" id="Path" transform="translate(87.932004, 12.384595) rotate(346.000000) translate(-87.932004, -12.384595) "></path>
            </g>
        </g>
        <g id="Group" transform="translate(29.000000, 135.000000)" fill="#000000" fill-rule="nonzero">
            <g>
                <path d="M38.064,55 L38.064,53.704 C37.44,53.512 37.128,53.032 37.128,52.264 C37.128,51.784 37.488,50.608 38.208,48.736 L38.208,48.736 L46.056,27.928 L46.2,27.928 L54.48,49.168 C54.864,50.032 55.14,50.704 55.308,51.184 C55.476,51.664 55.56,52.096 55.56,52.48 C55.56,52.816 55.404,53.08 55.092,53.272 C54.78,53.464 54.48,53.608 54.192,53.704 L54.192,53.704 L54.192,55 L65.568,55 L65.568,53.704 C65.136,53.704 64.8,53.572 64.56,53.308 C64.32,53.044 64.2,52.744 64.2,52.408 C64.2,52.024 64.308,51.544 64.524,50.968 L64.524,50.968 L65.004,49.688 C65.092,49.4533333 65.184,49.208 65.28,48.952 L65.28,48.952 L75.648,21.448 C75.984,20.584 76.284,19.864 76.548,19.288 C76.812,18.712 77.208,18.424 77.736,18.424 L77.736,18.424 L77.736,17.128 L67.08,17.128 L67.08,18.424 C67.416,18.424 67.704,18.556 67.944,18.82 C68.184,19.084 68.304,19.36 68.304,19.648 C68.304,20.224 68.136,20.872 67.8,21.592 L67.8,21.592 L60.024,42.328 L59.88,42.328 L52.176,22.024 C51.696,20.872 51.456,20.056 51.456,19.576 C51.456,19.288 51.528,19.024 51.672,18.784 C51.816,18.544 52.056,18.424 52.392,18.424 L52.392,18.424 L52.392,17.128 L40.08,17.128 L40.08,18.424 C40.704,18.424 41.016,18.88 41.016,19.792 C41.016,20.032 40.98,20.308 40.908,20.62 C40.836,20.932 40.68,21.4 40.44,22.024 L40.44,22.024 L32.808,42.328 L32.664,42.328 L24.96,22.312 C24.672,21.544 24.492,20.992 24.42,20.656 C24.348,20.32 24.312,20.032 24.312,19.792 C24.312,18.88 24.672,18.424 25.392,18.424 L25.392,18.424 L25.392,17.128 L14.232,17.128 L14.232,18.424 C14.712,18.52 15.06,18.748 15.276,19.108 C15.492,19.468 15.696,19.912 15.888,20.44 L15.888,20.44 L27.408,50.176 C27.6,50.656 27.78,51.112 27.948,51.544 C28.116,51.976 28.2,52.384 28.2,52.768 C28.2,53.104 28.056,53.344 27.768,53.488 C27.48,53.632 27.192,53.704 26.904,53.704 L26.904,53.704 L26.904,55 L38.064,55 Z M97.68,55 L97.68,53.704 C97.344,53.704 97.044,53.596 96.78,53.38 C96.516,53.164 96.384,52.84 96.384,52.408 L96.384,52.408 L96.384,38.872 L119.568,38.872 L119.568,52.408 C119.568,53.272 119.04,53.704 117.984,53.704 L117.984,53.704 L117.984,55 L129.072,55 L129.072,53.704 C128.736,53.704 128.436,53.596 128.172,53.38 C127.908,53.164 127.776,52.84 127.776,52.408 L127.776,52.408 L127.776,19.72 C127.776,19.288 127.908,18.964 128.172,18.748 C128.436,18.532 128.736,18.424 129.072,18.424 L129.072,18.424 L129.072,17.128 L117.984,17.128 L117.984,18.424 C119.04,18.424 119.568,18.856 119.568,19.72 L119.568,19.72 L119.568,31.96 L96.384,31.96 L96.384,19.72 C96.384,19.288 96.516,18.964 96.78,18.748 C97.044,18.532 97.344,18.424 97.68,18.424 L97.68,18.424 L97.68,17.128 L86.808,17.128 L86.808,18.424 C87.72,18.424 88.176,18.856 88.176,19.72 L88.176,19.72 L88.176,52.408 C88.176,53.272 87.72,53.704 86.808,53.704 L86.808,53.704 L86.808,55 L97.68,55 Z M163.992,55.216 C166.632,55.216 169.32,54.856 172.056,54.136 C174.792,53.416 177.288,52.264 179.544,50.68 C181.8,49.096 183.648,47.092 185.088,44.668 C186.528,42.244 187.248,39.376 187.248,36.064 C187.248,32.752 186.528,29.884 185.088,27.46 C183.648,25.036 181.8,23.032 179.544,21.448 C177.288,19.864 174.792,18.676 172.056,17.884 C169.32,17.092 166.632,16.696 163.992,16.696 C161.352,16.696 158.664,17.092 155.928,17.884 C153.192,18.676 150.696,19.864 148.44,21.448 C146.184,23.032 144.336,25.036 142.896,27.46 C141.456,29.884 140.736,32.752 140.736,36.064 C140.736,39.376 141.456,42.244 142.896,44.668 C144.336,47.092 146.184,49.096 148.44,50.68 C150.696,52.264 153.192,53.416 155.928,54.136 C158.664,54.856 161.352,55.216 163.992,55.216 Z M163.992,48.808 C162.168,48.808 160.344,48.52 158.52,47.944 C156.696,47.368 155.052,46.54 153.588,45.46 C152.124,44.38 150.936,43.048 150.024,41.464 C149.112,39.88 148.656,38.08 148.656,36.064 C148.656,34.048 149.112,32.248 150.024,30.664 C150.936,29.08 152.124,27.748 153.588,26.668 C155.052,25.588 156.696,24.76 158.52,24.184 C160.344,23.608 162.168,23.32 163.992,23.32 C165.816,23.32 167.64,23.608 169.464,24.184 C171.288,24.76 172.932,25.588 174.396,26.668 C175.86,27.748 177.048,29.08 177.96,30.664 C178.872,32.248 179.328,34.048 179.328,36.064 C179.328,38.08 178.872,39.88 177.96,41.464 C177.048,43.048 175.86,44.38 174.396,45.46 C172.932,46.54 171.288,47.368 169.464,47.944 C167.64,48.52 165.816,48.808 163.992,48.808 Z" id="WHO"></path>
                <path d="M50.601,77.054 C51.009,77.054 51.444,77.024 51.906,76.964 C52.368,76.904 52.791,76.778 53.175,76.586 C53.559,76.394 53.88,76.13 54.138,75.794 C54.396,75.458 54.525,75.026 54.525,74.498 C54.525,73.97 54.378,73.556 54.084,73.256 C53.79,72.956 53.421,72.728 52.977,72.572 C52.533,72.416 52.053,72.305 51.537,72.239 C51.021,72.173 50.541,72.107 50.097,72.041 C49.653,71.975 49.284,71.885 48.99,71.771 C48.696,71.657 48.549,71.468 48.549,71.204 C48.549,71.036 48.597,70.895 48.693,70.781 C48.789,70.667 48.921,70.574 49.089,70.502 C49.257,70.43 49.449,70.379 49.665,70.349 C49.881,70.319 50.109,70.304 50.349,70.304 C50.973,70.304 51.537,70.376 52.041,70.52 C52.545,70.664 52.917,70.838 53.157,71.042 C53.253,71.114 53.307,71.186 53.319,71.258 L53.319,71.258 L53.355,71.474 L53.679,71.582 L54.579,69.89 L54.381,69.692 C54.309,69.728 54.249,69.761 54.201,69.791 C54.153,69.821 54.081,69.836 53.985,69.836 C53.901,69.836 53.772,69.791 53.598,69.701 C53.424,69.611 53.199,69.512 52.923,69.404 C52.647,69.296 52.308,69.197 51.906,69.107 C51.504,69.017 51.021,68.972 50.457,68.972 C49.305,68.972 48.411,69.2 47.775,69.656 C47.139,70.112 46.821,70.724 46.821,71.492 C46.821,72.008 46.968,72.407 47.262,72.689 C47.556,72.971 47.925,73.187 48.369,73.337 C48.813,73.487 49.293,73.595 49.809,73.661 C50.325,73.727 50.805,73.793 51.249,73.859 C51.693,73.925 52.062,74.018 52.356,74.138 C52.65,74.258 52.797,74.45 52.797,74.714 C52.797,74.942 52.713,75.125 52.545,75.263 C52.377,75.401 52.173,75.509 51.933,75.587 C51.693,75.665 51.45,75.716 51.204,75.74 C50.958,75.764 50.751,75.776 50.583,75.776 C50.403,75.776 50.154,75.746 49.836,75.686 C49.518,75.626 49.2,75.545 48.882,75.443 C48.564,75.341 48.291,75.215 48.063,75.065 C47.835,74.915 47.721,74.75 47.721,74.57 C47.721,74.51 47.724,74.453 47.73,74.399 C47.736,74.345 47.739,74.294 47.739,74.246 L47.739,74.246 L47.397,74.156 L46.569,76.172 L46.821,76.352 C46.881,76.28 46.953,76.244 47.037,76.244 C47.085,76.244 47.223,76.289 47.451,76.379 C47.679,76.469 47.958,76.565 48.288,76.667 C48.618,76.769 48.984,76.859 49.386,76.937 C49.788,77.015 50.193,77.054 50.601,77.054 Z M61.437,77 L61.437,76.676 C61.221,76.676 61.113,76.586 61.113,76.406 L61.113,76.406 L61.113,70.412 L63.453,70.412 C63.549,70.412 63.639,70.436 63.723,70.484 C63.807,70.532 63.849,70.61 63.849,70.718 L63.849,70.718 L64.173,70.718 L64.173,68.648 L63.849,68.648 C63.849,68.816 63.807,68.93 63.723,68.99 C63.639,69.05 63.549,69.08 63.453,69.08 L63.453,69.08 L57.045,69.08 C56.949,69.08 56.859,69.05 56.775,68.99 C56.691,68.93 56.649,68.816 56.649,68.648 L56.649,68.648 L56.325,68.648 L56.325,70.718 L56.649,70.718 C56.649,70.61 56.691,70.532 56.775,70.484 C56.859,70.436 56.949,70.412 57.045,70.412 L57.045,70.412 L59.385,70.412 L59.385,76.406 C59.385,76.502 59.355,76.571 59.295,76.613 C59.235,76.655 59.175,76.676 59.115,76.676 L59.115,76.676 L59.115,77 L61.437,77 Z M67.431,77 L67.431,76.676 C67.323,76.676 67.239,76.664 67.179,76.64 C67.119,76.616 67.089,76.556 67.089,76.46 C67.089,76.4 67.104,76.331 67.134,76.253 C67.164,76.175 67.203,76.088 67.251,75.992 L67.251,75.992 L67.755,75.02 L71.607,75.02 L72.093,76.046 C72.129,76.142 72.159,76.22 72.183,76.28 C72.207,76.34 72.219,76.406 72.219,76.478 C72.219,76.574 72.186,76.64 72.12,76.676 C72.054,76.712 71.991,76.73 71.931,76.73 L71.931,76.73 L71.931,77 L74.487,77 L74.487,76.676 C74.403,76.652 74.325,76.616 74.253,76.568 C74.181,76.52 74.115,76.442 74.055,76.334 L74.055,76.334 L71.139,70.214 C71.079,70.082 71.022,69.965 70.968,69.863 C70.914,69.761 70.887,69.674 70.887,69.602 C70.887,69.518 70.908,69.47 70.95,69.458 C70.992,69.446 71.031,69.428 71.067,69.404 L71.067,69.404 L71.067,69.08 L68.349,69.08 L68.349,69.404 C68.385,69.428 68.418,69.449 68.448,69.467 C68.478,69.485 68.493,69.53 68.493,69.602 C68.493,69.698 68.472,69.797 68.43,69.899 C68.388,70.001 68.331,70.136 68.259,70.304 L68.259,70.304 L65.577,76.154 C65.529,76.25 65.46,76.355 65.37,76.469 C65.28,76.583 65.163,76.652 65.019,76.676 L65.019,76.676 L65.019,77 L67.431,77 Z M71.031,73.688 L68.295,73.688 L69.573,70.664 L71.031,73.688 Z M78.555,77 L78.555,76.676 C78.483,76.676 78.408,76.655 78.33,76.613 C78.252,76.571 78.213,76.502 78.213,76.406 L78.213,76.406 L78.213,73.832 L80.715,73.832 L82.137,75.956 C82.317,76.208 82.407,76.394 82.407,76.514 C82.407,76.622 82.329,76.676 82.173,76.676 L82.173,76.676 L82.173,77 L84.927,77 L84.927,76.676 C84.795,76.64 84.672,76.589 84.558,76.523 C84.444,76.457 84.339,76.358 84.243,76.226 L84.243,76.226 L82.479,73.652 C82.731,73.592 82.977,73.505 83.217,73.391 C83.457,73.277 83.676,73.127 83.874,72.941 C84.072,72.755 84.231,72.536 84.351,72.284 C84.471,72.032 84.531,71.744 84.531,71.42 C84.531,70.568 84.231,69.965 83.631,69.611 C83.031,69.257 82.197,69.08 81.129,69.08 L81.129,69.08 L76.161,69.08 L76.161,69.404 C76.377,69.404 76.485,69.494 76.485,69.674 L76.485,69.674 L76.485,76.406 C76.485,76.586 76.377,76.676 76.161,76.676 L76.161,76.676 L76.161,77 L78.555,77 Z M81.093,72.5 L78.249,72.5 L78.249,70.412 L81.093,70.412 C81.705,70.412 82.152,70.499 82.434,70.673 C82.716,70.847 82.857,71.084 82.857,71.384 C82.857,72.128 82.269,72.5 81.093,72.5 L81.093,72.5 Z M91.443,77 L91.443,76.676 C91.227,76.676 91.119,76.586 91.119,76.406 L91.119,76.406 L91.119,70.412 L93.459,70.412 C93.555,70.412 93.645,70.436 93.729,70.484 C93.813,70.532 93.855,70.61 93.855,70.718 L93.855,70.718 L94.179,70.718 L94.179,68.648 L93.855,68.648 C93.855,68.816 93.813,68.93 93.729,68.99 C93.645,69.05 93.555,69.08 93.459,69.08 L93.459,69.08 L87.051,69.08 C86.955,69.08 86.865,69.05 86.781,68.99 C86.697,68.93 86.655,68.816 86.655,68.648 L86.655,68.648 L86.331,68.648 L86.331,70.718 L86.655,70.718 C86.655,70.61 86.697,70.532 86.781,70.484 C86.865,70.436 86.955,70.412 87.051,70.412 L87.051,70.412 L89.391,70.412 L89.391,76.406 C89.391,76.502 89.361,76.571 89.301,76.613 C89.241,76.655 89.181,76.676 89.121,76.676 L89.121,76.676 L89.121,77 L91.443,77 Z M103.665,77.198 L103.665,75.308 L103.341,75.308 C103.341,75.416 103.293,75.503 103.197,75.569 C103.101,75.635 102.981,75.668 102.837,75.668 L102.837,75.668 L98.229,75.668 L98.229,73.544 L100.857,73.544 C101.097,73.544 101.283,73.559 101.415,73.589 C101.547,73.619 101.595,73.7 101.559,73.832 L101.559,73.832 L101.919,73.832 L101.919,71.924 L101.595,71.924 C101.595,72.056 101.547,72.137 101.451,72.167 C101.355,72.197 101.205,72.212 101.001,72.212 L101.001,72.212 L98.229,72.212 L98.229,70.412 L102.621,70.412 C102.993,70.412 103.179,70.526 103.179,70.754 L103.179,70.754 L103.503,70.754 L103.503,68.756 L103.179,68.756 C103.179,68.972 102.993,69.08 102.621,69.08 L102.621,69.08 L96.231,69.08 L96.231,69.404 C96.291,69.404 96.351,69.425 96.411,69.467 C96.471,69.509 96.501,69.578 96.501,69.674 L96.501,69.674 L96.501,76.406 C96.501,76.502 96.471,76.571 96.411,76.613 C96.351,76.655 96.291,76.676 96.231,76.676 L96.231,76.676 L96.231,77 L102.837,77 C102.981,77 103.101,77.006 103.197,77.018 C103.293,77.03 103.341,77.09 103.341,77.198 L103.341,77.198 L103.665,77.198 Z M111.045,77 C111.753,77 112.353,76.886 112.845,76.658 C113.337,76.43 113.739,76.133 114.051,75.767 C114.363,75.401 114.591,74.981 114.735,74.507 C114.879,74.033 114.951,73.544 114.951,73.04 C114.951,72.536 114.876,72.047 114.726,71.573 C114.576,71.099 114.342,70.679 114.024,70.313 C113.706,69.947 113.295,69.65 112.791,69.422 C112.287,69.194 111.681,69.08 110.973,69.08 L110.973,69.08 L105.969,69.08 L105.969,69.404 C106.245,69.404 106.383,69.494 106.383,69.674 L106.383,69.674 L106.383,76.406 C106.383,76.586 106.245,76.676 105.969,76.676 L105.969,76.676 L105.969,77 L111.045,77 Z M110.451,75.668 L108.111,75.668 L108.111,70.412 L110.451,70.412 C110.823,70.412 111.177,70.433 111.513,70.475 C111.849,70.517 112.143,70.625 112.395,70.799 C112.647,70.973 112.848,71.231 112.998,71.573 C113.148,71.915 113.223,72.386 113.223,72.986 C113.223,73.586 113.148,74.063 112.998,74.417 C112.848,74.771 112.647,75.041 112.395,75.227 C112.143,75.413 111.849,75.533 111.513,75.587 C111.177,75.641 110.823,75.668 110.451,75.668 L110.451,75.668 Z M126.939,77 L126.939,76.676 C126.723,76.676 126.615,76.586 126.615,76.406 L126.615,76.406 L126.615,70.412 L128.955,70.412 C129.051,70.412 129.141,70.436 129.225,70.484 C129.309,70.532 129.351,70.61 129.351,70.718 L129.351,70.718 L129.675,70.718 L129.675,68.648 L129.351,68.648 C129.351,68.816 129.309,68.93 129.225,68.99 C129.141,69.05 129.051,69.08 128.955,69.08 L128.955,69.08 L122.547,69.08 C122.451,69.08 122.361,69.05 122.277,68.99 C122.193,68.93 122.151,68.816 122.151,68.648 L122.151,68.648 L121.827,68.648 L121.827,70.718 L122.151,70.718 C122.151,70.61 122.193,70.532 122.277,70.484 C122.361,70.436 122.451,70.412 122.547,70.412 L122.547,70.412 L124.887,70.412 L124.887,76.406 C124.887,76.502 124.857,76.571 124.797,76.613 C124.737,76.655 124.677,76.676 124.617,76.676 L124.617,76.676 L124.617,77 L126.939,77 Z M134.103,77 L134.103,76.676 C134.031,76.676 133.968,76.655 133.914,76.613 C133.86,76.571 133.833,76.502 133.833,76.406 L133.833,76.406 L133.833,73.688 L138.657,73.688 L138.657,76.406 C138.657,76.502 138.63,76.571 138.576,76.613 C138.522,76.655 138.459,76.676 138.387,76.676 L138.387,76.676 L138.387,77 L140.655,77 L140.655,76.676 C140.583,76.676 140.52,76.655 140.466,76.613 C140.412,76.571 140.385,76.502 140.385,76.406 L140.385,76.406 L140.385,69.674 C140.385,69.578 140.412,69.509 140.466,69.467 C140.52,69.425 140.583,69.404 140.655,69.404 L140.655,69.404 L140.655,69.08 L138.387,69.08 L138.387,69.404 C138.459,69.404 138.522,69.425 138.576,69.467 C138.63,69.509 138.657,69.578 138.657,69.674 L138.657,69.674 L138.657,72.212 L133.833,72.212 L133.833,69.674 C133.833,69.578 133.86,69.509 133.914,69.467 C133.968,69.425 134.031,69.404 134.103,69.404 L134.103,69.404 L134.103,69.08 L131.835,69.08 L131.835,69.404 C131.907,69.404 131.97,69.425 132.024,69.467 C132.078,69.509 132.105,69.578 132.105,69.674 L132.105,69.674 L132.105,76.406 C132.105,76.502 132.078,76.571 132.024,76.613 C131.97,76.655 131.907,76.676 131.835,76.676 L131.835,76.676 L131.835,77 L134.103,77 Z M146.613,77 L146.613,76.676 C146.277,76.676 146.109,76.586 146.109,76.406 L146.109,76.406 L146.109,69.674 C146.109,69.494 146.277,69.404 146.613,69.404 L146.613,69.404 L146.613,69.08 L143.877,69.08 L143.877,69.404 C144.069,69.404 144.201,69.425 144.273,69.467 C144.345,69.509 144.381,69.578 144.381,69.674 L144.381,69.674 L144.381,76.406 C144.381,76.502 144.345,76.571 144.273,76.613 C144.201,76.655 144.069,76.676 143.877,76.676 L143.877,76.676 L143.877,77 L146.613,77 Z M153.111,77.054 C153.519,77.054 153.954,77.024 154.416,76.964 C154.878,76.904 155.301,76.778 155.685,76.586 C156.069,76.394 156.39,76.13 156.648,75.794 C156.906,75.458 157.035,75.026 157.035,74.498 C157.035,73.97 156.888,73.556 156.594,73.256 C156.3,72.956 155.931,72.728 155.487,72.572 C155.043,72.416 154.563,72.305 154.047,72.239 C153.531,72.173 153.051,72.107 152.607,72.041 C152.163,71.975 151.794,71.885 151.5,71.771 C151.206,71.657 151.059,71.468 151.059,71.204 C151.059,71.036 151.107,70.895 151.203,70.781 C151.299,70.667 151.431,70.574 151.599,70.502 C151.767,70.43 151.959,70.379 152.175,70.349 C152.391,70.319 152.619,70.304 152.859,70.304 C153.483,70.304 154.047,70.376 154.551,70.52 C155.055,70.664 155.427,70.838 155.667,71.042 C155.763,71.114 155.817,71.186 155.829,71.258 L155.829,71.258 L155.865,71.474 L156.189,71.582 L157.089,69.89 L156.891,69.692 C156.819,69.728 156.759,69.761 156.711,69.791 C156.663,69.821 156.591,69.836 156.495,69.836 C156.411,69.836 156.282,69.791 156.108,69.701 C155.934,69.611 155.709,69.512 155.433,69.404 C155.157,69.296 154.818,69.197 154.416,69.107 C154.014,69.017 153.531,68.972 152.967,68.972 C151.815,68.972 150.921,69.2 150.285,69.656 C149.649,70.112 149.331,70.724 149.331,71.492 C149.331,72.008 149.478,72.407 149.772,72.689 C150.066,72.971 150.435,73.187 150.879,73.337 C151.323,73.487 151.803,73.595 152.319,73.661 C152.835,73.727 153.315,73.793 153.759,73.859 C154.203,73.925 154.572,74.018 154.866,74.138 C155.16,74.258 155.307,74.45 155.307,74.714 C155.307,74.942 155.223,75.125 155.055,75.263 C154.887,75.401 154.683,75.509 154.443,75.587 C154.203,75.665 153.96,75.716 153.714,75.74 C153.468,75.764 153.261,75.776 153.093,75.776 C152.913,75.776 152.664,75.746 152.346,75.686 C152.028,75.626 151.71,75.545 151.392,75.443 C151.074,75.341 150.801,75.215 150.573,75.065 C150.345,74.915 150.231,74.75 150.231,74.57 C150.231,74.51 150.234,74.453 150.24,74.399 C150.246,74.345 150.249,74.294 150.249,74.246 L150.249,74.246 L149.907,74.156 L149.079,76.172 L149.331,76.352 C149.391,76.28 149.463,76.244 149.547,76.244 C149.595,76.244 149.733,76.289 149.961,76.379 C150.189,76.469 150.468,76.565 150.798,76.667 C151.128,76.769 151.494,76.859 151.896,76.937 C152.298,77.015 152.703,77.054 153.111,77.054 Z M31.611,95 L31.611,94.676 C31.503,94.676 31.407,94.655 31.323,94.613 C31.239,94.571 31.197,94.502 31.197,94.406 L31.197,94.406 L31.197,91.652 L34.365,91.652 C34.569,91.652 34.695,91.676 34.743,91.724 C34.791,91.772 34.821,91.844 34.833,91.94 L34.833,91.94 L35.157,91.94 L35.157,90.05 L34.833,90.05 C34.821,90.146 34.791,90.215 34.743,90.257 C34.695,90.299 34.569,90.32 34.365,90.32 L34.365,90.32 L31.197,90.32 L31.197,88.412 L36.075,88.412 C36.279,88.412 36.423,88.439 36.507,88.493 C36.591,88.547 36.633,88.604 36.633,88.664 L36.633,88.664 L36.957,88.664 L36.957,86.756 L36.633,86.756 C36.633,86.852 36.591,86.93 36.507,86.99 C36.423,87.05 36.279,87.08 36.075,87.08 L36.075,87.08 L29.091,87.08 L29.091,87.404 C29.343,87.404 29.469,87.494 29.469,87.674 L29.469,87.674 L29.469,94.406 C29.469,94.586 29.355,94.676 29.127,94.676 L29.127,94.676 L29.127,95 L31.611,95 Z M41.547,95 L41.547,94.676 C41.475,94.676 41.4,94.655 41.322,94.613 C41.244,94.571 41.205,94.502 41.205,94.406 L41.205,94.406 L41.205,91.832 L43.707,91.832 L45.129,93.956 C45.309,94.208 45.399,94.394 45.399,94.514 C45.399,94.622 45.321,94.676 45.165,94.676 L45.165,94.676 L45.165,95 L47.919,95 L47.919,94.676 C47.787,94.64 47.664,94.589 47.55,94.523 C47.436,94.457 47.331,94.358 47.235,94.226 L47.235,94.226 L45.471,91.652 C45.723,91.592 45.969,91.505 46.209,91.391 C46.449,91.277 46.668,91.127 46.866,90.941 C47.064,90.755 47.223,90.536 47.343,90.284 C47.463,90.032 47.523,89.744 47.523,89.42 C47.523,88.568 47.223,87.965 46.623,87.611 C46.023,87.257 45.189,87.08 44.121,87.08 L44.121,87.08 L39.153,87.08 L39.153,87.404 C39.369,87.404 39.477,87.494 39.477,87.674 L39.477,87.674 L39.477,94.406 C39.477,94.586 39.369,94.676 39.153,94.676 L39.153,94.676 L39.153,95 L41.547,95 Z M44.085,90.5 L41.241,90.5 L41.241,88.412 L44.085,88.412 C44.697,88.412 45.144,88.499 45.426,88.673 C45.708,88.847 45.849,89.084 45.849,89.384 C45.849,90.128 45.261,90.5 44.085,90.5 L44.085,90.5 Z M57.657,95.198 L57.657,93.308 L57.333,93.308 C57.333,93.416 57.285,93.503 57.189,93.569 C57.093,93.635 56.973,93.668 56.829,93.668 L56.829,93.668 L52.221,93.668 L52.221,91.544 L54.849,91.544 C55.089,91.544 55.275,91.559 55.407,91.589 C55.539,91.619 55.587,91.7 55.551,91.832 L55.551,91.832 L55.911,91.832 L55.911,89.924 L55.587,89.924 C55.587,90.056 55.539,90.137 55.443,90.167 C55.347,90.197 55.197,90.212 54.993,90.212 L54.993,90.212 L52.221,90.212 L52.221,88.412 L56.613,88.412 C56.985,88.412 57.171,88.526 57.171,88.754 L57.171,88.754 L57.495,88.754 L57.495,86.756 L57.171,86.756 C57.171,86.972 56.985,87.08 56.613,87.08 L56.613,87.08 L50.223,87.08 L50.223,87.404 C50.283,87.404 50.343,87.425 50.403,87.467 C50.463,87.509 50.493,87.578 50.493,87.674 L50.493,87.674 L50.493,94.406 C50.493,94.502 50.463,94.571 50.403,94.613 C50.343,94.655 50.283,94.676 50.223,94.676 L50.223,94.676 L50.223,95 L56.829,95 C56.973,95 57.093,95.006 57.189,95.018 C57.285,95.03 57.333,95.09 57.333,95.198 L57.333,95.198 L57.657,95.198 Z M61.437,95 L61.437,94.676 C61.329,94.676 61.245,94.664 61.185,94.64 C61.125,94.616 61.095,94.556 61.095,94.46 C61.095,94.4 61.11,94.331 61.14,94.253 C61.17,94.175 61.209,94.088 61.257,93.992 L61.257,93.992 L61.761,93.02 L65.613,93.02 L66.099,94.046 C66.135,94.142 66.165,94.22 66.189,94.28 C66.213,94.34 66.225,94.406 66.225,94.478 C66.225,94.574 66.192,94.64 66.126,94.676 C66.06,94.712 65.997,94.73 65.937,94.73 L65.937,94.73 L65.937,95 L68.493,95 L68.493,94.676 C68.409,94.652 68.331,94.616 68.259,94.568 C68.187,94.52 68.121,94.442 68.061,94.334 L68.061,94.334 L65.145,88.214 C65.085,88.082 65.028,87.965 64.974,87.863 C64.92,87.761 64.893,87.674 64.893,87.602 C64.893,87.518 64.914,87.47 64.956,87.458 C64.998,87.446 65.037,87.428 65.073,87.404 L65.073,87.404 L65.073,87.08 L62.355,87.08 L62.355,87.404 C62.391,87.428 62.424,87.449 62.454,87.467 C62.484,87.485 62.499,87.53 62.499,87.602 C62.499,87.698 62.478,87.797 62.436,87.899 C62.394,88.001 62.337,88.136 62.265,88.304 L62.265,88.304 L59.583,94.154 C59.535,94.25 59.466,94.355 59.376,94.469 C59.286,94.583 59.169,94.652 59.025,94.676 L59.025,94.676 L59.025,95 L61.437,95 Z M65.037,91.688 L62.301,91.688 L63.579,88.664 L65.037,91.688 Z M72.453,95 L72.453,94.676 C72.225,94.676 72.111,94.586 72.111,94.406 L72.111,94.406 L72.111,92.39 L73.515,91.274 L75.729,93.974 C75.885,94.154 75.99,94.286 76.044,94.37 C76.098,94.454 76.125,94.52 76.125,94.568 C76.125,94.64 76.059,94.676 75.927,94.676 L75.927,94.676 L75.927,95 L78.591,95 L78.591,94.676 C78.423,94.628 78.255,94.511 78.087,94.325 C77.919,94.139 77.763,93.956 77.619,93.776 L77.619,93.776 L74.775,90.248 L77.781,87.818 C78.069,87.59 78.285,87.452 78.429,87.404 L78.429,87.404 L78.429,87.08 L75.459,87.08 L75.459,87.35 C75.519,87.35 75.582,87.368 75.648,87.404 C75.714,87.44 75.747,87.488 75.747,87.548 C75.747,87.596 75.633,87.719 75.405,87.917 C75.177,88.115 74.889,88.358 74.541,88.646 C74.193,88.934 73.803,89.249 73.371,89.591 C72.939,89.933 72.519,90.272 72.111,90.608 L72.111,90.608 L72.111,87.674 C72.111,87.494 72.225,87.404 72.453,87.404 L72.453,87.404 L72.453,87.08 L70.095,87.08 L70.095,87.404 C70.287,87.404 70.383,87.494 70.383,87.674 L70.383,87.674 L70.383,94.406 C70.383,94.586 70.287,94.676 70.095,94.676 L70.095,94.676 L70.095,95 L72.453,95 Z M83.127,95 L83.127,94.676 C82.791,94.676 82.623,94.586 82.623,94.406 L82.623,94.406 L82.623,87.674 C82.623,87.494 82.791,87.404 83.127,87.404 L83.127,87.404 L83.127,87.08 L80.391,87.08 L80.391,87.404 C80.583,87.404 80.715,87.425 80.787,87.467 C80.859,87.509 80.895,87.578 80.895,87.674 L80.895,87.674 L80.895,94.406 C80.895,94.502 80.859,94.571 80.787,94.613 C80.715,94.655 80.583,94.676 80.391,94.676 L80.391,94.676 L80.391,95 L83.127,95 Z M88.437,95 L88.437,94.676 C88.185,94.676 88.059,94.586 88.059,94.406 L88.059,94.406 L88.059,89.168 L92.523,93.92 C92.667,94.076 92.796,94.214 92.91,94.334 C93.024,94.454 93.081,94.538 93.081,94.586 C93.081,94.646 93.039,94.676 92.955,94.676 L92.955,94.676 L92.955,95 L95.295,95 L95.295,94.676 C95.079,94.676 94.971,94.586 94.971,94.406 L94.971,94.406 L94.971,87.674 C94.971,87.494 95.079,87.404 95.295,87.404 L95.295,87.404 L95.295,87.08 L93.099,87.08 L93.099,87.404 C93.339,87.404 93.459,87.494 93.459,87.674 L93.459,87.674 L93.459,92.552 L89.139,87.98 C88.875,87.716 88.743,87.554 88.743,87.494 C88.743,87.446 88.785,87.416 88.869,87.404 L88.869,87.404 L88.869,87.08 L86.223,87.08 L86.223,87.404 C86.439,87.404 86.547,87.494 86.547,87.674 L86.547,87.674 L86.547,94.406 C86.547,94.586 86.439,94.676 86.223,94.676 L86.223,94.676 L86.223,95 L88.437,95 Z M102.459,95.054 C103.035,95.054 103.557,95.015 104.025,94.937 C104.493,94.859 104.904,94.76 105.258,94.64 C105.612,94.52 105.906,94.397 106.14,94.271 C106.374,94.145 106.545,94.046 106.653,93.974 L106.653,93.974 L106.653,93.758 C106.533,93.71 106.458,93.665 106.428,93.623 C106.398,93.581 106.383,93.506 106.383,93.398 L106.383,93.398 L106.383,91.688 C106.383,91.568 106.401,91.478 106.437,91.418 C106.473,91.358 106.545,91.304 106.653,91.256 L106.653,91.256 L106.653,90.932 L103.125,90.932 C102.993,90.932 102.879,90.914 102.783,90.878 C102.687,90.842 102.627,90.764 102.603,90.644 L102.603,90.644 L102.279,90.644 L102.279,92.498 L102.603,92.498 C102.627,92.354 102.687,92.255 102.783,92.201 C102.879,92.147 102.993,92.12 103.125,92.12 L103.125,92.12 L104.979,92.12 L104.979,93.254 C104.595,93.458 104.172,93.596 103.71,93.668 C103.248,93.74 102.759,93.776 102.243,93.776 C101.895,93.776 101.535,93.728 101.163,93.632 C100.791,93.536 100.452,93.383 100.146,93.173 C99.84,92.963 99.591,92.687 99.399,92.345 C99.207,92.003 99.111,91.58 99.111,91.076 C99.111,90.572 99.201,90.146 99.381,89.798 C99.561,89.45 99.801,89.165 100.101,88.943 C100.401,88.721 100.749,88.559 101.145,88.457 C101.541,88.355 101.961,88.304 102.405,88.304 C102.729,88.304 103.05,88.337 103.368,88.403 C103.686,88.469 103.971,88.556 104.223,88.664 C104.475,88.772 104.679,88.889 104.835,89.015 C104.991,89.141 105.069,89.258 105.069,89.366 C105.069,89.378 105.057,89.444 105.033,89.564 L105.033,89.564 L105.249,89.69 L106.293,87.728 L106.077,87.62 C106.005,87.68 105.945,87.719 105.897,87.737 C105.849,87.755 105.777,87.764 105.681,87.764 C105.597,87.764 105.471,87.722 105.303,87.638 C105.135,87.554 104.913,87.464 104.637,87.368 C104.373,87.272 104.061,87.182 103.701,87.098 C103.341,87.014 102.927,86.972 102.459,86.972 C101.679,86.972 100.974,87.065 100.344,87.251 C99.714,87.437 99.18,87.707 98.742,88.061 C98.304,88.415 97.968,88.841 97.734,89.339 C97.5,89.837 97.383,90.404 97.383,91.04 C97.383,91.676 97.5,92.243 97.734,92.741 C97.968,93.239 98.304,93.662 98.742,94.01 C99.18,94.358 99.714,94.619 100.344,94.793 C100.974,94.967 101.679,95.054 102.459,95.054 Z M119.685,95 L119.685,94.676 C119.469,94.64 119.361,94.586 119.361,94.514 C119.361,94.454 119.394,94.37 119.46,94.262 C119.526,94.154 119.625,93.944 119.757,93.632 L119.757,93.632 L122.385,87.818 C122.517,87.542 122.667,87.404 122.835,87.404 L122.835,87.404 L122.835,87.08 L120.477,87.08 L120.477,87.404 C120.645,87.404 120.735,87.476 120.747,87.62 C120.759,87.704 120.729,87.818 120.657,87.962 C120.585,88.106 120.483,88.322 120.351,88.61 L120.351,88.61 L118.389,92.966 L116.319,88.484 C116.235,88.304 116.16,88.139 116.094,87.989 C116.028,87.839 115.995,87.722 115.995,87.638 C115.995,87.482 116.067,87.404 116.211,87.404 L116.211,87.404 L116.211,87.08 L113.673,87.08 L113.673,87.404 C113.745,87.404 113.82,87.434 113.898,87.494 C113.976,87.554 114.039,87.638 114.087,87.746 L114.087,87.746 L116.823,93.632 C116.931,93.86 117.024,94.04 117.102,94.172 C117.18,94.304 117.219,94.4 117.219,94.46 C117.219,94.52 117.192,94.565 117.138,94.595 C117.084,94.625 117.027,94.652 116.967,94.676 L116.967,94.676 L116.967,95 L119.685,95 Z M127.623,95 L127.623,94.676 C127.287,94.676 127.119,94.586 127.119,94.406 L127.119,94.406 L127.119,87.674 C127.119,87.494 127.287,87.404 127.623,87.404 L127.623,87.404 L127.623,87.08 L124.887,87.08 L124.887,87.404 C125.079,87.404 125.211,87.425 125.283,87.467 C125.355,87.509 125.391,87.578 125.391,87.674 L125.391,87.674 L125.391,94.406 C125.391,94.502 125.355,94.571 125.283,94.613 C125.211,94.655 125.079,94.676 124.887,94.676 L124.887,94.676 L124.887,95 L127.623,95 Z M133.059,95 L133.059,94.676 C132.987,94.676 132.912,94.655 132.834,94.613 C132.756,94.571 132.717,94.502 132.717,94.406 L132.717,94.406 L132.717,91.832 L135.219,91.832 L136.641,93.956 C136.821,94.208 136.911,94.394 136.911,94.514 C136.911,94.622 136.833,94.676 136.677,94.676 L136.677,94.676 L136.677,95 L139.431,95 L139.431,94.676 C139.299,94.64 139.176,94.589 139.062,94.523 C138.948,94.457 138.843,94.358 138.747,94.226 L138.747,94.226 L136.983,91.652 C137.235,91.592 137.481,91.505 137.721,91.391 C137.961,91.277 138.18,91.127 138.378,90.941 C138.576,90.755 138.735,90.536 138.855,90.284 C138.975,90.032 139.035,89.744 139.035,89.42 C139.035,88.568 138.735,87.965 138.135,87.611 C137.535,87.257 136.701,87.08 135.633,87.08 L135.633,87.08 L130.665,87.08 L130.665,87.404 C130.881,87.404 130.989,87.494 130.989,87.674 L130.989,87.674 L130.989,94.406 C130.989,94.586 130.881,94.676 130.665,94.676 L130.665,94.676 L130.665,95 L133.059,95 Z M135.597,90.5 L132.753,90.5 L132.753,88.412 L135.597,88.412 C136.209,88.412 136.656,88.499 136.938,88.673 C137.22,88.847 137.361,89.084 137.361,89.384 C137.361,90.128 136.773,90.5 135.597,90.5 L135.597,90.5 Z M146.325,95.054 C147.045,95.054 147.672,94.979 148.206,94.829 C148.74,94.679 149.178,94.472 149.52,94.208 C149.862,93.944 150.117,93.641 150.285,93.299 C150.453,92.957 150.537,92.6 150.537,92.228 L150.537,92.228 L150.537,87.674 C150.537,87.494 150.669,87.404 150.933,87.404 L150.933,87.404 L150.933,87.08 L148.431,87.08 L148.431,87.404 C148.731,87.404 148.881,87.494 148.881,87.674 L148.881,87.674 L148.881,91.796 C148.881,92.372 148.671,92.834 148.251,93.182 C147.831,93.53 147.189,93.704 146.325,93.704 C145.461,93.704 144.819,93.53 144.399,93.182 C143.979,92.834 143.769,92.372 143.769,91.796 L143.769,91.796 L143.769,87.674 C143.769,87.494 143.901,87.404 144.165,87.404 L144.165,87.404 L144.165,87.08 L141.591,87.08 L141.591,87.404 C141.795,87.404 141.933,87.425 142.005,87.467 C142.077,87.509 142.113,87.578 142.113,87.674 L142.113,87.674 L142.113,92.228 C142.113,92.6 142.197,92.957 142.365,93.299 C142.533,93.641 142.788,93.944 143.13,94.208 C143.472,94.472 143.91,94.679 144.444,94.829 C144.978,94.979 145.605,95.054 146.325,95.054 Z M157.125,95.054 C157.533,95.054 157.968,95.024 158.43,94.964 C158.892,94.904 159.315,94.778 159.699,94.586 C160.083,94.394 160.404,94.13 160.662,93.794 C160.92,93.458 161.049,93.026 161.049,92.498 C161.049,91.97 160.902,91.556 160.608,91.256 C160.314,90.956 159.945,90.728 159.501,90.572 C159.057,90.416 158.577,90.305 158.061,90.239 C157.545,90.173 157.065,90.107 156.621,90.041 C156.177,89.975 155.808,89.885 155.514,89.771 C155.22,89.657 155.073,89.468 155.073,89.204 C155.073,89.036 155.121,88.895 155.217,88.781 C155.313,88.667 155.445,88.574 155.613,88.502 C155.781,88.43 155.973,88.379 156.189,88.349 C156.405,88.319 156.633,88.304 156.873,88.304 C157.497,88.304 158.061,88.376 158.565,88.52 C159.069,88.664 159.441,88.838 159.681,89.042 C159.777,89.114 159.831,89.186 159.843,89.258 L159.843,89.258 L159.879,89.474 L160.203,89.582 L161.103,87.89 L160.905,87.692 C160.833,87.728 160.773,87.761 160.725,87.791 C160.677,87.821 160.605,87.836 160.509,87.836 C160.425,87.836 160.296,87.791 160.122,87.701 C159.948,87.611 159.723,87.512 159.447,87.404 C159.171,87.296 158.832,87.197 158.43,87.107 C158.028,87.017 157.545,86.972 156.981,86.972 C155.829,86.972 154.935,87.2 154.299,87.656 C153.663,88.112 153.345,88.724 153.345,89.492 C153.345,90.008 153.492,90.407 153.786,90.689 C154.08,90.971 154.449,91.187 154.893,91.337 C155.337,91.487 155.817,91.595 156.333,91.661 C156.849,91.727 157.329,91.793 157.773,91.859 C158.217,91.925 158.586,92.018 158.88,92.138 C159.174,92.258 159.321,92.45 159.321,92.714 C159.321,92.942 159.237,93.125 159.069,93.263 C158.901,93.401 158.697,93.509 158.457,93.587 C158.217,93.665 157.974,93.716 157.728,93.74 C157.482,93.764 157.275,93.776 157.107,93.776 C156.927,93.776 156.678,93.746 156.36,93.686 C156.042,93.626 155.724,93.545 155.406,93.443 C155.088,93.341 154.815,93.215 154.587,93.065 C154.359,92.915 154.245,92.75 154.245,92.57 C154.245,92.51 154.248,92.453 154.254,92.399 C154.26,92.345 154.263,92.294 154.263,92.246 L154.263,92.246 L153.921,92.156 L153.093,94.172 L153.345,94.352 C153.405,94.28 153.477,94.244 153.561,94.244 C153.609,94.244 153.747,94.289 153.975,94.379 C154.203,94.469 154.482,94.565 154.812,94.667 C155.142,94.769 155.508,94.859 155.91,94.937 C156.312,95.015 156.717,95.054 157.125,95.054 Z M166.017,91.724 L166.017,91.508 C165.921,91.508 165.843,91.493 165.783,91.463 C165.723,91.433 165.693,91.37 165.693,91.274 C165.693,91.19 165.699,91.109 165.711,91.031 C165.723,90.953 165.735,90.866 165.747,90.77 L165.747,90.77 L166.305,85.964 C166.329,85.82 166.365,85.718 166.413,85.658 C166.461,85.598 166.575,85.544 166.755,85.496 L166.755,85.496 L166.755,85.28 L163.767,85.28 L163.767,85.496 C163.947,85.544 164.061,85.598 164.109,85.658 C164.157,85.718 164.193,85.82 164.217,85.964 L164.217,85.964 L164.775,90.77 C164.787,90.866 164.799,90.953 164.811,91.031 C164.823,91.109 164.829,91.19 164.829,91.274 C164.829,91.37 164.799,91.433 164.739,91.463 C164.679,91.493 164.601,91.508 164.505,91.508 L164.505,91.508 L164.505,91.724 L166.017,91.724 Z M165.261,95.054 C165.573,95.054 165.843,94.949 166.071,94.739 C166.299,94.529 166.413,94.268 166.413,93.956 C166.413,93.644 166.299,93.374 166.071,93.146 C165.843,92.918 165.573,92.804 165.261,92.804 C164.949,92.804 164.679,92.918 164.451,93.146 C164.223,93.374 164.109,93.644 164.109,93.956 C164.109,94.268 164.223,94.529 164.451,94.739 C164.679,94.949 164.949,95.054 165.261,95.054 Z M173.451,91.724 L173.451,91.508 C173.343,91.508 173.265,91.463 173.217,91.373 C173.169,91.283 173.145,91.172 173.145,91.04 C173.145,90.764 173.253,90.506 173.469,90.266 C173.685,90.026 173.919,89.768 174.171,89.492 C174.435,89.216 174.672,88.913 174.882,88.583 C175.092,88.253 175.197,87.866 175.197,87.422 C175.197,87.062 175.122,86.741 174.972,86.459 C174.822,86.177 174.621,85.943 174.369,85.757 C174.117,85.571 173.832,85.427 173.514,85.325 C173.196,85.223 172.875,85.172 172.551,85.172 C172.047,85.172 171.639,85.232 171.327,85.352 C171.015,85.472 170.757,85.601 170.553,85.739 C170.349,85.877 170.184,86.006 170.058,86.126 C169.932,86.246 169.809,86.306 169.689,86.306 C169.677,86.306 169.611,86.294 169.491,86.27 L169.491,86.27 L169.329,86.432 L170.715,87.944 L170.877,87.818 C170.841,87.71 170.823,87.602 170.823,87.494 C170.823,87.422 170.856,87.329 170.922,87.215 C170.988,87.101 171.084,86.996 171.21,86.9 C171.336,86.804 171.492,86.72 171.678,86.648 C171.864,86.576 172.071,86.54 172.299,86.54 C172.611,86.54 172.872,86.633 173.082,86.819 C173.292,87.005 173.397,87.26 173.397,87.584 C173.397,87.86 173.319,88.103 173.163,88.313 C173.007,88.523 172.827,88.748 172.623,88.988 C172.431,89.216 172.248,89.48 172.074,89.78 C171.9,90.08 171.789,90.482 171.741,90.986 C171.717,91.19 171.678,91.328 171.624,91.4 C171.57,91.472 171.507,91.508 171.435,91.508 L171.435,91.508 L171.435,91.724 L173.451,91.724 Z M172.425,95.054 C172.737,95.054 173.007,94.949 173.235,94.739 C173.463,94.529 173.577,94.268 173.577,93.956 C173.577,93.644 173.463,93.374 173.235,93.146 C173.007,92.918 172.737,92.804 172.425,92.804 C172.113,92.804 171.843,92.918 171.615,93.146 C171.387,93.374 171.273,93.644 171.273,93.956 C171.273,94.268 171.387,94.529 171.615,94.739 C171.843,94.949 172.113,95.054 172.425,95.054 Z" id="startedthisfreakingvirus!?"></path>
            </g>
        </g>
    </g>
</svg>