<?xml version="1.0" encoding="UTF-8"?>
<svg width="262px" height="360px" viewBox="0 0 262 360" version="1.1" xmlns="http://www.w3.org/2000/svg" xmlns:xlink="http://www.w3.org/1999/xlink">
    <title>TP</title>
    <g id="TP" stroke="none" stroke-width="1" fill="none" fill-rule="evenodd">
        <g id="Group" transform="translate(9.000000, 9.000000)" fill="#FFFFFF" stroke="#000000" stroke-width="3">
            <g id="Rectangle">
                <rect x="1.5" y="1.5" width="239" height="337" rx="8"></rect>
            </g>
        </g>
        <g id="Group" transform="translate(230.500000, 16.000000)" fill="#000000">
            <path d="M8.31401794,3.90711555 L12.3401983,12.5788887 C12.5727717,13.0798159 12.3552279,13.6744356 11.8543007,13.907009 C11.7223643,13.9682651 11.5786525,14 11.4331894,14 L1.56681065,14 C1.0145259,14 0.566810646,13.5522847 0.566810646,13 C0.566810646,12.8545369 0.598545523,12.710825 0.659801678,12.5788887 L4.68598206,3.90711555 C5.15112877,2.90526111 6.34036817,2.47017353 7.34222261,2.93532023 C7.77077587,3.13429139 8.11504678,3.4785623 8.31401794,3.90711555 Z" id="Triangle" transform="translate(6.500000, 7.000000) scale(1, -1) translate(-6.500000, -7.000000) "></path>
            <circle id="Oval" cx="6.5" cy="15.5" r="3.5"></circle>
        </g>
        <rect id="Rectangle" stroke="#000000" stroke-width="3" x="17.5" y="264.5" width="225" height="77" rx="8"></rect>
        <path d="M122.32,62 L122.32,61.352 C121.792,61.352 121.528,61.136 121.528,60.704 L121.528,60.704 L121.528,46.376 L127.468,46.376 C127.684,46.376 127.894,46.436 128.098,46.556 C128.302,46.676 128.404,46.904 128.404,47.24 L128.404,47.24 L129.052,47.24 L129.052,42.2 L128.404,42.2 C128.404,42.536 128.302,42.764 128.098,42.884 C127.894,43.004 127.684,43.064 127.468,43.064 L127.468,43.064 L111.484,43.064 C111.268,43.064 111.058,43.004 110.854,42.884 C110.65,42.764 110.548,42.536 110.548,42.2 L110.548,42.2 L109.9,42.2 L109.9,47.24 L110.548,47.24 C110.548,46.904 110.65,46.676 110.854,46.556 C111.058,46.436 111.268,46.376 111.484,46.376 L111.484,46.376 L117.424,46.376 L117.424,60.704 C117.424,60.92 117.358,61.082 117.226,61.19 C117.094,61.298 116.944,61.352 116.776,61.352 L116.776,61.352 L116.776,62 L122.32,62 Z M139.816,62 L139.816,61.352 C139.048,61.352 138.664,61.136 138.664,60.704 L138.664,60.704 L138.664,54.296 L145.9,54.296 C148.204,54.296 150.016,53.87 151.336,53.018 C152.656,52.166 153.316,50.72 153.316,48.68 C153.316,46.64 152.656,45.194 151.336,44.342 C150.016,43.49 148.204,43.064 145.9,43.064 L145.9,43.064 L133.228,43.064 L133.228,43.712 C134.116,43.712 134.56,43.928 134.56,44.36 L134.56,44.36 L134.56,60.704 C134.56,61.136 134.116,61.352 133.228,61.352 L133.228,61.352 L133.228,62 L139.816,62 Z M146.332,50.984 L138.664,50.984 L138.664,46.376 L146.332,46.376 C147.124,46.376 147.802,46.532 148.366,46.844 C148.93,47.156 149.212,47.768 149.212,48.68 C149.212,49.592 148.93,50.204 148.366,50.516 C147.802,50.828 147.124,50.984 146.332,50.984 L146.332,50.984 Z" fill="#000000" fill-rule="nonzero"></path>
        <path d="M62.456,280 L62.456,279.676 C62.18,279.676 62.042,279.568 62.042,279.352 L62.042,279.352 L62.042,276.148 L65.102,271.81 C65.246,271.594 65.369,271.423 65.471,271.297 C65.573,271.171 65.669,271.075 65.759,271.009 C65.849,270.943 65.936,270.901 66.02,270.883 C66.104,270.865 66.194,270.856 66.29,270.856 L66.29,270.856 L66.29,270.532 L63.14,270.532 L63.14,270.856 C63.236,270.856 63.341,270.868 63.455,270.892 C63.569,270.916 63.626,270.97 63.626,271.054 C63.626,271.126 63.596,271.204 63.536,271.288 C63.476,271.372 63.398,271.486 63.302,271.63 L63.302,271.63 L61.196,274.528 C61.04,274.276 60.836,273.97 60.584,273.61 C60.332,273.25 60.089,272.899 59.855,272.557 C59.621,272.215 59.417,271.909 59.243,271.639 C59.069,271.369 58.982,271.198 58.982,271.126 C58.982,271.006 59.03,270.931 59.126,270.901 C59.222,270.871 59.324,270.856 59.432,270.856 L59.432,270.856 L59.432,270.532 L55.688,270.532 L55.688,270.856 C55.808,270.856 55.955,270.898 56.129,270.982 C56.303,271.066 56.432,271.168 56.516,271.288 L56.516,271.288 L59.99,276.148 L59.99,279.352 C59.99,279.46 59.954,279.541 59.882,279.595 C59.81,279.649 59.72,279.676 59.612,279.676 L59.612,279.676 L59.612,280 L62.456,280 Z M71.978,280.054 C72.638,280.054 73.259,279.979 73.841,279.829 C74.423,279.679 74.93,279.436 75.362,279.1 C75.794,278.764 76.136,278.341 76.388,277.831 C76.64,277.321 76.766,276.724 76.766,276.04 C76.766,275.356 76.64,274.759 76.388,274.249 C76.136,273.739 75.794,273.316 75.362,272.98 C74.93,272.644 74.423,272.392 73.841,272.224 C73.259,272.056 72.638,271.972 71.978,271.972 C71.318,271.972 70.697,272.056 70.115,272.224 C69.533,272.392 69.026,272.644 68.594,272.98 C68.162,273.316 67.82,273.739 67.568,274.249 C67.316,274.759 67.19,275.356 67.19,276.04 C67.19,276.724 67.316,277.321 67.568,277.831 C67.82,278.341 68.162,278.764 68.594,279.1 C69.026,279.436 69.533,279.679 70.115,279.829 C70.697,279.979 71.318,280.054 71.978,280.054 Z M71.978,278.776 C71.594,278.776 71.219,278.713 70.853,278.587 C70.487,278.461 70.16,278.281 69.872,278.047 C69.584,277.813 69.353,277.528 69.179,277.192 C69.005,276.856 68.918,276.472 68.918,276.04 C68.918,275.608 69.005,275.224 69.179,274.888 C69.353,274.552 69.584,274.267 69.872,274.033 C70.16,273.799 70.487,273.619 70.853,273.493 C71.219,273.367 71.594,273.304 71.978,273.304 C72.362,273.304 72.737,273.367 73.103,273.493 C73.469,273.619 73.796,273.799 74.084,274.033 C74.372,274.267 74.603,274.552 74.777,274.888 C74.951,275.224 75.038,275.608 75.038,276.04 C75.038,276.472 74.951,276.856 74.777,277.192 C74.603,277.528 74.372,277.813 74.084,278.047 C73.796,278.281 73.469,278.461 73.103,278.587 C72.737,278.713 72.362,278.776 71.978,278.776 Z M83.552,280.054 C84.272,280.054 84.899,279.979 85.433,279.829 C85.967,279.679 86.405,279.472 86.747,279.208 C87.089,278.944 87.344,278.641 87.512,278.299 C87.68,277.957 87.764,277.6 87.764,277.228 L87.764,277.228 L87.764,272.674 C87.764,272.494 87.896,272.404 88.16,272.404 L88.16,272.404 L88.16,272.08 L85.658,272.08 L85.658,272.404 C85.958,272.404 86.108,272.494 86.108,272.674 L86.108,272.674 L86.108,276.796 C86.108,277.372 85.898,277.834 85.478,278.182 C85.058,278.53 84.416,278.704 83.552,278.704 C82.688,278.704 82.046,278.53 81.626,278.182 C81.206,277.834 80.996,277.372 80.996,276.796 L80.996,276.796 L80.996,272.674 C80.996,272.494 81.128,272.404 81.392,272.404 L81.392,272.404 L81.392,272.08 L78.818,272.08 L78.818,272.404 C79.022,272.404 79.16,272.425 79.232,272.467 C79.304,272.509 79.34,272.578 79.34,272.674 L79.34,272.674 L79.34,277.228 C79.34,277.6 79.424,277.957 79.592,278.299 C79.76,278.641 80.015,278.944 80.357,279.208 C80.699,279.472 81.137,279.679 81.671,279.829 C82.205,279.979 82.832,280.054 83.552,280.054 Z M93.29,280 L93.29,279.676 C93.218,279.676 93.143,279.655 93.065,279.613 C92.987,279.571 92.948,279.502 92.948,279.406 L92.948,279.406 L92.948,276.832 L95.45,276.832 L96.872,278.956 C97.052,279.208 97.142,279.394 97.142,279.514 C97.142,279.622 97.064,279.676 96.908,279.676 L96.908,279.676 L96.908,280 L99.662,280 L99.662,279.676 C99.53,279.64 99.407,279.589 99.293,279.523 C99.179,279.457 99.074,279.358 98.978,279.226 L98.978,279.226 L97.214,276.652 C97.466,276.592 97.712,276.505 97.952,276.391 C98.192,276.277 98.411,276.127 98.609,275.941 C98.807,275.755 98.966,275.536 99.086,275.284 C99.206,275.032 99.266,274.744 99.266,274.42 C99.266,273.568 98.966,272.965 98.366,272.611 C97.766,272.257 96.932,272.08 95.864,272.08 L95.864,272.08 L90.896,272.08 L90.896,272.404 C91.112,272.404 91.22,272.494 91.22,272.674 L91.22,272.674 L91.22,279.406 C91.22,279.586 91.112,279.676 90.896,279.676 L90.896,279.676 L90.896,280 L93.29,280 Z M95.828,275.5 L92.984,275.5 L92.984,273.412 L95.828,273.412 C96.44,273.412 96.887,273.499 97.169,273.673 C97.451,273.847 97.592,274.084 97.592,274.384 C97.592,275.128 97.004,275.5 95.828,275.5 L95.828,275.5 Z M109.832,280 L109.832,279.676 C109.76,279.676 109.697,279.655 109.643,279.613 C109.589,279.571 109.562,279.502 109.562,279.406 L109.562,279.406 L109.562,276.688 L114.386,276.688 L114.386,279.406 C114.386,279.502 114.359,279.571 114.305,279.613 C114.251,279.655 114.188,279.676 114.116,279.676 L114.116,279.676 L114.116,280 L116.384,280 L116.384,279.676 C116.312,279.676 116.249,279.655 116.195,279.613 C116.141,279.571 116.114,279.502 116.114,279.406 L116.114,279.406 L116.114,272.674 C116.114,272.578 116.141,272.509 116.195,272.467 C116.249,272.425 116.312,272.404 116.384,272.404 L116.384,272.404 L116.384,272.08 L114.116,272.08 L114.116,272.404 C114.188,272.404 114.251,272.425 114.305,272.467 C114.359,272.509 114.386,272.578 114.386,272.674 L114.386,272.674 L114.386,275.212 L109.562,275.212 L109.562,272.674 C109.562,272.578 109.589,272.509 109.643,272.467 C109.697,272.425 109.76,272.404 109.832,272.404 L109.832,272.404 L109.832,272.08 L107.564,272.08 L107.564,272.404 C107.636,272.404 107.699,272.425 107.753,272.467 C107.807,272.509 107.834,272.578 107.834,272.674 L107.834,272.674 L107.834,279.406 C107.834,279.502 107.807,279.571 107.753,279.613 C107.699,279.655 107.636,279.676 107.564,279.676 L107.564,279.676 L107.564,280 L109.832,280 Z M123.476,280.054 C124.136,280.054 124.757,279.979 125.339,279.829 C125.921,279.679 126.428,279.436 126.86,279.1 C127.292,278.764 127.634,278.341 127.886,277.831 C128.138,277.321 128.264,276.724 128.264,276.04 C128.264,275.356 128.138,274.759 127.886,274.249 C127.634,273.739 127.292,273.316 126.86,272.98 C126.428,272.644 125.921,272.392 125.339,272.224 C124.757,272.056 124.136,271.972 123.476,271.972 C122.816,271.972 122.195,272.056 121.613,272.224 C121.031,272.392 120.524,272.644 120.092,272.98 C119.66,273.316 119.318,273.739 119.066,274.249 C118.814,274.759 118.688,275.356 118.688,276.04 C118.688,276.724 118.814,277.321 119.066,277.831 C119.318,278.341 119.66,278.764 120.092,279.1 C120.524,279.436 121.031,279.679 121.613,279.829 C122.195,279.979 122.816,280.054 123.476,280.054 Z M123.476,278.776 C123.092,278.776 122.717,278.713 122.351,278.587 C121.985,278.461 121.658,278.281 121.37,278.047 C121.082,277.813 120.851,277.528 120.677,277.192 C120.503,276.856 120.416,276.472 120.416,276.04 C120.416,275.608 120.503,275.224 120.677,274.888 C120.851,274.552 121.082,274.267 121.37,274.033 C121.658,273.799 121.985,273.619 122.351,273.493 C122.717,273.367 123.092,273.304 123.476,273.304 C123.86,273.304 124.235,273.367 124.601,273.493 C124.967,273.619 125.294,273.799 125.582,274.033 C125.87,274.267 126.101,274.552 126.275,274.888 C126.449,275.224 126.536,275.608 126.536,276.04 C126.536,276.472 126.449,276.856 126.275,277.192 C126.101,277.528 125.87,277.813 125.582,278.047 C125.294,278.281 124.967,278.461 124.601,278.587 C124.235,278.713 123.86,278.776 123.476,278.776 Z M135.05,280.054 C135.77,280.054 136.397,279.979 136.931,279.829 C137.465,279.679 137.903,279.472 138.245,279.208 C138.587,278.944 138.842,278.641 139.01,278.299 C139.178,277.957 139.262,277.6 139.262,277.228 L139.262,277.228 L139.262,272.674 C139.262,272.494 139.394,272.404 139.658,272.404 L139.658,272.404 L139.658,272.08 L137.156,272.08 L137.156,272.404 C137.456,272.404 137.606,272.494 137.606,272.674 L137.606,272.674 L137.606,276.796 C137.606,277.372 137.396,277.834 136.976,278.182 C136.556,278.53 135.914,278.704 135.05,278.704 C134.186,278.704 133.544,278.53 133.124,278.182 C132.704,277.834 132.494,277.372 132.494,276.796 L132.494,276.796 L132.494,272.674 C132.494,272.494 132.626,272.404 132.89,272.404 L132.89,272.404 L132.89,272.08 L130.316,272.08 L130.316,272.404 C130.52,272.404 130.658,272.425 130.73,272.467 C130.802,272.509 130.838,272.578 130.838,272.674 L130.838,272.674 L130.838,277.228 C130.838,277.6 130.922,277.957 131.09,278.299 C131.258,278.641 131.513,278.944 131.855,279.208 C132.197,279.472 132.635,279.679 133.169,279.829 C133.703,279.979 134.33,280.054 135.05,280.054 Z M145.85,280.054 C146.258,280.054 146.693,280.024 147.155,279.964 C147.617,279.904 148.04,279.778 148.424,279.586 C148.808,279.394 149.129,279.13 149.387,278.794 C149.645,278.458 149.774,278.026 149.774,277.498 C149.774,276.97 149.627,276.556 149.333,276.256 C149.039,275.956 148.67,275.728 148.226,275.572 C147.782,275.416 147.302,275.305 146.786,275.239 C146.27,275.173 145.79,275.107 145.346,275.041 C144.902,274.975 144.533,274.885 144.239,274.771 C143.945,274.657 143.798,274.468 143.798,274.204 C143.798,274.036 143.846,273.895 143.942,273.781 C144.038,273.667 144.17,273.574 144.338,273.502 C144.506,273.43 144.698,273.379 144.914,273.349 C145.13,273.319 145.358,273.304 145.598,273.304 C146.222,273.304 146.786,273.376 147.29,273.52 C147.794,273.664 148.166,273.838 148.406,274.042 C148.502,274.114 148.556,274.186 148.568,274.258 L148.568,274.258 L148.604,274.474 L148.928,274.582 L149.828,272.89 L149.63,272.692 C149.558,272.728 149.498,272.761 149.45,272.791 C149.402,272.821 149.33,272.836 149.234,272.836 C149.15,272.836 149.021,272.791 148.847,272.701 C148.673,272.611 148.448,272.512 148.172,272.404 C147.896,272.296 147.557,272.197 147.155,272.107 C146.753,272.017 146.27,271.972 145.706,271.972 C144.554,271.972 143.66,272.2 143.024,272.656 C142.388,273.112 142.07,273.724 142.07,274.492 C142.07,275.008 142.217,275.407 142.511,275.689 C142.805,275.971 143.174,276.187 143.618,276.337 C144.062,276.487 144.542,276.595 145.058,276.661 C145.574,276.727 146.054,276.793 146.498,276.859 C146.942,276.925 147.311,277.018 147.605,277.138 C147.899,277.258 148.046,277.45 148.046,277.714 C148.046,277.942 147.962,278.125 147.794,278.263 C147.626,278.401 147.422,278.509 147.182,278.587 C146.942,278.665 146.699,278.716 146.453,278.74 C146.207,278.764 146,278.776 145.832,278.776 C145.652,278.776 145.403,278.746 145.085,278.686 C144.767,278.626 144.449,278.545 144.131,278.443 C143.813,278.341 143.54,278.215 143.312,278.065 C143.084,277.915 142.97,277.75 142.97,277.57 C142.97,277.51 142.973,277.453 142.979,277.399 C142.985,277.345 142.988,277.294 142.988,277.246 L142.988,277.246 L142.646,277.156 L141.818,279.172 L142.07,279.352 C142.13,279.28 142.202,279.244 142.286,279.244 C142.334,279.244 142.472,279.289 142.7,279.379 C142.928,279.469 143.207,279.565 143.537,279.667 C143.867,279.769 144.233,279.859 144.635,279.937 C145.037,280.015 145.442,280.054 145.85,280.054 Z M159.908,280.198 L159.908,278.308 L159.584,278.308 C159.584,278.416 159.536,278.503 159.44,278.569 C159.344,278.635 159.224,278.668 159.08,278.668 L159.08,278.668 L154.472,278.668 L154.472,276.544 L157.1,276.544 C157.34,276.544 157.526,276.559 157.658,276.589 C157.79,276.619 157.838,276.7 157.802,276.832 L157.802,276.832 L158.162,276.832 L158.162,274.924 L157.838,274.924 C157.838,275.056 157.79,275.137 157.694,275.167 C157.598,275.197 157.448,275.212 157.244,275.212 L157.244,275.212 L154.472,275.212 L154.472,273.412 L158.864,273.412 C159.236,273.412 159.422,273.526 159.422,273.754 L159.422,273.754 L159.746,273.754 L159.746,271.756 L159.422,271.756 C159.422,271.972 159.236,272.08 158.864,272.08 L158.864,272.08 L152.474,272.08 L152.474,272.404 C152.534,272.404 152.594,272.425 152.654,272.467 C152.714,272.509 152.744,272.578 152.744,272.674 L152.744,272.674 L152.744,279.406 C152.744,279.502 152.714,279.571 152.654,279.613 C152.594,279.655 152.534,279.676 152.474,279.676 L152.474,279.676 L152.474,280 L159.08,280 C159.224,280 159.344,280.006 159.44,280.018 C159.536,280.03 159.584,280.09 159.584,280.198 L159.584,280.198 L159.908,280.198 Z M172.184,280.054 C172.76,280.054 173.282,280.015 173.75,279.937 C174.218,279.859 174.629,279.76 174.983,279.64 C175.337,279.52 175.631,279.397 175.865,279.271 C176.099,279.145 176.27,279.046 176.378,278.974 L176.378,278.974 L176.378,278.758 C176.258,278.71 176.183,278.665 176.153,278.623 C176.123,278.581 176.108,278.506 176.108,278.398 L176.108,278.398 L176.108,276.688 C176.108,276.568 176.126,276.478 176.162,276.418 C176.198,276.358 176.27,276.304 176.378,276.256 L176.378,276.256 L176.378,275.932 L172.85,275.932 C172.718,275.932 172.604,275.914 172.508,275.878 C172.412,275.842 172.352,275.764 172.328,275.644 L172.328,275.644 L172.004,275.644 L172.004,277.498 L172.328,277.498 C172.352,277.354 172.412,277.255 172.508,277.201 C172.604,277.147 172.718,277.12 172.85,277.12 L172.85,277.12 L174.704,277.12 L174.704,278.254 C174.32,278.458 173.897,278.596 173.435,278.668 C172.973,278.74 172.484,278.776 171.968,278.776 C171.62,278.776 171.26,278.728 170.888,278.632 C170.516,278.536 170.177,278.383 169.871,278.173 C169.565,277.963 169.316,277.687 169.124,277.345 C168.932,277.003 168.836,276.58 168.836,276.076 C168.836,275.572 168.926,275.146 169.106,274.798 C169.286,274.45 169.526,274.165 169.826,273.943 C170.126,273.721 170.474,273.559 170.87,273.457 C171.266,273.355 171.686,273.304 172.13,273.304 C172.454,273.304 172.775,273.337 173.093,273.403 C173.411,273.469 173.696,273.556 173.948,273.664 C174.2,273.772 174.404,273.889 174.56,274.015 C174.716,274.141 174.794,274.258 174.794,274.366 C174.794,274.378 174.782,274.444 174.758,274.564 L174.758,274.564 L174.974,274.69 L176.018,272.728 L175.802,272.62 C175.73,272.68 175.67,272.719 175.622,272.737 C175.574,272.755 175.502,272.764 175.406,272.764 C175.322,272.764 175.196,272.722 175.028,272.638 C174.86,272.554 174.638,272.464 174.362,272.368 C174.098,272.272 173.786,272.182 173.426,272.098 C173.066,272.014 172.652,271.972 172.184,271.972 C171.404,271.972 170.699,272.065 170.069,272.251 C169.439,272.437 168.905,272.707 168.467,273.061 C168.029,273.415 167.693,273.841 167.459,274.339 C167.225,274.837 167.108,275.404 167.108,276.04 C167.108,276.676 167.225,277.243 167.459,277.741 C167.693,278.239 168.029,278.662 168.467,279.01 C168.905,279.358 169.439,279.619 170.069,279.793 C170.699,279.967 171.404,280.054 172.184,280.054 Z M186.404,280.198 L186.404,278.308 L186.08,278.308 C186.08,278.416 186.032,278.503 185.936,278.569 C185.84,278.635 185.72,278.668 185.576,278.668 L185.576,278.668 L180.968,278.668 L180.968,276.544 L183.596,276.544 C183.836,276.544 184.022,276.559 184.154,276.589 C184.286,276.619 184.334,276.7 184.298,276.832 L184.298,276.832 L184.658,276.832 L184.658,274.924 L184.334,274.924 C184.334,275.056 184.286,275.137 184.19,275.167 C184.094,275.197 183.944,275.212 183.74,275.212 L183.74,275.212 L180.968,275.212 L180.968,273.412 L185.36,273.412 C185.732,273.412 185.918,273.526 185.918,273.754 L185.918,273.754 L186.242,273.754 L186.242,271.756 L185.918,271.756 C185.918,271.972 185.732,272.08 185.36,272.08 L185.36,272.08 L178.97,272.08 L178.97,272.404 C179.03,272.404 179.09,272.425 179.15,272.467 C179.21,272.509 179.24,272.578 179.24,272.674 L179.24,272.674 L179.24,279.406 C179.24,279.502 179.21,279.571 179.15,279.613 C179.09,279.655 179.03,279.676 178.97,279.676 L178.97,279.676 L178.97,280 L185.576,280 C185.72,280 185.84,280.006 185.936,280.018 C186.032,280.03 186.08,280.09 186.08,280.198 L186.08,280.198 L186.404,280.198 Z M193.19,280 L193.19,279.676 C192.974,279.676 192.866,279.586 192.866,279.406 L192.866,279.406 L192.866,273.412 L195.206,273.412 C195.302,273.412 195.392,273.436 195.476,273.484 C195.56,273.532 195.602,273.61 195.602,273.718 L195.602,273.718 L195.926,273.718 L195.926,271.648 L195.602,271.648 C195.602,271.816 195.56,271.93 195.476,271.99 C195.392,272.05 195.302,272.08 195.206,272.08 L195.206,272.08 L188.798,272.08 C188.702,272.08 188.612,272.05 188.528,271.99 C188.444,271.93 188.402,271.816 188.402,271.648 L188.402,271.648 L188.078,271.648 L188.078,273.718 L188.402,273.718 C188.402,273.61 188.444,273.532 188.528,273.484 C188.612,273.436 188.702,273.412 188.798,273.412 L188.798,273.412 L191.138,273.412 L191.138,279.406 C191.138,279.502 191.108,279.571 191.048,279.613 C190.988,279.655 190.928,279.676 190.868,279.676 L190.868,279.676 L190.868,280 L193.19,280 Z M201.362,280.054 C201.77,280.054 202.205,280.024 202.667,279.964 C203.129,279.904 203.552,279.778 203.936,279.586 C204.32,279.394 204.641,279.13 204.899,278.794 C205.157,278.458 205.286,278.026 205.286,277.498 C205.286,276.97 205.139,276.556 204.845,276.256 C204.551,275.956 204.182,275.728 203.738,275.572 C203.294,275.416 202.814,275.305 202.298,275.239 C201.782,275.173 201.302,275.107 200.858,275.041 C200.414,274.975 200.045,274.885 199.751,274.771 C199.457,274.657 199.31,274.468 199.31,274.204 C199.31,274.036 199.358,273.895 199.454,273.781 C199.55,273.667 199.682,273.574 199.85,273.502 C200.018,273.43 200.21,273.379 200.426,273.349 C200.642,273.319 200.87,273.304 201.11,273.304 C201.734,273.304 202.298,273.376 202.802,273.52 C203.306,273.664 203.678,273.838 203.918,274.042 C204.014,274.114 204.068,274.186 204.08,274.258 L204.08,274.258 L204.116,274.474 L204.44,274.582 L205.34,272.89 L205.142,272.692 C205.07,272.728 205.01,272.761 204.962,272.791 C204.914,272.821 204.842,272.836 204.746,272.836 C204.662,272.836 204.533,272.791 204.359,272.701 C204.185,272.611 203.96,272.512 203.684,272.404 C203.408,272.296 203.069,272.197 202.667,272.107 C202.265,272.017 201.782,271.972 201.218,271.972 C200.066,271.972 199.172,272.2 198.536,272.656 C197.9,273.112 197.582,273.724 197.582,274.492 C197.582,275.008 197.729,275.407 198.023,275.689 C198.317,275.971 198.686,276.187 199.13,276.337 C199.574,276.487 200.054,276.595 200.57,276.661 C201.086,276.727 201.566,276.793 202.01,276.859 C202.454,276.925 202.823,277.018 203.117,277.138 C203.411,277.258 203.558,277.45 203.558,277.714 C203.558,277.942 203.474,278.125 203.306,278.263 C203.138,278.401 202.934,278.509 202.694,278.587 C202.454,278.665 202.211,278.716 201.965,278.74 C201.719,278.764 201.512,278.776 201.344,278.776 C201.164,278.776 200.915,278.746 200.597,278.686 C200.279,278.626 199.961,278.545 199.643,278.443 C199.325,278.341 199.052,278.215 198.824,278.065 C198.596,277.915 198.482,277.75 198.482,277.57 C198.482,277.51 198.485,277.453 198.491,277.399 C198.497,277.345 198.5,277.294 198.5,277.246 L198.5,277.246 L198.158,277.156 L197.33,279.172 L197.582,279.352 C197.642,279.28 197.714,279.244 197.798,279.244 C197.846,279.244 197.984,279.289 198.212,279.379 C198.44,279.469 198.719,279.565 199.049,279.667 C199.379,279.769 199.745,279.859 200.147,279.937 C200.549,280.015 200.954,280.054 201.362,280.054 Z M50.18,298 L50.18,297.676 C49.916,297.676 49.784,297.568 49.784,297.352 L49.784,297.352 L49.784,290.188 L52.754,290.188 C52.862,290.188 52.967,290.218 53.069,290.278 C53.171,290.338 53.222,290.452 53.222,290.62 L53.222,290.62 L53.546,290.62 L53.546,288.1 L53.222,288.1 C53.222,288.268 53.171,288.382 53.069,288.442 C52.967,288.502 52.862,288.532 52.754,288.532 L52.754,288.532 L44.762,288.532 C44.654,288.532 44.549,288.502 44.447,288.442 C44.345,288.382 44.294,288.268 44.294,288.1 L44.294,288.1 L43.97,288.1 L43.97,290.62 L44.294,290.62 C44.294,290.452 44.345,290.338 44.447,290.278 C44.549,290.218 44.654,290.188 44.762,290.188 L44.762,290.188 L47.732,290.188 L47.732,297.352 C47.732,297.46 47.699,297.541 47.633,297.595 C47.567,297.649 47.492,297.676 47.408,297.676 L47.408,297.676 L47.408,298 L50.18,298 Z M58.928,298 L58.928,297.676 C58.544,297.676 58.352,297.568 58.352,297.352 L58.352,297.352 L58.352,294.148 L61.97,294.148 C63.122,294.148 64.028,293.935 64.688,293.509 C65.348,293.083 65.678,292.36 65.678,291.34 C65.678,290.32 65.348,289.597 64.688,289.171 C64.028,288.745 63.122,288.532 61.97,288.532 L61.97,288.532 L55.634,288.532 L55.634,288.856 C56.078,288.856 56.3,288.964 56.3,289.18 L56.3,289.18 L56.3,297.352 C56.3,297.568 56.078,297.676 55.634,297.676 L55.634,297.676 L55.634,298 L58.928,298 Z M62.186,292.492 L58.352,292.492 L58.352,290.188 L62.186,290.188 C62.582,290.188 62.921,290.266 63.203,290.422 C63.485,290.578 63.626,290.884 63.626,291.34 C63.626,291.796 63.485,292.102 63.203,292.258 C62.921,292.414 62.582,292.492 62.186,292.492 L62.186,292.492 Z M67.1,293.41 C67.472,293.326 67.832,293.176 68.18,292.96 C68.528,292.744 68.834,292.486 69.098,292.186 C69.362,291.886 69.575,291.553 69.737,291.187 C69.899,290.821 69.98,290.44 69.98,290.044 C69.98,289.54 69.857,289.114 69.611,288.766 C69.365,288.418 69.002,288.244 68.522,288.244 C68.21,288.244 67.931,288.37 67.685,288.622 C67.439,288.874 67.316,289.174 67.316,289.522 C67.316,289.882 67.427,290.161 67.649,290.359 C67.871,290.557 68.132,290.656 68.432,290.656 C68.528,290.656 68.63,290.662 68.738,290.674 C68.846,290.686 68.912,290.734 68.936,290.818 C68.96,291.034 68.912,291.25 68.792,291.466 C68.672,291.682 68.519,291.883 68.333,292.069 C68.147,292.255 67.94,292.417 67.712,292.555 C67.484,292.693 67.28,292.786 67.1,292.834 L67.1,292.834 L67.1,293.41 Z M77.558,298 C78.266,298 78.866,297.886 79.358,297.658 C79.85,297.43 80.252,297.133 80.564,296.767 C80.876,296.401 81.104,295.981 81.248,295.507 C81.392,295.033 81.464,294.544 81.464,294.04 C81.464,293.536 81.389,293.047 81.239,292.573 C81.089,292.099 80.855,291.679 80.537,291.313 C80.219,290.947 79.808,290.65 79.304,290.422 C78.8,290.194 78.194,290.08 77.486,290.08 L77.486,290.08 L72.482,290.08 L72.482,290.404 C72.758,290.404 72.896,290.494 72.896,290.674 L72.896,290.674 L72.896,297.406 C72.896,297.586 72.758,297.676 72.482,297.676 L72.482,297.676 L72.482,298 L77.558,298 Z M76.964,296.668 L74.624,296.668 L74.624,291.412 L76.964,291.412 C77.336,291.412 77.69,291.433 78.026,291.475 C78.362,291.517 78.656,291.625 78.908,291.799 C79.16,291.973 79.361,292.231 79.511,292.573 C79.661,292.915 79.736,293.386 79.736,293.986 C79.736,294.586 79.661,295.063 79.511,295.417 C79.361,295.771 79.16,296.041 78.908,296.227 C78.656,296.413 78.362,296.533 78.026,296.587 C77.69,296.641 77.336,296.668 76.964,296.668 L76.964,296.668 Z M85.01,298.054 C85.358,298.054 85.658,297.937 85.91,297.703 C86.162,297.469 86.288,297.178 86.288,296.83 C86.288,296.482 86.162,296.182 85.91,295.93 C85.658,295.678 85.358,295.552 85.01,295.552 C84.662,295.552 84.362,295.678 84.11,295.93 C83.858,296.182 83.732,296.482 83.732,296.83 C83.732,297.178 83.858,297.469 84.11,297.703 C84.362,297.937 84.662,298.054 85.01,298.054 Z M100.22,298 L100.22,297.676 C99.944,297.676 99.806,297.568 99.806,297.352 L99.806,297.352 L99.806,294.148 L102.866,289.81 C103.01,289.594 103.133,289.423 103.235,289.297 C103.337,289.171 103.433,289.075 103.523,289.009 C103.613,288.943 103.7,288.901 103.784,288.883 C103.868,288.865 103.958,288.856 104.054,288.856 L104.054,288.856 L104.054,288.532 L100.904,288.532 L100.904,288.856 C101,288.856 101.105,288.868 101.219,288.892 C101.333,288.916 101.39,288.97 101.39,289.054 C101.39,289.126 101.36,289.204 101.3,289.288 C101.24,289.372 101.162,289.486 101.066,289.63 L101.066,289.63 L98.96,292.528 C98.804,292.276 98.6,291.97 98.348,291.61 C98.096,291.25 97.853,290.899 97.619,290.557 C97.385,290.215 97.181,289.909 97.007,289.639 C96.833,289.369 96.746,289.198 96.746,289.126 C96.746,289.006 96.794,288.931 96.89,288.901 C96.986,288.871 97.088,288.856 97.196,288.856 L97.196,288.856 L97.196,288.532 L93.452,288.532 L93.452,288.856 C93.572,288.856 93.719,288.898 93.893,288.982 C94.067,289.066 94.196,289.168 94.28,289.288 L94.28,289.288 L97.754,294.148 L97.754,297.352 C97.754,297.46 97.718,297.541 97.646,297.595 C97.574,297.649 97.484,297.676 97.376,297.676 L97.376,297.676 L97.376,298 L100.22,298 Z M111.254,298.054 C111.914,298.054 112.586,297.964 113.27,297.784 C113.954,297.604 114.578,297.316 115.142,296.92 C115.706,296.524 116.168,296.023 116.528,295.417 C116.888,294.811 117.068,294.094 117.068,293.266 C117.068,292.438 116.888,291.721 116.528,291.115 C116.168,290.509 115.706,290.008 115.142,289.612 C114.578,289.216 113.954,288.919 113.27,288.721 C112.586,288.523 111.914,288.424 111.254,288.424 C110.594,288.424 109.922,288.523 109.238,288.721 C108.554,288.919 107.93,289.216 107.366,289.612 C106.802,290.008 106.34,290.509 105.98,291.115 C105.62,291.721 105.44,292.438 105.44,293.266 C105.44,294.094 105.62,294.811 105.98,295.417 C106.34,296.023 106.802,296.524 107.366,296.92 C107.93,297.316 108.554,297.604 109.238,297.784 C109.922,297.964 110.594,298.054 111.254,298.054 Z M111.254,296.452 C110.798,296.452 110.342,296.38 109.886,296.236 C109.43,296.092 109.019,295.885 108.653,295.615 C108.287,295.345 107.99,295.012 107.762,294.616 C107.534,294.22 107.42,293.77 107.42,293.266 C107.42,292.762 107.534,292.312 107.762,291.916 C107.99,291.52 108.287,291.187 108.653,290.917 C109.019,290.647 109.43,290.44 109.886,290.296 C110.342,290.152 110.798,290.08 111.254,290.08 C111.71,290.08 112.166,290.152 112.622,290.296 C113.078,290.44 113.489,290.647 113.855,290.917 C114.221,291.187 114.518,291.52 114.746,291.916 C114.974,292.312 115.088,292.762 115.088,293.266 C115.088,293.77 114.974,294.22 114.746,294.616 C114.518,295.012 114.221,295.345 113.855,295.615 C113.489,295.885 113.078,296.092 112.622,296.236 C112.166,296.38 111.71,296.452 111.254,296.452 Z M124.79,298.054 C125.582,298.054 126.281,298.006 126.887,297.91 C127.493,297.814 128,297.628 128.408,297.352 C128.816,297.076 129.122,296.707 129.326,296.245 C129.53,295.783 129.632,295.198 129.632,294.49 L129.632,294.49 L129.632,289.18 C129.632,288.964 129.776,288.856 130.064,288.856 L130.064,288.856 L130.064,288.532 L127.184,288.532 L127.184,288.856 C127.544,288.856 127.724,288.964 127.724,289.18 L127.724,289.18 L127.724,294.58 C127.724,295.336 127.481,295.855 126.995,296.137 C126.509,296.419 125.798,296.56 124.862,296.56 C123.926,296.56 123.215,296.419 122.729,296.137 C122.243,295.855 122,295.336 122,294.58 L122,294.58 L122,289.18 C122,288.964 122.132,288.856 122.396,288.856 L122.396,288.856 L122.396,288.532 L119.444,288.532 L119.444,288.856 C119.78,288.856 119.948,288.964 119.948,289.18 L119.948,289.18 L119.948,294.49 C119.948,295.198 120.05,295.783 120.254,296.245 C120.458,296.707 120.764,297.076 121.172,297.352 C121.58,297.628 122.087,297.814 122.693,297.91 C123.299,298.006 123.998,298.054 124.79,298.054 Z M132.08,293.41 C132.452,293.326 132.812,293.176 133.16,292.96 C133.508,292.744 133.814,292.486 134.078,292.186 C134.342,291.886 134.555,291.553 134.717,291.187 C134.879,290.821 134.96,290.44 134.96,290.044 C134.96,289.54 134.837,289.114 134.591,288.766 C134.345,288.418 133.982,288.244 133.502,288.244 C133.19,288.244 132.911,288.37 132.665,288.622 C132.419,288.874 132.296,289.174 132.296,289.522 C132.296,289.882 132.407,290.161 132.629,290.359 C132.851,290.557 133.112,290.656 133.412,290.656 C133.508,290.656 133.61,290.662 133.718,290.674 C133.826,290.686 133.892,290.734 133.916,290.818 C133.94,291.034 133.892,291.25 133.772,291.466 C133.652,291.682 133.499,291.883 133.313,292.069 C133.127,292.255 132.92,292.417 132.692,292.555 C132.464,292.693 132.26,292.786 132.08,292.834 L132.08,292.834 L132.08,293.41 Z M140.81,298 L140.81,297.676 C140.606,297.676 140.465,297.649 140.387,297.595 C140.309,297.541 140.27,297.46 140.27,297.352 L140.27,297.352 L140.27,294.148 L142.844,294.148 L144.824,296.956 C144.92,297.088 144.992,297.193 145.04,297.271 C145.088,297.349 145.112,297.418 145.112,297.478 C145.112,297.538 145.073,297.586 144.995,297.622 C144.917,297.658 144.824,297.676 144.716,297.676 L144.716,297.676 L144.716,298 L148.082,298 L148.082,297.676 C147.986,297.676 147.881,297.664 147.767,297.64 C147.653,297.616 147.554,297.544 147.47,297.424 L147.47,297.424 L145.076,294.004 C145.868,293.86 146.498,293.578 146.966,293.158 C147.434,292.738 147.668,292.132 147.668,291.34 C147.668,290.824 147.578,290.389 147.398,290.035 C147.218,289.681 146.96,289.393 146.624,289.171 C146.288,288.949 145.886,288.787 145.418,288.685 C144.95,288.583 144.428,288.532 143.852,288.532 L143.852,288.532 L137.696,288.532 L137.696,288.856 C138.044,288.856 138.218,288.964 138.218,289.18 L138.218,289.18 L138.218,297.352 C138.218,297.568 138.044,297.676 137.696,297.676 L137.696,297.676 L137.696,298 L140.81,298 Z M143.384,292.744 L140.27,292.744 L140.27,290.08 L143.384,290.08 C143.816,290.08 144.176,290.113 144.464,290.179 C144.752,290.245 144.98,290.338 145.148,290.458 C145.316,290.578 145.436,290.719 145.508,290.881 C145.58,291.043 145.616,291.22 145.616,291.412 C145.616,291.604 145.58,291.781 145.508,291.943 C145.436,292.105 145.316,292.246 145.148,292.366 C144.98,292.486 144.752,292.579 144.464,292.645 C144.176,292.711 143.816,292.744 143.384,292.744 L143.384,292.744 Z M160.124,298.342 L160.124,295.876 L159.8,295.876 C159.8,296.02 159.743,296.134 159.629,296.218 C159.515,296.302 159.368,296.344 159.188,296.344 L159.188,296.344 L153.176,296.344 L153.176,293.86 L156.704,293.86 C156.944,293.86 157.13,293.899 157.262,293.977 C157.394,294.055 157.46,294.232 157.46,294.508 L157.46,294.508 L157.784,294.508 L157.784,291.7 L157.46,291.7 C157.46,291.976 157.394,292.147 157.262,292.213 C157.13,292.279 156.944,292.312 156.704,292.312 L156.704,292.312 L153.176,292.312 L153.176,290.08 L159.008,290.08 C159.26,290.08 159.437,290.113 159.539,290.179 C159.641,290.245 159.692,290.344 159.692,290.476 L159.692,290.476 L160.016,290.476 L160.016,288.1 L159.692,288.1 C159.692,288.232 159.641,288.337 159.539,288.415 C159.437,288.493 159.26,288.532 159.008,288.532 L159.008,288.532 L150.8,288.532 L150.8,288.856 C150.884,288.856 150.959,288.883 151.025,288.937 C151.091,288.991 151.124,289.072 151.124,289.18 L151.124,289.18 L151.124,297.352 C151.124,297.46 151.091,297.541 151.025,297.595 C150.959,297.649 150.884,297.676 150.8,297.676 L150.8,297.676 L150.8,298 L159.188,298 C159.368,298 159.515,298.012 159.629,298.036 C159.743,298.06 159.8,298.162 159.8,298.342 L159.8,298.342 L160.124,298.342 Z M171.302,298 L171.302,297.676 C171.098,297.676 170.957,297.649 170.879,297.595 C170.801,297.541 170.762,297.46 170.762,297.352 L170.762,297.352 L170.762,294.148 L173.336,294.148 L175.316,296.956 C175.412,297.088 175.484,297.193 175.532,297.271 C175.58,297.349 175.604,297.418 175.604,297.478 C175.604,297.538 175.565,297.586 175.487,297.622 C175.409,297.658 175.316,297.676 175.208,297.676 L175.208,297.676 L175.208,298 L178.574,298 L178.574,297.676 C178.478,297.676 178.373,297.664 178.259,297.64 C178.145,297.616 178.046,297.544 177.962,297.424 L177.962,297.424 L175.568,294.004 C176.36,293.86 176.99,293.578 177.458,293.158 C177.926,292.738 178.16,292.132 178.16,291.34 C178.16,290.824 178.07,290.389 177.89,290.035 C177.71,289.681 177.452,289.393 177.116,289.171 C176.78,288.949 176.378,288.787 175.91,288.685 C175.442,288.583 174.92,288.532 174.344,288.532 L174.344,288.532 L168.188,288.532 L168.188,288.856 C168.536,288.856 168.71,288.964 168.71,289.18 L168.71,289.18 L168.71,297.352 C168.71,297.568 168.536,297.676 168.188,297.676 L168.188,297.676 L168.188,298 L171.302,298 Z M173.876,292.744 L170.762,292.744 L170.762,290.08 L173.876,290.08 C174.308,290.08 174.668,290.113 174.956,290.179 C175.244,290.245 175.472,290.338 175.64,290.458 C175.808,290.578 175.928,290.719 176,290.881 C176.072,291.043 176.108,291.22 176.108,291.412 C176.108,291.604 176.072,291.781 176,291.943 C175.928,292.105 175.808,292.246 175.64,292.366 C175.472,292.486 175.244,292.579 174.956,292.645 C174.668,292.711 174.308,292.744 173.876,292.744 L173.876,292.744 Z M184.226,298 L184.226,297.676 C183.914,297.676 183.758,297.568 183.758,297.352 L183.758,297.352 L183.758,289.18 C183.758,288.964 183.914,288.856 184.226,288.856 L184.226,288.856 L184.226,288.532 L181.238,288.532 L181.238,288.856 C181.55,288.856 181.706,288.964 181.706,289.18 L181.706,289.18 L181.706,297.352 C181.706,297.568 181.55,297.676 181.238,297.676 L181.238,297.676 L181.238,298 L184.226,298 Z M192.47,298.054 C193.046,298.054 193.598,297.988 194.126,297.856 C194.654,297.724 195.125,297.568 195.539,297.388 C195.953,297.208 196.295,297.046 196.565,296.902 C196.835,296.758 197.006,296.686 197.078,296.686 C197.114,296.686 197.147,296.689 197.177,296.695 C197.207,296.701 197.24,296.704 197.276,296.704 L197.276,296.704 L197.42,296.56 L196.232,294.652 L195.98,294.796 C196.028,294.856 196.052,294.928 196.052,295.012 C196.052,295.168 195.935,295.333 195.701,295.507 C195.467,295.681 195.176,295.837 194.828,295.975 C194.48,296.113 194.096,296.227 193.676,296.317 C193.256,296.407 192.854,296.452 192.47,296.452 C191.966,296.452 191.483,296.38 191.021,296.236 C190.559,296.092 190.157,295.882 189.815,295.606 C189.473,295.33 189.2,294.991 188.996,294.589 C188.792,294.187 188.69,293.728 188.69,293.212 C188.69,292.696 188.792,292.237 188.996,291.835 C189.2,291.433 189.473,291.094 189.815,290.818 C190.157,290.542 190.559,290.332 191.021,290.188 C191.483,290.044 191.966,289.972 192.47,289.972 C192.77,289.972 193.097,290.008 193.451,290.08 C193.805,290.152 194.141,290.242 194.459,290.35 C194.777,290.458 195.044,290.581 195.26,290.719 C195.476,290.857 195.596,290.992 195.62,291.124 C195.632,291.172 195.641,291.214 195.647,291.25 C195.653,291.286 195.656,291.322 195.656,291.358 L195.656,291.358 L195.836,291.484 L197.24,289.306 L196.97,289.09 C196.946,289.126 196.913,289.174 196.871,289.234 C196.829,289.294 196.778,289.324 196.718,289.324 C196.67,289.324 196.538,289.276 196.322,289.18 C196.106,289.084 195.812,288.982 195.44,288.874 C195.068,288.766 194.633,288.664 194.135,288.568 C193.637,288.472 193.082,288.424 192.47,288.424 C191.714,288.424 190.988,288.526 190.292,288.73 C189.596,288.934 188.981,289.24 188.447,289.648 C187.913,290.056 187.49,290.563 187.178,291.169 C186.866,291.775 186.71,292.474 186.71,293.266 C186.71,294.07 186.866,294.772 187.178,295.372 C187.49,295.972 187.913,296.473 188.447,296.875 C188.981,297.277 189.596,297.574 190.292,297.766 C190.988,297.958 191.714,298.054 192.47,298.054 Z M203.162,298 L203.162,297.676 C203.078,297.676 203.003,297.649 202.937,297.595 C202.871,297.541 202.838,297.46 202.838,297.352 L202.838,297.352 L202.838,293.968 L208.634,293.968 L208.634,297.352 C208.634,297.568 208.502,297.676 208.238,297.676 L208.238,297.676 L208.238,298 L211.01,298 L211.01,297.676 C210.926,297.676 210.851,297.649 210.785,297.595 C210.719,297.541 210.686,297.46 210.686,297.352 L210.686,297.352 L210.686,289.18 C210.686,289.072 210.719,288.991 210.785,288.937 C210.851,288.883 210.926,288.856 211.01,288.856 L211.01,288.856 L211.01,288.532 L208.238,288.532 L208.238,288.856 C208.502,288.856 208.634,288.964 208.634,289.18 L208.634,289.18 L208.634,292.24 L202.838,292.24 L202.838,289.18 C202.838,289.072 202.871,288.991 202.937,288.937 C203.003,288.883 203.078,288.856 203.162,288.856 L203.162,288.856 L203.162,288.532 L200.444,288.532 L200.444,288.856 C200.672,288.856 200.786,288.964 200.786,289.18 L200.786,289.18 L200.786,297.352 C200.786,297.568 200.672,297.676 200.444,297.676 L200.444,297.676 L200.444,298 L203.162,298 Z M216.482,294.724 L216.482,294.508 C216.386,294.508 216.308,294.493 216.248,294.463 C216.188,294.433 216.158,294.37 216.158,294.274 C216.158,294.19 216.164,294.109 216.176,294.031 C216.188,293.953 216.2,293.866 216.212,293.77 L216.212,293.77 L216.77,288.964 C216.794,288.82 216.83,288.718 216.878,288.658 C216.926,288.598 217.04,288.544 217.22,288.496 L217.22,288.496 L217.22,288.28 L214.232,288.28 L214.232,288.496 C214.412,288.544 214.526,288.598 214.574,288.658 C214.622,288.718 214.658,288.82 214.682,288.964 L214.682,288.964 L215.24,293.77 C215.252,293.866 215.264,293.953 215.276,294.031 C215.288,294.109 215.294,294.19 215.294,294.274 C215.294,294.37 215.264,294.433 215.204,294.463 C215.144,294.493 215.066,294.508 214.97,294.508 L214.97,294.508 L214.97,294.724 L216.482,294.724 Z M215.726,298.054 C216.038,298.054 216.308,297.949 216.536,297.739 C216.764,297.529 216.878,297.268 216.878,296.956 C216.878,296.644 216.764,296.374 216.536,296.146 C216.308,295.918 216.038,295.804 215.726,295.804 C215.414,295.804 215.144,295.918 214.916,296.146 C214.688,296.374 214.574,296.644 214.574,296.956 C214.574,297.268 214.688,297.529 214.916,297.739 C215.144,297.949 215.414,298.054 215.726,298.054 Z M41.567,316 C42.227,316 42.842,315.904 43.412,315.712 C43.982,315.52 44.477,315.229 44.897,314.839 C45.317,314.449 45.647,313.957 45.887,313.363 C46.127,312.769 46.247,312.07 46.247,311.266 C46.247,310.462 46.127,309.763 45.887,309.169 C45.647,308.575 45.317,308.083 44.897,307.693 C44.477,307.303 43.982,307.012 43.412,306.82 C42.842,306.628 42.227,306.532 41.567,306.532 L41.567,306.532 L35.591,306.532 L35.591,306.856 C35.867,306.856 36.005,306.964 36.005,307.18 L36.005,307.18 L36.005,315.352 C36.005,315.568 35.867,315.676 35.591,315.676 L35.591,315.676 L35.591,316 L41.567,316 Z M40.847,314.452 L38.057,314.452 L38.057,308.08 L40.847,308.08 C41.411,308.08 41.903,308.128 42.323,308.224 C42.743,308.32 43.091,308.491 43.367,308.737 C43.643,308.983 43.85,309.31 43.988,309.718 C44.126,310.126 44.195,310.642 44.195,311.266 C44.195,311.89 44.126,312.406 43.988,312.814 C43.85,313.222 43.643,313.549 43.367,313.795 C43.091,314.041 42.743,314.212 42.323,314.308 C41.903,314.404 41.411,314.452 40.847,314.452 L40.847,314.452 Z M51.053,316 L51.053,315.676 C50.981,315.676 50.906,315.655 50.828,315.613 C50.75,315.571 50.711,315.502 50.711,315.406 L50.711,315.406 L50.711,312.832 L53.213,312.832 L54.635,314.956 C54.815,315.208 54.905,315.394 54.905,315.514 C54.905,315.622 54.827,315.676 54.671,315.676 L54.671,315.676 L54.671,316 L57.425,316 L57.425,315.676 C57.293,315.64 57.17,315.589 57.056,315.523 C56.942,315.457 56.837,315.358 56.741,315.226 L56.741,315.226 L54.977,312.652 C55.229,312.592 55.475,312.505 55.715,312.391 C55.955,312.277 56.174,312.127 56.372,311.941 C56.57,311.755 56.729,311.536 56.849,311.284 C56.969,311.032 57.029,310.744 57.029,310.42 C57.029,309.568 56.729,308.965 56.129,308.611 C55.529,308.257 54.695,308.08 53.627,308.08 L53.627,308.08 L48.659,308.08 L48.659,308.404 C48.875,308.404 48.983,308.494 48.983,308.674 L48.983,308.674 L48.983,315.406 C48.983,315.586 48.875,315.676 48.659,315.676 L48.659,315.676 L48.659,316 L51.053,316 Z M53.591,311.5 L50.747,311.5 L50.747,309.412 L53.591,309.412 C54.203,309.412 54.65,309.499 54.932,309.673 C55.214,309.847 55.355,310.084 55.355,310.384 C55.355,311.128 54.767,311.5 53.591,311.5 L53.591,311.5 Z M60.935,316 L60.935,315.676 C60.827,315.676 60.743,315.664 60.683,315.64 C60.623,315.616 60.593,315.556 60.593,315.46 C60.593,315.4 60.608,315.331 60.638,315.253 C60.668,315.175 60.707,315.088 60.755,314.992 L60.755,314.992 L61.259,314.02 L65.111,314.02 L65.597,315.046 C65.633,315.142 65.663,315.22 65.687,315.28 C65.711,315.34 65.723,315.406 65.723,315.478 C65.723,315.574 65.69,315.64 65.624,315.676 C65.558,315.712 65.495,315.73 65.435,315.73 L65.435,315.73 L65.435,316 L67.991,316 L67.991,315.676 C67.907,315.652 67.829,315.616 67.757,315.568 C67.685,315.52 67.619,315.442 67.559,315.334 L67.559,315.334 L64.643,309.214 C64.583,309.082 64.526,308.965 64.472,308.863 C64.418,308.761 64.391,308.674 64.391,308.602 C64.391,308.518 64.412,308.47 64.454,308.458 C64.496,308.446 64.535,308.428 64.571,308.404 L64.571,308.404 L64.571,308.08 L61.853,308.08 L61.853,308.404 C61.889,308.428 61.922,308.449 61.952,308.467 C61.982,308.485 61.997,308.53 61.997,308.602 C61.997,308.698 61.976,308.797 61.934,308.899 C61.892,309.001 61.835,309.136 61.763,309.304 L61.763,309.304 L59.081,315.154 C59.033,315.25 58.964,315.355 58.874,315.469 C58.784,315.583 58.667,315.652 58.523,315.676 L58.523,315.676 L58.523,316 L60.935,316 Z M64.535,312.688 L61.799,312.688 L63.077,309.664 L64.535,312.688 Z M73.499,316 L73.499,315.676 C73.391,315.676 73.319,315.658 73.283,315.622 C73.247,315.586 73.229,315.52 73.229,315.424 C73.229,315.388 73.274,315.253 73.364,315.019 C73.454,314.785 73.568,314.497 73.706,314.155 C73.844,313.813 73.994,313.441 74.156,313.039 C74.318,312.637 74.471,312.253 74.615,311.887 C74.759,311.521 74.885,311.197 74.993,310.915 C75.101,310.633 75.167,310.438 75.191,310.33 L75.191,310.33 L75.227,310.33 C75.419,310.93 75.617,311.524 75.821,312.112 C76.025,312.7 76.214,313.231 76.388,313.705 C76.562,314.179 76.703,314.572 76.811,314.884 C76.919,315.196 76.973,315.376 76.973,315.424 C76.973,315.52 76.961,315.583 76.937,315.613 C76.913,315.643 76.853,315.664 76.757,315.676 L76.757,315.676 L76.757,316 L79.277,316 L79.277,315.676 C79.109,315.676 79.025,315.598 79.025,315.442 C79.025,315.382 79.061,315.271 79.133,315.109 C79.205,314.947 79.277,314.764 79.349,314.56 L79.349,314.56 L81.419,309.07 C81.575,308.626 81.755,308.404 81.959,308.404 L81.959,308.404 L81.959,308.08 L79.673,308.08 L79.673,308.404 C79.865,308.404 79.961,308.488 79.961,308.656 C79.961,308.74 79.94,308.845 79.898,308.971 C79.856,309.097 79.805,309.244 79.745,309.412 L79.745,309.412 L78.071,313.786 L76.487,309.448 C76.427,309.304 76.367,309.151 76.307,308.989 C76.247,308.827 76.217,308.704 76.217,308.62 C76.217,308.476 76.325,308.404 76.541,308.404 L76.541,308.404 L76.541,308.08 L73.967,308.08 L73.967,308.404 C74.159,308.404 74.255,308.488 74.255,308.656 C74.255,308.752 74.228,308.875 74.174,309.025 C74.12,309.175 74.063,309.334 74.003,309.502 L74.003,309.502 L72.473,313.786 L72.437,313.786 L70.853,309.412 C70.781,309.22 70.721,309.061 70.673,308.935 C70.625,308.809 70.601,308.716 70.601,308.656 C70.601,308.488 70.679,308.404 70.835,308.404 L70.835,308.404 L70.835,308.08 L68.549,308.08 L68.549,308.404 C68.729,308.44 68.855,308.554 68.927,308.746 L68.927,308.746 L71.303,314.992 C71.327,315.052 71.36,315.139 71.402,315.253 C71.444,315.367 71.465,315.46 71.465,315.532 C71.465,315.604 71.447,315.646 71.411,315.658 C71.375,315.67 71.333,315.676 71.285,315.676 L71.285,315.676 L71.285,316 L73.499,316 Z M91.625,316 L91.625,315.676 C91.517,315.676 91.421,315.655 91.337,315.613 C91.253,315.571 91.211,315.502 91.211,315.406 L91.211,315.406 L91.211,312.652 L94.379,312.652 C94.583,312.652 94.709,312.676 94.757,312.724 C94.805,312.772 94.835,312.844 94.847,312.94 L94.847,312.94 L95.171,312.94 L95.171,311.05 L94.847,311.05 C94.835,311.146 94.805,311.215 94.757,311.257 C94.709,311.299 94.583,311.32 94.379,311.32 L94.379,311.32 L91.211,311.32 L91.211,309.412 L96.089,309.412 C96.293,309.412 96.437,309.439 96.521,309.493 C96.605,309.547 96.647,309.604 96.647,309.664 L96.647,309.664 L96.971,309.664 L96.971,307.756 L96.647,307.756 C96.647,307.852 96.605,307.93 96.521,307.99 C96.437,308.05 96.293,308.08 96.089,308.08 L96.089,308.08 L89.105,308.08 L89.105,308.404 C89.357,308.404 89.483,308.494 89.483,308.674 L89.483,308.674 L89.483,315.406 C89.483,315.586 89.369,315.676 89.141,315.676 L89.141,315.676 L89.141,316 L91.625,316 Z M103.253,316.054 C103.913,316.054 104.534,315.979 105.116,315.829 C105.698,315.679 106.205,315.436 106.637,315.1 C107.069,314.764 107.411,314.341 107.663,313.831 C107.915,313.321 108.041,312.724 108.041,312.04 C108.041,311.356 107.915,310.759 107.663,310.249 C107.411,309.739 107.069,309.316 106.637,308.98 C106.205,308.644 105.698,308.392 105.116,308.224 C104.534,308.056 103.913,307.972 103.253,307.972 C102.593,307.972 101.972,308.056 101.39,308.224 C100.808,308.392 100.301,308.644 99.869,308.98 C99.437,309.316 99.095,309.739 98.843,310.249 C98.591,310.759 98.465,311.356 98.465,312.04 C98.465,312.724 98.591,313.321 98.843,313.831 C99.095,314.341 99.437,314.764 99.869,315.1 C100.301,315.436 100.808,315.679 101.39,315.829 C101.972,315.979 102.593,316.054 103.253,316.054 Z M103.253,314.776 C102.869,314.776 102.494,314.713 102.128,314.587 C101.762,314.461 101.435,314.281 101.147,314.047 C100.859,313.813 100.628,313.528 100.454,313.192 C100.28,312.856 100.193,312.472 100.193,312.04 C100.193,311.608 100.28,311.224 100.454,310.888 C100.628,310.552 100.859,310.267 101.147,310.033 C101.435,309.799 101.762,309.619 102.128,309.493 C102.494,309.367 102.869,309.304 103.253,309.304 C103.637,309.304 104.012,309.367 104.378,309.493 C104.744,309.619 105.071,309.799 105.359,310.033 C105.647,310.267 105.878,310.552 106.052,310.888 C106.226,311.224 106.313,311.608 106.313,312.04 C106.313,312.472 106.226,312.856 106.052,313.192 C105.878,313.528 105.647,313.813 105.359,314.047 C105.071,314.281 104.744,314.461 104.378,314.587 C104.012,314.713 103.637,314.776 103.253,314.776 Z M114.827,316.054 C115.547,316.054 116.174,315.979 116.708,315.829 C117.242,315.679 117.68,315.472 118.022,315.208 C118.364,314.944 118.619,314.641 118.787,314.299 C118.955,313.957 119.039,313.6 119.039,313.228 L119.039,313.228 L119.039,308.674 C119.039,308.494 119.171,308.404 119.435,308.404 L119.435,308.404 L119.435,308.08 L116.933,308.08 L116.933,308.404 C117.233,308.404 117.383,308.494 117.383,308.674 L117.383,308.674 L117.383,312.796 C117.383,313.372 117.173,313.834 116.753,314.182 C116.333,314.53 115.691,314.704 114.827,314.704 C113.963,314.704 113.321,314.53 112.901,314.182 C112.481,313.834 112.271,313.372 112.271,312.796 L112.271,312.796 L112.271,308.674 C112.271,308.494 112.403,308.404 112.667,308.404 L112.667,308.404 L112.667,308.08 L110.093,308.08 L110.093,308.404 C110.297,308.404 110.435,308.425 110.507,308.467 C110.579,308.509 110.615,308.578 110.615,308.674 L110.615,308.674 L110.615,313.228 C110.615,313.6 110.699,313.957 110.867,314.299 C111.035,314.641 111.29,314.944 111.632,315.208 C111.974,315.472 112.412,315.679 112.946,315.829 C113.48,315.979 114.107,316.054 114.827,316.054 Z M124.565,316 L124.565,315.676 C124.493,315.676 124.418,315.655 124.34,315.613 C124.262,315.571 124.223,315.502 124.223,315.406 L124.223,315.406 L124.223,312.832 L126.725,312.832 L128.147,314.956 C128.327,315.208 128.417,315.394 128.417,315.514 C128.417,315.622 128.339,315.676 128.183,315.676 L128.183,315.676 L128.183,316 L130.937,316 L130.937,315.676 C130.805,315.64 130.682,315.589 130.568,315.523 C130.454,315.457 130.349,315.358 130.253,315.226 L130.253,315.226 L128.489,312.652 C128.741,312.592 128.987,312.505 129.227,312.391 C129.467,312.277 129.686,312.127 129.884,311.941 C130.082,311.755 130.241,311.536 130.361,311.284 C130.481,311.032 130.541,310.744 130.541,310.42 C130.541,309.568 130.241,308.965 129.641,308.611 C129.041,308.257 128.207,308.08 127.139,308.08 L127.139,308.08 L122.171,308.08 L122.171,308.404 C122.387,308.404 122.495,308.494 122.495,308.674 L122.495,308.674 L122.495,315.406 C122.495,315.586 122.387,315.676 122.171,315.676 L122.171,315.676 L122.171,316 L124.565,316 Z M127.103,311.5 L124.259,311.5 L124.259,309.412 L127.103,309.412 C127.715,309.412 128.162,309.499 128.444,309.673 C128.726,309.847 128.867,310.084 128.867,310.384 C128.867,311.128 128.279,311.5 127.103,311.5 L127.103,311.5 Z M145.355,316 C145.919,316 146.423,315.937 146.867,315.811 C147.311,315.685 147.686,315.508 147.992,315.28 C148.298,315.052 148.529,314.785 148.685,314.479 C148.841,314.173 148.919,313.84 148.919,313.48 C148.919,312.796 148.724,312.271 148.334,311.905 C147.944,311.539 147.467,311.272 146.903,311.104 L146.903,311.104 L146.903,311.068 C147.383,310.9 147.797,310.663 148.145,310.357 C148.493,310.051 148.667,309.616 148.667,309.052 C148.667,308.584 148.547,308.191 148.307,307.873 C148.067,307.555 147.749,307.297 147.353,307.099 C146.957,306.901 146.501,306.757 145.985,306.667 C145.469,306.577 144.935,306.532 144.383,306.532 L144.383,306.532 L138.749,306.532 L138.749,306.856 C139.085,306.856 139.253,306.964 139.253,307.18 L139.253,307.18 L139.253,315.352 C139.253,315.568 139.085,315.676 138.749,315.676 L138.749,315.676 L138.749,316 L145.355,316 Z M144.743,310.24 L141.305,310.24 L141.305,308.08 L144.743,308.08 C145.283,308.08 145.73,308.149 146.084,308.287 C146.438,308.425 146.615,308.716 146.615,309.16 C146.615,309.604 146.438,309.895 146.084,310.033 C145.73,310.171 145.283,310.24 144.743,310.24 L144.743,310.24 Z M144.743,314.344 L141.305,314.344 L141.305,311.788 L144.743,311.788 C145.499,311.788 146.042,311.905 146.372,312.139 C146.702,312.373 146.867,312.682 146.867,313.066 C146.867,313.45 146.702,313.759 146.372,313.993 C146.042,314.227 145.499,314.344 144.743,314.344 L144.743,314.344 Z M156.317,316.054 C157.037,316.054 157.664,315.979 158.198,315.829 C158.732,315.679 159.17,315.472 159.512,315.208 C159.854,314.944 160.109,314.641 160.277,314.299 C160.445,313.957 160.529,313.6 160.529,313.228 L160.529,313.228 L160.529,308.674 C160.529,308.494 160.661,308.404 160.925,308.404 L160.925,308.404 L160.925,308.08 L158.423,308.08 L158.423,308.404 C158.723,308.404 158.873,308.494 158.873,308.674 L158.873,308.674 L158.873,312.796 C158.873,313.372 158.663,313.834 158.243,314.182 C157.823,314.53 157.181,314.704 156.317,314.704 C155.453,314.704 154.811,314.53 154.391,314.182 C153.971,313.834 153.761,313.372 153.761,312.796 L153.761,312.796 L153.761,308.674 C153.761,308.494 153.893,308.404 154.157,308.404 L154.157,308.404 L154.157,308.08 L151.583,308.08 L151.583,308.404 C151.787,308.404 151.925,308.425 151.997,308.467 C152.069,308.509 152.105,308.578 152.105,308.674 L152.105,308.674 L152.105,313.228 C152.105,313.6 152.189,313.957 152.357,314.299 C152.525,314.641 152.78,314.944 153.122,315.208 C153.464,315.472 153.902,315.679 154.436,315.829 C154.97,315.979 155.597,316.054 156.317,316.054 Z M167.945,316 L167.945,315.676 C167.729,315.676 167.621,315.586 167.621,315.406 L167.621,315.406 L167.621,309.412 L169.961,309.412 C170.057,309.412 170.147,309.436 170.231,309.484 C170.315,309.532 170.357,309.61 170.357,309.718 L170.357,309.718 L170.681,309.718 L170.681,307.648 L170.357,307.648 C170.357,307.816 170.315,307.93 170.231,307.99 C170.147,308.05 170.057,308.08 169.961,308.08 L169.961,308.08 L163.553,308.08 C163.457,308.08 163.367,308.05 163.283,307.99 C163.199,307.93 163.157,307.816 163.157,307.648 L163.157,307.648 L162.833,307.648 L162.833,309.718 L163.157,309.718 C163.157,309.61 163.199,309.532 163.283,309.484 C163.367,309.436 163.457,309.412 163.553,309.412 L163.553,309.412 L165.893,309.412 L165.893,315.406 C165.893,315.502 165.863,315.571 165.803,315.613 C165.743,315.655 165.683,315.676 165.623,315.676 L165.623,315.676 L165.623,316 L167.945,316 Z M176.945,316 L176.945,315.676 C176.729,315.676 176.621,315.586 176.621,315.406 L176.621,315.406 L176.621,309.412 L178.961,309.412 C179.057,309.412 179.147,309.436 179.231,309.484 C179.315,309.532 179.357,309.61 179.357,309.718 L179.357,309.718 L179.681,309.718 L179.681,307.648 L179.357,307.648 C179.357,307.816 179.315,307.93 179.231,307.99 C179.147,308.05 179.057,308.08 178.961,308.08 L178.961,308.08 L172.553,308.08 C172.457,308.08 172.367,308.05 172.283,307.99 C172.199,307.93 172.157,307.816 172.157,307.648 L172.157,307.648 L171.833,307.648 L171.833,309.718 L172.157,309.718 C172.157,309.61 172.199,309.532 172.283,309.484 C172.367,309.436 172.457,309.412 172.553,309.412 L172.553,309.412 L174.893,309.412 L174.893,315.406 C174.893,315.502 174.863,315.571 174.803,315.613 C174.743,315.655 174.683,315.676 174.623,315.676 L174.623,315.676 L174.623,316 L176.945,316 Z M192.479,316.054 C193.055,316.054 193.607,315.988 194.135,315.856 C194.663,315.724 195.134,315.568 195.548,315.388 C195.962,315.208 196.304,315.046 196.574,314.902 C196.844,314.758 197.015,314.686 197.087,314.686 C197.123,314.686 197.156,314.689 197.186,314.695 C197.216,314.701 197.249,314.704 197.285,314.704 L197.285,314.704 L197.429,314.56 L196.241,312.652 L195.989,312.796 C196.037,312.856 196.061,312.928 196.061,313.012 C196.061,313.168 195.944,313.333 195.71,313.507 C195.476,313.681 195.185,313.837 194.837,313.975 C194.489,314.113 194.105,314.227 193.685,314.317 C193.265,314.407 192.863,314.452 192.479,314.452 C191.975,314.452 191.492,314.38 191.03,314.236 C190.568,314.092 190.166,313.882 189.824,313.606 C189.482,313.33 189.209,312.991 189.005,312.589 C188.801,312.187 188.699,311.728 188.699,311.212 C188.699,310.696 188.801,310.237 189.005,309.835 C189.209,309.433 189.482,309.094 189.824,308.818 C190.166,308.542 190.568,308.332 191.03,308.188 C191.492,308.044 191.975,307.972 192.479,307.972 C192.779,307.972 193.106,308.008 193.46,308.08 C193.814,308.152 194.15,308.242 194.468,308.35 C194.786,308.458 195.053,308.581 195.269,308.719 C195.485,308.857 195.605,308.992 195.629,309.124 C195.641,309.172 195.65,309.214 195.656,309.25 C195.662,309.286 195.665,309.322 195.665,309.358 L195.665,309.358 L195.845,309.484 L197.249,307.306 L196.979,307.09 C196.955,307.126 196.922,307.174 196.88,307.234 C196.838,307.294 196.787,307.324 196.727,307.324 C196.679,307.324 196.547,307.276 196.331,307.18 C196.115,307.084 195.821,306.982 195.449,306.874 C195.077,306.766 194.642,306.664 194.144,306.568 C193.646,306.472 193.091,306.424 192.479,306.424 C191.723,306.424 190.997,306.526 190.301,306.73 C189.605,306.934 188.99,307.24 188.456,307.648 C187.922,308.056 187.499,308.563 187.187,309.169 C186.875,309.775 186.719,310.474 186.719,311.266 C186.719,312.07 186.875,312.772 187.187,313.372 C187.499,313.972 187.922,314.473 188.456,314.875 C188.99,315.277 189.605,315.574 190.301,315.766 C190.997,315.958 191.723,316.054 192.479,316.054 Z M204.233,316.054 C204.893,316.054 205.514,315.979 206.096,315.829 C206.678,315.679 207.185,315.436 207.617,315.1 C208.049,314.764 208.391,314.341 208.643,313.831 C208.895,313.321 209.021,312.724 209.021,312.04 C209.021,311.356 208.895,310.759 208.643,310.249 C208.391,309.739 208.049,309.316 207.617,308.98 C207.185,308.644 206.678,308.392 206.096,308.224 C205.514,308.056 204.893,307.972 204.233,307.972 C203.573,307.972 202.952,308.056 202.37,308.224 C201.788,308.392 201.281,308.644 200.849,308.98 C200.417,309.316 200.075,309.739 199.823,310.249 C199.571,310.759 199.445,311.356 199.445,312.04 C199.445,312.724 199.571,313.321 199.823,313.831 C200.075,314.341 200.417,314.764 200.849,315.1 C201.281,315.436 201.788,315.679 202.37,315.829 C202.952,315.979 203.573,316.054 204.233,316.054 Z M204.233,314.776 C203.849,314.776 203.474,314.713 203.108,314.587 C202.742,314.461 202.415,314.281 202.127,314.047 C201.839,313.813 201.608,313.528 201.434,313.192 C201.26,312.856 201.173,312.472 201.173,312.04 C201.173,311.608 201.26,311.224 201.434,310.888 C201.608,310.552 201.839,310.267 202.127,310.033 C202.415,309.799 202.742,309.619 203.108,309.493 C203.474,309.367 203.849,309.304 204.233,309.304 C204.617,309.304 204.992,309.367 205.358,309.493 C205.724,309.619 206.051,309.799 206.339,310.033 C206.627,310.267 206.858,310.552 207.032,310.888 C207.206,311.224 207.293,311.608 207.293,312.04 C207.293,312.472 207.206,312.856 207.032,313.192 C206.858,313.528 206.627,313.813 206.339,314.047 C206.051,314.281 205.724,314.461 205.358,314.587 C204.992,314.713 204.617,314.776 204.233,314.776 Z M214.097,316 L214.097,315.676 C213.761,315.676 213.593,315.586 213.593,315.406 L213.593,315.406 L213.593,308.674 C213.593,308.494 213.761,308.404 214.097,308.404 L214.097,308.404 L214.097,308.08 L211.361,308.08 L211.361,308.404 C211.553,308.404 211.685,308.425 211.757,308.467 C211.829,308.509 211.865,308.578 211.865,308.674 L211.865,308.674 L211.865,315.406 C211.865,315.502 211.829,315.571 211.757,315.613 C211.685,315.655 211.553,315.676 211.361,315.676 L211.361,315.676 L211.361,316 L214.097,316 Z M219.407,316 L219.407,315.676 C219.155,315.676 219.029,315.586 219.029,315.406 L219.029,315.406 L219.029,310.168 L223.493,314.92 C223.637,315.076 223.766,315.214 223.88,315.334 C223.994,315.454 224.051,315.538 224.051,315.586 C224.051,315.646 224.009,315.676 223.925,315.676 L223.925,315.676 L223.925,316 L226.265,316 L226.265,315.676 C226.049,315.676 225.941,315.586 225.941,315.406 L225.941,315.406 L225.941,308.674 C225.941,308.494 226.049,308.404 226.265,308.404 L226.265,308.404 L226.265,308.08 L224.069,308.08 L224.069,308.404 C224.309,308.404 224.429,308.494 224.429,308.674 L224.429,308.674 L224.429,313.552 L220.109,308.98 C219.845,308.716 219.713,308.554 219.713,308.494 C219.713,308.446 219.755,308.416 219.839,308.404 L219.839,308.404 L219.839,308.08 L217.193,308.08 L217.193,308.404 C217.409,308.404 217.517,308.494 217.517,308.674 L217.517,308.674 L217.517,315.406 C217.517,315.586 217.409,315.676 217.193,315.676 L217.193,315.676 L217.193,316 L219.407,316 Z M63.284,334 C63.812,334 64.265,333.943 64.643,333.829 C65.021,333.715 65.327,333.562 65.561,333.37 C65.795,333.178 65.966,332.956 66.074,332.704 C66.182,332.452 66.236,332.182 66.236,331.894 C66.236,331.642 66.194,331.408 66.11,331.192 C66.026,330.976 65.918,330.784 65.786,330.616 C65.654,330.448 65.504,330.304 65.336,330.184 C65.168,330.064 65,329.968 64.832,329.896 L64.832,329.896 L64.832,329.878 C64.976,329.806 65.117,329.71 65.255,329.59 C65.393,329.47 65.519,329.335 65.633,329.185 C65.747,329.035 65.84,328.867 65.912,328.681 C65.984,328.495 66.02,328.294 66.02,328.078 C66.02,327.814 65.966,327.562 65.858,327.322 C65.75,327.082 65.585,326.869 65.363,326.683 C65.141,326.497 64.865,326.35 64.535,326.242 C64.205,326.134 63.812,326.08 63.356,326.08 L63.356,326.08 L57.758,326.08 L57.758,326.404 C57.854,326.404 57.947,326.425 58.037,326.467 C58.127,326.509 58.172,326.578 58.172,326.674 L58.172,326.674 L58.172,333.406 C58.172,333.502 58.127,333.571 58.037,333.613 C57.947,333.655 57.854,333.676 57.758,333.676 L57.758,333.676 L57.758,334 L63.284,334 Z M63.104,329.212 L59.9,329.212 L59.9,327.412 L63.104,327.412 C63.248,327.412 63.392,327.421 63.536,327.439 C63.68,327.457 63.806,327.499 63.914,327.565 C64.022,327.631 64.112,327.721 64.184,327.835 C64.256,327.949 64.292,328.102 64.292,328.294 C64.292,328.666 64.166,328.912 63.914,329.032 C63.662,329.152 63.392,329.212 63.104,329.212 L63.104,329.212 Z M63.068,332.668 L59.9,332.668 L59.9,330.544 L62.78,330.544 C63.404,330.544 63.848,330.634 64.112,330.814 C64.376,330.994 64.508,331.27 64.508,331.642 C64.508,331.966 64.406,332.218 64.202,332.398 C63.998,332.578 63.62,332.668 63.068,332.668 L63.068,332.668 Z M73.562,334.054 C74.282,334.054 74.909,333.979 75.443,333.829 C75.977,333.679 76.415,333.472 76.757,333.208 C77.099,332.944 77.354,332.641 77.522,332.299 C77.69,331.957 77.774,331.6 77.774,331.228 L77.774,331.228 L77.774,326.674 C77.774,326.494 77.906,326.404 78.17,326.404 L78.17,326.404 L78.17,326.08 L75.668,326.08 L75.668,326.404 C75.968,326.404 76.118,326.494 76.118,326.674 L76.118,326.674 L76.118,330.796 C76.118,331.372 75.908,331.834 75.488,332.182 C75.068,332.53 74.426,332.704 73.562,332.704 C72.698,332.704 72.056,332.53 71.636,332.182 C71.216,331.834 71.006,331.372 71.006,330.796 L71.006,330.796 L71.006,326.674 C71.006,326.494 71.138,326.404 71.402,326.404 L71.402,326.404 L71.402,326.08 L68.828,326.08 L68.828,326.404 C69.032,326.404 69.17,326.425 69.242,326.467 C69.314,326.509 69.35,326.578 69.35,326.674 L69.35,326.674 L69.35,331.228 C69.35,331.6 69.434,331.957 69.602,332.299 C69.77,332.641 70.025,332.944 70.367,333.208 C70.709,333.472 71.147,333.679 71.681,333.829 C72.215,333.979 72.842,334.054 73.562,334.054 Z M85.19,334 L85.19,333.676 C84.974,333.676 84.866,333.586 84.866,333.406 L84.866,333.406 L84.866,327.412 L87.206,327.412 C87.302,327.412 87.392,327.436 87.476,327.484 C87.56,327.532 87.602,327.61 87.602,327.718 L87.602,327.718 L87.926,327.718 L87.926,325.648 L87.602,325.648 C87.602,325.816 87.56,325.93 87.476,325.99 C87.392,326.05 87.302,326.08 87.206,326.08 L87.206,326.08 L80.798,326.08 C80.702,326.08 80.612,326.05 80.528,325.99 C80.444,325.93 80.402,325.816 80.402,325.648 L80.402,325.648 L80.078,325.648 L80.078,327.718 L80.402,327.718 C80.402,327.61 80.444,327.532 80.528,327.484 C80.612,327.436 80.702,327.412 80.798,327.412 L80.798,327.412 L83.138,327.412 L83.138,333.406 C83.138,333.502 83.108,333.571 83.048,333.613 C82.988,333.655 82.928,333.676 82.868,333.676 L82.868,333.676 L82.868,334 L85.19,334 Z M103.244,334.18 L103.244,332.29 L102.92,332.29 C102.92,332.41 102.872,332.503 102.776,332.569 C102.68,332.635 102.56,332.668 102.416,332.668 L102.416,332.668 L97.556,332.668 L97.556,326.674 C97.556,326.494 97.694,326.404 97.97,326.404 L97.97,326.404 L97.97,326.08 L95.36,326.08 L95.36,326.404 C95.672,326.404 95.828,326.494 95.828,326.674 L95.828,326.674 L95.828,333.406 C95.828,333.586 95.672,333.676 95.36,333.676 L95.36,333.676 L95.36,334 L102.416,334 C102.56,334 102.68,334.006 102.776,334.018 C102.872,334.03 102.92,334.084 102.92,334.18 L102.92,334.18 L103.244,334.18 Z M109.49,334.054 C110.15,334.054 110.771,333.979 111.353,333.829 C111.935,333.679 112.442,333.436 112.874,333.1 C113.306,332.764 113.648,332.341 113.9,331.831 C114.152,331.321 114.278,330.724 114.278,330.04 C114.278,329.356 114.152,328.759 113.9,328.249 C113.648,327.739 113.306,327.316 112.874,326.98 C112.442,326.644 111.935,326.392 111.353,326.224 C110.771,326.056 110.15,325.972 109.49,325.972 C108.83,325.972 108.209,326.056 107.627,326.224 C107.045,326.392 106.538,326.644 106.106,326.98 C105.674,327.316 105.332,327.739 105.08,328.249 C104.828,328.759 104.702,329.356 104.702,330.04 C104.702,330.724 104.828,331.321 105.08,331.831 C105.332,332.341 105.674,332.764 106.106,333.1 C106.538,333.436 107.045,333.679 107.627,333.829 C108.209,333.979 108.83,334.054 109.49,334.054 Z M109.49,332.776 C109.106,332.776 108.731,332.713 108.365,332.587 C107.999,332.461 107.672,332.281 107.384,332.047 C107.096,331.813 106.865,331.528 106.691,331.192 C106.517,330.856 106.43,330.472 106.43,330.04 C106.43,329.608 106.517,329.224 106.691,328.888 C106.865,328.552 107.096,328.267 107.384,328.033 C107.672,327.799 107.999,327.619 108.365,327.493 C108.731,327.367 109.106,327.304 109.49,327.304 C109.874,327.304 110.249,327.367 110.615,327.493 C110.981,327.619 111.308,327.799 111.596,328.033 C111.884,328.267 112.115,328.552 112.289,328.888 C112.463,329.224 112.55,329.608 112.55,330.04 C112.55,330.472 112.463,330.856 112.289,331.192 C112.115,331.528 111.884,331.813 111.596,332.047 C111.308,332.281 110.981,332.461 110.615,332.587 C110.249,332.713 109.874,332.776 109.49,332.776 Z M119.858,334.054 C120.266,334.054 120.701,334.024 121.163,333.964 C121.625,333.904 122.048,333.778 122.432,333.586 C122.816,333.394 123.137,333.13 123.395,332.794 C123.653,332.458 123.782,332.026 123.782,331.498 C123.782,330.97 123.635,330.556 123.341,330.256 C123.047,329.956 122.678,329.728 122.234,329.572 C121.79,329.416 121.31,329.305 120.794,329.239 C120.278,329.173 119.798,329.107 119.354,329.041 C118.91,328.975 118.541,328.885 118.247,328.771 C117.953,328.657 117.806,328.468 117.806,328.204 C117.806,328.036 117.854,327.895 117.95,327.781 C118.046,327.667 118.178,327.574 118.346,327.502 C118.514,327.43 118.706,327.379 118.922,327.349 C119.138,327.319 119.366,327.304 119.606,327.304 C120.23,327.304 120.794,327.376 121.298,327.52 C121.802,327.664 122.174,327.838 122.414,328.042 C122.51,328.114 122.564,328.186 122.576,328.258 L122.576,328.258 L122.612,328.474 L122.936,328.582 L123.836,326.89 L123.638,326.692 C123.566,326.728 123.506,326.761 123.458,326.791 C123.41,326.821 123.338,326.836 123.242,326.836 C123.158,326.836 123.029,326.791 122.855,326.701 C122.681,326.611 122.456,326.512 122.18,326.404 C121.904,326.296 121.565,326.197 121.163,326.107 C120.761,326.017 120.278,325.972 119.714,325.972 C118.562,325.972 117.668,326.2 117.032,326.656 C116.396,327.112 116.078,327.724 116.078,328.492 C116.078,329.008 116.225,329.407 116.519,329.689 C116.813,329.971 117.182,330.187 117.626,330.337 C118.07,330.487 118.55,330.595 119.066,330.661 C119.582,330.727 120.062,330.793 120.506,330.859 C120.95,330.925 121.319,331.018 121.613,331.138 C121.907,331.258 122.054,331.45 122.054,331.714 C122.054,331.942 121.97,332.125 121.802,332.263 C121.634,332.401 121.43,332.509 121.19,332.587 C120.95,332.665 120.707,332.716 120.461,332.74 C120.215,332.764 120.008,332.776 119.84,332.776 C119.66,332.776 119.411,332.746 119.093,332.686 C118.775,332.626 118.457,332.545 118.139,332.443 C117.821,332.341 117.548,332.215 117.32,332.065 C117.092,331.915 116.978,331.75 116.978,331.57 C116.978,331.51 116.981,331.453 116.987,331.399 C116.993,331.345 116.996,331.294 116.996,331.246 L116.996,331.246 L116.654,331.156 L115.826,333.172 L116.078,333.352 C116.138,333.28 116.21,333.244 116.294,333.244 C116.342,333.244 116.48,333.289 116.708,333.379 C116.936,333.469 117.215,333.565 117.545,333.667 C117.875,333.769 118.241,333.859 118.643,333.937 C119.045,334.015 119.45,334.054 119.858,334.054 Z M133.916,334.198 L133.916,332.308 L133.592,332.308 C133.592,332.416 133.544,332.503 133.448,332.569 C133.352,332.635 133.232,332.668 133.088,332.668 L133.088,332.668 L128.48,332.668 L128.48,330.544 L131.108,330.544 C131.348,330.544 131.534,330.559 131.666,330.589 C131.798,330.619 131.846,330.7 131.81,330.832 L131.81,330.832 L132.17,330.832 L132.17,328.924 L131.846,328.924 C131.846,329.056 131.798,329.137 131.702,329.167 C131.606,329.197 131.456,329.212 131.252,329.212 L131.252,329.212 L128.48,329.212 L128.48,327.412 L132.872,327.412 C133.244,327.412 133.43,327.526 133.43,327.754 L133.43,327.754 L133.754,327.754 L133.754,325.756 L133.43,325.756 C133.43,325.972 133.244,326.08 132.872,326.08 L132.872,326.08 L126.482,326.08 L126.482,326.404 C126.542,326.404 126.602,326.425 126.662,326.467 C126.722,326.509 126.752,326.578 126.752,326.674 L126.752,326.674 L126.752,333.406 C126.752,333.502 126.722,333.571 126.662,333.613 C126.602,333.655 126.542,333.676 126.482,333.676 L126.482,333.676 L126.482,334 L133.088,334 C133.232,334 133.352,334.006 133.448,334.018 C133.544,334.03 133.592,334.09 133.592,334.198 L133.592,334.198 L133.916,334.198 Z M143.186,334 L143.186,333.676 C143.078,333.676 142.994,333.664 142.934,333.64 C142.874,333.616 142.844,333.556 142.844,333.46 C142.844,333.4 142.859,333.331 142.889,333.253 C142.919,333.175 142.958,333.088 143.006,332.992 L143.006,332.992 L143.51,332.02 L147.362,332.02 L147.848,333.046 C147.884,333.142 147.914,333.22 147.938,333.28 C147.962,333.34 147.974,333.406 147.974,333.478 C147.974,333.574 147.941,333.64 147.875,333.676 C147.809,333.712 147.746,333.73 147.686,333.73 L147.686,333.73 L147.686,334 L150.242,334 L150.242,333.676 C150.158,333.652 150.08,333.616 150.008,333.568 C149.936,333.52 149.87,333.442 149.81,333.334 L149.81,333.334 L146.894,327.214 C146.834,327.082 146.777,326.965 146.723,326.863 C146.669,326.761 146.642,326.674 146.642,326.602 C146.642,326.518 146.663,326.47 146.705,326.458 C146.747,326.446 146.786,326.428 146.822,326.404 L146.822,326.404 L146.822,326.08 L144.104,326.08 L144.104,326.404 C144.14,326.428 144.173,326.449 144.203,326.467 C144.233,326.485 144.248,326.53 144.248,326.602 C144.248,326.698 144.227,326.797 144.185,326.899 C144.143,327.001 144.086,327.136 144.014,327.304 L144.014,327.304 L141.332,333.154 C141.284,333.25 141.215,333.355 141.125,333.469 C141.035,333.583 140.918,333.652 140.774,333.676 L140.774,333.676 L140.774,334 L143.186,334 Z M146.786,330.688 L144.05,330.688 L145.328,327.664 L146.786,330.688 Z M161.69,334 L161.69,333.676 C161.474,333.676 161.366,333.586 161.366,333.406 L161.366,333.406 L161.366,327.412 L163.706,327.412 C163.802,327.412 163.892,327.436 163.976,327.484 C164.06,327.532 164.102,327.61 164.102,327.718 L164.102,327.718 L164.426,327.718 L164.426,325.648 L164.102,325.648 C164.102,325.816 164.06,325.93 163.976,325.99 C163.892,326.05 163.802,326.08 163.706,326.08 L163.706,326.08 L157.298,326.08 C157.202,326.08 157.112,326.05 157.028,325.99 C156.944,325.93 156.902,325.816 156.902,325.648 L156.902,325.648 L156.578,325.648 L156.578,327.718 L156.902,327.718 C156.902,327.61 156.944,327.532 157.028,327.484 C157.112,327.436 157.202,327.412 157.298,327.412 L157.298,327.412 L159.638,327.412 L159.638,333.406 C159.638,333.502 159.608,333.571 159.548,333.613 C159.488,333.655 159.428,333.676 159.368,333.676 L159.368,333.676 L159.368,334 L161.69,334 Z M171.068,334.054 C171.788,334.054 172.415,333.979 172.949,333.829 C173.483,333.679 173.921,333.472 174.263,333.208 C174.605,332.944 174.86,332.641 175.028,332.299 C175.196,331.957 175.28,331.6 175.28,331.228 L175.28,331.228 L175.28,326.674 C175.28,326.494 175.412,326.404 175.676,326.404 L175.676,326.404 L175.676,326.08 L173.174,326.08 L173.174,326.404 C173.474,326.404 173.624,326.494 173.624,326.674 L173.624,326.674 L173.624,330.796 C173.624,331.372 173.414,331.834 172.994,332.182 C172.574,332.53 171.932,332.704 171.068,332.704 C170.204,332.704 169.562,332.53 169.142,332.182 C168.722,331.834 168.512,331.372 168.512,330.796 L168.512,330.796 L168.512,326.674 C168.512,326.494 168.644,326.404 168.908,326.404 L168.908,326.404 L168.908,326.08 L166.334,326.08 L166.334,326.404 C166.538,326.404 166.676,326.425 166.748,326.467 C166.82,326.509 166.856,326.578 166.856,326.674 L166.856,326.674 L166.856,331.228 C166.856,331.6 166.94,331.957 167.108,332.299 C167.276,332.641 167.531,332.944 167.873,333.208 C168.215,333.472 168.653,333.679 169.187,333.829 C169.721,333.979 170.348,334.054 171.068,334.054 Z M180.806,334 L180.806,333.676 C180.734,333.676 180.659,333.655 180.581,333.613 C180.503,333.571 180.464,333.502 180.464,333.406 L180.464,333.406 L180.464,330.832 L182.966,330.832 L184.388,332.956 C184.568,333.208 184.658,333.394 184.658,333.514 C184.658,333.622 184.58,333.676 184.424,333.676 L184.424,333.676 L184.424,334 L187.178,334 L187.178,333.676 C187.046,333.64 186.923,333.589 186.809,333.523 C186.695,333.457 186.59,333.358 186.494,333.226 L186.494,333.226 L184.73,330.652 C184.982,330.592 185.228,330.505 185.468,330.391 C185.708,330.277 185.927,330.127 186.125,329.941 C186.323,329.755 186.482,329.536 186.602,329.284 C186.722,329.032 186.782,328.744 186.782,328.42 C186.782,327.568 186.482,326.965 185.882,326.611 C185.282,326.257 184.448,326.08 183.38,326.08 L183.38,326.08 L178.412,326.08 L178.412,326.404 C178.628,326.404 178.736,326.494 178.736,326.674 L178.736,326.674 L178.736,333.406 C178.736,333.586 178.628,333.676 178.412,333.676 L178.412,333.676 L178.412,334 L180.806,334 Z M183.344,329.5 L180.5,329.5 L180.5,327.412 L183.344,327.412 C183.956,327.412 184.403,327.499 184.685,327.673 C184.967,327.847 185.108,328.084 185.108,328.384 C185.108,329.128 184.52,329.5 183.344,329.5 L183.344,329.5 Z M191.678,334 L191.678,333.676 C191.426,333.676 191.3,333.586 191.3,333.406 L191.3,333.406 L191.3,328.168 L195.764,332.92 C195.908,333.076 196.037,333.214 196.151,333.334 C196.265,333.454 196.322,333.538 196.322,333.586 C196.322,333.646 196.28,333.676 196.196,333.676 L196.196,333.676 L196.196,334 L198.536,334 L198.536,333.676 C198.32,333.676 198.212,333.586 198.212,333.406 L198.212,333.406 L198.212,326.674 C198.212,326.494 198.32,326.404 198.536,326.404 L198.536,326.404 L198.536,326.08 L196.34,326.08 L196.34,326.404 C196.58,326.404 196.7,326.494 196.7,326.674 L196.7,326.674 L196.7,331.552 L192.38,326.98 C192.116,326.716 191.984,326.554 191.984,326.494 C191.984,326.446 192.026,326.416 192.11,326.404 L192.11,326.404 L192.11,326.08 L189.464,326.08 L189.464,326.404 C189.68,326.404 189.788,326.494 189.788,326.674 L189.788,326.674 L189.788,333.406 C189.788,333.586 189.68,333.676 189.464,333.676 L189.464,333.676 L189.464,334 L191.678,334 Z M202.748,334.054 C203.096,334.054 203.396,333.937 203.648,333.703 C203.9,333.469 204.026,333.178 204.026,332.83 C204.026,332.482 203.9,332.182 203.648,331.93 C203.396,331.678 203.096,331.552 202.748,331.552 C202.4,331.552 202.1,331.678 201.848,331.93 C201.596,332.182 201.47,332.482 201.47,332.83 C201.47,333.178 201.596,333.469 201.848,333.703 C202.1,333.937 202.4,334.054 202.748,334.054 Z" id="YourhousegetsTPd.YOURERICH!DrawfourButtCoinbutloseaturn." fill="#000000" fill-rule="nonzero"></path>
        <g id="Group" transform="translate(55.000000, 236.000000)">
            <path d="M144,1.5 C145.794925,1.5 147.419925,2.22753728 148.596194,3.40380592 C149.772463,4.58007456 150.5,6.20507456 150.5,8 L150.5,8 L150.5,28.5 L1.5,28.5 L1.5,8 C1.5,6.20507456 2.22753728,4.58007456 3.40380592,3.40380592 C4.58007456,2.22753728 6.20507456,1.5 8,1.5 L8,1.5 Z" id="Rectangle" stroke="#000000" stroke-width="3"></path>
            <path d="M11.016,19 L11.016,18.712 C10.6746667,18.712 10.504,18.616 10.504,18.424 L10.504,18.424 L10.504,15.576 L13.72,15.576 C14.744,15.576 15.5493333,15.3866667 16.136,15.008 C16.7226667,14.6293333 17.016,13.9866667 17.016,13.08 C17.016,12.1733333 16.7226667,11.5306667 16.136,11.152 C15.5493333,10.7733333 14.744,10.584 13.72,10.584 L13.72,10.584 L8.088,10.584 L8.088,10.872 C8.48266667,10.872 8.68,10.968 8.68,11.16 L8.68,11.16 L8.68,18.424 C8.68,18.616 8.48266667,18.712 8.088,18.712 L8.088,18.712 L8.088,19 L11.016,19 Z M13.912,14.104 L10.504,14.104 L10.504,12.056 L13.912,12.056 C14.264,12.056 14.5653333,12.1253333 14.816,12.264 C15.0666667,12.4026667 15.192,12.6746667 15.192,13.08 C15.192,13.4853333 15.0666667,13.7573333 14.816,13.896 C14.5653333,14.0346667 14.264,14.104 13.912,14.104 L13.912,14.104 Z M25.768,19.16 L25.768,17.48 L25.48,17.48 C25.48,17.5866667 25.4373333,17.6693333 25.352,17.728 C25.2666667,17.7866667 25.16,17.816 25.032,17.816 L25.032,17.816 L20.712,17.816 L20.712,12.488 C20.712,12.328 20.8346667,12.248 21.08,12.248 L21.08,12.248 L21.08,11.96 L18.76,11.96 L18.76,12.248 C19.0373333,12.248 19.176,12.328 19.176,12.488 L19.176,12.488 L19.176,18.472 C19.176,18.632 19.0373333,18.712 18.76,18.712 L18.76,18.712 L18.76,19 L25.032,19 C25.16,19 25.2666667,19.0053333 25.352,19.016 C25.4373333,19.0266667 25.48,19.0746667 25.48,19.16 L25.48,19.16 L25.768,19.16 Z M28.824,19 L28.824,18.712 C28.728,18.712 28.6533333,18.7013333 28.6,18.68 C28.5466667,18.6586667 28.52,18.6053333 28.52,18.52 C28.52,18.4666667 28.5333333,18.4053333 28.56,18.336 C28.5866667,18.2666667 28.6213333,18.1893333 28.664,18.104 L28.664,18.104 L29.112,17.24 L32.536,17.24 L32.968,18.152 C33,18.2373333 33.0266667,18.3066667 33.048,18.36 C33.0693333,18.4133333 33.08,18.472 33.08,18.536 C33.08,18.6213333 33.0506667,18.68 32.992,18.712 C32.9333333,18.744 32.8773333,18.76 32.824,18.76 L32.824,18.76 L32.824,19 L35.096,19 L35.096,18.712 C35.0213333,18.6906667 34.952,18.6586667 34.888,18.616 C34.824,18.5733333 34.7653333,18.504 34.712,18.408 L34.712,18.408 L32.12,12.968 C32.0666667,12.8506667 32.016,12.7466667 31.968,12.656 C31.92,12.5653333 31.896,12.488 31.896,12.424 C31.896,12.3493333 31.9146667,12.3066667 31.952,12.296 C31.9893333,12.2853333 32.024,12.2693333 32.056,12.248 L32.056,12.248 L32.056,11.96 L29.64,11.96 L29.64,12.248 C29.672,12.2693333 29.7013333,12.288 29.728,12.304 C29.7546667,12.32 29.768,12.36 29.768,12.424 C29.768,12.5093333 29.7493333,12.5973333 29.712,12.688 C29.6746667,12.7786667 29.624,12.8986667 29.56,13.048 L29.56,13.048 L27.176,18.248 C27.1333333,18.3333333 27.072,18.4266667 26.992,18.528 C26.912,18.6293333 26.808,18.6906667 26.68,18.712 L26.68,18.712 L26.68,19 L28.824,19 Z M32.024,16.056 L29.592,16.056 L30.728,13.368 L32.024,16.056 Z M40.856,19 L40.856,18.712 C40.6533333,18.712 40.552,18.632 40.552,18.472 L40.552,18.472 L40.552,16.072 L43,12.904 C43.1173333,12.7546667 43.2533333,12.608 43.408,12.464 C43.5626667,12.32 43.704,12.248 43.832,12.248 L43.832,12.248 L43.832,11.96 L41.384,11.96 L41.384,12.248 C41.4373333,12.248 41.4906667,12.2586667 41.544,12.28 C41.5973333,12.3013333 41.624,12.3546667 41.624,12.44 C41.624,12.504 41.6,12.5706667 41.552,12.64 C41.504,12.7093333 41.432,12.8133333 41.336,12.952 L41.336,12.952 L39.912,14.936 L38.296,12.824 C38.2426667,12.7493333 38.1946667,12.6853333 38.152,12.632 C38.1093333,12.5786667 38.088,12.52 38.088,12.456 C38.088,12.392 38.12,12.3413333 38.184,12.304 C38.248,12.2666667 38.3066667,12.248 38.36,12.248 L38.36,12.248 L38.36,11.96 L35.72,11.96 L35.72,12.248 C35.816,12.248 35.9173333,12.2693333 36.024,12.312 C36.1306667,12.3546667 36.2213333,12.424 36.296,12.52 L36.296,12.52 L39.016,16.008 L39.016,18.472 C39.016,18.632 38.92,18.712 38.728,18.712 L38.728,18.712 L38.728,19 L40.856,19 Z M53.096,19 L53.096,18.712 C52.8186667,18.712 52.68,18.616 52.68,18.424 L52.68,18.424 L52.68,11.16 C52.68,10.968 52.8186667,10.872 53.096,10.872 L53.096,10.872 L53.096,10.584 L50.44,10.584 L50.44,10.872 C50.7173333,10.872 50.856,10.968 50.856,11.16 L50.856,11.16 L50.856,18.424 C50.856,18.616 50.7173333,18.712 50.44,18.712 L50.44,18.712 L50.44,19 L53.096,19 Z M57.736,19 L57.736,18.712 C57.5546667,18.712 57.464,18.632 57.464,18.472 L57.464,18.472 L57.464,13.976 L57.48,13.976 L60.056,19 L60.184,19 L62.904,13.976 L62.936,13.976 L62.936,18.472 C62.968,18.632 62.872,18.712 62.648,18.712 L62.648,18.712 L62.648,19 L64.504,19 L64.504,18.712 C64.4506667,18.712 64.4,18.6933333 64.352,18.656 C64.304,18.6186667 64.28,18.5573333 64.28,18.472 L64.28,18.472 L64.28,12.456 C64.28,12.3706667 64.304,12.3146667 64.352,12.288 C64.4,12.2613333 64.4506667,12.248 64.504,12.248 L64.504,12.248 L64.504,11.96 L62.248,11.96 L62.248,12.248 C62.3333333,12.248 62.376,12.296 62.376,12.392 C62.376,12.424 62.3546667,12.48 62.312,12.56 C62.2693333,12.64 62.2106667,12.744 62.136,12.872 L62.136,12.872 L60.168,16.456 L58.216,12.856 C58.1413333,12.728 58.0853333,12.6293333 58.048,12.56 C58.0106667,12.4906667 57.992,12.4346667 57.992,12.392 C57.992,12.296 58.0453333,12.248 58.152,12.248 L58.152,12.248 L58.152,11.96 L55.928,11.96 L55.928,12.248 C56.0026667,12.248 56.0533333,12.264 56.08,12.296 C56.1066667,12.328 56.12,12.4186667 56.12,12.568 L56.12,12.568 L56.12,18.424 C56.12,18.5413333 56.1013333,18.616 56.064,18.648 C56.0266667,18.68 55.9813333,18.7013333 55.928,18.712 L55.928,18.712 L55.928,19 L57.736,19 Z M69.288,19 L69.288,18.712 C69.1066667,18.712 69.016,18.632 69.016,18.472 L69.016,18.472 L69.016,13.976 L69.032,13.976 L71.608,19 L71.736,19 L74.456,13.976 L74.488,13.976 L74.488,18.472 C74.52,18.632 74.424,18.712 74.2,18.712 L74.2,18.712 L74.2,19 L76.056,19 L76.056,18.712 C76.0026667,18.712 75.952,18.6933333 75.904,18.656 C75.856,18.6186667 75.832,18.5573333 75.832,18.472 L75.832,18.472 L75.832,12.456 C75.832,12.3706667 75.856,12.3146667 75.904,12.288 C75.952,12.2613333 76.0026667,12.248 76.056,12.248 L76.056,12.248 L76.056,11.96 L73.8,11.96 L73.8,12.248 C73.8853333,12.248 73.928,12.296 73.928,12.392 C73.928,12.424 73.9066667,12.48 73.864,12.56 C73.8213333,12.64 73.7626667,12.744 73.688,12.872 L73.688,12.872 L71.72,16.456 L69.768,12.856 C69.6933333,12.728 69.6373333,12.6293333 69.6,12.56 C69.5626667,12.4906667 69.544,12.4346667 69.544,12.392 C69.544,12.296 69.5973333,12.248 69.704,12.248 L69.704,12.248 L69.704,11.96 L67.48,11.96 L67.48,12.248 C67.5546667,12.248 67.6053333,12.264 67.632,12.296 C67.6586667,12.328 67.672,12.4186667 67.672,12.568 L67.672,12.568 L67.672,18.424 C67.672,18.5413333 67.6533333,18.616 67.616,18.648 C67.5786667,18.68 67.5333333,18.7013333 67.48,18.712 L67.48,18.712 L67.48,19 L69.288,19 Z M85.464,19.176 L85.464,17.496 L85.176,17.496 C85.176,17.592 85.1333333,17.6693333 85.048,17.728 C84.9626667,17.7866667 84.856,17.816 84.728,17.816 L84.728,17.816 L80.632,17.816 L80.632,15.928 L82.968,15.928 C83.1813333,15.928 83.3466667,15.9413333 83.464,15.968 C83.5813333,15.9946667 83.624,16.0666667 83.592,16.184 L83.592,16.184 L83.912,16.184 L83.912,14.488 L83.624,14.488 C83.624,14.6053333 83.5813333,14.6773333 83.496,14.704 C83.4106667,14.7306667 83.2773333,14.744 83.096,14.744 L83.096,14.744 L80.632,14.744 L80.632,13.144 L84.536,13.144 C84.8666667,13.144 85.032,13.2453333 85.032,13.448 L85.032,13.448 L85.32,13.448 L85.32,11.672 L85.032,11.672 C85.032,11.864 84.8666667,11.96 84.536,11.96 L84.536,11.96 L78.856,11.96 L78.856,12.248 C78.9093333,12.248 78.9626667,12.2666667 79.016,12.304 C79.0693333,12.3413333 79.096,12.4026667 79.096,12.488 L79.096,12.488 L79.096,18.472 C79.096,18.5573333 79.0693333,18.6186667 79.016,18.656 C78.9626667,18.6933333 78.9093333,18.712 78.856,18.712 L78.856,18.712 L78.856,19 L84.728,19 C84.856,19 84.9626667,19.0053333 85.048,19.016 C85.1333333,19.0266667 85.176,19.08 85.176,19.176 L85.176,19.176 L85.464,19.176 Z M92.024,19 C92.6533333,19 93.1866667,18.8986667 93.624,18.696 C94.0613333,18.4933333 94.4186667,18.2293333 94.696,17.904 C94.9733333,17.5786667 95.176,17.2053333 95.304,16.784 C95.432,16.3626667 95.496,15.928 95.496,15.48 C95.496,15.032 95.4293333,14.5973333 95.296,14.176 C95.1626667,13.7546667 94.9546667,13.3813333 94.672,13.056 C94.3893333,12.7306667 94.024,12.4666667 93.576,12.264 C93.128,12.0613333 92.5893333,11.96 91.96,11.96 L91.96,11.96 L87.512,11.96 L87.512,12.248 C87.7573333,12.248 87.88,12.328 87.88,12.488 L87.88,12.488 L87.88,18.472 C87.88,18.632 87.7573333,18.712 87.512,18.712 L87.512,18.712 L87.512,19 L92.024,19 Z M91.496,17.816 L89.416,17.816 L89.416,13.144 L91.496,13.144 C91.8266667,13.144 92.1413333,13.1626667 92.44,13.2 C92.7386667,13.2373333 93,13.3333333 93.224,13.488 C93.448,13.6426667 93.6266667,13.872 93.76,14.176 C93.8933333,14.48 93.96,14.8986667 93.96,15.432 C93.96,15.9653333 93.8933333,16.3893333 93.76,16.704 C93.6266667,17.0186667 93.448,17.2586667 93.224,17.424 C93,17.5893333 92.7386667,17.696 92.44,17.744 C92.1413333,17.792 91.8266667,17.816 91.496,17.816 L91.496,17.816 Z M100.088,19 L100.088,18.712 C99.7893333,18.712 99.64,18.632 99.64,18.472 L99.64,18.472 L99.64,12.488 C99.64,12.328 99.7893333,12.248 100.088,12.248 L100.088,12.248 L100.088,11.96 L97.656,11.96 L97.656,12.248 C97.8266667,12.248 97.944,12.2666667 98.008,12.304 C98.072,12.3413333 98.104,12.4026667 98.104,12.488 L98.104,12.488 L98.104,18.472 C98.104,18.5573333 98.072,18.6186667 98.008,18.656 C97.944,18.6933333 97.8266667,18.712 97.656,18.712 L97.656,18.712 L97.656,19 L100.088,19 Z M103.928,19 L103.928,18.712 C103.832,18.712 103.757333,18.7013333 103.704,18.68 C103.650667,18.6586667 103.624,18.6053333 103.624,18.52 C103.624,18.4666667 103.637333,18.4053333 103.664,18.336 C103.690667,18.2666667 103.725333,18.1893333 103.768,18.104 L103.768,18.104 L104.216,17.24 L107.64,17.24 L108.072,18.152 C108.104,18.2373333 108.130667,18.3066667 108.152,18.36 C108.173333,18.4133333 108.184,18.472 108.184,18.536 C108.184,18.6213333 108.154667,18.68 108.096,18.712 C108.037333,18.744 107.981333,18.76 107.928,18.76 L107.928,18.76 L107.928,19 L110.2,19 L110.2,18.712 C110.125333,18.6906667 110.056,18.6586667 109.992,18.616 C109.928,18.5733333 109.869333,18.504 109.816,18.408 L109.816,18.408 L107.224,12.968 C107.170667,12.8506667 107.12,12.7466667 107.072,12.656 C107.024,12.5653333 107,12.488 107,12.424 C107,12.3493333 107.018667,12.3066667 107.056,12.296 C107.093333,12.2853333 107.128,12.2693333 107.16,12.248 L107.16,12.248 L107.16,11.96 L104.744,11.96 L104.744,12.248 C104.776,12.2693333 104.805333,12.288 104.832,12.304 C104.858667,12.32 104.872,12.36 104.872,12.424 C104.872,12.5093333 104.853333,12.5973333 104.816,12.688 C104.778667,12.7786667 104.728,12.8986667 104.664,13.048 L104.664,13.048 L102.28,18.248 C102.237333,18.3333333 102.176,18.4266667 102.096,18.528 C102.016,18.6293333 101.912,18.6906667 101.784,18.712 L101.784,18.712 L101.784,19 L103.928,19 Z M107.128,16.056 L104.696,16.056 L105.832,13.368 L107.128,16.056 Z M115.496,19 L115.496,18.712 C115.304,18.712 115.208,18.632 115.208,18.472 L115.208,18.472 L115.208,13.144 L117.288,13.144 C117.373333,13.144 117.453333,13.1653333 117.528,13.208 C117.602667,13.2506667 117.64,13.32 117.64,13.416 L117.64,13.416 L117.928,13.416 L117.928,11.576 L117.64,11.576 C117.64,11.7253333 117.602667,11.8266667 117.528,11.88 C117.453333,11.9333333 117.373333,11.96 117.288,11.96 L117.288,11.96 L111.592,11.96 C111.506667,11.96 111.426667,11.9333333 111.352,11.88 C111.277333,11.8266667 111.24,11.7253333 111.24,11.576 L111.24,11.576 L110.952,11.576 L110.952,13.416 L111.24,13.416 C111.24,13.32 111.277333,13.2506667 111.352,13.208 C111.426667,13.1653333 111.506667,13.144 111.592,13.144 L111.592,13.144 L113.672,13.144 L113.672,18.472 C113.672,18.5573333 113.645333,18.6186667 113.592,18.656 C113.538667,18.6933333 113.485333,18.712 113.432,18.712 L113.432,18.712 L113.432,19 L115.496,19 Z M126.36,19.176 L126.36,17.496 L126.072,17.496 C126.072,17.592 126.029333,17.6693333 125.944,17.728 C125.858667,17.7866667 125.752,17.816 125.624,17.816 L125.624,17.816 L121.528,17.816 L121.528,15.928 L123.864,15.928 C124.077333,15.928 124.242667,15.9413333 124.36,15.968 C124.477333,15.9946667 124.52,16.0666667 124.488,16.184 L124.488,16.184 L124.808,16.184 L124.808,14.488 L124.52,14.488 C124.52,14.6053333 124.477333,14.6773333 124.392,14.704 C124.306667,14.7306667 124.173333,14.744 123.992,14.744 L123.992,14.744 L121.528,14.744 L121.528,13.144 L125.432,13.144 C125.762667,13.144 125.928,13.2453333 125.928,13.448 L125.928,13.448 L126.216,13.448 L126.216,11.672 L125.928,11.672 C125.928,11.864 125.762667,11.96 125.432,11.96 L125.432,11.96 L119.752,11.96 L119.752,12.248 C119.805333,12.248 119.858667,12.2666667 119.912,12.304 C119.965333,12.3413333 119.992,12.4026667 119.992,12.488 L119.992,12.488 L119.992,18.472 C119.992,18.5573333 119.965333,18.6186667 119.912,18.656 C119.858667,18.6933333 119.805333,18.712 119.752,18.712 L119.752,18.712 L119.752,19 L125.624,19 C125.752,19 125.858667,19.0053333 125.944,19.016 C126.029333,19.0266667 126.072,19.08 126.072,19.176 L126.072,19.176 L126.36,19.176 Z M135.56,19.16 L135.56,17.48 L135.272,17.48 C135.272,17.5866667 135.229333,17.6693333 135.144,17.728 C135.058667,17.7866667 134.952,17.816 134.824,17.816 L134.824,17.816 L130.504,17.816 L130.504,12.488 C130.504,12.328 130.626667,12.248 130.872,12.248 L130.872,12.248 L130.872,11.96 L128.552,11.96 L128.552,12.248 C128.829333,12.248 128.968,12.328 128.968,12.488 L128.968,12.488 L128.968,18.472 C128.968,18.632 128.829333,18.712 128.552,18.712 L128.552,18.712 L128.552,19 L134.824,19 C134.952,19 135.058667,19.0053333 135.144,19.016 C135.229333,19.0266667 135.272,19.0746667 135.272,19.16 L135.272,19.16 L135.56,19.16 Z M141.752,19 L141.752,18.712 C141.549333,18.712 141.448,18.632 141.448,18.472 L141.448,18.472 L141.448,16.072 L143.896,12.904 C144.013333,12.7546667 144.149333,12.608 144.304,12.464 C144.458667,12.32 144.6,12.248 144.728,12.248 L144.728,12.248 L144.728,11.96 L142.28,11.96 L142.28,12.248 C142.333333,12.248 142.386667,12.2586667 142.44,12.28 C142.493333,12.3013333 142.52,12.3546667 142.52,12.44 C142.52,12.504 142.496,12.5706667 142.448,12.64 C142.4,12.7093333 142.328,12.8133333 142.232,12.952 L142.232,12.952 L140.808,14.936 L139.192,12.824 C139.138667,12.7493333 139.090667,12.6853333 139.048,12.632 C139.005333,12.5786667 138.984,12.52 138.984,12.456 C138.984,12.392 139.016,12.3413333 139.08,12.304 C139.144,12.2666667 139.202667,12.248 139.256,12.248 L139.256,12.248 L139.256,11.96 L136.616,11.96 L136.616,12.248 C136.712,12.248 136.813333,12.2693333 136.92,12.312 C137.026667,12.3546667 137.117333,12.424 137.192,12.52 L137.192,12.52 L139.912,16.008 L139.912,18.472 C139.912,18.632 139.816,18.712 139.624,18.712 L139.624,18.712 L139.624,19 L141.752,19 Z" id="PlayImmediately" fill="#000000" fill-rule="nonzero"></path>
        </g>
    </g>
</svg>