<?xml version="1.0" encoding="UTF-8"?>
<svg width="262px" height="360px" viewBox="0 0 262 360" version="1.1" xmlns="http://www.w3.org/2000/svg" xmlns:xlink="http://www.w3.org/1999/xlink">
    <title>Vaccine 1</title>
    <g id="Vaccine-1" stroke="none" stroke-width="1" fill="none" fill-rule="evenodd">
        <g id="Group" transform="translate(9.000000, 9.000000)" fill="#FFFFFF" stroke="#000000" stroke-width="3">
            <g id="Rectangle">
                <rect x="1.5" y="1.5" width="239" height="337" rx="8"></rect>
            </g>
        </g>
        <rect id="Rectangle" stroke="#000000" stroke-width="3" x="17.5" y="278.5" width="225" height="63" rx="8"></rect>
        <g id="Beaker" transform="translate(230.000000, 15.000000)">
            <path d="M10.5,2.5 L10.5,6.40325225 C10.5,8.18857084 10.9156686,9.9493711 11.7140873,11.5462086 L11.7140873,11.5462086 L13.236068,14.5901699 C13.4096373,14.9373085 13.5,15.3200912 13.5,15.7082039 L13.5,15.7082039 L13.5,17.1715729 C13.5,17.5693976 13.3419647,17.9509285 13.0606602,18.232233 L13.0606602,18.232233 L12.232233,19.0606602 C11.9509285,19.3419647 11.5693976,19.5 11.1715729,19.5 L11.1715729,19.5 L2.82842712,19.5 C2.43060239,19.5 2.04907152,19.3419647 1.76776695,19.0606602 L1.76776695,19.0606602 L0.939339828,18.232233 C0.658035261,17.9509285 0.5,17.5693976 0.5,17.1715729 L0.5,17.1715729 L0.5,15.7082039 C0.5,15.3200912 0.590362729,14.9373085 0.763932023,14.5901699 L0.763932023,14.5901699 L2.2859127,11.5462086 C3.08433144,9.9493711 3.5,8.18857084 3.5,6.40325225 L3.5,6.40325225 L3.5,2.5 L10.5,2.5 Z" id="Rectangle" stroke="#000000"></path>
            <path d="M4,9 L10,9 C10,9.65899054 10.1414066,10.3103089 10.4146706,10.9099716 L11.7299148,13.7962019 C11.9078984,14.186777 12,14.6109968 12,15.0402137 L12,15.7335938 C12,16.2601989 11.7923083,16.7655549 11.4220052,17.1399725 L11.1585265,17.4063788 C10.7828385,17.7862411 10.2707843,18 9.7365213,18 L4.2634787,18 C3.72921573,18 3.21716155,17.7862411 2.8414735,17.4063788 L2.57799481,17.1399725 C2.20769169,16.7655549 2,16.2601989 2,15.7335938 L2,15.0402137 C2,14.6109968 2.09210162,14.186777 2.27008523,13.7962019 L3.5853294,10.9099716 C3.8585934,10.3103089 4,9.65899054 4,9 L4,9 L4,9 Z" id="Rectangle-Copy" fill="#000000"></path>
            <circle id="Oval" fill="#FFFFFF" cx="9.5" cy="15.5" r="1.5"></circle>
            <circle id="Oval-Copy-2" fill="#000000" cx="6" cy="5" r="1"></circle>
            <circle id="Oval-Copy-3" fill="#000000" cx="8.5" cy="6.5" r="1"></circle>
            <circle id="Oval-Copy" fill="#FFFFFF" cx="6" cy="13" r="1"></circle>
            <rect id="Rectangle" stroke="#000000" x="2.5" y="0.5" width="9" height="2" rx="1"></rect>
        </g>
        <path d="M218.652,33.072 C219.292,33.072 219.976,33.02 220.704,32.916 C221.432,32.812 222.1,32.604 222.708,32.292 C223.316,31.98 223.824,31.56 224.232,31.032 C224.64,30.504 224.844,29.832 224.844,29.016 C224.844,28.296 224.624,27.7 224.184,27.228 C223.744,26.756 223.18,26.44 222.492,26.28 L222.492,26.232 C223.068,26.104 223.524,25.796 223.86,25.308 C224.196,24.82 224.364,24.288 224.364,23.712 C224.364,23.088 224.2,22.556 223.872,22.116 C223.544,21.676 223.12,21.316 222.6,21.036 C222.08,20.756 221.504,20.552 220.872,20.424 C220.24,20.296 219.612,20.232 218.988,20.232 C218.06,20.232 217.272,20.324 216.624,20.508 C215.976,20.692 215.444,20.896 215.028,21.12 C214.612,21.344 214.296,21.548 214.08,21.732 C213.864,21.916 213.716,22.008 213.636,22.008 C213.492,22.008 213.356,21.968 213.228,21.888 L212.94,22.104 L214.86,24.552 L215.076,24.408 C215.044,24.328 215.02,24.244 215.004,24.156 C214.988,24.068 214.98,23.992 214.98,23.928 C214.98,23.736 215.1,23.544 215.34,23.352 C215.58,23.16 215.884,22.984 216.252,22.824 C216.62,22.664 217.028,22.536 217.476,22.44 C217.924,22.344 218.364,22.296 218.796,22.296 C219.164,22.296 219.528,22.316 219.888,22.356 C220.248,22.396 220.576,22.472 220.872,22.584 C221.168,22.696 221.408,22.852 221.592,23.052 C221.776,23.252 221.868,23.512 221.868,23.832 C221.868,24.168 221.764,24.448 221.556,24.672 C221.348,24.896 221.096,25.072 220.8,25.2 C220.504,25.328 220.188,25.416 219.852,25.464 C219.516,25.512 219.22,25.536 218.964,25.536 C218.58,25.536 218.232,25.484 217.92,25.38 C217.608,25.276 217.436,25.064 217.404,24.744 L217.116,24.744 L217.116,28.008 L217.404,28.008 C217.5,27.72 217.688,27.54 217.968,27.468 C218.248,27.396 218.58,27.36 218.964,27.36 C219.236,27.36 219.56,27.38 219.936,27.42 C220.312,27.46 220.668,27.544 221.004,27.672 C221.34,27.8 221.624,27.98 221.856,28.212 C222.088,28.444 222.204,28.752 222.204,29.136 C222.204,29.536 222.084,29.86 221.844,30.108 C221.604,30.356 221.312,30.552 220.968,30.696 C220.624,30.84 220.256,30.94 219.864,30.996 C219.472,31.052 219.132,31.08 218.844,31.08 C218.476,31.08 218.024,31.028 217.488,30.924 C216.952,30.82 216.44,30.668 215.952,30.468 C215.464,30.268 215.044,30.024 214.692,29.736 C214.34,29.448 214.164,29.12 214.164,28.752 L214.164,28.584 C214.164,28.504 214.172,28.448 214.188,28.416 L213.924,28.272 L212.532,31.728 L212.748,31.8 C212.812,31.768 212.872,31.736 212.928,31.704 C212.984,31.672 213.052,31.656 213.132,31.656 C213.26,31.656 213.48,31.732 213.792,31.884 C214.104,32.036 214.5,32.204 214.98,32.388 C215.46,32.572 216.012,32.732 216.636,32.868 C217.26,33.004 217.932,33.072 218.652,33.072 Z" id="3" fill="#000000" fill-rule="nonzero"></path>
        <path d="M94.22,53 L94.22,52.568 C94.156,52.52 94.104,52.472 94.064,52.424 C94.024,52.376 94.004,52.312 94.004,52.232 C94.004,52.152 94.052,52.016 94.148,51.824 C94.244,51.632 94.364,51.376 94.508,51.056 L98.756,41.72 C98.82,41.576 98.924,41.388 99.068,41.156 C99.212,40.924 99.444,40.808 99.764,40.808 L99.764,40.376 L95.564,40.376 L95.564,40.808 C96.012,40.808 96.236,40.936 96.236,41.192 C96.236,41.32 96.152,41.548 95.984,41.876 C95.816,42.204 95.636,42.576 95.444,42.992 L92.444,49.496 L89.372,42.896 C89.18,42.496 89.016,42.16 88.88,41.888 C88.744,41.616 88.676,41.392 88.676,41.216 C88.676,41.056 88.728,40.948 88.832,40.892 C88.936,40.836 89.044,40.808 89.156,40.808 L89.156,40.376 L84.86,40.376 L84.86,40.808 C85.132,40.888 85.34,40.968 85.484,41.048 C85.628,41.128 85.74,41.256 85.82,41.432 L90.14,50.816 C90.316,51.184 90.464,51.492 90.584,51.74 C90.704,51.988 90.764,52.152 90.764,52.232 C90.764,52.392 90.692,52.504 90.548,52.568 L90.548,53 L94.22,53 Z M103.892,53 L103.892,52.568 C103.748,52.568 103.636,52.552 103.556,52.52 C103.476,52.488 103.436,52.408 103.436,52.28 C103.436,52.2 103.456,52.108 103.496,52.004 C103.536,51.9 103.588,51.784 103.652,51.656 L104.324,50.36 L109.46,50.36 L110.108,51.728 C110.156,51.856 110.196,51.96 110.228,52.04 C110.26,52.12 110.276,52.208 110.276,52.304 C110.276,52.432 110.232,52.52 110.144,52.568 C110.056,52.616 109.972,52.64 109.892,52.64 L109.892,53 L113.3,53 L113.3,52.568 C113.188,52.536 113.084,52.488 112.988,52.424 C112.892,52.36 112.804,52.256 112.724,52.112 L108.836,43.952 C108.756,43.776 108.68,43.62 108.608,43.484 C108.536,43.348 108.5,43.232 108.5,43.136 C108.5,43.024 108.528,42.96 108.584,42.944 C108.64,42.928 108.692,42.904 108.74,42.872 L108.74,42.44 L105.116,42.44 L105.116,42.872 C105.164,42.904 105.208,42.932 105.248,42.956 C105.288,42.98 105.308,43.04 105.308,43.136 C105.308,43.264 105.28,43.396 105.224,43.532 C105.168,43.668 105.092,43.848 104.996,44.072 L101.42,51.872 C101.356,52 101.264,52.14 101.144,52.292 C101.024,52.444 100.868,52.536 100.676,52.568 L100.676,53 L103.892,53 Z M108.692,48.584 L105.044,48.584 L106.748,44.552 L108.692,48.584 Z M120.428,53.072 C121.148,53.072 121.8,53.008 122.384,52.88 C122.968,52.752 123.48,52.596 123.92,52.412 C124.36,52.228 124.724,52.064 125.012,51.92 C125.3,51.776 125.508,51.704 125.636,51.704 C125.716,51.704 125.852,51.744 126.044,51.824 L126.284,51.704 L124.508,49.16 L124.244,49.4 C124.26,49.464 124.268,49.544 124.268,49.64 L124.268,49.832 C124.268,49.976 124.152,50.136 123.92,50.312 C123.688,50.488 123.388,50.652 123.02,50.804 C122.652,50.956 122.244,51.088 121.796,51.2 C121.348,51.312 120.908,51.368 120.476,51.368 C120.012,51.368 119.556,51.284 119.108,51.116 C118.66,50.948 118.26,50.7 117.908,50.372 C117.556,50.044 117.272,49.652 117.056,49.196 C116.84,48.74 116.732,48.224 116.732,47.648 C116.732,47.072 116.828,46.56 117.02,46.112 C117.212,45.664 117.484,45.288 117.836,44.984 C118.188,44.68 118.6,44.452 119.072,44.3 C119.544,44.148 120.068,44.072 120.644,44.072 C121.124,44.072 121.564,44.116 121.964,44.204 C122.364,44.292 122.712,44.4 123.008,44.528 C123.304,44.656 123.532,44.788 123.692,44.924 C123.852,45.06 123.932,45.168 123.932,45.248 C123.932,45.296 123.936,45.336 123.944,45.368 L123.953,45.416 L123.956,45.464 L124.22,45.656 L125.804,43.376 L125.516,43.208 C125.452,43.24 125.392,43.28 125.336,43.328 C125.28,43.376 125.212,43.4 125.132,43.4 C125.02,43.4 124.836,43.344 124.58,43.232 C124.324,43.12 124.004,42.992 123.62,42.848 C123.236,42.704 122.792,42.576 122.288,42.464 C121.784,42.352 121.228,42.296 120.62,42.296 C119.836,42.296 119.072,42.408 118.328,42.632 C117.584,42.856 116.924,43.196 116.348,43.652 C115.772,44.108 115.308,44.672 114.956,45.344 C114.604,46.016 114.428,46.8 114.428,47.696 C114.428,48.592 114.604,49.38 114.956,50.06 C115.308,50.74 115.764,51.308 116.324,51.764 C116.884,52.22 117.524,52.552 118.244,52.76 C118.964,52.968 119.692,53.072 120.428,53.072 Z M133.772,53.072 C134.492,53.072 135.144,53.008 135.728,52.88 C136.312,52.752 136.824,52.596 137.264,52.412 C137.704,52.228 138.068,52.064 138.356,51.92 C138.644,51.776 138.852,51.704 138.98,51.704 C139.06,51.704 139.196,51.744 139.388,51.824 L139.628,51.704 L137.852,49.16 L137.588,49.4 C137.604,49.464 137.612,49.544 137.612,49.64 L137.612,49.832 C137.612,49.976 137.496,50.136 137.264,50.312 C137.032,50.488 136.732,50.652 136.364,50.804 C135.996,50.956 135.588,51.088 135.14,51.2 C134.692,51.312 134.252,51.368 133.82,51.368 C133.356,51.368 132.9,51.284 132.452,51.116 C132.004,50.948 131.604,50.7 131.252,50.372 C130.9,50.044 130.616,49.652 130.4,49.196 C130.184,48.74 130.076,48.224 130.076,47.648 C130.076,47.072 130.172,46.56 130.364,46.112 C130.556,45.664 130.828,45.288 131.18,44.984 C131.532,44.68 131.944,44.452 132.416,44.3 C132.888,44.148 133.412,44.072 133.988,44.072 C134.468,44.072 134.908,44.116 135.308,44.204 C135.708,44.292 136.056,44.4 136.352,44.528 C136.648,44.656 136.876,44.788 137.036,44.924 C137.196,45.06 137.276,45.168 137.276,45.248 C137.276,45.296 137.28,45.336 137.288,45.368 L137.297,45.416 L137.3,45.464 L137.564,45.656 L139.148,43.376 L138.86,43.208 C138.796,43.24 138.736,43.28 138.68,43.328 C138.624,43.376 138.556,43.4 138.476,43.4 C138.364,43.4 138.18,43.344 137.924,43.232 C137.668,43.12 137.348,42.992 136.964,42.848 C136.58,42.704 136.136,42.576 135.632,42.464 C135.128,42.352 134.572,42.296 133.964,42.296 C133.18,42.296 132.416,42.408 131.672,42.632 C130.928,42.856 130.268,43.196 129.692,43.652 C129.116,44.108 128.652,44.672 128.3,45.344 C127.948,46.016 127.772,46.8 127.772,47.696 C127.772,48.592 127.948,49.38 128.3,50.06 C128.652,50.74 129.108,51.308 129.668,51.764 C130.228,52.22 130.868,52.552 131.588,52.76 C132.308,52.968 133.036,53.072 133.772,53.072 Z M146.156,53 L146.156,52.568 C145.708,52.568 145.484,52.448 145.484,52.208 L145.484,43.232 C145.484,42.992 145.708,42.872 146.156,42.872 L146.156,42.44 L142.508,42.44 L142.508,42.872 C142.764,42.872 142.94,42.9 143.036,42.956 C143.132,43.012 143.18,43.104 143.18,43.232 L143.18,52.208 C143.18,52.336 143.132,52.428 143.036,52.484 C142.94,52.54 142.764,52.568 142.508,52.568 L142.508,53 L146.156,53 Z M153.236,53 L153.236,52.568 C152.9,52.568 152.732,52.448 152.732,52.208 L152.732,45.224 L158.684,51.56 C158.876,51.768 159.048,51.952 159.2,52.112 C159.352,52.272 159.428,52.384 159.428,52.448 C159.428,52.528 159.372,52.568 159.26,52.568 L159.26,53 L162.38,53 L162.38,52.568 C162.092,52.568 161.948,52.448 161.948,52.208 L161.948,43.232 C161.948,42.992 162.092,42.872 162.38,42.872 L162.38,42.44 L159.452,42.44 L159.452,42.872 C159.772,42.872 159.932,42.992 159.932,43.232 L159.932,49.736 L154.172,43.64 C153.82,43.288 153.644,43.072 153.644,42.992 C153.644,42.928 153.7,42.888 153.812,42.872 L153.812,42.44 L150.284,42.44 L150.284,42.872 C150.572,42.872 150.716,42.992 150.716,43.232 L150.716,52.208 C150.716,52.448 150.572,52.568 150.284,52.568 L150.284,53 L153.236,53 Z M176.228,53.264 L176.228,50.744 L175.796,50.744 C175.796,50.888 175.732,51.004 175.604,51.092 C175.476,51.18 175.316,51.224 175.124,51.224 L168.98,51.224 L168.98,48.392 L172.484,48.392 C172.804,48.392 173.052,48.412 173.228,48.452 C173.404,48.492 173.468,48.6 173.42,48.776 L173.9,48.776 L173.9,46.232 L173.468,46.232 C173.468,46.408 173.404,46.516 173.276,46.556 C173.148,46.596 172.948,46.616 172.676,46.616 L168.98,46.616 L168.98,44.216 L174.836,44.216 C175.332,44.216 175.58,44.368 175.58,44.672 L176.012,44.672 L176.012,42.008 L175.58,42.008 C175.58,42.296 175.332,42.44 174.836,42.44 L166.316,42.44 L166.316,42.872 C166.396,42.872 166.476,42.9 166.556,42.956 C166.636,43.012 166.676,43.104 166.676,43.232 L166.676,52.208 C166.676,52.336 166.636,52.428 166.556,52.484 C166.476,52.54 166.396,52.568 166.316,52.568 L166.316,53 L175.124,53 C175.316,53 175.476,53.008 175.604,53.024 C175.732,53.04 175.796,53.12 175.796,53.264 L176.228,53.264 Z" id="Vaccine" fill="#000000" fill-rule="nonzero"></path>
        <path d="M51.04,298 L51.04,297.712 C50.8053333,297.712 50.688,297.616 50.688,297.424 L50.688,291.056 L53.328,291.056 C53.424,291.056 53.5173333,291.082667 53.608,291.136 C53.6986667,291.189333 53.744,291.290667 53.744,291.44 L54.032,291.44 L54.032,289.2 L53.744,289.2 C53.744,289.349333 53.6986667,289.450667 53.608,289.504 C53.5173333,289.557333 53.424,289.584 53.328,289.584 L46.224,289.584 C46.128,289.584 46.0346667,289.557333 45.944,289.504 C45.8533333,289.450667 45.808,289.349333 45.808,289.2 L45.52,289.2 L45.52,291.44 L45.808,291.44 C45.808,291.290667 45.8533333,291.189333 45.944,291.136 C46.0346667,291.082667 46.128,291.056 46.224,291.056 L48.864,291.056 L48.864,297.424 C48.864,297.52 48.8346667,297.592 48.776,297.64 C48.7173333,297.688 48.6506667,297.712 48.576,297.712 L48.576,298 L51.04,298 Z M59.552,298.048 C60.1386667,298.048 60.6906667,297.981333 61.208,297.848 C61.7253333,297.714667 62.176,297.498667 62.56,297.2 C62.944,296.901333 63.248,296.525333 63.472,296.072 C63.696,295.618667 63.808,295.088 63.808,294.48 C63.808,293.872 63.696,293.341333 63.472,292.888 C63.248,292.434667 62.944,292.058667 62.56,291.76 C62.176,291.461333 61.7253333,291.237333 61.208,291.088 C60.6906667,290.938667 60.1386667,290.864 59.552,290.864 C58.9653333,290.864 58.4133333,290.938667 57.896,291.088 C57.3786667,291.237333 56.928,291.461333 56.544,291.76 C56.16,292.058667 55.856,292.434667 55.632,292.888 C55.408,293.341333 55.296,293.872 55.296,294.48 C55.296,295.088 55.408,295.618667 55.632,296.072 C55.856,296.525333 56.16,296.901333 56.544,297.2 C56.928,297.498667 57.3786667,297.714667 57.896,297.848 C58.4133333,297.981333 58.9653333,298.048 59.552,298.048 Z M59.552,296.912 C59.2106667,296.912 58.8773333,296.856 58.552,296.744 C58.2266667,296.632 57.936,296.472 57.68,296.264 C57.424,296.056 57.2186667,295.802667 57.064,295.504 C56.9093333,295.205333 56.832,294.864 56.832,294.48 C56.832,294.096 56.9093333,293.754667 57.064,293.456 C57.2186667,293.157333 57.424,292.904 57.68,292.696 C57.936,292.488 58.2266667,292.328 58.552,292.216 C58.8773333,292.104 59.2106667,292.048 59.552,292.048 C59.8933333,292.048 60.2266667,292.104 60.552,292.216 C60.8773333,292.328 61.168,292.488 61.424,292.696 C61.68,292.904 61.8853333,293.157333 62.04,293.456 C62.1946667,293.754667 62.272,294.096 62.272,294.48 C62.272,294.864 62.1946667,295.205333 62.04,295.504 C61.8853333,295.802667 61.68,296.056 61.424,296.264 C61.168,296.472 60.8773333,296.632 60.552,296.744 C60.2266667,296.856 59.8933333,296.912 59.552,296.912 Z M75.04,298 L75.04,297.712 C74.848,297.68 74.752,297.632 74.752,297.568 C74.752,297.514667 74.7813333,297.44 74.84,297.344 C74.8986667,297.248 74.9866667,297.061333 75.104,296.784 L77.44,291.616 C77.5573333,291.370667 77.6906667,291.248 77.84,291.248 L77.84,290.96 L75.744,290.96 L75.744,291.248 C75.8933333,291.248 75.9733333,291.312 75.984,291.44 C75.9946667,291.514667 75.968,291.616 75.904,291.744 C75.84,291.872 75.7493333,292.064 75.632,292.32 L73.888,296.192 L72.048,292.208 C71.9733333,292.048 71.9066667,291.901333 71.848,291.768 C71.7893333,291.634667 71.76,291.530667 71.76,291.456 C71.76,291.317333 71.824,291.248 71.952,291.248 L71.952,290.96 L69.696,290.96 L69.696,291.248 C69.76,291.248 69.8266667,291.274667 69.896,291.328 C69.9653333,291.381333 70.0213333,291.456 70.064,291.552 L72.496,296.784 C72.592,296.986667 72.6746667,297.146667 72.744,297.264 C72.8133333,297.381333 72.848,297.466667 72.848,297.52 C72.848,297.573333 72.824,297.613333 72.776,297.64 C72.728,297.666667 72.6773333,297.690667 72.624,297.712 L72.624,298 L75.04,298 Z M80.608,298 L80.608,297.712 C80.512,297.712 80.4373333,297.701333 80.384,297.68 C80.3306667,297.658667 80.304,297.605333 80.304,297.52 C80.304,297.466667 80.3173333,297.405333 80.344,297.336 C80.3706667,297.266667 80.4053333,297.189333 80.448,297.104 L80.896,296.24 L84.32,296.24 L84.752,297.152 C84.784,297.237333 84.8106667,297.306667 84.832,297.36 C84.8533333,297.413333 84.864,297.472 84.864,297.536 C84.864,297.621333 84.8346667,297.68 84.776,297.712 C84.7173333,297.744 84.6613333,297.76 84.608,297.76 L84.608,298 L86.88,298 L86.88,297.712 C86.8053333,297.690667 86.736,297.658667 86.672,297.616 C86.608,297.573333 86.5493333,297.504 86.496,297.408 L83.904,291.968 C83.8506667,291.850667 83.8,291.746667 83.752,291.656 C83.704,291.565333 83.68,291.488 83.68,291.424 C83.68,291.349333 83.6986667,291.306667 83.736,291.296 C83.7733333,291.285333 83.808,291.269333 83.84,291.248 L83.84,290.96 L81.424,290.96 L81.424,291.248 C81.456,291.269333 81.4853333,291.288 81.512,291.304 C81.5386667,291.32 81.552,291.36 81.552,291.424 C81.552,291.509333 81.5333333,291.597333 81.496,291.688 C81.4586667,291.778667 81.408,291.898667 81.344,292.048 L78.96,297.248 C78.9173333,297.333333 78.856,297.426667 78.776,297.528 C78.696,297.629333 78.592,297.690667 78.464,297.712 L78.464,298 L80.608,298 Z M83.808,295.056 L81.376,295.056 L82.512,292.368 L83.808,295.056 Z M90.064,298 L90.064,297.712 C89.968,297.712 89.92,297.674667 89.92,297.6 C89.92,297.525333 89.9946667,297.397333 90.144,297.216 L91.504,295.552 L92.896,297.264 C93.0133333,297.445333 93.072,297.552 93.072,297.584 C93.072,297.658667 93.0346667,297.701333 92.96,297.712 L92.96,298 L95.408,298 L95.408,297.712 C95.248,297.712 95.1093333,297.637333 94.992,297.488 C94.8746667,297.338667 94.7733333,297.216 94.688,297.12 L92.464,294.32 L94.88,291.408 C94.9866667,291.301333 95.1253333,291.248 95.296,291.248 L95.296,290.96 L92.848,290.96 L92.848,291.248 C92.9866667,291.248 93.056,291.290667 93.056,291.376 C93.056,291.461333 92.9706667,291.605333 92.8,291.808 L91.584,293.296 L90.464,291.936 C90.368,291.818667 90.288,291.717333 90.224,291.632 C90.16,291.546667 90.128,291.477333 90.128,291.424 C90.128,291.306667 90.192,291.248 90.32,291.248 L90.32,290.96 L87.808,290.96 L87.808,291.248 C87.8826667,291.248 87.968,291.282667 88.064,291.352 C88.16,291.421333 88.2826667,291.546667 88.432,291.728 L90.64,294.48 L88.208,297.472 C88.1333333,297.568 88.0506667,297.632 87.96,297.664 C87.8693333,297.696 87.792,297.712 87.728,297.712 L87.728,298 L90.064,298 Z M105.776,298.048 C106.362667,298.048 106.914667,297.981333 107.432,297.848 C107.949333,297.714667 108.4,297.498667 108.784,297.2 C109.168,296.901333 109.472,296.525333 109.696,296.072 C109.92,295.618667 110.032,295.088 110.032,294.48 C110.032,293.872 109.92,293.341333 109.696,292.888 C109.472,292.434667 109.168,292.058667 108.784,291.76 C108.4,291.461333 107.949333,291.237333 107.432,291.088 C106.914667,290.938667 106.362667,290.864 105.776,290.864 C105.189333,290.864 104.637333,290.938667 104.12,291.088 C103.602667,291.237333 103.152,291.461333 102.768,291.76 C102.384,292.058667 102.08,292.434667 101.856,292.888 C101.632,293.341333 101.52,293.872 101.52,294.48 C101.52,295.088 101.632,295.618667 101.856,296.072 C102.08,296.525333 102.384,296.901333 102.768,297.2 C103.152,297.498667 103.602667,297.714667 104.12,297.848 C104.637333,297.981333 105.189333,298.048 105.776,298.048 Z M105.776,296.912 C105.434667,296.912 105.101333,296.856 104.776,296.744 C104.450667,296.632 104.16,296.472 103.904,296.264 C103.648,296.056 103.442667,295.802667 103.288,295.504 C103.133333,295.205333 103.056,294.864 103.056,294.48 C103.056,294.096 103.133333,293.754667 103.288,293.456 C103.442667,293.157333 103.648,292.904 103.904,292.696 C104.16,292.488 104.450667,292.328 104.776,292.216 C105.101333,292.104 105.434667,292.048 105.776,292.048 C106.117333,292.048 106.450667,292.104 106.776,292.216 C107.101333,292.328 107.392,292.488 107.648,292.696 C107.904,292.904 108.109333,293.157333 108.264,293.456 C108.418667,293.754667 108.496,294.096 108.496,294.48 C108.496,294.864 108.418667,295.205333 108.264,295.504 C108.109333,295.802667 107.904,296.056 107.648,296.264 C107.392,296.472 107.101333,296.632 106.776,296.744 C106.450667,296.856 106.117333,296.912 105.776,296.912 Z M114.048,298 L114.048,297.712 C113.984,297.712 113.917333,297.693333 113.848,297.656 C113.778667,297.618667 113.744,297.557333 113.744,297.472 L113.744,295.184 L115.968,295.184 L117.232,297.072 C117.392,297.296 117.472,297.461333 117.472,297.568 C117.472,297.664 117.402667,297.712 117.264,297.712 L117.264,298 L119.712,298 L119.712,297.712 C119.594667,297.68 119.485333,297.634667 119.384,297.576 C119.282667,297.517333 119.189333,297.429333 119.104,297.312 L117.536,295.024 C117.76,294.970667 117.978667,294.893333 118.192,294.792 C118.405333,294.690667 118.6,294.557333 118.776,294.392 C118.952,294.226667 119.093333,294.032 119.2,293.808 C119.306667,293.584 119.36,293.328 119.36,293.04 C119.36,292.282667 119.093333,291.746667 118.56,291.432 C118.026667,291.117333 117.285333,290.96 116.336,290.96 L111.92,290.96 L111.92,291.248 C112.112,291.248 112.208,291.328 112.208,291.488 L112.208,297.472 C112.208,297.632 112.112,297.712 111.92,297.712 L111.92,298 L114.048,298 Z M113.776,294 L113.776,292.144 L116.304,292.144 C116.848,292.144 117.245333,292.221333 117.496,292.376 C117.746667,292.530667 117.872,292.741333 117.872,293.008 C117.872,293.669333 117.349333,294 116.304,294 L113.776,294 Z M128.592,298 L128.592,297.712 C128.368,297.712 128.256,297.632 128.256,297.472 L128.256,292.816 L132.224,297.04 C132.352,297.178667 132.466667,297.301333 132.568,297.408 C132.669333,297.514667 132.72,297.589333 132.72,297.632 C132.72,297.685333 132.682667,297.712 132.608,297.712 L132.608,298 L134.688,298 L134.688,297.712 C134.496,297.712 134.4,297.632 134.4,297.472 L134.4,291.488 C134.4,291.328 134.496,291.248 134.688,291.248 L134.688,290.96 L132.736,290.96 L132.736,291.248 C132.949333,291.248 133.056,291.328 133.056,291.488 L133.056,295.824 L129.216,291.76 C128.981333,291.525333 128.864,291.381333 128.864,291.328 C128.864,291.285333 128.901333,291.258667 128.976,291.248 L128.976,290.96 L126.624,290.96 L126.624,291.248 C126.816,291.248 126.912,291.328 126.912,291.488 L126.912,297.472 C126.912,297.632 126.816,297.712 126.624,297.712 L126.624,298 L128.592,298 Z M140.88,298.048 C141.466667,298.048 142.018667,297.981333 142.536,297.848 C143.053333,297.714667 143.504,297.498667 143.888,297.2 C144.272,296.901333 144.576,296.525333 144.8,296.072 C145.024,295.618667 145.136,295.088 145.136,294.48 C145.136,293.872 145.024,293.341333 144.8,292.888 C144.576,292.434667 144.272,292.058667 143.888,291.76 C143.504,291.461333 143.053333,291.237333 142.536,291.088 C142.018667,290.938667 141.466667,290.864 140.88,290.864 C140.293333,290.864 139.741333,290.938667 139.224,291.088 C138.706667,291.237333 138.256,291.461333 137.872,291.76 C137.488,292.058667 137.184,292.434667 136.96,292.888 C136.736,293.341333 136.624,293.872 136.624,294.48 C136.624,295.088 136.736,295.618667 136.96,296.072 C137.184,296.525333 137.488,296.901333 137.872,297.2 C138.256,297.498667 138.706667,297.714667 139.224,297.848 C139.741333,297.981333 140.293333,298.048 140.88,298.048 Z M140.88,296.912 C140.538667,296.912 140.205333,296.856 139.88,296.744 C139.554667,296.632 139.264,296.472 139.008,296.264 C138.752,296.056 138.546667,295.802667 138.392,295.504 C138.237333,295.205333 138.16,294.864 138.16,294.48 C138.16,294.096 138.237333,293.754667 138.392,293.456 C138.546667,293.157333 138.752,292.904 139.008,292.696 C139.264,292.488 139.554667,292.328 139.88,292.216 C140.205333,292.104 140.538667,292.048 140.88,292.048 C141.221333,292.048 141.554667,292.104 141.88,292.216 C142.205333,292.328 142.496,292.488 142.752,292.696 C143.008,292.904 143.213333,293.157333 143.368,293.456 C143.522667,293.754667 143.6,294.096 143.6,294.48 C143.6,294.864 143.522667,295.205333 143.368,295.504 C143.213333,295.802667 143.008,296.056 142.752,296.264 C142.496,296.472 142.205333,296.632 141.88,296.744 C141.554667,296.856 141.221333,296.912 140.88,296.912 Z M150.832,298 L150.832,297.712 C150.64,297.712 150.544,297.632 150.544,297.472 L150.544,292.144 L152.624,292.144 C152.709333,292.144 152.789333,292.165333 152.864,292.208 C152.938667,292.250667 152.976,292.32 152.976,292.416 L153.264,292.416 L153.264,290.576 L152.976,290.576 C152.976,290.725333 152.938667,290.826667 152.864,290.88 C152.789333,290.933333 152.709333,290.96 152.624,290.96 L146.928,290.96 C146.842667,290.96 146.762667,290.933333 146.688,290.88 C146.613333,290.826667 146.576,290.725333 146.576,290.576 L146.288,290.576 L146.288,292.416 L146.576,292.416 C146.576,292.32 146.613333,292.250667 146.688,292.208 C146.762667,292.165333 146.842667,292.144 146.928,292.144 L149.008,292.144 L149.008,297.472 C149.008,297.557333 148.981333,297.618667 148.928,297.656 C148.874667,297.693333 148.821333,297.712 148.768,297.712 L148.768,298 L150.832,298 Z M163.712,298 L163.712,297.712 C163.52,297.712 163.424,297.632 163.424,297.472 L163.424,292.144 L165.504,292.144 C165.589333,292.144 165.669333,292.165333 165.744,292.208 C165.818667,292.250667 165.856,292.32 165.856,292.416 L166.144,292.416 L166.144,290.576 L165.856,290.576 C165.856,290.725333 165.818667,290.826667 165.744,290.88 C165.669333,290.933333 165.589333,290.96 165.504,290.96 L159.808,290.96 C159.722667,290.96 159.642667,290.933333 159.568,290.88 C159.493333,290.826667 159.456,290.725333 159.456,290.576 L159.168,290.576 L159.168,292.416 L159.456,292.416 C159.456,292.32 159.493333,292.250667 159.568,292.208 C159.642667,292.165333 159.722667,292.144 159.808,292.144 L161.888,292.144 L161.888,297.472 C161.888,297.557333 161.861333,297.618667 161.808,297.656 C161.754667,297.693333 161.701333,297.712 161.648,297.712 L161.648,298 L163.712,298 Z M171.536,298.048 C172.122667,298.048 172.674667,297.981333 173.192,297.848 C173.709333,297.714667 174.16,297.498667 174.544,297.2 C174.928,296.901333 175.232,296.525333 175.456,296.072 C175.68,295.618667 175.792,295.088 175.792,294.48 C175.792,293.872 175.68,293.341333 175.456,292.888 C175.232,292.434667 174.928,292.058667 174.544,291.76 C174.16,291.461333 173.709333,291.237333 173.192,291.088 C172.674667,290.938667 172.122667,290.864 171.536,290.864 C170.949333,290.864 170.397333,290.938667 169.88,291.088 C169.362667,291.237333 168.912,291.461333 168.528,291.76 C168.144,292.058667 167.84,292.434667 167.616,292.888 C167.392,293.341333 167.28,293.872 167.28,294.48 C167.28,295.088 167.392,295.618667 167.616,296.072 C167.84,296.525333 168.144,296.901333 168.528,297.2 C168.912,297.498667 169.362667,297.714667 169.88,297.848 C170.397333,297.981333 170.949333,298.048 171.536,298.048 Z M171.536,296.912 C171.194667,296.912 170.861333,296.856 170.536,296.744 C170.210667,296.632 169.92,296.472 169.664,296.264 C169.408,296.056 169.202667,295.802667 169.048,295.504 C168.893333,295.205333 168.816,294.864 168.816,294.48 C168.816,294.096 168.893333,293.754667 169.048,293.456 C169.202667,293.157333 169.408,292.904 169.664,292.696 C169.92,292.488 170.210667,292.328 170.536,292.216 C170.861333,292.104 171.194667,292.048 171.536,292.048 C171.877333,292.048 172.210667,292.104 172.536,292.216 C172.861333,292.328 173.152,292.488 173.408,292.696 C173.664,292.904 173.869333,293.157333 174.024,293.456 C174.178667,293.754667 174.256,294.096 174.256,294.48 C174.256,294.864 174.178667,295.205333 174.024,295.504 C173.869333,295.802667 173.664,296.056 173.408,296.264 C173.152,296.472 172.861333,296.632 172.536,296.744 C172.210667,296.856 171.877333,296.912 171.536,296.912 Z M187.024,298 L187.024,297.712 C186.832,297.68 186.736,297.632 186.736,297.568 C186.736,297.514667 186.765333,297.44 186.824,297.344 C186.882667,297.248 186.970667,297.061333 187.088,296.784 L189.424,291.616 C189.541333,291.370667 189.674667,291.248 189.824,291.248 L189.824,290.96 L187.728,290.96 L187.728,291.248 C187.877333,291.248 187.957333,291.312 187.968,291.44 C187.978667,291.514667 187.952,291.616 187.888,291.744 C187.824,291.872 187.733333,292.064 187.616,292.32 L185.872,296.192 L184.032,292.208 C183.957333,292.048 183.890667,291.901333 183.832,291.768 C183.773333,291.634667 183.744,291.530667 183.744,291.456 C183.744,291.317333 183.808,291.248 183.936,291.248 L183.936,290.96 L181.68,290.96 L181.68,291.248 C181.744,291.248 181.810667,291.274667 181.88,291.328 C181.949333,291.381333 182.005333,291.456 182.048,291.552 L184.48,296.784 C184.576,296.986667 184.658667,297.146667 184.728,297.264 C184.797333,297.381333 184.832,297.466667 184.832,297.52 C184.832,297.573333 184.808,297.613333 184.76,297.64 C184.712,297.666667 184.661333,297.690667 184.608,297.712 L184.608,298 L187.024,298 Z M192.592,298 L192.592,297.712 C192.496,297.712 192.421333,297.701333 192.368,297.68 C192.314667,297.658667 192.288,297.605333 192.288,297.52 C192.288,297.466667 192.301333,297.405333 192.328,297.336 C192.354667,297.266667 192.389333,297.189333 192.432,297.104 L192.88,296.24 L196.304,296.24 L196.736,297.152 C196.768,297.237333 196.794667,297.306667 196.816,297.36 C196.837333,297.413333 196.848,297.472 196.848,297.536 C196.848,297.621333 196.818667,297.68 196.76,297.712 C196.701333,297.744 196.645333,297.76 196.592,297.76 L196.592,298 L198.864,298 L198.864,297.712 C198.789333,297.690667 198.72,297.658667 198.656,297.616 C198.592,297.573333 198.533333,297.504 198.48,297.408 L195.888,291.968 C195.834667,291.850667 195.784,291.746667 195.736,291.656 C195.688,291.565333 195.664,291.488 195.664,291.424 C195.664,291.349333 195.682667,291.306667 195.72,291.296 C195.757333,291.285333 195.792,291.269333 195.824,291.248 L195.824,290.96 L193.408,290.96 L193.408,291.248 C193.44,291.269333 193.469333,291.288 193.496,291.304 C193.522667,291.32 193.536,291.36 193.536,291.424 C193.536,291.509333 193.517333,291.597333 193.48,291.688 C193.442667,291.778667 193.392,291.898667 193.328,292.048 L190.944,297.248 C190.901333,297.333333 190.84,297.426667 190.76,297.528 C190.68,297.629333 190.576,297.690667 190.448,297.712 L190.448,298 L192.592,298 Z M195.792,295.056 L193.36,295.056 L194.496,292.368 L195.792,295.056 Z M202.048,298 L202.048,297.712 C201.952,297.712 201.904,297.674667 201.904,297.6 C201.904,297.525333 201.978667,297.397333 202.128,297.216 L203.488,295.552 L204.88,297.264 C204.997333,297.445333 205.056,297.552 205.056,297.584 C205.056,297.658667 205.018667,297.701333 204.944,297.712 L204.944,298 L207.392,298 L207.392,297.712 C207.232,297.712 207.093333,297.637333 206.976,297.488 C206.858667,297.338667 206.757333,297.216 206.672,297.12 L204.448,294.32 L206.864,291.408 C206.970667,291.301333 207.109333,291.248 207.28,291.248 L207.28,290.96 L204.832,290.96 L204.832,291.248 C204.970667,291.248 205.04,291.290667 205.04,291.376 C205.04,291.461333 204.954667,291.605333 204.784,291.808 L203.568,293.296 L202.448,291.936 C202.352,291.818667 202.272,291.717333 202.208,291.632 C202.144,291.546667 202.112,291.477333 202.112,291.424 C202.112,291.306667 202.176,291.248 202.304,291.248 L202.304,290.96 L199.792,290.96 L199.792,291.248 C199.866667,291.248 199.952,291.282667 200.048,291.352 C200.144,291.421333 200.266667,291.546667 200.416,291.728 L202.624,294.48 L200.192,297.472 C200.117333,297.568 200.034667,297.632 199.944,297.664 C199.853333,297.696 199.776,297.712 199.712,297.712 L199.712,298 L202.048,298 Z M212.608,295.088 L212.608,294.896 C212.512,294.896 212.442667,294.856 212.4,294.776 C212.357333,294.696 212.336,294.597333 212.336,294.48 C212.336,294.234667 212.432,294.005333 212.624,293.792 C212.816,293.578667 213.024,293.349333 213.248,293.104 C213.482667,292.858667 213.693333,292.589333 213.88,292.296 C214.066667,292.002667 214.16,291.658667 214.16,291.264 C214.16,290.944 214.093333,290.658667 213.96,290.408 C213.826667,290.157333 213.648,289.949333 213.424,289.784 C213.2,289.618667 212.946667,289.490667 212.664,289.4 C212.381333,289.309333 212.096,289.264 211.808,289.264 C211.36,289.264 210.997333,289.317333 210.72,289.424 C210.442667,289.530667 210.213333,289.645333 210.032,289.768 C209.850667,289.890667 209.704,290.005333 209.592,290.112 C209.48,290.218667 209.370667,290.272 209.264,290.272 C209.253333,290.272 209.194667,290.261333 209.088,290.24 L208.944,290.384 L210.176,291.728 L210.32,291.616 C210.288,291.52 210.272,291.424 210.272,291.328 C210.272,291.264 210.301333,291.181333 210.36,291.08 C210.418667,290.978667 210.504,290.885333 210.616,290.8 C210.728,290.714667 210.866667,290.64 211.032,290.576 C211.197333,290.512 211.381333,290.48 211.584,290.48 C211.861333,290.48 212.093333,290.562667 212.28,290.728 C212.466667,290.893333 212.56,291.12 212.56,291.408 C212.56,291.653333 212.490667,291.869333 212.352,292.056 C212.213333,292.242667 212.053333,292.442667 211.872,292.656 C211.701333,292.858667 211.538667,293.093333 211.384,293.36 C211.229333,293.626667 211.130667,293.984 211.088,294.432 C211.066667,294.613333 211.032,294.736 210.984,294.8 C210.936,294.864 210.88,294.896 210.816,294.896 L210.816,295.088 L212.608,295.088 Z M211.696,298.048 C211.973333,298.048 212.213333,297.954667 212.416,297.768 C212.618667,297.581333 212.72,297.349333 212.72,297.072 C212.72,296.794667 212.618667,296.554667 212.416,296.352 C212.213333,296.149333 211.973333,296.048 211.696,296.048 C211.418667,296.048 211.178667,296.149333 210.976,296.352 C210.773333,296.554667 210.672,296.794667 210.672,297.072 C210.672,297.349333 210.773333,297.581333 210.976,297.768 C211.178667,297.954667 211.418667,298.048 211.696,298.048 Z M38.328,314 L38.328,313.712 C38.2426667,313.712 38.168,313.688 38.104,313.64 C38.04,313.592 38.008,313.52 38.008,313.424 L38.008,311.136 L39.352,310.096 L42.088,313.248 C42.2373333,313.429333 42.312,313.546667 42.312,313.6 C42.312,313.674667 42.2426667,313.712 42.104,313.712 L42.104,314 L45.064,314 L45.064,313.712 C44.8826667,313.658667 44.6986667,313.554667 44.512,313.4 C44.3253333,313.245333 44.1626667,313.088 44.024,312.928 L40.664,309.04 L44.344,306.112 C44.536,305.952 44.728,305.872 44.92,305.872 L44.92,305.584 L41.56,305.584 L41.56,305.872 C41.624,305.872 41.68,305.888 41.728,305.92 C41.776,305.952 41.8,306.005333 41.8,306.08 C41.8,306.133333 41.7573333,306.2 41.672,306.28 C41.5866667,306.36 41.4693333,306.464 41.32,306.592 L38.008,309.2 L38.008,306.16 C38.008,306.064 38.04,305.992 38.104,305.944 C38.168,305.896 38.2426667,305.872 38.328,305.872 L38.328,305.584 L35.832,305.584 L35.832,305.872 C36.0666667,305.872 36.184,305.968 36.184,306.16 L36.184,313.424 C36.184,313.616 36.0666667,313.712 35.832,313.712 L35.832,314 L38.328,314 Z M53.256,314.176 L53.256,312.496 L52.968,312.496 C52.968,312.592 52.9253333,312.669333 52.84,312.728 C52.7546667,312.786667 52.648,312.816 52.52,312.816 L48.424,312.816 L48.424,310.928 L50.76,310.928 C50.9733333,310.928 51.1386667,310.941333 51.256,310.968 C51.3733333,310.994667 51.416,311.066667 51.384,311.184 L51.704,311.184 L51.704,309.488 L51.416,309.488 C51.416,309.605333 51.3733333,309.677333 51.288,309.704 C51.2026667,309.730667 51.0693333,309.744 50.888,309.744 L48.424,309.744 L48.424,308.144 L52.328,308.144 C52.6586667,308.144 52.824,308.245333 52.824,308.448 L53.112,308.448 L53.112,306.672 L52.824,306.672 C52.824,306.864 52.6586667,306.96 52.328,306.96 L46.648,306.96 L46.648,307.248 C46.7013333,307.248 46.7546667,307.266667 46.808,307.304 C46.8613333,307.341333 46.888,307.402667 46.888,307.488 L46.888,313.472 C46.888,313.557333 46.8613333,313.618667 46.808,313.656 C46.7546667,313.693333 46.7013333,313.712 46.648,313.712 L46.648,314 L52.52,314 C52.648,314 52.7546667,314.005333 52.84,314.016 C52.9253333,314.026667 52.968,314.08 52.968,314.176 L53.256,314.176 Z M62.152,314.176 L62.152,312.496 L61.864,312.496 C61.864,312.592 61.8213333,312.669333 61.736,312.728 C61.6506667,312.786667 61.544,312.816 61.416,312.816 L57.32,312.816 L57.32,310.928 L59.656,310.928 C59.8693333,310.928 60.0346667,310.941333 60.152,310.968 C60.2693333,310.994667 60.312,311.066667 60.28,311.184 L60.6,311.184 L60.6,309.488 L60.312,309.488 C60.312,309.605333 60.2693333,309.677333 60.184,309.704 C60.0986667,309.730667 59.9653333,309.744 59.784,309.744 L57.32,309.744 L57.32,308.144 L61.224,308.144 C61.5546667,308.144 61.72,308.245333 61.72,308.448 L62.008,308.448 L62.008,306.672 L61.72,306.672 C61.72,306.864 61.5546667,306.96 61.224,306.96 L55.544,306.96 L55.544,307.248 C55.5973333,307.248 55.6506667,307.266667 55.704,307.304 C55.7573333,307.341333 55.784,307.402667 55.784,307.488 L55.784,313.472 C55.784,313.557333 55.7573333,313.618667 55.704,313.656 C55.6506667,313.693333 55.5973333,313.712 55.544,313.712 L55.544,314 L61.416,314 C61.544,314 61.6506667,314.005333 61.736,314.016 C61.8213333,314.026667 61.864,314.08 61.864,314.176 L62.152,314.176 Z M66.472,314 L66.472,313.712 C66.248,313.712 66.136,313.632 66.136,313.472 L66.136,311.072 L68.856,311.072 C69.72,311.072 70.368,310.925333 70.8,310.632 C71.232,310.338667 71.448,309.808 71.448,309.04 C71.448,308.272 71.232,307.733333 70.8,307.424 C70.368,307.114667 69.72,306.96 68.856,306.96 L64.2,306.96 L64.2,307.248 C64.4666667,307.248 64.6,307.328 64.6,307.488 L64.6,313.472 C64.6,313.632 64.4666667,313.712 64.2,313.712 L64.2,314 L66.472,314 Z M66.136,309.888 L66.136,308.144 L68.824,308.144 C69.1333333,308.144 69.392,308.210667 69.6,308.344 C69.808,308.477333 69.912,308.709333 69.912,309.04 C69.912,309.381333 69.808,309.608 69.6,309.72 C69.392,309.832 69.1333333,309.888 68.824,309.888 L66.136,309.888 Z M80.776,314 L80.776,313.712 C80.4773333,313.712 80.328,313.632 80.328,313.472 L80.328,307.488 C80.328,307.328 80.4773333,307.248 80.776,307.248 L80.776,306.96 L78.344,306.96 L78.344,307.248 C78.5146667,307.248 78.632,307.266667 78.696,307.304 C78.76,307.341333 78.792,307.402667 78.792,307.488 L78.792,313.472 C78.792,313.557333 78.76,313.618667 78.696,313.656 C78.632,313.693333 78.5146667,313.712 78.344,313.712 L78.344,314 L80.776,314 Z M85.496,314 L85.496,313.712 C85.272,313.712 85.16,313.632 85.16,313.472 L85.16,308.816 L89.128,313.04 C89.256,313.178667 89.3706667,313.301333 89.472,313.408 C89.5733333,313.514667 89.624,313.589333 89.624,313.632 C89.624,313.685333 89.5866667,313.712 89.512,313.712 L89.512,314 L91.592,314 L91.592,313.712 C91.4,313.712 91.304,313.632 91.304,313.472 L91.304,307.488 C91.304,307.328 91.4,307.248 91.592,307.248 L91.592,306.96 L89.64,306.96 L89.64,307.248 C89.8533333,307.248 89.96,307.328 89.96,307.488 L89.96,311.824 L86.12,307.76 C85.8853333,307.525333 85.768,307.381333 85.768,307.328 C85.768,307.285333 85.8053333,307.258667 85.88,307.248 L85.88,306.96 L83.528,306.96 L83.528,307.248 C83.72,307.248 83.816,307.328 83.816,307.488 L83.816,313.472 C83.816,313.632 83.72,313.712 83.528,313.712 L83.528,314 L85.496,314 Z M101.224,314 L101.224,313.712 C101.128,313.712 101.042667,313.693333 100.968,313.656 C100.893333,313.618667 100.856,313.557333 100.856,313.472 L100.856,311.024 L103.672,311.024 C103.853333,311.024 103.965333,311.045333 104.008,311.088 C104.050667,311.130667 104.077333,311.194667 104.088,311.28 L104.376,311.28 L104.376,309.6 L104.088,309.6 C104.077333,309.685333 104.050667,309.746667 104.008,309.784 C103.965333,309.821333 103.853333,309.84 103.672,309.84 L100.856,309.84 L100.856,308.144 L105.192,308.144 C105.373333,308.144 105.501333,308.168 105.576,308.216 C105.650667,308.264 105.688,308.314667 105.688,308.368 L105.976,308.368 L105.976,306.672 L105.688,306.672 C105.688,306.757333 105.650667,306.826667 105.576,306.88 C105.501333,306.933333 105.373333,306.96 105.192,306.96 L98.984,306.96 L98.984,307.248 C99.208,307.248 99.32,307.328 99.32,307.488 L99.32,313.472 C99.32,313.632 99.2186667,313.712 99.016,313.712 L99.016,314 L101.224,314 Z M110.056,314 L110.056,313.712 C109.992,313.712 109.925333,313.693333 109.856,313.656 C109.786667,313.618667 109.752,313.557333 109.752,313.472 L109.752,311.184 L111.976,311.184 L113.24,313.072 C113.4,313.296 113.48,313.461333 113.48,313.568 C113.48,313.664 113.410667,313.712 113.272,313.712 L113.272,314 L115.72,314 L115.72,313.712 C115.602667,313.68 115.493333,313.634667 115.392,313.576 C115.290667,313.517333 115.197333,313.429333 115.112,313.312 L113.544,311.024 C113.768,310.970667 113.986667,310.893333 114.2,310.792 C114.413333,310.690667 114.608,310.557333 114.784,310.392 C114.96,310.226667 115.101333,310.032 115.208,309.808 C115.314667,309.584 115.368,309.328 115.368,309.04 C115.368,308.282667 115.101333,307.746667 114.568,307.432 C114.034667,307.117333 113.293333,306.96 112.344,306.96 L107.928,306.96 L107.928,307.248 C108.12,307.248 108.216,307.328 108.216,307.488 L108.216,313.472 C108.216,313.632 108.12,313.712 107.928,313.712 L107.928,314 L110.056,314 Z M109.784,310 L109.784,308.144 L112.312,308.144 C112.856,308.144 113.253333,308.221333 113.504,308.376 C113.754667,308.530667 113.88,308.741333 113.88,309.008 C113.88,309.669333 113.357333,310 112.312,310 L109.784,310 Z M121.336,314.048 C121.922667,314.048 122.474667,313.981333 122.992,313.848 C123.509333,313.714667 123.96,313.498667 124.344,313.2 C124.728,312.901333 125.032,312.525333 125.256,312.072 C125.48,311.618667 125.592,311.088 125.592,310.48 C125.592,309.872 125.48,309.341333 125.256,308.888 C125.032,308.434667 124.728,308.058667 124.344,307.76 C123.96,307.461333 123.509333,307.237333 122.992,307.088 C122.474667,306.938667 121.922667,306.864 121.336,306.864 C120.749333,306.864 120.197333,306.938667 119.68,307.088 C119.162667,307.237333 118.712,307.461333 118.328,307.76 C117.944,308.058667 117.64,308.434667 117.416,308.888 C117.192,309.341333 117.08,309.872 117.08,310.48 C117.08,311.088 117.192,311.618667 117.416,312.072 C117.64,312.525333 117.944,312.901333 118.328,313.2 C118.712,313.498667 119.162667,313.714667 119.68,313.848 C120.197333,313.981333 120.749333,314.048 121.336,314.048 Z M121.336,312.912 C120.994667,312.912 120.661333,312.856 120.336,312.744 C120.010667,312.632 119.72,312.472 119.464,312.264 C119.208,312.056 119.002667,311.802667 118.848,311.504 C118.693333,311.205333 118.616,310.864 118.616,310.48 C118.616,310.096 118.693333,309.754667 118.848,309.456 C119.002667,309.157333 119.208,308.904 119.464,308.696 C119.72,308.488 120.010667,308.328 120.336,308.216 C120.661333,308.104 120.994667,308.048 121.336,308.048 C121.677333,308.048 122.010667,308.104 122.336,308.216 C122.661333,308.328 122.952,308.488 123.208,308.696 C123.464,308.904 123.669333,309.157333 123.824,309.456 C123.978667,309.754667 124.056,310.096 124.056,310.48 C124.056,310.864 123.978667,311.205333 123.824,311.504 C123.669333,311.802667 123.464,312.056 123.208,312.264 C122.952,312.472 122.661333,312.632 122.336,312.744 C122.010667,312.856 121.677333,312.912 121.336,312.912 Z M129.496,314 L129.496,313.712 C129.272,313.712 129.16,313.632 129.16,313.472 L129.16,308.816 L133.128,313.04 C133.256,313.178667 133.370667,313.301333 133.472,313.408 C133.573333,313.514667 133.624,313.589333 133.624,313.632 C133.624,313.685333 133.586667,313.712 133.512,313.712 L133.512,314 L135.592,314 L135.592,313.712 C135.4,313.712 135.304,313.632 135.304,313.472 L135.304,307.488 C135.304,307.328 135.4,307.248 135.592,307.248 L135.592,306.96 L133.64,306.96 L133.64,307.248 C133.853333,307.248 133.96,307.328 133.96,307.488 L133.96,311.824 L130.12,307.76 C129.885333,307.525333 129.768,307.381333 129.768,307.328 C129.768,307.285333 129.805333,307.258667 129.88,307.248 L129.88,306.96 L127.528,306.96 L127.528,307.248 C127.72,307.248 127.816,307.328 127.816,307.488 L127.816,313.472 C127.816,313.632 127.72,313.712 127.528,313.712 L127.528,314 L129.496,314 Z M141.96,314 L141.96,313.712 C141.768,313.712 141.672,313.632 141.672,313.472 L141.672,308.144 L143.752,308.144 C143.837333,308.144 143.917333,308.165333 143.992,308.208 C144.066667,308.250667 144.104,308.32 144.104,308.416 L144.392,308.416 L144.392,306.576 L144.104,306.576 C144.104,306.725333 144.066667,306.826667 143.992,306.88 C143.917333,306.933333 143.837333,306.96 143.752,306.96 L138.056,306.96 C137.970667,306.96 137.890667,306.933333 137.816,306.88 C137.741333,306.826667 137.704,306.725333 137.704,306.576 L137.416,306.576 L137.416,308.416 L137.704,308.416 C137.704,308.32 137.741333,308.250667 137.816,308.208 C137.890667,308.165333 137.970667,308.144 138.056,308.144 L140.136,308.144 L140.136,313.472 C140.136,313.557333 140.109333,313.618667 140.056,313.656 C140.002667,313.693333 139.949333,313.712 139.896,313.712 L139.896,314 L141.96,314 Z M154.664,314.048 C155.250667,314.048 155.802667,313.981333 156.32,313.848 C156.837333,313.714667 157.288,313.498667 157.672,313.2 C158.056,312.901333 158.36,312.525333 158.584,312.072 C158.808,311.618667 158.92,311.088 158.92,310.48 C158.92,309.872 158.808,309.341333 158.584,308.888 C158.36,308.434667 158.056,308.058667 157.672,307.76 C157.288,307.461333 156.837333,307.237333 156.32,307.088 C155.802667,306.938667 155.250667,306.864 154.664,306.864 C154.077333,306.864 153.525333,306.938667 153.008,307.088 C152.490667,307.237333 152.04,307.461333 151.656,307.76 C151.272,308.058667 150.968,308.434667 150.744,308.888 C150.52,309.341333 150.408,309.872 150.408,310.48 C150.408,311.088 150.52,311.618667 150.744,312.072 C150.968,312.525333 151.272,312.901333 151.656,313.2 C152.04,313.498667 152.490667,313.714667 153.008,313.848 C153.525333,313.981333 154.077333,314.048 154.664,314.048 Z M154.664,312.912 C154.322667,312.912 153.989333,312.856 153.664,312.744 C153.338667,312.632 153.048,312.472 152.792,312.264 C152.536,312.056 152.330667,311.802667 152.176,311.504 C152.021333,311.205333 151.944,310.864 151.944,310.48 C151.944,310.096 152.021333,309.754667 152.176,309.456 C152.330667,309.157333 152.536,308.904 152.792,308.696 C153.048,308.488 153.338667,308.328 153.664,308.216 C153.989333,308.104 154.322667,308.048 154.664,308.048 C155.005333,308.048 155.338667,308.104 155.664,308.216 C155.989333,308.328 156.28,308.488 156.536,308.696 C156.792,308.904 156.997333,309.157333 157.152,309.456 C157.306667,309.754667 157.384,310.096 157.384,310.48 C157.384,310.864 157.306667,311.205333 157.152,311.504 C156.997333,311.802667 156.792,312.056 156.536,312.264 C156.28,312.472 155.989333,312.632 155.664,312.744 C155.338667,312.856 155.005333,312.912 154.664,312.912 Z M163,314 L163,313.712 C162.904,313.712 162.818667,313.693333 162.744,313.656 C162.669333,313.618667 162.632,313.557333 162.632,313.472 L162.632,311.024 L165.448,311.024 C165.629333,311.024 165.741333,311.045333 165.784,311.088 C165.826667,311.130667 165.853333,311.194667 165.864,311.28 L166.152,311.28 L166.152,309.6 L165.864,309.6 C165.853333,309.685333 165.826667,309.746667 165.784,309.784 C165.741333,309.821333 165.629333,309.84 165.448,309.84 L162.632,309.84 L162.632,308.144 L166.968,308.144 C167.149333,308.144 167.277333,308.168 167.352,308.216 C167.426667,308.264 167.464,308.314667 167.464,308.368 L167.752,308.368 L167.752,306.672 L167.464,306.672 C167.464,306.757333 167.426667,306.826667 167.352,306.88 C167.277333,306.933333 167.149333,306.96 166.968,306.96 L160.76,306.96 L160.76,307.248 C160.984,307.248 161.096,307.328 161.096,307.488 L161.096,313.472 C161.096,313.632 160.994667,313.712 160.792,313.712 L160.792,314 L163,314 Z M178.856,314 L178.856,313.712 C178.653333,313.712 178.552,313.632 178.552,313.472 L178.552,311.072 L181,307.904 C181.117333,307.754667 181.253333,307.608 181.408,307.464 C181.562667,307.32 181.704,307.248 181.832,307.248 L181.832,306.96 L179.384,306.96 L179.384,307.248 C179.437333,307.248 179.490667,307.258667 179.544,307.28 C179.597333,307.301333 179.624,307.354667 179.624,307.44 C179.624,307.504 179.6,307.570667 179.552,307.64 C179.504,307.709333 179.432,307.813333 179.336,307.952 L177.912,309.936 L176.296,307.824 C176.242667,307.749333 176.194667,307.685333 176.152,307.632 C176.109333,307.578667 176.088,307.52 176.088,307.456 C176.088,307.392 176.12,307.341333 176.184,307.304 C176.248,307.266667 176.306667,307.248 176.36,307.248 L176.36,306.96 L173.72,306.96 L173.72,307.248 C173.816,307.248 173.917333,307.269333 174.024,307.312 C174.130667,307.354667 174.221333,307.424 174.296,307.52 L177.016,311.008 L177.016,313.472 C177.016,313.632 176.92,313.712 176.728,313.712 L176.728,314 L178.856,314 Z M187.112,314.048 C187.698667,314.048 188.250667,313.981333 188.768,313.848 C189.285333,313.714667 189.736,313.498667 190.12,313.2 C190.504,312.901333 190.808,312.525333 191.032,312.072 C191.256,311.618667 191.368,311.088 191.368,310.48 C191.368,309.872 191.256,309.341333 191.032,308.888 C190.808,308.434667 190.504,308.058667 190.12,307.76 C189.736,307.461333 189.285333,307.237333 188.768,307.088 C188.250667,306.938667 187.698667,306.864 187.112,306.864 C186.525333,306.864 185.973333,306.938667 185.456,307.088 C184.938667,307.237333 184.488,307.461333 184.104,307.76 C183.72,308.058667 183.416,308.434667 183.192,308.888 C182.968,309.341333 182.856,309.872 182.856,310.48 C182.856,311.088 182.968,311.618667 183.192,312.072 C183.416,312.525333 183.72,312.901333 184.104,313.2 C184.488,313.498667 184.938667,313.714667 185.456,313.848 C185.973333,313.981333 186.525333,314.048 187.112,314.048 Z M187.112,312.912 C186.770667,312.912 186.437333,312.856 186.112,312.744 C185.786667,312.632 185.496,312.472 185.24,312.264 C184.984,312.056 184.778667,311.802667 184.624,311.504 C184.469333,311.205333 184.392,310.864 184.392,310.48 C184.392,310.096 184.469333,309.754667 184.624,309.456 C184.778667,309.157333 184.984,308.904 185.24,308.696 C185.496,308.488 185.786667,308.328 186.112,308.216 C186.437333,308.104 186.770667,308.048 187.112,308.048 C187.453333,308.048 187.786667,308.104 188.112,308.216 C188.437333,308.328 188.728,308.488 188.984,308.696 C189.24,308.904 189.445333,309.157333 189.6,309.456 C189.754667,309.754667 189.832,310.096 189.832,310.48 C189.832,310.864 189.754667,311.205333 189.6,311.504 C189.445333,311.802667 189.24,312.056 188.984,312.264 C188.728,312.472 188.437333,312.632 188.112,312.744 C187.786667,312.856 187.453333,312.912 187.112,312.912 Z M197.4,314.048 C198.04,314.048 198.597333,313.981333 199.072,313.848 C199.546667,313.714667 199.936,313.530667 200.24,313.296 C200.544,313.061333 200.770667,312.792 200.92,312.488 C201.069333,312.184 201.144,311.866667 201.144,311.536 L201.144,307.488 C201.144,307.328 201.261333,307.248 201.496,307.248 L201.496,306.96 L199.272,306.96 L199.272,307.248 C199.538667,307.248 199.672,307.328 199.672,307.488 L199.672,311.152 C199.672,311.664 199.485333,312.074667 199.112,312.384 C198.738667,312.693333 198.168,312.848 197.4,312.848 C196.632,312.848 196.061333,312.693333 195.688,312.384 C195.314667,312.074667 195.128,311.664 195.128,311.152 L195.128,307.488 C195.128,307.328 195.245333,307.248 195.48,307.248 L195.48,306.96 L193.192,306.96 L193.192,307.248 C193.373333,307.248 193.496,307.266667 193.56,307.304 C193.624,307.341333 193.656,307.402667 193.656,307.488 L193.656,311.536 C193.656,311.866667 193.730667,312.184 193.88,312.488 C194.029333,312.792 194.256,313.061333 194.56,313.296 C194.864,313.530667 195.253333,313.714667 195.728,313.848 C196.202667,313.981333 196.76,314.048 197.4,314.048 Z M212.616,314 L212.616,313.712 C212.424,313.712 212.328,313.632 212.328,313.472 L212.328,308.144 L214.408,308.144 C214.493333,308.144 214.573333,308.165333 214.648,308.208 C214.722667,308.250667 214.76,308.32 214.76,308.416 L215.048,308.416 L215.048,306.576 L214.76,306.576 C214.76,306.725333 214.722667,306.826667 214.648,306.88 C214.573333,306.933333 214.493333,306.96 214.408,306.96 L208.712,306.96 C208.626667,306.96 208.546667,306.933333 208.472,306.88 C208.397333,306.826667 208.36,306.725333 208.36,306.576 L208.072,306.576 L208.072,308.416 L208.36,308.416 C208.36,308.32 208.397333,308.250667 208.472,308.208 C208.546667,308.165333 208.626667,308.144 208.712,308.144 L210.792,308.144 L210.792,313.472 C210.792,313.557333 210.765333,313.618667 210.712,313.656 C210.658667,313.693333 210.605333,313.712 210.552,313.712 L210.552,314 L212.616,314 Z M220.44,314.048 C221.026667,314.048 221.578667,313.981333 222.096,313.848 C222.613333,313.714667 223.064,313.498667 223.448,313.2 C223.832,312.901333 224.136,312.525333 224.36,312.072 C224.584,311.618667 224.696,311.088 224.696,310.48 C224.696,309.872 224.584,309.341333 224.36,308.888 C224.136,308.434667 223.832,308.058667 223.448,307.76 C223.064,307.461333 222.613333,307.237333 222.096,307.088 C221.578667,306.938667 221.026667,306.864 220.44,306.864 C219.853333,306.864 219.301333,306.938667 218.784,307.088 C218.266667,307.237333 217.816,307.461333 217.432,307.76 C217.048,308.058667 216.744,308.434667 216.52,308.888 C216.296,309.341333 216.184,309.872 216.184,310.48 C216.184,311.088 216.296,311.618667 216.52,312.072 C216.744,312.525333 217.048,312.901333 217.432,313.2 C217.816,313.498667 218.266667,313.714667 218.784,313.848 C219.301333,313.981333 219.853333,314.048 220.44,314.048 Z M220.44,312.912 C220.098667,312.912 219.765333,312.856 219.44,312.744 C219.114667,312.632 218.824,312.472 218.568,312.264 C218.312,312.056 218.106667,311.802667 217.952,311.504 C217.797333,311.205333 217.72,310.864 217.72,310.48 C217.72,310.096 217.797333,309.754667 217.952,309.456 C218.106667,309.157333 218.312,308.904 218.568,308.696 C218.824,308.488 219.114667,308.328 219.44,308.216 C219.765333,308.104 220.098667,308.048 220.44,308.048 C220.781333,308.048 221.114667,308.104 221.44,308.216 C221.765333,308.328 222.056,308.488 222.312,308.696 C222.568,308.904 222.773333,309.157333 222.928,309.456 C223.082667,309.754667 223.16,310.096 223.16,310.48 C223.16,310.864 223.082667,311.205333 222.928,311.504 C222.773333,311.802667 222.568,312.056 222.312,312.264 C222.056,312.472 221.765333,312.632 221.44,312.744 C221.114667,312.856 220.781333,312.912 220.44,312.912 Z M71.392,330.048 C71.872,330.048 72.3066667,330.005333 72.696,329.92 C73.0853333,329.834667 73.4266667,329.730667 73.72,329.608 C74.0133333,329.485333 74.256,329.376 74.448,329.28 C74.64,329.184 74.7786667,329.136 74.864,329.136 C74.9173333,329.136 75.008,329.162667 75.136,329.216 L75.296,329.136 L74.112,327.44 L73.936,327.6 C73.9466667,327.642667 73.952,327.696 73.952,327.76 L73.952,327.888 C73.952,327.984 73.8746667,328.090667 73.72,328.208 C73.5653333,328.325333 73.3653333,328.434667 73.12,328.536 C72.8746667,328.637333 72.6026667,328.725333 72.304,328.8 C72.0053333,328.874667 71.712,328.912 71.424,328.912 C71.1146667,328.912 70.8106667,328.856 70.512,328.744 C70.2133333,328.632 69.9466667,328.466667 69.712,328.248 C69.4773333,328.029333 69.288,327.768 69.144,327.464 C69,327.16 68.928,326.816 68.928,326.432 C68.928,326.048 68.992,325.706667 69.12,325.408 C69.248,325.109333 69.4293333,324.858667 69.664,324.656 C69.8986667,324.453333 70.1733333,324.301333 70.488,324.2 C70.8026667,324.098667 71.152,324.048 71.536,324.048 C71.856,324.048 72.1493333,324.077333 72.416,324.136 C72.6826667,324.194667 72.9146667,324.266667 73.112,324.352 C73.3093333,324.437333 73.4613333,324.525333 73.568,324.616 C73.6746667,324.706667 73.728,324.778667 73.728,324.832 C73.728,324.864 73.7306667,324.890667 73.736,324.912 C73.7413333,324.933333 73.744,324.954667 73.744,324.976 L73.92,325.104 L74.976,323.584 L74.784,323.472 C74.7413333,323.493333 74.7013333,323.52 74.664,323.552 C74.6266667,323.584 74.5813333,323.6 74.528,323.6 C74.4533333,323.6 74.3306667,323.562667 74.16,323.488 C73.9893333,323.413333 73.776,323.328 73.52,323.232 C73.264,323.136 72.968,323.050667 72.632,322.976 C72.296,322.901333 71.9253333,322.864 71.52,322.864 C70.9973333,322.864 70.488,322.938667 69.992,323.088 C69.496,323.237333 69.056,323.464 68.672,323.768 C68.288,324.072 67.9786667,324.448 67.744,324.896 C67.5093333,325.344 67.392,325.866667 67.392,326.464 C67.392,327.061333 67.5093333,327.586667 67.744,328.04 C67.9786667,328.493333 68.2826667,328.872 68.656,329.176 C69.0293333,329.48 69.456,329.701333 69.936,329.84 C70.416,329.978667 70.9013333,330.048 71.392,330.048 Z M81.168,330.048 C81.808,330.048 82.3653333,329.981333 82.84,329.848 C83.3146667,329.714667 83.704,329.530667 84.008,329.296 C84.312,329.061333 84.5386667,328.792 84.688,328.488 C84.8373333,328.184 84.912,327.866667 84.912,327.536 L84.912,323.488 C84.912,323.328 85.0293333,323.248 85.264,323.248 L85.264,322.96 L83.04,322.96 L83.04,323.248 C83.3066667,323.248 83.44,323.328 83.44,323.488 L83.44,327.152 C83.44,327.664 83.2533333,328.074667 82.88,328.384 C82.5066667,328.693333 81.936,328.848 81.168,328.848 C80.4,328.848 79.8293333,328.693333 79.456,328.384 C79.0826667,328.074667 78.896,327.664 78.896,327.152 L78.896,323.488 C78.896,323.328 79.0133333,323.248 79.248,323.248 L79.248,322.96 L76.96,322.96 L76.96,323.248 C77.1413333,323.248 77.264,323.266667 77.328,323.304 C77.392,323.341333 77.424,323.402667 77.424,323.488 L77.424,327.536 C77.424,327.866667 77.4986667,328.184 77.648,328.488 C77.7973333,328.792 78.024,329.061333 78.328,329.296 C78.632,329.530667 79.0213333,329.714667 79.496,329.848 C79.9706667,329.981333 80.528,330.048 81.168,330.048 Z M89.824,330 L89.824,329.712 C89.76,329.712 89.6933333,329.693333 89.624,329.656 C89.5546667,329.618667 89.52,329.557333 89.52,329.472 L89.52,327.184 L91.744,327.184 L93.008,329.072 C93.168,329.296 93.248,329.461333 93.248,329.568 C93.248,329.664 93.1786667,329.712 93.04,329.712 L93.04,330 L95.488,330 L95.488,329.712 C95.3706667,329.68 95.2613333,329.634667 95.16,329.576 C95.0586667,329.517333 94.9653333,329.429333 94.88,329.312 L93.312,327.024 C93.536,326.970667 93.7546667,326.893333 93.968,326.792 C94.1813333,326.690667 94.376,326.557333 94.552,326.392 C94.728,326.226667 94.8693333,326.032 94.976,325.808 C95.0826667,325.584 95.136,325.328 95.136,325.04 C95.136,324.282667 94.8693333,323.746667 94.336,323.432 C93.8026667,323.117333 93.0613333,322.96 92.112,322.96 L87.696,322.96 L87.696,323.248 C87.888,323.248 87.984,323.328 87.984,323.488 L87.984,329.472 C87.984,329.632 87.888,329.712 87.696,329.712 L87.696,330 L89.824,330 Z M89.552,326 L89.552,324.144 L92.08,324.144 C92.624,324.144 93.0213333,324.221333 93.272,324.376 C93.5226667,324.530667 93.648,324.741333 93.648,325.008 C93.648,325.669333 93.1253333,326 92.08,326 L89.552,326 Z M104.144,330.176 L104.144,328.496 L103.856,328.496 C103.856,328.592 103.813333,328.669333 103.728,328.728 C103.642667,328.786667 103.536,328.816 103.408,328.816 L99.312,328.816 L99.312,326.928 L101.648,326.928 C101.861333,326.928 102.026667,326.941333 102.144,326.968 C102.261333,326.994667 102.304,327.066667 102.272,327.184 L102.592,327.184 L102.592,325.488 L102.304,325.488 C102.304,325.605333 102.261333,325.677333 102.176,325.704 C102.090667,325.730667 101.957333,325.744 101.776,325.744 L99.312,325.744 L99.312,324.144 L103.216,324.144 C103.546667,324.144 103.712,324.245333 103.712,324.448 L104,324.448 L104,322.672 L103.712,322.672 C103.712,322.864 103.546667,322.96 103.216,322.96 L97.536,322.96 L97.536,323.248 C97.5893333,323.248 97.6426667,323.266667 97.696,323.304 C97.7493333,323.341333 97.776,323.402667 97.776,323.488 L97.776,329.472 C97.776,329.557333 97.7493333,329.618667 97.696,329.656 C97.6426667,329.693333 97.5893333,329.712 97.536,329.712 L97.536,330 L103.408,330 C103.536,330 103.642667,330.005333 103.728,330.016 C103.813333,330.026667 103.856,330.08 103.856,330.176 L104.144,330.176 Z M115.168,330.048 C115.605333,330.048 116.077333,330.013333 116.584,329.944 C117.090667,329.874667 117.562667,329.738667 118,329.536 C118.437333,329.333333 118.802667,329.056 119.096,328.704 C119.389333,328.352 119.536,327.898667 119.536,327.344 C119.536,326.864 119.442667,326.474667 119.256,326.176 C119.069333,325.877333 118.824,325.64 118.52,325.464 C118.216,325.288 117.869333,325.16 117.48,325.08 C117.090667,325 116.693333,324.944 116.288,324.912 C115.882667,324.88 115.485333,324.853333 115.096,324.832 C114.706667,324.810667 114.36,324.768 114.056,324.704 C113.752,324.64 113.506667,324.544 113.32,324.416 C113.133333,324.288 113.04,324.096 113.04,323.84 C113.04,323.658667 113.106667,323.506667 113.24,323.384 C113.373333,323.261333 113.541333,323.162667 113.744,323.088 C113.946667,323.013333 114.173333,322.957333 114.424,322.92 C114.674667,322.882667 114.917333,322.864 115.152,322.864 C115.461333,322.864 115.770667,322.893333 116.08,322.952 C116.389333,323.010667 116.677333,323.088 116.944,323.184 C117.210667,323.28 117.442667,323.389333 117.64,323.512 C117.837333,323.634667 117.978667,323.76 118.064,323.888 C118.128,323.984 118.170667,324.106667 118.192,324.256 L118.352,324.32 L119.456,322.32 L119.264,322.192 C119.2,322.256 119.093333,322.288 118.944,322.288 C118.805333,322.288 118.632,322.245333 118.424,322.16 C118.216,322.074667 117.96,321.984 117.656,321.888 C117.352,321.792 116.992,321.701333 116.576,321.616 C116.16,321.530667 115.669333,321.488 115.104,321.488 C114.442667,321.488 113.866667,321.565333 113.376,321.72 C112.885333,321.874667 112.48,322.074667 112.16,322.32 C111.84,322.565333 111.602667,322.848 111.448,323.168 C111.293333,323.488 111.216,323.813333 111.216,324.144 C111.216,324.634667 111.309333,325.032 111.496,325.336 C111.682667,325.64 111.928,325.88 112.232,326.056 C112.536,326.232 112.882667,326.357333 113.272,326.432 C113.661333,326.506667 114.058667,326.56 114.464,326.592 C114.869333,326.624 115.266667,326.648 115.656,326.664 C116.045333,326.68 116.392,326.714667 116.696,326.768 C117,326.821333 117.245333,326.906667 117.432,327.024 C117.618667,327.141333 117.712,327.322667 117.712,327.568 C117.712,327.813333 117.610667,328.010667 117.408,328.16 C117.205333,328.309333 116.965333,328.426667 116.688,328.512 C116.410667,328.597333 116.128,328.653333 115.84,328.68 C115.552,328.706667 115.317333,328.72 115.136,328.72 C114.890667,328.72 114.613333,328.690667 114.304,328.632 C113.994667,328.573333 113.698667,328.496 113.416,328.4 C113.133333,328.304 112.882667,328.194667 112.664,328.072 C112.445333,327.949333 112.298667,327.824 112.224,327.696 C112.181333,327.621333 112.16,327.536 112.16,327.44 L112,327.36 L111.12,329.296 L111.344,329.424 C111.408,329.338667 111.477333,329.296 111.552,329.296 C111.669333,329.296 111.808,329.336 111.968,329.416 C112.128,329.496 112.344,329.586667 112.616,329.688 C112.888,329.789333 113.229333,329.874667 113.64,329.944 C114.050667,330.013333 114.56,330.048 115.168,330.048 Z M126.192,330 L126.192,329.712 C125.989333,329.712 125.888,329.632 125.888,329.472 L125.888,327.072 L128.336,323.904 C128.453333,323.754667 128.589333,323.608 128.744,323.464 C128.898667,323.32 129.04,323.248 129.168,323.248 L129.168,322.96 L126.72,322.96 L126.72,323.248 C126.773333,323.248 126.826667,323.258667 126.88,323.28 C126.933333,323.301333 126.96,323.354667 126.96,323.44 C126.96,323.504 126.936,323.570667 126.888,323.64 C126.84,323.709333 126.768,323.813333 126.672,323.952 L125.248,325.936 L123.632,323.824 C123.578667,323.749333 123.530667,323.685333 123.488,323.632 C123.445333,323.578667 123.424,323.52 123.424,323.456 C123.424,323.392 123.456,323.341333 123.52,323.304 C123.584,323.266667 123.642667,323.248 123.696,323.248 L123.696,322.96 L121.056,322.96 L121.056,323.248 C121.152,323.248 121.253333,323.269333 121.36,323.312 C121.466667,323.354667 121.557333,323.424 121.632,323.52 L124.352,327.008 L124.352,329.472 C124.352,329.632 124.256,329.712 124.064,329.712 L124.064,330 L126.192,330 Z M132.864,330 L132.864,329.712 C132.682667,329.712 132.592,329.632 132.592,329.472 L132.592,324.976 L132.608,324.976 L135.184,330 L135.312,330 L138.032,324.976 L138.064,324.976 L138.064,329.472 C138.096,329.632 138,329.712 137.776,329.712 L137.776,330 L139.632,330 L139.632,329.712 C139.578667,329.712 139.528,329.693333 139.48,329.656 C139.432,329.618667 139.408,329.557333 139.408,329.472 L139.408,323.456 C139.408,323.370667 139.432,323.314667 139.48,323.288 C139.528,323.261333 139.578667,323.248 139.632,323.248 L139.632,322.96 L137.376,322.96 L137.376,323.248 C137.461333,323.248 137.504,323.296 137.504,323.392 C137.504,323.424 137.482667,323.48 137.44,323.56 C137.397333,323.64 137.338667,323.744 137.264,323.872 L135.296,327.456 L133.344,323.856 C133.269333,323.728 133.213333,323.629333 133.176,323.56 C133.138667,323.490667 133.12,323.434667 133.12,323.392 C133.12,323.296 133.173333,323.248 133.28,323.248 L133.28,322.96 L131.056,322.96 L131.056,323.248 C131.130667,323.248 131.181333,323.264 131.208,323.296 C131.234667,323.328 131.248,323.418667 131.248,323.568 L131.248,329.424 C131.248,329.541333 131.229333,329.616 131.192,329.648 C131.154667,329.68 131.109333,329.701333 131.056,329.712 L131.056,330 L132.864,330 Z M144.464,330 L144.464,329.712 C144.24,329.712 144.128,329.632 144.128,329.472 L144.128,327.072 L146.848,327.072 C147.712,327.072 148.36,326.925333 148.792,326.632 C149.224,326.338667 149.44,325.808 149.44,325.04 C149.44,324.272 149.224,323.733333 148.792,323.424 C148.36,323.114667 147.712,322.96 146.848,322.96 L142.192,322.96 L142.192,323.248 C142.458667,323.248 142.592,323.328 142.592,323.488 L142.592,329.472 C142.592,329.632 142.458667,329.712 142.192,329.712 L142.192,330 L144.464,330 Z M144.128,325.888 L144.128,324.144 L146.816,324.144 C147.125333,324.144 147.384,324.210667 147.592,324.344 C147.8,324.477333 147.904,324.709333 147.904,325.04 C147.904,325.381333 147.8,325.608 147.592,325.72 C147.384,325.832 147.125333,325.888 146.816,325.888 L144.128,325.888 Z M155.072,330 L155.072,329.712 C154.88,329.712 154.784,329.632 154.784,329.472 L154.784,324.144 L156.864,324.144 C156.949333,324.144 157.029333,324.165333 157.104,324.208 C157.178667,324.250667 157.216,324.32 157.216,324.416 L157.504,324.416 L157.504,322.576 L157.216,322.576 C157.216,322.725333 157.178667,322.826667 157.104,322.88 C157.029333,322.933333 156.949333,322.96 156.864,322.96 L151.168,322.96 C151.082667,322.96 151.002667,322.933333 150.928,322.88 C150.853333,322.826667 150.816,322.725333 150.816,322.576 L150.528,322.576 L150.528,324.416 L150.816,324.416 C150.816,324.32 150.853333,324.250667 150.928,324.208 C151.002667,324.165333 151.082667,324.144 151.168,324.144 L153.248,324.144 L153.248,329.472 C153.248,329.557333 153.221333,329.618667 153.168,329.656 C153.114667,329.693333 153.061333,329.712 153.008,329.712 L153.008,330 L155.072,330 Z M162.896,330.048 C163.482667,330.048 164.034667,329.981333 164.552,329.848 C165.069333,329.714667 165.52,329.498667 165.904,329.2 C166.288,328.901333 166.592,328.525333 166.816,328.072 C167.04,327.618667 167.152,327.088 167.152,326.48 C167.152,325.872 167.04,325.341333 166.816,324.888 C166.592,324.434667 166.288,324.058667 165.904,323.76 C165.52,323.461333 165.069333,323.237333 164.552,323.088 C164.034667,322.938667 163.482667,322.864 162.896,322.864 C162.309333,322.864 161.757333,322.938667 161.24,323.088 C160.722667,323.237333 160.272,323.461333 159.888,323.76 C159.504,324.058667 159.2,324.434667 158.976,324.888 C158.752,325.341333 158.64,325.872 158.64,326.48 C158.64,327.088 158.752,327.618667 158.976,328.072 C159.2,328.525333 159.504,328.901333 159.888,329.2 C160.272,329.498667 160.722667,329.714667 161.24,329.848 C161.757333,329.981333 162.309333,330.048 162.896,330.048 Z M162.896,328.912 C162.554667,328.912 162.221333,328.856 161.896,328.744 C161.570667,328.632 161.28,328.472 161.024,328.264 C160.768,328.056 160.562667,327.802667 160.408,327.504 C160.253333,327.205333 160.176,326.864 160.176,326.48 C160.176,326.096 160.253333,325.754667 160.408,325.456 C160.562667,325.157333 160.768,324.904 161.024,324.696 C161.28,324.488 161.570667,324.328 161.896,324.216 C162.221333,324.104 162.554667,324.048 162.896,324.048 C163.237333,324.048 163.570667,324.104 163.896,324.216 C164.221333,324.328 164.512,324.488 164.768,324.696 C165.024,324.904 165.229333,325.157333 165.384,325.456 C165.538667,325.754667 165.616,326.096 165.616,326.48 C165.616,326.864 165.538667,327.205333 165.384,327.504 C165.229333,327.802667 165.024,328.056 164.768,328.264 C164.512,328.472 164.221333,328.632 163.896,328.744 C163.570667,328.856 163.237333,328.912 162.896,328.912 Z M171.088,330 L171.088,329.712 C170.906667,329.712 170.816,329.632 170.816,329.472 L170.816,324.976 L170.832,324.976 L173.408,330 L173.536,330 L176.256,324.976 L176.288,324.976 L176.288,329.472 C176.32,329.632 176.224,329.712 176,329.712 L176,330 L177.856,330 L177.856,329.712 C177.802667,329.712 177.752,329.693333 177.704,329.656 C177.656,329.618667 177.632,329.557333 177.632,329.472 L177.632,323.456 C177.632,323.370667 177.656,323.314667 177.704,323.288 C177.752,323.261333 177.802667,323.248 177.856,323.248 L177.856,322.96 L175.6,322.96 L175.6,323.248 C175.685333,323.248 175.728,323.296 175.728,323.392 C175.728,323.424 175.706667,323.48 175.664,323.56 C175.621333,323.64 175.562667,323.744 175.488,323.872 L173.52,327.456 L171.568,323.856 C171.493333,323.728 171.437333,323.629333 171.4,323.56 C171.362667,323.490667 171.344,323.434667 171.344,323.392 C171.344,323.296 171.397333,323.248 171.504,323.248 L171.504,322.96 L169.28,322.96 L169.28,323.248 C169.354667,323.248 169.405333,323.264 169.432,323.296 C169.458667,323.328 169.472,323.418667 169.472,323.568 L169.472,329.424 C169.472,329.541333 169.453333,329.616 169.416,329.648 C169.378667,329.68 169.333333,329.701333 169.28,329.712 L169.28,330 L171.088,330 Z M183.664,330.048 C184.026667,330.048 184.413333,330.021333 184.824,329.968 C185.234667,329.914667 185.610667,329.802667 185.952,329.632 C186.293333,329.461333 186.578667,329.226667 186.808,328.928 C187.037333,328.629333 187.152,328.245333 187.152,327.776 C187.152,327.306667 187.021333,326.938667 186.76,326.672 C186.498667,326.405333 186.170667,326.202667 185.776,326.064 C185.381333,325.925333 184.954667,325.826667 184.496,325.768 C184.037333,325.709333 183.610667,325.650667 183.216,325.592 C182.821333,325.533333 182.493333,325.453333 182.232,325.352 C181.970667,325.250667 181.84,325.082667 181.84,324.848 C181.84,324.698667 181.882667,324.573333 181.968,324.472 C182.053333,324.370667 182.170667,324.288 182.32,324.224 C182.469333,324.16 182.64,324.114667 182.832,324.088 C183.024,324.061333 183.226667,324.048 183.44,324.048 C183.994667,324.048 184.496,324.112 184.944,324.24 C185.392,324.368 185.722667,324.522667 185.936,324.704 C186.021333,324.768 186.069333,324.832 186.08,324.896 C186.090667,324.96 186.101333,325.024 186.112,325.088 L186.4,325.184 L187.2,323.68 L187.024,323.504 C186.96,323.536 186.906667,323.565333 186.864,323.592 C186.821333,323.618667 186.757333,323.632 186.672,323.632 C186.597333,323.632 186.482667,323.592 186.328,323.512 C186.173333,323.432 185.973333,323.344 185.728,323.248 C185.482667,323.152 185.181333,323.064 184.824,322.984 C184.466667,322.904 184.037333,322.864 183.536,322.864 C182.512,322.864 181.717333,323.066667 181.152,323.472 C180.586667,323.877333 180.304,324.421333 180.304,325.104 C180.304,325.562667 180.434667,325.917333 180.696,326.168 C180.957333,326.418667 181.285333,326.610667 181.68,326.744 C182.074667,326.877333 182.501333,326.973333 182.96,327.032 C183.418667,327.090667 183.845333,327.149333 184.24,327.208 C184.634667,327.266667 184.962667,327.349333 185.224,327.456 C185.485333,327.562667 185.616,327.733333 185.616,327.968 C185.616,328.170667 185.541333,328.333333 185.392,328.456 C185.242667,328.578667 185.061333,328.674667 184.848,328.744 C184.634667,328.813333 184.418667,328.858667 184.2,328.88 C183.981333,328.901333 183.797333,328.912 183.648,328.912 C183.488,328.912 183.266667,328.885333 182.984,328.832 C182.701333,328.778667 182.418667,328.706667 182.136,328.616 C181.853333,328.525333 181.610667,328.413333 181.408,328.28 C181.205333,328.146667 181.104,328 181.104,327.84 C181.104,327.786667 181.106667,327.736 181.112,327.688 C181.117333,327.64 181.12,327.594667 181.12,327.552 L180.816,327.472 L180.08,329.264 L180.304,329.424 C180.357333,329.36 180.421333,329.328 180.496,329.328 C180.538667,329.328 180.661333,329.368 180.864,329.448 C181.066667,329.528 181.314667,329.613333 181.608,329.704 C181.901333,329.794667 182.226667,329.874667 182.584,329.944 C182.941333,330.013333 183.301333,330.048 183.664,330.048 Z M190.672,330.048 C190.981333,330.048 191.248,329.944 191.472,329.736 C191.696,329.528 191.808,329.269333 191.808,328.96 C191.808,328.650667 191.696,328.384 191.472,328.16 C191.248,327.936 190.981333,327.824 190.672,327.824 C190.362667,327.824 190.096,327.936 189.872,328.16 C189.648,328.384 189.536,328.650667 189.536,328.96 C189.536,329.269333 189.648,329.528 189.872,329.736 C190.096,329.944 190.362667,330.048 190.672,330.048 Z" id="Tovaxornottovax?KeepinfrontofyoutocureSymptoms." fill="#000000" fill-rule="nonzero"></path>
    </g>
</svg>