<?xml version="1.0" encoding="UTF-8"?>
<svg width="262px" height="360px" viewBox="0 0 262 360" version="1.1" xmlns="http://www.w3.org/2000/svg" xmlns:xlink="http://www.w3.org/1999/xlink">
    <title>Rash 1</title>
    <g id="Rash-1" stroke="none" stroke-width="1" fill="none" fill-rule="evenodd">
        <g id="Group" transform="translate(9.000000, 9.000000)" fill="#FFFFFF" stroke="#000000" stroke-width="3">
            <g id="Rectangle">
                <rect x="1.5" y="1.5" width="239" height="337" rx="8"></rect>
            </g>
        </g>
        <path d="M216.124,30 L216.124,29.712 C215.964,29.712 215.82,29.668 215.692,29.58 C215.564,29.492 215.5,29.312 215.5,29.04 L215.5,29.04 L215.5,18.048 C215.5,17.888 215.564,17.768 215.692,17.688 C215.82,17.608 215.98,17.552 216.172,17.52 L216.172,17.52 L216.172,17.232 L212.284,17.232 L212.284,17.52 C212.46,17.552 212.6,17.6 212.704,17.664 C212.808,17.728 212.86,17.872 212.86,18.096 C212.86,18.336 212.768,18.54 212.584,18.708 C212.4,18.876 212.172,18.96 211.9,18.96 C211.772,18.96 211.636,18.932 211.492,18.876 C211.348,18.82 211.276,18.72 211.276,18.576 L211.276,18.576 L210.988,18.576 L210.988,21.6 L211.276,21.6 C211.324,21.472 211.408,21.372 211.528,21.3 C211.648,21.228 211.78,21.172 211.924,21.132 C212.068,21.092 212.216,21.064 212.368,21.048 C212.52,21.032 212.652,21.024 212.764,21.024 L212.764,21.024 L212.764,29.04 C212.764,29.312 212.704,29.492 212.584,29.58 C212.464,29.668 212.324,29.712 212.164,29.712 L212.164,29.712 L212.164,30 L216.124,30 Z" id="1" fill="#000000" fill-rule="nonzero"></path>
        <g id="Face" transform="translate(225.000000, 15.000000)">
            <circle id="Oval" stroke="#000000" fill="#FFFFFF" cx="9.5" cy="9.5" r="9"></circle>
            <circle id="Oval" fill="#000000" cx="5" cy="8" r="1"></circle>
            <circle id="Oval-Copy" fill="#000000" cx="12" cy="8" r="1"></circle>
            <line x1="12.0789474" y1="13.9090909" x2="14.5" y2="11.5" id="Line-4" stroke="#000000" stroke-linecap="round"></line>
            <path d="M3,5.89285714 C3.41025641,5.96428571 3.76923077,6 4.07692308,6 C4.38461538,6 5.35897436,5.33333333 7,4" id="Line-2" stroke="#000000"></path>
            <path d="M6,15 C6.96078431,14.3333333 8.07598039,14 9.34558824,14 C10.6151961,14 11.8333333,14.3333333 13,15" id="Line" stroke="#000000" stroke-linecap="round" stroke-linejoin="round"></path>
            <path d="M11.3197366,4.68245322 C11.585843,4.80663622 11.7912611,4.92388646 11.9359908,5.03420394 C12.548667,5.50120471 13.1333088,5.70898724 13.3155349,5.80010028 C13.5440857,5.91437569 13.8101922,6.00751295 14.1138542,6.07951204" id="Line-3" stroke="#000000" stroke-linecap="square" transform="translate(12.716795, 5.380983) rotate(-3.000000) translate(-12.716795, -5.380983) "></path>
            <path d="M2.999,9.347 L3.01687864,9.39698204 C3.09438102,9.62639002 3.1880913,9.89570266 3.30282211,10.2112791 C3.48139895,10.7024692 3.54804655,11.0169045 3.47980817,11.2204078 C3.41244402,11.421304 3.17143148,11.4011566 3.01518318,11.4416373 L3.01518318,11.4416373 L2.86575433,11.4813457 C2.78836954,11.5029149 2.70310591,11.5126925 2.63007237,11.4810832 C2.58941161,11.463485 2.56030088,11.4264037 2.54036126,11.376794 C2.4446463,11.1386559 2.49784548,10.759559 2.69717789,10.2112791 C2.8119087,9.89570266 2.90561898,9.62639002 2.98312136,9.39698204 L2.999,9.347 Z" id="Oval" stroke="#000000"></path>
            <path d="M16,6.347 L16.0168786,6.39698204 C16.094381,6.62639002 16.1880913,6.89570266 16.3028221,7.21127907 C16.481399,7.70246915 16.5480465,8.01690453 16.4798082,8.22040783 C16.412444,8.42130397 16.1714315,8.40115659 16.0151832,8.44163726 L16.0151832,8.44163726 L15.8657543,8.48134574 C15.7883695,8.50291486 15.7031059,8.51269255 15.6300724,8.48108319 C15.5894116,8.46348497 15.5603009,8.42640366 15.5403613,8.37679403 C15.4446463,8.13865595 15.4978455,7.75955902 15.6971779,7.21127907 C15.8119087,6.89570266 15.905619,6.62639002 15.9831214,6.39698204 L16,6.347 Z" id="Oval-Copy-2" stroke="#000000"></path>
        </g>
        <rect id="Rectangle" stroke="#000000" stroke-width="3" x="17.5" y="241.5" width="225" height="100" rx="8"></rect>
        <path d="M96.405,57 L96.405,56.46 C96.065,56.46 95.83,56.415 95.7,56.325 C95.57,56.235 95.505,56.1 95.505,55.92 L95.505,55.92 L95.505,50.58 L99.795,50.58 L103.095,55.26 C103.255,55.48 103.375,55.655 103.455,55.785 C103.535,55.915 103.575,56.03 103.575,56.13 C103.575,56.23 103.51,56.31 103.38,56.37 C103.25,56.43 103.095,56.46 102.915,56.46 L102.915,56.46 L102.915,57 L108.525,57 L108.525,56.46 C108.365,56.46 108.19,56.44 108,56.4 C107.81,56.36 107.645,56.24 107.505,56.04 L107.505,56.04 L103.515,50.34 C104.835,50.1 105.885,49.63 106.665,48.93 C107.445,48.23 107.835,47.22 107.835,45.9 C107.835,45.04 107.685,44.315 107.385,43.725 C107.085,43.135 106.655,42.655 106.095,42.285 C105.535,41.915 104.865,41.645 104.085,41.475 C103.305,41.305 102.435,41.22 101.475,41.22 L101.475,41.22 L91.215,41.22 L91.215,41.76 C91.795,41.76 92.085,41.94 92.085,42.3 L92.085,42.3 L92.085,55.92 C92.085,56.28 91.795,56.46 91.215,56.46 L91.215,56.46 L91.215,57 L96.405,57 Z M100.695,48.24 L95.505,48.24 L95.505,43.8 L100.695,43.8 C101.415,43.8 102.015,43.855 102.495,43.965 C102.975,44.075 103.355,44.23 103.635,44.43 C103.915,44.63 104.115,44.865 104.235,45.135 C104.355,45.405 104.415,45.7 104.415,46.02 C104.415,46.34 104.355,46.635 104.235,46.905 C104.115,47.175 103.915,47.41 103.635,47.61 C103.355,47.81 102.975,47.965 102.495,48.075 C102.015,48.185 101.415,48.24 100.695,48.24 L100.695,48.24 Z M114.945,57 L114.945,56.46 C114.765,56.46 114.625,56.44 114.525,56.4 C114.425,56.36 114.375,56.26 114.375,56.1 C114.375,56 114.4,55.885 114.45,55.755 C114.5,55.625 114.565,55.48 114.645,55.32 L114.645,55.32 L115.485,53.7 L121.905,53.7 L122.715,55.41 C122.775,55.57 122.825,55.7 122.865,55.8 C122.905,55.9 122.925,56.01 122.925,56.13 C122.925,56.29 122.87,56.4 122.76,56.46 C122.65,56.52 122.545,56.55 122.445,56.55 L122.445,56.55 L122.445,57 L126.705,57 L126.705,56.46 C126.565,56.42 126.435,56.36 126.315,56.28 C126.195,56.2 126.085,56.07 125.985,55.89 L125.985,55.89 L121.125,45.69 C121.025,45.47 120.93,45.275 120.84,45.105 C120.75,44.935 120.705,44.79 120.705,44.67 C120.705,44.53 120.74,44.45 120.81,44.43 C120.88,44.41 120.945,44.38 121.005,44.34 L121.005,44.34 L121.005,43.8 L116.475,43.8 L116.475,44.34 C116.535,44.38 116.59,44.415 116.64,44.445 C116.69,44.475 116.715,44.55 116.715,44.67 C116.715,44.83 116.68,44.995 116.61,45.165 C116.54,45.335 116.445,45.56 116.325,45.84 L116.325,45.84 L111.855,55.59 C111.775,55.75 111.66,55.925 111.51,56.115 C111.36,56.305 111.165,56.42 110.925,56.46 L110.925,56.46 L110.925,57 L114.945,57 Z M120.945,51.48 L116.385,51.48 L118.515,46.44 L120.945,51.48 Z M135.255,57.09 C135.935,57.09 136.66,57.04 137.43,56.94 C138.2,56.84 138.905,56.63 139.545,56.31 C140.185,55.99 140.72,55.55 141.15,54.99 C141.58,54.43 141.795,53.71 141.795,52.83 C141.795,51.95 141.55,51.26 141.06,50.76 C140.57,50.26 139.955,49.88 139.215,49.62 C138.475,49.36 137.675,49.175 136.815,49.065 C135.955,48.955 135.155,48.845 134.415,48.735 C133.675,48.625 133.06,48.475 132.57,48.285 C132.08,48.095 131.835,47.78 131.835,47.34 C131.835,47.06 131.915,46.825 132.075,46.635 C132.235,46.445 132.455,46.29 132.735,46.17 C133.015,46.05 133.335,45.965 133.695,45.915 C134.055,45.865 134.435,45.84 134.835,45.84 C135.875,45.84 136.815,45.96 137.655,46.2 C138.495,46.44 139.115,46.73 139.515,47.07 C139.675,47.19 139.765,47.31 139.785,47.43 L139.785,47.43 L139.845,47.79 L140.385,47.97 L141.885,45.15 L141.555,44.82 C141.435,44.88 141.335,44.935 141.255,44.985 C141.175,45.035 141.055,45.06 140.895,45.06 C140.755,45.06 140.54,44.985 140.25,44.835 C139.96,44.685 139.585,44.52 139.125,44.34 C138.665,44.16 138.1,43.995 137.43,43.845 C136.76,43.695 135.955,43.62 135.015,43.62 C133.095,43.62 131.605,44 130.545,44.76 C129.485,45.52 128.955,46.54 128.955,47.82 C128.955,48.68 129.2,49.345 129.69,49.815 C130.18,50.285 130.795,50.645 131.535,50.895 C132.275,51.145 133.075,51.325 133.935,51.435 C134.795,51.545 135.595,51.655 136.335,51.765 C137.075,51.875 137.69,52.03 138.18,52.23 C138.67,52.43 138.915,52.75 138.915,53.19 C138.915,53.57 138.775,53.875 138.495,54.105 C138.215,54.335 137.875,54.515 137.475,54.645 C137.075,54.775 136.67,54.86 136.26,54.9 C135.85,54.94 135.505,54.96 135.225,54.96 C134.925,54.96 134.51,54.91 133.98,54.81 C133.45,54.71 132.92,54.575 132.39,54.405 C131.86,54.235 131.405,54.025 131.025,53.775 C130.645,53.525 130.455,53.25 130.455,52.95 C130.455,52.85 130.46,52.755 130.47,52.665 C130.48,52.575 130.485,52.49 130.485,52.41 L130.485,52.41 L129.915,52.26 L128.535,55.62 L128.955,55.92 C129.055,55.8 129.175,55.74 129.315,55.74 C129.395,55.74 129.625,55.815 130.005,55.965 C130.385,56.115 130.85,56.275 131.4,56.445 C131.95,56.615 132.56,56.765 133.23,56.895 C133.9,57.025 134.575,57.09 135.255,57.09 Z M150.255,57 L150.255,56.46 C150.135,56.46 150.03,56.425 149.94,56.355 C149.85,56.285 149.805,56.17 149.805,56.01 L149.805,56.01 L149.805,51.48 L157.845,51.48 L157.845,56.01 C157.845,56.17 157.8,56.285 157.71,56.355 C157.62,56.425 157.515,56.46 157.395,56.46 L157.395,56.46 L157.395,57 L161.175,57 L161.175,56.46 C161.055,56.46 160.95,56.425 160.86,56.355 C160.77,56.285 160.725,56.17 160.725,56.01 L160.725,56.01 L160.725,44.79 C160.725,44.63 160.77,44.515 160.86,44.445 C160.95,44.375 161.055,44.34 161.175,44.34 L161.175,44.34 L161.175,43.8 L157.395,43.8 L157.395,44.34 C157.515,44.34 157.62,44.375 157.71,44.445 C157.8,44.515 157.845,44.63 157.845,44.79 L157.845,44.79 L157.845,49.02 L149.805,49.02 L149.805,44.79 C149.805,44.63 149.85,44.515 149.94,44.445 C150.03,44.375 150.135,44.34 150.255,44.34 L150.255,44.34 L150.255,43.8 L146.475,43.8 L146.475,44.34 C146.595,44.34 146.7,44.375 146.79,44.445 C146.88,44.515 146.925,44.63 146.925,44.79 L146.925,44.79 L146.925,56.01 C146.925,56.17 146.88,56.285 146.79,56.355 C146.7,56.425 146.595,56.46 146.475,56.46 L146.475,56.46 L146.475,57 L150.255,57 Z M166.245,57 L173.445,41.04 L170.145,41.04 L163.005,57 L166.245,57 Z M34.335,87 C35.435,87 36.46,86.84 37.41,86.52 C38.36,86.2 39.185,85.715 39.885,85.065 C40.585,84.415 41.135,83.595 41.535,82.605 C41.935,81.615 42.135,80.45 42.135,79.11 C42.135,77.77 41.935,76.605 41.535,75.615 C41.135,74.625 40.585,73.805 39.885,73.155 C39.185,72.505 38.36,72.02 37.41,71.7 C36.46,71.38 35.435,71.22 34.335,71.22 L34.335,71.22 L24.375,71.22 L24.375,71.76 C24.835,71.76 25.065,71.94 25.065,72.3 L25.065,72.3 L25.065,85.92 C25.065,86.28 24.835,86.46 24.375,86.46 L24.375,86.46 L24.375,87 L34.335,87 Z M33.135,84.42 L28.485,84.42 L28.485,73.8 L33.135,73.8 C34.075,73.8 34.895,73.88 35.595,74.04 C36.295,74.2 36.875,74.485 37.335,74.895 C37.795,75.305 38.14,75.85 38.37,76.53 C38.6,77.21 38.715,78.07 38.715,79.11 C38.715,80.15 38.6,81.01 38.37,81.69 C38.14,82.37 37.795,82.915 37.335,83.325 C36.875,83.735 36.295,84.02 35.595,84.18 C34.895,84.34 34.075,84.42 33.135,84.42 L33.135,84.42 Z M51.075,87 L51.075,86.46 C50.515,86.46 50.235,86.31 50.235,86.01 L50.235,86.01 L50.235,74.79 C50.235,74.49 50.515,74.34 51.075,74.34 L51.075,74.34 L51.075,73.8 L46.515,73.8 L46.515,74.34 C46.835,74.34 47.055,74.375 47.175,74.445 C47.295,74.515 47.355,74.63 47.355,74.79 L47.355,74.79 L47.355,86.01 C47.355,86.17 47.295,86.285 47.175,86.355 C47.055,86.425 46.835,86.46 46.515,86.46 L46.515,86.46 L46.515,87 L51.075,87 Z M61.905,87.09 C62.585,87.09 63.31,87.04 64.08,86.94 C64.85,86.84 65.555,86.63 66.195,86.31 C66.835,85.99 67.37,85.55 67.8,84.99 C68.23,84.43 68.445,83.71 68.445,82.83 C68.445,81.95 68.2,81.26 67.71,80.76 C67.22,80.26 66.605,79.88 65.865,79.62 C65.125,79.36 64.325,79.175 63.465,79.065 C62.605,78.955 61.805,78.845 61.065,78.735 C60.325,78.625 59.71,78.475 59.22,78.285 C58.73,78.095 58.485,77.78 58.485,77.34 C58.485,77.06 58.565,76.825 58.725,76.635 C58.885,76.445 59.105,76.29 59.385,76.17 C59.665,76.05 59.985,75.965 60.345,75.915 C60.705,75.865 61.085,75.84 61.485,75.84 C62.525,75.84 63.465,75.96 64.305,76.2 C65.145,76.44 65.765,76.73 66.165,77.07 C66.325,77.19 66.415,77.31 66.435,77.43 L66.435,77.43 L66.495,77.79 L67.035,77.97 L68.535,75.15 L68.205,74.82 C68.085,74.88 67.985,74.935 67.905,74.985 C67.825,75.035 67.705,75.06 67.545,75.06 C67.405,75.06 67.19,74.985 66.9,74.835 C66.61,74.685 66.235,74.52 65.775,74.34 C65.315,74.16 64.75,73.995 64.08,73.845 C63.41,73.695 62.605,73.62 61.665,73.62 C59.745,73.62 58.255,74 57.195,74.76 C56.135,75.52 55.605,76.54 55.605,77.82 C55.605,78.68 55.85,79.345 56.34,79.815 C56.83,80.285 57.445,80.645 58.185,80.895 C58.925,81.145 59.725,81.325 60.585,81.435 C61.445,81.545 62.245,81.655 62.985,81.765 C63.725,81.875 64.34,82.03 64.83,82.23 C65.32,82.43 65.565,82.75 65.565,83.19 C65.565,83.57 65.425,83.875 65.145,84.105 C64.865,84.335 64.525,84.515 64.125,84.645 C63.725,84.775 63.32,84.86 62.91,84.9 C62.5,84.94 62.155,84.96 61.875,84.96 C61.575,84.96 61.16,84.91 60.63,84.81 C60.1,84.71 59.57,84.575 59.04,84.405 C58.51,84.235 58.055,84.025 57.675,83.775 C57.295,83.525 57.105,83.25 57.105,82.95 C57.105,82.85 57.11,82.755 57.12,82.665 C57.13,82.575 57.135,82.49 57.135,82.41 L57.135,82.41 L56.565,82.26 L55.185,85.62 L55.605,85.92 C55.705,85.8 55.825,85.74 55.965,85.74 C56.045,85.74 56.275,85.815 56.655,85.965 C57.035,86.115 57.5,86.275 58.05,86.445 C58.6,86.615 59.21,86.765 59.88,86.895 C60.55,87.025 61.225,87.09 61.905,87.09 Z M78.945,87.09 C79.845,87.09 80.66,87.01 81.39,86.85 C82.12,86.69 82.76,86.495 83.31,86.265 C83.86,86.035 84.315,85.83 84.675,85.65 C85.035,85.47 85.295,85.38 85.455,85.38 C85.555,85.38 85.725,85.43 85.965,85.53 L85.965,85.53 L86.265,85.38 L84.045,82.2 L83.715,82.5 C83.735,82.58 83.745,82.68 83.745,82.8 L83.745,82.8 L83.745,83.04 C83.745,83.22 83.6,83.42 83.31,83.64 C83.02,83.86 82.645,84.065 82.185,84.255 C81.725,84.445 81.215,84.61 80.655,84.75 C80.095,84.89 79.545,84.96 79.005,84.96 C78.425,84.96 77.855,84.855 77.295,84.645 C76.735,84.435 76.235,84.125 75.795,83.715 C75.355,83.305 75,82.815 74.73,82.245 C74.46,81.675 74.325,81.03 74.325,80.31 C74.325,79.59 74.445,78.95 74.685,78.39 C74.925,77.83 75.265,77.36 75.705,76.98 C76.145,76.6 76.66,76.315 77.25,76.125 C77.84,75.935 78.495,75.84 79.215,75.84 C79.815,75.84 80.365,75.895 80.865,76.005 C81.365,76.115 81.8,76.25 82.17,76.41 C82.54,76.57 82.825,76.735 83.025,76.905 C83.225,77.075 83.325,77.21 83.325,77.31 C83.325,77.37 83.33,77.42 83.34,77.46 C83.35,77.5 83.355,77.54 83.355,77.58 L83.355,77.58 L83.685,77.82 L85.665,74.97 L85.305,74.76 C85.225,74.8 85.15,74.85 85.08,74.91 C85.01,74.97 84.925,75 84.825,75 C84.685,75 84.455,74.93 84.135,74.79 C83.815,74.65 83.415,74.49 82.935,74.31 C82.455,74.13 81.9,73.97 81.27,73.83 C80.64,73.69 79.945,73.62 79.185,73.62 C78.205,73.62 77.25,73.76 76.32,74.04 C75.39,74.32 74.565,74.745 73.845,75.315 C73.125,75.885 72.545,76.59 72.105,77.43 C71.665,78.27 71.445,79.25 71.445,80.37 C71.445,81.49 71.665,82.475 72.105,83.325 C72.545,84.175 73.115,84.885 73.815,85.455 C74.515,86.025 75.315,86.44 76.215,86.7 C77.115,86.96 78.025,87.09 78.945,87.09 Z M96.315,87.09 C97.415,87.09 98.45,86.965 99.42,86.715 C100.39,86.465 101.235,86.06 101.955,85.5 C102.675,84.94 103.245,84.235 103.665,83.385 C104.085,82.535 104.295,81.54 104.295,80.4 C104.295,79.26 104.085,78.265 103.665,77.415 C103.245,76.565 102.675,75.86 101.955,75.3 C101.235,74.74 100.39,74.32 99.42,74.04 C98.45,73.76 97.415,73.62 96.315,73.62 C95.215,73.62 94.18,73.76 93.21,74.04 C92.24,74.32 91.395,74.74 90.675,75.3 C89.955,75.86 89.385,76.565 88.965,77.415 C88.545,78.265 88.335,79.26 88.335,80.4 C88.335,81.54 88.545,82.535 88.965,83.385 C89.385,84.235 89.955,84.94 90.675,85.5 C91.395,86.06 92.24,86.465 93.21,86.715 C94.18,86.965 95.215,87.09 96.315,87.09 Z M96.315,84.96 C95.675,84.96 95.05,84.855 94.44,84.645 C93.83,84.435 93.285,84.135 92.805,83.745 C92.325,83.355 91.94,82.88 91.65,82.32 C91.36,81.76 91.215,81.12 91.215,80.4 C91.215,79.68 91.36,79.04 91.65,78.48 C91.94,77.92 92.325,77.445 92.805,77.055 C93.285,76.665 93.83,76.365 94.44,76.155 C95.05,75.945 95.675,75.84 96.315,75.84 C96.955,75.84 97.58,75.945 98.19,76.155 C98.8,76.365 99.345,76.665 99.825,77.055 C100.305,77.445 100.69,77.92 100.98,78.48 C101.27,79.04 101.415,79.68 101.415,80.4 C101.415,81.12 101.27,81.76 100.98,82.32 C100.69,82.88 100.305,83.355 99.825,83.745 C99.345,84.135 98.8,84.435 98.19,84.645 C97.58,84.855 96.955,84.96 96.315,84.96 Z M120.915,87.3 L120.915,84.15 L120.375,84.15 C120.375,84.35 120.295,84.505 120.135,84.615 C119.975,84.725 119.775,84.78 119.535,84.78 L119.535,84.78 L111.435,84.78 L111.435,74.79 C111.435,74.49 111.665,74.34 112.125,74.34 L112.125,74.34 L112.125,73.8 L107.775,73.8 L107.775,74.34 C108.295,74.34 108.555,74.49 108.555,74.79 L108.555,74.79 L108.555,86.01 C108.555,86.31 108.295,86.46 107.775,86.46 L107.775,86.46 L107.775,87 L119.535,87 C119.775,87 119.975,87.01 120.135,87.03 C120.295,87.05 120.375,87.14 120.375,87.3 L120.375,87.3 L120.915,87.3 Z M131.325,87.09 C132.425,87.09 133.46,86.965 134.43,86.715 C135.4,86.465 136.245,86.06 136.965,85.5 C137.685,84.94 138.255,84.235 138.675,83.385 C139.095,82.535 139.305,81.54 139.305,80.4 C139.305,79.26 139.095,78.265 138.675,77.415 C138.255,76.565 137.685,75.86 136.965,75.3 C136.245,74.74 135.4,74.32 134.43,74.04 C133.46,73.76 132.425,73.62 131.325,73.62 C130.225,73.62 129.19,73.76 128.22,74.04 C127.25,74.32 126.405,74.74 125.685,75.3 C124.965,75.86 124.395,76.565 123.975,77.415 C123.555,78.265 123.345,79.26 123.345,80.4 C123.345,81.54 123.555,82.535 123.975,83.385 C124.395,84.235 124.965,84.94 125.685,85.5 C126.405,86.06 127.25,86.465 128.22,86.715 C129.19,86.965 130.225,87.09 131.325,87.09 Z M131.325,84.96 C130.685,84.96 130.06,84.855 129.45,84.645 C128.84,84.435 128.295,84.135 127.815,83.745 C127.335,83.355 126.95,82.88 126.66,82.32 C126.37,81.76 126.225,81.12 126.225,80.4 C126.225,79.68 126.37,79.04 126.66,78.48 C126.95,77.92 127.335,77.445 127.815,77.055 C128.295,76.665 128.84,76.365 129.45,76.155 C130.06,75.945 130.685,75.84 131.325,75.84 C131.965,75.84 132.59,75.945 133.2,76.155 C133.81,76.365 134.355,76.665 134.835,77.055 C135.315,77.445 135.7,77.92 135.99,78.48 C136.28,79.04 136.425,79.68 136.425,80.4 C136.425,81.12 136.28,81.76 135.99,82.32 C135.7,82.88 135.315,83.355 134.835,83.745 C134.355,84.135 133.81,84.435 133.2,84.645 C132.59,84.855 131.965,84.96 131.325,84.96 Z M146.835,87 L146.835,86.46 C146.715,86.46 146.59,86.425 146.46,86.355 C146.33,86.285 146.265,86.17 146.265,86.01 L146.265,86.01 L146.265,81.72 L150.435,81.72 L152.805,85.26 C153.105,85.68 153.255,85.99 153.255,86.19 C153.255,86.37 153.125,86.46 152.865,86.46 L152.865,86.46 L152.865,87 L157.455,87 L157.455,86.46 C157.235,86.4 157.03,86.315 156.84,86.205 C156.65,86.095 156.475,85.93 156.315,85.71 L156.315,85.71 L153.375,81.42 C153.795,81.32 154.205,81.175 154.605,80.985 C155.005,80.795 155.37,80.545 155.7,80.235 C156.03,79.925 156.295,79.56 156.495,79.14 C156.695,78.72 156.795,78.24 156.795,77.7 C156.795,76.28 156.295,75.275 155.295,74.685 C154.295,74.095 152.905,73.8 151.125,73.8 L151.125,73.8 L142.845,73.8 L142.845,74.34 C143.205,74.34 143.385,74.49 143.385,74.79 L143.385,74.79 L143.385,86.01 C143.385,86.31 143.205,86.46 142.845,86.46 L142.845,86.46 L142.845,87 L146.835,87 Z M151.065,79.5 L146.325,79.5 L146.325,76.02 L151.065,76.02 C152.085,76.02 152.83,76.165 153.3,76.455 C153.77,76.745 154.005,77.14 154.005,77.64 C154.005,78.88 153.025,79.5 151.065,79.5 L151.065,79.5 Z M163.305,87 L163.305,86.46 C163.125,86.46 162.985,86.44 162.885,86.4 C162.785,86.36 162.735,86.26 162.735,86.1 C162.735,86 162.76,85.885 162.81,85.755 C162.86,85.625 162.925,85.48 163.005,85.32 L163.005,85.32 L163.845,83.7 L170.265,83.7 L171.075,85.41 C171.135,85.57 171.185,85.7 171.225,85.8 C171.265,85.9 171.285,86.01 171.285,86.13 C171.285,86.29 171.23,86.4 171.12,86.46 C171.01,86.52 170.905,86.55 170.805,86.55 L170.805,86.55 L170.805,87 L175.065,87 L175.065,86.46 C174.925,86.42 174.795,86.36 174.675,86.28 C174.555,86.2 174.445,86.07 174.345,85.89 L174.345,85.89 L169.485,75.69 C169.385,75.47 169.29,75.275 169.2,75.105 C169.11,74.935 169.065,74.79 169.065,74.67 C169.065,74.53 169.1,74.45 169.17,74.43 C169.24,74.41 169.305,74.38 169.365,74.34 L169.365,74.34 L169.365,73.8 L164.835,73.8 L164.835,74.34 C164.895,74.38 164.95,74.415 165,74.445 C165.05,74.475 165.075,74.55 165.075,74.67 C165.075,74.83 165.04,74.995 164.97,75.165 C164.9,75.335 164.805,75.56 164.685,75.84 L164.685,75.84 L160.215,85.59 C160.135,85.75 160.02,85.925 159.87,86.115 C159.72,86.305 159.525,86.42 159.285,86.46 L159.285,86.46 L159.285,87 L163.305,87 Z M169.305,81.48 L164.745,81.48 L166.875,76.44 L169.305,81.48 Z M184.995,87 L184.995,86.46 C184.635,86.46 184.455,86.31 184.455,86.01 L184.455,86.01 L184.455,76.02 L188.355,76.02 C188.515,76.02 188.665,76.06 188.805,76.14 C188.945,76.22 189.015,76.35 189.015,76.53 L189.015,76.53 L189.555,76.53 L189.555,73.08 L189.015,73.08 C189.015,73.36 188.945,73.55 188.805,73.65 C188.665,73.75 188.515,73.8 188.355,73.8 L188.355,73.8 L177.675,73.8 C177.515,73.8 177.365,73.75 177.225,73.65 C177.085,73.55 177.015,73.36 177.015,73.08 L177.015,73.08 L176.475,73.08 L176.475,76.53 L177.015,76.53 C177.015,76.35 177.085,76.22 177.225,76.14 C177.365,76.06 177.515,76.02 177.675,76.02 L177.675,76.02 L181.575,76.02 L181.575,86.01 C181.575,86.17 181.525,86.285 181.425,86.355 C181.325,86.425 181.225,86.46 181.125,86.46 L181.125,86.46 L181.125,87 L184.995,87 Z M197.775,87 L197.775,86.46 C197.215,86.46 196.935,86.31 196.935,86.01 L196.935,86.01 L196.935,74.79 C196.935,74.49 197.215,74.34 197.775,74.34 L197.775,74.34 L197.775,73.8 L193.215,73.8 L193.215,74.34 C193.535,74.34 193.755,74.375 193.875,74.445 C193.995,74.515 194.055,74.63 194.055,74.79 L194.055,74.79 L194.055,86.01 C194.055,86.17 193.995,86.285 193.875,86.355 C193.755,86.425 193.535,86.46 193.215,86.46 L193.215,86.46 L193.215,87 L197.775,87 Z M209.655,87.09 C210.755,87.09 211.79,86.965 212.76,86.715 C213.73,86.465 214.575,86.06 215.295,85.5 C216.015,84.94 216.585,84.235 217.005,83.385 C217.425,82.535 217.635,81.54 217.635,80.4 C217.635,79.26 217.425,78.265 217.005,77.415 C216.585,76.565 216.015,75.86 215.295,75.3 C214.575,74.74 213.73,74.32 212.76,74.04 C211.79,73.76 210.755,73.62 209.655,73.62 C208.555,73.62 207.52,73.76 206.55,74.04 C205.58,74.32 204.735,74.74 204.015,75.3 C203.295,75.86 202.725,76.565 202.305,77.415 C201.885,78.265 201.675,79.26 201.675,80.4 C201.675,81.54 201.885,82.535 202.305,83.385 C202.725,84.235 203.295,84.94 204.015,85.5 C204.735,86.06 205.58,86.465 206.55,86.715 C207.52,86.965 208.555,87.09 209.655,87.09 Z M209.655,84.96 C209.015,84.96 208.39,84.855 207.78,84.645 C207.17,84.435 206.625,84.135 206.145,83.745 C205.665,83.355 205.28,82.88 204.99,82.32 C204.7,81.76 204.555,81.12 204.555,80.4 C204.555,79.68 204.7,79.04 204.99,78.48 C205.28,77.92 205.665,77.445 206.145,77.055 C206.625,76.665 207.17,76.365 207.78,76.155 C208.39,75.945 209.015,75.84 209.655,75.84 C210.295,75.84 210.92,75.945 211.53,76.155 C212.14,76.365 212.685,76.665 213.165,77.055 C213.645,77.445 214.03,77.92 214.32,78.48 C214.61,79.04 214.755,79.68 214.755,80.4 C214.755,81.12 214.61,81.76 214.32,82.32 C214.03,82.88 213.645,83.355 213.165,83.745 C212.685,84.135 212.14,84.435 211.53,84.645 C210.92,84.855 210.295,84.96 209.655,84.96 Z M224.955,87 L224.955,86.46 C224.535,86.46 224.325,86.31 224.325,86.01 L224.325,86.01 L224.325,77.28 L231.765,85.2 C232.005,85.46 232.22,85.69 232.41,85.89 C232.6,86.09 232.695,86.23 232.695,86.31 C232.695,86.41 232.625,86.46 232.485,86.46 L232.485,86.46 L232.485,87 L236.385,87 L236.385,86.46 C236.025,86.46 235.845,86.31 235.845,86.01 L235.845,86.01 L235.845,74.79 C235.845,74.49 236.025,74.34 236.385,74.34 L236.385,74.34 L236.385,73.8 L232.725,73.8 L232.725,74.34 C233.125,74.34 233.325,74.49 233.325,74.79 L233.325,74.79 L233.325,82.92 L226.125,75.3 C225.685,74.86 225.465,74.59 225.465,74.49 C225.465,74.41 225.535,74.36 225.675,74.34 L225.675,74.34 L225.675,73.8 L221.265,73.8 L221.265,74.34 C221.625,74.34 221.805,74.49 221.805,74.79 L221.805,74.79 L221.805,86.01 C221.805,86.31 221.625,86.46 221.265,86.46 L221.265,86.46 L221.265,87 L224.955,87 Z" id="Rash/Discoloration" fill="#000000" fill-rule="nonzero"></path>
        <path d="M58.271,261 L58.271,260.676 C58.115,260.628 58.037,260.508 58.037,260.316 C58.037,260.196 58.127,259.902 58.307,259.434 L58.307,259.434 L60.269,254.232 L60.305,254.232 L62.375,259.542 C62.471,259.758 62.54,259.926 62.582,260.046 C62.624,260.166 62.645,260.274 62.645,260.37 C62.645,260.454 62.606,260.52 62.528,260.568 C62.45,260.616 62.375,260.652 62.303,260.676 L62.303,260.676 L62.303,261 L65.147,261 L65.147,260.676 C65.039,260.676 64.955,260.643 64.895,260.577 C64.835,260.511 64.805,260.436 64.805,260.352 C64.805,260.256 64.832,260.136 64.886,259.992 L64.886,259.992 L65.075,259.488 L67.667,252.612 C67.751,252.396 67.826,252.216 67.892,252.072 C67.958,251.928 68.057,251.856 68.189,251.856 L68.189,251.856 L68.189,251.532 L65.525,251.532 L65.525,251.856 C65.609,251.856 65.681,251.889 65.741,251.955 C65.801,252.021 65.831,252.09 65.831,252.162 C65.831,252.306 65.789,252.468 65.705,252.648 L65.705,252.648 L63.761,257.832 L63.725,257.832 L61.799,252.756 C61.679,252.468 61.619,252.264 61.619,252.144 C61.619,252.072 61.637,252.006 61.673,251.946 C61.709,251.886 61.769,251.856 61.853,251.856 L61.853,251.856 L61.853,251.532 L58.775,251.532 L58.775,251.856 C58.931,251.856 59.009,251.97 59.009,252.198 C59.009,252.258 59,252.327 58.982,252.405 C58.964,252.483 58.925,252.6 58.865,252.756 L58.865,252.756 L56.957,257.832 L56.921,257.832 L54.995,252.828 C54.923,252.636 54.878,252.498 54.86,252.414 C54.842,252.33 54.833,252.258 54.833,252.198 C54.833,251.97 54.923,251.856 55.103,251.856 L55.103,251.856 L55.103,251.532 L52.313,251.532 L52.313,251.856 C52.433,251.88 52.52,251.937 52.574,252.027 C52.628,252.117 52.679,252.228 52.727,252.36 L52.727,252.36 L55.607,259.794 C55.655,259.914 55.7,260.028 55.742,260.136 C55.784,260.244 55.805,260.346 55.805,260.442 C55.805,260.526 55.769,260.586 55.697,260.622 C55.625,260.658 55.553,260.676 55.481,260.676 L55.481,260.676 L55.481,261 L58.271,261 Z M74.237,261.054 C74.897,261.054 75.518,260.979 76.1,260.829 C76.682,260.679 77.189,260.436 77.621,260.1 C78.053,259.764 78.395,259.341 78.647,258.831 C78.899,258.321 79.025,257.724 79.025,257.04 C79.025,256.356 78.899,255.759 78.647,255.249 C78.395,254.739 78.053,254.316 77.621,253.98 C77.189,253.644 76.682,253.392 76.1,253.224 C75.518,253.056 74.897,252.972 74.237,252.972 C73.577,252.972 72.956,253.056 72.374,253.224 C71.792,253.392 71.285,253.644 70.853,253.98 C70.421,254.316 70.079,254.739 69.827,255.249 C69.575,255.759 69.449,256.356 69.449,257.04 C69.449,257.724 69.575,258.321 69.827,258.831 C70.079,259.341 70.421,259.764 70.853,260.1 C71.285,260.436 71.792,260.679 72.374,260.829 C72.956,260.979 73.577,261.054 74.237,261.054 Z M74.237,259.776 C73.853,259.776 73.478,259.713 73.112,259.587 C72.746,259.461 72.419,259.281 72.131,259.047 C71.843,258.813 71.612,258.528 71.438,258.192 C71.264,257.856 71.177,257.472 71.177,257.04 C71.177,256.608 71.264,256.224 71.438,255.888 C71.612,255.552 71.843,255.267 72.131,255.033 C72.419,254.799 72.746,254.619 73.112,254.493 C73.478,254.367 73.853,254.304 74.237,254.304 C74.621,254.304 74.996,254.367 75.362,254.493 C75.728,254.619 76.055,254.799 76.343,255.033 C76.631,255.267 76.862,255.552 77.036,255.888 C77.21,256.224 77.297,256.608 77.297,257.04 C77.297,257.472 77.21,257.856 77.036,258.192 C76.862,258.528 76.631,258.813 76.343,259.047 C76.055,259.281 75.728,259.461 75.362,259.587 C74.996,259.713 74.621,259.776 74.237,259.776 Z M84.983,261 L84.983,260.676 C84.875,260.676 84.803,260.658 84.767,260.622 C84.731,260.586 84.713,260.52 84.713,260.424 C84.713,260.388 84.758,260.253 84.848,260.019 C84.938,259.785 85.052,259.497 85.19,259.155 C85.328,258.813 85.478,258.441 85.64,258.039 C85.802,257.637 85.955,257.253 86.099,256.887 C86.243,256.521 86.369,256.197 86.477,255.915 C86.585,255.633 86.651,255.438 86.675,255.33 L86.675,255.33 L86.711,255.33 C86.903,255.93 87.101,256.524 87.305,257.112 C87.509,257.7 87.698,258.231 87.872,258.705 C88.046,259.179 88.187,259.572 88.295,259.884 C88.403,260.196 88.457,260.376 88.457,260.424 C88.457,260.52 88.445,260.583 88.421,260.613 C88.397,260.643 88.337,260.664 88.241,260.676 L88.241,260.676 L88.241,261 L90.761,261 L90.761,260.676 C90.593,260.676 90.509,260.598 90.509,260.442 C90.509,260.382 90.545,260.271 90.617,260.109 C90.689,259.947 90.761,259.764 90.833,259.56 L90.833,259.56 L92.903,254.07 C93.059,253.626 93.239,253.404 93.443,253.404 L93.443,253.404 L93.443,253.08 L91.157,253.08 L91.157,253.404 C91.349,253.404 91.445,253.488 91.445,253.656 C91.445,253.74 91.424,253.845 91.382,253.971 C91.34,254.097 91.289,254.244 91.229,254.412 L91.229,254.412 L89.555,258.786 L87.971,254.448 C87.911,254.304 87.851,254.151 87.791,253.989 C87.731,253.827 87.701,253.704 87.701,253.62 C87.701,253.476 87.809,253.404 88.025,253.404 L88.025,253.404 L88.025,253.08 L85.451,253.08 L85.451,253.404 C85.643,253.404 85.739,253.488 85.739,253.656 C85.739,253.752 85.712,253.875 85.658,254.025 C85.604,254.175 85.547,254.334 85.487,254.502 L85.487,254.502 L83.957,258.786 L83.921,258.786 L82.337,254.412 C82.265,254.22 82.205,254.061 82.157,253.935 C82.109,253.809 82.085,253.716 82.085,253.656 C82.085,253.488 82.163,253.404 82.319,253.404 L82.319,253.404 L82.319,253.08 L80.033,253.08 L80.033,253.404 C80.213,253.44 80.339,253.554 80.411,253.746 L80.411,253.746 L82.787,259.992 C82.811,260.052 82.844,260.139 82.886,260.253 C82.928,260.367 82.949,260.46 82.949,260.532 C82.949,260.604 82.931,260.646 82.895,260.658 C82.859,260.67 82.817,260.676 82.769,260.676 L82.769,260.676 L82.769,261 L84.983,261 Z M96.485,261.054 C96.833,261.054 97.133,260.937 97.385,260.703 C97.637,260.469 97.763,260.178 97.763,259.83 C97.763,259.482 97.637,259.182 97.385,258.93 C97.133,258.678 96.833,258.552 96.485,258.552 C96.137,258.552 95.837,258.678 95.585,258.93 C95.333,259.182 95.207,259.482 95.207,259.83 C95.207,260.178 95.333,260.469 95.585,260.703 C95.837,260.937 96.137,261.054 96.485,261.054 Z M111.695,261 L111.695,260.676 C111.419,260.676 111.281,260.568 111.281,260.352 L111.281,260.352 L111.281,257.148 L114.341,252.81 C114.485,252.594 114.608,252.423 114.71,252.297 C114.812,252.171 114.908,252.075 114.998,252.009 C115.088,251.943 115.175,251.901 115.259,251.883 C115.343,251.865 115.433,251.856 115.529,251.856 L115.529,251.856 L115.529,251.532 L112.379,251.532 L112.379,251.856 C112.475,251.856 112.58,251.868 112.694,251.892 C112.808,251.916 112.865,251.97 112.865,252.054 C112.865,252.126 112.835,252.204 112.775,252.288 C112.715,252.372 112.637,252.486 112.541,252.63 L112.541,252.63 L110.435,255.528 C110.279,255.276 110.075,254.97 109.823,254.61 C109.571,254.25 109.328,253.899 109.094,253.557 C108.86,253.215 108.656,252.909 108.482,252.639 C108.308,252.369 108.221,252.198 108.221,252.126 C108.221,252.006 108.269,251.931 108.365,251.901 C108.461,251.871 108.563,251.856 108.671,251.856 L108.671,251.856 L108.671,251.532 L104.927,251.532 L104.927,251.856 C105.047,251.856 105.194,251.898 105.368,251.982 C105.542,252.066 105.671,252.168 105.755,252.288 L105.755,252.288 L109.229,257.148 L109.229,260.352 C109.229,260.46 109.193,260.541 109.121,260.595 C109.049,260.649 108.959,260.676 108.851,260.676 L108.851,260.676 L108.851,261 L111.695,261 Z M121.217,261.054 C121.877,261.054 122.498,260.979 123.08,260.829 C123.662,260.679 124.169,260.436 124.601,260.1 C125.033,259.764 125.375,259.341 125.627,258.831 C125.879,258.321 126.005,257.724 126.005,257.04 C126.005,256.356 125.879,255.759 125.627,255.249 C125.375,254.739 125.033,254.316 124.601,253.98 C124.169,253.644 123.662,253.392 123.08,253.224 C122.498,253.056 121.877,252.972 121.217,252.972 C120.557,252.972 119.936,253.056 119.354,253.224 C118.772,253.392 118.265,253.644 117.833,253.98 C117.401,254.316 117.059,254.739 116.807,255.249 C116.555,255.759 116.429,256.356 116.429,257.04 C116.429,257.724 116.555,258.321 116.807,258.831 C117.059,259.341 117.401,259.764 117.833,260.1 C118.265,260.436 118.772,260.679 119.354,260.829 C119.936,260.979 120.557,261.054 121.217,261.054 Z M121.217,259.776 C120.833,259.776 120.458,259.713 120.092,259.587 C119.726,259.461 119.399,259.281 119.111,259.047 C118.823,258.813 118.592,258.528 118.418,258.192 C118.244,257.856 118.157,257.472 118.157,257.04 C118.157,256.608 118.244,256.224 118.418,255.888 C118.592,255.552 118.823,255.267 119.111,255.033 C119.399,254.799 119.726,254.619 120.092,254.493 C120.458,254.367 120.833,254.304 121.217,254.304 C121.601,254.304 121.976,254.367 122.342,254.493 C122.708,254.619 123.035,254.799 123.323,255.033 C123.611,255.267 123.842,255.552 124.016,255.888 C124.19,256.224 124.277,256.608 124.277,257.04 C124.277,257.472 124.19,257.856 124.016,258.192 C123.842,258.528 123.611,258.813 123.323,259.047 C123.035,259.281 122.708,259.461 122.342,259.587 C121.976,259.713 121.601,259.776 121.217,259.776 Z M132.791,261.054 C133.511,261.054 134.138,260.979 134.672,260.829 C135.206,260.679 135.644,260.472 135.986,260.208 C136.328,259.944 136.583,259.641 136.751,259.299 C136.919,258.957 137.003,258.6 137.003,258.228 L137.003,258.228 L137.003,253.674 C137.003,253.494 137.135,253.404 137.399,253.404 L137.399,253.404 L137.399,253.08 L134.897,253.08 L134.897,253.404 C135.197,253.404 135.347,253.494 135.347,253.674 L135.347,253.674 L135.347,257.796 C135.347,258.372 135.137,258.834 134.717,259.182 C134.297,259.53 133.655,259.704 132.791,259.704 C131.927,259.704 131.285,259.53 130.865,259.182 C130.445,258.834 130.235,258.372 130.235,257.796 L130.235,257.796 L130.235,253.674 C130.235,253.494 130.367,253.404 130.631,253.404 L130.631,253.404 L130.631,253.08 L128.057,253.08 L128.057,253.404 C128.261,253.404 128.399,253.425 128.471,253.467 C128.543,253.509 128.579,253.578 128.579,253.674 L128.579,253.674 L128.579,258.228 C128.579,258.6 128.663,258.957 128.831,259.299 C128.999,259.641 129.254,259.944 129.596,260.208 C129.938,260.472 130.376,260.679 130.91,260.829 C131.444,260.979 132.071,261.054 132.791,261.054 Z M149.081,261.054 C149.489,261.054 149.924,261.024 150.386,260.964 C150.848,260.904 151.271,260.778 151.655,260.586 C152.039,260.394 152.36,260.13 152.618,259.794 C152.876,259.458 153.005,259.026 153.005,258.498 C153.005,257.97 152.858,257.556 152.564,257.256 C152.27,256.956 151.901,256.728 151.457,256.572 C151.013,256.416 150.533,256.305 150.017,256.239 C149.501,256.173 149.021,256.107 148.577,256.041 C148.133,255.975 147.764,255.885 147.47,255.771 C147.176,255.657 147.029,255.468 147.029,255.204 C147.029,255.036 147.077,254.895 147.173,254.781 C147.269,254.667 147.401,254.574 147.569,254.502 C147.737,254.43 147.929,254.379 148.145,254.349 C148.361,254.319 148.589,254.304 148.829,254.304 C149.453,254.304 150.017,254.376 150.521,254.52 C151.025,254.664 151.397,254.838 151.637,255.042 C151.733,255.114 151.787,255.186 151.799,255.258 L151.799,255.258 L151.835,255.474 L152.159,255.582 L153.059,253.89 L152.861,253.692 C152.789,253.728 152.729,253.761 152.681,253.791 C152.633,253.821 152.561,253.836 152.465,253.836 C152.381,253.836 152.252,253.791 152.078,253.701 C151.904,253.611 151.679,253.512 151.403,253.404 C151.127,253.296 150.788,253.197 150.386,253.107 C149.984,253.017 149.501,252.972 148.937,252.972 C147.785,252.972 146.891,253.2 146.255,253.656 C145.619,254.112 145.301,254.724 145.301,255.492 C145.301,256.008 145.448,256.407 145.742,256.689 C146.036,256.971 146.405,257.187 146.849,257.337 C147.293,257.487 147.773,257.595 148.289,257.661 C148.805,257.727 149.285,257.793 149.729,257.859 C150.173,257.925 150.542,258.018 150.836,258.138 C151.13,258.258 151.277,258.45 151.277,258.714 C151.277,258.942 151.193,259.125 151.025,259.263 C150.857,259.401 150.653,259.509 150.413,259.587 C150.173,259.665 149.93,259.716 149.684,259.74 C149.438,259.764 149.231,259.776 149.063,259.776 C148.883,259.776 148.634,259.746 148.316,259.686 C147.998,259.626 147.68,259.545 147.362,259.443 C147.044,259.341 146.771,259.215 146.543,259.065 C146.315,258.915 146.201,258.75 146.201,258.57 C146.201,258.51 146.204,258.453 146.21,258.399 C146.216,258.345 146.219,258.294 146.219,258.246 L146.219,258.246 L145.877,258.156 L145.049,260.172 L145.301,260.352 C145.361,260.28 145.433,260.244 145.517,260.244 C145.565,260.244 145.703,260.289 145.931,260.379 C146.159,260.469 146.438,260.565 146.768,260.667 C147.098,260.769 147.464,260.859 147.866,260.937 C148.268,261.015 148.673,261.054 149.081,261.054 Z M158.081,261 L158.081,260.676 C158.009,260.676 157.946,260.655 157.892,260.613 C157.838,260.571 157.811,260.502 157.811,260.406 L157.811,260.406 L157.811,257.688 L162.635,257.688 L162.635,260.406 C162.635,260.502 162.608,260.571 162.554,260.613 C162.5,260.655 162.437,260.676 162.365,260.676 L162.365,260.676 L162.365,261 L164.633,261 L164.633,260.676 C164.561,260.676 164.498,260.655 164.444,260.613 C164.39,260.571 164.363,260.502 164.363,260.406 L164.363,260.406 L164.363,253.674 C164.363,253.578 164.39,253.509 164.444,253.467 C164.498,253.425 164.561,253.404 164.633,253.404 L164.633,253.404 L164.633,253.08 L162.365,253.08 L162.365,253.404 C162.437,253.404 162.5,253.425 162.554,253.467 C162.608,253.509 162.635,253.578 162.635,253.674 L162.635,253.674 L162.635,256.212 L157.811,256.212 L157.811,253.674 C157.811,253.578 157.838,253.509 157.892,253.467 C157.946,253.425 158.009,253.404 158.081,253.404 L158.081,253.404 L158.081,253.08 L155.813,253.08 L155.813,253.404 C155.885,253.404 155.948,253.425 156.002,253.467 C156.056,253.509 156.083,253.578 156.083,253.674 L156.083,253.674 L156.083,260.406 C156.083,260.502 156.056,260.571 156.002,260.613 C155.948,260.655 155.885,260.676 155.813,260.676 L155.813,260.676 L155.813,261 L158.081,261 Z M171.725,261.054 C172.385,261.054 173.006,260.979 173.588,260.829 C174.17,260.679 174.677,260.436 175.109,260.1 C175.541,259.764 175.883,259.341 176.135,258.831 C176.387,258.321 176.513,257.724 176.513,257.04 C176.513,256.356 176.387,255.759 176.135,255.249 C175.883,254.739 175.541,254.316 175.109,253.98 C174.677,253.644 174.17,253.392 173.588,253.224 C173.006,253.056 172.385,252.972 171.725,252.972 C171.065,252.972 170.444,253.056 169.862,253.224 C169.28,253.392 168.773,253.644 168.341,253.98 C167.909,254.316 167.567,254.739 167.315,255.249 C167.063,255.759 166.937,256.356 166.937,257.04 C166.937,257.724 167.063,258.321 167.315,258.831 C167.567,259.341 167.909,259.764 168.341,260.1 C168.773,260.436 169.28,260.679 169.862,260.829 C170.444,260.979 171.065,261.054 171.725,261.054 Z M171.725,259.776 C171.341,259.776 170.966,259.713 170.6,259.587 C170.234,259.461 169.907,259.281 169.619,259.047 C169.331,258.813 169.1,258.528 168.926,258.192 C168.752,257.856 168.665,257.472 168.665,257.04 C168.665,256.608 168.752,256.224 168.926,255.888 C169.1,255.552 169.331,255.267 169.619,255.033 C169.907,254.799 170.234,254.619 170.6,254.493 C170.966,254.367 171.341,254.304 171.725,254.304 C172.109,254.304 172.484,254.367 172.85,254.493 C173.216,254.619 173.543,254.799 173.831,255.033 C174.119,255.267 174.35,255.552 174.524,255.888 C174.698,256.224 174.785,256.608 174.785,257.04 C174.785,257.472 174.698,257.856 174.524,258.192 C174.35,258.528 174.119,258.813 173.831,259.047 C173.543,259.281 173.216,259.461 172.85,259.587 C172.484,259.713 172.109,259.776 171.725,259.776 Z M183.299,261.054 C184.019,261.054 184.646,260.979 185.18,260.829 C185.714,260.679 186.152,260.472 186.494,260.208 C186.836,259.944 187.091,259.641 187.259,259.299 C187.427,258.957 187.511,258.6 187.511,258.228 L187.511,258.228 L187.511,253.674 C187.511,253.494 187.643,253.404 187.907,253.404 L187.907,253.404 L187.907,253.08 L185.405,253.08 L185.405,253.404 C185.705,253.404 185.855,253.494 185.855,253.674 L185.855,253.674 L185.855,257.796 C185.855,258.372 185.645,258.834 185.225,259.182 C184.805,259.53 184.163,259.704 183.299,259.704 C182.435,259.704 181.793,259.53 181.373,259.182 C180.953,258.834 180.743,258.372 180.743,257.796 L180.743,257.796 L180.743,253.674 C180.743,253.494 180.875,253.404 181.139,253.404 L181.139,253.404 L181.139,253.08 L178.565,253.08 L178.565,253.404 C178.769,253.404 178.907,253.425 178.979,253.467 C179.051,253.509 179.087,253.578 179.087,253.674 L179.087,253.674 L179.087,258.228 C179.087,258.6 179.171,258.957 179.339,259.299 C179.507,259.641 179.762,259.944 180.104,260.208 C180.446,260.472 180.884,260.679 181.418,260.829 C181.952,260.979 182.579,261.054 183.299,261.054 Z M198.491,261.18 L198.491,259.29 L198.167,259.29 C198.167,259.41 198.119,259.503 198.023,259.569 C197.927,259.635 197.807,259.668 197.663,259.668 L197.663,259.668 L192.803,259.668 L192.803,253.674 C192.803,253.494 192.941,253.404 193.217,253.404 L193.217,253.404 L193.217,253.08 L190.607,253.08 L190.607,253.404 C190.919,253.404 191.075,253.494 191.075,253.674 L191.075,253.674 L191.075,260.406 C191.075,260.586 190.919,260.676 190.607,260.676 L190.607,260.676 L190.607,261 L197.663,261 C197.807,261 197.927,261.006 198.023,261.018 C198.119,261.03 198.167,261.084 198.167,261.18 L198.167,261.18 L198.491,261.18 Z M205.529,261 C206.237,261 206.837,260.886 207.329,260.658 C207.821,260.43 208.223,260.133 208.535,259.767 C208.847,259.401 209.075,258.981 209.219,258.507 C209.363,258.033 209.435,257.544 209.435,257.04 C209.435,256.536 209.36,256.047 209.21,255.573 C209.06,255.099 208.826,254.679 208.508,254.313 C208.19,253.947 207.779,253.65 207.275,253.422 C206.771,253.194 206.165,253.08 205.457,253.08 L205.457,253.08 L200.453,253.08 L200.453,253.404 C200.729,253.404 200.867,253.494 200.867,253.674 L200.867,253.674 L200.867,260.406 C200.867,260.586 200.729,260.676 200.453,260.676 L200.453,260.676 L200.453,261 L205.529,261 Z M204.935,259.668 L202.595,259.668 L202.595,254.412 L204.935,254.412 C205.307,254.412 205.661,254.433 205.997,254.475 C206.333,254.517 206.627,254.625 206.879,254.799 C207.131,254.973 207.332,255.231 207.482,255.573 C207.632,255.915 207.707,256.386 207.707,256.986 C207.707,257.586 207.632,258.063 207.482,258.417 C207.332,258.771 207.131,259.041 206.879,259.227 C206.627,259.413 206.333,259.533 205.997,259.587 C205.661,259.641 205.307,259.668 204.935,259.668 L204.935,259.668 Z M29.525,279 L29.525,278.676 C29.453,278.676 29.378,278.655 29.3,278.613 C29.222,278.571 29.183,278.502 29.183,278.406 L29.183,278.406 L29.183,275.832 L31.685,275.832 L33.107,277.956 C33.287,278.208 33.377,278.394 33.377,278.514 C33.377,278.622 33.299,278.676 33.143,278.676 L33.143,278.676 L33.143,279 L35.897,279 L35.897,278.676 C35.765,278.64 35.642,278.589 35.528,278.523 C35.414,278.457 35.309,278.358 35.213,278.226 L35.213,278.226 L33.449,275.652 C33.701,275.592 33.947,275.505 34.187,275.391 C34.427,275.277 34.646,275.127 34.844,274.941 C35.042,274.755 35.201,274.536 35.321,274.284 C35.441,274.032 35.501,273.744 35.501,273.42 C35.501,272.568 35.201,271.965 34.601,271.611 C34.001,271.257 33.167,271.08 32.099,271.08 L32.099,271.08 L27.131,271.08 L27.131,271.404 C27.347,271.404 27.455,271.494 27.455,271.674 L27.455,271.674 L27.455,278.406 C27.455,278.586 27.347,278.676 27.131,278.676 L27.131,278.676 L27.131,279 L29.525,279 Z M32.063,274.5 L29.219,274.5 L29.219,272.412 L32.063,272.412 C32.675,272.412 33.122,272.499 33.404,272.673 C33.686,272.847 33.827,273.084 33.827,273.384 C33.827,274.128 33.239,274.5 32.063,274.5 L32.063,274.5 Z M45.635,279.198 L45.635,277.308 L45.311,277.308 C45.311,277.416 45.263,277.503 45.167,277.569 C45.071,277.635 44.951,277.668 44.807,277.668 L44.807,277.668 L40.199,277.668 L40.199,275.544 L42.827,275.544 C43.067,275.544 43.253,275.559 43.385,275.589 C43.517,275.619 43.565,275.7 43.529,275.832 L43.529,275.832 L43.889,275.832 L43.889,273.924 L43.565,273.924 C43.565,274.056 43.517,274.137 43.421,274.167 C43.325,274.197 43.175,274.212 42.971,274.212 L42.971,274.212 L40.199,274.212 L40.199,272.412 L44.591,272.412 C44.963,272.412 45.149,272.526 45.149,272.754 L45.149,272.754 L45.473,272.754 L45.473,270.756 L45.149,270.756 C45.149,270.972 44.963,271.08 44.591,271.08 L44.591,271.08 L38.201,271.08 L38.201,271.404 C38.261,271.404 38.321,271.425 38.381,271.467 C38.441,271.509 38.471,271.578 38.471,271.674 L38.471,271.674 L38.471,278.406 C38.471,278.502 38.441,278.571 38.381,278.613 C38.321,278.655 38.261,278.676 38.201,278.676 L38.201,278.676 L38.201,279 L44.807,279 C44.951,279 45.071,279.006 45.167,279.018 C45.263,279.03 45.311,279.09 45.311,279.198 L45.311,279.198 L45.635,279.198 Z M49.415,279 L49.415,278.676 C49.307,278.676 49.223,278.664 49.163,278.64 C49.103,278.616 49.073,278.556 49.073,278.46 C49.073,278.4 49.088,278.331 49.118,278.253 C49.148,278.175 49.187,278.088 49.235,277.992 L49.235,277.992 L49.739,277.02 L53.591,277.02 L54.077,278.046 C54.113,278.142 54.143,278.22 54.167,278.28 C54.191,278.34 54.203,278.406 54.203,278.478 C54.203,278.574 54.17,278.64 54.104,278.676 C54.038,278.712 53.975,278.73 53.915,278.73 L53.915,278.73 L53.915,279 L56.471,279 L56.471,278.676 C56.387,278.652 56.309,278.616 56.237,278.568 C56.165,278.52 56.099,278.442 56.039,278.334 L56.039,278.334 L53.123,272.214 C53.063,272.082 53.006,271.965 52.952,271.863 C52.898,271.761 52.871,271.674 52.871,271.602 C52.871,271.518 52.892,271.47 52.934,271.458 C52.976,271.446 53.015,271.428 53.051,271.404 L53.051,271.404 L53.051,271.08 L50.333,271.08 L50.333,271.404 C50.369,271.428 50.402,271.449 50.432,271.467 C50.462,271.485 50.477,271.53 50.477,271.602 C50.477,271.698 50.456,271.797 50.414,271.899 C50.372,272.001 50.315,272.136 50.243,272.304 L50.243,272.304 L47.561,278.154 C47.513,278.25 47.444,278.355 47.354,278.469 C47.264,278.583 47.147,278.652 47.003,278.676 L47.003,278.676 L47.003,279 L49.415,279 Z M53.015,275.688 L50.279,275.688 L51.557,272.664 L53.015,275.688 Z M65.993,279.18 L65.993,277.29 L65.669,277.29 C65.669,277.41 65.621,277.503 65.525,277.569 C65.429,277.635 65.309,277.668 65.165,277.668 L65.165,277.668 L60.305,277.668 L60.305,271.674 C60.305,271.494 60.443,271.404 60.719,271.404 L60.719,271.404 L60.719,271.08 L58.109,271.08 L58.109,271.404 C58.421,271.404 58.577,271.494 58.577,271.674 L58.577,271.674 L58.577,278.406 C58.577,278.586 58.421,278.676 58.109,278.676 L58.109,278.676 L58.109,279 L65.165,279 C65.309,279 65.429,279.006 65.525,279.018 C65.621,279.03 65.669,279.084 65.669,279.18 L65.669,279.18 L65.993,279.18 Z M76.001,279.18 L76.001,277.29 L75.677,277.29 C75.677,277.41 75.629,277.503 75.533,277.569 C75.437,277.635 75.317,277.668 75.173,277.668 L75.173,277.668 L70.313,277.668 L70.313,271.674 C70.313,271.494 70.451,271.404 70.727,271.404 L70.727,271.404 L70.727,271.08 L68.117,271.08 L68.117,271.404 C68.429,271.404 68.585,271.494 68.585,271.674 L68.585,271.674 L68.585,278.406 C68.585,278.586 68.429,278.676 68.117,278.676 L68.117,278.676 L68.117,279 L75.173,279 C75.317,279 75.437,279.006 75.533,279.018 C75.629,279.03 75.677,279.084 75.677,279.18 L75.677,279.18 L76.001,279.18 Z M82.967,279 L82.967,278.676 C82.739,278.676 82.625,278.586 82.625,278.406 L82.625,278.406 L82.625,275.706 L85.379,272.142 C85.511,271.974 85.664,271.809 85.838,271.647 C86.012,271.485 86.171,271.404 86.315,271.404 L86.315,271.404 L86.315,271.08 L83.561,271.08 L83.561,271.404 C83.621,271.404 83.681,271.416 83.741,271.44 C83.801,271.464 83.831,271.524 83.831,271.62 C83.831,271.692 83.804,271.767 83.75,271.845 C83.696,271.923 83.615,272.04 83.507,272.196 L83.507,272.196 L81.905,274.428 L80.087,272.052 C80.027,271.968 79.973,271.896 79.925,271.836 C79.877,271.776 79.853,271.71 79.853,271.638 C79.853,271.566 79.889,271.509 79.961,271.467 C80.033,271.425 80.099,271.404 80.159,271.404 L80.159,271.404 L80.159,271.08 L77.189,271.08 L77.189,271.404 C77.297,271.404 77.411,271.428 77.531,271.476 C77.651,271.524 77.753,271.602 77.837,271.71 L77.837,271.71 L80.897,275.634 L80.897,278.406 C80.897,278.586 80.789,278.676 80.573,278.676 L80.573,278.676 L80.573,279 L82.967,279 Z M97.943,279.054 C98.519,279.054 99.041,279.015 99.509,278.937 C99.977,278.859 100.388,278.76 100.742,278.64 C101.096,278.52 101.39,278.397 101.624,278.271 C101.858,278.145 102.029,278.046 102.137,277.974 L102.137,277.974 L102.137,277.758 C102.017,277.71 101.942,277.665 101.912,277.623 C101.882,277.581 101.867,277.506 101.867,277.398 L101.867,277.398 L101.867,275.688 C101.867,275.568 101.885,275.478 101.921,275.418 C101.957,275.358 102.029,275.304 102.137,275.256 L102.137,275.256 L102.137,274.932 L98.609,274.932 C98.477,274.932 98.363,274.914 98.267,274.878 C98.171,274.842 98.111,274.764 98.087,274.644 L98.087,274.644 L97.763,274.644 L97.763,276.498 L98.087,276.498 C98.111,276.354 98.171,276.255 98.267,276.201 C98.363,276.147 98.477,276.12 98.609,276.12 L98.609,276.12 L100.463,276.12 L100.463,277.254 C100.079,277.458 99.656,277.596 99.194,277.668 C98.732,277.74 98.243,277.776 97.727,277.776 C97.379,277.776 97.019,277.728 96.647,277.632 C96.275,277.536 95.936,277.383 95.63,277.173 C95.324,276.963 95.075,276.687 94.883,276.345 C94.691,276.003 94.595,275.58 94.595,275.076 C94.595,274.572 94.685,274.146 94.865,273.798 C95.045,273.45 95.285,273.165 95.585,272.943 C95.885,272.721 96.233,272.559 96.629,272.457 C97.025,272.355 97.445,272.304 97.889,272.304 C98.213,272.304 98.534,272.337 98.852,272.403 C99.17,272.469 99.455,272.556 99.707,272.664 C99.959,272.772 100.163,272.889 100.319,273.015 C100.475,273.141 100.553,273.258 100.553,273.366 C100.553,273.378 100.541,273.444 100.517,273.564 L100.517,273.564 L100.733,273.69 L101.777,271.728 L101.561,271.62 C101.489,271.68 101.429,271.719 101.381,271.737 C101.333,271.755 101.261,271.764 101.165,271.764 C101.081,271.764 100.955,271.722 100.787,271.638 C100.619,271.554 100.397,271.464 100.121,271.368 C99.857,271.272 99.545,271.182 99.185,271.098 C98.825,271.014 98.411,270.972 97.943,270.972 C97.163,270.972 96.458,271.065 95.828,271.251 C95.198,271.437 94.664,271.707 94.226,272.061 C93.788,272.415 93.452,272.841 93.218,273.339 C92.984,273.837 92.867,274.404 92.867,275.04 C92.867,275.676 92.984,276.243 93.218,276.741 C93.452,277.239 93.788,277.662 94.226,278.01 C94.664,278.358 95.198,278.619 95.828,278.793 C96.458,278.967 97.163,279.054 97.943,279.054 Z M112.163,279.198 L112.163,277.308 L111.839,277.308 C111.839,277.416 111.791,277.503 111.695,277.569 C111.599,277.635 111.479,277.668 111.335,277.668 L111.335,277.668 L106.727,277.668 L106.727,275.544 L109.355,275.544 C109.595,275.544 109.781,275.559 109.913,275.589 C110.045,275.619 110.093,275.7 110.057,275.832 L110.057,275.832 L110.417,275.832 L110.417,273.924 L110.093,273.924 C110.093,274.056 110.045,274.137 109.949,274.167 C109.853,274.197 109.703,274.212 109.499,274.212 L109.499,274.212 L106.727,274.212 L106.727,272.412 L111.119,272.412 C111.491,272.412 111.677,272.526 111.677,272.754 L111.677,272.754 L112.001,272.754 L112.001,270.756 L111.677,270.756 C111.677,270.972 111.491,271.08 111.119,271.08 L111.119,271.08 L104.729,271.08 L104.729,271.404 C104.789,271.404 104.849,271.425 104.909,271.467 C104.969,271.509 104.999,271.578 104.999,271.674 L104.999,271.674 L104.999,278.406 C104.999,278.502 104.969,278.571 104.909,278.613 C104.849,278.655 104.789,278.676 104.729,278.676 L104.729,278.676 L104.729,279 L111.335,279 C111.479,279 111.599,279.006 111.695,279.018 C111.791,279.03 111.839,279.09 111.839,279.198 L111.839,279.198 L112.163,279.198 Z M118.949,279 L118.949,278.676 C118.733,278.676 118.625,278.586 118.625,278.406 L118.625,278.406 L118.625,272.412 L120.965,272.412 C121.061,272.412 121.151,272.436 121.235,272.484 C121.319,272.532 121.361,272.61 121.361,272.718 L121.361,272.718 L121.685,272.718 L121.685,270.648 L121.361,270.648 C121.361,270.816 121.319,270.93 121.235,270.99 C121.151,271.05 121.061,271.08 120.965,271.08 L120.965,271.08 L114.557,271.08 C114.461,271.08 114.371,271.05 114.287,270.99 C114.203,270.93 114.161,270.816 114.161,270.648 L114.161,270.648 L113.837,270.648 L113.837,272.718 L114.161,272.718 C114.161,272.61 114.203,272.532 114.287,272.484 C114.371,272.436 114.461,272.412 114.557,272.412 L114.557,272.412 L116.897,272.412 L116.897,278.406 C116.897,278.502 116.867,278.571 116.807,278.613 C116.747,278.655 116.687,278.676 116.627,278.676 L116.627,278.676 L116.627,279 L118.949,279 Z M133.439,279 L133.439,278.676 C133.223,278.676 133.115,278.586 133.115,278.406 L133.115,278.406 L133.115,272.412 L135.455,272.412 C135.551,272.412 135.641,272.436 135.725,272.484 C135.809,272.532 135.851,272.61 135.851,272.718 L135.851,272.718 L136.175,272.718 L136.175,270.648 L135.851,270.648 C135.851,270.816 135.809,270.93 135.725,270.99 C135.641,271.05 135.551,271.08 135.455,271.08 L135.455,271.08 L129.047,271.08 C128.951,271.08 128.861,271.05 128.777,270.99 C128.693,270.93 128.651,270.816 128.651,270.648 L128.651,270.648 L128.327,270.648 L128.327,272.718 L128.651,272.718 C128.651,272.61 128.693,272.532 128.777,272.484 C128.861,272.436 128.951,272.412 129.047,272.412 L129.047,272.412 L131.387,272.412 L131.387,278.406 C131.387,278.502 131.357,278.571 131.297,278.613 C131.237,278.655 131.177,278.676 131.117,278.676 L131.117,278.676 L131.117,279 L133.439,279 Z M140.603,279 L140.603,278.676 C140.531,278.676 140.468,278.655 140.414,278.613 C140.36,278.571 140.333,278.502 140.333,278.406 L140.333,278.406 L140.333,275.688 L145.157,275.688 L145.157,278.406 C145.157,278.502 145.13,278.571 145.076,278.613 C145.022,278.655 144.959,278.676 144.887,278.676 L144.887,278.676 L144.887,279 L147.155,279 L147.155,278.676 C147.083,278.676 147.02,278.655 146.966,278.613 C146.912,278.571 146.885,278.502 146.885,278.406 L146.885,278.406 L146.885,271.674 C146.885,271.578 146.912,271.509 146.966,271.467 C147.02,271.425 147.083,271.404 147.155,271.404 L147.155,271.404 L147.155,271.08 L144.887,271.08 L144.887,271.404 C144.959,271.404 145.022,271.425 145.076,271.467 C145.13,271.509 145.157,271.578 145.157,271.674 L145.157,271.674 L145.157,274.212 L140.333,274.212 L140.333,271.674 C140.333,271.578 140.36,271.509 140.414,271.467 C140.468,271.425 140.531,271.404 140.603,271.404 L140.603,271.404 L140.603,271.08 L138.335,271.08 L138.335,271.404 C138.407,271.404 138.47,271.425 138.524,271.467 C138.578,271.509 138.605,271.578 138.605,271.674 L138.605,271.674 L138.605,278.406 C138.605,278.502 138.578,278.571 138.524,278.613 C138.47,278.655 138.407,278.676 138.335,278.676 L138.335,278.676 L138.335,279 L140.603,279 Z M151.439,279 L151.439,278.676 C151.331,278.676 151.247,278.664 151.187,278.64 C151.127,278.616 151.097,278.556 151.097,278.46 C151.097,278.4 151.112,278.331 151.142,278.253 C151.172,278.175 151.211,278.088 151.259,277.992 L151.259,277.992 L151.763,277.02 L155.615,277.02 L156.101,278.046 C156.137,278.142 156.167,278.22 156.191,278.28 C156.215,278.34 156.227,278.406 156.227,278.478 C156.227,278.574 156.194,278.64 156.128,278.676 C156.062,278.712 155.999,278.73 155.939,278.73 L155.939,278.73 L155.939,279 L158.495,279 L158.495,278.676 C158.411,278.652 158.333,278.616 158.261,278.568 C158.189,278.52 158.123,278.442 158.063,278.334 L158.063,278.334 L155.147,272.214 C155.087,272.082 155.03,271.965 154.976,271.863 C154.922,271.761 154.895,271.674 154.895,271.602 C154.895,271.518 154.916,271.47 154.958,271.458 C155,271.446 155.039,271.428 155.075,271.404 L155.075,271.404 L155.075,271.08 L152.357,271.08 L152.357,271.404 C152.393,271.428 152.426,271.449 152.456,271.467 C152.486,271.485 152.501,271.53 152.501,271.602 C152.501,271.698 152.48,271.797 152.438,271.899 C152.396,272.001 152.339,272.136 152.267,272.304 L152.267,272.304 L149.585,278.154 C149.537,278.25 149.468,278.355 149.378,278.469 C149.288,278.583 149.171,278.652 149.027,278.676 L149.027,278.676 L149.027,279 L151.439,279 Z M155.039,275.688 L152.303,275.688 L153.581,272.664 L155.039,275.688 Z M164.453,279 L164.453,278.676 C164.237,278.676 164.129,278.586 164.129,278.406 L164.129,278.406 L164.129,272.412 L166.469,272.412 C166.565,272.412 166.655,272.436 166.739,272.484 C166.823,272.532 166.865,272.61 166.865,272.718 L166.865,272.718 L167.189,272.718 L167.189,270.648 L166.865,270.648 C166.865,270.816 166.823,270.93 166.739,270.99 C166.655,271.05 166.565,271.08 166.469,271.08 L166.469,271.08 L160.061,271.08 C159.965,271.08 159.875,271.05 159.791,270.99 C159.707,270.93 159.665,270.816 159.665,270.648 L159.665,270.648 L159.341,270.648 L159.341,272.718 L159.665,272.718 C159.665,272.61 159.707,272.532 159.791,272.484 C159.875,272.436 159.965,272.412 160.061,272.412 L160.061,272.412 L162.401,272.412 L162.401,278.406 C162.401,278.502 162.371,278.571 162.311,278.613 C162.251,278.655 162.191,278.676 162.131,278.676 L162.131,278.676 L162.131,279 L164.453,279 Z M182.507,279.18 L182.507,277.29 L182.183,277.29 C182.183,277.41 182.135,277.503 182.039,277.569 C181.943,277.635 181.823,277.668 181.679,277.668 L181.679,277.668 L176.819,277.668 L176.819,271.674 C176.819,271.494 176.957,271.404 177.233,271.404 L177.233,271.404 L177.233,271.08 L174.623,271.08 L174.623,271.404 C174.935,271.404 175.091,271.494 175.091,271.674 L175.091,271.674 L175.091,278.406 C175.091,278.586 174.935,278.676 174.623,278.676 L174.623,278.676 L174.623,279 L181.679,279 C181.823,279 181.943,279.006 182.039,279.018 C182.135,279.03 182.183,279.084 182.183,279.18 L182.183,279.18 L182.507,279.18 Z M188.753,279.054 C189.413,279.054 190.034,278.979 190.616,278.829 C191.198,278.679 191.705,278.436 192.137,278.1 C192.569,277.764 192.911,277.341 193.163,276.831 C193.415,276.321 193.541,275.724 193.541,275.04 C193.541,274.356 193.415,273.759 193.163,273.249 C192.911,272.739 192.569,272.316 192.137,271.98 C191.705,271.644 191.198,271.392 190.616,271.224 C190.034,271.056 189.413,270.972 188.753,270.972 C188.093,270.972 187.472,271.056 186.89,271.224 C186.308,271.392 185.801,271.644 185.369,271.98 C184.937,272.316 184.595,272.739 184.343,273.249 C184.091,273.759 183.965,274.356 183.965,275.04 C183.965,275.724 184.091,276.321 184.343,276.831 C184.595,277.341 184.937,277.764 185.369,278.1 C185.801,278.436 186.308,278.679 186.89,278.829 C187.472,278.979 188.093,279.054 188.753,279.054 Z M188.753,277.776 C188.369,277.776 187.994,277.713 187.628,277.587 C187.262,277.461 186.935,277.281 186.647,277.047 C186.359,276.813 186.128,276.528 185.954,276.192 C185.78,275.856 185.693,275.472 185.693,275.04 C185.693,274.608 185.78,274.224 185.954,273.888 C186.128,273.552 186.359,273.267 186.647,273.033 C186.935,272.799 187.262,272.619 187.628,272.493 C187.994,272.367 188.369,272.304 188.753,272.304 C189.137,272.304 189.512,272.367 189.878,272.493 C190.244,272.619 190.571,272.799 190.859,273.033 C191.147,273.267 191.378,273.552 191.552,273.888 C191.726,274.224 191.813,274.608 191.813,275.04 C191.813,275.472 191.726,275.856 191.552,276.192 C191.378,276.528 191.147,276.813 190.859,277.047 C190.571,277.281 190.244,277.461 189.878,277.587 C189.512,277.713 189.137,277.776 188.753,277.776 Z M199.751,279.054 C200.411,279.054 201.032,278.979 201.614,278.829 C202.196,278.679 202.703,278.436 203.135,278.1 C203.567,277.764 203.909,277.341 204.161,276.831 C204.413,276.321 204.539,275.724 204.539,275.04 C204.539,274.356 204.413,273.759 204.161,273.249 C203.909,272.739 203.567,272.316 203.135,271.98 C202.703,271.644 202.196,271.392 201.614,271.224 C201.032,271.056 200.411,270.972 199.751,270.972 C199.091,270.972 198.47,271.056 197.888,271.224 C197.306,271.392 196.799,271.644 196.367,271.98 C195.935,272.316 195.593,272.739 195.341,273.249 C195.089,273.759 194.963,274.356 194.963,275.04 C194.963,275.724 195.089,276.321 195.341,276.831 C195.593,277.341 195.935,277.764 196.367,278.1 C196.799,278.436 197.306,278.679 197.888,278.829 C198.47,278.979 199.091,279.054 199.751,279.054 Z M199.751,277.776 C199.367,277.776 198.992,277.713 198.626,277.587 C198.26,277.461 197.933,277.281 197.645,277.047 C197.357,276.813 197.126,276.528 196.952,276.192 C196.778,275.856 196.691,275.472 196.691,275.04 C196.691,274.608 196.778,274.224 196.952,273.888 C197.126,273.552 197.357,273.267 197.645,273.033 C197.933,272.799 198.26,272.619 198.626,272.493 C198.992,272.367 199.367,272.304 199.751,272.304 C200.135,272.304 200.51,272.367 200.876,272.493 C201.242,272.619 201.569,272.799 201.857,273.033 C202.145,273.267 202.376,273.552 202.55,273.888 C202.724,274.224 202.811,274.608 202.811,275.04 C202.811,275.472 202.724,275.856 202.55,276.192 C202.376,276.528 202.145,276.813 201.857,277.047 C201.569,277.281 201.242,277.461 200.876,277.587 C200.51,277.713 200.135,277.776 199.751,277.776 Z M208.949,279 L208.949,278.676 C208.721,278.676 208.607,278.586 208.607,278.406 L208.607,278.406 L208.607,276.39 L210.011,275.274 L212.225,277.974 C212.381,278.154 212.486,278.286 212.54,278.37 C212.594,278.454 212.621,278.52 212.621,278.568 C212.621,278.64 212.555,278.676 212.423,278.676 L212.423,278.676 L212.423,279 L215.087,279 L215.087,278.676 C214.919,278.628 214.751,278.511 214.583,278.325 C214.415,278.139 214.259,277.956 214.115,277.776 L214.115,277.776 L211.271,274.248 L214.277,271.818 C214.565,271.59 214.781,271.452 214.925,271.404 L214.925,271.404 L214.925,271.08 L211.955,271.08 L211.955,271.35 C212.015,271.35 212.078,271.368 212.144,271.404 C212.21,271.44 212.243,271.488 212.243,271.548 C212.243,271.596 212.129,271.719 211.901,271.917 C211.673,272.115 211.385,272.358 211.037,272.646 C210.689,272.934 210.299,273.249 209.867,273.591 C209.435,273.933 209.015,274.272 208.607,274.608 L208.607,274.608 L208.607,271.674 C208.607,271.494 208.721,271.404 208.949,271.404 L208.949,271.404 L208.949,271.08 L206.591,271.08 L206.591,271.404 C206.783,271.404 206.879,271.494 206.879,271.674 L206.879,271.674 L206.879,278.406 C206.879,278.586 206.783,278.676 206.591,278.676 L206.591,278.676 L206.591,279 L208.949,279 Z M224.177,279.198 L224.177,277.308 L223.853,277.308 C223.853,277.416 223.805,277.503 223.709,277.569 C223.613,277.635 223.493,277.668 223.349,277.668 L223.349,277.668 L218.741,277.668 L218.741,275.544 L221.369,275.544 C221.609,275.544 221.795,275.559 221.927,275.589 C222.059,275.619 222.107,275.7 222.071,275.832 L222.071,275.832 L222.431,275.832 L222.431,273.924 L222.107,273.924 C222.107,274.056 222.059,274.137 221.963,274.167 C221.867,274.197 221.717,274.212 221.513,274.212 L221.513,274.212 L218.741,274.212 L218.741,272.412 L223.133,272.412 C223.505,272.412 223.691,272.526 223.691,272.754 L223.691,272.754 L224.015,272.754 L224.015,270.756 L223.691,270.756 C223.691,270.972 223.505,271.08 223.133,271.08 L223.133,271.08 L216.743,271.08 L216.743,271.404 C216.803,271.404 216.863,271.425 216.923,271.467 C216.983,271.509 217.013,271.578 217.013,271.674 L217.013,271.674 L217.013,278.406 C217.013,278.502 216.983,278.571 216.923,278.613 C216.863,278.655 216.803,278.676 216.743,278.676 L216.743,278.676 L216.743,279 L223.349,279 C223.493,279 223.613,279.006 223.709,279.018 C223.805,279.03 223.853,279.09 223.853,279.198 L223.853,279.198 L224.177,279.198 Z M231.557,279 C232.265,279 232.865,278.886 233.357,278.658 C233.849,278.43 234.251,278.133 234.563,277.767 C234.875,277.401 235.103,276.981 235.247,276.507 C235.391,276.033 235.463,275.544 235.463,275.04 C235.463,274.536 235.388,274.047 235.238,273.573 C235.088,273.099 234.854,272.679 234.536,272.313 C234.218,271.947 233.807,271.65 233.303,271.422 C232.799,271.194 232.193,271.08 231.485,271.08 L231.485,271.08 L226.481,271.08 L226.481,271.404 C226.757,271.404 226.895,271.494 226.895,271.674 L226.895,271.674 L226.895,278.406 C226.895,278.586 226.757,278.676 226.481,278.676 L226.481,278.676 L226.481,279 L231.557,279 Z M230.963,277.668 L228.623,277.668 L228.623,272.412 L230.963,272.412 C231.335,272.412 231.689,272.433 232.025,272.475 C232.361,272.517 232.655,272.625 232.907,272.799 C233.159,272.973 233.36,273.231 233.51,273.573 C233.66,273.915 233.735,274.386 233.735,274.986 C233.735,275.586 233.66,276.063 233.51,276.417 C233.36,276.771 233.159,277.041 232.907,277.227 C232.655,277.413 232.361,277.533 232.025,277.587 C231.689,277.641 231.335,277.668 230.963,277.668 L230.963,277.668 Z M121.433,297 L121.433,296.676 C121.325,296.676 121.241,296.664 121.181,296.64 C121.121,296.616 121.091,296.556 121.091,296.46 C121.091,296.4 121.106,296.331 121.136,296.253 C121.166,296.175 121.205,296.088 121.253,295.992 L121.253,295.992 L121.757,295.02 L125.609,295.02 L126.095,296.046 C126.131,296.142 126.161,296.22 126.185,296.28 C126.209,296.34 126.221,296.406 126.221,296.478 C126.221,296.574 126.188,296.64 126.122,296.676 C126.056,296.712 125.993,296.73 125.933,296.73 L125.933,296.73 L125.933,297 L128.489,297 L128.489,296.676 C128.405,296.652 128.327,296.616 128.255,296.568 C128.183,296.52 128.117,296.442 128.057,296.334 L128.057,296.334 L125.141,290.214 C125.081,290.082 125.024,289.965 124.97,289.863 C124.916,289.761 124.889,289.674 124.889,289.602 C124.889,289.518 124.91,289.47 124.952,289.458 C124.994,289.446 125.033,289.428 125.069,289.404 L125.069,289.404 L125.069,289.08 L122.351,289.08 L122.351,289.404 C122.387,289.428 122.42,289.449 122.45,289.467 C122.48,289.485 122.495,289.53 122.495,289.602 C122.495,289.698 122.474,289.797 122.432,289.899 C122.39,290.001 122.333,290.136 122.261,290.304 L122.261,290.304 L119.579,296.154 C119.531,296.25 119.462,296.355 119.372,296.469 C119.282,296.583 119.165,296.652 119.021,296.676 L119.021,296.676 L119.021,297 L121.433,297 Z M125.033,293.688 L122.297,293.688 L123.575,290.664 L125.033,293.688 Z M134.447,297 L134.447,296.676 C134.231,296.676 134.123,296.586 134.123,296.406 L134.123,296.406 L134.123,290.412 L136.463,290.412 C136.559,290.412 136.649,290.436 136.733,290.484 C136.817,290.532 136.859,290.61 136.859,290.718 L136.859,290.718 L137.183,290.718 L137.183,288.648 L136.859,288.648 C136.859,288.816 136.817,288.93 136.733,288.99 C136.649,289.05 136.559,289.08 136.463,289.08 L136.463,289.08 L130.055,289.08 C129.959,289.08 129.869,289.05 129.785,288.99 C129.701,288.93 129.659,288.816 129.659,288.648 L129.659,288.648 L129.335,288.648 L129.335,290.718 L129.659,290.718 C129.659,290.61 129.701,290.532 129.785,290.484 C129.869,290.436 129.959,290.412 130.055,290.412 L130.055,290.412 L132.395,290.412 L132.395,296.406 C132.395,296.502 132.365,296.571 132.305,296.613 C132.245,296.655 132.185,296.676 132.125,296.676 L132.125,296.676 L132.125,297 L134.447,297 Z M140.495,297.054 C140.843,297.054 141.143,296.937 141.395,296.703 C141.647,296.469 141.773,296.178 141.773,295.83 C141.773,295.482 141.647,295.182 141.395,294.93 C141.143,294.678 140.843,294.552 140.495,294.552 C140.147,294.552 139.847,294.678 139.595,294.93 C139.343,295.182 139.217,295.482 139.217,295.83 C139.217,296.178 139.343,296.469 139.595,296.703 C139.847,296.937 140.147,297.054 140.495,297.054 Z M58.19,315 L58.19,314.676 C57.962,314.676 57.848,314.61 57.848,314.478 C57.848,314.37 57.908,314.19 58.028,313.938 L58.028,313.938 L58.676,312.66 L63.068,312.66 L63.752,313.992 C63.848,314.184 63.896,314.34 63.896,314.46 C63.896,314.532 63.86,314.586 63.788,314.622 C63.716,314.658 63.656,314.676 63.608,314.676 L63.608,314.676 L63.608,315 L66.776,315 L66.776,314.676 C66.644,314.616 66.527,314.556 66.425,314.496 C66.323,314.436 66.242,314.34 66.182,314.208 L66.182,314.208 L62.438,306.882 C62.354,306.726 62.291,306.6 62.249,306.504 C62.207,306.408 62.186,306.312 62.186,306.216 C62.186,306.084 62.228,305.997 62.312,305.955 C62.396,305.913 62.48,305.88 62.564,305.856 L62.564,305.856 L62.564,305.532 L59.522,305.532 L59.522,305.856 C59.618,305.88 59.708,305.916 59.792,305.964 C59.876,306.012 59.918,306.096 59.918,306.216 C59.918,306.312 59.885,306.426 59.819,306.558 C59.753,306.69 59.678,306.834 59.594,306.99 L59.594,306.99 L56.264,313.992 C56.18,314.16 56.093,314.31 56.003,314.442 C55.913,314.574 55.79,314.652 55.634,314.676 L55.634,314.676 L55.634,315 L58.19,315 Z M62.42,311.328 L59.216,311.328 L60.908,307.98 L62.42,311.328 Z M73.544,315 C74.252,315 74.852,314.886 75.344,314.658 C75.836,314.43 76.238,314.133 76.55,313.767 C76.862,313.401 77.09,312.981 77.234,312.507 C77.378,312.033 77.45,311.544 77.45,311.04 C77.45,310.536 77.375,310.047 77.225,309.573 C77.075,309.099 76.841,308.679 76.523,308.313 C76.205,307.947 75.794,307.65 75.29,307.422 C74.786,307.194 74.18,307.08 73.472,307.08 L73.472,307.08 L68.468,307.08 L68.468,307.404 C68.744,307.404 68.882,307.494 68.882,307.674 L68.882,307.674 L68.882,314.406 C68.882,314.586 68.744,314.676 68.468,314.676 L68.468,314.676 L68.468,315 L73.544,315 Z M72.95,313.668 L70.61,313.668 L70.61,308.412 L72.95,308.412 C73.322,308.412 73.676,308.433 74.012,308.475 C74.348,308.517 74.642,308.625 74.894,308.799 C75.146,308.973 75.347,309.231 75.497,309.573 C75.647,309.915 75.722,310.386 75.722,310.986 C75.722,311.586 75.647,312.063 75.497,312.417 C75.347,312.771 75.146,313.041 74.894,313.227 C74.642,313.413 74.348,313.533 74.012,313.587 C73.676,313.641 73.322,313.668 72.95,313.668 L72.95,313.668 Z M84.542,315 C85.25,315 85.85,314.886 86.342,314.658 C86.834,314.43 87.236,314.133 87.548,313.767 C87.86,313.401 88.088,312.981 88.232,312.507 C88.376,312.033 88.448,311.544 88.448,311.04 C88.448,310.536 88.373,310.047 88.223,309.573 C88.073,309.099 87.839,308.679 87.521,308.313 C87.203,307.947 86.792,307.65 86.288,307.422 C85.784,307.194 85.178,307.08 84.47,307.08 L84.47,307.08 L79.466,307.08 L79.466,307.404 C79.742,307.404 79.88,307.494 79.88,307.674 L79.88,307.674 L79.88,314.406 C79.88,314.586 79.742,314.676 79.466,314.676 L79.466,314.676 L79.466,315 L84.542,315 Z M83.948,313.668 L81.608,313.668 L81.608,308.412 L83.948,308.412 C84.32,308.412 84.674,308.433 85.01,308.475 C85.346,308.517 85.64,308.625 85.892,308.799 C86.144,308.973 86.345,309.231 86.495,309.573 C86.645,309.915 86.72,310.386 86.72,310.986 C86.72,311.586 86.645,312.063 86.495,312.417 C86.345,312.771 86.144,313.041 85.892,313.227 C85.64,313.413 85.346,313.533 85.01,313.587 C84.674,313.641 84.32,313.668 83.948,313.668 L83.948,313.668 Z M100.436,315 L100.436,314.676 C100.22,314.676 100.112,314.586 100.112,314.406 L100.112,314.406 L100.112,308.412 L102.452,308.412 C102.548,308.412 102.638,308.436 102.722,308.484 C102.806,308.532 102.848,308.61 102.848,308.718 L102.848,308.718 L103.172,308.718 L103.172,306.648 L102.848,306.648 C102.848,306.816 102.806,306.93 102.722,306.99 C102.638,307.05 102.548,307.08 102.452,307.08 L102.452,307.08 L96.044,307.08 C95.948,307.08 95.858,307.05 95.774,306.99 C95.69,306.93 95.648,306.816 95.648,306.648 L95.648,306.648 L95.324,306.648 L95.324,308.718 L95.648,308.718 C95.648,308.61 95.69,308.532 95.774,308.484 C95.858,308.436 95.948,308.412 96.044,308.412 L96.044,308.412 L98.384,308.412 L98.384,314.406 C98.384,314.502 98.354,314.571 98.294,314.613 C98.234,314.655 98.174,314.676 98.114,314.676 L98.114,314.676 L98.114,315 L100.436,315 Z M107.6,315 L107.6,314.676 C107.528,314.676 107.465,314.655 107.411,314.613 C107.357,314.571 107.33,314.502 107.33,314.406 L107.33,314.406 L107.33,311.688 L112.154,311.688 L112.154,314.406 C112.154,314.502 112.127,314.571 112.073,314.613 C112.019,314.655 111.956,314.676 111.884,314.676 L111.884,314.676 L111.884,315 L114.152,315 L114.152,314.676 C114.08,314.676 114.017,314.655 113.963,314.613 C113.909,314.571 113.882,314.502 113.882,314.406 L113.882,314.406 L113.882,307.674 C113.882,307.578 113.909,307.509 113.963,307.467 C114.017,307.425 114.08,307.404 114.152,307.404 L114.152,307.404 L114.152,307.08 L111.884,307.08 L111.884,307.404 C111.956,307.404 112.019,307.425 112.073,307.467 C112.127,307.509 112.154,307.578 112.154,307.674 L112.154,307.674 L112.154,310.212 L107.33,310.212 L107.33,307.674 C107.33,307.578 107.357,307.509 107.411,307.467 C107.465,307.425 107.528,307.404 107.6,307.404 L107.6,307.404 L107.6,307.08 L105.332,307.08 L105.332,307.404 C105.404,307.404 105.467,307.425 105.521,307.467 C105.575,307.509 105.602,307.578 105.602,307.674 L105.602,307.674 L105.602,314.406 C105.602,314.502 105.575,314.571 105.521,314.613 C105.467,314.655 105.404,314.676 105.332,314.676 L105.332,314.676 L105.332,315 L107.6,315 Z M120.11,315 L120.11,314.676 C119.774,314.676 119.606,314.586 119.606,314.406 L119.606,314.406 L119.606,307.674 C119.606,307.494 119.774,307.404 120.11,307.404 L120.11,307.404 L120.11,307.08 L117.374,307.08 L117.374,307.404 C117.566,307.404 117.698,307.425 117.77,307.467 C117.842,307.509 117.878,307.578 117.878,307.674 L117.878,307.674 L117.878,314.406 C117.878,314.502 117.842,314.571 117.77,314.613 C117.698,314.655 117.566,314.676 117.374,314.676 L117.374,314.676 L117.374,315 L120.11,315 Z M126.608,315.054 C127.016,315.054 127.451,315.024 127.913,314.964 C128.375,314.904 128.798,314.778 129.182,314.586 C129.566,314.394 129.887,314.13 130.145,313.794 C130.403,313.458 130.532,313.026 130.532,312.498 C130.532,311.97 130.385,311.556 130.091,311.256 C129.797,310.956 129.428,310.728 128.984,310.572 C128.54,310.416 128.06,310.305 127.544,310.239 C127.028,310.173 126.548,310.107 126.104,310.041 C125.66,309.975 125.291,309.885 124.997,309.771 C124.703,309.657 124.556,309.468 124.556,309.204 C124.556,309.036 124.604,308.895 124.7,308.781 C124.796,308.667 124.928,308.574 125.096,308.502 C125.264,308.43 125.456,308.379 125.672,308.349 C125.888,308.319 126.116,308.304 126.356,308.304 C126.98,308.304 127.544,308.376 128.048,308.52 C128.552,308.664 128.924,308.838 129.164,309.042 C129.26,309.114 129.314,309.186 129.326,309.258 L129.326,309.258 L129.362,309.474 L129.686,309.582 L130.586,307.89 L130.388,307.692 C130.316,307.728 130.256,307.761 130.208,307.791 C130.16,307.821 130.088,307.836 129.992,307.836 C129.908,307.836 129.779,307.791 129.605,307.701 C129.431,307.611 129.206,307.512 128.93,307.404 C128.654,307.296 128.315,307.197 127.913,307.107 C127.511,307.017 127.028,306.972 126.464,306.972 C125.312,306.972 124.418,307.2 123.782,307.656 C123.146,308.112 122.828,308.724 122.828,309.492 C122.828,310.008 122.975,310.407 123.269,310.689 C123.563,310.971 123.932,311.187 124.376,311.337 C124.82,311.487 125.3,311.595 125.816,311.661 C126.332,311.727 126.812,311.793 127.256,311.859 C127.7,311.925 128.069,312.018 128.363,312.138 C128.657,312.258 128.804,312.45 128.804,312.714 C128.804,312.942 128.72,313.125 128.552,313.263 C128.384,313.401 128.18,313.509 127.94,313.587 C127.7,313.665 127.457,313.716 127.211,313.74 C126.965,313.764 126.758,313.776 126.59,313.776 C126.41,313.776 126.161,313.746 125.843,313.686 C125.525,313.626 125.207,313.545 124.889,313.443 C124.571,313.341 124.298,313.215 124.07,313.065 C123.842,312.915 123.728,312.75 123.728,312.57 C123.728,312.51 123.731,312.453 123.737,312.399 C123.743,312.345 123.746,312.294 123.746,312.246 L123.746,312.246 L123.404,312.156 L122.576,314.172 L122.828,314.352 C122.888,314.28 122.96,314.244 123.044,314.244 C123.092,314.244 123.23,314.289 123.458,314.379 C123.686,314.469 123.965,314.565 124.295,314.667 C124.625,314.769 124.991,314.859 125.393,314.937 C125.795,315.015 126.2,315.054 126.608,315.054 Z M142.934,315 L142.934,314.676 C142.718,314.676 142.61,314.586 142.61,314.406 L142.61,314.406 L142.61,308.412 L144.95,308.412 C145.046,308.412 145.136,308.436 145.22,308.484 C145.304,308.532 145.346,308.61 145.346,308.718 L145.346,308.718 L145.67,308.718 L145.67,306.648 L145.346,306.648 C145.346,306.816 145.304,306.93 145.22,306.99 C145.136,307.05 145.046,307.08 144.95,307.08 L144.95,307.08 L138.542,307.08 C138.446,307.08 138.356,307.05 138.272,306.99 C138.188,306.93 138.146,306.816 138.146,306.648 L138.146,306.648 L137.822,306.648 L137.822,308.718 L138.146,308.718 C138.146,308.61 138.188,308.532 138.272,308.484 C138.356,308.436 138.446,308.412 138.542,308.412 L138.542,308.412 L140.882,308.412 L140.882,314.406 C140.882,314.502 140.852,314.571 140.792,314.613 C140.732,314.655 140.672,314.676 140.612,314.676 L140.612,314.676 L140.612,315 L142.934,315 Z M151.736,315.054 C152.396,315.054 153.017,314.979 153.599,314.829 C154.181,314.679 154.688,314.436 155.12,314.1 C155.552,313.764 155.894,313.341 156.146,312.831 C156.398,312.321 156.524,311.724 156.524,311.04 C156.524,310.356 156.398,309.759 156.146,309.249 C155.894,308.739 155.552,308.316 155.12,307.98 C154.688,307.644 154.181,307.392 153.599,307.224 C153.017,307.056 152.396,306.972 151.736,306.972 C151.076,306.972 150.455,307.056 149.873,307.224 C149.291,307.392 148.784,307.644 148.352,307.98 C147.92,308.316 147.578,308.739 147.326,309.249 C147.074,309.759 146.948,310.356 146.948,311.04 C146.948,311.724 147.074,312.321 147.326,312.831 C147.578,313.341 147.92,313.764 148.352,314.1 C148.784,314.436 149.291,314.679 149.873,314.829 C150.455,314.979 151.076,315.054 151.736,315.054 Z M151.736,313.776 C151.352,313.776 150.977,313.713 150.611,313.587 C150.245,313.461 149.918,313.281 149.63,313.047 C149.342,312.813 149.111,312.528 148.937,312.192 C148.763,311.856 148.676,311.472 148.676,311.04 C148.676,310.608 148.763,310.224 148.937,309.888 C149.111,309.552 149.342,309.267 149.63,309.033 C149.918,308.799 150.245,308.619 150.611,308.493 C150.977,308.367 151.352,308.304 151.736,308.304 C152.12,308.304 152.495,308.367 152.861,308.493 C153.227,308.619 153.554,308.799 153.842,309.033 C154.13,309.267 154.361,309.552 154.535,309.888 C154.709,310.224 154.796,310.608 154.796,311.04 C154.796,311.472 154.709,311.856 154.535,312.192 C154.361,312.528 154.13,312.813 153.842,313.047 C153.554,313.281 153.227,313.461 152.861,313.587 C152.495,313.713 152.12,313.776 151.736,313.776 Z M168.944,315 L168.944,314.676 C168.716,314.676 168.602,314.586 168.602,314.406 L168.602,314.406 L168.602,311.706 L171.356,308.142 C171.488,307.974 171.641,307.809 171.815,307.647 C171.989,307.485 172.148,307.404 172.292,307.404 L172.292,307.404 L172.292,307.08 L169.538,307.08 L169.538,307.404 C169.598,307.404 169.658,307.416 169.718,307.44 C169.778,307.464 169.808,307.524 169.808,307.62 C169.808,307.692 169.781,307.767 169.727,307.845 C169.673,307.923 169.592,308.04 169.484,308.196 L169.484,308.196 L167.882,310.428 L166.064,308.052 C166.004,307.968 165.95,307.896 165.902,307.836 C165.854,307.776 165.83,307.71 165.83,307.638 C165.83,307.566 165.866,307.509 165.938,307.467 C166.01,307.425 166.076,307.404 166.136,307.404 L166.136,307.404 L166.136,307.08 L163.166,307.08 L163.166,307.404 C163.274,307.404 163.388,307.428 163.508,307.476 C163.628,307.524 163.73,307.602 163.814,307.71 L163.814,307.71 L166.874,311.634 L166.874,314.406 C166.874,314.586 166.766,314.676 166.55,314.676 L166.55,314.676 L166.55,315 L168.944,315 Z M178.232,315.054 C178.892,315.054 179.513,314.979 180.095,314.829 C180.677,314.679 181.184,314.436 181.616,314.1 C182.048,313.764 182.39,313.341 182.642,312.831 C182.894,312.321 183.02,311.724 183.02,311.04 C183.02,310.356 182.894,309.759 182.642,309.249 C182.39,308.739 182.048,308.316 181.616,307.98 C181.184,307.644 180.677,307.392 180.095,307.224 C179.513,307.056 178.892,306.972 178.232,306.972 C177.572,306.972 176.951,307.056 176.369,307.224 C175.787,307.392 175.28,307.644 174.848,307.98 C174.416,308.316 174.074,308.739 173.822,309.249 C173.57,309.759 173.444,310.356 173.444,311.04 C173.444,311.724 173.57,312.321 173.822,312.831 C174.074,313.341 174.416,313.764 174.848,314.1 C175.28,314.436 175.787,314.679 176.369,314.829 C176.951,314.979 177.572,315.054 178.232,315.054 Z M178.232,313.776 C177.848,313.776 177.473,313.713 177.107,313.587 C176.741,313.461 176.414,313.281 176.126,313.047 C175.838,312.813 175.607,312.528 175.433,312.192 C175.259,311.856 175.172,311.472 175.172,311.04 C175.172,310.608 175.259,310.224 175.433,309.888 C175.607,309.552 175.838,309.267 176.126,309.033 C176.414,308.799 176.741,308.619 177.107,308.493 C177.473,308.367 177.848,308.304 178.232,308.304 C178.616,308.304 178.991,308.367 179.357,308.493 C179.723,308.619 180.05,308.799 180.338,309.033 C180.626,309.267 180.857,309.552 181.031,309.888 C181.205,310.224 181.292,310.608 181.292,311.04 C181.292,311.472 181.205,311.856 181.031,312.192 C180.857,312.528 180.626,312.813 180.338,313.047 C180.05,313.281 179.723,313.461 179.357,313.587 C178.991,313.713 178.616,313.776 178.232,313.776 Z M189.806,315.054 C190.526,315.054 191.153,314.979 191.687,314.829 C192.221,314.679 192.659,314.472 193.001,314.208 C193.343,313.944 193.598,313.641 193.766,313.299 C193.934,312.957 194.018,312.6 194.018,312.228 L194.018,312.228 L194.018,307.674 C194.018,307.494 194.15,307.404 194.414,307.404 L194.414,307.404 L194.414,307.08 L191.912,307.08 L191.912,307.404 C192.212,307.404 192.362,307.494 192.362,307.674 L192.362,307.674 L192.362,311.796 C192.362,312.372 192.152,312.834 191.732,313.182 C191.312,313.53 190.67,313.704 189.806,313.704 C188.942,313.704 188.3,313.53 187.88,313.182 C187.46,312.834 187.25,312.372 187.25,311.796 L187.25,311.796 L187.25,307.674 C187.25,307.494 187.382,307.404 187.646,307.404 L187.646,307.404 L187.646,307.08 L185.072,307.08 L185.072,307.404 C185.276,307.404 185.414,307.425 185.486,307.467 C185.558,307.509 185.594,307.578 185.594,307.674 L185.594,307.674 L185.594,312.228 C185.594,312.6 185.678,312.957 185.846,313.299 C186.014,313.641 186.269,313.944 186.611,314.208 C186.953,314.472 187.391,314.679 187.925,314.829 C188.459,314.979 189.086,315.054 189.806,315.054 Z M199.544,315 L199.544,314.676 C199.472,314.676 199.397,314.655 199.319,314.613 C199.241,314.571 199.202,314.502 199.202,314.406 L199.202,314.406 L199.202,311.832 L201.704,311.832 L203.126,313.956 C203.306,314.208 203.396,314.394 203.396,314.514 C203.396,314.622 203.318,314.676 203.162,314.676 L203.162,314.676 L203.162,315 L205.916,315 L205.916,314.676 C205.784,314.64 205.661,314.589 205.547,314.523 C205.433,314.457 205.328,314.358 205.232,314.226 L205.232,314.226 L203.468,311.652 C203.72,311.592 203.966,311.505 204.206,311.391 C204.446,311.277 204.665,311.127 204.863,310.941 C205.061,310.755 205.22,310.536 205.34,310.284 C205.46,310.032 205.52,309.744 205.52,309.42 C205.52,308.568 205.22,307.965 204.62,307.611 C204.02,307.257 203.186,307.08 202.118,307.08 L202.118,307.08 L197.15,307.08 L197.15,307.404 C197.366,307.404 197.474,307.494 197.474,307.674 L197.474,307.674 L197.474,314.406 C197.474,314.586 197.366,314.676 197.15,314.676 L197.15,314.676 L197.15,315 L199.544,315 Z M202.082,310.5 L199.238,310.5 L199.238,308.412 L202.082,308.412 C202.694,308.412 203.141,308.499 203.423,308.673 C203.705,308.847 203.846,309.084 203.846,309.384 C203.846,310.128 203.258,310.5 202.082,310.5 L202.082,310.5 Z M74.354,333.054 C74.762,333.054 75.197,333.024 75.659,332.964 C76.121,332.904 76.544,332.778 76.928,332.586 C77.312,332.394 77.633,332.13 77.891,331.794 C78.149,331.458 78.278,331.026 78.278,330.498 C78.278,329.97 78.131,329.556 77.837,329.256 C77.543,328.956 77.174,328.728 76.73,328.572 C76.286,328.416 75.806,328.305 75.29,328.239 C74.774,328.173 74.294,328.107 73.85,328.041 C73.406,327.975 73.037,327.885 72.743,327.771 C72.449,327.657 72.302,327.468 72.302,327.204 C72.302,327.036 72.35,326.895 72.446,326.781 C72.542,326.667 72.674,326.574 72.842,326.502 C73.01,326.43 73.202,326.379 73.418,326.349 C73.634,326.319 73.862,326.304 74.102,326.304 C74.726,326.304 75.29,326.376 75.794,326.52 C76.298,326.664 76.67,326.838 76.91,327.042 C77.006,327.114 77.06,327.186 77.072,327.258 L77.072,327.258 L77.108,327.474 L77.432,327.582 L78.332,325.89 L78.134,325.692 C78.062,325.728 78.002,325.761 77.954,325.791 C77.906,325.821 77.834,325.836 77.738,325.836 C77.654,325.836 77.525,325.791 77.351,325.701 C77.177,325.611 76.952,325.512 76.676,325.404 C76.4,325.296 76.061,325.197 75.659,325.107 C75.257,325.017 74.774,324.972 74.21,324.972 C73.058,324.972 72.164,325.2 71.528,325.656 C70.892,326.112 70.574,326.724 70.574,327.492 C70.574,328.008 70.721,328.407 71.015,328.689 C71.309,328.971 71.678,329.187 72.122,329.337 C72.566,329.487 73.046,329.595 73.562,329.661 C74.078,329.727 74.558,329.793 75.002,329.859 C75.446,329.925 75.815,330.018 76.109,330.138 C76.403,330.258 76.55,330.45 76.55,330.714 C76.55,330.942 76.466,331.125 76.298,331.263 C76.13,331.401 75.926,331.509 75.686,331.587 C75.446,331.665 75.203,331.716 74.957,331.74 C74.711,331.764 74.504,331.776 74.336,331.776 C74.156,331.776 73.907,331.746 73.589,331.686 C73.271,331.626 72.953,331.545 72.635,331.443 C72.317,331.341 72.044,331.215 71.816,331.065 C71.588,330.915 71.474,330.75 71.474,330.57 C71.474,330.51 71.477,330.453 71.483,330.399 C71.489,330.345 71.492,330.294 71.492,330.246 L71.492,330.246 L71.15,330.156 L70.322,332.172 L70.574,332.352 C70.634,332.28 70.706,332.244 70.79,332.244 C70.838,332.244 70.976,332.289 71.204,332.379 C71.432,332.469 71.711,332.565 72.041,332.667 C72.371,332.769 72.737,332.859 73.139,332.937 C73.541,333.015 73.946,333.054 74.354,333.054 Z M85.712,333 L85.712,332.676 C85.484,332.676 85.37,332.586 85.37,332.406 L85.37,332.406 L85.37,329.706 L88.124,326.142 C88.256,325.974 88.409,325.809 88.583,325.647 C88.757,325.485 88.916,325.404 89.06,325.404 L89.06,325.404 L89.06,325.08 L86.306,325.08 L86.306,325.404 C86.366,325.404 86.426,325.416 86.486,325.44 C86.546,325.464 86.576,325.524 86.576,325.62 C86.576,325.692 86.549,325.767 86.495,325.845 C86.441,325.923 86.36,326.04 86.252,326.196 L86.252,326.196 L84.65,328.428 L82.832,326.052 C82.772,325.968 82.718,325.896 82.67,325.836 C82.622,325.776 82.598,325.71 82.598,325.638 C82.598,325.566 82.634,325.509 82.706,325.467 C82.778,325.425 82.844,325.404 82.904,325.404 L82.904,325.404 L82.904,325.08 L79.934,325.08 L79.934,325.404 C80.042,325.404 80.156,325.428 80.276,325.476 C80.396,325.524 80.498,325.602 80.582,325.71 L80.582,325.71 L83.642,329.634 L83.642,332.406 C83.642,332.586 83.534,332.676 83.318,332.676 L83.318,332.676 L83.318,333 L85.712,333 Z M93.218,333 L93.218,332.676 C93.014,332.676 92.912,332.586 92.912,332.406 L92.912,332.406 L92.912,327.348 L92.93,327.348 L95.828,333 L95.972,333 L99.032,327.348 L99.068,327.348 L99.068,332.406 C99.104,332.586 98.996,332.676 98.744,332.676 L98.744,332.676 L98.744,333 L100.832,333 L100.832,332.676 C100.772,332.676 100.715,332.655 100.661,332.613 C100.607,332.571 100.58,332.502 100.58,332.406 L100.58,332.406 L100.58,325.638 C100.58,325.542 100.607,325.479 100.661,325.449 C100.715,325.419 100.772,325.404 100.832,325.404 L100.832,325.404 L100.832,325.08 L98.294,325.08 L98.294,325.404 C98.39,325.404 98.438,325.458 98.438,325.566 C98.438,325.602 98.414,325.665 98.366,325.755 C98.318,325.845 98.252,325.962 98.168,326.106 L98.168,326.106 L95.954,330.138 L93.758,326.088 C93.674,325.944 93.611,325.833 93.569,325.755 C93.527,325.677 93.506,325.614 93.506,325.566 C93.506,325.458 93.566,325.404 93.686,325.404 L93.686,325.404 L93.686,325.08 L91.184,325.08 L91.184,325.404 C91.268,325.404 91.325,325.422 91.355,325.458 C91.385,325.494 91.4,325.596 91.4,325.764 L91.4,325.764 L91.4,332.352 C91.4,332.484 91.379,332.568 91.337,332.604 C91.295,332.64 91.244,332.664 91.184,332.676 L91.184,332.676 L91.184,333 L93.218,333 Z M106.268,333 L106.268,332.676 C106.016,332.676 105.89,332.586 105.89,332.406 L105.89,332.406 L105.89,329.706 L108.95,329.706 C109.922,329.706 110.651,329.541 111.137,329.211 C111.623,328.881 111.866,328.284 111.866,327.42 C111.866,326.556 111.623,325.95 111.137,325.602 C110.651,325.254 109.922,325.08 108.95,325.08 L108.95,325.08 L103.712,325.08 L103.712,325.404 C104.012,325.404 104.162,325.494 104.162,325.674 L104.162,325.674 L104.162,332.406 C104.162,332.586 104.012,332.676 103.712,332.676 L103.712,332.676 L103.712,333 L106.268,333 Z M108.914,328.374 L105.89,328.374 L105.89,326.412 L108.914,326.412 C109.262,326.412 109.553,326.487 109.787,326.637 C110.021,326.787 110.138,327.048 110.138,327.42 C110.138,327.804 110.021,328.059 109.787,328.185 C109.553,328.311 109.262,328.374 108.914,328.374 L108.914,328.374 Z M118.202,333 L118.202,332.676 C117.986,332.676 117.878,332.586 117.878,332.406 L117.878,332.406 L117.878,326.412 L120.218,326.412 C120.314,326.412 120.404,326.436 120.488,326.484 C120.572,326.532 120.614,326.61 120.614,326.718 L120.614,326.718 L120.938,326.718 L120.938,324.648 L120.614,324.648 C120.614,324.816 120.572,324.93 120.488,324.99 C120.404,325.05 120.314,325.08 120.218,325.08 L120.218,325.08 L113.81,325.08 C113.714,325.08 113.624,325.05 113.54,324.99 C113.456,324.93 113.414,324.816 113.414,324.648 L113.414,324.648 L113.09,324.648 L113.09,326.718 L113.414,326.718 C113.414,326.61 113.456,326.532 113.54,326.484 C113.624,326.436 113.714,326.412 113.81,326.412 L113.81,326.412 L116.15,326.412 L116.15,332.406 C116.15,332.502 116.12,332.571 116.06,332.613 C116,332.655 115.94,332.676 115.88,332.676 L115.88,332.676 L115.88,333 L118.202,333 Z M127.004,333.054 C127.664,333.054 128.285,332.979 128.867,332.829 C129.449,332.679 129.956,332.436 130.388,332.1 C130.82,331.764 131.162,331.341 131.414,330.831 C131.666,330.321 131.792,329.724 131.792,329.04 C131.792,328.356 131.666,327.759 131.414,327.249 C131.162,326.739 130.82,326.316 130.388,325.98 C129.956,325.644 129.449,325.392 128.867,325.224 C128.285,325.056 127.664,324.972 127.004,324.972 C126.344,324.972 125.723,325.056 125.141,325.224 C124.559,325.392 124.052,325.644 123.62,325.98 C123.188,326.316 122.846,326.739 122.594,327.249 C122.342,327.759 122.216,328.356 122.216,329.04 C122.216,329.724 122.342,330.321 122.594,330.831 C122.846,331.341 123.188,331.764 123.62,332.1 C124.052,332.436 124.559,332.679 125.141,332.829 C125.723,332.979 126.344,333.054 127.004,333.054 Z M127.004,331.776 C126.62,331.776 126.245,331.713 125.879,331.587 C125.513,331.461 125.186,331.281 124.898,331.047 C124.61,330.813 124.379,330.528 124.205,330.192 C124.031,329.856 123.944,329.472 123.944,329.04 C123.944,328.608 124.031,328.224 124.205,327.888 C124.379,327.552 124.61,327.267 124.898,327.033 C125.186,326.799 125.513,326.619 125.879,326.493 C126.245,326.367 126.62,326.304 127.004,326.304 C127.388,326.304 127.763,326.367 128.129,326.493 C128.495,326.619 128.822,326.799 129.11,327.033 C129.398,327.267 129.629,327.552 129.803,327.888 C129.977,328.224 130.064,328.608 130.064,329.04 C130.064,329.472 129.977,329.856 129.803,330.192 C129.629,330.528 129.398,330.813 129.11,331.047 C128.822,331.281 128.495,331.461 128.129,331.587 C127.763,331.713 127.388,331.776 127.004,331.776 Z M136.22,333 L136.22,332.676 C136.016,332.676 135.914,332.586 135.914,332.406 L135.914,332.406 L135.914,327.348 L135.932,327.348 L138.83,333 L138.974,333 L142.034,327.348 L142.07,327.348 L142.07,332.406 C142.106,332.586 141.998,332.676 141.746,332.676 L141.746,332.676 L141.746,333 L143.834,333 L143.834,332.676 C143.774,332.676 143.717,332.655 143.663,332.613 C143.609,332.571 143.582,332.502 143.582,332.406 L143.582,332.406 L143.582,325.638 C143.582,325.542 143.609,325.479 143.663,325.449 C143.717,325.419 143.774,325.404 143.834,325.404 L143.834,325.404 L143.834,325.08 L141.296,325.08 L141.296,325.404 C141.392,325.404 141.44,325.458 141.44,325.566 C141.44,325.602 141.416,325.665 141.368,325.755 C141.32,325.845 141.254,325.962 141.17,326.106 L141.17,326.106 L138.956,330.138 L136.76,326.088 C136.676,325.944 136.613,325.833 136.571,325.755 C136.529,325.677 136.508,325.614 136.508,325.566 C136.508,325.458 136.568,325.404 136.688,325.404 L136.688,325.404 L136.688,325.08 L134.186,325.08 L134.186,325.404 C134.27,325.404 134.327,325.422 134.357,325.458 C134.387,325.494 134.402,325.596 134.402,325.764 L134.402,325.764 L134.402,332.352 C134.402,332.484 134.381,332.568 134.339,332.604 C134.297,332.64 134.246,332.664 134.186,332.676 L134.186,332.676 L134.186,333 L136.22,333 Z M154.76,333 L154.76,332.676 C154.508,332.676 154.382,332.586 154.382,332.406 L154.382,332.406 L154.382,329.706 L157.442,329.706 C158.414,329.706 159.143,329.541 159.629,329.211 C160.115,328.881 160.358,328.284 160.358,327.42 C160.358,326.556 160.115,325.95 159.629,325.602 C159.143,325.254 158.414,325.08 157.442,325.08 L157.442,325.08 L152.204,325.08 L152.204,325.404 C152.504,325.404 152.654,325.494 152.654,325.674 L152.654,325.674 L152.654,332.406 C152.654,332.586 152.504,332.676 152.204,332.676 L152.204,332.676 L152.204,333 L154.76,333 Z M157.406,328.374 L154.382,328.374 L154.382,326.412 L157.406,326.412 C157.754,326.412 158.045,326.487 158.279,326.637 C158.513,326.787 158.63,327.048 158.63,327.42 C158.63,327.804 158.513,328.059 158.279,328.185 C158.045,328.311 157.754,328.374 157.406,328.374 L157.406,328.374 Z M165.362,333 L165.362,332.676 C165.026,332.676 164.858,332.586 164.858,332.406 L164.858,332.406 L164.858,325.674 C164.858,325.494 165.026,325.404 165.362,325.404 L165.362,325.404 L165.362,325.08 L162.626,325.08 L162.626,325.404 C162.818,325.404 162.95,325.425 163.022,325.467 C163.094,325.509 163.13,325.578 163.13,325.674 L163.13,325.674 L163.13,332.406 C163.13,332.502 163.094,332.571 163.022,332.613 C162.95,332.655 162.818,332.676 162.626,332.676 L162.626,332.676 L162.626,333 L165.362,333 Z M176.252,333.18 L176.252,331.29 L175.928,331.29 C175.928,331.41 175.88,331.503 175.784,331.569 C175.688,331.635 175.568,331.668 175.424,331.668 L175.424,331.668 L170.564,331.668 L170.564,325.674 C170.564,325.494 170.702,325.404 170.978,325.404 L170.978,325.404 L170.978,325.08 L168.368,325.08 L168.368,325.404 C168.68,325.404 168.836,325.494 168.836,325.674 L168.836,325.674 L168.836,332.406 C168.836,332.586 168.68,332.676 168.368,332.676 L168.368,332.676 L168.368,333 L175.424,333 C175.568,333 175.688,333.006 175.784,333.018 C175.88,333.03 175.928,333.084 175.928,333.18 L175.928,333.18 L176.252,333.18 Z M185.918,333.198 L185.918,331.308 L185.594,331.308 C185.594,331.416 185.546,331.503 185.45,331.569 C185.354,331.635 185.234,331.668 185.09,331.668 L185.09,331.668 L180.482,331.668 L180.482,329.544 L183.11,329.544 C183.35,329.544 183.536,329.559 183.668,329.589 C183.8,329.619 183.848,329.7 183.812,329.832 L183.812,329.832 L184.172,329.832 L184.172,327.924 L183.848,327.924 C183.848,328.056 183.8,328.137 183.704,328.167 C183.608,328.197 183.458,328.212 183.254,328.212 L183.254,328.212 L180.482,328.212 L180.482,326.412 L184.874,326.412 C185.246,326.412 185.432,326.526 185.432,326.754 L185.432,326.754 L185.756,326.754 L185.756,324.756 L185.432,324.756 C185.432,324.972 185.246,325.08 184.874,325.08 L184.874,325.08 L178.484,325.08 L178.484,325.404 C178.544,325.404 178.604,325.425 178.664,325.467 C178.724,325.509 178.754,325.578 178.754,325.674 L178.754,325.674 L178.754,332.406 C178.754,332.502 178.724,332.571 178.664,332.613 C178.604,332.655 178.544,332.676 178.484,332.676 L178.484,332.676 L178.484,333 L185.09,333 C185.234,333 185.354,333.006 185.45,333.018 C185.546,333.03 185.594,333.09 185.594,333.198 L185.594,333.198 L185.918,333.198 Z M189.752,333.054 C190.1,333.054 190.4,332.937 190.652,332.703 C190.904,332.469 191.03,332.178 191.03,331.83 C191.03,331.482 190.904,331.182 190.652,330.93 C190.4,330.678 190.1,330.552 189.752,330.552 C189.404,330.552 189.104,330.678 188.852,330.93 C188.6,331.182 188.474,331.482 188.474,331.83 C188.474,332.178 188.6,332.469 188.852,332.703 C189.104,332.937 189.404,333.054 189.752,333.054 Z" id="Wow.Youshouldreallygetthatlookedat.Addthistoyoursymptompile." fill="#000000" fill-rule="nonzero"></path>
    </g>
</svg>