<?xml version="1.0" encoding="UTF-8"?>
<svg width="262px" height="360px" viewBox="0 0 262 360" version="1.1" xmlns="http://www.w3.org/2000/svg" xmlns:xlink="http://www.w3.org/1999/xlink">
    <title>Antibacterial Wipe</title>
    <g id="Antibacterial-Wipe" stroke="none" stroke-width="1" fill="none" fill-rule="evenodd">
        <g id="Group" transform="translate(9.000000, 9.000000)" fill="#FFFFFF" stroke="#000000" stroke-width="3">
            <g id="Rectangle">
                <rect x="1.5" y="1.5" width="239" height="337" rx="8"></rect>
            </g>
        </g>
        <path d="M59.536,284 L59.536,283.712 C59.2373333,283.712 59.088,283.616 59.088,283.424 L59.088,283.424 L59.088,278.096 L59.12,278.096 L62.272,284 L62.32,284 L65.536,278.112 L65.568,278.112 L65.568,283.424 C65.568,283.616 65.424,283.712 65.136,283.712 L65.136,283.712 L65.136,284 L67.648,284 L67.648,283.712 C67.5626667,283.712 67.488,283.688 67.424,283.64 C67.36,283.592 67.328,283.52 67.328,283.424 L67.328,283.424 L67.328,276.128 C67.328,276.032 67.36,275.965333 67.424,275.928 C67.488,275.890667 67.5626667,275.872 67.648,275.872 L67.648,275.872 L67.648,275.584 L64.688,275.584 L64.688,275.872 C64.8266667,275.872 64.896,275.930667 64.896,276.048 C64.896,276.112 64.8773333,276.184 64.84,276.264 C64.8026667,276.344 64.7466667,276.453333 64.672,276.592 L64.672,276.592 L62.368,280.704 L60.08,276.544 C60.0266667,276.448 59.9786667,276.357333 59.936,276.272 C59.8933333,276.186667 59.872,276.117333 59.872,276.064 C59.872,276 59.9013333,275.952 59.96,275.92 C60.0186667,275.888 60.0746667,275.872 60.128,275.872 L60.128,275.872 L60.128,275.584 L57.136,275.584 L57.136,275.872 C57.2213333,275.872 57.296,275.890667 57.36,275.928 C57.424,275.965333 57.456,276.032 57.456,276.128 L57.456,276.128 L57.456,283.424 C57.456,283.52 57.424,283.592 57.36,283.64 C57.296,283.688 57.2213333,283.712 57.136,283.712 L57.136,283.712 L57.136,284 L59.536,284 Z M74.864,284.048 C75.568,284.048 76.1893333,284.005333 76.728,283.92 C77.2666667,283.834667 77.7173333,283.669333 78.08,283.424 C78.4426667,283.178667 78.7146667,282.850667 78.896,282.44 C79.0773333,282.029333 79.168,281.509333 79.168,280.88 L79.168,280.88 L79.168,276.16 C79.168,275.968 79.296,275.872 79.552,275.872 L79.552,275.872 L79.552,275.584 L76.992,275.584 L76.992,275.872 C77.312,275.872 77.472,275.968 77.472,276.16 L77.472,276.16 L77.472,280.96 C77.472,281.632 77.256,282.093333 76.824,282.344 C76.392,282.594667 75.76,282.72 74.928,282.72 C74.096,282.72 73.464,282.594667 73.032,282.344 C72.6,282.093333 72.384,281.632 72.384,280.96 L72.384,280.96 L72.384,276.16 C72.384,275.968 72.5013333,275.872 72.736,275.872 L72.736,275.872 L72.736,275.584 L70.112,275.584 L70.112,275.872 C70.4106667,275.872 70.56,275.968 70.56,276.16 L70.56,276.16 L70.56,280.88 C70.56,281.509333 70.6506667,282.029333 70.832,282.44 C71.0133333,282.850667 71.2853333,283.178667 71.648,283.424 C72.0106667,283.669333 72.4613333,283.834667 73,283.92 C73.5386667,284.005333 74.16,284.048 74.864,284.048 Z M85.776,284.048 C86.2133333,284.048 86.6853333,284.013333 87.192,283.944 C87.6986667,283.874667 88.1706667,283.738667 88.608,283.536 C89.0453333,283.333333 89.4106667,283.056 89.704,282.704 C89.9973333,282.352 90.144,281.898667 90.144,281.344 C90.144,280.864 90.0506667,280.474667 89.864,280.176 C89.6773333,279.877333 89.432,279.64 89.128,279.464 C88.824,279.288 88.4773333,279.16 88.088,279.08 C87.6986667,279 87.3013333,278.944 86.896,278.912 C86.4906667,278.88 86.0933333,278.853333 85.704,278.832 C85.3146667,278.810667 84.968,278.768 84.664,278.704 C84.36,278.64 84.1146667,278.544 83.928,278.416 C83.7413333,278.288 83.648,278.096 83.648,277.84 C83.648,277.658667 83.7146667,277.506667 83.848,277.384 C83.9813333,277.261333 84.1493333,277.162667 84.352,277.088 C84.5546667,277.013333 84.7813333,276.957333 85.032,276.92 C85.2826667,276.882667 85.5253333,276.864 85.76,276.864 C86.0693333,276.864 86.3786667,276.893333 86.688,276.952 C86.9973333,277.010667 87.2853333,277.088 87.552,277.184 C87.8186667,277.28 88.0506667,277.389333 88.248,277.512 C88.4453333,277.634667 88.5866667,277.76 88.672,277.888 C88.736,277.984 88.7786667,278.106667 88.8,278.256 L88.8,278.256 L88.96,278.32 L90.064,276.32 L89.872,276.192 C89.808,276.256 89.7013333,276.288 89.552,276.288 C89.4133333,276.288 89.24,276.245333 89.032,276.16 C88.824,276.074667 88.568,275.984 88.264,275.888 C87.96,275.792 87.6,275.701333 87.184,275.616 C86.768,275.530667 86.2773333,275.488 85.712,275.488 C85.0506667,275.488 84.4746667,275.565333 83.984,275.72 C83.4933333,275.874667 83.088,276.074667 82.768,276.32 C82.448,276.565333 82.2106667,276.848 82.056,277.168 C81.9013333,277.488 81.824,277.813333 81.824,278.144 C81.824,278.634667 81.9173333,279.032 82.104,279.336 C82.2906667,279.64 82.536,279.88 82.84,280.056 C83.144,280.232 83.4906667,280.357333 83.88,280.432 C84.2693333,280.506667 84.6666667,280.56 85.072,280.592 C85.4773333,280.624 85.8746667,280.648 86.264,280.664 C86.6533333,280.68 87,280.714667 87.304,280.768 C87.608,280.821333 87.8533333,280.906667 88.04,281.024 C88.2266667,281.141333 88.32,281.322667 88.32,281.568 C88.32,281.813333 88.2186667,282.010667 88.016,282.16 C87.8133333,282.309333 87.5733333,282.426667 87.296,282.512 C87.0186667,282.597333 86.736,282.653333 86.448,282.68 C86.16,282.706667 85.9253333,282.72 85.744,282.72 C85.4986667,282.72 85.2213333,282.690667 84.912,282.632 C84.6026667,282.573333 84.3066667,282.496 84.024,282.4 C83.7413333,282.304 83.4906667,282.194667 83.272,282.072 C83.0533333,281.949333 82.9066667,281.824 82.832,281.696 C82.7893333,281.621333 82.768,281.536 82.768,281.44 L82.768,281.44 L82.608,281.36 L81.728,283.296 L81.952,283.424 C82.016,283.338667 82.0853333,283.296 82.16,283.296 C82.2773333,283.296 82.416,283.336 82.576,283.416 C82.736,283.496 82.952,283.586667 83.224,283.688 C83.496,283.789333 83.8373333,283.874667 84.248,283.944 C84.6586667,284.013333 85.168,284.048 85.776,284.048 Z M97.424,284 L97.424,283.712 C97.1893333,283.712 97.072,283.616 97.072,283.424 L97.072,283.424 L97.072,277.056 L99.712,277.056 C99.808,277.056 99.9013333,277.082667 99.992,277.136 C100.082667,277.189333 100.128,277.290667 100.128,277.44 L100.128,277.44 L100.416,277.44 L100.416,275.2 L100.128,275.2 C100.128,275.349333 100.082667,275.450667 99.992,275.504 C99.9013333,275.557333 99.808,275.584 99.712,275.584 L99.712,275.584 L92.608,275.584 C92.512,275.584 92.4186667,275.557333 92.328,275.504 C92.2373333,275.450667 92.192,275.349333 92.192,275.2 L92.192,275.2 L91.904,275.2 L91.904,277.44 L92.192,277.44 C92.192,277.290667 92.2373333,277.189333 92.328,277.136 C92.4186667,277.082667 92.512,277.056 92.608,277.056 L92.608,277.056 L95.248,277.056 L95.248,283.424 C95.248,283.52 95.2186667,283.592 95.16,283.64 C95.1013333,283.688 95.0346667,283.712 94.96,283.712 L94.96,283.712 L94.96,284 L97.424,284 Z M108.368,284.048 C108.677333,284.048 108.944,283.944 109.168,283.736 C109.392,283.528 109.504,283.269333 109.504,282.96 C109.504,282.650667 109.392,282.384 109.168,282.16 C108.944,281.936 108.677333,281.824 108.368,281.824 C108.058667,281.824 107.792,281.936 107.568,282.16 C107.344,282.384 107.232,282.650667 107.232,282.96 C107.232,283.269333 107.344,283.528 107.568,283.736 C107.792,283.944 108.058667,284.048 108.368,284.048 Z M118.128,284.048 C118.437333,284.048 118.704,283.944 118.928,283.736 C119.152,283.528 119.264,283.269333 119.264,282.96 C119.264,282.650667 119.152,282.384 118.928,282.16 C118.704,281.936 118.437333,281.824 118.128,281.824 C117.818667,281.824 117.552,281.936 117.328,282.16 C117.104,282.384 116.992,282.650667 116.992,282.96 C116.992,283.269333 117.104,283.528 117.328,283.736 C117.552,283.944 117.818667,284.048 118.128,284.048 Z M127.888,284.048 C128.197333,284.048 128.464,283.944 128.688,283.736 C128.912,283.528 129.024,283.269333 129.024,282.96 C129.024,282.650667 128.912,282.384 128.688,282.16 C128.464,281.936 128.197333,281.824 127.888,281.824 C127.578667,281.824 127.312,281.936 127.088,282.16 C126.864,282.384 126.752,282.650667 126.752,282.96 C126.752,283.269333 126.864,283.528 127.088,283.736 C127.312,283.944 127.578667,284.048 127.888,284.048 Z M141.008,284 L141.008,283.712 C140.869333,283.669333 140.8,283.562667 140.8,283.392 C140.8,283.285333 140.88,283.024 141.04,282.608 L141.04,282.608 L142.784,277.984 L142.816,277.984 L144.656,282.704 C144.741333,282.896 144.802667,283.045333 144.84,283.152 C144.877333,283.258667 144.896,283.354667 144.896,283.44 C144.896,283.514667 144.861333,283.573333 144.792,283.616 C144.722667,283.658667 144.656,283.690667 144.592,283.712 L144.592,283.712 L144.592,284 L147.12,284 L147.12,283.712 C147.024,283.712 146.949333,283.682667 146.896,283.624 C146.842667,283.565333 146.816,283.498667 146.816,283.424 C146.816,283.338667 146.84,283.232 146.888,283.104 C146.936,282.976 146.992,282.826667 147.056,282.656 L147.056,282.656 L149.36,276.544 C149.434667,276.352 149.501333,276.192 149.56,276.064 C149.618667,275.936 149.706667,275.872 149.824,275.872 L149.824,275.872 L149.824,275.584 L147.456,275.584 L147.456,275.872 C147.530667,275.872 147.594667,275.901333 147.648,275.96 C147.701333,276.018667 147.728,276.08 147.728,276.144 C147.728,276.272 147.690667,276.416 147.616,276.576 L147.616,276.576 L145.888,281.184 L145.856,281.184 L144.144,276.672 C144.037333,276.416 143.984,276.234667 143.984,276.128 C143.984,276.064 144,276.005333 144.032,275.952 C144.064,275.898667 144.117333,275.872 144.192,275.872 L144.192,275.872 L144.192,275.584 L141.456,275.584 L141.456,275.872 C141.594667,275.872 141.664,275.973333 141.664,276.176 C141.664,276.229333 141.656,276.290667 141.64,276.36 C141.624,276.429333 141.589333,276.533333 141.536,276.672 L141.536,276.672 L139.84,281.184 L139.808,281.184 L138.096,276.736 C138.032,276.565333 137.992,276.442667 137.976,276.368 C137.96,276.293333 137.952,276.229333 137.952,276.176 C137.952,275.973333 138.032,275.872 138.192,275.872 L138.192,275.872 L138.192,275.584 L135.712,275.584 L135.712,275.872 C135.818667,275.893333 135.896,275.944 135.944,276.024 C135.992,276.104 136.037333,276.202667 136.08,276.32 L136.08,276.32 L138.64,282.928 C138.682667,283.034667 138.722667,283.136 138.76,283.232 C138.797333,283.328 138.816,283.418667 138.816,283.504 C138.816,283.578667 138.784,283.632 138.72,283.664 C138.656,283.696 138.592,283.712 138.528,283.712 L138.528,283.712 L138.528,284 L141.008,284 Z M154.304,284 L154.304,283.712 C154.026667,283.712 153.888,283.616 153.888,283.424 L153.888,283.424 L153.888,276.16 C153.888,275.968 154.026667,275.872 154.304,275.872 L154.304,275.872 L154.304,275.584 L151.648,275.584 L151.648,275.872 C151.925333,275.872 152.064,275.968 152.064,276.16 L152.064,276.16 L152.064,283.424 C152.064,283.616 151.925333,283.712 151.648,283.712 L151.648,283.712 L151.648,284 L154.304,284 Z M159.792,284 L159.792,283.712 C159.450667,283.712 159.28,283.616 159.28,283.424 L159.28,283.424 L159.28,280.576 L162.496,280.576 C163.52,280.576 164.325333,280.386667 164.912,280.008 C165.498667,279.629333 165.792,278.986667 165.792,278.08 C165.792,277.173333 165.498667,276.530667 164.912,276.152 C164.325333,275.773333 163.52,275.584 162.496,275.584 L162.496,275.584 L156.864,275.584 L156.864,275.872 C157.258667,275.872 157.456,275.968 157.456,276.16 L157.456,276.16 L157.456,283.424 C157.456,283.616 157.258667,283.712 156.864,283.712 L156.864,283.712 L156.864,284 L159.792,284 Z M162.688,279.104 L159.28,279.104 L159.28,277.056 L162.688,277.056 C163.04,277.056 163.341333,277.125333 163.592,277.264 C163.842667,277.402667 163.968,277.674667 163.968,278.08 C163.968,278.485333 163.842667,278.757333 163.592,278.896 C163.341333,279.034667 163.04,279.104 162.688,279.104 L162.688,279.104 Z M175.984,284.304 L175.984,282.112 L175.696,282.112 C175.696,282.24 175.645333,282.341333 175.544,282.416 C175.442667,282.490667 175.312,282.528 175.152,282.528 L175.152,282.528 L169.808,282.528 L169.808,280.32 L172.944,280.32 C173.157333,280.32 173.322667,280.354667 173.44,280.424 C173.557333,280.493333 173.616,280.650667 173.616,280.896 L173.616,280.896 L173.904,280.896 L173.904,278.4 L173.616,278.4 C173.616,278.645333 173.557333,278.797333 173.44,278.856 C173.322667,278.914667 173.157333,278.944 172.944,278.944 L172.944,278.944 L169.808,278.944 L169.808,276.96 L174.992,276.96 C175.216,276.96 175.373333,276.989333 175.464,277.048 C175.554667,277.106667 175.6,277.194667 175.6,277.312 L175.6,277.312 L175.888,277.312 L175.888,275.2 L175.6,275.2 C175.6,275.317333 175.554667,275.410667 175.464,275.48 C175.373333,275.549333 175.216,275.584 174.992,275.584 L174.992,275.584 L167.696,275.584 L167.696,275.872 C167.770667,275.872 167.837333,275.896 167.896,275.944 C167.954667,275.992 167.984,276.064 167.984,276.16 L167.984,276.16 L167.984,283.424 C167.984,283.52 167.954667,283.592 167.896,283.64 C167.837333,283.688 167.770667,283.712 167.696,283.712 L167.696,283.712 L167.696,284 L175.152,284 C175.312,284 175.442667,284.010667 175.544,284.032 C175.645333,284.053333 175.696,284.144 175.696,284.304 L175.696,284.304 L175.984,284.304 Z M184.304,284.048 C184.613333,284.048 184.88,283.944 185.104,283.736 C185.328,283.528 185.44,283.269333 185.44,282.96 C185.44,282.650667 185.328,282.384 185.104,282.16 C184.88,281.936 184.613333,281.824 184.304,281.824 C183.994667,281.824 183.728,281.936 183.504,282.16 C183.28,282.384 183.168,282.650667 183.168,282.96 C183.168,283.269333 183.28,283.528 183.504,283.736 C183.728,283.944 183.994667,284.048 184.304,284.048 Z M194.064,284.048 C194.373333,284.048 194.64,283.944 194.864,283.736 C195.088,283.528 195.2,283.269333 195.2,282.96 C195.2,282.650667 195.088,282.384 194.864,282.16 C194.64,281.936 194.373333,281.824 194.064,281.824 C193.754667,281.824 193.488,281.936 193.264,282.16 C193.04,282.384 192.928,282.650667 192.928,282.96 C192.928,283.269333 193.04,283.528 193.264,283.736 C193.488,283.944 193.754667,284.048 194.064,284.048 Z M203.824,284.048 C204.133333,284.048 204.4,283.944 204.624,283.736 C204.848,283.528 204.96,283.269333 204.96,282.96 C204.96,282.650667 204.848,282.384 204.624,282.16 C204.4,281.936 204.133333,281.824 203.824,281.824 C203.514667,281.824 203.248,281.936 203.024,282.16 C202.8,282.384 202.688,282.650667 202.688,282.96 C202.688,283.269333 202.8,283.528 203.024,283.736 C203.248,283.944 203.514667,284.048 203.824,284.048 Z M85.552,300.304 L85.552,298.112 L85.264,298.112 C85.264,298.24 85.2133333,298.341333 85.112,298.416 C85.0106667,298.490667 84.88,298.528 84.72,298.528 L84.72,298.528 L79.376,298.528 L79.376,296.32 L82.512,296.32 C82.7253333,296.32 82.8906667,296.354667 83.008,296.424 C83.1253333,296.493333 83.184,296.650667 83.184,296.896 L83.184,296.896 L83.472,296.896 L83.472,294.4 L83.184,294.4 C83.184,294.645333 83.1253333,294.797333 83.008,294.856 C82.8906667,294.914667 82.7253333,294.944 82.512,294.944 L82.512,294.944 L79.376,294.944 L79.376,292.96 L84.56,292.96 C84.784,292.96 84.9413333,292.989333 85.032,293.048 C85.1226667,293.106667 85.168,293.194667 85.168,293.312 L85.168,293.312 L85.456,293.312 L85.456,291.2 L85.168,291.2 C85.168,291.317333 85.1226667,291.410667 85.032,291.48 C84.9413333,291.549333 84.784,291.584 84.56,291.584 L84.56,291.584 L77.264,291.584 L77.264,291.872 C77.3386667,291.872 77.4053333,291.896 77.464,291.944 C77.5226667,291.992 77.552,292.064 77.552,292.16 L77.552,292.16 L77.552,299.424 C77.552,299.52 77.5226667,299.592 77.464,299.64 C77.4053333,299.688 77.3386667,299.712 77.264,299.712 L77.264,299.712 L77.264,300 L84.72,300 C84.88,300 85.0106667,300.010667 85.112,300.032 C85.2133333,300.053333 85.264,300.144 85.264,300.304 L85.264,300.304 L85.552,300.304 Z M93.168,300 L93.168,299.712 C93.1253333,299.68 93.0906667,299.648 93.064,299.616 C93.0373333,299.584 93.024,299.541333 93.024,299.488 C93.024,299.434667 93.056,299.344 93.12,299.216 C93.184,299.088 93.264,298.917333 93.36,298.704 L93.36,298.704 L96.192,292.48 C96.2346667,292.384 96.304,292.258667 96.4,292.104 C96.496,291.949333 96.6506667,291.872 96.864,291.872 L96.864,291.872 L96.864,291.584 L94.064,291.584 L94.064,291.872 C94.3626667,291.872 94.512,291.957333 94.512,292.128 C94.512,292.213333 94.456,292.365333 94.344,292.584 C94.232,292.802667 94.112,293.050667 93.984,293.328 L93.984,293.328 L91.984,297.664 L89.936,293.264 C89.808,292.997333 89.6986667,292.773333 89.608,292.592 C89.5173333,292.410667 89.472,292.261333 89.472,292.144 C89.472,292.037333 89.5066667,291.965333 89.576,291.928 C89.6453333,291.890667 89.7173333,291.872 89.792,291.872 L89.792,291.872 L89.792,291.584 L86.928,291.584 L86.928,291.872 C87.1093333,291.925333 87.248,291.978667 87.344,292.032 C87.44,292.085333 87.5146667,292.170667 87.568,292.288 L87.568,292.288 L90.448,298.544 C90.5653333,298.789333 90.664,298.994667 90.744,299.16 C90.824,299.325333 90.864,299.434667 90.864,299.488 C90.864,299.594667 90.816,299.669333 90.72,299.712 L90.72,299.712 L90.72,300 L93.168,300 Z M106.896,300.304 L106.896,298.112 L106.608,298.112 C106.608,298.24 106.557333,298.341333 106.456,298.416 C106.354667,298.490667 106.224,298.528 106.064,298.528 L106.064,298.528 L100.72,298.528 L100.72,296.32 L103.856,296.32 C104.069333,296.32 104.234667,296.354667 104.352,296.424 C104.469333,296.493333 104.528,296.650667 104.528,296.896 L104.528,296.896 L104.816,296.896 L104.816,294.4 L104.528,294.4 C104.528,294.645333 104.469333,294.797333 104.352,294.856 C104.234667,294.914667 104.069333,294.944 103.856,294.944 L103.856,294.944 L100.72,294.944 L100.72,292.96 L105.904,292.96 C106.128,292.96 106.285333,292.989333 106.376,293.048 C106.466667,293.106667 106.512,293.194667 106.512,293.312 L106.512,293.312 L106.8,293.312 L106.8,291.2 L106.512,291.2 C106.512,291.317333 106.466667,291.410667 106.376,291.48 C106.285333,291.549333 106.128,291.584 105.904,291.584 L105.904,291.584 L98.608,291.584 L98.608,291.872 C98.6826667,291.872 98.7493333,291.896 98.808,291.944 C98.8666667,291.992 98.896,292.064 98.896,292.16 L98.896,292.16 L98.896,299.424 C98.896,299.52 98.8666667,299.592 98.808,299.64 C98.7493333,299.688 98.6826667,299.712 98.608,299.712 L98.608,299.712 L98.608,300 L106.064,300 C106.224,300 106.354667,300.010667 106.456,300.032 C106.557333,300.053333 106.608,300.144 106.608,300.304 L106.608,300.304 L106.896,300.304 Z M111.952,300 L111.952,299.712 C111.770667,299.712 111.645333,299.688 111.576,299.64 C111.506667,299.592 111.472,299.52 111.472,299.424 L111.472,299.424 L111.472,296.576 L113.76,296.576 L115.52,299.072 C115.605333,299.189333 115.669333,299.282667 115.712,299.352 C115.754667,299.421333 115.776,299.482667 115.776,299.536 C115.776,299.589333 115.741333,299.632 115.672,299.664 C115.602667,299.696 115.52,299.712 115.424,299.712 L115.424,299.712 L115.424,300 L118.416,300 L118.416,299.712 C118.330667,299.712 118.237333,299.701333 118.136,299.68 C118.034667,299.658667 117.946667,299.594667 117.872,299.488 L117.872,299.488 L115.744,296.448 C116.448,296.32 117.008,296.069333 117.424,295.696 C117.84,295.322667 118.048,294.784 118.048,294.08 C118.048,293.621333 117.968,293.234667 117.808,292.92 C117.648,292.605333 117.418667,292.349333 117.12,292.152 C116.821333,291.954667 116.464,291.810667 116.048,291.72 C115.632,291.629333 115.168,291.584 114.656,291.584 L114.656,291.584 L109.184,291.584 L109.184,291.872 C109.493333,291.872 109.648,291.968 109.648,292.16 L109.648,292.16 L109.648,299.424 C109.648,299.616 109.493333,299.712 109.184,299.712 L109.184,299.712 L109.184,300 L111.952,300 Z M114.24,295.328 L111.472,295.328 L111.472,292.96 L114.24,292.96 C114.624,292.96 114.944,292.989333 115.2,293.048 C115.456,293.106667 115.658667,293.189333 115.808,293.296 C115.957333,293.402667 116.064,293.528 116.128,293.672 C116.192,293.816 116.224,293.973333 116.224,294.144 C116.224,294.314667 116.192,294.472 116.128,294.616 C116.064,294.76 115.957333,294.885333 115.808,294.992 C115.658667,295.098667 115.456,295.181333 115.2,295.24 C114.944,295.298667 114.624,295.328 114.24,295.328 L114.24,295.328 Z M125.648,300 L125.648,299.712 C125.402667,299.712 125.28,299.616 125.28,299.424 L125.28,299.424 L125.28,296.576 L128,292.72 C128.128,292.528 128.237333,292.376 128.328,292.264 C128.418667,292.152 128.504,292.066667 128.584,292.008 C128.664,291.949333 128.741333,291.912 128.816,291.896 C128.890667,291.88 128.970667,291.872 129.056,291.872 L129.056,291.872 L129.056,291.584 L126.256,291.584 L126.256,291.872 C126.341333,291.872 126.434667,291.882667 126.536,291.904 C126.637333,291.925333 126.688,291.973333 126.688,292.048 C126.688,292.112 126.661333,292.181333 126.608,292.256 C126.554667,292.330667 126.485333,292.432 126.4,292.56 L126.4,292.56 L124.528,295.136 C124.389333,294.912 124.208,294.64 123.984,294.32 C123.76,294 123.544,293.688 123.336,293.384 C123.128,293.08 122.946667,292.808 122.792,292.568 C122.637333,292.328 122.56,292.176 122.56,292.112 C122.56,292.005333 122.602667,291.938667 122.688,291.912 C122.773333,291.885333 122.864,291.872 122.96,291.872 L122.96,291.872 L122.96,291.584 L119.632,291.584 L119.632,291.872 C119.738667,291.872 119.869333,291.909333 120.024,291.984 C120.178667,292.058667 120.293333,292.149333 120.368,292.256 L120.368,292.256 L123.456,296.576 L123.456,299.424 C123.456,299.52 123.424,299.592 123.36,299.64 C123.296,299.688 123.216,299.712 123.12,299.712 L123.12,299.712 L123.12,300 L125.648,300 Z M135.376,300 L135.376,299.712 C135.141333,299.712 135.024,299.616 135.024,299.424 L135.024,299.424 L135.024,293.056 L137.664,293.056 C137.76,293.056 137.853333,293.082667 137.944,293.136 C138.034667,293.189333 138.08,293.290667 138.08,293.44 L138.08,293.44 L138.368,293.44 L138.368,291.2 L138.08,291.2 C138.08,291.349333 138.034667,291.450667 137.944,291.504 C137.853333,291.557333 137.76,291.584 137.664,291.584 L137.664,291.584 L130.56,291.584 C130.464,291.584 130.370667,291.557333 130.28,291.504 C130.189333,291.450667 130.144,291.349333 130.144,291.2 L130.144,291.2 L129.856,291.2 L129.856,293.44 L130.144,293.44 C130.144,293.290667 130.189333,293.189333 130.28,293.136 C130.370667,293.082667 130.464,293.056 130.56,293.056 L130.56,293.056 L133.2,293.056 L133.2,299.424 C133.2,299.52 133.170667,299.592 133.112,299.64 C133.053333,299.688 132.986667,299.712 132.912,299.712 L132.912,299.712 L132.912,300 L135.376,300 Z M142.944,300 L142.944,299.712 C142.869333,299.712 142.802667,299.688 142.744,299.64 C142.685333,299.592 142.656,299.52 142.656,299.424 L142.656,299.424 L142.656,296.416 L147.808,296.416 L147.808,299.424 C147.808,299.616 147.690667,299.712 147.456,299.712 L147.456,299.712 L147.456,300 L149.92,300 L149.92,299.712 C149.845333,299.712 149.778667,299.688 149.72,299.64 C149.661333,299.592 149.632,299.52 149.632,299.424 L149.632,299.424 L149.632,292.16 C149.632,292.064 149.661333,291.992 149.72,291.944 C149.778667,291.896 149.845333,291.872 149.92,291.872 L149.92,291.872 L149.92,291.584 L147.456,291.584 L147.456,291.872 C147.690667,291.872 147.808,291.968 147.808,292.16 L147.808,292.16 L147.808,294.88 L142.656,294.88 L142.656,292.16 C142.656,292.064 142.685333,291.992 142.744,291.944 C142.802667,291.896 142.869333,291.872 142.944,291.872 L142.944,291.872 L142.944,291.584 L140.528,291.584 L140.528,291.872 C140.730667,291.872 140.832,291.968 140.832,292.16 L140.832,292.16 L140.832,299.424 C140.832,299.616 140.730667,299.712 140.528,299.712 L140.528,299.712 L140.528,300 L142.944,300 Z M155.44,300 L155.44,299.712 C155.162667,299.712 155.024,299.616 155.024,299.424 L155.024,299.424 L155.024,292.16 C155.024,291.968 155.162667,291.872 155.44,291.872 L155.44,291.872 L155.44,291.584 L152.784,291.584 L152.784,291.872 C153.061333,291.872 153.2,291.968 153.2,292.16 L153.2,292.16 L153.2,299.424 C153.2,299.616 153.061333,299.712 152.784,299.712 L152.784,299.712 L152.784,300 L155.44,300 Z M160.608,300 L160.608,299.712 C160.362667,299.712 160.24,299.616 160.24,299.424 L160.24,299.424 L160.24,294.112 L165.12,299.2 C165.290667,299.370667 165.376,299.493333 165.376,299.568 C165.376,299.664 165.306667,299.712 165.168,299.712 L165.168,299.712 L165.168,300 L167.76,300 L167.76,299.712 C167.557333,299.712 167.456,299.616 167.456,299.424 L167.456,299.424 L167.456,292.16 C167.456,291.968 167.557333,291.872 167.76,291.872 L167.76,291.872 L167.76,291.584 L165.344,291.584 L165.344,291.872 C165.621333,291.872 165.76,291.968 165.76,292.16 L165.76,292.16 L165.76,297.248 L161.168,292.48 C160.954667,292.266667 160.848,292.117333 160.848,292.032 C160.848,291.925333 160.890667,291.872 160.976,291.872 L160.976,291.872 L160.976,291.584 L158.24,291.584 L158.24,291.872 C158.442667,291.872 158.544,291.968 158.544,292.16 L158.544,292.16 L158.544,299.424 C158.544,299.616 158.442667,299.712 158.24,299.712 L158.24,299.712 L158.24,300 L160.608,300 Z M174.928,300.048 C175.312,300.048 175.704,300.037333 176.104,300.016 C176.504,299.994667 176.904,299.938667 177.304,299.848 C177.704,299.757333 178.098667,299.632 178.488,299.472 C178.877333,299.312 179.248,299.109333 179.6,298.864 L179.6,298.864 L179.6,298.608 C179.514667,298.565333 179.44,298.528 179.376,298.496 C179.312,298.464 179.28,298.394667 179.28,298.288 L179.28,298.288 L179.28,296.48 C179.28,296.341333 179.306667,296.250667 179.36,296.208 C179.413333,296.165333 179.546667,296.128 179.76,296.096 L179.76,296.096 L179.76,295.808 L175.76,295.808 C175.610667,295.808 175.498667,295.784 175.424,295.736 C175.349333,295.688 175.301333,295.573333 175.28,295.392 L175.28,295.392 L174.992,295.392 L174.992,297.44 L175.28,297.44 C175.301333,297.226667 175.349333,297.088 175.424,297.024 C175.498667,296.96 175.610667,296.928 175.76,296.928 L175.76,296.928 L177.808,296.928 L177.808,298.304 C177.466667,298.421333 177.053333,298.530667 176.568,298.632 C176.082667,298.733333 175.536,298.784 174.928,298.784 C174.533333,298.784 174.141333,298.728 173.752,298.616 C173.362667,298.504 173.016,298.330667 172.712,298.096 C172.408,297.861333 172.162667,297.554667 171.976,297.176 C171.789333,296.797333 171.696,296.346667 171.696,295.824 C171.696,295.290667 171.789333,294.837333 171.976,294.464 C172.162667,294.090667 172.408,293.786667 172.712,293.552 C173.016,293.317333 173.362667,293.144 173.752,293.032 C174.141333,292.92 174.533333,292.864 174.928,292.864 C175.248,292.864 175.586667,292.885333 175.944,292.928 C176.301333,292.970667 176.632,293.037333 176.936,293.128 C177.24,293.218667 177.490667,293.328 177.688,293.456 C177.885333,293.584 177.984,293.728 177.984,293.888 C177.984,293.952 177.973333,294.016 177.952,294.08 L177.952,294.08 L178.272,294.176 L179.216,292.064 L179.024,291.952 C178.970667,291.984 178.917333,292.021333 178.864,292.064 C178.810667,292.106667 178.736,292.128 178.64,292.128 C178.586667,292.128 178.450667,292.093333 178.232,292.024 C178.013333,291.954667 177.738667,291.88 177.408,291.8 C177.077333,291.72 176.698667,291.648 176.272,291.584 C175.845333,291.52 175.397333,291.488 174.928,291.488 C174.181333,291.488 173.501333,291.586667 172.888,291.784 C172.274667,291.981333 171.749333,292.266667 171.312,292.64 C170.874667,293.013333 170.536,293.464 170.296,293.992 C170.056,294.52 169.936,295.12 169.936,295.792 C169.936,296.464 170.056,297.064 170.296,297.592 C170.536,298.12 170.874667,298.568 171.312,298.936 C171.749333,299.304 172.274667,299.581333 172.888,299.768 C173.501333,299.954667 174.181333,300.048 174.928,300.048 Z M184.112,297.088 L184.112,296.896 C184.026667,296.896 183.957333,296.882667 183.904,296.856 C183.850667,296.829333 183.824,296.773333 183.824,296.688 C183.824,296.613333 183.829333,296.541333 183.84,296.472 C183.850667,296.402667 183.861333,296.325333 183.872,296.24 L183.872,296.24 L184.368,291.968 C184.389333,291.84 184.421333,291.749333 184.464,291.696 C184.506667,291.642667 184.608,291.594667 184.768,291.552 L184.768,291.552 L184.768,291.36 L182.112,291.36 L182.112,291.552 C182.272,291.594667 182.373333,291.642667 182.416,291.696 C182.458667,291.749333 182.490667,291.84 182.512,291.968 L182.512,291.968 L183.008,296.24 C183.018667,296.325333 183.029333,296.402667 183.04,296.472 C183.050667,296.541333 183.056,296.613333 183.056,296.688 C183.056,296.773333 183.029333,296.829333 182.976,296.856 C182.922667,296.882667 182.853333,296.896 182.768,296.896 L182.768,296.896 L182.768,297.088 L184.112,297.088 Z M183.44,300.048 C183.717333,300.048 183.957333,299.954667 184.16,299.768 C184.362667,299.581333 184.464,299.349333 184.464,299.072 C184.464,298.794667 184.362667,298.554667 184.16,298.352 C183.957333,298.149333 183.717333,298.048 183.44,298.048 C183.162667,298.048 182.922667,298.149333 182.72,298.352 C182.517333,298.554667 182.416,298.794667 182.416,299.072 C182.416,299.349333 182.517333,299.581333 182.72,299.768 C182.922667,299.954667 183.162667,300.048 183.44,300.048 Z M39.328,316 L39.328,315.712 C39.2426667,315.712 39.168,315.688 39.104,315.64 C39.04,315.592 39.008,315.52 39.008,315.424 L39.008,315.424 L39.008,313.136 L40.352,312.096 L43.088,315.248 C43.2373333,315.429333 43.312,315.546667 43.312,315.6 C43.312,315.674667 43.2426667,315.712 43.104,315.712 L43.104,315.712 L43.104,316 L46.064,316 L46.064,315.712 C45.8826667,315.658667 45.6986667,315.554667 45.512,315.4 C45.3253333,315.245333 45.1626667,315.088 45.024,314.928 L45.024,314.928 L41.664,311.04 L45.344,308.112 C45.536,307.952 45.728,307.872 45.92,307.872 L45.92,307.872 L45.92,307.584 L42.56,307.584 L42.56,307.872 C42.624,307.872 42.68,307.888 42.728,307.92 C42.776,307.952 42.8,308.005333 42.8,308.08 C42.8,308.133333 42.7573333,308.2 42.672,308.28 C42.5866667,308.36 42.4693333,308.464 42.32,308.592 L42.32,308.592 L39.008,311.2 L39.008,308.16 C39.008,308.064 39.04,307.992 39.104,307.944 C39.168,307.896 39.2426667,307.872 39.328,307.872 L39.328,307.872 L39.328,307.584 L36.832,307.584 L36.832,307.872 C37.0666667,307.872 37.184,307.968 37.184,308.16 L37.184,308.16 L37.184,315.424 C37.184,315.616 37.0666667,315.712 36.832,315.712 L36.832,315.712 L36.832,316 L39.328,316 Z M54.256,316.176 L54.256,314.496 L53.968,314.496 C53.968,314.592 53.9253333,314.669333 53.84,314.728 C53.7546667,314.786667 53.648,314.816 53.52,314.816 L53.52,314.816 L49.424,314.816 L49.424,312.928 L51.76,312.928 C51.9733333,312.928 52.1386667,312.941333 52.256,312.968 C52.3733333,312.994667 52.416,313.066667 52.384,313.184 L52.384,313.184 L52.704,313.184 L52.704,311.488 L52.416,311.488 C52.416,311.605333 52.3733333,311.677333 52.288,311.704 C52.2026667,311.730667 52.0693333,311.744 51.888,311.744 L51.888,311.744 L49.424,311.744 L49.424,310.144 L53.328,310.144 C53.6586667,310.144 53.824,310.245333 53.824,310.448 L53.824,310.448 L54.112,310.448 L54.112,308.672 L53.824,308.672 C53.824,308.864 53.6586667,308.96 53.328,308.96 L53.328,308.96 L47.648,308.96 L47.648,309.248 C47.7013333,309.248 47.7546667,309.266667 47.808,309.304 C47.8613333,309.341333 47.888,309.402667 47.888,309.488 L47.888,309.488 L47.888,315.472 C47.888,315.557333 47.8613333,315.618667 47.808,315.656 C47.7546667,315.693333 47.7013333,315.712 47.648,315.712 L47.648,315.712 L47.648,316 L53.52,316 C53.648,316 53.7546667,316.005333 53.84,316.016 C53.9253333,316.026667 53.968,316.08 53.968,316.176 L53.968,316.176 L54.256,316.176 Z M63.152,316.176 L63.152,314.496 L62.864,314.496 C62.864,314.592 62.8213333,314.669333 62.736,314.728 C62.6506667,314.786667 62.544,314.816 62.416,314.816 L62.416,314.816 L58.32,314.816 L58.32,312.928 L60.656,312.928 C60.8693333,312.928 61.0346667,312.941333 61.152,312.968 C61.2693333,312.994667 61.312,313.066667 61.28,313.184 L61.28,313.184 L61.6,313.184 L61.6,311.488 L61.312,311.488 C61.312,311.605333 61.2693333,311.677333 61.184,311.704 C61.0986667,311.730667 60.9653333,311.744 60.784,311.744 L60.784,311.744 L58.32,311.744 L58.32,310.144 L62.224,310.144 C62.5546667,310.144 62.72,310.245333 62.72,310.448 L62.72,310.448 L63.008,310.448 L63.008,308.672 L62.72,308.672 C62.72,308.864 62.5546667,308.96 62.224,308.96 L62.224,308.96 L56.544,308.96 L56.544,309.248 C56.5973333,309.248 56.6506667,309.266667 56.704,309.304 C56.7573333,309.341333 56.784,309.402667 56.784,309.488 L56.784,309.488 L56.784,315.472 C56.784,315.557333 56.7573333,315.618667 56.704,315.656 C56.6506667,315.693333 56.5973333,315.712 56.544,315.712 L56.544,315.712 L56.544,316 L62.416,316 C62.544,316 62.6506667,316.005333 62.736,316.016 C62.8213333,316.026667 62.864,316.08 62.864,316.176 L62.864,316.176 L63.152,316.176 Z M67.472,316 L67.472,315.712 C67.248,315.712 67.136,315.632 67.136,315.472 L67.136,315.472 L67.136,313.072 L69.856,313.072 C70.72,313.072 71.368,312.925333 71.8,312.632 C72.232,312.338667 72.448,311.808 72.448,311.04 C72.448,310.272 72.232,309.733333 71.8,309.424 C71.368,309.114667 70.72,308.96 69.856,308.96 L69.856,308.96 L65.2,308.96 L65.2,309.248 C65.4666667,309.248 65.6,309.328 65.6,309.488 L65.6,309.488 L65.6,315.472 C65.6,315.632 65.4666667,315.712 65.2,315.712 L65.2,315.712 L65.2,316 L67.472,316 Z M69.824,311.888 L67.136,311.888 L67.136,310.144 L69.824,310.144 C70.1333333,310.144 70.392,310.210667 70.6,310.344 C70.808,310.477333 70.912,310.709333 70.912,311.04 C70.912,311.381333 70.808,311.608 70.6,311.72 C70.392,311.832 70.1333333,311.888 69.824,311.888 L69.824,311.888 Z M81.776,316 L81.776,315.712 C81.4773333,315.712 81.328,315.632 81.328,315.472 L81.328,315.472 L81.328,309.488 C81.328,309.328 81.4773333,309.248 81.776,309.248 L81.776,309.248 L81.776,308.96 L79.344,308.96 L79.344,309.248 C79.5146667,309.248 79.632,309.266667 79.696,309.304 C79.76,309.341333 79.792,309.402667 79.792,309.488 L79.792,309.488 L79.792,315.472 C79.792,315.557333 79.76,315.618667 79.696,315.656 C79.632,315.693333 79.5146667,315.712 79.344,315.712 L79.344,315.712 L79.344,316 L81.776,316 Z M86.496,316 L86.496,315.712 C86.272,315.712 86.16,315.632 86.16,315.472 L86.16,315.472 L86.16,310.816 L90.128,315.04 C90.256,315.178667 90.3706667,315.301333 90.472,315.408 C90.5733333,315.514667 90.624,315.589333 90.624,315.632 C90.624,315.685333 90.5866667,315.712 90.512,315.712 L90.512,315.712 L90.512,316 L92.592,316 L92.592,315.712 C92.4,315.712 92.304,315.632 92.304,315.472 L92.304,315.472 L92.304,309.488 C92.304,309.328 92.4,309.248 92.592,309.248 L92.592,309.248 L92.592,308.96 L90.64,308.96 L90.64,309.248 C90.8533333,309.248 90.96,309.328 90.96,309.488 L90.96,309.488 L90.96,313.824 L87.12,309.76 C86.8853333,309.525333 86.768,309.381333 86.768,309.328 C86.768,309.285333 86.8053333,309.258667 86.88,309.248 L86.88,309.248 L86.88,308.96 L84.528,308.96 L84.528,309.248 C84.72,309.248 84.816,309.328 84.816,309.488 L84.816,309.488 L84.816,315.472 C84.816,315.632 84.72,315.712 84.528,315.712 L84.528,315.712 L84.528,316 L86.496,316 Z M102.224,316 L102.224,315.712 C102.128,315.712 102.042667,315.693333 101.968,315.656 C101.893333,315.618667 101.856,315.557333 101.856,315.472 L101.856,315.472 L101.856,313.024 L104.672,313.024 C104.853333,313.024 104.965333,313.045333 105.008,313.088 C105.050667,313.130667 105.077333,313.194667 105.088,313.28 L105.088,313.28 L105.376,313.28 L105.376,311.6 L105.088,311.6 C105.077333,311.685333 105.050667,311.746667 105.008,311.784 C104.965333,311.821333 104.853333,311.84 104.672,311.84 L104.672,311.84 L101.856,311.84 L101.856,310.144 L106.192,310.144 C106.373333,310.144 106.501333,310.168 106.576,310.216 C106.650667,310.264 106.688,310.314667 106.688,310.368 L106.688,310.368 L106.976,310.368 L106.976,308.672 L106.688,308.672 C106.688,308.757333 106.650667,308.826667 106.576,308.88 C106.501333,308.933333 106.373333,308.96 106.192,308.96 L106.192,308.96 L99.984,308.96 L99.984,309.248 C100.208,309.248 100.32,309.328 100.32,309.488 L100.32,309.488 L100.32,315.472 C100.32,315.632 100.218667,315.712 100.016,315.712 L100.016,315.712 L100.016,316 L102.224,316 Z M111.056,316 L111.056,315.712 C110.992,315.712 110.925333,315.693333 110.856,315.656 C110.786667,315.618667 110.752,315.557333 110.752,315.472 L110.752,315.472 L110.752,313.184 L112.976,313.184 L114.24,315.072 C114.4,315.296 114.48,315.461333 114.48,315.568 C114.48,315.664 114.410667,315.712 114.272,315.712 L114.272,315.712 L114.272,316 L116.72,316 L116.72,315.712 C116.602667,315.68 116.493333,315.634667 116.392,315.576 C116.290667,315.517333 116.197333,315.429333 116.112,315.312 L116.112,315.312 L114.544,313.024 C114.768,312.970667 114.986667,312.893333 115.2,312.792 C115.413333,312.690667 115.608,312.557333 115.784,312.392 C115.96,312.226667 116.101333,312.032 116.208,311.808 C116.314667,311.584 116.368,311.328 116.368,311.04 C116.368,310.282667 116.101333,309.746667 115.568,309.432 C115.034667,309.117333 114.293333,308.96 113.344,308.96 L113.344,308.96 L108.928,308.96 L108.928,309.248 C109.12,309.248 109.216,309.328 109.216,309.488 L109.216,309.488 L109.216,315.472 C109.216,315.632 109.12,315.712 108.928,315.712 L108.928,315.712 L108.928,316 L111.056,316 Z M113.312,312 L110.784,312 L110.784,310.144 L113.312,310.144 C113.856,310.144 114.253333,310.221333 114.504,310.376 C114.754667,310.530667 114.88,310.741333 114.88,311.008 C114.88,311.669333 114.357333,312 113.312,312 L113.312,312 Z M122.336,316.048 C122.922667,316.048 123.474667,315.981333 123.992,315.848 C124.509333,315.714667 124.96,315.498667 125.344,315.2 C125.728,314.901333 126.032,314.525333 126.256,314.072 C126.48,313.618667 126.592,313.088 126.592,312.48 C126.592,311.872 126.48,311.341333 126.256,310.888 C126.032,310.434667 125.728,310.058667 125.344,309.76 C124.96,309.461333 124.509333,309.237333 123.992,309.088 C123.474667,308.938667 122.922667,308.864 122.336,308.864 C121.749333,308.864 121.197333,308.938667 120.68,309.088 C120.162667,309.237333 119.712,309.461333 119.328,309.76 C118.944,310.058667 118.64,310.434667 118.416,310.888 C118.192,311.341333 118.08,311.872 118.08,312.48 C118.08,313.088 118.192,313.618667 118.416,314.072 C118.64,314.525333 118.944,314.901333 119.328,315.2 C119.712,315.498667 120.162667,315.714667 120.68,315.848 C121.197333,315.981333 121.749333,316.048 122.336,316.048 Z M122.336,314.912 C121.994667,314.912 121.661333,314.856 121.336,314.744 C121.010667,314.632 120.72,314.472 120.464,314.264 C120.208,314.056 120.002667,313.802667 119.848,313.504 C119.693333,313.205333 119.616,312.864 119.616,312.48 C119.616,312.096 119.693333,311.754667 119.848,311.456 C120.002667,311.157333 120.208,310.904 120.464,310.696 C120.72,310.488 121.010667,310.328 121.336,310.216 C121.661333,310.104 121.994667,310.048 122.336,310.048 C122.677333,310.048 123.010667,310.104 123.336,310.216 C123.661333,310.328 123.952,310.488 124.208,310.696 C124.464,310.904 124.669333,311.157333 124.824,311.456 C124.978667,311.754667 125.056,312.096 125.056,312.48 C125.056,312.864 124.978667,313.205333 124.824,313.504 C124.669333,313.802667 124.464,314.056 124.208,314.264 C123.952,314.472 123.661333,314.632 123.336,314.744 C123.010667,314.856 122.677333,314.912 122.336,314.912 Z M130.496,316 L130.496,315.712 C130.272,315.712 130.16,315.632 130.16,315.472 L130.16,315.472 L130.16,310.816 L134.128,315.04 C134.256,315.178667 134.370667,315.301333 134.472,315.408 C134.573333,315.514667 134.624,315.589333 134.624,315.632 C134.624,315.685333 134.586667,315.712 134.512,315.712 L134.512,315.712 L134.512,316 L136.592,316 L136.592,315.712 C136.4,315.712 136.304,315.632 136.304,315.472 L136.304,315.472 L136.304,309.488 C136.304,309.328 136.4,309.248 136.592,309.248 L136.592,309.248 L136.592,308.96 L134.64,308.96 L134.64,309.248 C134.853333,309.248 134.96,309.328 134.96,309.488 L134.96,309.488 L134.96,313.824 L131.12,309.76 C130.885333,309.525333 130.768,309.381333 130.768,309.328 C130.768,309.285333 130.805333,309.258667 130.88,309.248 L130.88,309.248 L130.88,308.96 L128.528,308.96 L128.528,309.248 C128.72,309.248 128.816,309.328 128.816,309.488 L128.816,309.488 L128.816,315.472 C128.816,315.632 128.72,315.712 128.528,315.712 L128.528,315.712 L128.528,316 L130.496,316 Z M142.96,316 L142.96,315.712 C142.768,315.712 142.672,315.632 142.672,315.472 L142.672,315.472 L142.672,310.144 L144.752,310.144 C144.837333,310.144 144.917333,310.165333 144.992,310.208 C145.066667,310.250667 145.104,310.32 145.104,310.416 L145.104,310.416 L145.392,310.416 L145.392,308.576 L145.104,308.576 C145.104,308.725333 145.066667,308.826667 144.992,308.88 C144.917333,308.933333 144.837333,308.96 144.752,308.96 L144.752,308.96 L139.056,308.96 C138.970667,308.96 138.890667,308.933333 138.816,308.88 C138.741333,308.826667 138.704,308.725333 138.704,308.576 L138.704,308.576 L138.416,308.576 L138.416,310.416 L138.704,310.416 C138.704,310.32 138.741333,310.250667 138.816,310.208 C138.890667,310.165333 138.970667,310.144 139.056,310.144 L139.056,310.144 L141.136,310.144 L141.136,315.472 C141.136,315.557333 141.109333,315.618667 141.056,315.656 C141.002667,315.693333 140.949333,315.712 140.896,315.712 L140.896,315.712 L140.896,316 L142.96,316 Z M155.664,316.048 C156.250667,316.048 156.802667,315.981333 157.32,315.848 C157.837333,315.714667 158.288,315.498667 158.672,315.2 C159.056,314.901333 159.36,314.525333 159.584,314.072 C159.808,313.618667 159.92,313.088 159.92,312.48 C159.92,311.872 159.808,311.341333 159.584,310.888 C159.36,310.434667 159.056,310.058667 158.672,309.76 C158.288,309.461333 157.837333,309.237333 157.32,309.088 C156.802667,308.938667 156.250667,308.864 155.664,308.864 C155.077333,308.864 154.525333,308.938667 154.008,309.088 C153.490667,309.237333 153.04,309.461333 152.656,309.76 C152.272,310.058667 151.968,310.434667 151.744,310.888 C151.52,311.341333 151.408,311.872 151.408,312.48 C151.408,313.088 151.52,313.618667 151.744,314.072 C151.968,314.525333 152.272,314.901333 152.656,315.2 C153.04,315.498667 153.490667,315.714667 154.008,315.848 C154.525333,315.981333 155.077333,316.048 155.664,316.048 Z M155.664,314.912 C155.322667,314.912 154.989333,314.856 154.664,314.744 C154.338667,314.632 154.048,314.472 153.792,314.264 C153.536,314.056 153.330667,313.802667 153.176,313.504 C153.021333,313.205333 152.944,312.864 152.944,312.48 C152.944,312.096 153.021333,311.754667 153.176,311.456 C153.330667,311.157333 153.536,310.904 153.792,310.696 C154.048,310.488 154.338667,310.328 154.664,310.216 C154.989333,310.104 155.322667,310.048 155.664,310.048 C156.005333,310.048 156.338667,310.104 156.664,310.216 C156.989333,310.328 157.28,310.488 157.536,310.696 C157.792,310.904 157.997333,311.157333 158.152,311.456 C158.306667,311.754667 158.384,312.096 158.384,312.48 C158.384,312.864 158.306667,313.205333 158.152,313.504 C157.997333,313.802667 157.792,314.056 157.536,314.264 C157.28,314.472 156.989333,314.632 156.664,314.744 C156.338667,314.856 156.005333,314.912 155.664,314.912 Z M164,316 L164,315.712 C163.904,315.712 163.818667,315.693333 163.744,315.656 C163.669333,315.618667 163.632,315.557333 163.632,315.472 L163.632,315.472 L163.632,313.024 L166.448,313.024 C166.629333,313.024 166.741333,313.045333 166.784,313.088 C166.826667,313.130667 166.853333,313.194667 166.864,313.28 L166.864,313.28 L167.152,313.28 L167.152,311.6 L166.864,311.6 C166.853333,311.685333 166.826667,311.746667 166.784,311.784 C166.741333,311.821333 166.629333,311.84 166.448,311.84 L166.448,311.84 L163.632,311.84 L163.632,310.144 L167.968,310.144 C168.149333,310.144 168.277333,310.168 168.352,310.216 C168.426667,310.264 168.464,310.314667 168.464,310.368 L168.464,310.368 L168.752,310.368 L168.752,308.672 L168.464,308.672 C168.464,308.757333 168.426667,308.826667 168.352,308.88 C168.277333,308.933333 168.149333,308.96 167.968,308.96 L167.968,308.96 L161.76,308.96 L161.76,309.248 C161.984,309.248 162.096,309.328 162.096,309.488 L162.096,309.488 L162.096,315.472 C162.096,315.632 161.994667,315.712 161.792,315.712 L161.792,315.712 L161.792,316 L164,316 Z M179.856,316 L179.856,315.712 C179.653333,315.712 179.552,315.632 179.552,315.472 L179.552,315.472 L179.552,313.072 L182,309.904 C182.117333,309.754667 182.253333,309.608 182.408,309.464 C182.562667,309.32 182.704,309.248 182.832,309.248 L182.832,309.248 L182.832,308.96 L180.384,308.96 L180.384,309.248 C180.437333,309.248 180.490667,309.258667 180.544,309.28 C180.597333,309.301333 180.624,309.354667 180.624,309.44 C180.624,309.504 180.6,309.570667 180.552,309.64 C180.504,309.709333 180.432,309.813333 180.336,309.952 L180.336,309.952 L178.912,311.936 L177.296,309.824 C177.242667,309.749333 177.194667,309.685333 177.152,309.632 C177.109333,309.578667 177.088,309.52 177.088,309.456 C177.088,309.392 177.12,309.341333 177.184,309.304 C177.248,309.266667 177.306667,309.248 177.36,309.248 L177.36,309.248 L177.36,308.96 L174.72,308.96 L174.72,309.248 C174.816,309.248 174.917333,309.269333 175.024,309.312 C175.130667,309.354667 175.221333,309.424 175.296,309.52 L175.296,309.52 L178.016,313.008 L178.016,315.472 C178.016,315.632 177.92,315.712 177.728,315.712 L177.728,315.712 L177.728,316 L179.856,316 Z M188.112,316.048 C188.698667,316.048 189.250667,315.981333 189.768,315.848 C190.285333,315.714667 190.736,315.498667 191.12,315.2 C191.504,314.901333 191.808,314.525333 192.032,314.072 C192.256,313.618667 192.368,313.088 192.368,312.48 C192.368,311.872 192.256,311.341333 192.032,310.888 C191.808,310.434667 191.504,310.058667 191.12,309.76 C190.736,309.461333 190.285333,309.237333 189.768,309.088 C189.250667,308.938667 188.698667,308.864 188.112,308.864 C187.525333,308.864 186.973333,308.938667 186.456,309.088 C185.938667,309.237333 185.488,309.461333 185.104,309.76 C184.72,310.058667 184.416,310.434667 184.192,310.888 C183.968,311.341333 183.856,311.872 183.856,312.48 C183.856,313.088 183.968,313.618667 184.192,314.072 C184.416,314.525333 184.72,314.901333 185.104,315.2 C185.488,315.498667 185.938667,315.714667 186.456,315.848 C186.973333,315.981333 187.525333,316.048 188.112,316.048 Z M188.112,314.912 C187.770667,314.912 187.437333,314.856 187.112,314.744 C186.786667,314.632 186.496,314.472 186.24,314.264 C185.984,314.056 185.778667,313.802667 185.624,313.504 C185.469333,313.205333 185.392,312.864 185.392,312.48 C185.392,312.096 185.469333,311.754667 185.624,311.456 C185.778667,311.157333 185.984,310.904 186.24,310.696 C186.496,310.488 186.786667,310.328 187.112,310.216 C187.437333,310.104 187.770667,310.048 188.112,310.048 C188.453333,310.048 188.786667,310.104 189.112,310.216 C189.437333,310.328 189.728,310.488 189.984,310.696 C190.24,310.904 190.445333,311.157333 190.6,311.456 C190.754667,311.754667 190.832,312.096 190.832,312.48 C190.832,312.864 190.754667,313.205333 190.6,313.504 C190.445333,313.802667 190.24,314.056 189.984,314.264 C189.728,314.472 189.437333,314.632 189.112,314.744 C188.786667,314.856 188.453333,314.912 188.112,314.912 Z M198.4,316.048 C199.04,316.048 199.597333,315.981333 200.072,315.848 C200.546667,315.714667 200.936,315.530667 201.24,315.296 C201.544,315.061333 201.770667,314.792 201.92,314.488 C202.069333,314.184 202.144,313.866667 202.144,313.536 L202.144,313.536 L202.144,309.488 C202.144,309.328 202.261333,309.248 202.496,309.248 L202.496,309.248 L202.496,308.96 L200.272,308.96 L200.272,309.248 C200.538667,309.248 200.672,309.328 200.672,309.488 L200.672,309.488 L200.672,313.152 C200.672,313.664 200.485333,314.074667 200.112,314.384 C199.738667,314.693333 199.168,314.848 198.4,314.848 C197.632,314.848 197.061333,314.693333 196.688,314.384 C196.314667,314.074667 196.128,313.664 196.128,313.152 L196.128,313.152 L196.128,309.488 C196.128,309.328 196.245333,309.248 196.48,309.248 L196.48,309.248 L196.48,308.96 L194.192,308.96 L194.192,309.248 C194.373333,309.248 194.496,309.266667 194.56,309.304 C194.624,309.341333 194.656,309.402667 194.656,309.488 L194.656,309.488 L194.656,313.536 C194.656,313.866667 194.730667,314.184 194.88,314.488 C195.029333,314.792 195.256,315.061333 195.56,315.296 C195.864,315.530667 196.253333,315.714667 196.728,315.848 C197.202667,315.981333 197.76,316.048 198.4,316.048 Z M213.616,316 L213.616,315.712 C213.424,315.712 213.328,315.632 213.328,315.472 L213.328,315.472 L213.328,310.144 L215.408,310.144 C215.493333,310.144 215.573333,310.165333 215.648,310.208 C215.722667,310.250667 215.76,310.32 215.76,310.416 L215.76,310.416 L216.048,310.416 L216.048,308.576 L215.76,308.576 C215.76,308.725333 215.722667,308.826667 215.648,308.88 C215.573333,308.933333 215.493333,308.96 215.408,308.96 L215.408,308.96 L209.712,308.96 C209.626667,308.96 209.546667,308.933333 209.472,308.88 C209.397333,308.826667 209.36,308.725333 209.36,308.576 L209.36,308.576 L209.072,308.576 L209.072,310.416 L209.36,310.416 C209.36,310.32 209.397333,310.250667 209.472,310.208 C209.546667,310.165333 209.626667,310.144 209.712,310.144 L209.712,310.144 L211.792,310.144 L211.792,315.472 C211.792,315.557333 211.765333,315.618667 211.712,315.656 C211.658667,315.693333 211.605333,315.712 211.552,315.712 L211.552,315.712 L211.552,316 L213.616,316 Z M221.44,316.048 C222.026667,316.048 222.578667,315.981333 223.096,315.848 C223.613333,315.714667 224.064,315.498667 224.448,315.2 C224.832,314.901333 225.136,314.525333 225.36,314.072 C225.584,313.618667 225.696,313.088 225.696,312.48 C225.696,311.872 225.584,311.341333 225.36,310.888 C225.136,310.434667 224.832,310.058667 224.448,309.76 C224.064,309.461333 223.613333,309.237333 223.096,309.088 C222.578667,308.938667 222.026667,308.864 221.44,308.864 C220.853333,308.864 220.301333,308.938667 219.784,309.088 C219.266667,309.237333 218.816,309.461333 218.432,309.76 C218.048,310.058667 217.744,310.434667 217.52,310.888 C217.296,311.341333 217.184,311.872 217.184,312.48 C217.184,313.088 217.296,313.618667 217.52,314.072 C217.744,314.525333 218.048,314.901333 218.432,315.2 C218.816,315.498667 219.266667,315.714667 219.784,315.848 C220.301333,315.981333 220.853333,316.048 221.44,316.048 Z M221.44,314.912 C221.098667,314.912 220.765333,314.856 220.44,314.744 C220.114667,314.632 219.824,314.472 219.568,314.264 C219.312,314.056 219.106667,313.802667 218.952,313.504 C218.797333,313.205333 218.72,312.864 218.72,312.48 C218.72,312.096 218.797333,311.754667 218.952,311.456 C219.106667,311.157333 219.312,310.904 219.568,310.696 C219.824,310.488 220.114667,310.328 220.44,310.216 C220.765333,310.104 221.098667,310.048 221.44,310.048 C221.781333,310.048 222.114667,310.104 222.44,310.216 C222.765333,310.328 223.056,310.488 223.312,310.696 C223.568,310.904 223.773333,311.157333 223.928,311.456 C224.082667,311.754667 224.16,312.096 224.16,312.48 C224.16,312.864 224.082667,313.205333 223.928,313.504 C223.773333,313.802667 223.568,314.056 223.312,314.264 C223.056,314.472 222.765333,314.632 222.44,314.744 C222.114667,314.856 221.781333,314.912 221.44,314.912 Z M37.664,332 L37.664,331.712 C37.44,331.712 37.328,331.632 37.328,331.472 L37.328,331.472 L37.328,329.072 L40.048,329.072 C40.912,329.072 41.56,328.925333 41.992,328.632 C42.424,328.338667 42.64,327.808 42.64,327.04 C42.64,326.272 42.424,325.733333 41.992,325.424 C41.56,325.114667 40.912,324.96 40.048,324.96 L40.048,324.96 L35.392,324.96 L35.392,325.248 C35.6586667,325.248 35.792,325.328 35.792,325.488 L35.792,325.488 L35.792,331.472 C35.792,331.632 35.6586667,331.712 35.392,331.712 L35.392,331.712 L35.392,332 L37.664,332 Z M40.016,327.888 L37.328,327.888 L37.328,326.144 L40.016,326.144 C40.3253333,326.144 40.584,326.210667 40.792,326.344 C41,326.477333 41.104,326.709333 41.104,327.04 C41.104,327.381333 41,327.608 40.792,327.72 C40.584,327.832 40.3253333,327.888 40.016,327.888 L40.016,327.888 Z M46.592,332 L46.592,331.712 C46.528,331.712 46.4613333,331.693333 46.392,331.656 C46.3226667,331.618667 46.288,331.557333 46.288,331.472 L46.288,331.472 L46.288,329.184 L48.512,329.184 L49.776,331.072 C49.936,331.296 50.016,331.461333 50.016,331.568 C50.016,331.664 49.9466667,331.712 49.808,331.712 L49.808,331.712 L49.808,332 L52.256,332 L52.256,331.712 C52.1386667,331.68 52.0293333,331.634667 51.928,331.576 C51.8266667,331.517333 51.7333333,331.429333 51.648,331.312 L51.648,331.312 L50.08,329.024 C50.304,328.970667 50.5226667,328.893333 50.736,328.792 C50.9493333,328.690667 51.144,328.557333 51.32,328.392 C51.496,328.226667 51.6373333,328.032 51.744,327.808 C51.8506667,327.584 51.904,327.328 51.904,327.04 C51.904,326.282667 51.6373333,325.746667 51.104,325.432 C50.5706667,325.117333 49.8293333,324.96 48.88,324.96 L48.88,324.96 L44.464,324.96 L44.464,325.248 C44.656,325.248 44.752,325.328 44.752,325.488 L44.752,325.488 L44.752,331.472 C44.752,331.632 44.656,331.712 44.464,331.712 L44.464,331.712 L44.464,332 L46.592,332 Z M48.848,328 L46.32,328 L46.32,326.144 L48.848,326.144 C49.392,326.144 49.7893333,326.221333 50.04,326.376 C50.2906667,326.530667 50.416,326.741333 50.416,327.008 C50.416,327.669333 49.8933333,328 48.848,328 L48.848,328 Z M57.872,332.048 C58.4586667,332.048 59.0106667,331.981333 59.528,331.848 C60.0453333,331.714667 60.496,331.498667 60.88,331.2 C61.264,330.901333 61.568,330.525333 61.792,330.072 C62.016,329.618667 62.128,329.088 62.128,328.48 C62.128,327.872 62.016,327.341333 61.792,326.888 C61.568,326.434667 61.264,326.058667 60.88,325.76 C60.496,325.461333 60.0453333,325.237333 59.528,325.088 C59.0106667,324.938667 58.4586667,324.864 57.872,324.864 C57.2853333,324.864 56.7333333,324.938667 56.216,325.088 C55.6986667,325.237333 55.248,325.461333 54.864,325.76 C54.48,326.058667 54.176,326.434667 53.952,326.888 C53.728,327.341333 53.616,327.872 53.616,328.48 C53.616,329.088 53.728,329.618667 53.952,330.072 C54.176,330.525333 54.48,330.901333 54.864,331.2 C55.248,331.498667 55.6986667,331.714667 56.216,331.848 C56.7333333,331.981333 57.2853333,332.048 57.872,332.048 Z M57.872,330.912 C57.5306667,330.912 57.1973333,330.856 56.872,330.744 C56.5466667,330.632 56.256,330.472 56,330.264 C55.744,330.056 55.5386667,329.802667 55.384,329.504 C55.2293333,329.205333 55.152,328.864 55.152,328.48 C55.152,328.096 55.2293333,327.754667 55.384,327.456 C55.5386667,327.157333 55.744,326.904 56,326.696 C56.256,326.488 56.5466667,326.328 56.872,326.216 C57.1973333,326.104 57.5306667,326.048 57.872,326.048 C58.2133333,326.048 58.5466667,326.104 58.872,326.216 C59.1973333,326.328 59.488,326.488 59.744,326.696 C60,326.904 60.2053333,327.157333 60.36,327.456 C60.5146667,327.754667 60.592,328.096 60.592,328.48 C60.592,328.864 60.5146667,329.205333 60.36,329.504 C60.2053333,329.802667 60,330.056 59.744,330.264 C59.488,330.472 59.1973333,330.632 58.872,330.744 C58.5466667,330.856 58.2133333,330.912 57.872,330.912 Z M67.824,332 L67.824,331.712 C67.632,331.712 67.536,331.632 67.536,331.472 L67.536,331.472 L67.536,326.144 L69.616,326.144 C69.7013333,326.144 69.7813333,326.165333 69.856,326.208 C69.9306667,326.250667 69.968,326.32 69.968,326.416 L69.968,326.416 L70.256,326.416 L70.256,324.576 L69.968,324.576 C69.968,324.725333 69.9306667,324.826667 69.856,324.88 C69.7813333,324.933333 69.7013333,324.96 69.616,324.96 L69.616,324.96 L63.92,324.96 C63.8346667,324.96 63.7546667,324.933333 63.68,324.88 C63.6053333,324.826667 63.568,324.725333 63.568,324.576 L63.568,324.576 L63.28,324.576 L63.28,326.416 L63.568,326.416 C63.568,326.32 63.6053333,326.250667 63.68,326.208 C63.7546667,326.165333 63.8346667,326.144 63.92,326.144 L63.92,326.144 L66,326.144 L66,331.472 C66,331.557333 65.9733333,331.618667 65.92,331.656 C65.8666667,331.693333 65.8133333,331.712 65.76,331.712 L65.76,331.712 L65.76,332 L67.824,332 Z M78.688,332.176 L78.688,330.496 L78.4,330.496 C78.4,330.592 78.3573333,330.669333 78.272,330.728 C78.1866667,330.786667 78.08,330.816 77.952,330.816 L77.952,330.816 L73.856,330.816 L73.856,328.928 L76.192,328.928 C76.4053333,328.928 76.5706667,328.941333 76.688,328.968 C76.8053333,328.994667 76.848,329.066667 76.816,329.184 L76.816,329.184 L77.136,329.184 L77.136,327.488 L76.848,327.488 C76.848,327.605333 76.8053333,327.677333 76.72,327.704 C76.6346667,327.730667 76.5013333,327.744 76.32,327.744 L76.32,327.744 L73.856,327.744 L73.856,326.144 L77.76,326.144 C78.0906667,326.144 78.256,326.245333 78.256,326.448 L78.256,326.448 L78.544,326.448 L78.544,324.672 L78.256,324.672 C78.256,324.864 78.0906667,324.96 77.76,324.96 L77.76,324.96 L72.08,324.96 L72.08,325.248 C72.1333333,325.248 72.1866667,325.266667 72.24,325.304 C72.2933333,325.341333 72.32,325.402667 72.32,325.488 L72.32,325.488 L72.32,331.472 C72.32,331.557333 72.2933333,331.618667 72.24,331.656 C72.1866667,331.693333 72.1333333,331.712 72.08,331.712 L72.08,331.712 L72.08,332 L77.952,332 C78.08,332 78.1866667,332.005333 78.272,332.016 C78.3573333,332.026667 78.4,332.08 78.4,332.176 L78.4,332.176 L78.688,332.176 Z M84.176,332.048 C84.656,332.048 85.0906667,332.005333 85.48,331.92 C85.8693333,331.834667 86.2106667,331.730667 86.504,331.608 C86.7973333,331.485333 87.04,331.376 87.232,331.28 C87.424,331.184 87.5626667,331.136 87.648,331.136 C87.7013333,331.136 87.792,331.162667 87.92,331.216 L87.92,331.216 L88.08,331.136 L86.896,329.44 L86.72,329.6 C86.7306667,329.642667 86.736,329.696 86.736,329.76 L86.736,329.76 L86.736,329.888 C86.736,329.984 86.6586667,330.090667 86.504,330.208 C86.3493333,330.325333 86.1493333,330.434667 85.904,330.536 C85.6586667,330.637333 85.3866667,330.725333 85.088,330.8 C84.7893333,330.874667 84.496,330.912 84.208,330.912 C83.8986667,330.912 83.5946667,330.856 83.296,330.744 C82.9973333,330.632 82.7306667,330.466667 82.496,330.248 C82.2613333,330.029333 82.072,329.768 81.928,329.464 C81.784,329.16 81.712,328.816 81.712,328.432 C81.712,328.048 81.776,327.706667 81.904,327.408 C82.032,327.109333 82.2133333,326.858667 82.448,326.656 C82.6826667,326.453333 82.9573333,326.301333 83.272,326.2 C83.5866667,326.098667 83.936,326.048 84.32,326.048 C84.64,326.048 84.9333333,326.077333 85.2,326.136 C85.4666667,326.194667 85.6986667,326.266667 85.896,326.352 C86.0933333,326.437333 86.2453333,326.525333 86.352,326.616 C86.4586667,326.706667 86.512,326.778667 86.512,326.832 C86.512,326.864 86.5146667,326.890667 86.52,326.912 C86.5253333,326.933333 86.528,326.954667 86.528,326.976 L86.528,326.976 L86.704,327.104 L87.76,325.584 L87.568,325.472 C87.5253333,325.493333 87.4853333,325.52 87.448,325.552 C87.4106667,325.584 87.3653333,325.6 87.312,325.6 C87.2373333,325.6 87.1146667,325.562667 86.944,325.488 C86.7733333,325.413333 86.56,325.328 86.304,325.232 C86.048,325.136 85.752,325.050667 85.416,324.976 C85.08,324.901333 84.7093333,324.864 84.304,324.864 C83.7813333,324.864 83.272,324.938667 82.776,325.088 C82.28,325.237333 81.84,325.464 81.456,325.768 C81.072,326.072 80.7626667,326.448 80.528,326.896 C80.2933333,327.344 80.176,327.866667 80.176,328.464 C80.176,329.061333 80.2933333,329.586667 80.528,330.04 C80.7626667,330.493333 81.0666667,330.872 81.44,331.176 C81.8133333,331.48 82.24,331.701333 82.72,331.84 C83.2,331.978667 83.6853333,332.048 84.176,332.048 Z M93.616,332 L93.616,331.712 C93.424,331.712 93.328,331.632 93.328,331.472 L93.328,331.472 L93.328,326.144 L95.408,326.144 C95.4933333,326.144 95.5733333,326.165333 95.648,326.208 C95.7226667,326.250667 95.76,326.32 95.76,326.416 L95.76,326.416 L96.048,326.416 L96.048,324.576 L95.76,324.576 C95.76,324.725333 95.7226667,324.826667 95.648,324.88 C95.5733333,324.933333 95.4933333,324.96 95.408,324.96 L95.408,324.96 L89.712,324.96 C89.6266667,324.96 89.5466667,324.933333 89.472,324.88 C89.3973333,324.826667 89.36,324.725333 89.36,324.576 L89.36,324.576 L89.072,324.576 L89.072,326.416 L89.36,326.416 C89.36,326.32 89.3973333,326.250667 89.472,326.208 C89.5466667,326.165333 89.6266667,326.144 89.712,326.144 L89.712,326.144 L91.792,326.144 L91.792,331.472 C91.792,331.557333 91.7653333,331.618667 91.712,331.656 C91.6586667,331.693333 91.6053333,331.712 91.552,331.712 L91.552,331.712 L91.552,332 L93.616,332 Z M104.88,332 L104.88,331.712 C104.784,331.712 104.698667,331.693333 104.624,331.656 C104.549333,331.618667 104.512,331.557333 104.512,331.472 L104.512,331.472 L104.512,329.024 L107.328,329.024 C107.509333,329.024 107.621333,329.045333 107.664,329.088 C107.706667,329.130667 107.733333,329.194667 107.744,329.28 L107.744,329.28 L108.032,329.28 L108.032,327.6 L107.744,327.6 C107.733333,327.685333 107.706667,327.746667 107.664,327.784 C107.621333,327.821333 107.509333,327.84 107.328,327.84 L107.328,327.84 L104.512,327.84 L104.512,326.144 L108.848,326.144 C109.029333,326.144 109.157333,326.168 109.232,326.216 C109.306667,326.264 109.344,326.314667 109.344,326.368 L109.344,326.368 L109.632,326.368 L109.632,324.672 L109.344,324.672 C109.344,324.757333 109.306667,324.826667 109.232,324.88 C109.157333,324.933333 109.029333,324.96 108.848,324.96 L108.848,324.96 L102.64,324.96 L102.64,325.248 C102.864,325.248 102.976,325.328 102.976,325.488 L102.976,325.488 L102.976,331.472 C102.976,331.632 102.874667,331.712 102.672,331.712 L102.672,331.712 L102.672,332 L104.88,332 Z M113.712,332 L113.712,331.712 C113.648,331.712 113.581333,331.693333 113.512,331.656 C113.442667,331.618667 113.408,331.557333 113.408,331.472 L113.408,331.472 L113.408,329.184 L115.632,329.184 L116.896,331.072 C117.056,331.296 117.136,331.461333 117.136,331.568 C117.136,331.664 117.066667,331.712 116.928,331.712 L116.928,331.712 L116.928,332 L119.376,332 L119.376,331.712 C119.258667,331.68 119.149333,331.634667 119.048,331.576 C118.946667,331.517333 118.853333,331.429333 118.768,331.312 L118.768,331.312 L117.2,329.024 C117.424,328.970667 117.642667,328.893333 117.856,328.792 C118.069333,328.690667 118.264,328.557333 118.44,328.392 C118.616,328.226667 118.757333,328.032 118.864,327.808 C118.970667,327.584 119.024,327.328 119.024,327.04 C119.024,326.282667 118.757333,325.746667 118.224,325.432 C117.690667,325.117333 116.949333,324.96 116,324.96 L116,324.96 L111.584,324.96 L111.584,325.248 C111.776,325.248 111.872,325.328 111.872,325.488 L111.872,325.488 L111.872,331.472 C111.872,331.632 111.776,331.712 111.584,331.712 L111.584,331.712 L111.584,332 L113.712,332 Z M115.968,328 L113.44,328 L113.44,326.144 L115.968,326.144 C116.512,326.144 116.909333,326.221333 117.16,326.376 C117.410667,326.530667 117.536,326.741333 117.536,327.008 C117.536,327.669333 117.013333,328 115.968,328 L115.968,328 Z M124.992,332.048 C125.578667,332.048 126.130667,331.981333 126.648,331.848 C127.165333,331.714667 127.616,331.498667 128,331.2 C128.384,330.901333 128.688,330.525333 128.912,330.072 C129.136,329.618667 129.248,329.088 129.248,328.48 C129.248,327.872 129.136,327.341333 128.912,326.888 C128.688,326.434667 128.384,326.058667 128,325.76 C127.616,325.461333 127.165333,325.237333 126.648,325.088 C126.130667,324.938667 125.578667,324.864 124.992,324.864 C124.405333,324.864 123.853333,324.938667 123.336,325.088 C122.818667,325.237333 122.368,325.461333 121.984,325.76 C121.6,326.058667 121.296,326.434667 121.072,326.888 C120.848,327.341333 120.736,327.872 120.736,328.48 C120.736,329.088 120.848,329.618667 121.072,330.072 C121.296,330.525333 121.6,330.901333 121.984,331.2 C122.368,331.498667 122.818667,331.714667 123.336,331.848 C123.853333,331.981333 124.405333,332.048 124.992,332.048 Z M124.992,330.912 C124.650667,330.912 124.317333,330.856 123.992,330.744 C123.666667,330.632 123.376,330.472 123.12,330.264 C122.864,330.056 122.658667,329.802667 122.504,329.504 C122.349333,329.205333 122.272,328.864 122.272,328.48 C122.272,328.096 122.349333,327.754667 122.504,327.456 C122.658667,327.157333 122.864,326.904 123.12,326.696 C123.376,326.488 123.666667,326.328 123.992,326.216 C124.317333,326.104 124.650667,326.048 124.992,326.048 C125.333333,326.048 125.666667,326.104 125.992,326.216 C126.317333,326.328 126.608,326.488 126.864,326.696 C127.12,326.904 127.325333,327.157333 127.48,327.456 C127.634667,327.754667 127.712,328.096 127.712,328.48 C127.712,328.864 127.634667,329.205333 127.48,329.504 C127.325333,329.802667 127.12,330.056 126.864,330.264 C126.608,330.472 126.317333,330.632 125.992,330.744 C125.666667,330.856 125.333333,330.912 124.992,330.912 Z M133.184,332 L133.184,331.712 C133.002667,331.712 132.912,331.632 132.912,331.472 L132.912,331.472 L132.912,326.976 L132.928,326.976 L135.504,332 L135.632,332 L138.352,326.976 L138.384,326.976 L138.384,331.472 C138.416,331.632 138.32,331.712 138.096,331.712 L138.096,331.712 L138.096,332 L139.952,332 L139.952,331.712 C139.898667,331.712 139.848,331.693333 139.8,331.656 C139.752,331.618667 139.728,331.557333 139.728,331.472 L139.728,331.472 L139.728,325.456 C139.728,325.370667 139.752,325.314667 139.8,325.288 C139.848,325.261333 139.898667,325.248 139.952,325.248 L139.952,325.248 L139.952,324.96 L137.696,324.96 L137.696,325.248 C137.781333,325.248 137.824,325.296 137.824,325.392 C137.824,325.424 137.802667,325.48 137.76,325.56 C137.717333,325.64 137.658667,325.744 137.584,325.872 L137.584,325.872 L135.616,329.456 L133.664,325.856 C133.589333,325.728 133.533333,325.629333 133.496,325.56 C133.458667,325.490667 133.44,325.434667 133.44,325.392 C133.44,325.296 133.493333,325.248 133.6,325.248 L133.6,325.248 L133.6,324.96 L131.376,324.96 L131.376,325.248 C131.450667,325.248 131.501333,325.264 131.528,325.296 C131.554667,325.328 131.568,325.418667 131.568,325.568 L131.568,325.568 L131.568,331.424 C131.568,331.541333 131.549333,331.616 131.512,331.648 C131.474667,331.68 131.429333,331.701333 131.376,331.712 L131.376,331.712 L131.376,332 L133.184,332 Z M155.984,332.304 L155.984,330.112 L155.696,330.112 C155.696,330.24 155.645333,330.341333 155.544,330.416 C155.442667,330.490667 155.312,330.528 155.152,330.528 L155.152,330.528 L149.808,330.528 L149.808,328.32 L152.944,328.32 C153.157333,328.32 153.322667,328.354667 153.44,328.424 C153.557333,328.493333 153.616,328.650667 153.616,328.896 L153.616,328.896 L153.904,328.896 L153.904,326.4 L153.616,326.4 C153.616,326.645333 153.557333,326.797333 153.44,326.856 C153.322667,326.914667 153.157333,326.944 152.944,326.944 L152.944,326.944 L149.808,326.944 L149.808,324.96 L154.992,324.96 C155.216,324.96 155.373333,324.989333 155.464,325.048 C155.554667,325.106667 155.6,325.194667 155.6,325.312 L155.6,325.312 L155.888,325.312 L155.888,323.2 L155.6,323.2 C155.6,323.317333 155.554667,323.410667 155.464,323.48 C155.373333,323.549333 155.216,323.584 154.992,323.584 L154.992,323.584 L147.696,323.584 L147.696,323.872 C147.770667,323.872 147.837333,323.896 147.896,323.944 C147.954667,323.992 147.984,324.064 147.984,324.16 L147.984,324.16 L147.984,331.424 C147.984,331.52 147.954667,331.592 147.896,331.64 C147.837333,331.688 147.770667,331.712 147.696,331.712 L147.696,331.712 L147.696,332 L155.152,332 C155.312,332 155.442667,332.010667 155.544,332.032 C155.645333,332.053333 155.696,332.144 155.696,332.304 L155.696,332.304 L155.984,332.304 Z M159.936,332 L159.936,331.712 C159.84,331.712 159.792,331.674667 159.792,331.6 C159.792,331.525333 159.866667,331.397333 160.016,331.216 L160.016,331.216 L161.376,329.552 L162.768,331.264 C162.885333,331.445333 162.944,331.552 162.944,331.584 C162.944,331.658667 162.906667,331.701333 162.832,331.712 L162.832,331.712 L162.832,332 L165.28,332 L165.28,331.712 C165.12,331.712 164.981333,331.637333 164.864,331.488 C164.746667,331.338667 164.645333,331.216 164.56,331.12 L164.56,331.12 L162.336,328.32 L164.752,325.408 C164.858667,325.301333 164.997333,325.248 165.168,325.248 L165.168,325.248 L165.168,324.96 L162.72,324.96 L162.72,325.248 C162.858667,325.248 162.928,325.290667 162.928,325.376 C162.928,325.461333 162.842667,325.605333 162.672,325.808 L162.672,325.808 L161.456,327.296 L160.336,325.936 C160.24,325.818667 160.16,325.717333 160.096,325.632 C160.032,325.546667 160,325.477333 160,325.424 C160,325.306667 160.064,325.248 160.192,325.248 L160.192,325.248 L160.192,324.96 L157.68,324.96 L157.68,325.248 C157.754667,325.248 157.84,325.282667 157.936,325.352 C158.032,325.421333 158.154667,325.546667 158.304,325.728 L158.304,325.728 L160.512,328.48 L158.08,331.472 C158.005333,331.568 157.922667,331.632 157.832,331.664 C157.741333,331.696 157.664,331.712 157.6,331.712 L157.6,331.712 L157.6,332 L159.936,332 Z M169.232,332 L169.232,331.712 C169.008,331.712 168.896,331.632 168.896,331.472 L168.896,331.472 L168.896,329.072 L171.616,329.072 C172.48,329.072 173.128,328.925333 173.56,328.632 C173.992,328.338667 174.208,327.808 174.208,327.04 C174.208,326.272 173.992,325.733333 173.56,325.424 C173.128,325.114667 172.48,324.96 171.616,324.96 L171.616,324.96 L166.96,324.96 L166.96,325.248 C167.226667,325.248 167.36,325.328 167.36,325.488 L167.36,325.488 L167.36,331.472 C167.36,331.632 167.226667,331.712 166.96,331.712 L166.96,331.712 L166.96,332 L169.232,332 Z M171.584,327.888 L168.896,327.888 L168.896,326.144 L171.584,326.144 C171.893333,326.144 172.152,326.210667 172.36,326.344 C172.568,326.477333 172.672,326.709333 172.672,327.04 C172.672,327.381333 172.568,327.608 172.36,327.72 C172.152,327.832 171.893333,327.888 171.584,327.888 L171.584,327.888 Z M179.664,332.048 C180.250667,332.048 180.802667,331.981333 181.32,331.848 C181.837333,331.714667 182.288,331.498667 182.672,331.2 C183.056,330.901333 183.36,330.525333 183.584,330.072 C183.808,329.618667 183.92,329.088 183.92,328.48 C183.92,327.872 183.808,327.341333 183.584,326.888 C183.36,326.434667 183.056,326.058667 182.672,325.76 C182.288,325.461333 181.837333,325.237333 181.32,325.088 C180.802667,324.938667 180.250667,324.864 179.664,324.864 C179.077333,324.864 178.525333,324.938667 178.008,325.088 C177.490667,325.237333 177.04,325.461333 176.656,325.76 C176.272,326.058667 175.968,326.434667 175.744,326.888 C175.52,327.341333 175.408,327.872 175.408,328.48 C175.408,329.088 175.52,329.618667 175.744,330.072 C175.968,330.525333 176.272,330.901333 176.656,331.2 C177.04,331.498667 177.490667,331.714667 178.008,331.848 C178.525333,331.981333 179.077333,332.048 179.664,332.048 Z M179.664,330.912 C179.322667,330.912 178.989333,330.856 178.664,330.744 C178.338667,330.632 178.048,330.472 177.792,330.264 C177.536,330.056 177.330667,329.802667 177.176,329.504 C177.021333,329.205333 176.944,328.864 176.944,328.48 C176.944,328.096 177.021333,327.754667 177.176,327.456 C177.330667,327.157333 177.536,326.904 177.792,326.696 C178.048,326.488 178.338667,326.328 178.664,326.216 C178.989333,326.104 179.322667,326.048 179.664,326.048 C180.005333,326.048 180.338667,326.104 180.664,326.216 C180.989333,326.328 181.28,326.488 181.536,326.696 C181.792,326.904 181.997333,327.157333 182.152,327.456 C182.306667,327.754667 182.384,328.096 182.384,328.48 C182.384,328.864 182.306667,329.205333 182.152,329.504 C181.997333,329.802667 181.792,330.056 181.536,330.264 C181.28,330.472 180.989333,330.632 180.664,330.744 C180.338667,330.856 180.005333,330.912 179.664,330.912 Z M188.88,332.048 C189.242667,332.048 189.629333,332.021333 190.04,331.968 C190.450667,331.914667 190.826667,331.802667 191.168,331.632 C191.509333,331.461333 191.794667,331.226667 192.024,330.928 C192.253333,330.629333 192.368,330.245333 192.368,329.776 C192.368,329.306667 192.237333,328.938667 191.976,328.672 C191.714667,328.405333 191.386667,328.202667 190.992,328.064 C190.597333,327.925333 190.170667,327.826667 189.712,327.768 C189.253333,327.709333 188.826667,327.650667 188.432,327.592 C188.037333,327.533333 187.709333,327.453333 187.448,327.352 C187.186667,327.250667 187.056,327.082667 187.056,326.848 C187.056,326.698667 187.098667,326.573333 187.184,326.472 C187.269333,326.370667 187.386667,326.288 187.536,326.224 C187.685333,326.16 187.856,326.114667 188.048,326.088 C188.24,326.061333 188.442667,326.048 188.656,326.048 C189.210667,326.048 189.712,326.112 190.16,326.24 C190.608,326.368 190.938667,326.522667 191.152,326.704 C191.237333,326.768 191.285333,326.832 191.296,326.896 C191.306667,326.96 191.317333,327.024 191.328,327.088 L191.328,327.088 L191.616,327.184 L192.416,325.68 L192.24,325.504 C192.176,325.536 192.122667,325.565333 192.08,325.592 C192.037333,325.618667 191.973333,325.632 191.888,325.632 C191.813333,325.632 191.698667,325.592 191.544,325.512 C191.389333,325.432 191.189333,325.344 190.944,325.248 C190.698667,325.152 190.397333,325.064 190.04,324.984 C189.682667,324.904 189.253333,324.864 188.752,324.864 C187.728,324.864 186.933333,325.066667 186.368,325.472 C185.802667,325.877333 185.52,326.421333 185.52,327.104 C185.52,327.562667 185.650667,327.917333 185.912,328.168 C186.173333,328.418667 186.501333,328.610667 186.896,328.744 C187.290667,328.877333 187.717333,328.973333 188.176,329.032 C188.634667,329.090667 189.061333,329.149333 189.456,329.208 C189.850667,329.266667 190.178667,329.349333 190.44,329.456 C190.701333,329.562667 190.832,329.733333 190.832,329.968 C190.832,330.170667 190.757333,330.333333 190.608,330.456 C190.458667,330.578667 190.277333,330.674667 190.064,330.744 C189.850667,330.813333 189.634667,330.858667 189.416,330.88 C189.197333,330.901333 189.013333,330.912 188.864,330.912 C188.704,330.912 188.482667,330.885333 188.2,330.832 C187.917333,330.778667 187.634667,330.706667 187.352,330.616 C187.069333,330.525333 186.826667,330.413333 186.624,330.28 C186.421333,330.146667 186.32,330 186.32,329.84 C186.32,329.786667 186.322667,329.736 186.328,329.688 C186.333333,329.64 186.336,329.594667 186.336,329.552 L186.336,329.552 L186.032,329.472 L185.296,331.264 L185.52,331.424 C185.573333,331.36 185.637333,331.328 185.712,331.328 C185.754667,331.328 185.877333,331.368 186.08,331.448 C186.282667,331.528 186.530667,331.613333 186.824,331.704 C187.117333,331.794667 187.442667,331.874667 187.8,331.944 C188.157333,332.013333 188.517333,332.048 188.88,332.048 Z M198.848,332.048 C199.488,332.048 200.045333,331.981333 200.52,331.848 C200.994667,331.714667 201.384,331.530667 201.688,331.296 C201.992,331.061333 202.218667,330.792 202.368,330.488 C202.517333,330.184 202.592,329.866667 202.592,329.536 L202.592,329.536 L202.592,325.488 C202.592,325.328 202.709333,325.248 202.944,325.248 L202.944,325.248 L202.944,324.96 L200.72,324.96 L200.72,325.248 C200.986667,325.248 201.12,325.328 201.12,325.488 L201.12,325.488 L201.12,329.152 C201.12,329.664 200.933333,330.074667 200.56,330.384 C200.186667,330.693333 199.616,330.848 198.848,330.848 C198.08,330.848 197.509333,330.693333 197.136,330.384 C196.762667,330.074667 196.576,329.664 196.576,329.152 L196.576,329.152 L196.576,325.488 C196.576,325.328 196.693333,325.248 196.928,325.248 L196.928,325.248 L196.928,324.96 L194.64,324.96 L194.64,325.248 C194.821333,325.248 194.944,325.266667 195.008,325.304 C195.072,325.341333 195.104,325.402667 195.104,325.488 L195.104,325.488 L195.104,329.536 C195.104,329.866667 195.178667,330.184 195.328,330.488 C195.477333,330.792 195.704,331.061333 196.008,331.296 C196.312,331.530667 196.701333,331.714667 197.176,331.848 C197.650667,331.981333 198.208,332.048 198.848,332.048 Z M207.504,332 L207.504,331.712 C207.44,331.712 207.373333,331.693333 207.304,331.656 C207.234667,331.618667 207.2,331.557333 207.2,331.472 L207.2,331.472 L207.2,329.184 L209.424,329.184 L210.688,331.072 C210.848,331.296 210.928,331.461333 210.928,331.568 C210.928,331.664 210.858667,331.712 210.72,331.712 L210.72,331.712 L210.72,332 L213.168,332 L213.168,331.712 C213.050667,331.68 212.941333,331.634667 212.84,331.576 C212.738667,331.517333 212.645333,331.429333 212.56,331.312 L212.56,331.312 L210.992,329.024 C211.216,328.970667 211.434667,328.893333 211.648,328.792 C211.861333,328.690667 212.056,328.557333 212.232,328.392 C212.408,328.226667 212.549333,328.032 212.656,327.808 C212.762667,327.584 212.816,327.328 212.816,327.04 C212.816,326.282667 212.549333,325.746667 212.016,325.432 C211.482667,325.117333 210.741333,324.96 209.792,324.96 L209.792,324.96 L205.376,324.96 L205.376,325.248 C205.568,325.248 205.664,325.328 205.664,325.488 L205.664,325.488 L205.664,331.472 C205.664,331.632 205.568,331.712 205.376,331.712 L205.376,331.712 L205.376,332 L207.504,332 Z M209.76,328 L207.232,328 L207.232,326.144 L209.76,326.144 C210.304,326.144 210.701333,326.221333 210.952,326.376 C211.202667,326.530667 211.328,326.741333 211.328,327.008 C211.328,327.669333 210.805333,328 209.76,328 L209.76,328 Z M221.824,332.176 L221.824,330.496 L221.536,330.496 C221.536,330.592 221.493333,330.669333 221.408,330.728 C221.322667,330.786667 221.216,330.816 221.088,330.816 L221.088,330.816 L216.992,330.816 L216.992,328.928 L219.328,328.928 C219.541333,328.928 219.706667,328.941333 219.824,328.968 C219.941333,328.994667 219.984,329.066667 219.952,329.184 L219.952,329.184 L220.272,329.184 L220.272,327.488 L219.984,327.488 C219.984,327.605333 219.941333,327.677333 219.856,327.704 C219.770667,327.730667 219.637333,327.744 219.456,327.744 L219.456,327.744 L216.992,327.744 L216.992,326.144 L220.896,326.144 C221.226667,326.144 221.392,326.245333 221.392,326.448 L221.392,326.448 L221.68,326.448 L221.68,324.672 L221.392,324.672 C221.392,324.864 221.226667,324.96 220.896,324.96 L220.896,324.96 L215.216,324.96 L215.216,325.248 C215.269333,325.248 215.322667,325.266667 215.376,325.304 C215.429333,325.341333 215.456,325.402667 215.456,325.488 L215.456,325.488 L215.456,331.472 C215.456,331.557333 215.429333,331.618667 215.376,331.656 C215.322667,331.693333 215.269333,331.712 215.216,331.712 L215.216,331.712 L215.216,332 L221.088,332 C221.216,332 221.322667,332.005333 221.408,332.016 C221.493333,332.026667 221.536,332.08 221.536,332.176 L221.536,332.176 L221.824,332.176 Z M225.232,332.048 C225.541333,332.048 225.808,331.944 226.032,331.736 C226.256,331.528 226.368,331.269333 226.368,330.96 C226.368,330.650667 226.256,330.384 226.032,330.16 C225.808,329.936 225.541333,329.824 225.232,329.824 C224.922667,329.824 224.656,329.936 224.432,330.16 C224.208,330.384 224.096,330.650667 224.096,330.96 C224.096,331.269333 224.208,331.528 224.432,331.736 C224.656,331.944 224.922667,332.048 225.232,332.048 Z" id="MUST...WIPE...EVERYTHING!KeepinfrontofyoutoprotectfromExposure." fill="#000000" fill-rule="nonzero"></path>
        <path d="M49.888,52 L49.888,51.568 C49.584,51.568 49.432,51.48 49.432,51.304 C49.432,51.16 49.512,50.92 49.672,50.584 L49.672,50.584 L50.536,48.88 L56.392,48.88 L57.304,50.656 C57.432,50.912 57.496,51.12 57.496,51.28 C57.496,51.376 57.448,51.448 57.352,51.496 C57.256,51.544 57.176,51.568 57.112,51.568 L57.112,51.568 L57.112,52 L61.336,52 L61.336,51.568 C61.16,51.488 61.004,51.408 60.868,51.328 C60.732,51.248 60.624,51.12 60.544,50.944 L60.544,50.944 L55.552,41.176 C55.44,40.968 55.356,40.8 55.3,40.672 C55.244,40.544 55.216,40.416 55.216,40.288 C55.216,40.112 55.272,39.996 55.384,39.94 C55.496,39.884 55.608,39.84 55.72,39.808 L55.72,39.808 L55.72,39.376 L51.664,39.376 L51.664,39.808 C51.792,39.84 51.912,39.888 52.024,39.952 C52.136,40.016 52.192,40.128 52.192,40.288 C52.192,40.416 52.148,40.568 52.06,40.744 C51.972,40.92 51.872,41.112 51.76,41.32 L51.76,41.32 L47.32,50.656 C47.208,50.88 47.092,51.08 46.972,51.256 C46.852,51.432 46.688,51.536 46.48,51.568 L46.48,51.568 L46.48,52 L49.888,52 Z M55.528,47.104 L51.256,47.104 L53.512,42.64 L55.528,47.104 Z M66.88,52 L66.88,51.568 C66.544,51.568 66.376,51.448 66.376,51.208 L66.376,51.208 L66.376,44.224 L72.328,50.56 C72.52,50.768 72.692,50.952 72.844,51.112 C72.996,51.272 73.072,51.384 73.072,51.448 C73.072,51.528 73.016,51.568 72.904,51.568 L72.904,51.568 L72.904,52 L76.024,52 L76.024,51.568 C75.736,51.568 75.592,51.448 75.592,51.208 L75.592,51.208 L75.592,42.232 C75.592,41.992 75.736,41.872 76.024,41.872 L76.024,41.872 L76.024,41.44 L73.096,41.44 L73.096,41.872 C73.416,41.872 73.576,41.992 73.576,42.232 L73.576,42.232 L73.576,48.736 L67.816,42.64 C67.464,42.288 67.288,42.072 67.288,41.992 C67.288,41.928 67.344,41.888 67.456,41.872 L67.456,41.872 L67.456,41.44 L63.928,41.44 L63.928,41.872 C64.216,41.872 64.36,41.992 64.36,42.232 L64.36,42.232 L64.36,51.208 C64.36,51.448 64.216,51.568 63.928,51.568 L63.928,51.568 L63.928,52 L66.88,52 Z M85.576,52 L85.576,51.568 C85.288,51.568 85.144,51.448 85.144,51.208 L85.144,51.208 L85.144,43.216 L88.264,43.216 C88.392,43.216 88.512,43.248 88.624,43.312 C88.736,43.376 88.792,43.48 88.792,43.624 L88.792,43.624 L89.224,43.624 L89.224,40.864 L88.792,40.864 C88.792,41.088 88.736,41.24 88.624,41.32 C88.512,41.4 88.392,41.44 88.264,41.44 L88.264,41.44 L79.72,41.44 C79.592,41.44 79.472,41.4 79.36,41.32 C79.248,41.24 79.192,41.088 79.192,40.864 L79.192,40.864 L78.76,40.864 L78.76,43.624 L79.192,43.624 C79.192,43.48 79.248,43.376 79.36,43.312 C79.472,43.248 79.592,43.216 79.72,43.216 L79.72,43.216 L82.84,43.216 L82.84,51.208 C82.84,51.336 82.8,51.428 82.72,51.484 C82.64,51.54 82.56,51.568 82.48,51.568 L82.48,51.568 L82.48,52 L85.576,52 Z M95.8,52 L95.8,51.568 C95.352,51.568 95.128,51.448 95.128,51.208 L95.128,51.208 L95.128,42.232 C95.128,41.992 95.352,41.872 95.8,41.872 L95.8,41.872 L95.8,41.44 L92.152,41.44 L92.152,41.872 C92.408,41.872 92.584,41.9 92.68,41.956 C92.776,42.012 92.824,42.104 92.824,42.232 L92.824,42.232 L92.824,51.208 C92.824,51.336 92.776,51.428 92.68,51.484 C92.584,51.54 92.408,51.568 92.152,51.568 L92.152,51.568 L92.152,52 L95.8,52 Z M107.032,52 C107.736,52 108.34,51.924 108.844,51.772 C109.348,51.62 109.756,51.416 110.068,51.16 C110.38,50.904 110.608,50.608 110.752,50.272 C110.896,49.936 110.968,49.576 110.968,49.192 C110.968,48.856 110.912,48.544 110.8,48.256 C110.688,47.968 110.544,47.712 110.368,47.488 C110.192,47.264 109.992,47.072 109.768,46.912 C109.544,46.752 109.32,46.624 109.096,46.528 L109.096,46.528 L109.096,46.504 C109.288,46.408 109.476,46.28 109.66,46.12 C109.844,45.96 110.012,45.78 110.164,45.58 C110.316,45.38 110.44,45.156 110.536,44.908 C110.632,44.66 110.68,44.392 110.68,44.104 C110.68,43.752 110.608,43.416 110.464,43.096 C110.32,42.776 110.1,42.492 109.804,42.244 C109.508,41.996 109.14,41.8 108.7,41.656 C108.26,41.512 107.736,41.44 107.128,41.44 L107.128,41.44 L99.664,41.44 L99.664,41.872 C99.792,41.872 99.916,41.9 100.036,41.956 C100.156,42.012 100.216,42.104 100.216,42.232 L100.216,42.232 L100.216,51.208 C100.216,51.336 100.156,51.428 100.036,51.484 C99.916,51.54 99.792,51.568 99.664,51.568 L99.664,51.568 L99.664,52 L107.032,52 Z M106.792,45.616 L102.52,45.616 L102.52,43.216 L106.792,43.216 C106.984,43.216 107.176,43.228 107.368,43.252 C107.56,43.276 107.728,43.332 107.872,43.42 C108.016,43.508 108.136,43.628 108.232,43.78 C108.328,43.932 108.376,44.136 108.376,44.392 C108.376,44.888 108.208,45.216 107.872,45.376 C107.536,45.536 107.176,45.616 106.792,45.616 L106.792,45.616 Z M106.744,50.224 L102.52,50.224 L102.52,47.392 L106.36,47.392 C107.192,47.392 107.784,47.512 108.136,47.752 C108.488,47.992 108.664,48.36 108.664,48.856 C108.664,49.288 108.528,49.624 108.256,49.864 C107.984,50.104 107.48,50.224 106.744,50.224 L106.744,50.224 Z M116.224,52 L116.224,51.568 C116.08,51.568 115.968,51.552 115.888,51.52 C115.808,51.488 115.768,51.408 115.768,51.28 C115.768,51.2 115.788,51.108 115.828,51.004 C115.868,50.9 115.92,50.784 115.984,50.656 L115.984,50.656 L116.656,49.36 L121.792,49.36 L122.44,50.728 C122.488,50.856 122.528,50.96 122.56,51.04 C122.592,51.12 122.608,51.208 122.608,51.304 C122.608,51.432 122.564,51.52 122.476,51.568 C122.388,51.616 122.304,51.64 122.224,51.64 L122.224,51.64 L122.224,52 L125.632,52 L125.632,51.568 C125.52,51.536 125.416,51.488 125.32,51.424 C125.224,51.36 125.136,51.256 125.056,51.112 L125.056,51.112 L121.168,42.952 C121.088,42.776 121.012,42.62 120.94,42.484 C120.868,42.348 120.832,42.232 120.832,42.136 C120.832,42.024 120.86,41.96 120.916,41.944 C120.972,41.928 121.024,41.904 121.072,41.872 L121.072,41.872 L121.072,41.44 L117.448,41.44 L117.448,41.872 C117.496,41.904 117.54,41.932 117.58,41.956 C117.62,41.98 117.64,42.04 117.64,42.136 C117.64,42.264 117.612,42.396 117.556,42.532 C117.5,42.668 117.424,42.848 117.328,43.072 L117.328,43.072 L113.752,50.872 C113.688,51 113.596,51.14 113.476,51.292 C113.356,51.444 113.2,51.536 113.008,51.568 L113.008,51.568 L113.008,52 L116.224,52 Z M121.024,47.584 L117.376,47.584 L119.08,43.552 L121.024,47.584 Z M132.76,52.072 C133.48,52.072 134.132,52.008 134.716,51.88 C135.3,51.752 135.812,51.596 136.252,51.412 C136.692,51.228 137.056,51.064 137.344,50.92 C137.632,50.776 137.84,50.704 137.968,50.704 C138.048,50.704 138.184,50.744 138.376,50.824 L138.376,50.824 L138.616,50.704 L136.84,48.16 L136.576,48.4 C136.592,48.464 136.6,48.544 136.6,48.64 L136.6,48.64 L136.6,48.832 C136.6,48.976 136.484,49.136 136.252,49.312 C136.02,49.488 135.72,49.652 135.352,49.804 C134.984,49.956 134.576,50.088 134.128,50.2 C133.68,50.312 133.24,50.368 132.808,50.368 C132.344,50.368 131.888,50.284 131.44,50.116 C130.992,49.948 130.592,49.7 130.24,49.372 C129.888,49.044 129.604,48.652 129.388,48.196 C129.172,47.74 129.064,47.224 129.064,46.648 C129.064,46.072 129.16,45.56 129.352,45.112 C129.544,44.664 129.816,44.288 130.168,43.984 C130.52,43.68 130.932,43.452 131.404,43.3 C131.876,43.148 132.4,43.072 132.976,43.072 C133.456,43.072 133.896,43.116 134.296,43.204 C134.696,43.292 135.044,43.4 135.34,43.528 C135.636,43.656 135.864,43.788 136.024,43.924 C136.184,44.06 136.264,44.168 136.264,44.248 C136.264,44.296 136.268,44.336 136.276,44.368 L136.285,44.416 L136.285,44.416 L136.288,44.464 L136.552,44.656 L138.136,42.376 L137.848,42.208 C137.784,42.24 137.724,42.28 137.668,42.328 C137.612,42.376 137.544,42.4 137.464,42.4 C137.352,42.4 137.168,42.344 136.912,42.232 C136.656,42.12 136.336,41.992 135.952,41.848 C135.568,41.704 135.124,41.576 134.62,41.464 C134.116,41.352 133.56,41.296 132.952,41.296 C132.168,41.296 131.404,41.408 130.66,41.632 C129.916,41.856 129.256,42.196 128.68,42.652 C128.104,43.108 127.64,43.672 127.288,44.344 C126.936,45.016 126.76,45.8 126.76,46.696 C126.76,47.592 126.936,48.38 127.288,49.06 C127.64,49.74 128.096,50.308 128.656,50.764 C129.216,51.22 129.856,51.552 130.576,51.76 C131.296,51.968 132.024,52.072 132.76,52.072 Z M146.92,52 L146.92,51.568 C146.632,51.568 146.488,51.448 146.488,51.208 L146.488,51.208 L146.488,43.216 L149.608,43.216 C149.736,43.216 149.856,43.248 149.968,43.312 C150.08,43.376 150.136,43.48 150.136,43.624 L150.136,43.624 L150.568,43.624 L150.568,40.864 L150.136,40.864 C150.136,41.088 150.08,41.24 149.968,41.32 C149.856,41.4 149.736,41.44 149.608,41.44 L149.608,41.44 L141.064,41.44 C140.936,41.44 140.816,41.4 140.704,41.32 C140.592,41.24 140.536,41.088 140.536,40.864 L140.536,40.864 L140.104,40.864 L140.104,43.624 L140.536,43.624 C140.536,43.48 140.592,43.376 140.704,43.312 C140.816,43.248 140.936,43.216 141.064,43.216 L141.064,43.216 L144.184,43.216 L144.184,51.208 C144.184,51.336 144.144,51.428 144.064,51.484 C143.984,51.54 143.904,51.568 143.824,51.568 L143.824,51.568 L143.824,52 L146.92,52 Z M163.216,52.264 L163.216,49.744 L162.784,49.744 C162.784,49.888 162.72,50.004 162.592,50.092 C162.464,50.18 162.304,50.224 162.112,50.224 L162.112,50.224 L155.968,50.224 L155.968,47.392 L159.472,47.392 C159.792,47.392 160.04,47.412 160.216,47.452 C160.392,47.492 160.456,47.6 160.408,47.776 L160.408,47.776 L160.888,47.776 L160.888,45.232 L160.456,45.232 C160.456,45.408 160.392,45.516 160.264,45.556 C160.136,45.596 159.936,45.616 159.664,45.616 L159.664,45.616 L155.968,45.616 L155.968,43.216 L161.824,43.216 C162.32,43.216 162.568,43.368 162.568,43.672 L162.568,43.672 L163,43.672 L163,41.008 L162.568,41.008 C162.568,41.296 162.32,41.44 161.824,41.44 L161.824,41.44 L153.304,41.44 L153.304,41.872 C153.384,41.872 153.464,41.9 153.544,41.956 C153.624,42.012 153.664,42.104 153.664,42.232 L153.664,42.232 L153.664,51.208 C153.664,51.336 153.624,51.428 153.544,51.484 C153.464,51.54 153.384,51.568 153.304,51.568 L153.304,51.568 L153.304,52 L162.112,52 C162.304,52 162.464,52.008 162.592,52.024 C162.72,52.04 162.784,52.12 162.784,52.264 L162.784,52.264 L163.216,52.264 Z M169.744,52 L169.744,51.568 C169.648,51.568 169.548,51.54 169.444,51.484 C169.34,51.428 169.288,51.336 169.288,51.208 L169.288,51.208 L169.288,47.776 L172.624,47.776 L174.52,50.608 C174.76,50.944 174.88,51.192 174.88,51.352 C174.88,51.496 174.776,51.568 174.568,51.568 L174.568,51.568 L174.568,52 L178.24,52 L178.24,51.568 C178.064,51.52 177.9,51.452 177.748,51.364 C177.596,51.276 177.456,51.144 177.328,50.968 L177.328,50.968 L174.976,47.536 C175.312,47.456 175.64,47.34 175.96,47.188 C176.28,47.036 176.572,46.836 176.836,46.588 C177.1,46.34 177.312,46.048 177.472,45.712 C177.632,45.376 177.712,44.992 177.712,44.56 C177.712,43.424 177.312,42.62 176.512,42.148 C175.712,41.676 174.6,41.44 173.176,41.44 L173.176,41.44 L166.552,41.44 L166.552,41.872 C166.84,41.872 166.984,41.992 166.984,42.232 L166.984,42.232 L166.984,51.208 C166.984,51.448 166.84,51.568 166.552,51.568 L166.552,51.568 L166.552,52 L169.744,52 Z M173.128,46 L169.336,46 L169.336,43.216 L173.128,43.216 C173.944,43.216 174.54,43.332 174.916,43.564 C175.292,43.796 175.48,44.112 175.48,44.512 C175.48,45.504 174.696,46 173.128,46 L173.128,46 Z M185.152,52 L185.152,51.568 C184.704,51.568 184.48,51.448 184.48,51.208 L184.48,51.208 L184.48,42.232 C184.48,41.992 184.704,41.872 185.152,41.872 L185.152,41.872 L185.152,41.44 L181.504,41.44 L181.504,41.872 C181.76,41.872 181.936,41.9 182.032,41.956 C182.128,42.012 182.176,42.104 182.176,42.232 L182.176,42.232 L182.176,51.208 C182.176,51.336 182.128,51.428 182.032,51.484 C181.936,51.54 181.76,51.568 181.504,51.568 L181.504,51.568 L181.504,52 L185.152,52 Z M190.912,52 L190.912,51.568 C190.768,51.568 190.656,51.552 190.576,51.52 C190.496,51.488 190.456,51.408 190.456,51.28 C190.456,51.2 190.476,51.108 190.516,51.004 C190.556,50.9 190.608,50.784 190.672,50.656 L190.672,50.656 L191.344,49.36 L196.48,49.36 L197.128,50.728 C197.176,50.856 197.216,50.96 197.248,51.04 C197.28,51.12 197.296,51.208 197.296,51.304 C197.296,51.432 197.252,51.52 197.164,51.568 C197.076,51.616 196.992,51.64 196.912,51.64 L196.912,51.64 L196.912,52 L200.32,52 L200.32,51.568 C200.208,51.536 200.104,51.488 200.008,51.424 C199.912,51.36 199.824,51.256 199.744,51.112 L199.744,51.112 L195.856,42.952 C195.776,42.776 195.7,42.62 195.628,42.484 C195.556,42.348 195.52,42.232 195.52,42.136 C195.52,42.024 195.548,41.96 195.604,41.944 C195.66,41.928 195.712,41.904 195.76,41.872 L195.76,41.872 L195.76,41.44 L192.136,41.44 L192.136,41.872 C192.184,41.904 192.228,41.932 192.268,41.956 C192.308,41.98 192.328,42.04 192.328,42.136 C192.328,42.264 192.3,42.396 192.244,42.532 C192.188,42.668 192.112,42.848 192.016,43.072 L192.016,43.072 L188.44,50.872 C188.376,51 188.284,51.14 188.164,51.292 C188.044,51.444 187.888,51.536 187.696,51.568 L187.696,51.568 L187.696,52 L190.912,52 Z M195.712,47.584 L192.064,47.584 L193.768,43.552 L195.712,47.584 Z M213.016,52.24 L213.016,49.72 L212.584,49.72 C212.584,49.88 212.52,50.004 212.392,50.092 C212.264,50.18 212.104,50.224 211.912,50.224 L211.912,50.224 L205.432,50.224 L205.432,42.232 C205.432,41.992 205.616,41.872 205.984,41.872 L205.984,41.872 L205.984,41.44 L202.504,41.44 L202.504,41.872 C202.92,41.872 203.128,41.992 203.128,42.232 L203.128,42.232 L203.128,51.208 C203.128,51.448 202.92,51.568 202.504,51.568 L202.504,51.568 L202.504,52 L211.912,52 C212.104,52 212.264,52.008 212.392,52.024 C212.52,52.04 212.584,52.112 212.584,52.24 L212.584,52.24 L213.016,52.24 Z M110.02,76 L110.02,75.568 C109.812,75.504 109.708,75.344 109.708,75.088 C109.708,74.928 109.828,74.536 110.068,73.912 L110.068,73.912 L112.684,66.976 L112.732,66.976 L115.492,74.056 C115.62,74.344 115.712,74.568 115.768,74.728 C115.824,74.888 115.852,75.032 115.852,75.16 C115.852,75.272 115.8,75.36 115.696,75.424 C115.592,75.488 115.492,75.536 115.396,75.568 L115.396,75.568 L115.396,76 L119.188,76 L119.188,75.568 C119.044,75.568 118.932,75.524 118.852,75.436 C118.772,75.348 118.732,75.248 118.732,75.136 C118.732,75.008 118.768,74.848 118.84,74.656 C118.912,74.464 118.996,74.24 119.092,73.984 L119.092,73.984 L122.548,64.816 C122.66,64.528 122.76,64.288 122.848,64.096 C122.936,63.904 123.068,63.808 123.244,63.808 L123.244,63.808 L123.244,63.376 L119.692,63.376 L119.692,63.808 C119.804,63.808 119.9,63.852 119.98,63.94 C120.06,64.028 120.1,64.12 120.1,64.216 C120.1,64.408 120.044,64.624 119.932,64.864 L119.932,64.864 L117.34,71.776 L117.292,71.776 L114.724,65.008 C114.564,64.624 114.484,64.352 114.484,64.192 C114.484,64.096 114.508,64.008 114.556,63.928 C114.604,63.848 114.684,63.808 114.796,63.808 L114.796,63.808 L114.796,63.376 L110.692,63.376 L110.692,63.808 C110.9,63.808 111.004,63.96 111.004,64.264 C111.004,64.344 110.992,64.436 110.968,64.54 C110.944,64.644 110.892,64.8 110.812,65.008 L110.812,65.008 L108.268,71.776 L108.22,71.776 L105.652,65.104 C105.556,64.848 105.496,64.664 105.472,64.552 C105.448,64.44 105.436,64.344 105.436,64.264 C105.436,63.96 105.556,63.808 105.796,63.808 L105.796,63.808 L105.796,63.376 L102.076,63.376 L102.076,63.808 C102.236,63.84 102.352,63.916 102.424,64.036 C102.496,64.156 102.564,64.304 102.628,64.48 L102.628,64.48 L106.468,74.392 C106.532,74.552 106.592,74.704 106.648,74.848 C106.704,74.992 106.732,75.128 106.732,75.256 C106.732,75.368 106.684,75.448 106.588,75.496 C106.492,75.544 106.396,75.568 106.3,75.568 L106.3,75.568 L106.3,76 L110.02,76 Z M129.796,76 L129.796,75.568 C129.348,75.568 129.124,75.448 129.124,75.208 L129.124,75.208 L129.124,66.232 C129.124,65.992 129.348,65.872 129.796,65.872 L129.796,65.872 L129.796,65.44 L126.148,65.44 L126.148,65.872 C126.404,65.872 126.58,65.9 126.676,65.956 C126.772,66.012 126.82,66.104 126.82,66.232 L126.82,66.232 L126.82,75.208 C126.82,75.336 126.772,75.428 126.676,75.484 C126.58,75.54 126.404,75.568 126.148,75.568 L126.148,75.568 L126.148,76 L129.796,76 Z M136.996,76 L136.996,75.568 C136.66,75.568 136.492,75.448 136.492,75.208 L136.492,75.208 L136.492,71.608 L140.572,71.608 C141.868,71.608 142.84,71.388 143.488,70.948 C144.136,70.508 144.46,69.712 144.46,68.56 C144.46,67.408 144.136,66.6 143.488,66.136 C142.84,65.672 141.868,65.44 140.572,65.44 L140.572,65.44 L133.588,65.44 L133.588,65.872 C133.988,65.872 134.188,65.992 134.188,66.232 L134.188,66.232 L134.188,75.208 C134.188,75.448 133.988,75.568 133.588,75.568 L133.588,75.568 L133.588,76 L136.996,76 Z M140.524,69.832 L136.492,69.832 L136.492,67.216 L140.524,67.216 C140.988,67.216 141.376,67.316 141.688,67.516 C142,67.716 142.156,68.064 142.156,68.56 C142.156,69.072 142,69.412 141.688,69.58 C141.376,69.748 140.988,69.832 140.524,69.832 L140.524,69.832 Z M157.204,76.264 L157.204,73.744 L156.772,73.744 C156.772,73.888 156.708,74.004 156.58,74.092 C156.452,74.18 156.292,74.224 156.1,74.224 L156.1,74.224 L149.956,74.224 L149.956,71.392 L153.46,71.392 C153.78,71.392 154.028,71.412 154.204,71.452 C154.38,71.492 154.444,71.6 154.396,71.776 L154.396,71.776 L154.876,71.776 L154.876,69.232 L154.444,69.232 C154.444,69.408 154.38,69.516 154.252,69.556 C154.124,69.596 153.924,69.616 153.652,69.616 L153.652,69.616 L149.956,69.616 L149.956,67.216 L155.812,67.216 C156.308,67.216 156.556,67.368 156.556,67.672 L156.556,67.672 L156.988,67.672 L156.988,65.008 L156.556,65.008 C156.556,65.296 156.308,65.44 155.812,65.44 L155.812,65.44 L147.292,65.44 L147.292,65.872 C147.372,65.872 147.452,65.9 147.532,65.956 C147.612,66.012 147.652,66.104 147.652,66.232 L147.652,66.232 L147.652,75.208 C147.652,75.336 147.612,75.428 147.532,75.484 C147.452,75.54 147.372,75.568 147.292,75.568 L147.292,75.568 L147.292,76 L156.1,76 C156.292,76 156.452,76.008 156.58,76.024 C156.708,76.04 156.772,76.12 156.772,76.264 L156.772,76.264 L157.204,76.264 Z" id="AntibacterialWipe" fill="#000000" fill-rule="nonzero"></path>
        <path d="M221.32,30.312 L221.32,27.12 L221.032,27.12 C221.032,27.44 220.956,27.632 220.804,27.696 C220.652,27.76 220.488,27.792 220.312,27.792 L220.312,27.792 L212.392,27.792 L212.392,27.552 C212.824,27.152 213.324,26.824 213.892,26.568 C214.46,26.312 215.052,26.068 215.668,25.836 C216.284,25.604 216.888,25.368 217.48,25.128 C218.072,24.888 218.604,24.596 219.076,24.252 C219.548,23.908 219.928,23.488 220.216,22.992 C220.504,22.496 220.648,21.872 220.648,21.12 C220.648,20.416 220.508,19.82 220.228,19.332 C219.948,18.844 219.58,18.444 219.124,18.132 C218.668,17.82 218.148,17.592 217.564,17.448 C216.98,17.304 216.384,17.232 215.776,17.232 C214.848,17.232 214.048,17.352 213.376,17.592 C212.704,17.832 212.144,18.096 211.696,18.384 C211.248,18.672 210.896,18.936 210.64,19.176 C210.384,19.416 210.208,19.536 210.112,19.536 C210.032,19.536 209.96,19.52 209.896,19.488 L209.896,19.488 L209.704,19.392 L209.464,19.56 L211.936,22.2 L212.176,22.032 C212.112,21.984 212.06,21.896 212.02,21.768 C211.98,21.64 211.96,21.536 211.96,21.456 C211.96,21.12 212.092,20.82 212.356,20.556 C212.62,20.292 212.936,20.064 213.304,19.872 C213.672,19.68 214.056,19.536 214.456,19.44 C214.856,19.344 215.192,19.296 215.464,19.296 C215.736,19.296 216.016,19.32 216.304,19.368 C216.592,19.416 216.856,19.508 217.096,19.644 C217.336,19.78 217.532,19.956 217.684,20.172 C217.836,20.388 217.912,20.664 217.912,21 C217.912,21.496 217.7,21.928 217.276,22.296 C216.852,22.664 216.32,23.02 215.68,23.364 C215.04,23.708 214.352,24.056 213.616,24.408 C212.88,24.76 212.192,25.168 211.552,25.632 C210.912,26.096 210.38,26.632 209.956,27.24 C209.532,27.848 209.32,28.576 209.32,29.424 L209.32,29.424 L209.32,30.288 L209.608,30.288 C209.608,30.144 209.664,30.06 209.776,30.036 C209.888,30.012 210.032,30 210.208,30 L210.208,30 L220.312,30 C220.488,30 220.652,30.008 220.804,30.024 C220.956,30.04 221.032,30.136 221.032,30.312 L221.032,30.312 L221.32,30.312 Z" id="2" fill="#000000" fill-rule="nonzero"></path>
        <rect id="Rectangle" stroke="#000000" stroke-width="3" x="17.5" y="265.5" width="225" height="76" rx="8"></rect>
        <g id="Shield" transform="translate(228.000000, 14.000000)">
            <path d="M8.49995999,0.602112563 C12.0897673,3.01641898 14.3691227,5.26828283 15.2949432,7.38765451 C16.2117539,9.48640089 16.5982137,12.4858222 16.4790644,16.3788474 C14.3118398,16.4138174 12.5519303,16.6869111 11.1969506,17.1872006 C9.99244943,17.63193 9.09798447,18.2570837 8.49839684,19.0475319 C7.89890333,18.2569851 7.00448445,17.6318949 5.80007824,17.1872006 C4.44518737,16.6869438 2.68541961,16.4138532 0.518468664,16.3785506 C0.406586815,12.4686409 0.792651083,9.46951569 1.70208563,7.38765451 C2.62063669,5.28492398 4.90094203,3.03287984 8.49995999,0.602112563 Z" id="Triangle" stroke="#000000" transform="translate(8.500000, 10.000000) scale(1, -1) translate(-8.500000, -10.000000) "></path>
            <path d="M8.49896481,3 C11.1890912,4.79034724 12.8741761,6.46743058 13.5542196,8.03125 C14.2342631,9.59506942 14.5151106,11.8554861 14.3967621,14.8125 C11.167016,14.8125 9.20108353,15.5416667 8.49896481,17 C7.79684609,15.5416667 5.83091366,14.8125 2.60116754,14.8125 C2.48836139,11.8427409 2.76920888,9.58232426 3.44371001,8.03125 C4.11821113,6.48017574 5.80329607,4.80309241 8.49896481,3 Z" id="Triangle-Copy" fill="#000000" transform="translate(8.500000, 10.000000) scale(1, -1) translate(-8.500000, -10.000000) "></path>
        </g>
    </g>
</svg>