<?xml version="1.0" encoding="UTF-8"?>
<svg width="262px" height="360px" viewBox="0 0 262 360" version="1.1" xmlns="http://www.w3.org/2000/svg" xmlns:xlink="http://www.w3.org/1999/xlink">
    <title>Gas Mask</title>
    <g id="Gas-Mask" stroke="none" stroke-width="1" fill="none" fill-rule="evenodd">
        <g id="Group" transform="translate(9.000000, 9.000000)" fill="#FFFFFF" stroke="#000000" stroke-width="3">
            <g id="Rectangle">
                <rect x="1.5" y="1.5" width="239" height="337" rx="8"></rect>
            </g>
        </g>
        <path d="M62.504,282 C63.0906667,282 63.6373333,281.914667 64.144,281.744 C64.6506667,281.573333 65.0906667,281.314667 65.464,280.968 C65.8373333,280.621333 66.1306667,280.184 66.344,279.656 C66.5573333,279.128 66.664,278.506667 66.664,277.792 C66.664,277.077333 66.5573333,276.456 66.344,275.928 C66.1306667,275.4 65.8373333,274.962667 65.464,274.616 C65.0906667,274.269333 64.6506667,274.010667 64.144,273.84 C63.6373333,273.669333 63.0906667,273.584 62.504,273.584 L62.504,273.584 L57.192,273.584 L57.192,273.872 C57.4373333,273.872 57.56,273.968 57.56,274.16 L57.56,274.16 L57.56,281.424 C57.56,281.616 57.4373333,281.712 57.192,281.712 L57.192,281.712 L57.192,282 L62.504,282 Z M61.864,280.624 L59.384,280.624 L59.384,274.96 L61.864,274.96 C62.3653333,274.96 62.8026667,275.002667 63.176,275.088 C63.5493333,275.173333 63.8586667,275.325333 64.104,275.544 C64.3493333,275.762667 64.5333333,276.053333 64.656,276.416 C64.7786667,276.778667 64.84,277.237333 64.84,277.792 C64.84,278.346667 64.7786667,278.805333 64.656,279.168 C64.5333333,279.530667 64.3493333,279.821333 64.104,280.04 C63.8586667,280.258667 63.5493333,280.410667 63.176,280.496 C62.8026667,280.581333 62.3653333,280.624 61.864,280.624 L61.864,280.624 Z M72.44,282.048 C73.0266667,282.048 73.5786667,281.981333 74.096,281.848 C74.6133333,281.714667 75.064,281.498667 75.448,281.2 C75.832,280.901333 76.136,280.525333 76.36,280.072 C76.584,279.618667 76.696,279.088 76.696,278.48 C76.696,277.872 76.584,277.341333 76.36,276.888 C76.136,276.434667 75.832,276.058667 75.448,275.76 C75.064,275.461333 74.6133333,275.237333 74.096,275.088 C73.5786667,274.938667 73.0266667,274.864 72.44,274.864 C71.8533333,274.864 71.3013333,274.938667 70.784,275.088 C70.2666667,275.237333 69.816,275.461333 69.432,275.76 C69.048,276.058667 68.744,276.434667 68.52,276.888 C68.296,277.341333 68.184,277.872 68.184,278.48 C68.184,279.088 68.296,279.618667 68.52,280.072 C68.744,280.525333 69.048,280.901333 69.432,281.2 C69.816,281.498667 70.2666667,281.714667 70.784,281.848 C71.3013333,281.981333 71.8533333,282.048 72.44,282.048 Z M72.44,280.912 C72.0986667,280.912 71.7653333,280.856 71.44,280.744 C71.1146667,280.632 70.824,280.472 70.568,280.264 C70.312,280.056 70.1066667,279.802667 69.952,279.504 C69.7973333,279.205333 69.72,278.864 69.72,278.48 C69.72,278.096 69.7973333,277.754667 69.952,277.456 C70.1066667,277.157333 70.312,276.904 70.568,276.696 C70.824,276.488 71.1146667,276.328 71.44,276.216 C71.7653333,276.104 72.0986667,276.048 72.44,276.048 C72.7813333,276.048 73.1146667,276.104 73.44,276.216 C73.7653333,276.328 74.056,276.488 74.312,276.696 C74.568,276.904 74.7733333,277.157333 74.928,277.456 C75.0826667,277.754667 75.16,278.096 75.16,278.48 C75.16,278.864 75.0826667,279.205333 74.928,279.504 C74.7733333,279.802667 74.568,280.056 74.312,280.264 C74.056,280.472 73.7653333,280.632 73.44,280.744 C73.1146667,280.856 72.7813333,280.912 72.44,280.912 Z M85.256,282.176 L85.256,280.496 L84.968,280.496 C84.968,280.592 84.9253333,280.669333 84.84,280.728 C84.7546667,280.786667 84.648,280.816 84.52,280.816 L84.52,280.816 L80.424,280.816 L80.424,278.928 L82.76,278.928 C82.9733333,278.928 83.1386667,278.941333 83.256,278.968 C83.3733333,278.994667 83.416,279.066667 83.384,279.184 L83.384,279.184 L83.704,279.184 L83.704,277.488 L83.416,277.488 C83.416,277.605333 83.3733333,277.677333 83.288,277.704 C83.2026667,277.730667 83.0693333,277.744 82.888,277.744 L82.888,277.744 L80.424,277.744 L80.424,276.144 L84.328,276.144 C84.6586667,276.144 84.824,276.245333 84.824,276.448 L84.824,276.448 L85.112,276.448 L85.112,274.672 L84.824,274.672 C84.824,274.864 84.6586667,274.96 84.328,274.96 L84.328,274.96 L78.648,274.96 L78.648,275.248 C78.7013333,275.248 78.7546667,275.266667 78.808,275.304 C78.8613333,275.341333 78.888,275.402667 78.888,275.488 L78.888,275.488 L78.888,281.472 C78.888,281.557333 78.8613333,281.618667 78.808,281.656 C78.7546667,281.693333 78.7013333,281.712 78.648,281.712 L78.648,281.712 L78.648,282 L84.52,282 C84.648,282 84.7546667,282.005333 84.84,282.016 C84.9253333,282.026667 84.968,282.08 84.968,282.176 L84.968,282.176 L85.256,282.176 Z M90.552,282.048 C90.9146667,282.048 91.3013333,282.021333 91.712,281.968 C92.1226667,281.914667 92.4986667,281.802667 92.84,281.632 C93.1813333,281.461333 93.4666667,281.226667 93.696,280.928 C93.9253333,280.629333 94.04,280.245333 94.04,279.776 C94.04,279.306667 93.9093333,278.938667 93.648,278.672 C93.3866667,278.405333 93.0586667,278.202667 92.664,278.064 C92.2693333,277.925333 91.8426667,277.826667 91.384,277.768 C90.9253333,277.709333 90.4986667,277.650667 90.104,277.592 C89.7093333,277.533333 89.3813333,277.453333 89.12,277.352 C88.8586667,277.250667 88.728,277.082667 88.728,276.848 C88.728,276.698667 88.7706667,276.573333 88.856,276.472 C88.9413333,276.370667 89.0586667,276.288 89.208,276.224 C89.3573333,276.16 89.528,276.114667 89.72,276.088 C89.912,276.061333 90.1146667,276.048 90.328,276.048 C90.8826667,276.048 91.384,276.112 91.832,276.24 C92.28,276.368 92.6106667,276.522667 92.824,276.704 C92.9093333,276.768 92.9573333,276.832 92.968,276.896 L92.968,276.896 L93,277.088 L93.288,277.184 L94.088,275.68 L93.912,275.504 C93.848,275.536 93.7946667,275.565333 93.752,275.592 C93.7093333,275.618667 93.6453333,275.632 93.56,275.632 C93.4853333,275.632 93.3706667,275.592 93.216,275.512 C93.0613333,275.432 92.8613333,275.344 92.616,275.248 C92.3706667,275.152 92.0693333,275.064 91.712,274.984 C91.3546667,274.904 90.9253333,274.864 90.424,274.864 C89.4,274.864 88.6053333,275.066667 88.04,275.472 C87.4746667,275.877333 87.192,276.421333 87.192,277.104 C87.192,277.562667 87.3226667,277.917333 87.584,278.168 C87.8453333,278.418667 88.1733333,278.610667 88.568,278.744 C88.9626667,278.877333 89.3893333,278.973333 89.848,279.032 C90.3066667,279.090667 90.7333333,279.149333 91.128,279.208 C91.5226667,279.266667 91.8506667,279.349333 92.112,279.456 C92.3733333,279.562667 92.504,279.733333 92.504,279.968 C92.504,280.170667 92.4293333,280.333333 92.28,280.456 C92.1306667,280.578667 91.9493333,280.674667 91.736,280.744 C91.5226667,280.813333 91.3066667,280.858667 91.088,280.88 C90.8693333,280.901333 90.6853333,280.912 90.536,280.912 C90.376,280.912 90.1546667,280.885333 89.872,280.832 C89.5893333,280.778667 89.3066667,280.706667 89.024,280.616 C88.7413333,280.525333 88.4986667,280.413333 88.296,280.28 C88.0933333,280.146667 87.992,280 87.992,279.84 C87.992,279.786667 87.9946667,279.736 88,279.688 C88.0053333,279.64 88.008,279.594667 88.008,279.552 L88.008,279.552 L87.704,279.472 L86.968,281.264 L87.192,281.424 C87.2453333,281.36 87.3093333,281.328 87.384,281.328 C87.4266667,281.328 87.5493333,281.368 87.752,281.448 C87.9546667,281.528 88.2026667,281.613333 88.496,281.704 C88.7893333,281.794667 89.1146667,281.874667 89.472,281.944 C89.8293333,282.013333 90.1893333,282.048 90.552,282.048 Z M103.88,282 L103.88,281.712 C103.581333,281.712 103.432,281.632 103.432,281.472 L103.432,281.472 L103.432,275.488 C103.432,275.328 103.581333,275.248 103.88,275.248 L103.88,275.248 L103.88,274.96 L101.448,274.96 L101.448,275.248 C101.618667,275.248 101.736,275.266667 101.8,275.304 C101.864,275.341333 101.896,275.402667 101.896,275.488 L101.896,275.488 L101.896,281.472 C101.896,281.557333 101.864,281.618667 101.8,281.656 C101.736,281.693333 101.618667,281.712 101.448,281.712 L101.448,281.712 L101.448,282 L103.88,282 Z M110.392,282 L110.392,281.712 C110.2,281.712 110.104,281.632 110.104,281.472 L110.104,281.472 L110.104,276.144 L112.184,276.144 C112.269333,276.144 112.349333,276.165333 112.424,276.208 C112.498667,276.250667 112.536,276.32 112.536,276.416 L112.536,276.416 L112.824,276.416 L112.824,274.576 L112.536,274.576 C112.536,274.725333 112.498667,274.826667 112.424,274.88 C112.349333,274.933333 112.269333,274.96 112.184,274.96 L112.184,274.96 L106.488,274.96 C106.402667,274.96 106.322667,274.933333 106.248,274.88 C106.173333,274.826667 106.136,274.725333 106.136,274.576 L106.136,274.576 L105.848,274.576 L105.848,276.416 L106.136,276.416 C106.136,276.32 106.173333,276.250667 106.248,276.208 C106.322667,276.165333 106.402667,276.144 106.488,276.144 L106.488,276.144 L108.568,276.144 L108.568,281.472 C108.568,281.557333 108.541333,281.618667 108.488,281.656 C108.434667,281.693333 108.381333,281.712 108.328,281.712 L108.328,281.712 L108.328,282 L110.392,282 Z M122.872,282 L122.872,281.712 C122.776,281.712 122.712,281.696 122.68,281.664 C122.648,281.632 122.632,281.573333 122.632,281.488 C122.632,281.456 122.672,281.336 122.752,281.128 C122.832,280.92 122.933333,280.664 123.056,280.36 C123.178667,280.056 123.312,279.725333 123.456,279.368 C123.6,279.010667 123.736,278.669333 123.864,278.344 C123.992,278.018667 124.104,277.730667 124.2,277.48 C124.296,277.229333 124.354667,277.056 124.376,276.96 L124.376,276.96 L124.408,276.96 C124.578667,277.493333 124.754667,278.021333 124.936,278.544 C125.117333,279.066667 125.285333,279.538667 125.44,279.96 C125.594667,280.381333 125.72,280.730667 125.816,281.008 C125.912,281.285333 125.96,281.445333 125.96,281.488 C125.96,281.573333 125.949333,281.629333 125.928,281.656 C125.906667,281.682667 125.853333,281.701333 125.768,281.712 L125.768,281.712 L125.768,282 L128.008,282 L128.008,281.712 C127.858667,281.712 127.784,281.642667 127.784,281.504 C127.784,281.450667 127.816,281.352 127.88,281.208 C127.944,281.064 128.008,280.901333 128.072,280.72 L128.072,280.72 L129.912,275.84 C130.050667,275.445333 130.210667,275.248 130.392,275.248 L130.392,275.248 L130.392,274.96 L128.36,274.96 L128.36,275.248 C128.530667,275.248 128.616,275.322667 128.616,275.472 C128.616,275.546667 128.597333,275.64 128.56,275.752 C128.522667,275.864 128.477333,275.994667 128.424,276.144 L128.424,276.144 L126.936,280.032 L125.528,276.176 C125.474667,276.048 125.421333,275.912 125.368,275.768 C125.314667,275.624 125.288,275.514667 125.288,275.44 C125.288,275.312 125.384,275.248 125.576,275.248 L125.576,275.248 L125.576,274.96 L123.288,274.96 L123.288,275.248 C123.458667,275.248 123.544,275.322667 123.544,275.472 C123.544,275.557333 123.52,275.666667 123.472,275.8 C123.424,275.933333 123.373333,276.074667 123.32,276.224 L123.32,276.224 L121.96,280.032 L121.928,280.032 L120.52,276.144 C120.456,275.973333 120.402667,275.832 120.36,275.72 C120.317333,275.608 120.296,275.525333 120.296,275.472 C120.296,275.322667 120.365333,275.248 120.504,275.248 L120.504,275.248 L120.504,274.96 L118.472,274.96 L118.472,275.248 C118.632,275.28 118.744,275.381333 118.808,275.552 L118.808,275.552 L120.92,281.104 C120.941333,281.157333 120.970667,281.234667 121.008,281.336 C121.045333,281.437333 121.064,281.52 121.064,281.584 C121.064,281.648 121.048,281.685333 121.016,281.696 C120.984,281.706667 120.946667,281.712 120.904,281.712 L120.904,281.712 L120.904,282 L122.872,282 Z M135.544,282.048 C136.130667,282.048 136.682667,281.981333 137.2,281.848 C137.717333,281.714667 138.168,281.498667 138.552,281.2 C138.936,280.901333 139.24,280.525333 139.464,280.072 C139.688,279.618667 139.8,279.088 139.8,278.48 C139.8,277.872 139.688,277.341333 139.464,276.888 C139.24,276.434667 138.936,276.058667 138.552,275.76 C138.168,275.461333 137.717333,275.237333 137.2,275.088 C136.682667,274.938667 136.130667,274.864 135.544,274.864 C134.957333,274.864 134.405333,274.938667 133.888,275.088 C133.370667,275.237333 132.92,275.461333 132.536,275.76 C132.152,276.058667 131.848,276.434667 131.624,276.888 C131.4,277.341333 131.288,277.872 131.288,278.48 C131.288,279.088 131.4,279.618667 131.624,280.072 C131.848,280.525333 132.152,280.901333 132.536,281.2 C132.92,281.498667 133.370667,281.714667 133.888,281.848 C134.405333,281.981333 134.957333,282.048 135.544,282.048 Z M135.544,280.912 C135.202667,280.912 134.869333,280.856 134.544,280.744 C134.218667,280.632 133.928,280.472 133.672,280.264 C133.416,280.056 133.210667,279.802667 133.056,279.504 C132.901333,279.205333 132.824,278.864 132.824,278.48 C132.824,278.096 132.901333,277.754667 133.056,277.456 C133.210667,277.157333 133.416,276.904 133.672,276.696 C133.928,276.488 134.218667,276.328 134.544,276.216 C134.869333,276.104 135.202667,276.048 135.544,276.048 C135.885333,276.048 136.218667,276.104 136.544,276.216 C136.869333,276.328 137.16,276.488 137.416,276.696 C137.672,276.904 137.877333,277.157333 138.032,277.456 C138.186667,277.754667 138.264,278.096 138.264,278.48 C138.264,278.864 138.186667,279.205333 138.032,279.504 C137.877333,279.802667 137.672,280.056 137.416,280.264 C137.16,280.472 136.869333,280.632 136.544,280.744 C136.218667,280.856 135.885333,280.912 135.544,280.912 Z M143.816,282 L143.816,281.712 C143.752,281.712 143.685333,281.693333 143.616,281.656 C143.546667,281.618667 143.512,281.557333 143.512,281.472 L143.512,281.472 L143.512,279.184 L145.736,279.184 L147,281.072 C147.16,281.296 147.24,281.461333 147.24,281.568 C147.24,281.664 147.170667,281.712 147.032,281.712 L147.032,281.712 L147.032,282 L149.48,282 L149.48,281.712 C149.362667,281.68 149.253333,281.634667 149.152,281.576 C149.050667,281.517333 148.957333,281.429333 148.872,281.312 L148.872,281.312 L147.304,279.024 C147.528,278.970667 147.746667,278.893333 147.96,278.792 C148.173333,278.690667 148.368,278.557333 148.544,278.392 C148.72,278.226667 148.861333,278.032 148.968,277.808 C149.074667,277.584 149.128,277.328 149.128,277.04 C149.128,276.282667 148.861333,275.746667 148.328,275.432 C147.794667,275.117333 147.053333,274.96 146.104,274.96 L146.104,274.96 L141.688,274.96 L141.688,275.248 C141.88,275.248 141.976,275.328 141.976,275.488 L141.976,275.488 L141.976,281.472 C141.976,281.632 141.88,281.712 141.688,281.712 L141.688,281.712 L141.688,282 L143.816,282 Z M146.072,278 L143.544,278 L143.544,276.144 L146.072,276.144 C146.616,276.144 147.013333,276.221333 147.264,276.376 C147.514667,276.530667 147.64,276.741333 147.64,277.008 C147.64,277.669333 147.117333,278 146.072,278 L146.072,278 Z M153.496,282 L153.496,281.712 C153.293333,281.712 153.192,281.632 153.192,281.472 L153.192,281.472 L153.192,279.68 L154.44,278.688 L156.408,281.088 C156.546667,281.248 156.64,281.365333 156.688,281.44 C156.736,281.514667 156.76,281.573333 156.76,281.616 C156.76,281.68 156.701333,281.712 156.584,281.712 L156.584,281.712 L156.584,282 L158.952,282 L158.952,281.712 C158.802667,281.669333 158.653333,281.565333 158.504,281.4 C158.354667,281.234667 158.216,281.072 158.088,280.912 L158.088,280.912 L155.56,277.776 L158.232,275.616 C158.488,275.413333 158.68,275.290667 158.808,275.248 L158.808,275.248 L158.808,274.96 L156.168,274.96 L156.168,275.2 C156.221333,275.2 156.277333,275.216 156.336,275.248 C156.394667,275.28 156.424,275.322667 156.424,275.376 C156.424,275.418667 156.322667,275.528 156.12,275.704 C155.917333,275.88 155.661333,276.096 155.352,276.352 C155.042667,276.608 154.696,276.888 154.312,277.192 C153.928,277.496 153.554667,277.797333 153.192,278.096 L153.192,278.096 L153.192,275.488 C153.192,275.328 153.293333,275.248 153.496,275.248 L153.496,275.248 L153.496,274.96 L151.4,274.96 L151.4,275.248 C151.570667,275.248 151.656,275.328 151.656,275.488 L151.656,275.488 L151.656,281.472 C151.656,281.632 151.570667,281.712 151.4,281.712 L151.4,281.712 L151.4,282 L153.496,282 Z M163.72,279.088 L163.72,278.896 C163.624,278.896 163.554667,278.856 163.512,278.776 C163.469333,278.696 163.448,278.597333 163.448,278.48 C163.448,278.234667 163.544,278.005333 163.736,277.792 C163.928,277.578667 164.136,277.349333 164.36,277.104 C164.594667,276.858667 164.805333,276.589333 164.992,276.296 C165.178667,276.002667 165.272,275.658667 165.272,275.264 C165.272,274.944 165.205333,274.658667 165.072,274.408 C164.938667,274.157333 164.76,273.949333 164.536,273.784 C164.312,273.618667 164.058667,273.490667 163.776,273.4 C163.493333,273.309333 163.208,273.264 162.92,273.264 C162.472,273.264 162.109333,273.317333 161.832,273.424 C161.554667,273.530667 161.325333,273.645333 161.144,273.768 C160.962667,273.890667 160.816,274.005333 160.704,274.112 C160.592,274.218667 160.482667,274.272 160.376,274.272 C160.365333,274.272 160.306667,274.261333 160.2,274.24 L160.2,274.24 L160.056,274.384 L161.288,275.728 L161.432,275.616 C161.4,275.52 161.384,275.424 161.384,275.328 C161.384,275.264 161.413333,275.181333 161.472,275.08 C161.530667,274.978667 161.616,274.885333 161.728,274.8 C161.84,274.714667 161.978667,274.64 162.144,274.576 C162.309333,274.512 162.493333,274.48 162.696,274.48 C162.973333,274.48 163.205333,274.562667 163.392,274.728 C163.578667,274.893333 163.672,275.12 163.672,275.408 C163.672,275.653333 163.602667,275.869333 163.464,276.056 C163.325333,276.242667 163.165333,276.442667 162.984,276.656 C162.813333,276.858667 162.650667,277.093333 162.496,277.36 C162.341333,277.626667 162.242667,277.984 162.2,278.432 C162.178667,278.613333 162.144,278.736 162.096,278.8 C162.048,278.864 161.992,278.896 161.928,278.896 L161.928,278.896 L161.928,279.088 L163.72,279.088 Z M162.808,282.048 C163.085333,282.048 163.325333,281.954667 163.528,281.768 C163.730667,281.581333 163.832,281.349333 163.832,281.072 C163.832,280.794667 163.730667,280.554667 163.528,280.352 C163.325333,280.149333 163.085333,280.048 162.808,280.048 C162.530667,280.048 162.290667,280.149333 162.088,280.352 C161.885333,280.554667 161.784,280.794667 161.784,281.072 C161.784,281.349333 161.885333,281.581333 162.088,281.768 C162.290667,281.954667 162.530667,282.048 162.808,282.048 Z M175.752,282 L175.752,281.712 C175.656,281.712 175.592,281.696 175.56,281.664 C175.528,281.632 175.512,281.573333 175.512,281.488 C175.512,281.456 175.552,281.336 175.632,281.128 C175.712,280.92 175.813333,280.664 175.936,280.36 C176.058667,280.056 176.192,279.725333 176.336,279.368 C176.48,279.010667 176.616,278.669333 176.744,278.344 C176.872,278.018667 176.984,277.730667 177.08,277.48 C177.176,277.229333 177.234667,277.056 177.256,276.96 L177.256,276.96 L177.288,276.96 C177.458667,277.493333 177.634667,278.021333 177.816,278.544 C177.997333,279.066667 178.165333,279.538667 178.32,279.96 C178.474667,280.381333 178.6,280.730667 178.696,281.008 C178.792,281.285333 178.84,281.445333 178.84,281.488 C178.84,281.573333 178.829333,281.629333 178.808,281.656 C178.786667,281.682667 178.733333,281.701333 178.648,281.712 L178.648,281.712 L178.648,282 L180.888,282 L180.888,281.712 C180.738667,281.712 180.664,281.642667 180.664,281.504 C180.664,281.450667 180.696,281.352 180.76,281.208 C180.824,281.064 180.888,280.901333 180.952,280.72 L180.952,280.72 L182.792,275.84 C182.930667,275.445333 183.090667,275.248 183.272,275.248 L183.272,275.248 L183.272,274.96 L181.24,274.96 L181.24,275.248 C181.410667,275.248 181.496,275.322667 181.496,275.472 C181.496,275.546667 181.477333,275.64 181.44,275.752 C181.402667,275.864 181.357333,275.994667 181.304,276.144 L181.304,276.144 L179.816,280.032 L178.408,276.176 C178.354667,276.048 178.301333,275.912 178.248,275.768 C178.194667,275.624 178.168,275.514667 178.168,275.44 C178.168,275.312 178.264,275.248 178.456,275.248 L178.456,275.248 L178.456,274.96 L176.168,274.96 L176.168,275.248 C176.338667,275.248 176.424,275.322667 176.424,275.472 C176.424,275.557333 176.4,275.666667 176.352,275.8 C176.304,275.933333 176.253333,276.074667 176.2,276.224 L176.2,276.224 L174.84,280.032 L174.808,280.032 L173.4,276.144 C173.336,275.973333 173.282667,275.832 173.24,275.72 C173.197333,275.608 173.176,275.525333 173.176,275.472 C173.176,275.322667 173.245333,275.248 173.384,275.248 L173.384,275.248 L173.384,274.96 L171.352,274.96 L171.352,275.248 C171.512,275.28 171.624,275.381333 171.688,275.552 L171.688,275.552 L173.8,281.104 C173.821333,281.157333 173.850667,281.234667 173.888,281.336 C173.925333,281.437333 173.944,281.52 173.944,281.584 C173.944,281.648 173.928,281.685333 173.896,281.696 C173.864,281.706667 173.826667,281.712 173.784,281.712 L173.784,281.712 L173.784,282 L175.752,282 Z M186.968,282 L186.968,281.712 C186.904,281.712 186.848,281.693333 186.8,281.656 C186.752,281.618667 186.728,281.557333 186.728,281.472 L186.728,281.472 L186.728,279.056 L191.016,279.056 L191.016,281.472 C191.016,281.557333 190.992,281.618667 190.944,281.656 C190.896,281.693333 190.84,281.712 190.776,281.712 L190.776,281.712 L190.776,282 L192.792,282 L192.792,281.712 C192.728,281.712 192.672,281.693333 192.624,281.656 C192.576,281.618667 192.552,281.557333 192.552,281.472 L192.552,281.472 L192.552,275.488 C192.552,275.402667 192.576,275.341333 192.624,275.304 C192.672,275.266667 192.728,275.248 192.792,275.248 L192.792,275.248 L192.792,274.96 L190.776,274.96 L190.776,275.248 C190.84,275.248 190.896,275.266667 190.944,275.304 C190.992,275.341333 191.016,275.402667 191.016,275.488 L191.016,275.488 L191.016,277.744 L186.728,277.744 L186.728,275.488 C186.728,275.402667 186.752,275.341333 186.8,275.304 C186.848,275.266667 186.904,275.248 186.968,275.248 L186.968,275.248 L186.968,274.96 L184.952,274.96 L184.952,275.248 C185.016,275.248 185.072,275.266667 185.12,275.304 C185.168,275.341333 185.192,275.402667 185.192,275.488 L185.192,275.488 L185.192,281.472 C185.192,281.557333 185.168,281.618667 185.12,281.656 C185.072,281.693333 185.016,281.712 184.952,281.712 L184.952,281.712 L184.952,282 L186.968,282 Z M199.096,282.048 C199.682667,282.048 200.234667,281.981333 200.752,281.848 C201.269333,281.714667 201.72,281.498667 202.104,281.2 C202.488,280.901333 202.792,280.525333 203.016,280.072 C203.24,279.618667 203.352,279.088 203.352,278.48 C203.352,277.872 203.24,277.341333 203.016,276.888 C202.792,276.434667 202.488,276.058667 202.104,275.76 C201.72,275.461333 201.269333,275.237333 200.752,275.088 C200.234667,274.938667 199.682667,274.864 199.096,274.864 C198.509333,274.864 197.957333,274.938667 197.44,275.088 C196.922667,275.237333 196.472,275.461333 196.088,275.76 C195.704,276.058667 195.4,276.434667 195.176,276.888 C194.952,277.341333 194.84,277.872 194.84,278.48 C194.84,279.088 194.952,279.618667 195.176,280.072 C195.4,280.525333 195.704,280.901333 196.088,281.2 C196.472,281.498667 196.922667,281.714667 197.44,281.848 C197.957333,281.981333 198.509333,282.048 199.096,282.048 Z M199.096,280.912 C198.754667,280.912 198.421333,280.856 198.096,280.744 C197.770667,280.632 197.48,280.472 197.224,280.264 C196.968,280.056 196.762667,279.802667 196.608,279.504 C196.453333,279.205333 196.376,278.864 196.376,278.48 C196.376,278.096 196.453333,277.754667 196.608,277.456 C196.762667,277.157333 196.968,276.904 197.224,276.696 C197.48,276.488 197.770667,276.328 198.096,276.216 C198.421333,276.104 198.754667,276.048 199.096,276.048 C199.437333,276.048 199.770667,276.104 200.096,276.216 C200.421333,276.328 200.712,276.488 200.968,276.696 C201.224,276.904 201.429333,277.157333 201.584,277.456 C201.738667,277.754667 201.816,278.096 201.816,278.48 C201.816,278.864 201.738667,279.205333 201.584,279.504 C201.429333,279.802667 201.224,280.056 200.968,280.264 C200.712,280.472 200.421333,280.632 200.096,280.744 C199.770667,280.856 199.437333,280.912 199.096,280.912 Z M105.272,298 L105.272,297.712 C105.069333,297.712 104.968,297.632 104.968,297.472 L104.968,297.472 L104.968,295.68 L106.216,294.688 L108.184,297.088 C108.322667,297.248 108.416,297.365333 108.464,297.44 C108.512,297.514667 108.536,297.573333 108.536,297.616 C108.536,297.68 108.477333,297.712 108.36,297.712 L108.36,297.712 L108.36,298 L110.728,298 L110.728,297.712 C110.578667,297.669333 110.429333,297.565333 110.28,297.4 C110.130667,297.234667 109.992,297.072 109.864,296.912 L109.864,296.912 L107.336,293.776 L110.008,291.616 C110.264,291.413333 110.456,291.290667 110.584,291.248 L110.584,291.248 L110.584,290.96 L107.944,290.96 L107.944,291.2 C107.997333,291.2 108.053333,291.216 108.112,291.248 C108.170667,291.28 108.2,291.322667 108.2,291.376 C108.2,291.418667 108.098667,291.528 107.896,291.704 C107.693333,291.88 107.437333,292.096 107.128,292.352 C106.818667,292.608 106.472,292.888 106.088,293.192 C105.704,293.496 105.330667,293.797333 104.968,294.096 L104.968,294.096 L104.968,291.488 C104.968,291.328 105.069333,291.248 105.272,291.248 L105.272,291.248 L105.272,290.96 L103.176,290.96 L103.176,291.248 C103.346667,291.248 103.432,291.328 103.432,291.488 L103.432,291.488 L103.432,297.472 C103.432,297.632 103.346667,297.712 103.176,297.712 L103.176,297.712 L103.176,298 L105.272,298 Z M114.152,298 L114.152,297.712 C113.928,297.712 113.816,297.632 113.816,297.472 L113.816,297.472 L113.816,292.816 L117.784,297.04 C117.912,297.178667 118.026667,297.301333 118.128,297.408 C118.229333,297.514667 118.28,297.589333 118.28,297.632 C118.28,297.685333 118.242667,297.712 118.168,297.712 L118.168,297.712 L118.168,298 L120.248,298 L120.248,297.712 C120.056,297.712 119.96,297.632 119.96,297.472 L119.96,297.472 L119.96,291.488 C119.96,291.328 120.056,291.248 120.248,291.248 L120.248,291.248 L120.248,290.96 L118.296,290.96 L118.296,291.248 C118.509333,291.248 118.616,291.328 118.616,291.488 L118.616,291.488 L118.616,295.824 L114.776,291.76 C114.541333,291.525333 114.424,291.381333 114.424,291.328 C114.424,291.285333 114.461333,291.258667 114.536,291.248 L114.536,291.248 L114.536,290.96 L112.184,290.96 L112.184,291.248 C112.376,291.248 112.472,291.328 112.472,291.488 L112.472,291.488 L112.472,297.472 C112.472,297.632 112.376,297.712 112.184,297.712 L112.184,297.712 L112.184,298 L114.152,298 Z M126.44,298.048 C127.026667,298.048 127.578667,297.981333 128.096,297.848 C128.613333,297.714667 129.064,297.498667 129.448,297.2 C129.832,296.901333 130.136,296.525333 130.36,296.072 C130.584,295.618667 130.696,295.088 130.696,294.48 C130.696,293.872 130.584,293.341333 130.36,292.888 C130.136,292.434667 129.832,292.058667 129.448,291.76 C129.064,291.461333 128.613333,291.237333 128.096,291.088 C127.578667,290.938667 127.026667,290.864 126.44,290.864 C125.853333,290.864 125.301333,290.938667 124.784,291.088 C124.266667,291.237333 123.816,291.461333 123.432,291.76 C123.048,292.058667 122.744,292.434667 122.52,292.888 C122.296,293.341333 122.184,293.872 122.184,294.48 C122.184,295.088 122.296,295.618667 122.52,296.072 C122.744,296.525333 123.048,296.901333 123.432,297.2 C123.816,297.498667 124.266667,297.714667 124.784,297.848 C125.301333,297.981333 125.853333,298.048 126.44,298.048 Z M126.44,296.912 C126.098667,296.912 125.765333,296.856 125.44,296.744 C125.114667,296.632 124.824,296.472 124.568,296.264 C124.312,296.056 124.106667,295.802667 123.952,295.504 C123.797333,295.205333 123.72,294.864 123.72,294.48 C123.72,294.096 123.797333,293.754667 123.952,293.456 C124.106667,293.157333 124.312,292.904 124.568,292.696 C124.824,292.488 125.114667,292.328 125.44,292.216 C125.765333,292.104 126.098667,292.048 126.44,292.048 C126.781333,292.048 127.114667,292.104 127.44,292.216 C127.765333,292.328 128.056,292.488 128.312,292.696 C128.568,292.904 128.773333,293.157333 128.928,293.456 C129.082667,293.754667 129.16,294.096 129.16,294.48 C129.16,294.864 129.082667,295.205333 128.928,295.504 C128.773333,295.802667 128.568,296.056 128.312,296.264 C128.056,296.472 127.765333,296.632 127.44,296.744 C127.114667,296.856 126.781333,296.912 126.44,296.912 Z M135.992,298 L135.992,297.712 C135.896,297.712 135.832,297.696 135.8,297.664 C135.768,297.632 135.752,297.573333 135.752,297.488 C135.752,297.456 135.792,297.336 135.872,297.128 C135.952,296.92 136.053333,296.664 136.176,296.36 C136.298667,296.056 136.432,295.725333 136.576,295.368 C136.72,295.010667 136.856,294.669333 136.984,294.344 C137.112,294.018667 137.224,293.730667 137.32,293.48 C137.416,293.229333 137.474667,293.056 137.496,292.96 L137.496,292.96 L137.528,292.96 C137.698667,293.493333 137.874667,294.021333 138.056,294.544 C138.237333,295.066667 138.405333,295.538667 138.56,295.96 C138.714667,296.381333 138.84,296.730667 138.936,297.008 C139.032,297.285333 139.08,297.445333 139.08,297.488 C139.08,297.573333 139.069333,297.629333 139.048,297.656 C139.026667,297.682667 138.973333,297.701333 138.888,297.712 L138.888,297.712 L138.888,298 L141.128,298 L141.128,297.712 C140.978667,297.712 140.904,297.642667 140.904,297.504 C140.904,297.450667 140.936,297.352 141,297.208 C141.064,297.064 141.128,296.901333 141.192,296.72 L141.192,296.72 L143.032,291.84 C143.170667,291.445333 143.330667,291.248 143.512,291.248 L143.512,291.248 L143.512,290.96 L141.48,290.96 L141.48,291.248 C141.650667,291.248 141.736,291.322667 141.736,291.472 C141.736,291.546667 141.717333,291.64 141.68,291.752 C141.642667,291.864 141.597333,291.994667 141.544,292.144 L141.544,292.144 L140.056,296.032 L138.648,292.176 C138.594667,292.048 138.541333,291.912 138.488,291.768 C138.434667,291.624 138.408,291.514667 138.408,291.44 C138.408,291.312 138.504,291.248 138.696,291.248 L138.696,291.248 L138.696,290.96 L136.408,290.96 L136.408,291.248 C136.578667,291.248 136.664,291.322667 136.664,291.472 C136.664,291.557333 136.64,291.666667 136.592,291.8 C136.544,291.933333 136.493333,292.074667 136.44,292.224 L136.44,292.224 L135.08,296.032 L135.048,296.032 L133.64,292.144 C133.576,291.973333 133.522667,291.832 133.48,291.72 C133.437333,291.608 133.416,291.525333 133.416,291.472 C133.416,291.322667 133.485333,291.248 133.624,291.248 L133.624,291.248 L133.624,290.96 L131.592,290.96 L131.592,291.248 C131.752,291.28 131.864,291.381333 131.928,291.552 L131.928,291.552 L134.04,297.104 C134.061333,297.157333 134.090667,297.234667 134.128,297.336 C134.165333,297.437333 134.184,297.52 134.184,297.584 C134.184,297.648 134.168,297.685333 134.136,297.696 C134.104,297.706667 134.066667,297.712 134.024,297.712 L134.024,297.712 L134.024,298 L135.992,298 Z M148.104,298.048 C148.466667,298.048 148.853333,298.021333 149.264,297.968 C149.674667,297.914667 150.050667,297.802667 150.392,297.632 C150.733333,297.461333 151.018667,297.226667 151.248,296.928 C151.477333,296.629333 151.592,296.245333 151.592,295.776 C151.592,295.306667 151.461333,294.938667 151.2,294.672 C150.938667,294.405333 150.610667,294.202667 150.216,294.064 C149.821333,293.925333 149.394667,293.826667 148.936,293.768 C148.477333,293.709333 148.050667,293.650667 147.656,293.592 C147.261333,293.533333 146.933333,293.453333 146.672,293.352 C146.410667,293.250667 146.28,293.082667 146.28,292.848 C146.28,292.698667 146.322667,292.573333 146.408,292.472 C146.493333,292.370667 146.610667,292.288 146.76,292.224 C146.909333,292.16 147.08,292.114667 147.272,292.088 C147.464,292.061333 147.666667,292.048 147.88,292.048 C148.434667,292.048 148.936,292.112 149.384,292.24 C149.832,292.368 150.162667,292.522667 150.376,292.704 C150.461333,292.768 150.509333,292.832 150.52,292.896 C150.530667,292.96 150.541333,293.024 150.552,293.088 L150.552,293.088 L150.84,293.184 L151.64,291.68 L151.464,291.504 C151.4,291.536 151.346667,291.565333 151.304,291.592 C151.261333,291.618667 151.197333,291.632 151.112,291.632 C151.037333,291.632 150.922667,291.592 150.768,291.512 C150.613333,291.432 150.413333,291.344 150.168,291.248 C149.922667,291.152 149.621333,291.064 149.264,290.984 C148.906667,290.904 148.477333,290.864 147.976,290.864 C146.952,290.864 146.157333,291.066667 145.592,291.472 C145.026667,291.877333 144.744,292.421333 144.744,293.104 C144.744,293.562667 144.874667,293.917333 145.136,294.168 C145.397333,294.418667 145.725333,294.610667 146.12,294.744 C146.514667,294.877333 146.941333,294.973333 147.4,295.032 C147.858667,295.090667 148.285333,295.149333 148.68,295.208 C149.074667,295.266667 149.402667,295.349333 149.664,295.456 C149.925333,295.562667 150.056,295.733333 150.056,295.968 C150.056,296.170667 149.981333,296.333333 149.832,296.456 C149.682667,296.578667 149.501333,296.674667 149.288,296.744 C149.074667,296.813333 148.858667,296.858667 148.64,296.88 C148.421333,296.901333 148.237333,296.912 148.088,296.912 C147.928,296.912 147.706667,296.885333 147.424,296.832 C147.141333,296.778667 146.858667,296.706667 146.576,296.616 C146.293333,296.525333 146.050667,296.413333 145.848,296.28 C145.645333,296.146667 145.544,296 145.544,295.84 C145.544,295.786667 145.546667,295.736 145.552,295.688 C145.557333,295.64 145.56,295.594667 145.56,295.552 L145.56,295.552 L145.256,295.472 L144.52,297.264 L144.744,297.424 C144.797333,297.36 144.861333,297.328 144.936,297.328 C144.978667,297.328 145.101333,297.368 145.304,297.448 C145.506667,297.528 145.754667,297.613333 146.048,297.704 C146.341333,297.794667 146.666667,297.874667 147.024,297.944 C147.381333,298.013333 147.741333,298.048 148.104,298.048 Z M156.008,295.088 L156.008,294.896 C155.922667,294.896 155.853333,294.882667 155.8,294.856 C155.746667,294.829333 155.72,294.773333 155.72,294.688 C155.72,294.613333 155.725333,294.541333 155.736,294.472 C155.746667,294.402667 155.757333,294.325333 155.768,294.24 L155.768,294.24 L156.264,289.968 C156.285333,289.84 156.317333,289.749333 156.36,289.696 C156.402667,289.642667 156.504,289.594667 156.664,289.552 L156.664,289.552 L156.664,289.36 L154.008,289.36 L154.008,289.552 C154.168,289.594667 154.269333,289.642667 154.312,289.696 C154.354667,289.749333 154.386667,289.84 154.408,289.968 L154.408,289.968 L154.904,294.24 C154.914667,294.325333 154.925333,294.402667 154.936,294.472 C154.946667,294.541333 154.952,294.613333 154.952,294.688 C154.952,294.773333 154.925333,294.829333 154.872,294.856 C154.818667,294.882667 154.749333,294.896 154.664,294.896 L154.664,294.896 L154.664,295.088 L156.008,295.088 Z M155.336,298.048 C155.613333,298.048 155.853333,297.954667 156.056,297.768 C156.258667,297.581333 156.36,297.349333 156.36,297.072 C156.36,296.794667 156.258667,296.554667 156.056,296.352 C155.853333,296.149333 155.613333,296.048 155.336,296.048 C155.058667,296.048 154.818667,296.149333 154.616,296.352 C154.413333,296.554667 154.312,296.794667 154.312,297.072 C154.312,297.349333 154.413333,297.581333 154.616,297.768 C154.818667,297.954667 155.058667,298.048 155.336,298.048 Z M38.328,314 L38.328,313.712 C38.2426667,313.712 38.168,313.688 38.104,313.64 C38.04,313.592 38.008,313.52 38.008,313.424 L38.008,313.424 L38.008,311.136 L39.352,310.096 L42.088,313.248 C42.2373333,313.429333 42.312,313.546667 42.312,313.6 C42.312,313.674667 42.2426667,313.712 42.104,313.712 L42.104,313.712 L42.104,314 L45.064,314 L45.064,313.712 C44.8826667,313.658667 44.6986667,313.554667 44.512,313.4 C44.3253333,313.245333 44.1626667,313.088 44.024,312.928 L44.024,312.928 L40.664,309.04 L44.344,306.112 C44.536,305.952 44.728,305.872 44.92,305.872 L44.92,305.872 L44.92,305.584 L41.56,305.584 L41.56,305.872 C41.624,305.872 41.68,305.888 41.728,305.92 C41.776,305.952 41.8,306.005333 41.8,306.08 C41.8,306.133333 41.7573333,306.2 41.672,306.28 C41.5866667,306.36 41.4693333,306.464 41.32,306.592 L41.32,306.592 L38.008,309.2 L38.008,306.16 C38.008,306.064 38.04,305.992 38.104,305.944 C38.168,305.896 38.2426667,305.872 38.328,305.872 L38.328,305.872 L38.328,305.584 L35.832,305.584 L35.832,305.872 C36.0666667,305.872 36.184,305.968 36.184,306.16 L36.184,306.16 L36.184,313.424 C36.184,313.616 36.0666667,313.712 35.832,313.712 L35.832,313.712 L35.832,314 L38.328,314 Z M53.256,314.176 L53.256,312.496 L52.968,312.496 C52.968,312.592 52.9253333,312.669333 52.84,312.728 C52.7546667,312.786667 52.648,312.816 52.52,312.816 L52.52,312.816 L48.424,312.816 L48.424,310.928 L50.76,310.928 C50.9733333,310.928 51.1386667,310.941333 51.256,310.968 C51.3733333,310.994667 51.416,311.066667 51.384,311.184 L51.384,311.184 L51.704,311.184 L51.704,309.488 L51.416,309.488 C51.416,309.605333 51.3733333,309.677333 51.288,309.704 C51.2026667,309.730667 51.0693333,309.744 50.888,309.744 L50.888,309.744 L48.424,309.744 L48.424,308.144 L52.328,308.144 C52.6586667,308.144 52.824,308.245333 52.824,308.448 L52.824,308.448 L53.112,308.448 L53.112,306.672 L52.824,306.672 C52.824,306.864 52.6586667,306.96 52.328,306.96 L52.328,306.96 L46.648,306.96 L46.648,307.248 C46.7013333,307.248 46.7546667,307.266667 46.808,307.304 C46.8613333,307.341333 46.888,307.402667 46.888,307.488 L46.888,307.488 L46.888,313.472 C46.888,313.557333 46.8613333,313.618667 46.808,313.656 C46.7546667,313.693333 46.7013333,313.712 46.648,313.712 L46.648,313.712 L46.648,314 L52.52,314 C52.648,314 52.7546667,314.005333 52.84,314.016 C52.9253333,314.026667 52.968,314.08 52.968,314.176 L52.968,314.176 L53.256,314.176 Z M62.152,314.176 L62.152,312.496 L61.864,312.496 C61.864,312.592 61.8213333,312.669333 61.736,312.728 C61.6506667,312.786667 61.544,312.816 61.416,312.816 L61.416,312.816 L57.32,312.816 L57.32,310.928 L59.656,310.928 C59.8693333,310.928 60.0346667,310.941333 60.152,310.968 C60.2693333,310.994667 60.312,311.066667 60.28,311.184 L60.28,311.184 L60.6,311.184 L60.6,309.488 L60.312,309.488 C60.312,309.605333 60.2693333,309.677333 60.184,309.704 C60.0986667,309.730667 59.9653333,309.744 59.784,309.744 L59.784,309.744 L57.32,309.744 L57.32,308.144 L61.224,308.144 C61.5546667,308.144 61.72,308.245333 61.72,308.448 L61.72,308.448 L62.008,308.448 L62.008,306.672 L61.72,306.672 C61.72,306.864 61.5546667,306.96 61.224,306.96 L61.224,306.96 L55.544,306.96 L55.544,307.248 C55.5973333,307.248 55.6506667,307.266667 55.704,307.304 C55.7573333,307.341333 55.784,307.402667 55.784,307.488 L55.784,307.488 L55.784,313.472 C55.784,313.557333 55.7573333,313.618667 55.704,313.656 C55.6506667,313.693333 55.5973333,313.712 55.544,313.712 L55.544,313.712 L55.544,314 L61.416,314 C61.544,314 61.6506667,314.005333 61.736,314.016 C61.8213333,314.026667 61.864,314.08 61.864,314.176 L61.864,314.176 L62.152,314.176 Z M66.472,314 L66.472,313.712 C66.248,313.712 66.136,313.632 66.136,313.472 L66.136,313.472 L66.136,311.072 L68.856,311.072 C69.72,311.072 70.368,310.925333 70.8,310.632 C71.232,310.338667 71.448,309.808 71.448,309.04 C71.448,308.272 71.232,307.733333 70.8,307.424 C70.368,307.114667 69.72,306.96 68.856,306.96 L68.856,306.96 L64.2,306.96 L64.2,307.248 C64.4666667,307.248 64.6,307.328 64.6,307.488 L64.6,307.488 L64.6,313.472 C64.6,313.632 64.4666667,313.712 64.2,313.712 L64.2,313.712 L64.2,314 L66.472,314 Z M68.824,309.888 L66.136,309.888 L66.136,308.144 L68.824,308.144 C69.1333333,308.144 69.392,308.210667 69.6,308.344 C69.808,308.477333 69.912,308.709333 69.912,309.04 C69.912,309.381333 69.808,309.608 69.6,309.72 C69.392,309.832 69.1333333,309.888 68.824,309.888 L68.824,309.888 Z M80.776,314 L80.776,313.712 C80.4773333,313.712 80.328,313.632 80.328,313.472 L80.328,313.472 L80.328,307.488 C80.328,307.328 80.4773333,307.248 80.776,307.248 L80.776,307.248 L80.776,306.96 L78.344,306.96 L78.344,307.248 C78.5146667,307.248 78.632,307.266667 78.696,307.304 C78.76,307.341333 78.792,307.402667 78.792,307.488 L78.792,307.488 L78.792,313.472 C78.792,313.557333 78.76,313.618667 78.696,313.656 C78.632,313.693333 78.5146667,313.712 78.344,313.712 L78.344,313.712 L78.344,314 L80.776,314 Z M85.496,314 L85.496,313.712 C85.272,313.712 85.16,313.632 85.16,313.472 L85.16,313.472 L85.16,308.816 L89.128,313.04 C89.256,313.178667 89.3706667,313.301333 89.472,313.408 C89.5733333,313.514667 89.624,313.589333 89.624,313.632 C89.624,313.685333 89.5866667,313.712 89.512,313.712 L89.512,313.712 L89.512,314 L91.592,314 L91.592,313.712 C91.4,313.712 91.304,313.632 91.304,313.472 L91.304,313.472 L91.304,307.488 C91.304,307.328 91.4,307.248 91.592,307.248 L91.592,307.248 L91.592,306.96 L89.64,306.96 L89.64,307.248 C89.8533333,307.248 89.96,307.328 89.96,307.488 L89.96,307.488 L89.96,311.824 L86.12,307.76 C85.8853333,307.525333 85.768,307.381333 85.768,307.328 C85.768,307.285333 85.8053333,307.258667 85.88,307.248 L85.88,307.248 L85.88,306.96 L83.528,306.96 L83.528,307.248 C83.72,307.248 83.816,307.328 83.816,307.488 L83.816,307.488 L83.816,313.472 C83.816,313.632 83.72,313.712 83.528,313.712 L83.528,313.712 L83.528,314 L85.496,314 Z M101.224,314 L101.224,313.712 C101.128,313.712 101.042667,313.693333 100.968,313.656 C100.893333,313.618667 100.856,313.557333 100.856,313.472 L100.856,313.472 L100.856,311.024 L103.672,311.024 C103.853333,311.024 103.965333,311.045333 104.008,311.088 C104.050667,311.130667 104.077333,311.194667 104.088,311.28 L104.088,311.28 L104.376,311.28 L104.376,309.6 L104.088,309.6 C104.077333,309.685333 104.050667,309.746667 104.008,309.784 C103.965333,309.821333 103.853333,309.84 103.672,309.84 L103.672,309.84 L100.856,309.84 L100.856,308.144 L105.192,308.144 C105.373333,308.144 105.501333,308.168 105.576,308.216 C105.650667,308.264 105.688,308.314667 105.688,308.368 L105.688,308.368 L105.976,308.368 L105.976,306.672 L105.688,306.672 C105.688,306.757333 105.650667,306.826667 105.576,306.88 C105.501333,306.933333 105.373333,306.96 105.192,306.96 L105.192,306.96 L98.984,306.96 L98.984,307.248 C99.208,307.248 99.32,307.328 99.32,307.488 L99.32,307.488 L99.32,313.472 C99.32,313.632 99.2186667,313.712 99.016,313.712 L99.016,313.712 L99.016,314 L101.224,314 Z M110.056,314 L110.056,313.712 C109.992,313.712 109.925333,313.693333 109.856,313.656 C109.786667,313.618667 109.752,313.557333 109.752,313.472 L109.752,313.472 L109.752,311.184 L111.976,311.184 L113.24,313.072 C113.4,313.296 113.48,313.461333 113.48,313.568 C113.48,313.664 113.410667,313.712 113.272,313.712 L113.272,313.712 L113.272,314 L115.72,314 L115.72,313.712 C115.602667,313.68 115.493333,313.634667 115.392,313.576 C115.290667,313.517333 115.197333,313.429333 115.112,313.312 L115.112,313.312 L113.544,311.024 C113.768,310.970667 113.986667,310.893333 114.2,310.792 C114.413333,310.690667 114.608,310.557333 114.784,310.392 C114.96,310.226667 115.101333,310.032 115.208,309.808 C115.314667,309.584 115.368,309.328 115.368,309.04 C115.368,308.282667 115.101333,307.746667 114.568,307.432 C114.034667,307.117333 113.293333,306.96 112.344,306.96 L112.344,306.96 L107.928,306.96 L107.928,307.248 C108.12,307.248 108.216,307.328 108.216,307.488 L108.216,307.488 L108.216,313.472 C108.216,313.632 108.12,313.712 107.928,313.712 L107.928,313.712 L107.928,314 L110.056,314 Z M112.312,310 L109.784,310 L109.784,308.144 L112.312,308.144 C112.856,308.144 113.253333,308.221333 113.504,308.376 C113.754667,308.530667 113.88,308.741333 113.88,309.008 C113.88,309.669333 113.357333,310 112.312,310 L112.312,310 Z M121.336,314.048 C121.922667,314.048 122.474667,313.981333 122.992,313.848 C123.509333,313.714667 123.96,313.498667 124.344,313.2 C124.728,312.901333 125.032,312.525333 125.256,312.072 C125.48,311.618667 125.592,311.088 125.592,310.48 C125.592,309.872 125.48,309.341333 125.256,308.888 C125.032,308.434667 124.728,308.058667 124.344,307.76 C123.96,307.461333 123.509333,307.237333 122.992,307.088 C122.474667,306.938667 121.922667,306.864 121.336,306.864 C120.749333,306.864 120.197333,306.938667 119.68,307.088 C119.162667,307.237333 118.712,307.461333 118.328,307.76 C117.944,308.058667 117.64,308.434667 117.416,308.888 C117.192,309.341333 117.08,309.872 117.08,310.48 C117.08,311.088 117.192,311.618667 117.416,312.072 C117.64,312.525333 117.944,312.901333 118.328,313.2 C118.712,313.498667 119.162667,313.714667 119.68,313.848 C120.197333,313.981333 120.749333,314.048 121.336,314.048 Z M121.336,312.912 C120.994667,312.912 120.661333,312.856 120.336,312.744 C120.010667,312.632 119.72,312.472 119.464,312.264 C119.208,312.056 119.002667,311.802667 118.848,311.504 C118.693333,311.205333 118.616,310.864 118.616,310.48 C118.616,310.096 118.693333,309.754667 118.848,309.456 C119.002667,309.157333 119.208,308.904 119.464,308.696 C119.72,308.488 120.010667,308.328 120.336,308.216 C120.661333,308.104 120.994667,308.048 121.336,308.048 C121.677333,308.048 122.010667,308.104 122.336,308.216 C122.661333,308.328 122.952,308.488 123.208,308.696 C123.464,308.904 123.669333,309.157333 123.824,309.456 C123.978667,309.754667 124.056,310.096 124.056,310.48 C124.056,310.864 123.978667,311.205333 123.824,311.504 C123.669333,311.802667 123.464,312.056 123.208,312.264 C122.952,312.472 122.661333,312.632 122.336,312.744 C122.010667,312.856 121.677333,312.912 121.336,312.912 Z M129.496,314 L129.496,313.712 C129.272,313.712 129.16,313.632 129.16,313.472 L129.16,313.472 L129.16,308.816 L133.128,313.04 C133.256,313.178667 133.370667,313.301333 133.472,313.408 C133.573333,313.514667 133.624,313.589333 133.624,313.632 C133.624,313.685333 133.586667,313.712 133.512,313.712 L133.512,313.712 L133.512,314 L135.592,314 L135.592,313.712 C135.4,313.712 135.304,313.632 135.304,313.472 L135.304,313.472 L135.304,307.488 C135.304,307.328 135.4,307.248 135.592,307.248 L135.592,307.248 L135.592,306.96 L133.64,306.96 L133.64,307.248 C133.853333,307.248 133.96,307.328 133.96,307.488 L133.96,307.488 L133.96,311.824 L130.12,307.76 C129.885333,307.525333 129.768,307.381333 129.768,307.328 C129.768,307.285333 129.805333,307.258667 129.88,307.248 L129.88,307.248 L129.88,306.96 L127.528,306.96 L127.528,307.248 C127.72,307.248 127.816,307.328 127.816,307.488 L127.816,307.488 L127.816,313.472 C127.816,313.632 127.72,313.712 127.528,313.712 L127.528,313.712 L127.528,314 L129.496,314 Z M141.96,314 L141.96,313.712 C141.768,313.712 141.672,313.632 141.672,313.472 L141.672,313.472 L141.672,308.144 L143.752,308.144 C143.837333,308.144 143.917333,308.165333 143.992,308.208 C144.066667,308.250667 144.104,308.32 144.104,308.416 L144.104,308.416 L144.392,308.416 L144.392,306.576 L144.104,306.576 C144.104,306.725333 144.066667,306.826667 143.992,306.88 C143.917333,306.933333 143.837333,306.96 143.752,306.96 L143.752,306.96 L138.056,306.96 C137.970667,306.96 137.890667,306.933333 137.816,306.88 C137.741333,306.826667 137.704,306.725333 137.704,306.576 L137.704,306.576 L137.416,306.576 L137.416,308.416 L137.704,308.416 C137.704,308.32 137.741333,308.250667 137.816,308.208 C137.890667,308.165333 137.970667,308.144 138.056,308.144 L138.056,308.144 L140.136,308.144 L140.136,313.472 C140.136,313.557333 140.109333,313.618667 140.056,313.656 C140.002667,313.693333 139.949333,313.712 139.896,313.712 L139.896,313.712 L139.896,314 L141.96,314 Z M154.664,314.048 C155.250667,314.048 155.802667,313.981333 156.32,313.848 C156.837333,313.714667 157.288,313.498667 157.672,313.2 C158.056,312.901333 158.36,312.525333 158.584,312.072 C158.808,311.618667 158.92,311.088 158.92,310.48 C158.92,309.872 158.808,309.341333 158.584,308.888 C158.36,308.434667 158.056,308.058667 157.672,307.76 C157.288,307.461333 156.837333,307.237333 156.32,307.088 C155.802667,306.938667 155.250667,306.864 154.664,306.864 C154.077333,306.864 153.525333,306.938667 153.008,307.088 C152.490667,307.237333 152.04,307.461333 151.656,307.76 C151.272,308.058667 150.968,308.434667 150.744,308.888 C150.52,309.341333 150.408,309.872 150.408,310.48 C150.408,311.088 150.52,311.618667 150.744,312.072 C150.968,312.525333 151.272,312.901333 151.656,313.2 C152.04,313.498667 152.490667,313.714667 153.008,313.848 C153.525333,313.981333 154.077333,314.048 154.664,314.048 Z M154.664,312.912 C154.322667,312.912 153.989333,312.856 153.664,312.744 C153.338667,312.632 153.048,312.472 152.792,312.264 C152.536,312.056 152.330667,311.802667 152.176,311.504 C152.021333,311.205333 151.944,310.864 151.944,310.48 C151.944,310.096 152.021333,309.754667 152.176,309.456 C152.330667,309.157333 152.536,308.904 152.792,308.696 C153.048,308.488 153.338667,308.328 153.664,308.216 C153.989333,308.104 154.322667,308.048 154.664,308.048 C155.005333,308.048 155.338667,308.104 155.664,308.216 C155.989333,308.328 156.28,308.488 156.536,308.696 C156.792,308.904 156.997333,309.157333 157.152,309.456 C157.306667,309.754667 157.384,310.096 157.384,310.48 C157.384,310.864 157.306667,311.205333 157.152,311.504 C156.997333,311.802667 156.792,312.056 156.536,312.264 C156.28,312.472 155.989333,312.632 155.664,312.744 C155.338667,312.856 155.005333,312.912 154.664,312.912 Z M163,314 L163,313.712 C162.904,313.712 162.818667,313.693333 162.744,313.656 C162.669333,313.618667 162.632,313.557333 162.632,313.472 L162.632,313.472 L162.632,311.024 L165.448,311.024 C165.629333,311.024 165.741333,311.045333 165.784,311.088 C165.826667,311.130667 165.853333,311.194667 165.864,311.28 L165.864,311.28 L166.152,311.28 L166.152,309.6 L165.864,309.6 C165.853333,309.685333 165.826667,309.746667 165.784,309.784 C165.741333,309.821333 165.629333,309.84 165.448,309.84 L165.448,309.84 L162.632,309.84 L162.632,308.144 L166.968,308.144 C167.149333,308.144 167.277333,308.168 167.352,308.216 C167.426667,308.264 167.464,308.314667 167.464,308.368 L167.464,308.368 L167.752,308.368 L167.752,306.672 L167.464,306.672 C167.464,306.757333 167.426667,306.826667 167.352,306.88 C167.277333,306.933333 167.149333,306.96 166.968,306.96 L166.968,306.96 L160.76,306.96 L160.76,307.248 C160.984,307.248 161.096,307.328 161.096,307.488 L161.096,307.488 L161.096,313.472 C161.096,313.632 160.994667,313.712 160.792,313.712 L160.792,313.712 L160.792,314 L163,314 Z M178.856,314 L178.856,313.712 C178.653333,313.712 178.552,313.632 178.552,313.472 L178.552,313.472 L178.552,311.072 L181,307.904 C181.117333,307.754667 181.253333,307.608 181.408,307.464 C181.562667,307.32 181.704,307.248 181.832,307.248 L181.832,307.248 L181.832,306.96 L179.384,306.96 L179.384,307.248 C179.437333,307.248 179.490667,307.258667 179.544,307.28 C179.597333,307.301333 179.624,307.354667 179.624,307.44 C179.624,307.504 179.6,307.570667 179.552,307.64 C179.504,307.709333 179.432,307.813333 179.336,307.952 L179.336,307.952 L177.912,309.936 L176.296,307.824 C176.242667,307.749333 176.194667,307.685333 176.152,307.632 C176.109333,307.578667 176.088,307.52 176.088,307.456 C176.088,307.392 176.12,307.341333 176.184,307.304 C176.248,307.266667 176.306667,307.248 176.36,307.248 L176.36,307.248 L176.36,306.96 L173.72,306.96 L173.72,307.248 C173.816,307.248 173.917333,307.269333 174.024,307.312 C174.130667,307.354667 174.221333,307.424 174.296,307.52 L174.296,307.52 L177.016,311.008 L177.016,313.472 C177.016,313.632 176.92,313.712 176.728,313.712 L176.728,313.712 L176.728,314 L178.856,314 Z M187.112,314.048 C187.698667,314.048 188.250667,313.981333 188.768,313.848 C189.285333,313.714667 189.736,313.498667 190.12,313.2 C190.504,312.901333 190.808,312.525333 191.032,312.072 C191.256,311.618667 191.368,311.088 191.368,310.48 C191.368,309.872 191.256,309.341333 191.032,308.888 C190.808,308.434667 190.504,308.058667 190.12,307.76 C189.736,307.461333 189.285333,307.237333 188.768,307.088 C188.250667,306.938667 187.698667,306.864 187.112,306.864 C186.525333,306.864 185.973333,306.938667 185.456,307.088 C184.938667,307.237333 184.488,307.461333 184.104,307.76 C183.72,308.058667 183.416,308.434667 183.192,308.888 C182.968,309.341333 182.856,309.872 182.856,310.48 C182.856,311.088 182.968,311.618667 183.192,312.072 C183.416,312.525333 183.72,312.901333 184.104,313.2 C184.488,313.498667 184.938667,313.714667 185.456,313.848 C185.973333,313.981333 186.525333,314.048 187.112,314.048 Z M187.112,312.912 C186.770667,312.912 186.437333,312.856 186.112,312.744 C185.786667,312.632 185.496,312.472 185.24,312.264 C184.984,312.056 184.778667,311.802667 184.624,311.504 C184.469333,311.205333 184.392,310.864 184.392,310.48 C184.392,310.096 184.469333,309.754667 184.624,309.456 C184.778667,309.157333 184.984,308.904 185.24,308.696 C185.496,308.488 185.786667,308.328 186.112,308.216 C186.437333,308.104 186.770667,308.048 187.112,308.048 C187.453333,308.048 187.786667,308.104 188.112,308.216 C188.437333,308.328 188.728,308.488 188.984,308.696 C189.24,308.904 189.445333,309.157333 189.6,309.456 C189.754667,309.754667 189.832,310.096 189.832,310.48 C189.832,310.864 189.754667,311.205333 189.6,311.504 C189.445333,311.802667 189.24,312.056 188.984,312.264 C188.728,312.472 188.437333,312.632 188.112,312.744 C187.786667,312.856 187.453333,312.912 187.112,312.912 Z M197.4,314.048 C198.04,314.048 198.597333,313.981333 199.072,313.848 C199.546667,313.714667 199.936,313.530667 200.24,313.296 C200.544,313.061333 200.770667,312.792 200.92,312.488 C201.069333,312.184 201.144,311.866667 201.144,311.536 L201.144,311.536 L201.144,307.488 C201.144,307.328 201.261333,307.248 201.496,307.248 L201.496,307.248 L201.496,306.96 L199.272,306.96 L199.272,307.248 C199.538667,307.248 199.672,307.328 199.672,307.488 L199.672,307.488 L199.672,311.152 C199.672,311.664 199.485333,312.074667 199.112,312.384 C198.738667,312.693333 198.168,312.848 197.4,312.848 C196.632,312.848 196.061333,312.693333 195.688,312.384 C195.314667,312.074667 195.128,311.664 195.128,311.152 L195.128,311.152 L195.128,307.488 C195.128,307.328 195.245333,307.248 195.48,307.248 L195.48,307.248 L195.48,306.96 L193.192,306.96 L193.192,307.248 C193.373333,307.248 193.496,307.266667 193.56,307.304 C193.624,307.341333 193.656,307.402667 193.656,307.488 L193.656,307.488 L193.656,311.536 C193.656,311.866667 193.730667,312.184 193.88,312.488 C194.029333,312.792 194.256,313.061333 194.56,313.296 C194.864,313.530667 195.253333,313.714667 195.728,313.848 C196.202667,313.981333 196.76,314.048 197.4,314.048 Z M212.616,314 L212.616,313.712 C212.424,313.712 212.328,313.632 212.328,313.472 L212.328,313.472 L212.328,308.144 L214.408,308.144 C214.493333,308.144 214.573333,308.165333 214.648,308.208 C214.722667,308.250667 214.76,308.32 214.76,308.416 L214.76,308.416 L215.048,308.416 L215.048,306.576 L214.76,306.576 C214.76,306.725333 214.722667,306.826667 214.648,306.88 C214.573333,306.933333 214.493333,306.96 214.408,306.96 L214.408,306.96 L208.712,306.96 C208.626667,306.96 208.546667,306.933333 208.472,306.88 C208.397333,306.826667 208.36,306.725333 208.36,306.576 L208.36,306.576 L208.072,306.576 L208.072,308.416 L208.36,308.416 C208.36,308.32 208.397333,308.250667 208.472,308.208 C208.546667,308.165333 208.626667,308.144 208.712,308.144 L208.712,308.144 L210.792,308.144 L210.792,313.472 C210.792,313.557333 210.765333,313.618667 210.712,313.656 C210.658667,313.693333 210.605333,313.712 210.552,313.712 L210.552,313.712 L210.552,314 L212.616,314 Z M220.44,314.048 C221.026667,314.048 221.578667,313.981333 222.096,313.848 C222.613333,313.714667 223.064,313.498667 223.448,313.2 C223.832,312.901333 224.136,312.525333 224.36,312.072 C224.584,311.618667 224.696,311.088 224.696,310.48 C224.696,309.872 224.584,309.341333 224.36,308.888 C224.136,308.434667 223.832,308.058667 223.448,307.76 C223.064,307.461333 222.613333,307.237333 222.096,307.088 C221.578667,306.938667 221.026667,306.864 220.44,306.864 C219.853333,306.864 219.301333,306.938667 218.784,307.088 C218.266667,307.237333 217.816,307.461333 217.432,307.76 C217.048,308.058667 216.744,308.434667 216.52,308.888 C216.296,309.341333 216.184,309.872 216.184,310.48 C216.184,311.088 216.296,311.618667 216.52,312.072 C216.744,312.525333 217.048,312.901333 217.432,313.2 C217.816,313.498667 218.266667,313.714667 218.784,313.848 C219.301333,313.981333 219.853333,314.048 220.44,314.048 Z M220.44,312.912 C220.098667,312.912 219.765333,312.856 219.44,312.744 C219.114667,312.632 218.824,312.472 218.568,312.264 C218.312,312.056 218.106667,311.802667 217.952,311.504 C217.797333,311.205333 217.72,310.864 217.72,310.48 C217.72,310.096 217.797333,309.754667 217.952,309.456 C218.106667,309.157333 218.312,308.904 218.568,308.696 C218.824,308.488 219.114667,308.328 219.44,308.216 C219.765333,308.104 220.098667,308.048 220.44,308.048 C220.781333,308.048 221.114667,308.104 221.44,308.216 C221.765333,308.328 222.056,308.488 222.312,308.696 C222.568,308.904 222.773333,309.157333 222.928,309.456 C223.082667,309.754667 223.16,310.096 223.16,310.48 C223.16,310.864 223.082667,311.205333 222.928,311.504 C222.773333,311.802667 222.568,312.056 222.312,312.264 C222.056,312.472 221.765333,312.632 221.44,312.744 C221.114667,312.856 220.781333,312.912 220.44,312.912 Z M36.664,330 L36.664,329.712 C36.44,329.712 36.328,329.632 36.328,329.472 L36.328,329.472 L36.328,327.072 L39.048,327.072 C39.912,327.072 40.56,326.925333 40.992,326.632 C41.424,326.338667 41.64,325.808 41.64,325.04 C41.64,324.272 41.424,323.733333 40.992,323.424 C40.56,323.114667 39.912,322.96 39.048,322.96 L39.048,322.96 L34.392,322.96 L34.392,323.248 C34.6586667,323.248 34.792,323.328 34.792,323.488 L34.792,323.488 L34.792,329.472 C34.792,329.632 34.6586667,329.712 34.392,329.712 L34.392,329.712 L34.392,330 L36.664,330 Z M39.016,325.888 L36.328,325.888 L36.328,324.144 L39.016,324.144 C39.3253333,324.144 39.584,324.210667 39.792,324.344 C40,324.477333 40.104,324.709333 40.104,325.04 C40.104,325.381333 40,325.608 39.792,325.72 C39.584,325.832 39.3253333,325.888 39.016,325.888 L39.016,325.888 Z M45.592,330 L45.592,329.712 C45.528,329.712 45.4613333,329.693333 45.392,329.656 C45.3226667,329.618667 45.288,329.557333 45.288,329.472 L45.288,329.472 L45.288,327.184 L47.512,327.184 L48.776,329.072 C48.936,329.296 49.016,329.461333 49.016,329.568 C49.016,329.664 48.9466667,329.712 48.808,329.712 L48.808,329.712 L48.808,330 L51.256,330 L51.256,329.712 C51.1386667,329.68 51.0293333,329.634667 50.928,329.576 C50.8266667,329.517333 50.7333333,329.429333 50.648,329.312 L50.648,329.312 L49.08,327.024 C49.304,326.970667 49.5226667,326.893333 49.736,326.792 C49.9493333,326.690667 50.144,326.557333 50.32,326.392 C50.496,326.226667 50.6373333,326.032 50.744,325.808 C50.8506667,325.584 50.904,325.328 50.904,325.04 C50.904,324.282667 50.6373333,323.746667 50.104,323.432 C49.5706667,323.117333 48.8293333,322.96 47.88,322.96 L47.88,322.96 L43.464,322.96 L43.464,323.248 C43.656,323.248 43.752,323.328 43.752,323.488 L43.752,323.488 L43.752,329.472 C43.752,329.632 43.656,329.712 43.464,329.712 L43.464,329.712 L43.464,330 L45.592,330 Z M47.848,326 L45.32,326 L45.32,324.144 L47.848,324.144 C48.392,324.144 48.7893333,324.221333 49.04,324.376 C49.2906667,324.530667 49.416,324.741333 49.416,325.008 C49.416,325.669333 48.8933333,326 47.848,326 L47.848,326 Z M56.872,330.048 C57.4586667,330.048 58.0106667,329.981333 58.528,329.848 C59.0453333,329.714667 59.496,329.498667 59.88,329.2 C60.264,328.901333 60.568,328.525333 60.792,328.072 C61.016,327.618667 61.128,327.088 61.128,326.48 C61.128,325.872 61.016,325.341333 60.792,324.888 C60.568,324.434667 60.264,324.058667 59.88,323.76 C59.496,323.461333 59.0453333,323.237333 58.528,323.088 C58.0106667,322.938667 57.4586667,322.864 56.872,322.864 C56.2853333,322.864 55.7333333,322.938667 55.216,323.088 C54.6986667,323.237333 54.248,323.461333 53.864,323.76 C53.48,324.058667 53.176,324.434667 52.952,324.888 C52.728,325.341333 52.616,325.872 52.616,326.48 C52.616,327.088 52.728,327.618667 52.952,328.072 C53.176,328.525333 53.48,328.901333 53.864,329.2 C54.248,329.498667 54.6986667,329.714667 55.216,329.848 C55.7333333,329.981333 56.2853333,330.048 56.872,330.048 Z M56.872,328.912 C56.5306667,328.912 56.1973333,328.856 55.872,328.744 C55.5466667,328.632 55.256,328.472 55,328.264 C54.744,328.056 54.5386667,327.802667 54.384,327.504 C54.2293333,327.205333 54.152,326.864 54.152,326.48 C54.152,326.096 54.2293333,325.754667 54.384,325.456 C54.5386667,325.157333 54.744,324.904 55,324.696 C55.256,324.488 55.5466667,324.328 55.872,324.216 C56.1973333,324.104 56.5306667,324.048 56.872,324.048 C57.2133333,324.048 57.5466667,324.104 57.872,324.216 C58.1973333,324.328 58.488,324.488 58.744,324.696 C59,324.904 59.2053333,325.157333 59.36,325.456 C59.5146667,325.754667 59.592,326.096 59.592,326.48 C59.592,326.864 59.5146667,327.205333 59.36,327.504 C59.2053333,327.802667 59,328.056 58.744,328.264 C58.488,328.472 58.1973333,328.632 57.872,328.744 C57.5466667,328.856 57.2133333,328.912 56.872,328.912 Z M66.824,330 L66.824,329.712 C66.632,329.712 66.536,329.632 66.536,329.472 L66.536,329.472 L66.536,324.144 L68.616,324.144 C68.7013333,324.144 68.7813333,324.165333 68.856,324.208 C68.9306667,324.250667 68.968,324.32 68.968,324.416 L68.968,324.416 L69.256,324.416 L69.256,322.576 L68.968,322.576 C68.968,322.725333 68.9306667,322.826667 68.856,322.88 C68.7813333,322.933333 68.7013333,322.96 68.616,322.96 L68.616,322.96 L62.92,322.96 C62.8346667,322.96 62.7546667,322.933333 62.68,322.88 C62.6053333,322.826667 62.568,322.725333 62.568,322.576 L62.568,322.576 L62.28,322.576 L62.28,324.416 L62.568,324.416 C62.568,324.32 62.6053333,324.250667 62.68,324.208 C62.7546667,324.165333 62.8346667,324.144 62.92,324.144 L62.92,324.144 L65,324.144 L65,329.472 C65,329.557333 64.9733333,329.618667 64.92,329.656 C64.8666667,329.693333 64.8133333,329.712 64.76,329.712 L64.76,329.712 L64.76,330 L66.824,330 Z M77.688,330.176 L77.688,328.496 L77.4,328.496 C77.4,328.592 77.3573333,328.669333 77.272,328.728 C77.1866667,328.786667 77.08,328.816 76.952,328.816 L76.952,328.816 L72.856,328.816 L72.856,326.928 L75.192,326.928 C75.4053333,326.928 75.5706667,326.941333 75.688,326.968 C75.8053333,326.994667 75.848,327.066667 75.816,327.184 L75.816,327.184 L76.136,327.184 L76.136,325.488 L75.848,325.488 C75.848,325.605333 75.8053333,325.677333 75.72,325.704 C75.6346667,325.730667 75.5013333,325.744 75.32,325.744 L75.32,325.744 L72.856,325.744 L72.856,324.144 L76.76,324.144 C77.0906667,324.144 77.256,324.245333 77.256,324.448 L77.256,324.448 L77.544,324.448 L77.544,322.672 L77.256,322.672 C77.256,322.864 77.0906667,322.96 76.76,322.96 L76.76,322.96 L71.08,322.96 L71.08,323.248 C71.1333333,323.248 71.1866667,323.266667 71.24,323.304 C71.2933333,323.341333 71.32,323.402667 71.32,323.488 L71.32,323.488 L71.32,329.472 C71.32,329.557333 71.2933333,329.618667 71.24,329.656 C71.1866667,329.693333 71.1333333,329.712 71.08,329.712 L71.08,329.712 L71.08,330 L76.952,330 C77.08,330 77.1866667,330.005333 77.272,330.016 C77.3573333,330.026667 77.4,330.08 77.4,330.176 L77.4,330.176 L77.688,330.176 Z M83.176,330.048 C83.656,330.048 84.0906667,330.005333 84.48,329.92 C84.8693333,329.834667 85.2106667,329.730667 85.504,329.608 C85.7973333,329.485333 86.04,329.376 86.232,329.28 C86.424,329.184 86.5626667,329.136 86.648,329.136 C86.7013333,329.136 86.792,329.162667 86.92,329.216 L86.92,329.216 L87.08,329.136 L85.896,327.44 L85.72,327.6 C85.7306667,327.642667 85.736,327.696 85.736,327.76 L85.736,327.76 L85.736,327.888 C85.736,327.984 85.6586667,328.090667 85.504,328.208 C85.3493333,328.325333 85.1493333,328.434667 84.904,328.536 C84.6586667,328.637333 84.3866667,328.725333 84.088,328.8 C83.7893333,328.874667 83.496,328.912 83.208,328.912 C82.8986667,328.912 82.5946667,328.856 82.296,328.744 C81.9973333,328.632 81.7306667,328.466667 81.496,328.248 C81.2613333,328.029333 81.072,327.768 80.928,327.464 C80.784,327.16 80.712,326.816 80.712,326.432 C80.712,326.048 80.776,325.706667 80.904,325.408 C81.032,325.109333 81.2133333,324.858667 81.448,324.656 C81.6826667,324.453333 81.9573333,324.301333 82.272,324.2 C82.5866667,324.098667 82.936,324.048 83.32,324.048 C83.64,324.048 83.9333333,324.077333 84.2,324.136 C84.4666667,324.194667 84.6986667,324.266667 84.896,324.352 C85.0933333,324.437333 85.2453333,324.525333 85.352,324.616 C85.4586667,324.706667 85.512,324.778667 85.512,324.832 C85.512,324.864 85.5146667,324.890667 85.52,324.912 C85.5253333,324.933333 85.528,324.954667 85.528,324.976 L85.528,324.976 L85.704,325.104 L86.76,323.584 L86.568,323.472 C86.5253333,323.493333 86.4853333,323.52 86.448,323.552 C86.4106667,323.584 86.3653333,323.6 86.312,323.6 C86.2373333,323.6 86.1146667,323.562667 85.944,323.488 C85.7733333,323.413333 85.56,323.328 85.304,323.232 C85.048,323.136 84.752,323.050667 84.416,322.976 C84.08,322.901333 83.7093333,322.864 83.304,322.864 C82.7813333,322.864 82.272,322.938667 81.776,323.088 C81.28,323.237333 80.84,323.464 80.456,323.768 C80.072,324.072 79.7626667,324.448 79.528,324.896 C79.2933333,325.344 79.176,325.866667 79.176,326.464 C79.176,327.061333 79.2933333,327.586667 79.528,328.04 C79.7626667,328.493333 80.0666667,328.872 80.44,329.176 C80.8133333,329.48 81.24,329.701333 81.72,329.84 C82.2,329.978667 82.6853333,330.048 83.176,330.048 Z M92.616,330 L92.616,329.712 C92.424,329.712 92.328,329.632 92.328,329.472 L92.328,329.472 L92.328,324.144 L94.408,324.144 C94.4933333,324.144 94.5733333,324.165333 94.648,324.208 C94.7226667,324.250667 94.76,324.32 94.76,324.416 L94.76,324.416 L95.048,324.416 L95.048,322.576 L94.76,322.576 C94.76,322.725333 94.7226667,322.826667 94.648,322.88 C94.5733333,322.933333 94.4933333,322.96 94.408,322.96 L94.408,322.96 L88.712,322.96 C88.6266667,322.96 88.5466667,322.933333 88.472,322.88 C88.3973333,322.826667 88.36,322.725333 88.36,322.576 L88.36,322.576 L88.072,322.576 L88.072,324.416 L88.36,324.416 C88.36,324.32 88.3973333,324.250667 88.472,324.208 C88.5466667,324.165333 88.6266667,324.144 88.712,324.144 L88.712,324.144 L90.792,324.144 L90.792,329.472 C90.792,329.557333 90.7653333,329.618667 90.712,329.656 C90.6586667,329.693333 90.6053333,329.712 90.552,329.712 L90.552,329.712 L90.552,330 L92.616,330 Z M103.88,330 L103.88,329.712 C103.784,329.712 103.698667,329.693333 103.624,329.656 C103.549333,329.618667 103.512,329.557333 103.512,329.472 L103.512,329.472 L103.512,327.024 L106.328,327.024 C106.509333,327.024 106.621333,327.045333 106.664,327.088 C106.706667,327.130667 106.733333,327.194667 106.744,327.28 L106.744,327.28 L107.032,327.28 L107.032,325.6 L106.744,325.6 C106.733333,325.685333 106.706667,325.746667 106.664,325.784 C106.621333,325.821333 106.509333,325.84 106.328,325.84 L106.328,325.84 L103.512,325.84 L103.512,324.144 L107.848,324.144 C108.029333,324.144 108.157333,324.168 108.232,324.216 C108.306667,324.264 108.344,324.314667 108.344,324.368 L108.344,324.368 L108.632,324.368 L108.632,322.672 L108.344,322.672 C108.344,322.757333 108.306667,322.826667 108.232,322.88 C108.157333,322.933333 108.029333,322.96 107.848,322.96 L107.848,322.96 L101.64,322.96 L101.64,323.248 C101.864,323.248 101.976,323.328 101.976,323.488 L101.976,323.488 L101.976,329.472 C101.976,329.632 101.874667,329.712 101.672,329.712 L101.672,329.712 L101.672,330 L103.88,330 Z M112.712,330 L112.712,329.712 C112.648,329.712 112.581333,329.693333 112.512,329.656 C112.442667,329.618667 112.408,329.557333 112.408,329.472 L112.408,329.472 L112.408,327.184 L114.632,327.184 L115.896,329.072 C116.056,329.296 116.136,329.461333 116.136,329.568 C116.136,329.664 116.066667,329.712 115.928,329.712 L115.928,329.712 L115.928,330 L118.376,330 L118.376,329.712 C118.258667,329.68 118.149333,329.634667 118.048,329.576 C117.946667,329.517333 117.853333,329.429333 117.768,329.312 L117.768,329.312 L116.2,327.024 C116.424,326.970667 116.642667,326.893333 116.856,326.792 C117.069333,326.690667 117.264,326.557333 117.44,326.392 C117.616,326.226667 117.757333,326.032 117.864,325.808 C117.970667,325.584 118.024,325.328 118.024,325.04 C118.024,324.282667 117.757333,323.746667 117.224,323.432 C116.690667,323.117333 115.949333,322.96 115,322.96 L115,322.96 L110.584,322.96 L110.584,323.248 C110.776,323.248 110.872,323.328 110.872,323.488 L110.872,323.488 L110.872,329.472 C110.872,329.632 110.776,329.712 110.584,329.712 L110.584,329.712 L110.584,330 L112.712,330 Z M114.968,326 L112.44,326 L112.44,324.144 L114.968,324.144 C115.512,324.144 115.909333,324.221333 116.16,324.376 C116.410667,324.530667 116.536,324.741333 116.536,325.008 C116.536,325.669333 116.013333,326 114.968,326 L114.968,326 Z M123.992,330.048 C124.578667,330.048 125.130667,329.981333 125.648,329.848 C126.165333,329.714667 126.616,329.498667 127,329.2 C127.384,328.901333 127.688,328.525333 127.912,328.072 C128.136,327.618667 128.248,327.088 128.248,326.48 C128.248,325.872 128.136,325.341333 127.912,324.888 C127.688,324.434667 127.384,324.058667 127,323.76 C126.616,323.461333 126.165333,323.237333 125.648,323.088 C125.130667,322.938667 124.578667,322.864 123.992,322.864 C123.405333,322.864 122.853333,322.938667 122.336,323.088 C121.818667,323.237333 121.368,323.461333 120.984,323.76 C120.6,324.058667 120.296,324.434667 120.072,324.888 C119.848,325.341333 119.736,325.872 119.736,326.48 C119.736,327.088 119.848,327.618667 120.072,328.072 C120.296,328.525333 120.6,328.901333 120.984,329.2 C121.368,329.498667 121.818667,329.714667 122.336,329.848 C122.853333,329.981333 123.405333,330.048 123.992,330.048 Z M123.992,328.912 C123.650667,328.912 123.317333,328.856 122.992,328.744 C122.666667,328.632 122.376,328.472 122.12,328.264 C121.864,328.056 121.658667,327.802667 121.504,327.504 C121.349333,327.205333 121.272,326.864 121.272,326.48 C121.272,326.096 121.349333,325.754667 121.504,325.456 C121.658667,325.157333 121.864,324.904 122.12,324.696 C122.376,324.488 122.666667,324.328 122.992,324.216 C123.317333,324.104 123.650667,324.048 123.992,324.048 C124.333333,324.048 124.666667,324.104 124.992,324.216 C125.317333,324.328 125.608,324.488 125.864,324.696 C126.12,324.904 126.325333,325.157333 126.48,325.456 C126.634667,325.754667 126.712,326.096 126.712,326.48 C126.712,326.864 126.634667,327.205333 126.48,327.504 C126.325333,327.802667 126.12,328.056 125.864,328.264 C125.608,328.472 125.317333,328.632 124.992,328.744 C124.666667,328.856 124.333333,328.912 123.992,328.912 Z M132.184,330 L132.184,329.712 C132.002667,329.712 131.912,329.632 131.912,329.472 L131.912,329.472 L131.912,324.976 L131.928,324.976 L134.504,330 L134.632,330 L137.352,324.976 L137.384,324.976 L137.384,329.472 C137.416,329.632 137.32,329.712 137.096,329.712 L137.096,329.712 L137.096,330 L138.952,330 L138.952,329.712 C138.898667,329.712 138.848,329.693333 138.8,329.656 C138.752,329.618667 138.728,329.557333 138.728,329.472 L138.728,329.472 L138.728,323.456 C138.728,323.370667 138.752,323.314667 138.8,323.288 C138.848,323.261333 138.898667,323.248 138.952,323.248 L138.952,323.248 L138.952,322.96 L136.696,322.96 L136.696,323.248 C136.781333,323.248 136.824,323.296 136.824,323.392 C136.824,323.424 136.802667,323.48 136.76,323.56 C136.717333,323.64 136.658667,323.744 136.584,323.872 L136.584,323.872 L134.616,327.456 L132.664,323.856 C132.589333,323.728 132.533333,323.629333 132.496,323.56 C132.458667,323.490667 132.44,323.434667 132.44,323.392 C132.44,323.296 132.493333,323.248 132.6,323.248 L132.6,323.248 L132.6,322.96 L130.376,322.96 L130.376,323.248 C130.450667,323.248 130.501333,323.264 130.528,323.296 C130.554667,323.328 130.568,323.418667 130.568,323.568 L130.568,323.568 L130.568,329.424 C130.568,329.541333 130.549333,329.616 130.512,329.648 C130.474667,329.68 130.429333,329.701333 130.376,329.712 L130.376,329.712 L130.376,330 L132.184,330 Z M154.984,330.304 L154.984,328.112 L154.696,328.112 C154.696,328.24 154.645333,328.341333 154.544,328.416 C154.442667,328.490667 154.312,328.528 154.152,328.528 L154.152,328.528 L148.808,328.528 L148.808,326.32 L151.944,326.32 C152.157333,326.32 152.322667,326.354667 152.44,326.424 C152.557333,326.493333 152.616,326.650667 152.616,326.896 L152.616,326.896 L152.904,326.896 L152.904,324.4 L152.616,324.4 C152.616,324.645333 152.557333,324.797333 152.44,324.856 C152.322667,324.914667 152.157333,324.944 151.944,324.944 L151.944,324.944 L148.808,324.944 L148.808,322.96 L153.992,322.96 C154.216,322.96 154.373333,322.989333 154.464,323.048 C154.554667,323.106667 154.6,323.194667 154.6,323.312 L154.6,323.312 L154.888,323.312 L154.888,321.2 L154.6,321.2 C154.6,321.317333 154.554667,321.410667 154.464,321.48 C154.373333,321.549333 154.216,321.584 153.992,321.584 L153.992,321.584 L146.696,321.584 L146.696,321.872 C146.770667,321.872 146.837333,321.896 146.896,321.944 C146.954667,321.992 146.984,322.064 146.984,322.16 L146.984,322.16 L146.984,329.424 C146.984,329.52 146.954667,329.592 146.896,329.64 C146.837333,329.688 146.770667,329.712 146.696,329.712 L146.696,329.712 L146.696,330 L154.152,330 C154.312,330 154.442667,330.010667 154.544,330.032 C154.645333,330.053333 154.696,330.144 154.696,330.304 L154.696,330.304 L154.984,330.304 Z M158.936,330 L158.936,329.712 C158.84,329.712 158.792,329.674667 158.792,329.6 C158.792,329.525333 158.866667,329.397333 159.016,329.216 L159.016,329.216 L160.376,327.552 L161.768,329.264 C161.885333,329.445333 161.944,329.552 161.944,329.584 C161.944,329.658667 161.906667,329.701333 161.832,329.712 L161.832,329.712 L161.832,330 L164.28,330 L164.28,329.712 C164.12,329.712 163.981333,329.637333 163.864,329.488 C163.746667,329.338667 163.645333,329.216 163.56,329.12 L163.56,329.12 L161.336,326.32 L163.752,323.408 C163.858667,323.301333 163.997333,323.248 164.168,323.248 L164.168,323.248 L164.168,322.96 L161.72,322.96 L161.72,323.248 C161.858667,323.248 161.928,323.290667 161.928,323.376 C161.928,323.461333 161.842667,323.605333 161.672,323.808 L161.672,323.808 L160.456,325.296 L159.336,323.936 C159.24,323.818667 159.16,323.717333 159.096,323.632 C159.032,323.546667 159,323.477333 159,323.424 C159,323.306667 159.064,323.248 159.192,323.248 L159.192,323.248 L159.192,322.96 L156.68,322.96 L156.68,323.248 C156.754667,323.248 156.84,323.282667 156.936,323.352 C157.032,323.421333 157.154667,323.546667 157.304,323.728 L157.304,323.728 L159.512,326.48 L157.08,329.472 C157.005333,329.568 156.922667,329.632 156.832,329.664 C156.741333,329.696 156.664,329.712 156.6,329.712 L156.6,329.712 L156.6,330 L158.936,330 Z M168.232,330 L168.232,329.712 C168.008,329.712 167.896,329.632 167.896,329.472 L167.896,329.472 L167.896,327.072 L170.616,327.072 C171.48,327.072 172.128,326.925333 172.56,326.632 C172.992,326.338667 173.208,325.808 173.208,325.04 C173.208,324.272 172.992,323.733333 172.56,323.424 C172.128,323.114667 171.48,322.96 170.616,322.96 L170.616,322.96 L165.96,322.96 L165.96,323.248 C166.226667,323.248 166.36,323.328 166.36,323.488 L166.36,323.488 L166.36,329.472 C166.36,329.632 166.226667,329.712 165.96,329.712 L165.96,329.712 L165.96,330 L168.232,330 Z M170.584,325.888 L167.896,325.888 L167.896,324.144 L170.584,324.144 C170.893333,324.144 171.152,324.210667 171.36,324.344 C171.568,324.477333 171.672,324.709333 171.672,325.04 C171.672,325.381333 171.568,325.608 171.36,325.72 C171.152,325.832 170.893333,325.888 170.584,325.888 L170.584,325.888 Z M178.664,330.048 C179.250667,330.048 179.802667,329.981333 180.32,329.848 C180.837333,329.714667 181.288,329.498667 181.672,329.2 C182.056,328.901333 182.36,328.525333 182.584,328.072 C182.808,327.618667 182.92,327.088 182.92,326.48 C182.92,325.872 182.808,325.341333 182.584,324.888 C182.36,324.434667 182.056,324.058667 181.672,323.76 C181.288,323.461333 180.837333,323.237333 180.32,323.088 C179.802667,322.938667 179.250667,322.864 178.664,322.864 C178.077333,322.864 177.525333,322.938667 177.008,323.088 C176.490667,323.237333 176.04,323.461333 175.656,323.76 C175.272,324.058667 174.968,324.434667 174.744,324.888 C174.52,325.341333 174.408,325.872 174.408,326.48 C174.408,327.088 174.52,327.618667 174.744,328.072 C174.968,328.525333 175.272,328.901333 175.656,329.2 C176.04,329.498667 176.490667,329.714667 177.008,329.848 C177.525333,329.981333 178.077333,330.048 178.664,330.048 Z M178.664,328.912 C178.322667,328.912 177.989333,328.856 177.664,328.744 C177.338667,328.632 177.048,328.472 176.792,328.264 C176.536,328.056 176.330667,327.802667 176.176,327.504 C176.021333,327.205333 175.944,326.864 175.944,326.48 C175.944,326.096 176.021333,325.754667 176.176,325.456 C176.330667,325.157333 176.536,324.904 176.792,324.696 C177.048,324.488 177.338667,324.328 177.664,324.216 C177.989333,324.104 178.322667,324.048 178.664,324.048 C179.005333,324.048 179.338667,324.104 179.664,324.216 C179.989333,324.328 180.28,324.488 180.536,324.696 C180.792,324.904 180.997333,325.157333 181.152,325.456 C181.306667,325.754667 181.384,326.096 181.384,326.48 C181.384,326.864 181.306667,327.205333 181.152,327.504 C180.997333,327.802667 180.792,328.056 180.536,328.264 C180.28,328.472 179.989333,328.632 179.664,328.744 C179.338667,328.856 179.005333,328.912 178.664,328.912 Z M187.88,330.048 C188.242667,330.048 188.629333,330.021333 189.04,329.968 C189.450667,329.914667 189.826667,329.802667 190.168,329.632 C190.509333,329.461333 190.794667,329.226667 191.024,328.928 C191.253333,328.629333 191.368,328.245333 191.368,327.776 C191.368,327.306667 191.237333,326.938667 190.976,326.672 C190.714667,326.405333 190.386667,326.202667 189.992,326.064 C189.597333,325.925333 189.170667,325.826667 188.712,325.768 C188.253333,325.709333 187.826667,325.650667 187.432,325.592 C187.037333,325.533333 186.709333,325.453333 186.448,325.352 C186.186667,325.250667 186.056,325.082667 186.056,324.848 C186.056,324.698667 186.098667,324.573333 186.184,324.472 C186.269333,324.370667 186.386667,324.288 186.536,324.224 C186.685333,324.16 186.856,324.114667 187.048,324.088 C187.24,324.061333 187.442667,324.048 187.656,324.048 C188.210667,324.048 188.712,324.112 189.16,324.24 C189.608,324.368 189.938667,324.522667 190.152,324.704 C190.237333,324.768 190.285333,324.832 190.296,324.896 C190.306667,324.96 190.317333,325.024 190.328,325.088 L190.328,325.088 L190.616,325.184 L191.416,323.68 L191.24,323.504 C191.176,323.536 191.122667,323.565333 191.08,323.592 C191.037333,323.618667 190.973333,323.632 190.888,323.632 C190.813333,323.632 190.698667,323.592 190.544,323.512 C190.389333,323.432 190.189333,323.344 189.944,323.248 C189.698667,323.152 189.397333,323.064 189.04,322.984 C188.682667,322.904 188.253333,322.864 187.752,322.864 C186.728,322.864 185.933333,323.066667 185.368,323.472 C184.802667,323.877333 184.52,324.421333 184.52,325.104 C184.52,325.562667 184.650667,325.917333 184.912,326.168 C185.173333,326.418667 185.501333,326.610667 185.896,326.744 C186.290667,326.877333 186.717333,326.973333 187.176,327.032 C187.634667,327.090667 188.061333,327.149333 188.456,327.208 C188.850667,327.266667 189.178667,327.349333 189.44,327.456 C189.701333,327.562667 189.832,327.733333 189.832,327.968 C189.832,328.170667 189.757333,328.333333 189.608,328.456 C189.458667,328.578667 189.277333,328.674667 189.064,328.744 C188.850667,328.813333 188.634667,328.858667 188.416,328.88 C188.197333,328.901333 188.013333,328.912 187.864,328.912 C187.704,328.912 187.482667,328.885333 187.2,328.832 C186.917333,328.778667 186.634667,328.706667 186.352,328.616 C186.069333,328.525333 185.826667,328.413333 185.624,328.28 C185.421333,328.146667 185.32,328 185.32,327.84 C185.32,327.786667 185.322667,327.736 185.328,327.688 C185.333333,327.64 185.336,327.594667 185.336,327.552 L185.336,327.552 L185.032,327.472 L184.296,329.264 L184.52,329.424 C184.573333,329.36 184.637333,329.328 184.712,329.328 C184.754667,329.328 184.877333,329.368 185.08,329.448 C185.282667,329.528 185.530667,329.613333 185.824,329.704 C186.117333,329.794667 186.442667,329.874667 186.8,329.944 C187.157333,330.013333 187.517333,330.048 187.88,330.048 Z M197.848,330.048 C198.488,330.048 199.045333,329.981333 199.52,329.848 C199.994667,329.714667 200.384,329.530667 200.688,329.296 C200.992,329.061333 201.218667,328.792 201.368,328.488 C201.517333,328.184 201.592,327.866667 201.592,327.536 L201.592,327.536 L201.592,323.488 C201.592,323.328 201.709333,323.248 201.944,323.248 L201.944,323.248 L201.944,322.96 L199.72,322.96 L199.72,323.248 C199.986667,323.248 200.12,323.328 200.12,323.488 L200.12,323.488 L200.12,327.152 C200.12,327.664 199.933333,328.074667 199.56,328.384 C199.186667,328.693333 198.616,328.848 197.848,328.848 C197.08,328.848 196.509333,328.693333 196.136,328.384 C195.762667,328.074667 195.576,327.664 195.576,327.152 L195.576,327.152 L195.576,323.488 C195.576,323.328 195.693333,323.248 195.928,323.248 L195.928,323.248 L195.928,322.96 L193.64,322.96 L193.64,323.248 C193.821333,323.248 193.944,323.266667 194.008,323.304 C194.072,323.341333 194.104,323.402667 194.104,323.488 L194.104,323.488 L194.104,327.536 C194.104,327.866667 194.178667,328.184 194.328,328.488 C194.477333,328.792 194.704,329.061333 195.008,329.296 C195.312,329.530667 195.701333,329.714667 196.176,329.848 C196.650667,329.981333 197.208,330.048 197.848,330.048 Z M206.504,330 L206.504,329.712 C206.44,329.712 206.373333,329.693333 206.304,329.656 C206.234667,329.618667 206.2,329.557333 206.2,329.472 L206.2,329.472 L206.2,327.184 L208.424,327.184 L209.688,329.072 C209.848,329.296 209.928,329.461333 209.928,329.568 C209.928,329.664 209.858667,329.712 209.72,329.712 L209.72,329.712 L209.72,330 L212.168,330 L212.168,329.712 C212.050667,329.68 211.941333,329.634667 211.84,329.576 C211.738667,329.517333 211.645333,329.429333 211.56,329.312 L211.56,329.312 L209.992,327.024 C210.216,326.970667 210.434667,326.893333 210.648,326.792 C210.861333,326.690667 211.056,326.557333 211.232,326.392 C211.408,326.226667 211.549333,326.032 211.656,325.808 C211.762667,325.584 211.816,325.328 211.816,325.04 C211.816,324.282667 211.549333,323.746667 211.016,323.432 C210.482667,323.117333 209.741333,322.96 208.792,322.96 L208.792,322.96 L204.376,322.96 L204.376,323.248 C204.568,323.248 204.664,323.328 204.664,323.488 L204.664,323.488 L204.664,329.472 C204.664,329.632 204.568,329.712 204.376,329.712 L204.376,329.712 L204.376,330 L206.504,330 Z M208.76,326 L206.232,326 L206.232,324.144 L208.76,324.144 C209.304,324.144 209.701333,324.221333 209.952,324.376 C210.202667,324.530667 210.328,324.741333 210.328,325.008 C210.328,325.669333 209.805333,326 208.76,326 L208.76,326 Z M220.824,330.176 L220.824,328.496 L220.536,328.496 C220.536,328.592 220.493333,328.669333 220.408,328.728 C220.322667,328.786667 220.216,328.816 220.088,328.816 L220.088,328.816 L215.992,328.816 L215.992,326.928 L218.328,326.928 C218.541333,326.928 218.706667,326.941333 218.824,326.968 C218.941333,326.994667 218.984,327.066667 218.952,327.184 L218.952,327.184 L219.272,327.184 L219.272,325.488 L218.984,325.488 C218.984,325.605333 218.941333,325.677333 218.856,325.704 C218.770667,325.730667 218.637333,325.744 218.456,325.744 L218.456,325.744 L215.992,325.744 L215.992,324.144 L219.896,324.144 C220.226667,324.144 220.392,324.245333 220.392,324.448 L220.392,324.448 L220.68,324.448 L220.68,322.672 L220.392,322.672 C220.392,322.864 220.226667,322.96 219.896,322.96 L219.896,322.96 L214.216,322.96 L214.216,323.248 C214.269333,323.248 214.322667,323.266667 214.376,323.304 C214.429333,323.341333 214.456,323.402667 214.456,323.488 L214.456,323.488 L214.456,329.472 C214.456,329.557333 214.429333,329.618667 214.376,329.656 C214.322667,329.693333 214.269333,329.712 214.216,329.712 L214.216,329.712 L214.216,330 L220.088,330 C220.216,330 220.322667,330.005333 220.408,330.016 C220.493333,330.026667 220.536,330.08 220.536,330.176 L220.536,330.176 L220.824,330.176 Z M224.232,330.048 C224.541333,330.048 224.808,329.944 225.032,329.736 C225.256,329.528 225.368,329.269333 225.368,328.96 C225.368,328.650667 225.256,328.384 225.032,328.16 C224.808,327.936 224.541333,327.824 224.232,327.824 C223.922667,327.824 223.656,327.936 223.432,328.16 C223.208,328.384 223.096,328.650667 223.096,328.96 C223.096,329.269333 223.208,329.528 223.432,329.736 C223.656,329.944 223.922667,330.048 224.232,330.048 Z" id="Doesitwork?whoknows!KeepinfrontofyoutoprotectfromExposure." fill="#000000" fill-rule="nonzero"></path>
        <path d="M83.364,52.072 C83.94,52.072 84.528,52.056 85.128,52.024 C85.728,51.992 86.328,51.908 86.928,51.772 C87.528,51.636 88.12,51.448 88.704,51.208 C89.288,50.968 89.844,50.664 90.372,50.296 L90.372,50.296 L90.372,49.912 C90.244,49.848 90.132,49.792 90.036,49.744 C89.94,49.696 89.892,49.592 89.892,49.432 L89.892,49.432 L89.892,46.72 C89.892,46.512 89.932,46.376 90.012,46.312 C90.092,46.248 90.292,46.192 90.612,46.144 L90.612,46.144 L90.612,45.712 L84.612,45.712 C84.388,45.712 84.22,45.676 84.108,45.604 C83.996,45.532 83.924,45.36 83.892,45.088 L83.892,45.088 L83.46,45.088 L83.46,48.16 L83.892,48.16 C83.924,47.84 83.996,47.632 84.108,47.536 C84.22,47.44 84.388,47.392 84.612,47.392 L84.612,47.392 L87.684,47.392 L87.684,49.456 C87.172,49.632 86.552,49.796 85.824,49.948 C85.096,50.1 84.276,50.176 83.364,50.176 C82.772,50.176 82.184,50.092 81.6,49.924 C81.016,49.756 80.496,49.496 80.04,49.144 C79.584,48.792 79.216,48.332 78.936,47.764 C78.656,47.196 78.516,46.52 78.516,45.736 C78.516,44.936 78.656,44.256 78.936,43.696 C79.216,43.136 79.584,42.68 80.04,42.328 C80.496,41.976 81.016,41.716 81.6,41.548 C82.184,41.38 82.772,41.296 83.364,41.296 C83.844,41.296 84.352,41.328 84.888,41.392 C85.424,41.456 85.92,41.556 86.376,41.692 C86.832,41.828 87.208,41.992 87.504,42.184 C87.8,42.376 87.948,42.592 87.948,42.832 C87.948,42.928 87.932,43.024 87.9,43.12 L87.9,43.12 L88.38,43.264 L89.796,40.096 L89.508,39.928 C89.428,39.976 89.348,40.032 89.268,40.096 C89.188,40.16 89.076,40.192 88.932,40.192 C88.852,40.192 88.648,40.14 88.32,40.036 C87.992,39.932 87.58,39.82 87.084,39.7 C86.588,39.58 86.02,39.472 85.38,39.376 C84.74,39.28 84.068,39.232 83.364,39.232 C82.244,39.232 81.224,39.38 80.304,39.676 C79.384,39.972 78.596,40.4 77.94,40.96 C77.284,41.52 76.776,42.196 76.416,42.988 C76.056,43.78 75.876,44.68 75.876,45.688 C75.876,46.696 76.056,47.596 76.416,48.388 C76.776,49.18 77.284,49.852 77.94,50.404 C78.596,50.956 79.384,51.372 80.304,51.652 C81.224,51.932 82.244,52.072 83.364,52.072 Z M95.724,52 L95.724,51.568 C95.58,51.568 95.468,51.552 95.388,51.52 C95.308,51.488 95.268,51.408 95.268,51.28 C95.268,51.2 95.288,51.108 95.328,51.004 C95.368,50.9 95.42,50.784 95.484,50.656 L95.484,50.656 L96.156,49.36 L101.292,49.36 L101.94,50.728 C101.988,50.856 102.028,50.96 102.06,51.04 C102.092,51.12 102.108,51.208 102.108,51.304 C102.108,51.432 102.064,51.52 101.976,51.568 C101.888,51.616 101.804,51.64 101.724,51.64 L101.724,51.64 L101.724,52 L105.132,52 L105.132,51.568 C105.02,51.536 104.916,51.488 104.82,51.424 C104.724,51.36 104.636,51.256 104.556,51.112 L104.556,51.112 L100.668,42.952 C100.588,42.776 100.512,42.62 100.44,42.484 C100.368,42.348 100.332,42.232 100.332,42.136 C100.332,42.024 100.36,41.96 100.416,41.944 C100.472,41.928 100.524,41.904 100.572,41.872 L100.572,41.872 L100.572,41.44 L96.948,41.44 L96.948,41.872 C96.996,41.904 97.04,41.932 97.08,41.956 C97.12,41.98 97.14,42.04 97.14,42.136 C97.14,42.264 97.112,42.396 97.056,42.532 C97,42.668 96.924,42.848 96.828,43.072 L96.828,43.072 L93.252,50.872 C93.188,51 93.096,51.14 92.976,51.292 C92.856,51.444 92.7,51.536 92.508,51.568 L92.508,51.568 L92.508,52 L95.724,52 Z M100.524,47.584 L96.876,47.584 L98.58,43.552 L100.524,47.584 Z M111.972,52.072 C112.516,52.072 113.096,52.032 113.712,51.952 C114.328,51.872 114.892,51.704 115.404,51.448 C115.916,51.192 116.344,50.84 116.688,50.392 C117.032,49.944 117.204,49.368 117.204,48.664 C117.204,47.96 117.008,47.408 116.616,47.008 C116.224,46.608 115.732,46.304 115.14,46.096 C114.548,45.888 113.908,45.74 113.22,45.652 C112.532,45.564 111.892,45.476 111.3,45.388 C110.708,45.3 110.216,45.18 109.824,45.028 C109.432,44.876 109.236,44.624 109.236,44.272 C109.236,44.048 109.3,43.86 109.428,43.708 C109.556,43.556 109.732,43.432 109.956,43.336 C110.18,43.24 110.436,43.172 110.724,43.132 C111.012,43.092 111.316,43.072 111.636,43.072 C112.468,43.072 113.22,43.168 113.892,43.36 C114.564,43.552 115.06,43.784 115.38,44.056 C115.508,44.152 115.58,44.248 115.596,44.344 L115.596,44.344 L115.644,44.632 L116.076,44.776 L117.276,42.52 L117.012,42.256 C116.916,42.304 116.836,42.348 116.772,42.388 C116.708,42.428 116.612,42.448 116.484,42.448 C116.372,42.448 116.2,42.388 115.968,42.268 C115.736,42.148 115.436,42.016 115.068,41.872 C114.7,41.728 114.248,41.596 113.712,41.476 C113.176,41.356 112.532,41.296 111.78,41.296 C110.244,41.296 109.052,41.6 108.204,42.208 C107.356,42.816 106.932,43.632 106.932,44.656 C106.932,45.344 107.128,45.876 107.52,46.252 C107.912,46.628 108.404,46.916 108.996,47.116 C109.588,47.316 110.228,47.46 110.916,47.548 C111.604,47.636 112.244,47.724 112.836,47.812 C113.428,47.9 113.92,48.024 114.312,48.184 C114.704,48.344 114.9,48.6 114.9,48.952 C114.9,49.256 114.788,49.5 114.564,49.684 C114.34,49.868 114.068,50.012 113.748,50.116 C113.428,50.22 113.104,50.288 112.776,50.32 C112.448,50.352 112.172,50.368 111.948,50.368 C111.708,50.368 111.376,50.328 110.952,50.248 C110.528,50.168 110.104,50.06 109.68,49.924 C109.256,49.788 108.892,49.62 108.588,49.42 C108.284,49.22 108.132,49 108.132,48.76 C108.132,48.68 108.136,48.604 108.144,48.532 C108.152,48.46 108.156,48.392 108.156,48.328 L108.156,48.328 L107.7,48.208 L106.596,50.896 L106.932,51.136 C107.012,51.04 107.108,50.992 107.22,50.992 C107.284,50.992 107.468,51.052 107.772,51.172 C108.076,51.292 108.448,51.42 108.888,51.556 C109.328,51.692 109.816,51.812 110.352,51.916 C110.888,52.02 111.428,52.072 111.972,52.072 Z M131.868,52 L131.868,51.568 C131.42,51.568 131.196,51.424 131.196,51.136 L131.196,51.136 L131.196,43.144 L131.244,43.144 L135.972,52 L136.044,52 L140.868,43.168 L140.916,43.168 L140.916,51.136 C140.916,51.424 140.7,51.568 140.268,51.568 L140.268,51.568 L140.268,52 L144.036,52 L144.036,51.568 C143.908,51.568 143.796,51.532 143.7,51.46 C143.604,51.388 143.556,51.28 143.556,51.136 L143.556,51.136 L143.556,40.192 C143.556,40.048 143.604,39.948 143.7,39.892 C143.796,39.836 143.908,39.808 144.036,39.808 L144.036,39.808 L144.036,39.376 L139.596,39.376 L139.596,39.808 C139.804,39.808 139.908,39.896 139.908,40.072 C139.908,40.168 139.88,40.276 139.824,40.396 C139.768,40.516 139.684,40.68 139.572,40.888 L139.572,40.888 L136.116,47.056 L132.684,40.816 C132.604,40.672 132.532,40.536 132.468,40.408 C132.404,40.28 132.372,40.176 132.372,40.096 C132.372,40 132.416,39.928 132.504,39.88 C132.592,39.832 132.676,39.808 132.756,39.808 L132.756,39.808 L132.756,39.376 L128.268,39.376 L128.268,39.808 C128.396,39.808 128.508,39.836 128.604,39.892 C128.7,39.948 128.748,40.048 128.748,40.192 L128.748,40.192 L128.748,51.136 C128.748,51.28 128.7,51.388 128.604,51.46 C128.508,51.532 128.396,51.568 128.268,51.568 L128.268,51.568 L128.268,52 L131.868,52 Z M149.724,52 L149.724,51.568 C149.58,51.568 149.468,51.552 149.388,51.52 C149.308,51.488 149.268,51.408 149.268,51.28 C149.268,51.2 149.288,51.108 149.328,51.004 C149.368,50.9 149.42,50.784 149.484,50.656 L149.484,50.656 L150.156,49.36 L155.292,49.36 L155.94,50.728 C155.988,50.856 156.028,50.96 156.06,51.04 C156.092,51.12 156.108,51.208 156.108,51.304 C156.108,51.432 156.064,51.52 155.976,51.568 C155.888,51.616 155.804,51.64 155.724,51.64 L155.724,51.64 L155.724,52 L159.132,52 L159.132,51.568 C159.02,51.536 158.916,51.488 158.82,51.424 C158.724,51.36 158.636,51.256 158.556,51.112 L158.556,51.112 L154.668,42.952 C154.588,42.776 154.512,42.62 154.44,42.484 C154.368,42.348 154.332,42.232 154.332,42.136 C154.332,42.024 154.36,41.96 154.416,41.944 C154.472,41.928 154.524,41.904 154.572,41.872 L154.572,41.872 L154.572,41.44 L150.948,41.44 L150.948,41.872 C150.996,41.904 151.04,41.932 151.08,41.956 C151.12,41.98 151.14,42.04 151.14,42.136 C151.14,42.264 151.112,42.396 151.056,42.532 C151,42.668 150.924,42.848 150.828,43.072 L150.828,43.072 L147.252,50.872 C147.188,51 147.096,51.14 146.976,51.292 C146.856,51.444 146.7,51.536 146.508,51.568 L146.508,51.568 L146.508,52 L149.724,52 Z M154.524,47.584 L150.876,47.584 L152.58,43.552 L154.524,47.584 Z M165.972,52.072 C166.516,52.072 167.096,52.032 167.712,51.952 C168.328,51.872 168.892,51.704 169.404,51.448 C169.916,51.192 170.344,50.84 170.688,50.392 C171.032,49.944 171.204,49.368 171.204,48.664 C171.204,47.96 171.008,47.408 170.616,47.008 C170.224,46.608 169.732,46.304 169.14,46.096 C168.548,45.888 167.908,45.74 167.22,45.652 C166.532,45.564 165.892,45.476 165.3,45.388 C164.708,45.3 164.216,45.18 163.824,45.028 C163.432,44.876 163.236,44.624 163.236,44.272 C163.236,44.048 163.3,43.86 163.428,43.708 C163.556,43.556 163.732,43.432 163.956,43.336 C164.18,43.24 164.436,43.172 164.724,43.132 C165.012,43.092 165.316,43.072 165.636,43.072 C166.468,43.072 167.22,43.168 167.892,43.36 C168.564,43.552 169.06,43.784 169.38,44.056 C169.508,44.152 169.58,44.248 169.596,44.344 L169.596,44.344 L169.644,44.632 L170.076,44.776 L171.276,42.52 L171.012,42.256 C170.916,42.304 170.836,42.348 170.772,42.388 C170.708,42.428 170.612,42.448 170.484,42.448 C170.372,42.448 170.2,42.388 169.968,42.268 C169.736,42.148 169.436,42.016 169.068,41.872 C168.7,41.728 168.248,41.596 167.712,41.476 C167.176,41.356 166.532,41.296 165.78,41.296 C164.244,41.296 163.052,41.6 162.204,42.208 C161.356,42.816 160.932,43.632 160.932,44.656 C160.932,45.344 161.128,45.876 161.52,46.252 C161.912,46.628 162.404,46.916 162.996,47.116 C163.588,47.316 164.228,47.46 164.916,47.548 C165.604,47.636 166.244,47.724 166.836,47.812 C167.428,47.9 167.92,48.024 168.312,48.184 C168.704,48.344 168.9,48.6 168.9,48.952 C168.9,49.256 168.788,49.5 168.564,49.684 C168.34,49.868 168.068,50.012 167.748,50.116 C167.428,50.22 167.104,50.288 166.776,50.32 C166.448,50.352 166.172,50.368 165.948,50.368 C165.708,50.368 165.376,50.328 164.952,50.248 C164.528,50.168 164.104,50.06 163.68,49.924 C163.256,49.788 162.892,49.62 162.588,49.42 C162.284,49.22 162.132,49 162.132,48.76 C162.132,48.68 162.136,48.604 162.144,48.532 C162.152,48.46 162.156,48.392 162.156,48.328 L162.156,48.328 L161.7,48.208 L160.596,50.896 L160.932,51.136 C161.012,51.04 161.108,50.992 161.22,50.992 C161.284,50.992 161.468,51.052 161.772,51.172 C162.076,51.292 162.448,51.42 162.888,51.556 C163.328,51.692 163.816,51.812 164.352,51.916 C164.888,52.02 165.428,52.072 165.972,52.072 Z M177.756,52 L177.756,51.568 C177.452,51.568 177.3,51.448 177.3,51.208 L177.3,51.208 L177.3,48.52 L179.172,47.032 L182.124,50.632 C182.332,50.872 182.472,51.048 182.544,51.16 C182.616,51.272 182.652,51.36 182.652,51.424 C182.652,51.52 182.564,51.568 182.388,51.568 L182.388,51.568 L182.388,52 L185.94,52 L185.94,51.568 C185.716,51.504 185.492,51.348 185.268,51.1 C185.044,50.852 184.836,50.608 184.644,50.368 L184.644,50.368 L180.852,45.664 L184.86,42.424 C185.244,42.12 185.532,41.936 185.724,41.872 L185.724,41.872 L185.724,41.44 L181.764,41.44 L181.764,41.8 C181.844,41.8 181.928,41.824 182.016,41.872 C182.104,41.92 182.148,41.984 182.148,42.064 C182.148,42.128 181.996,42.292 181.692,42.556 C181.388,42.82 181.004,43.144 180.54,43.528 C180.076,43.912 179.556,44.332 178.98,44.788 C178.404,45.244 177.844,45.696 177.3,46.144 L177.3,46.144 L177.3,42.232 C177.3,41.992 177.452,41.872 177.756,41.872 L177.756,41.872 L177.756,41.44 L174.612,41.44 L174.612,41.872 C174.868,41.872 174.996,41.992 174.996,42.232 L174.996,42.232 L174.996,51.208 C174.996,51.448 174.868,51.568 174.612,51.568 L174.612,51.568 L174.612,52 L177.756,52 Z" id="GasMask" fill="#000000" fill-rule="nonzero"></path>
        <path d="M221.32,30.312 L221.32,27.12 L221.032,27.12 C221.032,27.44 220.956,27.632 220.804,27.696 C220.652,27.76 220.488,27.792 220.312,27.792 L220.312,27.792 L212.392,27.792 L212.392,27.552 C212.824,27.152 213.324,26.824 213.892,26.568 C214.46,26.312 215.052,26.068 215.668,25.836 C216.284,25.604 216.888,25.368 217.48,25.128 C218.072,24.888 218.604,24.596 219.076,24.252 C219.548,23.908 219.928,23.488 220.216,22.992 C220.504,22.496 220.648,21.872 220.648,21.12 C220.648,20.416 220.508,19.82 220.228,19.332 C219.948,18.844 219.58,18.444 219.124,18.132 C218.668,17.82 218.148,17.592 217.564,17.448 C216.98,17.304 216.384,17.232 215.776,17.232 C214.848,17.232 214.048,17.352 213.376,17.592 C212.704,17.832 212.144,18.096 211.696,18.384 C211.248,18.672 210.896,18.936 210.64,19.176 C210.384,19.416 210.208,19.536 210.112,19.536 C210.032,19.536 209.96,19.52 209.896,19.488 L209.896,19.488 L209.704,19.392 L209.464,19.56 L211.936,22.2 L212.176,22.032 C212.112,21.984 212.06,21.896 212.02,21.768 C211.98,21.64 211.96,21.536 211.96,21.456 C211.96,21.12 212.092,20.82 212.356,20.556 C212.62,20.292 212.936,20.064 213.304,19.872 C213.672,19.68 214.056,19.536 214.456,19.44 C214.856,19.344 215.192,19.296 215.464,19.296 C215.736,19.296 216.016,19.32 216.304,19.368 C216.592,19.416 216.856,19.508 217.096,19.644 C217.336,19.78 217.532,19.956 217.684,20.172 C217.836,20.388 217.912,20.664 217.912,21 C217.912,21.496 217.7,21.928 217.276,22.296 C216.852,22.664 216.32,23.02 215.68,23.364 C215.04,23.708 214.352,24.056 213.616,24.408 C212.88,24.76 212.192,25.168 211.552,25.632 C210.912,26.096 210.38,26.632 209.956,27.24 C209.532,27.848 209.32,28.576 209.32,29.424 L209.32,29.424 L209.32,30.288 L209.608,30.288 C209.608,30.144 209.664,30.06 209.776,30.036 C209.888,30.012 210.032,30 210.208,30 L210.208,30 L220.312,30 C220.488,30 220.652,30.008 220.804,30.024 C220.956,30.04 221.032,30.136 221.032,30.312 L221.032,30.312 L221.32,30.312 Z" id="2" fill="#000000" fill-rule="nonzero"></path>
        <rect id="Rectangle" stroke="#000000" stroke-width="3" x="17.5" y="262.5" width="225" height="79" rx="8"></rect>
        <g id="Shield" transform="translate(228.000000, 14.000000)">
            <path d="M8.49995999,0.602112563 C12.0897673,3.01641898 14.3691227,5.26828283 15.2949432,7.38765451 C16.2117539,9.48640089 16.5982137,12.4858222 16.4790644,16.3788474 C14.3118398,16.4138174 12.5519303,16.6869111 11.1969506,17.1872006 C9.99244943,17.63193 9.09798447,18.2570837 8.49839684,19.0475319 C7.89890333,18.2569851 7.00448445,17.6318949 5.80007824,17.1872006 C4.44518737,16.6869438 2.68541961,16.4138532 0.518468664,16.3785506 C0.406586815,12.4686409 0.792651083,9.46951569 1.70208563,7.38765451 C2.62063669,5.28492398 4.90094203,3.03287984 8.49995999,0.602112563 Z" id="Triangle" stroke="#000000" transform="translate(8.500000, 10.000000) scale(1, -1) translate(-8.500000, -10.000000) "></path>
            <path d="M8.49896481,3 C11.1890912,4.79034724 12.8741761,6.46743058 13.5542196,8.03125 C14.2342631,9.59506942 14.5151106,11.8554861 14.3967621,14.8125 C11.167016,14.8125 9.20108353,15.5416667 8.49896481,17 C7.79684609,15.5416667 5.83091366,14.8125 2.60116754,14.8125 C2.48836139,11.8427409 2.76920888,9.58232426 3.44371001,8.03125 C4.11821113,6.48017574 5.80329607,4.80309241 8.49896481,3 Z" id="Triangle-Copy" fill="#000000" transform="translate(8.500000, 10.000000) scale(1, -1) translate(-8.500000, -10.000000) "></path>
        </g>
    </g>
</svg>