<?xml version="1.0" encoding="UTF-8"?>
<svg width="262px" height="360px" viewBox="0 0 262 360" version="1.1" xmlns="http://www.w3.org/2000/svg" xmlns:xlink="http://www.w3.org/1999/xlink">
    <title>Loss of Taste 1</title>
    <g id="Loss-of-Taste-1" stroke="none" stroke-width="1" fill="none" fill-rule="evenodd">
        <g id="Group" transform="translate(9.000000, 9.000000)" fill="#FFFFFF" stroke="#000000" stroke-width="3">
            <g id="Rectangle">
                <rect x="1.5" y="1.5" width="239" height="337" rx="8"></rect>
            </g>
        </g>
        <path d="M219.82,30.312 L219.82,27.12 L219.532,27.12 C219.532,27.44 219.456,27.632 219.304,27.696 C219.152,27.76 218.988,27.792 218.812,27.792 L218.812,27.792 L210.892,27.792 L210.892,27.552 C211.324,27.152 211.824,26.824 212.392,26.568 C212.96,26.312 213.552,26.068 214.168,25.836 C214.784,25.604 215.388,25.368 215.98,25.128 C216.572,24.888 217.104,24.596 217.576,24.252 C218.048,23.908 218.428,23.488 218.716,22.992 C219.004,22.496 219.148,21.872 219.148,21.12 C219.148,20.416 219.008,19.82 218.728,19.332 C218.448,18.844 218.08,18.444 217.624,18.132 C217.168,17.82 216.648,17.592 216.064,17.448 C215.48,17.304 214.884,17.232 214.276,17.232 C213.348,17.232 212.548,17.352 211.876,17.592 C211.204,17.832 210.644,18.096 210.196,18.384 C209.748,18.672 209.396,18.936 209.14,19.176 C208.884,19.416 208.708,19.536 208.612,19.536 C208.532,19.536 208.46,19.52 208.396,19.488 L208.396,19.488 L208.204,19.392 L207.964,19.56 L210.436,22.2 L210.676,22.032 C210.612,21.984 210.56,21.896 210.52,21.768 C210.48,21.64 210.46,21.536 210.46,21.456 C210.46,21.12 210.592,20.82 210.856,20.556 C211.12,20.292 211.436,20.064 211.804,19.872 C212.172,19.68 212.556,19.536 212.956,19.44 C213.356,19.344 213.692,19.296 213.964,19.296 C214.236,19.296 214.516,19.32 214.804,19.368 C215.092,19.416 215.356,19.508 215.596,19.644 C215.836,19.78 216.032,19.956 216.184,20.172 C216.336,20.388 216.412,20.664 216.412,21 C216.412,21.496 216.2,21.928 215.776,22.296 C215.352,22.664 214.82,23.02 214.18,23.364 C213.54,23.708 212.852,24.056 212.116,24.408 C211.38,24.76 210.692,25.168 210.052,25.632 C209.412,26.096 208.88,26.632 208.456,27.24 C208.032,27.848 207.82,28.576 207.82,29.424 L207.82,29.424 L207.82,30.288 L208.108,30.288 C208.108,30.144 208.164,30.06 208.276,30.036 C208.388,30.012 208.532,30 208.708,30 L208.708,30 L218.812,30 C218.988,30 219.152,30.008 219.304,30.024 C219.456,30.04 219.532,30.136 219.532,30.312 L219.532,30.312 L219.82,30.312 Z" id="2" fill="#000000" fill-rule="nonzero"></path>
        <g id="Face" transform="translate(225.000000, 15.000000)">
            <circle id="Oval" stroke="#000000" fill="#FFFFFF" cx="9.5" cy="9.5" r="9"></circle>
            <circle id="Oval" fill="#000000" cx="5" cy="8" r="1"></circle>
            <circle id="Oval-Copy" fill="#000000" cx="12" cy="8" r="1"></circle>
            <line x1="12.0789474" y1="13.9090909" x2="14.5" y2="11.5" id="Line-4" stroke="#000000" stroke-linecap="round"></line>
            <path d="M3,5.89285714 C3.41025641,5.96428571 3.76923077,6 4.07692308,6 C4.38461538,6 5.35897436,5.33333333 7,4" id="Line-2" stroke="#000000"></path>
            <path d="M6,15 C6.96078431,14.3333333 8.07598039,14 9.34558824,14 C10.6151961,14 11.8333333,14.3333333 13,15" id="Line" stroke="#000000" stroke-linecap="round" stroke-linejoin="round"></path>
            <path d="M11.3197366,4.68245322 C11.585843,4.80663622 11.7912611,4.92388646 11.9359908,5.03420394 C12.548667,5.50120471 13.1333088,5.70898724 13.3155349,5.80010028 C13.5440857,5.91437569 13.8101922,6.00751295 14.1138542,6.07951204" id="Line-3" stroke="#000000" stroke-linecap="square" transform="translate(12.716795, 5.380983) rotate(-3.000000) translate(-12.716795, -5.380983) "></path>
            <path d="M2.999,9.347 L3.01687864,9.39698204 C3.09438102,9.62639002 3.1880913,9.89570266 3.30282211,10.2112791 C3.48139895,10.7024692 3.54804655,11.0169045 3.47980817,11.2204078 C3.41244402,11.421304 3.17143148,11.4011566 3.01518318,11.4416373 L3.01518318,11.4416373 L2.86575433,11.4813457 C2.78836954,11.5029149 2.70310591,11.5126925 2.63007237,11.4810832 C2.58941161,11.463485 2.56030088,11.4264037 2.54036126,11.376794 C2.4446463,11.1386559 2.49784548,10.759559 2.69717789,10.2112791 C2.8119087,9.89570266 2.90561898,9.62639002 2.98312136,9.39698204 L2.999,9.347 Z" id="Oval" stroke="#000000"></path>
            <path d="M16,6.347 L16.0168786,6.39698204 C16.094381,6.62639002 16.1880913,6.89570266 16.3028221,7.21127907 C16.481399,7.70246915 16.5480465,8.01690453 16.4798082,8.22040783 C16.412444,8.42130397 16.1714315,8.40115659 16.0151832,8.44163726 L16.0151832,8.44163726 L15.8657543,8.48134574 C15.7883695,8.50291486 15.7031059,8.51269255 15.6300724,8.48108319 C15.5894116,8.46348497 15.5603009,8.42640366 15.5403613,8.37679403 C15.4446463,8.13865595 15.4978455,7.75955902 15.6971779,7.21127907 C15.8119087,6.89570266 15.905619,6.62639002 15.9831214,6.39698204 L16,6.347 Z" id="Oval-Copy-2" stroke="#000000"></path>
        </g>
        <rect id="Rectangle" stroke="#000000" stroke-width="3" x="17.5" y="257.5" width="225" height="84" rx="8"></rect>
        <path d="M83.804,57.684 L83.804,52.752 L83.156,52.752 C83.156,53.04 83.042,53.268 82.814,53.436 C82.586,53.604 82.292,53.688 81.932,53.688 L81.932,53.688 L69.98,53.688 L69.98,39.36 C69.98,38.928 70.316,38.712 70.988,38.712 L70.988,38.712 L70.988,38.064 L64.796,38.064 L64.796,38.712 C65.516,38.712 65.876,38.928 65.876,39.36 L65.876,39.36 L65.876,55.704 C65.876,56.136 65.516,56.352 64.796,56.352 L64.796,56.352 L64.796,57 L81.932,57 C82.292,57 82.586,57.024 82.814,57.072 C83.042,57.12 83.156,57.324 83.156,57.684 L83.156,57.684 L83.804,57.684 Z M95.468,57.108 C96.788,57.108 98.03,56.958 99.194,56.658 C100.358,56.358 101.372,55.872 102.236,55.2 C103.1,54.528 103.784,53.682 104.288,52.662 C104.792,51.642 105.044,50.448 105.044,49.08 C105.044,47.712 104.792,46.518 104.288,45.498 C103.784,44.478 103.1,43.632 102.236,42.96 C101.372,42.288 100.358,41.784 99.194,41.448 C98.03,41.112 96.788,40.944 95.468,40.944 C94.148,40.944 92.906,41.112 91.742,41.448 C90.578,41.784 89.564,42.288 88.7,42.96 C87.836,43.632 87.152,44.478 86.648,45.498 C86.144,46.518 85.892,47.712 85.892,49.08 C85.892,50.448 86.144,51.642 86.648,52.662 C87.152,53.682 87.836,54.528 88.7,55.2 C89.564,55.872 90.578,56.358 91.742,56.658 C92.906,56.958 94.148,57.108 95.468,57.108 Z M95.468,54.552 C94.7,54.552 93.95,54.426 93.218,54.174 C92.486,53.922 91.832,53.562 91.256,53.094 C90.68,52.626 90.218,52.056 89.87,51.384 C89.522,50.712 89.348,49.944 89.348,49.08 C89.348,48.216 89.522,47.448 89.87,46.776 C90.218,46.104 90.68,45.534 91.256,45.066 C91.832,44.598 92.486,44.238 93.218,43.986 C93.95,43.734 94.7,43.608 95.468,43.608 C96.236,43.608 96.986,43.734 97.718,43.986 C98.45,44.238 99.104,44.598 99.68,45.066 C100.256,45.534 100.718,46.104 101.066,46.776 C101.414,47.448 101.588,48.216 101.588,49.08 C101.588,49.944 101.414,50.712 101.066,51.384 C100.718,52.056 100.256,52.626 99.68,53.094 C99.104,53.562 98.45,53.922 97.718,54.174 C96.986,54.426 96.236,54.552 95.468,54.552 Z M116.204,57.108 C117.02,57.108 117.89,57.048 118.814,56.928 C119.738,56.808 120.584,56.556 121.352,56.172 C122.12,55.788 122.762,55.26 123.278,54.588 C123.794,53.916 124.052,53.052 124.052,51.996 C124.052,50.94 123.758,50.112 123.17,49.512 C122.582,48.912 121.844,48.456 120.956,48.144 C120.068,47.832 119.108,47.61 118.076,47.478 C117.044,47.346 116.084,47.214 115.196,47.082 C114.308,46.95 113.57,46.77 112.982,46.542 C112.394,46.314 112.1,45.936 112.1,45.408 C112.1,45.072 112.196,44.79 112.388,44.562 C112.58,44.334 112.844,44.148 113.18,44.004 C113.516,43.86 113.9,43.758 114.332,43.698 C114.764,43.638 115.22,43.608 115.7,43.608 C116.948,43.608 118.076,43.752 119.084,44.04 C120.092,44.328 120.836,44.676 121.316,45.084 C121.508,45.228 121.616,45.372 121.64,45.516 L121.64,45.516 L121.712,45.948 L122.36,46.164 L124.16,42.78 L123.764,42.384 C123.62,42.456 123.5,42.522 123.404,42.582 C123.308,42.642 123.164,42.672 122.972,42.672 C122.804,42.672 122.546,42.582 122.198,42.402 C121.85,42.222 121.4,42.024 120.848,41.808 C120.296,41.592 119.618,41.394 118.814,41.214 C118.01,41.034 117.044,40.944 115.916,40.944 C113.612,40.944 111.824,41.4 110.552,42.312 C109.28,43.224 108.644,44.448 108.644,45.984 C108.644,47.016 108.938,47.814 109.526,48.378 C110.114,48.942 110.852,49.374 111.74,49.674 C112.628,49.974 113.588,50.19 114.62,50.322 C115.652,50.454 116.612,50.586 117.5,50.718 C118.388,50.85 119.126,51.036 119.714,51.276 C120.302,51.516 120.596,51.9 120.596,52.428 C120.596,52.884 120.428,53.25 120.092,53.526 C119.756,53.802 119.348,54.018 118.868,54.174 C118.388,54.33 117.902,54.432 117.41,54.48 C116.918,54.528 116.504,54.552 116.168,54.552 C115.808,54.552 115.31,54.492 114.674,54.372 C114.038,54.252 113.402,54.09 112.766,53.886 C112.13,53.682 111.584,53.43 111.128,53.13 C110.672,52.83 110.444,52.5 110.444,52.14 C110.444,52.02 110.45,51.906 110.462,51.798 C110.474,51.69 110.48,51.588 110.48,51.492 L110.48,51.492 L109.796,51.312 L108.14,55.344 L108.644,55.704 C108.764,55.56 108.908,55.488 109.076,55.488 C109.172,55.488 109.448,55.578 109.904,55.758 C110.36,55.938 110.918,56.13 111.578,56.334 C112.238,56.538 112.97,56.718 113.774,56.874 C114.578,57.03 115.388,57.108 116.204,57.108 Z M136.22,57.108 C137.036,57.108 137.906,57.048 138.83,56.928 C139.754,56.808 140.6,56.556 141.368,56.172 C142.136,55.788 142.778,55.26 143.294,54.588 C143.81,53.916 144.068,53.052 144.068,51.996 C144.068,50.94 143.774,50.112 143.186,49.512 C142.598,48.912 141.86,48.456 140.972,48.144 C140.084,47.832 139.124,47.61 138.092,47.478 C137.06,47.346 136.1,47.214 135.212,47.082 C134.324,46.95 133.586,46.77 132.998,46.542 C132.41,46.314 132.116,45.936 132.116,45.408 C132.116,45.072 132.212,44.79 132.404,44.562 C132.596,44.334 132.86,44.148 133.196,44.004 C133.532,43.86 133.916,43.758 134.348,43.698 C134.78,43.638 135.236,43.608 135.716,43.608 C136.964,43.608 138.092,43.752 139.1,44.04 C140.108,44.328 140.852,44.676 141.332,45.084 C141.524,45.228 141.632,45.372 141.656,45.516 L141.656,45.516 L141.728,45.948 L142.376,46.164 L144.176,42.78 L143.78,42.384 C143.636,42.456 143.516,42.522 143.42,42.582 C143.324,42.642 143.18,42.672 142.988,42.672 C142.82,42.672 142.562,42.582 142.214,42.402 C141.866,42.222 141.416,42.024 140.864,41.808 C140.312,41.592 139.634,41.394 138.83,41.214 C138.026,41.034 137.06,40.944 135.932,40.944 C133.628,40.944 131.84,41.4 130.568,42.312 C129.296,43.224 128.66,44.448 128.66,45.984 C128.66,47.016 128.954,47.814 129.542,48.378 C130.13,48.942 130.868,49.374 131.756,49.674 C132.644,49.974 133.604,50.19 134.636,50.322 C135.668,50.454 136.628,50.586 137.516,50.718 C138.404,50.85 139.142,51.036 139.73,51.276 C140.318,51.516 140.612,51.9 140.612,52.428 C140.612,52.884 140.444,53.25 140.108,53.526 C139.772,53.802 139.364,54.018 138.884,54.174 C138.404,54.33 137.918,54.432 137.426,54.48 C136.934,54.528 136.52,54.552 136.184,54.552 C135.824,54.552 135.326,54.492 134.69,54.372 C134.054,54.252 133.418,54.09 132.782,53.886 C132.146,53.682 131.6,53.43 131.144,53.13 C130.688,52.83 130.46,52.5 130.46,52.14 C130.46,52.02 130.466,51.906 130.478,51.798 C130.49,51.69 130.496,51.588 130.496,51.492 L130.496,51.492 L129.812,51.312 L128.156,55.344 L128.66,55.704 C128.78,55.56 128.924,55.488 129.092,55.488 C129.188,55.488 129.464,55.578 129.92,55.758 C130.376,55.938 130.934,56.13 131.594,56.334 C132.254,56.538 132.986,56.718 133.79,56.874 C134.594,57.03 135.404,57.108 136.22,57.108 Z M168.476,57.108 C169.796,57.108 171.038,56.958 172.202,56.658 C173.366,56.358 174.38,55.872 175.244,55.2 C176.108,54.528 176.792,53.682 177.296,52.662 C177.8,51.642 178.052,50.448 178.052,49.08 C178.052,47.712 177.8,46.518 177.296,45.498 C176.792,44.478 176.108,43.632 175.244,42.96 C174.38,42.288 173.366,41.784 172.202,41.448 C171.038,41.112 169.796,40.944 168.476,40.944 C167.156,40.944 165.914,41.112 164.75,41.448 C163.586,41.784 162.572,42.288 161.708,42.96 C160.844,43.632 160.16,44.478 159.656,45.498 C159.152,46.518 158.9,47.712 158.9,49.08 C158.9,50.448 159.152,51.642 159.656,52.662 C160.16,53.682 160.844,54.528 161.708,55.2 C162.572,55.872 163.586,56.358 164.75,56.658 C165.914,56.958 167.156,57.108 168.476,57.108 Z M168.476,54.552 C167.708,54.552 166.958,54.426 166.226,54.174 C165.494,53.922 164.84,53.562 164.264,53.094 C163.688,52.626 163.226,52.056 162.878,51.384 C162.53,50.712 162.356,49.944 162.356,49.08 C162.356,48.216 162.53,47.448 162.878,46.776 C163.226,46.104 163.688,45.534 164.264,45.066 C164.84,44.598 165.494,44.238 166.226,43.986 C166.958,43.734 167.708,43.608 168.476,43.608 C169.244,43.608 169.994,43.734 170.726,43.986 C171.458,44.238 172.112,44.598 172.688,45.066 C173.264,45.534 173.726,46.104 174.074,46.776 C174.422,47.448 174.596,48.216 174.596,49.08 C174.596,49.944 174.422,50.712 174.074,51.384 C173.726,52.056 173.264,52.626 172.688,53.094 C172.112,53.562 171.458,53.922 170.726,54.174 C169.994,54.426 169.244,54.552 168.476,54.552 Z M187.232,57 L187.232,56.352 C187.016,56.352 186.824,56.31 186.656,56.226 C186.488,56.142 186.404,56.004 186.404,55.812 L186.404,55.812 L186.404,50.304 L192.74,50.304 C193.148,50.304 193.4,50.352 193.496,50.448 C193.592,50.544 193.652,50.688 193.676,50.88 L193.676,50.88 L194.324,50.88 L194.324,47.1 L193.676,47.1 C193.652,47.292 193.592,47.43 193.496,47.514 C193.4,47.598 193.148,47.64 192.74,47.64 L192.74,47.64 L186.404,47.64 L186.404,43.824 L196.16,43.824 C196.568,43.824 196.856,43.878 197.024,43.986 C197.192,44.094 197.276,44.208 197.276,44.328 L197.276,44.328 L197.924,44.328 L197.924,40.512 L197.276,40.512 C197.276,40.704 197.192,40.86 197.024,40.98 C196.856,41.1 196.568,41.16 196.16,41.16 L196.16,41.16 L182.192,41.16 L182.192,41.808 C182.696,41.808 182.948,41.988 182.948,42.348 L182.948,42.348 L182.948,55.812 C182.948,56.172 182.72,56.352 182.264,56.352 L182.264,56.352 L182.264,57 L187.232,57 Z M94.802,93 L94.802,92.352 C94.274,92.352 94.01,92.136 94.01,91.704 L94.01,91.704 L94.01,77.376 L99.95,77.376 C100.166,77.376 100.376,77.436 100.58,77.556 C100.784,77.676 100.886,77.904 100.886,78.24 L100.886,78.24 L101.534,78.24 L101.534,73.2 L100.886,73.2 C100.886,73.536 100.784,73.764 100.58,73.884 C100.376,74.004 100.166,74.064 99.95,74.064 L99.95,74.064 L83.966,74.064 C83.75,74.064 83.54,74.004 83.336,73.884 C83.132,73.764 83.03,73.536 83.03,73.2 L83.03,73.2 L82.382,73.2 L82.382,78.24 L83.03,78.24 C83.03,77.904 83.132,77.676 83.336,77.556 C83.54,77.436 83.75,77.376 83.966,77.376 L83.966,77.376 L89.906,77.376 L89.906,91.704 C89.906,91.92 89.84,92.082 89.708,92.19 C89.576,92.298 89.426,92.352 89.258,92.352 L89.258,92.352 L89.258,93 L94.802,93 Z M108.338,93 L108.338,92.352 C108.122,92.352 107.954,92.328 107.834,92.28 C107.714,92.232 107.654,92.112 107.654,91.92 C107.654,91.8 107.684,91.662 107.744,91.506 C107.804,91.35 107.882,91.176 107.978,90.984 L107.978,90.984 L108.986,89.04 L116.69,89.04 L117.662,91.092 C117.734,91.284 117.794,91.44 117.842,91.56 C117.89,91.68 117.914,91.812 117.914,91.956 C117.914,92.148 117.848,92.28 117.716,92.352 C117.584,92.424 117.458,92.46 117.338,92.46 L117.338,92.46 L117.338,93 L122.45,93 L122.45,92.352 C122.282,92.304 122.126,92.232 121.982,92.136 C121.838,92.04 121.706,91.884 121.586,91.668 L121.586,91.668 L115.754,79.428 C115.634,79.164 115.52,78.93 115.412,78.726 C115.304,78.522 115.25,78.348 115.25,78.204 C115.25,78.036 115.292,77.94 115.376,77.916 C115.46,77.892 115.538,77.856 115.61,77.808 L115.61,77.808 L115.61,77.16 L110.174,77.16 L110.174,77.808 C110.246,77.856 110.312,77.898 110.372,77.934 C110.432,77.97 110.462,78.06 110.462,78.204 C110.462,78.396 110.42,78.594 110.336,78.798 C110.252,79.002 110.138,79.272 109.994,79.608 L109.994,79.608 L104.63,91.308 C104.534,91.5 104.396,91.71 104.216,91.938 C104.036,92.166 103.802,92.304 103.514,92.352 L103.514,92.352 L103.514,93 L108.338,93 Z M115.538,86.376 L110.066,86.376 L112.622,80.328 L115.538,86.376 Z M132.71,93.108 C133.526,93.108 134.396,93.048 135.32,92.928 C136.244,92.808 137.09,92.556 137.858,92.172 C138.626,91.788 139.268,91.26 139.784,90.588 C140.3,89.916 140.558,89.052 140.558,87.996 C140.558,86.94 140.264,86.112 139.676,85.512 C139.088,84.912 138.35,84.456 137.462,84.144 C136.574,83.832 135.614,83.61 134.582,83.478 C133.55,83.346 132.59,83.214 131.702,83.082 C130.814,82.95 130.076,82.77 129.488,82.542 C128.9,82.314 128.606,81.936 128.606,81.408 C128.606,81.072 128.702,80.79 128.894,80.562 C129.086,80.334 129.35,80.148 129.686,80.004 C130.022,79.86 130.406,79.758 130.838,79.698 C131.27,79.638 131.726,79.608 132.206,79.608 C133.454,79.608 134.582,79.752 135.59,80.04 C136.598,80.328 137.342,80.676 137.822,81.084 C138.014,81.228 138.122,81.372 138.146,81.516 L138.146,81.516 L138.218,81.948 L138.866,82.164 L140.666,78.78 L140.27,78.384 C140.126,78.456 140.006,78.522 139.91,78.582 C139.814,78.642 139.67,78.672 139.478,78.672 C139.31,78.672 139.052,78.582 138.704,78.402 C138.356,78.222 137.906,78.024 137.354,77.808 C136.802,77.592 136.124,77.394 135.32,77.214 C134.516,77.034 133.55,76.944 132.422,76.944 C130.118,76.944 128.33,77.4 127.058,78.312 C125.786,79.224 125.15,80.448 125.15,81.984 C125.15,83.016 125.444,83.814 126.032,84.378 C126.62,84.942 127.358,85.374 128.246,85.674 C129.134,85.974 130.094,86.19 131.126,86.322 C132.158,86.454 133.118,86.586 134.006,86.718 C134.894,86.85 135.632,87.036 136.22,87.276 C136.808,87.516 137.102,87.9 137.102,88.428 C137.102,88.884 136.934,89.25 136.598,89.526 C136.262,89.802 135.854,90.018 135.374,90.174 C134.894,90.33 134.408,90.432 133.916,90.48 C133.424,90.528 133.01,90.552 132.674,90.552 C132.314,90.552 131.816,90.492 131.18,90.372 C130.544,90.252 129.908,90.09 129.272,89.886 C128.636,89.682 128.09,89.43 127.634,89.13 C127.178,88.83 126.95,88.5 126.95,88.14 C126.95,88.02 126.956,87.906 126.968,87.798 C126.98,87.69 126.986,87.588 126.986,87.492 L126.986,87.492 L126.302,87.312 L124.646,91.344 L125.15,91.704 C125.27,91.56 125.414,91.488 125.582,91.488 C125.678,91.488 125.954,91.578 126.41,91.758 C126.866,91.938 127.424,92.13 128.084,92.334 C128.744,92.538 129.476,92.718 130.28,92.874 C131.084,93.03 131.894,93.108 132.71,93.108 Z M154.382,93 L154.382,92.352 C153.95,92.352 153.734,92.172 153.734,91.812 L153.734,91.812 L153.734,79.824 L158.414,79.824 C158.606,79.824 158.786,79.872 158.954,79.968 C159.122,80.064 159.206,80.22 159.206,80.436 L159.206,80.436 L159.854,80.436 L159.854,76.296 L159.206,76.296 C159.206,76.632 159.122,76.86 158.954,76.98 C158.786,77.1 158.606,77.16 158.414,77.16 L158.414,77.16 L145.598,77.16 C145.406,77.16 145.226,77.1 145.058,76.98 C144.89,76.86 144.806,76.632 144.806,76.296 L144.806,76.296 L144.158,76.296 L144.158,80.436 L144.806,80.436 C144.806,80.22 144.89,80.064 145.058,79.968 C145.226,79.872 145.406,79.824 145.598,79.824 L145.598,79.824 L150.278,79.824 L150.278,91.812 C150.278,92.004 150.218,92.142 150.098,92.226 C149.978,92.31 149.858,92.352 149.738,92.352 L149.738,92.352 L149.738,93 L154.382,93 Z M178.826,93.396 L178.826,89.616 L178.178,89.616 C178.178,89.832 178.082,90.006 177.89,90.138 C177.698,90.27 177.458,90.336 177.17,90.336 L177.17,90.336 L167.954,90.336 L167.954,86.088 L173.21,86.088 C173.69,86.088 174.062,86.118 174.326,86.178 C174.59,86.238 174.686,86.4 174.614,86.664 L174.614,86.664 L175.334,86.664 L175.334,82.848 L174.686,82.848 C174.686,83.112 174.59,83.274 174.398,83.334 C174.206,83.394 173.906,83.424 173.498,83.424 L173.498,83.424 L167.954,83.424 L167.954,79.824 L176.738,79.824 C177.482,79.824 177.854,80.052 177.854,80.508 L177.854,80.508 L178.502,80.508 L178.502,76.512 L177.854,76.512 C177.854,76.944 177.482,77.16 176.738,77.16 L176.738,77.16 L163.958,77.16 L163.958,77.808 C164.078,77.808 164.198,77.85 164.318,77.934 C164.438,78.018 164.498,78.156 164.498,78.348 L164.498,78.348 L164.498,91.812 C164.498,92.004 164.438,92.142 164.318,92.226 C164.198,92.31 164.078,92.352 163.958,92.352 L163.958,92.352 L163.958,93 L177.17,93 C177.458,93 177.698,93.012 177.89,93.036 C178.082,93.06 178.178,93.18 178.178,93.396 L178.178,93.396 L178.826,93.396 Z" id="LossofTaste" fill="#000000" fill-rule="nonzero"></path>
        <path d="M33.71,278 L33.71,277.676 C33.434,277.676 33.296,277.568 33.296,277.352 L33.296,277.352 L33.296,274.148 L36.356,269.81 C36.5,269.594 36.623,269.423 36.725,269.297 C36.827,269.171 36.923,269.075 37.013,269.009 C37.103,268.943 37.19,268.901 37.274,268.883 C37.358,268.865 37.448,268.856 37.544,268.856 L37.544,268.856 L37.544,268.532 L34.394,268.532 L34.394,268.856 C34.49,268.856 34.595,268.868 34.709,268.892 C34.823,268.916 34.88,268.97 34.88,269.054 C34.88,269.126 34.85,269.204 34.79,269.288 C34.73,269.372 34.652,269.486 34.556,269.63 L34.556,269.63 L32.45,272.528 C32.294,272.276 32.09,271.97 31.838,271.61 C31.586,271.25 31.343,270.899 31.109,270.557 C30.875,270.215 30.671,269.909 30.497,269.639 C30.323,269.369 30.236,269.198 30.236,269.126 C30.236,269.006 30.284,268.931 30.38,268.901 C30.476,268.871 30.578,268.856 30.686,268.856 L30.686,268.856 L30.686,268.532 L26.942,268.532 L26.942,268.856 C27.062,268.856 27.209,268.898 27.383,268.982 C27.557,269.066 27.686,269.168 27.77,269.288 L27.77,269.288 L31.244,274.148 L31.244,277.352 C31.244,277.46 31.208,277.541 31.136,277.595 C31.064,277.649 30.974,277.676 30.866,277.676 L30.866,277.676 L30.866,278 L33.71,278 Z M43.232,278.054 C43.892,278.054 44.513,277.979 45.095,277.829 C45.677,277.679 46.184,277.436 46.616,277.1 C47.048,276.764 47.39,276.341 47.642,275.831 C47.894,275.321 48.02,274.724 48.02,274.04 C48.02,273.356 47.894,272.759 47.642,272.249 C47.39,271.739 47.048,271.316 46.616,270.98 C46.184,270.644 45.677,270.392 45.095,270.224 C44.513,270.056 43.892,269.972 43.232,269.972 C42.572,269.972 41.951,270.056 41.369,270.224 C40.787,270.392 40.28,270.644 39.848,270.98 C39.416,271.316 39.074,271.739 38.822,272.249 C38.57,272.759 38.444,273.356 38.444,274.04 C38.444,274.724 38.57,275.321 38.822,275.831 C39.074,276.341 39.416,276.764 39.848,277.1 C40.28,277.436 40.787,277.679 41.369,277.829 C41.951,277.979 42.572,278.054 43.232,278.054 Z M43.232,276.776 C42.848,276.776 42.473,276.713 42.107,276.587 C41.741,276.461 41.414,276.281 41.126,276.047 C40.838,275.813 40.607,275.528 40.433,275.192 C40.259,274.856 40.172,274.472 40.172,274.04 C40.172,273.608 40.259,273.224 40.433,272.888 C40.607,272.552 40.838,272.267 41.126,272.033 C41.414,271.799 41.741,271.619 42.107,271.493 C42.473,271.367 42.848,271.304 43.232,271.304 C43.616,271.304 43.991,271.367 44.357,271.493 C44.723,271.619 45.05,271.799 45.338,272.033 C45.626,272.267 45.857,272.552 46.031,272.888 C46.205,273.224 46.292,273.608 46.292,274.04 C46.292,274.472 46.205,274.856 46.031,275.192 C45.857,275.528 45.626,275.813 45.338,276.047 C45.05,276.281 44.723,276.461 44.357,276.587 C43.991,276.713 43.616,276.776 43.232,276.776 Z M54.806,278.054 C55.526,278.054 56.153,277.979 56.687,277.829 C57.221,277.679 57.659,277.472 58.001,277.208 C58.343,276.944 58.598,276.641 58.766,276.299 C58.934,275.957 59.018,275.6 59.018,275.228 L59.018,275.228 L59.018,270.674 C59.018,270.494 59.15,270.404 59.414,270.404 L59.414,270.404 L59.414,270.08 L56.912,270.08 L56.912,270.404 C57.212,270.404 57.362,270.494 57.362,270.674 L57.362,270.674 L57.362,274.796 C57.362,275.372 57.152,275.834 56.732,276.182 C56.312,276.53 55.67,276.704 54.806,276.704 C53.942,276.704 53.3,276.53 52.88,276.182 C52.46,275.834 52.25,275.372 52.25,274.796 L52.25,274.796 L52.25,270.674 C52.25,270.494 52.382,270.404 52.646,270.404 L52.646,270.404 L52.646,270.08 L50.072,270.08 L50.072,270.404 C50.276,270.404 50.414,270.425 50.486,270.467 C50.558,270.509 50.594,270.578 50.594,270.674 L50.594,270.674 L50.594,275.228 C50.594,275.6 50.678,275.957 50.846,276.299 C51.014,276.641 51.269,276.944 51.611,277.208 C51.953,277.472 52.391,277.679 52.925,277.829 C53.459,277.979 54.086,278.054 54.806,278.054 Z M61.574,273.41 C61.946,273.326 62.306,273.176 62.654,272.96 C63.002,272.744 63.308,272.486 63.572,272.186 C63.836,271.886 64.049,271.553 64.211,271.187 C64.373,270.821 64.454,270.44 64.454,270.044 C64.454,269.54 64.331,269.114 64.085,268.766 C63.839,268.418 63.476,268.244 62.996,268.244 C62.684,268.244 62.405,268.37 62.159,268.622 C61.913,268.874 61.79,269.174 61.79,269.522 C61.79,269.882 61.901,270.161 62.123,270.359 C62.345,270.557 62.606,270.656 62.906,270.656 C63.002,270.656 63.104,270.662 63.212,270.674 C63.32,270.686 63.386,270.734 63.41,270.818 C63.434,271.034 63.386,271.25 63.266,271.466 C63.146,271.682 62.993,271.883 62.807,272.069 C62.621,272.255 62.414,272.417 62.186,272.555 C61.958,272.693 61.754,272.786 61.574,272.834 L61.574,272.834 L61.574,273.41 Z M69.548,278 L69.548,277.676 C69.476,277.676 69.401,277.655 69.323,277.613 C69.245,277.571 69.206,277.502 69.206,277.406 L69.206,277.406 L69.206,274.832 L71.708,274.832 L73.13,276.956 C73.31,277.208 73.4,277.394 73.4,277.514 C73.4,277.622 73.322,277.676 73.166,277.676 L73.166,277.676 L73.166,278 L75.92,278 L75.92,277.676 C75.788,277.64 75.665,277.589 75.551,277.523 C75.437,277.457 75.332,277.358 75.236,277.226 L75.236,277.226 L73.472,274.652 C73.724,274.592 73.97,274.505 74.21,274.391 C74.45,274.277 74.669,274.127 74.867,273.941 C75.065,273.755 75.224,273.536 75.344,273.284 C75.464,273.032 75.524,272.744 75.524,272.42 C75.524,271.568 75.224,270.965 74.624,270.611 C74.024,270.257 73.19,270.08 72.122,270.08 L72.122,270.08 L67.154,270.08 L67.154,270.404 C67.37,270.404 67.478,270.494 67.478,270.674 L67.478,270.674 L67.478,277.406 C67.478,277.586 67.37,277.676 67.154,277.676 L67.154,277.676 L67.154,278 L69.548,278 Z M72.086,273.5 L69.242,273.5 L69.242,271.412 L72.086,271.412 C72.698,271.412 73.145,271.499 73.427,271.673 C73.709,271.847 73.85,272.084 73.85,272.384 C73.85,273.128 73.262,273.5 72.086,273.5 L72.086,273.5 Z M85.658,278.198 L85.658,276.308 L85.334,276.308 C85.334,276.416 85.286,276.503 85.19,276.569 C85.094,276.635 84.974,276.668 84.83,276.668 L84.83,276.668 L80.222,276.668 L80.222,274.544 L82.85,274.544 C83.09,274.544 83.276,274.559 83.408,274.589 C83.54,274.619 83.588,274.7 83.552,274.832 L83.552,274.832 L83.912,274.832 L83.912,272.924 L83.588,272.924 C83.588,273.056 83.54,273.137 83.444,273.167 C83.348,273.197 83.198,273.212 82.994,273.212 L82.994,273.212 L80.222,273.212 L80.222,271.412 L84.614,271.412 C84.986,271.412 85.172,271.526 85.172,271.754 L85.172,271.754 L85.496,271.754 L85.496,269.756 L85.172,269.756 C85.172,269.972 84.986,270.08 84.614,270.08 L84.614,270.08 L78.224,270.08 L78.224,270.404 C78.284,270.404 78.344,270.425 78.404,270.467 C78.464,270.509 78.494,270.578 78.494,270.674 L78.494,270.674 L78.494,277.406 C78.494,277.502 78.464,277.571 78.404,277.613 C78.344,277.655 78.284,277.676 78.224,277.676 L78.224,277.676 L78.224,278 L84.83,278 C84.974,278 85.094,278.006 85.19,278.018 C85.286,278.03 85.334,278.09 85.334,278.198 L85.334,278.198 L85.658,278.198 Z M96.044,278 L96.044,277.676 C95.972,277.676 95.897,277.655 95.819,277.613 C95.741,277.571 95.702,277.502 95.702,277.406 L95.702,277.406 L95.702,274.832 L98.204,274.832 L99.626,276.956 C99.806,277.208 99.896,277.394 99.896,277.514 C99.896,277.622 99.818,277.676 99.662,277.676 L99.662,277.676 L99.662,278 L102.416,278 L102.416,277.676 C102.284,277.64 102.161,277.589 102.047,277.523 C101.933,277.457 101.828,277.358 101.732,277.226 L101.732,277.226 L99.968,274.652 C100.22,274.592 100.466,274.505 100.706,274.391 C100.946,274.277 101.165,274.127 101.363,273.941 C101.561,273.755 101.72,273.536 101.84,273.284 C101.96,273.032 102.02,272.744 102.02,272.42 C102.02,271.568 101.72,270.965 101.12,270.611 C100.52,270.257 99.686,270.08 98.618,270.08 L98.618,270.08 L93.65,270.08 L93.65,270.404 C93.866,270.404 93.974,270.494 93.974,270.674 L93.974,270.674 L93.974,277.406 C93.974,277.586 93.866,277.676 93.65,277.676 L93.65,277.676 L93.65,278 L96.044,278 Z M98.582,273.5 L95.738,273.5 L95.738,271.412 L98.582,271.412 C99.194,271.412 99.641,271.499 99.923,271.673 C100.205,271.847 100.346,272.084 100.346,272.384 C100.346,273.128 99.758,273.5 98.582,273.5 L98.582,273.5 Z M112.154,278.198 L112.154,276.308 L111.83,276.308 C111.83,276.416 111.782,276.503 111.686,276.569 C111.59,276.635 111.47,276.668 111.326,276.668 L111.326,276.668 L106.718,276.668 L106.718,274.544 L109.346,274.544 C109.586,274.544 109.772,274.559 109.904,274.589 C110.036,274.619 110.084,274.7 110.048,274.832 L110.048,274.832 L110.408,274.832 L110.408,272.924 L110.084,272.924 C110.084,273.056 110.036,273.137 109.94,273.167 C109.844,273.197 109.694,273.212 109.49,273.212 L109.49,273.212 L106.718,273.212 L106.718,271.412 L111.11,271.412 C111.482,271.412 111.668,271.526 111.668,271.754 L111.668,271.754 L111.992,271.754 L111.992,269.756 L111.668,269.756 C111.668,269.972 111.482,270.08 111.11,270.08 L111.11,270.08 L104.72,270.08 L104.72,270.404 C104.78,270.404 104.84,270.425 104.9,270.467 C104.96,270.509 104.99,270.578 104.99,270.674 L104.99,270.674 L104.99,277.406 C104.99,277.502 104.96,277.571 104.9,277.613 C104.84,277.655 104.78,277.676 104.72,277.676 L104.72,277.676 L104.72,278 L111.326,278 C111.47,278 111.59,278.006 111.686,278.018 C111.782,278.03 111.83,278.09 111.83,278.198 L111.83,278.198 L112.154,278.198 Z M115.934,278 L115.934,277.676 C115.826,277.676 115.742,277.664 115.682,277.64 C115.622,277.616 115.592,277.556 115.592,277.46 C115.592,277.4 115.607,277.331 115.637,277.253 C115.667,277.175 115.706,277.088 115.754,276.992 L115.754,276.992 L116.258,276.02 L120.11,276.02 L120.596,277.046 C120.632,277.142 120.662,277.22 120.686,277.28 C120.71,277.34 120.722,277.406 120.722,277.478 C120.722,277.574 120.689,277.64 120.623,277.676 C120.557,277.712 120.494,277.73 120.434,277.73 L120.434,277.73 L120.434,278 L122.99,278 L122.99,277.676 C122.906,277.652 122.828,277.616 122.756,277.568 C122.684,277.52 122.618,277.442 122.558,277.334 L122.558,277.334 L119.642,271.214 C119.582,271.082 119.525,270.965 119.471,270.863 C119.417,270.761 119.39,270.674 119.39,270.602 C119.39,270.518 119.411,270.47 119.453,270.458 C119.495,270.446 119.534,270.428 119.57,270.404 L119.57,270.404 L119.57,270.08 L116.852,270.08 L116.852,270.404 C116.888,270.428 116.921,270.449 116.951,270.467 C116.981,270.485 116.996,270.53 116.996,270.602 C116.996,270.698 116.975,270.797 116.933,270.899 C116.891,271.001 116.834,271.136 116.762,271.304 L116.762,271.304 L114.08,277.154 C114.032,277.25 113.963,277.355 113.873,277.469 C113.783,277.583 113.666,277.652 113.522,277.676 L113.522,277.676 L113.522,278 L115.934,278 Z M119.534,274.688 L116.798,274.688 L118.076,271.664 L119.534,274.688 Z M132.512,278.18 L132.512,276.29 L132.188,276.29 C132.188,276.41 132.14,276.503 132.044,276.569 C131.948,276.635 131.828,276.668 131.684,276.668 L131.684,276.668 L126.824,276.668 L126.824,270.674 C126.824,270.494 126.962,270.404 127.238,270.404 L127.238,270.404 L127.238,270.08 L124.628,270.08 L124.628,270.404 C124.94,270.404 125.096,270.494 125.096,270.674 L125.096,270.674 L125.096,277.406 C125.096,277.586 124.94,277.676 124.628,277.676 L124.628,277.676 L124.628,278 L131.684,278 C131.828,278 131.948,278.006 132.044,278.018 C132.14,278.03 132.188,278.084 132.188,278.18 L132.188,278.18 L132.512,278.18 Z M142.52,278.18 L142.52,276.29 L142.196,276.29 C142.196,276.41 142.148,276.503 142.052,276.569 C141.956,276.635 141.836,276.668 141.692,276.668 L141.692,276.668 L136.832,276.668 L136.832,270.674 C136.832,270.494 136.97,270.404 137.246,270.404 L137.246,270.404 L137.246,270.08 L134.636,270.08 L134.636,270.404 C134.948,270.404 135.104,270.494 135.104,270.674 L135.104,270.674 L135.104,277.406 C135.104,277.586 134.948,277.676 134.636,277.676 L134.636,277.676 L134.636,278 L141.692,278 C141.836,278 141.956,278.006 142.052,278.018 C142.148,278.03 142.196,278.084 142.196,278.18 L142.196,278.18 L142.52,278.18 Z M149.486,278 L149.486,277.676 C149.258,277.676 149.144,277.586 149.144,277.406 L149.144,277.406 L149.144,274.706 L151.898,271.142 C152.03,270.974 152.183,270.809 152.357,270.647 C152.531,270.485 152.69,270.404 152.834,270.404 L152.834,270.404 L152.834,270.08 L150.08,270.08 L150.08,270.404 C150.14,270.404 150.2,270.416 150.26,270.44 C150.32,270.464 150.35,270.524 150.35,270.62 C150.35,270.692 150.323,270.767 150.269,270.845 C150.215,270.923 150.134,271.04 150.026,271.196 L150.026,271.196 L148.424,273.428 L146.606,271.052 C146.546,270.968 146.492,270.896 146.444,270.836 C146.396,270.776 146.372,270.71 146.372,270.638 C146.372,270.566 146.408,270.509 146.48,270.467 C146.552,270.425 146.618,270.404 146.678,270.404 L146.678,270.404 L146.678,270.08 L143.708,270.08 L143.708,270.404 C143.816,270.404 143.93,270.428 144.05,270.476 C144.17,270.524 144.272,270.602 144.356,270.71 L144.356,270.71 L147.416,274.634 L147.416,277.406 C147.416,277.586 147.308,277.676 147.092,277.676 L147.092,277.676 L147.092,278 L149.486,278 Z M164.462,278.054 C165.038,278.054 165.56,278.015 166.028,277.937 C166.496,277.859 166.907,277.76 167.261,277.64 C167.615,277.52 167.909,277.397 168.143,277.271 C168.377,277.145 168.548,277.046 168.656,276.974 L168.656,276.974 L168.656,276.758 C168.536,276.71 168.461,276.665 168.431,276.623 C168.401,276.581 168.386,276.506 168.386,276.398 L168.386,276.398 L168.386,274.688 C168.386,274.568 168.404,274.478 168.44,274.418 C168.476,274.358 168.548,274.304 168.656,274.256 L168.656,274.256 L168.656,273.932 L165.128,273.932 C164.996,273.932 164.882,273.914 164.786,273.878 C164.69,273.842 164.63,273.764 164.606,273.644 L164.606,273.644 L164.282,273.644 L164.282,275.498 L164.606,275.498 C164.63,275.354 164.69,275.255 164.786,275.201 C164.882,275.147 164.996,275.12 165.128,275.12 L165.128,275.12 L166.982,275.12 L166.982,276.254 C166.598,276.458 166.175,276.596 165.713,276.668 C165.251,276.74 164.762,276.776 164.246,276.776 C163.898,276.776 163.538,276.728 163.166,276.632 C162.794,276.536 162.455,276.383 162.149,276.173 C161.843,275.963 161.594,275.687 161.402,275.345 C161.21,275.003 161.114,274.58 161.114,274.076 C161.114,273.572 161.204,273.146 161.384,272.798 C161.564,272.45 161.804,272.165 162.104,271.943 C162.404,271.721 162.752,271.559 163.148,271.457 C163.544,271.355 163.964,271.304 164.408,271.304 C164.732,271.304 165.053,271.337 165.371,271.403 C165.689,271.469 165.974,271.556 166.226,271.664 C166.478,271.772 166.682,271.889 166.838,272.015 C166.994,272.141 167.072,272.258 167.072,272.366 C167.072,272.378 167.06,272.444 167.036,272.564 L167.036,272.564 L167.252,272.69 L168.296,270.728 L168.08,270.62 C168.008,270.68 167.948,270.719 167.9,270.737 C167.852,270.755 167.78,270.764 167.684,270.764 C167.6,270.764 167.474,270.722 167.306,270.638 C167.138,270.554 166.916,270.464 166.64,270.368 C166.376,270.272 166.064,270.182 165.704,270.098 C165.344,270.014 164.93,269.972 164.462,269.972 C163.682,269.972 162.977,270.065 162.347,270.251 C161.717,270.437 161.183,270.707 160.745,271.061 C160.307,271.415 159.971,271.841 159.737,272.339 C159.503,272.837 159.386,273.404 159.386,274.04 C159.386,274.676 159.503,275.243 159.737,275.741 C159.971,276.239 160.307,276.662 160.745,277.01 C161.183,277.358 161.717,277.619 162.347,277.793 C162.977,277.967 163.682,278.054 164.462,278.054 Z M175.262,278.054 C175.922,278.054 176.543,277.979 177.125,277.829 C177.707,277.679 178.214,277.436 178.646,277.1 C179.078,276.764 179.42,276.341 179.672,275.831 C179.924,275.321 180.05,274.724 180.05,274.04 C180.05,273.356 179.924,272.759 179.672,272.249 C179.42,271.739 179.078,271.316 178.646,270.98 C178.214,270.644 177.707,270.392 177.125,270.224 C176.543,270.056 175.922,269.972 175.262,269.972 C174.602,269.972 173.981,270.056 173.399,270.224 C172.817,270.392 172.31,270.644 171.878,270.98 C171.446,271.316 171.104,271.739 170.852,272.249 C170.6,272.759 170.474,273.356 170.474,274.04 C170.474,274.724 170.6,275.321 170.852,275.831 C171.104,276.341 171.446,276.764 171.878,277.1 C172.31,277.436 172.817,277.679 173.399,277.829 C173.981,277.979 174.602,278.054 175.262,278.054 Z M175.262,276.776 C174.878,276.776 174.503,276.713 174.137,276.587 C173.771,276.461 173.444,276.281 173.156,276.047 C172.868,275.813 172.637,275.528 172.463,275.192 C172.289,274.856 172.202,274.472 172.202,274.04 C172.202,273.608 172.289,273.224 172.463,272.888 C172.637,272.552 172.868,272.267 173.156,272.033 C173.444,271.799 173.771,271.619 174.137,271.493 C174.503,271.367 174.878,271.304 175.262,271.304 C175.646,271.304 176.021,271.367 176.387,271.493 C176.753,271.619 177.08,271.799 177.368,272.033 C177.656,272.267 177.887,272.552 178.061,272.888 C178.235,273.224 178.322,273.608 178.322,274.04 C178.322,274.472 178.235,274.856 178.061,275.192 C177.887,275.528 177.656,275.813 177.368,276.047 C177.08,276.281 176.753,276.461 176.387,276.587 C176.021,276.713 175.646,276.776 175.262,276.776 Z M185.126,278 L185.126,277.676 C184.79,277.676 184.622,277.586 184.622,277.406 L184.622,277.406 L184.622,270.674 C184.622,270.494 184.79,270.404 185.126,270.404 L185.126,270.404 L185.126,270.08 L182.39,270.08 L182.39,270.404 C182.582,270.404 182.714,270.425 182.786,270.467 C182.858,270.509 182.894,270.578 182.894,270.674 L182.894,270.674 L182.894,277.406 C182.894,277.502 182.858,277.571 182.786,277.613 C182.714,277.655 182.582,277.676 182.39,277.676 L182.39,277.676 L182.39,278 L185.126,278 Z M190.436,278 L190.436,277.676 C190.184,277.676 190.058,277.586 190.058,277.406 L190.058,277.406 L190.058,272.168 L194.522,276.92 C194.666,277.076 194.795,277.214 194.909,277.334 C195.023,277.454 195.08,277.538 195.08,277.586 C195.08,277.646 195.038,277.676 194.954,277.676 L194.954,277.676 L194.954,278 L197.294,278 L197.294,277.676 C197.078,277.676 196.97,277.586 196.97,277.406 L196.97,277.406 L196.97,270.674 C196.97,270.494 197.078,270.404 197.294,270.404 L197.294,270.404 L197.294,270.08 L195.098,270.08 L195.098,270.404 C195.338,270.404 195.458,270.494 195.458,270.674 L195.458,270.674 L195.458,275.552 L191.138,270.98 C190.874,270.716 190.742,270.554 190.742,270.494 C190.742,270.446 190.784,270.416 190.868,270.404 L190.868,270.404 L190.868,270.08 L188.222,270.08 L188.222,270.404 C188.438,270.404 188.546,270.494 188.546,270.674 L188.546,270.674 L188.546,277.406 C188.546,277.586 188.438,277.676 188.222,277.676 L188.222,277.676 L188.222,278 L190.436,278 Z M204.458,278.054 C205.034,278.054 205.556,278.015 206.024,277.937 C206.492,277.859 206.903,277.76 207.257,277.64 C207.611,277.52 207.905,277.397 208.139,277.271 C208.373,277.145 208.544,277.046 208.652,276.974 L208.652,276.974 L208.652,276.758 C208.532,276.71 208.457,276.665 208.427,276.623 C208.397,276.581 208.382,276.506 208.382,276.398 L208.382,276.398 L208.382,274.688 C208.382,274.568 208.4,274.478 208.436,274.418 C208.472,274.358 208.544,274.304 208.652,274.256 L208.652,274.256 L208.652,273.932 L205.124,273.932 C204.992,273.932 204.878,273.914 204.782,273.878 C204.686,273.842 204.626,273.764 204.602,273.644 L204.602,273.644 L204.278,273.644 L204.278,275.498 L204.602,275.498 C204.626,275.354 204.686,275.255 204.782,275.201 C204.878,275.147 204.992,275.12 205.124,275.12 L205.124,275.12 L206.978,275.12 L206.978,276.254 C206.594,276.458 206.171,276.596 205.709,276.668 C205.247,276.74 204.758,276.776 204.242,276.776 C203.894,276.776 203.534,276.728 203.162,276.632 C202.79,276.536 202.451,276.383 202.145,276.173 C201.839,275.963 201.59,275.687 201.398,275.345 C201.206,275.003 201.11,274.58 201.11,274.076 C201.11,273.572 201.2,273.146 201.38,272.798 C201.56,272.45 201.8,272.165 202.1,271.943 C202.4,271.721 202.748,271.559 203.144,271.457 C203.54,271.355 203.96,271.304 204.404,271.304 C204.728,271.304 205.049,271.337 205.367,271.403 C205.685,271.469 205.97,271.556 206.222,271.664 C206.474,271.772 206.678,271.889 206.834,272.015 C206.99,272.141 207.068,272.258 207.068,272.366 C207.068,272.378 207.056,272.444 207.032,272.564 L207.032,272.564 L207.248,272.69 L208.292,270.728 L208.076,270.62 C208.004,270.68 207.944,270.719 207.896,270.737 C207.848,270.755 207.776,270.764 207.68,270.764 C207.596,270.764 207.47,270.722 207.302,270.638 C207.134,270.554 206.912,270.464 206.636,270.368 C206.372,270.272 206.06,270.182 205.7,270.098 C205.34,270.014 204.926,269.972 204.458,269.972 C203.678,269.972 202.973,270.065 202.343,270.251 C201.713,270.437 201.179,270.707 200.741,271.061 C200.303,271.415 199.967,271.841 199.733,272.339 C199.499,272.837 199.382,273.404 199.382,274.04 C199.382,274.676 199.499,275.243 199.733,275.741 C199.967,276.239 200.303,276.662 200.741,277.01 C201.179,277.358 201.713,277.619 202.343,277.793 C202.973,277.967 203.678,278.054 204.458,278.054 Z M220.946,278 L220.946,277.676 C220.73,277.676 220.622,277.586 220.622,277.406 L220.622,277.406 L220.622,271.412 L222.962,271.412 C223.058,271.412 223.148,271.436 223.232,271.484 C223.316,271.532 223.358,271.61 223.358,271.718 L223.358,271.718 L223.682,271.718 L223.682,269.648 L223.358,269.648 C223.358,269.816 223.316,269.93 223.232,269.99 C223.148,270.05 223.058,270.08 222.962,270.08 L222.962,270.08 L216.554,270.08 C216.458,270.08 216.368,270.05 216.284,269.99 C216.2,269.93 216.158,269.816 216.158,269.648 L216.158,269.648 L215.834,269.648 L215.834,271.718 L216.158,271.718 C216.158,271.61 216.2,271.532 216.284,271.484 C216.368,271.436 216.458,271.412 216.554,271.412 L216.554,271.412 L218.894,271.412 L218.894,277.406 C218.894,277.502 218.864,277.571 218.804,277.613 C218.744,277.655 218.684,277.676 218.624,277.676 L218.624,277.676 L218.624,278 L220.946,278 Z M229.748,278.054 C230.408,278.054 231.029,277.979 231.611,277.829 C232.193,277.679 232.7,277.436 233.132,277.1 C233.564,276.764 233.906,276.341 234.158,275.831 C234.41,275.321 234.536,274.724 234.536,274.04 C234.536,273.356 234.41,272.759 234.158,272.249 C233.906,271.739 233.564,271.316 233.132,270.98 C232.7,270.644 232.193,270.392 231.611,270.224 C231.029,270.056 230.408,269.972 229.748,269.972 C229.088,269.972 228.467,270.056 227.885,270.224 C227.303,270.392 226.796,270.644 226.364,270.98 C225.932,271.316 225.59,271.739 225.338,272.249 C225.086,272.759 224.96,273.356 224.96,274.04 C224.96,274.724 225.086,275.321 225.338,275.831 C225.59,276.341 225.932,276.764 226.364,277.1 C226.796,277.436 227.303,277.679 227.885,277.829 C228.467,277.979 229.088,278.054 229.748,278.054 Z M229.748,276.776 C229.364,276.776 228.989,276.713 228.623,276.587 C228.257,276.461 227.93,276.281 227.642,276.047 C227.354,275.813 227.123,275.528 226.949,275.192 C226.775,274.856 226.688,274.472 226.688,274.04 C226.688,273.608 226.775,273.224 226.949,272.888 C227.123,272.552 227.354,272.267 227.642,272.033 C227.93,271.799 228.257,271.619 228.623,271.493 C228.989,271.367 229.364,271.304 229.748,271.304 C230.132,271.304 230.507,271.367 230.873,271.493 C231.239,271.619 231.566,271.799 231.854,272.033 C232.142,272.267 232.373,272.552 232.547,272.888 C232.721,273.224 232.808,273.608 232.808,274.04 C232.808,274.472 232.721,274.856 232.547,275.192 C232.373,275.528 232.142,275.813 231.854,276.047 C231.566,276.281 231.239,276.461 230.873,276.587 C230.507,276.713 230.132,276.776 229.748,276.776 Z M55.733,296 L55.733,295.676 C55.625,295.676 55.553,295.658 55.517,295.622 C55.481,295.586 55.463,295.52 55.463,295.424 C55.463,295.388 55.508,295.253 55.598,295.019 C55.688,294.785 55.802,294.497 55.94,294.155 C56.078,293.813 56.228,293.441 56.39,293.039 C56.552,292.637 56.705,292.253 56.849,291.887 C56.993,291.521 57.119,291.197 57.227,290.915 C57.335,290.633 57.401,290.438 57.425,290.33 L57.425,290.33 L57.461,290.33 C57.653,290.93 57.851,291.524 58.055,292.112 C58.259,292.7 58.448,293.231 58.622,293.705 C58.796,294.179 58.937,294.572 59.045,294.884 C59.153,295.196 59.207,295.376 59.207,295.424 C59.207,295.52 59.195,295.583 59.171,295.613 C59.147,295.643 59.087,295.664 58.991,295.676 L58.991,295.676 L58.991,296 L61.511,296 L61.511,295.676 C61.343,295.676 61.259,295.598 61.259,295.442 C61.259,295.382 61.295,295.271 61.367,295.109 C61.439,294.947 61.511,294.764 61.583,294.56 L61.583,294.56 L63.653,289.07 C63.809,288.626 63.989,288.404 64.193,288.404 L64.193,288.404 L64.193,288.08 L61.907,288.08 L61.907,288.404 C62.099,288.404 62.195,288.488 62.195,288.656 C62.195,288.74 62.174,288.845 62.132,288.971 C62.09,289.097 62.039,289.244 61.979,289.412 L61.979,289.412 L60.305,293.786 L58.721,289.448 C58.661,289.304 58.601,289.151 58.541,288.989 C58.481,288.827 58.451,288.704 58.451,288.62 C58.451,288.476 58.559,288.404 58.775,288.404 L58.775,288.404 L58.775,288.08 L56.201,288.08 L56.201,288.404 C56.393,288.404 56.489,288.488 56.489,288.656 C56.489,288.752 56.462,288.875 56.408,289.025 C56.354,289.175 56.297,289.334 56.237,289.502 L56.237,289.502 L54.707,293.786 L54.671,293.786 L53.087,289.412 C53.015,289.22 52.955,289.061 52.907,288.935 C52.859,288.809 52.835,288.716 52.835,288.656 C52.835,288.488 52.913,288.404 53.069,288.404 L53.069,288.404 L53.069,288.08 L50.783,288.08 L50.783,288.404 C50.963,288.44 51.089,288.554 51.161,288.746 L51.161,288.746 L53.537,294.992 C53.561,295.052 53.594,295.139 53.636,295.253 C53.678,295.367 53.699,295.46 53.699,295.532 C53.699,295.604 53.681,295.646 53.645,295.658 C53.609,295.67 53.567,295.676 53.519,295.676 L53.519,295.676 L53.519,296 L55.733,296 Z M73.409,296.198 L73.409,294.308 L73.085,294.308 C73.085,294.416 73.037,294.503 72.941,294.569 C72.845,294.635 72.725,294.668 72.581,294.668 L72.581,294.668 L67.973,294.668 L67.973,292.544 L70.601,292.544 C70.841,292.544 71.027,292.559 71.159,292.589 C71.291,292.619 71.339,292.7 71.303,292.832 L71.303,292.832 L71.663,292.832 L71.663,290.924 L71.339,290.924 C71.339,291.056 71.291,291.137 71.195,291.167 C71.099,291.197 70.949,291.212 70.745,291.212 L70.745,291.212 L67.973,291.212 L67.973,289.412 L72.365,289.412 C72.737,289.412 72.923,289.526 72.923,289.754 L72.923,289.754 L73.247,289.754 L73.247,287.756 L72.923,287.756 C72.923,287.972 72.737,288.08 72.365,288.08 L72.365,288.08 L65.975,288.08 L65.975,288.404 C66.035,288.404 66.095,288.425 66.155,288.467 C66.215,288.509 66.245,288.578 66.245,288.674 L66.245,288.674 L66.245,295.406 C66.245,295.502 66.215,295.571 66.155,295.613 C66.095,295.655 66.035,295.676 65.975,295.676 L65.975,295.676 L65.975,296 L72.581,296 C72.725,296 72.845,296.006 72.941,296.018 C73.037,296.03 73.085,296.09 73.085,296.198 L73.085,296.198 L73.409,296.198 Z M77.189,296 L77.189,295.676 C77.081,295.676 76.997,295.664 76.937,295.64 C76.877,295.616 76.847,295.556 76.847,295.46 C76.847,295.4 76.862,295.331 76.892,295.253 C76.922,295.175 76.961,295.088 77.009,294.992 L77.009,294.992 L77.513,294.02 L81.365,294.02 L81.851,295.046 C81.887,295.142 81.917,295.22 81.941,295.28 C81.965,295.34 81.977,295.406 81.977,295.478 C81.977,295.574 81.944,295.64 81.878,295.676 C81.812,295.712 81.749,295.73 81.689,295.73 L81.689,295.73 L81.689,296 L84.245,296 L84.245,295.676 C84.161,295.652 84.083,295.616 84.011,295.568 C83.939,295.52 83.873,295.442 83.813,295.334 L83.813,295.334 L80.897,289.214 C80.837,289.082 80.78,288.965 80.726,288.863 C80.672,288.761 80.645,288.674 80.645,288.602 C80.645,288.518 80.666,288.47 80.708,288.458 C80.75,288.446 80.789,288.428 80.825,288.404 L80.825,288.404 L80.825,288.08 L78.107,288.08 L78.107,288.404 C78.143,288.428 78.176,288.449 78.206,288.467 C78.236,288.485 78.251,288.53 78.251,288.602 C78.251,288.698 78.23,288.797 78.188,288.899 C78.146,289.001 78.089,289.136 78.017,289.304 L78.017,289.304 L75.335,295.154 C75.287,295.25 75.218,295.355 75.128,295.469 C75.038,295.583 74.921,295.652 74.777,295.676 L74.777,295.676 L74.777,296 L77.189,296 Z M80.789,292.688 L78.053,292.688 L79.331,289.664 L80.789,292.688 Z M88.313,296 L88.313,295.676 C88.241,295.676 88.166,295.655 88.088,295.613 C88.01,295.571 87.971,295.502 87.971,295.406 L87.971,295.406 L87.971,292.832 L90.473,292.832 L91.895,294.956 C92.075,295.208 92.165,295.394 92.165,295.514 C92.165,295.622 92.087,295.676 91.931,295.676 L91.931,295.676 L91.931,296 L94.685,296 L94.685,295.676 C94.553,295.64 94.43,295.589 94.316,295.523 C94.202,295.457 94.097,295.358 94.001,295.226 L94.001,295.226 L92.237,292.652 C92.489,292.592 92.735,292.505 92.975,292.391 C93.215,292.277 93.434,292.127 93.632,291.941 C93.83,291.755 93.989,291.536 94.109,291.284 C94.229,291.032 94.289,290.744 94.289,290.42 C94.289,289.568 93.989,288.965 93.389,288.611 C92.789,288.257 91.955,288.08 90.887,288.08 L90.887,288.08 L85.919,288.08 L85.919,288.404 C86.135,288.404 86.243,288.494 86.243,288.674 L86.243,288.674 L86.243,295.406 C86.243,295.586 86.135,295.676 85.919,295.676 L85.919,295.676 L85.919,296 L88.313,296 Z M90.851,291.5 L88.007,291.5 L88.007,289.412 L90.851,289.412 C91.463,289.412 91.91,289.499 92.192,289.673 C92.474,289.847 92.615,290.084 92.615,290.384 C92.615,291.128 92.027,291.5 90.851,291.5 L90.851,291.5 Z M106.691,296 L106.691,295.676 C106.475,295.676 106.367,295.586 106.367,295.406 L106.367,295.406 L106.367,289.412 L108.707,289.412 C108.803,289.412 108.893,289.436 108.977,289.484 C109.061,289.532 109.103,289.61 109.103,289.718 L109.103,289.718 L109.427,289.718 L109.427,287.648 L109.103,287.648 C109.103,287.816 109.061,287.93 108.977,287.99 C108.893,288.05 108.803,288.08 108.707,288.08 L108.707,288.08 L102.299,288.08 C102.203,288.08 102.113,288.05 102.029,287.99 C101.945,287.93 101.903,287.816 101.903,287.648 L101.903,287.648 L101.579,287.648 L101.579,289.718 L101.903,289.718 C101.903,289.61 101.945,289.532 102.029,289.484 C102.113,289.436 102.203,289.412 102.299,289.412 L102.299,289.412 L104.639,289.412 L104.639,295.406 C104.639,295.502 104.609,295.571 104.549,295.613 C104.489,295.655 104.429,295.676 104.369,295.676 L104.369,295.676 L104.369,296 L106.691,296 Z M113.855,296 L113.855,295.676 C113.783,295.676 113.72,295.655 113.666,295.613 C113.612,295.571 113.585,295.502 113.585,295.406 L113.585,295.406 L113.585,292.688 L118.409,292.688 L118.409,295.406 C118.409,295.502 118.382,295.571 118.328,295.613 C118.274,295.655 118.211,295.676 118.139,295.676 L118.139,295.676 L118.139,296 L120.407,296 L120.407,295.676 C120.335,295.676 120.272,295.655 120.218,295.613 C120.164,295.571 120.137,295.502 120.137,295.406 L120.137,295.406 L120.137,288.674 C120.137,288.578 120.164,288.509 120.218,288.467 C120.272,288.425 120.335,288.404 120.407,288.404 L120.407,288.404 L120.407,288.08 L118.139,288.08 L118.139,288.404 C118.211,288.404 118.274,288.425 118.328,288.467 C118.382,288.509 118.409,288.578 118.409,288.674 L118.409,288.674 L118.409,291.212 L113.585,291.212 L113.585,288.674 C113.585,288.578 113.612,288.509 113.666,288.467 C113.72,288.425 113.783,288.404 113.855,288.404 L113.855,288.404 L113.855,288.08 L111.587,288.08 L111.587,288.404 C111.659,288.404 111.722,288.425 111.776,288.467 C111.83,288.509 111.857,288.578 111.857,288.674 L111.857,288.674 L111.857,295.406 C111.857,295.502 111.83,295.571 111.776,295.613 C111.722,295.655 111.659,295.676 111.587,295.676 L111.587,295.676 L111.587,296 L113.855,296 Z M124.691,296 L124.691,295.676 C124.583,295.676 124.499,295.664 124.439,295.64 C124.379,295.616 124.349,295.556 124.349,295.46 C124.349,295.4 124.364,295.331 124.394,295.253 C124.424,295.175 124.463,295.088 124.511,294.992 L124.511,294.992 L125.015,294.02 L128.867,294.02 L129.353,295.046 C129.389,295.142 129.419,295.22 129.443,295.28 C129.467,295.34 129.479,295.406 129.479,295.478 C129.479,295.574 129.446,295.64 129.38,295.676 C129.314,295.712 129.251,295.73 129.191,295.73 L129.191,295.73 L129.191,296 L131.747,296 L131.747,295.676 C131.663,295.652 131.585,295.616 131.513,295.568 C131.441,295.52 131.375,295.442 131.315,295.334 L131.315,295.334 L128.399,289.214 C128.339,289.082 128.282,288.965 128.228,288.863 C128.174,288.761 128.147,288.674 128.147,288.602 C128.147,288.518 128.168,288.47 128.21,288.458 C128.252,288.446 128.291,288.428 128.327,288.404 L128.327,288.404 L128.327,288.08 L125.609,288.08 L125.609,288.404 C125.645,288.428 125.678,288.449 125.708,288.467 C125.738,288.485 125.753,288.53 125.753,288.602 C125.753,288.698 125.732,288.797 125.69,288.899 C125.648,289.001 125.591,289.136 125.519,289.304 L125.519,289.304 L122.837,295.154 C122.789,295.25 122.72,295.355 122.63,295.469 C122.54,295.583 122.423,295.652 122.279,295.676 L122.279,295.676 L122.279,296 L124.691,296 Z M128.291,292.688 L125.555,292.688 L126.833,289.664 L128.291,292.688 Z M137.705,296 L137.705,295.676 C137.489,295.676 137.381,295.586 137.381,295.406 L137.381,295.406 L137.381,289.412 L139.721,289.412 C139.817,289.412 139.907,289.436 139.991,289.484 C140.075,289.532 140.117,289.61 140.117,289.718 L140.117,289.718 L140.441,289.718 L140.441,287.648 L140.117,287.648 C140.117,287.816 140.075,287.93 139.991,287.99 C139.907,288.05 139.817,288.08 139.721,288.08 L139.721,288.08 L133.313,288.08 C133.217,288.08 133.127,288.05 133.043,287.99 C132.959,287.93 132.917,287.816 132.917,287.648 L132.917,287.648 L132.593,287.648 L132.593,289.718 L132.917,289.718 C132.917,289.61 132.959,289.532 133.043,289.484 C133.127,289.436 133.217,289.412 133.313,289.412 L133.313,289.412 L135.653,289.412 L135.653,295.406 C135.653,295.502 135.623,295.571 135.563,295.613 C135.503,295.655 135.443,295.676 135.383,295.676 L135.383,295.676 L135.383,296 L137.705,296 Z M151.997,296.054 C152.657,296.054 153.278,295.979 153.86,295.829 C154.442,295.679 154.949,295.436 155.381,295.1 C155.813,294.764 156.155,294.341 156.407,293.831 C156.659,293.321 156.785,292.724 156.785,292.04 C156.785,291.356 156.659,290.759 156.407,290.249 C156.155,289.739 155.813,289.316 155.381,288.98 C154.949,288.644 154.442,288.392 153.86,288.224 C153.278,288.056 152.657,287.972 151.997,287.972 C151.337,287.972 150.716,288.056 150.134,288.224 C149.552,288.392 149.045,288.644 148.613,288.98 C148.181,289.316 147.839,289.739 147.587,290.249 C147.335,290.759 147.209,291.356 147.209,292.04 C147.209,292.724 147.335,293.321 147.587,293.831 C147.839,294.341 148.181,294.764 148.613,295.1 C149.045,295.436 149.552,295.679 150.134,295.829 C150.716,295.979 151.337,296.054 151.997,296.054 Z M151.997,294.776 C151.613,294.776 151.238,294.713 150.872,294.587 C150.506,294.461 150.179,294.281 149.891,294.047 C149.603,293.813 149.372,293.528 149.198,293.192 C149.024,292.856 148.937,292.472 148.937,292.04 C148.937,291.608 149.024,291.224 149.198,290.888 C149.372,290.552 149.603,290.267 149.891,290.033 C150.179,289.799 150.506,289.619 150.872,289.493 C151.238,289.367 151.613,289.304 151.997,289.304 C152.381,289.304 152.756,289.367 153.122,289.493 C153.488,289.619 153.815,289.799 154.103,290.033 C154.391,290.267 154.622,290.552 154.796,290.888 C154.97,291.224 155.057,291.608 155.057,292.04 C155.057,292.472 154.97,292.856 154.796,293.192 C154.622,293.528 154.391,293.813 154.103,294.047 C153.815,294.281 153.488,294.461 153.122,294.587 C152.756,294.713 152.381,294.776 151.997,294.776 Z M163.571,296.054 C164.291,296.054 164.918,295.979 165.452,295.829 C165.986,295.679 166.424,295.472 166.766,295.208 C167.108,294.944 167.363,294.641 167.531,294.299 C167.699,293.957 167.783,293.6 167.783,293.228 L167.783,293.228 L167.783,288.674 C167.783,288.494 167.915,288.404 168.179,288.404 L168.179,288.404 L168.179,288.08 L165.677,288.08 L165.677,288.404 C165.977,288.404 166.127,288.494 166.127,288.674 L166.127,288.674 L166.127,292.796 C166.127,293.372 165.917,293.834 165.497,294.182 C165.077,294.53 164.435,294.704 163.571,294.704 C162.707,294.704 162.065,294.53 161.645,294.182 C161.225,293.834 161.015,293.372 161.015,292.796 L161.015,292.796 L161.015,288.674 C161.015,288.494 161.147,288.404 161.411,288.404 L161.411,288.404 L161.411,288.08 L158.837,288.08 L158.837,288.404 C159.041,288.404 159.179,288.425 159.251,288.467 C159.323,288.509 159.359,288.578 159.359,288.674 L159.359,288.674 L159.359,293.228 C159.359,293.6 159.443,293.957 159.611,294.299 C159.779,294.641 160.034,294.944 160.376,295.208 C160.718,295.472 161.156,295.679 161.69,295.829 C162.224,295.979 162.851,296.054 163.571,296.054 Z M175.199,296 L175.199,295.676 C174.983,295.676 174.875,295.586 174.875,295.406 L174.875,295.406 L174.875,289.412 L177.215,289.412 C177.311,289.412 177.401,289.436 177.485,289.484 C177.569,289.532 177.611,289.61 177.611,289.718 L177.611,289.718 L177.935,289.718 L177.935,287.648 L177.611,287.648 C177.611,287.816 177.569,287.93 177.485,287.99 C177.401,288.05 177.311,288.08 177.215,288.08 L177.215,288.08 L170.807,288.08 C170.711,288.08 170.621,288.05 170.537,287.99 C170.453,287.93 170.411,287.816 170.411,287.648 L170.411,287.648 L170.087,287.648 L170.087,289.718 L170.411,289.718 C170.411,289.61 170.453,289.532 170.537,289.484 C170.621,289.436 170.711,289.412 170.807,289.412 L170.807,289.412 L173.147,289.412 L173.147,295.406 C173.147,295.502 173.117,295.571 173.057,295.613 C172.997,295.655 172.937,295.676 172.877,295.676 L172.877,295.676 L172.877,296 L175.199,296 Z M182.381,296 L182.381,295.676 C182.273,295.676 182.177,295.655 182.093,295.613 C182.009,295.571 181.967,295.502 181.967,295.406 L181.967,295.406 L181.967,292.652 L185.135,292.652 C185.339,292.652 185.465,292.676 185.513,292.724 C185.561,292.772 185.591,292.844 185.603,292.94 L185.603,292.94 L185.927,292.94 L185.927,291.05 L185.603,291.05 C185.591,291.146 185.561,291.215 185.513,291.257 C185.465,291.299 185.339,291.32 185.135,291.32 L185.135,291.32 L181.967,291.32 L181.967,289.412 L186.845,289.412 C187.049,289.412 187.193,289.439 187.277,289.493 C187.361,289.547 187.403,289.604 187.403,289.664 L187.403,289.664 L187.727,289.664 L187.727,287.756 L187.403,287.756 C187.403,287.852 187.361,287.93 187.277,287.99 C187.193,288.05 187.049,288.08 186.845,288.08 L186.845,288.08 L179.861,288.08 L179.861,288.404 C180.113,288.404 180.239,288.494 180.239,288.674 L180.239,288.674 L180.239,295.406 C180.239,295.586 180.125,295.676 179.897,295.676 L179.897,295.676 L179.897,296 L182.381,296 Z M192.875,296 L192.875,295.676 C192.539,295.676 192.371,295.586 192.371,295.406 L192.371,295.406 L192.371,288.674 C192.371,288.494 192.539,288.404 192.875,288.404 L192.875,288.404 L192.875,288.08 L190.139,288.08 L190.139,288.404 C190.331,288.404 190.463,288.425 190.535,288.467 C190.607,288.509 190.643,288.578 190.643,288.674 L190.643,288.674 L190.643,295.406 C190.643,295.502 190.607,295.571 190.535,295.613 C190.463,295.655 190.331,295.676 190.139,295.676 L190.139,295.676 L190.139,296 L192.875,296 Z M200.201,296 L200.201,295.676 C199.985,295.676 199.877,295.586 199.877,295.406 L199.877,295.406 L199.877,289.412 L202.217,289.412 C202.313,289.412 202.403,289.436 202.487,289.484 C202.571,289.532 202.613,289.61 202.613,289.718 L202.613,289.718 L202.937,289.718 L202.937,287.648 L202.613,287.648 C202.613,287.816 202.571,287.93 202.487,287.99 C202.403,288.05 202.313,288.08 202.217,288.08 L202.217,288.08 L195.809,288.08 C195.713,288.08 195.623,288.05 195.539,287.99 C195.455,287.93 195.413,287.816 195.413,287.648 L195.413,287.648 L195.089,287.648 L195.089,289.718 L195.413,289.718 C195.413,289.61 195.455,289.532 195.539,289.484 C195.623,289.436 195.713,289.412 195.809,289.412 L195.809,289.412 L198.149,289.412 L198.149,295.406 C198.149,295.502 198.119,295.571 198.059,295.613 C197.999,295.655 197.939,295.676 197.879,295.676 L197.879,295.676 L197.879,296 L200.201,296 Z M208.697,292.724 L208.697,292.508 C208.589,292.508 208.511,292.463 208.463,292.373 C208.415,292.283 208.391,292.172 208.391,292.04 C208.391,291.764 208.499,291.506 208.715,291.266 C208.931,291.026 209.165,290.768 209.417,290.492 C209.681,290.216 209.918,289.913 210.128,289.583 C210.338,289.253 210.443,288.866 210.443,288.422 C210.443,288.062 210.368,287.741 210.218,287.459 C210.068,287.177 209.867,286.943 209.615,286.757 C209.363,286.571 209.078,286.427 208.76,286.325 C208.442,286.223 208.121,286.172 207.797,286.172 C207.293,286.172 206.885,286.232 206.573,286.352 C206.261,286.472 206.003,286.601 205.799,286.739 C205.595,286.877 205.43,287.006 205.304,287.126 C205.178,287.246 205.055,287.306 204.935,287.306 C204.923,287.306 204.857,287.294 204.737,287.27 L204.737,287.27 L204.575,287.432 L205.961,288.944 L206.123,288.818 C206.087,288.71 206.069,288.602 206.069,288.494 C206.069,288.422 206.102,288.329 206.168,288.215 C206.234,288.101 206.33,287.996 206.456,287.9 C206.582,287.804 206.738,287.72 206.924,287.648 C207.11,287.576 207.317,287.54 207.545,287.54 C207.857,287.54 208.118,287.633 208.328,287.819 C208.538,288.005 208.643,288.26 208.643,288.584 C208.643,288.86 208.565,289.103 208.409,289.313 C208.253,289.523 208.073,289.748 207.869,289.988 C207.677,290.216 207.494,290.48 207.32,290.78 C207.146,291.08 207.035,291.482 206.987,291.986 C206.963,292.19 206.924,292.328 206.87,292.4 C206.816,292.472 206.753,292.508 206.681,292.508 L206.681,292.508 L206.681,292.724 L208.697,292.724 Z M207.671,296.054 C207.983,296.054 208.253,295.949 208.481,295.739 C208.709,295.529 208.823,295.268 208.823,294.956 C208.823,294.644 208.709,294.374 208.481,294.146 C208.253,293.918 207.983,293.804 207.671,293.804 C207.359,293.804 207.089,293.918 206.861,294.146 C206.633,294.374 206.519,294.644 206.519,294.956 C206.519,295.268 206.633,295.529 206.861,295.739 C207.089,295.949 207.359,296.054 207.671,296.054 Z M58.19,314 L58.19,313.676 C57.962,313.676 57.848,313.61 57.848,313.478 C57.848,313.37 57.908,313.19 58.028,312.938 L58.028,312.938 L58.676,311.66 L63.068,311.66 L63.752,312.992 C63.848,313.184 63.896,313.34 63.896,313.46 C63.896,313.532 63.86,313.586 63.788,313.622 C63.716,313.658 63.656,313.676 63.608,313.676 L63.608,313.676 L63.608,314 L66.776,314 L66.776,313.676 C66.644,313.616 66.527,313.556 66.425,313.496 C66.323,313.436 66.242,313.34 66.182,313.208 L66.182,313.208 L62.438,305.882 C62.354,305.726 62.291,305.6 62.249,305.504 C62.207,305.408 62.186,305.312 62.186,305.216 C62.186,305.084 62.228,304.997 62.312,304.955 C62.396,304.913 62.48,304.88 62.564,304.856 L62.564,304.856 L62.564,304.532 L59.522,304.532 L59.522,304.856 C59.618,304.88 59.708,304.916 59.792,304.964 C59.876,305.012 59.918,305.096 59.918,305.216 C59.918,305.312 59.885,305.426 59.819,305.558 C59.753,305.69 59.678,305.834 59.594,305.99 L59.594,305.99 L56.264,312.992 C56.18,313.16 56.093,313.31 56.003,313.442 C55.913,313.574 55.79,313.652 55.634,313.676 L55.634,313.676 L55.634,314 L58.19,314 Z M62.42,310.328 L59.216,310.328 L60.908,306.98 L62.42,310.328 Z M73.544,314 C74.252,314 74.852,313.886 75.344,313.658 C75.836,313.43 76.238,313.133 76.55,312.767 C76.862,312.401 77.09,311.981 77.234,311.507 C77.378,311.033 77.45,310.544 77.45,310.04 C77.45,309.536 77.375,309.047 77.225,308.573 C77.075,308.099 76.841,307.679 76.523,307.313 C76.205,306.947 75.794,306.65 75.29,306.422 C74.786,306.194 74.18,306.08 73.472,306.08 L73.472,306.08 L68.468,306.08 L68.468,306.404 C68.744,306.404 68.882,306.494 68.882,306.674 L68.882,306.674 L68.882,313.406 C68.882,313.586 68.744,313.676 68.468,313.676 L68.468,313.676 L68.468,314 L73.544,314 Z M72.95,312.668 L70.61,312.668 L70.61,307.412 L72.95,307.412 C73.322,307.412 73.676,307.433 74.012,307.475 C74.348,307.517 74.642,307.625 74.894,307.799 C75.146,307.973 75.347,308.231 75.497,308.573 C75.647,308.915 75.722,309.386 75.722,309.986 C75.722,310.586 75.647,311.063 75.497,311.417 C75.347,311.771 75.146,312.041 74.894,312.227 C74.642,312.413 74.348,312.533 74.012,312.587 C73.676,312.641 73.322,312.668 72.95,312.668 L72.95,312.668 Z M84.542,314 C85.25,314 85.85,313.886 86.342,313.658 C86.834,313.43 87.236,313.133 87.548,312.767 C87.86,312.401 88.088,311.981 88.232,311.507 C88.376,311.033 88.448,310.544 88.448,310.04 C88.448,309.536 88.373,309.047 88.223,308.573 C88.073,308.099 87.839,307.679 87.521,307.313 C87.203,306.947 86.792,306.65 86.288,306.422 C85.784,306.194 85.178,306.08 84.47,306.08 L84.47,306.08 L79.466,306.08 L79.466,306.404 C79.742,306.404 79.88,306.494 79.88,306.674 L79.88,306.674 L79.88,313.406 C79.88,313.586 79.742,313.676 79.466,313.676 L79.466,313.676 L79.466,314 L84.542,314 Z M83.948,312.668 L81.608,312.668 L81.608,307.412 L83.948,307.412 C84.32,307.412 84.674,307.433 85.01,307.475 C85.346,307.517 85.64,307.625 85.892,307.799 C86.144,307.973 86.345,308.231 86.495,308.573 C86.645,308.915 86.72,309.386 86.72,309.986 C86.72,310.586 86.645,311.063 86.495,311.417 C86.345,311.771 86.144,312.041 85.892,312.227 C85.64,312.413 85.346,312.533 85.01,312.587 C84.674,312.641 84.32,312.668 83.948,312.668 L83.948,312.668 Z M100.436,314 L100.436,313.676 C100.22,313.676 100.112,313.586 100.112,313.406 L100.112,313.406 L100.112,307.412 L102.452,307.412 C102.548,307.412 102.638,307.436 102.722,307.484 C102.806,307.532 102.848,307.61 102.848,307.718 L102.848,307.718 L103.172,307.718 L103.172,305.648 L102.848,305.648 C102.848,305.816 102.806,305.93 102.722,305.99 C102.638,306.05 102.548,306.08 102.452,306.08 L102.452,306.08 L96.044,306.08 C95.948,306.08 95.858,306.05 95.774,305.99 C95.69,305.93 95.648,305.816 95.648,305.648 L95.648,305.648 L95.324,305.648 L95.324,307.718 L95.648,307.718 C95.648,307.61 95.69,307.532 95.774,307.484 C95.858,307.436 95.948,307.412 96.044,307.412 L96.044,307.412 L98.384,307.412 L98.384,313.406 C98.384,313.502 98.354,313.571 98.294,313.613 C98.234,313.655 98.174,313.676 98.114,313.676 L98.114,313.676 L98.114,314 L100.436,314 Z M107.6,314 L107.6,313.676 C107.528,313.676 107.465,313.655 107.411,313.613 C107.357,313.571 107.33,313.502 107.33,313.406 L107.33,313.406 L107.33,310.688 L112.154,310.688 L112.154,313.406 C112.154,313.502 112.127,313.571 112.073,313.613 C112.019,313.655 111.956,313.676 111.884,313.676 L111.884,313.676 L111.884,314 L114.152,314 L114.152,313.676 C114.08,313.676 114.017,313.655 113.963,313.613 C113.909,313.571 113.882,313.502 113.882,313.406 L113.882,313.406 L113.882,306.674 C113.882,306.578 113.909,306.509 113.963,306.467 C114.017,306.425 114.08,306.404 114.152,306.404 L114.152,306.404 L114.152,306.08 L111.884,306.08 L111.884,306.404 C111.956,306.404 112.019,306.425 112.073,306.467 C112.127,306.509 112.154,306.578 112.154,306.674 L112.154,306.674 L112.154,309.212 L107.33,309.212 L107.33,306.674 C107.33,306.578 107.357,306.509 107.411,306.467 C107.465,306.425 107.528,306.404 107.6,306.404 L107.6,306.404 L107.6,306.08 L105.332,306.08 L105.332,306.404 C105.404,306.404 105.467,306.425 105.521,306.467 C105.575,306.509 105.602,306.578 105.602,306.674 L105.602,306.674 L105.602,313.406 C105.602,313.502 105.575,313.571 105.521,313.613 C105.467,313.655 105.404,313.676 105.332,313.676 L105.332,313.676 L105.332,314 L107.6,314 Z M120.11,314 L120.11,313.676 C119.774,313.676 119.606,313.586 119.606,313.406 L119.606,313.406 L119.606,306.674 C119.606,306.494 119.774,306.404 120.11,306.404 L120.11,306.404 L120.11,306.08 L117.374,306.08 L117.374,306.404 C117.566,306.404 117.698,306.425 117.77,306.467 C117.842,306.509 117.878,306.578 117.878,306.674 L117.878,306.674 L117.878,313.406 C117.878,313.502 117.842,313.571 117.77,313.613 C117.698,313.655 117.566,313.676 117.374,313.676 L117.374,313.676 L117.374,314 L120.11,314 Z M126.608,314.054 C127.016,314.054 127.451,314.024 127.913,313.964 C128.375,313.904 128.798,313.778 129.182,313.586 C129.566,313.394 129.887,313.13 130.145,312.794 C130.403,312.458 130.532,312.026 130.532,311.498 C130.532,310.97 130.385,310.556 130.091,310.256 C129.797,309.956 129.428,309.728 128.984,309.572 C128.54,309.416 128.06,309.305 127.544,309.239 C127.028,309.173 126.548,309.107 126.104,309.041 C125.66,308.975 125.291,308.885 124.997,308.771 C124.703,308.657 124.556,308.468 124.556,308.204 C124.556,308.036 124.604,307.895 124.7,307.781 C124.796,307.667 124.928,307.574 125.096,307.502 C125.264,307.43 125.456,307.379 125.672,307.349 C125.888,307.319 126.116,307.304 126.356,307.304 C126.98,307.304 127.544,307.376 128.048,307.52 C128.552,307.664 128.924,307.838 129.164,308.042 C129.26,308.114 129.314,308.186 129.326,308.258 L129.326,308.258 L129.362,308.474 L129.686,308.582 L130.586,306.89 L130.388,306.692 C130.316,306.728 130.256,306.761 130.208,306.791 C130.16,306.821 130.088,306.836 129.992,306.836 C129.908,306.836 129.779,306.791 129.605,306.701 C129.431,306.611 129.206,306.512 128.93,306.404 C128.654,306.296 128.315,306.197 127.913,306.107 C127.511,306.017 127.028,305.972 126.464,305.972 C125.312,305.972 124.418,306.2 123.782,306.656 C123.146,307.112 122.828,307.724 122.828,308.492 C122.828,309.008 122.975,309.407 123.269,309.689 C123.563,309.971 123.932,310.187 124.376,310.337 C124.82,310.487 125.3,310.595 125.816,310.661 C126.332,310.727 126.812,310.793 127.256,310.859 C127.7,310.925 128.069,311.018 128.363,311.138 C128.657,311.258 128.804,311.45 128.804,311.714 C128.804,311.942 128.72,312.125 128.552,312.263 C128.384,312.401 128.18,312.509 127.94,312.587 C127.7,312.665 127.457,312.716 127.211,312.74 C126.965,312.764 126.758,312.776 126.59,312.776 C126.41,312.776 126.161,312.746 125.843,312.686 C125.525,312.626 125.207,312.545 124.889,312.443 C124.571,312.341 124.298,312.215 124.07,312.065 C123.842,311.915 123.728,311.75 123.728,311.57 C123.728,311.51 123.731,311.453 123.737,311.399 C123.743,311.345 123.746,311.294 123.746,311.246 L123.746,311.246 L123.404,311.156 L122.576,313.172 L122.828,313.352 C122.888,313.28 122.96,313.244 123.044,313.244 C123.092,313.244 123.23,313.289 123.458,313.379 C123.686,313.469 123.965,313.565 124.295,313.667 C124.625,313.769 124.991,313.859 125.393,313.937 C125.795,314.015 126.2,314.054 126.608,314.054 Z M142.934,314 L142.934,313.676 C142.718,313.676 142.61,313.586 142.61,313.406 L142.61,313.406 L142.61,307.412 L144.95,307.412 C145.046,307.412 145.136,307.436 145.22,307.484 C145.304,307.532 145.346,307.61 145.346,307.718 L145.346,307.718 L145.67,307.718 L145.67,305.648 L145.346,305.648 C145.346,305.816 145.304,305.93 145.22,305.99 C145.136,306.05 145.046,306.08 144.95,306.08 L144.95,306.08 L138.542,306.08 C138.446,306.08 138.356,306.05 138.272,305.99 C138.188,305.93 138.146,305.816 138.146,305.648 L138.146,305.648 L137.822,305.648 L137.822,307.718 L138.146,307.718 C138.146,307.61 138.188,307.532 138.272,307.484 C138.356,307.436 138.446,307.412 138.542,307.412 L138.542,307.412 L140.882,307.412 L140.882,313.406 C140.882,313.502 140.852,313.571 140.792,313.613 C140.732,313.655 140.672,313.676 140.612,313.676 L140.612,313.676 L140.612,314 L142.934,314 Z M151.736,314.054 C152.396,314.054 153.017,313.979 153.599,313.829 C154.181,313.679 154.688,313.436 155.12,313.1 C155.552,312.764 155.894,312.341 156.146,311.831 C156.398,311.321 156.524,310.724 156.524,310.04 C156.524,309.356 156.398,308.759 156.146,308.249 C155.894,307.739 155.552,307.316 155.12,306.98 C154.688,306.644 154.181,306.392 153.599,306.224 C153.017,306.056 152.396,305.972 151.736,305.972 C151.076,305.972 150.455,306.056 149.873,306.224 C149.291,306.392 148.784,306.644 148.352,306.98 C147.92,307.316 147.578,307.739 147.326,308.249 C147.074,308.759 146.948,309.356 146.948,310.04 C146.948,310.724 147.074,311.321 147.326,311.831 C147.578,312.341 147.92,312.764 148.352,313.1 C148.784,313.436 149.291,313.679 149.873,313.829 C150.455,313.979 151.076,314.054 151.736,314.054 Z M151.736,312.776 C151.352,312.776 150.977,312.713 150.611,312.587 C150.245,312.461 149.918,312.281 149.63,312.047 C149.342,311.813 149.111,311.528 148.937,311.192 C148.763,310.856 148.676,310.472 148.676,310.04 C148.676,309.608 148.763,309.224 148.937,308.888 C149.111,308.552 149.342,308.267 149.63,308.033 C149.918,307.799 150.245,307.619 150.611,307.493 C150.977,307.367 151.352,307.304 151.736,307.304 C152.12,307.304 152.495,307.367 152.861,307.493 C153.227,307.619 153.554,307.799 153.842,308.033 C154.13,308.267 154.361,308.552 154.535,308.888 C154.709,309.224 154.796,309.608 154.796,310.04 C154.796,310.472 154.709,310.856 154.535,311.192 C154.361,311.528 154.13,311.813 153.842,312.047 C153.554,312.281 153.227,312.461 152.861,312.587 C152.495,312.713 152.12,312.776 151.736,312.776 Z M168.944,314 L168.944,313.676 C168.716,313.676 168.602,313.586 168.602,313.406 L168.602,313.406 L168.602,310.706 L171.356,307.142 C171.488,306.974 171.641,306.809 171.815,306.647 C171.989,306.485 172.148,306.404 172.292,306.404 L172.292,306.404 L172.292,306.08 L169.538,306.08 L169.538,306.404 C169.598,306.404 169.658,306.416 169.718,306.44 C169.778,306.464 169.808,306.524 169.808,306.62 C169.808,306.692 169.781,306.767 169.727,306.845 C169.673,306.923 169.592,307.04 169.484,307.196 L169.484,307.196 L167.882,309.428 L166.064,307.052 C166.004,306.968 165.95,306.896 165.902,306.836 C165.854,306.776 165.83,306.71 165.83,306.638 C165.83,306.566 165.866,306.509 165.938,306.467 C166.01,306.425 166.076,306.404 166.136,306.404 L166.136,306.404 L166.136,306.08 L163.166,306.08 L163.166,306.404 C163.274,306.404 163.388,306.428 163.508,306.476 C163.628,306.524 163.73,306.602 163.814,306.71 L163.814,306.71 L166.874,310.634 L166.874,313.406 C166.874,313.586 166.766,313.676 166.55,313.676 L166.55,313.676 L166.55,314 L168.944,314 Z M178.232,314.054 C178.892,314.054 179.513,313.979 180.095,313.829 C180.677,313.679 181.184,313.436 181.616,313.1 C182.048,312.764 182.39,312.341 182.642,311.831 C182.894,311.321 183.02,310.724 183.02,310.04 C183.02,309.356 182.894,308.759 182.642,308.249 C182.39,307.739 182.048,307.316 181.616,306.98 C181.184,306.644 180.677,306.392 180.095,306.224 C179.513,306.056 178.892,305.972 178.232,305.972 C177.572,305.972 176.951,306.056 176.369,306.224 C175.787,306.392 175.28,306.644 174.848,306.98 C174.416,307.316 174.074,307.739 173.822,308.249 C173.57,308.759 173.444,309.356 173.444,310.04 C173.444,310.724 173.57,311.321 173.822,311.831 C174.074,312.341 174.416,312.764 174.848,313.1 C175.28,313.436 175.787,313.679 176.369,313.829 C176.951,313.979 177.572,314.054 178.232,314.054 Z M178.232,312.776 C177.848,312.776 177.473,312.713 177.107,312.587 C176.741,312.461 176.414,312.281 176.126,312.047 C175.838,311.813 175.607,311.528 175.433,311.192 C175.259,310.856 175.172,310.472 175.172,310.04 C175.172,309.608 175.259,309.224 175.433,308.888 C175.607,308.552 175.838,308.267 176.126,308.033 C176.414,307.799 176.741,307.619 177.107,307.493 C177.473,307.367 177.848,307.304 178.232,307.304 C178.616,307.304 178.991,307.367 179.357,307.493 C179.723,307.619 180.05,307.799 180.338,308.033 C180.626,308.267 180.857,308.552 181.031,308.888 C181.205,309.224 181.292,309.608 181.292,310.04 C181.292,310.472 181.205,310.856 181.031,311.192 C180.857,311.528 180.626,311.813 180.338,312.047 C180.05,312.281 179.723,312.461 179.357,312.587 C178.991,312.713 178.616,312.776 178.232,312.776 Z M189.806,314.054 C190.526,314.054 191.153,313.979 191.687,313.829 C192.221,313.679 192.659,313.472 193.001,313.208 C193.343,312.944 193.598,312.641 193.766,312.299 C193.934,311.957 194.018,311.6 194.018,311.228 L194.018,311.228 L194.018,306.674 C194.018,306.494 194.15,306.404 194.414,306.404 L194.414,306.404 L194.414,306.08 L191.912,306.08 L191.912,306.404 C192.212,306.404 192.362,306.494 192.362,306.674 L192.362,306.674 L192.362,310.796 C192.362,311.372 192.152,311.834 191.732,312.182 C191.312,312.53 190.67,312.704 189.806,312.704 C188.942,312.704 188.3,312.53 187.88,312.182 C187.46,311.834 187.25,311.372 187.25,310.796 L187.25,310.796 L187.25,306.674 C187.25,306.494 187.382,306.404 187.646,306.404 L187.646,306.404 L187.646,306.08 L185.072,306.08 L185.072,306.404 C185.276,306.404 185.414,306.425 185.486,306.467 C185.558,306.509 185.594,306.578 185.594,306.674 L185.594,306.674 L185.594,311.228 C185.594,311.6 185.678,311.957 185.846,312.299 C186.014,312.641 186.269,312.944 186.611,313.208 C186.953,313.472 187.391,313.679 187.925,313.829 C188.459,313.979 189.086,314.054 189.806,314.054 Z M199.544,314 L199.544,313.676 C199.472,313.676 199.397,313.655 199.319,313.613 C199.241,313.571 199.202,313.502 199.202,313.406 L199.202,313.406 L199.202,310.832 L201.704,310.832 L203.126,312.956 C203.306,313.208 203.396,313.394 203.396,313.514 C203.396,313.622 203.318,313.676 203.162,313.676 L203.162,313.676 L203.162,314 L205.916,314 L205.916,313.676 C205.784,313.64 205.661,313.589 205.547,313.523 C205.433,313.457 205.328,313.358 205.232,313.226 L205.232,313.226 L203.468,310.652 C203.72,310.592 203.966,310.505 204.206,310.391 C204.446,310.277 204.665,310.127 204.863,309.941 C205.061,309.755 205.22,309.536 205.34,309.284 C205.46,309.032 205.52,308.744 205.52,308.42 C205.52,307.568 205.22,306.965 204.62,306.611 C204.02,306.257 203.186,306.08 202.118,306.08 L202.118,306.08 L197.15,306.08 L197.15,306.404 C197.366,306.404 197.474,306.494 197.474,306.674 L197.474,306.674 L197.474,313.406 C197.474,313.586 197.366,313.676 197.15,313.676 L197.15,313.676 L197.15,314 L199.544,314 Z M202.082,309.5 L199.238,309.5 L199.238,307.412 L202.082,307.412 C202.694,307.412 203.141,307.499 203.423,307.673 C203.705,307.847 203.846,308.084 203.846,308.384 C203.846,309.128 203.258,309.5 202.082,309.5 L202.082,309.5 Z M74.354,332.054 C74.762,332.054 75.197,332.024 75.659,331.964 C76.121,331.904 76.544,331.778 76.928,331.586 C77.312,331.394 77.633,331.13 77.891,330.794 C78.149,330.458 78.278,330.026 78.278,329.498 C78.278,328.97 78.131,328.556 77.837,328.256 C77.543,327.956 77.174,327.728 76.73,327.572 C76.286,327.416 75.806,327.305 75.29,327.239 C74.774,327.173 74.294,327.107 73.85,327.041 C73.406,326.975 73.037,326.885 72.743,326.771 C72.449,326.657 72.302,326.468 72.302,326.204 C72.302,326.036 72.35,325.895 72.446,325.781 C72.542,325.667 72.674,325.574 72.842,325.502 C73.01,325.43 73.202,325.379 73.418,325.349 C73.634,325.319 73.862,325.304 74.102,325.304 C74.726,325.304 75.29,325.376 75.794,325.52 C76.298,325.664 76.67,325.838 76.91,326.042 C77.006,326.114 77.06,326.186 77.072,326.258 L77.072,326.258 L77.108,326.474 L77.432,326.582 L78.332,324.89 L78.134,324.692 C78.062,324.728 78.002,324.761 77.954,324.791 C77.906,324.821 77.834,324.836 77.738,324.836 C77.654,324.836 77.525,324.791 77.351,324.701 C77.177,324.611 76.952,324.512 76.676,324.404 C76.4,324.296 76.061,324.197 75.659,324.107 C75.257,324.017 74.774,323.972 74.21,323.972 C73.058,323.972 72.164,324.2 71.528,324.656 C70.892,325.112 70.574,325.724 70.574,326.492 C70.574,327.008 70.721,327.407 71.015,327.689 C71.309,327.971 71.678,328.187 72.122,328.337 C72.566,328.487 73.046,328.595 73.562,328.661 C74.078,328.727 74.558,328.793 75.002,328.859 C75.446,328.925 75.815,329.018 76.109,329.138 C76.403,329.258 76.55,329.45 76.55,329.714 C76.55,329.942 76.466,330.125 76.298,330.263 C76.13,330.401 75.926,330.509 75.686,330.587 C75.446,330.665 75.203,330.716 74.957,330.74 C74.711,330.764 74.504,330.776 74.336,330.776 C74.156,330.776 73.907,330.746 73.589,330.686 C73.271,330.626 72.953,330.545 72.635,330.443 C72.317,330.341 72.044,330.215 71.816,330.065 C71.588,329.915 71.474,329.75 71.474,329.57 C71.474,329.51 71.477,329.453 71.483,329.399 C71.489,329.345 71.492,329.294 71.492,329.246 L71.492,329.246 L71.15,329.156 L70.322,331.172 L70.574,331.352 C70.634,331.28 70.706,331.244 70.79,331.244 C70.838,331.244 70.976,331.289 71.204,331.379 C71.432,331.469 71.711,331.565 72.041,331.667 C72.371,331.769 72.737,331.859 73.139,331.937 C73.541,332.015 73.946,332.054 74.354,332.054 Z M85.712,332 L85.712,331.676 C85.484,331.676 85.37,331.586 85.37,331.406 L85.37,331.406 L85.37,328.706 L88.124,325.142 C88.256,324.974 88.409,324.809 88.583,324.647 C88.757,324.485 88.916,324.404 89.06,324.404 L89.06,324.404 L89.06,324.08 L86.306,324.08 L86.306,324.404 C86.366,324.404 86.426,324.416 86.486,324.44 C86.546,324.464 86.576,324.524 86.576,324.62 C86.576,324.692 86.549,324.767 86.495,324.845 C86.441,324.923 86.36,325.04 86.252,325.196 L86.252,325.196 L84.65,327.428 L82.832,325.052 C82.772,324.968 82.718,324.896 82.67,324.836 C82.622,324.776 82.598,324.71 82.598,324.638 C82.598,324.566 82.634,324.509 82.706,324.467 C82.778,324.425 82.844,324.404 82.904,324.404 L82.904,324.404 L82.904,324.08 L79.934,324.08 L79.934,324.404 C80.042,324.404 80.156,324.428 80.276,324.476 C80.396,324.524 80.498,324.602 80.582,324.71 L80.582,324.71 L83.642,328.634 L83.642,331.406 C83.642,331.586 83.534,331.676 83.318,331.676 L83.318,331.676 L83.318,332 L85.712,332 Z M93.218,332 L93.218,331.676 C93.014,331.676 92.912,331.586 92.912,331.406 L92.912,331.406 L92.912,326.348 L92.93,326.348 L95.828,332 L95.972,332 L99.032,326.348 L99.068,326.348 L99.068,331.406 C99.104,331.586 98.996,331.676 98.744,331.676 L98.744,331.676 L98.744,332 L100.832,332 L100.832,331.676 C100.772,331.676 100.715,331.655 100.661,331.613 C100.607,331.571 100.58,331.502 100.58,331.406 L100.58,331.406 L100.58,324.638 C100.58,324.542 100.607,324.479 100.661,324.449 C100.715,324.419 100.772,324.404 100.832,324.404 L100.832,324.404 L100.832,324.08 L98.294,324.08 L98.294,324.404 C98.39,324.404 98.438,324.458 98.438,324.566 C98.438,324.602 98.414,324.665 98.366,324.755 C98.318,324.845 98.252,324.962 98.168,325.106 L98.168,325.106 L95.954,329.138 L93.758,325.088 C93.674,324.944 93.611,324.833 93.569,324.755 C93.527,324.677 93.506,324.614 93.506,324.566 C93.506,324.458 93.566,324.404 93.686,324.404 L93.686,324.404 L93.686,324.08 L91.184,324.08 L91.184,324.404 C91.268,324.404 91.325,324.422 91.355,324.458 C91.385,324.494 91.4,324.596 91.4,324.764 L91.4,324.764 L91.4,331.352 C91.4,331.484 91.379,331.568 91.337,331.604 C91.295,331.64 91.244,331.664 91.184,331.676 L91.184,331.676 L91.184,332 L93.218,332 Z M106.268,332 L106.268,331.676 C106.016,331.676 105.89,331.586 105.89,331.406 L105.89,331.406 L105.89,328.706 L108.95,328.706 C109.922,328.706 110.651,328.541 111.137,328.211 C111.623,327.881 111.866,327.284 111.866,326.42 C111.866,325.556 111.623,324.95 111.137,324.602 C110.651,324.254 109.922,324.08 108.95,324.08 L108.95,324.08 L103.712,324.08 L103.712,324.404 C104.012,324.404 104.162,324.494 104.162,324.674 L104.162,324.674 L104.162,331.406 C104.162,331.586 104.012,331.676 103.712,331.676 L103.712,331.676 L103.712,332 L106.268,332 Z M108.914,327.374 L105.89,327.374 L105.89,325.412 L108.914,325.412 C109.262,325.412 109.553,325.487 109.787,325.637 C110.021,325.787 110.138,326.048 110.138,326.42 C110.138,326.804 110.021,327.059 109.787,327.185 C109.553,327.311 109.262,327.374 108.914,327.374 L108.914,327.374 Z M118.202,332 L118.202,331.676 C117.986,331.676 117.878,331.586 117.878,331.406 L117.878,331.406 L117.878,325.412 L120.218,325.412 C120.314,325.412 120.404,325.436 120.488,325.484 C120.572,325.532 120.614,325.61 120.614,325.718 L120.614,325.718 L120.938,325.718 L120.938,323.648 L120.614,323.648 C120.614,323.816 120.572,323.93 120.488,323.99 C120.404,324.05 120.314,324.08 120.218,324.08 L120.218,324.08 L113.81,324.08 C113.714,324.08 113.624,324.05 113.54,323.99 C113.456,323.93 113.414,323.816 113.414,323.648 L113.414,323.648 L113.09,323.648 L113.09,325.718 L113.414,325.718 C113.414,325.61 113.456,325.532 113.54,325.484 C113.624,325.436 113.714,325.412 113.81,325.412 L113.81,325.412 L116.15,325.412 L116.15,331.406 C116.15,331.502 116.12,331.571 116.06,331.613 C116,331.655 115.94,331.676 115.88,331.676 L115.88,331.676 L115.88,332 L118.202,332 Z M127.004,332.054 C127.664,332.054 128.285,331.979 128.867,331.829 C129.449,331.679 129.956,331.436 130.388,331.1 C130.82,330.764 131.162,330.341 131.414,329.831 C131.666,329.321 131.792,328.724 131.792,328.04 C131.792,327.356 131.666,326.759 131.414,326.249 C131.162,325.739 130.82,325.316 130.388,324.98 C129.956,324.644 129.449,324.392 128.867,324.224 C128.285,324.056 127.664,323.972 127.004,323.972 C126.344,323.972 125.723,324.056 125.141,324.224 C124.559,324.392 124.052,324.644 123.62,324.98 C123.188,325.316 122.846,325.739 122.594,326.249 C122.342,326.759 122.216,327.356 122.216,328.04 C122.216,328.724 122.342,329.321 122.594,329.831 C122.846,330.341 123.188,330.764 123.62,331.1 C124.052,331.436 124.559,331.679 125.141,331.829 C125.723,331.979 126.344,332.054 127.004,332.054 Z M127.004,330.776 C126.62,330.776 126.245,330.713 125.879,330.587 C125.513,330.461 125.186,330.281 124.898,330.047 C124.61,329.813 124.379,329.528 124.205,329.192 C124.031,328.856 123.944,328.472 123.944,328.04 C123.944,327.608 124.031,327.224 124.205,326.888 C124.379,326.552 124.61,326.267 124.898,326.033 C125.186,325.799 125.513,325.619 125.879,325.493 C126.245,325.367 126.62,325.304 127.004,325.304 C127.388,325.304 127.763,325.367 128.129,325.493 C128.495,325.619 128.822,325.799 129.11,326.033 C129.398,326.267 129.629,326.552 129.803,326.888 C129.977,327.224 130.064,327.608 130.064,328.04 C130.064,328.472 129.977,328.856 129.803,329.192 C129.629,329.528 129.398,329.813 129.11,330.047 C128.822,330.281 128.495,330.461 128.129,330.587 C127.763,330.713 127.388,330.776 127.004,330.776 Z M136.22,332 L136.22,331.676 C136.016,331.676 135.914,331.586 135.914,331.406 L135.914,331.406 L135.914,326.348 L135.932,326.348 L138.83,332 L138.974,332 L142.034,326.348 L142.07,326.348 L142.07,331.406 C142.106,331.586 141.998,331.676 141.746,331.676 L141.746,331.676 L141.746,332 L143.834,332 L143.834,331.676 C143.774,331.676 143.717,331.655 143.663,331.613 C143.609,331.571 143.582,331.502 143.582,331.406 L143.582,331.406 L143.582,324.638 C143.582,324.542 143.609,324.479 143.663,324.449 C143.717,324.419 143.774,324.404 143.834,324.404 L143.834,324.404 L143.834,324.08 L141.296,324.08 L141.296,324.404 C141.392,324.404 141.44,324.458 141.44,324.566 C141.44,324.602 141.416,324.665 141.368,324.755 C141.32,324.845 141.254,324.962 141.17,325.106 L141.17,325.106 L138.956,329.138 L136.76,325.088 C136.676,324.944 136.613,324.833 136.571,324.755 C136.529,324.677 136.508,324.614 136.508,324.566 C136.508,324.458 136.568,324.404 136.688,324.404 L136.688,324.404 L136.688,324.08 L134.186,324.08 L134.186,324.404 C134.27,324.404 134.327,324.422 134.357,324.458 C134.387,324.494 134.402,324.596 134.402,324.764 L134.402,324.764 L134.402,331.352 C134.402,331.484 134.381,331.568 134.339,331.604 C134.297,331.64 134.246,331.664 134.186,331.676 L134.186,331.676 L134.186,332 L136.22,332 Z M154.76,332 L154.76,331.676 C154.508,331.676 154.382,331.586 154.382,331.406 L154.382,331.406 L154.382,328.706 L157.442,328.706 C158.414,328.706 159.143,328.541 159.629,328.211 C160.115,327.881 160.358,327.284 160.358,326.42 C160.358,325.556 160.115,324.95 159.629,324.602 C159.143,324.254 158.414,324.08 157.442,324.08 L157.442,324.08 L152.204,324.08 L152.204,324.404 C152.504,324.404 152.654,324.494 152.654,324.674 L152.654,324.674 L152.654,331.406 C152.654,331.586 152.504,331.676 152.204,331.676 L152.204,331.676 L152.204,332 L154.76,332 Z M157.406,327.374 L154.382,327.374 L154.382,325.412 L157.406,325.412 C157.754,325.412 158.045,325.487 158.279,325.637 C158.513,325.787 158.63,326.048 158.63,326.42 C158.63,326.804 158.513,327.059 158.279,327.185 C158.045,327.311 157.754,327.374 157.406,327.374 L157.406,327.374 Z M165.362,332 L165.362,331.676 C165.026,331.676 164.858,331.586 164.858,331.406 L164.858,331.406 L164.858,324.674 C164.858,324.494 165.026,324.404 165.362,324.404 L165.362,324.404 L165.362,324.08 L162.626,324.08 L162.626,324.404 C162.818,324.404 162.95,324.425 163.022,324.467 C163.094,324.509 163.13,324.578 163.13,324.674 L163.13,324.674 L163.13,331.406 C163.13,331.502 163.094,331.571 163.022,331.613 C162.95,331.655 162.818,331.676 162.626,331.676 L162.626,331.676 L162.626,332 L165.362,332 Z M176.252,332.18 L176.252,330.29 L175.928,330.29 C175.928,330.41 175.88,330.503 175.784,330.569 C175.688,330.635 175.568,330.668 175.424,330.668 L175.424,330.668 L170.564,330.668 L170.564,324.674 C170.564,324.494 170.702,324.404 170.978,324.404 L170.978,324.404 L170.978,324.08 L168.368,324.08 L168.368,324.404 C168.68,324.404 168.836,324.494 168.836,324.674 L168.836,324.674 L168.836,331.406 C168.836,331.586 168.68,331.676 168.368,331.676 L168.368,331.676 L168.368,332 L175.424,332 C175.568,332 175.688,332.006 175.784,332.018 C175.88,332.03 175.928,332.084 175.928,332.18 L175.928,332.18 L176.252,332.18 Z M185.918,332.198 L185.918,330.308 L185.594,330.308 C185.594,330.416 185.546,330.503 185.45,330.569 C185.354,330.635 185.234,330.668 185.09,330.668 L185.09,330.668 L180.482,330.668 L180.482,328.544 L183.11,328.544 C183.35,328.544 183.536,328.559 183.668,328.589 C183.8,328.619 183.848,328.7 183.812,328.832 L183.812,328.832 L184.172,328.832 L184.172,326.924 L183.848,326.924 C183.848,327.056 183.8,327.137 183.704,327.167 C183.608,327.197 183.458,327.212 183.254,327.212 L183.254,327.212 L180.482,327.212 L180.482,325.412 L184.874,325.412 C185.246,325.412 185.432,325.526 185.432,325.754 L185.432,325.754 L185.756,325.754 L185.756,323.756 L185.432,323.756 C185.432,323.972 185.246,324.08 184.874,324.08 L184.874,324.08 L178.484,324.08 L178.484,324.404 C178.544,324.404 178.604,324.425 178.664,324.467 C178.724,324.509 178.754,324.578 178.754,324.674 L178.754,324.674 L178.754,331.406 C178.754,331.502 178.724,331.571 178.664,331.613 C178.604,331.655 178.544,331.676 178.484,331.676 L178.484,331.676 L178.484,332 L185.09,332 C185.234,332 185.354,332.006 185.45,332.018 C185.546,332.03 185.594,332.09 185.594,332.198 L185.594,332.198 L185.918,332.198 Z M189.752,332.054 C190.1,332.054 190.4,331.937 190.652,331.703 C190.904,331.469 191.03,331.178 191.03,330.83 C191.03,330.482 190.904,330.182 190.652,329.93 C190.4,329.678 190.1,329.552 189.752,329.552 C189.404,329.552 189.104,329.678 188.852,329.93 C188.6,330.182 188.474,330.482 188.474,330.83 C188.474,331.178 188.6,331.469 188.852,331.703 C189.104,331.937 189.404,332.054 189.752,332.054 Z" id="Yourereallygoingtowearthatoutfit?Addthistoyoursymptompile." fill="#000000" fill-rule="nonzero"></path>
    </g>
</svg>