<?xml version="1.0" encoding="UTF-8"?>
<svg width="262px" height="360px" viewBox="0 0 262 360" version="1.1" xmlns="http://www.w3.org/2000/svg" xmlns:xlink="http://www.w3.org/1999/xlink">
    <title>Chocolate 1</title>
    <g id="Chocolate-1" stroke="none" stroke-width="1" fill="none" fill-rule="evenodd">
        <g id="Group" transform="translate(9.000000, 9.000000)" fill="#FFFFFF" stroke="#000000" stroke-width="3">
            <g id="Rectangle">
                <rect x="1.5" y="1.5" width="239" height="337" rx="8"></rect>
            </g>
        </g>
        <rect id="Rectangle" stroke="#000000" stroke-width="3" x="17.5" y="265.5" width="225" height="76" rx="8"></rect>
        <g id="Beaker" transform="translate(230.000000, 15.000000)">
            <path d="M10.5,2.5 L10.5,6.40325225 C10.5,8.18857084 10.9156686,9.9493711 11.7140873,11.5462086 L11.7140873,11.5462086 L13.236068,14.5901699 C13.4096373,14.9373085 13.5,15.3200912 13.5,15.7082039 L13.5,15.7082039 L13.5,17.1715729 C13.5,17.5693976 13.3419647,17.9509285 13.0606602,18.232233 L13.0606602,18.232233 L12.232233,19.0606602 C11.9509285,19.3419647 11.5693976,19.5 11.1715729,19.5 L11.1715729,19.5 L2.82842712,19.5 C2.43060239,19.5 2.04907152,19.3419647 1.76776695,19.0606602 L1.76776695,19.0606602 L0.939339828,18.232233 C0.658035261,17.9509285 0.5,17.5693976 0.5,17.1715729 L0.5,17.1715729 L0.5,15.7082039 C0.5,15.3200912 0.590362729,14.9373085 0.763932023,14.5901699 L0.763932023,14.5901699 L2.2859127,11.5462086 C3.08433144,9.9493711 3.5,8.18857084 3.5,6.40325225 L3.5,6.40325225 L3.5,2.5 L10.5,2.5 Z" id="Rectangle" stroke="#000000"></path>
            <path d="M4,9 L10,9 C10,9.65899054 10.1414066,10.3103089 10.4146706,10.9099716 L11.7299148,13.7962019 C11.9078984,14.186777 12,14.6109968 12,15.0402137 L12,15.7335938 C12,16.2601989 11.7923083,16.7655549 11.4220052,17.1399725 L11.1585265,17.4063788 C10.7828385,17.7862411 10.2707843,18 9.7365213,18 L4.2634787,18 C3.72921573,18 3.21716155,17.7862411 2.8414735,17.4063788 L2.57799481,17.1399725 C2.20769169,16.7655549 2,16.2601989 2,15.7335938 L2,15.0402137 C2,14.6109968 2.09210162,14.186777 2.27008523,13.7962019 L3.5853294,10.9099716 C3.8585934,10.3103089 4,9.65899054 4,9 L4,9 L4,9 Z" id="Rectangle-Copy" fill="#000000"></path>
            <circle id="Oval" fill="#FFFFFF" cx="9.5" cy="15.5" r="1.5"></circle>
            <circle id="Oval-Copy-2" fill="#000000" cx="6" cy="5" r="1"></circle>
            <circle id="Oval-Copy-3" fill="#000000" cx="8.5" cy="6.5" r="1"></circle>
            <circle id="Oval-Copy" fill="#FFFFFF" cx="6" cy="13" r="1"></circle>
            <rect id="Rectangle" stroke="#000000" x="2.5" y="0.5" width="9" height="2" rx="1"></rect>
        </g>
        <path d="M223.476,33 L223.476,32.712 C223.364,32.712 223.256,32.668 223.152,32.58 C223.048,32.492 222.996,32.312 222.996,32.04 L222.996,32.04 L222.996,30.84 L223.764,30.84 C223.972,30.84 224.136,30.872 224.256,30.936 C224.376,31 224.436,31.168 224.436,31.44 L224.436,31.44 L224.724,31.44 L224.724,28.2 L224.436,28.2 C224.436,28.456 224.376,28.616 224.256,28.68 C224.136,28.744 223.972,28.776 223.764,28.776 L223.764,28.776 L222.996,28.776 L222.996,21.12 C222.996,20.976 223.044,20.864 223.14,20.784 C223.236,20.704 223.356,20.664 223.5,20.664 L223.5,20.664 L223.5,20.376 L218.844,20.376 L218.844,20.664 C218.924,20.712 219.012,20.756 219.108,20.796 C219.204,20.836 219.252,20.92 219.252,21.048 C219.252,21.144 219.18,21.276 219.036,21.444 C218.892,21.612 218.732,21.792 218.556,21.984 L218.556,21.984 L212.388,28.68 L212.388,31.368 L212.676,31.368 C212.676,31.16 212.744,31.02 212.88,30.948 C213.016,30.876 213.22,30.84 213.492,30.84 L213.492,30.84 L220.5,30.84 L220.5,32.04 C220.5,32.312 220.436,32.492 220.308,32.58 C220.18,32.668 220.028,32.712 219.852,32.712 L219.852,32.712 L219.852,33 L223.476,33 Z M220.5,28.776 L215.076,28.776 L220.5,22.824 L220.5,28.776 Z" id="4" fill="#000000" fill-rule="nonzero"></path>
        <path d="M75.956,53.072 C76.724,53.072 77.46,52.984 78.164,52.808 C78.868,52.632 79.496,52.424 80.048,52.184 C80.6,51.944 81.056,51.728 81.416,51.536 C81.776,51.344 82.004,51.248 82.1,51.248 C82.148,51.248 82.192,51.252 82.232,51.26 L82.295,51.269 L82.295,51.269 L82.364,51.272 L82.556,51.08 L80.972,48.536 L80.636,48.728 C80.7,48.808 80.732,48.904 80.732,49.016 C80.732,49.224 80.576,49.444 80.264,49.676 C79.952,49.908 79.564,50.116 79.1,50.3 C78.636,50.484 78.124,50.636 77.564,50.756 C77.004,50.876 76.468,50.936 75.956,50.936 C75.284,50.936 74.64,50.84 74.024,50.648 C73.408,50.456 72.872,50.176 72.416,49.808 C71.96,49.44 71.596,48.988 71.324,48.452 C71.052,47.916 70.916,47.304 70.916,46.616 C70.916,45.928 71.052,45.316 71.324,44.78 C71.596,44.244 71.96,43.792 72.416,43.424 C72.872,43.056 73.408,42.776 74.024,42.584 C74.64,42.392 75.284,42.296 75.956,42.296 C76.356,42.296 76.792,42.344 77.264,42.44 C77.736,42.536 78.184,42.656 78.608,42.8 C79.032,42.944 79.388,43.108 79.676,43.292 C79.964,43.476 80.124,43.656 80.156,43.832 C80.172,43.896 80.184,43.952 80.192,44 C80.2,44.048 80.204,44.096 80.204,44.144 L80.204,44.144 L80.444,44.312 L82.316,41.408 L81.956,41.12 C81.924,41.168 81.88,41.232 81.824,41.312 C81.768,41.392 81.7,41.432 81.62,41.432 C81.556,41.432 81.38,41.368 81.092,41.24 C80.804,41.112 80.412,40.976 79.916,40.832 C79.42,40.688 78.84,40.552 78.176,40.424 C77.512,40.296 76.772,40.232 75.956,40.232 C74.948,40.232 73.98,40.368 73.052,40.64 C72.124,40.912 71.304,41.32 70.592,41.864 C69.88,42.408 69.316,43.084 68.9,43.892 C68.484,44.7 68.276,45.632 68.276,46.688 C68.276,47.76 68.484,48.696 68.9,49.496 C69.316,50.296 69.88,50.964 70.592,51.5 C71.304,52.036 72.124,52.432 73.052,52.688 C73.98,52.944 74.948,53.072 75.956,53.072 Z M89.444,53 L89.444,52.568 C89.348,52.568 89.264,52.54 89.192,52.484 C89.12,52.428 89.084,52.336 89.084,52.208 L89.084,52.208 L89.084,48.584 L95.516,48.584 L95.516,52.208 C95.516,52.336 95.48,52.428 95.408,52.484 C95.336,52.54 95.252,52.568 95.156,52.568 L95.156,52.568 L95.156,53 L98.18,53 L98.18,52.568 C98.084,52.568 98,52.54 97.928,52.484 C97.856,52.428 97.82,52.336 97.82,52.208 L97.82,52.208 L97.82,43.232 C97.82,43.104 97.856,43.012 97.928,42.956 C98,42.9 98.084,42.872 98.18,42.872 L98.18,42.872 L98.18,42.44 L95.156,42.44 L95.156,42.872 C95.252,42.872 95.336,42.9 95.408,42.956 C95.48,43.012 95.516,43.104 95.516,43.232 L95.516,43.232 L95.516,46.616 L89.084,46.616 L89.084,43.232 C89.084,43.104 89.12,43.012 89.192,42.956 C89.264,42.9 89.348,42.872 89.444,42.872 L89.444,42.872 L89.444,42.44 L86.42,42.44 L86.42,42.872 C86.516,42.872 86.6,42.9 86.672,42.956 C86.744,43.012 86.78,43.104 86.78,43.232 L86.78,43.232 L86.78,52.208 C86.78,52.336 86.744,52.428 86.672,52.484 C86.6,52.54 86.516,52.568 86.42,52.568 L86.42,52.568 L86.42,53 L89.444,53 Z M107.636,53.072 C108.516,53.072 109.344,52.972 110.12,52.772 C110.896,52.572 111.572,52.248 112.148,51.8 C112.724,51.352 113.18,50.788 113.516,50.108 C113.852,49.428 114.02,48.632 114.02,47.72 C114.02,46.808 113.852,46.012 113.516,45.332 C113.18,44.652 112.724,44.088 112.148,43.64 C111.572,43.192 110.896,42.856 110.12,42.632 C109.344,42.408 108.516,42.296 107.636,42.296 C106.756,42.296 105.928,42.408 105.152,42.632 C104.376,42.856 103.7,43.192 103.124,43.64 C102.548,44.088 102.092,44.652 101.756,45.332 C101.42,46.012 101.252,46.808 101.252,47.72 C101.252,48.632 101.42,49.428 101.756,50.108 C102.092,50.788 102.548,51.352 103.124,51.8 C103.7,52.248 104.376,52.572 105.152,52.772 C105.928,52.972 106.756,53.072 107.636,53.072 Z M107.636,51.368 C107.124,51.368 106.624,51.284 106.136,51.116 C105.648,50.948 105.212,50.708 104.828,50.396 C104.444,50.084 104.136,49.704 103.904,49.256 C103.672,48.808 103.556,48.296 103.556,47.72 C103.556,47.144 103.672,46.632 103.904,46.184 C104.136,45.736 104.444,45.356 104.828,45.044 C105.212,44.732 105.648,44.492 106.136,44.324 C106.624,44.156 107.124,44.072 107.636,44.072 C108.148,44.072 108.648,44.156 109.136,44.324 C109.624,44.492 110.06,44.732 110.444,45.044 C110.828,45.356 111.136,45.736 111.368,46.184 C111.6,46.632 111.716,47.144 111.716,47.72 C111.716,48.296 111.6,48.808 111.368,49.256 C111.136,49.704 110.828,50.084 110.444,50.396 C110.06,50.708 109.624,50.948 109.136,51.116 C108.648,51.284 108.148,51.368 107.636,51.368 Z M121.748,53.072 C122.468,53.072 123.12,53.008 123.704,52.88 C124.288,52.752 124.8,52.596 125.24,52.412 C125.68,52.228 126.044,52.064 126.332,51.92 C126.62,51.776 126.828,51.704 126.956,51.704 C127.036,51.704 127.172,51.744 127.364,51.824 L127.364,51.824 L127.604,51.704 L125.828,49.16 L125.564,49.4 C125.58,49.464 125.588,49.544 125.588,49.64 L125.588,49.64 L125.588,49.832 C125.588,49.976 125.472,50.136 125.24,50.312 C125.008,50.488 124.708,50.652 124.34,50.804 C123.972,50.956 123.564,51.088 123.116,51.2 C122.668,51.312 122.228,51.368 121.796,51.368 C121.332,51.368 120.876,51.284 120.428,51.116 C119.98,50.948 119.58,50.7 119.228,50.372 C118.876,50.044 118.592,49.652 118.376,49.196 C118.16,48.74 118.052,48.224 118.052,47.648 C118.052,47.072 118.148,46.56 118.34,46.112 C118.532,45.664 118.804,45.288 119.156,44.984 C119.508,44.68 119.92,44.452 120.392,44.3 C120.864,44.148 121.388,44.072 121.964,44.072 C122.444,44.072 122.884,44.116 123.284,44.204 C123.684,44.292 124.032,44.4 124.328,44.528 C124.624,44.656 124.852,44.788 125.012,44.924 C125.172,45.06 125.252,45.168 125.252,45.248 C125.252,45.296 125.256,45.336 125.264,45.368 C125.272,45.4 125.276,45.432 125.276,45.464 L125.276,45.464 L125.54,45.656 L127.124,43.376 L126.836,43.208 C126.772,43.24 126.712,43.28 126.656,43.328 C126.6,43.376 126.532,43.4 126.452,43.4 C126.34,43.4 126.156,43.344 125.9,43.232 C125.644,43.12 125.324,42.992 124.94,42.848 C124.556,42.704 124.112,42.576 123.608,42.464 C123.104,42.352 122.548,42.296 121.94,42.296 C121.156,42.296 120.392,42.408 119.648,42.632 C118.904,42.856 118.244,43.196 117.668,43.652 C117.092,44.108 116.628,44.672 116.276,45.344 C115.924,46.016 115.748,46.8 115.748,47.696 C115.748,48.592 115.924,49.38 116.276,50.06 C116.628,50.74 117.084,51.308 117.644,51.764 C118.204,52.22 118.844,52.552 119.564,52.76 C120.284,52.968 121.012,53.072 121.748,53.072 Z M135.644,53.072 C136.524,53.072 137.352,52.972 138.128,52.772 C138.904,52.572 139.58,52.248 140.156,51.8 C140.732,51.352 141.188,50.788 141.524,50.108 C141.86,49.428 142.028,48.632 142.028,47.72 C142.028,46.808 141.86,46.012 141.524,45.332 C141.188,44.652 140.732,44.088 140.156,43.64 C139.58,43.192 138.904,42.856 138.128,42.632 C137.352,42.408 136.524,42.296 135.644,42.296 C134.764,42.296 133.936,42.408 133.16,42.632 C132.384,42.856 131.708,43.192 131.132,43.64 C130.556,44.088 130.1,44.652 129.764,45.332 C129.428,46.012 129.26,46.808 129.26,47.72 C129.26,48.632 129.428,49.428 129.764,50.108 C130.1,50.788 130.556,51.352 131.132,51.8 C131.708,52.248 132.384,52.572 133.16,52.772 C133.936,52.972 134.764,53.072 135.644,53.072 Z M135.644,51.368 C135.132,51.368 134.632,51.284 134.144,51.116 C133.656,50.948 133.22,50.708 132.836,50.396 C132.452,50.084 132.144,49.704 131.912,49.256 C131.68,48.808 131.564,48.296 131.564,47.72 C131.564,47.144 131.68,46.632 131.912,46.184 C132.144,45.736 132.452,45.356 132.836,45.044 C133.22,44.732 133.656,44.492 134.144,44.324 C134.632,44.156 135.132,44.072 135.644,44.072 C136.156,44.072 136.656,44.156 137.144,44.324 C137.632,44.492 138.068,44.732 138.452,45.044 C138.836,45.356 139.144,45.736 139.376,46.184 C139.608,46.632 139.724,47.144 139.724,47.72 C139.724,48.296 139.608,48.808 139.376,49.256 C139.144,49.704 138.836,50.084 138.452,50.396 C138.068,50.708 137.632,50.948 137.144,51.116 C136.656,51.284 136.156,51.368 135.644,51.368 Z M155.324,53.24 L155.324,50.72 L154.892,50.72 C154.892,50.88 154.828,51.004 154.7,51.092 C154.572,51.18 154.412,51.224 154.22,51.224 L154.22,51.224 L147.74,51.224 L147.74,43.232 C147.74,42.992 147.924,42.872 148.292,42.872 L148.292,42.872 L148.292,42.44 L144.812,42.44 L144.812,42.872 C145.228,42.872 145.436,42.992 145.436,43.232 L145.436,43.232 L145.436,52.208 C145.436,52.448 145.228,52.568 144.812,52.568 L144.812,52.568 L144.812,53 L154.22,53 C154.412,53 154.572,53.008 154.7,53.024 C154.828,53.04 154.892,53.112 154.892,53.24 L154.892,53.24 L155.324,53.24 Z M159.908,53 L159.908,52.568 C159.764,52.568 159.652,52.552 159.572,52.52 C159.492,52.488 159.452,52.408 159.452,52.28 C159.452,52.2 159.472,52.108 159.512,52.004 C159.552,51.9 159.604,51.784 159.668,51.656 L159.668,51.656 L160.34,50.36 L165.476,50.36 L166.124,51.728 C166.172,51.856 166.212,51.96 166.244,52.04 C166.276,52.12 166.292,52.208 166.292,52.304 C166.292,52.432 166.248,52.52 166.16,52.568 C166.072,52.616 165.988,52.64 165.908,52.64 L165.908,52.64 L165.908,53 L169.316,53 L169.316,52.568 C169.204,52.536 169.1,52.488 169.004,52.424 C168.908,52.36 168.82,52.256 168.74,52.112 L168.74,52.112 L164.852,43.952 C164.772,43.776 164.696,43.62 164.624,43.484 C164.552,43.348 164.516,43.232 164.516,43.136 C164.516,43.024 164.544,42.96 164.6,42.944 C164.656,42.928 164.708,42.904 164.756,42.872 L164.756,42.872 L164.756,42.44 L161.132,42.44 L161.132,42.872 C161.18,42.904 161.224,42.932 161.264,42.956 C161.304,42.98 161.324,43.04 161.324,43.136 C161.324,43.264 161.296,43.396 161.24,43.532 C161.184,43.668 161.108,43.848 161.012,44.072 L161.012,44.072 L157.436,51.872 C157.372,52 157.28,52.14 157.16,52.292 C157.04,52.444 156.884,52.536 156.692,52.568 L156.692,52.568 L156.692,53 L159.908,53 Z M164.708,48.584 L161.06,48.584 L162.764,44.552 L164.708,48.584 Z M177.26,53 L177.26,52.568 C176.972,52.568 176.828,52.448 176.828,52.208 L176.828,52.208 L176.828,44.216 L179.948,44.216 C180.076,44.216 180.196,44.248 180.308,44.312 C180.42,44.376 180.476,44.48 180.476,44.624 L180.476,44.624 L180.908,44.624 L180.908,41.864 L180.476,41.864 C180.476,42.088 180.42,42.24 180.308,42.32 C180.196,42.4 180.076,42.44 179.948,42.44 L179.948,42.44 L171.404,42.44 C171.276,42.44 171.156,42.4 171.044,42.32 C170.932,42.24 170.876,42.088 170.876,41.864 L170.876,41.864 L170.444,41.864 L170.444,44.624 L170.876,44.624 C170.876,44.48 170.932,44.376 171.044,44.312 C171.156,44.248 171.276,44.216 171.404,44.216 L171.404,44.216 L174.524,44.216 L174.524,52.208 C174.524,52.336 174.484,52.428 174.404,52.484 C174.324,52.54 174.244,52.568 174.164,52.568 L174.164,52.568 L174.164,53 L177.26,53 Z M193.556,53.264 L193.556,50.744 L193.124,50.744 C193.124,50.888 193.06,51.004 192.932,51.092 C192.804,51.18 192.644,51.224 192.452,51.224 L192.452,51.224 L186.308,51.224 L186.308,48.392 L189.812,48.392 C190.132,48.392 190.38,48.412 190.556,48.452 C190.732,48.492 190.796,48.6 190.748,48.776 L190.748,48.776 L191.228,48.776 L191.228,46.232 L190.796,46.232 C190.796,46.408 190.732,46.516 190.604,46.556 C190.476,46.596 190.276,46.616 190.004,46.616 L190.004,46.616 L186.308,46.616 L186.308,44.216 L192.164,44.216 C192.66,44.216 192.908,44.368 192.908,44.672 L192.908,44.672 L193.34,44.672 L193.34,42.008 L192.908,42.008 C192.908,42.296 192.66,42.44 192.164,42.44 L192.164,42.44 L183.644,42.44 L183.644,42.872 C183.724,42.872 183.804,42.9 183.884,42.956 C183.964,43.012 184.004,43.104 184.004,43.232 L184.004,43.232 L184.004,52.208 C184.004,52.336 183.964,52.428 183.884,52.484 C183.804,52.54 183.724,52.568 183.644,52.568 L183.644,52.568 L183.644,53 L192.452,53 C192.644,53 192.804,53.008 192.932,53.024 C193.06,53.04 193.124,53.12 193.124,53.264 L193.124,53.264 L193.556,53.264 Z" id="Chocolate" fill="#000000" fill-rule="nonzero"></path>
        <path d="M62.424,284.048 C62.936,284.048 63.4266667,283.989333 63.896,283.872 C64.3653333,283.754667 64.784,283.616 65.152,283.456 C65.52,283.296 65.824,283.152 66.064,283.024 C66.304,282.896 66.456,282.832 66.52,282.832 C66.552,282.832 66.5813333,282.834667 66.608,282.84 C66.6346667,282.845333 66.664,282.848 66.696,282.848 L66.696,282.848 L66.824,282.72 L65.768,281.024 L65.544,281.152 C65.5866667,281.205333 65.608,281.269333 65.608,281.344 C65.608,281.482667 65.504,281.629333 65.296,281.784 C65.088,281.938667 64.8293333,282.077333 64.52,282.2 C64.2106667,282.322667 63.8693333,282.424 63.496,282.504 C63.1226667,282.584 62.7653333,282.624 62.424,282.624 C61.976,282.624 61.5466667,282.56 61.136,282.432 C60.7253333,282.304 60.368,282.117333 60.064,281.872 C59.76,281.626667 59.5173333,281.325333 59.336,280.968 C59.1546667,280.610667 59.064,280.202667 59.064,279.744 C59.064,279.285333 59.1546667,278.877333 59.336,278.52 C59.5173333,278.162667 59.76,277.861333 60.064,277.616 C60.368,277.370667 60.7253333,277.184 61.136,277.056 C61.5466667,276.928 61.976,276.864 62.424,276.864 C62.6906667,276.864 62.9813333,276.896 63.296,276.96 C63.6106667,277.024 63.9093333,277.104 64.192,277.2 C64.4746667,277.296 64.712,277.405333 64.904,277.528 C65.096,277.650667 65.2026667,277.770667 65.224,277.888 C65.2346667,277.930667 65.2426667,277.968 65.248,278 C65.2533333,278.032 65.256,278.064 65.256,278.096 L65.256,278.096 L65.416,278.208 L66.664,276.272 L66.424,276.08 C66.4026667,276.112 66.3733333,276.154667 66.336,276.208 C66.2986667,276.261333 66.2533333,276.288 66.2,276.288 C66.1573333,276.288 66.04,276.245333 65.848,276.16 C65.656,276.074667 65.3946667,275.984 65.064,275.888 C64.7333333,275.792 64.3466667,275.701333 63.904,275.616 C63.4613333,275.530667 62.968,275.488 62.424,275.488 C61.752,275.488 61.1066667,275.578667 60.488,275.76 C59.8693333,275.941333 59.3226667,276.213333 58.848,276.576 C58.3733333,276.938667 57.9973333,277.389333 57.72,277.928 C57.4426667,278.466667 57.304,279.088 57.304,279.792 C57.304,280.506667 57.4426667,281.130667 57.72,281.664 C57.9973333,282.197333 58.3733333,282.642667 58.848,283 C59.3226667,283.357333 59.8693333,283.621333 60.488,283.792 C61.1066667,283.962667 61.752,284.048 62.424,284.048 Z M71.416,284 L71.416,283.712 C71.352,283.712 71.296,283.693333 71.248,283.656 C71.2,283.618667 71.176,283.557333 71.176,283.472 L71.176,283.472 L71.176,281.056 L75.464,281.056 L75.464,283.472 C75.464,283.557333 75.44,283.618667 75.392,283.656 C75.344,283.693333 75.288,283.712 75.224,283.712 L75.224,283.712 L75.224,284 L77.24,284 L77.24,283.712 C77.176,283.712 77.12,283.693333 77.072,283.656 C77.024,283.618667 77,283.557333 77,283.472 L77,283.472 L77,277.488 C77,277.402667 77.024,277.341333 77.072,277.304 C77.12,277.266667 77.176,277.248 77.24,277.248 L77.24,277.248 L77.24,276.96 L75.224,276.96 L75.224,277.248 C75.288,277.248 75.344,277.266667 75.392,277.304 C75.44,277.341333 75.464,277.402667 75.464,277.488 L75.464,277.488 L75.464,279.744 L71.176,279.744 L71.176,277.488 C71.176,277.402667 71.2,277.341333 71.248,277.304 C71.296,277.266667 71.352,277.248 71.416,277.248 L71.416,277.248 L71.416,276.96 L69.4,276.96 L69.4,277.248 C69.464,277.248 69.52,277.266667 69.568,277.304 C69.616,277.341333 69.64,277.402667 69.64,277.488 L69.64,277.488 L69.64,283.472 C69.64,283.557333 69.616,283.618667 69.568,283.656 C69.52,283.693333 69.464,283.712 69.4,283.712 L69.4,283.712 L69.4,284 L71.416,284 Z M83.544,284.048 C84.1306667,284.048 84.6826667,283.981333 85.2,283.848 C85.7173333,283.714667 86.168,283.498667 86.552,283.2 C86.936,282.901333 87.24,282.525333 87.464,282.072 C87.688,281.618667 87.8,281.088 87.8,280.48 C87.8,279.872 87.688,279.341333 87.464,278.888 C87.24,278.434667 86.936,278.058667 86.552,277.76 C86.168,277.461333 85.7173333,277.237333 85.2,277.088 C84.6826667,276.938667 84.1306667,276.864 83.544,276.864 C82.9573333,276.864 82.4053333,276.938667 81.888,277.088 C81.3706667,277.237333 80.92,277.461333 80.536,277.76 C80.152,278.058667 79.848,278.434667 79.624,278.888 C79.4,279.341333 79.288,279.872 79.288,280.48 C79.288,281.088 79.4,281.618667 79.624,282.072 C79.848,282.525333 80.152,282.901333 80.536,283.2 C80.92,283.498667 81.3706667,283.714667 81.888,283.848 C82.4053333,283.981333 82.9573333,284.048 83.544,284.048 Z M83.544,282.912 C83.2026667,282.912 82.8693333,282.856 82.544,282.744 C82.2186667,282.632 81.928,282.472 81.672,282.264 C81.416,282.056 81.2106667,281.802667 81.056,281.504 C80.9013333,281.205333 80.824,280.864 80.824,280.48 C80.824,280.096 80.9013333,279.754667 81.056,279.456 C81.2106667,279.157333 81.416,278.904 81.672,278.696 C81.928,278.488 82.2186667,278.328 82.544,278.216 C82.8693333,278.104 83.2026667,278.048 83.544,278.048 C83.8853333,278.048 84.2186667,278.104 84.544,278.216 C84.8693333,278.328 85.16,278.488 85.416,278.696 C85.672,278.904 85.8773333,279.157333 86.032,279.456 C86.1866667,279.754667 86.264,280.096 86.264,280.48 C86.264,280.864 86.1866667,281.205333 86.032,281.504 C85.8773333,281.802667 85.672,282.056 85.416,282.264 C85.16,282.472 84.8693333,282.632 84.544,282.744 C84.2186667,282.856 83.8853333,282.912 83.544,282.912 Z M92.952,284.048 C93.432,284.048 93.8666667,284.005333 94.256,283.92 C94.6453333,283.834667 94.9866667,283.730667 95.28,283.608 C95.5733333,283.485333 95.816,283.376 96.008,283.28 C96.2,283.184 96.3386667,283.136 96.424,283.136 C96.4773333,283.136 96.568,283.162667 96.696,283.216 L96.696,283.216 L96.856,283.136 L95.672,281.44 L95.496,281.6 C95.5066667,281.642667 95.512,281.696 95.512,281.76 L95.512,281.76 L95.512,281.888 C95.512,281.984 95.4346667,282.090667 95.28,282.208 C95.1253333,282.325333 94.9253333,282.434667 94.68,282.536 C94.4346667,282.637333 94.1626667,282.725333 93.864,282.8 C93.5653333,282.874667 93.272,282.912 92.984,282.912 C92.6746667,282.912 92.3706667,282.856 92.072,282.744 C91.7733333,282.632 91.5066667,282.466667 91.272,282.248 C91.0373333,282.029333 90.848,281.768 90.704,281.464 C90.56,281.16 90.488,280.816 90.488,280.432 C90.488,280.048 90.552,279.706667 90.68,279.408 C90.808,279.109333 90.9893333,278.858667 91.224,278.656 C91.4586667,278.453333 91.7333333,278.301333 92.048,278.2 C92.3626667,278.098667 92.712,278.048 93.096,278.048 C93.416,278.048 93.7093333,278.077333 93.976,278.136 C94.2426667,278.194667 94.4746667,278.266667 94.672,278.352 C94.8693333,278.437333 95.0213333,278.525333 95.128,278.616 C95.2346667,278.706667 95.288,278.778667 95.288,278.832 C95.288,278.864 95.2906667,278.890667 95.296,278.912 C95.3013333,278.933333 95.304,278.954667 95.304,278.976 L95.304,278.976 L95.48,279.104 L96.536,277.584 L96.344,277.472 C96.3013333,277.493333 96.2613333,277.52 96.224,277.552 C96.1866667,277.584 96.1413333,277.6 96.088,277.6 C96.0133333,277.6 95.8906667,277.562667 95.72,277.488 C95.5493333,277.413333 95.336,277.328 95.08,277.232 C94.824,277.136 94.528,277.050667 94.192,276.976 C93.856,276.901333 93.4853333,276.864 93.08,276.864 C92.5573333,276.864 92.048,276.938667 91.552,277.088 C91.056,277.237333 90.616,277.464 90.232,277.768 C89.848,278.072 89.5386667,278.448 89.304,278.896 C89.0693333,279.344 88.952,279.866667 88.952,280.464 C88.952,281.061333 89.0693333,281.586667 89.304,282.04 C89.5386667,282.493333 89.8426667,282.872 90.216,283.176 C90.5893333,283.48 91.016,283.701333 91.496,283.84 C91.976,283.978667 92.4613333,284.048 92.952,284.048 Z M102.216,284.048 C102.802667,284.048 103.354667,283.981333 103.872,283.848 C104.389333,283.714667 104.84,283.498667 105.224,283.2 C105.608,282.901333 105.912,282.525333 106.136,282.072 C106.36,281.618667 106.472,281.088 106.472,280.48 C106.472,279.872 106.36,279.341333 106.136,278.888 C105.912,278.434667 105.608,278.058667 105.224,277.76 C104.84,277.461333 104.389333,277.237333 103.872,277.088 C103.354667,276.938667 102.802667,276.864 102.216,276.864 C101.629333,276.864 101.077333,276.938667 100.56,277.088 C100.042667,277.237333 99.592,277.461333 99.208,277.76 C98.824,278.058667 98.52,278.434667 98.296,278.888 C98.072,279.341333 97.96,279.872 97.96,280.48 C97.96,281.088 98.072,281.618667 98.296,282.072 C98.52,282.525333 98.824,282.901333 99.208,283.2 C99.592,283.498667 100.042667,283.714667 100.56,283.848 C101.077333,283.981333 101.629333,284.048 102.216,284.048 Z M102.216,282.912 C101.874667,282.912 101.541333,282.856 101.216,282.744 C100.890667,282.632 100.6,282.472 100.344,282.264 C100.088,282.056 99.8826667,281.802667 99.728,281.504 C99.5733333,281.205333 99.496,280.864 99.496,280.48 C99.496,280.096 99.5733333,279.754667 99.728,279.456 C99.8826667,279.157333 100.088,278.904 100.344,278.696 C100.6,278.488 100.890667,278.328 101.216,278.216 C101.541333,278.104 101.874667,278.048 102.216,278.048 C102.557333,278.048 102.890667,278.104 103.216,278.216 C103.541333,278.328 103.832,278.488 104.088,278.696 C104.344,278.904 104.549333,279.157333 104.704,279.456 C104.858667,279.754667 104.936,280.096 104.936,280.48 C104.936,280.864 104.858667,281.205333 104.704,281.504 C104.549333,281.802667 104.344,282.056 104.088,282.264 C103.832,282.472 103.541333,282.632 103.216,282.744 C102.890667,282.856 102.557333,282.912 102.216,282.912 Z M115.336,284.16 L115.336,282.48 L115.048,282.48 C115.048,282.586667 115.005333,282.669333 114.92,282.728 C114.834667,282.786667 114.728,282.816 114.6,282.816 L114.6,282.816 L110.28,282.816 L110.28,277.488 C110.28,277.328 110.402667,277.248 110.648,277.248 L110.648,277.248 L110.648,276.96 L108.328,276.96 L108.328,277.248 C108.605333,277.248 108.744,277.328 108.744,277.488 L108.744,277.488 L108.744,283.472 C108.744,283.632 108.605333,283.712 108.328,283.712 L108.328,283.712 L108.328,284 L114.6,284 C114.728,284 114.834667,284.005333 114.92,284.016 C115.005333,284.026667 115.048,284.074667 115.048,284.16 L115.048,284.16 L115.336,284.16 Z M118.392,284 L118.392,283.712 C118.296,283.712 118.221333,283.701333 118.168,283.68 C118.114667,283.658667 118.088,283.605333 118.088,283.52 C118.088,283.466667 118.101333,283.405333 118.128,283.336 C118.154667,283.266667 118.189333,283.189333 118.232,283.104 L118.232,283.104 L118.68,282.24 L122.104,282.24 L122.536,283.152 C122.568,283.237333 122.594667,283.306667 122.616,283.36 C122.637333,283.413333 122.648,283.472 122.648,283.536 C122.648,283.621333 122.618667,283.68 122.56,283.712 C122.501333,283.744 122.445333,283.76 122.392,283.76 L122.392,283.76 L122.392,284 L124.664,284 L124.664,283.712 C124.589333,283.690667 124.52,283.658667 124.456,283.616 C124.392,283.573333 124.333333,283.504 124.28,283.408 L124.28,283.408 L121.688,277.968 C121.634667,277.850667 121.584,277.746667 121.536,277.656 C121.488,277.565333 121.464,277.488 121.464,277.424 C121.464,277.349333 121.482667,277.306667 121.52,277.296 C121.557333,277.285333 121.592,277.269333 121.624,277.248 L121.624,277.248 L121.624,276.96 L119.208,276.96 L119.208,277.248 C119.24,277.269333 119.269333,277.288 119.296,277.304 C119.322667,277.32 119.336,277.36 119.336,277.424 C119.336,277.509333 119.317333,277.597333 119.28,277.688 C119.242667,277.778667 119.192,277.898667 119.128,278.048 L119.128,278.048 L116.744,283.248 C116.701333,283.333333 116.64,283.426667 116.56,283.528 C116.48,283.629333 116.376,283.690667 116.248,283.712 L116.248,283.712 L116.248,284 L118.392,284 Z M121.592,281.056 L119.16,281.056 L120.296,278.368 L121.592,281.056 Z M129.96,284 L129.96,283.712 C129.768,283.712 129.672,283.632 129.672,283.472 L129.672,283.472 L129.672,278.144 L131.752,278.144 C131.837333,278.144 131.917333,278.165333 131.992,278.208 C132.066667,278.250667 132.104,278.32 132.104,278.416 L132.104,278.416 L132.392,278.416 L132.392,276.576 L132.104,276.576 C132.104,276.725333 132.066667,276.826667 131.992,276.88 C131.917333,276.933333 131.837333,276.96 131.752,276.96 L131.752,276.96 L126.056,276.96 C125.970667,276.96 125.890667,276.933333 125.816,276.88 C125.741333,276.826667 125.704,276.725333 125.704,276.576 L125.704,276.576 L125.416,276.576 L125.416,278.416 L125.704,278.416 C125.704,278.32 125.741333,278.250667 125.816,278.208 C125.890667,278.165333 125.970667,278.144 126.056,278.144 L126.056,278.144 L128.136,278.144 L128.136,283.472 C128.136,283.557333 128.109333,283.618667 128.056,283.656 C128.002667,283.693333 127.949333,283.712 127.896,283.712 L127.896,283.712 L127.896,284 L129.96,284 Z M140.824,284.176 L140.824,282.496 L140.536,282.496 C140.536,282.592 140.493333,282.669333 140.408,282.728 C140.322667,282.786667 140.216,282.816 140.088,282.816 L140.088,282.816 L135.992,282.816 L135.992,280.928 L138.328,280.928 C138.541333,280.928 138.706667,280.941333 138.824,280.968 C138.941333,280.994667 138.984,281.066667 138.952,281.184 L138.952,281.184 L139.272,281.184 L139.272,279.488 L138.984,279.488 C138.984,279.605333 138.941333,279.677333 138.856,279.704 C138.770667,279.730667 138.637333,279.744 138.456,279.744 L138.456,279.744 L135.992,279.744 L135.992,278.144 L139.896,278.144 C140.226667,278.144 140.392,278.245333 140.392,278.448 L140.392,278.448 L140.68,278.448 L140.68,276.672 L140.392,276.672 C140.392,276.864 140.226667,276.96 139.896,276.96 L139.896,276.96 L134.216,276.96 L134.216,277.248 C134.269333,277.248 134.322667,277.266667 134.376,277.304 C134.429333,277.341333 134.456,277.402667 134.456,277.488 L134.456,277.488 L134.456,283.472 C134.456,283.557333 134.429333,283.618667 134.376,283.656 C134.322667,283.693333 134.269333,283.712 134.216,283.712 L134.216,283.712 L134.216,284 L140.088,284 C140.216,284 140.322667,284.005333 140.408,284.016 C140.493333,284.026667 140.536,284.08 140.536,284.176 L140.536,284.176 L140.824,284.176 Z M150.552,284 L150.552,283.712 C150.253333,283.712 150.104,283.632 150.104,283.472 L150.104,283.472 L150.104,277.488 C150.104,277.328 150.253333,277.248 150.552,277.248 L150.552,277.248 L150.552,276.96 L148.12,276.96 L148.12,277.248 C148.290667,277.248 148.408,277.266667 148.472,277.304 C148.536,277.341333 148.568,277.402667 148.568,277.488 L148.568,277.488 L148.568,283.472 C148.568,283.557333 148.536,283.618667 148.472,283.656 C148.408,283.693333 148.290667,283.712 148.12,283.712 L148.12,283.712 L148.12,284 L150.552,284 Z M156.328,284.048 C156.690667,284.048 157.077333,284.021333 157.488,283.968 C157.898667,283.914667 158.274667,283.802667 158.616,283.632 C158.957333,283.461333 159.242667,283.226667 159.472,282.928 C159.701333,282.629333 159.816,282.245333 159.816,281.776 C159.816,281.306667 159.685333,280.938667 159.424,280.672 C159.162667,280.405333 158.834667,280.202667 158.44,280.064 C158.045333,279.925333 157.618667,279.826667 157.16,279.768 C156.701333,279.709333 156.274667,279.650667 155.88,279.592 C155.485333,279.533333 155.157333,279.453333 154.896,279.352 C154.634667,279.250667 154.504,279.082667 154.504,278.848 C154.504,278.698667 154.546667,278.573333 154.632,278.472 C154.717333,278.370667 154.834667,278.288 154.984,278.224 C155.133333,278.16 155.304,278.114667 155.496,278.088 C155.688,278.061333 155.890667,278.048 156.104,278.048 C156.658667,278.048 157.16,278.112 157.608,278.24 C158.056,278.368 158.386667,278.522667 158.6,278.704 C158.685333,278.768 158.733333,278.832 158.744,278.896 C158.754667,278.96 158.765333,279.024 158.776,279.088 L158.776,279.088 L159.064,279.184 L159.864,277.68 L159.688,277.504 C159.624,277.536 159.570667,277.565333 159.528,277.592 C159.485333,277.618667 159.421333,277.632 159.336,277.632 C159.261333,277.632 159.146667,277.592 158.992,277.512 C158.837333,277.432 158.637333,277.344 158.392,277.248 C158.146667,277.152 157.845333,277.064 157.488,276.984 C157.130667,276.904 156.701333,276.864 156.2,276.864 C155.176,276.864 154.381333,277.066667 153.816,277.472 C153.250667,277.877333 152.968,278.421333 152.968,279.104 C152.968,279.562667 153.098667,279.917333 153.36,280.168 C153.621333,280.418667 153.949333,280.610667 154.344,280.744 C154.738667,280.877333 155.165333,280.973333 155.624,281.032 C156.082667,281.090667 156.509333,281.149333 156.904,281.208 C157.298667,281.266667 157.626667,281.349333 157.888,281.456 C158.149333,281.562667 158.28,281.733333 158.28,281.968 C158.28,282.170667 158.205333,282.333333 158.056,282.456 C157.906667,282.578667 157.725333,282.674667 157.512,282.744 C157.298667,282.813333 157.082667,282.858667 156.864,282.88 C156.645333,282.901333 156.461333,282.912 156.312,282.912 C156.152,282.912 155.930667,282.885333 155.648,282.832 C155.365333,282.778667 155.082667,282.706667 154.8,282.616 C154.517333,282.525333 154.274667,282.413333 154.072,282.28 C153.869333,282.146667 153.768,282 153.768,281.84 C153.768,281.786667 153.770667,281.736 153.776,281.688 C153.781333,281.64 153.784,281.594667 153.784,281.552 L153.784,281.552 L153.48,281.472 L152.744,283.264 L152.968,283.424 C153.021333,283.36 153.085333,283.328 153.16,283.328 C153.202667,283.328 153.325333,283.368 153.528,283.448 C153.730667,283.528 153.978667,283.613333 154.272,283.704 C154.565333,283.794667 154.890667,283.874667 155.248,283.944 C155.605333,284.013333 155.965333,284.048 156.328,284.048 Z M172.984,284 C173.485333,284 173.933333,283.944 174.328,283.832 C174.722667,283.72 175.056,283.562667 175.328,283.36 C175.6,283.157333 175.805333,282.92 175.944,282.648 C176.082667,282.376 176.152,282.08 176.152,281.76 C176.152,281.152 175.978667,280.685333 175.632,280.36 C175.285333,280.034667 174.861333,279.797333 174.36,279.648 L174.36,279.648 L174.36,279.616 C174.786667,279.466667 175.154667,279.256 175.464,278.984 C175.773333,278.712 175.928,278.325333 175.928,277.824 C175.928,277.408 175.821333,277.058667 175.608,276.776 C175.394667,276.493333 175.112,276.264 174.76,276.088 C174.408,275.912 174.002667,275.784 173.544,275.704 C173.085333,275.624 172.610667,275.584 172.12,275.584 L172.12,275.584 L167.112,275.584 L167.112,275.872 C167.410667,275.872 167.56,275.968 167.56,276.16 L167.56,276.16 L167.56,283.424 C167.56,283.616 167.410667,283.712 167.112,283.712 L167.112,283.712 L167.112,284 L172.984,284 Z M172.44,278.88 L169.384,278.88 L169.384,276.96 L172.44,276.96 C172.92,276.96 173.317333,277.021333 173.632,277.144 C173.946667,277.266667 174.104,277.525333 174.104,277.92 C174.104,278.314667 173.946667,278.573333 173.632,278.696 C173.317333,278.818667 172.92,278.88 172.44,278.88 L172.44,278.88 Z M172.44,282.528 L169.384,282.528 L169.384,280.256 L172.44,280.256 C173.112,280.256 173.594667,280.36 173.888,280.568 C174.181333,280.776 174.328,281.050667 174.328,281.392 C174.328,281.733333 174.181333,282.008 173.888,282.216 C173.594667,282.424 173.112,282.528 172.44,282.528 L172.44,282.528 Z M179.944,284 L179.944,283.712 C179.741333,283.712 179.64,283.653333 179.64,283.536 C179.64,283.44 179.693333,283.28 179.8,283.056 L179.8,283.056 L180.376,281.92 L184.28,281.92 L184.888,283.104 C184.973333,283.274667 185.016,283.413333 185.016,283.52 C185.016,283.584 184.984,283.632 184.92,283.664 C184.856,283.696 184.802667,283.712 184.76,283.712 L184.76,283.712 L184.76,284 L187.576,284 L187.576,283.712 C187.458667,283.658667 187.354667,283.605333 187.264,283.552 C187.173333,283.498667 187.101333,283.413333 187.048,283.296 L187.048,283.296 L183.72,276.784 C183.645333,276.645333 183.589333,276.533333 183.552,276.448 C183.514667,276.362667 183.496,276.277333 183.496,276.192 C183.496,276.074667 183.533333,275.997333 183.608,275.96 C183.682667,275.922667 183.757333,275.893333 183.832,275.872 L183.832,275.872 L183.832,275.584 L181.128,275.584 L181.128,275.872 C181.213333,275.893333 181.293333,275.925333 181.368,275.968 C181.442667,276.010667 181.48,276.085333 181.48,276.192 C181.48,276.277333 181.450667,276.378667 181.392,276.496 C181.333333,276.613333 181.266667,276.741333 181.192,276.88 L181.192,276.88 L178.232,283.104 C178.157333,283.253333 178.08,283.386667 178,283.504 C177.92,283.621333 177.810667,283.690667 177.672,283.712 L177.672,283.712 L177.672,284 L179.944,284 Z M183.704,280.736 L180.856,280.736 L182.36,277.76 L183.704,280.736 Z M197.672,284.304 L197.672,282.112 L197.384,282.112 C197.384,282.24 197.333333,282.341333 197.232,282.416 C197.130667,282.490667 197,282.528 196.84,282.528 L196.84,282.528 L191.496,282.528 L191.496,280.32 L194.632,280.32 C194.845333,280.32 195.010667,280.354667 195.128,280.424 C195.245333,280.493333 195.304,280.650667 195.304,280.896 L195.304,280.896 L195.592,280.896 L195.592,278.4 L195.304,278.4 C195.304,278.645333 195.245333,278.797333 195.128,278.856 C195.010667,278.914667 194.845333,278.944 194.632,278.944 L194.632,278.944 L191.496,278.944 L191.496,276.96 L196.68,276.96 C196.904,276.96 197.061333,276.989333 197.152,277.048 C197.242667,277.106667 197.288,277.194667 197.288,277.312 L197.288,277.312 L197.576,277.312 L197.576,275.2 L197.288,275.2 C197.288,275.317333 197.242667,275.410667 197.152,275.48 C197.061333,275.549333 196.904,275.584 196.68,275.584 L196.68,275.584 L189.384,275.584 L189.384,275.872 C189.458667,275.872 189.525333,275.896 189.584,275.944 C189.642667,275.992 189.672,276.064 189.672,276.16 L189.672,276.16 L189.672,283.424 C189.672,283.52 189.642667,283.592 189.584,283.64 C189.525333,283.688 189.458667,283.712 189.384,283.712 L189.384,283.712 L189.384,284 L196.84,284 C197,284 197.130667,284.010667 197.232,284.032 C197.333333,284.053333 197.384,284.144 197.384,284.304 L197.384,284.304 L197.672,284.304 Z M201.112,284.048 C201.421333,284.048 201.688,283.944 201.912,283.736 C202.136,283.528 202.248,283.269333 202.248,282.96 C202.248,282.650667 202.136,282.384 201.912,282.16 C201.688,281.936 201.421333,281.824 201.112,281.824 C200.802667,281.824 200.536,281.936 200.312,282.16 C200.088,282.384 199.976,282.650667 199.976,282.96 C199.976,283.269333 200.088,283.528 200.312,283.736 C200.536,283.944 200.802667,284.048 201.112,284.048 Z M62.864,300.048 C63.376,300.048 63.8666667,299.989333 64.336,299.872 C64.8053333,299.754667 65.224,299.616 65.592,299.456 C65.96,299.296 66.264,299.152 66.504,299.024 C66.744,298.896 66.896,298.832 66.96,298.832 C66.992,298.832 67.0213333,298.834667 67.048,298.84 L67.09,298.846 L67.09,298.846 L67.136,298.848 L67.264,298.72 L66.208,297.024 L65.984,297.152 C66.0266667,297.205333 66.048,297.269333 66.048,297.344 C66.048,297.482667 65.944,297.629333 65.736,297.784 C65.528,297.938667 65.2693333,298.077333 64.96,298.2 C64.6506667,298.322667 64.3093333,298.424 63.936,298.504 C63.5626667,298.584 63.2053333,298.624 62.864,298.624 C62.416,298.624 61.9866667,298.56 61.576,298.432 C61.1653333,298.304 60.808,298.117333 60.504,297.872 C60.2,297.626667 59.9573333,297.325333 59.776,296.968 C59.5946667,296.610667 59.504,296.202667 59.504,295.744 C59.504,295.285333 59.5946667,294.877333 59.776,294.52 C59.9573333,294.162667 60.2,293.861333 60.504,293.616 C60.808,293.370667 61.1653333,293.184 61.576,293.056 C61.9866667,292.928 62.416,292.864 62.864,292.864 C63.1306667,292.864 63.4213333,292.896 63.736,292.96 C64.0506667,293.024 64.3493333,293.104 64.632,293.2 C64.9146667,293.296 65.152,293.405333 65.344,293.528 C65.536,293.650667 65.6426667,293.770667 65.664,293.888 C65.6746667,293.930667 65.6826667,293.968 65.688,294 C65.6933333,294.032 65.696,294.064 65.696,294.096 L65.696,294.096 L65.856,294.208 L67.104,292.272 L66.864,292.08 C66.8426667,292.112 66.8133333,292.154667 66.776,292.208 C66.7386667,292.261333 66.6933333,292.288 66.64,292.288 C66.5973333,292.288 66.48,292.245333 66.288,292.16 C66.096,292.074667 65.8346667,291.984 65.504,291.888 C65.1733333,291.792 64.7866667,291.701333 64.344,291.616 C63.9013333,291.530667 63.408,291.488 62.864,291.488 C62.192,291.488 61.5466667,291.578667 60.928,291.76 C60.3093333,291.941333 59.7626667,292.213333 59.288,292.576 C58.8133333,292.938667 58.4373333,293.389333 58.16,293.928 C57.8826667,294.466667 57.744,295.088 57.744,295.792 C57.744,296.506667 57.8826667,297.130667 58.16,297.664 C58.4373333,298.197333 58.8133333,298.642667 59.288,299 C59.7626667,299.357333 60.3093333,299.621333 60.928,299.792 C61.5466667,299.962667 62.192,300.048 62.864,300.048 Z M71.856,300 L71.856,299.712 C71.792,299.712 71.736,299.693333 71.688,299.656 C71.64,299.618667 71.616,299.557333 71.616,299.472 L71.616,299.472 L71.616,297.056 L75.904,297.056 L75.904,299.472 C75.904,299.557333 75.88,299.618667 75.832,299.656 C75.784,299.693333 75.728,299.712 75.664,299.712 L75.664,299.712 L75.664,300 L77.68,300 L77.68,299.712 C77.616,299.712 77.56,299.693333 77.512,299.656 C77.464,299.618667 77.44,299.557333 77.44,299.472 L77.44,299.472 L77.44,293.488 C77.44,293.402667 77.464,293.341333 77.512,293.304 C77.56,293.266667 77.616,293.248 77.68,293.248 L77.68,293.248 L77.68,292.96 L75.664,292.96 L75.664,293.248 C75.728,293.248 75.784,293.266667 75.832,293.304 C75.88,293.341333 75.904,293.402667 75.904,293.488 L75.904,293.488 L75.904,295.744 L71.616,295.744 L71.616,293.488 C71.616,293.402667 71.64,293.341333 71.688,293.304 C71.736,293.266667 71.792,293.248 71.856,293.248 L71.856,293.248 L71.856,292.96 L69.84,292.96 L69.84,293.248 C69.904,293.248 69.96,293.266667 70.008,293.304 C70.056,293.341333 70.08,293.402667 70.08,293.488 L70.08,293.488 L70.08,299.472 C70.08,299.557333 70.056,299.618667 70.008,299.656 C69.96,299.693333 69.904,299.712 69.84,299.712 L69.84,299.712 L69.84,300 L71.856,300 Z M83.984,300.048 C84.5706667,300.048 85.1226667,299.981333 85.64,299.848 C86.1573333,299.714667 86.608,299.498667 86.992,299.2 C87.376,298.901333 87.68,298.525333 87.904,298.072 C88.128,297.618667 88.24,297.088 88.24,296.48 C88.24,295.872 88.128,295.341333 87.904,294.888 C87.68,294.434667 87.376,294.058667 86.992,293.76 C86.608,293.461333 86.1573333,293.237333 85.64,293.088 C85.1226667,292.938667 84.5706667,292.864 83.984,292.864 C83.3973333,292.864 82.8453333,292.938667 82.328,293.088 C81.8106667,293.237333 81.36,293.461333 80.976,293.76 C80.592,294.058667 80.288,294.434667 80.064,294.888 C79.84,295.341333 79.728,295.872 79.728,296.48 C79.728,297.088 79.84,297.618667 80.064,298.072 C80.288,298.525333 80.592,298.901333 80.976,299.2 C81.36,299.498667 81.8106667,299.714667 82.328,299.848 C82.8453333,299.981333 83.3973333,300.048 83.984,300.048 Z M83.984,298.912 C83.6426667,298.912 83.3093333,298.856 82.984,298.744 C82.6586667,298.632 82.368,298.472 82.112,298.264 C81.856,298.056 81.6506667,297.802667 81.496,297.504 C81.3413333,297.205333 81.264,296.864 81.264,296.48 C81.264,296.096 81.3413333,295.754667 81.496,295.456 C81.6506667,295.157333 81.856,294.904 82.112,294.696 C82.368,294.488 82.6586667,294.328 82.984,294.216 C83.3093333,294.104 83.6426667,294.048 83.984,294.048 C84.3253333,294.048 84.6586667,294.104 84.984,294.216 C85.3093333,294.328 85.6,294.488 85.856,294.696 C86.112,294.904 86.3173333,295.157333 86.472,295.456 C86.6266667,295.754667 86.704,296.096 86.704,296.48 C86.704,296.864 86.6266667,297.205333 86.472,297.504 C86.3173333,297.802667 86.112,298.056 85.856,298.264 C85.6,298.472 85.3093333,298.632 84.984,298.744 C84.6586667,298.856 84.3253333,298.912 83.984,298.912 Z M93.392,300.048 C93.872,300.048 94.3066667,300.005333 94.696,299.92 C95.0853333,299.834667 95.4266667,299.730667 95.72,299.608 C96.0133333,299.485333 96.256,299.376 96.448,299.28 C96.64,299.184 96.7786667,299.136 96.864,299.136 C96.9173333,299.136 97.008,299.162667 97.136,299.216 L97.136,299.216 L97.296,299.136 L96.112,297.44 L95.936,297.6 C95.9466667,297.642667 95.952,297.696 95.952,297.76 L95.952,297.76 L95.952,297.888 C95.952,297.984 95.8746667,298.090667 95.72,298.208 C95.5653333,298.325333 95.3653333,298.434667 95.12,298.536 C94.8746667,298.637333 94.6026667,298.725333 94.304,298.8 C94.0053333,298.874667 93.712,298.912 93.424,298.912 C93.1146667,298.912 92.8106667,298.856 92.512,298.744 C92.2133333,298.632 91.9466667,298.466667 91.712,298.248 C91.4773333,298.029333 91.288,297.768 91.144,297.464 C91,297.16 90.928,296.816 90.928,296.432 C90.928,296.048 90.992,295.706667 91.12,295.408 C91.248,295.109333 91.4293333,294.858667 91.664,294.656 C91.8986667,294.453333 92.1733333,294.301333 92.488,294.2 C92.8026667,294.098667 93.152,294.048 93.536,294.048 C93.856,294.048 94.1493333,294.077333 94.416,294.136 C94.6826667,294.194667 94.9146667,294.266667 95.112,294.352 C95.3093333,294.437333 95.4613333,294.525333 95.568,294.616 C95.6746667,294.706667 95.728,294.778667 95.728,294.832 C95.728,294.864 95.7306667,294.890667 95.736,294.912 C95.7413333,294.933333 95.744,294.954667 95.744,294.976 L95.744,294.976 L95.92,295.104 L96.976,293.584 L96.784,293.472 C96.7413333,293.493333 96.7013333,293.52 96.664,293.552 C96.6266667,293.584 96.5813333,293.6 96.528,293.6 C96.4533333,293.6 96.3306667,293.562667 96.16,293.488 C95.9893333,293.413333 95.776,293.328 95.52,293.232 C95.264,293.136 94.968,293.050667 94.632,292.976 C94.296,292.901333 93.9253333,292.864 93.52,292.864 C92.9973333,292.864 92.488,292.938667 91.992,293.088 C91.496,293.237333 91.056,293.464 90.672,293.768 C90.288,294.072 89.9786667,294.448 89.744,294.896 C89.5093333,295.344 89.392,295.866667 89.392,296.464 C89.392,297.061333 89.5093333,297.586667 89.744,298.04 C89.9786667,298.493333 90.2826667,298.872 90.656,299.176 C91.0293333,299.48 91.456,299.701333 91.936,299.84 C92.416,299.978667 92.9013333,300.048 93.392,300.048 Z M102.656,300.048 C103.242667,300.048 103.794667,299.981333 104.312,299.848 C104.829333,299.714667 105.28,299.498667 105.664,299.2 C106.048,298.901333 106.352,298.525333 106.576,298.072 C106.8,297.618667 106.912,297.088 106.912,296.48 C106.912,295.872 106.8,295.341333 106.576,294.888 C106.352,294.434667 106.048,294.058667 105.664,293.76 C105.28,293.461333 104.829333,293.237333 104.312,293.088 C103.794667,292.938667 103.242667,292.864 102.656,292.864 C102.069333,292.864 101.517333,292.938667 101,293.088 C100.482667,293.237333 100.032,293.461333 99.648,293.76 C99.264,294.058667 98.96,294.434667 98.736,294.888 C98.512,295.341333 98.4,295.872 98.4,296.48 C98.4,297.088 98.512,297.618667 98.736,298.072 C98.96,298.525333 99.264,298.901333 99.648,299.2 C100.032,299.498667 100.482667,299.714667 101,299.848 C101.517333,299.981333 102.069333,300.048 102.656,300.048 Z M102.656,298.912 C102.314667,298.912 101.981333,298.856 101.656,298.744 C101.330667,298.632 101.04,298.472 100.784,298.264 C100.528,298.056 100.322667,297.802667 100.168,297.504 C100.013333,297.205333 99.936,296.864 99.936,296.48 C99.936,296.096 100.013333,295.754667 100.168,295.456 C100.322667,295.157333 100.528,294.904 100.784,294.696 C101.04,294.488 101.330667,294.328 101.656,294.216 C101.981333,294.104 102.314667,294.048 102.656,294.048 C102.997333,294.048 103.330667,294.104 103.656,294.216 C103.981333,294.328 104.272,294.488 104.528,294.696 C104.784,294.904 104.989333,295.157333 105.144,295.456 C105.298667,295.754667 105.376,296.096 105.376,296.48 C105.376,296.864 105.298667,297.205333 105.144,297.504 C104.989333,297.802667 104.784,298.056 104.528,298.264 C104.272,298.472 103.981333,298.632 103.656,298.744 C103.330667,298.856 102.997333,298.912 102.656,298.912 Z M115.776,300.16 L115.776,298.48 L115.488,298.48 C115.488,298.586667 115.445333,298.669333 115.36,298.728 C115.274667,298.786667 115.168,298.816 115.04,298.816 L115.04,298.816 L110.72,298.816 L110.72,293.488 C110.72,293.328 110.842667,293.248 111.088,293.248 L111.088,293.248 L111.088,292.96 L108.768,292.96 L108.768,293.248 C109.045333,293.248 109.184,293.328 109.184,293.488 L109.184,293.488 L109.184,299.472 C109.184,299.632 109.045333,299.712 108.768,299.712 L108.768,299.712 L108.768,300 L115.04,300 C115.168,300 115.274667,300.005333 115.36,300.016 C115.445333,300.026667 115.488,300.074667 115.488,300.16 L115.488,300.16 L115.776,300.16 Z M118.832,300 L118.832,299.712 C118.736,299.712 118.661333,299.701333 118.608,299.68 C118.554667,299.658667 118.528,299.605333 118.528,299.52 C118.528,299.466667 118.541333,299.405333 118.568,299.336 C118.594667,299.266667 118.629333,299.189333 118.672,299.104 L118.672,299.104 L119.12,298.24 L122.544,298.24 L122.976,299.152 C123.008,299.237333 123.034667,299.306667 123.056,299.36 C123.077333,299.413333 123.088,299.472 123.088,299.536 C123.088,299.621333 123.058667,299.68 123,299.712 C122.941333,299.744 122.885333,299.76 122.832,299.76 L122.832,299.76 L122.832,300 L125.104,300 L125.104,299.712 C125.029333,299.690667 124.96,299.658667 124.896,299.616 C124.832,299.573333 124.773333,299.504 124.72,299.408 L124.72,299.408 L122.128,293.968 C122.074667,293.850667 122.024,293.746667 121.976,293.656 C121.928,293.565333 121.904,293.488 121.904,293.424 C121.904,293.349333 121.922667,293.306667 121.96,293.296 C121.997333,293.285333 122.032,293.269333 122.064,293.248 L122.064,293.248 L122.064,292.96 L119.648,292.96 L119.648,293.248 C119.68,293.269333 119.709333,293.288 119.736,293.304 C119.762667,293.32 119.776,293.36 119.776,293.424 C119.776,293.509333 119.757333,293.597333 119.72,293.688 C119.682667,293.778667 119.632,293.898667 119.568,294.048 L119.568,294.048 L117.184,299.248 C117.141333,299.333333 117.08,299.426667 117,299.528 C116.92,299.629333 116.816,299.690667 116.688,299.712 L116.688,299.712 L116.688,300 L118.832,300 Z M122.032,297.056 L119.6,297.056 L120.736,294.368 L122.032,297.056 Z M130.4,300 L130.4,299.712 C130.208,299.712 130.112,299.632 130.112,299.472 L130.112,299.472 L130.112,294.144 L132.192,294.144 C132.277333,294.144 132.357333,294.165333 132.432,294.208 C132.506667,294.250667 132.544,294.32 132.544,294.416 L132.544,294.416 L132.832,294.416 L132.832,292.576 L132.544,292.576 C132.544,292.725333 132.506667,292.826667 132.432,292.88 C132.357333,292.933333 132.277333,292.96 132.192,292.96 L132.192,292.96 L126.496,292.96 C126.410667,292.96 126.330667,292.933333 126.256,292.88 C126.181333,292.826667 126.144,292.725333 126.144,292.576 L126.144,292.576 L125.856,292.576 L125.856,294.416 L126.144,294.416 C126.144,294.32 126.181333,294.250667 126.256,294.208 C126.330667,294.165333 126.410667,294.144 126.496,294.144 L126.496,294.144 L128.576,294.144 L128.576,299.472 C128.576,299.557333 128.549333,299.618667 128.496,299.656 C128.442667,299.693333 128.389333,299.712 128.336,299.712 L128.336,299.712 L128.336,300 L130.4,300 Z M141.264,300.176 L141.264,298.496 L140.976,298.496 C140.976,298.592 140.933333,298.669333 140.848,298.728 C140.762667,298.786667 140.656,298.816 140.528,298.816 L140.528,298.816 L136.432,298.816 L136.432,296.928 L138.768,296.928 C138.981333,296.928 139.146667,296.941333 139.264,296.968 C139.381333,296.994667 139.424,297.066667 139.392,297.184 L139.392,297.184 L139.712,297.184 L139.712,295.488 L139.424,295.488 C139.424,295.605333 139.381333,295.677333 139.296,295.704 C139.210667,295.730667 139.077333,295.744 138.896,295.744 L138.896,295.744 L136.432,295.744 L136.432,294.144 L140.336,294.144 C140.666667,294.144 140.832,294.245333 140.832,294.448 L140.832,294.448 L141.12,294.448 L141.12,292.672 L140.832,292.672 C140.832,292.864 140.666667,292.96 140.336,292.96 L140.336,292.96 L134.656,292.96 L134.656,293.248 C134.709333,293.248 134.762667,293.266667 134.816,293.304 C134.869333,293.341333 134.896,293.402667 134.896,293.488 L134.896,293.488 L134.896,299.472 C134.896,299.557333 134.869333,299.618667 134.816,299.656 C134.762667,299.693333 134.709333,299.712 134.656,299.712 L134.656,299.712 L134.656,300 L140.528,300 C140.656,300 140.762667,300.005333 140.848,300.016 C140.933333,300.026667 140.976,300.08 140.976,300.176 L140.976,300.176 L141.264,300.176 Z M150.992,300 L150.992,299.712 C150.693333,299.712 150.544,299.632 150.544,299.472 L150.544,299.472 L150.544,293.488 C150.544,293.328 150.693333,293.248 150.992,293.248 L150.992,293.248 L150.992,292.96 L148.56,292.96 L148.56,293.248 C148.730667,293.248 148.848,293.266667 148.912,293.304 C148.976,293.341333 149.008,293.402667 149.008,293.488 L149.008,293.488 L149.008,299.472 C149.008,299.557333 148.976,299.618667 148.912,299.656 C148.848,299.693333 148.730667,299.712 148.56,299.712 L148.56,299.712 L148.56,300 L150.992,300 Z M156.768,300.048 C157.130667,300.048 157.517333,300.021333 157.928,299.968 C158.338667,299.914667 158.714667,299.802667 159.056,299.632 C159.397333,299.461333 159.682667,299.226667 159.912,298.928 C160.141333,298.629333 160.256,298.245333 160.256,297.776 C160.256,297.306667 160.125333,296.938667 159.864,296.672 C159.602667,296.405333 159.274667,296.202667 158.88,296.064 C158.485333,295.925333 158.058667,295.826667 157.6,295.768 C157.141333,295.709333 156.714667,295.650667 156.32,295.592 C155.925333,295.533333 155.597333,295.453333 155.336,295.352 C155.074667,295.250667 154.944,295.082667 154.944,294.848 C154.944,294.698667 154.986667,294.573333 155.072,294.472 C155.157333,294.370667 155.274667,294.288 155.424,294.224 C155.573333,294.16 155.744,294.114667 155.936,294.088 C156.128,294.061333 156.330667,294.048 156.544,294.048 C157.098667,294.048 157.6,294.112 158.048,294.24 C158.496,294.368 158.826667,294.522667 159.04,294.704 C159.125333,294.768 159.173333,294.832 159.184,294.896 C159.194667,294.96 159.205333,295.024 159.216,295.088 L159.216,295.088 L159.504,295.184 L160.304,293.68 L160.128,293.504 C160.064,293.536 160.010667,293.565333 159.968,293.592 C159.925333,293.618667 159.861333,293.632 159.776,293.632 C159.701333,293.632 159.586667,293.592 159.432,293.512 C159.277333,293.432 159.077333,293.344 158.832,293.248 C158.586667,293.152 158.285333,293.064 157.928,292.984 C157.570667,292.904 157.141333,292.864 156.64,292.864 C155.616,292.864 154.821333,293.066667 154.256,293.472 C153.690667,293.877333 153.408,294.421333 153.408,295.104 C153.408,295.562667 153.538667,295.917333 153.8,296.168 C154.061333,296.418667 154.389333,296.610667 154.784,296.744 C155.178667,296.877333 155.605333,296.973333 156.064,297.032 C156.522667,297.090667 156.949333,297.149333 157.344,297.208 C157.738667,297.266667 158.066667,297.349333 158.328,297.456 C158.589333,297.562667 158.72,297.733333 158.72,297.968 C158.72,298.170667 158.645333,298.333333 158.496,298.456 C158.346667,298.578667 158.165333,298.674667 157.952,298.744 C157.738667,298.813333 157.522667,298.858667 157.304,298.88 C157.085333,298.901333 156.901333,298.912 156.752,298.912 C156.592,298.912 156.370667,298.885333 156.088,298.832 C155.805333,298.778667 155.522667,298.706667 155.24,298.616 C154.957333,298.525333 154.714667,298.413333 154.512,298.28 C154.309333,298.146667 154.208,298 154.208,297.84 C154.208,297.786667 154.210667,297.736 154.216,297.688 C154.221333,297.64 154.224,297.594667 154.224,297.552 L154.224,297.552 L153.92,297.472 L153.184,299.264 L153.408,299.424 C153.461333,299.36 153.525333,299.328 153.6,299.328 C153.642667,299.328 153.765333,299.368 153.968,299.448 C154.170667,299.528 154.418667,299.613333 154.712,299.704 C155.005333,299.794667 155.330667,299.874667 155.688,299.944 C156.045333,300.013333 156.405333,300.048 156.768,300.048 Z M174.448,300.16 L174.448,298.48 L174.16,298.48 C174.16,298.586667 174.117333,298.669333 174.032,298.728 C173.946667,298.786667 173.84,298.816 173.712,298.816 L173.712,298.816 L169.392,298.816 L169.392,293.488 C169.392,293.328 169.514667,293.248 169.76,293.248 L169.76,293.248 L169.76,292.96 L167.44,292.96 L167.44,293.248 C167.717333,293.248 167.856,293.328 167.856,293.488 L167.856,293.488 L167.856,299.472 C167.856,299.632 167.717333,299.712 167.44,299.712 L167.44,299.712 L167.44,300 L173.712,300 C173.84,300 173.946667,300.005333 174.032,300.016 C174.117333,300.026667 174.16,300.074667 174.16,300.16 L174.16,300.16 L174.448,300.16 Z M178.992,300 L178.992,299.712 C178.693333,299.712 178.544,299.632 178.544,299.472 L178.544,299.472 L178.544,293.488 C178.544,293.328 178.693333,293.248 178.992,293.248 L178.992,293.248 L178.992,292.96 L176.56,292.96 L176.56,293.248 C176.730667,293.248 176.848,293.266667 176.912,293.304 C176.976,293.341333 177.008,293.402667 177.008,293.488 L177.008,293.488 L177.008,299.472 C177.008,299.557333 176.976,299.618667 176.912,299.656 C176.848,299.693333 176.730667,299.712 176.56,299.712 L176.56,299.712 L176.56,300 L178.992,300 Z M183.888,300 L183.888,299.712 C183.792,299.712 183.706667,299.693333 183.632,299.656 C183.557333,299.618667 183.52,299.557333 183.52,299.472 L183.52,299.472 L183.52,297.024 L186.336,297.024 C186.517333,297.024 186.629333,297.045333 186.672,297.088 C186.714667,297.130667 186.741333,297.194667 186.752,297.28 L186.752,297.28 L187.04,297.28 L187.04,295.6 L186.752,295.6 C186.741333,295.685333 186.714667,295.746667 186.672,295.784 C186.629333,295.821333 186.517333,295.84 186.336,295.84 L186.336,295.84 L183.52,295.84 L183.52,294.144 L187.856,294.144 C188.037333,294.144 188.165333,294.168 188.24,294.216 C188.314667,294.264 188.352,294.314667 188.352,294.368 L188.352,294.368 L188.64,294.368 L188.64,292.672 L188.352,292.672 C188.352,292.757333 188.314667,292.826667 188.24,292.88 C188.165333,292.933333 188.037333,292.96 187.856,292.96 L187.856,292.96 L181.648,292.96 L181.648,293.248 C181.872,293.248 181.984,293.328 181.984,293.488 L181.984,293.488 L181.984,299.472 C181.984,299.632 181.882667,299.712 181.68,299.712 L181.68,299.712 L181.68,300 L183.888,300 Z M197.264,300.176 L197.264,298.496 L196.976,298.496 C196.976,298.592 196.933333,298.669333 196.848,298.728 C196.762667,298.786667 196.656,298.816 196.528,298.816 L196.528,298.816 L192.432,298.816 L192.432,296.928 L194.768,296.928 C194.981333,296.928 195.146667,296.941333 195.264,296.968 C195.381333,296.994667 195.424,297.066667 195.392,297.184 L195.392,297.184 L195.712,297.184 L195.712,295.488 L195.424,295.488 C195.424,295.605333 195.381333,295.677333 195.296,295.704 C195.210667,295.730667 195.077333,295.744 194.896,295.744 L194.896,295.744 L192.432,295.744 L192.432,294.144 L196.336,294.144 C196.666667,294.144 196.832,294.245333 196.832,294.448 L196.832,294.448 L197.12,294.448 L197.12,292.672 L196.832,292.672 C196.832,292.864 196.666667,292.96 196.336,292.96 L196.336,292.96 L190.656,292.96 L190.656,293.248 C190.709333,293.248 190.762667,293.266667 190.816,293.304 C190.869333,293.341333 190.896,293.402667 190.896,293.488 L190.896,293.488 L190.896,299.472 C190.896,299.557333 190.869333,299.618667 190.816,299.656 C190.762667,299.693333 190.709333,299.712 190.656,299.712 L190.656,299.712 L190.656,300 L196.528,300 C196.656,300 196.762667,300.005333 196.848,300.016 C196.933333,300.026667 196.976,300.08 196.976,300.176 L196.976,300.176 L197.264,300.176 Z M200.672,300.048 C200.981333,300.048 201.248,299.944 201.472,299.736 C201.696,299.528 201.808,299.269333 201.808,298.96 C201.808,298.650667 201.696,298.384 201.472,298.16 C201.248,297.936 200.981333,297.824 200.672,297.824 C200.362667,297.824 200.096,297.936 199.872,298.16 C199.648,298.384 199.536,298.650667 199.536,298.96 C199.536,299.269333 199.648,299.528 199.872,299.736 C200.096,299.944 200.362667,300.048 200.672,300.048 Z M38.328,316 L38.328,315.712 C38.2426667,315.712 38.168,315.688 38.104,315.64 C38.04,315.592 38.008,315.52 38.008,315.424 L38.008,315.424 L38.008,313.136 L39.352,312.096 L42.088,315.248 C42.2373333,315.429333 42.312,315.546667 42.312,315.6 C42.312,315.674667 42.2426667,315.712 42.104,315.712 L42.104,315.712 L42.104,316 L45.064,316 L45.064,315.712 C44.8826667,315.658667 44.6986667,315.554667 44.512,315.4 C44.3253333,315.245333 44.1626667,315.088 44.024,314.928 L44.024,314.928 L40.664,311.04 L44.344,308.112 C44.536,307.952 44.728,307.872 44.92,307.872 L44.92,307.872 L44.92,307.584 L41.56,307.584 L41.56,307.872 C41.624,307.872 41.68,307.888 41.728,307.92 C41.776,307.952 41.8,308.005333 41.8,308.08 C41.8,308.133333 41.7573333,308.2 41.672,308.28 C41.5866667,308.36 41.4693333,308.464 41.32,308.592 L41.32,308.592 L38.008,311.2 L38.008,308.16 C38.008,308.064 38.04,307.992 38.104,307.944 C38.168,307.896 38.2426667,307.872 38.328,307.872 L38.328,307.872 L38.328,307.584 L35.832,307.584 L35.832,307.872 C36.0666667,307.872 36.184,307.968 36.184,308.16 L36.184,308.16 L36.184,315.424 C36.184,315.616 36.0666667,315.712 35.832,315.712 L35.832,315.712 L35.832,316 L38.328,316 Z M53.256,316.176 L53.256,314.496 L52.968,314.496 C52.968,314.592 52.9253333,314.669333 52.84,314.728 C52.7546667,314.786667 52.648,314.816 52.52,314.816 L52.52,314.816 L48.424,314.816 L48.424,312.928 L50.76,312.928 C50.9733333,312.928 51.1386667,312.941333 51.256,312.968 C51.3733333,312.994667 51.416,313.066667 51.384,313.184 L51.384,313.184 L51.704,313.184 L51.704,311.488 L51.416,311.488 C51.416,311.605333 51.3733333,311.677333 51.288,311.704 C51.2026667,311.730667 51.0693333,311.744 50.888,311.744 L50.888,311.744 L48.424,311.744 L48.424,310.144 L52.328,310.144 C52.6586667,310.144 52.824,310.245333 52.824,310.448 L52.824,310.448 L53.112,310.448 L53.112,308.672 L52.824,308.672 C52.824,308.864 52.6586667,308.96 52.328,308.96 L52.328,308.96 L46.648,308.96 L46.648,309.248 C46.7013333,309.248 46.7546667,309.266667 46.808,309.304 C46.8613333,309.341333 46.888,309.402667 46.888,309.488 L46.888,309.488 L46.888,315.472 C46.888,315.557333 46.8613333,315.618667 46.808,315.656 C46.7546667,315.693333 46.7013333,315.712 46.648,315.712 L46.648,315.712 L46.648,316 L52.52,316 C52.648,316 52.7546667,316.005333 52.84,316.016 C52.9253333,316.026667 52.968,316.08 52.968,316.176 L52.968,316.176 L53.256,316.176 Z M62.152,316.176 L62.152,314.496 L61.864,314.496 C61.864,314.592 61.8213333,314.669333 61.736,314.728 C61.6506667,314.786667 61.544,314.816 61.416,314.816 L61.416,314.816 L57.32,314.816 L57.32,312.928 L59.656,312.928 C59.8693333,312.928 60.0346667,312.941333 60.152,312.968 C60.2693333,312.994667 60.312,313.066667 60.28,313.184 L60.28,313.184 L60.6,313.184 L60.6,311.488 L60.312,311.488 C60.312,311.605333 60.2693333,311.677333 60.184,311.704 C60.0986667,311.730667 59.9653333,311.744 59.784,311.744 L59.784,311.744 L57.32,311.744 L57.32,310.144 L61.224,310.144 C61.5546667,310.144 61.72,310.245333 61.72,310.448 L61.72,310.448 L62.008,310.448 L62.008,308.672 L61.72,308.672 C61.72,308.864 61.5546667,308.96 61.224,308.96 L61.224,308.96 L55.544,308.96 L55.544,309.248 C55.5973333,309.248 55.6506667,309.266667 55.704,309.304 C55.7573333,309.341333 55.784,309.402667 55.784,309.488 L55.784,309.488 L55.784,315.472 C55.784,315.557333 55.7573333,315.618667 55.704,315.656 C55.6506667,315.693333 55.5973333,315.712 55.544,315.712 L55.544,315.712 L55.544,316 L61.416,316 C61.544,316 61.6506667,316.005333 61.736,316.016 C61.8213333,316.026667 61.864,316.08 61.864,316.176 L61.864,316.176 L62.152,316.176 Z M66.472,316 L66.472,315.712 C66.248,315.712 66.136,315.632 66.136,315.472 L66.136,315.472 L66.136,313.072 L68.856,313.072 C69.72,313.072 70.368,312.925333 70.8,312.632 C71.232,312.338667 71.448,311.808 71.448,311.04 C71.448,310.272 71.232,309.733333 70.8,309.424 C70.368,309.114667 69.72,308.96 68.856,308.96 L68.856,308.96 L64.2,308.96 L64.2,309.248 C64.4666667,309.248 64.6,309.328 64.6,309.488 L64.6,309.488 L64.6,315.472 C64.6,315.632 64.4666667,315.712 64.2,315.712 L64.2,315.712 L64.2,316 L66.472,316 Z M68.824,311.888 L66.136,311.888 L66.136,310.144 L68.824,310.144 C69.1333333,310.144 69.392,310.210667 69.6,310.344 C69.808,310.477333 69.912,310.709333 69.912,311.04 C69.912,311.381333 69.808,311.608 69.6,311.72 C69.392,311.832 69.1333333,311.888 68.824,311.888 L68.824,311.888 Z M80.776,316 L80.776,315.712 C80.4773333,315.712 80.328,315.632 80.328,315.472 L80.328,315.472 L80.328,309.488 C80.328,309.328 80.4773333,309.248 80.776,309.248 L80.776,309.248 L80.776,308.96 L78.344,308.96 L78.344,309.248 C78.5146667,309.248 78.632,309.266667 78.696,309.304 C78.76,309.341333 78.792,309.402667 78.792,309.488 L78.792,309.488 L78.792,315.472 C78.792,315.557333 78.76,315.618667 78.696,315.656 C78.632,315.693333 78.5146667,315.712 78.344,315.712 L78.344,315.712 L78.344,316 L80.776,316 Z M85.496,316 L85.496,315.712 C85.272,315.712 85.16,315.632 85.16,315.472 L85.16,315.472 L85.16,310.816 L89.128,315.04 C89.256,315.178667 89.3706667,315.301333 89.472,315.408 C89.5733333,315.514667 89.624,315.589333 89.624,315.632 C89.624,315.685333 89.5866667,315.712 89.512,315.712 L89.512,315.712 L89.512,316 L91.592,316 L91.592,315.712 C91.4,315.712 91.304,315.632 91.304,315.472 L91.304,315.472 L91.304,309.488 C91.304,309.328 91.4,309.248 91.592,309.248 L91.592,309.248 L91.592,308.96 L89.64,308.96 L89.64,309.248 C89.8533333,309.248 89.96,309.328 89.96,309.488 L89.96,309.488 L89.96,313.824 L86.12,309.76 C85.8853333,309.525333 85.768,309.381333 85.768,309.328 C85.768,309.285333 85.8053333,309.258667 85.88,309.248 L85.88,309.248 L85.88,308.96 L83.528,308.96 L83.528,309.248 C83.72,309.248 83.816,309.328 83.816,309.488 L83.816,309.488 L83.816,315.472 C83.816,315.632 83.72,315.712 83.528,315.712 L83.528,315.712 L83.528,316 L85.496,316 Z M101.224,316 L101.224,315.712 C101.128,315.712 101.042667,315.693333 100.968,315.656 C100.893333,315.618667 100.856,315.557333 100.856,315.472 L100.856,315.472 L100.856,313.024 L103.672,313.024 C103.853333,313.024 103.965333,313.045333 104.008,313.088 C104.050667,313.130667 104.077333,313.194667 104.088,313.28 L104.088,313.28 L104.376,313.28 L104.376,311.6 L104.088,311.6 C104.077333,311.685333 104.050667,311.746667 104.008,311.784 C103.965333,311.821333 103.853333,311.84 103.672,311.84 L103.672,311.84 L100.856,311.84 L100.856,310.144 L105.192,310.144 C105.373333,310.144 105.501333,310.168 105.576,310.216 C105.650667,310.264 105.688,310.314667 105.688,310.368 L105.688,310.368 L105.976,310.368 L105.976,308.672 L105.688,308.672 C105.688,308.757333 105.650667,308.826667 105.576,308.88 C105.501333,308.933333 105.373333,308.96 105.192,308.96 L105.192,308.96 L98.984,308.96 L98.984,309.248 C99.208,309.248 99.32,309.328 99.32,309.488 L99.32,309.488 L99.32,315.472 C99.32,315.632 99.2186667,315.712 99.016,315.712 L99.016,315.712 L99.016,316 L101.224,316 Z M110.056,316 L110.056,315.712 C109.992,315.712 109.925333,315.693333 109.856,315.656 C109.786667,315.618667 109.752,315.557333 109.752,315.472 L109.752,315.472 L109.752,313.184 L111.976,313.184 L113.24,315.072 C113.4,315.296 113.48,315.461333 113.48,315.568 C113.48,315.664 113.410667,315.712 113.272,315.712 L113.272,315.712 L113.272,316 L115.72,316 L115.72,315.712 C115.602667,315.68 115.493333,315.634667 115.392,315.576 C115.290667,315.517333 115.197333,315.429333 115.112,315.312 L115.112,315.312 L113.544,313.024 C113.768,312.970667 113.986667,312.893333 114.2,312.792 C114.413333,312.690667 114.608,312.557333 114.784,312.392 C114.96,312.226667 115.101333,312.032 115.208,311.808 C115.314667,311.584 115.368,311.328 115.368,311.04 C115.368,310.282667 115.101333,309.746667 114.568,309.432 C114.034667,309.117333 113.293333,308.96 112.344,308.96 L112.344,308.96 L107.928,308.96 L107.928,309.248 C108.12,309.248 108.216,309.328 108.216,309.488 L108.216,309.488 L108.216,315.472 C108.216,315.632 108.12,315.712 107.928,315.712 L107.928,315.712 L107.928,316 L110.056,316 Z M112.312,312 L109.784,312 L109.784,310.144 L112.312,310.144 C112.856,310.144 113.253333,310.221333 113.504,310.376 C113.754667,310.530667 113.88,310.741333 113.88,311.008 C113.88,311.669333 113.357333,312 112.312,312 L112.312,312 Z M121.336,316.048 C121.922667,316.048 122.474667,315.981333 122.992,315.848 C123.509333,315.714667 123.96,315.498667 124.344,315.2 C124.728,314.901333 125.032,314.525333 125.256,314.072 C125.48,313.618667 125.592,313.088 125.592,312.48 C125.592,311.872 125.48,311.341333 125.256,310.888 C125.032,310.434667 124.728,310.058667 124.344,309.76 C123.96,309.461333 123.509333,309.237333 122.992,309.088 C122.474667,308.938667 121.922667,308.864 121.336,308.864 C120.749333,308.864 120.197333,308.938667 119.68,309.088 C119.162667,309.237333 118.712,309.461333 118.328,309.76 C117.944,310.058667 117.64,310.434667 117.416,310.888 C117.192,311.341333 117.08,311.872 117.08,312.48 C117.08,313.088 117.192,313.618667 117.416,314.072 C117.64,314.525333 117.944,314.901333 118.328,315.2 C118.712,315.498667 119.162667,315.714667 119.68,315.848 C120.197333,315.981333 120.749333,316.048 121.336,316.048 Z M121.336,314.912 C120.994667,314.912 120.661333,314.856 120.336,314.744 C120.010667,314.632 119.72,314.472 119.464,314.264 C119.208,314.056 119.002667,313.802667 118.848,313.504 C118.693333,313.205333 118.616,312.864 118.616,312.48 C118.616,312.096 118.693333,311.754667 118.848,311.456 C119.002667,311.157333 119.208,310.904 119.464,310.696 C119.72,310.488 120.010667,310.328 120.336,310.216 C120.661333,310.104 120.994667,310.048 121.336,310.048 C121.677333,310.048 122.010667,310.104 122.336,310.216 C122.661333,310.328 122.952,310.488 123.208,310.696 C123.464,310.904 123.669333,311.157333 123.824,311.456 C123.978667,311.754667 124.056,312.096 124.056,312.48 C124.056,312.864 123.978667,313.205333 123.824,313.504 C123.669333,313.802667 123.464,314.056 123.208,314.264 C122.952,314.472 122.661333,314.632 122.336,314.744 C122.010667,314.856 121.677333,314.912 121.336,314.912 Z M129.496,316 L129.496,315.712 C129.272,315.712 129.16,315.632 129.16,315.472 L129.16,315.472 L129.16,310.816 L133.128,315.04 C133.256,315.178667 133.370667,315.301333 133.472,315.408 C133.573333,315.514667 133.624,315.589333 133.624,315.632 C133.624,315.685333 133.586667,315.712 133.512,315.712 L133.512,315.712 L133.512,316 L135.592,316 L135.592,315.712 C135.4,315.712 135.304,315.632 135.304,315.472 L135.304,315.472 L135.304,309.488 C135.304,309.328 135.4,309.248 135.592,309.248 L135.592,309.248 L135.592,308.96 L133.64,308.96 L133.64,309.248 C133.853333,309.248 133.96,309.328 133.96,309.488 L133.96,309.488 L133.96,313.824 L130.12,309.76 C129.885333,309.525333 129.768,309.381333 129.768,309.328 C129.768,309.285333 129.805333,309.258667 129.88,309.248 L129.88,309.248 L129.88,308.96 L127.528,308.96 L127.528,309.248 C127.72,309.248 127.816,309.328 127.816,309.488 L127.816,309.488 L127.816,315.472 C127.816,315.632 127.72,315.712 127.528,315.712 L127.528,315.712 L127.528,316 L129.496,316 Z M141.96,316 L141.96,315.712 C141.768,315.712 141.672,315.632 141.672,315.472 L141.672,315.472 L141.672,310.144 L143.752,310.144 C143.837333,310.144 143.917333,310.165333 143.992,310.208 C144.066667,310.250667 144.104,310.32 144.104,310.416 L144.104,310.416 L144.392,310.416 L144.392,308.576 L144.104,308.576 C144.104,308.725333 144.066667,308.826667 143.992,308.88 C143.917333,308.933333 143.837333,308.96 143.752,308.96 L143.752,308.96 L138.056,308.96 C137.970667,308.96 137.890667,308.933333 137.816,308.88 C137.741333,308.826667 137.704,308.725333 137.704,308.576 L137.704,308.576 L137.416,308.576 L137.416,310.416 L137.704,310.416 C137.704,310.32 137.741333,310.250667 137.816,310.208 C137.890667,310.165333 137.970667,310.144 138.056,310.144 L138.056,310.144 L140.136,310.144 L140.136,315.472 C140.136,315.557333 140.109333,315.618667 140.056,315.656 C140.002667,315.693333 139.949333,315.712 139.896,315.712 L139.896,315.712 L139.896,316 L141.96,316 Z M154.664,316.048 C155.250667,316.048 155.802667,315.981333 156.32,315.848 C156.837333,315.714667 157.288,315.498667 157.672,315.2 C158.056,314.901333 158.36,314.525333 158.584,314.072 C158.808,313.618667 158.92,313.088 158.92,312.48 C158.92,311.872 158.808,311.341333 158.584,310.888 C158.36,310.434667 158.056,310.058667 157.672,309.76 C157.288,309.461333 156.837333,309.237333 156.32,309.088 C155.802667,308.938667 155.250667,308.864 154.664,308.864 C154.077333,308.864 153.525333,308.938667 153.008,309.088 C152.490667,309.237333 152.04,309.461333 151.656,309.76 C151.272,310.058667 150.968,310.434667 150.744,310.888 C150.52,311.341333 150.408,311.872 150.408,312.48 C150.408,313.088 150.52,313.618667 150.744,314.072 C150.968,314.525333 151.272,314.901333 151.656,315.2 C152.04,315.498667 152.490667,315.714667 153.008,315.848 C153.525333,315.981333 154.077333,316.048 154.664,316.048 Z M154.664,314.912 C154.322667,314.912 153.989333,314.856 153.664,314.744 C153.338667,314.632 153.048,314.472 152.792,314.264 C152.536,314.056 152.330667,313.802667 152.176,313.504 C152.021333,313.205333 151.944,312.864 151.944,312.48 C151.944,312.096 152.021333,311.754667 152.176,311.456 C152.330667,311.157333 152.536,310.904 152.792,310.696 C153.048,310.488 153.338667,310.328 153.664,310.216 C153.989333,310.104 154.322667,310.048 154.664,310.048 C155.005333,310.048 155.338667,310.104 155.664,310.216 C155.989333,310.328 156.28,310.488 156.536,310.696 C156.792,310.904 156.997333,311.157333 157.152,311.456 C157.306667,311.754667 157.384,312.096 157.384,312.48 C157.384,312.864 157.306667,313.205333 157.152,313.504 C156.997333,313.802667 156.792,314.056 156.536,314.264 C156.28,314.472 155.989333,314.632 155.664,314.744 C155.338667,314.856 155.005333,314.912 154.664,314.912 Z M163,316 L163,315.712 C162.904,315.712 162.818667,315.693333 162.744,315.656 C162.669333,315.618667 162.632,315.557333 162.632,315.472 L162.632,315.472 L162.632,313.024 L165.448,313.024 C165.629333,313.024 165.741333,313.045333 165.784,313.088 C165.826667,313.130667 165.853333,313.194667 165.864,313.28 L165.864,313.28 L166.152,313.28 L166.152,311.6 L165.864,311.6 C165.853333,311.685333 165.826667,311.746667 165.784,311.784 C165.741333,311.821333 165.629333,311.84 165.448,311.84 L165.448,311.84 L162.632,311.84 L162.632,310.144 L166.968,310.144 C167.149333,310.144 167.277333,310.168 167.352,310.216 C167.426667,310.264 167.464,310.314667 167.464,310.368 L167.464,310.368 L167.752,310.368 L167.752,308.672 L167.464,308.672 C167.464,308.757333 167.426667,308.826667 167.352,308.88 C167.277333,308.933333 167.149333,308.96 166.968,308.96 L166.968,308.96 L160.76,308.96 L160.76,309.248 C160.984,309.248 161.096,309.328 161.096,309.488 L161.096,309.488 L161.096,315.472 C161.096,315.632 160.994667,315.712 160.792,315.712 L160.792,315.712 L160.792,316 L163,316 Z M178.856,316 L178.856,315.712 C178.653333,315.712 178.552,315.632 178.552,315.472 L178.552,315.472 L178.552,313.072 L181,309.904 C181.117333,309.754667 181.253333,309.608 181.408,309.464 C181.562667,309.32 181.704,309.248 181.832,309.248 L181.832,309.248 L181.832,308.96 L179.384,308.96 L179.384,309.248 C179.437333,309.248 179.490667,309.258667 179.544,309.28 C179.597333,309.301333 179.624,309.354667 179.624,309.44 C179.624,309.504 179.6,309.570667 179.552,309.64 C179.504,309.709333 179.432,309.813333 179.336,309.952 L179.336,309.952 L177.912,311.936 L176.296,309.824 C176.242667,309.749333 176.194667,309.685333 176.152,309.632 C176.109333,309.578667 176.088,309.52 176.088,309.456 C176.088,309.392 176.12,309.341333 176.184,309.304 C176.248,309.266667 176.306667,309.248 176.36,309.248 L176.36,309.248 L176.36,308.96 L173.72,308.96 L173.72,309.248 C173.816,309.248 173.917333,309.269333 174.024,309.312 C174.130667,309.354667 174.221333,309.424 174.296,309.52 L174.296,309.52 L177.016,313.008 L177.016,315.472 C177.016,315.632 176.92,315.712 176.728,315.712 L176.728,315.712 L176.728,316 L178.856,316 Z M187.112,316.048 C187.698667,316.048 188.250667,315.981333 188.768,315.848 C189.285333,315.714667 189.736,315.498667 190.12,315.2 C190.504,314.901333 190.808,314.525333 191.032,314.072 C191.256,313.618667 191.368,313.088 191.368,312.48 C191.368,311.872 191.256,311.341333 191.032,310.888 C190.808,310.434667 190.504,310.058667 190.12,309.76 C189.736,309.461333 189.285333,309.237333 188.768,309.088 C188.250667,308.938667 187.698667,308.864 187.112,308.864 C186.525333,308.864 185.973333,308.938667 185.456,309.088 C184.938667,309.237333 184.488,309.461333 184.104,309.76 C183.72,310.058667 183.416,310.434667 183.192,310.888 C182.968,311.341333 182.856,311.872 182.856,312.48 C182.856,313.088 182.968,313.618667 183.192,314.072 C183.416,314.525333 183.72,314.901333 184.104,315.2 C184.488,315.498667 184.938667,315.714667 185.456,315.848 C185.973333,315.981333 186.525333,316.048 187.112,316.048 Z M187.112,314.912 C186.770667,314.912 186.437333,314.856 186.112,314.744 C185.786667,314.632 185.496,314.472 185.24,314.264 C184.984,314.056 184.778667,313.802667 184.624,313.504 C184.469333,313.205333 184.392,312.864 184.392,312.48 C184.392,312.096 184.469333,311.754667 184.624,311.456 C184.778667,311.157333 184.984,310.904 185.24,310.696 C185.496,310.488 185.786667,310.328 186.112,310.216 C186.437333,310.104 186.770667,310.048 187.112,310.048 C187.453333,310.048 187.786667,310.104 188.112,310.216 C188.437333,310.328 188.728,310.488 188.984,310.696 C189.24,310.904 189.445333,311.157333 189.6,311.456 C189.754667,311.754667 189.832,312.096 189.832,312.48 C189.832,312.864 189.754667,313.205333 189.6,313.504 C189.445333,313.802667 189.24,314.056 188.984,314.264 C188.728,314.472 188.437333,314.632 188.112,314.744 C187.786667,314.856 187.453333,314.912 187.112,314.912 Z M197.4,316.048 C198.04,316.048 198.597333,315.981333 199.072,315.848 C199.546667,315.714667 199.936,315.530667 200.24,315.296 C200.544,315.061333 200.770667,314.792 200.92,314.488 C201.069333,314.184 201.144,313.866667 201.144,313.536 L201.144,313.536 L201.144,309.488 C201.144,309.328 201.261333,309.248 201.496,309.248 L201.496,309.248 L201.496,308.96 L199.272,308.96 L199.272,309.248 C199.538667,309.248 199.672,309.328 199.672,309.488 L199.672,309.488 L199.672,313.152 C199.672,313.664 199.485333,314.074667 199.112,314.384 C198.738667,314.693333 198.168,314.848 197.4,314.848 C196.632,314.848 196.061333,314.693333 195.688,314.384 C195.314667,314.074667 195.128,313.664 195.128,313.152 L195.128,313.152 L195.128,309.488 C195.128,309.328 195.245333,309.248 195.48,309.248 L195.48,309.248 L195.48,308.96 L193.192,308.96 L193.192,309.248 C193.373333,309.248 193.496,309.266667 193.56,309.304 C193.624,309.341333 193.656,309.402667 193.656,309.488 L193.656,309.488 L193.656,313.536 C193.656,313.866667 193.730667,314.184 193.88,314.488 C194.029333,314.792 194.256,315.061333 194.56,315.296 C194.864,315.530667 195.253333,315.714667 195.728,315.848 C196.202667,315.981333 196.76,316.048 197.4,316.048 Z M212.616,316 L212.616,315.712 C212.424,315.712 212.328,315.632 212.328,315.472 L212.328,315.472 L212.328,310.144 L214.408,310.144 C214.493333,310.144 214.573333,310.165333 214.648,310.208 C214.722667,310.250667 214.76,310.32 214.76,310.416 L214.76,310.416 L215.048,310.416 L215.048,308.576 L214.76,308.576 C214.76,308.725333 214.722667,308.826667 214.648,308.88 C214.573333,308.933333 214.493333,308.96 214.408,308.96 L214.408,308.96 L208.712,308.96 C208.626667,308.96 208.546667,308.933333 208.472,308.88 C208.397333,308.826667 208.36,308.725333 208.36,308.576 L208.36,308.576 L208.072,308.576 L208.072,310.416 L208.36,310.416 C208.36,310.32 208.397333,310.250667 208.472,310.208 C208.546667,310.165333 208.626667,310.144 208.712,310.144 L208.712,310.144 L210.792,310.144 L210.792,315.472 C210.792,315.557333 210.765333,315.618667 210.712,315.656 C210.658667,315.693333 210.605333,315.712 210.552,315.712 L210.552,315.712 L210.552,316 L212.616,316 Z M220.44,316.048 C221.026667,316.048 221.578667,315.981333 222.096,315.848 C222.613333,315.714667 223.064,315.498667 223.448,315.2 C223.832,314.901333 224.136,314.525333 224.36,314.072 C224.584,313.618667 224.696,313.088 224.696,312.48 C224.696,311.872 224.584,311.341333 224.36,310.888 C224.136,310.434667 223.832,310.058667 223.448,309.76 C223.064,309.461333 222.613333,309.237333 222.096,309.088 C221.578667,308.938667 221.026667,308.864 220.44,308.864 C219.853333,308.864 219.301333,308.938667 218.784,309.088 C218.266667,309.237333 217.816,309.461333 217.432,309.76 C217.048,310.058667 216.744,310.434667 216.52,310.888 C216.296,311.341333 216.184,311.872 216.184,312.48 C216.184,313.088 216.296,313.618667 216.52,314.072 C216.744,314.525333 217.048,314.901333 217.432,315.2 C217.816,315.498667 218.266667,315.714667 218.784,315.848 C219.301333,315.981333 219.853333,316.048 220.44,316.048 Z M220.44,314.912 C220.098667,314.912 219.765333,314.856 219.44,314.744 C219.114667,314.632 218.824,314.472 218.568,314.264 C218.312,314.056 218.106667,313.802667 217.952,313.504 C217.797333,313.205333 217.72,312.864 217.72,312.48 C217.72,312.096 217.797333,311.754667 217.952,311.456 C218.106667,311.157333 218.312,310.904 218.568,310.696 C218.824,310.488 219.114667,310.328 219.44,310.216 C219.765333,310.104 220.098667,310.048 220.44,310.048 C220.781333,310.048 221.114667,310.104 221.44,310.216 C221.765333,310.328 222.056,310.488 222.312,310.696 C222.568,310.904 222.773333,311.157333 222.928,311.456 C223.082667,311.754667 223.16,312.096 223.16,312.48 C223.16,312.864 223.082667,313.205333 222.928,313.504 C222.773333,313.802667 222.568,314.056 222.312,314.264 C222.056,314.472 221.765333,314.632 221.44,314.744 C221.114667,314.856 220.781333,314.912 220.44,314.912 Z M71.392,332.048 C71.872,332.048 72.3066667,332.005333 72.696,331.92 C73.0853333,331.834667 73.4266667,331.730667 73.72,331.608 C74.0133333,331.485333 74.256,331.376 74.448,331.28 C74.64,331.184 74.7786667,331.136 74.864,331.136 C74.9173333,331.136 75.008,331.162667 75.136,331.216 L75.136,331.216 L75.296,331.136 L74.112,329.44 L73.936,329.6 C73.9466667,329.642667 73.952,329.696 73.952,329.76 L73.952,329.76 L73.952,329.888 C73.952,329.984 73.8746667,330.090667 73.72,330.208 C73.5653333,330.325333 73.3653333,330.434667 73.12,330.536 C72.8746667,330.637333 72.6026667,330.725333 72.304,330.8 C72.0053333,330.874667 71.712,330.912 71.424,330.912 C71.1146667,330.912 70.8106667,330.856 70.512,330.744 C70.2133333,330.632 69.9466667,330.466667 69.712,330.248 C69.4773333,330.029333 69.288,329.768 69.144,329.464 C69,329.16 68.928,328.816 68.928,328.432 C68.928,328.048 68.992,327.706667 69.12,327.408 C69.248,327.109333 69.4293333,326.858667 69.664,326.656 C69.8986667,326.453333 70.1733333,326.301333 70.488,326.2 C70.8026667,326.098667 71.152,326.048 71.536,326.048 C71.856,326.048 72.1493333,326.077333 72.416,326.136 C72.6826667,326.194667 72.9146667,326.266667 73.112,326.352 C73.3093333,326.437333 73.4613333,326.525333 73.568,326.616 C73.6746667,326.706667 73.728,326.778667 73.728,326.832 C73.728,326.864 73.7306667,326.890667 73.736,326.912 C73.7413333,326.933333 73.744,326.954667 73.744,326.976 L73.744,326.976 L73.92,327.104 L74.976,325.584 L74.784,325.472 C74.7413333,325.493333 74.7013333,325.52 74.664,325.552 C74.6266667,325.584 74.5813333,325.6 74.528,325.6 C74.4533333,325.6 74.3306667,325.562667 74.16,325.488 C73.9893333,325.413333 73.776,325.328 73.52,325.232 C73.264,325.136 72.968,325.050667 72.632,324.976 C72.296,324.901333 71.9253333,324.864 71.52,324.864 C70.9973333,324.864 70.488,324.938667 69.992,325.088 C69.496,325.237333 69.056,325.464 68.672,325.768 C68.288,326.072 67.9786667,326.448 67.744,326.896 C67.5093333,327.344 67.392,327.866667 67.392,328.464 C67.392,329.061333 67.5093333,329.586667 67.744,330.04 C67.9786667,330.493333 68.2826667,330.872 68.656,331.176 C69.0293333,331.48 69.456,331.701333 69.936,331.84 C70.416,331.978667 70.9013333,332.048 71.392,332.048 Z M81.168,332.048 C81.808,332.048 82.3653333,331.981333 82.84,331.848 C83.3146667,331.714667 83.704,331.530667 84.008,331.296 C84.312,331.061333 84.5386667,330.792 84.688,330.488 C84.8373333,330.184 84.912,329.866667 84.912,329.536 L84.912,329.536 L84.912,325.488 C84.912,325.328 85.0293333,325.248 85.264,325.248 L85.264,325.248 L85.264,324.96 L83.04,324.96 L83.04,325.248 C83.3066667,325.248 83.44,325.328 83.44,325.488 L83.44,325.488 L83.44,329.152 C83.44,329.664 83.2533333,330.074667 82.88,330.384 C82.5066667,330.693333 81.936,330.848 81.168,330.848 C80.4,330.848 79.8293333,330.693333 79.456,330.384 C79.0826667,330.074667 78.896,329.664 78.896,329.152 L78.896,329.152 L78.896,325.488 C78.896,325.328 79.0133333,325.248 79.248,325.248 L79.248,325.248 L79.248,324.96 L76.96,324.96 L76.96,325.248 C77.1413333,325.248 77.264,325.266667 77.328,325.304 C77.392,325.341333 77.424,325.402667 77.424,325.488 L77.424,325.488 L77.424,329.536 C77.424,329.866667 77.4986667,330.184 77.648,330.488 C77.7973333,330.792 78.024,331.061333 78.328,331.296 C78.632,331.530667 79.0213333,331.714667 79.496,331.848 C79.9706667,331.981333 80.528,332.048 81.168,332.048 Z M89.824,332 L89.824,331.712 C89.76,331.712 89.6933333,331.693333 89.624,331.656 C89.5546667,331.618667 89.52,331.557333 89.52,331.472 L89.52,331.472 L89.52,329.184 L91.744,329.184 L93.008,331.072 C93.168,331.296 93.248,331.461333 93.248,331.568 C93.248,331.664 93.1786667,331.712 93.04,331.712 L93.04,331.712 L93.04,332 L95.488,332 L95.488,331.712 C95.3706667,331.68 95.2613333,331.634667 95.16,331.576 C95.0586667,331.517333 94.9653333,331.429333 94.88,331.312 L94.88,331.312 L93.312,329.024 C93.536,328.970667 93.7546667,328.893333 93.968,328.792 C94.1813333,328.690667 94.376,328.557333 94.552,328.392 C94.728,328.226667 94.8693333,328.032 94.976,327.808 C95.0826667,327.584 95.136,327.328 95.136,327.04 C95.136,326.282667 94.8693333,325.746667 94.336,325.432 C93.8026667,325.117333 93.0613333,324.96 92.112,324.96 L92.112,324.96 L87.696,324.96 L87.696,325.248 C87.888,325.248 87.984,325.328 87.984,325.488 L87.984,325.488 L87.984,331.472 C87.984,331.632 87.888,331.712 87.696,331.712 L87.696,331.712 L87.696,332 L89.824,332 Z M92.08,328 L89.552,328 L89.552,326.144 L92.08,326.144 C92.624,326.144 93.0213333,326.221333 93.272,326.376 C93.5226667,326.530667 93.648,326.741333 93.648,327.008 C93.648,327.669333 93.1253333,328 92.08,328 L92.08,328 Z M104.144,332.176 L104.144,330.496 L103.856,330.496 C103.856,330.592 103.813333,330.669333 103.728,330.728 C103.642667,330.786667 103.536,330.816 103.408,330.816 L103.408,330.816 L99.312,330.816 L99.312,328.928 L101.648,328.928 C101.861333,328.928 102.026667,328.941333 102.144,328.968 C102.261333,328.994667 102.304,329.066667 102.272,329.184 L102.272,329.184 L102.592,329.184 L102.592,327.488 L102.304,327.488 C102.304,327.605333 102.261333,327.677333 102.176,327.704 C102.090667,327.730667 101.957333,327.744 101.776,327.744 L101.776,327.744 L99.312,327.744 L99.312,326.144 L103.216,326.144 C103.546667,326.144 103.712,326.245333 103.712,326.448 L103.712,326.448 L104,326.448 L104,324.672 L103.712,324.672 C103.712,324.864 103.546667,324.96 103.216,324.96 L103.216,324.96 L97.536,324.96 L97.536,325.248 C97.5893333,325.248 97.6426667,325.266667 97.696,325.304 C97.7493333,325.341333 97.776,325.402667 97.776,325.488 L97.776,325.488 L97.776,331.472 C97.776,331.557333 97.7493333,331.618667 97.696,331.656 C97.6426667,331.693333 97.5893333,331.712 97.536,331.712 L97.536,331.712 L97.536,332 L103.408,332 C103.536,332 103.642667,332.005333 103.728,332.016 C103.813333,332.026667 103.856,332.08 103.856,332.176 L103.856,332.176 L104.144,332.176 Z M115.168,332.048 C115.605333,332.048 116.077333,332.013333 116.584,331.944 C117.090667,331.874667 117.562667,331.738667 118,331.536 C118.437333,331.333333 118.802667,331.056 119.096,330.704 C119.389333,330.352 119.536,329.898667 119.536,329.344 C119.536,328.864 119.442667,328.474667 119.256,328.176 C119.069333,327.877333 118.824,327.64 118.52,327.464 C118.216,327.288 117.869333,327.16 117.48,327.08 C117.090667,327 116.693333,326.944 116.288,326.912 C115.882667,326.88 115.485333,326.853333 115.096,326.832 C114.706667,326.810667 114.36,326.768 114.056,326.704 C113.752,326.64 113.506667,326.544 113.32,326.416 C113.133333,326.288 113.04,326.096 113.04,325.84 C113.04,325.658667 113.106667,325.506667 113.24,325.384 C113.373333,325.261333 113.541333,325.162667 113.744,325.088 C113.946667,325.013333 114.173333,324.957333 114.424,324.92 C114.674667,324.882667 114.917333,324.864 115.152,324.864 C115.461333,324.864 115.770667,324.893333 116.08,324.952 C116.389333,325.010667 116.677333,325.088 116.944,325.184 C117.210667,325.28 117.442667,325.389333 117.64,325.512 C117.837333,325.634667 117.978667,325.76 118.064,325.888 C118.128,325.984 118.170667,326.106667 118.192,326.256 L118.192,326.256 L118.352,326.32 L119.456,324.32 L119.264,324.192 C119.2,324.256 119.093333,324.288 118.944,324.288 C118.805333,324.288 118.632,324.245333 118.424,324.16 C118.216,324.074667 117.96,323.984 117.656,323.888 C117.352,323.792 116.992,323.701333 116.576,323.616 C116.16,323.530667 115.669333,323.488 115.104,323.488 C114.442667,323.488 113.866667,323.565333 113.376,323.72 C112.885333,323.874667 112.48,324.074667 112.16,324.32 C111.84,324.565333 111.602667,324.848 111.448,325.168 C111.293333,325.488 111.216,325.813333 111.216,326.144 C111.216,326.634667 111.309333,327.032 111.496,327.336 C111.682667,327.64 111.928,327.88 112.232,328.056 C112.536,328.232 112.882667,328.357333 113.272,328.432 C113.661333,328.506667 114.058667,328.56 114.464,328.592 C114.869333,328.624 115.266667,328.648 115.656,328.664 C116.045333,328.68 116.392,328.714667 116.696,328.768 C117,328.821333 117.245333,328.906667 117.432,329.024 C117.618667,329.141333 117.712,329.322667 117.712,329.568 C117.712,329.813333 117.610667,330.010667 117.408,330.16 C117.205333,330.309333 116.965333,330.426667 116.688,330.512 C116.410667,330.597333 116.128,330.653333 115.84,330.68 C115.552,330.706667 115.317333,330.72 115.136,330.72 C114.890667,330.72 114.613333,330.690667 114.304,330.632 C113.994667,330.573333 113.698667,330.496 113.416,330.4 C113.133333,330.304 112.882667,330.194667 112.664,330.072 C112.445333,329.949333 112.298667,329.824 112.224,329.696 C112.181333,329.621333 112.16,329.536 112.16,329.44 L112.16,329.44 L112,329.36 L111.12,331.296 L111.344,331.424 C111.408,331.338667 111.477333,331.296 111.552,331.296 C111.669333,331.296 111.808,331.336 111.968,331.416 C112.128,331.496 112.344,331.586667 112.616,331.688 C112.888,331.789333 113.229333,331.874667 113.64,331.944 C114.050667,332.013333 114.56,332.048 115.168,332.048 Z M126.192,332 L126.192,331.712 C125.989333,331.712 125.888,331.632 125.888,331.472 L125.888,331.472 L125.888,329.072 L128.336,325.904 C128.453333,325.754667 128.589333,325.608 128.744,325.464 C128.898667,325.32 129.04,325.248 129.168,325.248 L129.168,325.248 L129.168,324.96 L126.72,324.96 L126.72,325.248 C126.773333,325.248 126.826667,325.258667 126.88,325.28 C126.933333,325.301333 126.96,325.354667 126.96,325.44 C126.96,325.504 126.936,325.570667 126.888,325.64 C126.84,325.709333 126.768,325.813333 126.672,325.952 L126.672,325.952 L125.248,327.936 L123.632,325.824 C123.578667,325.749333 123.530667,325.685333 123.488,325.632 C123.445333,325.578667 123.424,325.52 123.424,325.456 C123.424,325.392 123.456,325.341333 123.52,325.304 C123.584,325.266667 123.642667,325.248 123.696,325.248 L123.696,325.248 L123.696,324.96 L121.056,324.96 L121.056,325.248 C121.152,325.248 121.253333,325.269333 121.36,325.312 C121.466667,325.354667 121.557333,325.424 121.632,325.52 L121.632,325.52 L124.352,329.008 L124.352,331.472 C124.352,331.632 124.256,331.712 124.064,331.712 L124.064,331.712 L124.064,332 L126.192,332 Z M132.864,332 L132.864,331.712 C132.682667,331.712 132.592,331.632 132.592,331.472 L132.592,331.472 L132.592,326.976 L132.608,326.976 L135.184,332 L135.312,332 L138.032,326.976 L138.064,326.976 L138.064,331.472 C138.096,331.632 138,331.712 137.776,331.712 L137.776,331.712 L137.776,332 L139.632,332 L139.632,331.712 C139.578667,331.712 139.528,331.693333 139.48,331.656 C139.432,331.618667 139.408,331.557333 139.408,331.472 L139.408,331.472 L139.408,325.456 C139.408,325.370667 139.432,325.314667 139.48,325.288 C139.528,325.261333 139.578667,325.248 139.632,325.248 L139.632,325.248 L139.632,324.96 L137.376,324.96 L137.376,325.248 C137.461333,325.248 137.504,325.296 137.504,325.392 C137.504,325.424 137.482667,325.48 137.44,325.56 C137.397333,325.64 137.338667,325.744 137.264,325.872 L137.264,325.872 L135.296,329.456 L133.344,325.856 C133.269333,325.728 133.213333,325.629333 133.176,325.56 C133.138667,325.490667 133.12,325.434667 133.12,325.392 C133.12,325.296 133.173333,325.248 133.28,325.248 L133.28,325.248 L133.28,324.96 L131.056,324.96 L131.056,325.248 C131.130667,325.248 131.181333,325.264 131.208,325.296 C131.234667,325.328 131.248,325.418667 131.248,325.568 L131.248,325.568 L131.248,331.424 C131.248,331.541333 131.229333,331.616 131.192,331.648 C131.154667,331.68 131.109333,331.701333 131.056,331.712 L131.056,331.712 L131.056,332 L132.864,332 Z M144.464,332 L144.464,331.712 C144.24,331.712 144.128,331.632 144.128,331.472 L144.128,331.472 L144.128,329.072 L146.848,329.072 C147.712,329.072 148.36,328.925333 148.792,328.632 C149.224,328.338667 149.44,327.808 149.44,327.04 C149.44,326.272 149.224,325.733333 148.792,325.424 C148.36,325.114667 147.712,324.96 146.848,324.96 L146.848,324.96 L142.192,324.96 L142.192,325.248 C142.458667,325.248 142.592,325.328 142.592,325.488 L142.592,325.488 L142.592,331.472 C142.592,331.632 142.458667,331.712 142.192,331.712 L142.192,331.712 L142.192,332 L144.464,332 Z M146.816,327.888 L144.128,327.888 L144.128,326.144 L146.816,326.144 C147.125333,326.144 147.384,326.210667 147.592,326.344 C147.8,326.477333 147.904,326.709333 147.904,327.04 C147.904,327.381333 147.8,327.608 147.592,327.72 C147.384,327.832 147.125333,327.888 146.816,327.888 L146.816,327.888 Z M155.072,332 L155.072,331.712 C154.88,331.712 154.784,331.632 154.784,331.472 L154.784,331.472 L154.784,326.144 L156.864,326.144 C156.949333,326.144 157.029333,326.165333 157.104,326.208 C157.178667,326.250667 157.216,326.32 157.216,326.416 L157.216,326.416 L157.504,326.416 L157.504,324.576 L157.216,324.576 C157.216,324.725333 157.178667,324.826667 157.104,324.88 C157.029333,324.933333 156.949333,324.96 156.864,324.96 L156.864,324.96 L151.168,324.96 C151.082667,324.96 151.002667,324.933333 150.928,324.88 C150.853333,324.826667 150.816,324.725333 150.816,324.576 L150.816,324.576 L150.528,324.576 L150.528,326.416 L150.816,326.416 C150.816,326.32 150.853333,326.250667 150.928,326.208 C151.002667,326.165333 151.082667,326.144 151.168,326.144 L151.168,326.144 L153.248,326.144 L153.248,331.472 C153.248,331.557333 153.221333,331.618667 153.168,331.656 C153.114667,331.693333 153.061333,331.712 153.008,331.712 L153.008,331.712 L153.008,332 L155.072,332 Z M162.896,332.048 C163.482667,332.048 164.034667,331.981333 164.552,331.848 C165.069333,331.714667 165.52,331.498667 165.904,331.2 C166.288,330.901333 166.592,330.525333 166.816,330.072 C167.04,329.618667 167.152,329.088 167.152,328.48 C167.152,327.872 167.04,327.341333 166.816,326.888 C166.592,326.434667 166.288,326.058667 165.904,325.76 C165.52,325.461333 165.069333,325.237333 164.552,325.088 C164.034667,324.938667 163.482667,324.864 162.896,324.864 C162.309333,324.864 161.757333,324.938667 161.24,325.088 C160.722667,325.237333 160.272,325.461333 159.888,325.76 C159.504,326.058667 159.2,326.434667 158.976,326.888 C158.752,327.341333 158.64,327.872 158.64,328.48 C158.64,329.088 158.752,329.618667 158.976,330.072 C159.2,330.525333 159.504,330.901333 159.888,331.2 C160.272,331.498667 160.722667,331.714667 161.24,331.848 C161.757333,331.981333 162.309333,332.048 162.896,332.048 Z M162.896,330.912 C162.554667,330.912 162.221333,330.856 161.896,330.744 C161.570667,330.632 161.28,330.472 161.024,330.264 C160.768,330.056 160.562667,329.802667 160.408,329.504 C160.253333,329.205333 160.176,328.864 160.176,328.48 C160.176,328.096 160.253333,327.754667 160.408,327.456 C160.562667,327.157333 160.768,326.904 161.024,326.696 C161.28,326.488 161.570667,326.328 161.896,326.216 C162.221333,326.104 162.554667,326.048 162.896,326.048 C163.237333,326.048 163.570667,326.104 163.896,326.216 C164.221333,326.328 164.512,326.488 164.768,326.696 C165.024,326.904 165.229333,327.157333 165.384,327.456 C165.538667,327.754667 165.616,328.096 165.616,328.48 C165.616,328.864 165.538667,329.205333 165.384,329.504 C165.229333,329.802667 165.024,330.056 164.768,330.264 C164.512,330.472 164.221333,330.632 163.896,330.744 C163.570667,330.856 163.237333,330.912 162.896,330.912 Z M171.088,332 L171.088,331.712 C170.906667,331.712 170.816,331.632 170.816,331.472 L170.816,331.472 L170.816,326.976 L170.832,326.976 L173.408,332 L173.536,332 L176.256,326.976 L176.288,326.976 L176.288,331.472 C176.32,331.632 176.224,331.712 176,331.712 L176,331.712 L176,332 L177.856,332 L177.856,331.712 C177.802667,331.712 177.752,331.693333 177.704,331.656 C177.656,331.618667 177.632,331.557333 177.632,331.472 L177.632,331.472 L177.632,325.456 C177.632,325.370667 177.656,325.314667 177.704,325.288 C177.752,325.261333 177.802667,325.248 177.856,325.248 L177.856,325.248 L177.856,324.96 L175.6,324.96 L175.6,325.248 C175.685333,325.248 175.728,325.296 175.728,325.392 C175.728,325.424 175.706667,325.48 175.664,325.56 C175.621333,325.64 175.562667,325.744 175.488,325.872 L175.488,325.872 L173.52,329.456 L171.568,325.856 C171.493333,325.728 171.437333,325.629333 171.4,325.56 C171.362667,325.490667 171.344,325.434667 171.344,325.392 C171.344,325.296 171.397333,325.248 171.504,325.248 L171.504,325.248 L171.504,324.96 L169.28,324.96 L169.28,325.248 C169.354667,325.248 169.405333,325.264 169.432,325.296 C169.458667,325.328 169.472,325.418667 169.472,325.568 L169.472,325.568 L169.472,331.424 C169.472,331.541333 169.453333,331.616 169.416,331.648 C169.378667,331.68 169.333333,331.701333 169.28,331.712 L169.28,331.712 L169.28,332 L171.088,332 Z M183.664,332.048 C184.026667,332.048 184.413333,332.021333 184.824,331.968 C185.234667,331.914667 185.610667,331.802667 185.952,331.632 C186.293333,331.461333 186.578667,331.226667 186.808,330.928 C187.037333,330.629333 187.152,330.245333 187.152,329.776 C187.152,329.306667 187.021333,328.938667 186.76,328.672 C186.498667,328.405333 186.170667,328.202667 185.776,328.064 C185.381333,327.925333 184.954667,327.826667 184.496,327.768 C184.037333,327.709333 183.610667,327.650667 183.216,327.592 C182.821333,327.533333 182.493333,327.453333 182.232,327.352 C181.970667,327.250667 181.84,327.082667 181.84,326.848 C181.84,326.698667 181.882667,326.573333 181.968,326.472 C182.053333,326.370667 182.170667,326.288 182.32,326.224 C182.469333,326.16 182.64,326.114667 182.832,326.088 C183.024,326.061333 183.226667,326.048 183.44,326.048 C183.994667,326.048 184.496,326.112 184.944,326.24 C185.392,326.368 185.722667,326.522667 185.936,326.704 C186.021333,326.768 186.069333,326.832 186.08,326.896 C186.090667,326.96 186.101333,327.024 186.112,327.088 L186.112,327.088 L186.4,327.184 L187.2,325.68 L187.024,325.504 C186.96,325.536 186.906667,325.565333 186.864,325.592 C186.821333,325.618667 186.757333,325.632 186.672,325.632 C186.597333,325.632 186.482667,325.592 186.328,325.512 C186.173333,325.432 185.973333,325.344 185.728,325.248 C185.482667,325.152 185.181333,325.064 184.824,324.984 C184.466667,324.904 184.037333,324.864 183.536,324.864 C182.512,324.864 181.717333,325.066667 181.152,325.472 C180.586667,325.877333 180.304,326.421333 180.304,327.104 C180.304,327.562667 180.434667,327.917333 180.696,328.168 C180.957333,328.418667 181.285333,328.610667 181.68,328.744 C182.074667,328.877333 182.501333,328.973333 182.96,329.032 C183.418667,329.090667 183.845333,329.149333 184.24,329.208 C184.634667,329.266667 184.962667,329.349333 185.224,329.456 C185.485333,329.562667 185.616,329.733333 185.616,329.968 C185.616,330.170667 185.541333,330.333333 185.392,330.456 C185.242667,330.578667 185.061333,330.674667 184.848,330.744 C184.634667,330.813333 184.418667,330.858667 184.2,330.88 C183.981333,330.901333 183.797333,330.912 183.648,330.912 C183.488,330.912 183.266667,330.885333 182.984,330.832 C182.701333,330.778667 182.418667,330.706667 182.136,330.616 C181.853333,330.525333 181.610667,330.413333 181.408,330.28 C181.205333,330.146667 181.104,330 181.104,329.84 C181.104,329.786667 181.106667,329.736 181.112,329.688 C181.117333,329.64 181.12,329.594667 181.12,329.552 L181.12,329.552 L180.816,329.472 L180.08,331.264 L180.304,331.424 C180.357333,331.36 180.421333,331.328 180.496,331.328 C180.538667,331.328 180.661333,331.368 180.864,331.448 C181.066667,331.528 181.314667,331.613333 181.608,331.704 C181.901333,331.794667 182.226667,331.874667 182.584,331.944 C182.941333,332.013333 183.301333,332.048 183.664,332.048 Z M190.672,332.048 C190.981333,332.048 191.248,331.944 191.472,331.736 C191.696,331.528 191.808,331.269333 191.808,330.96 C191.808,330.650667 191.696,330.384 191.472,330.16 C191.248,329.936 190.981333,329.824 190.672,329.824 C190.362667,329.824 190.096,329.936 189.872,330.16 C189.648,330.384 189.536,330.650667 189.536,330.96 C189.536,331.269333 189.648,331.528 189.872,331.736 C190.096,331.944 190.362667,332.048 190.672,332.048 Z" id="ChocolateisBAE.Chocolateislife.KeepinfrontofyoutocureSymptoms." fill="#000000" fill-rule="nonzero"></path>
    </g>
</svg>