<?xml version="1.0" encoding="UTF-8"?>
<svg width="262px" height="360px" viewBox="0 0 262 360" version="1.1" xmlns="http://www.w3.org/2000/svg" xmlns:xlink="http://www.w3.org/1999/xlink">
    <title>Aches &amp; Pains 2</title>
    <g id="Aches-&amp;-Pains-2" stroke="none" stroke-width="1" fill="none" fill-rule="evenodd">
        <g id="Group" transform="translate(9.000000, 9.000000)" fill="#FFFFFF" stroke="#000000" stroke-width="3">
            <g id="Rectangle">
                <rect x="1.5" y="1.5" width="239" height="337" rx="8"></rect>
            </g>
        </g>
        <path d="M216.124,30 L216.124,29.712 C215.964,29.712 215.82,29.668 215.692,29.58 C215.564,29.492 215.5,29.312 215.5,29.04 L215.5,29.04 L215.5,18.048 C215.5,17.888 215.564,17.768 215.692,17.688 C215.82,17.608 215.98,17.552 216.172,17.52 L216.172,17.52 L216.172,17.232 L212.284,17.232 L212.284,17.52 C212.46,17.552 212.6,17.6 212.704,17.664 C212.808,17.728 212.86,17.872 212.86,18.096 C212.86,18.336 212.768,18.54 212.584,18.708 C212.4,18.876 212.172,18.96 211.9,18.96 C211.772,18.96 211.636,18.932 211.492,18.876 C211.348,18.82 211.276,18.72 211.276,18.576 L211.276,18.576 L210.988,18.576 L210.988,21.6 L211.276,21.6 C211.324,21.472 211.408,21.372 211.528,21.3 C211.648,21.228 211.78,21.172 211.924,21.132 C212.068,21.092 212.216,21.064 212.368,21.048 C212.52,21.032 212.652,21.024 212.764,21.024 L212.764,21.024 L212.764,29.04 C212.764,29.312 212.704,29.492 212.584,29.58 C212.464,29.668 212.324,29.712 212.164,29.712 L212.164,29.712 L212.164,30 L216.124,30 Z" id="1" fill="#000000" fill-rule="nonzero"></path>
        <g id="Face" transform="translate(225.000000, 15.000000)">
            <circle id="Oval" stroke="#000000" fill="#FFFFFF" cx="9.5" cy="9.5" r="9"></circle>
            <circle id="Oval" fill="#000000" cx="5" cy="8" r="1"></circle>
            <circle id="Oval-Copy" fill="#000000" cx="12" cy="8" r="1"></circle>
            <line x1="12.0789474" y1="13.9090909" x2="14.5" y2="11.5" id="Line-4" stroke="#000000" stroke-linecap="round"></line>
            <path d="M3,5.89285714 C3.41025641,5.96428571 3.76923077,6 4.07692308,6 C4.38461538,6 5.35897436,5.33333333 7,4" id="Line-2" stroke="#000000"></path>
            <path d="M6,15 C6.96078431,14.3333333 8.07598039,14 9.34558824,14 C10.6151961,14 11.8333333,14.3333333 13,15" id="Line" stroke="#000000" stroke-linecap="round" stroke-linejoin="round"></path>
            <path d="M11.3197366,4.68245322 C11.585843,4.80663622 11.7912611,4.92388646 11.9359908,5.03420394 C12.548667,5.50120471 13.1333088,5.70898724 13.3155349,5.80010028 C13.5440857,5.91437569 13.8101922,6.00751295 14.1138542,6.07951204" id="Line-3" stroke="#000000" stroke-linecap="square" transform="translate(12.716795, 5.380983) rotate(-3.000000) translate(-12.716795, -5.380983) "></path>
            <path d="M2.999,9.347 L3.01687864,9.39698204 C3.09438102,9.62639002 3.1880913,9.89570266 3.30282211,10.2112791 C3.48139895,10.7024692 3.54804655,11.0169045 3.47980817,11.2204078 C3.41244402,11.421304 3.17143148,11.4011566 3.01518318,11.4416373 L3.01518318,11.4416373 L2.86575433,11.4813457 C2.78836954,11.5029149 2.70310591,11.5126925 2.63007237,11.4810832 C2.58941161,11.463485 2.56030088,11.4264037 2.54036126,11.376794 C2.4446463,11.1386559 2.49784548,10.759559 2.69717789,10.2112791 C2.8119087,9.89570266 2.90561898,9.62639002 2.98312136,9.39698204 L2.999,9.347 Z" id="Oval" stroke="#000000"></path>
            <path d="M16,6.347 L16.0168786,6.39698204 C16.094381,6.62639002 16.1880913,6.89570266 16.3028221,7.21127907 C16.481399,7.70246915 16.5480465,8.01690453 16.4798082,8.22040783 C16.412444,8.42130397 16.1714315,8.40115659 16.0151832,8.44163726 L16.0151832,8.44163726 L15.8657543,8.48134574 C15.7883695,8.50291486 15.7031059,8.51269255 15.6300724,8.48108319 C15.5894116,8.46348497 15.5603009,8.42640366 15.5403613,8.37679403 C15.4446463,8.13865595 15.4978455,7.75955902 15.6971779,7.21127907 C15.8119087,6.89570266 15.905619,6.62639002 15.9831214,6.39698204 L16,6.347 Z" id="Oval-Copy-2" stroke="#000000"></path>
        </g>
        <rect id="Rectangle" stroke="#000000" stroke-width="3" x="17.5" y="257.5" width="225" height="84" rx="8"></rect>
        <path d="M64.346,57 L64.346,56.352 C63.89,56.352 63.662,56.22 63.662,55.956 C63.662,55.74 63.782,55.38 64.022,54.876 L64.022,54.876 L65.318,52.32 L74.102,52.32 L75.47,54.984 C75.662,55.368 75.758,55.68 75.758,55.92 C75.758,56.064 75.686,56.172 75.542,56.244 C75.398,56.316 75.278,56.352 75.182,56.352 L75.182,56.352 L75.182,57 L81.518,57 L81.518,56.352 C81.254,56.232 81.02,56.112 80.816,55.992 C80.612,55.872 80.45,55.68 80.33,55.416 L80.33,55.416 L72.842,40.764 C72.674,40.452 72.548,40.2 72.464,40.008 C72.38,39.816 72.338,39.624 72.338,39.432 C72.338,39.168 72.422,38.994 72.59,38.91 C72.758,38.826 72.926,38.76 73.094,38.712 L73.094,38.712 L73.094,38.064 L67.01,38.064 L67.01,38.712 C67.202,38.76 67.382,38.832 67.55,38.928 C67.718,39.024 67.802,39.192 67.802,39.432 C67.802,39.624 67.736,39.852 67.604,40.116 C67.472,40.38 67.322,40.668 67.154,40.98 L67.154,40.98 L60.494,54.984 C60.326,55.32 60.152,55.62 59.972,55.884 C59.792,56.148 59.546,56.304 59.234,56.352 L59.234,56.352 L59.234,57 L64.346,57 Z M72.806,49.656 L66.398,49.656 L69.782,42.96 L72.806,49.656 Z M92.642,57.108 C93.722,57.108 94.7,57.012 95.576,56.82 C96.452,56.628 97.22,56.394 97.88,56.118 C98.54,55.842 99.086,55.596 99.518,55.38 C99.95,55.164 100.262,55.056 100.454,55.056 C100.574,55.056 100.778,55.116 101.066,55.236 L101.066,55.236 L101.426,55.056 L98.762,51.24 L98.366,51.6 C98.39,51.696 98.402,51.816 98.402,51.96 L98.402,51.96 L98.402,52.248 C98.402,52.464 98.228,52.704 97.88,52.968 C97.532,53.232 97.082,53.478 96.53,53.706 C95.978,53.934 95.366,54.132 94.694,54.3 C94.022,54.468 93.362,54.552 92.714,54.552 C92.018,54.552 91.334,54.426 90.662,54.174 C89.99,53.922 89.39,53.55 88.862,53.058 C88.334,52.566 87.908,51.978 87.584,51.294 C87.26,50.61 87.098,49.836 87.098,48.972 C87.098,48.108 87.242,47.34 87.53,46.668 C87.818,45.996 88.226,45.432 88.754,44.976 C89.282,44.52 89.9,44.178 90.608,43.95 C91.316,43.722 92.102,43.608 92.966,43.608 C93.686,43.608 94.346,43.674 94.946,43.806 C95.546,43.938 96.068,44.1 96.512,44.292 C96.956,44.484 97.298,44.682 97.538,44.886 C97.778,45.09 97.898,45.252 97.898,45.372 C97.898,45.444 97.904,45.504 97.916,45.552 C97.928,45.6 97.934,45.648 97.934,45.696 L97.934,45.696 L98.33,45.984 L100.706,42.564 L100.274,42.312 C100.178,42.36 100.088,42.42 100.004,42.492 C99.92,42.564 99.818,42.6 99.698,42.6 C99.53,42.6 99.254,42.516 98.87,42.348 C98.486,42.18 98.006,41.988 97.43,41.772 C96.854,41.556 96.188,41.364 95.432,41.196 C94.676,41.028 93.842,40.944 92.93,40.944 C91.754,40.944 90.608,41.112 89.492,41.448 C88.376,41.784 87.386,42.294 86.522,42.978 C85.658,43.662 84.962,44.508 84.434,45.516 C83.906,46.524 83.642,47.7 83.642,49.044 C83.642,50.388 83.906,51.57 84.434,52.59 C84.962,53.61 85.646,54.462 86.486,55.146 C87.326,55.83 88.286,56.328 89.366,56.64 C90.446,56.952 91.538,57.108 92.642,57.108 Z M110.21,57 L110.21,56.352 C110.066,56.352 109.94,56.31 109.832,56.226 C109.724,56.142 109.67,56.004 109.67,55.812 L109.67,55.812 L109.67,50.376 L119.318,50.376 L119.318,55.812 C119.318,56.004 119.264,56.142 119.156,56.226 C119.048,56.31 118.922,56.352 118.778,56.352 L118.778,56.352 L118.778,57 L123.314,57 L123.314,56.352 C123.17,56.352 123.044,56.31 122.936,56.226 C122.828,56.142 122.774,56.004 122.774,55.812 L122.774,55.812 L122.774,42.348 C122.774,42.156 122.828,42.018 122.936,41.934 C123.044,41.85 123.17,41.808 123.314,41.808 L123.314,41.808 L123.314,41.16 L118.778,41.16 L118.778,41.808 C118.922,41.808 119.048,41.85 119.156,41.934 C119.264,42.018 119.318,42.156 119.318,42.348 L119.318,42.348 L119.318,47.424 L109.67,47.424 L109.67,42.348 C109.67,42.156 109.724,42.018 109.832,41.934 C109.94,41.85 110.066,41.808 110.21,41.808 L110.21,41.808 L110.21,41.16 L105.674,41.16 L105.674,41.808 C105.818,41.808 105.944,41.85 106.052,41.934 C106.16,42.018 106.214,42.156 106.214,42.348 L106.214,42.348 L106.214,55.812 C106.214,56.004 106.16,56.142 106.052,56.226 C105.944,56.31 105.818,56.352 105.674,56.352 L105.674,56.352 L105.674,57 L110.21,57 Z M144.338,57.396 L144.338,53.616 L143.69,53.616 C143.69,53.832 143.594,54.006 143.402,54.138 C143.21,54.27 142.97,54.336 142.682,54.336 L142.682,54.336 L133.466,54.336 L133.466,50.088 L138.722,50.088 C139.202,50.088 139.574,50.118 139.838,50.178 C140.102,50.238 140.198,50.4 140.126,50.664 L140.126,50.664 L140.846,50.664 L140.846,46.848 L140.198,46.848 C140.198,47.112 140.102,47.274 139.91,47.334 C139.718,47.394 139.418,47.424 139.01,47.424 L139.01,47.424 L133.466,47.424 L133.466,43.824 L142.25,43.824 C142.994,43.824 143.366,44.052 143.366,44.508 L143.366,44.508 L144.014,44.508 L144.014,40.512 L143.366,40.512 C143.366,40.944 142.994,41.16 142.25,41.16 L142.25,41.16 L129.47,41.16 L129.47,41.808 C129.59,41.808 129.71,41.85 129.83,41.934 C129.95,42.018 130.01,42.156 130.01,42.348 L130.01,42.348 L130.01,55.812 C130.01,56.004 129.95,56.142 129.83,56.226 C129.71,56.31 129.59,56.352 129.47,56.352 L129.47,56.352 L129.47,57 L142.682,57 C142.97,57 143.21,57.012 143.402,57.036 C143.594,57.06 143.69,57.18 143.69,57.396 L143.69,57.396 L144.338,57.396 Z M156.254,57.108 C157.07,57.108 157.94,57.048 158.864,56.928 C159.788,56.808 160.634,56.556 161.402,56.172 C162.17,55.788 162.812,55.26 163.328,54.588 C163.844,53.916 164.102,53.052 164.102,51.996 C164.102,50.94 163.808,50.112 163.22,49.512 C162.632,48.912 161.894,48.456 161.006,48.144 C160.118,47.832 159.158,47.61 158.126,47.478 C157.094,47.346 156.134,47.214 155.246,47.082 C154.358,46.95 153.62,46.77 153.032,46.542 C152.444,46.314 152.15,45.936 152.15,45.408 C152.15,45.072 152.246,44.79 152.438,44.562 C152.63,44.334 152.894,44.148 153.23,44.004 C153.566,43.86 153.95,43.758 154.382,43.698 C154.814,43.638 155.27,43.608 155.75,43.608 C156.998,43.608 158.126,43.752 159.134,44.04 C160.142,44.328 160.886,44.676 161.366,45.084 C161.558,45.228 161.666,45.372 161.69,45.516 L161.69,45.516 L161.762,45.948 L162.41,46.164 L164.21,42.78 L163.814,42.384 C163.67,42.456 163.55,42.522 163.454,42.582 C163.358,42.642 163.214,42.672 163.022,42.672 C162.854,42.672 162.596,42.582 162.248,42.402 C161.9,42.222 161.45,42.024 160.898,41.808 C160.346,41.592 159.668,41.394 158.864,41.214 C158.06,41.034 157.094,40.944 155.966,40.944 C153.662,40.944 151.874,41.4 150.602,42.312 C149.33,43.224 148.694,44.448 148.694,45.984 C148.694,47.016 148.988,47.814 149.576,48.378 C150.164,48.942 150.902,49.374 151.79,49.674 C152.678,49.974 153.638,50.19 154.67,50.322 C155.702,50.454 156.662,50.586 157.55,50.718 C158.438,50.85 159.176,51.036 159.764,51.276 C160.352,51.516 160.646,51.9 160.646,52.428 C160.646,52.884 160.478,53.25 160.142,53.526 C159.806,53.802 159.398,54.018 158.918,54.174 C158.438,54.33 157.952,54.432 157.46,54.48 C156.968,54.528 156.554,54.552 156.218,54.552 C155.858,54.552 155.36,54.492 154.724,54.372 C154.088,54.252 153.452,54.09 152.816,53.886 C152.18,53.682 151.634,53.43 151.178,53.13 C150.722,52.83 150.494,52.5 150.494,52.14 C150.494,52.02 150.5,51.906 150.512,51.798 C150.524,51.69 150.53,51.588 150.53,51.492 L150.53,51.492 L149.846,51.312 L148.19,55.344 L148.694,55.704 C148.814,55.56 148.958,55.488 149.126,55.488 C149.222,55.488 149.498,55.578 149.954,55.758 C150.41,55.938 150.968,56.13 151.628,56.334 C152.288,56.538 153.02,56.718 153.824,56.874 C154.628,57.03 155.438,57.108 156.254,57.108 Z M200.102,57.108 L200.102,52.716 L199.742,52.716 C199.742,52.98 199.7,53.22 199.616,53.436 C199.532,53.652 199.322,53.76 198.986,53.76 C198.578,53.736 198.14,53.55 197.672,53.202 C197.204,52.854 196.802,52.464 196.466,52.032 C196.538,51.792 196.658,51.492 196.826,51.132 C196.994,50.772 197.186,50.418 197.402,50.07 C197.618,49.722 197.858,49.428 198.122,49.188 C198.386,48.948 198.662,48.828 198.95,48.828 C199.214,48.828 199.4,48.924 199.508,49.116 C199.616,49.308 199.694,49.476 199.742,49.62 L199.742,49.62 L200.102,49.62 L200.102,44.076 L199.742,44.076 C199.742,44.172 199.694,44.25 199.598,44.31 C199.502,44.37 199.394,44.424 199.274,44.472 C199.082,44.52 198.788,44.67 198.392,44.922 C197.996,45.174 197.558,45.51 197.078,45.93 C196.598,46.35 196.118,46.836 195.638,47.388 C195.158,47.94 194.738,48.54 194.378,49.188 C194.21,49.02 194.066,48.798 193.946,48.522 C193.826,48.246 193.694,47.958 193.55,47.658 C193.406,47.358 193.238,47.058 193.046,46.758 C192.854,46.458 192.602,46.2 192.29,45.984 C192.842,45.792 193.352,45.39 193.82,44.778 C194.288,44.166 194.522,43.44 194.522,42.6 C194.522,41.76 194.324,41.046 193.928,40.458 C193.532,39.87 193.028,39.378 192.416,38.982 C191.804,38.586 191.114,38.298 190.346,38.118 C189.578,37.938 188.81,37.848 188.042,37.848 C187.298,37.848 186.536,37.938 185.756,38.118 C184.976,38.298 184.28,38.586 183.668,38.982 C183.056,39.378 182.552,39.87 182.156,40.458 C181.76,41.046 181.562,41.76 181.562,42.6 C181.562,43.416 181.832,44.13 182.372,44.742 C182.912,45.354 183.554,45.78 184.298,46.02 L184.298,46.02 L184.298,46.092 C183.602,46.284 182.954,46.524 182.354,46.812 C181.754,47.1 181.238,47.46 180.806,47.892 C180.374,48.324 180.032,48.834 179.78,49.422 C179.528,50.01 179.402,50.7 179.402,51.492 C179.402,52.5 179.642,53.364 180.122,54.084 C180.602,54.804 181.208,55.392 181.94,55.848 C182.672,56.304 183.488,56.628 184.388,56.82 C185.288,57.012 186.17,57.108 187.034,57.108 C187.802,57.108 188.48,57.078 189.068,57.018 C189.656,56.958 190.208,56.826 190.724,56.622 C191.24,56.418 191.744,56.154 192.236,55.83 C192.728,55.506 193.262,55.104 193.838,54.624 C194.126,54.936 194.444,55.242 194.792,55.542 C195.14,55.842 195.56,56.112 196.052,56.352 C196.544,56.592 197.12,56.778 197.78,56.91 C198.44,57.042 199.214,57.108 200.102,57.108 L200.102,57.108 Z M188.042,45.408 C187.202,45.408 186.488,45.21 185.9,44.814 C185.312,44.418 185.018,43.8 185.018,42.96 C185.018,42.12 185.312,41.502 185.9,41.106 C186.488,40.71 187.202,40.512 188.042,40.512 C188.882,40.512 189.596,40.71 190.184,41.106 C190.772,41.502 191.066,42.12 191.066,42.96 C191.066,43.8 190.772,44.418 190.184,44.814 C189.596,45.21 188.882,45.408 188.042,45.408 Z M187.754,54.336 C187.25,54.336 186.74,54.276 186.224,54.156 C185.708,54.036 185.234,53.844 184.802,53.58 C184.37,53.316 184.022,52.968 183.758,52.536 C183.494,52.104 183.362,51.588 183.362,50.988 C183.362,50.364 183.494,49.842 183.758,49.422 C184.022,49.002 184.37,48.66 184.802,48.396 C185.234,48.132 185.708,47.94 186.224,47.82 C186.74,47.7 187.25,47.64 187.754,47.64 C188.498,47.64 189.05,47.76 189.41,48 C189.77,48.24 190.058,48.558 190.274,48.954 C190.49,49.35 190.682,49.794 190.85,50.286 C191.018,50.778 191.282,51.276 191.642,51.78 C191.594,52.092 191.456,52.398 191.228,52.698 C191,52.998 190.706,53.268 190.346,53.508 C189.986,53.748 189.584,53.946 189.14,54.102 C188.696,54.258 188.234,54.336 187.754,54.336 Z M90.302,93 L90.302,92.352 C89.534,92.352 89.15,92.136 89.15,91.704 L89.15,91.704 L89.15,85.296 L96.386,85.296 C98.69,85.296 100.502,84.87 101.822,84.018 C103.142,83.166 103.802,81.72 103.802,79.68 C103.802,77.64 103.142,76.194 101.822,75.342 C100.502,74.49 98.69,74.064 96.386,74.064 L96.386,74.064 L83.714,74.064 L83.714,74.712 C84.602,74.712 85.046,74.928 85.046,75.36 L85.046,75.36 L85.046,91.704 C85.046,92.136 84.602,92.352 83.714,92.352 L83.714,92.352 L83.714,93 L90.302,93 Z M96.818,81.984 L89.15,81.984 L89.15,77.376 L96.818,77.376 C97.61,77.376 98.288,77.532 98.852,77.844 C99.416,78.156 99.698,78.768 99.698,79.68 C99.698,80.592 99.416,81.204 98.852,81.516 C98.288,81.828 97.61,81.984 96.818,81.984 L96.818,81.984 Z M110.354,93 L110.354,92.352 C110.138,92.352 109.97,92.328 109.85,92.28 C109.73,92.232 109.67,92.112 109.67,91.92 C109.67,91.8 109.7,91.662 109.76,91.506 C109.82,91.35 109.898,91.176 109.994,90.984 L109.994,90.984 L111.002,89.04 L118.706,89.04 L119.678,91.092 C119.75,91.284 119.81,91.44 119.858,91.56 C119.906,91.68 119.93,91.812 119.93,91.956 C119.93,92.148 119.864,92.28 119.732,92.352 C119.6,92.424 119.474,92.46 119.354,92.46 L119.354,92.46 L119.354,93 L124.466,93 L124.466,92.352 C124.298,92.304 124.142,92.232 123.998,92.136 C123.854,92.04 123.722,91.884 123.602,91.668 L123.602,91.668 L117.77,79.428 C117.65,79.164 117.536,78.93 117.428,78.726 C117.32,78.522 117.266,78.348 117.266,78.204 C117.266,78.036 117.308,77.94 117.392,77.916 C117.476,77.892 117.554,77.856 117.626,77.808 L117.626,77.808 L117.626,77.16 L112.19,77.16 L112.19,77.808 C112.262,77.856 112.328,77.898 112.388,77.934 C112.448,77.97 112.478,78.06 112.478,78.204 C112.478,78.396 112.436,78.594 112.352,78.798 C112.268,79.002 112.154,79.272 112.01,79.608 L112.01,79.608 L106.646,91.308 C106.55,91.5 106.412,91.71 106.232,91.938 C106.052,92.166 105.818,92.304 105.53,92.352 L105.53,92.352 L105.53,93 L110.354,93 Z M117.554,86.376 L112.082,86.376 L114.638,80.328 L117.554,86.376 Z M133.718,93 L133.718,92.352 C133.046,92.352 132.71,92.172 132.71,91.812 L132.71,91.812 L132.71,78.348 C132.71,77.988 133.046,77.808 133.718,77.808 L133.718,77.808 L133.718,77.16 L128.246,77.16 L128.246,77.808 C128.63,77.808 128.894,77.85 129.038,77.934 C129.182,78.018 129.254,78.156 129.254,78.348 L129.254,78.348 L129.254,91.812 C129.254,92.004 129.182,92.142 129.038,92.226 C128.894,92.31 128.63,92.352 128.246,92.352 L128.246,92.352 L128.246,93 L133.718,93 Z M144.338,93 L144.338,92.352 C143.834,92.352 143.582,92.172 143.582,91.812 L143.582,91.812 L143.582,81.336 L152.51,90.84 C152.798,91.152 153.056,91.428 153.284,91.668 C153.512,91.908 153.626,92.076 153.626,92.172 C153.626,92.292 153.542,92.352 153.374,92.352 L153.374,92.352 L153.374,93 L158.054,93 L158.054,92.352 C157.622,92.352 157.406,92.172 157.406,91.812 L157.406,91.812 L157.406,78.348 C157.406,77.988 157.622,77.808 158.054,77.808 L158.054,77.808 L158.054,77.16 L153.662,77.16 L153.662,77.808 C154.142,77.808 154.382,77.988 154.382,78.348 L154.382,78.348 L154.382,88.104 L145.742,78.96 C145.214,78.432 144.95,78.108 144.95,77.988 C144.95,77.892 145.034,77.832 145.202,77.808 L145.202,77.808 L145.202,77.16 L139.91,77.16 L139.91,77.808 C140.342,77.808 140.558,77.988 140.558,78.348 L140.558,78.348 L140.558,91.812 C140.558,92.172 140.342,92.352 139.91,92.352 L139.91,92.352 L139.91,93 L144.338,93 Z M170.726,93.108 C171.542,93.108 172.412,93.048 173.336,92.928 C174.26,92.808 175.106,92.556 175.874,92.172 C176.642,91.788 177.284,91.26 177.8,90.588 C178.316,89.916 178.574,89.052 178.574,87.996 C178.574,86.94 178.28,86.112 177.692,85.512 C177.104,84.912 176.366,84.456 175.478,84.144 C174.59,83.832 173.63,83.61 172.598,83.478 C171.566,83.346 170.606,83.214 169.718,83.082 C168.83,82.95 168.092,82.77 167.504,82.542 C166.916,82.314 166.622,81.936 166.622,81.408 C166.622,81.072 166.718,80.79 166.91,80.562 C167.102,80.334 167.366,80.148 167.702,80.004 C168.038,79.86 168.422,79.758 168.854,79.698 C169.286,79.638 169.742,79.608 170.222,79.608 C171.47,79.608 172.598,79.752 173.606,80.04 C174.614,80.328 175.358,80.676 175.838,81.084 C176.03,81.228 176.138,81.372 176.162,81.516 L176.162,81.516 L176.234,81.948 L176.882,82.164 L178.682,78.78 L178.286,78.384 C178.142,78.456 178.022,78.522 177.926,78.582 C177.83,78.642 177.686,78.672 177.494,78.672 C177.326,78.672 177.068,78.582 176.72,78.402 C176.372,78.222 175.922,78.024 175.37,77.808 C174.818,77.592 174.14,77.394 173.336,77.214 C172.532,77.034 171.566,76.944 170.438,76.944 C168.134,76.944 166.346,77.4 165.074,78.312 C163.802,79.224 163.166,80.448 163.166,81.984 C163.166,83.016 163.46,83.814 164.048,84.378 C164.636,84.942 165.374,85.374 166.262,85.674 C167.15,85.974 168.11,86.19 169.142,86.322 C170.174,86.454 171.134,86.586 172.022,86.718 C172.91,86.85 173.648,87.036 174.236,87.276 C174.824,87.516 175.118,87.9 175.118,88.428 C175.118,88.884 174.95,89.25 174.614,89.526 C174.278,89.802 173.87,90.018 173.39,90.174 C172.91,90.33 172.424,90.432 171.932,90.48 C171.44,90.528 171.026,90.552 170.69,90.552 C170.33,90.552 169.832,90.492 169.196,90.372 C168.56,90.252 167.924,90.09 167.288,89.886 C166.652,89.682 166.106,89.43 165.65,89.13 C165.194,88.83 164.966,88.5 164.966,88.14 C164.966,88.02 164.972,87.906 164.984,87.798 C164.996,87.69 165.002,87.588 165.002,87.492 L165.002,87.492 L164.318,87.312 L162.662,91.344 L163.166,91.704 C163.286,91.56 163.43,91.488 163.598,91.488 C163.694,91.488 163.97,91.578 164.426,91.758 C164.882,91.938 165.44,92.13 166.1,92.334 C166.76,92.538 167.492,92.718 168.296,92.874 C169.1,93.03 169.91,93.108 170.726,93.108 Z" id="Aches&amp;Pains" fill="#000000" fill-rule="nonzero"></path>
        <path d="M62.555,278 L62.555,277.676 C62.279,277.676 62.141,277.568 62.141,277.352 L62.141,277.352 L62.141,271.376 L67.631,277.1 C67.823,277.292 67.919,277.43 67.919,277.514 C67.919,277.622 67.841,277.676 67.685,277.676 L67.685,277.676 L67.685,278 L70.601,278 L70.601,277.676 C70.373,277.676 70.259,277.568 70.259,277.352 L70.259,277.352 L70.259,269.18 C70.259,268.964 70.373,268.856 70.601,268.856 L70.601,268.856 L70.601,268.532 L67.883,268.532 L67.883,268.856 C68.195,268.856 68.351,268.964 68.351,269.18 L68.351,269.18 L68.351,274.904 L63.185,269.54 C62.945,269.3 62.825,269.132 62.825,269.036 C62.825,268.916 62.873,268.856 62.969,268.856 L62.969,268.856 L62.969,268.532 L59.891,268.532 L59.891,268.856 C60.119,268.856 60.233,268.964 60.233,269.18 L60.233,269.18 L60.233,277.352 C60.233,277.568 60.119,277.676 59.891,277.676 L59.891,277.676 L59.891,278 L62.555,278 Z M77.747,278.054 C78.407,278.054 79.028,277.979 79.61,277.829 C80.192,277.679 80.699,277.436 81.131,277.1 C81.563,276.764 81.905,276.341 82.157,275.831 C82.409,275.321 82.535,274.724 82.535,274.04 C82.535,273.356 82.409,272.759 82.157,272.249 C81.905,271.739 81.563,271.316 81.131,270.98 C80.699,270.644 80.192,270.392 79.61,270.224 C79.028,270.056 78.407,269.972 77.747,269.972 C77.087,269.972 76.466,270.056 75.884,270.224 C75.302,270.392 74.795,270.644 74.363,270.98 C73.931,271.316 73.589,271.739 73.337,272.249 C73.085,272.759 72.959,273.356 72.959,274.04 C72.959,274.724 73.085,275.321 73.337,275.831 C73.589,276.341 73.931,276.764 74.363,277.1 C74.795,277.436 75.302,277.679 75.884,277.829 C76.466,277.979 77.087,278.054 77.747,278.054 Z M77.747,276.776 C77.363,276.776 76.988,276.713 76.622,276.587 C76.256,276.461 75.929,276.281 75.641,276.047 C75.353,275.813 75.122,275.528 74.948,275.192 C74.774,274.856 74.687,274.472 74.687,274.04 C74.687,273.608 74.774,273.224 74.948,272.888 C75.122,272.552 75.353,272.267 75.641,272.033 C75.929,271.799 76.256,271.619 76.622,271.493 C76.988,271.367 77.363,271.304 77.747,271.304 C78.131,271.304 78.506,271.367 78.872,271.493 C79.238,271.619 79.565,271.799 79.853,272.033 C80.141,272.267 80.372,272.552 80.546,272.888 C80.72,273.224 80.807,273.608 80.807,274.04 C80.807,274.472 80.72,274.856 80.546,275.192 C80.372,275.528 80.141,275.813 79.853,276.047 C79.565,276.281 79.238,276.461 78.872,276.587 C78.506,276.713 78.131,276.776 77.747,276.776 Z M88.493,278 L88.493,277.676 C88.385,277.676 88.313,277.658 88.277,277.622 C88.241,277.586 88.223,277.52 88.223,277.424 C88.223,277.388 88.268,277.253 88.358,277.019 C88.448,276.785 88.562,276.497 88.7,276.155 C88.838,275.813 88.988,275.441 89.15,275.039 C89.312,274.637 89.465,274.253 89.609,273.887 C89.753,273.521 89.879,273.197 89.987,272.915 C90.095,272.633 90.161,272.438 90.185,272.33 L90.185,272.33 L90.221,272.33 C90.413,272.93 90.611,273.524 90.815,274.112 C91.019,274.7 91.208,275.231 91.382,275.705 C91.556,276.179 91.697,276.572 91.805,276.884 C91.913,277.196 91.967,277.376 91.967,277.424 C91.967,277.52 91.955,277.583 91.931,277.613 C91.907,277.643 91.847,277.664 91.751,277.676 L91.751,277.676 L91.751,278 L94.271,278 L94.271,277.676 C94.103,277.676 94.019,277.598 94.019,277.442 C94.019,277.382 94.055,277.271 94.127,277.109 C94.199,276.947 94.271,276.764 94.343,276.56 L94.343,276.56 L96.413,271.07 C96.569,270.626 96.749,270.404 96.953,270.404 L96.953,270.404 L96.953,270.08 L94.667,270.08 L94.667,270.404 C94.859,270.404 94.955,270.488 94.955,270.656 C94.955,270.74 94.934,270.845 94.892,270.971 C94.85,271.097 94.799,271.244 94.739,271.412 L94.739,271.412 L93.065,275.786 L91.481,271.448 C91.421,271.304 91.361,271.151 91.301,270.989 C91.241,270.827 91.211,270.704 91.211,270.62 C91.211,270.476 91.319,270.404 91.535,270.404 L91.535,270.404 L91.535,270.08 L88.961,270.08 L88.961,270.404 C89.153,270.404 89.249,270.488 89.249,270.656 C89.249,270.752 89.222,270.875 89.168,271.025 C89.114,271.175 89.057,271.334 88.997,271.502 L88.997,271.502 L87.467,275.786 L87.431,275.786 L85.847,271.412 C85.775,271.22 85.715,271.061 85.667,270.935 C85.619,270.809 85.595,270.716 85.595,270.656 C85.595,270.488 85.673,270.404 85.829,270.404 L85.829,270.404 L85.829,270.08 L83.543,270.08 L83.543,270.404 C83.723,270.44 83.849,270.554 83.921,270.746 L83.921,270.746 L86.297,276.992 C86.321,277.052 86.354,277.139 86.396,277.253 C86.438,277.367 86.459,277.46 86.459,277.532 C86.459,277.604 86.441,277.646 86.405,277.658 C86.369,277.67 86.327,277.676 86.279,277.676 L86.279,277.676 L86.279,278 L88.493,278 Z M107.231,278 L107.231,277.676 C106.919,277.676 106.763,277.568 106.763,277.352 L106.763,277.352 L106.763,269.18 C106.763,268.964 106.919,268.856 107.231,268.856 L107.231,268.856 L107.231,268.532 L104.243,268.532 L104.243,268.856 C104.555,268.856 104.711,268.964 104.711,269.18 L104.711,269.18 L104.711,277.352 C104.711,277.568 104.555,277.676 104.243,277.676 L104.243,277.676 L104.243,278 L107.231,278 Z M117.923,278 L117.923,277.676 C117.695,277.676 117.581,277.586 117.581,277.406 L117.581,277.406 L117.581,275.39 L118.985,274.274 L121.199,276.974 C121.355,277.154 121.46,277.286 121.514,277.37 C121.568,277.454 121.595,277.52 121.595,277.568 C121.595,277.64 121.529,277.676 121.397,277.676 L121.397,277.676 L121.397,278 L124.061,278 L124.061,277.676 C123.893,277.628 123.725,277.511 123.557,277.325 C123.389,277.139 123.233,276.956 123.089,276.776 L123.089,276.776 L120.245,273.248 L123.251,270.818 C123.539,270.59 123.755,270.452 123.899,270.404 L123.899,270.404 L123.899,270.08 L120.929,270.08 L120.929,270.35 C120.989,270.35 121.052,270.368 121.118,270.404 C121.184,270.44 121.217,270.488 121.217,270.548 C121.217,270.596 121.103,270.719 120.875,270.917 C120.647,271.115 120.359,271.358 120.011,271.646 C119.663,271.934 119.273,272.249 118.841,272.591 C118.409,272.933 117.989,273.272 117.581,273.608 L117.581,273.608 L117.581,270.674 C117.581,270.494 117.695,270.404 117.923,270.404 L117.923,270.404 L117.923,270.08 L115.565,270.08 L115.565,270.404 C115.757,270.404 115.853,270.494 115.853,270.674 L115.853,270.674 L115.853,277.406 C115.853,277.586 115.757,277.676 115.565,277.676 L115.565,277.676 L115.565,278 L117.923,278 Z M127.913,278 L127.913,277.676 C127.661,277.676 127.535,277.586 127.535,277.406 L127.535,277.406 L127.535,272.168 L131.999,276.92 C132.143,277.076 132.272,277.214 132.386,277.334 C132.5,277.454 132.557,277.538 132.557,277.586 C132.557,277.646 132.515,277.676 132.431,277.676 L132.431,277.676 L132.431,278 L134.771,278 L134.771,277.676 C134.555,277.676 134.447,277.586 134.447,277.406 L134.447,277.406 L134.447,270.674 C134.447,270.494 134.555,270.404 134.771,270.404 L134.771,270.404 L134.771,270.08 L132.575,270.08 L132.575,270.404 C132.815,270.404 132.935,270.494 132.935,270.674 L132.935,270.674 L132.935,275.552 L128.615,270.98 C128.351,270.716 128.219,270.554 128.219,270.494 C128.219,270.446 128.261,270.416 128.345,270.404 L128.345,270.404 L128.345,270.08 L125.699,270.08 L125.699,270.404 C125.915,270.404 126.023,270.494 126.023,270.674 L126.023,270.674 L126.023,277.406 C126.023,277.586 125.915,277.676 125.699,277.676 L125.699,277.676 L125.699,278 L127.913,278 Z M141.737,278.054 C142.397,278.054 143.018,277.979 143.6,277.829 C144.182,277.679 144.689,277.436 145.121,277.1 C145.553,276.764 145.895,276.341 146.147,275.831 C146.399,275.321 146.525,274.724 146.525,274.04 C146.525,273.356 146.399,272.759 146.147,272.249 C145.895,271.739 145.553,271.316 145.121,270.98 C144.689,270.644 144.182,270.392 143.6,270.224 C143.018,270.056 142.397,269.972 141.737,269.972 C141.077,269.972 140.456,270.056 139.874,270.224 C139.292,270.392 138.785,270.644 138.353,270.98 C137.921,271.316 137.579,271.739 137.327,272.249 C137.075,272.759 136.949,273.356 136.949,274.04 C136.949,274.724 137.075,275.321 137.327,275.831 C137.579,276.341 137.921,276.764 138.353,277.1 C138.785,277.436 139.292,277.679 139.874,277.829 C140.456,277.979 141.077,278.054 141.737,278.054 Z M141.737,276.776 C141.353,276.776 140.978,276.713 140.612,276.587 C140.246,276.461 139.919,276.281 139.631,276.047 C139.343,275.813 139.112,275.528 138.938,275.192 C138.764,274.856 138.677,274.472 138.677,274.04 C138.677,273.608 138.764,273.224 138.938,272.888 C139.112,272.552 139.343,272.267 139.631,272.033 C139.919,271.799 140.246,271.619 140.612,271.493 C140.978,271.367 141.353,271.304 141.737,271.304 C142.121,271.304 142.496,271.367 142.862,271.493 C143.228,271.619 143.555,271.799 143.843,272.033 C144.131,272.267 144.362,272.552 144.536,272.888 C144.71,273.224 144.797,273.608 144.797,274.04 C144.797,274.472 144.71,274.856 144.536,275.192 C144.362,275.528 144.131,275.813 143.843,276.047 C143.555,276.281 143.228,276.461 142.862,276.587 C142.496,276.713 142.121,276.776 141.737,276.776 Z M152.483,278 L152.483,277.676 C152.375,277.676 152.303,277.658 152.267,277.622 C152.231,277.586 152.213,277.52 152.213,277.424 C152.213,277.388 152.258,277.253 152.348,277.019 C152.438,276.785 152.552,276.497 152.69,276.155 C152.828,275.813 152.978,275.441 153.14,275.039 C153.302,274.637 153.455,274.253 153.599,273.887 C153.743,273.521 153.869,273.197 153.977,272.915 C154.085,272.633 154.151,272.438 154.175,272.33 L154.175,272.33 L154.211,272.33 C154.403,272.93 154.601,273.524 154.805,274.112 C155.009,274.7 155.198,275.231 155.372,275.705 C155.546,276.179 155.687,276.572 155.795,276.884 C155.903,277.196 155.957,277.376 155.957,277.424 C155.957,277.52 155.945,277.583 155.921,277.613 C155.897,277.643 155.837,277.664 155.741,277.676 L155.741,277.676 L155.741,278 L158.261,278 L158.261,277.676 C158.093,277.676 158.009,277.598 158.009,277.442 C158.009,277.382 158.045,277.271 158.117,277.109 C158.189,276.947 158.261,276.764 158.333,276.56 L158.333,276.56 L160.403,271.07 C160.559,270.626 160.739,270.404 160.943,270.404 L160.943,270.404 L160.943,270.08 L158.657,270.08 L158.657,270.404 C158.849,270.404 158.945,270.488 158.945,270.656 C158.945,270.74 158.924,270.845 158.882,270.971 C158.84,271.097 158.789,271.244 158.729,271.412 L158.729,271.412 L157.055,275.786 L155.471,271.448 C155.411,271.304 155.351,271.151 155.291,270.989 C155.231,270.827 155.201,270.704 155.201,270.62 C155.201,270.476 155.309,270.404 155.525,270.404 L155.525,270.404 L155.525,270.08 L152.951,270.08 L152.951,270.404 C153.143,270.404 153.239,270.488 153.239,270.656 C153.239,270.752 153.212,270.875 153.158,271.025 C153.104,271.175 153.047,271.334 152.987,271.502 L152.987,271.502 L151.457,275.786 L151.421,275.786 L149.837,271.412 C149.765,271.22 149.705,271.061 149.657,270.935 C149.609,270.809 149.585,270.716 149.585,270.656 C149.585,270.488 149.663,270.404 149.819,270.404 L149.819,270.404 L149.819,270.08 L147.533,270.08 L147.533,270.404 C147.713,270.44 147.839,270.554 147.911,270.746 L147.911,270.746 L150.287,276.992 C150.311,277.052 150.344,277.139 150.386,277.253 C150.428,277.367 150.449,277.46 150.449,277.532 C150.449,277.604 150.431,277.646 150.395,277.658 C150.359,277.67 150.317,277.676 150.269,277.676 L150.269,277.676 L150.269,278 L152.483,278 Z M170.591,278 L170.591,277.676 C170.519,277.676 170.456,277.655 170.402,277.613 C170.348,277.571 170.321,277.502 170.321,277.406 L170.321,277.406 L170.321,274.688 L175.145,274.688 L175.145,277.406 C175.145,277.502 175.118,277.571 175.064,277.613 C175.01,277.655 174.947,277.676 174.875,277.676 L174.875,277.676 L174.875,278 L177.143,278 L177.143,277.676 C177.071,277.676 177.008,277.655 176.954,277.613 C176.9,277.571 176.873,277.502 176.873,277.406 L176.873,277.406 L176.873,270.674 C176.873,270.578 176.9,270.509 176.954,270.467 C177.008,270.425 177.071,270.404 177.143,270.404 L177.143,270.404 L177.143,270.08 L174.875,270.08 L174.875,270.404 C174.947,270.404 175.01,270.425 175.064,270.467 C175.118,270.509 175.145,270.578 175.145,270.674 L175.145,270.674 L175.145,273.212 L170.321,273.212 L170.321,270.674 C170.321,270.578 170.348,270.509 170.402,270.467 C170.456,270.425 170.519,270.404 170.591,270.404 L170.591,270.404 L170.591,270.08 L168.323,270.08 L168.323,270.404 C168.395,270.404 168.458,270.425 168.512,270.467 C168.566,270.509 168.593,270.578 168.593,270.674 L168.593,270.674 L168.593,277.406 C168.593,277.502 168.566,277.571 168.512,277.613 C168.458,277.655 168.395,277.676 168.323,277.676 L168.323,277.676 L168.323,278 L170.591,278 Z M184.235,278.054 C184.895,278.054 185.516,277.979 186.098,277.829 C186.68,277.679 187.187,277.436 187.619,277.1 C188.051,276.764 188.393,276.341 188.645,275.831 C188.897,275.321 189.023,274.724 189.023,274.04 C189.023,273.356 188.897,272.759 188.645,272.249 C188.393,271.739 188.051,271.316 187.619,270.98 C187.187,270.644 186.68,270.392 186.098,270.224 C185.516,270.056 184.895,269.972 184.235,269.972 C183.575,269.972 182.954,270.056 182.372,270.224 C181.79,270.392 181.283,270.644 180.851,270.98 C180.419,271.316 180.077,271.739 179.825,272.249 C179.573,272.759 179.447,273.356 179.447,274.04 C179.447,274.724 179.573,275.321 179.825,275.831 C180.077,276.341 180.419,276.764 180.851,277.1 C181.283,277.436 181.79,277.679 182.372,277.829 C182.954,277.979 183.575,278.054 184.235,278.054 Z M184.235,276.776 C183.851,276.776 183.476,276.713 183.11,276.587 C182.744,276.461 182.417,276.281 182.129,276.047 C181.841,275.813 181.61,275.528 181.436,275.192 C181.262,274.856 181.175,274.472 181.175,274.04 C181.175,273.608 181.262,273.224 181.436,272.888 C181.61,272.552 181.841,272.267 182.129,272.033 C182.417,271.799 182.744,271.619 183.11,271.493 C183.476,271.367 183.851,271.304 184.235,271.304 C184.619,271.304 184.994,271.367 185.36,271.493 C185.726,271.619 186.053,271.799 186.341,272.033 C186.629,272.267 186.86,272.552 187.034,272.888 C187.208,273.224 187.295,273.608 187.295,274.04 C187.295,274.472 187.208,274.856 187.034,275.192 C186.86,275.528 186.629,275.813 186.341,276.047 C186.053,276.281 185.726,276.461 185.36,276.587 C184.994,276.713 184.619,276.776 184.235,276.776 Z M194.981,278 L194.981,277.676 C194.873,277.676 194.801,277.658 194.765,277.622 C194.729,277.586 194.711,277.52 194.711,277.424 C194.711,277.388 194.756,277.253 194.846,277.019 C194.936,276.785 195.05,276.497 195.188,276.155 C195.326,275.813 195.476,275.441 195.638,275.039 C195.8,274.637 195.953,274.253 196.097,273.887 C196.241,273.521 196.367,273.197 196.475,272.915 C196.583,272.633 196.649,272.438 196.673,272.33 L196.673,272.33 L196.709,272.33 C196.901,272.93 197.099,273.524 197.303,274.112 C197.507,274.7 197.696,275.231 197.87,275.705 C198.044,276.179 198.185,276.572 198.293,276.884 C198.401,277.196 198.455,277.376 198.455,277.424 C198.455,277.52 198.443,277.583 198.419,277.613 C198.395,277.643 198.335,277.664 198.239,277.676 L198.239,277.676 L198.239,278 L200.759,278 L200.759,277.676 C200.591,277.676 200.507,277.598 200.507,277.442 C200.507,277.382 200.543,277.271 200.615,277.109 C200.687,276.947 200.759,276.764 200.831,276.56 L200.831,276.56 L202.901,271.07 C203.057,270.626 203.237,270.404 203.441,270.404 L203.441,270.404 L203.441,270.08 L201.155,270.08 L201.155,270.404 C201.347,270.404 201.443,270.488 201.443,270.656 C201.443,270.74 201.422,270.845 201.38,270.971 C201.338,271.097 201.287,271.244 201.227,271.412 L201.227,271.412 L199.553,275.786 L197.969,271.448 C197.909,271.304 197.849,271.151 197.789,270.989 C197.729,270.827 197.699,270.704 197.699,270.62 C197.699,270.476 197.807,270.404 198.023,270.404 L198.023,270.404 L198.023,270.08 L195.449,270.08 L195.449,270.404 C195.641,270.404 195.737,270.488 195.737,270.656 C195.737,270.752 195.71,270.875 195.656,271.025 C195.602,271.175 195.545,271.334 195.485,271.502 L195.485,271.502 L193.955,275.786 L193.919,275.786 L192.335,271.412 C192.263,271.22 192.203,271.061 192.155,270.935 C192.107,270.809 192.083,270.716 192.083,270.656 C192.083,270.488 192.161,270.404 192.317,270.404 L192.317,270.404 L192.317,270.08 L190.031,270.08 L190.031,270.404 C190.211,270.44 190.337,270.554 190.409,270.746 L190.409,270.746 L192.785,276.992 C192.809,277.052 192.842,277.139 192.884,277.253 C192.926,277.367 192.947,277.46 192.947,277.532 C192.947,277.604 192.929,277.646 192.893,277.658 C192.857,277.67 192.815,277.676 192.767,277.676 L192.767,277.676 L192.767,278 L194.981,278 Z M67.172,296.054 C67.748,296.054 68.27,296.015 68.738,295.937 C69.206,295.859 69.617,295.76 69.971,295.64 C70.325,295.52 70.619,295.397 70.853,295.271 C71.087,295.145 71.258,295.046 71.366,294.974 L71.366,294.974 L71.366,294.758 C71.246,294.71 71.171,294.665 71.141,294.623 C71.111,294.581 71.096,294.506 71.096,294.398 L71.096,294.398 L71.096,292.688 C71.096,292.568 71.114,292.478 71.15,292.418 C71.186,292.358 71.258,292.304 71.366,292.256 L71.366,292.256 L71.366,291.932 L67.838,291.932 C67.706,291.932 67.592,291.914 67.496,291.878 C67.4,291.842 67.34,291.764 67.316,291.644 L67.316,291.644 L66.992,291.644 L66.992,293.498 L67.316,293.498 C67.34,293.354 67.4,293.255 67.496,293.201 C67.592,293.147 67.706,293.12 67.838,293.12 L67.838,293.12 L69.692,293.12 L69.692,294.254 C69.308,294.458 68.885,294.596 68.423,294.668 C67.961,294.74 67.472,294.776 66.956,294.776 C66.608,294.776 66.248,294.728 65.876,294.632 C65.504,294.536 65.165,294.383 64.859,294.173 C64.553,293.963 64.304,293.687 64.112,293.345 C63.92,293.003 63.824,292.58 63.824,292.076 C63.824,291.572 63.914,291.146 64.094,290.798 C64.274,290.45 64.514,290.165 64.814,289.943 C65.114,289.721 65.462,289.559 65.858,289.457 C66.254,289.355 66.674,289.304 67.118,289.304 C67.442,289.304 67.763,289.337 68.081,289.403 C68.399,289.469 68.684,289.556 68.936,289.664 C69.188,289.772 69.392,289.889 69.548,290.015 C69.704,290.141 69.782,290.258 69.782,290.366 C69.782,290.378 69.77,290.444 69.746,290.564 L69.746,290.564 L69.962,290.69 L71.006,288.728 L70.79,288.62 C70.718,288.68 70.658,288.719 70.61,288.737 C70.562,288.755 70.49,288.764 70.394,288.764 C70.31,288.764 70.184,288.722 70.016,288.638 C69.848,288.554 69.626,288.464 69.35,288.368 C69.086,288.272 68.774,288.182 68.414,288.098 C68.054,288.014 67.64,287.972 67.172,287.972 C66.392,287.972 65.687,288.065 65.057,288.251 C64.427,288.437 63.893,288.707 63.455,289.061 C63.017,289.415 62.681,289.841 62.447,290.339 C62.213,290.837 62.096,291.404 62.096,292.04 C62.096,292.676 62.213,293.243 62.447,293.741 C62.681,294.239 63.017,294.662 63.455,295.01 C63.893,295.358 64.427,295.619 65.057,295.793 C65.687,295.967 66.392,296.054 67.172,296.054 Z M76.28,296 L76.28,295.676 C76.208,295.676 76.133,295.655 76.055,295.613 C75.977,295.571 75.938,295.502 75.938,295.406 L75.938,295.406 L75.938,292.832 L78.44,292.832 L79.862,294.956 C80.042,295.208 80.132,295.394 80.132,295.514 C80.132,295.622 80.054,295.676 79.898,295.676 L79.898,295.676 L79.898,296 L82.652,296 L82.652,295.676 C82.52,295.64 82.397,295.589 82.283,295.523 C82.169,295.457 82.064,295.358 81.968,295.226 L81.968,295.226 L80.204,292.652 C80.456,292.592 80.702,292.505 80.942,292.391 C81.182,292.277 81.401,292.127 81.599,291.941 C81.797,291.755 81.956,291.536 82.076,291.284 C82.196,291.032 82.256,290.744 82.256,290.42 C82.256,289.568 81.956,288.965 81.356,288.611 C80.756,288.257 79.922,288.08 78.854,288.08 L78.854,288.08 L73.886,288.08 L73.886,288.404 C74.102,288.404 74.21,288.494 74.21,288.674 L74.21,288.674 L74.21,295.406 C74.21,295.586 74.102,295.676 73.886,295.676 L73.886,295.676 L73.886,296 L76.28,296 Z M78.818,291.5 L75.974,291.5 L75.974,289.412 L78.818,289.412 C79.43,289.412 79.877,289.499 80.159,289.673 C80.441,289.847 80.582,290.084 80.582,290.384 C80.582,291.128 79.994,291.5 78.818,291.5 L78.818,291.5 Z M86.162,296 L86.162,295.676 C86.054,295.676 85.97,295.664 85.91,295.64 C85.85,295.616 85.82,295.556 85.82,295.46 C85.82,295.4 85.835,295.331 85.865,295.253 C85.895,295.175 85.934,295.088 85.982,294.992 L85.982,294.992 L86.486,294.02 L90.338,294.02 L90.824,295.046 C90.86,295.142 90.89,295.22 90.914,295.28 C90.938,295.34 90.95,295.406 90.95,295.478 C90.95,295.574 90.917,295.64 90.851,295.676 C90.785,295.712 90.722,295.73 90.662,295.73 L90.662,295.73 L90.662,296 L93.218,296 L93.218,295.676 C93.134,295.652 93.056,295.616 92.984,295.568 C92.912,295.52 92.846,295.442 92.786,295.334 L92.786,295.334 L89.87,289.214 C89.81,289.082 89.753,288.965 89.699,288.863 C89.645,288.761 89.618,288.674 89.618,288.602 C89.618,288.518 89.639,288.47 89.681,288.458 C89.723,288.446 89.762,288.428 89.798,288.404 L89.798,288.404 L89.798,288.08 L87.08,288.08 L87.08,288.404 C87.116,288.428 87.149,288.449 87.179,288.467 C87.209,288.485 87.224,288.53 87.224,288.602 C87.224,288.698 87.203,288.797 87.161,288.899 C87.119,289.001 87.062,289.136 86.99,289.304 L86.99,289.304 L84.308,295.154 C84.26,295.25 84.191,295.355 84.101,295.469 C84.011,295.583 83.894,295.652 83.75,295.676 L83.75,295.676 L83.75,296 L86.162,296 Z M89.762,292.688 L87.026,292.688 L88.304,289.664 L89.762,292.688 Z M97.16,296 L97.16,295.676 C96.908,295.676 96.782,295.586 96.782,295.406 L96.782,295.406 L96.782,290.168 L101.246,294.92 C101.39,295.076 101.519,295.214 101.633,295.334 C101.747,295.454 101.804,295.538 101.804,295.586 C101.804,295.646 101.762,295.676 101.678,295.676 L101.678,295.676 L101.678,296 L104.018,296 L104.018,295.676 C103.802,295.676 103.694,295.586 103.694,295.406 L103.694,295.406 L103.694,288.674 C103.694,288.494 103.802,288.404 104.018,288.404 L104.018,288.404 L104.018,288.08 L101.822,288.08 L101.822,288.404 C102.062,288.404 102.182,288.494 102.182,288.674 L102.182,288.674 L102.182,293.552 L97.862,288.98 C97.598,288.716 97.466,288.554 97.466,288.494 C97.466,288.446 97.508,288.416 97.592,288.404 L97.592,288.404 L97.592,288.08 L94.946,288.08 L94.946,288.404 C95.162,288.404 95.27,288.494 95.27,288.674 L95.27,288.674 L95.27,295.406 C95.27,295.586 95.162,295.676 94.946,295.676 L94.946,295.676 L94.946,296 L97.16,296 Z M111.776,296 C112.484,296 113.084,295.886 113.576,295.658 C114.068,295.43 114.47,295.133 114.782,294.767 C115.094,294.401 115.322,293.981 115.466,293.507 C115.61,293.033 115.682,292.544 115.682,292.04 C115.682,291.536 115.607,291.047 115.457,290.573 C115.307,290.099 115.073,289.679 114.755,289.313 C114.437,288.947 114.026,288.65 113.522,288.422 C113.018,288.194 112.412,288.08 111.704,288.08 L111.704,288.08 L106.7,288.08 L106.7,288.404 C106.976,288.404 107.114,288.494 107.114,288.674 L107.114,288.674 L107.114,295.406 C107.114,295.586 106.976,295.676 106.7,295.676 L106.7,295.676 L106.7,296 L111.776,296 Z M111.182,294.668 L108.842,294.668 L108.842,289.412 L111.182,289.412 C111.554,289.412 111.908,289.433 112.244,289.475 C112.58,289.517 112.874,289.625 113.126,289.799 C113.378,289.973 113.579,290.231 113.729,290.573 C113.879,290.915 113.954,291.386 113.954,291.986 C113.954,292.586 113.879,293.063 113.729,293.417 C113.579,293.771 113.378,294.041 113.126,294.227 C112.874,294.413 112.58,294.533 112.244,294.587 C111.908,294.641 111.554,294.668 111.182,294.668 L111.182,294.668 Z M120.2,296 L120.2,295.676 C119.996,295.676 119.894,295.586 119.894,295.406 L119.894,295.406 L119.894,290.348 L119.912,290.348 L122.81,296 L122.954,296 L126.014,290.348 L126.05,290.348 L126.05,295.406 C126.086,295.586 125.978,295.676 125.726,295.676 L125.726,295.676 L125.726,296 L127.814,296 L127.814,295.676 C127.754,295.676 127.697,295.655 127.643,295.613 C127.589,295.571 127.562,295.502 127.562,295.406 L127.562,295.406 L127.562,288.638 C127.562,288.542 127.589,288.479 127.643,288.449 C127.697,288.419 127.754,288.404 127.814,288.404 L127.814,288.404 L127.814,288.08 L125.276,288.08 L125.276,288.404 C125.372,288.404 125.42,288.458 125.42,288.566 C125.42,288.602 125.396,288.665 125.348,288.755 C125.3,288.845 125.234,288.962 125.15,289.106 L125.15,289.106 L122.936,293.138 L120.74,289.088 C120.656,288.944 120.593,288.833 120.551,288.755 C120.509,288.677 120.488,288.614 120.488,288.566 C120.488,288.458 120.548,288.404 120.668,288.404 L120.668,288.404 L120.668,288.08 L118.166,288.08 L118.166,288.404 C118.25,288.404 118.307,288.422 118.337,288.458 C118.367,288.494 118.382,288.596 118.382,288.764 L118.382,288.764 L118.382,295.352 C118.382,295.484 118.361,295.568 118.319,295.604 C118.277,295.64 118.226,295.664 118.166,295.676 L118.166,295.676 L118.166,296 L120.2,296 Z M132.17,296 L132.17,295.676 C132.062,295.676 131.978,295.664 131.918,295.64 C131.858,295.616 131.828,295.556 131.828,295.46 C131.828,295.4 131.843,295.331 131.873,295.253 C131.903,295.175 131.942,295.088 131.99,294.992 L131.99,294.992 L132.494,294.02 L136.346,294.02 L136.832,295.046 C136.868,295.142 136.898,295.22 136.922,295.28 C136.946,295.34 136.958,295.406 136.958,295.478 C136.958,295.574 136.925,295.64 136.859,295.676 C136.793,295.712 136.73,295.73 136.67,295.73 L136.67,295.73 L136.67,296 L139.226,296 L139.226,295.676 C139.142,295.652 139.064,295.616 138.992,295.568 C138.92,295.52 138.854,295.442 138.794,295.334 L138.794,295.334 L135.878,289.214 C135.818,289.082 135.761,288.965 135.707,288.863 C135.653,288.761 135.626,288.674 135.626,288.602 C135.626,288.518 135.647,288.47 135.689,288.458 C135.731,288.446 135.77,288.428 135.806,288.404 L135.806,288.404 L135.806,288.08 L133.088,288.08 L133.088,288.404 C133.124,288.428 133.157,288.449 133.187,288.467 C133.217,288.485 133.232,288.53 133.232,288.602 C133.232,288.698 133.211,288.797 133.169,288.899 C133.127,289.001 133.07,289.136 132.998,289.304 L132.998,289.304 L130.316,295.154 C130.268,295.25 130.199,295.355 130.109,295.469 C130.019,295.583 129.902,295.652 129.758,295.676 L129.758,295.676 L129.758,296 L132.17,296 Z M135.77,292.688 L133.034,292.688 L134.312,289.664 L135.77,292.688 Z M148.856,296 L148.856,295.676 C148.748,295.676 148.652,295.655 148.568,295.613 C148.484,295.571 148.442,295.502 148.442,295.406 L148.442,295.406 L148.442,292.652 L151.61,292.652 C151.814,292.652 151.94,292.676 151.988,292.724 C152.036,292.772 152.066,292.844 152.078,292.94 L152.078,292.94 L152.402,292.94 L152.402,291.05 L152.078,291.05 C152.066,291.146 152.036,291.215 151.988,291.257 C151.94,291.299 151.814,291.32 151.61,291.32 L151.61,291.32 L148.442,291.32 L148.442,289.412 L153.32,289.412 C153.524,289.412 153.668,289.439 153.752,289.493 C153.836,289.547 153.878,289.604 153.878,289.664 L153.878,289.664 L154.202,289.664 L154.202,287.756 L153.878,287.756 C153.878,287.852 153.836,287.93 153.752,287.99 C153.668,288.05 153.524,288.08 153.32,288.08 L153.32,288.08 L146.336,288.08 L146.336,288.404 C146.588,288.404 146.714,288.494 146.714,288.674 L146.714,288.674 L146.714,295.406 C146.714,295.586 146.6,295.676 146.372,295.676 L146.372,295.676 L146.372,296 L148.856,296 Z M163.904,296.198 L163.904,294.308 L163.58,294.308 C163.58,294.416 163.532,294.503 163.436,294.569 C163.34,294.635 163.22,294.668 163.076,294.668 L163.076,294.668 L158.468,294.668 L158.468,292.544 L161.096,292.544 C161.336,292.544 161.522,292.559 161.654,292.589 C161.786,292.619 161.834,292.7 161.798,292.832 L161.798,292.832 L162.158,292.832 L162.158,290.924 L161.834,290.924 C161.834,291.056 161.786,291.137 161.69,291.167 C161.594,291.197 161.444,291.212 161.24,291.212 L161.24,291.212 L158.468,291.212 L158.468,289.412 L162.86,289.412 C163.232,289.412 163.418,289.526 163.418,289.754 L163.418,289.754 L163.742,289.754 L163.742,287.756 L163.418,287.756 C163.418,287.972 163.232,288.08 162.86,288.08 L162.86,288.08 L156.47,288.08 L156.47,288.404 C156.53,288.404 156.59,288.425 156.65,288.467 C156.71,288.509 156.74,288.578 156.74,288.674 L156.74,288.674 L156.74,295.406 C156.74,295.502 156.71,295.571 156.65,295.613 C156.59,295.655 156.53,295.676 156.47,295.676 L156.47,295.676 L156.47,296 L163.076,296 C163.22,296 163.34,296.006 163.436,296.018 C163.532,296.03 163.58,296.09 163.58,296.198 L163.58,296.198 L163.904,296.198 Z M173.912,296.198 L173.912,294.308 L173.588,294.308 C173.588,294.416 173.54,294.503 173.444,294.569 C173.348,294.635 173.228,294.668 173.084,294.668 L173.084,294.668 L168.476,294.668 L168.476,292.544 L171.104,292.544 C171.344,292.544 171.53,292.559 171.662,292.589 C171.794,292.619 171.842,292.7 171.806,292.832 L171.806,292.832 L172.166,292.832 L172.166,290.924 L171.842,290.924 C171.842,291.056 171.794,291.137 171.698,291.167 C171.602,291.197 171.452,291.212 171.248,291.212 L171.248,291.212 L168.476,291.212 L168.476,289.412 L172.868,289.412 C173.24,289.412 173.426,289.526 173.426,289.754 L173.426,289.754 L173.75,289.754 L173.75,287.756 L173.426,287.756 C173.426,287.972 173.24,288.08 172.868,288.08 L172.868,288.08 L166.478,288.08 L166.478,288.404 C166.538,288.404 166.598,288.425 166.658,288.467 C166.718,288.509 166.748,288.578 166.748,288.674 L166.748,288.674 L166.748,295.406 C166.748,295.502 166.718,295.571 166.658,295.613 C166.598,295.655 166.538,295.676 166.478,295.676 L166.478,295.676 L166.478,296 L173.084,296 C173.228,296 173.348,296.006 173.444,296.018 C173.54,296.03 173.588,296.09 173.588,296.198 L173.588,296.198 L173.912,296.198 Z M184.262,296.18 L184.262,294.29 L183.938,294.29 C183.938,294.41 183.89,294.503 183.794,294.569 C183.698,294.635 183.578,294.668 183.434,294.668 L183.434,294.668 L178.574,294.668 L178.574,288.674 C178.574,288.494 178.712,288.404 178.988,288.404 L178.988,288.404 L178.988,288.08 L176.378,288.08 L176.378,288.404 C176.69,288.404 176.846,288.494 176.846,288.674 L176.846,288.674 L176.846,295.406 C176.846,295.586 176.69,295.676 176.378,295.676 L176.378,295.676 L176.378,296 L183.434,296 C183.578,296 183.698,296.006 183.794,296.018 C183.89,296.03 183.938,296.084 183.938,296.18 L183.938,296.18 L184.262,296.18 Z M189.878,296.054 C190.286,296.054 190.721,296.024 191.183,295.964 C191.645,295.904 192.068,295.778 192.452,295.586 C192.836,295.394 193.157,295.13 193.415,294.794 C193.673,294.458 193.802,294.026 193.802,293.498 C193.802,292.97 193.655,292.556 193.361,292.256 C193.067,291.956 192.698,291.728 192.254,291.572 C191.81,291.416 191.33,291.305 190.814,291.239 C190.298,291.173 189.818,291.107 189.374,291.041 C188.93,290.975 188.561,290.885 188.267,290.771 C187.973,290.657 187.826,290.468 187.826,290.204 C187.826,290.036 187.874,289.895 187.97,289.781 C188.066,289.667 188.198,289.574 188.366,289.502 C188.534,289.43 188.726,289.379 188.942,289.349 C189.158,289.319 189.386,289.304 189.626,289.304 C190.25,289.304 190.814,289.376 191.318,289.52 C191.822,289.664 192.194,289.838 192.434,290.042 C192.53,290.114 192.584,290.186 192.596,290.258 C192.608,290.33 192.62,290.402 192.632,290.474 L192.632,290.474 L192.956,290.582 L193.856,288.89 L193.658,288.692 C193.586,288.728 193.526,288.761 193.478,288.791 C193.43,288.821 193.358,288.836 193.262,288.836 C193.178,288.836 193.049,288.791 192.875,288.701 C192.701,288.611 192.476,288.512 192.2,288.404 C191.924,288.296 191.585,288.197 191.183,288.107 C190.781,288.017 190.298,287.972 189.734,287.972 C188.582,287.972 187.688,288.2 187.052,288.656 C186.416,289.112 186.098,289.724 186.098,290.492 C186.098,291.008 186.245,291.407 186.539,291.689 C186.833,291.971 187.202,292.187 187.646,292.337 C188.09,292.487 188.57,292.595 189.086,292.661 C189.602,292.727 190.082,292.793 190.526,292.859 C190.97,292.925 191.339,293.018 191.633,293.138 C191.927,293.258 192.074,293.45 192.074,293.714 C192.074,293.942 191.99,294.125 191.822,294.263 C191.654,294.401 191.45,294.509 191.21,294.587 C190.97,294.665 190.727,294.716 190.481,294.74 C190.235,294.764 190.028,294.776 189.86,294.776 C189.68,294.776 189.431,294.746 189.113,294.686 C188.795,294.626 188.477,294.545 188.159,294.443 C187.841,294.341 187.568,294.215 187.34,294.065 C187.112,293.915 186.998,293.75 186.998,293.57 C186.998,293.51 187.001,293.453 187.007,293.399 C187.013,293.345 187.016,293.294 187.016,293.246 L187.016,293.246 L186.674,293.156 L185.846,295.172 L186.098,295.352 C186.158,295.28 186.23,295.244 186.314,295.244 C186.362,295.244 186.5,295.289 186.728,295.379 C186.956,295.469 187.235,295.565 187.565,295.667 C187.895,295.769 188.261,295.859 188.663,295.937 C189.065,296.015 189.47,296.054 189.878,296.054 Z M197.762,296.054 C198.11,296.054 198.41,295.937 198.662,295.703 C198.914,295.469 199.04,295.178 199.04,294.83 C199.04,294.482 198.914,294.182 198.662,293.93 C198.41,293.678 198.11,293.552 197.762,293.552 C197.414,293.552 197.114,293.678 196.862,293.93 C196.61,294.182 196.484,294.482 196.484,294.83 C196.484,295.178 196.61,295.469 196.862,295.703 C197.114,295.937 197.414,296.054 197.762,296.054 Z M58.19,314 L58.19,313.676 C57.962,313.676 57.848,313.61 57.848,313.478 C57.848,313.37 57.908,313.19 58.028,312.938 L58.028,312.938 L58.676,311.66 L63.068,311.66 L63.752,312.992 C63.848,313.184 63.896,313.34 63.896,313.46 C63.896,313.532 63.86,313.586 63.788,313.622 C63.716,313.658 63.656,313.676 63.608,313.676 L63.608,313.676 L63.608,314 L66.776,314 L66.776,313.676 C66.644,313.616 66.527,313.556 66.425,313.496 C66.323,313.436 66.242,313.34 66.182,313.208 L66.182,313.208 L62.438,305.882 C62.354,305.726 62.291,305.6 62.249,305.504 C62.207,305.408 62.186,305.312 62.186,305.216 C62.186,305.084 62.228,304.997 62.312,304.955 C62.396,304.913 62.48,304.88 62.564,304.856 L62.564,304.856 L62.564,304.532 L59.522,304.532 L59.522,304.856 C59.618,304.88 59.708,304.916 59.792,304.964 C59.876,305.012 59.918,305.096 59.918,305.216 C59.918,305.312 59.885,305.426 59.819,305.558 C59.753,305.69 59.678,305.834 59.594,305.99 L59.594,305.99 L56.264,312.992 C56.18,313.16 56.093,313.31 56.003,313.442 C55.913,313.574 55.79,313.652 55.634,313.676 L55.634,313.676 L55.634,314 L58.19,314 Z M62.42,310.328 L59.216,310.328 L60.908,306.98 L62.42,310.328 Z M73.544,314 C74.252,314 74.852,313.886 75.344,313.658 C75.836,313.43 76.238,313.133 76.55,312.767 C76.862,312.401 77.09,311.981 77.234,311.507 C77.378,311.033 77.45,310.544 77.45,310.04 C77.45,309.536 77.375,309.047 77.225,308.573 C77.075,308.099 76.841,307.679 76.523,307.313 C76.205,306.947 75.794,306.65 75.29,306.422 C74.786,306.194 74.18,306.08 73.472,306.08 L73.472,306.08 L68.468,306.08 L68.468,306.404 C68.744,306.404 68.882,306.494 68.882,306.674 L68.882,306.674 L68.882,313.406 C68.882,313.586 68.744,313.676 68.468,313.676 L68.468,313.676 L68.468,314 L73.544,314 Z M72.95,312.668 L70.61,312.668 L70.61,307.412 L72.95,307.412 C73.322,307.412 73.676,307.433 74.012,307.475 C74.348,307.517 74.642,307.625 74.894,307.799 C75.146,307.973 75.347,308.231 75.497,308.573 C75.647,308.915 75.722,309.386 75.722,309.986 C75.722,310.586 75.647,311.063 75.497,311.417 C75.347,311.771 75.146,312.041 74.894,312.227 C74.642,312.413 74.348,312.533 74.012,312.587 C73.676,312.641 73.322,312.668 72.95,312.668 L72.95,312.668 Z M84.542,314 C85.25,314 85.85,313.886 86.342,313.658 C86.834,313.43 87.236,313.133 87.548,312.767 C87.86,312.401 88.088,311.981 88.232,311.507 C88.376,311.033 88.448,310.544 88.448,310.04 C88.448,309.536 88.373,309.047 88.223,308.573 C88.073,308.099 87.839,307.679 87.521,307.313 C87.203,306.947 86.792,306.65 86.288,306.422 C85.784,306.194 85.178,306.08 84.47,306.08 L84.47,306.08 L79.466,306.08 L79.466,306.404 C79.742,306.404 79.88,306.494 79.88,306.674 L79.88,306.674 L79.88,313.406 C79.88,313.586 79.742,313.676 79.466,313.676 L79.466,313.676 L79.466,314 L84.542,314 Z M83.948,312.668 L81.608,312.668 L81.608,307.412 L83.948,307.412 C84.32,307.412 84.674,307.433 85.01,307.475 C85.346,307.517 85.64,307.625 85.892,307.799 C86.144,307.973 86.345,308.231 86.495,308.573 C86.645,308.915 86.72,309.386 86.72,309.986 C86.72,310.586 86.645,311.063 86.495,311.417 C86.345,311.771 86.144,312.041 85.892,312.227 C85.64,312.413 85.346,312.533 85.01,312.587 C84.674,312.641 84.32,312.668 83.948,312.668 L83.948,312.668 Z M100.436,314 L100.436,313.676 C100.22,313.676 100.112,313.586 100.112,313.406 L100.112,313.406 L100.112,307.412 L102.452,307.412 C102.548,307.412 102.638,307.436 102.722,307.484 C102.806,307.532 102.848,307.61 102.848,307.718 L102.848,307.718 L103.172,307.718 L103.172,305.648 L102.848,305.648 C102.848,305.816 102.806,305.93 102.722,305.99 C102.638,306.05 102.548,306.08 102.452,306.08 L102.452,306.08 L96.044,306.08 C95.948,306.08 95.858,306.05 95.774,305.99 C95.69,305.93 95.648,305.816 95.648,305.648 L95.648,305.648 L95.324,305.648 L95.324,307.718 L95.648,307.718 C95.648,307.61 95.69,307.532 95.774,307.484 C95.858,307.436 95.948,307.412 96.044,307.412 L96.044,307.412 L98.384,307.412 L98.384,313.406 C98.384,313.502 98.354,313.571 98.294,313.613 C98.234,313.655 98.174,313.676 98.114,313.676 L98.114,313.676 L98.114,314 L100.436,314 Z M107.6,314 L107.6,313.676 C107.528,313.676 107.465,313.655 107.411,313.613 C107.357,313.571 107.33,313.502 107.33,313.406 L107.33,313.406 L107.33,310.688 L112.154,310.688 L112.154,313.406 C112.154,313.502 112.127,313.571 112.073,313.613 C112.019,313.655 111.956,313.676 111.884,313.676 L111.884,313.676 L111.884,314 L114.152,314 L114.152,313.676 C114.08,313.676 114.017,313.655 113.963,313.613 C113.909,313.571 113.882,313.502 113.882,313.406 L113.882,313.406 L113.882,306.674 C113.882,306.578 113.909,306.509 113.963,306.467 C114.017,306.425 114.08,306.404 114.152,306.404 L114.152,306.404 L114.152,306.08 L111.884,306.08 L111.884,306.404 C111.956,306.404 112.019,306.425 112.073,306.467 C112.127,306.509 112.154,306.578 112.154,306.674 L112.154,306.674 L112.154,309.212 L107.33,309.212 L107.33,306.674 C107.33,306.578 107.357,306.509 107.411,306.467 C107.465,306.425 107.528,306.404 107.6,306.404 L107.6,306.404 L107.6,306.08 L105.332,306.08 L105.332,306.404 C105.404,306.404 105.467,306.425 105.521,306.467 C105.575,306.509 105.602,306.578 105.602,306.674 L105.602,306.674 L105.602,313.406 C105.602,313.502 105.575,313.571 105.521,313.613 C105.467,313.655 105.404,313.676 105.332,313.676 L105.332,313.676 L105.332,314 L107.6,314 Z M120.11,314 L120.11,313.676 C119.774,313.676 119.606,313.586 119.606,313.406 L119.606,313.406 L119.606,306.674 C119.606,306.494 119.774,306.404 120.11,306.404 L120.11,306.404 L120.11,306.08 L117.374,306.08 L117.374,306.404 C117.566,306.404 117.698,306.425 117.77,306.467 C117.842,306.509 117.878,306.578 117.878,306.674 L117.878,306.674 L117.878,313.406 C117.878,313.502 117.842,313.571 117.77,313.613 C117.698,313.655 117.566,313.676 117.374,313.676 L117.374,313.676 L117.374,314 L120.11,314 Z M126.608,314.054 C127.016,314.054 127.451,314.024 127.913,313.964 C128.375,313.904 128.798,313.778 129.182,313.586 C129.566,313.394 129.887,313.13 130.145,312.794 C130.403,312.458 130.532,312.026 130.532,311.498 C130.532,310.97 130.385,310.556 130.091,310.256 C129.797,309.956 129.428,309.728 128.984,309.572 C128.54,309.416 128.06,309.305 127.544,309.239 C127.028,309.173 126.548,309.107 126.104,309.041 C125.66,308.975 125.291,308.885 124.997,308.771 C124.703,308.657 124.556,308.468 124.556,308.204 C124.556,308.036 124.604,307.895 124.7,307.781 C124.796,307.667 124.928,307.574 125.096,307.502 C125.264,307.43 125.456,307.379 125.672,307.349 C125.888,307.319 126.116,307.304 126.356,307.304 C126.98,307.304 127.544,307.376 128.048,307.52 C128.552,307.664 128.924,307.838 129.164,308.042 C129.26,308.114 129.314,308.186 129.326,308.258 L129.326,308.258 L129.362,308.474 L129.686,308.582 L130.586,306.89 L130.388,306.692 C130.316,306.728 130.256,306.761 130.208,306.791 C130.16,306.821 130.088,306.836 129.992,306.836 C129.908,306.836 129.779,306.791 129.605,306.701 C129.431,306.611 129.206,306.512 128.93,306.404 C128.654,306.296 128.315,306.197 127.913,306.107 C127.511,306.017 127.028,305.972 126.464,305.972 C125.312,305.972 124.418,306.2 123.782,306.656 C123.146,307.112 122.828,307.724 122.828,308.492 C122.828,309.008 122.975,309.407 123.269,309.689 C123.563,309.971 123.932,310.187 124.376,310.337 C124.82,310.487 125.3,310.595 125.816,310.661 C126.332,310.727 126.812,310.793 127.256,310.859 C127.7,310.925 128.069,311.018 128.363,311.138 C128.657,311.258 128.804,311.45 128.804,311.714 C128.804,311.942 128.72,312.125 128.552,312.263 C128.384,312.401 128.18,312.509 127.94,312.587 C127.7,312.665 127.457,312.716 127.211,312.74 C126.965,312.764 126.758,312.776 126.59,312.776 C126.41,312.776 126.161,312.746 125.843,312.686 C125.525,312.626 125.207,312.545 124.889,312.443 C124.571,312.341 124.298,312.215 124.07,312.065 C123.842,311.915 123.728,311.75 123.728,311.57 C123.728,311.51 123.731,311.453 123.737,311.399 C123.743,311.345 123.746,311.294 123.746,311.246 L123.746,311.246 L123.404,311.156 L122.576,313.172 L122.828,313.352 C122.888,313.28 122.96,313.244 123.044,313.244 C123.092,313.244 123.23,313.289 123.458,313.379 C123.686,313.469 123.965,313.565 124.295,313.667 C124.625,313.769 124.991,313.859 125.393,313.937 C125.795,314.015 126.2,314.054 126.608,314.054 Z M142.934,314 L142.934,313.676 C142.718,313.676 142.61,313.586 142.61,313.406 L142.61,313.406 L142.61,307.412 L144.95,307.412 C145.046,307.412 145.136,307.436 145.22,307.484 C145.304,307.532 145.346,307.61 145.346,307.718 L145.346,307.718 L145.67,307.718 L145.67,305.648 L145.346,305.648 C145.346,305.816 145.304,305.93 145.22,305.99 C145.136,306.05 145.046,306.08 144.95,306.08 L144.95,306.08 L138.542,306.08 C138.446,306.08 138.356,306.05 138.272,305.99 C138.188,305.93 138.146,305.816 138.146,305.648 L138.146,305.648 L137.822,305.648 L137.822,307.718 L138.146,307.718 C138.146,307.61 138.188,307.532 138.272,307.484 C138.356,307.436 138.446,307.412 138.542,307.412 L138.542,307.412 L140.882,307.412 L140.882,313.406 C140.882,313.502 140.852,313.571 140.792,313.613 C140.732,313.655 140.672,313.676 140.612,313.676 L140.612,313.676 L140.612,314 L142.934,314 Z M151.736,314.054 C152.396,314.054 153.017,313.979 153.599,313.829 C154.181,313.679 154.688,313.436 155.12,313.1 C155.552,312.764 155.894,312.341 156.146,311.831 C156.398,311.321 156.524,310.724 156.524,310.04 C156.524,309.356 156.398,308.759 156.146,308.249 C155.894,307.739 155.552,307.316 155.12,306.98 C154.688,306.644 154.181,306.392 153.599,306.224 C153.017,306.056 152.396,305.972 151.736,305.972 C151.076,305.972 150.455,306.056 149.873,306.224 C149.291,306.392 148.784,306.644 148.352,306.98 C147.92,307.316 147.578,307.739 147.326,308.249 C147.074,308.759 146.948,309.356 146.948,310.04 C146.948,310.724 147.074,311.321 147.326,311.831 C147.578,312.341 147.92,312.764 148.352,313.1 C148.784,313.436 149.291,313.679 149.873,313.829 C150.455,313.979 151.076,314.054 151.736,314.054 Z M151.736,312.776 C151.352,312.776 150.977,312.713 150.611,312.587 C150.245,312.461 149.918,312.281 149.63,312.047 C149.342,311.813 149.111,311.528 148.937,311.192 C148.763,310.856 148.676,310.472 148.676,310.04 C148.676,309.608 148.763,309.224 148.937,308.888 C149.111,308.552 149.342,308.267 149.63,308.033 C149.918,307.799 150.245,307.619 150.611,307.493 C150.977,307.367 151.352,307.304 151.736,307.304 C152.12,307.304 152.495,307.367 152.861,307.493 C153.227,307.619 153.554,307.799 153.842,308.033 C154.13,308.267 154.361,308.552 154.535,308.888 C154.709,309.224 154.796,309.608 154.796,310.04 C154.796,310.472 154.709,310.856 154.535,311.192 C154.361,311.528 154.13,311.813 153.842,312.047 C153.554,312.281 153.227,312.461 152.861,312.587 C152.495,312.713 152.12,312.776 151.736,312.776 Z M168.944,314 L168.944,313.676 C168.716,313.676 168.602,313.586 168.602,313.406 L168.602,313.406 L168.602,310.706 L171.356,307.142 C171.488,306.974 171.641,306.809 171.815,306.647 C171.989,306.485 172.148,306.404 172.292,306.404 L172.292,306.404 L172.292,306.08 L169.538,306.08 L169.538,306.404 C169.598,306.404 169.658,306.416 169.718,306.44 C169.778,306.464 169.808,306.524 169.808,306.62 C169.808,306.692 169.781,306.767 169.727,306.845 C169.673,306.923 169.592,307.04 169.484,307.196 L169.484,307.196 L167.882,309.428 L166.064,307.052 C166.004,306.968 165.95,306.896 165.902,306.836 C165.854,306.776 165.83,306.71 165.83,306.638 C165.83,306.566 165.866,306.509 165.938,306.467 C166.01,306.425 166.076,306.404 166.136,306.404 L166.136,306.404 L166.136,306.08 L163.166,306.08 L163.166,306.404 C163.274,306.404 163.388,306.428 163.508,306.476 C163.628,306.524 163.73,306.602 163.814,306.71 L163.814,306.71 L166.874,310.634 L166.874,313.406 C166.874,313.586 166.766,313.676 166.55,313.676 L166.55,313.676 L166.55,314 L168.944,314 Z M178.232,314.054 C178.892,314.054 179.513,313.979 180.095,313.829 C180.677,313.679 181.184,313.436 181.616,313.1 C182.048,312.764 182.39,312.341 182.642,311.831 C182.894,311.321 183.02,310.724 183.02,310.04 C183.02,309.356 182.894,308.759 182.642,308.249 C182.39,307.739 182.048,307.316 181.616,306.98 C181.184,306.644 180.677,306.392 180.095,306.224 C179.513,306.056 178.892,305.972 178.232,305.972 C177.572,305.972 176.951,306.056 176.369,306.224 C175.787,306.392 175.28,306.644 174.848,306.98 C174.416,307.316 174.074,307.739 173.822,308.249 C173.57,308.759 173.444,309.356 173.444,310.04 C173.444,310.724 173.57,311.321 173.822,311.831 C174.074,312.341 174.416,312.764 174.848,313.1 C175.28,313.436 175.787,313.679 176.369,313.829 C176.951,313.979 177.572,314.054 178.232,314.054 Z M178.232,312.776 C177.848,312.776 177.473,312.713 177.107,312.587 C176.741,312.461 176.414,312.281 176.126,312.047 C175.838,311.813 175.607,311.528 175.433,311.192 C175.259,310.856 175.172,310.472 175.172,310.04 C175.172,309.608 175.259,309.224 175.433,308.888 C175.607,308.552 175.838,308.267 176.126,308.033 C176.414,307.799 176.741,307.619 177.107,307.493 C177.473,307.367 177.848,307.304 178.232,307.304 C178.616,307.304 178.991,307.367 179.357,307.493 C179.723,307.619 180.05,307.799 180.338,308.033 C180.626,308.267 180.857,308.552 181.031,308.888 C181.205,309.224 181.292,309.608 181.292,310.04 C181.292,310.472 181.205,310.856 181.031,311.192 C180.857,311.528 180.626,311.813 180.338,312.047 C180.05,312.281 179.723,312.461 179.357,312.587 C178.991,312.713 178.616,312.776 178.232,312.776 Z M189.806,314.054 C190.526,314.054 191.153,313.979 191.687,313.829 C192.221,313.679 192.659,313.472 193.001,313.208 C193.343,312.944 193.598,312.641 193.766,312.299 C193.934,311.957 194.018,311.6 194.018,311.228 L194.018,311.228 L194.018,306.674 C194.018,306.494 194.15,306.404 194.414,306.404 L194.414,306.404 L194.414,306.08 L191.912,306.08 L191.912,306.404 C192.212,306.404 192.362,306.494 192.362,306.674 L192.362,306.674 L192.362,310.796 C192.362,311.372 192.152,311.834 191.732,312.182 C191.312,312.53 190.67,312.704 189.806,312.704 C188.942,312.704 188.3,312.53 187.88,312.182 C187.46,311.834 187.25,311.372 187.25,310.796 L187.25,310.796 L187.25,306.674 C187.25,306.494 187.382,306.404 187.646,306.404 L187.646,306.404 L187.646,306.08 L185.072,306.08 L185.072,306.404 C185.276,306.404 185.414,306.425 185.486,306.467 C185.558,306.509 185.594,306.578 185.594,306.674 L185.594,306.674 L185.594,311.228 C185.594,311.6 185.678,311.957 185.846,312.299 C186.014,312.641 186.269,312.944 186.611,313.208 C186.953,313.472 187.391,313.679 187.925,313.829 C188.459,313.979 189.086,314.054 189.806,314.054 Z M199.544,314 L199.544,313.676 C199.472,313.676 199.397,313.655 199.319,313.613 C199.241,313.571 199.202,313.502 199.202,313.406 L199.202,313.406 L199.202,310.832 L201.704,310.832 L203.126,312.956 C203.306,313.208 203.396,313.394 203.396,313.514 C203.396,313.622 203.318,313.676 203.162,313.676 L203.162,313.676 L203.162,314 L205.916,314 L205.916,313.676 C205.784,313.64 205.661,313.589 205.547,313.523 C205.433,313.457 205.328,313.358 205.232,313.226 L205.232,313.226 L203.468,310.652 C203.72,310.592 203.966,310.505 204.206,310.391 C204.446,310.277 204.665,310.127 204.863,309.941 C205.061,309.755 205.22,309.536 205.34,309.284 C205.46,309.032 205.52,308.744 205.52,308.42 C205.52,307.568 205.22,306.965 204.62,306.611 C204.02,306.257 203.186,306.08 202.118,306.08 L202.118,306.08 L197.15,306.08 L197.15,306.404 C197.366,306.404 197.474,306.494 197.474,306.674 L197.474,306.674 L197.474,313.406 C197.474,313.586 197.366,313.676 197.15,313.676 L197.15,313.676 L197.15,314 L199.544,314 Z M202.082,309.5 L199.238,309.5 L199.238,307.412 L202.082,307.412 C202.694,307.412 203.141,307.499 203.423,307.673 C203.705,307.847 203.846,308.084 203.846,308.384 C203.846,309.128 203.258,309.5 202.082,309.5 L202.082,309.5 Z M74.354,332.054 C74.762,332.054 75.197,332.024 75.659,331.964 C76.121,331.904 76.544,331.778 76.928,331.586 C77.312,331.394 77.633,331.13 77.891,330.794 C78.149,330.458 78.278,330.026 78.278,329.498 C78.278,328.97 78.131,328.556 77.837,328.256 C77.543,327.956 77.174,327.728 76.73,327.572 C76.286,327.416 75.806,327.305 75.29,327.239 C74.774,327.173 74.294,327.107 73.85,327.041 C73.406,326.975 73.037,326.885 72.743,326.771 C72.449,326.657 72.302,326.468 72.302,326.204 C72.302,326.036 72.35,325.895 72.446,325.781 C72.542,325.667 72.674,325.574 72.842,325.502 C73.01,325.43 73.202,325.379 73.418,325.349 C73.634,325.319 73.862,325.304 74.102,325.304 C74.726,325.304 75.29,325.376 75.794,325.52 C76.298,325.664 76.67,325.838 76.91,326.042 C77.006,326.114 77.06,326.186 77.072,326.258 L77.072,326.258 L77.108,326.474 L77.432,326.582 L78.332,324.89 L78.134,324.692 C78.062,324.728 78.002,324.761 77.954,324.791 C77.906,324.821 77.834,324.836 77.738,324.836 C77.654,324.836 77.525,324.791 77.351,324.701 C77.177,324.611 76.952,324.512 76.676,324.404 C76.4,324.296 76.061,324.197 75.659,324.107 C75.257,324.017 74.774,323.972 74.21,323.972 C73.058,323.972 72.164,324.2 71.528,324.656 C70.892,325.112 70.574,325.724 70.574,326.492 C70.574,327.008 70.721,327.407 71.015,327.689 C71.309,327.971 71.678,328.187 72.122,328.337 C72.566,328.487 73.046,328.595 73.562,328.661 C74.078,328.727 74.558,328.793 75.002,328.859 C75.446,328.925 75.815,329.018 76.109,329.138 C76.403,329.258 76.55,329.45 76.55,329.714 C76.55,329.942 76.466,330.125 76.298,330.263 C76.13,330.401 75.926,330.509 75.686,330.587 C75.446,330.665 75.203,330.716 74.957,330.74 C74.711,330.764 74.504,330.776 74.336,330.776 C74.156,330.776 73.907,330.746 73.589,330.686 C73.271,330.626 72.953,330.545 72.635,330.443 C72.317,330.341 72.044,330.215 71.816,330.065 C71.588,329.915 71.474,329.75 71.474,329.57 C71.474,329.51 71.477,329.453 71.483,329.399 C71.489,329.345 71.492,329.294 71.492,329.246 L71.492,329.246 L71.15,329.156 L70.322,331.172 L70.574,331.352 C70.634,331.28 70.706,331.244 70.79,331.244 C70.838,331.244 70.976,331.289 71.204,331.379 C71.432,331.469 71.711,331.565 72.041,331.667 C72.371,331.769 72.737,331.859 73.139,331.937 C73.541,332.015 73.946,332.054 74.354,332.054 Z M85.712,332 L85.712,331.676 C85.484,331.676 85.37,331.586 85.37,331.406 L85.37,331.406 L85.37,328.706 L88.124,325.142 C88.256,324.974 88.409,324.809 88.583,324.647 C88.757,324.485 88.916,324.404 89.06,324.404 L89.06,324.404 L89.06,324.08 L86.306,324.08 L86.306,324.404 C86.366,324.404 86.426,324.416 86.486,324.44 C86.546,324.464 86.576,324.524 86.576,324.62 C86.576,324.692 86.549,324.767 86.495,324.845 C86.441,324.923 86.36,325.04 86.252,325.196 L86.252,325.196 L84.65,327.428 L82.832,325.052 C82.772,324.968 82.718,324.896 82.67,324.836 C82.622,324.776 82.598,324.71 82.598,324.638 C82.598,324.566 82.634,324.509 82.706,324.467 C82.778,324.425 82.844,324.404 82.904,324.404 L82.904,324.404 L82.904,324.08 L79.934,324.08 L79.934,324.404 C80.042,324.404 80.156,324.428 80.276,324.476 C80.396,324.524 80.498,324.602 80.582,324.71 L80.582,324.71 L83.642,328.634 L83.642,331.406 C83.642,331.586 83.534,331.676 83.318,331.676 L83.318,331.676 L83.318,332 L85.712,332 Z M93.218,332 L93.218,331.676 C93.014,331.676 92.912,331.586 92.912,331.406 L92.912,331.406 L92.912,326.348 L92.93,326.348 L95.828,332 L95.972,332 L99.032,326.348 L99.068,326.348 L99.068,331.406 C99.104,331.586 98.996,331.676 98.744,331.676 L98.744,331.676 L98.744,332 L100.832,332 L100.832,331.676 C100.772,331.676 100.715,331.655 100.661,331.613 C100.607,331.571 100.58,331.502 100.58,331.406 L100.58,331.406 L100.58,324.638 C100.58,324.542 100.607,324.479 100.661,324.449 C100.715,324.419 100.772,324.404 100.832,324.404 L100.832,324.404 L100.832,324.08 L98.294,324.08 L98.294,324.404 C98.39,324.404 98.438,324.458 98.438,324.566 C98.438,324.602 98.414,324.665 98.366,324.755 C98.318,324.845 98.252,324.962 98.168,325.106 L98.168,325.106 L95.954,329.138 L93.758,325.088 C93.674,324.944 93.611,324.833 93.569,324.755 C93.527,324.677 93.506,324.614 93.506,324.566 C93.506,324.458 93.566,324.404 93.686,324.404 L93.686,324.404 L93.686,324.08 L91.184,324.08 L91.184,324.404 C91.268,324.404 91.325,324.422 91.355,324.458 C91.385,324.494 91.4,324.596 91.4,324.764 L91.4,324.764 L91.4,331.352 C91.4,331.484 91.379,331.568 91.337,331.604 C91.295,331.64 91.244,331.664 91.184,331.676 L91.184,331.676 L91.184,332 L93.218,332 Z M106.268,332 L106.268,331.676 C106.016,331.676 105.89,331.586 105.89,331.406 L105.89,331.406 L105.89,328.706 L108.95,328.706 C109.922,328.706 110.651,328.541 111.137,328.211 C111.623,327.881 111.866,327.284 111.866,326.42 C111.866,325.556 111.623,324.95 111.137,324.602 C110.651,324.254 109.922,324.08 108.95,324.08 L108.95,324.08 L103.712,324.08 L103.712,324.404 C104.012,324.404 104.162,324.494 104.162,324.674 L104.162,324.674 L104.162,331.406 C104.162,331.586 104.012,331.676 103.712,331.676 L103.712,331.676 L103.712,332 L106.268,332 Z M108.914,327.374 L105.89,327.374 L105.89,325.412 L108.914,325.412 C109.262,325.412 109.553,325.487 109.787,325.637 C110.021,325.787 110.138,326.048 110.138,326.42 C110.138,326.804 110.021,327.059 109.787,327.185 C109.553,327.311 109.262,327.374 108.914,327.374 L108.914,327.374 Z M118.202,332 L118.202,331.676 C117.986,331.676 117.878,331.586 117.878,331.406 L117.878,331.406 L117.878,325.412 L120.218,325.412 C120.314,325.412 120.404,325.436 120.488,325.484 C120.572,325.532 120.614,325.61 120.614,325.718 L120.614,325.718 L120.938,325.718 L120.938,323.648 L120.614,323.648 C120.614,323.816 120.572,323.93 120.488,323.99 C120.404,324.05 120.314,324.08 120.218,324.08 L120.218,324.08 L113.81,324.08 C113.714,324.08 113.624,324.05 113.54,323.99 C113.456,323.93 113.414,323.816 113.414,323.648 L113.414,323.648 L113.09,323.648 L113.09,325.718 L113.414,325.718 C113.414,325.61 113.456,325.532 113.54,325.484 C113.624,325.436 113.714,325.412 113.81,325.412 L113.81,325.412 L116.15,325.412 L116.15,331.406 C116.15,331.502 116.12,331.571 116.06,331.613 C116,331.655 115.94,331.676 115.88,331.676 L115.88,331.676 L115.88,332 L118.202,332 Z M127.004,332.054 C127.664,332.054 128.285,331.979 128.867,331.829 C129.449,331.679 129.956,331.436 130.388,331.1 C130.82,330.764 131.162,330.341 131.414,329.831 C131.666,329.321 131.792,328.724 131.792,328.04 C131.792,327.356 131.666,326.759 131.414,326.249 C131.162,325.739 130.82,325.316 130.388,324.98 C129.956,324.644 129.449,324.392 128.867,324.224 C128.285,324.056 127.664,323.972 127.004,323.972 C126.344,323.972 125.723,324.056 125.141,324.224 C124.559,324.392 124.052,324.644 123.62,324.98 C123.188,325.316 122.846,325.739 122.594,326.249 C122.342,326.759 122.216,327.356 122.216,328.04 C122.216,328.724 122.342,329.321 122.594,329.831 C122.846,330.341 123.188,330.764 123.62,331.1 C124.052,331.436 124.559,331.679 125.141,331.829 C125.723,331.979 126.344,332.054 127.004,332.054 Z M127.004,330.776 C126.62,330.776 126.245,330.713 125.879,330.587 C125.513,330.461 125.186,330.281 124.898,330.047 C124.61,329.813 124.379,329.528 124.205,329.192 C124.031,328.856 123.944,328.472 123.944,328.04 C123.944,327.608 124.031,327.224 124.205,326.888 C124.379,326.552 124.61,326.267 124.898,326.033 C125.186,325.799 125.513,325.619 125.879,325.493 C126.245,325.367 126.62,325.304 127.004,325.304 C127.388,325.304 127.763,325.367 128.129,325.493 C128.495,325.619 128.822,325.799 129.11,326.033 C129.398,326.267 129.629,326.552 129.803,326.888 C129.977,327.224 130.064,327.608 130.064,328.04 C130.064,328.472 129.977,328.856 129.803,329.192 C129.629,329.528 129.398,329.813 129.11,330.047 C128.822,330.281 128.495,330.461 128.129,330.587 C127.763,330.713 127.388,330.776 127.004,330.776 Z M136.22,332 L136.22,331.676 C136.016,331.676 135.914,331.586 135.914,331.406 L135.914,331.406 L135.914,326.348 L135.932,326.348 L138.83,332 L138.974,332 L142.034,326.348 L142.07,326.348 L142.07,331.406 C142.106,331.586 141.998,331.676 141.746,331.676 L141.746,331.676 L141.746,332 L143.834,332 L143.834,331.676 C143.774,331.676 143.717,331.655 143.663,331.613 C143.609,331.571 143.582,331.502 143.582,331.406 L143.582,331.406 L143.582,324.638 C143.582,324.542 143.609,324.479 143.663,324.449 C143.717,324.419 143.774,324.404 143.834,324.404 L143.834,324.404 L143.834,324.08 L141.296,324.08 L141.296,324.404 C141.392,324.404 141.44,324.458 141.44,324.566 C141.44,324.602 141.416,324.665 141.368,324.755 C141.32,324.845 141.254,324.962 141.17,325.106 L141.17,325.106 L138.956,329.138 L136.76,325.088 C136.676,324.944 136.613,324.833 136.571,324.755 C136.529,324.677 136.508,324.614 136.508,324.566 C136.508,324.458 136.568,324.404 136.688,324.404 L136.688,324.404 L136.688,324.08 L134.186,324.08 L134.186,324.404 C134.27,324.404 134.327,324.422 134.357,324.458 C134.387,324.494 134.402,324.596 134.402,324.764 L134.402,324.764 L134.402,331.352 C134.402,331.484 134.381,331.568 134.339,331.604 C134.297,331.64 134.246,331.664 134.186,331.676 L134.186,331.676 L134.186,332 L136.22,332 Z M154.76,332 L154.76,331.676 C154.508,331.676 154.382,331.586 154.382,331.406 L154.382,331.406 L154.382,328.706 L157.442,328.706 C158.414,328.706 159.143,328.541 159.629,328.211 C160.115,327.881 160.358,327.284 160.358,326.42 C160.358,325.556 160.115,324.95 159.629,324.602 C159.143,324.254 158.414,324.08 157.442,324.08 L157.442,324.08 L152.204,324.08 L152.204,324.404 C152.504,324.404 152.654,324.494 152.654,324.674 L152.654,324.674 L152.654,331.406 C152.654,331.586 152.504,331.676 152.204,331.676 L152.204,331.676 L152.204,332 L154.76,332 Z M157.406,327.374 L154.382,327.374 L154.382,325.412 L157.406,325.412 C157.754,325.412 158.045,325.487 158.279,325.637 C158.513,325.787 158.63,326.048 158.63,326.42 C158.63,326.804 158.513,327.059 158.279,327.185 C158.045,327.311 157.754,327.374 157.406,327.374 L157.406,327.374 Z M165.362,332 L165.362,331.676 C165.026,331.676 164.858,331.586 164.858,331.406 L164.858,331.406 L164.858,324.674 C164.858,324.494 165.026,324.404 165.362,324.404 L165.362,324.404 L165.362,324.08 L162.626,324.08 L162.626,324.404 C162.818,324.404 162.95,324.425 163.022,324.467 C163.094,324.509 163.13,324.578 163.13,324.674 L163.13,324.674 L163.13,331.406 C163.13,331.502 163.094,331.571 163.022,331.613 C162.95,331.655 162.818,331.676 162.626,331.676 L162.626,331.676 L162.626,332 L165.362,332 Z M176.252,332.18 L176.252,330.29 L175.928,330.29 C175.928,330.41 175.88,330.503 175.784,330.569 C175.688,330.635 175.568,330.668 175.424,330.668 L175.424,330.668 L170.564,330.668 L170.564,324.674 C170.564,324.494 170.702,324.404 170.978,324.404 L170.978,324.404 L170.978,324.08 L168.368,324.08 L168.368,324.404 C168.68,324.404 168.836,324.494 168.836,324.674 L168.836,324.674 L168.836,331.406 C168.836,331.586 168.68,331.676 168.368,331.676 L168.368,331.676 L168.368,332 L175.424,332 C175.568,332 175.688,332.006 175.784,332.018 C175.88,332.03 175.928,332.084 175.928,332.18 L175.928,332.18 L176.252,332.18 Z M185.918,332.198 L185.918,330.308 L185.594,330.308 C185.594,330.416 185.546,330.503 185.45,330.569 C185.354,330.635 185.234,330.668 185.09,330.668 L185.09,330.668 L180.482,330.668 L180.482,328.544 L183.11,328.544 C183.35,328.544 183.536,328.559 183.668,328.589 C183.8,328.619 183.848,328.7 183.812,328.832 L183.812,328.832 L184.172,328.832 L184.172,326.924 L183.848,326.924 C183.848,327.056 183.8,327.137 183.704,327.167 C183.608,327.197 183.458,327.212 183.254,327.212 L183.254,327.212 L180.482,327.212 L180.482,325.412 L184.874,325.412 C185.246,325.412 185.432,325.526 185.432,325.754 L185.432,325.754 L185.756,325.754 L185.756,323.756 L185.432,323.756 C185.432,323.972 185.246,324.08 184.874,324.08 L184.874,324.08 L178.484,324.08 L178.484,324.404 C178.544,324.404 178.604,324.425 178.664,324.467 C178.724,324.509 178.754,324.578 178.754,324.674 L178.754,324.674 L178.754,331.406 C178.754,331.502 178.724,331.571 178.664,331.613 C178.604,331.655 178.544,331.676 178.484,331.676 L178.484,331.676 L178.484,332 L185.09,332 C185.234,332 185.354,332.006 185.45,332.018 C185.546,332.03 185.594,332.09 185.594,332.198 L185.594,332.198 L185.918,332.198 Z M189.752,332.054 C190.1,332.054 190.4,331.937 190.652,331.703 C190.904,331.469 191.03,331.178 191.03,330.83 C191.03,330.482 190.904,330.182 190.652,329.93 C190.4,329.678 190.1,329.552 189.752,329.552 C189.404,329.552 189.104,329.678 188.852,329.93 C188.6,330.182 188.474,330.482 188.474,330.83 C188.474,331.178 188.6,331.469 188.852,331.703 C189.104,331.937 189.404,332.054 189.752,332.054 Z" id="NowIknowhowgrandmafeels.Addthistoyoursymptompile." fill="#000000" fill-rule="nonzero"></path>
    </g>
</svg>