<?xml version="1.0" encoding="UTF-8"?>
<svg width="262px" height="360px" viewBox="0 0 262 360" version="1.1" xmlns="http://www.w3.org/2000/svg" xmlns:xlink="http://www.w3.org/1999/xlink">
    <title>Rash 3</title>
    <g id="Rash-3" stroke="none" stroke-width="1" fill="none" fill-rule="evenodd">
        <g id="Group" transform="translate(9.000000, 9.000000)" fill="#FFFFFF" stroke="#000000" stroke-width="3">
            <g id="Rectangle">
                <rect x="1.5" y="1.5" width="239" height="337" rx="8"></rect>
            </g>
        </g>
        <path d="M216.124,30 L216.124,29.712 C215.964,29.712 215.82,29.668 215.692,29.58 C215.564,29.492 215.5,29.312 215.5,29.04 L215.5,29.04 L215.5,18.048 C215.5,17.888 215.564,17.768 215.692,17.688 C215.82,17.608 215.98,17.552 216.172,17.52 L216.172,17.52 L216.172,17.232 L212.284,17.232 L212.284,17.52 C212.46,17.552 212.6,17.6 212.704,17.664 C212.808,17.728 212.86,17.872 212.86,18.096 C212.86,18.336 212.768,18.54 212.584,18.708 C212.4,18.876 212.172,18.96 211.9,18.96 C211.772,18.96 211.636,18.932 211.492,18.876 C211.348,18.82 211.276,18.72 211.276,18.576 L211.276,18.576 L210.988,18.576 L210.988,21.6 L211.276,21.6 C211.324,21.472 211.408,21.372 211.528,21.3 C211.648,21.228 211.78,21.172 211.924,21.132 C212.068,21.092 212.216,21.064 212.368,21.048 C212.52,21.032 212.652,21.024 212.764,21.024 L212.764,21.024 L212.764,29.04 C212.764,29.312 212.704,29.492 212.584,29.58 C212.464,29.668 212.324,29.712 212.164,29.712 L212.164,29.712 L212.164,30 L216.124,30 Z" id="1" fill="#000000" fill-rule="nonzero"></path>
        <g id="Face" transform="translate(225.000000, 15.000000)">
            <circle id="Oval" stroke="#000000" fill="#FFFFFF" cx="9.5" cy="9.5" r="9"></circle>
            <circle id="Oval" fill="#000000" cx="5" cy="8" r="1"></circle>
            <circle id="Oval-Copy" fill="#000000" cx="12" cy="8" r="1"></circle>
            <line x1="12.0789474" y1="13.9090909" x2="14.5" y2="11.5" id="Line-4" stroke="#000000" stroke-linecap="round"></line>
            <path d="M3,5.89285714 C3.41025641,5.96428571 3.76923077,6 4.07692308,6 C4.38461538,6 5.35897436,5.33333333 7,4" id="Line-2" stroke="#000000"></path>
            <path d="M6,15 C6.96078431,14.3333333 8.07598039,14 9.34558824,14 C10.6151961,14 11.8333333,14.3333333 13,15" id="Line" stroke="#000000" stroke-linecap="round" stroke-linejoin="round"></path>
            <path d="M11.3197366,4.68245322 C11.585843,4.80663622 11.7912611,4.92388646 11.9359908,5.03420394 C12.548667,5.50120471 13.1333088,5.70898724 13.3155349,5.80010028 C13.5440857,5.91437569 13.8101922,6.00751295 14.1138542,6.07951204" id="Line-3" stroke="#000000" stroke-linecap="square" transform="translate(12.716795, 5.380983) rotate(-3.000000) translate(-12.716795, -5.380983) "></path>
            <path d="M2.999,9.347 L3.01687864,9.39698204 C3.09438102,9.62639002 3.1880913,9.89570266 3.30282211,10.2112791 C3.48139895,10.7024692 3.54804655,11.0169045 3.47980817,11.2204078 C3.41244402,11.421304 3.17143148,11.4011566 3.01518318,11.4416373 L3.01518318,11.4416373 L2.86575433,11.4813457 C2.78836954,11.5029149 2.70310591,11.5126925 2.63007237,11.4810832 C2.58941161,11.463485 2.56030088,11.4264037 2.54036126,11.376794 C2.4446463,11.1386559 2.49784548,10.759559 2.69717789,10.2112791 C2.8119087,9.89570266 2.90561898,9.62639002 2.98312136,9.39698204 L2.999,9.347 Z" id="Oval" stroke="#000000"></path>
            <path d="M16,6.347 L16.0168786,6.39698204 C16.094381,6.62639002 16.1880913,6.89570266 16.3028221,7.21127907 C16.481399,7.70246915 16.5480465,8.01690453 16.4798082,8.22040783 C16.412444,8.42130397 16.1714315,8.40115659 16.0151832,8.44163726 L16.0151832,8.44163726 L15.8657543,8.48134574 C15.7883695,8.50291486 15.7031059,8.51269255 15.6300724,8.48108319 C15.5894116,8.46348497 15.5603009,8.42640366 15.5403613,8.37679403 C15.4446463,8.13865595 15.4978455,7.75955902 15.6971779,7.21127907 C15.8119087,6.89570266 15.905619,6.62639002 15.9831214,6.39698204 L16,6.347 Z" id="Oval-Copy-2" stroke="#000000"></path>
        </g>
        <rect id="Rectangle" stroke="#000000" stroke-width="3" x="17.5" y="259.5" width="225" height="82" rx="8"></rect>
        <path d="M96.405,57 L96.405,56.46 C96.065,56.46 95.83,56.415 95.7,56.325 C95.57,56.235 95.505,56.1 95.505,55.92 L95.505,55.92 L95.505,50.58 L99.795,50.58 L103.095,55.26 C103.255,55.48 103.375,55.655 103.455,55.785 C103.535,55.915 103.575,56.03 103.575,56.13 C103.575,56.23 103.51,56.31 103.38,56.37 C103.25,56.43 103.095,56.46 102.915,56.46 L102.915,56.46 L102.915,57 L108.525,57 L108.525,56.46 C108.365,56.46 108.19,56.44 108,56.4 C107.81,56.36 107.645,56.24 107.505,56.04 L107.505,56.04 L103.515,50.34 C104.835,50.1 105.885,49.63 106.665,48.93 C107.445,48.23 107.835,47.22 107.835,45.9 C107.835,45.04 107.685,44.315 107.385,43.725 C107.085,43.135 106.655,42.655 106.095,42.285 C105.535,41.915 104.865,41.645 104.085,41.475 C103.305,41.305 102.435,41.22 101.475,41.22 L101.475,41.22 L91.215,41.22 L91.215,41.76 C91.795,41.76 92.085,41.94 92.085,42.3 L92.085,42.3 L92.085,55.92 C92.085,56.28 91.795,56.46 91.215,56.46 L91.215,56.46 L91.215,57 L96.405,57 Z M100.695,48.24 L95.505,48.24 L95.505,43.8 L100.695,43.8 C101.415,43.8 102.015,43.855 102.495,43.965 C102.975,44.075 103.355,44.23 103.635,44.43 C103.915,44.63 104.115,44.865 104.235,45.135 C104.355,45.405 104.415,45.7 104.415,46.02 C104.415,46.34 104.355,46.635 104.235,46.905 C104.115,47.175 103.915,47.41 103.635,47.61 C103.355,47.81 102.975,47.965 102.495,48.075 C102.015,48.185 101.415,48.24 100.695,48.24 L100.695,48.24 Z M114.945,57 L114.945,56.46 C114.765,56.46 114.625,56.44 114.525,56.4 C114.425,56.36 114.375,56.26 114.375,56.1 C114.375,56 114.4,55.885 114.45,55.755 C114.5,55.625 114.565,55.48 114.645,55.32 L114.645,55.32 L115.485,53.7 L121.905,53.7 L122.715,55.41 C122.775,55.57 122.825,55.7 122.865,55.8 C122.905,55.9 122.925,56.01 122.925,56.13 C122.925,56.29 122.87,56.4 122.76,56.46 C122.65,56.52 122.545,56.55 122.445,56.55 L122.445,56.55 L122.445,57 L126.705,57 L126.705,56.46 C126.565,56.42 126.435,56.36 126.315,56.28 C126.195,56.2 126.085,56.07 125.985,55.89 L125.985,55.89 L121.125,45.69 C121.025,45.47 120.93,45.275 120.84,45.105 C120.75,44.935 120.705,44.79 120.705,44.67 C120.705,44.53 120.74,44.45 120.81,44.43 C120.88,44.41 120.945,44.38 121.005,44.34 L121.005,44.34 L121.005,43.8 L116.475,43.8 L116.475,44.34 C116.535,44.38 116.59,44.415 116.64,44.445 C116.69,44.475 116.715,44.55 116.715,44.67 C116.715,44.83 116.68,44.995 116.61,45.165 C116.54,45.335 116.445,45.56 116.325,45.84 L116.325,45.84 L111.855,55.59 C111.775,55.75 111.66,55.925 111.51,56.115 C111.36,56.305 111.165,56.42 110.925,56.46 L110.925,56.46 L110.925,57 L114.945,57 Z M120.945,51.48 L116.385,51.48 L118.515,46.44 L120.945,51.48 Z M135.255,57.09 C135.935,57.09 136.66,57.04 137.43,56.94 C138.2,56.84 138.905,56.63 139.545,56.31 C140.185,55.99 140.72,55.55 141.15,54.99 C141.58,54.43 141.795,53.71 141.795,52.83 C141.795,51.95 141.55,51.26 141.06,50.76 C140.57,50.26 139.955,49.88 139.215,49.62 C138.475,49.36 137.675,49.175 136.815,49.065 C135.955,48.955 135.155,48.845 134.415,48.735 C133.675,48.625 133.06,48.475 132.57,48.285 C132.08,48.095 131.835,47.78 131.835,47.34 C131.835,47.06 131.915,46.825 132.075,46.635 C132.235,46.445 132.455,46.29 132.735,46.17 C133.015,46.05 133.335,45.965 133.695,45.915 C134.055,45.865 134.435,45.84 134.835,45.84 C135.875,45.84 136.815,45.96 137.655,46.2 C138.495,46.44 139.115,46.73 139.515,47.07 C139.675,47.19 139.765,47.31 139.785,47.43 L139.785,47.43 L139.845,47.79 L140.385,47.97 L141.885,45.15 L141.555,44.82 C141.435,44.88 141.335,44.935 141.255,44.985 C141.175,45.035 141.055,45.06 140.895,45.06 C140.755,45.06 140.54,44.985 140.25,44.835 C139.96,44.685 139.585,44.52 139.125,44.34 C138.665,44.16 138.1,43.995 137.43,43.845 C136.76,43.695 135.955,43.62 135.015,43.62 C133.095,43.62 131.605,44 130.545,44.76 C129.485,45.52 128.955,46.54 128.955,47.82 C128.955,48.68 129.2,49.345 129.69,49.815 C130.18,50.285 130.795,50.645 131.535,50.895 C132.275,51.145 133.075,51.325 133.935,51.435 C134.795,51.545 135.595,51.655 136.335,51.765 C137.075,51.875 137.69,52.03 138.18,52.23 C138.67,52.43 138.915,52.75 138.915,53.19 C138.915,53.57 138.775,53.875 138.495,54.105 C138.215,54.335 137.875,54.515 137.475,54.645 C137.075,54.775 136.67,54.86 136.26,54.9 C135.85,54.94 135.505,54.96 135.225,54.96 C134.925,54.96 134.51,54.91 133.98,54.81 C133.45,54.71 132.92,54.575 132.39,54.405 C131.86,54.235 131.405,54.025 131.025,53.775 C130.645,53.525 130.455,53.25 130.455,52.95 C130.455,52.85 130.46,52.755 130.47,52.665 C130.48,52.575 130.485,52.49 130.485,52.41 L130.485,52.41 L129.915,52.26 L128.535,55.62 L128.955,55.92 C129.055,55.8 129.175,55.74 129.315,55.74 C129.395,55.74 129.625,55.815 130.005,55.965 C130.385,56.115 130.85,56.275 131.4,56.445 C131.95,56.615 132.56,56.765 133.23,56.895 C133.9,57.025 134.575,57.09 135.255,57.09 Z M150.255,57 L150.255,56.46 C150.135,56.46 150.03,56.425 149.94,56.355 C149.85,56.285 149.805,56.17 149.805,56.01 L149.805,56.01 L149.805,51.48 L157.845,51.48 L157.845,56.01 C157.845,56.17 157.8,56.285 157.71,56.355 C157.62,56.425 157.515,56.46 157.395,56.46 L157.395,56.46 L157.395,57 L161.175,57 L161.175,56.46 C161.055,56.46 160.95,56.425 160.86,56.355 C160.77,56.285 160.725,56.17 160.725,56.01 L160.725,56.01 L160.725,44.79 C160.725,44.63 160.77,44.515 160.86,44.445 C160.95,44.375 161.055,44.34 161.175,44.34 L161.175,44.34 L161.175,43.8 L157.395,43.8 L157.395,44.34 C157.515,44.34 157.62,44.375 157.71,44.445 C157.8,44.515 157.845,44.63 157.845,44.79 L157.845,44.79 L157.845,49.02 L149.805,49.02 L149.805,44.79 C149.805,44.63 149.85,44.515 149.94,44.445 C150.03,44.375 150.135,44.34 150.255,44.34 L150.255,44.34 L150.255,43.8 L146.475,43.8 L146.475,44.34 C146.595,44.34 146.7,44.375 146.79,44.445 C146.88,44.515 146.925,44.63 146.925,44.79 L146.925,44.79 L146.925,56.01 C146.925,56.17 146.88,56.285 146.79,56.355 C146.7,56.425 146.595,56.46 146.475,56.46 L146.475,56.46 L146.475,57 L150.255,57 Z M166.245,57 L173.445,41.04 L170.145,41.04 L163.005,57 L166.245,57 Z M34.335,87 C35.435,87 36.46,86.84 37.41,86.52 C38.36,86.2 39.185,85.715 39.885,85.065 C40.585,84.415 41.135,83.595 41.535,82.605 C41.935,81.615 42.135,80.45 42.135,79.11 C42.135,77.77 41.935,76.605 41.535,75.615 C41.135,74.625 40.585,73.805 39.885,73.155 C39.185,72.505 38.36,72.02 37.41,71.7 C36.46,71.38 35.435,71.22 34.335,71.22 L34.335,71.22 L24.375,71.22 L24.375,71.76 C24.835,71.76 25.065,71.94 25.065,72.3 L25.065,72.3 L25.065,85.92 C25.065,86.28 24.835,86.46 24.375,86.46 L24.375,86.46 L24.375,87 L34.335,87 Z M33.135,84.42 L28.485,84.42 L28.485,73.8 L33.135,73.8 C34.075,73.8 34.895,73.88 35.595,74.04 C36.295,74.2 36.875,74.485 37.335,74.895 C37.795,75.305 38.14,75.85 38.37,76.53 C38.6,77.21 38.715,78.07 38.715,79.11 C38.715,80.15 38.6,81.01 38.37,81.69 C38.14,82.37 37.795,82.915 37.335,83.325 C36.875,83.735 36.295,84.02 35.595,84.18 C34.895,84.34 34.075,84.42 33.135,84.42 L33.135,84.42 Z M51.075,87 L51.075,86.46 C50.515,86.46 50.235,86.31 50.235,86.01 L50.235,86.01 L50.235,74.79 C50.235,74.49 50.515,74.34 51.075,74.34 L51.075,74.34 L51.075,73.8 L46.515,73.8 L46.515,74.34 C46.835,74.34 47.055,74.375 47.175,74.445 C47.295,74.515 47.355,74.63 47.355,74.79 L47.355,74.79 L47.355,86.01 C47.355,86.17 47.295,86.285 47.175,86.355 C47.055,86.425 46.835,86.46 46.515,86.46 L46.515,86.46 L46.515,87 L51.075,87 Z M61.905,87.09 C62.585,87.09 63.31,87.04 64.08,86.94 C64.85,86.84 65.555,86.63 66.195,86.31 C66.835,85.99 67.37,85.55 67.8,84.99 C68.23,84.43 68.445,83.71 68.445,82.83 C68.445,81.95 68.2,81.26 67.71,80.76 C67.22,80.26 66.605,79.88 65.865,79.62 C65.125,79.36 64.325,79.175 63.465,79.065 C62.605,78.955 61.805,78.845 61.065,78.735 C60.325,78.625 59.71,78.475 59.22,78.285 C58.73,78.095 58.485,77.78 58.485,77.34 C58.485,77.06 58.565,76.825 58.725,76.635 C58.885,76.445 59.105,76.29 59.385,76.17 C59.665,76.05 59.985,75.965 60.345,75.915 C60.705,75.865 61.085,75.84 61.485,75.84 C62.525,75.84 63.465,75.96 64.305,76.2 C65.145,76.44 65.765,76.73 66.165,77.07 C66.325,77.19 66.415,77.31 66.435,77.43 L66.435,77.43 L66.495,77.79 L67.035,77.97 L68.535,75.15 L68.205,74.82 C68.085,74.88 67.985,74.935 67.905,74.985 C67.825,75.035 67.705,75.06 67.545,75.06 C67.405,75.06 67.19,74.985 66.9,74.835 C66.61,74.685 66.235,74.52 65.775,74.34 C65.315,74.16 64.75,73.995 64.08,73.845 C63.41,73.695 62.605,73.62 61.665,73.62 C59.745,73.62 58.255,74 57.195,74.76 C56.135,75.52 55.605,76.54 55.605,77.82 C55.605,78.68 55.85,79.345 56.34,79.815 C56.83,80.285 57.445,80.645 58.185,80.895 C58.925,81.145 59.725,81.325 60.585,81.435 C61.445,81.545 62.245,81.655 62.985,81.765 C63.725,81.875 64.34,82.03 64.83,82.23 C65.32,82.43 65.565,82.75 65.565,83.19 C65.565,83.57 65.425,83.875 65.145,84.105 C64.865,84.335 64.525,84.515 64.125,84.645 C63.725,84.775 63.32,84.86 62.91,84.9 C62.5,84.94 62.155,84.96 61.875,84.96 C61.575,84.96 61.16,84.91 60.63,84.81 C60.1,84.71 59.57,84.575 59.04,84.405 C58.51,84.235 58.055,84.025 57.675,83.775 C57.295,83.525 57.105,83.25 57.105,82.95 C57.105,82.85 57.11,82.755 57.12,82.665 C57.13,82.575 57.135,82.49 57.135,82.41 L57.135,82.41 L56.565,82.26 L55.185,85.62 L55.605,85.92 C55.705,85.8 55.825,85.74 55.965,85.74 C56.045,85.74 56.275,85.815 56.655,85.965 C57.035,86.115 57.5,86.275 58.05,86.445 C58.6,86.615 59.21,86.765 59.88,86.895 C60.55,87.025 61.225,87.09 61.905,87.09 Z M78.945,87.09 C79.845,87.09 80.66,87.01 81.39,86.85 C82.12,86.69 82.76,86.495 83.31,86.265 C83.86,86.035 84.315,85.83 84.675,85.65 C85.035,85.47 85.295,85.38 85.455,85.38 C85.555,85.38 85.725,85.43 85.965,85.53 L85.965,85.53 L86.265,85.38 L84.045,82.2 L83.715,82.5 C83.735,82.58 83.745,82.68 83.745,82.8 L83.745,82.8 L83.745,83.04 C83.745,83.22 83.6,83.42 83.31,83.64 C83.02,83.86 82.645,84.065 82.185,84.255 C81.725,84.445 81.215,84.61 80.655,84.75 C80.095,84.89 79.545,84.96 79.005,84.96 C78.425,84.96 77.855,84.855 77.295,84.645 C76.735,84.435 76.235,84.125 75.795,83.715 C75.355,83.305 75,82.815 74.73,82.245 C74.46,81.675 74.325,81.03 74.325,80.31 C74.325,79.59 74.445,78.95 74.685,78.39 C74.925,77.83 75.265,77.36 75.705,76.98 C76.145,76.6 76.66,76.315 77.25,76.125 C77.84,75.935 78.495,75.84 79.215,75.84 C79.815,75.84 80.365,75.895 80.865,76.005 C81.365,76.115 81.8,76.25 82.17,76.41 C82.54,76.57 82.825,76.735 83.025,76.905 C83.225,77.075 83.325,77.21 83.325,77.31 C83.325,77.37 83.33,77.42 83.34,77.46 C83.35,77.5 83.355,77.54 83.355,77.58 L83.355,77.58 L83.685,77.82 L85.665,74.97 L85.305,74.76 C85.225,74.8 85.15,74.85 85.08,74.91 C85.01,74.97 84.925,75 84.825,75 C84.685,75 84.455,74.93 84.135,74.79 C83.815,74.65 83.415,74.49 82.935,74.31 C82.455,74.13 81.9,73.97 81.27,73.83 C80.64,73.69 79.945,73.62 79.185,73.62 C78.205,73.62 77.25,73.76 76.32,74.04 C75.39,74.32 74.565,74.745 73.845,75.315 C73.125,75.885 72.545,76.59 72.105,77.43 C71.665,78.27 71.445,79.25 71.445,80.37 C71.445,81.49 71.665,82.475 72.105,83.325 C72.545,84.175 73.115,84.885 73.815,85.455 C74.515,86.025 75.315,86.44 76.215,86.7 C77.115,86.96 78.025,87.09 78.945,87.09 Z M96.315,87.09 C97.415,87.09 98.45,86.965 99.42,86.715 C100.39,86.465 101.235,86.06 101.955,85.5 C102.675,84.94 103.245,84.235 103.665,83.385 C104.085,82.535 104.295,81.54 104.295,80.4 C104.295,79.26 104.085,78.265 103.665,77.415 C103.245,76.565 102.675,75.86 101.955,75.3 C101.235,74.74 100.39,74.32 99.42,74.04 C98.45,73.76 97.415,73.62 96.315,73.62 C95.215,73.62 94.18,73.76 93.21,74.04 C92.24,74.32 91.395,74.74 90.675,75.3 C89.955,75.86 89.385,76.565 88.965,77.415 C88.545,78.265 88.335,79.26 88.335,80.4 C88.335,81.54 88.545,82.535 88.965,83.385 C89.385,84.235 89.955,84.94 90.675,85.5 C91.395,86.06 92.24,86.465 93.21,86.715 C94.18,86.965 95.215,87.09 96.315,87.09 Z M96.315,84.96 C95.675,84.96 95.05,84.855 94.44,84.645 C93.83,84.435 93.285,84.135 92.805,83.745 C92.325,83.355 91.94,82.88 91.65,82.32 C91.36,81.76 91.215,81.12 91.215,80.4 C91.215,79.68 91.36,79.04 91.65,78.48 C91.94,77.92 92.325,77.445 92.805,77.055 C93.285,76.665 93.83,76.365 94.44,76.155 C95.05,75.945 95.675,75.84 96.315,75.84 C96.955,75.84 97.58,75.945 98.19,76.155 C98.8,76.365 99.345,76.665 99.825,77.055 C100.305,77.445 100.69,77.92 100.98,78.48 C101.27,79.04 101.415,79.68 101.415,80.4 C101.415,81.12 101.27,81.76 100.98,82.32 C100.69,82.88 100.305,83.355 99.825,83.745 C99.345,84.135 98.8,84.435 98.19,84.645 C97.58,84.855 96.955,84.96 96.315,84.96 Z M120.915,87.3 L120.915,84.15 L120.375,84.15 C120.375,84.35 120.295,84.505 120.135,84.615 C119.975,84.725 119.775,84.78 119.535,84.78 L119.535,84.78 L111.435,84.78 L111.435,74.79 C111.435,74.49 111.665,74.34 112.125,74.34 L112.125,74.34 L112.125,73.8 L107.775,73.8 L107.775,74.34 C108.295,74.34 108.555,74.49 108.555,74.79 L108.555,74.79 L108.555,86.01 C108.555,86.31 108.295,86.46 107.775,86.46 L107.775,86.46 L107.775,87 L119.535,87 C119.775,87 119.975,87.01 120.135,87.03 C120.295,87.05 120.375,87.14 120.375,87.3 L120.375,87.3 L120.915,87.3 Z M131.325,87.09 C132.425,87.09 133.46,86.965 134.43,86.715 C135.4,86.465 136.245,86.06 136.965,85.5 C137.685,84.94 138.255,84.235 138.675,83.385 C139.095,82.535 139.305,81.54 139.305,80.4 C139.305,79.26 139.095,78.265 138.675,77.415 C138.255,76.565 137.685,75.86 136.965,75.3 C136.245,74.74 135.4,74.32 134.43,74.04 C133.46,73.76 132.425,73.62 131.325,73.62 C130.225,73.62 129.19,73.76 128.22,74.04 C127.25,74.32 126.405,74.74 125.685,75.3 C124.965,75.86 124.395,76.565 123.975,77.415 C123.555,78.265 123.345,79.26 123.345,80.4 C123.345,81.54 123.555,82.535 123.975,83.385 C124.395,84.235 124.965,84.94 125.685,85.5 C126.405,86.06 127.25,86.465 128.22,86.715 C129.19,86.965 130.225,87.09 131.325,87.09 Z M131.325,84.96 C130.685,84.96 130.06,84.855 129.45,84.645 C128.84,84.435 128.295,84.135 127.815,83.745 C127.335,83.355 126.95,82.88 126.66,82.32 C126.37,81.76 126.225,81.12 126.225,80.4 C126.225,79.68 126.37,79.04 126.66,78.48 C126.95,77.92 127.335,77.445 127.815,77.055 C128.295,76.665 128.84,76.365 129.45,76.155 C130.06,75.945 130.685,75.84 131.325,75.84 C131.965,75.84 132.59,75.945 133.2,76.155 C133.81,76.365 134.355,76.665 134.835,77.055 C135.315,77.445 135.7,77.92 135.99,78.48 C136.28,79.04 136.425,79.68 136.425,80.4 C136.425,81.12 136.28,81.76 135.99,82.32 C135.7,82.88 135.315,83.355 134.835,83.745 C134.355,84.135 133.81,84.435 133.2,84.645 C132.59,84.855 131.965,84.96 131.325,84.96 Z M146.835,87 L146.835,86.46 C146.715,86.46 146.59,86.425 146.46,86.355 C146.33,86.285 146.265,86.17 146.265,86.01 L146.265,86.01 L146.265,81.72 L150.435,81.72 L152.805,85.26 C153.105,85.68 153.255,85.99 153.255,86.19 C153.255,86.37 153.125,86.46 152.865,86.46 L152.865,86.46 L152.865,87 L157.455,87 L157.455,86.46 C157.235,86.4 157.03,86.315 156.84,86.205 C156.65,86.095 156.475,85.93 156.315,85.71 L156.315,85.71 L153.375,81.42 C153.795,81.32 154.205,81.175 154.605,80.985 C155.005,80.795 155.37,80.545 155.7,80.235 C156.03,79.925 156.295,79.56 156.495,79.14 C156.695,78.72 156.795,78.24 156.795,77.7 C156.795,76.28 156.295,75.275 155.295,74.685 C154.295,74.095 152.905,73.8 151.125,73.8 L151.125,73.8 L142.845,73.8 L142.845,74.34 C143.205,74.34 143.385,74.49 143.385,74.79 L143.385,74.79 L143.385,86.01 C143.385,86.31 143.205,86.46 142.845,86.46 L142.845,86.46 L142.845,87 L146.835,87 Z M151.065,79.5 L146.325,79.5 L146.325,76.02 L151.065,76.02 C152.085,76.02 152.83,76.165 153.3,76.455 C153.77,76.745 154.005,77.14 154.005,77.64 C154.005,78.88 153.025,79.5 151.065,79.5 L151.065,79.5 Z M163.305,87 L163.305,86.46 C163.125,86.46 162.985,86.44 162.885,86.4 C162.785,86.36 162.735,86.26 162.735,86.1 C162.735,86 162.76,85.885 162.81,85.755 C162.86,85.625 162.925,85.48 163.005,85.32 L163.005,85.32 L163.845,83.7 L170.265,83.7 L171.075,85.41 C171.135,85.57 171.185,85.7 171.225,85.8 C171.265,85.9 171.285,86.01 171.285,86.13 C171.285,86.29 171.23,86.4 171.12,86.46 C171.01,86.52 170.905,86.55 170.805,86.55 L170.805,86.55 L170.805,87 L175.065,87 L175.065,86.46 C174.925,86.42 174.795,86.36 174.675,86.28 C174.555,86.2 174.445,86.07 174.345,85.89 L174.345,85.89 L169.485,75.69 C169.385,75.47 169.29,75.275 169.2,75.105 C169.11,74.935 169.065,74.79 169.065,74.67 C169.065,74.53 169.1,74.45 169.17,74.43 C169.24,74.41 169.305,74.38 169.365,74.34 L169.365,74.34 L169.365,73.8 L164.835,73.8 L164.835,74.34 C164.895,74.38 164.95,74.415 165,74.445 C165.05,74.475 165.075,74.55 165.075,74.67 C165.075,74.83 165.04,74.995 164.97,75.165 C164.9,75.335 164.805,75.56 164.685,75.84 L164.685,75.84 L160.215,85.59 C160.135,85.75 160.02,85.925 159.87,86.115 C159.72,86.305 159.525,86.42 159.285,86.46 L159.285,86.46 L159.285,87 L163.305,87 Z M169.305,81.48 L164.745,81.48 L166.875,76.44 L169.305,81.48 Z M184.995,87 L184.995,86.46 C184.635,86.46 184.455,86.31 184.455,86.01 L184.455,86.01 L184.455,76.02 L188.355,76.02 C188.515,76.02 188.665,76.06 188.805,76.14 C188.945,76.22 189.015,76.35 189.015,76.53 L189.015,76.53 L189.555,76.53 L189.555,73.08 L189.015,73.08 C189.015,73.36 188.945,73.55 188.805,73.65 C188.665,73.75 188.515,73.8 188.355,73.8 L188.355,73.8 L177.675,73.8 C177.515,73.8 177.365,73.75 177.225,73.65 C177.085,73.55 177.015,73.36 177.015,73.08 L177.015,73.08 L176.475,73.08 L176.475,76.53 L177.015,76.53 C177.015,76.35 177.085,76.22 177.225,76.14 C177.365,76.06 177.515,76.02 177.675,76.02 L177.675,76.02 L181.575,76.02 L181.575,86.01 C181.575,86.17 181.525,86.285 181.425,86.355 C181.325,86.425 181.225,86.46 181.125,86.46 L181.125,86.46 L181.125,87 L184.995,87 Z M197.775,87 L197.775,86.46 C197.215,86.46 196.935,86.31 196.935,86.01 L196.935,86.01 L196.935,74.79 C196.935,74.49 197.215,74.34 197.775,74.34 L197.775,74.34 L197.775,73.8 L193.215,73.8 L193.215,74.34 C193.535,74.34 193.755,74.375 193.875,74.445 C193.995,74.515 194.055,74.63 194.055,74.79 L194.055,74.79 L194.055,86.01 C194.055,86.17 193.995,86.285 193.875,86.355 C193.755,86.425 193.535,86.46 193.215,86.46 L193.215,86.46 L193.215,87 L197.775,87 Z M209.655,87.09 C210.755,87.09 211.79,86.965 212.76,86.715 C213.73,86.465 214.575,86.06 215.295,85.5 C216.015,84.94 216.585,84.235 217.005,83.385 C217.425,82.535 217.635,81.54 217.635,80.4 C217.635,79.26 217.425,78.265 217.005,77.415 C216.585,76.565 216.015,75.86 215.295,75.3 C214.575,74.74 213.73,74.32 212.76,74.04 C211.79,73.76 210.755,73.62 209.655,73.62 C208.555,73.62 207.52,73.76 206.55,74.04 C205.58,74.32 204.735,74.74 204.015,75.3 C203.295,75.86 202.725,76.565 202.305,77.415 C201.885,78.265 201.675,79.26 201.675,80.4 C201.675,81.54 201.885,82.535 202.305,83.385 C202.725,84.235 203.295,84.94 204.015,85.5 C204.735,86.06 205.58,86.465 206.55,86.715 C207.52,86.965 208.555,87.09 209.655,87.09 Z M209.655,84.96 C209.015,84.96 208.39,84.855 207.78,84.645 C207.17,84.435 206.625,84.135 206.145,83.745 C205.665,83.355 205.28,82.88 204.99,82.32 C204.7,81.76 204.555,81.12 204.555,80.4 C204.555,79.68 204.7,79.04 204.99,78.48 C205.28,77.92 205.665,77.445 206.145,77.055 C206.625,76.665 207.17,76.365 207.78,76.155 C208.39,75.945 209.015,75.84 209.655,75.84 C210.295,75.84 210.92,75.945 211.53,76.155 C212.14,76.365 212.685,76.665 213.165,77.055 C213.645,77.445 214.03,77.92 214.32,78.48 C214.61,79.04 214.755,79.68 214.755,80.4 C214.755,81.12 214.61,81.76 214.32,82.32 C214.03,82.88 213.645,83.355 213.165,83.745 C212.685,84.135 212.14,84.435 211.53,84.645 C210.92,84.855 210.295,84.96 209.655,84.96 Z M224.955,87 L224.955,86.46 C224.535,86.46 224.325,86.31 224.325,86.01 L224.325,86.01 L224.325,77.28 L231.765,85.2 C232.005,85.46 232.22,85.69 232.41,85.89 C232.6,86.09 232.695,86.23 232.695,86.31 C232.695,86.41 232.625,86.46 232.485,86.46 L232.485,86.46 L232.485,87 L236.385,87 L236.385,86.46 C236.025,86.46 235.845,86.31 235.845,86.01 L235.845,86.01 L235.845,74.79 C235.845,74.49 236.025,74.34 236.385,74.34 L236.385,74.34 L236.385,73.8 L232.725,73.8 L232.725,74.34 C233.125,74.34 233.325,74.49 233.325,74.79 L233.325,74.79 L233.325,82.92 L226.125,75.3 C225.685,74.86 225.465,74.59 225.465,74.49 C225.465,74.41 225.535,74.36 225.675,74.34 L225.675,74.34 L225.675,73.8 L221.265,73.8 L221.265,74.34 C221.625,74.34 221.805,74.49 221.805,74.79 L221.805,74.79 L221.805,86.01 C221.805,86.31 221.625,86.46 221.265,86.46 L221.265,86.46 L221.265,87 L224.955,87 Z" id="Rash/Discoloration" fill="#000000" fill-rule="nonzero"></path>
        <path d="M29.723,279 L29.723,278.676 C29.411,278.676 29.255,278.568 29.255,278.352 L29.255,278.352 L29.255,270.18 C29.255,269.964 29.411,269.856 29.723,269.856 L29.723,269.856 L29.723,269.532 L26.735,269.532 L26.735,269.856 C27.047,269.856 27.203,269.964 27.203,270.18 L27.203,270.18 L27.203,278.352 C27.203,278.568 27.047,278.676 26.735,278.676 L26.735,278.676 L26.735,279 L29.723,279 Z M40.577,279 L40.577,278.676 C40.505,278.676 40.442,278.655 40.388,278.613 C40.334,278.571 40.307,278.502 40.307,278.406 L40.307,278.406 L40.307,275.688 L45.131,275.688 L45.131,278.406 C45.131,278.502 45.104,278.571 45.05,278.613 C44.996,278.655 44.933,278.676 44.861,278.676 L44.861,278.676 L44.861,279 L47.129,279 L47.129,278.676 C47.057,278.676 46.994,278.655 46.94,278.613 C46.886,278.571 46.859,278.502 46.859,278.406 L46.859,278.406 L46.859,271.674 C46.859,271.578 46.886,271.509 46.94,271.467 C46.994,271.425 47.057,271.404 47.129,271.404 L47.129,271.404 L47.129,271.08 L44.861,271.08 L44.861,271.404 C44.933,271.404 44.996,271.425 45.05,271.467 C45.104,271.509 45.131,271.578 45.131,271.674 L45.131,271.674 L45.131,274.212 L40.307,274.212 L40.307,271.674 C40.307,271.578 40.334,271.509 40.388,271.467 C40.442,271.425 40.505,271.404 40.577,271.404 L40.577,271.404 L40.577,271.08 L38.309,271.08 L38.309,271.404 C38.381,271.404 38.444,271.425 38.498,271.467 C38.552,271.509 38.579,271.578 38.579,271.674 L38.579,271.674 L38.579,278.406 C38.579,278.502 38.552,278.571 38.498,278.613 C38.444,278.655 38.381,278.676 38.309,278.676 L38.309,278.676 L38.309,279 L40.577,279 Z M54.221,279.054 C54.881,279.054 55.502,278.979 56.084,278.829 C56.666,278.679 57.173,278.436 57.605,278.1 C58.037,277.764 58.379,277.341 58.631,276.831 C58.883,276.321 59.009,275.724 59.009,275.04 C59.009,274.356 58.883,273.759 58.631,273.249 C58.379,272.739 58.037,272.316 57.605,271.98 C57.173,271.644 56.666,271.392 56.084,271.224 C55.502,271.056 54.881,270.972 54.221,270.972 C53.561,270.972 52.94,271.056 52.358,271.224 C51.776,271.392 51.269,271.644 50.837,271.98 C50.405,272.316 50.063,272.739 49.811,273.249 C49.559,273.759 49.433,274.356 49.433,275.04 C49.433,275.724 49.559,276.321 49.811,276.831 C50.063,277.341 50.405,277.764 50.837,278.1 C51.269,278.436 51.776,278.679 52.358,278.829 C52.94,278.979 53.561,279.054 54.221,279.054 Z M54.221,277.776 C53.837,277.776 53.462,277.713 53.096,277.587 C52.73,277.461 52.403,277.281 52.115,277.047 C51.827,276.813 51.596,276.528 51.422,276.192 C51.248,275.856 51.161,275.472 51.161,275.04 C51.161,274.608 51.248,274.224 51.422,273.888 C51.596,273.552 51.827,273.267 52.115,273.033 C52.403,272.799 52.73,272.619 53.096,272.493 C53.462,272.367 53.837,272.304 54.221,272.304 C54.605,272.304 54.98,272.367 55.346,272.493 C55.712,272.619 56.039,272.799 56.327,273.033 C56.615,273.267 56.846,273.552 57.02,273.888 C57.194,274.224 57.281,274.608 57.281,275.04 C57.281,275.472 57.194,275.856 57.02,276.192 C56.846,276.528 56.615,276.813 56.327,277.047 C56.039,277.281 55.712,277.461 55.346,277.587 C54.98,277.713 54.605,277.776 54.221,277.776 Z M63.491,279 L63.491,278.676 C63.239,278.676 63.113,278.586 63.113,278.406 L63.113,278.406 L63.113,275.706 L66.173,275.706 C67.145,275.706 67.874,275.541 68.36,275.211 C68.846,274.881 69.089,274.284 69.089,273.42 C69.089,272.556 68.846,271.95 68.36,271.602 C67.874,271.254 67.145,271.08 66.173,271.08 L66.173,271.08 L60.935,271.08 L60.935,271.404 C61.235,271.404 61.385,271.494 61.385,271.674 L61.385,271.674 L61.385,278.406 C61.385,278.586 61.235,278.676 60.935,278.676 L60.935,278.676 L60.935,279 L63.491,279 Z M66.137,274.374 L63.113,274.374 L63.113,272.412 L66.137,272.412 C66.485,272.412 66.776,272.487 67.01,272.637 C67.244,272.787 67.361,273.048 67.361,273.42 C67.361,273.804 67.244,274.059 67.01,274.185 C66.776,274.311 66.485,274.374 66.137,274.374 L66.137,274.374 Z M78.647,279.198 L78.647,277.308 L78.323,277.308 C78.323,277.416 78.275,277.503 78.179,277.569 C78.083,277.635 77.963,277.668 77.819,277.668 L77.819,277.668 L73.211,277.668 L73.211,275.544 L75.839,275.544 C76.079,275.544 76.265,275.559 76.397,275.589 C76.529,275.619 76.577,275.7 76.541,275.832 L76.541,275.832 L76.901,275.832 L76.901,273.924 L76.577,273.924 C76.577,274.056 76.529,274.137 76.433,274.167 C76.337,274.197 76.187,274.212 75.983,274.212 L75.983,274.212 L73.211,274.212 L73.211,272.412 L77.603,272.412 C77.975,272.412 78.161,272.526 78.161,272.754 L78.161,272.754 L78.485,272.754 L78.485,270.756 L78.161,270.756 C78.161,270.972 77.975,271.08 77.603,271.08 L77.603,271.08 L71.213,271.08 L71.213,271.404 C71.273,271.404 71.333,271.425 71.393,271.467 C71.453,271.509 71.483,271.578 71.483,271.674 L71.483,271.674 L71.483,278.406 C71.483,278.502 71.453,278.571 71.393,278.613 C71.333,278.655 71.273,278.676 71.213,278.676 L71.213,278.676 L71.213,279 L77.819,279 C77.963,279 78.083,279.006 78.179,279.018 C78.275,279.03 78.323,279.09 78.323,279.198 L78.323,279.198 L78.647,279.198 Z M90.923,279 L90.923,278.676 C90.707,278.676 90.599,278.586 90.599,278.406 L90.599,278.406 L90.599,272.412 L92.939,272.412 C93.035,272.412 93.125,272.436 93.209,272.484 C93.293,272.532 93.335,272.61 93.335,272.718 L93.335,272.718 L93.659,272.718 L93.659,270.648 L93.335,270.648 C93.335,270.816 93.293,270.93 93.209,270.99 C93.125,271.05 93.035,271.08 92.939,271.08 L92.939,271.08 L86.531,271.08 C86.435,271.08 86.345,271.05 86.261,270.99 C86.177,270.93 86.135,270.816 86.135,270.648 L86.135,270.648 L85.811,270.648 L85.811,272.718 L86.135,272.718 C86.135,272.61 86.177,272.532 86.261,272.484 C86.345,272.436 86.435,272.412 86.531,272.412 L86.531,272.412 L88.871,272.412 L88.871,278.406 C88.871,278.502 88.841,278.571 88.781,278.613 C88.721,278.655 88.661,278.676 88.601,278.676 L88.601,278.676 L88.601,279 L90.923,279 Z M98.087,279 L98.087,278.676 C98.015,278.676 97.952,278.655 97.898,278.613 C97.844,278.571 97.817,278.502 97.817,278.406 L97.817,278.406 L97.817,275.688 L102.641,275.688 L102.641,278.406 C102.641,278.502 102.614,278.571 102.56,278.613 C102.506,278.655 102.443,278.676 102.371,278.676 L102.371,278.676 L102.371,279 L104.639,279 L104.639,278.676 C104.567,278.676 104.504,278.655 104.45,278.613 C104.396,278.571 104.369,278.502 104.369,278.406 L104.369,278.406 L104.369,271.674 C104.369,271.578 104.396,271.509 104.45,271.467 C104.504,271.425 104.567,271.404 104.639,271.404 L104.639,271.404 L104.639,271.08 L102.371,271.08 L102.371,271.404 C102.443,271.404 102.506,271.425 102.56,271.467 C102.614,271.509 102.641,271.578 102.641,271.674 L102.641,271.674 L102.641,274.212 L97.817,274.212 L97.817,271.674 C97.817,271.578 97.844,271.509 97.898,271.467 C97.952,271.425 98.015,271.404 98.087,271.404 L98.087,271.404 L98.087,271.08 L95.819,271.08 L95.819,271.404 C95.891,271.404 95.954,271.425 96.008,271.467 C96.062,271.509 96.089,271.578 96.089,271.674 L96.089,271.674 L96.089,278.406 C96.089,278.502 96.062,278.571 96.008,278.613 C95.954,278.655 95.891,278.676 95.819,278.676 L95.819,278.676 L95.819,279 L98.087,279 Z M110.597,279 L110.597,278.676 C110.261,278.676 110.093,278.586 110.093,278.406 L110.093,278.406 L110.093,271.674 C110.093,271.494 110.261,271.404 110.597,271.404 L110.597,271.404 L110.597,271.08 L107.861,271.08 L107.861,271.404 C108.053,271.404 108.185,271.425 108.257,271.467 C108.329,271.509 108.365,271.578 108.365,271.674 L108.365,271.674 L108.365,278.406 C108.365,278.502 108.329,278.571 108.257,278.613 C108.185,278.655 108.053,278.676 107.861,278.676 L107.861,278.676 L107.861,279 L110.597,279 Z M117.095,279.054 C117.503,279.054 117.938,279.024 118.4,278.964 C118.862,278.904 119.285,278.778 119.669,278.586 C120.053,278.394 120.374,278.13 120.632,277.794 C120.89,277.458 121.019,277.026 121.019,276.498 C121.019,275.97 120.872,275.556 120.578,275.256 C120.284,274.956 119.915,274.728 119.471,274.572 C119.027,274.416 118.547,274.305 118.031,274.239 C117.515,274.173 117.035,274.107 116.591,274.041 C116.147,273.975 115.778,273.885 115.484,273.771 C115.19,273.657 115.043,273.468 115.043,273.204 C115.043,273.036 115.091,272.895 115.187,272.781 C115.283,272.667 115.415,272.574 115.583,272.502 C115.751,272.43 115.943,272.379 116.159,272.349 C116.375,272.319 116.603,272.304 116.843,272.304 C117.467,272.304 118.031,272.376 118.535,272.52 C119.039,272.664 119.411,272.838 119.651,273.042 C119.747,273.114 119.801,273.186 119.813,273.258 L119.813,273.258 L119.849,273.474 L120.173,273.582 L121.073,271.89 L120.875,271.692 C120.803,271.728 120.743,271.761 120.695,271.791 C120.647,271.821 120.575,271.836 120.479,271.836 C120.395,271.836 120.266,271.791 120.092,271.701 C119.918,271.611 119.693,271.512 119.417,271.404 C119.141,271.296 118.802,271.197 118.4,271.107 C117.998,271.017 117.515,270.972 116.951,270.972 C115.799,270.972 114.905,271.2 114.269,271.656 C113.633,272.112 113.315,272.724 113.315,273.492 C113.315,274.008 113.462,274.407 113.756,274.689 C114.05,274.971 114.419,275.187 114.863,275.337 C115.307,275.487 115.787,275.595 116.303,275.661 C116.819,275.727 117.299,275.793 117.743,275.859 C118.187,275.925 118.556,276.018 118.85,276.138 C119.144,276.258 119.291,276.45 119.291,276.714 C119.291,276.942 119.207,277.125 119.039,277.263 C118.871,277.401 118.667,277.509 118.427,277.587 C118.187,277.665 117.944,277.716 117.698,277.74 C117.452,277.764 117.245,277.776 117.077,277.776 C116.897,277.776 116.648,277.746 116.33,277.686 C116.012,277.626 115.694,277.545 115.376,277.443 C115.058,277.341 114.785,277.215 114.557,277.065 C114.329,276.915 114.215,276.75 114.215,276.57 C114.215,276.51 114.218,276.453 114.224,276.399 C114.23,276.345 114.233,276.294 114.233,276.246 L114.233,276.246 L113.891,276.156 L113.063,278.172 L113.315,278.352 C113.375,278.28 113.447,278.244 113.531,278.244 C113.579,278.244 113.717,278.289 113.945,278.379 C114.173,278.469 114.452,278.565 114.782,278.667 C115.112,278.769 115.478,278.859 115.88,278.937 C116.282,279.015 116.687,279.054 117.095,279.054 Z M132.089,279 L132.089,278.676 C131.753,278.676 131.585,278.586 131.585,278.406 L131.585,278.406 L131.585,271.674 C131.585,271.494 131.753,271.404 132.089,271.404 L132.089,271.404 L132.089,271.08 L129.353,271.08 L129.353,271.404 C129.545,271.404 129.677,271.425 129.749,271.467 C129.821,271.509 129.857,271.578 129.857,271.674 L129.857,271.674 L129.857,278.406 C129.857,278.502 129.821,278.571 129.749,278.613 C129.677,278.655 129.545,278.676 129.353,278.676 L129.353,278.676 L129.353,279 L132.089,279 Z M138.587,279.054 C138.995,279.054 139.43,279.024 139.892,278.964 C140.354,278.904 140.777,278.778 141.161,278.586 C141.545,278.394 141.866,278.13 142.124,277.794 C142.382,277.458 142.511,277.026 142.511,276.498 C142.511,275.97 142.364,275.556 142.07,275.256 C141.776,274.956 141.407,274.728 140.963,274.572 C140.519,274.416 140.039,274.305 139.523,274.239 C139.007,274.173 138.527,274.107 138.083,274.041 C137.639,273.975 137.27,273.885 136.976,273.771 C136.682,273.657 136.535,273.468 136.535,273.204 C136.535,273.036 136.583,272.895 136.679,272.781 C136.775,272.667 136.907,272.574 137.075,272.502 C137.243,272.43 137.435,272.379 137.651,272.349 C137.867,272.319 138.095,272.304 138.335,272.304 C138.959,272.304 139.523,272.376 140.027,272.52 C140.531,272.664 140.903,272.838 141.143,273.042 C141.239,273.114 141.293,273.186 141.305,273.258 L141.305,273.258 L141.341,273.474 L141.665,273.582 L142.565,271.89 L142.367,271.692 C142.295,271.728 142.235,271.761 142.187,271.791 C142.139,271.821 142.067,271.836 141.971,271.836 C141.887,271.836 141.758,271.791 141.584,271.701 C141.41,271.611 141.185,271.512 140.909,271.404 C140.633,271.296 140.294,271.197 139.892,271.107 C139.49,271.017 139.007,270.972 138.443,270.972 C137.291,270.972 136.397,271.2 135.761,271.656 C135.125,272.112 134.807,272.724 134.807,273.492 C134.807,274.008 134.954,274.407 135.248,274.689 C135.542,274.971 135.911,275.187 136.355,275.337 C136.799,275.487 137.279,275.595 137.795,275.661 C138.311,275.727 138.791,275.793 139.235,275.859 C139.679,275.925 140.048,276.018 140.342,276.138 C140.636,276.258 140.783,276.45 140.783,276.714 C140.783,276.942 140.699,277.125 140.531,277.263 C140.363,277.401 140.159,277.509 139.919,277.587 C139.679,277.665 139.436,277.716 139.19,277.74 C138.944,277.764 138.737,277.776 138.569,277.776 C138.389,277.776 138.14,277.746 137.822,277.686 C137.504,277.626 137.186,277.545 136.868,277.443 C136.55,277.341 136.277,277.215 136.049,277.065 C135.821,276.915 135.707,276.75 135.707,276.57 C135.707,276.51 135.71,276.453 135.716,276.399 C135.722,276.345 135.725,276.294 135.725,276.246 L135.725,276.246 L135.383,276.156 L134.555,278.172 L134.807,278.352 C134.867,278.28 134.939,278.244 135.023,278.244 C135.071,278.244 135.209,278.289 135.437,278.379 C135.665,278.469 135.944,278.565 136.274,278.667 C136.604,278.769 136.97,278.859 137.372,278.937 C137.774,279.015 138.179,279.054 138.587,279.054 Z M154.913,279 L154.913,278.676 C154.697,278.676 154.589,278.586 154.589,278.406 L154.589,278.406 L154.589,272.412 L156.929,272.412 C157.025,272.412 157.115,272.436 157.199,272.484 C157.283,272.532 157.325,272.61 157.325,272.718 L157.325,272.718 L157.649,272.718 L157.649,270.648 L157.325,270.648 C157.325,270.816 157.283,270.93 157.199,270.99 C157.115,271.05 157.025,271.08 156.929,271.08 L156.929,271.08 L150.521,271.08 C150.425,271.08 150.335,271.05 150.251,270.99 C150.167,270.93 150.125,270.816 150.125,270.648 L150.125,270.648 L149.801,270.648 L149.801,272.718 L150.125,272.718 C150.125,272.61 150.167,272.532 150.251,272.484 C150.335,272.436 150.425,272.412 150.521,272.412 L150.521,272.412 L152.861,272.412 L152.861,278.406 C152.861,278.502 152.831,278.571 152.771,278.613 C152.711,278.655 152.651,278.676 152.591,278.676 L152.591,278.676 L152.591,279 L154.913,279 Z M162.077,279 L162.077,278.676 C162.005,278.676 161.942,278.655 161.888,278.613 C161.834,278.571 161.807,278.502 161.807,278.406 L161.807,278.406 L161.807,275.688 L166.631,275.688 L166.631,278.406 C166.631,278.502 166.604,278.571 166.55,278.613 C166.496,278.655 166.433,278.676 166.361,278.676 L166.361,278.676 L166.361,279 L168.629,279 L168.629,278.676 C168.557,278.676 168.494,278.655 168.44,278.613 C168.386,278.571 168.359,278.502 168.359,278.406 L168.359,278.406 L168.359,271.674 C168.359,271.578 168.386,271.509 168.44,271.467 C168.494,271.425 168.557,271.404 168.629,271.404 L168.629,271.404 L168.629,271.08 L166.361,271.08 L166.361,271.404 C166.433,271.404 166.496,271.425 166.55,271.467 C166.604,271.509 166.631,271.578 166.631,271.674 L166.631,271.674 L166.631,274.212 L161.807,274.212 L161.807,271.674 C161.807,271.578 161.834,271.509 161.888,271.467 C161.942,271.425 162.005,271.404 162.077,271.404 L162.077,271.404 L162.077,271.08 L159.809,271.08 L159.809,271.404 C159.881,271.404 159.944,271.425 159.998,271.467 C160.052,271.509 160.079,271.578 160.079,271.674 L160.079,271.674 L160.079,278.406 C160.079,278.502 160.052,278.571 159.998,278.613 C159.944,278.655 159.881,278.676 159.809,278.676 L159.809,278.676 L159.809,279 L162.077,279 Z M179.141,279.198 L179.141,277.308 L178.817,277.308 C178.817,277.416 178.769,277.503 178.673,277.569 C178.577,277.635 178.457,277.668 178.313,277.668 L178.313,277.668 L173.705,277.668 L173.705,275.544 L176.333,275.544 C176.573,275.544 176.759,275.559 176.891,275.589 C177.023,275.619 177.071,275.7 177.035,275.832 L177.035,275.832 L177.395,275.832 L177.395,273.924 L177.071,273.924 C177.071,274.056 177.023,274.137 176.927,274.167 C176.831,274.197 176.681,274.212 176.477,274.212 L176.477,274.212 L173.705,274.212 L173.705,272.412 L178.097,272.412 C178.469,272.412 178.655,272.526 178.655,272.754 L178.655,272.754 L178.979,272.754 L178.979,270.756 L178.655,270.756 C178.655,270.972 178.469,271.08 178.097,271.08 L178.097,271.08 L171.707,271.08 L171.707,271.404 C171.767,271.404 171.827,271.425 171.887,271.467 C171.947,271.509 171.977,271.578 171.977,271.674 L171.977,271.674 L171.977,278.406 C171.977,278.502 171.947,278.571 171.887,278.613 C171.827,278.655 171.767,278.676 171.707,278.676 L171.707,278.676 L171.707,279 L178.313,279 C178.457,279 178.577,279.006 178.673,279.018 C178.769,279.03 178.817,279.09 178.817,279.198 L178.817,279.198 L179.141,279.198 Z M192.515,279 C193.043,279 193.496,278.943 193.874,278.829 C194.252,278.715 194.558,278.562 194.792,278.37 C195.026,278.178 195.197,277.956 195.305,277.704 C195.413,277.452 195.467,277.182 195.467,276.894 C195.467,276.642 195.425,276.408 195.341,276.192 C195.257,275.976 195.149,275.784 195.017,275.616 C194.885,275.448 194.735,275.304 194.567,275.184 C194.399,275.064 194.231,274.968 194.063,274.896 L194.063,274.896 L194.063,274.878 C194.207,274.806 194.348,274.71 194.486,274.59 C194.624,274.47 194.75,274.335 194.864,274.185 C194.978,274.035 195.071,273.867 195.143,273.681 C195.215,273.495 195.251,273.294 195.251,273.078 C195.251,272.814 195.197,272.562 195.089,272.322 C194.981,272.082 194.816,271.869 194.594,271.683 C194.372,271.497 194.096,271.35 193.766,271.242 C193.436,271.134 193.043,271.08 192.587,271.08 L192.587,271.08 L186.989,271.08 L186.989,271.404 C187.085,271.404 187.178,271.425 187.268,271.467 C187.358,271.509 187.403,271.578 187.403,271.674 L187.403,271.674 L187.403,278.406 C187.403,278.502 187.358,278.571 187.268,278.613 C187.178,278.655 187.085,278.676 186.989,278.676 L186.989,278.676 L186.989,279 L192.515,279 Z M192.335,274.212 L189.131,274.212 L189.131,272.412 L192.335,272.412 C192.479,272.412 192.623,272.421 192.767,272.439 C192.911,272.457 193.037,272.499 193.145,272.565 C193.253,272.631 193.343,272.721 193.415,272.835 C193.487,272.949 193.523,273.102 193.523,273.294 C193.523,273.666 193.397,273.912 193.145,274.032 C192.893,274.152 192.623,274.212 192.335,274.212 L192.335,274.212 Z M192.299,277.668 L189.131,277.668 L189.131,275.544 L192.011,275.544 C192.635,275.544 193.079,275.634 193.343,275.814 C193.607,275.994 193.739,276.27 193.739,276.642 C193.739,276.966 193.637,277.218 193.433,277.398 C193.229,277.578 192.851,277.668 192.299,277.668 L192.299,277.668 Z M205.979,279.18 L205.979,277.29 L205.655,277.29 C205.655,277.41 205.607,277.503 205.511,277.569 C205.415,277.635 205.295,277.668 205.151,277.668 L205.151,277.668 L200.291,277.668 L200.291,271.674 C200.291,271.494 200.429,271.404 200.705,271.404 L200.705,271.404 L200.705,271.08 L198.095,271.08 L198.095,271.404 C198.407,271.404 198.563,271.494 198.563,271.674 L198.563,271.674 L198.563,278.406 C198.563,278.586 198.407,278.676 198.095,278.676 L198.095,278.676 L198.095,279 L205.151,279 C205.295,279 205.415,279.006 205.511,279.018 C205.607,279.03 205.655,279.084 205.655,279.18 L205.655,279.18 L205.979,279.18 Z M209.417,279 L209.417,278.676 C209.309,278.676 209.225,278.664 209.165,278.64 C209.105,278.616 209.075,278.556 209.075,278.46 C209.075,278.4 209.09,278.331 209.12,278.253 C209.15,278.175 209.189,278.088 209.237,277.992 L209.237,277.992 L209.741,277.02 L213.593,277.02 L214.079,278.046 C214.115,278.142 214.145,278.22 214.169,278.28 C214.193,278.34 214.205,278.406 214.205,278.478 C214.205,278.574 214.172,278.64 214.106,278.676 C214.04,278.712 213.977,278.73 213.917,278.73 L213.917,278.73 L213.917,279 L216.473,279 L216.473,278.676 C216.389,278.652 216.311,278.616 216.239,278.568 C216.167,278.52 216.101,278.442 216.041,278.334 L216.041,278.334 L213.125,272.214 C213.065,272.082 213.008,271.965 212.954,271.863 C212.9,271.761 212.873,271.674 212.873,271.602 C212.873,271.518 212.894,271.47 212.936,271.458 C212.978,271.446 213.017,271.428 213.053,271.404 L213.053,271.404 L213.053,271.08 L210.335,271.08 L210.335,271.404 C210.371,271.428 210.404,271.449 210.434,271.467 C210.464,271.485 210.479,271.53 210.479,271.602 C210.479,271.698 210.458,271.797 210.416,271.899 C210.374,272.001 210.317,272.136 210.245,272.304 L210.245,272.304 L207.563,278.154 C207.515,278.25 207.446,278.355 207.356,278.469 C207.266,278.583 207.149,278.652 207.005,278.676 L207.005,278.676 L207.005,279 L209.417,279 Z M213.017,275.688 L210.281,275.688 L211.559,272.664 L213.017,275.688 Z M221.819,279.054 C222.359,279.054 222.848,279.006 223.286,278.91 C223.724,278.814 224.108,278.697 224.438,278.559 C224.768,278.421 225.041,278.298 225.257,278.19 C225.473,278.082 225.629,278.028 225.725,278.028 C225.785,278.028 225.887,278.058 226.031,278.118 L226.031,278.118 L226.211,278.028 L224.879,276.12 L224.681,276.3 C224.693,276.348 224.699,276.408 224.699,276.48 L224.699,276.48 L224.699,276.624 C224.699,276.732 224.612,276.852 224.438,276.984 C224.264,277.116 224.039,277.239 223.763,277.353 C223.487,277.467 223.181,277.566 222.845,277.65 C222.509,277.734 222.179,277.776 221.855,277.776 C221.507,277.776 221.165,277.713 220.829,277.587 C220.493,277.461 220.193,277.275 219.929,277.029 C219.665,276.783 219.452,276.489 219.29,276.147 C219.128,275.805 219.047,275.418 219.047,274.986 C219.047,274.554 219.119,274.17 219.263,273.834 C219.407,273.498 219.611,273.216 219.875,272.988 C220.139,272.76 220.448,272.589 220.802,272.475 C221.156,272.361 221.549,272.304 221.981,272.304 C222.341,272.304 222.671,272.337 222.971,272.403 C223.271,272.469 223.532,272.55 223.754,272.646 C223.976,272.742 224.147,272.841 224.267,272.943 C224.387,273.045 224.447,273.126 224.447,273.186 C224.447,273.222 224.45,273.252 224.456,273.276 C224.462,273.3 224.465,273.324 224.465,273.348 L224.465,273.348 L224.663,273.492 L225.851,271.782 L225.635,271.656 C225.587,271.68 225.542,271.71 225.5,271.746 C225.458,271.782 225.407,271.8 225.347,271.8 C225.263,271.8 225.125,271.758 224.933,271.674 C224.741,271.59 224.501,271.494 224.213,271.386 C223.925,271.278 223.592,271.182 223.214,271.098 C222.836,271.014 222.419,270.972 221.963,270.972 C221.375,270.972 220.802,271.056 220.244,271.224 C219.686,271.392 219.191,271.647 218.759,271.989 C218.327,272.331 217.979,272.754 217.715,273.258 C217.451,273.762 217.319,274.35 217.319,275.022 C217.319,275.694 217.451,276.285 217.715,276.795 C217.979,277.305 218.321,277.731 218.741,278.073 C219.161,278.415 219.641,278.664 220.181,278.82 C220.721,278.976 221.267,279.054 221.819,279.054 Z M230.441,279 L230.441,278.676 C230.213,278.676 230.099,278.586 230.099,278.406 L230.099,278.406 L230.099,276.39 L231.503,275.274 L233.717,277.974 C233.873,278.154 233.978,278.286 234.032,278.37 C234.086,278.454 234.113,278.52 234.113,278.568 C234.113,278.64 234.047,278.676 233.915,278.676 L233.915,278.676 L233.915,279 L236.579,279 L236.579,278.676 C236.411,278.628 236.243,278.511 236.075,278.325 C235.907,278.139 235.751,277.956 235.607,277.776 L235.607,277.776 L232.763,274.248 L235.769,271.818 C236.057,271.59 236.273,271.452 236.417,271.404 L236.417,271.404 L236.417,271.08 L233.447,271.08 L233.447,271.35 C233.507,271.35 233.57,271.368 233.636,271.404 C233.702,271.44 233.735,271.488 233.735,271.548 C233.735,271.596 233.621,271.719 233.393,271.917 C233.165,272.115 232.877,272.358 232.529,272.646 C232.181,272.934 231.791,273.249 231.359,273.591 C230.927,273.933 230.507,274.272 230.099,274.608 L230.099,274.608 L230.099,271.674 C230.099,271.494 230.213,271.404 230.441,271.404 L230.441,271.404 L230.441,271.08 L228.083,271.08 L228.083,271.404 C228.275,271.404 228.371,271.494 228.371,271.674 L228.371,271.674 L228.371,278.406 C228.371,278.586 228.275,278.676 228.083,278.676 L228.083,278.676 L228.083,279 L230.441,279 Z M100.499,297 L100.499,296.676 C100.247,296.676 100.121,296.586 100.121,296.406 L100.121,296.406 L100.121,293.706 L103.181,293.706 C104.153,293.706 104.882,293.541 105.368,293.211 C105.854,292.881 106.097,292.284 106.097,291.42 C106.097,290.556 105.854,289.95 105.368,289.602 C104.882,289.254 104.153,289.08 103.181,289.08 L103.181,289.08 L97.943,289.08 L97.943,289.404 C98.243,289.404 98.393,289.494 98.393,289.674 L98.393,289.674 L98.393,296.406 C98.393,296.586 98.243,296.676 97.943,296.676 L97.943,296.676 L97.943,297 L100.499,297 Z M103.145,292.374 L100.121,292.374 L100.121,290.412 L103.145,290.412 C103.493,290.412 103.784,290.487 104.018,290.637 C104.252,290.787 104.369,291.048 104.369,291.42 C104.369,291.804 104.252,292.059 104.018,292.185 C103.784,292.311 103.493,292.374 103.145,292.374 L103.145,292.374 Z M115.997,297.18 L115.997,295.29 L115.673,295.29 C115.673,295.41 115.625,295.503 115.529,295.569 C115.433,295.635 115.313,295.668 115.169,295.668 L115.169,295.668 L110.309,295.668 L110.309,289.674 C110.309,289.494 110.447,289.404 110.723,289.404 L110.723,289.404 L110.723,289.08 L108.113,289.08 L108.113,289.404 C108.425,289.404 108.581,289.494 108.581,289.674 L108.581,289.674 L108.581,296.406 C108.581,296.586 108.425,296.676 108.113,296.676 L108.113,296.676 L108.113,297 L115.169,297 C115.313,297 115.433,297.006 115.529,297.018 C115.625,297.03 115.673,297.084 115.673,297.18 L115.673,297.18 L115.997,297.18 Z M119.435,297 L119.435,296.676 C119.327,296.676 119.243,296.664 119.183,296.64 C119.123,296.616 119.093,296.556 119.093,296.46 C119.093,296.4 119.108,296.331 119.138,296.253 C119.168,296.175 119.207,296.088 119.255,295.992 L119.255,295.992 L119.759,295.02 L123.611,295.02 L124.097,296.046 C124.133,296.142 124.163,296.22 124.187,296.28 C124.211,296.34 124.223,296.406 124.223,296.478 C124.223,296.574 124.19,296.64 124.124,296.676 C124.058,296.712 123.995,296.73 123.935,296.73 L123.935,296.73 L123.935,297 L126.491,297 L126.491,296.676 C126.407,296.652 126.329,296.616 126.257,296.568 C126.185,296.52 126.119,296.442 126.059,296.334 L126.059,296.334 L123.143,290.214 C123.083,290.082 123.026,289.965 122.972,289.863 C122.918,289.761 122.891,289.674 122.891,289.602 C122.891,289.518 122.912,289.47 122.954,289.458 C122.996,289.446 123.035,289.428 123.071,289.404 L123.071,289.404 L123.071,289.08 L120.353,289.08 L120.353,289.404 C120.389,289.428 120.422,289.449 120.452,289.467 C120.482,289.485 120.497,289.53 120.497,289.602 C120.497,289.698 120.476,289.797 120.434,289.899 C120.392,290.001 120.335,290.136 120.263,290.304 L120.263,290.304 L117.581,296.154 C117.533,296.25 117.464,296.355 117.374,296.469 C117.284,296.583 117.167,296.652 117.023,296.676 L117.023,296.676 L117.023,297 L119.435,297 Z M123.035,293.688 L120.299,293.688 L121.577,290.664 L123.035,293.688 Z M132.449,297.054 C133.025,297.054 133.547,297.015 134.015,296.937 C134.483,296.859 134.894,296.76 135.248,296.64 C135.602,296.52 135.896,296.397 136.13,296.271 C136.364,296.145 136.535,296.046 136.643,295.974 L136.643,295.974 L136.643,295.758 C136.523,295.71 136.448,295.665 136.418,295.623 C136.388,295.581 136.373,295.506 136.373,295.398 L136.373,295.398 L136.373,293.688 C136.373,293.568 136.391,293.478 136.427,293.418 C136.463,293.358 136.535,293.304 136.643,293.256 L136.643,293.256 L136.643,292.932 L133.115,292.932 C132.983,292.932 132.869,292.914 132.773,292.878 C132.677,292.842 132.617,292.764 132.593,292.644 L132.593,292.644 L132.269,292.644 L132.269,294.498 L132.593,294.498 C132.617,294.354 132.677,294.255 132.773,294.201 C132.869,294.147 132.983,294.12 133.115,294.12 L133.115,294.12 L134.969,294.12 L134.969,295.254 C134.585,295.458 134.162,295.596 133.7,295.668 C133.238,295.74 132.749,295.776 132.233,295.776 C131.885,295.776 131.525,295.728 131.153,295.632 C130.781,295.536 130.442,295.383 130.136,295.173 C129.83,294.963 129.581,294.687 129.389,294.345 C129.197,294.003 129.101,293.58 129.101,293.076 C129.101,292.572 129.191,292.146 129.371,291.798 C129.551,291.45 129.791,291.165 130.091,290.943 C130.391,290.721 130.739,290.559 131.135,290.457 C131.531,290.355 131.951,290.304 132.395,290.304 C132.719,290.304 133.04,290.337 133.358,290.403 C133.676,290.469 133.961,290.556 134.213,290.664 C134.465,290.772 134.669,290.889 134.825,291.015 C134.981,291.141 135.059,291.258 135.059,291.366 C135.059,291.378 135.047,291.444 135.023,291.564 L135.023,291.564 L135.239,291.69 L136.283,289.728 L136.067,289.62 C135.995,289.68 135.935,289.719 135.887,289.737 C135.839,289.755 135.767,289.764 135.671,289.764 C135.587,289.764 135.461,289.722 135.293,289.638 C135.125,289.554 134.903,289.464 134.627,289.368 C134.363,289.272 134.051,289.182 133.691,289.098 C133.331,289.014 132.917,288.972 132.449,288.972 C131.669,288.972 130.964,289.065 130.334,289.251 C129.704,289.437 129.17,289.707 128.732,290.061 C128.294,290.415 127.958,290.841 127.724,291.339 C127.49,291.837 127.373,292.404 127.373,293.04 C127.373,293.676 127.49,294.243 127.724,294.741 C127.958,295.239 128.294,295.662 128.732,296.01 C129.17,296.358 129.704,296.619 130.334,296.793 C130.964,296.967 131.669,297.054 132.449,297.054 Z M143.825,297.054 C144.545,297.054 145.172,296.979 145.706,296.829 C146.24,296.679 146.678,296.472 147.02,296.208 C147.362,295.944 147.617,295.641 147.785,295.299 C147.953,294.957 148.037,294.6 148.037,294.228 L148.037,294.228 L148.037,289.674 C148.037,289.494 148.169,289.404 148.433,289.404 L148.433,289.404 L148.433,289.08 L145.931,289.08 L145.931,289.404 C146.231,289.404 146.381,289.494 146.381,289.674 L146.381,289.674 L146.381,293.796 C146.381,294.372 146.171,294.834 145.751,295.182 C145.331,295.53 144.689,295.704 143.825,295.704 C142.961,295.704 142.319,295.53 141.899,295.182 C141.479,294.834 141.269,294.372 141.269,293.796 L141.269,293.796 L141.269,289.674 C141.269,289.494 141.401,289.404 141.665,289.404 L141.665,289.404 L141.665,289.08 L139.091,289.08 L139.091,289.404 C139.295,289.404 139.433,289.425 139.505,289.467 C139.577,289.509 139.613,289.578 139.613,289.674 L139.613,289.674 L139.613,294.228 C139.613,294.6 139.697,294.957 139.865,295.299 C140.033,295.641 140.288,295.944 140.63,296.208 C140.972,296.472 141.41,296.679 141.944,296.829 C142.478,296.979 143.105,297.054 143.825,297.054 Z M158.675,297.198 L158.675,295.308 L158.351,295.308 C158.351,295.416 158.303,295.503 158.207,295.569 C158.111,295.635 157.991,295.668 157.847,295.668 L157.847,295.668 L153.239,295.668 L153.239,293.544 L155.867,293.544 C156.107,293.544 156.293,293.559 156.425,293.589 C156.557,293.619 156.605,293.7 156.569,293.832 L156.569,293.832 L156.929,293.832 L156.929,291.924 L156.605,291.924 C156.605,292.056 156.557,292.137 156.461,292.167 C156.365,292.197 156.215,292.212 156.011,292.212 L156.011,292.212 L153.239,292.212 L153.239,290.412 L157.631,290.412 C158.003,290.412 158.189,290.526 158.189,290.754 L158.189,290.754 L158.513,290.754 L158.513,288.756 L158.189,288.756 C158.189,288.972 158.003,289.08 157.631,289.08 L157.631,289.08 L151.241,289.08 L151.241,289.404 C151.301,289.404 151.361,289.425 151.421,289.467 C151.481,289.509 151.511,289.578 151.511,289.674 L151.511,289.674 L151.511,296.406 C151.511,296.502 151.481,296.571 151.421,296.613 C151.361,296.655 151.301,296.676 151.241,296.676 L151.241,296.676 L151.241,297 L157.847,297 C157.991,297 158.111,297.006 158.207,297.018 C158.303,297.03 158.351,297.09 158.351,297.198 L158.351,297.198 L158.675,297.198 Z M162.509,297.054 C162.857,297.054 163.157,296.937 163.409,296.703 C163.661,296.469 163.787,296.178 163.787,295.83 C163.787,295.482 163.661,295.182 163.409,294.93 C163.157,294.678 162.857,294.552 162.509,294.552 C162.161,294.552 161.861,294.678 161.609,294.93 C161.357,295.182 161.231,295.482 161.231,295.83 C161.231,296.178 161.357,296.469 161.609,296.703 C161.861,296.937 162.161,297.054 162.509,297.054 Z M58.19,315 L58.19,314.676 C57.962,314.676 57.848,314.61 57.848,314.478 C57.848,314.37 57.908,314.19 58.028,313.938 L58.028,313.938 L58.676,312.66 L63.068,312.66 L63.752,313.992 C63.848,314.184 63.896,314.34 63.896,314.46 C63.896,314.532 63.86,314.586 63.788,314.622 C63.716,314.658 63.656,314.676 63.608,314.676 L63.608,314.676 L63.608,315 L66.776,315 L66.776,314.676 C66.644,314.616 66.527,314.556 66.425,314.496 C66.323,314.436 66.242,314.34 66.182,314.208 L66.182,314.208 L62.438,306.882 C62.354,306.726 62.291,306.6 62.249,306.504 C62.207,306.408 62.186,306.312 62.186,306.216 C62.186,306.084 62.228,305.997 62.312,305.955 C62.396,305.913 62.48,305.88 62.564,305.856 L62.564,305.856 L62.564,305.532 L59.522,305.532 L59.522,305.856 C59.618,305.88 59.708,305.916 59.792,305.964 C59.876,306.012 59.918,306.096 59.918,306.216 C59.918,306.312 59.885,306.426 59.819,306.558 C59.753,306.69 59.678,306.834 59.594,306.99 L59.594,306.99 L56.264,313.992 C56.18,314.16 56.093,314.31 56.003,314.442 C55.913,314.574 55.79,314.652 55.634,314.676 L55.634,314.676 L55.634,315 L58.19,315 Z M62.42,311.328 L59.216,311.328 L60.908,307.98 L62.42,311.328 Z M73.544,315 C74.252,315 74.852,314.886 75.344,314.658 C75.836,314.43 76.238,314.133 76.55,313.767 C76.862,313.401 77.09,312.981 77.234,312.507 C77.378,312.033 77.45,311.544 77.45,311.04 C77.45,310.536 77.375,310.047 77.225,309.573 C77.075,309.099 76.841,308.679 76.523,308.313 C76.205,307.947 75.794,307.65 75.29,307.422 C74.786,307.194 74.18,307.08 73.472,307.08 L73.472,307.08 L68.468,307.08 L68.468,307.404 C68.744,307.404 68.882,307.494 68.882,307.674 L68.882,307.674 L68.882,314.406 C68.882,314.586 68.744,314.676 68.468,314.676 L68.468,314.676 L68.468,315 L73.544,315 Z M72.95,313.668 L70.61,313.668 L70.61,308.412 L72.95,308.412 C73.322,308.412 73.676,308.433 74.012,308.475 C74.348,308.517 74.642,308.625 74.894,308.799 C75.146,308.973 75.347,309.231 75.497,309.573 C75.647,309.915 75.722,310.386 75.722,310.986 C75.722,311.586 75.647,312.063 75.497,312.417 C75.347,312.771 75.146,313.041 74.894,313.227 C74.642,313.413 74.348,313.533 74.012,313.587 C73.676,313.641 73.322,313.668 72.95,313.668 L72.95,313.668 Z M84.542,315 C85.25,315 85.85,314.886 86.342,314.658 C86.834,314.43 87.236,314.133 87.548,313.767 C87.86,313.401 88.088,312.981 88.232,312.507 C88.376,312.033 88.448,311.544 88.448,311.04 C88.448,310.536 88.373,310.047 88.223,309.573 C88.073,309.099 87.839,308.679 87.521,308.313 C87.203,307.947 86.792,307.65 86.288,307.422 C85.784,307.194 85.178,307.08 84.47,307.08 L84.47,307.08 L79.466,307.08 L79.466,307.404 C79.742,307.404 79.88,307.494 79.88,307.674 L79.88,307.674 L79.88,314.406 C79.88,314.586 79.742,314.676 79.466,314.676 L79.466,314.676 L79.466,315 L84.542,315 Z M83.948,313.668 L81.608,313.668 L81.608,308.412 L83.948,308.412 C84.32,308.412 84.674,308.433 85.01,308.475 C85.346,308.517 85.64,308.625 85.892,308.799 C86.144,308.973 86.345,309.231 86.495,309.573 C86.645,309.915 86.72,310.386 86.72,310.986 C86.72,311.586 86.645,312.063 86.495,312.417 C86.345,312.771 86.144,313.041 85.892,313.227 C85.64,313.413 85.346,313.533 85.01,313.587 C84.674,313.641 84.32,313.668 83.948,313.668 L83.948,313.668 Z M100.436,315 L100.436,314.676 C100.22,314.676 100.112,314.586 100.112,314.406 L100.112,314.406 L100.112,308.412 L102.452,308.412 C102.548,308.412 102.638,308.436 102.722,308.484 C102.806,308.532 102.848,308.61 102.848,308.718 L102.848,308.718 L103.172,308.718 L103.172,306.648 L102.848,306.648 C102.848,306.816 102.806,306.93 102.722,306.99 C102.638,307.05 102.548,307.08 102.452,307.08 L102.452,307.08 L96.044,307.08 C95.948,307.08 95.858,307.05 95.774,306.99 C95.69,306.93 95.648,306.816 95.648,306.648 L95.648,306.648 L95.324,306.648 L95.324,308.718 L95.648,308.718 C95.648,308.61 95.69,308.532 95.774,308.484 C95.858,308.436 95.948,308.412 96.044,308.412 L96.044,308.412 L98.384,308.412 L98.384,314.406 C98.384,314.502 98.354,314.571 98.294,314.613 C98.234,314.655 98.174,314.676 98.114,314.676 L98.114,314.676 L98.114,315 L100.436,315 Z M107.6,315 L107.6,314.676 C107.528,314.676 107.465,314.655 107.411,314.613 C107.357,314.571 107.33,314.502 107.33,314.406 L107.33,314.406 L107.33,311.688 L112.154,311.688 L112.154,314.406 C112.154,314.502 112.127,314.571 112.073,314.613 C112.019,314.655 111.956,314.676 111.884,314.676 L111.884,314.676 L111.884,315 L114.152,315 L114.152,314.676 C114.08,314.676 114.017,314.655 113.963,314.613 C113.909,314.571 113.882,314.502 113.882,314.406 L113.882,314.406 L113.882,307.674 C113.882,307.578 113.909,307.509 113.963,307.467 C114.017,307.425 114.08,307.404 114.152,307.404 L114.152,307.404 L114.152,307.08 L111.884,307.08 L111.884,307.404 C111.956,307.404 112.019,307.425 112.073,307.467 C112.127,307.509 112.154,307.578 112.154,307.674 L112.154,307.674 L112.154,310.212 L107.33,310.212 L107.33,307.674 C107.33,307.578 107.357,307.509 107.411,307.467 C107.465,307.425 107.528,307.404 107.6,307.404 L107.6,307.404 L107.6,307.08 L105.332,307.08 L105.332,307.404 C105.404,307.404 105.467,307.425 105.521,307.467 C105.575,307.509 105.602,307.578 105.602,307.674 L105.602,307.674 L105.602,314.406 C105.602,314.502 105.575,314.571 105.521,314.613 C105.467,314.655 105.404,314.676 105.332,314.676 L105.332,314.676 L105.332,315 L107.6,315 Z M120.11,315 L120.11,314.676 C119.774,314.676 119.606,314.586 119.606,314.406 L119.606,314.406 L119.606,307.674 C119.606,307.494 119.774,307.404 120.11,307.404 L120.11,307.404 L120.11,307.08 L117.374,307.08 L117.374,307.404 C117.566,307.404 117.698,307.425 117.77,307.467 C117.842,307.509 117.878,307.578 117.878,307.674 L117.878,307.674 L117.878,314.406 C117.878,314.502 117.842,314.571 117.77,314.613 C117.698,314.655 117.566,314.676 117.374,314.676 L117.374,314.676 L117.374,315 L120.11,315 Z M126.608,315.054 C127.016,315.054 127.451,315.024 127.913,314.964 C128.375,314.904 128.798,314.778 129.182,314.586 C129.566,314.394 129.887,314.13 130.145,313.794 C130.403,313.458 130.532,313.026 130.532,312.498 C130.532,311.97 130.385,311.556 130.091,311.256 C129.797,310.956 129.428,310.728 128.984,310.572 C128.54,310.416 128.06,310.305 127.544,310.239 C127.028,310.173 126.548,310.107 126.104,310.041 C125.66,309.975 125.291,309.885 124.997,309.771 C124.703,309.657 124.556,309.468 124.556,309.204 C124.556,309.036 124.604,308.895 124.7,308.781 C124.796,308.667 124.928,308.574 125.096,308.502 C125.264,308.43 125.456,308.379 125.672,308.349 C125.888,308.319 126.116,308.304 126.356,308.304 C126.98,308.304 127.544,308.376 128.048,308.52 C128.552,308.664 128.924,308.838 129.164,309.042 C129.26,309.114 129.314,309.186 129.326,309.258 L129.326,309.258 L129.362,309.474 L129.686,309.582 L130.586,307.89 L130.388,307.692 C130.316,307.728 130.256,307.761 130.208,307.791 C130.16,307.821 130.088,307.836 129.992,307.836 C129.908,307.836 129.779,307.791 129.605,307.701 C129.431,307.611 129.206,307.512 128.93,307.404 C128.654,307.296 128.315,307.197 127.913,307.107 C127.511,307.017 127.028,306.972 126.464,306.972 C125.312,306.972 124.418,307.2 123.782,307.656 C123.146,308.112 122.828,308.724 122.828,309.492 C122.828,310.008 122.975,310.407 123.269,310.689 C123.563,310.971 123.932,311.187 124.376,311.337 C124.82,311.487 125.3,311.595 125.816,311.661 C126.332,311.727 126.812,311.793 127.256,311.859 C127.7,311.925 128.069,312.018 128.363,312.138 C128.657,312.258 128.804,312.45 128.804,312.714 C128.804,312.942 128.72,313.125 128.552,313.263 C128.384,313.401 128.18,313.509 127.94,313.587 C127.7,313.665 127.457,313.716 127.211,313.74 C126.965,313.764 126.758,313.776 126.59,313.776 C126.41,313.776 126.161,313.746 125.843,313.686 C125.525,313.626 125.207,313.545 124.889,313.443 C124.571,313.341 124.298,313.215 124.07,313.065 C123.842,312.915 123.728,312.75 123.728,312.57 C123.728,312.51 123.731,312.453 123.737,312.399 C123.743,312.345 123.746,312.294 123.746,312.246 L123.746,312.246 L123.404,312.156 L122.576,314.172 L122.828,314.352 C122.888,314.28 122.96,314.244 123.044,314.244 C123.092,314.244 123.23,314.289 123.458,314.379 C123.686,314.469 123.965,314.565 124.295,314.667 C124.625,314.769 124.991,314.859 125.393,314.937 C125.795,315.015 126.2,315.054 126.608,315.054 Z M142.934,315 L142.934,314.676 C142.718,314.676 142.61,314.586 142.61,314.406 L142.61,314.406 L142.61,308.412 L144.95,308.412 C145.046,308.412 145.136,308.436 145.22,308.484 C145.304,308.532 145.346,308.61 145.346,308.718 L145.346,308.718 L145.67,308.718 L145.67,306.648 L145.346,306.648 C145.346,306.816 145.304,306.93 145.22,306.99 C145.136,307.05 145.046,307.08 144.95,307.08 L144.95,307.08 L138.542,307.08 C138.446,307.08 138.356,307.05 138.272,306.99 C138.188,306.93 138.146,306.816 138.146,306.648 L138.146,306.648 L137.822,306.648 L137.822,308.718 L138.146,308.718 C138.146,308.61 138.188,308.532 138.272,308.484 C138.356,308.436 138.446,308.412 138.542,308.412 L138.542,308.412 L140.882,308.412 L140.882,314.406 C140.882,314.502 140.852,314.571 140.792,314.613 C140.732,314.655 140.672,314.676 140.612,314.676 L140.612,314.676 L140.612,315 L142.934,315 Z M151.736,315.054 C152.396,315.054 153.017,314.979 153.599,314.829 C154.181,314.679 154.688,314.436 155.12,314.1 C155.552,313.764 155.894,313.341 156.146,312.831 C156.398,312.321 156.524,311.724 156.524,311.04 C156.524,310.356 156.398,309.759 156.146,309.249 C155.894,308.739 155.552,308.316 155.12,307.98 C154.688,307.644 154.181,307.392 153.599,307.224 C153.017,307.056 152.396,306.972 151.736,306.972 C151.076,306.972 150.455,307.056 149.873,307.224 C149.291,307.392 148.784,307.644 148.352,307.98 C147.92,308.316 147.578,308.739 147.326,309.249 C147.074,309.759 146.948,310.356 146.948,311.04 C146.948,311.724 147.074,312.321 147.326,312.831 C147.578,313.341 147.92,313.764 148.352,314.1 C148.784,314.436 149.291,314.679 149.873,314.829 C150.455,314.979 151.076,315.054 151.736,315.054 Z M151.736,313.776 C151.352,313.776 150.977,313.713 150.611,313.587 C150.245,313.461 149.918,313.281 149.63,313.047 C149.342,312.813 149.111,312.528 148.937,312.192 C148.763,311.856 148.676,311.472 148.676,311.04 C148.676,310.608 148.763,310.224 148.937,309.888 C149.111,309.552 149.342,309.267 149.63,309.033 C149.918,308.799 150.245,308.619 150.611,308.493 C150.977,308.367 151.352,308.304 151.736,308.304 C152.12,308.304 152.495,308.367 152.861,308.493 C153.227,308.619 153.554,308.799 153.842,309.033 C154.13,309.267 154.361,309.552 154.535,309.888 C154.709,310.224 154.796,310.608 154.796,311.04 C154.796,311.472 154.709,311.856 154.535,312.192 C154.361,312.528 154.13,312.813 153.842,313.047 C153.554,313.281 153.227,313.461 152.861,313.587 C152.495,313.713 152.12,313.776 151.736,313.776 Z M168.944,315 L168.944,314.676 C168.716,314.676 168.602,314.586 168.602,314.406 L168.602,314.406 L168.602,311.706 L171.356,308.142 C171.488,307.974 171.641,307.809 171.815,307.647 C171.989,307.485 172.148,307.404 172.292,307.404 L172.292,307.404 L172.292,307.08 L169.538,307.08 L169.538,307.404 C169.598,307.404 169.658,307.416 169.718,307.44 C169.778,307.464 169.808,307.524 169.808,307.62 C169.808,307.692 169.781,307.767 169.727,307.845 C169.673,307.923 169.592,308.04 169.484,308.196 L169.484,308.196 L167.882,310.428 L166.064,308.052 C166.004,307.968 165.95,307.896 165.902,307.836 C165.854,307.776 165.83,307.71 165.83,307.638 C165.83,307.566 165.866,307.509 165.938,307.467 C166.01,307.425 166.076,307.404 166.136,307.404 L166.136,307.404 L166.136,307.08 L163.166,307.08 L163.166,307.404 C163.274,307.404 163.388,307.428 163.508,307.476 C163.628,307.524 163.73,307.602 163.814,307.71 L163.814,307.71 L166.874,311.634 L166.874,314.406 C166.874,314.586 166.766,314.676 166.55,314.676 L166.55,314.676 L166.55,315 L168.944,315 Z M178.232,315.054 C178.892,315.054 179.513,314.979 180.095,314.829 C180.677,314.679 181.184,314.436 181.616,314.1 C182.048,313.764 182.39,313.341 182.642,312.831 C182.894,312.321 183.02,311.724 183.02,311.04 C183.02,310.356 182.894,309.759 182.642,309.249 C182.39,308.739 182.048,308.316 181.616,307.98 C181.184,307.644 180.677,307.392 180.095,307.224 C179.513,307.056 178.892,306.972 178.232,306.972 C177.572,306.972 176.951,307.056 176.369,307.224 C175.787,307.392 175.28,307.644 174.848,307.98 C174.416,308.316 174.074,308.739 173.822,309.249 C173.57,309.759 173.444,310.356 173.444,311.04 C173.444,311.724 173.57,312.321 173.822,312.831 C174.074,313.341 174.416,313.764 174.848,314.1 C175.28,314.436 175.787,314.679 176.369,314.829 C176.951,314.979 177.572,315.054 178.232,315.054 Z M178.232,313.776 C177.848,313.776 177.473,313.713 177.107,313.587 C176.741,313.461 176.414,313.281 176.126,313.047 C175.838,312.813 175.607,312.528 175.433,312.192 C175.259,311.856 175.172,311.472 175.172,311.04 C175.172,310.608 175.259,310.224 175.433,309.888 C175.607,309.552 175.838,309.267 176.126,309.033 C176.414,308.799 176.741,308.619 177.107,308.493 C177.473,308.367 177.848,308.304 178.232,308.304 C178.616,308.304 178.991,308.367 179.357,308.493 C179.723,308.619 180.05,308.799 180.338,309.033 C180.626,309.267 180.857,309.552 181.031,309.888 C181.205,310.224 181.292,310.608 181.292,311.04 C181.292,311.472 181.205,311.856 181.031,312.192 C180.857,312.528 180.626,312.813 180.338,313.047 C180.05,313.281 179.723,313.461 179.357,313.587 C178.991,313.713 178.616,313.776 178.232,313.776 Z M189.806,315.054 C190.526,315.054 191.153,314.979 191.687,314.829 C192.221,314.679 192.659,314.472 193.001,314.208 C193.343,313.944 193.598,313.641 193.766,313.299 C193.934,312.957 194.018,312.6 194.018,312.228 L194.018,312.228 L194.018,307.674 C194.018,307.494 194.15,307.404 194.414,307.404 L194.414,307.404 L194.414,307.08 L191.912,307.08 L191.912,307.404 C192.212,307.404 192.362,307.494 192.362,307.674 L192.362,307.674 L192.362,311.796 C192.362,312.372 192.152,312.834 191.732,313.182 C191.312,313.53 190.67,313.704 189.806,313.704 C188.942,313.704 188.3,313.53 187.88,313.182 C187.46,312.834 187.25,312.372 187.25,311.796 L187.25,311.796 L187.25,307.674 C187.25,307.494 187.382,307.404 187.646,307.404 L187.646,307.404 L187.646,307.08 L185.072,307.08 L185.072,307.404 C185.276,307.404 185.414,307.425 185.486,307.467 C185.558,307.509 185.594,307.578 185.594,307.674 L185.594,307.674 L185.594,312.228 C185.594,312.6 185.678,312.957 185.846,313.299 C186.014,313.641 186.269,313.944 186.611,314.208 C186.953,314.472 187.391,314.679 187.925,314.829 C188.459,314.979 189.086,315.054 189.806,315.054 Z M199.544,315 L199.544,314.676 C199.472,314.676 199.397,314.655 199.319,314.613 C199.241,314.571 199.202,314.502 199.202,314.406 L199.202,314.406 L199.202,311.832 L201.704,311.832 L203.126,313.956 C203.306,314.208 203.396,314.394 203.396,314.514 C203.396,314.622 203.318,314.676 203.162,314.676 L203.162,314.676 L203.162,315 L205.916,315 L205.916,314.676 C205.784,314.64 205.661,314.589 205.547,314.523 C205.433,314.457 205.328,314.358 205.232,314.226 L205.232,314.226 L203.468,311.652 C203.72,311.592 203.966,311.505 204.206,311.391 C204.446,311.277 204.665,311.127 204.863,310.941 C205.061,310.755 205.22,310.536 205.34,310.284 C205.46,310.032 205.52,309.744 205.52,309.42 C205.52,308.568 205.22,307.965 204.62,307.611 C204.02,307.257 203.186,307.08 202.118,307.08 L202.118,307.08 L197.15,307.08 L197.15,307.404 C197.366,307.404 197.474,307.494 197.474,307.674 L197.474,307.674 L197.474,314.406 C197.474,314.586 197.366,314.676 197.15,314.676 L197.15,314.676 L197.15,315 L199.544,315 Z M202.082,310.5 L199.238,310.5 L199.238,308.412 L202.082,308.412 C202.694,308.412 203.141,308.499 203.423,308.673 C203.705,308.847 203.846,309.084 203.846,309.384 C203.846,310.128 203.258,310.5 202.082,310.5 L202.082,310.5 Z M74.354,333.054 C74.762,333.054 75.197,333.024 75.659,332.964 C76.121,332.904 76.544,332.778 76.928,332.586 C77.312,332.394 77.633,332.13 77.891,331.794 C78.149,331.458 78.278,331.026 78.278,330.498 C78.278,329.97 78.131,329.556 77.837,329.256 C77.543,328.956 77.174,328.728 76.73,328.572 C76.286,328.416 75.806,328.305 75.29,328.239 C74.774,328.173 74.294,328.107 73.85,328.041 C73.406,327.975 73.037,327.885 72.743,327.771 C72.449,327.657 72.302,327.468 72.302,327.204 C72.302,327.036 72.35,326.895 72.446,326.781 C72.542,326.667 72.674,326.574 72.842,326.502 C73.01,326.43 73.202,326.379 73.418,326.349 C73.634,326.319 73.862,326.304 74.102,326.304 C74.726,326.304 75.29,326.376 75.794,326.52 C76.298,326.664 76.67,326.838 76.91,327.042 C77.006,327.114 77.06,327.186 77.072,327.258 L77.072,327.258 L77.108,327.474 L77.432,327.582 L78.332,325.89 L78.134,325.692 C78.062,325.728 78.002,325.761 77.954,325.791 C77.906,325.821 77.834,325.836 77.738,325.836 C77.654,325.836 77.525,325.791 77.351,325.701 C77.177,325.611 76.952,325.512 76.676,325.404 C76.4,325.296 76.061,325.197 75.659,325.107 C75.257,325.017 74.774,324.972 74.21,324.972 C73.058,324.972 72.164,325.2 71.528,325.656 C70.892,326.112 70.574,326.724 70.574,327.492 C70.574,328.008 70.721,328.407 71.015,328.689 C71.309,328.971 71.678,329.187 72.122,329.337 C72.566,329.487 73.046,329.595 73.562,329.661 C74.078,329.727 74.558,329.793 75.002,329.859 C75.446,329.925 75.815,330.018 76.109,330.138 C76.403,330.258 76.55,330.45 76.55,330.714 C76.55,330.942 76.466,331.125 76.298,331.263 C76.13,331.401 75.926,331.509 75.686,331.587 C75.446,331.665 75.203,331.716 74.957,331.74 C74.711,331.764 74.504,331.776 74.336,331.776 C74.156,331.776 73.907,331.746 73.589,331.686 C73.271,331.626 72.953,331.545 72.635,331.443 C72.317,331.341 72.044,331.215 71.816,331.065 C71.588,330.915 71.474,330.75 71.474,330.57 C71.474,330.51 71.477,330.453 71.483,330.399 C71.489,330.345 71.492,330.294 71.492,330.246 L71.492,330.246 L71.15,330.156 L70.322,332.172 L70.574,332.352 C70.634,332.28 70.706,332.244 70.79,332.244 C70.838,332.244 70.976,332.289 71.204,332.379 C71.432,332.469 71.711,332.565 72.041,332.667 C72.371,332.769 72.737,332.859 73.139,332.937 C73.541,333.015 73.946,333.054 74.354,333.054 Z M85.712,333 L85.712,332.676 C85.484,332.676 85.37,332.586 85.37,332.406 L85.37,332.406 L85.37,329.706 L88.124,326.142 C88.256,325.974 88.409,325.809 88.583,325.647 C88.757,325.485 88.916,325.404 89.06,325.404 L89.06,325.404 L89.06,325.08 L86.306,325.08 L86.306,325.404 C86.366,325.404 86.426,325.416 86.486,325.44 C86.546,325.464 86.576,325.524 86.576,325.62 C86.576,325.692 86.549,325.767 86.495,325.845 C86.441,325.923 86.36,326.04 86.252,326.196 L86.252,326.196 L84.65,328.428 L82.832,326.052 C82.772,325.968 82.718,325.896 82.67,325.836 C82.622,325.776 82.598,325.71 82.598,325.638 C82.598,325.566 82.634,325.509 82.706,325.467 C82.778,325.425 82.844,325.404 82.904,325.404 L82.904,325.404 L82.904,325.08 L79.934,325.08 L79.934,325.404 C80.042,325.404 80.156,325.428 80.276,325.476 C80.396,325.524 80.498,325.602 80.582,325.71 L80.582,325.71 L83.642,329.634 L83.642,332.406 C83.642,332.586 83.534,332.676 83.318,332.676 L83.318,332.676 L83.318,333 L85.712,333 Z M93.218,333 L93.218,332.676 C93.014,332.676 92.912,332.586 92.912,332.406 L92.912,332.406 L92.912,327.348 L92.93,327.348 L95.828,333 L95.972,333 L99.032,327.348 L99.068,327.348 L99.068,332.406 C99.104,332.586 98.996,332.676 98.744,332.676 L98.744,332.676 L98.744,333 L100.832,333 L100.832,332.676 C100.772,332.676 100.715,332.655 100.661,332.613 C100.607,332.571 100.58,332.502 100.58,332.406 L100.58,332.406 L100.58,325.638 C100.58,325.542 100.607,325.479 100.661,325.449 C100.715,325.419 100.772,325.404 100.832,325.404 L100.832,325.404 L100.832,325.08 L98.294,325.08 L98.294,325.404 C98.39,325.404 98.438,325.458 98.438,325.566 C98.438,325.602 98.414,325.665 98.366,325.755 C98.318,325.845 98.252,325.962 98.168,326.106 L98.168,326.106 L95.954,330.138 L93.758,326.088 C93.674,325.944 93.611,325.833 93.569,325.755 C93.527,325.677 93.506,325.614 93.506,325.566 C93.506,325.458 93.566,325.404 93.686,325.404 L93.686,325.404 L93.686,325.08 L91.184,325.08 L91.184,325.404 C91.268,325.404 91.325,325.422 91.355,325.458 C91.385,325.494 91.4,325.596 91.4,325.764 L91.4,325.764 L91.4,332.352 C91.4,332.484 91.379,332.568 91.337,332.604 C91.295,332.64 91.244,332.664 91.184,332.676 L91.184,332.676 L91.184,333 L93.218,333 Z M106.268,333 L106.268,332.676 C106.016,332.676 105.89,332.586 105.89,332.406 L105.89,332.406 L105.89,329.706 L108.95,329.706 C109.922,329.706 110.651,329.541 111.137,329.211 C111.623,328.881 111.866,328.284 111.866,327.42 C111.866,326.556 111.623,325.95 111.137,325.602 C110.651,325.254 109.922,325.08 108.95,325.08 L108.95,325.08 L103.712,325.08 L103.712,325.404 C104.012,325.404 104.162,325.494 104.162,325.674 L104.162,325.674 L104.162,332.406 C104.162,332.586 104.012,332.676 103.712,332.676 L103.712,332.676 L103.712,333 L106.268,333 Z M108.914,328.374 L105.89,328.374 L105.89,326.412 L108.914,326.412 C109.262,326.412 109.553,326.487 109.787,326.637 C110.021,326.787 110.138,327.048 110.138,327.42 C110.138,327.804 110.021,328.059 109.787,328.185 C109.553,328.311 109.262,328.374 108.914,328.374 L108.914,328.374 Z M118.202,333 L118.202,332.676 C117.986,332.676 117.878,332.586 117.878,332.406 L117.878,332.406 L117.878,326.412 L120.218,326.412 C120.314,326.412 120.404,326.436 120.488,326.484 C120.572,326.532 120.614,326.61 120.614,326.718 L120.614,326.718 L120.938,326.718 L120.938,324.648 L120.614,324.648 C120.614,324.816 120.572,324.93 120.488,324.99 C120.404,325.05 120.314,325.08 120.218,325.08 L120.218,325.08 L113.81,325.08 C113.714,325.08 113.624,325.05 113.54,324.99 C113.456,324.93 113.414,324.816 113.414,324.648 L113.414,324.648 L113.09,324.648 L113.09,326.718 L113.414,326.718 C113.414,326.61 113.456,326.532 113.54,326.484 C113.624,326.436 113.714,326.412 113.81,326.412 L113.81,326.412 L116.15,326.412 L116.15,332.406 C116.15,332.502 116.12,332.571 116.06,332.613 C116,332.655 115.94,332.676 115.88,332.676 L115.88,332.676 L115.88,333 L118.202,333 Z M127.004,333.054 C127.664,333.054 128.285,332.979 128.867,332.829 C129.449,332.679 129.956,332.436 130.388,332.1 C130.82,331.764 131.162,331.341 131.414,330.831 C131.666,330.321 131.792,329.724 131.792,329.04 C131.792,328.356 131.666,327.759 131.414,327.249 C131.162,326.739 130.82,326.316 130.388,325.98 C129.956,325.644 129.449,325.392 128.867,325.224 C128.285,325.056 127.664,324.972 127.004,324.972 C126.344,324.972 125.723,325.056 125.141,325.224 C124.559,325.392 124.052,325.644 123.62,325.98 C123.188,326.316 122.846,326.739 122.594,327.249 C122.342,327.759 122.216,328.356 122.216,329.04 C122.216,329.724 122.342,330.321 122.594,330.831 C122.846,331.341 123.188,331.764 123.62,332.1 C124.052,332.436 124.559,332.679 125.141,332.829 C125.723,332.979 126.344,333.054 127.004,333.054 Z M127.004,331.776 C126.62,331.776 126.245,331.713 125.879,331.587 C125.513,331.461 125.186,331.281 124.898,331.047 C124.61,330.813 124.379,330.528 124.205,330.192 C124.031,329.856 123.944,329.472 123.944,329.04 C123.944,328.608 124.031,328.224 124.205,327.888 C124.379,327.552 124.61,327.267 124.898,327.033 C125.186,326.799 125.513,326.619 125.879,326.493 C126.245,326.367 126.62,326.304 127.004,326.304 C127.388,326.304 127.763,326.367 128.129,326.493 C128.495,326.619 128.822,326.799 129.11,327.033 C129.398,327.267 129.629,327.552 129.803,327.888 C129.977,328.224 130.064,328.608 130.064,329.04 C130.064,329.472 129.977,329.856 129.803,330.192 C129.629,330.528 129.398,330.813 129.11,331.047 C128.822,331.281 128.495,331.461 128.129,331.587 C127.763,331.713 127.388,331.776 127.004,331.776 Z M136.22,333 L136.22,332.676 C136.016,332.676 135.914,332.586 135.914,332.406 L135.914,332.406 L135.914,327.348 L135.932,327.348 L138.83,333 L138.974,333 L142.034,327.348 L142.07,327.348 L142.07,332.406 C142.106,332.586 141.998,332.676 141.746,332.676 L141.746,332.676 L141.746,333 L143.834,333 L143.834,332.676 C143.774,332.676 143.717,332.655 143.663,332.613 C143.609,332.571 143.582,332.502 143.582,332.406 L143.582,332.406 L143.582,325.638 C143.582,325.542 143.609,325.479 143.663,325.449 C143.717,325.419 143.774,325.404 143.834,325.404 L143.834,325.404 L143.834,325.08 L141.296,325.08 L141.296,325.404 C141.392,325.404 141.44,325.458 141.44,325.566 C141.44,325.602 141.416,325.665 141.368,325.755 C141.32,325.845 141.254,325.962 141.17,326.106 L141.17,326.106 L138.956,330.138 L136.76,326.088 C136.676,325.944 136.613,325.833 136.571,325.755 C136.529,325.677 136.508,325.614 136.508,325.566 C136.508,325.458 136.568,325.404 136.688,325.404 L136.688,325.404 L136.688,325.08 L134.186,325.08 L134.186,325.404 C134.27,325.404 134.327,325.422 134.357,325.458 C134.387,325.494 134.402,325.596 134.402,325.764 L134.402,325.764 L134.402,332.352 C134.402,332.484 134.381,332.568 134.339,332.604 C134.297,332.64 134.246,332.664 134.186,332.676 L134.186,332.676 L134.186,333 L136.22,333 Z M154.76,333 L154.76,332.676 C154.508,332.676 154.382,332.586 154.382,332.406 L154.382,332.406 L154.382,329.706 L157.442,329.706 C158.414,329.706 159.143,329.541 159.629,329.211 C160.115,328.881 160.358,328.284 160.358,327.42 C160.358,326.556 160.115,325.95 159.629,325.602 C159.143,325.254 158.414,325.08 157.442,325.08 L157.442,325.08 L152.204,325.08 L152.204,325.404 C152.504,325.404 152.654,325.494 152.654,325.674 L152.654,325.674 L152.654,332.406 C152.654,332.586 152.504,332.676 152.204,332.676 L152.204,332.676 L152.204,333 L154.76,333 Z M157.406,328.374 L154.382,328.374 L154.382,326.412 L157.406,326.412 C157.754,326.412 158.045,326.487 158.279,326.637 C158.513,326.787 158.63,327.048 158.63,327.42 C158.63,327.804 158.513,328.059 158.279,328.185 C158.045,328.311 157.754,328.374 157.406,328.374 L157.406,328.374 Z M165.362,333 L165.362,332.676 C165.026,332.676 164.858,332.586 164.858,332.406 L164.858,332.406 L164.858,325.674 C164.858,325.494 165.026,325.404 165.362,325.404 L165.362,325.404 L165.362,325.08 L162.626,325.08 L162.626,325.404 C162.818,325.404 162.95,325.425 163.022,325.467 C163.094,325.509 163.13,325.578 163.13,325.674 L163.13,325.674 L163.13,332.406 C163.13,332.502 163.094,332.571 163.022,332.613 C162.95,332.655 162.818,332.676 162.626,332.676 L162.626,332.676 L162.626,333 L165.362,333 Z M176.252,333.18 L176.252,331.29 L175.928,331.29 C175.928,331.41 175.88,331.503 175.784,331.569 C175.688,331.635 175.568,331.668 175.424,331.668 L175.424,331.668 L170.564,331.668 L170.564,325.674 C170.564,325.494 170.702,325.404 170.978,325.404 L170.978,325.404 L170.978,325.08 L168.368,325.08 L168.368,325.404 C168.68,325.404 168.836,325.494 168.836,325.674 L168.836,325.674 L168.836,332.406 C168.836,332.586 168.68,332.676 168.368,332.676 L168.368,332.676 L168.368,333 L175.424,333 C175.568,333 175.688,333.006 175.784,333.018 C175.88,333.03 175.928,333.084 175.928,333.18 L175.928,333.18 L176.252,333.18 Z M185.918,333.198 L185.918,331.308 L185.594,331.308 C185.594,331.416 185.546,331.503 185.45,331.569 C185.354,331.635 185.234,331.668 185.09,331.668 L185.09,331.668 L180.482,331.668 L180.482,329.544 L183.11,329.544 C183.35,329.544 183.536,329.559 183.668,329.589 C183.8,329.619 183.848,329.7 183.812,329.832 L183.812,329.832 L184.172,329.832 L184.172,327.924 L183.848,327.924 C183.848,328.056 183.8,328.137 183.704,328.167 C183.608,328.197 183.458,328.212 183.254,328.212 L183.254,328.212 L180.482,328.212 L180.482,326.412 L184.874,326.412 C185.246,326.412 185.432,326.526 185.432,326.754 L185.432,326.754 L185.756,326.754 L185.756,324.756 L185.432,324.756 C185.432,324.972 185.246,325.08 184.874,325.08 L184.874,325.08 L178.484,325.08 L178.484,325.404 C178.544,325.404 178.604,325.425 178.664,325.467 C178.724,325.509 178.754,325.578 178.754,325.674 L178.754,325.674 L178.754,332.406 C178.754,332.502 178.724,332.571 178.664,332.613 C178.604,332.655 178.544,332.676 178.484,332.676 L178.484,332.676 L178.484,333 L185.09,333 C185.234,333 185.354,333.006 185.45,333.018 C185.546,333.03 185.594,333.09 185.594,333.198 L185.594,333.198 L185.918,333.198 Z M189.752,333.054 C190.1,333.054 190.4,332.937 190.652,332.703 C190.904,332.469 191.03,332.178 191.03,331.83 C191.03,331.482 190.904,331.182 190.652,330.93 C190.4,330.678 190.1,330.552 189.752,330.552 C189.404,330.552 189.104,330.678 188.852,330.93 C188.6,331.182 188.474,331.482 188.474,331.83 C188.474,332.178 188.6,332.469 188.852,332.703 C189.104,332.937 189.404,333.054 189.752,333.054 Z" id="Ihopethisistheblackplague.Addthistoyoursymptompile." fill="#000000" fill-rule="nonzero"></path>
    </g>
</svg>