<?xml version="1.0" encoding="UTF-8"?>
<svg width="262px" height="360px" viewBox="0 0 262 360" version="1.1" xmlns="http://www.w3.org/2000/svg" xmlns:xlink="http://www.w3.org/1999/xlink">
    <title>Fever 1</title>
    <g id="Fever-1" stroke="none" stroke-width="1" fill="none" fill-rule="evenodd">
        <g id="Group" transform="translate(9.000000, 9.000000)" fill="#FFFFFF" stroke="#000000" stroke-width="3">
            <g id="Rectangle">
                <rect x="1.5" y="1.5" width="239" height="337" rx="8"></rect>
            </g>
        </g>
        <path d="M219.82,30.312 L219.82,27.12 L219.532,27.12 C219.532,27.44 219.456,27.632 219.304,27.696 C219.152,27.76 218.988,27.792 218.812,27.792 L218.812,27.792 L210.892,27.792 L210.892,27.552 C211.324,27.152 211.824,26.824 212.392,26.568 C212.96,26.312 213.552,26.068 214.168,25.836 C214.784,25.604 215.388,25.368 215.98,25.128 C216.572,24.888 217.104,24.596 217.576,24.252 C218.048,23.908 218.428,23.488 218.716,22.992 C219.004,22.496 219.148,21.872 219.148,21.12 C219.148,20.416 219.008,19.82 218.728,19.332 C218.448,18.844 218.08,18.444 217.624,18.132 C217.168,17.82 216.648,17.592 216.064,17.448 C215.48,17.304 214.884,17.232 214.276,17.232 C213.348,17.232 212.548,17.352 211.876,17.592 C211.204,17.832 210.644,18.096 210.196,18.384 C209.748,18.672 209.396,18.936 209.14,19.176 C208.884,19.416 208.708,19.536 208.612,19.536 C208.532,19.536 208.46,19.52 208.396,19.488 L208.396,19.488 L208.204,19.392 L207.964,19.56 L210.436,22.2 L210.676,22.032 C210.612,21.984 210.56,21.896 210.52,21.768 C210.48,21.64 210.46,21.536 210.46,21.456 C210.46,21.12 210.592,20.82 210.856,20.556 C211.12,20.292 211.436,20.064 211.804,19.872 C212.172,19.68 212.556,19.536 212.956,19.44 C213.356,19.344 213.692,19.296 213.964,19.296 C214.236,19.296 214.516,19.32 214.804,19.368 C215.092,19.416 215.356,19.508 215.596,19.644 C215.836,19.78 216.032,19.956 216.184,20.172 C216.336,20.388 216.412,20.664 216.412,21 C216.412,21.496 216.2,21.928 215.776,22.296 C215.352,22.664 214.82,23.02 214.18,23.364 C213.54,23.708 212.852,24.056 212.116,24.408 C211.38,24.76 210.692,25.168 210.052,25.632 C209.412,26.096 208.88,26.632 208.456,27.24 C208.032,27.848 207.82,28.576 207.82,29.424 L207.82,29.424 L207.82,30.288 L208.108,30.288 C208.108,30.144 208.164,30.06 208.276,30.036 C208.388,30.012 208.532,30 208.708,30 L208.708,30 L218.812,30 C218.988,30 219.152,30.008 219.304,30.024 C219.456,30.04 219.532,30.136 219.532,30.312 L219.532,30.312 L219.82,30.312 Z" id="2" fill="#000000" fill-rule="nonzero"></path>
        <g id="Face" transform="translate(225.000000, 15.000000)">
            <circle id="Oval" stroke="#000000" fill="#FFFFFF" cx="9.5" cy="9.5" r="9"></circle>
            <circle id="Oval" fill="#000000" cx="5" cy="8" r="1"></circle>
            <circle id="Oval-Copy" fill="#000000" cx="12" cy="8" r="1"></circle>
            <line x1="12.0789474" y1="13.9090909" x2="14.5" y2="11.5" id="Line-4" stroke="#000000" stroke-linecap="round"></line>
            <path d="M3,5.89285714 C3.41025641,5.96428571 3.76923077,6 4.07692308,6 C4.38461538,6 5.35897436,5.33333333 7,4" id="Line-2" stroke="#000000"></path>
            <path d="M6,15 C6.96078431,14.3333333 8.07598039,14 9.34558824,14 C10.6151961,14 11.8333333,14.3333333 13,15" id="Line" stroke="#000000" stroke-linecap="round" stroke-linejoin="round"></path>
            <path d="M11.3197366,4.68245322 C11.585843,4.80663622 11.7912611,4.92388646 11.9359908,5.03420394 C12.548667,5.50120471 13.1333088,5.70898724 13.3155349,5.80010028 C13.5440857,5.91437569 13.8101922,6.00751295 14.1138542,6.07951204" id="Line-3" stroke="#000000" stroke-linecap="square" transform="translate(12.716795, 5.380983) rotate(-3.000000) translate(-12.716795, -5.380983) "></path>
            <path d="M2.999,9.347 L3.01687864,9.39698204 C3.09438102,9.62639002 3.1880913,9.89570266 3.30282211,10.2112791 C3.48139895,10.7024692 3.54804655,11.0169045 3.47980817,11.2204078 C3.41244402,11.421304 3.17143148,11.4011566 3.01518318,11.4416373 L3.01518318,11.4416373 L2.86575433,11.4813457 C2.78836954,11.5029149 2.70310591,11.5126925 2.63007237,11.4810832 C2.58941161,11.463485 2.56030088,11.4264037 2.54036126,11.376794 C2.4446463,11.1386559 2.49784548,10.759559 2.69717789,10.2112791 C2.8119087,9.89570266 2.90561898,9.62639002 2.98312136,9.39698204 L2.999,9.347 Z" id="Oval" stroke="#000000"></path>
            <path d="M16,6.347 L16.0168786,6.39698204 C16.094381,6.62639002 16.1880913,6.89570266 16.3028221,7.21127907 C16.481399,7.70246915 16.5480465,8.01690453 16.4798082,8.22040783 C16.412444,8.42130397 16.1714315,8.40115659 16.0151832,8.44163726 L16.0151832,8.44163726 L15.8657543,8.48134574 C15.7883695,8.50291486 15.7031059,8.51269255 15.6300724,8.48108319 C15.5894116,8.46348497 15.5603009,8.42640366 15.5403613,8.37679403 C15.4446463,8.13865595 15.4978455,7.75955902 15.6971779,7.21127907 C15.8119087,6.89570266 15.905619,6.62639002 15.9831214,6.39698204 L16,6.347 Z" id="Oval-Copy-2" stroke="#000000"></path>
        </g>
        <rect id="Rectangle" stroke="#000000" stroke-width="3" x="17.5" y="257.5" width="225" height="84" rx="8"></rect>
        <path d="M87.476,57 L87.476,56.352 C87.164,56.352 86.906,56.298 86.702,56.19 C86.498,56.082 86.396,55.92 86.396,55.704 L86.396,55.704 L86.396,48.72 L93.452,48.72 C93.932,48.72 94.304,48.798 94.568,48.954 C94.832,49.11 94.964,49.464 94.964,50.016 L94.964,50.016 L95.612,50.016 L95.612,44.832 L94.964,44.832 C94.964,45.168 94.832,45.384 94.568,45.48 C94.304,45.576 93.932,45.624 93.452,45.624 L93.452,45.624 L86.396,45.624 L86.396,41.16 L98.06,41.16 C98.564,41.16 98.918,41.226 99.122,41.358 C99.326,41.49 99.428,41.688 99.428,41.952 L99.428,41.952 L100.076,41.952 L100.076,37.2 L99.428,37.2 C99.428,37.464 99.326,37.674 99.122,37.83 C98.918,37.986 98.564,38.064 98.06,38.064 L98.06,38.064 L81.356,38.064 L81.356,38.712 C81.98,38.712 82.292,38.928 82.292,39.36 L82.292,39.36 L82.292,55.704 C82.292,56.136 81.98,56.352 81.356,56.352 L81.356,56.352 L81.356,57 L87.476,57 Z M118.796,57.396 L118.796,53.616 L118.148,53.616 C118.148,53.832 118.052,54.006 117.86,54.138 C117.668,54.27 117.428,54.336 117.14,54.336 L117.14,54.336 L107.924,54.336 L107.924,50.088 L113.18,50.088 C113.66,50.088 114.032,50.118 114.296,50.178 C114.56,50.238 114.656,50.4 114.584,50.664 L114.584,50.664 L115.304,50.664 L115.304,46.848 L114.656,46.848 C114.656,47.112 114.56,47.274 114.368,47.334 C114.176,47.394 113.876,47.424 113.468,47.424 L113.468,47.424 L107.924,47.424 L107.924,43.824 L116.708,43.824 C117.452,43.824 117.824,44.052 117.824,44.508 L117.824,44.508 L118.472,44.508 L118.472,40.512 L117.824,40.512 C117.824,40.944 117.452,41.16 116.708,41.16 L116.708,41.16 L103.928,41.16 L103.928,41.808 C104.048,41.808 104.168,41.85 104.288,41.934 C104.408,42.018 104.468,42.156 104.468,42.348 L104.468,42.348 L104.468,55.812 C104.468,56.004 104.408,56.142 104.288,56.226 C104.168,56.31 104.048,56.352 103.928,56.352 L103.928,56.352 L103.928,57 L117.14,57 C117.428,57 117.668,57.012 117.86,57.036 C118.052,57.06 118.148,57.18 118.148,57.396 L118.148,57.396 L118.796,57.396 Z M133.844,57 L133.844,56.352 C133.412,56.28 133.196,56.172 133.196,56.028 C133.196,55.908 133.262,55.74 133.394,55.524 C133.526,55.308 133.724,54.888 133.988,54.264 L133.988,54.264 L139.244,42.636 C139.508,42.084 139.808,41.808 140.144,41.808 L140.144,41.808 L140.144,41.16 L135.428,41.16 L135.428,41.808 C135.764,41.808 135.944,41.952 135.968,42.24 C135.992,42.408 135.932,42.636 135.788,42.924 C135.644,43.212 135.44,43.644 135.176,44.22 L135.176,44.22 L131.252,52.932 L127.112,43.968 C126.944,43.608 126.794,43.278 126.662,42.978 C126.53,42.678 126.464,42.444 126.464,42.276 C126.464,41.964 126.608,41.808 126.896,41.808 L126.896,41.808 L126.896,41.16 L121.82,41.16 L121.82,41.808 C121.964,41.808 122.114,41.868 122.27,41.988 C122.426,42.108 122.552,42.276 122.648,42.492 L122.648,42.492 L128.12,54.264 C128.336,54.72 128.522,55.08 128.678,55.344 L128.7495,55.47 C128.857833,55.67 128.912,55.82 128.912,55.92 C128.912,56.04 128.858,56.13 128.75,56.19 C128.642,56.25 128.528,56.304 128.408,56.352 L128.408,56.352 L128.408,57 L133.844,57 Z M158.828,57.396 L158.828,53.616 L158.18,53.616 C158.18,53.832 158.084,54.006 157.892,54.138 C157.7,54.27 157.46,54.336 157.172,54.336 L157.172,54.336 L147.956,54.336 L147.956,50.088 L153.212,50.088 C153.692,50.088 154.064,50.118 154.328,50.178 C154.592,50.238 154.688,50.4 154.616,50.664 L154.616,50.664 L155.336,50.664 L155.336,46.848 L154.688,46.848 C154.688,47.112 154.592,47.274 154.4,47.334 C154.208,47.394 153.908,47.424 153.5,47.424 L153.5,47.424 L147.956,47.424 L147.956,43.824 L156.74,43.824 C157.484,43.824 157.856,44.052 157.856,44.508 L157.856,44.508 L158.504,44.508 L158.504,40.512 L157.856,40.512 C157.856,40.944 157.484,41.16 156.74,41.16 L156.74,41.16 L143.96,41.16 L143.96,41.808 C144.08,41.808 144.2,41.85 144.32,41.934 C144.44,42.018 144.5,42.156 144.5,42.348 L144.5,42.348 L144.5,55.812 C144.5,56.004 144.44,56.142 144.32,56.226 C144.2,56.31 144.08,56.352 143.96,56.352 L143.96,56.352 L143.96,57 L157.172,57 C157.46,57 157.7,57.012 157.892,57.036 C158.084,57.06 158.18,57.18 158.18,57.396 L158.18,57.396 L158.828,57.396 Z M168.62,57 L168.62,56.352 C168.476,56.352 168.326,56.31 168.17,56.226 C168.014,56.142 167.936,56.004 167.936,55.812 L167.936,55.812 L167.936,50.664 L172.94,50.664 L175.784,54.912 C176.144,55.416 176.324,55.788 176.324,56.028 C176.324,56.244 176.168,56.352 175.856,56.352 L175.856,56.352 L175.856,57 L181.364,57 L181.364,56.352 C181.1,56.28 180.854,56.178 180.626,56.046 C180.398,55.914 180.188,55.716 179.996,55.452 L179.996,55.452 L176.468,50.304 C176.972,50.184 177.464,50.01 177.944,49.782 C178.424,49.554 178.862,49.254 179.258,48.882 C179.654,48.51 179.972,48.072 180.212,47.568 C180.452,47.064 180.572,46.488 180.572,45.84 C180.572,44.136 179.972,42.93 178.772,42.222 C177.572,41.514 175.904,41.16 173.768,41.16 L173.768,41.16 L163.832,41.16 L163.832,41.808 C164.264,41.808 164.48,41.988 164.48,42.348 L164.48,42.348 L164.48,55.812 C164.48,56.172 164.264,56.352 163.832,56.352 L163.832,56.352 L163.832,57 L168.62,57 Z M173.696,48 L168.008,48 L168.008,43.824 L173.696,43.824 C174.92,43.824 175.814,43.998 176.378,44.346 C176.942,44.694 177.224,45.168 177.224,45.768 C177.224,47.256 176.048,48 173.696,48 L173.696,48 Z" id="Fever" fill="#000000" fill-rule="nonzero"></path>
        <path d="M32.504,275 L32.504,274.676 C32.192,274.676 32.036,274.568 32.036,274.352 L32.036,274.352 L32.036,266.18 C32.036,265.964 32.192,265.856 32.504,265.856 L32.504,265.856 L32.504,265.532 L29.516,265.532 L29.516,265.856 C29.828,265.856 29.984,265.964 29.984,266.18 L29.984,266.18 L29.984,274.352 C29.984,274.568 29.828,274.676 29.516,274.676 L29.516,274.676 L29.516,275 L32.504,275 Z M38.876,275.054 C39.284,275.054 39.719,275.024 40.181,274.964 C40.643,274.904 41.066,274.778 41.45,274.586 C41.834,274.394 42.155,274.13 42.413,273.794 C42.671,273.458 42.8,273.026 42.8,272.498 C42.8,271.97 42.653,271.556 42.359,271.256 C42.065,270.956 41.696,270.728 41.252,270.572 C40.808,270.416 40.328,270.305 39.812,270.239 C39.296,270.173 38.816,270.107 38.372,270.041 C37.928,269.975 37.559,269.885 37.265,269.771 C36.971,269.657 36.824,269.468 36.824,269.204 C36.824,269.036 36.872,268.895 36.968,268.781 C37.064,268.667 37.196,268.574 37.364,268.502 C37.532,268.43 37.724,268.379 37.94,268.349 C38.156,268.319 38.384,268.304 38.624,268.304 C39.248,268.304 39.812,268.376 40.316,268.52 C40.82,268.664 41.192,268.838 41.432,269.042 C41.528,269.114 41.582,269.186 41.594,269.258 C41.606,269.33 41.618,269.402 41.63,269.474 L41.63,269.474 L41.954,269.582 L42.854,267.89 L42.656,267.692 C42.584,267.728 42.524,267.761 42.476,267.791 C42.428,267.821 42.356,267.836 42.26,267.836 C42.176,267.836 42.047,267.791 41.873,267.701 C41.699,267.611 41.474,267.512 41.198,267.404 C40.922,267.296 40.583,267.197 40.181,267.107 C39.779,267.017 39.296,266.972 38.732,266.972 C37.58,266.972 36.686,267.2 36.05,267.656 C35.414,268.112 35.096,268.724 35.096,269.492 C35.096,270.008 35.243,270.407 35.537,270.689 C35.831,270.971 36.2,271.187 36.644,271.337 C37.088,271.487 37.568,271.595 38.084,271.661 C38.6,271.727 39.08,271.793 39.524,271.859 C39.968,271.925 40.337,272.018 40.631,272.138 C40.925,272.258 41.072,272.45 41.072,272.714 C41.072,272.942 40.988,273.125 40.82,273.263 C40.652,273.401 40.448,273.509 40.208,273.587 C39.968,273.665 39.725,273.716 39.479,273.74 C39.233,273.764 39.026,273.776 38.858,273.776 C38.678,273.776 38.429,273.746 38.111,273.686 C37.793,273.626 37.475,273.545 37.157,273.443 C36.839,273.341 36.566,273.215 36.338,273.065 C36.11,272.915 35.996,272.75 35.996,272.57 C35.996,272.51 35.999,272.453 36.005,272.399 C36.011,272.345 36.014,272.294 36.014,272.246 L36.014,272.246 L35.672,272.156 L34.844,274.172 L35.096,274.352 C35.156,274.28 35.228,274.244 35.312,274.244 C35.36,274.244 35.498,274.289 35.726,274.379 C35.954,274.469 36.233,274.565 36.563,274.667 C36.893,274.769 37.259,274.859 37.661,274.937 C38.063,275.015 38.468,275.054 38.876,275.054 Z M53.87,275 L53.87,274.676 C53.534,274.676 53.366,274.586 53.366,274.406 L53.366,274.406 L53.366,267.674 C53.366,267.494 53.534,267.404 53.87,267.404 L53.87,267.404 L53.87,267.08 L51.134,267.08 L51.134,267.404 C51.326,267.404 51.458,267.425 51.53,267.467 C51.602,267.509 51.638,267.578 51.638,267.674 L51.638,267.674 L51.638,274.406 C51.638,274.502 51.602,274.571 51.53,274.613 C51.458,274.655 51.326,274.676 51.134,274.676 L51.134,274.676 L51.134,275 L53.87,275 Z M61.196,275 L61.196,274.676 C60.98,274.676 60.872,274.586 60.872,274.406 L60.872,274.406 L60.872,268.412 L63.212,268.412 C63.308,268.412 63.398,268.436 63.482,268.484 C63.566,268.532 63.608,268.61 63.608,268.718 L63.608,268.718 L63.932,268.718 L63.932,266.648 L63.608,266.648 C63.608,266.816 63.566,266.93 63.482,266.99 C63.398,267.05 63.308,267.08 63.212,267.08 L63.212,267.08 L56.804,267.08 C56.708,267.08 56.618,267.05 56.534,266.99 C56.45,266.93 56.408,266.816 56.408,266.648 L56.408,266.648 L56.084,266.648 L56.084,268.718 L56.408,268.718 C56.408,268.61 56.45,268.532 56.534,268.484 C56.618,268.436 56.708,268.412 56.804,268.412 L56.804,268.412 L59.144,268.412 L59.144,274.406 C59.144,274.502 59.114,274.571 59.054,274.613 C58.994,274.655 58.934,274.676 58.874,274.676 L58.874,274.676 L58.874,275 L61.196,275 Z M73.85,275 L73.85,274.676 C73.778,274.676 73.715,274.655 73.661,274.613 C73.607,274.571 73.58,274.502 73.58,274.406 L73.58,274.406 L73.58,271.688 L78.404,271.688 L78.404,274.406 C78.404,274.502 78.377,274.571 78.323,274.613 C78.269,274.655 78.206,274.676 78.134,274.676 L78.134,274.676 L78.134,275 L80.402,275 L80.402,274.676 C80.33,274.676 80.267,274.655 80.213,274.613 C80.159,274.571 80.132,274.502 80.132,274.406 L80.132,274.406 L80.132,267.674 C80.132,267.578 80.159,267.509 80.213,267.467 C80.267,267.425 80.33,267.404 80.402,267.404 L80.402,267.404 L80.402,267.08 L78.134,267.08 L78.134,267.404 C78.206,267.404 78.269,267.425 78.323,267.467 C78.377,267.509 78.404,267.578 78.404,267.674 L78.404,267.674 L78.404,270.212 L73.58,270.212 L73.58,267.674 C73.58,267.578 73.607,267.509 73.661,267.467 C73.715,267.425 73.778,267.404 73.85,267.404 L73.85,267.404 L73.85,267.08 L71.582,267.08 L71.582,267.404 C71.654,267.404 71.717,267.425 71.771,267.467 C71.825,267.509 71.852,267.578 71.852,267.674 L71.852,267.674 L71.852,274.406 C71.852,274.502 71.825,274.571 71.771,274.613 C71.717,274.655 71.654,274.676 71.582,274.676 L71.582,274.676 L71.582,275 L73.85,275 Z M87.494,275.054 C88.154,275.054 88.775,274.979 89.357,274.829 C89.939,274.679 90.446,274.436 90.878,274.1 C91.31,273.764 91.652,273.341 91.904,272.831 C92.156,272.321 92.282,271.724 92.282,271.04 C92.282,270.356 92.156,269.759 91.904,269.249 C91.652,268.739 91.31,268.316 90.878,267.98 C90.446,267.644 89.939,267.392 89.357,267.224 C88.775,267.056 88.154,266.972 87.494,266.972 C86.834,266.972 86.213,267.056 85.631,267.224 C85.049,267.392 84.542,267.644 84.11,267.98 C83.678,268.316 83.336,268.739 83.084,269.249 C82.832,269.759 82.706,270.356 82.706,271.04 C82.706,271.724 82.832,272.321 83.084,272.831 C83.336,273.341 83.678,273.764 84.11,274.1 C84.542,274.436 85.049,274.679 85.631,274.829 C86.213,274.979 86.834,275.054 87.494,275.054 Z M87.494,273.776 C87.11,273.776 86.735,273.713 86.369,273.587 C86.003,273.461 85.676,273.281 85.388,273.047 C85.1,272.813 84.869,272.528 84.695,272.192 C84.521,271.856 84.434,271.472 84.434,271.04 C84.434,270.608 84.521,270.224 84.695,269.888 C84.869,269.552 85.1,269.267 85.388,269.033 C85.676,268.799 86.003,268.619 86.369,268.493 C86.735,268.367 87.11,268.304 87.494,268.304 C87.878,268.304 88.253,268.367 88.619,268.493 C88.985,268.619 89.312,268.799 89.6,269.033 C89.888,269.267 90.119,269.552 90.293,269.888 C90.467,270.224 90.554,270.608 90.554,271.04 C90.554,271.472 90.467,271.856 90.293,272.192 C90.119,272.528 89.888,272.813 89.6,273.047 C89.312,273.281 88.985,273.461 88.619,273.587 C88.253,273.713 87.878,273.776 87.494,273.776 Z M98.69,275 L98.69,274.676 C98.474,274.676 98.366,274.586 98.366,274.406 L98.366,274.406 L98.366,268.412 L100.706,268.412 C100.802,268.412 100.892,268.436 100.976,268.484 C101.06,268.532 101.102,268.61 101.102,268.718 L101.102,268.718 L101.426,268.718 L101.426,266.648 L101.102,266.648 C101.102,266.816 101.06,266.93 100.976,266.99 C100.892,267.05 100.802,267.08 100.706,267.08 L100.706,267.08 L94.298,267.08 C94.202,267.08 94.112,267.05 94.028,266.99 C93.944,266.93 93.902,266.816 93.902,266.648 L93.902,266.648 L93.578,266.648 L93.578,268.718 L93.902,268.718 C93.902,268.61 93.944,268.532 94.028,268.484 C94.112,268.436 94.202,268.412 94.298,268.412 L94.298,268.412 L96.638,268.412 L96.638,274.406 C96.638,274.502 96.608,274.571 96.548,274.613 C96.488,274.655 96.428,274.676 96.368,274.676 L96.368,274.676 L96.368,275 L98.69,275 Z M111.848,275 L111.848,274.676 C111.512,274.676 111.344,274.586 111.344,274.406 L111.344,274.406 L111.344,267.674 C111.344,267.494 111.512,267.404 111.848,267.404 L111.848,267.404 L111.848,267.08 L109.112,267.08 L109.112,267.404 C109.304,267.404 109.436,267.425 109.508,267.467 C109.58,267.509 109.616,267.578 109.616,267.674 L109.616,267.674 L109.616,274.406 C109.616,274.502 109.58,274.571 109.508,274.613 C109.436,274.655 109.304,274.676 109.112,274.676 L109.112,274.676 L109.112,275 L111.848,275 Z M117.158,275 L117.158,274.676 C116.906,274.676 116.78,274.586 116.78,274.406 L116.78,274.406 L116.78,269.168 L121.244,273.92 C121.388,274.076 121.517,274.214 121.631,274.334 C121.745,274.454 121.802,274.538 121.802,274.586 C121.802,274.646 121.76,274.676 121.676,274.676 L121.676,274.676 L121.676,275 L124.016,275 L124.016,274.676 C123.8,274.676 123.692,274.586 123.692,274.406 L123.692,274.406 L123.692,267.674 C123.692,267.494 123.8,267.404 124.016,267.404 L124.016,267.404 L124.016,267.08 L121.82,267.08 L121.82,267.404 C122.06,267.404 122.18,267.494 122.18,267.674 L122.18,267.674 L122.18,272.552 L117.86,267.98 C117.596,267.716 117.464,267.554 117.464,267.494 C117.464,267.446 117.506,267.416 117.59,267.404 L117.59,267.404 L117.59,267.08 L114.944,267.08 L114.944,267.404 C115.16,267.404 115.268,267.494 115.268,267.674 L115.268,267.674 L115.268,274.406 C115.268,274.586 115.16,274.676 114.944,274.676 L114.944,274.676 L114.944,275 L117.158,275 Z M134.834,275 L134.834,274.676 C134.762,274.676 134.699,274.655 134.645,274.613 C134.591,274.571 134.564,274.502 134.564,274.406 L134.564,274.406 L134.564,271.688 L139.388,271.688 L139.388,274.406 C139.388,274.502 139.361,274.571 139.307,274.613 C139.253,274.655 139.19,274.676 139.118,274.676 L139.118,274.676 L139.118,275 L141.386,275 L141.386,274.676 C141.314,274.676 141.251,274.655 141.197,274.613 C141.143,274.571 141.116,274.502 141.116,274.406 L141.116,274.406 L141.116,267.674 C141.116,267.578 141.143,267.509 141.197,267.467 C141.251,267.425 141.314,267.404 141.386,267.404 L141.386,267.404 L141.386,267.08 L139.118,267.08 L139.118,267.404 C139.19,267.404 139.253,267.425 139.307,267.467 C139.361,267.509 139.388,267.578 139.388,267.674 L139.388,267.674 L139.388,270.212 L134.564,270.212 L134.564,267.674 C134.564,267.578 134.591,267.509 134.645,267.467 C134.699,267.425 134.762,267.404 134.834,267.404 L134.834,267.404 L134.834,267.08 L132.566,267.08 L132.566,267.404 C132.638,267.404 132.701,267.425 132.755,267.467 C132.809,267.509 132.836,267.578 132.836,267.674 L132.836,267.674 L132.836,274.406 C132.836,274.502 132.809,274.571 132.755,274.613 C132.701,274.655 132.638,274.676 132.566,274.676 L132.566,274.676 L132.566,275 L134.834,275 Z M151.898,275.198 L151.898,273.308 L151.574,273.308 C151.574,273.416 151.526,273.503 151.43,273.569 C151.334,273.635 151.214,273.668 151.07,273.668 L151.07,273.668 L146.462,273.668 L146.462,271.544 L149.09,271.544 C149.33,271.544 149.516,271.559 149.648,271.589 C149.78,271.619 149.828,271.7 149.792,271.832 L149.792,271.832 L150.152,271.832 L150.152,269.924 L149.828,269.924 C149.828,270.056 149.78,270.137 149.684,270.167 C149.588,270.197 149.438,270.212 149.234,270.212 L149.234,270.212 L146.462,270.212 L146.462,268.412 L150.854,268.412 C151.226,268.412 151.412,268.526 151.412,268.754 L151.412,268.754 L151.736,268.754 L151.736,266.756 L151.412,266.756 C151.412,266.972 151.226,267.08 150.854,267.08 L150.854,267.08 L144.464,267.08 L144.464,267.404 C144.524,267.404 144.584,267.425 144.644,267.467 C144.704,267.509 144.734,267.578 144.734,267.674 L144.734,267.674 L144.734,274.406 C144.734,274.502 144.704,274.571 144.644,274.613 C144.584,274.655 144.524,274.676 144.464,274.676 L144.464,274.676 L144.464,275 L151.07,275 C151.214,275 151.334,275.006 151.43,275.018 C151.526,275.03 151.574,275.09 151.574,275.198 L151.574,275.198 L151.898,275.198 Z M156.794,275 L156.794,274.676 C156.722,274.676 156.647,274.655 156.569,274.613 C156.491,274.571 156.452,274.502 156.452,274.406 L156.452,274.406 L156.452,271.832 L158.954,271.832 L160.376,273.956 C160.556,274.208 160.646,274.394 160.646,274.514 C160.646,274.622 160.568,274.676 160.412,274.676 L160.412,274.676 L160.412,275 L163.166,275 L163.166,274.676 C163.034,274.64 162.911,274.589 162.797,274.523 C162.683,274.457 162.578,274.358 162.482,274.226 L162.482,274.226 L160.718,271.652 C160.97,271.592 161.216,271.505 161.456,271.391 C161.696,271.277 161.915,271.127 162.113,270.941 C162.311,270.755 162.47,270.536 162.59,270.284 C162.71,270.032 162.77,269.744 162.77,269.42 C162.77,268.568 162.47,267.965 161.87,267.611 C161.27,267.257 160.436,267.08 159.368,267.08 L159.368,267.08 L154.4,267.08 L154.4,267.404 C154.616,267.404 154.724,267.494 154.724,267.674 L154.724,267.674 L154.724,274.406 C154.724,274.586 154.616,274.676 154.4,274.676 L154.4,274.676 L154.4,275 L156.794,275 Z M159.332,270.5 L156.488,270.5 L156.488,268.412 L159.332,268.412 C159.944,268.412 160.391,268.499 160.673,268.673 C160.955,268.847 161.096,269.084 161.096,269.384 C161.096,270.128 160.508,270.5 159.332,270.5 L159.332,270.5 Z M172.904,275.198 L172.904,273.308 L172.58,273.308 C172.58,273.416 172.532,273.503 172.436,273.569 C172.34,273.635 172.22,273.668 172.076,273.668 L172.076,273.668 L167.468,273.668 L167.468,271.544 L170.096,271.544 C170.336,271.544 170.522,271.559 170.654,271.589 C170.786,271.619 170.834,271.7 170.798,271.832 L170.798,271.832 L171.158,271.832 L171.158,269.924 L170.834,269.924 C170.834,270.056 170.786,270.137 170.69,270.167 C170.594,270.197 170.444,270.212 170.24,270.212 L170.24,270.212 L167.468,270.212 L167.468,268.412 L171.86,268.412 C172.232,268.412 172.418,268.526 172.418,268.754 L172.418,268.754 L172.742,268.754 L172.742,266.756 L172.418,266.756 C172.418,266.972 172.232,267.08 171.86,267.08 L171.86,267.08 L165.47,267.08 L165.47,267.404 C165.53,267.404 165.59,267.425 165.65,267.467 C165.71,267.509 165.74,267.578 165.74,267.674 L165.74,267.674 L165.74,274.406 C165.74,274.502 165.71,274.571 165.65,274.613 C165.59,274.655 165.53,274.676 165.47,274.676 L165.47,274.676 L165.47,275 L172.076,275 C172.22,275 172.34,275.006 172.436,275.018 C172.532,275.03 172.58,275.09 172.58,275.198 L172.58,275.198 L172.904,275.198 Z M179.186,271.724 L179.186,271.508 C179.078,271.508 179,271.463 178.952,271.373 C178.904,271.283 178.88,271.172 178.88,271.04 C178.88,270.764 178.988,270.506 179.204,270.266 C179.42,270.026 179.654,269.768 179.906,269.492 C180.17,269.216 180.407,268.913 180.617,268.583 C180.827,268.253 180.932,267.866 180.932,267.422 C180.932,267.062 180.857,266.741 180.707,266.459 C180.557,266.177 180.356,265.943 180.104,265.757 C179.852,265.571 179.567,265.427 179.249,265.325 C178.931,265.223 178.61,265.172 178.286,265.172 C177.782,265.172 177.374,265.232 177.062,265.352 C176.75,265.472 176.492,265.601 176.288,265.739 C176.084,265.877 175.919,266.006 175.793,266.126 C175.667,266.246 175.544,266.306 175.424,266.306 C175.412,266.306 175.346,266.294 175.226,266.27 L175.226,266.27 L175.064,266.432 L176.45,267.944 L176.612,267.818 C176.576,267.71 176.558,267.602 176.558,267.494 C176.558,267.422 176.591,267.329 176.657,267.215 C176.723,267.101 176.819,266.996 176.945,266.9 C177.071,266.804 177.227,266.72 177.413,266.648 C177.599,266.576 177.806,266.54 178.034,266.54 C178.346,266.54 178.607,266.633 178.817,266.819 C179.027,267.005 179.132,267.26 179.132,267.584 C179.132,267.86 179.054,268.103 178.898,268.313 C178.742,268.523 178.562,268.748 178.358,268.988 C178.166,269.216 177.983,269.48 177.809,269.78 C177.635,270.08 177.524,270.482 177.476,270.986 C177.452,271.19 177.413,271.328 177.359,271.4 C177.305,271.472 177.242,271.508 177.17,271.508 L177.17,271.508 L177.17,271.724 L179.186,271.724 Z M178.16,275.054 C178.472,275.054 178.742,274.949 178.97,274.739 C179.198,274.529 179.312,274.268 179.312,273.956 C179.312,273.644 179.198,273.374 178.97,273.146 C178.742,272.918 178.472,272.804 178.16,272.804 C177.848,272.804 177.578,272.918 177.35,273.146 C177.122,273.374 177.008,273.644 177.008,273.956 C177.008,274.268 177.122,274.529 177.35,274.739 C177.578,274.949 177.848,275.054 178.16,275.054 Z M194.486,275.054 C195.146,275.054 195.818,274.964 196.502,274.784 C197.186,274.604 197.81,274.316 198.374,273.92 C198.938,273.524 199.4,273.023 199.76,272.417 C200.12,271.811 200.3,271.094 200.3,270.266 C200.3,269.438 200.12,268.721 199.76,268.115 C199.4,267.509 198.938,267.008 198.374,266.612 C197.81,266.216 197.186,265.919 196.502,265.721 C195.818,265.523 195.146,265.424 194.486,265.424 C193.826,265.424 193.154,265.523 192.47,265.721 C191.786,265.919 191.162,266.216 190.598,266.612 C190.034,267.008 189.572,267.509 189.212,268.115 C188.852,268.721 188.672,269.438 188.672,270.266 C188.672,271.094 188.852,271.811 189.212,272.417 C189.572,273.023 190.034,273.524 190.598,273.92 C191.162,274.316 191.786,274.604 192.47,274.784 C193.154,274.964 193.826,275.054 194.486,275.054 Z M194.486,273.452 C194.03,273.452 193.574,273.38 193.118,273.236 C192.662,273.092 192.251,272.885 191.885,272.615 C191.519,272.345 191.222,272.012 190.994,271.616 C190.766,271.22 190.652,270.77 190.652,270.266 C190.652,269.762 190.766,269.312 190.994,268.916 C191.222,268.52 191.519,268.187 191.885,267.917 C192.251,267.647 192.662,267.44 193.118,267.296 C193.574,267.152 194.03,267.08 194.486,267.08 C194.942,267.08 195.398,267.152 195.854,267.296 C196.31,267.44 196.721,267.647 197.087,267.917 C197.453,268.187 197.75,268.52 197.978,268.916 C198.206,269.312 198.32,269.762 198.32,270.266 C198.32,270.77 198.206,271.22 197.978,271.616 C197.75,272.012 197.453,272.345 197.087,272.615 C196.721,272.885 196.31,273.092 195.854,273.236 C195.398,273.38 194.942,273.452 194.486,273.452 Z M205.286,275 L205.286,274.676 C205.214,274.676 205.139,274.655 205.061,274.613 C204.983,274.571 204.944,274.502 204.944,274.406 L204.944,274.406 L204.944,271.832 L207.446,271.832 L208.868,273.956 C209.048,274.208 209.138,274.394 209.138,274.514 C209.138,274.622 209.06,274.676 208.904,274.676 L208.904,274.676 L208.904,275 L211.658,275 L211.658,274.676 C211.526,274.64 211.403,274.589 211.289,274.523 C211.175,274.457 211.07,274.358 210.974,274.226 L210.974,274.226 L209.21,271.652 C209.462,271.592 209.708,271.505 209.948,271.391 C210.188,271.277 210.407,271.127 210.605,270.941 C210.803,270.755 210.962,270.536 211.082,270.284 C211.202,270.032 211.262,269.744 211.262,269.42 C211.262,268.568 210.962,267.965 210.362,267.611 C209.762,267.257 208.928,267.08 207.86,267.08 L207.86,267.08 L202.892,267.08 L202.892,267.404 C203.108,267.404 203.216,267.494 203.216,267.674 L203.216,267.674 L203.216,274.406 C203.216,274.586 203.108,274.676 202.892,274.676 L202.892,274.676 L202.892,275 L205.286,275 Z M207.824,270.5 L204.98,270.5 L204.98,268.412 L207.824,268.412 C208.436,268.412 208.883,268.499 209.165,268.673 C209.447,268.847 209.588,269.084 209.588,269.384 C209.588,270.128 209,270.5 207.824,270.5 L207.824,270.5 Z M222.332,275 L222.332,274.676 C221.996,274.676 221.828,274.586 221.828,274.406 L221.828,274.406 L221.828,267.674 C221.828,267.494 221.996,267.404 222.332,267.404 L222.332,267.404 L222.332,267.08 L219.596,267.08 L219.596,267.404 C219.788,267.404 219.92,267.425 219.992,267.467 C220.064,267.509 220.1,267.578 220.1,267.674 L220.1,267.674 L220.1,274.406 C220.1,274.502 220.064,274.571 219.992,274.613 C219.92,274.655 219.788,274.676 219.596,274.676 L219.596,274.676 L219.596,275 L222.332,275 Z M228.83,275.054 C229.238,275.054 229.673,275.024 230.135,274.964 C230.597,274.904 231.02,274.778 231.404,274.586 C231.788,274.394 232.109,274.13 232.367,273.794 C232.625,273.458 232.754,273.026 232.754,272.498 C232.754,271.97 232.607,271.556 232.313,271.256 C232.019,270.956 231.65,270.728 231.206,270.572 C230.762,270.416 230.282,270.305 229.766,270.239 C229.25,270.173 228.77,270.107 228.326,270.041 C227.882,269.975 227.513,269.885 227.219,269.771 C226.925,269.657 226.778,269.468 226.778,269.204 C226.778,269.036 226.826,268.895 226.922,268.781 C227.018,268.667 227.15,268.574 227.318,268.502 C227.486,268.43 227.678,268.379 227.894,268.349 C228.11,268.319 228.338,268.304 228.578,268.304 C229.202,268.304 229.766,268.376 230.27,268.52 C230.774,268.664 231.146,268.838 231.386,269.042 C231.482,269.114 231.536,269.186 231.548,269.258 L231.548,269.258 L231.584,269.474 L231.908,269.582 L232.808,267.89 L232.61,267.692 C232.538,267.728 232.478,267.761 232.43,267.791 C232.382,267.821 232.31,267.836 232.214,267.836 C232.13,267.836 232.001,267.791 231.827,267.701 C231.653,267.611 231.428,267.512 231.152,267.404 C230.876,267.296 230.537,267.197 230.135,267.107 C229.733,267.017 229.25,266.972 228.686,266.972 C227.534,266.972 226.64,267.2 226.004,267.656 C225.368,268.112 225.05,268.724 225.05,269.492 C225.05,270.008 225.197,270.407 225.491,270.689 C225.785,270.971 226.154,271.187 226.598,271.337 C227.042,271.487 227.522,271.595 228.038,271.661 C228.554,271.727 229.034,271.793 229.478,271.859 C229.922,271.925 230.291,272.018 230.585,272.138 C230.879,272.258 231.026,272.45 231.026,272.714 C231.026,272.942 230.942,273.125 230.774,273.263 C230.606,273.401 230.402,273.509 230.162,273.587 C229.922,273.665 229.679,273.716 229.433,273.74 C229.187,273.764 228.98,273.776 228.812,273.776 C228.632,273.776 228.383,273.746 228.065,273.686 C227.747,273.626 227.429,273.545 227.111,273.443 C226.793,273.341 226.52,273.215 226.292,273.065 C226.064,272.915 225.95,272.75 225.95,272.57 C225.95,272.51 225.953,272.453 225.959,272.399 C225.965,272.345 225.968,272.294 225.968,272.246 L225.968,272.246 L225.626,272.156 L224.798,274.172 L225.05,274.352 C225.11,274.28 225.182,274.244 225.266,274.244 C225.314,274.244 225.452,274.289 225.68,274.379 C225.908,274.469 226.187,274.565 226.517,274.667 C226.847,274.769 227.213,274.859 227.615,274.937 C228.017,275.015 228.422,275.054 228.83,275.054 Z M87.368,293 L87.368,292.676 C87.032,292.676 86.864,292.586 86.864,292.406 L86.864,292.406 L86.864,285.674 C86.864,285.494 87.032,285.404 87.368,285.404 L87.368,285.404 L87.368,285.08 L84.632,285.08 L84.632,285.404 C84.824,285.404 84.956,285.425 85.028,285.467 C85.1,285.509 85.136,285.578 85.136,285.674 L85.136,285.674 L85.136,292.406 C85.136,292.502 85.1,292.571 85.028,292.613 C84.956,292.655 84.824,292.676 84.632,292.676 L84.632,292.676 L84.632,293 L87.368,293 Z M94.694,293 L94.694,292.676 C94.478,292.676 94.37,292.586 94.37,292.406 L94.37,292.406 L94.37,286.412 L96.71,286.412 C96.806,286.412 96.896,286.436 96.98,286.484 C97.064,286.532 97.106,286.61 97.106,286.718 L97.106,286.718 L97.43,286.718 L97.43,284.648 L97.106,284.648 C97.106,284.816 97.064,284.93 96.98,284.99 C96.896,285.05 96.806,285.08 96.71,285.08 L96.71,285.08 L90.302,285.08 C90.206,285.08 90.116,285.05 90.032,284.99 C89.948,284.93 89.906,284.816 89.906,284.648 L89.906,284.648 L89.582,284.648 L89.582,286.718 L89.906,286.718 C89.906,286.61 89.948,286.532 90.032,286.484 C90.116,286.436 90.206,286.412 90.302,286.412 L90.302,286.412 L92.642,286.412 L92.642,292.406 C92.642,292.502 92.612,292.571 92.552,292.613 C92.492,292.655 92.432,292.676 92.372,292.676 L92.372,292.676 L92.372,293 L94.694,293 Z M106.43,293.054 C106.898,293.054 107.333,293.021 107.735,292.955 C108.137,292.889 108.485,292.766 108.779,292.586 C109.073,292.406 109.304,292.166 109.472,291.866 C109.64,291.566 109.724,291.2 109.724,290.768 L109.724,290.768 L109.724,285.854 C109.724,285.722 109.778,285.614 109.886,285.53 C109.994,285.446 110.108,285.404 110.228,285.404 L110.228,285.404 L110.228,285.08 L107.546,285.08 L107.546,285.404 C107.63,285.404 107.726,285.446 107.834,285.53 C107.942,285.614 107.996,285.722 107.996,285.854 L107.996,285.854 L107.996,290.552 C107.996,291.044 107.867,291.371 107.609,291.533 C107.351,291.695 106.964,291.776 106.448,291.776 C106.004,291.776 105.611,291.713 105.269,291.587 C104.927,291.461 104.714,291.332 104.63,291.2 C104.57,291.128 104.537,291.041 104.531,290.939 C104.525,290.837 104.522,290.744 104.522,290.66 L104.522,290.66 L104.27,290.57 L103.424,292.64 L103.586,292.784 C103.646,292.724 103.7,292.673 103.748,292.631 C103.796,292.589 103.868,292.568 103.964,292.568 C104.072,292.568 104.21,292.595 104.378,292.649 C104.546,292.703 104.738,292.763 104.954,292.829 C105.17,292.895 105.404,292.949 105.656,292.991 C105.908,293.033 106.166,293.054 106.43,293.054 Z M117.554,293.054 C118.274,293.054 118.901,292.979 119.435,292.829 C119.969,292.679 120.407,292.472 120.749,292.208 C121.091,291.944 121.346,291.641 121.514,291.299 C121.682,290.957 121.766,290.6 121.766,290.228 L121.766,290.228 L121.766,285.674 C121.766,285.494 121.898,285.404 122.162,285.404 L122.162,285.404 L122.162,285.08 L119.66,285.08 L119.66,285.404 C119.96,285.404 120.11,285.494 120.11,285.674 L120.11,285.674 L120.11,289.796 C120.11,290.372 119.9,290.834 119.48,291.182 C119.06,291.53 118.418,291.704 117.554,291.704 C116.69,291.704 116.048,291.53 115.628,291.182 C115.208,290.834 114.998,290.372 114.998,289.796 L114.998,289.796 L114.998,285.674 C114.998,285.494 115.13,285.404 115.394,285.404 L115.394,285.404 L115.394,285.08 L112.82,285.08 L112.82,285.404 C113.024,285.404 113.162,285.425 113.234,285.467 C113.306,285.509 113.342,285.578 113.342,285.674 L113.342,285.674 L113.342,290.228 C113.342,290.6 113.426,290.957 113.594,291.299 C113.762,291.641 114.017,291.944 114.359,292.208 C114.701,292.472 115.139,292.679 115.673,292.829 C116.207,292.979 116.834,293.054 117.554,293.054 Z M128.354,293.054 C128.762,293.054 129.197,293.024 129.659,292.964 C130.121,292.904 130.544,292.778 130.928,292.586 C131.312,292.394 131.633,292.13 131.891,291.794 C132.149,291.458 132.278,291.026 132.278,290.498 C132.278,289.97 132.131,289.556 131.837,289.256 C131.543,288.956 131.174,288.728 130.73,288.572 C130.286,288.416 129.806,288.305 129.29,288.239 C128.774,288.173 128.294,288.107 127.85,288.041 C127.406,287.975 127.037,287.885 126.743,287.771 C126.449,287.657 126.302,287.468 126.302,287.204 C126.302,287.036 126.35,286.895 126.446,286.781 C126.542,286.667 126.674,286.574 126.842,286.502 C127.01,286.43 127.202,286.379 127.418,286.349 C127.634,286.319 127.862,286.304 128.102,286.304 C128.726,286.304 129.29,286.376 129.794,286.52 C130.298,286.664 130.67,286.838 130.91,287.042 C131.006,287.114 131.06,287.186 131.072,287.258 C131.084,287.33 131.096,287.402 131.108,287.474 L131.108,287.474 L131.432,287.582 L132.332,285.89 L132.134,285.692 C132.062,285.728 132.002,285.761 131.954,285.791 C131.906,285.821 131.834,285.836 131.738,285.836 C131.654,285.836 131.525,285.791 131.351,285.701 C131.177,285.611 130.952,285.512 130.676,285.404 C130.4,285.296 130.061,285.197 129.659,285.107 C129.257,285.017 128.774,284.972 128.21,284.972 C127.058,284.972 126.164,285.2 125.528,285.656 C124.892,286.112 124.574,286.724 124.574,287.492 C124.574,288.008 124.721,288.407 125.015,288.689 C125.309,288.971 125.678,289.187 126.122,289.337 C126.566,289.487 127.046,289.595 127.562,289.661 C128.078,289.727 128.558,289.793 129.002,289.859 C129.446,289.925 129.815,290.018 130.109,290.138 C130.403,290.258 130.55,290.45 130.55,290.714 C130.55,290.942 130.466,291.125 130.298,291.263 C130.13,291.401 129.926,291.509 129.686,291.587 C129.446,291.665 129.203,291.716 128.957,291.74 C128.711,291.764 128.504,291.776 128.336,291.776 C128.156,291.776 127.907,291.746 127.589,291.686 C127.271,291.626 126.953,291.545 126.635,291.443 C126.317,291.341 126.044,291.215 125.816,291.065 C125.588,290.915 125.474,290.75 125.474,290.57 C125.474,290.51 125.477,290.453 125.483,290.399 C125.489,290.345 125.492,290.294 125.492,290.246 L125.492,290.246 L125.15,290.156 L124.322,292.172 L124.574,292.352 C124.634,292.28 124.706,292.244 124.79,292.244 C124.838,292.244 124.976,292.289 125.204,292.379 C125.432,292.469 125.711,292.565 126.041,292.667 C126.371,292.769 126.737,292.859 127.139,292.937 C127.541,293.015 127.946,293.054 128.354,293.054 Z M139.19,293 L139.19,292.676 C138.974,292.676 138.866,292.586 138.866,292.406 L138.866,292.406 L138.866,286.412 L141.206,286.412 C141.302,286.412 141.392,286.436 141.476,286.484 C141.56,286.532 141.602,286.61 141.602,286.718 L141.602,286.718 L141.926,286.718 L141.926,284.648 L141.602,284.648 C141.602,284.816 141.56,284.93 141.476,284.99 C141.392,285.05 141.302,285.08 141.206,285.08 L141.206,285.08 L134.798,285.08 C134.702,285.08 134.612,285.05 134.528,284.99 C134.444,284.93 134.402,284.816 134.402,284.648 L134.402,284.648 L134.078,284.648 L134.078,286.718 L134.402,286.718 C134.402,286.61 134.444,286.532 134.528,286.484 C134.612,286.436 134.702,286.412 134.798,286.412 L134.798,286.412 L137.138,286.412 L137.138,292.406 C137.138,292.502 137.108,292.571 137.048,292.613 C136.988,292.655 136.928,292.676 136.868,292.676 L136.868,292.676 L136.868,293 L139.19,293 Z M151.7,293 L151.7,292.676 C151.496,292.676 151.394,292.586 151.394,292.406 L151.394,292.406 L151.394,287.348 L151.412,287.348 L154.31,293 L154.454,293 L157.514,287.348 L157.55,287.348 L157.55,292.406 C157.586,292.586 157.478,292.676 157.226,292.676 L157.226,292.676 L157.226,293 L159.314,293 L159.314,292.676 C159.254,292.676 159.197,292.655 159.143,292.613 C159.089,292.571 159.062,292.502 159.062,292.406 L159.062,292.406 L159.062,285.638 C159.062,285.542 159.089,285.479 159.143,285.449 C159.197,285.419 159.254,285.404 159.314,285.404 L159.314,285.404 L159.314,285.08 L156.776,285.08 L156.776,285.404 C156.872,285.404 156.92,285.458 156.92,285.566 C156.92,285.602 156.896,285.665 156.848,285.755 C156.8,285.845 156.734,285.962 156.65,286.106 L156.65,286.106 L154.436,290.138 L152.24,286.088 C152.156,285.944 152.093,285.833 152.051,285.755 C152.009,285.677 151.988,285.614 151.988,285.566 C151.988,285.458 152.048,285.404 152.168,285.404 L152.168,285.404 L152.168,285.08 L149.666,285.08 L149.666,285.404 C149.75,285.404 149.807,285.422 149.837,285.458 C149.867,285.494 149.882,285.596 149.882,285.764 L149.882,285.764 L149.882,292.352 C149.882,292.484 149.861,292.568 149.819,292.604 C149.777,292.64 149.726,292.664 149.666,292.676 L149.666,292.676 L149.666,293 L151.7,293 Z M169.898,293.198 L169.898,291.308 L169.574,291.308 C169.574,291.416 169.526,291.503 169.43,291.569 C169.334,291.635 169.214,291.668 169.07,291.668 L169.07,291.668 L164.462,291.668 L164.462,289.544 L167.09,289.544 C167.33,289.544 167.516,289.559 167.648,289.589 C167.78,289.619 167.828,289.7 167.792,289.832 L167.792,289.832 L168.152,289.832 L168.152,287.924 L167.828,287.924 C167.828,288.056 167.78,288.137 167.684,288.167 C167.588,288.197 167.438,288.212 167.234,288.212 L167.234,288.212 L164.462,288.212 L164.462,286.412 L168.854,286.412 C169.226,286.412 169.412,286.526 169.412,286.754 L169.412,286.754 L169.736,286.754 L169.736,284.756 L169.412,284.756 C169.412,284.972 169.226,285.08 168.854,285.08 L168.854,285.08 L162.464,285.08 L162.464,285.404 C162.524,285.404 162.584,285.425 162.644,285.467 C162.704,285.509 162.734,285.578 162.734,285.674 L162.734,285.674 L162.734,292.406 C162.734,292.502 162.704,292.571 162.644,292.613 C162.584,292.655 162.524,292.676 162.464,292.676 L162.464,292.676 L162.464,293 L169.07,293 C169.214,293 169.334,293.006 169.43,293.018 C169.526,293.03 169.574,293.09 169.574,293.198 L169.574,293.198 L169.898,293.198 Z M176.18,289.724 L176.18,289.508 C176.072,289.508 175.994,289.463 175.946,289.373 C175.898,289.283 175.874,289.172 175.874,289.04 C175.874,288.764 175.982,288.506 176.198,288.266 C176.414,288.026 176.648,287.768 176.9,287.492 C177.164,287.216 177.401,286.913 177.611,286.583 C177.821,286.253 177.926,285.866 177.926,285.422 C177.926,285.062 177.851,284.741 177.701,284.459 C177.551,284.177 177.35,283.943 177.098,283.757 C176.846,283.571 176.561,283.427 176.243,283.325 C175.925,283.223 175.604,283.172 175.28,283.172 C174.776,283.172 174.368,283.232 174.056,283.352 C173.744,283.472 173.486,283.601 173.282,283.739 C173.078,283.877 172.913,284.006 172.787,284.126 C172.661,284.246 172.538,284.306 172.418,284.306 C172.406,284.306 172.34,284.294 172.22,284.27 L172.22,284.27 L172.058,284.432 L173.444,285.944 L173.606,285.818 C173.57,285.71 173.552,285.602 173.552,285.494 C173.552,285.422 173.585,285.329 173.651,285.215 C173.717,285.101 173.813,284.996 173.939,284.9 C174.065,284.804 174.221,284.72 174.407,284.648 C174.593,284.576 174.8,284.54 175.028,284.54 C175.34,284.54 175.601,284.633 175.811,284.819 C176.021,285.005 176.126,285.26 176.126,285.584 C176.126,285.86 176.048,286.103 175.892,286.313 C175.736,286.523 175.556,286.748 175.352,286.988 C175.16,287.216 174.977,287.48 174.803,287.78 C174.629,288.08 174.518,288.482 174.47,288.986 C174.446,289.19 174.407,289.328 174.353,289.4 C174.299,289.472 174.236,289.508 174.164,289.508 L174.164,289.508 L174.164,289.724 L176.18,289.724 Z M175.154,293.054 C175.466,293.054 175.736,292.949 175.964,292.739 C176.192,292.529 176.306,292.268 176.306,291.956 C176.306,291.644 176.192,291.374 175.964,291.146 C175.736,290.918 175.466,290.804 175.154,290.804 C174.842,290.804 174.572,290.918 174.344,291.146 C174.116,291.374 174.002,291.644 174.002,291.956 C174.002,292.268 174.116,292.529 174.344,292.739 C174.572,292.949 174.842,293.054 175.154,293.054 Z M58.19,311 L58.19,310.676 C57.962,310.676 57.848,310.61 57.848,310.478 C57.848,310.37 57.908,310.19 58.028,309.938 L58.028,309.938 L58.676,308.66 L63.068,308.66 L63.752,309.992 C63.848,310.184 63.896,310.34 63.896,310.46 C63.896,310.532 63.86,310.586 63.788,310.622 C63.716,310.658 63.656,310.676 63.608,310.676 L63.608,310.676 L63.608,311 L66.776,311 L66.776,310.676 C66.644,310.616 66.527,310.556 66.425,310.496 C66.323,310.436 66.242,310.34 66.182,310.208 L66.182,310.208 L62.438,302.882 C62.354,302.726 62.291,302.6 62.249,302.504 C62.207,302.408 62.186,302.312 62.186,302.216 C62.186,302.084 62.228,301.997 62.312,301.955 C62.396,301.913 62.48,301.88 62.564,301.856 L62.564,301.856 L62.564,301.532 L59.522,301.532 L59.522,301.856 C59.618,301.88 59.708,301.916 59.792,301.964 C59.876,302.012 59.918,302.096 59.918,302.216 C59.918,302.312 59.885,302.426 59.819,302.558 C59.753,302.69 59.678,302.834 59.594,302.99 L59.594,302.99 L56.264,309.992 C56.18,310.16 56.093,310.31 56.003,310.442 C55.913,310.574 55.79,310.652 55.634,310.676 L55.634,310.676 L55.634,311 L58.19,311 Z M62.42,307.328 L59.216,307.328 L60.908,303.98 L62.42,307.328 Z M73.544,311 C74.252,311 74.852,310.886 75.344,310.658 C75.836,310.43 76.238,310.133 76.55,309.767 C76.862,309.401 77.09,308.981 77.234,308.507 C77.378,308.033 77.45,307.544 77.45,307.04 C77.45,306.536 77.375,306.047 77.225,305.573 C77.075,305.099 76.841,304.679 76.523,304.313 C76.205,303.947 75.794,303.65 75.29,303.422 C74.786,303.194 74.18,303.08 73.472,303.08 L73.472,303.08 L68.468,303.08 L68.468,303.404 C68.744,303.404 68.882,303.494 68.882,303.674 L68.882,303.674 L68.882,310.406 C68.882,310.586 68.744,310.676 68.468,310.676 L68.468,310.676 L68.468,311 L73.544,311 Z M72.95,309.668 L70.61,309.668 L70.61,304.412 L72.95,304.412 C73.322,304.412 73.676,304.433 74.012,304.475 C74.348,304.517 74.642,304.625 74.894,304.799 C75.146,304.973 75.347,305.231 75.497,305.573 C75.647,305.915 75.722,306.386 75.722,306.986 C75.722,307.586 75.647,308.063 75.497,308.417 C75.347,308.771 75.146,309.041 74.894,309.227 C74.642,309.413 74.348,309.533 74.012,309.587 C73.676,309.641 73.322,309.668 72.95,309.668 L72.95,309.668 Z M84.542,311 C85.25,311 85.85,310.886 86.342,310.658 C86.834,310.43 87.236,310.133 87.548,309.767 C87.86,309.401 88.088,308.981 88.232,308.507 C88.376,308.033 88.448,307.544 88.448,307.04 C88.448,306.536 88.373,306.047 88.223,305.573 C88.073,305.099 87.839,304.679 87.521,304.313 C87.203,303.947 86.792,303.65 86.288,303.422 C85.784,303.194 85.178,303.08 84.47,303.08 L84.47,303.08 L79.466,303.08 L79.466,303.404 C79.742,303.404 79.88,303.494 79.88,303.674 L79.88,303.674 L79.88,310.406 C79.88,310.586 79.742,310.676 79.466,310.676 L79.466,310.676 L79.466,311 L84.542,311 Z M83.948,309.668 L81.608,309.668 L81.608,304.412 L83.948,304.412 C84.32,304.412 84.674,304.433 85.01,304.475 C85.346,304.517 85.64,304.625 85.892,304.799 C86.144,304.973 86.345,305.231 86.495,305.573 C86.645,305.915 86.72,306.386 86.72,306.986 C86.72,307.586 86.645,308.063 86.495,308.417 C86.345,308.771 86.144,309.041 85.892,309.227 C85.64,309.413 85.346,309.533 85.01,309.587 C84.674,309.641 84.32,309.668 83.948,309.668 L83.948,309.668 Z M100.436,311 L100.436,310.676 C100.22,310.676 100.112,310.586 100.112,310.406 L100.112,310.406 L100.112,304.412 L102.452,304.412 C102.548,304.412 102.638,304.436 102.722,304.484 C102.806,304.532 102.848,304.61 102.848,304.718 L102.848,304.718 L103.172,304.718 L103.172,302.648 L102.848,302.648 C102.848,302.816 102.806,302.93 102.722,302.99 C102.638,303.05 102.548,303.08 102.452,303.08 L102.452,303.08 L96.044,303.08 C95.948,303.08 95.858,303.05 95.774,302.99 C95.69,302.93 95.648,302.816 95.648,302.648 L95.648,302.648 L95.324,302.648 L95.324,304.718 L95.648,304.718 C95.648,304.61 95.69,304.532 95.774,304.484 C95.858,304.436 95.948,304.412 96.044,304.412 L96.044,304.412 L98.384,304.412 L98.384,310.406 C98.384,310.502 98.354,310.571 98.294,310.613 C98.234,310.655 98.174,310.676 98.114,310.676 L98.114,310.676 L98.114,311 L100.436,311 Z M107.6,311 L107.6,310.676 C107.528,310.676 107.465,310.655 107.411,310.613 C107.357,310.571 107.33,310.502 107.33,310.406 L107.33,310.406 L107.33,307.688 L112.154,307.688 L112.154,310.406 C112.154,310.502 112.127,310.571 112.073,310.613 C112.019,310.655 111.956,310.676 111.884,310.676 L111.884,310.676 L111.884,311 L114.152,311 L114.152,310.676 C114.08,310.676 114.017,310.655 113.963,310.613 C113.909,310.571 113.882,310.502 113.882,310.406 L113.882,310.406 L113.882,303.674 C113.882,303.578 113.909,303.509 113.963,303.467 C114.017,303.425 114.08,303.404 114.152,303.404 L114.152,303.404 L114.152,303.08 L111.884,303.08 L111.884,303.404 C111.956,303.404 112.019,303.425 112.073,303.467 C112.127,303.509 112.154,303.578 112.154,303.674 L112.154,303.674 L112.154,306.212 L107.33,306.212 L107.33,303.674 C107.33,303.578 107.357,303.509 107.411,303.467 C107.465,303.425 107.528,303.404 107.6,303.404 L107.6,303.404 L107.6,303.08 L105.332,303.08 L105.332,303.404 C105.404,303.404 105.467,303.425 105.521,303.467 C105.575,303.509 105.602,303.578 105.602,303.674 L105.602,303.674 L105.602,310.406 C105.602,310.502 105.575,310.571 105.521,310.613 C105.467,310.655 105.404,310.676 105.332,310.676 L105.332,310.676 L105.332,311 L107.6,311 Z M120.11,311 L120.11,310.676 C119.774,310.676 119.606,310.586 119.606,310.406 L119.606,310.406 L119.606,303.674 C119.606,303.494 119.774,303.404 120.11,303.404 L120.11,303.404 L120.11,303.08 L117.374,303.08 L117.374,303.404 C117.566,303.404 117.698,303.425 117.77,303.467 C117.842,303.509 117.878,303.578 117.878,303.674 L117.878,303.674 L117.878,310.406 C117.878,310.502 117.842,310.571 117.77,310.613 C117.698,310.655 117.566,310.676 117.374,310.676 L117.374,310.676 L117.374,311 L120.11,311 Z M126.608,311.054 C127.016,311.054 127.451,311.024 127.913,310.964 C128.375,310.904 128.798,310.778 129.182,310.586 C129.566,310.394 129.887,310.13 130.145,309.794 C130.403,309.458 130.532,309.026 130.532,308.498 C130.532,307.97 130.385,307.556 130.091,307.256 C129.797,306.956 129.428,306.728 128.984,306.572 C128.54,306.416 128.06,306.305 127.544,306.239 C127.028,306.173 126.548,306.107 126.104,306.041 C125.66,305.975 125.291,305.885 124.997,305.771 C124.703,305.657 124.556,305.468 124.556,305.204 C124.556,305.036 124.604,304.895 124.7,304.781 C124.796,304.667 124.928,304.574 125.096,304.502 C125.264,304.43 125.456,304.379 125.672,304.349 C125.888,304.319 126.116,304.304 126.356,304.304 C126.98,304.304 127.544,304.376 128.048,304.52 C128.552,304.664 128.924,304.838 129.164,305.042 C129.26,305.114 129.314,305.186 129.326,305.258 L129.326,305.258 L129.362,305.474 L129.686,305.582 L130.586,303.89 L130.388,303.692 C130.316,303.728 130.256,303.761 130.208,303.791 C130.16,303.821 130.088,303.836 129.992,303.836 C129.908,303.836 129.779,303.791 129.605,303.701 C129.431,303.611 129.206,303.512 128.93,303.404 C128.654,303.296 128.315,303.197 127.913,303.107 C127.511,303.017 127.028,302.972 126.464,302.972 C125.312,302.972 124.418,303.2 123.782,303.656 C123.146,304.112 122.828,304.724 122.828,305.492 C122.828,306.008 122.975,306.407 123.269,306.689 C123.563,306.971 123.932,307.187 124.376,307.337 C124.82,307.487 125.3,307.595 125.816,307.661 C126.332,307.727 126.812,307.793 127.256,307.859 C127.7,307.925 128.069,308.018 128.363,308.138 C128.657,308.258 128.804,308.45 128.804,308.714 C128.804,308.942 128.72,309.125 128.552,309.263 C128.384,309.401 128.18,309.509 127.94,309.587 C127.7,309.665 127.457,309.716 127.211,309.74 C126.965,309.764 126.758,309.776 126.59,309.776 C126.41,309.776 126.161,309.746 125.843,309.686 C125.525,309.626 125.207,309.545 124.889,309.443 C124.571,309.341 124.298,309.215 124.07,309.065 C123.842,308.915 123.728,308.75 123.728,308.57 C123.728,308.51 123.731,308.453 123.737,308.399 C123.743,308.345 123.746,308.294 123.746,308.246 L123.746,308.246 L123.404,308.156 L122.576,310.172 L122.828,310.352 C122.888,310.28 122.96,310.244 123.044,310.244 C123.092,310.244 123.23,310.289 123.458,310.379 C123.686,310.469 123.965,310.565 124.295,310.667 C124.625,310.769 124.991,310.859 125.393,310.937 C125.795,311.015 126.2,311.054 126.608,311.054 Z M142.934,311 L142.934,310.676 C142.718,310.676 142.61,310.586 142.61,310.406 L142.61,310.406 L142.61,304.412 L144.95,304.412 C145.046,304.412 145.136,304.436 145.22,304.484 C145.304,304.532 145.346,304.61 145.346,304.718 L145.346,304.718 L145.67,304.718 L145.67,302.648 L145.346,302.648 C145.346,302.816 145.304,302.93 145.22,302.99 C145.136,303.05 145.046,303.08 144.95,303.08 L144.95,303.08 L138.542,303.08 C138.446,303.08 138.356,303.05 138.272,302.99 C138.188,302.93 138.146,302.816 138.146,302.648 L138.146,302.648 L137.822,302.648 L137.822,304.718 L138.146,304.718 C138.146,304.61 138.188,304.532 138.272,304.484 C138.356,304.436 138.446,304.412 138.542,304.412 L138.542,304.412 L140.882,304.412 L140.882,310.406 C140.882,310.502 140.852,310.571 140.792,310.613 C140.732,310.655 140.672,310.676 140.612,310.676 L140.612,310.676 L140.612,311 L142.934,311 Z M151.736,311.054 C152.396,311.054 153.017,310.979 153.599,310.829 C154.181,310.679 154.688,310.436 155.12,310.1 C155.552,309.764 155.894,309.341 156.146,308.831 C156.398,308.321 156.524,307.724 156.524,307.04 C156.524,306.356 156.398,305.759 156.146,305.249 C155.894,304.739 155.552,304.316 155.12,303.98 C154.688,303.644 154.181,303.392 153.599,303.224 C153.017,303.056 152.396,302.972 151.736,302.972 C151.076,302.972 150.455,303.056 149.873,303.224 C149.291,303.392 148.784,303.644 148.352,303.98 C147.92,304.316 147.578,304.739 147.326,305.249 C147.074,305.759 146.948,306.356 146.948,307.04 C146.948,307.724 147.074,308.321 147.326,308.831 C147.578,309.341 147.92,309.764 148.352,310.1 C148.784,310.436 149.291,310.679 149.873,310.829 C150.455,310.979 151.076,311.054 151.736,311.054 Z M151.736,309.776 C151.352,309.776 150.977,309.713 150.611,309.587 C150.245,309.461 149.918,309.281 149.63,309.047 C149.342,308.813 149.111,308.528 148.937,308.192 C148.763,307.856 148.676,307.472 148.676,307.04 C148.676,306.608 148.763,306.224 148.937,305.888 C149.111,305.552 149.342,305.267 149.63,305.033 C149.918,304.799 150.245,304.619 150.611,304.493 C150.977,304.367 151.352,304.304 151.736,304.304 C152.12,304.304 152.495,304.367 152.861,304.493 C153.227,304.619 153.554,304.799 153.842,305.033 C154.13,305.267 154.361,305.552 154.535,305.888 C154.709,306.224 154.796,306.608 154.796,307.04 C154.796,307.472 154.709,307.856 154.535,308.192 C154.361,308.528 154.13,308.813 153.842,309.047 C153.554,309.281 153.227,309.461 152.861,309.587 C152.495,309.713 152.12,309.776 151.736,309.776 Z M168.944,311 L168.944,310.676 C168.716,310.676 168.602,310.586 168.602,310.406 L168.602,310.406 L168.602,307.706 L171.356,304.142 C171.488,303.974 171.641,303.809 171.815,303.647 C171.989,303.485 172.148,303.404 172.292,303.404 L172.292,303.404 L172.292,303.08 L169.538,303.08 L169.538,303.404 C169.598,303.404 169.658,303.416 169.718,303.44 C169.778,303.464 169.808,303.524 169.808,303.62 C169.808,303.692 169.781,303.767 169.727,303.845 C169.673,303.923 169.592,304.04 169.484,304.196 L169.484,304.196 L167.882,306.428 L166.064,304.052 C166.004,303.968 165.95,303.896 165.902,303.836 C165.854,303.776 165.83,303.71 165.83,303.638 C165.83,303.566 165.866,303.509 165.938,303.467 C166.01,303.425 166.076,303.404 166.136,303.404 L166.136,303.404 L166.136,303.08 L163.166,303.08 L163.166,303.404 C163.274,303.404 163.388,303.428 163.508,303.476 C163.628,303.524 163.73,303.602 163.814,303.71 L163.814,303.71 L166.874,307.634 L166.874,310.406 C166.874,310.586 166.766,310.676 166.55,310.676 L166.55,310.676 L166.55,311 L168.944,311 Z M178.232,311.054 C178.892,311.054 179.513,310.979 180.095,310.829 C180.677,310.679 181.184,310.436 181.616,310.1 C182.048,309.764 182.39,309.341 182.642,308.831 C182.894,308.321 183.02,307.724 183.02,307.04 C183.02,306.356 182.894,305.759 182.642,305.249 C182.39,304.739 182.048,304.316 181.616,303.98 C181.184,303.644 180.677,303.392 180.095,303.224 C179.513,303.056 178.892,302.972 178.232,302.972 C177.572,302.972 176.951,303.056 176.369,303.224 C175.787,303.392 175.28,303.644 174.848,303.98 C174.416,304.316 174.074,304.739 173.822,305.249 C173.57,305.759 173.444,306.356 173.444,307.04 C173.444,307.724 173.57,308.321 173.822,308.831 C174.074,309.341 174.416,309.764 174.848,310.1 C175.28,310.436 175.787,310.679 176.369,310.829 C176.951,310.979 177.572,311.054 178.232,311.054 Z M178.232,309.776 C177.848,309.776 177.473,309.713 177.107,309.587 C176.741,309.461 176.414,309.281 176.126,309.047 C175.838,308.813 175.607,308.528 175.433,308.192 C175.259,307.856 175.172,307.472 175.172,307.04 C175.172,306.608 175.259,306.224 175.433,305.888 C175.607,305.552 175.838,305.267 176.126,305.033 C176.414,304.799 176.741,304.619 177.107,304.493 C177.473,304.367 177.848,304.304 178.232,304.304 C178.616,304.304 178.991,304.367 179.357,304.493 C179.723,304.619 180.05,304.799 180.338,305.033 C180.626,305.267 180.857,305.552 181.031,305.888 C181.205,306.224 181.292,306.608 181.292,307.04 C181.292,307.472 181.205,307.856 181.031,308.192 C180.857,308.528 180.626,308.813 180.338,309.047 C180.05,309.281 179.723,309.461 179.357,309.587 C178.991,309.713 178.616,309.776 178.232,309.776 Z M189.806,311.054 C190.526,311.054 191.153,310.979 191.687,310.829 C192.221,310.679 192.659,310.472 193.001,310.208 C193.343,309.944 193.598,309.641 193.766,309.299 C193.934,308.957 194.018,308.6 194.018,308.228 L194.018,308.228 L194.018,303.674 C194.018,303.494 194.15,303.404 194.414,303.404 L194.414,303.404 L194.414,303.08 L191.912,303.08 L191.912,303.404 C192.212,303.404 192.362,303.494 192.362,303.674 L192.362,303.674 L192.362,307.796 C192.362,308.372 192.152,308.834 191.732,309.182 C191.312,309.53 190.67,309.704 189.806,309.704 C188.942,309.704 188.3,309.53 187.88,309.182 C187.46,308.834 187.25,308.372 187.25,307.796 L187.25,307.796 L187.25,303.674 C187.25,303.494 187.382,303.404 187.646,303.404 L187.646,303.404 L187.646,303.08 L185.072,303.08 L185.072,303.404 C185.276,303.404 185.414,303.425 185.486,303.467 C185.558,303.509 185.594,303.578 185.594,303.674 L185.594,303.674 L185.594,308.228 C185.594,308.6 185.678,308.957 185.846,309.299 C186.014,309.641 186.269,309.944 186.611,310.208 C186.953,310.472 187.391,310.679 187.925,310.829 C188.459,310.979 189.086,311.054 189.806,311.054 Z M199.544,311 L199.544,310.676 C199.472,310.676 199.397,310.655 199.319,310.613 C199.241,310.571 199.202,310.502 199.202,310.406 L199.202,310.406 L199.202,307.832 L201.704,307.832 L203.126,309.956 C203.306,310.208 203.396,310.394 203.396,310.514 C203.396,310.622 203.318,310.676 203.162,310.676 L203.162,310.676 L203.162,311 L205.916,311 L205.916,310.676 C205.784,310.64 205.661,310.589 205.547,310.523 C205.433,310.457 205.328,310.358 205.232,310.226 L205.232,310.226 L203.468,307.652 C203.72,307.592 203.966,307.505 204.206,307.391 C204.446,307.277 204.665,307.127 204.863,306.941 C205.061,306.755 205.22,306.536 205.34,306.284 C205.46,306.032 205.52,305.744 205.52,305.42 C205.52,304.568 205.22,303.965 204.62,303.611 C204.02,303.257 203.186,303.08 202.118,303.08 L202.118,303.08 L197.15,303.08 L197.15,303.404 C197.366,303.404 197.474,303.494 197.474,303.674 L197.474,303.674 L197.474,310.406 C197.474,310.586 197.366,310.676 197.15,310.676 L197.15,310.676 L197.15,311 L199.544,311 Z M202.082,306.5 L199.238,306.5 L199.238,304.412 L202.082,304.412 C202.694,304.412 203.141,304.499 203.423,304.673 C203.705,304.847 203.846,305.084 203.846,305.384 C203.846,306.128 203.258,306.5 202.082,306.5 L202.082,306.5 Z M74.354,329.054 C74.762,329.054 75.197,329.024 75.659,328.964 C76.121,328.904 76.544,328.778 76.928,328.586 C77.312,328.394 77.633,328.13 77.891,327.794 C78.149,327.458 78.278,327.026 78.278,326.498 C78.278,325.97 78.131,325.556 77.837,325.256 C77.543,324.956 77.174,324.728 76.73,324.572 C76.286,324.416 75.806,324.305 75.29,324.239 C74.774,324.173 74.294,324.107 73.85,324.041 C73.406,323.975 73.037,323.885 72.743,323.771 C72.449,323.657 72.302,323.468 72.302,323.204 C72.302,323.036 72.35,322.895 72.446,322.781 C72.542,322.667 72.674,322.574 72.842,322.502 C73.01,322.43 73.202,322.379 73.418,322.349 C73.634,322.319 73.862,322.304 74.102,322.304 C74.726,322.304 75.29,322.376 75.794,322.52 C76.298,322.664 76.67,322.838 76.91,323.042 C77.006,323.114 77.06,323.186 77.072,323.258 L77.072,323.258 L77.108,323.474 L77.432,323.582 L78.332,321.89 L78.134,321.692 C78.062,321.728 78.002,321.761 77.954,321.791 C77.906,321.821 77.834,321.836 77.738,321.836 C77.654,321.836 77.525,321.791 77.351,321.701 C77.177,321.611 76.952,321.512 76.676,321.404 C76.4,321.296 76.061,321.197 75.659,321.107 C75.257,321.017 74.774,320.972 74.21,320.972 C73.058,320.972 72.164,321.2 71.528,321.656 C70.892,322.112 70.574,322.724 70.574,323.492 C70.574,324.008 70.721,324.407 71.015,324.689 C71.309,324.971 71.678,325.187 72.122,325.337 C72.566,325.487 73.046,325.595 73.562,325.661 C74.078,325.727 74.558,325.793 75.002,325.859 C75.446,325.925 75.815,326.018 76.109,326.138 C76.403,326.258 76.55,326.45 76.55,326.714 C76.55,326.942 76.466,327.125 76.298,327.263 C76.13,327.401 75.926,327.509 75.686,327.587 C75.446,327.665 75.203,327.716 74.957,327.74 C74.711,327.764 74.504,327.776 74.336,327.776 C74.156,327.776 73.907,327.746 73.589,327.686 C73.271,327.626 72.953,327.545 72.635,327.443 C72.317,327.341 72.044,327.215 71.816,327.065 C71.588,326.915 71.474,326.75 71.474,326.57 C71.474,326.51 71.477,326.453 71.483,326.399 C71.489,326.345 71.492,326.294 71.492,326.246 L71.492,326.246 L71.15,326.156 L70.322,328.172 L70.574,328.352 C70.634,328.28 70.706,328.244 70.79,328.244 C70.838,328.244 70.976,328.289 71.204,328.379 C71.432,328.469 71.711,328.565 72.041,328.667 C72.371,328.769 72.737,328.859 73.139,328.937 C73.541,329.015 73.946,329.054 74.354,329.054 Z M85.712,329 L85.712,328.676 C85.484,328.676 85.37,328.586 85.37,328.406 L85.37,328.406 L85.37,325.706 L88.124,322.142 C88.256,321.974 88.409,321.809 88.583,321.647 C88.757,321.485 88.916,321.404 89.06,321.404 L89.06,321.404 L89.06,321.08 L86.306,321.08 L86.306,321.404 C86.366,321.404 86.426,321.416 86.486,321.44 C86.546,321.464 86.576,321.524 86.576,321.62 C86.576,321.692 86.549,321.767 86.495,321.845 C86.441,321.923 86.36,322.04 86.252,322.196 L86.252,322.196 L84.65,324.428 L82.832,322.052 C82.772,321.968 82.718,321.896 82.67,321.836 C82.622,321.776 82.598,321.71 82.598,321.638 C82.598,321.566 82.634,321.509 82.706,321.467 C82.778,321.425 82.844,321.404 82.904,321.404 L82.904,321.404 L82.904,321.08 L79.934,321.08 L79.934,321.404 C80.042,321.404 80.156,321.428 80.276,321.476 C80.396,321.524 80.498,321.602 80.582,321.71 L80.582,321.71 L83.642,325.634 L83.642,328.406 C83.642,328.586 83.534,328.676 83.318,328.676 L83.318,328.676 L83.318,329 L85.712,329 Z M93.218,329 L93.218,328.676 C93.014,328.676 92.912,328.586 92.912,328.406 L92.912,328.406 L92.912,323.348 L92.93,323.348 L95.828,329 L95.972,329 L99.032,323.348 L99.068,323.348 L99.068,328.406 C99.104,328.586 98.996,328.676 98.744,328.676 L98.744,328.676 L98.744,329 L100.832,329 L100.832,328.676 C100.772,328.676 100.715,328.655 100.661,328.613 C100.607,328.571 100.58,328.502 100.58,328.406 L100.58,328.406 L100.58,321.638 C100.58,321.542 100.607,321.479 100.661,321.449 C100.715,321.419 100.772,321.404 100.832,321.404 L100.832,321.404 L100.832,321.08 L98.294,321.08 L98.294,321.404 C98.39,321.404 98.438,321.458 98.438,321.566 C98.438,321.602 98.414,321.665 98.366,321.755 C98.318,321.845 98.252,321.962 98.168,322.106 L98.168,322.106 L95.954,326.138 L93.758,322.088 C93.674,321.944 93.611,321.833 93.569,321.755 C93.527,321.677 93.506,321.614 93.506,321.566 C93.506,321.458 93.566,321.404 93.686,321.404 L93.686,321.404 L93.686,321.08 L91.184,321.08 L91.184,321.404 C91.268,321.404 91.325,321.422 91.355,321.458 C91.385,321.494 91.4,321.596 91.4,321.764 L91.4,321.764 L91.4,328.352 C91.4,328.484 91.379,328.568 91.337,328.604 C91.295,328.64 91.244,328.664 91.184,328.676 L91.184,328.676 L91.184,329 L93.218,329 Z M106.268,329 L106.268,328.676 C106.016,328.676 105.89,328.586 105.89,328.406 L105.89,328.406 L105.89,325.706 L108.95,325.706 C109.922,325.706 110.651,325.541 111.137,325.211 C111.623,324.881 111.866,324.284 111.866,323.42 C111.866,322.556 111.623,321.95 111.137,321.602 C110.651,321.254 109.922,321.08 108.95,321.08 L108.95,321.08 L103.712,321.08 L103.712,321.404 C104.012,321.404 104.162,321.494 104.162,321.674 L104.162,321.674 L104.162,328.406 C104.162,328.586 104.012,328.676 103.712,328.676 L103.712,328.676 L103.712,329 L106.268,329 Z M108.914,324.374 L105.89,324.374 L105.89,322.412 L108.914,322.412 C109.262,322.412 109.553,322.487 109.787,322.637 C110.021,322.787 110.138,323.048 110.138,323.42 C110.138,323.804 110.021,324.059 109.787,324.185 C109.553,324.311 109.262,324.374 108.914,324.374 L108.914,324.374 Z M118.202,329 L118.202,328.676 C117.986,328.676 117.878,328.586 117.878,328.406 L117.878,328.406 L117.878,322.412 L120.218,322.412 C120.314,322.412 120.404,322.436 120.488,322.484 C120.572,322.532 120.614,322.61 120.614,322.718 L120.614,322.718 L120.938,322.718 L120.938,320.648 L120.614,320.648 C120.614,320.816 120.572,320.93 120.488,320.99 C120.404,321.05 120.314,321.08 120.218,321.08 L120.218,321.08 L113.81,321.08 C113.714,321.08 113.624,321.05 113.54,320.99 C113.456,320.93 113.414,320.816 113.414,320.648 L113.414,320.648 L113.09,320.648 L113.09,322.718 L113.414,322.718 C113.414,322.61 113.456,322.532 113.54,322.484 C113.624,322.436 113.714,322.412 113.81,322.412 L113.81,322.412 L116.15,322.412 L116.15,328.406 C116.15,328.502 116.12,328.571 116.06,328.613 C116,328.655 115.94,328.676 115.88,328.676 L115.88,328.676 L115.88,329 L118.202,329 Z M127.004,329.054 C127.664,329.054 128.285,328.979 128.867,328.829 C129.449,328.679 129.956,328.436 130.388,328.1 C130.82,327.764 131.162,327.341 131.414,326.831 C131.666,326.321 131.792,325.724 131.792,325.04 C131.792,324.356 131.666,323.759 131.414,323.249 C131.162,322.739 130.82,322.316 130.388,321.98 C129.956,321.644 129.449,321.392 128.867,321.224 C128.285,321.056 127.664,320.972 127.004,320.972 C126.344,320.972 125.723,321.056 125.141,321.224 C124.559,321.392 124.052,321.644 123.62,321.98 C123.188,322.316 122.846,322.739 122.594,323.249 C122.342,323.759 122.216,324.356 122.216,325.04 C122.216,325.724 122.342,326.321 122.594,326.831 C122.846,327.341 123.188,327.764 123.62,328.1 C124.052,328.436 124.559,328.679 125.141,328.829 C125.723,328.979 126.344,329.054 127.004,329.054 Z M127.004,327.776 C126.62,327.776 126.245,327.713 125.879,327.587 C125.513,327.461 125.186,327.281 124.898,327.047 C124.61,326.813 124.379,326.528 124.205,326.192 C124.031,325.856 123.944,325.472 123.944,325.04 C123.944,324.608 124.031,324.224 124.205,323.888 C124.379,323.552 124.61,323.267 124.898,323.033 C125.186,322.799 125.513,322.619 125.879,322.493 C126.245,322.367 126.62,322.304 127.004,322.304 C127.388,322.304 127.763,322.367 128.129,322.493 C128.495,322.619 128.822,322.799 129.11,323.033 C129.398,323.267 129.629,323.552 129.803,323.888 C129.977,324.224 130.064,324.608 130.064,325.04 C130.064,325.472 129.977,325.856 129.803,326.192 C129.629,326.528 129.398,326.813 129.11,327.047 C128.822,327.281 128.495,327.461 128.129,327.587 C127.763,327.713 127.388,327.776 127.004,327.776 Z M136.22,329 L136.22,328.676 C136.016,328.676 135.914,328.586 135.914,328.406 L135.914,328.406 L135.914,323.348 L135.932,323.348 L138.83,329 L138.974,329 L142.034,323.348 L142.07,323.348 L142.07,328.406 C142.106,328.586 141.998,328.676 141.746,328.676 L141.746,328.676 L141.746,329 L143.834,329 L143.834,328.676 C143.774,328.676 143.717,328.655 143.663,328.613 C143.609,328.571 143.582,328.502 143.582,328.406 L143.582,328.406 L143.582,321.638 C143.582,321.542 143.609,321.479 143.663,321.449 C143.717,321.419 143.774,321.404 143.834,321.404 L143.834,321.404 L143.834,321.08 L141.296,321.08 L141.296,321.404 C141.392,321.404 141.44,321.458 141.44,321.566 C141.44,321.602 141.416,321.665 141.368,321.755 C141.32,321.845 141.254,321.962 141.17,322.106 L141.17,322.106 L138.956,326.138 L136.76,322.088 C136.676,321.944 136.613,321.833 136.571,321.755 C136.529,321.677 136.508,321.614 136.508,321.566 C136.508,321.458 136.568,321.404 136.688,321.404 L136.688,321.404 L136.688,321.08 L134.186,321.08 L134.186,321.404 C134.27,321.404 134.327,321.422 134.357,321.458 C134.387,321.494 134.402,321.596 134.402,321.764 L134.402,321.764 L134.402,328.352 C134.402,328.484 134.381,328.568 134.339,328.604 C134.297,328.64 134.246,328.664 134.186,328.676 L134.186,328.676 L134.186,329 L136.22,329 Z M154.76,329 L154.76,328.676 C154.508,328.676 154.382,328.586 154.382,328.406 L154.382,328.406 L154.382,325.706 L157.442,325.706 C158.414,325.706 159.143,325.541 159.629,325.211 C160.115,324.881 160.358,324.284 160.358,323.42 C160.358,322.556 160.115,321.95 159.629,321.602 C159.143,321.254 158.414,321.08 157.442,321.08 L157.442,321.08 L152.204,321.08 L152.204,321.404 C152.504,321.404 152.654,321.494 152.654,321.674 L152.654,321.674 L152.654,328.406 C152.654,328.586 152.504,328.676 152.204,328.676 L152.204,328.676 L152.204,329 L154.76,329 Z M157.406,324.374 L154.382,324.374 L154.382,322.412 L157.406,322.412 C157.754,322.412 158.045,322.487 158.279,322.637 C158.513,322.787 158.63,323.048 158.63,323.42 C158.63,323.804 158.513,324.059 158.279,324.185 C158.045,324.311 157.754,324.374 157.406,324.374 L157.406,324.374 Z M165.362,329 L165.362,328.676 C165.026,328.676 164.858,328.586 164.858,328.406 L164.858,328.406 L164.858,321.674 C164.858,321.494 165.026,321.404 165.362,321.404 L165.362,321.404 L165.362,321.08 L162.626,321.08 L162.626,321.404 C162.818,321.404 162.95,321.425 163.022,321.467 C163.094,321.509 163.13,321.578 163.13,321.674 L163.13,321.674 L163.13,328.406 C163.13,328.502 163.094,328.571 163.022,328.613 C162.95,328.655 162.818,328.676 162.626,328.676 L162.626,328.676 L162.626,329 L165.362,329 Z M176.252,329.18 L176.252,327.29 L175.928,327.29 C175.928,327.41 175.88,327.503 175.784,327.569 C175.688,327.635 175.568,327.668 175.424,327.668 L175.424,327.668 L170.564,327.668 L170.564,321.674 C170.564,321.494 170.702,321.404 170.978,321.404 L170.978,321.404 L170.978,321.08 L168.368,321.08 L168.368,321.404 C168.68,321.404 168.836,321.494 168.836,321.674 L168.836,321.674 L168.836,328.406 C168.836,328.586 168.68,328.676 168.368,328.676 L168.368,328.676 L168.368,329 L175.424,329 C175.568,329 175.688,329.006 175.784,329.018 C175.88,329.03 175.928,329.084 175.928,329.18 L175.928,329.18 L176.252,329.18 Z M185.918,329.198 L185.918,327.308 L185.594,327.308 C185.594,327.416 185.546,327.503 185.45,327.569 C185.354,327.635 185.234,327.668 185.09,327.668 L185.09,327.668 L180.482,327.668 L180.482,325.544 L183.11,325.544 C183.35,325.544 183.536,325.559 183.668,325.589 C183.8,325.619 183.848,325.7 183.812,325.832 L183.812,325.832 L184.172,325.832 L184.172,323.924 L183.848,323.924 C183.848,324.056 183.8,324.137 183.704,324.167 C183.608,324.197 183.458,324.212 183.254,324.212 L183.254,324.212 L180.482,324.212 L180.482,322.412 L184.874,322.412 C185.246,322.412 185.432,322.526 185.432,322.754 L185.432,322.754 L185.756,322.754 L185.756,320.756 L185.432,320.756 C185.432,320.972 185.246,321.08 184.874,321.08 L184.874,321.08 L178.484,321.08 L178.484,321.404 C178.544,321.404 178.604,321.425 178.664,321.467 C178.724,321.509 178.754,321.578 178.754,321.674 L178.754,321.674 L178.754,328.406 C178.754,328.502 178.724,328.571 178.664,328.613 C178.604,328.655 178.544,328.676 178.484,328.676 L178.484,328.676 L178.484,329 L185.09,329 C185.234,329 185.354,329.006 185.45,329.018 C185.546,329.03 185.594,329.09 185.594,329.198 L185.594,329.198 L185.918,329.198 Z M189.752,329.054 C190.1,329.054 190.4,328.937 190.652,328.703 C190.904,328.469 191.03,328.178 191.03,327.83 C191.03,327.482 190.904,327.182 190.652,326.93 C190.4,326.678 190.1,326.552 189.752,326.552 C189.404,326.552 189.104,326.678 188.852,326.93 C188.6,327.182 188.474,327.482 188.474,327.83 C188.474,328.178 188.6,328.469 188.852,328.703 C189.104,328.937 189.404,329.054 189.752,329.054 Z" id="Isithotinhere?Orisitjustme?Addthistoyoursymptompile." fill="#000000" fill-rule="nonzero"></path>
    </g>
</svg>