<?xml version="1.0" encoding="UTF-8"?>
<svg width="262px" height="360px" viewBox="0 0 262 360" version="1.1" xmlns="http://www.w3.org/2000/svg" xmlns:xlink="http://www.w3.org/1999/xlink">
    <title>Aches &amp; Pains 4</title>
    <g id="Aches-&amp;-Pains-4" stroke="none" stroke-width="1" fill="none" fill-rule="evenodd">
        <g id="Group" transform="translate(9.000000, 9.000000)" fill="#FFFFFF" stroke="#000000" stroke-width="3">
            <g id="Rectangle">
                <rect x="1.5" y="1.5" width="239" height="337" rx="8"></rect>
            </g>
        </g>
        <path d="M216.124,30 L216.124,29.712 C215.964,29.712 215.82,29.668 215.692,29.58 C215.564,29.492 215.5,29.312 215.5,29.04 L215.5,29.04 L215.5,18.048 C215.5,17.888 215.564,17.768 215.692,17.688 C215.82,17.608 215.98,17.552 216.172,17.52 L216.172,17.52 L216.172,17.232 L212.284,17.232 L212.284,17.52 C212.46,17.552 212.6,17.6 212.704,17.664 C212.808,17.728 212.86,17.872 212.86,18.096 C212.86,18.336 212.768,18.54 212.584,18.708 C212.4,18.876 212.172,18.96 211.9,18.96 C211.772,18.96 211.636,18.932 211.492,18.876 C211.348,18.82 211.276,18.72 211.276,18.576 L211.276,18.576 L210.988,18.576 L210.988,21.6 L211.276,21.6 C211.324,21.472 211.408,21.372 211.528,21.3 C211.648,21.228 211.78,21.172 211.924,21.132 C212.068,21.092 212.216,21.064 212.368,21.048 C212.52,21.032 212.652,21.024 212.764,21.024 L212.764,21.024 L212.764,29.04 C212.764,29.312 212.704,29.492 212.584,29.58 C212.464,29.668 212.324,29.712 212.164,29.712 L212.164,29.712 L212.164,30 L216.124,30 Z" id="1" fill="#000000" fill-rule="nonzero"></path>
        <g id="Face" transform="translate(225.000000, 15.000000)">
            <circle id="Oval" stroke="#000000" fill="#FFFFFF" cx="9.5" cy="9.5" r="9"></circle>
            <circle id="Oval" fill="#000000" cx="5" cy="8" r="1"></circle>
            <circle id="Oval-Copy" fill="#000000" cx="12" cy="8" r="1"></circle>
            <line x1="12.0789474" y1="13.9090909" x2="14.5" y2="11.5" id="Line-4" stroke="#000000" stroke-linecap="round"></line>
            <path d="M3,5.89285714 C3.41025641,5.96428571 3.76923077,6 4.07692308,6 C4.38461538,6 5.35897436,5.33333333 7,4" id="Line-2" stroke="#000000"></path>
            <path d="M6,15 C6.96078431,14.3333333 8.07598039,14 9.34558824,14 C10.6151961,14 11.8333333,14.3333333 13,15" id="Line" stroke="#000000" stroke-linecap="round" stroke-linejoin="round"></path>
            <path d="M11.3197366,4.68245322 C11.585843,4.80663622 11.7912611,4.92388646 11.9359908,5.03420394 C12.548667,5.50120471 13.1333088,5.70898724 13.3155349,5.80010028 C13.5440857,5.91437569 13.8101922,6.00751295 14.1138542,6.07951204" id="Line-3" stroke="#000000" stroke-linecap="square" transform="translate(12.716795, 5.380983) rotate(-3.000000) translate(-12.716795, -5.380983) "></path>
            <path d="M2.999,9.347 L3.01687864,9.39698204 C3.09438102,9.62639002 3.1880913,9.89570266 3.30282211,10.2112791 C3.48139895,10.7024692 3.54804655,11.0169045 3.47980817,11.2204078 C3.41244402,11.421304 3.17143148,11.4011566 3.01518318,11.4416373 L3.01518318,11.4416373 L2.86575433,11.4813457 C2.78836954,11.5029149 2.70310591,11.5126925 2.63007237,11.4810832 C2.58941161,11.463485 2.56030088,11.4264037 2.54036126,11.376794 C2.4446463,11.1386559 2.49784548,10.759559 2.69717789,10.2112791 C2.8119087,9.89570266 2.90561898,9.62639002 2.98312136,9.39698204 L2.999,9.347 Z" id="Oval" stroke="#000000"></path>
            <path d="M16,6.347 L16.0168786,6.39698204 C16.094381,6.62639002 16.1880913,6.89570266 16.3028221,7.21127907 C16.481399,7.70246915 16.5480465,8.01690453 16.4798082,8.22040783 C16.412444,8.42130397 16.1714315,8.40115659 16.0151832,8.44163726 L16.0151832,8.44163726 L15.8657543,8.48134574 C15.7883695,8.50291486 15.7031059,8.51269255 15.6300724,8.48108319 C15.5894116,8.46348497 15.5603009,8.42640366 15.5403613,8.37679403 C15.4446463,8.13865595 15.4978455,7.75955902 15.6971779,7.21127907 C15.8119087,6.89570266 15.905619,6.62639002 15.9831214,6.39698204 L16,6.347 Z" id="Oval-Copy-2" stroke="#000000"></path>
        </g>
        <rect id="Rectangle" stroke="#000000" stroke-width="3" x="17.5" y="254.5" width="225" height="87" rx="8"></rect>
        <path d="M64.346,57 L64.346,56.352 C63.89,56.352 63.662,56.22 63.662,55.956 C63.662,55.74 63.782,55.38 64.022,54.876 L64.022,54.876 L65.318,52.32 L74.102,52.32 L75.47,54.984 C75.662,55.368 75.758,55.68 75.758,55.92 C75.758,56.064 75.686,56.172 75.542,56.244 C75.398,56.316 75.278,56.352 75.182,56.352 L75.182,56.352 L75.182,57 L81.518,57 L81.518,56.352 C81.254,56.232 81.02,56.112 80.816,55.992 C80.612,55.872 80.45,55.68 80.33,55.416 L80.33,55.416 L72.842,40.764 C72.674,40.452 72.548,40.2 72.464,40.008 C72.38,39.816 72.338,39.624 72.338,39.432 C72.338,39.168 72.422,38.994 72.59,38.91 C72.758,38.826 72.926,38.76 73.094,38.712 L73.094,38.712 L73.094,38.064 L67.01,38.064 L67.01,38.712 C67.202,38.76 67.382,38.832 67.55,38.928 C67.718,39.024 67.802,39.192 67.802,39.432 C67.802,39.624 67.736,39.852 67.604,40.116 C67.472,40.38 67.322,40.668 67.154,40.98 L67.154,40.98 L60.494,54.984 C60.326,55.32 60.152,55.62 59.972,55.884 C59.792,56.148 59.546,56.304 59.234,56.352 L59.234,56.352 L59.234,57 L64.346,57 Z M72.806,49.656 L66.398,49.656 L69.782,42.96 L72.806,49.656 Z M92.642,57.108 C93.722,57.108 94.7,57.012 95.576,56.82 C96.452,56.628 97.22,56.394 97.88,56.118 C98.54,55.842 99.086,55.596 99.518,55.38 C99.95,55.164 100.262,55.056 100.454,55.056 C100.574,55.056 100.778,55.116 101.066,55.236 L101.066,55.236 L101.426,55.056 L98.762,51.24 L98.366,51.6 C98.39,51.696 98.402,51.816 98.402,51.96 L98.402,51.96 L98.402,52.248 C98.402,52.464 98.228,52.704 97.88,52.968 C97.532,53.232 97.082,53.478 96.53,53.706 C95.978,53.934 95.366,54.132 94.694,54.3 C94.022,54.468 93.362,54.552 92.714,54.552 C92.018,54.552 91.334,54.426 90.662,54.174 C89.99,53.922 89.39,53.55 88.862,53.058 C88.334,52.566 87.908,51.978 87.584,51.294 C87.26,50.61 87.098,49.836 87.098,48.972 C87.098,48.108 87.242,47.34 87.53,46.668 C87.818,45.996 88.226,45.432 88.754,44.976 C89.282,44.52 89.9,44.178 90.608,43.95 C91.316,43.722 92.102,43.608 92.966,43.608 C93.686,43.608 94.346,43.674 94.946,43.806 C95.546,43.938 96.068,44.1 96.512,44.292 C96.956,44.484 97.298,44.682 97.538,44.886 C97.778,45.09 97.898,45.252 97.898,45.372 C97.898,45.444 97.904,45.504 97.916,45.552 C97.928,45.6 97.934,45.648 97.934,45.696 L97.934,45.696 L98.33,45.984 L100.706,42.564 L100.274,42.312 C100.178,42.36 100.088,42.42 100.004,42.492 C99.92,42.564 99.818,42.6 99.698,42.6 C99.53,42.6 99.254,42.516 98.87,42.348 C98.486,42.18 98.006,41.988 97.43,41.772 C96.854,41.556 96.188,41.364 95.432,41.196 C94.676,41.028 93.842,40.944 92.93,40.944 C91.754,40.944 90.608,41.112 89.492,41.448 C88.376,41.784 87.386,42.294 86.522,42.978 C85.658,43.662 84.962,44.508 84.434,45.516 C83.906,46.524 83.642,47.7 83.642,49.044 C83.642,50.388 83.906,51.57 84.434,52.59 C84.962,53.61 85.646,54.462 86.486,55.146 C87.326,55.83 88.286,56.328 89.366,56.64 C90.446,56.952 91.538,57.108 92.642,57.108 Z M110.21,57 L110.21,56.352 C110.066,56.352 109.94,56.31 109.832,56.226 C109.724,56.142 109.67,56.004 109.67,55.812 L109.67,55.812 L109.67,50.376 L119.318,50.376 L119.318,55.812 C119.318,56.004 119.264,56.142 119.156,56.226 C119.048,56.31 118.922,56.352 118.778,56.352 L118.778,56.352 L118.778,57 L123.314,57 L123.314,56.352 C123.17,56.352 123.044,56.31 122.936,56.226 C122.828,56.142 122.774,56.004 122.774,55.812 L122.774,55.812 L122.774,42.348 C122.774,42.156 122.828,42.018 122.936,41.934 C123.044,41.85 123.17,41.808 123.314,41.808 L123.314,41.808 L123.314,41.16 L118.778,41.16 L118.778,41.808 C118.922,41.808 119.048,41.85 119.156,41.934 C119.264,42.018 119.318,42.156 119.318,42.348 L119.318,42.348 L119.318,47.424 L109.67,47.424 L109.67,42.348 C109.67,42.156 109.724,42.018 109.832,41.934 C109.94,41.85 110.066,41.808 110.21,41.808 L110.21,41.808 L110.21,41.16 L105.674,41.16 L105.674,41.808 C105.818,41.808 105.944,41.85 106.052,41.934 C106.16,42.018 106.214,42.156 106.214,42.348 L106.214,42.348 L106.214,55.812 C106.214,56.004 106.16,56.142 106.052,56.226 C105.944,56.31 105.818,56.352 105.674,56.352 L105.674,56.352 L105.674,57 L110.21,57 Z M144.338,57.396 L144.338,53.616 L143.69,53.616 C143.69,53.832 143.594,54.006 143.402,54.138 C143.21,54.27 142.97,54.336 142.682,54.336 L142.682,54.336 L133.466,54.336 L133.466,50.088 L138.722,50.088 C139.202,50.088 139.574,50.118 139.838,50.178 C140.102,50.238 140.198,50.4 140.126,50.664 L140.126,50.664 L140.846,50.664 L140.846,46.848 L140.198,46.848 C140.198,47.112 140.102,47.274 139.91,47.334 C139.718,47.394 139.418,47.424 139.01,47.424 L139.01,47.424 L133.466,47.424 L133.466,43.824 L142.25,43.824 C142.994,43.824 143.366,44.052 143.366,44.508 L143.366,44.508 L144.014,44.508 L144.014,40.512 L143.366,40.512 C143.366,40.944 142.994,41.16 142.25,41.16 L142.25,41.16 L129.47,41.16 L129.47,41.808 C129.59,41.808 129.71,41.85 129.83,41.934 C129.95,42.018 130.01,42.156 130.01,42.348 L130.01,42.348 L130.01,55.812 C130.01,56.004 129.95,56.142 129.83,56.226 C129.71,56.31 129.59,56.352 129.47,56.352 L129.47,56.352 L129.47,57 L142.682,57 C142.97,57 143.21,57.012 143.402,57.036 C143.594,57.06 143.69,57.18 143.69,57.396 L143.69,57.396 L144.338,57.396 Z M156.254,57.108 C157.07,57.108 157.94,57.048 158.864,56.928 C159.788,56.808 160.634,56.556 161.402,56.172 C162.17,55.788 162.812,55.26 163.328,54.588 C163.844,53.916 164.102,53.052 164.102,51.996 C164.102,50.94 163.808,50.112 163.22,49.512 C162.632,48.912 161.894,48.456 161.006,48.144 C160.118,47.832 159.158,47.61 158.126,47.478 C157.094,47.346 156.134,47.214 155.246,47.082 C154.358,46.95 153.62,46.77 153.032,46.542 C152.444,46.314 152.15,45.936 152.15,45.408 C152.15,45.072 152.246,44.79 152.438,44.562 C152.63,44.334 152.894,44.148 153.23,44.004 C153.566,43.86 153.95,43.758 154.382,43.698 C154.814,43.638 155.27,43.608 155.75,43.608 C156.998,43.608 158.126,43.752 159.134,44.04 C160.142,44.328 160.886,44.676 161.366,45.084 C161.558,45.228 161.666,45.372 161.69,45.516 L161.69,45.516 L161.762,45.948 L162.41,46.164 L164.21,42.78 L163.814,42.384 C163.67,42.456 163.55,42.522 163.454,42.582 C163.358,42.642 163.214,42.672 163.022,42.672 C162.854,42.672 162.596,42.582 162.248,42.402 C161.9,42.222 161.45,42.024 160.898,41.808 C160.346,41.592 159.668,41.394 158.864,41.214 C158.06,41.034 157.094,40.944 155.966,40.944 C153.662,40.944 151.874,41.4 150.602,42.312 C149.33,43.224 148.694,44.448 148.694,45.984 C148.694,47.016 148.988,47.814 149.576,48.378 C150.164,48.942 150.902,49.374 151.79,49.674 C152.678,49.974 153.638,50.19 154.67,50.322 C155.702,50.454 156.662,50.586 157.55,50.718 C158.438,50.85 159.176,51.036 159.764,51.276 C160.352,51.516 160.646,51.9 160.646,52.428 C160.646,52.884 160.478,53.25 160.142,53.526 C159.806,53.802 159.398,54.018 158.918,54.174 C158.438,54.33 157.952,54.432 157.46,54.48 C156.968,54.528 156.554,54.552 156.218,54.552 C155.858,54.552 155.36,54.492 154.724,54.372 C154.088,54.252 153.452,54.09 152.816,53.886 C152.18,53.682 151.634,53.43 151.178,53.13 C150.722,52.83 150.494,52.5 150.494,52.14 C150.494,52.02 150.5,51.906 150.512,51.798 C150.524,51.69 150.53,51.588 150.53,51.492 L150.53,51.492 L149.846,51.312 L148.19,55.344 L148.694,55.704 C148.814,55.56 148.958,55.488 149.126,55.488 C149.222,55.488 149.498,55.578 149.954,55.758 C150.41,55.938 150.968,56.13 151.628,56.334 C152.288,56.538 153.02,56.718 153.824,56.874 C154.628,57.03 155.438,57.108 156.254,57.108 Z M200.102,57.108 L200.102,52.716 L199.742,52.716 C199.742,52.98 199.7,53.22 199.616,53.436 C199.532,53.652 199.322,53.76 198.986,53.76 C198.578,53.736 198.14,53.55 197.672,53.202 C197.204,52.854 196.802,52.464 196.466,52.032 C196.538,51.792 196.658,51.492 196.826,51.132 C196.994,50.772 197.186,50.418 197.402,50.07 C197.618,49.722 197.858,49.428 198.122,49.188 C198.386,48.948 198.662,48.828 198.95,48.828 C199.214,48.828 199.4,48.924 199.508,49.116 C199.616,49.308 199.694,49.476 199.742,49.62 L199.742,49.62 L200.102,49.62 L200.102,44.076 L199.742,44.076 C199.742,44.172 199.694,44.25 199.598,44.31 C199.502,44.37 199.394,44.424 199.274,44.472 C199.082,44.52 198.788,44.67 198.392,44.922 C197.996,45.174 197.558,45.51 197.078,45.93 C196.598,46.35 196.118,46.836 195.638,47.388 C195.158,47.94 194.738,48.54 194.378,49.188 C194.21,49.02 194.066,48.798 193.946,48.522 C193.826,48.246 193.694,47.958 193.55,47.658 C193.406,47.358 193.238,47.058 193.046,46.758 C192.854,46.458 192.602,46.2 192.29,45.984 C192.842,45.792 193.352,45.39 193.82,44.778 C194.288,44.166 194.522,43.44 194.522,42.6 C194.522,41.76 194.324,41.046 193.928,40.458 C193.532,39.87 193.028,39.378 192.416,38.982 C191.804,38.586 191.114,38.298 190.346,38.118 C189.578,37.938 188.81,37.848 188.042,37.848 C187.298,37.848 186.536,37.938 185.756,38.118 C184.976,38.298 184.28,38.586 183.668,38.982 C183.056,39.378 182.552,39.87 182.156,40.458 C181.76,41.046 181.562,41.76 181.562,42.6 C181.562,43.416 181.832,44.13 182.372,44.742 C182.912,45.354 183.554,45.78 184.298,46.02 L184.298,46.02 L184.298,46.092 C183.602,46.284 182.954,46.524 182.354,46.812 C181.754,47.1 181.238,47.46 180.806,47.892 C180.374,48.324 180.032,48.834 179.78,49.422 C179.528,50.01 179.402,50.7 179.402,51.492 C179.402,52.5 179.642,53.364 180.122,54.084 C180.602,54.804 181.208,55.392 181.94,55.848 C182.672,56.304 183.488,56.628 184.388,56.82 C185.288,57.012 186.17,57.108 187.034,57.108 C187.802,57.108 188.48,57.078 189.068,57.018 C189.656,56.958 190.208,56.826 190.724,56.622 C191.24,56.418 191.744,56.154 192.236,55.83 C192.728,55.506 193.262,55.104 193.838,54.624 C194.126,54.936 194.444,55.242 194.792,55.542 C195.14,55.842 195.56,56.112 196.052,56.352 C196.544,56.592 197.12,56.778 197.78,56.91 C198.44,57.042 199.214,57.108 200.102,57.108 L200.102,57.108 Z M188.042,45.408 C187.202,45.408 186.488,45.21 185.9,44.814 C185.312,44.418 185.018,43.8 185.018,42.96 C185.018,42.12 185.312,41.502 185.9,41.106 C186.488,40.71 187.202,40.512 188.042,40.512 C188.882,40.512 189.596,40.71 190.184,41.106 C190.772,41.502 191.066,42.12 191.066,42.96 C191.066,43.8 190.772,44.418 190.184,44.814 C189.596,45.21 188.882,45.408 188.042,45.408 Z M187.754,54.336 C187.25,54.336 186.74,54.276 186.224,54.156 C185.708,54.036 185.234,53.844 184.802,53.58 C184.37,53.316 184.022,52.968 183.758,52.536 C183.494,52.104 183.362,51.588 183.362,50.988 C183.362,50.364 183.494,49.842 183.758,49.422 C184.022,49.002 184.37,48.66 184.802,48.396 C185.234,48.132 185.708,47.94 186.224,47.82 C186.74,47.7 187.25,47.64 187.754,47.64 C188.498,47.64 189.05,47.76 189.41,48 C189.77,48.24 190.058,48.558 190.274,48.954 C190.49,49.35 190.682,49.794 190.85,50.286 C191.018,50.778 191.282,51.276 191.642,51.78 C191.594,52.092 191.456,52.398 191.228,52.698 C191,52.998 190.706,53.268 190.346,53.508 C189.986,53.748 189.584,53.946 189.14,54.102 C188.696,54.258 188.234,54.336 187.754,54.336 Z M90.302,93 L90.302,92.352 C89.534,92.352 89.15,92.136 89.15,91.704 L89.15,91.704 L89.15,85.296 L96.386,85.296 C98.69,85.296 100.502,84.87 101.822,84.018 C103.142,83.166 103.802,81.72 103.802,79.68 C103.802,77.64 103.142,76.194 101.822,75.342 C100.502,74.49 98.69,74.064 96.386,74.064 L96.386,74.064 L83.714,74.064 L83.714,74.712 C84.602,74.712 85.046,74.928 85.046,75.36 L85.046,75.36 L85.046,91.704 C85.046,92.136 84.602,92.352 83.714,92.352 L83.714,92.352 L83.714,93 L90.302,93 Z M96.818,81.984 L89.15,81.984 L89.15,77.376 L96.818,77.376 C97.61,77.376 98.288,77.532 98.852,77.844 C99.416,78.156 99.698,78.768 99.698,79.68 C99.698,80.592 99.416,81.204 98.852,81.516 C98.288,81.828 97.61,81.984 96.818,81.984 L96.818,81.984 Z M110.354,93 L110.354,92.352 C110.138,92.352 109.97,92.328 109.85,92.28 C109.73,92.232 109.67,92.112 109.67,91.92 C109.67,91.8 109.7,91.662 109.76,91.506 C109.82,91.35 109.898,91.176 109.994,90.984 L109.994,90.984 L111.002,89.04 L118.706,89.04 L119.678,91.092 C119.75,91.284 119.81,91.44 119.858,91.56 C119.906,91.68 119.93,91.812 119.93,91.956 C119.93,92.148 119.864,92.28 119.732,92.352 C119.6,92.424 119.474,92.46 119.354,92.46 L119.354,92.46 L119.354,93 L124.466,93 L124.466,92.352 C124.298,92.304 124.142,92.232 123.998,92.136 C123.854,92.04 123.722,91.884 123.602,91.668 L123.602,91.668 L117.77,79.428 C117.65,79.164 117.536,78.93 117.428,78.726 C117.32,78.522 117.266,78.348 117.266,78.204 C117.266,78.036 117.308,77.94 117.392,77.916 C117.476,77.892 117.554,77.856 117.626,77.808 L117.626,77.808 L117.626,77.16 L112.19,77.16 L112.19,77.808 C112.262,77.856 112.328,77.898 112.388,77.934 C112.448,77.97 112.478,78.06 112.478,78.204 C112.478,78.396 112.436,78.594 112.352,78.798 C112.268,79.002 112.154,79.272 112.01,79.608 L112.01,79.608 L106.646,91.308 C106.55,91.5 106.412,91.71 106.232,91.938 C106.052,92.166 105.818,92.304 105.53,92.352 L105.53,92.352 L105.53,93 L110.354,93 Z M117.554,86.376 L112.082,86.376 L114.638,80.328 L117.554,86.376 Z M133.718,93 L133.718,92.352 C133.046,92.352 132.71,92.172 132.71,91.812 L132.71,91.812 L132.71,78.348 C132.71,77.988 133.046,77.808 133.718,77.808 L133.718,77.808 L133.718,77.16 L128.246,77.16 L128.246,77.808 C128.63,77.808 128.894,77.85 129.038,77.934 C129.182,78.018 129.254,78.156 129.254,78.348 L129.254,78.348 L129.254,91.812 C129.254,92.004 129.182,92.142 129.038,92.226 C128.894,92.31 128.63,92.352 128.246,92.352 L128.246,92.352 L128.246,93 L133.718,93 Z M144.338,93 L144.338,92.352 C143.834,92.352 143.582,92.172 143.582,91.812 L143.582,91.812 L143.582,81.336 L152.51,90.84 C152.798,91.152 153.056,91.428 153.284,91.668 C153.512,91.908 153.626,92.076 153.626,92.172 C153.626,92.292 153.542,92.352 153.374,92.352 L153.374,92.352 L153.374,93 L158.054,93 L158.054,92.352 C157.622,92.352 157.406,92.172 157.406,91.812 L157.406,91.812 L157.406,78.348 C157.406,77.988 157.622,77.808 158.054,77.808 L158.054,77.808 L158.054,77.16 L153.662,77.16 L153.662,77.808 C154.142,77.808 154.382,77.988 154.382,78.348 L154.382,78.348 L154.382,88.104 L145.742,78.96 C145.214,78.432 144.95,78.108 144.95,77.988 C144.95,77.892 145.034,77.832 145.202,77.808 L145.202,77.808 L145.202,77.16 L139.91,77.16 L139.91,77.808 C140.342,77.808 140.558,77.988 140.558,78.348 L140.558,78.348 L140.558,91.812 C140.558,92.172 140.342,92.352 139.91,92.352 L139.91,92.352 L139.91,93 L144.338,93 Z M170.726,93.108 C171.542,93.108 172.412,93.048 173.336,92.928 C174.26,92.808 175.106,92.556 175.874,92.172 C176.642,91.788 177.284,91.26 177.8,90.588 C178.316,89.916 178.574,89.052 178.574,87.996 C178.574,86.94 178.28,86.112 177.692,85.512 C177.104,84.912 176.366,84.456 175.478,84.144 C174.59,83.832 173.63,83.61 172.598,83.478 C171.566,83.346 170.606,83.214 169.718,83.082 C168.83,82.95 168.092,82.77 167.504,82.542 C166.916,82.314 166.622,81.936 166.622,81.408 C166.622,81.072 166.718,80.79 166.91,80.562 C167.102,80.334 167.366,80.148 167.702,80.004 C168.038,79.86 168.422,79.758 168.854,79.698 C169.286,79.638 169.742,79.608 170.222,79.608 C171.47,79.608 172.598,79.752 173.606,80.04 C174.614,80.328 175.358,80.676 175.838,81.084 C176.03,81.228 176.138,81.372 176.162,81.516 L176.162,81.516 L176.234,81.948 L176.882,82.164 L178.682,78.78 L178.286,78.384 C178.142,78.456 178.022,78.522 177.926,78.582 C177.83,78.642 177.686,78.672 177.494,78.672 C177.326,78.672 177.068,78.582 176.72,78.402 C176.372,78.222 175.922,78.024 175.37,77.808 C174.818,77.592 174.14,77.394 173.336,77.214 C172.532,77.034 171.566,76.944 170.438,76.944 C168.134,76.944 166.346,77.4 165.074,78.312 C163.802,79.224 163.166,80.448 163.166,81.984 C163.166,83.016 163.46,83.814 164.048,84.378 C164.636,84.942 165.374,85.374 166.262,85.674 C167.15,85.974 168.11,86.19 169.142,86.322 C170.174,86.454 171.134,86.586 172.022,86.718 C172.91,86.85 173.648,87.036 174.236,87.276 C174.824,87.516 175.118,87.9 175.118,88.428 C175.118,88.884 174.95,89.25 174.614,89.526 C174.278,89.802 173.87,90.018 173.39,90.174 C172.91,90.33 172.424,90.432 171.932,90.48 C171.44,90.528 171.026,90.552 170.69,90.552 C170.33,90.552 169.832,90.492 169.196,90.372 C168.56,90.252 167.924,90.09 167.288,89.886 C166.652,89.682 166.106,89.43 165.65,89.13 C165.194,88.83 164.966,88.5 164.966,88.14 C164.966,88.02 164.972,87.906 164.984,87.798 C164.996,87.69 165.002,87.588 165.002,87.492 L165.002,87.492 L164.318,87.312 L162.662,91.344 L163.166,91.704 C163.286,91.56 163.43,91.488 163.598,91.488 C163.694,91.488 163.97,91.578 164.426,91.758 C164.882,91.938 165.44,92.13 166.1,92.334 C166.76,92.538 167.492,92.718 168.296,92.874 C169.1,93.03 169.91,93.108 170.726,93.108 Z" id="Aches&amp;Pains" fill="#000000" fill-rule="nonzero"></path>
        <path d="M41.018,276 L41.018,275.676 C40.682,275.676 40.514,275.568 40.514,275.352 L40.514,275.352 L40.514,269.358 L40.55,269.358 L44.096,276 L44.15,276 L47.768,269.376 L47.804,269.376 L47.804,275.352 C47.804,275.568 47.642,275.676 47.318,275.676 L47.318,275.676 L47.318,276 L50.144,276 L50.144,275.676 C50.048,275.676 49.964,275.649 49.892,275.595 C49.82,275.541 49.784,275.46 49.784,275.352 L49.784,275.352 L49.784,267.144 C49.784,267.036 49.82,266.961 49.892,266.919 C49.964,266.877 50.048,266.856 50.144,266.856 L50.144,266.856 L50.144,266.532 L46.814,266.532 L46.814,266.856 C46.97,266.856 47.048,266.922 47.048,267.054 C47.048,267.126 47.027,267.207 46.985,267.297 C46.943,267.387 46.88,267.51 46.796,267.666 L46.796,267.666 L44.204,272.292 L41.63,267.612 C41.57,267.504 41.516,267.402 41.468,267.306 C41.42,267.21 41.396,267.132 41.396,267.072 C41.396,267 41.429,266.946 41.495,266.91 C41.561,266.874 41.624,266.856 41.684,266.856 L41.684,266.856 L41.684,266.532 L38.318,266.532 L38.318,266.856 C38.414,266.856 38.498,266.877 38.57,266.919 C38.642,266.961 38.678,267.036 38.678,267.144 L38.678,267.144 L38.678,275.352 C38.678,275.46 38.642,275.541 38.57,275.595 C38.498,275.649 38.414,275.676 38.318,275.676 L38.318,275.676 L38.318,276 L41.018,276 Z M57.938,276 L57.938,275.676 C57.71,275.676 57.596,275.586 57.596,275.406 L57.596,275.406 L57.596,272.706 L60.35,269.142 C60.482,268.974 60.635,268.809 60.809,268.647 C60.983,268.485 61.142,268.404 61.286,268.404 L61.286,268.404 L61.286,268.08 L58.532,268.08 L58.532,268.404 C58.592,268.404 58.652,268.416 58.712,268.44 C58.772,268.464 58.802,268.524 58.802,268.62 C58.802,268.692 58.775,268.767 58.721,268.845 C58.667,268.923 58.586,269.04 58.478,269.196 L58.478,269.196 L56.876,271.428 L55.058,269.052 C54.998,268.968 54.944,268.896 54.896,268.836 C54.848,268.776 54.824,268.71 54.824,268.638 C54.824,268.566 54.86,268.509 54.932,268.467 C55.004,268.425 55.07,268.404 55.13,268.404 L55.13,268.404 L55.13,268.08 L52.16,268.08 L52.16,268.404 C52.268,268.404 52.382,268.428 52.502,268.476 C52.622,268.524 52.724,268.602 52.808,268.71 L52.808,268.71 L55.868,272.634 L55.868,275.406 C55.868,275.586 55.76,275.676 55.544,275.676 L55.544,275.676 L55.544,276 L57.938,276 Z M70.988,276 L70.988,275.676 C70.736,275.676 70.61,275.586 70.61,275.406 L70.61,275.406 L70.61,272.706 L73.67,272.706 C74.642,272.706 75.371,272.541 75.857,272.211 C76.343,271.881 76.586,271.284 76.586,270.42 C76.586,269.556 76.343,268.95 75.857,268.602 C75.371,268.254 74.642,268.08 73.67,268.08 L73.67,268.08 L68.432,268.08 L68.432,268.404 C68.732,268.404 68.882,268.494 68.882,268.674 L68.882,268.674 L68.882,275.406 C68.882,275.586 68.732,275.676 68.432,275.676 L68.432,275.676 L68.432,276 L70.988,276 Z M73.634,271.374 L70.61,271.374 L70.61,269.412 L73.634,269.412 C73.982,269.412 74.273,269.487 74.507,269.637 C74.741,269.787 74.858,270.048 74.858,270.42 C74.858,270.804 74.741,271.059 74.507,271.185 C74.273,271.311 73.982,271.374 73.634,271.374 L73.634,271.374 Z M82.724,276.054 C83.384,276.054 84.005,275.979 84.587,275.829 C85.169,275.679 85.676,275.436 86.108,275.1 C86.54,274.764 86.882,274.341 87.134,273.831 C87.386,273.321 87.512,272.724 87.512,272.04 C87.512,271.356 87.386,270.759 87.134,270.249 C86.882,269.739 86.54,269.316 86.108,268.98 C85.676,268.644 85.169,268.392 84.587,268.224 C84.005,268.056 83.384,267.972 82.724,267.972 C82.064,267.972 81.443,268.056 80.861,268.224 C80.279,268.392 79.772,268.644 79.34,268.98 C78.908,269.316 78.566,269.739 78.314,270.249 C78.062,270.759 77.936,271.356 77.936,272.04 C77.936,272.724 78.062,273.321 78.314,273.831 C78.566,274.341 78.908,274.764 79.34,275.1 C79.772,275.436 80.279,275.679 80.861,275.829 C81.443,275.979 82.064,276.054 82.724,276.054 Z M82.724,274.776 C82.34,274.776 81.965,274.713 81.599,274.587 C81.233,274.461 80.906,274.281 80.618,274.047 C80.33,273.813 80.099,273.528 79.925,273.192 C79.751,272.856 79.664,272.472 79.664,272.04 C79.664,271.608 79.751,271.224 79.925,270.888 C80.099,270.552 80.33,270.267 80.618,270.033 C80.906,269.799 81.233,269.619 81.599,269.493 C81.965,269.367 82.34,269.304 82.724,269.304 C83.108,269.304 83.483,269.367 83.849,269.493 C84.215,269.619 84.542,269.799 84.83,270.033 C85.118,270.267 85.349,270.552 85.523,270.888 C85.697,271.224 85.784,271.608 85.784,272.04 C85.784,272.472 85.697,272.856 85.523,273.192 C85.349,273.528 85.118,273.813 84.83,274.047 C84.542,274.281 84.215,274.461 83.849,274.587 C83.483,274.713 83.108,274.776 82.724,274.776 Z M93.722,276.054 C94.382,276.054 95.003,275.979 95.585,275.829 C96.167,275.679 96.674,275.436 97.106,275.1 C97.538,274.764 97.88,274.341 98.132,273.831 C98.384,273.321 98.51,272.724 98.51,272.04 C98.51,271.356 98.384,270.759 98.132,270.249 C97.88,269.739 97.538,269.316 97.106,268.98 C96.674,268.644 96.167,268.392 95.585,268.224 C95.003,268.056 94.382,267.972 93.722,267.972 C93.062,267.972 92.441,268.056 91.859,268.224 C91.277,268.392 90.77,268.644 90.338,268.98 C89.906,269.316 89.564,269.739 89.312,270.249 C89.06,270.759 88.934,271.356 88.934,272.04 C88.934,272.724 89.06,273.321 89.312,273.831 C89.564,274.341 89.906,274.764 90.338,275.1 C90.77,275.436 91.277,275.679 91.859,275.829 C92.441,275.979 93.062,276.054 93.722,276.054 Z M93.722,274.776 C93.338,274.776 92.963,274.713 92.597,274.587 C92.231,274.461 91.904,274.281 91.616,274.047 C91.328,273.813 91.097,273.528 90.923,273.192 C90.749,272.856 90.662,272.472 90.662,272.04 C90.662,271.608 90.749,271.224 90.923,270.888 C91.097,270.552 91.328,270.267 91.616,270.033 C91.904,269.799 92.231,269.619 92.597,269.493 C92.963,269.367 93.338,269.304 93.722,269.304 C94.106,269.304 94.481,269.367 94.847,269.493 C95.213,269.619 95.54,269.799 95.828,270.033 C96.116,270.267 96.347,270.552 96.521,270.888 C96.695,271.224 96.782,271.608 96.782,272.04 C96.782,272.472 96.695,272.856 96.521,273.192 C96.347,273.528 96.116,273.813 95.828,274.047 C95.54,274.281 95.213,274.461 94.847,274.587 C94.481,274.713 94.106,274.776 93.722,274.776 Z M103.028,276 L103.028,275.676 C102.956,275.676 102.881,275.655 102.803,275.613 C102.725,275.571 102.686,275.502 102.686,275.406 L102.686,275.406 L102.686,272.832 L105.188,272.832 L106.61,274.956 C106.79,275.208 106.88,275.394 106.88,275.514 C106.88,275.622 106.802,275.676 106.646,275.676 L106.646,275.676 L106.646,276 L109.4,276 L109.4,275.676 C109.268,275.64 109.145,275.589 109.031,275.523 C108.917,275.457 108.812,275.358 108.716,275.226 L108.716,275.226 L106.952,272.652 C107.204,272.592 107.45,272.505 107.69,272.391 C107.93,272.277 108.149,272.127 108.347,271.941 C108.545,271.755 108.704,271.536 108.824,271.284 C108.944,271.032 109.004,270.744 109.004,270.42 C109.004,269.568 108.704,268.965 108.104,268.611 C107.504,268.257 106.67,268.08 105.602,268.08 L105.602,268.08 L100.634,268.08 L100.634,268.404 C100.85,268.404 100.958,268.494 100.958,268.674 L100.958,268.674 L100.958,275.406 C100.958,275.586 100.85,275.676 100.634,275.676 L100.634,275.676 L100.634,276 L103.028,276 Z M105.566,271.5 L102.722,271.5 L102.722,269.412 L105.566,269.412 C106.178,269.412 106.625,269.499 106.907,269.673 C107.189,269.847 107.33,270.084 107.33,270.384 C107.33,271.128 106.742,271.5 105.566,271.5 L105.566,271.5 Z M118.4,276 L118.4,275.676 C118.292,275.676 118.208,275.664 118.148,275.64 C118.088,275.616 118.058,275.556 118.058,275.46 C118.058,275.4 118.073,275.331 118.103,275.253 C118.133,275.175 118.172,275.088 118.22,274.992 L118.22,274.992 L118.724,274.02 L122.576,274.02 L123.062,275.046 C123.098,275.142 123.128,275.22 123.152,275.28 C123.176,275.34 123.188,275.406 123.188,275.478 C123.188,275.574 123.155,275.64 123.089,275.676 C123.023,275.712 122.96,275.73 122.9,275.73 L122.9,275.73 L122.9,276 L125.456,276 L125.456,275.676 C125.372,275.652 125.294,275.616 125.222,275.568 C125.15,275.52 125.084,275.442 125.024,275.334 L125.024,275.334 L122.108,269.214 C122.048,269.082 121.991,268.965 121.937,268.863 C121.883,268.761 121.856,268.674 121.856,268.602 C121.856,268.518 121.877,268.47 121.919,268.458 C121.961,268.446 122,268.428 122.036,268.404 L122.036,268.404 L122.036,268.08 L119.318,268.08 L119.318,268.404 C119.354,268.428 119.387,268.449 119.417,268.467 C119.447,268.485 119.462,268.53 119.462,268.602 C119.462,268.698 119.441,268.797 119.399,268.899 C119.357,269.001 119.3,269.136 119.228,269.304 L119.228,269.304 L116.546,275.154 C116.498,275.25 116.429,275.355 116.339,275.469 C116.249,275.583 116.132,275.652 115.988,275.676 L115.988,275.676 L115.988,276 L118.4,276 Z M122,272.688 L119.264,272.688 L120.542,269.664 L122,272.688 Z M130.802,276.054 C131.342,276.054 131.831,276.006 132.269,275.91 C132.707,275.814 133.091,275.697 133.421,275.559 C133.751,275.421 134.024,275.298 134.24,275.19 C134.456,275.082 134.612,275.028 134.708,275.028 C134.768,275.028 134.87,275.058 135.014,275.118 L135.014,275.118 L135.194,275.028 L133.862,273.12 L133.664,273.3 C133.676,273.348 133.682,273.408 133.682,273.48 L133.682,273.48 L133.682,273.624 C133.682,273.732 133.595,273.852 133.421,273.984 C133.247,274.116 133.022,274.239 132.746,274.353 C132.47,274.467 132.164,274.566 131.828,274.65 C131.492,274.734 131.162,274.776 130.838,274.776 C130.49,274.776 130.148,274.713 129.812,274.587 C129.476,274.461 129.176,274.275 128.912,274.029 C128.648,273.783 128.435,273.489 128.273,273.147 C128.111,272.805 128.03,272.418 128.03,271.986 C128.03,271.554 128.102,271.17 128.246,270.834 C128.39,270.498 128.594,270.216 128.858,269.988 C129.122,269.76 129.431,269.589 129.785,269.475 C130.139,269.361 130.532,269.304 130.964,269.304 C131.324,269.304 131.654,269.337 131.954,269.403 C132.254,269.469 132.515,269.55 132.737,269.646 C132.959,269.742 133.13,269.841 133.25,269.943 C133.37,270.045 133.43,270.126 133.43,270.186 C133.43,270.222 133.433,270.252 133.439,270.276 C133.445,270.3 133.448,270.324 133.448,270.348 L133.448,270.348 L133.646,270.492 L134.834,268.782 L134.618,268.656 C134.57,268.68 134.525,268.71 134.483,268.746 C134.441,268.782 134.39,268.8 134.33,268.8 C134.246,268.8 134.108,268.758 133.916,268.674 C133.724,268.59 133.484,268.494 133.196,268.386 C132.908,268.278 132.575,268.182 132.197,268.098 C131.819,268.014 131.402,267.972 130.946,267.972 C130.358,267.972 129.785,268.056 129.227,268.224 C128.669,268.392 128.174,268.647 127.742,268.989 C127.31,269.331 126.962,269.754 126.698,270.258 C126.434,270.762 126.302,271.35 126.302,272.022 C126.302,272.694 126.434,273.285 126.698,273.795 C126.962,274.305 127.304,274.731 127.724,275.073 C128.144,275.415 128.624,275.664 129.164,275.82 C129.704,275.976 130.25,276.054 130.802,276.054 Z M139.586,276 L139.586,275.676 C139.514,275.676 139.451,275.655 139.397,275.613 C139.343,275.571 139.316,275.502 139.316,275.406 L139.316,275.406 L139.316,272.688 L144.14,272.688 L144.14,275.406 C144.14,275.502 144.113,275.571 144.059,275.613 C144.005,275.655 143.942,275.676 143.87,275.676 L143.87,275.676 L143.87,276 L146.138,276 L146.138,275.676 C146.066,275.676 146.003,275.655 145.949,275.613 C145.895,275.571 145.868,275.502 145.868,275.406 L145.868,275.406 L145.868,268.674 C145.868,268.578 145.895,268.509 145.949,268.467 C146.003,268.425 146.066,268.404 146.138,268.404 L146.138,268.404 L146.138,268.08 L143.87,268.08 L143.87,268.404 C143.942,268.404 144.005,268.425 144.059,268.467 C144.113,268.509 144.14,268.578 144.14,268.674 L144.14,268.674 L144.14,271.212 L139.316,271.212 L139.316,268.674 C139.316,268.578 139.343,268.509 139.397,268.467 C139.451,268.425 139.514,268.404 139.586,268.404 L139.586,268.404 L139.586,268.08 L137.318,268.08 L137.318,268.404 C137.39,268.404 137.453,268.425 137.507,268.467 C137.561,268.509 137.588,268.578 137.588,268.674 L137.588,268.674 L137.588,275.406 C137.588,275.502 137.561,275.571 137.507,275.613 C137.453,275.655 137.39,275.676 137.318,275.676 L137.318,275.676 L137.318,276 L139.586,276 Z M153.95,276 L153.95,275.676 C153.722,275.676 153.608,275.586 153.608,275.406 L153.608,275.406 L153.608,272.706 L156.362,269.142 C156.494,268.974 156.647,268.809 156.821,268.647 C156.995,268.485 157.154,268.404 157.298,268.404 L157.298,268.404 L157.298,268.08 L154.544,268.08 L154.544,268.404 C154.604,268.404 154.664,268.416 154.724,268.44 C154.784,268.464 154.814,268.524 154.814,268.62 C154.814,268.692 154.787,268.767 154.733,268.845 C154.679,268.923 154.598,269.04 154.49,269.196 L154.49,269.196 L152.888,271.428 L151.07,269.052 C151.01,268.968 150.956,268.896 150.908,268.836 C150.86,268.776 150.836,268.71 150.836,268.638 C150.836,268.566 150.872,268.509 150.944,268.467 C151.016,268.425 151.082,268.404 151.142,268.404 L151.142,268.404 L151.142,268.08 L148.172,268.08 L148.172,268.404 C148.28,268.404 148.394,268.428 148.514,268.476 C148.634,268.524 148.736,268.602 148.82,268.71 L148.82,268.71 L151.88,272.634 L151.88,275.406 C151.88,275.586 151.772,275.676 151.556,275.676 L151.556,275.676 L151.556,276 L153.95,276 Z M170.024,276 C170.552,276 171.005,275.943 171.383,275.829 C171.761,275.715 172.067,275.562 172.301,275.37 C172.535,275.178 172.706,274.956 172.814,274.704 C172.922,274.452 172.976,274.182 172.976,273.894 C172.976,273.642 172.934,273.408 172.85,273.192 C172.766,272.976 172.658,272.784 172.526,272.616 C172.394,272.448 172.244,272.304 172.076,272.184 C171.908,272.064 171.74,271.968 171.572,271.896 L171.572,271.896 L171.572,271.878 C171.716,271.806 171.857,271.71 171.995,271.59 C172.133,271.47 172.259,271.335 172.373,271.185 C172.487,271.035 172.58,270.867 172.652,270.681 C172.724,270.495 172.76,270.294 172.76,270.078 C172.76,269.814 172.706,269.562 172.598,269.322 C172.49,269.082 172.325,268.869 172.103,268.683 C171.881,268.497 171.605,268.35 171.275,268.242 C170.945,268.134 170.552,268.08 170.096,268.08 L170.096,268.08 L164.498,268.08 L164.498,268.404 C164.594,268.404 164.687,268.425 164.777,268.467 C164.867,268.509 164.912,268.578 164.912,268.674 L164.912,268.674 L164.912,275.406 C164.912,275.502 164.867,275.571 164.777,275.613 C164.687,275.655 164.594,275.676 164.498,275.676 L164.498,275.676 L164.498,276 L170.024,276 Z M169.844,271.212 L166.64,271.212 L166.64,269.412 L169.844,269.412 C169.988,269.412 170.132,269.421 170.276,269.439 C170.42,269.457 170.546,269.499 170.654,269.565 C170.762,269.631 170.852,269.721 170.924,269.835 C170.996,269.949 171.032,270.102 171.032,270.294 C171.032,270.666 170.906,270.912 170.654,271.032 C170.402,271.152 170.132,271.212 169.844,271.212 L169.844,271.212 Z M169.808,274.668 L166.64,274.668 L166.64,272.544 L169.52,272.544 C170.144,272.544 170.588,272.634 170.852,272.814 C171.116,272.994 171.248,273.27 171.248,273.642 C171.248,273.966 171.146,274.218 170.942,274.398 C170.738,274.578 170.36,274.668 169.808,274.668 L169.808,274.668 Z M178.034,276 L178.034,275.676 C177.962,275.676 177.887,275.655 177.809,275.613 C177.731,275.571 177.692,275.502 177.692,275.406 L177.692,275.406 L177.692,272.832 L180.194,272.832 L181.616,274.956 C181.796,275.208 181.886,275.394 181.886,275.514 C181.886,275.622 181.808,275.676 181.652,275.676 L181.652,275.676 L181.652,276 L184.406,276 L184.406,275.676 C184.274,275.64 184.151,275.589 184.037,275.523 C183.923,275.457 183.818,275.358 183.722,275.226 L183.722,275.226 L181.958,272.652 C182.21,272.592 182.456,272.505 182.696,272.391 C182.936,272.277 183.155,272.127 183.353,271.941 C183.551,271.755 183.71,271.536 183.83,271.284 C183.95,271.032 184.01,270.744 184.01,270.42 C184.01,269.568 183.71,268.965 183.11,268.611 C182.51,268.257 181.676,268.08 180.608,268.08 L180.608,268.08 L175.64,268.08 L175.64,268.404 C175.856,268.404 175.964,268.494 175.964,268.674 L175.964,268.674 L175.964,275.406 C175.964,275.586 175.856,275.676 175.64,275.676 L175.64,275.676 L175.64,276 L178.034,276 Z M180.572,271.5 L177.728,271.5 L177.728,269.412 L180.572,269.412 C181.184,269.412 181.631,269.499 181.913,269.673 C182.195,269.847 182.336,270.084 182.336,270.384 C182.336,271.128 181.748,271.5 180.572,271.5 L180.572,271.5 Z M194.144,276.198 L194.144,274.308 L193.82,274.308 C193.82,274.416 193.772,274.503 193.676,274.569 C193.58,274.635 193.46,274.668 193.316,274.668 L193.316,274.668 L188.708,274.668 L188.708,272.544 L191.336,272.544 C191.576,272.544 191.762,272.559 191.894,272.589 C192.026,272.619 192.074,272.7 192.038,272.832 L192.038,272.832 L192.398,272.832 L192.398,270.924 L192.074,270.924 C192.074,271.056 192.026,271.137 191.93,271.167 C191.834,271.197 191.684,271.212 191.48,271.212 L191.48,271.212 L188.708,271.212 L188.708,269.412 L193.1,269.412 C193.472,269.412 193.658,269.526 193.658,269.754 L193.658,269.754 L193.982,269.754 L193.982,267.756 L193.658,267.756 C193.658,267.972 193.472,268.08 193.1,268.08 L193.1,268.08 L186.71,268.08 L186.71,268.404 C186.77,268.404 186.83,268.425 186.89,268.467 C186.95,268.509 186.98,268.578 186.98,268.674 L186.98,268.674 L186.98,275.406 C186.98,275.502 186.95,275.571 186.89,275.613 C186.83,275.655 186.77,275.676 186.71,275.676 L186.71,275.676 L186.71,276 L193.316,276 C193.46,276 193.58,276.006 193.676,276.018 C193.772,276.03 193.82,276.09 193.82,276.198 L193.82,276.198 L194.144,276.198 Z M197.924,276 L197.924,275.676 C197.816,275.676 197.732,275.664 197.672,275.64 C197.612,275.616 197.582,275.556 197.582,275.46 C197.582,275.4 197.597,275.331 197.627,275.253 C197.657,275.175 197.696,275.088 197.744,274.992 L197.744,274.992 L198.248,274.02 L202.1,274.02 L202.586,275.046 C202.622,275.142 202.652,275.22 202.676,275.28 C202.7,275.34 202.712,275.406 202.712,275.478 C202.712,275.574 202.679,275.64 202.613,275.676 C202.547,275.712 202.484,275.73 202.424,275.73 L202.424,275.73 L202.424,276 L204.98,276 L204.98,275.676 C204.896,275.652 204.818,275.616 204.746,275.568 C204.674,275.52 204.608,275.442 204.548,275.334 L204.548,275.334 L201.632,269.214 C201.572,269.082 201.515,268.965 201.461,268.863 C201.407,268.761 201.38,268.674 201.38,268.602 C201.38,268.518 201.401,268.47 201.443,268.458 C201.485,268.446 201.524,268.428 201.56,268.404 L201.56,268.404 L201.56,268.08 L198.842,268.08 L198.842,268.404 C198.878,268.428 198.911,268.449 198.941,268.467 C198.971,268.485 198.986,268.53 198.986,268.602 C198.986,268.698 198.965,268.797 198.923,268.899 C198.881,269.001 198.824,269.136 198.752,269.304 L198.752,269.304 L196.07,275.154 C196.022,275.25 195.953,275.355 195.863,275.469 C195.773,275.583 195.656,275.652 195.512,275.676 L195.512,275.676 L195.512,276 L197.924,276 Z M201.524,272.688 L198.788,272.688 L200.066,269.664 L201.524,272.688 Z M208.94,276 L208.94,275.676 C208.712,275.676 208.598,275.586 208.598,275.406 L208.598,275.406 L208.598,273.39 L210.002,272.274 L212.216,274.974 C212.372,275.154 212.477,275.286 212.531,275.37 C212.585,275.454 212.612,275.52 212.612,275.568 C212.612,275.64 212.546,275.676 212.414,275.676 L212.414,275.676 L212.414,276 L215.078,276 L215.078,275.676 C214.91,275.628 214.742,275.511 214.574,275.325 C214.406,275.139 214.25,274.956 214.106,274.776 L214.106,274.776 L211.262,271.248 L214.268,268.818 C214.556,268.59 214.772,268.452 214.916,268.404 L214.916,268.404 L214.916,268.08 L211.946,268.08 L211.946,268.35 C212.006,268.35 212.069,268.368 212.135,268.404 C212.201,268.44 212.234,268.488 212.234,268.548 C212.234,268.596 212.12,268.719 211.892,268.917 C211.664,269.115 211.376,269.358 211.028,269.646 C210.68,269.934 210.29,270.249 209.858,270.591 C209.426,270.933 209.006,271.272 208.598,271.608 L208.598,271.608 L208.598,268.674 C208.598,268.494 208.712,268.404 208.94,268.404 L208.94,268.404 L208.94,268.08 L206.582,268.08 L206.582,268.404 C206.774,268.404 206.87,268.494 206.87,268.674 L206.87,268.674 L206.87,275.406 C206.87,275.586 206.774,275.676 206.582,275.676 L206.582,275.676 L206.582,276 L208.94,276 Z M221.468,276 L221.468,275.676 C221.24,275.676 221.126,275.586 221.126,275.406 L221.126,275.406 L221.126,272.706 L223.88,269.142 C224.012,268.974 224.165,268.809 224.339,268.647 C224.513,268.485 224.672,268.404 224.816,268.404 L224.816,268.404 L224.816,268.08 L222.062,268.08 L222.062,268.404 C222.122,268.404 222.182,268.416 222.242,268.44 C222.302,268.464 222.332,268.524 222.332,268.62 C222.332,268.692 222.305,268.767 222.251,268.845 C222.197,268.923 222.116,269.04 222.008,269.196 L222.008,269.196 L220.406,271.428 L218.588,269.052 C218.528,268.968 218.474,268.896 218.426,268.836 C218.378,268.776 218.354,268.71 218.354,268.638 C218.354,268.566 218.39,268.509 218.462,268.467 C218.534,268.425 218.6,268.404 218.66,268.404 L218.66,268.404 L218.66,268.08 L215.69,268.08 L215.69,268.404 C215.798,268.404 215.912,268.428 216.032,268.476 C216.152,268.524 216.254,268.602 216.338,268.71 L216.338,268.71 L219.398,272.634 L219.398,275.406 C219.398,275.586 219.29,275.676 219.074,275.676 L219.074,275.676 L219.074,276 L221.468,276 Z M106.097,294 L106.097,293.676 C106.025,293.676 105.962,293.655 105.908,293.613 C105.854,293.571 105.827,293.502 105.827,293.406 L105.827,293.406 L105.827,290.688 L110.651,290.688 L110.651,293.406 C110.651,293.502 110.624,293.571 110.57,293.613 C110.516,293.655 110.453,293.676 110.381,293.676 L110.381,293.676 L110.381,294 L112.649,294 L112.649,293.676 C112.577,293.676 112.514,293.655 112.46,293.613 C112.406,293.571 112.379,293.502 112.379,293.406 L112.379,293.406 L112.379,286.674 C112.379,286.578 112.406,286.509 112.46,286.467 C112.514,286.425 112.577,286.404 112.649,286.404 L112.649,286.404 L112.649,286.08 L110.381,286.08 L110.381,286.404 C110.453,286.404 110.516,286.425 110.57,286.467 C110.624,286.509 110.651,286.578 110.651,286.674 L110.651,286.674 L110.651,289.212 L105.827,289.212 L105.827,286.674 C105.827,286.578 105.854,286.509 105.908,286.467 C105.962,286.425 106.025,286.404 106.097,286.404 L106.097,286.404 L106.097,286.08 L103.829,286.08 L103.829,286.404 C103.901,286.404 103.964,286.425 104.018,286.467 C104.072,286.509 104.099,286.578 104.099,286.674 L104.099,286.674 L104.099,293.406 C104.099,293.502 104.072,293.571 104.018,293.613 C103.964,293.655 103.901,293.676 103.829,293.676 L103.829,293.676 L103.829,294 L106.097,294 Z M123.161,294.198 L123.161,292.308 L122.837,292.308 C122.837,292.416 122.789,292.503 122.693,292.569 C122.597,292.635 122.477,292.668 122.333,292.668 L122.333,292.668 L117.725,292.668 L117.725,290.544 L120.353,290.544 C120.593,290.544 120.779,290.559 120.911,290.589 C121.043,290.619 121.091,290.7 121.055,290.832 L121.055,290.832 L121.415,290.832 L121.415,288.924 L121.091,288.924 C121.091,289.056 121.043,289.137 120.947,289.167 C120.851,289.197 120.701,289.212 120.497,289.212 L120.497,289.212 L117.725,289.212 L117.725,287.412 L122.117,287.412 C122.489,287.412 122.675,287.526 122.675,287.754 L122.675,287.754 L122.999,287.754 L122.999,285.756 L122.675,285.756 C122.675,285.972 122.489,286.08 122.117,286.08 L122.117,286.08 L115.727,286.08 L115.727,286.404 C115.787,286.404 115.847,286.425 115.907,286.467 C115.967,286.509 115.997,286.578 115.997,286.674 L115.997,286.674 L115.997,293.406 C115.997,293.502 115.967,293.571 115.907,293.613 C115.847,293.655 115.787,293.676 115.727,293.676 L115.727,293.676 L115.727,294 L122.333,294 C122.477,294 122.597,294.006 122.693,294.018 C122.789,294.03 122.837,294.09 122.837,294.198 L122.837,294.198 L123.161,294.198 Z M126.941,294 L126.941,293.676 C126.833,293.676 126.749,293.664 126.689,293.64 C126.629,293.616 126.599,293.556 126.599,293.46 C126.599,293.4 126.614,293.331 126.644,293.253 C126.674,293.175 126.713,293.088 126.761,292.992 L126.761,292.992 L127.265,292.02 L131.117,292.02 L131.603,293.046 C131.639,293.142 131.669,293.22 131.693,293.28 C131.717,293.34 131.729,293.406 131.729,293.478 C131.729,293.574 131.696,293.64 131.63,293.676 C131.564,293.712 131.501,293.73 131.441,293.73 L131.441,293.73 L131.441,294 L133.997,294 L133.997,293.676 C133.913,293.652 133.835,293.616 133.763,293.568 C133.691,293.52 133.625,293.442 133.565,293.334 L133.565,293.334 L130.649,287.214 C130.589,287.082 130.532,286.965 130.478,286.863 C130.424,286.761 130.397,286.674 130.397,286.602 C130.397,286.518 130.418,286.47 130.46,286.458 C130.502,286.446 130.541,286.428 130.577,286.404 L130.577,286.404 L130.577,286.08 L127.859,286.08 L127.859,286.404 C127.895,286.428 127.928,286.449 127.958,286.467 C127.988,286.485 128.003,286.53 128.003,286.602 C128.003,286.698 127.982,286.797 127.94,286.899 C127.898,287.001 127.841,287.136 127.769,287.304 L127.769,287.304 L125.087,293.154 C125.039,293.25 124.97,293.355 124.88,293.469 C124.79,293.583 124.673,293.652 124.529,293.676 L124.529,293.676 L124.529,294 L126.941,294 Z M130.541,290.688 L127.805,290.688 L129.083,287.664 L130.541,290.688 Z M138.065,294 L138.065,293.676 C137.993,293.676 137.918,293.655 137.84,293.613 C137.762,293.571 137.723,293.502 137.723,293.406 L137.723,293.406 L137.723,290.832 L140.225,290.832 L141.647,292.956 C141.827,293.208 141.917,293.394 141.917,293.514 C141.917,293.622 141.839,293.676 141.683,293.676 L141.683,293.676 L141.683,294 L144.437,294 L144.437,293.676 C144.305,293.64 144.182,293.589 144.068,293.523 C143.954,293.457 143.849,293.358 143.753,293.226 L143.753,293.226 L141.989,290.652 C142.241,290.592 142.487,290.505 142.727,290.391 C142.967,290.277 143.186,290.127 143.384,289.941 C143.582,289.755 143.741,289.536 143.861,289.284 C143.981,289.032 144.041,288.744 144.041,288.42 C144.041,287.568 143.741,286.965 143.141,286.611 C142.541,286.257 141.707,286.08 140.639,286.08 L140.639,286.08 L135.671,286.08 L135.671,286.404 C135.887,286.404 135.995,286.494 135.995,286.674 L135.995,286.674 L135.995,293.406 C135.995,293.586 135.887,293.676 135.671,293.676 L135.671,293.676 L135.671,294 L138.065,294 Z M140.603,289.5 L137.759,289.5 L137.759,287.412 L140.603,287.412 C141.215,287.412 141.662,287.499 141.944,287.673 C142.226,287.847 142.367,288.084 142.367,288.384 C142.367,289.128 141.779,289.5 140.603,289.5 L140.603,289.5 Z M150.953,294 L150.953,293.676 C150.737,293.676 150.629,293.586 150.629,293.406 L150.629,293.406 L150.629,287.412 L152.969,287.412 C153.065,287.412 153.155,287.436 153.239,287.484 C153.323,287.532 153.365,287.61 153.365,287.718 L153.365,287.718 L153.689,287.718 L153.689,285.648 L153.365,285.648 C153.365,285.816 153.323,285.93 153.239,285.99 C153.155,286.05 153.065,286.08 152.969,286.08 L152.969,286.08 L146.561,286.08 C146.465,286.08 146.375,286.05 146.291,285.99 C146.207,285.93 146.165,285.816 146.165,285.648 L146.165,285.648 L145.841,285.648 L145.841,287.718 L146.165,287.718 C146.165,287.61 146.207,287.532 146.291,287.484 C146.375,287.436 146.465,287.412 146.561,287.412 L146.561,287.412 L148.901,287.412 L148.901,293.406 C148.901,293.502 148.871,293.571 148.811,293.613 C148.751,293.655 148.691,293.676 148.631,293.676 L148.631,293.676 L148.631,294 L150.953,294 Z M157.001,294.054 C157.349,294.054 157.649,293.937 157.901,293.703 C158.153,293.469 158.279,293.178 158.279,292.83 C158.279,292.482 158.153,292.182 157.901,291.93 C157.649,291.678 157.349,291.552 157.001,291.552 C156.653,291.552 156.353,291.678 156.101,291.93 C155.849,292.182 155.723,292.482 155.723,292.83 C155.723,293.178 155.849,293.469 156.101,293.703 C156.353,293.937 156.653,294.054 157.001,294.054 Z M58.19,312 L58.19,311.676 C57.962,311.676 57.848,311.61 57.848,311.478 C57.848,311.37 57.908,311.19 58.028,310.938 L58.028,310.938 L58.676,309.66 L63.068,309.66 L63.752,310.992 C63.848,311.184 63.896,311.34 63.896,311.46 C63.896,311.532 63.86,311.586 63.788,311.622 C63.716,311.658 63.656,311.676 63.608,311.676 L63.608,311.676 L63.608,312 L66.776,312 L66.776,311.676 C66.644,311.616 66.527,311.556 66.425,311.496 C66.323,311.436 66.242,311.34 66.182,311.208 L66.182,311.208 L62.438,303.882 C62.354,303.726 62.291,303.6 62.249,303.504 C62.207,303.408 62.186,303.312 62.186,303.216 C62.186,303.084 62.228,302.997 62.312,302.955 C62.396,302.913 62.48,302.88 62.564,302.856 L62.564,302.856 L62.564,302.532 L59.522,302.532 L59.522,302.856 C59.618,302.88 59.708,302.916 59.792,302.964 C59.876,303.012 59.918,303.096 59.918,303.216 C59.918,303.312 59.885,303.426 59.819,303.558 C59.753,303.69 59.678,303.834 59.594,303.99 L59.594,303.99 L56.264,310.992 C56.18,311.16 56.093,311.31 56.003,311.442 C55.913,311.574 55.79,311.652 55.634,311.676 L55.634,311.676 L55.634,312 L58.19,312 Z M62.42,308.328 L59.216,308.328 L60.908,304.98 L62.42,308.328 Z M73.544,312 C74.252,312 74.852,311.886 75.344,311.658 C75.836,311.43 76.238,311.133 76.55,310.767 C76.862,310.401 77.09,309.981 77.234,309.507 C77.378,309.033 77.45,308.544 77.45,308.04 C77.45,307.536 77.375,307.047 77.225,306.573 C77.075,306.099 76.841,305.679 76.523,305.313 C76.205,304.947 75.794,304.65 75.29,304.422 C74.786,304.194 74.18,304.08 73.472,304.08 L73.472,304.08 L68.468,304.08 L68.468,304.404 C68.744,304.404 68.882,304.494 68.882,304.674 L68.882,304.674 L68.882,311.406 C68.882,311.586 68.744,311.676 68.468,311.676 L68.468,311.676 L68.468,312 L73.544,312 Z M72.95,310.668 L70.61,310.668 L70.61,305.412 L72.95,305.412 C73.322,305.412 73.676,305.433 74.012,305.475 C74.348,305.517 74.642,305.625 74.894,305.799 C75.146,305.973 75.347,306.231 75.497,306.573 C75.647,306.915 75.722,307.386 75.722,307.986 C75.722,308.586 75.647,309.063 75.497,309.417 C75.347,309.771 75.146,310.041 74.894,310.227 C74.642,310.413 74.348,310.533 74.012,310.587 C73.676,310.641 73.322,310.668 72.95,310.668 L72.95,310.668 Z M84.542,312 C85.25,312 85.85,311.886 86.342,311.658 C86.834,311.43 87.236,311.133 87.548,310.767 C87.86,310.401 88.088,309.981 88.232,309.507 C88.376,309.033 88.448,308.544 88.448,308.04 C88.448,307.536 88.373,307.047 88.223,306.573 C88.073,306.099 87.839,305.679 87.521,305.313 C87.203,304.947 86.792,304.65 86.288,304.422 C85.784,304.194 85.178,304.08 84.47,304.08 L84.47,304.08 L79.466,304.08 L79.466,304.404 C79.742,304.404 79.88,304.494 79.88,304.674 L79.88,304.674 L79.88,311.406 C79.88,311.586 79.742,311.676 79.466,311.676 L79.466,311.676 L79.466,312 L84.542,312 Z M83.948,310.668 L81.608,310.668 L81.608,305.412 L83.948,305.412 C84.32,305.412 84.674,305.433 85.01,305.475 C85.346,305.517 85.64,305.625 85.892,305.799 C86.144,305.973 86.345,306.231 86.495,306.573 C86.645,306.915 86.72,307.386 86.72,307.986 C86.72,308.586 86.645,309.063 86.495,309.417 C86.345,309.771 86.144,310.041 85.892,310.227 C85.64,310.413 85.346,310.533 85.01,310.587 C84.674,310.641 84.32,310.668 83.948,310.668 L83.948,310.668 Z M100.436,312 L100.436,311.676 C100.22,311.676 100.112,311.586 100.112,311.406 L100.112,311.406 L100.112,305.412 L102.452,305.412 C102.548,305.412 102.638,305.436 102.722,305.484 C102.806,305.532 102.848,305.61 102.848,305.718 L102.848,305.718 L103.172,305.718 L103.172,303.648 L102.848,303.648 C102.848,303.816 102.806,303.93 102.722,303.99 C102.638,304.05 102.548,304.08 102.452,304.08 L102.452,304.08 L96.044,304.08 C95.948,304.08 95.858,304.05 95.774,303.99 C95.69,303.93 95.648,303.816 95.648,303.648 L95.648,303.648 L95.324,303.648 L95.324,305.718 L95.648,305.718 C95.648,305.61 95.69,305.532 95.774,305.484 C95.858,305.436 95.948,305.412 96.044,305.412 L96.044,305.412 L98.384,305.412 L98.384,311.406 C98.384,311.502 98.354,311.571 98.294,311.613 C98.234,311.655 98.174,311.676 98.114,311.676 L98.114,311.676 L98.114,312 L100.436,312 Z M107.6,312 L107.6,311.676 C107.528,311.676 107.465,311.655 107.411,311.613 C107.357,311.571 107.33,311.502 107.33,311.406 L107.33,311.406 L107.33,308.688 L112.154,308.688 L112.154,311.406 C112.154,311.502 112.127,311.571 112.073,311.613 C112.019,311.655 111.956,311.676 111.884,311.676 L111.884,311.676 L111.884,312 L114.152,312 L114.152,311.676 C114.08,311.676 114.017,311.655 113.963,311.613 C113.909,311.571 113.882,311.502 113.882,311.406 L113.882,311.406 L113.882,304.674 C113.882,304.578 113.909,304.509 113.963,304.467 C114.017,304.425 114.08,304.404 114.152,304.404 L114.152,304.404 L114.152,304.08 L111.884,304.08 L111.884,304.404 C111.956,304.404 112.019,304.425 112.073,304.467 C112.127,304.509 112.154,304.578 112.154,304.674 L112.154,304.674 L112.154,307.212 L107.33,307.212 L107.33,304.674 C107.33,304.578 107.357,304.509 107.411,304.467 C107.465,304.425 107.528,304.404 107.6,304.404 L107.6,304.404 L107.6,304.08 L105.332,304.08 L105.332,304.404 C105.404,304.404 105.467,304.425 105.521,304.467 C105.575,304.509 105.602,304.578 105.602,304.674 L105.602,304.674 L105.602,311.406 C105.602,311.502 105.575,311.571 105.521,311.613 C105.467,311.655 105.404,311.676 105.332,311.676 L105.332,311.676 L105.332,312 L107.6,312 Z M120.11,312 L120.11,311.676 C119.774,311.676 119.606,311.586 119.606,311.406 L119.606,311.406 L119.606,304.674 C119.606,304.494 119.774,304.404 120.11,304.404 L120.11,304.404 L120.11,304.08 L117.374,304.08 L117.374,304.404 C117.566,304.404 117.698,304.425 117.77,304.467 C117.842,304.509 117.878,304.578 117.878,304.674 L117.878,304.674 L117.878,311.406 C117.878,311.502 117.842,311.571 117.77,311.613 C117.698,311.655 117.566,311.676 117.374,311.676 L117.374,311.676 L117.374,312 L120.11,312 Z M126.608,312.054 C127.016,312.054 127.451,312.024 127.913,311.964 C128.375,311.904 128.798,311.778 129.182,311.586 C129.566,311.394 129.887,311.13 130.145,310.794 C130.403,310.458 130.532,310.026 130.532,309.498 C130.532,308.97 130.385,308.556 130.091,308.256 C129.797,307.956 129.428,307.728 128.984,307.572 C128.54,307.416 128.06,307.305 127.544,307.239 C127.028,307.173 126.548,307.107 126.104,307.041 C125.66,306.975 125.291,306.885 124.997,306.771 C124.703,306.657 124.556,306.468 124.556,306.204 C124.556,306.036 124.604,305.895 124.7,305.781 C124.796,305.667 124.928,305.574 125.096,305.502 C125.264,305.43 125.456,305.379 125.672,305.349 C125.888,305.319 126.116,305.304 126.356,305.304 C126.98,305.304 127.544,305.376 128.048,305.52 C128.552,305.664 128.924,305.838 129.164,306.042 C129.26,306.114 129.314,306.186 129.326,306.258 L129.326,306.258 L129.362,306.474 L129.686,306.582 L130.586,304.89 L130.388,304.692 C130.316,304.728 130.256,304.761 130.208,304.791 C130.16,304.821 130.088,304.836 129.992,304.836 C129.908,304.836 129.779,304.791 129.605,304.701 C129.431,304.611 129.206,304.512 128.93,304.404 C128.654,304.296 128.315,304.197 127.913,304.107 C127.511,304.017 127.028,303.972 126.464,303.972 C125.312,303.972 124.418,304.2 123.782,304.656 C123.146,305.112 122.828,305.724 122.828,306.492 C122.828,307.008 122.975,307.407 123.269,307.689 C123.563,307.971 123.932,308.187 124.376,308.337 C124.82,308.487 125.3,308.595 125.816,308.661 C126.332,308.727 126.812,308.793 127.256,308.859 C127.7,308.925 128.069,309.018 128.363,309.138 C128.657,309.258 128.804,309.45 128.804,309.714 C128.804,309.942 128.72,310.125 128.552,310.263 C128.384,310.401 128.18,310.509 127.94,310.587 C127.7,310.665 127.457,310.716 127.211,310.74 C126.965,310.764 126.758,310.776 126.59,310.776 C126.41,310.776 126.161,310.746 125.843,310.686 C125.525,310.626 125.207,310.545 124.889,310.443 C124.571,310.341 124.298,310.215 124.07,310.065 C123.842,309.915 123.728,309.75 123.728,309.57 C123.728,309.51 123.731,309.453 123.737,309.399 C123.743,309.345 123.746,309.294 123.746,309.246 L123.746,309.246 L123.404,309.156 L122.576,311.172 L122.828,311.352 C122.888,311.28 122.96,311.244 123.044,311.244 C123.092,311.244 123.23,311.289 123.458,311.379 C123.686,311.469 123.965,311.565 124.295,311.667 C124.625,311.769 124.991,311.859 125.393,311.937 C125.795,312.015 126.2,312.054 126.608,312.054 Z M142.934,312 L142.934,311.676 C142.718,311.676 142.61,311.586 142.61,311.406 L142.61,311.406 L142.61,305.412 L144.95,305.412 C145.046,305.412 145.136,305.436 145.22,305.484 C145.304,305.532 145.346,305.61 145.346,305.718 L145.346,305.718 L145.67,305.718 L145.67,303.648 L145.346,303.648 C145.346,303.816 145.304,303.93 145.22,303.99 C145.136,304.05 145.046,304.08 144.95,304.08 L144.95,304.08 L138.542,304.08 C138.446,304.08 138.356,304.05 138.272,303.99 C138.188,303.93 138.146,303.816 138.146,303.648 L138.146,303.648 L137.822,303.648 L137.822,305.718 L138.146,305.718 C138.146,305.61 138.188,305.532 138.272,305.484 C138.356,305.436 138.446,305.412 138.542,305.412 L138.542,305.412 L140.882,305.412 L140.882,311.406 C140.882,311.502 140.852,311.571 140.792,311.613 C140.732,311.655 140.672,311.676 140.612,311.676 L140.612,311.676 L140.612,312 L142.934,312 Z M151.736,312.054 C152.396,312.054 153.017,311.979 153.599,311.829 C154.181,311.679 154.688,311.436 155.12,311.1 C155.552,310.764 155.894,310.341 156.146,309.831 C156.398,309.321 156.524,308.724 156.524,308.04 C156.524,307.356 156.398,306.759 156.146,306.249 C155.894,305.739 155.552,305.316 155.12,304.98 C154.688,304.644 154.181,304.392 153.599,304.224 C153.017,304.056 152.396,303.972 151.736,303.972 C151.076,303.972 150.455,304.056 149.873,304.224 C149.291,304.392 148.784,304.644 148.352,304.98 C147.92,305.316 147.578,305.739 147.326,306.249 C147.074,306.759 146.948,307.356 146.948,308.04 C146.948,308.724 147.074,309.321 147.326,309.831 C147.578,310.341 147.92,310.764 148.352,311.1 C148.784,311.436 149.291,311.679 149.873,311.829 C150.455,311.979 151.076,312.054 151.736,312.054 Z M151.736,310.776 C151.352,310.776 150.977,310.713 150.611,310.587 C150.245,310.461 149.918,310.281 149.63,310.047 C149.342,309.813 149.111,309.528 148.937,309.192 C148.763,308.856 148.676,308.472 148.676,308.04 C148.676,307.608 148.763,307.224 148.937,306.888 C149.111,306.552 149.342,306.267 149.63,306.033 C149.918,305.799 150.245,305.619 150.611,305.493 C150.977,305.367 151.352,305.304 151.736,305.304 C152.12,305.304 152.495,305.367 152.861,305.493 C153.227,305.619 153.554,305.799 153.842,306.033 C154.13,306.267 154.361,306.552 154.535,306.888 C154.709,307.224 154.796,307.608 154.796,308.04 C154.796,308.472 154.709,308.856 154.535,309.192 C154.361,309.528 154.13,309.813 153.842,310.047 C153.554,310.281 153.227,310.461 152.861,310.587 C152.495,310.713 152.12,310.776 151.736,310.776 Z M168.944,312 L168.944,311.676 C168.716,311.676 168.602,311.586 168.602,311.406 L168.602,311.406 L168.602,308.706 L171.356,305.142 C171.488,304.974 171.641,304.809 171.815,304.647 C171.989,304.485 172.148,304.404 172.292,304.404 L172.292,304.404 L172.292,304.08 L169.538,304.08 L169.538,304.404 C169.598,304.404 169.658,304.416 169.718,304.44 C169.778,304.464 169.808,304.524 169.808,304.62 C169.808,304.692 169.781,304.767 169.727,304.845 C169.673,304.923 169.592,305.04 169.484,305.196 L169.484,305.196 L167.882,307.428 L166.064,305.052 C166.004,304.968 165.95,304.896 165.902,304.836 C165.854,304.776 165.83,304.71 165.83,304.638 C165.83,304.566 165.866,304.509 165.938,304.467 C166.01,304.425 166.076,304.404 166.136,304.404 L166.136,304.404 L166.136,304.08 L163.166,304.08 L163.166,304.404 C163.274,304.404 163.388,304.428 163.508,304.476 C163.628,304.524 163.73,304.602 163.814,304.71 L163.814,304.71 L166.874,308.634 L166.874,311.406 C166.874,311.586 166.766,311.676 166.55,311.676 L166.55,311.676 L166.55,312 L168.944,312 Z M178.232,312.054 C178.892,312.054 179.513,311.979 180.095,311.829 C180.677,311.679 181.184,311.436 181.616,311.1 C182.048,310.764 182.39,310.341 182.642,309.831 C182.894,309.321 183.02,308.724 183.02,308.04 C183.02,307.356 182.894,306.759 182.642,306.249 C182.39,305.739 182.048,305.316 181.616,304.98 C181.184,304.644 180.677,304.392 180.095,304.224 C179.513,304.056 178.892,303.972 178.232,303.972 C177.572,303.972 176.951,304.056 176.369,304.224 C175.787,304.392 175.28,304.644 174.848,304.98 C174.416,305.316 174.074,305.739 173.822,306.249 C173.57,306.759 173.444,307.356 173.444,308.04 C173.444,308.724 173.57,309.321 173.822,309.831 C174.074,310.341 174.416,310.764 174.848,311.1 C175.28,311.436 175.787,311.679 176.369,311.829 C176.951,311.979 177.572,312.054 178.232,312.054 Z M178.232,310.776 C177.848,310.776 177.473,310.713 177.107,310.587 C176.741,310.461 176.414,310.281 176.126,310.047 C175.838,309.813 175.607,309.528 175.433,309.192 C175.259,308.856 175.172,308.472 175.172,308.04 C175.172,307.608 175.259,307.224 175.433,306.888 C175.607,306.552 175.838,306.267 176.126,306.033 C176.414,305.799 176.741,305.619 177.107,305.493 C177.473,305.367 177.848,305.304 178.232,305.304 C178.616,305.304 178.991,305.367 179.357,305.493 C179.723,305.619 180.05,305.799 180.338,306.033 C180.626,306.267 180.857,306.552 181.031,306.888 C181.205,307.224 181.292,307.608 181.292,308.04 C181.292,308.472 181.205,308.856 181.031,309.192 C180.857,309.528 180.626,309.813 180.338,310.047 C180.05,310.281 179.723,310.461 179.357,310.587 C178.991,310.713 178.616,310.776 178.232,310.776 Z M189.806,312.054 C190.526,312.054 191.153,311.979 191.687,311.829 C192.221,311.679 192.659,311.472 193.001,311.208 C193.343,310.944 193.598,310.641 193.766,310.299 C193.934,309.957 194.018,309.6 194.018,309.228 L194.018,309.228 L194.018,304.674 C194.018,304.494 194.15,304.404 194.414,304.404 L194.414,304.404 L194.414,304.08 L191.912,304.08 L191.912,304.404 C192.212,304.404 192.362,304.494 192.362,304.674 L192.362,304.674 L192.362,308.796 C192.362,309.372 192.152,309.834 191.732,310.182 C191.312,310.53 190.67,310.704 189.806,310.704 C188.942,310.704 188.3,310.53 187.88,310.182 C187.46,309.834 187.25,309.372 187.25,308.796 L187.25,308.796 L187.25,304.674 C187.25,304.494 187.382,304.404 187.646,304.404 L187.646,304.404 L187.646,304.08 L185.072,304.08 L185.072,304.404 C185.276,304.404 185.414,304.425 185.486,304.467 C185.558,304.509 185.594,304.578 185.594,304.674 L185.594,304.674 L185.594,309.228 C185.594,309.6 185.678,309.957 185.846,310.299 C186.014,310.641 186.269,310.944 186.611,311.208 C186.953,311.472 187.391,311.679 187.925,311.829 C188.459,311.979 189.086,312.054 189.806,312.054 Z M199.544,312 L199.544,311.676 C199.472,311.676 199.397,311.655 199.319,311.613 C199.241,311.571 199.202,311.502 199.202,311.406 L199.202,311.406 L199.202,308.832 L201.704,308.832 L203.126,310.956 C203.306,311.208 203.396,311.394 203.396,311.514 C203.396,311.622 203.318,311.676 203.162,311.676 L203.162,311.676 L203.162,312 L205.916,312 L205.916,311.676 C205.784,311.64 205.661,311.589 205.547,311.523 C205.433,311.457 205.328,311.358 205.232,311.226 L205.232,311.226 L203.468,308.652 C203.72,308.592 203.966,308.505 204.206,308.391 C204.446,308.277 204.665,308.127 204.863,307.941 C205.061,307.755 205.22,307.536 205.34,307.284 C205.46,307.032 205.52,306.744 205.52,306.42 C205.52,305.568 205.22,304.965 204.62,304.611 C204.02,304.257 203.186,304.08 202.118,304.08 L202.118,304.08 L197.15,304.08 L197.15,304.404 C197.366,304.404 197.474,304.494 197.474,304.674 L197.474,304.674 L197.474,311.406 C197.474,311.586 197.366,311.676 197.15,311.676 L197.15,311.676 L197.15,312 L199.544,312 Z M202.082,307.5 L199.238,307.5 L199.238,305.412 L202.082,305.412 C202.694,305.412 203.141,305.499 203.423,305.673 C203.705,305.847 203.846,306.084 203.846,306.384 C203.846,307.128 203.258,307.5 202.082,307.5 L202.082,307.5 Z M74.354,330.054 C74.762,330.054 75.197,330.024 75.659,329.964 C76.121,329.904 76.544,329.778 76.928,329.586 C77.312,329.394 77.633,329.13 77.891,328.794 C78.149,328.458 78.278,328.026 78.278,327.498 C78.278,326.97 78.131,326.556 77.837,326.256 C77.543,325.956 77.174,325.728 76.73,325.572 C76.286,325.416 75.806,325.305 75.29,325.239 C74.774,325.173 74.294,325.107 73.85,325.041 C73.406,324.975 73.037,324.885 72.743,324.771 C72.449,324.657 72.302,324.468 72.302,324.204 C72.302,324.036 72.35,323.895 72.446,323.781 C72.542,323.667 72.674,323.574 72.842,323.502 C73.01,323.43 73.202,323.379 73.418,323.349 C73.634,323.319 73.862,323.304 74.102,323.304 C74.726,323.304 75.29,323.376 75.794,323.52 C76.298,323.664 76.67,323.838 76.91,324.042 C77.006,324.114 77.06,324.186 77.072,324.258 L77.072,324.258 L77.108,324.474 L77.432,324.582 L78.332,322.89 L78.134,322.692 C78.062,322.728 78.002,322.761 77.954,322.791 C77.906,322.821 77.834,322.836 77.738,322.836 C77.654,322.836 77.525,322.791 77.351,322.701 C77.177,322.611 76.952,322.512 76.676,322.404 C76.4,322.296 76.061,322.197 75.659,322.107 C75.257,322.017 74.774,321.972 74.21,321.972 C73.058,321.972 72.164,322.2 71.528,322.656 C70.892,323.112 70.574,323.724 70.574,324.492 C70.574,325.008 70.721,325.407 71.015,325.689 C71.309,325.971 71.678,326.187 72.122,326.337 C72.566,326.487 73.046,326.595 73.562,326.661 C74.078,326.727 74.558,326.793 75.002,326.859 C75.446,326.925 75.815,327.018 76.109,327.138 C76.403,327.258 76.55,327.45 76.55,327.714 C76.55,327.942 76.466,328.125 76.298,328.263 C76.13,328.401 75.926,328.509 75.686,328.587 C75.446,328.665 75.203,328.716 74.957,328.74 C74.711,328.764 74.504,328.776 74.336,328.776 C74.156,328.776 73.907,328.746 73.589,328.686 C73.271,328.626 72.953,328.545 72.635,328.443 C72.317,328.341 72.044,328.215 71.816,328.065 C71.588,327.915 71.474,327.75 71.474,327.57 C71.474,327.51 71.477,327.453 71.483,327.399 C71.489,327.345 71.492,327.294 71.492,327.246 L71.492,327.246 L71.15,327.156 L70.322,329.172 L70.574,329.352 C70.634,329.28 70.706,329.244 70.79,329.244 C70.838,329.244 70.976,329.289 71.204,329.379 C71.432,329.469 71.711,329.565 72.041,329.667 C72.371,329.769 72.737,329.859 73.139,329.937 C73.541,330.015 73.946,330.054 74.354,330.054 Z M85.712,330 L85.712,329.676 C85.484,329.676 85.37,329.586 85.37,329.406 L85.37,329.406 L85.37,326.706 L88.124,323.142 C88.256,322.974 88.409,322.809 88.583,322.647 C88.757,322.485 88.916,322.404 89.06,322.404 L89.06,322.404 L89.06,322.08 L86.306,322.08 L86.306,322.404 C86.366,322.404 86.426,322.416 86.486,322.44 C86.546,322.464 86.576,322.524 86.576,322.62 C86.576,322.692 86.549,322.767 86.495,322.845 C86.441,322.923 86.36,323.04 86.252,323.196 L86.252,323.196 L84.65,325.428 L82.832,323.052 C82.772,322.968 82.718,322.896 82.67,322.836 C82.622,322.776 82.598,322.71 82.598,322.638 C82.598,322.566 82.634,322.509 82.706,322.467 C82.778,322.425 82.844,322.404 82.904,322.404 L82.904,322.404 L82.904,322.08 L79.934,322.08 L79.934,322.404 C80.042,322.404 80.156,322.428 80.276,322.476 C80.396,322.524 80.498,322.602 80.582,322.71 L80.582,322.71 L83.642,326.634 L83.642,329.406 C83.642,329.586 83.534,329.676 83.318,329.676 L83.318,329.676 L83.318,330 L85.712,330 Z M93.218,330 L93.218,329.676 C93.014,329.676 92.912,329.586 92.912,329.406 L92.912,329.406 L92.912,324.348 L92.93,324.348 L95.828,330 L95.972,330 L99.032,324.348 L99.068,324.348 L99.068,329.406 C99.104,329.586 98.996,329.676 98.744,329.676 L98.744,329.676 L98.744,330 L100.832,330 L100.832,329.676 C100.772,329.676 100.715,329.655 100.661,329.613 C100.607,329.571 100.58,329.502 100.58,329.406 L100.58,329.406 L100.58,322.638 C100.58,322.542 100.607,322.479 100.661,322.449 C100.715,322.419 100.772,322.404 100.832,322.404 L100.832,322.404 L100.832,322.08 L98.294,322.08 L98.294,322.404 C98.39,322.404 98.438,322.458 98.438,322.566 C98.438,322.602 98.414,322.665 98.366,322.755 C98.318,322.845 98.252,322.962 98.168,323.106 L98.168,323.106 L95.954,327.138 L93.758,323.088 C93.674,322.944 93.611,322.833 93.569,322.755 C93.527,322.677 93.506,322.614 93.506,322.566 C93.506,322.458 93.566,322.404 93.686,322.404 L93.686,322.404 L93.686,322.08 L91.184,322.08 L91.184,322.404 C91.268,322.404 91.325,322.422 91.355,322.458 C91.385,322.494 91.4,322.596 91.4,322.764 L91.4,322.764 L91.4,329.352 C91.4,329.484 91.379,329.568 91.337,329.604 C91.295,329.64 91.244,329.664 91.184,329.676 L91.184,329.676 L91.184,330 L93.218,330 Z M106.268,330 L106.268,329.676 C106.016,329.676 105.89,329.586 105.89,329.406 L105.89,329.406 L105.89,326.706 L108.95,326.706 C109.922,326.706 110.651,326.541 111.137,326.211 C111.623,325.881 111.866,325.284 111.866,324.42 C111.866,323.556 111.623,322.95 111.137,322.602 C110.651,322.254 109.922,322.08 108.95,322.08 L108.95,322.08 L103.712,322.08 L103.712,322.404 C104.012,322.404 104.162,322.494 104.162,322.674 L104.162,322.674 L104.162,329.406 C104.162,329.586 104.012,329.676 103.712,329.676 L103.712,329.676 L103.712,330 L106.268,330 Z M108.914,325.374 L105.89,325.374 L105.89,323.412 L108.914,323.412 C109.262,323.412 109.553,323.487 109.787,323.637 C110.021,323.787 110.138,324.048 110.138,324.42 C110.138,324.804 110.021,325.059 109.787,325.185 C109.553,325.311 109.262,325.374 108.914,325.374 L108.914,325.374 Z M118.202,330 L118.202,329.676 C117.986,329.676 117.878,329.586 117.878,329.406 L117.878,329.406 L117.878,323.412 L120.218,323.412 C120.314,323.412 120.404,323.436 120.488,323.484 C120.572,323.532 120.614,323.61 120.614,323.718 L120.614,323.718 L120.938,323.718 L120.938,321.648 L120.614,321.648 C120.614,321.816 120.572,321.93 120.488,321.99 C120.404,322.05 120.314,322.08 120.218,322.08 L120.218,322.08 L113.81,322.08 C113.714,322.08 113.624,322.05 113.54,321.99 C113.456,321.93 113.414,321.816 113.414,321.648 L113.414,321.648 L113.09,321.648 L113.09,323.718 L113.414,323.718 C113.414,323.61 113.456,323.532 113.54,323.484 C113.624,323.436 113.714,323.412 113.81,323.412 L113.81,323.412 L116.15,323.412 L116.15,329.406 C116.15,329.502 116.12,329.571 116.06,329.613 C116,329.655 115.94,329.676 115.88,329.676 L115.88,329.676 L115.88,330 L118.202,330 Z M127.004,330.054 C127.664,330.054 128.285,329.979 128.867,329.829 C129.449,329.679 129.956,329.436 130.388,329.1 C130.82,328.764 131.162,328.341 131.414,327.831 C131.666,327.321 131.792,326.724 131.792,326.04 C131.792,325.356 131.666,324.759 131.414,324.249 C131.162,323.739 130.82,323.316 130.388,322.98 C129.956,322.644 129.449,322.392 128.867,322.224 C128.285,322.056 127.664,321.972 127.004,321.972 C126.344,321.972 125.723,322.056 125.141,322.224 C124.559,322.392 124.052,322.644 123.62,322.98 C123.188,323.316 122.846,323.739 122.594,324.249 C122.342,324.759 122.216,325.356 122.216,326.04 C122.216,326.724 122.342,327.321 122.594,327.831 C122.846,328.341 123.188,328.764 123.62,329.1 C124.052,329.436 124.559,329.679 125.141,329.829 C125.723,329.979 126.344,330.054 127.004,330.054 Z M127.004,328.776 C126.62,328.776 126.245,328.713 125.879,328.587 C125.513,328.461 125.186,328.281 124.898,328.047 C124.61,327.813 124.379,327.528 124.205,327.192 C124.031,326.856 123.944,326.472 123.944,326.04 C123.944,325.608 124.031,325.224 124.205,324.888 C124.379,324.552 124.61,324.267 124.898,324.033 C125.186,323.799 125.513,323.619 125.879,323.493 C126.245,323.367 126.62,323.304 127.004,323.304 C127.388,323.304 127.763,323.367 128.129,323.493 C128.495,323.619 128.822,323.799 129.11,324.033 C129.398,324.267 129.629,324.552 129.803,324.888 C129.977,325.224 130.064,325.608 130.064,326.04 C130.064,326.472 129.977,326.856 129.803,327.192 C129.629,327.528 129.398,327.813 129.11,328.047 C128.822,328.281 128.495,328.461 128.129,328.587 C127.763,328.713 127.388,328.776 127.004,328.776 Z M136.22,330 L136.22,329.676 C136.016,329.676 135.914,329.586 135.914,329.406 L135.914,329.406 L135.914,324.348 L135.932,324.348 L138.83,330 L138.974,330 L142.034,324.348 L142.07,324.348 L142.07,329.406 C142.106,329.586 141.998,329.676 141.746,329.676 L141.746,329.676 L141.746,330 L143.834,330 L143.834,329.676 C143.774,329.676 143.717,329.655 143.663,329.613 C143.609,329.571 143.582,329.502 143.582,329.406 L143.582,329.406 L143.582,322.638 C143.582,322.542 143.609,322.479 143.663,322.449 C143.717,322.419 143.774,322.404 143.834,322.404 L143.834,322.404 L143.834,322.08 L141.296,322.08 L141.296,322.404 C141.392,322.404 141.44,322.458 141.44,322.566 C141.44,322.602 141.416,322.665 141.368,322.755 C141.32,322.845 141.254,322.962 141.17,323.106 L141.17,323.106 L138.956,327.138 L136.76,323.088 C136.676,322.944 136.613,322.833 136.571,322.755 C136.529,322.677 136.508,322.614 136.508,322.566 C136.508,322.458 136.568,322.404 136.688,322.404 L136.688,322.404 L136.688,322.08 L134.186,322.08 L134.186,322.404 C134.27,322.404 134.327,322.422 134.357,322.458 C134.387,322.494 134.402,322.596 134.402,322.764 L134.402,322.764 L134.402,329.352 C134.402,329.484 134.381,329.568 134.339,329.604 C134.297,329.64 134.246,329.664 134.186,329.676 L134.186,329.676 L134.186,330 L136.22,330 Z M154.76,330 L154.76,329.676 C154.508,329.676 154.382,329.586 154.382,329.406 L154.382,329.406 L154.382,326.706 L157.442,326.706 C158.414,326.706 159.143,326.541 159.629,326.211 C160.115,325.881 160.358,325.284 160.358,324.42 C160.358,323.556 160.115,322.95 159.629,322.602 C159.143,322.254 158.414,322.08 157.442,322.08 L157.442,322.08 L152.204,322.08 L152.204,322.404 C152.504,322.404 152.654,322.494 152.654,322.674 L152.654,322.674 L152.654,329.406 C152.654,329.586 152.504,329.676 152.204,329.676 L152.204,329.676 L152.204,330 L154.76,330 Z M157.406,325.374 L154.382,325.374 L154.382,323.412 L157.406,323.412 C157.754,323.412 158.045,323.487 158.279,323.637 C158.513,323.787 158.63,324.048 158.63,324.42 C158.63,324.804 158.513,325.059 158.279,325.185 C158.045,325.311 157.754,325.374 157.406,325.374 L157.406,325.374 Z M165.362,330 L165.362,329.676 C165.026,329.676 164.858,329.586 164.858,329.406 L164.858,329.406 L164.858,322.674 C164.858,322.494 165.026,322.404 165.362,322.404 L165.362,322.404 L165.362,322.08 L162.626,322.08 L162.626,322.404 C162.818,322.404 162.95,322.425 163.022,322.467 C163.094,322.509 163.13,322.578 163.13,322.674 L163.13,322.674 L163.13,329.406 C163.13,329.502 163.094,329.571 163.022,329.613 C162.95,329.655 162.818,329.676 162.626,329.676 L162.626,329.676 L162.626,330 L165.362,330 Z M176.252,330.18 L176.252,328.29 L175.928,328.29 C175.928,328.41 175.88,328.503 175.784,328.569 C175.688,328.635 175.568,328.668 175.424,328.668 L175.424,328.668 L170.564,328.668 L170.564,322.674 C170.564,322.494 170.702,322.404 170.978,322.404 L170.978,322.404 L170.978,322.08 L168.368,322.08 L168.368,322.404 C168.68,322.404 168.836,322.494 168.836,322.674 L168.836,322.674 L168.836,329.406 C168.836,329.586 168.68,329.676 168.368,329.676 L168.368,329.676 L168.368,330 L175.424,330 C175.568,330 175.688,330.006 175.784,330.018 C175.88,330.03 175.928,330.084 175.928,330.18 L175.928,330.18 L176.252,330.18 Z M185.918,330.198 L185.918,328.308 L185.594,328.308 C185.594,328.416 185.546,328.503 185.45,328.569 C185.354,328.635 185.234,328.668 185.09,328.668 L185.09,328.668 L180.482,328.668 L180.482,326.544 L183.11,326.544 C183.35,326.544 183.536,326.559 183.668,326.589 C183.8,326.619 183.848,326.7 183.812,326.832 L183.812,326.832 L184.172,326.832 L184.172,324.924 L183.848,324.924 C183.848,325.056 183.8,325.137 183.704,325.167 C183.608,325.197 183.458,325.212 183.254,325.212 L183.254,325.212 L180.482,325.212 L180.482,323.412 L184.874,323.412 C185.246,323.412 185.432,323.526 185.432,323.754 L185.432,323.754 L185.756,323.754 L185.756,321.756 L185.432,321.756 C185.432,321.972 185.246,322.08 184.874,322.08 L184.874,322.08 L178.484,322.08 L178.484,322.404 C178.544,322.404 178.604,322.425 178.664,322.467 C178.724,322.509 178.754,322.578 178.754,322.674 L178.754,322.674 L178.754,329.406 C178.754,329.502 178.724,329.571 178.664,329.613 C178.604,329.655 178.544,329.676 178.484,329.676 L178.484,329.676 L178.484,330 L185.09,330 C185.234,330 185.354,330.006 185.45,330.018 C185.546,330.03 185.594,330.09 185.594,330.198 L185.594,330.198 L185.918,330.198 Z M189.752,330.054 C190.1,330.054 190.4,329.937 190.652,329.703 C190.904,329.469 191.03,329.178 191.03,328.83 C191.03,328.482 190.904,328.182 190.652,327.93 C190.4,327.678 190.1,327.552 189.752,327.552 C189.404,327.552 189.104,327.678 188.852,327.93 C188.6,328.182 188.474,328.482 188.474,328.83 C188.474,329.178 188.6,329.469 188.852,329.703 C189.104,329.937 189.404,330.054 189.752,330.054 Z" id="Mypoorachybreakyheart.Addthistoyoursymptompile." fill="#000000" fill-rule="nonzero"></path>
    </g>
</svg>