<?xml version="1.0" encoding="UTF-8"?>
<svg width="262px" height="360px" viewBox="0 0 262 360" version="1.1" xmlns="http://www.w3.org/2000/svg" xmlns:xlink="http://www.w3.org/1999/xlink">
    <title>Aches &amp; Pains 1</title>
    <g id="Aches-&amp;-Pains-1" stroke="none" stroke-width="1" fill="none" fill-rule="evenodd">
        <g id="Group" transform="translate(9.000000, 9.000000)" fill="#FFFFFF" stroke="#000000" stroke-width="3">
            <g id="Rectangle">
                <rect x="1.5" y="1.5" width="239" height="337" rx="8"></rect>
            </g>
        </g>
        <path d="M216.124,30 L216.124,29.712 C215.964,29.712 215.82,29.668 215.692,29.58 C215.564,29.492 215.5,29.312 215.5,29.04 L215.5,29.04 L215.5,18.048 C215.5,17.888 215.564,17.768 215.692,17.688 C215.82,17.608 215.98,17.552 216.172,17.52 L216.172,17.52 L216.172,17.232 L212.284,17.232 L212.284,17.52 C212.46,17.552 212.6,17.6 212.704,17.664 C212.808,17.728 212.86,17.872 212.86,18.096 C212.86,18.336 212.768,18.54 212.584,18.708 C212.4,18.876 212.172,18.96 211.9,18.96 C211.772,18.96 211.636,18.932 211.492,18.876 C211.348,18.82 211.276,18.72 211.276,18.576 L211.276,18.576 L210.988,18.576 L210.988,21.6 L211.276,21.6 C211.324,21.472 211.408,21.372 211.528,21.3 C211.648,21.228 211.78,21.172 211.924,21.132 C212.068,21.092 212.216,21.064 212.368,21.048 C212.52,21.032 212.652,21.024 212.764,21.024 L212.764,21.024 L212.764,29.04 C212.764,29.312 212.704,29.492 212.584,29.58 C212.464,29.668 212.324,29.712 212.164,29.712 L212.164,29.712 L212.164,30 L216.124,30 Z" id="1" fill="#000000" fill-rule="nonzero"></path>
        <g id="Face" transform="translate(225.000000, 15.000000)">
            <circle id="Oval" stroke="#000000" fill="#FFFFFF" cx="9.5" cy="9.5" r="9"></circle>
            <circle id="Oval" fill="#000000" cx="5" cy="8" r="1"></circle>
            <circle id="Oval-Copy" fill="#000000" cx="12" cy="8" r="1"></circle>
            <line x1="12.0789474" y1="13.9090909" x2="14.5" y2="11.5" id="Line-4" stroke="#000000" stroke-linecap="round"></line>
            <path d="M3,5.89285714 C3.41025641,5.96428571 3.76923077,6 4.07692308,6 C4.38461538,6 5.35897436,5.33333333 7,4" id="Line-2" stroke="#000000"></path>
            <path d="M6,15 C6.96078431,14.3333333 8.07598039,14 9.34558824,14 C10.6151961,14 11.8333333,14.3333333 13,15" id="Line" stroke="#000000" stroke-linecap="round" stroke-linejoin="round"></path>
            <path d="M11.3197366,4.68245322 C11.585843,4.80663622 11.7912611,4.92388646 11.9359908,5.03420394 C12.548667,5.50120471 13.1333088,5.70898724 13.3155349,5.80010028 C13.5440857,5.91437569 13.8101922,6.00751295 14.1138542,6.07951204" id="Line-3" stroke="#000000" stroke-linecap="square" transform="translate(12.716795, 5.380983) rotate(-3.000000) translate(-12.716795, -5.380983) "></path>
            <path d="M2.999,9.347 L3.01687864,9.39698204 C3.09438102,9.62639002 3.1880913,9.89570266 3.30282211,10.2112791 C3.48139895,10.7024692 3.54804655,11.0169045 3.47980817,11.2204078 C3.41244402,11.421304 3.17143148,11.4011566 3.01518318,11.4416373 L3.01518318,11.4416373 L2.86575433,11.4813457 C2.78836954,11.5029149 2.70310591,11.5126925 2.63007237,11.4810832 C2.58941161,11.463485 2.56030088,11.4264037 2.54036126,11.376794 C2.4446463,11.1386559 2.49784548,10.759559 2.69717789,10.2112791 C2.8119087,9.89570266 2.90561898,9.62639002 2.98312136,9.39698204 L2.999,9.347 Z" id="Oval" stroke="#000000"></path>
            <path d="M16,6.347 L16.0168786,6.39698204 C16.094381,6.62639002 16.1880913,6.89570266 16.3028221,7.21127907 C16.481399,7.70246915 16.5480465,8.01690453 16.4798082,8.22040783 C16.412444,8.42130397 16.1714315,8.40115659 16.0151832,8.44163726 L16.0151832,8.44163726 L15.8657543,8.48134574 C15.7883695,8.50291486 15.7031059,8.51269255 15.6300724,8.48108319 C15.5894116,8.46348497 15.5603009,8.42640366 15.5403613,8.37679403 C15.4446463,8.13865595 15.4978455,7.75955902 15.6971779,7.21127907 C15.8119087,6.89570266 15.905619,6.62639002 15.9831214,6.39698204 L16,6.347 Z" id="Oval-Copy-2" stroke="#000000"></path>
        </g>
        <rect id="Rectangle" stroke="#000000" stroke-width="3" x="17.5" y="256.5" width="225" height="85" rx="8"></rect>
        <path d="M64.346,57 L64.346,56.352 C63.89,56.352 63.662,56.22 63.662,55.956 C63.662,55.74 63.782,55.38 64.022,54.876 L64.022,54.876 L65.318,52.32 L74.102,52.32 L75.47,54.984 C75.662,55.368 75.758,55.68 75.758,55.92 C75.758,56.064 75.686,56.172 75.542,56.244 C75.398,56.316 75.278,56.352 75.182,56.352 L75.182,56.352 L75.182,57 L81.518,57 L81.518,56.352 C81.254,56.232 81.02,56.112 80.816,55.992 C80.612,55.872 80.45,55.68 80.33,55.416 L80.33,55.416 L72.842,40.764 C72.674,40.452 72.548,40.2 72.464,40.008 C72.38,39.816 72.338,39.624 72.338,39.432 C72.338,39.168 72.422,38.994 72.59,38.91 C72.758,38.826 72.926,38.76 73.094,38.712 L73.094,38.712 L73.094,38.064 L67.01,38.064 L67.01,38.712 C67.202,38.76 67.382,38.832 67.55,38.928 C67.718,39.024 67.802,39.192 67.802,39.432 C67.802,39.624 67.736,39.852 67.604,40.116 C67.472,40.38 67.322,40.668 67.154,40.98 L67.154,40.98 L60.494,54.984 C60.326,55.32 60.152,55.62 59.972,55.884 C59.792,56.148 59.546,56.304 59.234,56.352 L59.234,56.352 L59.234,57 L64.346,57 Z M72.806,49.656 L66.398,49.656 L69.782,42.96 L72.806,49.656 Z M92.642,57.108 C93.722,57.108 94.7,57.012 95.576,56.82 C96.452,56.628 97.22,56.394 97.88,56.118 C98.54,55.842 99.086,55.596 99.518,55.38 C99.95,55.164 100.262,55.056 100.454,55.056 C100.574,55.056 100.778,55.116 101.066,55.236 L101.066,55.236 L101.426,55.056 L98.762,51.24 L98.366,51.6 C98.39,51.696 98.402,51.816 98.402,51.96 L98.402,51.96 L98.402,52.248 C98.402,52.464 98.228,52.704 97.88,52.968 C97.532,53.232 97.082,53.478 96.53,53.706 C95.978,53.934 95.366,54.132 94.694,54.3 C94.022,54.468 93.362,54.552 92.714,54.552 C92.018,54.552 91.334,54.426 90.662,54.174 C89.99,53.922 89.39,53.55 88.862,53.058 C88.334,52.566 87.908,51.978 87.584,51.294 C87.26,50.61 87.098,49.836 87.098,48.972 C87.098,48.108 87.242,47.34 87.53,46.668 C87.818,45.996 88.226,45.432 88.754,44.976 C89.282,44.52 89.9,44.178 90.608,43.95 C91.316,43.722 92.102,43.608 92.966,43.608 C93.686,43.608 94.346,43.674 94.946,43.806 C95.546,43.938 96.068,44.1 96.512,44.292 C96.956,44.484 97.298,44.682 97.538,44.886 C97.778,45.09 97.898,45.252 97.898,45.372 C97.898,45.444 97.904,45.504 97.916,45.552 C97.928,45.6 97.934,45.648 97.934,45.696 L97.934,45.696 L98.33,45.984 L100.706,42.564 L100.274,42.312 C100.178,42.36 100.088,42.42 100.004,42.492 C99.92,42.564 99.818,42.6 99.698,42.6 C99.53,42.6 99.254,42.516 98.87,42.348 C98.486,42.18 98.006,41.988 97.43,41.772 C96.854,41.556 96.188,41.364 95.432,41.196 C94.676,41.028 93.842,40.944 92.93,40.944 C91.754,40.944 90.608,41.112 89.492,41.448 C88.376,41.784 87.386,42.294 86.522,42.978 C85.658,43.662 84.962,44.508 84.434,45.516 C83.906,46.524 83.642,47.7 83.642,49.044 C83.642,50.388 83.906,51.57 84.434,52.59 C84.962,53.61 85.646,54.462 86.486,55.146 C87.326,55.83 88.286,56.328 89.366,56.64 C90.446,56.952 91.538,57.108 92.642,57.108 Z M110.21,57 L110.21,56.352 C110.066,56.352 109.94,56.31 109.832,56.226 C109.724,56.142 109.67,56.004 109.67,55.812 L109.67,55.812 L109.67,50.376 L119.318,50.376 L119.318,55.812 C119.318,56.004 119.264,56.142 119.156,56.226 C119.048,56.31 118.922,56.352 118.778,56.352 L118.778,56.352 L118.778,57 L123.314,57 L123.314,56.352 C123.17,56.352 123.044,56.31 122.936,56.226 C122.828,56.142 122.774,56.004 122.774,55.812 L122.774,55.812 L122.774,42.348 C122.774,42.156 122.828,42.018 122.936,41.934 C123.044,41.85 123.17,41.808 123.314,41.808 L123.314,41.808 L123.314,41.16 L118.778,41.16 L118.778,41.808 C118.922,41.808 119.048,41.85 119.156,41.934 C119.264,42.018 119.318,42.156 119.318,42.348 L119.318,42.348 L119.318,47.424 L109.67,47.424 L109.67,42.348 C109.67,42.156 109.724,42.018 109.832,41.934 C109.94,41.85 110.066,41.808 110.21,41.808 L110.21,41.808 L110.21,41.16 L105.674,41.16 L105.674,41.808 C105.818,41.808 105.944,41.85 106.052,41.934 C106.16,42.018 106.214,42.156 106.214,42.348 L106.214,42.348 L106.214,55.812 C106.214,56.004 106.16,56.142 106.052,56.226 C105.944,56.31 105.818,56.352 105.674,56.352 L105.674,56.352 L105.674,57 L110.21,57 Z M144.338,57.396 L144.338,53.616 L143.69,53.616 C143.69,53.832 143.594,54.006 143.402,54.138 C143.21,54.27 142.97,54.336 142.682,54.336 L142.682,54.336 L133.466,54.336 L133.466,50.088 L138.722,50.088 C139.202,50.088 139.574,50.118 139.838,50.178 C140.102,50.238 140.198,50.4 140.126,50.664 L140.126,50.664 L140.846,50.664 L140.846,46.848 L140.198,46.848 C140.198,47.112 140.102,47.274 139.91,47.334 C139.718,47.394 139.418,47.424 139.01,47.424 L139.01,47.424 L133.466,47.424 L133.466,43.824 L142.25,43.824 C142.994,43.824 143.366,44.052 143.366,44.508 L143.366,44.508 L144.014,44.508 L144.014,40.512 L143.366,40.512 C143.366,40.944 142.994,41.16 142.25,41.16 L142.25,41.16 L129.47,41.16 L129.47,41.808 C129.59,41.808 129.71,41.85 129.83,41.934 C129.95,42.018 130.01,42.156 130.01,42.348 L130.01,42.348 L130.01,55.812 C130.01,56.004 129.95,56.142 129.83,56.226 C129.71,56.31 129.59,56.352 129.47,56.352 L129.47,56.352 L129.47,57 L142.682,57 C142.97,57 143.21,57.012 143.402,57.036 C143.594,57.06 143.69,57.18 143.69,57.396 L143.69,57.396 L144.338,57.396 Z M156.254,57.108 C157.07,57.108 157.94,57.048 158.864,56.928 C159.788,56.808 160.634,56.556 161.402,56.172 C162.17,55.788 162.812,55.26 163.328,54.588 C163.844,53.916 164.102,53.052 164.102,51.996 C164.102,50.94 163.808,50.112 163.22,49.512 C162.632,48.912 161.894,48.456 161.006,48.144 C160.118,47.832 159.158,47.61 158.126,47.478 C157.094,47.346 156.134,47.214 155.246,47.082 C154.358,46.95 153.62,46.77 153.032,46.542 C152.444,46.314 152.15,45.936 152.15,45.408 C152.15,45.072 152.246,44.79 152.438,44.562 C152.63,44.334 152.894,44.148 153.23,44.004 C153.566,43.86 153.95,43.758 154.382,43.698 C154.814,43.638 155.27,43.608 155.75,43.608 C156.998,43.608 158.126,43.752 159.134,44.04 C160.142,44.328 160.886,44.676 161.366,45.084 C161.558,45.228 161.666,45.372 161.69,45.516 L161.69,45.516 L161.762,45.948 L162.41,46.164 L164.21,42.78 L163.814,42.384 C163.67,42.456 163.55,42.522 163.454,42.582 C163.358,42.642 163.214,42.672 163.022,42.672 C162.854,42.672 162.596,42.582 162.248,42.402 C161.9,42.222 161.45,42.024 160.898,41.808 C160.346,41.592 159.668,41.394 158.864,41.214 C158.06,41.034 157.094,40.944 155.966,40.944 C153.662,40.944 151.874,41.4 150.602,42.312 C149.33,43.224 148.694,44.448 148.694,45.984 C148.694,47.016 148.988,47.814 149.576,48.378 C150.164,48.942 150.902,49.374 151.79,49.674 C152.678,49.974 153.638,50.19 154.67,50.322 C155.702,50.454 156.662,50.586 157.55,50.718 C158.438,50.85 159.176,51.036 159.764,51.276 C160.352,51.516 160.646,51.9 160.646,52.428 C160.646,52.884 160.478,53.25 160.142,53.526 C159.806,53.802 159.398,54.018 158.918,54.174 C158.438,54.33 157.952,54.432 157.46,54.48 C156.968,54.528 156.554,54.552 156.218,54.552 C155.858,54.552 155.36,54.492 154.724,54.372 C154.088,54.252 153.452,54.09 152.816,53.886 C152.18,53.682 151.634,53.43 151.178,53.13 C150.722,52.83 150.494,52.5 150.494,52.14 C150.494,52.02 150.5,51.906 150.512,51.798 C150.524,51.69 150.53,51.588 150.53,51.492 L150.53,51.492 L149.846,51.312 L148.19,55.344 L148.694,55.704 C148.814,55.56 148.958,55.488 149.126,55.488 C149.222,55.488 149.498,55.578 149.954,55.758 C150.41,55.938 150.968,56.13 151.628,56.334 C152.288,56.538 153.02,56.718 153.824,56.874 C154.628,57.03 155.438,57.108 156.254,57.108 Z M200.102,57.108 L200.102,52.716 L199.742,52.716 C199.742,52.98 199.7,53.22 199.616,53.436 C199.532,53.652 199.322,53.76 198.986,53.76 C198.578,53.736 198.14,53.55 197.672,53.202 C197.204,52.854 196.802,52.464 196.466,52.032 C196.538,51.792 196.658,51.492 196.826,51.132 C196.994,50.772 197.186,50.418 197.402,50.07 C197.618,49.722 197.858,49.428 198.122,49.188 C198.386,48.948 198.662,48.828 198.95,48.828 C199.214,48.828 199.4,48.924 199.508,49.116 C199.616,49.308 199.694,49.476 199.742,49.62 L199.742,49.62 L200.102,49.62 L200.102,44.076 L199.742,44.076 C199.742,44.172 199.694,44.25 199.598,44.31 C199.502,44.37 199.394,44.424 199.274,44.472 C199.082,44.52 198.788,44.67 198.392,44.922 C197.996,45.174 197.558,45.51 197.078,45.93 C196.598,46.35 196.118,46.836 195.638,47.388 C195.158,47.94 194.738,48.54 194.378,49.188 C194.21,49.02 194.066,48.798 193.946,48.522 C193.826,48.246 193.694,47.958 193.55,47.658 C193.406,47.358 193.238,47.058 193.046,46.758 C192.854,46.458 192.602,46.2 192.29,45.984 C192.842,45.792 193.352,45.39 193.82,44.778 C194.288,44.166 194.522,43.44 194.522,42.6 C194.522,41.76 194.324,41.046 193.928,40.458 C193.532,39.87 193.028,39.378 192.416,38.982 C191.804,38.586 191.114,38.298 190.346,38.118 C189.578,37.938 188.81,37.848 188.042,37.848 C187.298,37.848 186.536,37.938 185.756,38.118 C184.976,38.298 184.28,38.586 183.668,38.982 C183.056,39.378 182.552,39.87 182.156,40.458 C181.76,41.046 181.562,41.76 181.562,42.6 C181.562,43.416 181.832,44.13 182.372,44.742 C182.912,45.354 183.554,45.78 184.298,46.02 L184.298,46.02 L184.298,46.092 C183.602,46.284 182.954,46.524 182.354,46.812 C181.754,47.1 181.238,47.46 180.806,47.892 C180.374,48.324 180.032,48.834 179.78,49.422 C179.528,50.01 179.402,50.7 179.402,51.492 C179.402,52.5 179.642,53.364 180.122,54.084 C180.602,54.804 181.208,55.392 181.94,55.848 C182.672,56.304 183.488,56.628 184.388,56.82 C185.288,57.012 186.17,57.108 187.034,57.108 C187.802,57.108 188.48,57.078 189.068,57.018 C189.656,56.958 190.208,56.826 190.724,56.622 C191.24,56.418 191.744,56.154 192.236,55.83 C192.728,55.506 193.262,55.104 193.838,54.624 C194.126,54.936 194.444,55.242 194.792,55.542 C195.14,55.842 195.56,56.112 196.052,56.352 C196.544,56.592 197.12,56.778 197.78,56.91 C198.44,57.042 199.214,57.108 200.102,57.108 L200.102,57.108 Z M188.042,45.408 C187.202,45.408 186.488,45.21 185.9,44.814 C185.312,44.418 185.018,43.8 185.018,42.96 C185.018,42.12 185.312,41.502 185.9,41.106 C186.488,40.71 187.202,40.512 188.042,40.512 C188.882,40.512 189.596,40.71 190.184,41.106 C190.772,41.502 191.066,42.12 191.066,42.96 C191.066,43.8 190.772,44.418 190.184,44.814 C189.596,45.21 188.882,45.408 188.042,45.408 Z M187.754,54.336 C187.25,54.336 186.74,54.276 186.224,54.156 C185.708,54.036 185.234,53.844 184.802,53.58 C184.37,53.316 184.022,52.968 183.758,52.536 C183.494,52.104 183.362,51.588 183.362,50.988 C183.362,50.364 183.494,49.842 183.758,49.422 C184.022,49.002 184.37,48.66 184.802,48.396 C185.234,48.132 185.708,47.94 186.224,47.82 C186.74,47.7 187.25,47.64 187.754,47.64 C188.498,47.64 189.05,47.76 189.41,48 C189.77,48.24 190.058,48.558 190.274,48.954 C190.49,49.35 190.682,49.794 190.85,50.286 C191.018,50.778 191.282,51.276 191.642,51.78 C191.594,52.092 191.456,52.398 191.228,52.698 C191,52.998 190.706,53.268 190.346,53.508 C189.986,53.748 189.584,53.946 189.14,54.102 C188.696,54.258 188.234,54.336 187.754,54.336 Z M90.302,93 L90.302,92.352 C89.534,92.352 89.15,92.136 89.15,91.704 L89.15,91.704 L89.15,85.296 L96.386,85.296 C98.69,85.296 100.502,84.87 101.822,84.018 C103.142,83.166 103.802,81.72 103.802,79.68 C103.802,77.64 103.142,76.194 101.822,75.342 C100.502,74.49 98.69,74.064 96.386,74.064 L96.386,74.064 L83.714,74.064 L83.714,74.712 C84.602,74.712 85.046,74.928 85.046,75.36 L85.046,75.36 L85.046,91.704 C85.046,92.136 84.602,92.352 83.714,92.352 L83.714,92.352 L83.714,93 L90.302,93 Z M96.818,81.984 L89.15,81.984 L89.15,77.376 L96.818,77.376 C97.61,77.376 98.288,77.532 98.852,77.844 C99.416,78.156 99.698,78.768 99.698,79.68 C99.698,80.592 99.416,81.204 98.852,81.516 C98.288,81.828 97.61,81.984 96.818,81.984 L96.818,81.984 Z M110.354,93 L110.354,92.352 C110.138,92.352 109.97,92.328 109.85,92.28 C109.73,92.232 109.67,92.112 109.67,91.92 C109.67,91.8 109.7,91.662 109.76,91.506 C109.82,91.35 109.898,91.176 109.994,90.984 L109.994,90.984 L111.002,89.04 L118.706,89.04 L119.678,91.092 C119.75,91.284 119.81,91.44 119.858,91.56 C119.906,91.68 119.93,91.812 119.93,91.956 C119.93,92.148 119.864,92.28 119.732,92.352 C119.6,92.424 119.474,92.46 119.354,92.46 L119.354,92.46 L119.354,93 L124.466,93 L124.466,92.352 C124.298,92.304 124.142,92.232 123.998,92.136 C123.854,92.04 123.722,91.884 123.602,91.668 L123.602,91.668 L117.77,79.428 C117.65,79.164 117.536,78.93 117.428,78.726 C117.32,78.522 117.266,78.348 117.266,78.204 C117.266,78.036 117.308,77.94 117.392,77.916 C117.476,77.892 117.554,77.856 117.626,77.808 L117.626,77.808 L117.626,77.16 L112.19,77.16 L112.19,77.808 C112.262,77.856 112.328,77.898 112.388,77.934 C112.448,77.97 112.478,78.06 112.478,78.204 C112.478,78.396 112.436,78.594 112.352,78.798 C112.268,79.002 112.154,79.272 112.01,79.608 L112.01,79.608 L106.646,91.308 C106.55,91.5 106.412,91.71 106.232,91.938 C106.052,92.166 105.818,92.304 105.53,92.352 L105.53,92.352 L105.53,93 L110.354,93 Z M117.554,86.376 L112.082,86.376 L114.638,80.328 L117.554,86.376 Z M133.718,93 L133.718,92.352 C133.046,92.352 132.71,92.172 132.71,91.812 L132.71,91.812 L132.71,78.348 C132.71,77.988 133.046,77.808 133.718,77.808 L133.718,77.808 L133.718,77.16 L128.246,77.16 L128.246,77.808 C128.63,77.808 128.894,77.85 129.038,77.934 C129.182,78.018 129.254,78.156 129.254,78.348 L129.254,78.348 L129.254,91.812 C129.254,92.004 129.182,92.142 129.038,92.226 C128.894,92.31 128.63,92.352 128.246,92.352 L128.246,92.352 L128.246,93 L133.718,93 Z M144.338,93 L144.338,92.352 C143.834,92.352 143.582,92.172 143.582,91.812 L143.582,91.812 L143.582,81.336 L152.51,90.84 C152.798,91.152 153.056,91.428 153.284,91.668 C153.512,91.908 153.626,92.076 153.626,92.172 C153.626,92.292 153.542,92.352 153.374,92.352 L153.374,92.352 L153.374,93 L158.054,93 L158.054,92.352 C157.622,92.352 157.406,92.172 157.406,91.812 L157.406,91.812 L157.406,78.348 C157.406,77.988 157.622,77.808 158.054,77.808 L158.054,77.808 L158.054,77.16 L153.662,77.16 L153.662,77.808 C154.142,77.808 154.382,77.988 154.382,78.348 L154.382,78.348 L154.382,88.104 L145.742,78.96 C145.214,78.432 144.95,78.108 144.95,77.988 C144.95,77.892 145.034,77.832 145.202,77.808 L145.202,77.808 L145.202,77.16 L139.91,77.16 L139.91,77.808 C140.342,77.808 140.558,77.988 140.558,78.348 L140.558,78.348 L140.558,91.812 C140.558,92.172 140.342,92.352 139.91,92.352 L139.91,92.352 L139.91,93 L144.338,93 Z M170.726,93.108 C171.542,93.108 172.412,93.048 173.336,92.928 C174.26,92.808 175.106,92.556 175.874,92.172 C176.642,91.788 177.284,91.26 177.8,90.588 C178.316,89.916 178.574,89.052 178.574,87.996 C178.574,86.94 178.28,86.112 177.692,85.512 C177.104,84.912 176.366,84.456 175.478,84.144 C174.59,83.832 173.63,83.61 172.598,83.478 C171.566,83.346 170.606,83.214 169.718,83.082 C168.83,82.95 168.092,82.77 167.504,82.542 C166.916,82.314 166.622,81.936 166.622,81.408 C166.622,81.072 166.718,80.79 166.91,80.562 C167.102,80.334 167.366,80.148 167.702,80.004 C168.038,79.86 168.422,79.758 168.854,79.698 C169.286,79.638 169.742,79.608 170.222,79.608 C171.47,79.608 172.598,79.752 173.606,80.04 C174.614,80.328 175.358,80.676 175.838,81.084 C176.03,81.228 176.138,81.372 176.162,81.516 L176.162,81.516 L176.234,81.948 L176.882,82.164 L178.682,78.78 L178.286,78.384 C178.142,78.456 178.022,78.522 177.926,78.582 C177.83,78.642 177.686,78.672 177.494,78.672 C177.326,78.672 177.068,78.582 176.72,78.402 C176.372,78.222 175.922,78.024 175.37,77.808 C174.818,77.592 174.14,77.394 173.336,77.214 C172.532,77.034 171.566,76.944 170.438,76.944 C168.134,76.944 166.346,77.4 165.074,78.312 C163.802,79.224 163.166,80.448 163.166,81.984 C163.166,83.016 163.46,83.814 164.048,84.378 C164.636,84.942 165.374,85.374 166.262,85.674 C167.15,85.974 168.11,86.19 169.142,86.322 C170.174,86.454 171.134,86.586 172.022,86.718 C172.91,86.85 173.648,87.036 174.236,87.276 C174.824,87.516 175.118,87.9 175.118,88.428 C175.118,88.884 174.95,89.25 174.614,89.526 C174.278,89.802 173.87,90.018 173.39,90.174 C172.91,90.33 172.424,90.432 171.932,90.48 C171.44,90.528 171.026,90.552 170.69,90.552 C170.33,90.552 169.832,90.492 169.196,90.372 C168.56,90.252 167.924,90.09 167.288,89.886 C166.652,89.682 166.106,89.43 165.65,89.13 C165.194,88.83 164.966,88.5 164.966,88.14 C164.966,88.02 164.972,87.906 164.984,87.798 C164.996,87.69 165.002,87.588 165.002,87.492 L165.002,87.492 L164.318,87.312 L162.662,91.344 L163.166,91.704 C163.286,91.56 163.43,91.488 163.598,91.488 C163.694,91.488 163.97,91.578 164.426,91.758 C164.882,91.938 165.44,92.13 166.1,92.334 C166.76,92.538 167.492,92.718 168.296,92.874 C169.1,93.03 169.91,93.108 170.726,93.108 Z" id="Aches&amp;Pains" fill="#000000" fill-rule="nonzero"></path>
        <path d="M39.02,275 L39.02,274.676 C38.684,274.676 38.516,274.568 38.516,274.352 L38.516,274.352 L38.516,268.358 L38.552,268.358 L42.098,275 L42.152,275 L45.77,268.376 L45.806,268.376 L45.806,274.352 C45.806,274.568 45.644,274.676 45.32,274.676 L45.32,274.676 L45.32,275 L48.146,275 L48.146,274.676 C48.05,274.676 47.966,274.649 47.894,274.595 C47.822,274.541 47.786,274.46 47.786,274.352 L47.786,274.352 L47.786,266.144 C47.786,266.036 47.822,265.961 47.894,265.919 C47.966,265.877 48.05,265.856 48.146,265.856 L48.146,265.856 L48.146,265.532 L44.816,265.532 L44.816,265.856 C44.972,265.856 45.05,265.922 45.05,266.054 C45.05,266.126 45.029,266.207 44.987,266.297 C44.945,266.387 44.882,266.51 44.798,266.666 L44.798,266.666 L42.206,271.292 L39.632,266.612 C39.572,266.504 39.518,266.402 39.47,266.306 C39.422,266.21 39.398,266.132 39.398,266.072 C39.398,266 39.431,265.946 39.497,265.91 C39.563,265.874 39.626,265.856 39.686,265.856 L39.686,265.856 L39.686,265.532 L36.32,265.532 L36.32,265.856 C36.416,265.856 36.5,265.877 36.572,265.919 C36.644,265.961 36.68,266.036 36.68,266.144 L36.68,266.144 L36.68,274.352 C36.68,274.46 36.644,274.541 36.572,274.595 C36.5,274.649 36.416,274.676 36.32,274.676 L36.32,274.676 L36.32,275 L39.02,275 Z M52.412,275 L52.412,274.676 C52.304,274.676 52.22,274.664 52.16,274.64 C52.1,274.616 52.07,274.556 52.07,274.46 C52.07,274.4 52.085,274.331 52.115,274.253 C52.145,274.175 52.184,274.088 52.232,273.992 L52.232,273.992 L52.736,273.02 L56.588,273.02 L57.074,274.046 C57.11,274.142 57.14,274.22 57.164,274.28 C57.188,274.34 57.2,274.406 57.2,274.478 C57.2,274.574 57.167,274.64 57.101,274.676 C57.035,274.712 56.972,274.73 56.912,274.73 L56.912,274.73 L56.912,275 L59.468,275 L59.468,274.676 C59.384,274.652 59.306,274.616 59.234,274.568 C59.162,274.52 59.096,274.442 59.036,274.334 L59.036,274.334 L56.12,268.214 C56.06,268.082 56.003,267.965 55.949,267.863 C55.895,267.761 55.868,267.674 55.868,267.602 C55.868,267.518 55.889,267.47 55.931,267.458 C55.973,267.446 56.012,267.428 56.048,267.404 L56.048,267.404 L56.048,267.08 L53.33,267.08 L53.33,267.404 C53.366,267.428 53.399,267.449 53.429,267.467 C53.459,267.485 53.474,267.53 53.474,267.602 C53.474,267.698 53.453,267.797 53.411,267.899 C53.369,268.001 53.312,268.136 53.24,268.304 L53.24,268.304 L50.558,274.154 C50.51,274.25 50.441,274.355 50.351,274.469 C50.261,274.583 50.144,274.652 50,274.676 L50,274.676 L50,275 L52.412,275 Z M56.012,271.688 L53.276,271.688 L54.554,268.664 L56.012,271.688 Z M65.948,275 L65.948,274.676 C65.72,274.676 65.606,274.586 65.606,274.406 L65.606,274.406 L65.606,271.706 L68.36,268.142 C68.492,267.974 68.645,267.809 68.819,267.647 C68.993,267.485 69.152,267.404 69.296,267.404 L69.296,267.404 L69.296,267.08 L66.542,267.08 L66.542,267.404 C66.602,267.404 66.662,267.416 66.722,267.44 C66.782,267.464 66.812,267.524 66.812,267.62 C66.812,267.692 66.785,267.767 66.731,267.845 C66.677,267.923 66.596,268.04 66.488,268.196 L66.488,268.196 L64.886,270.428 L63.068,268.052 C63.008,267.968 62.954,267.896 62.906,267.836 C62.858,267.776 62.834,267.71 62.834,267.638 C62.834,267.566 62.87,267.509 62.942,267.467 C63.014,267.425 63.08,267.404 63.14,267.404 L63.14,267.404 L63.14,267.08 L60.17,267.08 L60.17,267.404 C60.278,267.404 60.392,267.428 60.512,267.476 C60.632,267.524 60.734,267.602 60.818,267.71 L60.818,267.71 L63.878,271.634 L63.878,274.406 C63.878,274.586 63.77,274.676 63.554,274.676 L63.554,274.676 L63.554,275 L65.948,275 Z M76.532,275 C77.06,275 77.513,274.943 77.891,274.829 C78.269,274.715 78.575,274.562 78.809,274.37 C79.043,274.178 79.214,273.956 79.322,273.704 C79.43,273.452 79.484,273.182 79.484,272.894 C79.484,272.642 79.442,272.408 79.358,272.192 C79.274,271.976 79.166,271.784 79.034,271.616 C78.902,271.448 78.752,271.304 78.584,271.184 C78.416,271.064 78.248,270.968 78.08,270.896 L78.08,270.896 L78.08,270.878 C78.224,270.806 78.365,270.71 78.503,270.59 C78.641,270.47 78.767,270.335 78.881,270.185 C78.995,270.035 79.088,269.867 79.16,269.681 C79.232,269.495 79.268,269.294 79.268,269.078 C79.268,268.814 79.214,268.562 79.106,268.322 C78.998,268.082 78.833,267.869 78.611,267.683 C78.389,267.497 78.113,267.35 77.783,267.242 C77.453,267.134 77.06,267.08 76.604,267.08 L76.604,267.08 L71.006,267.08 L71.006,267.404 C71.102,267.404 71.195,267.425 71.285,267.467 C71.375,267.509 71.42,267.578 71.42,267.674 L71.42,267.674 L71.42,274.406 C71.42,274.502 71.375,274.571 71.285,274.613 C71.195,274.655 71.102,274.676 71.006,274.676 L71.006,274.676 L71.006,275 L76.532,275 Z M76.352,270.212 L73.148,270.212 L73.148,268.412 L76.352,268.412 C76.496,268.412 76.64,268.421 76.784,268.439 C76.928,268.457 77.054,268.499 77.162,268.565 C77.27,268.631 77.36,268.721 77.432,268.835 C77.504,268.949 77.54,269.102 77.54,269.294 C77.54,269.666 77.414,269.912 77.162,270.032 C76.91,270.152 76.64,270.212 76.352,270.212 L76.352,270.212 Z M76.316,273.668 L73.148,273.668 L73.148,271.544 L76.028,271.544 C76.652,271.544 77.096,271.634 77.36,271.814 C77.624,271.994 77.756,272.27 77.756,272.642 C77.756,272.966 77.654,273.218 77.45,273.398 C77.246,273.578 76.868,273.668 76.316,273.668 L76.316,273.668 Z M89.654,275.198 L89.654,273.308 L89.33,273.308 C89.33,273.416 89.282,273.503 89.186,273.569 C89.09,273.635 88.97,273.668 88.826,273.668 L88.826,273.668 L84.218,273.668 L84.218,271.544 L86.846,271.544 C87.086,271.544 87.272,271.559 87.404,271.589 C87.536,271.619 87.584,271.7 87.548,271.832 L87.548,271.832 L87.908,271.832 L87.908,269.924 L87.584,269.924 C87.584,270.056 87.536,270.137 87.44,270.167 C87.344,270.197 87.194,270.212 86.99,270.212 L86.99,270.212 L84.218,270.212 L84.218,268.412 L88.61,268.412 C88.982,268.412 89.168,268.526 89.168,268.754 L89.168,268.754 L89.492,268.754 L89.492,266.756 L89.168,266.756 C89.168,266.972 88.982,267.08 88.61,267.08 L88.61,267.08 L82.22,267.08 L82.22,267.404 C82.28,267.404 82.34,267.425 82.4,267.467 C82.46,267.509 82.49,267.578 82.49,267.674 L82.49,267.674 L82.49,274.406 C82.49,274.502 82.46,274.571 82.4,274.613 C82.34,274.655 82.28,274.676 82.22,274.676 L82.22,274.676 L82.22,275 L88.826,275 C88.97,275 89.09,275.006 89.186,275.018 C89.282,275.03 89.33,275.09 89.33,275.198 L89.33,275.198 L89.654,275.198 Z M100.598,275 L100.598,274.676 C100.262,274.676 100.094,274.586 100.094,274.406 L100.094,274.406 L100.094,267.674 C100.094,267.494 100.262,267.404 100.598,267.404 L100.598,267.404 L100.598,267.08 L97.862,267.08 L97.862,267.404 C98.054,267.404 98.186,267.425 98.258,267.467 C98.33,267.509 98.366,267.578 98.366,267.674 L98.366,267.674 L98.366,274.406 C98.366,274.502 98.33,274.571 98.258,274.613 C98.186,274.655 98.054,274.676 97.862,274.676 L97.862,274.676 L97.862,275 L100.598,275 Z M107.924,275 L107.924,274.676 C107.708,274.676 107.6,274.586 107.6,274.406 L107.6,274.406 L107.6,268.412 L109.94,268.412 C110.036,268.412 110.126,268.436 110.21,268.484 C110.294,268.532 110.336,268.61 110.336,268.718 L110.336,268.718 L110.66,268.718 L110.66,266.648 L110.336,266.648 C110.336,266.816 110.294,266.93 110.21,266.99 C110.126,267.05 110.036,267.08 109.94,267.08 L109.94,267.08 L103.532,267.08 C103.436,267.08 103.346,267.05 103.262,266.99 C103.178,266.93 103.136,266.816 103.136,266.648 L103.136,266.648 L102.812,266.648 L102.812,268.718 L103.136,268.718 C103.136,268.61 103.178,268.532 103.262,268.484 C103.346,268.436 103.436,268.412 103.532,268.412 L103.532,268.412 L105.872,268.412 L105.872,274.406 C105.872,274.502 105.842,274.571 105.782,274.613 C105.722,274.655 105.662,274.676 105.602,274.676 L105.602,274.676 L105.602,275 L107.924,275 Z M112.064,270.41 C112.436,270.326 112.796,270.176 113.144,269.96 C113.492,269.744 113.798,269.486 114.062,269.186 C114.326,268.886 114.539,268.553 114.701,268.187 C114.863,267.821 114.944,267.44 114.944,267.044 C114.944,266.54 114.821,266.114 114.575,265.766 C114.329,265.418 113.966,265.244 113.486,265.244 C113.174,265.244 112.895,265.37 112.649,265.622 C112.403,265.874 112.28,266.174 112.28,266.522 C112.28,266.882 112.391,267.161 112.613,267.359 C112.835,267.557 113.096,267.656 113.396,267.656 C113.492,267.656 113.594,267.662 113.702,267.674 C113.81,267.686 113.876,267.734 113.9,267.818 C113.924,268.034 113.876,268.25 113.756,268.466 C113.636,268.682 113.483,268.883 113.297,269.069 C113.111,269.255 112.904,269.417 112.676,269.555 C112.448,269.693 112.244,269.786 112.064,269.834 L112.064,269.834 L112.064,270.41 Z M121.1,275.054 C121.508,275.054 121.943,275.024 122.405,274.964 C122.867,274.904 123.29,274.778 123.674,274.586 C124.058,274.394 124.379,274.13 124.637,273.794 C124.895,273.458 125.024,273.026 125.024,272.498 C125.024,271.97 124.877,271.556 124.583,271.256 C124.289,270.956 123.92,270.728 123.476,270.572 C123.032,270.416 122.552,270.305 122.036,270.239 C121.52,270.173 121.04,270.107 120.596,270.041 C120.152,269.975 119.783,269.885 119.489,269.771 C119.195,269.657 119.048,269.468 119.048,269.204 C119.048,269.036 119.096,268.895 119.192,268.781 C119.288,268.667 119.42,268.574 119.588,268.502 C119.756,268.43 119.948,268.379 120.164,268.349 C120.38,268.319 120.608,268.304 120.848,268.304 C121.472,268.304 122.036,268.376 122.54,268.52 C123.044,268.664 123.416,268.838 123.656,269.042 C123.752,269.114 123.806,269.186 123.818,269.258 L123.818,269.258 L123.854,269.474 L124.178,269.582 L125.078,267.89 L124.88,267.692 C124.808,267.728 124.748,267.761 124.7,267.791 C124.652,267.821 124.58,267.836 124.484,267.836 C124.4,267.836 124.271,267.791 124.097,267.701 C123.923,267.611 123.698,267.512 123.422,267.404 C123.146,267.296 122.807,267.197 122.405,267.107 C122.003,267.017 121.52,266.972 120.956,266.972 C119.804,266.972 118.91,267.2 118.274,267.656 C117.638,268.112 117.32,268.724 117.32,269.492 C117.32,270.008 117.467,270.407 117.761,270.689 C118.055,270.971 118.424,271.187 118.868,271.337 C119.312,271.487 119.792,271.595 120.308,271.661 C120.824,271.727 121.304,271.793 121.748,271.859 C122.192,271.925 122.561,272.018 122.855,272.138 C123.149,272.258 123.296,272.45 123.296,272.714 C123.296,272.942 123.212,273.125 123.044,273.263 C122.876,273.401 122.672,273.509 122.432,273.587 C122.192,273.665 121.949,273.716 121.703,273.74 C121.457,273.764 121.25,273.776 121.082,273.776 C120.902,273.776 120.653,273.746 120.335,273.686 C120.017,273.626 119.699,273.545 119.381,273.443 C119.063,273.341 118.79,273.215 118.562,273.065 C118.334,272.915 118.22,272.75 118.22,272.57 C118.22,272.51 118.223,272.453 118.229,272.399 C118.235,272.345 118.238,272.294 118.238,272.246 L118.238,272.246 L117.896,272.156 L117.068,274.172 L117.32,274.352 C117.38,274.28 117.452,274.244 117.536,274.244 C117.584,274.244 117.722,274.289 117.95,274.379 C118.178,274.469 118.457,274.565 118.787,274.667 C119.117,274.769 119.483,274.859 119.885,274.937 C120.287,275.015 120.692,275.054 121.1,275.054 Z M134.672,275.054 C135.14,275.054 135.575,275.021 135.977,274.955 C136.379,274.889 136.727,274.766 137.021,274.586 C137.315,274.406 137.546,274.166 137.714,273.866 C137.882,273.566 137.966,273.2 137.966,272.768 L137.966,272.768 L137.966,267.854 C137.966,267.722 138.02,267.614 138.128,267.53 C138.236,267.446 138.35,267.404 138.47,267.404 L138.47,267.404 L138.47,267.08 L135.788,267.08 L135.788,267.404 C135.872,267.404 135.968,267.446 136.076,267.53 C136.184,267.614 136.238,267.722 136.238,267.854 L136.238,267.854 L136.238,272.552 C136.238,273.044 136.109,273.371 135.851,273.533 C135.593,273.695 135.206,273.776 134.69,273.776 C134.246,273.776 133.853,273.713 133.511,273.587 C133.169,273.461 132.956,273.332 132.872,273.2 C132.812,273.128 132.779,273.041 132.773,272.939 C132.767,272.837 132.764,272.744 132.764,272.66 L132.764,272.66 L132.512,272.57 L131.666,274.64 L131.828,274.784 C131.888,274.724 131.942,274.673 131.99,274.631 C132.038,274.589 132.11,274.568 132.206,274.568 C132.314,274.568 132.452,274.595 132.62,274.649 C132.788,274.703 132.98,274.763 133.196,274.829 C133.412,274.895 133.646,274.949 133.898,274.991 C134.15,275.033 134.408,275.054 134.672,275.054 Z M145.796,275.054 C146.516,275.054 147.143,274.979 147.677,274.829 C148.211,274.679 148.649,274.472 148.991,274.208 C149.333,273.944 149.588,273.641 149.756,273.299 C149.924,272.957 150.008,272.6 150.008,272.228 L150.008,272.228 L150.008,267.674 C150.008,267.494 150.14,267.404 150.404,267.404 L150.404,267.404 L150.404,267.08 L147.902,267.08 L147.902,267.404 C148.202,267.404 148.352,267.494 148.352,267.674 L148.352,267.674 L148.352,271.796 C148.352,272.372 148.142,272.834 147.722,273.182 C147.302,273.53 146.66,273.704 145.796,273.704 C144.932,273.704 144.29,273.53 143.87,273.182 C143.45,272.834 143.24,272.372 143.24,271.796 L143.24,271.796 L143.24,267.674 C143.24,267.494 143.372,267.404 143.636,267.404 L143.636,267.404 L143.636,267.08 L141.062,267.08 L141.062,267.404 C141.266,267.404 141.404,267.425 141.476,267.467 C141.548,267.509 141.584,267.578 141.584,267.674 L141.584,267.674 L141.584,272.228 C141.584,272.6 141.668,272.957 141.836,273.299 C142.004,273.641 142.259,273.944 142.601,274.208 C142.943,274.472 143.381,274.679 143.915,274.829 C144.449,274.979 145.076,275.054 145.796,275.054 Z M156.596,275.054 C157.004,275.054 157.439,275.024 157.901,274.964 C158.363,274.904 158.786,274.778 159.17,274.586 C159.554,274.394 159.875,274.13 160.133,273.794 C160.391,273.458 160.52,273.026 160.52,272.498 C160.52,271.97 160.373,271.556 160.079,271.256 C159.785,270.956 159.416,270.728 158.972,270.572 C158.528,270.416 158.048,270.305 157.532,270.239 C157.016,270.173 156.536,270.107 156.092,270.041 C155.648,269.975 155.279,269.885 154.985,269.771 C154.691,269.657 154.544,269.468 154.544,269.204 C154.544,269.036 154.592,268.895 154.688,268.781 C154.784,268.667 154.916,268.574 155.084,268.502 C155.252,268.43 155.444,268.379 155.66,268.349 C155.876,268.319 156.104,268.304 156.344,268.304 C156.968,268.304 157.532,268.376 158.036,268.52 C158.54,268.664 158.912,268.838 159.152,269.042 C159.248,269.114 159.302,269.186 159.314,269.258 L159.314,269.258 L159.35,269.474 L159.674,269.582 L160.574,267.89 L160.376,267.692 C160.304,267.728 160.244,267.761 160.196,267.791 C160.148,267.821 160.076,267.836 159.98,267.836 C159.896,267.836 159.767,267.791 159.593,267.701 C159.419,267.611 159.194,267.512 158.918,267.404 C158.642,267.296 158.303,267.197 157.901,267.107 C157.499,267.017 157.016,266.972 156.452,266.972 C155.3,266.972 154.406,267.2 153.77,267.656 C153.134,268.112 152.816,268.724 152.816,269.492 C152.816,270.008 152.963,270.407 153.257,270.689 C153.551,270.971 153.92,271.187 154.364,271.337 C154.808,271.487 155.288,271.595 155.804,271.661 C156.32,271.727 156.8,271.793 157.244,271.859 C157.688,271.925 158.057,272.018 158.351,272.138 C158.645,272.258 158.792,272.45 158.792,272.714 C158.792,272.942 158.708,273.125 158.54,273.263 C158.372,273.401 158.168,273.509 157.928,273.587 C157.688,273.665 157.445,273.716 157.199,273.74 C156.953,273.764 156.746,273.776 156.578,273.776 C156.398,273.776 156.149,273.746 155.831,273.686 C155.513,273.626 155.195,273.545 154.877,273.443 C154.559,273.341 154.286,273.215 154.058,273.065 C153.83,272.915 153.716,272.75 153.716,272.57 C153.716,272.51 153.719,272.453 153.725,272.399 C153.731,272.345 153.734,272.294 153.734,272.246 L153.734,272.246 L153.392,272.156 L152.564,274.172 L152.816,274.352 C152.876,274.28 152.948,274.244 153.032,274.244 C153.08,274.244 153.218,274.289 153.446,274.379 C153.674,274.469 153.953,274.565 154.283,274.667 C154.613,274.769 154.979,274.859 155.381,274.937 C155.783,275.015 156.188,275.054 156.596,275.054 Z M167.432,275 L167.432,274.676 C167.216,274.676 167.108,274.586 167.108,274.406 L167.108,274.406 L167.108,268.412 L169.448,268.412 C169.544,268.412 169.634,268.436 169.718,268.484 C169.802,268.532 169.844,268.61 169.844,268.718 L169.844,268.718 L170.168,268.718 L170.168,266.648 L169.844,266.648 C169.844,266.816 169.802,266.93 169.718,266.99 C169.634,267.05 169.544,267.08 169.448,267.08 L169.448,267.08 L163.04,267.08 C162.944,267.08 162.854,267.05 162.77,266.99 C162.686,266.93 162.644,266.816 162.644,266.648 L162.644,266.648 L162.32,266.648 L162.32,268.718 L162.644,268.718 C162.644,268.61 162.686,268.532 162.77,268.484 C162.854,268.436 162.944,268.412 163.04,268.412 L163.04,268.412 L165.38,268.412 L165.38,274.406 C165.38,274.502 165.35,274.571 165.29,274.613 C165.23,274.655 165.17,274.676 165.11,274.676 L165.11,274.676 L165.11,275 L167.432,275 Z M185.144,275.198 L185.144,273.308 L184.82,273.308 C184.82,273.416 184.772,273.503 184.676,273.569 C184.58,273.635 184.46,273.668 184.316,273.668 L184.316,273.668 L179.708,273.668 L179.708,271.544 L182.336,271.544 C182.576,271.544 182.762,271.559 182.894,271.589 C183.026,271.619 183.074,271.7 183.038,271.832 L183.038,271.832 L183.398,271.832 L183.398,269.924 L183.074,269.924 C183.074,270.056 183.026,270.137 182.93,270.167 C182.834,270.197 182.684,270.212 182.48,270.212 L182.48,270.212 L179.708,270.212 L179.708,268.412 L184.1,268.412 C184.472,268.412 184.658,268.526 184.658,268.754 L184.658,268.754 L184.982,268.754 L184.982,266.756 L184.658,266.756 C184.658,266.972 184.472,267.08 184.1,267.08 L184.1,267.08 L177.71,267.08 L177.71,267.404 C177.77,267.404 177.83,267.425 177.89,267.467 C177.95,267.509 177.98,267.578 177.98,267.674 L177.98,267.674 L177.98,274.406 C177.98,274.502 177.95,274.571 177.89,274.613 C177.83,274.655 177.77,274.676 177.71,274.676 L177.71,274.676 L177.71,275 L184.316,275 C184.46,275 184.58,275.006 184.676,275.018 C184.772,275.03 184.82,275.09 184.82,275.198 L184.82,275.198 L185.144,275.198 Z M188.924,275 L188.924,274.676 C188.816,274.676 188.732,274.664 188.672,274.64 C188.612,274.616 188.582,274.556 188.582,274.46 C188.582,274.4 188.597,274.331 188.627,274.253 C188.657,274.175 188.696,274.088 188.744,273.992 L188.744,273.992 L189.248,273.02 L193.1,273.02 L193.586,274.046 C193.622,274.142 193.652,274.22 193.676,274.28 C193.7,274.34 193.712,274.406 193.712,274.478 C193.712,274.574 193.679,274.64 193.613,274.676 C193.547,274.712 193.484,274.73 193.424,274.73 L193.424,274.73 L193.424,275 L195.98,275 L195.98,274.676 C195.896,274.652 195.818,274.616 195.746,274.568 C195.674,274.52 195.608,274.442 195.548,274.334 L195.548,274.334 L192.632,268.214 C192.572,268.082 192.515,267.965 192.461,267.863 C192.407,267.761 192.38,267.674 192.38,267.602 C192.38,267.518 192.401,267.47 192.443,267.458 C192.485,267.446 192.524,267.428 192.56,267.404 L192.56,267.404 L192.56,267.08 L189.842,267.08 L189.842,267.404 C189.878,267.428 189.911,267.449 189.941,267.467 C189.971,267.485 189.986,267.53 189.986,267.602 C189.986,267.698 189.965,267.797 189.923,267.899 C189.881,268.001 189.824,268.136 189.752,268.304 L189.752,268.304 L187.07,274.154 C187.022,274.25 186.953,274.355 186.863,274.469 C186.773,274.583 186.656,274.652 186.512,274.676 L186.512,274.676 L186.512,275 L188.924,275 Z M192.524,271.688 L189.788,271.688 L191.066,268.664 L192.524,271.688 Z M200.048,275 L200.048,274.676 C199.976,274.676 199.901,274.655 199.823,274.613 C199.745,274.571 199.706,274.502 199.706,274.406 L199.706,274.406 L199.706,271.832 L202.208,271.832 L203.63,273.956 C203.81,274.208 203.9,274.394 203.9,274.514 C203.9,274.622 203.822,274.676 203.666,274.676 L203.666,274.676 L203.666,275 L206.42,275 L206.42,274.676 C206.288,274.64 206.165,274.589 206.051,274.523 C205.937,274.457 205.832,274.358 205.736,274.226 L205.736,274.226 L203.972,271.652 C204.224,271.592 204.47,271.505 204.71,271.391 C204.95,271.277 205.169,271.127 205.367,270.941 C205.565,270.755 205.724,270.536 205.844,270.284 C205.964,270.032 206.024,269.744 206.024,269.42 C206.024,268.568 205.724,267.965 205.124,267.611 C204.524,267.257 203.69,267.08 202.622,267.08 L202.622,267.08 L197.654,267.08 L197.654,267.404 C197.87,267.404 197.978,267.494 197.978,267.674 L197.978,267.674 L197.978,274.406 C197.978,274.586 197.87,274.676 197.654,274.676 L197.654,274.676 L197.654,275 L200.048,275 Z M202.586,270.5 L199.742,270.5 L199.742,268.412 L202.586,268.412 C203.198,268.412 203.645,268.499 203.927,268.673 C204.209,268.847 204.35,269.084 204.35,269.384 C204.35,270.128 203.762,270.5 202.586,270.5 L202.586,270.5 Z M216.5,275.18 L216.5,273.29 L216.176,273.29 C216.176,273.41 216.128,273.503 216.032,273.569 C215.936,273.635 215.816,273.668 215.672,273.668 L215.672,273.668 L210.812,273.668 L210.812,267.674 C210.812,267.494 210.95,267.404 211.226,267.404 L211.226,267.404 L211.226,267.08 L208.616,267.08 L208.616,267.404 C208.928,267.404 209.084,267.494 209.084,267.674 L209.084,267.674 L209.084,274.406 C209.084,274.586 208.928,274.676 208.616,274.676 L208.616,274.676 L208.616,275 L215.672,275 C215.816,275 215.936,275.006 216.032,275.018 C216.128,275.03 216.176,275.084 216.176,275.18 L216.176,275.18 L216.5,275.18 Z M223.466,275 L223.466,274.676 C223.238,274.676 223.124,274.586 223.124,274.406 L223.124,274.406 L223.124,271.706 L225.878,268.142 C226.01,267.974 226.163,267.809 226.337,267.647 C226.511,267.485 226.67,267.404 226.814,267.404 L226.814,267.404 L226.814,267.08 L224.06,267.08 L224.06,267.404 C224.12,267.404 224.18,267.416 224.24,267.44 C224.3,267.464 224.33,267.524 224.33,267.62 C224.33,267.692 224.303,267.767 224.249,267.845 C224.195,267.923 224.114,268.04 224.006,268.196 L224.006,268.196 L222.404,270.428 L220.586,268.052 C220.526,267.968 220.472,267.896 220.424,267.836 C220.376,267.776 220.352,267.71 220.352,267.638 C220.352,267.566 220.388,267.509 220.46,267.467 C220.532,267.425 220.598,267.404 220.658,267.404 L220.658,267.404 L220.658,267.08 L217.688,267.08 L217.688,267.404 C217.796,267.404 217.91,267.428 218.03,267.476 C218.15,267.524 218.252,267.602 218.336,267.71 L218.336,267.71 L221.396,271.634 L221.396,274.406 C221.396,274.586 221.288,274.676 221.072,274.676 L221.072,274.676 L221.072,275 L223.466,275 Z M88.934,293 L88.934,292.676 C88.826,292.676 88.742,292.664 88.682,292.64 C88.622,292.616 88.592,292.556 88.592,292.46 C88.592,292.4 88.607,292.331 88.637,292.253 C88.667,292.175 88.706,292.088 88.754,291.992 L88.754,291.992 L89.258,291.02 L93.11,291.02 L93.596,292.046 C93.632,292.142 93.662,292.22 93.686,292.28 C93.71,292.34 93.722,292.406 93.722,292.478 C93.722,292.574 93.689,292.64 93.623,292.676 C93.557,292.712 93.494,292.73 93.434,292.73 L93.434,292.73 L93.434,293 L95.99,293 L95.99,292.676 C95.906,292.652 95.828,292.616 95.756,292.568 C95.684,292.52 95.618,292.442 95.558,292.334 L95.558,292.334 L92.642,286.214 C92.582,286.082 92.525,285.965 92.471,285.863 C92.417,285.761 92.39,285.674 92.39,285.602 C92.39,285.518 92.411,285.47 92.453,285.458 C92.495,285.446 92.534,285.428 92.57,285.404 L92.57,285.404 L92.57,285.08 L89.852,285.08 L89.852,285.404 C89.888,285.428 89.921,285.449 89.951,285.467 C89.981,285.485 89.996,285.53 89.996,285.602 C89.996,285.698 89.975,285.797 89.933,285.899 C89.891,286.001 89.834,286.136 89.762,286.304 L89.762,286.304 L87.08,292.154 C87.032,292.25 86.963,292.355 86.873,292.469 C86.783,292.583 86.666,292.652 86.522,292.676 L86.522,292.676 L86.522,293 L88.934,293 Z M92.534,289.688 L89.798,289.688 L91.076,286.664 L92.534,289.688 Z M100.058,293 L100.058,292.676 C99.986,292.676 99.911,292.655 99.833,292.613 C99.755,292.571 99.716,292.502 99.716,292.406 L99.716,292.406 L99.716,289.832 L102.218,289.832 L103.64,291.956 C103.82,292.208 103.91,292.394 103.91,292.514 C103.91,292.622 103.832,292.676 103.676,292.676 L103.676,292.676 L103.676,293 L106.43,293 L106.43,292.676 C106.298,292.64 106.175,292.589 106.061,292.523 C105.947,292.457 105.842,292.358 105.746,292.226 L105.746,292.226 L103.982,289.652 C104.234,289.592 104.48,289.505 104.72,289.391 C104.96,289.277 105.179,289.127 105.377,288.941 C105.575,288.755 105.734,288.536 105.854,288.284 C105.974,288.032 106.034,287.744 106.034,287.42 C106.034,286.568 105.734,285.965 105.134,285.611 C104.534,285.257 103.7,285.08 102.632,285.08 L102.632,285.08 L97.664,285.08 L97.664,285.404 C97.88,285.404 97.988,285.494 97.988,285.674 L97.988,285.674 L97.988,292.406 C97.988,292.586 97.88,292.676 97.664,292.676 L97.664,292.676 L97.664,293 L100.058,293 Z M102.596,288.5 L99.752,288.5 L99.752,286.412 L102.596,286.412 C103.208,286.412 103.655,286.499 103.937,286.673 C104.219,286.847 104.36,287.084 104.36,287.384 C104.36,288.128 103.772,288.5 102.596,288.5 L102.596,288.5 Z M112.946,293 L112.946,292.676 C112.73,292.676 112.622,292.586 112.622,292.406 L112.622,292.406 L112.622,286.412 L114.962,286.412 C115.058,286.412 115.148,286.436 115.232,286.484 C115.316,286.532 115.358,286.61 115.358,286.718 L115.358,286.718 L115.682,286.718 L115.682,284.648 L115.358,284.648 C115.358,284.816 115.316,284.93 115.232,284.99 C115.148,285.05 115.058,285.08 114.962,285.08 L114.962,285.08 L108.554,285.08 C108.458,285.08 108.368,285.05 108.284,284.99 C108.2,284.93 108.158,284.816 108.158,284.648 L108.158,284.648 L107.834,284.648 L107.834,286.718 L108.158,286.718 C108.158,286.61 108.2,286.532 108.284,286.484 C108.368,286.436 108.458,286.412 108.554,286.412 L108.554,286.412 L110.894,286.412 L110.894,292.406 C110.894,292.502 110.864,292.571 110.804,292.613 C110.744,292.655 110.684,292.676 110.624,292.676 L110.624,292.676 L110.624,293 L112.946,293 Z M120.11,293 L120.11,292.676 C120.038,292.676 119.975,292.655 119.921,292.613 C119.867,292.571 119.84,292.502 119.84,292.406 L119.84,292.406 L119.84,289.688 L124.664,289.688 L124.664,292.406 C124.664,292.502 124.637,292.571 124.583,292.613 C124.529,292.655 124.466,292.676 124.394,292.676 L124.394,292.676 L124.394,293 L126.662,293 L126.662,292.676 C126.59,292.676 126.527,292.655 126.473,292.613 C126.419,292.571 126.392,292.502 126.392,292.406 L126.392,292.406 L126.392,285.674 C126.392,285.578 126.419,285.509 126.473,285.467 C126.527,285.425 126.59,285.404 126.662,285.404 L126.662,285.404 L126.662,285.08 L124.394,285.08 L124.394,285.404 C124.466,285.404 124.529,285.425 124.583,285.467 C124.637,285.509 124.664,285.578 124.664,285.674 L124.664,285.674 L124.664,288.212 L119.84,288.212 L119.84,285.674 C119.84,285.578 119.867,285.509 119.921,285.467 C119.975,285.425 120.038,285.404 120.11,285.404 L120.11,285.404 L120.11,285.08 L117.842,285.08 L117.842,285.404 C117.914,285.404 117.977,285.425 118.031,285.467 C118.085,285.509 118.112,285.578 118.112,285.674 L118.112,285.674 L118.112,292.406 C118.112,292.502 118.085,292.571 118.031,292.613 C117.977,292.655 117.914,292.676 117.842,292.676 L117.842,292.676 L117.842,293 L120.11,293 Z M132.062,293 L132.062,292.676 C131.99,292.676 131.915,292.655 131.837,292.613 C131.759,292.571 131.72,292.502 131.72,292.406 L131.72,292.406 L131.72,289.832 L134.222,289.832 L135.644,291.956 C135.824,292.208 135.914,292.394 135.914,292.514 C135.914,292.622 135.836,292.676 135.68,292.676 L135.68,292.676 L135.68,293 L138.434,293 L138.434,292.676 C138.302,292.64 138.179,292.589 138.065,292.523 C137.951,292.457 137.846,292.358 137.75,292.226 L137.75,292.226 L135.986,289.652 C136.238,289.592 136.484,289.505 136.724,289.391 C136.964,289.277 137.183,289.127 137.381,288.941 C137.579,288.755 137.738,288.536 137.858,288.284 C137.978,288.032 138.038,287.744 138.038,287.42 C138.038,286.568 137.738,285.965 137.138,285.611 C136.538,285.257 135.704,285.08 134.636,285.08 L134.636,285.08 L129.668,285.08 L129.668,285.404 C129.884,285.404 129.992,285.494 129.992,285.674 L129.992,285.674 L129.992,292.406 C129.992,292.586 129.884,292.676 129.668,292.676 L129.668,292.676 L129.668,293 L132.062,293 Z M134.6,288.5 L131.756,288.5 L131.756,286.412 L134.6,286.412 C135.212,286.412 135.659,286.499 135.941,286.673 C136.223,286.847 136.364,287.084 136.364,287.384 C136.364,288.128 135.776,288.5 134.6,288.5 L134.6,288.5 Z M143.618,293 L143.618,292.676 C143.282,292.676 143.114,292.586 143.114,292.406 L143.114,292.406 L143.114,285.674 C143.114,285.494 143.282,285.404 143.618,285.404 L143.618,285.404 L143.618,285.08 L140.882,285.08 L140.882,285.404 C141.074,285.404 141.206,285.425 141.278,285.467 C141.35,285.509 141.386,285.578 141.386,285.674 L141.386,285.674 L141.386,292.406 C141.386,292.502 141.35,292.571 141.278,292.613 C141.206,292.655 141.074,292.676 140.882,292.676 L140.882,292.676 L140.882,293 L143.618,293 Z M150.944,293 L150.944,292.676 C150.728,292.676 150.62,292.586 150.62,292.406 L150.62,292.406 L150.62,286.412 L152.96,286.412 C153.056,286.412 153.146,286.436 153.23,286.484 C153.314,286.532 153.356,286.61 153.356,286.718 L153.356,286.718 L153.68,286.718 L153.68,284.648 L153.356,284.648 C153.356,284.816 153.314,284.93 153.23,284.99 C153.146,285.05 153.056,285.08 152.96,285.08 L152.96,285.08 L146.552,285.08 C146.456,285.08 146.366,285.05 146.282,284.99 C146.198,284.93 146.156,284.816 146.156,284.648 L146.156,284.648 L145.832,284.648 L145.832,286.718 L146.156,286.718 C146.156,286.61 146.198,286.532 146.282,286.484 C146.366,286.436 146.456,286.412 146.552,286.412 L146.552,286.412 L148.892,286.412 L148.892,292.406 C148.892,292.502 148.862,292.571 148.802,292.613 C148.742,292.655 148.682,292.676 148.622,292.676 L148.622,292.676 L148.622,293 L150.944,293 Z M158.612,293 L158.612,292.676 C158.276,292.676 158.108,292.586 158.108,292.406 L158.108,292.406 L158.108,285.674 C158.108,285.494 158.276,285.404 158.612,285.404 L158.612,285.404 L158.612,285.08 L155.876,285.08 L155.876,285.404 C156.068,285.404 156.2,285.425 156.272,285.467 C156.344,285.509 156.38,285.578 156.38,285.674 L156.38,285.674 L156.38,292.406 C156.38,292.502 156.344,292.571 156.272,292.613 C156.2,292.655 156.068,292.676 155.876,292.676 L155.876,292.676 L155.876,293 L158.612,293 Z M165.11,293.054 C165.518,293.054 165.953,293.024 166.415,292.964 C166.877,292.904 167.3,292.778 167.684,292.586 C168.068,292.394 168.389,292.13 168.647,291.794 C168.905,291.458 169.034,291.026 169.034,290.498 C169.034,289.97 168.887,289.556 168.593,289.256 C168.299,288.956 167.93,288.728 167.486,288.572 C167.042,288.416 166.562,288.305 166.046,288.239 C165.53,288.173 165.05,288.107 164.606,288.041 C164.162,287.975 163.793,287.885 163.499,287.771 C163.205,287.657 163.058,287.468 163.058,287.204 C163.058,287.036 163.106,286.895 163.202,286.781 C163.298,286.667 163.43,286.574 163.598,286.502 C163.766,286.43 163.958,286.379 164.174,286.349 C164.39,286.319 164.618,286.304 164.858,286.304 C165.482,286.304 166.046,286.376 166.55,286.52 C167.054,286.664 167.426,286.838 167.666,287.042 C167.762,287.114 167.816,287.186 167.828,287.258 C167.84,287.33 167.852,287.402 167.864,287.474 L167.864,287.474 L168.188,287.582 L169.088,285.89 L168.89,285.692 C168.818,285.728 168.758,285.761 168.71,285.791 C168.662,285.821 168.59,285.836 168.494,285.836 C168.41,285.836 168.281,285.791 168.107,285.701 C167.933,285.611 167.708,285.512 167.432,285.404 C167.156,285.296 166.817,285.197 166.415,285.107 C166.013,285.017 165.53,284.972 164.966,284.972 C163.814,284.972 162.92,285.2 162.284,285.656 C161.648,286.112 161.33,286.724 161.33,287.492 C161.33,288.008 161.477,288.407 161.771,288.689 C162.065,288.971 162.434,289.187 162.878,289.337 C163.322,289.487 163.802,289.595 164.318,289.661 C164.834,289.727 165.314,289.793 165.758,289.859 C166.202,289.925 166.571,290.018 166.865,290.138 C167.159,290.258 167.306,290.45 167.306,290.714 C167.306,290.942 167.222,291.125 167.054,291.263 C166.886,291.401 166.682,291.509 166.442,291.587 C166.202,291.665 165.959,291.716 165.713,291.74 C165.467,291.764 165.26,291.776 165.092,291.776 C164.912,291.776 164.663,291.746 164.345,291.686 C164.027,291.626 163.709,291.545 163.391,291.443 C163.073,291.341 162.8,291.215 162.572,291.065 C162.344,290.915 162.23,290.75 162.23,290.57 C162.23,290.51 162.233,290.453 162.239,290.399 C162.245,290.345 162.248,290.294 162.248,290.246 L162.248,290.246 L161.906,290.156 L161.078,292.172 L161.33,292.352 C161.39,292.28 161.462,292.244 161.546,292.244 C161.594,292.244 161.732,292.289 161.96,292.379 C162.188,292.469 162.467,292.565 162.797,292.667 C163.127,292.769 163.493,292.859 163.895,292.937 C164.297,293.015 164.702,293.054 165.11,293.054 Z M172.994,293.054 C173.342,293.054 173.642,292.937 173.894,292.703 C174.146,292.469 174.272,292.178 174.272,291.83 C174.272,291.482 174.146,291.182 173.894,290.93 C173.642,290.678 173.342,290.552 172.994,290.552 C172.646,290.552 172.346,290.678 172.094,290.93 C171.842,291.182 171.716,291.482 171.716,291.83 C171.716,292.178 171.842,292.469 172.094,292.703 C172.346,292.937 172.646,293.054 172.994,293.054 Z M58.19,311 L58.19,310.676 C57.962,310.676 57.848,310.61 57.848,310.478 C57.848,310.37 57.908,310.19 58.028,309.938 L58.028,309.938 L58.676,308.66 L63.068,308.66 L63.752,309.992 C63.848,310.184 63.896,310.34 63.896,310.46 C63.896,310.532 63.86,310.586 63.788,310.622 C63.716,310.658 63.656,310.676 63.608,310.676 L63.608,310.676 L63.608,311 L66.776,311 L66.776,310.676 C66.644,310.616 66.527,310.556 66.425,310.496 C66.323,310.436 66.242,310.34 66.182,310.208 L66.182,310.208 L62.438,302.882 C62.354,302.726 62.291,302.6 62.249,302.504 C62.207,302.408 62.186,302.312 62.186,302.216 C62.186,302.084 62.228,301.997 62.312,301.955 C62.396,301.913 62.48,301.88 62.564,301.856 L62.564,301.856 L62.564,301.532 L59.522,301.532 L59.522,301.856 C59.618,301.88 59.708,301.916 59.792,301.964 C59.876,302.012 59.918,302.096 59.918,302.216 C59.918,302.312 59.885,302.426 59.819,302.558 C59.753,302.69 59.678,302.834 59.594,302.99 L59.594,302.99 L56.264,309.992 C56.18,310.16 56.093,310.31 56.003,310.442 C55.913,310.574 55.79,310.652 55.634,310.676 L55.634,310.676 L55.634,311 L58.19,311 Z M62.42,307.328 L59.216,307.328 L60.908,303.98 L62.42,307.328 Z M73.544,311 C74.252,311 74.852,310.886 75.344,310.658 C75.836,310.43 76.238,310.133 76.55,309.767 C76.862,309.401 77.09,308.981 77.234,308.507 C77.378,308.033 77.45,307.544 77.45,307.04 C77.45,306.536 77.375,306.047 77.225,305.573 C77.075,305.099 76.841,304.679 76.523,304.313 C76.205,303.947 75.794,303.65 75.29,303.422 C74.786,303.194 74.18,303.08 73.472,303.08 L73.472,303.08 L68.468,303.08 L68.468,303.404 C68.744,303.404 68.882,303.494 68.882,303.674 L68.882,303.674 L68.882,310.406 C68.882,310.586 68.744,310.676 68.468,310.676 L68.468,310.676 L68.468,311 L73.544,311 Z M72.95,309.668 L70.61,309.668 L70.61,304.412 L72.95,304.412 C73.322,304.412 73.676,304.433 74.012,304.475 C74.348,304.517 74.642,304.625 74.894,304.799 C75.146,304.973 75.347,305.231 75.497,305.573 C75.647,305.915 75.722,306.386 75.722,306.986 C75.722,307.586 75.647,308.063 75.497,308.417 C75.347,308.771 75.146,309.041 74.894,309.227 C74.642,309.413 74.348,309.533 74.012,309.587 C73.676,309.641 73.322,309.668 72.95,309.668 L72.95,309.668 Z M84.542,311 C85.25,311 85.85,310.886 86.342,310.658 C86.834,310.43 87.236,310.133 87.548,309.767 C87.86,309.401 88.088,308.981 88.232,308.507 C88.376,308.033 88.448,307.544 88.448,307.04 C88.448,306.536 88.373,306.047 88.223,305.573 C88.073,305.099 87.839,304.679 87.521,304.313 C87.203,303.947 86.792,303.65 86.288,303.422 C85.784,303.194 85.178,303.08 84.47,303.08 L84.47,303.08 L79.466,303.08 L79.466,303.404 C79.742,303.404 79.88,303.494 79.88,303.674 L79.88,303.674 L79.88,310.406 C79.88,310.586 79.742,310.676 79.466,310.676 L79.466,310.676 L79.466,311 L84.542,311 Z M83.948,309.668 L81.608,309.668 L81.608,304.412 L83.948,304.412 C84.32,304.412 84.674,304.433 85.01,304.475 C85.346,304.517 85.64,304.625 85.892,304.799 C86.144,304.973 86.345,305.231 86.495,305.573 C86.645,305.915 86.72,306.386 86.72,306.986 C86.72,307.586 86.645,308.063 86.495,308.417 C86.345,308.771 86.144,309.041 85.892,309.227 C85.64,309.413 85.346,309.533 85.01,309.587 C84.674,309.641 84.32,309.668 83.948,309.668 L83.948,309.668 Z M100.436,311 L100.436,310.676 C100.22,310.676 100.112,310.586 100.112,310.406 L100.112,310.406 L100.112,304.412 L102.452,304.412 C102.548,304.412 102.638,304.436 102.722,304.484 C102.806,304.532 102.848,304.61 102.848,304.718 L102.848,304.718 L103.172,304.718 L103.172,302.648 L102.848,302.648 C102.848,302.816 102.806,302.93 102.722,302.99 C102.638,303.05 102.548,303.08 102.452,303.08 L102.452,303.08 L96.044,303.08 C95.948,303.08 95.858,303.05 95.774,302.99 C95.69,302.93 95.648,302.816 95.648,302.648 L95.648,302.648 L95.324,302.648 L95.324,304.718 L95.648,304.718 C95.648,304.61 95.69,304.532 95.774,304.484 C95.858,304.436 95.948,304.412 96.044,304.412 L96.044,304.412 L98.384,304.412 L98.384,310.406 C98.384,310.502 98.354,310.571 98.294,310.613 C98.234,310.655 98.174,310.676 98.114,310.676 L98.114,310.676 L98.114,311 L100.436,311 Z M107.6,311 L107.6,310.676 C107.528,310.676 107.465,310.655 107.411,310.613 C107.357,310.571 107.33,310.502 107.33,310.406 L107.33,310.406 L107.33,307.688 L112.154,307.688 L112.154,310.406 C112.154,310.502 112.127,310.571 112.073,310.613 C112.019,310.655 111.956,310.676 111.884,310.676 L111.884,310.676 L111.884,311 L114.152,311 L114.152,310.676 C114.08,310.676 114.017,310.655 113.963,310.613 C113.909,310.571 113.882,310.502 113.882,310.406 L113.882,310.406 L113.882,303.674 C113.882,303.578 113.909,303.509 113.963,303.467 C114.017,303.425 114.08,303.404 114.152,303.404 L114.152,303.404 L114.152,303.08 L111.884,303.08 L111.884,303.404 C111.956,303.404 112.019,303.425 112.073,303.467 C112.127,303.509 112.154,303.578 112.154,303.674 L112.154,303.674 L112.154,306.212 L107.33,306.212 L107.33,303.674 C107.33,303.578 107.357,303.509 107.411,303.467 C107.465,303.425 107.528,303.404 107.6,303.404 L107.6,303.404 L107.6,303.08 L105.332,303.08 L105.332,303.404 C105.404,303.404 105.467,303.425 105.521,303.467 C105.575,303.509 105.602,303.578 105.602,303.674 L105.602,303.674 L105.602,310.406 C105.602,310.502 105.575,310.571 105.521,310.613 C105.467,310.655 105.404,310.676 105.332,310.676 L105.332,310.676 L105.332,311 L107.6,311 Z M120.11,311 L120.11,310.676 C119.774,310.676 119.606,310.586 119.606,310.406 L119.606,310.406 L119.606,303.674 C119.606,303.494 119.774,303.404 120.11,303.404 L120.11,303.404 L120.11,303.08 L117.374,303.08 L117.374,303.404 C117.566,303.404 117.698,303.425 117.77,303.467 C117.842,303.509 117.878,303.578 117.878,303.674 L117.878,303.674 L117.878,310.406 C117.878,310.502 117.842,310.571 117.77,310.613 C117.698,310.655 117.566,310.676 117.374,310.676 L117.374,310.676 L117.374,311 L120.11,311 Z M126.608,311.054 C127.016,311.054 127.451,311.024 127.913,310.964 C128.375,310.904 128.798,310.778 129.182,310.586 C129.566,310.394 129.887,310.13 130.145,309.794 C130.403,309.458 130.532,309.026 130.532,308.498 C130.532,307.97 130.385,307.556 130.091,307.256 C129.797,306.956 129.428,306.728 128.984,306.572 C128.54,306.416 128.06,306.305 127.544,306.239 C127.028,306.173 126.548,306.107 126.104,306.041 C125.66,305.975 125.291,305.885 124.997,305.771 C124.703,305.657 124.556,305.468 124.556,305.204 C124.556,305.036 124.604,304.895 124.7,304.781 C124.796,304.667 124.928,304.574 125.096,304.502 C125.264,304.43 125.456,304.379 125.672,304.349 C125.888,304.319 126.116,304.304 126.356,304.304 C126.98,304.304 127.544,304.376 128.048,304.52 C128.552,304.664 128.924,304.838 129.164,305.042 C129.26,305.114 129.314,305.186 129.326,305.258 L129.326,305.258 L129.362,305.474 L129.686,305.582 L130.586,303.89 L130.388,303.692 C130.316,303.728 130.256,303.761 130.208,303.791 C130.16,303.821 130.088,303.836 129.992,303.836 C129.908,303.836 129.779,303.791 129.605,303.701 C129.431,303.611 129.206,303.512 128.93,303.404 C128.654,303.296 128.315,303.197 127.913,303.107 C127.511,303.017 127.028,302.972 126.464,302.972 C125.312,302.972 124.418,303.2 123.782,303.656 C123.146,304.112 122.828,304.724 122.828,305.492 C122.828,306.008 122.975,306.407 123.269,306.689 C123.563,306.971 123.932,307.187 124.376,307.337 C124.82,307.487 125.3,307.595 125.816,307.661 C126.332,307.727 126.812,307.793 127.256,307.859 C127.7,307.925 128.069,308.018 128.363,308.138 C128.657,308.258 128.804,308.45 128.804,308.714 C128.804,308.942 128.72,309.125 128.552,309.263 C128.384,309.401 128.18,309.509 127.94,309.587 C127.7,309.665 127.457,309.716 127.211,309.74 C126.965,309.764 126.758,309.776 126.59,309.776 C126.41,309.776 126.161,309.746 125.843,309.686 C125.525,309.626 125.207,309.545 124.889,309.443 C124.571,309.341 124.298,309.215 124.07,309.065 C123.842,308.915 123.728,308.75 123.728,308.57 C123.728,308.51 123.731,308.453 123.737,308.399 C123.743,308.345 123.746,308.294 123.746,308.246 L123.746,308.246 L123.404,308.156 L122.576,310.172 L122.828,310.352 C122.888,310.28 122.96,310.244 123.044,310.244 C123.092,310.244 123.23,310.289 123.458,310.379 C123.686,310.469 123.965,310.565 124.295,310.667 C124.625,310.769 124.991,310.859 125.393,310.937 C125.795,311.015 126.2,311.054 126.608,311.054 Z M142.934,311 L142.934,310.676 C142.718,310.676 142.61,310.586 142.61,310.406 L142.61,310.406 L142.61,304.412 L144.95,304.412 C145.046,304.412 145.136,304.436 145.22,304.484 C145.304,304.532 145.346,304.61 145.346,304.718 L145.346,304.718 L145.67,304.718 L145.67,302.648 L145.346,302.648 C145.346,302.816 145.304,302.93 145.22,302.99 C145.136,303.05 145.046,303.08 144.95,303.08 L144.95,303.08 L138.542,303.08 C138.446,303.08 138.356,303.05 138.272,302.99 C138.188,302.93 138.146,302.816 138.146,302.648 L138.146,302.648 L137.822,302.648 L137.822,304.718 L138.146,304.718 C138.146,304.61 138.188,304.532 138.272,304.484 C138.356,304.436 138.446,304.412 138.542,304.412 L138.542,304.412 L140.882,304.412 L140.882,310.406 C140.882,310.502 140.852,310.571 140.792,310.613 C140.732,310.655 140.672,310.676 140.612,310.676 L140.612,310.676 L140.612,311 L142.934,311 Z M151.736,311.054 C152.396,311.054 153.017,310.979 153.599,310.829 C154.181,310.679 154.688,310.436 155.12,310.1 C155.552,309.764 155.894,309.341 156.146,308.831 C156.398,308.321 156.524,307.724 156.524,307.04 C156.524,306.356 156.398,305.759 156.146,305.249 C155.894,304.739 155.552,304.316 155.12,303.98 C154.688,303.644 154.181,303.392 153.599,303.224 C153.017,303.056 152.396,302.972 151.736,302.972 C151.076,302.972 150.455,303.056 149.873,303.224 C149.291,303.392 148.784,303.644 148.352,303.98 C147.92,304.316 147.578,304.739 147.326,305.249 C147.074,305.759 146.948,306.356 146.948,307.04 C146.948,307.724 147.074,308.321 147.326,308.831 C147.578,309.341 147.92,309.764 148.352,310.1 C148.784,310.436 149.291,310.679 149.873,310.829 C150.455,310.979 151.076,311.054 151.736,311.054 Z M151.736,309.776 C151.352,309.776 150.977,309.713 150.611,309.587 C150.245,309.461 149.918,309.281 149.63,309.047 C149.342,308.813 149.111,308.528 148.937,308.192 C148.763,307.856 148.676,307.472 148.676,307.04 C148.676,306.608 148.763,306.224 148.937,305.888 C149.111,305.552 149.342,305.267 149.63,305.033 C149.918,304.799 150.245,304.619 150.611,304.493 C150.977,304.367 151.352,304.304 151.736,304.304 C152.12,304.304 152.495,304.367 152.861,304.493 C153.227,304.619 153.554,304.799 153.842,305.033 C154.13,305.267 154.361,305.552 154.535,305.888 C154.709,306.224 154.796,306.608 154.796,307.04 C154.796,307.472 154.709,307.856 154.535,308.192 C154.361,308.528 154.13,308.813 153.842,309.047 C153.554,309.281 153.227,309.461 152.861,309.587 C152.495,309.713 152.12,309.776 151.736,309.776 Z M168.944,311 L168.944,310.676 C168.716,310.676 168.602,310.586 168.602,310.406 L168.602,310.406 L168.602,307.706 L171.356,304.142 C171.488,303.974 171.641,303.809 171.815,303.647 C171.989,303.485 172.148,303.404 172.292,303.404 L172.292,303.404 L172.292,303.08 L169.538,303.08 L169.538,303.404 C169.598,303.404 169.658,303.416 169.718,303.44 C169.778,303.464 169.808,303.524 169.808,303.62 C169.808,303.692 169.781,303.767 169.727,303.845 C169.673,303.923 169.592,304.04 169.484,304.196 L169.484,304.196 L167.882,306.428 L166.064,304.052 C166.004,303.968 165.95,303.896 165.902,303.836 C165.854,303.776 165.83,303.71 165.83,303.638 C165.83,303.566 165.866,303.509 165.938,303.467 C166.01,303.425 166.076,303.404 166.136,303.404 L166.136,303.404 L166.136,303.08 L163.166,303.08 L163.166,303.404 C163.274,303.404 163.388,303.428 163.508,303.476 C163.628,303.524 163.73,303.602 163.814,303.71 L163.814,303.71 L166.874,307.634 L166.874,310.406 C166.874,310.586 166.766,310.676 166.55,310.676 L166.55,310.676 L166.55,311 L168.944,311 Z M178.232,311.054 C178.892,311.054 179.513,310.979 180.095,310.829 C180.677,310.679 181.184,310.436 181.616,310.1 C182.048,309.764 182.39,309.341 182.642,308.831 C182.894,308.321 183.02,307.724 183.02,307.04 C183.02,306.356 182.894,305.759 182.642,305.249 C182.39,304.739 182.048,304.316 181.616,303.98 C181.184,303.644 180.677,303.392 180.095,303.224 C179.513,303.056 178.892,302.972 178.232,302.972 C177.572,302.972 176.951,303.056 176.369,303.224 C175.787,303.392 175.28,303.644 174.848,303.98 C174.416,304.316 174.074,304.739 173.822,305.249 C173.57,305.759 173.444,306.356 173.444,307.04 C173.444,307.724 173.57,308.321 173.822,308.831 C174.074,309.341 174.416,309.764 174.848,310.1 C175.28,310.436 175.787,310.679 176.369,310.829 C176.951,310.979 177.572,311.054 178.232,311.054 Z M178.232,309.776 C177.848,309.776 177.473,309.713 177.107,309.587 C176.741,309.461 176.414,309.281 176.126,309.047 C175.838,308.813 175.607,308.528 175.433,308.192 C175.259,307.856 175.172,307.472 175.172,307.04 C175.172,306.608 175.259,306.224 175.433,305.888 C175.607,305.552 175.838,305.267 176.126,305.033 C176.414,304.799 176.741,304.619 177.107,304.493 C177.473,304.367 177.848,304.304 178.232,304.304 C178.616,304.304 178.991,304.367 179.357,304.493 C179.723,304.619 180.05,304.799 180.338,305.033 C180.626,305.267 180.857,305.552 181.031,305.888 C181.205,306.224 181.292,306.608 181.292,307.04 C181.292,307.472 181.205,307.856 181.031,308.192 C180.857,308.528 180.626,308.813 180.338,309.047 C180.05,309.281 179.723,309.461 179.357,309.587 C178.991,309.713 178.616,309.776 178.232,309.776 Z M189.806,311.054 C190.526,311.054 191.153,310.979 191.687,310.829 C192.221,310.679 192.659,310.472 193.001,310.208 C193.343,309.944 193.598,309.641 193.766,309.299 C193.934,308.957 194.018,308.6 194.018,308.228 L194.018,308.228 L194.018,303.674 C194.018,303.494 194.15,303.404 194.414,303.404 L194.414,303.404 L194.414,303.08 L191.912,303.08 L191.912,303.404 C192.212,303.404 192.362,303.494 192.362,303.674 L192.362,303.674 L192.362,307.796 C192.362,308.372 192.152,308.834 191.732,309.182 C191.312,309.53 190.67,309.704 189.806,309.704 C188.942,309.704 188.3,309.53 187.88,309.182 C187.46,308.834 187.25,308.372 187.25,307.796 L187.25,307.796 L187.25,303.674 C187.25,303.494 187.382,303.404 187.646,303.404 L187.646,303.404 L187.646,303.08 L185.072,303.08 L185.072,303.404 C185.276,303.404 185.414,303.425 185.486,303.467 C185.558,303.509 185.594,303.578 185.594,303.674 L185.594,303.674 L185.594,308.228 C185.594,308.6 185.678,308.957 185.846,309.299 C186.014,309.641 186.269,309.944 186.611,310.208 C186.953,310.472 187.391,310.679 187.925,310.829 C188.459,310.979 189.086,311.054 189.806,311.054 Z M199.544,311 L199.544,310.676 C199.472,310.676 199.397,310.655 199.319,310.613 C199.241,310.571 199.202,310.502 199.202,310.406 L199.202,310.406 L199.202,307.832 L201.704,307.832 L203.126,309.956 C203.306,310.208 203.396,310.394 203.396,310.514 C203.396,310.622 203.318,310.676 203.162,310.676 L203.162,310.676 L203.162,311 L205.916,311 L205.916,310.676 C205.784,310.64 205.661,310.589 205.547,310.523 C205.433,310.457 205.328,310.358 205.232,310.226 L205.232,310.226 L203.468,307.652 C203.72,307.592 203.966,307.505 204.206,307.391 C204.446,307.277 204.665,307.127 204.863,306.941 C205.061,306.755 205.22,306.536 205.34,306.284 C205.46,306.032 205.52,305.744 205.52,305.42 C205.52,304.568 205.22,303.965 204.62,303.611 C204.02,303.257 203.186,303.08 202.118,303.08 L202.118,303.08 L197.15,303.08 L197.15,303.404 C197.366,303.404 197.474,303.494 197.474,303.674 L197.474,303.674 L197.474,310.406 C197.474,310.586 197.366,310.676 197.15,310.676 L197.15,310.676 L197.15,311 L199.544,311 Z M202.082,306.5 L199.238,306.5 L199.238,304.412 L202.082,304.412 C202.694,304.412 203.141,304.499 203.423,304.673 C203.705,304.847 203.846,305.084 203.846,305.384 C203.846,306.128 203.258,306.5 202.082,306.5 L202.082,306.5 Z M74.354,329.054 C74.762,329.054 75.197,329.024 75.659,328.964 C76.121,328.904 76.544,328.778 76.928,328.586 C77.312,328.394 77.633,328.13 77.891,327.794 C78.149,327.458 78.278,327.026 78.278,326.498 C78.278,325.97 78.131,325.556 77.837,325.256 C77.543,324.956 77.174,324.728 76.73,324.572 C76.286,324.416 75.806,324.305 75.29,324.239 C74.774,324.173 74.294,324.107 73.85,324.041 C73.406,323.975 73.037,323.885 72.743,323.771 C72.449,323.657 72.302,323.468 72.302,323.204 C72.302,323.036 72.35,322.895 72.446,322.781 C72.542,322.667 72.674,322.574 72.842,322.502 C73.01,322.43 73.202,322.379 73.418,322.349 C73.634,322.319 73.862,322.304 74.102,322.304 C74.726,322.304 75.29,322.376 75.794,322.52 C76.298,322.664 76.67,322.838 76.91,323.042 C77.006,323.114 77.06,323.186 77.072,323.258 L77.072,323.258 L77.108,323.474 L77.432,323.582 L78.332,321.89 L78.134,321.692 C78.062,321.728 78.002,321.761 77.954,321.791 C77.906,321.821 77.834,321.836 77.738,321.836 C77.654,321.836 77.525,321.791 77.351,321.701 C77.177,321.611 76.952,321.512 76.676,321.404 C76.4,321.296 76.061,321.197 75.659,321.107 C75.257,321.017 74.774,320.972 74.21,320.972 C73.058,320.972 72.164,321.2 71.528,321.656 C70.892,322.112 70.574,322.724 70.574,323.492 C70.574,324.008 70.721,324.407 71.015,324.689 C71.309,324.971 71.678,325.187 72.122,325.337 C72.566,325.487 73.046,325.595 73.562,325.661 C74.078,325.727 74.558,325.793 75.002,325.859 C75.446,325.925 75.815,326.018 76.109,326.138 C76.403,326.258 76.55,326.45 76.55,326.714 C76.55,326.942 76.466,327.125 76.298,327.263 C76.13,327.401 75.926,327.509 75.686,327.587 C75.446,327.665 75.203,327.716 74.957,327.74 C74.711,327.764 74.504,327.776 74.336,327.776 C74.156,327.776 73.907,327.746 73.589,327.686 C73.271,327.626 72.953,327.545 72.635,327.443 C72.317,327.341 72.044,327.215 71.816,327.065 C71.588,326.915 71.474,326.75 71.474,326.57 C71.474,326.51 71.477,326.453 71.483,326.399 C71.489,326.345 71.492,326.294 71.492,326.246 L71.492,326.246 L71.15,326.156 L70.322,328.172 L70.574,328.352 C70.634,328.28 70.706,328.244 70.79,328.244 C70.838,328.244 70.976,328.289 71.204,328.379 C71.432,328.469 71.711,328.565 72.041,328.667 C72.371,328.769 72.737,328.859 73.139,328.937 C73.541,329.015 73.946,329.054 74.354,329.054 Z M85.712,329 L85.712,328.676 C85.484,328.676 85.37,328.586 85.37,328.406 L85.37,328.406 L85.37,325.706 L88.124,322.142 C88.256,321.974 88.409,321.809 88.583,321.647 C88.757,321.485 88.916,321.404 89.06,321.404 L89.06,321.404 L89.06,321.08 L86.306,321.08 L86.306,321.404 C86.366,321.404 86.426,321.416 86.486,321.44 C86.546,321.464 86.576,321.524 86.576,321.62 C86.576,321.692 86.549,321.767 86.495,321.845 C86.441,321.923 86.36,322.04 86.252,322.196 L86.252,322.196 L84.65,324.428 L82.832,322.052 C82.772,321.968 82.718,321.896 82.67,321.836 C82.622,321.776 82.598,321.71 82.598,321.638 C82.598,321.566 82.634,321.509 82.706,321.467 C82.778,321.425 82.844,321.404 82.904,321.404 L82.904,321.404 L82.904,321.08 L79.934,321.08 L79.934,321.404 C80.042,321.404 80.156,321.428 80.276,321.476 C80.396,321.524 80.498,321.602 80.582,321.71 L80.582,321.71 L83.642,325.634 L83.642,328.406 C83.642,328.586 83.534,328.676 83.318,328.676 L83.318,328.676 L83.318,329 L85.712,329 Z M93.218,329 L93.218,328.676 C93.014,328.676 92.912,328.586 92.912,328.406 L92.912,328.406 L92.912,323.348 L92.93,323.348 L95.828,329 L95.972,329 L99.032,323.348 L99.068,323.348 L99.068,328.406 C99.104,328.586 98.996,328.676 98.744,328.676 L98.744,328.676 L98.744,329 L100.832,329 L100.832,328.676 C100.772,328.676 100.715,328.655 100.661,328.613 C100.607,328.571 100.58,328.502 100.58,328.406 L100.58,328.406 L100.58,321.638 C100.58,321.542 100.607,321.479 100.661,321.449 C100.715,321.419 100.772,321.404 100.832,321.404 L100.832,321.404 L100.832,321.08 L98.294,321.08 L98.294,321.404 C98.39,321.404 98.438,321.458 98.438,321.566 C98.438,321.602 98.414,321.665 98.366,321.755 C98.318,321.845 98.252,321.962 98.168,322.106 L98.168,322.106 L95.954,326.138 L93.758,322.088 C93.674,321.944 93.611,321.833 93.569,321.755 C93.527,321.677 93.506,321.614 93.506,321.566 C93.506,321.458 93.566,321.404 93.686,321.404 L93.686,321.404 L93.686,321.08 L91.184,321.08 L91.184,321.404 C91.268,321.404 91.325,321.422 91.355,321.458 C91.385,321.494 91.4,321.596 91.4,321.764 L91.4,321.764 L91.4,328.352 C91.4,328.484 91.379,328.568 91.337,328.604 C91.295,328.64 91.244,328.664 91.184,328.676 L91.184,328.676 L91.184,329 L93.218,329 Z M106.268,329 L106.268,328.676 C106.016,328.676 105.89,328.586 105.89,328.406 L105.89,328.406 L105.89,325.706 L108.95,325.706 C109.922,325.706 110.651,325.541 111.137,325.211 C111.623,324.881 111.866,324.284 111.866,323.42 C111.866,322.556 111.623,321.95 111.137,321.602 C110.651,321.254 109.922,321.08 108.95,321.08 L108.95,321.08 L103.712,321.08 L103.712,321.404 C104.012,321.404 104.162,321.494 104.162,321.674 L104.162,321.674 L104.162,328.406 C104.162,328.586 104.012,328.676 103.712,328.676 L103.712,328.676 L103.712,329 L106.268,329 Z M108.914,324.374 L105.89,324.374 L105.89,322.412 L108.914,322.412 C109.262,322.412 109.553,322.487 109.787,322.637 C110.021,322.787 110.138,323.048 110.138,323.42 C110.138,323.804 110.021,324.059 109.787,324.185 C109.553,324.311 109.262,324.374 108.914,324.374 L108.914,324.374 Z M118.202,329 L118.202,328.676 C117.986,328.676 117.878,328.586 117.878,328.406 L117.878,328.406 L117.878,322.412 L120.218,322.412 C120.314,322.412 120.404,322.436 120.488,322.484 C120.572,322.532 120.614,322.61 120.614,322.718 L120.614,322.718 L120.938,322.718 L120.938,320.648 L120.614,320.648 C120.614,320.816 120.572,320.93 120.488,320.99 C120.404,321.05 120.314,321.08 120.218,321.08 L120.218,321.08 L113.81,321.08 C113.714,321.08 113.624,321.05 113.54,320.99 C113.456,320.93 113.414,320.816 113.414,320.648 L113.414,320.648 L113.09,320.648 L113.09,322.718 L113.414,322.718 C113.414,322.61 113.456,322.532 113.54,322.484 C113.624,322.436 113.714,322.412 113.81,322.412 L113.81,322.412 L116.15,322.412 L116.15,328.406 C116.15,328.502 116.12,328.571 116.06,328.613 C116,328.655 115.94,328.676 115.88,328.676 L115.88,328.676 L115.88,329 L118.202,329 Z M127.004,329.054 C127.664,329.054 128.285,328.979 128.867,328.829 C129.449,328.679 129.956,328.436 130.388,328.1 C130.82,327.764 131.162,327.341 131.414,326.831 C131.666,326.321 131.792,325.724 131.792,325.04 C131.792,324.356 131.666,323.759 131.414,323.249 C131.162,322.739 130.82,322.316 130.388,321.98 C129.956,321.644 129.449,321.392 128.867,321.224 C128.285,321.056 127.664,320.972 127.004,320.972 C126.344,320.972 125.723,321.056 125.141,321.224 C124.559,321.392 124.052,321.644 123.62,321.98 C123.188,322.316 122.846,322.739 122.594,323.249 C122.342,323.759 122.216,324.356 122.216,325.04 C122.216,325.724 122.342,326.321 122.594,326.831 C122.846,327.341 123.188,327.764 123.62,328.1 C124.052,328.436 124.559,328.679 125.141,328.829 C125.723,328.979 126.344,329.054 127.004,329.054 Z M127.004,327.776 C126.62,327.776 126.245,327.713 125.879,327.587 C125.513,327.461 125.186,327.281 124.898,327.047 C124.61,326.813 124.379,326.528 124.205,326.192 C124.031,325.856 123.944,325.472 123.944,325.04 C123.944,324.608 124.031,324.224 124.205,323.888 C124.379,323.552 124.61,323.267 124.898,323.033 C125.186,322.799 125.513,322.619 125.879,322.493 C126.245,322.367 126.62,322.304 127.004,322.304 C127.388,322.304 127.763,322.367 128.129,322.493 C128.495,322.619 128.822,322.799 129.11,323.033 C129.398,323.267 129.629,323.552 129.803,323.888 C129.977,324.224 130.064,324.608 130.064,325.04 C130.064,325.472 129.977,325.856 129.803,326.192 C129.629,326.528 129.398,326.813 129.11,327.047 C128.822,327.281 128.495,327.461 128.129,327.587 C127.763,327.713 127.388,327.776 127.004,327.776 Z M136.22,329 L136.22,328.676 C136.016,328.676 135.914,328.586 135.914,328.406 L135.914,328.406 L135.914,323.348 L135.932,323.348 L138.83,329 L138.974,329 L142.034,323.348 L142.07,323.348 L142.07,328.406 C142.106,328.586 141.998,328.676 141.746,328.676 L141.746,328.676 L141.746,329 L143.834,329 L143.834,328.676 C143.774,328.676 143.717,328.655 143.663,328.613 C143.609,328.571 143.582,328.502 143.582,328.406 L143.582,328.406 L143.582,321.638 C143.582,321.542 143.609,321.479 143.663,321.449 C143.717,321.419 143.774,321.404 143.834,321.404 L143.834,321.404 L143.834,321.08 L141.296,321.08 L141.296,321.404 C141.392,321.404 141.44,321.458 141.44,321.566 C141.44,321.602 141.416,321.665 141.368,321.755 C141.32,321.845 141.254,321.962 141.17,322.106 L141.17,322.106 L138.956,326.138 L136.76,322.088 C136.676,321.944 136.613,321.833 136.571,321.755 C136.529,321.677 136.508,321.614 136.508,321.566 C136.508,321.458 136.568,321.404 136.688,321.404 L136.688,321.404 L136.688,321.08 L134.186,321.08 L134.186,321.404 C134.27,321.404 134.327,321.422 134.357,321.458 C134.387,321.494 134.402,321.596 134.402,321.764 L134.402,321.764 L134.402,328.352 C134.402,328.484 134.381,328.568 134.339,328.604 C134.297,328.64 134.246,328.664 134.186,328.676 L134.186,328.676 L134.186,329 L136.22,329 Z M154.76,329 L154.76,328.676 C154.508,328.676 154.382,328.586 154.382,328.406 L154.382,328.406 L154.382,325.706 L157.442,325.706 C158.414,325.706 159.143,325.541 159.629,325.211 C160.115,324.881 160.358,324.284 160.358,323.42 C160.358,322.556 160.115,321.95 159.629,321.602 C159.143,321.254 158.414,321.08 157.442,321.08 L157.442,321.08 L152.204,321.08 L152.204,321.404 C152.504,321.404 152.654,321.494 152.654,321.674 L152.654,321.674 L152.654,328.406 C152.654,328.586 152.504,328.676 152.204,328.676 L152.204,328.676 L152.204,329 L154.76,329 Z M157.406,324.374 L154.382,324.374 L154.382,322.412 L157.406,322.412 C157.754,322.412 158.045,322.487 158.279,322.637 C158.513,322.787 158.63,323.048 158.63,323.42 C158.63,323.804 158.513,324.059 158.279,324.185 C158.045,324.311 157.754,324.374 157.406,324.374 L157.406,324.374 Z M165.362,329 L165.362,328.676 C165.026,328.676 164.858,328.586 164.858,328.406 L164.858,328.406 L164.858,321.674 C164.858,321.494 165.026,321.404 165.362,321.404 L165.362,321.404 L165.362,321.08 L162.626,321.08 L162.626,321.404 C162.818,321.404 162.95,321.425 163.022,321.467 C163.094,321.509 163.13,321.578 163.13,321.674 L163.13,321.674 L163.13,328.406 C163.13,328.502 163.094,328.571 163.022,328.613 C162.95,328.655 162.818,328.676 162.626,328.676 L162.626,328.676 L162.626,329 L165.362,329 Z M176.252,329.18 L176.252,327.29 L175.928,327.29 C175.928,327.41 175.88,327.503 175.784,327.569 C175.688,327.635 175.568,327.668 175.424,327.668 L175.424,327.668 L170.564,327.668 L170.564,321.674 C170.564,321.494 170.702,321.404 170.978,321.404 L170.978,321.404 L170.978,321.08 L168.368,321.08 L168.368,321.404 C168.68,321.404 168.836,321.494 168.836,321.674 L168.836,321.674 L168.836,328.406 C168.836,328.586 168.68,328.676 168.368,328.676 L168.368,328.676 L168.368,329 L175.424,329 C175.568,329 175.688,329.006 175.784,329.018 C175.88,329.03 175.928,329.084 175.928,329.18 L175.928,329.18 L176.252,329.18 Z M185.918,329.198 L185.918,327.308 L185.594,327.308 C185.594,327.416 185.546,327.503 185.45,327.569 C185.354,327.635 185.234,327.668 185.09,327.668 L185.09,327.668 L180.482,327.668 L180.482,325.544 L183.11,325.544 C183.35,325.544 183.536,325.559 183.668,325.589 C183.8,325.619 183.848,325.7 183.812,325.832 L183.812,325.832 L184.172,325.832 L184.172,323.924 L183.848,323.924 C183.848,324.056 183.8,324.137 183.704,324.167 C183.608,324.197 183.458,324.212 183.254,324.212 L183.254,324.212 L180.482,324.212 L180.482,322.412 L184.874,322.412 C185.246,322.412 185.432,322.526 185.432,322.754 L185.432,322.754 L185.756,322.754 L185.756,320.756 L185.432,320.756 C185.432,320.972 185.246,321.08 184.874,321.08 L184.874,321.08 L178.484,321.08 L178.484,321.404 C178.544,321.404 178.604,321.425 178.664,321.467 C178.724,321.509 178.754,321.578 178.754,321.674 L178.754,321.674 L178.754,328.406 C178.754,328.502 178.724,328.571 178.664,328.613 C178.604,328.655 178.544,328.676 178.484,328.676 L178.484,328.676 L178.484,329 L185.09,329 C185.234,329 185.354,329.006 185.45,329.018 C185.546,329.03 185.594,329.09 185.594,329.198 L185.594,329.198 L185.918,329.198 Z M189.752,329.054 C190.1,329.054 190.4,328.937 190.652,328.703 C190.904,328.469 191.03,328.178 191.03,327.83 C191.03,327.482 190.904,327.182 190.652,326.93 C190.4,326.678 190.1,326.552 189.752,326.552 C189.404,326.552 189.104,326.678 188.852,326.93 C188.6,327.182 188.474,327.482 188.474,327.83 C188.474,328.178 188.6,328.469 188.852,328.703 C189.104,328.937 189.404,329.054 189.752,329.054 Z" id="Maybeitsjustearlyarthritis.Addthistoyoursymptompile." fill="#000000" fill-rule="nonzero"></path>
    </g>
</svg>