<?xml version="1.0" encoding="UTF-8"?>
<svg width="262px" height="360px" viewBox="0 0 262 360" version="1.1" xmlns="http://www.w3.org/2000/svg" xmlns:xlink="http://www.w3.org/1999/xlink">
    <title>Chest Pain 4</title>
    <g id="Chest-Pain-4" stroke="none" stroke-width="1" fill="none" fill-rule="evenodd">
        <g id="Group" transform="translate(9.000000, 9.000000)" fill="#FFFFFF" stroke="#000000" stroke-width="3">
            <g id="Rectangle">
                <rect x="1.5" y="1.5" width="239" height="337" rx="8"></rect>
            </g>
        </g>
        <path d="M213.652,30.072 C214.292,30.072 214.976,30.02 215.704,29.916 C216.432,29.812 217.1,29.604 217.708,29.292 C218.316,28.98 218.824,28.56 219.232,28.032 C219.64,27.504 219.844,26.832 219.844,26.016 C219.844,25.296 219.624,24.7 219.184,24.228 C218.744,23.756 218.18,23.44 217.492,23.28 L217.492,23.28 L217.492,23.232 C218.068,23.104 218.524,22.796 218.86,22.308 C219.196,21.82 219.364,21.288 219.364,20.712 C219.364,20.088 219.2,19.556 218.872,19.116 C218.544,18.676 218.12,18.316 217.6,18.036 C217.08,17.756 216.504,17.552 215.872,17.424 C215.24,17.296 214.612,17.232 213.988,17.232 C213.06,17.232 212.272,17.324 211.624,17.508 C210.976,17.692 210.444,17.896 210.028,18.12 C209.612,18.344 209.296,18.548 209.08,18.732 C208.864,18.916 208.716,19.008 208.636,19.008 C208.492,19.008 208.356,18.968 208.228,18.888 L208.228,18.888 L207.94,19.104 L209.86,21.552 L210.076,21.408 C210.044,21.328 210.02,21.244 210.004,21.156 C209.988,21.068 209.98,20.992 209.98,20.928 C209.98,20.736 210.1,20.544 210.34,20.352 C210.58,20.16 210.884,19.984 211.252,19.824 C211.62,19.664 212.028,19.536 212.476,19.44 C212.924,19.344 213.364,19.296 213.796,19.296 C214.164,19.296 214.528,19.316 214.888,19.356 C215.248,19.396 215.576,19.472 215.872,19.584 C216.168,19.696 216.408,19.852 216.592,20.052 C216.776,20.252 216.868,20.512 216.868,20.832 C216.868,21.168 216.764,21.448 216.556,21.672 C216.348,21.896 216.096,22.072 215.8,22.2 C215.504,22.328 215.188,22.416 214.852,22.464 C214.516,22.512 214.22,22.536 213.964,22.536 C213.58,22.536 213.232,22.484 212.92,22.38 C212.608,22.276 212.436,22.064 212.404,21.744 L212.404,21.744 L212.116,21.744 L212.116,25.008 L212.404,25.008 C212.5,24.72 212.688,24.54 212.968,24.468 C213.248,24.396 213.58,24.36 213.964,24.36 C214.236,24.36 214.56,24.38 214.936,24.42 C215.312,24.46 215.668,24.544 216.004,24.672 C216.34,24.8 216.624,24.98 216.856,25.212 C217.088,25.444 217.204,25.752 217.204,26.136 C217.204,26.536 217.084,26.86 216.844,27.108 C216.604,27.356 216.312,27.552 215.968,27.696 C215.624,27.84 215.256,27.94 214.864,27.996 C214.472,28.052 214.132,28.08 213.844,28.08 C213.476,28.08 213.024,28.028 212.488,27.924 C211.952,27.82 211.44,27.668 210.952,27.468 C210.464,27.268 210.044,27.024 209.692,26.736 C209.34,26.448 209.164,26.12 209.164,25.752 L209.164,25.752 L209.164,25.584 C209.164,25.504 209.172,25.448 209.188,25.416 L209.188,25.416 L208.924,25.272 L207.532,28.728 L207.748,28.8 C207.812,28.768 207.872,28.736 207.928,28.704 C207.984,28.672 208.052,28.656 208.132,28.656 C208.26,28.656 208.48,28.732 208.792,28.884 C209.104,29.036 209.5,29.204 209.98,29.388 C210.46,29.572 211.012,29.732 211.636,29.868 C212.26,30.004 212.932,30.072 213.652,30.072 Z" id="3" fill="#000000" fill-rule="nonzero"></path>
        <g id="Face" transform="translate(225.000000, 15.000000)">
            <circle id="Oval" stroke="#000000" fill="#FFFFFF" cx="9.5" cy="9.5" r="9"></circle>
            <circle id="Oval" fill="#000000" cx="5" cy="8" r="1"></circle>
            <circle id="Oval-Copy" fill="#000000" cx="12" cy="8" r="1"></circle>
            <line x1="12.0789474" y1="13.9090909" x2="14.5" y2="11.5" id="Line-4" stroke="#000000" stroke-linecap="round"></line>
            <path d="M3,5.89285714 C3.41025641,5.96428571 3.76923077,6 4.07692308,6 C4.38461538,6 5.35897436,5.33333333 7,4" id="Line-2" stroke="#000000"></path>
            <path d="M6,15 C6.96078431,14.3333333 8.07598039,14 9.34558824,14 C10.6151961,14 11.8333333,14.3333333 13,15" id="Line" stroke="#000000" stroke-linecap="round" stroke-linejoin="round"></path>
            <path d="M11.3197366,4.68245322 C11.585843,4.80663622 11.7912611,4.92388646 11.9359908,5.03420394 C12.548667,5.50120471 13.1333088,5.70898724 13.3155349,5.80010028 C13.5440857,5.91437569 13.8101922,6.00751295 14.1138542,6.07951204" id="Line-3" stroke="#000000" stroke-linecap="square" transform="translate(12.716795, 5.380983) rotate(-3.000000) translate(-12.716795, -5.380983) "></path>
            <path d="M2.999,9.347 L3.01687864,9.39698204 C3.09438102,9.62639002 3.1880913,9.89570266 3.30282211,10.2112791 C3.48139895,10.7024692 3.54804655,11.0169045 3.47980817,11.2204078 C3.41244402,11.421304 3.17143148,11.4011566 3.01518318,11.4416373 L3.01518318,11.4416373 L2.86575433,11.4813457 C2.78836954,11.5029149 2.70310591,11.5126925 2.63007237,11.4810832 C2.58941161,11.463485 2.56030088,11.4264037 2.54036126,11.376794 C2.4446463,11.1386559 2.49784548,10.759559 2.69717789,10.2112791 C2.8119087,9.89570266 2.90561898,9.62639002 2.98312136,9.39698204 L2.999,9.347 Z" id="Oval" stroke="#000000"></path>
            <path d="M16,6.347 L16.0168786,6.39698204 C16.094381,6.62639002 16.1880913,6.89570266 16.3028221,7.21127907 C16.481399,7.70246915 16.5480465,8.01690453 16.4798082,8.22040783 C16.412444,8.42130397 16.1714315,8.40115659 16.0151832,8.44163726 L16.0151832,8.44163726 L15.8657543,8.48134574 C15.7883695,8.50291486 15.7031059,8.51269255 15.6300724,8.48108319 C15.5894116,8.46348497 15.5603009,8.42640366 15.5403613,8.37679403 C15.4446463,8.13865595 15.4978455,7.75955902 15.6971779,7.21127907 C15.8119087,6.89570266 15.905619,6.62639002 15.9831214,6.39698204 L16,6.347 Z" id="Oval-Copy-2" stroke="#000000"></path>
        </g>
        <rect id="Rectangle" stroke="#000000" stroke-width="3" x="17.5" y="255.5" width="225" height="86" rx="8"></rect>
        <path d="M45.442,61.108 C46.594,61.108 47.698,60.976 48.754,60.712 C49.81,60.448 50.752,60.136 51.58,59.776 C52.408,59.416 53.092,59.092 53.632,58.804 C54.172,58.516 54.514,58.372 54.658,58.372 C54.73,58.372 54.796,58.378 54.856,58.39 C54.916,58.402 54.982,58.408 55.054,58.408 L55.054,58.408 L55.342,58.12 L52.966,54.304 L52.462,54.592 C52.558,54.712 52.606,54.856 52.606,55.024 C52.606,55.336 52.372,55.666 51.904,56.014 C51.436,56.362 50.854,56.674 50.158,56.95 C49.462,57.226 48.694,57.454 47.854,57.634 C47.014,57.814 46.21,57.904 45.442,57.904 C44.434,57.904 43.468,57.76 42.544,57.472 C41.62,57.184 40.816,56.764 40.132,56.212 C39.448,55.66 38.902,54.982 38.494,54.178 C38.086,53.374 37.882,52.456 37.882,51.424 C37.882,50.392 38.086,49.474 38.494,48.67 C38.902,47.866 39.448,47.188 40.132,46.636 C40.816,46.084 41.62,45.664 42.544,45.376 C43.468,45.088 44.434,44.944 45.442,44.944 C46.042,44.944 46.696,45.016 47.404,45.16 C48.112,45.304 48.784,45.484 49.42,45.7 C50.056,45.916 50.59,46.162 51.022,46.438 C51.454,46.714 51.694,46.984 51.742,47.248 C51.766,47.344 51.784,47.428 51.796,47.5 C51.808,47.572 51.814,47.644 51.814,47.716 L51.814,47.716 L52.174,47.968 L54.982,43.612 L54.442,43.18 C54.394,43.252 54.328,43.348 54.244,43.468 C54.16,43.588 54.058,43.648 53.938,43.648 C53.842,43.648 53.578,43.552 53.146,43.36 C52.714,43.168 52.126,42.964 51.382,42.748 C50.638,42.532 49.768,42.328 48.772,42.136 C47.776,41.944 46.666,41.848 45.442,41.848 C43.93,41.848 42.478,42.052 41.086,42.46 C39.694,42.868 38.464,43.48 37.396,44.296 C36.328,45.112 35.482,46.126 34.858,47.338 C34.234,48.55 33.922,49.948 33.922,51.532 C33.922,53.14 34.234,54.544 34.858,55.744 C35.482,56.944 36.328,57.946 37.396,58.75 C38.464,59.554 39.694,60.148 41.086,60.532 C42.478,60.916 43.93,61.108 45.442,61.108 Z M65.674,61 L65.674,60.352 C65.53,60.352 65.404,60.31 65.296,60.226 C65.188,60.142 65.134,60.004 65.134,59.812 L65.134,59.812 L65.134,54.376 L74.782,54.376 L74.782,59.812 C74.782,60.004 74.728,60.142 74.62,60.226 C74.512,60.31 74.386,60.352 74.242,60.352 L74.242,60.352 L74.242,61 L78.778,61 L78.778,60.352 C78.634,60.352 78.508,60.31 78.4,60.226 C78.292,60.142 78.238,60.004 78.238,59.812 L78.238,59.812 L78.238,46.348 C78.238,46.156 78.292,46.018 78.4,45.934 C78.508,45.85 78.634,45.808 78.778,45.808 L78.778,45.808 L78.778,45.16 L74.242,45.16 L74.242,45.808 C74.386,45.808 74.512,45.85 74.62,45.934 C74.728,46.018 74.782,46.156 74.782,46.348 L74.782,46.348 L74.782,51.424 L65.134,51.424 L65.134,46.348 C65.134,46.156 65.188,46.018 65.296,45.934 C65.404,45.85 65.53,45.808 65.674,45.808 L65.674,45.808 L65.674,45.16 L61.138,45.16 L61.138,45.808 C61.282,45.808 61.408,45.85 61.516,45.934 C61.624,46.018 61.678,46.156 61.678,46.348 L61.678,46.348 L61.678,59.812 C61.678,60.004 61.624,60.142 61.516,60.226 C61.408,60.31 61.282,60.352 61.138,60.352 L61.138,60.352 L61.138,61 L65.674,61 Z M99.802,61.396 L99.802,57.616 L99.154,57.616 C99.154,57.832 99.058,58.006 98.866,58.138 C98.674,58.27 98.434,58.336 98.146,58.336 L98.146,58.336 L88.93,58.336 L88.93,54.088 L94.186,54.088 C94.666,54.088 95.038,54.118 95.302,54.178 C95.566,54.238 95.662,54.4 95.59,54.664 L95.59,54.664 L96.31,54.664 L96.31,50.848 L95.662,50.848 C95.662,51.112 95.566,51.274 95.374,51.334 C95.182,51.394 94.882,51.424 94.474,51.424 L94.474,51.424 L88.93,51.424 L88.93,47.824 L97.714,47.824 C98.458,47.824 98.83,48.052 98.83,48.508 L98.83,48.508 L99.478,48.508 L99.478,44.512 L98.83,44.512 C98.83,44.944 98.458,45.16 97.714,45.16 L97.714,45.16 L84.934,45.16 L84.934,45.808 C85.054,45.808 85.174,45.85 85.294,45.934 C85.414,46.018 85.474,46.156 85.474,46.348 L85.474,46.348 L85.474,59.812 C85.474,60.004 85.414,60.142 85.294,60.226 C85.174,60.31 85.054,60.352 84.934,60.352 L84.934,60.352 L84.934,61 L98.146,61 C98.434,61 98.674,61.012 98.866,61.036 C99.058,61.06 99.154,61.18 99.154,61.396 L99.154,61.396 L99.802,61.396 Z M111.718,61.108 C112.534,61.108 113.404,61.048 114.328,60.928 C115.252,60.808 116.098,60.556 116.866,60.172 C117.634,59.788 118.276,59.26 118.792,58.588 C119.308,57.916 119.566,57.052 119.566,55.996 C119.566,54.94 119.272,54.112 118.684,53.512 C118.096,52.912 117.358,52.456 116.47,52.144 C115.582,51.832 114.622,51.61 113.59,51.478 C112.558,51.346 111.598,51.214 110.71,51.082 C109.822,50.95 109.084,50.77 108.496,50.542 C107.908,50.314 107.614,49.936 107.614,49.408 C107.614,49.072 107.71,48.79 107.902,48.562 C108.094,48.334 108.358,48.148 108.694,48.004 C109.03,47.86 109.414,47.758 109.846,47.698 C110.278,47.638 110.734,47.608 111.214,47.608 C112.462,47.608 113.59,47.752 114.598,48.04 C115.606,48.328 116.35,48.676 116.83,49.084 C117.022,49.228 117.13,49.372 117.154,49.516 C117.178,49.66 117.202,49.804 117.226,49.948 L117.226,49.948 L117.874,50.164 L119.674,46.78 L119.278,46.384 C119.134,46.456 119.014,46.522 118.918,46.582 C118.822,46.642 118.678,46.672 118.486,46.672 C118.318,46.672 118.06,46.582 117.712,46.402 L117.5295,46.3105 C117.211167,46.1555 116.822,45.988 116.362,45.808 C115.81,45.592 115.132,45.394 114.328,45.214 C113.524,45.034 112.558,44.944 111.43,44.944 C109.126,44.944 107.338,45.4 106.066,46.312 C104.794,47.224 104.158,48.448 104.158,49.984 C104.158,51.016 104.452,51.814 105.04,52.378 C105.628,52.942 106.366,53.374 107.254,53.674 C108.142,53.974 109.102,54.19 110.134,54.322 C111.166,54.454 112.126,54.586 113.014,54.718 C113.902,54.85 114.64,55.036 115.228,55.276 C115.816,55.516 116.11,55.9 116.11,56.428 C116.11,56.884 115.942,57.25 115.606,57.526 C115.27,57.802 114.862,58.018 114.382,58.174 C113.902,58.33 113.416,58.432 112.924,58.48 C112.432,58.528 112.018,58.552 111.682,58.552 C111.322,58.552 110.824,58.492 110.188,58.372 C109.552,58.252 108.916,58.09 108.28,57.886 C107.644,57.682 107.098,57.43 106.642,57.13 C106.186,56.83 105.958,56.5 105.958,56.14 C105.958,56.02 105.964,55.906 105.976,55.798 C105.988,55.69 105.994,55.588 105.994,55.492 L105.994,55.492 L105.31,55.312 L103.654,59.344 L104.158,59.704 C104.278,59.56 104.422,59.488 104.59,59.488 C104.686,59.488 104.962,59.578 105.418,59.758 C105.874,59.938 106.432,60.13 107.092,60.334 C107.752,60.538 108.484,60.718 109.288,60.874 C110.092,61.03 110.902,61.108 111.718,61.108 Z M133.39,61 L133.39,60.352 C132.958,60.352 132.742,60.172 132.742,59.812 L132.742,59.812 L132.742,47.824 L137.422,47.824 C137.614,47.824 137.794,47.872 137.962,47.968 C138.13,48.064 138.214,48.22 138.214,48.436 L138.214,48.436 L138.862,48.436 L138.862,44.296 L138.214,44.296 C138.214,44.632 138.13,44.86 137.962,44.98 C137.794,45.1 137.614,45.16 137.422,45.16 L137.422,45.16 L124.606,45.16 C124.414,45.16 124.234,45.1 124.066,44.98 C123.898,44.86 123.814,44.632 123.814,44.296 L123.814,44.296 L123.166,44.296 L123.166,48.436 L123.814,48.436 C123.814,48.22 123.898,48.064 124.066,47.968 C124.234,47.872 124.414,47.824 124.606,47.824 L124.606,47.824 L129.286,47.824 L129.286,59.812 C129.286,60.004 129.226,60.142 129.106,60.226 C128.986,60.31 128.866,60.352 128.746,60.352 L128.746,60.352 L128.746,61 L133.39,61 Z M160.318,61 L160.318,60.352 C159.55,60.352 159.166,60.136 159.166,59.704 L159.166,59.704 L159.166,53.296 L166.402,53.296 C168.706,53.296 170.518,52.87 171.838,52.018 C173.158,51.166 173.818,49.72 173.818,47.68 C173.818,45.64 173.158,44.194 171.838,43.342 C170.518,42.49 168.706,42.064 166.402,42.064 L166.402,42.064 L153.73,42.064 L153.73,42.712 C154.618,42.712 155.062,42.928 155.062,43.36 L155.062,43.36 L155.062,59.704 C155.062,60.136 154.618,60.352 153.73,60.352 L153.73,60.352 L153.73,61 L160.318,61 Z M166.834,49.984 L159.166,49.984 L159.166,45.376 L166.834,45.376 C167.626,45.376 168.304,45.532 168.868,45.844 C169.432,46.156 169.714,46.768 169.714,47.68 C169.714,48.592 169.432,49.204 168.868,49.516 C168.304,49.828 167.626,49.984 166.834,49.984 L166.834,49.984 Z M180.37,61 L180.37,60.352 C180.154,60.352 179.986,60.328 179.866,60.28 C179.746,60.232 179.686,60.112 179.686,59.92 C179.686,59.8 179.716,59.662 179.776,59.506 C179.836,59.35 179.914,59.176 180.01,58.984 L180.01,58.984 L181.018,57.04 L188.722,57.04 L189.694,59.092 C189.766,59.284 189.826,59.44 189.874,59.56 C189.922,59.68 189.946,59.812 189.946,59.956 C189.946,60.148 189.88,60.28 189.748,60.352 C189.616,60.424 189.49,60.46 189.37,60.46 L189.37,60.46 L189.37,61 L194.482,61 L194.482,60.352 C194.314,60.304 194.158,60.232 194.014,60.136 C193.87,60.04 193.738,59.884 193.618,59.668 L193.618,59.668 L187.786,47.428 C187.666,47.164 187.552,46.93 187.444,46.726 C187.336,46.522 187.282,46.348 187.282,46.204 C187.282,46.036 187.324,45.94 187.408,45.916 C187.492,45.892 187.57,45.856 187.642,45.808 L187.642,45.808 L187.642,45.16 L182.206,45.16 L182.206,45.808 C182.278,45.856 182.344,45.898 182.404,45.934 C182.464,45.97 182.494,46.06 182.494,46.204 C182.494,46.396 182.452,46.594 182.368,46.798 C182.284,47.002 182.17,47.272 182.026,47.608 L182.026,47.608 L176.662,59.308 C176.566,59.5 176.428,59.71 176.248,59.938 C176.068,60.166 175.834,60.304 175.546,60.352 L175.546,60.352 L175.546,61 L180.37,61 Z M187.57,54.376 L182.098,54.376 L184.654,48.328 L187.57,54.376 Z M203.734,61 L203.734,60.352 C203.062,60.352 202.726,60.172 202.726,59.812 L202.726,59.812 L202.726,46.348 C202.726,45.988 203.062,45.808 203.734,45.808 L203.734,45.808 L203.734,45.16 L198.262,45.16 L198.262,45.808 C198.646,45.808 198.91,45.85 199.054,45.934 C199.198,46.018 199.27,46.156 199.27,46.348 L199.27,46.348 L199.27,59.812 C199.27,60.004 199.198,60.142 199.054,60.226 C198.91,60.31 198.646,60.352 198.262,60.352 L198.262,60.352 L198.262,61 L203.734,61 Z M214.354,61 L214.354,60.352 C213.85,60.352 213.598,60.172 213.598,59.812 L213.598,59.812 L213.598,49.336 L222.526,58.84 C222.814,59.152 223.072,59.428 223.3,59.668 C223.528,59.908 223.642,60.076 223.642,60.172 C223.642,60.292 223.558,60.352 223.39,60.352 L223.39,60.352 L223.39,61 L228.07,61 L228.07,60.352 C227.638,60.352 227.422,60.172 227.422,59.812 L227.422,59.812 L227.422,46.348 C227.422,45.988 227.638,45.808 228.07,45.808 L228.07,45.808 L228.07,45.16 L223.678,45.16 L223.678,45.808 C224.158,45.808 224.398,45.988 224.398,46.348 L224.398,46.348 L224.398,56.104 L215.758,46.96 C215.23,46.432 214.966,46.108 214.966,45.988 C214.966,45.892 215.05,45.832 215.218,45.808 L215.218,45.808 L215.218,45.16 L209.926,45.16 L209.926,45.808 C210.358,45.808 210.574,45.988 210.574,46.348 L210.574,46.348 L210.574,59.812 C210.574,60.172 210.358,60.352 209.926,60.352 L209.926,60.352 L209.926,61 L214.354,61 Z" id="ChestPain" fill="#000000" fill-rule="nonzero"></path>
        <path d="M51.025,275 L51.025,274.676 C50.689,274.676 50.521,274.568 50.521,274.352 L50.521,274.352 L50.521,268.358 L50.557,268.358 L54.103,275 L54.157,275 L57.775,268.376 L57.811,268.376 L57.811,274.352 C57.811,274.568 57.649,274.676 57.325,274.676 L57.325,274.676 L57.325,275 L60.151,275 L60.151,274.676 C60.055,274.676 59.971,274.649 59.899,274.595 C59.827,274.541 59.791,274.46 59.791,274.352 L59.791,274.352 L59.791,266.144 C59.791,266.036 59.827,265.961 59.899,265.919 C59.971,265.877 60.055,265.856 60.151,265.856 L60.151,265.856 L60.151,265.532 L56.821,265.532 L56.821,265.856 C56.977,265.856 57.055,265.922 57.055,266.054 C57.055,266.126 57.034,266.207 56.992,266.297 C56.95,266.387 56.887,266.51 56.803,266.666 L56.803,266.666 L54.211,271.292 L51.637,266.612 C51.577,266.504 51.523,266.402 51.475,266.306 C51.427,266.21 51.403,266.132 51.403,266.072 C51.403,266 51.436,265.946 51.502,265.91 C51.568,265.874 51.631,265.856 51.691,265.856 L51.691,265.856 L51.691,265.532 L48.325,265.532 L48.325,265.856 C48.421,265.856 48.505,265.877 48.577,265.919 C48.649,265.961 48.685,266.036 48.685,266.144 L48.685,266.144 L48.685,274.352 C48.685,274.46 48.649,274.541 48.577,274.595 C48.505,274.649 48.421,274.676 48.325,274.676 L48.325,274.676 L48.325,275 L51.025,275 Z M64.417,275 L64.417,274.676 C64.309,274.676 64.225,274.664 64.165,274.64 C64.105,274.616 64.075,274.556 64.075,274.46 C64.075,274.4 64.09,274.331 64.12,274.253 C64.15,274.175 64.189,274.088 64.237,273.992 L64.237,273.992 L64.741,273.02 L68.593,273.02 L69.079,274.046 C69.115,274.142 69.145,274.22 69.169,274.28 C69.193,274.34 69.205,274.406 69.205,274.478 C69.205,274.574 69.172,274.64 69.106,274.676 C69.04,274.712 68.977,274.73 68.917,274.73 L68.917,274.73 L68.917,275 L71.473,275 L71.473,274.676 C71.389,274.652 71.311,274.616 71.239,274.568 C71.167,274.52 71.101,274.442 71.041,274.334 L71.041,274.334 L68.125,268.214 C68.065,268.082 68.008,267.965 67.954,267.863 C67.9,267.761 67.873,267.674 67.873,267.602 C67.873,267.518 67.894,267.47 67.936,267.458 C67.978,267.446 68.017,267.428 68.053,267.404 L68.053,267.404 L68.053,267.08 L65.335,267.08 L65.335,267.404 C65.371,267.428 65.404,267.449 65.434,267.467 C65.464,267.485 65.479,267.53 65.479,267.602 C65.479,267.698 65.458,267.797 65.416,267.899 C65.374,268.001 65.317,268.136 65.245,268.304 L65.245,268.304 L62.563,274.154 C62.515,274.25 62.446,274.355 62.356,274.469 C62.266,274.583 62.149,274.652 62.005,274.676 L62.005,274.676 L62.005,275 L64.417,275 Z M68.017,271.688 L65.281,271.688 L66.559,268.664 L68.017,271.688 Z M77.953,275 L77.953,274.676 C77.725,274.676 77.611,274.586 77.611,274.406 L77.611,274.406 L77.611,271.706 L80.365,268.142 C80.497,267.974 80.65,267.809 80.824,267.647 C80.998,267.485 81.157,267.404 81.301,267.404 L81.301,267.404 L81.301,267.08 L78.547,267.08 L78.547,267.404 C78.607,267.404 78.667,267.416 78.727,267.44 C78.787,267.464 78.817,267.524 78.817,267.62 C78.817,267.692 78.79,267.767 78.736,267.845 C78.682,267.923 78.601,268.04 78.493,268.196 L78.493,268.196 L76.891,270.428 L75.073,268.052 C75.013,267.968 74.959,267.896 74.911,267.836 C74.863,267.776 74.839,267.71 74.839,267.638 C74.839,267.566 74.875,267.509 74.947,267.467 C75.019,267.425 75.085,267.404 75.145,267.404 L75.145,267.404 L75.145,267.08 L72.175,267.08 L72.175,267.404 C72.283,267.404 72.397,267.428 72.517,267.476 C72.637,267.524 72.739,267.602 72.823,267.71 L72.823,267.71 L75.883,271.634 L75.883,274.406 C75.883,274.586 75.775,274.676 75.559,274.676 L75.559,274.676 L75.559,275 L77.953,275 Z M88.537,275 C89.065,275 89.518,274.943 89.896,274.829 C90.274,274.715 90.58,274.562 90.814,274.37 C91.048,274.178 91.219,273.956 91.327,273.704 C91.435,273.452 91.489,273.182 91.489,272.894 C91.489,272.642 91.447,272.408 91.363,272.192 C91.279,271.976 91.171,271.784 91.039,271.616 C90.907,271.448 90.757,271.304 90.589,271.184 C90.421,271.064 90.253,270.968 90.085,270.896 L90.085,270.896 L90.085,270.878 C90.229,270.806 90.37,270.71 90.508,270.59 C90.646,270.47 90.772,270.335 90.886,270.185 C91,270.035 91.093,269.867 91.165,269.681 C91.237,269.495 91.273,269.294 91.273,269.078 C91.273,268.814 91.219,268.562 91.111,268.322 C91.003,268.082 90.838,267.869 90.616,267.683 C90.394,267.497 90.118,267.35 89.788,267.242 C89.458,267.134 89.065,267.08 88.609,267.08 L88.609,267.08 L83.011,267.08 L83.011,267.404 C83.107,267.404 83.2,267.425 83.29,267.467 C83.38,267.509 83.425,267.578 83.425,267.674 L83.425,267.674 L83.425,274.406 C83.425,274.502 83.38,274.571 83.29,274.613 C83.2,274.655 83.107,274.676 83.011,274.676 L83.011,274.676 L83.011,275 L88.537,275 Z M88.357,270.212 L85.153,270.212 L85.153,268.412 L88.357,268.412 C88.501,268.412 88.645,268.421 88.789,268.439 C88.933,268.457 89.059,268.499 89.167,268.565 C89.275,268.631 89.365,268.721 89.437,268.835 C89.509,268.949 89.545,269.102 89.545,269.294 C89.545,269.666 89.419,269.912 89.167,270.032 C88.915,270.152 88.645,270.212 88.357,270.212 L88.357,270.212 Z M88.321,273.668 L85.153,273.668 L85.153,271.544 L88.033,271.544 C88.657,271.544 89.101,271.634 89.365,271.814 C89.629,271.994 89.761,272.27 89.761,272.642 C89.761,272.966 89.659,273.218 89.455,273.398 C89.251,273.578 88.873,273.668 88.321,273.668 L88.321,273.668 Z M101.659,275.198 L101.659,273.308 L101.335,273.308 C101.335,273.416 101.287,273.503 101.191,273.569 C101.095,273.635 100.975,273.668 100.831,273.668 L100.831,273.668 L96.223,273.668 L96.223,271.544 L98.851,271.544 C99.091,271.544 99.277,271.559 99.409,271.589 C99.541,271.619 99.589,271.7 99.553,271.832 L99.553,271.832 L99.913,271.832 L99.913,269.924 L99.589,269.924 C99.589,270.056 99.541,270.137 99.445,270.167 C99.349,270.197 99.199,270.212 98.995,270.212 L98.995,270.212 L96.223,270.212 L96.223,268.412 L100.615,268.412 C100.987,268.412 101.173,268.526 101.173,268.754 L101.173,268.754 L101.497,268.754 L101.497,266.756 L101.173,266.756 C101.173,266.972 100.987,267.08 100.615,267.08 L100.615,267.08 L94.225,267.08 L94.225,267.404 C94.285,267.404 94.345,267.425 94.405,267.467 C94.465,267.509 94.495,267.578 94.495,267.674 L94.495,267.674 L94.495,274.406 C94.495,274.502 94.465,274.571 94.405,274.613 C94.345,274.655 94.285,274.676 94.225,274.676 L94.225,274.676 L94.225,275 L100.831,275 C100.975,275 101.095,275.006 101.191,275.018 C101.287,275.03 101.335,275.09 101.335,275.198 L101.335,275.198 L101.659,275.198 Z M112.729,275 L112.729,274.676 C112.417,274.676 112.261,274.568 112.261,274.352 L112.261,274.352 L112.261,266.18 C112.261,265.964 112.417,265.856 112.729,265.856 L112.729,265.856 L112.729,265.532 L109.741,265.532 L109.741,265.856 C110.053,265.856 110.209,265.964 110.209,266.18 L110.209,266.18 L110.209,274.352 C110.209,274.568 110.053,274.676 109.741,274.676 L109.741,274.676 L109.741,275 L112.729,275 Z M122.665,275.054 C123.133,275.054 123.568,275.021 123.97,274.955 C124.372,274.889 124.72,274.766 125.014,274.586 C125.308,274.406 125.539,274.166 125.707,273.866 C125.875,273.566 125.959,273.2 125.959,272.768 L125.959,272.768 L125.959,267.854 C125.959,267.722 126.013,267.614 126.121,267.53 C126.229,267.446 126.343,267.404 126.463,267.404 L126.463,267.404 L126.463,267.08 L123.781,267.08 L123.781,267.404 C123.865,267.404 123.961,267.446 124.069,267.53 C124.177,267.614 124.231,267.722 124.231,267.854 L124.231,267.854 L124.231,272.552 C124.231,273.044 124.102,273.371 123.844,273.533 C123.586,273.695 123.199,273.776 122.683,273.776 C122.239,273.776 121.846,273.713 121.504,273.587 C121.162,273.461 120.949,273.332 120.865,273.2 C120.805,273.128 120.772,273.041 120.766,272.939 C120.76,272.837 120.757,272.744 120.757,272.66 L120.757,272.66 L120.505,272.57 L119.659,274.64 L119.821,274.784 C119.881,274.724 119.935,274.673 119.983,274.631 C120.031,274.589 120.103,274.568 120.199,274.568 C120.307,274.568 120.445,274.595 120.613,274.649 C120.781,274.703 120.973,274.763 121.189,274.829 C121.405,274.895 121.639,274.949 121.891,274.991 C122.143,275.033 122.401,275.054 122.665,275.054 Z M133.789,275.054 C134.509,275.054 135.136,274.979 135.67,274.829 C136.204,274.679 136.642,274.472 136.984,274.208 C137.326,273.944 137.581,273.641 137.749,273.299 C137.917,272.957 138.001,272.6 138.001,272.228 L138.001,272.228 L138.001,267.674 C138.001,267.494 138.133,267.404 138.397,267.404 L138.397,267.404 L138.397,267.08 L135.895,267.08 L135.895,267.404 C136.195,267.404 136.345,267.494 136.345,267.674 L136.345,267.674 L136.345,271.796 C136.345,272.372 136.135,272.834 135.715,273.182 C135.295,273.53 134.653,273.704 133.789,273.704 C132.925,273.704 132.283,273.53 131.863,273.182 C131.443,272.834 131.233,272.372 131.233,271.796 L131.233,271.796 L131.233,267.674 C131.233,267.494 131.365,267.404 131.629,267.404 L131.629,267.404 L131.629,267.08 L129.055,267.08 L129.055,267.404 C129.259,267.404 129.397,267.425 129.469,267.467 C129.541,267.509 129.577,267.578 129.577,267.674 L129.577,267.674 L129.577,272.228 C129.577,272.6 129.661,272.957 129.829,273.299 C129.997,273.641 130.252,273.944 130.594,274.208 C130.936,274.472 131.374,274.679 131.908,274.829 C132.442,274.979 133.069,275.054 133.789,275.054 Z M144.589,275.054 C144.997,275.054 145.432,275.024 145.894,274.964 C146.356,274.904 146.779,274.778 147.163,274.586 C147.547,274.394 147.868,274.13 148.126,273.794 C148.384,273.458 148.513,273.026 148.513,272.498 C148.513,271.97 148.366,271.556 148.072,271.256 C147.778,270.956 147.409,270.728 146.965,270.572 C146.521,270.416 146.041,270.305 145.525,270.239 C145.009,270.173 144.529,270.107 144.085,270.041 C143.641,269.975 143.272,269.885 142.978,269.771 C142.684,269.657 142.537,269.468 142.537,269.204 C142.537,269.036 142.585,268.895 142.681,268.781 C142.777,268.667 142.909,268.574 143.077,268.502 C143.245,268.43 143.437,268.379 143.653,268.349 C143.869,268.319 144.097,268.304 144.337,268.304 C144.961,268.304 145.525,268.376 146.029,268.52 C146.533,268.664 146.905,268.838 147.145,269.042 C147.241,269.114 147.295,269.186 147.307,269.258 L147.307,269.258 L147.343,269.474 L147.667,269.582 L148.567,267.89 L148.369,267.692 C148.297,267.728 148.237,267.761 148.189,267.791 C148.141,267.821 148.069,267.836 147.973,267.836 C147.889,267.836 147.76,267.791 147.586,267.701 C147.412,267.611 147.187,267.512 146.911,267.404 C146.635,267.296 146.296,267.197 145.894,267.107 C145.492,267.017 145.009,266.972 144.445,266.972 C143.293,266.972 142.399,267.2 141.763,267.656 C141.127,268.112 140.809,268.724 140.809,269.492 C140.809,270.008 140.956,270.407 141.25,270.689 C141.544,270.971 141.913,271.187 142.357,271.337 C142.801,271.487 143.281,271.595 143.797,271.661 C144.313,271.727 144.793,271.793 145.237,271.859 C145.681,271.925 146.05,272.018 146.344,272.138 C146.638,272.258 146.785,272.45 146.785,272.714 C146.785,272.942 146.701,273.125 146.533,273.263 C146.365,273.401 146.161,273.509 145.921,273.587 C145.681,273.665 145.438,273.716 145.192,273.74 C144.946,273.764 144.739,273.776 144.571,273.776 C144.391,273.776 144.142,273.746 143.824,273.686 C143.506,273.626 143.188,273.545 142.87,273.443 C142.552,273.341 142.279,273.215 142.051,273.065 C141.823,272.915 141.709,272.75 141.709,272.57 C141.709,272.51 141.712,272.453 141.718,272.399 C141.724,272.345 141.727,272.294 141.727,272.246 L141.727,272.246 L141.385,272.156 L140.557,274.172 L140.809,274.352 C140.869,274.28 140.941,274.244 141.025,274.244 C141.073,274.244 141.211,274.289 141.439,274.379 C141.667,274.469 141.946,274.565 142.276,274.667 C142.606,274.769 142.972,274.859 143.374,274.937 C143.776,275.015 144.181,275.054 144.589,275.054 Z M155.425,275 L155.425,274.676 C155.209,274.676 155.101,274.586 155.101,274.406 L155.101,274.406 L155.101,268.412 L157.441,268.412 C157.537,268.412 157.627,268.436 157.711,268.484 C157.795,268.532 157.837,268.61 157.837,268.718 L157.837,268.718 L158.161,268.718 L158.161,266.648 L157.837,266.648 C157.837,266.816 157.795,266.93 157.711,266.99 C157.627,267.05 157.537,267.08 157.441,267.08 L157.441,267.08 L151.033,267.08 C150.937,267.08 150.847,267.05 150.763,266.99 C150.679,266.93 150.637,266.816 150.637,266.648 L150.637,266.648 L150.313,266.648 L150.313,268.718 L150.637,268.718 C150.637,268.61 150.679,268.532 150.763,268.484 C150.847,268.436 150.937,268.412 151.033,268.412 L151.033,268.412 L153.373,268.412 L153.373,274.406 C153.373,274.502 153.343,274.571 153.283,274.613 C153.223,274.655 153.163,274.676 153.103,274.676 L153.103,274.676 L153.103,275 L155.425,275 Z M169.087,275.054 C169.495,275.054 169.93,275.024 170.392,274.964 C170.854,274.904 171.277,274.778 171.661,274.586 C172.045,274.394 172.366,274.13 172.624,273.794 C172.882,273.458 173.011,273.026 173.011,272.498 C173.011,271.97 172.864,271.556 172.57,271.256 C172.276,270.956 171.907,270.728 171.463,270.572 C171.019,270.416 170.539,270.305 170.023,270.239 C169.507,270.173 169.027,270.107 168.583,270.041 C168.139,269.975 167.77,269.885 167.476,269.771 C167.182,269.657 167.035,269.468 167.035,269.204 C167.035,269.036 167.083,268.895 167.179,268.781 C167.275,268.667 167.407,268.574 167.575,268.502 C167.743,268.43 167.935,268.379 168.151,268.349 C168.367,268.319 168.595,268.304 168.835,268.304 C169.459,268.304 170.023,268.376 170.527,268.52 C171.031,268.664 171.403,268.838 171.643,269.042 C171.739,269.114 171.793,269.186 171.805,269.258 L171.805,269.258 L171.841,269.474 L172.165,269.582 L173.065,267.89 L172.867,267.692 C172.795,267.728 172.735,267.761 172.687,267.791 C172.639,267.821 172.567,267.836 172.471,267.836 C172.387,267.836 172.258,267.791 172.084,267.701 C171.91,267.611 171.685,267.512 171.409,267.404 C171.133,267.296 170.794,267.197 170.392,267.107 C169.99,267.017 169.507,266.972 168.943,266.972 C167.791,266.972 166.897,267.2 166.261,267.656 C165.625,268.112 165.307,268.724 165.307,269.492 C165.307,270.008 165.454,270.407 165.748,270.689 C166.042,270.971 166.411,271.187 166.855,271.337 C167.299,271.487 167.779,271.595 168.295,271.661 C168.811,271.727 169.291,271.793 169.735,271.859 C170.179,271.925 170.548,272.018 170.842,272.138 C171.136,272.258 171.283,272.45 171.283,272.714 C171.283,272.942 171.199,273.125 171.031,273.263 C170.863,273.401 170.659,273.509 170.419,273.587 C170.179,273.665 169.936,273.716 169.69,273.74 C169.444,273.764 169.237,273.776 169.069,273.776 C168.889,273.776 168.64,273.746 168.322,273.686 C168.004,273.626 167.686,273.545 167.368,273.443 C167.05,273.341 166.777,273.215 166.549,273.065 C166.321,272.915 166.207,272.75 166.207,272.57 C166.207,272.51 166.21,272.453 166.216,272.399 C166.222,272.345 166.225,272.294 166.225,272.246 L166.225,272.246 L165.883,272.156 L165.055,274.172 L165.307,274.352 C165.367,274.28 165.439,274.244 165.523,274.244 C165.571,274.244 165.709,274.289 165.937,274.379 C166.165,274.469 166.444,274.565 166.774,274.667 C167.104,274.769 167.47,274.859 167.872,274.937 C168.274,275.015 168.679,275.054 169.087,275.054 Z M183.487,275.18 L183.487,273.29 L183.163,273.29 C183.163,273.41 183.115,273.503 183.019,273.569 C182.923,273.635 182.803,273.668 182.659,273.668 L182.659,273.668 L177.799,273.668 L177.799,267.674 C177.799,267.494 177.937,267.404 178.213,267.404 L178.213,267.404 L178.213,267.08 L175.603,267.08 L175.603,267.404 C175.915,267.404 176.071,267.494 176.071,267.674 L176.071,267.674 L176.071,274.406 C176.071,274.586 175.915,274.676 175.603,274.676 L175.603,274.676 L175.603,275 L182.659,275 C182.803,275 182.923,275.006 183.019,275.018 C183.115,275.03 183.163,275.084 183.163,275.18 L183.163,275.18 L183.487,275.18 Z M193.153,275.198 L193.153,273.308 L192.829,273.308 C192.829,273.416 192.781,273.503 192.685,273.569 C192.589,273.635 192.469,273.668 192.325,273.668 L192.325,273.668 L187.717,273.668 L187.717,271.544 L190.345,271.544 C190.585,271.544 190.771,271.559 190.903,271.589 C191.035,271.619 191.083,271.7 191.047,271.832 L191.047,271.832 L191.407,271.832 L191.407,269.924 L191.083,269.924 C191.083,270.056 191.035,270.137 190.939,270.167 C190.843,270.197 190.693,270.212 190.489,270.212 L190.489,270.212 L187.717,270.212 L187.717,268.412 L192.109,268.412 C192.481,268.412 192.667,268.526 192.667,268.754 L192.667,268.754 L192.991,268.754 L192.991,266.756 L192.667,266.756 C192.667,266.972 192.481,267.08 192.109,267.08 L192.109,267.08 L185.719,267.08 L185.719,267.404 C185.779,267.404 185.839,267.425 185.899,267.467 C185.959,267.509 185.989,267.578 185.989,267.674 L185.989,267.674 L185.989,274.406 C185.989,274.502 185.959,274.571 185.899,274.613 C185.839,274.655 185.779,274.676 185.719,274.676 L185.719,274.676 L185.719,275 L192.325,275 C192.469,275 192.589,275.006 192.685,275.018 C192.781,275.03 192.829,275.09 192.829,275.198 L192.829,275.198 L193.153,275.198 Z M198.013,275 L198.013,274.676 C197.761,274.676 197.635,274.586 197.635,274.406 L197.635,274.406 L197.635,271.706 L200.695,271.706 C201.667,271.706 202.396,271.541 202.882,271.211 C203.368,270.881 203.611,270.284 203.611,269.42 C203.611,268.556 203.368,267.95 202.882,267.602 C202.396,267.254 201.667,267.08 200.695,267.08 L200.695,267.08 L195.457,267.08 L195.457,267.404 C195.757,267.404 195.907,267.494 195.907,267.674 L195.907,267.674 L195.907,274.406 C195.907,274.586 195.757,274.676 195.457,274.676 L195.457,274.676 L195.457,275 L198.013,275 Z M200.659,270.374 L197.635,270.374 L197.635,268.412 L200.659,268.412 C201.007,268.412 201.298,268.487 201.532,268.637 C201.766,268.787 201.883,269.048 201.883,269.42 C201.883,269.804 201.766,270.059 201.532,270.185 C201.298,270.311 201.007,270.374 200.659,270.374 L200.659,270.374 Z M209.947,275 L209.947,274.676 C209.731,274.676 209.623,274.586 209.623,274.406 L209.623,274.406 L209.623,268.412 L211.963,268.412 C212.059,268.412 212.149,268.436 212.233,268.484 C212.317,268.532 212.359,268.61 212.359,268.718 L212.359,268.718 L212.683,268.718 L212.683,266.648 L212.359,266.648 C212.359,266.816 212.317,266.93 212.233,266.99 C212.149,267.05 212.059,267.08 211.963,267.08 L211.963,267.08 L205.555,267.08 C205.459,267.08 205.369,267.05 205.285,266.99 C205.201,266.93 205.159,266.816 205.159,266.648 L205.159,266.648 L204.835,266.648 L204.835,268.718 L205.159,268.718 C205.159,268.61 205.201,268.532 205.285,268.484 C205.369,268.436 205.459,268.412 205.555,268.412 L205.555,268.412 L207.895,268.412 L207.895,274.406 C207.895,274.502 207.865,274.571 207.805,274.613 C207.745,274.655 207.685,274.676 207.625,274.676 L207.625,274.676 L207.625,275 L209.947,275 Z M102.991,293 L102.991,292.676 C102.883,292.676 102.811,292.658 102.775,292.622 C102.739,292.586 102.721,292.52 102.721,292.424 C102.721,292.388 102.766,292.253 102.856,292.019 C102.946,291.785 103.06,291.497 103.198,291.155 C103.336,290.813 103.486,290.441 103.648,290.039 C103.81,289.637 103.963,289.253 104.107,288.887 C104.251,288.521 104.377,288.197 104.485,287.915 C104.593,287.633 104.659,287.438 104.683,287.33 L104.683,287.33 L104.719,287.33 C104.911,287.93 105.109,288.524 105.313,289.112 C105.517,289.7 105.706,290.231 105.88,290.705 C106.054,291.179 106.195,291.572 106.303,291.884 C106.411,292.196 106.465,292.376 106.465,292.424 C106.465,292.52 106.453,292.583 106.429,292.613 C106.405,292.643 106.345,292.664 106.249,292.676 L106.249,292.676 L106.249,293 L108.769,293 L108.769,292.676 C108.601,292.676 108.517,292.598 108.517,292.442 C108.517,292.382 108.553,292.271 108.625,292.109 C108.697,291.947 108.769,291.764 108.841,291.56 L108.841,291.56 L110.911,286.07 C111.067,285.626 111.247,285.404 111.451,285.404 L111.451,285.404 L111.451,285.08 L109.165,285.08 L109.165,285.404 C109.357,285.404 109.453,285.488 109.453,285.656 C109.453,285.74 109.432,285.845 109.39,285.971 C109.348,286.097 109.297,286.244 109.237,286.412 L109.237,286.412 L107.563,290.786 L105.979,286.448 C105.919,286.304 105.859,286.151 105.799,285.989 C105.739,285.827 105.709,285.704 105.709,285.62 C105.709,285.476 105.817,285.404 106.033,285.404 L106.033,285.404 L106.033,285.08 L103.459,285.08 L103.459,285.404 C103.651,285.404 103.747,285.488 103.747,285.656 C103.747,285.752 103.72,285.875 103.666,286.025 C103.612,286.175 103.555,286.334 103.495,286.502 L103.495,286.502 L101.965,290.786 L101.929,290.786 L100.345,286.412 C100.273,286.22 100.213,286.061 100.165,285.935 C100.117,285.809 100.093,285.716 100.093,285.656 C100.093,285.488 100.171,285.404 100.327,285.404 L100.327,285.404 L100.327,285.08 L98.041,285.08 L98.041,285.404 C98.221,285.44 98.347,285.554 98.419,285.746 L98.419,285.746 L100.795,291.992 C100.819,292.052 100.852,292.139 100.894,292.253 C100.936,292.367 100.957,292.46 100.957,292.532 C100.957,292.604 100.939,292.646 100.903,292.658 C100.867,292.67 100.825,292.676 100.777,292.676 L100.777,292.676 L100.777,293 L102.991,293 Z M115.555,293 L115.555,292.676 C115.483,292.676 115.408,292.655 115.33,292.613 C115.252,292.571 115.213,292.502 115.213,292.406 L115.213,292.406 L115.213,289.832 L117.715,289.832 L119.137,291.956 C119.317,292.208 119.407,292.394 119.407,292.514 C119.407,292.622 119.329,292.676 119.173,292.676 L119.173,292.676 L119.173,293 L121.927,293 L121.927,292.676 C121.795,292.64 121.672,292.589 121.558,292.523 C121.444,292.457 121.339,292.358 121.243,292.226 L121.243,292.226 L119.479,289.652 C119.731,289.592 119.977,289.505 120.217,289.391 C120.457,289.277 120.676,289.127 120.874,288.941 C121.072,288.755 121.231,288.536 121.351,288.284 C121.471,288.032 121.531,287.744 121.531,287.42 C121.531,286.568 121.231,285.965 120.631,285.611 C120.031,285.257 119.197,285.08 118.129,285.08 L118.129,285.08 L113.161,285.08 L113.161,285.404 C113.377,285.404 113.485,285.494 113.485,285.674 L113.485,285.674 L113.485,292.406 C113.485,292.586 113.377,292.676 113.161,292.676 L113.161,292.676 L113.161,293 L115.555,293 Z M118.093,288.5 L115.249,288.5 L115.249,286.412 L118.093,286.412 C118.705,286.412 119.152,286.499 119.434,286.673 C119.716,286.847 119.857,287.084 119.857,287.384 C119.857,288.128 119.269,288.5 118.093,288.5 L118.093,288.5 Z M128.245,293.054 C128.905,293.054 129.526,292.979 130.108,292.829 C130.69,292.679 131.197,292.436 131.629,292.1 C132.061,291.764 132.403,291.341 132.655,290.831 C132.907,290.321 133.033,289.724 133.033,289.04 C133.033,288.356 132.907,287.759 132.655,287.249 C132.403,286.739 132.061,286.316 131.629,285.98 C131.197,285.644 130.69,285.392 130.108,285.224 C129.526,285.056 128.905,284.972 128.245,284.972 C127.585,284.972 126.964,285.056 126.382,285.224 C125.8,285.392 125.293,285.644 124.861,285.98 C124.429,286.316 124.087,286.739 123.835,287.249 C123.583,287.759 123.457,288.356 123.457,289.04 C123.457,289.724 123.583,290.321 123.835,290.831 C124.087,291.341 124.429,291.764 124.861,292.1 C125.293,292.436 125.8,292.679 126.382,292.829 C126.964,292.979 127.585,293.054 128.245,293.054 Z M128.245,291.776 C127.861,291.776 127.486,291.713 127.12,291.587 C126.754,291.461 126.427,291.281 126.139,291.047 C125.851,290.813 125.62,290.528 125.446,290.192 C125.272,289.856 125.185,289.472 125.185,289.04 C125.185,288.608 125.272,288.224 125.446,287.888 C125.62,287.552 125.851,287.267 126.139,287.033 C126.427,286.799 126.754,286.619 127.12,286.493 C127.486,286.367 127.861,286.304 128.245,286.304 C128.629,286.304 129.004,286.367 129.37,286.493 C129.736,286.619 130.063,286.799 130.351,287.033 C130.639,287.267 130.87,287.552 131.044,287.888 C131.218,288.224 131.305,288.608 131.305,289.04 C131.305,289.472 131.218,289.856 131.044,290.192 C130.87,290.528 130.639,290.813 130.351,291.047 C130.063,291.281 129.736,291.461 129.37,291.587 C129.004,291.713 128.629,291.776 128.245,291.776 Z M137.425,293 L137.425,292.676 C137.173,292.676 137.047,292.586 137.047,292.406 L137.047,292.406 L137.047,287.168 L141.511,291.92 C141.655,292.076 141.784,292.214 141.898,292.334 C142.012,292.454 142.069,292.538 142.069,292.586 C142.069,292.646 142.027,292.676 141.943,292.676 L141.943,292.676 L141.943,293 L144.283,293 L144.283,292.676 C144.067,292.676 143.959,292.586 143.959,292.406 L143.959,292.406 L143.959,285.674 C143.959,285.494 144.067,285.404 144.283,285.404 L144.283,285.404 L144.283,285.08 L142.087,285.08 L142.087,285.404 C142.327,285.404 142.447,285.494 142.447,285.674 L142.447,285.674 L142.447,290.552 L138.127,285.98 C137.863,285.716 137.731,285.554 137.731,285.494 C137.731,285.446 137.773,285.416 137.857,285.404 L137.857,285.404 L137.857,285.08 L135.211,285.08 L135.211,285.404 C135.427,285.404 135.535,285.494 135.535,285.674 L135.535,285.674 L135.535,292.406 C135.535,292.586 135.427,292.676 135.211,292.676 L135.211,292.676 L135.211,293 L137.425,293 Z M151.447,293.054 C152.023,293.054 152.545,293.015 153.013,292.937 C153.481,292.859 153.892,292.76 154.246,292.64 C154.6,292.52 154.894,292.397 155.128,292.271 C155.362,292.145 155.533,292.046 155.641,291.974 L155.641,291.974 L155.641,291.758 C155.521,291.71 155.446,291.665 155.416,291.623 C155.386,291.581 155.371,291.506 155.371,291.398 L155.371,291.398 L155.371,289.688 C155.371,289.568 155.389,289.478 155.425,289.418 C155.461,289.358 155.533,289.304 155.641,289.256 L155.641,289.256 L155.641,288.932 L152.113,288.932 C151.981,288.932 151.867,288.914 151.771,288.878 C151.675,288.842 151.615,288.764 151.591,288.644 L151.591,288.644 L151.267,288.644 L151.267,290.498 L151.591,290.498 C151.615,290.354 151.675,290.255 151.771,290.201 C151.867,290.147 151.981,290.12 152.113,290.12 L152.113,290.12 L153.967,290.12 L153.967,291.254 C153.583,291.458 153.16,291.596 152.698,291.668 C152.236,291.74 151.747,291.776 151.231,291.776 C150.883,291.776 150.523,291.728 150.151,291.632 C149.779,291.536 149.44,291.383 149.134,291.173 C148.828,290.963 148.579,290.687 148.387,290.345 C148.195,290.003 148.099,289.58 148.099,289.076 C148.099,288.572 148.189,288.146 148.369,287.798 C148.549,287.45 148.789,287.165 149.089,286.943 C149.389,286.721 149.737,286.559 150.133,286.457 C150.529,286.355 150.949,286.304 151.393,286.304 C151.717,286.304 152.038,286.337 152.356,286.403 C152.674,286.469 152.959,286.556 153.211,286.664 C153.463,286.772 153.667,286.889 153.823,287.015 C153.979,287.141 154.057,287.258 154.057,287.366 C154.057,287.378 154.045,287.444 154.021,287.564 L154.021,287.564 L154.237,287.69 L155.281,285.728 L155.065,285.62 C154.993,285.68 154.933,285.719 154.885,285.737 C154.837,285.755 154.765,285.764 154.669,285.764 C154.585,285.764 154.459,285.722 154.291,285.638 C154.123,285.554 153.901,285.464 153.625,285.368 C153.361,285.272 153.049,285.182 152.689,285.098 C152.329,285.014 151.915,284.972 151.447,284.972 C150.667,284.972 149.962,285.065 149.332,285.251 C148.702,285.437 148.168,285.707 147.73,286.061 C147.292,286.415 146.956,286.841 146.722,287.339 C146.488,287.837 146.371,288.404 146.371,289.04 C146.371,289.676 146.488,290.243 146.722,290.741 C146.956,291.239 147.292,291.662 147.73,292.01 C148.168,292.358 148.702,292.619 149.332,292.793 C149.962,292.967 150.667,293.054 151.447,293.054 Z M159.493,293.054 C159.841,293.054 160.141,292.937 160.393,292.703 C160.645,292.469 160.771,292.178 160.771,291.83 C160.771,291.482 160.645,291.182 160.393,290.93 C160.141,290.678 159.841,290.552 159.493,290.552 C159.145,290.552 158.845,290.678 158.593,290.93 C158.341,291.182 158.215,291.482 158.215,291.83 C158.215,292.178 158.341,292.469 158.593,292.703 C158.845,292.937 159.145,293.054 159.493,293.054 Z M57.19,311 L57.19,310.676 C56.962,310.676 56.848,310.61 56.848,310.478 C56.848,310.37 56.908,310.19 57.028,309.938 L57.028,309.938 L57.676,308.66 L62.068,308.66 L62.752,309.992 C62.848,310.184 62.896,310.34 62.896,310.46 C62.896,310.532 62.86,310.586 62.788,310.622 C62.716,310.658 62.656,310.676 62.608,310.676 L62.608,310.676 L62.608,311 L65.776,311 L65.776,310.676 C65.644,310.616 65.527,310.556 65.425,310.496 C65.323,310.436 65.242,310.34 65.182,310.208 L65.182,310.208 L61.438,302.882 C61.354,302.726 61.291,302.6 61.249,302.504 C61.207,302.408 61.186,302.312 61.186,302.216 C61.186,302.084 61.228,301.997 61.312,301.955 C61.396,301.913 61.48,301.88 61.564,301.856 L61.564,301.856 L61.564,301.532 L58.522,301.532 L58.522,301.856 C58.618,301.88 58.708,301.916 58.792,301.964 C58.876,302.012 58.918,302.096 58.918,302.216 C58.918,302.312 58.885,302.426 58.819,302.558 C58.753,302.69 58.678,302.834 58.594,302.99 L58.594,302.99 L55.264,309.992 C55.18,310.16 55.093,310.31 55.003,310.442 C54.913,310.574 54.79,310.652 54.634,310.676 L54.634,310.676 L54.634,311 L57.19,311 Z M61.42,307.328 L58.216,307.328 L59.908,303.98 L61.42,307.328 Z M72.544,311 C73.252,311 73.852,310.886 74.344,310.658 C74.836,310.43 75.238,310.133 75.55,309.767 C75.862,309.401 76.09,308.981 76.234,308.507 C76.378,308.033 76.45,307.544 76.45,307.04 C76.45,306.536 76.375,306.047 76.225,305.573 C76.075,305.099 75.841,304.679 75.523,304.313 C75.205,303.947 74.794,303.65 74.29,303.422 C73.786,303.194 73.18,303.08 72.472,303.08 L72.472,303.08 L67.468,303.08 L67.468,303.404 C67.744,303.404 67.882,303.494 67.882,303.674 L67.882,303.674 L67.882,310.406 C67.882,310.586 67.744,310.676 67.468,310.676 L67.468,310.676 L67.468,311 L72.544,311 Z M71.95,309.668 L69.61,309.668 L69.61,304.412 L71.95,304.412 C72.322,304.412 72.676,304.433 73.012,304.475 C73.348,304.517 73.642,304.625 73.894,304.799 C74.146,304.973 74.347,305.231 74.497,305.573 C74.647,305.915 74.722,306.386 74.722,306.986 C74.722,307.586 74.647,308.063 74.497,308.417 C74.347,308.771 74.146,309.041 73.894,309.227 C73.642,309.413 73.348,309.533 73.012,309.587 C72.676,309.641 72.322,309.668 71.95,309.668 L71.95,309.668 Z M83.542,311 C84.25,311 84.85,310.886 85.342,310.658 C85.834,310.43 86.236,310.133 86.548,309.767 C86.86,309.401 87.088,308.981 87.232,308.507 C87.376,308.033 87.448,307.544 87.448,307.04 C87.448,306.536 87.373,306.047 87.223,305.573 C87.073,305.099 86.839,304.679 86.521,304.313 C86.203,303.947 85.792,303.65 85.288,303.422 C84.784,303.194 84.178,303.08 83.47,303.08 L83.47,303.08 L78.466,303.08 L78.466,303.404 C78.742,303.404 78.88,303.494 78.88,303.674 L78.88,303.674 L78.88,310.406 C78.88,310.586 78.742,310.676 78.466,310.676 L78.466,310.676 L78.466,311 L83.542,311 Z M82.948,309.668 L80.608,309.668 L80.608,304.412 L82.948,304.412 C83.32,304.412 83.674,304.433 84.01,304.475 C84.346,304.517 84.64,304.625 84.892,304.799 C85.144,304.973 85.345,305.231 85.495,305.573 C85.645,305.915 85.72,306.386 85.72,306.986 C85.72,307.586 85.645,308.063 85.495,308.417 C85.345,308.771 85.144,309.041 84.892,309.227 C84.64,309.413 84.346,309.533 84.01,309.587 C83.674,309.641 83.32,309.668 82.948,309.668 L82.948,309.668 Z M99.436,311 L99.436,310.676 C99.22,310.676 99.112,310.586 99.112,310.406 L99.112,310.406 L99.112,304.412 L101.452,304.412 C101.548,304.412 101.638,304.436 101.722,304.484 C101.806,304.532 101.848,304.61 101.848,304.718 L101.848,304.718 L102.172,304.718 L102.172,302.648 L101.848,302.648 C101.848,302.816 101.806,302.93 101.722,302.99 C101.638,303.05 101.548,303.08 101.452,303.08 L101.452,303.08 L95.044,303.08 C94.948,303.08 94.858,303.05 94.774,302.99 C94.69,302.93 94.648,302.816 94.648,302.648 L94.648,302.648 L94.324,302.648 L94.324,304.718 L94.648,304.718 C94.648,304.61 94.69,304.532 94.774,304.484 C94.858,304.436 94.948,304.412 95.044,304.412 L95.044,304.412 L97.384,304.412 L97.384,310.406 C97.384,310.502 97.354,310.571 97.294,310.613 C97.234,310.655 97.174,310.676 97.114,310.676 L97.114,310.676 L97.114,311 L99.436,311 Z M106.6,311 L106.6,310.676 C106.528,310.676 106.465,310.655 106.411,310.613 C106.357,310.571 106.33,310.502 106.33,310.406 L106.33,310.406 L106.33,307.688 L111.154,307.688 L111.154,310.406 C111.154,310.502 111.127,310.571 111.073,310.613 C111.019,310.655 110.956,310.676 110.884,310.676 L110.884,310.676 L110.884,311 L113.152,311 L113.152,310.676 C113.08,310.676 113.017,310.655 112.963,310.613 C112.909,310.571 112.882,310.502 112.882,310.406 L112.882,310.406 L112.882,303.674 C112.882,303.578 112.909,303.509 112.963,303.467 C113.017,303.425 113.08,303.404 113.152,303.404 L113.152,303.404 L113.152,303.08 L110.884,303.08 L110.884,303.404 C110.956,303.404 111.019,303.425 111.073,303.467 C111.127,303.509 111.154,303.578 111.154,303.674 L111.154,303.674 L111.154,306.212 L106.33,306.212 L106.33,303.674 C106.33,303.578 106.357,303.509 106.411,303.467 C106.465,303.425 106.528,303.404 106.6,303.404 L106.6,303.404 L106.6,303.08 L104.332,303.08 L104.332,303.404 C104.404,303.404 104.467,303.425 104.521,303.467 C104.575,303.509 104.602,303.578 104.602,303.674 L104.602,303.674 L104.602,310.406 C104.602,310.502 104.575,310.571 104.521,310.613 C104.467,310.655 104.404,310.676 104.332,310.676 L104.332,310.676 L104.332,311 L106.6,311 Z M119.11,311 L119.11,310.676 C118.774,310.676 118.606,310.586 118.606,310.406 L118.606,310.406 L118.606,303.674 C118.606,303.494 118.774,303.404 119.11,303.404 L119.11,303.404 L119.11,303.08 L116.374,303.08 L116.374,303.404 C116.566,303.404 116.698,303.425 116.77,303.467 C116.842,303.509 116.878,303.578 116.878,303.674 L116.878,303.674 L116.878,310.406 C116.878,310.502 116.842,310.571 116.77,310.613 C116.698,310.655 116.566,310.676 116.374,310.676 L116.374,310.676 L116.374,311 L119.11,311 Z M125.608,311.054 C126.016,311.054 126.451,311.024 126.913,310.964 C127.375,310.904 127.798,310.778 128.182,310.586 C128.566,310.394 128.887,310.13 129.145,309.794 C129.403,309.458 129.532,309.026 129.532,308.498 C129.532,307.97 129.385,307.556 129.091,307.256 C128.797,306.956 128.428,306.728 127.984,306.572 C127.54,306.416 127.06,306.305 126.544,306.239 C126.028,306.173 125.548,306.107 125.104,306.041 C124.66,305.975 124.291,305.885 123.997,305.771 C123.703,305.657 123.556,305.468 123.556,305.204 C123.556,305.036 123.604,304.895 123.7,304.781 C123.796,304.667 123.928,304.574 124.096,304.502 C124.264,304.43 124.456,304.379 124.672,304.349 C124.888,304.319 125.116,304.304 125.356,304.304 C125.98,304.304 126.544,304.376 127.048,304.52 C127.552,304.664 127.924,304.838 128.164,305.042 C128.26,305.114 128.314,305.186 128.326,305.258 L128.326,305.258 L128.362,305.474 L128.686,305.582 L129.586,303.89 L129.388,303.692 C129.316,303.728 129.256,303.761 129.208,303.791 C129.16,303.821 129.088,303.836 128.992,303.836 C128.908,303.836 128.779,303.791 128.605,303.701 C128.431,303.611 128.206,303.512 127.93,303.404 C127.654,303.296 127.315,303.197 126.913,303.107 C126.511,303.017 126.028,302.972 125.464,302.972 C124.312,302.972 123.418,303.2 122.782,303.656 C122.146,304.112 121.828,304.724 121.828,305.492 C121.828,306.008 121.975,306.407 122.269,306.689 C122.563,306.971 122.932,307.187 123.376,307.337 C123.82,307.487 124.3,307.595 124.816,307.661 C125.332,307.727 125.812,307.793 126.256,307.859 C126.7,307.925 127.069,308.018 127.363,308.138 C127.657,308.258 127.804,308.45 127.804,308.714 C127.804,308.942 127.72,309.125 127.552,309.263 C127.384,309.401 127.18,309.509 126.94,309.587 C126.7,309.665 126.457,309.716 126.211,309.74 C125.965,309.764 125.758,309.776 125.59,309.776 C125.41,309.776 125.161,309.746 124.843,309.686 C124.525,309.626 124.207,309.545 123.889,309.443 C123.571,309.341 123.298,309.215 123.07,309.065 C122.842,308.915 122.728,308.75 122.728,308.57 C122.728,308.51 122.731,308.453 122.737,308.399 C122.743,308.345 122.746,308.294 122.746,308.246 L122.746,308.246 L122.404,308.156 L121.576,310.172 L121.828,310.352 C121.888,310.28 121.96,310.244 122.044,310.244 C122.092,310.244 122.23,310.289 122.458,310.379 C122.686,310.469 122.965,310.565 123.295,310.667 C123.625,310.769 123.991,310.859 124.393,310.937 C124.795,311.015 125.2,311.054 125.608,311.054 Z M141.934,311 L141.934,310.676 C141.718,310.676 141.61,310.586 141.61,310.406 L141.61,310.406 L141.61,304.412 L143.95,304.412 C144.046,304.412 144.136,304.436 144.22,304.484 C144.304,304.532 144.346,304.61 144.346,304.718 L144.346,304.718 L144.67,304.718 L144.67,302.648 L144.346,302.648 C144.346,302.816 144.304,302.93 144.22,302.99 C144.136,303.05 144.046,303.08 143.95,303.08 L143.95,303.08 L137.542,303.08 C137.446,303.08 137.356,303.05 137.272,302.99 C137.188,302.93 137.146,302.816 137.146,302.648 L137.146,302.648 L136.822,302.648 L136.822,304.718 L137.146,304.718 C137.146,304.61 137.188,304.532 137.272,304.484 C137.356,304.436 137.446,304.412 137.542,304.412 L137.542,304.412 L139.882,304.412 L139.882,310.406 C139.882,310.502 139.852,310.571 139.792,310.613 C139.732,310.655 139.672,310.676 139.612,310.676 L139.612,310.676 L139.612,311 L141.934,311 Z M150.736,311.054 C151.396,311.054 152.017,310.979 152.599,310.829 C153.181,310.679 153.688,310.436 154.12,310.1 C154.552,309.764 154.894,309.341 155.146,308.831 C155.398,308.321 155.524,307.724 155.524,307.04 C155.524,306.356 155.398,305.759 155.146,305.249 C154.894,304.739 154.552,304.316 154.12,303.98 C153.688,303.644 153.181,303.392 152.599,303.224 C152.017,303.056 151.396,302.972 150.736,302.972 C150.076,302.972 149.455,303.056 148.873,303.224 C148.291,303.392 147.784,303.644 147.352,303.98 C146.92,304.316 146.578,304.739 146.326,305.249 C146.074,305.759 145.948,306.356 145.948,307.04 C145.948,307.724 146.074,308.321 146.326,308.831 C146.578,309.341 146.92,309.764 147.352,310.1 C147.784,310.436 148.291,310.679 148.873,310.829 C149.455,310.979 150.076,311.054 150.736,311.054 Z M150.736,309.776 C150.352,309.776 149.977,309.713 149.611,309.587 C149.245,309.461 148.918,309.281 148.63,309.047 C148.342,308.813 148.111,308.528 147.937,308.192 C147.763,307.856 147.676,307.472 147.676,307.04 C147.676,306.608 147.763,306.224 147.937,305.888 C148.111,305.552 148.342,305.267 148.63,305.033 C148.918,304.799 149.245,304.619 149.611,304.493 C149.977,304.367 150.352,304.304 150.736,304.304 C151.12,304.304 151.495,304.367 151.861,304.493 C152.227,304.619 152.554,304.799 152.842,305.033 C153.13,305.267 153.361,305.552 153.535,305.888 C153.709,306.224 153.796,306.608 153.796,307.04 C153.796,307.472 153.709,307.856 153.535,308.192 C153.361,308.528 153.13,308.813 152.842,309.047 C152.554,309.281 152.227,309.461 151.861,309.587 C151.495,309.713 151.12,309.776 150.736,309.776 Z M167.944,311 L167.944,310.676 C167.716,310.676 167.602,310.586 167.602,310.406 L167.602,310.406 L167.602,307.706 L170.356,304.142 C170.488,303.974 170.641,303.809 170.815,303.647 C170.989,303.485 171.148,303.404 171.292,303.404 L171.292,303.404 L171.292,303.08 L168.538,303.08 L168.538,303.404 C168.598,303.404 168.658,303.416 168.718,303.44 C168.778,303.464 168.808,303.524 168.808,303.62 C168.808,303.692 168.781,303.767 168.727,303.845 C168.673,303.923 168.592,304.04 168.484,304.196 L168.484,304.196 L166.882,306.428 L165.064,304.052 C165.004,303.968 164.95,303.896 164.902,303.836 C164.854,303.776 164.83,303.71 164.83,303.638 C164.83,303.566 164.866,303.509 164.938,303.467 C165.01,303.425 165.076,303.404 165.136,303.404 L165.136,303.404 L165.136,303.08 L162.166,303.08 L162.166,303.404 C162.274,303.404 162.388,303.428 162.508,303.476 C162.628,303.524 162.73,303.602 162.814,303.71 L162.814,303.71 L165.874,307.634 L165.874,310.406 C165.874,310.586 165.766,310.676 165.55,310.676 L165.55,310.676 L165.55,311 L167.944,311 Z M177.232,311.054 C177.892,311.054 178.513,310.979 179.095,310.829 C179.677,310.679 180.184,310.436 180.616,310.1 C181.048,309.764 181.39,309.341 181.642,308.831 C181.894,308.321 182.02,307.724 182.02,307.04 C182.02,306.356 181.894,305.759 181.642,305.249 C181.39,304.739 181.048,304.316 180.616,303.98 C180.184,303.644 179.677,303.392 179.095,303.224 C178.513,303.056 177.892,302.972 177.232,302.972 C176.572,302.972 175.951,303.056 175.369,303.224 C174.787,303.392 174.28,303.644 173.848,303.98 C173.416,304.316 173.074,304.739 172.822,305.249 C172.57,305.759 172.444,306.356 172.444,307.04 C172.444,307.724 172.57,308.321 172.822,308.831 C173.074,309.341 173.416,309.764 173.848,310.1 C174.28,310.436 174.787,310.679 175.369,310.829 C175.951,310.979 176.572,311.054 177.232,311.054 Z M177.232,309.776 C176.848,309.776 176.473,309.713 176.107,309.587 C175.741,309.461 175.414,309.281 175.126,309.047 C174.838,308.813 174.607,308.528 174.433,308.192 C174.259,307.856 174.172,307.472 174.172,307.04 C174.172,306.608 174.259,306.224 174.433,305.888 C174.607,305.552 174.838,305.267 175.126,305.033 C175.414,304.799 175.741,304.619 176.107,304.493 C176.473,304.367 176.848,304.304 177.232,304.304 C177.616,304.304 177.991,304.367 178.357,304.493 C178.723,304.619 179.05,304.799 179.338,305.033 C179.626,305.267 179.857,305.552 180.031,305.888 C180.205,306.224 180.292,306.608 180.292,307.04 C180.292,307.472 180.205,307.856 180.031,308.192 C179.857,308.528 179.626,308.813 179.338,309.047 C179.05,309.281 178.723,309.461 178.357,309.587 C177.991,309.713 177.616,309.776 177.232,309.776 Z M188.806,311.054 C189.526,311.054 190.153,310.979 190.687,310.829 C191.221,310.679 191.659,310.472 192.001,310.208 C192.343,309.944 192.598,309.641 192.766,309.299 C192.934,308.957 193.018,308.6 193.018,308.228 L193.018,308.228 L193.018,303.674 C193.018,303.494 193.15,303.404 193.414,303.404 L193.414,303.404 L193.414,303.08 L190.912,303.08 L190.912,303.404 C191.212,303.404 191.362,303.494 191.362,303.674 L191.362,303.674 L191.362,307.796 C191.362,308.372 191.152,308.834 190.732,309.182 C190.312,309.53 189.67,309.704 188.806,309.704 C187.942,309.704 187.3,309.53 186.88,309.182 C186.46,308.834 186.25,308.372 186.25,307.796 L186.25,307.796 L186.25,303.674 C186.25,303.494 186.382,303.404 186.646,303.404 L186.646,303.404 L186.646,303.08 L184.072,303.08 L184.072,303.404 C184.276,303.404 184.414,303.425 184.486,303.467 C184.558,303.509 184.594,303.578 184.594,303.674 L184.594,303.674 L184.594,308.228 C184.594,308.6 184.678,308.957 184.846,309.299 C185.014,309.641 185.269,309.944 185.611,310.208 C185.953,310.472 186.391,310.679 186.925,310.829 C187.459,310.979 188.086,311.054 188.806,311.054 Z M198.544,311 L198.544,310.676 C198.472,310.676 198.397,310.655 198.319,310.613 C198.241,310.571 198.202,310.502 198.202,310.406 L198.202,310.406 L198.202,307.832 L200.704,307.832 L202.126,309.956 C202.306,310.208 202.396,310.394 202.396,310.514 C202.396,310.622 202.318,310.676 202.162,310.676 L202.162,310.676 L202.162,311 L204.916,311 L204.916,310.676 C204.784,310.64 204.661,310.589 204.547,310.523 C204.433,310.457 204.328,310.358 204.232,310.226 L204.232,310.226 L202.468,307.652 C202.72,307.592 202.966,307.505 203.206,307.391 C203.446,307.277 203.665,307.127 203.863,306.941 C204.061,306.755 204.22,306.536 204.34,306.284 C204.46,306.032 204.52,305.744 204.52,305.42 C204.52,304.568 204.22,303.965 203.62,303.611 C203.02,303.257 202.186,303.08 201.118,303.08 L201.118,303.08 L196.15,303.08 L196.15,303.404 C196.366,303.404 196.474,303.494 196.474,303.674 L196.474,303.674 L196.474,310.406 C196.474,310.586 196.366,310.676 196.15,310.676 L196.15,310.676 L196.15,311 L198.544,311 Z M201.082,306.5 L198.238,306.5 L198.238,304.412 L201.082,304.412 C201.694,304.412 202.141,304.499 202.423,304.673 C202.705,304.847 202.846,305.084 202.846,305.384 C202.846,306.128 202.258,306.5 201.082,306.5 L201.082,306.5 Z M73.354,329.054 C73.762,329.054 74.197,329.024 74.659,328.964 C75.121,328.904 75.544,328.778 75.928,328.586 C76.312,328.394 76.633,328.13 76.891,327.794 C77.149,327.458 77.278,327.026 77.278,326.498 C77.278,325.97 77.131,325.556 76.837,325.256 C76.543,324.956 76.174,324.728 75.73,324.572 C75.286,324.416 74.806,324.305 74.29,324.239 C73.774,324.173 73.294,324.107 72.85,324.041 C72.406,323.975 72.037,323.885 71.743,323.771 C71.449,323.657 71.302,323.468 71.302,323.204 C71.302,323.036 71.35,322.895 71.446,322.781 C71.542,322.667 71.674,322.574 71.842,322.502 C72.01,322.43 72.202,322.379 72.418,322.349 C72.634,322.319 72.862,322.304 73.102,322.304 C73.726,322.304 74.29,322.376 74.794,322.52 C75.298,322.664 75.67,322.838 75.91,323.042 C76.006,323.114 76.06,323.186 76.072,323.258 L76.072,323.258 L76.108,323.474 L76.432,323.582 L77.332,321.89 L77.134,321.692 C77.062,321.728 77.002,321.761 76.954,321.791 C76.906,321.821 76.834,321.836 76.738,321.836 C76.654,321.836 76.525,321.791 76.351,321.701 C76.177,321.611 75.952,321.512 75.676,321.404 C75.4,321.296 75.061,321.197 74.659,321.107 C74.257,321.017 73.774,320.972 73.21,320.972 C72.058,320.972 71.164,321.2 70.528,321.656 C69.892,322.112 69.574,322.724 69.574,323.492 C69.574,324.008 69.721,324.407 70.015,324.689 C70.309,324.971 70.678,325.187 71.122,325.337 C71.566,325.487 72.046,325.595 72.562,325.661 C73.078,325.727 73.558,325.793 74.002,325.859 C74.446,325.925 74.815,326.018 75.109,326.138 C75.403,326.258 75.55,326.45 75.55,326.714 C75.55,326.942 75.466,327.125 75.298,327.263 C75.13,327.401 74.926,327.509 74.686,327.587 C74.446,327.665 74.203,327.716 73.957,327.74 C73.711,327.764 73.504,327.776 73.336,327.776 C73.156,327.776 72.907,327.746 72.589,327.686 C72.271,327.626 71.953,327.545 71.635,327.443 C71.317,327.341 71.044,327.215 70.816,327.065 C70.588,326.915 70.474,326.75 70.474,326.57 C70.474,326.51 70.477,326.453 70.483,326.399 C70.489,326.345 70.492,326.294 70.492,326.246 L70.492,326.246 L70.15,326.156 L69.322,328.172 L69.574,328.352 C69.634,328.28 69.706,328.244 69.79,328.244 C69.838,328.244 69.976,328.289 70.204,328.379 C70.432,328.469 70.711,328.565 71.041,328.667 C71.371,328.769 71.737,328.859 72.139,328.937 C72.541,329.015 72.946,329.054 73.354,329.054 Z M84.712,329 L84.712,328.676 C84.484,328.676 84.37,328.586 84.37,328.406 L84.37,328.406 L84.37,325.706 L87.124,322.142 C87.256,321.974 87.409,321.809 87.583,321.647 C87.757,321.485 87.916,321.404 88.06,321.404 L88.06,321.404 L88.06,321.08 L85.306,321.08 L85.306,321.404 C85.366,321.404 85.426,321.416 85.486,321.44 C85.546,321.464 85.576,321.524 85.576,321.62 C85.576,321.692 85.549,321.767 85.495,321.845 C85.441,321.923 85.36,322.04 85.252,322.196 L85.252,322.196 L83.65,324.428 L81.832,322.052 C81.772,321.968 81.718,321.896 81.67,321.836 C81.622,321.776 81.598,321.71 81.598,321.638 C81.598,321.566 81.634,321.509 81.706,321.467 C81.778,321.425 81.844,321.404 81.904,321.404 L81.904,321.404 L81.904,321.08 L78.934,321.08 L78.934,321.404 C79.042,321.404 79.156,321.428 79.276,321.476 C79.396,321.524 79.498,321.602 79.582,321.71 L79.582,321.71 L82.642,325.634 L82.642,328.406 C82.642,328.586 82.534,328.676 82.318,328.676 L82.318,328.676 L82.318,329 L84.712,329 Z M92.218,329 L92.218,328.676 C92.014,328.676 91.912,328.586 91.912,328.406 L91.912,328.406 L91.912,323.348 L91.93,323.348 L94.828,329 L94.972,329 L98.032,323.348 L98.068,323.348 L98.068,328.406 C98.104,328.586 97.996,328.676 97.744,328.676 L97.744,328.676 L97.744,329 L99.832,329 L99.832,328.676 C99.772,328.676 99.715,328.655 99.661,328.613 C99.607,328.571 99.58,328.502 99.58,328.406 L99.58,328.406 L99.58,321.638 C99.58,321.542 99.607,321.479 99.661,321.449 C99.715,321.419 99.772,321.404 99.832,321.404 L99.832,321.404 L99.832,321.08 L97.294,321.08 L97.294,321.404 C97.39,321.404 97.438,321.458 97.438,321.566 C97.438,321.602 97.414,321.665 97.366,321.755 C97.318,321.845 97.252,321.962 97.168,322.106 L97.168,322.106 L94.954,326.138 L92.758,322.088 C92.674,321.944 92.611,321.833 92.569,321.755 C92.527,321.677 92.506,321.614 92.506,321.566 C92.506,321.458 92.566,321.404 92.686,321.404 L92.686,321.404 L92.686,321.08 L90.184,321.08 L90.184,321.404 C90.268,321.404 90.325,321.422 90.355,321.458 C90.385,321.494 90.4,321.596 90.4,321.764 L90.4,321.764 L90.4,328.352 C90.4,328.484 90.379,328.568 90.337,328.604 C90.295,328.64 90.244,328.664 90.184,328.676 L90.184,328.676 L90.184,329 L92.218,329 Z M105.268,329 L105.268,328.676 C105.016,328.676 104.89,328.586 104.89,328.406 L104.89,328.406 L104.89,325.706 L107.95,325.706 C108.922,325.706 109.651,325.541 110.137,325.211 C110.623,324.881 110.866,324.284 110.866,323.42 C110.866,322.556 110.623,321.95 110.137,321.602 C109.651,321.254 108.922,321.08 107.95,321.08 L107.95,321.08 L102.712,321.08 L102.712,321.404 C103.012,321.404 103.162,321.494 103.162,321.674 L103.162,321.674 L103.162,328.406 C103.162,328.586 103.012,328.676 102.712,328.676 L102.712,328.676 L102.712,329 L105.268,329 Z M107.914,324.374 L104.89,324.374 L104.89,322.412 L107.914,322.412 C108.262,322.412 108.553,322.487 108.787,322.637 C109.021,322.787 109.138,323.048 109.138,323.42 C109.138,323.804 109.021,324.059 108.787,324.185 C108.553,324.311 108.262,324.374 107.914,324.374 L107.914,324.374 Z M117.202,329 L117.202,328.676 C116.986,328.676 116.878,328.586 116.878,328.406 L116.878,328.406 L116.878,322.412 L119.218,322.412 C119.314,322.412 119.404,322.436 119.488,322.484 C119.572,322.532 119.614,322.61 119.614,322.718 L119.614,322.718 L119.938,322.718 L119.938,320.648 L119.614,320.648 C119.614,320.816 119.572,320.93 119.488,320.99 C119.404,321.05 119.314,321.08 119.218,321.08 L119.218,321.08 L112.81,321.08 C112.714,321.08 112.624,321.05 112.54,320.99 C112.456,320.93 112.414,320.816 112.414,320.648 L112.414,320.648 L112.09,320.648 L112.09,322.718 L112.414,322.718 C112.414,322.61 112.456,322.532 112.54,322.484 C112.624,322.436 112.714,322.412 112.81,322.412 L112.81,322.412 L115.15,322.412 L115.15,328.406 C115.15,328.502 115.12,328.571 115.06,328.613 C115,328.655 114.94,328.676 114.88,328.676 L114.88,328.676 L114.88,329 L117.202,329 Z M126.004,329.054 C126.664,329.054 127.285,328.979 127.867,328.829 C128.449,328.679 128.956,328.436 129.388,328.1 C129.82,327.764 130.162,327.341 130.414,326.831 C130.666,326.321 130.792,325.724 130.792,325.04 C130.792,324.356 130.666,323.759 130.414,323.249 C130.162,322.739 129.82,322.316 129.388,321.98 C128.956,321.644 128.449,321.392 127.867,321.224 C127.285,321.056 126.664,320.972 126.004,320.972 C125.344,320.972 124.723,321.056 124.141,321.224 C123.559,321.392 123.052,321.644 122.62,321.98 C122.188,322.316 121.846,322.739 121.594,323.249 C121.342,323.759 121.216,324.356 121.216,325.04 C121.216,325.724 121.342,326.321 121.594,326.831 C121.846,327.341 122.188,327.764 122.62,328.1 C123.052,328.436 123.559,328.679 124.141,328.829 C124.723,328.979 125.344,329.054 126.004,329.054 Z M126.004,327.776 C125.62,327.776 125.245,327.713 124.879,327.587 C124.513,327.461 124.186,327.281 123.898,327.047 C123.61,326.813 123.379,326.528 123.205,326.192 C123.031,325.856 122.944,325.472 122.944,325.04 C122.944,324.608 123.031,324.224 123.205,323.888 C123.379,323.552 123.61,323.267 123.898,323.033 C124.186,322.799 124.513,322.619 124.879,322.493 C125.245,322.367 125.62,322.304 126.004,322.304 C126.388,322.304 126.763,322.367 127.129,322.493 C127.495,322.619 127.822,322.799 128.11,323.033 C128.398,323.267 128.629,323.552 128.803,323.888 C128.977,324.224 129.064,324.608 129.064,325.04 C129.064,325.472 128.977,325.856 128.803,326.192 C128.629,326.528 128.398,326.813 128.11,327.047 C127.822,327.281 127.495,327.461 127.129,327.587 C126.763,327.713 126.388,327.776 126.004,327.776 Z M135.22,329 L135.22,328.676 C135.016,328.676 134.914,328.586 134.914,328.406 L134.914,328.406 L134.914,323.348 L134.932,323.348 L137.83,329 L137.974,329 L141.034,323.348 L141.07,323.348 L141.07,328.406 C141.106,328.586 140.998,328.676 140.746,328.676 L140.746,328.676 L140.746,329 L142.834,329 L142.834,328.676 C142.774,328.676 142.717,328.655 142.663,328.613 C142.609,328.571 142.582,328.502 142.582,328.406 L142.582,328.406 L142.582,321.638 C142.582,321.542 142.609,321.479 142.663,321.449 C142.717,321.419 142.774,321.404 142.834,321.404 L142.834,321.404 L142.834,321.08 L140.296,321.08 L140.296,321.404 C140.392,321.404 140.44,321.458 140.44,321.566 C140.44,321.602 140.416,321.665 140.368,321.755 C140.32,321.845 140.254,321.962 140.17,322.106 L140.17,322.106 L137.956,326.138 L135.76,322.088 C135.676,321.944 135.613,321.833 135.571,321.755 C135.529,321.677 135.508,321.614 135.508,321.566 C135.508,321.458 135.568,321.404 135.688,321.404 L135.688,321.404 L135.688,321.08 L133.186,321.08 L133.186,321.404 C133.27,321.404 133.327,321.422 133.357,321.458 C133.387,321.494 133.402,321.596 133.402,321.764 L133.402,321.764 L133.402,328.352 C133.402,328.484 133.381,328.568 133.339,328.604 C133.297,328.64 133.246,328.664 133.186,328.676 L133.186,328.676 L133.186,329 L135.22,329 Z M153.76,329 L153.76,328.676 C153.508,328.676 153.382,328.586 153.382,328.406 L153.382,328.406 L153.382,325.706 L156.442,325.706 C157.414,325.706 158.143,325.541 158.629,325.211 C159.115,324.881 159.358,324.284 159.358,323.42 C159.358,322.556 159.115,321.95 158.629,321.602 C158.143,321.254 157.414,321.08 156.442,321.08 L156.442,321.08 L151.204,321.08 L151.204,321.404 C151.504,321.404 151.654,321.494 151.654,321.674 L151.654,321.674 L151.654,328.406 C151.654,328.586 151.504,328.676 151.204,328.676 L151.204,328.676 L151.204,329 L153.76,329 Z M156.406,324.374 L153.382,324.374 L153.382,322.412 L156.406,322.412 C156.754,322.412 157.045,322.487 157.279,322.637 C157.513,322.787 157.63,323.048 157.63,323.42 C157.63,323.804 157.513,324.059 157.279,324.185 C157.045,324.311 156.754,324.374 156.406,324.374 L156.406,324.374 Z M164.362,329 L164.362,328.676 C164.026,328.676 163.858,328.586 163.858,328.406 L163.858,328.406 L163.858,321.674 C163.858,321.494 164.026,321.404 164.362,321.404 L164.362,321.404 L164.362,321.08 L161.626,321.08 L161.626,321.404 C161.818,321.404 161.95,321.425 162.022,321.467 C162.094,321.509 162.13,321.578 162.13,321.674 L162.13,321.674 L162.13,328.406 C162.13,328.502 162.094,328.571 162.022,328.613 C161.95,328.655 161.818,328.676 161.626,328.676 L161.626,328.676 L161.626,329 L164.362,329 Z M175.252,329.18 L175.252,327.29 L174.928,327.29 C174.928,327.41 174.88,327.503 174.784,327.569 C174.688,327.635 174.568,327.668 174.424,327.668 L174.424,327.668 L169.564,327.668 L169.564,321.674 C169.564,321.494 169.702,321.404 169.978,321.404 L169.978,321.404 L169.978,321.08 L167.368,321.08 L167.368,321.404 C167.68,321.404 167.836,321.494 167.836,321.674 L167.836,321.674 L167.836,328.406 C167.836,328.586 167.68,328.676 167.368,328.676 L167.368,328.676 L167.368,329 L174.424,329 C174.568,329 174.688,329.006 174.784,329.018 C174.88,329.03 174.928,329.084 174.928,329.18 L174.928,329.18 L175.252,329.18 Z M184.918,329.198 L184.918,327.308 L184.594,327.308 C184.594,327.416 184.546,327.503 184.45,327.569 C184.354,327.635 184.234,327.668 184.09,327.668 L184.09,327.668 L179.482,327.668 L179.482,325.544 L182.11,325.544 C182.35,325.544 182.536,325.559 182.668,325.589 C182.8,325.619 182.848,325.7 182.812,325.832 L182.812,325.832 L183.172,325.832 L183.172,323.924 L182.848,323.924 C182.848,324.056 182.8,324.137 182.704,324.167 C182.608,324.197 182.458,324.212 182.254,324.212 L182.254,324.212 L179.482,324.212 L179.482,322.412 L183.874,322.412 C184.246,322.412 184.432,322.526 184.432,322.754 L184.432,322.754 L184.756,322.754 L184.756,320.756 L184.432,320.756 C184.432,320.972 184.246,321.08 183.874,321.08 L183.874,321.08 L177.484,321.08 L177.484,321.404 C177.544,321.404 177.604,321.425 177.664,321.467 C177.724,321.509 177.754,321.578 177.754,321.674 L177.754,321.674 L177.754,328.406 C177.754,328.502 177.724,328.571 177.664,328.613 C177.604,328.655 177.544,328.676 177.484,328.676 L177.484,328.676 L177.484,329 L184.09,329 C184.234,329 184.354,329.006 184.45,329.018 C184.546,329.03 184.594,329.09 184.594,329.198 L184.594,329.198 L184.918,329.198 Z M188.752,329.054 C189.1,329.054 189.4,328.937 189.652,328.703 C189.904,328.469 190.03,328.178 190.03,327.83 C190.03,327.482 189.904,327.182 189.652,326.93 C189.4,326.678 189.1,326.552 188.752,326.552 C188.404,326.552 188.104,326.678 187.852,326.93 C187.6,327.182 187.474,327.482 187.474,327.83 C187.474,328.178 187.6,328.469 187.852,328.703 C188.104,328.937 188.404,329.054 188.752,329.054 Z" id="MaybeIjustsleptwrong.Addthistoyoursymptompile." fill="#000000" fill-rule="nonzero"></path>
    </g>
</svg>