<?xml version="1.0" encoding="UTF-8"?>
<svg width="262px" height="360px" viewBox="0 0 262 360" version="1.1" xmlns="http://www.w3.org/2000/svg" xmlns:xlink="http://www.w3.org/1999/xlink">
    <title>Fever 2</title>
    <g id="Fever-2" stroke="none" stroke-width="1" fill="none" fill-rule="evenodd">
        <g id="Group" transform="translate(9.000000, 9.000000)" fill="#FFFFFF" stroke="#000000" stroke-width="3">
            <g id="Rectangle">
                <rect x="1.5" y="1.5" width="239" height="337" rx="8"></rect>
            </g>
        </g>
        <path d="M219.82,30.312 L219.82,27.12 L219.532,27.12 C219.532,27.44 219.456,27.632 219.304,27.696 C219.152,27.76 218.988,27.792 218.812,27.792 L218.812,27.792 L210.892,27.792 L210.892,27.552 C211.324,27.152 211.824,26.824 212.392,26.568 C212.96,26.312 213.552,26.068 214.168,25.836 C214.784,25.604 215.388,25.368 215.98,25.128 C216.572,24.888 217.104,24.596 217.576,24.252 C218.048,23.908 218.428,23.488 218.716,22.992 C219.004,22.496 219.148,21.872 219.148,21.12 C219.148,20.416 219.008,19.82 218.728,19.332 C218.448,18.844 218.08,18.444 217.624,18.132 C217.168,17.82 216.648,17.592 216.064,17.448 C215.48,17.304 214.884,17.232 214.276,17.232 C213.348,17.232 212.548,17.352 211.876,17.592 C211.204,17.832 210.644,18.096 210.196,18.384 C209.748,18.672 209.396,18.936 209.14,19.176 C208.884,19.416 208.708,19.536 208.612,19.536 C208.532,19.536 208.46,19.52 208.396,19.488 L208.396,19.488 L208.204,19.392 L207.964,19.56 L210.436,22.2 L210.676,22.032 C210.612,21.984 210.56,21.896 210.52,21.768 C210.48,21.64 210.46,21.536 210.46,21.456 C210.46,21.12 210.592,20.82 210.856,20.556 C211.12,20.292 211.436,20.064 211.804,19.872 C212.172,19.68 212.556,19.536 212.956,19.44 C213.356,19.344 213.692,19.296 213.964,19.296 C214.236,19.296 214.516,19.32 214.804,19.368 C215.092,19.416 215.356,19.508 215.596,19.644 C215.836,19.78 216.032,19.956 216.184,20.172 C216.336,20.388 216.412,20.664 216.412,21 C216.412,21.496 216.2,21.928 215.776,22.296 C215.352,22.664 214.82,23.02 214.18,23.364 C213.54,23.708 212.852,24.056 212.116,24.408 C211.38,24.76 210.692,25.168 210.052,25.632 C209.412,26.096 208.88,26.632 208.456,27.24 C208.032,27.848 207.82,28.576 207.82,29.424 L207.82,29.424 L207.82,30.288 L208.108,30.288 C208.108,30.144 208.164,30.06 208.276,30.036 C208.388,30.012 208.532,30 208.708,30 L208.708,30 L218.812,30 C218.988,30 219.152,30.008 219.304,30.024 C219.456,30.04 219.532,30.136 219.532,30.312 L219.532,30.312 L219.82,30.312 Z" id="2" fill="#000000" fill-rule="nonzero"></path>
        <g id="Face" transform="translate(225.000000, 15.000000)">
            <circle id="Oval" stroke="#000000" fill="#FFFFFF" cx="9.5" cy="9.5" r="9"></circle>
            <circle id="Oval" fill="#000000" cx="5" cy="8" r="1"></circle>
            <circle id="Oval-Copy" fill="#000000" cx="12" cy="8" r="1"></circle>
            <line x1="12.0789474" y1="13.9090909" x2="14.5" y2="11.5" id="Line-4" stroke="#000000" stroke-linecap="round"></line>
            <path d="M3,5.89285714 C3.41025641,5.96428571 3.76923077,6 4.07692308,6 C4.38461538,6 5.35897436,5.33333333 7,4" id="Line-2" stroke="#000000"></path>
            <path d="M6,15 C6.96078431,14.3333333 8.07598039,14 9.34558824,14 C10.6151961,14 11.8333333,14.3333333 13,15" id="Line" stroke="#000000" stroke-linecap="round" stroke-linejoin="round"></path>
            <path d="M11.3197366,4.68245322 C11.585843,4.80663622 11.7912611,4.92388646 11.9359908,5.03420394 C12.548667,5.50120471 13.1333088,5.70898724 13.3155349,5.80010028 C13.5440857,5.91437569 13.8101922,6.00751295 14.1138542,6.07951204" id="Line-3" stroke="#000000" stroke-linecap="square" transform="translate(12.716795, 5.380983) rotate(-3.000000) translate(-12.716795, -5.380983) "></path>
            <path d="M2.999,9.347 L3.01687864,9.39698204 C3.09438102,9.62639002 3.1880913,9.89570266 3.30282211,10.2112791 C3.48139895,10.7024692 3.54804655,11.0169045 3.47980817,11.2204078 C3.41244402,11.421304 3.17143148,11.4011566 3.01518318,11.4416373 L3.01518318,11.4416373 L2.86575433,11.4813457 C2.78836954,11.5029149 2.70310591,11.5126925 2.63007237,11.4810832 C2.58941161,11.463485 2.56030088,11.4264037 2.54036126,11.376794 C2.4446463,11.1386559 2.49784548,10.759559 2.69717789,10.2112791 C2.8119087,9.89570266 2.90561898,9.62639002 2.98312136,9.39698204 L2.999,9.347 Z" id="Oval" stroke="#000000"></path>
            <path d="M16,6.347 L16.0168786,6.39698204 C16.094381,6.62639002 16.1880913,6.89570266 16.3028221,7.21127907 C16.481399,7.70246915 16.5480465,8.01690453 16.4798082,8.22040783 C16.412444,8.42130397 16.1714315,8.40115659 16.0151832,8.44163726 L16.0151832,8.44163726 L15.8657543,8.48134574 C15.7883695,8.50291486 15.7031059,8.51269255 15.6300724,8.48108319 C15.5894116,8.46348497 15.5603009,8.42640366 15.5403613,8.37679403 C15.4446463,8.13865595 15.4978455,7.75955902 15.6971779,7.21127907 C15.8119087,6.89570266 15.905619,6.62639002 15.9831214,6.39698204 L16,6.347 Z" id="Oval-Copy-2" stroke="#000000"></path>
        </g>
        <rect id="Rectangle" stroke="#000000" stroke-width="3" x="17.5" y="237.5" width="225" height="104" rx="8"></rect>
        <path d="M87.476,57 L87.476,56.352 C87.164,56.352 86.906,56.298 86.702,56.19 C86.498,56.082 86.396,55.92 86.396,55.704 L86.396,55.704 L86.396,48.72 L93.452,48.72 C93.932,48.72 94.304,48.798 94.568,48.954 C94.832,49.11 94.964,49.464 94.964,50.016 L94.964,50.016 L95.612,50.016 L95.612,44.832 L94.964,44.832 C94.964,45.168 94.832,45.384 94.568,45.48 C94.304,45.576 93.932,45.624 93.452,45.624 L93.452,45.624 L86.396,45.624 L86.396,41.16 L98.06,41.16 C98.564,41.16 98.918,41.226 99.122,41.358 C99.326,41.49 99.428,41.688 99.428,41.952 L99.428,41.952 L100.076,41.952 L100.076,37.2 L99.428,37.2 C99.428,37.464 99.326,37.674 99.122,37.83 C98.918,37.986 98.564,38.064 98.06,38.064 L98.06,38.064 L81.356,38.064 L81.356,38.712 C81.98,38.712 82.292,38.928 82.292,39.36 L82.292,39.36 L82.292,55.704 C82.292,56.136 81.98,56.352 81.356,56.352 L81.356,56.352 L81.356,57 L87.476,57 Z M118.796,57.396 L118.796,53.616 L118.148,53.616 C118.148,53.832 118.052,54.006 117.86,54.138 C117.668,54.27 117.428,54.336 117.14,54.336 L117.14,54.336 L107.924,54.336 L107.924,50.088 L113.18,50.088 C113.66,50.088 114.032,50.118 114.296,50.178 C114.56,50.238 114.656,50.4 114.584,50.664 L114.584,50.664 L115.304,50.664 L115.304,46.848 L114.656,46.848 C114.656,47.112 114.56,47.274 114.368,47.334 C114.176,47.394 113.876,47.424 113.468,47.424 L113.468,47.424 L107.924,47.424 L107.924,43.824 L116.708,43.824 C117.452,43.824 117.824,44.052 117.824,44.508 L117.824,44.508 L118.472,44.508 L118.472,40.512 L117.824,40.512 C117.824,40.944 117.452,41.16 116.708,41.16 L116.708,41.16 L103.928,41.16 L103.928,41.808 C104.048,41.808 104.168,41.85 104.288,41.934 C104.408,42.018 104.468,42.156 104.468,42.348 L104.468,42.348 L104.468,55.812 C104.468,56.004 104.408,56.142 104.288,56.226 C104.168,56.31 104.048,56.352 103.928,56.352 L103.928,56.352 L103.928,57 L117.14,57 C117.428,57 117.668,57.012 117.86,57.036 C118.052,57.06 118.148,57.18 118.148,57.396 L118.148,57.396 L118.796,57.396 Z M133.844,57 L133.844,56.352 C133.412,56.28 133.196,56.172 133.196,56.028 C133.196,55.908 133.262,55.74 133.394,55.524 C133.526,55.308 133.724,54.888 133.988,54.264 L133.988,54.264 L139.244,42.636 C139.508,42.084 139.808,41.808 140.144,41.808 L140.144,41.808 L140.144,41.16 L135.428,41.16 L135.428,41.808 C135.764,41.808 135.944,41.952 135.968,42.24 C135.992,42.408 135.932,42.636 135.788,42.924 C135.644,43.212 135.44,43.644 135.176,44.22 L135.176,44.22 L131.252,52.932 L127.112,43.968 C126.944,43.608 126.794,43.278 126.662,42.978 C126.53,42.678 126.464,42.444 126.464,42.276 C126.464,41.964 126.608,41.808 126.896,41.808 L126.896,41.808 L126.896,41.16 L121.82,41.16 L121.82,41.808 C121.964,41.808 122.114,41.868 122.27,41.988 C122.426,42.108 122.552,42.276 122.648,42.492 L122.648,42.492 L128.12,54.264 C128.336,54.72 128.522,55.08 128.678,55.344 L128.7495,55.47 C128.857833,55.67 128.912,55.82 128.912,55.92 C128.912,56.04 128.858,56.13 128.75,56.19 C128.642,56.25 128.528,56.304 128.408,56.352 L128.408,56.352 L128.408,57 L133.844,57 Z M158.828,57.396 L158.828,53.616 L158.18,53.616 C158.18,53.832 158.084,54.006 157.892,54.138 C157.7,54.27 157.46,54.336 157.172,54.336 L157.172,54.336 L147.956,54.336 L147.956,50.088 L153.212,50.088 C153.692,50.088 154.064,50.118 154.328,50.178 C154.592,50.238 154.688,50.4 154.616,50.664 L154.616,50.664 L155.336,50.664 L155.336,46.848 L154.688,46.848 C154.688,47.112 154.592,47.274 154.4,47.334 C154.208,47.394 153.908,47.424 153.5,47.424 L153.5,47.424 L147.956,47.424 L147.956,43.824 L156.74,43.824 C157.484,43.824 157.856,44.052 157.856,44.508 L157.856,44.508 L158.504,44.508 L158.504,40.512 L157.856,40.512 C157.856,40.944 157.484,41.16 156.74,41.16 L156.74,41.16 L143.96,41.16 L143.96,41.808 C144.08,41.808 144.2,41.85 144.32,41.934 C144.44,42.018 144.5,42.156 144.5,42.348 L144.5,42.348 L144.5,55.812 C144.5,56.004 144.44,56.142 144.32,56.226 C144.2,56.31 144.08,56.352 143.96,56.352 L143.96,56.352 L143.96,57 L157.172,57 C157.46,57 157.7,57.012 157.892,57.036 C158.084,57.06 158.18,57.18 158.18,57.396 L158.18,57.396 L158.828,57.396 Z M168.62,57 L168.62,56.352 C168.476,56.352 168.326,56.31 168.17,56.226 C168.014,56.142 167.936,56.004 167.936,55.812 L167.936,55.812 L167.936,50.664 L172.94,50.664 L175.784,54.912 C176.144,55.416 176.324,55.788 176.324,56.028 C176.324,56.244 176.168,56.352 175.856,56.352 L175.856,56.352 L175.856,57 L181.364,57 L181.364,56.352 C181.1,56.28 180.854,56.178 180.626,56.046 C180.398,55.914 180.188,55.716 179.996,55.452 L179.996,55.452 L176.468,50.304 C176.972,50.184 177.464,50.01 177.944,49.782 C178.424,49.554 178.862,49.254 179.258,48.882 C179.654,48.51 179.972,48.072 180.212,47.568 C180.452,47.064 180.572,46.488 180.572,45.84 C180.572,44.136 179.972,42.93 178.772,42.222 C177.572,41.514 175.904,41.16 173.768,41.16 L173.768,41.16 L163.832,41.16 L163.832,41.808 C164.264,41.808 164.48,41.988 164.48,42.348 L164.48,42.348 L164.48,55.812 C164.48,56.172 164.264,56.352 163.832,56.352 L163.832,56.352 L163.832,57 L168.62,57 Z M173.696,48 L168.008,48 L168.008,43.824 L173.696,43.824 C174.92,43.824 175.814,43.998 176.378,44.346 C176.942,44.694 177.224,45.168 177.224,45.768 C177.224,47.256 176.048,48 173.696,48 L173.696,48 Z" id="Fever" fill="#000000" fill-rule="nonzero"></path>
        <path d="M83.021,256 L83.021,255.676 C82.865,255.628 82.787,255.508 82.787,255.316 C82.787,255.196 82.877,254.902 83.057,254.434 L83.057,254.434 L85.019,249.232 L85.055,249.232 L87.125,254.542 C87.221,254.758 87.29,254.926 87.332,255.046 C87.374,255.166 87.395,255.274 87.395,255.37 C87.395,255.454 87.356,255.52 87.278,255.568 C87.2,255.616 87.125,255.652 87.053,255.676 L87.053,255.676 L87.053,256 L89.897,256 L89.897,255.676 C89.789,255.676 89.705,255.643 89.645,255.577 C89.585,255.511 89.555,255.436 89.555,255.352 C89.555,255.256 89.582,255.136 89.636,254.992 L89.636,254.992 L89.825,254.488 L92.417,247.612 C92.501,247.396 92.576,247.216 92.642,247.072 C92.708,246.928 92.807,246.856 92.939,246.856 L92.939,246.856 L92.939,246.532 L90.275,246.532 L90.275,246.856 C90.359,246.856 90.431,246.889 90.491,246.955 C90.551,247.021 90.581,247.09 90.581,247.162 C90.581,247.306 90.539,247.468 90.455,247.648 L90.455,247.648 L88.511,252.832 L88.475,252.832 L86.549,247.756 C86.429,247.468 86.369,247.264 86.369,247.144 C86.369,247.072 86.387,247.006 86.423,246.946 C86.459,246.886 86.519,246.856 86.603,246.856 L86.603,246.856 L86.603,246.532 L83.525,246.532 L83.525,246.856 C83.681,246.856 83.759,246.97 83.759,247.198 C83.759,247.258 83.75,247.327 83.732,247.405 C83.714,247.483 83.675,247.6 83.615,247.756 L83.615,247.756 L81.707,252.832 L81.671,252.832 L79.745,247.828 C79.673,247.636 79.628,247.498 79.61,247.414 C79.592,247.33 79.583,247.258 79.583,247.198 C79.583,246.97 79.673,246.856 79.853,246.856 L79.853,246.856 L79.853,246.532 L77.063,246.532 L77.063,246.856 C77.183,246.88 77.27,246.937 77.324,247.027 C77.378,247.117 77.429,247.228 77.477,247.36 L77.477,247.36 L80.357,254.794 C80.405,254.914 80.45,255.028 80.492,255.136 C80.534,255.244 80.555,255.346 80.555,255.442 C80.555,255.526 80.519,255.586 80.447,255.622 C80.375,255.658 80.303,255.676 80.231,255.676 L80.231,255.676 L80.231,256 L83.021,256 Z M97.349,256 L97.349,255.676 C97.277,255.676 97.214,255.655 97.16,255.613 C97.106,255.571 97.079,255.502 97.079,255.406 L97.079,255.406 L97.079,252.688 L101.903,252.688 L101.903,255.406 C101.903,255.502 101.876,255.571 101.822,255.613 C101.768,255.655 101.705,255.676 101.633,255.676 L101.633,255.676 L101.633,256 L103.901,256 L103.901,255.676 C103.829,255.676 103.766,255.655 103.712,255.613 C103.658,255.571 103.631,255.502 103.631,255.406 L103.631,255.406 L103.631,248.674 C103.631,248.578 103.658,248.509 103.712,248.467 C103.766,248.425 103.829,248.404 103.901,248.404 L103.901,248.404 L103.901,248.08 L101.633,248.08 L101.633,248.404 C101.705,248.404 101.768,248.425 101.822,248.467 C101.876,248.509 101.903,248.578 101.903,248.674 L101.903,248.674 L101.903,251.212 L97.079,251.212 L97.079,248.674 C97.079,248.578 97.106,248.509 97.16,248.467 C97.214,248.425 97.277,248.404 97.349,248.404 L97.349,248.404 L97.349,248.08 L95.081,248.08 L95.081,248.404 C95.153,248.404 95.216,248.425 95.27,248.467 C95.324,248.509 95.351,248.578 95.351,248.674 L95.351,248.674 L95.351,255.406 C95.351,255.502 95.324,255.571 95.27,255.613 C95.216,255.655 95.153,255.676 95.081,255.676 L95.081,255.676 L95.081,256 L97.349,256 Z M111.713,256 L111.713,255.676 C111.485,255.676 111.371,255.586 111.371,255.406 L111.371,255.406 L111.371,252.706 L114.125,249.142 C114.257,248.974 114.41,248.809 114.584,248.647 C114.758,248.485 114.917,248.404 115.061,248.404 L115.061,248.404 L115.061,248.08 L112.307,248.08 L112.307,248.404 C112.367,248.404 112.427,248.416 112.487,248.44 C112.547,248.464 112.577,248.524 112.577,248.62 C112.577,248.692 112.55,248.767 112.496,248.845 C112.442,248.923 112.361,249.04 112.253,249.196 L112.253,249.196 L110.651,251.428 L108.833,249.052 C108.773,248.968 108.719,248.896 108.671,248.836 C108.623,248.776 108.599,248.71 108.599,248.638 C108.599,248.566 108.635,248.509 108.707,248.467 C108.779,248.425 108.845,248.404 108.905,248.404 L108.905,248.404 L108.905,248.08 L105.935,248.08 L105.935,248.404 C106.043,248.404 106.157,248.428 106.277,248.476 C106.397,248.524 106.499,248.602 106.583,248.71 L106.583,248.71 L109.643,252.634 L109.643,255.406 C109.643,255.586 109.535,255.676 109.319,255.676 L109.319,255.676 L109.319,256 L111.713,256 Z M127.283,256 C127.991,256 128.591,255.886 129.083,255.658 C129.575,255.43 129.977,255.133 130.289,254.767 C130.601,254.401 130.829,253.981 130.973,253.507 C131.117,253.033 131.189,252.544 131.189,252.04 C131.189,251.536 131.114,251.047 130.964,250.573 C130.814,250.099 130.58,249.679 130.262,249.313 C129.944,248.947 129.533,248.65 129.029,248.422 C128.525,248.194 127.919,248.08 127.211,248.08 L127.211,248.08 L122.207,248.08 L122.207,248.404 C122.483,248.404 122.621,248.494 122.621,248.674 L122.621,248.674 L122.621,255.406 C122.621,255.586 122.483,255.676 122.207,255.676 L122.207,255.676 L122.207,256 L127.283,256 Z M126.689,254.668 L124.349,254.668 L124.349,249.412 L126.689,249.412 C127.061,249.412 127.415,249.433 127.751,249.475 C128.087,249.517 128.381,249.625 128.633,249.799 C128.885,249.973 129.086,250.231 129.236,250.573 C129.386,250.915 129.461,251.386 129.461,251.986 C129.461,252.586 129.386,253.063 129.236,253.417 C129.086,253.771 128.885,254.041 128.633,254.227 C128.381,254.413 128.087,254.533 127.751,254.587 C127.415,254.641 127.061,254.668 126.689,254.668 L126.689,254.668 Z M136.355,256 L136.355,255.676 C136.019,255.676 135.851,255.586 135.851,255.406 L135.851,255.406 L135.851,248.674 C135.851,248.494 136.019,248.404 136.355,248.404 L136.355,248.404 L136.355,248.08 L133.619,248.08 L133.619,248.404 C133.811,248.404 133.943,248.425 134.015,248.467 C134.087,248.509 134.123,248.578 134.123,248.674 L134.123,248.674 L134.123,255.406 C134.123,255.502 134.087,255.571 134.015,255.613 C133.943,255.655 133.811,255.676 133.619,255.676 L133.619,255.676 L133.619,256 L136.355,256 Z M144.275,256 C144.983,256 145.583,255.886 146.075,255.658 C146.567,255.43 146.969,255.133 147.281,254.767 C147.593,254.401 147.821,253.981 147.965,253.507 C148.109,253.033 148.181,252.544 148.181,252.04 C148.181,251.536 148.106,251.047 147.956,250.573 C147.806,250.099 147.572,249.679 147.254,249.313 C146.936,248.947 146.525,248.65 146.021,248.422 C145.517,248.194 144.911,248.08 144.203,248.08 L144.203,248.08 L139.199,248.08 L139.199,248.404 C139.475,248.404 139.613,248.494 139.613,248.674 L139.613,248.674 L139.613,255.406 C139.613,255.586 139.475,255.676 139.199,255.676 L139.199,255.676 L139.199,256 L144.275,256 Z M143.681,254.668 L141.341,254.668 L141.341,249.412 L143.681,249.412 C144.053,249.412 144.407,249.433 144.743,249.475 C145.079,249.517 145.373,249.625 145.625,249.799 C145.877,249.973 146.078,250.231 146.228,250.573 C146.378,250.915 146.453,251.386 146.453,251.986 C146.453,252.586 146.378,253.063 146.228,253.417 C146.078,253.771 145.877,254.041 145.625,254.227 C145.373,254.413 145.079,254.533 144.743,254.587 C144.407,254.641 144.053,254.668 143.681,254.668 L143.681,254.668 Z M160.169,256 L160.169,255.676 C159.953,255.676 159.845,255.586 159.845,255.406 L159.845,255.406 L159.845,249.412 L162.185,249.412 C162.281,249.412 162.371,249.436 162.455,249.484 C162.539,249.532 162.581,249.61 162.581,249.718 L162.581,249.718 L162.905,249.718 L162.905,247.648 L162.581,247.648 C162.581,247.816 162.539,247.93 162.455,247.99 C162.371,248.05 162.281,248.08 162.185,248.08 L162.185,248.08 L155.777,248.08 C155.681,248.08 155.591,248.05 155.507,247.99 C155.423,247.93 155.381,247.816 155.381,247.648 L155.381,247.648 L155.057,247.648 L155.057,249.718 L155.381,249.718 C155.381,249.61 155.423,249.532 155.507,249.484 C155.591,249.436 155.681,249.412 155.777,249.412 L155.777,249.412 L158.117,249.412 L158.117,255.406 C158.117,255.502 158.087,255.571 158.027,255.613 C157.967,255.655 157.907,255.676 157.847,255.676 L157.847,255.676 L157.847,256 L160.169,256 Z M167.333,256 L167.333,255.676 C167.261,255.676 167.198,255.655 167.144,255.613 C167.09,255.571 167.063,255.502 167.063,255.406 L167.063,255.406 L167.063,252.688 L171.887,252.688 L171.887,255.406 C171.887,255.502 171.86,255.571 171.806,255.613 C171.752,255.655 171.689,255.676 171.617,255.676 L171.617,255.676 L171.617,256 L173.885,256 L173.885,255.676 C173.813,255.676 173.75,255.655 173.696,255.613 C173.642,255.571 173.615,255.502 173.615,255.406 L173.615,255.406 L173.615,248.674 C173.615,248.578 173.642,248.509 173.696,248.467 C173.75,248.425 173.813,248.404 173.885,248.404 L173.885,248.404 L173.885,248.08 L171.617,248.08 L171.617,248.404 C171.689,248.404 171.752,248.425 171.806,248.467 C171.86,248.509 171.887,248.578 171.887,248.674 L171.887,248.674 L171.887,251.212 L167.063,251.212 L167.063,248.674 C167.063,248.578 167.09,248.509 167.144,248.467 C167.198,248.425 167.261,248.404 167.333,248.404 L167.333,248.404 L167.333,248.08 L165.065,248.08 L165.065,248.404 C165.137,248.404 165.2,248.425 165.254,248.467 C165.308,248.509 165.335,248.578 165.335,248.674 L165.335,248.674 L165.335,255.406 C165.335,255.502 165.308,255.571 165.254,255.613 C165.2,255.655 165.137,255.676 165.065,255.676 L165.065,255.676 L165.065,256 L167.333,256 Z M184.397,256.198 L184.397,254.308 L184.073,254.308 C184.073,254.416 184.025,254.503 183.929,254.569 C183.833,254.635 183.713,254.668 183.569,254.668 L183.569,254.668 L178.961,254.668 L178.961,252.544 L181.589,252.544 C181.829,252.544 182.015,252.559 182.147,252.589 C182.279,252.619 182.327,252.7 182.291,252.832 L182.291,252.832 L182.651,252.832 L182.651,250.924 L182.327,250.924 C182.327,251.056 182.279,251.137 182.183,251.167 C182.087,251.197 181.937,251.212 181.733,251.212 L181.733,251.212 L178.961,251.212 L178.961,249.412 L183.353,249.412 C183.725,249.412 183.911,249.526 183.911,249.754 L183.911,249.754 L184.235,249.754 L184.235,247.756 L183.911,247.756 C183.911,247.972 183.725,248.08 183.353,248.08 L183.353,248.08 L176.963,248.08 L176.963,248.404 C177.023,248.404 177.083,248.425 177.143,248.467 C177.203,248.509 177.233,248.578 177.233,248.674 L177.233,248.674 L177.233,255.406 C177.233,255.502 177.203,255.571 177.143,255.613 C177.083,255.655 177.023,255.676 176.963,255.676 L176.963,255.676 L176.963,256 L183.569,256 C183.713,256 183.833,256.006 183.929,256.018 C184.025,256.03 184.073,256.09 184.073,256.198 L184.073,256.198 L184.397,256.198 Z M40.676,274 L40.676,273.676 C40.46,273.676 40.352,273.586 40.352,273.406 L40.352,273.406 L40.352,267.412 L42.692,267.412 C42.788,267.412 42.878,267.436 42.962,267.484 C43.046,267.532 43.088,267.61 43.088,267.718 L43.088,267.718 L43.412,267.718 L43.412,265.648 L43.088,265.648 C43.088,265.816 43.046,265.93 42.962,265.99 C42.878,266.05 42.788,266.08 42.692,266.08 L42.692,266.08 L36.284,266.08 C36.188,266.08 36.098,266.05 36.014,265.99 C35.93,265.93 35.888,265.816 35.888,265.648 L35.888,265.648 L35.564,265.648 L35.564,267.718 L35.888,267.718 C35.888,267.61 35.93,267.532 36.014,267.484 C36.098,267.436 36.188,267.412 36.284,267.412 L36.284,267.412 L38.624,267.412 L38.624,273.406 C38.624,273.502 38.594,273.571 38.534,273.613 C38.474,273.655 38.414,273.676 38.354,273.676 L38.354,273.676 L38.354,274 L40.676,274 Z M47.84,274 L47.84,273.676 C47.768,273.676 47.705,273.655 47.651,273.613 C47.597,273.571 47.57,273.502 47.57,273.406 L47.57,273.406 L47.57,270.688 L52.394,270.688 L52.394,273.406 C52.394,273.502 52.367,273.571 52.313,273.613 C52.259,273.655 52.196,273.676 52.124,273.676 L52.124,273.676 L52.124,274 L54.392,274 L54.392,273.676 C54.32,273.676 54.257,273.655 54.203,273.613 C54.149,273.571 54.122,273.502 54.122,273.406 L54.122,273.406 L54.122,266.674 C54.122,266.578 54.149,266.509 54.203,266.467 C54.257,266.425 54.32,266.404 54.392,266.404 L54.392,266.404 L54.392,266.08 L52.124,266.08 L52.124,266.404 C52.196,266.404 52.259,266.425 52.313,266.467 C52.367,266.509 52.394,266.578 52.394,266.674 L52.394,266.674 L52.394,269.212 L47.57,269.212 L47.57,266.674 C47.57,266.578 47.597,266.509 47.651,266.467 C47.705,266.425 47.768,266.404 47.84,266.404 L47.84,266.404 L47.84,266.08 L45.572,266.08 L45.572,266.404 C45.644,266.404 45.707,266.425 45.761,266.467 C45.815,266.509 45.842,266.578 45.842,266.674 L45.842,266.674 L45.842,273.406 C45.842,273.502 45.815,273.571 45.761,273.613 C45.707,273.655 45.644,273.676 45.572,273.676 L45.572,273.676 L45.572,274 L47.84,274 Z M64.904,274.198 L64.904,272.308 L64.58,272.308 C64.58,272.416 64.532,272.503 64.436,272.569 C64.34,272.635 64.22,272.668 64.076,272.668 L64.076,272.668 L59.468,272.668 L59.468,270.544 L62.096,270.544 C62.336,270.544 62.522,270.559 62.654,270.589 C62.786,270.619 62.834,270.7 62.798,270.832 L62.798,270.832 L63.158,270.832 L63.158,268.924 L62.834,268.924 C62.834,269.056 62.786,269.137 62.69,269.167 C62.594,269.197 62.444,269.212 62.24,269.212 L62.24,269.212 L59.468,269.212 L59.468,267.412 L63.86,267.412 C64.232,267.412 64.418,267.526 64.418,267.754 L64.418,267.754 L64.742,267.754 L64.742,265.756 L64.418,265.756 C64.418,265.972 64.232,266.08 63.86,266.08 L63.86,266.08 L57.47,266.08 L57.47,266.404 C57.53,266.404 57.59,266.425 57.65,266.467 C57.71,266.509 57.74,266.578 57.74,266.674 L57.74,266.674 L57.74,273.406 C57.74,273.502 57.71,273.571 57.65,273.613 C57.59,273.655 57.53,273.676 57.47,273.676 L57.47,273.676 L57.47,274 L64.076,274 C64.22,274 64.34,274.006 64.436,274.018 C64.532,274.03 64.58,274.09 64.58,274.198 L64.58,274.198 L64.904,274.198 Z M69.8,274 L69.8,273.676 C69.728,273.676 69.653,273.655 69.575,273.613 C69.497,273.571 69.458,273.502 69.458,273.406 L69.458,273.406 L69.458,270.832 L71.96,270.832 L73.382,272.956 C73.562,273.208 73.652,273.394 73.652,273.514 C73.652,273.622 73.574,273.676 73.418,273.676 L73.418,273.676 L73.418,274 L76.172,274 L76.172,273.676 C76.04,273.64 75.917,273.589 75.803,273.523 C75.689,273.457 75.584,273.358 75.488,273.226 L75.488,273.226 L73.724,270.652 C73.976,270.592 74.222,270.505 74.462,270.391 C74.702,270.277 74.921,270.127 75.119,269.941 C75.317,269.755 75.476,269.536 75.596,269.284 C75.716,269.032 75.776,268.744 75.776,268.42 C75.776,267.568 75.476,266.965 74.876,266.611 C74.276,266.257 73.442,266.08 72.374,266.08 L72.374,266.08 L67.406,266.08 L67.406,266.404 C67.622,266.404 67.73,266.494 67.73,266.674 L67.73,266.674 L67.73,273.406 C67.73,273.586 67.622,273.676 67.406,273.676 L67.406,273.676 L67.406,274 L69.8,274 Z M72.338,269.5 L69.494,269.5 L69.494,267.412 L72.338,267.412 C72.95,267.412 73.397,267.499 73.679,267.673 C73.961,267.847 74.102,268.084 74.102,268.384 C74.102,269.128 73.514,269.5 72.338,269.5 L72.338,269.5 Z M80.708,274 L80.708,273.676 C80.504,273.676 80.402,273.586 80.402,273.406 L80.402,273.406 L80.402,268.348 L80.42,268.348 L83.318,274 L83.462,274 L86.522,268.348 L86.558,268.348 L86.558,273.406 C86.594,273.586 86.486,273.676 86.234,273.676 L86.234,273.676 L86.234,274 L88.322,274 L88.322,273.676 C88.262,273.676 88.205,273.655 88.151,273.613 C88.097,273.571 88.07,273.502 88.07,273.406 L88.07,273.406 L88.07,266.638 C88.07,266.542 88.097,266.479 88.151,266.449 C88.205,266.419 88.262,266.404 88.322,266.404 L88.322,266.404 L88.322,266.08 L85.784,266.08 L85.784,266.404 C85.88,266.404 85.928,266.458 85.928,266.566 C85.928,266.602 85.904,266.665 85.856,266.755 C85.808,266.845 85.742,266.962 85.658,267.106 L85.658,267.106 L83.444,271.138 L81.248,267.088 C81.164,266.944 81.101,266.833 81.059,266.755 C81.017,266.677 80.996,266.614 80.996,266.566 C80.996,266.458 81.056,266.404 81.176,266.404 L81.176,266.404 L81.176,266.08 L78.674,266.08 L78.674,266.404 C78.758,266.404 78.815,266.422 78.845,266.458 C78.875,266.494 78.89,266.596 78.89,266.764 L78.89,266.764 L78.89,273.352 C78.89,273.484 78.869,273.568 78.827,273.604 C78.785,273.64 78.734,273.664 78.674,273.676 L78.674,273.676 L78.674,274 L80.708,274 Z M95.486,274.054 C96.146,274.054 96.767,273.979 97.349,273.829 C97.931,273.679 98.438,273.436 98.87,273.1 C99.302,272.764 99.644,272.341 99.896,271.831 C100.148,271.321 100.274,270.724 100.274,270.04 C100.274,269.356 100.148,268.759 99.896,268.249 C99.644,267.739 99.302,267.316 98.87,266.98 C98.438,266.644 97.931,266.392 97.349,266.224 C96.767,266.056 96.146,265.972 95.486,265.972 C94.826,265.972 94.205,266.056 93.623,266.224 C93.041,266.392 92.534,266.644 92.102,266.98 C91.67,267.316 91.328,267.739 91.076,268.249 C90.824,268.759 90.698,269.356 90.698,270.04 C90.698,270.724 90.824,271.321 91.076,271.831 C91.328,272.341 91.67,272.764 92.102,273.1 C92.534,273.436 93.041,273.679 93.623,273.829 C94.205,273.979 94.826,274.054 95.486,274.054 Z M95.486,272.776 C95.102,272.776 94.727,272.713 94.361,272.587 C93.995,272.461 93.668,272.281 93.38,272.047 C93.092,271.813 92.861,271.528 92.687,271.192 C92.513,270.856 92.426,270.472 92.426,270.04 C92.426,269.608 92.513,269.224 92.687,268.888 C92.861,268.552 93.092,268.267 93.38,268.033 C93.668,267.799 93.995,267.619 94.361,267.493 C94.727,267.367 95.102,267.304 95.486,267.304 C95.87,267.304 96.245,267.367 96.611,267.493 C96.977,267.619 97.304,267.799 97.592,268.033 C97.88,268.267 98.111,268.552 98.285,268.888 C98.459,269.224 98.546,269.608 98.546,270.04 C98.546,270.472 98.459,270.856 98.285,271.192 C98.111,271.528 97.88,271.813 97.592,272.047 C97.304,272.281 96.977,272.461 96.611,272.587 C96.245,272.713 95.87,272.776 95.486,272.776 Z M104.702,274 L104.702,273.676 C104.498,273.676 104.396,273.586 104.396,273.406 L104.396,273.406 L104.396,268.348 L104.414,268.348 L107.312,274 L107.456,274 L110.516,268.348 L110.552,268.348 L110.552,273.406 C110.588,273.586 110.48,273.676 110.228,273.676 L110.228,273.676 L110.228,274 L112.316,274 L112.316,273.676 C112.256,273.676 112.199,273.655 112.145,273.613 C112.091,273.571 112.064,273.502 112.064,273.406 L112.064,273.406 L112.064,266.638 C112.064,266.542 112.091,266.479 112.145,266.449 C112.199,266.419 112.256,266.404 112.316,266.404 L112.316,266.404 L112.316,266.08 L109.778,266.08 L109.778,266.404 C109.874,266.404 109.922,266.458 109.922,266.566 C109.922,266.602 109.898,266.665 109.85,266.755 C109.802,266.845 109.736,266.962 109.652,267.106 L109.652,267.106 L107.438,271.138 L105.242,267.088 C105.158,266.944 105.095,266.833 105.053,266.755 C105.011,266.677 104.99,266.614 104.99,266.566 C104.99,266.458 105.05,266.404 105.17,266.404 L105.17,266.404 L105.17,266.08 L102.668,266.08 L102.668,266.404 C102.752,266.404 102.809,266.422 102.839,266.458 C102.869,266.494 102.884,266.596 102.884,266.764 L102.884,266.764 L102.884,273.352 C102.884,273.484 102.863,273.568 102.821,273.604 C102.779,273.64 102.728,273.664 102.668,273.676 L102.668,273.676 L102.668,274 L104.702,274 Z M122.9,274.198 L122.9,272.308 L122.576,272.308 C122.576,272.416 122.528,272.503 122.432,272.569 C122.336,272.635 122.216,272.668 122.072,272.668 L122.072,272.668 L117.464,272.668 L117.464,270.544 L120.092,270.544 C120.332,270.544 120.518,270.559 120.65,270.589 C120.782,270.619 120.83,270.7 120.794,270.832 L120.794,270.832 L121.154,270.832 L121.154,268.924 L120.83,268.924 C120.83,269.056 120.782,269.137 120.686,269.167 C120.59,269.197 120.44,269.212 120.236,269.212 L120.236,269.212 L117.464,269.212 L117.464,267.412 L121.856,267.412 C122.228,267.412 122.414,267.526 122.414,267.754 L122.414,267.754 L122.738,267.754 L122.738,265.756 L122.414,265.756 C122.414,265.972 122.228,266.08 121.856,266.08 L121.856,266.08 L115.466,266.08 L115.466,266.404 C115.526,266.404 115.586,266.425 115.646,266.467 C115.706,266.509 115.736,266.578 115.736,266.674 L115.736,266.674 L115.736,273.406 C115.736,273.502 115.706,273.571 115.646,273.613 C115.586,273.655 115.526,273.676 115.466,273.676 L115.466,273.676 L115.466,274 L122.072,274 C122.216,274 122.336,274.006 122.432,274.018 C122.528,274.03 122.576,274.09 122.576,274.198 L122.576,274.198 L122.9,274.198 Z M129.686,274 L129.686,273.676 C129.47,273.676 129.362,273.586 129.362,273.406 L129.362,273.406 L129.362,267.412 L131.702,267.412 C131.798,267.412 131.888,267.436 131.972,267.484 C132.056,267.532 132.098,267.61 132.098,267.718 L132.098,267.718 L132.422,267.718 L132.422,265.648 L132.098,265.648 C132.098,265.816 132.056,265.93 131.972,265.99 C131.888,266.05 131.798,266.08 131.702,266.08 L131.702,266.08 L125.294,266.08 C125.198,266.08 125.108,266.05 125.024,265.99 C124.94,265.93 124.898,265.816 124.898,265.648 L124.898,265.648 L124.574,265.648 L124.574,267.718 L124.898,267.718 C124.898,267.61 124.94,267.532 125.024,267.484 C125.108,267.436 125.198,267.412 125.294,267.412 L125.294,267.412 L127.634,267.412 L127.634,273.406 C127.634,273.502 127.604,273.571 127.544,273.613 C127.484,273.655 127.424,273.676 127.364,273.676 L127.364,273.676 L127.364,274 L129.686,274 Z M141.908,274.198 L141.908,272.308 L141.584,272.308 C141.584,272.416 141.536,272.503 141.44,272.569 C141.344,272.635 141.224,272.668 141.08,272.668 L141.08,272.668 L136.472,272.668 L136.472,270.544 L139.1,270.544 C139.34,270.544 139.526,270.559 139.658,270.589 C139.79,270.619 139.838,270.7 139.802,270.832 L139.802,270.832 L140.162,270.832 L140.162,268.924 L139.838,268.924 C139.838,269.056 139.79,269.137 139.694,269.167 C139.598,269.197 139.448,269.212 139.244,269.212 L139.244,269.212 L136.472,269.212 L136.472,267.412 L140.864,267.412 C141.236,267.412 141.422,267.526 141.422,267.754 L141.422,267.754 L141.746,267.754 L141.746,265.756 L141.422,265.756 C141.422,265.972 141.236,266.08 140.864,266.08 L140.864,266.08 L134.474,266.08 L134.474,266.404 C134.534,266.404 134.594,266.425 134.654,266.467 C134.714,266.509 134.744,266.578 134.744,266.674 L134.744,266.674 L134.744,273.406 C134.744,273.502 134.714,273.571 134.654,273.613 C134.594,273.655 134.534,273.676 134.474,273.676 L134.474,273.676 L134.474,274 L141.08,274 C141.224,274 141.344,274.006 141.44,274.018 C141.536,274.03 141.584,274.09 141.584,274.198 L141.584,274.198 L141.908,274.198 Z M146.804,274 L146.804,273.676 C146.732,273.676 146.657,273.655 146.579,273.613 C146.501,273.571 146.462,273.502 146.462,273.406 L146.462,273.406 L146.462,270.832 L148.964,270.832 L150.386,272.956 C150.566,273.208 150.656,273.394 150.656,273.514 C150.656,273.622 150.578,273.676 150.422,273.676 L150.422,273.676 L150.422,274 L153.176,274 L153.176,273.676 C153.044,273.64 152.921,273.589 152.807,273.523 C152.693,273.457 152.588,273.358 152.492,273.226 L152.492,273.226 L150.728,270.652 C150.98,270.592 151.226,270.505 151.466,270.391 C151.706,270.277 151.925,270.127 152.123,269.941 C152.321,269.755 152.48,269.536 152.6,269.284 C152.72,269.032 152.78,268.744 152.78,268.42 C152.78,267.568 152.48,266.965 151.88,266.611 C151.28,266.257 150.446,266.08 149.378,266.08 L149.378,266.08 L144.41,266.08 L144.41,266.404 C144.626,266.404 144.734,266.494 144.734,266.674 L144.734,266.674 L144.734,273.406 C144.734,273.586 144.626,273.676 144.41,273.676 L144.41,273.676 L144.41,274 L146.804,274 Z M149.342,269.5 L146.498,269.5 L146.498,267.412 L149.342,267.412 C149.954,267.412 150.401,267.499 150.683,267.673 C150.965,267.847 151.106,268.084 151.106,268.384 C151.106,269.128 150.518,269.5 149.342,269.5 L149.342,269.5 Z M163.346,274 L163.346,273.676 C163.274,273.676 163.211,273.655 163.157,273.613 C163.103,273.571 163.076,273.502 163.076,273.406 L163.076,273.406 L163.076,270.688 L167.9,270.688 L167.9,273.406 C167.9,273.502 167.873,273.571 167.819,273.613 C167.765,273.655 167.702,273.676 167.63,273.676 L167.63,273.676 L167.63,274 L169.898,274 L169.898,273.676 C169.826,273.676 169.763,273.655 169.709,273.613 C169.655,273.571 169.628,273.502 169.628,273.406 L169.628,273.406 L169.628,266.674 C169.628,266.578 169.655,266.509 169.709,266.467 C169.763,266.425 169.826,266.404 169.898,266.404 L169.898,266.404 L169.898,266.08 L167.63,266.08 L167.63,266.404 C167.702,266.404 167.765,266.425 167.819,266.467 C167.873,266.509 167.9,266.578 167.9,266.674 L167.9,266.674 L167.9,269.212 L163.076,269.212 L163.076,266.674 C163.076,266.578 163.103,266.509 163.157,266.467 C163.211,266.425 163.274,266.404 163.346,266.404 L163.346,266.404 L163.346,266.08 L161.078,266.08 L161.078,266.404 C161.15,266.404 161.213,266.425 161.267,266.467 C161.321,266.509 161.348,266.578 161.348,266.674 L161.348,266.674 L161.348,273.406 C161.348,273.502 161.321,273.571 161.267,273.613 C161.213,273.655 161.15,273.676 161.078,273.676 L161.078,273.676 L161.078,274 L163.346,274 Z M174.182,274 L174.182,273.676 C174.074,273.676 173.99,273.664 173.93,273.64 C173.87,273.616 173.84,273.556 173.84,273.46 C173.84,273.4 173.855,273.331 173.885,273.253 C173.915,273.175 173.954,273.088 174.002,272.992 L174.002,272.992 L174.506,272.02 L178.358,272.02 L178.844,273.046 C178.88,273.142 178.91,273.22 178.934,273.28 C178.958,273.34 178.97,273.406 178.97,273.478 C178.97,273.574 178.937,273.64 178.871,273.676 C178.805,273.712 178.742,273.73 178.682,273.73 L178.682,273.73 L178.682,274 L181.238,274 L181.238,273.676 C181.154,273.652 181.076,273.616 181.004,273.568 C180.932,273.52 180.866,273.442 180.806,273.334 L180.806,273.334 L177.89,267.214 C177.83,267.082 177.773,266.965 177.719,266.863 C177.665,266.761 177.638,266.674 177.638,266.602 C177.638,266.518 177.659,266.47 177.701,266.458 C177.743,266.446 177.782,266.428 177.818,266.404 L177.818,266.404 L177.818,266.08 L175.1,266.08 L175.1,266.404 C175.136,266.428 175.169,266.449 175.199,266.467 C175.229,266.485 175.244,266.53 175.244,266.602 C175.244,266.698 175.223,266.797 175.181,266.899 C175.139,267.001 175.082,267.136 175.01,267.304 L175.01,267.304 L172.328,273.154 C172.28,273.25 172.211,273.355 172.121,273.469 C172.031,273.583 171.914,273.652 171.77,273.676 L171.77,273.676 L171.77,274 L174.182,274 Z M177.782,270.688 L175.046,270.688 L176.324,267.664 L177.782,270.688 Z M187.934,274 L187.934,273.676 C187.718,273.64 187.61,273.586 187.61,273.514 C187.61,273.454 187.643,273.37 187.709,273.262 C187.775,273.154 187.874,272.944 188.006,272.632 L188.006,272.632 L190.634,266.818 C190.766,266.542 190.916,266.404 191.084,266.404 L191.084,266.404 L191.084,266.08 L188.726,266.08 L188.726,266.404 C188.894,266.404 188.984,266.476 188.996,266.62 C189.008,266.704 188.978,266.818 188.906,266.962 C188.834,267.106 188.732,267.322 188.6,267.61 L188.6,267.61 L186.638,271.966 L184.568,267.484 C184.484,267.304 184.409,267.139 184.343,266.989 C184.277,266.839 184.244,266.722 184.244,266.638 C184.244,266.482 184.316,266.404 184.46,266.404 L184.46,266.404 L184.46,266.08 L181.922,266.08 L181.922,266.404 C181.994,266.404 182.069,266.434 182.147,266.494 C182.225,266.554 182.288,266.638 182.336,266.746 L182.336,266.746 L185.072,272.632 C185.18,272.86 185.273,273.04 185.351,273.172 C185.429,273.304 185.468,273.4 185.468,273.46 C185.468,273.52 185.441,273.565 185.387,273.595 C185.333,273.625 185.276,273.652 185.216,273.676 L185.216,273.676 L185.216,274 L187.934,274 Z M200.426,274.198 L200.426,272.308 L200.102,272.308 C200.102,272.416 200.054,272.503 199.958,272.569 C199.862,272.635 199.742,272.668 199.598,272.668 L199.598,272.668 L194.99,272.668 L194.99,270.544 L197.618,270.544 C197.858,270.544 198.044,270.559 198.176,270.589 C198.308,270.619 198.356,270.7 198.32,270.832 L198.32,270.832 L198.68,270.832 L198.68,268.924 L198.356,268.924 C198.356,269.056 198.308,269.137 198.212,269.167 C198.116,269.197 197.966,269.212 197.762,269.212 L197.762,269.212 L194.99,269.212 L194.99,267.412 L199.382,267.412 C199.754,267.412 199.94,267.526 199.94,267.754 L199.94,267.754 L200.264,267.754 L200.264,265.756 L199.94,265.756 C199.94,265.972 199.754,266.08 199.382,266.08 L199.382,266.08 L192.992,266.08 L192.992,266.404 C193.052,266.404 193.112,266.425 193.172,266.467 C193.232,266.509 193.262,266.578 193.262,266.674 L193.262,266.674 L193.262,273.406 C193.262,273.502 193.232,273.571 193.172,273.613 C193.112,273.655 193.052,273.676 192.992,273.676 L192.992,273.676 L192.992,274 L199.598,274 C199.742,274 199.862,274.006 199.958,274.018 C200.054,274.03 200.102,274.09 200.102,274.198 L200.102,274.198 L200.426,274.198 Z M212.702,274 L212.702,273.676 C212.486,273.676 212.378,273.586 212.378,273.406 L212.378,273.406 L212.378,267.412 L214.718,267.412 C214.814,267.412 214.904,267.436 214.988,267.484 C215.072,267.532 215.114,267.61 215.114,267.718 L215.114,267.718 L215.438,267.718 L215.438,265.648 L215.114,265.648 C215.114,265.816 215.072,265.93 214.988,265.99 C214.904,266.05 214.814,266.08 214.718,266.08 L214.718,266.08 L208.31,266.08 C208.214,266.08 208.124,266.05 208.04,265.99 C207.956,265.93 207.914,265.816 207.914,265.648 L207.914,265.648 L207.59,265.648 L207.59,267.718 L207.914,267.718 C207.914,267.61 207.956,267.532 208.04,267.484 C208.124,267.436 208.214,267.412 208.31,267.412 L208.31,267.412 L210.65,267.412 L210.65,273.406 C210.65,273.502 210.62,273.571 210.56,273.613 C210.5,273.655 210.44,273.676 210.38,273.676 L210.38,273.676 L210.38,274 L212.702,274 Z M221.504,274.054 C222.164,274.054 222.785,273.979 223.367,273.829 C223.949,273.679 224.456,273.436 224.888,273.1 C225.32,272.764 225.662,272.341 225.914,271.831 C226.166,271.321 226.292,270.724 226.292,270.04 C226.292,269.356 226.166,268.759 225.914,268.249 C225.662,267.739 225.32,267.316 224.888,266.98 C224.456,266.644 223.949,266.392 223.367,266.224 C222.785,266.056 222.164,265.972 221.504,265.972 C220.844,265.972 220.223,266.056 219.641,266.224 C219.059,266.392 218.552,266.644 218.12,266.98 C217.688,267.316 217.346,267.739 217.094,268.249 C216.842,268.759 216.716,269.356 216.716,270.04 C216.716,270.724 216.842,271.321 217.094,271.831 C217.346,272.341 217.688,272.764 218.12,273.1 C218.552,273.436 219.059,273.679 219.641,273.829 C220.223,273.979 220.844,274.054 221.504,274.054 Z M221.504,272.776 C221.12,272.776 220.745,272.713 220.379,272.587 C220.013,272.461 219.686,272.281 219.398,272.047 C219.11,271.813 218.879,271.528 218.705,271.192 C218.531,270.856 218.444,270.472 218.444,270.04 C218.444,269.608 218.531,269.224 218.705,268.888 C218.879,268.552 219.11,268.267 219.398,268.033 C219.686,267.799 220.013,267.619 220.379,267.493 C220.745,267.367 221.12,267.304 221.504,267.304 C221.888,267.304 222.263,267.367 222.629,267.493 C222.995,267.619 223.322,267.799 223.61,268.033 C223.898,268.267 224.129,268.552 224.303,268.888 C224.477,269.224 224.564,269.608 224.564,270.04 C224.564,270.472 224.477,270.856 224.303,271.192 C224.129,271.528 223.898,271.813 223.61,272.047 C223.322,272.281 222.995,272.461 222.629,272.587 C222.263,272.713 221.888,272.776 221.504,272.776 Z M89.942,292.054 C90.518,292.054 91.04,292.015 91.508,291.937 C91.976,291.859 92.387,291.76 92.741,291.64 C93.095,291.52 93.389,291.397 93.623,291.271 C93.857,291.145 94.028,291.046 94.136,290.974 L94.136,290.974 L94.136,290.758 C94.016,290.71 93.941,290.665 93.911,290.623 C93.881,290.581 93.866,290.506 93.866,290.398 L93.866,290.398 L93.866,288.688 C93.866,288.568 93.884,288.478 93.92,288.418 C93.956,288.358 94.028,288.304 94.136,288.256 L94.136,288.256 L94.136,287.932 L90.608,287.932 C90.476,287.932 90.362,287.914 90.266,287.878 C90.17,287.842 90.11,287.764 90.086,287.644 L90.086,287.644 L89.762,287.644 L89.762,289.498 L90.086,289.498 C90.11,289.354 90.17,289.255 90.266,289.201 C90.362,289.147 90.476,289.12 90.608,289.12 L90.608,289.12 L92.462,289.12 L92.462,290.254 C92.078,290.458 91.655,290.596 91.193,290.668 C90.731,290.74 90.242,290.776 89.726,290.776 C89.378,290.776 89.018,290.728 88.646,290.632 C88.274,290.536 87.935,290.383 87.629,290.173 C87.323,289.963 87.074,289.687 86.882,289.345 C86.69,289.003 86.594,288.58 86.594,288.076 C86.594,287.572 86.684,287.146 86.864,286.798 C87.044,286.45 87.284,286.165 87.584,285.943 C87.884,285.721 88.232,285.559 88.628,285.457 C89.024,285.355 89.444,285.304 89.888,285.304 C90.212,285.304 90.533,285.337 90.851,285.403 C91.169,285.469 91.454,285.556 91.706,285.664 C91.958,285.772 92.162,285.889 92.318,286.015 C92.474,286.141 92.552,286.258 92.552,286.366 C92.552,286.378 92.54,286.444 92.516,286.564 L92.516,286.564 L92.732,286.69 L93.776,284.728 L93.56,284.62 C93.488,284.68 93.428,284.719 93.38,284.737 C93.332,284.755 93.26,284.764 93.164,284.764 C93.08,284.764 92.954,284.722 92.786,284.638 C92.618,284.554 92.396,284.464 92.12,284.368 C91.856,284.272 91.544,284.182 91.184,284.098 C90.824,284.014 90.41,283.972 89.942,283.972 C89.162,283.972 88.457,284.065 87.827,284.251 C87.197,284.437 86.663,284.707 86.225,285.061 C85.787,285.415 85.451,285.841 85.217,286.339 C84.983,286.837 84.866,287.404 84.866,288.04 C84.866,288.676 84.983,289.243 85.217,289.741 C85.451,290.239 85.787,290.662 86.225,291.01 C86.663,291.358 87.197,291.619 87.827,291.793 C88.457,291.967 89.162,292.054 89.942,292.054 Z M100.742,292.054 C101.402,292.054 102.023,291.979 102.605,291.829 C103.187,291.679 103.694,291.436 104.126,291.1 C104.558,290.764 104.9,290.341 105.152,289.831 C105.404,289.321 105.53,288.724 105.53,288.04 C105.53,287.356 105.404,286.759 105.152,286.249 C104.9,285.739 104.558,285.316 104.126,284.98 C103.694,284.644 103.187,284.392 102.605,284.224 C102.023,284.056 101.402,283.972 100.742,283.972 C100.082,283.972 99.461,284.056 98.879,284.224 C98.297,284.392 97.79,284.644 97.358,284.98 C96.926,285.316 96.584,285.739 96.332,286.249 C96.08,286.759 95.954,287.356 95.954,288.04 C95.954,288.724 96.08,289.321 96.332,289.831 C96.584,290.341 96.926,290.764 97.358,291.1 C97.79,291.436 98.297,291.679 98.879,291.829 C99.461,291.979 100.082,292.054 100.742,292.054 Z M100.742,290.776 C100.358,290.776 99.983,290.713 99.617,290.587 C99.251,290.461 98.924,290.281 98.636,290.047 C98.348,289.813 98.117,289.528 97.943,289.192 C97.769,288.856 97.682,288.472 97.682,288.04 C97.682,287.608 97.769,287.224 97.943,286.888 C98.117,286.552 98.348,286.267 98.636,286.033 C98.924,285.799 99.251,285.619 99.617,285.493 C99.983,285.367 100.358,285.304 100.742,285.304 C101.126,285.304 101.501,285.367 101.867,285.493 C102.233,285.619 102.56,285.799 102.848,286.033 C103.136,286.267 103.367,286.552 103.541,286.888 C103.715,287.224 103.802,287.608 103.802,288.04 C103.802,288.472 103.715,288.856 103.541,289.192 C103.367,289.528 103.136,289.813 102.848,290.047 C102.56,290.281 102.233,290.461 101.867,290.587 C101.501,290.713 101.126,290.776 100.742,290.776 Z M117.428,292 L117.428,291.676 C117.212,291.676 117.104,291.586 117.104,291.406 L117.104,291.406 L117.104,285.412 L119.444,285.412 C119.54,285.412 119.63,285.436 119.714,285.484 C119.798,285.532 119.84,285.61 119.84,285.718 L119.84,285.718 L120.164,285.718 L120.164,283.648 L119.84,283.648 C119.84,283.816 119.798,283.93 119.714,283.99 C119.63,284.05 119.54,284.08 119.444,284.08 L119.444,284.08 L113.036,284.08 C112.94,284.08 112.85,284.05 112.766,283.99 C112.682,283.93 112.64,283.816 112.64,283.648 L112.64,283.648 L112.316,283.648 L112.316,285.718 L112.64,285.718 C112.64,285.61 112.682,285.532 112.766,285.484 C112.85,285.436 112.94,285.412 113.036,285.412 L113.036,285.412 L115.376,285.412 L115.376,291.406 C115.376,291.502 115.346,291.571 115.286,291.613 C115.226,291.655 115.166,291.676 115.106,291.676 L115.106,291.676 L115.106,292 L117.428,292 Z M124.592,292 L124.592,291.676 C124.52,291.676 124.457,291.655 124.403,291.613 C124.349,291.571 124.322,291.502 124.322,291.406 L124.322,291.406 L124.322,288.688 L129.146,288.688 L129.146,291.406 C129.146,291.502 129.119,291.571 129.065,291.613 C129.011,291.655 128.948,291.676 128.876,291.676 L128.876,291.676 L128.876,292 L131.144,292 L131.144,291.676 C131.072,291.676 131.009,291.655 130.955,291.613 C130.901,291.571 130.874,291.502 130.874,291.406 L130.874,291.406 L130.874,284.674 C130.874,284.578 130.901,284.509 130.955,284.467 C131.009,284.425 131.072,284.404 131.144,284.404 L131.144,284.404 L131.144,284.08 L128.876,284.08 L128.876,284.404 C128.948,284.404 129.011,284.425 129.065,284.467 C129.119,284.509 129.146,284.578 129.146,284.674 L129.146,284.674 L129.146,287.212 L124.322,287.212 L124.322,284.674 C124.322,284.578 124.349,284.509 124.403,284.467 C124.457,284.425 124.52,284.404 124.592,284.404 L124.592,284.404 L124.592,284.08 L122.324,284.08 L122.324,284.404 C122.396,284.404 122.459,284.425 122.513,284.467 C122.567,284.509 122.594,284.578 122.594,284.674 L122.594,284.674 L122.594,291.406 C122.594,291.502 122.567,291.571 122.513,291.613 C122.459,291.655 122.396,291.676 122.324,291.676 L122.324,291.676 L122.324,292 L124.592,292 Z M141.656,292.198 L141.656,290.308 L141.332,290.308 C141.332,290.416 141.284,290.503 141.188,290.569 C141.092,290.635 140.972,290.668 140.828,290.668 L140.828,290.668 L136.22,290.668 L136.22,288.544 L138.848,288.544 C139.088,288.544 139.274,288.559 139.406,288.589 C139.538,288.619 139.586,288.7 139.55,288.832 L139.55,288.832 L139.91,288.832 L139.91,286.924 L139.586,286.924 C139.586,287.056 139.538,287.137 139.442,287.167 C139.346,287.197 139.196,287.212 138.992,287.212 L138.992,287.212 L136.22,287.212 L136.22,285.412 L140.612,285.412 C140.984,285.412 141.17,285.526 141.17,285.754 L141.17,285.754 L141.494,285.754 L141.494,283.756 L141.17,283.756 C141.17,283.972 140.984,284.08 140.612,284.08 L140.612,284.08 L134.222,284.08 L134.222,284.404 C134.282,284.404 134.342,284.425 134.402,284.467 C134.462,284.509 134.492,284.578 134.492,284.674 L134.492,284.674 L134.492,291.406 C134.492,291.502 134.462,291.571 134.402,291.613 C134.342,291.655 134.282,291.676 134.222,291.676 L134.222,291.676 L134.222,292 L140.828,292 C140.972,292 141.092,292.006 141.188,292.018 C141.284,292.03 141.332,292.09 141.332,292.198 L141.332,292.198 L141.656,292.198 Z M146.552,292 L146.552,291.676 C146.48,291.676 146.405,291.655 146.327,291.613 C146.249,291.571 146.21,291.502 146.21,291.406 L146.21,291.406 L146.21,288.832 L148.712,288.832 L150.134,290.956 C150.314,291.208 150.404,291.394 150.404,291.514 C150.404,291.622 150.326,291.676 150.17,291.676 L150.17,291.676 L150.17,292 L152.924,292 L152.924,291.676 C152.792,291.64 152.669,291.589 152.555,291.523 C152.441,291.457 152.336,291.358 152.24,291.226 L152.24,291.226 L150.476,288.652 C150.728,288.592 150.974,288.505 151.214,288.391 C151.454,288.277 151.673,288.127 151.871,287.941 C152.069,287.755 152.228,287.536 152.348,287.284 C152.468,287.032 152.528,286.744 152.528,286.42 C152.528,285.568 152.228,284.965 151.628,284.611 C151.028,284.257 150.194,284.08 149.126,284.08 L149.126,284.08 L144.158,284.08 L144.158,284.404 C144.374,284.404 144.482,284.494 144.482,284.674 L144.482,284.674 L144.482,291.406 C144.482,291.586 144.374,291.676 144.158,291.676 L144.158,291.676 L144.158,292 L146.552,292 Z M149.09,287.5 L146.246,287.5 L146.246,285.412 L149.09,285.412 C149.702,285.412 150.149,285.499 150.431,285.673 C150.713,285.847 150.854,286.084 150.854,286.384 C150.854,287.128 150.266,287.5 149.09,287.5 L149.09,287.5 Z M162.662,292.198 L162.662,290.308 L162.338,290.308 C162.338,290.416 162.29,290.503 162.194,290.569 C162.098,290.635 161.978,290.668 161.834,290.668 L161.834,290.668 L157.226,290.668 L157.226,288.544 L159.854,288.544 C160.094,288.544 160.28,288.559 160.412,288.589 C160.544,288.619 160.592,288.7 160.556,288.832 L160.556,288.832 L160.916,288.832 L160.916,286.924 L160.592,286.924 C160.592,287.056 160.544,287.137 160.448,287.167 C160.352,287.197 160.202,287.212 159.998,287.212 L159.998,287.212 L157.226,287.212 L157.226,285.412 L161.618,285.412 C161.99,285.412 162.176,285.526 162.176,285.754 L162.176,285.754 L162.5,285.754 L162.5,283.756 L162.176,283.756 C162.176,283.972 161.99,284.08 161.618,284.08 L161.618,284.08 L155.228,284.08 L155.228,284.404 C155.288,284.404 155.348,284.425 155.408,284.467 C155.468,284.509 155.498,284.578 155.498,284.674 L155.498,284.674 L155.498,291.406 C155.498,291.502 155.468,291.571 155.408,291.613 C155.348,291.655 155.288,291.676 155.228,291.676 L155.228,291.676 L155.228,292 L161.834,292 C161.978,292 162.098,292.006 162.194,292.018 C162.29,292.03 162.338,292.09 162.338,292.198 L162.338,292.198 L162.662,292.198 Z M168.944,288.724 L168.944,288.508 C168.836,288.508 168.758,288.463 168.71,288.373 C168.662,288.283 168.638,288.172 168.638,288.04 C168.638,287.764 168.746,287.506 168.962,287.266 C169.178,287.026 169.412,286.768 169.664,286.492 C169.928,286.216 170.165,285.913 170.375,285.583 C170.585,285.253 170.69,284.866 170.69,284.422 C170.69,284.062 170.615,283.741 170.465,283.459 C170.315,283.177 170.114,282.943 169.862,282.757 C169.61,282.571 169.325,282.427 169.007,282.325 C168.689,282.223 168.368,282.172 168.044,282.172 C167.54,282.172 167.132,282.232 166.82,282.352 C166.508,282.472 166.25,282.601 166.046,282.739 C165.842,282.877 165.677,283.006 165.551,283.126 C165.425,283.246 165.302,283.306 165.182,283.306 C165.17,283.306 165.104,283.294 164.984,283.27 L164.984,283.27 L164.822,283.432 L166.208,284.944 L166.37,284.818 C166.334,284.71 166.316,284.602 166.316,284.494 C166.316,284.422 166.349,284.329 166.415,284.215 C166.481,284.101 166.577,283.996 166.703,283.9 C166.829,283.804 166.985,283.72 167.171,283.648 C167.357,283.576 167.564,283.54 167.792,283.54 C168.104,283.54 168.365,283.633 168.575,283.819 C168.785,284.005 168.89,284.26 168.89,284.584 C168.89,284.86 168.812,285.103 168.656,285.313 C168.5,285.523 168.32,285.748 168.116,285.988 C167.924,286.216 167.741,286.48 167.567,286.78 C167.393,287.08 167.282,287.482 167.234,287.986 C167.21,288.19 167.171,288.328 167.117,288.4 C167.063,288.472 167,288.508 166.928,288.508 L166.928,288.508 L166.928,288.724 L168.944,288.724 Z M167.918,292.054 C168.23,292.054 168.5,291.949 168.728,291.739 C168.956,291.529 169.07,291.268 169.07,290.956 C169.07,290.644 168.956,290.374 168.728,290.146 C168.5,289.918 168.23,289.804 167.918,289.804 C167.606,289.804 167.336,289.918 167.108,290.146 C166.88,290.374 166.766,290.644 166.766,290.956 C166.766,291.268 166.88,291.529 167.108,291.739 C167.336,291.949 167.606,292.054 167.918,292.054 Z M175.496,288.724 L175.496,288.508 C175.4,288.508 175.322,288.493 175.262,288.463 C175.202,288.433 175.172,288.37 175.172,288.274 C175.172,288.19 175.178,288.109 175.19,288.031 C175.202,287.953 175.214,287.866 175.226,287.77 L175.226,287.77 L175.784,282.964 C175.808,282.82 175.844,282.718 175.892,282.658 C175.94,282.598 176.054,282.544 176.234,282.496 L176.234,282.496 L176.234,282.28 L173.246,282.28 L173.246,282.496 C173.426,282.544 173.54,282.598 173.588,282.658 C173.636,282.718 173.672,282.82 173.696,282.964 L173.696,282.964 L174.254,287.77 C174.266,287.866 174.278,287.953 174.29,288.031 C174.302,288.109 174.308,288.19 174.308,288.274 C174.308,288.37 174.278,288.433 174.218,288.463 C174.158,288.493 174.08,288.508 173.984,288.508 L173.984,288.508 L173.984,288.724 L175.496,288.724 Z M174.74,292.054 C175.052,292.054 175.322,291.949 175.55,291.739 C175.778,291.529 175.892,291.268 175.892,290.956 C175.892,290.644 175.778,290.374 175.55,290.146 C175.322,289.918 175.052,289.804 174.74,289.804 C174.428,289.804 174.158,289.918 173.93,290.146 C173.702,290.374 173.588,290.644 173.588,290.956 C173.588,291.268 173.702,291.529 173.93,291.739 C174.158,291.949 174.428,292.054 174.74,292.054 Z M58.19,310 L58.19,309.676 C57.962,309.676 57.848,309.61 57.848,309.478 C57.848,309.37 57.908,309.19 58.028,308.938 L58.028,308.938 L58.676,307.66 L63.068,307.66 L63.752,308.992 C63.848,309.184 63.896,309.34 63.896,309.46 C63.896,309.532 63.86,309.586 63.788,309.622 C63.716,309.658 63.656,309.676 63.608,309.676 L63.608,309.676 L63.608,310 L66.776,310 L66.776,309.676 C66.644,309.616 66.527,309.556 66.425,309.496 C66.323,309.436 66.242,309.34 66.182,309.208 L66.182,309.208 L62.438,301.882 C62.354,301.726 62.291,301.6 62.249,301.504 C62.207,301.408 62.186,301.312 62.186,301.216 C62.186,301.084 62.228,300.997 62.312,300.955 C62.396,300.913 62.48,300.88 62.564,300.856 L62.564,300.856 L62.564,300.532 L59.522,300.532 L59.522,300.856 C59.618,300.88 59.708,300.916 59.792,300.964 C59.876,301.012 59.918,301.096 59.918,301.216 C59.918,301.312 59.885,301.426 59.819,301.558 C59.753,301.69 59.678,301.834 59.594,301.99 L59.594,301.99 L56.264,308.992 C56.18,309.16 56.093,309.31 56.003,309.442 C55.913,309.574 55.79,309.652 55.634,309.676 L55.634,309.676 L55.634,310 L58.19,310 Z M62.42,306.328 L59.216,306.328 L60.908,302.98 L62.42,306.328 Z M73.544,310 C74.252,310 74.852,309.886 75.344,309.658 C75.836,309.43 76.238,309.133 76.55,308.767 C76.862,308.401 77.09,307.981 77.234,307.507 C77.378,307.033 77.45,306.544 77.45,306.04 C77.45,305.536 77.375,305.047 77.225,304.573 C77.075,304.099 76.841,303.679 76.523,303.313 C76.205,302.947 75.794,302.65 75.29,302.422 C74.786,302.194 74.18,302.08 73.472,302.08 L73.472,302.08 L68.468,302.08 L68.468,302.404 C68.744,302.404 68.882,302.494 68.882,302.674 L68.882,302.674 L68.882,309.406 C68.882,309.586 68.744,309.676 68.468,309.676 L68.468,309.676 L68.468,310 L73.544,310 Z M72.95,308.668 L70.61,308.668 L70.61,303.412 L72.95,303.412 C73.322,303.412 73.676,303.433 74.012,303.475 C74.348,303.517 74.642,303.625 74.894,303.799 C75.146,303.973 75.347,304.231 75.497,304.573 C75.647,304.915 75.722,305.386 75.722,305.986 C75.722,306.586 75.647,307.063 75.497,307.417 C75.347,307.771 75.146,308.041 74.894,308.227 C74.642,308.413 74.348,308.533 74.012,308.587 C73.676,308.641 73.322,308.668 72.95,308.668 L72.95,308.668 Z M84.542,310 C85.25,310 85.85,309.886 86.342,309.658 C86.834,309.43 87.236,309.133 87.548,308.767 C87.86,308.401 88.088,307.981 88.232,307.507 C88.376,307.033 88.448,306.544 88.448,306.04 C88.448,305.536 88.373,305.047 88.223,304.573 C88.073,304.099 87.839,303.679 87.521,303.313 C87.203,302.947 86.792,302.65 86.288,302.422 C85.784,302.194 85.178,302.08 84.47,302.08 L84.47,302.08 L79.466,302.08 L79.466,302.404 C79.742,302.404 79.88,302.494 79.88,302.674 L79.88,302.674 L79.88,309.406 C79.88,309.586 79.742,309.676 79.466,309.676 L79.466,309.676 L79.466,310 L84.542,310 Z M83.948,308.668 L81.608,308.668 L81.608,303.412 L83.948,303.412 C84.32,303.412 84.674,303.433 85.01,303.475 C85.346,303.517 85.64,303.625 85.892,303.799 C86.144,303.973 86.345,304.231 86.495,304.573 C86.645,304.915 86.72,305.386 86.72,305.986 C86.72,306.586 86.645,307.063 86.495,307.417 C86.345,307.771 86.144,308.041 85.892,308.227 C85.64,308.413 85.346,308.533 85.01,308.587 C84.674,308.641 84.32,308.668 83.948,308.668 L83.948,308.668 Z M100.436,310 L100.436,309.676 C100.22,309.676 100.112,309.586 100.112,309.406 L100.112,309.406 L100.112,303.412 L102.452,303.412 C102.548,303.412 102.638,303.436 102.722,303.484 C102.806,303.532 102.848,303.61 102.848,303.718 L102.848,303.718 L103.172,303.718 L103.172,301.648 L102.848,301.648 C102.848,301.816 102.806,301.93 102.722,301.99 C102.638,302.05 102.548,302.08 102.452,302.08 L102.452,302.08 L96.044,302.08 C95.948,302.08 95.858,302.05 95.774,301.99 C95.69,301.93 95.648,301.816 95.648,301.648 L95.648,301.648 L95.324,301.648 L95.324,303.718 L95.648,303.718 C95.648,303.61 95.69,303.532 95.774,303.484 C95.858,303.436 95.948,303.412 96.044,303.412 L96.044,303.412 L98.384,303.412 L98.384,309.406 C98.384,309.502 98.354,309.571 98.294,309.613 C98.234,309.655 98.174,309.676 98.114,309.676 L98.114,309.676 L98.114,310 L100.436,310 Z M107.6,310 L107.6,309.676 C107.528,309.676 107.465,309.655 107.411,309.613 C107.357,309.571 107.33,309.502 107.33,309.406 L107.33,309.406 L107.33,306.688 L112.154,306.688 L112.154,309.406 C112.154,309.502 112.127,309.571 112.073,309.613 C112.019,309.655 111.956,309.676 111.884,309.676 L111.884,309.676 L111.884,310 L114.152,310 L114.152,309.676 C114.08,309.676 114.017,309.655 113.963,309.613 C113.909,309.571 113.882,309.502 113.882,309.406 L113.882,309.406 L113.882,302.674 C113.882,302.578 113.909,302.509 113.963,302.467 C114.017,302.425 114.08,302.404 114.152,302.404 L114.152,302.404 L114.152,302.08 L111.884,302.08 L111.884,302.404 C111.956,302.404 112.019,302.425 112.073,302.467 C112.127,302.509 112.154,302.578 112.154,302.674 L112.154,302.674 L112.154,305.212 L107.33,305.212 L107.33,302.674 C107.33,302.578 107.357,302.509 107.411,302.467 C107.465,302.425 107.528,302.404 107.6,302.404 L107.6,302.404 L107.6,302.08 L105.332,302.08 L105.332,302.404 C105.404,302.404 105.467,302.425 105.521,302.467 C105.575,302.509 105.602,302.578 105.602,302.674 L105.602,302.674 L105.602,309.406 C105.602,309.502 105.575,309.571 105.521,309.613 C105.467,309.655 105.404,309.676 105.332,309.676 L105.332,309.676 L105.332,310 L107.6,310 Z M120.11,310 L120.11,309.676 C119.774,309.676 119.606,309.586 119.606,309.406 L119.606,309.406 L119.606,302.674 C119.606,302.494 119.774,302.404 120.11,302.404 L120.11,302.404 L120.11,302.08 L117.374,302.08 L117.374,302.404 C117.566,302.404 117.698,302.425 117.77,302.467 C117.842,302.509 117.878,302.578 117.878,302.674 L117.878,302.674 L117.878,309.406 C117.878,309.502 117.842,309.571 117.77,309.613 C117.698,309.655 117.566,309.676 117.374,309.676 L117.374,309.676 L117.374,310 L120.11,310 Z M126.608,310.054 C127.016,310.054 127.451,310.024 127.913,309.964 C128.375,309.904 128.798,309.778 129.182,309.586 C129.566,309.394 129.887,309.13 130.145,308.794 C130.403,308.458 130.532,308.026 130.532,307.498 C130.532,306.97 130.385,306.556 130.091,306.256 C129.797,305.956 129.428,305.728 128.984,305.572 C128.54,305.416 128.06,305.305 127.544,305.239 C127.028,305.173 126.548,305.107 126.104,305.041 C125.66,304.975 125.291,304.885 124.997,304.771 C124.703,304.657 124.556,304.468 124.556,304.204 C124.556,304.036 124.604,303.895 124.7,303.781 C124.796,303.667 124.928,303.574 125.096,303.502 C125.264,303.43 125.456,303.379 125.672,303.349 C125.888,303.319 126.116,303.304 126.356,303.304 C126.98,303.304 127.544,303.376 128.048,303.52 C128.552,303.664 128.924,303.838 129.164,304.042 C129.26,304.114 129.314,304.186 129.326,304.258 L129.326,304.258 L129.362,304.474 L129.686,304.582 L130.586,302.89 L130.388,302.692 C130.316,302.728 130.256,302.761 130.208,302.791 C130.16,302.821 130.088,302.836 129.992,302.836 C129.908,302.836 129.779,302.791 129.605,302.701 C129.431,302.611 129.206,302.512 128.93,302.404 C128.654,302.296 128.315,302.197 127.913,302.107 C127.511,302.017 127.028,301.972 126.464,301.972 C125.312,301.972 124.418,302.2 123.782,302.656 C123.146,303.112 122.828,303.724 122.828,304.492 C122.828,305.008 122.975,305.407 123.269,305.689 C123.563,305.971 123.932,306.187 124.376,306.337 C124.82,306.487 125.3,306.595 125.816,306.661 C126.332,306.727 126.812,306.793 127.256,306.859 C127.7,306.925 128.069,307.018 128.363,307.138 C128.657,307.258 128.804,307.45 128.804,307.714 C128.804,307.942 128.72,308.125 128.552,308.263 C128.384,308.401 128.18,308.509 127.94,308.587 C127.7,308.665 127.457,308.716 127.211,308.74 C126.965,308.764 126.758,308.776 126.59,308.776 C126.41,308.776 126.161,308.746 125.843,308.686 C125.525,308.626 125.207,308.545 124.889,308.443 C124.571,308.341 124.298,308.215 124.07,308.065 C123.842,307.915 123.728,307.75 123.728,307.57 C123.728,307.51 123.731,307.453 123.737,307.399 C123.743,307.345 123.746,307.294 123.746,307.246 L123.746,307.246 L123.404,307.156 L122.576,309.172 L122.828,309.352 C122.888,309.28 122.96,309.244 123.044,309.244 C123.092,309.244 123.23,309.289 123.458,309.379 C123.686,309.469 123.965,309.565 124.295,309.667 C124.625,309.769 124.991,309.859 125.393,309.937 C125.795,310.015 126.2,310.054 126.608,310.054 Z M142.934,310 L142.934,309.676 C142.718,309.676 142.61,309.586 142.61,309.406 L142.61,309.406 L142.61,303.412 L144.95,303.412 C145.046,303.412 145.136,303.436 145.22,303.484 C145.304,303.532 145.346,303.61 145.346,303.718 L145.346,303.718 L145.67,303.718 L145.67,301.648 L145.346,301.648 C145.346,301.816 145.304,301.93 145.22,301.99 C145.136,302.05 145.046,302.08 144.95,302.08 L144.95,302.08 L138.542,302.08 C138.446,302.08 138.356,302.05 138.272,301.99 C138.188,301.93 138.146,301.816 138.146,301.648 L138.146,301.648 L137.822,301.648 L137.822,303.718 L138.146,303.718 C138.146,303.61 138.188,303.532 138.272,303.484 C138.356,303.436 138.446,303.412 138.542,303.412 L138.542,303.412 L140.882,303.412 L140.882,309.406 C140.882,309.502 140.852,309.571 140.792,309.613 C140.732,309.655 140.672,309.676 140.612,309.676 L140.612,309.676 L140.612,310 L142.934,310 Z M151.736,310.054 C152.396,310.054 153.017,309.979 153.599,309.829 C154.181,309.679 154.688,309.436 155.12,309.1 C155.552,308.764 155.894,308.341 156.146,307.831 C156.398,307.321 156.524,306.724 156.524,306.04 C156.524,305.356 156.398,304.759 156.146,304.249 C155.894,303.739 155.552,303.316 155.12,302.98 C154.688,302.644 154.181,302.392 153.599,302.224 C153.017,302.056 152.396,301.972 151.736,301.972 C151.076,301.972 150.455,302.056 149.873,302.224 C149.291,302.392 148.784,302.644 148.352,302.98 C147.92,303.316 147.578,303.739 147.326,304.249 C147.074,304.759 146.948,305.356 146.948,306.04 C146.948,306.724 147.074,307.321 147.326,307.831 C147.578,308.341 147.92,308.764 148.352,309.1 C148.784,309.436 149.291,309.679 149.873,309.829 C150.455,309.979 151.076,310.054 151.736,310.054 Z M151.736,308.776 C151.352,308.776 150.977,308.713 150.611,308.587 C150.245,308.461 149.918,308.281 149.63,308.047 C149.342,307.813 149.111,307.528 148.937,307.192 C148.763,306.856 148.676,306.472 148.676,306.04 C148.676,305.608 148.763,305.224 148.937,304.888 C149.111,304.552 149.342,304.267 149.63,304.033 C149.918,303.799 150.245,303.619 150.611,303.493 C150.977,303.367 151.352,303.304 151.736,303.304 C152.12,303.304 152.495,303.367 152.861,303.493 C153.227,303.619 153.554,303.799 153.842,304.033 C154.13,304.267 154.361,304.552 154.535,304.888 C154.709,305.224 154.796,305.608 154.796,306.04 C154.796,306.472 154.709,306.856 154.535,307.192 C154.361,307.528 154.13,307.813 153.842,308.047 C153.554,308.281 153.227,308.461 152.861,308.587 C152.495,308.713 152.12,308.776 151.736,308.776 Z M168.944,310 L168.944,309.676 C168.716,309.676 168.602,309.586 168.602,309.406 L168.602,309.406 L168.602,306.706 L171.356,303.142 C171.488,302.974 171.641,302.809 171.815,302.647 C171.989,302.485 172.148,302.404 172.292,302.404 L172.292,302.404 L172.292,302.08 L169.538,302.08 L169.538,302.404 C169.598,302.404 169.658,302.416 169.718,302.44 C169.778,302.464 169.808,302.524 169.808,302.62 C169.808,302.692 169.781,302.767 169.727,302.845 C169.673,302.923 169.592,303.04 169.484,303.196 L169.484,303.196 L167.882,305.428 L166.064,303.052 C166.004,302.968 165.95,302.896 165.902,302.836 C165.854,302.776 165.83,302.71 165.83,302.638 C165.83,302.566 165.866,302.509 165.938,302.467 C166.01,302.425 166.076,302.404 166.136,302.404 L166.136,302.404 L166.136,302.08 L163.166,302.08 L163.166,302.404 C163.274,302.404 163.388,302.428 163.508,302.476 C163.628,302.524 163.73,302.602 163.814,302.71 L163.814,302.71 L166.874,306.634 L166.874,309.406 C166.874,309.586 166.766,309.676 166.55,309.676 L166.55,309.676 L166.55,310 L168.944,310 Z M178.232,310.054 C178.892,310.054 179.513,309.979 180.095,309.829 C180.677,309.679 181.184,309.436 181.616,309.1 C182.048,308.764 182.39,308.341 182.642,307.831 C182.894,307.321 183.02,306.724 183.02,306.04 C183.02,305.356 182.894,304.759 182.642,304.249 C182.39,303.739 182.048,303.316 181.616,302.98 C181.184,302.644 180.677,302.392 180.095,302.224 C179.513,302.056 178.892,301.972 178.232,301.972 C177.572,301.972 176.951,302.056 176.369,302.224 C175.787,302.392 175.28,302.644 174.848,302.98 C174.416,303.316 174.074,303.739 173.822,304.249 C173.57,304.759 173.444,305.356 173.444,306.04 C173.444,306.724 173.57,307.321 173.822,307.831 C174.074,308.341 174.416,308.764 174.848,309.1 C175.28,309.436 175.787,309.679 176.369,309.829 C176.951,309.979 177.572,310.054 178.232,310.054 Z M178.232,308.776 C177.848,308.776 177.473,308.713 177.107,308.587 C176.741,308.461 176.414,308.281 176.126,308.047 C175.838,307.813 175.607,307.528 175.433,307.192 C175.259,306.856 175.172,306.472 175.172,306.04 C175.172,305.608 175.259,305.224 175.433,304.888 C175.607,304.552 175.838,304.267 176.126,304.033 C176.414,303.799 176.741,303.619 177.107,303.493 C177.473,303.367 177.848,303.304 178.232,303.304 C178.616,303.304 178.991,303.367 179.357,303.493 C179.723,303.619 180.05,303.799 180.338,304.033 C180.626,304.267 180.857,304.552 181.031,304.888 C181.205,305.224 181.292,305.608 181.292,306.04 C181.292,306.472 181.205,306.856 181.031,307.192 C180.857,307.528 180.626,307.813 180.338,308.047 C180.05,308.281 179.723,308.461 179.357,308.587 C178.991,308.713 178.616,308.776 178.232,308.776 Z M189.806,310.054 C190.526,310.054 191.153,309.979 191.687,309.829 C192.221,309.679 192.659,309.472 193.001,309.208 C193.343,308.944 193.598,308.641 193.766,308.299 C193.934,307.957 194.018,307.6 194.018,307.228 L194.018,307.228 L194.018,302.674 C194.018,302.494 194.15,302.404 194.414,302.404 L194.414,302.404 L194.414,302.08 L191.912,302.08 L191.912,302.404 C192.212,302.404 192.362,302.494 192.362,302.674 L192.362,302.674 L192.362,306.796 C192.362,307.372 192.152,307.834 191.732,308.182 C191.312,308.53 190.67,308.704 189.806,308.704 C188.942,308.704 188.3,308.53 187.88,308.182 C187.46,307.834 187.25,307.372 187.25,306.796 L187.25,306.796 L187.25,302.674 C187.25,302.494 187.382,302.404 187.646,302.404 L187.646,302.404 L187.646,302.08 L185.072,302.08 L185.072,302.404 C185.276,302.404 185.414,302.425 185.486,302.467 C185.558,302.509 185.594,302.578 185.594,302.674 L185.594,302.674 L185.594,307.228 C185.594,307.6 185.678,307.957 185.846,308.299 C186.014,308.641 186.269,308.944 186.611,309.208 C186.953,309.472 187.391,309.679 187.925,309.829 C188.459,309.979 189.086,310.054 189.806,310.054 Z M199.544,310 L199.544,309.676 C199.472,309.676 199.397,309.655 199.319,309.613 C199.241,309.571 199.202,309.502 199.202,309.406 L199.202,309.406 L199.202,306.832 L201.704,306.832 L203.126,308.956 C203.306,309.208 203.396,309.394 203.396,309.514 C203.396,309.622 203.318,309.676 203.162,309.676 L203.162,309.676 L203.162,310 L205.916,310 L205.916,309.676 C205.784,309.64 205.661,309.589 205.547,309.523 C205.433,309.457 205.328,309.358 205.232,309.226 L205.232,309.226 L203.468,306.652 C203.72,306.592 203.966,306.505 204.206,306.391 C204.446,306.277 204.665,306.127 204.863,305.941 C205.061,305.755 205.22,305.536 205.34,305.284 C205.46,305.032 205.52,304.744 205.52,304.42 C205.52,303.568 205.22,302.965 204.62,302.611 C204.02,302.257 203.186,302.08 202.118,302.08 L202.118,302.08 L197.15,302.08 L197.15,302.404 C197.366,302.404 197.474,302.494 197.474,302.674 L197.474,302.674 L197.474,309.406 C197.474,309.586 197.366,309.676 197.15,309.676 L197.15,309.676 L197.15,310 L199.544,310 Z M202.082,305.5 L199.238,305.5 L199.238,303.412 L202.082,303.412 C202.694,303.412 203.141,303.499 203.423,303.673 C203.705,303.847 203.846,304.084 203.846,304.384 C203.846,305.128 203.258,305.5 202.082,305.5 L202.082,305.5 Z M74.354,328.054 C74.762,328.054 75.197,328.024 75.659,327.964 C76.121,327.904 76.544,327.778 76.928,327.586 C77.312,327.394 77.633,327.13 77.891,326.794 C78.149,326.458 78.278,326.026 78.278,325.498 C78.278,324.97 78.131,324.556 77.837,324.256 C77.543,323.956 77.174,323.728 76.73,323.572 C76.286,323.416 75.806,323.305 75.29,323.239 C74.774,323.173 74.294,323.107 73.85,323.041 C73.406,322.975 73.037,322.885 72.743,322.771 C72.449,322.657 72.302,322.468 72.302,322.204 C72.302,322.036 72.35,321.895 72.446,321.781 C72.542,321.667 72.674,321.574 72.842,321.502 C73.01,321.43 73.202,321.379 73.418,321.349 C73.634,321.319 73.862,321.304 74.102,321.304 C74.726,321.304 75.29,321.376 75.794,321.52 C76.298,321.664 76.67,321.838 76.91,322.042 C77.006,322.114 77.06,322.186 77.072,322.258 L77.072,322.258 L77.108,322.474 L77.432,322.582 L78.332,320.89 L78.134,320.692 C78.062,320.728 78.002,320.761 77.954,320.791 C77.906,320.821 77.834,320.836 77.738,320.836 C77.654,320.836 77.525,320.791 77.351,320.701 C77.177,320.611 76.952,320.512 76.676,320.404 C76.4,320.296 76.061,320.197 75.659,320.107 C75.257,320.017 74.774,319.972 74.21,319.972 C73.058,319.972 72.164,320.2 71.528,320.656 C70.892,321.112 70.574,321.724 70.574,322.492 C70.574,323.008 70.721,323.407 71.015,323.689 C71.309,323.971 71.678,324.187 72.122,324.337 C72.566,324.487 73.046,324.595 73.562,324.661 C74.078,324.727 74.558,324.793 75.002,324.859 C75.446,324.925 75.815,325.018 76.109,325.138 C76.403,325.258 76.55,325.45 76.55,325.714 C76.55,325.942 76.466,326.125 76.298,326.263 C76.13,326.401 75.926,326.509 75.686,326.587 C75.446,326.665 75.203,326.716 74.957,326.74 C74.711,326.764 74.504,326.776 74.336,326.776 C74.156,326.776 73.907,326.746 73.589,326.686 C73.271,326.626 72.953,326.545 72.635,326.443 C72.317,326.341 72.044,326.215 71.816,326.065 C71.588,325.915 71.474,325.75 71.474,325.57 C71.474,325.51 71.477,325.453 71.483,325.399 C71.489,325.345 71.492,325.294 71.492,325.246 L71.492,325.246 L71.15,325.156 L70.322,327.172 L70.574,327.352 C70.634,327.28 70.706,327.244 70.79,327.244 C70.838,327.244 70.976,327.289 71.204,327.379 C71.432,327.469 71.711,327.565 72.041,327.667 C72.371,327.769 72.737,327.859 73.139,327.937 C73.541,328.015 73.946,328.054 74.354,328.054 Z M85.712,328 L85.712,327.676 C85.484,327.676 85.37,327.586 85.37,327.406 L85.37,327.406 L85.37,324.706 L88.124,321.142 C88.256,320.974 88.409,320.809 88.583,320.647 C88.757,320.485 88.916,320.404 89.06,320.404 L89.06,320.404 L89.06,320.08 L86.306,320.08 L86.306,320.404 C86.366,320.404 86.426,320.416 86.486,320.44 C86.546,320.464 86.576,320.524 86.576,320.62 C86.576,320.692 86.549,320.767 86.495,320.845 C86.441,320.923 86.36,321.04 86.252,321.196 L86.252,321.196 L84.65,323.428 L82.832,321.052 C82.772,320.968 82.718,320.896 82.67,320.836 C82.622,320.776 82.598,320.71 82.598,320.638 C82.598,320.566 82.634,320.509 82.706,320.467 C82.778,320.425 82.844,320.404 82.904,320.404 L82.904,320.404 L82.904,320.08 L79.934,320.08 L79.934,320.404 C80.042,320.404 80.156,320.428 80.276,320.476 C80.396,320.524 80.498,320.602 80.582,320.71 L80.582,320.71 L83.642,324.634 L83.642,327.406 C83.642,327.586 83.534,327.676 83.318,327.676 L83.318,327.676 L83.318,328 L85.712,328 Z M93.218,328 L93.218,327.676 C93.014,327.676 92.912,327.586 92.912,327.406 L92.912,327.406 L92.912,322.348 L92.93,322.348 L95.828,328 L95.972,328 L99.032,322.348 L99.068,322.348 L99.068,327.406 C99.104,327.586 98.996,327.676 98.744,327.676 L98.744,327.676 L98.744,328 L100.832,328 L100.832,327.676 C100.772,327.676 100.715,327.655 100.661,327.613 C100.607,327.571 100.58,327.502 100.58,327.406 L100.58,327.406 L100.58,320.638 C100.58,320.542 100.607,320.479 100.661,320.449 C100.715,320.419 100.772,320.404 100.832,320.404 L100.832,320.404 L100.832,320.08 L98.294,320.08 L98.294,320.404 C98.39,320.404 98.438,320.458 98.438,320.566 C98.438,320.602 98.414,320.665 98.366,320.755 C98.318,320.845 98.252,320.962 98.168,321.106 L98.168,321.106 L95.954,325.138 L93.758,321.088 C93.674,320.944 93.611,320.833 93.569,320.755 C93.527,320.677 93.506,320.614 93.506,320.566 C93.506,320.458 93.566,320.404 93.686,320.404 L93.686,320.404 L93.686,320.08 L91.184,320.08 L91.184,320.404 C91.268,320.404 91.325,320.422 91.355,320.458 C91.385,320.494 91.4,320.596 91.4,320.764 L91.4,320.764 L91.4,327.352 C91.4,327.484 91.379,327.568 91.337,327.604 C91.295,327.64 91.244,327.664 91.184,327.676 L91.184,327.676 L91.184,328 L93.218,328 Z M106.268,328 L106.268,327.676 C106.016,327.676 105.89,327.586 105.89,327.406 L105.89,327.406 L105.89,324.706 L108.95,324.706 C109.922,324.706 110.651,324.541 111.137,324.211 C111.623,323.881 111.866,323.284 111.866,322.42 C111.866,321.556 111.623,320.95 111.137,320.602 C110.651,320.254 109.922,320.08 108.95,320.08 L108.95,320.08 L103.712,320.08 L103.712,320.404 C104.012,320.404 104.162,320.494 104.162,320.674 L104.162,320.674 L104.162,327.406 C104.162,327.586 104.012,327.676 103.712,327.676 L103.712,327.676 L103.712,328 L106.268,328 Z M108.914,323.374 L105.89,323.374 L105.89,321.412 L108.914,321.412 C109.262,321.412 109.553,321.487 109.787,321.637 C110.021,321.787 110.138,322.048 110.138,322.42 C110.138,322.804 110.021,323.059 109.787,323.185 C109.553,323.311 109.262,323.374 108.914,323.374 L108.914,323.374 Z M118.202,328 L118.202,327.676 C117.986,327.676 117.878,327.586 117.878,327.406 L117.878,327.406 L117.878,321.412 L120.218,321.412 C120.314,321.412 120.404,321.436 120.488,321.484 C120.572,321.532 120.614,321.61 120.614,321.718 L120.614,321.718 L120.938,321.718 L120.938,319.648 L120.614,319.648 C120.614,319.816 120.572,319.93 120.488,319.99 C120.404,320.05 120.314,320.08 120.218,320.08 L120.218,320.08 L113.81,320.08 C113.714,320.08 113.624,320.05 113.54,319.99 C113.456,319.93 113.414,319.816 113.414,319.648 L113.414,319.648 L113.09,319.648 L113.09,321.718 L113.414,321.718 C113.414,321.61 113.456,321.532 113.54,321.484 C113.624,321.436 113.714,321.412 113.81,321.412 L113.81,321.412 L116.15,321.412 L116.15,327.406 C116.15,327.502 116.12,327.571 116.06,327.613 C116,327.655 115.94,327.676 115.88,327.676 L115.88,327.676 L115.88,328 L118.202,328 Z M127.004,328.054 C127.664,328.054 128.285,327.979 128.867,327.829 C129.449,327.679 129.956,327.436 130.388,327.1 C130.82,326.764 131.162,326.341 131.414,325.831 C131.666,325.321 131.792,324.724 131.792,324.04 C131.792,323.356 131.666,322.759 131.414,322.249 C131.162,321.739 130.82,321.316 130.388,320.98 C129.956,320.644 129.449,320.392 128.867,320.224 C128.285,320.056 127.664,319.972 127.004,319.972 C126.344,319.972 125.723,320.056 125.141,320.224 C124.559,320.392 124.052,320.644 123.62,320.98 C123.188,321.316 122.846,321.739 122.594,322.249 C122.342,322.759 122.216,323.356 122.216,324.04 C122.216,324.724 122.342,325.321 122.594,325.831 C122.846,326.341 123.188,326.764 123.62,327.1 C124.052,327.436 124.559,327.679 125.141,327.829 C125.723,327.979 126.344,328.054 127.004,328.054 Z M127.004,326.776 C126.62,326.776 126.245,326.713 125.879,326.587 C125.513,326.461 125.186,326.281 124.898,326.047 C124.61,325.813 124.379,325.528 124.205,325.192 C124.031,324.856 123.944,324.472 123.944,324.04 C123.944,323.608 124.031,323.224 124.205,322.888 C124.379,322.552 124.61,322.267 124.898,322.033 C125.186,321.799 125.513,321.619 125.879,321.493 C126.245,321.367 126.62,321.304 127.004,321.304 C127.388,321.304 127.763,321.367 128.129,321.493 C128.495,321.619 128.822,321.799 129.11,322.033 C129.398,322.267 129.629,322.552 129.803,322.888 C129.977,323.224 130.064,323.608 130.064,324.04 C130.064,324.472 129.977,324.856 129.803,325.192 C129.629,325.528 129.398,325.813 129.11,326.047 C128.822,326.281 128.495,326.461 128.129,326.587 C127.763,326.713 127.388,326.776 127.004,326.776 Z M136.22,328 L136.22,327.676 C136.016,327.676 135.914,327.586 135.914,327.406 L135.914,327.406 L135.914,322.348 L135.932,322.348 L138.83,328 L138.974,328 L142.034,322.348 L142.07,322.348 L142.07,327.406 C142.106,327.586 141.998,327.676 141.746,327.676 L141.746,327.676 L141.746,328 L143.834,328 L143.834,327.676 C143.774,327.676 143.717,327.655 143.663,327.613 C143.609,327.571 143.582,327.502 143.582,327.406 L143.582,327.406 L143.582,320.638 C143.582,320.542 143.609,320.479 143.663,320.449 C143.717,320.419 143.774,320.404 143.834,320.404 L143.834,320.404 L143.834,320.08 L141.296,320.08 L141.296,320.404 C141.392,320.404 141.44,320.458 141.44,320.566 C141.44,320.602 141.416,320.665 141.368,320.755 C141.32,320.845 141.254,320.962 141.17,321.106 L141.17,321.106 L138.956,325.138 L136.76,321.088 C136.676,320.944 136.613,320.833 136.571,320.755 C136.529,320.677 136.508,320.614 136.508,320.566 C136.508,320.458 136.568,320.404 136.688,320.404 L136.688,320.404 L136.688,320.08 L134.186,320.08 L134.186,320.404 C134.27,320.404 134.327,320.422 134.357,320.458 C134.387,320.494 134.402,320.596 134.402,320.764 L134.402,320.764 L134.402,327.352 C134.402,327.484 134.381,327.568 134.339,327.604 C134.297,327.64 134.246,327.664 134.186,327.676 L134.186,327.676 L134.186,328 L136.22,328 Z M154.76,328 L154.76,327.676 C154.508,327.676 154.382,327.586 154.382,327.406 L154.382,327.406 L154.382,324.706 L157.442,324.706 C158.414,324.706 159.143,324.541 159.629,324.211 C160.115,323.881 160.358,323.284 160.358,322.42 C160.358,321.556 160.115,320.95 159.629,320.602 C159.143,320.254 158.414,320.08 157.442,320.08 L157.442,320.08 L152.204,320.08 L152.204,320.404 C152.504,320.404 152.654,320.494 152.654,320.674 L152.654,320.674 L152.654,327.406 C152.654,327.586 152.504,327.676 152.204,327.676 L152.204,327.676 L152.204,328 L154.76,328 Z M157.406,323.374 L154.382,323.374 L154.382,321.412 L157.406,321.412 C157.754,321.412 158.045,321.487 158.279,321.637 C158.513,321.787 158.63,322.048 158.63,322.42 C158.63,322.804 158.513,323.059 158.279,323.185 C158.045,323.311 157.754,323.374 157.406,323.374 L157.406,323.374 Z M165.362,328 L165.362,327.676 C165.026,327.676 164.858,327.586 164.858,327.406 L164.858,327.406 L164.858,320.674 C164.858,320.494 165.026,320.404 165.362,320.404 L165.362,320.404 L165.362,320.08 L162.626,320.08 L162.626,320.404 C162.818,320.404 162.95,320.425 163.022,320.467 C163.094,320.509 163.13,320.578 163.13,320.674 L163.13,320.674 L163.13,327.406 C163.13,327.502 163.094,327.571 163.022,327.613 C162.95,327.655 162.818,327.676 162.626,327.676 L162.626,327.676 L162.626,328 L165.362,328 Z M176.252,328.18 L176.252,326.29 L175.928,326.29 C175.928,326.41 175.88,326.503 175.784,326.569 C175.688,326.635 175.568,326.668 175.424,326.668 L175.424,326.668 L170.564,326.668 L170.564,320.674 C170.564,320.494 170.702,320.404 170.978,320.404 L170.978,320.404 L170.978,320.08 L168.368,320.08 L168.368,320.404 C168.68,320.404 168.836,320.494 168.836,320.674 L168.836,320.674 L168.836,327.406 C168.836,327.586 168.68,327.676 168.368,327.676 L168.368,327.676 L168.368,328 L175.424,328 C175.568,328 175.688,328.006 175.784,328.018 C175.88,328.03 175.928,328.084 175.928,328.18 L175.928,328.18 L176.252,328.18 Z M185.918,328.198 L185.918,326.308 L185.594,326.308 C185.594,326.416 185.546,326.503 185.45,326.569 C185.354,326.635 185.234,326.668 185.09,326.668 L185.09,326.668 L180.482,326.668 L180.482,324.544 L183.11,324.544 C183.35,324.544 183.536,324.559 183.668,324.589 C183.8,324.619 183.848,324.7 183.812,324.832 L183.812,324.832 L184.172,324.832 L184.172,322.924 L183.848,322.924 C183.848,323.056 183.8,323.137 183.704,323.167 C183.608,323.197 183.458,323.212 183.254,323.212 L183.254,323.212 L180.482,323.212 L180.482,321.412 L184.874,321.412 C185.246,321.412 185.432,321.526 185.432,321.754 L185.432,321.754 L185.756,321.754 L185.756,319.756 L185.432,319.756 C185.432,319.972 185.246,320.08 184.874,320.08 L184.874,320.08 L178.484,320.08 L178.484,320.404 C178.544,320.404 178.604,320.425 178.664,320.467 C178.724,320.509 178.754,320.578 178.754,320.674 L178.754,320.674 L178.754,327.406 C178.754,327.502 178.724,327.571 178.664,327.613 C178.604,327.655 178.544,327.676 178.484,327.676 L178.484,327.676 L178.484,328 L185.09,328 C185.234,328 185.354,328.006 185.45,328.018 C185.546,328.03 185.594,328.09 185.594,328.198 L185.594,328.198 L185.918,328.198 Z M189.752,328.054 C190.1,328.054 190.4,327.937 190.652,327.703 C190.904,327.469 191.03,327.178 191.03,326.83 C191.03,326.482 190.904,326.182 190.652,325.93 C190.4,325.678 190.1,325.552 189.752,325.552 C189.404,325.552 189.104,325.678 188.852,325.93 C188.6,326.182 188.474,326.482 188.474,326.83 C188.474,327.178 188.6,327.469 188.852,327.703 C189.104,327.937 189.404,328.054 189.752,328.054 Z" id="Whydidthethermometerhavetogothere?!Addthistoyoursymptompile." fill="#000000" fill-rule="nonzero"></path>
    </g>
</svg>