<?xml version="1.0" encoding="UTF-8"?>
<svg width="262px" height="360px" viewBox="0 0 262 360" version="1.1" xmlns="http://www.w3.org/2000/svg" xmlns:xlink="http://www.w3.org/1999/xlink">
    <title>Headache 5</title>
    <g id="Headache-5" stroke="none" stroke-width="1" fill="none" fill-rule="evenodd">
        <g id="Group" transform="translate(9.000000, 9.000000)" fill="#FFFFFF" stroke="#000000" stroke-width="3">
            <g id="Rectangle">
                <rect x="1.5" y="1.5" width="239" height="337" rx="8"></rect>
            </g>
        </g>
        <path d="M216.124,30 L216.124,29.712 C215.964,29.712 215.82,29.668 215.692,29.58 C215.564,29.492 215.5,29.312 215.5,29.04 L215.5,29.04 L215.5,18.048 C215.5,17.888 215.564,17.768 215.692,17.688 C215.82,17.608 215.98,17.552 216.172,17.52 L216.172,17.52 L216.172,17.232 L212.284,17.232 L212.284,17.52 C212.46,17.552 212.6,17.6 212.704,17.664 C212.808,17.728 212.86,17.872 212.86,18.096 C212.86,18.336 212.768,18.54 212.584,18.708 C212.4,18.876 212.172,18.96 211.9,18.96 C211.772,18.96 211.636,18.932 211.492,18.876 C211.348,18.82 211.276,18.72 211.276,18.576 L211.276,18.576 L210.988,18.576 L210.988,21.6 L211.276,21.6 C211.324,21.472 211.408,21.372 211.528,21.3 C211.648,21.228 211.78,21.172 211.924,21.132 C212.068,21.092 212.216,21.064 212.368,21.048 C212.52,21.032 212.652,21.024 212.764,21.024 L212.764,21.024 L212.764,29.04 C212.764,29.312 212.704,29.492 212.584,29.58 C212.464,29.668 212.324,29.712 212.164,29.712 L212.164,29.712 L212.164,30 L216.124,30 Z" id="1" fill="#000000" fill-rule="nonzero"></path>
        <g id="Face" transform="translate(225.000000, 15.000000)">
            <circle id="Oval" stroke="#000000" fill="#FFFFFF" cx="9.5" cy="9.5" r="9"></circle>
            <circle id="Oval" fill="#000000" cx="5" cy="8" r="1"></circle>
            <circle id="Oval-Copy" fill="#000000" cx="12" cy="8" r="1"></circle>
            <line x1="12.0789474" y1="13.9090909" x2="14.5" y2="11.5" id="Line-4" stroke="#000000" stroke-linecap="round"></line>
            <path d="M3,5.89285714 C3.41025641,5.96428571 3.76923077,6 4.07692308,6 C4.38461538,6 5.35897436,5.33333333 7,4" id="Line-2" stroke="#000000"></path>
            <path d="M6,15 C6.96078431,14.3333333 8.07598039,14 9.34558824,14 C10.6151961,14 11.8333333,14.3333333 13,15" id="Line" stroke="#000000" stroke-linecap="round" stroke-linejoin="round"></path>
            <path d="M11.3197366,4.68245322 C11.585843,4.80663622 11.7912611,4.92388646 11.9359908,5.03420394 C12.548667,5.50120471 13.1333088,5.70898724 13.3155349,5.80010028 C13.5440857,5.91437569 13.8101922,6.00751295 14.1138542,6.07951204" id="Line-3" stroke="#000000" stroke-linecap="square" transform="translate(12.716795, 5.380983) rotate(-3.000000) translate(-12.716795, -5.380983) "></path>
            <path d="M2.999,9.347 L3.01687864,9.39698204 C3.09438102,9.62639002 3.1880913,9.89570266 3.30282211,10.2112791 C3.48139895,10.7024692 3.54804655,11.0169045 3.47980817,11.2204078 C3.41244402,11.421304 3.17143148,11.4011566 3.01518318,11.4416373 L3.01518318,11.4416373 L2.86575433,11.4813457 C2.78836954,11.5029149 2.70310591,11.5126925 2.63007237,11.4810832 C2.58941161,11.463485 2.56030088,11.4264037 2.54036126,11.376794 C2.4446463,11.1386559 2.49784548,10.759559 2.69717789,10.2112791 C2.8119087,9.89570266 2.90561898,9.62639002 2.98312136,9.39698204 L2.999,9.347 Z" id="Oval" stroke="#000000"></path>
            <path d="M16,6.347 L16.0168786,6.39698204 C16.094381,6.62639002 16.1880913,6.89570266 16.3028221,7.21127907 C16.481399,7.70246915 16.5480465,8.01690453 16.4798082,8.22040783 C16.412444,8.42130397 16.1714315,8.40115659 16.0151832,8.44163726 L16.0151832,8.44163726 L15.8657543,8.48134574 C15.7883695,8.50291486 15.7031059,8.51269255 15.6300724,8.48108319 C15.5894116,8.46348497 15.5603009,8.42640366 15.5403613,8.37679403 C15.4446463,8.13865595 15.4978455,7.75955902 15.6971779,7.21127907 C15.8119087,6.89570266 15.905619,6.62639002 15.9831214,6.39698204 L16,6.347 Z" id="Oval-Copy-2" stroke="#000000"></path>
        </g>
        <rect id="Rectangle" stroke="#000000" stroke-width="3" x="17.5" y="250.5" width="225" height="91" rx="8"></rect>
        <path d="M52.808,57 L52.808,56.352 C52.64,56.352 52.49,56.298 52.358,56.19 C52.226,56.082 52.16,55.92 52.16,55.704 L52.16,55.704 L52.16,48.936 L63.752,48.936 L63.752,55.704 C63.752,56.136 63.488,56.352 62.96,56.352 L62.96,56.352 L62.96,57 L68.504,57 L68.504,56.352 C68.336,56.352 68.186,56.298 68.054,56.19 C67.922,56.082 67.856,55.92 67.856,55.704 L67.856,55.704 L67.856,39.36 C67.856,39.144 67.922,38.982 68.054,38.874 C68.186,38.766 68.336,38.712 68.504,38.712 L68.504,38.712 L68.504,38.064 L62.96,38.064 L62.96,38.712 C63.488,38.712 63.752,38.928 63.752,39.36 L63.752,39.36 L63.752,45.48 L52.16,45.48 L52.16,39.36 C52.16,39.144 52.226,38.982 52.358,38.874 C52.49,38.766 52.64,38.712 52.808,38.712 L52.808,38.712 L52.808,38.064 L47.372,38.064 L47.372,38.712 C47.828,38.712 48.056,38.928 48.056,39.36 L48.056,39.36 L48.056,55.704 C48.056,56.136 47.828,56.352 47.372,56.352 L47.372,56.352 L47.372,57 L52.808,57 Z M89.78,57.396 L89.78,53.616 L89.132,53.616 C89.132,53.832 89.036,54.006 88.844,54.138 C88.652,54.27 88.412,54.336 88.124,54.336 L88.124,54.336 L78.908,54.336 L78.908,50.088 L84.164,50.088 C84.644,50.088 85.016,50.118 85.28,50.178 C85.544,50.238 85.64,50.4 85.568,50.664 L85.568,50.664 L86.288,50.664 L86.288,46.848 L85.64,46.848 C85.64,47.112 85.544,47.274 85.352,47.334 C85.16,47.394 84.86,47.424 84.452,47.424 L84.452,47.424 L78.908,47.424 L78.908,43.824 L87.692,43.824 C88.436,43.824 88.808,44.052 88.808,44.508 L88.808,44.508 L89.456,44.508 L89.456,40.512 L88.808,40.512 C88.808,40.944 88.436,41.16 87.692,41.16 L87.692,41.16 L74.912,41.16 L74.912,41.808 C75.032,41.808 75.152,41.85 75.272,41.934 C75.392,42.018 75.452,42.156 75.452,42.348 L75.452,42.348 L75.452,55.812 C75.452,56.004 75.392,56.142 75.272,56.226 C75.152,56.31 75.032,56.352 74.912,56.352 L74.912,56.352 L74.912,57 L88.124,57 C88.412,57 88.652,57.012 88.844,57.036 C89.036,57.06 89.132,57.18 89.132,57.396 L89.132,57.396 L89.78,57.396 Z M97.34,57 L97.34,56.352 C97.124,56.352 96.956,56.328 96.836,56.28 C96.716,56.232 96.656,56.112 96.656,55.92 C96.656,55.8 96.686,55.662 96.746,55.506 C96.806,55.35 96.884,55.176 96.98,54.984 L96.98,54.984 L97.988,53.04 L105.692,53.04 L106.664,55.092 C106.736,55.284 106.796,55.44 106.844,55.56 C106.892,55.68 106.916,55.812 106.916,55.956 C106.916,56.148 106.85,56.28 106.718,56.352 C106.586,56.424 106.46,56.46 106.34,56.46 L106.34,56.46 L106.34,57 L111.452,57 L111.452,56.352 C111.284,56.304 111.128,56.232 110.984,56.136 C110.84,56.04 110.708,55.884 110.588,55.668 L110.588,55.668 L104.756,43.428 C104.636,43.164 104.522,42.93 104.414,42.726 C104.306,42.522 104.252,42.348 104.252,42.204 C104.252,42.036 104.294,41.94 104.378,41.916 C104.462,41.892 104.54,41.856 104.612,41.808 L104.612,41.808 L104.612,41.16 L99.176,41.16 L99.176,41.808 C99.248,41.856 99.314,41.898 99.374,41.934 C99.434,41.97 99.464,42.06 99.464,42.204 C99.464,42.396 99.422,42.594 99.338,42.798 C99.254,43.002 99.14,43.272 98.996,43.608 L98.996,43.608 L93.632,55.308 C93.536,55.5 93.398,55.71 93.218,55.938 C93.038,56.166 92.804,56.304 92.516,56.352 L92.516,56.352 L92.516,57 L97.34,57 Z M104.54,50.376 L99.068,50.376 L101.624,44.328 L104.54,50.376 Z M124.556,57 C125.972,57 127.172,56.772 128.156,56.316 C129.14,55.86 129.944,55.266 130.568,54.534 C131.192,53.802 131.648,52.962 131.936,52.014 C132.224,51.066 132.368,50.088 132.368,49.08 C132.368,48.072 132.218,47.094 131.918,46.146 C131.618,45.198 131.15,44.358 130.514,43.626 C129.878,42.894 129.056,42.3 128.048,41.844 C127.04,41.388 125.828,41.16 124.412,41.16 L124.412,41.16 L114.404,41.16 L114.404,41.808 C114.956,41.808 115.232,41.988 115.232,42.348 L115.232,42.348 L115.232,55.812 C115.232,56.172 114.956,56.352 114.404,56.352 L114.404,56.352 L114.404,57 L124.556,57 Z M123.368,54.336 L118.688,54.336 L118.688,43.824 L123.368,43.824 C124.112,43.824 124.82,43.866 125.492,43.95 C126.164,44.034 126.752,44.25 127.256,44.598 C127.76,44.946 128.162,45.462 128.462,46.146 C128.762,46.83 128.912,47.772 128.912,48.972 C128.912,50.172 128.762,51.126 128.462,51.834 C128.162,52.542 127.76,53.082 127.256,53.454 C126.752,53.826 126.164,54.066 125.492,54.174 C124.82,54.282 124.112,54.336 123.368,54.336 L123.368,54.336 Z M139.352,57 L139.352,56.352 C139.136,56.352 138.968,56.328 138.848,56.28 C138.728,56.232 138.668,56.112 138.668,55.92 C138.668,55.8 138.698,55.662 138.758,55.506 C138.818,55.35 138.896,55.176 138.992,54.984 L138.992,54.984 L140,53.04 L147.704,53.04 L148.676,55.092 C148.748,55.284 148.808,55.44 148.856,55.56 C148.904,55.68 148.928,55.812 148.928,55.956 C148.928,56.148 148.862,56.28 148.73,56.352 C148.598,56.424 148.472,56.46 148.352,56.46 L148.352,56.46 L148.352,57 L153.464,57 L153.464,56.352 C153.296,56.304 153.14,56.232 152.996,56.136 C152.852,56.04 152.72,55.884 152.6,55.668 L152.6,55.668 L146.768,43.428 C146.648,43.164 146.534,42.93 146.426,42.726 C146.318,42.522 146.264,42.348 146.264,42.204 C146.264,42.036 146.306,41.94 146.39,41.916 C146.474,41.892 146.552,41.856 146.624,41.808 L146.624,41.808 L146.624,41.16 L141.188,41.16 L141.188,41.808 C141.26,41.856 141.326,41.898 141.386,41.934 C141.446,41.97 141.476,42.06 141.476,42.204 C141.476,42.396 141.434,42.594 141.35,42.798 C141.266,43.002 141.152,43.272 141.008,43.608 L141.008,43.608 L135.644,55.308 C135.548,55.5 135.41,55.71 135.23,55.938 C135.05,56.166 134.816,56.304 134.528,56.352 L134.528,56.352 L134.528,57 L139.352,57 Z M146.552,50.376 L141.08,50.376 L143.636,44.328 L146.552,50.376 Z M164.156,57.108 C165.236,57.108 166.214,57.012 167.09,56.82 C167.966,56.628 168.734,56.394 169.394,56.118 C170.054,55.842 170.6,55.596 171.032,55.38 C171.464,55.164 171.776,55.056 171.968,55.056 C172.088,55.056 172.292,55.116 172.58,55.236 L172.58,55.236 L172.94,55.056 L170.276,51.24 L169.88,51.6 C169.904,51.696 169.916,51.816 169.916,51.96 L169.916,51.96 L169.916,52.248 C169.916,52.464 169.742,52.704 169.394,52.968 C169.046,53.232 168.596,53.478 168.044,53.706 C167.492,53.934 166.88,54.132 166.208,54.3 C165.536,54.468 164.876,54.552 164.228,54.552 C163.532,54.552 162.848,54.426 162.176,54.174 C161.504,53.922 160.904,53.55 160.376,53.058 C159.848,52.566 159.422,51.978 159.098,51.294 C158.774,50.61 158.612,49.836 158.612,48.972 C158.612,48.108 158.756,47.34 159.044,46.668 C159.332,45.996 159.74,45.432 160.268,44.976 C160.796,44.52 161.414,44.178 162.122,43.95 C162.83,43.722 163.616,43.608 164.48,43.608 C165.2,43.608 165.86,43.674 166.46,43.806 C167.06,43.938 167.582,44.1 168.026,44.292 C168.47,44.484 168.812,44.682 169.052,44.886 C169.292,45.09 169.412,45.252 169.412,45.372 C169.412,45.444 169.418,45.504 169.43,45.552 C169.442,45.6 169.448,45.648 169.448,45.696 L169.448,45.696 L169.844,45.984 L172.22,42.564 L171.788,42.312 C171.692,42.36 171.602,42.42 171.518,42.492 C171.434,42.564 171.332,42.6 171.212,42.6 C171.044,42.6 170.768,42.516 170.384,42.348 C170,42.18 169.52,41.988 168.944,41.772 C168.368,41.556 167.702,41.364 166.946,41.196 C166.19,41.028 165.356,40.944 164.444,40.944 C163.268,40.944 162.122,41.112 161.006,41.448 C159.89,41.784 158.9,42.294 158.036,42.978 C157.172,43.662 156.476,44.508 155.948,45.516 C155.42,46.524 155.156,47.7 155.156,49.044 C155.156,50.388 155.42,51.57 155.948,52.59 C156.476,53.61 157.16,54.462 158,55.146 C158.84,55.83 159.8,56.328 160.88,56.64 C161.96,56.952 163.052,57.108 164.156,57.108 Z M181.724,57 L181.724,56.352 C181.58,56.352 181.454,56.31 181.346,56.226 C181.238,56.142 181.184,56.004 181.184,55.812 L181.184,55.812 L181.184,50.376 L190.832,50.376 L190.832,55.812 C190.832,56.004 190.778,56.142 190.67,56.226 C190.562,56.31 190.436,56.352 190.292,56.352 L190.292,56.352 L190.292,57 L194.828,57 L194.828,56.352 C194.684,56.352 194.558,56.31 194.45,56.226 C194.342,56.142 194.288,56.004 194.288,55.812 L194.288,55.812 L194.288,42.348 C194.288,42.156 194.342,42.018 194.45,41.934 C194.558,41.85 194.684,41.808 194.828,41.808 L194.828,41.808 L194.828,41.16 L190.292,41.16 L190.292,41.808 C190.436,41.808 190.562,41.85 190.67,41.934 C190.778,42.018 190.832,42.156 190.832,42.348 L190.832,42.348 L190.832,47.424 L181.184,47.424 L181.184,42.348 C181.184,42.156 181.238,42.018 181.346,41.934 C181.454,41.85 181.58,41.808 181.724,41.808 L181.724,41.808 L181.724,41.16 L177.188,41.16 L177.188,41.808 C177.332,41.808 177.458,41.85 177.566,41.934 C177.674,42.018 177.728,42.156 177.728,42.348 L177.728,42.348 L177.728,55.812 C177.728,56.004 177.674,56.142 177.566,56.226 C177.458,56.31 177.332,56.352 177.188,56.352 L177.188,56.352 L177.188,57 L181.724,57 Z M215.852,57.396 L215.852,53.616 L215.204,53.616 C215.204,53.832 215.108,54.006 214.916,54.138 C214.724,54.27 214.484,54.336 214.196,54.336 L214.196,54.336 L204.98,54.336 L204.98,50.088 L210.236,50.088 C210.716,50.088 211.088,50.118 211.352,50.178 C211.616,50.238 211.712,50.4 211.64,50.664 L211.64,50.664 L212.36,50.664 L212.36,46.848 L211.712,46.848 C211.712,47.112 211.616,47.274 211.424,47.334 C211.232,47.394 210.932,47.424 210.524,47.424 L210.524,47.424 L204.98,47.424 L204.98,43.824 L213.764,43.824 C214.508,43.824 214.88,44.052 214.88,44.508 L214.88,44.508 L215.528,44.508 L215.528,40.512 L214.88,40.512 C214.88,40.944 214.508,41.16 213.764,41.16 L213.764,41.16 L200.984,41.16 L200.984,41.808 C201.104,41.808 201.224,41.85 201.344,41.934 C201.464,42.018 201.524,42.156 201.524,42.348 L201.524,42.348 L201.524,55.812 C201.524,56.004 201.464,56.142 201.344,56.226 C201.224,56.31 201.104,56.352 200.984,56.352 L200.984,56.352 L200.984,57 L214.196,57 C214.484,57 214.724,57.012 214.916,57.036 C215.108,57.06 215.204,57.18 215.204,57.396 L215.204,57.396 L215.852,57.396 Z" id="Headache" fill="#000000" fill-rule="nonzero"></path>
        <path d="M44.491,272 L44.491,271.676 C44.179,271.676 44.023,271.568 44.023,271.352 L44.023,271.352 L44.023,263.18 C44.023,262.964 44.179,262.856 44.491,262.856 L44.491,262.856 L44.491,262.532 L41.503,262.532 L41.503,262.856 C41.815,262.856 41.971,262.964 41.971,263.18 L41.971,263.18 L41.971,271.352 C41.971,271.568 41.815,271.676 41.503,271.676 L41.503,271.676 L41.503,272 L44.491,272 Z M54.427,272.054 C54.895,272.054 55.33,272.021 55.732,271.955 C56.134,271.889 56.482,271.766 56.776,271.586 C57.07,271.406 57.301,271.166 57.469,270.866 C57.637,270.566 57.721,270.2 57.721,269.768 L57.721,269.768 L57.721,264.854 C57.721,264.722 57.775,264.614 57.883,264.53 C57.991,264.446 58.105,264.404 58.225,264.404 L58.225,264.404 L58.225,264.08 L55.543,264.08 L55.543,264.404 C55.627,264.404 55.723,264.446 55.831,264.53 C55.939,264.614 55.993,264.722 55.993,264.854 L55.993,264.854 L55.993,269.552 C55.993,270.044 55.864,270.371 55.606,270.533 C55.348,270.695 54.961,270.776 54.445,270.776 C54.001,270.776 53.608,270.713 53.266,270.587 C52.924,270.461 52.711,270.332 52.627,270.2 C52.567,270.128 52.534,270.041 52.528,269.939 C52.522,269.837 52.519,269.744 52.519,269.66 L52.519,269.66 L52.267,269.57 L51.421,271.64 L51.583,271.784 C51.643,271.724 51.697,271.673 51.745,271.631 C51.793,271.589 51.865,271.568 51.961,271.568 C52.069,271.568 52.207,271.595 52.375,271.649 C52.543,271.703 52.735,271.763 52.951,271.829 C53.167,271.895 53.401,271.949 53.653,271.991 C53.905,272.033 54.163,272.054 54.427,272.054 Z M65.551,272.054 C66.271,272.054 66.898,271.979 67.432,271.829 C67.966,271.679 68.404,271.472 68.746,271.208 C69.088,270.944 69.343,270.641 69.511,270.299 C69.679,269.957 69.763,269.6 69.763,269.228 L69.763,269.228 L69.763,264.674 C69.763,264.494 69.895,264.404 70.159,264.404 L70.159,264.404 L70.159,264.08 L67.657,264.08 L67.657,264.404 C67.957,264.404 68.107,264.494 68.107,264.674 L68.107,264.674 L68.107,268.796 C68.107,269.372 67.897,269.834 67.477,270.182 C67.057,270.53 66.415,270.704 65.551,270.704 C64.687,270.704 64.045,270.53 63.625,270.182 C63.205,269.834 62.995,269.372 62.995,268.796 L62.995,268.796 L62.995,264.674 C62.995,264.494 63.127,264.404 63.391,264.404 L63.391,264.404 L63.391,264.08 L60.817,264.08 L60.817,264.404 C61.021,264.404 61.159,264.425 61.231,264.467 C61.303,264.509 61.339,264.578 61.339,264.674 L61.339,264.674 L61.339,269.228 C61.339,269.6 61.423,269.957 61.591,270.299 C61.759,270.641 62.014,270.944 62.356,271.208 C62.698,271.472 63.136,271.679 63.67,271.829 C64.204,271.979 64.831,272.054 65.551,272.054 Z M76.351,272.054 C76.759,272.054 77.194,272.024 77.656,271.964 C78.118,271.904 78.541,271.778 78.925,271.586 C79.309,271.394 79.63,271.13 79.888,270.794 C80.146,270.458 80.275,270.026 80.275,269.498 C80.275,268.97 80.128,268.556 79.834,268.256 C79.54,267.956 79.171,267.728 78.727,267.572 C78.283,267.416 77.803,267.305 77.287,267.239 C76.771,267.173 76.291,267.107 75.847,267.041 C75.403,266.975 75.034,266.885 74.74,266.771 C74.446,266.657 74.299,266.468 74.299,266.204 C74.299,266.036 74.347,265.895 74.443,265.781 C74.539,265.667 74.671,265.574 74.839,265.502 C75.007,265.43 75.199,265.379 75.415,265.349 C75.631,265.319 75.859,265.304 76.099,265.304 C76.723,265.304 77.287,265.376 77.791,265.52 C78.295,265.664 78.667,265.838 78.907,266.042 C79.003,266.114 79.057,266.186 79.069,266.258 L79.069,266.258 L79.105,266.474 L79.429,266.582 L80.329,264.89 L80.131,264.692 C80.059,264.728 79.999,264.761 79.951,264.791 C79.903,264.821 79.831,264.836 79.735,264.836 C79.651,264.836 79.522,264.791 79.348,264.701 C79.174,264.611 78.949,264.512 78.673,264.404 C78.397,264.296 78.058,264.197 77.656,264.107 C77.254,264.017 76.771,263.972 76.207,263.972 C75.055,263.972 74.161,264.2 73.525,264.656 C72.889,265.112 72.571,265.724 72.571,266.492 C72.571,267.008 72.718,267.407 73.012,267.689 C73.306,267.971 73.675,268.187 74.119,268.337 C74.563,268.487 75.043,268.595 75.559,268.661 C76.075,268.727 76.555,268.793 76.999,268.859 C77.443,268.925 77.812,269.018 78.106,269.138 C78.4,269.258 78.547,269.45 78.547,269.714 C78.547,269.942 78.463,270.125 78.295,270.263 C78.127,270.401 77.923,270.509 77.683,270.587 C77.443,270.665 77.2,270.716 76.954,270.74 C76.708,270.764 76.501,270.776 76.333,270.776 C76.153,270.776 75.904,270.746 75.586,270.686 C75.268,270.626 74.95,270.545 74.632,270.443 C74.314,270.341 74.041,270.215 73.813,270.065 C73.585,269.915 73.471,269.75 73.471,269.57 C73.471,269.51 73.474,269.453 73.48,269.399 C73.486,269.345 73.489,269.294 73.489,269.246 L73.489,269.246 L73.147,269.156 L72.319,271.172 L72.571,271.352 C72.631,271.28 72.703,271.244 72.787,271.244 C72.835,271.244 72.973,271.289 73.201,271.379 C73.429,271.469 73.708,271.565 74.038,271.667 C74.368,271.769 74.734,271.859 75.136,271.937 C75.538,272.015 75.943,272.054 76.351,272.054 Z M87.187,272 L87.187,271.676 C86.971,271.676 86.863,271.586 86.863,271.406 L86.863,271.406 L86.863,265.412 L89.203,265.412 C89.299,265.412 89.389,265.436 89.473,265.484 C89.557,265.532 89.599,265.61 89.599,265.718 L89.599,265.718 L89.923,265.718 L89.923,263.648 L89.599,263.648 C89.599,263.816 89.557,263.93 89.473,263.99 C89.389,264.05 89.299,264.08 89.203,264.08 L89.203,264.08 L82.795,264.08 C82.699,264.08 82.609,264.05 82.525,263.99 C82.441,263.93 82.399,263.816 82.399,263.648 L82.399,263.648 L82.075,263.648 L82.075,265.718 L82.399,265.718 C82.399,265.61 82.441,265.532 82.525,265.484 C82.609,265.436 82.699,265.412 82.795,265.412 L82.795,265.412 L85.135,265.412 L85.135,271.406 C85.135,271.502 85.105,271.571 85.045,271.613 C84.985,271.655 84.925,271.676 84.865,271.676 L84.865,271.676 L84.865,272 L87.187,272 Z M99.661,272 L99.661,271.676 C99.409,271.676 99.283,271.586 99.283,271.406 L99.283,271.406 L99.283,266.168 L103.747,270.92 C103.891,271.076 104.02,271.214 104.134,271.334 C104.248,271.454 104.305,271.538 104.305,271.586 C104.305,271.646 104.263,271.676 104.179,271.676 L104.179,271.676 L104.179,272 L106.519,272 L106.519,271.676 C106.303,271.676 106.195,271.586 106.195,271.406 L106.195,271.406 L106.195,264.674 C106.195,264.494 106.303,264.404 106.519,264.404 L106.519,264.404 L106.519,264.08 L104.323,264.08 L104.323,264.404 C104.563,264.404 104.683,264.494 104.683,264.674 L104.683,264.674 L104.683,269.552 L100.363,264.98 C100.099,264.716 99.967,264.554 99.967,264.494 C99.967,264.446 100.009,264.416 100.093,264.404 L100.093,264.404 L100.093,264.08 L97.447,264.08 L97.447,264.404 C97.663,264.404 97.771,264.494 97.771,264.674 L97.771,264.674 L97.771,271.406 C97.771,271.586 97.663,271.676 97.447,271.676 L97.447,271.676 L97.447,272 L99.661,272 Z M116.905,272.198 L116.905,270.308 L116.581,270.308 C116.581,270.416 116.533,270.503 116.437,270.569 C116.341,270.635 116.221,270.668 116.077,270.668 L116.077,270.668 L111.469,270.668 L111.469,268.544 L114.097,268.544 C114.337,268.544 114.523,268.559 114.655,268.589 C114.787,268.619 114.835,268.7 114.799,268.832 L114.799,268.832 L115.159,268.832 L115.159,266.924 L114.835,266.924 C114.835,267.056 114.787,267.137 114.691,267.167 C114.595,267.197 114.445,267.212 114.241,267.212 L114.241,267.212 L111.469,267.212 L111.469,265.412 L115.861,265.412 C116.233,265.412 116.419,265.526 116.419,265.754 L116.419,265.754 L116.743,265.754 L116.743,263.756 L116.419,263.756 C116.419,263.972 116.233,264.08 115.861,264.08 L115.861,264.08 L109.471,264.08 L109.471,264.404 C109.531,264.404 109.591,264.425 109.651,264.467 C109.711,264.509 109.741,264.578 109.741,264.674 L109.741,264.674 L109.741,271.406 C109.741,271.502 109.711,271.571 109.651,271.613 C109.591,271.655 109.531,271.676 109.471,271.676 L109.471,271.676 L109.471,272 L116.077,272 C116.221,272 116.341,272.006 116.437,272.018 C116.533,272.03 116.581,272.09 116.581,272.198 L116.581,272.198 L116.905,272.198 Z M126.913,272.198 L126.913,270.308 L126.589,270.308 C126.589,270.416 126.541,270.503 126.445,270.569 C126.349,270.635 126.229,270.668 126.085,270.668 L126.085,270.668 L121.477,270.668 L121.477,268.544 L124.105,268.544 C124.345,268.544 124.531,268.559 124.663,268.589 C124.795,268.619 124.843,268.7 124.807,268.832 L124.807,268.832 L125.167,268.832 L125.167,266.924 L124.843,266.924 C124.843,267.056 124.795,267.137 124.699,267.167 C124.603,267.197 124.453,267.212 124.249,267.212 L124.249,267.212 L121.477,267.212 L121.477,265.412 L125.869,265.412 C126.241,265.412 126.427,265.526 126.427,265.754 L126.427,265.754 L126.751,265.754 L126.751,263.756 L126.427,263.756 C126.427,263.972 126.241,264.08 125.869,264.08 L125.869,264.08 L119.479,264.08 L119.479,264.404 C119.539,264.404 119.599,264.425 119.659,264.467 C119.719,264.509 119.749,264.578 119.749,264.674 L119.749,264.674 L119.749,271.406 C119.749,271.502 119.719,271.571 119.659,271.613 C119.599,271.655 119.539,271.676 119.479,271.676 L119.479,271.676 L119.479,272 L126.085,272 C126.229,272 126.349,272.006 126.445,272.018 C126.541,272.03 126.589,272.09 126.589,272.198 L126.589,272.198 L126.913,272.198 Z M134.293,272 C135.001,272 135.601,271.886 136.093,271.658 C136.585,271.43 136.987,271.133 137.299,270.767 C137.611,270.401 137.839,269.981 137.983,269.507 C138.127,269.033 138.199,268.544 138.199,268.04 C138.199,267.536 138.124,267.047 137.974,266.573 C137.824,266.099 137.59,265.679 137.272,265.313 C136.954,264.947 136.543,264.65 136.039,264.422 C135.535,264.194 134.929,264.08 134.221,264.08 L134.221,264.08 L129.217,264.08 L129.217,264.404 C129.493,264.404 129.631,264.494 129.631,264.674 L129.631,264.674 L129.631,271.406 C129.631,271.586 129.493,271.676 129.217,271.676 L129.217,271.676 L129.217,272 L134.293,272 Z M133.699,270.668 L131.359,270.668 L131.359,265.412 L133.699,265.412 C134.071,265.412 134.425,265.433 134.761,265.475 C135.097,265.517 135.391,265.625 135.643,265.799 C135.895,265.973 136.096,266.231 136.246,266.573 C136.396,266.915 136.471,267.386 136.471,267.986 C136.471,268.586 136.396,269.063 136.246,269.417 C136.096,269.771 135.895,270.041 135.643,270.227 C135.391,270.413 135.097,270.533 134.761,270.587 C134.425,270.641 134.071,270.668 133.699,270.668 L133.699,270.668 Z M150.187,272 L150.187,271.676 C149.971,271.676 149.863,271.586 149.863,271.406 L149.863,271.406 L149.863,265.412 L152.203,265.412 C152.299,265.412 152.389,265.436 152.473,265.484 C152.557,265.532 152.599,265.61 152.599,265.718 L152.599,265.718 L152.923,265.718 L152.923,263.648 L152.599,263.648 C152.599,263.816 152.557,263.93 152.473,263.99 C152.389,264.05 152.299,264.08 152.203,264.08 L152.203,264.08 L145.795,264.08 C145.699,264.08 145.609,264.05 145.525,263.99 C145.441,263.93 145.399,263.816 145.399,263.648 L145.399,263.648 L145.075,263.648 L145.075,265.718 L145.399,265.718 C145.399,265.61 145.441,265.532 145.525,265.484 C145.609,265.436 145.699,265.412 145.795,265.412 L145.795,265.412 L148.135,265.412 L148.135,271.406 C148.135,271.502 148.105,271.571 148.045,271.613 C147.985,271.655 147.925,271.676 147.865,271.676 L147.865,271.676 L147.865,272 L150.187,272 Z M158.989,272.054 C159.649,272.054 160.27,271.979 160.852,271.829 C161.434,271.679 161.941,271.436 162.373,271.1 C162.805,270.764 163.147,270.341 163.399,269.831 C163.651,269.321 163.777,268.724 163.777,268.04 C163.777,267.356 163.651,266.759 163.399,266.249 C163.147,265.739 162.805,265.316 162.373,264.98 C161.941,264.644 161.434,264.392 160.852,264.224 C160.27,264.056 159.649,263.972 158.989,263.972 C158.329,263.972 157.708,264.056 157.126,264.224 C156.544,264.392 156.037,264.644 155.605,264.98 C155.173,265.316 154.831,265.739 154.579,266.249 C154.327,266.759 154.201,267.356 154.201,268.04 C154.201,268.724 154.327,269.321 154.579,269.831 C154.831,270.341 155.173,270.764 155.605,271.1 C156.037,271.436 156.544,271.679 157.126,271.829 C157.708,271.979 158.329,272.054 158.989,272.054 Z M158.989,270.776 C158.605,270.776 158.23,270.713 157.864,270.587 C157.498,270.461 157.171,270.281 156.883,270.047 C156.595,269.813 156.364,269.528 156.19,269.192 C156.016,268.856 155.929,268.472 155.929,268.04 C155.929,267.608 156.016,267.224 156.19,266.888 C156.364,266.552 156.595,266.267 156.883,266.033 C157.171,265.799 157.498,265.619 157.864,265.493 C158.23,265.367 158.605,265.304 158.989,265.304 C159.373,265.304 159.748,265.367 160.114,265.493 C160.48,265.619 160.807,265.799 161.095,266.033 C161.383,266.267 161.614,266.552 161.788,266.888 C161.962,267.224 162.049,267.608 162.049,268.04 C162.049,268.472 161.962,268.856 161.788,269.192 C161.614,269.528 161.383,269.813 161.095,270.047 C160.807,270.281 160.48,270.461 160.114,270.587 C159.748,270.713 159.373,270.776 158.989,270.776 Z M176.269,272 C176.977,272 177.577,271.886 178.069,271.658 C178.561,271.43 178.963,271.133 179.275,270.767 C179.587,270.401 179.815,269.981 179.959,269.507 C180.103,269.033 180.175,268.544 180.175,268.04 C180.175,267.536 180.1,267.047 179.95,266.573 C179.8,266.099 179.566,265.679 179.248,265.313 C178.93,264.947 178.519,264.65 178.015,264.422 C177.511,264.194 176.905,264.08 176.197,264.08 L176.197,264.08 L171.193,264.08 L171.193,264.404 C171.469,264.404 171.607,264.494 171.607,264.674 L171.607,264.674 L171.607,271.406 C171.607,271.586 171.469,271.676 171.193,271.676 L171.193,271.676 L171.193,272 L176.269,272 Z M175.675,270.668 L173.335,270.668 L173.335,265.412 L175.675,265.412 C176.047,265.412 176.401,265.433 176.737,265.475 C177.073,265.517 177.367,265.625 177.619,265.799 C177.871,265.973 178.072,266.231 178.222,266.573 C178.372,266.915 178.447,267.386 178.447,267.986 C178.447,268.586 178.372,269.063 178.222,269.417 C178.072,269.771 177.871,270.041 177.619,270.227 C177.367,270.413 177.073,270.533 176.737,270.587 C176.401,270.641 176.047,270.668 175.675,270.668 L175.675,270.668 Z M184.783,272 L184.783,271.676 C184.711,271.676 184.636,271.655 184.558,271.613 C184.48,271.571 184.441,271.502 184.441,271.406 L184.441,271.406 L184.441,268.832 L186.943,268.832 L188.365,270.956 C188.545,271.208 188.635,271.394 188.635,271.514 C188.635,271.622 188.557,271.676 188.401,271.676 L188.401,271.676 L188.401,272 L191.155,272 L191.155,271.676 C191.023,271.64 190.9,271.589 190.786,271.523 C190.672,271.457 190.567,271.358 190.471,271.226 L190.471,271.226 L188.707,268.652 C188.959,268.592 189.205,268.505 189.445,268.391 C189.685,268.277 189.904,268.127 190.102,267.941 C190.3,267.755 190.459,267.536 190.579,267.284 C190.699,267.032 190.759,266.744 190.759,266.42 C190.759,265.568 190.459,264.965 189.859,264.611 C189.259,264.257 188.425,264.08 187.357,264.08 L187.357,264.08 L182.389,264.08 L182.389,264.404 C182.605,264.404 182.713,264.494 182.713,264.674 L182.713,264.674 L182.713,271.406 C182.713,271.586 182.605,271.676 182.389,271.676 L182.389,271.676 L182.389,272 L184.783,272 Z M187.321,267.5 L184.477,267.5 L184.477,265.412 L187.321,265.412 C187.933,265.412 188.38,265.499 188.662,265.673 C188.944,265.847 189.085,266.084 189.085,266.384 C189.085,267.128 188.497,267.5 187.321,267.5 L187.321,267.5 Z M196.339,272 L196.339,271.676 C196.003,271.676 195.835,271.586 195.835,271.406 L195.835,271.406 L195.835,264.674 C195.835,264.494 196.003,264.404 196.339,264.404 L196.339,264.404 L196.339,264.08 L193.603,264.08 L193.603,264.404 C193.795,264.404 193.927,264.425 193.999,264.467 C194.071,264.509 194.107,264.578 194.107,264.674 L194.107,264.674 L194.107,271.406 C194.107,271.502 194.071,271.571 193.999,271.613 C193.927,271.655 193.795,271.676 193.603,271.676 L193.603,271.676 L193.603,272 L196.339,272 Z M201.649,272 L201.649,271.676 C201.397,271.676 201.271,271.586 201.271,271.406 L201.271,271.406 L201.271,266.168 L205.735,270.92 C205.879,271.076 206.008,271.214 206.122,271.334 C206.236,271.454 206.293,271.538 206.293,271.586 C206.293,271.646 206.251,271.676 206.167,271.676 L206.167,271.676 L206.167,272 L208.507,272 L208.507,271.676 C208.291,271.676 208.183,271.586 208.183,271.406 L208.183,271.406 L208.183,264.674 C208.183,264.494 208.291,264.404 208.507,264.404 L208.507,264.404 L208.507,264.08 L206.311,264.08 L206.311,264.404 C206.551,264.404 206.671,264.494 206.671,264.674 L206.671,264.674 L206.671,269.552 L202.351,264.98 C202.087,264.716 201.955,264.554 201.955,264.494 C201.955,264.446 201.997,264.416 202.081,264.404 L202.081,264.404 L202.081,264.08 L199.435,264.08 L199.435,264.404 C199.651,264.404 199.759,264.494 199.759,264.674 L199.759,264.674 L199.759,271.406 C199.759,271.586 199.651,271.676 199.435,271.676 L199.435,271.676 L199.435,272 L201.649,272 Z M213.673,272 L213.673,271.676 C213.445,271.676 213.331,271.586 213.331,271.406 L213.331,271.406 L213.331,269.39 L214.735,268.274 L216.949,270.974 C217.105,271.154 217.21,271.286 217.264,271.37 C217.318,271.454 217.345,271.52 217.345,271.568 C217.345,271.64 217.279,271.676 217.147,271.676 L217.147,271.676 L217.147,272 L219.811,272 L219.811,271.676 C219.643,271.628 219.475,271.511 219.307,271.325 C219.139,271.139 218.983,270.956 218.839,270.776 L218.839,270.776 L215.995,267.248 L219.001,264.818 C219.289,264.59 219.505,264.452 219.649,264.404 L219.649,264.404 L219.649,264.08 L216.679,264.08 L216.679,264.35 C216.739,264.35 216.802,264.368 216.868,264.404 C216.934,264.44 216.967,264.488 216.967,264.548 C216.967,264.596 216.853,264.719 216.625,264.917 C216.397,265.115 216.109,265.358 215.761,265.646 C215.413,265.934 215.023,266.249 214.591,266.591 C214.159,266.933 213.739,267.272 213.331,267.608 L213.331,267.608 L213.331,264.674 C213.331,264.494 213.445,264.404 213.673,264.404 L213.673,264.404 L213.673,264.08 L211.315,264.08 L211.315,264.404 C211.507,264.404 211.603,264.494 211.603,264.674 L211.603,264.674 L211.603,271.406 C211.603,271.586 211.507,271.676 211.315,271.676 L211.315,271.676 L211.315,272 L213.673,272 Z M78.709,290 L78.709,289.676 C78.505,289.676 78.403,289.586 78.403,289.406 L78.403,289.406 L78.403,284.348 L78.421,284.348 L81.319,290 L81.463,290 L84.523,284.348 L84.559,284.348 L84.559,289.406 C84.595,289.586 84.487,289.676 84.235,289.676 L84.235,289.676 L84.235,290 L86.323,290 L86.323,289.676 C86.263,289.676 86.206,289.655 86.152,289.613 C86.098,289.571 86.071,289.502 86.071,289.406 L86.071,289.406 L86.071,282.638 C86.071,282.542 86.098,282.479 86.152,282.449 C86.206,282.419 86.263,282.404 86.323,282.404 L86.323,282.404 L86.323,282.08 L83.785,282.08 L83.785,282.404 C83.881,282.404 83.929,282.458 83.929,282.566 C83.929,282.602 83.905,282.665 83.857,282.755 C83.809,282.845 83.743,282.962 83.659,283.106 L83.659,283.106 L81.445,287.138 L79.249,283.088 C79.165,282.944 79.102,282.833 79.06,282.755 C79.018,282.677 78.997,282.614 78.997,282.566 C78.997,282.458 79.057,282.404 79.177,282.404 L79.177,282.404 L79.177,282.08 L76.675,282.08 L76.675,282.404 C76.759,282.404 76.816,282.422 76.846,282.458 C76.876,282.494 76.891,282.596 76.891,282.764 L76.891,282.764 L76.891,289.352 C76.891,289.484 76.87,289.568 76.828,289.604 C76.786,289.64 76.735,289.664 76.675,289.676 L76.675,289.676 L76.675,290 L78.709,290 Z M93.487,290.054 C94.147,290.054 94.768,289.979 95.35,289.829 C95.932,289.679 96.439,289.436 96.871,289.1 C97.303,288.764 97.645,288.341 97.897,287.831 C98.149,287.321 98.275,286.724 98.275,286.04 C98.275,285.356 98.149,284.759 97.897,284.249 C97.645,283.739 97.303,283.316 96.871,282.98 C96.439,282.644 95.932,282.392 95.35,282.224 C94.768,282.056 94.147,281.972 93.487,281.972 C92.827,281.972 92.206,282.056 91.624,282.224 C91.042,282.392 90.535,282.644 90.103,282.98 C89.671,283.316 89.329,283.739 89.077,284.249 C88.825,284.759 88.699,285.356 88.699,286.04 C88.699,286.724 88.825,287.321 89.077,287.831 C89.329,288.341 89.671,288.764 90.103,289.1 C90.535,289.436 91.042,289.679 91.624,289.829 C92.206,289.979 92.827,290.054 93.487,290.054 Z M93.487,288.776 C93.103,288.776 92.728,288.713 92.362,288.587 C91.996,288.461 91.669,288.281 91.381,288.047 C91.093,287.813 90.862,287.528 90.688,287.192 C90.514,286.856 90.427,286.472 90.427,286.04 C90.427,285.608 90.514,285.224 90.688,284.888 C90.862,284.552 91.093,284.267 91.381,284.033 C91.669,283.799 91.996,283.619 92.362,283.493 C92.728,283.367 93.103,283.304 93.487,283.304 C93.871,283.304 94.246,283.367 94.612,283.493 C94.978,283.619 95.305,283.799 95.593,284.033 C95.881,284.267 96.112,284.552 96.286,284.888 C96.46,285.224 96.547,285.608 96.547,286.04 C96.547,286.472 96.46,286.856 96.286,287.192 C96.112,287.528 95.881,287.813 95.593,288.047 C95.305,288.281 94.978,288.461 94.612,288.587 C94.246,288.713 93.871,288.776 93.487,288.776 Z M102.793,290 L102.793,289.676 C102.721,289.676 102.646,289.655 102.568,289.613 C102.49,289.571 102.451,289.502 102.451,289.406 L102.451,289.406 L102.451,286.832 L104.953,286.832 L106.375,288.956 C106.555,289.208 106.645,289.394 106.645,289.514 C106.645,289.622 106.567,289.676 106.411,289.676 L106.411,289.676 L106.411,290 L109.165,290 L109.165,289.676 C109.033,289.64 108.91,289.589 108.796,289.523 C108.682,289.457 108.577,289.358 108.481,289.226 L108.481,289.226 L106.717,286.652 C106.969,286.592 107.215,286.505 107.455,286.391 C107.695,286.277 107.914,286.127 108.112,285.941 C108.31,285.755 108.469,285.536 108.589,285.284 C108.709,285.032 108.769,284.744 108.769,284.42 C108.769,283.568 108.469,282.965 107.869,282.611 C107.269,282.257 106.435,282.08 105.367,282.08 L105.367,282.08 L100.399,282.08 L100.399,282.404 C100.615,282.404 100.723,282.494 100.723,282.674 L100.723,282.674 L100.723,289.406 C100.723,289.586 100.615,289.676 100.399,289.676 L100.399,289.676 L100.399,290 L102.793,290 Z M105.331,285.5 L102.487,285.5 L102.487,283.412 L105.331,283.412 C105.943,283.412 106.39,283.499 106.672,283.673 C106.954,283.847 107.095,284.084 107.095,284.384 C107.095,285.128 106.507,285.5 105.331,285.5 L105.331,285.5 Z M118.903,290.198 L118.903,288.308 L118.579,288.308 C118.579,288.416 118.531,288.503 118.435,288.569 C118.339,288.635 118.219,288.668 118.075,288.668 L118.075,288.668 L113.467,288.668 L113.467,286.544 L116.095,286.544 C116.335,286.544 116.521,286.559 116.653,286.589 C116.785,286.619 116.833,286.7 116.797,286.832 L116.797,286.832 L117.157,286.832 L117.157,284.924 L116.833,284.924 C116.833,285.056 116.785,285.137 116.689,285.167 C116.593,285.197 116.443,285.212 116.239,285.212 L116.239,285.212 L113.467,285.212 L113.467,283.412 L117.859,283.412 C118.231,283.412 118.417,283.526 118.417,283.754 L118.417,283.754 L118.741,283.754 L118.741,281.756 L118.417,281.756 C118.417,281.972 118.231,282.08 117.859,282.08 L117.859,282.08 L111.469,282.08 L111.469,282.404 C111.529,282.404 111.589,282.425 111.649,282.467 C111.709,282.509 111.739,282.578 111.739,282.674 L111.739,282.674 L111.739,289.406 C111.739,289.502 111.709,289.571 111.649,289.613 C111.589,289.655 111.529,289.676 111.469,289.676 L111.469,289.676 L111.469,290 L118.075,290 C118.219,290 118.339,290.006 118.435,290.018 C118.531,290.03 118.579,290.09 118.579,290.198 L118.579,290.198 L118.903,290.198 Z M130.729,290 L130.729,289.676 C130.621,289.676 130.549,289.658 130.513,289.622 C130.477,289.586 130.459,289.52 130.459,289.424 C130.459,289.388 130.504,289.253 130.594,289.019 C130.684,288.785 130.798,288.497 130.936,288.155 C131.074,287.813 131.224,287.441 131.386,287.039 C131.548,286.637 131.701,286.253 131.845,285.887 C131.989,285.521 132.115,285.197 132.223,284.915 C132.331,284.633 132.397,284.438 132.421,284.33 L132.421,284.33 L132.457,284.33 C132.649,284.93 132.847,285.524 133.051,286.112 C133.255,286.7 133.444,287.231 133.618,287.705 C133.792,288.179 133.933,288.572 134.041,288.884 C134.149,289.196 134.203,289.376 134.203,289.424 C134.203,289.52 134.191,289.583 134.167,289.613 C134.143,289.643 134.083,289.664 133.987,289.676 L133.987,289.676 L133.987,290 L136.507,290 L136.507,289.676 C136.339,289.676 136.255,289.598 136.255,289.442 C136.255,289.382 136.291,289.271 136.363,289.109 C136.435,288.947 136.507,288.764 136.579,288.56 L136.579,288.56 L138.649,283.07 C138.805,282.626 138.985,282.404 139.189,282.404 L139.189,282.404 L139.189,282.08 L136.903,282.08 L136.903,282.404 C137.095,282.404 137.191,282.488 137.191,282.656 C137.191,282.74 137.17,282.845 137.128,282.971 C137.086,283.097 137.035,283.244 136.975,283.412 L136.975,283.412 L135.301,287.786 L133.717,283.448 C133.657,283.304 133.597,283.151 133.537,282.989 C133.477,282.827 133.447,282.704 133.447,282.62 C133.447,282.476 133.555,282.404 133.771,282.404 L133.771,282.404 L133.771,282.08 L131.197,282.08 L131.197,282.404 C131.389,282.404 131.485,282.488 131.485,282.656 C131.485,282.752 131.458,282.875 131.404,283.025 C131.35,283.175 131.293,283.334 131.233,283.502 L131.233,283.502 L129.703,287.786 L129.667,287.786 L128.083,283.412 C128.011,283.22 127.951,283.061 127.903,282.935 C127.855,282.809 127.831,282.716 127.831,282.656 C127.831,282.488 127.909,282.404 128.065,282.404 L128.065,282.404 L128.065,282.08 L125.779,282.08 L125.779,282.404 C125.959,282.44 126.085,282.554 126.157,282.746 L126.157,282.746 L128.533,288.992 C128.557,289.052 128.59,289.139 128.632,289.253 C128.674,289.367 128.695,289.46 128.695,289.532 C128.695,289.604 128.677,289.646 128.641,289.658 C128.605,289.67 128.563,289.676 128.515,289.676 L128.515,289.676 L128.515,290 L130.729,290 Z M142.177,290 L142.177,289.676 C142.069,289.676 141.985,289.664 141.925,289.64 C141.865,289.616 141.835,289.556 141.835,289.46 C141.835,289.4 141.85,289.331 141.88,289.253 C141.91,289.175 141.949,289.088 141.997,288.992 L141.997,288.992 L142.501,288.02 L146.353,288.02 L146.839,289.046 C146.875,289.142 146.905,289.22 146.929,289.28 C146.953,289.34 146.965,289.406 146.965,289.478 C146.965,289.574 146.932,289.64 146.866,289.676 C146.8,289.712 146.737,289.73 146.677,289.73 L146.677,289.73 L146.677,290 L149.233,290 L149.233,289.676 C149.149,289.652 149.071,289.616 148.999,289.568 C148.927,289.52 148.861,289.442 148.801,289.334 L148.801,289.334 L145.885,283.214 C145.825,283.082 145.768,282.965 145.714,282.863 C145.66,282.761 145.633,282.674 145.633,282.602 C145.633,282.518 145.654,282.47 145.696,282.458 C145.738,282.446 145.777,282.428 145.813,282.404 L145.813,282.404 L145.813,282.08 L143.095,282.08 L143.095,282.404 C143.131,282.428 143.164,282.449 143.194,282.467 C143.224,282.485 143.239,282.53 143.239,282.602 C143.239,282.698 143.218,282.797 143.176,282.899 C143.134,283.001 143.077,283.136 143.005,283.304 L143.005,283.304 L140.323,289.154 C140.275,289.25 140.206,289.355 140.116,289.469 C140.026,289.583 139.909,289.652 139.765,289.676 L139.765,289.676 L139.765,290 L142.177,290 Z M145.777,286.688 L143.041,286.688 L144.319,283.664 L145.777,286.688 Z M155.191,290 L155.191,289.676 C154.975,289.676 154.867,289.586 154.867,289.406 L154.867,289.406 L154.867,283.412 L157.207,283.412 C157.303,283.412 157.393,283.436 157.477,283.484 C157.561,283.532 157.603,283.61 157.603,283.718 L157.603,283.718 L157.927,283.718 L157.927,281.648 L157.603,281.648 C157.603,281.816 157.561,281.93 157.477,281.99 C157.393,282.05 157.303,282.08 157.207,282.08 L157.207,282.08 L150.799,282.08 C150.703,282.08 150.613,282.05 150.529,281.99 C150.445,281.93 150.403,281.816 150.403,281.648 L150.403,281.648 L150.079,281.648 L150.079,283.718 L150.403,283.718 C150.403,283.61 150.445,283.532 150.529,283.484 C150.613,283.436 150.703,283.412 150.799,283.412 L150.799,283.412 L153.139,283.412 L153.139,289.406 C153.139,289.502 153.109,289.571 153.049,289.613 C152.989,289.655 152.929,289.676 152.869,289.676 L152.869,289.676 L152.869,290 L155.191,290 Z M167.413,290.198 L167.413,288.308 L167.089,288.308 C167.089,288.416 167.041,288.503 166.945,288.569 C166.849,288.635 166.729,288.668 166.585,288.668 L166.585,288.668 L161.977,288.668 L161.977,286.544 L164.605,286.544 C164.845,286.544 165.031,286.559 165.163,286.589 C165.295,286.619 165.343,286.7 165.307,286.832 L165.307,286.832 L165.667,286.832 L165.667,284.924 L165.343,284.924 C165.343,285.056 165.295,285.137 165.199,285.167 C165.103,285.197 164.953,285.212 164.749,285.212 L164.749,285.212 L161.977,285.212 L161.977,283.412 L166.369,283.412 C166.741,283.412 166.927,283.526 166.927,283.754 L166.927,283.754 L167.251,283.754 L167.251,281.756 L166.927,281.756 C166.927,281.972 166.741,282.08 166.369,282.08 L166.369,282.08 L159.979,282.08 L159.979,282.404 C160.039,282.404 160.099,282.425 160.159,282.467 C160.219,282.509 160.249,282.578 160.249,282.674 L160.249,282.674 L160.249,289.406 C160.249,289.502 160.219,289.571 160.159,289.613 C160.099,289.655 160.039,289.676 159.979,289.676 L159.979,289.676 L159.979,290 L166.585,290 C166.729,290 166.849,290.006 166.945,290.018 C167.041,290.03 167.089,290.09 167.089,290.198 L167.089,290.198 L167.413,290.198 Z M172.309,290 L172.309,289.676 C172.237,289.676 172.162,289.655 172.084,289.613 C172.006,289.571 171.967,289.502 171.967,289.406 L171.967,289.406 L171.967,286.832 L174.469,286.832 L175.891,288.956 C176.071,289.208 176.161,289.394 176.161,289.514 C176.161,289.622 176.083,289.676 175.927,289.676 L175.927,289.676 L175.927,290 L178.681,290 L178.681,289.676 C178.549,289.64 178.426,289.589 178.312,289.523 C178.198,289.457 178.093,289.358 177.997,289.226 L177.997,289.226 L176.233,286.652 C176.485,286.592 176.731,286.505 176.971,286.391 C177.211,286.277 177.43,286.127 177.628,285.941 C177.826,285.755 177.985,285.536 178.105,285.284 C178.225,285.032 178.285,284.744 178.285,284.42 C178.285,283.568 177.985,282.965 177.385,282.611 C176.785,282.257 175.951,282.08 174.883,282.08 L174.883,282.08 L169.915,282.08 L169.915,282.404 C170.131,282.404 170.239,282.494 170.239,282.674 L170.239,282.674 L170.239,289.406 C170.239,289.586 170.131,289.676 169.915,289.676 L169.915,289.676 L169.915,290 L172.309,290 Z M174.847,285.5 L172.003,285.5 L172.003,283.412 L174.847,283.412 C175.459,283.412 175.906,283.499 176.188,283.673 C176.47,283.847 176.611,284.084 176.611,284.384 C176.611,285.128 176.023,285.5 174.847,285.5 L174.847,285.5 Z M182.245,290.054 C182.593,290.054 182.893,289.937 183.145,289.703 C183.397,289.469 183.523,289.178 183.523,288.83 C183.523,288.482 183.397,288.182 183.145,287.93 C182.893,287.678 182.593,287.552 182.245,287.552 C181.897,287.552 181.597,287.678 181.345,287.93 C181.093,288.182 180.967,288.482 180.967,288.83 C180.967,289.178 181.093,289.469 181.345,289.703 C181.597,289.937 181.897,290.054 182.245,290.054 Z M57.19,308 L57.19,307.676 C56.962,307.676 56.848,307.61 56.848,307.478 C56.848,307.37 56.908,307.19 57.028,306.938 L57.028,306.938 L57.676,305.66 L62.068,305.66 L62.752,306.992 C62.848,307.184 62.896,307.34 62.896,307.46 C62.896,307.532 62.86,307.586 62.788,307.622 C62.716,307.658 62.656,307.676 62.608,307.676 L62.608,307.676 L62.608,308 L65.776,308 L65.776,307.676 C65.644,307.616 65.527,307.556 65.425,307.496 C65.323,307.436 65.242,307.34 65.182,307.208 L65.182,307.208 L61.438,299.882 C61.354,299.726 61.291,299.6 61.249,299.504 C61.207,299.408 61.186,299.312 61.186,299.216 C61.186,299.084 61.228,298.997 61.312,298.955 C61.396,298.913 61.48,298.88 61.564,298.856 L61.564,298.856 L61.564,298.532 L58.522,298.532 L58.522,298.856 C58.618,298.88 58.708,298.916 58.792,298.964 C58.876,299.012 58.918,299.096 58.918,299.216 C58.918,299.312 58.885,299.426 58.819,299.558 C58.753,299.69 58.678,299.834 58.594,299.99 L58.594,299.99 L55.264,306.992 C55.18,307.16 55.093,307.31 55.003,307.442 C54.913,307.574 54.79,307.652 54.634,307.676 L54.634,307.676 L54.634,308 L57.19,308 Z M61.42,304.328 L58.216,304.328 L59.908,300.98 L61.42,304.328 Z M72.544,308 C73.252,308 73.852,307.886 74.344,307.658 C74.836,307.43 75.238,307.133 75.55,306.767 C75.862,306.401 76.09,305.981 76.234,305.507 C76.378,305.033 76.45,304.544 76.45,304.04 C76.45,303.536 76.375,303.047 76.225,302.573 C76.075,302.099 75.841,301.679 75.523,301.313 C75.205,300.947 74.794,300.65 74.29,300.422 C73.786,300.194 73.18,300.08 72.472,300.08 L72.472,300.08 L67.468,300.08 L67.468,300.404 C67.744,300.404 67.882,300.494 67.882,300.674 L67.882,300.674 L67.882,307.406 C67.882,307.586 67.744,307.676 67.468,307.676 L67.468,307.676 L67.468,308 L72.544,308 Z M71.95,306.668 L69.61,306.668 L69.61,301.412 L71.95,301.412 C72.322,301.412 72.676,301.433 73.012,301.475 C73.348,301.517 73.642,301.625 73.894,301.799 C74.146,301.973 74.347,302.231 74.497,302.573 C74.647,302.915 74.722,303.386 74.722,303.986 C74.722,304.586 74.647,305.063 74.497,305.417 C74.347,305.771 74.146,306.041 73.894,306.227 C73.642,306.413 73.348,306.533 73.012,306.587 C72.676,306.641 72.322,306.668 71.95,306.668 L71.95,306.668 Z M83.542,308 C84.25,308 84.85,307.886 85.342,307.658 C85.834,307.43 86.236,307.133 86.548,306.767 C86.86,306.401 87.088,305.981 87.232,305.507 C87.376,305.033 87.448,304.544 87.448,304.04 C87.448,303.536 87.373,303.047 87.223,302.573 C87.073,302.099 86.839,301.679 86.521,301.313 C86.203,300.947 85.792,300.65 85.288,300.422 C84.784,300.194 84.178,300.08 83.47,300.08 L83.47,300.08 L78.466,300.08 L78.466,300.404 C78.742,300.404 78.88,300.494 78.88,300.674 L78.88,300.674 L78.88,307.406 C78.88,307.586 78.742,307.676 78.466,307.676 L78.466,307.676 L78.466,308 L83.542,308 Z M82.948,306.668 L80.608,306.668 L80.608,301.412 L82.948,301.412 C83.32,301.412 83.674,301.433 84.01,301.475 C84.346,301.517 84.64,301.625 84.892,301.799 C85.144,301.973 85.345,302.231 85.495,302.573 C85.645,302.915 85.72,303.386 85.72,303.986 C85.72,304.586 85.645,305.063 85.495,305.417 C85.345,305.771 85.144,306.041 84.892,306.227 C84.64,306.413 84.346,306.533 84.01,306.587 C83.674,306.641 83.32,306.668 82.948,306.668 L82.948,306.668 Z M99.436,308 L99.436,307.676 C99.22,307.676 99.112,307.586 99.112,307.406 L99.112,307.406 L99.112,301.412 L101.452,301.412 C101.548,301.412 101.638,301.436 101.722,301.484 C101.806,301.532 101.848,301.61 101.848,301.718 L101.848,301.718 L102.172,301.718 L102.172,299.648 L101.848,299.648 C101.848,299.816 101.806,299.93 101.722,299.99 C101.638,300.05 101.548,300.08 101.452,300.08 L101.452,300.08 L95.044,300.08 C94.948,300.08 94.858,300.05 94.774,299.99 C94.69,299.93 94.648,299.816 94.648,299.648 L94.648,299.648 L94.324,299.648 L94.324,301.718 L94.648,301.718 C94.648,301.61 94.69,301.532 94.774,301.484 C94.858,301.436 94.948,301.412 95.044,301.412 L95.044,301.412 L97.384,301.412 L97.384,307.406 C97.384,307.502 97.354,307.571 97.294,307.613 C97.234,307.655 97.174,307.676 97.114,307.676 L97.114,307.676 L97.114,308 L99.436,308 Z M106.6,308 L106.6,307.676 C106.528,307.676 106.465,307.655 106.411,307.613 C106.357,307.571 106.33,307.502 106.33,307.406 L106.33,307.406 L106.33,304.688 L111.154,304.688 L111.154,307.406 C111.154,307.502 111.127,307.571 111.073,307.613 C111.019,307.655 110.956,307.676 110.884,307.676 L110.884,307.676 L110.884,308 L113.152,308 L113.152,307.676 C113.08,307.676 113.017,307.655 112.963,307.613 C112.909,307.571 112.882,307.502 112.882,307.406 L112.882,307.406 L112.882,300.674 C112.882,300.578 112.909,300.509 112.963,300.467 C113.017,300.425 113.08,300.404 113.152,300.404 L113.152,300.404 L113.152,300.08 L110.884,300.08 L110.884,300.404 C110.956,300.404 111.019,300.425 111.073,300.467 C111.127,300.509 111.154,300.578 111.154,300.674 L111.154,300.674 L111.154,303.212 L106.33,303.212 L106.33,300.674 C106.33,300.578 106.357,300.509 106.411,300.467 C106.465,300.425 106.528,300.404 106.6,300.404 L106.6,300.404 L106.6,300.08 L104.332,300.08 L104.332,300.404 C104.404,300.404 104.467,300.425 104.521,300.467 C104.575,300.509 104.602,300.578 104.602,300.674 L104.602,300.674 L104.602,307.406 C104.602,307.502 104.575,307.571 104.521,307.613 C104.467,307.655 104.404,307.676 104.332,307.676 L104.332,307.676 L104.332,308 L106.6,308 Z M119.11,308 L119.11,307.676 C118.774,307.676 118.606,307.586 118.606,307.406 L118.606,307.406 L118.606,300.674 C118.606,300.494 118.774,300.404 119.11,300.404 L119.11,300.404 L119.11,300.08 L116.374,300.08 L116.374,300.404 C116.566,300.404 116.698,300.425 116.77,300.467 C116.842,300.509 116.878,300.578 116.878,300.674 L116.878,300.674 L116.878,307.406 C116.878,307.502 116.842,307.571 116.77,307.613 C116.698,307.655 116.566,307.676 116.374,307.676 L116.374,307.676 L116.374,308 L119.11,308 Z M125.608,308.054 C126.016,308.054 126.451,308.024 126.913,307.964 C127.375,307.904 127.798,307.778 128.182,307.586 C128.566,307.394 128.887,307.13 129.145,306.794 C129.403,306.458 129.532,306.026 129.532,305.498 C129.532,304.97 129.385,304.556 129.091,304.256 C128.797,303.956 128.428,303.728 127.984,303.572 C127.54,303.416 127.06,303.305 126.544,303.239 C126.028,303.173 125.548,303.107 125.104,303.041 C124.66,302.975 124.291,302.885 123.997,302.771 C123.703,302.657 123.556,302.468 123.556,302.204 C123.556,302.036 123.604,301.895 123.7,301.781 C123.796,301.667 123.928,301.574 124.096,301.502 C124.264,301.43 124.456,301.379 124.672,301.349 C124.888,301.319 125.116,301.304 125.356,301.304 C125.98,301.304 126.544,301.376 127.048,301.52 C127.552,301.664 127.924,301.838 128.164,302.042 C128.26,302.114 128.314,302.186 128.326,302.258 C128.338,302.33 128.35,302.402 128.362,302.474 L128.362,302.474 L128.686,302.582 L129.586,300.89 L129.388,300.692 C129.316,300.728 129.256,300.761 129.208,300.791 C129.16,300.821 129.088,300.836 128.992,300.836 C128.908,300.836 128.779,300.791 128.605,300.701 C128.431,300.611 128.206,300.512 127.93,300.404 C127.654,300.296 127.315,300.197 126.913,300.107 C126.511,300.017 126.028,299.972 125.464,299.972 C124.312,299.972 123.418,300.2 122.782,300.656 C122.146,301.112 121.828,301.724 121.828,302.492 C121.828,303.008 121.975,303.407 122.269,303.689 C122.563,303.971 122.932,304.187 123.376,304.337 C123.82,304.487 124.3,304.595 124.816,304.661 C125.332,304.727 125.812,304.793 126.256,304.859 C126.7,304.925 127.069,305.018 127.363,305.138 C127.657,305.258 127.804,305.45 127.804,305.714 C127.804,305.942 127.72,306.125 127.552,306.263 C127.384,306.401 127.18,306.509 126.94,306.587 C126.7,306.665 126.457,306.716 126.211,306.74 C125.965,306.764 125.758,306.776 125.59,306.776 C125.41,306.776 125.161,306.746 124.843,306.686 C124.525,306.626 124.207,306.545 123.889,306.443 C123.571,306.341 123.298,306.215 123.07,306.065 C122.842,305.915 122.728,305.75 122.728,305.57 C122.728,305.51 122.731,305.453 122.737,305.399 C122.743,305.345 122.746,305.294 122.746,305.246 L122.746,305.246 L122.404,305.156 L121.576,307.172 L121.828,307.352 C121.888,307.28 121.96,307.244 122.044,307.244 C122.092,307.244 122.23,307.289 122.458,307.379 C122.686,307.469 122.965,307.565 123.295,307.667 C123.625,307.769 123.991,307.859 124.393,307.937 C124.795,308.015 125.2,308.054 125.608,308.054 Z M141.934,308 L141.934,307.676 C141.718,307.676 141.61,307.586 141.61,307.406 L141.61,307.406 L141.61,301.412 L143.95,301.412 C144.046,301.412 144.136,301.436 144.22,301.484 C144.304,301.532 144.346,301.61 144.346,301.718 L144.346,301.718 L144.67,301.718 L144.67,299.648 L144.346,299.648 C144.346,299.816 144.304,299.93 144.22,299.99 C144.136,300.05 144.046,300.08 143.95,300.08 L143.95,300.08 L137.542,300.08 C137.446,300.08 137.356,300.05 137.272,299.99 C137.188,299.93 137.146,299.816 137.146,299.648 L137.146,299.648 L136.822,299.648 L136.822,301.718 L137.146,301.718 C137.146,301.61 137.188,301.532 137.272,301.484 C137.356,301.436 137.446,301.412 137.542,301.412 L137.542,301.412 L139.882,301.412 L139.882,307.406 C139.882,307.502 139.852,307.571 139.792,307.613 C139.732,307.655 139.672,307.676 139.612,307.676 L139.612,307.676 L139.612,308 L141.934,308 Z M150.736,308.054 C151.396,308.054 152.017,307.979 152.599,307.829 C153.181,307.679 153.688,307.436 154.12,307.1 C154.552,306.764 154.894,306.341 155.146,305.831 C155.398,305.321 155.524,304.724 155.524,304.04 C155.524,303.356 155.398,302.759 155.146,302.249 C154.894,301.739 154.552,301.316 154.12,300.98 C153.688,300.644 153.181,300.392 152.599,300.224 C152.017,300.056 151.396,299.972 150.736,299.972 C150.076,299.972 149.455,300.056 148.873,300.224 C148.291,300.392 147.784,300.644 147.352,300.98 C146.92,301.316 146.578,301.739 146.326,302.249 C146.074,302.759 145.948,303.356 145.948,304.04 C145.948,304.724 146.074,305.321 146.326,305.831 C146.578,306.341 146.92,306.764 147.352,307.1 C147.784,307.436 148.291,307.679 148.873,307.829 C149.455,307.979 150.076,308.054 150.736,308.054 Z M150.736,306.776 C150.352,306.776 149.977,306.713 149.611,306.587 C149.245,306.461 148.918,306.281 148.63,306.047 C148.342,305.813 148.111,305.528 147.937,305.192 C147.763,304.856 147.676,304.472 147.676,304.04 C147.676,303.608 147.763,303.224 147.937,302.888 C148.111,302.552 148.342,302.267 148.63,302.033 C148.918,301.799 149.245,301.619 149.611,301.493 C149.977,301.367 150.352,301.304 150.736,301.304 C151.12,301.304 151.495,301.367 151.861,301.493 C152.227,301.619 152.554,301.799 152.842,302.033 C153.13,302.267 153.361,302.552 153.535,302.888 C153.709,303.224 153.796,303.608 153.796,304.04 C153.796,304.472 153.709,304.856 153.535,305.192 C153.361,305.528 153.13,305.813 152.842,306.047 C152.554,306.281 152.227,306.461 151.861,306.587 C151.495,306.713 151.12,306.776 150.736,306.776 Z M167.944,308 L167.944,307.676 C167.716,307.676 167.602,307.586 167.602,307.406 L167.602,307.406 L167.602,304.706 L170.356,301.142 C170.488,300.974 170.641,300.809 170.815,300.647 C170.989,300.485 171.148,300.404 171.292,300.404 L171.292,300.404 L171.292,300.08 L168.538,300.08 L168.538,300.404 C168.598,300.404 168.658,300.416 168.718,300.44 C168.778,300.464 168.808,300.524 168.808,300.62 C168.808,300.692 168.781,300.767 168.727,300.845 C168.673,300.923 168.592,301.04 168.484,301.196 L168.484,301.196 L166.882,303.428 L165.064,301.052 C165.004,300.968 164.95,300.896 164.902,300.836 C164.854,300.776 164.83,300.71 164.83,300.638 C164.83,300.566 164.866,300.509 164.938,300.467 C165.01,300.425 165.076,300.404 165.136,300.404 L165.136,300.404 L165.136,300.08 L162.166,300.08 L162.166,300.404 C162.274,300.404 162.388,300.428 162.508,300.476 C162.628,300.524 162.73,300.602 162.814,300.71 L162.814,300.71 L165.874,304.634 L165.874,307.406 C165.874,307.586 165.766,307.676 165.55,307.676 L165.55,307.676 L165.55,308 L167.944,308 Z M177.232,308.054 C177.892,308.054 178.513,307.979 179.095,307.829 C179.677,307.679 180.184,307.436 180.616,307.1 C181.048,306.764 181.39,306.341 181.642,305.831 C181.894,305.321 182.02,304.724 182.02,304.04 C182.02,303.356 181.894,302.759 181.642,302.249 C181.39,301.739 181.048,301.316 180.616,300.98 C180.184,300.644 179.677,300.392 179.095,300.224 C178.513,300.056 177.892,299.972 177.232,299.972 C176.572,299.972 175.951,300.056 175.369,300.224 C174.787,300.392 174.28,300.644 173.848,300.98 C173.416,301.316 173.074,301.739 172.822,302.249 C172.57,302.759 172.444,303.356 172.444,304.04 C172.444,304.724 172.57,305.321 172.822,305.831 C173.074,306.341 173.416,306.764 173.848,307.1 C174.28,307.436 174.787,307.679 175.369,307.829 C175.951,307.979 176.572,308.054 177.232,308.054 Z M177.232,306.776 C176.848,306.776 176.473,306.713 176.107,306.587 C175.741,306.461 175.414,306.281 175.126,306.047 C174.838,305.813 174.607,305.528 174.433,305.192 C174.259,304.856 174.172,304.472 174.172,304.04 C174.172,303.608 174.259,303.224 174.433,302.888 C174.607,302.552 174.838,302.267 175.126,302.033 C175.414,301.799 175.741,301.619 176.107,301.493 C176.473,301.367 176.848,301.304 177.232,301.304 C177.616,301.304 177.991,301.367 178.357,301.493 C178.723,301.619 179.05,301.799 179.338,302.033 C179.626,302.267 179.857,302.552 180.031,302.888 C180.205,303.224 180.292,303.608 180.292,304.04 C180.292,304.472 180.205,304.856 180.031,305.192 C179.857,305.528 179.626,305.813 179.338,306.047 C179.05,306.281 178.723,306.461 178.357,306.587 C177.991,306.713 177.616,306.776 177.232,306.776 Z M188.806,308.054 C189.526,308.054 190.153,307.979 190.687,307.829 C191.221,307.679 191.659,307.472 192.001,307.208 C192.343,306.944 192.598,306.641 192.766,306.299 C192.934,305.957 193.018,305.6 193.018,305.228 L193.018,305.228 L193.018,300.674 C193.018,300.494 193.15,300.404 193.414,300.404 L193.414,300.404 L193.414,300.08 L190.912,300.08 L190.912,300.404 C191.212,300.404 191.362,300.494 191.362,300.674 L191.362,300.674 L191.362,304.796 C191.362,305.372 191.152,305.834 190.732,306.182 C190.312,306.53 189.67,306.704 188.806,306.704 C187.942,306.704 187.3,306.53 186.88,306.182 C186.46,305.834 186.25,305.372 186.25,304.796 L186.25,304.796 L186.25,300.674 C186.25,300.494 186.382,300.404 186.646,300.404 L186.646,300.404 L186.646,300.08 L184.072,300.08 L184.072,300.404 C184.276,300.404 184.414,300.425 184.486,300.467 C184.558,300.509 184.594,300.578 184.594,300.674 L184.594,300.674 L184.594,305.228 C184.594,305.6 184.678,305.957 184.846,306.299 C185.014,306.641 185.269,306.944 185.611,307.208 C185.953,307.472 186.391,307.679 186.925,307.829 C187.459,307.979 188.086,308.054 188.806,308.054 Z M198.544,308 L198.544,307.676 C198.472,307.676 198.397,307.655 198.319,307.613 C198.241,307.571 198.202,307.502 198.202,307.406 L198.202,307.406 L198.202,304.832 L200.704,304.832 L202.126,306.956 C202.306,307.208 202.396,307.394 202.396,307.514 C202.396,307.622 202.318,307.676 202.162,307.676 L202.162,307.676 L202.162,308 L204.916,308 L204.916,307.676 C204.784,307.64 204.661,307.589 204.547,307.523 C204.433,307.457 204.328,307.358 204.232,307.226 L204.232,307.226 L202.468,304.652 C202.72,304.592 202.966,304.505 203.206,304.391 C203.446,304.277 203.665,304.127 203.863,303.941 C204.061,303.755 204.22,303.536 204.34,303.284 C204.46,303.032 204.52,302.744 204.52,302.42 C204.52,301.568 204.22,300.965 203.62,300.611 C203.02,300.257 202.186,300.08 201.118,300.08 L201.118,300.08 L196.15,300.08 L196.15,300.404 C196.366,300.404 196.474,300.494 196.474,300.674 L196.474,300.674 L196.474,307.406 C196.474,307.586 196.366,307.676 196.15,307.676 L196.15,307.676 L196.15,308 L198.544,308 Z M201.082,303.5 L198.238,303.5 L198.238,301.412 L201.082,301.412 C201.694,301.412 202.141,301.499 202.423,301.673 C202.705,301.847 202.846,302.084 202.846,302.384 C202.846,303.128 202.258,303.5 201.082,303.5 L201.082,303.5 Z M73.354,326.054 C73.762,326.054 74.197,326.024 74.659,325.964 C75.121,325.904 75.544,325.778 75.928,325.586 C76.312,325.394 76.633,325.13 76.891,324.794 C77.149,324.458 77.278,324.026 77.278,323.498 C77.278,322.97 77.131,322.556 76.837,322.256 C76.543,321.956 76.174,321.728 75.73,321.572 C75.286,321.416 74.806,321.305 74.29,321.239 C73.774,321.173 73.294,321.107 72.85,321.041 C72.406,320.975 72.037,320.885 71.743,320.771 C71.449,320.657 71.302,320.468 71.302,320.204 C71.302,320.036 71.35,319.895 71.446,319.781 C71.542,319.667 71.674,319.574 71.842,319.502 C72.01,319.43 72.202,319.379 72.418,319.349 C72.634,319.319 72.862,319.304 73.102,319.304 C73.726,319.304 74.29,319.376 74.794,319.52 C75.298,319.664 75.67,319.838 75.91,320.042 C76.006,320.114 76.06,320.186 76.072,320.258 L76.072,320.258 L76.108,320.474 L76.432,320.582 L77.332,318.89 L77.134,318.692 C77.062,318.728 77.002,318.761 76.954,318.791 C76.906,318.821 76.834,318.836 76.738,318.836 C76.654,318.836 76.525,318.791 76.351,318.701 C76.177,318.611 75.952,318.512 75.676,318.404 C75.4,318.296 75.061,318.197 74.659,318.107 C74.257,318.017 73.774,317.972 73.21,317.972 C72.058,317.972 71.164,318.2 70.528,318.656 C69.892,319.112 69.574,319.724 69.574,320.492 C69.574,321.008 69.721,321.407 70.015,321.689 C70.309,321.971 70.678,322.187 71.122,322.337 C71.566,322.487 72.046,322.595 72.562,322.661 C73.078,322.727 73.558,322.793 74.002,322.859 C74.446,322.925 74.815,323.018 75.109,323.138 C75.403,323.258 75.55,323.45 75.55,323.714 C75.55,323.942 75.466,324.125 75.298,324.263 C75.13,324.401 74.926,324.509 74.686,324.587 C74.446,324.665 74.203,324.716 73.957,324.74 C73.711,324.764 73.504,324.776 73.336,324.776 C73.156,324.776 72.907,324.746 72.589,324.686 C72.271,324.626 71.953,324.545 71.635,324.443 C71.317,324.341 71.044,324.215 70.816,324.065 C70.588,323.915 70.474,323.75 70.474,323.57 C70.474,323.51 70.477,323.453 70.483,323.399 C70.489,323.345 70.492,323.294 70.492,323.246 L70.492,323.246 L70.15,323.156 L69.322,325.172 L69.574,325.352 C69.634,325.28 69.706,325.244 69.79,325.244 C69.838,325.244 69.976,325.289 70.204,325.379 C70.432,325.469 70.711,325.565 71.041,325.667 C71.371,325.769 71.737,325.859 72.139,325.937 C72.541,326.015 72.946,326.054 73.354,326.054 Z M84.712,326 L84.712,325.676 C84.484,325.676 84.37,325.586 84.37,325.406 L84.37,325.406 L84.37,322.706 L87.124,319.142 C87.256,318.974 87.409,318.809 87.583,318.647 C87.757,318.485 87.916,318.404 88.06,318.404 L88.06,318.404 L88.06,318.08 L85.306,318.08 L85.306,318.404 C85.366,318.404 85.426,318.416 85.486,318.44 C85.546,318.464 85.576,318.524 85.576,318.62 C85.576,318.692 85.549,318.767 85.495,318.845 C85.441,318.923 85.36,319.04 85.252,319.196 L85.252,319.196 L83.65,321.428 L81.832,319.052 C81.772,318.968 81.718,318.896 81.67,318.836 C81.622,318.776 81.598,318.71 81.598,318.638 C81.598,318.566 81.634,318.509 81.706,318.467 C81.778,318.425 81.844,318.404 81.904,318.404 L81.904,318.404 L81.904,318.08 L78.934,318.08 L78.934,318.404 C79.042,318.404 79.156,318.428 79.276,318.476 C79.396,318.524 79.498,318.602 79.582,318.71 L79.582,318.71 L82.642,322.634 L82.642,325.406 C82.642,325.586 82.534,325.676 82.318,325.676 L82.318,325.676 L82.318,326 L84.712,326 Z M92.218,326 L92.218,325.676 C92.014,325.676 91.912,325.586 91.912,325.406 L91.912,325.406 L91.912,320.348 L91.93,320.348 L94.828,326 L94.972,326 L98.032,320.348 L98.068,320.348 L98.068,325.406 C98.104,325.586 97.996,325.676 97.744,325.676 L97.744,325.676 L97.744,326 L99.832,326 L99.832,325.676 C99.772,325.676 99.715,325.655 99.661,325.613 C99.607,325.571 99.58,325.502 99.58,325.406 L99.58,325.406 L99.58,318.638 C99.58,318.542 99.607,318.479 99.661,318.449 C99.715,318.419 99.772,318.404 99.832,318.404 L99.832,318.404 L99.832,318.08 L97.294,318.08 L97.294,318.404 C97.39,318.404 97.438,318.458 97.438,318.566 C97.438,318.602 97.414,318.665 97.366,318.755 C97.318,318.845 97.252,318.962 97.168,319.106 L97.168,319.106 L94.954,323.138 L92.758,319.088 C92.674,318.944 92.611,318.833 92.569,318.755 C92.527,318.677 92.506,318.614 92.506,318.566 C92.506,318.458 92.566,318.404 92.686,318.404 L92.686,318.404 L92.686,318.08 L90.184,318.08 L90.184,318.404 C90.268,318.404 90.325,318.422 90.355,318.458 C90.385,318.494 90.4,318.596 90.4,318.764 L90.4,318.764 L90.4,325.352 C90.4,325.484 90.379,325.568 90.337,325.604 C90.295,325.64 90.244,325.664 90.184,325.676 L90.184,325.676 L90.184,326 L92.218,326 Z M105.268,326 L105.268,325.676 C105.016,325.676 104.89,325.586 104.89,325.406 L104.89,325.406 L104.89,322.706 L107.95,322.706 C108.922,322.706 109.651,322.541 110.137,322.211 C110.623,321.881 110.866,321.284 110.866,320.42 C110.866,319.556 110.623,318.95 110.137,318.602 C109.651,318.254 108.922,318.08 107.95,318.08 L107.95,318.08 L102.712,318.08 L102.712,318.404 C103.012,318.404 103.162,318.494 103.162,318.674 L103.162,318.674 L103.162,325.406 C103.162,325.586 103.012,325.676 102.712,325.676 L102.712,325.676 L102.712,326 L105.268,326 Z M107.914,321.374 L104.89,321.374 L104.89,319.412 L107.914,319.412 C108.262,319.412 108.553,319.487 108.787,319.637 C109.021,319.787 109.138,320.048 109.138,320.42 C109.138,320.804 109.021,321.059 108.787,321.185 C108.553,321.311 108.262,321.374 107.914,321.374 L107.914,321.374 Z M117.202,326 L117.202,325.676 C116.986,325.676 116.878,325.586 116.878,325.406 L116.878,325.406 L116.878,319.412 L119.218,319.412 C119.314,319.412 119.404,319.436 119.488,319.484 C119.572,319.532 119.614,319.61 119.614,319.718 L119.614,319.718 L119.938,319.718 L119.938,317.648 L119.614,317.648 C119.614,317.816 119.572,317.93 119.488,317.99 C119.404,318.05 119.314,318.08 119.218,318.08 L119.218,318.08 L112.81,318.08 C112.714,318.08 112.624,318.05 112.54,317.99 C112.456,317.93 112.414,317.816 112.414,317.648 L112.414,317.648 L112.09,317.648 L112.09,319.718 L112.414,319.718 C112.414,319.61 112.456,319.532 112.54,319.484 C112.624,319.436 112.714,319.412 112.81,319.412 L112.81,319.412 L115.15,319.412 L115.15,325.406 C115.15,325.502 115.12,325.571 115.06,325.613 C115,325.655 114.94,325.676 114.88,325.676 L114.88,325.676 L114.88,326 L117.202,326 Z M126.004,326.054 C126.664,326.054 127.285,325.979 127.867,325.829 C128.449,325.679 128.956,325.436 129.388,325.1 C129.82,324.764 130.162,324.341 130.414,323.831 C130.666,323.321 130.792,322.724 130.792,322.04 C130.792,321.356 130.666,320.759 130.414,320.249 C130.162,319.739 129.82,319.316 129.388,318.98 C128.956,318.644 128.449,318.392 127.867,318.224 C127.285,318.056 126.664,317.972 126.004,317.972 C125.344,317.972 124.723,318.056 124.141,318.224 C123.559,318.392 123.052,318.644 122.62,318.98 C122.188,319.316 121.846,319.739 121.594,320.249 C121.342,320.759 121.216,321.356 121.216,322.04 C121.216,322.724 121.342,323.321 121.594,323.831 C121.846,324.341 122.188,324.764 122.62,325.1 C123.052,325.436 123.559,325.679 124.141,325.829 C124.723,325.979 125.344,326.054 126.004,326.054 Z M126.004,324.776 C125.62,324.776 125.245,324.713 124.879,324.587 C124.513,324.461 124.186,324.281 123.898,324.047 C123.61,323.813 123.379,323.528 123.205,323.192 C123.031,322.856 122.944,322.472 122.944,322.04 C122.944,321.608 123.031,321.224 123.205,320.888 C123.379,320.552 123.61,320.267 123.898,320.033 C124.186,319.799 124.513,319.619 124.879,319.493 C125.245,319.367 125.62,319.304 126.004,319.304 C126.388,319.304 126.763,319.367 127.129,319.493 C127.495,319.619 127.822,319.799 128.11,320.033 C128.398,320.267 128.629,320.552 128.803,320.888 C128.977,321.224 129.064,321.608 129.064,322.04 C129.064,322.472 128.977,322.856 128.803,323.192 C128.629,323.528 128.398,323.813 128.11,324.047 C127.822,324.281 127.495,324.461 127.129,324.587 C126.763,324.713 126.388,324.776 126.004,324.776 Z M135.22,326 L135.22,325.676 C135.016,325.676 134.914,325.586 134.914,325.406 L134.914,325.406 L134.914,320.348 L134.932,320.348 L137.83,326 L137.974,326 L141.034,320.348 L141.07,320.348 L141.07,325.406 C141.106,325.586 140.998,325.676 140.746,325.676 L140.746,325.676 L140.746,326 L142.834,326 L142.834,325.676 C142.774,325.676 142.717,325.655 142.663,325.613 C142.609,325.571 142.582,325.502 142.582,325.406 L142.582,325.406 L142.582,318.638 C142.582,318.542 142.609,318.479 142.663,318.449 C142.717,318.419 142.774,318.404 142.834,318.404 L142.834,318.404 L142.834,318.08 L140.296,318.08 L140.296,318.404 C140.392,318.404 140.44,318.458 140.44,318.566 C140.44,318.602 140.416,318.665 140.368,318.755 C140.32,318.845 140.254,318.962 140.17,319.106 L140.17,319.106 L137.956,323.138 L135.76,319.088 C135.676,318.944 135.613,318.833 135.571,318.755 C135.529,318.677 135.508,318.614 135.508,318.566 C135.508,318.458 135.568,318.404 135.688,318.404 L135.688,318.404 L135.688,318.08 L133.186,318.08 L133.186,318.404 C133.27,318.404 133.327,318.422 133.357,318.458 C133.387,318.494 133.402,318.596 133.402,318.764 L133.402,318.764 L133.402,325.352 C133.402,325.484 133.381,325.568 133.339,325.604 C133.297,325.64 133.246,325.664 133.186,325.676 L133.186,325.676 L133.186,326 L135.22,326 Z M153.76,326 L153.76,325.676 C153.508,325.676 153.382,325.586 153.382,325.406 L153.382,325.406 L153.382,322.706 L156.442,322.706 C157.414,322.706 158.143,322.541 158.629,322.211 C159.115,321.881 159.358,321.284 159.358,320.42 C159.358,319.556 159.115,318.95 158.629,318.602 C158.143,318.254 157.414,318.08 156.442,318.08 L156.442,318.08 L151.204,318.08 L151.204,318.404 C151.504,318.404 151.654,318.494 151.654,318.674 L151.654,318.674 L151.654,325.406 C151.654,325.586 151.504,325.676 151.204,325.676 L151.204,325.676 L151.204,326 L153.76,326 Z M156.406,321.374 L153.382,321.374 L153.382,319.412 L156.406,319.412 C156.754,319.412 157.045,319.487 157.279,319.637 C157.513,319.787 157.63,320.048 157.63,320.42 C157.63,320.804 157.513,321.059 157.279,321.185 C157.045,321.311 156.754,321.374 156.406,321.374 L156.406,321.374 Z M164.362,326 L164.362,325.676 C164.026,325.676 163.858,325.586 163.858,325.406 L163.858,325.406 L163.858,318.674 C163.858,318.494 164.026,318.404 164.362,318.404 L164.362,318.404 L164.362,318.08 L161.626,318.08 L161.626,318.404 C161.818,318.404 161.95,318.425 162.022,318.467 C162.094,318.509 162.13,318.578 162.13,318.674 L162.13,318.674 L162.13,325.406 C162.13,325.502 162.094,325.571 162.022,325.613 C161.95,325.655 161.818,325.676 161.626,325.676 L161.626,325.676 L161.626,326 L164.362,326 Z M175.252,326.18 L175.252,324.29 L174.928,324.29 C174.928,324.41 174.88,324.503 174.784,324.569 C174.688,324.635 174.568,324.668 174.424,324.668 L174.424,324.668 L169.564,324.668 L169.564,318.674 C169.564,318.494 169.702,318.404 169.978,318.404 L169.978,318.404 L169.978,318.08 L167.368,318.08 L167.368,318.404 C167.68,318.404 167.836,318.494 167.836,318.674 L167.836,318.674 L167.836,325.406 C167.836,325.586 167.68,325.676 167.368,325.676 L167.368,325.676 L167.368,326 L174.424,326 C174.568,326 174.688,326.006 174.784,326.018 C174.88,326.03 174.928,326.084 174.928,326.18 L174.928,326.18 L175.252,326.18 Z M184.918,326.198 L184.918,324.308 L184.594,324.308 C184.594,324.416 184.546,324.503 184.45,324.569 C184.354,324.635 184.234,324.668 184.09,324.668 L184.09,324.668 L179.482,324.668 L179.482,322.544 L182.11,322.544 C182.35,322.544 182.536,322.559 182.668,322.589 C182.8,322.619 182.848,322.7 182.812,322.832 L182.812,322.832 L183.172,322.832 L183.172,320.924 L182.848,320.924 C182.848,321.056 182.8,321.137 182.704,321.167 C182.608,321.197 182.458,321.212 182.254,321.212 L182.254,321.212 L179.482,321.212 L179.482,319.412 L183.874,319.412 C184.246,319.412 184.432,319.526 184.432,319.754 L184.432,319.754 L184.756,319.754 L184.756,317.756 L184.432,317.756 C184.432,317.972 184.246,318.08 183.874,318.08 L183.874,318.08 L177.484,318.08 L177.484,318.404 C177.544,318.404 177.604,318.425 177.664,318.467 C177.724,318.509 177.754,318.578 177.754,318.674 L177.754,318.674 L177.754,325.406 C177.754,325.502 177.724,325.571 177.664,325.613 C177.604,325.655 177.544,325.676 177.484,325.676 L177.484,325.676 L177.484,326 L184.09,326 C184.234,326 184.354,326.006 184.45,326.018 C184.546,326.03 184.594,326.09 184.594,326.198 L184.594,326.198 L184.918,326.198 Z M188.752,326.054 C189.1,326.054 189.4,325.937 189.652,325.703 C189.904,325.469 190.03,325.178 190.03,324.83 C190.03,324.482 189.904,324.182 189.652,323.93 C189.4,323.678 189.1,323.552 188.752,323.552 C188.404,323.552 188.104,323.678 187.852,323.93 C187.6,324.182 187.474,324.482 187.474,324.83 C187.474,325.178 187.6,325.469 187.852,325.703 C188.104,325.937 188.404,326.054 188.752,326.054 Z" id="Ijustneedtodrinkmorewater.Addthistoyoursymptompile." fill="#000000" fill-rule="nonzero"></path>
    </g>
</svg>