<?xml version="1.0" encoding="UTF-8"?>
<svg width="262px" height="360px" viewBox="0 0 262 360" version="1.1" xmlns="http://www.w3.org/2000/svg" xmlns:xlink="http://www.w3.org/1999/xlink">
    <title>Tiredness 4</title>
    <g id="Tiredness-4" stroke="none" stroke-width="1" fill="none" fill-rule="evenodd">
        <g id="Group" transform="translate(9.000000, 9.000000)" fill="#FFFFFF" stroke="#000000" stroke-width="3">
            <g id="Rectangle">
                <rect x="1.5" y="1.5" width="239" height="337" rx="8"></rect>
            </g>
        </g>
        <path d="M219.82,30.312 L219.82,27.12 L219.532,27.12 C219.532,27.44 219.456,27.632 219.304,27.696 C219.152,27.76 218.988,27.792 218.812,27.792 L218.812,27.792 L210.892,27.792 L210.892,27.552 C211.324,27.152 211.824,26.824 212.392,26.568 C212.96,26.312 213.552,26.068 214.168,25.836 C214.784,25.604 215.388,25.368 215.98,25.128 C216.572,24.888 217.104,24.596 217.576,24.252 C218.048,23.908 218.428,23.488 218.716,22.992 C219.004,22.496 219.148,21.872 219.148,21.12 C219.148,20.416 219.008,19.82 218.728,19.332 C218.448,18.844 218.08,18.444 217.624,18.132 C217.168,17.82 216.648,17.592 216.064,17.448 C215.48,17.304 214.884,17.232 214.276,17.232 C213.348,17.232 212.548,17.352 211.876,17.592 C211.204,17.832 210.644,18.096 210.196,18.384 C209.748,18.672 209.396,18.936 209.14,19.176 C208.884,19.416 208.708,19.536 208.612,19.536 C208.532,19.536 208.46,19.52 208.396,19.488 L208.396,19.488 L208.204,19.392 L207.964,19.56 L210.436,22.2 L210.676,22.032 C210.612,21.984 210.56,21.896 210.52,21.768 C210.48,21.64 210.46,21.536 210.46,21.456 C210.46,21.12 210.592,20.82 210.856,20.556 C211.12,20.292 211.436,20.064 211.804,19.872 C212.172,19.68 212.556,19.536 212.956,19.44 C213.356,19.344 213.692,19.296 213.964,19.296 C214.236,19.296 214.516,19.32 214.804,19.368 C215.092,19.416 215.356,19.508 215.596,19.644 C215.836,19.78 216.032,19.956 216.184,20.172 C216.336,20.388 216.412,20.664 216.412,21 C216.412,21.496 216.2,21.928 215.776,22.296 C215.352,22.664 214.82,23.02 214.18,23.364 C213.54,23.708 212.852,24.056 212.116,24.408 C211.38,24.76 210.692,25.168 210.052,25.632 C209.412,26.096 208.88,26.632 208.456,27.24 C208.032,27.848 207.82,28.576 207.82,29.424 L207.82,29.424 L207.82,30.288 L208.108,30.288 C208.108,30.144 208.164,30.06 208.276,30.036 C208.388,30.012 208.532,30 208.708,30 L208.708,30 L218.812,30 C218.988,30 219.152,30.008 219.304,30.024 C219.456,30.04 219.532,30.136 219.532,30.312 L219.532,30.312 L219.82,30.312 Z" id="2" fill="#000000" fill-rule="nonzero"></path>
        <g id="Face" transform="translate(225.000000, 15.000000)">
            <circle id="Oval" stroke="#000000" fill="#FFFFFF" cx="9.5" cy="9.5" r="9"></circle>
            <circle id="Oval" fill="#000000" cx="5" cy="8" r="1"></circle>
            <circle id="Oval-Copy" fill="#000000" cx="12" cy="8" r="1"></circle>
            <line x1="12.0789474" y1="13.9090909" x2="14.5" y2="11.5" id="Line-4" stroke="#000000" stroke-linecap="round"></line>
            <path d="M3,5.89285714 C3.41025641,5.96428571 3.76923077,6 4.07692308,6 C4.38461538,6 5.35897436,5.33333333 7,4" id="Line-2" stroke="#000000"></path>
            <path d="M6,15 C6.96078431,14.3333333 8.07598039,14 9.34558824,14 C10.6151961,14 11.8333333,14.3333333 13,15" id="Line" stroke="#000000" stroke-linecap="round" stroke-linejoin="round"></path>
            <path d="M11.3197366,4.68245322 C11.585843,4.80663622 11.7912611,4.92388646 11.9359908,5.03420394 C12.548667,5.50120471 13.1333088,5.70898724 13.3155349,5.80010028 C13.5440857,5.91437569 13.8101922,6.00751295 14.1138542,6.07951204" id="Line-3" stroke="#000000" stroke-linecap="square" transform="translate(12.716795, 5.380983) rotate(-3.000000) translate(-12.716795, -5.380983) "></path>
            <path d="M2.999,9.347 L3.01687864,9.39698204 C3.09438102,9.62639002 3.1880913,9.89570266 3.30282211,10.2112791 C3.48139895,10.7024692 3.54804655,11.0169045 3.47980817,11.2204078 C3.41244402,11.421304 3.17143148,11.4011566 3.01518318,11.4416373 L3.01518318,11.4416373 L2.86575433,11.4813457 C2.78836954,11.5029149 2.70310591,11.5126925 2.63007237,11.4810832 C2.58941161,11.463485 2.56030088,11.4264037 2.54036126,11.376794 C2.4446463,11.1386559 2.49784548,10.759559 2.69717789,10.2112791 C2.8119087,9.89570266 2.90561898,9.62639002 2.98312136,9.39698204 L2.999,9.347 Z" id="Oval" stroke="#000000"></path>
            <path d="M16,6.347 L16.0168786,6.39698204 C16.094381,6.62639002 16.1880913,6.89570266 16.3028221,7.21127907 C16.481399,7.70246915 16.5480465,8.01690453 16.4798082,8.22040783 C16.412444,8.42130397 16.1714315,8.40115659 16.0151832,8.44163726 L16.0151832,8.44163726 L15.8657543,8.48134574 C15.7883695,8.50291486 15.7031059,8.51269255 15.6300724,8.48108319 C15.5894116,8.46348497 15.5603009,8.42640366 15.5403613,8.37679403 C15.4446463,8.13865595 15.4978455,7.75955902 15.6971779,7.21127907 C15.8119087,6.89570266 15.905619,6.62639002 15.9831214,6.39698204 L16,6.347 Z" id="Oval-Copy-2" stroke="#000000"></path>
        </g>
        <rect id="Rectangle" stroke="#000000" stroke-width="3" x="17.5" y="255.5" width="225" height="86" rx="8"></rect>
        <path d="M53.798,57 L53.798,56.352 C53.27,56.352 53.006,56.136 53.006,55.704 L53.006,55.704 L53.006,41.376 L58.946,41.376 C59.162,41.376 59.372,41.436 59.576,41.556 C59.78,41.676 59.882,41.904 59.882,42.24 L59.882,42.24 L60.53,42.24 L60.53,37.2 L59.882,37.2 C59.882,37.536 59.78,37.764 59.576,37.884 C59.372,38.004 59.162,38.064 58.946,38.064 L58.946,38.064 L42.962,38.064 C42.746,38.064 42.536,38.004 42.332,37.884 C42.128,37.764 42.026,37.536 42.026,37.2 L42.026,37.2 L41.378,37.2 L41.378,42.24 L42.026,42.24 C42.026,41.904 42.128,41.676 42.332,41.556 C42.536,41.436 42.746,41.376 42.962,41.376 L42.962,41.376 L48.902,41.376 L48.902,55.704 C48.902,55.92 48.836,56.082 48.704,56.19 C48.572,56.298 48.422,56.352 48.254,56.352 L48.254,56.352 L48.254,57 L53.798,57 Z M70.682,57 L70.682,56.352 C70.01,56.352 69.674,56.172 69.674,55.812 L69.674,55.812 L69.674,42.348 C69.674,41.988 70.01,41.808 70.682,41.808 L70.682,41.808 L70.682,41.16 L65.21,41.16 L65.21,41.808 C65.594,41.808 65.858,41.85 66.002,41.934 C66.146,42.018 66.218,42.156 66.218,42.348 L66.218,42.348 L66.218,55.812 C66.218,56.004 66.146,56.142 66.002,56.226 C65.858,56.31 65.594,56.352 65.21,56.352 L65.21,56.352 L65.21,57 L70.682,57 Z M81.554,57 L81.554,56.352 C81.41,56.352 81.26,56.31 81.104,56.226 C80.948,56.142 80.87,56.004 80.87,55.812 L80.87,55.812 L80.87,50.664 L85.874,50.664 L88.718,54.912 C89.078,55.416 89.258,55.788 89.258,56.028 C89.258,56.244 89.102,56.352 88.79,56.352 L88.79,56.352 L88.79,57 L94.298,57 L94.298,56.352 C94.034,56.28 93.788,56.178 93.56,56.046 C93.332,55.914 93.122,55.716 92.93,55.452 L92.93,55.452 L89.402,50.304 C89.906,50.184 90.398,50.01 90.878,49.782 C91.358,49.554 91.796,49.254 92.192,48.882 C92.588,48.51 92.906,48.072 93.146,47.568 C93.386,47.064 93.506,46.488 93.506,45.84 C93.506,44.136 92.906,42.93 91.706,42.222 C90.506,41.514 88.838,41.16 86.702,41.16 L86.702,41.16 L76.766,41.16 L76.766,41.808 C77.198,41.808 77.414,41.988 77.414,42.348 L77.414,42.348 L77.414,55.812 C77.414,56.172 77.198,56.352 76.766,56.352 L76.766,56.352 L76.766,57 L81.554,57 Z M86.63,48 L80.942,48 L80.942,43.824 L86.63,43.824 C87.854,43.824 88.748,43.998 89.312,44.346 C89.876,44.694 90.158,45.168 90.158,45.768 C90.158,47.256 88.982,48 86.63,48 L86.63,48 Z M113.774,57.396 L113.774,53.616 L113.126,53.616 C113.126,53.832 113.03,54.006 112.838,54.138 C112.646,54.27 112.406,54.336 112.118,54.336 L112.118,54.336 L102.902,54.336 L102.902,50.088 L108.158,50.088 C108.638,50.088 109.01,50.118 109.274,50.178 C109.538,50.238 109.634,50.4 109.562,50.664 L109.562,50.664 L110.282,50.664 L110.282,46.848 L109.634,46.848 C109.634,47.112 109.538,47.274 109.346,47.334 C109.154,47.394 108.854,47.424 108.446,47.424 L108.446,47.424 L102.902,47.424 L102.902,43.824 L111.686,43.824 C112.43,43.824 112.802,44.052 112.802,44.508 L112.802,44.508 L113.45,44.508 L113.45,40.512 L112.802,40.512 C112.802,40.944 112.43,41.16 111.686,41.16 L111.686,41.16 L98.906,41.16 L98.906,41.808 C99.026,41.808 99.146,41.85 99.266,41.934 C99.386,42.018 99.446,42.156 99.446,42.348 L99.446,42.348 L99.446,55.812 C99.446,56.004 99.386,56.142 99.266,56.226 C99.146,56.31 99.026,56.352 98.906,56.352 L98.906,56.352 L98.906,57 L112.118,57 C112.406,57 112.646,57.012 112.838,57.036 C113.03,57.06 113.126,57.18 113.126,57.396 L113.126,57.396 L113.774,57.396 Z M128.534,57 C129.95,57 131.15,56.772 132.134,56.316 C133.118,55.86 133.922,55.266 134.546,54.534 C135.17,53.802 135.626,52.962 135.914,52.014 C136.202,51.066 136.346,50.088 136.346,49.08 C136.346,48.072 136.196,47.094 135.896,46.146 C135.596,45.198 135.128,44.358 134.492,43.626 C133.856,42.894 133.034,42.3 132.026,41.844 C131.018,41.388 129.806,41.16 128.39,41.16 L128.39,41.16 L118.382,41.16 L118.382,41.808 C118.934,41.808 119.21,41.988 119.21,42.348 L119.21,42.348 L119.21,55.812 C119.21,56.172 118.934,56.352 118.382,56.352 L118.382,56.352 L118.382,57 L128.534,57 Z M127.346,54.336 L122.666,54.336 L122.666,43.824 L127.346,43.824 C128.09,43.824 128.798,43.866 129.47,43.95 C130.142,44.034 130.73,44.25 131.234,44.598 C131.738,44.946 132.14,45.462 132.44,46.146 C132.74,46.83 132.89,47.772 132.89,48.972 C132.89,50.172 132.74,51.126 132.44,51.834 C132.14,52.542 131.738,53.082 131.234,53.454 C130.73,53.826 130.142,54.066 129.47,54.174 C128.798,54.282 128.09,54.336 127.346,54.336 L127.346,54.336 Z M145.31,57 L145.31,56.352 C144.806,56.352 144.554,56.172 144.554,55.812 L144.554,55.812 L144.554,45.336 L153.482,54.84 C153.77,55.152 154.028,55.428 154.256,55.668 C154.484,55.908 154.598,56.076 154.598,56.172 C154.598,56.292 154.514,56.352 154.346,56.352 L154.346,56.352 L154.346,57 L159.026,57 L159.026,56.352 C158.594,56.352 158.378,56.172 158.378,55.812 L158.378,55.812 L158.378,42.348 C158.378,41.988 158.594,41.808 159.026,41.808 L159.026,41.808 L159.026,41.16 L154.634,41.16 L154.634,41.808 C155.114,41.808 155.354,41.988 155.354,42.348 L155.354,42.348 L155.354,52.104 L146.714,42.96 C146.186,42.432 145.922,42.108 145.922,41.988 C145.922,41.892 146.006,41.832 146.174,41.808 L146.174,41.808 L146.174,41.16 L140.882,41.16 L140.882,41.808 C141.314,41.808 141.53,41.988 141.53,42.348 L141.53,42.348 L141.53,55.812 C141.53,56.172 141.314,56.352 140.882,56.352 L140.882,56.352 L140.882,57 L145.31,57 Z M179.798,57.396 L179.798,53.616 L179.15,53.616 C179.15,53.832 179.054,54.006 178.862,54.138 C178.67,54.27 178.43,54.336 178.142,54.336 L178.142,54.336 L168.926,54.336 L168.926,50.088 L174.182,50.088 C174.662,50.088 175.034,50.118 175.298,50.178 C175.562,50.238 175.658,50.4 175.586,50.664 L175.586,50.664 L176.306,50.664 L176.306,46.848 L175.658,46.848 C175.658,47.112 175.562,47.274 175.37,47.334 C175.178,47.394 174.878,47.424 174.47,47.424 L174.47,47.424 L168.926,47.424 L168.926,43.824 L177.71,43.824 C178.454,43.824 178.826,44.052 178.826,44.508 L178.826,44.508 L179.474,44.508 L179.474,40.512 L178.826,40.512 C178.826,40.944 178.454,41.16 177.71,41.16 L177.71,41.16 L164.93,41.16 L164.93,41.808 C165.05,41.808 165.17,41.85 165.29,41.934 C165.41,42.018 165.47,42.156 165.47,42.348 L165.47,42.348 L165.47,55.812 C165.47,56.004 165.41,56.142 165.29,56.226 C165.17,56.31 165.05,56.352 164.93,56.352 L164.93,56.352 L164.93,57 L178.142,57 C178.43,57 178.67,57.012 178.862,57.036 C179.054,57.06 179.15,57.18 179.15,57.396 L179.15,57.396 L179.798,57.396 Z M191.714,57.108 C192.53,57.108 193.4,57.048 194.324,56.928 C195.248,56.808 196.094,56.556 196.862,56.172 C197.63,55.788 198.272,55.26 198.788,54.588 C199.304,53.916 199.562,53.052 199.562,51.996 C199.562,50.94 199.268,50.112 198.68,49.512 C198.092,48.912 197.354,48.456 196.466,48.144 C195.578,47.832 194.618,47.61 193.586,47.478 C192.554,47.346 191.594,47.214 190.706,47.082 C189.818,46.95 189.08,46.77 188.492,46.542 C187.904,46.314 187.61,45.936 187.61,45.408 C187.61,45.072 187.706,44.79 187.898,44.562 C188.09,44.334 188.354,44.148 188.69,44.004 C189.026,43.86 189.41,43.758 189.842,43.698 C190.274,43.638 190.73,43.608 191.21,43.608 C192.458,43.608 193.586,43.752 194.594,44.04 C195.602,44.328 196.346,44.676 196.826,45.084 C197.018,45.228 197.126,45.372 197.15,45.516 L197.15,45.516 L197.222,45.948 L197.87,46.164 L199.67,42.78 L199.274,42.384 C199.13,42.456 199.01,42.522 198.914,42.582 C198.818,42.642 198.674,42.672 198.482,42.672 C198.314,42.672 198.056,42.582 197.708,42.402 L197.5255,42.3105 C197.207167,42.1555 196.818,41.988 196.358,41.808 C195.806,41.592 195.128,41.394 194.324,41.214 C193.52,41.034 192.554,40.944 191.426,40.944 C189.122,40.944 187.334,41.4 186.062,42.312 C184.79,43.224 184.154,44.448 184.154,45.984 C184.154,47.016 184.448,47.814 185.036,48.378 C185.624,48.942 186.362,49.374 187.25,49.674 C188.138,49.974 189.098,50.19 190.13,50.322 C191.162,50.454 192.122,50.586 193.01,50.718 C193.898,50.85 194.636,51.036 195.224,51.276 C195.812,51.516 196.106,51.9 196.106,52.428 C196.106,52.884 195.938,53.25 195.602,53.526 C195.266,53.802 194.858,54.018 194.378,54.174 C193.898,54.33 193.412,54.432 192.92,54.48 C192.428,54.528 192.014,54.552 191.678,54.552 C191.318,54.552 190.82,54.492 190.184,54.372 C189.548,54.252 188.912,54.09 188.276,53.886 C187.64,53.682 187.094,53.43 186.638,53.13 C186.182,52.83 185.954,52.5 185.954,52.14 C185.954,52.02 185.96,51.906 185.972,51.798 C185.984,51.69 185.99,51.588 185.99,51.492 L185.99,51.492 L185.306,51.312 L183.65,55.344 L184.154,55.704 C184.274,55.56 184.418,55.488 184.586,55.488 C184.682,55.488 184.958,55.578 185.414,55.758 C185.87,55.938 186.428,56.13 187.088,56.334 C187.748,56.538 188.48,56.718 189.284,56.874 C190.088,57.03 190.898,57.108 191.714,57.108 Z M211.73,57.108 C212.546,57.108 213.416,57.048 214.34,56.928 C215.264,56.808 216.11,56.556 216.878,56.172 C217.646,55.788 218.288,55.26 218.804,54.588 C219.32,53.916 219.578,53.052 219.578,51.996 C219.578,50.94 219.284,50.112 218.696,49.512 C218.108,48.912 217.37,48.456 216.482,48.144 C215.594,47.832 214.634,47.61 213.602,47.478 C212.57,47.346 211.61,47.214 210.722,47.082 C209.834,46.95 209.096,46.77 208.508,46.542 C207.92,46.314 207.626,45.936 207.626,45.408 C207.626,45.072 207.722,44.79 207.914,44.562 C208.106,44.334 208.37,44.148 208.706,44.004 C209.042,43.86 209.426,43.758 209.858,43.698 C210.29,43.638 210.746,43.608 211.226,43.608 C212.474,43.608 213.602,43.752 214.61,44.04 C215.618,44.328 216.362,44.676 216.842,45.084 C217.034,45.228 217.142,45.372 217.166,45.516 L217.166,45.516 L217.238,45.948 L217.886,46.164 L219.686,42.78 L219.29,42.384 C219.146,42.456 219.026,42.522 218.93,42.582 C218.834,42.642 218.69,42.672 218.498,42.672 C218.33,42.672 218.072,42.582 217.724,42.402 L217.5415,42.3105 C217.223167,42.1555 216.834,41.988 216.374,41.808 C215.822,41.592 215.144,41.394 214.34,41.214 C213.536,41.034 212.57,40.944 211.442,40.944 C209.138,40.944 207.35,41.4 206.078,42.312 C204.806,43.224 204.17,44.448 204.17,45.984 C204.17,47.016 204.464,47.814 205.052,48.378 C205.64,48.942 206.378,49.374 207.266,49.674 C208.154,49.974 209.114,50.19 210.146,50.322 C211.178,50.454 212.138,50.586 213.026,50.718 C213.914,50.85 214.652,51.036 215.24,51.276 C215.828,51.516 216.122,51.9 216.122,52.428 C216.122,52.884 215.954,53.25 215.618,53.526 C215.282,53.802 214.874,54.018 214.394,54.174 C213.914,54.33 213.428,54.432 212.936,54.48 C212.444,54.528 212.03,54.552 211.694,54.552 C211.334,54.552 210.836,54.492 210.2,54.372 C209.564,54.252 208.928,54.09 208.292,53.886 C207.656,53.682 207.11,53.43 206.654,53.13 C206.198,52.83 205.97,52.5 205.97,52.14 C205.97,52.02 205.976,51.906 205.988,51.798 C206,51.69 206.006,51.588 206.006,51.492 L206.006,51.492 L205.322,51.312 L203.666,55.344 L204.17,55.704 C204.29,55.56 204.434,55.488 204.602,55.488 C204.698,55.488 204.974,55.578 205.43,55.758 C205.886,55.938 206.444,56.13 207.104,56.334 C207.764,56.538 208.496,56.718 209.3,56.874 C210.104,57.03 210.914,57.108 211.73,57.108 Z" id="Tiredness" fill="#000000" fill-rule="nonzero"></path>
        <path d="M41.666,274 L41.666,273.676 C41.582,273.676 41.507,273.649 41.441,273.595 C41.375,273.541 41.342,273.46 41.342,273.352 L41.342,273.352 L41.342,269.968 L47.138,269.968 L47.138,273.352 C47.138,273.568 47.006,273.676 46.742,273.676 L46.742,273.676 L46.742,274 L49.514,274 L49.514,273.676 C49.43,273.676 49.355,273.649 49.289,273.595 C49.223,273.541 49.19,273.46 49.19,273.352 L49.19,273.352 L49.19,265.18 C49.19,265.072 49.223,264.991 49.289,264.937 C49.355,264.883 49.43,264.856 49.514,264.856 L49.514,264.856 L49.514,264.532 L46.742,264.532 L46.742,264.856 C47.006,264.856 47.138,264.964 47.138,265.18 L47.138,265.18 L47.138,268.24 L41.342,268.24 L41.342,265.18 C41.342,265.072 41.375,264.991 41.441,264.937 C41.507,264.883 41.582,264.856 41.666,264.856 L41.666,264.856 L41.666,264.532 L38.948,264.532 L38.948,264.856 C39.176,264.856 39.29,264.964 39.29,265.18 L39.29,265.18 L39.29,273.352 C39.29,273.568 39.176,273.676 38.948,273.676 L38.948,273.676 L38.948,274 L41.666,274 Z M60.152,274.198 L60.152,272.308 L59.828,272.308 C59.828,272.416 59.78,272.503 59.684,272.569 C59.588,272.635 59.468,272.668 59.324,272.668 L59.324,272.668 L54.716,272.668 L54.716,270.544 L57.344,270.544 C57.584,270.544 57.77,270.559 57.902,270.589 C58.034,270.619 58.082,270.7 58.046,270.832 L58.046,270.832 L58.406,270.832 L58.406,268.924 L58.082,268.924 C58.082,269.056 58.034,269.137 57.938,269.167 C57.842,269.197 57.692,269.212 57.488,269.212 L57.488,269.212 L54.716,269.212 L54.716,267.412 L59.108,267.412 C59.48,267.412 59.666,267.526 59.666,267.754 L59.666,267.754 L59.99,267.754 L59.99,265.756 L59.666,265.756 C59.666,265.972 59.48,266.08 59.108,266.08 L59.108,266.08 L52.718,266.08 L52.718,266.404 C52.778,266.404 52.838,266.425 52.898,266.467 C52.958,266.509 52.988,266.578 52.988,266.674 L52.988,266.674 L52.988,273.406 C52.988,273.502 52.958,273.571 52.898,273.613 C52.838,273.655 52.778,273.676 52.718,273.676 L52.718,273.676 L52.718,274 L59.324,274 C59.468,274 59.588,274.006 59.684,274.018 C59.78,274.03 59.828,274.09 59.828,274.198 L59.828,274.198 L60.152,274.198 Z M70.502,274.18 L70.502,272.29 L70.178,272.29 C70.178,272.41 70.13,272.503 70.034,272.569 C69.938,272.635 69.818,272.668 69.674,272.668 L69.674,272.668 L64.814,272.668 L64.814,266.674 C64.814,266.494 64.952,266.404 65.228,266.404 L65.228,266.404 L65.228,266.08 L62.618,266.08 L62.618,266.404 C62.93,266.404 63.086,266.494 63.086,266.674 L63.086,266.674 L63.086,273.406 C63.086,273.586 62.93,273.676 62.618,273.676 L62.618,273.676 L62.618,274 L69.674,274 C69.818,274 69.938,274.006 70.034,274.018 C70.13,274.03 70.178,274.084 70.178,274.18 L70.178,274.18 L70.502,274.18 Z M80.51,274.18 L80.51,272.29 L80.186,272.29 C80.186,272.41 80.138,272.503 80.042,272.569 C79.946,272.635 79.826,272.668 79.682,272.668 L79.682,272.668 L74.822,272.668 L74.822,266.674 C74.822,266.494 74.96,266.404 75.236,266.404 L75.236,266.404 L75.236,266.08 L72.626,266.08 L72.626,266.404 C72.938,266.404 73.094,266.494 73.094,266.674 L73.094,266.674 L73.094,273.406 C73.094,273.586 72.938,273.676 72.626,273.676 L72.626,273.676 L72.626,274 L79.682,274 C79.826,274 79.946,274.006 80.042,274.018 C80.138,274.03 80.186,274.084 80.186,274.18 L80.186,274.18 L80.51,274.18 Z M86.756,274.054 C87.416,274.054 88.037,273.979 88.619,273.829 C89.201,273.679 89.708,273.436 90.14,273.1 C90.572,272.764 90.914,272.341 91.166,271.831 C91.418,271.321 91.544,270.724 91.544,270.04 C91.544,269.356 91.418,268.759 91.166,268.249 C90.914,267.739 90.572,267.316 90.14,266.98 C89.708,266.644 89.201,266.392 88.619,266.224 C88.037,266.056 87.416,265.972 86.756,265.972 C86.096,265.972 85.475,266.056 84.893,266.224 C84.311,266.392 83.804,266.644 83.372,266.98 C82.94,267.316 82.598,267.739 82.346,268.249 C82.094,268.759 81.968,269.356 81.968,270.04 C81.968,270.724 82.094,271.321 82.346,271.831 C82.598,272.341 82.94,272.764 83.372,273.1 C83.804,273.436 84.311,273.679 84.893,273.829 C85.475,273.979 86.096,274.054 86.756,274.054 Z M86.756,272.776 C86.372,272.776 85.997,272.713 85.631,272.587 C85.265,272.461 84.938,272.281 84.65,272.047 C84.362,271.813 84.131,271.528 83.957,271.192 C83.783,270.856 83.696,270.472 83.696,270.04 C83.696,269.608 83.783,269.224 83.957,268.888 C84.131,268.552 84.362,268.267 84.65,268.033 C84.938,267.799 85.265,267.619 85.631,267.493 C85.997,267.367 86.372,267.304 86.756,267.304 C87.14,267.304 87.515,267.367 87.881,267.493 C88.247,267.619 88.574,267.799 88.862,268.033 C89.15,268.267 89.381,268.552 89.555,268.888 C89.729,269.224 89.816,269.608 89.816,270.04 C89.816,270.472 89.729,270.856 89.555,271.192 C89.381,271.528 89.15,271.813 88.862,272.047 C88.574,272.281 88.247,272.461 87.881,272.587 C87.515,272.713 87.14,272.776 86.756,272.776 Z M101.516,274 L101.516,273.676 C101.264,273.676 101.138,273.586 101.138,273.406 L101.138,273.406 L101.138,270.706 L104.198,270.706 C105.17,270.706 105.899,270.541 106.385,270.211 C106.871,269.881 107.114,269.284 107.114,268.42 C107.114,267.556 106.871,266.95 106.385,266.602 C105.899,266.254 105.17,266.08 104.198,266.08 L104.198,266.08 L98.96,266.08 L98.96,266.404 C99.26,266.404 99.41,266.494 99.41,266.674 L99.41,266.674 L99.41,273.406 C99.41,273.586 99.26,273.676 98.96,273.676 L98.96,273.676 L98.96,274 L101.516,274 Z M104.162,269.374 L101.138,269.374 L101.138,267.412 L104.162,267.412 C104.51,267.412 104.801,267.487 105.035,267.637 C105.269,267.787 105.386,268.048 105.386,268.42 C105.386,268.804 105.269,269.059 105.035,269.185 C104.801,269.311 104.51,269.374 104.162,269.374 L104.162,269.374 Z M112.118,274 L112.118,273.676 C111.782,273.676 111.614,273.586 111.614,273.406 L111.614,273.406 L111.614,266.674 C111.614,266.494 111.782,266.404 112.118,266.404 L112.118,266.404 L112.118,266.08 L109.382,266.08 L109.382,266.404 C109.574,266.404 109.706,266.425 109.778,266.467 C109.85,266.509 109.886,266.578 109.886,266.674 L109.886,266.674 L109.886,273.406 C109.886,273.502 109.85,273.571 109.778,273.613 C109.706,273.655 109.574,273.676 109.382,273.676 L109.382,273.676 L109.382,274 L112.118,274 Z M123.008,274.18 L123.008,272.29 L122.684,272.29 C122.684,272.41 122.636,272.503 122.54,272.569 C122.444,272.635 122.324,272.668 122.18,272.668 L122.18,272.668 L117.32,272.668 L117.32,266.674 C117.32,266.494 117.458,266.404 117.734,266.404 L117.734,266.404 L117.734,266.08 L115.124,266.08 L115.124,266.404 C115.436,266.404 115.592,266.494 115.592,266.674 L115.592,266.674 L115.592,273.406 C115.592,273.586 115.436,273.676 115.124,273.676 L115.124,273.676 L115.124,274 L122.18,274 C122.324,274 122.444,274.006 122.54,274.018 C122.636,274.03 122.684,274.084 122.684,274.18 L122.684,274.18 L123.008,274.18 Z M133.016,274.18 L133.016,272.29 L132.692,272.29 C132.692,272.41 132.644,272.503 132.548,272.569 C132.452,272.635 132.332,272.668 132.188,272.668 L132.188,272.668 L127.328,272.668 L127.328,266.674 C127.328,266.494 127.466,266.404 127.742,266.404 L127.742,266.404 L127.742,266.08 L125.132,266.08 L125.132,266.404 C125.444,266.404 125.6,266.494 125.6,266.674 L125.6,266.674 L125.6,273.406 C125.6,273.586 125.444,273.676 125.132,273.676 L125.132,273.676 L125.132,274 L132.188,274 C132.332,274 132.452,274.006 132.548,274.018 C132.644,274.03 132.692,274.084 132.692,274.18 L132.692,274.18 L133.016,274.18 Z M139.262,274.054 C139.922,274.054 140.543,273.979 141.125,273.829 C141.707,273.679 142.214,273.436 142.646,273.1 C143.078,272.764 143.42,272.341 143.672,271.831 C143.924,271.321 144.05,270.724 144.05,270.04 C144.05,269.356 143.924,268.759 143.672,268.249 C143.42,267.739 143.078,267.316 142.646,266.98 C142.214,266.644 141.707,266.392 141.125,266.224 C140.543,266.056 139.922,265.972 139.262,265.972 C138.602,265.972 137.981,266.056 137.399,266.224 C136.817,266.392 136.31,266.644 135.878,266.98 C135.446,267.316 135.104,267.739 134.852,268.249 C134.6,268.759 134.474,269.356 134.474,270.04 C134.474,270.724 134.6,271.321 134.852,271.831 C135.104,272.341 135.446,272.764 135.878,273.1 C136.31,273.436 136.817,273.679 137.399,273.829 C137.981,273.979 138.602,274.054 139.262,274.054 Z M139.262,272.776 C138.878,272.776 138.503,272.713 138.137,272.587 C137.771,272.461 137.444,272.281 137.156,272.047 C136.868,271.813 136.637,271.528 136.463,271.192 C136.289,270.856 136.202,270.472 136.202,270.04 C136.202,269.608 136.289,269.224 136.463,268.888 C136.637,268.552 136.868,268.267 137.156,268.033 C137.444,267.799 137.771,267.619 138.137,267.493 C138.503,267.367 138.878,267.304 139.262,267.304 C139.646,267.304 140.021,267.367 140.387,267.493 C140.753,267.619 141.08,267.799 141.368,268.033 C141.656,268.267 141.887,268.552 142.061,268.888 C142.235,269.224 142.322,269.608 142.322,270.04 C142.322,270.472 142.235,270.856 142.061,271.192 C141.887,271.528 141.656,271.813 141.368,272.047 C141.08,272.281 140.753,272.461 140.387,272.587 C140.021,272.713 139.646,272.776 139.262,272.776 Z M150.008,274 L150.008,273.676 C149.9,273.676 149.828,273.658 149.792,273.622 C149.756,273.586 149.738,273.52 149.738,273.424 C149.738,273.388 149.783,273.253 149.873,273.019 C149.963,272.785 150.077,272.497 150.215,272.155 C150.353,271.813 150.503,271.441 150.665,271.039 C150.827,270.637 150.98,270.253 151.124,269.887 C151.268,269.521 151.394,269.197 151.502,268.915 C151.61,268.633 151.676,268.438 151.7,268.33 L151.7,268.33 L151.736,268.33 C151.928,268.93 152.126,269.524 152.33,270.112 C152.534,270.7 152.723,271.231 152.897,271.705 C153.071,272.179 153.212,272.572 153.32,272.884 C153.428,273.196 153.482,273.376 153.482,273.424 C153.482,273.52 153.47,273.583 153.446,273.613 C153.422,273.643 153.362,273.664 153.266,273.676 L153.266,273.676 L153.266,274 L155.786,274 L155.786,273.676 C155.618,273.676 155.534,273.598 155.534,273.442 C155.534,273.382 155.57,273.271 155.642,273.109 C155.714,272.947 155.786,272.764 155.858,272.56 L155.858,272.56 L157.928,267.07 C158.084,266.626 158.264,266.404 158.468,266.404 L158.468,266.404 L158.468,266.08 L156.182,266.08 L156.182,266.404 C156.374,266.404 156.47,266.488 156.47,266.656 C156.47,266.74 156.449,266.845 156.407,266.971 C156.365,267.097 156.314,267.244 156.254,267.412 L156.254,267.412 L154.58,271.786 L152.996,267.448 C152.936,267.304 152.876,267.151 152.816,266.989 C152.756,266.827 152.726,266.704 152.726,266.62 C152.726,266.476 152.834,266.404 153.05,266.404 L153.05,266.404 L153.05,266.08 L150.476,266.08 L150.476,266.404 C150.668,266.404 150.764,266.488 150.764,266.656 C150.764,266.752 150.737,266.875 150.683,267.025 C150.629,267.175 150.572,267.334 150.512,267.502 L150.512,267.502 L148.982,271.786 L148.946,271.786 L147.362,267.412 C147.29,267.22 147.23,267.061 147.182,266.935 C147.134,266.809 147.11,266.716 147.11,266.656 C147.11,266.488 147.188,266.404 147.344,266.404 L147.344,266.404 L147.344,266.08 L145.058,266.08 L145.058,266.404 C145.238,266.44 145.364,266.554 145.436,266.746 L145.436,266.746 L147.812,272.992 C147.836,273.052 147.869,273.139 147.911,273.253 C147.953,273.367 147.974,273.46 147.974,273.532 C147.974,273.604 147.956,273.646 147.92,273.658 C147.884,273.67 147.842,273.676 147.794,273.676 L147.794,273.676 L147.794,274 L150.008,274 Z M167.972,274 L167.972,273.676 C167.768,273.676 167.666,273.586 167.666,273.406 L167.666,273.406 L167.666,268.348 L167.684,268.348 L170.582,274 L170.726,274 L173.786,268.348 L173.822,268.348 L173.822,273.406 C173.858,273.586 173.75,273.676 173.498,273.676 L173.498,273.676 L173.498,274 L175.586,274 L175.586,273.676 C175.526,273.676 175.469,273.655 175.415,273.613 C175.361,273.571 175.334,273.502 175.334,273.406 L175.334,273.406 L175.334,266.638 C175.334,266.542 175.361,266.479 175.415,266.449 C175.469,266.419 175.526,266.404 175.586,266.404 L175.586,266.404 L175.586,266.08 L173.048,266.08 L173.048,266.404 C173.144,266.404 173.192,266.458 173.192,266.566 C173.192,266.602 173.168,266.665 173.12,266.755 C173.072,266.845 173.006,266.962 172.922,267.106 L172.922,267.106 L170.708,271.138 L168.512,267.088 C168.428,266.944 168.365,266.833 168.323,266.755 C168.281,266.677 168.26,266.614 168.26,266.566 C168.26,266.458 168.32,266.404 168.44,266.404 L168.44,266.404 L168.44,266.08 L165.938,266.08 L165.938,266.404 C166.022,266.404 166.079,266.422 166.109,266.458 C166.139,266.494 166.154,266.596 166.154,266.764 L166.154,266.764 L166.154,273.352 C166.154,273.484 166.133,273.568 166.091,273.604 C166.049,273.64 165.998,273.664 165.938,273.676 L165.938,273.676 L165.938,274 L167.972,274 Z M183.47,274 L183.47,273.676 C183.242,273.676 183.128,273.586 183.128,273.406 L183.128,273.406 L183.128,270.706 L185.882,267.142 C186.014,266.974 186.167,266.809 186.341,266.647 C186.515,266.485 186.674,266.404 186.818,266.404 L186.818,266.404 L186.818,266.08 L184.064,266.08 L184.064,266.404 C184.124,266.404 184.184,266.416 184.244,266.44 C184.304,266.464 184.334,266.524 184.334,266.62 C184.334,266.692 184.307,266.767 184.253,266.845 C184.199,266.923 184.118,267.04 184.01,267.196 L184.01,267.196 L182.408,269.428 L180.59,267.052 C180.53,266.968 180.476,266.896 180.428,266.836 C180.38,266.776 180.356,266.71 180.356,266.638 C180.356,266.566 180.392,266.509 180.464,266.467 C180.536,266.425 180.602,266.404 180.662,266.404 L180.662,266.404 L180.662,266.08 L177.692,266.08 L177.692,266.404 C177.8,266.404 177.914,266.428 178.034,266.476 C178.154,266.524 178.256,266.602 178.34,266.71 L178.34,266.71 L181.4,270.634 L181.4,273.406 C181.4,273.586 181.292,273.676 181.076,273.676 L181.076,273.676 L181.076,274 L183.47,274 Z M198.248,274.054 C198.908,274.054 199.529,273.979 200.111,273.829 C200.693,273.679 201.2,273.436 201.632,273.1 C202.064,272.764 202.406,272.341 202.658,271.831 C202.91,271.321 203.036,270.724 203.036,270.04 C203.036,269.356 202.91,268.759 202.658,268.249 C202.406,267.739 202.064,267.316 201.632,266.98 C201.2,266.644 200.693,266.392 200.111,266.224 C199.529,266.056 198.908,265.972 198.248,265.972 C197.588,265.972 196.967,266.056 196.385,266.224 C195.803,266.392 195.296,266.644 194.864,266.98 C194.432,267.316 194.09,267.739 193.838,268.249 C193.586,268.759 193.46,269.356 193.46,270.04 C193.46,270.724 193.586,271.321 193.838,271.831 C194.09,272.341 194.432,272.764 194.864,273.1 C195.296,273.436 195.803,273.679 196.385,273.829 C196.967,273.979 197.588,274.054 198.248,274.054 Z M198.248,272.776 C197.864,272.776 197.489,272.713 197.123,272.587 C196.757,272.461 196.43,272.281 196.142,272.047 C195.854,271.813 195.623,271.528 195.449,271.192 C195.275,270.856 195.188,270.472 195.188,270.04 C195.188,269.608 195.275,269.224 195.449,268.888 C195.623,268.552 195.854,268.267 196.142,268.033 C196.43,267.799 196.757,267.619 197.123,267.493 C197.489,267.367 197.864,267.304 198.248,267.304 C198.632,267.304 199.007,267.367 199.373,267.493 C199.739,267.619 200.066,267.799 200.354,268.033 C200.642,268.267 200.873,268.552 201.047,268.888 C201.221,269.224 201.308,269.608 201.308,270.04 C201.308,270.472 201.221,270.856 201.047,271.192 C200.873,271.528 200.642,271.813 200.354,272.047 C200.066,272.281 199.739,272.461 199.373,272.587 C199.007,272.713 198.632,272.776 198.248,272.776 Z M213.008,274.18 L213.008,272.29 L212.684,272.29 C212.684,272.41 212.636,272.503 212.54,272.569 C212.444,272.635 212.324,272.668 212.18,272.668 L212.18,272.668 L207.32,272.668 L207.32,266.674 C207.32,266.494 207.458,266.404 207.734,266.404 L207.734,266.404 L207.734,266.08 L205.124,266.08 L205.124,266.404 C205.436,266.404 205.592,266.494 205.592,266.674 L205.592,266.674 L205.592,273.406 C205.592,273.586 205.436,273.676 205.124,273.676 L205.124,273.676 L205.124,274 L212.18,274 C212.324,274 212.444,274.006 212.54,274.018 C212.636,274.03 212.684,274.084 212.684,274.18 L212.684,274.18 L213.008,274.18 Z M220.046,274 C220.754,274 221.354,273.886 221.846,273.658 C222.338,273.43 222.74,273.133 223.052,272.767 C223.364,272.401 223.592,271.981 223.736,271.507 C223.88,271.033 223.952,270.544 223.952,270.04 C223.952,269.536 223.877,269.047 223.727,268.573 C223.577,268.099 223.343,267.679 223.025,267.313 C222.707,266.947 222.296,266.65 221.792,266.422 C221.288,266.194 220.682,266.08 219.974,266.08 L219.974,266.08 L214.97,266.08 L214.97,266.404 C215.246,266.404 215.384,266.494 215.384,266.674 L215.384,266.674 L215.384,273.406 C215.384,273.586 215.246,273.676 214.97,273.676 L214.97,273.676 L214.97,274 L220.046,274 Z M219.452,272.668 L217.112,272.668 L217.112,267.412 L219.452,267.412 C219.824,267.412 220.178,267.433 220.514,267.475 C220.85,267.517 221.144,267.625 221.396,267.799 C221.648,267.973 221.849,268.231 221.999,268.573 C222.149,268.915 222.224,269.386 222.224,269.986 C222.224,270.586 222.149,271.063 221.999,271.417 C221.849,271.771 221.648,272.041 221.396,272.227 C221.144,272.413 220.85,272.533 220.514,272.587 C220.178,272.641 219.824,272.668 219.452,272.668 L219.452,272.668 Z M95.864,292 L95.864,291.676 C95.756,291.676 95.66,291.655 95.576,291.613 C95.492,291.571 95.45,291.502 95.45,291.406 L95.45,291.406 L95.45,288.652 L98.618,288.652 C98.822,288.652 98.948,288.676 98.996,288.724 C99.044,288.772 99.074,288.844 99.086,288.94 L99.086,288.94 L99.41,288.94 L99.41,287.05 L99.086,287.05 C99.074,287.146 99.044,287.215 98.996,287.257 C98.948,287.299 98.822,287.32 98.618,287.32 L98.618,287.32 L95.45,287.32 L95.45,285.412 L100.328,285.412 C100.532,285.412 100.676,285.439 100.76,285.493 C100.844,285.547 100.886,285.604 100.886,285.664 L100.886,285.664 L101.21,285.664 L101.21,283.756 L100.886,283.756 C100.886,283.852 100.844,283.93 100.76,283.99 C100.676,284.05 100.532,284.08 100.328,284.08 L100.328,284.08 L93.344,284.08 L93.344,284.404 C93.596,284.404 93.722,284.494 93.722,284.674 L93.722,284.674 L93.722,291.406 C93.722,291.586 93.608,291.676 93.38,291.676 L93.38,291.676 L93.38,292 L95.864,292 Z M105.8,292 L105.8,291.676 C105.728,291.676 105.653,291.655 105.575,291.613 C105.497,291.571 105.458,291.502 105.458,291.406 L105.458,291.406 L105.458,288.832 L107.96,288.832 L109.382,290.956 C109.562,291.208 109.652,291.394 109.652,291.514 C109.652,291.622 109.574,291.676 109.418,291.676 L109.418,291.676 L109.418,292 L112.172,292 L112.172,291.676 C112.04,291.64 111.917,291.589 111.803,291.523 C111.689,291.457 111.584,291.358 111.488,291.226 L111.488,291.226 L109.724,288.652 C109.976,288.592 110.222,288.505 110.462,288.391 C110.702,288.277 110.921,288.127 111.119,287.941 C111.317,287.755 111.476,287.536 111.596,287.284 C111.716,287.032 111.776,286.744 111.776,286.42 C111.776,285.568 111.476,284.965 110.876,284.611 C110.276,284.257 109.442,284.08 108.374,284.08 L108.374,284.08 L103.406,284.08 L103.406,284.404 C103.622,284.404 103.73,284.494 103.73,284.674 L103.73,284.674 L103.73,291.406 C103.73,291.586 103.622,291.676 103.406,291.676 L103.406,291.676 L103.406,292 L105.8,292 Z M108.338,287.5 L105.494,287.5 L105.494,285.412 L108.338,285.412 C108.95,285.412 109.397,285.499 109.679,285.673 C109.961,285.847 110.102,286.084 110.102,286.384 C110.102,287.128 109.514,287.5 108.338,287.5 L108.338,287.5 Z M117.356,292 L117.356,291.676 C117.02,291.676 116.852,291.586 116.852,291.406 L116.852,291.406 L116.852,284.674 C116.852,284.494 117.02,284.404 117.356,284.404 L117.356,284.404 L117.356,284.08 L114.62,284.08 L114.62,284.404 C114.812,284.404 114.944,284.425 115.016,284.467 C115.088,284.509 115.124,284.578 115.124,284.674 L115.124,284.674 L115.124,291.406 C115.124,291.502 115.088,291.571 115.016,291.613 C114.944,291.655 114.812,291.676 114.62,291.676 L114.62,291.676 L114.62,292 L117.356,292 Z M127.904,292.198 L127.904,290.308 L127.58,290.308 C127.58,290.416 127.532,290.503 127.436,290.569 C127.34,290.635 127.22,290.668 127.076,290.668 L127.076,290.668 L122.468,290.668 L122.468,288.544 L125.096,288.544 C125.336,288.544 125.522,288.559 125.654,288.589 C125.786,288.619 125.834,288.7 125.798,288.832 L125.798,288.832 L126.158,288.832 L126.158,286.924 L125.834,286.924 C125.834,287.056 125.786,287.137 125.69,287.167 C125.594,287.197 125.444,287.212 125.24,287.212 L125.24,287.212 L122.468,287.212 L122.468,285.412 L126.86,285.412 C127.232,285.412 127.418,285.526 127.418,285.754 L127.418,285.754 L127.742,285.754 L127.742,283.756 L127.418,283.756 C127.418,283.972 127.232,284.08 126.86,284.08 L126.86,284.08 L120.47,284.08 L120.47,284.404 C120.53,284.404 120.59,284.425 120.65,284.467 C120.71,284.509 120.74,284.578 120.74,284.674 L120.74,284.674 L120.74,291.406 C120.74,291.502 120.71,291.571 120.65,291.613 C120.59,291.655 120.53,291.676 120.47,291.676 L120.47,291.676 L120.47,292 L127.076,292 C127.22,292 127.34,292.006 127.436,292.018 C127.532,292.03 127.58,292.09 127.58,292.198 L127.58,292.198 L127.904,292.198 Z M132.674,292 L132.674,291.676 C132.422,291.676 132.296,291.586 132.296,291.406 L132.296,291.406 L132.296,286.168 L136.76,290.92 C136.904,291.076 137.033,291.214 137.147,291.334 C137.261,291.454 137.318,291.538 137.318,291.586 C137.318,291.646 137.276,291.676 137.192,291.676 L137.192,291.676 L137.192,292 L139.532,292 L139.532,291.676 C139.316,291.676 139.208,291.586 139.208,291.406 L139.208,291.406 L139.208,284.674 C139.208,284.494 139.316,284.404 139.532,284.404 L139.532,284.404 L139.532,284.08 L137.336,284.08 L137.336,284.404 C137.576,284.404 137.696,284.494 137.696,284.674 L137.696,284.674 L137.696,289.552 L133.376,284.98 C133.112,284.716 132.98,284.554 132.98,284.494 C132.98,284.446 133.022,284.416 133.106,284.404 L133.106,284.404 L133.106,284.08 L130.46,284.08 L130.46,284.404 C130.676,284.404 130.784,284.494 130.784,284.674 L130.784,284.674 L130.784,291.406 C130.784,291.586 130.676,291.676 130.46,291.676 L130.46,291.676 L130.46,292 L132.674,292 Z M147.29,292 C147.998,292 148.598,291.886 149.09,291.658 C149.582,291.43 149.984,291.133 150.296,290.767 C150.608,290.401 150.836,289.981 150.98,289.507 C151.124,289.033 151.196,288.544 151.196,288.04 C151.196,287.536 151.121,287.047 150.971,286.573 C150.821,286.099 150.587,285.679 150.269,285.313 C149.951,284.947 149.54,284.65 149.036,284.422 C148.532,284.194 147.926,284.08 147.218,284.08 L147.218,284.08 L142.214,284.08 L142.214,284.404 C142.49,284.404 142.628,284.494 142.628,284.674 L142.628,284.674 L142.628,291.406 C142.628,291.586 142.49,291.676 142.214,291.676 L142.214,291.676 L142.214,292 L147.29,292 Z M146.696,290.668 L144.356,290.668 L144.356,285.412 L146.696,285.412 C147.068,285.412 147.422,285.433 147.758,285.475 C148.094,285.517 148.388,285.625 148.64,285.799 C148.892,285.973 149.093,286.231 149.243,286.573 C149.393,286.915 149.468,287.386 149.468,287.986 C149.468,288.586 149.393,289.063 149.243,289.417 C149.093,289.771 148.892,290.041 148.64,290.227 C148.388,290.413 148.094,290.533 147.758,290.587 C147.422,290.641 147.068,290.668 146.696,290.668 L146.696,290.668 Z M167,292.054 C167.348,292.054 167.648,291.937 167.9,291.703 C168.152,291.469 168.278,291.178 168.278,290.83 C168.278,290.482 168.152,290.182 167.9,289.93 C167.648,289.678 167.348,289.552 167,289.552 C166.652,289.552 166.352,289.678 166.1,289.93 C165.848,290.182 165.722,290.482 165.722,290.83 C165.722,291.178 165.848,291.469 166.1,291.703 C166.352,291.937 166.652,292.054 167,292.054 Z M161.006,292.054 C161.354,292.054 161.654,291.937 161.906,291.703 C162.158,291.469 162.284,291.178 162.284,290.83 C162.284,290.482 162.158,290.182 161.906,289.93 C161.654,289.678 161.354,289.552 161.006,289.552 C160.658,289.552 160.358,289.678 160.106,289.93 C159.854,290.182 159.728,290.482 159.728,290.83 C159.728,291.178 159.854,291.469 160.106,291.703 C160.358,291.937 160.658,292.054 161.006,292.054 Z M155.012,292.054 C155.36,292.054 155.66,291.937 155.912,291.703 C156.164,291.469 156.29,291.178 156.29,290.83 C156.29,290.482 156.164,290.182 155.912,289.93 C155.66,289.678 155.36,289.552 155.012,289.552 C154.664,289.552 154.364,289.678 154.112,289.93 C153.86,290.182 153.734,290.482 153.734,290.83 C153.734,291.178 153.86,291.469 154.112,291.703 C154.364,291.937 154.664,292.054 155.012,292.054 Z M58.19,310 L58.19,309.676 C57.962,309.676 57.848,309.61 57.848,309.478 C57.848,309.37 57.908,309.19 58.028,308.938 L58.028,308.938 L58.676,307.66 L63.068,307.66 L63.752,308.992 C63.848,309.184 63.896,309.34 63.896,309.46 C63.896,309.532 63.86,309.586 63.788,309.622 C63.716,309.658 63.656,309.676 63.608,309.676 L63.608,309.676 L63.608,310 L66.776,310 L66.776,309.676 C66.644,309.616 66.527,309.556 66.425,309.496 C66.323,309.436 66.242,309.34 66.182,309.208 L66.182,309.208 L62.438,301.882 C62.354,301.726 62.291,301.6 62.249,301.504 C62.207,301.408 62.186,301.312 62.186,301.216 C62.186,301.084 62.228,300.997 62.312,300.955 C62.396,300.913 62.48,300.88 62.564,300.856 L62.564,300.856 L62.564,300.532 L59.522,300.532 L59.522,300.856 C59.618,300.88 59.708,300.916 59.792,300.964 C59.876,301.012 59.918,301.096 59.918,301.216 C59.918,301.312 59.885,301.426 59.819,301.558 C59.753,301.69 59.678,301.834 59.594,301.99 L59.594,301.99 L56.264,308.992 C56.18,309.16 56.093,309.31 56.003,309.442 C55.913,309.574 55.79,309.652 55.634,309.676 L55.634,309.676 L55.634,310 L58.19,310 Z M62.42,306.328 L59.216,306.328 L60.908,302.98 L62.42,306.328 Z M73.544,310 C74.252,310 74.852,309.886 75.344,309.658 C75.836,309.43 76.238,309.133 76.55,308.767 C76.862,308.401 77.09,307.981 77.234,307.507 C77.378,307.033 77.45,306.544 77.45,306.04 C77.45,305.536 77.375,305.047 77.225,304.573 C77.075,304.099 76.841,303.679 76.523,303.313 C76.205,302.947 75.794,302.65 75.29,302.422 C74.786,302.194 74.18,302.08 73.472,302.08 L73.472,302.08 L68.468,302.08 L68.468,302.404 C68.744,302.404 68.882,302.494 68.882,302.674 L68.882,302.674 L68.882,309.406 C68.882,309.586 68.744,309.676 68.468,309.676 L68.468,309.676 L68.468,310 L73.544,310 Z M72.95,308.668 L70.61,308.668 L70.61,303.412 L72.95,303.412 C73.322,303.412 73.676,303.433 74.012,303.475 C74.348,303.517 74.642,303.625 74.894,303.799 C75.146,303.973 75.347,304.231 75.497,304.573 C75.647,304.915 75.722,305.386 75.722,305.986 C75.722,306.586 75.647,307.063 75.497,307.417 C75.347,307.771 75.146,308.041 74.894,308.227 C74.642,308.413 74.348,308.533 74.012,308.587 C73.676,308.641 73.322,308.668 72.95,308.668 L72.95,308.668 Z M84.542,310 C85.25,310 85.85,309.886 86.342,309.658 C86.834,309.43 87.236,309.133 87.548,308.767 C87.86,308.401 88.088,307.981 88.232,307.507 C88.376,307.033 88.448,306.544 88.448,306.04 C88.448,305.536 88.373,305.047 88.223,304.573 C88.073,304.099 87.839,303.679 87.521,303.313 C87.203,302.947 86.792,302.65 86.288,302.422 C85.784,302.194 85.178,302.08 84.47,302.08 L84.47,302.08 L79.466,302.08 L79.466,302.404 C79.742,302.404 79.88,302.494 79.88,302.674 L79.88,302.674 L79.88,309.406 C79.88,309.586 79.742,309.676 79.466,309.676 L79.466,309.676 L79.466,310 L84.542,310 Z M83.948,308.668 L81.608,308.668 L81.608,303.412 L83.948,303.412 C84.32,303.412 84.674,303.433 85.01,303.475 C85.346,303.517 85.64,303.625 85.892,303.799 C86.144,303.973 86.345,304.231 86.495,304.573 C86.645,304.915 86.72,305.386 86.72,305.986 C86.72,306.586 86.645,307.063 86.495,307.417 C86.345,307.771 86.144,308.041 85.892,308.227 C85.64,308.413 85.346,308.533 85.01,308.587 C84.674,308.641 84.32,308.668 83.948,308.668 L83.948,308.668 Z M100.436,310 L100.436,309.676 C100.22,309.676 100.112,309.586 100.112,309.406 L100.112,309.406 L100.112,303.412 L102.452,303.412 C102.548,303.412 102.638,303.436 102.722,303.484 C102.806,303.532 102.848,303.61 102.848,303.718 L102.848,303.718 L103.172,303.718 L103.172,301.648 L102.848,301.648 C102.848,301.816 102.806,301.93 102.722,301.99 C102.638,302.05 102.548,302.08 102.452,302.08 L102.452,302.08 L96.044,302.08 C95.948,302.08 95.858,302.05 95.774,301.99 C95.69,301.93 95.648,301.816 95.648,301.648 L95.648,301.648 L95.324,301.648 L95.324,303.718 L95.648,303.718 C95.648,303.61 95.69,303.532 95.774,303.484 C95.858,303.436 95.948,303.412 96.044,303.412 L96.044,303.412 L98.384,303.412 L98.384,309.406 C98.384,309.502 98.354,309.571 98.294,309.613 C98.234,309.655 98.174,309.676 98.114,309.676 L98.114,309.676 L98.114,310 L100.436,310 Z M107.6,310 L107.6,309.676 C107.528,309.676 107.465,309.655 107.411,309.613 C107.357,309.571 107.33,309.502 107.33,309.406 L107.33,309.406 L107.33,306.688 L112.154,306.688 L112.154,309.406 C112.154,309.502 112.127,309.571 112.073,309.613 C112.019,309.655 111.956,309.676 111.884,309.676 L111.884,309.676 L111.884,310 L114.152,310 L114.152,309.676 C114.08,309.676 114.017,309.655 113.963,309.613 C113.909,309.571 113.882,309.502 113.882,309.406 L113.882,309.406 L113.882,302.674 C113.882,302.578 113.909,302.509 113.963,302.467 C114.017,302.425 114.08,302.404 114.152,302.404 L114.152,302.404 L114.152,302.08 L111.884,302.08 L111.884,302.404 C111.956,302.404 112.019,302.425 112.073,302.467 C112.127,302.509 112.154,302.578 112.154,302.674 L112.154,302.674 L112.154,305.212 L107.33,305.212 L107.33,302.674 C107.33,302.578 107.357,302.509 107.411,302.467 C107.465,302.425 107.528,302.404 107.6,302.404 L107.6,302.404 L107.6,302.08 L105.332,302.08 L105.332,302.404 C105.404,302.404 105.467,302.425 105.521,302.467 C105.575,302.509 105.602,302.578 105.602,302.674 L105.602,302.674 L105.602,309.406 C105.602,309.502 105.575,309.571 105.521,309.613 C105.467,309.655 105.404,309.676 105.332,309.676 L105.332,309.676 L105.332,310 L107.6,310 Z M120.11,310 L120.11,309.676 C119.774,309.676 119.606,309.586 119.606,309.406 L119.606,309.406 L119.606,302.674 C119.606,302.494 119.774,302.404 120.11,302.404 L120.11,302.404 L120.11,302.08 L117.374,302.08 L117.374,302.404 C117.566,302.404 117.698,302.425 117.77,302.467 C117.842,302.509 117.878,302.578 117.878,302.674 L117.878,302.674 L117.878,309.406 C117.878,309.502 117.842,309.571 117.77,309.613 C117.698,309.655 117.566,309.676 117.374,309.676 L117.374,309.676 L117.374,310 L120.11,310 Z M126.608,310.054 C127.016,310.054 127.451,310.024 127.913,309.964 C128.375,309.904 128.798,309.778 129.182,309.586 C129.566,309.394 129.887,309.13 130.145,308.794 C130.403,308.458 130.532,308.026 130.532,307.498 C130.532,306.97 130.385,306.556 130.091,306.256 C129.797,305.956 129.428,305.728 128.984,305.572 C128.54,305.416 128.06,305.305 127.544,305.239 C127.028,305.173 126.548,305.107 126.104,305.041 C125.66,304.975 125.291,304.885 124.997,304.771 C124.703,304.657 124.556,304.468 124.556,304.204 C124.556,304.036 124.604,303.895 124.7,303.781 C124.796,303.667 124.928,303.574 125.096,303.502 C125.264,303.43 125.456,303.379 125.672,303.349 C125.888,303.319 126.116,303.304 126.356,303.304 C126.98,303.304 127.544,303.376 128.048,303.52 C128.552,303.664 128.924,303.838 129.164,304.042 C129.26,304.114 129.314,304.186 129.326,304.258 L129.326,304.258 L129.362,304.474 L129.686,304.582 L130.586,302.89 L130.388,302.692 C130.316,302.728 130.256,302.761 130.208,302.791 C130.16,302.821 130.088,302.836 129.992,302.836 C129.908,302.836 129.779,302.791 129.605,302.701 C129.431,302.611 129.206,302.512 128.93,302.404 C128.654,302.296 128.315,302.197 127.913,302.107 C127.511,302.017 127.028,301.972 126.464,301.972 C125.312,301.972 124.418,302.2 123.782,302.656 C123.146,303.112 122.828,303.724 122.828,304.492 C122.828,305.008 122.975,305.407 123.269,305.689 C123.563,305.971 123.932,306.187 124.376,306.337 C124.82,306.487 125.3,306.595 125.816,306.661 C126.332,306.727 126.812,306.793 127.256,306.859 C127.7,306.925 128.069,307.018 128.363,307.138 C128.657,307.258 128.804,307.45 128.804,307.714 C128.804,307.942 128.72,308.125 128.552,308.263 C128.384,308.401 128.18,308.509 127.94,308.587 C127.7,308.665 127.457,308.716 127.211,308.74 C126.965,308.764 126.758,308.776 126.59,308.776 C126.41,308.776 126.161,308.746 125.843,308.686 C125.525,308.626 125.207,308.545 124.889,308.443 C124.571,308.341 124.298,308.215 124.07,308.065 C123.842,307.915 123.728,307.75 123.728,307.57 C123.728,307.51 123.731,307.453 123.737,307.399 C123.743,307.345 123.746,307.294 123.746,307.246 L123.746,307.246 L123.404,307.156 L122.576,309.172 L122.828,309.352 C122.888,309.28 122.96,309.244 123.044,309.244 C123.092,309.244 123.23,309.289 123.458,309.379 C123.686,309.469 123.965,309.565 124.295,309.667 C124.625,309.769 124.991,309.859 125.393,309.937 C125.795,310.015 126.2,310.054 126.608,310.054 Z M142.934,310 L142.934,309.676 C142.718,309.676 142.61,309.586 142.61,309.406 L142.61,309.406 L142.61,303.412 L144.95,303.412 C145.046,303.412 145.136,303.436 145.22,303.484 C145.304,303.532 145.346,303.61 145.346,303.718 L145.346,303.718 L145.67,303.718 L145.67,301.648 L145.346,301.648 C145.346,301.816 145.304,301.93 145.22,301.99 C145.136,302.05 145.046,302.08 144.95,302.08 L144.95,302.08 L138.542,302.08 C138.446,302.08 138.356,302.05 138.272,301.99 C138.188,301.93 138.146,301.816 138.146,301.648 L138.146,301.648 L137.822,301.648 L137.822,303.718 L138.146,303.718 C138.146,303.61 138.188,303.532 138.272,303.484 C138.356,303.436 138.446,303.412 138.542,303.412 L138.542,303.412 L140.882,303.412 L140.882,309.406 C140.882,309.502 140.852,309.571 140.792,309.613 C140.732,309.655 140.672,309.676 140.612,309.676 L140.612,309.676 L140.612,310 L142.934,310 Z M151.736,310.054 C152.396,310.054 153.017,309.979 153.599,309.829 C154.181,309.679 154.688,309.436 155.12,309.1 C155.552,308.764 155.894,308.341 156.146,307.831 C156.398,307.321 156.524,306.724 156.524,306.04 C156.524,305.356 156.398,304.759 156.146,304.249 C155.894,303.739 155.552,303.316 155.12,302.98 C154.688,302.644 154.181,302.392 153.599,302.224 C153.017,302.056 152.396,301.972 151.736,301.972 C151.076,301.972 150.455,302.056 149.873,302.224 C149.291,302.392 148.784,302.644 148.352,302.98 C147.92,303.316 147.578,303.739 147.326,304.249 C147.074,304.759 146.948,305.356 146.948,306.04 C146.948,306.724 147.074,307.321 147.326,307.831 C147.578,308.341 147.92,308.764 148.352,309.1 C148.784,309.436 149.291,309.679 149.873,309.829 C150.455,309.979 151.076,310.054 151.736,310.054 Z M151.736,308.776 C151.352,308.776 150.977,308.713 150.611,308.587 C150.245,308.461 149.918,308.281 149.63,308.047 C149.342,307.813 149.111,307.528 148.937,307.192 C148.763,306.856 148.676,306.472 148.676,306.04 C148.676,305.608 148.763,305.224 148.937,304.888 C149.111,304.552 149.342,304.267 149.63,304.033 C149.918,303.799 150.245,303.619 150.611,303.493 C150.977,303.367 151.352,303.304 151.736,303.304 C152.12,303.304 152.495,303.367 152.861,303.493 C153.227,303.619 153.554,303.799 153.842,304.033 C154.13,304.267 154.361,304.552 154.535,304.888 C154.709,305.224 154.796,305.608 154.796,306.04 C154.796,306.472 154.709,306.856 154.535,307.192 C154.361,307.528 154.13,307.813 153.842,308.047 C153.554,308.281 153.227,308.461 152.861,308.587 C152.495,308.713 152.12,308.776 151.736,308.776 Z M168.944,310 L168.944,309.676 C168.716,309.676 168.602,309.586 168.602,309.406 L168.602,309.406 L168.602,306.706 L171.356,303.142 C171.488,302.974 171.641,302.809 171.815,302.647 C171.989,302.485 172.148,302.404 172.292,302.404 L172.292,302.404 L172.292,302.08 L169.538,302.08 L169.538,302.404 C169.598,302.404 169.658,302.416 169.718,302.44 C169.778,302.464 169.808,302.524 169.808,302.62 C169.808,302.692 169.781,302.767 169.727,302.845 C169.673,302.923 169.592,303.04 169.484,303.196 L169.484,303.196 L167.882,305.428 L166.064,303.052 C166.004,302.968 165.95,302.896 165.902,302.836 C165.854,302.776 165.83,302.71 165.83,302.638 C165.83,302.566 165.866,302.509 165.938,302.467 C166.01,302.425 166.076,302.404 166.136,302.404 L166.136,302.404 L166.136,302.08 L163.166,302.08 L163.166,302.404 C163.274,302.404 163.388,302.428 163.508,302.476 C163.628,302.524 163.73,302.602 163.814,302.71 L163.814,302.71 L166.874,306.634 L166.874,309.406 C166.874,309.586 166.766,309.676 166.55,309.676 L166.55,309.676 L166.55,310 L168.944,310 Z M178.232,310.054 C178.892,310.054 179.513,309.979 180.095,309.829 C180.677,309.679 181.184,309.436 181.616,309.1 C182.048,308.764 182.39,308.341 182.642,307.831 C182.894,307.321 183.02,306.724 183.02,306.04 C183.02,305.356 182.894,304.759 182.642,304.249 C182.39,303.739 182.048,303.316 181.616,302.98 C181.184,302.644 180.677,302.392 180.095,302.224 C179.513,302.056 178.892,301.972 178.232,301.972 C177.572,301.972 176.951,302.056 176.369,302.224 C175.787,302.392 175.28,302.644 174.848,302.98 C174.416,303.316 174.074,303.739 173.822,304.249 C173.57,304.759 173.444,305.356 173.444,306.04 C173.444,306.724 173.57,307.321 173.822,307.831 C174.074,308.341 174.416,308.764 174.848,309.1 C175.28,309.436 175.787,309.679 176.369,309.829 C176.951,309.979 177.572,310.054 178.232,310.054 Z M178.232,308.776 C177.848,308.776 177.473,308.713 177.107,308.587 C176.741,308.461 176.414,308.281 176.126,308.047 C175.838,307.813 175.607,307.528 175.433,307.192 C175.259,306.856 175.172,306.472 175.172,306.04 C175.172,305.608 175.259,305.224 175.433,304.888 C175.607,304.552 175.838,304.267 176.126,304.033 C176.414,303.799 176.741,303.619 177.107,303.493 C177.473,303.367 177.848,303.304 178.232,303.304 C178.616,303.304 178.991,303.367 179.357,303.493 C179.723,303.619 180.05,303.799 180.338,304.033 C180.626,304.267 180.857,304.552 181.031,304.888 C181.205,305.224 181.292,305.608 181.292,306.04 C181.292,306.472 181.205,306.856 181.031,307.192 C180.857,307.528 180.626,307.813 180.338,308.047 C180.05,308.281 179.723,308.461 179.357,308.587 C178.991,308.713 178.616,308.776 178.232,308.776 Z M189.806,310.054 C190.526,310.054 191.153,309.979 191.687,309.829 C192.221,309.679 192.659,309.472 193.001,309.208 C193.343,308.944 193.598,308.641 193.766,308.299 C193.934,307.957 194.018,307.6 194.018,307.228 L194.018,307.228 L194.018,302.674 C194.018,302.494 194.15,302.404 194.414,302.404 L194.414,302.404 L194.414,302.08 L191.912,302.08 L191.912,302.404 C192.212,302.404 192.362,302.494 192.362,302.674 L192.362,302.674 L192.362,306.796 C192.362,307.372 192.152,307.834 191.732,308.182 C191.312,308.53 190.67,308.704 189.806,308.704 C188.942,308.704 188.3,308.53 187.88,308.182 C187.46,307.834 187.25,307.372 187.25,306.796 L187.25,306.796 L187.25,302.674 C187.25,302.494 187.382,302.404 187.646,302.404 L187.646,302.404 L187.646,302.08 L185.072,302.08 L185.072,302.404 C185.276,302.404 185.414,302.425 185.486,302.467 C185.558,302.509 185.594,302.578 185.594,302.674 L185.594,302.674 L185.594,307.228 C185.594,307.6 185.678,307.957 185.846,308.299 C186.014,308.641 186.269,308.944 186.611,309.208 C186.953,309.472 187.391,309.679 187.925,309.829 C188.459,309.979 189.086,310.054 189.806,310.054 Z M199.544,310 L199.544,309.676 C199.472,309.676 199.397,309.655 199.319,309.613 C199.241,309.571 199.202,309.502 199.202,309.406 L199.202,309.406 L199.202,306.832 L201.704,306.832 L203.126,308.956 C203.306,309.208 203.396,309.394 203.396,309.514 C203.396,309.622 203.318,309.676 203.162,309.676 L203.162,309.676 L203.162,310 L205.916,310 L205.916,309.676 C205.784,309.64 205.661,309.589 205.547,309.523 C205.433,309.457 205.328,309.358 205.232,309.226 L205.232,309.226 L203.468,306.652 C203.72,306.592 203.966,306.505 204.206,306.391 C204.446,306.277 204.665,306.127 204.863,305.941 C205.061,305.755 205.22,305.536 205.34,305.284 C205.46,305.032 205.52,304.744 205.52,304.42 C205.52,303.568 205.22,302.965 204.62,302.611 C204.02,302.257 203.186,302.08 202.118,302.08 L202.118,302.08 L197.15,302.08 L197.15,302.404 C197.366,302.404 197.474,302.494 197.474,302.674 L197.474,302.674 L197.474,309.406 C197.474,309.586 197.366,309.676 197.15,309.676 L197.15,309.676 L197.15,310 L199.544,310 Z M202.082,305.5 L199.238,305.5 L199.238,303.412 L202.082,303.412 C202.694,303.412 203.141,303.499 203.423,303.673 C203.705,303.847 203.846,304.084 203.846,304.384 C203.846,305.128 203.258,305.5 202.082,305.5 L202.082,305.5 Z M74.354,328.054 C74.762,328.054 75.197,328.024 75.659,327.964 C76.121,327.904 76.544,327.778 76.928,327.586 C77.312,327.394 77.633,327.13 77.891,326.794 C78.149,326.458 78.278,326.026 78.278,325.498 C78.278,324.97 78.131,324.556 77.837,324.256 C77.543,323.956 77.174,323.728 76.73,323.572 C76.286,323.416 75.806,323.305 75.29,323.239 C74.774,323.173 74.294,323.107 73.85,323.041 C73.406,322.975 73.037,322.885 72.743,322.771 C72.449,322.657 72.302,322.468 72.302,322.204 C72.302,322.036 72.35,321.895 72.446,321.781 C72.542,321.667 72.674,321.574 72.842,321.502 C73.01,321.43 73.202,321.379 73.418,321.349 C73.634,321.319 73.862,321.304 74.102,321.304 C74.726,321.304 75.29,321.376 75.794,321.52 C76.298,321.664 76.67,321.838 76.91,322.042 C77.006,322.114 77.06,322.186 77.072,322.258 L77.072,322.258 L77.108,322.474 L77.432,322.582 L78.332,320.89 L78.134,320.692 C78.062,320.728 78.002,320.761 77.954,320.791 C77.906,320.821 77.834,320.836 77.738,320.836 C77.654,320.836 77.525,320.791 77.351,320.701 C77.177,320.611 76.952,320.512 76.676,320.404 C76.4,320.296 76.061,320.197 75.659,320.107 C75.257,320.017 74.774,319.972 74.21,319.972 C73.058,319.972 72.164,320.2 71.528,320.656 C70.892,321.112 70.574,321.724 70.574,322.492 C70.574,323.008 70.721,323.407 71.015,323.689 C71.309,323.971 71.678,324.187 72.122,324.337 C72.566,324.487 73.046,324.595 73.562,324.661 C74.078,324.727 74.558,324.793 75.002,324.859 C75.446,324.925 75.815,325.018 76.109,325.138 C76.403,325.258 76.55,325.45 76.55,325.714 C76.55,325.942 76.466,326.125 76.298,326.263 C76.13,326.401 75.926,326.509 75.686,326.587 C75.446,326.665 75.203,326.716 74.957,326.74 C74.711,326.764 74.504,326.776 74.336,326.776 C74.156,326.776 73.907,326.746 73.589,326.686 C73.271,326.626 72.953,326.545 72.635,326.443 C72.317,326.341 72.044,326.215 71.816,326.065 C71.588,325.915 71.474,325.75 71.474,325.57 C71.474,325.51 71.477,325.453 71.483,325.399 C71.489,325.345 71.492,325.294 71.492,325.246 L71.492,325.246 L71.15,325.156 L70.322,327.172 L70.574,327.352 C70.634,327.28 70.706,327.244 70.79,327.244 C70.838,327.244 70.976,327.289 71.204,327.379 C71.432,327.469 71.711,327.565 72.041,327.667 C72.371,327.769 72.737,327.859 73.139,327.937 C73.541,328.015 73.946,328.054 74.354,328.054 Z M85.712,328 L85.712,327.676 C85.484,327.676 85.37,327.586 85.37,327.406 L85.37,327.406 L85.37,324.706 L88.124,321.142 C88.256,320.974 88.409,320.809 88.583,320.647 C88.757,320.485 88.916,320.404 89.06,320.404 L89.06,320.404 L89.06,320.08 L86.306,320.08 L86.306,320.404 C86.366,320.404 86.426,320.416 86.486,320.44 C86.546,320.464 86.576,320.524 86.576,320.62 C86.576,320.692 86.549,320.767 86.495,320.845 C86.441,320.923 86.36,321.04 86.252,321.196 L86.252,321.196 L84.65,323.428 L82.832,321.052 C82.772,320.968 82.718,320.896 82.67,320.836 C82.622,320.776 82.598,320.71 82.598,320.638 C82.598,320.566 82.634,320.509 82.706,320.467 C82.778,320.425 82.844,320.404 82.904,320.404 L82.904,320.404 L82.904,320.08 L79.934,320.08 L79.934,320.404 C80.042,320.404 80.156,320.428 80.276,320.476 C80.396,320.524 80.498,320.602 80.582,320.71 L80.582,320.71 L83.642,324.634 L83.642,327.406 C83.642,327.586 83.534,327.676 83.318,327.676 L83.318,327.676 L83.318,328 L85.712,328 Z M93.218,328 L93.218,327.676 C93.014,327.676 92.912,327.586 92.912,327.406 L92.912,327.406 L92.912,322.348 L92.93,322.348 L95.828,328 L95.972,328 L99.032,322.348 L99.068,322.348 L99.068,327.406 C99.104,327.586 98.996,327.676 98.744,327.676 L98.744,327.676 L98.744,328 L100.832,328 L100.832,327.676 C100.772,327.676 100.715,327.655 100.661,327.613 C100.607,327.571 100.58,327.502 100.58,327.406 L100.58,327.406 L100.58,320.638 C100.58,320.542 100.607,320.479 100.661,320.449 C100.715,320.419 100.772,320.404 100.832,320.404 L100.832,320.404 L100.832,320.08 L98.294,320.08 L98.294,320.404 C98.39,320.404 98.438,320.458 98.438,320.566 C98.438,320.602 98.414,320.665 98.366,320.755 C98.318,320.845 98.252,320.962 98.168,321.106 L98.168,321.106 L95.954,325.138 L93.758,321.088 C93.674,320.944 93.611,320.833 93.569,320.755 C93.527,320.677 93.506,320.614 93.506,320.566 C93.506,320.458 93.566,320.404 93.686,320.404 L93.686,320.404 L93.686,320.08 L91.184,320.08 L91.184,320.404 C91.268,320.404 91.325,320.422 91.355,320.458 C91.385,320.494 91.4,320.596 91.4,320.764 L91.4,320.764 L91.4,327.352 C91.4,327.484 91.379,327.568 91.337,327.604 C91.295,327.64 91.244,327.664 91.184,327.676 L91.184,327.676 L91.184,328 L93.218,328 Z M106.268,328 L106.268,327.676 C106.016,327.676 105.89,327.586 105.89,327.406 L105.89,327.406 L105.89,324.706 L108.95,324.706 C109.922,324.706 110.651,324.541 111.137,324.211 C111.623,323.881 111.866,323.284 111.866,322.42 C111.866,321.556 111.623,320.95 111.137,320.602 C110.651,320.254 109.922,320.08 108.95,320.08 L108.95,320.08 L103.712,320.08 L103.712,320.404 C104.012,320.404 104.162,320.494 104.162,320.674 L104.162,320.674 L104.162,327.406 C104.162,327.586 104.012,327.676 103.712,327.676 L103.712,327.676 L103.712,328 L106.268,328 Z M108.914,323.374 L105.89,323.374 L105.89,321.412 L108.914,321.412 C109.262,321.412 109.553,321.487 109.787,321.637 C110.021,321.787 110.138,322.048 110.138,322.42 C110.138,322.804 110.021,323.059 109.787,323.185 C109.553,323.311 109.262,323.374 108.914,323.374 L108.914,323.374 Z M118.202,328 L118.202,327.676 C117.986,327.676 117.878,327.586 117.878,327.406 L117.878,327.406 L117.878,321.412 L120.218,321.412 C120.314,321.412 120.404,321.436 120.488,321.484 C120.572,321.532 120.614,321.61 120.614,321.718 L120.614,321.718 L120.938,321.718 L120.938,319.648 L120.614,319.648 C120.614,319.816 120.572,319.93 120.488,319.99 C120.404,320.05 120.314,320.08 120.218,320.08 L120.218,320.08 L113.81,320.08 C113.714,320.08 113.624,320.05 113.54,319.99 C113.456,319.93 113.414,319.816 113.414,319.648 L113.414,319.648 L113.09,319.648 L113.09,321.718 L113.414,321.718 C113.414,321.61 113.456,321.532 113.54,321.484 C113.624,321.436 113.714,321.412 113.81,321.412 L113.81,321.412 L116.15,321.412 L116.15,327.406 C116.15,327.502 116.12,327.571 116.06,327.613 C116,327.655 115.94,327.676 115.88,327.676 L115.88,327.676 L115.88,328 L118.202,328 Z M127.004,328.054 C127.664,328.054 128.285,327.979 128.867,327.829 C129.449,327.679 129.956,327.436 130.388,327.1 C130.82,326.764 131.162,326.341 131.414,325.831 C131.666,325.321 131.792,324.724 131.792,324.04 C131.792,323.356 131.666,322.759 131.414,322.249 C131.162,321.739 130.82,321.316 130.388,320.98 C129.956,320.644 129.449,320.392 128.867,320.224 C128.285,320.056 127.664,319.972 127.004,319.972 C126.344,319.972 125.723,320.056 125.141,320.224 C124.559,320.392 124.052,320.644 123.62,320.98 C123.188,321.316 122.846,321.739 122.594,322.249 C122.342,322.759 122.216,323.356 122.216,324.04 C122.216,324.724 122.342,325.321 122.594,325.831 C122.846,326.341 123.188,326.764 123.62,327.1 C124.052,327.436 124.559,327.679 125.141,327.829 C125.723,327.979 126.344,328.054 127.004,328.054 Z M127.004,326.776 C126.62,326.776 126.245,326.713 125.879,326.587 C125.513,326.461 125.186,326.281 124.898,326.047 C124.61,325.813 124.379,325.528 124.205,325.192 C124.031,324.856 123.944,324.472 123.944,324.04 C123.944,323.608 124.031,323.224 124.205,322.888 C124.379,322.552 124.61,322.267 124.898,322.033 C125.186,321.799 125.513,321.619 125.879,321.493 C126.245,321.367 126.62,321.304 127.004,321.304 C127.388,321.304 127.763,321.367 128.129,321.493 C128.495,321.619 128.822,321.799 129.11,322.033 C129.398,322.267 129.629,322.552 129.803,322.888 C129.977,323.224 130.064,323.608 130.064,324.04 C130.064,324.472 129.977,324.856 129.803,325.192 C129.629,325.528 129.398,325.813 129.11,326.047 C128.822,326.281 128.495,326.461 128.129,326.587 C127.763,326.713 127.388,326.776 127.004,326.776 Z M136.22,328 L136.22,327.676 C136.016,327.676 135.914,327.586 135.914,327.406 L135.914,327.406 L135.914,322.348 L135.932,322.348 L138.83,328 L138.974,328 L142.034,322.348 L142.07,322.348 L142.07,327.406 C142.106,327.586 141.998,327.676 141.746,327.676 L141.746,327.676 L141.746,328 L143.834,328 L143.834,327.676 C143.774,327.676 143.717,327.655 143.663,327.613 C143.609,327.571 143.582,327.502 143.582,327.406 L143.582,327.406 L143.582,320.638 C143.582,320.542 143.609,320.479 143.663,320.449 C143.717,320.419 143.774,320.404 143.834,320.404 L143.834,320.404 L143.834,320.08 L141.296,320.08 L141.296,320.404 C141.392,320.404 141.44,320.458 141.44,320.566 C141.44,320.602 141.416,320.665 141.368,320.755 C141.32,320.845 141.254,320.962 141.17,321.106 L141.17,321.106 L138.956,325.138 L136.76,321.088 C136.676,320.944 136.613,320.833 136.571,320.755 C136.529,320.677 136.508,320.614 136.508,320.566 C136.508,320.458 136.568,320.404 136.688,320.404 L136.688,320.404 L136.688,320.08 L134.186,320.08 L134.186,320.404 C134.27,320.404 134.327,320.422 134.357,320.458 C134.387,320.494 134.402,320.596 134.402,320.764 L134.402,320.764 L134.402,327.352 C134.402,327.484 134.381,327.568 134.339,327.604 C134.297,327.64 134.246,327.664 134.186,327.676 L134.186,327.676 L134.186,328 L136.22,328 Z M154.76,328 L154.76,327.676 C154.508,327.676 154.382,327.586 154.382,327.406 L154.382,327.406 L154.382,324.706 L157.442,324.706 C158.414,324.706 159.143,324.541 159.629,324.211 C160.115,323.881 160.358,323.284 160.358,322.42 C160.358,321.556 160.115,320.95 159.629,320.602 C159.143,320.254 158.414,320.08 157.442,320.08 L157.442,320.08 L152.204,320.08 L152.204,320.404 C152.504,320.404 152.654,320.494 152.654,320.674 L152.654,320.674 L152.654,327.406 C152.654,327.586 152.504,327.676 152.204,327.676 L152.204,327.676 L152.204,328 L154.76,328 Z M157.406,323.374 L154.382,323.374 L154.382,321.412 L157.406,321.412 C157.754,321.412 158.045,321.487 158.279,321.637 C158.513,321.787 158.63,322.048 158.63,322.42 C158.63,322.804 158.513,323.059 158.279,323.185 C158.045,323.311 157.754,323.374 157.406,323.374 L157.406,323.374 Z M165.362,328 L165.362,327.676 C165.026,327.676 164.858,327.586 164.858,327.406 L164.858,327.406 L164.858,320.674 C164.858,320.494 165.026,320.404 165.362,320.404 L165.362,320.404 L165.362,320.08 L162.626,320.08 L162.626,320.404 C162.818,320.404 162.95,320.425 163.022,320.467 C163.094,320.509 163.13,320.578 163.13,320.674 L163.13,320.674 L163.13,327.406 C163.13,327.502 163.094,327.571 163.022,327.613 C162.95,327.655 162.818,327.676 162.626,327.676 L162.626,327.676 L162.626,328 L165.362,328 Z M176.252,328.18 L176.252,326.29 L175.928,326.29 C175.928,326.41 175.88,326.503 175.784,326.569 C175.688,326.635 175.568,326.668 175.424,326.668 L175.424,326.668 L170.564,326.668 L170.564,320.674 C170.564,320.494 170.702,320.404 170.978,320.404 L170.978,320.404 L170.978,320.08 L168.368,320.08 L168.368,320.404 C168.68,320.404 168.836,320.494 168.836,320.674 L168.836,320.674 L168.836,327.406 C168.836,327.586 168.68,327.676 168.368,327.676 L168.368,327.676 L168.368,328 L175.424,328 C175.568,328 175.688,328.006 175.784,328.018 C175.88,328.03 175.928,328.084 175.928,328.18 L175.928,328.18 L176.252,328.18 Z M185.918,328.198 L185.918,326.308 L185.594,326.308 C185.594,326.416 185.546,326.503 185.45,326.569 C185.354,326.635 185.234,326.668 185.09,326.668 L185.09,326.668 L180.482,326.668 L180.482,324.544 L183.11,324.544 C183.35,324.544 183.536,324.559 183.668,324.589 C183.8,324.619 183.848,324.7 183.812,324.832 L183.812,324.832 L184.172,324.832 L184.172,322.924 L183.848,322.924 C183.848,323.056 183.8,323.137 183.704,323.167 C183.608,323.197 183.458,323.212 183.254,323.212 L183.254,323.212 L180.482,323.212 L180.482,321.412 L184.874,321.412 C185.246,321.412 185.432,321.526 185.432,321.754 L185.432,321.754 L185.756,321.754 L185.756,319.756 L185.432,319.756 C185.432,319.972 185.246,320.08 184.874,320.08 L184.874,320.08 L178.484,320.08 L178.484,320.404 C178.544,320.404 178.604,320.425 178.664,320.467 C178.724,320.509 178.754,320.578 178.754,320.674 L178.754,320.674 L178.754,327.406 C178.754,327.502 178.724,327.571 178.664,327.613 C178.604,327.655 178.544,327.676 178.484,327.676 L178.484,327.676 L178.484,328 L185.09,328 C185.234,328 185.354,328.006 185.45,328.018 C185.546,328.03 185.594,328.09 185.594,328.198 L185.594,328.198 L185.918,328.198 Z M189.752,328.054 C190.1,328.054 190.4,327.937 190.652,327.703 C190.904,327.469 191.03,327.178 191.03,326.83 C191.03,326.482 190.904,326.182 190.652,325.93 C190.4,325.678 190.1,325.552 189.752,325.552 C189.404,325.552 189.104,325.678 188.852,325.93 C188.6,326.182 188.474,326.482 188.474,326.83 C188.474,327.178 188.6,327.469 188.852,327.703 C189.104,327.937 189.404,328.054 189.752,328.054 Z" id="HellopillowmyoldfriendAddthistoyoursymptompile." fill="#000000" fill-rule="nonzero"></path>
    </g>
</svg>